<svg xmlns="http://www.w3.org/2000/svg" viewBox="0 0 864 504"><defs><style>.cls-1,.cls-4{fill:#ff8873;}.cls-1{opacity:0.08;}.cls-2{fill:#f5f1f0;}.cls-3{fill:#858282;}.cls-5{fill:#fff;}</style></defs><title>material-95</title><g id="Layer_1" data-name="Layer 1"><rect class="cls-1" x="504" y="156" width="192" height="192" rx="96"/><rect class="cls-2" x="168" y="156" width="192" height="192" rx="96"/><path class="cls-3" d="M264,192a60,60,0,1,0,60,60A60.07,60.07,0,0,0,264,192Zm0,108a48,48,0,1,1,48-48A48.06,48.06,0,0,1,264,300Z"/><path class="cls-4" d="M600,192a60,60,0,1,0,60,60A60.07,60.07,0,0,0,600,192Zm0,108a48,48,0,1,1,48-48A48.05,48.05,0,0,1,600,300Zm36-48a36,36,0,1,1-36-36A36,36,0,0,1,636,252Z"/><rect x="252" y="120.01" width="24" height="24" transform="translate(396.01 -131.99) rotate(90)"/><rect x="263.76" y="144" width="0.5" height="12"/><path class="cls-5" d="M267.46,136.51h-6.69v-1.14l3.31-3.62a8.17,8.17,0,0,0,1-1.33,2.12,2.12,0,0,0,.31-1.08,1.67,1.67,0,0,0-.4-1.15,1.41,1.41,0,0,0-1.08-.44,1.6,1.6,0,0,0-1.25.5,1.88,1.88,0,0,0-.44,1.34h-1.66A3.19,3.19,0,0,1,261,128a2.82,2.82,0,0,1,1.18-1.14,3.89,3.89,0,0,1,1.78-.4,3.34,3.34,0,0,1,2.28.73,2.52,2.52,0,0,1,.84,2,3.39,3.39,0,0,1-.42,1.56,8.63,8.63,0,0,1-1.38,1.86l-2.43,2.6h4.62Z"/><rect x="588" y="120.01" width="24" height="24" transform="translate(732.01 -467.99) rotate(90)"/><rect x="599.76" y="144" width="0.5" height="108"/><path class="cls-5" d="M598.69,130.78h1a1.83,1.83,0,0,0,1.21-.4,1.42,1.42,0,0,0,.45-1.13,1.35,1.35,0,0,0-1.51-1.5,1.57,1.57,0,0,0-1.1.39,1.28,1.28,0,0,0-.43,1h-1.66a2.54,2.54,0,0,1,.4-1.4,2.74,2.74,0,0,1,1.14-1,3.75,3.75,0,0,1,1.63-.35,3.43,3.43,0,0,1,2.34.75,2.61,2.61,0,0,1,.85,2.08,2.07,2.07,0,0,1-.43,1.26,2.59,2.59,0,0,1-1.1.89,2.49,2.49,0,0,1,1.25.89,2.44,2.44,0,0,1,.43,1.43,2.67,2.67,0,0,1-.92,2.13,3.58,3.58,0,0,1-2.42.8,3.54,3.54,0,0,1-2.35-.77,2.53,2.53,0,0,1-.92-2h1.66a1.4,1.4,0,0,0,.44,1.07,1.7,1.7,0,0,0,1.19.41,1.76,1.76,0,0,0,1.22-.41,1.83,1.83,0,0,0,0-2.4,2,2,0,0,0-1.38-.42h-1Z"/><rect x="372" y="240" width="24" height="24"/><rect x="318" y="251.75" width="54" height="0.5"/><path class="cls-5" d="M385.26,256.5h-1.65v-8l-2.44.84v-1.4l3.88-1.43h.21Z"/><rect x="708" y="240" width="24" height="24"/><rect x="654" y="251.75" width="54" height="0.5"/><path class="cls-5" d="M722.39,253h1.23v1.34h-1.23v2.21h-1.67v-2.21h-4.3l0-1,4.29-6.72h1.72Zm-4.27,0h2.6V248.8l-.12.21Z"/></g></svg>