<svg xmlns="http://www.w3.org/2000/svg" viewBox="0 0 864 504"><defs><style>.cls-1{fill:#dbd8d7;}.cls-2{fill:#fff;}.cls-10,.cls-11,.cls-12,.cls-13,.cls-14,.cls-15,.cls-3,.cls-4,.cls-5,.cls-7,.cls-8,.cls-9{fill:none;stroke-miterlimit:10;}.cls-10,.cls-11,.cls-12,.cls-13,.cls-14,.cls-3,.cls-4,.cls-7,.cls-8,.cls-9{stroke:#bdb9b9;}.cls-13,.cls-14,.cls-3,.cls-5{stroke-width:0.5px;}.cls-4{stroke-width:0.62px;}.cls-15,.cls-5{stroke:#000;}.cls-6{font-size:12px;font-family:Roboto-Regular, Roboto;}.cls-7,.cls-8,.cls-9{stroke-width:0.51px;}.cls-8{stroke-dasharray:4.1 3.07;}.cls-9{stroke-dasharray:4.07 3.06;}.cls-10,.cls-11,.cls-12{stroke-width:0.5px;}.cls-11{stroke-dasharray:4.09 3.07;}.cls-12{stroke-dasharray:4.02 3.02;}.cls-13{stroke-dasharray:4.03 3.02;}.cls-14{stroke-dasharray:4.03 3.02;}.cls-15{stroke-width:0.53px;}</style></defs><title>material-96</title><g id="Layer_2" data-name="Layer 2"><rect class="cls-1" x="0.05" width="863.9" height="504"/></g><g id="Layer_1" data-name="Layer 1"><path class="cls-2" d="M264,192a60,60,0,1,0,60,60A60.07,60.07,0,0,0,264,192Zm0,108a48,48,0,1,1,48-48A48.06,48.06,0,0,1,264,300Z"/><path class="cls-2" d="M600,192a60,60,0,1,0,60,60A60.07,60.07,0,0,0,600,192Zm0,108a48,48,0,1,1,48-48A48.05,48.05,0,0,1,600,300Zm36-48a36,36,0,1,1-36-36A36,36,0,0,1,636,252Z"/><rect class="cls-3" x="168" y="156" width="192" height="192" rx="96"/><rect class="cls-4" x="504" y="156" width="192" height="192" rx="96"/><line class="cls-5" x1="143.97" y1="192.01" x2="167.97" y2="192"/><line class="cls-5" x1="155.97" y1="192.01" x2="155.97" y2="204.02"/><line class="cls-5" x1="143.96" y1="204.02" x2="167.96" y2="203.98"/><text class="cls-6" transform="translate(131.97 201.52)">2</text><line class="cls-5" x1="216.01" y1="131.98" x2="216.01" y2="156"/><line class="cls-5" x1="216.01" y1="144" x2="204" y2="144"/><line class="cls-5" x1="204" y1="131.98" x2="204" y2="155.98"/><text class="cls-6" transform="translate(206.64 125.98)">2</text><line class="cls-7" x1="216.01" y1="335.24" x2="216.01" y2="333.21"/><line class="cls-8" x1="216.01" y1="330.13" x2="216.01" y2="159.55"/><line class="cls-7" x1="216.01" y1="158.02" x2="216.01" y2="155.98"/><line class="cls-7" x1="204.01" y1="327.08" x2="204.01" y2="325.04"/><line class="cls-9" x1="204.01" y1="321.99" x2="204.01" y2="159.54"/><line class="cls-7" x1="204.01" y1="158.02" x2="204.01" y2="155.98"/><line class="cls-10" x1="168" y1="204.02" x2="170.01" y2="204.02"/><line class="cls-11" x1="173.08" y1="204.02" x2="336.1" y2="204.02"/><line class="cls-10" x1="337.63" y1="204.02" x2="339.64" y2="204.02"/><line class="cls-10" x1="168" y1="192" x2="170.01" y2="192"/><line class="cls-12" x1="173.03" y1="192" x2="671.53" y2="192"/><line class="cls-10" x1="673.04" y1="192" x2="675.05" y2="192"/><line class="cls-3" x1="189.06" y1="312" x2="191.06" y2="312"/><line class="cls-13" x1="194.07" y1="312" x2="671.54" y2="312"/><line class="cls-3" x1="673.05" y1="312" x2="675.05" y2="312"/><line class="cls-3" x1="264" y1="348" x2="266" y2="348"/><line class="cls-14" x1="269.02" y1="348" x2="704.49" y2="348"/><line class="cls-3" x1="706" y1="348" x2="708" y2="348"/><line class="cls-3" x1="264" y1="156" x2="266" y2="156"/><line class="cls-14" x1="269.02" y1="156" x2="704.49" y2="156"/><line class="cls-3" x1="706" y1="156" x2="708" y2="156"/><line class="cls-5" x1="708" y1="156.08" x2="732.01" y2="156"/><line class="cls-5" x1="720" y1="156" x2="719.99" y2="348.05"/><line class="cls-5" x1="708" y1="348.07" x2="731.99" y2="348.08"/><text class="cls-6" transform="translate(730.52 255.53)">32</text><line class="cls-5" x1="468.07" y1="192.01" x2="492" y2="192"/><line class="cls-15" x1="480.04" y1="192" x2="480.03" y2="312.11"/><line class="cls-15" x1="468.04" y1="312.13" x2="491.98" y2="311.82"/><text class="cls-6" transform="translate(450 257.31)">20</text></g></svg>