<svg xmlns="http://www.w3.org/2000/svg" viewBox="0 0 1080 1080"><defs><style>.cls-1{fill:#afb5b5;}.cls-2{fill:#fff;}.cls-3{fill:#b66a39;}</style></defs><g id="Graphic"><rect class="cls-1" x="253.51" y="85.15" width="577.93" height="909.71"/><path d="M631.8,277.44l-1.81-.05h-1.15a5.25,5.25,0,0,0-1.69.19c-.34.13-.51.28-.51.44a.29.29,0,0,0,.18.27,4.7,4.7,0,0,0,.85.24l2.65.61a3,3,0,0,1,1.32.6,1.4,1.4,0,0,1,.44,1.09,2.88,2.88,0,0,1-.83,2,7.41,7.41,0,0,1-2.15,1.54,12.61,12.61,0,0,1-2.93,1,14.5,14.5,0,0,1-3.16.35,9,9,0,0,1-2.91-.45,6.23,6.23,0,0,1-2.24-1.31,6.07,6.07,0,0,1-1.43-2.1,7.37,7.37,0,0,1-.51-2.81,8.91,8.91,0,0,1,.39-2.75,11,11,0,0,1,1.24-2.54l1.39.67a10.55,10.55,0,0,0-.94,2.08,6.57,6.57,0,0,0-.33,2,4.57,4.57,0,0,0,1.45,3.58,5.87,5.87,0,0,0,4.11,1.32,13.57,13.57,0,0,0,2.74-.26,13,13,0,0,0,2.15-.62,8.12,8.12,0,0,0,1.45-.72,4.21,4.21,0,0,0,.72-.58A1.17,1.17,0,0,0,630,281a3.39,3.39,0,0,0-.65-.2l-2.51-.6a4.09,4.09,0,0,1-1.45-.65,1.6,1.6,0,0,1-.51-1.32A2.63,2.63,0,0,1,626,276a6.85,6.85,0,0,1,3.87-.85h2.18v2.33Z"/><path d="M645.55,259.65c-1,.44-2,.91-3,1.4s-2,1-2.86,1.47-1.72.94-2.47,1.37-1.39.82-1.89,1.16a24.64,24.64,0,0,1,3.74,4.05,6.2,6.2,0,0,1,1.24,3.56,4.39,4.39,0,0,1-.44,2,4.62,4.62,0,0,1-1.21,1.51,5.25,5.25,0,0,1-1.87,1,8,8,0,0,1-2.4.34h-2.29a.6.6,0,0,1-.52-.34,1.54,1.54,0,0,1-.21-.84,1.48,1.48,0,0,1,.21-.83.62.62,0,0,1,.52-.32h2.44a5.11,5.11,0,0,0,3-.71,2.5,2.5,0,0,0,1.15-1.52,4.11,4.11,0,0,0-.39-1.38,7.61,7.61,0,0,0-1-1.51,19,19,0,0,0-1.63-1.75q-1-1-2.34-2.16a9.4,9.4,0,0,1,.28-1.75,1.41,1.41,0,0,1,.42-.73c.6-.4,1.33-.85,2.19-1.36s1.8-1,2.84-1.6,2.13-1.14,3.29-1.72,2.33-1.16,3.52-1.72ZM643,257c-1.31.64-2.74,1.39-4.31,2.25s-3.13,1.79-4.72,2.82l.18-1.54c1.51-1,3.07-2,4.67-2.85s3.06-1.67,4.39-2.31Z"/><path d="M653.85,273.09a4.48,4.48,0,0,1-.53,2.32,3.82,3.82,0,0,1-1.4,1.42,6,6,0,0,1-2,.71,14.36,14.36,0,0,1-2.39.2,8.63,8.63,0,0,1-2.45-.3,4.23,4.23,0,0,1-1.87-1.27l1-1.72a3.85,3.85,0,0,0,1.55.78,8.79,8.79,0,0,0,1.89.18,7.65,7.65,0,0,0,3.32-.57c.77-.38,1.15-.86,1.15-1.42a2.89,2.89,0,0,0-.23-1,5.82,5.82,0,0,0-.77-1.39,11.48,11.48,0,0,0-1.46-1.66,16.93,16.93,0,0,0-2.31-1.83l.9-2.21a14.51,14.51,0,0,1,2.07,1.53,12.51,12.51,0,0,1,1.8,1.92,9.65,9.65,0,0,1,1.25,2.13A5.4,5.4,0,0,1,653.85,273.09Z"/><path d="M659.53,277.13l-1.93.46V257.2l1.93-.91Z"/><path d="M671.4,277.44a8,8,0,0,1-1,2.32,12.22,12.22,0,0,1-1.72,2.12,21,21,0,0,1-2.31,2c-.85.64-1.78,1.29-2.76,1.93l-1.51-1.45a40.62,40.62,0,0,0,5.22-3.89,8.91,8.91,0,0,0,2.51-3.24,8.28,8.28,0,0,1-1.62.32c-.51,0-.94.08-1.28.08a3.3,3.3,0,0,1-2.26-.79,2.92,2.92,0,0,1-.91-2.35,6.2,6.2,0,0,1,.29-1.89,6.59,6.59,0,0,1,.78-1.72,4.42,4.42,0,0,1,1.2-1.27,2.53,2.53,0,0,1,1.5-.5,3,3,0,0,1,1.7.51,4.42,4.42,0,0,1,1.26,1.35,7,7,0,0,1,.81,1.92,11,11,0,0,1,.34,2.23h2.27v2.33Zm-1.54-2.3a8.43,8.43,0,0,0-.3-1.48,5.47,5.47,0,0,0-.53-1.22,2.63,2.63,0,0,0-.75-.83,1.73,1.73,0,0,0-1-.31,1.33,1.33,0,0,0-.77.25,2.43,2.43,0,0,0-.62.62,3,3,0,0,0-.42.83,2.75,2.75,0,0,0-.15.87,1.44,1.44,0,0,0,.5,1.17,2.16,2.16,0,0,0,1.4.4,13,13,0,0,0,1.36-.07A7.65,7.65,0,0,0,669.86,275.14Z"/><path d="M677.77,273.81a4.28,4.28,0,0,0-.36-1.28,9.5,9.5,0,0,0-1.24-2.13l1.54-1.63a7.94,7.94,0,0,1,1.42,2.47,7.24,7.24,0,0,1,.46,2.3,3.59,3.59,0,0,1-1.17,2.9,5.48,5.48,0,0,1-3.61,1h-.93a.61.61,0,0,1-.52-.34,1.54,1.54,0,0,1-.21-.84,1.48,1.48,0,0,1,.21-.83.63.63,0,0,1,.52-.32h1a6.39,6.39,0,0,0,2.06-.3C677.48,274.61,677.77,274.28,677.77,273.81Zm-.12-7.4-1.84-1.57,1.36-1.6,1.84,1.54Z"/><path d="M687.71,277.44a4.07,4.07,0,0,1-2.25-.52,3.09,3.09,0,0,1-1.18-1.33,5.3,5.3,0,0,1-.45-1.87c-.05-.7-.09-1.42-.11-2.14,0-1-.06-2.14-.07-3.34s0-2.42-.06-3.67-.07-2.5-.11-3.76-.1-2.46-.18-3.61l1.93-.91q.09,2.44.12,4.38c0,1.29,0,2.5,0,3.63s0,2.2,0,3.23,0,2.09.05,3.2c0,.6,0,1.17.08,1.71a4.7,4.7,0,0,0,.27,1.39,2,2,0,0,0,.71.93,2.25,2.25,0,0,0,1.36.35h1v2.33Z"/><path d="M704.53,272.54a8.81,8.81,0,0,0-2.41.44,12.08,12.08,0,0,0-1.9.8c-.91.51-1.72,1-2.42,1.42a20.31,20.31,0,0,1-2.13,1.16,11.5,11.5,0,0,1-2.27.79,11.87,11.87,0,0,1-2.76.29h-1.78a.62.62,0,0,1-.52-.34,1.54,1.54,0,0,1-.21-.84,1.48,1.48,0,0,1,.21-.83.64.64,0,0,1,.52-.32h1.87a12.67,12.67,0,0,0,2.72-.24,10.57,10.57,0,0,0,2-.68c.63-.29,1.32-.65,2.07-1.07s1.7-.91,2.87-1.45a19.39,19.39,0,0,1-2-.73l-1.66-.72-1.3-.56a2.63,2.63,0,0,0-.89-.23,1.79,1.79,0,0,0-1,.4,8.56,8.56,0,0,0-1.51,1.5l-1.27-.75c.24-.38.51-.78.82-1.18a10.3,10.3,0,0,1,.95-1.1,4.7,4.7,0,0,1,1-.8,2.07,2.07,0,0,1,1-.3,4.53,4.53,0,0,1,1.78.48l2.33,1.07a25.93,25.93,0,0,0,2.71,1.08,9.5,9.5,0,0,0,3,.48H705ZM695,264.45l-1.84-1.57,1.36-1.6,1.84,1.54Z"/><path d="M718.76,273.48a2.42,2.42,0,0,1-.2.95,3.41,3.41,0,0,1-.52.91,3.2,3.2,0,0,1-.79.68,1.9,1.9,0,0,1-1,.27h-3.92c-.87,0-1.43.2-1.68.59a3.92,3.92,0,0,0-.38,2v10.9h-1.66c0-2.13-.07-3.88-.09-5.24s0-2.44,0-3.25,0-1.38,0-1.72v-.66a7.16,7.16,0,0,1,.56-3.24,3.12,3.12,0,0,1,1.71-1.45,14.86,14.86,0,0,1,.19-1.91,7.09,7.09,0,0,1,.56-1.86,4.36,4.36,0,0,1,1-1.41,2.32,2.32,0,0,1,1.6-.55,3.49,3.49,0,0,1,1.64.43,5.77,5.77,0,0,1,1.5,1.15,6.29,6.29,0,0,1,1.09,1.6A4.22,4.22,0,0,1,718.76,273.48Zm-1.63.06a2.28,2.28,0,0,0-.33-1,4.53,4.53,0,0,0-.76-.95,4.32,4.32,0,0,0-1-.72,2.32,2.32,0,0,0-1.06-.29c-.55,0-1,.34-1.23,1a7.78,7.78,0,0,0-.46,2.53c.24,0,.55,0,.93.05h3.08a.74.74,0,0,0,.55-.21A1,1,0,0,0,717.13,273.54Z"/><path d="M726.85,277.44a4.12,4.12,0,0,1-2.25-.52,3.06,3.06,0,0,1-1.17-1.33,5.09,5.09,0,0,1-.46-1.87c-.05-.7-.08-1.42-.1-2.14,0-1-.07-2.14-.08-3.34s0-2.42-.06-3.67-.06-2.5-.1-3.76-.1-2.46-.19-3.61l1.94-.91q.09,2.44.12,4.38c0,1.29,0,2.5,0,3.63s0,2.2,0,3.23,0,2.09.06,3.2c0,.6,0,1.17.08,1.71a4.7,4.7,0,0,0,.27,1.39,1.94,1.94,0,0,0,.71.93,2.23,2.23,0,0,0,1.36.35h1v2.33Z"/><path d="M731.9,273.81a4.28,4.28,0,0,0-.36-1.28,10.34,10.34,0,0,0-1.24-2.13l1.54-1.63a8.14,8.14,0,0,1,1.42,2.47,7.2,7.2,0,0,1,.45,2.3,3.62,3.62,0,0,1-1.16,2.9,5.5,5.5,0,0,1-3.61,1H728a.6.6,0,0,1-.51-.34,1.54,1.54,0,0,1-.21-.84,1.48,1.48,0,0,1,.21-.83.61.61,0,0,1,.51-.32h1a6.33,6.33,0,0,0,2-.3C731.61,274.61,731.9,274.28,731.9,273.81Zm-.12-7.4-1.85-1.57,1.36-1.6,1.85,1.54Z"/><path d="M750.17,274a7.46,7.46,0,0,1-.6,3,10.45,10.45,0,0,1-1.66,2.61,16.93,16.93,0,0,1-2.56,2.39c-1,.76-2.07,1.53-3.24,2.29l-1.51-1.45a38.9,38.9,0,0,0,5.46-4.1,7.16,7.16,0,0,0,2.33-3.36,4.8,4.8,0,0,1-1.57.59,8.37,8.37,0,0,1-1.39.14,3.28,3.28,0,0,1-2.26-.79,2.92,2.92,0,0,1-.91-2.35,6.2,6.2,0,0,1,.29-1.89,6.59,6.59,0,0,1,.78-1.72,4.53,4.53,0,0,1,1.19-1.27,2.58,2.58,0,0,1,1.51-.5,2.94,2.94,0,0,1,1.77.56,4.72,4.72,0,0,1,1.3,1.46,7.56,7.56,0,0,1,.8,2.06A10.07,10.07,0,0,1,750.17,274Zm-1.84-.66A8.15,8.15,0,0,0,748,272a4.66,4.66,0,0,0-.5-1.13,2.48,2.48,0,0,0-.74-.8,1.68,1.68,0,0,0-1-.31,1.33,1.33,0,0,0-.77.25,2.43,2.43,0,0,0-.62.62,3,3,0,0,0-.42.83,2.75,2.75,0,0,0-.15.87,1.44,1.44,0,0,0,.5,1.17,2.16,2.16,0,0,0,1.4.4,5.69,5.69,0,0,0,1.39-.16A5.27,5.27,0,0,0,748.33,273.33Z"/><path d="M768.48,273.48a2.61,2.61,0,0,1-.2.95,3.44,3.44,0,0,1-.53.91,2.88,2.88,0,0,1-.79.68,1.89,1.89,0,0,1-1,.27H762c-.86,0-1.42.2-1.67.59a3.82,3.82,0,0,0-.38,2v10.9h-1.66c0-2.13-.07-3.88-.09-5.24s0-2.44,0-3.25,0-1.38,0-1.72v-.66a7.18,7.18,0,0,1,.55-3.24,3.19,3.19,0,0,1,1.71-1.45,15,15,0,0,1,.2-1.91,6.73,6.73,0,0,1,.56-1.86,4.34,4.34,0,0,1,1-1.41,2.36,2.36,0,0,1,1.6-.55,3.5,3.5,0,0,1,1.65.43,5.89,5.89,0,0,1,1.49,1.15,6,6,0,0,1,1.09,1.6A4.24,4.24,0,0,1,768.48,273.48Zm-1.64.06a2.28,2.28,0,0,0-.33-1,4.48,4.48,0,0,0-.75-.95,4.38,4.38,0,0,0-1-.72,2.29,2.29,0,0,0-1.06-.29c-.54,0-1,.34-1.22,1a7.76,7.76,0,0,0-.47,2.53c.24,0,.56,0,.94.05H766a.73.73,0,0,0,.54-.21A1,1,0,0,0,766.84,273.54Z"/><path d="M776.57,277.44a4.07,4.07,0,0,1-2.25-.52,3.09,3.09,0,0,1-1.18-1.33,5.3,5.3,0,0,1-.45-1.87c-.05-.7-.09-1.42-.11-2.14,0-1-.06-2.14-.07-3.34s0-2.42-.06-3.67-.07-2.5-.11-3.76-.1-2.46-.18-3.61l1.93-.91q.09,2.44.12,4.38c0,1.29,0,2.5,0,3.63s0,2.2,0,3.23,0,2.09.05,3.2c0,.6,0,1.17.08,1.71a4.7,4.7,0,0,0,.27,1.39,2,2,0,0,0,.71.93,2.25,2.25,0,0,0,1.36.35h1v2.33Z"/><path d="M781.61,273.81a4.28,4.28,0,0,0-.36-1.28A9.5,9.5,0,0,0,780,270.4l1.54-1.63a7.94,7.94,0,0,1,1.42,2.47,7,7,0,0,1,.46,2.3,3.59,3.59,0,0,1-1.17,2.9,5.46,5.46,0,0,1-3.61,1h-.93a.62.62,0,0,1-.52-.34,1.54,1.54,0,0,1-.21-.84,1.48,1.48,0,0,1,.21-.83.64.64,0,0,1,.52-.32h1a6.39,6.39,0,0,0,2.06-.3C781.32,274.61,781.61,274.28,781.61,273.81Zm-.12-7.4-1.84-1.57,1.36-1.6,1.84,1.54Z"/><path d="M398.1,330.29h-4V301.21h20.4v3.41H398.1v9.47h14.74v3.41H398.1Z"/><path d="M431.64,309.53h3.69v20.76h-3.61v-2.53a7,7,0,0,1-6.22,3,7.39,7.39,0,0,1-5.56-2.11,7.84,7.84,0,0,1-2.05-5.7V309.53h3.72v12.84a5.57,5.57,0,0,0,1.22,3.86,4.42,4.42,0,0,0,3.46,1.37,4.82,4.82,0,0,0,4-1.7,7.58,7.58,0,0,0,1.37-4.91Z"/><path d="M445.17,330.29h-3.69V301.21h3.69Z"/><path d="M455,330.29h-3.69V301.21H455Z"/><path d="M475,330.29h-3.79V301.21h4.48l13.93,22.07V301.21h3.77v29.08H490L475,306.67Z"/><path d="M517.32,327.21h1v3.08h-2a4.53,4.53,0,0,1-2.74-.78,2.91,2.91,0,0,1-1.24-2.16,7.27,7.27,0,0,1-6.57,3.45,7.79,7.79,0,0,1-5.23-1.69,5.5,5.5,0,0,1-2-4.37,5.78,5.78,0,0,1,1.63-4.25,8.23,8.23,0,0,1,4.64-2.16l6.06-1a1.41,1.41,0,0,0,1.3-1.5,3.47,3.47,0,0,0-1.21-2.75,4.9,4.9,0,0,0-3.33-1.07,5.4,5.4,0,0,0-3.35.95,4.89,4.89,0,0,0-1.7,2.91l-3.51-.41a7.1,7.1,0,0,1,2.83-4.64,9.46,9.46,0,0,1,5.87-1.77,8.25,8.25,0,0,1,5.87,2,6.86,6.86,0,0,1,2.14,5.29v9.35a1.71,1.71,0,0,0,.35,1.22A1.64,1.64,0,0,0,517.32,327.21Zm-15.13-2.74a3.09,3.09,0,0,0,1.06,2.48,4.43,4.43,0,0,0,2.94.89,5.55,5.55,0,0,0,4.33-1.89,7.05,7.05,0,0,0,1.69-4.88v-1.2L505.56,321a4.3,4.3,0,0,0-2.5,1.15A3.15,3.15,0,0,0,502.19,324.47Z"/><path d="M539.06,318.84v11.45h-3.69V317.5a5.71,5.71,0,0,0-1.19-3.89,4.15,4.15,0,0,0-3.33-1.38,4.6,4.6,0,0,0-3.86,1.69,7.82,7.82,0,0,0-1.33,4.92v11.45H522V309.53h3.61v2.53a7,7,0,0,1,6.1-3,7.7,7.7,0,0,1,4,1,6.2,6.2,0,0,1,2.55,2.78,7,7,0,0,1,6.69-3.75,7.4,7.4,0,0,1,5.59,2.1,7.91,7.91,0,0,1,2,5.71v13.46h-3.7V317.5a5.71,5.71,0,0,0-1.19-3.89,4.19,4.19,0,0,0-3.35-1.38,4.61,4.61,0,0,0-3.86,1.69A7.82,7.82,0,0,0,539.06,318.84Z"/><path d="M567.11,327.8a4.89,4.89,0,0,0,5.27-4.2l3.41.67a7.58,7.58,0,0,1-2.93,4.78,9.33,9.33,0,0,1-5.75,1.75q-4.85,0-7.46-2.82t-2.6-8.07a11.21,11.21,0,0,1,2.7-7.89,9.28,9.28,0,0,1,7.28-3,8.56,8.56,0,0,1,6.69,2.68,10.45,10.45,0,0,1,2.43,7.3v1.78H560.78Q561.08,327.8,567.11,327.8ZM566.92,312a5.66,5.66,0,0,0-4.16,1.54,7.35,7.35,0,0,0-1.9,4.53h11.48Q572,312,566.92,312Z"/><path d="M603.75,330.8a13.46,13.46,0,0,1-10.3-4.16,15.25,15.25,0,0,1-3.87-10.8q0-6.84,3.87-10.95a13.56,13.56,0,0,1,10.38-4.16,14.11,14.11,0,0,1,8.42,2.37,11.7,11.7,0,0,1,4.46,6.9l-4,.69a9,9,0,0,0-3.19-4.94,10.65,10.65,0,0,0-13.21,1.53q-2.7,3.12-2.7,8.56a12.14,12.14,0,0,0,2.86,8.35A9.62,9.62,0,0,0,604,327.4a10.38,10.38,0,0,0,6.82-2.22,6.9,6.9,0,0,0,2.65-5.51V318h-9.08v-3.29h12.78v15.57h-3.66v-4a11.25,11.25,0,0,1-4.17,3.33A13,13,0,0,1,603.75,330.8Z"/><path d="M621.52,319.91a11.24,11.24,0,0,1,2.73-7.89,9.51,9.51,0,0,1,7.36-3,9.67,9.67,0,0,1,7.39,3,12.62,12.62,0,0,1,0,15.78,9.67,9.67,0,0,1-7.39,3,9.51,9.51,0,0,1-7.36-3A11.24,11.24,0,0,1,621.52,319.91Zm14.78,5.69a10.37,10.37,0,0,0,0-11.38,5.75,5.75,0,0,0-4.69-2.07,5.65,5.65,0,0,0-4.64,2.07,10.52,10.52,0,0,0,0,11.39,5.66,5.66,0,0,0,4.65,2.07A5.73,5.73,0,0,0,636.3,325.6Z"/><path d="M655.28,327.8a4.89,4.89,0,0,0,5.27-4.2l3.41.67a7.54,7.54,0,0,1-2.93,4.78,9.31,9.31,0,0,1-5.75,1.75c-3.23,0-5.72-.94-7.45-2.82s-2.61-4.57-2.61-8.07a11.21,11.21,0,0,1,2.7-7.89,9.3,9.3,0,0,1,7.28-3,8.56,8.56,0,0,1,6.69,2.68,10.45,10.45,0,0,1,2.43,7.3v1.78H649C649.16,325.46,651.26,327.8,655.28,327.8ZM655.1,312a5.67,5.67,0,0,0-4.17,1.54,7.41,7.41,0,0,0-1.9,4.53h11.48C660.31,314,658.5,312,655.1,312Z"/><path d="M676.57,330.8a10.14,10.14,0,0,1-6.4-1.84,6.62,6.62,0,0,1-2.6-5l3.69-.55a5.07,5.07,0,0,0,1.57,3.39,5.64,5.64,0,0,0,3.74,1.09,5.21,5.21,0,0,0,3.28-.89,3.16,3.16,0,0,0,1.12-2.64c0-1.65-1.21-2.64-3.65-3l-3-.46a8.37,8.37,0,0,1-4.55-2,5.14,5.14,0,0,1-1.57-3.9,5.26,5.26,0,0,1,2.13-4.33A8.85,8.85,0,0,1,676,309a9,9,0,0,1,5.68,1.65,7.25,7.25,0,0,1,2.63,4.76l-3.41.49a5.23,5.23,0,0,0-1.67-3.05,5.13,5.13,0,0,0-3.27-.93,5.23,5.23,0,0,0-3.07.8,2.49,2.49,0,0,0-1.11,2.1,2.44,2.44,0,0,0,.76,1.91,4.7,4.7,0,0,0,2.46.95l3.33.55q6.3,1,6.31,5.94A6,6,0,0,1,682.5,329,9.08,9.08,0,0,1,676.57,330.8Z"/><path d="M703.5,330.29h-4V301.21h4v12.56h14.58V301.21H722v29.08h-3.94V317.21H703.5Z"/><path d="M737.23,327.8a4.89,4.89,0,0,0,5.27-4.2l3.41.67a7.54,7.54,0,0,1-2.93,4.78,9.31,9.31,0,0,1-5.75,1.75c-3.23,0-5.72-.94-7.45-2.82s-2.61-4.57-2.61-8.07a11.21,11.21,0,0,1,2.7-7.89,9.3,9.3,0,0,1,7.28-3,8.56,8.56,0,0,1,6.69,2.68,10.45,10.45,0,0,1,2.43,7.3v1.78H730.9Q731.2,327.8,737.23,327.8ZM737.05,312a5.67,5.67,0,0,0-4.17,1.54,7.35,7.35,0,0,0-1.9,4.53h11.48C742.26,314,740.45,312,737.05,312Z"/><path d="M754.83,330.29h-3.69V309.53h3.61v3.77a6.42,6.42,0,0,1,5.94-3.77h1.6V313h-1.64a4.93,4.93,0,0,0-4.24,2.28,10.65,10.65,0,0,0-1.58,6.15Z"/><path d="M774.38,327.8a4.89,4.89,0,0,0,5.27-4.2l3.41.67a7.54,7.54,0,0,1-2.93,4.78,9.31,9.31,0,0,1-5.75,1.75c-3.23,0-5.72-.94-7.45-2.82s-2.61-4.57-2.61-8.07A11.21,11.21,0,0,1,767,312a9.3,9.3,0,0,1,7.28-3A8.56,8.56,0,0,1,781,311.7a10.45,10.45,0,0,1,2.43,7.3v1.78H768.05Q768.35,327.8,774.38,327.8ZM774.2,312a5.67,5.67,0,0,0-4.17,1.54,7.35,7.35,0,0,0-1.9,4.53h11.48C779.41,314,777.6,312,774.2,312Z"/><path d="M497.24,403.69a6.72,6.72,0,0,0-.95-.38,3.4,3.4,0,0,0-1-.13,3.91,3.91,0,0,0-1.75.44,7.26,7.26,0,0,0-1.59,1.07,6.36,6.36,0,0,0-1.16,1.36,2.51,2.51,0,0,0-.45,1.3.67.67,0,0,0,.4.6,6.23,6.23,0,0,0,1.35.36c.56.11,1.1.19,1.61.28s1,.16,1.38.24a3.14,3.14,0,0,1,1.75.77,2.23,2.23,0,0,1,.48,1.55,3.3,3.3,0,0,1-.89,2.15,8.74,8.74,0,0,1-2.34,1.9,14.18,14.18,0,0,1-7,1.87,9,9,0,0,1-2.91-.45,6.1,6.1,0,0,1-2.23-1.31,6,6,0,0,1-1.44-2.1,7.33,7.33,0,0,1-.51-2.81,9,9,0,0,1,.39-2.75,11,11,0,0,1,1.24-2.54l1.39.67a10.55,10.55,0,0,0-.94,2.08,6.61,6.61,0,0,0-.33,2,4.57,4.57,0,0,0,1.45,3.58,5.89,5.89,0,0,0,4.11,1.32,12.17,12.17,0,0,0,3.09-.38,13.29,13.29,0,0,0,2.53-.91,8.85,8.85,0,0,0,1.75-1.08,3.23,3.23,0,0,0,.81-.89.57.57,0,0,0-.28-.38,3.85,3.85,0,0,0-1-.29l-2.78-.45a7.82,7.82,0,0,1-1.1-.24,2.59,2.59,0,0,1-.86-.44,1.89,1.89,0,0,1-.56-.74,3,3,0,0,1-.19-1.18,5.17,5.17,0,0,1,.62-2.4,8.9,8.9,0,0,1,3.83-3.88,5.14,5.14,0,0,1,2.4-.64,3.79,3.79,0,0,1,1.24.2,4.36,4.36,0,0,1,1.18.65Z"/><path d="M506.34,409.25a5.85,5.85,0,0,1-.61,2.57,10.26,10.26,0,0,1-1.66,2.4,19.52,19.52,0,0,1-2.51,2.28c-1,.74-2,1.49-3.11,2.23l-1.54-1.48a33.45,33.45,0,0,0,3.23-2.22,24.64,24.64,0,0,0,2.4-2.08,9.46,9.46,0,0,0,1.5-1.83,2.94,2.94,0,0,0,.51-1.48,3.24,3.24,0,0,0-.15-.9,8.12,8.12,0,0,0-.4-1.09c-.18-.38-.38-.78-.61-1.18s-.48-.79-.74-1.18l1.54-1.54a12,12,0,0,1,1.63,2.95A7.57,7.57,0,0,1,506.34,409.25Z"/><path d="M514.46,411.85a4.07,4.07,0,0,1-2.25-.52A3.09,3.09,0,0,1,511,410a5.3,5.3,0,0,1-.45-1.87c-.05-.7-.09-1.42-.11-2.14,0-1-.06-2.14-.07-3.34s0-2.42-.06-3.67-.07-2.5-.11-3.76-.1-2.46-.18-3.61l1.93-.91q.09,2.46.12,4.38c0,1.29,0,2.5,0,3.63s0,2.2,0,3.23,0,2.1.05,3.2c0,.61,0,1.18.08,1.71a4.64,4.64,0,0,0,.27,1.39,2,2,0,0,0,.71.93,2.25,2.25,0,0,0,1.36.35h1v2.33Z"/><path d="M523.82,407a4.37,4.37,0,0,1-.44,2,4.49,4.49,0,0,1-1.2,1.53,5.57,5.57,0,0,1-1.88,1,8.29,8.29,0,0,1-2.4.33h-2.29a.63.63,0,0,1-.52-.33,1.6,1.6,0,0,1-.21-.85,1.48,1.48,0,0,1,.21-.83.64.64,0,0,1,.52-.32h2.44a5,5,0,0,0,3-.71,2.5,2.5,0,0,0,1.15-1.52,3.85,3.85,0,0,0-.41-1.39,7.08,7.08,0,0,0-1-1.54,19.84,19.84,0,0,0-1.72-1.77c-.68-.63-1.5-1.33-2.45-2.1a12.47,12.47,0,0,1,.26-1.75,1.29,1.29,0,0,1,.44-.73c.52-.34,1.14-.72,1.84-1.14s1.45-.85,2.24-1.29,1.59-.87,2.43-1.31,1.64-.87,2.43-1.27l-.3,2.45q-2.21,1.05-4.1,2.1c-1.25.69-2.33,1.33-3.21,1.91a24.89,24.89,0,0,1,4,4.08A5.94,5.94,0,0,1,523.82,407Z"/><path d="M545.66,402.36a11.34,11.34,0,0,1,1.53,3.05,10.55,10.55,0,0,1,.49,3.12,9.61,9.61,0,0,1-.57,3.39,7.37,7.37,0,0,1-1.66,2.63,7.48,7.48,0,0,1-2.66,1.71,10,10,0,0,1-3.59.6,8.53,8.53,0,0,1-2.83-.45,6.1,6.1,0,0,1-2.2-1.32,5.87,5.87,0,0,1-1.44-2.11,7.46,7.46,0,0,1-.51-2.82,8.8,8.8,0,0,1,.39-2.72,12,12,0,0,1,1.24-2.57l1.39.7a10.79,10.79,0,0,0-.94,2.06,6.79,6.79,0,0,0-.33,2,4.58,4.58,0,0,0,1.45,3.57,5.85,5.85,0,0,0,4,1.3,8.06,8.06,0,0,0,2.63-.41,5.46,5.46,0,0,0,2-1.17,5.24,5.24,0,0,0,1.27-1.82,6.1,6.1,0,0,0,.45-2.37,7.8,7.8,0,0,0-.44-2.39,10.41,10.41,0,0,0-1.31-2.6Zm-6.07.58-1.84-1.57,1.36-1.6,1.84,1.54Z"/><path d="M553.33,411.55l-1.93.45V391.61l1.93-.91Z"/><path d="M565.2,411.85a8,8,0,0,1-1,2.32,12.22,12.22,0,0,1-1.72,2.12,21,21,0,0,1-2.31,2c-.85.65-1.77,1.29-2.76,1.93l-1.51-1.45a39,39,0,0,0,5.22-3.89,9,9,0,0,0,2.51-3.23A9.1,9.1,0,0,1,562,412c-.52.05-1,.08-1.29.08a3.3,3.3,0,0,1-2.26-.79,2.92,2.92,0,0,1-.91-2.35,6.2,6.2,0,0,1,.29-1.89,6.75,6.75,0,0,1,.78-1.72,4.42,4.42,0,0,1,1.2-1.27,2.53,2.53,0,0,1,1.51-.5A3,3,0,0,1,563,404a4.69,4.69,0,0,1,1.27,1.35,7,7,0,0,1,.8,1.92,11,11,0,0,1,.34,2.23h2.27v2.33Zm-1.54-2.3a8.62,8.62,0,0,0-.3-1.48,5.47,5.47,0,0,0-.53-1.22,2.63,2.63,0,0,0-.75-.83,1.72,1.72,0,0,0-1-.3,1.35,1.35,0,0,0-.77.24,2.57,2.57,0,0,0-.61.62,2.85,2.85,0,0,0-.43.83,2.75,2.75,0,0,0-.15.87,1.44,1.44,0,0,0,.5,1.17,2.16,2.16,0,0,0,1.4.4,13,13,0,0,0,1.36-.07A7.65,7.65,0,0,0,563.66,409.55Z"/><path d="M576.32,411.85a4.82,4.82,0,0,1-2.25-.46,3.1,3.1,0,0,1-1.41-1.54,3.86,3.86,0,0,1-1.49,1.51,4.62,4.62,0,0,1-2.25.49h-1.24a.6.6,0,0,1-.51-.33,1.51,1.51,0,0,1-.22-.85,1.4,1.4,0,0,1,.22-.83.61.61,0,0,1,.51-.32h1.24a3.5,3.5,0,0,0,2.19-.56,2.82,2.82,0,0,0,.8-2.13l0-1.14,1.69-.43a14.37,14.37,0,0,0,.12,2,3.2,3.2,0,0,0,.45,1.31,1.82,1.82,0,0,0,.92.71,4.7,4.7,0,0,0,1.53.21h1.18v2.33Zm-3.57-8.91-1.84-1.57,1.36-1.6,1.84,1.54Z"/><path d="M580.52,406.17a4.75,4.75,0,0,1,1.46-3.49,4.93,4.93,0,0,1,1.56-1,4.75,4.75,0,0,1,1.84-.36,5.67,5.67,0,0,1,2.17.42,8.26,8.26,0,0,1,2,1.18l-.76,1.51a8.32,8.32,0,0,0-1.67-.67,6.91,6.91,0,0,0-1.74-.21,3.43,3.43,0,0,0-1.22.21,3.17,3.17,0,0,0-1,.56,2.76,2.76,0,0,0-.65.8,2,2,0,0,0-.24.94,2.28,2.28,0,0,0,.28,1.1,4.15,4.15,0,0,0,.71.94,3.87,3.87,0,0,0,.9.65,1.79,1.79,0,0,0,.8.24,12.3,12.3,0,0,0,2.44-.33c1-.23,2.37-.57,4-1l-.21,2.17a41.25,41.25,0,0,1-6.18,1.57,33.73,33.73,0,0,1-5.72.49h-1.51a.63.63,0,0,1-.52-.33,1.6,1.6,0,0,1-.21-.85,1.48,1.48,0,0,1,.21-.83.64.64,0,0,1,.52-.32h2.61l1.53-.08a4.54,4.54,0,0,1-1.12-1.57A4.46,4.46,0,0,1,580.52,406.17Z"/><path d="M607,392.82h1.93l-7.55,20.24h-1.82Z"/><path d="M632,390.7v14.35a7.85,7.85,0,0,1-1.61,5.37,6.15,6.15,0,0,1-4.82,1.8,6.29,6.29,0,0,1-4.9-1.83A7.82,7.82,0,0,1,619,405v-.75l2.14-.46v1a6.87,6.87,0,0,0,1.07,4.24,4,4,0,0,0,3.34,1.35,3.92,3.92,0,0,0,3.22-1.24,6.19,6.19,0,0,0,1-3.93V390.7Z"/><path d="M635.92,404.36a8.22,8.22,0,0,1,1.94-5.71,7.38,7.38,0,0,1,10.45,0,9.28,9.28,0,0,1,0,11.41,7.4,7.4,0,0,1-10.45,0A8.19,8.19,0,0,1,635.92,404.36Zm10.88,4.43a6.7,6.7,0,0,0,1.37-4.43,6.79,6.79,0,0,0-1.37-4.46,4.55,4.55,0,0,0-3.71-1.65,4.51,4.51,0,0,0-3.68,1.65,8,8,0,0,0,0,8.89,5,5,0,0,0,7.4,0Z"/><path d="M661.17,396.48a6.06,6.06,0,0,1,4.87,2.11,8.28,8.28,0,0,1,1.84,5.65A8.68,8.68,0,0,1,666,410a6,6,0,0,1-4.87,2.19,5.76,5.76,0,0,1-5-2.64v2.27h-2V390.7h2v8.49A5.71,5.71,0,0,1,661.17,396.48Zm4.59,7.88a7,7,0,0,0-1.27-4.44,4.14,4.14,0,0,0-3.46-1.64,4.4,4.4,0,0,0-3.61,1.66,7.82,7.82,0,0,0,0,8.8,4.37,4.37,0,0,0,3.6,1.66,4.13,4.13,0,0,0,3.46-1.63A7,7,0,0,0,665.76,404.36Z"/><path d="M681.64,411.85h-2.19V390.7h7.78a7.41,7.41,0,0,1,5.22,1.84,6,6,0,0,1,2,4.66,6.8,6.8,0,0,1-2.07,5,7,7,0,0,1-5.19,2h-5.59Zm10.58-14.65a4.22,4.22,0,0,0-1.45-3.3,5.14,5.14,0,0,0-3.68-1.3h-5.45v9.71h5.45a4.87,4.87,0,0,0,3.68-1.45A4.93,4.93,0,0,0,692.22,397.2Z"/><path d="M696.61,404.36a8.22,8.22,0,0,1,1.94-5.71,7.38,7.38,0,0,1,10.45,0,9.28,9.28,0,0,1,0,11.41,7.4,7.4,0,0,1-10.45,0A8.19,8.19,0,0,1,696.61,404.36Zm10.88,4.43a6.7,6.7,0,0,0,1.37-4.43,6.79,6.79,0,0,0-1.37-4.46,5,5,0,0,0-7.4,0,6.84,6.84,0,0,0-1.35,4.46,6.75,6.75,0,0,0,1.35,4.43,4.5,4.5,0,0,0,3.69,1.64A4.56,4.56,0,0,0,707.49,408.79Z"/><path d="M719.87,412.22a7,7,0,0,1-4.5-1.36,4.74,4.74,0,0,1-1.81-3.63l2-.37a4.17,4.17,0,0,0,1.28,2.75,4.51,4.51,0,0,0,3,.88,4.13,4.13,0,0,0,2.66-.74,2.66,2.66,0,0,0,.91-2.19c0-1.3-1-2.12-3-2.45l-2-.33q-4.35-.72-4.35-4.11a3.69,3.69,0,0,1,1.49-3,7.16,7.16,0,0,1,7.89,0,5.33,5.33,0,0,1,1.89,3.43l-1.88.32a4.38,4.38,0,0,0-1.37-2.48,4.11,4.11,0,0,0-2.62-.75,4.19,4.19,0,0,0-2.5.66,2,2,0,0,0-.91,1.73,2.09,2.09,0,0,0,.62,1.59,3.76,3.76,0,0,0,2,.77l2.36.38c3,.49,4.5,1.91,4.5,4.24a4.2,4.2,0,0,1-1.52,3.37A6.12,6.12,0,0,1,719.87,412.22Z"/><path d="M731.27,394.15h-2V390.7h2Zm0,17.7h-2v-15h2Z"/><path d="M734.22,398.56v-1.73H737v-4.95h2.06v4.95h4.07v1.73h-4.07v9.08a2.9,2.9,0,0,0,.46,1.89,2,2,0,0,0,1.62.53h2.39v1.79h-2.64a3.86,3.86,0,0,1-2.88-1,3.93,3.93,0,0,1-1-2.91v-9.36Z"/><path d="M748.53,394.15h-2V390.7h2Zm0,17.7h-2v-15h2Z"/><path d="M752.32,404.36a8.21,8.21,0,0,1,1.93-5.71,7.39,7.39,0,0,1,10.46,0,9.28,9.28,0,0,1,0,11.41,7.41,7.41,0,0,1-10.46,0A8.18,8.18,0,0,1,752.32,404.36Zm10.88,4.43a6.76,6.76,0,0,0,1.36-4.43,6.84,6.84,0,0,0-1.36-4.46,4.56,4.56,0,0,0-3.71-1.65,4.51,4.51,0,0,0-3.69,1.65,8,8,0,0,0,0,8.89,4.51,4.51,0,0,0,3.7,1.64A4.56,4.56,0,0,0,763.2,408.79Z"/><path d="M783,402.13v9.72h-2.06v-9.34a4.43,4.43,0,0,0-1-3.12,3.75,3.75,0,0,0-2.91-1.11,4.09,4.09,0,0,0-3.33,1.37,6.14,6.14,0,0,0-1.14,4v8.19h-2v-15h2v2a5.34,5.34,0,0,1,4.81-2.35,5.21,5.21,0,0,1,5.65,5.65Z"/><rect class="cls-2" x="449.51" y="131.38" width="185.94" height="18.62" rx="9.31"/><path d="M491,923.73h-6.86l-1.47,3.87h-2.2l6.1-15.77h2.18l6,15.77h-2.37Zm-6.17-1.81h5.5l-2.7-7.34Z"/><path d="M498.32,927.6h-2V916.34h2v2a3.47,3.47,0,0,1,3.22-2h.87v1.89h-.89a2.66,2.66,0,0,0-2.3,1.24,5.74,5.74,0,0,0-.86,3.33Z"/><path d="M504,918v-1.65h2v-3.63h2v3.63h2.84V918H508v6.3a1.87,1.87,0,0,0,.31,1.24,1.39,1.39,0,0,0,1.09.35h1.71v1.72h-2a3.14,3.14,0,0,1-2.3-.78,3,3,0,0,1-.79-2.26V918Z"/><path d="M514.61,914.51h-2v-2.68h2Zm0,13.09h-2V916.34h2Z"/><path d="M521.38,927.87a5.47,5.47,0,0,1-3.47-1,3.58,3.58,0,0,1-1.41-2.71l2-.3a2.78,2.78,0,0,0,.85,1.84,3.09,3.09,0,0,0,2,.59,2.84,2.84,0,0,0,1.78-.48,1.75,1.75,0,0,0,.61-1.43q0-1.35-2-1.62l-1.62-.25a4.52,4.52,0,0,1-2.47-1.07,2.82,2.82,0,0,1-.85-2.11A2.85,2.85,0,0,1,518,917a4.8,4.8,0,0,1,3.07-.92,4.87,4.87,0,0,1,3.09.9,3.94,3.94,0,0,1,1.42,2.58l-1.84.26a2.9,2.9,0,0,0-.91-1.65,2.75,2.75,0,0,0-1.78-.5,2.82,2.82,0,0,0-1.66.43,1.43,1.43,0,0,0-.19,2.17,2.62,2.62,0,0,0,1.34.52l1.8.3c2.28.36,3.42,1.44,3.42,3.22a3.2,3.2,0,0,1-1.18,2.61A4.86,4.86,0,0,1,521.38,927.87Z"/><path d="M526.34,918v-1.65h2v-3.63h2v3.63h2.84V918h-2.84v6.3a1.87,1.87,0,0,0,.31,1.24,1.39,1.39,0,0,0,1.09.35h1.71v1.72h-2a3.14,3.14,0,0,1-2.3-.78,3,3,0,0,1-.79-2.26V918Z"/><path d="M537,914.51h-2v-2.68h2Zm0,13.09h-2V916.34h2Z"/><path d="M544.33,926.16a2.91,2.91,0,0,0,2-.71,3.11,3.11,0,0,0,.92-2l2,.23a4.51,4.51,0,0,1-1.56,3.05,5.55,5.55,0,0,1-7.25-.44,7.18,7.18,0,0,1,0-8.6,5,5,0,0,1,3.87-1.63,5.09,5.09,0,0,1,3.41,1.09,4.6,4.6,0,0,1,1.57,3.06l-2,.23a2.75,2.75,0,0,0-3-2.66,2.8,2.8,0,0,0-2.37,1.11,5,5,0,0,0-.85,3.12,4.83,4.83,0,0,0,.85,3A2.87,2.87,0,0,0,544.33,926.16Z"/><path d="M560.8,925.93h.53v1.67h-1.08a2.46,2.46,0,0,1-1.49-.43,1.57,1.57,0,0,1-.67-1.17,3.93,3.93,0,0,1-3.56,1.87,4.2,4.2,0,0,1-2.84-.92,3,3,0,0,1-1.07-2.37,3.18,3.18,0,0,1,.87-2.3,4.44,4.44,0,0,1,2.52-1.17l3.29-.56a.76.76,0,0,0,.7-.81,1.88,1.88,0,0,0-.66-1.49,2.62,2.62,0,0,0-1.8-.58,2.9,2.9,0,0,0-1.81.51,2.68,2.68,0,0,0-.93,1.58l-1.9-.22a3.9,3.9,0,0,1,1.53-2.52,5.15,5.15,0,0,1,3.19-1,4.47,4.47,0,0,1,3.18,1.08A3.75,3.75,0,0,1,560,920v5.07a.9.9,0,0,0,.19.66A.92.92,0,0,0,560.8,925.93Zm-8.21-1.49a1.64,1.64,0,0,0,.58,1.34,2.35,2.35,0,0,0,1.59.49,3,3,0,0,0,2.35-1,3.85,3.85,0,0,0,.92-2.65V922l-3.61.62a2.4,2.4,0,0,0-1.36.63A1.72,1.72,0,0,0,552.59,924.44Z"/><path d="M564.75,927.6h-2V911.83h2Z"/><path d="M569.52,927.6h-2V911.83h2Z"/><path d="M575.08,928.65l.38-1L571,916.34h2.11l3.33,8.85,3.36-8.85h2l-4.92,12.52a4.82,4.82,0,0,1-1.53,2.28,3.78,3.78,0,0,1-2.32.62h-1.16v-1.69h1.16a2.2,2.2,0,0,0,1.25-.32A2.24,2.24,0,0,0,575.08,928.65Z"/><path d="M590,927.6h-2.16V911.83h11.06v1.85H590v5.13h8v1.85h-8Z"/><path d="M602.26,927.6h-2V916.34h2v2a3.49,3.49,0,0,1,3.22-2h.87v1.89h-.89a2.64,2.64,0,0,0-2.29,1.24,5.67,5.67,0,0,0-.86,3.33Z"/><path d="M606.84,922a6.07,6.07,0,0,1,1.48-4.28,5.19,5.19,0,0,1,4-1.63,5.27,5.27,0,0,1,4,1.63,6,6,0,0,1,1.5,4.28,6.11,6.11,0,0,1-1.5,4.28,5.26,5.26,0,0,1-4,1.62,5.19,5.19,0,0,1-4-1.62A6.09,6.09,0,0,1,606.84,922Zm8,3.08a5.63,5.63,0,0,0,0-6.17,3.12,3.12,0,0,0-2.54-1.12,3.07,3.07,0,0,0-2.52,1.12,5.68,5.68,0,0,0,0,6.18,3.07,3.07,0,0,0,2.53,1.12A3.13,3.13,0,0,0,614.86,925.05Z"/><path d="M629.13,921.39v6.21h-2v-6.94a3.13,3.13,0,0,0-.64-2.11,2.25,2.25,0,0,0-1.81-.75,2.51,2.51,0,0,0-2.09.92,4.25,4.25,0,0,0-.72,2.67v6.21h-2V916.34h1.95v1.37a3.79,3.79,0,0,1,3.31-1.65,4.2,4.2,0,0,1,2.15.53,3.27,3.27,0,0,1,1.38,1.51,3.82,3.82,0,0,1,3.63-2,4,4,0,0,1,3,1.14,4.28,4.28,0,0,1,1.09,3.1v7.3h-2v-6.94a3.08,3.08,0,0,0-.65-2.11,2.25,2.25,0,0,0-1.81-.75,2.5,2.5,0,0,0-2.09.92A4.25,4.25,0,0,0,629.13,921.39Z"/><path d="M646.12,927.6H644V911.83h2.17Z"/><path d="M651.12,927.6h-2V916.34h2v2a3.47,3.47,0,0,1,3.22-2h.87v1.89h-.89a2.66,2.66,0,0,0-2.3,1.24,5.74,5.74,0,0,0-.86,3.33Z"/><path d="M665.9,925.93h.53v1.67h-1.08a2.46,2.46,0,0,1-1.49-.43,1.57,1.57,0,0,1-.67-1.17,3.93,3.93,0,0,1-3.56,1.87,4.2,4.2,0,0,1-2.84-.92,3,3,0,0,1-1.08-2.37,3.19,3.19,0,0,1,.88-2.3,4.44,4.44,0,0,1,2.52-1.17l3.29-.56a.76.76,0,0,0,.7-.81,1.88,1.88,0,0,0-.66-1.49,2.62,2.62,0,0,0-1.8-.58,2.9,2.9,0,0,0-1.81.51,2.68,2.68,0,0,0-.93,1.58l-1.9-.22a3.9,3.9,0,0,1,1.53-2.52,5.15,5.15,0,0,1,3.19-1,4.47,4.47,0,0,1,3.18,1.08,3.75,3.75,0,0,1,1.16,2.87v5.07a.9.9,0,0,0,.19.66A.92.92,0,0,0,665.9,925.93Zm-8.21-1.49a1.64,1.64,0,0,0,.58,1.34,2.35,2.35,0,0,0,1.59.49,3,3,0,0,0,2.35-1,3.84,3.84,0,0,0,.91-2.65V922l-3.6.62a2.37,2.37,0,0,0-1.36.63A1.72,1.72,0,0,0,657.69,924.44Z"/><path d="M677.53,920.3v7.3h-2v-6.94a3,3,0,0,0-.69-2.12,2.58,2.58,0,0,0-2-.74,2.79,2.79,0,0,0-2.25.91,4.08,4.08,0,0,0-.77,2.68v6.21h-2V916.34h2v1.42a4,4,0,0,1,3.51-1.7,4.14,4.14,0,0,1,3.09,1.14A4.25,4.25,0,0,1,677.53,920.3Z"/><path d="M489.43,948.62h-8.85V935.74h8.67v1.51h-6.9v4.08h6.16v1.48h-6.16v4.3h7.08Z"/><path d="M495.78,948.84a5.62,5.62,0,0,1-3.69-1.12,3.89,3.89,0,0,1-1.4-3.07l1.73-.23a3,3,0,0,0,.93,2.21,3.61,3.61,0,0,0,2.43.76,3,3,0,0,0,2-.63,2.06,2.06,0,0,0,.73-1.67,1.73,1.73,0,0,0-.51-1.33,3.88,3.88,0,0,0-1.77-.74l-1.71-.36a5,5,0,0,1-2.6-1.27,3.23,3.23,0,0,1-.84-2.32,3.18,3.18,0,0,1,1.19-2.51,4.62,4.62,0,0,1,3.13-1,4.93,4.93,0,0,1,3.23,1,3.85,3.85,0,0,1,1.38,2.75l-1.74.22a2.57,2.57,0,0,0-2.87-2.5,2.94,2.94,0,0,0-1.91.55,1.85,1.85,0,0,0-.68,1.51,1.81,1.81,0,0,0,.49,1.34,3.23,3.23,0,0,0,1.6.73l2,.43a5.06,5.06,0,0,1,2.55,1.2,3.11,3.11,0,0,1,.81,2.26,3.54,3.54,0,0,1-1.23,2.76A4.8,4.8,0,0,1,495.78,948.84Z"/><path d="M500.8,935.74h9.78v1.51h-4v11.37h-1.75V937.25h-4Z"/><path d="M521.37,939.16a2,2,0,0,0-.61-1.55,2.32,2.32,0,0,0-1.63-.58,2.49,2.49,0,0,0-2.08.89,3.91,3.91,0,0,0-.66,2.59l-1.69-.23a4.17,4.17,0,0,1,4.43-4.76,4.11,4.11,0,0,1,2.93,1,3.49,3.49,0,0,1,1.08,2.63,4.72,4.72,0,0,1-.65,2.32,11.13,11.13,0,0,1-2.12,2.5l-3.44,3.17h6.54v1.47h-8.82v-1.51l4.63-4.25A7.93,7.93,0,0,0,520.9,941,3.62,3.62,0,0,0,521.37,939.16Z"/><path d="M524.94,942.18a8.36,8.36,0,0,1,1.26-4.88,4.44,4.44,0,0,1,7.11,0,8.18,8.18,0,0,1,1.28,4.88,8.26,8.26,0,0,1-1.28,4.88,4.46,4.46,0,0,1-7.11,0A8.3,8.3,0,0,1,524.94,942.18ZM532,946a9.62,9.62,0,0,0,0-7.68,2.58,2.58,0,0,0-4.55,0,7.48,7.48,0,0,0-.81,3.8,7.64,7.64,0,0,0,.79,3.84,2.51,2.51,0,0,0,2.28,1.35A2.53,2.53,0,0,0,532,946Z"/><path d="M544.23,948.62h-8v-1.47h3.14v-8.28a2.76,2.76,0,0,1-1.47.34h-1.72v-1.44h1.61a1.47,1.47,0,0,0,1.23-.49,2.4,2.4,0,0,0,.41-1.54h1.7v11.41h3.09Z"/><path d="M552.39,944.85a2,2,0,0,0-.67-1.62,2.79,2.79,0,0,0-1.87-.57h-1.16v-1.34h1.1a2.11,2.11,0,0,0,1.61-.61A2.37,2.37,0,0,0,552,939a1.84,1.84,0,0,0-.62-1.48,2.5,2.5,0,0,0-1.69-.54,2.66,2.66,0,0,0-1.94.71,2.75,2.75,0,0,0-.78,2l-1.6-.35a3.53,3.53,0,0,1,1.25-2.74,4.62,4.62,0,0,1,3.1-1.05,4.42,4.42,0,0,1,2.94.92,3.09,3.09,0,0,1,1.08,2.47,3.48,3.48,0,0,1-.47,1.8,2.94,2.94,0,0,1-1.34,1.17,3.35,3.35,0,0,1,1.66,1.14,3,3,0,0,1,.57,1.84,3.75,3.75,0,0,1-1.19,2.9,4.63,4.63,0,0,1-3.22,1.08,5.45,5.45,0,0,1-3.31-1,3.5,3.5,0,0,1-1.44-2.63l1.75-.39a2.65,2.65,0,0,0,.87,1.87,3,3,0,0,0,2.07.66,2.82,2.82,0,0,0,2-.68A2.38,2.38,0,0,0,552.39,944.85Z"/><rect x="309.73" y="601.78" width="5.26" height="63.06"/><rect x="312.36" y="625.43" width="18.39" height="5.26"/><rect x="309.43" y="618.37" width="19.95" height="5.26" transform="translate(-345.53 407.66) rotate(-44.99)"/><rect x="301.85" y="643.82" width="9.03" height="5.26"/><path d="M315,657V651.7a5.26,5.26,0,0,0,0-10.51v-5.25a10.51,10.51,0,0,1,0,21Z"/><path d="M322.87,609.66h-5.26a5.26,5.26,0,0,0-10.51,0h-5.25a10.51,10.51,0,0,1,21,0Z"/><path d="M440.94,840.89h-5.26a31.45,31.45,0,1,0-62.89,0h-5.25a36.7,36.7,0,0,1,73.4,0Z"/><rect x="331.92" y="712.14" width="81.75" height="5.26" transform="translate(-396.23 472.95) rotate(-45)"/><path d="M551.47,846.14H341.26V710.6l-10.51,10.51v14.68h-21V662.21h52.55a50,50,0,0,1,49.93,49.93v13.13h89.33a50,50,0,0,1,49.93,49.93Zm-205-5.25H546.21V775.2a44.72,44.72,0,0,0-44.67-44.67H407V712.14a44.72,44.72,0,0,0-44.67-44.67H315v63.06H325.5v-11.6l29.67-29.67,3.71,3.72-12.36,12.36Z"/><polygon points="548.84 830.38 496.29 830.38 496.29 727.9 501.54 727.9 501.54 825.12 548.84 825.12 548.84 830.38"/><path d="M443.74,798.85A36.83,36.83,0,0,1,407,762.06V725.27h73.57v36.79A36.82,36.82,0,0,1,443.74,798.85Zm-31.53-68.32v31.53a31.53,31.53,0,1,0,63.06,0V730.53Z"/><path d="M333.38,685.86H309.73V662.21h23.65ZM315,680.61h13.13V667.47H315Z"/><path class="cls-3" d="M412.21,730.53v31.53a31.53,31.53,0,1,0,63.06,0V730.53Z"/><polygon points="492.35 893.44 480.49 893.44 488.87 880.3 481.84 880.3 481.84 877.67 493.67 877.67 485.29 890.81 492.35 890.81 492.35 893.44"/><polygon points="506.8 893.44 496.32 893.44 496.29 877.67 506.8 877.67 506.8 880.3 498.92 880.3 498.95 890.81 506.8 890.81 506.8 893.44"/><rect x="497.6" y="884.24" width="9.2" height="2.63"/><polygon points="521.25 893.44 510.74 893.44 510.74 877.67 521.25 877.67 521.25 880.3 513.37 880.3 513.37 890.81 521.25 890.81 521.25 893.44"/><rect x="512.06" y="884.24" width="9.2" height="2.63"/><polygon points="535.71 893.44 525.19 893.44 525.19 877.67 535.71 877.67 535.71 880.3 527.82 880.3 527.82 890.81 535.71 890.81 535.71 893.44"/><rect x="526.51" y="884.24" width="9.2" height="2.63"/><polygon points="551.47 893.44 548.95 893.44 542.27 882.79 542.27 893.44 539.65 893.44 539.65 877.67 542.16 877.67 548.84 888.32 548.84 877.67 551.47 877.67 551.47 893.44"/><path d="M370.16,932.85a28.93,28.93,0,0,1-28.9-28.9V877.67h5.26V904a23.65,23.65,0,1,0,47.29,0V877.67h5.26V904A28.94,28.94,0,0,1,370.16,932.85Z"/><polygon points="429.6 932.08 425.89 928.37 446.36 907.89 446.36 893.44 451.62 893.44 451.62 910.07 429.6 932.08"/><rect x="367.54" y="877.67" width="5.26" height="10.51"/><rect x="446.36" y="877.67" width="5.26" height="10.51"/><rect x="393.81" y="938.11" width="5.26" height="10.51"/><rect x="404.32" y="938.11" width="5.26" height="10.51"/><polygon points="398.3 904.27 394.58 900.55 406.95 888.18 406.95 877.67 412.21 877.67 412.21 890.36 398.3 904.27"/><polygon points="398.3 920.03 394.58 916.32 417.46 893.44 417.46 877.67 422.72 877.67 422.72 895.62 398.3 920.03"/><polygon points="401.24 932.85 393.81 932.85 393.81 877.67 399.07 877.67 399.07 927.6 427.97 898.69 427.97 877.67 433.23 877.67 433.23 900.87 401.24 932.85"/><rect x="482.74" width="114.53" height="140.69"/></g></svg>