<svg xmlns="http://www.w3.org/2000/svg" viewBox="0 0 1920 1080"><defs><style>.cls-1{fill:#d1d1d0;stroke:#fff;stroke-miterlimit:10;stroke-width:2px;}.cls-2{fill:#a9afb0;}.cls-3{fill:#222221;}</style></defs><g id="Graphic"><rect class="cls-1" x="380.55" y="180.24" width="1218.88" height="779.53"/><rect class="cls-2" x="350.53" y="150.24" width="1218.9" height="779.53"/><path class="cls-3" d="M1026.75,243.94h20.8v2.56h-8.92V272h-2.91V246.5h-9Z"/><path class="cls-3" d="M1111.64,259.19v7.64h-2.72v-7.64h-7.56v-2.52h7.56v-7.6h2.72v7.6h7.52v2.52Z"/><path class="cls-3" d="M1134,262a8.92,8.92,0,0,1-6.6-2.49,9.94,9.94,0,0,1,.16-13.32,9,9,0,0,1,6.64-2.67q5,0,7.48,3.46t2.52,10.25q0,7.26-2.7,11.26a8.59,8.59,0,0,1-7.54,4,8.88,8.88,0,0,1-5.54-1.72,8.62,8.62,0,0,1-3.07-4.88l2.93-.64a7.64,7.64,0,0,0,2.18,3.67A5.48,5.48,0,0,0,1134,270a5.94,5.94,0,0,0,5.43-3.4,17.44,17.44,0,0,0,1.94-8.69,8.18,8.18,0,0,1-3.11,3A8.87,8.87,0,0,1,1134,262Zm6.92-9.32a6.51,6.51,0,0,0-1.84-4.84,6.89,6.89,0,0,0-9.49,0,6.69,6.69,0,0,0-1.8,4.85,7.07,7.07,0,0,0,1.7,5,7.09,7.09,0,0,0,9.55-.12A7,7,0,0,0,1140.92,252.63Z"/><path class="cls-3" d="M1163.73,257.22a7.06,7.06,0,0,1,3.54,2.64,7.4,7.4,0,0,1,1.23,4.29,7.53,7.53,0,0,1-2.68,6,10,10,0,0,1-6.93,2.32,10.32,10.32,0,0,1-7-2.28,7.56,7.56,0,0,1-2.64-6,7.08,7.08,0,0,1,1.3-4.19,7.47,7.47,0,0,1,3.58-2.7,6.56,6.56,0,0,1-3.11-2.41,7.32,7.32,0,0,1,1.36-9.31,9.66,9.66,0,0,1,6.5-2.07,9.78,9.78,0,0,1,6.54,2,7.46,7.46,0,0,1,1.34,9.29A6.42,6.42,0,0,1,1163.73,257.22Zm1.86,6.89a5.2,5.2,0,0,0-1.85-4.13,8.21,8.21,0,0,0-9.71,0,5.18,5.18,0,0,0-1.86,4.13,5.37,5.37,0,0,0,1.8,4.26,8.48,8.48,0,0,0,9.83,0A5.4,5.4,0,0,0,1165.59,264.11Zm-12.81-13.2a4.78,4.78,0,0,0,1.68,3.76,7.4,7.4,0,0,0,8.85,0,4.77,4.77,0,0,0,1.67-3.76,4.47,4.47,0,0,0-1.61-3.68,8.28,8.28,0,0,0-9,0A4.47,4.47,0,0,0,1152.78,250.91Z"/><path class="cls-3" d="M1188.37,251.18a4.9,4.9,0,0,0-1.5-3.75A5.49,5.49,0,0,0,1183,246q-6.7,0-6.65,7.95l-2.75-.36a9.52,9.52,0,0,1,2.36-7.4,9.22,9.22,0,0,1,7-2.75,8.62,8.62,0,0,1,6.17,2.15,7.41,7.41,0,0,1,2.26,5.64,10.07,10.07,0,0,1-1.41,5,24.45,24.45,0,0,1-4.54,5.45l-8.32,7.75h14.88V272h-18.55v-2.68l10.23-9.53a18.44,18.44,0,0,0,3.68-4.37A8.56,8.56,0,0,0,1188.37,251.18Z"/><path class="cls-3" d="M1213.54,272h-17v-2.49h7V250a6,6,0,0,1-3.18.76h-4v-2.48h3.71a3.33,3.33,0,0,0,2.69-1.05,5.13,5.13,0,0,0,.89-3.32h2.79v25.52h7Z"/><path class="cls-3" d="M1236.62,254.07a8.52,8.52,0,0,1,6.3,2.35,8.33,8.33,0,0,1,2.33,6.17,10,10,0,0,1-2.56,7.19,9.37,9.37,0,0,1-7,2.65,10.81,10.81,0,0,1-6.53-1.81,8,8,0,0,1-3.12-5.2l3-.35a5.88,5.88,0,0,0,2.2,3.66,7.09,7.09,0,0,0,4.36,1.26,6.52,6.52,0,0,0,5-1.9,7.58,7.58,0,0,0,1.78-5.38,6.38,6.38,0,0,0-1.57-4.56,5.73,5.73,0,0,0-4.35-1.65,7.78,7.78,0,0,0-3.63.88,7,7,0,0,0-2.7,2.32l-2.87-.92,2.07-14.84h14v2.48h-11.53l-1.56,10.08A9.3,9.3,0,0,1,1236.62,254.07Z"/><path class="cls-3" d="M1260,253.94a8.8,8.8,0,0,1,6.6,2.52,9.84,9.84,0,0,1-.2,13.28,8.81,8.81,0,0,1-6.6,2.69q-5,0-7.48-3.45t-2.52-10.28q0-7.26,2.7-11.25a8.6,8.6,0,0,1,7.54-4,8.82,8.82,0,0,1,5.54,1.73,8.51,8.51,0,0,1,3.07,4.87l-2.93.64a7.57,7.57,0,0,0-2.18-3.67,5.48,5.48,0,0,0-3.58-1.13,5.94,5.94,0,0,0-5.43,3.4,17.44,17.44,0,0,0-1.94,8.67,8.26,8.26,0,0,1,3.11-3A8.86,8.86,0,0,1,1260,253.94Zm-6.92,9.33a6.65,6.65,0,0,0,1.8,4.83,6.47,6.47,0,0,0,4.77,1.89,6.26,6.26,0,0,0,4.7-1.89,6.79,6.79,0,0,0,1.86-4.87,7.07,7.07,0,0,0-1.7-5,7,7,0,0,0-9.59.16A6.85,6.85,0,0,0,1253.12,263.27Z"/><path class="cls-3" d="M1297.62,246.42h-15.45v-2.48h18.59v2.69a29.83,29.83,0,0,0-7.1,9.71,30.91,30.91,0,0,0-2.06,12V272h-2.91v-3.64a32.43,32.43,0,0,1,2.19-12.32A26.68,26.68,0,0,1,1297.62,246.42Z"/><path class="cls-3" d="M1321.35,272H1304.4v-2.49h7V250a6,6,0,0,1-3.18.76h-4v-2.48H1308a3.33,3.33,0,0,0,2.69-1.05,5.13,5.13,0,0,0,.89-3.32h2.79v25.52h7Z"/><path class="cls-3" d="M1348.43,246.42H1333v-2.48h18.59v2.69a29.73,29.73,0,0,0-7.11,9.71,31.11,31.11,0,0,0-2,12V272h-2.91v-3.64a32.43,32.43,0,0,1,2.19-12.32A26.68,26.68,0,0,1,1348.43,246.42Z"/><path class="cls-3" d="M1369.68,257.22a7.06,7.06,0,0,1,3.54,2.64,7.4,7.4,0,0,1,1.23,4.29,7.53,7.53,0,0,1-2.68,6,10,10,0,0,1-6.93,2.32,10.3,10.3,0,0,1-7-2.28,7.56,7.56,0,0,1-2.64-6,7.08,7.08,0,0,1,1.3-4.19,7.47,7.47,0,0,1,3.58-2.7,6.56,6.56,0,0,1-3.11-2.41,6.71,6.71,0,0,1-1.09-3.86,6.85,6.85,0,0,1,2.44-5.45,11.43,11.43,0,0,1,13.05,0,7.5,7.5,0,0,1,1.34,9.29A6.42,6.42,0,0,1,1369.68,257.22Zm1.86,6.89a5.2,5.2,0,0,0-1.85-4.13,8.21,8.21,0,0,0-9.71,0,5.18,5.18,0,0,0-1.86,4.13,5.37,5.37,0,0,0,1.8,4.26,8.48,8.48,0,0,0,9.83,0A5.4,5.4,0,0,0,1371.54,264.11Zm-12.81-13.2a4.78,4.78,0,0,0,1.68,3.76,7.4,7.4,0,0,0,8.85,0,4.77,4.77,0,0,0,1.67-3.76,4.47,4.47,0,0,0-1.61-3.68,8.28,8.28,0,0,0-9,0A4.47,4.47,0,0,0,1358.73,250.91Z"/><path class="cls-3" d="M1389.22,257.94q0-6.74,2.68-10.6a9.13,9.13,0,0,1,14.92,0q2.67,3.85,2.67,10.6t-2.71,10.61a9.14,9.14,0,0,1-14.92,0C1390.1,266,1389.22,262.49,1389.22,257.94Zm17.36,0c0-3.8-.62-6.76-1.88-8.87a6.06,6.06,0,0,0-10.66,0q-1.9,3.21-1.91,8.83t1.87,8.91a6.12,6.12,0,0,0,10.7,0C1406,264.74,1406.58,261.77,1406.58,257.94Z"/><path class="cls-3" d="M1427.82,246.42h-15.45v-2.48H1431v2.69a29.73,29.73,0,0,0-7.11,9.71,30.92,30.92,0,0,0-2,12V272h-2.91v-3.64a32.43,32.43,0,0,1,2.19-12.32A26.55,26.55,0,0,1,1427.82,246.42Z"/><path class="cls-3" d="M1032.44,320h-2.64v-28h4l9.45,24.16,9.12-24.16h4.12v28h-2.77V295.59l-9.44,24.47H1042l-9.55-24.35Z"/><path class="cls-3" d="M1112.86,307.19v7.64h-2.71v-7.64h-7.56v-2.52h7.56v-7.6h2.71v7.6h7.52v2.52Z"/><path class="cls-3" d="M1135.23,310a8.93,8.93,0,0,1-6.61-2.49,9.94,9.94,0,0,1,.16-13.32,9,9,0,0,1,6.64-2.67q5,0,7.48,3.46t2.52,10.25q0,7.26-2.69,11.26a8.6,8.6,0,0,1-7.54,4,8.89,8.89,0,0,1-5.55-1.72,8.62,8.62,0,0,1-3.07-4.88l2.93-.64a7.64,7.64,0,0,0,2.18,3.67,5.49,5.49,0,0,0,3.59,1.13,6,6,0,0,0,5.43-3.4,17.55,17.55,0,0,0,1.93-8.69,8.11,8.11,0,0,1-3.11,3A8.85,8.85,0,0,1,1135.23,310Zm6.91-9.32a6.51,6.51,0,0,0-1.84-4.84,6.89,6.89,0,0,0-9.49,0,6.68,6.68,0,0,0-1.79,4.85,7.06,7.06,0,0,0,1.69,5,7.1,7.1,0,0,0,9.56-.12A7,7,0,0,0,1142.14,300.63Z"/><path class="cls-3" d="M1165,305.22a7.08,7.08,0,0,1,3.53,2.64,7.4,7.4,0,0,1,1.23,4.29,7.55,7.55,0,0,1-2.67,6,10.07,10.07,0,0,1-6.94,2.32,10.32,10.32,0,0,1-7-2.28,7.56,7.56,0,0,1-2.64-6,7.15,7.15,0,0,1,1.3-4.19,7.45,7.45,0,0,1,3.59-2.7,6.54,6.54,0,0,1-3.12-2.41,7.36,7.36,0,0,1,1.36-9.31,9.66,9.66,0,0,1,6.5-2.07,9.79,9.79,0,0,1,6.55,2,7.47,7.47,0,0,1,1.33,9.29A6.39,6.39,0,0,1,1165,305.22Zm1.85,6.89A5.2,5.2,0,0,0,1165,308a8.22,8.22,0,0,0-9.72,0,5.18,5.18,0,0,0-1.86,4.13,5.37,5.37,0,0,0,1.8,4.26,8.48,8.48,0,0,0,9.83,0A5.37,5.37,0,0,0,1166.81,312.11ZM1154,298.91a4.78,4.78,0,0,0,1.68,3.76,7.41,7.41,0,0,0,8.86,0,4.8,4.8,0,0,0,1.67-3.76,4.47,4.47,0,0,0-1.62-3.68,8.28,8.28,0,0,0-9,0A4.47,4.47,0,0,0,1154,298.91Z"/><path class="cls-3" d="M1183.67,310a8.89,8.89,0,0,1-6.6-2.49,9.41,9.41,0,0,1,6.8-16,8.66,8.66,0,0,1,7.48,3.46q2.52,3.45,2.52,10.25,0,7.26-2.7,11.26a8.6,8.6,0,0,1-7.54,4,8.89,8.89,0,0,1-5.55-1.72,8.56,8.56,0,0,1-3.06-4.88l2.93-.64a7.64,7.64,0,0,0,2.17,3.67,5.51,5.51,0,0,0,3.59,1.13,6,6,0,0,0,5.43-3.4,17.44,17.44,0,0,0,1.93-8.69,8.09,8.09,0,0,1-3.1,3A8.87,8.87,0,0,1,1183.67,310Zm6.91-9.32a6.54,6.54,0,0,0-1.83-4.84,6.89,6.89,0,0,0-9.49,0,6.69,6.69,0,0,0-1.8,4.85,7.07,7.07,0,0,0,1.7,5,7.09,7.09,0,0,0,9.55-.12A7,7,0,0,0,1190.58,300.63Z"/><path class="cls-3" d="M1215.88,320h-17v-2.49h7V298a6.05,6.05,0,0,1-3.19.76h-4v-2.48h3.71a3.34,3.34,0,0,0,2.69-1.05,5.13,5.13,0,0,0,.88-3.32h2.8v25.52h7Z"/><path class="cls-3" d="M1234.12,299.18a4.9,4.9,0,0,0-1.49-3.75,5.52,5.52,0,0,0-3.92-1.4q-6.69,0-6.64,8l-2.75-.36a9.52,9.52,0,0,1,2.36-7.4,9.22,9.22,0,0,1,7-2.75,8.62,8.62,0,0,1,6.17,2.15,7.41,7.41,0,0,1,2.26,5.64,10.07,10.07,0,0,1-1.41,5,24.45,24.45,0,0,1-4.54,5.45l-8.32,7.75h14.88V320h-18.56v-2.68l10.24-9.53a18.44,18.44,0,0,0,3.68-4.37A8.55,8.55,0,0,0,1234.12,299.18Z"/><path class="cls-3" d="M1269,320h-17v-2.49h7V298a6,6,0,0,1-3.18.76h-4v-2.48h3.71a3.33,3.33,0,0,0,2.69-1.05,5.13,5.13,0,0,0,.89-3.32H1262v25.52h7Z"/><path class="cls-3" d="M1271.81,305.94q0-6.74,2.67-10.6a9.13,9.13,0,0,1,14.93,0q2.67,3.86,2.67,10.6t-2.71,10.61a9.14,9.14,0,0,1-14.92,0C1272.69,314,1271.81,310.49,1271.81,305.94Zm17.36,0q0-5.7-1.88-8.87a6.06,6.06,0,0,0-10.66,0q-1.91,3.21-1.91,8.83t1.86,8.91a6.13,6.13,0,0,0,10.71,0Q1289.17,311.69,1289.17,305.94Z"/><path class="cls-3" d="M1306.05,310a8.89,8.89,0,0,1-6.6-2.49,9.41,9.41,0,0,1,6.8-16,8.66,8.66,0,0,1,7.48,3.46q2.52,3.45,2.52,10.25,0,7.26-2.7,11.26a8.6,8.6,0,0,1-7.54,4,8.89,8.89,0,0,1-5.55-1.72,8.56,8.56,0,0,1-3.06-4.88l2.93-.64a7.64,7.64,0,0,0,2.17,3.67,5.51,5.51,0,0,0,3.59,1.13,6,6,0,0,0,5.43-3.4,17.44,17.44,0,0,0,1.93-8.69,8.09,8.09,0,0,1-3.1,3A8.89,8.89,0,0,1,1306.05,310Zm6.91-9.32a6.54,6.54,0,0,0-1.83-4.84,6.89,6.89,0,0,0-9.49,0,6.69,6.69,0,0,0-1.8,4.85,7.07,7.07,0,0,0,1.7,5,7.09,7.09,0,0,0,9.55-.12A7,7,0,0,0,1313,300.63Z"/><path class="cls-3" d="M1343.94,310a8.91,8.91,0,0,1-6.6-2.49,9.94,9.94,0,0,1,.16-13.32,9,9,0,0,1,6.64-2.67q5,0,7.48,3.46t2.52,10.25q0,7.26-2.7,11.26a8.59,8.59,0,0,1-7.54,4,8.88,8.88,0,0,1-5.54-1.72,8.57,8.57,0,0,1-3.07-4.88l2.93-.64a7.57,7.57,0,0,0,2.18,3.67A5.48,5.48,0,0,0,1344,318a6,6,0,0,0,5.43-3.4,17.44,17.44,0,0,0,1.93-8.69,8.09,8.09,0,0,1-3.1,3A8.87,8.87,0,0,1,1343.94,310Zm6.92-9.32a6.54,6.54,0,0,0-1.84-4.84,6.89,6.89,0,0,0-9.49,0,6.69,6.69,0,0,0-1.8,4.85,7.07,7.07,0,0,0,1.7,5,7.09,7.09,0,0,0,9.55-.12A7,7,0,0,0,1350.86,300.63Z"/><path class="cls-3" d="M1372.79,312.74h-14.88v-1.95l14.16-18.85h3.65v18.32H1380v2.48h-4.24V320h-2.93Zm0-17.48-11.27,15h11.27Z"/><path class="cls-3" d="M1407.62,302.07a8.54,8.54,0,0,1,6.31,2.35,8.33,8.33,0,0,1,2.32,6.17,10,10,0,0,1-2.56,7.19,9.37,9.37,0,0,1-7,2.65,10.84,10.84,0,0,1-6.53-1.81,8,8,0,0,1-3.12-5.2l3-.35a5.88,5.88,0,0,0,2.2,3.66,7.11,7.11,0,0,0,4.36,1.26,6.51,6.51,0,0,0,5-1.9,7.58,7.58,0,0,0,1.78-5.38,6.33,6.33,0,0,0-1.57-4.56,5.73,5.73,0,0,0-4.35-1.65,7.84,7.84,0,0,0-3.63.88,7,7,0,0,0-2.69,2.32l-2.88-.92,2.07-14.84h14v2.48h-11.52l-1.57,10.08A9.3,9.3,0,0,1,1407.62,302.07Z"/><path class="cls-3" d="M1434.73,294.42h-15.45v-2.48h18.6v2.69a29.73,29.73,0,0,0-7.11,9.71,30.92,30.92,0,0,0-2,12V320h-2.91v-3.64A32.63,32.63,0,0,1,1428,304,26.68,26.68,0,0,1,1434.73,294.42Z"/><path class="cls-3" d="M472.08,831.74v4.67h-28v-4.67h11.64V818.83H444.07v-4.67h28v4.67H459.79v12.91Z"/><path class="cls-3" d="M469,800.85a4.93,4.93,0,0,0-.85-3,4.72,4.72,0,0,0-2.63-1.63l.84-3.91a7.49,7.49,0,0,1,4.54,3,9.35,9.35,0,0,1,1.64,5.62q0,4.77-2.75,7.33c-1.83,1.7-4.44,2.56-7.82,2.56a10.66,10.66,0,0,1-7.6-2.67,9.19,9.19,0,0,1-2.93-7.11,8.61,8.61,0,0,1,2.67-6.67,10.22,10.22,0,0,1,7.21-2.46h1.76v14.56Q469,806,469,800.85ZM455,801q0,4.57,5.13,5.32v-10C456.66,796.58,455,798.15,455,801Z"/><path class="cls-3" d="M468.44,771.4v-.88h3.64v2.22a5,5,0,0,1-.69,2.72,2.85,2.85,0,0,1-1.95,1.35,6.94,6.94,0,0,1,3.13,6.23,7.47,7.47,0,0,1-1.65,5.07,5.45,5.45,0,0,1-4.29,1.9,5.63,5.63,0,0,1-4.11-1.57,7.93,7.93,0,0,1-2.08-4.49l-1-5.62a1.27,1.27,0,0,0-1.41-1.19,2.85,2.85,0,0,0-2.27,1,4.2,4.2,0,0,0-.89,2.82q0,3.64,3.36,4.36l-.47,4.15a7,7,0,0,1-4.58-2.8,9.56,9.56,0,0,1-1.75-5.9,8.28,8.28,0,0,1,1.95-5.86,6.86,6.86,0,0,1,5.3-2.1h8.2a1.67,1.67,0,0,0,1.17-.34A1.47,1.47,0,0,0,468.44,771.4Zm-2.16,14.3a2.59,2.59,0,0,0,2.09-.88,3.88,3.88,0,0,0,.74-2.54,4.88,4.88,0,0,0-1.59-3.75,5.83,5.83,0,0,0-4.11-1.47h-1l1,5.7a3.85,3.85,0,0,0,1,2.18A2.59,2.59,0,0,0,466.28,785.7Z"/><path class="cls-3" d="M472.57,760.59a8.22,8.22,0,0,1-2.82,6.54,11.11,11.11,0,0,1-7.59,2.44,11.6,11.6,0,0,1-7.72-2.44,8.12,8.12,0,0,1-3-6.54,7.38,7.38,0,0,1,3-6.24H444.07V750h28v4.22h-2.87A7.27,7.27,0,0,1,472.57,760.59ZM462,765.07a7.92,7.92,0,0,0,5-1.44,4.63,4.63,0,0,0,1.85-3.87,4.84,4.84,0,0,0-1.85-4,7.7,7.7,0,0,0-5-1.49,7.59,7.59,0,0,0-4.92,1.51,4.85,4.85,0,0,0-1.88,4,4.66,4.66,0,0,0,1.85,3.87A7.83,7.83,0,0,0,462,765.07Z"/><path class="cls-3" d="M458.07,714.68c4.37,0,7.87,1.23,10.53,3.68a14,14,0,0,1,0,19.56q-3.94,3.65-10.53,3.64t-10.5-3.68a14,14,0,0,1,0-19.52C450.18,715.91,453.69,714.68,458.07,714.68Zm-7.63,19.79a13.84,13.84,0,0,0,15.28,0,8.62,8.62,0,0,0,0-12.72,13.74,13.74,0,0,0-15.28,0,8.62,8.62,0,0,0,0,12.72Z"/><path class="cls-3" d="M455.51,705.34h16.57v4.38H455.51v3.38H452v-3.38h-1.41a6.32,6.32,0,0,1-4.79-1.75,6.8,6.8,0,0,1-1.69-5v-3.15h3.65v2.84a2.47,2.47,0,0,0,.76,2,3.63,3.63,0,0,0,2.41.66H452v-4.79h3.55Z"/><path class="cls-3" d="M449,680.19v4.38h-5v-4.38Zm6.48,12.4h16.57V697H455.51v3.38H452V697h-1.41a6.32,6.32,0,0,1-4.79-1.75,6.8,6.8,0,0,1-1.69-5v-2.74h3.65V690a2.5,2.5,0,0,0,.76,2,3.69,3.69,0,0,0,2.41.65H452V687.8h3.55Zm16.57-12.4v4.38H452v-4.38Z"/><path class="cls-3" d="M468.83,667.34a4.59,4.59,0,0,0-1.12-3.23,5,5,0,0,0-3.15-1.5l.52-4.22a8.27,8.27,0,0,1,5.49,2.93,9.29,9.29,0,0,1,2,6.12,9,9,0,0,1-2.86,7,12.55,12.55,0,0,1-15.31,0,9,9,0,0,1-2.93-7.05,9.55,9.55,0,0,1,2-6.24,8.46,8.46,0,0,1,5.6-2.89l.49,4.34c-2.9.53-4.36,2.13-4.36,4.79a4.47,4.47,0,0,0,1.82,3.83,8.41,8.41,0,0,0,5.1,1.35,8,8,0,0,0,5-1.37A4.59,4.59,0,0,0,468.83,667.34Z"/><path class="cls-3" d="M469,646.79a4.93,4.93,0,0,0-.85-3,4.72,4.72,0,0,0-2.63-1.63l.84-3.91a7.49,7.49,0,0,1,4.54,2.95,9.35,9.35,0,0,1,1.64,5.62q0,4.77-2.75,7.32T462,656.67a10.66,10.66,0,0,1-7.6-2.66,9.19,9.19,0,0,1-2.93-7.11,8.61,8.61,0,0,1,2.67-6.67,10.22,10.22,0,0,1,7.21-2.46h1.76v14.56Q469,651.92,469,646.79Zm-14.08.15q0,4.57,5.13,5.32v-10C456.66,642.52,455,644.09,455,646.94Z"/><path class="cls-3" d="M442.39,622.66v-2.73h35v2.73Z"/><path class="cls-3" d="M463.76,590.42v6.85l8.32.6v2.63l-8.32-.6v4.63h-2.29v-4.79l-6.8-.49v4.64h-2.28V599.1l-8.32-.59v-2.64l8.32.6v-6.85l-8.32-.61v-2.62l8.32.6v-4.63h2.28v4.79l6.8.46V583h2.29v4.79l8.32.58V591Zm-9.09-.65v6.85l6.8.49v-6.85Z"/><path class="cls-3" d="M451.32,558.92a4.9,4.9,0,0,0-3.75,1.49,5.43,5.43,0,0,0-1.41,3.9q0,6.68,7.95,6.62l-.35,2.75c-3.13.15-5.6-.63-7.41-2.36a9.15,9.15,0,0,1-2.75-6.93,8.58,8.58,0,0,1,2.15-6.15,7.44,7.44,0,0,1,5.64-2.26,10.07,10.07,0,0,1,5,1.41,24.1,24.1,0,0,1,5.45,4.53l7.76,8.29V555.38h2.48v18.49H469.4l-9.53-10.2A18.61,18.61,0,0,0,455.5,560,8.51,8.51,0,0,0,451.32,558.92Z"/><path class="cls-3" d="M454.07,541.76a8.77,8.77,0,0,1,2.52-6.58,9.87,9.87,0,0,1,13.28.2,8.79,8.79,0,0,1,2.7,6.58,8.63,8.63,0,0,1-3.46,7.45q-3.47,2.51-10.28,2.51-7.26,0-11.25-2.69a8.56,8.56,0,0,1-4-7.51,8.86,8.86,0,0,1,1.73-5.53,8.57,8.57,0,0,1,4.87-3.05l.65,2.92a7.55,7.55,0,0,0-3.68,2.17A5.43,5.43,0,0,0,446,541.8a5.92,5.92,0,0,0,3.4,5.41,17.44,17.44,0,0,0,8.67,1.93,8.16,8.16,0,0,1-3-3.1A8.78,8.78,0,0,1,454.07,541.76Zm9.34,6.89a6.68,6.68,0,0,0,4.82-1.79,6.44,6.44,0,0,0,1.89-4.75,6.24,6.24,0,0,0-1.89-4.69,6.8,6.8,0,0,0-4.86-1.85,7.09,7.09,0,0,0-5.05,1.69,7,7,0,0,0,.16,9.56A6.85,6.85,0,0,0,463.41,548.65Z"/><path class="cls-3" d="M472.08,524.87v2.9h-28v-2.9h12.48V509.81H444.07v-2.92h28v2.92H459.15v15.06Z"/><path class="cls-3" d="M477.08,501.17v2.59l-8.89-2.32v-2.78Z"/><path class="cls-3" d="M472.08,486v2.9h-28V486Z"/><path class="cls-3" d="M461.24,464.58h10.84v2.73H459.71a6.27,6.27,0,0,0-4.14,1.23,4.41,4.41,0,0,0-1.46,3.54,4.89,4.89,0,0,0,1.82,4.09,8.57,8.57,0,0,0,5.31,1.42h10.84v2.7H452.19v-2.7h2.52a6.72,6.72,0,0,1-3-5.94,7.45,7.45,0,0,1,.95-3.89,5.84,5.84,0,0,1,2.8-2.42,6.81,6.81,0,0,1-3.75-6.54,7,7,0,0,1,2-5.28,7.58,7.58,0,0,1,5.48-1.92h12.87v2.71H459.71a6.22,6.22,0,0,0-4.14,1.24,4.41,4.41,0,0,0-1.46,3.54,4.86,4.86,0,0,0,1.82,4.08A8.57,8.57,0,0,0,461.24,464.58Z"/><path class="cls-3" d="M451.73,437.26a8,8,0,0,1,2.79-6.42A11,11,0,0,1,462,428.4a11.57,11.57,0,0,1,7.67,2.44,7.94,7.94,0,0,1,2.9,6.42,7.6,7.6,0,0,1-3.5,6.66h10.41v2.7H452.19v-2.7h3.13A7.53,7.53,0,0,1,451.73,437.26Zm10.43-6.05a9.4,9.4,0,0,0-5.88,1.67,5.46,5.46,0,0,0-2.17,4.58,5.81,5.81,0,0,0,2.2,4.76,10.4,10.4,0,0,0,11.65,0,5.79,5.79,0,0,0,2.2-4.75,5.48,5.48,0,0,0-2.16-4.58A9.3,9.3,0,0,0,462.16,431.21Z"/><path class="cls-3" d="M472.08,421.79v2.71H452.19v-2.71h3.89a6.27,6.27,0,0,1-3.89-5.89v-1.48h2.64v1.48a4.94,4.94,0,0,0,2.43,4.26,11.24,11.24,0,0,0,6.38,1.63Z"/><path class="cls-3" d="M462.16,413.49a10.91,10.91,0,0,1-7.56-2.55,9.73,9.73,0,0,1,0-13.8,12.31,12.31,0,0,1,15.11,0,9.75,9.75,0,0,1,0,13.8A10.9,10.9,0,0,1,462.16,413.49ZM468,399.13a10.52,10.52,0,0,0-11.77,0,6.54,6.54,0,0,0,0,9.77,10.57,10.57,0,0,0,11.77,0A5.94,5.94,0,0,0,470.2,404,6,6,0,0,0,468,399.13Z"/><path class="cls-3" d="M472.08,382.68v2.9l-19.89,7.87v-2.88l17-6.49-17-6.5v-2.84Z"/><path class="cls-3" d="M470.32,364.28q0-4.61-4.57-5.49l.41-2.59a6.85,6.85,0,0,1,4.68,2.61,8.64,8.64,0,0,1,1.73,5.47q0,4.58-2.69,7t-7.76,2.41a10.93,10.93,0,0,1-7.56-2.51,8.64,8.64,0,0,1-2.83-6.78,8,8,0,0,1,2.45-6.25,9.89,9.89,0,0,1,6.86-2.21h1.68v14.94Q470.33,370.63,470.32,364.28Zm-16.37.13a5.9,5.9,0,0,0,1.66,4.41,7.93,7.93,0,0,0,4.87,2v-12Q454,359.08,454,364.41Z"/><path class="cls-3" d="M461.24,336.27h10.84V339H459.71a6.27,6.27,0,0,0-4.14,1.23,4.41,4.41,0,0,0-1.46,3.54,4.87,4.87,0,0,0,1.82,4.08,8.51,8.51,0,0,0,5.31,1.42h10.84V352H452.19v-2.71h2.52a6.69,6.69,0,0,1-3-5.93,7.52,7.52,0,0,1,.95-3.9,5.88,5.88,0,0,1,2.8-2.41,6.81,6.81,0,0,1-3.75-6.54,6.93,6.93,0,0,1,2-5.28,7.58,7.58,0,0,1,5.48-1.92h12.87V326H459.71a6.22,6.22,0,0,0-4.14,1.25,4.41,4.41,0,0,0-1.46,3.54,4.86,4.86,0,0,0,1.82,4.08A8.57,8.57,0,0,0,461.24,336.27Z"/><path class="cls-3" d="M470.32,310.25q0-4.59-4.57-5.48l.41-2.59a6.88,6.88,0,0,1,4.68,2.6,8.66,8.66,0,0,1,1.73,5.47q0,4.58-2.69,7t-7.76,2.41a10.93,10.93,0,0,1-7.56-2.51,8.64,8.64,0,0,1-2.83-6.78,8,8,0,0,1,2.45-6.25,9.85,9.85,0,0,1,6.86-2.22h1.68v14.95Q470.33,316.61,470.32,310.25Zm-16.37.14a5.9,5.9,0,0,0,1.66,4.41,7.93,7.93,0,0,0,4.87,2v-12Q454,305.05,454,310.39Z"/><path class="cls-3" d="M459.21,281.45h12.87v2.73H459.71a5.94,5.94,0,0,0-4.14,1.34,5,5,0,0,0-1.46,3.84,5.35,5.35,0,0,0,1.81,4.39,8.21,8.21,0,0,0,5.32,1.5h10.84V298H452.19v-2.71h2.64a7,7,0,0,1-3.1-6.34,6.9,6.9,0,0,1,7.48-7.46Z"/><path class="cls-3" d="M454.48,279.14h-2.29v-3.66h-6.56v-2.72h6.56v-5.37h2.29v5.37h12a3.92,3.92,0,0,0,2.5-.61,2.72,2.72,0,0,0,.7-2.14v-3.15h2.37v3.49a5.11,5.11,0,0,1-1.35,3.8,5.24,5.24,0,0,1-3.85,1.33h-12.4Z"/><path class="cls-3" d="M510.16,837.89a10.91,10.91,0,0,1-7.56-2.55,9.73,9.73,0,0,1,0-13.8,12.31,12.31,0,0,1,15.11,0,9.75,9.75,0,0,1,0,13.8A10.9,10.9,0,0,1,510.16,837.89ZM516,823.53a10.52,10.52,0,0,0-11.77,0,6.54,6.54,0,0,0,0,9.77,10.59,10.59,0,0,0,11.77,0,6.59,6.59,0,0,0,0-9.78Z"/><path class="cls-3" d="M502.48,811.29h17.6V814h-17.6v3.78h-2.29V814h-1.64a6.87,6.87,0,0,1-4.79-1.52,5.54,5.54,0,0,1-1.69-4.36v-2.66h2.28v2.39a3.13,3.13,0,0,0,1,2.6,5.25,5.25,0,0,0,3.28.83h1.52v-5.22h2.29Z"/><path class="cls-3" d="M520.08,795.56v2.9h-28v-2.9Z"/><path class="cls-3" d="M520.08,787.2v2.7H500.19v-2.7h3.89a6.29,6.29,0,0,1-3.89-5.9v-1.48h2.64v1.48a4.94,4.94,0,0,0,2.43,4.26,11.24,11.24,0,0,0,6.38,1.64Z"/><path class="cls-3" d="M517.79,761.45v-1h2.29v1.63a3.88,3.88,0,0,1-.82,2.51,2.72,2.72,0,0,1-2.19,1h-.16a7,7,0,0,1,3.66,6.46,7.32,7.32,0,0,1-1.62,5,5.25,5.25,0,0,1-4.19,1.87,5.5,5.5,0,0,1-4-1.55,8,8,0,0,1-2.1-4.42l-1-6a1.41,1.41,0,0,0-1.53-1.28,3.79,3.79,0,0,0-3,1.3,5.23,5.23,0,0,0-1.14,3.56q0,4.38,4.08,5.34l-.35,2.55a6.72,6.72,0,0,1-4.34-2.61,8.59,8.59,0,0,1-1.65-5.39,7.65,7.65,0,0,1,1.84-5.43,6.41,6.41,0,0,1,4.95-2h9.75a1.63,1.63,0,0,0,1.18-.34A1.57,1.57,0,0,0,517.79,761.45Zm-3.16,14.72A3.35,3.35,0,0,0,517.3,775a4.6,4.6,0,0,0,1-3.14,5.82,5.82,0,0,0-2-4.55,7.79,7.79,0,0,0-5.27-1.79h-1.27l1.23,7.08a4.23,4.23,0,0,0,1.24,2.6A3.38,3.38,0,0,0,514.63,776.17Z"/><path class="cls-3" d="M507.21,741.37h12.87v2.73H507.71a5.89,5.89,0,0,0-4.14,1.34,4.94,4.94,0,0,0-1.46,3.83,5.37,5.37,0,0,0,1.81,4.4,8.21,8.21,0,0,0,5.32,1.5h10.84v2.71H500.19v-2.71h2.64a7,7,0,0,1-3.1-6.34,7.32,7.32,0,0,1,2-5.47A7.41,7.41,0,0,1,507.21,741.37Z"/><path class="cls-3" d="M520.08,722.82v2.67l-28,8.33v-3L515.64,724l-23.57-6.85v-2.88l23.4-6.93-23.4-6.78v-3l28,8.33v2.67l-23.52,7.11Z"/><path class="cls-3" d="M510.16,697.27a10.91,10.91,0,0,1-7.56-2.55,9.73,9.73,0,0,1,0-13.8,12.31,12.31,0,0,1,15.11,0,9.75,9.75,0,0,1,0,13.8A10.9,10.9,0,0,1,510.16,697.27ZM516,682.91a10.52,10.52,0,0,0-11.77,0,6.54,6.54,0,0,0,0,9.77,10.59,10.59,0,0,0,11.77,0,6.59,6.59,0,0,0,0-9.78Z"/><path class="cls-3" d="M510.16,675.83a10.91,10.91,0,0,1-7.56-2.55,9.73,9.73,0,0,1,0-13.8,12.31,12.31,0,0,1,15.11,0,9.75,9.75,0,0,1,0,13.8A10.9,10.9,0,0,1,510.16,675.83ZM516,661.47a10.52,10.52,0,0,0-11.77,0,6,6,0,0,0-2.19,4.9,5.94,5.94,0,0,0,2.19,4.86,10.59,10.59,0,0,0,11.77,0,5.94,5.94,0,0,0,2.17-4.87A6,6,0,0,0,516,661.47Z"/><path class="cls-3" d="M520.57,645.49a8.15,8.15,0,0,1-2.82,6.46,11.12,11.12,0,0,1-7.48,2.39,11.5,11.5,0,0,1-7.63-2.39,8,8,0,0,1-2.91-6.46,7.59,7.59,0,0,1,3.47-6.66H492.07v-2.71h28v2.71H517A7.53,7.53,0,0,1,520.57,645.49Zm-10.45,6a9.44,9.44,0,0,0,5.88-1.67,5.48,5.48,0,0,0,2.16-4.58,5.83,5.83,0,0,0-2.19-4.76,10.35,10.35,0,0,0-11.62,0,5.8,5.8,0,0,0-2.24,4.75,5.48,5.48,0,0,0,2.16,4.58A9.35,9.35,0,0,0,510.12,651.54Z"/><path class="cls-3" d="M520.08,621.82v2.9h-28v-2.9Z"/><path class="cls-3" d="M507.21,599.65h12.87v2.73H507.71a5.94,5.94,0,0,0-4.14,1.34,5,5,0,0,0-1.46,3.84,5.38,5.38,0,0,0,1.81,4.4,8.21,8.21,0,0,0,5.32,1.5h10.84v2.7H500.19v-2.7h2.64a7,7,0,0,1-3.1-6.35,7.33,7.33,0,0,1,2-5.47A7.45,7.45,0,0,1,507.21,599.65Z"/><path class="cls-3" d="M520.57,587.15a8.15,8.15,0,0,1-2.82,6.46,11.17,11.17,0,0,1-7.48,2.39,11.56,11.56,0,0,1-7.63-2.39,8,8,0,0,1-2.91-6.46,7.59,7.59,0,0,1,3.47-6.66H492.07v-2.71h28v2.71H517A7.53,7.53,0,0,1,520.57,587.15Zm-10.45,6.05a9.38,9.38,0,0,0,5.88-1.68,5.46,5.46,0,0,0,2.16-4.57,5.83,5.83,0,0,0-2.19-4.76,10.35,10.35,0,0,0-11.62,0,5.8,5.8,0,0,0-2.24,4.75,5.46,5.46,0,0,0,2.16,4.57A9.29,9.29,0,0,0,510.12,593.2Z"/><path class="cls-3" d="M500.19,559.4v-2.71h19.89v2.71h-2.56a6.93,6.93,0,0,1,3.05,6.15,7,7,0,0,1-2,5.3,7.55,7.55,0,0,1-5.47,1.94H500.19v-2.71H512.6a6,6,0,0,0,4.12-1.29,4.73,4.73,0,0,0,1.44-3.69,5.14,5.14,0,0,0-1.81-4.25,8.28,8.28,0,0,0-5.28-1.45Z"/><path class="cls-3" d="M520.57,544.75a9.18,9.18,0,0,1-1.8,5.93,6.33,6.33,0,0,1-4.81,2.4l-.48-2.67a5.6,5.6,0,0,0,3.64-1.69,6,6,0,0,0,1.16-4,5.41,5.41,0,0,0-1-3.52,3.52,3.52,0,0,0-2.9-1.2q-2.58,0-3.24,4l-.43,2.71c-.64,3.83-2.45,5.74-5.45,5.74a4.87,4.87,0,0,1-4-2,9.45,9.45,0,0,1,0-10.42,7.1,7.1,0,0,1,4.54-2.48l.43,2.47a5.87,5.87,0,0,0-3.28,1.81,5.39,5.39,0,0,0-1,3.47,5.53,5.53,0,0,0,.87,3.29,2.9,2.9,0,0,0,4.39.38,4.76,4.76,0,0,0,1-2.64l.51-3.11q1-5.94,5.6-5.94a5.62,5.62,0,0,1,4.48,2A8.13,8.13,0,0,1,520.57,544.75Z"/><path class="cls-3" d="M502.48,536.3h-2.29v-3.66h-6.56v-2.72h6.56v-5.37h2.29v5.37h12a3.85,3.85,0,0,0,2.5-.61,2.72,2.72,0,0,0,.7-2.14V524h2.37v3.49a5.11,5.11,0,0,1-1.35,3.8,5.24,5.24,0,0,1-3.85,1.33h-12.4Z"/><path class="cls-3" d="M520.08,518.58v2.7H500.19v-2.7h3.89a6.29,6.29,0,0,1-3.89-5.9V511.2h2.64v1.48a4.94,4.94,0,0,0,2.43,4.26,11.24,11.24,0,0,0,6.38,1.64Z"/><path class="cls-3" d="M522.25,503.52l-2.06-.8-20,8v-2.92L517,501.3l-16.8-6.54V492l22.6,9.05a8,8,0,0,1,3.65,2.49,6.34,6.34,0,0,1,1,3.78v1.94h-2.36v-1.94a3.75,3.75,0,0,0-.63-2.29A4.92,4.92,0,0,0,522.25,503.52Z"/><path class="cls-3" d="M492.07,488V467.28h2.56v8.89h25.45v2.9H494.63V488Z"/><path class="cls-3" d="M510.16,469.58A10.91,10.91,0,0,1,502.6,467a9.73,9.73,0,0,1,0-13.8,12.31,12.31,0,0,1,15.11,0,9.75,9.75,0,0,1,0,13.8A10.9,10.9,0,0,1,510.16,469.58ZM516,455.22a10.52,10.52,0,0,0-11.77,0,6.54,6.54,0,0,0,0,9.77A10.59,10.59,0,0,0,516,465a6.59,6.59,0,0,0,0-9.78Z"/><path class="cls-3" d="M520.08,440.08v2.63l-19.89,6.54v-2.79l16.18-5.12-16.18-4.9v-2.59L516.31,429l-16.12-5.08v-2.74l19.89,6.58v2.58l-16,4.91Z"/><path class="cls-3" d="M507.21,401.78h12.87v2.72H507.71a5.9,5.9,0,0,0-4.14,1.35,4.94,4.94,0,0,0-1.46,3.83,5.38,5.38,0,0,0,1.81,4.4,8.21,8.21,0,0,0,5.32,1.5h10.84v2.7H500.19v-2.7h2.64a7,7,0,0,1-3.1-6.35,7.35,7.35,0,0,1,2-5.47A7.44,7.44,0,0,1,507.21,401.78Z"/><path class="cls-3" d="M525.08,396.41V399l-8.89-2.32V393.9Z"/><path class="cls-3" d="M540.07,815.64l12.48,10.73,15.53-11.08v3.5l-13.4,9.56L560,833h8.13v2.9h-28V833h16.29L540.07,819.1Z"/><path class="cls-3" d="M555.21,796.22h12.87V799H555.71a5.89,5.89,0,0,0-4.14,1.34,4.94,4.94,0,0,0-1.46,3.83,5.37,5.37,0,0,0,1.81,4.4,8.21,8.21,0,0,0,5.32,1.5h10.84v2.71h-28V810h10.76a7,7,0,0,1-3.1-6.34,7.32,7.32,0,0,1,2-5.47A7.41,7.41,0,0,1,555.21,796.22Z"/><path class="cls-3" d="M558.16,792.61a10.91,10.91,0,0,1-7.56-2.55,9.73,9.73,0,0,1,0-13.8,12.31,12.31,0,0,1,15.11,0,9.75,9.75,0,0,1,0,13.8A10.9,10.9,0,0,1,558.16,792.61ZM564,778.25a10.52,10.52,0,0,0-11.77,0,6,6,0,0,0-2.19,4.9,5.94,5.94,0,0,0,2.19,4.86A10.59,10.59,0,0,0,564,788a5.94,5.94,0,0,0,2.17-4.87A6,6,0,0,0,564,778.25Z"/><path class="cls-3" d="M568.08,767.1v2.7H548.19v-2.7h3.89a6.29,6.29,0,0,1-3.89-5.9v-1.48h2.64v1.48a4.94,4.94,0,0,0,2.43,4.26,11.24,11.24,0,0,0,6.38,1.64Z"/><path class="cls-3" d="M568.57,750.32a9.19,9.19,0,0,1-1.8,5.94,6.33,6.33,0,0,1-4.81,2.4l-.48-2.67a5.56,5.56,0,0,0,3.64-1.7,6,6,0,0,0,1.16-4,5.4,5.4,0,0,0-1-3.51,3.52,3.52,0,0,0-2.9-1.2q-2.58,0-3.24,4l-.43,2.71c-.64,3.83-2.45,5.74-5.45,5.74a4.87,4.87,0,0,1-4-2,9.45,9.45,0,0,1,0-10.42,7.1,7.1,0,0,1,4.54-2.48l.43,2.47a5.87,5.87,0,0,0-3.28,1.81,5.39,5.39,0,0,0-1,3.47,5.53,5.53,0,0,0,.87,3.29,2.92,2.92,0,0,0,4.39.38,4.76,4.76,0,0,0,1-2.64l.51-3.12q1-5.93,5.6-5.93a5.62,5.62,0,0,1,4.48,2A8.12,8.12,0,0,1,568.57,750.32Z"/><path class="cls-3" d="M555.21,722.63h12.87v2.73H555.71a5.94,5.94,0,0,0-4.14,1.34,5,5,0,0,0-1.46,3.84,5.35,5.35,0,0,0,1.81,4.39,8.21,8.21,0,0,0,5.32,1.5h10.84v2.71h-28v-2.71h10.76a7,7,0,0,1-3.1-6.34,7.32,7.32,0,0,1,2-5.47A7.41,7.41,0,0,1,555.21,722.63Z"/><path class="cls-3" d="M544.64,715v2.71h-4.57V715Zm23.44,0v2.71H548.19V715Z"/><path class="cls-3" d="M568.57,702.21a8.14,8.14,0,0,1-2.82,6.46,11.12,11.12,0,0,1-7.48,2.39,11.5,11.5,0,0,1-7.63-2.39,8,8,0,0,1-2.91-6.46,7.59,7.59,0,0,1,3.47-6.66H540.07v-2.7h28v2.7H565A7.53,7.53,0,0,1,568.57,702.21Zm-10.45,6a9.44,9.44,0,0,0,5.88-1.67,5.48,5.48,0,0,0,2.16-4.58,5.83,5.83,0,0,0-2.19-4.76,10.35,10.35,0,0,0-11.62,0,5.8,5.8,0,0,0-2.24,4.75,5.48,5.48,0,0,0,2.16,4.58A9.35,9.35,0,0,0,558.12,708.26Z"/><path class="cls-3" d="M544.64,684.91v2.71h-4.57v-2.71Zm23.44,0v2.71H548.19v-2.71Z"/><path class="cls-3" d="M568.57,664.69a11.64,11.64,0,0,1-2.45,7.76,8.51,8.51,0,0,1-6.68,3l-.37-2.84a7.06,7.06,0,0,0,5.2-2.18,8.25,8.25,0,0,0,1.81-5.7,6.73,6.73,0,0,0-1.53-4.68,5.2,5.2,0,0,0-4.07-1.71,4.05,4.05,0,0,0-3.15,1.22,9.3,9.3,0,0,0-1.81,4.21l-.84,3.74a10.34,10.34,0,0,1-2.72,5.4,6.94,6.94,0,0,1-4.92,1.74,6.81,6.81,0,0,1-5.29-2.47,9.62,9.62,0,0,1-2.15-6.5,10.14,10.14,0,0,1,2.15-6.79,8.51,8.51,0,0,1,6-2.9l.35,2.88q-6,.66-6,6.85a6.66,6.66,0,0,0,1.36,4.46,4.58,4.58,0,0,0,3.68,1.59,4.42,4.42,0,0,0,3.27-1.2,8,8,0,0,0,1.81-3.86l1-4.38a10,10,0,0,1,2.55-5.23,6.61,6.61,0,0,1,4.73-1.66,7.52,7.52,0,0,1,5.8,2.55A9.62,9.62,0,0,1,568.57,664.69Z"/><path class="cls-3" d="M550.48,653.77h-2.29v-3.66h-6.56v-2.72h6.56V642h2.29v5.37h12a3.85,3.85,0,0,0,2.5-.61,2.72,2.72,0,0,0,.7-2.14v-3.15h2.37V645a5.11,5.11,0,0,1-1.35,3.8,5.24,5.24,0,0,1-3.85,1.33h-12.4Z"/><path class="cls-3" d="M568.08,636.05v2.7H548.19v-2.7h3.89a6.29,6.29,0,0,1-3.89-5.9v-1.48h2.64v1.48a4.94,4.94,0,0,0,2.43,4.26,11.24,11.24,0,0,0,6.38,1.64Z"/><path class="cls-3" d="M566.32,618.32q0-4.59-4.57-5.49l.41-2.59a6.85,6.85,0,0,1,4.68,2.61,8.66,8.66,0,0,1,1.73,5.47q0,4.57-2.69,7t-7.76,2.4a10.89,10.89,0,0,1-7.56-2.51,8.61,8.61,0,0,1-2.83-6.77,8,8,0,0,1,2.45-6.25A9.85,9.85,0,0,1,557,610h1.68V624.9Q566.32,624.67,566.32,618.32Zm-16.37.14a5.93,5.93,0,0,0,1.66,4.41,7.93,7.93,0,0,0,4.87,2v-12Q550,613.13,550,618.46Z"/><path class="cls-3" d="M566.32,598q0-4.59-4.57-5.49l.41-2.59a6.85,6.85,0,0,1,4.68,2.61,8.64,8.64,0,0,1,1.73,5.47c0,3-.9,5.37-2.69,7s-4.38,2.4-7.76,2.4a10.93,10.93,0,0,1-7.56-2.51,8.62,8.62,0,0,1-2.83-6.77,8,8,0,0,1,2.45-6.25A9.85,9.85,0,0,1,557,589.6h1.68v14.95Q566.32,604.31,566.32,598ZM550,598.1a5.9,5.9,0,0,0,1.66,4.41,7.87,7.87,0,0,0,4.87,2v-12Q550,592.76,550,598.1Z"/><path class="cls-3" d="M550.48,588.34h-2.29v-3.66h-6.56V582h6.56v-5.38h2.29V582h12a3.85,3.85,0,0,0,2.5-.62,2.71,2.71,0,0,0,.7-2.13v-3.15h2.37v3.48a5.12,5.12,0,0,1-1.35,3.81,5.24,5.24,0,0,1-3.85,1.33h-12.4Z"/><path class="cls-3" d="M573.08,572.93v2.59l-8.89-2.32v-2.78Z"/><path class="cls-3" d="M560.52,546.26v12.48l7.56,2.94v3.08l-28-11V551l28-10.9v3.31ZM558,557.79V547.22l-13.85,5.18Z"/><path class="cls-3" d="M555.21,520.75h12.87v2.73H555.71a5.94,5.94,0,0,0-4.14,1.34,5,5,0,0,0-1.46,3.84,5.35,5.35,0,0,0,1.81,4.39,8.21,8.21,0,0,0,5.32,1.5h10.84v2.71h-28v-2.71h10.76a7,7,0,0,1-3.1-6.34,6.9,6.9,0,0,1,7.48-7.46Z"/><path class="cls-3" d="M557.24,500.07h10.84v2.72H555.71a6.27,6.27,0,0,0-4.14,1.24,4.37,4.37,0,0,0-1.46,3.53,4.89,4.89,0,0,0,1.82,4.09,8.51,8.51,0,0,0,5.31,1.42h10.84v2.71H548.19v-2.71h2.52a6.72,6.72,0,0,1-3-5.94,7.5,7.5,0,0,1,.95-3.89,5.82,5.82,0,0,1,2.8-2.41,6.81,6.81,0,0,1-3.75-6.54,7,7,0,0,1,2-5.29,7.57,7.57,0,0,1,5.48-1.91h12.87v2.7H555.71a6.22,6.22,0,0,0-4.14,1.25,4.41,4.41,0,0,0-1.46,3.54,4.86,4.86,0,0,0,1.82,4.08A8.57,8.57,0,0,0,557.24,500.07Z"/><path class="cls-3" d="M565.79,466.21v-1h2.29v1.64a3.86,3.86,0,0,1-.82,2.5,2.69,2.69,0,0,1-2.19,1h-.16a7,7,0,0,1,3.66,6.47,7.35,7.35,0,0,1-1.62,5,5.28,5.28,0,0,1-4.19,1.87,5.47,5.47,0,0,1-4-1.56,8,8,0,0,1-2.1-4.42l-1-6a1.41,1.41,0,0,0-1.53-1.29,3.8,3.8,0,0,0-3,1.31,5.21,5.21,0,0,0-1.14,3.56q0,4.38,4.08,5.33l-.35,2.55a6.72,6.72,0,0,1-4.34-2.61,8.55,8.55,0,0,1-1.65-5.39,7.65,7.65,0,0,1,1.84-5.43,6.44,6.44,0,0,1,4.95-2h9.75a1.63,1.63,0,0,0,1.18-.35A1.53,1.53,0,0,0,565.79,466.21Zm-3.16,14.71a3.32,3.32,0,0,0,2.67-1.13,4.57,4.57,0,0,0,1-3.13,5.86,5.86,0,0,0-2-4.56,7.79,7.79,0,0,0-5.27-1.79h-1.27L559,477.4a4.29,4.29,0,0,0,1.24,2.6A3.42,3.42,0,0,0,562.63,480.92Z"/><path class="cls-3" d="M568.57,455.1a8.14,8.14,0,0,1-2.82,6.46,11.13,11.13,0,0,1-7.48,2.4,11.51,11.51,0,0,1-7.63-2.4,8,8,0,0,1-2.91-6.46,7.59,7.59,0,0,1,3.47-6.66H540.07v-2.7h28v2.7H565A7.53,7.53,0,0,1,568.57,455.1Zm-10.45,6a9.44,9.44,0,0,0,5.88-1.67,5.48,5.48,0,0,0,2.16-4.58,5.83,5.83,0,0,0-2.19-4.76,10.35,10.35,0,0,0-11.62,0,5.8,5.8,0,0,0-2.24,4.75,5.48,5.48,0,0,0,2.16,4.58A9.35,9.35,0,0,0,558.12,461.15Z"/><path class="cls-3" d="M560.52,420v12.48l7.56,2.94v3.08l-28-11v-2.71l28-10.9v3.31ZM558,431.51V420.94l-13.85,5.18Z"/><path class="cls-3" d="M547.73,401.62a8,8,0,0,1,2.79-6.43,11,11,0,0,1,7.48-2.43,11.56,11.56,0,0,1,7.67,2.43,8,8,0,0,1,2.9,6.43,7.59,7.59,0,0,1-3.5,6.65h3V411h-28v-2.71h11.25A7.52,7.52,0,0,1,547.73,401.62Zm10.43-6.06a9.34,9.34,0,0,0-5.88,1.68,5.44,5.44,0,0,0-2.17,4.57,5.8,5.8,0,0,0,2.2,4.76,10.4,10.4,0,0,0,11.65,0,5.77,5.77,0,0,0,2.2-4.75,5.46,5.46,0,0,0-2.16-4.57A9.24,9.24,0,0,0,558.16,395.56Z"/><path class="cls-3" d="M565.79,373v-1h2.29v1.63a3.88,3.88,0,0,1-.82,2.51,2.72,2.72,0,0,1-2.19,1h-.16a7,7,0,0,1,3.66,6.46,7.32,7.32,0,0,1-1.62,5,5.25,5.25,0,0,1-4.19,1.87,5.47,5.47,0,0,1-4-1.56,7.92,7.92,0,0,1-2.1-4.41l-1-6a1.4,1.4,0,0,0-1.53-1.28,3.79,3.79,0,0,0-3,1.3A5.23,5.23,0,0,0,550,382q0,4.38,4.08,5.34l-.35,2.55a6.76,6.76,0,0,1-4.34-2.61,8.59,8.59,0,0,1-1.65-5.39,7.65,7.65,0,0,1,1.84-5.43,6.41,6.41,0,0,1,4.95-2h9.75a1.63,1.63,0,0,0,1.18-.34A1.57,1.57,0,0,0,565.79,373Zm-3.16,14.72a3.35,3.35,0,0,0,2.67-1.13,4.62,4.62,0,0,0,1-3.14,5.82,5.82,0,0,0-2-4.55,7.74,7.74,0,0,0-5.27-1.79h-1.27l1.23,7.08a4.23,4.23,0,0,0,1.24,2.6A3.38,3.38,0,0,0,562.63,387.67Z"/><path class="cls-3" d="M568.57,361.84a8.16,8.16,0,0,1-2.82,6.47,11.17,11.17,0,0,1-7.48,2.39,11.56,11.56,0,0,1-7.63-2.39,8,8,0,0,1-2.91-6.47,7.59,7.59,0,0,1,3.47-6.65H540.07v-2.71h28v2.71H565A7.53,7.53,0,0,1,568.57,361.84Zm-10.45,6.06a9.38,9.38,0,0,0,5.88-1.68,5.46,5.46,0,0,0,2.16-4.57,5.82,5.82,0,0,0-2.19-4.76,10.35,10.35,0,0,0-11.62,0,5.79,5.79,0,0,0-2.24,4.75,5.46,5.46,0,0,0,2.16,4.57A9.29,9.29,0,0,0,558.12,367.9Z"/><path class="cls-3" d="M616.08,833.26v2.62h-28V832l24.16-9.42-24.16-9.09v-4.11h28v2.77H591.72l24.47,9.4v2.24l-24.35,9.52Z"/><path class="cls-3" d="M606.16,805.12a10.91,10.91,0,0,1-7.56-2.55,9.73,9.73,0,0,1,0-13.8,12.31,12.31,0,0,1,15.11,0,9.75,9.75,0,0,1,0,13.8A10.9,10.9,0,0,1,606.16,805.12ZM612,790.76a10.52,10.52,0,0,0-11.77,0,6,6,0,0,0-2.19,4.9,5.94,5.94,0,0,0,2.19,4.86,10.59,10.59,0,0,0,11.77,0,5.94,5.94,0,0,0,2.17-4.87A6,6,0,0,0,612,790.76Z"/><path class="cls-3" d="M616.57,775.58a9.18,9.18,0,0,1-1.8,5.93,6.33,6.33,0,0,1-4.81,2.4l-.48-2.67a5.55,5.55,0,0,0,3.64-1.69,6,6,0,0,0,1.16-4,5.41,5.41,0,0,0-1-3.52,3.51,3.51,0,0,0-2.9-1.19q-2.58,0-3.24,4l-.43,2.7c-.64,3.83-2.45,5.74-5.45,5.74a4.85,4.85,0,0,1-4-2,9.45,9.45,0,0,1,0-10.42,7.1,7.1,0,0,1,4.54-2.48l.43,2.47a5.87,5.87,0,0,0-3.28,1.81,5.39,5.39,0,0,0-1,3.47,5.53,5.53,0,0,0,.87,3.29,2.9,2.9,0,0,0,4.39.38,4.76,4.76,0,0,0,1-2.64l.51-3.11q1-5.94,5.6-5.94a5.62,5.62,0,0,1,4.48,2A8.13,8.13,0,0,1,616.57,775.58Z"/><path class="cls-3" d="M598.48,767.13h-2.29v-3.65h-6.56v-2.73h6.56v-5.37h2.29v5.37h12a3.85,3.85,0,0,0,2.5-.61,2.71,2.71,0,0,0,.7-2.13v-3.16h2.37v3.49a5.11,5.11,0,0,1-1.35,3.8,5.24,5.24,0,0,1-3.85,1.34h-12.4Z"/><path class="cls-3" d="M606.16,753.79a10.91,10.91,0,0,1-7.56-2.55,9.73,9.73,0,0,1,0-13.8,12.31,12.31,0,0,1,15.11,0,9.75,9.75,0,0,1,0,13.8A10.9,10.9,0,0,1,606.16,753.79ZM612,739.43a10.52,10.52,0,0,0-11.77,0,6.54,6.54,0,0,0,0,9.77,10.59,10.59,0,0,0,11.77,0,6.59,6.59,0,0,0,0-9.78Z"/><path class="cls-3" d="M592.64,715.51v2.7h-4.57v-2.7Zm5.84,11.68h17.6v2.72h-17.6v3.78h-2.29v-3.78h-1.64a6.87,6.87,0,0,1-4.79-1.52,5.54,5.54,0,0,1-1.69-4.36v-2.25h2.28v2a3.13,3.13,0,0,0,1,2.6,5.25,5.25,0,0,0,3.28.83h1.52V722h2.29Zm17.6-11.68v2.7H596.19v-2.7Z"/><path class="cls-3" d="M621.08,709.91v2.59l-8.89-2.32V707.4Z"/><path class="cls-3" d="M588.07,701.91V681.18h2.56v8.89h25.45V693H590.63v8.93Z"/><path class="cls-3" d="M616.08,658.66v19.06h-28V659.07h2.56v15.75h9.92V660.67H603v14.15h10.49V658.66Z"/><path class="cls-3" d="M616.08,651v2.9h-28V651h12.48V635.92H588.07V633h28v2.92H603.15V651Z"/><path class="cls-3" d="M608.71,607.49l7.37-.39V610l-7.44.38a3.81,3.81,0,0,0-3.08,1.47,7.85,7.85,0,0,0-1,4.43v7.3h11.49v2.9h-28V616.19a9.6,9.6,0,0,1,2.17-6.62,6.8,6.8,0,0,1,5.49-2.51,8.35,8.35,0,0,1,4.38,1.17,7.69,7.69,0,0,1,3,3.28C604,609,605.82,607.64,608.71,607.49Zm-12.87,2.56a4.76,4.76,0,0,0-3.83,1.7,7,7,0,0,0-1.42,4.63v7.22h11.48v-7.18a6.16,6.16,0,0,0-1.75-4.57A6,6,0,0,0,595.84,610.05Z"/><path class="cls-3" d="M608.52,586V598.5l7.56,2.94v3.07l-28-11v-2.71l28-10.9v3.31ZM606,597.55V587l-13.85,5.17Z"/><path class="cls-3" d="M616.08,573.59v2.79h-28V573l22.81-14.31H588.07V555.9h28v2.59L592,573.59Z"/><path class="cls-3" d="M621.08,550.18v2.59l-8.89-2.32v-2.78Z"/><path class="cls-3" d="M616.08,539.91v2.9h-28v-2.9Z"/><path class="cls-3" d="M608.71,514.4l7.37-.39v2.92l-7.44.39a3.81,3.81,0,0,0-3.08,1.47,7.83,7.83,0,0,0-1,4.43v7.3h11.49v2.9h-28V523.1a9.62,9.62,0,0,1,2.17-6.62,6.82,6.82,0,0,1,5.49-2.51,8.35,8.35,0,0,1,4.38,1.17,7.72,7.72,0,0,1,3,3.29C604,515.9,605.82,514.56,608.71,514.4ZM595.84,517a4.75,4.75,0,0,0-3.83,1.69,7,7,0,0,0-1.42,4.63v7.23h11.48v-7.19a6.17,6.17,0,0,0-1.75-4.57A6,6,0,0,0,595.84,517Z"/><path class="cls-3" d="M608.52,492.94v12.47l7.56,2.94v3.08l-28-11v-2.7l28-10.9v3.3ZM606,504.46V493.89l-13.85,5.18Z"/><path class="cls-3" d="M616.08,480.51v2.78h-28V479.9l22.81-14.31H588.07v-2.78h28v2.59L592,480.51Z"/><path d="M1247.74,764.05h-8.4l-1.8,4.74h-2.69l7.47-19.29H1245l7.38,19.29h-2.89Zm-7.55-2.21h6.73l-3.31-9Z"/><path d="M1256.67,768.79h-2.45V755h2.39v2.5a4.27,4.27,0,0,1,3.94-2.5h1.07v2.32h-1.09a3.26,3.26,0,0,0-2.82,1.51,7,7,0,0,0-1,4.08Z"/><path d="M1263.57,757v-2H1266v-4.44h2.44V755h3.47v2h-3.47v7.71a2.29,2.29,0,0,0,.39,1.52,1.71,1.71,0,0,0,1.32.43h2.1v2.1h-2.47a3.89,3.89,0,0,1-2.82-.95,3.74,3.74,0,0,1-1-2.77v-8Z"/><path d="M1276.59,752.78h-2.45V749.5h2.45Zm0,16h-2.45V755h2.45Z"/><path d="M1284.87,769.12a6.79,6.79,0,0,1-4.25-1.22,4.42,4.42,0,0,1-1.72-3.32l2.45-.37a3.39,3.39,0,0,0,1,2.25,3.76,3.76,0,0,0,2.48.72,3.43,3.43,0,0,0,2.18-.59,2.1,2.1,0,0,0,.74-1.75c0-1.09-.8-1.75-2.42-2l-2-.31a5.45,5.45,0,0,1-3-1.31,3.38,3.38,0,0,1-1.05-2.58,3.51,3.51,0,0,1,1.42-2.88,7,7,0,0,1,7.53,0,4.81,4.81,0,0,1,1.75,3.16l-2.26.32a3.62,3.62,0,0,0-1.11-2,4.18,4.18,0,0,0-4.21-.08,1.66,1.66,0,0,0-.74,1.4,1.61,1.61,0,0,0,.51,1.26,3.1,3.1,0,0,0,1.63.63l2.21.37c2.79.44,4.18,1.76,4.18,3.94a3.93,3.93,0,0,1-1.44,3.19A6,6,0,0,1,1284.87,769.12Z"/><path d="M1290.94,757v-2h2.42v-4.44h2.45V755h3.47v2h-3.47v7.71a2.3,2.3,0,0,0,.38,1.52,1.74,1.74,0,0,0,1.32.43h2.1v2.1h-2.47a3.85,3.85,0,0,1-2.81-.95,3.71,3.71,0,0,1-1-2.77v-8Z"/><path d="M1304,752.78h-2.45V749.5H1304Zm0,16h-2.45V755H1304Z"/><path d="M1313,767a3.57,3.57,0,0,0,2.49-.86,3.84,3.84,0,0,0,1.13-2.45l2.39.29a5.53,5.53,0,0,1-1.9,3.73,6.11,6.11,0,0,1-4.11,1.39,6,6,0,0,1-4.76-1.94,8.79,8.79,0,0,1,0-10.51,6,6,0,0,1,4.73-2,6.31,6.31,0,0,1,4.17,1.32,5.64,5.64,0,0,1,1.92,3.75l-2.5.28q-.49-3.25-3.62-3.26a3.46,3.46,0,0,0-2.9,1.36,6.2,6.2,0,0,0-1,3.82,5.94,5.94,0,0,0,1,3.74A3.49,3.49,0,0,0,1313,767Z"/><path d="M1333.09,766.74h.66v2h-1.33a3.11,3.11,0,0,1-1.82-.52,2,2,0,0,1-.82-1.44,4.81,4.81,0,0,1-4.36,2.29A5.17,5.17,0,0,1,1322,768a3.64,3.64,0,0,1-1.32-2.9,3.85,3.85,0,0,1,1.08-2.82,5.45,5.45,0,0,1,3.08-1.43l4-.69a.92.92,0,0,0,.86-1,2.32,2.32,0,0,0-.8-1.82,3.21,3.21,0,0,0-2.21-.71,3.63,3.63,0,0,0-2.22.62,3.31,3.31,0,0,0-1.13,1.93l-2.33-.26a4.74,4.74,0,0,1,1.88-3.08,6.29,6.29,0,0,1,3.89-1.17,5.56,5.56,0,0,1,3.9,1.31,4.59,4.59,0,0,1,1.42,3.51v6.21a1.08,1.08,0,0,0,.23.8A1.1,1.1,0,0,0,1333.09,766.74Zm-10-1.82a2.07,2.07,0,0,0,.69,1.65,3,3,0,0,0,2,.59,3.68,3.68,0,0,0,2.87-1.26,4.67,4.67,0,0,0,1.12-3.23v-.8l-4.41.77a2.83,2.83,0,0,0-1.66.76A2.12,2.12,0,0,0,1323.06,764.92Z"/><path d="M1337.93,768.79h-2.45V749.5h2.45Z"/><path d="M1343.76,768.79h-2.44V749.5h2.44Z"/><path d="M1350.57,770.08l.45-1.21L1345.6,755h2.59l4.07,10.83,4.12-10.83h2.47l-6,15.32a6,6,0,0,1-1.87,2.79,4.69,4.69,0,0,1-2.84.76h-1.42v-2.07h1.42a2.61,2.61,0,0,0,1.52-.39A2.74,2.74,0,0,0,1350.57,770.08Z"/><path d="M1368.85,768.79h-2.64V749.5h13.53v2.26h-10.89V758h9.78v2.26h-9.78Z"/><path d="M1383.81,768.79h-2.45V755h2.39v2.5a4.29,4.29,0,0,1,4-2.5h1.06v2.32h-1.09a3.25,3.25,0,0,0-2.81,1.51,7,7,0,0,0-1,4.08Z"/><path d="M1389.42,761.9a7.41,7.41,0,0,1,1.81-5.23,6.3,6.3,0,0,1,4.88-2,6.41,6.41,0,0,1,4.9,2,7.32,7.32,0,0,1,1.84,5.23,7.42,7.42,0,0,1-1.84,5.23,6.41,6.41,0,0,1-4.9,2,6.3,6.3,0,0,1-4.88-2A7.43,7.43,0,0,1,1389.42,761.9Zm9.8,3.77a6.85,6.85,0,0,0,0-7.54,3.8,3.8,0,0,0-3.11-1.38,3.75,3.75,0,0,0-3.08,1.38,7,7,0,0,0,0,7.55,3.76,3.76,0,0,0,3.08,1.37A3.8,3.8,0,0,0,1399.22,765.67Z"/><path d="M1416.68,761.19v7.6h-2.45V760.3a3.81,3.81,0,0,0-.79-2.58,2.75,2.75,0,0,0-2.21-.92,3.07,3.07,0,0,0-2.56,1.12,5.2,5.2,0,0,0-.88,3.27v7.6h-2.45V755h2.39v1.68a4.63,4.63,0,0,1,4-2,5.25,5.25,0,0,1,2.63.63,4.21,4.21,0,0,1,1.69,1.85,4.65,4.65,0,0,1,4.44-2.48,4.87,4.87,0,0,1,3.7,1.39,5.24,5.24,0,0,1,1.34,3.78v8.94h-2.45V760.3a3.81,3.81,0,0,0-.79-2.58,2.79,2.79,0,0,0-2.22-.92,3.08,3.08,0,0,0-2.56,1.12A5.2,5.2,0,0,0,1416.68,761.19Z"/><path d="M1437.47,768.79h-2.65V749.5h2.65Z"/><path d="M1443.58,768.79h-2.44V755h2.39v2.5a4.27,4.27,0,0,1,3.94-2.5h1.06v2.32h-1.09a3.26,3.26,0,0,0-2.81,1.51,7,7,0,0,0-1.05,4.08Z"/><path d="M1461.66,766.74h.66v2H1461a3.08,3.08,0,0,1-1.82-.52,2,2,0,0,1-.82-1.44,4.81,4.81,0,0,1-4.36,2.29,5.17,5.17,0,0,1-3.47-1.12,3.64,3.64,0,0,1-1.32-2.9,3.85,3.85,0,0,1,1.08-2.82,5.42,5.42,0,0,1,3.08-1.43l4-.69a.92.92,0,0,0,.86-1,2.29,2.29,0,0,0-.81-1.82,3.17,3.17,0,0,0-2.2-.71,3.63,3.63,0,0,0-2.22.62,3.31,3.31,0,0,0-1.13,1.93l-2.33-.26a4.7,4.7,0,0,1,1.88-3.08,6.27,6.27,0,0,1,3.89-1.17,5.56,5.56,0,0,1,3.9,1.31,4.59,4.59,0,0,1,1.42,3.51v6.21a1.13,1.13,0,0,0,.22.8A1.14,1.14,0,0,0,1461.66,766.74Zm-10-1.82a2.08,2.08,0,0,0,.7,1.65,3,3,0,0,0,2,.59,3.69,3.69,0,0,0,2.88-1.26,4.72,4.72,0,0,0,1.12-3.23v-.8l-4.41.77a2.83,2.83,0,0,0-1.66.76A2.09,2.09,0,0,0,1451.62,764.92Z"/><path d="M1475.89,759.85v8.94h-2.45V760.3a3.67,3.67,0,0,0-.84-2.59,3.12,3.12,0,0,0-2.42-.91,3.37,3.37,0,0,0-2.74,1.12,4.93,4.93,0,0,0-.94,3.27v7.6h-2.45V755h2.39v1.74a4.85,4.85,0,0,1,4.29-2.07,5,5,0,0,1,3.78,1.39A5.14,5.14,0,0,1,1475.89,759.85Z"/><path d="M1245.78,794.5H1235V778.75h10.6v1.84h-8.44v5h7.54v1.8h-7.54v5.26h8.66Z"/><path d="M1253.56,794.77a6.89,6.89,0,0,1-4.52-1.37,4.76,4.76,0,0,1-1.71-3.76l2.12-.27a3.61,3.61,0,0,0,1.14,2.7,4.33,4.33,0,0,0,3,.92,3.62,3.62,0,0,0,2.44-.76,2.55,2.55,0,0,0,.9-2.05,2.1,2.1,0,0,0-.63-1.62,4.77,4.77,0,0,0-2.16-.91l-2.1-.45a6.08,6.08,0,0,1-3.18-1.54,4.18,4.18,0,0,1,.43-5.92,5.67,5.67,0,0,1,3.83-1.26,6.06,6.06,0,0,1,4,1.21,4.76,4.76,0,0,1,1.68,3.36l-2.13.27a3.15,3.15,0,0,0-3.51-3.06,3.61,3.61,0,0,0-2.34.68,2.25,2.25,0,0,0-.83,1.84,2.19,2.19,0,0,0,.61,1.64,3.77,3.77,0,0,0,2,.89l2.45.53a6.07,6.07,0,0,1,3.12,1.47,3.79,3.79,0,0,1,1,2.76,4.31,4.31,0,0,1-1.5,3.37A5.85,5.85,0,0,1,1253.56,794.77Z"/><path d="M1259.7,778.75h12v1.84h-4.9V794.5h-2.14V780.59h-4.92Z"/><path d="M1284.86,782.93a2.47,2.47,0,0,0-.75-1.89,2.76,2.76,0,0,0-2-.71,3.06,3.06,0,0,0-2.55,1.08,4.92,4.92,0,0,0-.8,3.17l-2.07-.28a5.1,5.1,0,0,1,5.42-5.82,5,5,0,0,1,3.58,1.23,4.27,4.27,0,0,1,1.33,3.22,5.75,5.75,0,0,1-.8,2.84,13.83,13.83,0,0,1-2.6,3.06l-4.21,3.87h8v1.8h-10.8v-1.85l5.67-5.19a10.07,10.07,0,0,0,2-2.32A4.52,4.52,0,0,0,1284.86,782.93Z"/><path d="M1289.22,786.62a10.18,10.18,0,0,1,1.55-6,5.06,5.06,0,0,1,4.34-2.18,5,5,0,0,1,4.35,2.18,9.87,9.87,0,0,1,1.57,6,10,10,0,0,1-1.57,6,5.44,5.44,0,0,1-8.69,0A10.12,10.12,0,0,1,1289.22,786.62Zm8.69,4.7a11.74,11.74,0,0,0,0-9.39,3.15,3.15,0,0,0-5.56,0,9.07,9.07,0,0,0-1,4.65,9.27,9.27,0,0,0,1,4.7,3,3,0,0,0,2.78,1.65A3.1,3.1,0,0,0,1297.91,791.32Z"/><path d="M1312.82,794.5h-9.77v-1.8h3.85V782.58a3.44,3.44,0,0,1-1.81.42H1303v-1.77h2a1.84,1.84,0,0,0,1.51-.6,2.94,2.94,0,0,0,.49-1.88H1309v14h3.78Z"/><path d="M1322.8,789.89a2.48,2.48,0,0,0-.81-2,3.4,3.4,0,0,0-2.3-.71h-1.41v-1.63h1.35a2.56,2.56,0,0,0,2-.75,2.92,2.92,0,0,0,.7-2.09,2.26,2.26,0,0,0-.77-1.81,3,3,0,0,0-2.07-.66,3.23,3.23,0,0,0-2.37.87,3.48,3.48,0,0,0-1,2.42l-2-.43a4.3,4.3,0,0,1,1.53-3.35,5.64,5.64,0,0,1,3.8-1.29,5.33,5.33,0,0,1,3.58,1.13,3.73,3.73,0,0,1,1.33,3,4.13,4.13,0,0,1-.58,2.2,3.58,3.58,0,0,1-1.63,1.44,4.11,4.11,0,0,1,2,1.39,3.76,3.76,0,0,1,.69,2.26,4.51,4.51,0,0,1-1.46,3.53,5.59,5.59,0,0,1-3.93,1.33,6.7,6.7,0,0,1-4-1.17,4.27,4.27,0,0,1-1.76-3.22l2.14-.47a3.24,3.24,0,0,0,1.06,2.28,3.71,3.71,0,0,0,2.53.8,3.46,3.46,0,0,0,2.45-.82A2.93,2.93,0,0,0,1322.8,789.89Z"/><rect x="1025.96" y="412" width="6.43" height="77.14"/><rect x="1029.17" y="440.93" width="22.5" height="6.43"/><rect x="1025.59" y="432.3" width="24.41" height="6.42" transform="translate(-3.99 861.39) rotate(-45)"/><rect x="1016.31" y="463.43" width="11.05" height="6.43"/><path d="M1032.38,479.5v-6.43a6.43,6.43,0,0,0,0-12.86v-6.43a12.86,12.86,0,0,1,0,25.72Z"/><path d="M1042,421.64h-6.43a6.43,6.43,0,1,0-12.86,0h-6.43a12.86,12.86,0,1,1,25.72,0Z"/><path d="M1186.46,704.5H1180a38.47,38.47,0,1,0-76.94,0h-6.42a44.9,44.9,0,0,1,89.79,0Z"/><rect x="1053.09" y="547" width="100.01" height="6.43" transform="translate(-66.18 940.53) rotate(-44.97)"/><path d="M1321.67,710.92H1064.53V545.12L1051.67,558v17.95H1026v-90h64.28A61.13,61.13,0,0,1,1151.31,547v16.07H1260.6a61.13,61.13,0,0,1,61.07,61.07ZM1071,704.5h244.29V624.14a54.7,54.7,0,0,0-54.64-54.64H1144.89V547a54.71,54.71,0,0,0-54.65-54.65h-57.86V569.5h12.86V555.31l36.3-36.3,4.54,4.55L1071,538.69Z"/><polygon points="1318.46 691.64 1254.17 691.64 1254.17 566.28 1260.6 566.28 1260.6 685.22 1318.46 685.22 1318.46 691.64"/><path d="M1189.89,653.07a45,45,0,0,1-45-45v-45h90v45A45,45,0,0,1,1189.89,653.07Zm-38.58-83.57v38.57a38.58,38.58,0,0,0,77.15,0V569.5Z"/><path d="M1054.88,514.85H1026V485.93h28.92Zm-22.5-6.42h16.08V492.35h-16.08Z"/><polygon points="952.03 662.71 923.02 662.71 943.52 630.57 926.32 630.57 926.32 624.14 955.25 624.14 934.75 656.28 952.03 656.28 952.03 662.71"/><polygon points="987.39 662.71 961.76 662.71 961.66 624.14 987.39 624.14 987.39 630.57 968.11 630.57 968.17 656.28 987.39 656.28 987.39 662.71"/><rect x="964.89" y="640.22" width="22.5" height="6.43"/><polygon points="1022.74 662.71 997.03 662.71 997.03 624.14 1022.74 624.14 1022.74 630.57 1003.46 630.57 1003.46 656.28 1022.74 656.28 1022.74 662.71"/><rect x="1000.24" y="640.22" width="22.5" height="6.43"/><polygon points="987.39 710.92 961.67 710.92 961.67 672.36 987.39 672.36 987.39 678.78 968.1 678.78 968.1 704.5 987.39 704.5 987.39 710.92"/><rect x="964.89" y="688.43" width="22.5" height="6.43"/><polygon points="1003.46 710.93 997.03 710.93 997.03 672.36 1003.19 672.36 1019.53 698.39 1019.53 672.35 1025.96 672.35 1025.96 710.92 1019.8 710.92 1003.46 684.88 1003.46 710.93"/><path d="M1099.89,817a35.4,35.4,0,0,1-35.36-35.36V749.5H1071v32.14a28.93,28.93,0,1,0,57.86,0V749.5h6.42v32.14A35.39,35.39,0,0,1,1099.89,817Z"/><polygon points="1172.6 816.05 1168.06 811.51 1193.11 786.46 1193.11 768.78 1199.53 768.78 1199.53 789.13 1172.6 816.05"/><rect x="1096.67" y="749.5" width="6.43" height="12.86"/><rect x="1193.1" y="749.5" width="6.43" height="12.86"/><rect x="1128.82" y="823.43" width="6.43" height="12.86"/><rect x="1141.67" y="823.43" width="6.43" height="12.86"/><polygon points="1134.3 782.03 1129.76 777.48 1144.89 762.35 1144.89 749.5 1151.32 749.5 1151.32 765.02 1134.3 782.03"/><polygon points="1134.3 801.32 1129.76 796.77 1157.75 768.78 1157.75 749.5 1164.17 749.5 1164.17 771.45 1134.3 801.32"/><polygon points="1137.91 817 1128.82 817 1128.82 749.5 1135.24 749.5 1135.24 810.57 1170.61 775.21 1170.61 749.5 1177.03 749.5 1177.03 777.88 1137.91 817"/></g></svg>