<?xml version="1.0" encoding="utf-8"?>
<!-- Generator: Adobe Illustrator 25.0.0, SVG Export Plug-In . SVG Version: 6.00 Build 0)  -->
<svg version="1.1" id="Layer_1" xmlns="http://www.w3.org/2000/svg" xmlns:xlink="http://www.w3.org/1999/xlink" x="0px" y="0px"
	 viewBox="0 0 1080 1080" style="enable-background:new 0 0 1080 1080;" xml:space="preserve">
<style type="text/css">
	.st0{fill:#4672E2;}
	.st1{fill:#FFFFFF;}
	.st2{fill:url(#SVGID_1_);}
	.st3{fill:url(#SVGID_2_);}
	.st4{fill:url(#SVGID_3_);}
	.st5{fill:url(#SVGID_4_);}
	.st6{fill:url(#SVGID_5_);}
	.st7{fill:url(#SVGID_6_);}
	.st8{fill:url(#SVGID_7_);}
	.st9{fill:url(#SVGID_8_);}
</style>
<g id="Graphic">
	<path class="st0" d="M456.3,133.9h167.3c5.1,0,9.3,4.2,9.3,9.3l0,0c0,5.1-4.2,9.3-9.3,9.3H456.3c-5.1,0-9.3-4.2-9.3-9.3l0,0
		C447,138,451.2,133.9,456.3,133.9z"/>
	<path class="st1" d="M629.3,277.4l-1.8,0h-1.1c-0.6,0-1.1,0-1.7,0.2c-0.3,0.1-0.5,0.3-0.5,0.4c0,0.1,0.1,0.2,0.2,0.3
		c0.3,0.1,0.6,0.2,0.8,0.2l2.7,0.6c0.5,0.1,0.9,0.3,1.3,0.6c0.3,0.3,0.5,0.7,0.4,1.1c0,0.7-0.3,1.5-0.8,2c-0.6,0.6-1.3,1.2-2.2,1.5
		c-0.9,0.5-1.9,0.8-2.9,1c-1,0.2-2.1,0.3-3.2,0.4c-1,0-2-0.1-2.9-0.5c-0.8-0.3-1.6-0.7-2.2-1.3c-0.6-0.6-1.1-1.3-1.4-2.1
		c-0.4-0.9-0.5-1.8-0.5-2.8c0-0.9,0.1-1.9,0.4-2.8c0.3-0.9,0.7-1.7,1.2-2.5l1.4,0.7c-0.4,0.7-0.7,1.4-0.9,2.1
		c-0.2,0.6-0.3,1.3-0.3,2c-0.1,1.3,0.5,2.7,1.5,3.6c1.2,0.9,2.6,1.4,4.1,1.3c0.9,0,1.8-0.1,2.8-0.3c0.7-0.1,1.4-0.4,2.1-0.6
		c0.5-0.2,1-0.4,1.5-0.7c0.3-0.2,0.5-0.4,0.7-0.6c-0.1-0.1-0.2-0.2-0.3-0.2c-0.2-0.1-0.4-0.2-0.7-0.2l-2.5-0.6
		c-0.5-0.1-1-0.3-1.5-0.6c-0.4-0.3-0.6-0.8-0.5-1.3c0-0.9,0.4-1.8,1.2-2.3c1.2-0.7,2.5-1,3.9-0.9h2.2v2.3L629.3,277.4z"/>
	<path class="st1" d="M643.1,259.6c-1,0.4-2,0.9-3,1.4s-2,1-2.9,1.5s-1.7,0.9-2.5,1.4s-1.4,0.8-1.9,1.2c1.4,1.2,2.7,2.6,3.8,4
		c0.8,1,1.2,2.3,1.2,3.6c0,0.7-0.1,1.4-0.4,2c-0.3,0.6-0.7,1.1-1.2,1.5c-0.6,0.5-1.2,0.8-1.9,1c-0.8,0.2-1.6,0.3-2.4,0.3h-2.3
		c-0.2,0-0.4-0.1-0.5-0.3c-0.1-0.3-0.2-0.5-0.2-0.8c0-0.3,0.1-0.6,0.2-0.8c0.1-0.2,0.3-0.3,0.5-0.3h2.4c1,0.1,2.1-0.2,3-0.7
		c0.6-0.3,1-0.9,1.2-1.5c0-0.5-0.2-0.9-0.4-1.4c-0.3-0.5-0.6-1-1-1.5c-0.5-0.6-1.1-1.2-1.6-1.8c-0.7-0.7-1.4-1.4-2.3-2.2
		c0-0.6,0.1-1.2,0.3-1.8c0.1-0.3,0.2-0.5,0.4-0.7c0.6-0.4,1.3-0.9,2.2-1.4s1.8-1,2.8-1.6s2.1-1.1,3.3-1.7s2.3-1.2,3.5-1.7
		L643.1,259.6z M640.5,257c-1.3,0.7-2.8,1.4-4.3,2.2c-1.5,0.8-3.1,1.8-4.7,2.8l0.2-1.5c1.5-1,3.1-2,4.7-2.9s3.1-1.7,4.4-2.3
		L640.5,257z"/>
	<path class="st1" d="M651.4,273.1c0,0.8-0.2,1.6-0.5,2.3c-0.3,0.6-0.8,1.1-1.4,1.4c-0.6,0.4-1.3,0.6-2,0.7
		c-0.8,0.1-1.6,0.2-2.4,0.2c-0.8,0-1.7-0.1-2.5-0.3c-0.7-0.2-1.4-0.7-1.9-1.3l1-1.7c0.5,0.4,1,0.6,1.5,0.8c0.6,0.1,1.3,0.2,1.9,0.2
		c1.1,0.1,2.3-0.1,3.3-0.6c0.8-0.4,1.1-0.9,1.1-1.4c0-0.3-0.1-0.7-0.2-1c-0.2-0.5-0.5-1-0.8-1.4c-0.4-0.6-0.9-1.2-1.5-1.7
		c-0.7-0.7-1.5-1.3-2.3-1.8l0.9-2.2c0.7,0.5,1.4,1,2.1,1.5c0.7,0.6,1.3,1.2,1.8,1.9c0.5,0.7,0.9,1.4,1.3,2.1
		C651.2,271.6,651.4,272.3,651.4,273.1z"/>
	<path class="st1" d="M657,277.1l-1.9,0.5v-20.4l1.9-0.9V277.1z"/>
	<path class="st1" d="M668.9,277.4c-0.2,0.8-0.5,1.6-1,2.3c-0.5,0.8-1.1,1.5-1.7,2.1c-0.7,0.7-1.5,1.4-2.3,2
		c-0.8,0.6-1.8,1.3-2.8,1.9l-1.5-1.5c1.8-1.2,3.6-2.5,5.2-3.9c1.1-0.9,1.9-2,2.5-3.2c-0.5,0.2-1.1,0.3-1.6,0.3
		c-0.5,0-0.9,0.1-1.3,0.1c-0.8,0-1.6-0.3-2.3-0.8c-0.6-0.6-1-1.5-0.9-2.4c0-0.6,0.1-1.3,0.3-1.9c0.2-0.6,0.4-1.2,0.8-1.7
		c0.3-0.5,0.7-0.9,1.2-1.3c0.4-0.3,1-0.5,1.5-0.5c0.6,0,1.2,0.2,1.7,0.5c0.5,0.4,0.9,0.8,1.3,1.4c0.4,0.6,0.6,1.2,0.8,1.9
		c0.2,0.7,0.3,1.5,0.3,2.2h2.3v2.3L668.9,277.4z M667.4,275.1c-0.1-0.5-0.2-1-0.3-1.5c-0.1-0.4-0.3-0.8-0.5-1.2
		c-0.2-0.3-0.4-0.6-0.8-0.8c-0.3-0.2-0.6-0.3-1-0.3c-0.3,0-0.5,0.1-0.8,0.2c-0.2,0.2-0.5,0.4-0.6,0.6c-0.2,0.3-0.3,0.5-0.4,0.8
		c-0.1,0.3-0.1,0.6-0.2,0.9c0,0.4,0.2,0.9,0.5,1.2c0.4,0.3,0.9,0.4,1.4,0.4c0.5,0,0.9,0,1.3-0.1C666.5,275.3,667,275.3,667.4,275.1z
		"/>
	<path class="st1" d="M675.3,273.8c-0.1-0.4-0.2-0.9-0.4-1.3c-0.3-0.8-0.7-1.5-1.2-2.1l1.5-1.6c0.6,0.7,1.1,1.6,1.4,2.5
		c0.3,0.7,0.4,1.5,0.5,2.3c0.1,1.1-0.4,2.2-1.2,2.9c-1,0.7-2.3,1.1-3.6,1h-0.9c-0.2,0-0.4-0.1-0.5-0.3c-0.2-0.3-0.2-0.5-0.2-0.8
		c0-0.3,0.1-0.6,0.2-0.8c0.1-0.2,0.3-0.3,0.5-0.3h1c0.7,0,1.4-0.1,2-0.3C675,274.6,675.3,274.3,675.3,273.8z M675.2,266.4l-1.8-1.6
		l1.4-1.6l1.8,1.5L675.2,266.4z"/>
	<path class="st1" d="M685.2,277.4c-0.8,0-1.6-0.1-2.2-0.5c-0.5-0.3-0.9-0.8-1.2-1.3c-0.3-0.6-0.4-1.2-0.5-1.9
		c0-0.7-0.1-1.4-0.1-2.1c0-1-0.1-2.1-0.1-3.3s0-2.4-0.1-3.7s-0.1-2.5-0.1-3.8s-0.1-2.5-0.2-3.6l1.9-0.9c0.1,1.6,0.1,3.1,0.1,4.4
		c0,1.3,0,2.5,0,3.6s0,2.2,0,3.2s0,2.1,0.1,3.2c0,0.6,0,1.2,0.1,1.7c0,0.5,0.1,0.9,0.3,1.4c0.1,0.4,0.4,0.7,0.7,0.9
		c0.4,0.3,0.9,0.4,1.4,0.4h1v2.3L685.2,277.4z"/>
	<path class="st1" d="M702.1,272.5c-0.8,0-1.6,0.2-2.4,0.4c-0.7,0.2-1.3,0.5-1.9,0.8c-0.9,0.5-1.7,1-2.4,1.4
		c-0.7,0.4-1.4,0.8-2.1,1.2c-0.7,0.3-1.5,0.6-2.3,0.8c-0.9,0.2-1.8,0.3-2.8,0.3h-1.8c-0.2,0-0.4-0.1-0.5-0.3
		c-0.1-0.3-0.2-0.5-0.2-0.8c0-0.3,0.1-0.6,0.2-0.8c0.1-0.2,0.3-0.3,0.5-0.3h1.9c0.9,0,1.8-0.1,2.7-0.2c0.7-0.2,1.4-0.4,2-0.7
		c0.6-0.3,1.3-0.6,2.1-1.1s1.7-0.9,2.9-1.5c-0.7-0.2-1.3-0.5-2-0.7l-1.7-0.7l-1.3-0.6c-0.3-0.1-0.6-0.2-0.9-0.2
		c-0.4,0-0.7,0.2-1,0.4c-0.6,0.4-1.1,0.9-1.5,1.5l-1.3-0.8c0.2-0.4,0.5-0.8,0.8-1.2c0.3-0.4,0.6-0.8,1-1.1c0.3-0.3,0.6-0.6,1-0.8
		c0.3-0.2,0.6-0.3,1-0.3c0.6,0,1.2,0.2,1.8,0.5l2.3,1.1c0.9,0.4,1.8,0.8,2.7,1.1c1,0.3,2,0.5,3,0.5h0.6L702.1,272.5z M692.5,264.5
		l-1.8-1.6l1.4-1.6l1.8,1.5L692.5,264.5z"/>
	<path class="st1" d="M716.3,273.5c0,0.3-0.1,0.6-0.2,1c-0.1,0.3-0.3,0.6-0.5,0.9c-0.2,0.3-0.5,0.5-0.8,0.7c-0.3,0.2-0.6,0.3-1,0.3
		h-3.9c-0.9,0-1.4,0.2-1.7,0.6c-0.3,0.6-0.4,1.3-0.4,2v10.9h-1.7c0-2.1-0.1-3.9-0.1-5.2s0-2.4,0-3.2s0-1.4,0-1.7v-0.7
		c-0.1-1.1,0.1-2.2,0.6-3.2c0.4-0.7,1-1.2,1.7-1.5c0-0.6,0.1-1.3,0.2-1.9c0.1-0.6,0.3-1.3,0.5-1.9c0.2-0.5,0.6-1,1-1.4
		c0.4-0.4,1-0.6,1.6-0.5c0.6,0,1.1,0.2,1.7,0.4c0.6,0.3,1.1,0.7,1.5,1.1c0.4,0.5,0.8,1,1.1,1.6C716.1,272.2,716.3,272.9,716.3,273.5
		z M714.7,273.5c0-0.4-0.1-0.7-0.3-1c-0.2-0.4-0.5-0.7-0.8-1c-0.3-0.3-0.6-0.5-1-0.7c-0.3-0.2-0.7-0.3-1.1-0.3c-0.5,0-1,0.3-1.2,1
		c-0.3,0.8-0.5,1.7-0.5,2.5c0.2,0,0.5,0,0.9,0h3.1c0.2,0,0.4-0.1,0.5-0.2C714.5,273.8,714.6,273.7,714.7,273.5z"/>
	<path class="st1" d="M724.4,277.4c-0.8,0-1.6-0.1-2.2-0.5c-0.5-0.3-0.9-0.8-1.2-1.3c-0.3-0.6-0.4-1.2-0.5-1.9
		c0-0.7-0.1-1.4-0.1-2.1c0-1-0.1-2.1-0.1-3.3s0-2.4-0.1-3.7s-0.1-2.5-0.1-3.8s-0.1-2.5-0.2-3.6l1.9-0.9c0.1,1.6,0.1,3.1,0.1,4.4
		c0,1.3,0,2.5,0,3.6s0,2.2,0,3.2s0,2.1,0.1,3.2c0,0.6,0,1.2,0.1,1.7c0,0.5,0.1,0.9,0.3,1.4c0.1,0.4,0.4,0.7,0.7,0.9
		c0.4,0.3,0.9,0.4,1.4,0.4h1v2.3L724.4,277.4z"/>
	<path class="st1" d="M729.4,273.8c-0.1-0.4-0.2-0.9-0.4-1.3c-0.3-0.8-0.7-1.5-1.2-2.1l1.5-1.6c0.6,0.7,1.1,1.6,1.4,2.5
		c0.3,0.7,0.4,1.5,0.5,2.3c0.1,1.1-0.4,2.2-1.2,2.9c-1,0.7-2.3,1.1-3.6,1h-0.9c-0.2,0-0.4-0.1-0.5-0.3c-0.1-0.3-0.2-0.5-0.2-0.8
		c0-0.3,0.1-0.6,0.2-0.8c0.1-0.2,0.3-0.3,0.5-0.3h1c0.7,0,1.4-0.1,2-0.3C729.1,274.6,729.4,274.3,729.4,273.8z M729.3,266.4
		l-1.8-1.6l1.4-1.6l1.8,1.5L729.3,266.4z"/>
	<path class="st1" d="M747.7,274c0,1-0.2,2.1-0.6,3c-0.4,0.9-1,1.8-1.7,2.6c-0.8,0.9-1.6,1.7-2.5,2.4c-1,0.8-2.1,1.5-3.2,2.3
		l-1.5-1.5c1.9-1.2,3.8-2.6,5.5-4.1c1.1-0.9,1.9-2,2.3-3.4c-0.5,0.3-1,0.5-1.6,0.6c-0.5,0.1-0.9,0.1-1.4,0.1c-0.8,0-1.6-0.3-2.3-0.8
		c-0.6-0.6-1-1.5-0.9-2.4c0-0.6,0.1-1.3,0.3-1.9c0.2-0.6,0.4-1.2,0.8-1.7c0.3-0.5,0.7-0.9,1.2-1.3c0.4-0.3,1-0.5,1.5-0.5
		c0.6,0,1.2,0.2,1.8,0.6c0.5,0.4,1,0.9,1.3,1.5c0.4,0.6,0.6,1.3,0.8,2.1C747.6,272.4,747.7,273.2,747.7,274z M745.8,273.3
		c-0.1-0.4-0.2-0.9-0.3-1.3c-0.1-0.4-0.3-0.8-0.5-1.1c-0.2-0.3-0.4-0.6-0.7-0.8c-0.3-0.2-0.6-0.3-1-0.3c-0.3,0-0.5,0.1-0.8,0.2
		c-0.2,0.2-0.5,0.4-0.6,0.6c-0.4,0.5-0.6,1.1-0.6,1.7c0,0.4,0.2,0.9,0.5,1.2c0.4,0.3,0.9,0.4,1.4,0.4c0.5,0,0.9-0.1,1.4-0.2
		C745.1,273.7,745.5,273.5,745.8,273.3L745.8,273.3z"/>
	<path class="st1" d="M766,273.5c0,0.3-0.1,0.6-0.2,1c-0.1,0.3-0.3,0.6-0.5,0.9c-0.2,0.3-0.5,0.5-0.8,0.7c-0.3,0.2-0.6,0.3-1,0.3
		h-3.9c-0.9,0-1.4,0.2-1.7,0.6c-0.3,0.6-0.4,1.3-0.4,2v10.9h-1.7c0-2.1-0.1-3.9-0.1-5.2s0-2.4,0-3.2s0-1.4,0-1.7v-0.7
		c-0.1-1.1,0.1-2.2,0.6-3.2c0.4-0.7,1-1.2,1.7-1.5c0-0.6,0.1-1.3,0.2-1.9c0.1-0.6,0.3-1.3,0.6-1.9c0.2-0.5,0.6-1,1-1.4
		c0.4-0.4,1-0.6,1.6-0.5c0.6,0,1.1,0.2,1.6,0.4c0.6,0.3,1.1,0.7,1.5,1.1c0.4,0.5,0.8,1,1.1,1.6C765.9,272.2,766,272.9,766,273.5z
		 M764.4,273.5c0-0.4-0.1-0.7-0.3-1c-0.2-0.3-0.5-0.7-0.8-1c-0.3-0.3-0.6-0.5-1-0.7c-0.3-0.2-0.6-0.3-1-0.3c-0.5,0-1,0.3-1.2,1
		c-0.3,0.8-0.5,1.7-0.5,2.5c0.2,0,0.6,0,0.9,0h3.1c0.2,0,0.4-0.1,0.5-0.2C764.3,273.8,764.3,273.7,764.4,273.5z"/>
	<path class="st1" d="M774.1,277.4c-0.8,0-1.6-0.1-2.2-0.5c-0.5-0.3-0.9-0.8-1.2-1.3c-0.3-0.6-0.4-1.2-0.5-1.9
		c0-0.7-0.1-1.4-0.1-2.1c0-1-0.1-2.1-0.1-3.3s0-2.4-0.1-3.7s-0.1-2.5-0.1-3.8s-0.1-2.5-0.2-3.6l1.9-0.9c0.1,1.6,0.1,3.1,0.1,4.4
		c0,1.3,0,2.5,0,3.6s0,2.2,0,3.2s0,2.1,0.1,3.2c0,0.6,0,1.2,0.1,1.7c0,0.5,0.1,0.9,0.3,1.4c0.1,0.4,0.4,0.7,0.7,0.9
		c0.4,0.3,0.9,0.4,1.3,0.4h1v2.3L774.1,277.4z"/>
	<path class="st1" d="M779.1,273.8c-0.1-0.4-0.2-0.9-0.4-1.3c-0.3-0.8-0.7-1.5-1.2-2.1l1.5-1.6c0.6,0.7,1.1,1.6,1.4,2.5
		c0.3,0.7,0.4,1.5,0.5,2.3c0.1,1.1-0.4,2.2-1.2,2.9c-1,0.7-2.3,1.1-3.6,1h-0.9c-0.2,0-0.4-0.1-0.5-0.3c-0.1-0.3-0.2-0.5-0.2-0.8
		c0-0.3,0.1-0.6,0.2-0.8c0.1-0.2,0.3-0.3,0.5-0.3h1c0.7,0,1.4-0.1,2-0.3C778.8,274.6,779.1,274.3,779.1,273.8z M779,266.4l-1.8-1.6
		l1.4-1.6l1.8,1.5L779,266.4z"/>
	<path class="st1" d="M395.6,330.3h-4v-29.1H412v3.4h-16.4v9.5h14.8v3.4h-14.8V330.3z"/>
	<path class="st1" d="M429.2,309.5h3.7v20.8h-3.6v-2.5c-1.4,2-3.8,3.2-6.2,3c-2.1,0.1-4.1-0.7-5.6-2.1c-1.4-1.6-2.1-3.6-2-5.7v-13.4
		h3.7v12.8c-0.1,1.4,0.3,2.8,1.2,3.9c0.9,0.9,2.2,1.4,3.5,1.4c1.5,0.1,3-0.5,4-1.7c1-1.4,1.5-3.2,1.4-4.9L429.2,309.5z"/>
	<path class="st1" d="M442.7,330.3H439v-29.1h3.7V330.3z"/>
	<path class="st1" d="M452.5,330.3h-3.7v-29.1h3.7V330.3z"/>
	<path class="st1" d="M472.6,330.3h-3.8v-29.1h4.5l13.9,22.1v-22.1h3.8v29.1h-3.5l-14.9-23.6L472.6,330.3z"/>
	<path class="st1" d="M514.8,327.2h1v3.1h-2c-1,0-1.9-0.2-2.7-0.8c-0.7-0.5-1.2-1.3-1.2-2.2c-1.4,2.3-3.9,3.6-6.6,3.5
		c-1.9,0.1-3.8-0.5-5.2-1.7c-1.3-1.1-2-2.7-2-4.4c-0.1-1.6,0.5-3.1,1.6-4.2c1.3-1.2,2.9-2,4.6-2.2l6.1-1c0.8-0.1,1.3-0.7,1.3-1.5
		c0-1.1-0.4-2.1-1.2-2.8c-0.9-0.8-2.1-1.1-3.3-1.1c-1.2-0.1-2.4,0.3-3.3,1c-0.9,0.7-1.5,1.8-1.7,2.9l-3.5-0.4
		c0.3-1.9,1.3-3.5,2.8-4.6c1.7-1.2,3.8-1.8,5.9-1.8c2.1-0.1,4.2,0.6,5.9,2c1.4,1.4,2.2,3.3,2.1,5.3v9.4c0,0.4,0.1,0.9,0.3,1.2
		C514,327.2,514.4,327.3,514.8,327.2z M499.7,324.5c-0.1,0.9,0.3,1.8,1,2.5c0.8,0.6,1.9,1,2.9,0.9c1.6,0.1,3.2-0.6,4.3-1.8
		c1.2-1.4,1.8-3.1,1.7-4.9v-1.2l-6.6,1.1c-0.9,0.1-1.8,0.5-2.5,1.1C500,322.8,499.7,323.6,499.7,324.5L499.7,324.5z"/>
	<path class="st1" d="M536.6,318.8v11.5h-3.7v-12.8c0.1-1.4-0.3-2.8-1.2-3.9c-0.8-0.9-2.1-1.5-3.3-1.4c-1.5-0.1-2.9,0.5-3.9,1.7
		c-1,1.4-1.4,3.2-1.3,4.9v11.5h-3.7v-20.8h3.6v2.5c1.4-2,3.7-3.1,6.1-3c1.4,0,2.8,0.3,4,1c1.1,0.6,2,1.6,2.5,2.8
		c1.3-2.5,3.9-4,6.7-3.8c2.1-0.1,4.1,0.6,5.6,2.1c1.4,1.6,2.1,3.6,2,5.7v13.5h-3.7v-12.8c0.1-1.4-0.3-2.8-1.2-3.9
		c-0.8-0.9-2.1-1.4-3.3-1.4c-1.5-0.1-2.9,0.5-3.9,1.7C536.9,315.4,536.5,317.1,536.6,318.8z"/>
	<path class="st1" d="M564.6,327.8c2.6,0.2,4.9-1.6,5.3-4.2l3.4,0.7c-0.3,1.9-1.4,3.6-2.9,4.8c-1.7,1.2-3.7,1.8-5.8,1.8
		c-3.2,0-5.7-0.9-7.5-2.8s-2.6-4.6-2.6-8.1c-0.1-2.9,0.8-5.7,2.7-7.9c1.9-2,4.5-3.1,7.3-3c2.5-0.1,5,0.8,6.7,2.7
		c1.7,2,2.6,4.6,2.4,7.3v1.8h-15.4C558.5,325.5,560.6,327.8,564.6,327.8z M564.5,312c-1.5-0.1-3,0.5-4.2,1.5
		c-1.1,1.3-1.8,2.8-1.9,4.5h11.5C569.7,314,567.8,312,564.5,312z"/>
	<path class="st1" d="M601.3,330.8c-3.9,0.2-7.6-1.4-10.3-4.2c-2.6-3-4-6.8-3.9-10.8c0-4.6,1.3-8.2,3.9-11c2.7-2.8,6.5-4.3,10.4-4.2
		c3-0.1,5.9,0.7,8.4,2.4c2.3,1.7,3.9,4.1,4.5,6.9l-4,0.7c-0.5-2-1.6-3.7-3.2-4.9c-4.2-2.6-9.7-2-13.2,1.5c-1.8,2.1-2.7,4.9-2.7,8.6
		c-0.1,3,0.9,6,2.9,8.4c1.9,2.1,4.6,3.3,7.5,3.2c2.5,0.1,4.9-0.7,6.8-2.2c1.7-1.3,2.7-3.4,2.7-5.5V318h-9.1v-3.3h12.8v15.6H611v-4
		c-1.1,1.4-2.5,2.6-4.2,3.3C605.1,330.4,603.2,330.8,601.3,330.8z"/>
	<path class="st1" d="M619,319.9c-0.1-2.9,0.8-5.7,2.7-7.9c1.9-2,4.6-3.1,7.4-3c2.8-0.1,5.5,1,7.4,3c3.7,4.6,3.7,11.2,0,15.8
		c-1.9,2-4.6,3.1-7.4,3c-2.8,0.1-5.5-1-7.4-3C619.8,325.6,618.9,322.8,619,319.9z M633.8,325.6c2.3-3.5,2.3-7.9,0-11.4
		c-1.1-1.4-2.9-2.2-4.7-2.1c-1.8-0.1-3.5,0.7-4.7,2.1c-2.2,3.5-2.2,7.9,0,11.4c2.3,2.6,6.3,2.8,8.9,0.5
		C633.5,325.9,633.6,325.8,633.8,325.6L633.8,325.6z"/>
	<path class="st1" d="M652.8,327.8c2.6,0.2,4.9-1.6,5.3-4.2l3.4,0.7c-0.3,1.9-1.4,3.6-2.9,4.8c-1.7,1.2-3.7,1.8-5.8,1.8
		c-3.2,0-5.7-0.9-7.5-2.8s-2.6-4.6-2.6-8.1c-0.1-2.9,0.8-5.7,2.7-7.9c1.9-2,4.5-3.1,7.3-3c2.5-0.1,5,0.8,6.7,2.7
		c1.7,2,2.6,4.6,2.4,7.3v1.8h-15.4C646.7,325.5,648.8,327.8,652.8,327.8z M652.6,312c-1.5-0.1-3,0.5-4.2,1.5
		c-1.1,1.3-1.8,2.8-1.9,4.5H658C657.8,314,656,312,652.6,312z"/>
	<path class="st1" d="M674.1,330.8c-2.3,0.1-4.5-0.5-6.4-1.8c-1.6-1.2-2.5-3-2.6-5l3.7-0.5c0.1,1.3,0.6,2.5,1.6,3.4
		c1.1,0.8,2.4,1.2,3.8,1.1c1.2,0.1,2.3-0.2,3.3-0.9c0.8-0.6,1.2-1.6,1.1-2.6c0-1.7-1.2-2.7-3.7-3l-3-0.5c-1.7-0.2-3.3-0.9-4.6-2
		c-1.1-1-1.6-2.4-1.6-3.9c0-1.7,0.8-3.3,2.1-4.3c1.6-1.2,3.6-1.8,5.7-1.7c2-0.1,4,0.5,5.7,1.6c1.5,1.2,2.4,2.9,2.6,4.8l-3.4,0.5
		c-0.2-1.2-0.8-2.3-1.7-3c-1.9-1.2-4.4-1.2-6.3-0.1c-0.7,0.5-1.1,1.3-1.1,2.1c0,0.7,0.2,1.4,0.8,1.9c0.7,0.5,1.6,0.9,2.5,1l3.3,0.5
		c4.2,0.7,6.3,2.6,6.3,5.9c0.1,1.9-0.7,3.7-2.2,4.8C678.3,330.3,676.2,330.9,674.1,330.8z"/>
	<path class="st1" d="M701,330.3h-4v-29.1h4v12.6h14.6v-12.6h3.9v29.1h-3.9v-13.1H701V330.3z"/>
	<path class="st1" d="M734.8,327.8c2.6,0.2,4.9-1.6,5.3-4.2l3.4,0.7c-0.3,1.9-1.4,3.6-2.9,4.8c-1.7,1.2-3.7,1.8-5.8,1.8
		c-3.2,0-5.7-0.9-7.5-2.8c-1.7-1.9-2.6-4.6-2.6-8.1c-0.1-2.9,0.8-5.7,2.7-7.9c1.9-2,4.5-3.1,7.3-3c2.5-0.1,5,0.8,6.7,2.7
		c1.7,2,2.6,4.6,2.4,7.3v1.8h-15.4C728.6,325.5,730.7,327.8,734.8,327.8z M734.6,312c-1.5-0.1-3,0.5-4.2,1.5
		c-1.1,1.3-1.8,2.8-1.9,4.5H740C739.8,314,738,312,734.6,312z"/>
	<path class="st1" d="M752.3,330.3h-3.7v-20.8h3.6v3.8c1.1-2.3,3.4-3.8,5.9-3.8h1.6v3.5h-1.7c-1.7,0-3.3,0.8-4.2,2.3
		c-1.1,1.8-1.7,4-1.6,6.1L752.3,330.3z"/>
	<path class="st1" d="M771.9,327.8c2.6,0.2,4.9-1.6,5.3-4.2l3.4,0.7c-0.3,1.9-1.4,3.6-2.9,4.8c-1.7,1.2-3.7,1.8-5.8,1.8
		c-3.2,0-5.7-0.9-7.5-2.8c-1.7-1.9-2.6-4.6-2.6-8.1c-0.1-2.9,0.8-5.7,2.7-7.9c1.9-2,4.5-3.1,7.3-3c2.5-0.1,5,0.8,6.7,2.7
		c1.7,2,2.6,4.6,2.5,7.3v1.8h-15.4C765.8,325.5,767.9,327.8,771.9,327.8z M771.7,312c-1.5-0.1-3,0.5-4.2,1.5
		c-1.1,1.2-1.8,2.8-1.9,4.5h11.5C776.9,314,775.1,312,771.7,312z"/>
	<path class="st1" d="M494.8,403.7c-0.3-0.2-0.7-0.3-1-0.4c-0.3-0.1-0.6-0.1-1-0.1c-0.6,0-1.2,0.2-1.8,0.4c-0.6,0.3-1.1,0.6-1.6,1.1
		c-0.5,0.4-0.8,0.9-1.2,1.4c-0.3,0.4-0.4,0.8-0.5,1.3c0,0.3,0.2,0.5,0.4,0.6c0.4,0.2,0.9,0.3,1.3,0.4c0.6,0.1,1.1,0.2,1.6,0.3
		l1.4,0.2c0.6,0.1,1.3,0.3,1.8,0.8c0.4,0.4,0.5,1,0.5,1.5c0,0.8-0.3,1.6-0.9,2.1c-0.7,0.8-1.5,1.4-2.3,1.9c-1,0.6-2.1,1-3.3,1.4
		c-1.2,0.3-2.5,0.5-3.7,0.5c-1,0-2-0.1-2.9-0.5c-0.8-0.3-1.6-0.7-2.2-1.3c-0.6-0.6-1.1-1.3-1.4-2.1c-0.4-0.9-0.5-1.8-0.5-2.8
		c0-0.9,0.1-1.9,0.4-2.8c0.3-0.9,0.7-1.7,1.2-2.5l1.4,0.7c-0.4,0.7-0.7,1.4-0.9,2.1c-0.2,0.6-0.3,1.3-0.3,2
		c-0.1,1.3,0.5,2.7,1.5,3.6c1.2,0.9,2.6,1.4,4.1,1.3c1,0,2.1-0.1,3.1-0.4c0.9-0.2,1.7-0.5,2.5-0.9c0.6-0.3,1.2-0.7,1.8-1.1
		c0.3-0.2,0.6-0.5,0.8-0.9c0-0.2-0.1-0.3-0.3-0.4c-0.3-0.1-0.7-0.2-1-0.3l-2.7-0.4c-0.4-0.1-0.7-0.1-1.1-0.2
		c-0.3-0.1-0.6-0.2-0.9-0.4c-0.2-0.2-0.4-0.5-0.5-0.7c-0.1-0.4-0.2-0.8-0.2-1.2c0-0.8,0.2-1.7,0.6-2.4c0.8-1.7,2.2-3,3.8-3.9
		c0.7-0.4,1.6-0.6,2.4-0.6c0.4,0,0.8,0.1,1.2,0.2c0.4,0.2,0.8,0.4,1.2,0.6L494.8,403.7z"/>
	<path class="st1" d="M503.9,409.2c0,0.9-0.2,1.8-0.6,2.6c-0.4,0.9-1,1.7-1.7,2.4c-0.8,0.8-1.6,1.6-2.5,2.3c-1,0.7-2,1.5-3.1,2.2
		l-1.5-1.5c1.1-0.7,2.2-1.4,3.2-2.2c0.8-0.6,1.6-1.3,2.4-2.1c0.6-0.5,1.1-1.2,1.5-1.8c0.5-0.7,0.7-1.6,0.4-2.4
		c-0.1-0.4-0.2-0.7-0.4-1.1c-0.2-0.4-0.4-0.8-0.6-1.2s-0.5-0.8-0.7-1.2l1.5-1.5c0.7,0.9,1.2,1.9,1.6,3
		C503.7,407.5,503.8,408.4,503.9,409.2z"/>
	<path class="st1" d="M512,411.9c-0.8,0-1.6-0.1-2.2-0.5c-0.5-0.3-0.9-0.8-1.2-1.3c-0.3-0.6-0.4-1.2-0.5-1.9c0-0.7-0.1-1.4-0.1-2.1
		c0-1-0.1-2.1-0.1-3.3s0-2.4-0.1-3.7s-0.1-2.5-0.1-3.8s-0.1-2.5-0.2-3.6l1.9-0.9c0.1,1.6,0.1,3.1,0.1,4.4c0,1.3,0,2.5,0,3.6
		s0,2.2,0,3.2s0,2.1,0.1,3.2c0,0.6,0,1.2,0.1,1.7c0,0.5,0.1,0.9,0.3,1.4c0.1,0.4,0.4,0.7,0.7,0.9c0.4,0.3,0.9,0.4,1.4,0.4h1v2.3
		L512,411.9z"/>
	<path class="st1" d="M521.3,407c0,1.4-0.6,2.7-1.7,3.5c-0.6,0.5-1.2,0.8-1.9,1c-0.8,0.2-1.6,0.3-2.4,0.3h-2.3
		c-0.2,0-0.4-0.1-0.5-0.3c-0.1-0.3-0.2-0.6-0.2-0.9c0-0.3,0.1-0.6,0.2-0.8c0.1-0.2,0.3-0.3,0.5-0.3h2.5c1,0.1,2.1-0.2,3-0.7
		c0.6-0.3,1-0.9,1.1-1.5c0-0.5-0.2-1-0.4-1.4c-0.3-0.6-0.6-1.1-1-1.5c-0.5-0.6-1.1-1.2-1.7-1.8c-0.7-0.6-1.5-1.3-2.4-2.1
		c0-0.6,0.1-1.2,0.2-1.8c0.1-0.3,0.2-0.5,0.4-0.7c0.5-0.3,1.1-0.7,1.8-1.1s1.5-0.9,2.2-1.3s1.6-0.9,2.4-1.3l2.3-1.3l-0.3,2.5
		c-1.5,0.7-2.8,1.4-4.1,2.1c-1.3,0.7-2.3,1.3-3.2,1.9c1.5,1.2,2.8,2.6,4,4.1C520.9,404.5,521.3,405.7,521.3,407z"/>
	<path class="st1" d="M543.2,402.4c0.7,0.9,1.2,2,1.5,3c0.3,1,0.5,2.1,0.5,3.1c0,1.2-0.2,2.3-0.6,3.4c-0.4,1-0.9,1.9-1.7,2.6
		c-0.8,0.8-1.7,1.3-2.7,1.7c-1.1,0.4-2.4,0.6-3.6,0.6c-1,0-1.9-0.1-2.8-0.5c-0.8-0.3-1.6-0.7-2.2-1.3c-0.6-0.6-1.1-1.3-1.4-2.1
		c-0.4-0.9-0.5-1.9-0.5-2.8c0-0.9,0.1-1.8,0.4-2.7c0.3-0.9,0.7-1.8,1.2-2.6l1.4,0.7c-0.4,0.6-0.7,1.3-0.9,2.1
		c-0.2,0.6-0.3,1.3-0.3,2c-0.1,1.3,0.5,2.7,1.5,3.6c1.1,0.9,2.6,1.4,4,1.3c0.9,0,1.8-0.1,2.6-0.4c0.7-0.2,1.4-0.6,2-1.2
		c0.6-0.5,1-1.1,1.3-1.8c0.3-0.8,0.5-1.6,0.5-2.4c0-0.8-0.2-1.6-0.4-2.4c-0.3-0.9-0.8-1.8-1.3-2.6L543.2,402.4z M537.1,402.9
		l-1.8-1.6l1.4-1.6l1.8,1.5L537.1,402.9z"/>
	<path class="st1" d="M550.9,411.5l-1.9,0.5v-20.4l1.9-0.9V411.5z"/>
	<path class="st1" d="M562.7,411.9c-0.2,0.8-0.5,1.6-1,2.3c-0.5,0.8-1.1,1.5-1.7,2.1c-0.7,0.7-1.5,1.4-2.3,2
		c-0.9,0.6-1.8,1.3-2.8,1.9l-1.5-1.5c1.8-1.1,3.6-2.5,5.2-3.9c1.1-0.9,1.9-2,2.5-3.2c-0.5,0.2-1.1,0.3-1.6,0.3
		c-0.5,0-0.9,0.1-1.3,0.1c-0.8,0-1.6-0.3-2.3-0.8c-0.6-0.6-1-1.5-0.9-2.4c0-0.6,0.1-1.3,0.3-1.9c0.2-0.6,0.4-1.2,0.8-1.7
		c0.3-0.5,0.7-0.9,1.2-1.3c0.4-0.3,1-0.5,1.5-0.5c0.6,0,1.2,0.2,1.7,0.5c0.5,0.4,0.9,0.8,1.3,1.4c0.4,0.6,0.6,1.2,0.8,1.9
		c0.2,0.7,0.3,1.5,0.3,2.2h2.3v2.3L562.7,411.9z M561.2,409.6c-0.1-0.5-0.2-1-0.3-1.5c-0.1-0.4-0.3-0.8-0.5-1.2
		c-0.2-0.3-0.4-0.6-0.8-0.8c-0.3-0.2-0.6-0.3-1-0.3c-0.3,0-0.5,0.1-0.8,0.2c-0.2,0.2-0.5,0.4-0.6,0.6c-0.2,0.3-0.3,0.5-0.4,0.8
		c-0.1,0.3-0.1,0.6-0.2,0.9c0,0.4,0.2,0.9,0.5,1.2c0.4,0.3,0.9,0.4,1.4,0.4c0.5,0,0.9,0,1.4-0.1
		C560.3,409.7,560.8,409.7,561.2,409.6L561.2,409.6z"/>
	<path class="st1" d="M573.8,411.9c-0.8,0-1.5-0.1-2.2-0.5c-0.6-0.3-1.1-0.9-1.4-1.5c-0.3,0.6-0.9,1.2-1.5,1.5
		c-0.7,0.4-1.5,0.5-2.2,0.5h-1.2c-0.2,0-0.4-0.1-0.5-0.3c-0.1-0.3-0.2-0.6-0.2-0.9c0-0.3,0.1-0.6,0.2-0.8c0.1-0.2,0.3-0.3,0.5-0.3
		h1.2c0.8,0.1,1.5-0.1,2.2-0.6c0.6-0.6,0.8-1.3,0.8-2.1v-1.1l1.7-0.4c0,0.7,0,1.3,0.1,2c0.1,0.5,0.2,0.9,0.5,1.3
		c0.2,0.3,0.5,0.6,0.9,0.7c0.5,0.2,1,0.2,1.5,0.2h1.2v2.3L573.8,411.9z M570.3,402.9l-1.8-1.6l1.4-1.6l1.8,1.5L570.3,402.9z"/>
	<path class="st1" d="M578,406.2c0-1.3,0.5-2.6,1.5-3.5c0.5-0.4,1-0.8,1.6-1c0.6-0.2,1.2-0.4,1.8-0.4c0.7,0,1.5,0.1,2.2,0.4
		c0.7,0.3,1.4,0.7,2,1.2l-0.8,1.5c-0.5-0.3-1.1-0.5-1.7-0.7c-0.6-0.1-1.2-0.2-1.7-0.2c-0.4,0-0.8,0.1-1.2,0.2
		c-0.4,0.1-0.7,0.3-1,0.6c-0.3,0.2-0.5,0.5-0.7,0.8c-0.2,0.3-0.2,0.6-0.2,0.9c0,0.4,0.1,0.8,0.3,1.1c0.2,0.3,0.4,0.7,0.7,0.9
		c0.3,0.3,0.6,0.5,0.9,0.6c0.2,0.1,0.5,0.2,0.8,0.2c0.8,0,1.6-0.1,2.5-0.3c1-0.2,2.4-0.6,4-1l-0.2,2.2c-2,0.7-4.1,1.2-6.2,1.6
		c-1.9,0.3-3.8,0.5-5.7,0.5h-1.5c-0.2,0-0.4-0.1-0.5-0.3c-0.1-0.3-0.2-0.6-0.2-0.9c0-0.3,0.1-0.6,0.2-0.8c0.1-0.2,0.3-0.3,0.5-0.3
		h2.7l1.5-0.1c-0.5-0.4-0.9-1-1.1-1.6C578.2,407.4,578,406.8,578,406.2z"/>
	<path class="st1" d="M604.5,392.8h1.9l-7.5,20.2h-1.8L604.5,392.8z"/>
	<path class="st1" d="M629.5,390.7v14.4c0.1,1.9-0.4,3.8-1.6,5.4c-1.3,1.3-3,1.9-4.8,1.8c-1.8,0.1-3.6-0.5-4.9-1.8
		c-1.2-1.5-1.8-3.5-1.7-5.4v-0.8l2.1-0.5v1c-0.1,1.5,0.3,3,1.1,4.2c0.8,1,2.1,1.5,3.3,1.4c1.2,0.1,2.4-0.4,3.2-1.2
		c0.8-1.2,1.1-2.5,1-3.9v-14.5H629.5z"/>
	<path class="st1" d="M633.5,404.4c-0.1-2.1,0.6-4.1,1.9-5.7c2.9-2.9,7.6-2.9,10.5,0c0,0,0,0,0,0c2.6,3.4,2.6,8.1,0,11.4
		c-2.9,2.9-7.6,2.9-10.5,0C634,408.5,633.3,406.4,633.5,404.4z M644.3,408.8c1-1.3,1.5-2.8,1.4-4.4c0.1-1.6-0.4-3.2-1.4-4.5
		c-0.9-1.1-2.3-1.7-3.7-1.6c-1.4-0.1-2.8,0.6-3.7,1.6c-1.8,2.7-1.8,6.2,0,8.9c1.9,2,5,2.2,7.1,0.3
		C644.1,409,644.2,408.9,644.3,408.8L644.3,408.8z"/>
	<path class="st1" d="M658.7,396.5c1.9-0.1,3.7,0.7,4.9,2.1c1.3,1.6,2,3.6,1.8,5.6c0.1,2.1-0.6,4.1-1.8,5.8c-1.2,1.4-3,2.3-4.9,2.2
		c-2,0.1-4-0.9-5-2.6v2.3h-2v-21.1h2v8.5C654.7,397.4,656.7,396.4,658.7,396.5z M663.3,404.4c0.1-1.6-0.4-3.1-1.3-4.4
		c-0.8-1.1-2.1-1.7-3.5-1.6c-1.4-0.1-2.7,0.6-3.6,1.7c-1.8,2.7-1.8,6.1,0,8.8c0.9,1.1,2.2,1.7,3.6,1.7c1.4,0.1,2.6-0.6,3.5-1.6
		C662.9,407.5,663.4,405.9,663.3,404.4L663.3,404.4z"/>
	<path class="st1" d="M679.2,411.9H677v-21.1h7.8c1.9-0.1,3.8,0.6,5.2,1.8c1.3,1.2,2,2.9,2,4.7c0,1.9-0.7,3.7-2.1,5
		c-1.4,1.3-3.3,2.1-5.2,2h-5.6L679.2,411.9z M689.7,397.2c0-1.3-0.5-2.5-1.4-3.3c-1-0.9-2.3-1.4-3.7-1.3h-5.4v9.7h5.4
		c2.7,0.1,5-2,5.1-4.7C689.7,397.4,689.7,397.3,689.7,397.2L689.7,397.2z"/>
	<path class="st1" d="M694.1,404.4c-0.1-2.1,0.6-4.1,1.9-5.7c2.9-2.9,7.6-2.9,10.5,0c0,0,0,0,0,0c2.6,3.4,2.6,8.1,0,11.4
		c-2.9,2.9-7.6,2.9-10.5,0C694.7,408.5,694,406.4,694.1,404.4z M705,408.8c1-1.3,1.5-2.8,1.4-4.4c0.1-1.6-0.4-3.2-1.4-4.5
		c-0.9-1.1-2.3-1.7-3.7-1.6c-1.4-0.1-2.8,0.6-3.7,1.6c-1.8,2.7-1.8,6.2,0,8.9c1.9,2,5,2.2,7.1,0.3C704.8,409,704.9,408.9,705,408.8
		L705,408.8z"/>
	<path class="st1" d="M717.4,412.2c-1.6,0.1-3.2-0.4-4.5-1.4c-1.1-0.9-1.8-2.2-1.8-3.6l2-0.4c0.1,1,0.5,2,1.3,2.8
		c0.9,0.6,1.9,1,3,0.9c0.9,0.1,1.9-0.2,2.7-0.7c0.6-0.6,1-1.4,0.9-2.2c0-1.3-1-2.1-3-2.5l-2-0.3c-2.9-0.5-4.3-1.9-4.3-4.1
		c0-1.2,0.5-2.3,1.5-3c1.1-0.8,2.5-1.3,3.9-1.2c1.4-0.1,2.8,0.3,4,1.2c1,0.9,1.7,2.1,1.9,3.4l-1.9,0.3c-0.2-1-0.7-1.8-1.4-2.5
		c-0.8-0.5-1.7-0.8-2.6-0.8c-0.9,0-1.8,0.2-2.5,0.7c-0.6,0.4-0.9,1-0.9,1.7c0,0.6,0.2,1.2,0.6,1.6c0.6,0.4,1.3,0.7,2,0.8l2.4,0.4
		c3,0.5,4.5,1.9,4.5,4.2c0,1.3-0.5,2.5-1.5,3.4C720.4,411.9,718.9,412.3,717.4,412.2z"/>
	<path class="st1" d="M728.8,394.1h-2v-3.4h2V394.1z M728.8,411.9h-2v-15h2V411.9z"/>
	<path class="st1" d="M731.8,398.6v-1.7h2.8v-5h2.1v5h4.1v1.7h-4.1v9.1c-0.1,0.7,0.1,1.3,0.5,1.9c0.4,0.4,1,0.6,1.6,0.5h2.4v1.8
		h-2.6c-1.1,0.1-2.1-0.3-2.9-1c-0.7-0.8-1.1-1.8-1-2.9v-9.4L731.8,398.6z"/>
	<path class="st1" d="M746,394.1h-2v-3.4h2V394.1z M746,411.9h-2v-15h2V411.9z"/>
	<path class="st1" d="M749.8,404.4c-0.1-2.1,0.6-4.1,1.9-5.7c2.9-2.9,7.6-2.9,10.5,0c0,0,0,0,0,0c2.6,3.4,2.6,8.1,0,11.4
		c-2.9,2.9-7.6,2.9-10.5,0C750.4,408.5,749.7,406.4,749.8,404.4z M760.7,408.8c1-1.3,1.4-2.8,1.4-4.4c0.1-1.6-0.4-3.2-1.4-4.5
		c-1.9-2-5-2.2-7.1-0.3c-0.1,0.1-0.2,0.2-0.3,0.3c-1,1.3-1.4,2.9-1.4,4.5c-0.1,1.6,0.4,3.2,1.3,4.4c0.9,1.1,2.3,1.7,3.7,1.6
		C758.4,410.5,759.8,409.9,760.7,408.8L760.7,408.8z"/>
	<path class="st1" d="M780.5,402.1v9.7h-2.1v-9.3c0.1-1.1-0.3-2.2-1-3.1c-0.8-0.8-1.8-1.2-2.9-1.1c-1.3-0.1-2.5,0.4-3.3,1.4
		c-0.8,1.2-1.2,2.6-1.1,4v8.2h-2v-15h2v2c1.1-1.6,2.9-2.5,4.8-2.4c2.9-0.3,5.4,1.9,5.7,4.7C780.5,401.5,780.5,401.8,780.5,402.1
		L780.5,402.1z"/>
	<path class="st1" d="M491,923.7h-6.9l-1.5,3.9h-2.2l6.1-15.8h2.2l6,15.8h-2.4L491,923.7z M484.8,921.9h5.5l-2.7-7.3L484.8,921.9z"
		/>
	<path class="st1" d="M498.3,927.6h-2v-11.3h2v2c0.6-1.2,1.8-2,3.2-2h0.9v1.9h-0.9c-0.9,0-1.8,0.5-2.3,1.2c-0.6,1-0.9,2.2-0.9,3.3
		L498.3,927.6z"/>
	<path class="st1" d="M504,918v-1.7h2v-3.6h2v3.6h2.8v1.7H508v6.3c0,0.4,0.1,0.9,0.3,1.2c0.3,0.3,0.7,0.4,1.1,0.3h1.7v1.7h-2
		c-0.8,0.1-1.7-0.2-2.3-0.8c-0.6-0.6-0.9-1.4-0.8-2.3V918H504z"/>
	<path class="st1" d="M514.6,914.5h-2v-2.7h2V914.5z M514.6,927.6h-2v-11.3h2V927.6z"/>
	<path class="st1" d="M521.4,927.9c-1.2,0.1-2.5-0.3-3.5-1c-0.9-0.6-1.4-1.6-1.4-2.7l2-0.3c0,0.7,0.3,1.4,0.8,1.8
		c0.6,0.4,1.3,0.6,2,0.6c0.6,0,1.3-0.1,1.8-0.5c0.4-0.4,0.6-0.9,0.6-1.4c0-0.9-0.7-1.4-2-1.6l-1.6-0.2c-0.9-0.1-1.8-0.5-2.5-1.1
		c-0.6-0.5-0.9-1.3-0.8-2.1c0-0.9,0.4-1.8,1.2-2.3c0.9-0.6,2-1,3.1-0.9c1.1-0.1,2.2,0.3,3.1,0.9c0.8,0.6,1.3,1.6,1.4,2.6l-1.8,0.3
		c-0.1-0.6-0.4-1.2-0.9-1.7c-1.1-0.6-2.4-0.7-3.4-0.1c-0.4,0.3-0.6,0.7-0.6,1.1c0,0.4,0.1,0.7,0.4,1c0.4,0.3,0.8,0.5,1.3,0.5
		l1.8,0.3c2.3,0.4,3.4,1.4,3.4,3.2c0,1-0.4,2-1.2,2.6C523.7,927.6,522.5,927.9,521.4,927.9z"/>
	<path class="st1" d="M526.4,918v-1.7h2v-3.6h2v3.6h2.8v1.7h-2.8v6.3c0,0.4,0.1,0.9,0.3,1.2c0.3,0.3,0.7,0.4,1.1,0.3h1.7v1.7h-2
		c-0.8,0.1-1.7-0.2-2.3-0.8c-0.6-0.6-0.9-1.4-0.8-2.3V918H526.4z"/>
	<path class="st1" d="M537,914.5h-2v-2.7h2V914.5z M537,927.6h-2v-11.3h2V927.6z"/>
	<path class="st1" d="M544.3,926.2c0.7,0,1.4-0.2,2-0.7c0.5-0.5,0.9-1.2,0.9-2l2,0.2c-0.1,1.2-0.7,2.3-1.6,3
		c-2.2,1.7-5.3,1.5-7.2-0.4c-1-1.2-1.5-2.7-1.5-4.3c-0.1-1.6,0.4-3.1,1.4-4.3c1-1.1,2.4-1.7,3.9-1.6c1.2-0.1,2.4,0.3,3.4,1.1
		c0.9,0.8,1.5,1.9,1.6,3.1l-2,0.2c0-1.5-1.3-2.7-2.8-2.7c-0.1,0-0.1,0-0.2,0c-0.9,0-1.8,0.4-2.4,1.1c-0.6,0.9-0.9,2-0.8,3.1
		c-0.1,1.1,0.2,2.1,0.8,3C542.5,925.8,543.4,926.2,544.3,926.2z"/>
	<path class="st1" d="M560.8,925.9h0.5v1.7h-1.1c-0.5,0-1.1-0.1-1.5-0.4c-0.4-0.3-0.6-0.7-0.7-1.2c-0.8,1.2-2.1,1.9-3.6,1.9
		c-1,0.1-2-0.3-2.8-0.9c-0.7-0.6-1.1-1.5-1.1-2.4c0-0.9,0.3-1.7,0.9-2.3c0.7-0.6,1.6-1.1,2.5-1.2l3.3-0.6c0.4,0,0.7-0.4,0.7-0.8
		c0-0.6-0.2-1.1-0.7-1.5c-0.5-0.4-1.1-0.6-1.8-0.6c-0.6,0-1.3,0.1-1.8,0.5c-0.5,0.4-0.8,1-0.9,1.6l-1.9-0.2c0.2-1,0.7-1.9,1.5-2.5
		c0.9-0.7,2-1,3.2-1c1.2-0.1,2.3,0.3,3.2,1.1c0.8,0.7,1.2,1.8,1.2,2.9v5.1c0,0.2,0,0.5,0.2,0.7C560.4,925.9,560.6,925.9,560.8,925.9
		z M552.6,924.4c0,0.5,0.2,1,0.6,1.3c0.5,0.4,1,0.5,1.6,0.5c0.9,0,1.8-0.3,2.3-1c0.6-0.7,1-1.7,0.9-2.7V922l-3.6,0.6
		c-0.5,0.1-1,0.3-1.4,0.6C552.8,923.6,552.6,924,552.6,924.4z"/>
	<path class="st1" d="M564.8,927.6h-2v-15.8h2V927.6z"/>
	<path class="st1" d="M569.5,927.6h-2v-15.8h2V927.6z"/>
	<path class="st1" d="M575.1,928.7l0.4-1l-4.5-11.3h2.1l3.3,8.8l3.4-8.8h2l-4.8,12.5c-0.3,0.9-0.8,1.7-1.5,2.3
		c-0.7,0.5-1.5,0.7-2.3,0.6H572v-1.7h1.2c0.4,0,0.9-0.1,1.2-0.3C574.7,929.5,575,929.1,575.1,928.7z"/>
	<path class="st1" d="M590,927.6h-2.2v-15.8H599v1.8h-8.9v5.1h8v1.8h-8L590,927.6z"/>
	<path class="st1" d="M602.3,927.6h-2v-11.3h2v2c0.6-1.2,1.8-2,3.2-2h0.9v1.9h-0.9c-0.9,0-1.8,0.5-2.3,1.2c-0.6,1-0.9,2.2-0.8,3.3
		L602.3,927.6z"/>
	<path class="st1" d="M606.9,922c-0.1-1.6,0.5-3.1,1.5-4.3c1-1.1,2.5-1.7,4-1.6c1.5-0.1,3,0.5,4,1.6c1,1.2,1.6,2.7,1.5,4.3
		c0.1,1.6-0.5,3.1-1.5,4.3c-1,1.1-2.5,1.7-4,1.6c-1.5,0.1-3-0.5-4-1.6C607.3,925.1,606.8,923.6,606.9,922z M614.9,925.1
		c1.2-1.9,1.2-4.3,0-6.2c-0.6-0.8-1.6-1.2-2.5-1.1c-1-0.1-1.9,0.4-2.5,1.1c-1.2,1.9-1.2,4.3,0,6.2c0.6,0.8,1.6,1.2,2.5,1.1
		C613.3,926.2,614.3,925.8,614.9,925.1L614.9,925.1z"/>
	<path class="st1" d="M629.1,921.4v6.2h-2v-6.9c0-0.8-0.2-1.5-0.6-2.1c-0.5-0.5-1.1-0.8-1.8-0.8c-0.8,0-1.6,0.3-2.1,0.9
		c-0.5,0.8-0.8,1.7-0.7,2.7v6.2h-2v-11.3h2v1.4c0.7-1.1,2-1.7,3.3-1.7c0.8,0,1.5,0.2,2.2,0.5c0.6,0.3,1.1,0.9,1.4,1.5
		c0.7-1.3,2.1-2.1,3.6-2c1.1-0.1,2.2,0.4,3,1.1c0.8,0.8,1.2,2,1.1,3.1v7.3h-2v-6.9c0.1-0.8-0.2-1.5-0.7-2.1
		c-0.5-0.5-1.1-0.8-1.8-0.8c-0.8,0-1.6,0.3-2.1,0.9C629.4,919.5,629.1,920.5,629.1,921.4z"/>
	<path class="st1" d="M646.1,927.6H644v-15.8h2.2L646.1,927.6z"/>
	<path class="st1" d="M651.1,927.6h-2v-11.3h2v2c0.6-1.2,1.8-2,3.2-2h0.9v1.9h-0.9c-0.9,0-1.8,0.5-2.3,1.2c-0.6,1-0.9,2.2-0.9,3.3
		L651.1,927.6z"/>
	<path class="st1" d="M665.9,925.9h0.5v1.7h-1.1c-0.5,0-1.1-0.1-1.5-0.4c-0.4-0.3-0.6-0.7-0.7-1.2c-0.8,1.2-2.1,1.9-3.6,1.9
		c-1,0.1-2-0.3-2.8-0.9c-0.7-0.6-1.1-1.5-1.1-2.4c0-0.9,0.3-1.7,0.9-2.3c0.7-0.6,1.6-1.1,2.5-1.2l3.3-0.6c0.4,0,0.7-0.4,0.7-0.8
		c0-0.6-0.2-1.1-0.7-1.5c-0.5-0.4-1.1-0.6-1.8-0.6c-0.6,0-1.3,0.1-1.8,0.5c-0.5,0.4-0.8,1-0.9,1.6l-1.9-0.2c0.2-1,0.7-1.9,1.5-2.5
		c0.9-0.7,2-1,3.2-1c1.2-0.1,2.3,0.3,3.2,1.1c0.8,0.7,1.2,1.8,1.2,2.9v5.1c0,0.2,0,0.5,0.2,0.7C665.4,925.9,665.7,925.9,665.9,925.9
		z M657.7,924.4c0,0.5,0.2,1,0.6,1.3c0.5,0.4,1,0.5,1.6,0.5c0.9,0,1.8-0.3,2.3-1c0.6-0.7,1-1.7,0.9-2.7V922l-3.6,0.6
		c-0.5,0.1-1,0.3-1.4,0.6C657.9,923.6,657.7,924,657.7,924.4L657.7,924.4z"/>
	<path class="st1" d="M677.5,920.3v7.3h-2v-6.9c0.1-0.8-0.2-1.5-0.7-2.1c-0.5-0.5-1.3-0.8-2-0.7c-0.8-0.1-1.7,0.3-2.2,0.9
		c-0.6,0.8-0.8,1.7-0.8,2.7v6.2h-2v-11.3h2v1.4c0.8-1.1,2.1-1.8,3.5-1.7c1.1-0.1,2.3,0.3,3.1,1.1C677.2,918,677.6,919.2,677.5,920.3
		z"/>
	<path class="st1" d="M489.4,948.6h-8.8v-12.9h8.7v1.5h-6.9v4.1h6.2v1.5h-6.2v4.3h7.1V948.6z"/>
	<path class="st1" d="M495.8,948.8c-1.3,0.1-2.6-0.3-3.7-1.1c-0.9-0.8-1.4-1.9-1.4-3.1l1.7-0.2c0,0.8,0.3,1.6,0.9,2.2
		c0.7,0.5,1.6,0.8,2.4,0.8c0.7,0,1.4-0.2,2-0.6c0.5-0.4,0.8-1,0.7-1.7c0-0.5-0.2-1-0.5-1.3c-0.5-0.4-1.1-0.6-1.8-0.7l-1.7-0.4
		c-1-0.2-1.9-0.6-2.6-1.3c-0.6-0.6-0.9-1.5-0.8-2.3c0-1,0.4-1.9,1.2-2.5c0.9-0.7,2-1.1,3.1-1c1.2-0.1,2.3,0.3,3.2,1
		c0.8,0.7,1.3,1.7,1.4,2.8l-1.7,0.2c0-1.4-1.2-2.5-2.6-2.5c-0.1,0-0.2,0-0.2,0c-0.7,0-1.4,0.1-1.9,0.5c-0.8,0.7-0.9,2-0.2,2.8
		c0,0,0,0,0,0c0.5,0.4,1,0.6,1.6,0.7l2,0.4c0.9,0.1,1.8,0.6,2.5,1.2c0.6,0.6,0.9,1.4,0.8,2.3c0,1.1-0.4,2.1-1.2,2.8
		C498.1,948.5,497,948.9,495.8,948.8z"/>
	<path class="st1" d="M500.8,935.7h9.8v1.5h-4v11.4h-1.8v-11.4h-4L500.8,935.7z"/>
	<path class="st1" d="M521.4,939.2c0-0.6-0.2-1.1-0.6-1.5c-0.4-0.4-1-0.6-1.6-0.6c-0.8-0.1-1.6,0.3-2.1,0.9
		c-0.5,0.8-0.8,1.7-0.7,2.6l-1.7-0.2c-0.3-2.3,1.2-4.4,3.5-4.7c0.3,0,0.6-0.1,0.9,0c1.1-0.1,2.1,0.3,2.9,1c0.7,0.7,1.1,1.6,1.1,2.6
		c0,0.8-0.2,1.6-0.7,2.3c-0.6,0.9-1.3,1.8-2.1,2.5l-3.4,3.2h6.5v1.5h-8.8v-1.5l4.6-4.2c0.6-0.5,1.2-1.2,1.6-1.9
		C521.3,940.4,521.4,939.8,521.4,939.2z"/>
	<path class="st1" d="M525,942.2c-0.1-1.7,0.3-3.4,1.3-4.9c1.5-2,4.3-2.4,6.2-0.9c0.3,0.3,0.6,0.6,0.9,0.9c0.9,1.5,1.4,3.2,1.3,4.9
		c0.1,1.7-0.4,3.4-1.3,4.9c-1.5,2-4.3,2.3-6.2,0.9c-0.3-0.2-0.6-0.5-0.9-0.9C525.3,945.6,524.9,943.9,525,942.2z M532.1,946
		c0.6-1.2,0.9-2.5,0.8-3.8c0.1-1.3-0.2-2.7-0.8-3.8c-0.4-0.8-1.3-1.4-2.3-1.3c-1,0-1.8,0.5-2.3,1.4c-0.6,1.2-0.9,2.5-0.8,3.8
		c-0.1,1.3,0.2,2.7,0.8,3.8c0.7,1.3,2.3,1.7,3.5,1C531.5,946.8,531.9,946.5,532.1,946L532.1,946z"/>
	<path class="st1" d="M544.2,948.6h-8v-1.5h3.1v-8.3c-0.4,0.2-1,0.4-1.5,0.3h-1.7v-1.4h1.6c0.5,0,0.9-0.1,1.2-0.5
		c0.3-0.5,0.5-1,0.4-1.5h1.7v11.4h3.1L544.2,948.6z"/>
	<path class="st1" d="M552.4,944.8c0-0.6-0.2-1.2-0.7-1.6c-0.5-0.4-1.2-0.6-1.9-0.6h-1.2v-1.3h1.1c0.6,0,1.2-0.2,1.6-0.6
		c0.4-0.5,0.6-1.1,0.6-1.7c0-0.6-0.2-1.1-0.6-1.5c-0.5-0.4-1.1-0.6-1.7-0.5c-0.7,0-1.4,0.2-1.9,0.7c-0.5,0.5-0.8,1.3-0.8,2l-1.6-0.3
		c0-1.1,0.4-2.1,1.2-2.7c0.9-0.7,2-1.1,3.1-1c1.1-0.1,2.1,0.3,2.9,0.9c0.7,0.6,1.1,1.5,1.1,2.5c0,0.6-0.2,1.3-0.5,1.8
		c-0.3,0.5-0.8,0.9-1.3,1.2c0.7,0.2,1.2,0.6,1.7,1.1c0.4,0.5,0.6,1.2,0.6,1.8c0,1.1-0.4,2.2-1.2,2.9c-0.9,0.8-2,1.1-3.2,1.1
		c-1.2,0-2.3-0.3-3.3-1c-0.9-0.6-1.4-1.6-1.4-2.6l1.8-0.4c0,0.7,0.3,1.4,0.9,1.9c0.6,0.5,1.3,0.7,2.1,0.7c0.7,0,1.4-0.2,2-0.7
		C552.2,946.2,552.4,945.5,552.4,944.8z"/>
	<rect x="309.8" y="601.8" class="st1" width="5.3" height="63.1"/>
	<rect x="312.4" y="625.4" class="st1" width="18.4" height="5.3"/>
	
		<rect x="309.4" y="618.4" transform="matrix(0.7072 -0.707 0.707 0.7072 -345.5515 407.6425)" class="st1" width="20" height="5.3"/>
	<rect x="301.9" y="643.8" class="st1" width="9" height="5.3"/>
	<path class="st1" d="M315,657v-5.3c2.9,0.1,5.4-2.1,5.5-5s-2.1-5.4-5-5.5c-0.2,0-0.3,0-0.5,0v-5.2c5.8,0.3,10.3,5.2,10,11
		C324.8,652.3,320.4,656.7,315,657L315,657z"/>
	<path class="st1" d="M322.9,609.7h-5.3c-0.1-2.9-2.6-5.2-5.5-5c-2.7,0.1-4.9,2.3-5,5h-5.2c0.3-5.8,5.2-10.3,11-10
		C318.3,599.9,322.6,604.2,322.9,609.7L322.9,609.7z"/>
	<path class="st1" d="M441,840.9h-5.3c0.3-17.4-13.5-31.7-30.9-32c-17.4-0.3-31.7,13.5-32,30.9c0,0.4,0,0.7,0,1.1h-5.3
		c0.3-20.3,17-36.4,37.3-36.1C424.7,805.1,440.6,821.1,441,840.9L441,840.9z"/>
	
		<rect x="331.9" y="712.2" transform="matrix(0.7072 -0.707 0.707 0.7072 -396.2214 472.8408)" class="st1" width="81.8" height="5.3"/>
	<path class="st1" d="M551.5,846.1H341.3V710.6l-10.5,10.5v14.7h-21v-73.6h52.5c27.6,0,49.9,22.4,49.9,49.9v13.1h89.3
		c27.6,0,49.9,22.4,49.9,49.9V846.1z M346.5,840.9h199.7v-65.7c0-24.7-20-44.6-44.7-44.7H407v-18.4c0-24.7-20-44.6-44.7-44.7H315
		v63.1h10.5v-11.6l29.7-29.7l3.7,3.7l-12.4,12.4L346.5,840.9z"/>
	<polygon class="st1" points="548.9,830.4 496.3,830.4 496.3,727.9 501.6,727.9 501.6,825.1 548.9,825.1 	"/>
	<path class="st1" d="M443.8,798.8c-20.3,0-36.7-16.5-36.8-36.8v-36.8h73.6v36.8C480.5,782.4,464.1,798.8,443.8,798.8z M412.2,730.5
		v31.5c0.3,17.4,14.7,31.3,32.1,31c17-0.3,30.7-14,31-31v-31.5L412.2,730.5z"/>
	<path class="st1" d="M333.4,685.9h-23.6v-23.6h23.6V685.9z M315,680.6h13.1v-13.1H315V680.6z"/>
	<polygon class="st1" points="492.4,893.4 480.5,893.4 488.9,880.3 481.9,880.3 481.9,877.7 493.7,877.7 485.3,890.8 492.4,890.8 	
		"/>
	<polygon class="st1" points="506.8,893.4 496.3,893.4 496.3,877.7 506.8,877.7 506.8,880.3 498.9,880.3 499,890.8 506.8,890.8 	"/>
	<rect x="497.6" y="884.2" class="st1" width="9.2" height="2.6"/>
	<polygon class="st1" points="521.3,893.4 510.8,893.4 510.8,877.7 521.3,877.7 521.3,880.3 513.4,880.3 513.4,890.8 521.3,890.8 	
		"/>
	<rect x="512.1" y="884.2" class="st1" width="9.2" height="2.6"/>
	<polygon class="st1" points="535.7,893.4 525.2,893.4 525.2,877.7 535.7,877.7 535.7,880.3 527.8,880.3 527.8,890.8 535.7,890.8 	
		"/>
	<rect x="526.5" y="884.2" class="st1" width="9.2" height="2.6"/>
	<polygon class="st1" points="551.5,893.4 549,893.4 542.3,882.8 542.3,893.4 539.7,893.4 539.7,877.7 542.2,877.7 548.9,888.3 
		548.9,877.7 551.5,877.7 	"/>
	<path class="st1" d="M370.2,932.8c-16,0-28.9-12.9-28.9-28.9v-26.3h5.2V904c0,13.1,10.6,23.7,23.6,23.7c13.1,0,23.7-10.6,23.7-23.6
		c0,0,0,0,0,0v-26.3h5.3V904C399,919.9,386.1,932.8,370.2,932.8z"/>
	<polygon class="st1" points="429.6,932.1 425.9,928.4 446.4,907.9 446.4,893.4 451.6,893.4 451.6,910.1 	"/>
	<rect x="367.5" y="877.7" class="st1" width="5.3" height="10.5"/>
	<rect x="446.4" y="877.7" class="st1" width="5.3" height="10.5"/>
	<rect x="393.8" y="938.1" class="st1" width="5.3" height="10.5"/>
	<rect x="404.3" y="938.1" class="st1" width="5.3" height="10.5"/>
	<polygon class="st1" points="398.3,904.3 394.6,900.5 407,888.2 407,877.7 412.2,877.7 412.2,890.4 	"/>
	<polygon class="st1" points="398.3,920 394.6,916.3 417.5,893.4 417.5,877.7 422.7,877.7 422.7,895.6 	"/>
	<polygon class="st1" points="401.3,932.8 393.8,932.8 393.8,877.7 399.1,877.7 399.1,927.6 428,898.7 428,877.7 433.2,877.7 
		433.2,900.9 	"/>
	<rect x="780.2" y="85.2" class="st1" width="48.7" height="12.2"/>
	<rect x="780.2" y="121.7" class="st1" width="48.7" height="12.2"/>
	
		<rect x="778" y="103.4" transform="matrix(0.7721 -0.6355 0.6355 0.7721 113.8184 536.2947)" class="st1" width="53.1" height="12.2"/>
	<rect x="251" y="946.2" class="st1" width="48.7" height="12.2"/>
	<rect x="251" y="982.7" class="st1" width="48.7" height="12.2"/>
	
		<rect x="248.9" y="964.4" transform="matrix(0.7721 -0.6355 0.6355 0.7721 -553.9927 396.2453)" class="st1" width="53.1" height="12.2"/>
	
		<linearGradient id="SVGID_1_" gradientUnits="userSpaceOnUse" x1="0" y1="946.15" x2="1080" y2="946.15" gradientTransform="matrix(1 0 0 -1 0 1080)">
		<stop  offset="0" style="stop-color:#FFFFFF;stop-opacity:0"/>
		<stop  offset="0.51" style="stop-color:#FFFFFF"/>
		<stop  offset="1" style="stop-color:#FFFFFF;stop-opacity:0"/>
	</linearGradient>
	<rect y="133.4" class="st2" width="1080" height="1"/>
	
		<linearGradient id="SVGID_2_" gradientUnits="userSpaceOnUse" x1="0" y1="133.85" x2="1080" y2="133.85" gradientTransform="matrix(1 0 0 -1 0 1080)">
		<stop  offset="0" style="stop-color:#FFFFFF;stop-opacity:0"/>
		<stop  offset="0.51" style="stop-color:#FFFFFF"/>
		<stop  offset="1" style="stop-color:#FFFFFF;stop-opacity:0"/>
	</linearGradient>
	<rect y="945.7" class="st3" width="1080" height="1"/>
	
		<linearGradient id="SVGID_3_" gradientUnits="userSpaceOnUse" x1="0" y1="994.85" x2="1080" y2="994.85" gradientTransform="matrix(1 0 0 -1 0 1080)">
		<stop  offset="0" style="stop-color:#FFFFFF;stop-opacity:0"/>
		<stop  offset="0.51" style="stop-color:#FFFFFF"/>
		<stop  offset="1" style="stop-color:#FFFFFF;stop-opacity:0"/>
	</linearGradient>
	<rect y="84.7" class="st4" width="1080" height="1"/>
	
		<linearGradient id="SVGID_4_" gradientUnits="userSpaceOnUse" x1="0" y1="85.15" x2="1080" y2="85.15" gradientTransform="matrix(1 0 0 -1 0 1080)">
		<stop  offset="0" style="stop-color:#FFFFFF;stop-opacity:0"/>
		<stop  offset="0.51" style="stop-color:#FFFFFF"/>
		<stop  offset="1" style="stop-color:#FFFFFF;stop-opacity:0"/>
	</linearGradient>
	<rect y="994.3" class="st5" width="1080" height="1"/>
	
		<linearGradient id="SVGID_5_" gradientUnits="userSpaceOnUse" x1="4328.2598" y1="24675.8398" x2="5408.2598" y2="24675.8398" gradientTransform="matrix(6.123234e-17 -1 -1 -6.123234e-17 24975.7402 5408.2598)">
		<stop  offset="0" style="stop-color:#FFFFFF;stop-opacity:0"/>
		<stop  offset="0.51" style="stop-color:#FFFFFF"/>
		<stop  offset="1" style="stop-color:#FFFFFF;stop-opacity:0"/>
	</linearGradient>
	<rect x="299.4" class="st6" width="1" height="1080"/>
	
		<linearGradient id="SVGID_6_" gradientUnits="userSpaceOnUse" x1="4328.2598" y1="24195.4902" x2="5408.2598" y2="24195.4902" gradientTransform="matrix(6.123234e-17 -1 -1 -6.123234e-17 24975.7402 5408.2598)">
		<stop  offset="0" style="stop-color:#FFFFFF;stop-opacity:0"/>
		<stop  offset="0.51" style="stop-color:#FFFFFF"/>
		<stop  offset="1" style="stop-color:#FFFFFF;stop-opacity:0"/>
	</linearGradient>
	<rect x="779.8" class="st7" width="1" height="1080"/>
	
		<linearGradient id="SVGID_7_" gradientUnits="userSpaceOnUse" x1="4328.2598" y1="24146.7695" x2="5408.2598" y2="24146.7695" gradientTransform="matrix(6.123234e-17 -1 -1 -6.123234e-17 24975.7402 5408.2598)">
		<stop  offset="0" style="stop-color:#FFFFFF;stop-opacity:0"/>
		<stop  offset="0.51" style="stop-color:#FFFFFF"/>
		<stop  offset="1" style="stop-color:#FFFFFF;stop-opacity:0"/>
	</linearGradient>
	<rect x="828.5" class="st8" width="1" height="1080"/>
	
		<linearGradient id="SVGID_8_" gradientUnits="userSpaceOnUse" x1="4328.2598" y1="24724.7109" x2="5408.2598" y2="24724.7109" gradientTransform="matrix(6.123234e-17 -1 -1 -6.123234e-17 24975.7402 5408.2598)">
		<stop  offset="0" style="stop-color:#FFFFFF;stop-opacity:0"/>
		<stop  offset="0.51" style="stop-color:#FFFFFF"/>
		<stop  offset="1" style="stop-color:#FFFFFF;stop-opacity:0"/>
	</linearGradient>
	<rect x="250.5" class="st9" width="1" height="1080"/>
</g>
</svg>
