<svg xmlns="http://www.w3.org/2000/svg" xmlns:xlink="http://www.w3.org/1999/xlink" viewBox="0 0 1080 1080"><defs><style>.cls-1{fill:none;}.cls-2{fill:#8e8e8d;}.cls-3{fill:#ffec00;}.cls-4{clip-path:url(#clip-path);}.cls-5{fill:#f5cebc;}.cls-6{fill:#cde5d9;}</style><clipPath id="clip-path"><path class="cls-1" d="M133.85,133.85h812.3a0,0,0,0,1,0,0V540A406.15,406.15,0,0,1,540,946.15h0A406.15,406.15,0,0,1,133.85,540V133.85a0,0,0,0,1,0,0Z"/></clipPath></defs><g id="Graphic"><rect class="cls-2" y="134.12" width="1080" height="18.62"/><path class="cls-3" d="M133.85,133.85h812.3a0,0,0,0,1,0,0V540A406.15,406.15,0,0,1,540,946.15h0A406.15,406.15,0,0,1,133.85,540V133.85a0,0,0,0,1,0,0Z"/><g class="cls-4"><rect x="325.13" y="207.56" width="19.59" height="235.12"/><rect x="334.92" y="295.74" width="68.58" height="19.59"/><rect x="324.03" y="269.43" width="74.4" height="19.59" transform="translate(-91.64 337.21) rotate(-45)"/><rect x="295.73" y="364.31" width="33.67" height="19.59"/><path d="M344.72,413.3V393.7a19.59,19.59,0,0,0,0-39.18v-19.6a39.19,39.19,0,0,1,0,78.38Z"/><path d="M374.11,237H354.52a19.6,19.6,0,1,0-39.19,0h-19.6a39.19,39.19,0,1,1,78.38,0Z"/><path d="M814.33,1099.08H794.74a117.25,117.25,0,1,0-234.49,0H540.66c0-75.46,61.38-136.84,136.84-136.84S814.33,1023.62,814.33,1099.08Z"/><rect x="407.85" y="619.03" width="304.8" height="19.59" transform="translate(-280.56 580.34) rotate(-45)"/><path d="M1226.43,1118.67H442.69V613.29L403.5,652.48V707.2H325.13V432.89H521.06c102.64,0,186.14,83.5,186.14,186.14v49h333.09c102.64,0,186.14,83.5,186.14,186.14Zm-764.15-19.59h744.56V854.16c0-91.84-74.71-166.55-166.55-166.55H687.61V619c0-91.83-74.72-166.54-166.55-166.54H344.72V687.61h39.19V644.36L494.54,533.73l13.85,13.85L462.28,593.7Z"/><polygon points="1216.64 1059.89 1020.7 1059.89 1020.7 677.81 1040.29 677.81 1040.29 1040.3 1216.64 1040.3 1216.64 1059.89"/><path d="M824.76,942.33c-75.62,0-137.15-61.53-137.15-137.16V668H961.92V805.17C961.92,880.8,900.39,942.33,824.76,942.33ZM707.2,687.61V805.17a117.57,117.57,0,0,0,235.13,0V687.61Z"/><path d="M413.3,521.06H325.13V432.89H413.3Zm-68.58-19.59h49v-49h-49Z"/><path class="cls-5" d="M560.88,1099.08a117.25,117.25,0,1,1,234.49,0Z"/><path class="cls-6" d="M1040.29,687.61h0a166.55,166.55,0,0,1,166.55,166.55V1040.3a0,0,0,0,1,0,0H1040.29a0,0,0,0,1,0,0V687.61A0,0,0,0,1,1040.29,687.61Z"/></g></g></svg>