<?xml version="1.0" encoding="utf-8"?>
<!-- Generator: Adobe Illustrator 25.0.0, SVG Export Plug-In . SVG Version: 6.00 Build 0)  -->
<svg version="1.1" id="Graphic" xmlns="http://www.w3.org/2000/svg" xmlns:xlink="http://www.w3.org/1999/xlink" x="0px" y="0px"
	 viewBox="0 0 1920 1080" style="enable-background:new 0 0 1920 1080;" xml:space="preserve">
<style type="text/css">
	.st0{fill:none;stroke:url(#SVGID_1_);stroke-miterlimit:10;}
	.st1{fill:none;stroke:url(#SVGID_2_);stroke-miterlimit:10;}
	.st2{fill:none;stroke:url(#SVGID_3_);stroke-miterlimit:10;}
	.st3{fill:none;stroke:url(#SVGID_4_);stroke-miterlimit:10;}
	.st4{fill:none;stroke:url(#SVGID_5_);stroke-miterlimit:10;}
	.st5{fill:none;stroke:url(#SVGID_6_);stroke-miterlimit:10;}
	.st6{fill:none;stroke:url(#SVGID_7_);stroke-miterlimit:10;}
	.st7{fill:none;stroke:url(#SVGID_8_);stroke-miterlimit:10;}
	.st8{fill:none;stroke:url(#SVGID_9_);stroke-miterlimit:10;}
	.st9{fill:none;stroke:url(#SVGID_10_);stroke-miterlimit:10;}
	.st10{fill:none;stroke:url(#SVGID_11_);stroke-miterlimit:10;}
	.st11{fill:none;stroke:url(#SVGID_12_);stroke-miterlimit:10;}
	.st12{fill:none;stroke:#4672E2;stroke-miterlimit:10;}
	.st13{fill:#4672E2;}
	.st14{fill:#FFFFFF;}
</style>
<linearGradient id="SVGID_1_" gradientUnits="userSpaceOnUse" x1="0" y1="199.84" x2="1920" y2="199.84" gradientTransform="matrix(1 0 0 -1 0 1080)">
	<stop  offset="0" style="stop-color:#FFFFFF;stop-opacity:0"/>
	<stop  offset="0.51" style="stop-color:#FFFFFF"/>
	<stop  offset="1" style="stop-color:#FFFFFF;stop-opacity:0"/>
</linearGradient>
<line class="st0" x1="0" y1="880.2" x2="1920" y2="880.2"/>
<linearGradient id="SVGID_2_" gradientUnits="userSpaceOnUse" x1="0" y1="254.27" x2="1920" y2="254.27" gradientTransform="matrix(1 0 0 -1 0 1080)">
	<stop  offset="0" style="stop-color:#FFFFFF;stop-opacity:0"/>
	<stop  offset="0.51" style="stop-color:#FFFFFF"/>
	<stop  offset="1" style="stop-color:#FFFFFF;stop-opacity:0"/>
</linearGradient>
<line class="st1" x1="0" y1="825.7" x2="1920" y2="825.7"/>
<linearGradient id="SVGID_3_" gradientUnits="userSpaceOnUse" x1="0" y1="308.67" x2="1920" y2="308.67" gradientTransform="matrix(1 0 0 -1 0 1080)">
	<stop  offset="0" style="stop-color:#FFFFFF;stop-opacity:0"/>
	<stop  offset="0.51" style="stop-color:#FFFFFF"/>
	<stop  offset="1" style="stop-color:#FFFFFF;stop-opacity:0"/>
</linearGradient>
<line class="st2" x1="0" y1="771.3" x2="1920" y2="771.3"/>
<linearGradient id="SVGID_4_" gradientUnits="userSpaceOnUse" x1="8780.2598" y1="15715.2402" x2="9860.2598" y2="15715.2402" gradientTransform="matrix(6.123234e-17 -1 -1 -6.123234e-17 17331.7402 9860.2598)">
	<stop  offset="0" style="stop-color:#FFFFFF;stop-opacity:0"/>
	<stop  offset="0.51" style="stop-color:#FFFFFF"/>
	<stop  offset="1" style="stop-color:#FFFFFF;stop-opacity:0"/>
</linearGradient>
<line class="st3" x1="1616.5" y1="1080" x2="1616.5" y2="0"/>
<linearGradient id="SVGID_5_" gradientUnits="userSpaceOnUse" x1="8780.2598" y1="17028.2598" x2="9860.2598" y2="17028.2598" gradientTransform="matrix(6.123234e-17 -1 -1 -6.123234e-17 17331.7402 9860.2598)">
	<stop  offset="0" style="stop-color:#FFFFFF;stop-opacity:0"/>
	<stop  offset="0.51" style="stop-color:#FFFFFF"/>
	<stop  offset="1" style="stop-color:#FFFFFF;stop-opacity:0"/>
</linearGradient>
<line class="st4" x1="303.5" y1="1080" x2="303.5" y2="0"/>
<linearGradient id="SVGID_6_" gradientUnits="userSpaceOnUse" x1="8780.2598" y1="15660.8105" x2="9860.2598" y2="15660.8105" gradientTransform="matrix(6.123234e-17 -1 -1 -6.123234e-17 17331.7402 9860.2598)">
	<stop  offset="0" style="stop-color:#FFFFFF;stop-opacity:0"/>
	<stop  offset="0.51" style="stop-color:#FFFFFF"/>
	<stop  offset="1" style="stop-color:#FFFFFF;stop-opacity:0"/>
</linearGradient>
<line class="st5" x1="1670.9" y1="1080" x2="1670.9" y2="0"/>
<linearGradient id="SVGID_7_" gradientUnits="userSpaceOnUse" x1="8780.2598" y1="15606.4102" x2="9860.2598" y2="15606.4102" gradientTransform="matrix(6.123234e-17 -1 -1 -6.123234e-17 17331.7402 9860.2598)">
	<stop  offset="0" style="stop-color:#FFFFFF;stop-opacity:0"/>
	<stop  offset="0.51" style="stop-color:#FFFFFF"/>
	<stop  offset="1" style="stop-color:#FFFFFF;stop-opacity:0"/>
</linearGradient>
<line class="st6" x1="1725.3" y1="1080" x2="1725.3" y2="0"/>
<linearGradient id="SVGID_8_" gradientUnits="userSpaceOnUse" x1="8780.2598" y1="17082.6895" x2="9860.2598" y2="17082.6895" gradientTransform="matrix(6.123234e-17 -1 -1 -6.123234e-17 17331.7402 9860.2598)">
	<stop  offset="0" style="stop-color:#FFFFFF;stop-opacity:0"/>
	<stop  offset="0.51" style="stop-color:#FFFFFF"/>
	<stop  offset="1" style="stop-color:#FFFFFF;stop-opacity:0"/>
</linearGradient>
<line class="st7" x1="249.1" y1="1080" x2="249.1" y2="0"/>
<linearGradient id="SVGID_9_" gradientUnits="userSpaceOnUse" x1="8780.2598" y1="17137.0898" x2="9860.2598" y2="17137.0898" gradientTransform="matrix(6.123234e-17 -1 -1 -6.123234e-17 17331.7402 9860.2598)">
	<stop  offset="0" style="stop-color:#FFFFFF;stop-opacity:0"/>
	<stop  offset="0.51" style="stop-color:#FFFFFF"/>
	<stop  offset="1" style="stop-color:#FFFFFF;stop-opacity:0"/>
</linearGradient>
<line class="st8" x1="194.6" y1="1080" x2="194.6" y2="0"/>
<linearGradient id="SVGID_10_" gradientUnits="userSpaceOnUse" x1="0" y1="880.16" x2="1920" y2="880.16" gradientTransform="matrix(1 0 0 -1 0 1080)">
	<stop  offset="0" style="stop-color:#FFFFFF;stop-opacity:0"/>
	<stop  offset="0.51" style="stop-color:#FFFFFF"/>
	<stop  offset="1" style="stop-color:#FFFFFF;stop-opacity:0"/>
</linearGradient>
<line class="st9" x1="0" y1="199.8" x2="1920" y2="199.8"/>
<linearGradient id="SVGID_11_" gradientUnits="userSpaceOnUse" x1="0" y1="825.75" x2="1920" y2="825.75" gradientTransform="matrix(1 0 0 -1 0 1080)">
	<stop  offset="0" style="stop-color:#FFFFFF;stop-opacity:0"/>
	<stop  offset="0.51" style="stop-color:#FFFFFF"/>
	<stop  offset="1" style="stop-color:#FFFFFF;stop-opacity:0"/>
</linearGradient>
<line class="st10" x1="0" y1="254.2" x2="1920" y2="254.2"/>
<linearGradient id="SVGID_12_" gradientUnits="userSpaceOnUse" x1="0" y1="771.35" x2="1920" y2="771.35" gradientTransform="matrix(1 0 0 -1 0 1080)">
	<stop  offset="0" style="stop-color:#FFFFFF;stop-opacity:0"/>
	<stop  offset="0.51" style="stop-color:#FFFFFF"/>
	<stop  offset="1" style="stop-color:#FFFFFF;stop-opacity:0"/>
</linearGradient>
<line class="st11" x1="0" y1="308.6" x2="1920" y2="308.6"/>
<line class="st12" x1="303.5" y1="385.8" x2="960" y2="385.8"/>
<line class="st12" x1="303.5" y1="462.9" x2="960" y2="462.9"/>
<line class="st12" x1="303.5" y1="535.8" x2="960" y2="535.8"/>
<path class="st13" d="M1458,758.2h-7.8l-1.7,4.4h-2.5l7-18h2.5l6.9,18h-2.7L1458,758.2z M1451,756.2h6.3l-3.1-8.4L1451,756.2z"/>
<path class="st13" d="M1466.3,762.7h-2.3v-12.9h2.2v2.3c0.7-1.4,2.1-2.3,3.7-2.3h1v2.2h-1c-1.1,0-2.1,0.5-2.6,1.4
	c-0.7,1.1-1.1,2.5-1,3.8L1466.3,762.7z"/>
<path class="st13" d="M1472.8,751.7v-1.9h2.2v-4.2h2.3v4.2h3.2v1.9h-3.2v7.2c0,0.5,0.1,1,0.3,1.4c0.3,0.3,0.8,0.4,1.2,0.4h2v2h-2.3
	c-1,0.1-1.9-0.2-2.6-0.9c-0.6-0.7-1-1.6-0.9-2.6v-7.5L1472.8,751.7z"/>
<path class="st13" d="M1484.9,747.7h-2.3v-3.1h2.3V747.7z M1484.9,762.7h-2.3v-12.9h2.3V762.7z"/>
<path class="st13" d="M1492.7,763c-1.4,0.1-2.8-0.3-4-1.2c-1-0.7-1.6-1.9-1.6-3.1l2.3-0.3c0.1,0.8,0.4,1.6,1,2.1
	c0.7,0.5,1.5,0.7,2.3,0.7c0.7,0,1.4-0.2,2-0.5c0.5-0.4,0.7-1,0.7-1.6c0-1-0.8-1.6-2.3-1.8l-1.8-0.3c-1-0.1-2-0.5-2.8-1.2
	c-0.7-0.6-1-1.5-1-2.4c0-1.1,0.5-2.1,1.3-2.7c2.1-1.4,4.9-1.4,7,0c0.9,0.7,1.5,1.8,1.6,2.9l-2.1,0.3c-0.1-0.7-0.5-1.4-1-1.9
	c-1.2-0.7-2.7-0.8-3.9-0.1c-0.7,0.5-0.9,1.5-0.4,2.3c0.1,0.1,0.1,0.1,0.2,0.2c0.4,0.3,1,0.5,1.5,0.6l2.1,0.3
	c2.6,0.4,3.9,1.6,3.9,3.7c0,1.2-0.5,2.3-1.3,3C1495.2,762.7,1493.9,763.1,1492.7,763z"/>
<path class="st13" d="M1498.3,751.7v-1.9h2.3v-4.2h2.3v4.2h3.2v1.9h-3.2v7.2c0,0.5,0.1,1,0.4,1.4c0.3,0.3,0.8,0.4,1.2,0.4h2v2h-2.3
	c-1,0.1-1.9-0.2-2.6-0.9c-0.6-0.7-1-1.6-0.9-2.6v-7.5L1498.3,751.7z"/>
<path class="st13" d="M1510.5,747.7h-2.3v-3.1h2.3V747.7z M1510.5,762.7h-2.3v-12.9h2.3V762.7z"/>
<path class="st13" d="M1518.9,761c0.8,0,1.7-0.3,2.3-0.8c0.6-0.6,1-1.4,1-2.3l2.2,0.3c-0.1,1.4-0.8,2.6-1.8,3.5
	c-2.5,1.9-6,1.7-8.3-0.5c-2.2-2.9-2.2-6.9,0-9.8c1.1-1.2,2.7-1.9,4.4-1.9c1.4-0.1,2.8,0.4,3.9,1.2c1,0.9,1.7,2.1,1.8,3.5l-2.3,0.3
	c-0.1-1.7-1.5-3.1-3.3-3c0,0-0.1,0-0.1,0c-1.1-0.1-2.1,0.4-2.7,1.3c-0.7,1-1.1,2.3-1,3.6c-0.1,1.2,0.3,2.5,1,3.5
	C1516.7,760.6,1517.8,761.1,1518.9,761z"/>
<path class="st13" d="M1537.7,760.7h0.6v1.9h-1.3c-0.6,0-1.2-0.1-1.7-0.5c-0.4-0.3-0.7-0.8-0.8-1.3c-0.9,1.4-2.4,2.2-4.1,2.1
	c-1.2,0.1-2.3-0.3-3.2-1c-0.8-0.7-1.3-1.7-1.2-2.7c0-1,0.3-1.9,1-2.6c0.8-0.7,1.8-1.2,2.9-1.3l3.8-0.6c0.5,0,0.8-0.5,0.8-0.9
	c0-0.7-0.3-1.3-0.8-1.7c-0.6-0.5-1.3-0.7-2.1-0.7c-0.7,0-1.5,0.2-2.1,0.6c-0.5,0.5-0.9,1.1-1,1.8l-2.2-0.2c0.2-1.2,0.8-2.2,1.8-2.9
	c1.1-0.8,2.3-1.1,3.6-1.1c1.3-0.1,2.6,0.4,3.6,1.2c0.9,0.8,1.4,2,1.3,3.3v5.8c0,0.3,0,0.5,0.2,0.8
	C1537.1,760.7,1537.4,760.8,1537.7,760.7z M1528.3,759c0,0.6,0.2,1.1,0.7,1.5c0.5,0.4,1.2,0.6,1.8,0.5c1,0,2-0.4,2.7-1.2
	c0.7-0.8,1.1-1.9,1-3v-0.7l-4.1,0.7c-0.6,0.1-1.1,0.3-1.6,0.7C1528.4,758,1528.3,758.5,1528.3,759z"/>
<path class="st13" d="M1542.2,762.7h-2.3v-18h2.3V762.7z"/>
<path class="st13" d="M1547.6,762.7h-2.3v-18h2.3V762.7z"/>
<path class="st13" d="M1554,763.9l0.4-1.1l-5.1-12.9h2.4l3.8,10.1l3.8-10.1h2.3l-5.6,14.3c-0.3,1-0.9,1.9-1.8,2.6
	c-0.8,0.5-1.7,0.8-2.7,0.7h-1.3v-1.9h1.3c0.5,0,1-0.1,1.4-0.4C1553.6,764.8,1553.9,764.4,1554,763.9z"/>
<path class="st13" d="M1571,762.7h-2.5v-18h12.6v2.1H1571v5.9h9.1v2.1h-9.1V762.7z"/>
<path class="st13" d="M1585,762.7h-2.3v-12.9h2.2v2.3c0.7-1.4,2.1-2.3,3.7-2.3h1v2.2h-1c-1.1,0-2.1,0.5-2.6,1.4
	c-0.7,1.1-1.1,2.5-1,3.8L1585,762.7z"/>
<path class="st13" d="M1590.2,756.2c-0.1-1.8,0.5-3.5,1.7-4.9c1.2-1.3,2.8-1.9,4.6-1.9c1.7-0.1,3.4,0.6,4.6,1.9
	c1.2,1.3,1.8,3.1,1.7,4.9c0.1,1.8-0.5,3.5-1.7,4.9c-1.2,1.2-2.9,1.9-4.6,1.9c-1.7,0.1-3.4-0.6-4.6-1.9
	C1590.7,759.8,1590.1,758,1590.2,756.2z M1599.4,759.8c1.4-2.1,1.4-4.9,0-7c-0.7-0.9-1.8-1.3-2.9-1.3c-1.1-0.1-2.2,0.4-2.9,1.3
	c-1.4,2.1-1.4,4.9,0,7c0.7,0.9,1.8,1.3,2.9,1.3C1597.6,761.1,1598.7,760.6,1599.4,759.8z"/>
<path class="st13" d="M1615.7,755.6v7.1h-2.3v-7.9c0.1-0.9-0.2-1.7-0.7-2.4c-0.5-0.6-1.3-0.9-2.1-0.8c-0.9-0.1-1.8,0.3-2.4,1
	c-0.6,0.9-0.9,1.9-0.8,3v7.1h-2.3v-12.8h2.2v1.6c0.8-1.2,2.3-2,3.8-1.9c0.9,0,1.7,0.2,2.4,0.6c0.7,0.4,1.2,1,1.6,1.7
	c0.8-1.5,2.4-2.4,4.1-2.3c1.3-0.1,2.5,0.4,3.5,1.3c0.9,1,1.3,2.2,1.2,3.5v8.3h-2.3v-7.9c0.1-0.9-0.2-1.7-0.7-2.4
	c-0.5-0.6-1.3-0.9-2.1-0.8c-0.9-0.1-1.8,0.3-2.4,1C1615.9,753.4,1615.6,754.5,1615.7,755.6z"/>
<path class="st13" d="M1635.1,762.7h-2.5v-18h2.5V762.7z"/>
<path class="st13" d="M1640.8,762.7h-2.3v-12.9h2.2v2.3c0.7-1.4,2.1-2.3,3.7-2.3h1v2.2h-1c-1.1,0-2.1,0.5-2.6,1.4
	c-0.7,1.1-1.1,2.5-1,3.8L1640.8,762.7z"/>
<path class="st13" d="M1657.7,760.7h0.6v1.9h-1.3c-0.6,0-1.2-0.1-1.7-0.5c-0.4-0.3-0.7-0.8-0.8-1.3c-0.9,1.4-2.4,2.2-4.1,2.1
	c-1.2,0.1-2.3-0.3-3.2-1c-0.8-0.7-1.3-1.7-1.2-2.7c0-1,0.3-1.9,1-2.6c0.8-0.7,1.8-1.2,2.9-1.3l3.8-0.6c0.5,0,0.8-0.5,0.8-0.9
	c0-0.7-0.3-1.3-0.8-1.7c-0.6-0.5-1.3-0.7-2.1-0.7c-0.7,0-1.5,0.2-2.1,0.6c-0.6,0.5-0.9,1.1-1.1,1.8l-2.2-0.2
	c0.2-1.2,0.8-2.2,1.8-2.9c1.1-0.8,2.3-1.1,3.6-1.1c1.3-0.1,2.6,0.4,3.6,1.2c0.9,0.9,1.4,2,1.3,3.3v5.8c0,0.3,0,0.5,0.2,0.8
	C1657.1,760.7,1657.4,760.8,1657.7,760.7z M1648.3,759c0,0.6,0.2,1.1,0.7,1.5c0.5,0.4,1.2,0.6,1.8,0.5c1,0,2-0.4,2.7-1.2
	c0.7-0.8,1.1-1.9,1-3v-0.7l-4.1,0.7c-0.6,0.1-1.1,0.3-1.6,0.7C1648.4,758,1648.3,758.5,1648.3,759z"/>
<path class="st13" d="M1670.9,754.3v8.3h-2.3v-7.9c0.1-0.9-0.2-1.7-0.8-2.4c-0.6-0.6-1.4-0.9-2.2-0.8c-1-0.1-1.9,0.3-2.6,1
	c-0.6,0.9-0.9,1.9-0.9,3v7.1h-2.3v-12.8h2.2v1.6c0.9-1.3,2.4-2,4-1.9c1.3-0.1,2.6,0.4,3.5,1.3C1670.5,751.7,1671,753,1670.9,754.3z"
	/>
<path class="st13" d="M1456.2,786.7h-10.1V772h9.9v1.7h-7.9v4.7h7v1.6h-7v4.9h8.1L1456.2,786.7z"/>
<path class="st13" d="M1463.4,786.9c-1.5,0.1-3-0.4-4.2-1.3c-1-0.9-1.6-2.2-1.6-3.5l2-0.3c0,1,0.4,1.9,1.1,2.5
	c0.8,0.6,1.8,0.9,2.8,0.9c0.8,0,1.6-0.2,2.3-0.7c0.6-0.5,0.9-1.2,0.8-1.9c0-0.6-0.2-1.1-0.6-1.5c-0.6-0.4-1.3-0.7-2-0.8l-2-0.4
	c-1.1-0.2-2.2-0.7-3-1.4c-1.4-1.6-1.2-4.1,0.4-5.5c0,0,0,0,0,0c1-0.8,2.3-1.2,3.6-1.2c1.3-0.1,2.6,0.3,3.7,1.1
	c0.9,0.8,1.5,1.9,1.6,3.1l-2,0.2c0-1.6-1.4-2.9-3-2.9c-0.1,0-0.2,0-0.3,0c-0.8,0-1.5,0.2-2.2,0.6c-0.9,0.9-1,2.3-0.2,3.3
	c0.5,0.4,1.2,0.7,1.8,0.8l2.3,0.5c1.1,0.2,2.1,0.6,2.9,1.4c0.6,0.7,1,1.6,0.9,2.6c0,1.2-0.5,2.4-1.4,3.2
	C1466.1,786.5,1464.8,787,1463.4,786.9z"/>
<path class="st13" d="M1469.2,772h11.2v1.7h-4.6v13h-2v-13h-4.6L1469.2,772z"/>
<path class="st13" d="M1492.6,775.9c0-0.7-0.2-1.3-0.7-1.8c-0.5-0.5-1.2-0.7-1.9-0.7c-0.9-0.1-1.8,0.3-2.4,1c-0.6,0.9-0.9,1.9-0.8,3
	l-1.9-0.2c-0.4-2.6,1.4-5,4-5.4c0.3-0.1,0.7-0.1,1,0c1.2-0.1,2.4,0.3,3.3,1.2c0.8,0.8,1.3,1.9,1.2,3c0,0.9-0.3,1.8-0.8,2.6
	c-0.7,1.1-1.5,2-2.4,2.9l-3.9,3.6h7.4v1.7h-10v-1.7l5.3-4.8c0.7-0.6,1.3-1.3,1.8-2.2C1492.5,777.3,1492.6,776.6,1492.6,775.9z"/>
<path class="st13" d="M1496.7,779.3c-0.1-2,0.4-3.9,1.4-5.6c1.7-2.2,4.9-2.7,7.1-1c0.4,0.3,0.7,0.6,1,1c1.9,3.5,1.9,7.7,0,11.1
	c-1.7,2.2-4.9,2.7-7.1,1c-0.4-0.3-0.7-0.6-1-1C1497.1,783.2,1496.6,781.3,1496.7,779.3z M1504.8,783.7c1.2-2.8,1.2-6,0-8.8
	c-0.5-1-1.5-1.6-2.6-1.5c-1.1,0-2.1,0.6-2.6,1.6c-0.7,1.3-1,2.8-0.9,4.3c-0.1,1.5,0.2,3,0.9,4.4c0.5,1,1.5,1.6,2.6,1.5
	C1503.3,785.2,1504.3,784.6,1504.8,783.7z"/>
<path class="st13" d="M1518.7,786.7h-9.1V785h3.6v-9.4c-0.5,0.3-1.1,0.4-1.7,0.4h-2v-1.7h1.8c0.5,0,1.1-0.2,1.4-0.6
	c0.3-0.5,0.5-1.1,0.5-1.8h1.9v13h3.5L1518.7,786.7z"/>
<path class="st13" d="M1528.1,782.3c0-0.7-0.2-1.4-0.8-1.8c-0.6-0.5-1.4-0.7-2.1-0.7h-1.3v-1.5h1.3c0.7,0,1.4-0.2,1.8-0.7
	c0.5-0.6,0.7-1.3,0.7-2c0-0.6-0.2-1.3-0.7-1.7c-0.5-0.4-1.2-0.7-1.9-0.6c-0.8,0-1.6,0.3-2.2,0.8c-0.6,0.6-0.9,1.4-0.9,2.3l-1.8-0.4
	c0-1.2,0.5-2.4,1.4-3.1c1-0.8,2.3-1.2,3.6-1.2c1.2-0.1,2.4,0.3,3.3,1c0.8,0.7,1.3,1.7,1.2,2.8c0,0.7-0.2,1.4-0.5,2
	c-0.4,0.6-0.9,1.1-1.5,1.3c0.7,0.2,1.4,0.7,1.9,1.3c0.4,0.6,0.7,1.4,0.7,2.1c0.1,1.2-0.4,2.5-1.4,3.3c-1,0.9-2.3,1.3-3.7,1.2
	c-1.3,0.1-2.7-0.3-3.8-1.1c-1-0.7-1.6-1.8-1.6-3l2-0.4c0,0.8,0.4,1.6,1,2.1c0.7,0.5,1.5,0.8,2.4,0.8c0.8,0,1.7-0.2,2.3-0.8
	C1527.8,783.8,1528.1,783.1,1528.1,782.3z"/>
<rect x="1251" y="429.7" class="st13" width="6" height="72"/>
<rect x="1254" y="456.7" class="st13" width="21" height="6"/>
<rect x="1250.7" y="448.7" transform="matrix(0.7071 -0.7071 0.7071 0.7071 50.2687 1024.6887)" class="st13" width="22.8" height="6"/>
<rect x="1242" y="477.7" class="st13" width="10.3" height="6"/>
<path class="st13" d="M1257,492.7v-6c3.3,0,6-2.7,6-6s-2.7-6-6-6v-6c6.6,0,12,5.4,12,12S1263.6,492.7,1257,492.7z"/>
<path class="st13" d="M1266,438.7h-6c0-3.3-2.7-6-6-6s-6,2.7-6,6h-6c0-6.6,5.4-12,12-12S1266,432.1,1266,438.7z"/>
<path class="st13" d="M1400.8,702.7h-6c-0.3-19.8-16.7-35.6-36.5-35.3c-19.4,0.3-35,15.9-35.3,35.3h-6c0.4-23.1,19.4-41.6,42.6-41.3
	C1382.2,661.8,1400.5,680.1,1400.8,702.7z"/>
<rect x="1276.3" y="555.7" transform="matrix(0.7071 -0.7071 0.7071 0.7071 -7.5855 1099.1403)" class="st13" width="93.3" height="6"/>
<path class="st13" d="M1527,708.7h-240V554l-12,12v16.8h-24v-84h60c31.5,0,57,25.5,57,57v15h102c31.5,0,57,25.5,57,57V708.7z
	 M1293,702.7h228v-75c0-28.2-22.8-51-51-51h-108v-21c0-28.2-22.8-51-51-51h-54v72h12v-13.2l33.9-33.9l4.2,4.2L1293,548V702.7z"/>
<polygon class="st13" points="1524,690.7 1464,690.7 1464,573.7 1470,573.7 1470,684.7 1524,684.7 "/>
<path class="st13" d="M1404,654.7c-23.2,0-42-18.8-42-42v-42h84v42C1446,635.9,1427.2,654.7,1404,654.7z M1368,576.7v36
	c0,19.9,16.1,36,36,36s36-16.1,36-36v-36H1368z"/>
<path class="st13" d="M1278,525.7h-27v-27h27V525.7z M1257,519.7h15v-15h-15V519.7z"/>
<polygon class="st13" points="1182,663.7 1154.9,663.7 1174.1,633.7 1158,633.7 1158,627.7 1185,627.7 1165.9,657.7 1182,657.7 "/>
<polygon class="st13" points="1215,663.7 1191.1,663.7 1191,627.7 1215,627.7 1215,633.7 1197,633.7 1197.1,657.7 1215,657.7 "/>
<rect x="1194" y="642.7" class="st13" width="21" height="6"/>
<polygon class="st13" points="1248,663.7 1224,663.7 1224,627.7 1248,627.7 1248,633.7 1230,633.7 1230,657.7 1248,657.7 "/>
<rect x="1227" y="642.7" class="st13" width="21" height="6"/>
<polygon class="st13" points="1215,708.7 1191,708.7 1191,672.7 1215,672.7 1215,678.7 1197,678.7 1197,702.7 1215,702.7 "/>
<rect x="1194" y="687.7" class="st13" width="21" height="6"/>
<polygon class="st13" points="1251,708.7 1245.2,708.7 1230,684.4 1230,708.7 1224,708.7 1224,672.7 1229.7,672.7 1245,697 
	1245,672.7 1251,672.7 "/>
<path class="st13" d="M1320,807.7c-18.2,0-33-14.8-33-33l0,0v-30h6v30c0,14.9,12.1,27,27,27s27-12.1,27-27v-30h6v30
	C1353,793,1338.2,807.7,1320,807.7L1320,807.7z"/>
<polygon class="st13" points="1387.9,806.8 1383.6,802.6 1407,779.2 1407,762.7 1413,762.7 1413,781.7 "/>
<rect x="1317" y="744.7" class="st13" width="6" height="12"/>
<rect x="1407" y="744.7" class="st13" width="6" height="12"/>
<rect x="1347" y="813.7" class="st13" width="6" height="12"/>
<rect x="1359" y="813.7" class="st13" width="6" height="12"/>
<polygon class="st13" points="1352.1,775.1 1347.9,770.8 1362,756.7 1362,744.7 1368,744.7 1368,759.2 "/>
<polygon class="st13" points="1352.1,793.1 1347.9,788.8 1374,762.7 1374,744.7 1380,744.7 1380,765.2 "/>
<polygon class="st13" points="1355.5,807.7 1347,807.7 1347,744.7 1353,744.7 1353,801.7 1386,768.7 1386,744.7 1392,744.7 
	1392,771.2 "/>
<rect x="249.1" y="254.2" class="st14" width="54.4" height="13.6"/>
<rect x="249.1" y="295" class="st14" width="54.4" height="13.6"/>
<rect x="246.6" y="274.6" transform="matrix(0.7721 -0.6355 0.6355 0.7721 -115.8887 239.7413)" class="st14" width="59.3" height="13.6"/>
<rect x="194.6" y="199.8" class="st14" width="54.4" height="13.6"/>
<rect x="194.6" y="240.6" class="st14" width="54.4" height="13.6"/>
<rect x="192.2" y="220.2" transform="matrix(0.7721 -0.6355 0.6355 0.7721 -93.7222 192.7517)" class="st14" width="59.3" height="13.6"/>
<rect x="1670.9" y="825.7" class="st14" width="54.4" height="13.6"/>
<rect x="1670.9" y="866.5" class="st14" width="54.4" height="13.6"/>
<rect x="1668.5" y="846.3" transform="matrix(0.769 -0.6392 0.6392 0.769 -153.073 1282.4922)" class="st14" width="59.4" height="13.6"/>
<rect x="1616.5" y="771.3" class="st14" width="54.4" height="13.6"/>
<rect x="1616.5" y="812.1" class="st14" width="54.4" height="13.6"/>
<rect x="1614" y="791.6" transform="matrix(0.7721 -0.6355 0.6355 0.7721 -132.7917 1226.6224)" class="st14" width="59.3" height="13.6"/>
</svg>
