<svg xmlns="http://www.w3.org/2000/svg" viewBox="0 0 1080 1080"><defs><style>.cls-1{fill:#8e8e8d;}.cls-2{fill:#f2ba97;}</style></defs><g id="Graphic"><rect class="cls-1" y="134.12" width="1080" height="18.62"/><path class="cls-2" d="M133.85,133.85h812.3a0,0,0,0,1,0,0V540A406.15,406.15,0,0,1,540,946.15h0A406.15,406.15,0,0,1,133.85,540V133.85a0,0,0,0,1,0,0Z"/><path d="M917.15,162.85V540a377.15,377.15,0,1,1-754.3,0V162.85h754.3m29-29H133.85V540c0,224.31,181.84,406.15,406.15,406.15h0c224.31,0,406.15-181.84,406.15-406.15V133.85Z"/></g><g id="Isolation_Mode" data-name="Isolation Mode"><polygon points="430.53 518.11 298.8 518.11 391.91 372.15 313.77 372.15 313.77 342.96 445.16 342.96 352.05 488.92 430.53 488.92 430.53 518.11"/><polygon points="591.09 518.11 474.7 518.11 474.28 342.96 591.09 342.96 591.09 372.15 503.55 372.15 503.82 488.92 591.09 488.92 591.09 518.11"/><rect x="488.92" y="415.94" width="102.18" height="29.19"/><polygon points="751.64 518.11 634.87 518.11 634.87 342.96 751.64 342.96 751.64 372.15 664.06 372.15 664.06 488.92 751.64 488.92 751.64 518.11"/><rect x="649.47" y="415.94" width="102.17" height="29.19"/><polygon points="591.09 737.04 474.32 737.04 474.32 561.89 591.09 561.89 591.09 591.09 503.51 591.09 503.51 707.85 591.09 707.85 591.09 737.04"/><rect x="488.92" y="634.87" width="102.18" height="29.19"/><polygon points="766.23 737.04 738.28 737.04 664.06 618.76 664.06 737.04 634.87 737.04 634.87 561.89 662.84 561.89 737.04 680.15 737.04 561.89 766.23 561.89 766.23 737.04"/></g></svg>