<svg xmlns="http://www.w3.org/2000/svg" viewBox="0 0 1080 1080"><defs><style>.cls-1{fill:#ce6326;}.cls-2{fill:#fff;}</style></defs><g id="Graphic"><rect x="113.49" y="174.02" width="853.03" height="243.72"/><rect class="cls-1" x="113.49" y="174.02" width="243.72" height="243.72"/><path d="M289.51,370.35V353.43a64.39,64.39,0,0,0-64.32-64.32H164.26v-6.77a13.54,13.54,0,1,0,0-27.08v-6.77h20.31v-6.77H169.05l12.4-12.4-4.79-4.79-12.4,12.4V215.58a6.73,6.73,0,0,1,3.39,5.83h6.77a13.54,13.54,0,1,0-27.08,0h6.77a6.74,6.74,0,0,1,3.38-5.83v49.83H147.34v6.77h10.15V383.89h27.08V365l13.54-13.54v66.3h6.77V395.45l70.35-70.35a57.27,57.27,0,0,1,7.51,28.33v64.31h6.77V377.12h67.7v-6.77ZM171,268.8a6.78,6.78,0,0,1-6.77,6.77V262A6.78,6.78,0,0,1,171,268.8Zm10.16,27.08V312.8H164.26V295.88Zm23.69,90v-41.2l15.94-15.93L216,324,177.8,362.18v14.94H164.26V319.57H188V295.88h37.23a57.42,57.42,0,0,1,46.24,23.44Z"/><path class="cls-2" d="M621.11,280.79c-1.21,0-2.32-.09-3.33-.16s-1.73-.1-2.14-.1a3.9,3.9,0,0,0-1.47.2c-.29.14-.44.3-.44.47a.41.41,0,0,0,.21.38,3,3,0,0,0,.93.29l3.5.67a6.23,6.23,0,0,1,2.56,1,2.46,2.46,0,0,1,.9,2.11,5.69,5.69,0,0,1-1.37,3.72,11.26,11.26,0,0,1-3.53,2.78,20,20,0,0,1-4.85,1.76,23.5,23.5,0,0,1-5.26.62,15,15,0,0,1-5-.78,10.44,10.44,0,0,1-3.82-2.24,10.07,10.07,0,0,1-2.45-3.66,13.75,13.75,0,0,1-.88-5.08,14.22,14.22,0,0,1,.78-4.85,26.92,26.92,0,0,1,2.27-4.7l3.66,1.5a22.41,22.41,0,0,0-1.7,4,11,11,0,0,0-.52,3.1,6.32,6.32,0,0,0,2.09,5.08,9.15,9.15,0,0,0,6.06,1.78,23.53,23.53,0,0,0,3.33-.23,27.87,27.87,0,0,0,2.84-.57,20.13,20.13,0,0,0,2.19-.72c.62-.26,1.1-.48,1.44-.65a3.81,3.81,0,0,0-1.65-.51l-2.68-.57a5.86,5.86,0,0,1-2.71-1.19,3.57,3.57,0,0,1-1.05-2.89,5.61,5.61,0,0,1,2.29-4.79q2.29-1.71,7.15-1.71h3.35v5.94Z"/><path class="cls-2" d="M645,252.46q-4.89,2.07-9,4.21c-2.77,1.43-5,2.67-6.78,3.74a30.23,30.23,0,0,1,5.26,5.9,10.73,10.73,0,0,1,1.8,5.86,8.41,8.41,0,0,1-.74,3.59,8.09,8.09,0,0,1-2.09,2.7,9.11,9.11,0,0,1-3.23,1.73,13.6,13.6,0,0,1-4.15.6h-4.23c-.38,0-.69-.27-.93-.8a5.34,5.34,0,0,1-.36-2.15,5.46,5.46,0,0,1,.36-2.16c.24-.55.55-.83.93-.83h4.49a9.5,9.5,0,0,0,3.94-.62,3.87,3.87,0,0,0,1.83-1.54,6.87,6.87,0,0,0-.77-2.12,12.9,12.9,0,0,0-1.6-2.22,31.63,31.63,0,0,0-2.53-2.55q-1.49-1.37-3.5-3.17a27.48,27.48,0,0,1,.49-3.72,2.77,2.77,0,0,1,.85-1.65q3.56-2.37,8.9-5.21t11.84-5.83Zm-4.79-5.83q-3.4,1.65-7.25,3.77t-8.08,4.85l.47-3.66q4.17-2.79,8.05-5t7.32-3.9Z"/><path class="cls-2" d="M660.11,272.89a9.14,9.14,0,0,1-.88,4.28,6.75,6.75,0,0,1-2.35,2.58,8.86,8.86,0,0,1-3.45,1.24,26.6,26.6,0,0,1-4.16.31,12.77,12.77,0,0,1-4.28-.64,9.76,9.76,0,0,1-3.61-2.51l2.58-4.48a8.78,8.78,0,0,0,2.48,1.29,10.37,10.37,0,0,0,3.09.41,14.69,14.69,0,0,0,4.67-.59q1.68-.6,1.68-1.53c0-.86-.62-2-1.86-3.5a28.76,28.76,0,0,0-6.09-5l2.32-5.52a25.84,25.84,0,0,1,3.59,2.61,22.06,22.06,0,0,1,3.17,3.32,17.59,17.59,0,0,1,2.25,3.8A10.07,10.07,0,0,1,660.11,272.89Z"/><path class="cls-2" d="M671.15,280,666.3,281V247l4.85-2.33Z"/><path class="cls-2" d="M691.63,280.79a15.46,15.46,0,0,1-1.81,3.89,21.21,21.21,0,0,1-2.89,3.53,34.44,34.44,0,0,1-3.84,3.31q-2.15,1.59-4.67,3.14l-4-3.71q2.37-1.4,4.51-2.81t3.9-2.79a33.63,33.63,0,0,0,3-2.6,13.32,13.32,0,0,0,1.86-2.27,8.74,8.74,0,0,1-2.3.51c-.81.07-1.4.1-1.78.1a6.13,6.13,0,0,1-4.15-1.44,5.4,5.4,0,0,1-1.68-4.33,12.32,12.32,0,0,1,.52-3.56,11.34,11.34,0,0,1,1.44-3.15,7.77,7.77,0,0,1,2.22-2.24,5,5,0,0,1,2.79-.85,5.72,5.72,0,0,1,2.88.74,7.31,7.31,0,0,1,2.22,2,11.22,11.22,0,0,1,1.52,3,14.21,14.21,0,0,1,.75,3.61h3.41v5.94Zm-7.33-9.86a2.09,2.09,0,0,0-1.06.29,2.63,2.63,0,0,0-.82.74,4.11,4.11,0,0,0-.54,1,2.62,2.62,0,0,0-.21,1,1.61,1.61,0,0,0,.7,1.35,3.21,3.21,0,0,0,1.93.51,14,14,0,0,0,1.88-.13,9.07,9.07,0,0,0,1.63-.33,7.17,7.17,0,0,0-1.29-3.2A2.76,2.76,0,0,0,684.3,270.93Z"/><path class="cls-2" d="M702.05,273.46a2.48,2.48,0,0,0-.24-.88,9.09,9.09,0,0,0-.67-1.31c-.29-.5-.61-1-1-1.58a19.68,19.68,0,0,0-1.16-1.6l3.87-4.07a16.51,16.51,0,0,1,2.89,4.77,12.6,12.6,0,0,1,.93,4.41,7.39,7.39,0,0,1-2.06,5.65c-1.38,1.29-3.49,1.94-6.35,1.94h-2.73c-.38,0-.69-.27-.93-.8a5.34,5.34,0,0,1-.36-2.15,5.46,5.46,0,0,1,.36-2.16c.24-.55.55-.83.93-.83h2.73a9.26,9.26,0,0,0,2.74-.33C701.7,274.29,702.05,273.94,702.05,273.46Zm-.26-12.17L697.87,258l3.15-3.71,3.92,3.3Z"/><path class="cls-2" d="M721,280.79a7.24,7.24,0,0,1-3.87-.91,6.16,6.16,0,0,1-2.22-2.37,10.19,10.19,0,0,1-1-3.35,34.66,34.66,0,0,1-.31-3.85q-.1-2.37-.15-5.31t-.13-6c-.06-2.06-.12-4.12-.21-6.19s-.2-4-.33-5.77l4.79-2.33c0,1.93,0,3.92,0,6s.05,4.09.1,6.12.1,4,.16,6,.09,3.89.13,5.68c0,.82,0,1.62,0,2.39a7.09,7.09,0,0,0,.36,2.07,2.89,2.89,0,0,0,1,1.42,3.54,3.54,0,0,0,2.09.51h2.07v5.94Z"/><path class="cls-2" d="M749.66,273.36a17.87,17.87,0,0,0-4,.49,13.47,13.47,0,0,0-3,1c-1.55.83-2.93,1.6-4.13,2.33a38,38,0,0,1-3.51,1.88,18.74,18.74,0,0,1-3.56,1.24,19.12,19.12,0,0,1-4.33.44h-3.66c-.38,0-.69-.27-.93-.8a5.34,5.34,0,0,1-.36-2.15,5.46,5.46,0,0,1,.36-2.16c.24-.55.55-.83.93-.83h3.81a27.8,27.8,0,0,0,3.62-.2,15,15,0,0,0,2.78-.67,30.19,30.19,0,0,0,2.89-1.19l3.92-1.81c-.79-.24-1.56-.51-2.32-.82s-1.46-.6-2.12-.85l-1.72-.67a3.6,3.6,0,0,0-1.11-.29,2.48,2.48,0,0,0-1.34.52,12.13,12.13,0,0,0-2.22,2.27l-3.3-1.91a22.32,22.32,0,0,1,3.25-4.54,4.92,4.92,0,0,1,3.5-1.86,8.12,8.12,0,0,1,3.15.78l3.9,1.67c1.39.61,2.88,1.16,4.46,1.68a15.42,15.42,0,0,0,4.85.77H751ZM733.88,258.6,730,255.3l3.14-3.71,3.92,3.3Z"/><path class="cls-2" d="M774.84,273.2a5.19,5.19,0,0,1-.39,1.88,7,7,0,0,1-1.06,1.86,5.62,5.62,0,0,1-1.57,1.39,3.63,3.63,0,0,1-1.94.55h-6.19c-1.17,0-1.9.33-2.19,1a8,8,0,0,0-.44,3V301H757c-.07-3.06-.12-5.69-.16-7.87s-.06-4-.08-5.44,0-2.56,0-3.36v-1.59a15.58,15.58,0,0,1,.88-6,5.36,5.36,0,0,1,3-2.92,16.87,16.87,0,0,1,.33-3.27,12.2,12.2,0,0,1,1-3.07,6.55,6.55,0,0,1,1.78-2.27,4.08,4.08,0,0,1,2.68-.88,6.6,6.6,0,0,1,3.07.8,10.09,10.09,0,0,1,2.71,2.09,11,11,0,0,1,1.9,2.84A7.13,7.13,0,0,1,774.84,273.2Zm-4.08.05a3.06,3.06,0,0,0-.57-1.26,7.13,7.13,0,0,0-1.08-1.19,5.31,5.31,0,0,0-1.37-.87,3.38,3.38,0,0,0-1.41-.34q-1.86,0-2,4.23c.35,0,.76.06,1.24.08s1,0,1.45,0h2.47a1.72,1.72,0,0,0,.78-.18A.84.84,0,0,0,770.76,273.25Z"/><path class="cls-2" d="M789.13,280.79a7.24,7.24,0,0,1-3.87-.91,6.09,6.09,0,0,1-2.22-2.37,10,10,0,0,1-1-3.35,32.42,32.42,0,0,1-.31-3.85c-.07-1.58-.12-3.35-.16-5.31s-.07-4-.13-6-.12-4.12-.2-6.19-.2-4-.34-5.77l4.8-2.33c0,1.93,0,3.92,0,6s0,4.09.1,6.12.1,4,.15,6,.1,3.89.13,5.68c0,.82,0,1.62,0,2.39a7.42,7.42,0,0,0,.37,2.07,2.89,2.89,0,0,0,1,1.42,3.54,3.54,0,0,0,2.09.51h2.06v5.94Z"/><path class="cls-2" d="M798.15,273.46a2.42,2.42,0,0,0-.23-.88,10.24,10.24,0,0,0-.67-1.31c-.29-.5-.62-1-1-1.58s-.75-1.08-1.16-1.6L799,264a16.51,16.51,0,0,1,2.89,4.77,12.6,12.6,0,0,1,.93,4.41,7.36,7.36,0,0,1-2.07,5.65c-1.37,1.29-3.49,1.94-6.34,1.94h-2.74c-.37,0-.68-.27-.92-.8a5.33,5.33,0,0,1-.37-2.15,5.45,5.45,0,0,1,.37-2.16c.24-.55.55-.83.92-.83h2.74a9.23,9.23,0,0,0,2.73-.33C797.81,274.29,798.15,273.94,798.15,273.46Zm-.25-12.17L794,258l3.14-3.71,3.92,3.3Z"/><path class="cls-2" d="M825.44,262.94a5.83,5.83,0,0,1,3.15.87,7.6,7.6,0,0,1,2.35,2.4,12.32,12.32,0,0,1,1.44,3.51,17.09,17.09,0,0,1,.49,4.15,14.68,14.68,0,0,1-1,5.42,17.8,17.8,0,0,1-2.78,4.69,27.64,27.64,0,0,1-4.34,4.21,56.51,56.51,0,0,1-5.67,3.89l-4-3.71c1.65-1,3.2-1.93,4.66-2.89a47.73,47.73,0,0,0,3.92-2.84,33.09,33.09,0,0,0,3-2.65,9.78,9.78,0,0,0,1.76-2.3,6.49,6.49,0,0,1-2.33.7c-.82.08-1.42.13-1.8.13a6.14,6.14,0,0,1-4.15-1.45,5.4,5.4,0,0,1-1.68-4.33,12.32,12.32,0,0,1,.52-3.56,11.34,11.34,0,0,1,1.44-3.15,7.77,7.77,0,0,1,2.22-2.24A4.94,4.94,0,0,1,825.44,262.94Zm-.46,5.41a2.09,2.09,0,0,0-1.06.29,2.53,2.53,0,0,0-.82.74,4.54,4.54,0,0,0-.55,1,2.85,2.85,0,0,0-.2,1,1.61,1.61,0,0,0,.69,1.35,3.24,3.24,0,0,0,1.94.51,9.58,9.58,0,0,0,1.93-.2,8,8,0,0,0,1.53-.47,6.81,6.81,0,0,0-1.22-3A2.73,2.73,0,0,0,825,268.35Z"/><path class="cls-2" d="M866.2,273.2a5.19,5.19,0,0,1-.39,1.88,7,7,0,0,1-1.06,1.86,5.62,5.62,0,0,1-1.57,1.39,3.62,3.62,0,0,1-1.93.55h-6.2c-1.17,0-1.9.33-2.19,1a8,8,0,0,0-.44,3V301h-4.07c-.07-3.06-.12-5.69-.16-7.87s-.06-4-.07-5.44,0-2.56,0-3.36v-1.59a15.58,15.58,0,0,1,.88-6,5.36,5.36,0,0,1,3-2.92,16.87,16.87,0,0,1,.33-3.27,12.2,12.2,0,0,1,1-3.07,6.55,6.55,0,0,1,1.78-2.27,4.08,4.08,0,0,1,2.68-.88,6.6,6.6,0,0,1,3.07.8,10.09,10.09,0,0,1,2.71,2.09,11,11,0,0,1,1.9,2.84A7.13,7.13,0,0,1,866.2,273.2Zm-4.08.05a3.06,3.06,0,0,0-.57-1.26,6.72,6.72,0,0,0-1.08-1.19,5.31,5.31,0,0,0-1.37-.87,3.38,3.38,0,0,0-1.41-.34q-1.86,0-2,4.23c.35,0,.76.06,1.24.08s1,0,1.45,0h2.47a1.72,1.72,0,0,0,.78-.18A.84.84,0,0,0,862.12,273.25Z"/><path class="cls-2" d="M880.49,280.79a7.24,7.24,0,0,1-3.87-.91,6.09,6.09,0,0,1-2.22-2.37,10,10,0,0,1-1-3.35,34.66,34.66,0,0,1-.31-3.85c-.07-1.58-.12-3.35-.16-5.31s-.07-4-.13-6-.12-4.12-.2-6.19-.2-4-.34-5.77l4.8-2.33c0,1.93,0,3.92,0,6s.05,4.09.1,6.12.1,4,.15,6,.1,3.89.13,5.68c0,.82,0,1.62.06,2.39a7.09,7.09,0,0,0,.36,2.07,2.89,2.89,0,0,0,1,1.42,3.54,3.54,0,0,0,2.09.51H883v5.94Z"/><path class="cls-2" d="M889.51,273.46a2.42,2.42,0,0,0-.23-.88,10.24,10.24,0,0,0-.67-1.31c-.29-.5-.62-1-1-1.58s-.75-1.08-1.16-1.6l3.87-4.07a16.51,16.51,0,0,1,2.89,4.77,12.6,12.6,0,0,1,.93,4.41,7.36,7.36,0,0,1-2.07,5.65c-1.37,1.29-3.49,1.94-6.34,1.94H883c-.37,0-.68-.27-.92-.8a5.33,5.33,0,0,1-.37-2.15,5.45,5.45,0,0,1,.37-2.16c.24-.55.55-.83.92-.83h2.74a9.23,9.23,0,0,0,2.73-.33C889.17,274.29,889.51,273.94,889.51,273.46Zm-.25-12.17L885.34,258l3.14-3.71,3.92,3.3Z"/><path class="cls-2" d="M733.16,335.64a10.16,10.16,0,0,0-1.63-.64,5.64,5.64,0,0,0-1.63-.24,6.65,6.65,0,0,0-3,.75,12.64,12.64,0,0,0-2.71,1.83,10.91,10.91,0,0,0-2,2.32,4.31,4.31,0,0,0-.78,2.22,1.17,1.17,0,0,0,.7,1,9.74,9.74,0,0,0,2.3.62c1,.18,1.88.33,2.76.47s1.66.27,2.34.41a5.38,5.38,0,0,1,3,1.32,3.79,3.79,0,0,1,.82,2.65,5.68,5.68,0,0,1-1.52,3.66,15.05,15.05,0,0,1-4,3.25,23.84,23.84,0,0,1-5.6,2.33,23.59,23.59,0,0,1-6.37.87,15.13,15.13,0,0,1-5-.77,10.62,10.62,0,0,1-3.81-2.24,10.1,10.1,0,0,1-2.45-3.59,12.34,12.34,0,0,1-.88-4.8,15,15,0,0,1,.67-4.69,19.18,19.18,0,0,1,2.12-4.34l2.37,1.14a18.81,18.81,0,0,0-1.6,3.56,11.14,11.14,0,0,0-.57,3.46,7.85,7.85,0,0,0,2.48,6.11q2.47,2.24,7,2.24a20.73,20.73,0,0,0,5.29-.64,23.67,23.67,0,0,0,4.31-1.55,14.33,14.33,0,0,0,3-1.86,5.12,5.12,0,0,0,1.39-1.52,1,1,0,0,0-.49-.64,6,6,0,0,0-1.72-.49l-4.75-.78a12.84,12.84,0,0,1-1.88-.41,4.25,4.25,0,0,1-1.47-.75,3.19,3.19,0,0,1-1-1.26,5.21,5.21,0,0,1-.33-2,9,9,0,0,1,1.06-4.11,15.14,15.14,0,0,1,2.75-3.81,15,15,0,0,1,3.8-2.81,8.78,8.78,0,0,1,4.1-1.09,6.31,6.31,0,0,1,2.11.34,7,7,0,0,1,2,1.11Z"/><path class="cls-2" d="M748.68,345.13a9.86,9.86,0,0,1-1,4.39,17.6,17.6,0,0,1-2.84,4.1,32.84,32.84,0,0,1-4.28,3.89q-2.47,1.92-5.31,3.82l-2.63-2.53a62,62,0,0,0,5.52-3.79,43.92,43.92,0,0,0,4.1-3.56,17,17,0,0,0,2.55-3.12,5,5,0,0,0,.88-2.53,5.63,5.63,0,0,0-.26-1.54,13.09,13.09,0,0,0-.7-1.86,20.19,20.19,0,0,0-1-2c-.39-.69-.82-1.36-1.26-2l2.63-2.63a20.93,20.93,0,0,1,2.78,5A12.74,12.74,0,0,1,748.68,345.13Z"/><path class="cls-2" d="M762.56,349.57a7,7,0,0,1-3.84-.88,5.25,5.25,0,0,1-2-2.27,9.17,9.17,0,0,1-.77-3.2q-.13-1.8-.18-3.66c-.07-1.75-.11-3.65-.13-5.7s0-4.13-.1-6.27-.11-4.27-.18-6.42-.18-4.2-.31-6.17l3.3-1.54c.1,2.78.17,5.28.21,7.48s.05,4.26.07,6.19,0,3.76,0,5.52,0,3.58.1,5.47c0,1,.08,2,.13,2.91a8,8,0,0,0,.46,2.37,3.44,3.44,0,0,0,1.22,1.6,3.88,3.88,0,0,0,2.32.6h1.65v4Z"/><path class="cls-2" d="M778.55,341.31a7.57,7.57,0,0,1-2.81,6,9.15,9.15,0,0,1-3.2,1.65,14.11,14.11,0,0,1-4.1.57h-3.92a1,1,0,0,1-.88-.57,2.65,2.65,0,0,1-.36-1.44,2.51,2.51,0,0,1,.36-1.42,1,1,0,0,1,.88-.54h4.18a8.67,8.67,0,0,0,5-1.22,4.26,4.26,0,0,0,2-2.6,7,7,0,0,0-.69-2.37,12.62,12.62,0,0,0-1.78-2.64,38.46,38.46,0,0,0-2.94-3c-1.17-1.09-2.57-2.28-4.18-3.59a19.64,19.64,0,0,1,.44-3,2.1,2.1,0,0,1,.74-1.24c.9-.58,2-1.24,3.15-2s2.48-1.45,3.82-2.19,2.72-1.49,4.15-2.25l4.15-2.16-.51,4.18c-2.51,1.2-4.84,2.4-7,3.58s-4,2.28-5.5,3.28a42.12,42.12,0,0,1,6.79,7A10.2,10.2,0,0,1,778.55,341.31Z"/><path class="cls-2" d="M815.85,333.37a18.55,18.55,0,0,1,2.6,5.21,17.71,17.71,0,0,1,.85,5.31,16.25,16.25,0,0,1-1,5.81,12.3,12.3,0,0,1-7.37,7.4,17,17,0,0,1-6.14,1,14.61,14.61,0,0,1-4.83-.77,10.68,10.68,0,0,1-3.76-2.25,10,10,0,0,1-2.45-3.61,12.47,12.47,0,0,1-.88-4.82,14.85,14.85,0,0,1,.67-4.64,20.1,20.1,0,0,1,2.12-4.39l2.37,1.19a17.52,17.52,0,0,0-1.6,3.53,11.41,11.41,0,0,0-.57,3.48,7.77,7.77,0,0,0,2.48,6.09,9.91,9.91,0,0,0,6.86,2.22,13.52,13.52,0,0,0,4.49-.7,9.44,9.44,0,0,0,3.4-2,9,9,0,0,0,2.17-3.12,10.4,10.4,0,0,0,.77-4.05,13.44,13.44,0,0,0-.74-4.08,17.53,17.53,0,0,0-2.25-4.44Zm-10.37,1-3.15-2.68,2.32-2.74,3.15,2.63Z"/><path class="cls-2" d="M829,349.05l-3.3.78V315l3.3-1.54Z"/><path class="cls-2" d="M849.22,349.57a14.22,14.22,0,0,1-1.75,4,21.37,21.37,0,0,1-2.94,3.61,37.45,37.45,0,0,1-3.95,3.41q-2.19,1.65-4.72,3.3l-2.58-2.48a69.19,69.19,0,0,0,8.93-6.65,15.41,15.41,0,0,0,4.28-5.52,16.36,16.36,0,0,1-2.76.54c-.88.08-1.61.13-2.19.13a5.71,5.71,0,0,1-3.87-1.34,5.06,5.06,0,0,1-1.55-4,11,11,0,0,1,.49-3.22,11.6,11.6,0,0,1,1.34-2.94,8,8,0,0,1,2-2.17,4.31,4.31,0,0,1,2.58-.85,5,5,0,0,1,2.89.88,7.41,7.41,0,0,1,2.16,2.29,12,12,0,0,1,1.37,3.28,18,18,0,0,1,.59,3.82h3.87v4Zm-2.63-3.92a14,14,0,0,0-.51-2.53,8.9,8.9,0,0,0-.91-2.09,4.56,4.56,0,0,0-1.29-1.42,2.87,2.87,0,0,0-1.67-.51,2.24,2.24,0,0,0-1.32.41,4.44,4.44,0,0,0-1.06,1.06,5.42,5.42,0,0,0-.72,1.42,4.72,4.72,0,0,0-.26,1.49,2.43,2.43,0,0,0,.86,2,3.68,3.68,0,0,0,2.39.69c.73,0,1.5,0,2.33-.12A14,14,0,0,0,846.59,345.65Z"/><path class="cls-2" d="M868.21,349.57a8.43,8.43,0,0,1-3.85-.78,5.4,5.4,0,0,1-2.4-2.63,6.59,6.59,0,0,1-2.55,2.58,8,8,0,0,1-3.84.83h-2.12a1,1,0,0,1-.87-.57,2.65,2.65,0,0,1-.37-1.44,2.51,2.51,0,0,1,.37-1.42,1,1,0,0,1,.87-.54h2.12a6,6,0,0,0,3.74-1c.81-.63,1.26-1.85,1.37-3.63l.05-2,2.89-.72a24,24,0,0,0,.2,3.46,5.41,5.41,0,0,0,.78,2.24,3,3,0,0,0,1.57,1.22,7.86,7.86,0,0,0,2.6.36h2v4Zm-6.09-15.22L859,331.67l2.32-2.74,3.15,2.63Z"/><path class="cls-2" d="M875.38,339.87a8.15,8.15,0,0,1,.67-3.33,8.29,8.29,0,0,1,1.83-2.63,8.6,8.6,0,0,1,2.66-1.73,8.14,8.14,0,0,1,3.14-.62,9.71,9.71,0,0,1,3.72.73,14.39,14.39,0,0,1,3.4,2l-1.29,2.58a13.73,13.73,0,0,0-2.86-1.14,11.62,11.62,0,0,0-3-.36,5.92,5.92,0,0,0-2.09.36,5.59,5.59,0,0,0-1.65,1,4.81,4.81,0,0,0-1.11,1.36,3.43,3.43,0,0,0-.41,1.6,3.86,3.86,0,0,0,.49,1.89,6.61,6.61,0,0,0,2.74,2.71,3.12,3.12,0,0,0,1.36.41,20.91,20.91,0,0,0,4.18-.57c1.76-.38,4-1,6.86-1.75l-.36,3.71a71.07,71.07,0,0,1-10.55,2.68,59,59,0,0,1-9.77.83h-2.58a1,1,0,0,1-.88-.57,2.65,2.65,0,0,1-.36-1.44,2.51,2.51,0,0,1,.36-1.42,1,1,0,0,1,.88-.54h2.63l1.83,0c.64,0,1.5-.06,2.6-.13a7.81,7.81,0,0,1-1.9-2.68A7.56,7.56,0,0,1,875.38,339.87Z"/><rect x="113.49" y="662.26" width="853.03" height="243.72"/><rect class="cls-1" x="113.49" y="662.26" width="243.72" height="243.72"/><path d="M289.51,858.59V841.67a64.39,64.39,0,0,0-64.32-64.32H164.26v-6.77a13.54,13.54,0,0,0,0-27.08v-6.77h20.31V730H169.05l12.4-12.4-4.79-4.79-12.4,12.4V703.82a6.73,6.73,0,0,1,3.39,5.83h6.77a13.54,13.54,0,0,0-27.08,0h6.77a6.74,6.74,0,0,1,3.38-5.83v49.83H147.34v6.77h10.15V872.13h27.08V853.22l13.54-13.54V906h6.77V883.69l70.35-70.35a57.27,57.27,0,0,1,7.51,28.33V906h6.77V865.36h67.7v-6.77ZM171,757a6.78,6.78,0,0,1-6.77,6.77V750.27A6.78,6.78,0,0,1,171,757Zm10.16,27.08V801H164.26V784.12Zm23.69,90v-41.2L220.82,817,216,812.19,177.8,850.42v14.94H164.26V807.81H188V784.12h37.23a57.42,57.42,0,0,1,46.24,23.44Z"/><path class="cls-2" d="M432,767.78h-6V731.66h25.49v5.16H432v10.53h17.38v5.17H432Z"/><path class="cls-2" d="M472.06,741.84h5.67v25.94h-5.47v-3a8.56,8.56,0,0,1-7.58,3.68,9,9,0,0,1-6.88-2.66,10,10,0,0,1-2.52-7.16V741.84H461v15.84A6.37,6.37,0,0,0,462.3,762a4.85,4.85,0,0,0,3.82,1.52,5.41,5.41,0,0,0,4.42-1.85,8.33,8.33,0,0,0,1.52-5.38Z"/><path class="cls-2" d="M490.42,767.78h-5.69V731.66h5.69Z"/><path class="cls-2" d="M503.09,767.78H497.4V731.66h5.69Z"/><path class="cls-2" d="M544.28,751v16.77h-5.69V751.94a6.24,6.24,0,0,0-1.43-4.39,5.24,5.24,0,0,0-4-1.53,5.67,5.67,0,0,0-4.58,1.86A8.13,8.13,0,0,0,527,753.3v14.48h-5.7V741.84h5.47v3.1a9.16,9.16,0,0,1,7.86-3.73,9.49,9.49,0,0,1,7.1,2.64A9.79,9.79,0,0,1,544.28,751Z"/><path class="cls-2" d="M573.4,763.1h1.13v4.68h-2.87a6.48,6.48,0,0,1-3.51-.88,3.73,3.73,0,0,1-1.76-2.52q-2.64,4-8.06,4a9.68,9.68,0,0,1-6.56-2.13,7,7,0,0,1-2.45-5.53,7.23,7.23,0,0,1,2-5.3,10.32,10.32,0,0,1,5.81-2.68l7.28-1.24a1.63,1.63,0,0,0,1.54-1.81,3.69,3.69,0,0,0-1.34-2.93,5.4,5.4,0,0,0-3.65-1.15q-4.71,0-5.64,4.33l-5.37-.6a8.91,8.91,0,0,1,3.63-5.91,12.42,12.42,0,0,1,7.63-2.25q4.86,0,7.58,2.5a8.82,8.82,0,0,1,2.72,6.84v10.58a2.13,2.13,0,0,0,.44,1.51A1.91,1.91,0,0,0,573.4,763.1Zm-18.52-2.8A3.31,3.31,0,0,0,556,763a5,5,0,0,0,3.29,1,6.32,6.32,0,0,0,4.85-2.05,7.53,7.53,0,0,0,1.9-5.3v-1.31l-7.38,1.26a5,5,0,0,0-2.82,1.27A3.32,3.32,0,0,0,554.88,760.3Z"/><path class="cls-2" d="M600.93,753.3v14.48h-5.67V751.94a6.56,6.56,0,0,0-1.31-4.39A4.66,4.66,0,0,0,590.2,746a5.17,5.17,0,0,0-4.3,1.86,8.6,8.6,0,0,0-1.47,5.42v14.48h-5.69V741.84h5.46v3a8.56,8.56,0,0,1,7.43-3.62,9.79,9.79,0,0,1,4.9,1.16,7.65,7.65,0,0,1,3.17,3.32q2.5-4.49,8.18-4.48a9.26,9.26,0,0,1,7,2.64,9.86,9.86,0,0,1,2.56,7.16v16.77h-5.67V751.94a6.61,6.61,0,0,0-1.31-4.39A4.66,4.66,0,0,0,606.7,746a5.17,5.17,0,0,0-4.3,1.86A8.6,8.6,0,0,0,600.93,753.3Z"/><path class="cls-2" d="M635.39,763.85a6.38,6.38,0,0,0,3.91-1.09,6,6,0,0,0,2.11-3.39l5.06,1.08a9.68,9.68,0,0,1-3.81,5.86,12.18,12.18,0,0,1-7.27,2.1q-6.18,0-9.49-3.54t-3.31-10.09q0-6.12,3.45-9.79a11.9,11.9,0,0,1,9.2-3.78,11.17,11.17,0,0,1,8.64,3.44q3.17,3.44,3.17,9.3v2.27H628.21Q628.73,763.85,635.39,763.85Zm-.2-18.16q-5.93,0-6.88,6.63h13Q640.72,745.69,635.19,745.69Z"/><path class="cls-2" d="M430.37,836.57h-3.75V800.44h13.3a12.73,12.73,0,0,1,8.92,3.15,10.35,10.35,0,0,1,3.47,8,11.6,11.6,0,0,1-3.52,8.52,12,12,0,0,1-8.87,3.45h-9.55Zm18.06-25a7.24,7.24,0,0,0-2.47-5.64,8.8,8.8,0,0,0-6.29-2.22h-9.3v16.58h9.3A8.28,8.28,0,0,0,446,817.8,8.46,8.46,0,0,0,448.43,811.55Z"/><path class="cls-2" d="M455.94,823.77q0-6.07,3.3-9.75a12.63,12.63,0,0,1,17.86,0,15.86,15.86,0,0,1,0,19.5,12.67,12.67,0,0,1-17.86,0Q455.94,829.85,455.94,823.77Zm18.58,7.58a11.48,11.48,0,0,0,2.33-7.58,11.61,11.61,0,0,0-2.33-7.61,8.49,8.49,0,0,0-12.64,0,11.66,11.66,0,0,0-2.31,7.61,11.53,11.53,0,0,0,2.3,7.58,7.73,7.73,0,0,0,6.31,2.8A7.82,7.82,0,0,0,474.52,831.35Z"/><path class="cls-2" d="M495.66,837.2a12,12,0,0,1-7.68-2.32,8.14,8.14,0,0,1-3.1-6.2l3.45-.63a7.21,7.21,0,0,0,2.19,4.7,7.74,7.74,0,0,0,5.14,1.5,7.07,7.07,0,0,0,4.55-1.27,4.58,4.58,0,0,0,1.55-3.74q0-3.33-5.17-4.19l-3.5-.55q-7.43-1.23-7.43-7a6.27,6.27,0,0,1,2.56-5.14,12.25,12.25,0,0,1,13.48,0,9.12,9.12,0,0,1,3.21,5.85l-3.2.56a7.6,7.6,0,0,0-2.34-4.24,7.08,7.08,0,0,0-4.49-1.28,7.18,7.18,0,0,0-4.26,1.12,3.49,3.49,0,0,0-1.56,3,3.53,3.53,0,0,0,1.07,2.71,6.32,6.32,0,0,0,3.42,1.32l4,.66q7.68,1.26,7.68,7.23a7.17,7.17,0,0,1-2.59,5.76A10.53,10.53,0,0,1,495.66,837.2Z"/><path class="cls-2" d="M515.13,806.34h-3.5v-5.9h3.5Zm0,30.23h-3.5V810.92h3.5Z"/><path class="cls-2" d="M520.17,813.87v-3h4.74v-8.46h3.52v8.46h7v3h-7v15.52a4.94,4.94,0,0,0,.8,3.22,3.51,3.51,0,0,0,2.76.91h4.08v3.05h-4.51a6.63,6.63,0,0,1-4.93-1.74,6.75,6.75,0,0,1-1.72-5v-16Z"/><path class="cls-2" d="M544.61,806.34H541.1v-5.9h3.51Zm0,30.23H541.1V810.92h3.51Z"/><path class="cls-2" d="M551.08,823.77q0-6.07,3.3-9.75a12.63,12.63,0,0,1,17.86,0,15.86,15.86,0,0,1,0,19.5,12.67,12.67,0,0,1-17.86,0Q551.08,829.85,551.08,823.77Zm18.58,7.58a11.48,11.48,0,0,0,2.33-7.58,11.61,11.61,0,0,0-2.33-7.61,8.49,8.49,0,0,0-12.64,0,13.67,13.67,0,0,0,0,15.19,7.73,7.73,0,0,0,6.31,2.8A7.82,7.82,0,0,0,569.66,831.35Z"/><path class="cls-2" d="M603.45,820v16.6h-3.53v-16a7.6,7.6,0,0,0-1.74-5.34,6.4,6.4,0,0,0-5-1.89,7,7,0,0,0-5.69,2.34c-1.3,1.57-1.94,3.85-1.94,6.86v14h-3.5V810.92h3.5v3.4q2.61-4,8.21-4a8.91,8.91,0,0,1,9.65,9.65Z"/></g></svg>