<?xml version="1.0" encoding="utf-8"?>
<!-- Generator: Adobe Illustrator 25.0.0, SVG Export Plug-In . SVG Version: 6.00 Build 0)  -->
<svg version="1.1" id="Graphic" xmlns="http://www.w3.org/2000/svg" xmlns:xlink="http://www.w3.org/1999/xlink" x="0px" y="0px"
	 viewBox="0 0 1080 1920" style="enable-background:new 0 0 1080 1920;" xml:space="preserve">
<style type="text/css">
	.st0{fill:#082B96;stroke:#FFFFFF;stroke-width:2;stroke-miterlimit:10;}
	.st1{fill:none;stroke:url(#SVGID_1_);stroke-miterlimit:10;}
	.st2{fill:none;stroke:url(#SVGID_2_);stroke-miterlimit:10;}
	.st3{fill:none;stroke:url(#SVGID_3_);stroke-miterlimit:10;}
	.st4{fill:none;stroke:url(#SVGID_4_);stroke-miterlimit:10;}
	.st5{fill:none;stroke:url(#SVGID_5_);stroke-miterlimit:10;}
	.st6{fill:none;stroke:url(#SVGID_6_);stroke-miterlimit:10;}
	.st7{fill:none;stroke:url(#SVGID_7_);stroke-miterlimit:10;}
	.st8{fill:none;stroke:url(#SVGID_8_);stroke-miterlimit:10;}
	.st9{fill:none;stroke:url(#SVGID_9_);stroke-miterlimit:10;}
	.st10{fill:none;stroke:url(#SVGID_10_);stroke-miterlimit:10;}
	.st11{fill:none;stroke:url(#SVGID_11_);stroke-miterlimit:10;}
	.st12{fill:none;stroke:url(#SVGID_12_);stroke-miterlimit:10;}
	.st13{fill:#4672E2;}
	.st14{fill:#FFFFFF;}
</style>
<path class="st0" d="M157.7,1757.2l111.7-15.8c37.6-5.3,65.5-37.5,65.5-75.4V921.5l-177.2-78"/>
<path class="st0" d="M921,843.5c0,210.4-170.6,381-381,381l0,0c-210.4,0-381-170.6-381-381"/>
<path class="st0" d="M922.3,1757.2l-15.8-111.7c-5.3-37.6-37.5-65.5-75.4-65.5H248.9c-37.9,0-70.1,27.9-75.4,65.5l-15.8,111.7"/>
<linearGradient id="SVGID_1_" gradientUnits="userSpaceOnUse" x1="0" y1="1757.24" x2="1080" y2="1757.24" gradientTransform="matrix(1 0 0 -1 0 1920)">
	<stop  offset="0" style="stop-color:#FFFFFF;stop-opacity:0"/>
	<stop  offset="0.51" style="stop-color:#FFFFFF"/>
	<stop  offset="1" style="stop-color:#FFFFFF;stop-opacity:0"/>
</linearGradient>
<line class="st1" x1="0" y1="162.8" x2="1080" y2="162.8"/>
<linearGradient id="SVGID_2_" gradientUnits="userSpaceOnUse" x1="0" y1="1696.11" x2="1080" y2="1696.11" gradientTransform="matrix(1 0 0 -1 0 1920)">
	<stop  offset="0" style="stop-color:#FFFFFF;stop-opacity:0"/>
	<stop  offset="0.51" style="stop-color:#FFFFFF"/>
	<stop  offset="1" style="stop-color:#FFFFFF;stop-opacity:0"/>
</linearGradient>
<line class="st2" x1="0" y1="223.9" x2="1080" y2="223.9"/>
<linearGradient id="SVGID_3_" gradientUnits="userSpaceOnUse" x1="0" y1="1634.98" x2="1080" y2="1634.98" gradientTransform="matrix(1 0 0 -1 0 1920)">
	<stop  offset="0" style="stop-color:#FFFFFF;stop-opacity:0"/>
	<stop  offset="0.51" style="stop-color:#FFFFFF"/>
	<stop  offset="1" style="stop-color:#FFFFFF;stop-opacity:0"/>
</linearGradient>
<line class="st3" x1="0" y1="285" x2="1080" y2="285"/>
<linearGradient id="SVGID_4_" gradientUnits="userSpaceOnUse" x1="0" y1="285.08" x2="1080" y2="285.08" gradientTransform="matrix(1 0 0 -1 0 1920)">
	<stop  offset="0" style="stop-color:#FFFFFF;stop-opacity:0"/>
	<stop  offset="0.51" style="stop-color:#FFFFFF"/>
	<stop  offset="1" style="stop-color:#FFFFFF;stop-opacity:0"/>
</linearGradient>
<line class="st4" x1="0" y1="1634.9" x2="1080" y2="1634.9"/>
<linearGradient id="SVGID_5_" gradientUnits="userSpaceOnUse" x1="0" y1="223.92" x2="1080" y2="223.92" gradientTransform="matrix(1 0 0 -1 0 1920)">
	<stop  offset="0" style="stop-color:#FFFFFF;stop-opacity:0"/>
	<stop  offset="0.51" style="stop-color:#FFFFFF"/>
	<stop  offset="1" style="stop-color:#FFFFFF;stop-opacity:0"/>
</linearGradient>
<line class="st5" x1="0" y1="1696.1" x2="1080" y2="1696.1"/>
<linearGradient id="SVGID_6_" gradientUnits="userSpaceOnUse" x1="0" y1="162.76" x2="1080" y2="162.76" gradientTransform="matrix(1 0 0 -1 0 1920)">
	<stop  offset="0" style="stop-color:#FFFFFF;stop-opacity:0"/>
	<stop  offset="0.51" style="stop-color:#FFFFFF"/>
	<stop  offset="1" style="stop-color:#FFFFFF;stop-opacity:0"/>
</linearGradient>
<line class="st6" x1="0" y1="1757.2" x2="1080" y2="1757.2"/>
<linearGradient id="SVGID_7_" gradientUnits="userSpaceOnUse" x1="-5518.4102" y1="4381.3301" x2="-3598.4102" y2="4381.3301" gradientTransform="matrix(6.123234e-17 1 1 -6.123234e-17 -4223.5898 5518.4102)">
	<stop  offset="0" style="stop-color:#FFFFFF;stop-opacity:0"/>
	<stop  offset="0.51" style="stop-color:#FFFFFF"/>
	<stop  offset="1" style="stop-color:#FFFFFF;stop-opacity:0"/>
</linearGradient>
<line class="st7" x1="157.7" y1="0" x2="157.7" y2="1920"/>
<linearGradient id="SVGID_8_" gradientUnits="userSpaceOnUse" x1="-5518.4102" y1="4442.4902" x2="-3598.4102" y2="4442.4902" gradientTransform="matrix(6.123234e-17 1 1 -6.123234e-17 -4223.5898 5518.4102)">
	<stop  offset="0" style="stop-color:#FFFFFF;stop-opacity:0"/>
	<stop  offset="0.51" style="stop-color:#FFFFFF"/>
	<stop  offset="1" style="stop-color:#FFFFFF;stop-opacity:0"/>
</linearGradient>
<line class="st8" x1="218.9" y1="0" x2="218.9" y2="1920"/>
<linearGradient id="SVGID_9_" gradientUnits="userSpaceOnUse" x1="-5518.4102" y1="4503.5801" x2="-3598.4102" y2="4503.5801" gradientTransform="matrix(6.123234e-17 1 1 -6.123234e-17 -4223.5898 5518.4102)">
	<stop  offset="0" style="stop-color:#FFFFFF;stop-opacity:0"/>
	<stop  offset="0.51" style="stop-color:#FFFFFF"/>
	<stop  offset="1" style="stop-color:#FFFFFF;stop-opacity:0"/>
</linearGradient>
<line class="st9" x1="280" y1="0" x2="280" y2="1920"/>
<linearGradient id="SVGID_10_" gradientUnits="userSpaceOnUse" x1="-5518.4102" y1="5145.8501" x2="-3598.4102" y2="5145.8501" gradientTransform="matrix(6.123234e-17 1 1 -6.123234e-17 -4223.5898 5518.4102)">
	<stop  offset="0" style="stop-color:#FFFFFF;stop-opacity:0"/>
	<stop  offset="0.51" style="stop-color:#FFFFFF"/>
	<stop  offset="1" style="stop-color:#FFFFFF;stop-opacity:0"/>
</linearGradient>
<line class="st10" x1="922.3" y1="0" x2="922.3" y2="1920"/>
<linearGradient id="SVGID_11_" gradientUnits="userSpaceOnUse" x1="-5518.4102" y1="5084.6899" x2="-3598.4102" y2="5084.6899" gradientTransform="matrix(6.123234e-17 1 1 -6.123234e-17 -4223.5898 5518.4102)">
	<stop  offset="0" style="stop-color:#FFFFFF;stop-opacity:0"/>
	<stop  offset="0.51" style="stop-color:#FFFFFF"/>
	<stop  offset="1" style="stop-color:#FFFFFF;stop-opacity:0"/>
</linearGradient>
<line class="st11" x1="861.1" y1="0" x2="861.1" y2="1920"/>
<linearGradient id="SVGID_12_" gradientUnits="userSpaceOnUse" x1="-5518.4102" y1="5023.52" x2="-3598.4102" y2="5023.52" gradientTransform="matrix(6.123234e-17 1 1 -6.123234e-17 -4223.5898 5518.4102)">
	<stop  offset="0" style="stop-color:#FFFFFF;stop-opacity:0"/>
	<stop  offset="0.51" style="stop-color:#FFFFFF"/>
	<stop  offset="1" style="stop-color:#FFFFFF;stop-opacity:0"/>
</linearGradient>
<line class="st12" x1="799.9" y1="0" x2="799.9" y2="1920"/>
<path class="st13" d="M403.3,439.6h-4.7l-1,2.6h-1.5l4.1-10.7h1.5l4.1,10.7h-1.6L403.3,439.6z M399.1,438.4h3.7l-1.8-5L399.1,438.4z
	"/>
<path class="st13" d="M408.2,442.2h-1.4v-7.6h1.3v1.4c0.4-0.9,1.2-1.4,2.2-1.4h0.6v1.3h-0.6c-0.6,0-1.2,0.3-1.6,0.8
	c-0.4,0.7-0.6,1.5-0.6,2.3L408.2,442.2z"/>
<path class="st13" d="M412.1,435.7v-1.1h1.3v-2.5h1.4v2.5h1.9v1.1h-1.9v4.3c0,0.3,0,0.6,0.2,0.8c0.2,0.2,0.5,0.3,0.7,0.2h1.2v1.2
	h-1.4c-0.6,0-1.1-0.2-1.6-0.5c-0.4-0.4-0.6-1-0.5-1.5v-4.5H412.1z"/>
<path class="st13" d="M419.3,433.3H418v-1.8h1.4L419.3,433.3z M419.3,442.2H418v-7.6h1.4L419.3,442.2z"/>
<path class="st13" d="M423.9,442.4c-0.8,0-1.7-0.2-2.4-0.7c-0.6-0.4-1-1.1-1-1.9l1.4-0.2c0,0.5,0.2,0.9,0.6,1.2
	c0.4,0.3,0.9,0.4,1.4,0.4c0.4,0,0.9-0.1,1.2-0.3c0.3-0.2,0.4-0.6,0.4-1c0-0.6-0.5-1-1.3-1.1l-1.1-0.2c-0.6-0.1-1.2-0.3-1.7-0.7
	c-0.4-0.4-0.6-0.9-0.6-1.4c0-0.6,0.3-1.2,0.8-1.6c1.3-0.8,2.9-0.8,4.2,0c0.6,0.4,0.9,1.1,1,1.8l-1.2,0.2c-0.1-0.4-0.3-0.8-0.6-1.1
	c-0.7-0.4-1.6-0.5-2.3,0c-0.3,0.2-0.4,0.5-0.4,0.8c0,0.3,0.1,0.5,0.3,0.7c0.3,0.2,0.6,0.3,0.9,0.4l1.2,0.2c1.5,0.2,2.3,1,2.3,2.2
	c0,0.7-0.3,1.3-0.8,1.8C425.5,442.2,424.7,442.5,423.9,442.4z"/>
<path class="st13" d="M427.3,435.7v-1.1h1.3v-2.5h1.4v2.5h1.9v1.1H430v4.3c0,0.3,0,0.6,0.2,0.8c0.2,0.2,0.5,0.3,0.7,0.2h1.2v1.2
	h-1.4c-0.6,0-1.1-0.2-1.6-0.5c-0.4-0.4-0.6-1-0.5-1.5v-4.5H427.3z"/>
<path class="st13" d="M434.5,433.3h-1.4v-1.8h1.4V433.3z M434.5,442.2h-1.4v-7.6h1.4V442.2z"/>
<path class="st13" d="M439.5,441.2c0.5,0,1-0.2,1.4-0.5c0.4-0.4,0.6-0.8,0.6-1.4l1.3,0.2c-0.1,0.8-0.4,1.6-1.1,2.1
	c-1.5,1.1-3.6,1-4.9-0.3c-0.7-0.8-1-1.8-1-2.9c-0.1-1.1,0.3-2.1,1-2.9c0.7-0.7,1.6-1.1,2.6-1.1c0.8,0,1.7,0.2,2.3,0.7
	c0.6,0.5,1,1.3,1.1,2.1l-1.4,0.1c0-1-0.9-1.8-1.9-1.8c0,0-0.1,0-0.1,0c-0.6,0-1.2,0.3-1.6,0.8c-0.4,0.6-0.6,1.4-0.6,2.1
	c0,0.7,0.2,1.5,0.6,2.1C438.3,441,438.9,441.3,439.5,441.2z"/>
<path class="st13" d="M450.7,441.1h0.4v1.1h-0.7c-0.4,0-0.7-0.1-1-0.3c-0.3-0.2-0.4-0.5-0.5-0.8c-0.5,0.8-1.4,1.3-2.4,1.3
	c-0.7,0-1.4-0.2-1.9-0.6c-0.5-0.4-0.7-1-0.7-1.6c0-0.6,0.2-1.1,0.6-1.6c0.5-0.4,1.1-0.7,1.7-0.8l2.2-0.4c0.3,0,0.5-0.3,0.5-0.5
	c0-0.4-0.2-0.8-0.5-1c-0.3-0.3-0.8-0.4-1.2-0.4c-0.4,0-0.9,0.1-1.2,0.4c-0.3,0.3-0.5,0.7-0.6,1.1l-1.3-0.1c0.1-0.7,0.5-1.3,1-1.7
	c0.6-0.4,1.4-0.7,2.2-0.6c0.8,0,1.6,0.2,2.2,0.7c0.5,0.5,0.8,1.2,0.8,2v3.5c-0.1,0.2,0.1,0.5,0.3,0.6
	C450.5,441.1,450.6,441.1,450.7,441.1L450.7,441.1z M445.1,440.1c0,0.4,0.1,0.7,0.4,0.9c0.3,0.2,0.7,0.3,1.1,0.3
	c0.6,0,1.2-0.2,1.6-0.7c0.4-0.5,0.6-1.1,0.6-1.8v-0.4l-2.5,0.4c-0.3,0-0.7,0.2-0.9,0.4C445.2,439.5,445.1,439.8,445.1,440.1
	L445.1,440.1z"/>
<path class="st13" d="M453.4,442.2H452v-10.7h1.4L453.4,442.2z"/>
<path class="st13" d="M456.6,442.2h-1.4v-10.7h1.4V442.2z"/>
<path class="st13" d="M460.4,443l0.2-0.7l-3-7.7h1.4l2.3,6l2.3-6h1.4l-3.3,8.5c-0.2,0.6-0.5,1.1-1,1.5c-0.5,0.3-1,0.5-1.6,0.4h-0.8
	V444h0.8c0.3,0,0.6-0.1,0.9-0.2C460.2,443.5,460.3,443.3,460.4,443z"/>
<path class="st13" d="M470.6,442.2h-1.5v-10.7h7.5v1.3h-6v3.5h5.4v1.2h-5.4V442.2z"/>
<path class="st13" d="M478.9,442.2h-1.4v-7.6h1.3v1.4c0.4-0.9,1.2-1.4,2.2-1.4h0.6v1.3H481c-0.6,0-1.2,0.3-1.6,0.8
	c-0.4,0.7-0.6,1.5-0.6,2.3L478.9,442.2z"/>
<path class="st13" d="M482,438.4c-0.1-1.1,0.3-2.1,1-2.9c0.7-0.8,1.7-1.2,2.7-1.1c1,0,2,0.4,2.7,1.1c0.7,0.8,1.1,1.8,1,2.9
	c0.1,1.1-0.3,2.1-1,2.9c-0.7,0.7-1.7,1.2-2.7,1.1c-1,0-2-0.4-2.7-1.1C482.3,440.5,481.9,439.5,482,438.4z M487.5,440.5
	c0.8-1.3,0.8-2.9,0-4.2c-0.4-0.5-1.1-0.8-1.7-0.8c-0.7,0-1.3,0.3-1.7,0.8c-0.4,0.6-0.7,1.3-0.6,2.1c0,0.7,0.2,1.5,0.6,2.1
	c0.9,1,2.4,1,3.3,0.1C487.4,440.6,487.4,440.6,487.5,440.5z"/>
<path class="st13" d="M497.1,438v4.2h-1.4v-4.7c0-0.5-0.1-1-0.4-1.4c-0.3-0.3-0.8-0.5-1.2-0.5c-0.5,0-1.1,0.2-1.4,0.6
	c-0.4,0.5-0.5,1.2-0.5,1.8v4.2h-1.4v-7.6h1.3v0.9c0.5-0.7,1.4-1.2,2.2-1.1c0.5,0,1,0.1,1.5,0.4c0.4,0.2,0.7,0.6,0.9,1
	c0.5-0.9,1.4-1.4,2.5-1.4c0.8,0,1.5,0.2,2.1,0.8c0.5,0.6,0.8,1.3,0.7,2.1v5h-1.4v-4.7c0-0.5-0.1-1-0.4-1.4c-0.3-0.3-0.8-0.5-1.2-0.5
	c-0.5,0-1.1,0.2-1.4,0.6C497.3,436.7,497.1,437.4,497.1,438z"/>
<path class="st13" d="M508.7,442.2h-1.5v-10.7h1.5V442.2z"/>
<path class="st13" d="M512.1,442.2h-1.4v-7.6h1.3v1.4c0.4-0.9,1.2-1.4,2.2-1.4h0.6v1.3h-0.6c-0.6,0-1.2,0.3-1.6,0.8
	c-0.4,0.7-0.6,1.5-0.6,2.3L512.1,442.2z"/>
<path class="st13" d="M522.1,441.1h0.4v1.1h-0.7c-0.4,0-0.7-0.1-1-0.3c-0.3-0.2-0.4-0.5-0.5-0.8c-0.5,0.8-1.4,1.3-2.4,1.3
	c-0.7,0-1.4-0.2-1.9-0.6c-0.5-0.4-0.8-1-0.7-1.6c0-0.6,0.2-1.1,0.6-1.6c0.5-0.4,1.1-0.7,1.7-0.8l2.2-0.4c0.3,0,0.5-0.3,0.5-0.5
	c0-0.4-0.2-0.7-0.4-1c-0.3-0.3-0.8-0.4-1.2-0.4c-0.4,0-0.9,0.1-1.2,0.4c-0.3,0.3-0.6,0.6-0.6,1.1l-1.3-0.1c0.1-0.7,0.5-1.3,1-1.7
	c0.6-0.4,1.4-0.7,2.2-0.6c0.8,0,1.6,0.2,2.2,0.7c0.5,0.5,0.8,1.2,0.8,2v3.5c0,0.2,0,0.3,0.1,0.5C521.8,441.1,522,441.1,522.1,441.1z
	 M516.5,440.1c0,0.4,0.1,0.7,0.4,0.9c0.3,0.2,0.7,0.3,1.1,0.3c0.6,0,1.2-0.2,1.6-0.7c0.4-0.5,0.6-1.1,0.6-1.8v-0.4l-2.5,0.4
	c-0.3,0-0.7,0.2-0.9,0.4C516.7,439.5,516.5,439.8,516.5,440.1L516.5,440.1z"/>
<path class="st13" d="M530,437.3v5h-1.4v-4.7c0-0.5-0.1-1-0.5-1.4c-0.4-0.3-0.8-0.5-1.3-0.5c-0.6,0-1.1,0.2-1.5,0.6
	c-0.4,0.5-0.6,1.2-0.5,1.8v4.2h-1.4v-7.6h1.3v1c0.5-0.8,1.4-1.2,2.4-1.1c0.8,0,1.5,0.2,2.1,0.8C529.7,435.8,530,436.5,530,437.3z"/>
<path class="st13" d="M402.2,456.5h-6v-8.8h5.9v1h-4.7v2.8h4.2v1h-4.2v2.9h4.8L402.2,456.5z"/>
<path class="st13" d="M406.5,456.7c-0.9,0-1.8-0.2-2.5-0.8c-0.6-0.5-1-1.3-1-2.1l1.2-0.2c0,0.6,0.2,1.1,0.6,1.5
	c0.5,0.4,1.1,0.6,1.6,0.5c0.5,0,1-0.1,1.4-0.4c0.3-0.3,0.5-0.7,0.5-1.1c0-0.3-0.1-0.7-0.4-0.9c-0.3-0.3-0.8-0.4-1.2-0.5l-1.2-0.2
	c-0.7-0.1-1.3-0.4-1.8-0.9c-0.8-1-0.7-2.4,0.2-3.3c0,0,0,0,0,0c0.6-0.5,1.4-0.7,2.1-0.7c0.8,0,1.6,0.2,2.2,0.7
	c0.6,0.5,0.9,1.1,0.9,1.9l-1.2,0.1c0-1-0.8-1.7-1.8-1.7c-0.1,0-0.1,0-0.2,0c-0.5,0-0.9,0.1-1.3,0.4c-0.6,0.5-0.6,1.4-0.1,1.9
	c0.3,0.3,0.7,0.4,1.1,0.5l1.4,0.3c0.6,0.1,1.2,0.4,1.7,0.8c0.4,0.4,0.6,1,0.5,1.5c0,0.7-0.3,1.4-0.8,1.9
	C408.1,456.4,407.3,456.7,406.5,456.7z"/>
<path class="st13" d="M409.9,447.8h6.6v1h-2.7v7.7h-1.2v-7.7h-2.7V447.8z"/>
<path class="st13" d="M423.9,450.1c0-0.4-0.1-0.8-0.4-1.1c-0.3-0.3-0.7-0.4-1.1-0.4c-0.5,0-1.1,0.2-1.4,0.6
	c-0.3,0.5-0.5,1.1-0.4,1.8l-1.1-0.1c-0.1-0.9,0.2-1.7,0.8-2.4c0.6-0.6,1.4-0.9,2.3-0.9c0.7,0,1.4,0.2,2,0.7c0.5,0.5,0.8,1.1,0.7,1.8
	c0,0.6-0.2,1.1-0.5,1.6c-0.4,0.6-0.9,1.2-1.4,1.7l-2.3,2.1h4.5v1h-6v-1l3.1-2.9c0.4-0.4,0.8-0.8,1.1-1.3
	C423.8,451,423.9,450.5,423.9,450.1z"/>
<path class="st13" d="M426.3,452.1c-0.1-1.2,0.2-2.3,0.9-3.3c1-1.3,2.9-1.6,4.2-0.6c0.2,0.2,0.4,0.4,0.6,0.6c1.2,2.1,1.2,4.6,0,6.6
	c-1,1.3-2.9,1.6-4.2,0.6c-0.2-0.2-0.5-0.4-0.6-0.6C426.6,454.5,426.3,453.3,426.3,452.1z M431.1,454.8c0.4-0.8,0.6-1.7,0.5-2.6
	c0.1-0.9-0.1-1.8-0.5-2.6c-0.5-0.9-1.5-1.2-2.4-0.7c-0.3,0.2-0.5,0.4-0.7,0.7c-0.4,0.8-0.6,1.7-0.5,2.6c-0.1,0.9,0.1,1.8,0.5,2.6
	c0.5,0.9,1.5,1.2,2.4,0.7C430.7,455.3,431,455,431.1,454.8L431.1,454.8z"/>
<path class="st13" d="M439.4,456.5H434v-1h2.1v-5.6c-0.3,0.2-0.7,0.3-1,0.2H434v-1h1.1c0.3,0,0.6-0.1,0.8-0.3c0.2-0.3,0.3-0.7,0.3-1
	h1.1v7.8h2.1L439.4,456.5z"/>
<path class="st13" d="M445,454c0-0.4-0.1-0.8-0.5-1.1c-0.4-0.3-0.8-0.4-1.3-0.4h-0.8v-0.9h0.8c0.4,0,0.8-0.1,1.1-0.4
	c0.3-0.3,0.4-0.7,0.4-1.2c0-0.4-0.1-0.7-0.4-1c-0.3-0.3-0.7-0.4-1.1-0.4c-0.5,0-1,0.2-1.3,0.5c-0.3,0.4-0.5,0.8-0.5,1.3l-1.1-0.2
	c0-0.7,0.3-1.4,0.9-1.9c0.6-0.5,1.3-0.7,2.1-0.7c0.7,0,1.4,0.2,2,0.6c0.5,0.4,0.8,1,0.7,1.7c0,0.4-0.1,0.8-0.3,1.2
	c-0.2,0.4-0.5,0.6-0.9,0.8c0.4,0.1,0.8,0.4,1.1,0.8c0.3,0.4,0.4,0.8,0.4,1.2c0,0.8-0.3,1.5-0.8,2c-0.6,0.5-1.4,0.8-2.2,0.7
	c-0.8,0-1.6-0.2-2.2-0.7c-0.6-0.4-1-1.1-1-1.8l1.2-0.3c0,0.5,0.2,0.9,0.6,1.3c0.4,0.3,0.9,0.5,1.4,0.5c0.5,0,1-0.1,1.4-0.5
	C444.9,455,445,454.5,445,454z"/>
<rect x="280.1" y="244" class="st13" width="3.6" height="42.9"/>
<rect x="281.9" y="260.1" class="st13" width="12.5" height="3.6"/>
<rect x="279.9" y="255.3" transform="matrix(0.7071 -0.7071 0.7071 0.7071 -97.8157 277.9866)" class="st13" width="13.6" height="3.6"/>
<rect x="274.7" y="272.6" class="st13" width="6.1" height="3.6"/>
<path class="st13" d="M283.6,281.5v-3.6c2,0,3.6-1.6,3.6-3.6s-1.6-3.6-3.6-3.6v-3.6c3.9,0,7.1,3.2,7.1,7.1
	C290.8,278.3,287.6,281.5,283.6,281.5L283.6,281.5z"/>
<path class="st13" d="M289,249.4h-3.6c0-2-1.6-3.6-3.6-3.6s-3.6,1.6-3.6,3.6l0,0h-3.6c0-3.9,3.2-7.1,7.1-7.1
	C285.8,242.2,289,245.4,289,249.4C289,249.4,289,249.4,289,249.4L289,249.4z"/>
<path class="st13" d="M369.2,406.5h-3.6c0.3-11.8-9.1-21.6-20.9-21.8c-11.8-0.3-21.6,9.1-21.8,20.9c0,0.3,0,0.6,0,0.9h-3.6
	c-0.3-13.8,10.7-25.2,24.4-25.4c13.8-0.3,25.2,10.7,25.4,24.4C369.2,405.9,369.2,406.2,369.2,406.5z"/>
<rect x="295.1" y="319" transform="matrix(0.7071 -0.7071 0.7071 0.7071 -132.2583 322.295)" class="st13" width="55.6" height="3.6"/>
<path class="st13" d="M444.4,410.1H301.5V318l-7.1,7.1v10h-14.3v-50h35.7c18.7,0,33.9,15.2,33.9,33.9v8.9h60.7
	c18.7,0,33.9,15.2,33.9,33.9L444.4,410.1z M305.1,406.5h135.7v-44.6c0-16.8-13.6-30.3-30.4-30.4h-64.3V319
	c0-16.8-13.6-30.3-30.4-30.4h-32.1v42.9h7.1v-7.9l20.2-20.1l2.5,2.5l-8.4,8.4L305.1,406.5z"/>
<polygon class="st13" points="442.6,399.4 406.9,399.4 406.9,329.7 410.4,329.7 410.4,395.8 442.6,395.8 "/>
<path class="st13" d="M371.1,377.9c-13.8,0-25-11.2-25-25l0,0v-25h50v25C396.1,366.7,384.9,377.9,371.1,377.9L371.1,377.9z
	 M349.7,331.5v21.4c0,11.8,9.6,21.4,21.4,21.4c11.8,0,21.4-9.6,21.4-21.4v-21.4H349.7z"/>
<path class="st13" d="M296.1,301.2h-16.1v-16.1h16.1V301.2z M283.6,297.6h8.9v-8.9h-8.9V297.6z"/>
<polygon class="st13" points="239,383.3 222.9,383.3 234.3,365.4 224.7,365.4 224.7,361.9 240.8,361.9 229.4,379.7 239,379.7 "/>
<polygon class="st13" points="258.6,383.3 244.4,383.3 244.4,361.9 258.6,361.9 258.6,365.4 247.9,365.4 248,379.7 258.6,379.7 "/>
<rect x="246.1" y="370.8" class="st13" width="12.5" height="3.6"/>
<polygon class="st13" points="278.3,383.3 264,383.3 264,361.9 278.3,361.9 278.3,365.4 267.6,365.4 267.6,379.7 278.3,379.7 "/>
<rect x="265.8" y="370.8" class="st13" width="12.5" height="3.6"/>
<polygon class="st13" points="258.6,410.1 244.4,410.1 244.4,388.7 258.6,388.7 258.6,392.2 247.9,392.2 247.9,406.5 258.6,406.5 
	"/>
<rect x="246.1" y="397.6" class="st13" width="12.5" height="3.6"/>
<polygon class="st13" points="280.1,410.1 276.6,410.1 267.6,395.6 267.6,410.1 264,410.1 264,388.7 267.4,388.7 276.5,403.1 
	276.5,388.7 280.1,388.7 "/>
<path class="st13" d="M321.1,469c-10.8,0-19.6-8.8-19.6-19.6v-17.8h3.6v17.9c0,8.9,7.2,16.1,16.1,16.1s16.1-7.2,16.1-16.1v-17.9h3.6
	v17.9C340.8,460.2,332,469,321.1,469z"/>
<polygon class="st13" points="361.5,468.5 359,466 372.9,452 372.9,442.2 376.5,442.2 376.5,453.5 "/>
<rect x="319.4" y="431.5" class="st13" width="3.6" height="7.1"/>
<rect x="372.9" y="431.5" class="st13" width="3.6" height="7.1"/>
<rect x="337.2" y="472.6" class="st13" width="3.6" height="7.1"/>
<rect x="344.4" y="472.6" class="st13" width="3.6" height="7.1"/>
<polygon class="st13" points="340.3,449.6 337.7,447.1 346.1,438.7 346.1,431.5 349.7,431.5 349.7,440.1 "/>
<polygon class="st13" points="340.3,460.3 337.7,457.8 353.3,442.2 353.3,431.5 356.9,431.5 356.9,443.7 "/>
<polygon class="st13" points="342.3,469 337.2,469 337.2,431.5 340.8,431.5 340.8,465.4 360.4,445.8 360.4,431.5 364,431.5 
	364,447.3 "/>
<rect x="861.1" y="162.8" class="st14" width="61.1" height="15.3"/>
<rect x="861.1" y="208.6" class="st14" width="61.1" height="15.3"/>
<rect x="858.4" y="185.6" transform="matrix(0.7721 -0.6355 0.6355 0.7721 80.4015 610.7425)" class="st14" width="66.6" height="15.3"/>
<rect x="799.9" y="223.9" class="st14" width="61.1" height="15.3"/>
<rect x="799.9" y="269.7" class="st14" width="61.1" height="15.3"/>
<rect x="797.2" y="246.8" transform="matrix(0.7721 -0.6355 0.6355 0.7721 27.6017 585.7991)" class="st14" width="66.6" height="15.3"/>
<rect x="218.9" y="1634.9" class="st14" width="61.1" height="15.3"/>
<rect x="218.9" y="1680.8" class="st14" width="61.1" height="15.3"/>
<rect x="216.2" y="1657.8" transform="matrix(0.7721 -0.6355 0.6355 0.7721 -1001.5796 538.21)" class="st14" width="66.6" height="15.3"/>
<rect x="157.7" y="1696.1" class="st14" width="61.1" height="15.3"/>
<rect x="157.7" y="1741.9" class="st14" width="61.1" height="15.3"/>
<rect x="155.1" y="1719" transform="matrix(0.7721 -0.6355 0.6355 0.7721 -1054.3793 513.2666)" class="st14" width="66.6" height="15.3"/>
</svg>
