<svg xmlns="http://www.w3.org/2000/svg" xmlns:xlink="http://www.w3.org/1999/xlink" viewBox="0 0 1920 1080"><defs><style>.cls-1{fill:#003691;}.cls-2{fill:#fff;}.cls-3{fill:#4672e2;}.cls-10,.cls-11,.cls-4,.cls-5,.cls-6,.cls-7,.cls-8,.cls-9{fill:none;stroke-miterlimit:10;}.cls-4{stroke:url(#linear-gradient);}.cls-5{stroke:url(#linear-gradient-2);}.cls-6{stroke:url(#linear-gradient-3);}.cls-7{stroke:url(#linear-gradient-4);}.cls-8{stroke:url(#linear-gradient-5);}.cls-9{stroke:url(#linear-gradient-6);}.cls-10{stroke:url(#linear-gradient-7);}.cls-11{stroke:url(#linear-gradient-8);}</style><linearGradient id="linear-gradient" y1="929.76" x2="1920" y2="929.76" gradientUnits="userSpaceOnUse"><stop offset="0" stop-color="#fff" stop-opacity="0"/><stop offset="0.51" stop-color="#fff"/><stop offset="1" stop-color="#fff" stop-opacity="0"/></linearGradient><linearGradient id="linear-gradient-2" y1="836.26" y2="836.26" xlink:href="#linear-gradient"/><linearGradient id="linear-gradient-3" x1="6764.26" y1="-8727.83" x2="7844.26" y2="-8727.83" gradientTransform="translate(10203.74 7844.26) rotate(-90)" xlink:href="#linear-gradient"/><linearGradient id="linear-gradient-4" x1="6764.26" y1="-9853.19" x2="7844.26" y2="-9853.19" gradientTransform="translate(10203.74 7844.26) rotate(-90)" xlink:href="#linear-gradient"/><linearGradient id="linear-gradient-5" x1="6764.26" y1="-8634.31" x2="7844.26" y2="-8634.31" gradientTransform="translate(10203.74 7844.26) rotate(-90)" xlink:href="#linear-gradient"/><linearGradient id="linear-gradient-6" x1="6764.26" y1="-9759.66" x2="7844.26" y2="-9759.66" gradientTransform="translate(10203.74 7844.26) rotate(-90)" xlink:href="#linear-gradient"/><linearGradient id="linear-gradient-7" y1="150.24" y2="150.24" xlink:href="#linear-gradient"/><linearGradient id="linear-gradient-8" y1="244.16" y2="244.16" xlink:href="#linear-gradient"/></defs><g id="Background"><rect class="cls-1" width="1920" height="1080"/></g><g id="Graphic"><rect class="cls-2" x="1507.09" y="867.43" width="62.34" height="15.58"/><rect class="cls-2" x="1507.09" y="914.18" width="62.34" height="15.58"/><rect class="cls-2" x="1504.3" y="890.82" width="67.94" height="15.58" transform="translate(-220.5 1182.35) rotate(-39.46)"/><rect class="cls-2" x="1444.73" y="805.09" width="62.34" height="15.58"/><rect class="cls-2" x="1444.73" y="851.84" width="62.34" height="15.58"/><rect class="cls-2" x="1441.94" y="828.48" width="67.94" height="15.58" transform="translate(-195.09 1128.51) rotate(-39.46)"/><rect class="cls-2" x="412.91" y="212.57" width="62.34" height="15.58"/><rect class="cls-2" x="412.91" y="259.33" width="62.34" height="15.58"/><rect class="cls-2" x="410.12" y="235.96" width="67.94" height="15.58" transform="translate(-53.7 337.77) rotate(-39.46)"/><rect class="cls-2" x="350.55" y="150.24" width="62.34" height="15.58"/><rect class="cls-2" x="350.55" y="196.99" width="62.34" height="15.58"/><rect class="cls-2" x="347.76" y="173.63" width="67.94" height="15.58" transform="translate(-28.3 283.93) rotate(-39.46)"/><rect class="cls-3" x="670.01" y="250.04" width="12.61" height="151.28"/><rect class="cls-3" x="676.31" y="306.77" width="44.12" height="12.61"/><rect class="cls-3" x="669.3" y="289.85" width="47.87" height="12.61" transform="translate(-6.36 576.94) rotate(-45)"/><rect class="cls-3" x="651.1" y="350.9" width="21.66" height="12.61"/><path class="cls-3" d="M682.62,382.41v-12.6a12.61,12.61,0,0,0,0-25.22V332a25.21,25.21,0,1,1,0,50.42Z"/><path class="cls-3" d="M701.53,269H688.92a12.61,12.61,0,0,0-25.21,0H651.1a25.22,25.22,0,0,1,50.43,0Z"/><path class="cls-3" d="M984.78,823.65H972.17a75.44,75.44,0,0,0-150.88,0h-12.6a88,88,0,0,1,176.09,0Z"/><rect class="cls-3" x="723.24" y="514.78" width="196.11" height="12.61" transform="translate(-127.91 733.36) rotate(-45)"/><path class="cls-3" d="M1249.92,836.26H745.65V511.09L720.44,536.3v35.21H670V395H796.08A119.9,119.9,0,0,1,915.84,514.78V546.3h214.32a119.9,119.9,0,0,1,119.76,119.76ZM758.26,823.65h479.06V666.06a107.28,107.28,0,0,0-107.16-107.15H903.24V514.78A107.28,107.28,0,0,0,796.08,407.63H682.62V558.91h25.21V531.08L779,459.9l8.91,8.91-29.67,29.67Z"/><polygon class="cls-3" points="1243.62 798.44 1117.55 798.44 1117.55 552.6 1130.16 552.6 1130.16 785.83 1243.62 785.83 1243.62 798.44"/><path class="cls-3" d="M991.49,722.8a88.35,88.35,0,0,1-88.25-88.25V546.3h176.49v88.25A88.34,88.34,0,0,1,991.49,722.8ZM915.84,558.91v75.64a75.65,75.65,0,0,0,151.29,0V558.91Z"/><path class="cls-3" d="M726.74,451.75H670V395h56.73Zm-44.12-12.61h31.52V407.63H682.62Z"/><line class="cls-4" y1="929.76" x2="1920" y2="929.76"/><line class="cls-5" y1="836.26" x2="1920" y2="836.26"/><line class="cls-6" x1="1475.91" y1="1080" x2="1475.91"/><line class="cls-7" x1="350.55" y1="1080" x2="350.55"/><line class="cls-8" x1="1569.43" y1="1080" x2="1569.43"/><line class="cls-9" x1="444.08" y1="1080" x2="444.08"/><line class="cls-10" y1="150.24" x2="1920" y2="150.24"/><line class="cls-11" y1="244.16" x2="1920" y2="244.16"/><path class="cls-3" d="M1094.43,273.65h-5V243.89h21v4.26h-16v8.67h14.32v4.26h-14.32Z"/><path class="cls-3" d="M1127.44,252.28h4.67v21.37h-4.5v-2.51a7.07,7.07,0,0,1-6.25,3,7.42,7.42,0,0,1-5.66-2.19,8.21,8.21,0,0,1-2.08-5.9v-13.8h4.67v13a5.24,5.24,0,0,0,1.11,3.58,4,4,0,0,0,3.15,1.26,4.44,4.44,0,0,0,3.64-1.53,6.8,6.8,0,0,0,1.25-4.43Z"/><path class="cls-3" d="M1142.57,273.65h-4.69V243.89h4.69Z"/><path class="cls-3" d="M1153,273.65h-4.69V243.89H1153Z"/><path class="cls-3" d="M1173.37,273.65h-4.75V243.89h5.47l13.26,21v-21h4.78v29.76h-4.34l-14.42-22.74Z"/><path class="cls-3" d="M1216.76,269.79h.93v3.86h-2.36a5.47,5.47,0,0,1-2.9-.72,3.07,3.07,0,0,1-1.44-2.08,7.39,7.39,0,0,1-6.64,3.32,7.94,7.94,0,0,1-5.4-1.75,5.75,5.75,0,0,1-2-4.56,6,6,0,0,1,1.67-4.37,8.58,8.58,0,0,1,4.79-2.21l6-1a1.35,1.35,0,0,0,1.27-1.5,3.06,3.06,0,0,0-1.1-2.42,4.52,4.52,0,0,0-3-.94q-3.88,0-4.65,3.57l-4.42-.5a7.35,7.35,0,0,1,3-4.86,10.23,10.23,0,0,1,6.29-1.86,8.88,8.88,0,0,1,6.24,2.06,7.29,7.29,0,0,1,2.25,5.64v8.71a1.78,1.78,0,0,0,.36,1.25A1.56,1.56,0,0,0,1216.76,269.79Zm-15.25-2.3a2.74,2.74,0,0,0,.94,2.22,4.15,4.15,0,0,0,2.71.79,5.25,5.25,0,0,0,4-1.69,6.21,6.21,0,0,0,1.56-4.37v-1.08l-6.08,1a4.14,4.14,0,0,0-2.32,1A2.77,2.77,0,0,0,1201.51,267.49Z"/><path class="cls-3" d="M1239.44,261.72v11.93h-4.67v-13a5.4,5.4,0,0,0-1.08-3.61,3.82,3.82,0,0,0-3.09-1.27,4.23,4.23,0,0,0-3.54,1.54,7.05,7.05,0,0,0-1.21,4.46v11.93h-4.69V252.28h4.5v2.47a7,7,0,0,1,6.12-3,8.24,8.24,0,0,1,4,1,6.34,6.34,0,0,1,2.61,2.74,7.14,7.14,0,0,1,6.74-3.69,7.63,7.63,0,0,1,5.76,2.18,8.12,8.12,0,0,1,2.1,5.89v13.82h-4.66v-13a5.4,5.4,0,0,0-1.08-3.61,3.83,3.83,0,0,0-3.1-1.27,4.22,4.22,0,0,0-3.53,1.54A7.05,7.05,0,0,0,1239.44,261.72Z"/><path class="cls-3" d="M1267.83,270.41a5.31,5.31,0,0,0,3.23-.9,5,5,0,0,0,1.73-2.79l4.17.89a8,8,0,0,1-3.14,4.83,10.05,10.05,0,0,1-6,1.73q-5.08,0-7.81-2.92t-2.73-8.31a11.34,11.34,0,0,1,2.84-8.07,9.83,9.83,0,0,1,7.58-3.11,9.18,9.18,0,0,1,7.11,2.83,10.85,10.85,0,0,1,2.62,7.67v1.87h-15.52Q1262.36,270.41,1267.83,270.41Zm-.16-15c-3.26,0-5.14,1.82-5.67,5.46h10.67Q1272.24,255.45,1267.67,255.45Z"/><path class="cls-3" d="M1299.21,272.34a8.67,8.67,0,0,1-6.75-2.78,10.86,10.86,0,0,1-2.47-7.47,11,11,0,0,1,2.51-7.49,8.57,8.57,0,0,1,6.71-2.84,7.61,7.61,0,0,1,6.51,3v-2.47h4.51v20.23a9.23,9.23,0,0,1-2.63,7Q1305,282,1300.25,282a11.51,11.51,0,0,1-7-1.92,7.13,7.13,0,0,1-3-5.26l4.69-.49a4.48,4.48,0,0,0,1.72,2.93,6.1,6.1,0,0,0,3.59.93,5,5,0,0,0,3.9-1.47,6.17,6.17,0,0,0,1.33-4.3v-3.12A7.5,7.5,0,0,1,1299.21,272.34Zm-3-15a8.44,8.44,0,0,0,0,9.4,5,5,0,0,0,4,1.67,4.9,4.9,0,0,0,3.92-1.73,8,8,0,0,0,0-9.24,4.87,4.87,0,0,0-3.9-1.77A5,5,0,0,0,1296.22,257.35Z"/><path class="cls-3" d="M1314.59,263a11.52,11.52,0,0,1,2.88-8.12,11.24,11.24,0,0,1,15.52,0,12.71,12.71,0,0,1,0,16.19,11.24,11.24,0,0,1-15.48,0A11.38,11.38,0,0,1,1314.59,263Zm16.51,0a8.56,8.56,0,0,0-1.55-5.43,5.75,5.75,0,0,0-8.66,0,8.56,8.56,0,0,0-1.55,5.42,8.38,8.38,0,0,0,1.55,5.36,5.8,5.8,0,0,0,8.66,0A8.38,8.38,0,0,0,1331.1,263Z"/><path class="cls-3" d="M1349.59,270.41a5.29,5.29,0,0,0,3.23-.9,4.92,4.92,0,0,0,1.73-2.79l4.17.89a8,8,0,0,1-3.14,4.83,10.05,10.05,0,0,1-6,1.73q-5.08,0-7.81-2.92t-2.73-8.31a11.34,11.34,0,0,1,2.84-8.07,9.83,9.83,0,0,1,7.58-3.11,9.22,9.22,0,0,1,7.12,2.83,10.89,10.89,0,0,1,2.61,7.67v1.87h-15.52Q1344.12,270.41,1349.59,270.41Zm-.16-15q-4.87,0-5.67,5.46h10.67Q1354,255.45,1349.43,255.45Z"/><path class="cls-3" d="M1371.59,274.17a11,11,0,0,1-6.76-1.88,6.71,6.71,0,0,1-2.76-5.13l4.69-.56a4.41,4.41,0,0,0,1.44,3,5.21,5.21,0,0,0,3.39,1,4.86,4.86,0,0,0,3-.8,2.76,2.76,0,0,0,1-2.31c0-1.4-1.1-2.26-3.28-2.6l-3.2-.56a8.85,8.85,0,0,1-4.74-2.11,5.36,5.36,0,0,1-1.63-4,5.65,5.65,0,0,1,2.31-4.61,9.47,9.47,0,0,1,6.08-1.82,9.59,9.59,0,0,1,6,1.69,7.32,7.32,0,0,1,2.73,4.91l-4.25.54a4.6,4.6,0,0,0-1.52-2.74,4.75,4.75,0,0,0-3-.87,4.89,4.89,0,0,0-2.8.69,2.18,2.18,0,0,0-1,1.86,2.13,2.13,0,0,0,.69,1.67,4.52,4.52,0,0,0,2.22.88l3.53.64q6.54,1.22,6.54,6.17a6.22,6.22,0,0,1-2.32,5.09A9.82,9.82,0,0,1,1371.59,274.17Z"/><path class="cls-3" d="M1412.85,259.83v13.82h-4.69v-13A5.13,5.13,0,0,0,1407,257a4.29,4.29,0,0,0-3.33-1.27,4.66,4.66,0,0,0-3.77,1.54,6.65,6.65,0,0,0-1.31,4.46v11.93h-4.69V243.89h4.69V254.6a7.42,7.42,0,0,1,6.29-2.84,7.81,7.81,0,0,1,5.85,2.18A8.05,8.05,0,0,1,1412.85,259.83Z"/><path class="cls-3" d="M1427.62,270.41a5.31,5.31,0,0,0,3.23-.9,5,5,0,0,0,1.73-2.79l4.17.89a8,8,0,0,1-3.14,4.83,10.05,10.05,0,0,1-6,1.73q-5.08,0-7.81-2.92t-2.73-8.31a11.34,11.34,0,0,1,2.84-8.07,9.83,9.83,0,0,1,7.58-3.11,9.18,9.18,0,0,1,7.11,2.83,10.85,10.85,0,0,1,2.62,7.67v1.87h-15.52Q1422.15,270.41,1427.62,270.41Zm-.16-15c-3.26,0-5.14,1.82-5.67,5.46h10.67Q1432,255.45,1427.46,255.45Z"/><path class="cls-3" d="M1446.4,273.65h-4.69V252.28h4.5v3.57a6.45,6.45,0,0,1,5.88-3.57h1.78v4.33H1452a4.75,4.75,0,0,0-4.11,2.06,10.11,10.11,0,0,0-1.45,5.85Z"/><path class="cls-3" d="M1466.26,270.41a5.31,5.31,0,0,0,3.23-.9,4.92,4.92,0,0,0,1.73-2.79l4.17.89a8,8,0,0,1-3.14,4.83,10.05,10.05,0,0,1-6,1.73q-5.09,0-7.81-2.92t-2.73-8.31a11.34,11.34,0,0,1,2.84-8.07,9.83,9.83,0,0,1,7.58-3.11,9.18,9.18,0,0,1,7.11,2.83,10.85,10.85,0,0,1,2.62,7.67v1.87h-15.52Q1460.79,270.41,1466.26,270.41Zm-.16-15c-3.26,0-5.14,1.82-5.67,5.46h10.67Q1470.67,255.45,1466.1,255.45Z"/><path class="cls-3" d="M1093.1,321.65H1090V291.89h11a10.46,10.46,0,0,1,7.35,2.6,8.49,8.49,0,0,1,2.86,6.55,9.56,9.56,0,0,1-2.9,7,9.92,9.92,0,0,1-7.31,2.84h-7.86ZM1108,301a5.94,5.94,0,0,0-2-4.64,7.25,7.25,0,0,0-5.18-1.83h-7.66v13.66h7.66a6.82,6.82,0,0,0,5.18-2A7,7,0,0,0,1108,301Z"/><path class="cls-3" d="M1114.16,311.11a11.59,11.59,0,0,1,2.72-8,10.39,10.39,0,0,1,14.71,0,13.06,13.06,0,0,1,0,16.06,10.44,10.44,0,0,1-14.71,0A11.59,11.59,0,0,1,1114.16,311.11Zm15.31,6.25a11.17,11.17,0,0,0,0-12.52,7,7,0,0,0-10.41,0,11.24,11.24,0,0,0,0,12.52,7.05,7.05,0,0,0,10.42,0Z"/><path class="cls-3" d="M1146.89,322.17a9.85,9.85,0,0,1-6.33-1.91,6.66,6.66,0,0,1-2.55-5.1l2.84-.52a5.89,5.89,0,0,0,1.81,3.87,6.35,6.35,0,0,0,4.23,1.23,5.77,5.77,0,0,0,3.74-1.05,3.71,3.71,0,0,0,1.28-3.08q0-2.73-4.25-3.44l-2.89-.46q-6.12-1-6.12-5.79a5.16,5.16,0,0,1,2.11-4.23,8.63,8.63,0,0,1,5.53-1.66,8.74,8.74,0,0,1,5.57,1.67,7.5,7.5,0,0,1,2.64,4.82l-2.63.46a6.26,6.26,0,0,0-1.93-3.49,7.08,7.08,0,0,0-7.2-.13,2.86,2.86,0,0,0-1.29,2.44,2.93,2.93,0,0,0,.88,2.23,5.21,5.21,0,0,0,2.82,1.09l3.32.54q6.33,1,6.32,5.95a5.91,5.91,0,0,1-2.13,4.75A8.63,8.63,0,0,1,1146.89,322.17Z"/><path class="cls-3" d="M1162.93,296.75h-2.88v-4.86h2.88Zm0,24.9h-2.88V300.53h2.88Z"/><path class="cls-3" d="M1167.08,303v-2.42h3.9v-7h2.91v7h5.72V303h-5.72v12.79a4,4,0,0,0,.65,2.65,2.9,2.9,0,0,0,2.27.75h3.36v2.51h-3.71a5.49,5.49,0,0,1-4.06-1.43,5.58,5.58,0,0,1-1.42-4.09V303Z"/><path class="cls-3" d="M1187.21,296.75h-2.88v-4.86h2.88Zm0,24.9h-2.88V300.53h2.88Z"/><path class="cls-3" d="M1192.54,311.11a11.59,11.59,0,0,1,2.72-8,10.39,10.39,0,0,1,14.71,0,13.06,13.06,0,0,1,0,16.06,10.44,10.44,0,0,1-14.71,0A11.59,11.59,0,0,1,1192.54,311.11Zm15.31,6.25a11.17,11.17,0,0,0,0-12.52,7,7,0,0,0-10.41,0,11.24,11.24,0,0,0,0,12.52,7.05,7.05,0,0,0,10.42,0Z"/><path class="cls-3" d="M1235.69,308v13.67h-2.91V308.52a6.26,6.26,0,0,0-1.43-4.4,5.28,5.28,0,0,0-4.09-1.56,5.74,5.74,0,0,0-4.69,1.93,8.7,8.7,0,0,0-1.6,5.64v11.52h-2.88V300.53H1221v2.8q2.16-3.3,6.77-3.3a7.35,7.35,0,0,1,8,8Z"/><path class="cls-3" d="M490.87,827v2.64L471,836.16v-2.79l16.17-5.14L471,823.31v-2.6l16.11-4.86L471,810.75V808l19.88,6.6v2.6l-16,4.92Z"/><path class="cls-3" d="M490.87,797v2.64L471,806.22v-2.79l16.17-5.14L471,793.37v-2.6l16.11-4.86L471,780.81v-2.75l19.88,6.6v2.6l-16,4.92Z"/><path class="cls-3" d="M490.87,767.08v2.64L471,776.28v-2.79l16.17-5.14L471,763.43v-2.6L487.1,756,471,750.87v-2.75l19.88,6.6v2.6l-16,4.92Z"/><path class="cls-3" d="M487,746.18v-3.69h3.88v3.69Z"/><path class="cls-3" d="M473.31,722.75l15.28,12.44V722.41h2.28v15.92H488.7l-15.43-12.56v11.9H471V722.75Z"/><path class="cls-3" d="M489.11,710q0-4.6-4.57-5.51l.41-2.59a6.81,6.81,0,0,1,4.68,2.61,8.72,8.72,0,0,1,1.73,5.49c0,3.06-.89,5.4-2.68,7s-4.38,2.42-7.77,2.42a10.93,10.93,0,0,1-7.56-2.52,8.72,8.72,0,0,1-2.83-6.8,8,8,0,0,1,2.45-6.27,9.85,9.85,0,0,1,6.87-2.23h1.68v15Q489.11,716.39,489.11,710Zm-16.36.14a5.9,5.9,0,0,0,1.66,4.42,7.84,7.84,0,0,0,4.86,2v-12Q472.75,704.8,472.75,710.15Z"/><path class="cls-3" d="M489.11,688.43q0-4.6-4.57-5.51l.41-2.6a6.82,6.82,0,0,1,4.68,2.62,8.7,8.7,0,0,1,1.73,5.49q0,4.59-2.68,7t-7.77,2.41a10.93,10.93,0,0,1-7.56-2.52,8.68,8.68,0,0,1-2.83-6.79,8,8,0,0,1,2.45-6.27,9.85,9.85,0,0,1,6.87-2.23h1.68v15Q489.11,694.79,489.11,688.43Zm-16.36.14a5.9,5.9,0,0,0,1.66,4.42,7.84,7.84,0,0,0,4.86,2v-12Q472.75,683.22,472.75,688.57Z"/><path class="cls-3" d="M489.11,666.85c0-3.08-1.52-4.91-4.57-5.51l.41-2.6a6.78,6.78,0,0,1,4.68,2.62,8.68,8.68,0,0,1,1.73,5.49q0,4.59-2.68,7t-7.77,2.41a10.93,10.93,0,0,1-7.56-2.52,8.7,8.7,0,0,1-2.83-6.8,8,8,0,0,1,2.45-6.26,9.85,9.85,0,0,1,6.87-2.23h1.68v15Q489.11,673.21,489.11,666.85Zm-16.36.13a5.91,5.91,0,0,0,1.66,4.43,7.9,7.9,0,0,0,4.86,2v-12C474.92,661.53,472.75,663.42,472.75,667Z"/><path class="cls-3" d="M478,636.79h12.87v2.73H478.51a5.9,5.9,0,0,0-4.14,1.35,5,5,0,0,0-1.47,3.85,5.39,5.39,0,0,0,1.82,4.41,8.1,8.1,0,0,0,5.31,1.51h10.84v2.71H471v-2.71h2.64a7.08,7.08,0,0,1-3.11-6.37,6.9,6.9,0,0,1,7.48-7.48Z"/><path class="cls-3" d="M487,631.05v-3.7h3.88v3.7Z"/><path class="cls-3" d="M467.44,618.64v2.72h-4.58v-2.72Zm23.43,0v2.72H471v-2.72Z"/><path class="cls-3" d="M490.87,609.54v2.72H471v-2.72h3.89a6.3,6.3,0,0,1-3.89-5.92v-1.48h2.64v1.48a5,5,0,0,0,2.43,4.28,11.16,11.16,0,0,0,6.38,1.64Z"/><path class="cls-3" d="M536.59,817.92v-1h2.28v1.64a3.83,3.83,0,0,1-.82,2.51,2.66,2.66,0,0,1-2.19,1h-.15a7,7,0,0,1,3.65,6.49,7.43,7.43,0,0,1-1.61,5,5.25,5.25,0,0,1-4.19,1.87,5.47,5.47,0,0,1-4-1.56,7.92,7.92,0,0,1-2.1-4.43l-1-6a1.4,1.4,0,0,0-1.52-1.29,3.77,3.77,0,0,0-3,1.31,5.24,5.24,0,0,0-1.14,3.57q0,4.39,4.08,5.36l-.35,2.55a6.74,6.74,0,0,1-4.35-2.61,8.65,8.65,0,0,1-1.65-5.41,7.71,7.71,0,0,1,1.85-5.45,6.41,6.41,0,0,1,5-2h9.74a1.66,1.66,0,0,0,1.19-.35A1.58,1.58,0,0,0,536.59,817.92Zm-3.17,14.77a3.34,3.34,0,0,0,2.68-1.14,4.65,4.65,0,0,0,1-3.14,5.84,5.84,0,0,0-2-4.57,7.73,7.73,0,0,0-5.27-1.8h-1.27l1.23,7.11a4.34,4.34,0,0,0,1.24,2.61A3.42,3.42,0,0,0,533.42,832.69Z"/><path class="cls-3" d="M538.87,810.46v2.72H519v-2.72h3.89a6.3,6.3,0,0,1-3.89-5.92v-1.48h2.64v1.48a5,5,0,0,0,2.43,4.28,11.24,11.24,0,0,0,6.38,1.64Z"/><path class="cls-3" d="M536.59,783.47v-1h2.28v1.64a3.81,3.81,0,0,1-.82,2.51,2.67,2.67,0,0,1-2.19,1h-.15a7,7,0,0,1,3.65,6.48,7.42,7.42,0,0,1-1.61,5,5.26,5.26,0,0,1-4.19,1.88,5.47,5.47,0,0,1-4-1.56,8,8,0,0,1-2.1-4.44l-1-6a1.4,1.4,0,0,0-1.52-1.29,3.74,3.74,0,0,0-3,1.31,5.24,5.24,0,0,0-1.14,3.57q0,4.4,4.08,5.35l-.35,2.56a6.72,6.72,0,0,1-4.35-2.62,8.61,8.61,0,0,1-1.65-5.41,7.72,7.72,0,0,1,1.85-5.45,6.45,6.45,0,0,1,5-2h9.74a1.66,1.66,0,0,0,1.19-.34A1.62,1.62,0,0,0,536.59,783.47Zm-3.17,14.76a3.33,3.33,0,0,0,2.68-1.13,4.65,4.65,0,0,0,1-3.14,5.82,5.82,0,0,0-2-4.57,7.73,7.73,0,0,0-5.27-1.8h-1.27l1.23,7.11a4.34,4.34,0,0,0,1.24,2.61A3.45,3.45,0,0,0,533.42,798.23Z"/><path class="cls-3" d="M539.36,772a9.25,9.25,0,0,1-1.8,6,6.25,6.25,0,0,1-4.8,2.4l-.49-2.67a5.54,5.54,0,0,0,3.64-1.7,6,6,0,0,0,1.17-4,5.41,5.41,0,0,0-1-3.52,3.53,3.53,0,0,0-2.9-1.2q-2.58,0-3.24,4l-.43,2.72q-1,5.76-5.45,5.76a4.87,4.87,0,0,1-4-2,9.5,9.5,0,0,1,0-10.45,7.09,7.09,0,0,1,4.54-2.49l.43,2.48a5.84,5.84,0,0,0-3.28,1.81,5.5,5.5,0,0,0-1,3.48,5.57,5.57,0,0,0,.87,3.3,2.68,2.68,0,0,0,2.29,1.21,2.73,2.73,0,0,0,2.1-.83,4.84,4.84,0,0,0,1-2.65l.5-3.12q1-6,5.61-6a5.56,5.56,0,0,1,4.47,2A8.19,8.19,0,0,1,539.36,772Z"/><path class="cls-3" d="M526,743h12.87v2.73H526.51a5.9,5.9,0,0,0-4.14,1.35A5,5,0,0,0,520.9,751a5.39,5.39,0,0,0,1.82,4.41,8.1,8.1,0,0,0,5.31,1.51h10.84v2.71h-28v-2.71h10.77a7.08,7.08,0,0,1-3.11-6.37A6.9,6.9,0,0,1,526,743Z"/><path class="cls-3" d="M536.47,723.39a6.21,6.21,0,0,1-1.93,4.8,7.31,7.31,0,0,1-5.18,1.8,11.83,11.83,0,0,1-7.56-2.4,7.61,7.61,0,0,1-3.12-6.29,6.15,6.15,0,0,1,.89-3.33,5.61,5.61,0,0,1,2.54-2.18l-3-.64v-2.72l11,2.19a4.43,4.43,0,0,0,3.18-.19,2.78,2.78,0,0,0,1-2.49,4,4,0,0,0-2.39-3.51,13.41,13.41,0,0,0-6.51-1.33,13.28,13.28,0,0,0-9.2,4q-3.28,3.52-3.28,9.54a13.79,13.79,0,0,0,4.39,10.46,15.59,15.59,0,0,0,10.61,4.24,14.22,14.22,0,0,0,10.27-3.83,13,13,0,0,0,4-9.84,17.58,17.58,0,0,0-.61-4.74,22.07,22.07,0,0,0-2.06-4.79l2.07-1.15a23.64,23.64,0,0,1,2.4,5.39,19.33,19.33,0,0,1,.72,5.33,16,16,0,0,1-4.76,11.88A16.42,16.42,0,0,1,528,738.23a17.63,17.63,0,0,1-6.68-1.35,18.3,18.3,0,0,1-5.8-3.76,17.94,17.94,0,0,1-.84-24.16,13.69,13.69,0,0,1,10.57-4.69q5.24,0,8.23,2.1a6.6,6.6,0,0,1,3,5.69,6.4,6.4,0,0,1-.89,3.39,3.82,3.82,0,0,1-2.31,1.83A7.17,7.17,0,0,1,536.47,723.39Zm-7.21,3.75a5.26,5.26,0,0,0,3.57-1.11,4,4,0,0,0,1.28-3.13,5.14,5.14,0,0,0-2.41-4.35,9.17,9.17,0,0,0-5.54-1.76,5.42,5.42,0,0,0-3.72,1.23,4.22,4.22,0,0,0-1.4,3.34,4.84,4.84,0,0,0,2.48,4.16A10.26,10.26,0,0,0,529.26,727.14Z"/><path class="cls-3" d="M521.31,685.25l15.28,12.44V684.91h2.28v15.92H536.7l-15.43-12.56v11.9H519V685.25Z"/><path class="cls-3" d="M537.11,672.51q0-4.6-4.57-5.51l.41-2.59a6.81,6.81,0,0,1,4.68,2.61,8.72,8.72,0,0,1,1.73,5.49c0,3.06-.89,5.4-2.68,7s-4.38,2.42-7.77,2.42a10.93,10.93,0,0,1-7.56-2.52,8.72,8.72,0,0,1-2.83-6.8,8,8,0,0,1,2.45-6.27,9.85,9.85,0,0,1,6.87-2.23h1.68v15Q537.11,678.89,537.11,672.51Zm-16.36.14a5.9,5.9,0,0,0,1.66,4.42,7.84,7.84,0,0,0,4.86,2V667Q520.74,667.3,520.75,672.65Z"/><path class="cls-3" d="M537.11,650.93q0-4.6-4.57-5.51l.41-2.6a6.82,6.82,0,0,1,4.68,2.62,8.7,8.7,0,0,1,1.73,5.49q0,4.59-2.68,7t-7.77,2.41a10.93,10.93,0,0,1-7.56-2.52,8.68,8.68,0,0,1-2.83-6.79,8,8,0,0,1,2.45-6.27,9.85,9.85,0,0,1,6.87-2.23h1.68v15Q537.11,657.29,537.11,650.93Zm-16.36.14a5.9,5.9,0,0,0,1.66,4.42,7.84,7.84,0,0,0,4.86,2v-12Q520.74,645.72,520.75,651.07Z"/><path class="cls-3" d="M537.11,629.35c0-3.08-1.52-4.91-4.57-5.51l.41-2.6a6.78,6.78,0,0,1,4.68,2.62,8.68,8.68,0,0,1,1.73,5.49q0,4.59-2.68,7t-7.77,2.41a10.93,10.93,0,0,1-7.56-2.52,8.7,8.7,0,0,1-2.83-6.8,8,8,0,0,1,2.45-6.26,9.85,9.85,0,0,1,6.87-2.23h1.68v15Q537.11,635.71,537.11,629.35Zm-16.36.13a5.91,5.91,0,0,0,1.66,4.43,7.9,7.9,0,0,0,4.86,2v-12C522.92,624,520.75,625.92,520.75,629.48Z"/><path class="cls-3" d="M526,599.29h12.87V602H526.51a5.9,5.9,0,0,0-4.14,1.35,5,5,0,0,0-1.47,3.85,5.39,5.39,0,0,0,1.82,4.41,8.1,8.1,0,0,0,5.31,1.51h10.84v2.71H519v-2.71h2.64a7.08,7.08,0,0,1-3.11-6.37,6.9,6.9,0,0,1,7.48-7.48Z"/><path class="cls-3" d="M535,593.55v-3.7h3.88v3.7Z"/><path class="cls-3" d="M515.44,581.14v2.72h-4.58v-2.72Zm23.43,0v2.72H519v-2.72Z"/><path class="cls-3" d="M538.87,572v2.72H519V572h3.89a6.3,6.3,0,0,1-3.89-5.92v-1.48h2.64v1.48a5,5,0,0,0,2.43,4.28,11.16,11.16,0,0,0,6.38,1.64Z"/></g></svg>