<svg xmlns="http://www.w3.org/2000/svg" viewBox="0 0 1920 1080"><defs><style>.cls-1{fill:#d1d1d0;stroke:#fff;}.cls-1,.cls-2,.cls-3,.cls-6{stroke-miterlimit:10;}.cls-1,.cls-2{stroke-width:2px;}.cls-2,.cls-5{fill:#fff;}.cls-2{stroke:#d1d1d0;}.cls-3,.cls-6{fill:none;}.cls-3{stroke:#000;stroke-width:2.5px;}.cls-4{fill:#32826c;}.cls-6{stroke:#256853;}.cls-7{fill:#ffec00;}.cls-8{fill:#f5cebc;}.cls-9{fill:#a9afb0;}.cls-10{fill:#cde5d9;}</style></defs><g id="Graphic"><rect class="cls-1" x="155.25" y="131.95" width="1656.24" height="876.11"/><rect class="cls-2" x="503.71" y="101.95" width="1277.78" height="876.11"/><path d="M1412.41,298.55H1404l-1.81,4.74h-2.69L1407,284h2.67l7.4,19.32h-2.9Zm-7.56-2.21h6.74l-3.31-9Z"/><path d="M1421.36,303.29h-2.46v-13.8h2.4V292a4.28,4.28,0,0,1,4-2.51h1.06v2.32h-1.09a3.23,3.23,0,0,0-2.81,1.52,7,7,0,0,0-1.05,4.08Z"/><path d="M1428.28,291.51v-2h2.42v-4.44h2.45v4.44h3.48v2h-3.48v7.72a2.31,2.31,0,0,0,.39,1.53,1.73,1.73,0,0,0,1.32.43H1437v2.1h-2.48a3.89,3.89,0,0,1-2.82-1,3.69,3.69,0,0,1-1-2.77v-8.06Z"/><path d="M1441.32,287.26h-2.46V284h2.46Zm0,16h-2.46v-13.8h2.46Z"/><path d="M1449.61,303.62a6.74,6.74,0,0,1-4.26-1.22,4.42,4.42,0,0,1-1.72-3.33l2.45-.36a3.41,3.41,0,0,0,1,2.25,3.79,3.79,0,0,0,2.49.73,3.43,3.43,0,0,0,2.18-.6,2.09,2.09,0,0,0,.74-1.75c0-1.09-.8-1.76-2.42-2l-2-.31a5.52,5.52,0,0,1-3-1.31,3.41,3.41,0,0,1-1-2.58,3.53,3.53,0,0,1,1.41-2.89,7,7,0,0,1,7.56,0,4.85,4.85,0,0,1,1.74,3.16l-2.26.33a3.59,3.59,0,0,0-1.11-2,3.45,3.45,0,0,0-2.18-.61,3.38,3.38,0,0,0-2,.53,1.76,1.76,0,0,0-.24,2.66,3.14,3.14,0,0,0,1.64.63l2.21.37c2.79.44,4.19,1.76,4.19,3.94a3.91,3.91,0,0,1-1.45,3.2A6,6,0,0,1,1449.61,303.62Z"/><path d="M1455.68,291.51v-2h2.43v-4.44h2.45v4.44H1464v2h-3.48v7.72a2.31,2.31,0,0,0,.39,1.53,1.71,1.71,0,0,0,1.32.43h2.1v2.1h-2.47a3.89,3.89,0,0,1-2.82-1,3.69,3.69,0,0,1-1-2.77v-8.06Z"/><path d="M1468.72,287.26h-2.45V284h2.45Zm0,16h-2.45v-13.8h2.45Z"/><path d="M1477.73,301.52a3.54,3.54,0,0,0,2.5-.87,3.86,3.86,0,0,0,1.13-2.44l2.39.28a5.51,5.51,0,0,1-1.9,3.74,6.83,6.83,0,0,1-8.89-.54,8.83,8.83,0,0,1,0-10.54,6.07,6.07,0,0,1,4.74-2,6.32,6.32,0,0,1,4.18,1.32,5.74,5.74,0,0,1,1.93,3.75l-2.51.29c-.33-2.18-1.54-3.26-3.62-3.26a3.44,3.44,0,0,0-2.91,1.36,6.13,6.13,0,0,0-1,3.82,6,6,0,0,0,1,3.74A3.5,3.5,0,0,0,1477.73,301.52Z"/><path d="M1497.91,301.24h.66v2.05h-1.34a3,3,0,0,1-1.82-.52,1.93,1.93,0,0,1-.82-1.44,4.81,4.81,0,0,1-4.36,2.29,5.18,5.18,0,0,1-3.48-1.12,3.64,3.64,0,0,1-1.32-2.9,3.89,3.89,0,0,1,1.08-2.83,5.42,5.42,0,0,1,3.08-1.43l4-.69a.92.92,0,0,0,.86-1,2.34,2.34,0,0,0-.8-1.83,3.26,3.26,0,0,0-2.21-.71,3.58,3.58,0,0,0-2.23.63,3.33,3.33,0,0,0-1.13,1.93l-2.33-.27a4.72,4.72,0,0,1,1.88-3.08,6.32,6.32,0,0,1,3.9-1.17,5.52,5.52,0,0,1,3.9,1.32,4.55,4.55,0,0,1,1.42,3.51v6.21a1.14,1.14,0,0,0,.23.81A1.12,1.12,0,0,0,1497.91,301.24Zm-10.05-1.82a2,2,0,0,0,.7,1.64,2.88,2.88,0,0,0,2,.6,3.69,3.69,0,0,0,2.88-1.26,4.68,4.68,0,0,0,1.12-3.24v-.8l-4.42.77a2.84,2.84,0,0,0-1.66.77A2.09,2.09,0,0,0,1487.86,299.42Z"/><path d="M1502.75,303.29h-2.45V284h2.45Z"/><path d="M1508.6,303.29h-2.45V284h2.45Z"/><path d="M1515.41,304.58l.46-1.21-5.43-13.88H1513l4.08,10.85,4.12-10.85h2.48l-6,15.35a6.1,6.1,0,0,1-1.87,2.79,4.73,4.73,0,0,1-2.85.76h-1.43v-2.07H1513a2.67,2.67,0,0,0,1.53-.39A2.72,2.72,0,0,0,1515.41,304.58Z"/><path d="M1533.73,303.29h-2.66V284h13.56v2.26h-10.9v6.29h9.79v2.27h-9.79Z"/><path d="M1548.71,303.29h-2.46v-13.8h2.4V292a4.28,4.28,0,0,1,3.95-2.51h1.07v2.32h-1.1a3.24,3.24,0,0,0-2.81,1.52,7,7,0,0,0-1,4.08Z"/><path d="M1554.32,296.39a7.46,7.46,0,0,1,1.82-5.24,6.31,6.31,0,0,1,4.89-2,6.43,6.43,0,0,1,4.91,2,7.35,7.35,0,0,1,1.84,5.24,7.43,7.43,0,0,1-1.84,5.24,6.43,6.43,0,0,1-4.91,2,6.31,6.31,0,0,1-4.89-2A7.46,7.46,0,0,1,1554.32,296.39Zm9.82,3.78a6.84,6.84,0,0,0,0-7.56,3.8,3.8,0,0,0-3.11-1.38,3.74,3.74,0,0,0-3.08,1.38,5.81,5.81,0,0,0-1.12,3.78,5.88,5.88,0,0,0,1.11,3.79,4.18,4.18,0,0,0,6.2,0Z"/><path d="M1581.63,295.68v7.61h-2.45v-8.5a3.87,3.87,0,0,0-.79-2.59,2.79,2.79,0,0,0-2.22-.92,3,3,0,0,0-2.56,1.13,5.2,5.2,0,0,0-.89,3.27v7.61h-2.45v-13.8h2.4v1.69a4.62,4.62,0,0,1,4-2,5.16,5.16,0,0,1,2.64.64,4.11,4.11,0,0,1,1.69,1.85,4.69,4.69,0,0,1,4.45-2.49,4.91,4.91,0,0,1,3.71,1.39,5.25,5.25,0,0,1,1.34,3.79v9h-2.45v-8.5a3.82,3.82,0,0,0-.8-2.59,2.79,2.79,0,0,0-2.22-.92,3.08,3.08,0,0,0-2.57,1.13A5.2,5.2,0,0,0,1581.63,295.68Z"/><path d="M1602.45,303.29h-2.65V284h2.65Z"/><path d="M1608.58,303.29h-2.45v-13.8h2.4V292a4.26,4.26,0,0,1,3.94-2.51h1.07v2.32h-1.09a3.25,3.25,0,0,0-2.82,1.52,7,7,0,0,0-1.05,4.08Z"/><path d="M1626.68,301.24h.66v2.05H1626a3,3,0,0,1-1.82-.52,1.93,1.93,0,0,1-.82-1.44,4.83,4.83,0,0,1-4.37,2.29,5.17,5.17,0,0,1-3.47-1.12,3.64,3.64,0,0,1-1.32-2.9,3.89,3.89,0,0,1,1.08-2.83,5.39,5.39,0,0,1,3.08-1.43l4-.69a.93.93,0,0,0,.86-1,2.31,2.31,0,0,0-.81-1.83,3.24,3.24,0,0,0-2.21-.71,3.57,3.57,0,0,0-2.22.63,3.23,3.23,0,0,0-1.13,1.93l-2.33-.27a4.68,4.68,0,0,1,1.88-3.08,6.28,6.28,0,0,1,3.9-1.17,5.52,5.52,0,0,1,3.9,1.32,4.55,4.55,0,0,1,1.42,3.51v6.21a1.14,1.14,0,0,0,.23.81A1.11,1.11,0,0,0,1626.68,301.24Zm-10-1.82a2,2,0,0,0,.7,1.64,2.93,2.93,0,0,0,2,.6,3.68,3.68,0,0,0,2.87-1.26,4.68,4.68,0,0,0,1.13-3.24v-.8l-4.42.77a2.84,2.84,0,0,0-1.66.77A2.06,2.06,0,0,0,1616.63,299.42Z"/><path d="M1640.93,294.34v9h-2.45v-8.5a3.7,3.7,0,0,0-.84-2.6,3.16,3.16,0,0,0-2.42-.91,3.42,3.42,0,0,0-2.75,1.12,5,5,0,0,0-.94,3.28v7.61h-2.45v-13.8h2.4v1.74a4.84,4.84,0,0,1,4.29-2.07,5.08,5.08,0,0,1,3.79,1.39A5.14,5.14,0,0,1,1640.93,294.34Z"/><path d="M1410.46,329h-10.84V313.26h10.62v1.85h-8.46v5h7.55v1.8h-7.55v5.28h8.68Z"/><path d="M1418.24,329.32a6.89,6.89,0,0,1-4.52-1.38,4.79,4.79,0,0,1-1.72-3.76l2.13-.27a3.61,3.61,0,0,0,1.14,2.7,4.37,4.37,0,0,0,3,.93,3.65,3.65,0,0,0,2.45-.77,2.55,2.55,0,0,0,.9-2,2.07,2.07,0,0,0-.63-1.62,4.66,4.66,0,0,0-2.17-.91l-2.1-.45a6.09,6.09,0,0,1-3.18-1.55,4.18,4.18,0,0,1,.43-5.92,5.62,5.62,0,0,1,3.83-1.27,6.07,6.07,0,0,1,4,1.21,4.77,4.77,0,0,1,1.69,3.37l-2.14.26a3.15,3.15,0,0,0-3.52-3.06,3.64,3.64,0,0,0-2.34.68,2.26,2.26,0,0,0-.83,1.84,2.2,2.2,0,0,0,.61,1.65,3.77,3.77,0,0,0,2,.89l2.45.53a6.07,6.07,0,0,1,3.13,1.48,3.8,3.8,0,0,1,1,2.76,4.36,4.36,0,0,1-1.51,3.38A5.86,5.86,0,0,1,1418.24,329.32Z"/><path d="M1424.39,313.26h12v1.85h-4.91V329h-2.15V315.11h-4.93Z"/><path d="M1449.6,317.46a2.48,2.48,0,0,0-.75-1.9,2.83,2.83,0,0,0-2-.71,3.06,3.06,0,0,0-2.55,1.08,4.89,4.89,0,0,0-.81,3.18l-2.07-.28a5.11,5.11,0,0,1,5.43-5.83,5,5,0,0,1,3.59,1.23,4.3,4.3,0,0,1,1.33,3.23,5.66,5.66,0,0,1-.81,2.84,13.55,13.55,0,0,1-2.59,3.07l-4.22,3.87h8V329h-10.81V327.2L1447,322a10,10,0,0,0,2-2.32A4.42,4.42,0,0,0,1449.6,317.46Z"/><path d="M1454,321.15a10.16,10.16,0,0,1,1.55-6,5.43,5.43,0,0,1,8.7,0,12.09,12.09,0,0,1,0,11.95,5.45,5.45,0,0,1-8.71,0A10.16,10.16,0,0,1,1454,321.15Zm8.7,4.71a11.76,11.76,0,0,0,0-9.4,3.15,3.15,0,0,0-5.57,0,9.14,9.14,0,0,0-1,4.66,9.34,9.34,0,0,0,1,4.71,3,3,0,0,0,2.78,1.65A3.1,3.1,0,0,0,1462.67,325.86Z"/><path d="M1477.6,329h-9.78v-1.8h3.85V317.1a3.43,3.43,0,0,1-1.8.42h-2.12v-1.77h2a1.84,1.84,0,0,0,1.51-.6,3,3,0,0,0,.5-1.89h2.08v14h3.78Z"/><path d="M1487.6,324.42a2.48,2.48,0,0,0-.81-2,3.4,3.4,0,0,0-2.3-.7h-1.42V320.1h1.35a2.59,2.59,0,0,0,2-.75,3,3,0,0,0,.7-2.09,2.28,2.28,0,0,0-.77-1.82,3.06,3.06,0,0,0-2.07-.66,3.26,3.26,0,0,0-2.38.87,3.5,3.5,0,0,0-1,2.42l-2-.43a4.37,4.37,0,0,1,1.53-3.35,5.69,5.69,0,0,1,3.81-1.29,5.36,5.36,0,0,1,3.59,1.13,3.75,3.75,0,0,1,1.33,3,4.13,4.13,0,0,1-.58,2.2,3.58,3.58,0,0,1-1.63,1.44,4.06,4.06,0,0,1,2,1.4,3.72,3.72,0,0,1,.7,2.25,4.56,4.56,0,0,1-1.47,3.55,5.61,5.61,0,0,1-3.94,1.33,6.66,6.66,0,0,1-4.06-1.18,4.3,4.3,0,0,1-1.76-3.22l2.15-.48a3.25,3.25,0,0,0,1.06,2.29,3.74,3.74,0,0,0,2.54.81,3.46,3.46,0,0,0,2.45-.83A3,3,0,0,0,1487.6,324.42Z"/><polyline class="cls-3" points="1401.15 243.73 1412.71 243.73 1402.44 259.83 1414.03 259.83"/><polyline class="cls-3" points="1431.74 259.83 1420.51 259.83 1420.47 243.73 1431.74 243.73"/><line class="cls-3" x1="1431.74" y1="251.78" x2="1420.47" y2="251.78"/><polyline class="cls-3" points="1449.44 259.83 1438.18 259.83 1438.18 243.73 1449.44 243.73"/><line class="cls-3" x1="1449.44" y1="251.78" x2="1438.18" y2="251.78"/><polyline class="cls-3" points="1467.15 259.83 1455.88 259.83 1455.88 243.73 1467.15 243.73"/><line class="cls-3" x1="1467.15" y1="251.78" x2="1455.88" y2="251.78"/><polyline class="cls-3" points="1484.86 242.12 1484.86 259.83 1484.28 259.83 1474.18 243.73 1473.59 243.73 1473.59 261.44"/><rect class="cls-4" x="138.51" y="101.92" width="364.74" height="876.13"/><path class="cls-5" d="M217.89,719.68l5.49,4.46v-4.59h1.14v6.24h-1l-5.55-4.48v4.24H216.8v-5.87Z"/><path class="cls-5" d="M223.6,714.63a1.82,1.82,0,0,0-1.57-2l.25-1.26a2.76,2.76,0,0,1,1.78,1.09,3.42,3.42,0,0,1,.65,2.13,3.6,3.6,0,0,1-1.05,2.78,4.29,4.29,0,0,1-3,1,4.16,4.16,0,0,1-2.93-1,3.44,3.44,0,0,1-1.12-2.7,3.23,3.23,0,0,1,1-2.5,3.92,3.92,0,0,1,2.72-.9H221V717C222.73,716.91,223.6,716.13,223.6,714.63Zm-5.89.07a2.1,2.1,0,0,0,.57,1.55A2.78,2.78,0,0,0,220,717v-4.27C218.46,712.76,217.71,713.44,217.71,714.7Z"/><path class="cls-5" d="M223.6,706.21a1.82,1.82,0,0,0-1.57-2l.25-1.27a2.85,2.85,0,0,1,1.78,1.09,3.47,3.47,0,0,1,.65,2.14,3.6,3.6,0,0,1-1.05,2.78,4.29,4.29,0,0,1-3,1,4.16,4.16,0,0,1-2.93-1,3.44,3.44,0,0,1-1.12-2.71,3.22,3.22,0,0,1,1-2.49,3.92,3.92,0,0,1,2.72-.9H221v5.72C222.73,708.49,223.6,707.71,223.6,706.21Zm-5.89.07a2.1,2.1,0,0,0,.57,1.55,2.78,2.78,0,0,0,1.69.71v-4.27C218.46,704.34,217.71,705,217.71,706.28Z"/><path class="cls-5" d="M223.6,697.79a1.82,1.82,0,0,0-1.57-2l.25-1.27a2.85,2.85,0,0,1,1.78,1.09,3.45,3.45,0,0,1,.65,2.14,3.61,3.61,0,0,1-1.05,2.78,4.29,4.29,0,0,1-3,1,4.16,4.16,0,0,1-2.93-1,3.44,3.44,0,0,1-1.12-2.71,3.22,3.22,0,0,1,1-2.49,3.92,3.92,0,0,1,2.72-.9H221v5.72C222.73,700.07,223.6,699.29,223.6,697.79Zm-5.89.07a2.1,2.1,0,0,0,.57,1.55,2.78,2.78,0,0,0,1.69.71v-4.27C218.46,695.92,217.71,696.59,217.71,697.86Z"/><path class="cls-5" d="M219.51,686h5v1.37h-4.76a2.07,2.07,0,0,0-1.45.47,1.77,1.77,0,0,0-.51,1.36,1.88,1.88,0,0,0,.63,1.53,2.72,2.72,0,0,0,1.83.53h4.26v1.38H216.8v-1.35h1a2.72,2.72,0,0,1-1.16-2.4,2.68,2.68,0,0,1,2.9-2.89Z"/><path class="cls-5" d="M222.78,683.92v-1.69h1.74v1.69Z"/><path class="cls-5" d="M215.54,678.7v1.37H213.7V678.7Zm9,0v1.37H216.8V678.7Z"/><path class="cls-5" d="M224.52,675v1.38H216.8v-1.35h1.4a2.39,2.39,0,0,1-1.4-2.21v-.6h1.3v.62a1.82,1.82,0,0,0,.84,1.57,3.91,3.91,0,0,0,2.29.59Z"/><path class="cls-5" d="M238.06,718.51h5v1.38h-4.76a2.05,2.05,0,0,0-1.46.47,1.73,1.73,0,0,0-.51,1.35,1.89,1.89,0,0,0,.63,1.54,2.79,2.79,0,0,0,1.83.53h4.27v1.37H232.25v-1.37h4a2.71,2.71,0,0,1-1.13-2.38,2.85,2.85,0,0,1,.78-2.12A2.91,2.91,0,0,1,238.06,718.51Z"/><path class="cls-5" d="M242.14,713.07a1.82,1.82,0,0,0-1.56-2l.25-1.27a2.8,2.8,0,0,1,1.77,1.09,3.45,3.45,0,0,1,.66,2.14,3.61,3.61,0,0,1-1,2.78,4.29,4.29,0,0,1-3,1,4.18,4.18,0,0,1-2.94-1,3.48,3.48,0,0,1-1.12-2.71,3.2,3.2,0,0,1,1-2.49,3.9,3.9,0,0,1,2.72-.9h.66v5.72C241.27,715.35,242.14,714.57,242.14,713.07Zm-5.89.07a2.11,2.11,0,0,0,.58,1.55,2.72,2.72,0,0,0,1.68.71v-4.27C237,711.2,236.25,711.87,236.25,713.14Z"/><path class="cls-5" d="M243.07,706.52v1.38H232.25v-1.38Z"/><path class="cls-5" d="M243.07,702.86v1.38H232.25v-1.38Z"/><path class="cls-5" d="M239.21,701.08a4.17,4.17,0,0,1-2.94-1,3.57,3.57,0,0,1-1.12-2.74,3.62,3.62,0,0,1,1.12-2.75,4.1,4.1,0,0,1,2.94-1,4.16,4.16,0,0,1,2.93,1,3.62,3.62,0,0,1,1.12,2.75,3.57,3.57,0,0,1-1.12,2.74A4.17,4.17,0,0,1,239.21,701.08Zm2.11-5.51a3.87,3.87,0,0,0-4.23,0,2.15,2.15,0,0,0-.78,1.75,2.11,2.11,0,0,0,.78,1.73,3.93,3.93,0,0,0,4.24,0,2.11,2.11,0,0,0,.76-1.73A2.14,2.14,0,0,0,241.32,695.57Z"/><path class="cls-5" d="M242.25,686.47a2.45,2.45,0,0,1-.76,1.87,2.8,2.8,0,0,1-2,.7,4.7,4.7,0,0,1-3-.93,3,3,0,0,1-1.2-2.44,2.45,2.45,0,0,1,.32-1.25,2.11,2.11,0,0,1,.93-.84l-1.1-.23v-1.3l4.31.87a1.55,1.55,0,0,0,1.11-.07,1,1,0,0,0,.34-.87,1.51,1.51,0,0,0-.9-1.33,5.43,5.43,0,0,0-4.35-.11,4.47,4.47,0,0,0-1.59,1.13,5.1,5.1,0,0,0-1.24,3.64,5.32,5.32,0,0,0,1.67,4,5.59,5.59,0,0,0,1.87,1.19,5.87,5.87,0,0,0,2.21.43,5.48,5.48,0,0,0,3.94-1.47,5,5,0,0,0,1.53-3.75,7.09,7.09,0,0,0-.22-1.84,8.33,8.33,0,0,0-.78-1.84l.93-.48a9.28,9.28,0,0,1,.9,2.08,7.8,7.8,0,0,1,.27,2.08,6.28,6.28,0,0,1-6.52,6.5,7.11,7.11,0,0,1-4.92-2,7.21,7.21,0,0,1-.32-9.54,5.33,5.33,0,0,1,4.14-1.82,5.26,5.26,0,0,1,3.22.88,2.76,2.76,0,0,1,1.17,2.32,2.57,2.57,0,0,1-.33,1.33,1.55,1.55,0,0,1-.87.73A2.72,2.72,0,0,1,242.25,686.47Zm-2.86,1.23a1.9,1.9,0,0,0,1.29-.41,1.37,1.37,0,0,0,.47-1.11,1.87,1.87,0,0,0-.87-1.56,3.27,3.27,0,0,0-2-.64,2,2,0,0,0-1.34.44,1.49,1.49,0,0,0-.5,1.19,1.74,1.74,0,0,0,.89,1.5A3.71,3.71,0,0,0,239.39,687.7Z"/><path class="cls-5" d="M236.44,671.52l5.48,4.45v-4.59h1.15v6.24h-1l-5.54-4.48v4.24h-1.15v-5.86Z"/><path class="cls-5" d="M242.14,666.47a1.82,1.82,0,0,0-1.56-2l.25-1.27a2.8,2.8,0,0,1,1.77,1.09,3.43,3.43,0,0,1,.66,2.14,3.57,3.57,0,0,1-1,2.77,4.25,4.25,0,0,1-3,1,4.18,4.18,0,0,1-2.94-1,3.48,3.48,0,0,1-1.12-2.71,3.17,3.17,0,0,1,1-2.49,3.9,3.9,0,0,1,2.72-.91h.66v5.72C241.27,668.75,242.14,668,242.14,666.47Zm-5.89.07a2.12,2.12,0,0,0,.58,1.55,2.72,2.72,0,0,0,1.68.7v-4.27C237,664.6,236.25,665.27,236.25,666.54Z"/><path class="cls-5" d="M242.14,658.05a1.82,1.82,0,0,0-1.56-2l.25-1.27a2.76,2.76,0,0,1,1.77,1.09,3.43,3.43,0,0,1,.66,2.14,3.59,3.59,0,0,1-1,2.77,4.25,4.25,0,0,1-3,1,4.18,4.18,0,0,1-2.94-1,3.48,3.48,0,0,1-1.12-2.71,3.17,3.17,0,0,1,1-2.49,3.86,3.86,0,0,1,2.72-.91h.66v5.72C241.27,660.33,242.14,659.54,242.14,658.05Zm-5.89.07a2.12,2.12,0,0,0,.58,1.55,2.72,2.72,0,0,0,1.68.7V656.1C237,656.18,236.25,656.85,236.25,658.12Z"/><path class="cls-5" d="M242.14,649.63a1.82,1.82,0,0,0-1.56-2l.25-1.27a2.76,2.76,0,0,1,1.77,1.09,3.43,3.43,0,0,1,.66,2.14,3.59,3.59,0,0,1-1,2.77,4.25,4.25,0,0,1-3,1,4.18,4.18,0,0,1-2.94-1,3.49,3.49,0,0,1-1.12-2.71,3.17,3.17,0,0,1,1-2.49,3.86,3.86,0,0,1,2.72-.91h.66V652C241.27,651.91,242.14,651.12,242.14,649.63Zm-5.89.07a2.14,2.14,0,0,0,.58,1.55,2.72,2.72,0,0,0,1.68.7v-4.27C237,647.76,236.25,648.43,236.25,649.7Z"/><path class="cls-5" d="M238.06,637.81h5v1.37h-4.76a2.06,2.06,0,0,0-1.46.48,1.73,1.73,0,0,0-.51,1.35,1.9,1.9,0,0,0,.63,1.54,2.79,2.79,0,0,0,1.83.53h4.27v1.37h-7.73v-1.34h1a2.73,2.73,0,0,1-1.16-2.41,2.84,2.84,0,0,1,.78-2.12A2.91,2.91,0,0,1,238.06,637.81Z"/><path class="cls-5" d="M241.33,635.76v-1.7h1.74v1.7Z"/><path class="cls-5" d="M234.09,630.54v1.37h-1.84v-1.37Zm9,0v1.37h-7.73v-1.37Z"/><path class="cls-5" d="M243.07,626.88v1.37h-7.73v-1.34h1.41a2.4,2.4,0,0,1-1.41-2.21v-.6h1.3v.61a1.82,1.82,0,0,0,.85,1.58,4,4,0,0,0,2.29.59Z"/><path class="cls-5" d="M236.47,576.58h6.6V578h-6.6v1.39h-1.13V578h-.59a2.56,2.56,0,0,1-1.85-.63,2.37,2.37,0,0,1-.65-1.8v-1.12h1.14v1a1,1,0,0,0,.36.88,1.78,1.78,0,0,0,1.09.28h.5v-1.93h1.13Z"/><path class="cls-5" d="M241.92,566.8v-.37h1.15v.75a1.72,1.72,0,0,1-.29,1,1,1,0,0,1-.81.46,2.71,2.71,0,0,1,1.29,2.45,2.93,2.93,0,0,1-.63,1.95,2,2,0,0,1-1.63.74,2.18,2.18,0,0,1-1.58-.61,3,3,0,0,1-.8-1.73l-.39-2.25a.53.53,0,0,0-.56-.49,1.32,1.32,0,0,0-1,.46,1.82,1.82,0,0,0-.4,1.23,2,2,0,0,0,.36,1.25,1.76,1.76,0,0,0,1.08.63l-.15,1.31a2.64,2.64,0,0,1-1.73-1.05,3.52,3.52,0,0,1-.66-2.19,3.09,3.09,0,0,1,.74-2.18,2.58,2.58,0,0,1,2-.8h3.48a.59.59,0,0,0,.45-.13A.58.58,0,0,0,241.92,566.8Zm-1,5.63a1.12,1.12,0,0,0,.92-.4,1.63,1.63,0,0,0,.34-1.09,2.07,2.07,0,0,0-.71-1.61,2.63,2.63,0,0,0-1.82-.63h-.44l.43,2.47a1.68,1.68,0,0,0,.43.94A1.2,1.2,0,0,0,240.9,572.43Z"/><path class="cls-5" d="M242.08,561.88a2,2,0,0,0-.49-1.4,2.13,2.13,0,0,0-1.37-.63l.16-1.35a3.11,3.11,0,0,1,2.1,1.07,3.81,3.81,0,0,1-.31,5,4.21,4.21,0,0,1-2.93,1,4.26,4.26,0,0,1-3-1,3.41,3.41,0,0,1-1.12-2.65,3.5,3.5,0,0,1,.75-2.34,3.11,3.11,0,0,1,2.1-1.08l.16,1.4a1.89,1.89,0,0,0-1.83,2,1.93,1.93,0,0,0,.76,1.63,3.46,3.46,0,0,0,2.15.58,3.33,3.33,0,0,0,2.09-.58A2,2,0,0,0,242.08,561.88Z"/><path class="cls-5" d="M242.14,553.5a1.82,1.82,0,0,0-1.56-2l.25-1.27a2.8,2.8,0,0,1,1.77,1.09,3.43,3.43,0,0,1,.66,2.14,3.57,3.57,0,0,1-1,2.77,4.25,4.25,0,0,1-3,1,4.18,4.18,0,0,1-2.94-1,3.48,3.48,0,0,1-1.12-2.71,3.17,3.17,0,0,1,1-2.49,3.9,3.9,0,0,1,2.72-.91h.66v5.72C241.27,555.78,242.14,555,242.14,553.5Zm-5.89.07a2.12,2.12,0,0,0,.58,1.55,2.72,2.72,0,0,0,1.68.7v-4.27C237,551.63,236.25,552.3,236.25,553.57Z"/><path class="cls-5" d="M235.15,544.4a3.19,3.19,0,0,1,1.1-2.51,4.25,4.25,0,0,1,2.89-.95,4.46,4.46,0,0,1,3,.95,3.1,3.1,0,0,1,1.14,2.51,2.87,2.87,0,0,1-1.3,2.53h1.11v1.35H232.25V546.9h4.2A2.88,2.88,0,0,1,235.15,544.4Zm4.06-2a3.3,3.3,0,0,0-2.1.61,2,2,0,0,0-.78,1.63,2.06,2.06,0,0,0,.79,1.7,3.24,3.24,0,0,0,2.09.63,3.18,3.18,0,0,0,2.07-.64,2.07,2.07,0,0,0,.78-1.69,2,2,0,0,0-.77-1.63A3.26,3.26,0,0,0,239.21,542.36Z"/><path class="cls-5" d="M239.21,539.6a4.17,4.17,0,0,1-2.94-1,3.56,3.56,0,0,1-1.12-2.74,3.62,3.62,0,0,1,1.12-2.75,4.1,4.1,0,0,1,2.94-1,4.16,4.16,0,0,1,2.93,1,3.62,3.62,0,0,1,1.12,2.75,3.56,3.56,0,0,1-1.12,2.74A4.17,4.17,0,0,1,239.21,539.6Zm2.11-5.5a3.81,3.81,0,0,0-4.23,0,2.32,2.32,0,0,0,0,3.47,3.93,3.93,0,0,0,4.24,0,2.35,2.35,0,0,0,0-3.47Z"/><path class="cls-5" d="M239.21,530.73a4.17,4.17,0,0,1-2.94-1,3.54,3.54,0,0,1-1.12-2.74,3.6,3.6,0,0,1,1.12-2.74,4.11,4.11,0,0,1,2.94-1,4.17,4.17,0,0,1,2.93,1,3.6,3.6,0,0,1,1.12,2.74,3.54,3.54,0,0,1-1.12,2.74A4.17,4.17,0,0,1,239.21,530.73Zm2.11-5.5a3.87,3.87,0,0,0-4.23,0,2.32,2.32,0,0,0,0,3.47,3.25,3.25,0,0,0,2.12.63,3.32,3.32,0,0,0,2.12-.62,2.13,2.13,0,0,0,.76-1.74A2.11,2.11,0,0,0,241.32,525.23Z"/><path class="cls-5" d="M235.34,514.6l2.89,3,4.84-3.28V516l-3.93,2.63,1.29,1.37h2.64v1.38H232.25V520h6.52l-3.43-3.58Z"/><path class="cls-5" d="M241.33,513.29v-1.7h1.74v1.7Z"/><path class="cls-5" d="M242.08,506.25a2,2,0,0,0-.49-1.4,2.13,2.13,0,0,0-1.37-.63l.16-1.34a3.1,3.1,0,0,1,2.1,1.06,3.81,3.81,0,0,1-.31,5,4.21,4.21,0,0,1-2.93,1,4.31,4.31,0,0,1-3-1,3.43,3.43,0,0,1-1.12-2.66,3.5,3.5,0,0,1,.75-2.34,3.2,3.2,0,0,1,2.1-1.08l.16,1.4a1.89,1.89,0,0,0-1.83,2,1.92,1.92,0,0,0,.76,1.63,3.46,3.46,0,0,0,2.15.59,3.33,3.33,0,0,0,2.09-.59A2,2,0,0,0,242.08,506.25Z"/><path class="cls-5" d="M239.21,501.63a4.17,4.17,0,0,1-2.94-1,3.56,3.56,0,0,1-1.12-2.74,3.6,3.6,0,0,1,1.12-2.74,4.11,4.11,0,0,1,2.94-1,4.17,4.17,0,0,1,2.93,1,3.6,3.6,0,0,1,1.12,2.74,3.56,3.56,0,0,1-1.12,2.74A4.17,4.17,0,0,1,239.21,501.63Zm2.11-5.5a3.87,3.87,0,0,0-4.23,0,2.32,2.32,0,0,0,0,3.47,3.88,3.88,0,0,0,4.24,0,2.35,2.35,0,0,0,0-3.47Z"/><path class="cls-5" d="M238.8,485.9h4.27v1.38h-4.76a2.11,2.11,0,0,0-1.45.44,1.56,1.56,0,0,0-.52,1.24,1.72,1.72,0,0,0,.63,1.44,2.93,2.93,0,0,0,1.83.49h4.27v1.37h-7.73v-1.34h.94a2.6,2.6,0,0,1-1.13-2.27,2.92,2.92,0,0,1,.36-1.48,2.32,2.32,0,0,1,1-.94,2.63,2.63,0,0,1-1.4-2.49,2.74,2.74,0,0,1,.78-2.08,2.94,2.94,0,0,1,2.13-.75h5v1.37h-4.76a2.12,2.12,0,0,0-1.45.45,1.56,1.56,0,0,0-.52,1.24,1.72,1.72,0,0,0,.63,1.44A2.93,2.93,0,0,0,238.8,485.9Z"/><path class="cls-5" d="M245.11,478.12v1.37L231.6,474v-1.32Z"/><path class="cls-5" d="M236.44,465.67l5.48,4.45v-4.58h1.15v6.24h-1l-5.54-4.49v4.24h-1.15v-5.86Z"/><path class="cls-5" d="M242.14,460.58a1.83,1.83,0,0,0-1.56-2l.25-1.26a2.76,2.76,0,0,1,1.77,1.09,3.43,3.43,0,0,1,.66,2.14,3.59,3.59,0,0,1-1,2.77,5,5,0,0,1-5.94,0,3.49,3.49,0,0,1-1.12-2.71,3.17,3.17,0,0,1,1-2.49,3.86,3.86,0,0,1,2.72-.91h.66v5.72C241.27,462.86,242.14,462.07,242.14,460.58Zm-5.89.06a2.15,2.15,0,0,0,.58,1.56,2.72,2.72,0,0,0,1.68.7v-4.27C237,458.71,236.25,459.38,236.25,460.64Z"/><path class="cls-5" d="M242.14,452.11a1.82,1.82,0,0,0-1.56-2l.25-1.27A2.76,2.76,0,0,1,242.6,450a3.43,3.43,0,0,1,.66,2.14,3.57,3.57,0,0,1-1,2.77,4.25,4.25,0,0,1-3,1,4.18,4.18,0,0,1-2.94-1,3.48,3.48,0,0,1-1.12-2.71,3.17,3.17,0,0,1,1-2.49,3.9,3.9,0,0,1,2.72-.91h.66v5.72C241.27,454.39,242.14,453.6,242.14,452.11Zm-5.89.07a2.12,2.12,0,0,0,.58,1.55,2.72,2.72,0,0,0,1.68.7v-4.27C237,450.24,236.25,450.91,236.25,452.18Z"/><path class="cls-5" d="M242.14,443.66a1.83,1.83,0,0,0-1.56-2l.25-1.26a2.76,2.76,0,0,1,1.77,1.09,3.43,3.43,0,0,1,.66,2.14,3.59,3.59,0,0,1-1,2.77,5,5,0,0,1-5.94,0,3.49,3.49,0,0,1-1.12-2.71,3.17,3.17,0,0,1,1-2.49,3.86,3.86,0,0,1,2.72-.91h.66V446C241.27,445.94,242.14,445.15,242.14,443.66Zm-5.89.06a2.15,2.15,0,0,0,.58,1.56,2.72,2.72,0,0,0,1.68.7v-4.27C237,441.79,236.25,442.46,236.25,443.72Z"/><path class="cls-5" d="M238.06,431.79h5v1.38h-4.76a2.05,2.05,0,0,0-1.46.47,1.73,1.73,0,0,0-.51,1.35,1.89,1.89,0,0,0,.63,1.54,2.79,2.79,0,0,0,1.83.53h4.27v1.37h-7.73v-1.34h1a2.73,2.73,0,0,1-1.16-2.41,2.85,2.85,0,0,1,.78-2.12A2.91,2.91,0,0,1,238.06,431.79Z"/><path class="cls-5" d="M243.26,426.8a3.77,3.77,0,0,1-.69,2.39,2.45,2.45,0,0,1-1.86,1l-.21-1.37a1.87,1.87,0,0,0,1.26-.58,2.13,2.13,0,0,0,.41-1.4,1.92,1.92,0,0,0-.33-1.21,1.17,1.17,0,0,0-1-.42c-.62,0-1,.45-1.11,1.36l-.18,1.1a3.07,3.07,0,0,1-.73,1.7,1.9,1.9,0,0,1-1.45.58,2,2,0,0,1-1.61-.79,3.29,3.29,0,0,1-.63-2.11,3.36,3.36,0,0,1,.62-2.12,2.74,2.74,0,0,1,1.77-1l.18,1.27a2.07,2.07,0,0,0-1.14.62,1.92,1.92,0,0,0-.34,1.22,1.89,1.89,0,0,0,.3,1.14,1,1,0,0,0,1.49.13,1.68,1.68,0,0,0,.35-.91l.21-1.24c.25-1.56,1-2.35,2.21-2.35a2.2,2.2,0,0,1,1.79.81A3.38,3.38,0,0,1,243.26,426.8Z"/><path class="cls-5" d="M238.06,415.34h5v1.37h-4.76a2.06,2.06,0,0,0-1.46.48,1.73,1.73,0,0,0-.51,1.35,1.89,1.89,0,0,0,.63,1.54,2.79,2.79,0,0,0,1.83.53h4.27V422H232.25v-1.37h4a2.71,2.71,0,0,1-1.13-2.38,2.84,2.84,0,0,1,.78-2.12A2.91,2.91,0,0,1,238.06,415.34Z"/><path class="cls-5" d="M239.21,413.6a4.17,4.17,0,0,1-2.94-1,3.57,3.57,0,0,1-1.12-2.74,3.62,3.62,0,0,1,1.12-2.75,4.1,4.1,0,0,1,2.94-1,4.16,4.16,0,0,1,2.93,1,3.62,3.62,0,0,1,1.12,2.75,3.57,3.57,0,0,1-1.12,2.74A4.17,4.17,0,0,1,239.21,413.6Zm2.11-5.5a3.81,3.81,0,0,0-4.23,0,2.32,2.32,0,0,0,0,3.47,3.3,3.3,0,0,0,2.12.62,3.26,3.26,0,0,0,2.12-.62,2.35,2.35,0,0,0,0-3.47Z"/><path class="cls-5" d="M235.15,400.37a3.19,3.19,0,0,1,1.1-2.51,4.25,4.25,0,0,1,2.89-.95,4.46,4.46,0,0,1,3,.95,3.1,3.1,0,0,1,1.14,2.51,2.93,2.93,0,0,1-1.26,2.5h3.93v1.38H235.34V402.9h1.16A2.89,2.89,0,0,1,235.15,400.37Zm4.06-2a3.3,3.3,0,0,0-2.1.61,2,2,0,0,0-.78,1.63,2.06,2.06,0,0,0,.79,1.7,3.24,3.24,0,0,0,2.09.63,3.18,3.18,0,0,0,2.07-.64,2.08,2.08,0,0,0,.78-1.69,2,2,0,0,0-.77-1.63A3.26,3.26,0,0,0,239.21,398.33Z"/><path class="cls-5" d="M234.09,351v1.38h-1.84V351Zm9,0v1.38h-7.73V351Z"/><path class="cls-5" d="M238.06,342.28h5v1.37h-4.76a2.07,2.07,0,0,0-1.45.47,1.77,1.77,0,0,0-.51,1.36A1.89,1.89,0,0,0,237,347a2.8,2.8,0,0,0,1.84.52h4.26v1.38h-7.73v-1.34h1a2.72,2.72,0,0,1-1.17-2.41,2.84,2.84,0,0,1,.78-2.12A2.89,2.89,0,0,1,238.06,342.28Z"/><path class="cls-5" d="M243.26,337.57a3.76,3.76,0,0,1-.69,2.38,2.49,2.49,0,0,1-1.86,1l-.21-1.38a1.87,1.87,0,0,0,1.26-.58,2,2,0,0,0,.41-1.39,1.93,1.93,0,0,0-.33-1.22,1.17,1.17,0,0,0-1-.42c-.61,0-1,.45-1.11,1.36l-.17,1.11a3,3,0,0,1-.74,1.69,1.91,1.91,0,0,1-1.45.59,2,2,0,0,1-1.61-.8,3.27,3.27,0,0,1-.63-2.11,3.38,3.38,0,0,1,.62-2.12,2.69,2.69,0,0,1,1.77-1l.18,1.26a2,2,0,0,0-1.14.63,1.91,1.91,0,0,0-.34,1.22,1.93,1.93,0,0,0,.3,1.14.93.93,0,0,0,.78.41.91.91,0,0,0,.71-.28,1.75,1.75,0,0,0,.35-.92l.21-1.24c.25-1.56,1-2.34,2.21-2.34a2.23,2.23,0,0,1,1.79.8A3.35,3.35,0,0,1,243.26,337.57Z"/><path class="cls-5" d="M236.47,333.91h-1.13v-1.36h-2.49v-1.38h2.49v-1.94h1.13v1.94h4.33a1.3,1.3,0,0,0,.85-.21,1,1,0,0,0,.24-.74V329h1.18v1.39a2.16,2.16,0,0,1-.53,1.57,2.05,2.05,0,0,1-1.55.55h-4.52Z"/><path class="cls-5" d="M241.92,321.39V321h1.15v.75a1.73,1.73,0,0,1-.29,1,1.11,1.11,0,0,1-.8.46,2.71,2.71,0,0,1,1.28,2.44,2.89,2.89,0,0,1-.63,1.95,2,2,0,0,1-1.63.74,2.17,2.17,0,0,1-1.58-.6,3,3,0,0,1-.8-1.73l-.39-2.26a.52.52,0,0,0-.56-.48,1.31,1.31,0,0,0-1,.45,1.84,1.84,0,0,0-.39,1.24,1.94,1.94,0,0,0,.35,1.24,1.82,1.82,0,0,0,1.08.64l-.15,1.3a2.64,2.64,0,0,1-1.73-1.05,3.51,3.51,0,0,1-.66-2.18,3.1,3.1,0,0,1,.74-2.19,2.57,2.57,0,0,1,2-.79h3.48a.63.63,0,0,0,.45-.13A.62.62,0,0,0,241.92,321.39Zm-1,5.63a1.13,1.13,0,0,0,.92-.39,1.6,1.6,0,0,0,.34-1.09,2.08,2.08,0,0,0-.71-1.62,2.61,2.61,0,0,0-1.81-.63h-.45l.43,2.48a1.62,1.62,0,0,0,.43.93A1.2,1.2,0,0,0,240.9,327Z"/><path class="cls-5" d="M242.61,317a3.15,3.15,0,0,1-1,2.44,3.86,3.86,0,0,1-2.7.9,3.94,3.94,0,0,1-2.7-.91,3.06,3.06,0,0,1-1-2.43,2.83,2.83,0,0,1,1.14-2.4h-.95v-1.34h7.37a3.37,3.37,0,0,1,2.5.91,3.46,3.46,0,0,1,.9,2.54,3.9,3.9,0,0,1-.69,2.43,2.61,2.61,0,0,1-1.91,1l-.13-1.37a1.83,1.83,0,0,0,1.21-.67,2.38,2.38,0,0,0,.38-1.43,2,2,0,0,0-.59-1.55,2.53,2.53,0,0,0-1.74-.53h-1.21A2.78,2.78,0,0,1,242.61,317ZM237,318.35a3.39,3.39,0,0,0,3.76,0,2,2,0,0,0,.67-1.6,1.93,1.93,0,0,0-.7-1.55,3.14,3.14,0,0,0-3.69,0,1.88,1.88,0,0,0-.72,1.53A2,2,0,0,0,237,318.35Z"/><path class="cls-5" d="M243.07,309.89v1.37h-7.73v-1.34h1.41a2.39,2.39,0,0,1-1.41-2.21v-.6h1.3v.61a1.82,1.82,0,0,0,.85,1.58,4,4,0,0,0,2.29.59Z"/><path class="cls-5" d="M241.92,299.46v-.37h1.15v.75a1.72,1.72,0,0,1-.29,1,1,1,0,0,1-.8.46,2.73,2.73,0,0,1,1.28,2.45,2.93,2.93,0,0,1-.63,1.95,2,2,0,0,1-1.63.74,2.18,2.18,0,0,1-1.58-.61,3,3,0,0,1-.8-1.73l-.39-2.25a.52.52,0,0,0-.56-.48,1.31,1.31,0,0,0-1,.45,1.81,1.81,0,0,0-.39,1.23,2,2,0,0,0,.35,1.25,1.76,1.76,0,0,0,1.08.63l-.15,1.31a2.64,2.64,0,0,1-1.73-1.05,3.52,3.52,0,0,1-.66-2.19,3.09,3.09,0,0,1,.74-2.18,2.58,2.58,0,0,1,2-.8h3.48a.59.59,0,0,0,.45-.13A.58.58,0,0,0,241.92,299.46Zm-1,5.63a1.11,1.11,0,0,0,.92-.4,1.58,1.58,0,0,0,.34-1.09,2.07,2.07,0,0,0-.71-1.61,2.61,2.61,0,0,0-1.81-.63h-.45l.43,2.47a1.68,1.68,0,0,0,.43.94A1.2,1.2,0,0,0,240.9,305.09Z"/><path class="cls-5" d="M238.81,291.6h4.26V293h-4.76a2.12,2.12,0,0,0-1.45.45,1.54,1.54,0,0,0-.51,1.24,1.7,1.7,0,0,0,.63,1.43,2.91,2.91,0,0,0,1.83.5h4.26V298h-7.73v-1.34h.95a2.58,2.58,0,0,1-1.14-2.27,2.92,2.92,0,0,1,.36-1.48,2.32,2.32,0,0,1,1-.94,2.63,2.63,0,0,1-1.4-2.49,2.74,2.74,0,0,1,.78-2.08,3,3,0,0,1,2.13-.75h5V288h-4.76a2.17,2.17,0,0,0-1.45.44,1.58,1.58,0,0,0-.51,1.25,1.72,1.72,0,0,0,.63,1.44A2.91,2.91,0,0,0,238.81,291.6Z"/><path class="cls-5" d="M241.33,284.79v-1.7h1.74v1.7Z"/><path class="cls-5" d="M242.08,278a1.94,1.94,0,0,0-.49-1.39,2.09,2.09,0,0,0-1.37-.64l.16-1.34a3.11,3.11,0,0,1,2.1,1.07,3.43,3.43,0,0,1,.78,2.3,3.39,3.39,0,0,1-1.09,2.67,4.22,4.22,0,0,1-2.93,1,4.26,4.26,0,0,1-3-1,3.43,3.43,0,0,1-1.12-2.66,3.53,3.53,0,0,1,.75-2.34,3.2,3.2,0,0,1,2.1-1.08l.16,1.41a1.88,1.88,0,0,0-1.83,2,1.93,1.93,0,0,0,.76,1.63,3.55,3.55,0,0,0,2.15.58,3.33,3.33,0,0,0,2.09-.59A2,2,0,0,0,242.08,278Z"/><path class="cls-5" d="M239.21,273.68a4.17,4.17,0,0,1-2.94-1,3.54,3.54,0,0,1-1.12-2.74,3.6,3.6,0,0,1,1.12-2.74,4.11,4.11,0,0,1,2.94-1,4.17,4.17,0,0,1,2.93,1,3.57,3.57,0,0,1,1.12,2.74,3.51,3.51,0,0,1-1.12,2.74A4.17,4.17,0,0,1,239.21,273.68Zm2.11-5.5a3.87,3.87,0,0,0-4.23,0,2.34,2.34,0,0,0,0,3.47,3.25,3.25,0,0,0,2.12.63,3.32,3.32,0,0,0,2.12-.62,2.34,2.34,0,0,0,0-3.48Z"/><path class="cls-5" d="M238.81,258.23h4.26v1.38h-4.76a2.11,2.11,0,0,0-1.45.44,1.55,1.55,0,0,0-.51,1.24,1.72,1.72,0,0,0,.63,1.44,2.91,2.91,0,0,0,1.83.49h4.26v1.37h-7.73v-1.34h.95a2.58,2.58,0,0,1-1.14-2.27,2.92,2.92,0,0,1,.36-1.48,2.32,2.32,0,0,1,1-.94,2.63,2.63,0,0,1-1.4-2.49,2.74,2.74,0,0,1,.78-2.08,3,3,0,0,1,2.13-.75h5v1.37h-4.76a2.12,2.12,0,0,0-1.45.45,1.55,1.55,0,0,0-.51,1.24,1.72,1.72,0,0,0,.63,1.44A2.91,2.91,0,0,0,238.81,258.23Z"/><path class="cls-5" d="M245.11,250.72v1.38l-13.51-5.51v-1.31Z"/><path class="cls-5" d="M236.44,238.56l5.48,4.45v-4.59h1.15v6.24h-1l-5.55-4.48v4.24h-1.15v-5.86Z"/><path class="cls-5" d="M242.14,233.74a1.82,1.82,0,0,0-1.56-2l.25-1.27a2.85,2.85,0,0,1,1.78,1.09,3.49,3.49,0,0,1,.65,2.14,3.57,3.57,0,0,1-1,2.77,4.25,4.25,0,0,1-3,1,4.18,4.18,0,0,1-2.94-1,3.48,3.48,0,0,1-1.12-2.71,3.2,3.2,0,0,1,1-2.49,3.9,3.9,0,0,1,2.72-.91h.66v5.72C241.27,236,242.14,235.23,242.14,233.74Zm-5.88.07a2.12,2.12,0,0,0,.57,1.55,2.72,2.72,0,0,0,1.68.7v-4.27C237,231.87,236.26,232.54,236.26,233.81Z"/><path class="cls-5" d="M242.14,225.57a1.83,1.83,0,0,0-1.56-2l.25-1.26a2.8,2.8,0,0,1,1.78,1.09,3.49,3.49,0,0,1,.65,2.14,3.59,3.59,0,0,1-1,2.77,5,5,0,0,1-5.94,0,3.49,3.49,0,0,1-1.12-2.71,3.2,3.2,0,0,1,1-2.49,3.86,3.86,0,0,1,2.72-.91h.66v5.72C241.27,227.84,242.14,227.06,242.14,225.57Zm-5.88.06a2.1,2.1,0,0,0,.57,1.55,2.72,2.72,0,0,0,1.68.71v-4.27C237,223.69,236.26,224.37,236.26,225.63Z"/><path class="cls-5" d="M242.14,217.38a1.83,1.83,0,0,0-1.56-2l.25-1.26a2.8,2.8,0,0,1,1.78,1.09,3.49,3.49,0,0,1,.65,2.14,3.59,3.59,0,0,1-1,2.77,5,5,0,0,1-5.94,0,3.49,3.49,0,0,1-1.12-2.71,3.2,3.2,0,0,1,1-2.49,3.86,3.86,0,0,1,2.72-.91h.66v5.72C241.27,219.66,242.14,218.87,242.14,217.38Zm-5.88.06a2.14,2.14,0,0,0,.57,1.56,2.72,2.72,0,0,0,1.68.7v-4.27C237,215.5,236.26,216.18,236.26,217.44Z"/><path class="cls-5" d="M238.06,205.81h5v1.37h-4.76a2.07,2.07,0,0,0-1.45.47,1.77,1.77,0,0,0-.51,1.36,1.91,1.91,0,0,0,.62,1.54,2.8,2.8,0,0,0,1.84.52h4.26v1.38h-7.73V211.1h1a2.69,2.69,0,0,1-1.17-2.4,2.84,2.84,0,0,1,.78-2.12A2.89,2.89,0,0,1,238.06,205.81Z"/><path class="cls-5" d="M243.26,201.1a3.76,3.76,0,0,1-.69,2.38,2.49,2.49,0,0,1-1.86,1l-.21-1.38a1.87,1.87,0,0,0,1.26-.58,2.06,2.06,0,0,0,.41-1.39,1.93,1.93,0,0,0-.33-1.22,1.17,1.17,0,0,0-1-.42c-.61,0-1,.45-1.11,1.36l-.17,1.11a3,3,0,0,1-.74,1.69,1.91,1.91,0,0,1-1.45.59,2,2,0,0,1-1.61-.8,3.29,3.29,0,0,1-.63-2.11,3.36,3.36,0,0,1,.62-2.12,2.69,2.69,0,0,1,1.77-1l.18,1.26a2,2,0,0,0-1.14.63,2.32,2.32,0,0,0,0,2.35.92.92,0,0,0,.78.42.94.94,0,0,0,.71-.28,1.75,1.75,0,0,0,.35-.92l.21-1.24c.25-1.56,1-2.34,2.21-2.34a2.2,2.2,0,0,1,1.79.8A3.35,3.35,0,0,1,243.26,201.1Z"/><path class="cls-5" d="M238.06,189.93h5v1.37h-4.76a2.07,2.07,0,0,0-1.45.47,1.77,1.77,0,0,0-.51,1.36,1.91,1.91,0,0,0,.62,1.54,2.8,2.8,0,0,0,1.84.52h4.26v1.38H232.25v-1.38h4a2.68,2.68,0,0,1-1.14-2.37,2.84,2.84,0,0,1,.78-2.12A2.89,2.89,0,0,1,238.06,189.93Z"/><path class="cls-5" d="M239.21,188.46a4.17,4.17,0,0,1-2.94-1,3.56,3.56,0,0,1-1.12-2.74,3.6,3.6,0,0,1,1.12-2.74,4.11,4.11,0,0,1,2.94-1,4.17,4.17,0,0,1,2.93,1,3.57,3.57,0,0,1,1.12,2.74,3.52,3.52,0,0,1-1.12,2.74A4.17,4.17,0,0,1,239.21,188.46Zm2.11-5.5a3.87,3.87,0,0,0-4.23,0,2.34,2.34,0,0,0,0,3.47,3.88,3.88,0,0,0,4.24,0,2.33,2.33,0,0,0,0-3.47Z"/><path class="cls-5" d="M235.15,175.51a3.16,3.16,0,0,1,1.11-2.51,4.21,4.21,0,0,1,2.89-.95,4.49,4.49,0,0,1,3,.95,3.12,3.12,0,0,1,1.13,2.51A3,3,0,0,1,242,178h3.93v1.37H235.34v-1.34h1.16A2.92,2.92,0,0,1,235.15,175.51Zm4.06-2a3.36,3.36,0,0,0-2.1.61,2,2,0,0,0-.78,1.63,2.06,2.06,0,0,0,.79,1.7,3.26,3.26,0,0,0,2.09.64,3.18,3.18,0,0,0,2.07-.65,2.08,2.08,0,0,0,.79-1.69,2,2,0,0,0-.78-1.63A3.32,3.32,0,0,0,239.21,173.47Z"/><line class="cls-6" x1="321.04" y1="101.92" x2="321.04" y2="978.08"/><line class="cls-6" x1="503.57" y1="795.52" x2="138.51" y2="795.52"/><polyline class="cls-6" points="503.4 977.9 321.04 795.58 138.54 978.08"/><rect x="812.19" y="248.49" width="12.67" height="152.1"/><rect x="818.53" y="305.53" width="44.36" height="12.67"/><rect x="811.48" y="288.51" width="48.13" height="12.68" transform="translate(36.23 677.18) rotate(-45)"/><rect x="793.18" y="349.89" width="21.78" height="12.67"/><path d="M824.87,381.58V368.9a12.68,12.68,0,0,0,0-25.35V330.88a25.35,25.35,0,1,1,0,50.7Z"/><path d="M843.88,267.5H831.2a12.67,12.67,0,0,0-25.34,0H793.18a25.35,25.35,0,0,1,50.7,0Z"/><path d="M1128.66,825.2H1116a75.85,75.85,0,1,0-151.69,0H951.62a88.52,88.52,0,1,1,177,0Z"/><rect x="865.7" y="514.67" width="197.17" height="12.67" transform="translate(-85.97 834.45) rotate(-45)"/><path d="M1395.24,837.87h-507V511L862.89,536.3v35.4h-50.7V394.25H938.94a120.55,120.55,0,0,1,120.41,120.42v31.68h215.48a120.55,120.55,0,0,1,120.41,120.41ZM900.92,825.2h481.64V666.76A107.86,107.86,0,0,0,1274.83,559H1046.68V514.67A107.86,107.86,0,0,0,938.94,406.93H824.87V559h25.35v-28l71.57-71.57,9,9-29.83,29.83Z"/><polygon points="1388.9 799.85 1262.15 799.85 1262.15 552.69 1274.83 552.69 1274.83 787.17 1388.9 787.17 1388.9 799.85"/><path d="M1135.4,723.8a88.82,88.82,0,0,1-88.72-88.72V546.35h177.45v88.73A88.83,88.83,0,0,1,1135.4,723.8ZM1059.35,559v76.05a76.05,76.05,0,1,0,152.1,0V559Z"/><path d="M869.23,451.29h-57v-57h57Zm-44.36-12.67h31.68V406.93H824.87Z"/><path class="cls-7" d="M1059.35,559v76.05a76.05,76.05,0,1,0,152.1,0V559Z"/><path class="cls-8" d="M964.7,825.2a75.85,75.85,0,1,1,151.69,0Z"/><rect class="cls-9" x="824.87" y="406.93" width="31.69" height="31.69"/><path class="cls-10" d="M1274.83,559h0a107.74,107.74,0,0,1,107.74,107.74V787.18a0,0,0,0,1,0,0H1274.83a0,0,0,0,1,0,0V559A0,0,0,0,1,1274.83,559Z"/></g></svg>