<svg xmlns="http://www.w3.org/2000/svg" xmlns:xlink="http://www.w3.org/1999/xlink" viewBox="0 0 1080 1920"><defs><style>.cls-1,.cls-2{fill:#003691;}.cls-2{stroke:#fff;stroke-width:2px;}.cls-10,.cls-11,.cls-12,.cls-13,.cls-14,.cls-2,.cls-3,.cls-4,.cls-5,.cls-6,.cls-7,.cls-8,.cls-9{stroke-miterlimit:10;}.cls-10,.cls-11,.cls-12,.cls-13,.cls-14,.cls-3,.cls-4,.cls-5,.cls-6,.cls-7,.cls-8,.cls-9{fill:none;}.cls-3{stroke:url(#linear-gradient);}.cls-4{stroke:url(#linear-gradient-2);}.cls-5{stroke:url(#linear-gradient-3);}.cls-6{stroke:url(#linear-gradient-4);}.cls-7{stroke:url(#linear-gradient-5);}.cls-8{stroke:url(#linear-gradient-6);}.cls-9{stroke:url(#linear-gradient-7);}.cls-10{stroke:url(#linear-gradient-8);}.cls-11{stroke:url(#linear-gradient-9);}.cls-12{stroke:url(#linear-gradient-10);}.cls-13{stroke:url(#linear-gradient-11);}.cls-14{stroke:url(#linear-gradient-12);}.cls-15{fill:#fff;}</style><linearGradient id="linear-gradient" y1="162.76" x2="1080" y2="162.76" gradientUnits="userSpaceOnUse"><stop offset="0" stop-color="#fff" stop-opacity="0"/><stop offset="0.51" stop-color="#fff"/><stop offset="1" stop-color="#fff" stop-opacity="0"/></linearGradient><linearGradient id="linear-gradient-2" y1="223.89" y2="223.89" xlink:href="#linear-gradient"/><linearGradient id="linear-gradient-3" y1="285.02" y2="285.02" xlink:href="#linear-gradient"/><linearGradient id="linear-gradient-4" y1="1634.92" y2="1634.92" xlink:href="#linear-gradient"/><linearGradient id="linear-gradient-5" y1="1696.08" y2="1696.08" xlink:href="#linear-gradient"/><linearGradient id="linear-gradient-6" y1="1757.24" y2="1757.24" xlink:href="#linear-gradient"/><linearGradient id="linear-gradient-7" x1="-4679.41" y1="-2462.33" x2="-2759.41" y2="-2462.33" gradientTransform="translate(-2304.59 4679.41) rotate(90)" xlink:href="#linear-gradient"/><linearGradient id="linear-gradient-8" x1="-4679.41" y1="-2523.49" x2="-2759.41" y2="-2523.49" gradientTransform="translate(-2304.59 4679.41) rotate(90)" xlink:href="#linear-gradient"/><linearGradient id="linear-gradient-9" x1="-4679.41" y1="-2584.58" x2="-2759.41" y2="-2584.58" gradientTransform="translate(-2304.59 4679.41) rotate(90)" xlink:href="#linear-gradient"/><linearGradient id="linear-gradient-10" x1="-4679.41" y1="-3226.85" x2="-2759.41" y2="-3226.85" gradientTransform="translate(-2304.59 4679.41) rotate(90)" xlink:href="#linear-gradient"/><linearGradient id="linear-gradient-11" x1="-4679.41" y1="-3165.69" x2="-2759.41" y2="-3165.69" gradientTransform="translate(-2304.59 4679.41) rotate(90)" xlink:href="#linear-gradient"/><linearGradient id="linear-gradient-12" x1="-4679.41" y1="-3104.52" x2="-2759.41" y2="-3104.52" gradientTransform="translate(-2304.59 4679.41) rotate(90)" xlink:href="#linear-gradient"/></defs><g id="Background"><rect class="cls-1" x="-420" y="420" width="1920" height="1080" transform="translate(1500 420) rotate(90)"/></g><g id="Graphic"><path class="cls-2" d="M157.74,1757.24l111.66-15.75a76.18,76.18,0,0,0,65.5-75.42V921.47l-177.16-78"/><path class="cls-2" d="M921,843.48c0,210.43-170.58,381-381,381h0c-210.43,0-381-170.59-381-381"/><path class="cls-2" d="M922.26,1757.24l-15.75-111.66a76.18,76.18,0,0,0-75.42-65.5H248.91a76.18,76.18,0,0,0-75.42,65.5l-15.75,111.66"/><line class="cls-3" y1="162.76" x2="1080" y2="162.76"/><line class="cls-4" y1="223.89" x2="1080" y2="223.89"/><line class="cls-5" y1="285.02" x2="1080" y2="285.02"/><line class="cls-6" y1="1634.92" x2="1080" y2="1634.92"/><line class="cls-7" y1="1696.08" x2="1080" y2="1696.08"/><line class="cls-8" y1="1757.24" x2="1080" y2="1757.24"/><line class="cls-9" x1="157.74" x2="157.74" y2="1920"/><line class="cls-10" x1="218.9" x2="218.9" y2="1920"/><line class="cls-11" x1="279.99" x2="279.99" y2="1920"/><line class="cls-12" x1="922.26" x2="922.26" y2="1920"/><line class="cls-13" x1="861.1" x2="861.1" y2="1920"/><line class="cls-14" x1="799.93" x2="799.93" y2="1920"/><path class="cls-15" d="M403.28,439.6h-4.66l-1,2.63h-1.49l4.15-10.72h1.48l4.1,10.72h-1.61Zm-4.19-1.23h3.73l-1.84-5Z"/><path class="cls-15" d="M408.24,442.23h-1.36v-7.65h1.33V436a2.37,2.37,0,0,1,2.19-1.39H411v1.28h-.61a1.81,1.81,0,0,0-1.56.84,3.92,3.92,0,0,0-.58,2.27Z"/><path class="cls-15" d="M412.08,435.7v-1.12h1.34v-2.47h1.36v2.47h1.93v1.12h-1.93V440a1.29,1.29,0,0,0,.21.84,1,1,0,0,0,.74.24h1.17v1.17h-1.38a2.15,2.15,0,0,1-1.56-.53,2,2,0,0,1-.54-1.53V435.7Z"/><path class="cls-15" d="M419.31,433.34H418v-1.83h1.36Zm0,8.89H418v-7.65h1.36Z"/><path class="cls-15" d="M423.91,442.42a3.76,3.76,0,0,1-2.36-.68,2.49,2.49,0,0,1-1-1.85l1.36-.2a1.87,1.87,0,0,0,.58,1.25,2.14,2.14,0,0,0,1.38.4,1.92,1.92,0,0,0,1.21-.33,1.18,1.18,0,0,0,.41-1c0-.61-.45-1-1.34-1.1l-1.1-.17a3.11,3.11,0,0,1-1.68-.73,1.85,1.85,0,0,1-.58-1.43,1.93,1.93,0,0,1,.79-1.6,3.86,3.86,0,0,1,4.18,0,2.64,2.64,0,0,1,1,1.75l-1.25.18a2,2,0,0,0-.62-1.12,2.33,2.33,0,0,0-2.34-.05.93.93,0,0,0-.41.77.94.94,0,0,0,.28.71,1.8,1.8,0,0,0,.91.35l1.23.2c1.55.25,2.32,1,2.32,2.19a2.19,2.19,0,0,1-.8,1.77A3.32,3.32,0,0,1,423.91,442.42Z"/><path class="cls-15" d="M427.28,435.7v-1.12h1.34v-2.47H430v2.47h1.93v1.12H430V440a1.23,1.23,0,0,0,.22.84.93.93,0,0,0,.73.24h1.17v1.17h-1.38a2.15,2.15,0,0,1-1.56-.53,2,2,0,0,1-.54-1.53V435.7Z"/><path class="cls-15" d="M434.51,433.34h-1.36v-1.83h1.36Zm0,8.89h-1.36v-7.65h1.36Z"/><path class="cls-15" d="M439.51,441.25a2,2,0,0,0,1.38-.48,2.12,2.12,0,0,0,.63-1.36l1.33.16a3,3,0,0,1-1.06,2.07,3.76,3.76,0,0,1-4.93-.3,4.22,4.22,0,0,1-1-2.91,4.17,4.17,0,0,1,1-2.93,3.36,3.36,0,0,1,2.63-1.11,3.48,3.48,0,0,1,2.31.74,3.12,3.12,0,0,1,1.07,2.08l-1.39.15a1.86,1.86,0,0,0-2-1.8,1.91,1.91,0,0,0-1.61.75,3.45,3.45,0,0,0-.58,2.12,3.36,3.36,0,0,0,.58,2.08A2,2,0,0,0,439.51,441.25Z"/><path class="cls-15" d="M450.7,441.09h.36v1.14h-.74a1.72,1.72,0,0,1-1-.29,1,1,0,0,1-.45-.79,2.7,2.7,0,0,1-2.42,1.27,2.86,2.86,0,0,1-1.93-.63,2,2,0,0,1-.73-1.61,2.11,2.11,0,0,1,.6-1.56,2.92,2.92,0,0,1,1.71-.8l2.23-.38a.52.52,0,0,0,.48-.55,1.29,1.29,0,0,0-.45-1,1.81,1.81,0,0,0-1.23-.39,2,2,0,0,0-1.23.35,1.87,1.87,0,0,0-.63,1.07l-1.29-.15a2.62,2.62,0,0,1,1-1.71,3.54,3.54,0,0,1,2.17-.65,3.06,3.06,0,0,1,2.16.73,2.53,2.53,0,0,1,.79,1.95v3.45a.46.46,0,0,0,.57.57Zm-5.58-1a1.14,1.14,0,0,0,.39.92,1.67,1.67,0,0,0,1.08.32,2.07,2.07,0,0,0,1.6-.69,2.59,2.59,0,0,0,.62-1.8v-.44l-2.45.42a1.62,1.62,0,0,0-.92.43A1.17,1.17,0,0,0,445.12,440.08Z"/><path class="cls-15" d="M453.38,442.23H452V431.51h1.36Z"/><path class="cls-15" d="M456.63,442.23h-1.36V431.51h1.36Z"/><path class="cls-15" d="M460.41,443l.25-.68-3-7.69h1.43l2.27,6,2.28-6H465l-3.34,8.51a3.21,3.21,0,0,1-1,1.54,2.56,2.56,0,0,1-1.58.43h-.79v-1.15h.79a1.43,1.43,0,0,0,.85-.22A1.47,1.47,0,0,0,460.41,443Z"/><path class="cls-15" d="M470.57,442.23h-1.48V431.51h7.52v1.26h-6v3.49H476v1.25h-5.43Z"/><path class="cls-15" d="M478.87,442.23h-1.36v-7.65h1.33V436a2.37,2.37,0,0,1,2.19-1.39h.59v1.28H481a1.8,1.8,0,0,0-1.56.84,3.92,3.92,0,0,0-.59,2.27Z"/><path class="cls-15" d="M482,438.4a4.08,4.08,0,0,1,1-2.9,3.48,3.48,0,0,1,2.71-1.11,3.55,3.55,0,0,1,2.72,1.11,4.06,4.06,0,0,1,1,2.9,4.13,4.13,0,0,1-1,2.91,3.55,3.55,0,0,1-2.72,1.11,3.48,3.48,0,0,1-2.71-1.11A4.09,4.09,0,0,1,482,438.4Zm5.45,2.1a3.85,3.85,0,0,0,0-4.19,2.13,2.13,0,0,0-1.73-.77,2.08,2.08,0,0,0-1.71.77,3.2,3.2,0,0,0-.62,2.09,3.26,3.26,0,0,0,.61,2.1,2.34,2.34,0,0,0,3.45,0Z"/><path class="cls-15" d="M497.13,438v4.22h-1.36v-4.72a2.14,2.14,0,0,0-.43-1.43,1.56,1.56,0,0,0-1.23-.51,1.72,1.72,0,0,0-1.43.62,3,3,0,0,0-.49,1.82v4.22h-1.36v-7.65h1.33v.93a2.57,2.57,0,0,1,2.25-1.12,2.92,2.92,0,0,1,1.46.35,2.24,2.24,0,0,1,.94,1,2.6,2.6,0,0,1,2.47-1.38,2.76,2.76,0,0,1,2.06.77,3,3,0,0,1,.74,2.11v5h-1.36v-4.72a2.14,2.14,0,0,0-.44-1.43,1.56,1.56,0,0,0-1.23-.51,1.72,1.72,0,0,0-1.43.62A3,3,0,0,0,497.13,438Z"/><path class="cls-15" d="M508.68,442.23h-1.47V431.51h1.47Z"/><path class="cls-15" d="M512.08,442.23h-1.36v-7.65h1.33V436a2.37,2.37,0,0,1,2.19-1.39h.59v1.28h-.6a1.82,1.82,0,0,0-1.57.84,4,4,0,0,0-.58,2.27Z"/><path class="cls-15" d="M522.12,441.09h.37v1.14h-.74a1.72,1.72,0,0,1-1-.29,1.09,1.09,0,0,1-.46-.79,2.68,2.68,0,0,1-2.42,1.27,2.83,2.83,0,0,1-1.92-.63,2,2,0,0,1-.74-1.61,2.11,2.11,0,0,1,.6-1.56,3,3,0,0,1,1.71-.8l2.24-.38a.52.52,0,0,0,.47-.55,1.31,1.31,0,0,0-.44-1,1.81,1.81,0,0,0-1.23-.39,2,2,0,0,0-1.23.35,1.77,1.77,0,0,0-.63,1.07l-1.29-.15a2.58,2.58,0,0,1,1-1.71,3.51,3.51,0,0,1,2.16-.65,3.06,3.06,0,0,1,2.17.73,2.55,2.55,0,0,1,.78,1.95v3.45a.67.67,0,0,0,.13.45A.64.64,0,0,0,522.12,441.09Zm-5.57-1a1.14,1.14,0,0,0,.39.92,1.67,1.67,0,0,0,1.08.32,2.07,2.07,0,0,0,1.6-.69,2.64,2.64,0,0,0,.62-1.8v-.44l-2.45.42a1.59,1.59,0,0,0-.92.43A1.13,1.13,0,0,0,516.55,440.08Z"/><path class="cls-15" d="M530,437.27v5h-1.36v-4.72a2.06,2.06,0,0,0-.47-1.44,1.76,1.76,0,0,0-1.34-.5,1.9,1.9,0,0,0-1.53.62,2.74,2.74,0,0,0-.52,1.82v4.22h-1.36v-7.65h1.33v1a2.68,2.68,0,0,1,2.38-1.15,2.81,2.81,0,0,1,2.1.77A2.88,2.88,0,0,1,530,437.27Z"/><path class="cls-15" d="M402.19,456.51h-6v-8.75h5.89v1h-4.69v2.77h4.19v1h-4.19v2.93h4.81Z"/><path class="cls-15" d="M406.51,456.67a3.84,3.84,0,0,1-2.51-.77,2.63,2.63,0,0,1-.95-2.08l1.18-.16a2,2,0,0,0,.63,1.5,2.38,2.38,0,0,0,1.65.52,2,2,0,0,0,1.36-.43,1.41,1.41,0,0,0,.5-1.13,1.16,1.16,0,0,0-.35-.9,2.5,2.5,0,0,0-1.2-.51l-1.17-.25a3.34,3.34,0,0,1-1.77-.86,2.31,2.31,0,0,1,.24-3.28,3.16,3.16,0,0,1,2.13-.7,3.36,3.36,0,0,1,2.2.67,2.61,2.61,0,0,1,.94,1.86l-1.19.15a1.75,1.75,0,0,0-1.95-1.7,2,2,0,0,0-1.3.38,1.39,1.39,0,0,0-.12,1.94,2.09,2.09,0,0,0,1.08.49l1.37.29a3.37,3.37,0,0,1,1.73.82,2.1,2.1,0,0,1,.55,1.53,2.4,2.4,0,0,1-.83,1.88A3.29,3.29,0,0,1,406.51,456.67Z"/><path class="cls-15" d="M409.92,447.76h6.65v1h-2.72v7.72h-1.19v-7.72h-2.74Z"/><path class="cls-15" d="M423.9,450.09a1.43,1.43,0,0,0-.41-1.06,1.57,1.57,0,0,0-1.11-.39,1.71,1.71,0,0,0-1.42.6,2.72,2.72,0,0,0-.44,1.76l-1.15-.15a3,3,0,0,1,.75-2.36,3,3,0,0,1,2.26-.87,2.76,2.76,0,0,1,2,.68,2.37,2.37,0,0,1,.74,1.79,3.11,3.11,0,0,1-.45,1.57,7.6,7.6,0,0,1-1.44,1.7l-2.34,2.15h4.45v1h-6v-1l3.15-2.89a5.17,5.17,0,0,0,1.1-1.29A2.39,2.39,0,0,0,423.9,450.09Z"/><path class="cls-15" d="M426.33,452.14a5.64,5.64,0,0,1,.86-3.32,3,3,0,0,1,4.82,0,6.68,6.68,0,0,1,0,6.63,3,3,0,0,1-4.83,0A5.66,5.66,0,0,1,426.33,452.14Zm4.82,2.61a5.2,5.2,0,0,0,.55-2.61,5.07,5.07,0,0,0-.55-2.61,1.76,1.76,0,0,0-3.09,0,5.11,5.11,0,0,0-.55,2.59,5.18,5.18,0,0,0,.54,2.61,1.77,1.77,0,0,0,3.1,0Z"/><path class="cls-15" d="M439.43,456.51H434v-1h2.13v-5.62a1.83,1.83,0,0,1-1,.23H434v-1h1.1a1,1,0,0,0,.84-.33,1.65,1.65,0,0,0,.27-1.05h1.15v7.75h2.1Z"/><path class="cls-15" d="M445,454a1.38,1.38,0,0,0-.45-1.1,1.9,1.9,0,0,0-1.28-.39h-.78v-.91h.75a1.44,1.44,0,0,0,1.09-.41,1.64,1.64,0,0,0,.39-1.16,1.26,1.26,0,0,0-.42-1,1.74,1.74,0,0,0-1.15-.37,1.78,1.78,0,0,0-1.32.49,1.87,1.87,0,0,0-.53,1.34l-1.09-.24a2.41,2.41,0,0,1,.85-1.86,3.12,3.12,0,0,1,2.11-.71,3,3,0,0,1,2,.62,2.11,2.11,0,0,1,.74,1.68,2.36,2.36,0,0,1-.32,1.22,2.08,2.08,0,0,1-.91.8,2.22,2.22,0,0,1,1.13.77,2,2,0,0,1,.39,1.25,2.54,2.54,0,0,1-.82,2,3.13,3.13,0,0,1-2.18.74,3.66,3.66,0,0,1-2.25-.66,2.37,2.37,0,0,1-1-1.78l1.19-.27a1.82,1.82,0,0,0,.59,1.27,2.06,2.06,0,0,0,1.41.45,1.92,1.92,0,0,0,1.36-.46A1.64,1.64,0,0,0,445,454Z"/><rect class="cls-15" x="280.07" y="244.01" width="3.57" height="42.86"/><rect class="cls-15" x="281.85" y="260.08" width="12.5" height="3.57"/><rect class="cls-15" x="279.87" y="255.29" width="13.56" height="3.57" transform="translate(-97.82 277.98) rotate(-45)"/><rect class="cls-15" x="274.71" y="272.59" width="6.14" height="3.57"/><path class="cls-15" d="M283.64,281.51v-3.57a3.57,3.57,0,0,0,0-7.14v-3.57a7.14,7.14,0,0,1,0,14.28Z"/><path class="cls-15" d="M289,249.37h-3.57a3.57,3.57,0,1,0-7.14,0h-3.57a7.14,7.14,0,1,1,14.28,0Z"/><path class="cls-15" d="M369.24,406.52h-3.57a21.38,21.38,0,1,0-42.75,0h-3.57a24.95,24.95,0,1,1,49.89,0Z"/><rect class="cls-15" x="295.14" y="319.01" width="55.56" height="3.57" transform="translate(-132.26 322.3) rotate(-45)"/><path class="cls-15" d="M444.35,410.09H301.49V318l-7.14,7.14v10H280.07v-50h35.71A34,34,0,0,1,349.71,319v8.93h60.71a34,34,0,0,1,33.93,33.93Zm-139.28-3.57H440.78V361.87a30.4,30.4,0,0,0-30.36-30.36H346.14V319a30.39,30.39,0,0,0-30.36-30.35H283.64v42.85h7.14v-7.88L311,303.47l2.52,2.52-8.4,8.41Z"/><polygon class="cls-15" points="442.57 399.37 406.85 399.37 406.85 329.73 410.42 329.73 410.42 395.8 442.57 395.8 442.57 399.37"/><path class="cls-15" d="M371.14,377.94a25,25,0,0,1-25-25v-25h50v25A25,25,0,0,1,371.14,377.94Zm-21.43-46.43v21.43a21.43,21.43,0,0,0,42.86,0V331.51Z"/><path class="cls-15" d="M296.14,301.16H280.07V285.09h16.07Zm-12.5-3.57h8.93v-8.93h-8.93Z"/><polygon class="cls-15" points="239 383.3 222.88 383.3 234.27 365.44 224.71 365.44 224.71 361.87 240.78 361.87 229.39 379.73 239 379.73 239 383.3"/><polygon class="cls-15" points="258.64 383.3 244.4 383.3 244.35 361.87 258.64 361.87 258.64 365.44 247.93 365.44 247.96 379.73 258.64 379.73 258.64 383.3"/><rect class="cls-15" x="246.14" y="370.8" width="12.5" height="3.57"/><polygon class="cls-15" points="278.28 383.3 264 383.3 264 361.87 278.28 361.87 278.28 365.44 267.57 365.44 267.57 379.73 278.28 379.73 278.28 383.3"/><rect class="cls-15" x="265.78" y="370.8" width="12.5" height="3.57"/><polygon class="cls-15" points="258.64 410.09 244.35 410.09 244.35 388.66 258.64 388.66 258.64 392.23 247.93 392.23 247.93 406.52 258.64 406.52 258.64 410.09"/><rect class="cls-15" x="246.14" y="397.59" width="12.5" height="3.57"/><polygon class="cls-15" points="280.07 410.09 276.65 410.09 267.57 395.62 267.57 410.09 264 410.09 264 388.66 267.42 388.66 276.5 403.13 276.5 388.66 280.07 388.66 280.07 410.09"/><path class="cls-15" d="M321.14,469a19.67,19.67,0,0,1-19.64-19.65V431.52h3.57v17.85a16.07,16.07,0,0,0,32.14,0V431.52h3.57v17.85A19.67,19.67,0,0,1,321.14,469Z"/><polygon class="cls-15" points="361.54 468.49 359.01 465.97 372.93 452.05 372.93 442.23 376.5 442.23 376.5 453.53 361.54 468.49"/><rect class="cls-15" x="319.35" y="431.52" width="3.57" height="7.14"/><rect class="cls-15" x="372.93" y="431.52" width="3.57" height="7.14"/><rect class="cls-15" x="337.21" y="472.59" width="3.57" height="7.14"/><rect class="cls-15" x="344.35" y="472.59" width="3.57" height="7.14"/><polygon class="cls-15" points="340.26 449.59 337.74 447.06 346.14 438.66 346.14 431.52 349.71 431.52 349.71 440.14 340.26 449.59"/><polygon class="cls-15" points="340.26 460.3 337.74 457.78 353.28 442.23 353.28 431.52 356.85 431.52 356.85 443.71 340.26 460.3"/><polygon class="cls-15" points="342.26 469.02 337.21 469.02 337.21 431.52 340.78 431.52 340.78 465.44 360.43 445.8 360.43 431.52 364 431.52 364 447.28 342.26 469.02"/><rect class="cls-15" x="861.11" y="162.76" width="61.13" height="15.28"/><rect class="cls-15" x="861.11" y="208.6" width="61.13" height="15.28"/><rect class="cls-15" x="858.38" y="185.69" width="66.62" height="15.28" transform="translate(80.35 610.72) rotate(-39.46)"/><rect class="cls-15" x="799.93" y="223.89" width="61.13" height="15.28"/><rect class="cls-15" x="799.93" y="269.73" width="61.13" height="15.28"/><rect class="cls-15" x="797.2" y="246.82" width="66.62" height="15.28" transform="translate(27.56 585.78) rotate(-39.46)"/><rect class="cls-15" x="218.91" y="1634.95" width="61.13" height="15.28"/><rect class="cls-15" x="218.91" y="1680.8" width="61.13" height="15.28"/><rect class="cls-15" x="216.18" y="1657.89" width="66.62" height="15.28" transform="translate(-1001.58 538.11) rotate(-39.46)"/><rect class="cls-15" x="157.74" y="1696.08" width="61.13" height="15.28"/><rect class="cls-15" x="157.74" y="1741.93" width="61.13" height="15.28"/><rect class="cls-15" x="155" y="1719.02" width="66.62" height="15.28" transform="translate(-1054.37 513.17) rotate(-39.46)"/></g></svg>