<svg xmlns="http://www.w3.org/2000/svg" xmlns:xlink="http://www.w3.org/1999/xlink" viewBox="0 0 1920 1080"><defs><style>.cls-1{fill:#003691;}.cls-10,.cls-11,.cls-12,.cls-13,.cls-14,.cls-2,.cls-3,.cls-4,.cls-5,.cls-6,.cls-7,.cls-8,.cls-9{fill:none;stroke-miterlimit:10;}.cls-2{stroke:url(#linear-gradient);}.cls-3{stroke:url(#linear-gradient-2);}.cls-4{stroke:url(#linear-gradient-3);}.cls-5{stroke:url(#linear-gradient-4);}.cls-6{stroke:url(#linear-gradient-5);}.cls-7{stroke:url(#linear-gradient-6);}.cls-8{stroke:url(#linear-gradient-7);}.cls-9{stroke:url(#linear-gradient-8);}.cls-10{stroke:url(#linear-gradient-9);}.cls-11{stroke:url(#linear-gradient-10);}.cls-12{stroke:url(#linear-gradient-11);}.cls-13{stroke:url(#linear-gradient-12);}.cls-14{stroke:#4672e2;}.cls-15{fill:#4672e2;}.cls-16{fill:#fff;}</style><linearGradient id="linear-gradient" y1="880.16" x2="1920" y2="880.16" gradientUnits="userSpaceOnUse"><stop offset="0" stop-color="#fff" stop-opacity="0"/><stop offset="0.51" stop-color="#fff"/><stop offset="1" stop-color="#fff" stop-opacity="0"/></linearGradient><linearGradient id="linear-gradient-2" y1="825.73" y2="825.73" xlink:href="#linear-gradient"/><linearGradient id="linear-gradient-3" y1="771.33" y2="771.33" xlink:href="#linear-gradient"/><linearGradient id="linear-gradient-4" x1="8780.26" y1="-14635.24" x2="9860.26" y2="-14635.24" gradientTransform="translate(16251.74 9860.26) rotate(-90)" xlink:href="#linear-gradient"/><linearGradient id="linear-gradient-5" x1="8780.26" y1="-15948.26" x2="9860.26" y2="-15948.26" gradientTransform="translate(16251.74 9860.26) rotate(-90)" xlink:href="#linear-gradient"/><linearGradient id="linear-gradient-6" x1="8780.26" y1="-14580.81" x2="9860.26" y2="-14580.81" gradientTransform="translate(16251.74 9860.26) rotate(-90)" xlink:href="#linear-gradient"/><linearGradient id="linear-gradient-7" x1="8780.26" y1="-14526.4" x2="9860.26" y2="-14526.4" gradientTransform="translate(16251.74 9860.26) rotate(-90)" xlink:href="#linear-gradient"/><linearGradient id="linear-gradient-8" x1="8780.26" y1="-16002.69" x2="9860.26" y2="-16002.69" gradientTransform="translate(16251.74 9860.26) rotate(-90)" xlink:href="#linear-gradient"/><linearGradient id="linear-gradient-9" x1="8780.26" y1="-16057.09" x2="9860.26" y2="-16057.09" gradientTransform="translate(16251.74 9860.26) rotate(-90)" xlink:href="#linear-gradient"/><linearGradient id="linear-gradient-10" y1="199.84" y2="199.84" xlink:href="#linear-gradient"/><linearGradient id="linear-gradient-11" y1="254.25" y2="254.25" xlink:href="#linear-gradient"/><linearGradient id="linear-gradient-12" y1="308.65" y2="308.65" xlink:href="#linear-gradient"/></defs><g id="Background"><rect class="cls-1" width="1920" height="1080"/></g><g id="Graphic"><line class="cls-2" y1="880.16" x2="1920" y2="880.16"/><line class="cls-3" y1="825.73" x2="1920" y2="825.73"/><line class="cls-4" y1="771.33" x2="1920" y2="771.33"/><line class="cls-5" x1="1616.5" y1="1080" x2="1616.5"/><line class="cls-6" x1="303.48" y1="1080" x2="303.48"/><line class="cls-7" x1="1670.93" y1="1080" x2="1670.93"/><line class="cls-8" x1="1725.33" y1="1080" x2="1725.33"/><line class="cls-9" x1="249.05" y1="1080" x2="249.05"/><line class="cls-10" x1="194.65" y1="1080" x2="194.65"/><line class="cls-11" y1="199.84" x2="1920" y2="199.84"/><line class="cls-12" y1="254.25" x2="1920" y2="254.25"/><line class="cls-13" y1="308.65" x2="1920" y2="308.65"/><line class="cls-14" x1="303.5" y1="385.8" x2="960" y2="385.8"/><line class="cls-14" x1="303.5" y1="462.9" x2="960" y2="462.9"/><line class="cls-14" x1="303.5" y1="535.76" x2="960" y2="535.76"/><path class="cls-15" d="M1458,758.23h-7.83l-1.69,4.42H1446l7-18h2.49l6.89,18h-2.7Zm-7-2.06h6.27l-3.08-8.38Z"/><path class="cls-15" d="M1466.32,762.65H1464V749.8h2.23v2.33a4,4,0,0,1,3.68-2.33h1V752h-1a3.06,3.06,0,0,0-2.63,1.41,6.6,6.6,0,0,0-1,3.81Z"/><path class="cls-15" d="M1472.77,751.68V749.8H1475v-4.15h2.29v4.15h3.23v1.88h-3.23v7.19a2.21,2.21,0,0,0,.35,1.42,1.59,1.59,0,0,0,1.24.4h2v2h-2.31a3.62,3.62,0,0,1-2.63-.88,3.46,3.46,0,0,1-.9-2.58v-7.51Z"/><path class="cls-15" d="M1484.92,747.71h-2.28v-3.06h2.28Zm0,14.94h-2.28V749.8h2.28Z"/><path class="cls-15" d="M1492.65,763a6.27,6.27,0,0,1-4-1.15,4.12,4.12,0,0,1-1.6-3.1l2.28-.34a3.15,3.15,0,0,0,1,2.1,3.53,3.53,0,0,0,2.32.68,3.27,3.27,0,0,0,2-.55,2,2,0,0,0,.7-1.64c0-1-.76-1.63-2.26-1.84l-1.85-.29a5.12,5.12,0,0,1-2.82-1.22,3.17,3.17,0,0,1-1-2.41,3.26,3.26,0,0,1,1.32-2.68,6.46,6.46,0,0,1,7,0,4.45,4.45,0,0,1,1.63,2.94l-2.11.3a3.3,3.3,0,0,0-1-1.89,3.88,3.88,0,0,0-3.93-.07,1.63,1.63,0,0,0-.22,2.48,3,3,0,0,0,1.53.59l2.06.34c2.6.41,3.9,1.64,3.9,3.67a3.71,3.71,0,0,1-1.34,3A5.6,5.6,0,0,1,1492.65,763Z"/><path class="cls-15" d="M1498.31,751.68V749.8h2.26v-4.15h2.28v4.15h3.24v1.88h-3.24v7.19a2.15,2.15,0,0,0,.36,1.42,1.59,1.59,0,0,0,1.24.4h2v2h-2.31a3.62,3.62,0,0,1-2.63-.88,3.46,3.46,0,0,1-.9-2.58v-7.51Z"/><path class="cls-15" d="M1510.46,747.71h-2.28v-3.06h2.28Zm0,14.94h-2.28V749.8h2.28Z"/><path class="cls-15" d="M1518.86,761a3.3,3.3,0,0,0,2.32-.81,3.54,3.54,0,0,0,1-2.28l2.24.26a5.18,5.18,0,0,1-1.78,3.49,6.34,6.34,0,0,1-8.28-.51,8.19,8.19,0,0,1,0-9.82,5.64,5.64,0,0,1,4.42-1.86,5.91,5.91,0,0,1,3.89,1.24,5.28,5.28,0,0,1,1.79,3.5l-2.33.26a3.14,3.14,0,0,0-3.38-3,3.2,3.2,0,0,0-2.71,1.27,5.73,5.73,0,0,0-1,3.56,5.55,5.55,0,0,0,1,3.49A3.25,3.25,0,0,0,1518.86,761Z"/><path class="cls-15" d="M1537.65,760.74h.62v1.91H1537a2.86,2.86,0,0,1-1.69-.48,1.81,1.81,0,0,1-.77-1.34,4.5,4.5,0,0,1-4.06,2.14,4.82,4.82,0,0,1-3.24-1.05,3.39,3.39,0,0,1-1.23-2.71,3.59,3.59,0,0,1,1-2.63,5.1,5.1,0,0,1,2.88-1.33l3.75-.64a.87.87,0,0,0,.8-.93,2.15,2.15,0,0,0-.75-1.7,3,3,0,0,0-2.06-.66,3.33,3.33,0,0,0-2.07.58,3,3,0,0,0-1,1.8l-2.18-.25a4.36,4.36,0,0,1,1.76-2.87,5.83,5.83,0,0,1,3.63-1.1,5.12,5.12,0,0,1,3.63,1.23,4.25,4.25,0,0,1,1.33,3.28v5.79a1.05,1.05,0,0,0,.21.75A1,1,0,0,0,1537.65,760.74Zm-9.36-1.69a1.88,1.88,0,0,0,.65,1.53,2.73,2.73,0,0,0,1.82.55,3.44,3.44,0,0,0,2.68-1.17,4.36,4.36,0,0,0,1-3v-.74l-4.12.72a2.61,2.61,0,0,0-1.55.71A1.94,1.94,0,0,0,1528.29,759.05Z"/><path class="cls-15" d="M1542.17,762.65h-2.29v-18h2.29Z"/><path class="cls-15" d="M1547.62,762.65h-2.29v-18h2.29Z"/><path class="cls-15" d="M1554,763.86l.43-1.13-5.06-12.93h2.41l3.81,10.1,3.84-10.1h2.31l-5.61,14.3a5.54,5.54,0,0,1-1.75,2.59,4.34,4.34,0,0,1-2.65.72h-1.33v-1.93h1.33a2.39,2.39,0,0,0,1.42-.37A2.47,2.47,0,0,0,1554,763.86Z"/><path class="cls-15" d="M1571,762.65h-2.47v-18h12.63v2.11H1571v5.86h9.13v2.11H1571Z"/><path class="cls-15" d="M1585,762.65h-2.28V749.8h2.23v2.33a4,4,0,0,1,3.68-2.33h1V752h-1a3,3,0,0,0-2.62,1.41,6.6,6.6,0,0,0-1,3.81Z"/><path class="cls-15" d="M1590.22,756.22a6.94,6.94,0,0,1,1.7-4.88,5.89,5.89,0,0,1,4.55-1.86,6,6,0,0,1,4.57,1.86,6.83,6.83,0,0,1,1.72,4.88,6.94,6.94,0,0,1-1.72,4.89,6,6,0,0,1-4.57,1.86,5.89,5.89,0,0,1-4.55-1.86A7,7,0,0,1,1590.22,756.22Zm9.16,3.53a6.44,6.44,0,0,0,0-7,3.58,3.58,0,0,0-2.91-1.28,3.5,3.5,0,0,0-2.87,1.28,6.52,6.52,0,0,0,0,7,3.49,3.49,0,0,0,2.88,1.28A3.58,3.58,0,0,0,1599.38,759.75Z"/><path class="cls-15" d="M1615.67,755.56v7.09h-2.29v-7.92a3.58,3.58,0,0,0-.73-2.41,2.58,2.58,0,0,0-2.07-.85,2.86,2.86,0,0,0-2.39,1,4.81,4.81,0,0,0-.82,3v7.09h-2.29V749.8h2.24v1.57a4.31,4.31,0,0,1,3.78-1.89,4.81,4.81,0,0,1,2.45.6,3.85,3.85,0,0,1,1.58,1.73,4.35,4.35,0,0,1,4.14-2.33,4.6,4.6,0,0,1,3.46,1.3,4.92,4.92,0,0,1,1.25,3.54v8.33h-2.29v-7.92a3.53,3.53,0,0,0-.74-2.41,2.58,2.58,0,0,0-2.07-.85,2.85,2.85,0,0,0-2.39,1A4.81,4.81,0,0,0,1615.67,755.56Z"/><path class="cls-15" d="M1635.07,762.65h-2.47v-18h2.47Z"/><path class="cls-15" d="M1640.78,762.65h-2.28V749.8h2.23v2.33a4,4,0,0,1,3.68-2.33h1V752h-1a3,3,0,0,0-2.62,1.41,6.6,6.6,0,0,0-1,3.81Z"/><path class="cls-15" d="M1657.65,760.74h.61v1.91H1657a2.84,2.84,0,0,1-1.69-.48,1.81,1.81,0,0,1-.77-1.34,4.51,4.51,0,0,1-4.07,2.14,4.85,4.85,0,0,1-3.24-1.05,3.39,3.39,0,0,1-1.23-2.71,3.6,3.6,0,0,1,1-2.63,5.1,5.1,0,0,1,2.87-1.33l3.76-.64a.87.87,0,0,0,.8-.93,2.15,2.15,0,0,0-.75-1.7,3,3,0,0,0-2.06-.66,3.33,3.33,0,0,0-2.07.58,3.1,3.1,0,0,0-1.06,1.8l-2.17-.25a4.38,4.38,0,0,1,1.75-2.87,5.88,5.88,0,0,1,3.64-1.1,5.12,5.12,0,0,1,3.63,1.23,4.29,4.29,0,0,1,1.33,3.28v5.79a1.05,1.05,0,0,0,.21.75A1,1,0,0,0,1657.65,760.74Zm-9.37-1.69a1.89,1.89,0,0,0,.66,1.53,2.71,2.71,0,0,0,1.82.55,3.44,3.44,0,0,0,2.68-1.17,4.36,4.36,0,0,0,1-3v-.74l-4.12.72a2.59,2.59,0,0,0-1.55.71A2,2,0,0,0,1648.28,759.05Z"/><path class="cls-15" d="M1670.93,754.32v8.33h-2.29v-7.92a3.45,3.45,0,0,0-.78-2.42,2.92,2.92,0,0,0-2.25-.84,3.16,3.16,0,0,0-2.57,1,4.64,4.64,0,0,0-.87,3v7.09h-2.29V749.8h2.24v1.62a4.51,4.51,0,0,1,4-1.94,4.77,4.77,0,0,1,3.53,1.3A4.85,4.85,0,0,1,1670.93,754.32Z"/><path class="cls-15" d="M1456.17,786.65h-10.1V772H1456v1.72h-7.87v4.67h7V780h-7v4.91h8.08Z"/><path class="cls-15" d="M1463.42,786.91a6.45,6.45,0,0,1-4.21-1.28,4.43,4.43,0,0,1-1.6-3.51l2-.26a3.39,3.39,0,0,0,1.06,2.52,4.05,4.05,0,0,0,2.77.87,3.45,3.45,0,0,0,2.29-.71,2.43,2.43,0,0,0,.83-1.92,1.94,1.94,0,0,0-.58-1.51,4.46,4.46,0,0,0-2-.85l-2-.42a5.67,5.67,0,0,1-3-1.44,3.9,3.9,0,0,1,.4-5.52,5.3,5.3,0,0,1,3.57-1.18,5.68,5.68,0,0,1,3.7,1.13,4.41,4.41,0,0,1,1.57,3.14l-2,.24a2.93,2.93,0,0,0-3.28-2.85,3.39,3.39,0,0,0-2.18.63,2.35,2.35,0,0,0-.21,3.26,3.63,3.63,0,0,0,1.83.83l2.29.49a5.62,5.62,0,0,1,2.91,1.38,3.51,3.51,0,0,1,.93,2.57,4.06,4.06,0,0,1-1.4,3.15A5.46,5.46,0,0,1,1463.42,786.91Z"/><path class="cls-15" d="M1469.15,772h11.17v1.72h-4.57v13h-2v-13h-4.6Z"/><path class="cls-15" d="M1492.64,775.86a2.31,2.31,0,0,0-.7-1.77,2.62,2.62,0,0,0-1.86-.67,2.83,2.83,0,0,0-2.38,1,4.5,4.5,0,0,0-.75,2.95l-1.93-.25a4.76,4.76,0,0,1,5.06-5.44,4.64,4.64,0,0,1,3.34,1.15,4,4,0,0,1,1.24,3,5.28,5.28,0,0,1-.75,2.64,12.37,12.37,0,0,1-2.42,2.86l-3.92,3.61H1495v1.68H1485v-1.72l5.29-4.85a9.19,9.19,0,0,0,1.85-2.16A4.17,4.17,0,0,0,1492.64,775.86Z"/><path class="cls-15" d="M1496.71,779.3a9.48,9.48,0,0,1,1.45-5.57,5.07,5.07,0,0,1,8.11,0,11.35,11.35,0,0,1,0,11.14,5.08,5.08,0,0,1-8.12,0A9.49,9.49,0,0,1,1496.71,779.3Zm8.11,4.38a11,11,0,0,0,0-8.76,2.89,2.89,0,0,0-2.61-1.54,2.86,2.86,0,0,0-2.58,1.58,8.56,8.56,0,0,0-.93,4.34,8.68,8.68,0,0,0,.91,4.39,2.87,2.87,0,0,0,2.6,1.54A2.9,2.9,0,0,0,1504.82,783.68Z"/><path class="cls-15" d="M1518.73,786.65h-9.11V785h3.59v-9.44a3.21,3.21,0,0,1-1.68.39h-2v-1.65h1.84a1.74,1.74,0,0,0,1.41-.56,2.81,2.81,0,0,0,.46-1.76h1.94v13h3.52Z"/><path class="cls-15" d="M1528.05,782.35a2.3,2.3,0,0,0-.76-1.85,3.15,3.15,0,0,0-2.14-.66h-1.32v-1.52h1.26a2.41,2.41,0,0,0,1.84-.7,2.78,2.78,0,0,0,.65-2,2.12,2.12,0,0,0-.71-1.69,2.88,2.88,0,0,0-1.94-.62,3,3,0,0,0-2.21.81,3.24,3.24,0,0,0-.89,2.26L1520,776a4,4,0,0,1,1.43-3.13,5.28,5.28,0,0,1,3.55-1.2,5,5,0,0,1,3.34,1,3.5,3.5,0,0,1,1.24,2.82,3.9,3.9,0,0,1-.54,2,3.42,3.42,0,0,1-1.52,1.34,3.78,3.78,0,0,1,1.89,1.3,3.48,3.48,0,0,1,.65,2.11,4.25,4.25,0,0,1-1.36,3.3,5.25,5.25,0,0,1-3.67,1.24,6.26,6.26,0,0,1-3.79-1.1,4,4,0,0,1-1.64-3l2-.44a3,3,0,0,0,1,2.13,3.5,3.5,0,0,0,2.36.75,3.24,3.24,0,0,0,2.29-.77A2.74,2.74,0,0,0,1528.05,782.35Z"/><rect class="cls-15" x="1250.99" y="429.73" width="6" height="72"/><rect class="cls-15" x="1253.99" y="456.73" width="21" height="6"/><rect class="cls-15" x="1250.66" y="448.67" width="22.78" height="6" transform="translate(50.26 1024.69) rotate(-45)"/><rect class="cls-15" x="1241.99" y="477.73" width="10.31" height="6"/><path class="cls-15" d="M1257,492.73v-6a6,6,0,0,0,0-12v-6a12,12,0,0,1,0,24Z"/><path class="cls-15" d="M1266,438.73h-6a6,6,0,0,0-12,0h-6a12,12,0,0,1,24,0Z"/><path class="cls-15" d="M1400.8,702.73h-6a35.91,35.91,0,0,0-71.81,0h-6a41.91,41.91,0,0,1,83.81,0Z"/><rect class="cls-15" x="1276.32" y="555.73" width="93.34" height="6" transform="translate(-7.59 1099.14) rotate(-45)"/><path class="cls-15" d="M1527,708.73H1287V554l-12,12v16.76h-24v-84h60a57.06,57.06,0,0,1,57,57v15h102a57.06,57.06,0,0,1,57,57Zm-234-6h228v-75a51.05,51.05,0,0,0-51-51H1362v-21a51.06,51.06,0,0,0-51-51h-54v72h12V563.49l33.88-33.88,4.24,4.24L1293,548Z"/><polygon class="cls-15" points="1523.99 690.73 1463.99 690.73 1463.99 573.73 1469.99 573.73 1469.99 684.73 1523.99 684.73 1523.99 690.73"/><path class="cls-15" d="M1404,654.73a42,42,0,0,1-42-42v-42h84v42A42,42,0,0,1,1404,654.73Zm-36-78v36a36,36,0,0,0,72,0v-36Z"/><path class="cls-15" d="M1278,525.73h-27v-27h27Zm-21-6h15v-15h-15Z"/><polygon class="cls-15" points="1181.99 663.73 1154.92 663.73 1174.05 633.73 1157.99 633.73 1157.99 627.73 1185 627.73 1165.86 657.73 1181.99 657.73 1181.99 663.73"/><polygon class="cls-15" points="1214.99 663.73 1191.07 663.73 1190.99 627.73 1214.99 627.73 1214.99 633.73 1197 633.73 1197.06 657.73 1214.99 657.73 1214.99 663.73"/><rect class="cls-15" x="1194" y="642.73" width="21" height="6"/><polygon class="cls-15" points="1247.99 663.73 1223.99 663.73 1223.99 627.73 1247.99 627.73 1247.99 633.73 1229.99 633.73 1229.99 657.73 1247.99 657.73 1247.99 663.73"/><rect class="cls-15" x="1227" y="642.73" width="21" height="6"/><polygon class="cls-15" points="1214.99 708.73 1190.99 708.73 1190.99 672.73 1214.99 672.73 1214.99 678.73 1196.99 678.73 1196.99 702.73 1214.99 702.73 1214.99 708.73"/><rect class="cls-15" x="1194" y="687.73" width="21" height="6"/><polygon class="cls-15" points="1250.99 708.73 1245.25 708.73 1229.99 684.42 1229.99 708.73 1223.99 708.73 1223.99 672.73 1229.74 672.73 1244.99 697.04 1244.99 672.73 1250.99 672.73 1250.99 708.73"/><path class="cls-15" d="M1320,807.73a33,33,0,0,1-33-33v-30h6v30a27,27,0,0,0,54,0v-30h6v30A33,33,0,0,1,1320,807.73Z"/><polygon class="cls-15" points="1387.86 806.85 1383.62 802.61 1407 779.23 1407 762.73 1413 762.73 1413 781.72 1387.86 806.85"/><rect class="cls-15" x="1317" y="744.73" width="6" height="12"/><rect class="cls-15" x="1407" y="744.73" width="6" height="12"/><rect class="cls-15" x="1347" y="813.73" width="6" height="12"/><rect class="cls-15" x="1359" y="813.73" width="6" height="12"/><polygon class="cls-15" points="1352.12 775.1 1347.88 770.85 1362 756.73 1362 744.73 1368 744.73 1368 759.22 1352.12 775.1"/><polygon class="cls-15" points="1352.12 793.1 1347.88 788.85 1374 762.73 1374 744.73 1380 744.73 1380 765.22 1352.12 793.1"/><polygon class="cls-15" points="1355.48 807.73 1347 807.73 1347 744.73 1353 744.73 1353 801.73 1386 768.73 1386 744.73 1392 744.73 1392 771.22 1355.48 807.73"/><rect class="cls-16" x="249.07" y="254.25" width="54.41" height="13.6"/><rect class="cls-16" x="249.07" y="295.05" width="54.41" height="13.6"/><rect class="cls-16" x="246.64" y="274.66" width="59.29" height="13.6" transform="translate(-115.9 239.72) rotate(-39.46)"/><rect class="cls-16" x="194.65" y="199.84" width="54.41" height="13.6"/><rect class="cls-16" x="194.65" y="240.65" width="54.41" height="13.6"/><rect class="cls-16" x="192.21" y="220.26" width="59.29" height="13.6" transform="translate(-93.73 192.73) rotate(-39.46)"/><rect class="cls-16" x="1670.93" y="825.73" width="54.41" height="13.6"/><rect class="cls-16" x="1670.93" y="866.54" width="54.41" height="13.6"/><rect class="cls-16" x="1668.49" y="846.15" width="59.29" height="13.6" transform="matrix(0.77, -0.64, 0.64, 0.77, -155.05, 1273.54)"/><rect class="cls-16" x="1616.5" y="771.33" width="54.41" height="13.6"/><rect class="cls-16" x="1616.5" y="812.13" width="54.41" height="13.6"/><rect class="cls-16" x="1614.07" y="791.74" width="59.29" height="13.6" transform="translate(-132.87 1226.56) rotate(-39.46)"/></g></svg>