<svg xmlns="http://www.w3.org/2000/svg" viewBox="0 0 1920 1080"><defs><style>.cls-1{fill:#d1d1d0;stroke:#fff;}.cls-1,.cls-3,.cls-5{stroke-miterlimit:10;}.cls-1,.cls-3{stroke-width:2px;}.cls-2,.cls-3{fill:#fff;}.cls-3{stroke:#d1d1d0;}.cls-4{fill:#f2dd58;}.cls-5{fill:none;stroke:#c6af3c;stroke-width:2px;}</style></defs><g id="Graphic"><rect class="cls-1" x="277.78" y="132.42" width="1424.44" height="875.18"/><rect class="cls-2" x="247.78" y="426.23" width="999.21" height="551.31"/><polyline class="cls-3" points="247.78 102.41 247.78 977.54 1672.22 977.54"/><rect x="247.78" y="102.41" width="999.21" height="323.81"/><rect class="cls-4" x="1246.65" y="102.41" width="425.57" height="875.13"/><path d="M1341.64,699.58l5.32,4.32v-4.45h1.12v6.06h-1l-5.38-4.35v4.11h-1.11v-5.69Z"/><path d="M1347.17,694.68a1.76,1.76,0,0,0-1.51-1.9l.24-1.23a2.67,2.67,0,0,1,1.72,1.06,3.3,3.3,0,0,1,.64,2.07,3.46,3.46,0,0,1-1,2.69,4.12,4.12,0,0,1-2.91.94,4,4,0,0,1-2.85-1,3.35,3.35,0,0,1-1.09-2.63,3.11,3.11,0,0,1,1-2.42,3.79,3.79,0,0,1,2.64-.87h.64V697C1346.33,696.89,1347.17,696.13,1347.17,694.68Zm-5.71.07a2,2,0,0,0,.56,1.5,2.64,2.64,0,0,0,1.63.69v-4.15C1342.19,692.87,1341.46,693.52,1341.46,694.75Z"/><path d="M1347.17,686.51a1.77,1.77,0,0,0-1.51-1.91l.24-1.23a2.75,2.75,0,0,1,1.72,1.06,3.34,3.34,0,0,1,.64,2.08,3.48,3.48,0,0,1-1,2.69,4.12,4.12,0,0,1-2.91.94,4,4,0,0,1-2.85-1,3.35,3.35,0,0,1-1.09-2.63,3.09,3.09,0,0,1,1-2.42,3.74,3.74,0,0,1,2.64-.88h.64v5.55C1346.33,688.72,1347.17,688,1347.17,686.51Zm-5.71.06a2.05,2.05,0,0,0,.56,1.51,2.64,2.64,0,0,0,1.63.68v-4.14Q1341.46,684.73,1341.46,686.57Z"/><path d="M1347.17,678.33a1.76,1.76,0,0,0-1.51-1.9l.24-1.23a2.67,2.67,0,0,1,1.72,1.06,3.3,3.3,0,0,1,.64,2.07,3.5,3.5,0,0,1-1,2.7,4.17,4.17,0,0,1-2.91.94,4,4,0,0,1-2.85-1,3.33,3.33,0,0,1-1.09-2.63,3.07,3.07,0,0,1,1-2.41,3.74,3.74,0,0,1,2.64-.88h.64v5.55C1346.33,680.55,1347.17,679.78,1347.17,678.33Zm-5.71.07a2.07,2.07,0,0,0,.56,1.51,2.64,2.64,0,0,0,1.63.68v-4.15C1342.19,676.52,1341.46,677.17,1341.46,678.4Z"/><path d="M1343.21,666.86h4.87v1.34h-4.63a2,2,0,0,0-1.41.46,1.68,1.68,0,0,0-.49,1.31,1.83,1.83,0,0,0,.61,1.49,2.65,2.65,0,0,0,1.78.52h4.14v1.33h-7.5V672h.94a2.66,2.66,0,0,1-1.13-2.34,2.61,2.61,0,0,1,2.82-2.81Z"/><path d="M1346.38,664.87v-1.65h1.7v1.65Z"/><path d="M1339.36,659.8v1.34h-1.79V659.8Zm8.72,0v1.34h-7.5V659.8Z"/><path d="M1348.08,656.25v1.33h-7.5v-1.3h1.36a2.31,2.31,0,0,1-1.36-2.14v-.58h1.25v.59a1.78,1.78,0,0,0,.83,1.53,3.84,3.84,0,0,0,2.22.57Z"/><path d="M1361.21,698.45h4.87v1.33h-4.63a2,2,0,0,0-1.41.46,1.68,1.68,0,0,0-.49,1.31,1.85,1.85,0,0,0,.61,1.5,2.7,2.7,0,0,0,1.78.51h4.14v1.33h-10.51v-1.33h3.92a2.63,2.63,0,0,1-1.1-2.31,2.79,2.79,0,0,1,.76-2.06A2.84,2.84,0,0,1,1361.21,698.45Z"/><path d="M1365.17,693.17a1.77,1.77,0,0,0-1.51-1.91l.24-1.23a2.71,2.71,0,0,1,1.72,1.06,3.32,3.32,0,0,1,.64,2.08,3.49,3.49,0,0,1-1,2.69,4.12,4.12,0,0,1-2.91.94,4,4,0,0,1-2.85-1,3.31,3.31,0,0,1-1.09-2.62,3.08,3.08,0,0,1,1-2.42,3.74,3.74,0,0,1,2.64-.88h.64v5.55C1364.33,695.38,1365.17,694.62,1365.17,693.17Zm-5.71.06a2.07,2.07,0,0,0,.56,1.51,2.64,2.64,0,0,0,1.63.68v-4.14Q1359.46,691.39,1359.46,693.23Z"/><path d="M1366.08,686.81v1.33h-10.51v-1.33Z"/><path d="M1366.08,683.26v1.33h-10.51v-1.33Z"/><path d="M1362.33,681.52a4,4,0,0,1-2.85-1,3.41,3.41,0,0,1-1.09-2.66,3.45,3.45,0,0,1,1.09-2.66,4.51,4.51,0,0,1,5.69,0,3.45,3.45,0,0,1,1.09,2.66,3.41,3.41,0,0,1-1.09,2.66A4,4,0,0,1,1362.33,681.52Zm2.05-5.34a3.77,3.77,0,0,0-4.11,0,2.08,2.08,0,0,0-.75,1.69,2,2,0,0,0,.75,1.68,3.16,3.16,0,0,0,2.06.61,3.11,3.11,0,0,0,2.05-.61,2,2,0,0,0,.75-1.68A2.08,2.08,0,0,0,1364.38,676.18Z"/><path d="M1365.28,667.35a2.37,2.37,0,0,1-.74,1.81,2.72,2.72,0,0,1-1.93.68,4.58,4.58,0,0,1-2.88-.9,2.9,2.9,0,0,1-1.17-2.37,2.36,2.36,0,0,1,.32-1.22,2.09,2.09,0,0,1,.9-.81l-1.07-.22v-1.26l4.19.84a1.51,1.51,0,0,0,1.07-.07.94.94,0,0,0,.33-.85,1.49,1.49,0,0,0-.87-1.29,5.28,5.28,0,0,0-4.22-.1,4.26,4.26,0,0,0-1.55,1.09,5,5,0,0,0-1.2,3.54,5.16,5.16,0,0,0,1.62,3.92,5.51,5.51,0,0,0,1.81,1.16,5.74,5.74,0,0,0,2.15.41,5.3,5.3,0,0,0,3.82-1.42,4.84,4.84,0,0,0,1.49-3.64,6.7,6.7,0,0,0-.22-1.79,7.82,7.82,0,0,0-.75-1.79l.9-.46a8.55,8.55,0,0,1,.87,2,7.71,7.71,0,0,1,.26,2,6.09,6.09,0,0,1-6.33,6.31,6.58,6.58,0,0,1-2.56-.52,6.87,6.87,0,0,1-2.52-10.7,5.17,5.17,0,0,1,4-1.77,5.09,5.09,0,0,1,3.12.85,2.68,2.68,0,0,1,1.14,2.25,2.52,2.52,0,0,1-.32,1.29,1.47,1.47,0,0,1-.85.71A2.66,2.66,0,0,1,1365.28,667.35Zm-2.77,1.18a1.85,1.85,0,0,0,1.25-.39,1.35,1.35,0,0,0,.45-1.08,1.8,1.8,0,0,0-.84-1.51,3.22,3.22,0,0,0-1.95-.62,1.89,1.89,0,0,0-1.3.43,1.47,1.47,0,0,0-.48,1.15,1.66,1.66,0,0,0,.87,1.45A3.57,3.57,0,0,0,1362.51,668.53Z"/><path d="M1359.64,652.83l5.32,4.32V652.7h1.12v6.06h-1l-5.38-4.35v4.11h-1.11v-5.69Z"/><path d="M1365.17,647.93a1.76,1.76,0,0,0-1.51-1.9l.24-1.23a2.67,2.67,0,0,1,1.72,1.06,3.3,3.3,0,0,1,.64,2.07,3.46,3.46,0,0,1-1,2.69,4.12,4.12,0,0,1-2.91.94,4,4,0,0,1-2.85-1,3.35,3.35,0,0,1-1.09-2.63,3.11,3.11,0,0,1,1-2.42,3.79,3.79,0,0,1,2.64-.87h.64v5.55C1364.33,650.14,1365.17,649.38,1365.17,647.93Zm-5.71.07a2,2,0,0,0,.56,1.5,2.64,2.64,0,0,0,1.63.69V646C1360.19,646.12,1359.46,646.77,1359.46,648Z"/><path d="M1365.17,639.76a1.77,1.77,0,0,0-1.51-1.91l.24-1.23a2.71,2.71,0,0,1,1.72,1.06,3.34,3.34,0,0,1,.64,2.08,3.49,3.49,0,0,1-1,2.69,4.12,4.12,0,0,1-2.91.94,4,4,0,0,1-2.85-1,3.35,3.35,0,0,1-1.09-2.63,3.09,3.09,0,0,1,1-2.42,3.74,3.74,0,0,1,2.64-.88h.64V642C1364.33,642,1365.17,641.21,1365.17,639.76Zm-5.71.06a2.05,2.05,0,0,0,.56,1.51,2.64,2.64,0,0,0,1.63.68v-4.14Q1359.46,638,1359.46,639.82Z"/><path d="M1365.17,631.58a1.76,1.76,0,0,0-1.51-1.9l.24-1.23a2.67,2.67,0,0,1,1.72,1.06,3.3,3.3,0,0,1,.64,2.07,3.5,3.5,0,0,1-1,2.7,4.17,4.17,0,0,1-2.91.94,4,4,0,0,1-2.85-1,3.33,3.33,0,0,1-1.09-2.63,3.07,3.07,0,0,1,1-2.41,3.74,3.74,0,0,1,2.64-.88h.64v5.55C1364.33,633.8,1365.17,633,1365.17,631.58Zm-5.71.07a2.07,2.07,0,0,0,.56,1.51,2.64,2.64,0,0,0,1.63.68v-4.15C1360.19,629.77,1359.46,630.42,1359.46,631.65Z"/><path d="M1361.21,620.11h4.87v1.34h-4.63a2,2,0,0,0-1.41.46,1.68,1.68,0,0,0-.49,1.31,1.83,1.83,0,0,0,.61,1.49,2.65,2.65,0,0,0,1.78.52h4.14v1.33h-7.5v-1.3h.94a2.66,2.66,0,0,1-1.13-2.34,2.61,2.61,0,0,1,2.82-2.81Z"/><path d="M1364.38,618.12v-1.65h1.7v1.65Z"/><path d="M1357.36,613.05v1.34h-1.79v-1.34Zm8.72,0v1.34h-7.5v-1.34Z"/><path d="M1366.08,609.5v1.33h-7.5v-1.3h1.36a2.31,2.31,0,0,1-1.36-2.15v-.57h1.25v.59a1.78,1.78,0,0,0,.83,1.53,3.84,3.84,0,0,0,2.22.57Z"/><path d="M1359.67,565.3h6.41v1.34h-6.41V568h-1.09v-1.35H1358a2.46,2.46,0,0,1-1.79-.61,2.3,2.3,0,0,1-.64-1.75v-1.09h1.12v1a1,1,0,0,0,.34.85,1.68,1.68,0,0,0,1.06.27h.49v-1.88h1.09Z"/><path d="M1365,555.81v-.36h1.12v.72a1.64,1.64,0,0,1-.29,1,1,1,0,0,1-.78.45,2.63,2.63,0,0,1,1.25,2.37,2.81,2.81,0,0,1-.61,1.89,2,2,0,0,1-1.58.72,2.11,2.11,0,0,1-1.54-.59,3.07,3.07,0,0,1-.78-1.67l-.37-2.19a.5.5,0,0,0-.54-.47,1.22,1.22,0,0,0-1,.44,1.73,1.73,0,0,0-.39,1.2,2,2,0,0,0,.34,1.21,1.82,1.82,0,0,0,1,.61l-.14,1.27a2.57,2.57,0,0,1-1.68-1,3.4,3.4,0,0,1-.64-2.12,3,3,0,0,1,.72-2.12,2.48,2.48,0,0,1,1.91-.78h3.38a.64.64,0,0,0,.44-.12A.61.61,0,0,0,1365,555.81Zm-1,5.46a1.14,1.14,0,0,0,.9-.38,1.62,1.62,0,0,0,.32-1.06,2,2,0,0,0-.69-1.57,2.56,2.56,0,0,0-1.76-.61h-.43l.42,2.4a1.52,1.52,0,0,0,.42.91A1.12,1.12,0,0,0,1364,561.27Z"/><path d="M1365.12,551a1.89,1.89,0,0,0-.48-1.35,2,2,0,0,0-1.33-.62l.16-1.3a3,3,0,0,1,2,1,3.32,3.32,0,0,1,.76,2.24,3.28,3.28,0,0,1-1.06,2.59,4.76,4.76,0,0,1-5.72,0,3.28,3.28,0,0,1-1.09-2.58,3.43,3.43,0,0,1,.72-2.27,3.09,3.09,0,0,1,2-1l.16,1.36a1.83,1.83,0,0,0-1.77,2,1.89,1.89,0,0,0,.73,1.59,3.43,3.43,0,0,0,2.08.56,3.26,3.26,0,0,0,2-.57A1.91,1.91,0,0,0,1365.12,551Z"/><path d="M1365.17,542.9a1.75,1.75,0,0,0-1.51-1.9l.24-1.24a2.8,2.8,0,0,1,1.73,1.06,3.4,3.4,0,0,1,.63,2.08,3.48,3.48,0,0,1-1,2.69,4.12,4.12,0,0,1-2.91.94,4,4,0,0,1-2.85-1,3.35,3.35,0,0,1-1.09-2.63,3.09,3.09,0,0,1,1-2.42,3.79,3.79,0,0,1,2.64-.88h.64v5.55C1364.33,545.11,1365.17,544.35,1365.17,542.9Zm-5.71.07a2,2,0,0,0,.56,1.5,2.7,2.7,0,0,0,1.63.69V541C1360.19,541.08,1359.46,541.73,1359.46,543Z"/><path d="M1358.39,534.06a3.08,3.08,0,0,1,1.07-2.43,4.13,4.13,0,0,1,2.81-.92,4.35,4.35,0,0,1,2.89.92,3,3,0,0,1,1.1,2.43,2.8,2.8,0,0,1-1.26,2.47h1.08v1.3h-10.51V536.5h4.08A2.82,2.82,0,0,1,1358.39,534.06Zm3.94-2a3.21,3.21,0,0,0-2,.59,1.9,1.9,0,0,0-.75,1.58,2,2,0,0,0,.76,1.65,3.15,3.15,0,0,0,2,.62,3.06,3.06,0,0,0,2-.63,2,2,0,0,0,.76-1.64,1.9,1.9,0,0,0-.75-1.58A3.17,3.17,0,0,0,1362.33,532.09Z"/><path d="M1362.33,529.41a4,4,0,0,1-2.85-1,3.42,3.42,0,0,1-1.09-2.66,3.48,3.48,0,0,1,1.09-2.67,4.55,4.55,0,0,1,5.69,0,3.48,3.48,0,0,1,1.09,2.67,3.42,3.42,0,0,1-1.09,2.66A4,4,0,0,1,1362.33,529.41Zm2.05-5.34a3.72,3.72,0,0,0-4.11,0,2.27,2.27,0,0,0,0,3.37,3.22,3.22,0,0,0,2.06.6,3.17,3.17,0,0,0,2.05-.6,2,2,0,0,0,.75-1.68A2.06,2.06,0,0,0,1364.38,524.07Z"/><path d="M1362.33,520.8a4,4,0,0,1-2.85-1,3.79,3.79,0,0,1,0-5.32,4.51,4.51,0,0,1,5.69,0,3.79,3.79,0,0,1,0,5.32A4,4,0,0,1,1362.33,520.8Zm2.05-5.34a3.72,3.72,0,0,0-4.11,0,2.27,2.27,0,0,0,0,3.37,3.22,3.22,0,0,0,2.06.61,3.11,3.11,0,0,0,2.05-.61,2,2,0,0,0,.75-1.68A2.06,2.06,0,0,0,1364.38,515.46Z"/><path d="M1358.58,505.14l2.8,2.94,4.7-3.18v1.59l-3.81,2.55,1.24,1.34h2.57v1.33h-10.51v-1.33h6.34l-3.33-3.48Z"/><path d="M1364.38,503.87v-1.65h1.7v1.65Z"/><path d="M1365.12,497a1.9,1.9,0,0,0-.48-1.36,2,2,0,0,0-1.33-.61l.16-1.31a3,3,0,0,1,2,1,3.69,3.69,0,0,1-.3,4.83,4.78,4.78,0,0,1-5.72,0,3.26,3.26,0,0,1-1.09-2.57,3.41,3.41,0,0,1,.72-2.27,3.09,3.09,0,0,1,2-1l.16,1.36a1.83,1.83,0,0,0-1.77,2,1.86,1.86,0,0,0,.73,1.58,3.36,3.36,0,0,0,2.08.57,3.26,3.26,0,0,0,2-.57A1.92,1.92,0,0,0,1365.12,497Z"/><path d="M1362.33,492.55a4,4,0,0,1-2.85-1,3.4,3.4,0,0,1-1.09-2.65,3.48,3.48,0,0,1,1.09-2.67,4.55,4.55,0,0,1,5.69,0,3.48,3.48,0,0,1,1.09,2.67,3.4,3.4,0,0,1-1.09,2.65A4,4,0,0,1,1362.33,492.55Zm2.05-5.34a3.77,3.77,0,0,0-4.11,0,2.08,2.08,0,0,0-.75,1.7,2,2,0,0,0,.75,1.67,3.79,3.79,0,0,0,4.11,0,2.06,2.06,0,0,0,.75-1.68A2.08,2.08,0,0,0,1364.38,487.21Z"/><path d="M1361.94,477.29h4.14v1.33h-4.63a2.06,2.06,0,0,0-1.4.43,1.52,1.52,0,0,0-.5,1.2,1.66,1.66,0,0,0,.61,1.4,2.84,2.84,0,0,0,1.78.48h4.14v1.33h-7.5v-1.3h.91a2.53,2.53,0,0,1-1.1-2.21,2.86,2.86,0,0,1,.35-1.43,2.26,2.26,0,0,1,1-.92,2.53,2.53,0,0,1-1.36-2.41,2.68,2.68,0,0,1,.76-2,2.84,2.84,0,0,1,2.06-.73h4.87v1.33h-4.63a2.06,2.06,0,0,0-1.4.44,1.5,1.5,0,0,0-.5,1.2,1.67,1.67,0,0,0,.61,1.4A2.84,2.84,0,0,0,1361.94,477.29Z"/><path d="M1368.05,469.73v1.33l-13.11-5.34v-1.27Z"/><path d="M1359.64,457.65,1365,462v-4.45h1.12v6.06h-1l-5.38-4.35v4.11h-1.11v-5.69Z"/><path d="M1365.17,452.71a1.77,1.77,0,0,0-1.51-1.91l.24-1.23a2.72,2.72,0,0,1,1.73,1.06,3.36,3.36,0,0,1,.63,2.08,3.49,3.49,0,0,1-1,2.69,4.17,4.17,0,0,1-2.91.94,4,4,0,0,1-2.85-1,3.33,3.33,0,0,1-1.09-2.63,3.07,3.07,0,0,1,1-2.41,3.74,3.74,0,0,1,2.64-.88h.64V455C1364.33,454.92,1365.17,454.16,1365.17,452.71Zm-5.71.06a2.07,2.07,0,0,0,.56,1.51,2.64,2.64,0,0,0,1.63.68v-4.14Q1359.46,450.92,1359.46,452.77Z"/><path d="M1365.17,444.49a1.77,1.77,0,0,0-1.51-1.91l.24-1.23a2.76,2.76,0,0,1,1.73,1.06,3.38,3.38,0,0,1,.63,2.08,3.49,3.49,0,0,1-1,2.69,4.12,4.12,0,0,1-2.91.94,4.07,4.07,0,0,1-2.85-1,3.35,3.35,0,0,1-1.09-2.63,3.08,3.08,0,0,1,1-2.42,3.74,3.74,0,0,1,2.64-.88h.64v5.55C1364.33,446.7,1365.17,445.94,1365.17,444.49Zm-5.71.06a2.07,2.07,0,0,0,.56,1.51,2.64,2.64,0,0,0,1.63.68V442.6Q1359.46,442.71,1359.46,444.55Z"/><path d="M1365.17,436.28a1.76,1.76,0,0,0-1.51-1.9l.24-1.23a2.72,2.72,0,0,1,1.73,1.06,3.35,3.35,0,0,1,.63,2.07,3.46,3.46,0,0,1-1,2.69,4.13,4.13,0,0,1-2.91.95,4,4,0,0,1-2.85-1,3.33,3.33,0,0,1-1.09-2.63,3.07,3.07,0,0,1,1-2.41A3.74,3.74,0,0,1,1362,433h.64v5.55C1364.33,438.49,1365.17,437.73,1365.17,436.28Zm-5.71.07a2,2,0,0,0,.56,1.5,2.59,2.59,0,0,0,1.63.69v-4.15C1360.19,434.47,1359.46,435.12,1359.46,436.35Z"/><path d="M1361.21,424.77h4.87v1.33h-4.63a2,2,0,0,0-1.41.46,1.68,1.68,0,0,0-.49,1.31,1.83,1.83,0,0,0,.61,1.5,2.7,2.7,0,0,0,1.78.51h4.14v1.33h-7.5v-1.3h.94a2.64,2.64,0,0,1-1.13-2.34,2.75,2.75,0,0,1,.76-2.05A2.8,2.8,0,0,1,1361.21,424.77Z"/><path d="M1366.26,419.93a3.63,3.63,0,0,1-.67,2.31,2.42,2.42,0,0,1-1.81.94l-.19-1.34a1.8,1.8,0,0,0,1.22-.56,2.05,2.05,0,0,0,.39-1.35,1.86,1.86,0,0,0-.32-1.19,1.13,1.13,0,0,0-1-.4c-.6,0-1,.44-1.08,1.31l-.17,1.08a2.93,2.93,0,0,1-.71,1.65,1.88,1.88,0,0,1-1.4.56,1.9,1.9,0,0,1-1.57-.77,3.78,3.78,0,0,1,0-4.1,2.61,2.61,0,0,1,1.72-.95l.17,1.23a1.61,1.61,0,0,0-1.43,1.79,1.78,1.78,0,0,0,.29,1.1.88.88,0,0,0,.75.41.85.85,0,0,0,.69-.28,1.72,1.72,0,0,0,.35-.89l.2-1.2c.24-1.52,1-2.28,2.14-2.28a2.12,2.12,0,0,1,1.74.79A3.25,3.25,0,0,1,1366.26,419.93Z"/><path d="M1361.21,408.8h4.87v1.33h-4.63a2,2,0,0,0-1.41.46,1.7,1.7,0,0,0-.49,1.31,1.83,1.83,0,0,0,.61,1.5,2.7,2.7,0,0,0,1.78.51h4.14v1.33h-10.51v-1.33h3.92a2.63,2.63,0,0,1-1.1-2.31,2.75,2.75,0,0,1,.76-2.05A2.8,2.8,0,0,1,1361.21,408.8Z"/><path d="M1362.33,407.11a4,4,0,0,1-2.85-1,3.42,3.42,0,0,1-1.09-2.66,3.48,3.48,0,0,1,1.09-2.67,4.55,4.55,0,0,1,5.69,0,3.48,3.48,0,0,1,1.09,2.67,3.42,3.42,0,0,1-1.09,2.66A4,4,0,0,1,1362.33,407.11Zm2.05-5.34a3.72,3.72,0,0,0-4.11,0,2.27,2.27,0,0,0,0,3.37,3.22,3.22,0,0,0,2.06.6,3.17,3.17,0,0,0,2.05-.6,2,2,0,0,0,.75-1.68A2.06,2.06,0,0,0,1364.38,401.77Z"/><path d="M1358.39,394.27a3.1,3.1,0,0,1,1.07-2.44,4.13,4.13,0,0,1,2.81-.92,4.35,4.35,0,0,1,2.89.92,3,3,0,0,1,1.1,2.44,2.87,2.87,0,0,1-1.22,2.43h3.81V398h-10.27v-1.3h1.12A2.84,2.84,0,0,1,1358.39,394.27Zm3.94-2a3.27,3.27,0,0,0-2,.59,1.9,1.9,0,0,0-.75,1.58,2,2,0,0,0,.76,1.65,3.15,3.15,0,0,0,2,.62,3.06,3.06,0,0,0,2-.63,2,2,0,0,0,.76-1.64,1.9,1.9,0,0,0-.75-1.58A3.23,3.23,0,0,0,1362.33,392.29Z"/><path d="M1357.36,346.41v1.33h-1.79v-1.33Zm8.72,0v1.33h-7.5v-1.33Z"/><path d="M1361.21,338h4.87v1.33h-4.63a2,2,0,0,0-1.41.46,1.68,1.68,0,0,0-.49,1.31,1.83,1.83,0,0,0,.61,1.5,2.7,2.7,0,0,0,1.78.51h4.14v1.33h-7.5v-1.3h.94a2.64,2.64,0,0,1-1.13-2.34,2.75,2.75,0,0,1,.76-2A2.8,2.8,0,0,1,1361.21,338Z"/><path d="M1366.26,333.4a3.63,3.63,0,0,1-.67,2.31,2.42,2.42,0,0,1-1.81.94l-.19-1.33a1.85,1.85,0,0,0,1.22-.57,2.05,2.05,0,0,0,.39-1.35,1.86,1.86,0,0,0-.32-1.19,1.13,1.13,0,0,0-1-.4c-.6,0-1,.44-1.08,1.32l-.17,1.07a2.93,2.93,0,0,1-.71,1.65,1.84,1.84,0,0,1-1.4.56,1.92,1.92,0,0,1-1.57-.76,3.28,3.28,0,0,1-.61-2.06,3.23,3.23,0,0,1,.6-2,2.61,2.61,0,0,1,1.72-1l.17,1.23a1.91,1.91,0,0,0-1.1.61,1.86,1.86,0,0,0-.33,1.18,1.78,1.78,0,0,0,.29,1.1.88.88,0,0,0,.75.41.85.85,0,0,0,.69-.28,1.72,1.72,0,0,0,.35-.89l.2-1.2c.24-1.52,1-2.28,2.14-2.28a2.15,2.15,0,0,1,1.74.79A3.25,3.25,0,0,1,1366.26,333.4Z"/><path d="M1359.67,329.84h-1.09v-1.32h-2.42v-1.33h2.42V325.3h1.09v1.89h4.2a1.26,1.26,0,0,0,.83-.21,1,1,0,0,0,.23-.72v-1.14h1.15v1.35a2.15,2.15,0,0,1-.52,1.53,2,2,0,0,1-1.51.52h-4.38Z"/><path d="M1365,317.7v-.36h1.12v.72a1.64,1.64,0,0,1-.29,1,1,1,0,0,1-.78.45,2.63,2.63,0,0,1,1.25,2.37,2.81,2.81,0,0,1-.61,1.89,2,2,0,0,1-1.58.72,2.11,2.11,0,0,1-1.54-.59,3.07,3.07,0,0,1-.78-1.67l-.37-2.19a.5.5,0,0,0-.54-.47,1.22,1.22,0,0,0-1,.44,1.73,1.73,0,0,0-.39,1.2,2,2,0,0,0,.34,1.21,1.82,1.82,0,0,0,1,.61l-.14,1.27a2.57,2.57,0,0,1-1.68-1,3.4,3.4,0,0,1-.64-2.12,3,3,0,0,1,.72-2.12,2.48,2.48,0,0,1,1.91-.78h3.38a.64.64,0,0,0,.44-.12A.61.61,0,0,0,1365,317.7Zm-1,5.46a1.14,1.14,0,0,0,.9-.38,1.62,1.62,0,0,0,.32-1.06,2,2,0,0,0-.69-1.57,2.56,2.56,0,0,0-1.76-.61h-.43l.42,2.4a1.52,1.52,0,0,0,.42.91A1.12,1.12,0,0,0,1364,323.16Z"/><path d="M1365.63,313.44a3,3,0,0,1-1,2.37,3.77,3.77,0,0,1-2.62.87,3.82,3.82,0,0,1-2.63-.88,3,3,0,0,1-1-2.36,2.74,2.74,0,0,1,1.1-2.32h-.91v-1.31h7.15a3.26,3.26,0,0,1,2.42.89,3.36,3.36,0,0,1,.88,2.46,3.82,3.82,0,0,1-.67,2.36,2.56,2.56,0,0,1-1.85,1l-.13-1.33a1.83,1.83,0,0,0,1.17-.65,2.25,2.25,0,0,0,.37-1.39,1.91,1.91,0,0,0-.57-1.5,2.46,2.46,0,0,0-1.69-.51h-1.17A2.69,2.69,0,0,1,1365.63,313.44Zm-5.45,1.3a2.76,2.76,0,0,0,1.83.56,2.71,2.71,0,0,0,1.82-.56,1.92,1.92,0,0,0,.66-1.55,1.87,1.87,0,0,0-.68-1.5,2.73,2.73,0,0,0-1.8-.57,2.69,2.69,0,0,0-1.79.58,1.82,1.82,0,0,0-.7,1.49A1.92,1.92,0,0,0,1360.18,314.74Z"/><path d="M1366.08,306.53v1.33h-7.5v-1.3h1.36a2.31,2.31,0,0,1-1.36-2.15v-.57h1.26v.59a1.77,1.77,0,0,0,.82,1.53,3.84,3.84,0,0,0,2.22.57Z"/><path d="M1365,296.41v-.36h1.12v.72a1.64,1.64,0,0,1-.29,1,1,1,0,0,1-.78.45,2.63,2.63,0,0,1,1.25,2.37,2.81,2.81,0,0,1-.61,1.89,2,2,0,0,1-1.58.72,2.11,2.11,0,0,1-1.54-.59,3.07,3.07,0,0,1-.78-1.67l-.37-2.19a.5.5,0,0,0-.54-.47,1.22,1.22,0,0,0-1,.44,1.73,1.73,0,0,0-.39,1.2,2,2,0,0,0,.34,1.21,1.82,1.82,0,0,0,1,.61l-.14,1.27a2.57,2.57,0,0,1-1.68-1,3.4,3.4,0,0,1-.64-2.12,3,3,0,0,1,.72-2.12A2.48,2.48,0,0,1,1361,297h3.38a.64.64,0,0,0,.44-.12A.61.61,0,0,0,1365,296.41Zm-1,5.46a1.14,1.14,0,0,0,.9-.38,1.62,1.62,0,0,0,.32-1.06,2,2,0,0,0-.69-1.57,2.56,2.56,0,0,0-1.76-.61h-.43l.42,2.4a1.52,1.52,0,0,0,.42.91A1.12,1.12,0,0,0,1364,301.87Z"/><path d="M1361.94,288.78h4.14v1.33h-4.63a2.11,2.11,0,0,0-1.4.43,1.52,1.52,0,0,0-.5,1.21,1.65,1.65,0,0,0,.61,1.39,2.84,2.84,0,0,0,1.78.48h4.14V295h-7.5v-1.3h.91a2.52,2.52,0,0,1-1.1-2.2,2.87,2.87,0,0,1,.35-1.44,2.24,2.24,0,0,1,1-.91,2.55,2.55,0,0,1-1.36-2.42,2.7,2.7,0,0,1,.76-2,2.84,2.84,0,0,1,2.06-.73h4.87v1.33h-4.63a2.06,2.06,0,0,0-1.4.44,1.51,1.51,0,0,0-.5,1.21,1.65,1.65,0,0,0,.61,1.39A2.84,2.84,0,0,0,1361.94,288.78Z"/><path d="M1364.38,282.16v-1.64h1.7v1.64Z"/><path d="M1365.12,275.6a1.89,1.89,0,0,0-.48-1.35,2,2,0,0,0-1.33-.62l.16-1.3a3,3,0,0,1,2,1,3.32,3.32,0,0,1,.76,2.24,3.28,3.28,0,0,1-1.06,2.59,4.76,4.76,0,0,1-5.72,0,3.28,3.28,0,0,1-1.09-2.58,3.43,3.43,0,0,1,.72-2.27,3.09,3.09,0,0,1,2-1.05l.16,1.36a1.83,1.83,0,0,0-1.77,2,1.89,1.89,0,0,0,.73,1.59,3.43,3.43,0,0,0,2.08.56,3.26,3.26,0,0,0,2-.57A1.92,1.92,0,0,0,1365.12,275.6Z"/><path d="M1362.33,271.39a4,4,0,0,1-2.85-1,3.42,3.42,0,0,1-1.09-2.66,3.48,3.48,0,0,1,1.09-2.67,4.55,4.55,0,0,1,5.69,0,3.48,3.48,0,0,1,1.09,2.67,3.42,3.42,0,0,1-1.09,2.66A4,4,0,0,1,1362.33,271.39Zm2.05-5.34a3.72,3.72,0,0,0-4.11,0,2.27,2.27,0,0,0,0,3.37,3.22,3.22,0,0,0,2.06.6,3.17,3.17,0,0,0,2.05-.6,2,2,0,0,0,.75-1.68A2.06,2.06,0,0,0,1364.38,266.05Z"/><path d="M1361.94,256.39h4.14v1.34h-4.63a2.11,2.11,0,0,0-1.4.42,1.52,1.52,0,0,0-.5,1.21,1.65,1.65,0,0,0,.61,1.39,2.84,2.84,0,0,0,1.78.48h4.14v1.34h-7.5v-1.31h.91a2.52,2.52,0,0,1-1.1-2.2,2.83,2.83,0,0,1,.35-1.43,2.2,2.2,0,0,1,1-.92,2.55,2.55,0,0,1-1.36-2.42,2.7,2.7,0,0,1,.76-2,2.88,2.88,0,0,1,2.06-.73h4.87v1.34h-4.63a2.06,2.06,0,0,0-1.4.43,1.52,1.52,0,0,0-.5,1.21,1.65,1.65,0,0,0,.61,1.39A2.84,2.84,0,0,0,1361.94,256.39Z"/><path d="M1368.05,249.1v1.34l-13.11-5.34v-1.28Z"/><path d="M1359.64,237.29l5.32,4.33v-4.46h1.12v6.06h-1l-5.38-4.35V243h-1.11v-5.69Z"/><path d="M1365.17,232.62a1.77,1.77,0,0,0-1.51-1.91l.24-1.23a2.8,2.8,0,0,1,1.73,1.06,3.4,3.4,0,0,1,.63,2.08,3.48,3.48,0,0,1-1,2.69,4.12,4.12,0,0,1-2.91.94,4,4,0,0,1-2.85-1,3.35,3.35,0,0,1-1.09-2.63,3.09,3.09,0,0,1,1-2.42,3.79,3.79,0,0,1,2.64-.88h.64v5.55C1364.33,234.83,1365.17,234.07,1365.17,232.62Zm-5.71.06a2.05,2.05,0,0,0,.56,1.51,2.64,2.64,0,0,0,1.63.68v-4.14Q1359.46,230.84,1359.46,232.68Z"/><path d="M1365.17,224.69a1.77,1.77,0,0,0-1.51-1.91l.24-1.23a2.72,2.72,0,0,1,1.73,1.06,3.36,3.36,0,0,1,.63,2.08,3.49,3.49,0,0,1-1,2.69,4.17,4.17,0,0,1-2.91.94,4,4,0,0,1-2.85-1,3.33,3.33,0,0,1-1.09-2.63,3.07,3.07,0,0,1,1-2.41,3.74,3.74,0,0,1,2.64-.88h.64V227C1364.33,226.9,1365.17,226.14,1365.17,224.69Zm-5.71.06a2.07,2.07,0,0,0,.56,1.51,2.64,2.64,0,0,0,1.63.68V222.8Q1359.46,222.91,1359.46,224.75Z"/><path d="M1365.17,216.74a1.77,1.77,0,0,0-1.51-1.91l.24-1.23a2.76,2.76,0,0,1,1.73,1.06,3.38,3.38,0,0,1,.63,2.08,3.49,3.49,0,0,1-1,2.69,4.12,4.12,0,0,1-2.91.94,4.07,4.07,0,0,1-2.85-1,3.35,3.35,0,0,1-1.09-2.63,3.08,3.08,0,0,1,1-2.42,3.74,3.74,0,0,1,2.64-.88h.64V219C1364.33,219,1365.17,218.19,1365.17,216.74Zm-5.71.06a2.07,2.07,0,0,0,.56,1.51,2.64,2.64,0,0,0,1.63.68v-4.14Q1359.46,215,1359.46,216.8Z"/><path d="M1361.21,205.51h4.87v1.33h-4.63a2,2,0,0,0-1.41.46,1.68,1.68,0,0,0-.49,1.31,1.85,1.85,0,0,0,.61,1.5,2.7,2.7,0,0,0,1.78.51h4.14V212h-7.5v-1.3h.94a2.64,2.64,0,0,1-1.13-2.34,2.79,2.79,0,0,1,.76-2.06A2.84,2.84,0,0,1,1361.21,205.51Z"/><path d="M1366.26,200.93a3.64,3.64,0,0,1-.67,2.32,2.42,2.42,0,0,1-1.81.94l-.19-1.34a1.84,1.84,0,0,0,1.22-.56,2.08,2.08,0,0,0,.39-1.36,1.84,1.84,0,0,0-.32-1.18,1.14,1.14,0,0,0-1-.41c-.6,0-1,.44-1.08,1.32l-.17,1.08a2.87,2.87,0,0,1-.71,1.64,1.85,1.85,0,0,1-1.4.57,1.9,1.9,0,0,1-1.57-.77,3.78,3.78,0,0,1,0-4.1,2.61,2.61,0,0,1,1.72-1l.17,1.23a1.6,1.6,0,0,0-1.43,1.79,1.8,1.8,0,0,0,.29,1.1.93.93,0,0,0,1.44.13,1.72,1.72,0,0,0,.35-.89l.2-1.2c.24-1.52,1-2.28,2.14-2.28a2.12,2.12,0,0,1,1.74.79A3.24,3.24,0,0,1,1366.26,200.93Z"/><path d="M1361.21,190.09h4.87v1.34h-4.63a2,2,0,0,0-1.41.45,1.72,1.72,0,0,0-.49,1.32,1.83,1.83,0,0,0,.61,1.49,2.7,2.7,0,0,0,1.78.52h4.14v1.33h-10.51v-1.33h3.92a2.63,2.63,0,0,1-1.1-2.31,2.61,2.61,0,0,1,2.82-2.81Z"/><path d="M1362.33,188.67a4,4,0,0,1-2.85-1,3.79,3.79,0,0,1,0-5.32,4.51,4.51,0,0,1,5.69,0,3.79,3.79,0,0,1,0,5.32A4,4,0,0,1,1362.33,188.67Zm2.05-5.34a3.72,3.72,0,0,0-4.11,0,2.27,2.27,0,0,0,0,3.37,3.22,3.22,0,0,0,2.06.61,3.11,3.11,0,0,0,2.05-.61,2,2,0,0,0,.75-1.68A2.06,2.06,0,0,0,1364.38,183.33Z"/><path d="M1358.39,176.1a3.11,3.11,0,0,1,1.07-2.44,4.13,4.13,0,0,1,2.81-.91,4.35,4.35,0,0,1,2.89.91,3,3,0,0,1,1.1,2.44,2.86,2.86,0,0,1-1.22,2.43h3.81v1.33h-10.27v-1.3h1.12A2.84,2.84,0,0,1,1358.39,176.1Zm3.94-2a3.27,3.27,0,0,0-2,.59,1.91,1.91,0,0,0-.75,1.59,2,2,0,0,0,.76,1.65,3.15,3.15,0,0,0,2,.61,3.11,3.11,0,0,0,2-.62,2,2,0,0,0,.76-1.64,1.91,1.91,0,0,0-.75-1.59A3.23,3.23,0,0,0,1362.33,174.12Z"/><line class="cls-5" x1="1459.46" y1="102.41" x2="1459.46" y2="977.54"/><line class="cls-5" x1="1671.98" y1="764.98" x2="1246.65" y2="764.98"/><line class="cls-5" x1="1459.46" y1="765.06" x2="1246.93" y2="977.59"/><line class="cls-5" x1="1459.46" y1="764.98" x2="1671.98" y2="977.57"/><path d="M549.77,839.76h-6.86l-1.47,3.86h-2.2l6.1-15.75h2.18l6,15.75h-2.36ZM543.61,838h5.49l-2.7-7.33Z"/><path d="M557.06,843.62h-2V832.37h2v2a3.48,3.48,0,0,1,3.21-2h.87v1.89h-.89a2.66,2.66,0,0,0-2.29,1.24,5.74,5.74,0,0,0-.86,3.33Z"/><path d="M562.7,834v-1.65h2v-3.62h2v3.62h2.83V834h-2.83v6.3a1.89,1.89,0,0,0,.31,1.24,1.41,1.41,0,0,0,1.08.35h1.72v1.71h-2a3.18,3.18,0,0,1-2.3-.77,3,3,0,0,1-.79-2.26V834Z"/><path d="M573.33,830.55h-2v-2.68h2Zm0,13.07h-2V832.37h2Z"/><path d="M580.1,843.9a5.53,5.53,0,0,1-3.47-1,3.6,3.6,0,0,1-1.41-2.72l2-.29a2.73,2.73,0,0,0,.85,1.83,3,3,0,0,0,2,.6,2.83,2.83,0,0,0,1.77-.49,1.7,1.7,0,0,0,.61-1.43c0-.89-.66-1.43-2-1.61l-1.61-.25a4.52,4.52,0,0,1-2.47-1.07,2.8,2.8,0,0,1-.85-2.11,2.87,2.87,0,0,1,1.16-2.35,4.78,4.78,0,0,1,3.07-.91,4.84,4.84,0,0,1,3.08.9,3.86,3.86,0,0,1,1.42,2.57l-1.84.26a2.88,2.88,0,0,0-.91-1.65,3.37,3.37,0,0,0-3.43-.06,1.32,1.32,0,0,0-.6,1.13,1.29,1.29,0,0,0,.41,1,2.5,2.5,0,0,0,1.33.52l1.8.3c2.28.36,3.42,1.44,3.42,3.22a3.17,3.17,0,0,1-1.18,2.6A4.86,4.86,0,0,1,580.1,843.9Z"/><path d="M585.05,834v-1.65h2v-3.62h2v3.62h2.83V834H589v6.3a1.89,1.89,0,0,0,.31,1.24,1.41,1.41,0,0,0,1.08.35h1.71v1.71h-2a3.15,3.15,0,0,1-2.29-.77,3,3,0,0,1-.79-2.26V834Z"/><path d="M595.68,830.55h-2v-2.68h2Zm0,13.07h-2V832.37h2Z"/><path d="M603,842.18a2.88,2.88,0,0,0,2-.7,3.13,3.13,0,0,0,.92-2l2,.23a4.53,4.53,0,0,1-1.56,3,5.54,5.54,0,0,1-7.24-.44,7.17,7.17,0,0,1,0-8.59A4.92,4.92,0,0,1,603,832.1a5.13,5.13,0,0,1,3.4,1.08,4.6,4.6,0,0,1,1.57,3.06l-2,.23a2.75,2.75,0,0,0-3-2.66,2.82,2.82,0,0,0-2.37,1.11,5.08,5.08,0,0,0-.84,3.12,4.83,4.83,0,0,0,.85,3.05A2.84,2.84,0,0,0,603,842.18Z"/><path d="M619.47,842H620v1.67h-1.09a2.51,2.51,0,0,1-1.48-.42,1.57,1.57,0,0,1-.67-1.17,4,4,0,0,1-3.56,1.87,4.22,4.22,0,0,1-2.83-.92,3,3,0,0,1-1.08-2.37,3.14,3.14,0,0,1,.88-2.3,4.41,4.41,0,0,1,2.52-1.17l3.28-.56a.76.76,0,0,0,.7-.81,1.88,1.88,0,0,0-.66-1.49,2.67,2.67,0,0,0-1.8-.58,2.92,2.92,0,0,0-1.81.51,2.67,2.67,0,0,0-.92,1.58l-1.9-.22a3.78,3.78,0,0,1,1.53-2.51,5.14,5.14,0,0,1,3.18-1,4.47,4.47,0,0,1,3.18,1.08,3.71,3.71,0,0,1,1.16,2.86v5.07a.69.69,0,0,0,.83.84Zm-8.19-1.48a1.66,1.66,0,0,0,.57,1.34,2.4,2.4,0,0,0,1.59.48,3,3,0,0,0,2.35-1,3.85,3.85,0,0,0,.92-2.65V838l-3.61.62a2.37,2.37,0,0,0-1.35.63A1.67,1.67,0,0,0,611.28,840.47Z"/><path d="M623.43,843.62h-2V827.87h2Z"/><path d="M628.19,843.62h-2V827.87h2Z"/><path d="M633.75,844.68l.37-1-4.43-11.32h2.11l3.33,8.85,3.36-8.85h2l-4.91,12.52a4.9,4.9,0,0,1-1.52,2.27,3.82,3.82,0,0,1-2.32.63h-1.17v-1.7h1.17a2.17,2.17,0,0,0,1.24-.31A2.23,2.23,0,0,0,633.75,844.68Z"/><path d="M648.68,843.62h-2.16V827.87h11.05v1.85h-8.89v5.13h8v1.84h-8Z"/><path d="M660.89,843.62h-2V832.37h2v2a3.48,3.48,0,0,1,3.22-2h.87v1.89h-.89a2.68,2.68,0,0,0-2.3,1.24,5.74,5.74,0,0,0-.86,3.33Z"/><path d="M665.47,838a6.05,6.05,0,0,1,1.49-4.27,5.11,5.11,0,0,1,4-1.63,5.22,5.22,0,0,1,4,1.63,6,6,0,0,1,1.51,4.27,6.07,6.07,0,0,1-1.51,4.27,5.22,5.22,0,0,1-4,1.63,5.11,5.11,0,0,1-4-1.63A6.07,6.07,0,0,1,665.47,838Zm8,3.08a5.62,5.62,0,0,0,0-6.16,3.11,3.11,0,0,0-2.54-1.13,3,3,0,0,0-2.51,1.13,5.69,5.69,0,0,0,0,6.16,3.07,3.07,0,0,0,2.52,1.13A3.11,3.11,0,0,0,673.48,841.08Z"/><path d="M687.74,837.42v6.2h-2v-6.93a3.13,3.13,0,0,0-.65-2.11,2.23,2.23,0,0,0-1.8-.74,2.51,2.51,0,0,0-2.1.91,4.25,4.25,0,0,0-.72,2.67v6.2h-2V832.37h1.95v1.38a3.77,3.77,0,0,1,3.31-1.65,4.19,4.19,0,0,1,2.14.52,3.32,3.32,0,0,1,1.38,1.51,3.83,3.83,0,0,1,3.63-2,4,4,0,0,1,3,1.14,4.26,4.26,0,0,1,1.1,3.09v7.29h-2v-6.93a3.13,3.13,0,0,0-.65-2.11,2.26,2.26,0,0,0-1.81-.74,2.51,2.51,0,0,0-2.1.91A4.31,4.31,0,0,0,687.74,837.42Z"/><path d="M704.71,843.62h-2.16V827.87h2.16Z"/><path d="M709.71,843.62h-2V832.37h2v2a3.48,3.48,0,0,1,3.21-2h.87v1.89h-.89a2.66,2.66,0,0,0-2.29,1.24,5.67,5.67,0,0,0-.86,3.33Z"/><path d="M724.47,842H725v1.67h-1.09a2.49,2.49,0,0,1-1.48-.42,1.54,1.54,0,0,1-.67-1.17,4,4,0,0,1-3.56,1.87,4.25,4.25,0,0,1-2.84-.92,3,3,0,0,1-1.07-2.37,3.14,3.14,0,0,1,.88-2.3,4.38,4.38,0,0,1,2.51-1.17l3.29-.56a.76.76,0,0,0,.7-.81,1.88,1.88,0,0,0-.66-1.49,2.67,2.67,0,0,0-1.8-.58,2.9,2.9,0,0,0-1.81.51,2.68,2.68,0,0,0-.93,1.58l-1.9-.22a3.83,3.83,0,0,1,1.54-2.51,5.1,5.1,0,0,1,3.18-1,4.51,4.51,0,0,1,3.18,1.08,3.71,3.71,0,0,1,1.16,2.86v5.07a1,1,0,0,0,.18.66A.94.94,0,0,0,724.47,842Zm-8.19-1.48a1.66,1.66,0,0,0,.57,1.34,2.4,2.4,0,0,0,1.59.48,3,3,0,0,0,2.34-1,3.8,3.8,0,0,0,.92-2.65V838l-3.6.62a2.4,2.4,0,0,0-1.36.63A1.7,1.7,0,0,0,716.28,840.47Z"/><path d="M736.09,836.33v7.29h-2v-6.93a3,3,0,0,0-.69-2.11,2.51,2.51,0,0,0-2-.74,2.76,2.76,0,0,0-2.24.91,4,4,0,0,0-.77,2.67v6.2h-2V832.37h2v1.42a3.94,3.94,0,0,1,3.5-1.69,4.14,4.14,0,0,1,3.09,1.14A4.19,4.19,0,0,1,736.09,836.33Z"/><path d="M548.17,864.62h-8.84V851.76H548v1.5H541.1v4.09h6.16v1.47H541.1v4.3h7.07Z"/><path d="M554.52,864.85a5.68,5.68,0,0,1-3.69-1.12,3.93,3.93,0,0,1-1.4-3.07l1.74-.23a3,3,0,0,0,.92,2.21,3.6,3.6,0,0,0,2.43.75,3,3,0,0,0,2-.62,2.08,2.08,0,0,0,.73-1.67,1.73,1.73,0,0,0-.51-1.33A3.88,3.88,0,0,0,555,859l-1.71-.36a5,5,0,0,1-2.6-1.27,3.41,3.41,0,0,1,.35-4.83,4.67,4.67,0,0,1,3.13-1,4.93,4.93,0,0,1,3.23,1,3.9,3.9,0,0,1,1.38,2.74l-1.74.22a2.58,2.58,0,0,0-2.87-2.5,2.94,2.94,0,0,0-1.91.56,2,2,0,0,0-.18,2.85,3.14,3.14,0,0,0,1.59.72l2,.43a5,5,0,0,1,2.55,1.2A3.08,3.08,0,0,1,559,861a3.53,3.53,0,0,1-1.23,2.75A4.81,4.81,0,0,1,554.52,864.85Z"/><path d="M559.54,851.76h9.77v1.5h-4v11.36h-1.74V853.26h-4Z"/><path d="M580.09,855.17a2,2,0,0,0-.62-1.54,2.26,2.26,0,0,0-1.63-.58,2.46,2.46,0,0,0-2.07.88,3.91,3.91,0,0,0-.66,2.59l-1.69-.22a4.16,4.16,0,0,1,4.42-4.76,4.09,4.09,0,0,1,2.93,1,3.45,3.45,0,0,1,1.08,2.62,4.61,4.61,0,0,1-.65,2.32,10.87,10.87,0,0,1-2.12,2.5l-3.43,3.16h6.54v1.47h-8.82v-1.5l4.63-4.25a8.43,8.43,0,0,0,1.62-1.89A3.7,3.7,0,0,0,580.09,855.17Z"/><path d="M583.65,858.19a8.33,8.33,0,0,1,1.26-4.87,4.13,4.13,0,0,1,3.55-1.78,4.09,4.09,0,0,1,3.55,1.78,8.13,8.13,0,0,1,1.28,4.87,8.21,8.21,0,0,1-1.28,4.87,4.44,4.44,0,0,1-7.1,0A8.3,8.3,0,0,1,583.65,858.19Zm7.09,3.83a9.57,9.57,0,0,0,0-7.66,2.57,2.57,0,0,0-4.54,0,7.5,7.5,0,0,0-.81,3.8,7.64,7.64,0,0,0,.79,3.84,2.6,2.6,0,0,0,4.56,0Z"/><path d="M602.92,864.62h-8v-1.47h3.14v-8.26a2.76,2.76,0,0,1-1.47.34h-1.72v-1.45h1.61a1.49,1.49,0,0,0,1.23-.49,2.35,2.35,0,0,0,.41-1.53h1.69v11.39h3.09Z"/><path d="M611.07,860.85a2,2,0,0,0-.66-1.61,2.82,2.82,0,0,0-1.88-.57h-1.15v-1.34h1.1a2.12,2.12,0,0,0,1.61-.61,2.42,2.42,0,0,0,.57-1.71,1.88,1.88,0,0,0-.62-1.48,2.51,2.51,0,0,0-1.7-.54,2.65,2.65,0,0,0-1.93.71,2.77,2.77,0,0,0-.78,2l-1.6-.35a3.53,3.53,0,0,1,1.25-2.74,4.62,4.62,0,0,1,3.1-1.05,4.39,4.39,0,0,1,2.93.92,3.07,3.07,0,0,1,1.08,2.46,3.45,3.45,0,0,1-.47,1.8,2.92,2.92,0,0,1-1.33,1.17,3.36,3.36,0,0,1,1.65,1.14,3,3,0,0,1,.57,1.84,3.73,3.73,0,0,1-1.19,2.89,4.62,4.62,0,0,1-3.21,1.09,5.43,5.43,0,0,1-3.31-1,3.51,3.51,0,0,1-1.44-2.63l1.75-.39a2.65,2.65,0,0,0,.87,1.87,3,3,0,0,0,2.06.65,2.81,2.81,0,0,0,2-.67A2.4,2.4,0,0,0,611.07,860.85Z"/><rect x="368.65" y="518.12" width="5.25" height="63"/><rect x="371.27" y="541.75" width="18.38" height="5.25"/><rect x="368.35" y="534.7" width="19.94" height="5.25" transform="translate(-269.14 424.89) rotate(-45)"/><rect x="360.77" y="560.12" width="9.02" height="5.25"/><path d="M373.9,573.25V568a5.25,5.25,0,0,0,0-10.5v-5.25a10.5,10.5,0,0,1,0,21Z"/><path d="M381.77,526h-5.25a5.25,5.25,0,0,0-10.5,0h-5.25a10.5,10.5,0,0,1,21,0Z"/><path d="M499.73,757h-5.25a31.42,31.42,0,1,0-62.83,0H426.4a36.67,36.67,0,1,1,73.33,0Z"/><rect x="390.81" y="628.37" width="81.67" height="5.25" transform="translate(-319.76 490.04) rotate(-45)"/><path d="M610.15,762.25h-210V626.83l-10.5,10.5V652h-21V578.5h52.5A49.92,49.92,0,0,1,471,628.37V641.5h89.25a49.93,49.93,0,0,1,49.88,49.87ZM405.4,757H604.9V691.37a44.68,44.68,0,0,0-44.63-44.62h-94.5V628.37a44.68,44.68,0,0,0-44.62-44.62H373.9v63h10.5V635.16L414,605.52l3.71,3.71L405.4,621.58Z"/><polygon points="607.52 746.5 555.02 746.5 555.02 644.12 560.27 644.12 560.27 741.25 607.52 741.25 607.52 746.5"/><path d="M502.52,715a36.8,36.8,0,0,1-36.75-36.75V641.5h73.5v36.75A36.79,36.79,0,0,1,502.52,715ZM471,646.75v31.5a31.5,31.5,0,0,0,63,0v-31.5Z"/><path d="M392.27,602.12H368.65V578.5h23.62Zm-18.37-5.25H387V583.75H373.9Z"/><polygon points="551.09 809.5 539.24 809.5 547.62 796.37 540.59 796.37 540.59 793.75 552.4 793.75 544.03 806.87 551.09 806.87 551.09 809.5"/><polygon points="565.53 809.5 555.06 809.5 555.02 793.75 565.53 793.75 565.53 796.37 557.66 796.37 557.68 806.87 565.53 806.87 565.53 809.5"/><rect x="556.34" y="800.31" width="9.19" height="2.63"/><polygon points="579.97 809.5 569.47 809.5 569.47 793.75 579.97 793.75 579.97 796.37 572.09 796.37 572.09 806.87 579.97 806.87 579.97 809.5"/><rect x="570.78" y="800.31" width="9.19" height="2.63"/><polygon points="594.4 809.5 583.9 809.5 583.9 793.75 594.4 793.75 594.4 796.37 586.53 796.37 586.53 806.87 594.4 806.87 594.4 809.5"/><rect x="585.22" y="800.31" width="9.19" height="2.63"/><polygon points="610.15 809.5 607.64 809.5 600.97 798.86 600.97 809.5 598.34 809.5 598.34 793.75 600.86 793.75 607.53 804.38 607.53 793.75 610.15 793.75 610.15 809.5"/><path d="M429,848.87A28.9,28.9,0,0,1,400.15,820V793.75h5.25V820a23.63,23.63,0,0,0,47.25,0V793.75h5.25V820A28.9,28.9,0,0,1,429,848.87Z"/><polygon points="488.4 848.1 484.69 844.39 505.15 823.93 505.15 809.5 510.4 809.5 510.4 826.11 488.4 848.1"/><rect x="426.4" y="793.75" width="5.25" height="10.5"/><rect x="505.15" y="793.75" width="5.25" height="10.5"/><rect x="452.65" y="854.12" width="5.25" height="10.5"/><rect x="463.15" y="854.12" width="5.25" height="10.5"/><polygon points="457.13 820.32 453.42 816.6 465.77 804.25 465.77 793.75 471.02 793.75 471.02 806.42 457.13 820.32"/><polygon points="457.13 836.07 453.42 832.35 476.27 809.5 476.27 793.75 481.52 793.75 481.52 811.67 457.13 836.07"/><polygon points="460.07 848.87 452.65 848.87 452.65 793.75 457.9 793.75 457.9 843.62 486.77 814.75 486.77 793.75 492.02 793.75 492.02 816.92 460.07 848.87"/><line class="cls-3" x1="247.78" y1="764.98" x2="1246.65" y2="764.98"/></g></svg>