<svg xmlns="http://www.w3.org/2000/svg" xmlns:xlink="http://www.w3.org/1999/xlink" viewBox="0 0 1440 1920"><defs><style>.cls-1{fill:#003691;}.cls-2{fill:#061f6b;}.cls-3{fill:#fff;}.cls-4{fill:#4672e2;}.cls-10,.cls-11,.cls-12,.cls-13,.cls-14,.cls-5,.cls-6,.cls-7,.cls-8,.cls-9{fill:none;stroke-miterlimit:10;}.cls-5{stroke:url(#linear-gradient);}.cls-6{stroke:url(#linear-gradient-2);}.cls-7{stroke:url(#linear-gradient-3);}.cls-8{stroke:url(#linear-gradient-4);}.cls-9{stroke:url(#linear-gradient-5);}.cls-10{stroke:url(#linear-gradient-6);}.cls-11{stroke:url(#linear-gradient-7);}.cls-12{stroke:url(#linear-gradient-8);}.cls-13{stroke:url(#linear-gradient-9);}.cls-14{stroke:url(#linear-gradient-10);}</style><linearGradient id="linear-gradient" y1="1801.89" x2="1440" y2="1801.89" gradientUnits="userSpaceOnUse"><stop offset="0" stop-color="#fff" stop-opacity="0"/><stop offset="0.51" stop-color="#fff"/><stop offset="1" stop-color="#fff" stop-opacity="0"/></linearGradient><linearGradient id="linear-gradient-2" y1="1659.6" y2="1659.6" xlink:href="#linear-gradient"/><linearGradient id="linear-gradient-3" y1="799.05" y2="799.05" xlink:href="#linear-gradient"/><linearGradient id="linear-gradient-4" y1="704.21" y2="704.21" xlink:href="#linear-gradient"/><linearGradient id="linear-gradient-5" y1="261.47" y2="261.47" xlink:href="#linear-gradient"/><linearGradient id="linear-gradient-6" y1="118.15" y2="118.15" xlink:href="#linear-gradient"/><linearGradient id="linear-gradient-7" x1="-4272" y1="-3570.09" x2="-2352" y2="-3570.09" gradientTransform="translate(-2352 4272) rotate(90)" xlink:href="#linear-gradient"/><linearGradient id="linear-gradient-8" x1="-4272" y1="-3664.96" x2="-2352" y2="-3664.96" gradientTransform="translate(-2352 4272) rotate(90)" xlink:href="#linear-gradient"/><linearGradient id="linear-gradient-9" x1="-4272" y1="-2573.91" x2="-2352" y2="-2573.91" gradientTransform="translate(-2352 4272) rotate(90)" xlink:href="#linear-gradient"/><linearGradient id="linear-gradient-10" x1="-4272" y1="-2479.04" x2="-2352" y2="-2479.04" gradientTransform="translate(-2352 4272) rotate(90)" xlink:href="#linear-gradient"/></defs><g id="Background"><rect class="cls-1" width="1440" height="1920"/></g><g id="Graphic"><rect class="cls-2" x="127.04" y="119.16" width="1185.92" height="679.89"/><rect class="cls-3" x="127.04" y="1707.05" width="94.84" height="23.71"/><rect class="cls-3" x="127.04" y="1778.18" width="94.84" height="23.71"/><rect class="cls-3" x="122.79" y="1742.64" width="103.36" height="23.71" transform="translate(-1075.21 510.72) rotate(-39.46)"/><rect class="cls-3" x="127.04" y="1612.16" width="94.84" height="23.71"/><rect class="cls-3" x="127.04" y="1683.29" width="94.84" height="23.71"/><rect class="cls-3" x="122.79" y="1647.74" width="103.36" height="23.71" transform="translate(-1014.9 489.09) rotate(-39.46)"/><rect class="cls-3" x="1218.09" y="1707.05" width="94.84" height="23.71"/><rect class="cls-3" x="1218.09" y="1778.18" width="94.84" height="23.71"/><rect class="cls-3" x="1213.84" y="1742.64" width="103.36" height="23.71" transform="translate(-826.56 1204.07) rotate(-39.46)"/><rect class="cls-3" x="1218.09" y="1612.16" width="94.84" height="23.71"/><rect class="cls-3" x="1218.09" y="1683.29" width="94.84" height="23.71"/><rect class="cls-3" x="1213.84" y="1647.74" width="103.36" height="23.71" transform="translate(-766.26 1182.45) rotate(-39.46)"/><rect class="cls-3" x="127.04" y="213.04" width="94.84" height="23.71"/><rect class="cls-3" x="127.04" y="284.17" width="94.84" height="23.71"/><rect class="cls-3" x="122.79" y="248.62" width="103.36" height="23.71" transform="translate(-125.77 170.24) rotate(-39.46)"/><rect class="cls-3" x="127.04" y="118.15" width="94.84" height="23.71"/><rect class="cls-3" x="127.04" y="189.28" width="94.84" height="23.71"/><rect class="cls-3" x="122.79" y="153.73" width="103.36" height="23.71" transform="translate(-65.47 148.61) rotate(-39.46)"/><rect class="cls-3" x="1218.09" y="213.04" width="94.84" height="23.71"/><rect class="cls-3" x="1218.09" y="284.17" width="94.84" height="23.71"/><rect class="cls-3" x="1213.84" y="248.62" width="103.36" height="23.71" transform="translate(122.87 863.6) rotate(-39.46)"/><rect class="cls-3" x="1218.09" y="118.15" width="94.84" height="23.71"/><rect class="cls-3" x="1218.09" y="189.28" width="94.84" height="23.71"/><rect class="cls-3" x="1213.84" y="153.73" width="103.36" height="23.71" transform="translate(183.18 841.97) rotate(-39.46)"/><rect class="cls-3" x="127.04" y="704.21" width="94.84" height="23.71"/><rect class="cls-3" x="127.04" y="775.34" width="94.84" height="23.71"/><rect class="cls-3" x="122.79" y="739.8" width="103.36" height="23.71" transform="translate(-437.91 282.18) rotate(-39.46)"/><path class="cls-4" d="M754.32,436.18h-5.27l-1.13,3h-1.69L750.92,427h1.67l4.64,12.12h-1.82Zm-4.74-1.38h4.23l-2.08-5.65Z"/><path class="cls-4" d="M759.93,439.16h-1.54v-8.65h1.51v1.57a2.67,2.67,0,0,1,2.47-1.57H763V432h-.68a2.06,2.06,0,0,0-1.77,1,4.41,4.41,0,0,0-.66,2.56Z"/><path class="cls-4" d="M764.27,431.77v-1.26h1.52v-2.79h1.54v2.79h2.18v1.26h-2.18v4.84a1.46,1.46,0,0,0,.24,1,1.07,1.07,0,0,0,.83.27h1.32v1.32h-1.55a2.43,2.43,0,0,1-1.77-.6,2.32,2.32,0,0,1-.61-1.73v-5.06Z"/><path class="cls-4" d="M772.45,429.1h-1.54V427h1.54Zm0,10.06h-1.54v-8.65h1.54Z"/><path class="cls-4" d="M777.65,439.37a4.26,4.26,0,0,1-2.67-.77,2.76,2.76,0,0,1-1.08-2.09l1.54-.22a2.18,2.18,0,0,0,.65,1.41,2.38,2.38,0,0,0,1.56.45,2.17,2.17,0,0,0,1.37-.37,1.32,1.32,0,0,0,.47-1.1c0-.68-.51-1.1-1.53-1.24l-1.24-.19a3.45,3.45,0,0,1-1.89-.82,2.15,2.15,0,0,1-.66-1.63,2.19,2.19,0,0,1,.89-1.8,4.35,4.35,0,0,1,4.73,0,3,3,0,0,1,1.1,2l-1.42.21a2.16,2.16,0,0,0-.7-1.27,2.57,2.57,0,0,0-2.64,0,1,1,0,0,0-.46.87,1,1,0,0,0,.31.79,1.9,1.9,0,0,0,1,.4l1.39.23c1.75.28,2.62,1.11,2.62,2.47a2.48,2.48,0,0,1-.9,2A3.76,3.76,0,0,1,777.65,439.37Z"/><path class="cls-4" d="M781.46,431.77v-1.26H783v-2.79h1.54v2.79h2.18v1.26h-2.18v4.84a1.46,1.46,0,0,0,.24,1,1.07,1.07,0,0,0,.83.27h1.32v1.32h-1.55a2.42,2.42,0,0,1-1.77-.6,2.28,2.28,0,0,1-.61-1.73v-5.06Z"/><path class="cls-4" d="M789.64,429.1H788.1V427h1.54Zm0,10.06H788.1v-8.65h1.54Z"/><path class="cls-4" d="M795.29,438.05a2.21,2.21,0,0,0,1.56-.54,2.4,2.4,0,0,0,.71-1.54l1.51.18a3.51,3.51,0,0,1-1.2,2.34,4.25,4.25,0,0,1-5.57-.34,4.71,4.71,0,0,1-1.09-3.28,4.8,4.8,0,0,1,1.1-3.32,3.81,3.81,0,0,1,3-1.26,3.94,3.94,0,0,1,2.62.84,3.58,3.58,0,0,1,1.21,2.35l-1.58.18a2.1,2.1,0,0,0-2.27-2.05,2.15,2.15,0,0,0-1.82.86,3.85,3.85,0,0,0-.65,2.4,3.7,3.7,0,0,0,.65,2.34A2.2,2.2,0,0,0,795.29,438.05Z"/><path class="cls-4" d="M807.94,437.87h.41v1.29h-.83a1.88,1.88,0,0,1-1.14-.33,1.17,1.17,0,0,1-.52-.9,3,3,0,0,1-2.74,1.44,3.27,3.27,0,0,1-2.18-.71,2.27,2.27,0,0,1-.82-1.82,2.42,2.42,0,0,1,.67-1.77,3.42,3.42,0,0,1,1.94-.9l2.52-.43a.58.58,0,0,0,.54-.62,1.48,1.48,0,0,0-.5-1.15,2.07,2.07,0,0,0-1.39-.44,2.25,2.25,0,0,0-1.39.39,2,2,0,0,0-.71,1.21l-1.46-.17a2.94,2.94,0,0,1,1.17-1.93,4,4,0,0,1,2.45-.74,3.48,3.48,0,0,1,2.45.83,2.88,2.88,0,0,1,.89,2.21v3.89a.74.74,0,0,0,.14.51A.68.68,0,0,0,807.94,437.87Zm-6.3-1.14a1.24,1.24,0,0,0,.44,1,1.82,1.82,0,0,0,1.22.38,2.36,2.36,0,0,0,1.81-.79,3,3,0,0,0,.7-2v-.49l-2.77.48a1.75,1.75,0,0,0-1,.48A1.31,1.31,0,0,0,801.64,436.73Z"/><path class="cls-4" d="M811,439.16h-1.54V427H811Z"/><path class="cls-4" d="M814.65,439.16h-1.54V427h1.54Z"/><path class="cls-4" d="M818.92,440l.29-.76-3.41-8.7h1.62l2.56,6.8,2.59-6.8h1.55l-3.77,9.62a3.84,3.84,0,0,1-1.18,1.75,2.94,2.94,0,0,1-1.78.48h-.9v-1.3h.9a1.58,1.58,0,0,0,1-.25A1.67,1.67,0,0,0,818.92,440Z"/><path class="cls-4" d="M830.41,439.16h-1.67V427h8.5v1.42h-6.83v4h6.14v1.42h-6.14Z"/><path class="cls-4" d="M839.8,439.16h-1.54v-8.65h1.51v1.57a2.67,2.67,0,0,1,2.47-1.57h.67V432h-.68a2.06,2.06,0,0,0-1.77,1,4.41,4.41,0,0,0-.66,2.56Z"/><path class="cls-4" d="M843.32,434.83a4.64,4.64,0,0,1,1.14-3.28,4,4,0,0,1,3.07-1.26,4,4,0,0,1,3.08,1.26,4.59,4.59,0,0,1,1.15,3.28,4.68,4.68,0,0,1-1.15,3.29,4.05,4.05,0,0,1-3.08,1.25,4,4,0,0,1-3.07-1.25A4.67,4.67,0,0,1,843.32,434.83Zm6.16,2.37a4.31,4.31,0,0,0,0-4.74,2.36,2.36,0,0,0-2-.86,2.33,2.33,0,0,0-1.93.86,3.66,3.66,0,0,0-.71,2.37,3.73,3.73,0,0,0,.7,2.38,2.62,2.62,0,0,0,3.89,0Z"/><path class="cls-4" d="M860.45,434.38v4.78h-1.54v-5.33a2.44,2.44,0,0,0-.49-1.63,1.75,1.75,0,0,0-1.39-.57,1.92,1.92,0,0,0-1.61.71,3.24,3.24,0,0,0-.56,2v4.78h-1.53v-8.65h1.5v1.05a2.92,2.92,0,0,1,2.54-1.27,3.2,3.2,0,0,1,1.65.41,2.5,2.5,0,0,1,1.06,1.16,3,3,0,0,1,2.79-1.57,3.1,3.1,0,0,1,2.33.88,3.29,3.29,0,0,1,.84,2.38v5.61H864.5v-5.33a2.39,2.39,0,0,0-.5-1.63,1.74,1.74,0,0,0-1.39-.57,1.93,1.93,0,0,0-1.61.71A3.24,3.24,0,0,0,860.45,434.38Z"/><path class="cls-4" d="M873.51,439.16h-1.67V427h1.67Z"/><path class="cls-4" d="M877.35,439.16h-1.54v-8.65h1.51v1.57a2.66,2.66,0,0,1,2.47-1.57h.67V432h-.69a2.06,2.06,0,0,0-1.76,1,4.41,4.41,0,0,0-.66,2.56Z"/><path class="cls-4" d="M888.7,437.87h.42v1.29h-.84a1.92,1.92,0,0,1-1.14-.33,1.19,1.19,0,0,1-.51-.9,3,3,0,0,1-2.74,1.44,3.25,3.25,0,0,1-2.18-.71,2.28,2.28,0,0,1-.83-1.82,2.43,2.43,0,0,1,.68-1.77,3.39,3.39,0,0,1,1.93-.9l2.53-.43a.58.58,0,0,0,.54-.62,1.46,1.46,0,0,0-.51-1.15,2.06,2.06,0,0,0-1.38-.44,2.26,2.26,0,0,0-1.4.39,2.08,2.08,0,0,0-.71,1.21L881.1,433a3,3,0,0,1,1.18-1.93,3.93,3.93,0,0,1,2.44-.74,3.46,3.46,0,0,1,2.45.83,2.88,2.88,0,0,1,.89,2.21v3.89a.69.69,0,0,0,.15.51A.65.65,0,0,0,888.7,437.87Zm-6.3-1.14a1.27,1.27,0,0,0,.44,1,1.83,1.83,0,0,0,1.23.38,2.33,2.33,0,0,0,1.8-.79,3,3,0,0,0,.71-2v-.49l-2.78.48a1.78,1.78,0,0,0-1,.48A1.31,1.31,0,0,0,882.4,436.73Z"/><path class="cls-4" d="M897.64,433.55v5.61H896.1v-5.33a2.31,2.31,0,0,0-.52-1.63,2,2,0,0,0-1.52-.57,2.1,2.1,0,0,0-1.72.7,3.08,3.08,0,0,0-.6,2.05v4.78h-1.53v-8.65h1.5v1.09a3,3,0,0,1,2.7-1.31,3.19,3.19,0,0,1,2.37.88A3.26,3.26,0,0,1,897.64,433.55Z"/><path class="cls-4" d="M753.09,455.31H746.3v-9.9H753v1.16h-5.3v3.14h4.73v1.14h-4.73v3.3h5.43Z"/><path class="cls-4" d="M758,455.48a4.32,4.32,0,0,1-2.84-.86,3,3,0,0,1-1.07-2.36l1.33-.17a2.27,2.27,0,0,0,.71,1.69,2.76,2.76,0,0,0,1.87.59,2.26,2.26,0,0,0,1.53-.48,1.6,1.6,0,0,0,.57-1.29,1.29,1.29,0,0,0-.4-1,3,3,0,0,0-1.36-.57l-1.31-.28a3.83,3.83,0,0,1-2-1,2.62,2.62,0,0,1,.27-3.72,3.53,3.53,0,0,1,2.4-.79,3.8,3.8,0,0,1,2.49.76,3,3,0,0,1,1.06,2.11l-1.34.17a2,2,0,0,0-2.21-1.92,2.25,2.25,0,0,0-1.46.42,1.58,1.58,0,0,0-.15,2.19,2.43,2.43,0,0,0,1.23.56l1.54.33a3.78,3.78,0,0,1,2,.93,2.36,2.36,0,0,1,.63,1.73,2.72,2.72,0,0,1-.95,2.12A3.65,3.65,0,0,1,758,455.48Z"/><path class="cls-4" d="M761.84,445.41h7.51v1.16h-3.08v8.74h-1.34v-8.74h-3.09Z"/><path class="cls-4" d="M777.64,448a1.55,1.55,0,0,0-.47-1.19,1.76,1.76,0,0,0-1.25-.44,1.93,1.93,0,0,0-1.6.68,3.09,3.09,0,0,0-.51,2l-1.29-.17a3.31,3.31,0,0,1,.85-2.67,3.36,3.36,0,0,1,2.55-1,3.15,3.15,0,0,1,2.25.77,2.66,2.66,0,0,1,.83,2,3.48,3.48,0,0,1-.5,1.78,8.51,8.51,0,0,1-1.63,1.93l-2.64,2.43h5v1.13h-6.78v-1.16l3.56-3.26a6.45,6.45,0,0,0,1.24-1.46A2.8,2.8,0,0,0,777.64,448Z"/><path class="cls-4" d="M780.38,450.36a6.38,6.38,0,0,1,1-3.74,3.41,3.41,0,0,1,5.46,0,6.25,6.25,0,0,1,1,3.74,6.35,6.35,0,0,1-1,3.75,3.43,3.43,0,0,1-5.47,0A6.43,6.43,0,0,1,780.38,450.36Zm5.46,2.95a7.3,7.3,0,0,0,0-5.89,1.94,1.94,0,0,0-1.76-1,1.91,1.91,0,0,0-1.73,1.06,5.73,5.73,0,0,0-.63,2.92,6,6,0,0,0,.61,3,2,2,0,0,0,3.51,0Z"/><path class="cls-4" d="M795.21,455.31h-6.14v-1.13h2.42v-6.36a2.14,2.14,0,0,1-1.14.27H789V447h1.24a1.17,1.17,0,0,0,1-.37,1.91,1.91,0,0,0,.31-1.19h1.3v8.77h2.38Z"/><path class="cls-4" d="M801.48,452.41a1.56,1.56,0,0,0-.51-1.24,2.17,2.17,0,0,0-1.45-.44h-.89v-1h.85a1.61,1.61,0,0,0,1.24-.47,1.85,1.85,0,0,0,.44-1.31,1.44,1.44,0,0,0-.48-1.14,2,2,0,0,0-1.3-.41,2.05,2.05,0,0,0-1.49.54,2.2,2.2,0,0,0-.6,1.52l-1.23-.27a2.68,2.68,0,0,1,1-2.1,3.55,3.55,0,0,1,2.39-.81,3.35,3.35,0,0,1,2.25.71,2.36,2.36,0,0,1,.83,1.89,2.63,2.63,0,0,1-.36,1.38,2.32,2.32,0,0,1-1,.91,2.52,2.52,0,0,1,1.27.87,2.35,2.35,0,0,1,.44,1.42,2.87,2.87,0,0,1-.92,2.22,3.52,3.52,0,0,1-2.47.83,4.21,4.21,0,0,1-2.55-.73,2.71,2.71,0,0,1-1.1-2l1.34-.29a2,2,0,0,0,.67,1.43,2.34,2.34,0,0,0,1.59.51,2.21,2.21,0,0,0,1.54-.52A1.89,1.89,0,0,0,801.48,452.41Z"/><rect class="cls-4" x="615" y="215.03" width="4.04" height="48.46"/><rect class="cls-4" x="617.02" y="233.2" width="14.13" height="4.04"/><rect class="cls-4" x="614.78" y="227.78" width="15.33" height="4.04" transform="translate(19.82 507.44) rotate(-45)"/><rect class="cls-4" x="608.95" y="247.34" width="6.94" height="4.04"/><path class="cls-4" d="M619,257.43v-4a4,4,0,1,0,0-8.07v-4a8.08,8.08,0,1,1,0,16.15Z"/><path class="cls-4" d="M625.1,221.09h-4a4,4,0,1,0-8.08,0h-4a8.08,8.08,0,1,1,16.15,0Z"/><path class="cls-4" d="M715.83,398.78h-4a24.17,24.17,0,1,0-48.33,0h-4a28.21,28.21,0,1,1,56.41,0Z"/><rect class="cls-4" x="632.05" y="299.84" width="62.82" height="4.04" transform="translate(-19.12 557.55) rotate(-45)"/><path class="cls-4" d="M800.77,402.81H639.23V298.65l-8.07,8.08V318H615V261.47h40.39a38.41,38.41,0,0,1,38.36,38.37v10.09H762.4a38.41,38.41,0,0,1,38.37,38.37Zm-157.5-4H796.73V348.3A34.37,34.37,0,0,0,762.4,314H689.71V299.84a34.37,34.37,0,0,0-34.32-34.33H619V314h8.08v-8.91l22.8-22.81,2.86,2.86-9.51,9.5Z"/><polygon class="cls-4" points="798.75 390.7 758.36 390.7 758.36 311.95 762.4 311.95 762.4 386.66 798.75 386.66 798.75 390.7"/><path class="cls-4" d="M718,366.47a28.3,28.3,0,0,1-28.27-28.27V309.93h56.54V338.2A28.3,28.3,0,0,1,718,366.47ZM693.75,314V338.2a24.23,24.23,0,1,0,48.46,0V314Z"/><path class="cls-4" d="M633.18,279.64H615V261.47h18.18Zm-14.14-4h10.1v-10.1H619Z"/><polygon class="cls-4" points="568.57 372.52 550.34 372.52 563.22 352.33 552.41 352.33 552.41 348.3 570.59 348.3 557.71 368.49 568.57 368.49 568.57 372.52"/><polygon class="cls-4" points="590.77 372.52 574.67 372.52 574.62 348.3 590.77 348.3 590.77 352.33 578.66 352.33 578.7 368.49 590.77 368.49 590.77 372.52"/><rect class="cls-4" x="576.64" y="358.39" width="14.13" height="4.04"/><polygon class="cls-4" points="612.99 372.52 596.83 372.52 596.83 348.3 612.99 348.3 612.99 352.33 600.87 352.33 600.87 368.49 612.99 368.49 612.99 372.52"/><rect class="cls-4" x="598.85" y="358.39" width="14.13" height="4.04"/><polygon class="cls-4" points="590.77 402.81 574.62 402.81 574.62 378.58 590.77 378.58 590.77 382.62 578.66 382.62 578.66 398.77 590.77 398.77 590.77 402.81"/><rect class="cls-4" x="576.64" y="388.68" width="14.13" height="4.04"/><polygon class="cls-4" points="615 402.81 611.14 402.81 600.87 386.45 600.87 402.81 596.83 402.81 596.83 378.58 600.7 378.58 610.97 394.94 610.97 378.58 615 378.58 615 402.81"/><path class="cls-4" d="M661.45,469.45a22.24,22.24,0,0,1-22.21-22.22V427h4v20.19a18.18,18.18,0,1,0,36.35,0V427h4v20.19A22.25,22.25,0,0,1,661.45,469.45Z"/><polygon class="cls-4" points="707.12 468.85 704.27 466 720 450.26 720 439.16 724.04 439.16 724.04 451.94 707.12 468.85"/><rect class="cls-4" x="659.43" y="427.04" width="4.04" height="8.08"/><rect class="cls-4" x="720" y="427.04" width="4.04" height="8.08"/><rect class="cls-4" x="679.62" y="473.48" width="4.04" height="8.08"/><rect class="cls-4" x="687.7" y="473.48" width="4.04" height="8.08"/><polygon class="cls-4" points="683.07 447.48 680.21 444.62 689.72 435.12 689.72 427.04 693.75 427.04 693.75 436.79 683.07 447.48"/><polygon class="cls-4" points="683.07 459.59 680.21 456.74 697.79 439.16 697.79 427.04 701.83 427.04 701.83 440.83 683.07 459.59"/><polygon class="cls-4" points="685.33 469.45 679.62 469.45 679.62 427.04 683.66 427.04 683.66 465.41 705.87 443.2 705.87 427.04 709.91 427.04 709.91 444.87 685.33 469.45"/><path class="cls-4" d="M223.42,695.81l7.53,6.11v-6.29h1.57v8.56h-1.41L223.5,698v5.82h-1.58v-8.05Z"/><path class="cls-4" d="M231.25,689.05a2.5,2.5,0,0,0-2.14-2.69l.34-1.74a3.85,3.85,0,0,1,2.44,1.5,4.79,4.79,0,0,1,.89,2.93,4.94,4.94,0,0,1-1.44,3.81,5.83,5.83,0,0,1-4.12,1.33,5.71,5.71,0,0,1-4-1.38,4.71,4.71,0,0,1-1.54-3.71,4.4,4.4,0,0,1,1.37-3.42,5.32,5.32,0,0,1,3.73-1.24h.91v7.84Q231.26,692.13,231.25,689.05Zm-8.07.1a2.87,2.87,0,0,0,.78,2.12,3.73,3.73,0,0,0,2.31,1v-5.86C224.21,686.49,223.18,687.41,223.18,689.15Z"/><path class="cls-4" d="M231.25,677.5a2.49,2.49,0,0,0-2.14-2.69l.34-1.74a3.85,3.85,0,0,1,2.44,1.5,4.77,4.77,0,0,1,.89,2.93,4.94,4.94,0,0,1-1.44,3.81,5.88,5.88,0,0,1-4.12,1.33,5.71,5.71,0,0,1-4-1.38,4.73,4.73,0,0,1-1.54-3.72,4.36,4.36,0,0,1,1.37-3.41,5.32,5.32,0,0,1,3.73-1.25h.91v7.85Q231.26,680.58,231.25,677.5Zm-8.07.09a2.91,2.91,0,0,0,.78,2.13,3.79,3.79,0,0,0,2.31,1v-5.86Q223.18,675,223.18,677.59Z"/><path class="cls-4" d="M231.25,666a2.49,2.49,0,0,0-2.14-2.69l.34-1.74a3.88,3.88,0,0,1,2.44,1.49,4.82,4.82,0,0,1,.89,2.94,4.9,4.9,0,0,1-1.44,3.8,5.83,5.83,0,0,1-4.12,1.33,5.75,5.75,0,0,1-4-1.37,4.73,4.73,0,0,1-1.54-3.72,4.4,4.4,0,0,1,1.37-3.42,5.37,5.37,0,0,1,3.73-1.24h.91v7.85C230.06,669.07,231.25,668,231.25,666Zm-8.07.09a2.91,2.91,0,0,0,.78,2.13,3.79,3.79,0,0,0,2.31,1v-5.86Q223.18,663.43,223.18,666Z"/><path class="cls-4" d="M225.65,649.74h6.87v1.88H226a2.82,2.82,0,0,0-2,.65,2.39,2.39,0,0,0-.7,1.86,2.63,2.63,0,0,0,.86,2.11,3.81,3.81,0,0,0,2.51.72h5.85v1.89h-10.6V657h1.34a3.72,3.72,0,0,1-1.6-3.3,3.9,3.9,0,0,1,1.08-2.91A4,4,0,0,1,225.65,649.74Z"/><path class="cls-4" d="M230.13,646.92v-2.33h2.39v2.33Z"/><path class="cls-4" d="M220.2,639.76v1.88h-2.52v-1.88Zm12.32,0v1.88h-10.6v-1.88Z"/><path class="cls-4" d="M232.52,634.74v1.88h-10.6v-1.84h1.93a3.27,3.27,0,0,1-1.93-3v-.81h1.78v.84a2.51,2.51,0,0,0,1.17,2.16,5.39,5.39,0,0,0,3.14.81Z"/><path class="cls-4" d="M251.09,694.21H258v1.88h-6.53a2.84,2.84,0,0,0-2,.65,2.39,2.39,0,0,0-.7,1.86,2.62,2.62,0,0,0,.86,2.11,3.83,3.83,0,0,0,2.52.72H258v1.89H243.12v-1.89h5.54a3.67,3.67,0,0,1-1.55-3.26,3.86,3.86,0,0,1,1.07-2.9A3.93,3.93,0,0,1,251.09,694.21Z"/><path class="cls-4" d="M256.69,686.75a2.51,2.51,0,0,0-2.14-2.7l.34-1.74a3.85,3.85,0,0,1,2.44,1.5,4.82,4.82,0,0,1,.89,2.94,4.93,4.93,0,0,1-1.44,3.8,5.82,5.82,0,0,1-4.12,1.33,5.71,5.71,0,0,1-4-1.38,4.73,4.73,0,0,1-1.53-3.71,4.39,4.39,0,0,1,1.36-3.42,5.32,5.32,0,0,1,3.73-1.24h.91V690C255.5,689.87,256.69,688.8,256.69,686.75Zm-8.07.09a2.91,2.91,0,0,0,.78,2.13,3.79,3.79,0,0,0,2.31,1v-5.86C249.65,684.18,248.62,685.1,248.62,686.84Z"/><path class="cls-4" d="M258,677.76v1.88H243.12v-1.88Z"/><path class="cls-4" d="M258,672.74v1.88H243.12v-1.88Z"/><path class="cls-4" d="M252.66,670.29a5.7,5.7,0,0,1-4-1.4,4.86,4.86,0,0,1-1.53-3.76,4.94,4.94,0,0,1,1.53-3.77,5.67,5.67,0,0,1,4-1.42,5.75,5.75,0,0,1,4,1.42,4.94,4.94,0,0,1,1.53,3.77,4.86,4.86,0,0,1-1.53,3.76A5.73,5.73,0,0,1,252.66,670.29Zm2.91-7.55a5.29,5.29,0,0,0-5.81,0,2.92,2.92,0,0,0-1.06,2.39,2.87,2.87,0,0,0,1.06,2.37,5.36,5.36,0,0,0,5.81,0,2.89,2.89,0,0,0,1.06-2.38A2.92,2.92,0,0,0,255.57,662.74Z"/><path class="cls-4" d="M256.84,650.25a3.32,3.32,0,0,1-1,2.56,3.85,3.85,0,0,1-2.73,1A6.44,6.44,0,0,1,249,652.5a4.11,4.11,0,0,1-1.66-3.34,3.31,3.31,0,0,1,.45-1.73,2.93,2.93,0,0,1,1.27-1.14l-1.51-.32v-1.78l5.92,1.19a2.1,2.1,0,0,0,1.51-.1,1.31,1.31,0,0,0,.48-1.2,2.08,2.08,0,0,0-1.24-1.82,6.72,6.72,0,0,0-3.34-.7,6.51,6.51,0,0,0-2.62.56,6.07,6.07,0,0,0-2.19,1.54,7,7,0,0,0-1.7,5,7.27,7.27,0,0,0,2.29,5.54,7.69,7.69,0,0,0,2.57,1.64,8.16,8.16,0,0,0,3,.58,7.49,7.49,0,0,0,5.4-2,6.79,6.79,0,0,0,2.11-5.15,10,10,0,0,0-.31-2.53,11.19,11.19,0,0,0-1.07-2.52l1.27-.65a12.27,12.27,0,0,1,1.24,2.85,10.9,10.9,0,0,1,.37,2.85,8.64,8.64,0,0,1-2.54,6.42,8.74,8.74,0,0,1-6.41,2.5,9.45,9.45,0,0,1-3.63-.73,9.33,9.33,0,0,1-3.11-2,9.87,9.87,0,0,1-.44-13.09,7.3,7.3,0,0,1,5.68-2.5,7.15,7.15,0,0,1,4.41,1.21,3.78,3.78,0,0,1,1.61,3.18,3.55,3.55,0,0,1-.45,1.83,2.1,2.1,0,0,1-1.2,1A3.75,3.75,0,0,1,256.84,650.25Zm-3.92,1.68a2.59,2.59,0,0,0,1.77-.55,1.91,1.91,0,0,0,.64-1.53,2.53,2.53,0,0,0-1.19-2.14,4.55,4.55,0,0,0-2.75-.87,2.7,2.7,0,0,0-1.84.6,2.06,2.06,0,0,0-.68,1.62,2.36,2.36,0,0,0,1.23,2.06A5,5,0,0,0,252.92,651.93Z"/><path class="cls-4" d="M248.87,629.74l7.52,6.1v-6.29H258v8.56h-1.41L248.94,632v5.82h-1.58v-8Z"/><path class="cls-4" d="M256.69,623a2.49,2.49,0,0,0-2.14-2.69l.34-1.74a3.84,3.84,0,0,1,2.44,1.49,4.82,4.82,0,0,1,.89,2.94,4.92,4.92,0,0,1-1.44,3.8,5.82,5.82,0,0,1-4.12,1.33,5.71,5.71,0,0,1-4-1.38,4.73,4.73,0,0,1-1.53-3.71,4.39,4.39,0,0,1,1.36-3.42,5.32,5.32,0,0,1,3.73-1.24h.91v7.85C255.5,626.1,256.69,625,256.69,623Zm-8.07.09a2.91,2.91,0,0,0,.78,2.13,3.79,3.79,0,0,0,2.31,1v-5.86Q248.62,620.46,248.62,623.07Z"/><path class="cls-4" d="M256.69,611.42a2.5,2.5,0,0,0-2.14-2.69l.34-1.74a3.85,3.85,0,0,1,2.44,1.5,4.79,4.79,0,0,1,.89,2.93,4.94,4.94,0,0,1-1.44,3.81,5.82,5.82,0,0,1-4.12,1.33,5.71,5.71,0,0,1-4-1.38,4.75,4.75,0,0,1-1.53-3.71,4.39,4.39,0,0,1,1.36-3.42,5.32,5.32,0,0,1,3.73-1.24h.91v7.84Q256.7,614.5,256.69,611.42Zm-8.07.1a2.87,2.87,0,0,0,.78,2.12,3.79,3.79,0,0,0,2.31,1v-5.86C249.65,608.86,248.62,609.78,248.62,611.52Z"/><path class="cls-4" d="M256.69,599.87a2.49,2.49,0,0,0-2.14-2.69l.34-1.74a3.85,3.85,0,0,1,2.44,1.5,4.77,4.77,0,0,1,.89,2.93,4.94,4.94,0,0,1-1.44,3.81,5.86,5.86,0,0,1-4.12,1.33,5.71,5.71,0,0,1-4-1.38,4.76,4.76,0,0,1-1.53-3.72,4.36,4.36,0,0,1,1.36-3.41,5.32,5.32,0,0,1,3.73-1.25h.91v7.85Q256.7,603,256.69,599.87Zm-8.07.09a2.91,2.91,0,0,0,.78,2.13,3.79,3.79,0,0,0,2.31,1V597.2Q248.62,597.35,248.62,600Z"/><path class="cls-4" d="M251.09,583.66H258v1.88h-6.53a2.84,2.84,0,0,0-2,.65,2.39,2.39,0,0,0-.7,1.86,2.62,2.62,0,0,0,.86,2.11,3.83,3.83,0,0,0,2.52.73H258v1.88h-10.6v-1.84h1.34a3.74,3.74,0,0,1-1.59-3.31,3.86,3.86,0,0,1,1.07-2.9A3.93,3.93,0,0,1,251.09,583.66Z"/><path class="cls-4" d="M255.57,580.84v-2.33H258v2.33Z"/><path class="cls-4" d="M245.65,573.68v1.88h-2.53v-1.88Zm12.31,0v1.88h-10.6v-1.88Z"/><path class="cls-4" d="M258,568.66v1.88h-10.6V568.7h1.93a3.29,3.29,0,0,1-1.93-3v-.82h1.78v.84a2.51,2.51,0,0,0,1.17,2.16,5.41,5.41,0,0,0,3.14.81Z"/><line class="cls-5" y1="1801.89" x2="1440" y2="1801.89"/><line class="cls-6" y1="1659.6" x2="1440" y2="1659.6"/><line class="cls-7" y1="799.05" x2="1440" y2="799.05"/><line class="cls-8" y1="704.21" x2="1440" y2="704.21"/><line class="cls-9" y1="261.47" x2="1440" y2="261.47"/><line class="cls-10" y1="118.15" x2="1440" y2="118.15"/><line class="cls-11" x1="1218.09" x2="1218.09" y2="1920"/><line class="cls-12" x1="1312.96" x2="1312.96" y2="1920"/><line class="cls-13" x1="221.91" x2="221.91" y2="1920"/><line class="cls-14" x1="127.04" x2="127.04" y2="1920"/></g></svg>