<svg xmlns="http://www.w3.org/2000/svg" viewBox="0 0 1920 1080"><defs><style>.cls-1{fill:#b3b8b9;}.cls-2{fill:#fff;}.cls-3{fill:#222221;}.cls-4{fill:#ffec00;}.cls-5{fill:#f5cebc;}.cls-6{fill:#a9afb0;}.cls-7{fill:#cde5d9;}</style></defs><g id="Graphic"><rect class="cls-1" x="926.36" y="78.19" width="20.74" height="918.37"/><rect class="cls-1" x="274.62" y="78.19" width="651.74" height="918.37" transform="translate(1200.98 1074.75) rotate(-180)"/><path class="cls-1" d="M274.62,344.82H926.36a0,0,0,0,1,0,0V670.69A325.87,325.87,0,0,1,600.49,996.56h0A325.87,325.87,0,0,1,274.62,670.69V344.82A0,0,0,0,1,274.62,344.82Z" transform="translate(1200.98 1341.38) rotate(180)"/><polygon class="cls-2" points="833.46 932.49 604.96 932.49 604.96 790.61 628.83 766.81 864.01 766.81 864.01 901.9 833.46 932.49"/><path class="cls-3" d="M763.05,793h-1v-6.33h4.46v.91h-3.41v1.84h3.05v.91h-3.05Z"/><path class="cls-3" d="M770.07,788.5h1V793h-.95v-.54a1.52,1.52,0,0,1-1.33.65,1.57,1.57,0,0,1-1.2-.47,1.71,1.71,0,0,1-.45-1.25V788.5h1v2.77a1.15,1.15,0,0,0,.23.76.85.85,0,0,0,.67.27.92.92,0,0,0,.77-.33,1.42,1.42,0,0,0,.27-.94Z"/><path class="cls-3" d="M773.29,793h-1v-6.33h1Z"/><path class="cls-3" d="M775.5,793h-1v-6.33h1Z"/><path class="cls-3" d="M779.83,793h-1v-6.33H780l2.81,4.46v-4.46h1V793h-.92l-3.07-4.84Z"/><path class="cls-3" d="M789.05,792.22h.2V793h-.5a1.12,1.12,0,0,1-.62-.16.66.66,0,0,1-.3-.44,1.58,1.58,0,0,1-1.41.71,1.73,1.73,0,0,1-1.15-.37,1.23,1.23,0,0,1-.43-1,1.29,1.29,0,0,1,.35-.93,1.8,1.8,0,0,1,1-.47l1.27-.22a.28.28,0,0,0,.27-.31.65.65,0,0,0-.23-.52,1,1,0,0,0-.64-.2.9.9,0,0,0-1,.76l-.94-.11a1.58,1.58,0,0,1,.64-1,2.19,2.19,0,0,1,1.33-.4,1.9,1.9,0,0,1,1.33.44,1.57,1.57,0,0,1,.48,1.2v1.85a.35.35,0,0,0,.08.27A.33.33,0,0,0,789.05,792.22Zm-3.24-.49a.59.59,0,0,0,.2.47.91.91,0,0,0,.58.17,1.11,1.11,0,0,0,.85-.36,1.32,1.32,0,0,0,.33-.93v-.23l-1.29.22a1,1,0,0,0-.5.22A.62.62,0,0,0,785.81,791.73Z"/><path class="cls-3" d="M793.88,790.5V793h-1v-2.78a1.1,1.1,0,0,0-.23-.76.8.8,0,0,0-.65-.27,1,1,0,0,0-.76.32,1.54,1.54,0,0,0-.25,1V793h-1V788.5h1V789a1.5,1.5,0,0,1,1.3-.64,1.71,1.71,0,0,1,.86.21,1.34,1.34,0,0,1,.55.58,1.52,1.52,0,0,1,1.43-.79,1.63,1.63,0,0,1,1.23.47,1.75,1.75,0,0,1,.44,1.25V793h-1v-2.78a1.15,1.15,0,0,0-.23-.76.81.81,0,0,0-.66-.27.92.92,0,0,0-.75.32A1.54,1.54,0,0,0,793.88,790.5Z"/><path class="cls-3" d="M799.91,792.35a1.1,1.1,0,0,0,.68-.19,1,1,0,0,0,.37-.59l.89.18a1.71,1.71,0,0,1-.67,1,2.1,2.1,0,0,1-1.27.37,2.16,2.16,0,0,1-1.66-.62,2.47,2.47,0,0,1-.58-1.77,2.41,2.41,0,0,1,.6-1.71,2.1,2.1,0,0,1,1.61-.67,2,2,0,0,1,1.52.61,2.3,2.3,0,0,1,.55,1.63V791h-3.3C798.71,791.9,799.13,792.35,799.91,792.35Zm0-3.18c-.69,0-1.09.39-1.2,1.16h2.27C800.88,789.56,800.52,789.17,799.87,789.17Z"/><path class="cls-3" d="M806.58,792.76a1.87,1.87,0,0,1-1.44-.59,2.29,2.29,0,0,1-.52-1.59,2.37,2.37,0,0,1,.53-1.59,1.84,1.84,0,0,1,1.43-.61A1.63,1.63,0,0,1,808,789v-.52h1v4.3a2,2,0,0,1-.56,1.48,2.14,2.14,0,0,1-1.56.54,2.45,2.45,0,0,1-1.48-.41,1.53,1.53,0,0,1-.63-1.12l1-.11a1,1,0,0,0,.36.63,1.33,1.33,0,0,0,.77.19,1.06,1.06,0,0,0,.83-.31,1.34,1.34,0,0,0,.28-.91v-.66A1.61,1.61,0,0,1,806.58,792.76Zm-.64-3.19a1.82,1.82,0,0,0,0,2,1.07,1.07,0,0,0,.86.36,1,1,0,0,0,.83-.37,1.49,1.49,0,0,0,.32-1,1.45,1.45,0,0,0-.32-1,1,1,0,0,0-.83-.38A1.1,1.1,0,0,0,805.94,789.57Z"/><path class="cls-3" d="M809.85,790.77a2.43,2.43,0,0,1,.61-1.72,2.37,2.37,0,0,1,3.3,0,2.4,2.4,0,0,1,.61,1.72,2.44,2.44,0,0,1-.62,1.72,2.39,2.39,0,0,1-3.29,0A2.42,2.42,0,0,1,809.85,790.77Zm3.51,0a1.81,1.81,0,0,0-.33-1.15,1.11,1.11,0,0,0-.93-.42,1.09,1.09,0,0,0-.91.42,1.81,1.81,0,0,0-.33,1.15,1.76,1.76,0,0,0,.33,1.14,1.08,1.08,0,0,0,.91.41,1.11,1.11,0,0,0,.93-.41A1.76,1.76,0,0,0,813.36,790.77Z"/><path class="cls-3" d="M817.29,792.35a1.1,1.1,0,0,0,.68-.19,1.08,1.08,0,0,0,.37-.59l.89.18a1.75,1.75,0,0,1-.67,1,2.1,2.1,0,0,1-1.27.37,2.2,2.2,0,0,1-1.67-.62,2.51,2.51,0,0,1-.58-1.77,2.42,2.42,0,0,1,.61-1.71,2.1,2.1,0,0,1,1.61-.67,2,2,0,0,1,1.51.61,2.3,2.3,0,0,1,.56,1.63V791H816C816.09,791.9,816.51,792.35,817.29,792.35Zm0-3.18c-.69,0-1.09.39-1.2,1.16h2.26C818.25,789.56,817.9,789.17,817.25,789.17Z"/><path class="cls-3" d="M822,793.15a2.34,2.34,0,0,1-1.44-.4,1.44,1.44,0,0,1-.58-1.09l1-.12a1,1,0,0,0,.31.64,1.1,1.1,0,0,0,.72.21,1,1,0,0,0,.64-.17.57.57,0,0,0,.22-.49c0-.3-.23-.48-.7-.55l-.67-.12a1.9,1.9,0,0,1-1-.45,1.16,1.16,0,0,1-.35-.86,1.2,1.2,0,0,1,.49-1,2,2,0,0,1,1.29-.39,2.07,2.07,0,0,1,1.28.36,1.61,1.61,0,0,1,.58,1l-.91.11a1,1,0,0,0-.32-.58,1,1,0,0,0-.64-.19,1,1,0,0,0-.6.15.46.46,0,0,0-.21.4.45.45,0,0,0,.14.35,1,1,0,0,0,.48.19l.75.14c.92.17,1.38.6,1.38,1.31a1.32,1.32,0,0,1-.49,1.08A2,2,0,0,1,822,793.15Z"/><path class="cls-3" d="M830.73,790.1V793h-1v-2.78a1.06,1.06,0,0,0-.25-.76.9.9,0,0,0-.7-.27,1,1,0,0,0-.81.32,1.47,1.47,0,0,0-.28,1V793h-1v-6.33h1V789a1.61,1.61,0,0,1,1.34-.61,1.68,1.68,0,0,1,1.25.47A1.71,1.71,0,0,1,830.73,790.1Z"/><path class="cls-3" d="M833.87,792.35a1.13,1.13,0,0,0,.69-.19,1.06,1.06,0,0,0,.36-.59l.89.18a1.71,1.71,0,0,1-.67,1,2.08,2.08,0,0,1-1.27.37,2.18,2.18,0,0,1-1.66-.62,2.47,2.47,0,0,1-.58-1.77,2.41,2.41,0,0,1,.6-1.71,2.11,2.11,0,0,1,1.61-.67,2,2,0,0,1,1.52.61,2.3,2.3,0,0,1,.55,1.63V791h-3.3C832.67,791.9,833.09,792.35,833.87,792.35Zm0-3.18c-.69,0-1.09.39-1.2,1.16h2.27C834.84,789.56,834.48,789.17,833.83,789.17Z"/><path class="cls-3" d="M837.86,793h-1V788.5h1v.75a1.37,1.37,0,0,1,1.25-.75h.38v.92H839a1,1,0,0,0-.87.43,2.12,2.12,0,0,0-.31,1.25Z"/><path class="cls-3" d="M842.08,792.35a1.11,1.11,0,0,0,.69-.19,1.14,1.14,0,0,0,.37-.59l.88.18a1.69,1.69,0,0,1-.66,1,2.13,2.13,0,0,1-1.28.37,2.18,2.18,0,0,1-1.66-.62,2.51,2.51,0,0,1-.58-1.77,2.37,2.37,0,0,1,.61-1.71,2.08,2.08,0,0,1,1.61-.67,2,2,0,0,1,1.51.61,2.3,2.3,0,0,1,.55,1.63V791h-3.29C840.89,791.9,841.31,792.35,842.08,792.35Zm0-3.18c-.69,0-1.09.39-1.21,1.16h2.27C843.05,789.56,842.69,789.17,842.05,789.17Z"/><path class="cls-3" d="M762.77,803.24h-.65v-6.32h2.32a2.2,2.2,0,0,1,1.56.55,1.78,1.78,0,0,1,.61,1.39,2,2,0,0,1-.61,1.49,2.13,2.13,0,0,1-1.56.61h-1.67Zm3.16-4.38a1.27,1.27,0,0,0-.43-1,1.52,1.52,0,0,0-1.1-.39h-1.63v2.91h1.63a1.44,1.44,0,0,0,1.1-.44A1.45,1.45,0,0,0,765.93,798.86Z"/><path class="cls-3" d="M767.25,801a2.45,2.45,0,0,1,.58-1.71,2.2,2.2,0,0,1,3.12,0,2.77,2.77,0,0,1,0,3.42,2.22,2.22,0,0,1-3.12,0A2.45,2.45,0,0,1,767.25,801Zm3.25,1.33a2.36,2.36,0,0,0,0-2.66,1.47,1.47,0,0,0-2.21,0,2.36,2.36,0,0,0,0,2.66,1.36,1.36,0,0,0,1.1.49A1.38,1.38,0,0,0,770.5,802.33Z"/><path class="cls-3" d="M774.2,803.35a2.1,2.1,0,0,1-1.34-.41,1.39,1.39,0,0,1-.54-1.08l.6-.11a1.27,1.27,0,0,0,.38.82,1.34,1.34,0,0,0,.9.26,1.23,1.23,0,0,0,.8-.22.79.79,0,0,0,.27-.65c0-.39-.3-.64-.9-.74l-.62-.09c-.86-.15-1.3-.56-1.3-1.23a1.08,1.08,0,0,1,.45-.9,2.11,2.11,0,0,1,2.36,0,1.57,1.57,0,0,1,.56,1l-.56.09a1.29,1.29,0,0,0-.41-.74,1.21,1.21,0,0,0-.78-.22,1.26,1.26,0,0,0-.75.19.62.62,0,0,0-.27.52.58.58,0,0,0,.19.47,1,1,0,0,0,.59.24l.71.11c.9.15,1.34.57,1.34,1.27a1.28,1.28,0,0,1-.45,1A1.86,1.86,0,0,1,774.2,803.35Z"/><path class="cls-3" d="M777.61,798H777v-1h.61Zm0,5.29H777v-4.49h.61Z"/><path class="cls-3" d="M778.5,799.27v-.52h.82v-1.48h.62v1.48h1.22v.52h-1.22V802a.91.91,0,0,0,.14.57.63.63,0,0,0,.48.16h.72v.53h-.79a1.06,1.06,0,0,1-1.17-1.17v-2.8Z"/><path class="cls-3" d="M782.77,798h-.61v-1h.61Zm0,5.29h-.61v-4.49h.61Z"/><path class="cls-3" d="M783.91,801a2.45,2.45,0,0,1,.58-1.71,2.2,2.2,0,0,1,3.12,0,2.77,2.77,0,0,1,0,3.42,2.22,2.22,0,0,1-3.12,0A2.45,2.45,0,0,1,783.91,801Zm3.25,1.33a2.36,2.36,0,0,0,0-2.66,1.47,1.47,0,0,0-2.21,0,2.36,2.36,0,0,0,0,2.66,1.36,1.36,0,0,0,1.1.49A1.38,1.38,0,0,0,787.16,802.33Z"/><path class="cls-3" d="M793.08,800.33v2.91h-.62v-2.79a1.36,1.36,0,0,0-.3-.94,1.15,1.15,0,0,0-.87-.33,1.24,1.24,0,0,0-1,.41,1.84,1.84,0,0,0-.34,1.2v2.45h-.61v-4.49H790v.6a1.6,1.6,0,0,1,1.44-.71,1.57,1.57,0,0,1,1.69,1.69Z"/><path class="cls-3" d="M634.78,910.64v.56l-4.23,1.39V912l3.44-1.09-3.44-1v-.55l3.43-1-3.43-1.08v-.58l4.23,1.4v.55l-3.41,1.05Z"/><path class="cls-3" d="M634.78,904.27v.56l-4.23,1.4v-.6l3.44-1.09-3.44-1V903l3.43-1-3.43-1.08v-.59l4.23,1.41v.55l-3.41,1Z"/><path class="cls-3" d="M634.78,897.91v.56l-4.23,1.39v-.59l3.44-1.09-3.44-1v-.55l3.43-1-3.43-1.09v-.58l4.23,1.4v.55l-3.41,1Z"/><path class="cls-3" d="M634,893.47v-.79h.83v.79Z"/><path class="cls-3" d="M631.05,888.49l3.24,2.64v-2.71h.49v3.38h-.46L631,889.13v2.53h-.49v-3.17Z"/><path class="cls-3" d="M634.4,885.78a1.08,1.08,0,0,0-1-1.17l.09-.55a1.42,1.42,0,0,1,1,.55,1.84,1.84,0,0,1,.37,1.17,1.9,1.9,0,0,1-.57,1.49,2.4,2.4,0,0,1-1.65.51,2.37,2.37,0,0,1-1.61-.53,1.86,1.86,0,0,1-.6-1.45,1.72,1.72,0,0,1,.52-1.33,2.09,2.09,0,0,1,1.46-.47h.36v3.18C633.87,887.15,634.4,886.68,634.4,885.78Zm-3.48,0a1.24,1.24,0,0,0,.36.94,1.69,1.69,0,0,0,1,.42v-2.56C631.39,884.65,630.92,885.05,630.92,885.81Z"/><path class="cls-3" d="M634.4,881.19a1.08,1.08,0,0,0-1-1.17l.09-.55a1.43,1.43,0,0,1,1,.56,1.79,1.79,0,0,1,.37,1.16,1.9,1.9,0,0,1-.57,1.49,2.4,2.4,0,0,1-1.65.51,2.32,2.32,0,0,1-1.61-.53,1.85,1.85,0,0,1-.6-1.45,1.74,1.74,0,0,1,.52-1.33,2.13,2.13,0,0,1,1.46-.47h.36v3.19C633.87,882.56,634.4,882.1,634.4,881.19Zm-3.48,0a1.24,1.24,0,0,0,.36.94,1.69,1.69,0,0,0,1,.42V880C631.39,880.06,630.92,880.46,630.92,881.22Z"/><path class="cls-3" d="M634.4,876.61a1.07,1.07,0,0,0-1-1.17l.09-.56a1.43,1.43,0,0,1,1,.56,1.82,1.82,0,0,1,.37,1.17,1.88,1.88,0,0,1-.57,1.48,2.35,2.35,0,0,1-1.65.52,2.32,2.32,0,0,1-1.61-.54,1.84,1.84,0,0,1-.6-1.44,1.75,1.75,0,0,1,.52-1.34,2.13,2.13,0,0,1,1.46-.47h.36V878C633.87,878,634.4,877.51,634.4,876.61Zm-3.48,0a1.27,1.27,0,0,0,.36.94,1.62,1.62,0,0,0,1,.41v-2.55C631.39,875.48,630.92,875.88,630.92,876.64Z"/><path class="cls-3" d="M632,870.22h2.74v.58h-2.63a1.22,1.22,0,0,0-.88.29,1,1,0,0,0-.31.81,1.16,1.16,0,0,0,.38.94,1.77,1.77,0,0,0,1.13.32h2.31v.58h-4.23v-.58h.56a1.5,1.5,0,0,1-.66-1.35,1.55,1.55,0,0,1,.43-1.17A1.57,1.57,0,0,1,632,870.22Z"/><path class="cls-3" d="M634,869v-.79h.83V869Z"/><path class="cls-3" d="M629.8,866.36v.58h-1v-.58Zm5,0v.58h-4.23v-.58Z"/><path class="cls-3" d="M634.78,864.43V865h-4.23v-.57h.83a1.35,1.35,0,0,1-.83-1.26v-.32h.56v.32a1,1,0,0,0,.52.91,2.37,2.37,0,0,0,1.35.35Z"/><path class="cls-3" d="M644.49,908.71v-.21H645v.34a.82.82,0,0,1-.18.54.56.56,0,0,1-.46.21h0a1.5,1.5,0,0,1,.77,1.38,1.55,1.55,0,0,1-.34,1.06,1.1,1.1,0,0,1-.89.4,1.18,1.18,0,0,1-.85-.33,1.72,1.72,0,0,1-.44-.94l-.23-1.29a.29.29,0,0,0-.32-.27.78.78,0,0,0-.63.28,1.12,1.12,0,0,0-.24.76,1,1,0,0,0,.86,1.13l-.07.55a1.47,1.47,0,0,1-.93-.56,1.85,1.85,0,0,1-.35-1.15,1.67,1.67,0,0,1,.4-1.16,1.36,1.36,0,0,1,1.05-.42h2.07a.26.26,0,0,0,.32-.32Zm-.67,3.14a.72.72,0,0,0,.57-.24,1,1,0,0,0,.21-.67,1.24,1.24,0,0,0-.43-1,1.67,1.67,0,0,0-1.12-.38h-.27l.26,1.51a1,1,0,0,0,.26.56A.74.74,0,0,0,643.82,911.85Z"/><path class="cls-3" d="M645,907.13v.58h-4.23v-.58h.83a1.35,1.35,0,0,1-.83-1.26v-.31h.56v.31a1.06,1.06,0,0,0,.52.91,2.43,2.43,0,0,0,1.36.35Z"/><path class="cls-3" d="M644.49,901.39v-.22H645v.35a.79.79,0,0,1-.18.53.54.54,0,0,1-.46.22h0a1.5,1.5,0,0,1,.77,1.38,1.57,1.57,0,0,1-.34,1.06,1.13,1.13,0,0,1-.89.4,1.18,1.18,0,0,1-.85-.33,1.76,1.76,0,0,1-.44-.95l-.23-1.28a.29.29,0,0,0-.32-.27.8.8,0,0,0-.63.27,1.14,1.14,0,0,0-.24.76,1,1,0,0,0,.86,1.14l-.07.55a1.51,1.51,0,0,1-.93-.56,1.87,1.87,0,0,1-.35-1.15,1.65,1.65,0,0,1,.4-1.16,1.36,1.36,0,0,1,1.05-.42h2.07a.39.39,0,0,0,.25-.07A.34.34,0,0,0,644.49,901.39Zm-.67,3.14a.72.72,0,0,0,.57-.24,1,1,0,0,0,.21-.67,1.24,1.24,0,0,0-.43-1,1.67,1.67,0,0,0-1.12-.38h-.27l.26,1.51a1,1,0,0,0,.26.55A.75.75,0,0,0,643.82,904.53Z"/><path class="cls-3" d="M645.08,899a1.91,1.91,0,0,1-.38,1.26,1.31,1.31,0,0,1-1,.51l-.1-.56a1.15,1.15,0,0,0,.77-.37,1.22,1.22,0,0,0,.25-.84,1.16,1.16,0,0,0-.21-.75.76.76,0,0,0-.62-.26c-.36,0-.59.29-.69.85l-.09.58c-.13.82-.52,1.23-1.16,1.23a1,1,0,0,1-.84-.43,1.68,1.68,0,0,1-.34-1.1A1.78,1.78,0,0,1,641,898a1.52,1.52,0,0,1,1-.53l.09.53a1.21,1.21,0,0,0-.69.39,1.14,1.14,0,0,0-.21.74,1.21,1.21,0,0,0,.18.7.58.58,0,0,0,.49.26.56.56,0,0,0,.44-.18,1,1,0,0,0,.22-.56l.11-.67c.14-.84.54-1.26,1.19-1.26a1.19,1.19,0,0,1,1,.42A1.75,1.75,0,0,1,645.08,899Z"/><path class="cls-3" d="M642.24,892.79H645v.59h-2.63a1.26,1.26,0,0,0-.88.28,1.06,1.06,0,0,0-.31.82,1.15,1.15,0,0,0,.39.94,1.73,1.73,0,0,0,1.13.32H645v.58h-6v-.58h2.28a1.51,1.51,0,0,1-.66-1.36,1.48,1.48,0,0,1,1.59-1.59Z"/><path class="cls-3" d="M644.47,888.62a1.36,1.36,0,0,1-.41,1,1.58,1.58,0,0,1-1.1.38,2.52,2.52,0,0,1-1.61-.51,1.63,1.63,0,0,1-.66-1.34,1.3,1.3,0,0,1,.19-.71,1.12,1.12,0,0,1,.54-.46l-.65-.14v-.58l2.35.47a.94.94,0,0,0,.67,0,.59.59,0,0,0,.21-.53.85.85,0,0,0-.51-.75,3,3,0,0,0-1.38-.28,2.81,2.81,0,0,0-2,.85,2.89,2.89,0,0,0-.7,2,2.94,2.94,0,0,0,.94,2.22,3.26,3.26,0,0,0,1,.67,3.21,3.21,0,0,0,1.21.23,3.06,3.06,0,0,0,2.19-.81,2.79,2.79,0,0,0,.85-2.09,4,4,0,0,0-.13-1,5.32,5.32,0,0,0-.44-1l.44-.24a4.84,4.84,0,0,1,.51,1.14,4.24,4.24,0,0,1,.15,1.14,3.38,3.38,0,0,1-1,2.52,3.48,3.48,0,0,1-2.53,1,3.76,3.76,0,0,1-1.42-.29,3.94,3.94,0,0,1-1.24-.8,3.54,3.54,0,0,1-1.08-2.65,3.5,3.5,0,0,1,.91-2.48,2.88,2.88,0,0,1,2.24-1,3,3,0,0,1,1.75.45,1.38,1.38,0,0,1,.64,1.21,1.34,1.34,0,0,1-.19.72.82.82,0,0,1-.49.38A1.54,1.54,0,0,1,644.47,888.62Zm-1.53.8a1.09,1.09,0,0,0,.75-.24.79.79,0,0,0,.28-.66,1.12,1.12,0,0,0-.51-.93,2,2,0,0,0-1.18-.37,1.16,1.16,0,0,0-.79.26.9.9,0,0,0-.3.71,1,1,0,0,0,.53.89A2.15,2.15,0,0,0,642.94,889.42Z"/><path class="cls-3" d="M641.25,880.52l3.24,2.64v-2.71H645v3.38h-.46l-3.28-2.67v2.53h-.49v-3.17Z"/><path class="cls-3" d="M644.61,877.81a1.09,1.09,0,0,0-1-1.17l.09-.55a1.46,1.46,0,0,1,1,.55,2.17,2.17,0,0,1-.21,2.66,2.4,2.4,0,0,1-1.65.51,2.32,2.32,0,0,1-1.6-.53,1.84,1.84,0,0,1-.61-1.45,1.72,1.72,0,0,1,.52-1.33,2.09,2.09,0,0,1,1.46-.48H643v3.19C644.07,879.18,644.61,878.71,644.61,877.81Zm-3.48,0a1.28,1.28,0,0,0,.35.94,1.71,1.71,0,0,0,1,.42v-2.56Q641.13,876.7,641.13,877.84Z"/><path class="cls-3" d="M644.61,873.22a1.09,1.09,0,0,0-1-1.17l.09-.55a1.47,1.47,0,0,1,1,.56,1.84,1.84,0,0,1,.36,1.16,1.9,1.9,0,0,1-.57,1.49,2.4,2.4,0,0,1-1.65.51,2.32,2.32,0,0,1-1.6-.53,1.82,1.82,0,0,1-.61-1.45,1.74,1.74,0,0,1,.52-1.33,2.13,2.13,0,0,1,1.46-.47H643v3.19Q644.61,874.57,644.61,873.22Zm-3.48,0a1.27,1.27,0,0,0,.35.94,1.71,1.71,0,0,0,1,.42v-2.56Q641.13,872.11,641.13,873.25Z"/><path class="cls-3" d="M644.61,868.64a1.09,1.09,0,0,0-1-1.18l.09-.55a1.47,1.47,0,0,1,1,.56,2.15,2.15,0,0,1-.21,2.65,2.35,2.35,0,0,1-1.65.52,2.28,2.28,0,0,1-1.6-.54,1.82,1.82,0,0,1-.61-1.44,1.75,1.75,0,0,1,.52-1.34,2.13,2.13,0,0,1,1.46-.47H643V870C644.07,870,644.61,869.54,644.61,868.64Zm-3.48,0a1.3,1.3,0,0,0,.35.94,1.65,1.65,0,0,0,1,.41v-2.56C641.59,867.51,641.13,867.91,641.13,868.67Z"/><path class="cls-3" d="M642.24,862.25H645v.58h-2.63a1.22,1.22,0,0,0-.88.29,1,1,0,0,0-.31.81,1.15,1.15,0,0,0,.39.94,1.73,1.73,0,0,0,1.13.32H645v.58h-4.23v-.58h.56a1.5,1.5,0,0,1-.66-1.35,1.47,1.47,0,0,1,1.59-1.59Z"/><path class="cls-3" d="M644.15,861v-.79H645V861Z"/><path class="cls-3" d="M640,858.39V859h-1v-.58Zm5,0V859h-4.23v-.58Z"/><path class="cls-3" d="M645,856.46V857h-4.23v-.57h.83a1.35,1.35,0,0,1-.83-1.26v-.32h.56v.32a1.07,1.07,0,0,0,.52.91,2.43,2.43,0,0,0,1.36.35Z"/><rect x="676.82" y="788.02" width="2.68" height="32.15"/><rect x="678.16" y="800.08" width="9.38" height="2.68"/><rect x="676.67" y="796.48" width="10.17" height="2.68" transform="translate(-364.46 715.75) rotate(-45)"/><rect x="672.8" y="809.46" width="4.6" height="2.68"/><path d="M679.5,816.15v-2.67a2.68,2.68,0,0,0,0-5.36v-2.68a5.36,5.36,0,1,1,0,10.71Z"/><path d="M683.52,792h-2.68a2.68,2.68,0,0,0-5.36,0H672.8a5.36,5.36,0,1,1,10.72,0Z"/><path d="M743.72,909.93H741a16,16,0,0,0-32.07,0h-2.68a18.72,18.72,0,0,1,37.43,0Z"/><rect x="688.13" y="844.29" width="41.68" height="2.68" transform="translate(-390.3 749) rotate(-45)"/><path d="M800.07,912.61H692.89V843.5l-5.35,5.36v7.49H676.82V818.83h26.79a25.49,25.49,0,0,1,25.46,25.46V851h45.55a25.48,25.48,0,0,1,25.45,25.45Zm-104.5-2.68H797.39V876.44a22.8,22.8,0,0,0-22.77-22.77H726.39v-9.38a22.81,22.81,0,0,0-22.78-22.78H679.5v32.16h5.36v-5.92L700,832.62l1.9,1.9-6.31,6.3Z"/><polygon points="798.73 904.58 771.94 904.58 771.94 852.33 774.62 852.33 774.62 901.9 798.73 901.9 798.73 904.58"/><path d="M745.14,888.5a18.78,18.78,0,0,1-18.75-18.76V851H763.9v18.75A18.79,18.79,0,0,1,745.14,888.5Zm-16.07-34.83v16.07a16.08,16.08,0,1,0,32.15,0V853.67Z"/><path d="M688.87,830.89h-12V818.83h12Zm-9.37-2.68h6.7v-6.7h-6.7Z"/><path class="cls-4" d="M729.07,853.67v16.07a16.08,16.08,0,1,0,32.15,0V853.67Z"/><path class="cls-5" d="M709.06,909.93a16,16,0,1,1,32.06,0Z"/><rect class="cls-6" x="679.5" y="821.51" width="6.7" height="6.7"/><path class="cls-7" d="M774.62,853.67h0a22.77,22.77,0,0,1,22.77,22.77V901.9a0,0,0,0,1,0,0H774.62a0,0,0,0,1,0,0V853.67A0,0,0,0,1,774.62,853.67Z"/><rect x="588.21" y="778.03" width="57.11" height="1.54" transform="translate(-370.05 664.22) rotate(-45)"/><rect x="819.32" y="917.31" width="57.11" height="1.54" transform="translate(-400.84 868.44) rotate(-45)"/><rect class="cls-1" x="947.1" y="78.19" width="651.74" height="918.37" transform="translate(2545.94 1074.75) rotate(-180)"/><rect x="946.33" y="78.19" width="1.54" height="918.37"/><rect x="925.59" y="78.19" width="1.54" height="918.37"/><path d="M927.13,670.69h-1.54a325.1,325.1,0,0,0-650.2,0h-1.54a326.64,326.64,0,1,1,653.28,0Z"/></g></svg>