<svg xmlns="http://www.w3.org/2000/svg" viewBox="0 0 1080 1080"><defs><style>.cls-1{fill:#b3b8b9;}.cls-2{fill:#c97435;}.cls-3{fill:#212221;}</style></defs><g id="Graphic"><rect class="cls-1" x="214.13" y="85.15" width="651.74" height="918.37"/><rect x="552.14" y="686.94" width="5.69" height="68.24"/><rect x="554.98" y="712.53" width="19.9" height="5.69"/><rect x="551.82" y="704.89" width="21.59" height="5.69" transform="translate(-335.66 605.12) rotate(-45)"/><rect x="543.61" y="732.43" width="9.77" height="5.69"/><path d="M557.83,746.65V741a5.69,5.69,0,0,0,0-11.37V723.9a11.38,11.38,0,0,1,0,22.75Z"/><path d="M566.36,695.47h-5.69a5.69,5.69,0,1,0-11.37,0h-5.69a11.38,11.38,0,1,1,22.75,0Z"/><path d="M694.13,945.69h-5.69a34,34,0,0,0-68.06,0h-5.69a39.72,39.72,0,0,1,79.44,0Z"/><rect x="576.15" y="806.36" width="88.46" height="5.69" transform="translate(-390.49 675.69) rotate(-45)"/><path d="M813.73,951.37H586.26V804.69l-11.37,11.38V832H552.14V752.34H609a54.08,54.08,0,0,1,54,54v14.22h96.68a54.08,54.08,0,0,1,54,54ZM592,945.69h216.1V874.6a48.4,48.4,0,0,0-48.34-48.34H657.35v-19.9A48.4,48.4,0,0,0,609,758H557.83v68.24H569.2V813.71l32.11-32.11,4,4L592,799Z"/><polygon points="810.89 934.31 754.02 934.31 754.02 823.42 759.71 823.42 759.71 928.63 810.89 928.63 810.89 934.31"/><path d="M697.15,900.19a39.85,39.85,0,0,1-39.8-39.81v-39.8H737v39.8A39.86,39.86,0,0,1,697.15,900.19ZM663,826.26v34.12a34.12,34.12,0,0,0,68.24,0V826.26Z"/><path d="M577.73,777.93H552.14V752.34h25.59Zm-19.9-5.69H572V758H557.83Z"/><path class="cls-2" d="M663,826.26v34.12a34.12,34.12,0,0,0,68.24,0V826.26Z"/><path class="cls-3" d="M270.75,141.76l-3.71-3v3.1h-.78v-4.22h.7l3.75,3V137.8h.78v4Z"/><path class="cls-3" d="M266.89,145.09a1.24,1.24,0,0,0,1.06,1.33l-.17.86a1.9,1.9,0,0,1-1.2-.74,2.32,2.32,0,0,1-.44-1.45,2.38,2.38,0,0,1,.71-1.87,2.87,2.87,0,0,1,2-.66,2.82,2.82,0,0,1,2,.68,2.31,2.31,0,0,1,.76,1.83,2.17,2.17,0,0,1-.68,1.69,2.59,2.59,0,0,1-1.83.61h-.45V143.5Q266.89,143.58,266.89,145.09Zm4,0a1.45,1.45,0,0,0-.38-1.05,1.88,1.88,0,0,0-1.14-.48v2.89C270.36,146.36,270.87,145.9,270.87,145.05Z"/><path class="cls-3" d="M266.89,150.79a1.23,1.23,0,0,0,1.06,1.32l-.17.86a1.86,1.86,0,0,1-1.2-.74,2.29,2.29,0,0,1-.44-1.44,2.41,2.41,0,0,1,.71-1.88,2.86,2.86,0,0,1,2-.65,2.81,2.81,0,0,1,2,.67,2.35,2.35,0,0,1,.76,1.84,2.16,2.16,0,0,1-.68,1.68,2.59,2.59,0,0,1-1.83.61h-.45V149.2Q266.89,149.28,266.89,150.79Zm4,0a1.45,1.45,0,0,0-.38-1.05,1.82,1.82,0,0,0-1.14-.47v2.88C270.36,152.05,270.87,151.6,270.87,150.74Z"/><path class="cls-3" d="M266.89,156.48a1.24,1.24,0,0,0,1.06,1.33l-.17.86a1.9,1.9,0,0,1-1.2-.74,2.32,2.32,0,0,1-.44-1.45,2.38,2.38,0,0,1,.71-1.87,2.87,2.87,0,0,1,2-.66,2.82,2.82,0,0,1,2,.68,2.31,2.31,0,0,1,.76,1.83,2.17,2.17,0,0,1-.68,1.69,2.64,2.64,0,0,1-1.83.61h-.45v-3.87Q266.89,155,266.89,156.48Zm4,0a1.45,1.45,0,0,0-.38-1.05,1.88,1.88,0,0,0-1.14-.48v2.89C270.36,157.75,270.87,157.29,270.87,156.44Z"/><path class="cls-3" d="M269.65,164.47h-3.39v-.92h3.23a1.41,1.41,0,0,0,1-.32,1.2,1.2,0,0,0,.34-.92,1.29,1.29,0,0,0-.42-1,1.87,1.87,0,0,0-1.24-.36h-2.89V160h5.23v.91h-.66a1.83,1.83,0,0,1,.79,1.63,1.91,1.91,0,0,1-.53,1.43A1.94,1.94,0,0,1,269.65,164.47Z"/><path class="cls-3" d="M267.44,165.86V167h-1.18v-1.15Z"/><path class="cls-3" d="M266.26,169.39v-.93h5.23v.93Zm6.08,0v-.93h1.24v.93Z"/><path class="cls-3" d="M266.26,171.87v-.93h5.23v.91h-.95a1.62,1.62,0,0,1,.95,1.49v.41h-.88v-.42a1.23,1.23,0,0,0-.57-1.06,2.64,2.64,0,0,0-1.55-.4Z"/><path class="cls-3" d="M269.65,195.68h-3.39v-.93h3.23a1.41,1.41,0,0,0,1-.32,1.19,1.19,0,0,0,.34-.92,1.3,1.3,0,0,0-.42-1,1.93,1.93,0,0,0-1.24-.35h-2.89v-.93h7.32v.93h-2.73a1.82,1.82,0,0,1,.77,1.6,2,2,0,0,1-.53,1.44A2,2,0,0,1,269.65,195.68Z"/><path class="cls-3" d="M266.89,199.36a1.23,1.23,0,0,0,1.06,1.32l-.17.86a1.86,1.86,0,0,1-1.2-.74,2.29,2.29,0,0,1-.44-1.44,2.41,2.41,0,0,1,.71-1.88,2.86,2.86,0,0,1,2-.65,2.81,2.81,0,0,1,2,.67,2.35,2.35,0,0,1,.76,1.84,2.16,2.16,0,0,1-.68,1.68,2.59,2.59,0,0,1-1.83.61h-.45v-3.86Q266.89,197.84,266.89,199.36Zm4-.05a1.45,1.45,0,0,0-.38-1.05,1.82,1.82,0,0,0-1.14-.47v2.88C270.36,200.62,270.87,200.17,270.87,199.31Z"/><path class="cls-3" d="M266.26,203.79v-.93h7.32v.93Z"/><path class="cls-3" d="M266.26,206.26v-.93h7.32v.93Z"/><path class="cls-3" d="M268.88,207.47a2.81,2.81,0,0,1,2,.69,2.37,2.37,0,0,1,.76,1.85,2.41,2.41,0,0,1-.76,1.86,2.75,2.75,0,0,1-2,.7,2.81,2.81,0,0,1-2-.7,2.43,2.43,0,0,1-.75-1.86,2.4,2.4,0,0,1,.75-1.85A2.82,2.82,0,0,1,268.88,207.47Zm-1.43,3.72a2.14,2.14,0,0,0,1.43.43,2.18,2.18,0,0,0,1.43-.43,1.59,1.59,0,0,0,0-2.35,2.66,2.66,0,0,0-2.87,0,1.58,1.58,0,0,0,0,2.35Z"/><path class="cls-3" d="M266.82,217.35a1.66,1.66,0,0,1,.51-1.27,1.93,1.93,0,0,1,1.35-.47,3.17,3.17,0,0,1,2,.63,2,2,0,0,1,.82,1.65,1.61,1.61,0,0,1-.22.85,1.49,1.49,0,0,1-.63.56l.75.16v.88l-2.92-.59a1,1,0,0,0-.75.05.66.66,0,0,0-.23.59,1,1,0,0,0,.61.9,3.7,3.7,0,0,0,2.94.07,3.14,3.14,0,0,0,1.08-.76,3.47,3.47,0,0,0,.83-2.47,3.59,3.59,0,0,0-1.12-2.73,3.89,3.89,0,0,0-1.27-.81,4.07,4.07,0,0,0-1.49-.29,3.74,3.74,0,0,0-2.67,1,3.35,3.35,0,0,0-1,2.54,4.84,4.84,0,0,0,.15,1.24,5.29,5.29,0,0,0,.53,1.25l-.63.32a6,6,0,0,1-.61-1.41,5.32,5.32,0,0,1-.18-1.4,4.25,4.25,0,0,1,1.25-3.17,4.3,4.3,0,0,1,3.16-1.23,4.64,4.64,0,0,1,1.78.36,4.71,4.71,0,0,1,1.54,1,4.85,4.85,0,0,1,.22,6.45,4,4,0,0,1-5,.64,1.84,1.84,0,0,1-.79-1.56,1.78,1.78,0,0,1,.22-.91,1,1,0,0,1,.59-.49A1.84,1.84,0,0,1,266.82,217.35Zm1.93-.83a1.29,1.29,0,0,0-.87.27.94.94,0,0,0-.32.75,1.26,1.26,0,0,0,.59,1.06,2.22,2.22,0,0,0,1.35.43,1.33,1.33,0,0,0,.91-.3,1,1,0,0,0,.34-.8,1.15,1.15,0,0,0-.61-1A2.44,2.44,0,0,0,268.75,216.52Z"/><path class="cls-3" d="M270.75,227.46l-3.71-3v3.1h-.78v-4.22h.7l3.75,3V223.5h.78v4Z"/><path class="cls-3" d="M266.89,230.79a1.24,1.24,0,0,0,1.06,1.33l-.17.86a1.9,1.9,0,0,1-1.2-.74,2.32,2.32,0,0,1-.44-1.45,2.38,2.38,0,0,1,.71-1.87,2.87,2.87,0,0,1,2-.66,2.82,2.82,0,0,1,2,.68,2.31,2.31,0,0,1,.76,1.83,2.17,2.17,0,0,1-.68,1.69,2.64,2.64,0,0,1-1.83.61h-.45V229.2Q266.89,229.28,266.89,230.79Zm4,0a1.45,1.45,0,0,0-.38-1.05,1.88,1.88,0,0,0-1.14-.48v2.89C270.36,232.06,270.87,231.6,270.87,230.75Z"/><path class="cls-3" d="M266.89,236.49a1.23,1.23,0,0,0,1.06,1.32l-.17.86a1.86,1.86,0,0,1-1.2-.74,2.29,2.29,0,0,1-.44-1.44,2.41,2.41,0,0,1,.71-1.88,2.86,2.86,0,0,1,2-.65,2.81,2.81,0,0,1,2,.67,2.35,2.35,0,0,1,.76,1.84,2.16,2.16,0,0,1-.68,1.68,2.59,2.59,0,0,1-1.83.61h-.45V234.9Q266.89,235,266.89,236.49Zm4-.05a1.45,1.45,0,0,0-.38-1.05,1.82,1.82,0,0,0-1.14-.47v2.88C270.36,237.75,270.87,237.3,270.87,236.44Z"/><path class="cls-3" d="M266.89,242.18a1.24,1.24,0,0,0,1.06,1.33l-.17.86a1.9,1.9,0,0,1-1.2-.74,2.32,2.32,0,0,1-.44-1.45,2.38,2.38,0,0,1,.71-1.87,2.87,2.87,0,0,1,2-.66,2.82,2.82,0,0,1,2,.68,2.31,2.31,0,0,1,.76,1.83,2.17,2.17,0,0,1-.68,1.69,2.64,2.64,0,0,1-1.83.61h-.45v-3.87Q266.89,240.66,266.89,242.18Zm4,0a1.45,1.45,0,0,0-.38-1,1.88,1.88,0,0,0-1.14-.48v2.89C270.36,243.45,270.87,243,270.87,242.14Z"/><path class="cls-3" d="M269.65,250.17h-3.39v-.92h3.23a1.41,1.41,0,0,0,1-.32,1.2,1.2,0,0,0,.34-.92,1.29,1.29,0,0,0-.42-1,1.87,1.87,0,0,0-1.24-.36h-2.89v-.93h5.23v.91h-.66a1.83,1.83,0,0,1,.79,1.63,1.91,1.91,0,0,1-.53,1.43A1.94,1.94,0,0,1,269.65,250.17Z"/><path class="cls-3" d="M267.44,251.56v1.15h-1.18v-1.15Z"/><path class="cls-3" d="M266.26,255.09v-.93h5.23v.93Zm6.08,0v-.93h1.24v.93Z"/><path class="cls-3" d="M266.26,257.57v-.93h5.23v.91h-.95a1.62,1.62,0,0,1,.95,1.49v.41h-.88V259A1.23,1.23,0,0,0,270,258a2.64,2.64,0,0,0-1.55-.4Z"/></g></svg>