<svg xmlns="http://www.w3.org/2000/svg" viewBox="0 0 1080 1920"><defs><style>.cls-1{fill:#d1d1d0;stroke:#fff;stroke-miterlimit:10;stroke-width:2px;}.cls-2{fill:#b3b8b9;}.cls-3{fill:#222221;}.cls-4{fill:#cb7434;}</style></defs><g id="Graphic"><rect class="cls-1" x="187.74" y="192.76" width="764.53" height="1594.49"/><rect class="cls-2" x="157.74" y="162.76" width="764.53" height="1594.49"/><path class="cls-3" d="M285.64,510.33l7.1,5.77v-5.94h1.48v8.07h-1.33l-7.18-5.8v5.49h-1.49v-7.59Z"/><path class="cls-3" d="M293,504a2.35,2.35,0,0,0-2-2.54l.32-1.64a3.64,3.64,0,0,1,2.3,1.41,4.44,4.44,0,0,1,.85,2.77,4.64,4.64,0,0,1-1.36,3.59,5.54,5.54,0,0,1-3.89,1.25,5.37,5.37,0,0,1-3.79-1.3A4.44,4.44,0,0,1,284,504a4.15,4.15,0,0,1,1.29-3.23,5,5,0,0,1,3.52-1.17h.85V507C291.9,506.91,293,505.89,293,504Zm-7.61.08a2.71,2.71,0,0,0,.74,2,3.51,3.51,0,0,0,2.18.91v-5.52C286.38,501.54,285.41,502.4,285.41,504Z"/><path class="cls-3" d="M293,493.06a2.35,2.35,0,0,0-2-2.54l.32-1.64a3.64,3.64,0,0,1,2.3,1.41,4.44,4.44,0,0,1,.85,2.77,4.64,4.64,0,0,1-1.36,3.59,5.54,5.54,0,0,1-3.89,1.25,5.37,5.37,0,0,1-3.79-1.3,4.44,4.44,0,0,1-1.45-3.5,4.12,4.12,0,0,1,1.29-3.22,5,5,0,0,1,3.52-1.18h.85v7.41C291.9,496,293,495,293,493.06Zm-7.61.09a2.67,2.67,0,0,0,.74,2,3.52,3.52,0,0,0,2.18.92v-5.53C286.38,490.64,285.41,491.51,285.41,493.15Z"/><path class="cls-3" d="M293,482.16a2.35,2.35,0,0,0-2-2.54l.32-1.64a3.64,3.64,0,0,1,2.3,1.41,4.45,4.45,0,0,1,.85,2.77,4.63,4.63,0,0,1-1.36,3.59,5.5,5.5,0,0,1-3.89,1.25,5.41,5.41,0,0,1-3.79-1.29A4.48,4.48,0,0,1,284,482.2a4.12,4.12,0,0,1,1.29-3.22,5,5,0,0,1,3.52-1.18h.85v7.41C291.9,485.11,293,484.09,293,482.16Zm-7.61.09a2.67,2.67,0,0,0,.74,2,3.52,3.52,0,0,0,2.18.92v-5.53C286.38,479.74,285.41,480.61,285.41,482.25Z"/><path class="cls-3" d="M287.74,466.87h6.48v1.77h-6.16a2.71,2.71,0,0,0-1.88.61,2.29,2.29,0,0,0-.66,1.76,2.46,2.46,0,0,0,.81,2,3.59,3.59,0,0,0,2.38.68h5.51v1.78h-10v-1.74h1.26a3.51,3.51,0,0,1-1.5-3.11,3.71,3.71,0,0,1,1-2.75A3.77,3.77,0,0,1,287.74,466.87Z"/><path class="cls-3" d="M292,464.21V462h2.25v2.2Z"/><path class="cls-3" d="M282.6,457.45v1.78h-2.38v-1.78Zm11.62,0v1.78h-10v-1.78Z"/><path class="cls-3" d="M294.22,452.72v1.77h-10v-1.73H286a3.12,3.12,0,0,1-1.82-2.87v-.77h1.68v.79a2.38,2.38,0,0,0,1.1,2,5.2,5.2,0,0,0,3,.76Z"/><path class="cls-3" d="M287.74,407.15h6.48v1.78h-6.16a2.66,2.66,0,0,0-1.88.61,2.25,2.25,0,0,0-.66,1.75,2.45,2.45,0,0,0,.81,2,3.59,3.59,0,0,0,2.38.69h5.51v1.77h-14V414h5.23a3.5,3.5,0,0,1-1.47-3.08,3.68,3.68,0,0,1,1-2.74A3.73,3.73,0,0,1,287.74,407.15Z"/><path class="cls-3" d="M293,400.11a2.35,2.35,0,0,0-2-2.54l.32-1.64a3.64,3.64,0,0,1,2.3,1.41,4.45,4.45,0,0,1,.85,2.77,4.63,4.63,0,0,1-1.36,3.59,5.54,5.54,0,0,1-3.89,1.25,5.37,5.37,0,0,1-3.79-1.3,4.44,4.44,0,0,1-1.45-3.5,4.12,4.12,0,0,1,1.29-3.22,5,5,0,0,1,3.52-1.18h.85v7.41C291.9,403.06,293,402,293,400.11Zm-7.61.09a2.67,2.67,0,0,0,.74,2,3.52,3.52,0,0,0,2.18.92v-5.53C286.38,397.69,285.41,398.56,285.41,400.2Z"/><path class="cls-3" d="M294.22,391.63v1.78h-14v-1.78Z"/><path class="cls-3" d="M294.22,386.9v1.77h-14V386.9Z"/><path class="cls-3" d="M289.22,384.58a5.37,5.37,0,0,1-3.79-1.32,4.54,4.54,0,0,1-1.45-3.54,4.64,4.64,0,0,1,1.45-3.56,5.31,5.31,0,0,1,3.79-1.33,5.39,5.39,0,0,1,3.8,1.33,4.64,4.64,0,0,1,1.45,3.56,4.54,4.54,0,0,1-1.45,3.54A5.38,5.38,0,0,1,289.22,384.58Zm2.74-7.12a5,5,0,0,0-5.47,0,3,3,0,0,0,0,4.5,5,5,0,0,0,5.48,0,2.73,2.73,0,0,0,1-2.24A2.76,2.76,0,0,0,292,377.46Z"/><path class="cls-3" d="M293.16,365.69a3.15,3.15,0,0,1-1,2.41,3.65,3.65,0,0,1-2.57.91,6,6,0,0,1-3.84-1.21,3.84,3.84,0,0,1-1.56-3.15,3.17,3.17,0,0,1,.42-1.63,2.66,2.66,0,0,1,1.2-1.07l-1.43-.31V360l5.59,1.13a1.92,1.92,0,0,0,1.42-.1,1.22,1.22,0,0,0,.45-1.12,2,2,0,0,0-1.17-1.72,6.88,6.88,0,0,0-5.62-.14,6,6,0,0,0-2.07,1.45,6.69,6.69,0,0,0-1.6,4.72,6.89,6.89,0,0,0,2.16,5.23A7.15,7.15,0,0,0,286,371a7.7,7.7,0,0,0,2.86.56,7.09,7.09,0,0,0,5.1-1.91,6.41,6.41,0,0,0,2-4.85,9.31,9.31,0,0,0-.28-2.38,10.62,10.62,0,0,0-1-2.39l1.21-.61a11.68,11.68,0,0,1,1.16,2.69,10.17,10.17,0,0,1,.35,2.69A8.14,8.14,0,0,1,295,370.8a8.25,8.25,0,0,1-6.05,2.37,9.23,9.23,0,0,1-6.36-2.62,9.33,9.33,0,0,1-.42-12.34,6.9,6.9,0,0,1,5.37-2.37,6.82,6.82,0,0,1,4.16,1.14,3.57,3.57,0,0,1,1.51,3,3.38,3.38,0,0,1-.42,1.73,2,2,0,0,1-1.13.94A3.54,3.54,0,0,1,293.16,365.69Zm-3.69,1.58a2.53,2.53,0,0,0,1.67-.52,1.82,1.82,0,0,0,.6-1.45,2.42,2.42,0,0,0-1.12-2,4.35,4.35,0,0,0-2.6-.82,2.52,2.52,0,0,0-1.73.57,2,2,0,0,0-.65,1.53,2.25,2.25,0,0,0,1.16,1.95A4.85,4.85,0,0,0,289.47,367.27Z"/><path class="cls-3" d="M285.64,346.33l7.1,5.76v-5.94h1.48v8.08h-1.33l-7.18-5.8v5.49h-1.49v-7.59Z"/><path class="cls-3" d="M293,340a2.36,2.36,0,0,0-2-2.54l.32-1.64a3.64,3.64,0,0,1,2.3,1.41,4.48,4.48,0,0,1,.85,2.77,4.62,4.62,0,0,1-1.36,3.59,5.5,5.5,0,0,1-3.89,1.26,5.41,5.41,0,0,1-3.79-1.3A4.48,4.48,0,0,1,284,340a4.12,4.12,0,0,1,1.29-3.22,5,5,0,0,1,3.52-1.17h.85V343C291.9,342.9,293,341.89,293,340Zm-7.61.09a2.71,2.71,0,0,0,.74,2,3.51,3.51,0,0,0,2.18.91v-5.53C286.38,337.53,285.41,338.4,285.41,340Z"/><path class="cls-3" d="M293,329.05a2.35,2.35,0,0,0-2-2.53l.32-1.64a3.56,3.56,0,0,1,2.3,1.41,4.43,4.43,0,0,1,.85,2.76,4.62,4.62,0,0,1-1.36,3.59,5.5,5.5,0,0,1-3.89,1.26,5.37,5.37,0,0,1-3.79-1.3,4.48,4.48,0,0,1-1.45-3.51,4.14,4.14,0,0,1,1.29-3.22,5,5,0,0,1,3.52-1.17h.85v7.4C291.9,332,293,331,293,329.05Zm-7.61.09a2.71,2.71,0,0,0,.74,2,3.51,3.51,0,0,0,2.18.91v-5.52C286.38,326.63,285.41,327.5,285.41,329.14Z"/><path class="cls-3" d="M293,318.16a2.35,2.35,0,0,0-2-2.54l.32-1.64a3.64,3.64,0,0,1,2.3,1.41,4.44,4.44,0,0,1,.85,2.77,4.64,4.64,0,0,1-1.36,3.59,5.54,5.54,0,0,1-3.89,1.25,5.37,5.37,0,0,1-3.79-1.3,4.44,4.44,0,0,1-1.45-3.5,4.15,4.15,0,0,1,1.29-3.23,5,5,0,0,1,3.52-1.17h.85v7.4C291.9,321.11,293,320.09,293,318.16Zm-7.61.08a2.71,2.71,0,0,0,.74,2,3.51,3.51,0,0,0,2.18.91v-5.52C286.38,315.73,285.41,316.6,285.41,318.24Z"/><path class="cls-3" d="M287.74,302.86h6.48v1.78h-6.16a2.66,2.66,0,0,0-1.88.61,2.27,2.27,0,0,0-.66,1.75,2.47,2.47,0,0,0,.81,2,3.65,3.65,0,0,0,2.38.68h5.51v1.78h-10v-1.74h1.26a3.51,3.51,0,0,1-1.5-3.12,3.68,3.68,0,0,1,1-2.74A3.77,3.77,0,0,1,287.74,302.86Z"/><path class="cls-3" d="M292,300.21V298h2.25v2.2Z"/><path class="cls-3" d="M282.6,293.45v1.78h-2.38v-1.78Zm11.62,0v1.78h-10v-1.78Z"/><path class="cls-3" d="M294.22,288.71v1.78h-10v-1.74H286a3.09,3.09,0,0,1-1.82-2.86v-.77h1.68v.79a2.38,2.38,0,0,0,1.1,2,5.13,5.13,0,0,0,3,.76Z"/><rect x="280.12" y="1109.44" width="11.3" height="135.61"/><rect x="285.77" y="1160.3" width="39.55" height="11.3"/><rect x="279.48" y="1145.13" width="42.91" height="11.3" transform="translate(-725.58 549.85) rotate(-45)"/><rect x="263.17" y="1199.85" width="19.42" height="11.3"/><path d="M291.42,1228.1v-11.3a11.3,11.3,0,1,0,0-22.6v-11.3a22.6,22.6,0,1,1,0,45.2Z"/><path d="M308.37,1126.4h-11.3a11.3,11.3,0,1,0-22.6,0h-11.3a22.6,22.6,0,1,1,45.2,0Z"/><path d="M562.26,1623.62H551a67.62,67.62,0,1,0-135.24,0h-11.3a78.92,78.92,0,1,1,157.84,0Z"/><rect x="327.82" y="1346.75" width="175.79" height="11.3" transform="translate(-834.53 690.07) rotate(-45)"/><path d="M799.93,1634.92h-452V1343.44l-22.6,22.6v31.57h-45.2V1239.4h113a107.48,107.48,0,0,1,107.35,107.35V1375H692.58a107.46,107.46,0,0,1,107.35,107.35Zm-440.71-11.3H788.63V1482.36a96.15,96.15,0,0,0-96-96H489.17v-39.56a96.16,96.16,0,0,0-96.05-96H291.42v135.61H314v-24.94l63.8-63.81,8,8-26.59,26.59Z"/><polygon points="794.28 1601.02 681.28 1601.02 681.28 1380.65 692.58 1380.65 692.58 1589.71 794.28 1589.71 794.28 1601.02"/><path d="M568.27,1533.21a79.19,79.19,0,0,1-79.1-79.1V1375H647.38v79.1A79.19,79.19,0,0,1,568.27,1533.21Zm-67.8-146.9v67.8a67.81,67.81,0,0,0,135.61,0v-67.8Z"/><path d="M331,1290.25H280.12V1239.4H331ZM291.42,1279h28.25V1250.7H291.42Z"/><path class="cls-4" d="M500.47,1386.31v67.8a67.81,67.81,0,0,0,135.61,0v-67.8Z"/></g></svg>