<svg xmlns="http://www.w3.org/2000/svg" viewBox="0 0 1080 1080"><defs><style>.cls-1{fill:#ce6326;}.cls-2{fill:none;stroke:#222221;stroke-miterlimit:10;stroke-width:36.03px;}</style></defs><g id="Graphic"><path class="cls-1" d="M948.5,149.74v372c0,225.61-182.89,408.5-408.5,408.5h0c-225.61,0-408.5-182.89-408.5-408.5v-372h817Z"/><path class="cls-2" d="M948.5,149.74v372c0,225.61-182.89,408.5-408.5,408.5h0c-225.61,0-408.5-182.89-408.5-408.5v-372h817Z"/><path d="M540,948.27c-235.18,0-426.51-191.33-426.51-426.51v-390h853v390C966.51,756.94,775.18,948.27,540,948.27ZM149.51,167.76v354c0,215.31,175.18,390.48,390.49,390.48S930.49,737.07,930.49,521.76v-354Z"/><path d="M397.67,698.49H381.79l-3.41,9h-5.09L387.42,671h5l14,36.49H401Zm-14.27-4.18h12.72l-6.26-17Z"/><path d="M414.56,707.45h-4.63V681.39h4.53v4.73q2.55-4.73,7.46-4.73h2v4.37h-2.06a6.16,6.16,0,0,0-5.32,2.87,13.36,13.36,0,0,0-2,7.72Z"/><path d="M427.64,685.21v-3.82h4.58V673h4.63v8.4h6.56v3.82h-6.56v14.58a4.37,4.37,0,0,0,.72,2.87,3.26,3.26,0,0,0,2.51.82h4v4h-4.68a7.27,7.27,0,0,1-5.32-1.8,7,7,0,0,1-1.83-5.23V685.21Z"/><path d="M452.26,677.16h-4.63V671h4.63Zm0,30.29h-4.63V681.39h4.63Z"/><path d="M467.93,708.08a12.8,12.8,0,0,1-8-2.31,8.38,8.38,0,0,1-3.26-6.29l4.64-.69a6.29,6.29,0,0,0,2,4.25,7,7,0,0,0,4.69,1.38A6.53,6.53,0,0,0,472,703.3a4,4,0,0,0,1.41-3.31c0-2.07-1.52-3.32-4.58-3.74l-3.74-.59a10.41,10.41,0,0,1-5.71-2.46,6.49,6.49,0,0,1-2-4.89,6.65,6.65,0,0,1,2.67-5.45,13.18,13.18,0,0,1,14.26,0,9.07,9.07,0,0,1,3.3,6l-4.28.61a6.66,6.66,0,0,0-2.1-3.83,7.9,7.9,0,0,0-7.95-.15,3.11,3.11,0,0,0-1.4,2.64,3.07,3.07,0,0,0,1,2.39,6,6,0,0,0,3.09,1.19l4.17.69q7.92,1.27,7.91,7.46a7.42,7.42,0,0,1-2.72,6A11.3,11.3,0,0,1,467.93,708.08Z"/><path d="M479.4,685.21v-3.82H484V673h4.64v8.4h6.56v3.82h-6.56v14.58a4.37,4.37,0,0,0,.72,2.87,3.24,3.24,0,0,0,2.51.82h4v4h-4.69a7.26,7.26,0,0,1-5.31-1.8,7,7,0,0,1-1.84-5.23V685.21Z"/><path d="M504,677.16H499.4V671H504Zm0,30.29H499.4V681.39H504Z"/><path d="M521.05,704.11a6.7,6.7,0,0,0,4.71-1.64,7.17,7.17,0,0,0,2.13-4.62l4.53.54a10.48,10.48,0,0,1-3.6,7.06,12.86,12.86,0,0,1-16.78-1q-3.28-3.67-3.28-9.9t3.33-10a11.47,11.47,0,0,1,9-3.77,11.91,11.91,0,0,1,7.89,2.51,10.78,10.78,0,0,1,3.64,7.09l-4.74.53c-.62-4.11-2.91-6.16-6.84-6.16a6.53,6.53,0,0,0-5.5,2.57,11.75,11.75,0,0,0-2,7.23,11.27,11.27,0,0,0,2,7.06A6.62,6.62,0,0,0,521.05,704.11Z"/><path d="M559.15,703.58h1.25v3.87h-2.52a5.8,5.8,0,0,1-3.44-1,3.67,3.67,0,0,1-1.55-2.71,9.12,9.12,0,0,1-8.24,4.32,9.81,9.81,0,0,1-6.57-2.12,6.89,6.89,0,0,1-2.49-5.49,7.27,7.27,0,0,1,2-5.33,10.37,10.37,0,0,1,5.83-2.71l7.61-1.3a1.76,1.76,0,0,0,1.63-1.88,4.37,4.37,0,0,0-1.53-3.45,6.12,6.12,0,0,0-4.17-1.33,6.74,6.74,0,0,0-4.2,1.18,6.18,6.18,0,0,0-2.14,3.65l-4.4-.51A8.89,8.89,0,0,1,539.8,683a11.87,11.87,0,0,1,7.37-2.22,10.36,10.36,0,0,1,7.36,2.5,8.62,8.62,0,0,1,2.69,6.64v11.73a1.62,1.62,0,0,0,1.93,2Zm-19-3.44a3.86,3.86,0,0,0,1.32,3.11,5.57,5.57,0,0,0,3.69,1.12,7,7,0,0,0,5.43-2.38,8.84,8.84,0,0,0,2.13-6.12v-1.5l-8.35,1.45a5.4,5.4,0,0,0-3.14,1.45A4,4,0,0,0,540.17,700.14Z"/><path d="M568.31,707.45h-4.64V671h4.64Z"/><path d="M579.34,707.45h-4.63V671h4.63Z"/><path d="M592.21,709.89l.87-2.29-10.25-26.21h4.88l7.71,20.48,7.79-20.48h4.68l-11.37,29c-1,2.56-2.18,4.32-3.54,5.27a8.84,8.84,0,0,1-5.37,1.45h-2.7v-3.92h2.7a5,5,0,0,0,2.87-.74A5.05,5.05,0,0,0,592.21,709.89Z"/><path d="M626.81,707.45h-5V671h25.6v4.27H626.81v11.88h18.5v4.28h-18.5Z"/><path d="M655.1,707.45h-4.63V681.39H655v4.73q2.55-4.73,7.46-4.73h2v4.37h-2.06a6.16,6.16,0,0,0-5.32,2.87,13.36,13.36,0,0,0-2,7.72Z"/><path d="M665.71,694.42q0-6.17,3.44-9.9a11.92,11.92,0,0,1,9.23-3.77,12.1,12.1,0,0,1,9.26,3.77c2.33,2.48,3.49,5.77,3.49,9.9a14,14,0,0,1-3.49,9.9,12.1,12.1,0,0,1-9.26,3.76,11.91,11.91,0,0,1-9.23-3.76Q665.7,700.57,665.71,694.42Zm18.55,7.13a13,13,0,0,0,0-14.27,7.19,7.19,0,0,0-5.88-2.61,7.1,7.1,0,0,0-5.83,2.61,13.18,13.18,0,0,0,0,14.29,7.1,7.1,0,0,0,5.84,2.59A7.19,7.19,0,0,0,684.26,701.55Z"/><path d="M717.29,693.07v14.38h-4.64V691.39a7.31,7.31,0,0,0-1.48-4.89,5.25,5.25,0,0,0-4.19-1.73,5.79,5.79,0,0,0-4.85,2.13,9.82,9.82,0,0,0-1.67,6.17v14.38h-4.63V681.39h4.53v3.18a8.74,8.74,0,0,1,7.66-3.82,9.87,9.87,0,0,1,5,1.21,7.81,7.81,0,0,1,3.19,3.5q2.56-4.71,8.4-4.71a9.26,9.26,0,0,1,7,2.64,9.88,9.88,0,0,1,2.53,7.16v16.9H729.5V691.39a7.26,7.26,0,0,0-1.5-4.89,5.27,5.27,0,0,0-4.2-1.73A5.79,5.79,0,0,0,719,686.9Q717.29,689,717.29,693.07Z"/><path d="M756.62,707.45h-5V671h5Z"/><path d="M768.19,707.45h-4.63V681.39h4.53v4.73q2.53-4.73,7.45-4.73h2v4.37h-2.06a6.18,6.18,0,0,0-5.32,2.87,13.36,13.36,0,0,0-2,7.72Z"/><path d="M802.38,703.58h1.25v3.87h-2.52a5.82,5.82,0,0,1-3.44-1,3.67,3.67,0,0,1-1.55-2.71,9.12,9.12,0,0,1-8.24,4.32,9.81,9.81,0,0,1-6.57-2.12,6.89,6.89,0,0,1-2.49-5.49,7.31,7.31,0,0,1,2-5.33,10.37,10.37,0,0,1,5.83-2.71l7.61-1.3a1.75,1.75,0,0,0,1.63-1.88,4.37,4.37,0,0,0-1.53-3.45,6.12,6.12,0,0,0-4.17-1.33,6.74,6.74,0,0,0-4.2,1.18,6.23,6.23,0,0,0-2.14,3.65l-4.4-.51A8.89,8.89,0,0,1,783,683a11.89,11.89,0,0,1,7.37-2.22,10.36,10.36,0,0,1,7.36,2.5,8.62,8.62,0,0,1,2.69,6.64v11.73a1.62,1.62,0,0,0,1.93,2Zm-19-3.44a3.86,3.86,0,0,0,1.32,3.11,5.57,5.57,0,0,0,3.69,1.12,7,7,0,0,0,5.43-2.38,8.84,8.84,0,0,0,2.13-6.12v-1.5l-8.35,1.45a5.4,5.4,0,0,0-3.14,1.45A4,4,0,0,0,783.4,700.14Z"/><path d="M829.3,690.55v16.9h-4.63V691.39a7,7,0,0,0-1.59-4.9,5.93,5.93,0,0,0-4.57-1.72,6.44,6.44,0,0,0-5.19,2.11q-1.79,2.11-1.78,6.19v14.38h-4.63V681.39h4.53v3.28q2.67-3.92,8.11-3.92a9.56,9.56,0,0,1,7.15,2.64A9.75,9.75,0,0,1,829.3,690.55Z"/><path d="M394,756.09H373.5v-29.8h20.06v3.49h-16v9.46h14.25v3.41H377.6v10H394Z"/><path d="M408.69,756.61q-5.38,0-8.55-2.59a9,9,0,0,1-3.24-7.11l4-.52a6.87,6.87,0,0,0,2.15,5.1,8.27,8.27,0,0,0,5.63,1.76,6.86,6.86,0,0,0,4.62-1.45,4.81,4.81,0,0,0,1.69-3.87,4,4,0,0,0-1.18-3.07,8.79,8.79,0,0,0-4.09-1.71l-4-.86a11.46,11.46,0,0,1-6-2.93,7.87,7.87,0,0,1,.82-11.18,10.67,10.67,0,0,1,7.23-2.39,11.48,11.48,0,0,1,7.5,2.29,9,9,0,0,1,3.19,6.36l-4,.5q-.7-5.79-6.65-5.78a6.74,6.74,0,0,0-4.41,1.28A4.72,4.72,0,0,0,403,737a7.22,7.22,0,0,0,3.7,1.69l4.63,1a11.34,11.34,0,0,1,5.91,2.78,7.15,7.15,0,0,1,1.89,5.22,8.18,8.18,0,0,1-2.85,6.38A11.06,11.06,0,0,1,408.69,756.61Z"/><path d="M420.3,726.29h22.64v3.49h-9.27v26.31h-4.06V729.78H420.3Z"/><path d="M467.91,734.21a4.7,4.7,0,0,0-1.42-3.59,5.31,5.31,0,0,0-3.78-1.34,5.75,5.75,0,0,0-4.81,2.05q-1.61,2-1.52,6l-3.91-.52q-.32-5.12,2.55-8a10.17,10.17,0,0,1,7.69-3,9.46,9.46,0,0,1,6.78,2.33,8,8,0,0,1,2.51,6.09,10.72,10.72,0,0,1-1.51,5.36,25.62,25.62,0,0,1-4.91,5.8l-8,7.32h15.15v3.4H452.34V752.6l10.73-9.83a18.89,18.89,0,0,0,3.75-4.38A8.44,8.44,0,0,0,467.91,734.21Z"/><path d="M476.16,741.19q0-7.12,2.93-11.29a10.27,10.27,0,0,1,16.44,0q3,4.07,3,11.29t-3,11.29a10.3,10.3,0,0,1-16.45.06Q476.16,748.46,476.16,741.19Zm16.43,8.89q1.86-3.14,1.86-8.89t-1.85-8.87a6,6,0,0,0-10.53.07q-1.87,3.2-1.88,8.8,0,5.77,1.84,8.9a5.79,5.79,0,0,0,5.27,3.11A5.85,5.85,0,0,0,492.59,750.08Z"/><path d="M520.8,756.09H502.32v-3.4h7.28V733.54a6.45,6.45,0,0,1-3.41.79h-4V731h3.74a3.49,3.49,0,0,0,2.85-1.14,5.56,5.56,0,0,0,.93-3.56h3.93v26.4h7.15Z"/><path d="M539.69,747.36a4.68,4.68,0,0,0-1.54-3.74,6.47,6.47,0,0,0-4.34-1.33h-2.68V739.2h2.55a4.86,4.86,0,0,0,3.73-1.42,5.56,5.56,0,0,0,1.32-3.95,4.32,4.32,0,0,0-1.44-3.43,5.8,5.8,0,0,0-3.92-1.24,6.13,6.13,0,0,0-4.49,1.64,6.53,6.53,0,0,0-1.81,4.57l-3.7-.81a8.21,8.21,0,0,1,2.89-6.34,10.74,10.74,0,0,1,7.19-2.43,10.13,10.13,0,0,1,6.79,2.13,7.11,7.11,0,0,1,2.5,5.71,7.84,7.84,0,0,1-1.09,4.15,6.77,6.77,0,0,1-3.08,2.73,7.56,7.56,0,0,1,3.83,2.64,7,7,0,0,1,1.32,4.26A8.62,8.62,0,0,1,541,754.1a10.64,10.64,0,0,1-7.44,2.51,12.65,12.65,0,0,1-7.67-2.22,8.12,8.12,0,0,1-3.33-6.09l4.05-.89a6.18,6.18,0,0,0,2,4.32,7.09,7.09,0,0,0,4.79,1.52,6.53,6.53,0,0,0,4.63-1.56A5.58,5.58,0,0,0,539.69,747.36Z"/><polygon points="339.68 402.77 238.47 402.77 310 290.64 249.97 290.64 249.97 268.21 350.91 268.21 279.38 380.34 339.68 380.34 339.68 402.77"/><polygon points="463.02 402.77 373.61 402.77 373.29 268.21 463.02 268.21 463.02 290.64 395.77 290.64 395.98 380.34 463.02 380.34 463.02 402.77"/><rect x="384.53" y="324.28" width="78.5" height="22.43"/><polygon points="586.36 402.77 496.66 402.77 496.66 268.21 586.36 268.21 586.36 290.64 519.09 290.64 519.09 380.34 586.36 380.34 586.36 402.77"/><rect x="507.87" y="324.28" width="78.49" height="22.43"/><polygon points="463.02 570.97 373.31 570.97 373.31 436.41 463.02 436.41 463.02 458.84 395.74 458.84 395.74 548.54 463.02 548.54 463.02 570.97"/><rect x="384.53" y="492.47" width="78.5" height="22.43"/><polygon points="597.58 570.97 576.1 570.97 519.09 480.1 519.09 570.97 496.66 570.97 496.66 436.41 518.14 436.41 575.15 527.26 575.15 436.41 597.58 436.41 597.58 570.97"/></g></svg>