<svg xmlns="http://www.w3.org/2000/svg" xmlns:xlink="http://www.w3.org/1999/xlink" viewBox="0 0 1920 1080"><defs><style>.cls-1,.cls-6,.cls-7{fill:none;}.cls-2{fill:#d1d1d0;stroke:#fff;stroke-width:2px;}.cls-2,.cls-6,.cls-7{stroke-miterlimit:10;}.cls-3{fill:#f2ba97;}.cls-4{clip-path:url(#clip-path);}.cls-5{fill:#fff;}.cls-6{stroke:#000;stroke-width:2.5px;}.cls-7{stroke:#b3b8b9;stroke-width:0.75px;}</style><clipPath id="clip-path"><rect class="cls-1" x="560.59" y="103.41" width="1133.81" height="874.66"/></clipPath></defs><g id="CUTLINE"><rect class="cls-2" x="255.6" y="131.94" width="1468.81" height="876.13"/><rect class="cls-3" x="560.59" y="101.93" width="1133.81" height="876.13"/><g class="cls-4"><rect x="1138.36" y="206.19" width="14.51" height="174.16"/><rect x="1145.61" y="271.5" width="50.8" height="14.51"/><rect x="1137.54" y="252.02" width="55.11" height="14.51" transform="translate(157.91 899.79) rotate(-45)"/><rect x="1116.59" y="322.3" width="24.94" height="14.51"/><path d="M1152.87,358.58V344.07a14.52,14.52,0,0,0,0-29V300.53a29,29,0,1,1,0,58.05Z"/><path d="M1174.64,228h-14.51a14.52,14.52,0,0,0-29,0h-14.51a29,29,0,0,1,58.05,0Z"/><path d="M1500.72,866.55h-14.51a86.85,86.85,0,1,0-173.69,0H1298a101.36,101.36,0,0,1,202.72,0Z"/><rect x="1199.63" y="510.97" width="225.77" height="14.51" transform="translate(17.98 1079.87) rotate(-45)"/><path d="M1806,881.06H1225.44V506.72l-29,29v40.53h-58.05V373.1h145.13c76,0,137.88,61.85,137.88,137.87v36.29h246.72c76,0,137.88,61.85,137.88,137.87Zm-566-14.51h551.51V685.13a123.5,123.5,0,0,0-123.37-123.36H1406.85V511a123.5,123.5,0,0,0-123.36-123.36H1152.87V561.77h29v-32l81.94-81.95,10.27,10.26L1240,492.21Z"/><polygon points="1798.71 837.52 1653.58 837.52 1653.58 554.51 1668.09 554.51 1668.09 823.01 1798.71 823.01 1798.71 837.52"/><path d="M1508.45,750.44a101.71,101.71,0,0,1-101.6-101.59V547.26H1610V648.85A101.7,101.7,0,0,1,1508.45,750.44Zm-87.08-188.67v87.08a87.08,87.08,0,1,0,174.16,0V561.77Z"/><path d="M1203.67,438.41h-65.31V373.1h65.31Zm-50.8-14.52h36.28V387.61h-36.28Z"/></g><rect x="225.6" y="101.94" width="334.99" height="876.13"/><path class="cls-5" d="M305.86,635.85H305l-3.89-3.2v3.2h-.81v-4.32h.82l3.89,3.19v-3.23h.81Z"/><path class="cls-5" d="M303.41,625.52v3.9a2,2,0,0,0,1.38-.54,1.56,1.56,0,0,0,0-2,1.11,1.11,0,0,0-.6-.33v-.91a2.08,2.08,0,0,1,1.37.85,2.59,2.59,0,0,1,.41,1.41,2.35,2.35,0,0,1-.83,1.83,3.1,3.1,0,0,1-2.05.69,3.31,3.31,0,0,1-1.76-.43,2.35,2.35,0,0,1-1.16-2.08,2.22,2.22,0,0,1,.71-1.68,2.83,2.83,0,0,1,1.94-.69Zm-1.92,1.27a1.3,1.3,0,0,0-.5,1.09,1.53,1.53,0,0,0,1.62,1.52v-2.95A1.91,1.91,0,0,0,301.49,626.79Z"/><path class="cls-5" d="M303.41,619.5v3.91a2,2,0,0,0,1.38-.54,1.36,1.36,0,0,0,.39-1,1.35,1.35,0,0,0-.36-1,1.05,1.05,0,0,0-.6-.33v-.91a2.08,2.08,0,0,1,1.37.85,2.59,2.59,0,0,1,.41,1.41,2.35,2.35,0,0,1-.83,1.83,3.1,3.1,0,0,1-2.05.69,3.31,3.31,0,0,1-1.76-.43,2.35,2.35,0,0,1-1.16-2.08,2.2,2.2,0,0,1,.71-1.68,2.88,2.88,0,0,1,1.94-.7Zm-1.92,1.28a1.3,1.3,0,0,0-.5,1.09,1.54,1.54,0,0,0,1.62,1.52v-2.95A1.91,1.91,0,0,0,301.49,620.78Z"/><path class="cls-5" d="M303.41,613.49v3.91a2,2,0,0,0,1.38-.54,1.36,1.36,0,0,0,.39-1,1.35,1.35,0,0,0-.36-1,1.05,1.05,0,0,0-.6-.33v-.91a2.08,2.08,0,0,1,1.37.85,2.59,2.59,0,0,1,.41,1.41,2.35,2.35,0,0,1-.83,1.83,3.1,3.1,0,0,1-2.05.69,3.31,3.31,0,0,1-1.76-.43,2.35,2.35,0,0,1-1.16-2.08,2.2,2.2,0,0,1,.71-1.68,2.88,2.88,0,0,1,1.94-.7Zm-1.92,1.28a1.3,1.3,0,0,0-.5,1.09,1.54,1.54,0,0,0,1.62,1.52v-3A1.91,1.91,0,0,0,301.49,614.77Z"/><path class="cls-5" d="M305.86,608.39h-3.5c-.83,0-1.32.34-1.32,1.21a1.36,1.36,0,0,0,.85,1.2,3.73,3.73,0,0,0,1.41.19h2.56v.93h-5.52v-.81l.83-.07a1.87,1.87,0,0,1-1-1.67,1.78,1.78,0,0,1,2-1.91h3.63Z"/><path class="cls-5" d="M305.86,605.59h-1.3v-1.28h1.3Z"/><path class="cls-5" d="M299.08,602.4H298v-1.08h1.09Zm6.78-.07h-5.52v-1h5.52Z"/><path class="cls-5" d="M301.2,596.89a1.52,1.52,0,0,0,.44,1.05,2.52,2.52,0,0,0,1.77.5h2.45v.91h-5.52v-.81l1-.08a1.72,1.72,0,0,1-1-1.65,3.11,3.11,0,0,1,0-.43h.91A2.94,2.94,0,0,0,301.2,596.89Z"/><path class="cls-5" d="M319,631.89h-3.5c-.83,0-1.32.33-1.32,1.21a1.36,1.36,0,0,0,.85,1.2,3.76,3.76,0,0,0,1.41.19H319v.93h-7.87v-.93h3.09a1.86,1.86,0,0,1-.88-1.61,1.79,1.79,0,0,1,2-1.92H319Z"/><path class="cls-5" d="M316.5,624.58v3.9a2.06,2.06,0,0,0,1.38-.53,1.54,1.54,0,0,0,0-2,1.19,1.19,0,0,0-.59-.33v-.9a2,2,0,0,1,1.36.85,2.53,2.53,0,0,1,.41,1.4,2.31,2.31,0,0,1-.83,1.83,3.1,3.1,0,0,1-2.05.69,3.4,3.4,0,0,1-1.76-.42,2.38,2.38,0,0,1-1.16-2.09,2.22,2.22,0,0,1,.71-1.68,2.88,2.88,0,0,1,1.94-.69Zm-1.92,1.27a1.3,1.3,0,0,0-.5,1.09,1.53,1.53,0,0,0,1.62,1.52v-2.94A2,2,0,0,0,314.58,625.85Z"/><path class="cls-5" d="M319,621.88c0,.81-.48,1.16-1.36,1.16h-6.58v-.93h6.53c.37,0,.57-.12.57-.5a3.7,3.7,0,0,0,0-.38H319A2.19,2.19,0,0,1,319,621.88Z"/><path class="cls-5" d="M319,618.71c0,.8-.48,1.15-1.36,1.15h-6.58v-.92h6.53c.37,0,.57-.12.57-.51s0-.38,0-.38H319A2.32,2.32,0,0,1,319,618.71Z"/><path class="cls-5" d="M318.45,613a2.5,2.5,0,0,1,0,3.34,3,3,0,0,1-2.26.78,3,3,0,0,1-2.25-.78,2.47,2.47,0,0,1,0-3.34,3,3,0,0,1,2.25-.79A3,3,0,0,1,318.45,613Zm-4,.68a1.33,1.33,0,0,0-.39,1,1.36,1.36,0,0,0,.39,1,3.12,3.12,0,0,0,3.42,0,1.37,1.37,0,0,0,.4-1,1.33,1.33,0,0,0-.4-1,3.07,3.07,0,0,0-3.42,0Z"/><path class="cls-5" d="M317.74,604.24a1,1,0,0,1-.83,1.07,1.47,1.47,0,0,1,.81,1.31c0,1.12-.9,1.71-2.08,1.71a2,2,0,0,1-2.24-2,1.23,1.23,0,0,1,.58-1.05l-.46-.12v-.73l2.76.2c.33,0,.69,0,.69-.45,0-.95-1.42-1.25-2.15-1.25a2.78,2.78,0,0,0-2.06.78,3.32,3.32,0,0,0-.87,2.4,3.73,3.73,0,0,0,6.24,2.65,3.24,3.24,0,0,0,.94-2.37,6.54,6.54,0,0,0-.52-2.73h.79a6,6,0,0,1,.55,2.74,4.2,4.2,0,0,1-1.05,2.92,4.49,4.49,0,0,1-3.35,1.34,4.24,4.24,0,0,1-3.17-1.27,4.65,4.65,0,0,1-1.24-3.27,4.29,4.29,0,0,1,1.13-3.06,3.49,3.49,0,0,1,2.6-1C316.13,602,317.74,602.65,317.74,604.24Zm-3.59,2.13c0,.79.83,1,1.49,1s1.28-.21,1.28-.93-.79-1.09-1.51-1.09S314.15,605.62,314.15,606.37Z"/><path class="cls-5" d="M319,600.72h-.82l-3.89-3.21v3.21h-.81v-4.33h.82l3.89,3.19v-3.22H319Z"/><path class="cls-5" d="M316.5,590.38v3.9a2,2,0,0,0,1.38-.53,1.54,1.54,0,0,0,0-2,1.19,1.19,0,0,0-.59-.33v-.9a2,2,0,0,1,1.36.85,2.53,2.53,0,0,1,.41,1.4,2.34,2.34,0,0,1-.83,1.84,3.15,3.15,0,0,1-2.05.68,3.4,3.4,0,0,1-1.76-.42,2.36,2.36,0,0,1-1.16-2.09,2.2,2.2,0,0,1,.71-1.67,2.83,2.83,0,0,1,1.94-.7Zm-1.92,1.27a1.3,1.3,0,0,0-.5,1.09,1.53,1.53,0,0,0,1.62,1.52v-2.94A2,2,0,0,0,314.58,591.65Z"/><path class="cls-5" d="M316.5,584.37v3.9a2,2,0,0,0,1.38-.53,1.54,1.54,0,0,0,0-2,1.19,1.19,0,0,0-.59-.33v-.9a2,2,0,0,1,1.36.85,2.53,2.53,0,0,1,.41,1.4,2.31,2.31,0,0,1-.83,1.83,3.1,3.1,0,0,1-2.05.69,3.4,3.4,0,0,1-1.76-.42,2.38,2.38,0,0,1-1.16-2.09,2.2,2.2,0,0,1,.71-1.67,2.83,2.83,0,0,1,1.94-.7Zm-1.92,1.27a1.3,1.3,0,0,0-.5,1.09,1.53,1.53,0,0,0,1.62,1.52v-2.94A2,2,0,0,0,314.58,585.64Z"/><path class="cls-5" d="M316.5,578.36v3.9a2.06,2.06,0,0,0,1.38-.53,1.54,1.54,0,0,0,0-2,1.19,1.19,0,0,0-.59-.33v-.9a2,2,0,0,1,1.36.85,2.53,2.53,0,0,1,.41,1.4,2.31,2.31,0,0,1-.83,1.83,3.1,3.1,0,0,1-2.05.69,3.4,3.4,0,0,1-1.76-.42,2.38,2.38,0,0,1-1.16-2.09A2.22,2.22,0,0,1,314,579a2.88,2.88,0,0,1,1.94-.69Zm-1.92,1.27a1.3,1.3,0,0,0-.5,1.09,1.53,1.53,0,0,0,1.62,1.52V579.3A2,2,0,0,0,314.58,579.63Z"/><path class="cls-5" d="M319,573.25h-3.5c-.83,0-1.32.34-1.32,1.21a1.35,1.35,0,0,0,.85,1.2,3.58,3.58,0,0,0,1.41.2H319v.92h-5.52V576l.83-.08a1.87,1.87,0,0,1-1-1.67,1.78,1.78,0,0,1,2-1.9H319Z"/><path class="cls-5" d="M319,570.46h-1.3v-1.29H319Z"/><path class="cls-5" d="M312.17,567.26h-1.09v-1.08h1.09Zm6.78-.06h-5.52v-1H319Z"/><path class="cls-5" d="M314.3,561.75a1.51,1.51,0,0,0,.43,1,2.47,2.47,0,0,0,1.77.5H319v.92h-5.52v-.82l1-.08a1.7,1.7,0,0,1-1-1.64,3.25,3.25,0,0,1,0-.44h.91A3,3,0,0,0,314.3,561.75Z"/><path class="cls-5" d="M309.57,520.84a.73.73,0,0,0,.76.79h.92V520H312v1.59h4.73v.92H312v1h-.79v-1h-1a1.49,1.49,0,0,1-1.48-1.6,5.18,5.18,0,0,1,.1-1h.77A7,7,0,0,0,309.57,520.84Z"/><path class="cls-5" d="M316.85,514.81a.79.79,0,0,1-.84.8v0a2,2,0,0,1,.9,1.78,1.73,1.73,0,0,1-1.7,1.89c-.71,0-1.64-.45-1.72-2l-.1-1.68H313a1.05,1.05,0,0,0-.84.29,1.19,1.19,0,0,0-.29.9,1.33,1.33,0,0,0,.33,1,.87.87,0,0,0,.66.28v.9a1.63,1.63,0,0,1-1.15-.48,2.37,2.37,0,0,1-.59-1.7,1.92,1.92,0,0,1,1.06-1.94,2.08,2.08,0,0,1,.85-.16h2.67c.29,0,.37-.12.37-.31a1.43,1.43,0,0,0,0-.24h.68A1.27,1.27,0,0,1,316.85,514.81Zm-2.74.85.09,1.48c0,.56.29,1.21,1,1.21.49,0,.95-.3.95-1.09a1.59,1.59,0,0,0-.45-1.13,1.78,1.78,0,0,0-1.25-.47Z"/><path class="cls-5" d="M316.31,509.05a2.2,2.2,0,0,1,.6,1.59,2.3,2.3,0,0,1-1,2,4,4,0,0,1-3.72,0,2.28,2.28,0,0,1-1-2,2.22,2.22,0,0,1,.59-1.57,2.1,2.1,0,0,1,1.42-.65v.94a1.31,1.31,0,0,0-.86.39,1.27,1.27,0,0,0-.34.89,1.37,1.37,0,0,0,.36,1,3,3,0,0,0,3.46,0,1.37,1.37,0,0,0,.36-1,1.26,1.26,0,0,0-.37-.93,1.31,1.31,0,0,0-.81-.37v-.94A2.06,2.06,0,0,1,316.31,509.05Z"/><path class="cls-5" d="M314.32,502.42v3.9a2,2,0,0,0,1.38-.53,1.58,1.58,0,0,0,0-2,1.18,1.18,0,0,0-.6-.33v-.9a2,2,0,0,1,1.37.85,2.53,2.53,0,0,1,.41,1.4,2.37,2.37,0,0,1-.83,1.84,3.15,3.15,0,0,1-2.05.68,3.4,3.4,0,0,1-1.76-.42,2.36,2.36,0,0,1-1.16-2.08,2.2,2.2,0,0,1,.71-1.68,2.83,2.83,0,0,1,1.94-.7Zm-1.92,1.28a1.27,1.27,0,0,0-.5,1.09,1.53,1.53,0,0,0,1.62,1.51v-2.94A1.91,1.91,0,0,0,312.4,503.7Z"/><path class="cls-5" d="M316.31,496.73a2.08,2.08,0,0,1,.6,1.55,1.92,1.92,0,0,1-.86,1.65l.72.07v.81H308.9v-.92h3a1.93,1.93,0,0,1-.79-1.61,2.15,2.15,0,0,1,.56-1.51,3.69,3.69,0,0,1,4.64,0Zm-4.41,1.71a1.26,1.26,0,0,0,.36.89,2.26,2.26,0,0,0,1.75.61,2.29,2.29,0,0,0,1.76-.61,1.3,1.3,0,0,0,.36-.89c0-1.23-1.11-1.56-2.12-1.56S311.9,497.21,311.9,498.44Z"/><path class="cls-5" d="M316.27,490.59a2.5,2.5,0,0,1,0,3.34,3.63,3.63,0,0,1-4.52,0,2.5,2.5,0,0,1,0-3.34,3.66,3.66,0,0,1,4.52,0Zm-4,.68a1.36,1.36,0,0,0-.39,1,1.33,1.33,0,0,0,.39,1,3.07,3.07,0,0,0,3.42,0,1.33,1.33,0,0,0,.39-1,1.36,1.36,0,0,0-.39-1,3.12,3.12,0,0,0-3.42,0Z"/><path class="cls-5" d="M316.27,484.47a2.38,2.38,0,0,1,.64,1.67,2.34,2.34,0,0,1-.64,1.67,3.63,3.63,0,0,1-4.52,0,2.34,2.34,0,0,1-.64-1.67,2.38,2.38,0,0,1,.64-1.67,3.66,3.66,0,0,1,4.52,0Zm-4,.68a1.36,1.36,0,0,0-.39,1,1.33,1.33,0,0,0,.39,1,3.07,3.07,0,0,0,3.42,0,1.33,1.33,0,0,0,.39-1,1.36,1.36,0,0,0-.39-1,3.12,3.12,0,0,0-3.42,0Z"/><path class="cls-5" d="M316.77,478.34l-2.66,1.73,1.18,1.05h1.48v.93H308.9v-.93H314l-2.78-2.49V477.5l2.18,2,3.34-2.17Z"/><path class="cls-5" d="M316.77,476.13h-1.3v-1.29h1.3Z"/><path class="cls-5" d="M316.31,469.19a2.2,2.2,0,0,1,.6,1.59,2.3,2.3,0,0,1-1,2,4,4,0,0,1-3.72,0,2.28,2.28,0,0,1-1-2,2.22,2.22,0,0,1,.59-1.57,2.1,2.1,0,0,1,1.42-.65v.94a1.31,1.31,0,0,0-.86.39,1.27,1.27,0,0,0-.34.89,1.37,1.37,0,0,0,.36,1,3,3,0,0,0,3.46,0,1.37,1.37,0,0,0,.36-1,1.26,1.26,0,0,0-.37-.93,1.31,1.31,0,0,0-.81-.37v-.94A2.06,2.06,0,0,1,316.31,469.19Z"/><path class="cls-5" d="M316.27,463.3a2.5,2.5,0,0,1,0,3.34,3.66,3.66,0,0,1-4.52,0,2.5,2.5,0,0,1,0-3.34,3.66,3.66,0,0,1,4.52,0Zm-4,.68a1.45,1.45,0,0,0,0,2,3.12,3.12,0,0,0,3.42,0,1.45,1.45,0,0,0,0-2,3.07,3.07,0,0,0-3.42,0Z"/><path class="cls-5" d="M316.77,454.17h-3.51c-.78,0-1.31.25-1.31,1.13a1.1,1.1,0,0,0,.37.83,2.08,2.08,0,0,0,1.52.47h2.93v.93h-3.51c-.78,0-1.31.23-1.31,1.11a1.18,1.18,0,0,0,.49.94,2.47,2.47,0,0,0,1.4.37h2.93v.93h-5.52v-.81L312,460a1.67,1.67,0,0,1-.93-1.54,1.6,1.6,0,0,1,1.05-1.65,1.82,1.82,0,0,1-1.05-1.7c0-1.26.81-1.84,2-1.84h3.63Z"/><path class="cls-5" d="M316.91,451.35v.75l-8-3.36V448Z"/><path class="cls-5" d="M316.77,447.32H316l-3.89-3.21v3.21h-.81V443h.82l3.89,3.19V443h.81Z"/><path class="cls-5" d="M314.32,437v3.9a2.06,2.06,0,0,0,1.38-.53,1.4,1.4,0,0,0,.39-1,1.38,1.38,0,0,0-.36-1,1.11,1.11,0,0,0-.6-.33V437a2.06,2.06,0,0,1,1.37.86,2.53,2.53,0,0,1,.41,1.4,2.34,2.34,0,0,1-.83,1.83,3.1,3.1,0,0,1-2.05.69,3.31,3.31,0,0,1-1.76-.43,2.35,2.35,0,0,1-1.16-2.08,2.22,2.22,0,0,1,.71-1.68,2.83,2.83,0,0,1,1.94-.69Zm-1.92,1.27a1.3,1.3,0,0,0-.5,1.09,1.53,1.53,0,0,0,1.62,1.52v-2.95A1.91,1.91,0,0,0,312.4,438.22Z"/><path class="cls-5" d="M314.32,430.9v3.91a2,2,0,0,0,1.38-.54,1.57,1.57,0,0,0,0-2,1.11,1.11,0,0,0-.6-.32V431a2,2,0,0,1,1.37.85,2.54,2.54,0,0,1,.41,1.41,2.37,2.37,0,0,1-.83,1.83,3.1,3.1,0,0,1-2.05.69,3.31,3.31,0,0,1-1.76-.43,2.35,2.35,0,0,1-1.16-2.08,2.2,2.2,0,0,1,.71-1.68,2.83,2.83,0,0,1,1.94-.7Zm-1.92,1.28a1.3,1.3,0,0,0-.5,1.09,1.53,1.53,0,0,0,1.62,1.51v-2.94A1.91,1.91,0,0,0,312.4,432.18Z"/><path class="cls-5" d="M314.32,424.86v3.9a2,2,0,0,0,1.38-.53,1.58,1.58,0,0,0,0-2,1.18,1.18,0,0,0-.6-.33V425a2,2,0,0,1,1.37.85,2.53,2.53,0,0,1,.41,1.4,2.37,2.37,0,0,1-.83,1.84,3.15,3.15,0,0,1-2.05.68,3.4,3.4,0,0,1-1.76-.42,2.36,2.36,0,0,1-1.16-2.08,2.2,2.2,0,0,1,.71-1.68,2.83,2.83,0,0,1,1.94-.7Zm-1.92,1.28a1.27,1.27,0,0,0-.5,1.09,1.53,1.53,0,0,0,1.62,1.51V425.8A1.91,1.91,0,0,0,312.4,426.14Z"/><path class="cls-5" d="M316.77,419.72h-3.5c-.83,0-1.32.34-1.32,1.21a1.35,1.35,0,0,0,.85,1.2,3.55,3.55,0,0,0,1.41.2h2.56v.92h-5.52v-.8l.83-.08a1.87,1.87,0,0,1-1-1.67,1.78,1.78,0,0,1,2-1.91h3.63Z"/><path class="cls-5" d="M316.29,413.19a2.89,2.89,0,0,1,0,3.58,1.8,1.8,0,0,1-1.27.54v-.93a1.06,1.06,0,0,0,.87-.45,1.78,1.78,0,0,0,.25-1,1.49,1.49,0,0,0-.31-1,.79.79,0,0,0-.6-.27c-.41,0-.71.29-.78.86,0,.24-.11.86-.17,1.24a1.43,1.43,0,0,1-1.48,1.35,1.56,1.56,0,0,1-1.08-.46,2.23,2.23,0,0,1-.61-1.62,2.21,2.21,0,0,1,.7-1.76,1.57,1.57,0,0,1,1.06-.39v.93a1,1,0,0,0-.69.32,1.26,1.26,0,0,0-.3.9,1.4,1.4,0,0,0,.11.64.83.83,0,0,0,.74.56c.46,0,.66-.28.72-.74s.09-.74.19-1.33a1.57,1.57,0,0,1,2.65-1Z"/><path class="cls-5" d="M316.77,407.59h-3.5c-.83,0-1.32.34-1.32,1.21a1.35,1.35,0,0,0,.85,1.2,3.55,3.55,0,0,0,1.41.2h2.56v.92H308.9v-.92H312a1.91,1.91,0,0,1-.87-1.62,1.79,1.79,0,0,1,2-1.92h3.63Z"/><path class="cls-5" d="M316.27,401a2.5,2.5,0,0,1,0,3.34,3.66,3.66,0,0,1-4.52,0,2.5,2.5,0,0,1,0-3.34,3.66,3.66,0,0,1,4.52,0Zm-4,.68a1.45,1.45,0,0,0,0,2,3.12,3.12,0,0,0,3.42,0,1.45,1.45,0,0,0,0-2,3.12,3.12,0,0,0-3.42,0Z"/><path class="cls-5" d="M316.37,394.52a2.21,2.21,0,0,1,.55,1.52,1.91,1.91,0,0,1-.78,1.6h3v.93h-7.87v-.82l.72-.07a1.93,1.93,0,0,1-.86-1.64,2.1,2.1,0,0,1,.6-1.56,3.71,3.71,0,0,1,4.65,0Zm-4.46,1.67a1.28,1.28,0,0,0,.36.9,2.29,2.29,0,0,0,1.75.61,2.33,2.33,0,0,0,1.76-.61,1.33,1.33,0,0,0,.36-.9c0-1.23-1.1-1.56-2.12-1.56S311.91,395,311.91,396.19Z"/><path class="cls-5" d="M310,356.53H308.9v-1.08H310Zm6.78-.07h-5.52v-.95h5.52Z"/><path class="cls-5" d="M316.77,350.12h-3.5c-.83,0-1.32.34-1.32,1.22a1.35,1.35,0,0,0,.85,1.19,3.55,3.55,0,0,0,1.41.2h2.56v.93h-5.52v-.81l.83-.08a1.86,1.86,0,0,1-1-1.66,1.78,1.78,0,0,1,2-1.91h3.63Z"/><path class="cls-5" d="M316.29,343.8a2.44,2.44,0,0,1,.62,1.8,2.47,2.47,0,0,1-.62,1.79,1.83,1.83,0,0,1-1.27.53V347a1.08,1.08,0,0,0,.87-.44,1.82,1.82,0,0,0,.25-1,1.49,1.49,0,0,0-.31-1,.79.79,0,0,0-.6-.27c-.41,0-.71.29-.78.86,0,.24-.11.86-.17,1.24a1.43,1.43,0,0,1-1.48,1.35,1.59,1.59,0,0,1-1.08-.45,2.26,2.26,0,0,1-.61-1.63,2.18,2.18,0,0,1,.7-1.75,1.57,1.57,0,0,1,1.06-.4v.93a1,1,0,0,0-.69.32,1.26,1.26,0,0,0-.3.9,1.4,1.4,0,0,0,.11.64.83.83,0,0,0,.74.56c.46,0,.66-.28.72-.74s.09-.74.19-1.33a1.57,1.57,0,0,1,2.65-1Z"/><path class="cls-5" d="M316.85,340.19a1.36,1.36,0,0,1-1.5,1.51h-3.3v1.07h-.8V341.7h-1.4l-.22-.92h1.62v-1.64h.8v1.64h3.19c.54,0,.75-.23.75-.75a7.24,7.24,0,0,0-.09-.94h.79A3.72,3.72,0,0,1,316.85,340.19Z"/><path class="cls-5" d="M316.85,333.9a.79.79,0,0,1-.84.8v0a2,2,0,0,1,.9,1.78,1.73,1.73,0,0,1-1.7,1.9c-.71,0-1.64-.46-1.72-2l-.1-1.68H313a1.09,1.09,0,0,0-.84.29,1.21,1.21,0,0,0-.29.9,1.38,1.38,0,0,0,.33,1,.9.9,0,0,0,.66.27v.9a1.59,1.59,0,0,1-1.15-.48,2.37,2.37,0,0,1-.59-1.7,1.92,1.92,0,0,1,1.06-1.94,2.08,2.08,0,0,1,.85-.16h2.67c.29,0,.37-.12.37-.31a1.62,1.62,0,0,0,0-.24h.68A1.3,1.3,0,0,1,316.85,333.9Zm-2.74.85.09,1.49c0,.55.29,1.21,1,1.21.49,0,.95-.31.95-1.09a1.59,1.59,0,0,0-.45-1.14,1.82,1.82,0,0,0-1.25-.47Z"/><path class="cls-5" d="M318.7,327.75a3.27,3.27,0,0,1,.64,2.23,2.92,2.92,0,0,1-.64,2.09,1.38,1.38,0,0,1-2.2-.39,1,1,0,0,1-.93.64,1.21,1.21,0,0,1-1.07-.73,2,2,0,0,1-1.43.63,1.81,1.81,0,0,1-1.34-.52,2.18,2.18,0,0,1-.62-1.64,2.31,2.31,0,0,1,.33-1.26,1.18,1.18,0,0,1-.78-1.14,1.31,1.31,0,0,1,0-.27h.75a1.34,1.34,0,0,0,0,.21.63.63,0,0,0,.5.68,1.75,1.75,0,0,1,1.14-.36,1.92,1.92,0,0,1,1.32.5,2.16,2.16,0,0,1,.66,1.64,2.46,2.46,0,0,1-.16.93.62.62,0,0,0,.49.47c.48,0,.54-.48.55-.83s0-1.09,0-1.09a2.56,2.56,0,0,1,.58-1.82,1.49,1.49,0,0,1,1.08-.44A1.54,1.54,0,0,1,318.7,327.75Zm-6.84,2.32a1.22,1.22,0,1,0,1.21-1.25A1.17,1.17,0,0,0,311.86,330.07Zm4.85-.15v1a1,1,0,0,0,.88.69.73.73,0,0,0,.57-.23,2.11,2.11,0,0,0,.39-1.47,2.25,2.25,0,0,0-.4-1.5.76.76,0,0,0-.56-.23C316.65,328.19,316.71,329.22,316.71,329.92Z"/><path class="cls-5" d="M312.11,323.81a1.52,1.52,0,0,0,.44,1.05,2.46,2.46,0,0,0,1.77.5h2.45v.92h-5.52v-.82l1-.08a1.71,1.71,0,0,1-1-1.64,3.15,3.15,0,0,1,0-.44h.91A2.21,2.21,0,0,0,312.11,323.81Z"/><path class="cls-5" d="M316.85,318.25a.79.79,0,0,1-.84.8v0a2,2,0,0,1,.9,1.78,1.73,1.73,0,0,1-1.7,1.89c-.71,0-1.64-.45-1.72-2l-.1-1.68H313a1.08,1.08,0,0,0-.84.28,1.24,1.24,0,0,0-.29.91,1.33,1.33,0,0,0,.33,1,.87.87,0,0,0,.66.28v.9a1.63,1.63,0,0,1-1.15-.48,2.37,2.37,0,0,1-.59-1.7,1.92,1.92,0,0,1,1.06-1.94,2.08,2.08,0,0,1,.85-.16h2.67c.29,0,.37-.12.37-.31a1.43,1.43,0,0,0,0-.24h.68A1.27,1.27,0,0,1,316.85,318.25Zm-2.74.85.09,1.48c0,.56.29,1.21,1,1.21.49,0,.95-.3.95-1.09a1.57,1.57,0,0,0-.45-1.13,1.78,1.78,0,0,0-1.25-.47Z"/><path class="cls-5" d="M316.77,309.63h-3.51c-.78,0-1.31.26-1.31,1.13a1.12,1.12,0,0,0,.37.84,2.12,2.12,0,0,0,1.52.47h2.93V313h-3.51c-.78,0-1.31.23-1.31,1.11a1.18,1.18,0,0,0,.49.94,2.47,2.47,0,0,0,1.4.37h2.93v.93h-5.52v-.81l.79-.08a1.69,1.69,0,0,1-.93-1.55,1.6,1.6,0,0,1,1.05-1.65,1.81,1.81,0,0,1-1.05-1.7c0-1.25.81-1.84,2-1.84h3.63Z"/><path class="cls-5" d="M316.77,307h-1.3V305.7h1.3Z"/><path class="cls-5" d="M316.31,300.26a2.21,2.21,0,0,1,.6,1.59,2.3,2.3,0,0,1-1,2,4,4,0,0,1-3.72,0,2.27,2.27,0,0,1-1-2,2.18,2.18,0,0,1,.59-1.57,2.07,2.07,0,0,1,1.42-.66v.94a1.25,1.25,0,0,0-1.2,1.29,1.35,1.35,0,0,0,.36.95,3,3,0,0,0,3.46,0,1.35,1.35,0,0,0,.36-.95,1.28,1.28,0,0,0-.37-.94,1.31,1.31,0,0,0-.81-.37v-.94A2.06,2.06,0,0,1,316.31,300.26Z"/><path class="cls-5" d="M316.27,294.58a2.5,2.5,0,0,1,0,3.34,3.66,3.66,0,0,1-4.52,0,2.5,2.5,0,0,1,0-3.34,3.63,3.63,0,0,1,4.52,0Zm-4,.68a1.33,1.33,0,0,0-.39,1,1.36,1.36,0,0,0,.39,1,3.12,3.12,0,0,0,3.42,0,1.36,1.36,0,0,0,.39-1,1.33,1.33,0,0,0-.39-1,3.07,3.07,0,0,0-3.42,0Z"/><path class="cls-5" d="M316.77,285.66h-3.51c-.78,0-1.31.25-1.31,1.12a1.12,1.12,0,0,0,.37.84,2.12,2.12,0,0,0,1.52.47h2.93V289h-3.51c-.78,0-1.31.22-1.31,1.11a1.19,1.19,0,0,0,.49.94,2.47,2.47,0,0,0,1.4.37h2.93v.92h-5.52v-.8l.79-.09a1.69,1.69,0,0,1-.93-1.55,1.6,1.6,0,0,1,1.05-1.65,1.81,1.81,0,0,1-1.05-1.7c0-1.25.81-1.84,2-1.84h3.63Z"/><path class="cls-5" d="M316.91,283.05v.74l-8-3.36v-.74Z"/><path class="cls-5" d="M316.77,279.22H316L312.06,276v3.21h-.81v-4.33h.82l3.89,3.19v-3.22h.81Z"/><path class="cls-5" d="M314.32,269.05V273a2,2,0,0,0,1.38-.54,1.57,1.57,0,0,0,0-2,1.11,1.11,0,0,0-.6-.32v-.91a2.08,2.08,0,0,1,1.37.85,2.57,2.57,0,0,1,.41,1.41,2.35,2.35,0,0,1-.83,1.83,3.1,3.1,0,0,1-2.05.69,3.31,3.31,0,0,1-1.76-.43,2.35,2.35,0,0,1-1.16-2.08,2.2,2.2,0,0,1,.71-1.68,2.83,2.83,0,0,1,1.94-.7Zm-1.92,1.28a1.3,1.3,0,0,0-.5,1.09,1.54,1.54,0,0,0,1.62,1.52V270A1.91,1.91,0,0,0,312.4,270.33Z"/><path class="cls-5" d="M314.32,263.22v3.9a2.06,2.06,0,0,0,1.38-.53,1.58,1.58,0,0,0,0-2,1.18,1.18,0,0,0-.6-.33v-.9a2,2,0,0,1,1.37.85,2.53,2.53,0,0,1,.41,1.4,2.34,2.34,0,0,1-.83,1.83,3.1,3.1,0,0,1-2.05.69,3.4,3.4,0,0,1-1.76-.42,2.38,2.38,0,0,1-1.16-2.09,2.22,2.22,0,0,1,.71-1.68,2.88,2.88,0,0,1,1.94-.69Zm-1.92,1.27a1.3,1.3,0,0,0-.5,1.09,1.53,1.53,0,0,0,1.62,1.52v-2.94A2,2,0,0,0,312.4,264.49Z"/><path class="cls-5" d="M314.32,257.38v3.9a2,2,0,0,0,1.38-.53,1.57,1.57,0,0,0,0-2,1.18,1.18,0,0,0-.6-.33v-.9a2,2,0,0,1,1.37.85,2.54,2.54,0,0,1,.41,1.41,2.37,2.37,0,0,1-.83,1.83,3.1,3.1,0,0,1-2.05.69,3.31,3.31,0,0,1-1.76-.43,2.35,2.35,0,0,1-1.16-2.08,2.2,2.2,0,0,1,.71-1.68,2.83,2.83,0,0,1,1.94-.7Zm-1.92,1.28a1.3,1.3,0,0,0-.5,1.09,1.53,1.53,0,0,0,1.62,1.51v-2.94A1.91,1.91,0,0,0,312.4,258.66Z"/><path class="cls-5" d="M316.77,252.45h-3.5c-.83,0-1.32.34-1.32,1.21a1.36,1.36,0,0,0,.85,1.2,3.55,3.55,0,0,0,1.41.2h2.56V256h-5.52v-.8l.83-.08a1.87,1.87,0,0,1-1-1.67,1.78,1.78,0,0,1,2-1.91h3.63Z"/><path class="cls-5" d="M316.29,246.12a2.91,2.91,0,0,1,0,3.59,1.79,1.79,0,0,1-1.27.53v-.92a1.09,1.09,0,0,0,.87-.45,1.78,1.78,0,0,0,.25-1,1.53,1.53,0,0,0-.31-1,.79.79,0,0,0-.6-.27c-.41,0-.71.3-.78.86,0,.24-.11.86-.17,1.25a1.43,1.43,0,0,1-1.48,1.35,1.6,1.6,0,0,1-1.08-.46,2.25,2.25,0,0,1-.61-1.62,2.2,2.2,0,0,1,.7-1.76,1.57,1.57,0,0,1,1.06-.39v.92a1,1,0,0,0-.69.32,1.3,1.3,0,0,0-.3.91,1.42,1.42,0,0,0,.11.64.83.83,0,0,0,.74.56c.46,0,.66-.29.72-.75.05-.3.09-.74.19-1.33a1.58,1.58,0,0,1,2.65-1Z"/><path class="cls-5" d="M316.77,240.73h-3.5c-.83,0-1.32.34-1.32,1.21a1.35,1.35,0,0,0,.85,1.2,3.55,3.55,0,0,0,1.41.2h2.56v.93H308.9v-.93H312a1.89,1.89,0,0,1-.87-1.61,1.79,1.79,0,0,1,2-1.92h3.63Z"/><path class="cls-5" d="M316.27,234.34a2.5,2.5,0,0,1,0,3.34,3.66,3.66,0,0,1-4.52,0,2.5,2.5,0,0,1,0-3.34,3.66,3.66,0,0,1,4.52,0Zm-4,.68a1.45,1.45,0,0,0,0,2,3.07,3.07,0,0,0,3.42,0,1.45,1.45,0,0,0,0-2,3.12,3.12,0,0,0-3.42,0Z"/><path class="cls-5" d="M316.37,228.08a2.2,2.2,0,0,1,.55,1.52,1.91,1.91,0,0,1-.78,1.6h3v.93h-7.87v-.82l.72-.07a1.93,1.93,0,0,1-.86-1.64,2.1,2.1,0,0,1,.6-1.56,3.71,3.71,0,0,1,4.65,0Zm-4.46,1.67a1.24,1.24,0,0,0,.36.89,2.26,2.26,0,0,0,1.75.61,2.29,2.29,0,0,0,1.76-.61,1.28,1.28,0,0,0,.36-.89c0-1.23-1.1-1.56-2.12-1.56S311.91,228.52,311.91,229.75Z"/><path d="M666.62,859.53h-5.93l-1.27,3.35h-1.91l5.28-13.63h1.88l5.23,13.63h-2ZM661.29,858H666l-2.33-6.35Z"/><path d="M672.94,862.88h-1.73v-9.74h1.69v1.77a3,3,0,0,1,2.79-1.77h.75v1.64h-.77a2.31,2.31,0,0,0-2,1.07,4.93,4.93,0,0,0-.74,2.89Z"/><path d="M677.82,854.57v-1.43h1.71V850h1.73v3.13h2.46v1.43h-2.46V860a1.62,1.62,0,0,0,.28,1.07,1.17,1.17,0,0,0,.93.31H684v1.48h-1.75a2.71,2.71,0,0,1-2-.67,2.61,2.61,0,0,1-.69-2v-5.69Z"/><path d="M687,851.57h-1.74v-2.32H687Zm0,11.31h-1.74v-9.74H687Z"/><path d="M692.88,863.12a4.74,4.74,0,0,1-3-.87,3.11,3.11,0,0,1-1.22-2.34l1.73-.26a2.41,2.41,0,0,0,.74,1.59,2.65,2.65,0,0,0,1.75.51,2.44,2.44,0,0,0,1.54-.42,1.48,1.48,0,0,0,.53-1.23c0-.78-.57-1.24-1.72-1.4l-1.39-.22a3.89,3.89,0,0,1-2.14-.92,2.43,2.43,0,0,1-.74-1.83,2.48,2.48,0,0,1,1-2,4.94,4.94,0,0,1,5.33,0,3.39,3.39,0,0,1,1.24,2.23l-1.6.23a2.46,2.46,0,0,0-.79-1.43,2.38,2.38,0,0,0-1.53-.43,2.44,2.44,0,0,0-1.44.37,1.25,1.25,0,0,0-.17,1.88,2.29,2.29,0,0,0,1.16.45l1.56.25c2,.32,3,1.25,3,2.79a2.79,2.79,0,0,1-1,2.26A4.23,4.23,0,0,1,692.88,863.12Z"/><path d="M697.17,854.57v-1.43h1.71V850h1.73v3.13h2.46v1.43h-2.46V860a1.62,1.62,0,0,0,.27,1.07,1.2,1.2,0,0,0,.94.31h1.48v1.48h-1.75a2.7,2.7,0,0,1-2-.67,2.61,2.61,0,0,1-.69-2v-5.69Z"/><path d="M706.37,851.57h-1.73v-2.32h1.73Zm0,11.31h-1.73v-9.74h1.73Z"/><path d="M712.73,861.64a2.49,2.49,0,0,0,1.76-.62,2.66,2.66,0,0,0,.8-1.72l1.69.2a3.9,3.9,0,0,1-1.34,2.64,4.36,4.36,0,0,1-2.91,1,4.28,4.28,0,0,1-3.36-1.37,5.33,5.33,0,0,1-1.23-3.7,5.42,5.42,0,0,1,1.25-3.74,4.28,4.28,0,0,1,3.34-1.4,4.47,4.47,0,0,1,2.95.93,4,4,0,0,1,1.36,2.65l-1.77.2a2.37,2.37,0,0,0-2.56-2.3,2.43,2.43,0,0,0-2.05,1,4.36,4.36,0,0,0-.73,2.7,4.15,4.15,0,0,0,.74,2.64A2.47,2.47,0,0,0,712.73,861.64Z"/><path d="M727,861.44h.47v1.44h-.94a2.21,2.21,0,0,1-1.29-.36,1.41,1.41,0,0,1-.58-1,3.4,3.4,0,0,1-3.08,1.62,3.64,3.64,0,0,1-2.45-.79,2.58,2.58,0,0,1-.93-2.05,2.72,2.72,0,0,1,.76-2,3.87,3.87,0,0,1,2.17-1l2.85-.48a.67.67,0,0,0,.61-.71,1.66,1.66,0,0,0-.57-1.29,2.3,2.3,0,0,0-1.56-.5,2.48,2.48,0,0,0-1.57.45,2.26,2.26,0,0,0-.8,1.36l-1.65-.19a3.4,3.4,0,0,1,1.33-2.18,4.45,4.45,0,0,1,2.75-.82,3.91,3.91,0,0,1,2.76.93,3.22,3.22,0,0,1,1,2.48v4.38a.76.76,0,0,0,.16.57A.78.78,0,0,0,727,861.44Zm-7.09-1.29a1.43,1.43,0,0,0,.49,1.16,2.07,2.07,0,0,0,1.38.42,2.57,2.57,0,0,0,2-.89,3.29,3.29,0,0,0,.8-2.29V858l-3.12.55a2,2,0,0,0-1.18.54A1.46,1.46,0,0,0,719.88,860.15Z"/><path d="M730.39,862.88h-1.73V849.25h1.73Z"/><path d="M734.52,862.88h-1.73V849.25h1.73Z"/><path d="M739.33,863.79l.32-.85-3.83-9.8h1.83l2.88,7.66,2.91-7.66h1.75L740.94,864a4.29,4.29,0,0,1-1.32,2,3.26,3.26,0,0,1-2,.55h-1V865h1a1.59,1.59,0,0,0,1.72-1.23Z"/><path d="M752.26,862.88h-1.87V849.25H760v1.59h-7.69v4.44h6.91v1.6h-6.91Z"/><path d="M762.83,862.88H761.1v-9.74h1.69v1.77a3,3,0,0,1,2.79-1.77h.75v1.64h-.77a2.32,2.32,0,0,0-2,1.07,5,5,0,0,0-.74,2.89Z"/><path d="M766.8,858a5.26,5.26,0,0,1,1.28-3.7,4.48,4.48,0,0,1,3.45-1.4,4.54,4.54,0,0,1,3.46,1.4,5.88,5.88,0,0,1,0,7.4,4.51,4.51,0,0,1-3.46,1.41,4.45,4.45,0,0,1-3.45-1.41A5.22,5.22,0,0,1,766.8,858Zm6.93,2.67a4.84,4.84,0,0,0,0-5.33,2.94,2.94,0,0,0-4.38,0,5,5,0,0,0,0,5.34,2.66,2.66,0,0,0,2.18,1A2.7,2.7,0,0,0,773.73,860.68Z"/><path d="M786.07,857.51v5.37h-1.73v-6a2.71,2.71,0,0,0-.56-1.82,1.92,1.92,0,0,0-1.56-.65,2.15,2.15,0,0,0-1.81.79,3.65,3.65,0,0,0-.62,2.31v5.37h-1.74v-9.74h1.7v1.19a3.26,3.26,0,0,1,2.86-1.42,3.66,3.66,0,0,1,1.86.45,2.87,2.87,0,0,1,1.19,1.31,3.3,3.3,0,0,1,3.14-1.76,3.44,3.44,0,0,1,2.62,1,3.72,3.72,0,0,1,1,2.68v6.31h-1.73v-6a2.66,2.66,0,0,0-.57-1.82,1.93,1.93,0,0,0-1.57-.65,2.17,2.17,0,0,0-1.81.79A3.72,3.72,0,0,0,786.07,857.51Z"/><path d="M800.77,862.88H798.9V849.25h1.87Z"/><path d="M805.09,862.88h-1.73v-9.74h1.7v1.77a3,3,0,0,1,2.78-1.77h.75v1.64h-.77a2.29,2.29,0,0,0-2,1.07,4.93,4.93,0,0,0-.75,2.89Z"/><path d="M817.87,861.44h.47v1.44h-.94a2.21,2.21,0,0,1-1.29-.36,1.41,1.41,0,0,1-.58-1,3.4,3.4,0,0,1-3.08,1.62,3.64,3.64,0,0,1-2.45-.79,2.58,2.58,0,0,1-.93-2.05,2.72,2.72,0,0,1,.76-2,3.87,3.87,0,0,1,2.18-1l2.84-.48a.67.67,0,0,0,.61-.71,1.66,1.66,0,0,0-.57-1.29,2.3,2.3,0,0,0-1.56-.5,2.5,2.5,0,0,0-1.57.45,2.31,2.31,0,0,0-.8,1.36l-1.65-.19a3.4,3.4,0,0,1,1.33-2.18,4.45,4.45,0,0,1,2.75-.82,3.91,3.91,0,0,1,2.76.93,3.22,3.22,0,0,1,1,2.48v4.38a.81.81,0,0,0,.16.57A.78.78,0,0,0,817.87,861.44Zm-7.09-1.29a1.43,1.43,0,0,0,.49,1.16,2.07,2.07,0,0,0,1.38.42,2.57,2.57,0,0,0,2-.89,3.29,3.29,0,0,0,.8-2.29V858l-3.12.55a2,2,0,0,0-1.18.54A1.46,1.46,0,0,0,810.78,860.15Z"/><path d="M827.93,856.57v6.31H826.2v-6a2.63,2.63,0,0,0-.59-1.83,2.22,2.22,0,0,0-1.71-.64,2.39,2.39,0,0,0-1.94.79,3.52,3.52,0,0,0-.66,2.31v5.37h-1.74v-9.74h1.7v1.23a3.39,3.39,0,0,1,3-1.46,3.54,3.54,0,0,1,2.67,1A3.64,3.64,0,0,1,827.93,856.57Z"/><path d="M665.24,881.06h-7.65V869.92h7.5v1.31h-6v3.53h5.33V876h-5.33v3.72h6.12Z"/><path d="M670.74,881.26a4.92,4.92,0,0,1-3.19-1,3.37,3.37,0,0,1-1.21-2.66l1.5-.19a2.51,2.51,0,0,0,.8,1.9,3.07,3.07,0,0,0,2.1.66,2.58,2.58,0,0,0,1.73-.54,1.81,1.81,0,0,0,.63-1.45,1.45,1.45,0,0,0-.44-1.14,3.33,3.33,0,0,0-1.53-.65l-1.48-.31a4.32,4.32,0,0,1-2.25-1.1,2.95,2.95,0,0,1,.3-4.18,4,4,0,0,1,2.71-.89,4.29,4.29,0,0,1,2.8.85A3.37,3.37,0,0,1,674.4,873l-1.51.19a2.22,2.22,0,0,0-2.48-2.16,2.59,2.59,0,0,0-1.65.47,1.61,1.61,0,0,0-.59,1.31,1.54,1.54,0,0,0,.43,1.16,2.78,2.78,0,0,0,1.38.63l1.73.37a4.27,4.27,0,0,1,2.21,1,2.66,2.66,0,0,1,.7,1.95,3.06,3.06,0,0,1-1.06,2.39A4.17,4.17,0,0,1,670.74,881.26Z"/><path d="M675.08,869.92h8.46v1.31h-3.46v9.83h-1.52v-9.83h-3.48Z"/><path d="M692.88,872.88a1.75,1.75,0,0,0-.54-1.34,2,2,0,0,0-1.41-.5,2.16,2.16,0,0,0-1.8.77,3.46,3.46,0,0,0-.57,2.24l-1.46-.2a3.61,3.61,0,0,1,3.83-4.11,3.52,3.52,0,0,1,2.53.87,3,3,0,0,1,.95,2.27,4,4,0,0,1-.57,2,9.53,9.53,0,0,1-1.84,2.16l-3,2.74h5.66v1.27h-7.63v-1.3l4-3.68a6.85,6.85,0,0,0,1.41-1.63A3.2,3.2,0,0,0,692.88,872.88Z"/><path d="M696,875.49a7.18,7.18,0,0,1,1.09-4.21,3.84,3.84,0,0,1,6.15,0,7,7,0,0,1,1.11,4.21,7.07,7.07,0,0,1-1.11,4.22,3.85,3.85,0,0,1-6.15,0A7.18,7.18,0,0,1,696,875.49Zm6.14,3.32a8.31,8.31,0,0,0,0-6.63,2.23,2.23,0,0,0-3.93,0,6.51,6.51,0,0,0-.71,3.29,6.61,6.61,0,0,0,.69,3.33,2.26,2.26,0,0,0,4,0Z"/><path d="M712.64,881.06h-6.91v-1.27h2.72v-7.16a2.36,2.36,0,0,1-1.27.3h-1.49v-1.25h1.4a1.3,1.3,0,0,0,1.06-.42,2.13,2.13,0,0,0,.35-1.34H710v9.87h2.67Z"/><path d="M719.7,877.8a1.73,1.73,0,0,0-.58-1.4,2.39,2.39,0,0,0-1.62-.49h-1v-1.16h1a1.84,1.84,0,0,0,1.4-.53,2.07,2.07,0,0,0,.49-1.48,1.6,1.6,0,0,0-.54-1.28,2.17,2.17,0,0,0-1.46-.46,2.3,2.3,0,0,0-1.68.61,2.47,2.47,0,0,0-.68,1.71l-1.38-.3a3.09,3.09,0,0,1,1.08-2.37,4,4,0,0,1,2.69-.91,3.8,3.8,0,0,1,2.54.79,2.68,2.68,0,0,1,.93,2.14,2.87,2.87,0,0,1-.41,1.55,2.54,2.54,0,0,1-1.15,1,2.85,2.85,0,0,1,1.43,1,2.63,2.63,0,0,1,.5,1.6,3.22,3.22,0,0,1-1,2.5,4,4,0,0,1-2.78.94,4.73,4.73,0,0,1-2.86-.83,3.07,3.07,0,0,1-1.25-2.28l1.52-.33a2.28,2.28,0,0,0,.75,1.61,2.62,2.62,0,0,0,1.79.57,2.49,2.49,0,0,0,1.73-.58A2.1,2.1,0,0,0,719.7,877.8Z"/><polyline class="cls-6" points="658.67 820.84 666.83 820.84 659.58 832.2 667.77 832.2"/><polyline class="cls-6" points="680.26 832.2 672.34 832.2 672.31 820.84 680.26 820.84"/><line class="cls-6" x1="680.27" y1="826.52" x2="672.31" y2="826.52"/><polyline class="cls-6" points="692.76 832.2 684.81 832.2 684.81 820.84 692.76 820.84"/><line class="cls-6" x1="692.76" y1="826.52" x2="684.81" y2="826.52"/><polyline class="cls-6" points="705.26 832.2 697.31 832.2 697.31 820.84 705.26 820.84"/><line class="cls-6" x1="705.26" y1="826.52" x2="697.31" y2="826.52"/><polyline class="cls-6" points="717.76 819.7 717.76 832.2 717.35 832.2 710.22 820.84 709.81 820.84 709.81 833.34"/><line class="cls-7" x1="393.09" y1="978.07" x2="393.09" y2="101.93"/><line class="cls-7" x1="561.7" y1="810.57" x2="225.6" y2="810.57"/><polyline class="cls-7" points="560.59 978.07 393.09 810.57 225.6 978.07"/></g></svg>