<?xml version="1.0" encoding="utf-8"?>
<!-- Generator: Adobe Illustrator 25.0.0, SVG Export Plug-In . SVG Version: 6.00 Build 0)  -->
<svg version="1.1" id="Graphic" xmlns="http://www.w3.org/2000/svg" xmlns:xlink="http://www.w3.org/1999/xlink" x="0px" y="0px"
	 viewBox="0 0 1920 1080" style="enable-background:new 0 0 1920 1080;" xml:space="preserve">
<style type="text/css">
	.st0{fill:#FFFFFF;}
	.st1{fill:#4672E2;}
	.st2{fill:#061F6B;}
	.st3{fill:none;stroke:url(#SVGID_1_);stroke-miterlimit:10;}
	.st4{fill:none;stroke:url(#SVGID_2_);stroke-miterlimit:10;}
	.st5{fill:none;stroke:url(#SVGID_3_);stroke-miterlimit:10;}
	.st6{fill:none;stroke:url(#SVGID_4_);stroke-miterlimit:10;}
	.st7{fill:none;stroke:url(#SVGID_5_);stroke-miterlimit:10;}
	.st8{fill:none;stroke:url(#SVGID_6_);stroke-miterlimit:10;}
	.st9{fill:none;stroke:url(#SVGID_7_);stroke-miterlimit:10;}
	.st10{fill:none;stroke:url(#SVGID_8_);stroke-miterlimit:10;}
	.st11{fill:none;stroke:url(#SVGID_9_);stroke-miterlimit:10;}
	.st12{fill:none;stroke:url(#SVGID_10_);stroke-miterlimit:10;}
	.st13{fill:none;stroke:url(#SVGID_11_);stroke-miterlimit:10;}
	.st14{fill:none;stroke:url(#SVGID_12_);stroke-miterlimit:10;}
</style>
<rect x="249.1" y="254.2" class="st0" width="54.4" height="13.6"/>
<rect x="249.1" y="295" class="st0" width="54.4" height="13.6"/>
<rect x="246.6" y="274.6" transform="matrix(0.7721 -0.6355 0.6355 0.7721 -115.8887 239.7413)" class="st0" width="59.3" height="13.6"/>
<rect x="194.6" y="199.8" class="st0" width="54.4" height="13.6"/>
<rect x="194.6" y="240.6" class="st0" width="54.4" height="13.6"/>
<rect x="192.2" y="220.2" transform="matrix(0.7721 -0.6355 0.6355 0.7721 -93.7222 192.7517)" class="st0" width="59.3" height="13.6"/>
<rect x="1670.9" y="825.7" class="st0" width="54.4" height="13.6"/>
<rect x="1670.9" y="866.5" class="st0" width="54.4" height="13.6"/>
<rect x="1668.5" y="846.3" transform="matrix(0.769 -0.6392 0.6392 0.769 -153.073 1282.4922)" class="st0" width="59.4" height="13.6"/>
<rect x="1616.5" y="771.3" class="st0" width="54.4" height="13.6"/>
<rect x="1616.5" y="812.1" class="st0" width="54.4" height="13.6"/>
<rect x="1614" y="791.6" transform="matrix(0.7721 -0.6355 0.6355 0.7721 -132.7917 1226.6224)" class="st0" width="59.3" height="13.6"/>
<path class="st1" d="M1381.6,771.3h-3.3l-4.6-15.1h3.3l3.1,10.8l3.2-10.8h3.2l3.1,10.8l3.2-10.8h3.3l-4.7,15.1h-3.3l-3.2-10.6
	L1381.6,771.3z"/>
<path class="st1" d="M1401.8,754h-3.3v-3.7h3.3V754z M1401.8,771.3h-3.3v-15.1h3.3V771.3z"/>
<path class="st1" d="M1404.3,758.9v-2.7h2.5v-4.8h3.3v4.8h3.5v2.7h-3.5v7.8c0,0.5,0.1,1,0.4,1.5c0.4,0.3,0.8,0.5,1.3,0.4h2.2v2.8
	h-2.8c-2.9,0-4.3-1.4-4.3-4.2v-8.2H1404.3z"/>
<path class="st1" d="M1430,761.5v9.8h-3.3v-9.2c0.1-0.9-0.2-1.8-0.8-2.5c-0.6-0.6-1.5-0.9-2.3-0.9c-1-0.1-2,0.3-2.7,1.1
	c-0.7,0.9-1,2-0.9,3.2v8.4h-3.3v-21h3.4v7.6c1.1-1.4,2.7-2.1,4.4-2c1.5-0.1,3,0.5,4.1,1.5C1429.6,758.5,1430.1,760,1430,761.5z"/>
<path class="st1" d="M1446.9,768.9c0.9,0,1.8-0.3,2.4-0.8c0.6-0.6,1-1.5,1.1-2.4l3.2,0.4c-0.2,1.6-1,3.1-2.2,4.1
	c-1.3,1-2.9,1.6-4.6,1.5c-2,0.1-3.9-0.7-5.3-2.1c-2.6-3.4-2.6-8.1,0-11.5c1.4-1.5,3.3-2.3,5.3-2.2c1.7-0.1,3.4,0.4,4.7,1.5
	c1.2,1.1,2,2.6,2.2,4.2l-3.3,0.4c-0.4-2.2-1.6-3.3-3.6-3.3c-1.1-0.1-2.2,0.5-2.9,1.4c-0.7,1.1-1.1,2.5-1,3.8c-0.1,1.3,0.3,2.6,1,3.8
	C1444.6,768.4,1445.7,768.9,1446.9,768.9z"/>
<path class="st1" d="M1455.7,763.8c-0.1-2.1,0.6-4.2,2-5.7c3.1-3,7.9-3,11,0c2.7,3.3,2.7,8.1,0,11.4c-3.1,2.9-7.9,2.9-10.9,0
	C1456.4,767.9,1455.6,765.9,1455.7,763.8z M1467.3,763.8c0.1-1.4-0.3-2.7-1.1-3.8c-1.5-1.7-4-1.9-5.7-0.4c-0.1,0.1-0.3,0.2-0.4,0.4
	c-0.8,1.1-1.2,2.5-1.1,3.8c-0.1,1.3,0.3,2.7,1.1,3.8c1.5,1.7,4.1,1.8,5.8,0.3c0.1-0.1,0.2-0.2,0.3-0.3
	C1467,766.5,1467.4,765.1,1467.3,763.8z"/>
<path class="st1" d="M1486.8,762.9v8.4h-3.3v-9.2c0.1-0.9-0.2-1.8-0.8-2.5c-0.6-0.6-1.4-0.9-2.2-0.9c-1-0.1-1.9,0.3-2.5,1.1
	c-0.6,0.9-0.9,2-0.8,3.2v8.4h-3.3v-15.1h3.1v1.8c1-1.4,2.6-2.2,4.3-2.1c1,0,2,0.2,2.8,0.7c0.8,0.4,1.4,1.1,1.8,1.9
	c0.9-1.7,2.8-2.7,4.8-2.6c1.5-0.1,3,0.5,4.1,1.5c1,1.1,1.6,2.6,1.5,4.2v9.8h-3.3v-9.2c0.1-0.9-0.2-1.8-0.8-2.5
	c-0.6-0.6-1.4-0.9-2.2-0.9c-1-0.1-1.9,0.3-2.5,1.1C1487,760.7,1486.7,761.8,1486.8,762.9z"/>
<path class="st1" d="M1508.3,755.8c1.9-0.1,3.7,0.7,4.9,2.1c1.3,1.6,1.9,3.6,1.8,5.7c0.1,2.1-0.6,4.1-1.9,5.8
	c-1.2,1.5-3,2.3-4.9,2.2c-1.8,0.1-3.6-0.8-4.7-2.3v7.5h-3.3v-20.6h3.2v2.2C1504.5,756.7,1506.3,755.8,1508.3,755.8z M1510.6,767.5
	c0.8-1.1,1.1-2.4,1.1-3.7c0.1-1.3-0.3-2.6-1.1-3.7c-0.7-0.9-1.8-1.4-2.9-1.4c-1.2,0-2.3,0.5-3,1.4c-0.8,1.1-1.2,2.4-1.1,3.7
	c-0.1,1.3,0.3,2.6,1.2,3.7c0.7,0.9,1.8,1.4,3,1.4C1508.8,768.9,1509.9,768.4,1510.6,767.5z"/>
<path class="st1" d="M1521.5,771.3h-3.3v-21h3.3V771.3z"/>
<path class="st1" d="M1528.9,754h-3.3v-3.7h3.3V754z M1528.9,771.3h-3.3v-15.1h3.3V771.3z"/>
<path class="st1" d="M1545.8,762.9v8.4h-3.3v-9.2c0.1-0.9-0.2-1.8-0.8-2.5c-0.6-0.6-1.4-0.9-2.2-0.9c-1-0.1-1.9,0.3-2.5,1.1
	c-0.6,0.9-0.9,2-0.9,3.2v8.4h-3.3v-15.1h3.2v1.8c1-1.4,2.6-2.2,4.3-2.1c1,0,2,0.2,2.8,0.7c0.8,0.4,1.4,1.1,1.8,1.9
	c0.9-1.7,2.8-2.8,4.8-2.6c1.5-0.1,3,0.5,4.1,1.5c1,1.1,1.6,2.6,1.5,4.2v9.8h-3.3v-9.2c0.1-0.9-0.2-1.8-0.8-2.5
	c-0.6-0.6-1.4-0.9-2.2-0.9c-1-0.1-1.9,0.3-2.5,1.1C1546.1,760.7,1545.8,761.8,1545.8,762.9z"/>
<path class="st1" d="M1565.9,769c0.8,0,1.6-0.2,2.3-0.6c0.6-0.5,1.1-1.2,1.2-2l3,0.6c-0.3,1.4-1.1,2.6-2.2,3.4
	c-3.1,1.9-7,1.6-9.7-0.8c-1.4-1.6-2.1-3.7-1.9-5.9c-0.1-2.1,0.6-4.1,2-5.7c1.4-1.5,3.3-2.3,5.3-2.2c1.9-0.1,3.7,0.6,5,2
	c1.3,1.5,1.9,3.4,1.8,5.4v1.3h-11C1561.9,767.5,1563.3,769,1565.9,769z M1565.8,758.4c-2.3,0-3.6,1.3-4,3.8h7.5
	C1569.1,759.7,1567.9,758.5,1565.8,758.4L1565.8,758.4z"/>
<path class="st1" d="M1589.2,761.5v9.8h-3.3v-9.2c0.1-0.9-0.2-1.8-0.8-2.5c-0.6-0.6-1.5-0.9-2.3-0.9c-1-0.1-2,0.3-2.7,1.1
	c-0.7,0.9-1,2-0.9,3.2v8.4h-3.3v-15.1h3.2v1.8c1.1-1.4,2.8-2.3,4.6-2.2c1.5-0.1,3,0.5,4.1,1.5C1588.7,758.5,1589.3,760,1589.2,761.5
	z"/>
<path class="st1" d="M1591.4,758.9v-2.7h2.5v-4.8h3.3v4.8h3.5v2.7h-3.5v7.8c-0.1,0.5,0.1,1,0.4,1.5c0.3,0.3,0.8,0.5,1.3,0.4h2.2v2.8
	h-2.8c-2.9,0-4.3-1.4-4.3-4.2v-8.2H1591.4z"/>
<path class="st1" d="M1609.3,771.7c-1.7,0.1-3.4-0.4-4.8-1.3c-1.2-0.9-1.9-2.2-1.9-3.6l3.3-0.4c0,0.8,0.4,1.6,1,2.1
	c0.7,0.5,1.5,0.7,2.4,0.7c0.8,0.1,1.5-0.1,2.1-0.6c0.5-0.4,0.8-1,0.7-1.6c0-1-0.8-1.6-2.3-1.8l-2.2-0.4c-1.2-0.1-2.4-0.7-3.3-1.5
	c-0.8-0.7-1.2-1.8-1.2-2.8c0-1.3,0.6-2.5,1.6-3.2c1.2-0.9,2.8-1.4,4.3-1.3c1.5-0.1,3,0.3,4.2,1.2c1.1,0.9,1.8,2.1,1.9,3.5l-3,0.4
	c-0.1-0.7-0.5-1.4-1.1-1.9c-0.6-0.4-1.4-0.7-2.1-0.6c-0.7,0-1.4,0.1-2,0.5c-0.4,0.3-0.7,0.8-0.7,1.3c0,0.4,0.2,0.9,0.5,1.2
	c0.5,0.3,1,0.6,1.6,0.6l2.5,0.5c3.1,0.6,4.6,2,4.6,4.3c0.1,1.4-0.5,2.7-1.6,3.6C1612.5,771.3,1610.9,771.7,1609.3,771.7z"/>
<path class="st2" d="M647.1,199.8h625.9l0,0v312.9c0,172.8-140.1,312.9-312.9,312.9c0,0,0,0,0,0l0,0
	c-172.8,0-312.9-140.1-312.9-312.9V199.8L647.1,199.8z"/>
<linearGradient id="SVGID_1_" gradientUnits="userSpaceOnUse" x1="0" y1="199.84" x2="1920" y2="199.84" gradientTransform="matrix(1 0 0 -1 0 1080)">
	<stop  offset="0" style="stop-color:#FFFFFF;stop-opacity:0"/>
	<stop  offset="0.51" style="stop-color:#FFFFFF"/>
	<stop  offset="1" style="stop-color:#FFFFFF;stop-opacity:0"/>
</linearGradient>
<line class="st3" x1="0" y1="880.2" x2="1920" y2="880.2"/>
<linearGradient id="SVGID_2_" gradientUnits="userSpaceOnUse" x1="0" y1="254.27" x2="1920" y2="254.27" gradientTransform="matrix(1 0 0 -1 0 1080)">
	<stop  offset="0" style="stop-color:#FFFFFF;stop-opacity:0"/>
	<stop  offset="0.51" style="stop-color:#FFFFFF"/>
	<stop  offset="1" style="stop-color:#FFFFFF;stop-opacity:0"/>
</linearGradient>
<line class="st4" x1="0" y1="825.7" x2="1920" y2="825.7"/>
<linearGradient id="SVGID_3_" gradientUnits="userSpaceOnUse" x1="0" y1="308.67" x2="1920" y2="308.67" gradientTransform="matrix(1 0 0 -1 0 1080)">
	<stop  offset="0" style="stop-color:#FFFFFF;stop-opacity:0"/>
	<stop  offset="0.51" style="stop-color:#FFFFFF"/>
	<stop  offset="1" style="stop-color:#FFFFFF;stop-opacity:0"/>
</linearGradient>
<line class="st5" x1="0" y1="771.3" x2="1920" y2="771.3"/>
<linearGradient id="SVGID_4_" gradientUnits="userSpaceOnUse" x1="-1299.74" y1="1603.24" x2="-219.74" y2="1603.24" gradientTransform="matrix(6.123234e-17 -1 -1 -6.123234e-17 3219.74 -219.74)">
	<stop  offset="0" style="stop-color:#FFFFFF;stop-opacity:0"/>
	<stop  offset="0.51" style="stop-color:#FFFFFF"/>
	<stop  offset="1" style="stop-color:#FFFFFF;stop-opacity:0"/>
</linearGradient>
<line class="st6" x1="1616.5" y1="1080" x2="1616.5" y2="0"/>
<linearGradient id="SVGID_5_" gradientUnits="userSpaceOnUse" x1="-1299.74" y1="2916.26" x2="-219.74" y2="2916.26" gradientTransform="matrix(6.123234e-17 -1 -1 -6.123234e-17 3219.74 -219.74)">
	<stop  offset="0" style="stop-color:#FFFFFF;stop-opacity:0"/>
	<stop  offset="0.51" style="stop-color:#FFFFFF"/>
	<stop  offset="1" style="stop-color:#FFFFFF;stop-opacity:0"/>
</linearGradient>
<line class="st7" x1="303.5" y1="1080" x2="303.5" y2="0"/>
<linearGradient id="SVGID_6_" gradientUnits="userSpaceOnUse" x1="-1299.74" y1="1548.8099" x2="-219.74" y2="1548.8099" gradientTransform="matrix(6.123234e-17 -1 -1 -6.123234e-17 3219.74 -219.74)">
	<stop  offset="0" style="stop-color:#FFFFFF;stop-opacity:0"/>
	<stop  offset="0.51" style="stop-color:#FFFFFF"/>
	<stop  offset="1" style="stop-color:#FFFFFF;stop-opacity:0"/>
</linearGradient>
<line class="st8" x1="1670.9" y1="1080" x2="1670.9" y2="0"/>
<linearGradient id="SVGID_7_" gradientUnits="userSpaceOnUse" x1="-1299.74" y1="1494.41" x2="-219.74" y2="1494.41" gradientTransform="matrix(6.123234e-17 -1 -1 -6.123234e-17 3219.74 -219.74)">
	<stop  offset="0" style="stop-color:#FFFFFF;stop-opacity:0"/>
	<stop  offset="0.51" style="stop-color:#FFFFFF"/>
	<stop  offset="1" style="stop-color:#FFFFFF;stop-opacity:0"/>
</linearGradient>
<line class="st9" x1="1725.3" y1="1080" x2="1725.3" y2="0"/>
<linearGradient id="SVGID_8_" gradientUnits="userSpaceOnUse" x1="-1299.74" y1="2970.6899" x2="-219.74" y2="2970.6899" gradientTransform="matrix(6.123234e-17 -1 -1 -6.123234e-17 3219.74 -219.74)">
	<stop  offset="0" style="stop-color:#FFFFFF;stop-opacity:0"/>
	<stop  offset="0.51" style="stop-color:#FFFFFF"/>
	<stop  offset="1" style="stop-color:#FFFFFF;stop-opacity:0"/>
</linearGradient>
<line class="st10" x1="249.1" y1="1080" x2="249.1" y2="0"/>
<linearGradient id="SVGID_9_" gradientUnits="userSpaceOnUse" x1="-1299.74" y1="3025.0901" x2="-219.74" y2="3025.0901" gradientTransform="matrix(6.123234e-17 -1 -1 -6.123234e-17 3219.74 -219.74)">
	<stop  offset="0" style="stop-color:#FFFFFF;stop-opacity:0"/>
	<stop  offset="0.51" style="stop-color:#FFFFFF"/>
	<stop  offset="1" style="stop-color:#FFFFFF;stop-opacity:0"/>
</linearGradient>
<line class="st11" x1="194.6" y1="1080" x2="194.6" y2="0"/>
<linearGradient id="SVGID_10_" gradientUnits="userSpaceOnUse" x1="0" y1="880.16" x2="1920" y2="880.16" gradientTransform="matrix(1 0 0 -1 0 1080)">
	<stop  offset="0" style="stop-color:#FFFFFF;stop-opacity:0"/>
	<stop  offset="0.51" style="stop-color:#FFFFFF"/>
	<stop  offset="1" style="stop-color:#FFFFFF;stop-opacity:0"/>
</linearGradient>
<line class="st12" x1="0" y1="199.8" x2="1920" y2="199.8"/>
<linearGradient id="SVGID_11_" gradientUnits="userSpaceOnUse" x1="0" y1="825.75" x2="1920" y2="825.75" gradientTransform="matrix(1 0 0 -1 0 1080)">
	<stop  offset="0" style="stop-color:#FFFFFF;stop-opacity:0"/>
	<stop  offset="0.51" style="stop-color:#FFFFFF"/>
	<stop  offset="1" style="stop-color:#FFFFFF;stop-opacity:0"/>
</linearGradient>
<line class="st13" x1="0" y1="254.2" x2="1920" y2="254.2"/>
<linearGradient id="SVGID_12_" gradientUnits="userSpaceOnUse" x1="0" y1="771.35" x2="1920" y2="771.35" gradientTransform="matrix(1 0 0 -1 0 1080)">
	<stop  offset="0" style="stop-color:#FFFFFF;stop-opacity:0"/>
	<stop  offset="0.51" style="stop-color:#FFFFFF"/>
	<stop  offset="1" style="stop-color:#FFFFFF;stop-opacity:0"/>
</linearGradient>
<line class="st14" x1="0" y1="308.6" x2="1920" y2="308.6"/>
</svg>
