<svg xmlns="http://www.w3.org/2000/svg" xmlns:xlink="http://www.w3.org/1999/xlink" viewBox="0 0 1920 1080"><defs><style>.cls-1{fill:#003691;}.cls-2{fill:#fff;}.cls-3{fill:#4672e2;}.cls-4{fill:#061f6b;}.cls-10,.cls-11,.cls-12,.cls-13,.cls-14,.cls-15,.cls-16,.cls-5,.cls-6,.cls-7,.cls-8,.cls-9{fill:none;stroke-miterlimit:10;}.cls-5{stroke:url(#linear-gradient);}.cls-6{stroke:url(#linear-gradient-2);}.cls-7{stroke:url(#linear-gradient-3);}.cls-8{stroke:url(#linear-gradient-4);}.cls-9{stroke:url(#linear-gradient-5);}.cls-10{stroke:url(#linear-gradient-6);}.cls-11{stroke:url(#linear-gradient-7);}.cls-12{stroke:url(#linear-gradient-8);}.cls-13{stroke:url(#linear-gradient-9);}.cls-14{stroke:url(#linear-gradient-10);}.cls-15{stroke:url(#linear-gradient-11);}.cls-16{stroke:url(#linear-gradient-12);}</style><linearGradient id="linear-gradient" y1="880.16" x2="1920" y2="880.16" gradientUnits="userSpaceOnUse"><stop offset="0" stop-color="#fff" stop-opacity="0"/><stop offset="0.51" stop-color="#fff"/><stop offset="1" stop-color="#fff" stop-opacity="0"/></linearGradient><linearGradient id="linear-gradient-2" y1="825.73" y2="825.73" xlink:href="#linear-gradient"/><linearGradient id="linear-gradient-3" y1="771.33" y2="771.33" xlink:href="#linear-gradient"/><linearGradient id="linear-gradient-4" x1="-1299.74" y1="-523.24" x2="-219.74" y2="-523.24" gradientTransform="translate(2139.74 -219.74) rotate(-90)" xlink:href="#linear-gradient"/><linearGradient id="linear-gradient-5" x1="-1299.74" y1="-1836.26" x2="-219.74" y2="-1836.26" gradientTransform="translate(2139.74 -219.74) rotate(-90)" xlink:href="#linear-gradient"/><linearGradient id="linear-gradient-6" x1="-1299.74" y1="-468.81" x2="-219.74" y2="-468.81" gradientTransform="translate(2139.74 -219.74) rotate(-90)" xlink:href="#linear-gradient"/><linearGradient id="linear-gradient-7" x1="-1299.74" y1="-414.4" x2="-219.74" y2="-414.4" gradientTransform="translate(2139.74 -219.74) rotate(-90)" xlink:href="#linear-gradient"/><linearGradient id="linear-gradient-8" x1="-1299.74" y1="-1890.69" x2="-219.74" y2="-1890.69" gradientTransform="translate(2139.74 -219.74) rotate(-90)" xlink:href="#linear-gradient"/><linearGradient id="linear-gradient-9" x1="-1299.74" y1="-1945.09" x2="-219.74" y2="-1945.09" gradientTransform="translate(2139.74 -219.74) rotate(-90)" xlink:href="#linear-gradient"/><linearGradient id="linear-gradient-10" y1="199.84" y2="199.84" xlink:href="#linear-gradient"/><linearGradient id="linear-gradient-11" y1="254.25" y2="254.25" xlink:href="#linear-gradient"/><linearGradient id="linear-gradient-12" y1="308.65" y2="308.65" xlink:href="#linear-gradient"/></defs><g id="Background"><rect class="cls-1" width="1920" height="1080"/><rect class="cls-1" width="1920" height="1080"/></g><g id="Graphic"><rect class="cls-2" x="249.07" y="254.25" width="54.41" height="13.6"/><rect class="cls-2" x="249.07" y="295.05" width="54.41" height="13.6"/><rect class="cls-2" x="246.64" y="274.66" width="59.29" height="13.6" transform="translate(-115.9 239.72) rotate(-39.46)"/><rect class="cls-2" x="194.65" y="199.84" width="54.41" height="13.6"/><rect class="cls-2" x="194.65" y="240.65" width="54.41" height="13.6"/><rect class="cls-2" x="192.21" y="220.26" width="59.29" height="13.6" transform="translate(-93.73 192.73) rotate(-39.46)"/><rect class="cls-2" x="1670.93" y="825.73" width="54.41" height="13.6"/><rect class="cls-2" x="1670.93" y="866.54" width="54.41" height="13.6"/><rect class="cls-2" x="1668.49" y="846.15" width="59.29" height="13.6" transform="matrix(0.77, -0.64, 0.64, 0.77, -155.05, 1273.54)"/><rect class="cls-2" x="1616.5" y="771.33" width="54.41" height="13.6"/><rect class="cls-2" x="1616.5" y="812.13" width="54.41" height="13.6"/><rect class="cls-2" x="1614.07" y="791.74" width="59.29" height="13.6" transform="translate(-132.87 1226.56) rotate(-39.46)"/><path class="cls-3" d="M1381.64,771.3h-3.34l-4.64-15.08H1377l3.12,10.82,3.18-10.82h3.18l3.09,10.76,3.15-10.76H1396l-4.68,15.08H1388l-3.18-10.59Z"/><path class="cls-3" d="M1401.8,754h-3.31V750.3h3.31Zm0,17.28h-3.31V756.22h3.31Z"/><path class="cls-3" d="M1404.3,758.88v-2.66h2.52v-4.75h3.3v4.75h3.52v2.66h-3.52v7.78a2.28,2.28,0,0,0,.37,1.47,1.67,1.67,0,0,0,1.29.42H1414v2.75h-2.84q-4.34,0-4.33-4.17v-8.25Z"/><path class="cls-3" d="M1430,761.55v9.75h-3.31v-9.21a3.59,3.59,0,0,0-.83-2.55,3.05,3.05,0,0,0-2.35-.89,3.3,3.3,0,0,0-2.66,1.08,4.72,4.72,0,0,0-.93,3.15v8.42h-3.31v-21H1420v7.56a5.24,5.24,0,0,1,4.44-2,5.49,5.49,0,0,1,4.13,1.54A5.66,5.66,0,0,1,1430,761.55Z"/><path class="cls-3" d="M1446.86,768.87a3.49,3.49,0,0,0,2.43-.84,3.74,3.74,0,0,0,1.13-2.36l3.18.39a6.29,6.29,0,0,1-2.21,4.12,7,7,0,0,1-4.6,1.49,6.84,6.84,0,0,1-5.31-2.14,9.37,9.37,0,0,1,0-11.48,6.77,6.77,0,0,1,5.3-2.2,7.18,7.18,0,0,1,4.7,1.47,6.28,6.28,0,0,1,2.17,4.2l-3.26.37q-.6-3.27-3.61-3.27a3.36,3.36,0,0,0-2.88,1.36,6.26,6.26,0,0,0-1,3.82,6,6,0,0,0,1,3.75A3.49,3.49,0,0,0,1446.86,768.87Z"/><path class="cls-3" d="M1455.69,763.78a8.1,8.1,0,0,1,2-5.73,7.91,7.91,0,0,1,11,0,9,9,0,0,1,0,11.42,7.93,7.93,0,0,1-10.93,0A8,8,0,0,1,1455.69,763.78Zm11.66,0a6,6,0,0,0-1.1-3.84,4.06,4.06,0,0,0-6.11,0,6,6,0,0,0-1.09,3.83,5.89,5.89,0,0,0,1.09,3.78,4.09,4.09,0,0,0,6.11,0A5.83,5.83,0,0,0,1467.35,763.78Z"/><path class="cls-3" d="M1486.76,762.88v8.42h-3.3v-9.21a3.82,3.82,0,0,0-.76-2.55,2.71,2.71,0,0,0-2.18-.89,3,3,0,0,0-2.5,1.08,5,5,0,0,0-.85,3.15v8.42h-3.31V756.22H1477V758a5,5,0,0,1,4.33-2.11,5.88,5.88,0,0,1,2.85.67,4.46,4.46,0,0,1,1.83,1.94,5.05,5.05,0,0,1,4.76-2.61,5.38,5.38,0,0,1,4.07,1.54,5.73,5.73,0,0,1,1.49,4.16v9.75h-3.3v-9.21a3.82,3.82,0,0,0-.76-2.55,2.73,2.73,0,0,0-2.18-.89,3,3,0,0,0-2.5,1.08A5,5,0,0,0,1486.76,762.88Z"/><path class="cls-3" d="M1508.26,755.85a6.22,6.22,0,0,1,4.93,2.14,8.33,8.33,0,0,1,1.83,5.67,8.67,8.67,0,0,1-1.86,5.78,6.08,6.08,0,0,1-4.9,2.23,5.61,5.61,0,0,1-4.7-2.28v7.47h-3.31V756.22h3.18v2.15A5.57,5.57,0,0,1,1508.26,755.85Zm2.29,11.65a5.94,5.94,0,0,0,1.07-3.72,6,6,0,0,0-1.07-3.74,3.43,3.43,0,0,0-2.89-1.39,3.72,3.72,0,0,0-3,1.39,5.77,5.77,0,0,0-1.13,3.74,5.63,5.63,0,0,0,1.15,3.68,3.71,3.71,0,0,0,3,1.41A3.47,3.47,0,0,0,1510.55,767.5Z"/><path class="cls-3" d="M1521.49,771.3h-3.31v-21h3.31Z"/><path class="cls-3" d="M1528.86,754h-3.31V750.3h3.31Zm0,17.28h-3.31V756.22h3.31Z"/><path class="cls-3" d="M1545.82,762.88v8.42h-3.29v-9.21a3.88,3.88,0,0,0-.76-2.55,2.74,2.74,0,0,0-2.19-.89,3,3,0,0,0-2.49,1.08,5,5,0,0,0-.86,3.15v8.42h-3.31V756.22h3.18V758a4.94,4.94,0,0,1,4.32-2.11,5.88,5.88,0,0,1,2.85.67,4.48,4.48,0,0,1,1.84,1.94,5,5,0,0,1,4.76-2.61,5.37,5.37,0,0,1,4.06,1.54,5.73,5.73,0,0,1,1.49,4.16v9.75h-3.3v-9.21a3.82,3.82,0,0,0-.76-2.55,2.73,2.73,0,0,0-2.18-.89,3,3,0,0,0-2.5,1.08A5,5,0,0,0,1545.82,762.88Z"/><path class="cls-3" d="M1565.86,769a3.69,3.69,0,0,0,2.28-.64,3.47,3.47,0,0,0,1.22-2l3,.63a5.6,5.6,0,0,1-2.22,3.41,8.2,8.2,0,0,1-9.74-.84,8.22,8.22,0,0,1-1.93-5.86,8,8,0,0,1,2-5.7,6.9,6.9,0,0,1,5.34-2.2,6.52,6.52,0,0,1,5,2,7.66,7.66,0,0,1,1.84,5.41v1.32h-11Q1562,769,1565.86,769Zm-.11-10.56q-3.45,0-4,3.85h7.53Q1569,758.46,1565.75,758.46Z"/><path class="cls-3" d="M1589.2,761.55v9.75h-3.31v-9.21a3.64,3.64,0,0,0-.83-2.55,3.07,3.07,0,0,0-2.35-.89,3.33,3.33,0,0,0-2.67,1.08,4.77,4.77,0,0,0-.92,3.15v8.42h-3.31V756.22H1579V758a5.32,5.32,0,0,1,4.57-2.17,5.51,5.51,0,0,1,4.13,1.54A5.7,5.7,0,0,1,1589.2,761.55Z"/><path class="cls-3" d="M1591.38,758.88v-2.66h2.52v-4.75h3.3v4.75h3.51v2.66h-3.51v7.78a2.22,2.22,0,0,0,.37,1.47,1.66,1.66,0,0,0,1.28.42h2.21v2.75h-2.84q-4.32,0-4.32-4.17v-8.25Z"/><path class="cls-3" d="M1609.31,771.67a7.85,7.85,0,0,1-4.78-1.32,4.77,4.77,0,0,1-1.94-3.63l3.31-.4a3.09,3.09,0,0,0,1,2.14,3.66,3.66,0,0,0,2.39.69,3.45,3.45,0,0,0,2.13-.56,2,2,0,0,0,.73-1.64c0-1-.78-1.59-2.32-1.83l-2.25-.39a6.18,6.18,0,0,1-3.35-1.5,3.77,3.77,0,0,1-1.15-2.84,4,4,0,0,1,1.62-3.25,6.7,6.7,0,0,1,4.3-1.29,6.82,6.82,0,0,1,4.22,1.19,5.26,5.26,0,0,1,1.93,3.47l-3,.38a3.32,3.32,0,0,0-1.07-1.93,3.36,3.36,0,0,0-2.14-.62,3.41,3.41,0,0,0-2,.49,1.53,1.53,0,0,0-.7,1.31,1.51,1.51,0,0,0,.48,1.18,3.11,3.11,0,0,0,1.57.62l2.49.46c3.07.56,4.61,2,4.61,4.35a4.4,4.4,0,0,1-1.63,3.6A7,7,0,0,1,1609.31,771.67Z"/><path class="cls-4" d="M647.06,199.84h625.89a0,0,0,0,1,0,0V512.79A312.94,312.94,0,0,1,960,825.73h0A312.94,312.94,0,0,1,647.06,512.79V199.84a0,0,0,0,1,0,0Z"/><line class="cls-5" y1="880.16" x2="1920" y2="880.16"/><line class="cls-6" y1="825.73" x2="1920" y2="825.73"/><line class="cls-7" y1="771.33" x2="1920" y2="771.33"/><line class="cls-8" x1="1616.5" y1="1080" x2="1616.5"/><line class="cls-9" x1="303.48" y1="1080" x2="303.48"/><line class="cls-10" x1="1670.93" y1="1080" x2="1670.93"/><line class="cls-11" x1="1725.33" y1="1080" x2="1725.33"/><line class="cls-12" x1="249.05" y1="1080" x2="249.05"/><line class="cls-13" x1="194.65" y1="1080" x2="194.65"/><line class="cls-14" y1="199.84" x2="1920" y2="199.84"/><line class="cls-15" y1="254.25" x2="1920" y2="254.25"/><line class="cls-16" y1="308.65" x2="1920" y2="308.65"/></g></svg>