<svg xmlns="http://www.w3.org/2000/svg" xmlns:xlink="http://www.w3.org/1999/xlink" viewBox="0 0 1920 1080"><defs><style>.cls-1{fill:#003691;}.cls-2{fill:#fff;}.cls-3{fill:#4672e2;}.cls-10,.cls-11,.cls-4,.cls-5,.cls-6,.cls-7,.cls-8,.cls-9{fill:none;stroke-miterlimit:10;}.cls-4{stroke:url(#linear-gradient);}.cls-5{stroke:url(#linear-gradient-2);}.cls-6{stroke:url(#linear-gradient-3);}.cls-7{stroke:url(#linear-gradient-4);}.cls-8{stroke:url(#linear-gradient-5);}.cls-9{stroke:url(#linear-gradient-6);}.cls-10{stroke:url(#linear-gradient-7);}.cls-11{stroke:url(#linear-gradient-8);}</style><linearGradient id="linear-gradient" y1="929.76" x2="1920" y2="929.76" gradientUnits="userSpaceOnUse"><stop offset="0" stop-color="#fff" stop-opacity="0"/><stop offset="0.51" stop-color="#fff"/><stop offset="1" stop-color="#fff" stop-opacity="0"/></linearGradient><linearGradient id="linear-gradient-2" y1="836.26" y2="836.26" xlink:href="#linear-gradient"/><linearGradient id="linear-gradient-3" x1="716.26" y1="1352.17" x2="1796.26" y2="1352.17" gradientTransform="translate(123.74 1796.26) rotate(-90)" xlink:href="#linear-gradient"/><linearGradient id="linear-gradient-4" x1="716.26" y1="226.81" x2="1796.26" y2="226.81" gradientTransform="translate(123.74 1796.26) rotate(-90)" xlink:href="#linear-gradient"/><linearGradient id="linear-gradient-5" x1="716.26" y1="1445.69" x2="1796.26" y2="1445.69" gradientTransform="translate(123.74 1796.26) rotate(-90)" xlink:href="#linear-gradient"/><linearGradient id="linear-gradient-6" x1="716.26" y1="320.34" x2="1796.26" y2="320.34" gradientTransform="translate(123.74 1796.26) rotate(-90)" xlink:href="#linear-gradient"/><linearGradient id="linear-gradient-7" y1="150.24" y2="150.24" xlink:href="#linear-gradient"/><linearGradient id="linear-gradient-8" y1="244.16" y2="244.16" xlink:href="#linear-gradient"/></defs><g id="Background"><rect class="cls-1" width="1920" height="1080"/></g><g id="Graphic"><rect class="cls-2" x="1507.09" y="867.43" width="62.34" height="15.58"/><rect class="cls-2" x="1507.09" y="914.18" width="62.34" height="15.58"/><rect class="cls-2" x="1504.3" y="890.82" width="67.94" height="15.58" transform="translate(-220.5 1182.35) rotate(-39.46)"/><rect class="cls-2" x="1444.73" y="805.09" width="62.34" height="15.58"/><rect class="cls-2" x="1444.73" y="851.84" width="62.34" height="15.58"/><rect class="cls-2" x="1441.94" y="828.48" width="67.94" height="15.58" transform="translate(-195.09 1128.51) rotate(-39.46)"/><rect class="cls-2" x="412.91" y="212.57" width="62.34" height="15.58"/><rect class="cls-2" x="412.91" y="259.33" width="62.34" height="15.58"/><rect class="cls-2" x="410.12" y="235.96" width="67.94" height="15.58" transform="translate(-53.7 337.77) rotate(-39.46)"/><rect class="cls-2" x="350.55" y="150.24" width="62.34" height="15.58"/><rect class="cls-2" x="350.55" y="196.99" width="62.34" height="15.58"/><rect class="cls-2" x="347.76" y="173.63" width="67.94" height="15.58" transform="translate(-28.3 283.93) rotate(-39.46)"/><path class="cls-3" d="M473,827.29v2.63l-19.88,6.56v-2.79l16.17-5.14-16.17-4.92V821l16.11-4.87-16.11-5.1v-2.75l19.88,6.6v2.6l-16,4.92Z"/><path class="cls-3" d="M473,797.34V800l-19.88,6.56v-2.79l16.17-5.14-16.17-4.92v-2.6l16.11-4.86-16.11-5.1v-2.75L473,785v2.6l-16,4.92Z"/><path class="cls-3" d="M473,767.4V770l-19.88,6.56v-2.79l16.17-5.14-16.17-4.92v-2.6l16.11-4.86-16.11-5.1v-2.75L473,755v2.6l-16,4.92Z"/><path class="cls-3" d="M469.07,746.5v-3.69H473v3.69Z"/><path class="cls-3" d="M455.4,723.07l15.28,12.44V722.73H473v15.92h-2.17l-15.43-12.56V738h-2.28V723.07Z"/><path class="cls-3" d="M471.2,710.33q0-4.61-4.57-5.51l.41-2.59a6.81,6.81,0,0,1,4.68,2.61,8.72,8.72,0,0,1,1.73,5.49c0,3.06-.9,5.4-2.69,7s-4.37,2.42-7.76,2.42a10.93,10.93,0,0,1-7.56-2.52,8.68,8.68,0,0,1-2.83-6.8,8,8,0,0,1,2.45-6.27,9.86,9.86,0,0,1,6.87-2.23h1.68v15Q471.2,716.71,471.2,710.33Zm-16.36.14a5.89,5.89,0,0,0,1.66,4.42,7.88,7.88,0,0,0,4.86,2v-12Q454.84,705.12,454.84,710.47Z"/><path class="cls-3" d="M471.2,688.75q0-4.61-4.57-5.51l.41-2.6a6.86,6.86,0,0,1,4.68,2.62,8.72,8.72,0,0,1,1.73,5.49q0,4.59-2.69,7c-1.79,1.61-4.37,2.41-7.76,2.41a10.93,10.93,0,0,1-7.56-2.52,8.65,8.65,0,0,1-2.83-6.79,8,8,0,0,1,2.45-6.27,9.81,9.81,0,0,1,6.87-2.23h1.68v15C468.67,695.2,471.2,693,471.2,688.75Zm-16.36.14a5.9,5.9,0,0,0,1.66,4.42,7.82,7.82,0,0,0,4.86,2v-12Q454.84,683.54,454.84,688.89Z"/><path class="cls-3" d="M471.2,667.17q0-4.6-4.57-5.51l.41-2.6a6.82,6.82,0,0,1,4.68,2.62,8.68,8.68,0,0,1,1.73,5.49q0,4.59-2.69,7c-1.79,1.61-4.37,2.41-7.76,2.41a10.93,10.93,0,0,1-7.56-2.52,8.66,8.66,0,0,1-2.83-6.79,8,8,0,0,1,2.45-6.27,9.81,9.81,0,0,1,6.87-2.23h1.68v15Q471.2,673.53,471.2,667.17Zm-16.36.13a5.91,5.91,0,0,0,1.66,4.43,7.82,7.82,0,0,0,4.86,2v-12Q454.84,662,454.84,667.3Z"/><path class="cls-3" d="M460.09,637.11H473v2.73H460.6a5.86,5.86,0,0,0-4.14,1.35A5,5,0,0,0,455,645a5.39,5.39,0,0,0,1.82,4.41,8.1,8.1,0,0,0,5.31,1.51H473v2.71H453.08V651h2.63a7.07,7.07,0,0,1-3.1-6.37,6.9,6.9,0,0,1,7.48-7.48Z"/><path class="cls-3" d="M469.07,631.37v-3.69H473v3.69Z"/><path class="cls-3" d="M449.52,619v2.72H445V619ZM473,619v2.72H453.08V619Z"/><path class="cls-3" d="M473,609.86v2.72H453.08v-2.72H457a6.28,6.28,0,0,1-3.88-5.91v-1.49h2.63V604a5,5,0,0,0,2.44,4.27,11.13,11.13,0,0,0,6.37,1.64Z"/><path class="cls-3" d="M503.36,830.12H521v2.73h-17.6v3.79h-2.28v-3.79h-1.64a7,7,0,0,1-4.8-1.52A5.63,5.63,0,0,1,493,827v-2.67h2.29v2.4a3.16,3.16,0,0,0,1,2.61,5.27,5.27,0,0,0,3.28.83h1.53v-5.24h2.28Z"/><path class="cls-3" d="M518.68,805.82v-1H521v1.64a3.81,3.81,0,0,1-.82,2.51,2.7,2.7,0,0,1-2.19,1h-.15a7,7,0,0,1,3.65,6.48,7.42,7.42,0,0,1-1.61,5,5.28,5.28,0,0,1-4.19,1.88,5.51,5.51,0,0,1-4-1.56,8,8,0,0,1-2.1-4.44l-1-6A1.4,1.4,0,0,0,507,810a3.74,3.74,0,0,0-3,1.31,5.24,5.24,0,0,0-1.14,3.57q0,4.39,4.08,5.35l-.35,2.56a6.72,6.72,0,0,1-4.35-2.62,8.61,8.61,0,0,1-1.65-5.41,7.68,7.68,0,0,1,1.85-5.45,6.45,6.45,0,0,1,5-2h9.74a1.62,1.62,0,0,0,1.18-.34A1.57,1.57,0,0,0,518.68,805.82Zm-3.17,14.76a3.34,3.34,0,0,0,2.68-1.13,4.65,4.65,0,0,0,1-3.14,5.85,5.85,0,0,0-2-4.57,7.75,7.75,0,0,0-5.27-1.8h-1.27l1.23,7.11a4.34,4.34,0,0,0,1.24,2.61A3.45,3.45,0,0,0,515.51,820.58Z"/><path class="cls-3" d="M519.09,793.16a5.59,5.59,0,0,0-1.39-3.94,6,6,0,0,0-3.91-1.75l.3-2.71a7.87,7.87,0,0,1,5.35,2.6,9.41,9.41,0,0,1-.76,12.48,11.1,11.1,0,0,1-7.56,2.44,11.34,11.34,0,0,1-7.64-2.44,8.36,8.36,0,0,1-2.87-6.68,8.75,8.75,0,0,1,1.87-5.84,7.94,7.94,0,0,1,5.28-2.68l.33,2.87c-3.42.54-5.14,2.45-5.14,5.73a5.43,5.43,0,0,0,2.16,4.6,9.82,9.82,0,0,0,6,1.63,9.33,9.33,0,0,0,5.85-1.66A5.59,5.59,0,0,0,519.09,793.16Z"/><path class="cls-3" d="M519.2,771.67q0-4.6-4.57-5.51l.41-2.59a6.81,6.81,0,0,1,4.68,2.61,8.72,8.72,0,0,1,1.73,5.49c0,3.06-.9,5.4-2.69,7s-4.37,2.42-7.76,2.42a10.93,10.93,0,0,1-7.56-2.52,8.68,8.68,0,0,1-2.83-6.8,8,8,0,0,1,2.45-6.27,9.86,9.86,0,0,1,6.87-2.23h1.68v15Q519.2,778,519.2,771.67Zm-16.36.14a5.9,5.9,0,0,0,1.66,4.42,7.82,7.82,0,0,0,4.86,2v-12Q502.84,766.46,502.84,771.81Z"/><path class="cls-3" d="M500.61,748.66a8,8,0,0,1,2.79-6.44,11,11,0,0,1,7.48-2.45,11.54,11.54,0,0,1,7.68,2.45,8,8,0,0,1,2.89,6.44,7.63,7.63,0,0,1-3.5,6.68h3v2.72H493v-2.72H504.2A7.58,7.58,0,0,1,500.61,748.66ZM511,742.59a9.38,9.38,0,0,0-5.88,1.68,5.48,5.48,0,0,0-2.17,4.59,5.82,5.82,0,0,0,2.2,4.77,10.35,10.35,0,0,0,11.65,0,5.8,5.8,0,0,0,2.21-4.76,5.5,5.5,0,0,0-2.16-4.59A9.29,9.29,0,0,0,511,742.59Z"/><path class="cls-3" d="M511,735.94a10.87,10.87,0,0,1-7.56-2.56,9.78,9.78,0,0,1,0-13.84,12.29,12.29,0,0,1,15.12,0,9.83,9.83,0,0,1,0,13.84A10.87,10.87,0,0,1,511,735.94Zm5.88-14.4a10.49,10.49,0,0,0-11.78,0,6.57,6.57,0,0,0,0,9.79,10.56,10.56,0,0,0,11.78,0,6.62,6.62,0,0,0,0-9.8Z"/><path class="cls-3" d="M511,713.15a10.92,10.92,0,0,1-7.56-2.56,9.79,9.79,0,0,1,0-13.85,12.29,12.29,0,0,1,15.12,0,9.84,9.84,0,0,1,0,13.85A10.92,10.92,0,0,1,511,713.15Zm5.88-14.41a10.54,10.54,0,0,0-11.78,0,6.58,6.58,0,0,0,0,9.8,10.61,10.61,0,0,0,11.78,0,6,6,0,0,0,2.17-4.89A6.08,6.08,0,0,0,516.92,698.74Z"/><path class="cls-3" d="M501.08,672.3l7.36,7.93L521,671.66v3.2l-10.8,7.33,3.73,4.08H521V689H493v-2.71h17.74L501.08,676Z"/><path class="cls-3" d="M517.07,668.53v-3.69H521v3.69Z"/><path class="cls-3" d="M519.09,651.46a5.59,5.59,0,0,0-1.39-3.94,5.92,5.92,0,0,0-3.91-1.74l.3-2.72a7.87,7.87,0,0,1,5.35,2.6,9.41,9.41,0,0,1-.76,12.48,11.1,11.1,0,0,1-7.56,2.44,11.34,11.34,0,0,1-7.64-2.44,8.36,8.36,0,0,1-2.87-6.68,8.75,8.75,0,0,1,1.87-5.84,7.94,7.94,0,0,1,5.28-2.68l.33,2.87c-3.42.54-5.14,2.45-5.14,5.73a5.43,5.43,0,0,0,2.16,4.6,9.82,9.82,0,0,0,6,1.63,9.33,9.33,0,0,0,5.85-1.66A5.59,5.59,0,0,0,519.09,651.46Z"/><path class="cls-3" d="M511,639.43a10.92,10.92,0,0,1-7.56-2.56,9.79,9.79,0,0,1,0-13.85,12.29,12.29,0,0,1,15.12,0,9.84,9.84,0,0,1,0,13.85A10.92,10.92,0,0,1,511,639.43ZM516.92,625a10.49,10.49,0,0,0-11.78,0,6.58,6.58,0,0,0,0,9.8,10.61,10.61,0,0,0,11.78,0,6.63,6.63,0,0,0,0-9.81Z"/><path class="cls-3" d="M510.12,599.5H521v2.73H508.6a6.24,6.24,0,0,0-4.14,1.24A4.39,4.39,0,0,0,503,607a4.89,4.89,0,0,0,1.83,4.1,8.47,8.47,0,0,0,5.3,1.43H521v2.71H501.08v-2.71h2.52a6.76,6.76,0,0,1-3-6,7.56,7.56,0,0,1,1-3.91,5.87,5.87,0,0,1,2.79-2.42,6.83,6.83,0,0,1-3.75-6.56,7,7,0,0,1,2-5.3,7.56,7.56,0,0,1,5.48-1.93H521v2.72H508.6a6.13,6.13,0,0,0-4.14,1.25A4.4,4.4,0,0,0,503,594a4.85,4.85,0,0,0,1.83,4.09A8.47,8.47,0,0,0,510.12,599.5Z"/><path class="cls-3" d="M526.23,579.36v3.13l-35-14.24v-3Z"/><path class="cls-3" d="M503.4,548l15.28,12.44V547.66H521v15.92h-2.17L503.36,551v11.89h-2.28V548Z"/><path class="cls-3" d="M519.2,535.14c0-3.08-1.52-4.91-4.57-5.51L515,527a6.78,6.78,0,0,1,4.68,2.62,8.68,8.68,0,0,1,1.73,5.49q0,4.59-2.69,7c-1.79,1.61-4.37,2.41-7.76,2.41a10.93,10.93,0,0,1-7.56-2.52,8.67,8.67,0,0,1-2.83-6.8,8.07,8.07,0,0,1,2.45-6.27,9.86,9.86,0,0,1,6.87-2.22h1.68v15Q519.2,541.5,519.2,535.14Zm-16.36.13a5.91,5.91,0,0,0,1.66,4.43,7.88,7.88,0,0,0,4.86,2v-12C505,529.82,502.84,531.71,502.84,535.27Z"/><path class="cls-3" d="M519.2,513.43q0-4.6-4.57-5.5l.41-2.6a6.78,6.78,0,0,1,4.68,2.62,8.67,8.67,0,0,1,1.73,5.48q0,4.59-2.69,7c-1.79,1.6-4.37,2.41-7.76,2.41a10.93,10.93,0,0,1-7.56-2.52,8.67,8.67,0,0,1-2.83-6.8,8.07,8.07,0,0,1,2.45-6.27,9.86,9.86,0,0,1,6.87-2.22h1.68v15Q519.2,519.8,519.2,513.43Zm-16.36.14A5.89,5.89,0,0,0,504.5,518a7.82,7.82,0,0,0,4.86,2v-12Q502.84,508.22,502.84,513.57Z"/><path class="cls-3" d="M519.2,491.73q0-4.61-4.57-5.51l.41-2.59a6.81,6.81,0,0,1,4.68,2.61,8.72,8.72,0,0,1,1.73,5.49c0,3.06-.9,5.4-2.69,7s-4.37,2.42-7.76,2.42a10.93,10.93,0,0,1-7.56-2.52,8.68,8.68,0,0,1-2.83-6.8,8,8,0,0,1,2.45-6.27,9.86,9.86,0,0,1,6.87-2.23h1.68v15Q519.2,498.11,519.2,491.73Zm-16.36.14a5.89,5.89,0,0,0,1.66,4.42,7.88,7.88,0,0,0,4.86,2v-12Q502.84,486.52,502.84,491.87Z"/><path class="cls-3" d="M508.09,461.55H521v2.74H508.6a5.86,5.86,0,0,0-4.14,1.35,4.94,4.94,0,0,0-1.47,3.84,5.42,5.42,0,0,0,1.82,4.42,8.16,8.16,0,0,0,5.31,1.5H521v2.72H501.08V475.4h2.63c-2.07-1.35-3.1-3.48-3.1-6.37a6.91,6.91,0,0,1,7.48-7.48Z"/><path class="cls-3" d="M521.45,448.52a9.25,9.25,0,0,1-1.8,6,6.26,6.26,0,0,1-4.8,2.4l-.49-2.67a5.54,5.54,0,0,0,3.64-1.7,6,6,0,0,0,1.16-4,5.47,5.47,0,0,0-1-3.52,3.55,3.55,0,0,0-2.9-1.2q-2.58,0-3.24,4l-.43,2.72q-1,5.76-5.45,5.76a4.86,4.86,0,0,1-4-2,9.5,9.5,0,0,1,0-10.45,7,7,0,0,1,4.54-2.49l.43,2.48a5.84,5.84,0,0,0-3.28,1.81,5.48,5.48,0,0,0-1,3.48,5.64,5.64,0,0,0,.86,3.3,2.7,2.7,0,0,0,2.3,1.21,2.76,2.76,0,0,0,2.1-.83,4.77,4.77,0,0,0,1-2.65l.51-3.12q1-6,5.61-6a5.56,5.56,0,0,1,4.47,2A8.19,8.19,0,0,1,521.45,448.52Z"/><path class="cls-3" d="M508.09,419.46H521v2.73H508.6a5.86,5.86,0,0,0-4.14,1.35,5,5,0,0,0-1.47,3.85,5.39,5.39,0,0,0,1.82,4.41,8.16,8.16,0,0,0,5.31,1.51H521V436H493v-2.71h10.76a7.07,7.07,0,0,1-3.1-6.37,6.9,6.9,0,0,1,7.48-7.48Z"/><path class="cls-3" d="M511,414.55a10.87,10.87,0,0,1-7.56-2.56,9.78,9.78,0,0,1,0-13.84,12.29,12.29,0,0,1,15.12,0,9.83,9.83,0,0,1,0,13.84A10.87,10.87,0,0,1,511,414.55Zm5.88-14.4a10.49,10.49,0,0,0-11.78,0,6.57,6.57,0,0,0,0,9.79,10.56,10.56,0,0,0,11.78,0,6.62,6.62,0,0,0,0-9.8Z"/><path class="cls-3" d="M500.61,381a8,8,0,0,1,2.79-6.45,11,11,0,0,1,7.48-2.44,11.54,11.54,0,0,1,7.68,2.44,8,8,0,0,1,2.89,6.45,7.64,7.64,0,0,1-3.5,6.68h10.41v2.71H501.08v-2.71h3.12A7.59,7.59,0,0,1,500.61,381ZM511,374.92a9.38,9.38,0,0,0-5.88,1.68,5.48,5.48,0,0,0-2.17,4.59,5.85,5.85,0,0,0,2.2,4.78,10.4,10.4,0,0,0,11.65,0,5.83,5.83,0,0,0,2.21-4.77,5.5,5.5,0,0,0-2.16-4.59A9.29,9.29,0,0,0,511,374.92Z"/><path class="cls-3" d="M1009.34,270.88c3.07,0,4.91-1.52,5.5-4.57l2.6.41a6.78,6.78,0,0,1-2.62,4.68,8.67,8.67,0,0,1-5.48,1.73q-4.59,0-7-2.69c-1.6-1.79-2.41-4.38-2.41-7.76a10.91,10.91,0,0,1,2.52-7.56,8.67,8.67,0,0,1,6.8-2.83,8.07,8.07,0,0,1,6.27,2.45,9.85,9.85,0,0,1,2.22,6.86v1.68h-15Q1003,270.89,1009.34,270.88Zm-.14-16.37a5.93,5.93,0,0,0-4.42,1.66,7.88,7.88,0,0,0-2,4.87h12Q1014.56,254.52,1009.2,254.51Z"/><path class="cls-3" d="M1031.86,263.17h-10.08v-2.6h10.08Z"/><path class="cls-3" d="M1053,261.8v10.84h-2.74V260.28a6.18,6.18,0,0,0-1.24-4.14,4.37,4.37,0,0,0-3.54-1.47,4.88,4.88,0,0,0-4.1,1.83,8.45,8.45,0,0,0-1.43,5.3v10.84h-2.71V252.76h2.71v2.52a6.74,6.74,0,0,1,6-3,7.52,7.52,0,0,1,3.9,1,5.79,5.79,0,0,1,2.43,2.79,6.83,6.83,0,0,1,6.56-3.75,7,7,0,0,1,5.3,2,7.58,7.58,0,0,1,1.92,5.48v12.87h-2.71V260.28a6.19,6.19,0,0,0-1.25-4.14,4.4,4.4,0,0,0-3.55-1.47,4.88,4.88,0,0,0-4.1,1.83A8.52,8.52,0,0,0,1053,261.8Z"/><path class="cls-3" d="M1087.47,270.35h1v2.29h-1.64a3.83,3.83,0,0,1-2.51-.82,2.7,2.7,0,0,1-1-2.19v-.15a7,7,0,0,1-6.48,3.65,7.43,7.43,0,0,1-5-1.61,5.28,5.28,0,0,1-1.88-4.19,5.46,5.46,0,0,1,1.57-4,8,8,0,0,1,4.43-2.1l6-1a1.41,1.41,0,0,0,1.28-1.53,3.75,3.75,0,0,0-1.3-3,5.24,5.24,0,0,0-3.58-1.15q-4.4,0-5.35,4.09l-2.56-.36a6.76,6.76,0,0,1,2.62-4.34,8.61,8.61,0,0,1,5.41-1.65,7.72,7.72,0,0,1,5.45,1.84,6.41,6.41,0,0,1,2,4.95v9.75a1.62,1.62,0,0,0,.34,1.18A1.57,1.57,0,0,0,1087.47,270.35Zm-14.76-3.16a3.37,3.37,0,0,0,1.13,2.68,4.69,4.69,0,0,0,3.15,1,5.88,5.88,0,0,0,4.57-2,7.79,7.79,0,0,0,1.79-5.27v-1.27l-7.11,1.23a4.29,4.29,0,0,0-2.6,1.24A3.42,3.42,0,0,0,1072.71,267.19Z"/><path class="cls-3" d="M1094.3,249.2h-2.72v-4.57h2.72Zm0,23.44h-2.72V252.76h2.72Z"/><path class="cls-3" d="M1102.76,272.64H1100v-28h2.72Z"/><path class="cls-3" d="M1108.09,252.76h3.7v3.88h-3.7Zm0,16h3.7v3.89h-3.7Z"/><path class="cls-3" d="M1128.81,249.2h-2.72v-4.57h2.72Zm0,23.44h-2.72V252.76h2.72Z"/><path class="cls-3" d="M1151.12,259.77v12.87h-2.74V260.28a5.86,5.86,0,0,0-1.35-4.14,5,5,0,0,0-3.84-1.47,5.42,5.42,0,0,0-4.42,1.82,8.16,8.16,0,0,0-1.5,5.31v10.84h-2.72V252.76h2.72v2.63q2-3.1,6.36-3.1a6.92,6.92,0,0,1,7.49,7.48Z"/><path class="cls-3" d="M1160.51,255v17.6h-2.73V255H1154v-2.28h3.79v-1.64a7,7,0,0,1,1.52-4.8,5.63,5.63,0,0,1,4.38-1.69h2.67v2.29H1164a3.16,3.16,0,0,0-2.61,1,5.27,5.27,0,0,0-.83,3.28v1.53h5.24V255Z"/><path class="cls-3" d="M1166.77,262.72a10.87,10.87,0,0,1,2.56-7.56,9.78,9.78,0,0,1,13.84,0,12.29,12.29,0,0,1,0,15.12,9.83,9.83,0,0,1-13.84,0A10.87,10.87,0,0,1,1166.77,262.72Zm14.4,5.88a10.49,10.49,0,0,0,0-11.78,6.57,6.57,0,0,0-9.79,0,10.56,10.56,0,0,0,0,11.78,6.64,6.64,0,0,0,9.8,0Z"/><path class="cls-3" d="M1203.65,270.24a6.25,6.25,0,0,1-4.81-1.94,7.32,7.32,0,0,1-1.79-5.17,11.83,11.83,0,0,1,2.4-7.56,7.6,7.6,0,0,1,6.29-3.13,6.23,6.23,0,0,1,3.33.89,5.69,5.69,0,0,1,2.18,2.55l.64-3h2.72l-2.19,11a4.34,4.34,0,0,0,.19,3.17,2.75,2.75,0,0,0,2.48,1,4,4,0,0,0,3.52-2.39,13.45,13.45,0,0,0,1.33-6.52,12.51,12.51,0,0,0-1.08-5,12.37,12.37,0,0,0-2.93-4.25q-3.51-3.27-9.53-3.28a13.83,13.83,0,0,0-10.47,4.4,15.64,15.64,0,0,0-4.23,10.6,14.28,14.28,0,0,0,3.82,10.28,13,13,0,0,0,9.85,4,17.58,17.58,0,0,0,4.74-.61,22.28,22.28,0,0,0,4.79-2.06l1.15,2.07a23.64,23.64,0,0,1-5.39,2.4,19.33,19.33,0,0,1-5.33.72,16,16,0,0,1-11.88-4.77,16.35,16.35,0,0,1-4.65-11.91,17.61,17.61,0,0,1,1.36-6.68,18.19,18.19,0,0,1,3.76-5.8,17.92,17.92,0,0,1,24.16-.84,13.69,13.69,0,0,1,4.69,10.57q0,5.24-2.1,8.23a6.6,6.6,0,0,1-5.69,3,6.4,6.4,0,0,1-3.39-.89,3.83,3.83,0,0,1-1.83-2.32A7.16,7.16,0,0,1,1203.65,270.24ZM1199.9,263a5.25,5.25,0,0,0,1.11,3.56,3.91,3.91,0,0,0,3.13,1.28,5.16,5.16,0,0,0,4.35-2.4,9.26,9.26,0,0,0,1.76-5.55,5.46,5.46,0,0,0-1.23-3.72,4.22,4.22,0,0,0-3.34-1.39,4.81,4.81,0,0,0-4.16,2.48A10.26,10.26,0,0,0,1199.9,263Z"/><path class="cls-3" d="M1241.15,255.08l-12.44,15.27h12.77v2.29h-15.91v-2.17L1238.12,255h-11.89v-2.28h14.92Z"/><path class="cls-3" d="M1253.25,270.88c3.07,0,4.91-1.52,5.5-4.57l2.6.41a6.81,6.81,0,0,1-2.61,4.68,8.72,8.72,0,0,1-5.49,1.73c-3.06,0-5.4-.9-7-2.69s-2.42-4.38-2.42-7.76a10.91,10.91,0,0,1,2.52-7.56,8.67,8.67,0,0,1,6.8-2.83,8.07,8.07,0,0,1,6.27,2.45,9.85,9.85,0,0,1,2.23,6.86v1.68h-15Q1246.88,270.89,1253.25,270.88Zm-.14-16.37a5.93,5.93,0,0,0-4.42,1.66,7.94,7.94,0,0,0-2,4.87h12Q1258.46,254.52,1253.11,254.51Z"/><path class="cls-3" d="M1274.19,270.88q4.61,0,5.51-4.57l2.59.41a6.81,6.81,0,0,1-2.61,4.68,8.72,8.72,0,0,1-5.49,1.73q-4.59,0-7-2.69t-2.41-7.76a11,11,0,0,1,2.51-7.56,8.68,8.68,0,0,1,6.8-2.83,8,8,0,0,1,6.27,2.45,9.8,9.8,0,0,1,2.23,6.86v1.68h-15Q1267.82,270.89,1274.19,270.88Zm-.14-16.37a5.94,5.94,0,0,0-4.42,1.66,7.87,7.87,0,0,0-2,4.87h12Q1279.4,254.52,1274.05,254.51Z"/><path class="cls-3" d="M1295.13,270.88q4.61,0,5.51-4.57l2.6.41a6.82,6.82,0,0,1-2.62,4.68,8.7,8.7,0,0,1-5.49,1.73q-4.59,0-7-2.69t-2.41-7.76a10.91,10.91,0,0,1,2.52-7.56,8.65,8.65,0,0,1,6.79-2.83,8,8,0,0,1,6.27,2.45,9.8,9.8,0,0,1,2.23,6.86v1.68h-15Q1288.77,270.89,1295.13,270.88Zm-.14-16.37a5.94,5.94,0,0,0-4.42,1.66,7.87,7.87,0,0,0-2,4.87h12Q1300.34,254.52,1295,254.51Z"/><path class="cls-3" d="M1324.55,259.77v12.87h-2.73V260.28a5.86,5.86,0,0,0-1.35-4.14,5,5,0,0,0-3.85-1.47,5.39,5.39,0,0,0-4.41,1.82,8.1,8.1,0,0,0-1.51,5.31v10.84H1308V252.76h2.71v2.63a7.07,7.07,0,0,1,6.37-3.1,6.9,6.9,0,0,1,7.48,7.48Z"/><path class="cls-3" d="M1329.65,268.75h3.69v3.89h-3.69Z"/><path class="cls-3" d="M1341.41,249.2h-2.71v-4.57h2.71Zm0,23.44h-2.71V252.76h2.71Z"/><path class="cls-3" d="M1349.88,272.64h-2.72V252.76h2.72v3.88a6.28,6.28,0,0,1,5.91-3.88h1.49v2.63h-1.49a5,5,0,0,0-4.27,2.44,11.13,11.13,0,0,0-1.64,6.37Z"/><path class="cls-3" d="M998.77,303v-2.28h3.67v-6.57h2.74v6.57h5.39V303h-5.39v12a3.85,3.85,0,0,0,.61,2.5,2.73,2.73,0,0,0,2.14.71h3.16v2.36h-3.49a5.13,5.13,0,0,1-3.82-1.35,5.24,5.24,0,0,1-1.34-3.85V303Z"/><path class="cls-3" d="M1024.25,318.88c3.08,0,4.91-1.52,5.51-4.57l2.6.41a6.78,6.78,0,0,1-2.62,4.68,8.68,8.68,0,0,1-5.49,1.73q-4.59,0-7-2.69t-2.41-7.76a10.91,10.91,0,0,1,2.52-7.56,8.67,8.67,0,0,1,6.8-2.83,8.07,8.07,0,0,1,6.27,2.45,9.85,9.85,0,0,1,2.22,6.86v1.68h-15Q1017.89,318.89,1024.25,318.88Zm-.13-16.37a6,6,0,0,0-4.43,1.66,7.93,7.93,0,0,0-2,4.87h12C1029.57,304.69,1027.68,302.51,1024.12,302.51Z"/><path class="cls-3" d="M1041.94,320.64h-2.71v-28h2.71Z"/><path class="cls-3" d="M1057.9,318.88q4.61,0,5.51-4.57l2.59.41a6.81,6.81,0,0,1-2.61,4.68,8.72,8.72,0,0,1-5.49,1.73c-3.06,0-5.4-.9-7-2.69s-2.42-4.38-2.42-7.76a10.91,10.91,0,0,1,2.52-7.56,8.68,8.68,0,0,1,6.8-2.83,8.05,8.05,0,0,1,6.27,2.45,9.85,9.85,0,0,1,2.23,6.86v1.68h-15Q1051.53,318.89,1057.9,318.88Zm-.14-16.37a5.93,5.93,0,0,0-4.42,1.66,7.94,7.94,0,0,0-2,4.87h12Q1063.11,302.52,1057.76,302.51Z"/><path class="cls-3" d="M1080.2,319.49a7.9,7.9,0,0,1-6.23-2.6,11.67,11.67,0,0,1,0-14,7.92,7.92,0,0,1,6.21-2.63,7.5,7.5,0,0,1,6.31,3v-2.56h2.71v19.08a8.73,8.73,0,0,1-2.26,6.33,8.22,8.22,0,0,1-6.22,2.34,9.56,9.56,0,0,1-6.06-1.75,6.8,6.8,0,0,1-2.57-4.89l2.72-.23a5.39,5.39,0,0,0,1.89,3.46,6.55,6.55,0,0,0,4,1.07,5.5,5.5,0,0,0,4.33-1.66,7.2,7.2,0,0,0,1.47-4.91v-3.39A7.3,7.3,0,0,1,1080.2,319.49Zm-5.73-9.61a8,8,0,0,0,1.61,5.35,5.58,5.58,0,0,0,4.51,1.89,5.33,5.33,0,0,0,4.33-2,9,9,0,0,0,0-10.44,5.29,5.29,0,0,0-4.31-2.05,5.56,5.56,0,0,0-4.54,1.89A8.12,8.12,0,0,0,1074.47,309.88Z"/><path class="cls-3" d="M1099.74,320.64H1097V300.76h2.71v3.88a6.31,6.31,0,0,1,5.92-3.88h1.49v2.63h-1.49a5,5,0,0,0-4.28,2.44,11.21,11.21,0,0,0-1.64,6.37Z"/><path class="cls-3" d="M1128.22,318.35h1v2.29h-1.64a3.83,3.83,0,0,1-2.51-.82,2.7,2.7,0,0,1-1-2.19v-.15a7,7,0,0,1-6.48,3.65,7.43,7.43,0,0,1-5-1.61,5.27,5.27,0,0,1-1.87-4.19,5.49,5.49,0,0,1,1.56-4,8,8,0,0,1,4.43-2.1l6-1a1.41,1.41,0,0,0,1.29-1.53,3.76,3.76,0,0,0-1.31-3,5.22,5.22,0,0,0-3.58-1.15q-4.39,0-5.35,4.09l-2.56-.36a6.8,6.8,0,0,1,2.62-4.34,8.63,8.63,0,0,1,5.41-1.65,7.72,7.72,0,0,1,5.45,1.84,6.41,6.41,0,0,1,2,4.95v9.75a1.66,1.66,0,0,0,.34,1.18A1.58,1.58,0,0,0,1128.22,318.35Zm-14.77-3.16a3.37,3.37,0,0,0,1.13,2.68,4.69,4.69,0,0,0,3.15,1,5.86,5.86,0,0,0,4.57-2,7.74,7.74,0,0,0,1.79-5.27v-1.27l-7.1,1.23a4.34,4.34,0,0,0-2.61,1.24A3.42,3.42,0,0,0,1113.45,315.19Z"/><path class="cls-3" d="M1150.2,309.8v10.84h-2.73V308.28a6.18,6.18,0,0,0-1.24-4.14,4.39,4.39,0,0,0-3.55-1.47,4.89,4.89,0,0,0-4.1,1.83,8.45,8.45,0,0,0-1.42,5.3v10.84h-2.72V300.76h2.72v2.52a6.72,6.72,0,0,1,5.95-3,7.53,7.53,0,0,1,3.91,1,5.77,5.77,0,0,1,2.42,2.79,6.85,6.85,0,0,1,6.56-3.75,7,7,0,0,1,5.31,2,7.58,7.58,0,0,1,1.92,5.48v12.87h-2.71V308.28a6.19,6.19,0,0,0-1.25-4.14,4.42,4.42,0,0,0-3.56-1.47,4.86,4.86,0,0,0-4.09,1.83A8.52,8.52,0,0,0,1150.2,309.8Z"/><path class="cls-3" d="M1170.45,316.75h3.69v3.89h-3.69Z"/><path class="cls-3" d="M1197.38,309.8v10.84h-2.73V308.28a6.18,6.18,0,0,0-1.24-4.14,4.39,4.39,0,0,0-3.55-1.47,4.89,4.89,0,0,0-4.1,1.83,8.45,8.45,0,0,0-1.42,5.3v10.84h-2.72V300.76h2.72v2.52a6.72,6.72,0,0,1,6-3,7.53,7.53,0,0,1,3.91,1,5.77,5.77,0,0,1,2.42,2.79,6.84,6.84,0,0,1,6.56-3.75,7,7,0,0,1,5.31,2,7.58,7.58,0,0,1,1.92,5.48v12.87h-2.71V308.28a6.19,6.19,0,0,0-1.25-4.14,4.42,4.42,0,0,0-3.56-1.47,4.86,4.86,0,0,0-4.09,1.83A8.45,8.45,0,0,0,1197.38,309.8Z"/><path class="cls-3" d="M1226.13,318.88q4.61,0,5.51-4.57l2.59.41a6.81,6.81,0,0,1-2.61,4.68,8.72,8.72,0,0,1-5.49,1.73c-3.06,0-5.4-.9-7-2.69s-2.42-4.38-2.42-7.76a10.91,10.91,0,0,1,2.52-7.56,8.68,8.68,0,0,1,6.8-2.83,8,8,0,0,1,6.27,2.45,9.85,9.85,0,0,1,2.23,6.86v1.68h-15Q1219.76,318.89,1226.13,318.88Zm-.14-16.37a5.93,5.93,0,0,0-4.42,1.66,7.94,7.94,0,0,0-2,4.87h12Q1231.34,302.52,1226,302.51Z"/><path class="cls-3" d="M1241.94,325.91h-3.12l14.24-35h3Z"/><path class="cls-3" d="M1274.67,303.08l-12.44,15.27H1275v2.29h-15.92v-2.17L1271.65,303h-11.9v-2.28h14.92Z"/><path class="cls-3" d="M1288.89,318.88q4.6,0,5.51-4.57l2.59.41a6.81,6.81,0,0,1-2.61,4.68,8.72,8.72,0,0,1-5.49,1.73q-4.59,0-7-2.69t-2.42-7.76a10.91,10.91,0,0,1,2.52-7.56,8.68,8.68,0,0,1,6.8-2.83,8,8,0,0,1,6.27,2.45,9.85,9.85,0,0,1,2.23,6.86v1.68h-15Q1282.52,318.89,1288.89,318.88Zm-.14-16.37a5.94,5.94,0,0,0-4.42,1.66,7.87,7.87,0,0,0-2,4.87h12Q1294.1,302.52,1288.75,302.51Z"/><path class="cls-3" d="M1312,318.88q4.6,0,5.51-4.57l2.6.41a6.86,6.86,0,0,1-2.62,4.68,8.72,8.72,0,0,1-5.49,1.73q-4.59,0-7-2.69t-2.41-7.76a10.91,10.91,0,0,1,2.52-7.56,8.65,8.65,0,0,1,6.79-2.83,8,8,0,0,1,6.27,2.45,9.8,9.8,0,0,1,2.23,6.86v1.68h-15C1305.5,316.35,1307.71,318.88,1312,318.88Zm-.14-16.37a5.94,5.94,0,0,0-4.42,1.66,7.87,7.87,0,0,0-2,4.87h12Q1317.16,302.52,1311.81,302.51Z"/><path class="cls-3" d="M1335,318.88c3.08,0,4.91-1.52,5.51-4.57l2.6.41a6.78,6.78,0,0,1-2.62,4.68,8.68,8.68,0,0,1-5.49,1.73q-4.59,0-7-2.69t-2.41-7.76a10.91,10.91,0,0,1,2.52-7.56,8.67,8.67,0,0,1,6.8-2.83,8,8,0,0,1,6.26,2.45,9.8,9.8,0,0,1,2.23,6.86v1.68h-15Q1328.65,318.89,1335,318.88Zm-.13-16.37a6,6,0,0,0-4.43,1.66,7.93,7.93,0,0,0-2,4.87h12C1340.33,304.69,1338.44,302.51,1334.88,302.51Z"/><path class="cls-3" d="M1366.55,307.77v12.87h-2.73V308.28a5.86,5.86,0,0,0-1.35-4.14,5,5,0,0,0-3.85-1.47,5.39,5.39,0,0,0-4.41,1.82,8.1,8.1,0,0,0-1.51,5.31v10.84H1350V300.76h2.71v2.63a7.07,7.07,0,0,1,6.37-3.1,6.9,6.9,0,0,1,7.48,7.48Z"/><path class="cls-3" d="M1380.94,321.13a9.27,9.27,0,0,1-6-1.8,6.33,6.33,0,0,1-2.4-4.8l2.68-.49a5.54,5.54,0,0,0,1.7,3.64,6,6,0,0,0,4,1.16,5.5,5.5,0,0,0,3.53-1,3.55,3.55,0,0,0,1.2-2.9q0-2.58-4-3.25l-2.71-.43q-5.76-.94-5.76-5.45a4.86,4.86,0,0,1,2-4,9.5,9.5,0,0,1,10.45,0,7.07,7.07,0,0,1,2.49,4.54l-2.48.43a5.82,5.82,0,0,0-1.82-3.28,5.45,5.45,0,0,0-3.47-1,5.53,5.53,0,0,0-3.3.87,2.71,2.71,0,0,0-1.22,2.3,2.76,2.76,0,0,0,.83,2.1,4.91,4.91,0,0,0,2.65,1l3.13.51q6,1,6,5.61a5.56,5.56,0,0,1-2,4.47A8.15,8.15,0,0,1,1380.94,321.13Z"/><path class="cls-3" d="M1411.37,307.77v12.87h-2.74V308.28a5.86,5.86,0,0,0-1.35-4.14,4.94,4.94,0,0,0-3.84-1.47,5.43,5.43,0,0,0-4.42,1.82,8.16,8.16,0,0,0-1.5,5.31v10.84h-2.72v-28h2.72v10.76c1.35-2.07,3.48-3.1,6.37-3.1a6.91,6.91,0,0,1,7.48,7.48Z"/><path class="cls-3" d="M1417.63,310.72a10.87,10.87,0,0,1,2.56-7.56,9.79,9.79,0,0,1,13.85,0,12.29,12.29,0,0,1,0,15.12,9.84,9.84,0,0,1-13.85,0A10.87,10.87,0,0,1,1417.63,310.72ZM1432,316.6a10.54,10.54,0,0,0,0-11.78,6.05,6.05,0,0,0-4.92-2.19,6,6,0,0,0-4.88,2.19,10.56,10.56,0,0,0,0,11.78,6,6,0,0,0,4.89,2.16A6.09,6.09,0,0,0,1432,316.6Z"/><path class="cls-3" d="M1452.55,300.29a8,8,0,0,1,6.44,2.79,11,11,0,0,1,2.45,7.48,11.54,11.54,0,0,1-2.45,7.68,8,8,0,0,1-6.44,2.89,7.63,7.63,0,0,1-6.68-3.5V328h-2.72V300.76h2.72v3.12A7.58,7.58,0,0,1,1452.55,300.29Zm6.07,10.43a9.34,9.34,0,0,0-1.68-5.88,5.48,5.48,0,0,0-4.59-2.17,5.82,5.82,0,0,0-4.77,2.2,10.35,10.35,0,0,0,0,11.65,5.8,5.8,0,0,0,4.76,2.21,5.5,5.5,0,0,0,4.59-2.16A9.29,9.29,0,0,0,1458.62,310.72Z"/><path class="cls-3" d="M1004,345.2h-2.71v-4.57H1004Zm0,23.44h-2.71V348.76H1004Z"/><path class="cls-3" d="M1026.27,355.77v12.87h-2.73V356.28a5.86,5.86,0,0,0-1.35-4.14,5,5,0,0,0-3.85-1.47,5.39,5.39,0,0,0-4.41,1.82,8.16,8.16,0,0,0-1.5,5.31v10.84h-2.72V348.76h2.72v2.63q2-3.11,6.36-3.1a6.9,6.9,0,0,1,7.48,7.48Z"/><path class="cls-3" d="M1038.54,369.13a9.22,9.22,0,0,1-6-1.8,6.3,6.3,0,0,1-2.41-4.8l2.68-.49a5.54,5.54,0,0,0,1.7,3.64,6,6,0,0,0,4,1.16,5.5,5.5,0,0,0,3.53-1,3.55,3.55,0,0,0,1.2-2.9q0-2.58-4-3.25l-2.72-.43q-5.76-.94-5.76-5.45a4.86,4.86,0,0,1,2-4,9.5,9.5,0,0,1,10.45,0,7.07,7.07,0,0,1,2.49,4.54l-2.48.43a5.87,5.87,0,0,0-1.81-3.28,6.62,6.62,0,0,0-6.78-.13,2.91,2.91,0,0,0-.38,4.4,4.84,4.84,0,0,0,2.64,1l3.13.51q6,1,6,5.61a5.57,5.57,0,0,1-2,4.47A8.15,8.15,0,0,1,1038.54,369.13Z"/><path class="cls-3" d="M1047.53,351v-2.28h3.68v-6.57h2.73v6.57h5.39V351h-5.39v12a3.85,3.85,0,0,0,.61,2.5,2.74,2.74,0,0,0,2.14.71h3.17v2.36h-3.5a5.15,5.15,0,0,1-3.82-1.35,5.24,5.24,0,0,1-1.33-3.85V351Z"/><path class="cls-3" d="M1079.08,366.35h1v2.29h-1.64a3.81,3.81,0,0,1-2.51-.82,2.67,2.67,0,0,1-1-2.19v-.15a7,7,0,0,1-6.48,3.65,7.42,7.42,0,0,1-5-1.61,5.28,5.28,0,0,1-1.88-4.19,5.49,5.49,0,0,1,1.56-4,8,8,0,0,1,4.44-2.1l6-1a1.41,1.41,0,0,0,1.29-1.53,3.76,3.76,0,0,0-1.31-3,5.19,5.19,0,0,0-3.57-1.15c-2.93,0-4.72,1.36-5.35,4.09l-2.56-.36a6.72,6.72,0,0,1,2.62-4.34,8.61,8.61,0,0,1,5.41-1.65,7.68,7.68,0,0,1,5.44,1.84,6.42,6.42,0,0,1,2,4.95v9.75a1.62,1.62,0,0,0,.34,1.18A1.57,1.57,0,0,0,1079.08,366.35Zm-14.76-3.16a3.34,3.34,0,0,0,1.13,2.68,4.65,4.65,0,0,0,3.14,1,5.86,5.86,0,0,0,4.57-2,7.75,7.75,0,0,0,1.8-5.27v-1.27l-7.11,1.23a4.34,4.34,0,0,0-2.61,1.24A3.41,3.41,0,0,0,1064.32,363.19Z"/><path class="cls-3" d="M1090.51,367.49a7.92,7.92,0,0,1-6.23-2.6,11.72,11.72,0,0,1,0-14,7.92,7.92,0,0,1,6.21-2.63,7.5,7.5,0,0,1,6.31,3v-2.56h2.71v19.08a8.77,8.77,0,0,1-2.25,6.33,8.25,8.25,0,0,1-6.22,2.34,9.59,9.59,0,0,1-6.07-1.75,6.84,6.84,0,0,1-2.57-4.89l2.72-.23a5.39,5.39,0,0,0,1.89,3.46,6.55,6.55,0,0,0,4,1.07,5.48,5.48,0,0,0,4.33-1.66,7.2,7.2,0,0,0,1.47-4.91v-3.39A7.29,7.29,0,0,1,1090.51,367.49Zm-5.72-9.61a8,8,0,0,0,1.6,5.35,5.59,5.59,0,0,0,4.51,1.89,5.35,5.35,0,0,0,4.34-2,9,9,0,0,0,0-10.44,5.33,5.33,0,0,0-4.32-2.05,5.57,5.57,0,0,0-4.54,1.89A8.12,8.12,0,0,0,1084.79,357.88Z"/><path class="cls-3" d="M1107.94,368.64h-2.72V348.76h2.72v3.88a6.29,6.29,0,0,1,5.92-3.88h1.48v2.63h-1.48a5,5,0,0,0-4.28,2.44,11.13,11.13,0,0,0-1.64,6.37Z"/><path class="cls-3" d="M1134.29,366.35h1v2.29h-1.64a3.83,3.83,0,0,1-2.51-.82,2.69,2.69,0,0,1-1-2.19v-.15a7,7,0,0,1-6.49,3.65,7.43,7.43,0,0,1-5-1.61,5.27,5.27,0,0,1-1.87-4.19,5.49,5.49,0,0,1,1.56-4,8,8,0,0,1,4.43-2.1l6-1a1.41,1.41,0,0,0,1.29-1.53,3.76,3.76,0,0,0-1.31-3,5.19,5.19,0,0,0-3.57-1.15q-4.39,0-5.36,4.09l-2.55-.36a6.75,6.75,0,0,1,2.61-4.34,8.65,8.65,0,0,1,5.41-1.65,7.7,7.7,0,0,1,5.45,1.84,6.41,6.41,0,0,1,2,4.95v9.75a1.61,1.61,0,0,0,.35,1.18A1.54,1.54,0,0,0,1134.29,366.35Zm-14.77-3.16a3.35,3.35,0,0,0,1.14,2.68,4.65,4.65,0,0,0,3.14,1,5.86,5.86,0,0,0,4.57-2,7.75,7.75,0,0,0,1.8-5.27v-1.27l-7.11,1.23a4.34,4.34,0,0,0-2.61,1.24A3.42,3.42,0,0,0,1119.52,363.19Z"/><path class="cls-3" d="M1154.16,357.8v10.84h-2.74V356.28a6.18,6.18,0,0,0-1.24-4.14,4.37,4.37,0,0,0-3.54-1.47,4.88,4.88,0,0,0-4.1,1.83,8.45,8.45,0,0,0-1.43,5.3v10.84h-2.71V348.76h2.71v2.52a6.73,6.73,0,0,1,6-3,7.52,7.52,0,0,1,3.9,1,5.84,5.84,0,0,1,2.43,2.79,6.83,6.83,0,0,1,6.56-3.75,7,7,0,0,1,5.3,2,7.58,7.58,0,0,1,1.92,5.48v12.87h-2.71V356.28a6.19,6.19,0,0,0-1.25-4.14,4.4,4.4,0,0,0-3.55-1.47,4.88,4.88,0,0,0-4.1,1.83A8.52,8.52,0,0,0,1154.16,357.8Z"/><path class="cls-3" d="M1172.29,364.75H1176v3.89h-3.69Z"/><path class="cls-3" d="M1188.6,366.76a5.58,5.58,0,0,0,3.94-1.38,6,6,0,0,0,1.74-3.91l2.72.29a7.88,7.88,0,0,1-2.6,5.36,9.4,9.4,0,0,1-12.48-.77,11.06,11.06,0,0,1-2.44-7.55,11.34,11.34,0,0,1,2.44-7.64,8.36,8.36,0,0,1,6.68-2.87,8.75,8.75,0,0,1,5.84,1.87,8,8,0,0,1,2.68,5.28l-2.88.33q-.79-5.14-5.72-5.14a5.43,5.43,0,0,0-4.6,2.16,9.76,9.76,0,0,0-1.63,6,9.27,9.27,0,0,0,1.66,5.85A5.58,5.58,0,0,0,1188.6,366.76Z"/><path class="cls-3" d="M1199.87,358.72a10.92,10.92,0,0,1,2.56-7.56,9.79,9.79,0,0,1,13.85,0,12.29,12.29,0,0,1,0,15.12,9.84,9.84,0,0,1-13.85,0A10.92,10.92,0,0,1,1199.87,358.72Zm14.41,5.88a10.54,10.54,0,0,0,0-11.78,6.58,6.58,0,0,0-9.8,0,10.61,10.61,0,0,0,0,11.78,6.65,6.65,0,0,0,9.81,0Z"/><path class="cls-3" d="M1239,357.8v10.84h-2.74V356.28a6.18,6.18,0,0,0-1.24-4.14,4.36,4.36,0,0,0-3.54-1.47,4.89,4.89,0,0,0-4.1,1.83,8.45,8.45,0,0,0-1.43,5.3v10.84h-2.71V348.76H1226v2.52a6.74,6.74,0,0,1,6-3,7.58,7.58,0,0,1,3.91,1,5.82,5.82,0,0,1,2.42,2.79,6.83,6.83,0,0,1,6.56-3.75,7,7,0,0,1,5.3,2,7.58,7.58,0,0,1,1.93,5.48v12.87h-2.72V356.28a6.19,6.19,0,0,0-1.25-4.14,4.4,4.4,0,0,0-3.55-1.47,4.85,4.85,0,0,0-4.09,1.83A8.45,8.45,0,0,0,1239,357.8Z"/><path class="cls-3" d="M1258.42,373.91h-3.13l14.24-35h3Z"/><path class="cls-3" d="M1289,351.08l-12.44,15.27h12.77v2.29h-15.92v-2.17L1286,351h-11.89v-2.28H1289Z"/><path class="cls-3" d="M1301.12,366.88c3.08,0,4.91-1.52,5.51-4.57l2.6.41a6.78,6.78,0,0,1-2.62,4.68,8.68,8.68,0,0,1-5.49,1.73q-4.59,0-7-2.69t-2.41-7.76a10.91,10.91,0,0,1,2.52-7.56,8.67,8.67,0,0,1,6.8-2.83,8,8,0,0,1,6.26,2.45,9.8,9.8,0,0,1,2.23,6.86v1.68h-15Q1294.76,366.89,1301.12,366.88Zm-.13-16.37a6,6,0,0,0-4.43,1.66,7.93,7.93,0,0,0-2,4.87h12C1306.44,352.69,1304.55,350.51,1301,350.51Z"/><path class="cls-3" d="M1322.06,366.88c3.08,0,4.91-1.52,5.51-4.57l2.6.41a6.78,6.78,0,0,1-2.62,4.68,8.68,8.68,0,0,1-5.49,1.73q-4.59,0-7-2.69t-2.41-7.76a10.91,10.91,0,0,1,2.52-7.56,8.67,8.67,0,0,1,6.8-2.83,8.07,8.07,0,0,1,6.27,2.45,9.85,9.85,0,0,1,2.22,6.86v1.68h-15Q1315.7,366.89,1322.06,366.88Zm-.13-16.37a6,6,0,0,0-4.43,1.66,7.93,7.93,0,0,0-2,4.87h12Q1327.29,350.52,1321.93,350.51Z"/><path class="cls-3" d="M1343,366.88c3.07,0,4.91-1.52,5.5-4.57l2.6.41a6.81,6.81,0,0,1-2.61,4.68,8.72,8.72,0,0,1-5.49,1.73q-4.59,0-7-2.69c-1.6-1.79-2.41-4.38-2.41-7.76a10.91,10.91,0,0,1,2.52-7.56,8.67,8.67,0,0,1,6.8-2.83,8.07,8.07,0,0,1,6.27,2.45,9.85,9.85,0,0,1,2.23,6.86v1.68h-15Q1336.63,366.89,1343,366.88Zm-.14-16.37a5.93,5.93,0,0,0-4.42,1.66,7.94,7.94,0,0,0-2,4.87h12Q1348.23,350.52,1342.87,350.51Z"/><path class="cls-3" d="M1372.43,355.77v12.87h-2.74V356.28a5.86,5.86,0,0,0-1.35-4.14,4.94,4.94,0,0,0-3.84-1.47,5.42,5.42,0,0,0-4.42,1.82,8.16,8.16,0,0,0-1.5,5.31v10.84h-2.72V348.76h2.72v2.63q2-3.11,6.37-3.1a6.91,6.91,0,0,1,7.48,7.48Z"/><path class="cls-3" d="M1384.7,369.13a9.25,9.25,0,0,1-6-1.8,6.26,6.26,0,0,1-2.4-4.8L1379,362a5.54,5.54,0,0,0,1.7,3.64,6,6,0,0,0,4,1.16,5.47,5.47,0,0,0,3.52-1,3.55,3.55,0,0,0,1.2-2.9q0-2.58-4-3.25l-2.72-.43q-5.76-.94-5.76-5.45a4.86,4.86,0,0,1,2-4,9.5,9.5,0,0,1,10.45,0,7.07,7.07,0,0,1,2.49,4.54l-2.48.43a5.87,5.87,0,0,0-1.81-3.28,5.5,5.5,0,0,0-3.48-1,5.57,5.57,0,0,0-3.3.87,2.91,2.91,0,0,0-.38,4.4,4.84,4.84,0,0,0,2.64,1l3.13.51q6,1,6,5.61a5.54,5.54,0,0,1-2,4.47A8.14,8.14,0,0,1,1384.7,369.13Z"/><path class="cls-3" d="M1413,355.77v12.87h-2.73V356.28a5.86,5.86,0,0,0-1.35-4.14,5,5,0,0,0-3.85-1.47,5.39,5.39,0,0,0-4.41,1.82,8.1,8.1,0,0,0-1.51,5.31v10.84h-2.71v-28h2.71v10.76a7.07,7.07,0,0,1,6.37-3.1,6.9,6.9,0,0,1,7.48,7.48Z"/><path class="cls-3" d="M1417.15,358.72a10.91,10.91,0,0,1,2.55-7.56,9.79,9.79,0,0,1,13.85,0,12.29,12.29,0,0,1,0,15.12,9.84,9.84,0,0,1-13.85,0A10.91,10.91,0,0,1,1417.15,358.72Zm14.4,5.88a10.49,10.49,0,0,0,0-11.78,6.58,6.58,0,0,0-9.8,0,9.05,9.05,0,0,0-1.79,5.9,8.94,8.94,0,0,0,1.79,5.88,6.64,6.64,0,0,0,9.8,0Z"/><path class="cls-3" d="M1449.94,348.29a8,8,0,0,1,6.45,2.79,11,11,0,0,1,2.44,7.48,11.54,11.54,0,0,1-2.44,7.68,8,8,0,0,1-6.45,2.89,7.64,7.64,0,0,1-6.68-3.5V376h-2.71V348.76h2.71v3.12A7.59,7.59,0,0,1,1449.94,348.29Zm6.08,10.43a9.34,9.34,0,0,0-1.68-5.88,5.48,5.48,0,0,0-4.59-2.17,5.84,5.84,0,0,0-4.78,2.2,10.4,10.4,0,0,0,0,11.65,5.83,5.83,0,0,0,4.77,2.21,5.5,5.5,0,0,0,4.59-2.16A9.29,9.29,0,0,0,1456,358.72Z"/><rect class="cls-3" x="670.01" y="250.04" width="12.61" height="151.28"/><rect class="cls-3" x="676.31" y="306.77" width="44.12" height="12.61"/><rect class="cls-3" x="669.3" y="289.85" width="47.87" height="12.61" transform="translate(-6.36 576.94) rotate(-45)"/><rect class="cls-3" x="651.1" y="350.9" width="21.66" height="12.61"/><path class="cls-3" d="M682.62,382.41v-12.6a12.61,12.61,0,0,0,0-25.22V332a25.21,25.21,0,1,1,0,50.42Z"/><path class="cls-3" d="M701.53,269H688.92a12.61,12.61,0,0,0-25.21,0H651.1a25.22,25.22,0,0,1,50.43,0Z"/><path class="cls-3" d="M984.78,823.65H972.17a75.44,75.44,0,0,0-150.88,0h-12.6a88,88,0,0,1,176.09,0Z"/><rect class="cls-3" x="723.24" y="514.78" width="196.11" height="12.61" transform="translate(-127.91 733.36) rotate(-45)"/><path class="cls-3" d="M1249.92,836.26H745.65V511.09L720.44,536.3v35.21H670V395H796.08A119.9,119.9,0,0,1,915.84,514.78V546.3h214.32a119.9,119.9,0,0,1,119.76,119.76ZM758.26,823.65h479.06V666.06a107.28,107.28,0,0,0-107.16-107.15H903.24V514.78A107.28,107.28,0,0,0,796.08,407.63H682.62V558.91h25.21V531.08L779,459.9l8.91,8.91-29.67,29.67Z"/><polygon class="cls-3" points="1243.62 798.44 1117.55 798.44 1117.55 552.6 1130.16 552.6 1130.16 785.83 1243.62 785.83 1243.62 798.44"/><path class="cls-3" d="M991.49,722.8a88.35,88.35,0,0,1-88.25-88.25V546.3h176.49v88.25A88.34,88.34,0,0,1,991.49,722.8ZM915.84,558.91v75.64a75.65,75.65,0,0,0,151.29,0V558.91Z"/><path class="cls-3" d="M726.74,451.75H670V395h56.73Zm-44.12-12.61h31.52V407.63H682.62Z"/><line class="cls-4" y1="929.76" x2="1920" y2="929.76"/><line class="cls-5" y1="836.26" x2="1920" y2="836.26"/><line class="cls-6" x1="1475.91" y1="1080" x2="1475.91"/><line class="cls-7" x1="350.55" y1="1080" x2="350.55"/><line class="cls-8" x1="1569.43" y1="1080" x2="1569.43"/><line class="cls-9" x1="444.08" y1="1080" x2="444.08"/><line class="cls-10" y1="150.24" x2="1920" y2="150.24"/><line class="cls-11" y1="244.16" x2="1920" y2="244.16"/></g></svg>