<svg xmlns="http://www.w3.org/2000/svg" viewBox="0 0 1080 1080"><defs><style>.cls-1{fill:#b3b8b9;}</style></defs><g id="Graphic"><rect class="cls-1" x="214.13" y="85.15" width="651.74" height="918.37"/><path d="M582.92,640.49h-4.87l-1,2.75h-1.56l4.34-11.2h1.54l4.29,11.2h-1.68Zm-4.38-1.28h3.91L580.53,634Z"/><path d="M588.11,643.24h-1.42v-8h1.38v1.46a2.49,2.49,0,0,1,2.29-1.46H591v1.35h-.63a1.92,1.92,0,0,0-1.64.87,4.16,4.16,0,0,0-.6,2.37Z"/><path d="M592.12,636.41v-1.17h1.4v-2.57H595v2.57h2v1.17h-2v4.48a1.33,1.33,0,0,0,.22.88,1,1,0,0,0,.77.25h1.21v1.22h-1.43a2.2,2.2,0,0,1-1.63-.55,2.14,2.14,0,0,1-.57-1.61v-4.67Z"/><path d="M599.68,634h-1.43V632h1.43Zm0,9.29h-1.43v-8h1.43Z"/><path d="M604.48,643.43a3.85,3.85,0,0,1-2.46-.71,2.52,2.52,0,0,1-1-1.93l1.42-.21a2,2,0,0,0,.6,1.31,2.17,2.17,0,0,0,1.44.42,2,2,0,0,0,1.27-.34,1.22,1.22,0,0,0,.43-1c0-.63-.47-1-1.41-1.15l-1.15-.18a3.25,3.25,0,0,1-1.75-.75,2.14,2.14,0,0,1,.22-3.17,3.35,3.35,0,0,1,2.18-.65,3.48,3.48,0,0,1,2.19.63,2.75,2.75,0,0,1,1,1.83l-1.31.19a2,2,0,0,0-.64-1.17,2.39,2.39,0,0,0-2.44,0,1,1,0,0,0-.43.81.94.94,0,0,0,.29.73,1.83,1.83,0,0,0,.95.37l1.28.21c1.62.26,2.43,1,2.43,2.29a2.28,2.28,0,0,1-.84,1.85A3.45,3.45,0,0,1,604.48,643.43Z"/><path d="M608,636.41v-1.17h1.4v-2.57h1.42v2.57h2v1.17h-2v4.48a1.39,1.39,0,0,0,.22.88,1,1,0,0,0,.77.25H613v1.22h-1.43a2.24,2.24,0,0,1-1.64-.55,2.17,2.17,0,0,1-.56-1.61v-4.67Z"/><path d="M615.56,634h-1.42V632h1.42Zm0,9.29h-1.42v-8h1.42Z"/><path d="M620.79,642.22a2,2,0,0,0,1.44-.51,2.21,2.21,0,0,0,.66-1.42l1.39.17a3.25,3.25,0,0,1-1.11,2.17,4,4,0,0,1-5.15-.32,4.39,4.39,0,0,1-1-3,4.45,4.45,0,0,1,1-3.07,3.51,3.51,0,0,1,2.75-1.15,3.62,3.62,0,0,1,2.42.77,3.29,3.29,0,0,1,1.11,2.17l-1.45.17a2,2,0,0,0-2.1-1.89,2,2,0,0,0-1.69.78,3.62,3.62,0,0,0-.6,2.22,3.42,3.42,0,0,0,.61,2.17A2,2,0,0,0,620.79,642.22Z"/><path d="M632.48,642.05h.38v1.19h-.77a1.79,1.79,0,0,1-1.06-.3,1.1,1.1,0,0,1-.47-.83,2.81,2.81,0,0,1-2.53,1.32,3,3,0,0,1-2-.65,2.09,2.09,0,0,1-.76-1.68,2.27,2.27,0,0,1,.62-1.64,3.19,3.19,0,0,1,1.79-.83l2.34-.4a.54.54,0,0,0,.5-.57,1.34,1.34,0,0,0-.47-1.06,1.86,1.86,0,0,0-1.28-.41,2.1,2.1,0,0,0-1.29.36,1.9,1.9,0,0,0-.66,1.12l-1.35-.16a2.76,2.76,0,0,1,1.09-1.78,3.59,3.59,0,0,1,2.26-.68,3.19,3.19,0,0,1,2.26.76,2.65,2.65,0,0,1,.82,2v3.6a.66.66,0,0,0,.14.47A.63.63,0,0,0,632.48,642.05Zm-5.83-1a1.19,1.19,0,0,0,.41,1,1.69,1.69,0,0,0,1.13.34,2.13,2.13,0,0,0,1.67-.73,2.71,2.71,0,0,0,.65-1.87v-.46l-2.56.44a1.73,1.73,0,0,0-1,.45A1.2,1.2,0,0,0,626.65,641Z"/><path d="M635.29,643.24h-1.42V632h1.42Z"/><path d="M638.68,643.24h-1.42V632h1.42Z"/><path d="M642.63,644l.26-.7-3.15-8h1.5l2.37,6.29,2.39-6.29h1.44l-3.49,8.9a3.46,3.46,0,0,1-1.09,1.61,2.69,2.69,0,0,1-1.65.45h-.83V645h.83a1.56,1.56,0,0,0,.89-.23A1.65,1.65,0,0,0,642.63,644Z"/><path d="M653.24,643.24h-1.53V632h7.85v1.31h-6.32V637h5.68v1.31h-5.68Z"/><path d="M661.93,643.24h-1.42v-8h1.38v1.46a2.49,2.49,0,0,1,2.29-1.46h.62v1.35h-.63a1.89,1.89,0,0,0-1.63.87,4.08,4.08,0,0,0-.61,2.37Z"/><path d="M665.18,639.24a4.3,4.3,0,0,1,1.06-3,3.64,3.64,0,0,1,2.83-1.15,3.71,3.71,0,0,1,2.84,1.15,4.24,4.24,0,0,1,1.07,3,4.29,4.29,0,0,1-1.07,3,3.71,3.71,0,0,1-2.84,1.15,3.64,3.64,0,0,1-2.83-1.15A4.3,4.3,0,0,1,665.18,639.24Zm5.7,2.19a4,4,0,0,0,0-4.38,2.23,2.23,0,0,0-1.81-.8,2.19,2.19,0,0,0-1.79.8,3.38,3.38,0,0,0-.65,2.19,3.43,3.43,0,0,0,.65,2.2,2.17,2.17,0,0,0,1.79.79A2.23,2.23,0,0,0,670.88,641.43Z"/><path d="M681,638.83v4.41h-1.42v-4.93a2.22,2.22,0,0,0-.46-1.5,1.6,1.6,0,0,0-1.28-.53,1.79,1.79,0,0,0-1.49.65,3,3,0,0,0-.51,1.9v4.41h-1.42v-8h1.39v1a2.68,2.68,0,0,1,2.35-1.17,2.93,2.93,0,0,1,1.52.37,2.37,2.37,0,0,1,1,1.07,2.72,2.72,0,0,1,2.58-1.44,2.83,2.83,0,0,1,2.15.81,3,3,0,0,1,.78,2.19v5.19h-1.42v-4.93a2.22,2.22,0,0,0-.46-1.5,1.64,1.64,0,0,0-1.29-.53,1.79,1.79,0,0,0-1.49.65A3,3,0,0,0,681,638.83Z"/><path d="M693.08,643.24h-1.54V632h1.54Z"/><path d="M696.63,643.24h-1.42v-8h1.39v1.46a2.47,2.47,0,0,1,2.29-1.46h.62v1.35h-.64a1.9,1.9,0,0,0-1.63.87,4.08,4.08,0,0,0-.61,2.37Z"/><path d="M707.13,642.05h.38v1.19h-.77a1.77,1.77,0,0,1-1.06-.3,1.1,1.1,0,0,1-.47-.83,2.82,2.82,0,0,1-2.53,1.32,3,3,0,0,1-2-.65,2.1,2.1,0,0,1-.77-1.68,2.24,2.24,0,0,1,.63-1.64,3.19,3.19,0,0,1,1.79-.83l2.33-.4a.53.53,0,0,0,.5-.57,1.31,1.31,0,0,0-.47-1.06,1.82,1.82,0,0,0-1.28-.41,2,2,0,0,0-1.28.36,1.9,1.9,0,0,0-.66,1.12l-1.35-.16a2.72,2.72,0,0,1,1.09-1.78,3.59,3.59,0,0,1,2.26-.68,3.19,3.19,0,0,1,2.26.76,2.65,2.65,0,0,1,.82,2v3.6a.66.66,0,0,0,.14.47A.62.62,0,0,0,707.13,642.05Zm-5.83-1a1.19,1.19,0,0,0,.41,1,1.69,1.69,0,0,0,1.13.34,2.13,2.13,0,0,0,1.67-.73,2.71,2.71,0,0,0,.65-1.87v-.46l-2.56.44a1.69,1.69,0,0,0-1,.45A1.2,1.2,0,0,0,701.3,641Z"/><path d="M715.39,638.05v5.19H714v-4.93a2.15,2.15,0,0,0-.48-1.5,1.82,1.82,0,0,0-1.4-.53,2,2,0,0,0-1.6.65,2.89,2.89,0,0,0-.54,1.9v4.41h-1.42v-8h1.38v1a2.83,2.83,0,0,1,2.5-1.2,2.93,2.93,0,0,1,2.19.81A3,3,0,0,1,715.39,638.05Z"/><path d="M581.79,658.17H575.5V649h6.16v1.07h-4.9V653h4.38v1h-4.38v3.06h5Z"/><path d="M586.3,658.33a4,4,0,0,1-2.62-.8,2.76,2.76,0,0,1-1-2.18l1.23-.16a2.1,2.1,0,0,0,.66,1.57,2.51,2.51,0,0,0,1.72.53,2.08,2.08,0,0,0,1.42-.44,1.46,1.46,0,0,0,.52-1.19,1.22,1.22,0,0,0-.36-.94,2.72,2.72,0,0,0-1.26-.52l-1.22-.27a3.53,3.53,0,0,1-1.85-.9,2.42,2.42,0,0,1,.26-3.43,3.25,3.25,0,0,1,2.22-.73,3.51,3.51,0,0,1,2.3.7,2.8,2.8,0,0,1,1,1.95l-1.24.16a1.83,1.83,0,0,0-2-1.78,2.12,2.12,0,0,0-1.36.39,1.32,1.32,0,0,0-.48,1.07,1.3,1.3,0,0,0,.35,1,2.29,2.29,0,0,0,1.14.52l1.42.3a3.52,3.52,0,0,1,1.81.86,2.17,2.17,0,0,1,.58,1.6,2.53,2.53,0,0,1-.87,2A3.44,3.44,0,0,1,586.3,658.33Z"/><path d="M589.87,649h6.94v1.07H594v8.08h-1.25v-8.08h-2.85Z"/><path d="M604.48,651.45a1.45,1.45,0,0,0-.44-1.1,1.64,1.64,0,0,0-1.16-.41,1.76,1.76,0,0,0-1.47.63,2.81,2.81,0,0,0-.47,1.84l-1.2-.16a3,3,0,0,1,3.14-3.38,2.91,2.91,0,0,1,2.08.71,2.46,2.46,0,0,1,.77,1.87,3.33,3.33,0,0,1-.46,1.65,7.76,7.76,0,0,1-1.51,1.78l-2.44,2.24H606v1H599.7V657.1l3.29-3a5.58,5.58,0,0,0,1.15-1.35A2.5,2.5,0,0,0,604.48,651.45Z"/><path d="M607,653.6a5.93,5.93,0,0,1,.9-3.47,2.94,2.94,0,0,1,2.52-1.26,2.9,2.9,0,0,1,2.52,1.26,7,7,0,0,1,0,6.93,2.9,2.9,0,0,1-2.52,1.27,2.94,2.94,0,0,1-2.53-1.25A6,6,0,0,1,607,653.6Zm5,2.72a6.8,6.8,0,0,0,0-5.45,1.84,1.84,0,0,0-3.23,0,6.83,6.83,0,0,0,0,5.44,1.85,1.85,0,0,0,3.24,0Z"/><path d="M620.71,658.17H615v-1h2.23v-5.87a2,2,0,0,1-1,.24H615v-1h1.15a1.06,1.06,0,0,0,.87-.34,1.74,1.74,0,0,0,.29-1.1h1.21v8.1h2.19Z"/><path d="M626.51,655.49a1.46,1.46,0,0,0-.47-1.15,2,2,0,0,0-1.34-.41h-.82V653h.78a1.49,1.49,0,0,0,1.15-.43,1.7,1.7,0,0,0,.4-1.21,1.32,1.32,0,0,0-.44-1.05,1.77,1.77,0,0,0-1.2-.39,1.86,1.86,0,0,0-1.38.51,2,2,0,0,0-.56,1.4l-1.13-.25a2.5,2.5,0,0,1,.89-1.94,3.26,3.26,0,0,1,2.2-.75,3.17,3.17,0,0,1,2.09.65,2.19,2.19,0,0,1,.76,1.75,2.46,2.46,0,0,1-.33,1.28,2,2,0,0,1-1,.83,2.35,2.35,0,0,1,1.18.82,2.12,2.12,0,0,1,.4,1.3,2.67,2.67,0,0,1-.84,2.06,3.3,3.3,0,0,1-2.29.77,3.89,3.89,0,0,1-2.35-.68,2.48,2.48,0,0,1-1-1.87l1.24-.28a1.89,1.89,0,0,0,.62,1.33,2.18,2.18,0,0,0,1.47.46,2,2,0,0,0,1.42-.47A1.74,1.74,0,0,0,626.51,655.49Z"/><rect x="454.15" y="436.09" width="3.73" height="44.79"/><rect x="456.02" y="452.88" width="13.06" height="3.73"/><rect x="453.94" y="447.87" width="14.17" height="3.73" transform="translate(-182.98 457.72) rotate(-45)"/><rect x="448.55" y="465.95" width="6.41" height="3.73"/><path d="M457.89,475.28v-3.73a3.74,3.74,0,0,0,0-7.47v-3.73a7.47,7.47,0,0,1,0,14.93Z"/><path d="M463.48,441.68h-3.73a3.73,3.73,0,1,0-7.46,0h-3.74a7.47,7.47,0,0,1,14.93,0Z"/><path d="M547.34,605.92h-3.73a22.34,22.34,0,1,0-44.67,0h-3.73a26.07,26.07,0,1,1,52.13,0Z"/><rect x="469.91" y="514.47" width="58.06" height="3.73" transform="translate(-218.97 504.04) rotate(-45)"/><path d="M625.85,609.65H476.55V513.38l-7.47,7.46v10.43H454.15V479h37.33a35.5,35.5,0,0,1,35.46,35.46v9.33h63.45a35.5,35.5,0,0,1,35.46,35.46Zm-145.57-3.73H622.11V559.26a31.76,31.76,0,0,0-31.72-31.73H523.2V514.47a31.77,31.77,0,0,0-31.72-31.73H457.89v44.79h7.46V519.3l21.08-21.08,2.63,2.64-8.78,8.78Z"/><polygon points="623.98 598.45 586.66 598.45 586.66 525.67 590.39 525.67 590.39 594.72 623.98 594.72 623.98 598.45"/><path d="M549.33,576.06a26.16,26.16,0,0,1-26.13-26.13V523.8h52.26v26.13A26.16,26.16,0,0,1,549.33,576.06Zm-22.39-48.53v22.4a22.4,22.4,0,0,0,44.79,0v-22.4Z"/><path d="M471,495.81h-16.8V479H471Zm-13.06-3.74h9.33v-9.33h-9.33Z"/><polygon points="411.23 581.65 394.39 581.65 406.29 562.99 396.3 562.99 396.3 559.26 413.1 559.26 401.19 577.92 411.23 577.92 411.23 581.65"/><polygon points="431.76 581.65 416.88 581.65 416.82 559.26 431.76 559.26 431.76 562.99 420.57 562.99 420.6 577.92 431.76 577.92 431.76 581.65"/><rect x="418.7" y="568.59" width="13.06" height="3.73"/><polygon points="452.29 581.65 437.36 581.65 437.36 559.26 452.29 559.26 452.29 562.99 441.09 562.99 441.09 577.92 452.29 577.92 452.29 581.65"/><rect x="439.22" y="568.59" width="13.06" height="3.73"/><polygon points="431.76 609.65 416.83 609.65 416.83 587.25 431.76 587.25 431.76 590.99 420.56 590.99 420.56 605.92 431.76 605.92 431.76 609.65"/><rect x="418.7" y="596.59" width="13.06" height="3.73"/><polygon points="454.15 609.65 450.58 609.65 441.09 594.53 441.09 609.65 437.36 609.65 437.36 587.25 440.94 587.25 450.42 602.37 450.42 587.25 454.15 587.25 454.15 609.65"/><path d="M497.08,671.23a20.55,20.55,0,0,1-20.53-20.52V632h3.73v18.67a16.8,16.8,0,0,0,33.59,0V632h3.74v18.67A20.55,20.55,0,0,1,497.08,671.23Z"/><polygon points="539.29 670.69 536.66 668.05 551.2 653.51 551.2 643.24 554.93 643.24 554.93 655.05 539.29 670.69"/><rect x="495.21" y="632.04" width="3.73" height="7.46"/><rect x="551.2" y="632.04" width="3.73" height="7.46"/><rect x="513.87" y="674.97" width="3.73" height="7.46"/><rect x="521.34" y="674.97" width="3.73" height="7.46"/><polygon points="517.06 650.93 514.42 648.29 523.21 639.51 523.21 632.04 526.94 632.04 526.94 641.05 517.06 650.93"/><polygon points="517.06 662.13 514.42 659.49 530.67 643.24 530.67 632.04 534.4 632.04 534.4 644.79 517.06 662.13"/><polygon points="519.15 671.24 513.88 671.24 513.88 632.04 517.61 632.04 517.61 667.5 538.14 646.97 538.14 632.04 541.87 632.04 541.87 648.52 519.15 671.24"/></g></svg>