<svg xmlns="http://www.w3.org/2000/svg" viewBox="0 0 1920 1080"><defs><style>.cls-1{fill:#dbdedf;}.cls-2{fill:#248d77;}.cls-3{fill:#da5149;}.cls-4{fill:#f2ba97;}.cls-5{fill:#d57946;}.cls-6{fill:#fff;}</style></defs><g id="Graphic"><rect class="cls-1" x="406.53" y="288.55" width="838.82" height="438.78"/><polygon class="cls-2" points="406.52 565.12 406.52 288.55 683.09 288.55 406.52 565.12"/><rect class="cls-3" x="906.48" y="288.55" width="338.86" height="338.86"/><circle class="cls-4" cx="1000.03" cy="386.14" r="56.76"/><circle class="cls-4" cx="1000.03" cy="529.82" r="56.76"/><circle class="cls-4" cx="1151.8" cy="386.14" r="56.76"/><circle class="cls-4" cx="1151.8" cy="529.82" r="56.76"/><rect class="cls-5" x="806.56" y="627.41" width="99.92" height="99.92"/><path d="M658.74,648.75h-3.37l-.73,1.91h-1.08l3-7.75h1.07l3,7.75h-1.16Zm-3-.88h2.7l-1.33-3.61Z"/><path d="M662.33,650.66h-1v-5.54h1v1a1.71,1.71,0,0,1,1.58-1h.43v.93h-.44a1.3,1.3,0,0,0-1.13.61,2.82,2.82,0,0,0-.42,1.64Z"/><path d="M665.1,645.93v-.81h1v-1.78h1v1.78h1.4v.81h-1.4V649a.89.89,0,0,0,.16.61.7.7,0,0,0,.53.17h.84v.85h-1a1.52,1.52,0,0,1-1.13-.39,1.47,1.47,0,0,1-.39-1.11v-3.23Z"/><path d="M670.33,644.22h-1v-1.31h1Zm0,6.44h-1v-5.54h1Z"/><path d="M673.66,650.79a2.68,2.68,0,0,1-1.7-.49,1.75,1.75,0,0,1-.7-1.34l1-.14a1.34,1.34,0,0,0,.42.9,1.46,1.46,0,0,0,1,.29,1.4,1.4,0,0,0,.88-.24.83.83,0,0,0,.3-.7c0-.44-.33-.7-1-.79l-.79-.13a2.12,2.12,0,0,1-1.21-.52,1.37,1.37,0,0,1-.42-1,1.43,1.43,0,0,1,.56-1.16,2.45,2.45,0,0,1,1.52-.44,2.34,2.34,0,0,1,1.51.44,1.89,1.89,0,0,1,.7,1.26l-.9.13a1.47,1.47,0,0,0-.45-.81,1.64,1.64,0,0,0-1.69,0,.66.66,0,0,0-.3.56.63.63,0,0,0,.21.5,1.19,1.19,0,0,0,.65.26l.89.15c1.12.17,1.68.7,1.68,1.58a1.56,1.56,0,0,1-.58,1.28A2.39,2.39,0,0,1,673.66,650.79Z"/><path d="M676.1,645.93v-.81h1v-1.78h1v1.78h1.39v.81h-1.39V649a1,1,0,0,0,.15.61.7.7,0,0,0,.53.17h.84v.85h-1a1.54,1.54,0,0,1-1.13-.39,1.47,1.47,0,0,1-.39-1.11v-3.23Z"/><path d="M681.33,644.22h-1v-1.31h1Zm0,6.44h-1v-5.54h1Z"/><path d="M684.94,650a1.42,1.42,0,0,0,1-.35,1.49,1.49,0,0,0,.46-1l1,.11a2.23,2.23,0,0,1-.76,1.5,2.49,2.49,0,0,1-1.66.56A2.44,2.44,0,0,1,683,650a3.51,3.51,0,0,1,0-4.22,2.42,2.42,0,0,1,1.9-.8,2.51,2.51,0,0,1,1.68.53,2.3,2.3,0,0,1,.77,1.5l-1,.12a1.48,1.48,0,0,0-2.62-.76,2.44,2.44,0,0,0-.42,1.53,2.39,2.39,0,0,0,.42,1.5A1.4,1.4,0,0,0,684.94,650Z"/><path d="M693,649.83h.26v.83h-.53a1.19,1.19,0,0,1-.73-.21.74.74,0,0,1-.33-.58,2,2,0,0,1-1.75.92,2.08,2.08,0,0,1-1.4-.45,1.47,1.47,0,0,1-.53-1.17,1.59,1.59,0,0,1,.43-1.13,2.21,2.21,0,0,1,1.24-.57l1.62-.28a.37.37,0,0,0,.34-.4.91.91,0,0,0-.32-.73,1.3,1.3,0,0,0-.89-.28,1.42,1.42,0,0,0-.89.25,1.26,1.26,0,0,0-.45.77l-.94-.11a1.88,1.88,0,0,1,.76-1.23,2.45,2.45,0,0,1,1.56-.47,2.21,2.21,0,0,1,1.57.53,1.82,1.82,0,0,1,.56,1.41v2.49a.45.45,0,0,0,.1.32A.44.44,0,0,0,693,649.83Zm-4-.73a.81.81,0,0,0,.29.66,1.14,1.14,0,0,0,.78.24,1.48,1.48,0,0,0,1.15-.5,1.89,1.89,0,0,0,.45-1.3v-.32l-1.77.31a1.13,1.13,0,0,0-.67.3A.87.87,0,0,0,689,649.1Z"/><path d="M695,650.66h-1v-7.75h1Z"/><path d="M697.33,650.66h-1v-7.75h1Z"/><path d="M700.06,651.17l.18-.48-2.18-5.57h1l1.64,4.35,1.65-4.35h1L701,651.28a2.43,2.43,0,0,1-.75,1.12,1.93,1.93,0,0,1-1.14.3h-.57v-.83h.57a1,1,0,0,0,.61-.16A1.09,1.09,0,0,0,700.06,651.17Z"/><path d="M707.41,650.66h-1.07v-7.75h5.44v.9h-4.37v2.53h3.92v.91h-3.92Z"/><path d="M713.42,650.66h-1v-5.54h1v1a1.72,1.72,0,0,1,1.59-1h.42v.93H715a1.29,1.29,0,0,0-1.13.61,2.82,2.82,0,0,0-.42,1.64Z"/><path d="M715.67,647.89a3,3,0,0,1,.73-2.1,2.51,2.51,0,0,1,2-.8,2.56,2.56,0,0,1,2,.8,2.94,2.94,0,0,1,.74,2.1,3,3,0,0,1-.74,2.1,2.59,2.59,0,0,1-2,.8,2.54,2.54,0,0,1-2-.8A3,3,0,0,1,715.67,647.89Zm3.94,1.51a2.3,2.3,0,0,0,.45-1.51,2.35,2.35,0,0,0-.45-1.52,1.53,1.53,0,0,0-1.25-.55,1.5,1.5,0,0,0-1.24.55,2.79,2.79,0,0,0,0,3,1.67,1.67,0,0,0,2.49,0Z"/><path d="M726.62,647.6v3.06h-1v-3.41a1.54,1.54,0,0,0-.32-1,1.1,1.1,0,0,0-.89-.37,1.24,1.24,0,0,0-1,.45,2.13,2.13,0,0,0-.35,1.31v3.06h-1v-5.54h1v.68a1.84,1.84,0,0,1,1.62-.81,2.1,2.1,0,0,1,1.06.25,1.66,1.66,0,0,1,.68.75,1.87,1.87,0,0,1,1.78-1,1.94,1.94,0,0,1,1.49.56,2.09,2.09,0,0,1,.54,1.52v3.59h-1v-3.41a1.54,1.54,0,0,0-.32-1,1.12,1.12,0,0,0-.9-.37,1.21,1.21,0,0,0-1,.45A2.06,2.06,0,0,0,726.62,647.6Z"/><path d="M735,650.66h-1.06v-7.75H735Z"/><path d="M737.43,650.66h-1v-5.54h1v1a1.72,1.72,0,0,1,1.58-1h.43v.93H739a1.3,1.3,0,0,0-1.13.61,2.82,2.82,0,0,0-.42,1.64Z"/><path d="M744.69,649.83H745v.83h-.54a1.23,1.23,0,0,1-.73-.21.76.76,0,0,1-.32-.58,2,2,0,0,1-1.76.92,2.07,2.07,0,0,1-1.39-.45,1.47,1.47,0,0,1-.53-1.17,1.55,1.55,0,0,1,.43-1.13,2.21,2.21,0,0,1,1.24-.57l1.62-.28a.37.37,0,0,0,.34-.4.94.94,0,0,0-.32-.73,1.3,1.3,0,0,0-.89-.28,1.42,1.42,0,0,0-.89.25,1.26,1.26,0,0,0-.45.77l-.94-.11a1.9,1.9,0,0,1,.75-1.23,2.5,2.5,0,0,1,1.57-.47,2.17,2.17,0,0,1,1.56.53,1.82,1.82,0,0,1,.57,1.41v2.49a.41.41,0,0,0,.1.32A.43.43,0,0,0,744.69,649.83Zm-4-.73a.83.83,0,0,0,.28.66,1.18,1.18,0,0,0,.79.24,1.48,1.48,0,0,0,1.15-.5,1.89,1.89,0,0,0,.45-1.3v-.32l-1.77.31a1.13,1.13,0,0,0-.67.3A.87.87,0,0,0,740.66,649.1Z"/><path d="M750.41,647.07v3.59h-1v-3.41a1.48,1.48,0,0,0-.34-1,1.24,1.24,0,0,0-1-.37,1.35,1.35,0,0,0-1.1.45,2,2,0,0,0-.38,1.31v3.06h-1v-5.54h1v.7a1.93,1.93,0,0,1,1.72-.83,2,2,0,0,1,1.52.56A2.06,2.06,0,0,1,750.41,647.07Z"/><path d="M658,661h-4.35v-6.33h4.26v.74h-3.39v2h3v.72h-3v2.12H658Z"/><path d="M661.08,661.1a2.79,2.79,0,0,1-1.81-.55,1.93,1.93,0,0,1-.69-1.51l.85-.11a1.43,1.43,0,0,0,.46,1.08,1.73,1.73,0,0,0,1.19.37,1.47,1.47,0,0,0,1-.3,1,1,0,0,0,.36-.83.84.84,0,0,0-.25-.65,2,2,0,0,0-.87-.36l-.84-.18a2.48,2.48,0,0,1-1.28-.63,1.53,1.53,0,0,1-.41-1.14,1.57,1.57,0,0,1,.58-1.23,2.29,2.29,0,0,1,1.54-.51,2.38,2.38,0,0,1,1.59.49,1.89,1.89,0,0,1,.68,1.35l-.86.1a1.26,1.26,0,0,0-1.41-1.22,1.46,1.46,0,0,0-.94.27,1,1,0,0,0-.09,1.4,1.62,1.62,0,0,0,.79.36l1,.21a2.47,2.47,0,0,1,1.26.59,1.54,1.54,0,0,1,.4,1.11,1.72,1.72,0,0,1-.61,1.35A2.33,2.33,0,0,1,661.08,661.1Z"/><path d="M663.55,654.66h4.8v.74h-2V661h-.87V655.4h-2Z"/><path d="M673.66,656.34a1,1,0,0,0-.3-.76,1.15,1.15,0,0,0-.81-.29,1.23,1.23,0,0,0-1,.44,2,2,0,0,0-.32,1.27l-.83-.11a2,2,0,0,1,2.17-2.34,2,2,0,0,1,1.44.5,1.68,1.68,0,0,1,.54,1.29,2.35,2.35,0,0,1-.32,1.14,5.69,5.69,0,0,1-1.05,1.23l-1.69,1.55h3.22V661h-4.34v-.74l2.28-2.09a4.33,4.33,0,0,0,.8-.93A1.87,1.87,0,0,0,673.66,656.34Z"/><path d="M675.41,657.82a4.14,4.14,0,0,1,.62-2.4,2,2,0,0,1,1.75-.87,2,2,0,0,1,1.74.87,4.82,4.82,0,0,1,0,4.8,2.18,2.18,0,0,1-3.49,0A4.09,4.09,0,0,1,675.41,657.82Zm3.49,1.89a4.75,4.75,0,0,0,0-3.77,1.24,1.24,0,0,0-1.12-.66,1.22,1.22,0,0,0-1.11.67,3.66,3.66,0,0,0-.4,1.87,3.75,3.75,0,0,0,.39,1.89,1.28,1.28,0,0,0,2.24,0Z"/><path d="M684.89,661H681v-.73h1.54V656.2a1.37,1.37,0,0,1-.72.17h-.85v-.71h.79a.74.74,0,0,0,.61-.25,1.18,1.18,0,0,0,.2-.75h.83v5.6h1.52Z"/><path d="M688.9,659.13a1,1,0,0,0-.32-.79,1.38,1.38,0,0,0-.93-.28h-.57v-.66h.55a1,1,0,0,0,.79-.3,1.17,1.17,0,0,0,.28-.84.9.9,0,0,0-.31-.73,1.2,1.2,0,0,0-.83-.26,1.27,1.27,0,0,0-.95.35,1.37,1.37,0,0,0-.39,1l-.78-.18a1.73,1.73,0,0,1,.61-1.34,2.27,2.27,0,0,1,1.53-.52A2.14,2.14,0,0,1,689,655a1.55,1.55,0,0,1,.53,1.22,1.72,1.72,0,0,1-.23.88,1.44,1.44,0,0,1-.66.58,1.59,1.59,0,0,1,.82.56,1.44,1.44,0,0,1,.28.9,1.83,1.83,0,0,1-.59,1.42,2.24,2.24,0,0,1-1.58.54,2.67,2.67,0,0,1-1.63-.48,1.72,1.72,0,0,1-.7-1.29l.86-.19a1.27,1.27,0,0,0,.42.92,1.49,1.49,0,0,0,1,.32,1.41,1.41,0,0,0,1-.33A1.22,1.22,0,0,0,688.9,659.13Z"/><rect x="569.63" y="507.3" width="2.58" height="31"/><rect x="570.92" y="518.92" width="9.04" height="2.58"/><rect x="569.49" y="515.46" width="9.81" height="2.58" transform="translate(-197.16 557.51) rotate(-45)"/><rect x="565.76" y="527.96" width="4.44" height="2.58"/><path d="M572.21,534.42v-2.58a2.59,2.59,0,1,0,0-5.17v-2.58a5.17,5.17,0,1,1,0,10.33Z"/><path d="M576.09,511.17H573.5a2.58,2.58,0,0,0-5.16,0h-2.58a5.17,5.17,0,0,1,10.33,0Z"/><path d="M634.12,624.83h-2.58a15.46,15.46,0,1,0-30.91,0H598a18,18,0,1,1,36.08,0Z"/><rect x="580.53" y="561.54" width="40.18" height="2.58" transform="translate(-222.07 589.56) rotate(-45)"/><path d="M688.45,627.41H585.13V560.79L580,566v7.22H569.63V537h25.83A24.57,24.57,0,0,1,620,561.54V568h43.91a24.57,24.57,0,0,1,24.54,24.54Zm-100.74-2.58h98.16V592.54a22,22,0,0,0-22-22H617.42v-9a22,22,0,0,0-22-21.95H572.21v31h5.17v-5.7L592,550.3l1.83,1.82-6.08,6.08Z"/><polygon points="687.16 619.66 661.33 619.66 661.33 569.29 663.91 569.29 663.91 617.08 687.16 617.08 687.16 619.66"/><path d="M635.5,604.16a18.1,18.1,0,0,1-18.08-18.08V568h36.16v18.08A18.1,18.1,0,0,1,635.5,604.16ZM620,570.58v15.5a15.51,15.51,0,0,0,15.5,15.5h0A15.51,15.51,0,0,0,651,586.08v-15.5Z"/><path d="M581.25,548.63H569.63V537h11.62Zm-9-2.58h6.46v-6.46h-6.46Z"/><polygon points="539.93 608.04 528.27 608.04 536.51 595.12 529.6 595.12 529.6 592.54 541.22 592.54 532.98 605.46 539.93 605.46 539.93 608.04"/><polygon points="554.13 608.04 543.84 608.04 543.8 592.54 554.13 592.54 554.13 595.12 546.39 595.12 546.41 605.46 554.13 605.46 554.13 608.04"/><rect x="545.09" y="599" width="9.04" height="2.58"/><polygon points="568.34 608.04 558.01 608.04 558.01 592.54 568.34 592.54 568.34 595.12 560.59 595.12 560.59 605.46 568.34 605.46 568.34 608.04"/><rect x="559.3" y="599" width="9.04" height="2.58"/><polygon points="554.13 627.41 543.8 627.41 543.8 611.91 554.13 611.91 554.13 614.5 546.38 614.5 546.38 624.83 554.13 624.83 554.13 627.41"/><rect x="545.09" y="618.37" width="9.04" height="2.58"/><polygon points="569.63 627.41 567.16 627.41 560.59 616.94 560.59 627.41 558.01 627.41 558.01 611.91 560.48 611.91 567.05 622.38 567.05 611.91 569.63 611.91 569.63 627.41"/><path d="M599.34,670a14.22,14.22,0,0,1-14.21-14.21V642.91h2.58v12.91a11.63,11.63,0,1,0,23.25,0V642.91h2.58v12.91A14.22,14.22,0,0,1,599.34,670Z"/><polygon points="628.55 669.65 626.73 667.83 636.79 657.76 636.79 650.66 639.37 650.66 639.37 658.83 628.55 669.65"/><rect x="598.04" y="642.91" width="2.58" height="5.17"/><rect x="636.79" y="642.91" width="2.58" height="5.17"/><rect x="610.96" y="672.61" width="2.58" height="5.17"/><rect x="616.13" y="672.61" width="2.58" height="5.17"/><polygon points="613.16 655.98 611.34 654.15 617.42 648.07 617.42 642.91 620 642.91 620 649.14 613.16 655.98"/><polygon points="613.16 663.73 611.34 661.9 622.58 650.66 622.58 642.91 625.17 642.91 625.17 651.73 613.16 663.73"/><polygon points="614.61 670.03 610.96 670.03 610.96 642.91 613.54 642.91 613.54 667.45 627.75 653.24 627.75 642.91 630.33 642.91 630.33 654.31 614.61 670.03"/><path d="M1246.25,728.23H405.62V288.75h840.63Zm-838.82-1.8h837V290.55h-837Z"/><path d="M205.42,730.92h-81.9V621.69L187.6,530a91.73,91.73,0,0,1,75.14-39.17H387.48v217.5H228.06Zm-80.66-1.23H204.9l22.64-22.64H386.25V492H262.74a90.46,90.46,0,0,0-74.12,38.64l-63.86,91.4Z"/><path d="M205.42,730.92h-81.9V621.69L187.6,530a91.73,91.73,0,0,1,75.14-39.17H387.48v217.5H228.06Zm-80.66-1.23H204.9l22.64-22.64H386.25V492H262.74a90.46,90.46,0,0,0-74.12,38.64l-63.86,91.4Z"/><path d="M147.59,644.52V629.26l59.74-85.52a67.66,67.66,0,0,1,55.41-28.88h55.61v107H218.09l-22.64,22.64Z"/><path class="cls-6" d="M406.53,347.47A143.94,143.94,0,0,0,262.59,491.41H406.53Z"/><path d="M407.14,492H262v-.62c0-79.71,64.85-144.56,144.55-144.56h.62Zm-143.93-1.24h142.7V348.09C327.37,348.43,263.54,412.26,263.21,490.79Z"/><path class="cls-6" d="M191.46,777.37H124.15a14.31,14.31,0,0,1-14.31-14.31V744.62a14.31,14.31,0,0,1,14.31-14.31h81Z"/><path d="M191.92,778H124.15a15,15,0,0,1-14.93-14.93V744.62a15,15,0,0,1,14.93-14.93H206Zm-67.77-47.07a13.71,13.71,0,0,0-13.69,13.7v18.44a13.7,13.7,0,0,0,13.69,13.69H191l13.35-45.83Z"/><rect x="332.25" y="514.86" width="39.72" height="71.87" rx="10.32"/><polygon points="191.46 777.37 1123.81 777.37 1173.85 727.33 406.52 727.33 406.52 558.13 386.87 558.13 386.87 707.67 227.8 707.67 205.16 730.31 191.46 777.37"/><circle cx="282.61" cy="784.12" r="66.33"/><path class="cls-6" d="M282.61,851.35a67.23,67.23,0,1,1,67.23-67.23A67.31,67.31,0,0,1,282.61,851.35Zm0-132.65A65.43,65.43,0,1,0,348,784.12,65.5,65.5,0,0,0,282.61,718.7Z"/><circle class="cls-1" cx="282.61" cy="784.12" r="42.3"/><circle cx="1029.88" cy="794.93" r="55.52"/><path class="cls-6" d="M1029.88,851.35a56.43,56.43,0,1,1,56.42-56.42A56.48,56.48,0,0,1,1029.88,851.35Zm0-111a54.62,54.62,0,1,0,54.62,54.62A54.68,54.68,0,0,0,1029.88,740.31Z"/><circle class="cls-1" cx="1029.88" cy="794.93" r="34.5"/><rect class="cls-6" x="124.15" y="675.1" width="16.27" height="55.21"/><path d="M141.32,731.21H123.25v-57h18.07Zm-16.26-1.81h14.46V676H125.06Z"/><rect class="cls-2" x="1382.41" y="289.65" width="356.95" height="439.36"/><polygon class="cls-6" points="1447.81 515.66 1431.53 515.66 1443.04 497.62 1433.38 497.62 1433.38 494.02 1449.62 494.02 1438.11 512.05 1447.81 512.05 1447.81 515.66"/><polygon class="cls-6" points="1467.65 515.66 1453.27 515.66 1453.22 494.02 1467.65 494.02 1467.65 497.62 1456.83 497.62 1456.87 512.05 1467.65 512.05 1467.65 515.66"/><rect class="cls-6" x="1455.02" y="503.04" width="12.63" height="3.61"/><polygon class="cls-6" points="1487.49 515.66 1473.06 515.66 1473.06 494.02 1487.49 494.02 1487.49 497.62 1476.67 497.62 1476.67 512.05 1487.49 512.05 1487.49 515.66"/><rect class="cls-6" x="1474.87" y="503.04" width="12.63" height="3.61"/><polygon class="cls-6" points="1467.65 542.72 1453.22 542.72 1453.22 521.07 1467.65 521.07 1467.65 524.68 1456.83 524.68 1456.83 539.11 1467.65 539.11 1467.65 542.72"/><rect class="cls-6" x="1455.02" y="530.09" width="12.63" height="3.61"/><polygon class="cls-6" points="1489.3 542.72 1485.84 542.72 1476.67 528.1 1476.67 542.72 1473.06 542.72 1473.06 521.07 1476.52 521.07 1485.69 535.69 1485.69 521.07 1489.3 521.07 1489.3 542.72"/><path class="cls-6" d="M1639.1,532.8A19.86,19.86,0,0,1,1619.26,513v-18h3.61v18a16.24,16.24,0,0,0,32.47,0v-18h3.6v18A19.86,19.86,0,0,1,1639.1,532.8Z"/><polygon class="cls-6" points="1679.9 532.27 1677.35 529.72 1691.41 515.66 1691.41 505.74 1695.02 505.74 1695.02 517.16 1679.9 532.27"/><rect class="cls-6" x="1637.3" y="494.92" width="3.61" height="7.21"/><rect class="cls-6" x="1691.41" y="494.92" width="3.61" height="7.21"/><rect class="cls-6" x="1655.34" y="536.41" width="3.61" height="7.22"/><rect class="cls-6" x="1662.55" y="536.41" width="3.61" height="7.22"/><polygon class="cls-6" points="1658.41 513.17 1655.86 510.62 1664.35 502.13 1664.35 494.92 1667.96 494.92 1667.96 503.63 1658.41 513.17"/><polygon class="cls-6" points="1658.41 524 1655.86 521.45 1671.57 505.74 1671.57 494.92 1675.18 494.92 1675.18 507.24 1658.41 524"/><polygon class="cls-6" points="1660.44 532.8 1655.34 532.8 1655.34 494.92 1658.94 494.92 1658.94 529.19 1678.79 509.35 1678.79 494.92 1682.39 494.92 1682.39 510.84 1660.44 532.8"/><path d="M1740.27,729.91H1381.51V288.75h358.76Zm-357-1.8h355.15V290.55H1383.31Z"/><path d="M1722.89,712.53h-324V306.12h324Zm-322.2-1.8h320.4V307.93h-320.4Z"/><path d="M1748.53,642.63h-10.07v-53h10.07a9,9,0,0,1,9,9v35A9,9,0,0,1,1748.53,642.63Zm-8.26-1.8h8.26a7.23,7.23,0,0,0,7.21-7.21v-35a7.22,7.22,0,0,0-7.21-7.21h-8.26Z"/><path d="M1383.31,642.63h-10.07a9,9,0,0,1-9-9v-35a9,9,0,0,1,9-9h10.07Zm-10.07-51.23a7.22,7.22,0,0,0-7.21,7.21v35a7.23,7.23,0,0,0,7.21,7.21h8.27V591.4Z"/><path d="M1456.78,829.62h-52.65a11.34,11.34,0,0,1-11.32-11.32V758.64h75.28V818.3A11.33,11.33,0,0,1,1456.78,829.62Zm-62.17-69.18V818.3a9.52,9.52,0,0,0,9.52,9.51h52.65a9.52,9.52,0,0,0,9.51-9.51V760.44Z"/><path d="M1401.82,828.45h26a0,0,0,0,1,0,0v16.9a4.42,4.42,0,0,1-4.42,4.42h-17.21a4.42,4.42,0,0,1-4.42-4.42v-16.9A0,0,0,0,1,1401.82,828.45Z"/><path d="M1433.4,828.45h26a0,0,0,0,1,0,0v16.9a4.42,4.42,0,0,1-4.42,4.42h-17.21a4.42,4.42,0,0,1-4.42-4.42v-16.9A0,0,0,0,1,1433.4,828.45Z"/><path d="M1712.19,829.62h-52.65a11.34,11.34,0,0,1-11.32-11.32V758.64h75.28V818.3A11.33,11.33,0,0,1,1712.19,829.62ZM1650,760.44V818.3a9.52,9.52,0,0,0,9.52,9.51h52.65a9.52,9.52,0,0,0,9.51-9.51V760.44Z"/><path d="M1657.23,828.45h26a0,0,0,0,1,0,0v16.9a4.42,4.42,0,0,1-4.42,4.42h-17.21a4.42,4.42,0,0,1-4.42-4.42v-16.9A0,0,0,0,1,1657.23,828.45Z"/><path d="M1688.81,828.45h26a0,0,0,0,1,0,0v16.9a4.42,4.42,0,0,1-4.42,4.42h-17.21a4.42,4.42,0,0,1-4.42-4.42v-16.9A0,0,0,0,1,1688.81,828.45Z"/><polygon points="1722.6 729.01 1393.71 729.01 1393.71 759.54 1467.19 759.54 1467.19 797.14 1649.12 797.14 1649.12 759.54 1722.6 759.54 1722.6 729.01"/><path d="M1650,798H1466.29v-37.6h-73.48V728.11H1723.5v32.33H1650Zm-181.93-1.8h180.13v-37.6h73.48V729.91H1394.61v28.73h73.48Z"/><circle cx="1558.16" cy="776.82" r="40.31"/><path d="M1558.16,818a41.22,41.22,0,1,1,41.21-41.21A41.26,41.26,0,0,1,1558.16,818Zm0-80.62a39.41,39.41,0,1,0,39.41,39.41A39.44,39.44,0,0,0,1558.16,737.41Z"/><rect class="cls-6" x="1409.97" y="735.31" width="57.22" height="17.48"/><rect class="cls-6" x="1649.12" y="735.31" width="57.22" height="17.48"/><path d="M1568.74,712.25h-15.4V306.41h15.4ZM1554.58,711h12.92V307.64h-12.92Z"/><rect class="cls-6" x="1527.99" y="300.42" width="5" height="417.81"/><path d="M1533.61,718.85h-6.24v-419h6.24Zm-5-1.23h3.77V301h-3.77Z"/><rect class="cls-6" x="1588.78" y="300.42" width="5" height="417.81"/><path d="M1594.4,718.85h-6.24v-419h6.24Zm-5-1.23h3.76V301h-3.76Z"/><rect class="cls-6" x="1580.08" y="693.7" width="22.4" height="5.9"/><path d="M1603.1,700.21h-23.64v-7.13h23.64ZM1580.7,699h21.16v-4.66H1580.7Z"/><rect class="cls-6" x="1519.29" y="693.7" width="22.4" height="5.9"/><path d="M1542.31,700.21h-23.64v-7.13h23.64Zm-22.4-1.23h21.17v-4.66h-21.17Z"/><rect class="cls-6" x="1580.08" y="567.82" width="22.4" height="5.9"/><path d="M1603.1,574.34h-23.64v-7.13h23.64Zm-22.4-1.24h21.16v-4.66H1580.7Z"/><rect class="cls-6" x="1519.29" y="567.82" width="22.4" height="5.9"/><path d="M1542.31,574.34h-23.64v-7.13h23.64Zm-22.4-1.24h21.17v-4.66h-21.17Z"/><rect class="cls-6" x="1580.08" y="441.95" width="22.4" height="5.9"/><path d="M1603.1,448.46h-23.64v-7.13h23.64Zm-22.4-1.23h21.16v-4.66H1580.7Z"/><rect class="cls-6" x="1519.29" y="441.95" width="22.4" height="5.9"/><path d="M1542.31,448.46h-23.64v-7.13h23.64Zm-22.4-1.23h21.17v-4.66h-21.17Z"/><rect class="cls-6" x="1580.08" y="321.83" width="22.4" height="5.9"/><path d="M1603.1,328.35h-23.64v-7.14h23.64Zm-22.4-1.24h21.16v-4.66H1580.7Z"/><rect class="cls-6" x="1519.29" y="321.83" width="22.4" height="5.9"/><path d="M1542.31,328.35h-23.64v-7.14h23.64Zm-22.4-1.24h21.17v-4.66h-21.17Z"/></g></svg>