<svg xmlns="http://www.w3.org/2000/svg" viewBox="0 0 1920 1080"><defs><style>.cls-1{fill:#d1d1d0;stroke:#fff;stroke-width:2px;}.cls-1,.cls-8{stroke-miterlimit:10;}.cls-2{fill:#dbdedf;}.cls-3{fill:#248d77;}.cls-4{fill:#da5149;}.cls-5{fill:#f2ba97;}.cls-6{fill:#d57946;}.cls-7{fill:#fff;}.cls-8{fill:none;stroke:#b3b8b9;stroke-width:0.75px;}</style></defs><g id="CUTLINE"><rect class="cls-1" x="255.6" y="131.94" width="1468.81" height="876.13"/><rect class="cls-2" x="225.04" y="101.93" width="1133.82" height="876.13"/><polygon class="cls-3" points="225.04 522.98 225.04 101.94 646.09 101.94 225.04 522.98"/><rect class="cls-4" x="1007.9" y="101.93" width="350.96" height="676.62"/><circle class="cls-5" cx="1183.38" cy="296.8" r="113.33"/><circle class="cls-5" cx="1183.38" cy="583.69" r="113.33"/><rect class="cls-6" x="808.39" y="778.56" width="199.51" height="199.51"/><rect x="1358.86" y="101.93" width="334.99" height="876.13"/><path class="cls-7" d="M1439.12,635.85h-.82l-3.89-3.2v3.2h-.81v-4.32h.82l3.89,3.19v-3.23h.81Z"/><path class="cls-7" d="M1436.67,625.52v3.9a2,2,0,0,0,1.38-.54,1.55,1.55,0,0,0,0-2,1.19,1.19,0,0,0-.6-.33v-.91a2.09,2.09,0,0,1,1.36.85,2.59,2.59,0,0,1,.41,1.41,2.31,2.31,0,0,1-.83,1.83,3.1,3.1,0,0,1-2,.69,3.31,3.31,0,0,1-1.76-.43,2.35,2.35,0,0,1-1.16-2.08,2.25,2.25,0,0,1,.71-1.68,2.83,2.83,0,0,1,1.94-.69Zm-1.92,1.27a1.3,1.3,0,0,0-.5,1.09,1.54,1.54,0,0,0,1.62,1.52v-2.95A1.91,1.91,0,0,0,1434.75,626.79Z"/><path class="cls-7" d="M1436.67,619.5v3.91a2,2,0,0,0,1.38-.54,1.37,1.37,0,0,0,.4-1,1.35,1.35,0,0,0-.36-1,1.12,1.12,0,0,0-.6-.33v-.91a2.09,2.09,0,0,1,1.36.85,2.59,2.59,0,0,1,.41,1.41,2.32,2.32,0,0,1-.83,1.83,3.1,3.1,0,0,1-2,.69,3.31,3.31,0,0,1-1.76-.43,2.35,2.35,0,0,1-1.16-2.08,2.24,2.24,0,0,1,.71-1.68,2.88,2.88,0,0,1,1.94-.7Zm-1.92,1.28a1.3,1.3,0,0,0-.5,1.09,1.55,1.55,0,0,0,1.62,1.52v-2.95A1.91,1.91,0,0,0,1434.75,620.78Z"/><path class="cls-7" d="M1436.67,613.49v3.91a2,2,0,0,0,1.38-.54,1.37,1.37,0,0,0,.4-1,1.35,1.35,0,0,0-.36-1,1.12,1.12,0,0,0-.6-.33v-.91a2.09,2.09,0,0,1,1.36.85,2.59,2.59,0,0,1,.41,1.41,2.32,2.32,0,0,1-.83,1.83,3.1,3.1,0,0,1-2,.69,3.31,3.31,0,0,1-1.76-.43,2.35,2.35,0,0,1-1.16-2.08,2.24,2.24,0,0,1,.71-1.68,2.88,2.88,0,0,1,1.94-.7Zm-1.92,1.28a1.3,1.3,0,0,0-.5,1.09,1.55,1.55,0,0,0,1.62,1.52v-3A1.91,1.91,0,0,0,1434.75,614.77Z"/><path class="cls-7" d="M1439.12,608.39h-3.5c-.83,0-1.32.34-1.32,1.21a1.36,1.36,0,0,0,.85,1.2,3.76,3.76,0,0,0,1.41.19h2.56v.93h-5.52v-.81l.83-.07a1.87,1.87,0,0,1-1-1.67,1.78,1.78,0,0,1,2-1.91h3.63Z"/><path class="cls-7" d="M1439.12,605.59h-1.3v-1.28h1.3Z"/><path class="cls-7" d="M1432.34,602.4h-1.09v-1.08h1.09Zm6.78-.07h-5.52v-1h5.52Z"/><path class="cls-7" d="M1434.47,596.89a1.51,1.51,0,0,0,.43,1.05,2.52,2.52,0,0,0,1.77.5h2.45v.91h-5.52v-.81l1-.08a1.71,1.71,0,0,1-1-1.65,3.11,3.11,0,0,1,0-.43h.91A2.92,2.92,0,0,0,1434.47,596.89Z"/><path class="cls-7" d="M1452.21,631.89h-3.5c-.83,0-1.32.33-1.32,1.21a1.36,1.36,0,0,0,.85,1.2,3.76,3.76,0,0,0,1.41.19h2.56v.93h-7.87v-.93h3.09a1.86,1.86,0,0,1-.88-1.61,1.79,1.79,0,0,1,2-1.92h3.63Z"/><path class="cls-7" d="M1449.76,624.58v3.9a2,2,0,0,0,1.38-.53,1.56,1.56,0,0,0,0-2,1.27,1.27,0,0,0-.6-.33v-.9a2,2,0,0,1,1.36.85,2.53,2.53,0,0,1,.41,1.4,2.33,2.33,0,0,1-.82,1.83,3.14,3.14,0,0,1-2,.69,3.41,3.41,0,0,1-1.77-.42,2.38,2.38,0,0,1-1.16-2.09,2.25,2.25,0,0,1,.71-1.68,2.88,2.88,0,0,1,1.94-.69Zm-1.92,1.27a1.3,1.3,0,0,0-.5,1.09,1.53,1.53,0,0,0,1.62,1.52v-2.94A2,2,0,0,0,1447.84,625.85Z"/><path class="cls-7" d="M1452.28,621.88c0,.81-.48,1.16-1.35,1.16h-6.59v-.93h6.53c.37,0,.57-.12.57-.5a3.7,3.7,0,0,0,0-.38h.78A2.19,2.19,0,0,1,1452.28,621.88Z"/><path class="cls-7" d="M1452.28,618.71c0,.8-.48,1.15-1.35,1.15h-6.59v-.92h6.53c.37,0,.57-.12.57-.5s0-.39,0-.39h.78A2.32,2.32,0,0,1,1452.28,618.71Z"/><path class="cls-7" d="M1451.71,613a2.5,2.5,0,0,1,0,3.34,3.65,3.65,0,0,1-4.51,0,2.47,2.47,0,0,1,0-3.34,3.61,3.61,0,0,1,4.51,0Zm-4,.68a1.33,1.33,0,0,0-.39,1,1.36,1.36,0,0,0,.39,1,3.14,3.14,0,0,0,3.43,0,1.4,1.4,0,0,0,.39-1,1.37,1.37,0,0,0-.39-1,3.09,3.09,0,0,0-3.43,0Z"/><path class="cls-7" d="M1451,604.24a1,1,0,0,1-.83,1.07,1.47,1.47,0,0,1,.81,1.31c0,1.12-.89,1.71-2.08,1.71a2,2,0,0,1-2.24-2,1.23,1.23,0,0,1,.58-1.05l-.46-.12v-.73l2.76.2c.33,0,.69,0,.69-.45,0-.95-1.42-1.25-2.15-1.25a2.8,2.8,0,0,0-2.06.78,3.32,3.32,0,0,0-.87,2.4,3.73,3.73,0,0,0,6.24,2.65,3.24,3.24,0,0,0,.94-2.37,6.54,6.54,0,0,0-.52-2.73h.79a6,6,0,0,1,.55,2.74,4.2,4.2,0,0,1-1.05,2.92,4.48,4.48,0,0,1-3.34,1.34,4.25,4.25,0,0,1-3.18-1.27,4.65,4.65,0,0,1-1.24-3.27,4.29,4.29,0,0,1,1.13-3.06,3.51,3.51,0,0,1,2.6-1C1449.39,602,1451,602.65,1451,604.24Zm-3.59,2.13c0,.79.83,1,1.49,1s1.28-.21,1.28-.93-.79-1.09-1.51-1.09S1447.41,605.62,1447.41,606.37Z"/><path class="cls-7" d="M1452.21,600.72h-.82l-3.89-3.21v3.21h-.8v-4.33h.81l3.9,3.19v-3.22h.8Z"/><path class="cls-7" d="M1449.76,590.38v3.9a2,2,0,0,0,1.38-.53,1.56,1.56,0,0,0,0-2,1.27,1.27,0,0,0-.6-.33v-.9a2,2,0,0,1,1.36.85,2.53,2.53,0,0,1,.41,1.4,2.37,2.37,0,0,1-.82,1.84,3.19,3.19,0,0,1-2,.68,3.41,3.41,0,0,1-1.77-.42,2.36,2.36,0,0,1-1.16-2.09,2.23,2.23,0,0,1,.71-1.67,2.83,2.83,0,0,1,1.94-.7Zm-1.92,1.27a1.3,1.3,0,0,0-.5,1.09,1.53,1.53,0,0,0,1.62,1.52v-2.94A2,2,0,0,0,1447.84,591.65Z"/><path class="cls-7" d="M1449.76,584.37v3.9a2,2,0,0,0,1.38-.53,1.56,1.56,0,0,0,0-2,1.27,1.27,0,0,0-.6-.33v-.9a2,2,0,0,1,1.36.85,2.53,2.53,0,0,1,.41,1.4,2.33,2.33,0,0,1-.82,1.83,3.14,3.14,0,0,1-2,.69,3.41,3.41,0,0,1-1.77-.42,2.38,2.38,0,0,1-1.16-2.09,2.23,2.23,0,0,1,.71-1.67,2.83,2.83,0,0,1,1.94-.7Zm-1.92,1.27a1.3,1.3,0,0,0-.5,1.09,1.53,1.53,0,0,0,1.62,1.52v-2.94A2,2,0,0,0,1447.84,585.64Z"/><path class="cls-7" d="M1449.76,578.36v3.9a2,2,0,0,0,1.38-.53,1.56,1.56,0,0,0,0-2,1.27,1.27,0,0,0-.6-.33v-.9a2,2,0,0,1,1.36.85,2.53,2.53,0,0,1,.41,1.4,2.33,2.33,0,0,1-.82,1.83,3.14,3.14,0,0,1-2,.69,3.41,3.41,0,0,1-1.77-.42,2.38,2.38,0,0,1-1.16-2.09,2.25,2.25,0,0,1,.71-1.68,2.88,2.88,0,0,1,1.94-.69Zm-1.92,1.27a1.3,1.3,0,0,0-.5,1.09,1.53,1.53,0,0,0,1.62,1.52V579.3A2,2,0,0,0,1447.84,579.63Z"/><path class="cls-7" d="M1452.21,573.25h-3.5c-.83,0-1.32.34-1.32,1.21a1.35,1.35,0,0,0,.85,1.2,3.58,3.58,0,0,0,1.41.2h2.56v.92h-5.51V576l.82-.08a1.87,1.87,0,0,1-1-1.67,1.78,1.78,0,0,1,2-1.9h3.63Z"/><path class="cls-7" d="M1452.21,570.46h-1.29v-1.29h1.29Z"/><path class="cls-7" d="M1445.43,567.26h-1.09v-1.08h1.09Zm6.78-.06h-5.51v-1h5.51Z"/><path class="cls-7" d="M1447.56,561.75a1.51,1.51,0,0,0,.43,1,2.47,2.47,0,0,0,1.77.5h2.45v.92h-5.51v-.82l1-.08a1.7,1.7,0,0,1-1-1.64,2.18,2.18,0,0,1,0-.44h.9A3,3,0,0,0,1447.56,561.75Z"/><path class="cls-7" d="M1442.83,520.84a.73.73,0,0,0,.76.79h.92V520h.79v1.59H1450v.92h-4.73v1h-.79v-1h-1a1.49,1.49,0,0,1-1.48-1.6,5.18,5.18,0,0,1,.1-1h.77A7,7,0,0,0,1442.83,520.84Z"/><path class="cls-7" d="M1450.11,514.81a.79.79,0,0,1-.84.8v0a2,2,0,0,1,.9,1.78,1.73,1.73,0,0,1-1.7,1.89c-.71,0-1.63-.45-1.72-2l-.1-1.68h-.4a1.05,1.05,0,0,0-.84.29,1.19,1.19,0,0,0-.29.9,1.37,1.37,0,0,0,.33,1,.9.9,0,0,0,.67.28v.9a1.63,1.63,0,0,1-1.16-.48,2.37,2.37,0,0,1-.59-1.7,1.92,1.92,0,0,1,1.06-1.94,2.08,2.08,0,0,1,.85-.16H1449c.3,0,.37-.12.37-.31a1.43,1.43,0,0,0,0-.24h.69A1.39,1.39,0,0,1,1450.11,514.81Zm-2.74.85.09,1.48c0,.56.29,1.21,1,1.21.49,0,1-.3,1-1.09a1.55,1.55,0,0,0-.45-1.13,1.76,1.76,0,0,0-1.25-.47Z"/><path class="cls-7" d="M1449.57,509.05a2.2,2.2,0,0,1,.6,1.59,2.31,2.31,0,0,1-1,2,3.32,3.32,0,0,1-1.87.46,3.26,3.26,0,0,1-1.86-.46,2.28,2.28,0,0,1-1-2,2.22,2.22,0,0,1,.59-1.57,2.1,2.1,0,0,1,1.42-.65v.94a1.33,1.33,0,0,0-.86.39,1.27,1.27,0,0,0-.34.89,1.37,1.37,0,0,0,.36,1,2.25,2.25,0,0,0,1.73.56,2.27,2.27,0,0,0,1.74-.56,1.42,1.42,0,0,0,.36-1,1.26,1.26,0,0,0-.38-.93,1.28,1.28,0,0,0-.81-.37v-.94A2.06,2.06,0,0,1,1449.57,509.05Z"/><path class="cls-7" d="M1447.58,502.42v3.9a2,2,0,0,0,1.38-.53,1.58,1.58,0,0,0,0-2,1.18,1.18,0,0,0-.6-.33v-.9a2,2,0,0,1,1.37.85,2.53,2.53,0,0,1,.41,1.4,2.37,2.37,0,0,1-.83,1.84,3.15,3.15,0,0,1-2,.68,3.4,3.4,0,0,1-1.76-.42,2.36,2.36,0,0,1-1.16-2.08,2.2,2.2,0,0,1,.71-1.68,2.83,2.83,0,0,1,1.94-.7Zm-1.92,1.28a1.27,1.27,0,0,0-.5,1.09,1.53,1.53,0,0,0,1.62,1.51v-2.94A1.91,1.91,0,0,0,1445.66,503.7Z"/><path class="cls-7" d="M1449.57,496.73a2.08,2.08,0,0,1,.6,1.55,1.92,1.92,0,0,1-.86,1.65l.72.07v.81h-7.87v-.92h3a1.93,1.93,0,0,1-.79-1.61,2.15,2.15,0,0,1,.56-1.51,3.69,3.69,0,0,1,4.64,0Zm-4.41,1.71a1.26,1.26,0,0,0,.36.89,2.26,2.26,0,0,0,1.75.61,2.29,2.29,0,0,0,1.76-.61,1.3,1.3,0,0,0,.36-.89c0-1.23-1.1-1.56-2.12-1.56S1445.16,497.21,1445.16,498.44Z"/><path class="cls-7" d="M1449.53,490.59a2.5,2.5,0,0,1,0,3.34,3,3,0,0,1-2.26.79,3,3,0,0,1-2.25-.79,2.47,2.47,0,0,1,0-3.34,3,3,0,0,1,2.25-.78A3,3,0,0,1,1449.53,490.59Zm-4,.68a1.36,1.36,0,0,0-.39,1,1.33,1.33,0,0,0,.39,1,3.07,3.07,0,0,0,3.42,0,1.33,1.33,0,0,0,.4-1,1.37,1.37,0,0,0-.4-1,3.12,3.12,0,0,0-3.42,0Z"/><path class="cls-7" d="M1449.53,484.47a2.38,2.38,0,0,1,.64,1.67,2.34,2.34,0,0,1-.64,1.67,3,3,0,0,1-2.26.79,3,3,0,0,1-2.25-.79,2.31,2.31,0,0,1-.65-1.67,2.34,2.34,0,0,1,.65-1.67,3,3,0,0,1,2.25-.78A3.06,3.06,0,0,1,1449.53,484.47Zm-4,.68a1.36,1.36,0,0,0-.39,1,1.33,1.33,0,0,0,.39,1,3.07,3.07,0,0,0,3.42,0,1.33,1.33,0,0,0,.4-1,1.37,1.37,0,0,0-.4-1,3.12,3.12,0,0,0-3.42,0Z"/><path class="cls-7" d="M1450,478.34l-2.66,1.73,1.18,1.05H1450v.93h-7.87v-.93h5.13l-2.78-2.49V477.5l2.18,2,3.34-2.17Z"/><path class="cls-7" d="M1450,476.13h-1.3v-1.29h1.3Z"/><path class="cls-7" d="M1449.57,469.19a2.2,2.2,0,0,1,.6,1.59,2.31,2.31,0,0,1-1,2,3.32,3.32,0,0,1-1.87.46,3.26,3.26,0,0,1-1.86-.46,2.28,2.28,0,0,1-1-2,2.22,2.22,0,0,1,.59-1.57,2.1,2.1,0,0,1,1.42-.65v.94a1.33,1.33,0,0,0-.86.39,1.27,1.27,0,0,0-.34.89,1.37,1.37,0,0,0,.36,1,2.25,2.25,0,0,0,1.73.56,2.27,2.27,0,0,0,1.74-.56,1.42,1.42,0,0,0,.36-1,1.26,1.26,0,0,0-.38-.93,1.28,1.28,0,0,0-.81-.37v-.94A2.06,2.06,0,0,1,1449.57,469.19Z"/><path class="cls-7" d="M1449.53,463.3a2.5,2.5,0,0,1,0,3.34,3,3,0,0,1-2.26.78,3,3,0,0,1-2.25-.78,2.47,2.47,0,0,1,0-3.34,3,3,0,0,1,2.25-.78A3,3,0,0,1,1449.53,463.3Zm-4,.68a1.45,1.45,0,0,0,0,2,3.12,3.12,0,0,0,3.42,0,1.43,1.43,0,0,0,0-2,3.07,3.07,0,0,0-3.42,0Z"/><path class="cls-7" d="M1450,454.17h-3.51c-.78,0-1.31.25-1.31,1.13a1.1,1.1,0,0,0,.37.83,2.08,2.08,0,0,0,1.52.47H1450v.93h-3.51c-.78,0-1.31.23-1.31,1.11a1.19,1.19,0,0,0,.49.94,2.47,2.47,0,0,0,1.4.37H1450v.93h-5.52v-.81l.79-.09a1.67,1.67,0,0,1-.93-1.54,1.6,1.6,0,0,1,1.05-1.65,1.82,1.82,0,0,1-1.05-1.7c0-1.26.81-1.84,2-1.84H1450Z"/><path class="cls-7" d="M1450.17,451.35v.75l-8-3.36V448Z"/><path class="cls-7" d="M1450,447.32h-.82l-3.89-3.21v3.21h-.81V443h.82l3.89,3.19V443h.81Z"/><path class="cls-7" d="M1447.58,437v3.9a2.06,2.06,0,0,0,1.38-.53,1.4,1.4,0,0,0,.39-1,1.38,1.38,0,0,0-.36-1,1.11,1.11,0,0,0-.6-.33V437a2.08,2.08,0,0,1,1.37.85,2.59,2.59,0,0,1,.41,1.41,2.34,2.34,0,0,1-.83,1.83,3.1,3.1,0,0,1-2,.69,3.31,3.31,0,0,1-1.76-.43,2.35,2.35,0,0,1-1.16-2.08,2.22,2.22,0,0,1,.71-1.68,2.83,2.83,0,0,1,1.94-.69Zm-1.92,1.27a1.3,1.3,0,0,0-.5,1.09,1.53,1.53,0,0,0,1.62,1.52v-2.95A1.91,1.91,0,0,0,1445.66,438.22Z"/><path class="cls-7" d="M1447.58,430.9v3.91a2,2,0,0,0,1.38-.54,1.57,1.57,0,0,0,0-2,1.11,1.11,0,0,0-.6-.32V431a2,2,0,0,1,1.37.85,2.54,2.54,0,0,1,.41,1.41,2.37,2.37,0,0,1-.83,1.83,3.1,3.1,0,0,1-2,.69,3.31,3.31,0,0,1-1.76-.43,2.35,2.35,0,0,1-1.16-2.08,2.2,2.2,0,0,1,.71-1.68,2.83,2.83,0,0,1,1.94-.7Zm-1.92,1.28a1.3,1.3,0,0,0-.5,1.09,1.53,1.53,0,0,0,1.62,1.51v-2.94A1.91,1.91,0,0,0,1445.66,432.18Z"/><path class="cls-7" d="M1447.58,424.86v3.9a2,2,0,0,0,1.38-.53,1.58,1.58,0,0,0,0-2,1.18,1.18,0,0,0-.6-.33V425a2,2,0,0,1,1.37.85,2.53,2.53,0,0,1,.41,1.4,2.37,2.37,0,0,1-.83,1.84,3.15,3.15,0,0,1-2,.68,3.4,3.4,0,0,1-1.76-.42,2.36,2.36,0,0,1-1.16-2.08,2.2,2.2,0,0,1,.71-1.68,2.83,2.83,0,0,1,1.94-.7Zm-1.92,1.28a1.27,1.27,0,0,0-.5,1.09,1.53,1.53,0,0,0,1.62,1.51V425.8A1.91,1.91,0,0,0,1445.66,426.14Z"/><path class="cls-7" d="M1450,419.72h-3.5c-.83,0-1.32.34-1.32,1.21a1.35,1.35,0,0,0,.85,1.2,3.55,3.55,0,0,0,1.41.2H1450v.92h-5.52v-.8l.83-.08a1.87,1.87,0,0,1-1-1.67,1.78,1.78,0,0,1,2-1.91H1450Z"/><path class="cls-7" d="M1449.55,413.19a2.89,2.89,0,0,1,0,3.58,1.79,1.79,0,0,1-1.26.54v-.93a1.06,1.06,0,0,0,.86-.45,1.78,1.78,0,0,0,.25-1,1.49,1.49,0,0,0-.31-1,.79.79,0,0,0-.6-.27c-.41,0-.71.29-.78.86,0,.24-.11.86-.17,1.24a1.43,1.43,0,0,1-1.48,1.35,1.6,1.6,0,0,1-1.08-.46,2.23,2.23,0,0,1-.61-1.62,2.21,2.21,0,0,1,.7-1.76,1.57,1.57,0,0,1,1.06-.39v.93a1,1,0,0,0-.69.31,1.3,1.3,0,0,0-.29.91,1.52,1.52,0,0,0,.1.64.84.84,0,0,0,.75.56c.45,0,.65-.28.72-.74s.08-.74.18-1.33a1.57,1.57,0,0,1,2.65-1Z"/><path class="cls-7" d="M1450,407.59h-3.5c-.83,0-1.32.34-1.32,1.21a1.35,1.35,0,0,0,.85,1.2,3.55,3.55,0,0,0,1.41.2H1450v.92h-7.87v-.92h3.08a1.91,1.91,0,0,1-.87-1.62,1.79,1.79,0,0,1,2-1.92H1450Z"/><path class="cls-7" d="M1449.53,401a2.5,2.5,0,0,1,0,3.34,3,3,0,0,1-2.26.78,3,3,0,0,1-2.25-.78,2.47,2.47,0,0,1,0-3.34,3,3,0,0,1,2.25-.78A3,3,0,0,1,1449.53,401Zm-4,.68a1.45,1.45,0,0,0,0,2,3.12,3.12,0,0,0,3.42,0,1.43,1.43,0,0,0,0-2,3.07,3.07,0,0,0-3.42,0Z"/><path class="cls-7" d="M1449.63,394.52a2.21,2.21,0,0,1,.55,1.52,1.91,1.91,0,0,1-.78,1.6h3v.93h-7.88v-.82l.72-.07a1.93,1.93,0,0,1-.86-1.64,2.1,2.1,0,0,1,.6-1.56,3.71,3.71,0,0,1,4.65,0Zm-4.46,1.67a1.24,1.24,0,0,0,.36.89,2.27,2.27,0,0,0,1.75.62,2.3,2.3,0,0,0,1.76-.62,1.28,1.28,0,0,0,.36-.89c0-1.23-1.1-1.56-2.12-1.56S1445.17,395,1445.17,396.19Z"/><path class="cls-7" d="M1443.25,356.53h-1.09v-1.08h1.09Zm6.78-.07h-5.52v-.95H1450Z"/><path class="cls-7" d="M1450,350.12h-3.5c-.83,0-1.32.34-1.32,1.22a1.35,1.35,0,0,0,.85,1.19,3.55,3.55,0,0,0,1.41.2H1450v.93h-5.52v-.81l.83-.08a1.86,1.86,0,0,1-1-1.66,1.78,1.78,0,0,1,2-1.91H1450Z"/><path class="cls-7" d="M1449.55,343.8a2.44,2.44,0,0,1,.62,1.8,2.47,2.47,0,0,1-.62,1.79,1.82,1.82,0,0,1-1.26.53V347a1.08,1.08,0,0,0,.86-.44,1.84,1.84,0,0,0,.25-1,1.49,1.49,0,0,0-.31-1,.79.79,0,0,0-.6-.27c-.41,0-.71.29-.78.86,0,.24-.11.86-.17,1.24a1.43,1.43,0,0,1-1.48,1.35,1.59,1.59,0,0,1-1.08-.45,2.26,2.26,0,0,1-.61-1.63,2.18,2.18,0,0,1,.7-1.75,1.57,1.57,0,0,1,1.06-.4v.93a1,1,0,0,0-.69.32,1.25,1.25,0,0,0-.29.9,1.52,1.52,0,0,0,.1.64.84.84,0,0,0,.75.56c.45,0,.65-.28.72-.74s.08-.74.18-1.33a1.57,1.57,0,0,1,2.65-1Z"/><path class="cls-7" d="M1450.11,340.19a1.36,1.36,0,0,1-1.5,1.51h-3.3v1.07h-.8V341.7h-1.4l-.22-.92h1.62v-1.64h.8v1.64h3.19c.54,0,.76-.23.76-.75a6.55,6.55,0,0,0-.1-.94h.79A3.72,3.72,0,0,1,1450.11,340.19Z"/><path class="cls-7" d="M1450.11,333.9a.79.79,0,0,1-.84.8v0a2,2,0,0,1,.9,1.78,1.73,1.73,0,0,1-1.7,1.9c-.71,0-1.63-.46-1.72-2l-.1-1.68h-.4a1.09,1.09,0,0,0-.84.29,1.21,1.21,0,0,0-.29.9,1.42,1.42,0,0,0,.33,1,.93.93,0,0,0,.67.27v.9a1.59,1.59,0,0,1-1.16-.48,2.37,2.37,0,0,1-.59-1.7,1.92,1.92,0,0,1,1.06-1.94,2.08,2.08,0,0,1,.85-.16H1449c.3,0,.37-.12.37-.31a1.62,1.62,0,0,0,0-.24h.69A1.42,1.42,0,0,1,1450.11,333.9Zm-2.74.85.09,1.49c0,.55.29,1.21,1,1.21.49,0,1-.31,1-1.09a1.55,1.55,0,0,0-.45-1.14,1.8,1.8,0,0,0-1.25-.47Z"/><path class="cls-7" d="M1452,327.75a3.27,3.27,0,0,1,.64,2.23,2.92,2.92,0,0,1-.64,2.09,1.34,1.34,0,0,1-1,.39,1.36,1.36,0,0,1-1.22-.78,1,1,0,0,1-.93.64,1.21,1.21,0,0,1-1.07-.73,2,2,0,0,1-1.43.63,1.81,1.81,0,0,1-1.34-.52,2.18,2.18,0,0,1-.62-1.64,2.31,2.31,0,0,1,.33-1.26,1.18,1.18,0,0,1-.78-1.14c0-.08,0-.18,0-.27h.75a1.34,1.34,0,0,0,0,.21.63.63,0,0,0,.5.68,1.75,1.75,0,0,1,1.14-.36,1.91,1.91,0,0,1,1.32.5,2.13,2.13,0,0,1,.66,1.64,2.67,2.67,0,0,1-.15.93.6.6,0,0,0,.49.47c.48,0,.53-.48.54-.83s0-1.09,0-1.09a2.56,2.56,0,0,1,.58-1.82,1.49,1.49,0,0,1,1.08-.44A1.54,1.54,0,0,1,1452,327.75Zm-6.84,2.32a1.23,1.23,0,1,0,2.45,0,1.2,1.2,0,0,0-1.24-1.25A1.17,1.17,0,0,0,1445.12,330.07Zm4.86-.15v1a.94.94,0,0,0,.87.7.77.77,0,0,0,.58-.23,2.1,2.1,0,0,0,.38-1.47,2.25,2.25,0,0,0-.4-1.5.76.76,0,0,0-.56-.23C1449.91,328.19,1450,329.22,1450,329.92Z"/><path class="cls-7" d="M1445.37,323.81a1.52,1.52,0,0,0,.44,1.05,2.47,2.47,0,0,0,1.77.5H1450v.92h-5.52v-.82l1-.08a1.71,1.71,0,0,1-1-1.64,3.15,3.15,0,0,1,0-.44h.91A2.94,2.94,0,0,0,1445.37,323.81Z"/><path class="cls-7" d="M1450.11,318.25a.79.79,0,0,1-.84.8v0a2,2,0,0,1,.9,1.78,1.73,1.73,0,0,1-1.7,1.89c-.71,0-1.63-.46-1.72-2l-.1-1.68h-.4a1.08,1.08,0,0,0-.84.28,1.24,1.24,0,0,0-.29.91,1.37,1.37,0,0,0,.33,1,.9.9,0,0,0,.67.28v.9A1.63,1.63,0,0,1,1445,322a2.37,2.37,0,0,1-.59-1.7,1.92,1.92,0,0,1,1.06-1.94,2.08,2.08,0,0,1,.85-.16H1449c.3,0,.37-.12.37-.31a1.43,1.43,0,0,0,0-.24h.69A1.39,1.39,0,0,1,1450.11,318.25Zm-2.74.85.09,1.48c0,.56.29,1.21,1,1.21.49,0,1-.3,1-1.09a1.53,1.53,0,0,0-.45-1.13,1.76,1.76,0,0,0-1.25-.47Z"/><path class="cls-7" d="M1450,309.63h-3.51c-.78,0-1.31.26-1.31,1.13a1.12,1.12,0,0,0,.37.84,2.12,2.12,0,0,0,1.52.47H1450V313h-3.51c-.78,0-1.31.23-1.31,1.11a1.18,1.18,0,0,0,.49.94,2.47,2.47,0,0,0,1.4.37H1450v.93h-5.52v-.81l.79-.08a1.69,1.69,0,0,1-.93-1.55,1.6,1.6,0,0,1,1.05-1.65,1.81,1.81,0,0,1-1.05-1.7c0-1.25.81-1.84,2-1.84H1450Z"/><path class="cls-7" d="M1450,307h-1.3V305.7h1.3Z"/><path class="cls-7" d="M1449.57,300.26a2.2,2.2,0,0,1,.6,1.59,2.31,2.31,0,0,1-1,2,3.24,3.24,0,0,1-1.87.46,3.19,3.19,0,0,1-1.86-.46,2.27,2.27,0,0,1-1-2,2.23,2.23,0,0,1,.59-1.58,2.1,2.1,0,0,1,1.42-.65v.94a1.33,1.33,0,0,0-.86.39,1.3,1.3,0,0,0-.34.9,1.37,1.37,0,0,0,.36.95,2.25,2.25,0,0,0,1.73.56,2.27,2.27,0,0,0,1.74-.56,1.41,1.41,0,0,0,.36-.95,1.29,1.29,0,0,0-1.19-1.31v-.94A2.06,2.06,0,0,1,1449.57,300.26Z"/><path class="cls-7" d="M1449.53,294.58a2.34,2.34,0,0,1,.64,1.67,2.38,2.38,0,0,1-.64,1.67,3.06,3.06,0,0,1-2.26.78,3,3,0,0,1-2.25-.78,2.34,2.34,0,0,1-.65-1.67,2.31,2.31,0,0,1,.65-1.67,3,3,0,0,1,2.25-.79A3,3,0,0,1,1449.53,294.58Zm-4,.68a1.33,1.33,0,0,0-.39,1,1.36,1.36,0,0,0,.39,1,3.12,3.12,0,0,0,3.42,0,1.37,1.37,0,0,0,.4-1,1.33,1.33,0,0,0-.4-1,3.07,3.07,0,0,0-3.42,0Z"/><path class="cls-7" d="M1450,285.66h-3.51c-.78,0-1.31.25-1.31,1.12a1.12,1.12,0,0,0,.37.84,2.12,2.12,0,0,0,1.52.47H1450V289h-3.51c-.78,0-1.31.22-1.31,1.11a1.19,1.19,0,0,0,.49.94,2.47,2.47,0,0,0,1.4.37H1450v.92h-5.52v-.8l.79-.09a1.69,1.69,0,0,1-.93-1.55,1.6,1.6,0,0,1,1.05-1.65,1.81,1.81,0,0,1-1.05-1.7c0-1.25.81-1.84,2-1.84H1450Z"/><path class="cls-7" d="M1450.17,283.05v.74l-8-3.36v-.74Z"/><path class="cls-7" d="M1450,279.22h-.82l-3.89-3.21v3.21h-.81v-4.33h.82l3.89,3.19v-3.22h.81Z"/><path class="cls-7" d="M1447.58,269.05V273a2,2,0,0,0,1.38-.54,1.57,1.57,0,0,0,0-2,1.11,1.11,0,0,0-.6-.32v-.91a2.08,2.08,0,0,1,1.37.85,2.54,2.54,0,0,1,.41,1.41,2.37,2.37,0,0,1-.83,1.83,3.1,3.1,0,0,1-2,.69,3.31,3.31,0,0,1-1.76-.43,2.35,2.35,0,0,1-1.16-2.08,2.2,2.2,0,0,1,.71-1.68,2.83,2.83,0,0,1,1.94-.7Zm-1.92,1.28a1.3,1.3,0,0,0-.5,1.09,1.53,1.53,0,0,0,1.62,1.51V270A1.91,1.91,0,0,0,1445.66,270.33Z"/><path class="cls-7" d="M1447.58,263.22v3.9a2.06,2.06,0,0,0,1.38-.53,1.58,1.58,0,0,0,0-2,1.18,1.18,0,0,0-.6-.33v-.9a2,2,0,0,1,1.37.85,2.53,2.53,0,0,1,.41,1.4,2.34,2.34,0,0,1-.83,1.83,3.1,3.1,0,0,1-2,.69,3.4,3.4,0,0,1-1.76-.42,2.38,2.38,0,0,1-1.16-2.09,2.22,2.22,0,0,1,.71-1.68,2.88,2.88,0,0,1,1.94-.69Zm-1.92,1.27a1.3,1.3,0,0,0-.5,1.09,1.53,1.53,0,0,0,1.62,1.52v-3A1.91,1.91,0,0,0,1445.66,264.49Z"/><path class="cls-7" d="M1447.58,257.38v3.9a2,2,0,0,0,1.38-.53,1.57,1.57,0,0,0,0-2,1.18,1.18,0,0,0-.6-.33v-.9a2,2,0,0,1,1.37.85,2.54,2.54,0,0,1,.41,1.41,2.37,2.37,0,0,1-.83,1.83,3.09,3.09,0,0,1-2,.68,3.4,3.4,0,0,1-1.76-.42,2.35,2.35,0,0,1-1.16-2.08,2.2,2.2,0,0,1,.71-1.68,2.83,2.83,0,0,1,1.94-.7Zm-1.92,1.28a1.3,1.3,0,0,0-.5,1.09,1.53,1.53,0,0,0,1.62,1.51v-2.94A1.91,1.91,0,0,0,1445.66,258.66Z"/><path class="cls-7" d="M1450,252.45h-3.5c-.83,0-1.32.34-1.32,1.21a1.36,1.36,0,0,0,.85,1.2,3.74,3.74,0,0,0,1.41.2H1450V256h-5.52v-.8l.83-.08a1.87,1.87,0,0,1-1-1.67,1.78,1.78,0,0,1,2-1.91H1450Z"/><path class="cls-7" d="M1449.55,246.12a2.91,2.91,0,0,1,0,3.59,1.78,1.78,0,0,1-1.26.53v-.92a1.09,1.09,0,0,0,.86-.45,1.78,1.78,0,0,0,.25-1,1.53,1.53,0,0,0-.31-1,.79.79,0,0,0-.6-.27c-.41,0-.71.3-.78.86,0,.24-.11.86-.17,1.25a1.44,1.44,0,0,1-1.48,1.35,1.6,1.6,0,0,1-1.08-.46,2.25,2.25,0,0,1-.61-1.62,2.2,2.2,0,0,1,.7-1.76,1.57,1.57,0,0,1,1.06-.39v.92a1,1,0,0,0-.69.32,1.28,1.28,0,0,0-.29.91,1.54,1.54,0,0,0,.1.64.83.83,0,0,0,.75.55c.45,0,.65-.28.72-.74,0-.3.08-.74.18-1.33a1.58,1.58,0,0,1,2.65-1Z"/><path class="cls-7" d="M1450,240.73h-3.5c-.83,0-1.32.34-1.32,1.21a1.35,1.35,0,0,0,.85,1.2,3.55,3.55,0,0,0,1.41.2H1450v.93h-7.87v-.93h3.08a1.89,1.89,0,0,1-.87-1.61,1.79,1.79,0,0,1,2-1.92H1450Z"/><path class="cls-7" d="M1449.53,234.34a2.5,2.5,0,0,1,0,3.34,3,3,0,0,1-2.26.78,3,3,0,0,1-2.25-.78,2.47,2.47,0,0,1,0-3.34,3,3,0,0,1,2.25-.78A3,3,0,0,1,1449.53,234.34Zm-4,.68a1.45,1.45,0,0,0,0,2,3.12,3.12,0,0,0,3.42,0,1.43,1.43,0,0,0,0-2,3.12,3.12,0,0,0-3.42,0Z"/><path class="cls-7" d="M1449.63,228.08a2.2,2.2,0,0,1,.55,1.52,1.93,1.93,0,0,1-.78,1.6h3v.93h-7.88v-.82l.72-.07a1.93,1.93,0,0,1-.86-1.64,2.1,2.1,0,0,1,.6-1.56,3.71,3.71,0,0,1,4.65,0Zm-4.46,1.67a1.26,1.26,0,0,0,.36.89,2.27,2.27,0,0,0,1.75.61,2.29,2.29,0,0,0,1.76-.61,1.3,1.3,0,0,0,.36-.89c0-1.23-1.1-1.56-2.12-1.56S1445.17,228.52,1445.17,229.75Z"/><line class="cls-8" x1="1526.35" y1="966.06" x2="1526.35" y2="102.34"/><line class="cls-8" x1="1694.96" y1="798.56" x2="1358.86" y2="798.56"/><polyline class="cls-8" points="1693.85 966.06 1526.35 798.56 1358.86 966.06"/><path d="M472.45,725.83h-4.74l-1,2.68h-1.53l4.23-10.91h1.5l4.18,10.91h-1.64Zm-4.27-1.24H472l-1.87-5.09Z"/><path d="M477.5,728.51h-1.38v-7.79h1.35v1.42a2.41,2.41,0,0,1,2.23-1.42h.6V722h-.61a1.81,1.81,0,0,0-1.59.86,3.94,3.94,0,0,0-.6,2.3Z"/><path d="M481.41,721.86v-1.14h1.37v-2.51h1.38v2.51h2v1.14h-2v4.36a1.33,1.33,0,0,0,.22.86,1,1,0,0,0,.75.25h1.19v1.18h-1.4a2.19,2.19,0,0,1-1.59-.53,2.09,2.09,0,0,1-.55-1.57v-4.55Z"/><path d="M488.77,719.46h-1.38V717.6h1.38Zm0,9h-1.38v-7.79h1.38Z"/><path d="M493.46,728.7a3.85,3.85,0,0,1-2.41-.69,2.51,2.51,0,0,1-1-1.88l1.38-.2a2,2,0,0,0,.59,1.27,2.15,2.15,0,0,0,1.41.41,1.9,1.9,0,0,0,1.23-.34,1.18,1.18,0,0,0,.42-1c0-.62-.46-1-1.37-1.12l-1.12-.17a3.15,3.15,0,0,1-1.71-.74,1.93,1.93,0,0,1-.59-1.46,2,2,0,0,1,.8-1.63,4,4,0,0,1,4.27,0,2.68,2.68,0,0,1,1,1.79l-1.28.18a2,2,0,0,0-.62-1.15,2.38,2.38,0,0,0-2.38,0,.92.92,0,0,0-.42.79.91.91,0,0,0,.29.71,1.8,1.8,0,0,0,.92.36l1.25.2c1.58.26,2.36,1,2.36,2.23a2.23,2.23,0,0,1-.81,1.81A3.36,3.36,0,0,1,493.46,728.7Z"/><path d="M496.89,721.86v-1.14h1.37v-2.51h1.38v2.51h2v1.14h-2v4.36a1.27,1.27,0,0,0,.22.86,1,1,0,0,0,.75.25h1.18v1.18H500.4a2.19,2.19,0,0,1-1.59-.53,2.09,2.09,0,0,1-.55-1.57v-4.55Z"/><path d="M504.25,719.46h-1.38V717.6h1.38Zm0,9h-1.38v-7.79h1.38Z"/><path d="M509.34,727.52a2,2,0,0,0,1.41-.5,2.18,2.18,0,0,0,.64-1.38l1.35.16a3.08,3.08,0,0,1-1.08,2.11,3.84,3.84,0,0,1-5-.3,4.25,4.25,0,0,1-1-3,4.33,4.33,0,0,1,1-3,3.44,3.44,0,0,1,2.68-1.13,3.57,3.57,0,0,1,2.36.75,3.24,3.24,0,0,1,1.09,2.12l-1.42.16a1.9,1.9,0,0,0-2.05-1.84,1.93,1.93,0,0,0-1.64.77,3.49,3.49,0,0,0-.58,2.16,3.39,3.39,0,0,0,.58,2.11A2,2,0,0,0,509.34,727.52Z"/><path d="M520.73,727.36h.37v1.15h-.75a1.79,1.79,0,0,1-1-.29,1.09,1.09,0,0,1-.46-.81,2.73,2.73,0,0,1-2.47,1.29,2.94,2.94,0,0,1-2-.63,2.05,2.05,0,0,1-.74-1.64,2.22,2.22,0,0,1,.6-1.6A3.15,3.15,0,0,1,516,724l2.27-.38a.53.53,0,0,0,.49-.57,1.3,1.3,0,0,0-.46-1,1.81,1.81,0,0,0-1.25-.4,2,2,0,0,0-1.25.36,1.85,1.85,0,0,0-.64,1.09l-1.32-.15a2.71,2.71,0,0,1,1.07-1.75,3.53,3.53,0,0,1,2.2-.66,3.11,3.11,0,0,1,2.2.75,2.58,2.58,0,0,1,.8,2v3.51a.68.68,0,0,0,.13.46A.67.67,0,0,0,520.73,727.36Zm-5.68-1a1.19,1.19,0,0,0,.4.93,1.66,1.66,0,0,0,1.1.33,2.11,2.11,0,0,0,1.63-.71,2.64,2.64,0,0,0,.63-1.83v-.45l-2.49.44a1.59,1.59,0,0,0-.94.43A1.17,1.17,0,0,0,515.05,726.33Z"/><path d="M523.47,728.51h-1.39V717.6h1.39Z"/><path d="M526.77,728.51h-1.39V717.6h1.39Z"/><path d="M530.62,729.24l.26-.68-3.07-7.84h1.46l2.31,6.13,2.32-6.13h1.4l-3.4,8.67a3.4,3.4,0,0,1-1,1.57,2.65,2.65,0,0,1-1.61.44h-.81v-1.18h.81a1.46,1.46,0,0,0,.86-.22A1.5,1.5,0,0,0,530.62,729.24Z"/><path d="M541,728.51h-1.5V717.6h7.66v1.28H541v3.55h5.53v1.28H541Z"/><path d="M549.42,728.51H548v-7.79h1.35v1.42a2.41,2.41,0,0,1,2.23-1.42h.6V722h-.62a1.84,1.84,0,0,0-1.59.86,4,4,0,0,0-.59,2.3Z"/><path d="M552.59,724.62a4.17,4.17,0,0,1,1-3,3.57,3.57,0,0,1,2.76-1.13,3.64,3.64,0,0,1,2.77,1.13,4.16,4.16,0,0,1,1,3,4.24,4.24,0,0,1-1,3,3.63,3.63,0,0,1-2.77,1.12,3.57,3.57,0,0,1-2.76-1.12A4.2,4.2,0,0,1,552.59,724.62Zm5.55,2.13a3.88,3.88,0,0,0,0-4.27,2.17,2.17,0,0,0-1.76-.78,2.11,2.11,0,0,0-1.74.78,4,4,0,0,0,0,4.27,2.12,2.12,0,0,0,1.75.78A2.17,2.17,0,0,0,558.14,726.75Z"/><path d="M568,724.21v4.3h-1.38v-4.8a2.16,2.16,0,0,0-.45-1.46,1.58,1.58,0,0,0-1.25-.52,1.71,1.71,0,0,0-1.45.64,2.94,2.94,0,0,0-.5,1.84v4.3H561.6v-7.79H563v.95a2.62,2.62,0,0,1,2.29-1.14,3,3,0,0,1,1.49.36,2.31,2.31,0,0,1,.95,1.05,2.65,2.65,0,0,1,2.51-1.41,2.74,2.74,0,0,1,2.1.79,3,3,0,0,1,.76,2.14v5h-1.39v-4.8a2.16,2.16,0,0,0-.45-1.46,1.58,1.58,0,0,0-1.25-.52,1.71,1.71,0,0,0-1.45.64A2.94,2.94,0,0,0,568,724.21Z"/><path d="M579.77,728.51h-1.5V717.6h1.5Z"/><path d="M583.23,728.51h-1.38v-7.79h1.35v1.42a2.41,2.41,0,0,1,2.23-1.42h.6V722h-.62a1.84,1.84,0,0,0-1.59.86,4,4,0,0,0-.59,2.3Z"/><path d="M593.45,727.36h.38v1.15h-.76a1.73,1.73,0,0,1-1-.29,1.1,1.1,0,0,1-.47-.81,2.73,2.73,0,0,1-2.46,1.29,3,3,0,0,1-2-.63,2.08,2.08,0,0,1-.74-1.64,2.19,2.19,0,0,1,.61-1.6,3.08,3.08,0,0,1,1.74-.81l2.27-.38a.53.53,0,0,0,.49-.57,1.3,1.3,0,0,0-.46-1,1.8,1.8,0,0,0-1.24-.4,2,2,0,0,0-1.26.36,1.85,1.85,0,0,0-.64,1.09l-1.31-.15a2.65,2.65,0,0,1,1.06-1.75,3.55,3.55,0,0,1,2.2-.66,3.09,3.09,0,0,1,2.2.75,2.56,2.56,0,0,1,.81,2v3.51a.69.69,0,0,0,.12.46A.67.67,0,0,0,593.45,727.36Zm-5.67-1a1.18,1.18,0,0,0,.39.93,1.69,1.69,0,0,0,1.11.33,2.08,2.08,0,0,0,1.62-.71,2.65,2.65,0,0,0,.64-1.83v-.45L589,725a1.62,1.62,0,0,0-.94.43A1.2,1.2,0,0,0,587.78,726.33Z"/><path d="M601.5,723.46v5h-1.38v-4.8a2.06,2.06,0,0,0-.48-1.46,1.74,1.74,0,0,0-1.36-.52,1.94,1.94,0,0,0-1.56.63,2.85,2.85,0,0,0-.53,1.85v4.3h-1.38v-7.79h1.35v1a2.74,2.74,0,0,1,2.43-1.17,2.85,2.85,0,0,1,2.14.79A2.94,2.94,0,0,1,601.5,723.46Z"/><path d="M471.35,743.06h-6.12v-8.91h6v1h-4.77V738h4.26v1h-4.26v3h4.9Z"/><path d="M475.75,743.21a4,4,0,0,1-2.56-.77,2.72,2.72,0,0,1-1-2.13l1.2-.16a2.05,2.05,0,0,0,.64,1.53,2.48,2.48,0,0,0,1.69.53,2.06,2.06,0,0,0,1.38-.44,1.45,1.45,0,0,0,.5-1.16,1.16,1.16,0,0,0-.35-.91,2.59,2.59,0,0,0-1.22-.51l-1.19-.26a3.46,3.46,0,0,1-1.8-.88,2.35,2.35,0,0,1,.25-3.34,3.16,3.16,0,0,1,2.16-.71,3.42,3.42,0,0,1,2.24.68,2.67,2.67,0,0,1,.95,1.9l-1.2.15a1.79,1.79,0,0,0-2-1.73,2,2,0,0,0-1.32.39,1.41,1.41,0,0,0-.13,2,2.21,2.21,0,0,0,1.11.5l1.38.3a3.49,3.49,0,0,1,1.77.83,2.18,2.18,0,0,1,.56,1.56,2.43,2.43,0,0,1-.85,1.91A3.32,3.32,0,0,1,475.75,743.21Z"/><path d="M479.22,734.15H486v1h-2.77v7.87H482v-7.87h-2.78Z"/><path d="M493.45,736.51a1.42,1.42,0,0,0-.42-1.07,1.58,1.58,0,0,0-1.13-.4,1.71,1.71,0,0,0-1.44.61,2.82,2.82,0,0,0-.46,1.8l-1.17-.16A2.89,2.89,0,0,1,491.9,734a2.81,2.81,0,0,1,2,.69,2.39,2.39,0,0,1,.76,1.82,3.26,3.26,0,0,1-.46,1.61,7.57,7.57,0,0,1-1.46,1.73L490.38,742h4.53v1H488.8v-1l3.2-2.94a5.32,5.32,0,0,0,1.12-1.31A2.49,2.49,0,0,0,493.45,736.51Z"/><path d="M495.92,738.6a5.78,5.78,0,0,1,.87-3.37,2.88,2.88,0,0,1,2.46-1.23,2.84,2.84,0,0,1,2.46,1.23,5.6,5.6,0,0,1,.89,3.37,5.7,5.7,0,0,1-.89,3.38,2.86,2.86,0,0,1-2.46,1.23,2.83,2.83,0,0,1-2.46-1.22A5.74,5.74,0,0,1,495.92,738.6Zm4.91,2.66a5.27,5.27,0,0,0,.56-2.66,5.2,5.2,0,0,0-.56-2.65,1.74,1.74,0,0,0-1.58-.93,1.71,1.71,0,0,0-1.56,1,5.13,5.13,0,0,0-.57,2.63,5.36,5.36,0,0,0,.55,2.66,1.81,1.81,0,0,0,3.16,0Z"/><path d="M509.26,743.06h-5.52v-1h2.18v-5.73a1.93,1.93,0,0,1-1,.24h-1.2v-1h1.12a1,1,0,0,0,.85-.34,1.62,1.62,0,0,0,.28-1.06h1.18V742h2.13Z"/><path d="M514.91,740.45a1.39,1.39,0,0,0-.46-1.12,1.89,1.89,0,0,0-1.3-.4h-.8V738h.77a1.45,1.45,0,0,0,1.11-.43,1.62,1.62,0,0,0,.4-1.18,1.27,1.27,0,0,0-.44-1A1.7,1.7,0,0,0,513,735a1.87,1.87,0,0,0-1.34.49,2,2,0,0,0-.54,1.37l-1.11-.24a2.46,2.46,0,0,1,.87-1.9,3.23,3.23,0,0,1,2.15-.72,3.06,3.06,0,0,1,2,.63,2.14,2.14,0,0,1,.75,1.71,2.32,2.32,0,0,1-.33,1.24,2.15,2.15,0,0,1-.92.82,2.24,2.24,0,0,1,1.14.79,2,2,0,0,1,.4,1.27,2.58,2.58,0,0,1-.83,2,3.17,3.17,0,0,1-2.22.75,3.82,3.82,0,0,1-2.3-.66,2.42,2.42,0,0,1-1-1.82l1.21-.27a1.83,1.83,0,0,0,.6,1.29,2.13,2.13,0,0,0,1.43.46,2,2,0,0,0,1.39-.47A1.69,1.69,0,0,0,514.91,740.45Z"/><rect x="347" y="526.7" width="3.64" height="43.63"/><rect x="348.82" y="543.06" width="12.73" height="3.64"/><rect x="346.8" y="538.18" width="13.81" height="3.64" transform="translate(-278.24 408.27) rotate(-45)"/><rect x="341.55" y="555.79" width="6.25" height="3.64"/><path d="M350.64,564.88v-3.64a3.64,3.64,0,1,0,0-7.27v-3.63a7.27,7.27,0,1,1,0,14.54Z"/><path d="M356.1,532.15h-3.64a3.64,3.64,0,0,0-7.27,0h-3.64a7.28,7.28,0,0,1,14.55,0Z"/><path d="M437.79,692.15h-3.63a21.76,21.76,0,0,0-43.52,0H387a25.4,25.4,0,1,1,50.79,0Z"/><rect x="362.36" y="603.06" width="56.57" height="3.64" transform="translate(-313.3 453.39) rotate(-45)"/><path d="M514.27,695.79H368.82V602l-7.27,7.27v10.16H347V568.52h36.37a34.58,34.58,0,0,1,34.54,34.54v9.09h61.82a34.58,34.58,0,0,1,34.54,34.55Zm-141.81-3.64H510.64V646.7a30.94,30.94,0,0,0-30.91-30.91H414.28V603.06a31,31,0,0,0-30.91-30.91H350.64v43.64h7.27v-8l20.54-20.53L381,589.8l-8.56,8.56Z"/><polygon points="512.45 684.88 476.09 684.88 476.09 613.97 479.73 613.97 479.73 681.24 512.45 681.24 512.45 684.88"/><path d="M439.73,663.06a25.48,25.48,0,0,1-25.45-25.45V612.15h50.9v25.46A25.48,25.48,0,0,1,439.73,663.06Zm-21.82-47.27v21.82a21.84,21.84,0,0,0,21.82,21.81h0a21.84,21.84,0,0,0,21.82-21.81V615.79Z"/><path d="M363.37,584.88H347V568.52h16.37Zm-12.73-3.64h9.09v-9.09h-9.09Z"/><polygon points="305.19 668.51 288.78 668.51 300.38 650.33 290.64 650.33 290.64 646.7 307.01 646.7 295.41 664.88 305.19 664.88 305.19 668.51"/><polygon points="325.19 668.51 310.69 668.51 310.64 646.7 325.19 646.7 325.19 650.33 314.29 650.33 314.32 664.88 325.19 664.88 325.19 668.51"/><rect x="312.46" y="655.79" width="12.73" height="3.64"/><polygon points="345.19 668.51 330.64 668.51 330.64 646.7 345.19 646.7 345.19 650.33 334.28 650.33 334.28 664.88 345.19 664.88 345.19 668.51"/><rect x="332.46" y="655.79" width="12.73" height="3.64"/><polygon points="325.19 695.79 310.64 695.79 310.64 673.97 325.19 673.97 325.19 677.61 314.28 677.61 314.28 692.15 325.19 692.15 325.19 695.79"/><rect x="312.46" y="683.06" width="12.73" height="3.64"/><polygon points="347.01 695.79 343.52 695.79 334.28 681.05 334.28 695.79 330.64 695.79 330.64 673.97 334.13 673.97 343.37 688.7 343.37 673.97 347.01 673.97 347.01 695.79"/><path d="M388.82,755.78a20,20,0,0,1-20-20V717.6h3.64v18.19a16.37,16.37,0,0,0,32.73,0V717.6h3.63v18.19A20,20,0,0,1,388.82,755.78Z"/><polygon points="429.95 755.25 427.38 752.68 441.55 738.51 441.55 728.51 445.19 728.51 445.19 740.02 429.95 755.25"/><rect x="387.01" y="717.6" width="3.64" height="7.27"/><rect x="441.55" y="717.6" width="3.64" height="7.27"/><rect x="405.19" y="759.42" width="3.64" height="7.27"/><rect x="412.46" y="759.42" width="3.64" height="7.27"/><polygon points="408.29 736 405.72 733.43 414.28 724.88 414.28 717.6 417.91 717.6 417.91 726.38 408.29 736"/><polygon points="408.29 746.91 405.72 744.34 421.55 728.51 421.55 717.6 425.19 717.6 425.19 730.02 408.29 746.91"/><polygon points="410.33 755.78 405.19 755.78 405.19 717.6 408.82 717.6 408.82 752.15 428.82 732.15 428.82 717.6 432.46 717.6 432.46 733.65 410.33 755.78"/></g></svg>