<svg xmlns="http://www.w3.org/2000/svg" viewBox="0 0 1080 1080"><defs><style>.cls-1{fill:#cececd;}.cls-2{fill:none;stroke:#000;stroke-miterlimit:10;stroke-width:11.24px;}</style></defs><g id="Graphic"><rect class="cls-1" x="113.49" y="418.14" width="853.03" height="243.72"/><rect class="cls-2" x="454.7" y="150.04" width="170.61" height="779.91" transform="translate(1080 0) rotate(90)"/><line class="cls-2" x1="150.04" y1="454.7" x2="322.95" y2="627.61"/><line class="cls-2" x1="832.33" y1="456.58" x2="832.33" y2="625.3"/><path d="M444.77,519.47h-6V483.35h25.49v5.16H444.77V499h17.38v5.16H444.77Z"/><path d="M484.84,493.52h5.67v26H485v-3.05a8.57,8.57,0,0,1-7.58,3.68,9,9,0,0,1-6.88-2.66,10,10,0,0,1-2.52-7.17V493.52h5.67v15.85a6.32,6.32,0,0,0,1.35,4.34,4.82,4.82,0,0,0,3.82,1.53,5.41,5.41,0,0,0,4.42-1.85,8.33,8.33,0,0,0,1.52-5.38Z"/><path d="M503.21,519.47h-5.7V483.35h5.7Z"/><path d="M515.88,519.47h-5.7V483.35h5.7Z"/><path d="M557.06,502.69v16.78h-5.69V503.62a6.23,6.23,0,0,0-1.43-4.38,5.22,5.22,0,0,0-4-1.53,5.67,5.67,0,0,0-4.58,1.86,8.13,8.13,0,0,0-1.59,5.42v14.48H534v-26h5.46v3.1a9.19,9.19,0,0,1,7.86-3.73,9.48,9.48,0,0,1,7.1,2.65A9.77,9.77,0,0,1,557.06,502.69Z"/><path d="M586.18,514.78h1.13v4.69h-2.87a6.53,6.53,0,0,1-3.51-.88,3.68,3.68,0,0,1-1.75-2.52q-2.65,4-8.06,4a9.69,9.69,0,0,1-6.57-2.13,7,7,0,0,1-2.45-5.53,7.22,7.22,0,0,1,2-5.3,10.32,10.32,0,0,1,5.81-2.68l7.28-1.24a1.63,1.63,0,0,0,1.54-1.81,3.72,3.72,0,0,0-1.34-2.94,5.45,5.45,0,0,0-3.65-1.14q-4.71,0-5.64,4.33l-5.37-.6a9,9,0,0,1,3.63-5.91,12.43,12.43,0,0,1,7.63-2.26q4.86,0,7.58,2.51a8.82,8.82,0,0,1,2.72,6.84v10.58a2.14,2.14,0,0,0,.44,1.51A2,2,0,0,0,586.18,514.78ZM567.66,512a3.31,3.31,0,0,0,1.15,2.69,5,5,0,0,0,3.29,1,6.32,6.32,0,0,0,4.85-2,7.53,7.53,0,0,0,1.9-5.3V507l-7.38,1.25a5.08,5.08,0,0,0-2.82,1.28A3.31,3.31,0,0,0,567.66,512Z"/><path d="M613.71,505v14.48H608V503.62a6.55,6.55,0,0,0-1.31-4.38,4.66,4.66,0,0,0-3.75-1.53,5.14,5.14,0,0,0-4.29,1.86,8.54,8.54,0,0,0-1.48,5.42v14.48h-5.69v-26H597v3a8.53,8.53,0,0,1,7.43-3.63,10,10,0,0,1,4.9,1.16,7.71,7.71,0,0,1,3.16,3.33q2.52-4.49,8.18-4.49a9.27,9.27,0,0,1,7,2.65,9.83,9.83,0,0,1,2.56,7.15v16.78h-5.67V503.62a6.55,6.55,0,0,0-1.31-4.38,4.66,4.66,0,0,0-3.75-1.53,5.17,5.17,0,0,0-4.3,1.86A8.6,8.6,0,0,0,613.71,505Z"/><path d="M648.17,515.54a6.44,6.44,0,0,0,3.92-1.1,6.05,6.05,0,0,0,2.1-3.38l5.06,1.08a9.71,9.71,0,0,1-3.81,5.86,12.18,12.18,0,0,1-7.27,2.1q-6.18,0-9.48-3.54t-3.32-10.09q0-6.12,3.45-9.8a11.91,11.91,0,0,1,9.2-3.78,11.2,11.2,0,0,1,8.64,3.44q3.17,3.44,3.17,9.31v2.27H641Q641.52,515.54,648.17,515.54Zm-.2-18.16q-5.93,0-6.88,6.62H654Q653.52,497.39,648,497.38Z"/><path d="M387.36,583.92v3.4h-19.6v-3.4Z"/><path d="M428.32,588.25c-1.13,0-2.16-.06-3.09-.07l-2,0a9,9,0,0,0-2.89.33c-.59.23-.88.48-.88.75a.5.5,0,0,0,.31.47,8.62,8.62,0,0,0,1.44.41l4.54,1a5.24,5.24,0,0,1,2.25,1,2.38,2.38,0,0,1,.75,1.86,4.86,4.86,0,0,1-1.42,3.38,12.74,12.74,0,0,1-3.66,2.63,21.24,21.24,0,0,1-5,1.7,25.36,25.36,0,0,1-5.39.6,15.12,15.12,0,0,1-5-.78,10.52,10.52,0,0,1-3.82-2.24,10.23,10.23,0,0,1-2.45-3.59,12.51,12.51,0,0,1-.87-4.79,15.11,15.11,0,0,1,.67-4.7,19.06,19.06,0,0,1,2.11-4.33l2.38,1.13a18.47,18.47,0,0,0-1.6,3.56,11.14,11.14,0,0,0-.57,3.46,7.79,7.79,0,0,0,2.48,6.11c1.65,1.5,4,2.25,7,2.25a23.4,23.4,0,0,0,4.7-.44,22.84,22.84,0,0,0,3.66-1.06,13.41,13.41,0,0,0,2.47-1.24,6.3,6.3,0,0,0,1.24-1,1.88,1.88,0,0,0-.59-.39A5.38,5.38,0,0,0,424,594l-4.28-1a6.83,6.83,0,0,1-2.48-1.11,2.71,2.71,0,0,1-.87-2.25,4.47,4.47,0,0,1,2.06-3.86c1.37-1,3.58-1.45,6.6-1.45h3.72v4Z"/><path d="M451.79,557.87q-2.58,1.13-5.15,2.4t-4.88,2.5c-1.53.82-2.94,1.61-4.23,2.35s-2.36,1.4-3.22,2A43.21,43.21,0,0,1,440.7,574a10.63,10.63,0,0,1,2.12,6.09,7.41,7.41,0,0,1-.75,3.36A8,8,0,0,1,440,586a9.08,9.08,0,0,1-3.2,1.66,14.46,14.46,0,0,1-4.1.56h-3.92a1,1,0,0,1-.88-.56,2.66,2.66,0,0,1-.36-1.45,2.53,2.53,0,0,1,.36-1.42,1,1,0,0,1,.88-.54H433a8.69,8.69,0,0,0,5.06-1.21,4.3,4.3,0,0,0,2-2.61,7,7,0,0,0-.67-2.34,12.77,12.77,0,0,0-1.68-2.58,37.26,37.26,0,0,0-2.78-3q-1.68-1.62-4-3.68a19.19,19.19,0,0,1,.46-3,2.41,2.41,0,0,1,.73-1.23c1-.69,2.27-1.47,3.74-2.33s3.07-1.77,4.85-2.73,3.64-1.94,5.62-2.94,4-2,6-2.94Zm-4.43-4.59q-3.36,1.65-7.35,3.84t-8.08,4.82l.31-2.63q3.87-2.58,8-4.87t7.51-4Z"/><path d="M466,580.82a7.87,7.87,0,0,1-.9,4,6.56,6.56,0,0,1-2.4,2.42,10,10,0,0,1-3.46,1.21,23.37,23.37,0,0,1-4.07.34,14.35,14.35,0,0,1-4.18-.52,7.12,7.12,0,0,1-3.2-2.16l1.75-2.94a6.76,6.76,0,0,0,2.66,1.34,15.18,15.18,0,0,0,3.23.31,13.09,13.09,0,0,0,5.67-1c1.31-.66,2-1.47,2-2.43a5.34,5.34,0,0,0-.39-1.73,10.28,10.28,0,0,0-1.31-2.37,21.34,21.34,0,0,0-2.5-2.84,29.93,29.93,0,0,0-3.95-3.12l1.55-3.76a24.38,24.38,0,0,1,3.53,2.6,23.07,23.07,0,0,1,3.07,3.28,16.93,16.93,0,0,1,2.14,3.63A9.61,9.61,0,0,1,466,580.82Z"/><path d="M475.68,587.74l-3.3.77V553.69l3.3-1.55Z"/><path d="M496,588.25a14.28,14.28,0,0,1-1.75,4,21.77,21.77,0,0,1-2.94,3.61,37.4,37.4,0,0,1-3.95,3.4q-2.19,1.65-4.72,3.3L480,600.07a69.15,69.15,0,0,0,8.93-6.66,15.24,15.24,0,0,0,4.28-5.52,14.9,14.9,0,0,1-2.76.54c-.88.09-1.61.13-2.19.13a5.66,5.66,0,0,1-3.87-1.34,5,5,0,0,1-1.55-4,11.06,11.06,0,0,1,.49-3.23,11.6,11.6,0,0,1,1.34-2.94,8,8,0,0,1,2-2.16,4.32,4.32,0,0,1,2.58-.86,5.08,5.08,0,0,1,2.89.88,7.45,7.45,0,0,1,2.16,2.3,12,12,0,0,1,1.37,3.27,18.66,18.66,0,0,1,.59,3.82h3.87v4Zm-2.63-3.92a14.35,14.35,0,0,0-.51-2.53,9.73,9.73,0,0,0-.91-2.08,4.35,4.35,0,0,0-1.29-1.42,2.85,2.85,0,0,0-1.67-.52,2.29,2.29,0,0,0-1.32.41,4.44,4.44,0,0,0-1.06,1.06,5.13,5.13,0,0,0-.72,1.42,4.78,4.78,0,0,0-.26,1.5,2.42,2.42,0,0,0,.85,2,3.67,3.67,0,0,0,2.4.7,21.35,21.35,0,0,0,2.32-.13A13.94,13.94,0,0,0,493.32,584.33Z"/><path d="M506.84,582.06a7.44,7.44,0,0,0-.62-2.19,17.53,17.53,0,0,0-2.12-3.64l2.63-2.78a14,14,0,0,1,2.43,4.23,12.23,12.23,0,0,1,.77,3.92,6.17,6.17,0,0,1-2,4.95c-1.33,1.14-3.38,1.7-6.17,1.7h-1.6a1.07,1.07,0,0,1-.88-.56,2.66,2.66,0,0,1-.36-1.45,2.53,2.53,0,0,1,.36-1.42,1.06,1.06,0,0,1,.88-.54h1.65a10.63,10.63,0,0,0,3.51-.52C506.34,583.42,506.84,582.85,506.84,582.06Zm-.21-12.64-3.15-2.68L505.8,564l3.15,2.63Z"/><path d="M523.81,588.25a7.2,7.2,0,0,1-3.85-.87,5.41,5.41,0,0,1-2-2.27,9,9,0,0,1-.77-3.2q-.13-1.81-.18-3.66c-.07-1.76-.11-3.66-.13-5.71s0-4.13-.1-6.26l-.18-6.43c-.07-2.14-.18-4.2-.31-6.16l3.3-1.55q.15,4.18.2,7.48c0,2.2.06,4.27.08,6.19s0,3.77,0,5.52,0,3.58.1,5.47c0,1,.08,2,.13,2.92a8,8,0,0,0,.46,2.37,3.5,3.5,0,0,0,1.22,1.6,4,4,0,0,0,2.32.59h1.65v4Z"/><path d="M552.54,579.9a14.62,14.62,0,0,0-4.12.74,20.92,20.92,0,0,0-3.25,1.37q-2.32,1.29-4.13,2.43a35.16,35.16,0,0,1-3.64,2,19.87,19.87,0,0,1-3.87,1.34,20.14,20.14,0,0,1-4.72.49h-3a1,1,0,0,1-.88-.56,2.66,2.66,0,0,1-.36-1.45,2.53,2.53,0,0,1,.36-1.42,1,1,0,0,1,.88-.54H529a21.82,21.82,0,0,0,4.64-.41,17.75,17.75,0,0,0,3.43-1.16c1.08-.5,2.26-1.11,3.53-1.83s2.91-1.55,4.9-2.48a34.9,34.9,0,0,1-3.43-1.24c-1-.45-2-.86-2.83-1.24L537,575a4.37,4.37,0,0,0-1.52-.39,3.25,3.25,0,0,0-1.71.67,15.24,15.24,0,0,0-2.58,2.58L529,576.54c.41-.65.87-1.32,1.39-2a16.8,16.8,0,0,1,1.63-1.88,8,8,0,0,1,1.75-1.37,3.6,3.6,0,0,1,1.78-.52,7.66,7.66,0,0,1,3,.83l4,1.83a45,45,0,0,0,4.65,1.83,16,16,0,0,0,5.1.83h1Zm-16.35-13.83L533,563.39l2.32-2.74,3.15,2.63Z"/><path d="M576.84,581.5a4.32,4.32,0,0,1-.34,1.62,5.71,5.71,0,0,1-.9,1.55,5.15,5.15,0,0,1-1.34,1.16,3.24,3.24,0,0,1-1.7.46h-6.71c-1.48,0-2.43.34-2.86,1a6.67,6.67,0,0,0-.65,3.43v18.62h-2.83c-.07-3.64-.13-6.63-.16-9s-.06-4.17-.08-5.54,0-2.36,0-2.94v-1.14a12.17,12.17,0,0,1,1-5.52,5.32,5.32,0,0,1,2.92-2.48,24.47,24.47,0,0,1,.33-3.27,12.08,12.08,0,0,1,1-3.17,7,7,0,0,1,1.75-2.4,4,4,0,0,1,2.74-1,6,6,0,0,1,2.81.75,9.77,9.77,0,0,1,2.55,2,10.52,10.52,0,0,1,1.86,2.74A7.08,7.08,0,0,1,576.84,581.5Zm-2.79.1a3.73,3.73,0,0,0-.56-1.65,8,8,0,0,0-1.29-1.63,7.61,7.61,0,0,0-1.71-1.24,3.9,3.9,0,0,0-1.8-.49c-.93,0-1.63.59-2.09,1.76a13.11,13.11,0,0,0-.8,4.33c.41,0,1,.06,1.6.08s1.32,0,2,0h3.25a1.26,1.26,0,0,0,.93-.36A1.65,1.65,0,0,0,574.05,581.6Z"/><path d="M590.66,588.25a7.14,7.14,0,0,1-3.84-.87,5.41,5.41,0,0,1-2-2.27,9,9,0,0,1-.77-3.2c-.09-1.21-.15-2.43-.19-3.66-.06-1.76-.11-3.66-.12-5.71s-.06-4.13-.11-6.26-.11-4.28-.18-6.43-.17-4.2-.31-6.16l3.3-1.55q.17,4.18.21,7.48c0,2.2.06,4.27.08,6.19s0,3.77,0,5.52,0,3.58.11,5.47c0,1,.07,2,.13,2.92a7.73,7.73,0,0,0,.46,2.37,3.48,3.48,0,0,0,1.21,1.6,4,4,0,0,0,2.32.59h1.65v4Z"/><path d="M599.28,582.06a7.44,7.44,0,0,0-.62-2.19,17.09,17.09,0,0,0-2.12-3.64l2.64-2.78a13.92,13.92,0,0,1,2.42,4.23,12,12,0,0,1,.77,3.92,6.17,6.17,0,0,1-2,4.95c-1.33,1.14-3.38,1.7-6.17,1.7h-1.6a1,1,0,0,1-.87-.56,2.66,2.66,0,0,1-.36-1.45,2.53,2.53,0,0,1,.36-1.42,1,1,0,0,1,.87-.54h1.65a10.55,10.55,0,0,0,3.51-.52C598.78,583.42,599.28,582.85,599.28,582.06Zm-.21-12.64-3.14-2.68,2.32-2.73,3.14,2.63Z"/><path d="M630.49,582.37a12.7,12.7,0,0,1-1,5.13,18.2,18.2,0,0,1-2.84,4.47,28.17,28.17,0,0,1-4.36,4.07q-2.55,2-5.55,3.92l-2.57-2.47a64.24,64.24,0,0,0,9.33-7c2.31-2.17,3.63-4.07,4-5.72a8.19,8.19,0,0,1-2.69,1,13.47,13.47,0,0,1-2.37.23,5.66,5.66,0,0,1-3.87-1.34,5,5,0,0,1-1.55-4,11.41,11.41,0,0,1,.49-3.23,12,12,0,0,1,1.34-2.94,8,8,0,0,1,2-2.16,4.31,4.31,0,0,1,2.58-.85,5,5,0,0,1,3,.95,8,8,0,0,1,2.22,2.5A12.77,12.77,0,0,1,630,578.4,17.17,17.17,0,0,1,630.49,582.37Zm-3.15-1.13a12.73,12.73,0,0,0-.49-2.22,8.81,8.81,0,0,0-.85-1.94,4.34,4.34,0,0,0-1.26-1.36,2.86,2.86,0,0,0-1.68-.52,2.26,2.26,0,0,0-1.31.41,4.44,4.44,0,0,0-1.06,1.06,5.45,5.45,0,0,0-.73,1.42,4.76,4.76,0,0,0-.25,1.5,2.39,2.39,0,0,0,.85,2,3.65,3.65,0,0,0,2.4.7,9.74,9.74,0,0,0,2.37-.29A8.32,8.32,0,0,0,627.34,581.24Z"/><path d="M661.75,581.5a4.5,4.5,0,0,1-.33,1.62,6,6,0,0,1-.91,1.55,5.15,5.15,0,0,1-1.34,1.16,3.21,3.21,0,0,1-1.7.46h-6.71c-1.48,0-2.43.34-2.86,1a6.67,6.67,0,0,0-.65,3.43v18.62h-2.83c-.07-3.64-.12-6.63-.16-9s-.06-4.17-.08-5.54,0-2.36,0-2.94v-1.14a12.17,12.17,0,0,1,1-5.52,5.32,5.32,0,0,1,2.92-2.48,24.47,24.47,0,0,1,.33-3.27,12.08,12.08,0,0,1,1-3.17,7,7,0,0,1,1.75-2.4,4,4,0,0,1,2.74-1,6,6,0,0,1,2.81.75,9.77,9.77,0,0,1,2.55,2,10.52,10.52,0,0,1,1.86,2.74A7.08,7.08,0,0,1,661.75,581.5Zm-2.79.1a3.73,3.73,0,0,0-.56-1.65,8,8,0,0,0-1.29-1.63,7.79,7.79,0,0,0-1.7-1.24,4,4,0,0,0-1.81-.49c-.93,0-1.63.59-2.09,1.76a13.37,13.37,0,0,0-.8,4.33c.41,0,.95.06,1.6.08s1.32,0,2,0h3.25a1.26,1.26,0,0,0,.93-.36A1.58,1.58,0,0,0,659,581.6Z"/><path d="M675.58,588.25a7.15,7.15,0,0,1-3.85-.87,5.41,5.41,0,0,1-2-2.27,9,9,0,0,1-.77-3.2q-.13-1.81-.18-3.66c-.07-1.76-.12-3.66-.13-5.71s0-4.13-.11-6.26-.11-4.28-.18-6.43-.17-4.2-.31-6.16l3.31-1.55q.15,4.18.2,7.48c0,2.2.06,4.27.08,6.19s0,3.77,0,5.52,0,3.58.1,5.47c0,1,.08,2,.13,2.92a7.73,7.73,0,0,0,.46,2.37,3.48,3.48,0,0,0,1.21,1.6,4,4,0,0,0,2.32.59h1.66v4Z"/><path d="M684.19,582.06a7.44,7.44,0,0,0-.62-2.19,17.43,17.43,0,0,0-2.11-3.64l2.63-2.78a13.71,13.71,0,0,1,2.42,4.23,12,12,0,0,1,.78,3.92,6.18,6.18,0,0,1-2,4.95c-1.33,1.14-3.38,1.7-6.17,1.7h-1.59a1,1,0,0,1-.88-.56,2.66,2.66,0,0,1-.36-1.45,2.53,2.53,0,0,1,.36-1.42,1,1,0,0,1,.88-.54h1.65a10.53,10.53,0,0,0,3.5-.52C683.69,583.42,684.19,582.85,684.19,582.06ZM684,569.42l-3.14-2.68,2.32-2.73,3.14,2.63Z"/><path d="M720.71,583.92v3.4h-19.6v-3.4Z"/></g></svg>