<svg xmlns="http://www.w3.org/2000/svg" xmlns:xlink="http://www.w3.org/1999/xlink" viewBox="0 0 1080 1920"><defs><style>.cls-1{fill:#4672e2;}.cls-2{fill:#082b96;}.cls-3{fill:url(#linear-gradient);}.cls-4{fill:url(#linear-gradient-2);}.cls-5{fill:url(#linear-gradient-3);}.cls-6{fill:url(#linear-gradient-4);}.cls-7{fill:url(#linear-gradient-5);}.cls-8{fill:#fff;}</style><linearGradient id="linear-gradient" x1="17635.72" y1="10686.45" x2="17635.72" y2="9606.45" gradientTransform="translate(-9606.45 17885.72) rotate(-90)" gradientUnits="userSpaceOnUse"><stop offset="0" stop-color="#fff" stop-opacity="0"/><stop offset="0.51" stop-color="#fff"/><stop offset="1" stop-color="#fff" stop-opacity="0"/></linearGradient><linearGradient id="linear-gradient-2" x1="16215.72" y1="10686.45" x2="16215.72" y2="9606.45" xlink:href="#linear-gradient"/><linearGradient id="linear-gradient-3" x1="20701.32" y1="11816.44" x2="20701.32" y2="9896.53" gradientTransform="translate(20787.72 11816.44) rotate(180)" xlink:href="#linear-gradient"/><linearGradient id="linear-gradient-4" x1="19794.15" y1="11816.44" x2="19794.15" y2="9896.53" gradientTransform="translate(20787.72 11816.44) rotate(180)" xlink:href="#linear-gradient"/><linearGradient id="linear-gradient-5" x1="21411.35" y1="6234.44" x2="21411.35" y2="5154.44" gradientTransform="translate(-20417.72 -5154.44)" xlink:href="#linear-gradient"/></defs><g id="Graphic"><ellipse class="cls-1" cx="540.16" cy="1794.96" rx="131.07" ry="59.4"/><path class="cls-2" d="M470.13,1783.82a4,4,0,0,1-2.9-.93,6.32,6.32,0,0,1-1.48-2.79,5.88,5.88,0,0,1-1.76.84,7.18,7.18,0,0,1-2.14.33,2.94,2.94,0,0,1-2.09-.69,2.46,2.46,0,0,1-.73-1.89,4.7,4.7,0,0,1,1.21-3.09,15.16,15.16,0,0,1,4-3l-.36-1.68,1.65-1.17,1.44,7.35c.16.8.31,1.48.46,2a4.66,4.66,0,0,0,.59,1.38,2.06,2.06,0,0,0,.93.78,3.83,3.83,0,0,0,1.47.24h.54v2.31Zm-5.58-9.39a13.88,13.88,0,0,0-1.46.81,12.08,12.08,0,0,0-1.26.91,4.8,4.8,0,0,0-.9,1,2,2,0,0,0-.37,1q-.06,1,1.59,1a5.88,5.88,0,0,0,.9-.08,7,7,0,0,0,.93-.21,6.28,6.28,0,0,0,.81-.3,1.86,1.86,0,0,0,.54-.34Z"/><path class="cls-2" d="M486.06,1783.82a8.31,8.31,0,0,1-1.61-.14,3.07,3.07,0,0,1-1.2-.51,3.43,3.43,0,0,1-.93-1.05,9.13,9.13,0,0,1-.76-1.72c-.78.48-1.5.93-2.15,1.35a16.62,16.62,0,0,1-2,1.09,10.26,10.26,0,0,1-2.13.72,12,12,0,0,1-2.61.26h-1.77a.6.6,0,0,1-.51-.33,1.54,1.54,0,0,1-.21-.84,1.48,1.48,0,0,1,.21-.83.6.6,0,0,1,.51-.31h1.86a12.47,12.47,0,0,0,2.7-.24,9.56,9.56,0,0,0,2-.69c.63-.3,1.32-.67,2.06-1.11s1.69-.94,2.85-1.5q-1.08-.33-2-.69c-.62-.24-1.18-.47-1.68-.68l-1.29-.52a2.53,2.53,0,0,0-.84-.21,1.85,1.85,0,0,0-1,.39,8.59,8.59,0,0,0-1.5,1.5l-1.26-.75q.36-.57.81-1.17a10.23,10.23,0,0,1,.94-1.1,4.84,4.84,0,0,1,1-.79,2.09,2.09,0,0,1,1-.3,4.43,4.43,0,0,1,1.71.45c.68.3,1.44.62,2.28,1s1.75.68,2.73,1a10.29,10.29,0,0,0,3,.45h.6l-.48,2.25a9.25,9.25,0,0,0-1.94.31,9.8,9.8,0,0,0-1.6.59,4.05,4.05,0,0,0,.63,1.06,2.24,2.24,0,0,0,.7.56,2.2,2.2,0,0,0,.81.21c.29,0,.61,0,.95,0h2.34v2.31Z"/><path class="cls-2" d="M497.88,1783.82a8.39,8.39,0,0,1-2.4-.33,5.6,5.6,0,0,1-2-1.08,6.86,6.86,0,0,1-2,1.06,6.73,6.73,0,0,1-2,.35h-1a.6.6,0,0,1-.51-.33,1.54,1.54,0,0,1-.21-.84,1.48,1.48,0,0,1,.21-.83.6.6,0,0,1,.51-.31h.81a8.52,8.52,0,0,0,1.24-.09,5.5,5.5,0,0,0,1.28-.36,5.06,5.06,0,0,1-1-1.65,4.46,4.46,0,0,1-.28-1.47,3.76,3.76,0,0,1,.37-1.59,5.58,5.58,0,0,1,1-1.46,5.23,5.23,0,0,1,1.35-1.05,3.12,3.12,0,0,1,1.5-.4,2.26,2.26,0,0,1,1.23.36,3.64,3.64,0,0,1,1,.93,4.27,4.27,0,0,1,.64,1.3,5,5,0,0,1,.23,1.46,4.45,4.45,0,0,1-.42,1.77,5.25,5.25,0,0,1-1.74,2,4.82,4.82,0,0,0,1.39.27l1.31,0h.9v2.31Zm-1.77-5.94a2.39,2.39,0,0,0-.14-.74,3.24,3.24,0,0,0-.36-.75,2.3,2.3,0,0,0-.54-.58,1.08,1.08,0,0,0-.67-.24,1.68,1.68,0,0,0-.84.24,3.53,3.53,0,0,0-.75.57,3.3,3.3,0,0,0-.56.73,1.51,1.51,0,0,0-.22.71,2.4,2.4,0,0,0,.48,1.38,5.12,5.12,0,0,0,1.17,1.2,6.16,6.16,0,0,0,1.8-1.31A2,2,0,0,0,496.11,1777.88Zm-1.47-6.72-1.83-1.56,1.35-1.59,1.83,1.53Z"/><path class="cls-2" d="M519,1778.33a4.35,4.35,0,0,1-.72,2.52,5.54,5.54,0,0,1-1.91,1.71,9.17,9.17,0,0,1-2.73,1,16.67,16.67,0,0,1-3.19.3H508.2a11.46,11.46,0,0,1-1.55-.09,3.89,3.89,0,0,1-1.12-.32,2.45,2.45,0,0,1-.81-.6,4.52,4.52,0,0,1-.63-1,4,4,0,0,1-1.46,1.5,3.86,3.86,0,0,1-1.93.48h-1.56a.6.6,0,0,1-.51-.33,1.54,1.54,0,0,1-.21-.84,1.48,1.48,0,0,1,.21-.83.6.6,0,0,1,.51-.31h1.44a3.26,3.26,0,0,0,1.93-.54,2.36,2.36,0,0,0,.86-1.89v-1.38l1.68-.42a12.82,12.82,0,0,0,.24,2.67,1.83,1.83,0,0,0,1,1.44c.54-.72,1.15-1.49,1.84-2.31a21.23,21.23,0,0,1,2.19-2.25,13,13,0,0,1,2.4-1.7,5.17,5.17,0,0,1,2.48-.67,3.6,3.6,0,0,1,1.42.28,3.72,3.72,0,0,1,1.19.8,4,4,0,0,1,.82,1.21A3.84,3.84,0,0,1,519,1778.33Zm-1.89.39a2,2,0,0,0-.65-1.43,2.28,2.28,0,0,0-1.69-.64,4.94,4.94,0,0,0-3,1.26,25.49,25.49,0,0,0-3.6,3.69h2.64a13.68,13.68,0,0,0,2.31-.2,9.69,9.69,0,0,0,2-.55,4.28,4.28,0,0,0,1.43-.9A1.69,1.69,0,0,0,517.11,1778.72Z"/><path class="cls-2" d="M539.85,1783.82a4.71,4.71,0,0,1-1.2-.14,2.86,2.86,0,0,1-.92-.42,3.44,3.44,0,0,1-.75-.73,8.64,8.64,0,0,1-.7-1.11,4.08,4.08,0,0,1-2.15,2.16,9.09,9.09,0,0,1-3.34.54,7.09,7.09,0,0,1-2.36-.33,4.77,4.77,0,0,1-1.78-1.23l1-1.71a4.27,4.27,0,0,0,1.42.73,8.44,8.44,0,0,0,5-.33c.73-.37,1.1-.81,1.1-1.33a9,9,0,0,0-.66-2.54q-.66-1.82-1.92-4.78l1.56-1.62,2.7,7.17a14.55,14.55,0,0,0,.69,1.63,4.68,4.68,0,0,0,.69,1,2,2,0,0,0,.76.54,2.65,2.65,0,0,0,.92.15h1v2.31Z"/><path class="cls-2" d="M540.18,1789.31l-1.77-1.47,1.29-1.53,1.74,1.47Zm4.56-9.09a4.28,4.28,0,0,0-.36-1.28,10,10,0,0,0-1.23-2.11l1.53-1.62a8.06,8.06,0,0,1,1.41,2.46,7,7,0,0,1,.45,2.28,3.59,3.59,0,0,1-1.16,2.88,5.41,5.41,0,0,1-3.58,1h-.93a.6.6,0,0,1-.51-.33,1.54,1.54,0,0,1-.21-.84,1.48,1.48,0,0,1,.21-.83.6.6,0,0,1,.51-.31h1a6.26,6.26,0,0,0,2-.3Q544.74,1780.91,544.74,1780.22Zm-1,9.09-1.74-1.47,1.32-1.53,1.71,1.47Z"/><path class="cls-2" d="M556.65,1783.82a4.62,4.62,0,0,1-1-.11,1.91,1.91,0,0,1-.9-.49,5.94,5.94,0,0,1-.71,2.38,10.44,10.44,0,0,1-1.65,2.25A20.74,20.74,0,0,1,550,1790c-.92.71-1.92,1.43-3,2.15l-1.53-1.47a36.33,36.33,0,0,0,3.21-2.21,25.44,25.44,0,0,0,2.38-2.07,10,10,0,0,0,1.49-1.81,2.94,2.94,0,0,0,.51-1.47,4.54,4.54,0,0,0-.53-1.88,25.74,25.74,0,0,0-1.36-2.44l1.56-1.53,1.15,2a8.7,8.7,0,0,0,.87,1.31,2.52,2.52,0,0,0,.81.67,2.33,2.33,0,0,0,1,.2h.87v2.31Z"/><path class="cls-2" d="M573,1779a8.73,8.73,0,0,0-2.4.43,12.34,12.34,0,0,0-1.89.8q-1.35.75-2.4,1.41a19.13,19.13,0,0,1-2.12,1.15,12,12,0,0,1-2.25.78,11.75,11.75,0,0,1-2.74.29h-1.77a.6.6,0,0,1-.51-.33,1.54,1.54,0,0,1-.21-.84,1.48,1.48,0,0,1,.21-.83.6.6,0,0,1,.51-.31h1.86a12.47,12.47,0,0,0,2.7-.24,10.15,10.15,0,0,0,2-.68c.63-.29,1.32-.64,2.06-1.06s1.69-.9,2.85-1.44a20.1,20.1,0,0,1-2-.72l-1.65-.72c-.49-.22-.92-.41-1.29-.56a2.48,2.48,0,0,0-.88-.22,1.85,1.85,0,0,0-1,.39,8.59,8.59,0,0,0-1.5,1.5l-1.26-.75q.36-.57.81-1.17a10.23,10.23,0,0,1,.94-1.1,4.84,4.84,0,0,1,1-.79,2.09,2.09,0,0,1,1-.3,4.44,4.44,0,0,1,1.77.48l2.31,1.06a25.74,25.74,0,0,0,2.7,1.07,9.33,9.33,0,0,0,3,.48h.6Zm-9.51-8-1.83-1.56,1.35-1.59,1.83,1.53Z"/><path class="cls-2" d="M598.56,1775.72a5.7,5.7,0,0,0-.95-.38,3.33,3.33,0,0,0-.94-.13,3.85,3.85,0,0,0-1.74.43,7.2,7.2,0,0,0-1.58,1.07,6.26,6.26,0,0,0-1.15,1.35,2.51,2.51,0,0,0-.45,1.29.67.67,0,0,0,.4.6,6.1,6.1,0,0,0,1.34.36l1.6.27,1.37.24a3.14,3.14,0,0,1,1.74.76,2.23,2.23,0,0,1,.48,1.55,3.31,3.31,0,0,1-.89,2.13,8.76,8.76,0,0,1-2.32,1.89,13.93,13.93,0,0,1-3.26,1.35,13.6,13.6,0,0,1-3.7.51,8.87,8.87,0,0,1-2.9-.45,6.14,6.14,0,0,1-2.22-1.31,5.88,5.88,0,0,1-1.42-2.08,7.23,7.23,0,0,1-.51-2.79,8.82,8.82,0,0,1,.39-2.73,11.19,11.19,0,0,1,1.23-2.52l1.38.66a11,11,0,0,0-.93,2.07,6.5,6.5,0,0,0-.33,2,4.55,4.55,0,0,0,1.44,3.55,5.87,5.87,0,0,0,4.08,1.31,12,12,0,0,0,3.07-.38,13.79,13.79,0,0,0,2.51-.9,8.46,8.46,0,0,0,1.74-1.08,3.09,3.09,0,0,0,.81-.88.61.61,0,0,0-.29-.38,3.74,3.74,0,0,0-1-.28l-2.76-.45a7.82,7.82,0,0,1-1.1-.24,2.54,2.54,0,0,1-.85-.44,1.86,1.86,0,0,1-.56-.73,3,3,0,0,1-.19-1.17,5.27,5.27,0,0,1,.61-2.39,8.86,8.86,0,0,1,1.61-2.22,8.67,8.67,0,0,1,2.2-1.63,5.18,5.18,0,0,1,2.39-.63,3.78,3.78,0,0,1,1.23.19,4.31,4.31,0,0,1,1.17.65Z"/><path class="cls-2" d="M605,1783.52,603,1784v-20.25l1.92-.9Z"/><path class="cls-2" d="M615.24,1783.82a4.62,4.62,0,0,1-1-.11,1.91,1.91,0,0,1-.9-.49,5.94,5.94,0,0,1-.71,2.38,10.44,10.44,0,0,1-1.65,2.25,20.74,20.74,0,0,1-2.41,2.16c-.92.71-1.92,1.43-3,2.15l-1.53-1.47a36.33,36.33,0,0,0,3.21-2.21,25.44,25.44,0,0,0,2.38-2.07,10,10,0,0,0,1.49-1.81,2.94,2.94,0,0,0,.51-1.47,4.54,4.54,0,0,0-.53-1.88,25.74,25.74,0,0,0-1.36-2.44l1.56-1.53,1.15,2a8.7,8.7,0,0,0,.87,1.31,2.52,2.52,0,0,0,.81.67,2.33,2.33,0,0,0,1,.2H616v2.31Z"/><path class="cls-2" d="M619.89,1780.22a4.28,4.28,0,0,0-.36-1.28,10,10,0,0,0-1.23-2.11l1.53-1.62a8.06,8.06,0,0,1,1.41,2.46,7,7,0,0,1,.45,2.28,3.59,3.59,0,0,1-1.16,2.88,5.41,5.41,0,0,1-3.58,1H616a.6.6,0,0,1-.51-.33,1.54,1.54,0,0,1-.21-.84,1.48,1.48,0,0,1,.21-.83.6.6,0,0,1,.51-.31h1a6.26,6.26,0,0,0,2-.3Q619.89,1780.91,619.89,1780.22Zm-1,9.24L617,1787.9l1.35-1.59,1.83,1.53Z"/><path class="cls-2" d="M492.43,1819.82a4.71,4.71,0,0,1-1.2-.14,2.81,2.81,0,0,1-.91-.42,3.44,3.44,0,0,1-.75-.73,8.61,8.61,0,0,1-.71-1.11,4.07,4.07,0,0,1-2.14,2.16,9.15,9.15,0,0,1-3.35.54,7,7,0,0,1-2.35-.33,4.8,4.8,0,0,1-1.79-1.23l1-1.71a4.31,4.31,0,0,0,1.43.73,6.8,6.8,0,0,0,1.9.23,6.94,6.94,0,0,0,3.08-.56c.73-.37,1.09-.81,1.09-1.33a9,9,0,0,0-.66-2.54q-.66-1.82-1.92-4.78l1.56-1.62,2.7,7.17a14.55,14.55,0,0,0,.69,1.63,4.68,4.68,0,0,0,.69,1,2,2,0,0,0,.77.54,2.59,2.59,0,0,0,.91.15h1v2.31Z"/><path class="cls-2" d="M502,1819.82a4.89,4.89,0,0,1-2.23-.45,3.14,3.14,0,0,1-1.4-1.53,3.88,3.88,0,0,1-1.48,1.5,4.67,4.67,0,0,1-2.24.48h-1.23a.6.6,0,0,1-.51-.33,1.54,1.54,0,0,1-.21-.84,1.48,1.48,0,0,1,.21-.83.6.6,0,0,1,.51-.31h1.23a3.51,3.51,0,0,0,2.18-.56,2.79,2.79,0,0,0,.79-2.11l0-1.14,1.68-.42a14.06,14.06,0,0,0,.12,2,3.16,3.16,0,0,0,.45,1.3,1.82,1.82,0,0,0,.92.71,4.53,4.53,0,0,0,1.51.21h1.17v2.31Zm-5.4,5.49-1.77-1.47,1.29-1.53,1.74,1.47Zm3.57,0-1.74-1.47,1.32-1.53,1.71,1.47Z"/><path class="cls-2" d="M525.31,1819.82a4.93,4.93,0,0,1-2.22-.45,3,3,0,0,1-1.38-1.56,3.45,3.45,0,0,1-3.21,2,3.15,3.15,0,0,1-1.75-.5,3.33,3.33,0,0,1-1.22-1.54,4,4,0,0,1-1.41,1.53,4.18,4.18,0,0,1-2.19.51,4.46,4.46,0,0,1-2.14-.44,3.18,3.18,0,0,1-1.31-1.57,3.65,3.65,0,0,1-3.39,2h-1.56a.6.6,0,0,1-.51-.33,1.54,1.54,0,0,1-.21-.84,1.48,1.48,0,0,1,.21-.83.6.6,0,0,1,.51-.31H505a3.35,3.35,0,0,0,1.95-.54,2.27,2.27,0,0,0,.84-1.89v-1.38l1.68-.42a14.06,14.06,0,0,0,.12,2,3.49,3.49,0,0,0,.42,1.3,1.72,1.72,0,0,0,.78.71,3,3,0,0,0,1.2.21,3,3,0,0,0,2.12-.63,3.13,3.13,0,0,0,.7-2.16v-1l1.68-.42a7.14,7.14,0,0,0,.54,3.27,1.8,1.8,0,0,0,1.68,1,2.39,2.39,0,0,0,1.56-.54,2.48,2.48,0,0,0,.72-1.89v-1.38l1.68-.42a12.91,12.91,0,0,0,.12,1.9,3.42,3.42,0,0,0,.45,1.32,1.93,1.93,0,0,0,.9.77,3.83,3.83,0,0,0,1.47.24h1.08v2.31Zm-11.1-9.45-1.74-1.47,1.29-1.53,1.74,1.47Zm1.38-3.51-1.68-1.38,1.26-1.5,1.65,1.44Zm2.22,3.51-1.74-1.47,1.29-1.53,1.74,1.47Z"/><path class="cls-2" d="M541.09,1819.82a4.44,4.44,0,0,1-1.44-.23,4.88,4.88,0,0,1-1.38-.78,15.39,15.39,0,0,1-1.62-1.48q-.9-.93-2.16-2.34a3.13,3.13,0,0,1-.09,1.17,3.76,3.76,0,0,1-1.78,2.68,6.78,6.78,0,0,1-3.74,1h-2.22a.6.6,0,0,1-.51-.33,1.54,1.54,0,0,1-.21-.84,1.48,1.48,0,0,1,.21-.83.6.6,0,0,1,.51-.31h2.43a5.06,5.06,0,0,0,2.94-.71,2.5,2.5,0,0,0,1.14-1.51,4,4,0,0,0-.39-1.41,7.63,7.63,0,0,0-1-1.49,18.83,18.83,0,0,0-1.62-1.72c-.65-.62-1.43-1.33-2.33-2.13a10.64,10.64,0,0,1,.27-1.74,1.38,1.38,0,0,1,.42-.72c.6-.4,1.33-.85,2.18-1.35s1.79-1,2.82-1.59,2.12-1.13,3.27-1.71,2.31-1.15,3.49-1.71l-.27,2.43c-1,.44-2,.9-3,1.39s-1.94,1-2.83,1.46-1.71.93-2.46,1.36-1.38.82-1.88,1.16c.68.6,1.38,1.26,2.09,2l2.13,2.22,2.1,2.24c.69.74,1.35,1.41,2,2a6.18,6.18,0,0,0,1.53,1.18,3.25,3.25,0,0,0,1.47.35h1.08v2.31Z"/><path class="cls-2" d="M546.13,1816.22a4.28,4.28,0,0,0-.36-1.28,10,10,0,0,0-1.23-2.11l1.53-1.62a8.06,8.06,0,0,1,1.41,2.46,7,7,0,0,1,.45,2.28,3.58,3.58,0,0,1-1.15,2.88,5.44,5.44,0,0,1-3.59,1h-.93a.6.6,0,0,1-.51-.33,1.54,1.54,0,0,1-.21-.84,1.48,1.48,0,0,1,.21-.83.6.6,0,0,1,.51-.31h1a6.26,6.26,0,0,0,2-.3Q546.13,1816.91,546.13,1816.22Zm-2.76,9.24-1.83-1.56,1.35-1.59,1.83,1.53Z"/><path class="cls-2" d="M562.54,1820.15a25.3,25.3,0,0,1-2.77-.15,17.48,17.48,0,0,1-2.69-.51l.42-2.43a14.68,14.68,0,0,0,6.33-4.38,16.11,16.11,0,0,0-1.9-2.64,28.07,28.07,0,0,0-2.49-2.51q-1.34-1.18-2.7-2.19a30.1,30.1,0,0,0-2.54-1.69l.36-2.4q1.11.66,2.49,1.65a30.3,30.3,0,0,1,2.76,2.25,32.78,32.78,0,0,1,2.66,2.73,22.08,22.08,0,0,1,2.23,3.06,9.08,9.08,0,0,0,.66-2.57,28.28,28.28,0,0,0,.15-3.07c0-.3,0-.67,0-1.11s0-.91,0-1.41,0-1-.05-1.55,0-1-.06-1.51l1.92-.9c0,.48,0,1,.05,1.57s0,1.13,0,1.67,0,1,0,1.5,0,.82,0,1.08a24.25,24.25,0,0,1-.37,4.51,11.34,11.34,0,0,1-1.25,3.5,13.14,13.14,0,0,1,.83,2,7,7,0,0,1,.31,2,3.06,3.06,0,0,1-1.08,2.58A5.4,5.4,0,0,1,562.54,1820.15Zm.18-2a4.72,4.72,0,0,0,1.91-.3,1.24,1.24,0,0,0,.76-.9,4.88,4.88,0,0,0-.22-1.43,9,9,0,0,0-.56-1.39,11.46,11.46,0,0,1-2.25,2.08,17.45,17.45,0,0,1-3.06,1.7,14.14,14.14,0,0,0,1.44.18Q561.52,1818.14,562.72,1818.14Z"/><path class="cls-2" d="M575.68,1819.82a4.11,4.11,0,0,1-2.23-.51,3.09,3.09,0,0,1-1.17-1.32,5.3,5.3,0,0,1-.45-1.86c-.05-.7-.09-1.41-.11-2.13,0-1-.06-2.13-.07-3.32s0-2.4-.06-3.64-.07-2.49-.11-3.74-.1-2.44-.18-3.58l1.92-.9q.09,2.43.12,4.35c0,1.28,0,2.48,0,3.6s0,2.19,0,3.21,0,2.08.06,3.18c0,.6,0,1.16.08,1.69a4.57,4.57,0,0,0,.27,1.38,2,2,0,0,0,.7.93,2.28,2.28,0,0,0,1.35.35h1v2.31Z"/><path class="cls-2" d="M580.69,1816.22a4.28,4.28,0,0,0-.36-1.28,10,10,0,0,0-1.23-2.11l1.53-1.62a8.06,8.06,0,0,1,1.41,2.46,7,7,0,0,1,.45,2.28,3.58,3.58,0,0,1-1.15,2.88,5.44,5.44,0,0,1-3.59,1h-.93a.6.6,0,0,1-.51-.33,1.54,1.54,0,0,1-.21-.84,1.48,1.48,0,0,1,.21-.83.6.6,0,0,1,.51-.31h1a6.26,6.26,0,0,0,2-.3Q580.69,1816.91,580.69,1816.22Zm-2.76,9.24-1.83-1.56,1.35-1.59,1.83,1.53Z"/><path class="cls-2" d="M592.63,1819.52l-1.92.45v-20.25l1.92-.9Z"/><path class="cls-2" d="M601.09,1817.24a5.75,5.75,0,0,1-.6,2.55,10.2,10.2,0,0,1-1.65,2.38,19.19,19.19,0,0,1-2.49,2.27q-1.44,1.11-3.09,2.22l-1.53-1.47a36.33,36.33,0,0,0,3.21-2.21,25.67,25.67,0,0,0,2.39-2.07,9.92,9.92,0,0,0,1.48-1.81,2.94,2.94,0,0,0,.51-1.47,3.24,3.24,0,0,0-.15-.9,8.54,8.54,0,0,0-.4-1.08,13,13,0,0,0-.6-1.17c-.23-.4-.48-.79-.74-1.17l1.53-1.53a12.15,12.15,0,0,1,1.62,2.92A7.48,7.48,0,0,1,601.09,1817.24Z"/><path class="cls-1" d="M100.29,449.61H86.23V429.18H100v2.92H89.65v5.73h9.19v2.82H89.65v6h10.64Z"/><path class="cls-1" d="M107.34,449.61h-3.26V429.18h3.76l9.1,14.39V429.18h3.28v20.43h-3L107.34,434Z"/><path class="cls-1" d="M133.92,450a9.53,9.53,0,0,1-7.21-2.89,12,12,0,0,1,.06-15.32,9.71,9.71,0,0,1,7.41-2.92,10,10,0,0,1,5.93,1.69,8.15,8.15,0,0,1,3.17,4.78l-3.36.58a5.49,5.49,0,0,0-5.74-4.1,6.17,6.17,0,0,0-4.91,2,8.36,8.36,0,0,0-1.77,5.64,8,8,0,0,0,1.84,5.46,6.21,6.21,0,0,0,4.87,2.08,6.57,6.57,0,0,0,4.4-1.44,4.56,4.56,0,0,0,1.72-3.62v-.7h-5.89v-2.7h9v11.05h-3.09v-2.53a7,7,0,0,1-2.73,2.14A8.94,8.94,0,0,1,133.92,450Z"/><path class="cls-1" d="M160.58,449.61H147.66V429.18h3.42v17.48h9.5Z"/><path class="cls-1" d="M166.94,449.61h-3.41V429.18h3.41Z"/><path class="cls-1" d="M178.81,450a9.3,9.3,0,0,1-6-1.78,6.1,6.1,0,0,1-2.28-4.9l3.42-.39a4.24,4.24,0,0,0,1.34,3.19,5.13,5.13,0,0,0,3.53,1.1,4.39,4.39,0,0,0,2.9-.88,2.87,2.87,0,0,0,1.06-2.35,2.38,2.38,0,0,0-.73-1.87,5.35,5.35,0,0,0-2.53-1l-2.69-.56q-5.69-1.17-5.69-5.87a5.19,5.19,0,0,1,2-4.1,7.66,7.66,0,0,1,5.2-1.7,8.18,8.18,0,0,1,5.29,1.6,6.08,6.08,0,0,1,2.26,4.36l-3.47.37c-.26-2.38-1.63-3.56-4.11-3.56a4.33,4.33,0,0,0-2.74.78,2.54,2.54,0,0,0-1,2.11,2.62,2.62,0,0,0,.7,1.94,4.21,4.21,0,0,0,2.24,1l3.13.61a8,8,0,0,1,4.26,1.94,5,5,0,0,1,1.4,3.69,5.82,5.82,0,0,1-2.08,4.53A7.89,7.89,0,0,1,178.81,450Z"/><path class="cls-1" d="M193.38,449.61H190V429.18h3.41v8.49h9.45v-8.49h3.42v20.43h-3.42v-9h-9.45Z"/><path class="cls-1" d="M220.82,449.61H217.4V429.18h3.42v8.49h9.45v-8.49h3.42v20.43h-3.42v-9h-9.45Z"/><path class="cls-1" d="M248,434.8a2.88,2.88,0,0,0-.87-2.19,3.17,3.17,0,0,0-2.29-.82,3.51,3.51,0,0,0-3,1.33A5.81,5.81,0,0,0,241,437l-3.31-.44a7.05,7.05,0,0,1,1.8-5.63,7.24,7.24,0,0,1,5.42-2.07,6.85,6.85,0,0,1,4.78,1.64,5.41,5.41,0,0,1,1.79,4.22,7.37,7.37,0,0,1-1.07,3.74,16.82,16.82,0,0,1-3.39,3.94l-4.88,4.34h10v2.89H237.57v-2.86l7.27-6.5a11.66,11.66,0,0,0,2.41-2.77A5.36,5.36,0,0,0,248,434.8Z"/><path class="cls-1" d="M262.09,443.07h-7.65v-2.82h7.65Z"/><path class="cls-1" d="M269.76,449.61h-3.42V429.18h3.42v8.49h9.44v-8.49h3.42v20.43H279.2v-9h-9.44Z"/><path class="cls-1" d="M301.51,449.61H287.45V429.18h13.77v2.92H290.87v5.73h9.19v2.82h-9.19v6h10.64Z"/><path class="cls-1" d="M317,445.1h-8.63l-1.67,4.51h-3.43L311,429.18h3.71l7.65,20.43h-3.68Zm-7.58-2.84H316l-3.25-9Z"/><path class="cls-1" d="M333.5,449.61h-8.32V429.18h8.32a10,10,0,0,1,7.38,2.7,9.57,9.57,0,0,1,2.74,7.23,10.52,10.52,0,0,1-2.77,7.61A9.68,9.68,0,0,1,333.5,449.61Zm6.66-10.5a7.08,7.08,0,0,0-1.81-5.08,6.41,6.41,0,0,0-4.85-1.9h-4.9v14.53h4.9a6.11,6.11,0,0,0,4.85-2.06A8.07,8.07,0,0,0,340.16,439.11Z"/><path class="cls-1" d="M350.86,449.61h-3.42V429.18h3.42Z"/><path class="cls-1" d="M359,449.61h-3.27V429.18h3.77l9.1,14.39V429.18h3.27v20.43h-3L359,434Z"/><path class="cls-1" d="M385.53,450a9.51,9.51,0,0,1-7.21-2.89,12,12,0,0,1,.06-15.32,9.71,9.71,0,0,1,7.41-2.92,10,10,0,0,1,5.93,1.69,8.15,8.15,0,0,1,3.17,4.78l-3.36.58a5.5,5.5,0,0,0-5.74-4.1,6.17,6.17,0,0,0-4.91,2,8.36,8.36,0,0,0-1.78,5.64,8,8,0,0,0,1.84,5.46,6.24,6.24,0,0,0,4.87,2.08,6.58,6.58,0,0,0,4.41-1.44,4.59,4.59,0,0,0,1.72-3.62v-.7H386v-2.7h9v11.05H392v-2.53a7,7,0,0,1-2.74,2.14A8.9,8.9,0,0,1,385.53,450Z"/><path class="cls-1" d="M95.1,485a9.49,9.49,0,0,1-7.2-2.89,12,12,0,0,1,0-15.32,9.72,9.72,0,0,1,7.41-2.92,10,10,0,0,1,5.93,1.69,8.1,8.1,0,0,1,3.17,4.78l-3.36.58a5.49,5.49,0,0,0-5.74-4.1,6.15,6.15,0,0,0-4.91,2.05,8.36,8.36,0,0,0-1.77,5.64A8,8,0,0,0,90.52,480,6.21,6.21,0,0,0,95.39,482a6.57,6.57,0,0,0,4.4-1.44,4.56,4.56,0,0,0,1.72-3.62v-.7H95.62v-2.7h9v11.05h-3.09v-2.53a7,7,0,0,1-2.73,2.14A8.94,8.94,0,0,1,95.1,485Z"/><path class="cls-1" d="M127.46,474.41a10.84,10.84,0,0,1-2.7,7.68,10.3,10.3,0,0,1-14.31,0,12.31,12.31,0,0,1,0-15.35,10.26,10.26,0,0,1,14.28,0A10.73,10.73,0,0,1,127.46,474.41ZM113,468.84A10,10,0,0,0,113,480a6.32,6.32,0,0,0,9.3,0,10,10,0,0,0,0-11.15,6.32,6.32,0,0,0-9.3,0Z"/><path class="cls-1" d="M145.32,484.62H131.26V464.19H145v2.92H134.68v5.73h9.19v2.82h-9.19v6h10.64Z"/><path class="cls-1" d="M156.15,485a9.33,9.33,0,0,1-6-1.78,6.1,6.1,0,0,1-2.28-4.9l3.42-.39a4.28,4.28,0,0,0,1.34,3.19,5.18,5.18,0,0,0,3.54,1.1,4.36,4.36,0,0,0,2.89-.88,2.88,2.88,0,0,0,1.07-2.35,2.41,2.41,0,0,0-.73-1.87,5.4,5.4,0,0,0-2.54-1l-2.69-.56q-5.68-1.17-5.68-5.87a5.19,5.19,0,0,1,2-4.1,7.64,7.64,0,0,1,5.2-1.7,8.17,8.17,0,0,1,5.28,1.6,6.07,6.07,0,0,1,2.27,4.36l-3.48.37c-.25-2.38-1.62-3.56-4.1-3.56a4.32,4.32,0,0,0-2.74.78,2.54,2.54,0,0,0-1,2.11,2.66,2.66,0,0,0,.69,1.94,4.29,4.29,0,0,0,2.24,1L158,473a8,8,0,0,1,4.25,1.94,5,5,0,0,1,1.4,3.69,5.78,5.78,0,0,1-2.08,4.53A7.87,7.87,0,0,1,156.15,485Z"/><path class="cls-1" d="M177,484.62h-3.41V464.19H177v8.49h9.45v-8.49h3.42v20.43h-3.42v-9H177Z"/><path class="cls-1" d="M208.8,484.62H194.74V464.19h13.77v2.92H198.16v5.73h9.19v2.82h-9.19v6H208.8Z"/><path class="cls-1" d="M227.84,479.42l.3,5.2h-3.42l-.29-5.2a2.45,2.45,0,0,0-.94-1.94,4.5,4.5,0,0,0-2.64-.62H216v7.76h-3.42V464.19h8.49a7.68,7.68,0,0,1,5.1,1.61,5,5,0,0,1,2,4.09,5.83,5.83,0,0,1-.86,3.13,6,6,0,0,1-2.41,2.21A4.2,4.2,0,0,1,227.84,479.42Zm-3.17-9.19a2.82,2.82,0,0,0-1-2.29,4.26,4.26,0,0,0-2.82-.85H216v7h4.81a3.74,3.74,0,0,0,2.79-1.06A3.69,3.69,0,0,0,224.67,470.23Z"/><path class="cls-1" d="M246.42,484.62H232.36V464.19h13.78v2.92H235.78v5.73H245v2.82h-9.19v6h10.64Z"/><path class="cls-1" d="M88.56,250h14v4.93H98.25v33.36h14.9a2.12,2.12,0,0,0,.91-.21,3.11,3.11,0,0,0,.83-.56,2.67,2.67,0,0,0,.6-.78,1.94,1.94,0,0,0,.23-.9V280.4h5.41v12.79H88.56v-4.9h4.11V254.93H88.56Z"/><path class="cls-1" d="M144.18,294.05a19.74,19.74,0,0,1-8.18-1.67,20.7,20.7,0,0,1-11-12,25.63,25.63,0,0,1-1.51-8.74,24.93,24.93,0,0,1,1.52-8.78,22.07,22.07,0,0,1,4.27-7.14,20.18,20.18,0,0,1,6.56-4.78,20.94,20.94,0,0,1,16.76,0,20,20,0,0,1,6.56,4.78,21.83,21.83,0,0,1,4.24,7.14,26.14,26.14,0,0,1,0,17.54,22,22,0,0,1-4.28,7.13,19.66,19.66,0,0,1-14.91,6.56Zm0-5.3a13.37,13.37,0,0,0,6.14-1.4,14.73,14.73,0,0,0,4.69-3.74,17.38,17.38,0,0,0,3-5.46,20.9,20.9,0,0,0-.1-13.38,16.13,16.13,0,0,0-3.22-5.57,14.61,14.61,0,0,0-4.8-3.52,13.8,13.8,0,0,0-5.7-1.24,13.44,13.44,0,0,0-6.15,1.4,14.49,14.49,0,0,0-4.71,3.75,17.22,17.22,0,0,0-3,5.47,21.55,21.55,0,0,0,.12,13.65,15.51,15.51,0,0,0,3.09,5.18,16.9,16.9,0,0,0,4.58,3.46A12.89,12.89,0,0,0,144.18,288.75Z"/><path class="cls-1" d="M197.71,250h14v4.93h-3.67v38.26h-7.3l-20.08-35.81v30.91h4.44v4.9h-14v-4.9h4V254.93H171v-5h11.62l19.72,35.47.23-1.36V254.93h-4.85Z"/><path class="cls-1" d="M250.59,293.36V284.7a14.68,14.68,0,0,1-2.7,3.92,15.2,15.2,0,0,1-3.62,2.75A17.36,17.36,0,0,1,240,293a19.75,19.75,0,0,1-4.6.54,20.94,20.94,0,0,1-7.78-1.41,17.8,17.8,0,0,1-6.45-4.48,20.93,20.93,0,0,1-4.42-7.3,25.57,25.57,0,0,1-1.52-8.8,24.76,24.76,0,0,1,1.52-8.72,22.12,22.12,0,0,1,4.27-7.15,19.93,19.93,0,0,1,6.56-4.79,19.7,19.7,0,0,1,8.25-1.73,19.35,19.35,0,0,1,7,1.16,19.91,19.91,0,0,1,5,2.84,22.64,22.64,0,0,1,3.35,3.18H254v5.07h-6.12a14.3,14.3,0,0,0-5.06-5.13,14.07,14.07,0,0,0-13.06-.43,14.65,14.65,0,0,0-4.69,3.76,17.94,17.94,0,0,0-3,5.44,19.49,19.49,0,0,0-1.08,6.5,20.17,20.17,0,0,0,1.2,7,15.81,15.81,0,0,0,3.05,5.27,15.12,15.12,0,0,0,4.57,3.35,13.61,13.61,0,0,0,6,1.32,14.46,14.46,0,0,0,9-2.66q3.51-2.67,4.9-8.31H237.63v-4.9h18.26v20.71Z"/><path class="cls-1" d="M308.32,250h14v4.9h-4.1v33.39h4.1v4.9h-14v-4.9h4.33V272.76h-25v15.53H292v4.9H278v-4.9h4.11V254.9H278V250h14v4.9h-4.33V268h25V254.9h-4.33Z"/><path class="cls-1" d="M333.3,288.29h4.19V256.7l-8.74,4.75V255.5l12-6.73h2.28v39.52h4.24v4.9h-14Z"/><path class="cls-1" d="M398,250h14v4.9H408v33.39h4.1v4.9H398v-4.9h4.33V272.76h-25v15.53h4.33v4.9h-14v-4.9h4.11V254.9h-4.11V250h14v4.9h-4.33V268h25V254.9H398Z"/><path class="cls-1" d="M420.2,250h30.94v12.22H445.3v-7.29H429.89v13.82h13v4.9h-13v14.64H445.3V281h5.84v12.19H420.2v-4.9h4.1V254.93h-4.1Z"/><path class="cls-1" d="M482.4,288.29H486l-3.42-9.8H466l-3.33,9.8h4.44v4.9h-14v-4.9h3.76L470.26,250h8.41l13.42,38.29h4.33v4.9h-14Zm-14.82-14.53h13.34l-6.73-19.32Z"/><path class="cls-1" d="M500.78,250h16.06a20.39,20.39,0,0,1,10.63,2.93,20.72,20.72,0,0,1,7.4,7.7,21.77,21.77,0,0,1,2,5.14,22.45,22.45,0,0,1,.71,5.71,22.91,22.91,0,0,1-.71,5.79,22.24,22.24,0,0,1-2,5.18,21.23,21.23,0,0,1-3.21,4.4,20.29,20.29,0,0,1-9.17,5.57,20.13,20.13,0,0,1-5.65.77H500.78v-4.9h4.1V254.93h-4.1Zm9.68,4.93v33.36h6.73a12.35,12.35,0,0,0,5.62-1.31,14.61,14.61,0,0,0,4.6-3.57,17,17,0,0,0,3.11-5.33,18.76,18.76,0,0,0,1.14-6.6,18.23,18.23,0,0,0-1.14-6.49,16.69,16.69,0,0,0-3.11-5.26,14.6,14.6,0,0,0-4.6-3.52,12.72,12.72,0,0,0-5.62-1.28Z"/><path class="cls-1" d="M543.71,250H557.5v4.93h-4.1v33.36h4.1v4.9H543.71v-4.9h4.1V254.93h-4.1Z"/><path class="cls-1" d="M592.37,250h14v4.93h-3.67v38.26h-7.3l-20.08-35.81v30.91h4.44v4.9h-14v-4.9h4V254.93h-4.1v-5h11.62L597,285.41l.23-1.36V254.93h-4.85Z"/><path class="cls-1" d="M645.25,293.36V284.7a14.68,14.68,0,0,1-2.7,3.92,15.2,15.2,0,0,1-3.62,2.75,17.36,17.36,0,0,1-4.26,1.62,19.75,19.75,0,0,1-4.6.54,20.94,20.94,0,0,1-7.78-1.41,17.8,17.8,0,0,1-6.45-4.48,20.93,20.93,0,0,1-4.42-7.3,25.57,25.57,0,0,1-1.52-8.8,24.76,24.76,0,0,1,1.52-8.72,22.12,22.12,0,0,1,4.27-7.15,19.93,19.93,0,0,1,6.56-4.79,19.7,19.7,0,0,1,8.25-1.73,19.35,19.35,0,0,1,7,1.16,19.91,19.91,0,0,1,5,2.84,22.64,22.64,0,0,1,3.35,3.18h2.76v5.07h-6.12a14.3,14.3,0,0,0-5.06-5.13,14.07,14.07,0,0,0-13.06-.43,14.65,14.65,0,0,0-4.69,3.76,17.94,17.94,0,0,0-3,5.44,19.49,19.49,0,0,0-1.08,6.5,20.17,20.17,0,0,0,1.2,7,15.81,15.81,0,0,0,3,5.27,15.12,15.12,0,0,0,4.57,3.35,13.61,13.61,0,0,0,6,1.32,14.46,14.46,0,0,0,9-2.66q3.51-2.67,4.9-8.31H632.29v-4.9h18.26v20.71Z"/><path class="cls-1" d="M121.9,363.38v-8.66a14.48,14.48,0,0,1-2.71,3.92,15,15,0,0,1-3.62,2.75,17.36,17.36,0,0,1-4.26,1.62,19.75,19.75,0,0,1-4.6.54,20.89,20.89,0,0,1-7.77-1.41,17.84,17.84,0,0,1-6.46-4.48,20.76,20.76,0,0,1-4.41-7.3,25.58,25.58,0,0,1-1.53-8.8,24.76,24.76,0,0,1,1.53-8.72,21.94,21.94,0,0,1,4.27-7.15,19.62,19.62,0,0,1,14.8-6.52,19.28,19.28,0,0,1,7,1.16,19.8,19.8,0,0,1,5,2.84,22.52,22.52,0,0,1,3.34,3.18h2.77v5.07h-6.13a14.22,14.22,0,0,0-5.06-5.13,14.07,14.07,0,0,0-13.06-.43,14.76,14.76,0,0,0-4.69,3.76,17.71,17.71,0,0,0-3,5.44,19.49,19.49,0,0,0-1.08,6.5,20.4,20.4,0,0,0,1.19,7,16,16,0,0,0,3.05,5.27,15.24,15.24,0,0,0,4.57,3.35,13.67,13.67,0,0,0,6,1.32,14.47,14.47,0,0,0,9-2.66q3.5-2.67,4.9-8.31H108.94v-4.9H127.2v20.71Z"/><path class="cls-1" d="M155.21,364.07A19.71,19.71,0,0,1,147,362.4a20.76,20.76,0,0,1-11-12,25.87,25.87,0,0,1-1.51-8.74,24.94,24.94,0,0,1,1.53-8.78,21.9,21.9,0,0,1,4.27-7.14,20.14,20.14,0,0,1,6.55-4.78,20.19,20.19,0,0,1,23.32,4.78,21.85,21.85,0,0,1,4.25,7.14,25.16,25.16,0,0,1,1.51,8.78,24.82,24.82,0,0,1-1.53,8.76,22,22,0,0,1-4.27,7.13,19.66,19.66,0,0,1-14.91,6.56Zm0-5.3a13.4,13.4,0,0,0,6.14-1.4,14.58,14.58,0,0,0,4.68-3.74,17.19,17.19,0,0,0,3-5.46,20,20,0,0,0,1.06-6.55,20.5,20.5,0,0,0-1.16-6.83,16.13,16.13,0,0,0-3.22-5.57,14.41,14.41,0,0,0-4.8-3.52,13.72,13.72,0,0,0-5.69-1.24,13.45,13.45,0,0,0-6.16,1.4,14.45,14.45,0,0,0-4.7,3.75,17,17,0,0,0-3,5.47,20.37,20.37,0,0,0-1.06,6.54,20.15,20.15,0,0,0,1.17,7.11,15.51,15.51,0,0,0,3.09,5.18,17.11,17.11,0,0,0,4.59,3.46A12.86,12.86,0,0,0,155.21,358.77Z"/><path class="cls-1" d="M182,320H213v12.22h-5.84V325H191.7v13.82h13v4.9h-13v14.64h15.42V351H213v12.19H182v-4.9h4.1V325H182Z"/><path class="cls-1" d="M239.88,328a7.15,7.15,0,0,0-2-1.93,9.53,9.53,0,0,0-2.4-1,9.92,9.92,0,0,0-2.63-.36,13.09,13.09,0,0,0-3.79.5,8.17,8.17,0,0,0-2.69,1.35,5.68,5.68,0,0,0-1.61,2,5.53,5.53,0,0,0-.54,2.39,6,6,0,0,0,.67,3,5.61,5.61,0,0,0,1.7,1.85,9,9,0,0,0,2.26,1.1c.83.26,1.62.53,2.38.79l5.76,1.88a28.89,28.89,0,0,1,4.57,1.88,12.8,12.8,0,0,1,3.32,2.5,9.74,9.74,0,0,1,2,3.32,12.35,12.35,0,0,1,.7,4.36,11.28,11.28,0,0,1-1.09,5,12.16,12.16,0,0,1-3.07,4,14.61,14.61,0,0,1-4.68,2.64,18.14,18.14,0,0,1-6,.95,19,19,0,0,1-5.7-.75,12.61,12.61,0,0,1-4-2,10.49,10.49,0,0,1-2.57-2.9,15.48,15.48,0,0,1-1.51-3.33h-2.17v-4.9H224a10.56,10.56,0,0,0,.67,4.47,6.05,6.05,0,0,0,1.87,2.18,8.35,8.35,0,0,0,2.84,1.31,13.94,13.94,0,0,0,3.65.44,12.51,12.51,0,0,0,3.49-.45,7.59,7.59,0,0,0,2.65-1.33,5.88,5.88,0,0,0,1.68-2.1,6.54,6.54,0,0,0,.59-2.81,5.68,5.68,0,0,0-.73-2.95,7.11,7.11,0,0,0-1.87-2.07,10.82,10.82,0,0,0-2.49-1.39c-.9-.36-1.77-.68-2.61-.94l-6.24-1.77a18.87,18.87,0,0,1-3.74-1.59,11.28,11.28,0,0,1-2.91-2.37,9.8,9.8,0,0,1-1.86-3.26,12.9,12.9,0,0,1-.66-4.32,11.15,11.15,0,0,1,1-4.64,10.66,10.66,0,0,1,2.85-3.79,13.79,13.79,0,0,1,4.6-2.55,19.19,19.19,0,0,1,6.22-.93,15.92,15.92,0,0,1,4.26.54,13.63,13.63,0,0,1,3.54,1.53,12.39,12.39,0,0,1,2.79,2.36,14.44,14.44,0,0,1,2,3h2.13v4.9h-7A6.36,6.36,0,0,0,239.88,328Z"/><path class="cls-1" d="M296.24,320h14v4.9h-4.1v33.39h4.1v4.9h-14v-4.9h4.33V342.78h-25v15.53h4.33v4.9h-14v-4.9H270V324.92h-4.11V320h14v4.9h-4.33V338h25V324.92h-4.33Z"/><path class="cls-1" d="M318.4,320h30.94v12.22H343.5V325H328.09v13.82h13v4.9h-13v14.64H343.5V351h5.84v12.19H318.4v-4.9h4.11V325H318.4Z"/><path class="cls-1" d="M355,320h18a17.61,17.61,0,0,1,5.31.76,12.15,12.15,0,0,1,4.22,2.22,10.13,10.13,0,0,1,2.78,3.66,12.12,12.12,0,0,1,1,5,9.24,9.24,0,0,1-.59,3.21,11.21,11.21,0,0,1-1.62,2.93,12.55,12.55,0,0,1-2.47,2.41,11.32,11.32,0,0,1-3.1,1.62,6.78,6.78,0,0,1,1.44.9,8,8,0,0,1,1.36,1.42,11.85,11.85,0,0,1,1.17,1.91,12.08,12.08,0,0,1,.84,2.3l2.4,9.4h3.73l.06,5.41h-8.41l-3.22-13.13a10.26,10.26,0,0,0-2.69-5.2,7,7,0,0,0-4.94-1.67h-5.56v15.1h4.33v4.9H355v-4.9h4.11V325H355Zm9.69,4.93v13.59H373a9.71,9.71,0,0,0,3-.43,6.36,6.36,0,0,0,2.33-1.28,5.89,5.89,0,0,0,1.54-2.12,7.32,7.32,0,0,0,.56-2.95,6.52,6.52,0,0,0-1.94-5q-1.94-1.78-6.15-1.79Z"/><path class="cls-1" d="M396.58,320h30.94v12.22h-5.84V325H406.27v13.82h13v4.9h-13v14.64h15.41V351h5.84v12.19H396.58v-4.9h4.11V325h-4.11Z"/><rect class="cls-1" x="86.53" y="404.25" width="43.2" height="4.32"/><rect class="cls-3" y="249.5" width="1080" height="1"/><rect class="cls-4" y="1669.5" width="1080" height="1"/><rect class="cls-5" x="85.9" width="1" height="1919.91"/><rect class="cls-6" x="993.07" width="1" height="1919.91"/><rect class="cls-7" x="993.13" width="1" height="1080"/><rect class="cls-8" x="993.58" y="916.82" width="86.37" height="21.59"/><rect class="cls-8" x="993.58" y="981.59" width="86.37" height="21.59"/><rect class="cls-8" x="989.72" y="949.22" width="94.13" height="21.59" transform="translate(-373.81 877.65) rotate(-39.46)"/><rect class="cls-8" x="3.42" y="916.82" width="86.37" height="21.59"/><rect class="cls-8" x="3.42" y="981.59" width="86.37" height="21.59"/><rect class="cls-8" x="-0.44" y="949.22" width="94.13" height="21.59" transform="translate(-599.46 248.41) rotate(-39.46)"/><circle class="cls-1" cx="75.95" cy="95.51" r="45.07"/><polygon class="cls-2" points="48.38 74 48.38 77.43 57.54 77.43 46.62 94.54 62.07 94.54 62.07 91.12 52.87 91.12 63.78 74 48.38 74"/><polygon class="cls-2" points="67.25 94.54 80.89 94.54 80.89 91.12 70.66 91.12 70.65 85.98 80.89 85.98 80.89 82.56 70.64 82.56 70.63 77.43 80.89 77.43 80.89 74 67.2 74 67.25 94.54"/><polygon class="cls-2" points="99.72 91.12 89.45 91.12 89.45 85.98 99.72 85.98 99.72 82.56 89.45 82.56 89.45 77.43 99.72 77.43 99.72 74 86.03 74 86.03 94.54 99.72 94.54 99.72 91.12"/><polygon class="cls-2" points="67.2 120.21 80.89 120.21 80.89 116.79 70.62 116.79 70.62 111.65 80.89 111.65 80.89 108.23 70.62 108.23 70.62 103.1 80.89 103.1 80.89 99.67 67.2 99.67 67.2 120.21"/><polygon class="cls-2" points="98 99.67 98 113.54 89.3 99.67 86.03 99.67 86.03 120.21 89.45 120.21 89.45 106.34 98.15 120.21 101.43 120.21 101.43 99.67 98 99.67"/><path class="cls-1" d="M179.3,82.59l-16.9,22.89h17.47v3.4H157.58v-3.12l16.88-22.88H158.11V79.47H179.3Z"/><path class="cls-1" d="M205.22,108.88H185V79.47h19.79v3.45H189.06v9.33h14.07v3.36H189.06v9.83h16.16Z"/><path class="cls-1" d="M231.24,108.88H211V79.47h19.79v3.45H215.08v9.33h14.07v3.36H215.08v9.83h16.16Z"/><path class="cls-1" d="M257.27,108.88h-20.2V79.47h19.79v3.45H241.11v9.33h14.06v3.36H241.11v9.83h16.16Z"/><path class="cls-1" d="M266.93,108.88h-3.84V79.47h4.53l14.09,22.32V79.47h3.82v29.41H282L266.93,85Z"/><path class="cls-1" d="M302.73,109.39q-5.31,0-8.43-2.56a8.92,8.92,0,0,1-3.2-7l4-.52a6.77,6.77,0,0,0,2.12,5,8.18,8.18,0,0,0,5.55,1.73,6.83,6.83,0,0,0,4.57-1.42,4.79,4.79,0,0,0,1.67-3.83,3.9,3.9,0,0,0-1.17-3,8.77,8.77,0,0,0-4-1.69l-3.92-.85a11.35,11.35,0,0,1-5.94-2.89,7.79,7.79,0,0,1,.81-11A10.55,10.55,0,0,1,301.85,79a11.28,11.28,0,0,1,7.39,2.26,8.81,8.81,0,0,1,3.15,6.27l-4,.49q-.69-5.7-6.56-5.7a6.74,6.74,0,0,0-4.36,1.26,4.67,4.67,0,0,0-.42,6.52,7.27,7.27,0,0,0,3.65,1.66l4.58,1a11.28,11.28,0,0,1,5.82,2.75,7.07,7.07,0,0,1,1.87,5.15,8.06,8.06,0,0,1-2.81,6.29A10.92,10.92,0,0,1,302.73,109.39Z"/><path class="cls-1" d="M322.77,108.88h-4V79.47h4v12.7h14.74V79.47h4v29.41h-4V95.65H322.77Z"/><path class="cls-1" d="M375.25,94.18q0,6.93-3.82,11a14.39,14.39,0,0,1-20.24,0q-3.79-4.16-3.79-11t3.79-11a14.44,14.44,0,0,1,20.28,0C374,85.87,375.25,89.54,375.25,94.18Zm-21.14-8.56c-1.75,2.09-2.63,4.95-2.63,8.56s.88,6.46,2.63,8.57a9.77,9.77,0,0,0,14.39,0,13,13,0,0,0,2.65-8.57c0-3.61-.88-6.47-2.64-8.56a9.8,9.8,0,0,0-14.4,0Z"/><path class="cls-1" d="M385.15,108.88h-4V79.47h11.61a10.5,10.5,0,0,1,7.38,2.61,8.55,8.55,0,0,1,2.85,6.6,9.47,9.47,0,0,1-2.89,7.06,10.06,10.06,0,0,1-7.34,2.81h-7.57Zm13.74-20.2a5.38,5.38,0,0,0-1.8-4.17,6.69,6.69,0,0,0-4.68-1.63h-7.26V95.14h7.26a6.14,6.14,0,0,0,6.48-6.46Z"/><path class="cls-1" d="M449.63,87.29a4.65,4.65,0,0,0-1.4-3.54,5.23,5.23,0,0,0-3.73-1.32,5.68,5.68,0,0,0-4.75,2c-1.06,1.34-1.56,3.32-1.5,5.91l-3.86-.51q-.3-5,2.52-7.94A10.06,10.06,0,0,1,444.5,79a9.34,9.34,0,0,1,6.69,2.3,7.93,7.93,0,0,1,2.48,6,10.59,10.59,0,0,1-1.5,5.29,25.21,25.21,0,0,1-4.84,5.72l-7.85,7.22h14.95v3.36H434.27v-3.44l10.58-9.7a18.64,18.64,0,0,0,3.7-4.33A8.31,8.31,0,0,0,449.63,87.29Z"/><path class="cls-1" d="M477.58,95.26v13.62h-3.73V95.94a5.64,5.64,0,0,0-1.28-4,4.78,4.78,0,0,0-3.68-1.38,5.19,5.19,0,0,0-4.19,1.7,7.6,7.6,0,0,0-1.43,5v11.59h-3.74V79.47h3.74v11a7.31,7.31,0,0,1,6.46-3.08,7.74,7.74,0,0,1,5.76,2.12A7.89,7.89,0,0,1,477.58,95.26Z"/><path class="cls-8" d="M857.32,120.16a3.3,3.3,0,0,0-1-2.52,3.72,3.72,0,0,0-2.66-1,4.06,4.06,0,0,0-3.39,1.44,6.57,6.57,0,0,0-1.07,4.23l-2.76-.37a6.8,6.8,0,0,1,7.22-7.76,6.67,6.67,0,0,1,4.78,1.64,5.67,5.67,0,0,1,1.77,4.29,7.49,7.49,0,0,1-1.07,3.78,17.89,17.89,0,0,1-3.45,4.09l-5.62,5.16h10.68v2.4h-14.4v-2.46l7.56-6.93a13.33,13.33,0,0,0,2.65-3.09A6,6,0,0,0,857.32,120.16Z"/><path class="cls-8" d="M871.67,122.14a6.55,6.55,0,0,1,4.82,1.77,6.25,6.25,0,0,1,1.79,4.66,6.86,6.86,0,0,1-7.41,7.38,8.53,8.53,0,0,1-5.07-1.4,5.9,5.9,0,0,1-2.43-3.94l2.88-.4a4.05,4.05,0,0,0,1.5,2.53,5,5,0,0,0,3,.87,4.5,4.5,0,0,0,3.43-1.28,5.1,5.1,0,0,0,1.21-3.64,4.37,4.37,0,0,0-1.08-3.14,4,4,0,0,0-3-1.12,5.74,5.74,0,0,0-2.57.6,5.44,5.44,0,0,0-2,1.62l-2.49-.93,1.6-11.14h10.88V117h-8.6l-1,6.79A6.79,6.79,0,0,1,871.67,122.14Z"/><path class="cls-8" d="M881.32,125.09a13.57,13.57,0,0,1,2.07-8,7.24,7.24,0,0,1,11.59,0q2.09,2.87,2.09,8c0,3.36-.7,6-2.09,7.95a7.27,7.27,0,0,1-11.6,0C882,131.17,881.32,128.5,881.32,125.09Zm11.58,6.26a12.28,12.28,0,0,0,1.32-6.26,12.36,12.36,0,0,0-1.31-6.26,4.21,4.21,0,0,0-7.42,0,12.3,12.3,0,0,0-1.32,6.21,12.46,12.46,0,0,0,1.29,6.26,4.25,4.25,0,0,0,7.44,0Z"/><path class="cls-8" d="M908.53,120.22a6.19,6.19,0,0,1,4.87,2.14,8.19,8.19,0,0,1,1.84,5.61,8.68,8.68,0,0,1-1.84,5.79,6,6,0,0,1-4.87,2.19,5.73,5.73,0,0,1-4.87-2.43v7.62H901V120.59h2.6v2.25A5.68,5.68,0,0,1,908.53,120.22Zm4,7.87A6.44,6.44,0,0,0,911.3,124a3.79,3.79,0,0,0-3.17-1.51,4,4,0,0,0-3.29,1.53,6.27,6.27,0,0,0-1.24,4,6.17,6.17,0,0,0,1.25,4,4,4,0,0,0,3.28,1.53,3.79,3.79,0,0,0,3.17-1.51A6.35,6.35,0,0,0,912.48,128.09Z"/><path class="cls-8" d="M916.25,135.59l5.64-7.62-5.37-7.38h3.07l4,5.49,4.09-5.49h3l-5.48,7.35,5.67,7.65h-3.12l-4.21-5.73-4.23,5.73Z"/><rect class="cls-8" x="879.06" y="155.27" width="3" height="93.23"/><rect class="cls-8" x="870.81" y="247" width="19.5" height="3"/><rect class="cls-8" x="879.06" y="1.5" width="3" height="93.23"/><rect class="cls-8" x="870.81" width="19.5" height="3"/><path class="cls-8" d="M857.32,1790.16a3.3,3.3,0,0,0-1-2.52,3.72,3.72,0,0,0-2.66-1,4.06,4.06,0,0,0-3.39,1.44,6.57,6.57,0,0,0-1.07,4.23l-2.76-.37a6.8,6.8,0,0,1,7.22-7.76,6.67,6.67,0,0,1,4.78,1.64,5.67,5.67,0,0,1,1.77,4.29,7.49,7.49,0,0,1-1.07,3.78,18.1,18.1,0,0,1-3.45,4.09l-5.62,5.16h10.68v2.4h-14.4v-2.46l7.56-6.93a13.33,13.33,0,0,0,2.65-3.09A6,6,0,0,0,857.32,1790.16Z"/><path class="cls-8" d="M871.67,1792.14a6.55,6.55,0,0,1,4.82,1.77,6.25,6.25,0,0,1,1.79,4.66,6.86,6.86,0,0,1-7.41,7.38,8.53,8.53,0,0,1-5.07-1.4,5.9,5.9,0,0,1-2.43-3.94l2.88-.4a4.05,4.05,0,0,0,1.5,2.53,5,5,0,0,0,3,.87,4.5,4.5,0,0,0,3.43-1.28,5.1,5.1,0,0,0,1.21-3.64,4.37,4.37,0,0,0-1.08-3.14,4,4,0,0,0-3-1.12,5.74,5.74,0,0,0-2.57.6,5.44,5.44,0,0,0-2,1.62l-2.49-.94,1.6-11.13h10.88v2.4h-8.6l-1,6.79A6.79,6.79,0,0,1,871.67,1792.14Z"/><path class="cls-8" d="M881.32,1795.08a13.56,13.56,0,0,1,2.07-7.95,7.24,7.24,0,0,1,11.59,0q2.09,2.86,2.09,7.95c0,3.37-.7,6-2.09,8a7.27,7.27,0,0,1-11.6,0Q881.33,1800.22,881.32,1795.08Zm11.58,6.27a15.56,15.56,0,0,0,0-12.52,4.21,4.21,0,0,0-7.42.05,12.29,12.29,0,0,0-1.32,6.2,12.48,12.48,0,0,0,1.29,6.27,4.25,4.25,0,0,0,7.44,0Z"/><path class="cls-8" d="M908.53,1790.22a6.16,6.16,0,0,1,4.87,2.14,8.19,8.19,0,0,1,1.84,5.61,8.68,8.68,0,0,1-1.84,5.79,6,6,0,0,1-4.87,2.19,5.73,5.73,0,0,1-4.87-2.43v7.62H901v-20.55h2.6v2.25A5.68,5.68,0,0,1,908.53,1790.22Zm4,7.87a6.44,6.44,0,0,0-1.18-4.07,3.79,3.79,0,0,0-3.17-1.51,4,4,0,0,0-3.29,1.53,6.27,6.27,0,0,0-1.24,4,6.17,6.17,0,0,0,1.25,4,4,4,0,0,0,3.28,1.53,3.79,3.79,0,0,0,3.17-1.51A6.35,6.35,0,0,0,912.48,1798.09Z"/><path class="cls-8" d="M916.25,1805.59l5.64-7.62-5.37-7.38h3.07l4,5.49,4.09-5.49h3l-5.48,7.35,5.67,7.65h-3.12l-4.21-5.73-4.23,5.73Z"/><rect class="cls-8" x="879.06" y="1825.27" width="3" height="93.23"/><rect class="cls-8" x="870.81" y="1917" width="19.5" height="3"/><rect class="cls-8" x="879.06" y="1671.5" width="3" height="93.23"/><rect class="cls-8" x="870.81" y="1670" width="19.5" height="3"/></g></svg>