<svg xmlns="http://www.w3.org/2000/svg" viewBox="0 0 1080 1080"><defs><style>.cls-1{fill:#fff;}</style></defs><g id="Layer_1" data-name="Layer 1"><circle class="cls-1" cx="540" cy="542.36" r="510.84"/><polygon points="540 104.12 249.42 382.22 249.42 874.25 540 874.25 830.58 874.25 830.58 382.22 540 104.12"/><path class="cls-1" d="M724.76,529.33a20.56,20.56,0,1,0-20.56-20.55,20.55,20.55,0,0,0,20.56,20.55"/><path class="cls-1" d="M683.64,529.33a20.56,20.56,0,1,0-20.55-20.55,20.55,20.55,0,0,0,20.55,20.55"/><polygon class="cls-1" points="383.78 508.77 334.53 508.77 334.53 623.7 367.36 623.7 383.78 623.7 745.31 623.7 745.31 558.03 383.78 558.03 383.78 508.77"/><rect class="cls-1" x="458.16" y="396.92" width="49.25" height="82.09"/><path class="cls-1" d="M503.27,368.23a20.56,20.56,0,1,0-20.56,20.56,20.56,20.56,0,0,0,20.56-20.56"/><path class="cls-1" d="M688,347.67a57.46,57.46,0,1,0,57.46,57.46A57.47,57.47,0,0,0,688,347.67m0,65.46a8,8,0,1,1,8-8,8,8,0,0,1-8,8"/><path class="cls-1" d="M630.55,405.13A57.46,57.46,0,1,0,581.3,462v17h49.25V405.18h0v-.05m-57.46,8a8,8,0,1,1,8-8,8,8,0,0,1-8,8"/><path class="cls-1" d="M392.41,347.83a57.38,57.38,0,1,0,57.38,57.38,57.38,57.38,0,0,0-57.38-57.38m0,65.38a8,8,0,1,1,8-8,8,8,0,0,1-8,8"/><path class="cls-1" d="M630.82,703.72a20.56,20.56,0,1,0-20.55-20.55,20.55,20.55,0,0,0,20.55,20.55"/><path class="cls-1" d="M745.31,732.34a49.17,49.17,0,0,0-83.94-34.77l34.85,34.85H597.56V683.17H548.3V798.09h197V732.42h0v-.08"/><path class="cls-1" d="M540.09,683.17a20.56,20.56,0,1,0-20.55,20.55,20.55,20.55,0,0,0,20.55-20.55"/><path class="cls-1" d="M448.86,732.42A57.46,57.46,0,1,0,392,798.09h148.1V732.42ZM392,748.63a8,8,0,1,1,8-8,8,8,0,0,1-8,8"/><path class="cls-1" d="M540,4A533.49,533.49,0,0,1,839.68,95.54a537.57,537.57,0,0,1,194.2,235.83,535.29,535.29,0,0,1-49.42,508.31,537.57,537.57,0,0,1-235.83,194.2,535.29,535.29,0,0,1-508.31-49.42A537.57,537.57,0,0,1,46.12,748.63,535.29,535.29,0,0,1,95.54,240.32,537.57,537.57,0,0,1,331.37,46.12,532.57,532.57,0,0,1,540,4m0-4C241.77,0,0,241.77,0,540s241.77,540,540,540,540-241.77,540-540S838.23,0,540,0Z"/></g></svg>