<svg xmlns="http://www.w3.org/2000/svg" xmlns:xlink="http://www.w3.org/1999/xlink" viewBox="0 0 1920 1080"><defs><style>.cls-1{fill:#082b96;}.cls-2{fill:#fff;}.cls-3{fill:#061f6b;}.cls-4{fill:url(#linear-gradient);}.cls-5{fill:url(#linear-gradient-2);}.cls-6{fill:url(#linear-gradient-3);}</style><linearGradient id="linear-gradient" x1="947.63" y1="9996.35" x2="947.63" y2="8916.35" gradientTransform="translate(1907.63 9996.35) rotate(180)" gradientUnits="userSpaceOnUse"><stop offset="0" stop-color="#fff" stop-opacity="0"/><stop offset="0.51" stop-color="#fff"/><stop offset="1" stop-color="#fff" stop-opacity="0"/></linearGradient><linearGradient id="linear-gradient-2" x1="677.72" y1="9996.35" x2="677.72" y2="8916.35" xlink:href="#linear-gradient"/><linearGradient id="linear-gradient-3" x1="1217.72" y1="9996.35" x2="1217.72" y2="8916.35" xlink:href="#linear-gradient"/></defs><g id="Background"><rect class="cls-1" width="1920" height="1080"/><path class="cls-2" d="M608.53,941.84H592.18v-3h6.43V921.88a5.75,5.75,0,0,1-3,.7h-3.53v-3h3.31a3.09,3.09,0,0,0,2.52-1,4.93,4.93,0,0,0,.82-3.15h3.48v23.36h6.33Z"/><path class="cls-2" d="M611.79,923h4.14v4.25h-4.14Zm0,14.59h4.14v4.25h-4.14Z"/><path class="cls-2" d="M636.92,941.84H620.56v-3H627V921.88a5.79,5.79,0,0,1-3,.7h-3.53v-3h3.31a3.07,3.07,0,0,0,2.52-1,4.93,4.93,0,0,0,.83-3.15h3.48v23.36h6.33Z"/><path class="cls-2" d="M639.34,928.65q0-6.31,2.6-10a9.09,9.09,0,0,1,14.55,0q2.63,3.58,2.63,10t-2.63,10a9.11,9.11,0,0,1-14.56.05Q639.35,935.09,639.34,928.65Zm14.55,7.86c1.09-1.84,1.64-4.47,1.64-7.86s-.54-6-1.63-7.86a5.19,5.19,0,0,0-4.7-2.76,5.13,5.13,0,0,0-4.62,2.83,15.36,15.36,0,0,0-1.67,7.79c0,3.41.55,6,1.63,7.87a5.33,5.33,0,0,0,9.35,0Z"/></g><g id="Graphic"><rect class="cls-3" x="689.9" y="270" width="540" height="135"/><rect class="cls-3" x="689.9" y="675" width="540" height="135"/><rect class="cls-3" x="665.74" y="472.62" width="588.52" height="135" transform="translate(-124.46 733.16) rotate(-39.46)"/><rect class="cls-4" x="959.5" width="1" height="1080"/><rect class="cls-5" x="1229.4" width="1" height="1080"/><rect class="cls-6" x="689.4" width="1" height="1080"/><rect class="cls-2" x="689.9" y="915.04" width="270.1" height="27.01"/></g></svg>