<svg xmlns="http://www.w3.org/2000/svg" viewBox="0 0 1920 1080"><defs><style>.cls-1{fill:#061f6b;}.cls-2,.cls-3,.cls-4{fill:#4672e2;}.cls-2{fill-opacity:0.33;}.cls-3{fill-opacity:0.67;}.cls-5{fill:#fff;}</style></defs><g id="Background"><rect class="cls-1" width="1920" height="1080"/></g><g id="Layer_2" data-name="Layer 2"><path class="cls-2" d="M252.67,0H1856a0,0,0,0,1,0,0V882.33A161.67,161.67,0,0,1,1694.33,1044h-1280A161.67,161.67,0,0,1,252.67,882.33V0A0,0,0,0,1,252.67,0Z"/><path class="cls-3" d="M505.33,0H1792a0,0,0,0,1,0,0V684.67A323.33,323.33,0,0,1,1468.67,1008h-640A323.33,323.33,0,0,1,505.33,684.67V0A0,0,0,0,1,505.33,0Z"/><path class="cls-4" d="M758,0h970a0,0,0,0,1,0,0V487a485,485,0,0,1-485,485h0A485,485,0,0,1,758,487V0A0,0,0,0,1,758,0Z"/><rect class="cls-5" x="938.16" y="467.23" width="609.69" height="10" transform="translate(30.12 1017.18) rotate(-45)"/><polygon class="cls-5" points="1073.02 712.72 976.71 738.53 1002.51 642.21 1073.02 712.72"/><polygon class="cls-5" points="1483.5 302.25 1509.3 205.93 1412.99 231.73 1483.5 302.25"/><rect class="cls-5" x="1238" y="167.38" width="10" height="609.69" transform="translate(30.15 1017.25) rotate(-45)"/><polygon class="cls-5" points="1002.5 302.25 976.7 205.93 1073.02 231.73 1002.5 302.25"/><polygon class="cls-5" points="1412.98 712.72 1509.29 738.53 1483.5 642.21 1412.98 712.72"/></g></svg>