<svg xmlns="http://www.w3.org/2000/svg" viewBox="0 0 864 504"><defs><style>.cls-1{fill:#dbd8d7;}.cls-2{fill:#f5f1f0;}.cls-3{fill:#fff;}.cls-4{fill:#ff8873;}</style></defs><title>material-6</title><g id="Layer_2" data-name="Layer 2"><rect class="cls-1" width="863.9" height="504"/></g><g id="Layer_1" data-name="Layer 1"><rect class="cls-2" x="336" y="102" width="192" height="348"/><rect class="cls-3" x="348" y="126" width="168" height="156"/><rect class="cls-3" x="348" y="294" width="168" height="156"/><rect class="cls-3" x="336" y="57" width="192" height="45"/><polygon points="507.71 72 513.71 66 519.71 72 507.71 72"/><polygon points="503.21 75 498.71 75 498.71 84 503.21 84 507.71 79.5 503.21 75"/><rect x="511.46" y="75" width="4.5" height="9"/><polygon points="476.21 75 476.21 79.5 473.96 79.5 473.96 75 469.46 75 469.46 79.5 467.21 79.5 467.21 75 462.71 75 462.71 84 480.71 84 480.71 75 476.21 75"/><path d="M485.21,84V79.5a4.52,4.52,0,0,0,4.5-4.5h4.5A9,9,0,0,1,485.21,84Z"/><rect class="cls-4" x="395.5" y="57" width="1" height="393"/><rect class="cls-4" x="347.5" y="57" width="1" height="393"/><rect class="cls-4" x="515.5" y="57" width="1" height="393"/><rect class="cls-4" x="467.5" y="57" width="1" height="393"/><rect class="cls-4" x="455.5" y="57" width="1" height="393"/><rect class="cls-4" x="407.5" y="57" width="1" height="393"/></g></svg>