<svg xmlns="http://www.w3.org/2000/svg" viewBox="0 0 864 504"><defs><style>.cls-1{fill:#dbd8d7;}.cls-2{fill:#f5f1f0;}.cls-3{fill:#fff;}.cls-4{fill:#ff8873;}</style></defs><title>material-5</title><g id="Layer_2" data-name="Layer 2"><rect class="cls-1" width="863.9" height="504"/></g><g id="Layer_1" data-name="Layer 1"><rect class="cls-2" x="246" y="102" width="372" height="348"/><rect class="cls-3" x="258" y="126" width="168" height="156"/><rect class="cls-3" x="438" y="126" width="168" height="156"/><rect class="cls-3" x="258" y="294" width="168" height="156"/><rect class="cls-3" x="438" y="294" width="168" height="156"/><rect class="cls-3" x="246" y="57" width="372" height="45"/><polygon points="597.71 72 603.71 66 609.71 72 597.71 72"/><polygon points="593.21 75 588.71 75 588.71 84 593.21 84 597.71 79.5 593.21 75"/><rect x="601.46" y="75" width="4.5" height="9"/><polygon points="566.21 75 566.21 79.5 563.96 79.5 563.96 75 559.46 75 559.46 79.5 557.21 79.5 557.21 75 552.71 75 552.71 84 570.71 84 570.71 75 566.21 75"/><path d="M575.21,84V79.5a4.52,4.52,0,0,0,4.5-4.5h4.5A9,9,0,0,1,575.21,84Z"/><rect class="cls-4" x="485.5" y="57" width="1" height="393"/><rect class="cls-4" x="437.5" y="57" width="1" height="393"/><rect class="cls-4" x="605.5" y="57" width="1" height="393"/><rect class="cls-4" x="557.5" y="57" width="1" height="393"/><rect class="cls-4" x="545.5" y="57" width="1" height="393"/><rect class="cls-4" x="497.5" y="57" width="1" height="393"/><rect class="cls-4" x="305.5" y="57" width="1" height="393"/><rect class="cls-4" x="257.5" y="57" width="1" height="393"/><rect class="cls-4" x="425.5" y="57" width="1" height="393"/><rect class="cls-4" x="377.5" y="57" width="1" height="393"/><rect class="cls-4" x="365.5" y="57" width="1" height="393"/><rect class="cls-4" x="317.5" y="57" width="1" height="393"/></g></svg>