<svg xmlns="http://www.w3.org/2000/svg" viewBox="0 0 864 504"><defs><style>.cls-1{fill:#dbd8d7;}.cls-2{fill:#f5f1f0;}.cls-3{fill:#fff;}.cls-4{fill:#ff8873;}</style></defs><title>material-3</title><g id="Layer_2" data-name="Layer 2"><rect class="cls-1" width="863.9" height="504"/></g><g id="Layer_1" data-name="Layer 1"><rect class="cls-2" x="60" y="102" width="744" height="348"/><rect class="cls-3" x="78" y="126" width="168" height="156"/><rect class="cls-3" x="258" y="126" width="168" height="156"/><rect class="cls-3" x="438" y="126" width="168" height="156"/><rect class="cls-3" x="618" y="126" width="168" height="156"/><rect class="cls-3" x="78" y="294" width="168" height="156"/><rect class="cls-3" x="258" y="294" width="168" height="156"/><rect class="cls-3" x="438" y="294" width="168" height="156"/><rect class="cls-3" x="618" y="294" width="168" height="156"/><rect class="cls-3" x="60" y="57" width="744" height="45"/><polygon points="777.71 72 783.71 66 789.71 72 777.71 72"/><polygon points="773.21 75 768.71 75 768.71 84 773.21 84 777.71 79.5 773.21 75"/><rect x="781.46" y="75" width="4.5" height="9"/><polygon points="746.21 75 746.21 79.5 743.96 79.5 743.96 75 739.46 75 739.46 79.5 737.21 79.5 737.21 75 732.71 75 732.71 84 750.71 84 750.71 75 746.21 75"/><path d="M755.21,84V79.5a4.52,4.52,0,0,0,4.5-4.5h4.5A9,9,0,0,1,755.21,84Z"/><rect class="cls-4" x="665.63" y="57" width="0.75" height="393"/><rect class="cls-4" x="617.63" y="57" width="0.75" height="393"/><rect class="cls-4" x="785.63" y="57" width="0.75" height="393"/><rect class="cls-4" x="737.63" y="57" width="0.75" height="393"/><rect class="cls-4" x="725.63" y="57" width="0.75" height="393"/><rect class="cls-4" x="677.63" y="57" width="0.75" height="393"/><rect class="cls-4" x="125.63" y="57" width="0.75" height="393"/><rect class="cls-4" x="77.63" y="57" width="0.75" height="393"/><rect class="cls-4" x="245.63" y="57" width="0.75" height="393"/><rect class="cls-4" x="197.63" y="57" width="0.75" height="393"/><rect class="cls-4" x="185.63" y="57" width="0.75" height="393"/><rect class="cls-4" x="137.63" y="57" width="0.75" height="393"/><rect class="cls-4" x="305.63" y="57" width="0.75" height="393"/><rect class="cls-4" x="257.63" y="57" width="0.75" height="393"/><rect class="cls-4" x="425.63" y="57" width="0.75" height="393"/><rect class="cls-4" x="377.63" y="57" width="0.75" height="393"/><rect class="cls-4" x="365.63" y="57" width="0.75" height="393"/><rect class="cls-4" x="317.63" y="57" width="0.75" height="393"/><rect class="cls-4" x="485.63" y="57" width="0.75" height="393"/><rect class="cls-4" x="437.63" y="57" width="0.75" height="393"/><rect class="cls-4" x="605.63" y="57" width="0.75" height="393"/><rect class="cls-4" x="557.63" y="57" width="0.75" height="393"/><rect class="cls-4" x="545.63" y="57" width="0.75" height="393"/><rect class="cls-4" x="497.63" y="57" width="0.75" height="393"/></g></svg>