<svg xmlns="http://www.w3.org/2000/svg" viewBox="0 0 864 504"><defs><style>.cls-1{fill:#dbd8d7;}.cls-2{fill:#c7c4c3;}.cls-3{fill:#f5f1f0;}.cls-4{fill:#fff;}.cls-5,.cls-6{font-size:25px;}.cls-5{font-family:Roboto-Medium, Roboto;font-weight:500;}.cls-6{font-family:Roboto-Regular, Roboto;}</style></defs><title>material-1</title><g id="Layer_2" data-name="Layer 2"><rect class="cls-1" width="863.9" height="504"/></g><g id="Layer_1" data-name="Layer 1"><rect class="cls-2" y="119.98" width="744" height="72"/><rect class="cls-3" x="-0.01" y="191.98" width="744.01" height="192.02"/><rect class="cls-2" y="384" width="744" height="119.99"/><rect class="cls-4" x="672" y="143.98" width="24" height="24"/><path class="cls-4" d="M576,144h30l-15,24Z"/><path class="cls-4" d="M636,144h0a12,12,0,0,1,12,12h0a12,12,0,0,1-12,12h0a12,12,0,0,1-12-12h0A12,12,0,0,1,636,144Z"/><rect class="cls-3" y="432" width="696.06" height="72"/><polygon class="cls-2" points="663 257.99 687 233.99 711 257.99 663 257.99"/><polygon class="cls-2" points="645 269.99 627 269.99 627 305.99 645 305.99 663 287.99 645 269.99"/><rect class="cls-2" x="678" y="269.99" width="18" height="36"/><polygon class="cls-2" points="537 269.99 537 287.99 528 287.99 528 269.99 510 269.99 510 287.99 501 287.99 501 269.99 483 269.99 483 305.99 555 305.99 555 269.99 537 269.99"/><path class="cls-2" d="M573,306V288a18.05,18.05,0,0,0,18-18h18A36.11,36.11,0,0,1,573,306Z"/><rect class="cls-4" y="479.27" width="2" height="0.5"/><path class="cls-4" d="M859,480h-4v-.5h4Zm-7,0h-4v-.5h4Zm-7,0h-4v-.5h4Zm-7,0h-4v-.5h4Zm-7,0h-4v-.5h4Zm-7,0h-4v-.5h4Zm-7,0h-4v-.5h4Zm-7,0h-4v-.5h4Zm-7,0h-4v-.5h4Zm-7,0h-4v-.5h4Zm-7,0h-4v-.5h4Zm-7,0h-4v-.5h4Zm-7,0h-4v-.5h4Zm-7,0h-4v-.5h4Zm-7,0h-4v-.5h4Zm-7,0h-4v-.5h4Zm-7,0h-4v-.5h4Zm-7,0h-4v-.5h4Zm-7,0h-4v-.5h4Zm-7,0h-4v-.5h4Zm-7,0h-4v-.5h4Zm-7,0h-4v-.5h4Zm-7,0h-4v-.5h4Zm-7,0h-4v-.5h4Zm-7,0h-4v-.5h4Zm-7,0h-4v-.5h4Zm-7,0h-4v-.5h4Zm-7,0h-4v-.5h4Zm-7,0h-4v-.5h4Zm-7,0h-4v-.5h4Zm-7,0h-4v-.5h4Zm-7,0h-4v-.5h4Zm-7,0h-4v-.5h4Zm-7,0h-4v-.5h4Zm-7,0h-4v-.5h4Zm-7,0h-4v-.5h4Zm-7,0h-4v-.5h4Zm-7,0h-4v-.5h4Zm-7,0h-4v-.5h4Zm-7,0h-4v-.5h4Zm-7,0h-4v-.5h4Zm-7,0h-4v-.5h4Zm-7,0h-4v-.5h4Zm-7,0h-4v-.5h4Zm-7,0h-4v-.5h4Zm-7,0h-4v-.5h4Zm-7,0h-4v-.5h4Zm-7,0h-4v-.5h4Zm-7,0h-4v-.5h4Zm-7,0h-4v-.5h4Zm-7,0h-4v-.5h4Zm-7,0h-4v-.5h4Zm-7,0h-4v-.5h4Zm-7,0h-4v-.5h4Zm-7,0h-4v-.5h4Zm-7,0h-4v-.5h4Zm-7,0h-4v-.5h4Zm-7,0h-4v-.5h4Zm-7,0h-4v-.5h4Zm-7,0h-4v-.5h4Zm-7,0h-4v-.5h4Zm-7,0h-4v-.5h4Zm-7,0h-4v-.5h4Zm-7,0h-4v-.5h4Zm-7,0h-4v-.5h4Zm-7,0h-4v-.5h4Zm-7,0h-4v-.5h4Zm-7,0h-4v-.5h4Zm-7,0h-4v-.5h4Zm-7,0h-4v-.5h4Zm-7,0h-4v-.5h4Zm-7,0h-4v-.5h4Zm-7,0h-4v-.5h4Zm-7,0h-4v-.5h4Zm-7,0h-4v-.5h4Zm-7,0h-4v-.5h4Zm-7,0h-4v-.5h4Zm-7,0h-4v-.5h4Zm-7,0h-4v-.5h4Zm-7,0h-4v-.5h4Zm-7,0h-4v-.5h4Zm-7,0h-4v-.5h4Zm-7,0h-4v-.5h4Zm-7,0h-4v-.5h4Zm-7,0h-4v-.5h4Zm-7,0h-4v-.5h4Zm-7,0h-4v-.5h4Zm-7,0h-4v-.5h4Zm-7,0h-4v-.5h4Zm-7,0h-4v-.5h4Zm-7,0h-4v-.5h4Zm-7,0h-4v-.5h4Zm-7,0h-4v-.5h4Zm-7,0h-4v-.5h4Zm-7,0h-4v-.5h4Zm-7,0h-4v-.5h4Zm-7,0h-4v-.5h4Zm-7,0h-4v-.5h4Zm-7,0h-4v-.5h4Zm-7,0h-4v-.5h4Zm-7,0h-4v-.5h4Zm-7,0h-4v-.5h4Zm-7,0h-4v-.5h4Zm-7,0h-4v-.5h4Zm-7,0h-4v-.5h4Zm-7,0h-4v-.5h4Zm-7,0h-4v-.5h4Zm-7,0h-4v-.5h4Zm-7,0h-4v-.5h4Zm-7,0h-4v-.5h4Zm-7,0h-4v-.5h4Zm-7,0h-4v-.5h4Zm-7,0h-4v-.5h4Zm-7,0h-4v-.5h4Zm-7,0h-4v-.5h4Zm-7,0h-4v-.5h4Zm-7,0h-4v-.5h4Zm-7,0h-4v-.5h4Zm-7,0h-4v-.5h4Zm-7,0h-4v-.5h4Zm-7,0H12v-.5h4Zm-7,0H5v-.5H9Z"/><rect class="cls-4" x="862" y="479.47" width="2" height="0.5"/><rect class="cls-4" x="743.69" width="0.5" height="2"/><path class="cls-4" d="M743.78,187v-4.07h.5V187Zm0-7.12v-4.06h.5v4.06Zm0-7.11v-4.07h.5v4.07Zm0-7.12V161.6h.5v4.06Zm0-7.11v-4.07h.5v4.07Zm0-7.12v-4.06h.5v4.06Zm0-7.11v-4.07h.5v4.07Zm0-7.12v-4.07h.5v4.07Zm0-7.11V126h.5v4.06Zm0-7.12V118.9h.5V123Zm0-7.12v-4.06h.5v4.06Zm0-7.11v-4.07h.5v4.07Zm0-7.12V97.56h.5v4.06Zm0-7.11V90.44h.5v4.07Zm0-7.12V83.33h.5v4.07Zm0-7.11V76.21h.5v4.07Zm0-7.12V69.09h.5v4.07Zm0-7.12V62h.5V66Zm0-7.11V54.86h.5v4.07Zm0-7.12V47.75h.5v4.06Zm0-7.11V40.63h.5V44.7Zm0-7.12V33.52h.5v4.06Zm0-7.11V26.4h.5v4.07Zm0-7.12V19.28h.5v4.07Zm0-7.12V12.17h.5v4.06Zm0-7.11V5.05h.5V9.12Z"/><rect class="cls-4" x="743.78" y="190.06" width="0.5" height="2"/><rect class="cls-4" x="719.69" y="-0.01" width="0.5" height="2"/><path class="cls-4" d="M719.78,187v-4.06h.5V187Zm0-7.11v-4.07h.5v4.07Zm0-7.12V168.7h.5v4.07Zm0-7.11v-4.07h.5v4.06Zm0-7.12v-4.07h.5v4.07Zm0-7.12v-4.06h.5v4.06Zm0-7.11v-4.07h.5v4.07Zm0-7.12v-4.06h.5v4.06Zm0-7.11V126h.5v4.07Zm0-7.12V118.9h.5V123Zm0-7.11v-4.07h.5v4.07Zm0-7.12v-4.07h.5v4.07Zm0-7.12V97.55h.5v4.06Zm0-7.11V90.43h.5V94.5Zm0-7.12V83.32h.5v4.06Zm0-7.11V76.2h.5v4.07Zm0-7.12V69.09h.5v4.06Zm0-7.11V62h.5V66Zm0-7.12V54.85h.5v4.07Zm0-7.12V47.74h.5V51.8Zm0-7.11V40.62h.5v4.07Zm0-7.12V33.51h.5v4.06Zm0-7.11V26.39h.5v4.07Zm0-7.12V19.28h.5v4.06Zm0-7.11V12.16h.5v4.07Zm0-7.12V5h.5V9.11Z"/><rect class="cls-4" x="719.78" y="190.05" width="0.5" height="2"/><rect class="cls-4" x="695.69" y="0.03" width="0.5" height="2"/><path class="cls-4" d="M695.78,187v-4.06h.5V187Zm0-7.11v-4.06h.5v4.06Zm0-7.11V168.7h.5v4.07Zm0-7.12v-4.06h.5v4.06Zm0-7.11v-4.07h.5v4.07Zm0-7.12v-4.06h.5v4.06Zm0-7.11v-4.06h.5v4.06Zm0-7.11v-4.07h.5v4.07Zm0-7.12V126h.5v4.06Zm0-7.11V118.9h.5V123Zm0-7.11v-4.07h.5v4.06Zm0-7.12v-4.06h.5v4.06Zm0-7.11V97.56h.5v4.07Zm0-7.12V90.45h.5v4.06Zm0-7.11V83.33h.5V87.4Zm0-7.11V76.22h.5v4.07Zm0-7.12V69.11h.5v4.06Zm0-7.11V62h.5v4.07Zm0-7.12V54.88h.5v4.06Zm0-7.11V47.76h.5v4.07Zm0-7.11V40.65h.5v4.07Zm0-7.12V33.54h.5V37.6Zm0-7.11V26.42h.5v4.07Zm0-7.12V19.31h.5v4.06Zm0-7.11V12.2h.5v4.07Zm0-7.11V5.08h.5V9.15Z"/><rect class="cls-4" x="695.78" y="190.04" width="0.5" height="2"/><rect class="cls-4" x="671.69" y="0.02" width="0.5" height="2"/><path class="cls-4" d="M671.78,187v-4.07h.5V187Zm0-7.12v-4.06h.5v4.06Zm0-7.11v-4.07h.5v4.07Zm0-7.12v-4.06h.5v4.06Zm0-7.11v-4.06h.5v4.06Zm0-7.11v-4.07h.5v4.07Zm0-7.12v-4.06h.5v4.06Zm0-7.11v-4.07h.5v4.07Zm0-7.12V126h.5v4.06Zm0-7.11V118.9h.5V123Zm0-7.11v-4.07h.5v4.07Zm0-7.12v-4.06h.5v4.06Zm0-7.11V97.55h.5v4.07Zm0-7.11V90.44h.5V94.5Zm0-7.12V83.33h.5v4.06Zm0-7.11V76.21h.5v4.07Zm0-7.12V69.1h.5v4.06Zm0-7.11V62h.5v4.07Zm0-7.11V54.87h.5v4.07Zm0-7.12V47.76h.5v4.06Zm0-7.11V40.64h.5v4.07Zm0-7.12V33.53h.5v4.06Zm0-7.11V26.41h.5v4.07Zm0-7.11V19.3h.5v4.07Zm0-7.12V12.19h.5v4.06Zm0-7.11V5.07h.5V9.14Z"/><rect class="cls-4" x="671.78" y="190.03" width="0.5" height="2"/><rect class="cls-4" x="647.69" y="0.02" width="0.5" height="2"/><path class="cls-4" d="M647.78,187v-4.07h.5V187Zm0-7.12V175.8h.5v4.06Zm0-7.11v-4.06h.5v4.07Zm0-7.11v-4.07h.5v4.07Zm0-7.12v-4.06h.5v4.06Zm0-7.11v-4.07h.5v4.07Zm0-7.12v-4.06h.5v4.06Zm0-7.11v-4.06h.5v4.06Zm0-7.11V126h.5v4.07Zm0-7.12v-4.06h.5V123Zm0-7.11v-4.07h.5v4.07Zm0-7.12v-4.06h.5v4.06Zm0-7.11V97.55h.5v4.06Zm0-7.11V90.43h.5V94.5Zm0-7.12V83.32h.5v4.06Zm0-7.11V76.2h.5v4.07Zm0-7.11V69.09h.5v4.06Zm0-7.12V62h.5V66Zm0-7.11V54.86h.5v4.07Zm0-7.12V47.75h.5v4.06Zm0-7.11V40.63h.5V44.7Zm0-7.11V33.52h.5v4.07Zm0-7.12V26.41h.5v4.06Zm0-7.11V19.29h.5v4.07Zm0-7.12V12.18h.5v4.06Zm0-7.11V5.06h.5V9.13Z"/><rect class="cls-4" x="647.78" y="190.03" width="0.5" height="2"/><rect class="cls-4" x="623.69" y="0.01" width="0.5" height="2"/><path class="cls-4" d="M623.78,187V182.9h.5V187Zm0-7.11v-4.07h.5v4.07Zm0-7.12v-4.06h.5v4.06Zm0-7.11v-4.07h.5v4.07Zm0-7.12v-4.06h.5v4.06Zm0-7.11v-4.07h.5v4.07Zm0-7.11v-4.07h.5v4.07Zm0-7.12v-4.06h.5v4.06Zm0-7.11V126h.5v4.07Zm0-7.12v-4.06h.5v4.06Zm0-7.11v-4.06h.5v4.07Zm0-7.11v-4.07h.5v4.07Zm0-7.12V97.54h.5v4.06Zm0-7.11V90.42h.5v4.07Zm0-7.12V83.31h.5v4.06Zm0-7.11V76.2h.5v4.06Zm0-7.11V69.08h.5v4.07Zm0-7.12V62h.5V66Zm0-7.11V54.85h.5v4.07Zm0-7.12V47.74h.5V51.8Zm0-7.11V40.63h.5v4.06Zm0-7.11V33.51h.5v4.07Zm0-7.12V26.4h.5v4.06Zm0-7.11V19.28h.5v4.07Zm0-7.11V12.17h.5v4.07Zm0-7.12V5.06h.5V9.12Z"/><rect class="cls-4" x="623.78" y="190.02" width="0.5" height="2"/><rect class="cls-4" x="599.69" width="0.5" height="2"/><path class="cls-4" d="M599.78,187V182.9h.5V187Zm0-7.11v-4.07h.5v4.07Zm0-7.12v-4.06h.5v4.06Zm0-7.11v-4.07h.5v4.07Zm0-7.11v-4.07h.5v4.07Zm0-7.12v-4.06h.5v4.06Zm0-7.11v-4.07h.5v4.07Zm0-7.12V133.1h.5v4.06Zm0-7.11V126h.5v4.07Zm0-7.11v-4.07h.5v4.07Zm0-7.12v-4.06h.5v4.06Zm0-7.11v-4.07h.5v4.07Zm0-7.12V97.53h.5v4.06Zm0-7.11V90.42h.5v4.07Zm0-7.11V83.3h.5v4.07Zm0-7.12V76.19h.5v4.06Zm0-7.11V69.07h.5v4.07Zm0-7.12V62h.5V66Zm0-7.11V54.85h.5v4.06Zm0-7.11V47.73h.5V51.8Zm0-7.12V40.62h.5v4.06Zm0-7.11V33.5h.5v4.07Zm0-7.12V26.39h.5v4.06Zm0-7.11V19.28h.5v4.06Zm0-7.11V12.16h.5v4.07Zm0-7.12V5.05h.5V9.11Z"/><rect class="cls-4" x="599.78" y="190.01" width="0.5" height="2"/><rect class="cls-4" x="575.69" y="-0.01" width="0.5" height="2"/><path class="cls-4" d="M575.78,187v-4.06h.5V187Zm0-7.11v-4.07h.5v4.07Zm0-7.11v-4.07h.5v4.06Zm0-7.12v-4.06h.5v4.06Zm0-7.11v-4.07h.5v4.07Zm0-7.12v-4.06h.5v4.06Zm0-7.11V140.2h.5v4.07Zm0-7.11v-4.07h.5v4.07Zm0-7.12V126h.5V130Zm0-7.11v-4.07h.5v4.07Zm0-7.12v-4.06h.5v4.06Zm0-7.11v-4.07h.5v4.07Zm0-7.11V97.52h.5v4.07Zm0-7.12V90.41h.5v4.06Zm0-7.11V83.29h.5v4.07Zm0-7.12V76.18h.5v4.06Zm0-7.11V69.07h.5v4.07Zm0-7.11V62h.5V66Zm0-7.12V54.84h.5V58.9Zm0-7.11V47.72h.5v4.07Zm0-7.12V40.61h.5v4.06Zm0-7.11V33.5h.5v4.06Zm0-7.11V26.38h.5v4.07Zm0-7.12V19.27h.5v4.06Zm0-7.11V12.15h.5v4.07Zm0-7.12V5h.5V9.1Z"/><rect class="cls-4" x="575.78" y="190" width="0.5" height="2"/><rect class="cls-4" x="551.69" y="-0.02" width="0.5" height="2"/><path class="cls-4" d="M551.78,186.94v-4.06h.5v4.06Zm0-7.11v-4.06h.5v4.06Zm0-7.11v-4.07h.5v4.07Zm0-7.12v-4.06h.5v4.06Zm0-7.11v-4.07h.5v4.07Zm0-7.11v-4.07h.5v4.06Zm0-7.12V140.2h.5v4.06Zm0-7.11v-4.07h.5v4.07Zm0-7.12V126h.5V130Zm0-7.11v-4.07h.5v4.07Zm0-7.11v-4.07h.5v4.07Zm0-7.12v-4.06h.5v4.06Zm0-7.11V97.51h.5v4.07Zm0-7.12V90.4h.5v4.06Zm0-7.11V83.28h.5v4.07Zm0-7.11V76.17h.5v4.07Zm0-7.12V69.06h.5v4.06Zm0-7.11V61.94h.5V66Zm0-7.12V54.83h.5v4.06Zm0-7.11V47.71h.5v4.07Zm0-7.11V40.6h.5v4.07Zm0-7.12V33.49h.5v4.06Zm0-7.11V26.37h.5v4.07Zm0-7.12V19.26h.5v4.06Zm0-7.11V12.15h.5v4.06Zm0-7.11V5h.5V9.1Z"/><rect class="cls-4" x="551.78" y="189.99" width="0.5" height="2"/><rect class="cls-4" x="527.69" y="-0.03" width="0.5" height="2"/><path class="cls-4" d="M527.78,186.94v-4.07h.5v4.07Zm0-7.12v-4.06h.5v4.06Zm0-7.11v-4.07h.5v4.07Zm0-7.12v-4.06h.5v4.06Zm0-7.11v-4.06h.5v4.06Zm0-7.11V147.3h.5v4.07Zm0-7.12v-4.06h.5v4.06Zm0-7.11v-4.07h.5v4.07Zm0-7.11V126h.5V130Zm0-7.12v-4.06h.5v4.06Zm0-7.11v-4.07h.5v4.07Zm0-7.12v-4.06h.5v4.06Zm0-7.11V97.5h.5v4.07Zm0-7.11V90.39h.5v4.07Zm0-7.12V83.28h.5v4.06Zm0-7.11V76.16h.5v4.07Zm0-7.12V69.05h.5v4.06Zm0-7.11V61.93h.5V66Zm0-7.11V54.82h.5v4.07Zm0-7.12V47.71h.5v4.06Zm0-7.11V40.59h.5v4.07Zm0-7.12V33.48h.5v4.06Zm0-7.11V26.36h.5v4.07Zm0-7.11V19.25h.5v4.07Zm0-7.12V12.14h.5V16.2Zm0-7.11V5h.5V9.09Z"/><rect class="cls-4" x="527.78" y="189.99" width="0.5" height="2"/><rect class="cls-4" x="503.69" y="-0.03" width="0.5" height="2"/><path class="cls-4" d="M503.78,186.93v-4.07h.5v4.07Zm0-7.12v-4.06h.5v4.06Zm0-7.11v-4.06h.5v4.07Zm0-7.11v-4.07h.5v4.07Zm0-7.12v-4.06h.5v4.06Zm0-7.11v-4.07h.5v4.07Zm0-7.12v-4.06h.5v4.06Zm0-7.11v-4.06h.5v4.06Zm0-7.11V126h.5V130Zm0-7.12v-4.06h.5v4.06Zm0-7.11v-4.07h.5v4.07Zm0-7.12v-4.06h.5v4.06Zm0-7.11V97.5h.5v4.06Zm0-7.11V90.38h.5v4.07Zm0-7.12V83.27h.5v4.06Zm0-7.11V76.15h.5v4.07Zm0-7.11V69h.5v4.07Zm0-7.12V61.93h.5V66Zm0-7.11V54.81h.5v4.07Zm0-7.12V47.7h.5v4.06Zm0-7.11V40.58h.5v4.07Zm0-7.11V33.47h.5v4.07Zm0-7.12V26.36h.5v4.06Zm0-7.11V19.24h.5v4.07Zm0-7.12V12.13h.5v4.06Zm0-7.11V5h.5V9.08Z"/><rect class="cls-4" x="503.78" y="189.98" width="0.5" height="2"/><rect class="cls-4" x="479.69" y="-0.04" width="0.5" height="2"/><path class="cls-4" d="M479.78,186.92v-4.07h.5v4.07Zm0-7.11v-4.07h.5v4.07Zm0-7.12v-4.06h.5v4.06Zm0-7.11v-4.07h.5v4.07Zm0-7.12V154.4h.5v4.06Zm0-7.11v-4.06h.5v4.07Zm0-7.11v-4.07h.5v4.07Zm0-7.12v-4.06h.5v4.06Zm0-7.11v-4.07h.5V130Zm0-7.12v-4.06h.5v4.06Zm0-7.11v-4.06h.5v4.06Zm0-7.11V104.6h.5v4.07Zm0-7.12V97.49h.5v4.06Zm0-7.11V90.37h.5v4.07Zm0-7.12V83.26h.5v4.06Zm0-7.11V76.15h.5v4.06Zm0-7.11V69h.5V73.1Zm0-7.12V61.92h.5V66Zm0-7.11V54.8h.5v4.07Zm0-7.11V47.69h.5v4.06Zm0-7.12V40.58h.5v4.06Zm0-7.11V33.46h.5v4.07Zm0-7.12V26.35h.5v4.06Zm0-7.11V19.23h.5V23.3Zm0-7.11V12.12h.5v4.07Zm0-7.12V5h.5V9.07Z"/><rect class="cls-4" x="479.78" y="189.97" width="0.5" height="2"/><rect class="cls-4" x="455.69" y="-0.05" width="0.5" height="2"/><path class="cls-4" d="M455.78,186.91v-4.06h.5v4.06Zm0-7.11v-4.07h.5v4.07Zm0-7.12v-4.06h.5v4.06Zm0-7.11V161.5h.5v4.07Zm0-7.11v-4.07h.5v4.07Zm0-7.12v-4.06h.5v4.06Zm0-7.11v-4.07h.5v4.07Zm0-7.12v-4.06h.5v4.06Zm0-7.11v-4.06h.5V130Zm0-7.11v-4.07h.5v4.07Zm0-7.12v-4.06h.5v4.06Zm0-7.11v-4.07h.5v4.07Zm0-7.12V97.48h.5v4.06Zm0-7.11V90.37h.5v4.06Zm0-7.11V83.25h.5v4.07Zm0-7.12V76.14h.5V80.2Zm0-7.11V69h.5v4.07Zm0-7.12V61.91h.5V66Zm0-7.11V54.8h.5v4.06Zm0-7.11V47.68h.5v4.07Zm0-7.12V40.57h.5v4.06Zm0-7.11V33.45h.5v4.07Zm0-7.11V26.34h.5V30.4Zm0-7.12V19.23h.5v4.06Zm0-7.11V12.11h.5v4.07Zm0-7.12V5h.5V9.06Z"/><rect class="cls-4" x="455.78" y="189.96" width="0.5" height="2"/><rect class="cls-4" x="431.69" y="-0.06" width="0.5" height="2"/><path class="cls-4" d="M431.78,186.9v-4.06h.5v4.06Zm0-7.11v-4.07h.5v4.07Zm0-7.11v-4.07h.5v4.07Zm0-7.12V161.5h.5v4.06Zm0-7.11v-4.07h.5v4.07Zm0-7.12v-4.06h.5v4.06Zm0-7.11v-4.07h.5v4.07Zm0-7.11V133h.5v4.07Zm0-7.12v-4.06h.5V130Zm0-7.11v-4.07h.5v4.07Zm0-7.12V111.7h.5v4.06Zm0-7.11v-4.07h.5v4.07Zm0-7.11V97.47h.5v4.07Zm0-7.12V90.36h.5v4.06Zm0-7.11V83.24h.5v4.07Zm0-7.12V76.13h.5v4.06Zm0-7.11V69h.5v4.06Zm0-7.11V61.9h.5V66Zm0-7.12V54.79h.5v4.06Zm0-7.11V47.67h.5v4.07Zm0-7.12V40.56h.5v4.06Zm0-7.11V33.45h.5v4.06Zm0-7.11V26.33h.5V30.4Zm0-7.12V19.22h.5v4.06Zm0-7.11V12.1h.5v4.07Zm0-7.12V5h.5V9.05Z"/><rect class="cls-4" x="431.78" y="189.95" width="0.5" height="2"/><rect class="cls-4" x="407.69" y="-0.07" width="0.5" height="2"/><path class="cls-4" d="M407.78,186.9v-4.07h.5v4.07Zm0-7.12v-4.06h.5v4.06Zm0-7.11V168.6h.5v4.07Zm0-7.12v-4.06h.5v4.06Zm0-7.11v-4.07h.5v4.07Zm0-7.11v-4.07h.5v4.07Zm0-7.12v-4.06h.5v4.06Zm0-7.11V133h.5v4.07Zm0-7.12v-4.06h.5V130Zm0-7.11V118.8h.5v4.07Zm0-7.11v-4.07h.5v4.07Zm0-7.12v-4.06h.5v4.06Zm0-7.11V97.46h.5v4.07Zm0-7.12V90.35h.5v4.06Zm0-7.11V83.24h.5V87.3Zm0-7.11V76.12h.5v4.07Zm0-7.12V69h.5v4.06Zm0-7.11V61.89h.5V66Zm0-7.12V54.78h.5v4.06Zm0-7.11V47.67h.5v4.06Zm0-7.11V40.55h.5v4.07Zm0-7.12V33.44h.5V37.5Zm0-7.11V26.32h.5v4.07Zm0-7.11V19.21h.5v4.06Zm0-7.12V12.1h.5v4.06Zm0-7.11V5h.5V9.05Z"/><rect class="cls-4" x="407.78" y="189.94" width="0.5" height="2"/><rect class="cls-4" x="383.69" y="-0.08" width="0.5" height="2"/><path class="cls-4" d="M383.78,186.89v-4.07h.5v4.07Zm0-7.12v-4.06h.5v4.06Zm0-7.11v-4.07h.5v4.07Zm0-7.11v-4.07h.5v4.07Zm0-7.12v-4.06h.5v4.06Zm0-7.11v-4.07h.5v4.07Zm0-7.12v-4.06h.5v4.06Zm0-7.11V133h.5v4.07Zm0-7.11v-4.07h.5V130Zm0-7.12V118.8h.5v4.06Zm0-7.11v-4.07h.5v4.07Zm0-7.12v-4.06h.5v4.06Zm0-7.11V97.45h.5v4.07Zm0-7.11V90.34h.5v4.07Zm0-7.12V83.23h.5v4.06Zm0-7.11V76.11h.5v4.07Zm0-7.12V69h.5v4.06Zm0-7.11V61.89h.5V66Zm0-7.11V54.77h.5v4.07Zm0-7.12V47.66h.5v4.06Zm0-7.11V40.54h.5v4.07Zm0-7.12V33.43h.5v4.06Zm0-7.11V26.32h.5v4.06Zm0-7.11V19.2h.5v4.07Zm0-7.12V12.09h.5v4.06Zm0-7.11V5h.5V9Z"/><rect class="cls-4" x="383.78" y="189.94" width="0.5" height="2"/><rect class="cls-4" x="359.69" y="-0.08" width="0.5" height="2"/><path class="cls-4" d="M359.78,186.88v-4.07h.5v4.07Zm0-7.12V175.7h.5v4.06Zm0-7.11v-4.06h.5v4.06Zm0-7.11v-4.07h.5v4.07Zm0-7.12v-4.06h.5v4.06Zm0-7.11v-4.07h.5v4.07Zm0-7.11v-4.07h.5v4.07Zm0-7.12V133h.5v4.06Zm0-7.11V125.9h.5V130Zm0-7.12v-4.06h.5v4.06Zm0-7.11v-4.07h.5v4.07Zm0-7.11v-4.07h.5v4.07Zm0-7.12V97.45h.5v4.06Zm0-7.11V90.33h.5V94.4Zm0-7.12V83.22h.5v4.06Zm0-7.11V76.1h.5v4.07Zm0-7.11V69h.5v4.07Zm0-7.12V61.88h.5v4.06Zm0-7.11V54.76h.5v4.07Zm0-7.12V47.65h.5v4.06Zm0-7.11V40.54h.5V44.6Zm0-7.11V33.42h.5v4.07Zm0-7.12V26.31h.5v4.06Zm0-7.11V19.19h.5v4.07Zm0-7.12V12.08h.5v4.06Zm0-7.11V5h.5V9Z"/><rect class="cls-4" x="359.78" y="189.93" width="0.5" height="2"/><rect class="cls-4" x="335.75" y="-0.07" width="0.5" height="2"/><path class="cls-4" d="M335.84,186.89v-4.06h.5v4.06Zm0-7.11v-4.07h.5v4.07Zm0-7.12V168.6h.5v4.06Zm0-7.11v-4.06h.5v4.06Zm0-7.11v-4.07h.5v4.07Zm0-7.12v-4.06h.5v4.06Zm0-7.11v-4.07h.5v4.07Zm0-7.11V133h.5v4.06Zm0-7.12v-4.06h.5V130Zm0-7.11V118.8h.5v4.07Zm0-7.12v-4.06h.5v4.06Zm0-7.11v-4.07h.5v4.07Zm0-7.11V97.46h.5v4.07Zm0-7.12V90.35h.5v4.06Zm0-7.11V83.23h.5V87.3Zm0-7.12V76.12h.5v4.06Zm0-7.11V69h.5v4.07Zm0-7.11V61.89h.5V66Zm0-7.12V54.78h.5v4.06Zm0-7.11V47.66h.5v4.07Zm0-7.12V40.55h.5v4.06Zm0-7.11V33.43h.5V37.5Zm0-7.11V26.32h.5v4.07Zm0-7.12V19.21h.5v4.06Zm0-7.11V12.09h.5v4.07Zm0-7.12V5h.5V9Z"/><rect class="cls-4" x="335.85" y="189.94" width="0.5" height="2"/><rect class="cls-4" x="311.75" y="-0.08" width="0.5" height="2"/><path class="cls-4" d="M311.84,186.88v-4.06h.5v4.06Zm0-7.11v-4.06h.5v4.07Zm0-7.11v-4.07h.5v4.07Zm0-7.12v-4.06h.5v4.06Zm0-7.11v-4.07h.5v4.07Zm0-7.12v-4.06h.5v4.06Zm0-7.11v-4.06h.5v4.06Zm0-7.11V133h.5v4.07Zm0-7.12v-4.06h.5V130Zm0-7.11v-4.07h.5v4.07Zm0-7.12v-4.06h.5v4.06Zm0-7.11v-4.06h.5v4.06Zm0-7.11V97.45h.5v4.07Zm0-7.12V90.34h.5V94.4Zm0-7.11V83.22h.5v4.07Zm0-7.11V76.11h.5v4.07Zm0-7.12V69h.5v4.06Zm0-7.11V61.88h.5V66Zm0-7.12V54.77h.5v4.06Zm0-7.11V47.65h.5v4.07Zm0-7.11V40.54h.5v4.07Zm0-7.12V33.43h.5v4.06Zm0-7.11V26.31h.5v4.07Zm0-7.12V19.2h.5v4.06Zm0-7.11V12.08h.5v4.07Zm0-7.11V5h.5V9Z"/><rect class="cls-4" x="311.85" y="189.93" width="0.5" height="2"/><rect class="cls-4" x="287.75" y="-0.09" width="0.5" height="2"/><path class="cls-4" d="M287.84,186.88v-4.07h.5v4.07Zm0-7.12V175.7h.5v4.06Zm0-7.11v-4.07h.5v4.07Zm0-7.12v-4.06h.5v4.06Zm0-7.11v-4.06h.5v4.07Zm0-7.11v-4.07h.5v4.07Zm0-7.12v-4.06h.5v4.06Zm0-7.11V133h.5v4.07Zm0-7.12V125.9h.5V130Zm0-7.11v-4.06h.5v4.06Zm0-7.11v-4.07h.5v4.07Zm0-7.12v-4.06h.5v4.06Zm0-7.11V97.44h.5v4.07Zm0-7.12V90.33h.5v4.06Zm0-7.11V83.22h.5v4.06Zm0-7.11V76.1h.5v4.07Zm0-7.12V69h.5v4.06Zm0-7.11V61.87h.5v4.07Zm0-7.11V54.76h.5v4.06Zm0-7.12V47.65h.5v4.06Zm0-7.11V40.53h.5V44.6Zm0-7.12V33.42h.5v4.06Zm0-7.11V26.3h.5v4.07Zm0-7.11V19.19h.5v4.07Zm0-7.12V12.08h.5v4.06Zm0-7.11V5h.5V9Z"/><rect class="cls-4" x="287.85" y="189.92" width="0.5" height="2"/><rect class="cls-4" x="263.75" y="-0.09" width="0.5" height="2"/><path class="cls-4" d="M263.84,186.87V182.8h.5v4.07Zm0-7.12v-4.06h.5v4.06Zm0-7.11v-4.07h.5v4.07Zm0-7.11v-4.07h.5v4.07Zm0-7.12v-4.06h.5v4.06Zm0-7.11v-4.07h.5v4.07Zm0-7.12v-4.06h.5v4.06Zm0-7.11V133h.5v4.07Zm0-7.11v-4.07h.5V130Zm0-7.12v-4.06h.5v4.06Zm0-7.11v-4.07h.5v4.07Zm0-7.12v-4.06h.5v4.06Zm0-7.11V97.44h.5v4.06Zm0-7.11V90.32h.5v4.07Zm0-7.12V83.21h.5v4.06Zm0-7.11V76.09h.5v4.07Zm0-7.12V69h.5V73Zm0-7.11V61.87h.5v4.06Zm0-7.11V54.75h.5v4.07Zm0-7.12V47.64h.5V51.7Zm0-7.11V40.52h.5v4.07Zm0-7.11V33.41h.5v4.06Zm0-7.12V26.3h.5v4.06Zm0-7.11V19.18h.5v4.07Zm0-7.12V12.07h.5v4.06Zm0-7.11V5h.5V9Z"/><rect class="cls-4" x="263.85" y="189.92" width="0.5" height="2"/><rect class="cls-4" x="239.75" y="-0.1" width="0.5" height="2"/><path class="cls-4" d="M239.84,186.86v-4.07h.5v4.07Zm0-7.11v-4.07h.5v4.07Zm0-7.12v-4.06h.5v4.06Zm0-7.11v-4.07h.5v4.07Zm0-7.12v-4.06h.5v4.06Zm0-7.11v-4.07h.5v4.07Zm0-7.11v-4.07h.5v4.07Zm0-7.12V133h.5v4.06Zm0-7.11v-4.07h.5V130Zm0-7.12v-4.06h.5v4.06Zm0-7.11v-4.07h.5v4.07Zm0-7.11v-4.07h.5v4.07Zm0-7.12V97.43h.5v4.06Zm0-7.11V90.31h.5v4.07Zm0-7.12V83.2h.5v4.06Zm0-7.11V76.09h.5v4.07Zm0-7.11V69h.5V73Zm0-7.12V61.86h.5v4.06Zm0-7.11V54.74h.5v4.07Zm0-7.12V47.63h.5v4.06Zm0-7.11V40.52h.5v4.06Zm0-7.11V33.4h.5v4.07Zm0-7.12V26.29h.5v4.06Zm0-7.11V19.17h.5v4.07Zm0-7.12V12.06h.5v4.06Zm0-7.11V5h.5V9Z"/><rect class="cls-4" x="239.85" y="189.91" width="0.5" height="2"/><rect class="cls-4" x="215.75" y="-0.11" width="0.5" height="2"/><path class="cls-4" d="M215.84,186.85v-4.06h.5v4.06Zm0-7.11v-4.07h.5v4.07Zm0-7.12v-4.06h.5v4.06Zm0-7.11v-4.07h.5v4.07Zm0-7.11v-4.07h.5v4.07Zm0-7.12v-4.06h.5v4.06Zm0-7.11V140.1h.5v4.07Zm0-7.12V133h.5v4.06Zm0-7.11v-4.07h.5v4.07Zm0-7.11v-4.07h.5v4.07Zm0-7.12v-4.06h.5v4.06Zm0-7.11v-4.07h.5v4.07Zm0-7.12V97.42h.5v4.06Zm0-7.11V90.3h.5v4.07Zm0-7.11V83.19h.5v4.07Zm0-7.12V76.08h.5v4.06Zm0-7.11V69h.5V73Zm0-7.12V61.85h.5v4.06Zm0-7.11V54.74h.5V58.8Zm0-7.11V47.62h.5v4.07Zm0-7.12V40.51h.5v4.06Zm0-7.11V33.39h.5v4.07Zm0-7.12V26.28h.5v4.06Zm0-7.11V19.17h.5v4.06Zm0-7.11V12.05h.5v4.07Zm0-7.12V4.94h.5V9Z"/><rect class="cls-4" x="215.85" y="189.9" width="0.5" height="2"/><rect class="cls-4" x="191.75" y="-0.12" width="0.5" height="2"/><path class="cls-4" d="M191.84,186.84v-4.06h.5v4.06Zm0-7.11v-4.07h.5v4.07Zm0-7.12v-4.06h.5v4.06Zm0-7.11v-4.06h.5v4.06Zm0-7.11v-4.07h.5v4.07Zm0-7.12v-4.06h.5v4.06Zm0-7.11v-4.07h.5v4.07Zm0-7.11V133h.5V137Zm0-7.12v-4.06h.5v4.06Zm0-7.11v-4.07h.5v4.07Zm0-7.12v-4.06h.5v4.06Zm0-7.11v-4.07h.5v4.07Zm0-7.11V97.41h.5v4.07Zm0-7.12V90.3h.5v4.06Zm0-7.11V83.18h.5v4.07Zm0-7.12V76.07h.5v4.06Zm0-7.11V69h.5V73Zm0-7.11V61.84h.5v4.07Zm0-7.12V54.73h.5v4.06Zm0-7.11V47.61h.5v4.07Zm0-7.12V40.5h.5v4.06Zm0-7.11V33.39h.5v4.07Zm0-7.11V26.27h.5v4.07Zm0-7.12V19.16h.5v4.06Zm0-7.11V12h.5v4.07Zm0-7.12V4.93h.5V9Z"/><rect class="cls-4" x="191.85" y="189.89" width="0.5" height="2"/><rect class="cls-4" x="167.75" y="-0.13" width="0.5" height="2"/><path class="cls-4" d="M167.84,186.83v-4.06h.5v4.06Zm0-7.11v-4.06h.5v4.06Zm0-7.11v-4.07h.5v4.07Zm0-7.12v-4.06h.5v4.06Zm0-7.11v-4.07h.5v4.07Zm0-7.12V147.2h.5v4.06Zm0-7.11v-4.06h.5v4.06Zm0-7.11V133h.5V137Zm0-7.12v-4.06h.5v4.06Zm0-7.11v-4.07h.5v4.07Zm0-7.11v-4.07h.5v4.06Zm0-7.12v-4.06h.5v4.06Zm0-7.11V97.4h.5v4.07Zm0-7.12V90.29h.5v4.06Zm0-7.11V83.17h.5v4.07Zm0-7.11V76.06h.5v4.07Zm0-7.12V69h.5V73Zm0-7.11V61.83h.5V65.9Zm0-7.12V54.72h.5v4.06Zm0-7.11V47.6h.5v4.07Zm0-7.11V40.49h.5v4.07Zm0-7.12V33.38h.5v4.06Zm0-7.11V26.26h.5v4.07Zm0-7.12V19.15h.5v4.06Zm0-7.11V12h.5V16.1Zm0-7.11V4.92h.5V9Z"/><rect class="cls-4" x="167.85" y="189.88" width="0.5" height="2"/><rect class="cls-4" x="143.75" y="-0.14" width="0.5" height="2"/><path class="cls-4" d="M143.84,186.83v-4.07h.5v4.07Zm0-7.12v-4.06h.5v4.06Zm0-7.11v-4.07h.5v4.07Zm0-7.12v-4.06h.5v4.06Zm0-7.11v-4.06h.5v4.06Zm0-7.11v-4.07h.5v4.07Zm0-7.12v-4.06h.5v4.06Zm0-7.11V133h.5V137Zm0-7.12v-4.06h.5v4.06Zm0-7.11v-4.06h.5v4.06Zm0-7.11v-4.07h.5v4.07Zm0-7.12v-4.06h.5v4.06Zm0-7.11V97.39h.5v4.07Zm0-7.11V90.28h.5v4.06Zm0-7.12V83.17h.5v4.06Zm0-7.11V76.05h.5v4.07Zm0-7.12V68.94h.5V73Zm0-7.11V61.82h.5v4.07Zm0-7.11V54.71h.5v4.07Zm0-7.12V47.6h.5v4.06Zm0-7.11V40.48h.5v4.07Zm0-7.12V33.37h.5v4.06Zm0-7.11V26.25h.5v4.07Zm0-7.11V19.14h.5v4.07Zm0-7.12V12h.5v4.06Zm0-7.11V4.91h.5V9Z"/><rect class="cls-4" x="143.85" y="189.88" width="0.5" height="2"/><rect class="cls-4" x="119.75" y="-0.14" width="0.5" height="2"/><path class="cls-4" d="M119.84,186.82v-4.07h.5v4.07Zm0-7.12v-4.06h.5v4.06Zm0-7.11v-4.07h.5v4.07Zm0-7.11v-4.07h.5v4.07Zm0-7.12V154.3h.5v4.06Zm0-7.11v-4.07h.5v4.07Zm0-7.12v-4.06h.5v4.06Zm0-7.11V133h.5V137Zm0-7.11v-4.07h.5v4.07Zm0-7.12v-4.06h.5v4.06Zm0-7.11v-4.07h.5v4.07Zm0-7.12V104.5h.5v4.06Zm0-7.11V97.39h.5v4.06Zm0-7.11V90.27h.5v4.07Zm0-7.12V83.16h.5v4.06Zm0-7.11V76h.5v4.07Zm0-7.12V68.93h.5V73Zm0-7.11V61.82h.5v4.06Zm0-7.11V54.7h.5v4.07Zm0-7.12V47.59h.5v4.06Zm0-7.11V40.47h.5v4.07Zm0-7.11V33.36h.5v4.07Zm0-7.12V26.25h.5v4.06Zm0-7.11V19.13h.5V23.2Zm0-7.12V12h.5v4.06Zm0-7.11V4.9h.5V9Z"/><rect class="cls-4" x="119.85" y="189.87" width="0.5" height="2"/><rect class="cls-4" x="95.75" y="-0.15" width="0.5" height="2"/><path class="cls-4" d="M95.84,186.81v-4.07h.5v4.07Zm0-7.11v-4.07h.5v4.07Zm0-7.12v-4.06h.5v4.06Zm0-7.11V161.4h.5v4.07Zm0-7.12v-4.06h.5v4.06Zm0-7.11v-4.06h.5v4.07Zm0-7.11v-4.07h.5v4.07Zm0-7.12V133h.5V137Zm0-7.11v-4.07h.5v4.07Zm0-7.12v-4.06h.5v4.06Zm0-7.11v-4.06h.5v4.06Zm0-7.11v-4.07h.5v4.07Zm0-7.12V97.38h.5v4.06Zm0-7.11V90.26h.5v4.07Zm0-7.12V83.15h.5v4.06Zm0-7.11V76h.5V80.1Zm0-7.11V68.92h.5V73Zm0-7.12V61.81h.5v4.06Zm0-7.11V54.69h.5v4.07Zm0-7.11V47.58h.5v4.07Zm0-7.12V40.47h.5v4.06Zm0-7.11V33.35h.5v4.07Zm0-7.12V26.24h.5V30.3Zm0-7.11V19.12h.5v4.07Zm0-7.11V12h.5v4.07Zm0-7.12V4.9h.5V9Z"/><rect class="cls-4" x="95.85" y="189.86" width="0.5" height="2"/><rect class="cls-4" x="71.75" y="-0.18" width="0.5" height="2"/><path class="cls-4" d="M71.84,186.8v-4.06h.5v4.06Zm0-7.11v-4.07h.5v4.07Zm0-7.12v-4.06h.5v4.06Zm0-7.11v-4.07h.5v4.07Zm0-7.12v-4.06h.5v4.06Zm0-7.11v-4.07h.5v4.07Zm0-7.12v-4.06h.5v4.06Zm0-7.11v-4.07h.5V137Zm0-7.12v-4.06h.5v4.06Zm0-7.11V118.7h.5v4.07Zm0-7.12v-4.06h.5v4.06Zm0-7.11v-4.07h.5v4.07Zm0-7.12V97.36h.5v4.06Zm0-7.11V90.24h.5v4.07Zm0-7.11V83.13h.5V87.2Zm0-7.12V76h.5v4.07Zm0-7.11V68.9h.5V73Zm0-7.12V61.79h.5v4.06Zm0-7.11V54.67h.5v4.07Zm0-7.12V47.56h.5v4.06Zm0-7.11V40.44h.5v4.07Zm0-7.12V33.33h.5v4.06Zm0-7.11V26.21h.5v4.07Zm0-7.12V19.1h.5v4.06Zm0-7.11V12h.5v4.07Zm0-7.12V4.87h.5V8.93Z"/><rect class="cls-4" x="71.85" y="189.85" width="0.5" height="2"/><rect class="cls-4" x="47.75" y="-0.19" width="0.5" height="2"/><path class="cls-4" d="M47.84,186.79v-4.06h.5v4.06Zm0-7.11v-4.07h.5v4.07Zm0-7.12V168.5h.5v4.06Zm0-7.11v-4.07h.5v4.07Zm0-7.12v-4.06h.5v4.06Zm0-7.11v-4.07h.5v4.07Zm0-7.11V140h.5v4.06Zm0-7.12v-4.07h.5V137Zm0-7.11v-4.07h.5v4.07Zm0-7.12V118.7h.5v4.06Zm0-7.11v-4.07h.5v4.07Zm0-7.12v-4.06h.5v4.06Zm0-7.11V97.35h.5v4.07Zm0-7.12V90.24h.5V94.3Zm0-7.11V83.12h.5v4.07Zm0-7.12V76h.5v4.06Zm0-7.11V68.89h.5V73Zm0-7.12V61.78h.5v4.06Zm0-7.11V54.66h.5v4.07Zm0-7.12V47.55h.5v4.06Zm0-7.11V40.43h.5V44.5Zm0-7.12V33.32h.5v4.06Zm0-7.11V26.2h.5v4.07Zm0-7.11V19.09h.5v4.07Zm0-7.12V12h.5V16Zm0-7.11V4.86h.5V8.93Z"/><rect class="cls-4" x="47.85" y="189.84" width="0.5" height="2"/><rect class="cls-4" x="23.79" y="-0.18" width="0.5" height="2"/><path class="cls-4" d="M23.88,186.79v-4.07h.5v4.07Zm0-7.12v-4.06h.5v4.06Zm0-7.11v-4.07h.5v4.07Zm0-7.12v-4.06h.5v4.06Zm0-7.11v-4.06h.5v4.06Zm0-7.11v-4.07h.5v4.07Zm0-7.12V140h.5v4.06Zm0-7.11v-4.07h.5V137Zm0-7.11v-4.07h.5v4.06Zm0-7.12V118.7h.5v4.06Zm0-7.11v-4.07h.5v4.07Zm0-7.12v-4.06h.5v4.06Zm0-7.11V97.35h.5v4.07Zm0-7.11V90.24h.5v4.07Zm0-7.12V83.13h.5v4.06Zm0-7.11V76h.5v4.07Zm0-7.12V68.9h.5V73Zm0-7.11V61.78h.5v4.07Zm0-7.11V54.67h.5v4.07Zm0-7.12V47.56h.5v4.06Zm0-7.11V40.44h.5v4.07Zm0-7.12V33.33h.5v4.06Zm0-7.11V26.21h.5v4.07Zm0-7.11V19.1h.5v4.07Zm0-7.12V12h.5v4.06Zm0-7.11V4.87h.5V8.94Z"/><rect class="cls-4" x="23.89" y="189.84" width="0.5" height="2"/><rect class="cls-4" x="743.69" y="372.19" width="0.5" height="2"/><path class="cls-4" d="M743.8,499.12v-4h.5v4Zm0-6.94v-4h.5v4Zm0-6.94v-4h.5v4Zm0-6.94v-4h.5v4Zm0-6.94v-4h.5v4Zm0-6.94v-4h.5v4Zm0-6.94v-4h.5v4Zm0-6.94v-4h.5v4Zm0-6.94v-4h.5v4Zm0-6.94v-4h.5v4Zm0-6.94v-4h.5v4Zm0-6.94v-4h.5v4Zm0-6.95v-4h.5v4Zm0-6.94v-4h.5v4Zm0-6.94v-4h.5v4Zm0-6.94v-4h.5v4Zm0-6.94v-4h.5v4Zm0-6.94v-4h.5v4Z"/><rect class="cls-4" x="743.81" y="502.09" width="0.5" height="2"/><rect class="cls-4" x="719.69" y="372.18" width="0.5" height="2"/><path class="cls-4" d="M719.8,499.11v-4h.5v4Zm0-6.94v-4h.5v4Zm0-6.94v-4h.5v4Zm0-6.94v-4h.5v4Zm0-6.94v-4h.5v4Zm0-6.94v-4h.5v4Zm0-6.94v-4h.5v4Zm0-6.94v-4h.5v4Zm0-6.94v-4h.5v4Zm0-6.94v-4h.5v4Zm0-6.94v-4h.5v4Zm0-6.94v-4h.5v4Zm0-6.94v-4h.5v4Zm0-6.94v-4h.5v4Zm0-6.94v-4h.5v4Zm0-6.95v-4h.5v4Zm0-6.94v-4h.5v4Zm0-6.94v-4h.5v4Z"/><rect class="cls-4" x="719.81" y="502.08" width="0.5" height="2"/><rect class="cls-4" x="695.69" y="372.21" width="0.5" height="2"/><path class="cls-4" d="M695.8,499.1v-4h.5v4Zm0-6.94v-4h.5v4Zm0-6.93v-4h.5v4Zm0-6.94v-4h.5v4Zm0-6.94v-4h.5v4Zm0-6.94v-4h.5v4Zm0-6.94v-4h.5v4Zm0-6.94v-4h.5v4Zm0-6.94v-4h.5v4Zm0-6.94v-4h.5v4Zm0-6.93v-4h.5v4Zm0-6.94v-4h.5v4Zm0-6.94v-4h.5v4Zm0-6.94v-4h.5v4Zm0-6.94v-4h.5v4Zm0-6.94v-4h.5v4Zm0-6.94v-4h.5v4Zm0-6.94v-4h.5v4Z"/><rect class="cls-4" x="695.81" y="502.08" width="0.5" height="2"/><rect class="cls-4" x="671.69" y="372.2" width="0.5" height="2"/><path class="cls-4" d="M671.8,499.09v-4h.5v4Zm0-6.94v-4h.5v4Zm0-6.93v-4h.5v4Zm0-6.94v-4h.5v4Zm0-6.94v-4h.5v4Zm0-6.94v-4h.5v4Zm0-6.94v-4h.5v4Zm0-6.94v-4h.5v4Zm0-6.94v-4h.5v4Zm0-6.94v-4h.5v4Zm0-6.93v-4h.5v4Zm0-6.94v-4h.5v4Zm0-6.94v-4h.5v4Zm0-6.94v-4h.5v4Zm0-6.94v-4h.5v4Zm0-6.94v-4h.5v4Zm0-6.94v-4h.5v4Zm0-6.93v-4h.5v4Z"/><rect class="cls-4" x="671.81" y="502.07" width="0.5" height="2"/><rect class="cls-4" x="647.69" y="372.19" width="0.5" height="2"/><path class="cls-4" d="M647.8,499.08v-4h.5v4Zm0-6.93v-4h.5v4Zm0-6.94v-4h.5v4Zm0-6.94v-4h.5v4Zm0-6.94v-4h.5v4Zm0-6.94v-4h.5v4Zm0-6.94v-4h.5v4Zm0-6.94v-4h.5v4Zm0-6.94v-4h.5v4Zm0-6.93v-4h.5v4Zm0-6.94v-4h.5v4Zm0-6.94v-4h.5v4Zm0-6.94v-4h.5v4Zm0-6.94v-4h.5v4Zm0-6.94v-4h.5v4Zm0-6.94v-4h.5v4Zm0-6.93v-4h.5v4Zm0-6.94v-4h.5v4Z"/><rect class="cls-4" x="647.81" y="502.06" width="0.5" height="2"/><rect class="cls-4" x="623.69" y="372.18" width="0.5" height="2"/><path class="cls-4" d="M623.8,499.08v-4h.5v4Zm0-6.94v-4h.5v4Zm0-6.94v-4h.5v4Zm0-6.94v-4h.5v4Zm0-6.94v-4h.5v4Zm0-6.94v-4h.5v4Zm0-6.94v-4h.5v4Zm0-6.94v-4h.5v4Zm0-6.93v-4h.5v4Zm0-6.94v-4h.5v4Zm0-6.94v-4h.5v4Zm0-6.94v-4h.5v4Zm0-6.94v-4h.5v4Zm0-6.94v-4h.5v4Zm0-6.94v-4h.5v4Zm0-6.94v-4h.5v4Zm0-6.93v-4h.5v4Zm0-6.94v-4h.5v4Z"/><rect class="cls-4" x="623.81" y="502.05" width="0.5" height="2"/><rect class="cls-4" x="599.69" y="372.17" width="0.5" height="2"/><path class="cls-4" d="M599.8,499.07v-4h.5v4Zm0-6.94v-4h.5v4Zm0-6.94v-4h.5v4Zm0-6.94v-4h.5v4Zm0-6.94v-4h.5v4Zm0-6.94v-4h.5v4Zm0-6.94v-4h.5v4Zm0-6.93v-4h.5v4Zm0-6.94v-4h.5v4Zm0-6.94v-4h.5v4Zm0-6.94v-4h.5v4Zm0-6.94v-4h.5v4Zm0-6.94v-4h.5v4Zm0-6.94v-4h.5v4Zm0-6.94v-4h.5v4Zm0-6.93v-4h.5v4Zm0-6.94v-4h.5v4Zm0-6.94v-4h.5v4Z"/><rect class="cls-4" x="599.81" y="502.04" width="0.5" height="2"/><rect class="cls-4" x="575.69" y="372.16" width="0.5" height="2"/><path class="cls-4" d="M575.8,499.06v-4h.5v4Zm0-6.94v-4h.5v4Zm0-6.94v-4h.5v4Zm0-6.94v-4h.5v4Zm0-6.94v-4h.5v4Zm0-6.94v-4h.5v4Zm0-6.93v-4h.5v4Zm0-6.94v-4h.5v4Zm0-6.94v-4h.5v4Zm0-6.94v-4h.5v4Zm0-6.94v-4h.5v4Zm0-6.94v-4h.5v4Zm0-6.94v-4h.5v4Zm0-6.94v-4h.5v4Zm0-6.93v-4h.5v4Zm0-6.94v-4h.5v4Zm0-6.94v-4h.5v4Zm0-6.94v-4h.5v4Z"/><rect class="cls-4" x="575.81" y="502.03" width="0.5" height="2"/><rect class="cls-4" x="551.69" y="372.15" width="0.5" height="2"/><path class="cls-4" d="M551.8,499.05v-4h.5v4Zm0-6.94v-4h.5v4Zm0-6.94v-4h.5v4Zm0-6.94v-4h.5v4Zm0-6.94v-4h.5v4Zm0-6.94v-4h.5v4Zm0-6.93v-4h.5v4Zm0-6.94v-4h.5v4Zm0-6.94v-4h.5v4Zm0-6.94v-4h.5v4Zm0-6.94v-4h.5v4Zm0-6.94v-4h.5v4Zm0-6.94v-4h.5v4Zm0-6.93v-4h.5v4Zm0-6.94v-4h.5v4Zm0-6.94v-4h.5v4Zm0-6.94v-4h.5v4Zm0-6.94v-4h.5v4Z"/><rect class="cls-4" x="551.81" y="502.02" width="0.5" height="2"/><rect class="cls-4" x="527.69" y="372.14" width="0.5" height="2"/><path class="cls-4" d="M527.8,499v-4h.5v4Zm0-6.94v-4h.5v4Zm0-6.94v-4h.5v4Zm0-6.94v-4h.5v4Zm0-6.94v-4h.5v4Zm0-6.93v-4h.5v4Zm0-6.94v-4h.5v4Zm0-6.94v-4h.5v4Zm0-6.94v-4h.5v4Zm0-6.94v-4h.5v4Zm0-6.94v-4h.5v4Zm0-6.94v-4h.5v4Zm0-6.94v-4h.5v4Zm0-6.93v-4h.5v4Zm0-6.94v-4h.5v4Zm0-6.94v-4h.5v4Zm0-6.94v-4h.5v4Zm0-6.94v-4h.5v4Z"/><rect class="cls-4" x="527.81" y="502.01" width="0.5" height="2"/><rect class="cls-4" x="503.69" y="372.13" width="0.5" height="2"/><path class="cls-4" d="M503.8,499v-4h.5v4Zm0-6.94v-4h.5v4Zm0-6.94v-4h.5v4Zm0-6.94v-4h.5v4Zm0-6.93v-4h.5v4Zm0-6.94v-4h.5v4Zm0-6.94v-4h.5v4Zm0-6.94v-4h.5v4Zm0-6.94v-4h.5v4Zm0-6.94v-4h.5v4Zm0-6.94v-4h.5v4Zm0-6.94v-4h.5v4Zm0-6.93v-4h.5v4Zm0-6.94v-4h.5v4Zm0-6.94v-4h.5v4Zm0-6.94v-4h.5v4Zm0-6.94v-4h.5v4Zm0-6.94v-4h.5v4Z"/><rect class="cls-4" x="503.81" y="502" width="0.5" height="2"/><rect class="cls-4" x="479.69" y="372.12" width="0.5" height="2"/><path class="cls-4" d="M479.8,499v-4h.5v4Zm0-6.94v-4h.5v4Zm0-6.94v-4h.5v4Zm0-6.93v-4h.5v4Zm0-6.94v-4h.5v4Zm0-6.94v-4h.5v4Zm0-6.94v-4h.5v4Zm0-6.94v-4h.5v4Zm0-6.94v-4h.5v4Zm0-6.94v-4h.5v4Zm0-6.94v-4h.5v4Zm0-6.93v-4h.5v4Zm0-6.94v-4h.5v4Zm0-6.94v-4h.5v4Zm0-6.94v-4h.5v4Zm0-6.94v-4h.5v4Zm0-6.94v-4h.5v4Zm0-6.94v-4h.5v4Z"/><rect class="cls-4" x="479.81" y="501.99" width="0.5" height="2"/><rect class="cls-4" x="455.69" y="372.12" width="0.5" height="2"/><path class="cls-4" d="M455.8,499v-4h.5v4Zm0-6.94v-4h.5v4Zm0-6.94v-4h.5v4Zm0-6.93v-4h.5v4Zm0-6.94v-4h.5v4Zm0-6.94v-4h.5v4Zm0-6.94v-4h.5v4Zm0-6.94v-4h.5v4Zm0-6.94v-4h.5v4Zm0-6.94v-4h.5v4Zm0-6.93v-4h.5v4Zm0-6.94v-4h.5v4Zm0-6.94v-4h.5v4Zm0-6.94v-4h.5v4Zm0-6.94v-4h.5v4Zm0-6.94v-4h.5v4Zm0-6.94v-4h.5v4Zm0-6.94v-4h.5v4Z"/><rect class="cls-4" x="455.81" y="501.99" width="0.5" height="2"/><rect class="cls-4" x="431.69" y="372.11" width="0.5" height="2"/><path class="cls-4" d="M431.8,499v-4h.5v4Zm0-6.94v-4h.5v4Zm0-6.93v-4h.5v4Zm0-6.94v-4h.5v4Zm0-6.94v-4h.5v4Zm0-6.94v-4h.5v4Zm0-6.94v-4h.5v4Zm0-6.94v-4h.5v4Zm0-6.94v-4h.5v4Zm0-6.94v-4h.5v4Zm0-6.93v-4h.5v4Zm0-6.94v-4h.5v4Zm0-6.94v-4h.5v4Zm0-6.94v-4h.5v4Zm0-6.94v-4h.5v4Zm0-6.94v-4h.5v4Zm0-6.94v-4h.5v4Zm0-6.93v-4h.5v4Z"/><rect class="cls-4" x="431.81" y="501.98" width="0.5" height="2"/><rect class="cls-4" x="407.69" y="372.1" width="0.5" height="2"/><path class="cls-4" d="M407.8,499v-4h.5v4Zm0-6.93v-4h.5v4Zm0-6.94v-4h.5v4Zm0-6.94v-4h.5v4Zm0-6.94v-4h.5v4Zm0-6.94v-4h.5v4Zm0-6.94v-4h.5v4Zm0-6.94v-4h.5v4Zm0-6.94v-4h.5v4Zm0-6.93v-4h.5v4Zm0-6.94v-4h.5v4Zm0-6.94v-4h.5v4Zm0-6.94v-4h.5v4Zm0-6.94v-4h.5v4Zm0-6.94v-4h.5v4Zm0-6.94v-4h.5v4Zm0-6.94v-4h.5v4Zm0-6.93v-4h.5v4Z"/><rect class="cls-4" x="407.81" y="501.97" width="0.5" height="2"/><rect class="cls-4" x="383.69" y="372.09" width="0.5" height="2"/><path class="cls-4" d="M383.8,499v-4h.5v4Zm0-6.94v-4h.5v4Zm0-6.94v-4h.5v4Zm0-6.94v-4h.5v4Zm0-6.94v-4h.5v4Zm0-6.94v-4h.5v4Zm0-6.94v-4h.5v4Zm0-6.94v-4h.5v4Zm0-6.93v-4h.5v4Zm0-6.94v-4h.5v4Zm0-6.94v-4h.5v4Zm0-6.94v-4h.5v4Zm0-6.94v-4h.5v4Zm0-6.94v-4h.5v4Zm0-6.94v-4h.5v4Zm0-6.94v-4h.5v4Zm0-6.93v-4h.5v4Zm0-6.94v-4h.5v4Z"/><rect class="cls-4" x="383.81" y="501.96" width="0.5" height="2"/><rect class="cls-4" x="359.69" y="372.08" width="0.5" height="2"/><path class="cls-4" d="M359.8,499v-4h.5v4Zm0-6.94v-4h.5v4Zm0-6.94v-4h.5v4Zm0-6.94v-4h.5v4Zm0-6.94v-4h.5v4Zm0-6.94v-4h.5v4Zm0-6.94v-4h.5v4Zm0-6.93v-4h.5v4Zm0-6.94v-4h.5v4Zm0-6.94v-4h.5v4Zm0-6.94v-4h.5v4Zm0-6.94v-4h.5v4Zm0-6.94v-4h.5v4Zm0-6.94v-4h.5v4Zm0-6.94v-4h.5v4Zm0-6.93v-4h.5v4Zm0-6.94v-4h.5v4Zm0-6.94v-4h.5v4Z"/><rect class="cls-4" x="359.81" y="501.95" width="0.5" height="2"/><rect class="cls-4" x="335.75" y="372.09" width="0.5" height="2"/><path class="cls-4" d="M335.87,499v-4h.5v4Zm0-6.94v-4h.5v4Zm0-6.94v-4h.5v4Zm0-6.93v-4h.5v4Zm0-6.94v-4h.5v4Zm0-6.94v-4h.5v4Zm0-6.94v-4h.5v4Zm0-6.94v-4h.5v4Zm0-6.94v-4h.5v4Zm0-6.94v-4h.5v4Zm0-6.93v-4h.5v4Zm0-6.94v-4h.5v4Zm0-6.94v-4h.5v4Zm0-6.94v-4h.5v4Zm0-6.94v-4h.5v4Zm0-6.94v-4h.5v4Zm0-6.94v-4h.5v4Zm0-6.94v-4h.5v4Z"/><rect class="cls-4" x="335.87" y="501.96" width="0.5" height="2"/><rect class="cls-4" x="311.75" y="372.08" width="0.5" height="2"/><path class="cls-4" d="M311.87,499v-4h.5v4Zm0-6.94v-4h.5v4Zm0-6.93v-4h.5v4Zm0-6.94v-4h.5v4Zm0-6.94v-4h.5v4Zm0-6.94v-4h.5v4Zm0-6.94v-4h.5v4Zm0-6.94v-4h.5v4Zm0-6.94v-4h.5v4Zm0-6.93v-4h.5v4Zm0-6.94v-4h.5v4Zm0-6.94v-4h.5v4Zm0-6.94v-4h.5v4Zm0-6.94v-4h.5v4Zm0-6.94v-4h.5v4Zm0-6.94v-4h.5v4Zm0-6.94v-4h.5v4Zm0-6.93v-4h.5v4Z"/><rect class="cls-4" x="311.87" y="501.95" width="0.5" height="2"/><rect class="cls-4" x="287.75" y="372.07" width="0.5" height="2"/><path class="cls-4" d="M287.87,499v-4h.5v4Zm0-6.93v-4h.5v4Zm0-6.94v-4h.5v4Zm0-6.94v-4h.5v4Zm0-6.94v-4h.5v4Zm0-6.94v-4h.5v4Zm0-6.94v-4h.5v4Zm0-6.94v-4h.5v4Zm0-6.94v-4h.5v4Zm0-6.93v-4h.5v4Zm0-6.94v-4h.5v4Zm0-6.94v-4h.5v4Zm0-6.94v-4h.5v4Zm0-6.94v-4h.5v4Zm0-6.94v-4h.5v4Zm0-6.94v-4h.5v4Zm0-6.94v-4h.5v4Zm0-6.93v-4h.5v4Z"/><rect class="cls-4" x="287.87" y="501.94" width="0.5" height="2"/><rect class="cls-4" x="263.75" y="372.06" width="0.5" height="2"/><path class="cls-4" d="M263.87,499v-4h.5v4Zm0-6.94v-4h.5v4Zm0-6.94v-4h.5v4Zm0-6.94v-4h.5v4Zm0-6.94v-4h.5v4Zm0-6.94v-4h.5v4Zm0-6.94v-4h.5v4Zm0-6.94v-4h.5v4Zm0-6.93v-4h.5v4Zm0-6.94v-4h.5v4Zm0-6.94v-4h.5v4Zm0-6.94v-4h.5v4Zm0-6.94v-4h.5v4Zm0-6.94v-4h.5v4Zm0-6.94v-4h.5v4Zm0-6.94v-4h.5v4Zm0-6.93v-4h.5v4Zm0-6.94v-4h.5v4Z"/><rect class="cls-4" x="263.87" y="501.93" width="0.5" height="2"/><rect class="cls-4" x="239.75" y="372.05" width="0.5" height="2"/><path class="cls-4" d="M239.87,499v-4h.5v4Zm0-6.94v-4h.5v4Zm0-6.94v-4h.5v4Zm0-6.94v-4h.5v4Zm0-6.94v-4h.5v4Zm0-6.94v-4h.5v4Zm0-6.94v-4h.5v4Zm0-6.93v-4h.5v4Zm0-6.94v-4h.5v4Zm0-6.94v-4h.5v4Zm0-6.94v-4h.5v4Zm0-6.94v-4h.5v4Zm0-6.94v-4h.5v4Zm0-6.94v-4h.5v4Zm0-6.94v-4h.5v4Zm0-6.93v-4h.5v4Zm0-6.94v-4h.5v4Zm0-6.94v-4h.5v4Z"/><rect class="cls-4" x="239.87" y="501.92" width="0.5" height="2"/><rect class="cls-4" x="215.75" y="372.04" width="0.5" height="2"/><path class="cls-4" d="M215.87,498.94v-4h.5v4Zm0-6.94v-4h.5v4Zm0-6.94v-4h.5v4Zm0-6.94v-4h.5v4Zm0-6.94v-4h.5v4Zm0-6.94v-4h.5v4Zm0-6.93v-4h.5v4Zm0-6.94v-4h.5v4Zm0-6.94v-4h.5v4Zm0-6.94v-4h.5v4Zm0-6.94v-4h.5v4Zm0-6.94v-4h.5v4Zm0-6.94v-4h.5v4Zm0-6.94v-4h.5v4Zm0-6.93v-4h.5v4Zm0-6.94v-4h.5v4Zm0-6.94v-4h.5v4Zm0-6.94v-4h.5v4Z"/><rect class="cls-4" x="215.87" y="501.91" width="0.5" height="2"/><rect class="cls-4" x="191.75" y="372.03" width="0.5" height="2"/><path class="cls-4" d="M191.87,498.93v-4h.5v4Zm0-6.94v-4h.5v4Zm0-6.94v-4h.5v4Zm0-6.94v-4h.5v4Zm0-6.94v-4h.5v4Zm0-6.94v-4h.5v4Zm0-6.93v-4h.5v4Zm0-6.94v-4h.5v4Zm0-6.94v-4h.5v4Zm0-6.94v-4h.5v4Zm0-6.94v-4h.5v4Zm0-6.94v-4h.5v4Zm0-6.94v-4h.5v4Zm0-6.94v-4h.5v4Zm0-6.93v-4h.5v4Zm0-6.94v-4h.5v4Zm0-6.94v-4h.5v4Zm0-6.94v-4h.5v4Z"/><rect class="cls-4" x="191.87" y="501.9" width="0.5" height="2"/><rect class="cls-4" x="167.75" y="372.02" width="0.5" height="2"/><path class="cls-4" d="M167.87,498.92v-4h.5v4Zm0-6.94v-4h.5v4Zm0-6.94v-4h.5v4Zm0-6.94v-4h.5v4Zm0-6.94v-4h.5v4Zm0-6.93v-4h.5v4Zm0-6.94v-4h.5v4Zm0-6.94v-4h.5v4Zm0-6.94v-4h.5v4Zm0-6.94v-4h.5v4Zm0-6.94v-4h.5v4Zm0-6.94v-4h.5v4Zm0-6.94v-4h.5v4Zm0-6.93v-4h.5v4Zm0-6.94v-4h.5v4Zm0-6.94v-4h.5v4Zm0-6.94v-4h.5v4Zm0-6.94v-4h.5v4Z"/><rect class="cls-4" x="167.87" y="501.89" width="0.5" height="2"/><rect class="cls-4" x="143.75" y="372.01" width="0.5" height="2"/><path class="cls-4" d="M143.87,498.91v-4h.5v4Zm0-6.94v-4h.5v4Zm0-6.94v-4h.5v4Zm0-6.94v-4h.5v4Zm0-6.93v-4h.5v4Zm0-6.94v-4h.5v4Zm0-6.94v-4h.5v4Zm0-6.94v-4h.5v4Zm0-6.94v-4h.5v4Zm0-6.94v-4h.5v4Zm0-6.94v-4h.5v4Zm0-6.94v-4h.5v4Zm0-6.93v-4h.5v4Zm0-6.94v-4h.5v4Zm0-6.94v-4h.5v4Zm0-6.94v-4h.5v4Zm0-6.94v-4h.5v4Zm0-6.94v-4h.5v4Z"/><rect class="cls-4" x="143.87" y="501.88" width="0.5" height="2"/><rect class="cls-4" x="119.75" y="372" width="0.5" height="2"/><path class="cls-4" d="M119.87,498.9v-4h.5v4Zm0-6.94v-4h.5v4Zm0-6.94v-4h.5v4Zm0-6.93v-4h.5v4Zm0-6.94v-4h.5v4Zm0-6.94v-4h.5v4Zm0-6.94v-4h.5v4Zm0-6.94v-4h.5v4Zm0-6.94v-4h.5v4Zm0-6.94v-4h.5v4Zm0-6.94v-4h.5v4Zm0-6.93v-4h.5v4Zm0-6.94v-4h.5v4Zm0-6.94v-4h.5v4Zm0-6.94v-4h.5v4Zm0-6.94v-4h.5v4Zm0-6.94v-4h.5v4Zm0-6.94v-4h.5v4Z"/><rect class="cls-4" x="119.87" y="501.87" width="0.5" height="2"/><rect class="cls-4" x="95.75" y="372" width="0.5" height="2"/><path class="cls-4" d="M95.87,498.89v-4h.5v4Zm0-6.94v-4h.5v4Zm0-6.93v-4h.5v4Zm0-6.94v-4h.5v4Zm0-6.94v-4h.5v4Zm0-6.94v-4h.5v4Zm0-6.94v-4h.5v4Zm0-6.94v-4h.5v4Zm0-6.94v-4h.5v4Zm0-6.94v-4h.5v4Zm0-6.93v-4h.5v4Zm0-6.94v-4h.5v4Zm0-6.94v-4h.5v4Zm0-6.94v-4h.5v4Zm0-6.94v-4h.5v4Zm0-6.94v-4h.5v4Zm0-6.94v-4h.5v4Zm0-6.94v-4h.5v4Z"/><rect class="cls-4" x="95.87" y="501.87" width="0.5" height="2"/><rect class="cls-4" x="71.75" y="371.97" width="0.5" height="2"/><path class="cls-4" d="M71.87,498.88v-4h.5v4Zm0-6.94v-4h.5v4Zm0-6.94v-4h.5v4Zm0-6.94v-4h.5v4Zm0-6.93v-4h.5v4Zm0-6.94v-4h.5v4Zm0-6.94v-4h.5v4Zm0-6.94v-4h.5v4Zm0-6.94v-4h.5v4Zm0-6.94v-4h.5v4Zm0-6.94v-4h.5v4Zm0-6.94v-4h.5v4Zm0-6.94v-4h.5v4Zm0-6.94v-4h.5v4Zm0-6.94v-4h.5v4Zm0-6.94v-4h.5v4Zm0-6.94v-4h.5v4Zm0-6.94v-4h.5v4Z"/><rect class="cls-4" x="71.87" y="501.86" width="0.5" height="2"/><rect class="cls-4" x="47.75" y="371.96" width="0.5" height="2"/><path class="cls-4" d="M47.87,498.87v-4h.5v4Zm0-6.94v-4h.5v4Zm0-6.94v-4h.5v4Zm0-6.93v-4h.5v4Zm0-6.94v-4h.5v4Zm0-6.94v-4h.5v4Zm0-6.94v-4h.5v4Zm0-6.94v-4h.5v4Zm0-6.94v-4h.5v4Zm0-6.94v-4h.5v4Zm0-6.94v-4h.5v4Zm0-6.94v-4h.5v4Zm0-6.94v-4h.5v4Zm0-6.94v-4h.5v4Zm0-6.94v-4h.5v4Zm0-6.94v-4h.5v4Zm0-6.94v-4h.5v4Zm0-6.94v-4h.5v4Z"/><rect class="cls-4" x="47.87" y="501.85" width="0.5" height="2"/><rect class="cls-4" x="23.79" y="371.97" width="0.5" height="2"/><path class="cls-4" d="M23.91,498.87v-4h.5v4Zm0-6.94v-4h.5v4Zm0-6.94v-4h.5v4Zm0-6.94v-4h.5v4Zm0-6.94v-4h.5v4Zm0-6.94v-4h.5v4Zm0-6.94v-4h.5v4Zm0-6.93v-4h.5v4Zm0-6.94v-4h.5v4Zm0-6.94v-4h.5v4Zm0-6.94v-4h.5v4Zm0-6.94v-4h.5v4Zm0-6.94v-4h.5v4Zm0-6.94v-4h.5v4Zm0-6.94v-4h.5v4Zm0-6.93v-4h.5v4Zm0-6.94v-4h.5v4Zm0-6.94v-4h.5v4Z"/><rect class="cls-4" x="23.91" y="501.84" width="0.5" height="2"/><rect x="743.75" y="72.01" width="0.5" height="24"/><rect x="720" y="83.75" width="24" height="0.5"/><rect x="719.75" y="72" width="0.5" height="24"/><text class="cls-5" transform="translate(724.9 66.75)">8</text><rect class="cls-4" y="95.75" width="2" height="0.5"/><path class="cls-4" d="M859,96.47h-4V96h4Zm-7,0h-4V96h4Zm-7,0h-4V96h4Zm-7,0h-4V96h4Zm-7,0h-4V96h4Zm-7,0h-4V96h4Zm-7,0h-4V96h4Zm-7,0h-4V96h4Zm-7,0h-4V96h4Zm-7,0h-4V96h4Zm-7,0h-4V96h4Zm-7,0h-4V96h4Zm-7,0h-4V96h4Zm-7,0h-4v-.5h4Zm-7,0h-4v-.5h4Zm-7,0h-4v-.5h4Zm-7,0h-4v-.5h4Zm-7,0h-4v-.5h4Zm-7,0h-4v-.5h4Zm-7,0h-4v-.5h4Zm-7,0h-4v-.5h4Zm-7,0h-4v-.5h4Zm-7,0h-4v-.5h4Zm-7,0h-4v-.5h4Zm-7,0h-4v-.5h4Zm-7,0h-4v-.5h4Zm-7,0h-4v-.5h4Zm-7,0h-4v-.5h4Zm-7,0h-4v-.5h4Zm-7,0h-4v-.5h4Zm-7,0h-4v-.5h4Zm-7,0h-4v-.5h4Zm-7,0h-4v-.5h4Zm-7,0h-4v-.5h4Zm-7,0h-4v-.5h4Zm-7,0h-4v-.5h4Zm-7,0h-4v-.5h4Zm-7,0h-4v-.5h4Zm-7,0h-4v-.5h4Zm-7,0h-4v-.5h4Zm-7,0h-4v-.5h4Zm-7,0h-4v-.5h4Zm-7,0h-4v-.5h4Zm-7,0h-4v-.5h4Zm-7,0h-4v-.5h4Zm-7,0h-4v-.5h4Zm-7,0h-4v-.5h4Zm-7,0h-4v-.5h4Zm-7,0h-4v-.5h4Zm-7,0h-4v-.5h4Zm-7,0h-4v-.5h4Zm-7,0h-4v-.5h4Zm-7,0h-4v-.5h4Zm-7,0h-4v-.5h4Zm-7,0h-4v-.5h4Zm-7,0h-4v-.5h4Zm-7,0h-4v-.5h4Zm-7,0h-4v-.5h4Zm-7,0h-4v-.5h4Zm-7,0h-4v-.5h4Zm-7,0h-4v-.5h4Zm-7,0h-4v-.5h4Zm-7,0h-4v-.5h4Zm-7,0h-4v-.5h4Zm-7,0h-4v-.5h4Zm-7,0h-4v-.5h4Zm-7,0h-4v-.5h4Zm-7,0h-4v-.5h4Zm-7,0h-4v-.5h4Zm-7,0h-4v-.5h4Zm-7,0h-4v-.5h4Zm-7,0h-4v-.5h4Zm-7,0h-4v-.5h4Zm-7,0h-4v-.5h4Zm-7,0h-4v-.5h4Zm-7,0h-4v-.5h4Zm-7,0h-4v-.5h4Zm-7,0h-4v-.5h4Zm-7,0h-4v-.5h4Zm-7,0h-4v-.5h4Zm-7,0h-4v-.5h4Zm-7,0h-4v-.5h4Zm-7,0h-4v-.5h4Zm-7,0h-4v-.5h4Zm-7,0h-4v-.5h4Zm-7,0h-4v-.5h4Zm-7,0h-4v-.5h4Zm-7,0h-4v-.5h4Zm-7,0h-4v-.5h4Zm-7,0h-4v-.5h4Zm-7,0h-4v-.5h4Zm-7,0h-4v-.5h4Zm-7,0h-4v-.5h4Zm-7,0h-4v-.5h4Zm-7,0h-4v-.5h4Zm-7,0h-4v-.5h4Zm-7,0h-4v-.5h4Zm-7,0h-4v-.5h4Zm-7,0h-4v-.5h4Zm-7,0h-4v-.5h4Zm-7,0h-4v-.5h4Zm-7,0h-4v-.5h4Zm-7,0h-4v-.5h4Zm-7,0h-4v-.5h4Zm-7,0h-4v-.5h4Zm-7,0h-4v-.5h4Zm-7,0h-4v-.5h4Zm-7,0h-4v-.5h4Zm-7,0h-4v-.5h4Zm-7,0h-4v-.5h4Zm-7,0h-4v-.5h4Zm-7,0h-4v-.5h4Zm-7,0h-4v-.5h4Zm-7,0h-4v-.5h4Zm-7,0h-4v-.5h4Zm-7,0h-4v-.5h4Zm-7,0h-4v-.5h4Zm-7,0h-4v-.5h4Zm-7,0h-4v-.5h4Zm-7,0h-4v-.5h4Zm-7,0H12v-.5h4Zm-7,0H5v-.5H9Z"/><rect class="cls-4" x="862" y="95.97" width="2" height="0.5"/><rect class="cls-4" y="119.97" width="2" height="0.5"/><path class="cls-4" d="M859,120.47h-4V120h4Zm-7,0h-4V120h4Zm-7,0h-4V120h4Zm-7,0h-4V120h4Zm-7,0h-4V120h4Zm-7,0h-4V120h4Zm-7,0h-4V120h4Zm-7,0h-4V120h4Zm-7,0h-4V120h4Zm-7,0h-4V120h4Zm-7,0h-4V120h4Zm-7,0h-4V120h4Zm-7,0h-4V120h4Zm-7,0h-4V120h4Zm-7,0h-4V120h4Zm-7,0h-4V120h4Zm-7,0h-4V120h4Zm-7,0h-4V120h4Zm-7,0h-4V120h4Zm-7,0h-4V120h4Zm-7,0h-4V120h4Zm-7,0h-4V120h4Zm-7,0h-4V120h4Zm-7,0h-4V120h4Zm-7,0h-4V120h4Zm-7,0h-4V120h4Zm-7,0h-4V120h4Zm-7,0h-4V120h4Zm-7,0h-4V120h4Zm-7,0h-4V120h4Zm-7,0h-4V120h4Zm-7,0h-4V120h4Zm-7,0h-4V120h4Zm-7,0h-4V120h4Zm-7,0h-4V120h4Zm-7,0h-4V120h4Zm-7,0h-4V120h4Zm-7,0h-4V120h4Zm-7,0h-4V120h4Zm-7,0h-4V120h4Zm-7,0h-4V120h4Zm-7,0h-4V120h4Zm-7,0h-4V120h4Zm-7,0h-4V120h4Zm-7,0h-4V120h4Zm-7,0h-4V120h4Zm-7,0h-4V120h4Zm-7,0h-4V120h4Zm-7,0h-4V120h4Zm-7,0h-4V120h4Zm-7,0h-4V120h4Zm-7,0h-4V120h4Zm-7,0h-4V120h4Zm-7,0h-4V120h4Zm-7,0h-4V120h4Zm-7,0h-4V120h4Zm-7,0h-4V120h4Zm-7,0h-4V120h4Zm-7,0h-4V120h4Zm-7,0h-4V120h4Zm-7,0h-4V120h4Zm-7,0h-4V120h4Zm-7,0h-4V120h4Zm-7,0h-4V120h4Zm-7,0h-4V120h4Zm-7,0h-4V120h4Zm-7,0h-4V120h4Zm-7,0h-4V120h4Zm-7,0h-4V120h4Zm-7,0h-4V120h4Zm-7,0h-4V120h4Zm-7,0h-4V120h4Zm-7,0h-4V120h4Zm-7,0h-4V120h4Zm-7,0h-4V120h4Zm-7,0h-4V120h4Zm-7,0h-4V120h4Zm-7,0h-4V120h4Zm-7,0h-4V120h4Zm-7,0h-4V120h4Zm-7,0h-4V120h4Zm-7,0h-4V120h4Zm-7,0h-4V120h4Zm-7,0h-4V120h4Zm-7,0h-4V120h4Zm-7,0h-4V120h4Zm-7,0h-4V120h4Zm-7,0h-4V120h4Zm-7,0h-4V120h4Zm-7,0h-4V120h4Zm-7,0h-4V120h4Zm-7,0h-4V120h4Zm-7,0h-4V120h4Zm-7,0h-4V120h4Zm-7,0h-4V120h4Zm-7,0h-4V120h4Zm-7,0h-4V120h4Zm-7,0h-4V120h4Zm-7,0h-4V120h4Zm-7,0h-4V120h4Zm-7,0h-4V120h4Zm-7,0h-4V120h4Zm-7,0h-4V120h4Zm-7,0h-4V120h4Zm-7,0h-4V120h4Zm-7,0h-4V120h4Zm-7,0h-4V120h4Zm-7,0h-4V120h4Zm-7,0h-4V120h4Zm-7,0h-4V120h4Zm-7,0h-4V120h4Zm-7,0h-4V120h4Zm-7,0h-4V120h4Zm-7,0h-4V120h4Zm-7,0h-4V120h4Zm-7,0h-4V120h4Zm-7,0h-4V120h4Zm-7,0h-4V120h4Zm-7,0h-4V120h4Zm-7,0h-4V120h4Zm-7,0H12V120h4Zm-7,0H5V120H9Z"/><rect class="cls-4" x="862" y="119.97" width="2" height="0.5"/><rect class="cls-4" y="143.75" width="2" height="0.5"/><path class="cls-4" d="M859,144.45h-4V144h4Zm-7,0h-4V144h4Zm-7,0h-4V144h4Zm-7,0h-4v-.5h4Zm-7,0h-4v-.5h4Zm-7,0h-4v-.5h4Zm-7,0h-4v-.5h4Zm-7,0h-4v-.5h4Zm-7,0h-4v-.5h4Zm-7,0h-4v-.5h4Zm-7,0h-4v-.5h4Zm-7,0h-4v-.5h4Zm-7,0h-4v-.5h4Zm-7,0h-4v-.5h4Zm-7,0h-4v-.5h4Zm-7,0h-4v-.5h4Zm-7,0h-4v-.5h4Zm-7,0h-4v-.5h4Zm-7,0h-4v-.5h4Zm-7,0h-4v-.5h4Zm-7,0h-4v-.5h4Zm-7,0h-4v-.5h4Zm-7,0h-4v-.5h4Zm-7,0h-4v-.5h4Zm-7,0h-4v-.5h4Zm-7,0h-4v-.5h4Zm-7,0h-4v-.5h4Zm-7,0h-4v-.5h4Zm-7,0h-4v-.5h4Zm-7,0h-4v-.5h4Zm-7,0h-4v-.5h4Zm-7,0h-4v-.5h4Zm-7,0h-4v-.5h4Zm-7,0h-4v-.5h4Zm-7,0h-4v-.5h4Zm-7,0h-4v-.5h4Zm-7,0h-4v-.5h4Zm-7,0h-4v-.5h4Zm-7,0h-4v-.5h4Zm-7,0h-4v-.5h4Zm-7,0h-4v-.5h4Zm-7,0h-4v-.5h4Zm-7,0h-4v-.5h4Zm-7,0h-4v-.5h4Zm-7,0h-4v-.5h4Zm-7,0h-4v-.5h4Zm-7,0h-4v-.5h4Zm-7,0h-4v-.5h4Zm-7,0h-4v-.5h4Zm-7,0h-4v-.5h4Zm-7,0h-4v-.5h4Zm-7,0h-4v-.5h4Zm-7,0h-4v-.5h4Zm-7,0h-4v-.5h4Zm-7,0h-4v-.5h4Zm-7,0h-4v-.5h4Zm-7,0h-4v-.5h4Zm-7,0h-4v-.5h4Zm-7,0h-4v-.5h4Zm-7,0h-4v-.5h4Zm-7,0h-4v-.5h4Zm-7,0h-4v-.5h4Zm-7,0h-4v-.5h4Zm-7,0h-4v-.5h4Zm-7,0h-4v-.5h4Zm-7,0h-4v-.5h4Zm-7,0h-4v-.5h4Zm-7,0h-4v-.5h4Zm-7,0h-4v-.5h4Zm-7,0h-4v-.5h4Zm-7,0h-4v-.5h4Zm-7,0h-4v-.5h4Zm-7,0h-4v-.5h4Zm-7,0h-4v-.5h4Zm-7,0h-4v-.5h4Zm-7,0h-4v-.5h4Zm-7,0h-4v-.5h4Zm-7,0h-4v-.5h4Zm-7,0h-4v-.5h4Zm-7,0h-4v-.5h4Zm-7,0h-4v-.5h4Zm-7,0h-4v-.5h4Zm-7,0h-4v-.5h4Zm-7,0h-4v-.5h4Zm-7,0h-4v-.5h4Zm-7,0h-4v-.5h4Zm-7,0h-4v-.5h4Zm-7,0h-4v-.5h4Zm-7,0h-4v-.5h4Zm-7,0h-4v-.5h4Zm-7,0h-4v-.5h4Zm-7,0h-4v-.5h4Zm-7,0h-4v-.5h4Zm-7,0h-4v-.5h4Zm-7,0h-4v-.5h4Zm-7,0h-4v-.5h4Zm-7,0h-4v-.5h4Zm-7,0h-4v-.5h4Zm-7,0h-4v-.5h4Zm-7,0h-4v-.5h4Zm-7,0h-4v-.5h4Zm-7,0h-4v-.5h4Zm-7,0h-4v-.5h4Zm-7,0h-4v-.5h4Zm-7,0h-4v-.5h4Zm-7,0h-4v-.5h4Zm-7,0h-4v-.5h4Zm-7,0h-4v-.5h4Zm-7,0h-4v-.5h4Zm-7,0h-4v-.5h4Zm-7,0h-4v-.5h4Zm-7,0h-4v-.5h4Zm-7,0h-4v-.5h4Zm-7,0h-4v-.5h4Zm-7,0h-4v-.5h4Zm-7,0h-4v-.5h4Zm-7,0h-4v-.5h4Zm-7,0h-4v-.5h4Zm-7,0h-4v-.5h4Zm-7,0h-4v-.5h4Zm-7,0H12v-.5h4Zm-7,0H5v-.5H9Z"/><rect class="cls-4" x="862" y="143.95" width="2" height="0.5"/><rect class="cls-4" y="167.75" width="2" height="0.5"/><path class="cls-4" d="M859,168.45h-4V168h4Zm-7,0h-4V168h4Zm-7,0h-4V168h4Zm-7,0h-4v-.5h4Zm-7,0h-4v-.5h4Zm-7,0h-4v-.5h4Zm-7,0h-4v-.5h4Zm-7,0h-4v-.5h4Zm-7,0h-4v-.5h4Zm-7,0h-4v-.5h4Zm-7,0h-4v-.5h4Zm-7,0h-4v-.5h4Zm-7,0h-4v-.5h4Zm-7,0h-4v-.5h4Zm-7,0h-4v-.5h4Zm-7,0h-4v-.5h4Zm-7,0h-4v-.5h4Zm-7,0h-4v-.5h4Zm-7,0h-4v-.5h4Zm-7,0h-4v-.5h4Zm-7,0h-4v-.5h4Zm-7,0h-4v-.5h4Zm-7,0h-4v-.5h4Zm-7,0h-4v-.5h4Zm-7,0h-4v-.5h4Zm-7,0h-4v-.5h4Zm-7,0h-4v-.5h4Zm-7,0h-4v-.5h4Zm-7,0h-4v-.5h4Zm-7,0h-4v-.5h4Zm-7,0h-4v-.5h4Zm-7,0h-4v-.5h4Zm-7,0h-4v-.5h4Zm-7,0h-4v-.5h4Zm-7,0h-4v-.5h4Zm-7,0h-4v-.5h4Zm-7,0h-4v-.5h4Zm-7,0h-4v-.5h4Zm-7,0h-4v-.5h4Zm-7,0h-4v-.5h4Zm-7,0h-4v-.5h4Zm-7,0h-4v-.5h4Zm-7,0h-4v-.5h4Zm-7,0h-4v-.5h4Zm-7,0h-4v-.5h4Zm-7,0h-4v-.5h4Zm-7,0h-4v-.5h4Zm-7,0h-4v-.5h4Zm-7,0h-4v-.5h4Zm-7,0h-4v-.5h4Zm-7,0h-4v-.5h4Zm-7,0h-4v-.5h4Zm-7,0h-4v-.5h4Zm-7,0h-4v-.5h4Zm-7,0h-4v-.5h4Zm-7,0h-4v-.5h4Zm-7,0h-4v-.5h4Zm-7,0h-4v-.5h4Zm-7,0h-4v-.5h4Zm-7,0h-4v-.5h4Zm-7,0h-4v-.5h4Zm-7,0h-4v-.5h4Zm-7,0h-4v-.5h4Zm-7,0h-4v-.5h4Zm-7,0h-4v-.5h4Zm-7,0h-4v-.5h4Zm-7,0h-4v-.5h4Zm-7,0h-4v-.5h4Zm-7,0h-4v-.5h4Zm-7,0h-4v-.5h4Zm-7,0h-4v-.5h4Zm-7,0h-4v-.5h4Zm-7,0h-4v-.5h4Zm-7,0h-4v-.5h4Zm-7,0h-4v-.5h4Zm-7,0h-4v-.5h4Zm-7,0h-4v-.5h4Zm-7,0h-4v-.5h4Zm-7,0h-4v-.5h4Zm-7,0h-4v-.5h4Zm-7,0h-4v-.5h4Zm-7,0h-4v-.5h4Zm-7,0h-4v-.5h4Zm-7,0h-4v-.5h4Zm-7,0h-4v-.5h4Zm-7,0h-4v-.5h4Zm-7,0h-4v-.5h4Zm-7,0h-4v-.5h4Zm-7,0h-4v-.5h4Zm-7,0h-4v-.5h4Zm-7,0h-4v-.5h4Zm-7,0h-4v-.5h4Zm-7,0h-4v-.5h4Zm-7,0h-4v-.5h4Zm-7,0h-4v-.5h4Zm-7,0h-4v-.5h4Zm-7,0h-4v-.5h4Zm-7,0h-4v-.5h4Zm-7,0h-4v-.5h4Zm-7,0h-4v-.5h4Zm-7,0h-4v-.5h4Zm-7,0h-4v-.5h4Zm-7,0h-4v-.5h4Zm-7,0h-4v-.5h4Zm-7,0h-4v-.5h4Zm-7,0h-4v-.5h4Zm-7,0h-4v-.5h4Zm-7,0h-4v-.5h4Zm-7,0h-4v-.5h4Zm-7,0h-4v-.5h4Zm-7,0h-4v-.5h4Zm-7,0h-4v-.5h4Zm-7,0h-4v-.5h4Zm-7,0h-4v-.5h4Zm-7,0h-4v-.5h4Zm-7,0h-4v-.5h4Zm-7,0h-4v-.5h4Zm-7,0h-4v-.5h4Zm-7,0h-4v-.5h4Zm-7,0h-4v-.5h4Zm-7,0H12v-.5h4Zm-7,0H5v-.5H9Z"/><rect class="cls-4" x="862" y="167.95" width="2" height="0.5"/><rect class="cls-4" y="407.28" width="2" height="0.5"/><path class="cls-4" d="M859,408h-4v-.5h4Zm-7,0h-4v-.5h4Zm-7,0h-4v-.5h4Zm-7,0h-4v-.5h4Zm-7,0h-4v-.5h4Zm-7,0h-4v-.5h4Zm-7,0h-4v-.5h4Zm-7,0h-4v-.5h4Zm-7,0h-4v-.5h4Zm-7,0h-4v-.5h4Zm-7,0h-4v-.5h4Zm-7,0h-4v-.5h4Zm-7,0h-4v-.5h4Zm-7,0h-4v-.5h4Zm-7,0h-4v-.5h4Zm-7,0h-4v-.5h4Zm-7,0h-4v-.5h4Zm-7,0h-4v-.5h4Zm-7,0h-4v-.5h4Zm-7,0h-4v-.5h4Zm-7,0h-4v-.5h4Zm-7,0h-4v-.5h4Zm-7,0h-4v-.5h4Zm-7,0h-4v-.5h4Zm-7,0h-4v-.5h4Zm-7,0h-4v-.5h4Zm-7,0h-4v-.5h4Zm-7,0h-4v-.5h4Zm-7,0h-4v-.5h4Zm-7,0h-4v-.5h4Zm-7,0h-4v-.5h4Zm-7,0h-4v-.5h4Zm-7,0h-4v-.5h4Zm-7,0h-4v-.5h4Zm-7,0h-4v-.5h4Zm-7,0h-4v-.5h4Zm-7,0h-4v-.5h4Zm-7,0h-4v-.5h4Zm-7,0h-4v-.5h4Zm-7,0h-4v-.5h4Zm-7,0h-4v-.5h4Zm-7,0h-4v-.5h4Zm-7,0h-4v-.5h4Zm-7,0h-4v-.5h4Zm-7,0h-4v-.5h4Zm-7,0h-4v-.5h4Zm-7,0h-4v-.5h4Zm-7,0h-4v-.5h4Zm-7,0h-4v-.5h4Zm-7,0h-4v-.5h4Zm-7,0h-4v-.5h4Zm-7,0h-4v-.5h4Zm-7,0h-4v-.5h4Zm-7,0h-4v-.5h4Zm-7,0h-4v-.5h4Zm-7,0h-4v-.5h4Zm-7,0h-4v-.5h4Zm-7,0h-4v-.5h4Zm-7,0h-4v-.5h4Zm-7,0h-4v-.5h4Zm-7,0h-4v-.5h4Zm-7,0h-4v-.5h4Zm-7,0h-4v-.5h4Zm-7,0h-4v-.5h4Zm-7,0h-4v-.5h4Zm-7,0h-4v-.5h4Zm-7,0h-4v-.5h4Zm-7,0h-4v-.5h4Zm-7,0h-4v-.5h4Zm-7,0h-4v-.5h4Zm-7,0h-4v-.5h4Zm-7,0h-4v-.5h4Zm-7,0h-4v-.5h4Zm-7,0h-4v-.5h4Zm-7,0h-4v-.5h4Zm-7,0h-4v-.5h4Zm-7,0h-4v-.5h4Zm-7,0h-4v-.5h4Zm-7,0h-4v-.5h4Zm-7,0h-4v-.5h4Zm-7,0h-4v-.5h4Zm-7,0h-4v-.5h4Zm-7,0h-4v-.5h4Zm-7,0h-4v-.5h4Zm-7,0h-4v-.5h4Zm-7,0h-4v-.5h4Zm-7,0h-4v-.5h4Zm-7,0h-4v-.5h4Zm-7,0h-4v-.5h4Zm-7,0h-4v-.5h4Zm-7,0h-4v-.5h4Zm-7,0h-4v-.5h4Zm-7,0h-4v-.5h4Zm-7,0h-4v-.5h4Zm-7,0h-4v-.5h4Zm-7,0h-4v-.5h4Zm-7,0h-4v-.5h4Zm-7,0h-4v-.5h4Zm-7,0h-4v-.5h4Zm-7,0h-4v-.5h4Zm-7,0h-4v-.5h4Zm-7,0h-4v-.5h4Zm-7,0h-4v-.5h4Zm-7,0h-4v-.5h4Zm-7,0h-4v-.5h4Zm-7,0h-4v-.5h4Zm-7,0h-4v-.5h4Zm-7,0h-4v-.5h4Zm-7,0h-4v-.5h4Zm-7,0h-4v-.5h4Zm-7,0h-4v-.5h4Zm-7,0h-4v-.5h4Zm-7,0h-4v-.5h4Zm-7,0h-4v-.5h4Zm-7,0h-4v-.5h4Zm-7,0h-4v-.5h4Zm-7,0h-4v-.5h4Zm-7,0h-4v-.5h4Zm-7,0h-4v-.5h4Zm-7,0h-4v-.5h4Zm-7,0H12v-.5h4Zm-7,0H5v-.5H9Z"/><rect class="cls-4" x="862" y="407.47" width="2" height="0.5"/><rect class="cls-4" y="383.29" width="2" height="0.5"/><path class="cls-4" d="M859,384h-4v-.5h4Zm-7,0h-4v-.5h4Zm-7,0h-4v-.5h4Zm-7,0h-4v-.5h4Zm-7,0h-4v-.5h4Zm-7,0h-4v-.5h4Zm-7,0h-4v-.5h4Zm-7,0h-4v-.5h4Zm-7,0h-4v-.5h4Zm-7,0h-4v-.5h4Zm-7,0h-4v-.5h4Zm-7,0h-4v-.5h4Zm-7,0h-4v-.5h4Zm-7,0h-4v-.5h4Zm-7,0h-4v-.5h4Zm-7,0h-4v-.5h4Zm-7,0h-4v-.5h4Zm-7,0h-4v-.5h4Zm-7,0h-4v-.5h4Zm-7,0h-4v-.5h4Zm-7,0h-4v-.5h4Zm-7,0h-4v-.5h4Zm-7,0h-4v-.5h4Zm-7,0h-4v-.5h4Zm-7,0h-4v-.5h4Zm-7,0h-4v-.5h4Zm-7,0h-4v-.5h4Zm-7,0h-4v-.5h4Zm-7,0h-4v-.5h4Zm-7,0h-4v-.5h4Zm-7,0h-4v-.5h4Zm-7,0h-4v-.5h4Zm-7,0h-4v-.5h4Zm-7,0h-4v-.5h4Zm-7,0h-4v-.5h4Zm-7,0h-4v-.5h4Zm-7,0h-4v-.5h4Zm-7,0h-4v-.5h4Zm-7,0h-4v-.5h4Zm-7,0h-4v-.5h4Zm-7,0h-4v-.5h4Zm-7,0h-4v-.5h4Zm-7,0h-4v-.5h4Zm-7,0h-4v-.5h4Zm-7,0h-4v-.5h4Zm-7,0h-4v-.5h4Zm-7,0h-4v-.5h4Zm-7,0h-4v-.5h4Zm-7,0h-4v-.5h4Zm-7,0h-4v-.5h4Zm-7,0h-4v-.5h4Zm-7,0h-4v-.5h4Zm-7,0h-4v-.5h4Zm-7,0h-4v-.5h4Zm-7,0h-4v-.5h4Zm-7,0h-4v-.5h4Zm-7,0h-4v-.5h4Zm-7,0h-4v-.5h4Zm-7,0h-4v-.5h4Zm-7,0h-4v-.5h4Zm-7,0h-4v-.5h4Zm-7,0h-4v-.5h4Zm-7,0h-4v-.5h4Zm-7,0h-4v-.5h4Zm-7,0h-4v-.5h4Zm-7,0h-4v-.5h4Zm-7,0h-4v-.5h4Zm-7,0h-4v-.5h4Zm-7,0h-4v-.5h4Zm-7,0h-4v-.5h4Zm-7,0h-4v-.5h4Zm-7,0h-4v-.5h4Zm-7,0h-4v-.5h4Zm-7,0h-4v-.5h4Zm-7,0h-4v-.5h4Zm-7,0h-4v-.5h4Zm-7,0h-4v-.5h4Zm-7,0h-4v-.5h4Zm-7,0h-4v-.5h4Zm-7,0h-4v-.5h4Zm-7,0h-4v-.5h4Zm-7,0h-4v-.5h4Zm-7,0h-4v-.5h4Zm-7,0h-4v-.5h4Zm-7,0h-4v-.5h4Zm-7,0h-4v-.5h4Zm-7,0h-4v-.5h4Zm-7,0h-4v-.5h4Zm-7,0h-4v-.5h4Zm-7,0h-4v-.5h4Zm-7,0h-4v-.5h4Zm-7,0h-4v-.5h4Zm-7,0h-4v-.5h4Zm-7,0h-4v-.5h4Zm-7,0h-4v-.5h4Zm-7,0h-4v-.5h4Zm-7,0h-4v-.5h4Zm-7,0h-4v-.5h4Zm-7,0h-4v-.5h4Zm-7,0h-4v-.5h4Zm-7,0h-4v-.5h4Zm-7,0h-4v-.5h4Zm-7,0h-4v-.5h4Zm-7,0h-4v-.5h4Zm-7,0h-4v-.5h4Zm-7,0h-4v-.5h4Zm-7,0h-4v-.5h4Zm-7,0h-4v-.5h4Zm-7,0h-4v-.5h4Zm-7,0h-4v-.5h4Zm-7,0h-4v-.5h4Zm-7,0h-4v-.5h4Zm-7,0h-4v-.5h4Zm-7,0h-4v-.5h4Zm-7,0h-4v-.5h4Zm-7,0h-4v-.5h4Zm-7,0h-4v-.5h4Zm-7,0h-4v-.5h4Zm-7,0h-4v-.5h4Zm-7,0h-4v-.5h4Zm-7,0H12v-.5h4Zm-7,0H5v-.5H9Z"/><rect class="cls-4" x="862" y="383.49" width="2" height="0.5"/><rect class="cls-4" y="359.23" width="2" height="0.5"/><path class="cls-4" d="M859,359.93h-4v-.5h4Zm-7,0h-4v-.5h4Zm-7,0h-4v-.5h4Zm-7,0h-4v-.5h4Zm-7,0h-4v-.5h4Zm-7,0h-4v-.5h4Zm-7,0h-4v-.5h4Zm-7,0h-4v-.5h4Zm-7,0h-4v-.5h4Zm-7,0h-4v-.5h4Zm-7,0h-4v-.5h4Zm-7,0h-4v-.5h4Zm-7,0h-4v-.5h4Zm-7,0h-4v-.5h4Zm-7,0h-4v-.5h4Zm-7,0h-4v-.5h4Zm-7,0h-4v-.5h4Zm-7,0h-4v-.5h4Zm-7,0h-4v-.5h4Zm-7,0h-4v-.5h4Zm-7,0h-4v-.5h4Zm-7,0h-4v-.5h4Zm-7,0h-4v-.5h4Zm-7,0h-4v-.5h4Zm-7,0h-4v-.5h4Zm-7,0h-4v-.5h4Zm-7,0h-4v-.5h4Zm-7,0h-4v-.5h4Zm-7,0h-4v-.5h4Zm-7,0h-4v-.5h4Zm-7,0h-4v-.5h4Zm-7,0h-4v-.5h4Zm-7,0h-4v-.5h4Zm-7,0h-4v-.5h4Zm-7,0h-4v-.5h4Zm-7,0h-4v-.5h4Zm-7,0h-4v-.5h4Zm-7,0h-4v-.5h4Zm-7,0h-4v-.5h4Zm-7,0h-4v-.5h4Zm-7,0h-4v-.5h4Zm-7,0h-4v-.5h4Zm-7,0h-4v-.5h4Zm-7,0h-4v-.5h4Zm-7,0h-4v-.5h4Zm-7,0h-4v-.5h4Zm-7,0h-4v-.5h4Zm-7,0h-4v-.5h4Zm-7,0h-4v-.5h4Zm-7,0h-4v-.5h4Zm-7,0h-4v-.5h4Zm-7,0h-4v-.5h4Zm-7,0h-4v-.5h4Zm-7,0h-4v-.5h4Zm-7,0h-4v-.5h4Zm-7,0h-4v-.5h4Zm-7,0h-4v-.5h4Zm-7,0h-4v-.5h4Zm-7,0h-4v-.5h4Zm-7,0h-4v-.5h4Zm-7,0h-4v-.5h4Zm-7,0h-4v-.5h4Zm-7,0h-4v-.5h4Zm-7,0h-4v-.5h4Zm-7,0h-4v-.5h4Zm-7,0h-4v-.5h4Zm-7,0h-4v-.5h4Zm-7,0h-4v-.5h4Zm-7,0h-4v-.5h4Zm-7,0h-4v-.5h4Zm-7,0h-4v-.5h4Zm-7,0h-4v-.5h4Zm-7,0h-4v-.5h4Zm-7,0h-4v-.5h4Zm-7,0h-4v-.5h4Zm-7,0h-4v-.5h4Zm-7,0h-4v-.5h4Zm-7,0h-4v-.5h4Zm-7,0h-4v-.5h4Zm-7,0h-4v-.5h4Zm-7,0h-4v-.5h4Zm-7,0h-4v-.5h4Zm-7,0h-4v-.5h4Zm-7,0h-4v-.5h4Zm-7,0h-4v-.5h4Zm-7,0h-4v-.5h4Zm-7,0h-4v-.5h4Zm-7,0h-4v-.5h4Zm-7,0h-4v-.5h4Zm-7,0h-4v-.5h4Zm-7,0h-4v-.5h4Zm-7,0h-4v-.5h4Zm-7,0h-4v-.5h4Zm-7,0h-4v-.5h4Zm-7,0h-4v-.5h4Zm-7,0h-4v-.5h4Zm-7,0h-4v-.5h4Zm-7,0h-4v-.5h4Zm-7,0h-4v-.5h4Zm-7,0h-4v-.5h4Zm-7,0h-4v-.5h4Zm-7,0h-4v-.5h4Zm-7,0h-4v-.5h4Zm-7,0h-4v-.5h4Zm-7,0h-4v-.5h4Zm-7,0h-4v-.5h4Zm-7,0h-4v-.5h4Zm-7,0h-4v-.5h4Zm-7,0h-4v-.5h4Zm-7,0h-4v-.5h4Zm-7,0h-4v-.5h4Zm-7,0h-4v-.5h4Zm-7,0h-4v-.5h4Zm-7,0h-4v-.5h4Zm-7,0h-4v-.5h4Zm-7,0h-4v-.5h4Zm-7,0h-4v-.5h4Zm-7,0h-4v-.5h4Zm-7,0h-4v-.5h4Zm-7,0h-4v-.5h4Zm-7,0H12v-.5h4Zm-7,0H5v-.5H9Z"/><rect class="cls-4" x="862" y="359.43" width="2" height="0.5"/><rect class="cls-4" y="431.28" width="2" height="0.5"/><path class="cls-4" d="M859,432h-4v-.5h4Zm-7,0h-4v-.5h4Zm-7,0h-4v-.5h4Zm-7,0h-4v-.5h4Zm-7,0h-4v-.5h4Zm-7,0h-4v-.5h4Zm-7,0h-4v-.5h4Zm-7,0h-4v-.5h4Zm-7,0h-4v-.5h4Zm-7,0h-4v-.5h4Zm-7,0h-4v-.5h4Zm-7,0h-4v-.5h4Zm-7,0h-4v-.5h4Zm-7,0h-4v-.5h4Zm-7,0h-4v-.5h4Zm-7,0h-4v-.5h4Zm-7,0h-4v-.5h4Zm-7,0h-4v-.5h4Zm-7,0h-4v-.5h4Zm-7,0h-4v-.5h4Zm-7,0h-4v-.5h4Zm-7,0h-4v-.5h4Zm-7,0h-4v-.5h4Zm-7,0h-4v-.5h4Zm-7,0h-4v-.5h4Zm-7,0h-4v-.5h4Zm-7,0h-4v-.5h4Zm-7,0h-4v-.5h4Zm-7,0h-4v-.5h4Zm-7,0h-4v-.5h4Zm-7,0h-4v-.5h4Zm-7,0h-4v-.5h4Zm-7,0h-4v-.5h4Zm-7,0h-4v-.5h4Zm-7,0h-4v-.5h4Zm-7,0h-4v-.5h4Zm-7,0h-4v-.5h4Zm-7,0h-4v-.5h4Zm-7,0h-4v-.5h4Zm-7,0h-4v-.5h4Zm-7,0h-4v-.5h4Zm-7,0h-4v-.5h4Zm-7,0h-4v-.5h4Zm-7,0h-4v-.5h4Zm-7,0h-4v-.5h4Zm-7,0h-4v-.5h4Zm-7,0h-4v-.5h4Zm-7,0h-4v-.5h4Zm-7,0h-4v-.5h4Zm-7,0h-4v-.5h4Zm-7,0h-4v-.5h4Zm-7,0h-4v-.5h4Zm-7,0h-4v-.5h4Zm-7,0h-4v-.5h4Zm-7,0h-4v-.5h4Zm-7,0h-4v-.5h4Zm-7,0h-4v-.5h4Zm-7,0h-4v-.5h4Zm-7,0h-4v-.5h4Zm-7,0h-4v-.5h4Zm-7,0h-4v-.5h4Zm-7,0h-4v-.5h4Zm-7,0h-4v-.5h4Zm-7,0h-4v-.5h4Zm-7,0h-4v-.5h4Zm-7,0h-4v-.5h4Zm-7,0h-4v-.5h4Zm-7,0h-4v-.5h4Zm-7,0h-4v-.5h4Zm-7,0h-4v-.5h4Zm-7,0h-4v-.5h4Zm-7,0h-4v-.5h4Zm-7,0h-4v-.5h4Zm-7,0h-4v-.5h4Zm-7,0h-4v-.5h4Zm-7,0h-4v-.5h4Zm-7,0h-4v-.5h4Zm-7,0h-4v-.5h4Zm-7,0h-4v-.5h4Zm-7,0h-4v-.5h4Zm-7,0h-4v-.5h4Zm-7,0h-4v-.5h4Zm-7,0h-4v-.5h4Zm-7,0h-4v-.5h4Zm-7,0h-4v-.5h4Zm-7,0h-4v-.5h4Zm-7,0h-4v-.5h4Zm-7,0h-4v-.5h4Zm-7,0h-4v-.5h4Zm-7,0h-4v-.5h4Zm-7,0h-4v-.5h4Zm-7,0h-4v-.5h4Zm-7,0h-4v-.5h4Zm-7,0h-4v-.5h4Zm-7,0h-4v-.5h4Zm-7,0h-4v-.5h4Zm-7,0h-4v-.5h4Zm-7,0h-4v-.5h4Zm-7,0h-4v-.5h4Zm-7,0h-4v-.5h4Zm-7,0h-4v-.5h4Zm-7,0h-4v-.5h4Zm-7,0h-4v-.5h4Zm-7,0h-4v-.5h4Zm-7,0h-4v-.5h4Zm-7,0h-4v-.5h4Zm-7,0h-4v-.5h4Zm-7,0h-4v-.5h4Zm-7,0h-4v-.5h4Zm-7,0h-4v-.5h4Zm-7,0h-4v-.5h4Zm-7,0h-4v-.5h4Zm-7,0h-4v-.5h4Zm-7,0h-4v-.5h4Zm-7,0h-4v-.5h4Zm-7,0h-4v-.5h4Zm-7,0h-4v-.5h4Zm-7,0h-4v-.5h4Zm-7,0h-4v-.5h4Zm-7,0h-4v-.5h4Zm-7,0H12v-.5h4Zm-7,0H5v-.5H9Z"/><rect class="cls-4" x="862" y="431.47" width="2" height="0.5"/><rect class="cls-4" y="310.98" width="2" height="0.5"/><path class="cls-4" d="M859,311.68h-4v-.5h4Zm-7,0h-4v-.5h4Zm-7,0h-4v-.5h4Zm-7,0h-4v-.5h4Zm-7,0h-4v-.5h4Zm-7,0h-4v-.5h4Zm-7,0h-4v-.5h4Zm-7,0h-4v-.5h4Zm-7,0h-4v-.5h4Zm-7,0h-4v-.5h4Zm-7,0h-4v-.5h4Zm-7,0h-4v-.5h4Zm-7,0h-4v-.5h4Zm-7,0h-4v-.5h4Zm-7,0h-4v-.5h4Zm-7,0h-4v-.5h4Zm-7,0h-4v-.5h4Zm-7,0h-4v-.5h4Zm-7,0h-4v-.5h4Zm-7,0h-4v-.5h4Zm-7,0h-4v-.5h4Zm-7,0h-4v-.5h4Zm-7,0h-4v-.5h4Zm-7,0h-4v-.5h4Zm-7,0h-4v-.5h4Zm-7,0h-4v-.5h4Zm-7,0h-4v-.5h4Zm-7,0h-4v-.5h4Zm-7,0h-4v-.5h4Zm-7,0h-4v-.5h4Zm-7,0h-4v-.5h4Zm-7,0h-4v-.5h4Zm-7,0h-4v-.5h4Zm-7,0h-4v-.5h4Zm-7,0h-4v-.5h4Zm-7,0h-4v-.5h4Zm-7,0h-4v-.5h4Zm-7,0h-4v-.5h4Zm-7,0h-4v-.5h4Zm-7,0h-4v-.5h4Zm-7,0h-4v-.5h4Zm-7,0h-4v-.5h4Zm-7,0h-4v-.5h4Zm-7,0h-4v-.5h4Zm-7,0h-4v-.5h4Zm-7,0h-4v-.5h4Zm-7,0h-4v-.5h4Zm-7,0h-4v-.5h4Zm-7,0h-4v-.5h4Zm-7,0h-4v-.5h4Zm-7,0h-4v-.5h4Zm-7,0h-4v-.5h4Zm-7,0h-4v-.5h4Zm-7,0h-4v-.5h4Zm-7,0h-4v-.5h4Zm-7,0h-4v-.5h4Zm-7,0h-4v-.5h4Zm-7,0h-4v-.5h4Zm-7,0h-4v-.5h4Zm-7,0h-4v-.5h4Zm-7,0h-4v-.5h4Zm-7,0h-4v-.5h4Zm-7,0h-4v-.5h4Zm-7,0h-4v-.5h4Zm-7,0h-4v-.5h4Zm-7,0h-4v-.5h4Zm-7,0h-4v-.5h4Zm-7,0h-4v-.5h4Zm-7,0h-4v-.5h4Zm-7,0h-4v-.5h4Zm-7,0h-4v-.5h4Zm-7,0h-4v-.5h4Zm-7,0h-4v-.5h4Zm-7,0h-4v-.5h4Zm-7,0h-4v-.5h4Zm-7,0h-4v-.5h4Zm-7,0h-4v-.5h4Zm-7,0h-4v-.5h4Zm-7,0h-4v-.5h4Zm-7,0h-4v-.5h4Zm-7,0h-4v-.5h4Zm-7,0h-4V311h4Zm-7,0h-4V311h4Zm-7,0h-4V311h4Zm-7,0h-4V311h4Zm-7,0h-4V311h4Zm-7,0h-4V311h4Zm-7,0h-4V311h4Zm-7,0h-4V311h4Zm-7,0h-4V311h4Zm-7,0h-4V311h4Zm-7,0h-4V311h4Zm-7,0h-4V311h4Zm-7,0h-4V311h4Zm-7,0h-4V311h4Zm-7,0h-4V311h4Zm-7,0h-4V311h4Zm-7,0h-4V311h4Zm-7,0h-4V311h4Zm-7,0h-4V311h4Zm-7,0h-4V311h4Zm-7,0h-4V311h4Zm-7,0h-4V311h4Zm-7,0h-4V311h4Zm-7,0h-4V311h4Zm-7,0h-4V311h4Zm-7,0h-4V311h4Zm-7,0h-4V311h4Zm-7,0h-4V311h4Zm-7,0h-4V311h4Zm-7,0h-4V311h4Zm-7,0h-4V311h4Zm-7,0h-4V311h4Zm-7,0h-4V311h4Zm-7,0h-4V311h4Zm-7,0h-4V311h4Zm-7,0h-4V311h4Zm-7,0h-4V311h4Zm-7,0h-4V311h4Zm-7,0h-4V311h4Zm-7,0H12V311h4Zm-7,0H5V311H9Z"/><rect class="cls-4" x="862" y="311.18" width="2" height="0.5"/><rect class="cls-4" y="287" width="2" height="0.5"/><path class="cls-4" d="M859,287.69h-4v-.5h4Zm-7,0h-4v-.5h4Zm-7,0h-4v-.5h4Zm-7,0h-4v-.5h4Zm-7,0h-4v-.5h4Zm-7,0h-4v-.5h4Zm-7,0h-4v-.5h4Zm-7,0h-4v-.5h4Zm-7,0h-4v-.5h4Zm-7,0h-4v-.5h4Zm-7,0h-4v-.5h4Zm-7,0h-4v-.5h4Zm-7,0h-4v-.5h4Zm-7,0h-4v-.5h4Zm-7,0h-4v-.5h4Zm-7,0h-4v-.5h4Zm-7,0h-4v-.5h4Zm-7,0h-4v-.5h4Zm-7,0h-4v-.5h4Zm-7,0h-4v-.5h4Zm-7,0h-4v-.5h4Zm-7,0h-4v-.5h4Zm-7,0h-4v-.5h4Zm-7,0h-4v-.5h4Zm-7,0h-4v-.5h4Zm-7,0h-4v-.5h4Zm-7,0h-4v-.5h4Zm-7,0h-4v-.5h4Zm-7,0h-4v-.5h4Zm-7,0h-4v-.5h4Zm-7,0h-4v-.5h4Zm-7,0h-4v-.5h4Zm-7,0h-4v-.5h4Zm-7,0h-4v-.5h4Zm-7,0h-4v-.5h4Zm-7,0h-4v-.5h4Zm-7,0h-4v-.5h4Zm-7,0h-4v-.5h4Zm-7,0h-4v-.5h4Zm-7,0h-4v-.5h4Zm-7,0h-4v-.5h4Zm-7,0h-4v-.5h4Zm-7,0h-4v-.5h4Zm-7,0h-4v-.5h4Zm-7,0h-4v-.5h4Zm-7,0h-4v-.5h4Zm-7,0h-4v-.5h4Zm-7,0h-4v-.5h4Zm-7,0h-4v-.5h4Zm-7,0h-4v-.5h4Zm-7,0h-4v-.5h4Zm-7,0h-4v-.5h4Zm-7,0h-4v-.5h4Zm-7,0h-4v-.5h4Zm-7,0h-4v-.5h4Zm-7,0h-4v-.5h4Zm-7,0h-4v-.5h4Zm-7,0h-4v-.5h4Zm-7,0h-4v-.5h4Zm-7,0h-4v-.5h4Zm-7,0h-4v-.5h4Zm-7,0h-4v-.5h4Zm-7,0h-4v-.5h4Zm-7,0h-4v-.5h4Zm-7,0h-4v-.5h4Zm-7,0h-4v-.5h4Zm-7,0h-4v-.5h4Zm-7,0h-4v-.5h4Zm-7,0h-4v-.5h4Zm-7,0h-4v-.5h4Zm-7,0h-4v-.5h4Zm-7,0h-4v-.5h4Zm-7,0h-4v-.5h4Zm-7,0h-4v-.5h4Zm-7,0h-4v-.5h4Zm-7,0h-4v-.5h4Zm-7,0h-4v-.5h4Zm-7,0h-4v-.5h4Zm-7,0h-4v-.5h4Zm-7,0h-4v-.5h4Zm-7,0h-4v-.5h4Zm-7,0h-4v-.5h4Zm-7,0h-4v-.5h4Zm-7,0h-4v-.5h4Zm-7,0h-4v-.5h4Zm-7,0h-4v-.5h4Zm-7,0h-4v-.5h4Zm-7,0h-4v-.5h4Zm-7,0h-4v-.5h4Zm-7,0h-4v-.5h4Zm-7,0h-4v-.5h4Zm-7,0h-4v-.5h4Zm-7,0h-4V287h4Zm-7,0h-4V287h4Zm-7,0h-4V287h4Zm-7,0h-4V287h4Zm-7,0h-4V287h4Zm-7,0h-4V287h4Zm-7,0h-4V287h4Zm-7,0h-4V287h4Zm-7,0h-4V287h4Zm-7,0h-4V287h4Zm-7,0h-4V287h4Zm-7,0h-4V287h4Zm-7,0h-4V287h4Zm-7,0h-4V287h4Zm-7,0h-4V287h4Zm-7,0h-4V287h4Zm-7,0h-4V287h4Zm-7,0h-4V287h4Zm-7,0h-4V287h4Zm-7,0h-4V287h4Zm-7,0h-4V287h4Zm-7,0h-4V287h4Zm-7,0h-4V287h4Zm-7,0h-4V287h4Zm-7,0h-4V287h4Zm-7,0h-4V287h4Zm-7,0h-4V287h4Zm-7,0h-4V287h4Zm-7,0H12V287h4Zm-7,0H5V287H9Z"/><rect class="cls-4" x="862" y="287.2" width="2" height="0.5"/><rect class="cls-4" y="263.75" width="2" height="0.5"/><path class="cls-4" d="M859,264.45h-4V264h4Zm-7,0h-4V264h4Zm-7,0h-4v-.5h4Zm-7,0h-4v-.5h4Zm-7,0h-4v-.5h4Zm-7,0h-4v-.5h4Zm-7,0h-4v-.5h4Zm-7,0h-4v-.5h4Zm-7,0h-4v-.5h4Zm-7,0h-4v-.5h4Zm-7,0h-4v-.5h4Zm-7,0h-4v-.5h4Zm-7,0h-4v-.5h4Zm-7,0h-4v-.5h4Zm-7,0h-4v-.5h4Zm-7,0h-4v-.5h4Zm-7,0h-4v-.5h4Zm-7,0h-4v-.5h4Zm-7,0h-4v-.5h4Zm-7,0h-4v-.5h4Zm-7,0h-4v-.5h4Zm-7,0h-4v-.5h4Zm-7,0h-4v-.5h4Zm-7,0h-4v-.5h4Zm-7,0h-4v-.5h4Zm-7,0h-4v-.5h4Zm-7,0h-4v-.5h4Zm-7,0h-4v-.5h4Zm-7,0h-4v-.5h4Zm-7,0h-4v-.5h4Zm-7,0h-4v-.5h4Zm-7,0h-4v-.5h4Zm-7,0h-4v-.5h4Zm-7,0h-4v-.5h4Zm-7,0h-4v-.5h4Zm-7,0h-4v-.5h4Zm-7,0h-4v-.5h4Zm-7,0h-4v-.5h4Zm-7,0h-4v-.5h4Zm-7,0h-4v-.5h4Zm-7,0h-4v-.5h4Zm-7,0h-4v-.5h4Zm-7,0h-4v-.5h4Zm-7,0h-4v-.5h4Zm-7,0h-4v-.5h4Zm-7,0h-4v-.5h4Zm-7,0h-4v-.5h4Zm-7,0h-4v-.5h4Zm-7,0h-4v-.5h4Zm-7,0h-4v-.5h4Zm-7,0h-4v-.5h4Zm-7,0h-4v-.5h4Zm-7,0h-4v-.5h4Zm-7,0h-4v-.5h4Zm-7,0h-4v-.5h4Zm-7,0h-4v-.5h4Zm-7,0h-4v-.5h4Zm-7,0h-4v-.5h4Zm-7,0h-4v-.5h4Zm-7,0h-4v-.5h4Zm-7,0h-4v-.5h4Zm-7,0h-4v-.5h4Zm-7,0h-4v-.5h4Zm-7,0h-4v-.5h4Zm-7,0h-4v-.5h4Zm-7,0h-4v-.5h4Zm-7,0h-4v-.5h4Zm-7,0h-4v-.5h4Zm-7,0h-4v-.5h4Zm-7,0h-4v-.5h4Zm-7,0h-4v-.5h4Zm-7,0h-4v-.5h4Zm-7,0h-4v-.5h4Zm-7,0h-4v-.5h4Zm-7,0h-4v-.5h4Zm-7,0h-4v-.5h4Zm-7,0h-4v-.5h4Zm-7,0h-4v-.5h4Zm-7,0h-4v-.5h4Zm-7,0h-4v-.5h4Zm-7,0h-4v-.5h4Zm-7,0h-4v-.5h4Zm-7,0h-4v-.5h4Zm-7,0h-4v-.5h4Zm-7,0h-4v-.5h4Zm-7,0h-4v-.5h4Zm-7,0h-4v-.5h4Zm-7,0h-4v-.5h4Zm-7,0h-4v-.5h4Zm-7,0h-4v-.5h4Zm-7,0h-4v-.5h4Zm-7,0h-4v-.5h4Zm-7,0h-4v-.5h4Zm-7,0h-4v-.5h4Zm-7,0h-4v-.5h4Zm-7,0h-4v-.5h4Zm-7,0h-4v-.5h4Zm-7,0h-4v-.5h4Zm-7,0h-4v-.5h4Zm-7,0h-4v-.5h4Zm-7,0h-4v-.5h4Zm-7,0h-4v-.5h4Zm-7,0h-4v-.5h4Zm-7,0h-4v-.5h4Zm-7,0h-4v-.5h4Zm-7,0h-4v-.5h4Zm-7,0h-4v-.5h4Zm-7,0h-4v-.5h4Zm-7,0h-4v-.5h4Zm-7,0h-4v-.5h4Zm-7,0h-4v-.5h4Zm-7,0h-4v-.5h4Zm-7,0h-4v-.5h4Zm-7,0h-4v-.5h4Zm-7,0h-4v-.5h4Zm-7,0h-4v-.5h4Zm-7,0h-4v-.5h4Zm-7,0h-4v-.5h4Zm-7,0h-4v-.5h4Zm-7,0h-4v-.5h4Zm-7,0H12v-.5h4Zm-7,0H5v-.5H9Z"/><rect class="cls-4" x="862" y="263.95" width="2" height="0.5"/><rect class="cls-4" y="239.79" width="2" height="0.5"/><path class="cls-4" d="M859,240.49h-4V240h4Zm-7,0h-4V240h4Zm-7,0h-4V240h4Zm-7,0h-4V240h4Zm-7,0h-4V240h4Zm-7,0h-4V240h4Zm-7,0h-4V240h4Zm-7,0h-4V240h4Zm-7,0h-4V240h4Zm-7,0h-4V240h4Zm-7,0h-4V240h4Zm-7,0h-4V240h4Zm-7,0h-4V240h4Zm-7,0h-4V240h4Zm-7,0h-4V240h4Zm-7,0h-4V240h4Zm-7,0h-4V240h4Zm-7,0h-4V240h4Zm-7,0h-4V240h4Zm-7,0h-4V240h4Zm-7,0h-4V240h4Zm-7,0h-4V240h4Zm-7,0h-4V240h4Zm-7,0h-4V240h4Zm-7,0h-4V240h4Zm-7,0h-4V240h4Zm-7,0h-4V240h4Zm-7,0h-4V240h4Zm-7,0h-4V240h4Zm-7,0h-4v-.5h4Zm-7,0h-4v-.5h4Zm-7,0h-4v-.5h4Zm-7,0h-4v-.5h4Zm-7,0h-4v-.5h4Zm-7,0h-4v-.5h4Zm-7,0h-4v-.5h4Zm-7,0h-4v-.5h4Zm-7,0h-4v-.5h4Zm-7,0h-4v-.5h4Zm-7,0h-4v-.5h4Zm-7,0h-4v-.5h4Zm-7,0h-4v-.5h4Zm-7,0h-4v-.5h4Zm-7,0h-4v-.5h4Zm-7,0h-4v-.5h4Zm-7,0h-4v-.5h4Zm-7,0h-4v-.5h4Zm-7,0h-4v-.5h4Zm-7,0h-4v-.5h4Zm-7,0h-4v-.5h4Zm-7,0h-4v-.5h4Zm-7,0h-4v-.5h4Zm-7,0h-4v-.5h4Zm-7,0h-4v-.5h4Zm-7,0h-4v-.5h4Zm-7,0h-4v-.5h4Zm-7,0h-4v-.5h4Zm-7,0h-4v-.5h4Zm-7,0h-4v-.5h4Zm-7,0h-4v-.5h4Zm-7,0h-4v-.5h4Zm-7,0h-4v-.5h4Zm-7,0h-4v-.5h4Zm-7,0h-4v-.5h4Zm-7,0h-4v-.5h4Zm-7,0h-4v-.5h4Zm-7,0h-4v-.5h4Zm-7,0h-4v-.5h4Zm-7,0h-4v-.5h4Zm-7,0h-4v-.5h4Zm-7,0h-4v-.5h4Zm-7,0h-4v-.5h4Zm-7,0h-4v-.5h4Zm-7,0h-4v-.5h4Zm-7,0h-4v-.5h4Zm-7,0h-4v-.5h4Zm-7,0h-4v-.5h4Zm-7,0h-4v-.5h4Zm-7,0h-4v-.5h4Zm-7,0h-4v-.5h4Zm-7,0h-4v-.5h4Zm-7,0h-4v-.5h4Zm-7,0h-4v-.5h4Zm-7,0h-4v-.5h4Zm-7,0h-4v-.5h4Zm-7,0h-4v-.5h4Zm-7,0h-4v-.5h4Zm-7,0h-4v-.5h4Zm-7,0h-4v-.5h4Zm-7,0h-4v-.5h4Zm-7,0h-4v-.5h4Zm-7,0h-4v-.5h4Zm-7,0h-4v-.5h4Zm-7,0h-4v-.5h4Zm-7,0h-4v-.5h4Zm-7,0h-4v-.5h4Zm-7,0h-4v-.5h4Zm-7,0h-4v-.5h4Zm-7,0h-4v-.5h4Zm-7,0h-4v-.5h4Zm-7,0h-4v-.5h4Zm-7,0h-4v-.5h4Zm-7,0h-4v-.5h4Zm-7,0h-4v-.5h4Zm-7,0h-4v-.5h4Zm-7,0h-4v-.5h4Zm-7,0h-4v-.5h4Zm-7,0h-4v-.5h4Zm-7,0h-4v-.5h4Zm-7,0h-4v-.5h4Zm-7,0h-4v-.5h4Zm-7,0h-4v-.5h4Zm-7,0h-4v-.5h4Zm-7,0h-4v-.5h4Zm-7,0h-4v-.5h4Zm-7,0h-4v-.5h4Zm-7,0h-4v-.5h4Zm-7,0h-4v-.5h4Zm-7,0h-4v-.5h4Zm-7,0h-4v-.5h4Zm-7,0H12v-.5h4Zm-7,0H5v-.5H9Z"/><rect class="cls-4" x="862" y="239.99" width="2" height="0.5"/><rect class="cls-4" y="215.81" width="2" height="0.5"/><path class="cls-4" d="M859,216.51h-4V216h4Zm-7,0h-4V216h4Zm-7,0h-4V216h4Zm-7,0h-4V216h4Zm-7,0h-4V216h4Zm-7,0h-4V216h4Zm-7,0h-4V216h4Zm-7,0h-4V216h4Zm-7,0h-4V216h4Zm-7,0h-4V216h4Zm-7,0h-4V216h4Zm-7,0h-4V216h4Zm-7,0h-4V216h4Zm-7,0h-4V216h4Zm-7,0h-4V216h4Zm-7,0h-4V216h4Zm-7,0h-4V216h4Zm-7,0h-4V216h4Zm-7,0h-4V216h4Zm-7,0h-4V216h4Zm-7,0h-4V216h4Zm-7,0h-4V216h4Zm-7,0h-4V216h4Zm-7,0h-4V216h4Zm-7,0h-4V216h4Zm-7,0h-4V216h4Zm-7,0h-4V216h4Zm-7,0h-4V216h4Zm-7,0h-4V216h4Zm-7,0h-4V216h4Zm-7,0h-4V216h4Zm-7,0h-4V216h4Zm-7,0h-4V216h4Zm-7,0h-4V216h4Zm-7,0h-4V216h4Zm-7,0h-4V216h4Zm-7,0h-4V216h4Zm-7,0h-4V216h4Zm-7,0h-4V216h4Zm-7,0h-4V216h4Zm-7,0h-4v-.5h4Zm-7,0h-4v-.5h4Zm-7,0h-4v-.5h4Zm-7,0h-4v-.5h4Zm-7,0h-4v-.5h4Zm-7,0h-4v-.5h4Zm-7,0h-4v-.5h4Zm-7,0h-4v-.5h4Zm-7,0h-4v-.5h4Zm-7,0h-4v-.5h4Zm-7,0h-4v-.5h4Zm-7,0h-4v-.5h4Zm-7,0h-4v-.5h4Zm-7,0h-4v-.5h4Zm-7,0h-4v-.5h4Zm-7,0h-4v-.5h4Zm-7,0h-4v-.5h4Zm-7,0h-4v-.5h4Zm-7,0h-4v-.5h4Zm-7,0h-4v-.5h4Zm-7,0h-4v-.5h4Zm-7,0h-4v-.5h4Zm-7,0h-4v-.5h4Zm-7,0h-4v-.5h4Zm-7,0h-4v-.5h4Zm-7,0h-4v-.5h4Zm-7,0h-4v-.5h4Zm-7,0h-4v-.5h4Zm-7,0h-4v-.5h4Zm-7,0h-4v-.5h4Zm-7,0h-4v-.5h4Zm-7,0h-4v-.5h4Zm-7,0h-4v-.5h4Zm-7,0h-4v-.5h4Zm-7,0h-4v-.5h4Zm-7,0h-4v-.5h4Zm-7,0h-4v-.5h4Zm-7,0h-4v-.5h4Zm-7,0h-4v-.5h4Zm-7,0h-4v-.5h4Zm-7,0h-4v-.5h4Zm-7,0h-4v-.5h4Zm-7,0h-4v-.5h4Zm-7,0h-4v-.5h4Zm-7,0h-4v-.5h4Zm-7,0h-4v-.5h4Zm-7,0h-4v-.5h4Zm-7,0h-4v-.5h4Zm-7,0h-4v-.5h4Zm-7,0h-4v-.5h4Zm-7,0h-4v-.5h4Zm-7,0h-4v-.5h4Zm-7,0h-4v-.5h4Zm-7,0h-4v-.5h4Zm-7,0h-4v-.5h4Zm-7,0h-4v-.5h4Zm-7,0h-4v-.5h4Zm-7,0h-4v-.5h4Zm-7,0h-4v-.5h4Zm-7,0h-4v-.5h4Zm-7,0h-4v-.5h4Zm-7,0h-4v-.5h4Zm-7,0h-4v-.5h4Zm-7,0h-4v-.5h4Zm-7,0h-4v-.5h4Zm-7,0h-4v-.5h4Zm-7,0h-4v-.5h4Zm-7,0h-4v-.5h4Zm-7,0h-4v-.5h4Zm-7,0h-4v-.5h4Zm-7,0h-4v-.5h4Zm-7,0h-4v-.5h4Zm-7,0h-4v-.5h4Zm-7,0h-4v-.5h4Zm-7,0h-4v-.5h4Zm-7,0h-4v-.5h4Zm-7,0h-4v-.5h4Zm-7,0h-4v-.5h4Zm-7,0h-4v-.5h4Zm-7,0h-4v-.5h4Zm-7,0H12v-.5h4Zm-7,0H5v-.5H9Z"/><rect class="cls-4" x="862" y="216.01" width="2" height="0.5"/><rect class="cls-4" y="191.75" width="2" height="0.5"/><path class="cls-4" d="M859,192.45h-4V192h4Zm-7,0h-4V192h4Zm-7,0h-4V192h4Zm-7,0h-4v-.5h4Zm-7,0h-4v-.5h4Zm-7,0h-4v-.5h4Zm-7,0h-4v-.5h4Zm-7,0h-4v-.5h4Zm-7,0h-4v-.5h4Zm-7,0h-4v-.5h4Zm-7,0h-4v-.5h4Zm-7,0h-4v-.5h4Zm-7,0h-4v-.5h4Zm-7,0h-4v-.5h4Zm-7,0h-4v-.5h4Zm-7,0h-4v-.5h4Zm-7,0h-4v-.5h4Zm-7,0h-4v-.5h4Zm-7,0h-4v-.5h4Zm-7,0h-4v-.5h4Zm-7,0h-4v-.5h4Zm-7,0h-4v-.5h4Zm-7,0h-4v-.5h4Zm-7,0h-4v-.5h4Zm-7,0h-4v-.5h4Zm-7,0h-4v-.5h4Zm-7,0h-4v-.5h4Zm-7,0h-4v-.5h4Zm-7,0h-4v-.5h4Zm-7,0h-4v-.5h4Zm-7,0h-4v-.5h4Zm-7,0h-4v-.5h4Zm-7,0h-4v-.5h4Zm-7,0h-4v-.5h4Zm-7,0h-4v-.5h4Zm-7,0h-4v-.5h4Zm-7,0h-4v-.5h4Zm-7,0h-4v-.5h4Zm-7,0h-4v-.5h4Zm-7,0h-4v-.5h4Zm-7,0h-4v-.5h4Zm-7,0h-4v-.5h4Zm-7,0h-4v-.5h4Zm-7,0h-4v-.5h4Zm-7,0h-4v-.5h4Zm-7,0h-4v-.5h4Zm-7,0h-4v-.5h4Zm-7,0h-4v-.5h4Zm-7,0h-4v-.5h4Zm-7,0h-4v-.5h4Zm-7,0h-4v-.5h4Zm-7,0h-4v-.5h4Zm-7,0h-4v-.5h4Zm-7,0h-4v-.5h4Zm-7,0h-4v-.5h4Zm-7,0h-4v-.5h4Zm-7,0h-4v-.5h4Zm-7,0h-4v-.5h4Zm-7,0h-4v-.5h4Zm-7,0h-4v-.5h4Zm-7,0h-4v-.5h4Zm-7,0h-4v-.5h4Zm-7,0h-4v-.5h4Zm-7,0h-4v-.5h4Zm-7,0h-4v-.5h4Zm-7,0h-4v-.5h4Zm-7,0h-4v-.5h4Zm-7,0h-4v-.5h4Zm-7,0h-4v-.5h4Zm-7,0h-4v-.5h4Zm-7,0h-4v-.5h4Zm-7,0h-4v-.5h4Zm-7,0h-4v-.5h4Zm-7,0h-4v-.5h4Zm-7,0h-4v-.5h4Zm-7,0h-4v-.5h4Zm-7,0h-4v-.5h4Zm-7,0h-4v-.5h4Zm-7,0h-4v-.5h4Zm-7,0h-4v-.5h4Zm-7,0h-4v-.5h4Zm-7,0h-4v-.5h4Zm-7,0h-4v-.5h4Zm-7,0h-4v-.5h4Zm-7,0h-4v-.5h4Zm-7,0h-4v-.5h4Zm-7,0h-4v-.5h4Zm-7,0h-4v-.5h4Zm-7,0h-4v-.5h4Zm-7,0h-4v-.5h4Zm-7,0h-4v-.5h4Zm-7,0h-4v-.5h4Zm-7,0h-4v-.5h4Zm-7,0h-4v-.5h4Zm-7,0h-4v-.5h4Zm-7,0h-4v-.5h4Zm-7,0h-4v-.5h4Zm-7,0h-4v-.5h4Zm-7,0h-4v-.5h4Zm-7,0h-4v-.5h4Zm-7,0h-4v-.5h4Zm-7,0h-4v-.5h4Zm-7,0h-4v-.5h4Zm-7,0h-4v-.5h4Zm-7,0h-4v-.5h4Zm-7,0h-4v-.5h4Zm-7,0h-4v-.5h4Zm-7,0h-4v-.5h4Zm-7,0h-4v-.5h4Zm-7,0h-4v-.5h4Zm-7,0h-4v-.5h4Zm-7,0h-4v-.5h4Zm-7,0h-4v-.5h4Zm-7,0h-4v-.5h4Zm-7,0h-4v-.5h4Zm-7,0h-4v-.5h4Zm-7,0h-4v-.5h4Zm-7,0h-4v-.5h4Zm-7,0h-4v-.5h4Zm-7,0h-4v-.5h4Zm-7,0H12v-.5h4Zm-7,0H5v-.5H9Z"/><rect class="cls-4" x="862" y="191.95" width="2" height="0.5"/><rect class="cls-4" y="334.98" width="2" height="0.5"/><path class="cls-4" d="M859,335.68h-4v-.5h4Zm-7,0h-4v-.5h4Zm-7,0h-4v-.5h4Zm-7,0h-4v-.5h4Zm-7,0h-4v-.5h4Zm-7,0h-4v-.5h4Zm-7,0h-4v-.5h4Zm-7,0h-4v-.5h4Zm-7,0h-4v-.5h4Zm-7,0h-4v-.5h4Zm-7,0h-4v-.5h4Zm-7,0h-4v-.5h4Zm-7,0h-4v-.5h4Zm-7,0h-4v-.5h4Zm-7,0h-4v-.5h4Zm-7,0h-4v-.5h4Zm-7,0h-4v-.5h4Zm-7,0h-4v-.5h4Zm-7,0h-4v-.5h4Zm-7,0h-4v-.5h4Zm-7,0h-4v-.5h4Zm-7,0h-4v-.5h4Zm-7,0h-4v-.5h4Zm-7,0h-4v-.5h4Zm-7,0h-4v-.5h4Zm-7,0h-4v-.5h4Zm-7,0h-4v-.5h4Zm-7,0h-4v-.5h4Zm-7,0h-4v-.5h4Zm-7,0h-4v-.5h4Zm-7,0h-4v-.5h4Zm-7,0h-4v-.5h4Zm-7,0h-4v-.5h4Zm-7,0h-4v-.5h4Zm-7,0h-4v-.5h4Zm-7,0h-4v-.5h4Zm-7,0h-4v-.5h4Zm-7,0h-4v-.5h4Zm-7,0h-4v-.5h4Zm-7,0h-4v-.5h4Zm-7,0h-4v-.5h4Zm-7,0h-4v-.5h4Zm-7,0h-4v-.5h4Zm-7,0h-4v-.5h4Zm-7,0h-4v-.5h4Zm-7,0h-4v-.5h4Zm-7,0h-4v-.5h4Zm-7,0h-4v-.5h4Zm-7,0h-4v-.5h4Zm-7,0h-4v-.5h4Zm-7,0h-4v-.5h4Zm-7,0h-4v-.5h4Zm-7,0h-4v-.5h4Zm-7,0h-4v-.5h4Zm-7,0h-4v-.5h4Zm-7,0h-4v-.5h4Zm-7,0h-4v-.5h4Zm-7,0h-4v-.5h4Zm-7,0h-4v-.5h4Zm-7,0h-4v-.5h4Zm-7,0h-4v-.5h4Zm-7,0h-4v-.5h4Zm-7,0h-4v-.5h4Zm-7,0h-4v-.5h4Zm-7,0h-4v-.5h4Zm-7,0h-4v-.5h4Zm-7,0h-4v-.5h4Zm-7,0h-4v-.5h4Zm-7,0h-4v-.5h4Zm-7,0h-4v-.5h4Zm-7,0h-4v-.5h4Zm-7,0h-4v-.5h4Zm-7,0h-4v-.5h4Zm-7,0h-4v-.5h4Zm-7,0h-4v-.5h4Zm-7,0h-4v-.5h4Zm-7,0h-4v-.5h4Zm-7,0h-4v-.5h4Zm-7,0h-4v-.5h4Zm-7,0h-4v-.5h4Zm-7,0h-4v-.5h4Zm-7,0h-4V335h4Zm-7,0h-4V335h4Zm-7,0h-4V335h4Zm-7,0h-4V335h4Zm-7,0h-4V335h4Zm-7,0h-4V335h4Zm-7,0h-4V335h4Zm-7,0h-4V335h4Zm-7,0h-4V335h4Zm-7,0h-4V335h4Zm-7,0h-4V335h4Zm-7,0h-4V335h4Zm-7,0h-4V335h4Zm-7,0h-4V335h4Zm-7,0h-4V335h4Zm-7,0h-4V335h4Zm-7,0h-4V335h4Zm-7,0h-4V335h4Zm-7,0h-4V335h4Zm-7,0h-4V335h4Zm-7,0h-4V335h4Zm-7,0h-4V335h4Zm-7,0h-4V335h4Zm-7,0h-4V335h4Zm-7,0h-4V335h4Zm-7,0h-4V335h4Zm-7,0h-4V335h4Zm-7,0h-4V335h4Zm-7,0h-4V335h4Zm-7,0h-4V335h4Zm-7,0h-4V335h4Zm-7,0h-4V335h4Zm-7,0h-4V335h4Zm-7,0h-4V335h4Zm-7,0h-4V335h4Zm-7,0h-4V335h4Zm-7,0h-4V335h4Zm-7,0h-4V335h4Zm-7,0h-4V335h4Zm-7,0H12V335h4Zm-7,0H5V335H9Z"/><rect class="cls-4" x="862" y="335.18" width="2" height="0.5"/><rect class="cls-4" y="455.28" width="2" height="0.5"/><path class="cls-4" d="M859,456h-4v-.5h4Zm-7,0h-4v-.5h4Zm-7,0h-4v-.5h4Zm-7,0h-4v-.5h4Zm-7,0h-4v-.5h4Zm-7,0h-4v-.5h4Zm-7,0h-4v-.5h4Zm-7,0h-4v-.5h4Zm-7,0h-4v-.5h4Zm-7,0h-4v-.5h4Zm-7,0h-4v-.5h4Zm-7,0h-4v-.5h4Zm-7,0h-4v-.5h4Zm-7,0h-4v-.5h4Zm-7,0h-4v-.5h4Zm-7,0h-4v-.5h4Zm-7,0h-4v-.5h4Zm-7,0h-4v-.5h4Zm-7,0h-4v-.5h4Zm-7,0h-4v-.5h4Zm-7,0h-4v-.5h4Zm-7,0h-4v-.5h4Zm-7,0h-4v-.5h4Zm-7,0h-4v-.5h4Zm-7,0h-4v-.5h4Zm-7,0h-4v-.5h4Zm-7,0h-4v-.5h4Zm-7,0h-4v-.5h4Zm-7,0h-4v-.5h4Zm-7,0h-4v-.5h4Zm-7,0h-4v-.5h4Zm-7,0h-4v-.5h4Zm-7,0h-4v-.5h4Zm-7,0h-4v-.5h4Zm-7,0h-4v-.5h4Zm-7,0h-4v-.5h4Zm-7,0h-4v-.5h4Zm-7,0h-4v-.5h4Zm-7,0h-4v-.5h4Zm-7,0h-4v-.5h4Zm-7,0h-4v-.5h4Zm-7,0h-4v-.5h4Zm-7,0h-4v-.5h4Zm-7,0h-4v-.5h4Zm-7,0h-4v-.5h4Zm-7,0h-4v-.5h4Zm-7,0h-4v-.5h4Zm-7,0h-4v-.5h4Zm-7,0h-4v-.5h4Zm-7,0h-4v-.5h4Zm-7,0h-4v-.5h4Zm-7,0h-4v-.5h4Zm-7,0h-4v-.5h4Zm-7,0h-4v-.5h4Zm-7,0h-4v-.5h4Zm-7,0h-4v-.5h4Zm-7,0h-4v-.5h4Zm-7,0h-4v-.5h4Zm-7,0h-4v-.5h4Zm-7,0h-4v-.5h4Zm-7,0h-4v-.5h4Zm-7,0h-4v-.5h4Zm-7,0h-4v-.5h4Zm-7,0h-4v-.5h4Zm-7,0h-4v-.5h4Zm-7,0h-4v-.5h4Zm-7,0h-4v-.5h4Zm-7,0h-4v-.5h4Zm-7,0h-4v-.5h4Zm-7,0h-4v-.5h4Zm-7,0h-4v-.5h4Zm-7,0h-4v-.5h4Zm-7,0h-4v-.5h4Zm-7,0h-4v-.5h4Zm-7,0h-4v-.5h4Zm-7,0h-4v-.5h4Zm-7,0h-4v-.5h4Zm-7,0h-4v-.5h4Zm-7,0h-4v-.5h4Zm-7,0h-4v-.5h4Zm-7,0h-4v-.5h4Zm-7,0h-4v-.5h4Zm-7,0h-4v-.5h4Zm-7,0h-4v-.5h4Zm-7,0h-4v-.5h4Zm-7,0h-4v-.5h4Zm-7,0h-4v-.5h4Zm-7,0h-4v-.5h4Zm-7,0h-4v-.5h4Zm-7,0h-4v-.5h4Zm-7,0h-4v-.5h4Zm-7,0h-4v-.5h4Zm-7,0h-4v-.5h4Zm-7,0h-4v-.5h4Zm-7,0h-4v-.5h4Zm-7,0h-4v-.5h4Zm-7,0h-4v-.5h4Zm-7,0h-4v-.5h4Zm-7,0h-4v-.5h4Zm-7,0h-4v-.5h4Zm-7,0h-4v-.5h4Zm-7,0h-4v-.5h4Zm-7,0h-4v-.5h4Zm-7,0h-4v-.5h4Zm-7,0h-4v-.5h4Zm-7,0h-4v-.5h4Zm-7,0h-4v-.5h4Zm-7,0h-4v-.5h4Zm-7,0h-4v-.5h4Zm-7,0h-4v-.5h4Zm-7,0h-4v-.5h4Zm-7,0h-4v-.5h4Zm-7,0h-4v-.5h4Zm-7,0h-4v-.5h4Zm-7,0h-4v-.5h4Zm-7,0h-4v-.5h4Zm-7,0h-4v-.5h4Zm-7,0h-4v-.5h4Zm-7,0h-4v-.5h4Zm-7,0h-4v-.5h4Zm-7,0H12v-.5h4Zm-7,0H5v-.5H9Z"/><rect class="cls-4" x="862" y="455.47" width="2" height="0.5"/><rect x="767.99" y="143.74" width="24.01" height="0.5"/><rect x="779.75" y="119.99" width="0.5" height="24"/><rect x="768.01" y="119.74" width="24.01" height="0.5"/><text class="cls-6" transform="translate(797.25 124.97) rotate(90)">8</text></g></svg>