<svg xmlns="http://www.w3.org/2000/svg" viewBox="0 0 864 504"><defs><style>.cls-1{fill:#dbd8d7;}.cls-2{fill:#f5f1f0;}.cls-3{fill:#fff;}.cls-4{fill:#ff8873;}</style></defs><title>material-4</title><g id="Layer_2" data-name="Layer 2"><rect class="cls-1" width="863.9" height="504"/></g><g id="Layer_1" data-name="Layer 1"><rect class="cls-2" x="150" y="102" width="564" height="348"/><rect class="cls-3" x="168" y="126" width="168" height="156"/><rect class="cls-3" x="348" y="126" width="168" height="156"/><rect class="cls-3" x="528" y="126" width="168" height="156"/><rect class="cls-3" x="168" y="294" width="168" height="156"/><rect class="cls-3" x="348" y="294" width="168" height="156"/><rect class="cls-3" x="528" y="294" width="168" height="156"/><rect class="cls-3" x="150" y="57" width="564" height="45"/><polygon points="687.71 72 693.71 66 699.71 72 687.71 72"/><polygon points="683.21 75 678.71 75 678.71 84 683.21 84 687.71 79.5 683.21 75"/><rect x="691.46" y="75" width="4.5" height="9"/><polygon points="656.21 75 656.21 79.5 653.96 79.5 653.96 75 649.46 75 649.46 79.5 647.21 79.5 647.21 75 642.71 75 642.71 84 660.71 84 660.71 75 656.21 75"/><path d="M665.21,84V79.5a4.52,4.52,0,0,0,4.5-4.5h4.5A9,9,0,0,1,665.21,84Z"/><rect class="cls-4" x="575.5" y="57" width="1" height="393"/><rect class="cls-4" x="527.5" y="57" width="1" height="393"/><rect class="cls-4" x="695.5" y="57" width="1" height="393"/><rect class="cls-4" x="647.5" y="57" width="1" height="393"/><rect class="cls-4" x="635.5" y="57" width="1" height="393"/><rect class="cls-4" x="587.5" y="57" width="1" height="393"/><rect class="cls-4" x="215.5" y="57" width="1" height="393"/><rect class="cls-4" x="167.5" y="57" width="1" height="393"/><rect class="cls-4" x="335.5" y="57" width="1" height="393"/><rect class="cls-4" x="287.5" y="57" width="1" height="393"/><rect class="cls-4" x="275.5" y="57" width="1" height="393"/><rect class="cls-4" x="227.5" y="57" width="1" height="393"/><rect class="cls-4" x="395.5" y="57" width="1" height="393"/><rect class="cls-4" x="347.5" y="57" width="1" height="393"/><rect class="cls-4" x="515.5" y="57" width="1" height="393"/><rect class="cls-4" x="467.5" y="57" width="1" height="393"/><rect class="cls-4" x="455.5" y="57" width="1" height="393"/><rect class="cls-4" x="407.5" y="57" width="1" height="393"/></g></svg>