<svg xmlns="http://www.w3.org/2000/svg" xmlns:xlink="http://www.w3.org/1999/xlink" viewBox="0 0 864 504"><defs><style>.cls-1{fill:none;}.cls-2{fill:#dbd8d7;}.cls-3{fill:#f5f1f0;}.cls-4{fill:#fff;}.cls-5{fill:#c7c4c3;}.cls-6,.cls-9{fill:#ff8873;}.cls-7{clip-path:url(#clip-path);}.cls-8{fill:#bdb9b9;}.cls-9{fill-opacity:0.5;}</style><clipPath id="clip-path"><circle class="cls-1" cx="204" cy="204" r="132"/></clipPath></defs><title>material-2</title><g id="Layer_2" data-name="Layer 2"><rect class="cls-2" width="863.9" height="504"/></g><g id="Layer_1" data-name="Layer 1"><rect class="cls-3" x="300" width="492" height="432"/><rect class="cls-4" x="300" y="348" width="492" height="84"/><rect class="cls-4" x="300" y="24" width="492" height="300"/><rect class="cls-5" x="300" width="492" height="132"/><rect class="cls-5" x="456" y="168" width="312" height="36"/><rect class="cls-5" x="600" y="276" width="168" height="24"/><rect class="cls-5" x="648" y="216" width="120" height="12"/><path d="M454.5,385.5v-9H435V396h3l4.5-4.5h3v9H456V405h3.08l5.92-5.93V385.5Zm-13.24,3L438,391.75V379.5h13.5v6h-6v3ZM462,397.83l-3,3V397.5H448.5v-9H462Zm-3-3.33h-7.5v-3H459Z"/><rect class="cls-1" x="432" y="372" width="36" height="36"/><path d="M340.51,387h6v6h-6Zm10.5,6h6v-6h-6Zm10.5-6v6h6v-6Z"/><rect class="cls-1" x="336" y="372" width="36" height="36"/><path d="M555,379.49h-3v-3h-3v3h-6v-3h-3v3h-3l-3,3v21h24v-21Zm-18,21v-12h18v12Zm12-6h3v3h-3Z"/><rect class="cls-1" x="528" y="372" width="36" height="36"/><path d="M744.68,394.56a11.36,11.36,0,1,0-2.13,2.12l6.38,6.38,2.12-2.12ZM735.74,396a8.25,8.25,0,1,1,8.25-8.25A8.26,8.26,0,0,1,735.74,396Z"/><rect class="cls-1" x="720" y="372" width="36" height="36"/><rect class="cls-1" x="720" y="372" width="36" height="36"/><path d="M648,402l-6-6-6,6h-3V378h18v24Z"/><rect class="cls-1" x="624" y="372" width="36" height="36"/><circle class="cls-2" cx="204" cy="204" r="132"/><path class="cls-6" d="M486,456.5A66.5,66.5,0,1,1,552.5,390,66.57,66.57,0,0,1,486,456.5Zm0-132A65.5,65.5,0,1,0,551.5,390,65.57,65.57,0,0,0,486,324.5Z"/><path class="cls-4" d="M72,204a131.45,131.45,0,0,0,30.17,84H305.83a132,132,0,0,0,0-168H102.17A131.45,131.45,0,0,0,72,204Z"/><rect class="cls-3" x="96" y="168" width="72" height="72"/><path d="M141,195V177H102v39h6l9-9h6v18h21v9h6.16L162,222.15V195Zm-26.48,6L108,207.51V183h27v12H123v6ZM156,219.67l-6,6V219H129V201h27ZM150,213H135v-6h15Z"/><rect class="cls-1" x="96" y="168" width="72" height="72"/><path class="cls-3" d="M288,240h43a132.87,132.87,0,0,0,0-72H288Z"/><g class="cls-7"><path d="M342,183h-6v-6h-6v6H318v-6h-6v6h-6l-6,6v42h48V189Zm-36,42V201h36v24Zm24-12h6v6h-6Z"/><rect class="cls-1" x="288" y="168" width="72" height="72"/></g><g class="cls-7"><path class="cls-8" d="M360,96.25h-4v-.5h4Zm-7,0h-4v-.5h4Zm-7,0h-4v-.5h4Zm-7,0h-4v-.5h4Zm-7,0h-4v-.5h4Zm-7,0h-4v-.5h4Zm-7,0h-4v-.5h4Zm-7,0h-4v-.5h4Zm-7,0h-4v-.5h4Zm-7,0h-4v-.5h4Zm-7,0h-4v-.5h4Zm-7,0h-4v-.5h4Zm-7,0h-4v-.5h4Zm-7,0h-4v-.5h4Zm-7,0h-4v-.5h4Zm-7,0h-4v-.5h4Zm-7,0h-4v-.5h4Zm-7,0h-4v-.5h4Zm-7,0h-4v-.5h4Zm-7,0h-4v-.5h4Zm-7,0h-4v-.5h4Zm-7,0h-4v-.5h4Zm-7,0h-4v-.5h4Zm-7,0h-4v-.5h4Zm-7,0h-4v-.5h4Zm-7,0h-4v-.5h4Zm-7,0h-4v-.5h4Zm-7,0h-4v-.5h4Zm-7,0h-4v-.5h4Zm-7,0h-4v-.5h4Zm-7,0h-4v-.5h4Zm-7,0h-4v-.5h4Zm-7,0h-4v-.5h4Zm-7,0h-4v-.5h4Zm-7,0h-4v-.5h4Zm-7,0h-4v-.5h4Zm-7,0h-4v-.5h4Zm-7,0H97v-.5h4Zm-7,0H90v-.5h4Zm-7,0H83v-.5h4Zm-7,0H76v-.5h4Zm-7,0H69v-.5h4Zm-7,0H62v-.5h4Zm-7,0H55v-.5h4Zm-7,0H48v-.5h4Z"/><path class="cls-8" d="M360,120.25h-4v-.5h4Zm-7,0h-4v-.5h4Zm-7,0h-4v-.5h4Zm-7,0h-4v-.5h4Zm-7,0h-4v-.5h4Zm-7,0h-4v-.5h4Zm-7,0h-4v-.5h4Zm-7,0h-4v-.5h4Zm-7,0h-4v-.5h4Zm-7,0h-4v-.5h4Zm-7,0h-4v-.5h4Zm-7,0h-4v-.5h4Zm-7,0h-4v-.5h4Zm-7,0h-4v-.5h4Zm-7,0h-4v-.5h4Zm-7,0h-4v-.5h4Zm-7,0h-4v-.5h4Zm-7,0h-4v-.5h4Zm-7,0h-4v-.5h4Zm-7,0h-4v-.5h4Zm-7,0h-4v-.5h4Zm-7,0h-4v-.5h4Zm-7,0h-4v-.5h4Zm-7,0h-4v-.5h4Zm-7,0h-4v-.5h4Zm-7,0h-4v-.5h4Zm-7,0h-4v-.5h4Zm-7,0h-4v-.5h4Zm-7,0h-4v-.5h4Zm-7,0h-4v-.5h4Zm-7,0h-4v-.5h4Zm-7,0h-4v-.5h4Zm-7,0h-4v-.5h4Zm-7,0h-4v-.5h4Zm-7,0h-4v-.5h4Zm-7,0h-4v-.5h4Zm-7,0h-4v-.5h4Zm-7,0H97v-.5h4Zm-7,0H90v-.5h4Zm-7,0H83v-.5h4Zm-7,0H76v-.5h4Zm-7,0H69v-.5h4Zm-7,0H62v-.5h4Zm-7,0H55v-.5h4Zm-7,0H48v-.5h4Z"/><path class="cls-8" d="M360,144.25h-4v-.5h4Zm-7,0h-4v-.5h4Zm-7,0h-4v-.5h4Zm-7,0h-4v-.5h4Zm-7,0h-4v-.5h4Zm-7,0h-4v-.5h4Zm-7,0h-4v-.5h4Zm-7,0h-4v-.5h4Zm-7,0h-4v-.5h4Zm-7,0h-4v-.5h4Zm-7,0h-4v-.5h4Zm-7,0h-4v-.5h4Zm-7,0h-4v-.5h4Zm-7,0h-4v-.5h4Zm-7,0h-4v-.5h4Zm-7,0h-4v-.5h4Zm-7,0h-4v-.5h4Zm-7,0h-4v-.5h4Zm-7,0h-4v-.5h4Zm-7,0h-4v-.5h4Zm-7,0h-4v-.5h4Zm-7,0h-4v-.5h4Zm-7,0h-4v-.5h4Zm-7,0h-4v-.5h4Zm-7,0h-4v-.5h4Zm-7,0h-4v-.5h4Zm-7,0h-4v-.5h4Zm-7,0h-4v-.5h4Zm-7,0h-4v-.5h4Zm-7,0h-4v-.5h4Zm-7,0h-4v-.5h4Zm-7,0h-4v-.5h4Zm-7,0h-4v-.5h4Zm-7,0h-4v-.5h4Zm-7,0h-4v-.5h4Zm-7,0h-4v-.5h4Zm-7,0h-4v-.5h4Zm-7,0H97v-.5h4Zm-7,0H90v-.5h4Zm-7,0H83v-.5h4Zm-7,0H76v-.5h4Zm-7,0H69v-.5h4Zm-7,0H62v-.5h4Zm-7,0H55v-.5h4Zm-7,0H48v-.5h4Z"/><path class="cls-8" d="M360,168.25h-4v-.5h4Zm-7,0h-4v-.5h4Zm-7,0h-4v-.5h4Zm-7,0h-4v-.5h4Zm-7,0h-4v-.5h4Zm-7,0h-4v-.5h4Zm-7,0h-4v-.5h4Zm-7,0h-4v-.5h4Zm-7,0h-4v-.5h4Zm-7,0h-4v-.5h4Zm-7,0h-4v-.5h4Zm-7,0h-4v-.5h4Zm-7,0h-4v-.5h4Zm-7,0h-4v-.5h4Zm-7,0h-4v-.5h4Zm-7,0h-4v-.5h4Zm-7,0h-4v-.5h4Zm-7,0h-4v-.5h4Zm-7,0h-4v-.5h4Zm-7,0h-4v-.5h4Zm-7,0h-4v-.5h4Zm-7,0h-4v-.5h4Zm-7,0h-4v-.5h4Zm-7,0h-4v-.5h4Zm-7,0h-4v-.5h4Zm-7,0h-4v-.5h4Zm-7,0h-4v-.5h4Zm-7,0h-4v-.5h4Zm-7,0h-4v-.5h4Zm-7,0h-4v-.5h4Zm-7,0h-4v-.5h4Zm-7,0h-4v-.5h4Zm-7,0h-4v-.5h4Zm-7,0h-4v-.5h4Zm-7,0h-4v-.5h4Zm-7,0h-4v-.5h4Zm-7,0h-4v-.5h4Zm-7,0H97v-.5h4Zm-7,0H90v-.5h4Zm-7,0H83v-.5h4Zm-7,0H76v-.5h4Zm-7,0H69v-.5h4Zm-7,0H62v-.5h4Zm-7,0H55v-.5h4Zm-7,0H48v-.5h4Z"/><path class="cls-8" d="M360,192.25h-4v-.5h4Zm-7,0h-4v-.5h4Zm-7,0h-4v-.5h4Zm-7,0h-4v-.5h4Zm-7,0h-4v-.5h4Zm-7,0h-4v-.5h4Zm-7,0h-4v-.5h4Zm-7,0h-4v-.5h4Zm-7,0h-4v-.5h4Zm-7,0h-4v-.5h4Zm-7,0h-4v-.5h4Zm-7,0h-4v-.5h4Zm-7,0h-4v-.5h4Zm-7,0h-4v-.5h4Zm-7,0h-4v-.5h4Zm-7,0h-4v-.5h4Zm-7,0h-4v-.5h4Zm-7,0h-4v-.5h4Zm-7,0h-4v-.5h4Zm-7,0h-4v-.5h4Zm-7,0h-4v-.5h4Zm-7,0h-4v-.5h4Zm-7,0h-4v-.5h4Zm-7,0h-4v-.5h4Zm-7,0h-4v-.5h4Zm-7,0h-4v-.5h4Zm-7,0h-4v-.5h4Zm-7,0h-4v-.5h4Zm-7,0h-4v-.5h4Zm-7,0h-4v-.5h4Zm-7,0h-4v-.5h4Zm-7,0h-4v-.5h4Zm-7,0h-4v-.5h4Zm-7,0h-4v-.5h4Zm-7,0h-4v-.5h4Zm-7,0h-4v-.5h4Zm-7,0h-4v-.5h4Zm-7,0H97v-.5h4Zm-7,0H90v-.5h4Zm-7,0H83v-.5h4Zm-7,0H76v-.5h4Zm-7,0H69v-.5h4Zm-7,0H62v-.5h4Zm-7,0H55v-.5h4Zm-7,0H48v-.5h4Z"/><path class="cls-8" d="M360,216.25h-4v-.5h4Zm-7,0h-4v-.5h4Zm-7,0h-4v-.5h4Zm-7,0h-4v-.5h4Zm-7,0h-4v-.5h4Zm-7,0h-4v-.5h4Zm-7,0h-4v-.5h4Zm-7,0h-4v-.5h4Zm-7,0h-4v-.5h4Zm-7,0h-4v-.5h4Zm-7,0h-4v-.5h4Zm-7,0h-4v-.5h4Zm-7,0h-4v-.5h4Zm-7,0h-4v-.5h4Zm-7,0h-4v-.5h4Zm-7,0h-4v-.5h4Zm-7,0h-4v-.5h4Zm-7,0h-4v-.5h4Zm-7,0h-4v-.5h4Zm-7,0h-4v-.5h4Zm-7,0h-4v-.5h4Zm-7,0h-4v-.5h4Zm-7,0h-4v-.5h4Zm-7,0h-4v-.5h4Zm-7,0h-4v-.5h4Zm-7,0h-4v-.5h4Zm-7,0h-4v-.5h4Zm-7,0h-4v-.5h4Zm-7,0h-4v-.5h4Zm-7,0h-4v-.5h4Zm-7,0h-4v-.5h4Zm-7,0h-4v-.5h4Zm-7,0h-4v-.5h4Zm-7,0h-4v-.5h4Zm-7,0h-4v-.5h4Zm-7,0h-4v-.5h4Zm-7,0h-4v-.5h4Zm-7,0H97v-.5h4Zm-7,0H90v-.5h4Zm-7,0H83v-.5h4Zm-7,0H76v-.5h4Zm-7,0H69v-.5h4Zm-7,0H62v-.5h4Zm-7,0H55v-.5h4Zm-7,0H48v-.5h4Z"/><path class="cls-8" d="M360,240.25h-4v-.5h4Zm-7,0h-4v-.5h4Zm-7,0h-4v-.5h4Zm-7,0h-4v-.5h4Zm-7,0h-4v-.5h4Zm-7,0h-4v-.5h4Zm-7,0h-4v-.5h4Zm-7,0h-4v-.5h4Zm-7,0h-4v-.5h4Zm-7,0h-4v-.5h4Zm-7,0h-4v-.5h4Zm-7,0h-4v-.5h4Zm-7,0h-4v-.5h4Zm-7,0h-4v-.5h4Zm-7,0h-4v-.5h4Zm-7,0h-4v-.5h4Zm-7,0h-4v-.5h4Zm-7,0h-4v-.5h4Zm-7,0h-4v-.5h4Zm-7,0h-4v-.5h4Zm-7,0h-4v-.5h4Zm-7,0h-4v-.5h4Zm-7,0h-4v-.5h4Zm-7,0h-4v-.5h4Zm-7,0h-4v-.5h4Zm-7,0h-4v-.5h4Zm-7,0h-4v-.5h4Zm-7,0h-4v-.5h4Zm-7,0h-4v-.5h4Zm-7,0h-4v-.5h4Zm-7,0h-4v-.5h4Zm-7,0h-4v-.5h4Zm-7,0h-4v-.5h4Zm-7,0h-4v-.5h4Zm-7,0h-4v-.5h4Zm-7,0h-4v-.5h4Zm-7,0h-4v-.5h4Zm-7,0H97v-.5h4Zm-7,0H90v-.5h4Zm-7,0H83v-.5h4Zm-7,0H76v-.5h4Zm-7,0H69v-.5h4Zm-7,0H62v-.5h4Zm-7,0H55v-.5h4Zm-7,0H48v-.5h4Z"/><path class="cls-8" d="M360,264.25h-4v-.5h4Zm-7,0h-4v-.5h4Zm-7,0h-4v-.5h4Zm-7,0h-4v-.5h4Zm-7,0h-4v-.5h4Zm-7,0h-4v-.5h4Zm-7,0h-4v-.5h4Zm-7,0h-4v-.5h4Zm-7,0h-4v-.5h4Zm-7,0h-4v-.5h4Zm-7,0h-4v-.5h4Zm-7,0h-4v-.5h4Zm-7,0h-4v-.5h4Zm-7,0h-4v-.5h4Zm-7,0h-4v-.5h4Zm-7,0h-4v-.5h4Zm-7,0h-4v-.5h4Zm-7,0h-4v-.5h4Zm-7,0h-4v-.5h4Zm-7,0h-4v-.5h4Zm-7,0h-4v-.5h4Zm-7,0h-4v-.5h4Zm-7,0h-4v-.5h4Zm-7,0h-4v-.5h4Zm-7,0h-4v-.5h4Zm-7,0h-4v-.5h4Zm-7,0h-4v-.5h4Zm-7,0h-4v-.5h4Zm-7,0h-4v-.5h4Zm-7,0h-4v-.5h4Zm-7,0h-4v-.5h4Zm-7,0h-4v-.5h4Zm-7,0h-4v-.5h4Zm-7,0h-4v-.5h4Zm-7,0h-4v-.5h4Zm-7,0h-4v-.5h4Zm-7,0h-4v-.5h4Zm-7,0H97v-.5h4Zm-7,0H90v-.5h4Zm-7,0H83v-.5h4Zm-7,0H76v-.5h4Zm-7,0H69v-.5h4Zm-7,0H62v-.5h4Zm-7,0H55v-.5h4Zm-7,0H48v-.5h4Z"/><path class="cls-8" d="M360,288.25h-4v-.5h4Zm-7,0h-4v-.5h4Zm-7,0h-4v-.5h4Zm-7,0h-4v-.5h4Zm-7,0h-4v-.5h4Zm-7,0h-4v-.5h4Zm-7,0h-4v-.5h4Zm-7,0h-4v-.5h4Zm-7,0h-4v-.5h4Zm-7,0h-4v-.5h4Zm-7,0h-4v-.5h4Zm-7,0h-4v-.5h4Zm-7,0h-4v-.5h4Zm-7,0h-4v-.5h4Zm-7,0h-4v-.5h4Zm-7,0h-4v-.5h4Zm-7,0h-4v-.5h4Zm-7,0h-4v-.5h4Zm-7,0h-4v-.5h4Zm-7,0h-4v-.5h4Zm-7,0h-4v-.5h4Zm-7,0h-4v-.5h4Zm-7,0h-4v-.5h4Zm-7,0h-4v-.5h4Zm-7,0h-4v-.5h4Zm-7,0h-4v-.5h4Zm-7,0h-4v-.5h4Zm-7,0h-4v-.5h4Zm-7,0h-4v-.5h4Zm-7,0h-4v-.5h4Zm-7,0h-4v-.5h4Zm-7,0h-4v-.5h4Zm-7,0h-4v-.5h4Zm-7,0h-4v-.5h4Zm-7,0h-4v-.5h4Zm-7,0h-4v-.5h4Zm-7,0h-4v-.5h4Zm-7,0H97v-.5h4Zm-7,0H90v-.5h4Zm-7,0H83v-.5h4Zm-7,0H76v-.5h4Zm-7,0H69v-.5h4Zm-7,0H62v-.5h4Zm-7,0H55v-.5h4Zm-7,0H48v-.5h4Z"/><path class="cls-8" d="M360,312.25h-4v-.5h4Zm-7,0h-4v-.5h4Zm-7,0h-4v-.5h4Zm-7,0h-4v-.5h4Zm-7,0h-4v-.5h4Zm-7,0h-4v-.5h4Zm-7,0h-4v-.5h4Zm-7,0h-4v-.5h4Zm-7,0h-4v-.5h4Zm-7,0h-4v-.5h4Zm-7,0h-4v-.5h4Zm-7,0h-4v-.5h4Zm-7,0h-4v-.5h4Zm-7,0h-4v-.5h4Zm-7,0h-4v-.5h4Zm-7,0h-4v-.5h4Zm-7,0h-4v-.5h4Zm-7,0h-4v-.5h4Zm-7,0h-4v-.5h4Zm-7,0h-4v-.5h4Zm-7,0h-4v-.5h4Zm-7,0h-4v-.5h4Zm-7,0h-4v-.5h4Zm-7,0h-4v-.5h4Zm-7,0h-4v-.5h4Zm-7,0h-4v-.5h4Zm-7,0h-4v-.5h4Zm-7,0h-4v-.5h4Zm-7,0h-4v-.5h4Zm-7,0h-4v-.5h4Zm-7,0h-4v-.5h4Zm-7,0h-4v-.5h4Zm-7,0h-4v-.5h4Zm-7,0h-4v-.5h4Zm-7,0h-4v-.5h4Zm-7,0h-4v-.5h4Zm-7,0h-4v-.5h4Zm-7,0H97v-.5h4Zm-7,0H90v-.5h4Zm-7,0H83v-.5h4Zm-7,0H76v-.5h4Zm-7,0H69v-.5h4Zm-7,0H62v-.5h4Zm-7,0H55v-.5h4Zm-7,0H48v-.5h4Z"/><path class="cls-8" d="M312.25,360h-.5v-4h.5Zm0-7h-.5v-4h.5Zm0-7h-.5v-4h.5Zm0-7h-.5v-4h.5Zm0-7h-.5v-4h.5Zm0-7h-.5v-4h.5Zm0-7h-.5v-4h.5Zm0-7h-.5v-4h.5Zm0-7h-.5v-4h.5Zm0-7h-.5v-4h.5Zm0-7h-.5v-4h.5Zm0-7h-.5v-4h.5Zm0-7h-.5v-4h.5Zm0-7h-.5v-4h.5Zm0-7h-.5v-4h.5Zm0-7h-.5v-4h.5Zm0-7h-.5v-4h.5Zm0-7h-.5v-4h.5Zm0-7h-.5v-4h.5Zm0-7h-.5v-4h.5Zm0-7h-.5v-4h.5Zm0-7h-.5v-4h.5Zm0-7h-.5v-4h.5Zm0-7h-.5v-4h.5Zm0-7h-.5v-4h.5Zm0-7h-.5v-4h.5Zm0-7h-.5v-4h.5Zm0-7h-.5v-4h.5Zm0-7h-.5v-4h.5Zm0-7h-.5v-4h.5Zm0-7h-.5v-4h.5Zm0-7h-.5v-4h.5Zm0-7h-.5v-4h.5Zm0-7h-.5v-4h.5Zm0-7h-.5v-4h.5Zm0-7h-.5v-4h.5Zm0-7h-.5v-4h.5Zm0-7h-.5V97h.5Zm0-7h-.5V90h.5Zm0-7h-.5V83h.5Zm0-7h-.5V76h.5Zm0-7h-.5V69h.5Zm0-7h-.5V62h.5Zm0-7h-.5V55h.5Zm0-7h-.5V48h.5Z"/><path class="cls-8" d="M288.25,360h-.5v-4h.5Zm0-7h-.5v-4h.5Zm0-7h-.5v-4h.5Zm0-7h-.5v-4h.5Zm0-7h-.5v-4h.5Zm0-7h-.5v-4h.5Zm0-7h-.5v-4h.5Zm0-7h-.5v-4h.5Zm0-7h-.5v-4h.5Zm0-7h-.5v-4h.5Zm0-7h-.5v-4h.5Zm0-7h-.5v-4h.5Zm0-7h-.5v-4h.5Zm0-7h-.5v-4h.5Zm0-7h-.5v-4h.5Zm0-7h-.5v-4h.5Zm0-7h-.5v-4h.5Zm0-7h-.5v-4h.5Zm0-7h-.5v-4h.5Zm0-7h-.5v-4h.5Zm0-7h-.5v-4h.5Zm0-7h-.5v-4h.5Zm0-7h-.5v-4h.5Zm0-7h-.5v-4h.5Zm0-7h-.5v-4h.5Zm0-7h-.5v-4h.5Zm0-7h-.5v-4h.5Zm0-7h-.5v-4h.5Zm0-7h-.5v-4h.5Zm0-7h-.5v-4h.5Zm0-7h-.5v-4h.5Zm0-7h-.5v-4h.5Zm0-7h-.5v-4h.5Zm0-7h-.5v-4h.5Zm0-7h-.5v-4h.5Zm0-7h-.5v-4h.5Zm0-7h-.5v-4h.5Zm0-7h-.5V97h.5Zm0-7h-.5V90h.5Zm0-7h-.5V83h.5Zm0-7h-.5V76h.5Zm0-7h-.5V69h.5Zm0-7h-.5V62h.5Zm0-7h-.5V55h.5Zm0-7h-.5V48h.5Z"/><path class="cls-8" d="M264.25,360h-.5v-4h.5Zm0-7h-.5v-4h.5Zm0-7h-.5v-4h.5Zm0-7h-.5v-4h.5Zm0-7h-.5v-4h.5Zm0-7h-.5v-4h.5Zm0-7h-.5v-4h.5Zm0-7h-.5v-4h.5Zm0-7h-.5v-4h.5Zm0-7h-.5v-4h.5Zm0-7h-.5v-4h.5Zm0-7h-.5v-4h.5Zm0-7h-.5v-4h.5Zm0-7h-.5v-4h.5Zm0-7h-.5v-4h.5Zm0-7h-.5v-4h.5Zm0-7h-.5v-4h.5Zm0-7h-.5v-4h.5Zm0-7h-.5v-4h.5Zm0-7h-.5v-4h.5Zm0-7h-.5v-4h.5Zm0-7h-.5v-4h.5Zm0-7h-.5v-4h.5Zm0-7h-.5v-4h.5Zm0-7h-.5v-4h.5Zm0-7h-.5v-4h.5Zm0-7h-.5v-4h.5Zm0-7h-.5v-4h.5Zm0-7h-.5v-4h.5Zm0-7h-.5v-4h.5Zm0-7h-.5v-4h.5Zm0-7h-.5v-4h.5Zm0-7h-.5v-4h.5Zm0-7h-.5v-4h.5Zm0-7h-.5v-4h.5Zm0-7h-.5v-4h.5Zm0-7h-.5v-4h.5Zm0-7h-.5V97h.5Zm0-7h-.5V90h.5Zm0-7h-.5V83h.5Zm0-7h-.5V76h.5Zm0-7h-.5V69h.5Zm0-7h-.5V62h.5Zm0-7h-.5V55h.5Zm0-7h-.5V48h.5Z"/><path class="cls-8" d="M240.25,360h-.5v-4h.5Zm0-7h-.5v-4h.5Zm0-7h-.5v-4h.5Zm0-7h-.5v-4h.5Zm0-7h-.5v-4h.5Zm0-7h-.5v-4h.5Zm0-7h-.5v-4h.5Zm0-7h-.5v-4h.5Zm0-7h-.5v-4h.5Zm0-7h-.5v-4h.5Zm0-7h-.5v-4h.5Zm0-7h-.5v-4h.5Zm0-7h-.5v-4h.5Zm0-7h-.5v-4h.5Zm0-7h-.5v-4h.5Zm0-7h-.5v-4h.5Zm0-7h-.5v-4h.5Zm0-7h-.5v-4h.5Zm0-7h-.5v-4h.5Zm0-7h-.5v-4h.5Zm0-7h-.5v-4h.5Zm0-7h-.5v-4h.5Zm0-7h-.5v-4h.5Zm0-7h-.5v-4h.5Zm0-7h-.5v-4h.5Zm0-7h-.5v-4h.5Zm0-7h-.5v-4h.5Zm0-7h-.5v-4h.5Zm0-7h-.5v-4h.5Zm0-7h-.5v-4h.5Zm0-7h-.5v-4h.5Zm0-7h-.5v-4h.5Zm0-7h-.5v-4h.5Zm0-7h-.5v-4h.5Zm0-7h-.5v-4h.5Zm0-7h-.5v-4h.5Zm0-7h-.5v-4h.5Zm0-7h-.5V97h.5Zm0-7h-.5V90h.5Zm0-7h-.5V83h.5Zm0-7h-.5V76h.5Zm0-7h-.5V69h.5Zm0-7h-.5V62h.5Zm0-7h-.5V55h.5Zm0-7h-.5V48h.5Z"/><path class="cls-8" d="M216.25,360h-.5v-4h.5Zm0-7h-.5v-4h.5Zm0-7h-.5v-4h.5Zm0-7h-.5v-4h.5Zm0-7h-.5v-4h.5Zm0-7h-.5v-4h.5Zm0-7h-.5v-4h.5Zm0-7h-.5v-4h.5Zm0-7h-.5v-4h.5Zm0-7h-.5v-4h.5Zm0-7h-.5v-4h.5Zm0-7h-.5v-4h.5Zm0-7h-.5v-4h.5Zm0-7h-.5v-4h.5Zm0-7h-.5v-4h.5Zm0-7h-.5v-4h.5Zm0-7h-.5v-4h.5Zm0-7h-.5v-4h.5Zm0-7h-.5v-4h.5Zm0-7h-.5v-4h.5Zm0-7h-.5v-4h.5Zm0-7h-.5v-4h.5Zm0-7h-.5v-4h.5Zm0-7h-.5v-4h.5Zm0-7h-.5v-4h.5Zm0-7h-.5v-4h.5Zm0-7h-.5v-4h.5Zm0-7h-.5v-4h.5Zm0-7h-.5v-4h.5Zm0-7h-.5v-4h.5Zm0-7h-.5v-4h.5Zm0-7h-.5v-4h.5Zm0-7h-.5v-4h.5Zm0-7h-.5v-4h.5Zm0-7h-.5v-4h.5Zm0-7h-.5v-4h.5Zm0-7h-.5v-4h.5Zm0-7h-.5V97h.5Zm0-7h-.5V90h.5Zm0-7h-.5V83h.5Zm0-7h-.5V76h.5Zm0-7h-.5V69h.5Zm0-7h-.5V62h.5Zm0-7h-.5V55h.5Zm0-7h-.5V48h.5Z"/><path class="cls-8" d="M192.25,360h-.5v-4h.5Zm0-7h-.5v-4h.5Zm0-7h-.5v-4h.5Zm0-7h-.5v-4h.5Zm0-7h-.5v-4h.5Zm0-7h-.5v-4h.5Zm0-7h-.5v-4h.5Zm0-7h-.5v-4h.5Zm0-7h-.5v-4h.5Zm0-7h-.5v-4h.5Zm0-7h-.5v-4h.5Zm0-7h-.5v-4h.5Zm0-7h-.5v-4h.5Zm0-7h-.5v-4h.5Zm0-7h-.5v-4h.5Zm0-7h-.5v-4h.5Zm0-7h-.5v-4h.5Zm0-7h-.5v-4h.5Zm0-7h-.5v-4h.5Zm0-7h-.5v-4h.5Zm0-7h-.5v-4h.5Zm0-7h-.5v-4h.5Zm0-7h-.5v-4h.5Zm0-7h-.5v-4h.5Zm0-7h-.5v-4h.5Zm0-7h-.5v-4h.5Zm0-7h-.5v-4h.5Zm0-7h-.5v-4h.5Zm0-7h-.5v-4h.5Zm0-7h-.5v-4h.5Zm0-7h-.5v-4h.5Zm0-7h-.5v-4h.5Zm0-7h-.5v-4h.5Zm0-7h-.5v-4h.5Zm0-7h-.5v-4h.5Zm0-7h-.5v-4h.5Zm0-7h-.5v-4h.5Zm0-7h-.5V97h.5Zm0-7h-.5V90h.5Zm0-7h-.5V83h.5Zm0-7h-.5V76h.5Zm0-7h-.5V69h.5Zm0-7h-.5V62h.5Zm0-7h-.5V55h.5Zm0-7h-.5V48h.5Z"/><path class="cls-8" d="M168.25,360h-.5v-4h.5Zm0-7h-.5v-4h.5Zm0-7h-.5v-4h.5Zm0-7h-.5v-4h.5Zm0-7h-.5v-4h.5Zm0-7h-.5v-4h.5Zm0-7h-.5v-4h.5Zm0-7h-.5v-4h.5Zm0-7h-.5v-4h.5Zm0-7h-.5v-4h.5Zm0-7h-.5v-4h.5Zm0-7h-.5v-4h.5Zm0-7h-.5v-4h.5Zm0-7h-.5v-4h.5Zm0-7h-.5v-4h.5Zm0-7h-.5v-4h.5Zm0-7h-.5v-4h.5Zm0-7h-.5v-4h.5Zm0-7h-.5v-4h.5Zm0-7h-.5v-4h.5Zm0-7h-.5v-4h.5Zm0-7h-.5v-4h.5Zm0-7h-.5v-4h.5Zm0-7h-.5v-4h.5Zm0-7h-.5v-4h.5Zm0-7h-.5v-4h.5Zm0-7h-.5v-4h.5Zm0-7h-.5v-4h.5Zm0-7h-.5v-4h.5Zm0-7h-.5v-4h.5Zm0-7h-.5v-4h.5Zm0-7h-.5v-4h.5Zm0-7h-.5v-4h.5Zm0-7h-.5v-4h.5Zm0-7h-.5v-4h.5Zm0-7h-.5v-4h.5Zm0-7h-.5v-4h.5Zm0-7h-.5V97h.5Zm0-7h-.5V90h.5Zm0-7h-.5V83h.5Zm0-7h-.5V76h.5Zm0-7h-.5V69h.5Zm0-7h-.5V62h.5Zm0-7h-.5V55h.5Zm0-7h-.5V48h.5Z"/><path class="cls-8" d="M144.25,360h-.5v-4h.5Zm0-7h-.5v-4h.5Zm0-7h-.5v-4h.5Zm0-7h-.5v-4h.5Zm0-7h-.5v-4h.5Zm0-7h-.5v-4h.5Zm0-7h-.5v-4h.5Zm0-7h-.5v-4h.5Zm0-7h-.5v-4h.5Zm0-7h-.5v-4h.5Zm0-7h-.5v-4h.5Zm0-7h-.5v-4h.5Zm0-7h-.5v-4h.5Zm0-7h-.5v-4h.5Zm0-7h-.5v-4h.5Zm0-7h-.5v-4h.5Zm0-7h-.5v-4h.5Zm0-7h-.5v-4h.5Zm0-7h-.5v-4h.5Zm0-7h-.5v-4h.5Zm0-7h-.5v-4h.5Zm0-7h-.5v-4h.5Zm0-7h-.5v-4h.5Zm0-7h-.5v-4h.5Zm0-7h-.5v-4h.5Zm0-7h-.5v-4h.5Zm0-7h-.5v-4h.5Zm0-7h-.5v-4h.5Zm0-7h-.5v-4h.5Zm0-7h-.5v-4h.5Zm0-7h-.5v-4h.5Zm0-7h-.5v-4h.5Zm0-7h-.5v-4h.5Zm0-7h-.5v-4h.5Zm0-7h-.5v-4h.5Zm0-7h-.5v-4h.5Zm0-7h-.5v-4h.5Zm0-7h-.5V97h.5Zm0-7h-.5V90h.5Zm0-7h-.5V83h.5Zm0-7h-.5V76h.5Zm0-7h-.5V69h.5Zm0-7h-.5V62h.5Zm0-7h-.5V55h.5Zm0-7h-.5V48h.5Z"/><path class="cls-8" d="M120.25,360h-.5v-4h.5Zm0-7h-.5v-4h.5Zm0-7h-.5v-4h.5Zm0-7h-.5v-4h.5Zm0-7h-.5v-4h.5Zm0-7h-.5v-4h.5Zm0-7h-.5v-4h.5Zm0-7h-.5v-4h.5Zm0-7h-.5v-4h.5Zm0-7h-.5v-4h.5Zm0-7h-.5v-4h.5Zm0-7h-.5v-4h.5Zm0-7h-.5v-4h.5Zm0-7h-.5v-4h.5Zm0-7h-.5v-4h.5Zm0-7h-.5v-4h.5Zm0-7h-.5v-4h.5Zm0-7h-.5v-4h.5Zm0-7h-.5v-4h.5Zm0-7h-.5v-4h.5Zm0-7h-.5v-4h.5Zm0-7h-.5v-4h.5Zm0-7h-.5v-4h.5Zm0-7h-.5v-4h.5Zm0-7h-.5v-4h.5Zm0-7h-.5v-4h.5Zm0-7h-.5v-4h.5Zm0-7h-.5v-4h.5Zm0-7h-.5v-4h.5Zm0-7h-.5v-4h.5Zm0-7h-.5v-4h.5Zm0-7h-.5v-4h.5Zm0-7h-.5v-4h.5Zm0-7h-.5v-4h.5Zm0-7h-.5v-4h.5Zm0-7h-.5v-4h.5Zm0-7h-.5v-4h.5Zm0-7h-.5V97h.5Zm0-7h-.5V90h.5Zm0-7h-.5V83h.5Zm0-7h-.5V76h.5Zm0-7h-.5V69h.5Zm0-7h-.5V62h.5Zm0-7h-.5V55h.5Zm0-7h-.5V48h.5Z"/><path class="cls-8" d="M96.25,360h-.5v-4h.5Zm0-7h-.5v-4h.5Zm0-7h-.5v-4h.5Zm0-7h-.5v-4h.5Zm0-7h-.5v-4h.5Zm0-7h-.5v-4h.5Zm0-7h-.5v-4h.5Zm0-7h-.5v-4h.5Zm0-7h-.5v-4h.5Zm0-7h-.5v-4h.5Zm0-7h-.5v-4h.5Zm0-7h-.5v-4h.5Zm0-7h-.5v-4h.5Zm0-7h-.5v-4h.5Zm0-7h-.5v-4h.5Zm0-7h-.5v-4h.5Zm0-7h-.5v-4h.5Zm0-7h-.5v-4h.5Zm0-7h-.5v-4h.5Zm0-7h-.5v-4h.5Zm0-7h-.5v-4h.5Zm0-7h-.5v-4h.5Zm0-7h-.5v-4h.5Zm0-7h-.5v-4h.5Zm0-7h-.5v-4h.5Zm0-7h-.5v-4h.5Zm0-7h-.5v-4h.5Zm0-7h-.5v-4h.5Zm0-7h-.5v-4h.5Zm0-7h-.5v-4h.5Zm0-7h-.5v-4h.5Zm0-7h-.5v-4h.5Zm0-7h-.5v-4h.5Zm0-7h-.5v-4h.5Zm0-7h-.5v-4h.5Zm0-7h-.5v-4h.5Zm0-7h-.5v-4h.5Zm0-7h-.5V97h.5Zm0-7h-.5V90h.5Zm0-7h-.5V83h.5Zm0-7h-.5V76h.5Zm0-7h-.5V69h.5Zm0-7h-.5V62h.5Zm0-7h-.5V55h.5Zm0-7h-.5V48h.5Z"/></g><path class="cls-9" d="M305.87,120.05A132,132,0,0,1,147.1,323.14L451.5,446.27h0a66,66,0,1,1,82.65-101.39Z"/><path class="cls-6" d="M132,314.65l0,0,0,0Z"/><path class="cls-6" d="M204,336.5c-73.06,0-132.5-59.44-132.5-132.5S130.94,71.5,204,71.5,336.5,130.94,336.5,204,277.06,336.5,204,336.5Zm0-264c-72.51,0-131.5,59-131.5,131.5s59,131.5,131.5,131.5,131.5-59,131.5-131.5S276.51,72.5,204,72.5Z"/></g></svg>