<svg xmlns="http://www.w3.org/2000/svg" viewBox="0 0 864 504"><defs><style>.cls-1{fill:#dbd8d7;}.cls-2{fill:#f5f1f0;}.cls-3,.cls-5{fill:#fff;}.cls-4{fill:#ff8873;}.cls-5{font-size:14px;font-family:Roboto-Medium, Roboto;font-weight:500;}</style></defs><title>material-7</title><g id="Layer_2" data-name="Layer 2"><rect class="cls-1" x="0.05" width="863.9" height="504"/></g><g id="Layer_1" data-name="Layer 1"><rect class="cls-2" x="240" y="102" width="384" height="348"/><rect class="cls-3" x="258" y="126" width="168" height="156"/><rect class="cls-3" x="438" y="126" width="168" height="156"/><rect class="cls-3" x="258" y="294" width="168" height="156"/><rect class="cls-3" x="438" y="294" width="168" height="156"/><rect class="cls-3" x="240" y="57" width="384" height="45"/><polygon points="597.71 72 603.71 66 609.71 72 597.71 72"/><polygon points="593.21 75 588.71 75 588.71 84 593.21 84 597.71 79.5 593.21 75"/><rect x="601.46" y="75" width="4.5" height="9"/><polygon points="566.21 75 566.21 79.5 563.96 79.5 563.96 75 559.46 75 559.46 79.5 557.21 79.5 557.21 75 552.71 75 552.71 84 570.71 84 570.71 75 566.21 75"/><path d="M575.21,84V79.5a4.52,4.52,0,0,0,4.5-4.5h4.5A9,9,0,0,1,575.21,84Z"/><rect class="cls-4" x="305.5" y="57" width="1" height="393"/><rect class="cls-4" x="257.5" y="57" width="1" height="393"/><rect class="cls-4" x="425.5" y="57" width="1" height="393"/><rect class="cls-4" x="377.5" y="57" width="1" height="393"/><rect class="cls-4" x="365.5" y="57" width="1" height="393"/><rect class="cls-4" x="317.5" y="57" width="1" height="393"/><rect class="cls-4" x="485.5" y="57" width="1" height="393"/><rect class="cls-4" x="437.5" y="57" width="1" height="393"/><rect class="cls-4" x="605.5" y="57" width="1" height="393"/><rect class="cls-4" x="557.5" y="57" width="1" height="393"/><rect class="cls-4" x="545.5" y="57" width="1" height="393"/><rect class="cls-4" x="497.5" y="57" width="1" height="393"/><rect x="654" y="174" width="24" height="24"/><rect class="cls-4" x="486" y="180" width="12" height="12"/><rect class="cls-4" x="318" y="234" width="48" height="48"/><rect class="cls-4" x="606" y="321" width="18" height="18"/><rect x="492" y="185.75" width="162" height="0.5"/><text class="cls-5" transform="translate(662.02 190.5)">3</text><rect x="654" y="246" width="24" height="24"/><rect x="342" y="257.75" width="312" height="0.5"/><text class="cls-5" transform="translate(662.02 262.5)">2</text><rect x="654" y="318" width="24" height="24"/><rect x="615" y="329.75" width="39" height="0.5"/><text class="cls-5" transform="translate(662.02 334.5)">1</text></g></svg>