<?xml version="1.0" encoding="utf-8"?>
<!-- Generator: Adobe Illustrator 25.0.0, SVG Export Plug-In . SVG Version: 6.00 Build 0)  -->
<svg version="1.1" id="Layer_1" xmlns="http://www.w3.org/2000/svg" xmlns:xlink="http://www.w3.org/1999/xlink" x="0px" y="0px"
	 viewBox="0 0 1080 1080" style="enable-background:new 0 0 1080 1080;" xml:space="preserve">
<style type="text/css">
	.st0{fill:#061F6B;}
	.st1{fill:#4672E2;}
	.st2{fill:#FFFFFF;}
	.st3{fill:url(#SVGID_1_);}
	.st4{fill:url(#SVGID_2_);}
	.st5{fill:url(#SVGID_3_);}
	.st6{fill:url(#SVGID_4_);}
	.st7{fill:url(#SVGID_5_);}
	.st8{fill:url(#SVGID_6_);}
	.st9{fill:url(#SVGID_7_);}
	.st10{fill:url(#SVGID_8_);}
	.st11{fill:url(#SVGID_9_);}
</style>
<g id="Graphic">
	<path class="st0" d="M666.9,826.2L666.9,826.2c-228.1,0-413.1-185-413.1-413.1V0l0,0H1080l0,0v413.1
		C1080,641.2,895,826.2,666.9,826.2C666.9,826.2,666.9,826.2,666.9,826.2z"/>
	<polygon class="st1" points="89.3,86.4 89.3,91.8 103.7,91.8 86.5,118.8 110.9,118.8 110.9,113.4 96.3,113.4 113.6,86.4 	"/>
	<polygon class="st1" points="119,118.8 140.6,118.8 140.6,113.4 124.4,113.4 124.4,105.3 140.6,105.3 140.6,99.9 124.4,99.9 
		124.4,91.8 140.6,91.8 140.6,86.4 119,86.4 	"/>
	<polygon class="st1" points="170.3,113.4 154.1,113.4 154.1,105.3 170.3,105.3 170.3,99.9 154.1,99.9 154.1,91.8 170.3,91.8 
		170.3,86.4 148.7,86.4 148.7,118.8 170.3,118.8 	"/>
	<polygon class="st1" points="119,159.3 140.6,159.3 140.6,153.9 124.4,153.9 124.4,145.8 140.6,145.8 140.6,140.4 124.4,140.4 
		124.4,132.3 140.6,132.3 140.6,126.9 119,126.9 	"/>
	<polygon class="st1" points="167.6,126.9 167.6,148.8 153.8,126.9 148.7,126.9 148.7,159.3 154.1,159.3 154.1,137.4 167.8,159.3 
		173,159.3 173,126.9 	"/>
	<path class="st1" d="M84.3,684.4h15.8v3H94v17.5h-3.5v-17.5h-6.2V684.4z"/>
	<path class="st1" d="M117.2,704.8h-14.1v-20.4h13.8v2.9h-10.4v5.7h9.2v2.8h-9.2v6h10.6V704.8z"/>
	<path class="st1" d="M118.9,704.8l6.7-10.2l-6.6-10.2h3.9l4.6,7.4l4.8-7.4h3.8l-6.7,10.1l6.8,10.3h-4l-4.8-7.4l-4.6,7.4H118.9z"/>
	<path class="st1" d="M137.1,684.4h15.8v3h-6.2v17.5h-3.4v-17.5h-6.2V684.4z"/>
	<path class="st1" d="M164.8,704.8h-3.4v-20.4h3.4v8.5h9.4v-8.5h3.4v20.4h-3.4v-9h-9.4V704.8z"/>
	<path class="st1" d="M191.9,690c0-0.8-0.3-1.6-0.9-2.2c-0.6-0.6-1.5-0.9-2.3-0.8c-1.2-0.1-2.3,0.4-3,1.3c-0.7,1.1-1,2.5-0.9,3.8
		l-3.3-0.4c-0.3-2,0.4-4.1,1.8-5.6c1.4-1.4,3.4-2.2,5.4-2.1c1.7-0.1,3.5,0.5,4.8,1.6c1.2,1.1,1.8,2.6,1.8,4.2c0,1.3-0.4,2.6-1.1,3.7
		c-0.9,1.5-2.1,2.8-3.4,3.9l-4.9,4.3h10v2.9h-14.5V702l7.3-6.5c0.9-0.8,1.8-1.7,2.4-2.8C191.7,691.9,191.9,690.9,191.9,690z"/>
	<path class="st1" d="M206,698.2h-7.6v-2.8h7.6V698.2z"/>
	<path class="st1" d="M213.7,704.8h-3.4v-20.4h3.4v8.5h9.4v-8.5h3.4v20.4h-3.4v-9h-9.4V704.8z"/>
	<path class="st1" d="M245.4,704.8h-14.1v-20.4h13.8v2.9h-10.4v5.7h9.2v2.8h-9.2v6h10.6V704.8z"/>
	<path class="st1" d="M261,700.3h-8.6l-1.7,4.5h-3.4l7.7-20.4h3.7l7.6,20.4h-3.7L261,700.3z M253.4,697.4h6.6l-3.2-9L253.4,697.4z"
		/>
	<path class="st1" d="M277.5,704.8h-8.3v-20.4h8.3c2.7-0.1,5.4,0.8,7.4,2.7c1.9,1.9,2.9,4.6,2.7,7.2c0.1,2.8-0.9,5.5-2.8,7.6
		C282.9,703.9,280.2,704.9,277.5,704.8z M284.1,694.3c0.1-1.9-0.6-3.7-1.8-5.1c-1.3-1.3-3-2-4.8-1.9h-4.9v14.5h4.9
		c1.8,0.1,3.6-0.7,4.8-2.1C283.6,698.2,284.2,696.3,284.1,694.3z"/>
	<path class="st1" d="M294.8,704.8h-3.4v-20.4h3.4V704.8z"/>
	<path class="st1" d="M302.9,704.8h-3.3v-20.4h3.8l9.1,14.4v-14.4h3.3v20.4h-3l-9.9-15.6L302.9,704.8z"/>
	<path class="st1" d="M329.5,705.2c-2.7,0.1-5.3-1-7.2-2.9c-3.7-4.5-3.6-10.9,0.1-15.3c1.9-2,4.6-3.1,7.4-2.9
		c2.1-0.1,4.2,0.5,5.9,1.7c1.6,1.2,2.7,2.9,3.2,4.8l-3.4,0.6c-0.7-2.6-3.1-4.3-5.7-4.1c-1.9-0.1-3.7,0.6-4.9,2
		c-1.3,1.6-1.9,3.6-1.8,5.6c-0.1,2,0.6,3.9,1.8,5.5c1.2,1.4,3,2.1,4.9,2.1c1.6,0.1,3.2-0.4,4.4-1.4c1.1-0.9,1.7-2.2,1.7-3.6v-0.7
		H330v-2.7h9v11h-3.1v-2.5c-0.7,0.9-1.7,1.7-2.7,2.2C332,704.8,330.8,705.1,329.5,705.2z"/>
	<path class="st1" d="M95.1,740.2c-2.7,0.1-5.3-1-7.2-2.9c-1.9-2.1-2.8-4.8-2.7-7.6c-0.1-2.8,0.9-5.6,2.8-7.7c1.9-2,4.6-3.1,7.4-3
		c2.1-0.1,4.2,0.5,5.9,1.7c1.6,1.2,2.7,2.9,3.2,4.8l-3.4,0.6c-0.7-2.6-3.1-4.3-5.7-4.1c-1.9-0.1-3.7,0.6-4.9,2
		c-1.3,1.6-1.9,3.6-1.8,5.6c-0.1,2,0.6,3.9,1.8,5.5c1.2,1.4,3,2.1,4.9,2.1c1.6,0.1,3.2-0.4,4.4-1.4c1.1-0.9,1.7-2.2,1.7-3.6v-0.7
		h-5.9v-2.7h9v11h-3.1v-2.5c-0.7,0.9-1.7,1.7-2.7,2.2C97.6,739.8,96.4,740.1,95.1,740.2z"/>
	<path class="st1" d="M127.5,729.6c0.1,2.8-0.8,5.6-2.7,7.7c-4,3.9-10.3,3.9-14.3,0c-3.6-4.5-3.6-10.9,0-15.3c4-3.9,10.3-3.9,14.3,0
		C126.6,724,127.6,726.8,127.5,729.6z M113,724c-2.2,3.4-2.2,7.8,0,11.1c2.4,2.6,6.4,2.7,8.9,0.4c0.1-0.1,0.3-0.3,0.4-0.4
		c2.3-3.4,2.3-7.8,0-11.1c-2.4-2.6-6.4-2.7-9-0.4C113.2,723.8,113.1,723.9,113,724z"/>
	<path class="st1" d="M145.3,739.8h-14.1v-20.4H145v2.9h-10.3v5.7h9.2v2.8h-9.2v6h10.6L145.3,739.8z"/>
	<path class="st1" d="M156.1,740.2c-2.1,0.1-4.3-0.5-6-1.8c-1.5-1.2-2.3-3-2.3-4.9l3.4-0.4c0,1.2,0.5,2.4,1.3,3.2
		c1,0.8,2.3,1.2,3.5,1.1c1,0.1,2.1-0.3,2.9-0.9c0.7-0.6,1.1-1.4,1.1-2.4c0-0.7-0.2-1.4-0.7-1.9c-0.7-0.5-1.6-0.9-2.5-1l-2.7-0.5
		c-3.8-0.8-5.7-2.7-5.7-5.9c0-1.6,0.7-3.1,2-4.1c1.5-1.2,3.3-1.8,5.2-1.7c1.9-0.1,3.8,0.5,5.3,1.6c1.3,1.1,2.1,2.7,2.2,4.3l-3.5,0.4
		c-0.3-2.4-1.6-3.6-4.1-3.6c-1-0.1-1.9,0.2-2.7,0.8c-0.7,0.5-1,1.3-1,2.1c0,0.7,0.2,1.4,0.7,1.9c0.6,0.6,1.4,0.9,2.2,1l3.1,0.6
		c1.6,0.2,3.1,0.9,4.2,1.9c1,1,1.5,2.3,1.4,3.7c0,1.7-0.7,3.4-2.1,4.5C160,739.6,158.1,740.3,156.1,740.2z"/>
	<path class="st1" d="M177,739.8h-3.4v-20.4h3.4v8.5h9.4v-8.5h3.4v20.4h-3.4v-9H177V739.8z"/>
	<path class="st1" d="M208.8,739.8h-14.1v-20.4h13.8v2.9h-10.4v5.7h9.2v2.8h-9.2v6h10.6V739.8z"/>
	<path class="st1" d="M227.8,734.6l0.3,5.2h-3.4l-0.3-5.2c0-0.8-0.3-1.5-0.9-1.9c-0.8-0.5-1.7-0.7-2.6-0.6H216v7.8h-3.4v-20.4h8.5
		c1.8-0.1,3.6,0.5,5.1,1.6c1.3,1,2,2.5,2,4.1c0,1.1-0.3,2.2-0.9,3.1c-0.6,0.9-1.4,1.7-2.4,2.2C226.7,731,227.9,732.7,227.8,734.6z
		 M224.7,725.4c0-0.9-0.3-1.7-1-2.3c-0.8-0.6-1.8-0.9-2.8-0.9H216v7h4.8c1,0,2-0.3,2.8-1.1C224.3,727.5,224.7,726.4,224.7,725.4z"/>
	<path class="st1" d="M246.4,739.8h-14.1v-20.4h13.8v2.9h-10.4v5.7h9.2v2.8h-9.2v6h10.6L246.4,739.8z"/>
	<path class="st1" d="M88.6,505.2h31v12.2h-5.8v-7.3H98.2v13.8h13v4.9h-13v14.6h15.4v-7.3h5.8v12.2H88.6v-4.9h4.1v-33.4h-4.1V505.2z
		"/>
	<path class="st1" d="M151.9,505.2h14v4.9h-3.7v38.3H155l-20.1-35.8v30.9h4.4v4.9h-14v-4.9h4v-33.4h-4.1v-5h11.6l19.7,35.5l0.2-1.4
		v-29.1H152L151.9,505.2z"/>
	<path class="st1" d="M204.8,548.5v-8.7c-0.7,1.4-1.6,2.8-2.7,3.9c-1.1,1.1-2.3,2-3.6,2.8c-1.3,0.7-2.8,1.3-4.3,1.6
		c-1.5,0.4-3.1,0.5-4.6,0.5c-2.7,0-5.3-0.5-7.8-1.4c-2.5-1-4.7-2.5-6.5-4.5c-2-2.1-3.5-4.6-4.4-7.3c-1-2.8-1.5-5.8-1.5-8.8
		c0-3,0.5-5.9,1.6-8.7c1-2.6,2.4-5.1,4.3-7.1c1.8-2,4.1-3.7,6.6-4.8c2.6-1.2,5.4-1.8,8.2-1.7c2.4-0.1,4.8,0.3,7,1.2
		c1.8,0.7,3.5,1.6,5.1,2.8c1.2,0.9,2.3,2,3.3,3.2h2.8v5.1h-6.1c-1.2-2.1-3-3.9-5.1-5.1c-4-2.3-8.9-2.4-13-0.5
		c-1.8,0.9-3.4,2.2-4.7,3.8c-1.3,1.6-2.3,3.5-3,5.4c-0.7,2.1-1.1,4.3-1.1,6.5c0,2.4,0.4,4.8,1.2,7c0.7,1.9,1.7,3.7,3,5.3
		c1.3,1.4,2.9,2.5,4.6,3.3c1.9,0.9,3.9,1.4,6,1.3c3.2,0.1,6.4-0.8,9-2.7c2.3-1.8,4-4.5,4.9-8.3h-12v-4.9h18.3v20.7L204.8,548.5z"/>
	<path class="st1" d="M219.4,505.2h14v4.9h-4.3v33.4H244c0.3,0,0.6-0.1,0.9-0.2c0.3-0.1,0.6-0.3,0.8-0.6c0.2-0.2,0.4-0.5,0.6-0.8
		c0.1-0.3,0.2-0.6,0.2-0.9v-5.4h5.4v12.8h-32.6v-4.9h4.1v-33.4h-4.1V505.2z"/>
	<path class="st1" d="M256.4,505.2h13.8v4.9H266v33.4h4.1v4.9h-13.8v-4.9h4.1v-33.4h-4.1V505.2z"/>
	<path class="st1" d="M299.5,513.2c-0.5-0.8-1.2-1.4-2-1.9c-0.8-0.4-1.6-0.8-2.4-1c-0.9-0.2-1.7-0.4-2.6-0.4c-1.3,0-2.6,0.1-3.8,0.5
		c-1,0.3-1.9,0.7-2.7,1.3c-0.7,0.5-1.2,1.2-1.6,2c-0.4,0.7-0.5,1.6-0.5,2.4c0,1,0.2,2.1,0.7,3c0.4,0.7,1,1.4,1.7,1.9
		c0.7,0.5,1.5,0.8,2.3,1.1c0.8,0.3,1.6,0.5,2.4,0.8l5.8,1.9c1.6,0.5,3.1,1.1,4.6,1.9c1.2,0.6,2.4,1.5,3.3,2.5c0.9,1,1.6,2.1,2,3.3
		c0.5,1.4,0.7,2.9,0.7,4.4c0,1.7-0.4,3.4-1.1,5c-0.7,1.5-1.8,2.9-3.1,4c-1.4,1.2-3,2.1-4.7,2.6c-1.9,0.7-4,1-6,1
		c-1.9,0-3.8-0.2-5.7-0.8c-1.4-0.4-2.8-1.1-4-2c-1-0.8-1.9-1.8-2.6-2.9c-0.6-1-1.1-2.2-1.5-3.3h-2.2v-4.9h7.2
		c-0.1,1.5,0.1,3,0.7,4.5c0.4,0.9,1.1,1.6,1.9,2.2c0.9,0.6,1.8,1.1,2.9,1.3c1.2,0.3,2.4,0.5,3.6,0.4c1.2,0,2.4-0.1,3.5-0.5
		c1-0.3,1.9-0.7,2.6-1.3c0.7-0.6,1.3-1.3,1.7-2.1c0.4-0.9,0.6-1.8,0.6-2.8c0-1-0.2-2.1-0.7-3c-0.5-0.8-1.1-1.5-1.9-2.1
		c-0.8-0.6-1.6-1-2.5-1.4c-0.9-0.4-1.8-0.7-2.6-0.9l-6.1-1.8c-1.3-0.4-2.6-0.9-3.8-1.6c-1.1-0.6-2.1-1.4-2.9-2.4
		c-0.8-1-1.5-2.1-1.9-3.3c-0.5-1.4-0.7-2.9-0.7-4.3c0-1.6,0.3-3.2,1-4.6c0.7-1.5,1.6-2.8,2.9-3.8c1.4-1.1,2.9-2,4.6-2.5
		c2-0.6,4.1-1,6.2-0.9c1.4,0,2.9,0.2,4.3,0.5c1.2,0.3,2.4,0.9,3.5,1.5c1,0.6,2,1.4,2.8,2.4c0.8,0.9,1.5,1.9,2,3h2.1v4.9h-7
		C300.5,515.6,300.2,514.3,299.5,513.2z"/>
	<path class="st1" d="M355.9,505.2h14v4.9h-4.1v33.4h4.1v4.9h-14v-4.9h4.3v-15.5h-25v15.5h4.3v4.9h-14v-4.9h4.1v-33.4h-4.1v-4.9h14
		v4.9h-4.3v13.1h25v-13.1h-4.3V505.2z"/>
	<path class="st1" d="M380.9,543.5h4.1v-31.6l-8.7,4.8v-6l12-6.7h2.3v39.5h4.2v4.9h-14L380.9,543.5z"/>
	<path class="st1" d="M118.9,575.2h14v4.9h-4.1v33.4h4.1v4.9h-14v-4.9h4.3V598h-25v15.5h4.3v4.9h-14v-4.9h4.1v-33.4h-4.1v-4.9h14
		v4.9h-4.3v13.1h25v-13.1h-4.3L118.9,575.2z"/>
	<path class="st1" d="M141.1,575.2h31v12.2h-5.9v-7.3h-15.5V594h13v4.9h-13v14.6h15.4v-7.3h5.8v12.2h-31v-4.9h4.1v-33.4H141
		L141.1,575.2z"/>
	<path class="st1" d="M203.3,613.5h3.6l-3.4-9.8h-16.6l-3.3,9.8h4.4v4.9h-14v-4.9h3.8l13.4-38.3h8.4l13.4,38.3h4.3v4.9h-14
		L203.3,613.5z M188.5,599h13.3l-6.7-19.3L188.5,599z"/>
	<path class="st1" d="M221.6,575.2h16.1c1.9,0,3.8,0.2,5.6,0.8c5.3,1.5,9.7,5.1,12.4,9.9c0.9,1.6,1.6,3.3,2,5.1
		c0.5,1.9,0.7,3.8,0.7,5.7c0,1.9-0.2,3.9-0.7,5.8c-0.4,1.8-1.1,3.6-2,5.2c-0.9,1.6-2,3.1-3.2,4.4c-3.8,4.1-9.2,6.4-14.8,6.3h-16.1
		v-4.9h4.1v-33.4h-4.1V575.2z M231.3,580.1v33.4h6.7c2,0,3.9-0.4,5.6-1.3c1.8-0.9,3.3-2.1,4.6-3.6c1.3-1.6,2.4-3.4,3.1-5.3
		c0.8-2.1,1.2-4.3,1.1-6.6c0-2.2-0.4-4.4-1.1-6.5c-0.7-1.9-1.8-3.7-3.1-5.2c-1.3-1.5-2.8-2.7-4.6-3.5c-1.8-0.9-3.7-1.3-5.6-1.3
		L231.3,580.1z"/>
	<path class="st1" d="M264.6,575.2h13.8v4.9h-4.1v33.4h4.1v4.9h-13.8v-4.9h4.1v-33.4h-4.1V575.2z"/>
	<path class="st1" d="M313.2,575.2h14v4.9h-3.7v38.3h-7.3l-20.1-35.8v30.9h4.4v4.9h-14v-4.9h4v-33.4h-4.1v-5h11.6l19.7,35.5l0.2-1.4
		v-29.1h-4.8L313.2,575.2z"/>
	<path class="st1" d="M366.1,618.6v-8.7c-1.3,2.8-3.6,5.2-6.3,6.7c-1.3,0.7-2.8,1.3-4.3,1.6c-1.5,0.4-3.1,0.5-4.6,0.5
		c-2.7,0-5.3-0.5-7.8-1.4c-2.5-1-4.7-2.5-6.5-4.5c-2-2.1-3.5-4.6-4.4-7.3c-1-2.8-1.5-5.8-1.5-8.8c0-3,0.5-5.9,1.5-8.7
		c1-2.6,2.4-5.1,4.3-7.2c3.8-4.2,9.2-6.6,14.8-6.5c2.4-0.1,4.8,0.3,7,1.2c1.8,0.7,3.5,1.7,5,2.8c1.2,0.9,2.3,2,3.4,3.2h2.8v5.1h-6.1
		c-1.2-2.1-3-3.9-5.1-5.1c-4-2.3-8.9-2.4-13.1-0.4c-1.8,0.9-3.4,2.2-4.7,3.8c-1.3,1.6-2.3,3.5-3,5.4c-0.7,2.1-1.1,4.3-1.1,6.5
		c0,2.4,0.4,4.8,1.2,7c0.6,1.9,1.7,3.7,3,5.3c1.3,1.4,2.8,2.5,4.6,3.3c1.9,0.9,3.9,1.4,6,1.3c3.2,0.1,6.4-0.8,9-2.7
		c2.3-1.8,4-4.5,4.9-8.3h-12v-4.9h18.3v20.7L366.1,618.6z"/>
	<path class="st1" d="M426.8,618.6v-8.7c-0.7,1.4-1.6,2.8-2.7,3.9c-1.1,1.1-2.3,2-3.6,2.8c-1.3,0.7-2.8,1.3-4.3,1.6
		c-1.5,0.4-3.1,0.5-4.6,0.5c-2.7,0-5.3-0.4-7.8-1.4c-2.5-1-4.7-2.5-6.5-4.5c-2-2.1-3.5-4.6-4.4-7.3c-1-2.8-1.5-5.8-1.5-8.8
		c0-3,0.5-5.9,1.5-8.7c1-2.6,2.4-5.1,4.3-7.2c1.8-2,4.1-3.7,6.5-4.8c2.6-1.2,5.4-1.8,8.2-1.7c2.4-0.1,4.8,0.3,7,1.2
		c1.8,0.7,3.5,1.6,5,2.8c1.2,0.9,2.3,2,3.4,3.2h2.8v5.1h-6.1c-1.2-2.1-3-3.9-5-5.1c-4-2.3-8.9-2.5-13.1-0.5
		c-1.8,0.9-3.4,2.2-4.7,3.8c-1.3,1.6-2.3,3.5-3,5.4c-0.7,2.1-1.1,4.3-1.1,6.5c0,2.4,0.4,4.8,1.2,7c0.6,1.9,1.7,3.7,3,5.3
		c1.3,1.4,2.9,2.5,4.6,3.3c1.9,0.9,3.9,1.4,6,1.3c3.2,0.1,6.4-0.8,9-2.7c2.3-1.8,4-4.5,4.9-8.3h-12v-4.9h18.3v20.7L426.8,618.6z"/>
	<path class="st1" d="M460.1,619.2c-2.8,0-5.6-0.5-8.2-1.7c-5.1-2.3-9.1-6.7-11-12c-1-2.8-1.5-5.8-1.5-8.8c0-3,0.5-6,1.5-8.8
		c0.9-2.6,2.4-5.1,4.3-7.1c1.8-2,4.1-3.7,6.6-4.8c8-3.6,17.4-1.7,23.3,4.8c1.9,2.1,3.3,4.5,4.2,7.1c2,5.7,2,11.9,0,17.5
		c-1,2.6-2.4,5-4.3,7.1C471.3,616.9,465.9,619.3,460.1,619.2L460.1,619.2z M460.1,614c2.1,0,4.2-0.5,6.1-1.4
		c1.8-0.9,3.4-2.2,4.7-3.8c1.3-1.6,2.3-3.5,3-5.5c0.7-2.1,1.1-4.3,1.1-6.6c0-2.3-0.4-4.6-1.1-6.8c-0.7-2.1-1.8-3.9-3.2-5.6
		c-1.3-1.5-3-2.7-4.8-3.5c-1.8-0.8-3.7-1.2-5.7-1.2c-2.1,0-4.3,0.4-6.2,1.4c-1.8,0.9-3.4,2.2-4.7,3.8c-1.3,1.6-2.3,3.5-3,5.5
		c-1.4,4.4-1.4,9.2,0.1,13.6c0.7,1.9,1.7,3.7,3.1,5.2c1.3,1.4,2.9,2.6,4.6,3.5C456,613.5,458,614,460.1,614L460.1,614z"/>
	<path class="st1" d="M487,575.2h30.9v12.2h-5.8v-7.3h-15.4V594h13v4.9h-13v14.6h15.4v-7.3h5.8v12.2H487v-4.9h4.1v-33.4H487V575.2z"
		/>
	<path class="st1" d="M544.8,583.2c-0.5-0.8-1.2-1.4-2-1.9c-0.7-0.4-1.6-0.8-2.4-1c-0.9-0.2-1.7-0.4-2.6-0.4c-1.3,0-2.6,0.1-3.8,0.5
		c-1,0.3-1.9,0.7-2.7,1.3c-0.7,0.5-1.2,1.2-1.6,2c-0.4,0.7-0.5,1.6-0.5,2.4c0,1,0.2,2.1,0.7,3c0.4,0.7,1,1.4,1.7,1.9
		c0.7,0.5,1.5,0.8,2.3,1.1c0.8,0.3,1.6,0.5,2.4,0.8l5.8,1.9c1.6,0.5,3.1,1.1,4.6,1.9c1.2,0.6,2.4,1.5,3.3,2.5c0.9,1,1.6,2.1,2,3.3
		c0.5,1.4,0.7,2.9,0.7,4.4c0,1.7-0.3,3.4-1.1,5c-0.7,1.5-1.8,2.9-3.1,4c-1.4,1.2-3,2.1-4.7,2.6c-1.9,0.7-4,1-6,1
		c-1.9,0-3.8-0.2-5.7-0.8c-1.4-0.4-2.8-1.1-4-2c-1-0.8-1.9-1.8-2.6-2.9c-0.6-1-1.1-2.2-1.5-3.3h-2.1v-4.9h7.2
		c-0.1,1.5,0.1,3,0.7,4.5c0.4,0.9,1.1,1.6,1.9,2.2c0.9,0.6,1.8,1.1,2.8,1.3c1.2,0.3,2.4,0.5,3.6,0.4c1.2,0,2.4-0.1,3.5-0.5
		c1-0.3,1.9-0.7,2.7-1.3c0.7-0.6,1.3-1.3,1.7-2.1c0.4-0.9,0.6-1.8,0.6-2.8c0-1-0.2-2.1-0.7-3c-0.5-0.8-1.1-1.5-1.9-2.1
		c-0.8-0.6-1.6-1-2.5-1.4c-0.9-0.4-1.8-0.7-2.6-0.9l-6.3-1.9c-1.3-0.4-2.6-0.9-3.8-1.6c-1.1-0.6-2.1-1.4-2.9-2.4
		c-0.8-1-1.4-2.1-1.8-3.2c-0.5-1.4-0.7-2.9-0.7-4.3c0-1.6,0.3-3.2,1-4.6c0.7-1.5,1.6-2.8,2.8-3.8c1.4-1.1,2.9-2,4.6-2.5
		c2-0.7,4.1-1,6.2-0.9c1.4,0,2.9,0.2,4.3,0.5c1.2,0.3,2.4,0.9,3.5,1.5c1,0.6,2,1.4,2.8,2.4c0.8,0.9,1.5,1.9,2,3h2.1v4.9h-7
		C545.8,585.6,545.5,584.3,544.8,583.2z"/>
	<path class="st1" d="M601.2,575.2h14v4.9h-4.1v33.4h4.1v4.9h-14v-4.9h4.3V598h-25v15.5h4.3v4.9h-14v-4.9h4.1v-33.4h-4.1v-4.9h14
		v4.9h-4.3v13.1h25v-13.1h-4.3V575.2z"/>
	<path class="st1" d="M623.3,575.2h31v12.2h-5.8v-7.3H633V594h13v4.9h-13v14.6h15.4v-7.3h5.8v12.2h-30.9v-4.9h4.1v-33.4h-4.1V575.2z
		"/>
	<path class="st1" d="M660,575.2h18c1.8,0,3.6,0.2,5.3,0.8c1.5,0.5,3,1.2,4.2,2.2c1.2,1,2.2,2.2,2.8,3.7c0.7,1.6,1,3.3,1,5
		c0,1.1-0.2,2.2-0.6,3.2c-0.4,1.1-0.9,2-1.6,2.9c-0.7,0.9-1.5,1.7-2.5,2.4c-0.9,0.7-2,1.2-3.1,1.6c0.5,0.2,1,0.5,1.4,0.9
		c0.5,0.4,1,0.9,1.4,1.4c0.4,0.6,0.8,1.2,1.2,1.9c0.4,0.7,0.6,1.5,0.8,2.3l2.4,9.4h3.7l0.1,5.4h-8.4l-3.2-13.1
		c-0.4-2-1.3-3.8-2.7-5.2c-1.4-1.2-3.1-1.8-4.9-1.7h-5.6v15.1h4.3v4.9h-14v-4.9h4.1v-33.3H660V575.2z M669.7,580.1v13.6h8.3
		c1,0,2-0.1,3-0.4c0.9-0.3,1.7-0.7,2.3-1.3c0.7-0.6,1.2-1.3,1.5-2.1c0.4-0.9,0.6-1.9,0.6-3c0.1-1.9-0.6-3.7-1.9-5
		c-1.3-1.2-3.3-1.8-6.2-1.8L669.7,580.1z"/>
	<path class="st1" d="M701.5,575.2h30.9v12.2h-5.8v-7.3h-15.4V594h13v4.9h-13v14.6h15.4v-7.3h5.8v12.2h-30.9v-4.9h4.1v-33.4h-4.1
		V575.2z"/>
	<rect x="86.5" y="659.4" class="st1" width="43.2" height="4.3"/>
	<rect class="st2" width="86.4" height="21.6"/>
	<rect y="64.8" class="st2" width="86.4" height="21.6"/>
	
		<rect x="-3.9" y="32.4" transform="matrix(0.7721 -0.6355 0.6355 0.7721 -17.6066 37.3053)" class="st2" width="94.1" height="21.6"/>
	<rect x="993.6" y="993.6" class="st2" width="86.4" height="21.6"/>
	<rect x="993.6" y="1058.4" class="st2" width="86.4" height="21.6"/>
	
		<rect x="989.7" y="1026" transform="matrix(0.7721 -0.6355 0.6355 0.7721 -422.5764 895.2342)" class="st2" width="94.1" height="21.6"/>
	<rect y="993.6" class="st2" width="86.4" height="21.6"/>
	<rect y="1058.4" class="st2" width="86.4" height="21.6"/>
	
		<rect x="-3.8" y="1026" transform="matrix(0.7721 -0.6355 0.6355 0.7721 -649.063 263.8019)" class="st2" width="94.1" height="21.6"/>
	<rect y="618.4" class="st2" width="86.4" height="21.6"/>
	<rect y="683.2" class="st2" width="86.4" height="21.6"/>
	
		<rect x="-3.8" y="650.8" transform="matrix(0.7721 -0.6355 0.6355 0.7721 -410.6033 178.2704)" class="st2" width="94.1" height="21.6"/>
	<rect y="739.8" class="st2" width="86.4" height="21.6"/>
	<rect y="804.6" class="st2" width="86.4" height="21.6"/>
	
		<rect x="-3.8" y="772.2" transform="matrix(0.7721 -0.6355 0.6355 0.7721 -487.7562 205.944)" class="st2" width="94.1" height="21.6"/>
	<path class="st1" d="M101.6,922.1H89.2v-20.4h2.1v18.5h10.2V922.1z"/>
	<path class="st1" d="M103.1,914.9c-0.1-2,0.6-4,1.9-5.5c2.8-2.8,7.3-2.8,10.1,0c2.5,3.2,2.5,7.8,0,11c-2.8,2.8-7.3,2.8-10.1,0
		C103.6,918.8,103,916.9,103.1,914.9z M113.6,919.2c0.9-1.2,1.4-2.7,1.3-4.3c0.1-1.5-0.4-3.1-1.3-4.3c-1.8-2-4.8-2.1-6.8-0.4
		c-0.1,0.1-0.2,0.2-0.4,0.4c-0.9,1.2-1.4,2.8-1.3,4.3c-0.1,1.5,0.4,3.1,1.3,4.3c1.8,2,4.8,2.1,6.8,0.4
		C113.3,919.4,113.5,919.3,113.6,919.2z"/>
	<path class="st1" d="M122.6,922.1h-2v-14.5h2v2.8c0.7-1.7,2.4-2.9,4.3-2.8h1.1v1.9h-1.1c-1.3,0-2.5,0.7-3.1,1.8
		c-0.9,1.4-1.3,3-1.2,4.7V922.1z"/>
	<path class="st1" d="M136.4,920.8c2,0.2,3.8-1.3,4-3.3l1.9,0.3c-0.1,1.3-0.8,2.6-1.9,3.4c-1.2,0.9-2.6,1.3-4,1.3
		c-1.9,0.1-3.8-0.6-5.1-2c-1.3-1.6-1.9-3.6-1.8-5.7c-0.1-2,0.5-4,1.8-5.5c1.3-1.4,3.1-2.2,5-2.1c1.7-0.1,3.4,0.5,4.6,1.8
		c1.2,1.4,1.7,3.2,1.6,5v1.2h-11C131.7,919,133.3,920.8,136.4,920.8z M136.3,908.9c-1.2-0.1-2.4,0.4-3.2,1.2c-0.9,1-1.4,2.2-1.4,3.5
		h8.8C140.3,910.5,138.9,908.9,136.3,908.9L136.3,908.9z"/>
	<path class="st1" d="M157.7,914.2v7.9h-2v-9c0.1-1.1-0.3-2.1-0.9-3c-0.6-0.7-1.6-1.1-2.6-1.1c-1.2-0.1-2.3,0.4-3,1.3
		c-0.8,1.1-1.1,2.5-1,3.9v7.9h-2v-14.5h2v1.8c1-1.4,2.6-2.3,4.3-2.2c1,0,2,0.2,2.9,0.7c0.8,0.5,1.4,1.2,1.8,2
		c0.9-1.8,2.8-2.9,4.8-2.7c1.4-0.1,2.8,0.4,3.9,1.5c1,1.1,1.5,2.5,1.4,4v9.4h-2v-9c0.1-1.1-0.3-2.1-0.9-3c-0.7-0.7-1.6-1.1-2.6-1.1
		c-1.2-0.1-2.3,0.4-3,1.3C158,911.5,157.6,912.8,157.7,914.2z"/>
	<path class="st1" d="M180.7,905h-2v-3.3h2V905z M180.7,922.1h-2v-14.5h2V922.1z"/>
	<path class="st1" d="M192.2,907.3c1.8-0.1,3.5,0.6,4.7,2c1.2,1.5,1.9,3.5,1.8,5.5c0.1,2-0.5,4-1.8,5.6c-1.2,1.4-2.9,2.2-4.7,2.1
		c-2,0.1-3.8-0.9-4.9-2.5v7.6h-2v-19.9h2v2.3C188.4,908.2,190.2,907.2,192.2,907.3z M196.6,914.9c0.1-1.5-0.3-3-1.2-4.3
		c-0.8-1-2-1.6-3.4-1.6c-1.3,0-2.6,0.5-3.5,1.6c-1.7,2.6-1.7,5.9,0,8.5c0.8,1.1,2.1,1.7,3.5,1.6c1.3,0.1,2.6-0.5,3.4-1.6
		C196.3,917.9,196.7,916.4,196.6,914.9z"/>
	<path class="st1" d="M207.3,922.5c-1.6,0.1-3.1-0.4-4.3-1.3c-1.1-0.8-1.7-2.1-1.8-3.5l2-0.3c0.1,1,0.5,2,1.2,2.7
		c0.8,0.6,1.9,0.9,2.9,0.8c0.9,0.1,1.8-0.2,2.6-0.7c0.6-0.5,0.9-1.3,0.9-2.1c0-1.3-1-2-2.9-2.4l-2-0.3c-2.8-0.5-4.2-1.8-4.2-4
		c0-1.1,0.5-2.2,1.4-2.9c2.3-1.5,5.3-1.5,7.6,0c1,0.8,1.7,2,1.8,3.3l-1.8,0.3c-0.2-0.9-0.6-1.8-1.3-2.4c-0.7-0.5-1.6-0.8-2.5-0.7
		c-0.9,0-1.7,0.2-2.4,0.6c-0.9,0.7-1.2,2-0.5,2.9c0.1,0.1,0.1,0.2,0.2,0.3c0.5,0.4,1.2,0.7,1.9,0.8l2.3,0.4c2.9,0.5,4.4,1.8,4.4,4.1
		c0,1.3-0.5,2.5-1.5,3.3C210.2,922.1,208.8,922.5,207.3,922.5z"/>
	<path class="st1" d="M226,907.6h2v14.5h-2v-1.9c-1,1.5-2.7,2.3-4.5,2.2c-1.4,0.1-2.9-0.5-3.9-1.5c-1-1.1-1.5-2.5-1.4-4v-9.4h2v9
		c-0.1,1.1,0.3,2.2,1,3c0.7,0.7,1.7,1.1,2.7,1.1c1.2,0.1,2.3-0.4,3.1-1.3c0.8-1.1,1.2-2.5,1.1-3.8L226,907.6z"/>
	<path class="st1" d="M244.1,914.2v7.9h-2v-9c0.1-1.1-0.3-2.1-0.9-3c-0.7-0.7-1.6-1.1-2.6-1.1c-1.2-0.1-2.3,0.4-3,1.3
		c-0.8,1.1-1.1,2.5-1,3.9v7.9h-2v-14.5h2v1.8c1-1.4,2.6-2.3,4.4-2.2c1,0,2,0.2,2.9,0.7c0.8,0.5,1.4,1.2,1.8,2
		c0.9-1.8,2.8-2.9,4.8-2.7c1.4-0.1,2.8,0.5,3.9,1.5c1,1.1,1.5,2.5,1.4,4v9.4h-2v-9c0.1-1.1-0.3-2.1-0.9-3c-0.7-0.7-1.6-1.1-2.6-1.1
		c-1.2-0.1-2.3,0.4-3,1.3C244.4,911.5,244,912.8,244.1,914.2z"/>
	<path class="st1" d="M270.6,922.5c-1.8,0.1-3.5-0.7-4.7-2c-1.2-1.5-1.9-3.5-1.8-5.5c-0.1-2,0.5-4,1.8-5.6c1.2-1.4,2.9-2.2,4.7-2.1
		c2-0.1,3.8,0.9,4.9,2.5v-8.1h2v20.4h-2v-2.3C274.5,921.5,272.6,922.5,270.6,922.5z M266.2,914.8c-0.1,1.5,0.4,3,1.2,4.3
		c0.8,1,2,1.6,3.4,1.6c1.3,0,2.6-0.6,3.5-1.6c1.7-2.6,1.7-5.9,0-8.5c-0.8-1.1-2.1-1.7-3.5-1.6c-1.3-0.1-2.6,0.5-3.4,1.6
		C266.5,911.8,266.1,913.3,266.2,914.8z"/>
	<path class="st1" d="M281.1,914.9c-0.1-2,0.6-4,1.9-5.5c2.8-2.8,7.3-2.8,10.1,0c2.5,3.2,2.5,7.8,0,11c-2.8,2.8-7.3,2.8-10.1,0
		C281.7,918.8,281.1,916.9,281.1,914.9z M291.7,919.2c0.9-1.2,1.4-2.7,1.3-4.3c0.1-1.5-0.4-3.1-1.3-4.3c-1.8-2-4.8-2.1-6.8-0.4
		c-0.1,0.1-0.2,0.2-0.4,0.4c-0.9,1.2-1.4,2.8-1.3,4.3c-0.1,1.5,0.4,3.1,1.3,4.3c0.9,1.1,2.2,1.7,3.6,1.6
		C289.5,920.8,290.8,920.2,291.7,919.2z"/>
	<path class="st1" d="M300.7,922.1h-2v-20.4h2V922.1z"/>
	<path class="st1" d="M304.3,914.9c-0.1-2,0.6-4,1.9-5.5c2.8-2.8,7.3-2.8,10.1,0c2.5,3.2,2.5,7.8,0,11c-2.8,2.8-7.3,2.8-10.1,0
		C304.9,918.8,304.2,916.9,304.3,914.9z M314.8,919.2c0.9-1.2,1.4-2.7,1.3-4.3c0.1-1.5-0.4-3.1-1.3-4.3c-0.9-1.1-2.2-1.6-3.6-1.6
		c-1.4-0.1-2.7,0.5-3.6,1.6c-1.7,2.6-1.7,6,0,8.6c0.9,1.1,2.2,1.7,3.6,1.6C312.6,920.8,314,920.2,314.8,919.2z"/>
	<path class="st1" d="M323.9,922.1h-2v-14.5h2v2.8c0.7-1.7,2.4-2.9,4.3-2.8h1.1v1.9h-1.1c-1.3,0-2.5,0.7-3.2,1.8
		c-0.9,1.4-1.3,3-1.2,4.7L323.9,922.1z"/>
	<path class="st1" d="M343.4,922.5c-1.6,0.1-3.1-0.4-4.4-1.3c-1.1-0.9-1.7-2.1-1.8-3.5l2-0.3c0.1,1,0.5,2,1.2,2.7
		c0.8,0.6,1.9,0.9,2.9,0.8c0.9,0.1,1.8-0.2,2.6-0.7c0.6-0.5,0.9-1.3,0.9-2.1c0-1.3-1-2-2.9-2.4l-2-0.3c-2.8-0.5-4.2-1.8-4.2-4
		c0-1.1,0.5-2.2,1.5-2.9c2.3-1.5,5.3-1.5,7.6,0c1,0.8,1.7,2,1.8,3.3l-1.8,0.3c-0.2-0.9-0.6-1.8-1.3-2.4c-0.7-0.5-1.6-0.8-2.5-0.7
		c-0.9,0-1.7,0.2-2.4,0.6c-0.6,0.4-0.9,1-0.9,1.7c0,0.6,0.2,1.1,0.6,1.5c0.6,0.4,1.2,0.7,1.9,0.8l2.3,0.4c2.9,0.5,4.4,1.8,4.4,4.1
		c0,1.3-0.5,2.5-1.5,3.3C346.2,922.1,344.8,922.5,343.4,922.5z"/>
	<path class="st1" d="M354.4,905h-2v-3.3h2V905z M354.4,922.1h-2v-14.5h2V922.1z"/>
	<path class="st1" d="M357.2,909.3v-1.7h2.7v-4.8h2v4.8h3.9v1.7h-3.9v8.7c-0.1,0.6,0.1,1.3,0.5,1.8c0.4,0.4,1,0.6,1.6,0.5h2.3v1.7
		h-2.5c-1,0.1-2-0.3-2.8-1c-0.7-0.8-1.1-1.8-1-2.8v-9L357.2,909.3z"/>
	<path class="st1" d="M387.7,920.4h0.8v1.7h-1.2c-0.7,0-1.3-0.2-1.8-0.6c-0.5-0.4-0.8-1-0.7-1.6v-0.1c-0.9,1.7-2.8,2.7-4.7,2.7
		c-1.3,0.1-2.6-0.4-3.6-1.2c-0.9-0.7-1.4-1.8-1.4-3c0-1.1,0.4-2.1,1.1-2.9c0.9-0.8,2-1.4,3.2-1.5l4.4-0.8c0.6,0,1-0.5,0.9-1.1
		c0,0,0,0,0-0.1c0-0.8-0.3-1.6-1-2.2c-0.7-0.6-1.7-0.9-2.6-0.8c-1.9-0.2-3.6,1.1-3.9,3l-1.9-0.3c0.2-1.3,0.9-2.4,1.9-3.2
		c1.1-0.8,2.5-1.3,4-1.2c1.5-0.1,2.9,0.4,4,1.3c1,0.9,1.5,2.3,1.5,3.6v7.1c0,0.3,0.1,0.6,0.2,0.9
		C387.1,920.4,387.4,920.5,387.7,920.4z M376.9,918.1c0,0.8,0.3,1.5,0.8,2c0.7,0.5,1.5,0.8,2.3,0.7c1.3,0,2.5-0.5,3.3-1.5
		c0.9-1.1,1.4-2.4,1.3-3.8v-0.9l-5.2,0.9c-0.7,0.1-1.4,0.4-1.9,0.9C377.2,916.9,376.9,917.5,376.9,918.1z"/>
	<path class="st1" d="M402.6,914.2v7.9h-2v-9c0.1-1.1-0.3-2.1-0.9-3c-0.7-0.7-1.6-1.1-2.6-1.1c-1.2-0.1-2.3,0.4-3,1.3
		c-0.8,1.1-1.1,2.5-1,3.9v7.9h-2v-14.5h2v1.8c1-1.4,2.6-2.3,4.4-2.2c1,0,2,0.2,2.9,0.7c0.8,0.5,1.4,1.2,1.8,2
		c0.9-1.8,2.8-2.9,4.8-2.7c1.4-0.1,2.8,0.5,3.9,1.5c1,1.1,1.5,2.5,1.4,4v9.4h-2v-9c0.1-1.1-0.3-2.1-0.9-3c-0.7-0.7-1.6-1.1-2.6-1.1
		c-1.2-0.1-2.3,0.4-3,1.3C402.9,911.5,402.5,912.8,402.6,914.2z"/>
	<path class="st1" d="M422.5,920.8c2,0.2,3.8-1.3,4-3.3l1.9,0.3c-0.1,1.3-0.8,2.6-1.9,3.4c-1.2,0.9-2.6,1.3-4,1.3
		c-1.9,0.1-3.8-0.6-5.1-2c-1.3-1.6-1.9-3.6-1.8-5.7c-0.1-2,0.6-4,1.8-5.5c1.3-1.4,3.1-2.1,5-2.1c1.7-0.1,3.4,0.6,4.6,1.8
		c1.2,1.4,1.7,3.2,1.6,5v1.2h-10.9C417.8,919,419.4,920.8,422.5,920.8z M422.4,908.9c-1.2-0.1-2.4,0.4-3.2,1.2
		c-0.9,1-1.4,2.2-1.4,3.5h8.8C426.4,910.5,425,908.9,422.4,908.9z"/>
	<path class="st1" d="M430.4,909.3v-1.7h2.7v-4.8h2v4.8h3.9v1.7h-3.9v8.7c-0.1,0.6,0.1,1.3,0.5,1.8c0.4,0.4,1,0.6,1.6,0.5h2.3v1.7
		h-2.5c-1,0.1-2-0.3-2.8-1c-0.7-0.8-1.1-1.8-1-2.8v-9L430.4,909.3z"/>
	<path class="st1" d="M442.5,925.8h-1.9l1.7-6.5h2L442.5,925.8z"/>
	<path class="st1" d="M460.6,920.7c1.1,0.1,2.1-0.3,2.9-1c0.8-0.8,1.2-1.8,1.3-2.8l2,0.2c-0.1,1.5-0.8,2.9-1.9,3.9
		c-2.7,2.2-6.6,1.9-9.1-0.5c-1.3-1.6-1.9-3.5-1.8-5.5c-0.1-2,0.5-4,1.8-5.6c1.2-1.4,3-2.2,4.9-2.1c1.5-0.1,3.1,0.4,4.3,1.4
		c1.1,1,1.8,2.4,2,3.8l-2.1,0.2c-0.4-2.5-1.8-3.7-4.2-3.7c-1.3-0.1-2.6,0.5-3.4,1.6c-0.9,1.3-1.3,2.8-1.2,4.4
		c-0.1,1.5,0.3,3,1.2,4.3C458,920.2,459.3,920.8,460.6,920.7z"/>
	<path class="st1" d="M469.2,914.9c-0.1-2,0.6-4,1.9-5.5c2.8-2.8,7.3-2.8,10.1,0c2.5,3.2,2.5,7.8,0,11c-2.8,2.8-7.3,2.8-10.1,0
		C469.8,918.8,469.2,916.9,469.2,914.9z M479.8,919.2c0.9-1.2,1.4-2.7,1.3-4.3c0.1-1.5-0.4-3.1-1.3-4.3c-0.9-1.1-2.2-1.6-3.6-1.6
		c-1.4-0.1-2.7,0.5-3.6,1.6c-0.9,1.2-1.4,2.8-1.3,4.3c-0.1,1.5,0.4,3.1,1.3,4.3c0.9,1.1,2.2,1.7,3.6,1.6
		C477.5,920.8,478.9,920.2,479.8,919.2z"/>
	<path class="st1" d="M498.9,912.7v9.4h-2v-9c0.1-1.1-0.3-2.2-1-3c-0.7-0.8-1.8-1.1-2.8-1.1c-1.2-0.1-2.4,0.4-3.2,1.3
		c-0.8,1.1-1.2,2.5-1.1,3.9v7.9h-2v-14.5h2v1.9c1-1.5,2.8-2.4,4.6-2.3c2.7-0.3,5.2,1.7,5.5,4.5C498.9,912.1,498.9,912.4,498.9,912.7
		L498.9,912.7z"/>
	<path class="st1" d="M508.3,922.5c-1.6,0.1-3.1-0.4-4.3-1.3c-1.1-0.8-1.7-2.1-1.8-3.5l2-0.3c0.1,1,0.5,2,1.2,2.7
		c0.8,0.6,1.9,0.9,2.9,0.8c0.9,0.1,1.8-0.2,2.6-0.7c0.6-0.5,0.9-1.3,0.9-2.1c0-1.3-1-2-2.9-2.4l-2-0.3c-2.8-0.5-4.2-1.8-4.2-4
		c0-1.1,0.5-2.2,1.4-2.9c2.3-1.5,5.3-1.5,7.6,0c1,0.8,1.6,2,1.8,3.3l-1.8,0.3c-0.2-0.9-0.6-1.8-1.3-2.4c-0.7-0.5-1.6-0.8-2.5-0.7
		c-0.9,0-1.7,0.2-2.4,0.6c-0.6,0.4-0.9,1-0.9,1.7c0,0.6,0.2,1.1,0.6,1.5c0.6,0.4,1.2,0.7,1.9,0.8l2.3,0.4c2.9,0.5,4.3,1.8,4.3,4.1
		c0,1.3-0.5,2.5-1.5,3.3C511.1,922.1,509.7,922.5,508.3,922.5z"/>
	<path class="st1" d="M523.2,920.8c2,0.2,3.8-1.3,4-3.3l1.9,0.3c-0.1,1.3-0.8,2.6-1.9,3.4c-1.2,0.9-2.6,1.3-4,1.3
		c-1.9,0.1-3.8-0.6-5.1-2c-1.3-1.6-1.9-3.6-1.8-5.7c-0.1-2,0.5-4,1.8-5.5c1.3-1.4,3.1-2.2,5-2.1c1.7-0.1,3.4,0.5,4.6,1.8
		c1.2,1.4,1.7,3.2,1.6,5v1.2h-11C518.5,919,520.1,920.8,523.2,920.8z M523.1,908.9c-1.2-0.1-2.4,0.4-3.2,1.2c-0.9,1-1.4,2.2-1.4,3.5
		h8.8C527.1,910.5,525.7,908.9,523.1,908.9L523.1,908.9z"/>
	<path class="st1" d="M538.7,920.7c1.1,0.1,2.1-0.3,2.9-1c0.8-0.8,1.2-1.8,1.3-2.8l2,0.2c-0.1,1.5-0.8,2.9-1.9,3.9
		c-2.7,2.2-6.6,1.9-9.1-0.5c-1.3-1.6-1.9-3.5-1.8-5.5c-0.1-2,0.5-4,1.8-5.6c1.2-1.4,3-2.2,4.9-2.1c1.5-0.1,3.1,0.4,4.3,1.4
		c1.1,1,1.9,2.4,2,3.8l-2.1,0.2c-0.4-2.5-1.8-3.8-4.2-3.8c-1.3-0.1-2.6,0.5-3.3,1.6c-0.9,1.3-1.3,2.8-1.2,4.4
		c-0.1,1.5,0.3,3,1.2,4.3C536.2,920.2,537.5,920.8,538.7,920.7z"/>
	<path class="st1" d="M546.6,909.3v-1.7h2.7v-4.8h2v4.8h3.9v1.7h-3.9v8.7c-0.1,0.6,0.1,1.3,0.5,1.8c0.4,0.4,1,0.6,1.6,0.5h2.3v1.7
		h-2.5c-1,0.1-2-0.3-2.8-1c-0.7-0.8-1.1-1.8-1-2.8v-9L546.6,909.3z"/>
	<path class="st1" d="M564.1,920.8c2,0.2,3.8-1.3,4-3.3l1.9,0.3c-0.1,1.3-0.8,2.6-1.9,3.4c-1.2,0.9-2.6,1.3-4,1.3
		c-1.9,0.1-3.8-0.6-5.1-2c-1.3-1.6-1.9-3.6-1.8-5.7c-0.1-2,0.6-4,1.8-5.5c1.3-1.4,3.1-2.2,5-2.1c1.7-0.1,3.4,0.6,4.6,1.8
		c1.2,1.4,1.7,3.2,1.6,5v1.2h-11C559.4,919,561,920.8,564.1,920.8z M564,908.9c-1.2-0.1-2.4,0.4-3.2,1.2c-0.9,1-1.4,2.2-1.4,3.5h8.8
		C568,910.5,566.6,908.9,564,908.9L564,908.9z"/>
	<path class="st1" d="M572,909.3v-1.7h2.7v-4.8h2v4.8h3.9v1.7h-3.9v8.7c-0.1,0.6,0.1,1.3,0.5,1.8c0.4,0.4,1,0.6,1.6,0.5h2.3v1.7
		h-2.5c-1,0.1-2-0.3-2.8-1c-0.7-0.8-1.1-1.8-1-2.8v-9L572,909.3z"/>
	<path class="st1" d="M593.5,907.6h2v14.5h-2v-1.9c-1,1.5-2.7,2.3-4.5,2.2c-1.4,0.1-2.9-0.4-3.9-1.5c-1-1.1-1.5-2.5-1.4-4v-9.4h2v9
		c-0.1,1.1,0.3,2.2,0.9,3c0.7,0.7,1.7,1.1,2.7,1.1c1.2,0.1,2.3-0.4,3.1-1.3c0.8-1.1,1.2-2.5,1.1-3.8L593.5,907.6z"/>
	<path class="st1" d="M606,920.8c2,0.2,3.8-1.3,4-3.3l1.9,0.3c-0.1,1.3-0.8,2.6-1.9,3.4c-1.2,0.9-2.6,1.3-4,1.3
		c-1.9,0.1-3.8-0.6-5.1-2c-1.3-1.6-1.9-3.6-1.8-5.7c-0.1-2,0.5-4,1.8-5.5c1.3-1.4,3.1-2.2,5-2.1c1.7-0.1,3.4,0.5,4.6,1.8
		c1.2,1.4,1.7,3.2,1.6,5v1.2h-11C601.3,919,602.9,920.8,606,920.8z M605.9,908.9c-1.2-0.1-2.4,0.4-3.2,1.2c-0.9,1-1.4,2.2-1.4,3.5
		h8.8C609.9,910.5,608.5,908.9,605.9,908.9L605.9,908.9z"/>
	<path class="st1" d="M617.8,922.1h-2v-14.5h2v2.8c0.7-1.7,2.4-2.9,4.3-2.8h1.1v1.9h-1.1c-1.3,0-2.5,0.7-3.2,1.8
		c-0.9,1.4-1.3,3-1.2,4.7L617.8,922.1z"/>
	<path class="st1" d="M644.1,920.4h0.8v1.7h-1.2c-0.7,0-1.3-0.2-1.8-0.6c-0.5-0.4-0.8-1-0.7-1.6v-0.1c-0.9,1.7-2.8,2.8-4.7,2.7
		c-1.3,0.1-2.6-0.4-3.6-1.2c-0.9-0.7-1.4-1.8-1.4-3c0-1.1,0.4-2.1,1.1-2.9c0.9-0.8,2-1.4,3.2-1.5l4.4-0.8c0.6,0,1-0.5,0.9-1.1
		c0,0,0,0,0-0.1c0-0.8-0.3-1.6-1-2.2c-0.7-0.6-1.7-0.9-2.6-0.8c-1.9-0.2-3.6,1.1-3.9,3l-1.9-0.3c0.2-1.3,0.9-2.4,1.9-3.2
		c1.1-0.8,2.5-1.3,4-1.2c1.5-0.1,2.9,0.4,4,1.3c1,0.9,1.5,2.3,1.5,3.6v7.1c0,0.3,0.1,0.6,0.2,0.9
		C643.5,920.4,643.8,920.5,644.1,920.4z M633.3,918.1c-0.1,0.8,0.3,1.5,0.8,2c0.7,0.5,1.5,0.8,2.3,0.7c1.3,0,2.5-0.5,3.3-1.5
		c0.9-1.1,1.4-2.4,1.3-3.8v-0.9l-5.2,0.9c-0.7,0.1-1.4,0.4-1.9,0.9C633.5,916.9,633.3,917.5,633.3,918.1z"/>
	<path class="st1" d="M653,922.5c-1.8,0.1-3.5-0.7-4.7-2c-1.2-1.5-1.8-3.5-1.8-5.5c-0.1-2,0.5-4,1.8-5.6c1.2-1.4,2.9-2.2,4.7-2.1
		c2-0.1,3.8,0.9,4.9,2.5v-8.1h2v20.4h-2v-2.3C656.8,921.5,655,922.5,653,922.5z M648.6,914.8c-0.1,1.5,0.4,3,1.2,4.3
		c0.8,1,2,1.6,3.3,1.6c1.3,0,2.6-0.6,3.5-1.6c1.7-2.6,1.7-5.9,0-8.5c-0.8-1.1-2.1-1.7-3.5-1.6c-1.3-0.1-2.6,0.5-3.3,1.6
		C648.9,911.8,648.5,913.3,648.6,914.8L648.6,914.8z"/>
	<path class="st1" d="M666.5,905h-2v-3.3h2V905z M666.5,922.1h-2v-14.5h2V922.1z"/>
	<path class="st1" d="M678,907.3c1.8-0.1,3.5,0.6,4.7,2c1.2,1.5,1.9,3.5,1.8,5.5c0.1,2-0.5,4-1.8,5.6c-1.2,1.4-2.9,2.2-4.7,2.1
		c-2,0.1-3.8-0.9-4.9-2.5v7.6h-2v-19.9h2v2.3C674.2,908.2,676.1,907.2,678,907.3z M682.5,914.9c0.1-1.5-0.3-3-1.2-4.3
		c-0.8-1-2-1.6-3.3-1.6c-1.4-0.1-2.6,0.5-3.5,1.6c-1.7,2.6-1.7,5.9,0,8.5c0.8,1.1,2.1,1.7,3.5,1.6c1.3,0,2.6-0.5,3.3-1.6
		C682.1,917.9,682.6,916.4,682.5,914.9z"/>
	<path class="st1" d="M690.2,905h-2v-3.3h2V905z M690.2,922.1h-2v-14.5h2V922.1z"/>
	<path class="st1" d="M699.8,922.5c-1.6,0.1-3.1-0.4-4.3-1.3c-1.1-0.8-1.7-2.1-1.8-3.5l2-0.3c0.1,1,0.5,2,1.2,2.7
		c0.8,0.6,1.9,0.9,2.9,0.8c0.9,0.1,1.8-0.2,2.6-0.7c0.6-0.5,0.9-1.3,0.9-2.1c0-1.3-1-2-2.9-2.4l-2-0.3c-2.8-0.5-4.2-1.8-4.2-4
		c0-1.1,0.5-2.2,1.4-2.9c2.3-1.5,5.3-1.5,7.6,0c1,0.8,1.7,2,1.8,3.3l-1.8,0.3c-0.2-0.9-0.6-1.8-1.3-2.4c-0.7-0.5-1.6-0.8-2.5-0.7
		c-0.9,0-1.7,0.2-2.4,0.6c-0.6,0.4-0.9,1-0.9,1.7c0,0.6,0.2,1.1,0.6,1.5c0.6,0.4,1.2,0.7,1.9,0.8l2.3,0.4c2.9,0.5,4.3,1.8,4.3,4.1
		c0,1.3-0.5,2.5-1.5,3.3C702.7,922.1,701.2,922.5,699.8,922.5z"/>
	<path class="st1" d="M714.5,920.7c1.1,0.1,2.1-0.3,2.9-1c0.8-0.8,1.2-1.8,1.3-2.8l2,0.2c-0.1,1.5-0.8,2.9-1.9,3.9
		c-2.7,2.2-6.6,1.9-9.1-0.5c-1.3-1.6-1.9-3.5-1.8-5.5c-0.1-2,0.5-4,1.8-5.6c1.2-1.4,3-2.2,4.9-2.1c1.5-0.1,3.1,0.4,4.3,1.4
		c1.1,1,1.9,2.4,2,3.8l-2.1,0.2c-0.4-2.5-1.8-3.8-4.2-3.8c-1.3-0.1-2.6,0.5-3.3,1.6c-0.9,1.3-1.3,2.8-1.2,4.4
		c-0.1,1.5,0.3,3,1.2,4.3C712,920.2,713.2,920.8,714.5,920.7z"/>
	<path class="st1" d="M726.2,905h-2v-3.3h2V905z M726.2,922.1h-2v-14.5h2V922.1z"/>
	<path class="st1" d="M742.9,912.7v9.4h-2v-9c0.1-1.1-0.3-2.2-1-3c-0.7-0.7-1.8-1.1-2.8-1.1c-1.2-0.1-2.4,0.4-3.2,1.3
		c-0.8,1.1-1.2,2.5-1.1,3.9v7.9h-2v-14.5h2v1.9c1-1.5,2.8-2.4,4.7-2.3c2.7-0.3,5.2,1.8,5.5,4.5C742.9,912.1,742.9,912.4,742.9,912.7
		L742.9,912.7z"/>
	<path class="st1" d="M752.8,921.3c-1.7,0.1-3.4-0.6-4.5-1.9c-2.2-3-2.2-7.2,0-10.2c1.1-1.3,2.8-2,4.5-1.9c1.8-0.1,3.5,0.8,4.6,2.2
		v-1.9h2v13.9c0.1,1.7-0.5,3.4-1.6,4.6c-1.2,1.2-2.9,1.8-4.5,1.7c-1.6,0.1-3.1-0.4-4.4-1.3c-1.1-0.9-1.8-2.2-1.9-3.6l2-0.2
		c0.1,1,0.6,1.9,1.4,2.5c0.9,0.6,1.9,0.8,2.9,0.8c1.2,0.1,2.3-0.4,3.2-1.2c0.8-1,1.2-2.3,1.1-3.6v-2.5
		C756.4,920.4,754.6,921.3,752.8,921.3z M748.6,914.3c-0.1,1.4,0.3,2.8,1.2,3.9c0.8,0.9,2,1.5,3.3,1.4c1.2,0,2.4-0.5,3.2-1.5
		c0.8-1.1,1.3-2.4,1.2-3.8c0-1.4-0.4-2.7-1.2-3.8c-0.8-1-2-1.5-3.2-1.5c-1.3-0.1-2.5,0.4-3.3,1.4
		C748.9,911.5,748.5,912.9,748.6,914.3L748.6,914.3z"/>
	<path class="st1" d="M776.8,920.8c2,0.2,3.8-1.3,4-3.3l1.9,0.3c-0.1,1.3-0.8,2.6-1.9,3.4c-1.2,0.9-2.6,1.3-4,1.3
		c-1.9,0.1-3.8-0.6-5.1-2c-1.3-1.6-1.9-3.6-1.8-5.7c-0.1-2,0.5-4,1.8-5.5c1.3-1.4,3.1-2.2,5-2.1c1.7-0.1,3.4,0.5,4.6,1.8
		c1.2,1.4,1.7,3.2,1.6,5v1.2h-11C772.1,919,773.8,920.8,776.8,920.8z M776.7,908.9c-1.2-0.1-2.4,0.4-3.2,1.2c-0.9,1-1.4,2.2-1.4,3.5
		h8.8C780.7,910.5,779.3,908.9,776.7,908.9L776.7,908.9z"/>
	<path class="st1" d="M788.7,922.1h-2v-20.4h2V922.1z"/>
	<path class="st1" d="M795.3,905h-2v-3.3h2V905z M795.3,922.1h-2v-14.5h2V922.1z"/>
	<path class="st1" d="M798.2,909.3v-1.7h2.7v-4.8h2v4.8h3.9v1.7h-3.9v8.7c-0.1,0.6,0.1,1.3,0.4,1.8c0.4,0.4,1,0.6,1.6,0.5h2.3v1.7
		h-2.5c-1,0.1-2-0.3-2.8-1c-0.7-0.8-1.1-1.8-1-2.8v-9L798.2,909.3z"/>
	<path class="st1" d="M810.3,925.8h-1.9l1.7-6.5h2L810.3,925.8z"/>
	<path class="st1" d="M827.5,922.5c-1.6,0.1-3.1-0.4-4.3-1.3c-1.1-0.8-1.7-2.1-1.8-3.5l2-0.3c0.1,1,0.5,2,1.2,2.7
		c0.8,0.6,1.9,0.9,2.9,0.8c0.9,0.1,1.8-0.2,2.6-0.7c0.6-0.5,0.9-1.3,0.9-2.1c0-1.3-1-2-2.9-2.4l-2-0.3c-2.8-0.5-4.2-1.8-4.2-4
		c0-1.1,0.5-2.2,1.4-2.9c2.3-1.5,5.3-1.5,7.6,0c1,0.8,1.7,2,1.8,3.3L831,912c-0.2-0.9-0.6-1.8-1.3-2.4c-0.7-0.5-1.6-0.8-2.5-0.7
		c-0.9,0-1.7,0.2-2.4,0.6c-0.9,0.7-1.2,2-0.5,2.9c0.1,0.1,0.1,0.2,0.2,0.3c0.6,0.4,1.2,0.7,1.9,0.8l2.3,0.4c2.9,0.5,4.3,1.8,4.3,4.1
		c0,1.3-0.5,2.5-1.5,3.3C830.4,922.1,829,922.5,827.5,922.5z"/>
	<path class="st1" d="M842.5,920.8c2,0.2,3.8-1.3,4-3.3l1.9,0.3c-0.1,1.4-0.8,2.6-1.9,3.4c-1.2,0.9-2.6,1.3-4,1.3
		c-1.9,0.1-3.8-0.6-5.1-2c-1.3-1.6-1.9-3.6-1.8-5.7c-0.1-2,0.6-4,1.8-5.5c1.3-1.4,3.1-2.2,5-2.1c1.7-0.1,3.4,0.5,4.6,1.8
		c1.2,1.4,1.7,3.2,1.6,5v1.2h-11C837.8,919,839.4,920.8,842.5,920.8z M842.4,908.9c-1.2-0.1-2.4,0.4-3.2,1.2c-0.9,1-1.4,2.2-1.4,3.5
		h8.8C846.3,910.5,845,908.9,842.4,908.9z"/>
	<path class="st1" d="M857.8,922.5c-1.8,0.1-3.5-0.7-4.7-2c-1.2-1.5-1.9-3.5-1.8-5.5c-0.1-2,0.5-4,1.8-5.6c1.2-1.4,2.9-2.2,4.7-2.1
		c2-0.1,3.8,0.9,4.9,2.5v-8.1h2v20.4h-2v-2.3C861.7,921.5,859.8,922.5,857.8,922.5z M853.4,914.8c-0.1,1.5,0.3,3,1.2,4.3
		c0.8,1,2,1.6,3.3,1.6c1.3,0,2.6-0.6,3.5-1.6c1.7-2.5,1.7-5.9,0-8.5c-0.8-1.1-2.1-1.7-3.4-1.6c-1.3-0.1-2.6,0.5-3.3,1.6
		C853.8,911.8,853.3,913.3,853.4,914.8z"/>
	<path class="st1" d="M881.9,922.5c-1.8,0.1-3.5-0.7-4.7-2c-1.2-1.5-1.9-3.5-1.8-5.5c-0.1-2,0.5-4,1.8-5.6c1.2-1.4,2.9-2.2,4.7-2.1
		c2-0.1,3.8,0.9,4.9,2.5v-8.1h2v20.4h-2v-2.3C885.7,921.5,883.8,922.5,881.9,922.5z M877.4,914.8c-0.1,1.5,0.4,3,1.2,4.3
		c0.8,1,2,1.6,3.3,1.6c1.4,0,2.6-0.6,3.5-1.6c1.7-2.6,1.7-5.9,0-8.5c-0.8-1.1-2.1-1.7-3.5-1.6c-1.3-0.1-2.5,0.5-3.3,1.6
		C877.8,911.8,877.3,913.3,877.4,914.8z"/>
	<path class="st1" d="M895.4,905h-2v-3.3h2V905z M895.4,922.1h-2v-14.5h2V922.1z"/>
	<path class="st1" d="M911.7,920.4h0.8v1.7h-1.2c-0.7,0-1.3-0.2-1.8-0.6c-0.5-0.4-0.8-1-0.7-1.6v-0.1c-0.9,1.7-2.8,2.7-4.7,2.7
		c-1.3,0.1-2.6-0.4-3.7-1.2c-0.9-0.7-1.4-1.8-1.4-3c0-1.1,0.4-2.1,1.1-2.9c0.9-0.8,2-1.4,3.2-1.5l4.4-0.8c0.6,0,1-0.5,0.9-1.1
		c0,0,0,0,0-0.1c0-0.8-0.3-1.6-1-2.2c-0.7-0.6-1.7-0.9-2.6-0.8c-1.9-0.2-3.6,1.1-3.9,3l-1.9-0.3c0.2-1.3,0.9-2.4,1.9-3.2
		c1.1-0.8,2.5-1.3,3.9-1.2c1.5-0.1,2.9,0.4,4,1.3c1,0.9,1.5,2.3,1.5,3.6v7.1c0,0.3,0.1,0.6,0.2,0.9
		C911.1,920.4,911.4,920.5,911.7,920.4z M900.9,918.1c0,0.8,0.3,1.5,0.8,2c0.7,0.5,1.5,0.8,2.3,0.7c1.3,0,2.5-0.5,3.3-1.5
		c0.9-1.1,1.4-2.4,1.3-3.8v-0.9l-5.2,0.9c-0.7,0.1-1.4,0.4-1.9,0.9C901.1,916.9,900.9,917.5,900.9,918.1L900.9,918.1z"/>
	<path class="st1" d="M926.6,914.2v7.9h-2v-9c0.1-1.1-0.3-2.1-0.9-3c-0.6-0.7-1.6-1.1-2.6-1.1c-1.2-0.1-2.3,0.4-3,1.3
		c-0.8,1.1-1.1,2.5-1,3.9v7.9h-2v-14.5h2v1.8c1-1.4,2.6-2.3,4.3-2.2c1,0,2,0.2,2.8,0.7c0.8,0.5,1.4,1.2,1.8,2
		c0.9-1.8,2.8-2.9,4.8-2.7c1.4-0.1,2.8,0.5,3.9,1.5c1,1.1,1.5,2.5,1.4,4v9.4h-2v-9c0.1-1.1-0.3-2.1-0.9-3c-0.7-0.7-1.6-1.1-2.6-1.1
		c-1.2-0.1-2.3,0.4-3,1.3C926.9,911.5,926.5,912.8,926.6,914.2z"/>
	<path class="st1" d="M100.8,947.7v9.4h-2v-9c0.1-1.1-0.3-2.2-1-3c-0.7-0.8-1.8-1.2-2.8-1.1c-1.2-0.1-2.4,0.4-3.2,1.3
		c-0.8,1.1-1.2,2.5-1.1,3.9v7.9h-2v-14.5h2v1.9c1-1.5,2.8-2.4,4.6-2.3c2.7-0.3,5.2,1.7,5.5,4.5C100.8,947.1,100.8,947.4,100.8,947.7
		L100.8,947.7z"/>
	<path class="st1" d="M104.3,949.9c-0.1-2,0.6-4,1.9-5.5c2.8-2.8,7.3-2.8,10.1,0c2.5,3.2,2.5,7.8,0,11c-2.8,2.8-7.3,2.8-10.1,0
		C104.9,953.8,104.2,951.9,104.3,949.9z M114.8,954.2c0.9-1.2,1.4-2.7,1.3-4.3c0.1-1.5-0.4-3.1-1.3-4.3c-1.8-2-4.8-2.1-6.8-0.4
		c-0.1,0.1-0.2,0.2-0.4,0.4c-1.7,2.6-1.7,6,0,8.6c1.8,2,4.8,2.1,6.8,0.4C114.6,954.4,114.7,954.3,114.8,954.2L114.8,954.2z"/>
	<path class="st1" d="M133.9,947.7v9.4h-2v-9c0.1-1.1-0.3-2.2-1-3c-0.7-0.7-1.8-1.1-2.8-1.1c-1.2-0.1-2.4,0.4-3.2,1.3
		c-0.8,1.1-1.2,2.5-1.1,3.9v7.9h-2v-14.5h2v1.9c1-1.5,2.8-2.4,4.7-2.3c2.7-0.3,5.2,1.8,5.5,4.5C133.9,947.1,133.9,947.4,133.9,947.7
		L133.9,947.7z"/>
	<path class="st1" d="M148,942.6h2v14.5h-2v-1.9c-1,1.5-2.7,2.3-4.5,2.2c-1.4,0.1-2.9-0.5-3.9-1.5c-1-1.1-1.5-2.5-1.4-4v-9.4h2v9
		c-0.1,1.1,0.3,2.2,0.9,3c0.7,0.7,1.7,1.1,2.7,1.1c1.2,0.1,2.3-0.4,3.1-1.3c0.8-1.1,1.2-2.5,1.1-3.8L148,942.6z"/>
	<path class="st1" d="M166.2,949.2v7.9h-2v-9c0.1-1.1-0.3-2.1-0.9-3c-0.7-0.7-1.6-1.1-2.6-1.1c-1.2-0.1-2.3,0.4-3,1.3
		c-0.8,1.1-1.1,2.5-1,3.9v7.9h-2v-14.5h2v1.8c1-1.4,2.6-2.3,4.3-2.2c1,0,2,0.2,2.9,0.7c0.8,0.5,1.4,1.2,1.8,2
		c0.9-1.8,2.8-2.9,4.8-2.7c1.4-0.1,2.8,0.5,3.9,1.5c1,1.1,1.5,2.5,1.4,4v9.4h-2v-9c0.1-1.1-0.3-2.1-0.9-3c-0.7-0.7-1.6-1.1-2.6-1.1
		c-1.2-0.1-2.3,0.4-3,1.3C166.4,946.5,166.1,947.9,166.2,949.2z"/>
	<path class="st1" d="M191.7,949.2v7.9h-2v-9c0.1-1.1-0.3-2.1-0.9-3c-0.6-0.7-1.6-1.1-2.6-1.1c-1.2-0.1-2.3,0.4-3,1.3
		c-0.8,1.1-1.1,2.5-1,3.9v7.9h-2v-14.5h2v1.8c1-1.4,2.6-2.3,4.3-2.2c1,0,2,0.2,2.9,0.7c0.8,0.5,1.4,1.2,1.8,2
		c0.9-1.8,2.8-2.9,4.8-2.7c1.4-0.1,2.8,0.5,3.9,1.5c1,1.1,1.5,2.5,1.4,4v9.4h-2v-9c0.1-1.1-0.3-2.1-0.9-3c-0.7-0.7-1.6-1.1-2.6-1.1
		c-1.2-0.1-2.3,0.4-3,1.3C191.9,946.5,191.6,947.9,191.7,949.2z"/>
	<path class="st1" d="M208.9,958.7l0.6-1.5l-5.9-14.6h2.1l4.8,12.2l4.8-12.2h2l-6.6,16.5c-0.3,1-1,2-1.8,2.7
		c-0.8,0.5-1.8,0.8-2.8,0.8h-1.4v-1.7h1.4c0.6,0,1.2-0.1,1.7-0.5C208.3,959.9,208.7,959.3,208.9,958.7z"/>
	<path class="st1" d="M238.8,947.7v9.4h-2v-9c0.1-1.1-0.3-2.2-1-3c-0.7-0.7-1.8-1.1-2.8-1.1c-1.2-0.1-2.4,0.4-3.2,1.3
		c-0.8,1.1-1.2,2.5-1.1,3.9v7.9h-2v-14.5h2v1.9c1-1.5,2.8-2.4,4.6-2.3c2.7-0.3,5.2,1.8,5.5,4.5C238.8,947.1,238.8,947.4,238.8,947.7
		L238.8,947.7z"/>
	<path class="st1" d="M245.3,940h-2v-3.3h2V940z M245.3,957.1h-2v-14.5h2V957.1z"/>
	<path class="st1" d="M256.8,942.3c1.8-0.1,3.5,0.6,4.7,2c1.2,1.5,1.9,3.5,1.8,5.5c0.1,2-0.5,4-1.8,5.6c-1.2,1.4-2.9,2.2-4.7,2.1
		c-2,0.1-3.8-0.9-4.9-2.5v2.2h-2v-20.4h2v8.2C253,943.2,254.8,942.2,256.8,942.3z M261.2,949.9c0.1-1.5-0.3-3-1.2-4.3
		c-0.8-1-2-1.6-3.4-1.6c-1.4-0.1-2.6,0.5-3.5,1.6c-1.7,2.6-1.7,5.9,0,8.5c0.8,1.1,2.1,1.7,3.5,1.6c1.3,0.1,2.6-0.5,3.4-1.6
		C260.9,952.9,261.3,951.4,261.2,949.9z"/>
	<path class="st1" d="M279.1,947.7v9.4h-2v-9c0.1-1.1-0.3-2.2-1-3c-0.7-0.8-1.7-1.2-2.8-1.1c-1.2-0.1-2.4,0.4-3.2,1.3
		c-0.8,1.1-1.2,2.5-1.1,3.9v7.9h-2v-20.4h2v7.8c1-1.5,2.8-2.4,4.6-2.3c2.7-0.3,5.2,1.7,5.5,4.5C279.1,947.1,279.1,947.4,279.1,947.7
		z"/>
	<path class="st1" d="M296.5,955.8c2,0.2,3.8-1.3,4-3.3l1.9,0.3c-0.1,1.3-0.8,2.6-1.9,3.4c-1.2,0.9-2.6,1.3-4,1.3
		c-1.9,0.1-3.8-0.6-5.1-2c-1.3-1.6-1.9-3.6-1.8-5.7c-0.1-2,0.6-4,1.8-5.5c1.3-1.4,3.1-2.2,5-2.1c1.7-0.1,3.4,0.6,4.6,1.8
		c1.2,1.4,1.7,3.2,1.6,5v1.2h-11C291.8,954,293.4,955.8,296.5,955.8z M296.4,943.9c-1.2-0.1-2.4,0.4-3.2,1.2c-0.9,1-1.4,2.2-1.4,3.5
		h8.8C300.3,945.5,299,943.9,296.4,943.9z"/>
	<path class="st1" d="M315.9,942.6h2v14.5h-2v-1.9c-1.9,2.5-5.6,3-8.1,1c-0.1-0.1-0.2-0.2-0.3-0.3c-1-1.1-1.5-2.5-1.4-4v-9.4h2v9
		c-0.1,1.1,0.3,2.2,1,3c0.7,0.7,1.7,1.1,2.7,1.1c1.2,0.1,2.3-0.4,3.1-1.3c0.8-1.1,1.2-2.5,1.1-3.8L315.9,942.6z"/>
	<path class="st1" d="M324.6,940h-2v-3.3h2V940z M324.6,957.1h-2v-14.5h2V957.1z"/>
	<path class="st1" d="M334.1,957.5c-1.6,0.1-3.1-0.4-4.4-1.3c-1.1-0.8-1.7-2.1-1.8-3.5l2-0.3c0.1,1,0.5,2,1.2,2.7
		c0.8,0.6,1.9,0.9,2.9,0.8c0.9,0.1,1.8-0.2,2.6-0.7c0.6-0.5,0.9-1.3,0.9-2.1c0-1.3-1-2-2.9-2.4l-2-0.3c-2.8-0.5-4.2-1.8-4.2-4
		c0-1.1,0.5-2.2,1.5-2.9c2.3-1.5,5.3-1.5,7.6,0c1,0.8,1.7,2,1.8,3.3l-1.8,0.3c-0.2-0.9-0.6-1.8-1.3-2.4c-0.7-0.5-1.6-0.8-2.5-0.7
		c-0.8,0-1.7,0.2-2.4,0.6c-0.6,0.4-0.9,1-0.9,1.7c0,0.6,0.2,1.1,0.6,1.5c0.6,0.4,1.2,0.7,1.9,0.8l2.3,0.4c2.9,0.5,4.3,1.8,4.3,4.1
		c0,1.3-0.5,2.5-1.5,3.3C337,957.1,335.6,957.5,334.1,957.5z"/>
	<path class="st1" d="M354.7,949.2v7.9h-2v-9c0.1-1.1-0.3-2.1-0.9-3c-0.6-0.7-1.6-1.1-2.6-1.1c-1.2-0.1-2.3,0.4-3,1.3
		c-0.8,1.1-1.1,2.5-1,3.9v7.9h-2v-14.5h2v1.8c1-1.4,2.6-2.3,4.3-2.2c1,0,2,0.2,2.9,0.7c0.8,0.5,1.4,1.2,1.8,2
		c0.9-1.8,2.8-2.9,4.8-2.7c1.4-0.1,2.8,0.4,3.9,1.5c1,1.1,1.5,2.5,1.4,4v9.4h-2v-9c0.1-1.1-0.3-2.1-0.9-3c-0.7-0.7-1.6-1.1-2.6-1.1
		c-1.2-0.1-2.3,0.4-3,1.3C354.9,946.5,354.6,947.9,354.7,949.2z"/>
	<path class="st1" d="M367.7,949.9c-0.1-2,0.6-4,1.9-5.5c2.8-2.8,7.3-2.8,10.1,0c2.5,3.2,2.5,7.8,0,11c-2.8,2.8-7.3,2.8-10.1,0
		C368.2,953.8,367.6,951.9,367.7,949.9z M378.2,954.2c0.9-1.2,1.4-2.7,1.3-4.3c0.1-1.5-0.4-3.1-1.3-4.3c-1.8-2-4.8-2.1-6.8-0.4
		c-0.1,0.1-0.2,0.2-0.4,0.4c-1.7,2.6-1.7,6,0,8.6c1.8,2,4.8,2.1,6.8,0.4C377.9,954.4,378.1,954.3,378.2,954.2L378.2,954.2z"/>
	<path class="st1" d="M390.7,957.5c-1.8,0.1-3.5-0.7-4.7-2c-1.2-1.5-1.9-3.5-1.8-5.5c-0.1-2,0.5-4,1.8-5.6c1.2-1.4,2.9-2.2,4.7-2.1
		c2-0.1,3.8,0.9,4.9,2.5v-8.1h2v20.4h-2v-2.3C394.6,956.5,392.7,957.5,390.7,957.5z M386.3,949.8c-0.1,1.5,0.3,3,1.2,4.3
		c0.8,1,2,1.6,3.4,1.6c1.3,0,2.6-0.6,3.5-1.6c1.7-2.6,1.7-5.9,0-8.5c-0.8-1.1-2.1-1.7-3.5-1.6c-1.3-0.1-2.6,0.5-3.4,1.6
		C386.6,946.8,386.2,948.3,386.3,949.8z"/>
	<path class="st1" d="M407,944.3v-1.7h2.7v-4.8h2v4.8h3.9v1.7h-3.9v8.8c-0.1,0.6,0.1,1.3,0.5,1.8c0.4,0.4,1,0.6,1.6,0.5h2.3v1.7
		h-2.5c-1,0.1-2-0.3-2.8-1c-0.7-0.8-1.1-1.8-1-2.8v-9L407,944.3z"/>
	<path class="st1" d="M420.8,940h-2v-3.3h2V940z M420.8,957.1h-2v-14.5h2V957.1z"/>
	<path class="st1" d="M437.5,947.7v9.4h-2v-9c0.1-1.1-0.3-2.2-1-3c-0.7-0.7-1.8-1.1-2.8-1.1c-1.2-0.1-2.4,0.4-3.2,1.3
		c-0.8,1.1-1.2,2.5-1.1,3.9v7.9h-2v-14.5h2v1.9c1-1.5,2.8-2.4,4.6-2.3c2.7-0.3,5.2,1.8,5.5,4.5C437.5,947.1,437.5,947.4,437.5,947.7
		L437.5,947.7z"/>
	<path class="st1" d="M447.7,955.8c1.1,0.1,2.1-0.3,2.9-1c0.8-0.8,1.2-1.8,1.3-2.8l2,0.2c-0.1,1.5-0.8,2.9-1.9,3.9
		c-2.7,2.2-6.6,1.9-9.1-0.5c-1.3-1.6-1.9-3.5-1.8-5.5c-0.1-2,0.5-4,1.8-5.6c1.2-1.4,3-2.2,4.9-2.1c1.5-0.1,3.1,0.4,4.3,1.4
		c1.1,1,1.8,2.4,2,3.8l-2.1,0.2c-0.4-2.5-1.8-3.8-4.2-3.8c-1.3-0.1-2.6,0.5-3.4,1.6c-0.9,1.3-1.3,2.8-1.2,4.4
		c-0.1,1.5,0.3,3,1.2,4.3C445.1,955.2,446.4,955.8,447.7,955.8z"/>
	<path class="st1" d="M459.4,940h-2v-3.3h2V940z M459.4,957.1h-2v-14.5h2V957.1z"/>
	<path class="st1" d="M469.5,957.5c-1.8,0.1-3.5-0.7-4.7-2c-1.2-1.5-1.9-3.5-1.8-5.4c-0.1-2,0.5-4,1.8-5.6c1.2-1.4,2.9-2.2,4.7-2.1
		c2-0.1,3.8,0.9,4.9,2.5v-8.1h2v20.4h-2v-2.3C473.3,956.5,471.5,957.5,469.5,957.5z M465.1,949.8c-0.1,1.5,0.4,3,1.2,4.3
		c0.8,1,2,1.6,3.4,1.6c1.3,0,2.6-0.6,3.5-1.6c1.7-2.6,1.7-5.9,0-8.5c-0.8-1.1-2.1-1.7-3.5-1.6c-1.3-0.1-2.6,0.5-3.4,1.6
		C465.4,946.8,465,948.3,465.1,949.8z"/>
	<path class="st1" d="M490.7,942.6h2v14.5h-2v-1.9c-2,2.5-5.6,3-8.1,1c-0.1-0.1-0.2-0.2-0.3-0.3c-1-1.1-1.5-2.5-1.4-4v-9.4h2v9
		c-0.1,1.1,0.3,2.2,0.9,3c0.7,0.7,1.7,1.1,2.7,1.1c1.2,0.1,2.3-0.4,3.1-1.3c0.8-1.1,1.2-2.5,1.1-3.8L490.7,942.6z"/>
	<path class="st1" d="M509.4,947.7v9.4h-2v-9c0.1-1.1-0.3-2.2-1-3c-0.7-0.7-1.8-1.1-2.8-1.1c-1.2-0.1-2.4,0.4-3.2,1.3
		c-0.8,1.1-1.2,2.5-1.1,3.9v7.9h-2v-14.5h2v1.9c1-1.5,2.8-2.4,4.6-2.3c2.7-0.3,5.2,1.7,5.5,4.5C509.4,947.1,509.4,947.4,509.4,947.7
		L509.4,947.7z"/>
	<path class="st1" d="M511.9,944.3v-1.7h2.7v-4.8h2v4.8h3.9v1.7h-4v8.8c-0.1,0.6,0.1,1.3,0.5,1.8c0.4,0.4,1,0.6,1.6,0.5h2.3v1.7
		h-2.5c-1,0.1-2-0.3-2.8-1c-0.7-0.8-1.1-1.8-1-2.8v-9L511.9,944.3z"/>
	<path class="st1" d="M540.4,942.6h2v14.5h-2v-1.9c-1,1.5-2.7,2.3-4.5,2.2c-1.4,0.1-2.9-0.5-3.9-1.5c-1-1.1-1.5-2.5-1.4-4v-9.4h2v9
		c-0.1,1.1,0.3,2.2,1,3c0.7,0.7,1.7,1.1,2.7,1.1c1.2,0.1,2.3-0.4,3.1-1.3c0.8-1.1,1.2-2.5,1.1-3.8L540.4,942.6z"/>
	<path class="st1" d="M545.2,944.3v-1.7h2.7v-4.8h2v4.8h3.9v1.7h-3.9v8.8c-0.1,0.6,0.1,1.3,0.5,1.8c0.4,0.4,1,0.6,1.6,0.5h2.3v1.7
		h-2.5c-1,0.1-2-0.3-2.8-1c-0.7-0.8-1.1-1.8-1-2.8v-9L545.2,944.3z"/>
	<path class="st1" d="M566,957.1h-2v-20.4h2V957.1z"/>
	<path class="st1" d="M582.3,955.5h0.8v1.7h-1.2c-0.7,0-1.3-0.2-1.8-0.6c-0.5-0.4-0.8-1-0.7-1.6v-0.1c-0.9,1.7-2.8,2.7-4.7,2.7
		c-1.3,0.1-2.6-0.4-3.7-1.2c-0.9-0.7-1.4-1.8-1.4-3c0-1.1,0.4-2.1,1.1-2.9c0.9-0.8,2-1.4,3.2-1.5l4.4-0.8c0.6,0,1-0.5,0.9-1.1
		c0,0,0,0,0-0.1c0-0.8-0.4-1.6-1-2.2c-0.7-0.6-1.7-0.9-2.6-0.8c-1.9-0.2-3.6,1.1-3.9,3l-1.9-0.3c0.2-1.3,0.9-2.4,1.9-3.2
		c1.1-0.8,2.5-1.3,3.9-1.2c1.5-0.1,2.9,0.4,4,1.3c1,0.9,1.5,2.3,1.5,3.6v7.1c0,0.3,0.1,0.6,0.2,0.9
		C581.7,955.4,582,955.5,582.3,955.5z M571.6,953.1c0,0.8,0.3,1.5,0.8,2c0.7,0.5,1.5,0.8,2.3,0.7c1.3,0,2.5-0.5,3.3-1.5
		c0.9-1.1,1.4-2.4,1.3-3.8v-0.9l-5.2,0.9c-0.7,0.1-1.4,0.4-1.9,0.9C571.8,951.9,571.6,952.5,571.6,953.1z"/>
	<path class="st1" d="M584.8,949.9c-0.1-2,0.6-4,1.9-5.5c2.8-2.8,7.3-2.8,10.1,0c2.5,3.2,2.5,7.8,0,11c-2.8,2.8-7.3,2.8-10.1,0
		C585.4,953.8,584.7,951.9,584.8,949.9z M595.3,954.2c0.9-1.2,1.4-2.7,1.3-4.3c0.1-1.5-0.4-3.1-1.3-4.3c-1.8-2-4.8-2.1-6.8-0.4
		c-0.1,0.1-0.2,0.2-0.4,0.4c-0.9,1.2-1.4,2.8-1.3,4.3c-0.1,1.5,0.4,3.1,1.3,4.3c1.8,2,4.8,2.1,6.8,0.4
		C595.1,954.4,595.2,954.3,595.3,954.2z"/>
	<path class="st1" d="M604.3,957.1h-2v-14.5h2v2.8c0.7-1.7,2.4-2.9,4.3-2.8h1.1v1.9h-1.1c-1.3,0-2.5,0.7-3.1,1.8
		c-0.9,1.4-1.3,3-1.2,4.7V957.1z"/>
	<path class="st1" d="M618.1,955.8c2,0.2,3.8-1.3,4-3.3l1.9,0.3c-0.1,1.4-0.8,2.6-1.9,3.4c-1.2,0.9-2.6,1.3-4,1.3
		c-1.9,0.1-3.8-0.6-5.1-2c-1.3-1.6-1.9-3.6-1.8-5.7c-0.1-2,0.6-4,1.8-5.5c1.3-1.4,3.1-2.2,5-2.1c1.7-0.1,3.4,0.5,4.6,1.8
		c1.2,1.4,1.7,3.2,1.6,5v1.2h-11C613.4,954,615,955.8,618.1,955.8z M618,943.9c-1.2-0.1-2.4,0.4-3.2,1.2c-0.9,1-1.4,2.2-1.4,3.5h8.8
		C622,945.5,620.6,943.9,618,943.9L618,943.9z"/>
	<path class="st1" d="M633.9,955.8c2,0.2,3.8-1.3,4-3.3l1.9,0.3c-0.1,1.3-0.8,2.6-1.9,3.4c-1.2,0.9-2.6,1.3-4,1.3
		c-1.9,0.1-3.8-0.6-5.1-2c-1.3-1.6-1.9-3.6-1.8-5.7c-0.1-2,0.5-4,1.8-5.5c1.3-1.4,3.1-2.2,5-2.1c1.7-0.1,3.4,0.6,4.6,1.8
		c1.2,1.4,1.7,3.2,1.6,5v1.2h-11C629.2,954,630.8,955.8,633.9,955.8z M633.8,943.9c-1.2-0.1-2.4,0.4-3.2,1.2c-0.9,1-1.4,2.2-1.4,3.5
		h8.8C637.8,945.5,636.4,943.9,633.8,943.9z"/>
	<path class="st1" d="M641.8,944.3v-1.7h2.7v-4.8h2v4.8h3.9v1.7h-3.9v8.8c-0.1,0.6,0.1,1.3,0.5,1.8c0.4,0.4,1,0.6,1.6,0.5h2.3v1.7
		h-2.5c-1,0.1-2-0.3-2.8-1c-0.7-0.8-1.1-1.8-1-2.8v-9L641.8,944.3z"/>
	<path class="st1" d="M666.1,957.5c-1.8,0.1-3.5-0.7-4.7-2c-1.2-1.5-1.9-3.5-1.8-5.5c-0.1-2,0.5-4,1.8-5.6c1.2-1.4,2.9-2.2,4.7-2.1
		c2-0.1,3.8,0.9,4.9,2.5v-8.1h2v20.4h-2v-2.3C670,956.5,668.1,957.5,666.1,957.5z M661.7,949.8c-0.1,1.5,0.4,3,1.2,4.3
		c0.8,1,2,1.6,3.3,1.6c1.4,0,2.6-0.6,3.5-1.6c1.7-2.6,1.7-5.9,0-8.5c-0.8-1.1-2.1-1.7-3.5-1.6c-1.3-0.1-2.5,0.5-3.3,1.6
		C662,946.8,661.6,948.3,661.7,949.8z"/>
	<path class="st1" d="M676.6,949.9c-0.1-2,0.6-4,1.9-5.5c2.8-2.8,7.3-2.8,10.1,0c2.5,3.2,2.5,7.8,0,11c-2.8,2.8-7.3,2.8-10.1,0
		C677.2,953.8,676.6,951.9,676.6,949.9z M687.2,954.2c0.9-1.2,1.4-2.7,1.3-4.3c0.1-1.5-0.4-3.1-1.3-4.3c-0.9-1.1-2.2-1.6-3.6-1.6
		c-1.4-0.1-2.7,0.5-3.6,1.6c-0.9,1.2-1.4,2.8-1.3,4.3c-0.1,1.5,0.4,3.1,1.3,4.3c0.9,1.1,2.2,1.7,3.6,1.6
		C684.9,955.8,686.3,955.2,687.2,954.2L687.2,954.2z"/>
	<path class="st1" d="M696.2,957.1h-2v-20.4h2V957.1z"/>
	<path class="st1" d="M699.8,949.9c-0.1-2,0.6-4,1.9-5.5c2.8-2.8,7.3-2.8,10.1,0c2.5,3.2,2.5,7.8,0,11c-2.8,2.8-7.3,2.8-10.1,0
		C700.4,953.8,699.7,951.9,699.8,949.9z M710.3,954.2c0.9-1.2,1.4-2.7,1.3-4.3c0.1-1.5-0.4-3.1-1.3-4.3c-1.8-2-4.8-2.1-6.8-0.4
		c-0.1,0.1-0.2,0.2-0.4,0.4c-1.7,2.6-1.7,6,0,8.6c1.8,2,4.8,2.1,6.8,0.4C710.1,954.4,710.2,954.3,710.3,954.2L710.3,954.2z"/>
	<path class="st1" d="M719.3,957.1h-2v-14.5h2v2.8c0.7-1.7,2.4-2.9,4.3-2.8h1.1v1.9h-1.1c-1.3,0-2.5,0.7-3.1,1.8
		c-0.9,1.4-1.3,3-1.2,4.7V957.1z"/>
	<path class="st1" d="M733.2,955.8c2,0.2,3.8-1.3,4-3.3l1.9,0.3c-0.1,1.4-0.8,2.6-1.9,3.4c-1.2,0.9-2.6,1.3-4,1.3
		c-1.9,0.1-3.8-0.6-5.1-2c-1.3-1.6-1.9-3.6-1.8-5.7c-0.1-2,0.6-4,1.8-5.5c1.3-1.4,3.1-2.2,5-2.1c1.7-0.1,3.4,0.5,4.6,1.8
		c1.2,1.4,1.7,3.2,1.6,5v1.2h-11C728.5,954,730.1,955.8,733.2,955.8z M733.1,943.9c-1.2-0.1-2.4,0.4-3.2,1.2c-0.9,1-1.4,2.2-1.4,3.5
		h8.8C737,945.5,735.7,943.9,733.1,943.9L733.1,943.9z"/>
	<path class="st1" d="M761.5,949.2v7.9h-2v-9c0.1-1.1-0.3-2.1-0.9-3c-0.6-0.8-1.6-1.2-2.6-1.1c-1.2-0.1-2.3,0.4-3,1.3
		c-0.8,1.1-1.1,2.5-1,3.9v7.9h-2v-14.5h2v1.8c1-1.4,2.6-2.3,4.3-2.2c1,0,2,0.2,2.8,0.7c0.8,0.5,1.4,1.2,1.8,2
		c0.9-1.8,2.8-2.9,4.8-2.7c1.4-0.1,2.8,0.5,3.9,1.5c1,1.1,1.5,2.5,1.4,4v9.4h-2v-9c0.1-1.1-0.3-2.1-0.9-3c-0.7-0.7-1.6-1.1-2.6-1.1
		c-1.2-0.1-2.3,0.4-3,1.3C761.8,946.5,761.4,947.8,761.5,949.2z"/>
	<path class="st1" d="M787.1,955.5h0.8v1.7h-1.2c-0.7,0-1.3-0.2-1.8-0.6c-0.5-0.4-0.8-1-0.7-1.6v-0.1c-0.9,1.7-2.8,2.7-4.7,2.7
		c-1.3,0.1-2.6-0.4-3.7-1.2c-0.9-0.7-1.4-1.8-1.4-3c0-1.1,0.4-2.1,1.1-2.9c0.9-0.8,2-1.4,3.2-1.5l4.4-0.8c0.6,0,1-0.5,0.9-1.1
		c0,0,0,0,0-0.1c0-0.8-0.4-1.6-1-2.2c-0.7-0.6-1.7-0.9-2.6-0.8c-1.9-0.2-3.6,1.1-3.9,3l-1.9-0.3c0.2-1.3,0.9-2.4,1.9-3.2
		c1.1-0.8,2.5-1.3,3.9-1.2c1.5-0.1,2.9,0.4,4,1.3c1,0.9,1.5,2.3,1.5,3.6v7.1c0,0.3,0.1,0.6,0.2,0.9
		C786.5,955.4,786.8,955.5,787.1,955.5z M776.3,953.1c0,0.8,0.3,1.5,0.8,2c0.7,0.5,1.5,0.8,2.3,0.7c1.3,0,2.5-0.5,3.3-1.5
		c0.9-1.1,1.4-2.4,1.3-3.8v-0.9l-5.2,0.9c-0.7,0.1-1.4,0.4-1.9,0.9C776.6,951.9,776.3,952.5,776.3,953.1L776.3,953.1z"/>
	<path class="st1" d="M795.9,956.3c-1.7,0.1-3.4-0.6-4.5-1.9c-1.2-1.4-1.8-3.3-1.7-5.1c-0.1-1.8,0.5-3.7,1.7-5.1
		c1.1-1.3,2.8-2,4.5-1.9c1.8-0.1,3.5,0.8,4.6,2.2v-1.9h2v13.9c0.1,1.7-0.5,3.4-1.7,4.6c-1.2,1.2-2.8,1.8-4.5,1.7
		c-1.6,0.1-3.1-0.4-4.4-1.3c-1.1-0.9-1.8-2.2-1.9-3.6l2-0.2c0.1,1,0.6,1.9,1.4,2.5c0.9,0.6,1.9,0.8,2.9,0.8c1.2,0.1,2.3-0.4,3.2-1.2
		c0.8-1,1.2-2.3,1.1-3.6v-2.5C799.5,955.4,797.8,956.3,795.9,956.3z M791.7,949.3c-0.1,1.4,0.3,2.8,1.2,3.9c0.8,0.9,2,1.4,3.3,1.4
		c1.2,0,2.4-0.5,3.2-1.5c1.6-2.3,1.6-5.3,0-7.6c-0.8-1-1.9-1.5-3.2-1.5c-1.3-0.1-2.5,0.4-3.3,1.4
		C792.1,946.5,791.7,947.9,791.7,949.3L791.7,949.3z"/>
	<path class="st1" d="M819.2,947.7v9.4h-2v-9c0.1-1.1-0.3-2.2-1-3c-0.7-0.7-1.8-1.1-2.8-1.1c-1.2-0.1-2.4,0.4-3.2,1.3
		c-0.8,1.1-1.2,2.5-1.1,3.9v7.9h-2v-14.5h2v1.9c1-1.5,2.8-2.4,4.7-2.3c2.7-0.3,5.2,1.8,5.5,4.5C819.2,947.1,819.2,947.4,819.2,947.7
		L819.2,947.7z"/>
	<path class="st1" d="M835.3,955.5h0.8v1.7h-1.2c-0.7,0-1.3-0.2-1.8-0.6c-0.5-0.4-0.8-1-0.7-1.6v-0.1c-0.9,1.7-2.8,2.8-4.7,2.7
		c-1.3,0.1-2.6-0.4-3.6-1.2c-0.9-0.7-1.4-1.8-1.4-3c0-1.1,0.4-2.1,1.1-2.9c0.9-0.8,2-1.4,3.2-1.5l4.4-0.8c0.6,0,1-0.5,0.9-1.1
		c0,0,0,0,0-0.1c0-0.8-0.4-1.6-1-2.2c-0.7-0.6-1.7-0.9-2.6-0.8c-1.9-0.2-3.6,1.1-3.9,3l-1.9-0.3c0.2-1.3,0.9-2.4,1.9-3.2
		c1.1-0.8,2.5-1.3,4-1.2c1.5-0.1,2.9,0.4,4,1.3c1,0.9,1.5,2.3,1.5,3.6v7.1c0,0.3,0.1,0.6,0.2,0.9C834.7,955.4,835,955.5,835.3,955.5
		z M824.5,953.1c0,0.8,0.3,1.5,0.8,2c0.7,0.5,1.5,0.8,2.3,0.7c1.3,0,2.5-0.5,3.3-1.5c0.9-1.1,1.4-2.4,1.3-3.8v-0.9l-5.2,0.9
		c-0.7,0.1-1.4,0.4-1.9,0.9C824.8,951.9,824.5,952.5,824.5,953.1z"/>
	<path class="st1" d="M857.4,955.5h0.8v1.7H857c-0.7,0-1.3-0.2-1.8-0.6c-0.5-0.4-0.8-1-0.7-1.6v-0.1c-0.9,1.7-2.8,2.7-4.7,2.7
		c-1.3,0.1-2.6-0.4-3.7-1.2c-0.9-0.7-1.4-1.8-1.4-3c0-1.1,0.4-2.1,1.1-2.9c0.9-0.8,2-1.4,3.2-1.5l4.4-0.8c0.6,0,1-0.5,0.9-1.1
		c0,0,0,0,0-0.1c0-0.8-0.4-1.6-1-2.2c-0.7-0.6-1.7-0.9-2.6-0.8c-1.9-0.2-3.6,1.1-3.9,3l-1.9-0.3c0.2-1.3,0.9-2.4,1.9-3.2
		c1.1-0.8,2.5-1.3,4-1.2c1.5-0.1,2.9,0.4,4,1.3c1,0.9,1.5,2.3,1.5,3.6v7.1c0,0.3,0.1,0.6,0.2,0.9
		C856.8,955.4,857.1,955.5,857.4,955.5z M846.6,953.1c-0.1,0.8,0.3,1.5,0.8,2c0.7,0.5,1.5,0.8,2.3,0.7c1.3,0,2.5-0.5,3.3-1.5
		c0.9-1.1,1.4-2.4,1.3-3.8v-0.9l-5.2,0.9c-0.7,0.1-1.4,0.4-1.9,0.9C846.9,951.9,846.6,952.5,846.6,953.1L846.6,953.1z"/>
	<path class="st1" d="M862.9,957.1h-2v-20.4h2V957.1z"/>
	<path class="st1" d="M869.5,940h-2v-3.3h2V940z M869.5,957.1h-2v-14.5h2V957.1z"/>
	<path class="st1" d="M879.7,957.5c-1.8,0.1-3.5-0.7-4.7-2c-1.2-1.5-1.9-3.5-1.8-5.5c-0.1-2,0.5-4,1.8-5.6c1.2-1.4,2.9-2.2,4.7-2.1
		c2-0.1,3.8,0.9,4.9,2.5v-2.2h2v19.9h-2v-7.7C883.5,956.5,881.6,957.5,879.7,957.5z M875.2,949.8c-0.1,1.5,0.3,3,1.2,4.3
		c0.8,1,2,1.6,3.3,1.6c1.3,0,2.6-0.6,3.5-1.6c1.7-2.5,1.7-5.9,0-8.5c-0.8-1.1-2.1-1.7-3.5-1.6c-1.3-0.1-2.6,0.5-3.3,1.6
		C875.6,946.8,875.2,948.3,875.2,949.8z"/>
	<path class="st1" d="M900.8,942.6h2v14.5h-2v-1.9c-1.9,2.5-5.6,3-8.1,1c-0.1-0.1-0.2-0.2-0.3-0.3c-1-1.1-1.5-2.5-1.4-4v-9.4h2v9
		c-0.1,1.1,0.3,2.2,1,3c0.7,0.7,1.7,1.1,2.7,1.1c1.2,0.1,2.3-0.4,3.1-1.3c0.8-1.1,1.2-2.5,1.1-3.8L900.8,942.6z"/>
	<path class="st1" d="M919.1,955.5h0.8v1.7h-1.2c-0.7,0-1.3-0.2-1.8-0.6c-0.5-0.4-0.8-1-0.7-1.6v-0.1c-0.9,1.7-2.8,2.7-4.7,2.7
		c-1.3,0.1-2.6-0.4-3.7-1.2c-0.9-0.7-1.4-1.8-1.4-3c0-1.1,0.4-2.1,1.1-2.9c0.9-0.8,2-1.4,3.2-1.5l4.4-0.8c0.6,0,1-0.5,0.9-1.1
		c0,0,0,0,0-0.1c0-0.8-0.3-1.6-1-2.2c-0.7-0.6-1.7-0.9-2.6-0.8c-1.9-0.2-3.6,1.1-3.9,3l-1.9-0.3c0.2-1.3,0.9-2.4,1.9-3.2
		c1.1-0.8,2.5-1.3,4-1.2c1.5-0.1,2.9,0.4,4,1.3c1,0.9,1.5,2.3,1.5,3.6v7.1c0,0.3,0.1,0.6,0.2,0.9
		C918.5,955.4,918.8,955.5,919.1,955.5z M908.3,953.1c-0.1,0.8,0.3,1.5,0.8,2c0.7,0.5,1.5,0.8,2.3,0.7c1.3,0,2.5-0.5,3.3-1.5
		c0.9-1.1,1.4-2.4,1.3-3.8v-0.9l-5.2,0.9c-0.7,0.1-1.4,0.4-1.9,0.9C908.5,951.9,908.3,952.5,908.3,953.1z"/>
	<path class="st1" d="M934,949.2v7.9h-2v-9c0.1-1.1-0.3-2.1-0.9-3c-0.7-0.7-1.6-1.1-2.6-1.1c-1.2-0.1-2.3,0.4-3,1.3
		c-0.8,1.1-1.1,2.5-1,3.9v7.9h-2v-14.5h2v1.8c1-1.4,2.6-2.3,4.3-2.2c1,0,2,0.2,2.8,0.7c0.8,0.5,1.4,1.2,1.8,2
		c0.9-1.8,2.8-2.9,4.8-2.7c1.4-0.1,2.8,0.5,3.9,1.5c1,1.1,1.5,2.5,1.4,4v9.4h-2v-9c0.1-1.1-0.3-2.1-0.9-3c-0.6-0.8-1.6-1.2-2.6-1.1
		c-1.2-0.1-2.3,0.4-3,1.3C934.2,946.5,933.9,947.8,934,949.2z"/>
	<path class="st1" d="M94.6,990.8c2,0.2,3.8-1.3,4-3.3l1.9,0.3c-0.1,1.3-0.8,2.6-1.9,3.4c-1.2,0.9-2.6,1.3-4,1.3
		c-1.9,0.1-3.8-0.6-5.1-2c-1.3-1.6-1.9-3.6-1.8-5.7c-0.1-2,0.6-4,1.8-5.5c1.3-1.4,3.1-2.2,5-2.1c1.7-0.1,3.4,0.6,4.6,1.8
		c1.2,1.4,1.7,3.2,1.6,5v1.2h-11C89.9,989,91.5,990.8,94.6,990.8z M94.5,978.9c-1.2-0.1-2.4,0.4-3.2,1.2c-0.9,1-1.4,2.2-1.4,3.5h8.8
		C98.5,980.5,97.1,978.9,94.5,978.9z"/>
	<path class="st1" d="M106.5,992.1h-2v-14.5h2v2.8c0.7-1.7,2.4-2.9,4.3-2.8h1.1v1.9h-1.1c-1.3,0-2.5,0.7-3.1,1.8
		c-0.9,1.4-1.3,3-1.2,4.7L106.5,992.1z"/>
	<path class="st1" d="M126.2,990.5h0.8v1.7h-1.2c-0.7,0-1.3-0.2-1.8-0.6c-0.5-0.4-0.8-1-0.7-1.6v-0.1c-0.9,1.7-2.8,2.7-4.7,2.7
		c-1.3,0.1-2.6-0.4-3.7-1.2c-0.9-0.7-1.4-1.8-1.4-3c0-1.1,0.4-2.1,1.1-2.9c0.9-0.8,2-1.4,3.2-1.5l4.4-0.8c0.6,0,1-0.5,0.9-1.1
		c0,0,0,0,0-0.1c0-0.8-0.4-1.6-1-2.2c-0.7-0.6-1.7-0.9-2.6-0.8c-1.9-0.2-3.6,1.1-3.9,3l-1.9-0.3c0.2-1.3,0.9-2.4,1.9-3.2
		c1.2-0.8,2.6-1.3,4-1.2c1.5-0.1,2.9,0.4,4,1.3c1,0.9,1.5,2.3,1.4,3.6v7.1c0,0.3,0.1,0.6,0.2,0.9
		C125.6,990.4,125.9,990.5,126.2,990.5z M115.4,988.2c-0.1,0.8,0.3,1.5,0.8,2c0.7,0.5,1.5,0.8,2.3,0.7c1.3,0,2.5-0.5,3.3-1.5
		c0.9-1.1,1.4-2.4,1.3-3.8v-0.9l-5.2,0.9c-0.7,0.1-1.4,0.4-1.9,0.9C115.6,986.9,115.4,987.5,115.4,988.2z"/>
	<path class="st1" d="M127.8,979.3v-1.7h2.7v-4.8h2v4.8h3.9v1.7h-3.9v8.8c-0.1,0.6,0.1,1.3,0.4,1.8c0.4,0.4,1,0.6,1.6,0.5h2.3v1.7
		h-2.6c-1,0.1-2-0.3-2.8-1c-0.7-0.8-1.1-1.8-1-2.8v-9L127.8,979.3z"/>
	<path class="st1" d="M152.3,992.1h-2.1l-5.8-14.5h2.1l4.7,12.4l4.8-12.4h2.1L152.3,992.1z"/>
	<path class="st1" d="M159.7,984.9c-0.1-2,0.6-4,1.9-5.5c2.8-2.8,7.3-2.8,10.1,0c2.5,3.2,2.5,7.8,0,11c-2.8,2.8-7.3,2.8-10.1,0
		C160.3,988.8,159.6,986.9,159.7,984.9z M170.2,989.2c0.9-1.2,1.4-2.7,1.3-4.3c0.1-1.5-0.4-3.1-1.3-4.3c-0.9-1.1-2.2-1.6-3.6-1.6
		c-1.4-0.1-2.7,0.5-3.6,1.6c-0.9,1.2-1.4,2.8-1.3,4.3c-0.1,1.5,0.4,3.1,1.3,4.3c0.9,1.1,2.2,1.7,3.6,1.6
		C168,990.8,169.3,990.2,170.2,989.2L170.2,989.2z"/>
	<path class="st1" d="M179.2,992.1h-2v-20.4h2V992.1z"/>
	<path class="st1" d="M193.5,977.6h2v14.5h-2v-1.9c-2,2.5-5.6,3-8.1,1c-0.1-0.1-0.2-0.2-0.3-0.3c-1-1.1-1.5-2.5-1.4-4v-9.4h2v9
		c-0.1,1.1,0.3,2.2,1,3c0.7,0.7,1.7,1.1,2.7,1.1c1.2,0.1,2.3-0.4,3.1-1.3c0.8-1.1,1.2-2.5,1.1-3.8L193.5,977.6z"/>
	<path class="st1" d="M198.3,979.3v-1.7h2.7v-4.8h2v4.8h3.9v1.7H203v8.8c-0.1,0.6,0.1,1.3,0.4,1.8c0.4,0.4,1,0.6,1.6,0.5h2.3v1.7
		h-2.6c-1,0.1-2-0.3-2.8-1c-0.7-0.8-1.1-1.8-1-2.8v-9L198.3,979.3z"/>
	<path class="st1" d="M217,977.3c1.8-0.1,3.5,0.6,4.7,2c1.2,1.5,1.9,3.5,1.8,5.5c0.1,2-0.5,4-1.8,5.6c-1.2,1.4-2.9,2.2-4.7,2.1
		c-2,0.1-3.8-0.9-4.9-2.5v7.6h-2v-19.9h2v2.3C213.2,978.2,215,977.2,217,977.3z M221.4,984.9c0.1-1.5-0.3-3-1.2-4.3
		c-0.8-1-2-1.6-3.4-1.6c-1.3,0-2.6,0.5-3.5,1.6c-1.7,2.6-1.7,5.9,0,8.5c0.8,1.1,2.1,1.7,3.5,1.6c1.3,0.1,2.6-0.5,3.4-1.6
		C221.1,987.9,221.5,986.4,221.4,984.9z"/>
	<path class="st1" d="M238.8,990.5h0.8v1.7h-1.2c-0.7,0-1.3-0.2-1.8-0.6c-0.5-0.4-0.8-1-0.7-1.6v-0.1c-0.9,1.7-2.8,2.8-4.7,2.7
		c-1.3,0.1-2.6-0.4-3.6-1.2c-0.9-0.7-1.4-1.8-1.4-3c0-1.1,0.4-2.1,1.1-2.9c0.9-0.8,2-1.4,3.2-1.5l4.4-0.8c0.6,0,1-0.5,0.9-1.1
		c0,0,0,0,0-0.1c0-0.8-0.3-1.6-0.9-2.2c-0.7-0.6-1.7-0.9-2.6-0.8c-1.9-0.2-3.6,1.1-3.9,3l-1.9-0.3c0.2-1.3,0.9-2.4,1.9-3.2
		c1.1-0.8,2.5-1.3,3.9-1.2c1.5-0.1,2.9,0.4,4,1.3c1,0.9,1.5,2.3,1.5,3.6v7.1c0,0.3,0.1,0.6,0.2,0.9
		C238.3,990.4,238.6,990.5,238.8,990.5z M228.1,988.2c-0.1,0.8,0.3,1.5,0.8,2c0.7,0.5,1.5,0.8,2.3,0.7c1.3,0,2.5-0.5,3.3-1.5
		c0.9-1.1,1.4-2.4,1.3-3.8v-0.9l-5.2,0.9c-0.7,0.1-1.4,0.4-1.9,0.9C228.3,986.9,228.1,987.5,228.1,988.2z"/>
	<path class="st1" d="M240.5,979.3v-1.7h2.7v-4.8h2v4.8h3.9v1.7h-3.9v8.8c-0.1,0.6,0.1,1.3,0.4,1.8c0.4,0.4,1,0.6,1.6,0.5h2.3v1.7
		h-2.6c-1,0.1-2-0.3-2.8-1c-0.7-0.8-1.1-1.8-1-2.8v-9L240.5,979.3z"/>
	<path class="st1" d="M252,989.3h2.7v2.8H252V989.3z"/>
	<path class="st1" d="M278.6,984.7v-13h2.1v13c0.1,2.1-0.7,4.1-2.1,5.7c-1.4,1.5-3.4,2.2-5.5,2.1c-2.1,0.1-4-0.7-5.5-2.1
		c-1.4-1.5-2.2-3.6-2.1-5.7v-13h2.1v13c-0.1,1.6,0.5,3.1,1.5,4.3c1,1.1,2.5,1.7,4,1.6c1.5,0.1,2.9-0.5,4-1.6
		C278.2,987.8,278.7,986.2,278.6,984.7z"/>
	<path class="st1" d="M283.9,979.3v-1.7h2.7v-4.8h2v4.8h3.9v1.7h-3.9v8.8c-0.1,0.6,0.1,1.3,0.5,1.8c0.4,0.4,1,0.6,1.6,0.5h2.3v1.7
		h-2.5c-1,0.1-2-0.3-2.8-1c-0.7-0.8-1.1-1.8-1-2.8v-9L283.9,979.3z"/>
	<path class="st1" d="M307.8,992.1h-1.9l-4.8-14.5h2l3.7,11.8l3.6-11.8h1.9l3.5,11.8l3.7-11.8h2l-4.8,14.5h-1.9l-3.6-11.7
		L307.8,992.1z"/>
	<path class="st1" d="M326.5,975h-2v-3.3h2V975z M326.5,992.1h-2v-14.5h2V992.1z"/>
	<path class="st1" d="M336.1,992.5c-1.6,0.1-3.1-0.4-4.3-1.3c-1.1-0.8-1.7-2.1-1.8-3.5l2-0.3c0.1,1,0.5,2,1.2,2.7
		c0.8,0.6,1.9,0.9,2.9,0.8c0.9,0.1,1.8-0.2,2.6-0.7c0.6-0.5,0.9-1.3,0.9-2.1c0-1.3-1-2-2.9-2.4l-2-0.3c-2.8-0.5-4.2-1.8-4.2-4
		c0-1.1,0.5-2.2,1.4-2.9c2.3-1.5,5.3-1.5,7.6,0c1,0.8,1.7,2,1.8,3.3l-1.8,0.3c-0.2-0.9-0.6-1.8-1.3-2.4c-0.7-0.5-1.6-0.8-2.5-0.7
		c-0.9,0-1.7,0.2-2.4,0.6c-0.9,0.7-1.2,2-0.5,2.9c0.1,0.1,0.1,0.2,0.2,0.3c0.6,0.4,1.2,0.7,1.9,0.8l2.3,0.4c2.9,0.5,4.4,1.8,4.4,4.1
		c0,1.3-0.5,2.5-1.5,3.3C339,992.1,337.5,992.6,336.1,992.5z"/>
	<path class="st1" d="M347.1,975h-2v-3.3h2V975z M347.1,992.1h-2v-14.5h2V992.1z"/>
	<path class="st1" d="M364.7,990.8c2,0.2,3.8-1.3,4-3.3l1.9,0.3c-0.1,1.3-0.8,2.6-1.9,3.4c-1.2,0.9-2.6,1.3-4,1.3
		c-1.9,0.1-3.8-0.6-5.1-2c-1.3-1.6-1.9-3.6-1.8-5.7c-0.1-2,0.6-4,1.8-5.5c1.3-1.4,3.1-2.2,5-2.1c1.7-0.1,3.4,0.6,4.6,1.8
		c1.2,1.4,1.7,3.2,1.6,5v1.2h-11C360,989,361.6,990.8,364.7,990.8z M364.6,978.9c-1.2-0.1-2.4,0.4-3.2,1.2c-0.9,1-1.4,2.2-1.4,3.5
		h8.8C368.6,980.5,367.2,978.9,364.6,978.9z"/>
	<path class="st1" d="M386.6,982.7v9.4h-2v-9c0.1-1.1-0.3-2.2-1-3c-0.7-0.8-1.8-1.1-2.8-1.1c-1.2-0.1-2.4,0.4-3.2,1.3
		c-0.8,1.1-1.2,2.5-1.1,3.9v7.9h-2v-14.5h2v1.9c1-1.5,2.8-2.4,4.6-2.3c2.7-0.3,5.2,1.7,5.5,4.5C386.6,982.1,386.6,982.4,386.6,982.7
		L386.6,982.7z"/>
	<path class="st1" d="M393.1,975h-2v-3.3h2V975z M393.1,992.1h-2v-14.5h2V992.1z"/>
	<path class="st1" d="M409.2,984.2v7.9h-2v-9c0.1-1.1-0.3-2.1-0.9-3c-0.6-0.7-1.6-1.1-2.6-1.1c-1.2-0.1-2.3,0.4-3,1.3
		c-0.8,1.1-1.1,2.5-1,3.9v7.9h-2v-14.5h2v1.8c1-1.4,2.6-2.3,4.4-2.2c1,0,2,0.2,2.9,0.7c0.8,0.5,1.4,1.2,1.8,2
		c0.9-1.8,2.8-2.9,4.8-2.7c1.4-0.1,2.8,0.5,3.9,1.5c1,1.1,1.5,2.5,1.4,4v9.4h-2v-9c0.1-1.1-0.3-2.1-0.9-3c-0.7-0.7-1.6-1.1-2.6-1.1
		c-1.2-0.1-2.3,0.4-3,1.3C409.5,981.5,409.1,982.9,409.2,984.2z"/>
	<path class="st1" d="M441.8,990.5h0.8v1.7h-1.2c-0.7,0-1.3-0.2-1.8-0.6c-0.5-0.4-0.8-1-0.7-1.6v-0.1c-0.9,1.7-2.8,2.7-4.7,2.7
		c-1.3,0.1-2.6-0.4-3.6-1.2c-0.9-0.7-1.4-1.8-1.4-3c0-1.1,0.4-2.1,1.1-2.9c0.9-0.8,2-1.4,3.2-1.5l4.4-0.8c0.6,0,1-0.5,0.9-1.1
		c0,0,0,0,0-0.1c0-0.8-0.3-1.6-1-2.2c-0.7-0.6-1.7-0.9-2.6-0.8c-1.9-0.2-3.6,1.1-3.9,3l-1.9-0.3c0.2-1.3,0.9-2.4,1.9-3.2
		c1.1-0.8,2.5-1.3,3.9-1.2c1.5-0.1,2.9,0.4,4,1.3c1,0.9,1.5,2.3,1.5,3.6v7.1c0,0.3,0.1,0.6,0.2,0.9
		C441.2,990.4,441.5,990.5,441.8,990.5z M431.1,988.2c0,0.8,0.3,1.5,0.8,2c0.7,0.5,1.5,0.8,2.3,0.7c1.3,0,2.5-0.5,3.3-1.5
		c0.9-1.1,1.4-2.4,1.3-3.8v-0.9l-5.2,0.9c-0.7,0.1-1.4,0.4-1.9,0.9C431.3,986.9,431.1,987.5,431.1,988.2z"/>
	<path class="st1" d="M450.8,992.5c-1.8,0.1-3.5-0.7-4.7-2c-1.2-1.5-1.9-3.5-1.8-5.5c-0.1-2,0.5-4,1.8-5.6c1.2-1.4,2.9-2.2,4.7-2.1
		c2-0.1,3.8,0.9,4.9,2.5v-8.1h2v20.4h-2v-2.3C454.7,991.5,452.8,992.5,450.8,992.5z M446.4,984.9c-0.1,1.5,0.3,3,1.2,4.3
		c0.8,1,2,1.6,3.4,1.6c1.3,0,2.6-0.6,3.5-1.6c1.7-2.5,1.7-5.9,0-8.5c-0.8-1.1-2.1-1.7-3.4-1.7c-1.3-0.1-2.6,0.5-3.4,1.6
		C446.8,981.8,446.3,983.3,446.4,984.9z"/>
	<path class="st1" d="M480.8,984.2v7.9h-2v-9c0.1-1.1-0.3-2.1-0.9-3c-0.6-0.7-1.6-1.1-2.6-1.1c-1.2-0.1-2.3,0.4-3,1.3
		c-0.8,1.1-1.1,2.5-1,3.9v7.9h-2v-14.5h2v1.8c1-1.4,2.6-2.3,4.3-2.2c1,0,2,0.2,2.9,0.7c0.8,0.5,1.4,1.2,1.8,2
		c0.9-1.8,2.8-2.9,4.8-2.7c1.4-0.1,2.8,0.4,3.9,1.5c1,1.1,1.5,2.5,1.4,4v9.4h-2v-9c0.1-1.1-0.3-2.1-0.9-3c-0.7-0.7-1.6-1.1-2.6-1.1
		c-1.2-0.1-2.3,0.4-3,1.3C481.1,981.5,480.7,982.9,480.8,984.2z"/>
	<path class="st1" d="M496.8,975h-2v-3.3h2V975z M496.8,992.1h-2v-14.5h2V992.1z"/>
	<path class="st1" d="M513.5,982.7v9.4h-2v-9c0.1-1.1-0.3-2.2-1-3c-0.7-0.7-1.8-1.1-2.8-1.1c-1.2-0.1-2.4,0.4-3.2,1.3
		c-0.8,1.1-1.2,2.5-1.1,3.9v7.9h-2v-14.5h2v1.9c1-1.5,2.8-2.4,4.6-2.3c2.7-0.3,5.2,1.7,5.5,4.5C513.6,982.1,513.6,982.4,513.5,982.7
		L513.5,982.7z"/>
	<path class="st1" d="M520,975h-2v-3.3h2V975z M520,992.1h-2v-14.5h2V992.1z"/>
	<path class="st1" d="M536.2,984.2v7.9h-2v-9c0.1-1.1-0.3-2.1-0.9-3c-0.6-0.7-1.6-1.1-2.6-1.1c-1.2-0.1-2.3,0.4-3,1.3
		c-0.8,1.1-1.1,2.5-1,3.9v7.9h-2v-14.5h2v1.8c1-1.4,2.6-2.3,4.3-2.2c1,0,2,0.2,2.8,0.7c0.8,0.5,1.4,1.2,1.8,2
		c0.9-1.8,2.8-2.9,4.8-2.7c1.4-0.1,2.8,0.4,3.9,1.5c1,1.1,1.5,2.5,1.4,4v9.4h-2v-9c0.1-1.1-0.3-2.1-0.9-3c-0.7-0.7-1.6-1.1-2.6-1.1
		c-1.2-0.1-2.3,0.4-3,1.3C536.4,981.5,536.1,982.9,536.2,984.2z"/>
	<path class="st1" d="M562.8,992.1h-2.1l-5.8-14.5h2.1l4.8,12.4l4.8-12.4h2.1L562.8,992.1z"/>
	<path class="st1" d="M577.1,990.8c2,0.2,3.8-1.3,4-3.3l1.9,0.3c-0.1,1.4-0.8,2.6-1.9,3.4c-1.2,0.9-2.6,1.3-4,1.3
		c-1.9,0.1-3.8-0.6-5.1-2c-1.3-1.6-1.9-3.6-1.8-5.7c-0.1-2,0.6-4,1.8-5.5c1.3-1.4,3.1-2.2,5-2.1c1.7-0.1,3.4,0.6,4.6,1.8
		c1.2,1.4,1.7,3.2,1.6,5v1.2h-11C572.4,989,574,990.8,577.1,990.8z M577,978.9c-1.2-0.1-2.4,0.4-3.2,1.2c-0.9,1-1.4,2.2-1.4,3.5h8.8
		C581,980.5,579.6,978.9,577,978.9z"/>
	<path class="st1" d="M599,982.7v9.4h-2v-9c0.1-1.1-0.3-2.2-1-3c-0.7-0.7-1.8-1.1-2.8-1.1c-1.2-0.1-2.4,0.4-3.2,1.3
		c-0.8,1.1-1.2,2.5-1.1,3.9v7.9h-2v-14.5h2v1.9c1-1.5,2.8-2.4,4.7-2.3c2.7-0.3,5.2,1.8,5.5,4.5C599,982.1,599,982.5,599,982.7
		L599,982.7z"/>
	<path class="st1" d="M605.5,975h-2v-3.3h2V975z M605.5,992.1h-2v-14.5h2V992.1z"/>
	<path class="st1" d="M621.8,990.5h0.8v1.7h-1.2c-0.7,0-1.3-0.2-1.8-0.6c-0.5-0.4-0.8-1-0.7-1.6v-0.1c-0.9,1.7-2.8,2.8-4.7,2.7
		c-1.3,0.1-2.6-0.4-3.6-1.2c-0.9-0.7-1.4-1.8-1.4-3c0-1.1,0.4-2.1,1.1-2.9c0.9-0.8,2-1.4,3.2-1.5l4.4-0.8c0.6,0,1-0.5,0.9-1.1
		c0,0,0,0,0-0.1c0-0.8-0.3-1.6-1-2.2c-0.7-0.6-1.7-0.9-2.6-0.8c-1.9-0.2-3.6,1.1-3.9,3l-1.9-0.3c0.2-1.3,0.9-2.4,1.9-3.2
		c1.1-0.8,2.5-1.3,4-1.2c1.5-0.1,2.9,0.4,4,1.3c1,0.9,1.5,2.3,1.5,3.6v7.1c0,0.3,0.1,0.6,0.2,0.9
		C621.2,990.4,621.5,990.5,621.8,990.5z M611,988.2c-0.1,0.8,0.3,1.5,0.8,2c0.7,0.5,1.5,0.8,2.3,0.7c1.3,0,2.5-0.5,3.3-1.5
		c0.9-1.1,1.4-2.4,1.3-3.8v-0.9l-5.2,0.9c-0.7,0.1-1.4,0.4-1.9,0.9C611.2,986.9,611,987.5,611,988.2z"/>
	<path class="st1" d="M636.7,984.2v7.9h-2v-9c0.1-1.1-0.3-2.1-0.9-3c-0.7-0.7-1.6-1.1-2.6-1.1c-1.2-0.1-2.3,0.4-3,1.3
		c-0.8,1.1-1.1,2.5-1,3.9v7.9h-2v-14.5h2v1.8c1-1.4,2.6-2.3,4.3-2.2c1,0,2,0.2,2.8,0.7c0.8,0.5,1.4,1.2,1.8,2
		c0.9-1.8,2.8-2.9,4.8-2.7c1.4-0.1,2.8,0.5,3.9,1.5c1,1.1,1.5,2.5,1.4,4v9.4h-2v-9c0.1-1.1-0.3-2.1-0.9-3c-0.7-0.7-1.6-1.1-2.6-1.1
		c-1.2-0.1-2.3,0.4-3,1.3C637,981.5,636.7,982.9,636.7,984.2z"/>
	<path class="st1" d="M651,995.8h-1.9l1.7-6.5h2L651,995.8z"/>
	<path class="st1" d="M668.9,992.5c-1.8,0.1-3.5-0.7-4.7-2c-1.2-1.5-1.9-3.5-1.8-5.5c-0.1-2,0.5-4,1.8-5.6c1.2-1.4,2.9-2.2,4.7-2.1
		c2-0.1,3.8,0.9,4.9,2.5v-2.2h2v19.9h-2v-7.7C672.7,991.5,670.8,992.5,668.9,992.5z M664.4,984.9c-0.1,1.5,0.4,3,1.2,4.3
		c0.8,1,2,1.6,3.3,1.6c1.4,0,2.6-0.6,3.5-1.6c1.7-2.6,1.7-5.9,0-8.5c-0.8-1.1-2.1-1.7-3.5-1.7c-1.3-0.1-2.5,0.5-3.3,1.6
		C664.8,981.8,664.3,983.3,664.4,984.9z"/>
	<path class="st1" d="M690,977.6h2v14.5h-2v-1.9c-1,1.5-2.7,2.3-4.5,2.2c-1.4,0.1-2.9-0.5-3.9-1.5c-1-1.1-1.5-2.5-1.4-4v-9.4h2v9
		c-0.1,1.1,0.3,2.2,1,3c0.7,0.7,1.7,1.1,2.7,1.1c1.2,0.1,2.3-0.4,3.1-1.3c0.8-1.1,1.2-2.5,1.1-3.8L690,977.6z"/>
	<path class="st1" d="M698.6,975h-2v-3.3h2V975z M698.6,992.1h-2v-14.5h2V992.1z"/>
	<path class="st1" d="M708.2,992.5c-1.6,0.1-3.1-0.4-4.3-1.3c-1.1-0.9-1.7-2.1-1.8-3.5l2-0.3c0.1,1,0.5,2,1.2,2.7
		c0.8,0.6,1.9,0.9,2.9,0.8c0.9,0.1,1.8-0.2,2.6-0.7c0.6-0.5,0.9-1.3,0.9-2.1c0-1.3-1-2-2.9-2.4l-2-0.3c-2.8-0.5-4.2-1.8-4.2-4
		c0-1.1,0.5-2.2,1.5-2.9c2.3-1.5,5.3-1.5,7.6,0c1,0.8,1.7,2,1.8,3.3l-1.8,0.3c-0.2-0.9-0.6-1.8-1.3-2.4c-0.7-0.5-1.6-0.8-2.5-0.7
		c-0.9,0-1.7,0.2-2.4,0.6c-0.6,0.4-0.9,1-0.9,1.7c0,0.6,0.2,1.1,0.6,1.5c0.6,0.4,1.2,0.7,1.9,0.8l2.3,0.4c2.9,0.5,4.3,1.8,4.3,4.1
		c0,1.3-0.5,2.5-1.5,3.3C711,992.1,709.6,992.5,708.2,992.5z"/>
	<path class="st1" d="M736.3,982.7v9.4h-2v-9c0.1-1.1-0.3-2.2-1-3c-0.7-0.8-1.7-1.2-2.8-1.1c-1.2-0.1-2.4,0.4-3.2,1.3
		c-0.8,1.1-1.2,2.5-1.1,3.9v7.9h-2v-14.5h2v1.9c1-1.5,2.8-2.4,4.7-2.3c2.7-0.3,5.2,1.7,5.5,4.5C736.3,982.1,736.3,982.4,736.3,982.7
		L736.3,982.7z"/>
	<path class="st1" d="M739.8,984.9c-0.1-2,0.6-4,1.9-5.5c2.8-2.8,7.3-2.8,10.1,0c2.5,3.2,2.5,7.8,0,11c-2.8,2.8-7.3,2.8-10.1,0
		C740.4,988.8,739.7,986.9,739.8,984.9z M750.3,989.2c0.9-1.2,1.4-2.7,1.3-4.3c0.1-1.5-0.4-3.1-1.3-4.3c-1.8-2-4.8-2.1-6.8-0.4
		c-0.1,0.1-0.2,0.2-0.4,0.4c-1.7,2.6-1.7,6,0,8.6c1.8,2,4.8,2.1,6.8,0.4C750.1,989.4,750.2,989.3,750.3,989.2L750.3,989.2z"/>
	<path class="st1" d="M762.2,992.5c-1.6,0.1-3.1-0.4-4.3-1.3c-1.1-0.9-1.7-2.1-1.8-3.5l2-0.3c0.1,1,0.5,1.9,1.2,2.7
		c0.8,0.6,1.9,0.9,2.9,0.8c0.9,0.1,1.8-0.2,2.6-0.7c0.6-0.5,0.9-1.3,0.9-2.1c0-1.3-1-2-2.9-2.4l-2-0.3c-2.8-0.5-4.2-1.8-4.2-4
		c0-1.1,0.5-2.2,1.5-2.9c2.3-1.5,5.3-1.5,7.6,0c1,0.8,1.7,2,1.8,3.3l-1.8,0.3c-0.2-0.9-0.6-1.8-1.3-2.4c-0.7-0.5-1.6-0.8-2.5-0.7
		c-0.9,0-1.7,0.2-2.4,0.6c-0.6,0.4-0.9,1-0.9,1.7c0,0.6,0.2,1.1,0.6,1.5c0.6,0.4,1.2,0.7,1.9,0.8l2.3,0.4c2.9,0.5,4.3,1.8,4.3,4.1
		c0,1.3-0.5,2.5-1.5,3.3C765.1,992.1,763.7,992.6,762.2,992.5z"/>
	<path class="st1" d="M769.3,979.3v-1.7h2.7v-4.8h2v4.8h3.9v1.7h-3.9v8.8c-0.1,0.6,0.1,1.3,0.4,1.8c0.4,0.4,1,0.6,1.6,0.5h2.3v1.7
		h-2.5c-1,0.1-2-0.3-2.8-1c-0.7-0.8-1.1-1.8-1-2.8v-9L769.3,979.3z"/>
	<path class="st1" d="M783.1,992.1h-2v-14.5h2v2.8c0.7-1.7,2.4-2.9,4.3-2.8h1.1v1.9h-1.1c-1.3,0-2.5,0.7-3.1,1.8
		c-0.9,1.4-1.3,3-1.2,4.7V992.1z"/>
	<path class="st1" d="M801,977.6h2v14.5h-2v-1.9c-1,1.5-2.7,2.3-4.5,2.2c-1.4,0.1-2.9-0.5-3.9-1.5c-1-1.1-1.5-2.5-1.4-4v-9.4h2v9
		c-0.1,1.1,0.3,2.2,0.9,3c0.7,0.7,1.7,1.1,2.7,1.1c1.2,0.1,2.4-0.4,3.2-1.3c0.8-1.1,1.2-2.5,1.1-3.8L801,977.6z"/>
	<path class="st1" d="M813.2,992.5c-1.8,0.1-3.5-0.7-4.7-2c-1.2-1.5-1.9-3.5-1.8-5.5c-0.1-2,0.5-4,1.8-5.6c1.2-1.4,2.9-2.2,4.7-2.1
		c2-0.1,3.8,0.9,4.9,2.5v-8.1h2v20.4h-2v-2.3C817,991.5,815.1,992.5,813.2,992.5z M808.7,984.9c-0.1,1.5,0.3,3,1.2,4.3
		c0.8,1,2,1.6,3.3,1.6c1.3,0,2.6-0.6,3.5-1.6c1.7-2.5,1.7-5.9,0-8.5c-0.8-1.1-2.1-1.7-3.5-1.6c-1.3-0.1-2.6,0.5-3.3,1.6
		C809.1,981.8,808.7,983.3,808.7,984.9z"/>
	<path class="st1" d="M837.6,990.8c2,0.2,3.8-1.3,4-3.3l1.9,0.3c-0.1,1.3-0.8,2.6-1.9,3.4c-1.2,0.9-2.6,1.3-4,1.3
		c-1.9,0.1-3.8-0.6-5.1-2c-1.3-1.6-1.9-3.6-1.8-5.7c-0.1-2,0.6-4,1.8-5.5c1.3-1.4,3.1-2.2,5-2.1c1.7-0.1,3.4,0.6,4.6,1.8
		c1.2,1.4,1.7,3.2,1.6,5v1.2h-11C832.9,989,834.5,990.8,837.6,990.8z M837.5,978.9c-1.2-0.1-2.4,0.4-3.2,1.2c-0.9,1-1.4,2.2-1.4,3.5
		h8.8C841.5,980.5,840.1,978.9,837.5,978.9L837.5,978.9z"/>
	<path class="st1" d="M845,992.1l5.6-7.3l-5.4-7.2h2.3l4.3,5.8l4.4-5.8h2.2l-5.4,7.1l5.6,7.4h-2.3l-4.5-6l-4.5,6H845z"/>
	<path class="st1" d="M866.8,990.8c2,0.2,3.8-1.3,4-3.3l1.9,0.3c-0.1,1.3-0.8,2.6-1.9,3.4c-1.2,0.9-2.6,1.3-4,1.3
		c-1.9,0.1-3.8-0.6-5.1-2c-1.3-1.6-1.9-3.6-1.8-5.7c-0.1-2,0.6-4,1.8-5.5c1.3-1.4,3.1-2.2,5-2.1c1.7-0.1,3.4,0.6,4.6,1.8
		c1.2,1.4,1.7,3.2,1.6,5v1.2h-11C862.1,989,863.7,990.8,866.8,990.8z M866.7,978.9c-1.2-0.1-2.4,0.4-3.2,1.2c-0.9,1-1.4,2.2-1.4,3.5
		h8.8C870.7,980.5,869.3,978.9,866.7,978.9L866.7,978.9z"/>
	<path class="st1" d="M878.6,992.1h-2v-14.5h2v2.8c0.7-1.7,2.4-2.9,4.3-2.8h1v1.9h-1c-1.3,0-2.5,0.7-3.1,1.8c-0.9,1.4-1.3,3-1.2,4.7
		L878.6,992.1z"/>
	<path class="st1" d="M892.2,990.8c1.1,0.1,2.1-0.3,2.9-1c0.8-0.8,1.2-1.8,1.3-2.8l2,0.2c-0.1,1.5-0.8,2.9-1.9,3.9
		c-2.7,2.2-6.7,1.9-9.1-0.5c-1.3-1.6-1.9-3.5-1.8-5.5c-0.1-2,0.5-4,1.8-5.6c1.2-1.4,3-2.2,4.9-2.1c1.5-0.1,3,0.4,4.2,1.4
		c1.1,1,1.9,2.3,2,3.8l-2.1,0.2c-0.4-2.5-1.8-3.8-4.2-3.8c-1.3-0.1-2.6,0.5-3.4,1.6c-0.9,1.3-1.3,2.8-1.2,4.4
		c-0.1,1.5,0.3,3,1.2,4.3C889.7,990.2,891,990.8,892.2,990.8z"/>
	<path class="st1" d="M903.9,975h-2v-3.3h2V975z M903.9,992.1h-2v-14.5h2V992.1z"/>
	<path class="st1" d="M913.3,979.3v-1.7h2.7v-4.8h2v4.8h3.9v1.7H918v8.8c-0.1,0.6,0.1,1.3,0.5,1.8c0.4,0.4,1,0.6,1.6,0.5h2.3v1.7
		h-2.5c-1,0.1-2-0.3-2.8-1c-0.7-0.8-1.1-1.8-1-2.8v-9L913.3,979.3z"/>
	<path class="st1" d="M936.8,990.5h0.8v1.7h-1.2c-0.7,0-1.3-0.2-1.8-0.6c-0.5-0.4-0.8-1-0.7-1.6v-0.1c-0.9,1.7-2.8,2.7-4.7,2.7
		c-1.3,0.1-2.6-0.4-3.7-1.2c-0.9-0.7-1.4-1.8-1.4-3c0-1.1,0.4-2.1,1.1-2.9c0.9-0.8,2-1.4,3.2-1.5l4.4-0.8c0.6,0,1-0.5,0.9-1.1
		c0,0,0,0,0-0.1c0-0.8-0.3-1.6-1-2.2c-0.7-0.6-1.7-0.9-2.6-0.8c-1.9-0.2-3.6,1.1-3.9,3l-1.9-0.3c0.2-1.3,0.9-2.4,1.9-3.2
		c1.1-0.8,2.5-1.3,3.9-1.2c1.5-0.1,2.9,0.4,4,1.3c1,0.9,1.5,2.3,1.5,3.6v7.1c0,0.3,0.1,0.6,0.2,0.9
		C936.2,990.4,936.5,990.5,936.8,990.5z M926,988.2c0,0.8,0.3,1.5,0.8,2c0.7,0.5,1.5,0.8,2.3,0.7c1.3,0,2.5-0.5,3.3-1.5
		c0.9-1.1,1.4-2.4,1.3-3.8v-0.9l-5.2,0.9c-0.7,0.1-1.4,0.4-1.9,0.9C926.2,986.9,926,987.5,926,988.2z"/>
	<path class="st1" d="M938.4,979.3v-1.7h2.7v-4.8h2v4.8h3.9v1.7h-3.9v8.8c-0.1,0.6,0.1,1.3,0.5,1.8c0.4,0.4,1,0.6,1.6,0.5h2.3v1.7
		h-2.5c-1,0.1-2-0.3-2.8-1c-0.7-0.8-1.1-1.8-1-2.8v-9L938.4,979.3z"/>
	<path class="st1" d="M952.2,975h-2v-3.3h2V975z M952.2,992.1h-2v-14.5h2V992.1z"/>
	<path class="st1" d="M955.9,984.9c-0.1-2,0.6-4,1.9-5.5c2.8-2.8,7.3-2.8,10.1,0c2.5,3.2,2.5,7.8,0,11c-2.8,2.8-7.3,2.8-10.1,0
		C956.5,988.8,955.8,986.9,955.9,984.9z M966.4,989.2c0.9-1.2,1.4-2.7,1.3-4.3c0.1-1.5-0.4-3.1-1.3-4.3c-1.8-2-4.8-2.1-6.8-0.4
		c-0.1,0.1-0.2,0.2-0.4,0.4c-1.7,2.6-1.7,6,0,8.6c1.8,2,4.8,2.1,6.8,0.4C966.2,989.4,966.3,989.3,966.4,989.2L966.4,989.2z"/>
	<path class="st1" d="M985.5,982.7v9.4h-2v-9c0.1-1.1-0.3-2.2-1-3c-0.7-0.7-1.8-1.1-2.8-1.1c-1.2-0.1-2.4,0.4-3.2,1.3
		c-0.8,1.1-1.2,2.5-1.1,3.9v7.9h-2v-14.5h2v1.9c1-1.5,2.8-2.4,4.7-2.3c2.7-0.3,5.2,1.8,5.5,4.5C985.5,982.1,985.5,982.5,985.5,982.7
		L985.5,982.7z"/>
	
		<linearGradient id="SVGID_1_" gradientUnits="userSpaceOnUse" x1="15363.3496" y1="-15234.4502" x2="15363.3496" y2="-14154.4502" gradientTransform="matrix(6.123234e-17 -1 -1 -6.123234e-17 -14154.4502 15449.7197)">
		<stop  offset="0" style="stop-color:#FFFFFF;stop-opacity:0"/>
		<stop  offset="0.51" style="stop-color:#FFFFFF"/>
		<stop  offset="1" style="stop-color:#FFFFFF;stop-opacity:0"/>
	</linearGradient>
	<rect y="85.9" class="st3" width="1080" height="1"/>
	
		<linearGradient id="SVGID_2_" gradientUnits="userSpaceOnUse" x1="14456.0898" y1="-15234.4502" x2="14456.0898" y2="-14154.4502" gradientTransform="matrix(6.123234e-17 -1 -1 -6.123234e-17 -14154.4502 15449.7197)">
		<stop  offset="0" style="stop-color:#FFFFFF;stop-opacity:0"/>
		<stop  offset="0.51" style="stop-color:#FFFFFF"/>
		<stop  offset="1" style="stop-color:#FFFFFF;stop-opacity:0"/>
	</linearGradient>
	<rect y="993.1" class="st4" width="1080" height="1"/>
	
		<linearGradient id="SVGID_3_" gradientUnits="userSpaceOnUse" x1="14744.9395" y1="-15234.4502" x2="14744.9395" y2="-14154.4502" gradientTransform="matrix(6.123234e-17 -1 -1 -6.123234e-17 -14154.4502 15449.7197)">
		<stop  offset="0" style="stop-color:#FFFFFF;stop-opacity:0"/>
		<stop  offset="1" style="stop-color:#FFFFFF"/>
	</linearGradient>
	<rect y="704.3" class="st5" width="1080" height="1"/>
	
		<linearGradient id="SVGID_4_" gradientUnits="userSpaceOnUse" x1="14709.9199" y1="-15234.4502" x2="14709.9199" y2="-14154.4502" gradientTransform="matrix(6.123234e-17 -1 -1 -6.123234e-17 -14154.4502 15449.7197)">
		<stop  offset="0" style="stop-color:#FFFFFF;stop-opacity:0"/>
		<stop  offset="1" style="stop-color:#FFFFFF"/>
	</linearGradient>
	<rect y="739.3" class="st6" width="1080" height="1"/>
	
		<linearGradient id="SVGID_5_" gradientUnits="userSpaceOnUse" x1="14622.0996" y1="-15234.4502" x2="14622.0996" y2="-14154.4502" gradientTransform="matrix(6.123234e-17 -1 -1 -6.123234e-17 -14154.4502 15449.7197)">
		<stop  offset="0" style="stop-color:#FFFFFF;stop-opacity:0"/>
		<stop  offset="1" style="stop-color:#FFFFFF"/>
	</linearGradient>
	<rect y="827.1" class="st7" width="1080" height="1"/>
	
		<linearGradient id="SVGID_6_" gradientUnits="userSpaceOnUse" x1="14831.3301" y1="-15234.4502" x2="14831.3301" y2="-14154.4502" gradientTransform="matrix(6.123234e-17 -1 -1 -6.123234e-17 -14154.4502 15449.7197)">
		<stop  offset="0" style="stop-color:#FFFFFF;stop-opacity:0"/>
		<stop  offset="1" style="stop-color:#FFFFFF"/>
	</linearGradient>
	<rect y="617.9" class="st8" width="1080" height="1"/>
	
		<linearGradient id="SVGID_7_" gradientUnits="userSpaceOnUse" x1="14788.1094" y1="-15234.4502" x2="14788.1094" y2="-14154.4502" gradientTransform="matrix(6.123234e-17 -1 -1 -6.123234e-17 -14154.4502 15449.7197)">
		<stop  offset="0" style="stop-color:#FFFFFF;stop-opacity:0"/>
		<stop  offset="1" style="stop-color:#FFFFFF"/>
	</linearGradient>
	<rect y="661.1" class="st9" width="1080" height="1"/>
	
		<linearGradient id="SVGID_8_" gradientUnits="userSpaceOnUse" x1="21411.3516" y1="-5154.4399" x2="21411.3516" y2="-4074.4399" gradientTransform="matrix(1 0 0 -1 -20417.7207 -4074.4399)">
		<stop  offset="0" style="stop-color:#FFFFFF;stop-opacity:0"/>
		<stop  offset="0.51" style="stop-color:#FFFFFF"/>
		<stop  offset="1" style="stop-color:#FFFFFF;stop-opacity:0"/>
	</linearGradient>
	<rect x="993.1" class="st10" width="1" height="1080"/>
	<rect x="993.6" class="st2" width="86.4" height="21.6"/>
	<rect x="993.6" y="64.8" class="st2" width="86.4" height="21.6"/>
	
		<rect x="989.7" y="32.4" transform="matrix(0.7721 -0.6355 0.6355 0.7721 208.8778 668.7313)" class="st2" width="94.1" height="21.6"/>
	
		<linearGradient id="SVGID_9_" gradientUnits="userSpaceOnUse" x1="20504.0898" y1="-5154.4399" x2="20504.0898" y2="-4074.4399" gradientTransform="matrix(1 0 0 -1 -20417.7207 -4074.4399)">
		<stop  offset="0" style="stop-color:#FFFFFF;stop-opacity:0"/>
		<stop  offset="0.51" style="stop-color:#FFFFFF"/>
		<stop  offset="1" style="stop-color:#FFFFFF;stop-opacity:0"/>
	</linearGradient>
	<rect x="85.9" class="st11" width="1" height="1080"/>
</g>
</svg>
