<svg xmlns="http://www.w3.org/2000/svg" xmlns:xlink="http://www.w3.org/1999/xlink" viewBox="0 0 1080 1920"><defs><style>.cls-1{fill:url(#linear-gradient);}.cls-2{fill:url(#linear-gradient-2);}.cls-3{fill:url(#linear-gradient-3);}.cls-4{fill:url(#linear-gradient-4);}.cls-5{fill:url(#linear-gradient-5);}.cls-6{fill:#fff;}.cls-7{fill:#4672e2;}.cls-8{fill:#082b96;}</style><linearGradient id="linear-gradient" x1="21667.72" y1="6654.45" x2="21667.72" y2="5574.45" gradientTransform="translate(-5574.45 21917.72) rotate(-90)" gradientUnits="userSpaceOnUse"><stop offset="0" stop-color="#fff" stop-opacity="0"/><stop offset="0.51" stop-color="#fff"/><stop offset="1" stop-color="#fff" stop-opacity="0"/></linearGradient><linearGradient id="linear-gradient-2" x1="20247.72" y1="6654.45" x2="20247.72" y2="5574.45" xlink:href="#linear-gradient"/><linearGradient id="linear-gradient-3" x1="28765.32" y1="11816.44" x2="28765.32" y2="9896.53" gradientTransform="translate(28851.72 11816.44) rotate(180)" xlink:href="#linear-gradient"/><linearGradient id="linear-gradient-4" x1="27858.15" y1="11816.44" x2="27858.15" y2="9896.53" gradientTransform="translate(28851.72 11816.44) rotate(180)" xlink:href="#linear-gradient"/><linearGradient id="linear-gradient-5" x1="21411.35" y1="6234.44" x2="21411.35" y2="5154.44" gradientTransform="translate(-20417.72 -5154.44)" xlink:href="#linear-gradient"/></defs><g id="Graphic"><rect class="cls-1" y="249.5" width="1080" height="1"/><rect class="cls-2" y="1669.5" width="1080" height="1"/><rect class="cls-3" x="85.9" width="1" height="1919.91"/><rect class="cls-4" x="993.07" width="1" height="1919.91"/><rect class="cls-5" x="993.13" width="1" height="1080"/><rect class="cls-6" x="993.58" y="916.82" width="86.37" height="21.59"/><rect class="cls-6" x="993.58" y="981.59" width="86.37" height="21.59"/><rect class="cls-6" x="989.72" y="949.22" width="94.13" height="21.59" transform="translate(-373.81 877.65) rotate(-39.46)"/><rect class="cls-6" x="3.42" y="916.82" width="86.37" height="21.59"/><rect class="cls-6" x="3.42" y="981.59" width="86.37" height="21.59"/><rect class="cls-6" x="-0.44" y="949.22" width="94.13" height="21.59" transform="translate(-599.46 248.41) rotate(-39.46)"/><circle class="cls-7" cx="75.95" cy="95.51" r="45.07"/><polygon class="cls-8" points="48.38 74 48.38 77.43 57.54 77.43 46.62 94.54 62.07 94.54 62.07 91.12 52.87 91.12 63.78 74 48.38 74"/><polygon class="cls-8" points="67.25 94.54 80.89 94.54 80.89 91.12 70.66 91.12 70.65 85.98 80.89 85.98 80.89 82.56 70.64 82.56 70.63 77.43 80.89 77.43 80.89 74 67.2 74 67.25 94.54"/><polygon class="cls-8" points="99.72 91.12 89.45 91.12 89.45 85.98 99.72 85.98 99.72 82.56 89.45 82.56 89.45 77.43 99.72 77.43 99.72 74 86.03 74 86.03 94.54 99.72 94.54 99.72 91.12"/><polygon class="cls-8" points="67.2 120.21 80.89 120.21 80.89 116.79 70.62 116.79 70.62 111.65 80.89 111.65 80.89 108.23 70.62 108.23 70.62 103.1 80.89 103.1 80.89 99.67 67.2 99.67 67.2 120.21"/><polygon class="cls-8" points="98 99.67 98 113.54 89.3 99.67 86.03 99.67 86.03 120.21 89.45 120.21 89.45 106.34 98.15 120.21 101.43 120.21 101.43 99.67 98 99.67"/><path class="cls-7" d="M179.3,82.59l-16.9,22.89h17.47v3.4H157.58v-3.12l16.88-22.88H158.11V79.47H179.3Z"/><path class="cls-7" d="M205.22,108.88H185V79.47h19.79v3.45H189.06v9.33h14.07v3.36H189.06v9.83h16.16Z"/><path class="cls-7" d="M231.24,108.88H211V79.47h19.79v3.45H215.08v9.33h14.07v3.36H215.08v9.83h16.16Z"/><path class="cls-7" d="M257.27,108.88h-20.2V79.47h19.79v3.45H241.11v9.33h14.06v3.36H241.11v9.83h16.16Z"/><path class="cls-7" d="M266.93,108.88h-3.84V79.47h4.53l14.09,22.32V79.47h3.82v29.41H282L266.93,85Z"/><path class="cls-7" d="M302.73,109.39q-5.31,0-8.43-2.56a8.92,8.92,0,0,1-3.2-7l4-.52a6.77,6.77,0,0,0,2.12,5,8.18,8.18,0,0,0,5.55,1.73,6.83,6.83,0,0,0,4.57-1.42,4.79,4.79,0,0,0,1.67-3.83,3.9,3.9,0,0,0-1.17-3,8.77,8.77,0,0,0-4-1.69l-3.92-.85a11.35,11.35,0,0,1-5.94-2.89,7.79,7.79,0,0,1,.81-11A10.55,10.55,0,0,1,301.85,79a11.28,11.28,0,0,1,7.39,2.26,8.81,8.81,0,0,1,3.15,6.27l-4,.49q-.69-5.7-6.56-5.7a6.74,6.74,0,0,0-4.36,1.26,4.67,4.67,0,0,0-.42,6.52,7.27,7.27,0,0,0,3.65,1.66l4.58,1a11.28,11.28,0,0,1,5.82,2.75,7.07,7.07,0,0,1,1.87,5.15,8.06,8.06,0,0,1-2.81,6.29A10.92,10.92,0,0,1,302.73,109.39Z"/><path class="cls-7" d="M322.77,108.88h-4V79.47h4v12.7h14.74V79.47h4v29.41h-4V95.65H322.77Z"/><path class="cls-7" d="M375.25,94.18q0,6.93-3.82,11a14.39,14.39,0,0,1-20.24,0q-3.79-4.16-3.79-11t3.79-11a14.44,14.44,0,0,1,20.28,0C374,85.87,375.25,89.54,375.25,94.18Zm-21.14-8.56c-1.75,2.09-2.63,4.95-2.63,8.56s.88,6.46,2.63,8.57a9.77,9.77,0,0,0,14.39,0,13,13,0,0,0,2.65-8.57c0-3.61-.88-6.47-2.64-8.56a9.8,9.8,0,0,0-14.4,0Z"/><path class="cls-7" d="M385.15,108.88h-4V79.47h11.61a10.5,10.5,0,0,1,7.38,2.61,8.55,8.55,0,0,1,2.85,6.6,9.47,9.47,0,0,1-2.89,7.06,10.06,10.06,0,0,1-7.34,2.81h-7.57Zm13.74-20.2a5.38,5.38,0,0,0-1.8-4.17,6.69,6.69,0,0,0-4.68-1.63h-7.26V95.14h7.26a6.14,6.14,0,0,0,6.48-6.46Z"/><path class="cls-7" d="M449.63,87.29a4.65,4.65,0,0,0-1.4-3.54,5.23,5.23,0,0,0-3.73-1.32,5.68,5.68,0,0,0-4.75,2c-1.06,1.34-1.56,3.32-1.5,5.91l-3.86-.51q-.3-5,2.52-7.94A10.06,10.06,0,0,1,444.5,79a9.34,9.34,0,0,1,6.69,2.3,7.93,7.93,0,0,1,2.48,6,10.59,10.59,0,0,1-1.5,5.29,25.21,25.21,0,0,1-4.84,5.72l-7.85,7.22h14.95v3.36H434.27v-3.44l10.58-9.7a18.64,18.64,0,0,0,3.7-4.33A8.31,8.31,0,0,0,449.63,87.29Z"/><path class="cls-7" d="M477.58,95.26v13.62h-3.73V95.94a5.64,5.64,0,0,0-1.28-4,4.78,4.78,0,0,0-3.68-1.38,5.19,5.19,0,0,0-4.19,1.7,7.6,7.6,0,0,0-1.43,5v11.59h-3.74V79.47h3.74v11a7.31,7.31,0,0,1,6.46-3.08,7.74,7.74,0,0,1,5.76,2.12A7.89,7.89,0,0,1,477.58,95.26Z"/><path class="cls-6" d="M509.39,120.16a3.29,3.29,0,0,0-1-2.52,3.73,3.73,0,0,0-2.66-1,4.06,4.06,0,0,0-3.39,1.44,6.51,6.51,0,0,0-1.08,4.23l-2.75-.37a7.05,7.05,0,0,1,1.8-5.66,7.14,7.14,0,0,1,5.42-2.1,6.7,6.7,0,0,1,4.78,1.64,5.67,5.67,0,0,1,1.77,4.29,7.59,7.59,0,0,1-1.07,3.78,18,18,0,0,1-3.46,4.09l-5.61,5.16h10.68v2.4h-14.4v-2.46L506,126.2a13,13,0,0,0,2.64-3.09A5.88,5.88,0,0,0,509.39,120.16Z"/><path class="cls-6" d="M523.75,122.14a6.55,6.55,0,0,1,4.82,1.77,6.25,6.25,0,0,1,1.78,4.66,6.84,6.84,0,0,1-7.41,7.38,8.53,8.53,0,0,1-5.07-1.4,5.93,5.93,0,0,1-2.43-3.94l2.89-.4a4,4,0,0,0,1.5,2.53,4.92,4.92,0,0,0,3,.87,4.52,4.52,0,0,0,3.44-1.28,5.14,5.14,0,0,0,1.21-3.64,4.37,4.37,0,0,0-1.08-3.14,4,4,0,0,0-3-1.12,5.81,5.81,0,0,0-2.58.6,5.52,5.52,0,0,0-2,1.62l-2.49-.93,1.6-11.14h10.89V117h-8.6l-1.06,6.79A6.84,6.84,0,0,1,523.75,122.14Z"/><path class="cls-6" d="M533.4,125.09a13.57,13.57,0,0,1,2.07-8,7.23,7.23,0,0,1,11.58,0q2.1,2.87,2.1,8c0,3.36-.7,6-2.1,7.95a7.26,7.26,0,0,1-11.59,0C534.09,131.17,533.4,128.5,533.4,125.09ZM545,131.35a12.39,12.39,0,0,0,1.31-6.26,12.37,12.37,0,0,0-1.3-6.26,4.14,4.14,0,0,0-3.74-2.2,4.09,4.09,0,0,0-3.68,2.25,12.19,12.19,0,0,0-1.33,6.21,12.45,12.45,0,0,0,1.3,6.26,4.25,4.25,0,0,0,7.44,0Z"/><path class="cls-6" d="M560.6,120.22a6.21,6.21,0,0,1,4.88,2.14,8.24,8.24,0,0,1,1.83,5.61,8.73,8.73,0,0,1-1.83,5.79A6.07,6.07,0,0,1,560.6,136a5.71,5.71,0,0,1-4.86-2.43v7.62h-2.67V120.59h2.61v2.25A5.65,5.65,0,0,1,560.6,120.22Zm4,7.87a6.5,6.5,0,0,0-1.18-4.07,3.81,3.81,0,0,0-3.17-1.51,4,4,0,0,0-3.3,1.53,6.27,6.27,0,0,0-1.23,4,6.17,6.17,0,0,0,1.25,4,4,4,0,0,0,3.28,1.53,3.81,3.81,0,0,0,3.17-1.51A6.41,6.41,0,0,0,564.56,128.09Z"/><path class="cls-6" d="M568.32,135.59,574,128l-5.36-7.38h3.06l4,5.49,4.08-5.49h3l-5.48,7.35,5.67,7.65h-3.12l-4.2-5.73-4.24,5.73Z"/><rect class="cls-6" x="531.13" y="155.27" width="3" height="93.23"/><rect class="cls-6" x="522.88" y="247" width="19.5" height="3"/><rect class="cls-6" x="531.13" y="1.5" width="3" height="93.23"/><rect class="cls-6" x="522.88" width="19.5" height="3"/><path class="cls-6" d="M509.39,1790.16a3.29,3.29,0,0,0-1-2.52,3.73,3.73,0,0,0-2.66-1,4.06,4.06,0,0,0-3.39,1.44,6.51,6.51,0,0,0-1.08,4.23l-2.75-.37a7.05,7.05,0,0,1,1.8-5.66,7.14,7.14,0,0,1,5.42-2.1,6.7,6.7,0,0,1,4.78,1.64,5.67,5.67,0,0,1,1.77,4.29,7.59,7.59,0,0,1-1.07,3.78,18.18,18.18,0,0,1-3.46,4.09l-5.61,5.16h10.68v2.4h-14.4v-2.46l7.56-6.93a13,13,0,0,0,2.64-3.09A5.88,5.88,0,0,0,509.39,1790.16Z"/><path class="cls-6" d="M523.75,1792.14a6.55,6.55,0,0,1,4.82,1.77,6.25,6.25,0,0,1,1.78,4.66,6.84,6.84,0,0,1-7.41,7.38,8.53,8.53,0,0,1-5.07-1.4,5.93,5.93,0,0,1-2.43-3.94l2.89-.4a4,4,0,0,0,1.5,2.53,4.92,4.92,0,0,0,3,.87,4.52,4.52,0,0,0,3.44-1.28,5.14,5.14,0,0,0,1.21-3.64,4.37,4.37,0,0,0-1.08-3.14,4,4,0,0,0-3-1.12,5.81,5.81,0,0,0-2.58.6,5.52,5.52,0,0,0-2,1.62l-2.49-.94,1.6-11.13h10.89v2.4h-8.6l-1.06,6.79A6.84,6.84,0,0,1,523.75,1792.14Z"/><path class="cls-6" d="M533.4,1795.08a13.56,13.56,0,0,1,2.07-7.95,7.23,7.23,0,0,1,11.58,0q2.1,2.86,2.1,7.95c0,3.37-.7,6-2.1,8a7.26,7.26,0,0,1-11.59,0Q533.41,1800.22,533.4,1795.08Zm11.58,6.27a15.67,15.67,0,0,0,0-12.52,4.14,4.14,0,0,0-3.74-2.2,4.09,4.09,0,0,0-3.68,2.25,12.17,12.17,0,0,0-1.33,6.2,12.47,12.47,0,0,0,1.3,6.27,4.25,4.25,0,0,0,7.44,0Z"/><path class="cls-6" d="M560.6,1790.22a6.18,6.18,0,0,1,4.88,2.14,8.24,8.24,0,0,1,1.83,5.61,8.73,8.73,0,0,1-1.83,5.79,6.07,6.07,0,0,1-4.88,2.19,5.71,5.71,0,0,1-4.86-2.43v7.62h-2.67v-20.55h2.61v2.25A5.65,5.65,0,0,1,560.6,1790.22Zm4,7.87a6.5,6.5,0,0,0-1.18-4.07,3.81,3.81,0,0,0-3.17-1.51,4,4,0,0,0-3.3,1.53,6.27,6.27,0,0,0-1.23,4,6.17,6.17,0,0,0,1.25,4,4,4,0,0,0,3.28,1.53,3.81,3.81,0,0,0,3.17-1.51A6.41,6.41,0,0,0,564.56,1798.09Z"/><path class="cls-6" d="M568.32,1805.59,574,1798l-5.36-7.38h3.06l4,5.49,4.08-5.49h3l-5.48,7.35,5.67,7.65h-3.12l-4.2-5.73-4.24,5.73Z"/><rect class="cls-6" x="531.13" y="1825.27" width="3" height="93.23"/><rect class="cls-6" x="522.88" y="1917" width="19.5" height="3"/><rect class="cls-6" x="531.13" y="1671.5" width="3" height="93.23"/><rect class="cls-6" x="522.88" y="1670" width="19.5" height="3"/></g></svg>