<svg xmlns="http://www.w3.org/2000/svg" viewBox="0 0 1920 1080"><defs><style>.cls-1{fill:#fff;}</style></defs><g id="Background"><rect width="1920" height="1080"/></g><g id="Graphic"><polygon class="cls-1" points="492.23 309.14 492.23 345.14 588.59 345.14 473.77 525.14 636.23 525.14 636.23 489.14 539.43 489.14 654.25 309.14 492.23 309.14"/><polygon class="cls-1" points="690.27 525.14 833.8 525.14 833.8 489.14 726.19 489.14 726.06 435.14 833.8 435.14 833.8 399.14 725.97 399.14 725.84 345.14 833.8 345.14 833.8 309.14 689.76 309.14 690.27 525.14"/><polygon class="cls-1" points="888.23 525.14 1032.23 525.14 1032.23 489.14 924.23 489.14 924.23 435.14 1032.23 435.14 1032.23 399.14 924.23 399.14 924.23 345.14 1032.23 345.14 1032.23 309.14 888.23 309.14 888.23 525.14"/><polygon class="cls-1" points="1086.23 525.14 1230.23 525.14 1230.23 489.14 1122.23 489.14 1122.23 435.14 1230.23 435.14 1230.23 399.14 1122.23 399.14 1122.23 345.14 1230.23 345.14 1230.23 309.14 1086.23 309.14 1086.23 525.14"/><polygon class="cls-1" points="1410.23 309.14 1410.23 456.01 1320.23 309.14 1284.23 309.14 1284.23 525.14 1320.23 525.14 1320.23 378.03 1410.37 525.14 1446.23 525.14 1446.23 309.14 1410.23 309.14"/><path class="cls-1" d="M483.28,601.21h2.92V576.44h-7.26v4.95h-4.31V573H503v8.39h-4.31v-4.95h-8.39v24.77h3.27v3.62H483.28Z"/><path class="cls-1" d="M504.53,583.07h8.25v3.61H510.2l5.1,13.88,5.33-13.88h-2.56v-3.61h8.25v3.61h-2.24L514.4,611.1h3v3.61H508.6V611.1h2.65l2.31-6-7.27-18.44h-1.76Z"/><path class="cls-1" d="M529.81,583.07h6.93v1.81a12,12,0,0,1,3-1.7,9.73,9.73,0,0,1,7.31.17,9,9,0,0,1,3.07,2.24,10.29,10.29,0,0,1,2,3.48,13.28,13.28,0,0,1,.71,4.48,13.79,13.79,0,0,1-.79,4.79,11.13,11.13,0,0,1-2.22,3.7,10.05,10.05,0,0,1-3.37,2.41,10.56,10.56,0,0,1-4.28.86,11.42,11.42,0,0,1-3-.35,15.4,15.4,0,0,1-2.47-.89v7h3.4v3.61H529.85V611.1h3V586.68h-3Zm12.3,2.92a7.29,7.29,0,0,0-2.9.61,7.55,7.55,0,0,0-2.43,1.68v11.78a6.16,6.16,0,0,0,2,1.28,8.05,8.05,0,0,0,3.23.57,6.58,6.58,0,0,0,2.58-.53,6.17,6.17,0,0,0,2.18-1.56,7.92,7.92,0,0,0,1.52-2.57,10.45,10.45,0,0,0,.56-3.55,9.48,9.48,0,0,0-.53-3.28,7.31,7.31,0,0,0-1.45-2.41,6.07,6.07,0,0,0-2.13-1.5A6.51,6.51,0,0,0,542.11,586Z"/><path class="cls-1" d="M560.59,594.45a9.7,9.7,0,0,0,.14,1.69,9.46,9.46,0,0,0,.38,1.46,6,6,0,0,0,2.49,3.16,7.2,7.2,0,0,0,3.88,1.06,11.45,11.45,0,0,0,3.3-.47,15.62,15.62,0,0,0,3.37-1.48l1.58,2.67a17.15,17.15,0,0,1-4.31,2.18,14.11,14.11,0,0,1-4.49.71,11.08,11.08,0,0,1-4.08-.73,8.79,8.79,0,0,1-3.24-2.18,10.22,10.22,0,0,1-2.12-3.62,15.07,15.07,0,0,1-.76-5,14.37,14.37,0,0,1,.65-4.4,10.29,10.29,0,0,1,1.94-3.61,9.28,9.28,0,0,1,3.2-2.45,10.37,10.37,0,0,1,4.45-.9,10.1,10.1,0,0,1,4.11.74,7.6,7.6,0,0,1,2.69,2,8.55,8.55,0,0,1,1.57,2.8,16.26,16.26,0,0,1,.75,3.21c.07.53.11,1.07.13,1.62s0,1.08,0,1.59Zm6.11-8.67a6.63,6.63,0,0,0-2.38.39,4.9,4.9,0,0,0-1.74,1.11,5.67,5.67,0,0,0-1.14,1.78,10.46,10.46,0,0,0-.64,2.35h11.27a10.36,10.36,0,0,0-.38-2.25,5.06,5.06,0,0,0-.94-1.78,4.19,4.19,0,0,0-1.61-1.18A6.24,6.24,0,0,0,566.7,585.78Z"/><path class="cls-1" d="M590.68,594a13.28,13.28,0,0,1,.83-4.7,10.9,10.9,0,0,1,2.25-3.65,10,10,0,0,1,3.45-2.34,11.55,11.55,0,0,1,4.39-.82,11.71,11.71,0,0,1,4.42.82,9.87,9.87,0,0,1,3.43,2.32,10.6,10.6,0,0,1,2.22,3.62,14.15,14.15,0,0,1,0,9.38,10.88,10.88,0,0,1-2.22,3.66,10,10,0,0,1-3.43,2.39,12.09,12.09,0,0,1-8.88,0,9.82,9.82,0,0,1-3.42-2.37,10.69,10.69,0,0,1-2.22-3.64A13.21,13.21,0,0,1,590.68,594Zm4.13,0a10,10,0,0,0,.54,3.38,7.76,7.76,0,0,0,1.47,2.57,6.59,6.59,0,0,0,2.16,1.64,6.15,6.15,0,0,0,2.62.58,6.4,6.4,0,0,0,2.69-.57,6.31,6.31,0,0,0,2.18-1.63,7.72,7.72,0,0,0,1.45-2.57,10.33,10.33,0,0,0,.52-3.4,10.84,10.84,0,0,0-.52-3.51,7.46,7.46,0,0,0-1.44-2.56,6,6,0,0,0-2.18-1.55,7,7,0,0,0-2.7-.53,6.6,6.6,0,0,0-2.62.53,6.2,6.2,0,0,0-2.16,1.55,7.51,7.51,0,0,0-1.47,2.56A10.56,10.56,0,0,0,594.81,594Z"/><path class="cls-1" d="M623.87,583.07h5v3.17h-5v15h3.4v3.62H616.69v-3.62H620v-15h-3.59v-3.17H620v-3.4a10.34,10.34,0,0,1,.54-3.29,6.41,6.41,0,0,1,1.43-2.36,5.8,5.8,0,0,1,2.23-1.4,8.51,8.51,0,0,1,2.89-.46,17.11,17.11,0,0,1,2,.1,13.6,13.6,0,0,1,1.57.28,11.24,11.24,0,0,1,1.23.39q.54.21,1,.42l-1.2,2.79a7.38,7.38,0,0,0-1.75-.6,9.85,9.85,0,0,0-2.26-.26,3.51,3.51,0,0,0-2.74,1.09,4.51,4.51,0,0,0-1,3.18Z"/><path class="cls-1" d="M662.34,573h10.33v3.63H670v28.2h-5.38l-14.8-26.4v22.78h3.28v3.62H642.73v-3.62h2.94V576.63h-3V573h8.57l14.53,26.14.17-1V576.63h-3.57Z"/><path class="cls-1" d="M679.53,594.45a9.7,9.7,0,0,0,.14,1.69,8.46,8.46,0,0,0,.39,1.46,6,6,0,0,0,2.49,3.16,7.17,7.17,0,0,0,3.87,1.06,11.52,11.52,0,0,0,3.31-.47,15.84,15.84,0,0,0,3.37-1.48l1.57,2.67a17.26,17.26,0,0,1-4.3,2.18,14.13,14.13,0,0,1-4.5.71,11.08,11.08,0,0,1-4.08-.73,8.76,8.76,0,0,1-3.23-2.18,10.08,10.08,0,0,1-2.12-3.62,16,16,0,0,1-.12-9.43,10.29,10.29,0,0,1,1.94-3.61,9.28,9.28,0,0,1,3.2-2.45,10.38,10.38,0,0,1,4.46-.9,10.09,10.09,0,0,1,4.1.74,7.51,7.51,0,0,1,2.69,2,8.38,8.38,0,0,1,1.57,2.8,16.26,16.26,0,0,1,.75,3.21c.07.53.11,1.07.13,1.62s0,1.08,0,1.59Zm6.11-8.67a6.63,6.63,0,0,0-2.38.39,4.77,4.77,0,0,0-1.73,1.11,5.52,5.52,0,0,0-1.15,1.78,11,11,0,0,0-.64,2.35H691a11,11,0,0,0-.39-2.25,5,5,0,0,0-.93-1.78,4.15,4.15,0,0,0-1.62-1.18A6.24,6.24,0,0,0,685.64,585.78Z"/><path class="cls-1" d="M698.83,583.07h6.89v3.61h-1l3.8,13.88,5.2-17.49H717l5,17.45,4-13.84h-1.26v-3.61h6.89v3.61h-1.87l-6,18.48h-3.61l-4.94-17.36-4.91,17.36h-3.65l-5.92-18.48h-1.87Z"/><path class="cls-1" d="M747.09,587.41a3.41,3.41,0,0,0-1.06-1,5,5,0,0,0-1.45-.57,7.66,7.66,0,0,0-1.55-.17,6.28,6.28,0,0,0-1.55.18,3.85,3.85,0,0,0-1.21.55,2.69,2.69,0,0,0-.78.87,2.37,2.37,0,0,0-.29,1.15,2.28,2.28,0,0,0,.67,1.73,6,6,0,0,0,2.21,1.18l4.18,1.47a8.28,8.28,0,0,1,3.92,2.46,5.78,5.78,0,0,1,1.24,3.72,6.12,6.12,0,0,1-.57,2.65,5.85,5.85,0,0,1-1.64,2.06,7.7,7.7,0,0,1-2.55,1.32,10.82,10.82,0,0,1-3.32.48,9.18,9.18,0,0,1-4.14-.82,6.19,6.19,0,0,1-2.45-2.17h-2.19v-3.61h4.35a2.92,2.92,0,0,0,.39,1.55,3.2,3.2,0,0,0,1,1,4.69,4.69,0,0,0,1.45.58,6.88,6.88,0,0,0,1.64.19A5.9,5.9,0,0,0,745,602a4.47,4.47,0,0,0,1.33-.58,3,3,0,0,0,.92-.94,2.35,2.35,0,0,0,.33-1.24,2.54,2.54,0,0,0-.68-1.78,5.92,5.92,0,0,0-2.32-1.32l-4.16-1.56a8.9,8.9,0,0,1-3.77-2.3,5.08,5.08,0,0,1-1.23-3.49,6.41,6.41,0,0,1,.52-2.57,5.68,5.68,0,0,1,1.49-2,7,7,0,0,1,2.38-1.33,9.68,9.68,0,0,1,3.22-.49,10.32,10.32,0,0,1,3.9.65,7.14,7.14,0,0,1,2.83,2.23h2v3.61h-4.3A2.67,2.67,0,0,0,747.09,587.41Z"/><path class="cls-1" d="M755.62,572.16h7.06v29.05H766v3.62H755.62v-3.62h3.15V575.77h-3.15Z"/><path class="cls-1" d="M773.47,594.45a8.82,8.82,0,0,0,.14,1.69,9.46,9.46,0,0,0,.38,1.46,6,6,0,0,0,2.49,3.16,7.18,7.18,0,0,0,3.88,1.06,11.45,11.45,0,0,0,3.3-.47,15.62,15.62,0,0,0,3.37-1.48l1.58,2.67a17.15,17.15,0,0,1-4.31,2.18,14.11,14.11,0,0,1-4.49.71,11.08,11.08,0,0,1-4.08-.73,8.79,8.79,0,0,1-3.24-2.18,10.22,10.22,0,0,1-2.12-3.62,15.07,15.07,0,0,1-.76-5,14.37,14.37,0,0,1,.65-4.4,10.29,10.29,0,0,1,1.94-3.61,9.28,9.28,0,0,1,3.2-2.45,10.34,10.34,0,0,1,4.45-.9,10.1,10.1,0,0,1,4.11.74,7.47,7.47,0,0,1,2.68,2,8.4,8.4,0,0,1,1.58,2.8,16.24,16.24,0,0,1,.74,3.21c.07.53.12,1.07.14,1.62s0,1.08,0,1.59Zm6.11-8.67a6.63,6.63,0,0,0-2.38.39,4.9,4.9,0,0,0-1.74,1.11,5.67,5.67,0,0,0-1.14,1.78,10.46,10.46,0,0,0-.64,2.35H785a10.36,10.36,0,0,0-.38-2.25,5.06,5.06,0,0,0-.94-1.78A4.15,4.15,0,0,0,782,586.2,6.16,6.16,0,0,0,779.58,585.78Z"/><path class="cls-1" d="M800.74,583.07h5.11v3.17H800.7l-.06,12.56a6.3,6.3,0,0,0,.29,2.08,1.84,1.84,0,0,0,1,1.1,3.45,3.45,0,0,0,1.47.3,7.21,7.21,0,0,0,1.55-.15,7.87,7.87,0,0,0,1.47-.54l.9,2.63a11.11,11.11,0,0,1-2.12.83,10.1,10.1,0,0,1-2.62.3A8.09,8.09,0,0,1,800,605a4,4,0,0,1-1.78-1.16,5.23,5.23,0,0,1-1.09-2.2,14.31,14.31,0,0,1-.35-3.43l.06-12h-3.46v-3.17h3.5v-5.2l3.82-1.81Z"/><path class="cls-1" d="M816.74,583.07h5.1v3.17H816.7l-.06,12.56a6.3,6.3,0,0,0,.29,2.08,1.84,1.84,0,0,0,1,1.1,3.45,3.45,0,0,0,1.47.3,7.21,7.21,0,0,0,1.55-.15,7.87,7.87,0,0,0,1.47-.54l.9,2.63a11.11,11.11,0,0,1-2.12.83,10.15,10.15,0,0,1-2.62.3A8.09,8.09,0,0,1,816,605a4.06,4.06,0,0,1-1.79-1.16,5.34,5.34,0,0,1-1.08-2.2,14.31,14.31,0,0,1-.35-3.43l.06-12h-3.47v-3.17h3.51v-5.2l3.82-1.81Z"/><path class="cls-1" d="M830.14,594.45a9.75,9.75,0,0,0,.13,1.69,9.47,9.47,0,0,0,.39,1.46,6,6,0,0,0,2.49,3.16,7.17,7.17,0,0,0,3.87,1.06,11.47,11.47,0,0,0,3.31-.47,15.62,15.62,0,0,0,3.37-1.48l1.58,2.67a17.32,17.32,0,0,1-4.31,2.18,14.11,14.11,0,0,1-4.49.71,11.08,11.08,0,0,1-4.08-.73,8.71,8.71,0,0,1-3.24-2.18A10.22,10.22,0,0,1,827,598.9a15.06,15.06,0,0,1-.77-5,14.37,14.37,0,0,1,.66-4.4,10.29,10.29,0,0,1,1.94-3.61,9.28,9.28,0,0,1,3.2-2.45,10.34,10.34,0,0,1,4.45-.9,10.1,10.1,0,0,1,4.11.74,7.56,7.56,0,0,1,2.68,2,8.4,8.4,0,0,1,1.58,2.8,17,17,0,0,1,.74,3.21c.07.53.12,1.07.14,1.62s0,1.08,0,1.59Zm6.11-8.67a6.69,6.69,0,0,0-2.39.39,5,5,0,0,0-1.73,1.11,5.5,5.5,0,0,0-1.14,1.78,10.46,10.46,0,0,0-.64,2.35h11.27a9.78,9.78,0,0,0-.39-2.25,4.88,4.88,0,0,0-.93-1.78,4.15,4.15,0,0,0-1.62-1.18A6.19,6.19,0,0,0,836.25,585.78Z"/><path class="cls-1" d="M866.76,587.67h-4v-1.34a4.23,4.23,0,0,0-1.42.26,4.51,4.51,0,0,0-1.36.8,5.2,5.2,0,0,0-1.1,1.36,6.44,6.44,0,0,0-.68,2v10.49h3.7v3.62h-10.8v-3.62h3l0-14.53h-3v-3.61h6.95v3a8.58,8.58,0,0,1,.85-1.25,6.24,6.24,0,0,1,1.05-1,4.6,4.6,0,0,1,1.28-.67,4.72,4.72,0,0,1,1.53-.24h2.05c.65,0,1.29,0,1.94,0Z"/><path class="cls-1" d="M475.87,650.85h7.45a7,7,0,0,1,5.89,2.73,10.17,10.17,0,0,1,1.86,6.31,12.64,12.64,0,0,1-1.1,5.37,6.8,6.8,0,0,1-6.67,4.24h-7.43Zm6.95,16.49a6.66,6.66,0,0,0,2.07-.27,4.51,4.51,0,0,0,2.35-1.9,8,8,0,0,0,1.06-2.9,11.66,11.66,0,0,0,.19-1.95,9.22,9.22,0,0,0-1.35-5.38A4.94,4.94,0,0,0,482.8,653h-4.38v14.32Z"/><path class="cls-1" d="M501.51,661.27a1.23,1.23,0,0,0,1.05-.66,1.89,1.89,0,0,0,.16-.88,1.87,1.87,0,0,0-.83-1.7,4.49,4.49,0,0,0-2.38-.53,3,3,0,0,0-2.53,1,3.26,3.26,0,0,0-.55,1.59H494.3a3.92,3.92,0,0,1,1.63-3.5,6.63,6.63,0,0,1,3.63-1,7.35,7.35,0,0,1,3.89.91,3.11,3.11,0,0,1,1.49,2.85v7.83a1,1,0,0,0,.14.57.7.7,0,0,0,.62.22l.34,0,.41-.06v1.69a6.09,6.09,0,0,1-.81.19,5.23,5.23,0,0,1-.77,0,1.88,1.88,0,0,1-1.71-.84,3.07,3.07,0,0,1-.39-1.26,5.91,5.91,0,0,1-2,1.59,6.17,6.17,0,0,1-2.88.67,4.3,4.3,0,0,1-3.09-1.14,3.83,3.83,0,0,1-1.2-2.88,3.66,3.66,0,0,1,1.18-2.92,5.66,5.66,0,0,1,3.1-1.29Zm-4.81,6.17a2.67,2.67,0,0,0,1.71.57,5.1,5.1,0,0,0,2.34-.56,3.12,3.12,0,0,0,1.9-3v-1.83a4.16,4.16,0,0,1-1.07.44,8.8,8.8,0,0,1-1.3.26l-1.38.17A5.44,5.44,0,0,0,497,664a2,2,0,0,0-1.06,1.9A1.88,1.88,0,0,0,496.7,667.44Z"/><path class="cls-1" d="M509.14,652.1h2.31v3.8h2.17v1.87h-2.17v8.87a1,1,0,0,0,.48,1,2,2,0,0,0,.89.14h.36a4.2,4.2,0,0,0,.44,0v1.82a5.18,5.18,0,0,1-.82.16,6.63,6.63,0,0,1-.92.05,2.47,2.47,0,0,1-2.17-.82,3.61,3.61,0,0,1-.57-2.12v-9H507.3V655.9h1.84Z"/><path class="cls-1" d="M524.31,656.27a5.18,5.18,0,0,1,2.05,1.76,6,6,0,0,1,.91,2.4,15.46,15.46,0,0,1,.2,3h-9.89a5.92,5.92,0,0,0,1,3.33,3.25,3.25,0,0,0,2.81,1.25,3.62,3.62,0,0,0,2.84-1.18,4.08,4.08,0,0,0,.83-1.6h2.25a4.61,4.61,0,0,1-.59,1.67,5.81,5.81,0,0,1-1.12,1.5,5.3,5.3,0,0,1-2.55,1.38,8.1,8.1,0,0,1-1.86.2,5.67,5.67,0,0,1-4.27-1.85,7.2,7.2,0,0,1-1.76-5.17,7.82,7.82,0,0,1,1.77-5.32,5.83,5.83,0,0,1,4.62-2A6.16,6.16,0,0,1,524.31,656.27Zm.81,5.34a5.82,5.82,0,0,0-.64-2.37,3.29,3.29,0,0,0-3.11-1.65,3.47,3.47,0,0,0-2.62,1.13,4.38,4.38,0,0,0-1.12,2.89Z"/><path class="cls-1" d="M498.47,819.62l5.36,15.88,5.29-15.88H512l-6.8,18.65h-2.68l-6.79-18.65Z"/><path class="cls-1" d="M514.9,819.62h2.56v18.65H514.9Z"/><path class="cls-1" d="M521.8,819.62h13.53v2.28H524.26v5.66h10.23v2.16H524.26v6.33h11.26v2.22H521.8Z"/><path class="cls-1" d="M540.14,819.62l3.51,15.15,4.22-15.15h2.73l4.22,15.18,3.52-15.18h2.77l-4.9,18.65h-2.66l-4.3-15.47-4.33,15.47h-2.65l-4.88-18.65Z"/><path class="cls-1" d="M571.23,819.62h2.55v18.65h-2.55Z"/><path class="cls-1" d="M577.88,819.62h3l9.3,15.07V819.62h2.41v18.65h-2.83l-9.44-15v15h-2.42Z"/><path class="cls-1" d="M603.82,819.62h8.06c2.2,0,3.77.65,4.69,2a4.47,4.47,0,0,1,.82,2.67,4.17,4.17,0,0,1-1,2.89,4.93,4.93,0,0,1-1.5,1.09,6.44,6.44,0,0,1,2.15,1.24,4.44,4.44,0,0,1,1.25,3.36,5.15,5.15,0,0,1-1.13,3.26q-1.71,2.19-5.41,2.19h-7.93Zm7.12,7.88a5.9,5.9,0,0,0,2.52-.44,2.57,2.57,0,0,0,1.41-2.52,2.41,2.41,0,0,0-1.5-2.46,6.79,6.79,0,0,0-2.52-.36H606.3v5.78Zm.85,8.61a3.9,3.9,0,0,0,3.35-1.35,3.33,3.33,0,0,0,.63-2,2.73,2.73,0,0,0-1.83-2.77,7.07,7.07,0,0,0-2.58-.39H606.3v6.56Z"/><path class="cls-1" d="M621.53,819.62H630a8.22,8.22,0,0,1,3.45.62,4.41,4.41,0,0,1,2.58,4.4,4.57,4.57,0,0,1-2.63,4.46,3.89,3.89,0,0,1,1.65,1.17,4.15,4.15,0,0,1,.61,2.35l.09,2.5a8.31,8.31,0,0,0,.18,1.59,1.55,1.55,0,0,0,.81,1.14v.42h-3.09a2.11,2.11,0,0,1-.21-.63,11.58,11.58,0,0,1-.12-1.47l-.16-3.11a2.6,2.6,0,0,0-1.32-2.45,5.27,5.27,0,0,0-2.2-.34h-5.59v8h-2.53Zm8.21,8.54a4.68,4.68,0,0,0,2.73-.71,2.93,2.93,0,0,0,1-2.56,2.77,2.77,0,0,0-1.41-2.72,4.53,4.53,0,0,0-2-.38h-6v6.37Z"/><path class="cls-1" d="M655.36,822.28a10.28,10.28,0,0,1,1.86,6.34,11.09,11.09,0,0,1-2.12,6.94,8.41,8.41,0,0,1-7.1,3.25,8.52,8.52,0,0,1-6.77-2.84A10.76,10.76,0,0,1,639,829a11,11,0,0,1,1.88-6.48,8.12,8.12,0,0,1,7.13-3.45Q653,819.11,655.36,822.28Zm-2.22,11.89a10.24,10.24,0,0,0,1.49-5.51,7.91,7.91,0,0,0-1.72-5.3,5.91,5.91,0,0,0-4.71-2,6.1,6.1,0,0,0-4.72,2c-1.22,1.32-1.83,3.28-1.83,5.86a8.61,8.61,0,0,0,1.57,5.23c1,1.42,2.74,2.13,5.09,2.13A5.27,5.27,0,0,0,653.14,834.17Z"/><path class="cls-1" d="M661.46,819.62,665,834.77l4.22-15.15h2.73l4.22,15.18,3.52-15.18h2.77l-4.9,18.65h-2.66l-4.3-15.47-4.33,15.47H663.6l-4.88-18.65Z"/><path class="cls-1" d="M686.42,832.25a5.11,5.11,0,0,0,.72,2.58q1.22,1.84,4.27,1.85a7.31,7.31,0,0,0,2.49-.41,2.85,2.85,0,0,0,2.18-2.81,2.5,2.5,0,0,0-.92-2.18,9.22,9.22,0,0,0-2.93-1.1l-2.45-.57a10.68,10.68,0,0,1-3.39-1.23,3.94,3.94,0,0,1-1.72-3.49,5.44,5.44,0,0,1,1.69-4.13,6.69,6.69,0,0,1,4.79-1.61,8.19,8.19,0,0,1,4.85,1.41,5.19,5.19,0,0,1,2,4.53h-2.38a4.75,4.75,0,0,0-.78-2.3,4.44,4.44,0,0,0-3.76-1.46,4.22,4.22,0,0,0-3.08.94,3,3,0,0,0-.94,2.18,2.14,2.14,0,0,0,1.11,2,16.23,16.23,0,0,0,3.29,1l2.53.59a7.72,7.72,0,0,1,2.83,1.18,4.47,4.47,0,0,1,1.72,3.8,4.77,4.77,0,0,1-2.2,4.43,9.6,9.6,0,0,1-5.1,1.33,7.55,7.55,0,0,1-5.32-1.77,6.11,6.11,0,0,1-1.88-4.79Z"/><path class="cls-1" d="M702.35,819.62h13.53v2.28H704.81v5.66H715v2.16H704.81v6.33h11.26v2.22H702.35Z"/><path class="cls-1" d="M719.75,819.62h8.48a8.27,8.27,0,0,1,3.46.62,4.41,4.41,0,0,1,2.58,4.4,4.61,4.61,0,0,1-2.63,4.46,3.85,3.85,0,0,1,1.64,1.17,4.22,4.22,0,0,1,.62,2.35l.09,2.5a7.71,7.71,0,0,0,.17,1.59,1.59,1.59,0,0,0,.82,1.14v.42h-3.1a2.12,2.12,0,0,1-.2-.63,9.49,9.49,0,0,1-.13-1.47l-.15-3.11a2.64,2.64,0,0,0-1.32-2.45,5.33,5.33,0,0,0-2.21-.34h-5.59v8h-2.53Zm8.21,8.54a4.68,4.68,0,0,0,2.73-.71,2.9,2.9,0,0,0,1-2.56,2.77,2.77,0,0,0-1.41-2.72,4.53,4.53,0,0,0-2-.38h-6v6.37Z"/><path class="cls-1" d="M758.44,860.81H472.82v-63H758.44Zm-283.71-1.9h281.8v-59.2H474.73Z"/></g></svg>