<svg xmlns="http://www.w3.org/2000/svg" viewBox="0 0 1080 1080"><defs><style>.cls-1{fill:#003692;}.cls-2{fill:#fff;}.cls-3{fill:#002969;}</style></defs><g id="Background"><rect class="cls-1" width="1080" height="1080"/></g><g id="Graphic"><path class="cls-2" d="M100.54,722.84a7.09,7.09,0,0,1-4.69,1.37H92v6.73H88.07V712.23h8a6.46,6.46,0,0,1,4.43,1.45,5.65,5.65,0,0,1,1.65,4.48C102.18,720.37,101.64,721.93,100.54,722.84Zm-3-6.74a3.2,3.2,0,0,0-2.09-.62H92V721h3.52a3,3,0,0,0,2.09-.67,2.77,2.77,0,0,0,.74-2.14A2.6,2.6,0,0,0,97.56,716.1Z"/><path class="cls-2" d="M112.71,716.78l.32,0v3.71a5,5,0,0,0-.61,0l-.44,0a3,3,0,0,0-2.93,1.43,5.49,5.49,0,0,0-.42,2.46v6.61H105V717.1h3.45v2.42a7.76,7.76,0,0,1,1.46-1.9,4,4,0,0,1,2.64-.85Z"/><path class="cls-2" d="M126.69,729.25a7.63,7.63,0,0,1-10.64,0,8.56,8.56,0,0,1,0-10.4,7.56,7.56,0,0,1,10.64,0,8.6,8.6,0,0,1,0,10.4Zm-2.9-2a6.47,6.47,0,0,0,0-6.41,3.22,3.22,0,0,0-4.88,0,6.4,6.4,0,0,0,0,6.41,3.2,3.2,0,0,0,4.88,0Z"/><path class="cls-2" d="M138.37,717.33a4.21,4.21,0,0,1,1.58,1.53v-6.61h3.67v18.69H140.1V729a5.12,5.12,0,0,1-1.76,1.79,5,5,0,0,1-2.46.55,5.12,5.12,0,0,1-4.08-2,7.5,7.5,0,0,1-1.66-5,8.63,8.63,0,0,1,1.63-5.57,5.3,5.3,0,0,1,4.36-2A4.49,4.49,0,0,1,138.37,717.33Zm.88,9.85a5,5,0,0,0,.8-2.95,4.5,4.5,0,0,0-1.28-3.63,2.74,2.74,0,0,0-1.83-.66,2.56,2.56,0,0,0-2.33,1.2,5.59,5.59,0,0,0-.74,3,5.47,5.47,0,0,0,.76,3.07,2.56,2.56,0,0,0,2.29,1.15A2.65,2.65,0,0,0,139.25,727.18Z"/><path class="cls-2" d="M150.51,717.1v8.35a4.46,4.46,0,0,0,.28,1.77,1.93,1.93,0,0,0,1.94,1.06,2.51,2.51,0,0,0,2.52-1.5,5.38,5.38,0,0,0,.36-2.15V717.1h3.66v13.84h-3.51v-2s-.12.17-.26.38a2.34,2.34,0,0,1-.48.56,5.13,5.13,0,0,1-1.64,1,5.67,5.67,0,0,1-1.85.28q-3.06,0-4.13-2.21a8.58,8.58,0,0,1-.59-3.59V717.1Z"/><path class="cls-2" d="M171.07,722.07a3.25,3.25,0,0,0-.52-1.4,2.19,2.19,0,0,0-1.9-.84,2.51,2.51,0,0,0-2.51,1.82,7.73,7.73,0,0,0-.35,2.56,7.09,7.09,0,0,0,.35,2.44,2.43,2.43,0,0,0,2.45,1.73,2.12,2.12,0,0,0,1.8-.69,3.3,3.3,0,0,0,.65-1.77h3.7a6.1,6.1,0,0,1-1.2,3.12,5.79,5.79,0,0,1-5,2.37,5.91,5.91,0,0,1-4.92-2A8,8,0,0,1,162,724.3a8.1,8.1,0,0,1,1.75-5.55,6.06,6.06,0,0,1,4.8-2,7.2,7.2,0,0,1,4.26,1.17,5.46,5.46,0,0,1,2,4.13Z"/><path class="cls-2" d="M175.83,719.81v-2.58h1.93v-3.86h3.58v3.86h2.25v2.58h-2.25v7.31a1.68,1.68,0,0,0,.21,1.06,2.42,2.42,0,0,0,1.33.21h.71v2.7l-1.72.06c-1.71.06-2.88-.23-3.5-.89a2.61,2.61,0,0,1-.61-1.91v-8.52Z"/><path class="cls-2" d="M193.36,712.23h4.1l7.43,13v-13h3.64v18.71h-3.91L197,717.66v13.28h-3.64Z"/><path class="cls-2" d="M217.39,722.53a6.29,6.29,0,0,0,1.44-.32,1.08,1.08,0,0,0,.79-1A1.2,1.2,0,0,0,219,720a3.74,3.74,0,0,0-1.76-.33,2.28,2.28,0,0,0-1.84.64,2.5,2.5,0,0,0-.51,1.27h-3.5a5.37,5.37,0,0,1,1-3q1.44-1.83,4.95-1.83a8.76,8.76,0,0,1,4.06.91,3.45,3.45,0,0,1,1.77,3.4v6.35c0,.44,0,1,0,1.6a2,2,0,0,0,.22,1,1.34,1.34,0,0,0,.53.42v.53h-3.93a4,4,0,0,1-.23-.78c0-.25-.08-.53-.1-.84A7.56,7.56,0,0,1,218,730.7a5.23,5.23,0,0,1-2.66.67,4.55,4.55,0,0,1-3.12-1.07,3.81,3.81,0,0,1-1.23-3,3.93,3.93,0,0,1,2-3.69,8.82,8.82,0,0,1,3.2-.89Zm2.21,1.68a3.52,3.52,0,0,1-.7.35,6,6,0,0,1-1,.25l-.82.15a5.38,5.38,0,0,0-1.67.5,1.64,1.64,0,0,0-.85,1.53,1.59,1.59,0,0,0,.52,1.34,2,2,0,0,0,1.27.42,3.74,3.74,0,0,0,2.18-.69,2.88,2.88,0,0,0,1-2.5Z"/><path class="cls-2" d="M243.63,717.16a4,4,0,0,1,1.62,1.24,3.87,3.87,0,0,1,.78,1.78,11.55,11.55,0,0,1,.13,2l0,8.72h-3.71v-8.81a2.87,2.87,0,0,0-.26-1.29,1.79,1.79,0,0,0-1.77-1,2.08,2.08,0,0,0-2.07,1.25,3.81,3.81,0,0,0-.29,1.58v8.24h-3.65V722.7a4.66,4.66,0,0,0-.25-1.79,1.77,1.77,0,0,0-1.79-1,2.13,2.13,0,0,0-2.08,1,3.78,3.78,0,0,0-.3,1.7v8.33h-3.66V717.13h3.51v2a5.92,5.92,0,0,1,1.27-1.54,5,5,0,0,1,5.3-.11,4,4,0,0,1,1.19,1.66,4.59,4.59,0,0,1,1.76-1.79,5.43,5.43,0,0,1,2.49-.57A4.74,4.74,0,0,1,243.63,717.16Z"/><path class="cls-2" d="M258.5,717.38a5.71,5.71,0,0,1,2.4,2,6.93,6.93,0,0,1,1.1,2.86,17.13,17.13,0,0,1,.12,2.75H252a3.3,3.3,0,0,0,1.45,2.92,3.62,3.62,0,0,0,2,.52,3,3,0,0,0,2-.64,2.83,2.83,0,0,0,.74-1h3.7a4.56,4.56,0,0,1-1.34,2.5,6.72,6.72,0,0,1-5.21,2,7.56,7.56,0,0,1-4.87-1.7c-1.41-1.14-2.11-3-2.11-5.54a7.46,7.46,0,0,1,1.9-5.51,6.67,6.67,0,0,1,4.95-1.92A7.89,7.89,0,0,1,258.5,717.38Zm-5.41,3.13a3.76,3.76,0,0,0-1,2.14h6.23a3,3,0,0,0-1-2.18,3.17,3.17,0,0,0-2.15-.75A2.85,2.85,0,0,0,253.09,720.51Z"/><path class="cls-2" d="M88.16,753.91h2.15v15.78H88.16Z"/><path class="cls-2" d="M94,753.91h7.17a7.07,7.07,0,0,1,2.93.53,3.74,3.74,0,0,1,2.18,3.73,4.29,4.29,0,0,1-.58,2.32,4.37,4.37,0,0,1-1.64,1.45,3.23,3.23,0,0,1,1.39,1,3.57,3.57,0,0,1,.52,2l.07,2.12a8,8,0,0,0,.15,1.34,1.33,1.33,0,0,0,.69,1v.35H104.3a1.86,1.86,0,0,1-.17-.52,11,11,0,0,1-.11-1.25l-.13-2.63a2.23,2.23,0,0,0-1.11-2.07,4.41,4.41,0,0,0-1.87-.29H96.18v6.76H94Zm6.95,7.23a4,4,0,0,0,2.31-.6,2.47,2.47,0,0,0,.85-2.17,2.36,2.36,0,0,0-1.19-2.3,3.87,3.87,0,0,0-1.7-.32H96.18v5.39Z"/><path class="cls-2" d="M114.26,753.91h2.42l5.72,15.78h-2.34l-1.6-4.72h-6.24l-1.71,4.72h-2.19Zm3.51,9.32-2.39-7-2.55,7Z"/><path class="cls-2" d="M124.35,753.91h2.51l7.87,12.75V753.91h2v15.78h-2.4l-8-12.73v12.73h-2Z"/><path class="cls-2" d="M149.68,753.91h1.63l-5,15.78h-1.63Z"/><path class="cls-2" d="M169.66,753.91v1.88h-5.32v13.9h-2.16v-13.9h-5.32v-1.88Z"/><path class="cls-2" d="M175.09,762.73a1,1,0,0,0,.89-.56,1.64,1.64,0,0,0,.13-.74,1.58,1.58,0,0,0-.7-1.44,3.74,3.74,0,0,0-2-.45,2.55,2.55,0,0,0-2.14.82,2.81,2.81,0,0,0-.47,1.35H169a3.33,3.33,0,0,1,1.38-3,5.61,5.61,0,0,1,3.07-.84,6.35,6.35,0,0,1,3.3.77,2.64,2.64,0,0,1,1.25,2.41v6.63a.78.78,0,0,0,.13.48c.08.12.25.18.52.18h.29l.34,0v1.43a6.08,6.08,0,0,1-.69.16,5.25,5.25,0,0,1-.64,0,1.57,1.57,0,0,1-1.45-.71,2.6,2.6,0,0,1-.33-1.06,4.92,4.92,0,0,1-1.7,1.34,5.25,5.25,0,0,1-2.44.57,3.63,3.63,0,0,1-2.62-1,3.25,3.25,0,0,1-1-2.43,3.12,3.12,0,0,1,1-2.48,4.74,4.74,0,0,1,2.62-1.08ZM171,768a2.28,2.28,0,0,0,1.45.48,4.5,4.5,0,0,0,2-.47,2.67,2.67,0,0,0,1.61-2.57v-1.55a3.37,3.37,0,0,1-.91.37,6.3,6.3,0,0,1-1.1.22l-1.16.15a4.5,4.5,0,0,0-1.59.44,1.72,1.72,0,0,0-.89,1.61A1.6,1.6,0,0,0,171,768Z"/><path class="cls-2" d="M181,753.86h1.88v5.73a4.19,4.19,0,0,1,1.52-1.27,4.29,4.29,0,0,1,1.92-.43,4.5,4.5,0,0,1,3.5,1.48,6.27,6.27,0,0,1,1.34,4.35,7.46,7.46,0,0,1-1.32,4.53,4.3,4.3,0,0,1-3.68,1.81,3.78,3.78,0,0,1-2.22-.63,5.42,5.42,0,0,1-1.16-1.21v1.47H181Zm7.39,13.25a6.16,6.16,0,0,0,.78-3.29,5.41,5.41,0,0,0-.78-3,2.57,2.57,0,0,0-2.3-1.19,3.18,3.18,0,0,0-2.32,1,4.34,4.34,0,0,0-1,3.22,7.15,7.15,0,0,0,.41,2.63,2.83,2.83,0,0,0,2.86,1.9A2.58,2.58,0,0,0,188.39,767.11Z"/><path class="cls-2" d="M193.45,758.19h1.84v2a4.48,4.48,0,0,1,1.1-1.42,2.9,2.9,0,0,1,2-.83h.19l.44,0v2a2.09,2.09,0,0,0-.32,0h-.32a2.77,2.77,0,0,0-2.24.94,3.31,3.31,0,0,0-.79,2.17v6.61h-1.93Z"/><path class="cls-2" d="M200.72,753.91h2v2.2h-2Zm0,4.33h2v11.45h-2Z"/><path class="cls-2" d="M204.75,768.17l6.83-8.25h-6.32v-1.73h8.92v1.58L207.39,768h7v1.73h-9.64Z"/><path class="cls-2" d="M87.51,806.75a6.66,6.66,0,0,1,2.78-2.68l2.07-1.19a9.82,9.82,0,0,0,1.94-1.37,2.84,2.84,0,0,0,.88-2,2.89,2.89,0,0,0-.8-2.14,3,3,0,0,0-2.15-.79A2.81,2.81,0,0,0,89.48,798a5.33,5.33,0,0,0-.45,2.24h-2A6.87,6.87,0,0,1,87.8,797a4.66,4.66,0,0,1,4.44-2.24,4.57,4.57,0,0,1,5.08,4.61,4.33,4.33,0,0,1-1.3,3.16,12.82,12.82,0,0,1-2.7,1.85l-1.47.81a9.74,9.74,0,0,0-1.65,1.11,4,4,0,0,0-1.36,2.07h8.4v1.83H86.68A9,9,0,0,1,87.51,806.75Z"/><path class="cls-2" d="M108.5,797.29a10.94,10.94,0,0,1,1,5.21,12.54,12.54,0,0,1-.93,5.18,4.57,4.57,0,0,1-4.43,3,4.42,4.42,0,0,1-4.12-2.41,11,11,0,0,1-1.13-5.39,13.32,13.32,0,0,1,.68-4.5c.84-2.34,2.37-3.5,4.58-3.5A4.55,4.55,0,0,1,108.5,797.29Zm-1.94,10.24c.59-.88.89-2.54.89-5a12.22,12.22,0,0,0-.65-4.31,2.44,2.44,0,0,0-2.5-1.69,2.63,2.63,0,0,0-2.51,1.6,11.19,11.19,0,0,0-.79,4.73,11.49,11.49,0,0,0,.51,3.78,2.75,2.75,0,0,0,5,.85Z"/><path class="cls-2" d="M112.57,799.32v-1.49a7.82,7.82,0,0,0,2.93-.68,3.35,3.35,0,0,0,1.23-2.26h1.53v15.32h-2.07V799.32Z"/><path class="cls-2" d="M134.21,795.08v1.69a17.42,17.42,0,0,0-2,2.5,25.24,25.24,0,0,0-2.18,3.85,27.91,27.91,0,0,0-1.42,3.66c-.2.71-.47,1.85-.8,3.43H125.7a26.43,26.43,0,0,1,3.22-8.77A28,28,0,0,1,132,797h-8.51v-1.95Z"/><path class="cls-2" d="M585.13,722.84a7.09,7.09,0,0,1-4.69,1.37h-3.9v6.73h-3.88V712.23h8a6.46,6.46,0,0,1,4.43,1.45,5.65,5.65,0,0,1,1.65,4.48C586.77,720.37,586.23,721.93,585.13,722.84Zm-3-6.74a3.2,3.2,0,0,0-2.09-.62h-3.52V721h3.52a3,3,0,0,0,2.09-.67,2.77,2.77,0,0,0,.74-2.14A2.6,2.6,0,0,0,582.15,716.1Z"/><path class="cls-2" d="M597.3,716.78l.32,0v3.71a5,5,0,0,0-.61,0l-.44,0a3,3,0,0,0-2.93,1.43,5.49,5.49,0,0,0-.42,2.46v6.61h-3.64V717.1H593v2.42a7.76,7.76,0,0,1,1.46-1.9,4,4,0,0,1,2.64-.85Z"/><path class="cls-2" d="M611.28,729.25a7.63,7.63,0,0,1-10.64,0,8.56,8.56,0,0,1,0-10.4,7.56,7.56,0,0,1,10.64,0,8.6,8.6,0,0,1,0,10.4Zm-2.9-2a6.47,6.47,0,0,0,0-6.41,3.22,3.22,0,0,0-4.88,0,6.4,6.4,0,0,0,0,6.41,3.2,3.2,0,0,0,4.88,0Z"/><path class="cls-2" d="M623,717.33a4.21,4.21,0,0,1,1.58,1.53v-6.61h3.67v18.69h-3.52V729a5.12,5.12,0,0,1-1.76,1.79,5,5,0,0,1-2.46.55,5.12,5.12,0,0,1-4.08-2,7.5,7.5,0,0,1-1.66-5,8.63,8.63,0,0,1,1.63-5.57,5.3,5.3,0,0,1,4.36-2A4.49,4.49,0,0,1,623,717.33Zm.88,9.85a5,5,0,0,0,.8-2.95,4.5,4.5,0,0,0-1.28-3.63,2.74,2.74,0,0,0-1.83-.66,2.56,2.56,0,0,0-2.33,1.2,5.59,5.59,0,0,0-.74,3,5.47,5.47,0,0,0,.76,3.07,2.56,2.56,0,0,0,2.29,1.15A2.65,2.65,0,0,0,623.84,727.18Z"/><path class="cls-2" d="M635.1,717.1v8.35a4.46,4.46,0,0,0,.28,1.77,1.93,1.93,0,0,0,1.94,1.06,2.52,2.52,0,0,0,2.52-1.5,5.38,5.38,0,0,0,.36-2.15V717.1h3.66v13.84h-3.51v-2s-.12.17-.26.38a2.34,2.34,0,0,1-.48.56,5.13,5.13,0,0,1-1.64,1,5.67,5.67,0,0,1-1.85.28q-3.06,0-4.13-2.21a8.58,8.58,0,0,1-.59-3.59V717.1Z"/><path class="cls-2" d="M655.66,722.07a3.25,3.25,0,0,0-.52-1.4,2.19,2.19,0,0,0-1.9-.84,2.51,2.51,0,0,0-2.51,1.82,7.73,7.73,0,0,0-.35,2.56,7.09,7.09,0,0,0,.35,2.44,2.43,2.43,0,0,0,2.45,1.73,2.12,2.12,0,0,0,1.8-.69,3.3,3.3,0,0,0,.65-1.77h3.7a6.1,6.1,0,0,1-1.2,3.12,5.79,5.79,0,0,1-5,2.37,5.91,5.91,0,0,1-4.92-2,8,8,0,0,1-1.58-5.13,8.15,8.15,0,0,1,1.74-5.55,6.09,6.09,0,0,1,4.81-2,7.2,7.2,0,0,1,4.26,1.17,5.46,5.46,0,0,1,2,4.13Z"/><path class="cls-2" d="M660.42,719.81v-2.58h1.93v-3.86h3.58v3.86h2.25v2.58h-2.25v7.31a1.68,1.68,0,0,0,.21,1.06,2.4,2.4,0,0,0,1.32.21h.72v2.7l-1.72.06c-1.71.06-2.88-.23-3.5-.89a2.61,2.61,0,0,1-.61-1.91v-8.52Z"/><path class="cls-2" d="M678,712.23h4.1l7.43,13v-13h3.64v18.71h-3.91l-7.62-13.28v13.28H678Z"/><path class="cls-2" d="M702,722.53a6.29,6.29,0,0,0,1.44-.32,1.08,1.08,0,0,0,.79-1,1.2,1.2,0,0,0-.6-1.17,3.74,3.74,0,0,0-1.76-.33,2.28,2.28,0,0,0-1.84.64,2.5,2.5,0,0,0-.51,1.27H696a5.37,5.37,0,0,1,1-3q1.44-1.83,5-1.83a8.76,8.76,0,0,1,4.06.91,3.45,3.45,0,0,1,1.77,3.4v6.35c0,.44,0,1,0,1.6a2,2,0,0,0,.22,1,1.27,1.27,0,0,0,.53.42v.53h-3.93a4,4,0,0,1-.23-.78c0-.25-.08-.53-.1-.84a7.56,7.56,0,0,1-1.74,1.38,5.23,5.23,0,0,1-2.66.67,4.55,4.55,0,0,1-3.12-1.07,3.81,3.81,0,0,1-1.23-3,3.93,3.93,0,0,1,2-3.69,8.82,8.82,0,0,1,3.2-.89Zm2.21,1.68a3.52,3.52,0,0,1-.7.35,6.33,6.33,0,0,1-1,.25l-.82.15a5.38,5.38,0,0,0-1.67.5,1.64,1.64,0,0,0-.85,1.53,1.59,1.59,0,0,0,.52,1.34,2,2,0,0,0,1.27.42,3.74,3.74,0,0,0,2.18-.69,2.88,2.88,0,0,0,1-2.5Z"/><path class="cls-2" d="M728.22,717.16a4,4,0,0,1,1.62,1.24,3.87,3.87,0,0,1,.78,1.78,11.55,11.55,0,0,1,.13,2l0,8.72H727v-8.81a2.87,2.87,0,0,0-.26-1.29,1.79,1.79,0,0,0-1.77-1,2.08,2.08,0,0,0-2.07,1.25,3.81,3.81,0,0,0-.29,1.58v8.24H719V722.7a4.66,4.66,0,0,0-.25-1.79,1.77,1.77,0,0,0-1.79-1,2.13,2.13,0,0,0-2.08,1,3.78,3.78,0,0,0-.3,1.7v8.33H710.9V717.13h3.51v2a5.92,5.92,0,0,1,1.27-1.54,5,5,0,0,1,5.3-.11,4,4,0,0,1,1.19,1.66,4.59,4.59,0,0,1,1.76-1.79,5.43,5.43,0,0,1,2.49-.57A4.74,4.74,0,0,1,728.22,717.16Z"/><path class="cls-2" d="M743.09,717.38a5.71,5.71,0,0,1,2.4,2,6.93,6.93,0,0,1,1.1,2.86,17.13,17.13,0,0,1,.12,2.75H736.63a3.3,3.3,0,0,0,1.45,2.92,3.62,3.62,0,0,0,2,.52,3,3,0,0,0,2-.64,2.83,2.83,0,0,0,.74-1h3.7a4.56,4.56,0,0,1-1.34,2.5,6.72,6.72,0,0,1-5.21,2,7.55,7.55,0,0,1-4.87-1.7c-1.41-1.14-2.11-3-2.11-5.54a7.46,7.46,0,0,1,1.9-5.51,6.67,6.67,0,0,1,5-1.92A7.89,7.89,0,0,1,743.09,717.38Zm-5.41,3.13a3.76,3.76,0,0,0-1,2.14H743a3,3,0,0,0-1-2.18,3.17,3.17,0,0,0-2.15-.75A2.85,2.85,0,0,0,737.68,720.51Z"/><path class="cls-2" d="M572.75,753.91h2.15v15.78h-2.15Z"/><path class="cls-2" d="M578.63,753.91h7.17a7.07,7.07,0,0,1,2.93.53,3.74,3.74,0,0,1,2.18,3.73,4.29,4.29,0,0,1-.58,2.32,4.37,4.37,0,0,1-1.64,1.45,3.23,3.23,0,0,1,1.39,1,3.57,3.57,0,0,1,.52,2l.07,2.12a8,8,0,0,0,.15,1.34,1.33,1.33,0,0,0,.69,1v.35h-2.62a1.86,1.86,0,0,1-.17-.52,11,11,0,0,1-.11-1.25l-.13-2.63a2.23,2.23,0,0,0-1.11-2.07,4.41,4.41,0,0,0-1.87-.29h-4.73v6.76h-2.14Zm7,7.23a4,4,0,0,0,2.31-.6,2.47,2.47,0,0,0,.85-2.17,2.36,2.36,0,0,0-1.19-2.3,3.87,3.87,0,0,0-1.7-.32h-5.08v5.39Z"/><path class="cls-2" d="M598.85,753.91h2.42L607,769.69h-2.34l-1.6-4.72h-6.24l-1.71,4.72h-2.19Zm3.51,9.32-2.39-7-2.55,7Z"/><path class="cls-2" d="M608.94,753.91h2.51l7.87,12.75V753.91h2v15.78H619L611,757v12.73h-2Z"/><path class="cls-2" d="M634.27,753.91h1.63l-5,15.78h-1.63Z"/><path class="cls-2" d="M654.25,753.91v1.88h-5.32v13.9h-2.16v-13.9h-5.32v-1.88Z"/><path class="cls-2" d="M659.68,762.73a1,1,0,0,0,.89-.56,1.64,1.64,0,0,0,.13-.74A1.58,1.58,0,0,0,660,760a3.74,3.74,0,0,0-2-.45,2.55,2.55,0,0,0-2.14.82,2.81,2.81,0,0,0-.47,1.35h-1.8a3.33,3.33,0,0,1,1.38-3,5.61,5.61,0,0,1,3.07-.84,6.35,6.35,0,0,1,3.3.77,2.64,2.64,0,0,1,1.25,2.41v6.63a.78.78,0,0,0,.13.48c.08.12.25.18.52.18h.29l.34,0v1.43a6.08,6.08,0,0,1-.69.16,5.25,5.25,0,0,1-.64,0,1.57,1.57,0,0,1-1.45-.71,2.6,2.6,0,0,1-.33-1.06,4.92,4.92,0,0,1-1.7,1.34,5.25,5.25,0,0,1-2.44.57,3.63,3.63,0,0,1-2.62-1,3.25,3.25,0,0,1-1-2.43,3.12,3.12,0,0,1,1-2.48,4.74,4.74,0,0,1,2.62-1.08ZM655.61,768a2.28,2.28,0,0,0,1.45.48,4.5,4.5,0,0,0,2-.47,2.67,2.67,0,0,0,1.61-2.57v-1.55a3.37,3.37,0,0,1-.91.37,6.3,6.3,0,0,1-1.1.22l-1.16.15a4.5,4.5,0,0,0-1.59.44,1.72,1.72,0,0,0-.89,1.61A1.6,1.6,0,0,0,655.61,768Z"/><path class="cls-2" d="M665.59,753.86h1.88v5.73a4.19,4.19,0,0,1,1.52-1.27,4.29,4.29,0,0,1,1.92-.43,4.5,4.5,0,0,1,3.5,1.48,6.27,6.27,0,0,1,1.34,4.35,7.46,7.46,0,0,1-1.32,4.53,4.3,4.3,0,0,1-3.68,1.81,3.78,3.78,0,0,1-2.22-.63,5.42,5.42,0,0,1-1.16-1.21v1.47h-1.78ZM673,767.11a6.16,6.16,0,0,0,.78-3.29,5.41,5.41,0,0,0-.78-3,2.57,2.57,0,0,0-2.3-1.19,3.18,3.18,0,0,0-2.32,1,4.34,4.34,0,0,0-1,3.22,7.15,7.15,0,0,0,.41,2.63,2.83,2.83,0,0,0,2.86,1.9A2.58,2.58,0,0,0,673,767.11Z"/><path class="cls-2" d="M678,758.19h1.84v2a4.48,4.48,0,0,1,1.1-1.42,2.9,2.9,0,0,1,2-.83h.19l.44,0v2a2.09,2.09,0,0,0-.32,0H683a2.77,2.77,0,0,0-2.24.94,3.31,3.31,0,0,0-.79,2.17v6.61H678Z"/><path class="cls-2" d="M685.31,753.91h2v2.2h-2Zm0,4.33h2v11.45h-2Z"/><path class="cls-2" d="M689.34,768.17l6.83-8.25h-6.32v-1.73h8.92v1.58L692,768h7v1.73h-9.64Z"/><path class="cls-2" d="M572.1,806.75a6.66,6.66,0,0,1,2.78-2.68l2.07-1.19a9.82,9.82,0,0,0,1.94-1.37,2.84,2.84,0,0,0,.88-2,2.89,2.89,0,0,0-.8-2.14,3,3,0,0,0-2.15-.79,2.81,2.81,0,0,0-2.75,1.51,5.18,5.18,0,0,0-.45,2.24h-2a6.87,6.87,0,0,1,.74-3.27,4.66,4.66,0,0,1,4.44-2.24,4.57,4.57,0,0,1,5.08,4.61,4.33,4.33,0,0,1-1.3,3.16,12.82,12.82,0,0,1-2.7,1.85l-1.47.81a9.74,9.74,0,0,0-1.65,1.11,4,4,0,0,0-1.36,2.07h8.4v1.83H571.27A9,9,0,0,1,572.1,806.75Z"/><path class="cls-2" d="M593.09,797.29a10.94,10.94,0,0,1,1,5.21,12.54,12.54,0,0,1-.93,5.18,4.57,4.57,0,0,1-4.43,3,4.42,4.42,0,0,1-4.12-2.41,11,11,0,0,1-1.13-5.39,13.32,13.32,0,0,1,.68-4.5c.84-2.34,2.37-3.5,4.58-3.5A4.55,4.55,0,0,1,593.09,797.29Zm-1.94,10.24c.59-.88.89-2.54.89-5a12.22,12.22,0,0,0-.65-4.31,2.44,2.44,0,0,0-2.5-1.69,2.63,2.63,0,0,0-2.51,1.6,11.19,11.19,0,0,0-.79,4.73,11.49,11.49,0,0,0,.51,3.78,2.75,2.75,0,0,0,5,.85Z"/><path class="cls-2" d="M597.16,799.32v-1.49a7.7,7.7,0,0,0,2.92-.68,3.32,3.32,0,0,0,1.24-2.26h1.53v15.32h-2.07V799.32Z"/><path class="cls-2" d="M618.8,795.08v1.69a17.42,17.42,0,0,0-2,2.5,25.24,25.24,0,0,0-2.18,3.85,27.91,27.91,0,0,0-1.42,3.66c-.2.71-.47,1.85-.8,3.43h-2.14a26.43,26.43,0,0,1,3.22-8.77,28,28,0,0,1,3.1-4.41H608.1v-1.95Z"/><rect class="cls-2" x="86" y="860.52" width="423.42" height="63.96"/><path class="cls-1" d="M234.6,895.15a4.71,4.71,0,0,0,.67,2.38c.74,1.14,2,1.71,3.94,1.71a6.72,6.72,0,0,0,2.3-.38,2.63,2.63,0,0,0,2-2.6,2.29,2.29,0,0,0-.85-2,8.54,8.54,0,0,0-2.71-1l-2.25-.53a9.76,9.76,0,0,1-3.14-1.14,3.62,3.62,0,0,1-1.59-3.22,5,5,0,0,1,1.56-3.81,6.2,6.2,0,0,1,4.43-1.49,7.55,7.55,0,0,1,4.48,1.31,4.79,4.79,0,0,1,1.84,4.18H243.1a4.59,4.59,0,0,0-.72-2.12,4.08,4.08,0,0,0-3.47-1.35,3.92,3.92,0,0,0-2.85.87,2.79,2.79,0,0,0-.86,2,2,2,0,0,0,1,1.85,13.84,13.84,0,0,0,3,.94l2.34.55a7.09,7.09,0,0,1,2.61,1.09,4.15,4.15,0,0,1,1.59,3.51,4.4,4.4,0,0,1-2,4.09,8.89,8.89,0,0,1-4.71,1.23,6.94,6.94,0,0,1-4.9-1.64,5.56,5.56,0,0,1-1.74-4.42Z"/><path class="cls-1" d="M249.14,883.49h2.36v7.11h8.85v-7.11h2.35V900.7h-2.35v-8.05H251.5v8.05h-2.36Z"/><path class="cls-1" d="M280.6,886a9.49,9.49,0,0,1,1.71,5.85,10.28,10.28,0,0,1-2,6.41,7.77,7.77,0,0,1-6.55,3,7.85,7.85,0,0,1-6.25-2.63,9.92,9.92,0,0,1-2-6.4,10.13,10.13,0,0,1,1.73-6,7.5,7.5,0,0,1,6.59-3.19Q278.4,883,280.6,886Zm-2.06,11a9.39,9.39,0,0,0,1.38-5.08,7.23,7.23,0,0,0-1.59-4.89,5.41,5.41,0,0,0-4.34-1.86,5.66,5.66,0,0,0-4.36,1.84,7.71,7.71,0,0,0-1.69,5.41,7.89,7.89,0,0,0,1.45,4.83c1,1.31,2.53,2,4.69,2A4.85,4.85,0,0,0,278.54,896.92Z"/><path class="cls-1" d="M285.31,883.49H293a5.25,5.25,0,0,1,3.69,1.29,4.7,4.7,0,0,1,1.4,3.64,5.24,5.24,0,0,1-1.25,3.51,4.72,4.72,0,0,1-3.84,1.5h-5.37v7.27h-2.33Zm9,2.37a4.85,4.85,0,0,0-2.1-.37h-4.61v6h4.61a4.42,4.42,0,0,0,2.53-.67,2.68,2.68,0,0,0,1-2.36A2.59,2.59,0,0,0,294.35,885.86Z"/><path class="cls-1" d="M307.34,883.49h2.74l8.59,13.91V883.49h2.23V900.7h-2.62l-8.72-13.89V900.7h-2.22Z"/><path class="cls-1" d="M338.85,886a9.49,9.49,0,0,1,1.71,5.85,10.22,10.22,0,0,1-2,6.41,8.68,8.68,0,0,1-12.79.37,9.93,9.93,0,0,1-2-6.4,10.2,10.2,0,0,1,1.73-6A7.51,7.51,0,0,1,332.1,883Q336.66,883,338.85,886Zm-2.06,11a9.39,9.39,0,0,0,1.38-5.08,7.23,7.23,0,0,0-1.59-4.89,5.4,5.4,0,0,0-4.34-1.86,5.68,5.68,0,0,0-4.36,1.84,7.76,7.76,0,0,0-1.69,5.41,8,8,0,0,0,1.45,4.83,5.44,5.44,0,0,0,4.69,2A4.83,4.83,0,0,0,336.79,896.92Z"/><path class="cls-1" d="M344.48,883.49l3.25,14,3.89-14h2.52l3.9,14,3.24-14h2.56l-4.52,17.21h-2.45l-4-14.27-4,14.27h-2.45L342,883.49Z"/><rect class="cls-2" x="570.59" y="860.52" width="423.42" height="63.96"/><path class="cls-1" d="M719.19,895.15a4.82,4.82,0,0,0,.66,2.38c.75,1.14,2.06,1.71,3.94,1.71a6.78,6.78,0,0,0,2.31-.38,2.63,2.63,0,0,0,2-2.6,2.27,2.27,0,0,0-.86-2,8.37,8.37,0,0,0-2.7-1l-2.26-.53a9.78,9.78,0,0,1-3.13-1.14,3.62,3.62,0,0,1-1.59-3.22,5,5,0,0,1,1.56-3.81,6.18,6.18,0,0,1,4.43-1.49,7.52,7.52,0,0,1,4.47,1.31,4.77,4.77,0,0,1,1.85,4.18h-2.2a4.48,4.48,0,0,0-.71-2.12,4.1,4.1,0,0,0-3.48-1.35,3.91,3.91,0,0,0-2.84.87,2.75,2.75,0,0,0-.86,2,2,2,0,0,0,1,1.85,13.64,13.64,0,0,0,3,.94l2.34.55a7.09,7.09,0,0,1,2.61,1.09,4.15,4.15,0,0,1,1.59,3.51,4.42,4.42,0,0,1-2,4.09,8.89,8.89,0,0,1-4.71,1.23,7,7,0,0,1-4.91-1.64,5.59,5.59,0,0,1-1.73-4.42Z"/><path class="cls-1" d="M733.73,883.49h2.36v7.11h8.84v-7.11h2.36V900.7h-2.36v-8.05h-8.84v8.05h-2.36Z"/><path class="cls-1" d="M765.18,886a9.43,9.43,0,0,1,1.72,5.85,10.28,10.28,0,0,1-2,6.41,7.77,7.77,0,0,1-6.55,3,7.85,7.85,0,0,1-6.25-2.63,9.93,9.93,0,0,1-2-6.4,10.14,10.14,0,0,1,1.74-6,7.5,7.5,0,0,1,6.58-3.19Q763,883,765.18,886Zm-2,11a9.38,9.38,0,0,0,1.37-5.08,7.23,7.23,0,0,0-1.58-4.89,5.41,5.41,0,0,0-4.34-1.86,5.65,5.65,0,0,0-4.36,1.84,7.71,7.71,0,0,0-1.69,5.41,7.89,7.89,0,0,0,1.45,4.83q1.44,2,4.69,2A4.85,4.85,0,0,0,763.13,896.92Z"/><path class="cls-1" d="M769.9,883.49h7.7a5.25,5.25,0,0,1,3.69,1.29,4.74,4.74,0,0,1,1.4,3.64,5.3,5.3,0,0,1-1.25,3.51,4.72,4.72,0,0,1-3.84,1.5h-5.37v7.27H769.9Zm9,2.37a4.87,4.87,0,0,0-2.11-.37h-4.6v6h4.6a4.46,4.46,0,0,0,2.54-.67,2.68,2.68,0,0,0,1-2.36A2.59,2.59,0,0,0,778.94,885.86Z"/><path class="cls-1" d="M791.93,883.49h2.74l8.59,13.91V883.49h2.23V900.7h-2.62l-8.72-13.89V900.7h-2.22Z"/><path class="cls-1" d="M823.44,886a9.49,9.49,0,0,1,1.71,5.85,10.22,10.22,0,0,1-2,6.41,8.68,8.68,0,0,1-12.79.37,9.87,9.87,0,0,1-2-6.4,10.2,10.2,0,0,1,1.73-6,7.51,7.51,0,0,1,6.59-3.19Q821.25,883,823.44,886Zm-2.06,11a9.39,9.39,0,0,0,1.38-5.08,7.23,7.23,0,0,0-1.59-4.89,5.4,5.4,0,0,0-4.34-1.86,5.66,5.66,0,0,0-4.36,1.84,7.71,7.71,0,0,0-1.69,5.41,7.89,7.89,0,0,0,1.45,4.83c1,1.31,2.53,2,4.69,2A4.84,4.84,0,0,0,821.38,896.92Z"/><path class="cls-1" d="M829.07,883.49l3.24,14,3.9-14h2.52l3.9,14,3.24-14h2.56l-4.52,17.21h-2.45l-4-14.27-4,14.27H831l-4.5-17.21Z"/><path class="cls-3" d="M86,158.72H509.41a0,0,0,0,1,0,0V476.28A211.71,211.71,0,0,1,297.71,688h0A211.71,211.71,0,0,1,86,476.28V158.72a0,0,0,0,1,0,0Z" transform="translate(595.41 846.71) rotate(-180)"/><path class="cls-3" d="M570.59,158.72H994a0,0,0,0,1,0,0V476.28A211.71,211.71,0,0,1,782.29,688h0A211.71,211.71,0,0,1,570.59,476.28V158.72A0,0,0,0,1,570.59,158.72Z" transform="translate(1564.59 846.71) rotate(-180)"/><path class="cls-2" d="M264.4,417.2a6.52,6.52,0,0,1,4.81,1.76,6.24,6.24,0,0,1,1.79,4.67,6.86,6.86,0,0,1-7.41,7.38,8.53,8.53,0,0,1-5.07-1.41,5.87,5.87,0,0,1-2.43-3.94l2.89-.39a4,4,0,0,0,1.5,2.52,4.84,4.84,0,0,0,3,.88,4.49,4.49,0,0,0,3.44-1.29,5.11,5.11,0,0,0,1.21-3.64,4.34,4.34,0,0,0-1.08-3.13,4,4,0,0,0-3-1.13,5.68,5.68,0,0,0-2.57.61,5.32,5.32,0,0,0-2,1.62l-2.49-.94,1.6-11.13h10.88V412h-8.6l-1.05,6.78A6.88,6.88,0,0,1,264.4,417.2Z"/><path class="cls-2" d="M284.93,415.22a3.3,3.3,0,0,0-1-2.53,3.73,3.73,0,0,0-2.66-.94,4.06,4.06,0,0,0-3.39,1.44,6.47,6.47,0,0,0-1.08,4.23l-2.75-.37a6.79,6.79,0,0,1,7.22-7.76,6.65,6.65,0,0,1,4.78,1.64,5.66,5.66,0,0,1,1.77,4.29,7.59,7.59,0,0,1-1.07,3.78,18,18,0,0,1-3.46,4.08l-5.61,5.16h10.68v2.4H274v-2.46l7.56-6.93a13,13,0,0,0,2.64-3.09A5.84,5.84,0,0,0,284.93,415.22Z"/><path class="cls-2" d="M303,419.57a5.18,5.18,0,0,1,2.64,2,6,6,0,0,1-1.17,7.73A8.11,8.11,0,0,1,299,431a8.36,8.36,0,0,1-5.5-1.71,5.65,5.65,0,0,1-2-4.53,5.34,5.34,0,0,1,.94-3.11,5.68,5.68,0,0,1,2.67-2.06,4.76,4.76,0,0,1-2.28-1.81,5.09,5.09,0,0,1-.79-2.86,5,5,0,0,1,1.92-4.09,7.75,7.75,0,0,1,5.07-1.55,7.84,7.84,0,0,1,5.09,1.51,5,5,0,0,1,1.86,4.13,5.14,5.14,0,0,1-.77,2.82A4.94,4.94,0,0,1,303,419.57Zm.69,5.1a3.6,3.6,0,0,0-1.26-2.87,5,5,0,0,0-3.38-1.09,5.08,5.08,0,0,0-3.43,1.09,3.6,3.6,0,0,0-1.26,2.87,3.7,3.7,0,0,0,1.25,3,5.08,5.08,0,0,0,3.44,1.08,4.94,4.94,0,0,0,3.4-1.09A3.72,3.72,0,0,0,303.64,424.67ZM294.79,415a3.32,3.32,0,0,0,1.14,2.59,4.46,4.46,0,0,0,3.07,1,4.3,4.3,0,0,0,3-1,3.32,3.32,0,0,0,1.15-2.58,3.13,3.13,0,0,0-1.12-2.53,4.63,4.63,0,0,0-3-.92,4.71,4.71,0,0,0-3.09.92A3.1,3.1,0,0,0,294.79,415Z"/><path class="cls-2" d="M318,415.28a6.18,6.18,0,0,1,4.88,2.14,8.2,8.2,0,0,1,1.83,5.61,8.69,8.69,0,0,1-1.83,5.78A6,6,0,0,1,318,431a5.71,5.71,0,0,1-4.86-2.43v7.62h-2.67V415.64H313v2.26A5.63,5.63,0,0,1,318,415.28Zm4,7.86a6.47,6.47,0,0,0-1.18-4.06,3.83,3.83,0,0,0-3.18-1.52,4,4,0,0,0-3.29,1.53,6.27,6.27,0,0,0-1.23,4.05,6.17,6.17,0,0,0,1.24,4,4,4,0,0,0,3.28,1.54,3.85,3.85,0,0,0,3.18-1.51A6.46,6.46,0,0,0,321.91,423.14Z"/><path class="cls-2" d="M325.67,430.64l5.64-7.61L326,415.64H329l4,5.5,4.09-5.5h3L334.59,423l5.67,7.64h-3.12l-4.2-5.72-4.24,5.72Z"/><rect class="cls-2" x="366.89" y="418.56" width="141.03" height="3"/><rect class="cls-2" x="506.41" y="410.31" width="3" height="19.5"/><rect class="cls-2" x="87.5" y="418.56" width="141.03" height="3"/><rect class="cls-2" x="86" y="410.31" width="3" height="19.5"/><path class="cls-2" d="M749,417.2a6.56,6.56,0,0,1,4.82,1.76,6.27,6.27,0,0,1,1.78,4.67,7.42,7.42,0,0,1-2,5.39,7.34,7.34,0,0,1-5.44,2,8.53,8.53,0,0,1-5.07-1.41,5.87,5.87,0,0,1-2.43-3.94l2.89-.39a4,4,0,0,0,1.5,2.52,4.84,4.84,0,0,0,3,.88,4.49,4.49,0,0,0,3.44-1.29,5.11,5.11,0,0,0,1.21-3.64,4.34,4.34,0,0,0-1.08-3.13,4,4,0,0,0-3-1.13,5.68,5.68,0,0,0-2.57.61,5.32,5.32,0,0,0-2,1.62l-2.49-.94,1.6-11.13h10.88V412h-8.59l-1.06,6.78A6.88,6.88,0,0,1,749,417.2Z"/><path class="cls-2" d="M769.52,415.22a3.3,3.3,0,0,0-1-2.53,3.73,3.73,0,0,0-2.66-.94,4.06,4.06,0,0,0-3.39,1.44,6.47,6.47,0,0,0-1.08,4.23l-2.75-.37a6.79,6.79,0,0,1,7.22-7.76,6.65,6.65,0,0,1,4.78,1.64,5.66,5.66,0,0,1,1.77,4.29,7.59,7.59,0,0,1-1.07,3.78,18,18,0,0,1-3.46,4.08l-5.61,5.16H773v2.4h-14.4v-2.46l7.56-6.93a13,13,0,0,0,2.64-3.09A5.84,5.84,0,0,0,769.52,415.22Z"/><path class="cls-2" d="M787.54,419.57a5.18,5.18,0,0,1,2.64,2,6,6,0,0,1-1.17,7.73,8.11,8.11,0,0,1-5.42,1.74,8.36,8.36,0,0,1-5.5-1.71,5.68,5.68,0,0,1-2-4.53,5.34,5.34,0,0,1,.94-3.11,5.68,5.68,0,0,1,2.67-2.06,4.76,4.76,0,0,1-2.28-1.81,5.09,5.09,0,0,1-.79-2.86,5,5,0,0,1,1.92-4.09,7.75,7.75,0,0,1,5.07-1.55,7.84,7.84,0,0,1,5.09,1.51,5.53,5.53,0,0,1,1.09,6.95A4.94,4.94,0,0,1,787.54,419.57Zm.69,5.1A3.6,3.6,0,0,0,787,421.8a5,5,0,0,0-3.38-1.09,5,5,0,0,0-3.42,1.09,3.57,3.57,0,0,0-1.27,2.87,3.73,3.73,0,0,0,1.25,3,5.1,5.1,0,0,0,3.44,1.08,4.94,4.94,0,0,0,3.4-1.09A3.72,3.72,0,0,0,788.23,424.67ZM779.38,415a3.32,3.32,0,0,0,1.14,2.59,4.46,4.46,0,0,0,3.07,1,4.3,4.3,0,0,0,3-1,3.29,3.29,0,0,0,1.15-2.58,3.13,3.13,0,0,0-1.12-2.53,4.62,4.62,0,0,0-3-.92,4.71,4.71,0,0,0-3.09.92A3.1,3.1,0,0,0,779.38,415Z"/><path class="cls-2" d="M802.54,415.28a6.18,6.18,0,0,1,4.88,2.14,8.2,8.2,0,0,1,1.83,5.61,8.69,8.69,0,0,1-1.83,5.78,6,6,0,0,1-4.88,2.2,5.71,5.71,0,0,1-4.86-2.43v7.62H795V415.64h2.61v2.26A5.63,5.63,0,0,1,802.54,415.28Zm4,7.86a6.47,6.47,0,0,0-1.18-4.06,3.83,3.83,0,0,0-3.17-1.52,4,4,0,0,0-3.3,1.53,6.27,6.27,0,0,0-1.23,4.05,6.17,6.17,0,0,0,1.24,4,4,4,0,0,0,3.29,1.54,3.85,3.85,0,0,0,3.17-1.51A6.46,6.46,0,0,0,806.5,423.14Z"/><path class="cls-2" d="M810.26,430.64,815.9,423l-5.36-7.39h3.06l4,5.5,4.09-5.5h3L819.18,423l5.67,7.64h-3.12l-4.2-5.72-4.24,5.72Z"/><rect class="cls-2" x="851.48" y="418.56" width="141.03" height="3"/><rect class="cls-2" x="991" y="410.31" width="3" height="19.5"/><rect class="cls-2" x="572.09" y="418.56" width="141.03" height="3"/><rect class="cls-2" x="570.59" y="410.31" width="3" height="19.5"/></g></svg>