<svg xmlns="http://www.w3.org/2000/svg" viewBox="0 0 1080 1080"><defs><style>.cls-1{fill:#003692;}.cls-2{fill:#002969;}.cls-3{fill:#fff;}</style></defs><g id="Background"><rect class="cls-1" width="1080" height="1080"/></g><g id="Graphic"><path class="cls-2" d="M86.4,86.4H993.6a0,0,0,0,1,0,0V540A453.6,453.6,0,0,1,540,993.6h0A453.6,453.6,0,0,1,86.4,540V86.4a0,0,0,0,1,0,0Z" transform="translate(1080 1080) rotate(180)"/><path class="cls-3" d="M501.85,547.29h-13v-2.4H494v-13.5a4.44,4.44,0,0,1-2.4.56h-2.81v-2.36h2.64a2.43,2.43,0,0,0,2-.8,3.91,3.91,0,0,0,.66-2.51h2.77v18.61h5Z"/><path class="cls-3" d="M517.23,547.29h-13v-2.4h5.12v-13.5a4.44,4.44,0,0,1-2.4.56h-2.81v-2.36h2.64a2.43,2.43,0,0,0,2-.8,3.91,3.91,0,0,0,.66-2.51h2.77v18.61h5Z"/><path class="cls-3" d="M530.44,531.86a3.29,3.29,0,0,0-1-2.52,3.73,3.73,0,0,0-2.66-1,4,4,0,0,0-3.39,1.44,6.49,6.49,0,0,0-1.08,4.23l-2.75-.37a7.09,7.09,0,0,1,1.8-5.67,7.17,7.17,0,0,1,5.42-2.09,6.66,6.66,0,0,1,4.77,1.64,5.63,5.63,0,0,1,1.78,4.29,7.59,7.59,0,0,1-1.07,3.78,18.45,18.45,0,0,1-3.46,4.09l-5.61,5.16h10.68v2.4h-14.4v-2.46L527,537.9a13,13,0,0,0,2.64-3.09A5.88,5.88,0,0,0,530.44,531.86Z"/><path class="cls-3" d="M548.46,536.21a5.18,5.18,0,0,1,2.64,2,5.72,5.72,0,0,1,.9,3.23,5.64,5.64,0,0,1-2.08,4.5,8.07,8.07,0,0,1-5.42,1.74,8.35,8.35,0,0,1-5.49-1.71,5.64,5.64,0,0,1-2-4.53,5.34,5.34,0,0,1,.95-3.11,5.75,5.75,0,0,1,2.67-2.06,4.76,4.76,0,0,1-2.28-1.81,5.41,5.41,0,0,1,1.13-6.95,9.17,9.17,0,0,1,10.16,0,5,5,0,0,1,1.86,4.12,5.14,5.14,0,0,1-.77,2.82A4.88,4.88,0,0,1,548.46,536.21Zm.69,5.1a3.6,3.6,0,0,0-1.26-2.87,5,5,0,0,0-3.39-1.08,5.12,5.12,0,0,0-3.42,1.08,3.6,3.6,0,0,0-1.26,2.87,3.7,3.7,0,0,0,1.25,3,5,5,0,0,0,3.43,1.09,5,5,0,0,0,3.41-1.09A3.78,3.78,0,0,0,549.15,541.31Zm-8.85-9.68a3.3,3.3,0,0,0,1.14,2.58,4.44,4.44,0,0,0,3.06,1,4.37,4.37,0,0,0,3-1,3.34,3.34,0,0,0,1.14-2.58,3.11,3.11,0,0,0-1.12-2.54,4.65,4.65,0,0,0-3-.92,4.75,4.75,0,0,0-3.08.92A3.11,3.11,0,0,0,540.3,531.63Z"/><path class="cls-3" d="M570.31,531.92a6.16,6.16,0,0,1,4.88,2.14,8.24,8.24,0,0,1,1.83,5.61,8.73,8.73,0,0,1-1.83,5.79,6.06,6.06,0,0,1-4.88,2.19,5.71,5.71,0,0,1-4.86-2.43v7.62h-2.66V532.29h2.6v2.25A5.65,5.65,0,0,1,570.31,531.92Zm4,7.87a6.44,6.44,0,0,0-1.18-4.07,3.81,3.81,0,0,0-3.17-1.51,4,4,0,0,0-3.3,1.53,6.27,6.27,0,0,0-1.23,4,6.17,6.17,0,0,0,1.25,4,4,4,0,0,0,3.28,1.53,3.81,3.81,0,0,0,3.17-1.51A6.37,6.37,0,0,0,574.27,539.79Z"/><path class="cls-3" d="M578,547.29l5.63-7.62-5.36-7.38h3.07l4,5.49,4.09-5.49h3L587,539.64l5.66,7.65H589.5l-4.2-5.73-4.23,5.73Z"/><rect class="cls-3" x="609.17" y="535.2" width="382.93" height="3"/><rect class="cls-3" x="990.6" y="526.95" width="3" height="19.5"/><rect class="cls-3" x="87.87" y="535.2" width="382.94" height="3"/><rect class="cls-3" x="86.37" y="526.95" width="3" height="19.5"/></g></svg>