<svg xmlns="http://www.w3.org/2000/svg" viewBox="0 0 864 504"><defs><style>.cls-1{fill:#f5f1f0;}.cls-2{fill:none;}.cls-3{fill:#ff8672;}.cls-4{fill:#ff8873;}</style></defs><title>material-82</title><g id="Layer_1" data-name="Layer 1"><path class="cls-1" d="M702.5,210.5h-541v-85h541Zm-540-1h539v-83h-539Z"/><path d="M645,159h-9v18h9l9-9Z"/><path d="M670.5,159h-9v18h9Z"/><path d="M591,159v9h-4.5v-9h-9v9H573v-9h-9v18h36V159Z"/><path d="M609,177v-9a9,9,0,0,0,9-9h9A18,18,0,0,1,609,177Z"/><path d="M654,153l12-12,12,12Z"/><path d="M271.5,169.76V165a7.52,7.52,0,0,0-6-7.35V154.5h-3v3.15a7.52,7.52,0,0,0-6,7.35v4.76l-3,3V177h21v-4.24Zm-15,4.24,3-3v-6a4.5,4.5,0,0,1,9,0v6l3,3Zm4.5,4.5h6a3,3,0,0,1-6,0Z"/><rect class="cls-2" x="246" y="150" width="36" height="36"/><path class="cls-1" d="M702.5,378.5h-541v-85h541Zm-540-1h539v-83h-539Z"/><circle class="cls-3" cx="279" cy="159" r="3"/><path d="M657,345l-2.12-2.12,6.88-6.88-6.88-6.88L657,327l9,9Z"/><rect class="cls-2" x="642.01" y="318" width="36" height="36"/><path d="M364.49,335a6.58,6.58,0,0,1,1.11,1.72,4.47,4.47,0,0,1,.35,1.67,3.69,3.69,0,0,1-.27,1.41,3.15,3.15,0,0,1-.8,1.15,3.76,3.76,0,0,1-1.33.77,5.41,5.41,0,0,1-1.83.28h-7.48l-.14-3.08h7.14c.92,0,1.37-.35,1.37-1a1.55,1.55,0,0,0-.47-1l-4.76-5.43,2.21-2.08Z"/><path d="M373,342a5.23,5.23,0,0,1-1.5-.21,3.11,3.11,0,0,1-1.25-.71,3.61,3.61,0,0,1-.84-1.33,6.08,6.08,0,0,1-.31-2.06V324.64h2.86V337a2.15,2.15,0,0,0,.41,1.41,1.43,1.43,0,0,0,1.21.52h.65c.41,0,.61.49.61,1.48s-.2,1.6-.61,1.6Z"/><path d="M376.75,338.92a1.64,1.64,0,0,0,1.88-1.82v-3.3h2.86v3.5a4.8,4.8,0,0,1-1.18,3.51A4.45,4.45,0,0,1,377,342h-2.83a.49.49,0,0,1-.49-.38,3.46,3.46,0,0,1-.13-1.1,4,4,0,0,1,.13-1.21.49.49,0,0,1,.49-.39Zm1.46,9.07h-3.16v-2.85h3.16Z"/><path d="M384.62,326a2.56,2.56,0,0,0-.87.11,1.09,1.09,0,0,0-.53.67l-.59,1.29-1.79-.87.87-1.9a6.49,6.49,0,0,1,.49-.93,2.23,2.23,0,0,1,.55-.59,2,2,0,0,1,.72-.32,5,5,0,0,1,1-.1h5.66l-.12,2.64Zm.14,2.88h2.86V342h-2.86Z"/><path d="M399.07,342a5.07,5.07,0,0,1-2-.35,3.63,3.63,0,0,1-1.35-.94,3.59,3.59,0,0,1-.75-1.37,5.58,5.58,0,0,1-.24-1.65v-4h2.83V337a2.21,2.21,0,0,0,.42,1.44,2.13,2.13,0,0,0,1.7.52h8.8a1.6,1.6,0,0,0,1.87-1.82v-3.3h2.86v4a4.32,4.32,0,0,1-.37,1.86,3.72,3.72,0,0,1-1,1.32,4,4,0,0,1-1.37.78A4.83,4.83,0,0,1,409,342Zm4.37-10.47h-2.91v-2.75h2.91Zm4,0h-2.91v-2.75h2.91Z"/><path d="M426.06,335a6.33,6.33,0,0,1,1.11,1.72,4.47,4.47,0,0,1,.35,1.67,3.69,3.69,0,0,1-.27,1.41,3.15,3.15,0,0,1-.8,1.15,3.67,3.67,0,0,1-1.33.77,5.41,5.41,0,0,1-1.83.28h-7.48l-.14-3.08h7.14c.92,0,1.38-.35,1.38-1a1.57,1.57,0,0,0-.48-1L419,331.42l2.21-2.08Z"/><path d="M434.52,342a5.28,5.28,0,0,1-1.5-.21,3.11,3.11,0,0,1-1.25-.71,3.61,3.61,0,0,1-.84-1.33,6.08,6.08,0,0,1-.31-2.06V324.64h2.86V337a2.21,2.21,0,0,0,.41,1.41,1.43,1.43,0,0,0,1.22.52h.64c.41,0,.62.49.62,1.48s-.21,1.6-.62,1.6Z"/><path d="M437.37,338.92c.6,0,1.25,0,1.94-.06a7.58,7.58,0,0,0,2-.36l-3.53-4.62,1.43-2.72h7.31a3.89,3.89,0,0,1,2.2.58,2.48,2.48,0,0,1,1.08,1.55c0,.15.06.3.08.44a3,3,0,0,1,0,.43,5,5,0,0,1-.14.78,4.68,4.68,0,0,1-.42,1,10.27,10.27,0,0,1-.87,1.2,18.19,18.19,0,0,1-1.48,1.54,5.3,5.3,0,0,0,1.44.25c.49,0,1,0,1.64,0H452a.5.5,0,0,1,.49.38,3.84,3.84,0,0,1,.12,1.1,4.44,4.44,0,0,1-.12,1.21.5.5,0,0,1-.49.39h-2.49c-.57,0-1.09,0-1.59,0a10.44,10.44,0,0,1-1.41-.18,5.8,5.8,0,0,1-1.29-.45,6.33,6.33,0,0,1-1.2-.81,11.63,11.63,0,0,1-1.54.77,9.59,9.59,0,0,1-1.54.44,10.74,10.74,0,0,1-1.61.21c-.55,0-1.14.06-1.75.06h-1.85a.49.49,0,0,1-.49-.38,3.78,3.78,0,0,1-.13-1.1,4.36,4.36,0,0,1,.13-1.21.49.49,0,0,1,.49-.39Zm9.47-4.12c0-.5-.38-.75-1.15-.75h-4.48l3.05,3.83a13.11,13.11,0,0,0,2-1.91A2.13,2.13,0,0,0,446.84,334.8Z"/><path d="M453.25,338.92c1.29,0,1.93-.61,1.93-1.82v-3.3H458v3.3a1.59,1.59,0,0,0,.6,1.4,2.36,2.36,0,0,0,1.39.42c1.4,0,2.1-.61,2.1-1.82v-3.3H465v3.3a1.69,1.69,0,0,0,.52,1.4,1.88,1.88,0,0,0,1.22.42,1.75,1.75,0,0,0,1.3-.46,1.84,1.84,0,0,0,.46-1.36v-3.3h2.86v3.5a4.76,4.76,0,0,1-1.19,3.51A4.5,4.5,0,0,1,466.8,342a4.91,4.91,0,0,1-1.82-.35,3.21,3.21,0,0,1-1.51-1.41,3.33,3.33,0,0,1-1.58,1.41,5.44,5.44,0,0,1-3.84,0,3.14,3.14,0,0,1-1.52-1.41,3.41,3.41,0,0,1-1.52,1.41,4.64,4.64,0,0,1-1.79.35H452a.49.49,0,0,1-.49-.38,3.46,3.46,0,0,1-.13-1.1,4,4,0,0,1,.13-1.21.49.49,0,0,1,.49-.39Z"/><path d="M482.43,342a5.12,5.12,0,0,1-2-.35,3.57,3.57,0,0,1-2.1-2.31,5.58,5.58,0,0,1-.24-1.65v-4h2.83V337a2.21,2.21,0,0,0,.42,1.44,2.14,2.14,0,0,0,1.71.52h8.79a1.61,1.61,0,0,0,1.88-1.82v-3.3h2.85v4a4.47,4.47,0,0,1-.36,1.86,3.75,3.75,0,0,1-1,1.32,4,4,0,0,1-1.37.78,4.73,4.73,0,0,1-1.58.27Zm6.55,6h-3.17v-2.85H489Z"/><path d="M499.81,324.64h2.86V342h-2.86Z"/><path d="M508.49,345.72a5.11,5.11,0,0,0,1.84-.29,3.54,3.54,0,0,0,1.27-.8,3.33,3.33,0,0,0,.78-1.19,4.73,4.73,0,0,0,.34-1.44h-1.9a7.51,7.51,0,0,1-2.38-.31,3.26,3.26,0,0,1-1.46-.91,3.41,3.41,0,0,1-.74-1.47,8.35,8.35,0,0,1-.21-2,6.63,6.63,0,0,1,.31-2.06,5,5,0,0,1,.91-1.69,4.32,4.32,0,0,1,1.5-1.16,4.64,4.64,0,0,1,2.07-.44,5.4,5.4,0,0,1,1.8.31,3.91,3.91,0,0,1,1.5,1,4.77,4.77,0,0,1,1,1.74,7.88,7.88,0,0,1,.38,2.6v1.29h2.27c.41,0,.61.49.61,1.48s-.2,1.6-.61,1.6h-2.33a7.38,7.38,0,0,1-.56,2.6,6.65,6.65,0,0,1-1.38,2.16,6.4,6.4,0,0,1-2.12,1.47,6.81,6.81,0,0,1-2.77.55H505.8l-.16-3.06Zm.28-8.56a1.79,1.79,0,0,0,.44,1.37,2.69,2.69,0,0,0,1.72.39h1.85V337.6a3,3,0,0,0-.55-2,2,2,0,0,0-1.52-.59,1.82,1.82,0,0,0-1.43.56A2.36,2.36,0,0,0,508.77,337.16Z"/><path d="M525.82,340.43a9.73,9.73,0,0,1-1.48.74,9.22,9.22,0,0,1-1.54.48,14.24,14.24,0,0,1-1.78.27c-.64.05-1.38.08-2.22.08h-1a.49.49,0,0,1-.49-.38,3.46,3.46,0,0,1-.13-1.1,4,4,0,0,1,.13-1.21.49.49,0,0,1,.49-.39h1.12c.69,0,1.31,0,1.88,0a13.15,13.15,0,0,0,1.52-.16,7.49,7.49,0,0,0,1.3-.32,6.77,6.77,0,0,0,1.23-.57l3.56-2.05c-.13-.24-.26-.45-.38-.64a1.52,1.52,0,0,0-.45-.46,1.85,1.85,0,0,0-.65-.28,4.09,4.09,0,0,0-1-.1H520l.17-3.08h6.22a5.48,5.48,0,0,1,1.55.22,3.75,3.75,0,0,1,1.46.86,6.49,6.49,0,0,1,1.26,1.76,12.57,12.57,0,0,1,1,3Zm.51-12.15h-3.17v-2.86h3.17Z"/><path d="M543.52,335.48a2.5,2.5,0,0,1-1.9-.68c0,.36.06.73.08,1.11s0,.79,0,1.22v6.58h-2.86V336.9c0-1.12,0-2.08-.08-2.89s-.14-1.55-.25-2.2-.25-1.28-.41-1.86-.33-1.22-.52-1.89l2.72-1c.17.65.32,1.24.46,1.76s.29,1.06.43,1.62a7.51,7.51,0,0,0,.26.76,2.16,2.16,0,0,0,.36.63,1.52,1.52,0,0,0,.55.42,1.86,1.86,0,0,0,.79.15,1.67,1.67,0,0,0,1.22-.42,1.41,1.41,0,0,0,.44-1.06,20.11,20.11,0,0,0-.48-3.25l2.75-.61c.14.69.26,1.37.35,2.05a16.52,16.52,0,0,1,.12,1.89,5.5,5.5,0,0,1-.29,1.81,4.26,4.26,0,0,1-.82,1.41,3.26,3.26,0,0,1-1.27.91A4.13,4.13,0,0,1,543.52,335.48Z"/><path d="M560.1,341.55a7.77,7.77,0,0,1-.51,2.83,7.38,7.38,0,0,1-1.38,2.3,6.56,6.56,0,0,1-2.1,1.54,6.36,6.36,0,0,1-2.65.56H551.7l-.14-3.06h1.17a5.64,5.64,0,0,0,2.14-.35,4,4,0,0,0,1.45-.93,3.66,3.66,0,0,0,.81-1.35,4.78,4.78,0,0,0,.25-1.54V333.8h2.86v3.33a1.64,1.64,0,0,0,.54,1.34,2.13,2.13,0,0,0,1.39.45h.31c.41,0,.61.49.61,1.48s-.2,1.6-.61,1.6h-.31a3.59,3.59,0,0,1-1.12-.18,1.83,1.83,0,0,1-.95-.74Z"/><path d="M564.44,338.92a1.63,1.63,0,0,0,1.87-1.82v-3.3h2.89v3.3a1.59,1.59,0,0,0,.6,1.4,2.4,2.4,0,0,0,1.41.42h.73c.43,0,.64.49.64,1.48s-.21,1.6-.64,1.6h-.81a5.14,5.14,0,0,1-1.93-.35,3.22,3.22,0,0,1-1.52-1.41,3.55,3.55,0,0,1-1.51,1.41,4.38,4.38,0,0,1-1.73.35h-2a.48.48,0,0,1-.49-.38,3.46,3.46,0,0,1-.13-1.1,4,4,0,0,1,.13-1.21.48.48,0,0,1,.49-.39Zm2.4-8.4h-2.91v-2.74h2.91Zm4,0h-2.91v-2.74h2.91Z"/><path d="M572.19,338.92a2.56,2.56,0,0,0,1.49-.38,1.43,1.43,0,0,0,.53-1.24v-.62a6.24,6.24,0,0,1,.32-2.07,4.45,4.45,0,0,1,.94-1.63,4.5,4.5,0,0,1,1.5-1.05,4.94,4.94,0,0,1,2-.37,5.14,5.14,0,0,1,2,.37,4,4,0,0,1,1.47,1.07,4.82,4.82,0,0,1,.9,1.64,6.81,6.81,0,0,1,.3,2.07,5.53,5.53,0,0,1-1.27,3.9,4.45,4.45,0,0,1-3.46,1.39,5.42,5.42,0,0,1-2.14-.43,3.14,3.14,0,0,1-1.55-1.39,2.9,2.9,0,0,1-1.38,1.46,4.17,4.17,0,0,1-1.65.36h-.25a.49.49,0,0,1-.49-.38,3.78,3.78,0,0,1-.13-1.1,4.36,4.36,0,0,1,.13-1.21.49.49,0,0,1,.49-.39Zm8.71-2a2.78,2.78,0,0,0-.43-1.59,2.17,2.17,0,0,0-3.08,0,2.7,2.7,0,0,0-.47,1.64,1.94,1.94,0,0,0,.54,1.49,2,2,0,0,0,1.45.5A1.77,1.77,0,0,0,580.9,336.9Z"/><path d="M596.27,338.5c.19-1,.38-2,.59-2.93a26.77,26.77,0,0,1,.78-2.77,27.43,27.43,0,0,1,1.18-2.85,33.16,33.16,0,0,1,1.76-3.18l2.38,1.48c-.71,1.22-1.34,2.37-1.9,3.46a33.06,33.06,0,0,0-1.51,3.42,36.42,36.42,0,0,0-1.22,3.85c-.36,1.38-.71,2.95-1.05,4.73h-2c-.33-1.78-.69-3.35-1.06-4.73s-.79-2.67-1.23-3.85a35.31,35.31,0,0,0-1.5-3.42c-.55-1.09-1.18-2.24-1.89-3.46l2.35-1.48a31.11,31.11,0,0,1,1.76,3.18,27.58,27.58,0,0,1,1.19,2.85,22.71,22.71,0,0,1,.8,2.77C595.92,336.5,596.1,337.47,596.27,338.5Z"/><path d="M610.75,332.28c-.17,1-.36,2-.56,2.92a24.34,24.34,0,0,1-.8,2.75,30.26,30.26,0,0,1-1.19,2.87,34.34,34.34,0,0,1-1.76,3.2l-2.36-1.52c.71-1.19,1.34-2.34,1.89-3.44a36.61,36.61,0,0,0,1.5-3.43c.45-1.19.86-2.46,1.23-3.84s.73-2.94,1.07-4.71h2q.5,2.66,1,4.71c.36,1.38.77,2.65,1.21,3.84a34.26,34.26,0,0,0,1.52,3.43c.56,1.1,1.19,2.25,1.9,3.44L615.06,344a30.24,30.24,0,0,1-1.76-3.2,27.69,27.69,0,0,1-1.18-2.87,24.18,24.18,0,0,1-.78-2.75C611.13,334.28,610.93,333.31,610.75,332.28Z"/><path class="cls-4" d="M213,348V324H195v24h3l6-6,6,6Z"/><rect class="cls-2" x="186" y="318" width="36" height="36"/><path d="M273,342a4.45,4.45,0,0,0-2.89,1.08l-10.69-6.24a4.78,4.78,0,0,0,.08-.84,3.86,3.86,0,0,0-.09-.84l10.7-6.24a4.48,4.48,0,1,0-1.61-3.42,4.69,4.69,0,0,0,.08.84l-10.69,6.24A4.45,4.45,0,0,0,255,331.5a4.5,4.5,0,1,0,2.89,7.92l10.69,6.24a4.6,4.6,0,0,0-.08.84A4.5,4.5,0,1,0,273,342Zm0-18a1.5,1.5,0,1,1-1.5,1.5A1.5,1.5,0,0,1,273,324Zm-18,13.5a1.5,1.5,0,1,1,1.5-1.5A1.5,1.5,0,0,1,255,337.5ZM273,348a1.5,1.5,0,1,1,1.5-1.5A1.5,1.5,0,0,1,273,348Z"/><rect class="cls-2" x="246" y="318" width="36" height="36"/><path d="M190.51,165h6v6h-6Zm10.5,6h6v-6h-6Zm10.5-6v6h6v-6Z"/><rect class="cls-2" x="186" y="150" width="36" height="36"/></g></svg>