<svg xmlns="http://www.w3.org/2000/svg" viewBox="0 0 864 252"><defs><style>.cls-1{fill:#fff;}.cls-2{fill:#bdb9b9;}.cls-3{fill:#858282;}.cls-4{fill:none;}</style></defs><title>material-81</title><g id="Layer_1" data-name="Layer 1"><rect class="cls-1" x="162" y="84" width="540" height="84"/><path class="cls-2" d="M702.5,168.5h-541v-85h541Zm-540-1h539v-83h-539Z"/><path class="cls-3" d="M328.5,109.5v-9H309V120h3l4.5-4.5h3v9H330V129h3.08l5.92-5.93V109.5Zm-13.24,3L312,115.75V103.5h13.5v6h-6v3ZM336,121.83l-3,3V121.5H322.5v-9H336Zm-3-3.33h-7.5v-3H333Z"/><rect class="cls-4" x="306" y="96" width="36" height="36"/><path d="M420,127.5h24v-15H420Zm15-9h3v3h-3Zm9-12v3H420v-3l3-3h3v-3h3v3h6v-3h3v3h3Z"/><rect class="cls-4" x="414" y="96" width="36" height="36"/><path class="cls-3" d="M549,126V102H531v24h3l6-6,6,6Zm-15-4.24V105h12v16.76l-6-6Z"/><rect class="cls-4" x="522" y="96" width="36" height="36"/><path class="cls-3" d="M202.51,111h6v6h-6Zm10.5,6h6v-6h-6Zm10.5-6v6h6v-6Z"/><rect class="cls-4" x="198" y="96" width="36" height="36"/><path class="cls-3" d="M626.27,152.39a3.43,3.43,0,0,0,1.17-.18,2.26,2.26,0,0,0,.82-.52,2.21,2.21,0,0,0,.51-.76A3,3,0,0,0,629,150h-1.22a5,5,0,0,1-1.53-.2,2.07,2.07,0,0,1-.94-.58,2.29,2.29,0,0,1-.47-.95,5.34,5.34,0,0,1-.14-1.26,4.34,4.34,0,0,1,.2-1.32,3.25,3.25,0,0,1,.58-1.09,2.9,2.9,0,0,1,1-.75,3.1,3.1,0,0,1,1.33-.28,3.45,3.45,0,0,1,1.16.2,2.37,2.37,0,0,1,1,.63,3,3,0,0,1,.66,1.12,5,5,0,0,1,.24,1.67V148h1.46c.27,0,.4.32.4.95s-.13,1-.4,1h-1.49a5.14,5.14,0,0,1-.36,1.67,4.66,4.66,0,0,1-.89,1.39,4.09,4.09,0,0,1-1.36.94,4.26,4.26,0,0,1-1.78.36h-1.82l-.11-2Zm.18-5.5a1.17,1.17,0,0,0,.27.88,1.74,1.74,0,0,0,1.11.25H629v-.85a1.94,1.94,0,0,0-.35-1.31,1.27,1.27,0,0,0-1-.38,1.18,1.18,0,0,0-.92.36A1.5,1.5,0,0,0,626.45,146.89Z"/><path class="cls-3" d="M640.14,147.39a1.24,1.24,0,0,0,.58.5,2.08,2.08,0,0,0,.79.13h1a.3.3,0,0,1,.31.24,2.19,2.19,0,0,1,.09.71,2.51,2.51,0,0,1-.09.78.3.3,0,0,1-.31.25h-1.1a3.44,3.44,0,0,1-1-.14,2.47,2.47,0,0,1-.72-.39,2,2,0,0,1-.48-.59,4,4,0,0,1-.33-.75l-1.46.86a7.81,7.81,0,0,1-1,.48,6,6,0,0,1-1,.3,8.8,8.8,0,0,1-1.14.18c-.41,0-.89.05-1.43.05h-.65a.31.31,0,0,1-.31-.24,2.23,2.23,0,0,1-.08-.71,2.57,2.57,0,0,1,.08-.78.31.31,0,0,1,.31-.25H633c.45,0,.85,0,1.21,0a7,7,0,0,0,1-.1,4.68,4.68,0,0,0,.84-.2,5.07,5.07,0,0,0,.79-.37l2.28-1.32c-.08-.15-.16-.29-.24-.41a1,1,0,0,0-.29-.3,1.65,1.65,0,0,0-.42-.18,2.87,2.87,0,0,0-.65-.06h-3.81l.1-2h4a3.77,3.77,0,0,1,1,.14,2.36,2.36,0,0,1,.93.55,3.71,3.71,0,0,1,.81,1.14,7.74,7.74,0,0,1,.63,1.91Zm-2.46,6.46h-2V152h2Z"/><path class="cls-3" d="M643.78,148a1.05,1.05,0,0,0,1.21-1.17v-2.12h1.85v2.12a1,1,0,0,0,.39.9,1.53,1.53,0,0,0,.91.27h.46c.28,0,.42.32.42.95s-.14,1-.42,1h-.52a3.11,3.11,0,0,1-1.24-.23,2,2,0,0,1-1-.9,2.32,2.32,0,0,1-1,.9,2.64,2.64,0,0,1-1.12.23h-1.26a.32.32,0,0,1-.32-.24,2.57,2.57,0,0,1-.08-.71,2.94,2.94,0,0,1,.08-.78.32.32,0,0,1,.32-.25Zm1.55-5.4h-1.87v-1.76h1.87Zm2.57,0H646v-1.76h1.87Z"/><path class="cls-3" d="M649.4,148c.82,0,1.24-.39,1.24-1.17v-2.12h1.82v2.12a1,1,0,0,0,.38.9,1.53,1.53,0,0,0,.89.27q1.35,0,1.35-1.17v-2.12h1.84v2.12a1.1,1.1,0,0,0,.33.9,1.22,1.22,0,0,0,.79.27,1,1,0,0,0,1.13-1.17v-2.12H661v2.12a1,1,0,0,0,.38.9,1.5,1.5,0,0,0,.88.27h.41a.3.3,0,0,1,.31.24,2.19,2.19,0,0,1,.09.71,2.51,2.51,0,0,1-.09.78.3.3,0,0,1-.31.25h-.41a3.21,3.21,0,0,1-1.26-.23,1,1,0,0,0-2,0,2.49,2.49,0,0,1-1,.23,2.69,2.69,0,0,1-1.15-.23,2.07,2.07,0,0,1-.92-.9,2.11,2.11,0,0,1-1,.9,3.43,3.43,0,0,1-2.47,0,2,2,0,0,1-1-.9,2.16,2.16,0,0,1-1,.9,2.78,2.78,0,0,1-1.15.23h-.78a.31.31,0,0,1-.31-.24,2.23,2.23,0,0,1-.08-.71,2.57,2.57,0,0,1,.08-.78.31.31,0,0,1,.31-.25Z"/><path class="cls-3" d="M667.85,149a8.59,8.59,0,0,1-1,.48,6,6,0,0,1-1,.3,9.08,9.08,0,0,1-1.14.18c-.42,0-.89.05-1.43.05h-.65a.32.32,0,0,1-.32-.24,2.57,2.57,0,0,1-.08-.71,2.94,2.94,0,0,1,.08-.78.32.32,0,0,1,.32-.25h.72c.44,0,.85,0,1.21,0a7,7,0,0,0,1-.1,4.38,4.38,0,0,0,.83-.2,4.76,4.76,0,0,0,.8-.37L669.5,146c-.08-.15-.16-.29-.24-.41a1.18,1.18,0,0,0-.29-.3,1.65,1.65,0,0,0-.42-.18,2.93,2.93,0,0,0-.65-.06h-3.82l.11-2h4a3.83,3.83,0,0,1,1,.14,2.36,2.36,0,0,1,.93.55,3.71,3.71,0,0,1,.81,1.14,7.37,7.37,0,0,1,.62,1.91Zm.27,4.86h-2V152h2Z"/><path class="cls-3" d="M506.36,147.23a3.54,3.54,0,0,1,.13-1,4.21,4.21,0,0,1,.4-.94,5.78,5.78,0,0,1,.66-.94c.26-.32.57-.67.91-1l-.82-.83,1.24-1.33c.74.73,1.36,1.37,1.86,1.91a13,13,0,0,1,1.2,1.47,5.2,5.2,0,0,1,.64,1.23,4,4,0,0,1,.19,1.19,3,3,0,0,1-.94,2.19,2.85,2.85,0,0,1-1,.62,3.45,3.45,0,0,1-1.3.23,4,4,0,0,1-1.28-.2,3,3,0,0,1-1-.56,2.66,2.66,0,0,1-.64-.88A2.71,2.71,0,0,1,506.36,147.23Zm4.57-.42a2,2,0,0,0-.05-.42,2.47,2.47,0,0,0-.2-.46,4,4,0,0,0-.43-.57c-.18-.2-.42-.45-.71-.74a9.3,9.3,0,0,0-.72.76,4.62,4.62,0,0,0-.41.6,1.6,1.6,0,0,0-.19.47,1.81,1.81,0,0,0,0,.4,1.13,1.13,0,0,0,.34.82,1.66,1.66,0,0,0,2.05,0A1.16,1.16,0,0,0,510.93,146.81Z"/><path class="cls-3" d="M518,148a1.18,1.18,0,0,0,.87-.25.78.78,0,0,0,.23-.51,2,2,0,0,0-.05-.36c0-.15-.11-.4-.22-.74s-.27-.82-.48-1.42-.49-1.38-.85-2.35l1.75-.74,1.85,5.18a2.25,2.25,0,0,0,.51.91,1.31,1.31,0,0,0,.93.28h.23c.27,0,.4.32.4.95s-.13,1-.4,1h-.23a2.93,2.93,0,0,1-1.14-.22,2.18,2.18,0,0,1-1-.91,2.08,2.08,0,0,1-.95.89,3.14,3.14,0,0,1-1.23.24h-3.87l-.09-2Z"/><path class="cls-3" d="M523.57,148c.82,0,1.24-.39,1.24-1.17v-2.12h1.82v2.12a1,1,0,0,0,.38.9,1.53,1.53,0,0,0,.89.27q1.35,0,1.35-1.17v-2.12h1.84v2.12a1.1,1.1,0,0,0,.33.9,1.22,1.22,0,0,0,.79.27,1.11,1.11,0,0,0,.83-.3,1.18,1.18,0,0,0,.3-.87v-2.12h1.84V147a3.08,3.08,0,0,1-.77,2.26,2.88,2.88,0,0,1-2.13.76,2.91,2.91,0,0,1-1.17-.23,2,2,0,0,1-1-.9,2.11,2.11,0,0,1-1,.9,3.43,3.43,0,0,1-2.47,0,2,2,0,0,1-1-.9,2.16,2.16,0,0,1-1,.9,2.78,2.78,0,0,1-1.15.23h-.78a.31.31,0,0,1-.31-.24,2.23,2.23,0,0,1-.08-.71,2.57,2.57,0,0,1,.08-.78.31.31,0,0,1,.31-.25Zm6.22-5.4h-1.87v-1.76h1.87Zm1.32-2.52H529.2v-1.75h1.91Zm1.26,2.52H530.5v-1.76h1.87Z"/><path class="cls-3" d="M549.36,149.55a5.57,5.57,0,0,1-.32,1.9,4.54,4.54,0,0,1-.9,1.52,4.2,4.2,0,0,1-1.42,1,4.68,4.68,0,0,1-1.86.37h-1.13a4,4,0,0,1-3.14-1.25,4.9,4.9,0,0,1-1.11-3.4v-3.22h1.82v3.15a3.93,3.93,0,0,0,.14,1.13,2.27,2.27,0,0,0,.46.87,2.1,2.1,0,0,0,.83.56,3.54,3.54,0,0,0,1.25.19h.79a3.35,3.35,0,0,0,1.29-.22,2.39,2.39,0,0,0,.86-.61,2.44,2.44,0,0,0,.48-.9,4.34,4.34,0,0,0,.14-1.09v-4.84h1.82Zm-4.23-5.09h-2v-1.84h2Z"/><path class="cls-3" d="M554,150a3.12,3.12,0,0,1-1-.14,2,2,0,0,1-.8-.45,2.3,2.3,0,0,1-.54-.86,3.82,3.82,0,0,1-.2-1.32v-8.39h1.84v7.94a1.47,1.47,0,0,0,.26.91,1,1,0,0,0,.79.33h.41c.26,0,.39.32.39.95s-.13,1-.39,1Z"/><path class="cls-3" d="M555.55,148c.83,0,1.24-.39,1.24-1.17v-2.12h1.82v2.12a1,1,0,0,0,.39.9,1.51,1.51,0,0,0,.89.27q1.35,0,1.35-1.17v-2.12h1.83v2.12a1.1,1.1,0,0,0,.34.9,1.19,1.19,0,0,0,.78.27c.76,0,1.13-.39,1.13-1.17v-2.12h1.84v2.12a1,1,0,0,0,.39.9,1.49,1.49,0,0,0,.87.27h.41a.31.31,0,0,1,.32.24,2.57,2.57,0,0,1,.08.71,2.94,2.94,0,0,1-.08.78.31.31,0,0,1-.32.25h-.41a3.16,3.16,0,0,1-1.25-.23,2,2,0,0,1-1-.9,2.18,2.18,0,0,1-1,.9,2.57,2.57,0,0,1-1,.23,2.64,2.64,0,0,1-1.14-.23,2.14,2.14,0,0,1-.93-.9,2.11,2.11,0,0,1-1,.9,3.4,3.4,0,0,1-2.46,0,2,2,0,0,1-1-.9,2.18,2.18,0,0,1-1,.9,2.78,2.78,0,0,1-1.15.23h-.77a.32.32,0,0,1-.32-.24,2.57,2.57,0,0,1-.08-.71,2.94,2.94,0,0,1,.08-.78.32.32,0,0,1,.32-.25Zm6.23-5.4h-1.87v-1.76h1.87Zm1.31-2.52h-1.91v-1.75h1.91Zm1.26,2.52h-1.87v-1.76h1.87Z"/><path class="cls-3" d="M570.49,148a1.05,1.05,0,0,0,1.21-1.17v-2.12h1.83V147a3.11,3.11,0,0,1-.75,2.26,2.88,2.88,0,0,1-2.13.76h-1.82a.31.31,0,0,1-.31-.24,2.57,2.57,0,0,1-.08-.71,2.94,2.94,0,0,1,.08-.78.31.31,0,0,1,.31-.25Zm2.49-5.4h-2v-1.84h2Z"/><path d="M407.94,150a3.12,3.12,0,0,1-1-.14,2,2,0,0,1-.8-.45,2.18,2.18,0,0,1-.54-.86,3.82,3.82,0,0,1-.2-1.32v-8.39h1.84v7.94a1.47,1.47,0,0,0,.26.91.92.92,0,0,0,.78.33h.42c.26,0,.39.32.39.95s-.13,1-.39,1Z"/><path d="M408.73,150a.32.32,0,0,1-.32-.24,2.57,2.57,0,0,1-.08-.71,2.94,2.94,0,0,1,.08-.78.32.32,0,0,1,.32-.25h2.57a3,3,0,0,1-1.17-2.32,2.93,2.93,0,0,1,.22-1.14,2.76,2.76,0,0,1,.63-1,2.91,2.91,0,0,1,1-.66,3.3,3.3,0,0,1,1.34-.25,3.14,3.14,0,0,1,1.28.25,2.47,2.47,0,0,1,.9.67,2.82,2.82,0,0,1,.53.94,3.46,3.46,0,0,1,.17,1.06,3.12,3.12,0,0,1-.28,1.32,4.07,4.07,0,0,1-.8,1.09h2.52c.57,0,.86-.22.86-.67a.84.84,0,0,0-.07-.32,2.06,2.06,0,0,0-.27-.43l-3-3.64,1.35-1.28,3,3.75a4.21,4.21,0,0,1,.73,1.18,3,3,0,0,1,.21,1.07,2.49,2.49,0,0,1-.17.91,2,2,0,0,1-.52.73,2.23,2.23,0,0,1-.85.5,3.53,3.53,0,0,1-1.18.18h-2a12.94,12.94,0,0,1-1.47-.07,1.51,1.51,0,0,0-1.63-.07c-.25,0-.5.08-.76.1l-.76,0h-2.45Zm4.44-5.4a1.27,1.27,0,0,0-1,.4,1.41,1.41,0,0,0-.37,1,1.56,1.56,0,0,0,.43,1.07,3.33,3.33,0,0,0,1,.78,3.17,3.17,0,0,0,.9-.77,1.74,1.74,0,0,0,.35-1,1.44,1.44,0,0,0-.36-1A1.25,1.25,0,0,0,413.17,144.6Z"/><path d="M425.74,148a1.15,1.15,0,0,0,.86-.25.74.74,0,0,0,.23-.51,1.38,1.38,0,0,0-.05-.36c0-.15-.11-.4-.22-.74s-.26-.82-.47-1.42-.5-1.38-.86-2.35l1.75-.74,1.85,5.18a2.25,2.25,0,0,0,.52.91,1.27,1.27,0,0,0,.92.28h.24c.26,0,.39.32.39.95s-.13,1-.39,1h-.24a3,3,0,0,1-1.14-.22,2.18,2.18,0,0,1-1-.91,2.1,2.1,0,0,1-.94.89A3.15,3.15,0,0,1,426,150h-3.87l-.09-2Z"/><path d="M432.16,148c.81,0,1.21-.39,1.21-1.17v-2.12h1.84V147a3.12,3.12,0,0,1-.76,2.26,2.86,2.86,0,0,1-2.13.76h-1.81a.32.32,0,0,1-.32-.24,2.57,2.57,0,0,1-.08-.71,2.94,2.94,0,0,1,.08-.78.32.32,0,0,1,.32-.25Zm.2,5.76h-1.85V152h1.85Zm2.59,0H433.1V152H435Z"/><path d="M443.48,145.5a3.88,3.88,0,0,1,.72,1.11,2.77,2.77,0,0,1,.22,1.07,2.49,2.49,0,0,1-.17.91,2,2,0,0,1-.51.73,2.35,2.35,0,0,1-.86.5,3.53,3.53,0,0,1-1.18.18h-4.8l-.09-2h4.59c.58,0,.88-.22.88-.67a1,1,0,0,0-.31-.66l-3.06-3.49,1.42-1.34Z"/><path d="M448.35,151.53a4.65,4.65,0,0,1-.91,1.48,4.3,4.3,0,0,1-1.39,1,4.14,4.14,0,0,1-1.72.36H443.2l-.09-2h.75a3.77,3.77,0,0,0,1.38-.22,2.58,2.58,0,0,0,.93-.6,2.35,2.35,0,0,0,.52-.87,3,3,0,0,0,.16-1v-5h1.84v5A4.75,4.75,0,0,1,448.35,151.53Zm.35-8.91h-2v-1.84h2Z"/><path d="M453.28,150a3.12,3.12,0,0,1-1-.14,2,2,0,0,1-.8-.45,2.18,2.18,0,0,1-.54-.86,3.82,3.82,0,0,1-.2-1.32v-8.39h1.84v7.94a1.47,1.47,0,0,0,.26.91,1,1,0,0,0,.78.33h.42c.26,0,.39.32.39.95s-.13,1-.39,1Z"/><path d="M455.72,148c.81,0,1.21-.39,1.21-1.17v-2.12h1.84V147a3.12,3.12,0,0,1-.76,2.26,2.84,2.84,0,0,1-2.12.76h-1.82a.32.32,0,0,1-.32-.24,2.57,2.57,0,0,1-.08-.71,2.94,2.94,0,0,1,.08-.78.32.32,0,0,1,.32-.25Zm.94,5.83h-2V152h2Z"/><path class="cls-3" d="M274.71,147.23a3.54,3.54,0,0,1,.13-1,4.21,4.21,0,0,1,.4-.94,5.78,5.78,0,0,1,.66-.94c.26-.32.56-.67.91-1l-.82-.83,1.24-1.33c.74.73,1.36,1.37,1.86,1.91a13,13,0,0,1,1.2,1.47,5.2,5.2,0,0,1,.64,1.23,4,4,0,0,1,.19,1.19,3,3,0,0,1-.94,2.19,2.85,2.85,0,0,1-1,.62,3.45,3.45,0,0,1-1.3.23,4,4,0,0,1-1.28-.2,3,3,0,0,1-1-.56,2.53,2.53,0,0,1-.64-.88A2.71,2.71,0,0,1,274.71,147.23Zm4.57-.42a1.52,1.52,0,0,0-.06-.42,1.87,1.87,0,0,0-.19-.46,4,4,0,0,0-.43-.57c-.18-.2-.42-.45-.71-.74a9.3,9.3,0,0,0-.72.76,4.62,4.62,0,0,0-.41.6,1.6,1.6,0,0,0-.19.47,1.81,1.81,0,0,0,0,.4,1.13,1.13,0,0,0,.34.82,1.37,1.37,0,0,0,1,.35,1.39,1.39,0,0,0,1-.36A1.16,1.16,0,0,0,279.28,146.81Z"/><path class="cls-3" d="M285.29,149.71a5.16,5.16,0,0,1-.32,1.82,5,5,0,0,1-.89,1.48,4.14,4.14,0,0,1-1.35,1,4.05,4.05,0,0,1-1.7.36h-1.14l-.09-2h.76a3.68,3.68,0,0,0,1.37-.22,2.58,2.58,0,0,0,.93-.6,2.22,2.22,0,0,0,.52-.87,3,3,0,0,0,.16-1v-5h1.84v2.14a1.06,1.06,0,0,0,.35.86,1.38,1.38,0,0,0,.89.29h.2c.26,0,.4.32.4.95s-.14,1-.4,1h-.2a2.27,2.27,0,0,1-.72-.12,1.15,1.15,0,0,1-.61-.47Z"/><path class="cls-3" d="M291.29,148a.92.92,0,0,0,.67-.2.65.65,0,0,0,.19-.48,1.47,1.47,0,0,0-.1-.54,1.73,1.73,0,0,0-.42-.56l-3.41-3.4v-2.06l6-2.25.42,1.84L290,142.06l2.64,2.68a9.75,9.75,0,0,1,.74.82,4.51,4.51,0,0,1,.45.7,3.13,3.13,0,0,1,.23.67,3.85,3.85,0,0,1,.06.69,2.54,2.54,0,0,1-.21,1.08,2,2,0,0,1-.56.74,2.28,2.28,0,0,1-.82.42,3.49,3.49,0,0,1-1,.14h-4.68a.31.31,0,0,1-.31-.24,2.19,2.19,0,0,1-.09-.71,2.51,2.51,0,0,1,.09-.78.31.31,0,0,1,.31-.25Z"/><path class="cls-3" d="M296.23,138.84h1.84V150h-1.84Z"/><path class="cls-3" d="M303.62,148a1.15,1.15,0,0,0,.86-.25.78.78,0,0,0,.23-.51,1.38,1.38,0,0,0,0-.36c0-.15-.11-.4-.22-.74s-.26-.82-.47-1.42-.5-1.38-.86-2.35l1.75-.74,1.85,5.18a2.25,2.25,0,0,0,.51.91,1.31,1.31,0,0,0,.93.28h.23c.27,0,.4.32.4.95s-.13,1-.4,1h-.23a2.93,2.93,0,0,1-1.14-.22,2.18,2.18,0,0,1-1-.91,2.08,2.08,0,0,1-.95.89,3.1,3.1,0,0,1-1.23.24H300l-.09-2Zm1.52-7.74h-2v-1.84h2Z"/><path class="cls-3" d="M308.55,148a1.65,1.65,0,0,0,.95-.24.92.92,0,0,0,.34-.8v-.4a4.08,4.08,0,0,1,.21-1.33,3,3,0,0,1,.6-1.05,2.9,2.9,0,0,1,1-.67,3.18,3.18,0,0,1,1.26-.24,3.33,3.33,0,0,1,1.31.24,2.5,2.5,0,0,1,.94.68,3,3,0,0,1,.58,1.06,4.31,4.31,0,0,1,.2,1.33,3.56,3.56,0,0,1-.82,2.51,2.89,2.89,0,0,1-2.22.89,3.44,3.44,0,0,1-1.38-.28,2,2,0,0,1-1-.89,1.85,1.85,0,0,1-.88.94,2.78,2.78,0,0,1-1.06.23h-.17a.31.31,0,0,1-.31-.24,2.57,2.57,0,0,1-.08-.71,2.94,2.94,0,0,1,.08-.78.31.31,0,0,1,.31-.25Zm5.59-1.3a1.82,1.82,0,0,0-.27-1,1.39,1.39,0,0,0-2,0,1.72,1.72,0,0,0-.3,1.05,1.26,1.26,0,0,0,.34,1,1.34,1.34,0,0,0,.94.32A1.13,1.13,0,0,0,314.14,146.72Z"/><path class="cls-3" d="M322,152.39a3.45,3.45,0,0,0,1.18-.18,2.26,2.26,0,0,0,.82-.52,2.21,2.21,0,0,0,.51-.76,3,3,0,0,0,.21-.93h-1.22a4.93,4.93,0,0,1-1.53-.2,2.07,2.07,0,0,1-.94-.58,2.18,2.18,0,0,1-.47-.95,5.34,5.34,0,0,1-.14-1.26,4.34,4.34,0,0,1,.2-1.32,3.25,3.25,0,0,1,.58-1.09,2.9,2.9,0,0,1,1-.75,3.07,3.07,0,0,1,1.33-.28,3.45,3.45,0,0,1,1.16.2,2.37,2.37,0,0,1,1,.63,3,3,0,0,1,.66,1.12,5,5,0,0,1,.24,1.67v2.52a5.31,5.31,0,0,1-.3,1.77,4.69,4.69,0,0,1-.88,1.48,4,4,0,0,1-1.39,1,4.45,4.45,0,0,1-1.86.38h-1.81l-.11-2Zm.18-5.5a1.17,1.17,0,0,0,.28.88,1.74,1.74,0,0,0,1.11.25h1.19v-.85a1.94,1.94,0,0,0-.35-1.31,1.29,1.29,0,0,0-1-.38,1.16,1.16,0,0,0-.92.36A1.5,1.5,0,0,0,322.15,146.89Z"/><path class="cls-3" d="M337.27,145.5a4.11,4.11,0,0,1,.72,1.11,3,3,0,0,1,.22,1.07,2.49,2.49,0,0,1-.17.91,2.09,2.09,0,0,1-.51.73,2.35,2.35,0,0,1-.86.5,3.53,3.53,0,0,1-1.18.18h-4.8l-.09-2h4.59c.58,0,.88-.22.88-.67a1,1,0,0,0-.31-.66l-3.06-3.49,1.42-1.34Z"/><path class="cls-3" d="M340.21,138.84H342V150h-1.83Z"/><path class="cls-3" d="M350.52,145.5a3.83,3.83,0,0,1,.71,1.11,2.79,2.79,0,0,1,.23,1.07,2.49,2.49,0,0,1-.17.91,2,2,0,0,1-.52.73,2.23,2.23,0,0,1-.85.5,3.57,3.57,0,0,1-1.18.18h-4.81l-.09-2h4.59c.59,0,.89-.22.89-.67a1,1,0,0,0-.31-.66L346,143.2l1.42-1.34Z"/><path class="cls-3" d="M355.39,151.53a4.68,4.68,0,0,1-.92,1.48,4.26,4.26,0,0,1-1.38,1,4.18,4.18,0,0,1-1.72.36h-1.14l-.09-2h.76a3.77,3.77,0,0,0,1.38-.22,2.54,2.54,0,0,0,.92-.6,2.37,2.37,0,0,0,.53-.87,3.31,3.31,0,0,0,.16-1v-5h1.83v5A5,5,0,0,1,355.39,151.53Z"/><path class="cls-3" d="M357.81,138.84h1.84V150h-1.84Z"/><path class="cls-3" d="M364.13,149.71a5.16,5.16,0,0,1-.32,1.82,5,5,0,0,1-.89,1.48,4.08,4.08,0,0,1-1.36,1,4,4,0,0,1-1.7.36h-1.13l-.09-2h.76a3.71,3.71,0,0,0,1.37-.22,2.58,2.58,0,0,0,.93-.6,2.35,2.35,0,0,0,.52-.87,3,3,0,0,0,.16-1v-5h1.84v2.14a1.06,1.06,0,0,0,.35.86,1.36,1.36,0,0,0,.89.29h.2c.26,0,.4.32.4.95s-.14,1-.4,1h-.2a2.27,2.27,0,0,1-.72-.12,1.15,1.15,0,0,1-.61-.47Z"/><path class="cls-3" d="M367.28,148h.5c.15,0,.28,0,.41,0l.37.05.39.09a4.33,4.33,0,0,1-1-.57,2.23,2.23,0,0,1-.56-.64,1.87,1.87,0,0,1-.26-.74,4.94,4.94,0,0,1-.07-.89,3.1,3.1,0,0,1,.19-1,2.93,2.93,0,0,1,.57-.94,3.16,3.16,0,0,1,.94-.68,3,3,0,0,1,1.31-.27,4.19,4.19,0,0,1,1.27.18,2.46,2.46,0,0,1,1,.59,2.72,2.72,0,0,1,.64,1.09,5.36,5.36,0,0,1,.22,1.67v.91a3.05,3.05,0,0,1-.83,2.28,3.65,3.65,0,0,1-2.64.82h-4a.32.32,0,0,1-.32-.24,2.57,2.57,0,0,1-.08-.71,2.94,2.94,0,0,1,.08-.78.32.32,0,0,1,.32-.25Zm2.34-7.13h-1.87v-1.76h1.87Zm.38,3.55a1.11,1.11,0,0,0-.94.4,1.43,1.43,0,0,0-.3.86,1.86,1.86,0,0,0,.06.48,1,1,0,0,0,.3.45,3,3,0,0,0,.7.51,11.65,11.65,0,0,0,1.29.61,1.29,1.29,0,0,0,.23-.5,2.57,2.57,0,0,0,.08-.62v-.46a2.27,2.27,0,0,0-.31-1.25A1.2,1.2,0,0,0,370,144.44Zm2.19-3.55h-1.87v-1.76h1.87Z"/><path class="cls-3" d="M205.18,149.71a5.16,5.16,0,0,1-.32,1.82A5,5,0,0,1,204,153a4.14,4.14,0,0,1-1.35,1,4.05,4.05,0,0,1-1.7.36h-1.14l-.09-2h.76a3.77,3.77,0,0,0,1.38-.22,2.62,2.62,0,0,0,.92-.6,2.22,2.22,0,0,0,.52-.87,3,3,0,0,0,.17-1v-5h1.83v2.14a1.06,1.06,0,0,0,.35.86,1.38,1.38,0,0,0,.89.29h.2c.27,0,.4.32.4.95s-.13,1-.4,1h-.2a2.27,2.27,0,0,1-.72-.12,1.15,1.15,0,0,1-.61-.47Z"/><path class="cls-3" d="M208.37,148a1,1,0,0,0,1.2-1.17v-2.12h1.84V147a3.07,3.07,0,0,1-.76,2.26,2.84,2.84,0,0,1-2.12.76h-1.82a.31.31,0,0,1-.31-.24,2.23,2.23,0,0,1-.08-.71,2.57,2.57,0,0,1,.08-.78.31.31,0,0,1,.31-.25Zm.2,5.76h-1.86V152h1.86Zm2.59,0H209.3V152h1.86Z"/><path class="cls-3" d="M216,150a3.12,3.12,0,0,1-1-.14,2,2,0,0,1-.8-.45,2.44,2.44,0,0,1-.54-.86,3.84,3.84,0,0,1-.19-1.32v-8.39h1.83v7.94a1.47,1.47,0,0,0,.26.91,1,1,0,0,0,.79.33h.41c.26,0,.4.32.4.95s-.14,1-.4,1Z"/><path class="cls-3" d="M217.6,148c.83,0,1.24-.39,1.24-1.17v-2.12h1.82v2.12a1,1,0,0,0,.39.9,1.51,1.51,0,0,0,.89.27q1.35,0,1.35-1.17v-2.12h1.83v2.12a1.1,1.1,0,0,0,.34.9,1.19,1.19,0,0,0,.78.27,1.14,1.14,0,0,0,.84-.3,1.17,1.17,0,0,0,.29-.87v-2.12h1.84V147a3.07,3.07,0,0,1-.76,2.26,2.89,2.89,0,0,1-2.14.76,3,3,0,0,1-1.17-.23,2.06,2.06,0,0,1-1-.9,2.11,2.11,0,0,1-1,.9,3.4,3.4,0,0,1-2.46,0,2,2,0,0,1-1-.9,2.16,2.16,0,0,1-1,.9,2.86,2.86,0,0,1-1.16.23h-.77a.32.32,0,0,1-.32-.24,2.57,2.57,0,0,1-.08-.71,2.94,2.94,0,0,1,.08-.78.32.32,0,0,1,.32-.25Z"/><path class="cls-3" d="M654.68,118.56a11.36,11.36,0,1,0-2.13,2.12l6.38,6.38,2.12-2.12ZM645.74,120a8.25,8.25,0,1,1,8.25-8.25A8.26,8.26,0,0,1,645.74,120Z"/><rect class="cls-4" x="630" y="96" width="36" height="36"/></g></svg>