<svg xmlns="http://www.w3.org/2000/svg" viewBox="0 0 78 36"><g id="Isolation_Mode" data-name="Isolation Mode"><polygon points="13 12 13 14 18.35 14 11.97 24 21 24 21 22 15.62 22 22 12 13 12"/><polygon points="24.03 24 32 24 32 22 26.02 22 26.01 19 32 19 32 17 26.01 17 26 14 32 14 32 12 24 12 24.03 24"/><polygon points="35 24 43 24 43 22 37 22 37 19 43 19 43 17 37 17 37 14 43 14 43 12 35 12 35 24"/><polygon points="46 24 54 24 54 22 48 22 48 19 54 19 54 17 48 17 48 14 54 14 54 12 46 12 46 24"/><polygon points="64 12 64 20.16 59 12 57 12 57 24 59 24 59 15.83 64.01 24 66 24 66 12 64 12"/></g></svg>