<?xml version="1.0" standalone="no"?>
<!DOCTYPE svg PUBLIC "-//W3C//DTD SVG 1.1//EN" "http://www.w3.org/Graphics/SVG/1.1/DTD/svg11.dtd" >
<svg xmlns="http://www.w3.org/2000/svg" xmlns:xlink="http://www.w3.org/1999/xlink" version="1.1">
<metadata>
Created by FontForge 20170731 at Fri Dec  6 16:25:35 2013
 By Aleksey,,,
Typeface (c) The scict.ir Corporation plc. Data (c) The scict.ir Corporation plc/Type Solutions Inc. 2012-2013. All Rights Reserved.Modify  by Hossein Zahedi.
</metadata>
<defs>
<font id="IRRoya" horiz-adv-x="0" >
  <font-face 
    font-family="IRRoya"
    font-weight="400"
    font-stretch="normal"
    units-per-em="2048"
    panose-1="2 0 5 3 0 0 0 2 0 2"
    ascent="1638"
    descent="-410"
    x-height="784"
    cap-height="1153"
    bbox="-431 -1074 2538 1937"
    underline-thickness="60"
    underline-position="-160"
    unicode-range="U+0020-FFFC"
  />
<missing-glyph horiz-adv-x="1063" 
 />
    <glyph glyph-name="afii64184" unicode="&#xfedf;&#xfee0;&#x651;&#x670;&#xfeea;" horiz-adv-x="1443" arabic-form="isolated" 
d="M1359 318q0 -147 -74 -234q-62 -73 -138 -73q-151 0 -209 145q-72 -171 -226 -171q-219 0 -224 282q-83 -69 -209 -69q-19 0 -40 2q-144 12 -144 125q0 185 385 328l1 142l95 46v-369q0 -175 8 -212q26 -120 135 -120q93 0 125 94q18 54 18 172v462l107 40v-348
q0 -177 19 -250q39 -150 164 -150q95 0 95 183q0 254 -44 596l123 58q33 -427 33 -679zM479 374l-6 173q-64 -10 -150 -60q-101 -59 -101 -112q0 -35 107 -35q100 0 150 34zM952 1241l-39 -19l-37 187l76 36v-204zM1093 1208q15 -51 15 -96q0 -127 -101 -127q-47 0 -77 71
q-55 -102 -121 -102q-67 0 -67 78q0 51 33 108h37q-14 -42 -14 -65q0 -38 41 -38q59 0 78 125l44 16q5 -112 54 -112q44 0 44 56q0 29 -13 70z" />
    <glyph glyph-name="afii62834" unicode="&#xfedf;&#xfe82;" horiz-adv-x="1069" arabic-form="isolated" 
d="M997 1273q14 -193 14 -292q0 -383 -128 -558q43 -89 53 -120q16 -52 16 -136q0 -199 -287 -199q-167 0 -314 53l24 130q103 -1 221 81q114 81 156 178q-89 147 -249 304q-187 183 -373 275l31 184q184 -103 373 -301q162 -170 282 -358q68 134 68 417q0 111 -14 293z
M841 147q14 11 14 40q0 59 -46 143q-43 -59 -76 -95q-59 -63 -113 -87q54 -21 126 -21q76 0 95 20zM522 1391q-35 -56 -94 -93q-63 -40 -126 -40q-38 0 -112.5 13t-111.5 13q-64 0 -126 -47l-61 72q78 84 167 84q36 0 108 -11.5t109 -11.5q112 0 208 88z" />
    <glyph glyph-name="afii62835" unicode="&#xfee0;&#xfe82;" horiz-adv-x="1269" arabic-form="final" 
d="M1278 0h-34q-136 0 -218 145q-62 108 -80 265q-99 -391 -588 -464l-59 103q157 34 296 110q150 83 174 164q3 10 3 22q0 132 -259 351q-208 175 -382 262l30 170q243 -144 435 -331q217 -211 254 -373q47 169 47 461q0 171 -15 334l131 50l2 -530q4 -277 52 -419
q58 -170 195 -170h16v-150zM541 1346q-35 -56 -94 -93q-63 -40 -126 -40q-38 0 -112.5 13t-111.5 13q-64 0 -126 -47l-61 72q78 84 167 84q36 0 108 -11.5t109 -11.5q112 0 208 88z" />
    <glyph glyph-name="afii62836" unicode="&#xfedf;&#xfe84;" horiz-adv-x="1059" arabic-form="isolated" 
d="M997 1273q14 -193 14 -292q0 -383 -128 -558q43 -89 53 -120q16 -52 16 -136q0 -199 -287 -199q-167 0 -314 53l24 130q103 -1 221 81q114 81 156 178q-89 147 -249 304q-187 183 -373 275l31 184q184 -103 373 -301q162 -170 282 -358q68 134 68 417q0 111 -14 293z
M841 147q14 11 14 40q0 59 -46 143q-43 -59 -76 -95q-59 -63 -113 -87q54 -21 126 -21q76 0 95 20zM441 1334l-384 -98v67l99 41q-50 49 -50 97q0 56 46.5 102.5t102.5 46.5q67 0 116 -38l-24 -57q-44 15 -95 15q-25 0 -52 -14q-32 -17 -32 -40q0 -69 119 -69q16 0 154 42
v-95z" />
    <glyph glyph-name="afii62837" unicode="&#xfee0;&#xfe84;" horiz-adv-x="1269" arabic-form="final" 
d="M1278 0h-34q-136 0 -218 145q-62 108 -80 265q-99 -391 -588 -464l-59 103q157 34 296 110q150 83 174 164q3 10 3 22q0 132 -259 351q-208 175 -382 262l30 170q243 -144 435 -331q217 -211 254 -373q47 169 47 461q0 171 -15 334l131 50l2 -530q4 -277 52 -419
q58 -170 195 -170h16v-150zM437 1292l-384 -98v67l99 41q-50 49 -50 97q0 56 46.5 102.5t102.5 46.5q67 0 116 -38l-24 -57q-44 15 -95 15q-25 0 -52 -14q-32 -17 -32 -40q0 -69 119 -69q16 0 154 42v-95z" />
    <glyph glyph-name="afii62838" unicode="&#xfedf;&#xfe88;" horiz-adv-x="1059" arabic-form="isolated" 
d="M997 1273q14 -193 14 -292q0 -383 -128 -558q43 -89 53 -120q16 -52 16 -136q0 -199 -287 -199q-167 0 -314 53l24 130q103 -1 221 81q114 81 156 178q-89 147 -249 304q-187 183 -373 275l31 184q184 -103 373 -301q162 -170 282 -358q68 134 68 417q0 111 -14 293z
M841 147q14 11 14 40q0 59 -46 143q-43 -59 -76 -95q-59 -63 -113 -87q54 -21 126 -21q76 0 95 20zM648 -406l-384 -98v67l99 41q-50 49 -50 97q0 56 46.5 102.5t102.5 46.5q67 0 116 -38l-24 -57q-44 15 -95 15q-25 0 -52 -14q-32 -17 -32 -40q0 -69 119 -69q16 0 154 42
v-95z" />
    <glyph glyph-name="afii62839" unicode="&#xfee0;&#xfe88;" horiz-adv-x="1269" arabic-form="final" 
d="M1278 0h-34q-136 0 -218 145q-62 108 -80 265q-99 -391 -588 -464l-59 103q157 34 296 110q150 83 174 164q3 10 3 22q0 132 -259 351q-208 175 -382 262l30 170q243 -144 435 -331q217 -211 254 -373q47 169 47 461q0 171 -15 334l131 50l2 -530q4 -277 52 -419
q58 -170 195 -170h16v-150zM620 -381l-384 -98v67l99 41q-50 49 -50 97q0 56 46.5 102.5t102.5 46.5q67 0 116 -38l-24 -57q-44 15 -95 15q-25 0 -52 -14q-32 -17 -32 -40q0 -69 119 -69q16 0 154 42v-95z" />
    <glyph glyph-name="afii62840" unicode="&#xfedf;&#xfe8e;" horiz-adv-x="1059" arabic-form="isolated" 
d="M997 1273q14 -193 14 -292q0 -383 -128 -558q43 -89 53 -120q16 -52 16 -136q0 -199 -287 -199q-167 0 -314 53l24 130q103 -1 221 81q114 81 156 178q-89 147 -249 304q-187 183 -373 275l31 184q184 -103 373 -301q162 -170 282 -358q68 134 68 417q0 111 -14 293z
M841 147q14 11 14 40q0 59 -46 143q-43 -59 -76 -95q-59 -63 -113 -87q54 -21 126 -21q76 0 95 20z" />
    <glyph glyph-name="afii62841" unicode="&#xfee0;&#xfe8e;" horiz-adv-x="1269" arabic-form="final" 
d="M1278 0h-34q-136 0 -218 145q-62 108 -80 265q-99 -391 -588 -464l-59 103q157 34 296 110q150 83 174 164q3 10 3 22q0 132 -259 351q-208 175 -382 262l30 170q243 -144 435 -331q217 -211 254 -373q47 169 47 461q0 171 -15 334l131 50l2 -530q4 -277 52 -419
q58 -170 195 -170h16v-150z" />
    <glyph glyph-name="uni0672.fina" unicode="&#x672;" horiz-adv-x="473" 
d="M473 0h-30q-156 1 -221 135q-44 92 -52 276q-3 68 -7 364q-3 208 -22 426l133 68q7 -474 17 -831q3 -129 28 -190q40 -98 145 -98h9v-150zM239 1522q4 2 -14 20t-38 25q-15 4 -42 -10.5t-35 -42.5q7 -31 30 -44.5t54.5 -16.5t65 2.5t60.5 12.5q12 3 6 -12.5t-19 -40.5
q-52 -38 -166.5 -46t-134.5 -55q-11 -4 -9 12.5t6 26.5q17 39 73 45.5t80 17.5q-25 1 -58.5 18.5t-27.5 66.5q1 38 21.5 68.5t49.5 47t65.5 12.5t70.5 -36q10 -16 -1.5 -33.5t-36.5 -37.5z" />
    <glyph glyph-name="uni0673.fina" unicode="&#x673;" horiz-adv-x="473" 
d="M473 0h-30q-156 1 -221 135q-44 92 -52 276q-3 68 -7 364q-3 208 -22 426l133 68q7 -474 17 -831q3 -129 28 -190q40 -98 145 -98h9v-150zM281 -214q4 2 -14 20t-38 25q-15 4 -42 -10.5t-35 -42.5q7 -31 30 -44.5t54.5 -16.5t65 2.5t60.5 12.5q12 3 6 -12.5t-19 -40.5
q-52 -38 -166.5 -46t-134.5 -55q-11 -4 -9 12.5t6 26.5q17 39 73 45.5t80 17.5q-25 1 -58.5 18.5t-27.5 66.5q1 38 21.5 68.5t49.5 47t65.5 12.5t70.5 -36q10 -16 -1.5 -33.5t-36.5 -37.5z" />
    <glyph glyph-name="uni0675.fina" unicode="&#x675;" horiz-adv-x="473" 
d="M473 0h-30q-156 1 -221 135q-44 92 -52 276q-3 68 -7 364q-3 208 -22 426l133 68q7 -474 17 -831q3 -129 28 -190q40 -98 145 -98h9v-150zM357 1408l-384 -98v67l99 41q-50 49 -50 97q0 56 46.5 102.5t102.5 46.5q67 0 116 -38l-24 -57q-44 15 -95 15q-25 0 -52 -14
q-32 -17 -32 -40q0 -69 119 -69q16 0 154 42v-95z" />
    <glyph glyph-name="uni0676.fina" unicode="&#x676;" horiz-adv-x="739" 
d="M739 0h-129q-65 -363 -471 -537l-94 105q199 109 288 183q135 113 159 249q-50 -7 -103 -7q-224 -6 -224 154q0 97 57 204q65 123 154 123q113 0 177 -111q49 -84 62 -213h124v-150zM478 151q-4 60 -29 108q-31 61 -83 61q-36 0 -62.5 -39.5t-26.5 -76.5q0 -48 98 -55
q68 -2 103 2zM558 681l-384 -98v67l99 41q-50 49 -50 97q0 56 46.5 102.5t102.5 46.5q67 0 116 -38l-24 -57q-44 15 -95 15q-25 0 -52 -14q-32 -17 -32 -40q0 -69 119 -69q16 0 154 42v-95z" />
    <glyph glyph-name="uni0677.fina" unicode="&#x677;" horiz-adv-x="739" 
d="M739 0h-129q-65 -363 -471 -537l-94 105q199 109 288 183q135 113 159 249q-50 -7 -103 -7q-224 -6 -224 154q0 97 57 204q65 123 154 123q113 0 177 -111q49 -84 62 -213h124v-150zM478 151q-4 60 -29 108q-31 61 -83 61q-36 0 -62.5 -39.5t-26.5 -76.5q0 -48 98 -55
q68 -2 103 2zM753.454 686.674l-349.008 -89.1416v60.9434l89.9785 37.2939q-45.4443 44.5703 -45.4443 88.2314q0 50.9385 42.2627 93.2354t93.1602 42.2969q60.8945 0 105.43 -34.5654l-21.8135 -51.8477q-39.9902 13.6436 -86.3428 13.6436q-22.7217 0 -47.2617 -12.7344
q-29.084 -15.4629 -29.084 -36.3838q0 -62.7627 108.156 -62.7627q14.542 0 139.967 38.2031v-86.4121zM373.343 830.998q0 -84.4912 -79.7393 -149.604l51.0947 -35.6572l-37.9346 -41.083q-24.7734 14.7285 -54.1914 48.0596q-106.062 -74.4141 -239.219 -102.319
l-23.999 51.1602q146.317 47.2832 206.703 97.668q-32.5146 46.5088 -32.5146 72.0889q0 45.7334 37.9336 93.4053q37.9346 47.6709 82.0625 47.6709q35.6113 0 62.707 -23.2539q27.0967 -23.2549 27.0967 -58.1357zM315.279 806.968q0 43.4082 -50.3203 43.4082
q-20.1289 0 -39.4824 -23.2539q-19.3545 -23.2549 -19.3545 -44.1836q0 -36.4316 47.2236 -58.9111q61.9336 43.4082 61.9336 82.9404z" />
    <glyph glyph-name="uni0678.fina" unicode="&#x678;" horiz-adv-x="1129" 
d="M1129 0h-199q-148 1 -148 -32q0 -25 114 -44q118 -19 153 -37q73 -36 73 -124q0 -137 -218 -232q-178 -79 -335 -79q-209 0 -326 98q-126 106 -126 312q0 149 86 312l109 -37q-64 -132 -64 -242q0 -148 97 -224q88 -68 240 -68q261 0 418 119q15 11 15 22q0 15 -22 18
q-197 30 -266 61q-23 11 -39 44t-16 61q0 222 390 222h64v-150zM722 456l-384 -98v67l99 41q-50 49 -50 97q0 56 46.5 102.5t102.5 46.5q67 0 116 -38l-24 -57q-44 15 -95 15q-25 0 -52 -14q-32 -17 -32 -40q0 -69 119 -69q16 0 154 42v-95z" />
    <glyph glyph-name="uni067C.init" unicode="&#x67c;" horiz-adv-x="417" 
d="M370 258q0 -257 -299 -258h-123v150h131q173 0 173 93q0 50 -51 116l-34 44l103 113q100 -112 100 -258zM364 783l-87 -111l-113 84l-81 -100l-121 86l92 113l109 -82l79 96zM384 -81q0 -68 -42 -117q-45 -51 -112 -51q-58 0 -96 37t-38 94q0 97 47 154q37 47 82 47
q50 0 101 -42q58 -50 58 -122zM320 -89q0 41 -33 67q-30 24 -73 24q-21 0 -41 -31.5t-20 -54.5q0 -73 79 -73q33 0 59 17q29 19 29 51z" />
    <glyph glyph-name="uni067C.medi" unicode="&#x67c;" horiz-adv-x="548" 
d="M548 1h-54q-175 0 -230 122q-27 -55 -86.5 -88.5t-123.5 -33.5h-124v149h115q74 0 125 34q58 39 58 110v63l102 27q1 -145 52 -195q39 -39 136 -39h30v-149zM441 704l-87 -111l-113 84l-81 -100l-121 86l92 113l109 -82l79 96zM290 -82q0 -68 -42 -117q-45 -51 -112 -51
q-58 0 -96 37t-38 94q0 97 47 154q37 47 82 47q50 0 101 -42q58 -50 58 -122zM226 -90q0 41 -33 67q-30 24 -73 24q-21 0 -41 -31.5t-20 -54.5q0 -73 79 -73q33 0 59 17q29 19 29 51z" />
    <glyph glyph-name="uni067C.fina" unicode="&#x67c;" horiz-adv-x="1673" 
d="M1673 0h-31q-176 1 -206 151q-163 -192 -774 -192q-277 0 -398 61q-136 69 -136 236q0 105 62 189l94 -29q-38 -69 -38 -130q0 -120 152 -158q73 -18 246 -18h49q212 0 398 30q306 49 326 162l10 56l82 27q0 -113 24 -162q34 -73 133 -73h7v-150zM1015 711l-87 -111
l-113 84l-81 -100l-121 86l92 113l109 -82l79 96zM975 -138q0 -68 -42 -117q-45 -51 -112 -51q-58 0 -96 37t-38 94q0 97 47 154q37 47 82 47q50 0 101 -42q58 -50 58 -122zM911 -146q0 41 -33 67q-30 24 -73 24q-21 0 -41 -31.5t-20 -54.5q0 -73 79 -73q33 0 59 17
q29 19 29 51z" />
    <glyph glyph-name="uni067D.init" unicode="&#x67d;" horiz-adv-x="417" 
d="M370 258q0 -257 -299 -258h-123v150h131q173 0 173 93q0 50 -51 116l-34 44l103 113q100 -112 100 -258zM129 673l75 102l114 -84l-78 -99zM-6 860l80 105l116 -84l78 98l115 -81l-84 -105l-111 82l-78 -96z" />
    <glyph glyph-name="uni067D.medi" unicode="&#x67d;" horiz-adv-x="548" 
d="M548 1h-54q-175 0 -230 122q-27 -55 -86.5 -88.5t-123.5 -33.5h-124v149h115q74 0 125 34q58 39 58 110v63l102 27q1 -145 52 -195q39 -39 136 -39h30v-149zM187 611l75 102l114 -84l-78 -99zM52 798l80 105l116 -84l78 98l115 -81l-84 -105l-111 82l-78 -96z" />
    <glyph glyph-name="uni067D.fina" unicode="&#x67d;" horiz-adv-x="1673" 
d="M1673 0h-31q-176 1 -206 151q-163 -192 -774 -192q-277 0 -398 61q-136 69 -136 236q0 105 62 189l94 -29q-38 -69 -38 -130q0 -120 152 -158q73 -18 246 -18h49q212 0 398 30q306 49 326 162l10 56l82 27q0 -113 24 -162q34 -73 133 -73h7v-150zM719 585l75 102l114 -84
l-78 -99zM584 772l80 105l116 -84l78 98l115 -81l-84 -105l-111 82l-78 -96z" />
    <glyph glyph-name="uni0681.init" unicode="&#x681;" horiz-adv-x="954" 
d="M954 419l-34 -143q-172 -1 -300 -73q-72 -45 -218 -131q-129 -71 -321 -72h-151v150h157q135 0 227 30q59 19 161 76q107 60 161 80q-56 14 -176 69q-108 50 -141 50q-51 0 -134 -83l-85 49q35 60 92 114q68 64 116 64q70 0 175 -49q168 -78 198 -89q130 -46 273 -42z
M807 783l-384 -98v67l99 41q-50 49 -50 97q0 56 46.5 102.5t102.5 46.5q67 0 116 -38l-24 -57q-44 15 -95 15q-25 0 -52 -14q-32 -17 -32 -40q0 -69 119 -69q16 0 154 42v-95z" />
    <glyph glyph-name="uni0681.medi" unicode="&#x681;" horiz-adv-x="1100" 
d="M1100 0h-129q-134 1 -193 91q-17 26 -53 147l-304 -157q-159 -80 -330 -81h-161v150h157q172 0 305 59q91 43 273 128q-84 18 -212 75q-115 52 -144 52q-59 0 -118 -80l-91 48q99 186 197 186q66 0 172 -48q162 -73 205 -88q137 -47 283 -47q30 0 60 2l-34 -140
q-119 -1 -187 -33q30 -115 213 -114h91v-150zM847 792l-384 -98v67l99 41q-50 49 -50 97q0 56 46.5 102.5t102.5 46.5q67 0 116 -38l-24 -57q-44 15 -95 15q-25 0 -52 -14q-32 -17 -32 -40q0 -69 119 -69q16 0 154 42v-95z" />
    <glyph glyph-name="uni0681.fina" unicode="&#x681;" horiz-adv-x="1134" 
d="M1173 -702q-202 -69 -413 -69q-277 0 -439 102q-196 124 -196 385q0 217 180 397q144 144 357 226q-243 72 -280 72q-66 0 -123 -95l-96 42q86 203 204 203q71 0 275 -60t329 -60q53 0 107 5l-38 -150q-137 -2 -201 -27q11 -76 71 -101q44 -18 154 -18h70v-150h-109
q-108 1 -180 72t-81 179q-228 -77 -366 -215q-142 -143 -142 -309q0 -350 544 -350q202 0 334 47zM904 778l-384 -98v67l99 41q-50 49 -50 97q0 56 46.5 102.5t102.5 46.5q67 0 116 -38l-24 -57q-44 15 -95 15q-25 0 -52 -14q-32 -17 -32 -40q0 -69 119 -69q16 0 154 42v-95
z" />
    <glyph glyph-name="uni0682.init" unicode="&#x682;" horiz-adv-x="954" 
d="M954 419l-34 -143q-172 -1 -300 -73q-72 -45 -218 -131q-129 -71 -321 -72h-151v150h157q135 0 227 30q59 19 161 76q107 60 161 80q-56 14 -176 69q-108 50 -141 50q-51 0 -134 -83l-85 49q35 60 92 114q68 64 116 64q70 0 175 -49q168 -78 198 -89q130 -46 273 -42z
M583 872l-90 90l90 90l90 -90zM586 668l-90 90l90 90l90 -90z" />
    <glyph glyph-name="uni0682.medi" unicode="&#x682;" horiz-adv-x="1100" 
d="M1100 0h-129q-134 1 -193 91q-17 26 -53 147l-304 -157q-159 -80 -330 -81h-161v150h157q172 0 305 59q91 43 273 128q-84 18 -212 75q-115 52 -144 52q-59 0 -118 -80l-91 48q99 186 197 186q66 0 172 -48q162 -73 205 -88q137 -47 283 -47q30 0 60 2l-34 -140
q-119 -1 -187 -33q30 -115 213 -114h91v-150zM599 908l-90 90l90 90l90 -90zM602 704l-90 90l90 90l90 -90z" />
    <glyph glyph-name="uni0682.fina" unicode="&#x682;" horiz-adv-x="1134" 
d="M1173 -702q-202 -69 -413 -69q-277 0 -439 102q-196 124 -196 385q0 217 180 397q144 144 357 226q-243 72 -280 72q-66 0 -123 -95l-96 42q86 203 204 203q71 0 275 -60t329 -60q53 0 107 5l-38 -150q-137 -2 -201 -27q11 -76 71 -101q44 -18 154 -18h70v-150h-109
q-108 1 -180 72t-81 179q-228 -77 -366 -215q-142 -143 -142 -309q0 -350 544 -350q202 0 334 47zM648 845l-90 90l90 90l90 -90zM651 641l-90 90l90 90l90 -90z" />
    <glyph glyph-name="uni0685.init" unicode="&#x685;" horiz-adv-x="954" 
d="M954 419l-34 -143q-172 -1 -300 -73q-72 -45 -218 -131q-129 -71 -321 -72h-151v150h157q135 0 227 30q59 19 161 76q107 60 161 80q-56 14 -176 69q-108 50 -141 50q-51 0 -134 -83l-85 49q35 60 92 114q68 64 116 64q70 0 175 -49q168 -78 198 -89q130 -46 273 -42z
M668 1023l-85 -112l-124 88l88 109zM800 848l-86 -113l-125 90l-83 -106l-122 87l89 113l120 -88l82 104z" />
    <glyph glyph-name="uni0685.medi" unicode="&#x685;" horiz-adv-x="1100" 
d="M1100 0h-129q-134 1 -193 91q-17 26 -53 147l-304 -157q-159 -80 -330 -81h-161v150h157q172 0 305 59q91 43 273 128q-84 18 -212 75q-115 52 -144 52q-59 0 -118 -80l-91 48q99 186 197 186q66 0 172 -48q162 -73 205 -88q137 -47 283 -47q30 0 60 2l-34 -140
q-119 -1 -187 -33q30 -115 213 -114h91v-150zM734 1014l-85 -112l-124 88l88 109zM866 839l-86 -113l-125 90l-83 -106l-122 87l89 113l120 -88l82 104z" />
    <glyph glyph-name="uni0685.fina" unicode="&#x685;" horiz-adv-x="1134" 
d="M1173 -702q-202 -69 -413 -69q-277 0 -439 102q-196 124 -196 385q0 217 180 397q144 144 357 226q-243 72 -280 72q-66 0 -123 -95l-96 42q86 203 204 203q71 0 275 -60t329 -60q53 0 107 5l-38 -150q-137 -2 -201 -27q11 -76 71 -101q44 -18 154 -18h70v-150h-109
q-108 1 -180 72t-81 179q-228 -77 -366 -215q-142 -143 -142 -309q0 -350 544 -350q202 0 334 47zM708 997l-85 -112l-124 88l88 109zM840 822l-86 -113l-125 90l-83 -106l-122 87l89 113l120 -88l82 104z" />
    <glyph glyph-name="uni0689.fina" unicode="&#x689;" horiz-adv-x="1018" 
d="M1018 0h-34q-75 0 -114 21q-63 35 -117 142q-49 -112 -142 -155q-73 -34 -207 -34q-177 0 -253 74l69 126q63 -44 168 -44q313 0 313 139q0 22 -8 48l-123 396l95 106l130 -448q64 -221 189 -221h34v-150zM573 -112q0 -68 -42 -117q-45 -51 -112 -51q-58 0 -96 37t-38 94
q0 97 47 154q37 47 82 47q50 0 101 -42q58 -50 58 -122zM509 -120q0 41 -33 67q-30 24 -73 24q-21 0 -41 -31.5t-20 -54.5q0 -73 79 -73q33 0 59 17q29 19 29 51z" />
    <glyph glyph-name="uni068A.fina" unicode="&#x68a;" horiz-adv-x="1018" 
d="M1018 0h-34q-75 0 -114 21q-63 35 -117 142q-49 -112 -142 -155q-73 -34 -207 -34q-177 0 -253 74l69 126q63 -44 168 -44q313 0 313 139q0 22 -8 48l-123 396l95 106l130 -448q64 -221 189 -221h34v-150zM440 -242l-97 -128l-131 87l96 131z" />
    <glyph glyph-name="uni068b.fina" unicode="&#x68b;" horiz-adv-x="1018" 
d="M1018 0h-34q-75 0 -114 21q-63 35 -117 142q-49 -112 -142 -155q-73 -34 -207 -34q-177 0 -253 74l69 126q63 -44 168 -44q313 0 313 139q0 22 -8 48l-123 396l95 106l130 -448q64 -221 189 -221h34v-150zM681 1013q0 -68 -61 -101q-49 -27 -124 -27h-92q-68 0 -105 30
l14 40q34 -15 55 -15q37 0 63 44q1 2 1 25q0 118 -6 289l45 17v-303q24 26 59 47q41 25 73 25q31 0 54 -19q24 -21 24 -52zM638 996q0 19 -18 30q-15 9 -35 9q-25 0 -72 -35q-21 -16 -76 -64h63q71 0 109 22q29 16 29 38zM508 -232l-97 -128l-131 87l96 131z" />
    <glyph glyph-name="uni068F.fina" unicode="&#x68f;" horiz-adv-x="1018" 
d="M1018 0h-34q-75 0 -114 21q-63 35 -117 142q-49 -112 -142 -155q-73 -34 -207 -34q-177 0 -253 74l69 126q63 -44 168 -44q313 0 313 139q0 22 -8 48l-123 396l95 106l130 -448q64 -221 189 -221h34v-150zM440 909l75 102l114 -84l-78 -99zM305 1096l80 105l116 -84
l78 98l115 -81l-84 -105l-111 82l-78 -96z" />
    <glyph glyph-name="uni0690.fina" unicode="&#x690;" horiz-adv-x="1018" 
d="M1018 0h-34q-75 0 -114 21q-63 35 -117 142q-49 -112 -142 -155q-73 -34 -207 -34q-177 0 -253 74l69 126q63 -44 168 -44q313 0 313 139q0 22 -8 48l-123 396l95 106l130 -448q64 -221 189 -221h34v-150zM674 1039l-90 90l90 90l90 -90zM465 1033l-90 90l90 90l90 -90z
M567 1199l-90 90l90 90l90 -90zM571 867l-90 90l90 90l90 -90z" />
    <glyph glyph-name="uni0692.fina" unicode="&#x692;" horiz-adv-x="821" 
d="M821 0h-30q-76 0 -129 27q-23 -186 -231 -364q-140 -120 -320 -205l-94 78q200 115 344 236q180 152 180 248q0 72 -90 198l100 115q75 -106 90 -121q62 -62 148 -62h32v-150zM632 699q-15 -12 -34.5 -38.5t-39 -62.5t-36.5 -78.5t-28 -87.5h-28l-1 3q-12 44 -29.5 86.5
t-36.5 78t-38 61.5t-33 38l88 2q21 -32 36.5 -78t26.5 -96q11 50 27 96t38 78z" />
    <glyph glyph-name="uni0693.fina" unicode="&#x693;" horiz-adv-x="821" 
d="M821 0h-30q-76 0 -129 27q-23 -186 -231 -364q-140 -120 -320 -205l-94 78q200 115 344 236q180 152 180 248q0 72 -90 198l100 115q75 -106 90 -121q62 -62 148 -62h32v-150zM488 -577q0 -68 -42 -117q-45 -51 -112 -51q-58 0 -96 37t-38 94q0 97 47 154q37 47 82 47
q50 0 101 -42q58 -50 58 -122zM424 -585q0 41 -33 67q-30 24 -73 24q-21 0 -41 -31.5t-20 -54.5q0 -73 79 -73q33 0 59 17q29 19 29 51z" />
    <glyph glyph-name="uni0694.fina" unicode="&#x694;" horiz-adv-x="821" 
d="M821 0h-30q-76 0 -129 27q-23 -186 -231 -364q-140 -120 -320 -205l-94 78q200 115 344 236q180 152 180 248q0 72 -90 198l100 115q75 -106 90 -121q62 -62 148 -62h32v-150zM459 -671l-97 -128l-131 87l96 131z" />
    <glyph glyph-name="uni0695.fina" unicode="&#x695;" horiz-adv-x="821" 
d="M821 0h-30q-76 0 -129 27q-23 -186 -231 -364q-140 -120 -320 -205l-94 78q200 115 344 236q180 152 180 248q0 72 -90 198l100 115q75 -106 90 -121q62 -62 148 -62h32v-150zM361 -624q-15 -12 -34.5 -38.5t-39 -62.5t-36.5 -78.5t-28 -87.5h-28l-1 3q-12 44 -29.5 86.5
t-36.5 78t-38 61.5t-33 38l88 2q21 -32 36.5 -78t26.5 -96q11 50 27 96t38 78z" />
    <glyph glyph-name="uni0696.fina" unicode="&#x696;" horiz-adv-x="821" 
d="M821 0h-30q-76 0 -129 27q-23 -186 -231 -364q-140 -120 -320 -205l-94 78q200 115 344 236q180 152 180 248q0 72 -90 198l100 115q75 -106 90 -121q62 -62 148 -62h32v-150zM385 -678l-97 -128l-131 87l96 131zM232 -142l-97 -128l-131 87l96 131z" />
    <glyph glyph-name="uni0697.fina" unicode="&#x697;" horiz-adv-x="821" 
d="M821 0h-30q-76 0 -129 27q-23 -186 -231 -364q-140 -120 -320 -205l-94 78q200 115 344 236q180 152 180 248q0 72 -90 198l100 115q75 -106 90 -121q62 -62 148 -62h32v-150zM645 596l-87 -111l-113 84l-81 -100l-121 86l92 113l109 -82l79 96z" />
    <glyph glyph-name="uni0699.fina" unicode="&#x699;" horiz-adv-x="821" 
d="M821 0h-30q-76 0 -129 27q-23 -186 -231 -364q-140 -120 -320 -205l-94 78q200 115 344 236q180 152 180 248q0 72 -90 198l100 115q75 -106 90 -121q62 -62 148 -62h32v-150zM528 550l-90 90l90 90l90 -90zM319 544l-90 90l90 90l90 -90zM421 710l-90 90l90 90l90 -90z
M425 378l-90 90l90 90l90 -90z" />
    <glyph glyph-name="uni069A.init" unicode="&#x69a;" horiz-adv-x="1013" 
d="M1012 265q0 -107 -57 -182q-63 -81 -167 -81q-138 0 -193 102q-74 -103 -200 -103q-137 0 -174 104q-58 -104 -189 -105h-102v150h74q88 0 127.5 37t39.5 126v24l98 35v-26q0 -196 129 -196q149 0 149 164v24l98 35v-26q0 -196 149 -196q107 0 107 96q0 68 -61 133
l96 109q76 -92 76 -224zM697 727l-97 -128l-131 87l96 131zM661 -309l-97 -128l-131 87l96 131z" />
    <glyph glyph-name="uni069A.medi" unicode="&#x69a;" horiz-adv-x="1211" 
d="M1211 1h-32q-148 0 -193 102q-70 -102 -207 -102q-121 0 -171 102q-75 -102 -212 -102q-128 0 -175 102q-59 -102 -189 -103h-102v150h75q88 0 127.5 37t39.5 126v24l98 35v-26q0 -196 129 -196q88 0 124.5 37.5t36.5 125.5v24l97 35v-26q0 -196 130 -196q151 0 151 163
v24l98 39v-30q0 -96 24 -139q33 -57 122 -57h29v-149zM715 706l-97 -128l-131 87l96 131zM689 -283l-97 -128l-131 87l96 131z" />
    <glyph glyph-name="uni069A.fina" unicode="&#x69a;" horiz-adv-x="1992" 
d="M1992 0h-44q-123 1 -171 103q-73 -102 -196 -102q-129 0 -182 102q-63 -102 -186 -102q-84 0 -139 50q2 -23 2 -46q0 -235 -146.5 -373t-382.5 -138q-197 0 -316.5 116t-119.5 312q0 157 91 309l99 -37q-26 -41 -47.5 -117t-21.5 -124q0 -311 339 -311q157 0 268 79
q124 88 124 239q0 152 -96 304l117 100q51 -103 86 -145q58 -69 135 -69q84 0 117 40q29 37 29 123v24l97 35v-26q0 -196 129 -196q84 0 118 39t34 124v24l97 35v-26q0 -96 25 -139q33 -57 121 -57h20v-150zM1497 749l-97 -128l-131 87l96 131zM1496 -319l-97 -128l-131 87
l96 131z" />
    <glyph glyph-name="uni069B.init" unicode="&#x69b;" horiz-adv-x="1013" 
d="M1012 265q0 -107 -57 -182q-63 -81 -167 -81q-138 0 -193 102q-74 -103 -200 -103q-137 0 -174 104q-58 -104 -189 -105h-102v150h74q88 0 127.5 37t39.5 126v24l98 35v-26q0 -196 129 -196q149 0 149 164v24l98 35v-26q0 -196 149 -196q107 0 107 96q0 68 -61 133
l96 109q76 -92 76 -224zM466 -484l75 102l114 -84l-78 -99zM331 -297l80 105l116 -84l78 98l115 -81l-84 -105l-111 82l-78 -96z" />
    <glyph glyph-name="uni069B.medi" unicode="&#x69b;" horiz-adv-x="1211" 
d="M1211 1h-32q-148 0 -193 102q-70 -102 -207 -102q-121 0 -171 102q-75 -102 -212 -102q-128 0 -175 102q-59 -102 -189 -103h-102v150h75q88 0 127.5 37t39.5 126v24l98 35v-26q0 -196 129 -196q88 0 124.5 37.5t36.5 125.5v24l97 35v-26q0 -196 130 -196q151 0 151 163
v24l98 39v-30q0 -96 24 -139q33 -57 122 -57h29v-149zM525 -489l75 102l114 -84l-78 -99zM390 -302l80 105l116 -84l78 98l115 -81l-84 -105l-111 82l-78 -96z" />
    <glyph glyph-name="uni069B.fina" unicode="&#x69b;" horiz-adv-x="1992" 
d="M1992 0h-44q-123 1 -171 103q-73 -102 -196 -102q-129 0 -182 102q-63 -102 -186 -102q-84 0 -139 50q2 -23 2 -46q0 -235 -146.5 -373t-382.5 -138q-197 0 -316.5 116t-119.5 312q0 157 91 309l99 -37q-26 -41 -47.5 -117t-21.5 -124q0 -311 339 -311q157 0 268 79
q124 88 124 239q0 152 -96 304l117 100q51 -103 86 -145q58 -69 135 -69q84 0 117 40q29 37 29 123v24l97 35v-26q0 -196 129 -196q84 0 118 39t34 124v24l97 35v-26q0 -96 25 -139q33 -57 121 -57h20v-150zM1349 -523l75 102l114 -84l-78 -99zM1214 -336l80 105l116 -84
l78 98l115 -81l-84 -105l-111 82l-78 -96z" />
    <glyph glyph-name="uni069C.init" unicode="&#x69c;" horiz-adv-x="1013" 
d="M1012 265q0 -107 -57 -182q-63 -81 -167 -81q-138 0 -193 102q-74 -103 -200 -103q-137 0 -174 104q-58 -104 -189 -105h-102v150h74q88 0 127.5 37t39.5 126v24l98 35v-26q0 -196 129 -196q149 0 149 164v24l98 35v-26q0 -196 149 -196q107 0 107 96q0 68 -61 133
l96 109q76 -92 76 -224zM528 -497l75 102l114 -84l-78 -99zM393 -310l80 105l116 -84l78 98l115 -81l-84 -105l-111 82l-78 -96zM663 882l-85 -112l-124 88l88 109zM795 707l-86 -113l-125 90l-83 -106l-122 87l89 113l120 -88l82 104z" />
    <glyph glyph-name="uni069C.medi" unicode="&#x69c;" horiz-adv-x="1211" 
d="M1211 1h-32q-148 0 -193 102q-70 -102 -207 -102q-121 0 -171 102q-75 -102 -212 -102q-128 0 -175 102q-59 -102 -189 -103h-102v150h75q88 0 127.5 37t39.5 126v24l98 35v-26q0 -196 129 -196q88 0 124.5 37.5t36.5 125.5v24l97 35v-26q0 -196 130 -196q151 0 151 163
v24l98 39v-30q0 -96 24 -139q33 -57 122 -57h29v-149zM555 -493l75 102l114 -84l-78 -99zM420 -306l80 105l116 -84l78 98l115 -81l-84 -105l-111 82l-78 -96zM672 856l-85 -112l-124 88l88 109zM804 681l-86 -113l-125 90l-83 -106l-122 87l89 113l120 -88l82 104z" />
    <glyph glyph-name="uni069C.fina" unicode="&#x69c;" horiz-adv-x="1992" 
d="M1992 0h-44q-123 1 -171 103q-73 -102 -196 -102q-129 0 -182 102q-63 -102 -186 -102q-84 0 -139 50q2 -23 2 -46q0 -235 -146.5 -373t-382.5 -138q-197 0 -316.5 116t-119.5 312q0 157 91 309l99 -37q-26 -41 -47.5 -117t-21.5 -124q0 -311 339 -311q157 0 268 79
q124 88 124 239q0 152 -96 304l117 100q51 -103 86 -145q58 -69 135 -69q84 0 117 40q29 37 29 123v24l97 35v-26q0 -196 129 -196q84 0 118 39t34 124v24l97 35v-26q0 -96 25 -139q33 -57 121 -57h20v-150zM1333 -528l75 102l114 -84l-78 -99zM1198 -341l80 105l116 -84
l78 98l115 -81l-84 -105l-111 82l-78 -96zM1466 867l-85 -112l-124 88l88 109zM1598 692l-86 -113l-125 90l-83 -106l-122 87l89 113l120 -88l82 104z" />
    <glyph glyph-name="uni069D.init" unicode="&#x69d;" horiz-adv-x="1313" 
d="M1261 376q0 -198 -179 -296q-143 -79 -359 -79h-270q-95 0 -140 14q-67 21 -106 85q-65 -99 -174 -100h-103v150h83q146 0 146 154v39l113 40v-24q0 -209 121 -209q63 0 105 49q29 37 88 111q76 91 184 169q148 107 270 107q88 0 154.5 -61t66.5 -149zM1134 326
q0 55 -51 87q-43 26 -102 26q-138 0 -407 -289h161q207 0 315 63q84 49 84 113zM720 -298l-87 -111l-113 84l-81 -100l-121 86l92 113l109 -82l79 96z" />
    <glyph glyph-name="uni069D.medi" unicode="&#x69d;" horiz-adv-x="1331" 
d="M1331 0h-32q-132 1 -195 89q-146 -88 -381 -88h-270q-95 0 -140 14q-67 21 -106 85q-51 -99 -164 -100h-113v150h83q146 0 146 154v39l113 40v-24q0 -209 121 -209q61 0 101 47q30 38 91 113q242 276 455 276q88 0 154.5 -61t66.5 -149q0 -116 -56 -193q31 -33 106 -33
h20v-150zM1134 326q0 55 -51 87q-43 26 -102 26q-131 0 -407 -289h161q207 0 315 63q84 49 84 113zM693 -313l-87 -111l-113 84l-81 -100l-121 86l92 113l109 -82l79 96z" />
    <glyph glyph-name="uni069D.fina" unicode="&#x69d;" horiz-adv-x="2146" 
d="M2146 0h-31q-138 1 -196 89q-145 -88 -378 -88h-270q-104 0 -169 50q2 -23 2 -46q0 -234 -149 -374q-145 -137 -380 -137q-196 0 -316 116.5t-120 311.5q0 157 91 309l99 -37q-26 -41 -47.5 -117t-21.5 -124q0 -311 339 -311q157 0 268 79q124 88 124 239q0 152 -96 304
l117 100q61 -126 83 -155q45 -59 111 -59q60 0 104 52q31 40 96 118q241 266 453 266q89 0 153.5 -61t64.5 -149q0 -116 -57 -193q31 -33 106 -33h20v-150zM1950 326q0 55 -49 86q-42 27 -101 27q-150 0 -406 -289h160q206 0 313 63q83 49 83 113zM1702 -363l-87 -111
l-113 84l-81 -100l-121 86l92 113l109 -82l79 96z" />
    <glyph glyph-name="uni069E.init" unicode="&#x69e;" horiz-adv-x="1313" 
d="M1261 376q0 -198 -179 -296q-143 -79 -359 -79h-270q-95 0 -140 14q-67 21 -106 85q-65 -99 -174 -100h-103v150h83q146 0 146 154v39l113 40v-24q0 -209 121 -209q63 0 105 49q29 37 88 111q76 91 184 169q148 107 270 107q88 0 154.5 -61t66.5 -149zM1134 326
q0 55 -51 87q-43 26 -102 26q-138 0 -407 -289h161q207 0 315 63q84 49 84 113zM614 954l-85 -112l-124 88l88 109zM746 779l-86 -113l-125 90l-83 -106l-122 87l89 113l120 -88l82 104z" />
    <glyph glyph-name="uni069E.medi" unicode="&#x69e;" horiz-adv-x="1331" 
d="M1331 0h-32q-132 1 -195 89q-146 -88 -381 -88h-270q-95 0 -140 14q-67 21 -106 85q-51 -99 -164 -100h-113v150h83q146 0 146 154v39l113 40v-24q0 -209 121 -209q61 0 101 47q30 38 91 113q242 276 455 276q88 0 154.5 -61t66.5 -149q0 -116 -56 -193q31 -33 106 -33
h20v-150zM1134 326q0 55 -51 87q-43 26 -102 26q-131 0 -407 -289h161q207 0 315 63q84 49 84 113zM616 978l-85 -112l-124 88l88 109zM748 803l-86 -113l-125 90l-83 -106l-122 87l89 113l120 -88l82 104z" />
    <glyph glyph-name="uni069E.fina" unicode="&#x69e;" horiz-adv-x="2146" 
d="M2146 0h-31q-138 1 -196 89q-145 -88 -378 -88h-270q-104 0 -169 50q2 -23 2 -46q0 -234 -149 -374q-145 -137 -380 -137q-196 0 -316 116.5t-120 311.5q0 157 91 309l99 -37q-26 -41 -47.5 -117t-21.5 -124q0 -311 339 -311q157 0 268 79q124 88 124 239q0 152 -96 304
l117 100q61 -126 83 -155q45 -59 111 -59q60 0 104 52q31 40 96 118q241 266 453 266q89 0 153.5 -61t64.5 -149q0 -116 -57 -193q31 -33 106 -33h20v-150zM1950 326q0 55 -49 86q-42 27 -101 27q-150 0 -406 -289h160q206 0 313 63q83 49 83 113zM1363 974l-85 -112
l-124 88l88 109zM1495 799l-86 -113l-125 90l-83 -106l-122 87l89 113l120 -88l82 104z" />
    <glyph glyph-name="uni069F.medi" unicode="&#x69f;" horiz-adv-x="1329" 
d="M1329 0h-31q-133 1 -201 92q-150 -91 -386 -91h-270q-198 0 -307 89l42 115q98 -42 160 -42q109 0 185 127q2 6 2 73q0 345 -19 847l134 49v-888q70 78 172 140q120 73 212 73q93 0 161 -57q73 -60 73 -151q0 -130 -75 -200q21 -19 70 -24q20 -2 59 -2h19v-150zM1126 326
q0 55 -53 87q-45 26 -104 26q-72 0 -210 -103q-62 -46 -222 -186h186q207 0 317 63q86 49 86 113zM1073 1120l-85 -112l-124 88l88 109zM1205 945l-86 -113l-125 90l-83 -106l-122 87l89 113l120 -88l82 104z" />
    <glyph glyph-name="uni06A0.init" unicode="&#x6a0;" horiz-adv-x="837" 
d="M791 263l-15 -138q-380 -124 -742 -125h-104v150h272q-93 80 -93 227q0 103 82 188q92 96 232 96q138 0 249 -96l-48 -98q-91 53 -205 53q-71 0 -129 -35q-69 -41 -69 -107q0 -90 95 -137q74 -36 174 -36q85 0 301 58zM442 1081l-85 -112l-124 88l88 109zM574 906
l-86 -113l-125 90l-83 -106l-122 87l89 113l120 -88l82 104z" />
    <glyph glyph-name="uni06A0.medi" unicode="&#x6a0;" horiz-adv-x="776" 
d="M776 0h-73q-250 1 -321 158q-147 -157 -344 -158h-108v150h87q208 0 295 108q-35 108 -164 113q5 110 102 169q83 50 201 50q68 0 123 -31q66 -38 66 -101q0 -84 -48 -138q-29 -32 -127 -99q76 -71 278 -71h33v-150zM462 1057l-85 -112l-124 88l88 109zM594 882l-86 -113
l-125 90l-83 -106l-122 87l89 113l120 -88l82 104z" />
    <glyph glyph-name="uni06A0.fina" unicode="&#x6a0;" horiz-adv-x="1039" 
d="M1191 -702q-219 -69 -413 -69q-277 0 -439 102q-196 124 -196 385q0 320 429 560q-35 101 -170 105q5 85 81 147q88 72 232 72q72 0 130 -33q69 -40 69 -107q0 -85 -60 -142q-13 -12 -137 -97q61 -71 286 -71h36v-150h-107q-227 1 -303 161q-183 -103 -260 -192
q-89 -103 -89 -241q0 -192 184 -282q140 -69 354 -69q129 0 334 47zM676 1016l-85 -112l-124 88l88 109zM808 841l-86 -113l-125 90l-83 -106l-122 87l89 113l120 -88l82 104z" />
    <glyph glyph-name="afii57459" unicode="&#x6a1;" horiz-adv-x="538" 
d="M500 350q0 -349 -359 -350h-211v150h194q101 0 184 37q76 34 76 63v65q-65 -39 -148 -39q-88 0 -129 58q-29 41 -29 98q0 84 52 193q65 137 156 137q99 0 163 -164q51 -131 51 -248zM359 443q-30 169 -97 169q-29 0 -59 -49q-27 -45 -27 -77q0 -77 80 -77q64 0 103 34z
" />
    <glyph glyph-name="afii57374" unicode="&#x6a1;" horiz-adv-x="574" 
d="M574 1h-19q-175 0 -284 90q-141 -91 -260 -91h-81v150h97q78 0 133 37q-61 62 -61 176q0 94 89 184q84 85 159 85t127 -82q45 -72 45 -151q0 -142 -120 -223q60 -26 160 -26h15v-149zM410 359q0 37 -25 78q-27 46 -62 46q-36 0 -78 -38.5t-42 -74.5q0 -33 29 -76
q31 -46 62 -46q28 0 72 41.5t44 69.5z" />
    <glyph glyph-name="afii52258" unicode="&#x6a1;" horiz-adv-x="1742" 
d="M1742 0h-72q-186 1 -292 97q-126 -68 -336 -106q-179 -32 -354 -32q-277 0 -398 61q-136 69 -136 236q0 105 62 189l94 -29q-38 -69 -38 -130q0 -115 125 -154q71 -22 220 -22h102q390 0 545 77q-60 53 -60 176q0 93 89 184q84 85 158 85q77 0 129 -86q44 -75 44 -157
q0 -56 -38 -125t-86 -94q41 -20 174 -20h68v-150zM1514 370q0 39 -23 74q-26 39 -63 39q-39 0 -80 -37.5t-41 -75.5q0 -33 30 -75q31 -45 62 -45q35 0 75 42t40 78z" />
    <glyph glyph-name="uni06A2.init" unicode="&#x6a2;" horiz-adv-x="538" 
d="M500 350q0 -349 -359 -350h-211v150h194q101 0 184 37q76 34 76 63v65q-65 -39 -148 -39q-88 0 -129 58q-29 41 -29 98q0 84 52 193q65 137 156 137q99 0 163 -164q51 -131 51 -248zM359 443q-30 169 -97 169q-29 0 -59 -49q-27 -45 -27 -77q0 -77 80 -77q64 0 103 34z
M399 -238l-97 -128l-131 87l96 131z" />
    <glyph glyph-name="uni06A2.medi" unicode="&#x6a2;" horiz-adv-x="574" 
d="M574 1h-19q-175 0 -284 90q-141 -91 -260 -91h-81v150h97q78 0 133 37q-61 62 -61 176q0 94 89 184q84 85 159 85t127 -82q45 -72 45 -151q0 -142 -120 -223q60 -26 160 -26h15v-149zM410 359q0 37 -25 78q-27 46 -62 46q-36 0 -78 -38.5t-42 -74.5q0 -33 29 -76
q31 -46 62 -46q28 0 72 41.5t44 69.5zM371 -246l-97 -128l-131 87l96 131z" />
    <glyph glyph-name="uni06A2.fina" unicode="&#x6a2;" horiz-adv-x="1742" 
d="M1742 0h-72q-186 1 -292 97q-126 -68 -336 -106q-179 -32 -354 -32q-277 0 -398 61q-136 69 -136 236q0 105 62 189l94 -29q-38 -69 -38 -130q0 -115 125 -154q71 -22 220 -22h102q390 0 545 77q-60 53 -60 176q0 93 89 184q84 85 158 85q77 0 129 -86q44 -75 44 -157
q0 -56 -38 -125t-86 -94q41 -20 174 -20h68v-150zM1514 370q0 39 -23 74q-26 39 -63 39q-39 0 -80 -37.5t-41 -75.5q0 -33 30 -75q31 -45 62 -45q35 0 75 42t40 78zM1472 -235l-97 -128l-131 87l96 131z" />
    <glyph glyph-name="uni06A3.init" unicode="&#x6a3;" horiz-adv-x="538" 
d="M500 350q0 -349 -359 -350h-211v150h194q101 0 184 37q76 34 76 63v65q-65 -39 -148 -39q-88 0 -129 58q-29 41 -29 98q0 84 52 193q65 137 156 137q99 0 163 -164q51 -131 51 -248zM359 443q-30 169 -97 169q-29 0 -59 -49q-27 -45 -27 -77q0 -77 80 -77q64 0 103 34z
M335 1026l-97 -128l-131 87l96 131zM371 -254l-97 -128l-131 87l96 131z" />
    <glyph glyph-name="uni06A3.medi" unicode="&#x6a3;" horiz-adv-x="574" 
d="M574 1h-19q-175 0 -284 90q-141 -91 -260 -91h-81v150h97q78 0 133 37q-61 62 -61 176q0 94 89 184q84 85 159 85t127 -82q45 -72 45 -151q0 -142 -120 -223q60 -26 160 -26h15v-149zM410 359q0 37 -25 78q-27 46 -62 46q-36 0 -78 -38.5t-42 -74.5q0 -33 29 -76
q31 -46 62 -46q28 0 72 41.5t44 69.5zM400 919l-97 -128l-131 87l96 131zM387 -246l-97 -128l-131 87l96 131z" />
    <glyph glyph-name="uni06A3.fina" unicode="&#x6a3;" horiz-adv-x="1742" 
d="M1742 0h-72q-186 1 -292 97q-126 -68 -336 -106q-179 -32 -354 -32q-277 0 -398 61q-136 69 -136 236q0 105 62 189l94 -29q-38 -69 -38 -130q0 -115 125 -154q71 -22 220 -22h102q390 0 545 77q-60 53 -60 176q0 93 89 184q84 85 158 85q77 0 129 -86q44 -75 44 -157
q0 -56 -38 -125t-86 -94q41 -20 174 -20h68v-150zM1514 370q0 39 -23 74q-26 39 -63 39q-39 0 -80 -37.5t-41 -75.5q0 -33 30 -75q31 -45 62 -45q35 0 75 42t40 78zM1496 901l-97 -128l-131 87l96 131zM1474 -216l-97 -128l-131 87l96 131z" />
    <glyph glyph-name="uni06A5.init" unicode="&#x6a5;" horiz-adv-x="538" 
d="M500 350q0 -349 -359 -350h-211v150h194q101 0 184 37q76 34 76 63v65q-65 -39 -148 -39q-88 0 -129 58q-29 41 -29 98q0 84 52 193q65 137 156 137q99 0 163 -164q51 -131 51 -248zM359 443q-30 169 -97 169q-29 0 -59 -49q-27 -45 -27 -77q0 -77 80 -77q64 0 103 34z
M211 -443l75 102l114 -84l-78 -99zM76 -256l80 105l116 -84l78 98l115 -81l-84 -105l-111 82l-78 -96z" />
    <glyph glyph-name="uni06A5.medi" unicode="&#x6a5;" horiz-adv-x="574" 
d="M574 1h-19q-175 0 -284 90q-141 -91 -260 -91h-81v150h97q78 0 133 37q-61 62 -61 176q0 94 89 184q84 85 159 85t127 -82q45 -72 45 -151q0 -142 -120 -223q60 -26 160 -26h15v-149zM410 359q0 37 -25 78q-27 46 -62 46q-36 0 -78 -38.5t-42 -74.5q0 -33 29 -76
q31 -46 62 -46q28 0 72 41.5t44 69.5zM203 -467l75 102l114 -84l-78 -99zM68 -280l80 105l116 -84l78 98l115 -81l-84 -105l-111 82l-78 -96z" />
    <glyph glyph-name="uni06A5.fina" unicode="&#x6a5;" horiz-adv-x="1742" 
d="M1742 0h-72q-186 1 -292 97q-126 -68 -336 -106q-179 -32 -354 -32q-277 0 -398 61q-136 69 -136 236q0 105 62 189l94 -29q-38 -69 -38 -130q0 -115 125 -154q71 -22 220 -22h102q390 0 545 77q-60 53 -60 176q0 93 89 184q84 85 158 85q77 0 129 -86q44 -75 44 -157
q0 -56 -38 -125t-86 -94q41 -20 174 -20h68v-150zM1514 370q0 39 -23 74q-26 39 -63 39q-39 0 -80 -37.5t-41 -75.5q0 -33 30 -75q31 -45 62 -45q35 0 75 42t40 78zM1336 -439l75 102l114 -84l-78 -99zM1201 -252l80 105l116 -84l78 98l115 -81l-84 -105l-111 82l-78 -96z
" />
    <glyph glyph-name="uni06A7.fina" unicode="&#x6a7;" horiz-adv-x="1199" 
d="M1199 0h-44q-25 -221 -168 -362q-149 -147 -369 -147q-251 0 -373 151q-94 117 -94 290q0 153 83 281l99 -41q-60 -116 -60 -253q0 -139 119 -215q102 -65 249 -65q167 0 276 105q105 101 126 256h-85q-232 6 -232 186q0 99 48 189q56 105 142 105q98 0 166 -125
q54 -98 66 -205h51v-150zM1024 150q-4 50 -31 110q-34 77 -80 77q-33 0 -60 -37q-24 -33 -24 -68q0 -88 124 -82h71zM973 718l-97 -128l-131 87l96 131z" />
    <glyph glyph-name="uni06A8.fina" unicode="&#x6a8;" horiz-adv-x="1199" 
d="M1199 0h-44q-25 -221 -168 -362q-149 -147 -369 -147q-251 0 -373 151q-94 117 -94 290q0 153 83 281l99 -41q-60 -116 -60 -253q0 -139 119 -215q102 -65 249 -65q167 0 276 105q105 101 126 256h-85q-232 6 -232 186q0 99 48 189q56 105 142 105q98 0 166 -125
q54 -98 66 -205h51v-150zM1024 150q-4 50 -31 110q-34 77 -80 77q-33 0 -60 -37q-24 -33 -24 -68q0 -88 124 -82h71zM932 877l-85 -112l-124 88l88 109zM1064 702l-86 -113l-125 90l-83 -106l-122 87l89 113l120 -88l82 104z" />
    <glyph glyph-name="uni06AA.init" unicode="&#x6aa;" horiz-adv-x="1694" 
d="M-29 1v150l121 -1q60 0 250 3t529.5 36t677.5 80q0 10 0.5 24t-1.5 23q-6 43 -20 74.5t-40.5 51t-68.5 28t-105 5.5q-42 0 -107.5 -4t-145.5 -9t-170.5 -10.5t-182 -9t-181 -4t-167.5 4.5q-62 5 -102 12t-64.5 18.5t-37.5 27t-20 36.5q-18 46 -0.5 91.5t60 89t105.5 84.5
t136.5 78t152 70t152.5 60.5t138 48t109 34.5l-39 -156q-20 -8 -62 -22t-96.5 -33.5t-118 -42t-126 -46.5t-121 -48t-103.5 -46.5t-72 -41.5t-28 -32q6 -26 48.5 -41t109.5 -21.5t153 -5.5t181 5t192.5 11t187 12.5t166 9.5t128.5 2q89 -7 148 -39t87 -81.5t26 -112
t-34 -130.5q-19 -43 -76 -106q-654 -96 -1019 -112q-363 -16 -464 -15v-1z" />
    <glyph glyph-name="uni06AA.medi" unicode="&#x6aa;" horiz-adv-x="1907" 
d="M-29 1v150l121 -1q60 0 250 3t529.5 36t677.5 80q0 10 0.5 24t-1.5 23q-6 43 -20 74.5t-40.5 51t-68.5 28t-105 5.5q-42 0 -107.5 -4t-145.5 -9t-170.5 -10.5t-182 -9t-181 -4t-167.5 4.5q-62 5 -102 12t-64.5 18.5t-37.5 27t-20 36.5q-18 46 -0.5 91.5t60 89t105.5 84.5
t136.5 78t152 70t152.5 60.5t138 48t109 34.5l-39 -156q-20 -8 -62 -22t-96.5 -33.5t-118 -42t-126 -46.5t-121 -48t-103.5 -46.5t-72 -41.5t-28 -32q6 -26 48.5 -41t109.5 -21.5t153 -5.5t181 5t192.5 11t187 12.5t166 9.5t128.5 2q89 -7 148 -39t87 -81.5t26 -112
t-34 -130.5q-8 -18 -22 -39q9 -17 32 -27q43 -18 172 -18h127q11 -26 16.5 -43t5.5 -32t-5.5 -32t-16.5 -43h-112q-124 -2 -184 7.5t-90 34.5q-28 24 -25 82q-636 -93 -993 -108q-363 -16 -464 -15v-1z" />
    <glyph glyph-name="uni06AA.fina" unicode="&#x6aa;" horiz-adv-x="2506" 
d="M626 -1q-253 3 -367 61q-136 69 -136 236q2 105 62 189l94 -29q-38 -69 -38 -130q0 -115 125 -154q120 -25 295 -23q60 0 250 3.5t529.5 36.5t677.5 80q0 10 0.5 24t-1.5 23q-6 43 -20 74.5t-40.5 51t-68.5 28t-105 5.5q-42 0 -107.5 -4t-145.5 -9t-170.5 -10.5t-182 -9
t-181 -4t-167.5 4.5q-62 5 -102 12t-64.5 18.5t-37.5 27t-20 36.5q-18 46 -0.5 91.5t60 89t105.5 84.5t136.5 78t152 70t152.5 60.5t138 48t109 34.5l-39 -156q-20 -8 -62 -22t-96.5 -33.5t-118 -42t-126 -46.5t-121 -48t-103.5 -46.5t-72 -41.5t-28 -32q6 -26 48.5 -41
t109.5 -21.5t153 -5.5t181 5t192.5 11t187 12.5t166 9.5t128.5 2q89 -7 148 -39t87 -81.5t26 -112t-34 -130.5q-2 -5 -5 -10q-1 -39 37 -56q43 -18 172 -18h127q11 -26 16.5 -43t5.5 -32t-5.5 -32t-16.5 -43h-112q-124 -2 -184 7.5t-90 34.5q-27 23 -25 71l1 14
q-653 -95 -1016 -111t-464 -16v-1v0z" />
    <glyph glyph-name="uni06AB.init" unicode="&#x6ab;" horiz-adv-x="756" 
d="M774 1230l-20 -155q-415 -171 -646 -331q290 -236 290 -430q0 -92 -62 -177q-100 -136 -339 -137h-67v150h134q216 0 216 147q0 82 -91 181q-19 20 -210 194q7 135 35 154q296 205 760 404zM711 886q0 -68 -42 -117q-45 -51 -112 -51q-58 0 -96 37t-38 94q0 97 47 154
q37 47 82 47q50 0 101 -42q58 -50 58 -122zM647 878q0 41 -33 67q-30 24 -73 24q-21 0 -41 -31.5t-20 -54.5q0 -73 79 -73q33 0 59 17q29 19 29 51z" />
    <glyph glyph-name="uni06AB.medi" unicode="&#x6ab;" horiz-adv-x="851" 
d="M851 0h-31q-247 1 -455 336q5 -30 5 -58q0 -145 -109 -217q-92 -60 -245 -61h-86v150h77q274 0 274 163q0 79 -74 153q-65 61 -196 185q3 145 19 156q125 88 395 232q258 137 408 198l-20 -154q-159 -66 -381 -179q-240 -122 -308 -176q51 -42 152 -127q72 -61 131 -130
q134 -156 203 -217q118 -104 208 -104h33v-150zM774 883q0 -68 -42 -117q-45 -51 -112 -51q-58 0 -96 37t-38 94q0 97 47 154q37 47 82 47q50 0 101 -42q58 -50 58 -122zM710 875q0 41 -33 67q-30 24 -73 24q-21 0 -41 -31.5t-20 -54.5q0 -73 79 -73q33 0 59 17q29 19 29 51
z" />
    <glyph glyph-name="uni06AB.fina" unicode="&#x6ab;" horiz-adv-x="1807" 
d="M1807 0h-31q-258 1 -463 342q4 -23 4 -45q0 -193 -278 -281q-180 -57 -394 -57q-277 0 -398 61q-136 69 -136 236q0 105 62 189l94 -29q-38 -69 -38 -130q0 -176 345 -176h29q180 0 354 35q271 54 271 168q0 90 -75 162q-18 17 -198 179q3 144 20 156q128 90 394 232
q258 137 408 198l-20 -154q-161 -67 -381 -179q-238 -121 -308 -176l153 -127q79 -70 133 -133q274 -321 415 -321h38v-150zM1689 894q0 -68 -42 -117q-45 -51 -112 -51q-58 0 -96 37t-38 94q0 97 47 154q37 47 82 47q50 0 101 -42q58 -50 58 -122zM1625 886q0 41 -33 67
q-30 24 -73 24q-21 0 -41 -31.5t-20 -54.5q0 -73 79 -73q33 0 59 17q29 19 29 51z" />
    <glyph glyph-name="uni06AE.init" unicode="&#x6ae;" horiz-adv-x="756" 
d="M774 1230l-20 -155q-415 -171 -646 -331q290 -236 290 -430q0 -92 -62 -177q-100 -136 -339 -137h-67v150h134q216 0 216 147q0 82 -91 181q-19 20 -210 194q7 135 35 154q296 205 760 404zM325 -424l75 102l114 -84l-78 -99zM190 -237l80 105l116 -84l78 98l115 -81
l-84 -105l-111 82l-78 -96z" />
    <glyph glyph-name="uni06AE.medi" unicode="&#x6ae;" horiz-adv-x="851" 
d="M851 0h-31q-247 1 -455 336q5 -30 5 -58q0 -145 -109 -217q-92 -60 -245 -61h-86v150h77q274 0 274 163q0 79 -74 153q-65 61 -196 185q3 145 19 156q125 88 395 232q258 137 408 198l-20 -154q-159 -66 -381 -179q-240 -122 -308 -176q51 -42 152 -127q72 -61 131 -130
q134 -156 203 -217q118 -104 208 -104h33v-150zM306 -462l75 102l114 -84l-78 -99zM171 -275l80 105l116 -84l78 98l115 -81l-84 -105l-111 82l-78 -96z" />
    <glyph glyph-name="uni06AE.fina" unicode="&#x6ae;" horiz-adv-x="1532" 
d="M1532 0h-63q-132 1 -191 140l-2 2q-69 -79 -219 -126q-180 -57 -394 -57q-277 0 -398 61q-136 69 -136 236q0 105 62 189l94 -29q-38 -69 -38 -130q0 -176 345 -176h29q180 0 354 35q156 31 222 78v1q30 56 26 187l-23 790l132 68v-809q0 -310 159 -310h41v-150zM863 560
l-384 -98v67l99 41q-50 49 -50 97q0 57 46 103t103 46q67 0 116 -38l-23 -56q-45 14 -96 14q-25 0 -52 -14q-32 -17 -32 -39q0 -70 119 -70q16 0 154 42v-95zM637 -510l75 102l114 -84l-78 -99zM502 -323l80 105l116 -84l78 98l115 -81l-84 -105l-111 82l-78 -96z" />
    <glyph glyph-name="uni06B0.init" unicode="&#x6b0;" horiz-adv-x="639" 
d="M741 1384l-8 -103q-129 -52 -351 -170l-356 -190l11 88q423 240 704 375zM749 1176l-20 -157q-172 -65 -366 -160q-179 -88 -243 -134q113 -92 164 -153q110 -131 110 -261q0 -310 -378 -311h-86v150h134q217 0 217 139q0 118 -287 359q6 123 34 143q306 216 721 385z
M667 952q0 -68 -42 -117q-45 -51 -112 -51q-58 0 -96 37t-38 94q0 97 47 154q37 47 82 47q50 0 101 -42q58 -50 58 -122zM603 944q0 41 -33 67q-30 24 -73 24q-21 0 -41 -31.5t-20 -54.5q0 -73 79 -73q33 0 59 17q29 19 29 51z" />
    <glyph glyph-name="uni06B0.medi" unicode="&#x6b0;" horiz-adv-x="851" 
d="M816 1384l-20 -106q-111 -43 -370 -173l-387 -194l10 85q536 290 767 388zM851 0h-31q-247 1 -455 336q5 -30 5 -58q0 -145 -109 -217q-92 -60 -245 -61h-86v150h77q274 0 274 163q0 58 -85 142q-5 5 -190 166q4 151 24 165q124 88 386 219q236 118 396 180l-20 -155
q-139 -45 -346 -142q-230 -108 -322 -181q18 -15 152 -117q82 -63 131 -119q134 -156 203 -217q118 -104 208 -104h33v-150zM786 827q0 -68 -42 -117q-45 -51 -112 -51q-58 0 -96 37t-38 94q0 97 47 154q37 47 82 47q50 0 101 -42q58 -50 58 -122zM722 819q0 41 -33 67
q-30 24 -73 24q-21 0 -41 -31.5t-20 -54.5q0 -73 79 -73q33 0 59 17q29 19 29 51z" />
    <glyph glyph-name="uni06B0.fina" unicode="&#x6b0;" horiz-adv-x="1820" 
d="M1776 1387l-20 -106q-120 -47 -370 -172l-387 -195l11 85q535 290 766 388zM1820 0h-31q-258 1 -463 342q4 -23 4 -45q0 -193 -278 -281q-180 -57 -394 -57q-277 0 -398 61q-136 69 -136 236q0 105 62 189l94 -29q-38 -69 -38 -130q0 -176 345 -176h29q180 0 354 35
q271 54 271 168q0 90 -85 161l-189 150q3 150 24 165q124 88 386 219q239 120 395 180l-20 -155q-139 -45 -346 -142q-230 -108 -322 -181l148 -112q86 -68 135 -127q270 -321 415 -321h38v-150zM1772 845q0 -68 -42 -117q-45 -51 -112 -51q-58 0 -96 37t-38 94q0 97 47 154
q37 47 82 47q50 0 101 -42q58 -50 58 -122zM1708 837q0 41 -33 67q-30 24 -73 24q-21 0 -41 -31.5t-20 -54.5q0 -73 79 -73q33 0 59 17q29 19 29 51z" />
    <glyph glyph-name="uni06B2.init" unicode="&#x6b2;" horiz-adv-x="731" 
d="M741 1384l-8 -103q-129 -52 -351 -170l-356 -190l11 88q423 240 704 375zM749 1176l-20 -157q-172 -65 -366 -160q-179 -88 -243 -134q113 -92 164 -153q110 -131 110 -261q0 -310 -378 -311h-86v150h134q217 0 217 139q0 118 -287 359q6 123 34 143q306 216 721 385z
M523 -261l-87 -111l-113 84l-81 -100l-121 86l92 113l109 -82l79 96z" />
    <glyph glyph-name="uni06B2.medi" unicode="&#x6b2;" horiz-adv-x="851" 
d="M816 1384l-20 -106q-111 -43 -370 -173l-387 -194l10 85q536 290 767 388zM851 0h-31q-247 1 -455 336q5 -30 5 -58q0 -145 -109 -217q-92 -60 -245 -61h-86v150h77q274 0 274 163q0 58 -85 142q-5 5 -190 166q4 151 24 165q124 88 386 219q236 118 396 180l-20 -155
q-139 -45 -346 -142q-230 -108 -322 -181q18 -15 152 -117q82 -63 131 -119q134 -156 203 -217q118 -104 208 -104h33v-150zM577 -244l-87 -111l-113 84l-81 -100l-121 86l92 113l109 -82l79 96z" />
    <glyph glyph-name="uni06B2.fina" unicode="&#x6b2;" horiz-adv-x="1820" 
d="M1776 1387l-20 -106q-120 -47 -370 -172l-387 -195l11 85q535 290 766 388zM1820 0h-31q-258 1 -463 342q4 -23 4 -45q0 -193 -278 -281q-180 -57 -394 -57q-277 0 -398 61q-136 69 -136 236q0 105 62 189l94 -29q-38 -69 -38 -130q0 -176 345 -176h29q180 0 354 35
q271 54 271 168q0 90 -85 161l-189 150q3 150 24 165q124 88 386 219q239 120 395 180l-20 -155q-139 -45 -346 -142q-230 -108 -322 -181l148 -112q86 -68 135 -127q270 -321 415 -321h38v-150zM893 -277l-87 -111l-113 84l-81 -100l-121 86l92 113l109 -82l79 96z" />
    <glyph glyph-name="uni06B4.init" unicode="&#x6b4;" horiz-adv-x="731" 
d="M741 1384l-8 -103q-129 -52 -351 -170l-356 -190l11 88q423 240 704 375zM749 1176l-20 -157q-172 -65 -366 -160q-179 -88 -243 -134q113 -92 164 -153q110 -131 110 -261q0 -310 -378 -311h-86v150h134q217 0 217 139q0 118 -287 359q6 123 34 143q306 216 721 385z
M354 1619l-85 -112l-124 88l88 109zM486 1444l-86 -113l-125 90l-83 -106l-122 87l89 113l120 -88l82 104z" />
    <glyph glyph-name="uni06B4.medi" unicode="&#x6b4;" horiz-adv-x="851" 
d="M816 1384l-20 -106q-111 -43 -370 -173l-387 -194l10 85q536 290 767 388zM851 0h-31q-247 1 -455 336q5 -30 5 -58q0 -145 -109 -217q-92 -60 -245 -61h-86v150h77q274 0 274 163q0 58 -85 142q-5 5 -190 166q4 151 24 165q124 88 386 219q236 118 396 180l-20 -155
q-139 -45 -346 -142q-230 -108 -322 -181q18 -15 152 -117q82 -63 131 -119q134 -156 203 -217q118 -104 208 -104h33v-150zM389 1589l-85 -112l-124 88l88 109zM521 1414l-86 -113l-125 90l-83 -106l-122 87l89 113l120 -88l82 104z" />
    <glyph glyph-name="uni06B4.fina" unicode="&#x6b4;" horiz-adv-x="1820" 
d="M1776 1387l-20 -106q-120 -47 -370 -172l-387 -195l11 85q535 290 766 388zM1820 0h-31q-258 1 -463 342q4 -23 4 -45q0 -193 -278 -281q-180 -57 -394 -57q-277 0 -398 61q-136 69 -136 236q0 105 62 189l94 -29q-38 -69 -38 -130q0 -176 345 -176h29q180 0 354 35
q271 54 271 168q0 90 -85 161l-189 150q3 150 24 165q124 88 386 219q239 120 395 180l-20 -155q-139 -45 -346 -142q-230 -108 -322 -181l148 -112q86 -68 135 -127q270 -321 415 -321h38v-150zM1347 1579l-85 -112l-124 88l88 109zM1479 1404l-86 -113l-125 90l-83 -106
l-122 87l89 113l120 -88l82 104z" />
    <glyph glyph-name="uni06B5.init" unicode="&#x6b5;" horiz-adv-x="346" 
d="M292 434q0 -203 -39 -295q-59 -138 -221 -139h-102v150h104q99 0 131 77q19 46 19 166q0 38 -1 70l-23 738l132 68v-835zM337 1584q-15 -12 -34.5 -38.5t-39 -62.5t-36.5 -78.5t-28 -87.5h-28l-1 3q-12 44 -29.5 86.5t-36.5 78t-38 61.5t-33 38l88 2q21 -32 36.5 -78
t26.5 -96q11 50 27 96t38 78z" />
    <glyph glyph-name="uni06B5.medi" unicode="&#x6b5;" horiz-adv-x="465" 
d="M465 0h-31q-132 1 -188 135q-80 -134 -214 -135h-102v150h72q120 0 160 74q30 56 26 187l-23 790l132 68v-809q0 -310 159 -310h9v-150zM366 1602q-15 -12 -34.5 -38.5t-39 -62.5t-36.5 -78.5t-28 -87.5h-28l-1 3q-12 44 -29.5 86.5t-36.5 78t-38 61.5t-33 38l88 2
q21 -32 36.5 -78t26.5 -96q11 50 27 96t38 78z" />
    <glyph glyph-name="uni06B5.fina" unicode="&#x6b5;" horiz-adv-x="1236" 
d="M1108 1623q-15 -12 -34.5 -38.5t-39 -62.5t-36.5 -78.5t-28 -87.5h-28l-1 3q-12 44 -29.5 86.5t-36.5 78t-38 61.5t-33 38l88 2q21 -32 36.5 -78t26.5 -96q11 50 27 96t38 78zM1236 0h-33q-103 1 -159 89q0 -575 -507 -575q-192 0 -298 115q-103 111 -103 304
q0 181 87 319l100 -37q-66 -123 -66 -252q0 -301 315 -301q379 0 366 424l-34 1110l143 73v-850q0 -269 184 -269h5v-150z" />
    <glyph glyph-name="uni06B6.init" unicode="&#x6b6;" horiz-adv-x="346" 
d="M292 434q0 -203 -39 -295q-59 -138 -221 -139h-102v150h104q99 0 131 77q19 46 19 166q0 38 -1 70l-23 738l132 68v-835zM305 1483l-97 -128l-131 87l96 131z" />
    <glyph glyph-name="uni06B6.medi" unicode="&#x6b6;" horiz-adv-x="465" 
d="M465 0h-31q-132 1 -188 135q-80 -134 -214 -135h-102v150h72q120 0 160 74q30 56 26 187l-23 790l132 68v-809q0 -310 159 -310h9v-150zM332 1479l-97 -128l-131 87l96 131z" />
    <glyph glyph-name="uni06B6.fina" unicode="&#x6b6;" horiz-adv-x="1236" 
d="M1057 1478l-97 -128l-131 87l96 131zM1236 0h-33q-103 1 -159 89q0 -575 -507 -575q-192 0 -298 115q-103 111 -103 304q0 181 87 319l100 -37q-66 -123 -66 -252q0 -301 315 -301q379 0 366 424l-34 1110l143 73v-850q0 -269 184 -269h5v-150z" />
    <glyph glyph-name="uni06B7.init" unicode="&#x6b7;" horiz-adv-x="346" 
d="M292 434q0 -203 -39 -295q-59 -138 -221 -139h-102v150h104q99 0 131 77q19 46 19 166q0 38 -1 70l-23 738l132 68v-835zM258 1656l-85 -112l-124 88l88 109zM390 1481l-86 -113l-125 90l-83 -106l-122 87l89 113l120 -88l82 104z" />
    <glyph glyph-name="uni06B7.medi" unicode="&#x6b7;" horiz-adv-x="465" 
d="M465 0h-31q-132 1 -188 135q-80 -134 -214 -135h-102v150h72q120 0 160 74q30 56 26 187l-23 790l132 68v-809q0 -310 159 -310h9v-150zM275 1646l-85 -112l-124 88l88 109zM407 1471l-86 -113l-125 90l-83 -106l-122 87l89 113l120 -88l82 104z" />
    <glyph glyph-name="uni06B7.fina" unicode="&#x6b7;" horiz-adv-x="1236" 
d="M1035 1667l-85 -112l-124 88l88 109zM1167 1492l-86 -113l-125 90l-83 -106l-122 87l89 113l120 -88l82 104zM1236 0h-33q-103 1 -159 89q0 -575 -507 -575q-192 0 -298 115q-103 111 -103 304q0 181 87 319l100 -37q-66 -123 -66 -252q0 -301 315 -301q379 0 366 424
l-34 1110l143 73v-850q0 -269 184 -269h5v-150z" />
    <glyph glyph-name="uni06B8.init" unicode="&#x6b8;" horiz-adv-x="346" 
d="M292 434q0 -203 -39 -295q-59 -138 -221 -139h-102v150h104q99 0 131 77q19 46 19 166q0 38 -1 70l-23 738l132 68v-835zM66 -481l75 102l114 -84l-78 -99zM-69 -294l80 105l116 -84l78 98l115 -81l-84 -105l-111 82l-78 -96z" />
    <glyph glyph-name="uni06B8.medi" unicode="&#x6b8;" horiz-adv-x="465" 
d="M465 0h-31q-132 1 -188 135q-80 -134 -214 -135h-102v150h72q120 0 160 74q30 56 26 187l-23 790l132 68v-809q0 -310 159 -310h9v-150zM161 -472l75 102l114 -84l-78 -99zM26 -285l80 105l116 -84l78 98l115 -81l-84 -105l-111 82l-78 -96z" />
    <glyph glyph-name="uni06B8.fina" unicode="&#x6b8;" horiz-adv-x="1236" 
d="M531 -938l75 102l114 -84l-78 -99zM396 -751l80 105l116 -84l78 98l115 -81l-84 -105l-111 82l-78 -96zM1236 0h-33q-103 1 -159 89q0 -575 -507 -575q-192 0 -298 115q-103 111 -103 304q0 181 87 319l100 -37q-66 -123 -66 -252q0 -301 315 -301q379 0 366 424
l-34 1110l143 73v-850q0 -269 184 -269h5v-150z" />
    <glyph glyph-name="uni06B9.init" unicode="&#x6b9;" horiz-adv-x="417" 
d="M370 258q0 -257 -299 -258h-123v150h131q173 0 173 93q0 50 -51 116l-34 44l103 113q100 -112 100 -258zM282 783l-97 -128l-131 87l96 131zM289 -275l-97 -128l-131 87l96 131z" />
    <glyph glyph-name="uni06B9.medi" unicode="&#x6b9;" horiz-adv-x="548" 
d="M548 1h-54q-175 0 -230 122q-27 -55 -86.5 -88.5t-123.5 -33.5h-124v149h115q74 0 125 34q58 39 58 110v63l102 27q1 -145 52 -195q39 -39 136 -39h30v-149zM370 705l-97 -128l-131 87l96 131zM364 -272l-97 -128l-131 87l96 131z" />
    <glyph glyph-name="uni06B9.fina" unicode="&#x6b9;" horiz-adv-x="1185" 
d="M683 536l-97 -128l-131 87l96 131zM687 -737l-97 -128l-131 87l96 131zM1185 0h-29q-71 1 -118 49q1 -22 1 -44q0 -222 -142 -356q-138 -131 -361 -131q-187 0 -301 111t-114 297q0 149 86 294l94 -35q-65 -107 -65 -230q0 -296 323 -296q148 0 254 76q119 85 119 227
q0 144 -91 289l111 96q51 -104 80 -139q54 -58 130 -58h23v-150z" />
    <glyph glyph-name="uni06BC.init" unicode="&#x6bc;" horiz-adv-x="417" 
d="M370 258q0 -257 -299 -258h-123v150h131q173 0 173 93q0 50 -51 116l-34 44l103 113q100 -112 100 -258zM266 746l-97 -128l-131 87l96 131zM391 -114q0 -68 -42 -117q-45 -51 -112 -51q-58 0 -96 37t-38 94q0 97 47 154q37 47 82 47q50 0 101 -42q58 -50 58 -122z
M327 -122q0 41 -33 67q-30 24 -73 24q-21 0 -41 -31.5t-20 -54.5q0 -73 79 -73q33 0 59 17q29 19 29 51z" />
    <glyph glyph-name="uni06BC.medi" unicode="&#x6bc;" horiz-adv-x="548" 
d="M548 1h-54q-175 0 -230 122q-27 -55 -86.5 -88.5t-123.5 -33.5h-124v149h115q74 0 125 34q58 39 58 110v63l102 27q1 -145 52 -195q39 -39 136 -39h30v-149zM382 645l-97 -128l-131 87l96 131zM301 -113q0 -68 -42 -117q-45 -51 -112 -51q-58 0 -96 37t-38 94
q0 97 47 154q37 47 82 47q50 0 101 -42q58 -50 58 -122zM237 -121q0 41 -33 67q-30 24 -73 24q-21 0 -41 -31.5t-20 -54.5q0 -73 79 -73q33 0 59 17q29 19 29 51z" />
    <glyph glyph-name="uni06BC.fina" unicode="&#x6bc;" horiz-adv-x="1185" 
d="M695 566l-97 -128l-131 87l96 131zM1185 0h-29q-71 1 -118 49q1 -22 1 -44q0 -222 -142 -356q-138 -131 -361 -131q-187 0 -301 111t-114 297q0 149 86 294l94 -35q-65 -107 -65 -230q0 -296 323 -296q148 0 254 76q119 85 119 227q0 144 -91 289l111 96q51 -104 80 -139
q54 -58 130 -58h23v-150zM749 -599q0 -68 -42 -117q-45 -51 -112 -51q-58 0 -96 37t-38 94q0 97 47 154q37 47 82 47q50 0 101 -42q58 -50 58 -122zM685 -607q0 41 -33 67q-30 24 -73 24q-21 0 -41 -31.5t-20 -54.5q0 -73 79 -73q33 0 59 17q29 19 29 51z" />
    <glyph glyph-name="uni06BD.fina" unicode="&#x6bd;" horiz-adv-x="1185" 
d="M1185 0h-29q-71 1 -118 49q1 -22 1 -44q0 -222 -142 -356q-138 -131 -361 -131q-187 0 -301 111t-114 297q0 149 86 294l94 -35q-65 -107 -65 -230q0 -296 323 -296q148 0 254 76q119 85 119 227q0 144 -91 289l111 96q51 -104 80 -139q54 -58 130 -58h23v-150zM632 705
l-85 -112l-124 88l88 109zM764 530l-86 -113l-125 90l-83 -106l-122 87l89 113l120 -88l82 104z" />
    <glyph glyph-name="uni06BF.init" unicode="&#x6bf;" horiz-adv-x="954" 
d="M954 419l-34 -143q-172 -1 -300 -73q-72 -45 -218 -131q-129 -71 -321 -72h-151v150h157q135 0 227 30q59 19 161 76q107 60 161 80q-56 14 -176 69q-108 50 -141 50q-51 0 -134 -83l-85 49q35 60 92 114q68 64 116 64q70 0 175 -49q168 -78 198 -89q130 -46 273 -42z
M470 -416l75 102l114 -84l-78 -99zM335 -229l80 105l116 -84l78 98l115 -81l-84 -105l-111 82l-78 -96zM702 802l-97 -128l-131 87l96 131z" />
    <glyph glyph-name="uni06BF.medi" unicode="&#x6bf;" horiz-adv-x="1100" 
d="M1100 0h-129q-134 1 -193 91q-17 26 -53 147l-304 -157q-159 -80 -330 -81h-161v150h157q172 0 305 59q91 43 273 128q-84 18 -212 75q-115 52 -144 52q-59 0 -118 -80l-91 48q99 186 197 186q66 0 172 -48q162 -73 205 -88q137 -47 283 -47q30 0 60 2l-34 -140
q-119 -1 -187 -33q30 -115 213 -114h91v-150zM453 -459l75 102l114 -84l-78 -99zM318 -272l80 105l116 -84l78 98l115 -81l-84 -105l-111 82l-78 -96zM720 849l-97 -128l-131 87l96 131z" />
    <glyph glyph-name="uni06BF.fina" unicode="&#x6bf;" horiz-adv-x="1134" 
d="M1173 -702q-202 -69 -413 -69q-277 0 -439 102q-196 124 -196 385q0 217 180 397q144 144 357 226q-243 72 -280 72q-66 0 -123 -95l-96 42q86 203 204 203q71 0 275 -60t329 -60q53 0 107 5l-38 -150q-137 -2 -201 -27q11 -76 71 -101q44 -18 154 -18h70v-150h-109
q-108 1 -180 72t-81 179q-228 -77 -366 -215q-142 -143 -142 -309q0 -350 544 -350q202 0 334 47zM582 -423l75 102l114 -84l-78 -99zM447 -236l80 105l116 -84l78 98l115 -81l-84 -105l-111 82l-78 -96zM779 795l-97 -128l-131 87l96 131z" />
    <glyph glyph-name="uni06C4.fina" unicode="&#x6c4;" horiz-adv-x="739" 
d="M739 0h-129q-65 -363 -471 -537l-94 105q199 109 288 183q135 113 159 249q-50 -7 -103 -7q-224 -6 -224 154q0 97 57 204q65 123 154 123q113 0 177 -111q49 -84 62 -213h124v-150zM478 151q-4 60 -29 108q-31 61 -83 61q-36 0 -62.5 -39.5t-26.5 -76.5q0 -48 98 -55
q68 -2 103 2zM543 -547q0 -68 -42 -117q-45 -51 -112 -51q-58 0 -96 37t-38 94q0 97 47 154q37 47 82 47q50 0 101 -42q58 -50 58 -122zM479 -555q0 41 -33 67q-30 24 -73 24q-21 0 -41 -31.5t-20 -54.5q0 -73 79 -73q33 0 59 17q29 19 29 51z" />
    <glyph glyph-name="uni06CA.fina" unicode="&#x6ca;" horiz-adv-x="739" 
d="M739 0h-129q-65 -363 -471 -537l-94 105q199 109 288 183q135 113 159 249q-50 -7 -103 -7q-224 -6 -224 154q0 97 57 204q65 123 154 123q113 0 177 -111q49 -84 62 -213h124v-150zM478 151q-4 60 -29 108q-31 61 -83 61q-36 0 -62.5 -39.5t-26.5 -76.5q0 -48 98 -55
q68 -2 103 2zM530 702l-87 -111l-113 84l-81 -100l-121 86l92 113l109 -82l79 96z" />
    <glyph glyph-name="uni06CD.fina" unicode="&#x6cd;" horiz-adv-x="1129" 
d="M1129 0h-199q-148 1 -148 -32q0 -25 114 -44q118 -19 153 -37q73 -36 73 -124q0 -137 -218 -232q-178 -79 -335 -79q-209 0 -326 98q-126 106 -126 312q0 124 59 256l-204 -62l15 64l215 53h1h2l107 -36q-64 -132 -64 -242q0 -148 97 -224q88 -68 240 -68q261 0 418 119
q15 11 15 22q0 15 -22 18q-197 30 -266 61q-23 11 -39 44t-16 61q0 222 390 222h64v-150z" />
    <glyph glyph-name="uni06CE.init" unicode="&#x6ce;" horiz-adv-x="417" 
d="M370 258q0 -257 -299 -258h-123v150h131q173 0 173 93q0 50 -51 116l-34 44l103 113q100 -112 100 -258zM336 900q-15 -12 -34.5 -38.5t-39 -62.5t-36.5 -78.5t-28 -87.5h-28l-1 3q-12 44 -29.5 86.5t-36.5 78t-38 61.5t-33 38l88 2q21 -32 36.5 -78t26.5 -96
q11 50 27 96t38 78zM384 -287l-87 -111l-113 84l-81 -100l-121 86l92 113l109 -82l79 96z" />
    <glyph glyph-name="uni06CE.medi" unicode="&#x6ce;" horiz-adv-x="548" 
d="M548 1h-54q-175 0 -230 122q-27 -55 -86.5 -88.5t-123.5 -33.5h-124v149h115q74 0 125 34q58 39 58 110v63l102 27q1 -145 52 -195q39 -39 136 -39h30v-149zM410 787q-15 -12 -34.5 -38.5t-39 -62.5t-36.5 -78.5t-28 -87.5h-28l-1 3q-12 44 -29.5 86.5t-36.5 78t-38 61.5
t-33 38l88 2q21 -32 36.5 -78t26.5 -96q11 50 27 96t38 78zM461 -282l-87 -111l-113 84l-81 -100l-121 86l92 113l109 -82l79 96z" />
    <glyph glyph-name="uni06CE.fina" unicode="&#x6ce;" horiz-adv-x="1129" 
d="M1129 0h-199q-148 1 -148 -32q0 -25 114 -44q118 -19 153 -37q73 -36 73 -124q0 -137 -218 -232q-178 -79 -335 -79q-209 0 -326 98q-126 106 -126 312q0 149 86 312l109 -37q-64 -132 -64 -242q0 -148 97 -224q88 -68 240 -68q261 0 418 119q15 11 15 22q0 15 -22 18
q-197 30 -266 61q-23 11 -39 44t-16 61q0 222 390 222h64v-150zM613 559q-15 -12 -34.5 -38.5t-39 -62.5t-36.5 -78.5t-28 -87.5h-28l-1 3q-12 44 -29.5 86.5t-36.5 78t-38 61.5t-33 38l88 2q21 -32 36.5 -78t26.5 -96q11 50 27 96t38 78z" />
    <glyph glyph-name="uni06CF.fina" unicode="&#x6cf;" horiz-adv-x="739" 
d="M739 0h-129q-65 -363 -471 -537l-94 105q199 109 288 183q135 113 159 249q-50 -7 -103 -7q-224 -6 -224 154q0 97 57 204q65 123 154 123q113 0 177 -111q49 -84 62 -213h124v-150zM478 151q-4 60 -29 108q-31 61 -83 61q-36 0 -62.5 -39.5t-26.5 -76.5q0 -48 98 -55
q68 -2 103 2zM480 768l-97 -128l-131 87l96 131z" />
    <glyph glyph-name="uni06D1.fina" unicode="&#x6d1;" horiz-adv-x="1129" 
d="M489 -993l75 102l114 -84l-78 -99zM354 -806l80 105l116 -84l78 98l115 -81l-84 -105l-111 82l-78 -96zM1129 0h-199q-148 1 -148 -32q0 -25 114 -44q118 -19 153 -37q73 -36 73 -124q0 -137 -218 -232q-178 -79 -335 -79q-209 0 -326 98q-126 106 -126 312q0 149 86 312
l109 -37q-64 -132 -64 -242q0 -148 97 -224q88 -68 240 -68q261 0 418 119q15 11 15 22q0 15 -22 18q-197 30 -266 61q-23 11 -39 44t-16 61q0 222 390 222h64v-150z" />
    <glyph glyph-name="uni06FA.init" unicode="&#x6fa;" horiz-adv-x="1013" 
d="M1012 265q0 -107 -57 -182q-63 -81 -167 -81q-138 0 -193 102q-74 -103 -200 -103q-137 0 -174 104q-58 -104 -189 -105h-102v150h74q88 0 127.5 37t39.5 126v24l98 35v-26q0 -196 129 -196q149 0 149 164v24l98 35v-26q0 -196 149 -196q107 0 107 96q0 68 -61 133
l96 109q76 -92 76 -224zM686 917l-85 -112l-124 88l88 109zM818 742l-86 -113l-125 90l-83 -106l-122 87l89 113l120 -88l82 104zM690 -291l-97 -128l-131 87l96 131z" />
    <glyph glyph-name="uni06FA.medi" unicode="&#x6fa;" horiz-adv-x="1211" 
d="M1211 1h-32q-148 0 -193 102q-70 -102 -207 -102q-121 0 -171 102q-75 -102 -212 -102q-128 0 -175 102q-59 -102 -189 -103h-102v150h75q88 0 127.5 37t39.5 126v24l98 35v-26q0 -196 129 -196q88 0 124.5 37.5t36.5 125.5v24l97 35v-26q0 -196 130 -196q151 0 151 163
v24l98 39v-30q0 -96 24 -139q33 -57 122 -57h29v-149zM696 894l-85 -112l-124 88l88 109zM828 719l-86 -113l-125 90l-83 -106l-122 87l89 113l120 -88l82 104zM713 -293l-97 -128l-131 87l96 131z" />
    <glyph glyph-name="uni06FA.fina" unicode="&#x6fa;" horiz-adv-x="1992" 
d="M1992 0h-44q-123 1 -171 103q-73 -102 -196 -102q-129 0 -182 102q-63 -102 -186 -102q-84 0 -139 50q2 -23 2 -46q0 -235 -146.5 -373t-382.5 -138q-197 0 -316.5 116t-119.5 312q0 157 91 309l99 -37q-26 -41 -47.5 -117t-21.5 -124q0 -311 339 -311q157 0 268 79
q124 88 124 239q0 152 -96 304l117 100q51 -103 86 -145q58 -69 135 -69q84 0 117 40q29 37 29 123v24l97 35v-26q0 -196 129 -196q84 0 118 39t34 124v24l97 35v-26q0 -96 25 -139q33 -57 121 -57h20v-150zM1477 878l-85 -112l-124 88l88 109zM1609 703l-86 -113l-125 90
l-83 -106l-122 87l89 113l120 -88l82 104zM1448 -340l-97 -128l-131 87l96 131z" />
    <glyph glyph-name="uni06FB.init" unicode="&#x6fb;" horiz-adv-x="1313" 
d="M1261 376q0 -198 -179 -296q-143 -79 -359 -79h-270q-95 0 -140 14q-67 21 -106 85q-65 -99 -174 -100h-103v150h83q146 0 146 154v39l113 40v-24q0 -209 121 -209q63 0 105 49q29 37 88 111q76 91 184 169q148 107 270 107q88 0 154.5 -61t66.5 -149zM1134 326
q0 55 -51 87q-43 26 -102 26q-138 0 -407 -289h161q207 0 315 63q84 49 84 113zM679 773l-97 -128l-131 87l96 131zM642 -321l-97 -128l-131 87l96 131z" />
    <glyph glyph-name="uni06FB.medi" unicode="&#x6fb;" horiz-adv-x="1331" 
d="M1331 0h-32q-132 1 -195 89q-146 -88 -381 -88h-270q-95 0 -140 14q-67 21 -106 85q-51 -99 -164 -100h-113v150h83q146 0 146 154v39l113 40v-24q0 -209 121 -209q61 0 101 47q30 38 91 113q242 276 455 276q88 0 154.5 -61t66.5 -149q0 -116 -56 -193q31 -33 106 -33
h20v-150zM1134 326q0 55 -51 87q-43 26 -102 26q-131 0 -407 -289h161q207 0 315 63q84 49 84 113zM673 782l-97 -128l-131 87l96 131zM661 -287l-97 -128l-131 87l96 131z" />
    <glyph glyph-name="uni06FB.fina" unicode="&#x6fb;" horiz-adv-x="2146" 
d="M2146 0h-31q-138 1 -196 89q-145 -88 -378 -88h-270q-104 0 -169 50q2 -23 2 -46q0 -234 -149 -374q-145 -137 -380 -137q-196 0 -316 116.5t-120 311.5q0 157 91 309l99 -37q-26 -41 -47.5 -117t-21.5 -124q0 -311 339 -311q157 0 268 79q124 88 124 239q0 152 -96 304
l117 100q61 -126 83 -155q45 -59 111 -59q60 0 104 52q31 40 96 118q241 266 453 266q89 0 153.5 -61t64.5 -149q0 -116 -57 -193q31 -33 106 -33h20v-150zM1950 326q0 55 -49 86q-42 27 -101 27q-150 0 -406 -289h160q206 0 313 63q83 49 83 113zM1470 736l-97 -128
l-131 87l96 131zM1504 -377l-97 -128l-131 87l96 131z" />
    <glyph glyph-name="uni06FC.init" unicode="&#x6fc;" horiz-adv-x="837" 
d="M791 263l-15 -138q-380 -124 -742 -125h-104v150h272q-93 80 -93 227q0 103 82 188q92 96 232 96q138 0 249 -96l-48 -98q-91 53 -205 53q-71 0 -129 -35q-69 -41 -69 -107q0 -90 95 -137q74 -36 174 -36q85 0 301 58zM499 937l-97 -128l-131 87l96 131zM485 -267
l-97 -128l-131 87l96 131z" />
    <glyph glyph-name="uni06FC.medi" unicode="&#x6fc;" horiz-adv-x="776" 
d="M776 0h-73q-250 1 -321 158q-147 -157 -344 -158h-108v150h87q208 0 295 108q-35 108 -164 113q5 110 102 169q83 50 201 50q68 0 123 -31q66 -38 66 -101q0 -84 -48 -138q-29 -32 -127 -99q76 -71 278 -71h33v-150zM493 867l-97 -128l-131 87l96 131zM473 -214l-97 -128
l-131 87l96 131z" />
    <glyph glyph-name="uni06FC.fina" unicode="&#x6fc;" horiz-adv-x="1039" 
d="M1191 -702q-219 -69 -413 -69q-277 0 -439 102q-196 124 -196 385q0 320 429 560q-35 101 -170 105q5 85 81 147q88 72 232 72q72 0 130 -33q69 -40 69 -107q0 -85 -60 -142q-13 -12 -137 -97q61 -71 286 -71h36v-150h-107q-227 1 -303 161q-183 -103 -260 -192
q-89 -103 -89 -241q0 -192 184 -282q140 -69 354 -69q129 0 334 47zM770 872l-97 -128l-131 87l96 131zM744 -265l-97 -128l-131 87l96 131z" />
    <glyph glyph-name="uniFB51" unicode="&#x671;" horiz-adv-x="473" arabic-form="final" 
d="M473 0h-30q-156 1 -221 135q-44 92 -52 276q-3 68 -7 364q-3 208 -22 426l133 68q7 -474 17 -831q3 -129 28 -190q40 -98 145 -98h9v-150zM64 1367q-15 9 -35 11.5t-39 1.5v26q20 11 43 13q46 4 79 -16q43 51 81 79.5t61 35.5q29 10 50 0.5t32 -28.5t10.5 -43t-13.5 -44
q-26 -34 -66 -50.5t-93 -15.5t-110 30zM252 1477q-31 -10 -58.5 -31.5t-57.5 -49.5q7 -5 32.5 -6t54.5 2t56 11.5t37 23.5q1 8 -2 18.5t-10.5 19.5t-20 13t-31.5 -1z" />
    <glyph glyph-name="uniFB53" unicode="&#x67b;" horiz-adv-x="1673" arabic-form="final" 
d="M1673 0h-31q-176 1 -206 151q-163 -192 -774 -192q-277 0 -398 61q-136 69 -136 236q0 105 62 189l94 -29q-38 -69 -38 -130q0 -120 152 -158q73 -18 246 -18h49q212 0 398 30q306 49 326 162l10 56l82 27q0 -113 24 -162q34 -73 133 -73h7v-150zM717 -361l-90 90l90 90
l90 -90zM720 -565l-90 90l90 90l90 -90z" />
    <glyph glyph-name="uniFB54" unicode="&#x67b;" horiz-adv-x="417" arabic-form="initial" 
d="M370 258q0 -257 -299 -258h-123v150h131q173 0 173 93q0 50 -51 116l-34 44l103 113q100 -112 100 -258zM201 -332l-90 90l90 90l90 -90zM204 -536l-90 90l90 90l90 -90z" />
    <glyph glyph-name="uniFB55" unicode="&#x67b;" horiz-adv-x="548" arabic-form="medial" 
d="M548 1h-54q-175 0 -230 122q-27 -55 -86.5 -88.5t-123.5 -33.5h-124v149h115q74 0 125 34q58 39 58 110v63l102 27q1 -145 52 -195q39 -39 136 -39h30v-149zM268 -307l-90 90l90 90l90 -90zM271 -511l-90 90l90 90l90 -90z" />
    <glyph glyph-name="afii62958" unicode="&#x67e;" horiz-adv-x="1673" arabic-form="final" 
d="M1673 0h-31q-176 1 -206 151q-163 -192 -774 -192q-277 0 -398 61q-136 69 -136 236q0 105 62 189l94 -29q-38 -69 -38 -130q0 -120 152 -158q73 -18 246 -18h49q212 0 398 30q306 49 326 162l10 56l82 27q0 -113 24 -162q34 -73 133 -73h7v-150zM725 -531l75 102
l114 -84l-78 -99zM590 -344l80 105l116 -84l78 98l115 -81l-84 -105l-111 82l-78 -96z" />
    <glyph glyph-name="afii62956" unicode="&#x67e;" horiz-adv-x="417" arabic-form="initial" 
d="M370 258q0 -257 -299 -258h-123v150h131q173 0 173 93q0 50 -51 116l-34 44l103 113q100 -112 100 -258zM132 -485l75 102l114 -84l-78 -99zM-3 -298l80 105l116 -84l78 98l115 -81l-84 -105l-111 82l-78 -96z" />
    <glyph glyph-name="afii52957" unicode="&#x67e;" horiz-adv-x="548" arabic-form="medial" 
d="M548 1h-54q-175 0 -230 122q-27 -55 -86.5 -88.5t-123.5 -33.5h-124v149h115q74 0 125 34q58 39 58 110v63l102 27q1 -145 52 -195q39 -39 136 -39h30v-149zM201 -484l75 102l114 -84l-78 -99zM66 -297l80 105l116 -84l78 98l115 -81l-84 -105l-111 82l-78 -96z" />
    <glyph glyph-name="uniFB5B" unicode="&#x680;" horiz-adv-x="1673" arabic-form="final" 
d="M1673 0h-31q-176 1 -206 151q-163 -192 -774 -192q-277 0 -398 61q-136 69 -136 236q0 105 62 189l94 -29q-38 -69 -38 -130q0 -120 152 -158q73 -18 246 -18h49q212 0 398 30q306 49 326 162l10 56l82 27q0 -113 24 -162q34 -73 133 -73h7v-150zM830 -550l-90 90l90 90
l90 -90zM621 -556l-90 90l90 90l90 -90zM723 -390l-90 90l90 90l90 -90zM727 -722l-90 90l90 90l90 -90z" />
    <glyph glyph-name="uniFB5C" unicode="&#x680;" horiz-adv-x="417" arabic-form="initial" 
d="M370 258q0 -257 -299 -258h-123v150h131q173 0 173 93q0 50 -51 116l-34 44l103 113q100 -112 100 -258zM303.495 -456.014l-84.4023 84.3086l84.4023 84.3086l84.4023 -84.3086zM107.494 -461.635l-84.4023 84.3086l84.4023 84.3096l84.4023 -84.3096zM203.15 -306.131
l-84.4023 84.3086l84.4023 84.3086l84.4023 -84.3086zM206.901 -617.139l-84.4023 84.3096l84.4023 84.3096l84.4023 -84.3096z" />
    <glyph glyph-name="uniFB5D" unicode="&#x680;" horiz-adv-x="548" arabic-form="medial" 
d="M548 1h-54q-175 0 -230 122q-27 -55 -86.5 -88.5t-123.5 -33.5h-124v149h115q74 0 125 34q58 39 58 110v63l102 27q1 -145 52 -195q39 -39 136 -39h30v-149zM358.271 -473.158l-85.2646 85.1875l85.2646 85.1875l85.2646 -85.1875zM160.267 -478.838l-85.2646 85.1875
l85.2646 85.1885l85.2646 -85.1885zM256.9 -321.713l-85.2646 85.1875l85.2646 85.1875l85.2646 -85.1875zM260.689 -635.963l-85.2646 85.1885l85.2646 85.1885l85.2656 -85.1885z" />
    <glyph glyph-name="uniFB5F" unicode="&#x67a;" horiz-adv-x="1673" arabic-form="final" 
d="M1673 0h-31q-176 1 -206 151q-163 -192 -774 -192q-277 0 -398 61q-136 69 -136 236q0 105 62 189l94 -29q-38 -69 -38 -130q0 -120 152 -158q73 -18 246 -18h49q212 0 398 30q306 49 326 162l10 56l82 27q0 -113 24 -162q34 -73 133 -73h7v-150zM823 713l-90 90l90 90
l90 -90zM826 509l-90 90l90 90l90 -90z" />
    <glyph glyph-name="uniFB60" unicode="&#x67a;" horiz-adv-x="417" arabic-form="initial" 
d="M370 258q0 -257 -299 -258h-123v150h131q173 0 173 93q0 50 -51 116l-34 44l103 113q100 -112 100 -258zM170 794l-90 90l90 90l90 -90zM173 590l-90 90l90 90l90 -90z" />
    <glyph glyph-name="uniFB61" unicode="&#x67a;" horiz-adv-x="548" arabic-form="medial" 
d="M548 1h-54q-175 0 -230 122q-27 -55 -86.5 -88.5t-123.5 -33.5h-124v149h115q74 0 125 34q58 39 58 110v63l102 27q1 -145 52 -195q39 -39 136 -39h30v-149zM267 668l-90 90l90 90l90 -90zM270 464l-90 90l90 90l90 -90z" />
    <glyph glyph-name="uniFB63" unicode="&#x67f;" horiz-adv-x="1673" arabic-form="final" 
d="M1673 0h-31q-176 1 -206 151q-163 -192 -774 -192q-277 0 -398 61q-136 69 -136 236q0 105 62 189l94 -29q-38 -69 -38 -130q0 -120 152 -158q73 -18 246 -18h49q212 0 398 30q306 49 326 162l10 56l82 27q0 -113 24 -162q34 -73 133 -73h7v-150zM916 650l-90 90l90 90
l90 -90zM707 644l-90 90l90 90l90 -90zM809 810l-90 90l90 90l90 -90zM813 478l-90 90l90 90l90 -90z" />
    <glyph glyph-name="uniFB64" unicode="&#x67f;" horiz-adv-x="417" arabic-form="initial" 
d="M370 258q0 -257 -299 -258h-123v150h131q173 0 173 93q0 50 -51 116l-34 44l103 113q100 -112 100 -258zM299 768l-90 90l90 90l90 -90zM90 762l-90 90l90 90l90 -90zM192 928l-90 90l90 90l90 -90zM196 596l-90 90l90 90l90 -90z" />
    <glyph glyph-name="uniFB65" unicode="&#x67f;" horiz-adv-x="548" arabic-form="medial" 
d="M548 1h-54q-175 0 -230 122q-27 -55 -86.5 -88.5t-123.5 -33.5h-124v149h115q74 0 125 34q58 39 58 110v63l102 27q1 -145 52 -195q39 -39 136 -39h30v-149zM384 687l-90 90l90 90l90 -90zM175 681l-90 90l90 90l90 -90zM277 847l-90 90l90 90l90 -90zM281 515l-90 90
l90 90l90 -90z" />
    <glyph glyph-name="uniFB67" unicode="&#x679;" horiz-adv-x="1673" arabic-form="final" 
d="M1673 0h-31q-176 1 -206 151q-163 -192 -774 -192q-277 0 -398 61q-136 69 -136 236q0 105 62 189l94 -29q-38 -69 -38 -130q0 -120 152 -158q73 -18 246 -18h49q212 0 398 30q306 49 326 162l10 56l82 27q0 -113 24 -162q34 -73 133 -73h7v-150zM1047 748
q0 -68 -61 -101q-49 -27 -124 -27h-92q-68 0 -105 30l14 40q34 -15 55 -15q37 0 63 44q1 2 1 25q0 118 -6 289l45 17v-303q24 26 59 47q41 25 73 25q31 0 54 -19q24 -21 24 -52zM1004 731q0 19 -18 30q-15 9 -35 9q-25 0 -72 -35q-21 -16 -76 -64h63q71 0 109 22
q29 16 29 38z" />
    <glyph glyph-name="uniFB68" unicode="&#x679;" horiz-adv-x="417" arabic-form="initial" 
d="M370 258q0 -257 -299 -258h-123v150h131q173 0 173 93q0 50 -51 116l-34 44l103 113q100 -112 100 -258zM389 804q0 -68 -61 -101q-49 -27 -124 -27h-92q-68 0 -105 30l14 40q34 -15 55 -15q37 0 63 44q1 2 1 25q0 118 -6 289l45 17v-303q24 26 59 47q41 25 73 25
q31 0 54 -19q24 -21 24 -52zM346 787q0 19 -18 30q-15 9 -35 9q-25 0 -72 -35q-21 -16 -76 -64h63q71 0 109 22q29 16 29 38z" />
    <glyph glyph-name="uniFB69" unicode="&#x679;" horiz-adv-x="548" arabic-form="medial" 
d="M548 1h-54q-175 0 -230 122q-27 -55 -86.5 -88.5t-123.5 -33.5h-124v149h115q74 0 125 34q58 39 58 110v63l102 27q1 -145 52 -195q39 -39 136 -39h30v-149zM444 694q0 -68 -61 -101q-49 -27 -124 -27h-92q-68 0 -105 30l14 40q34 -15 55 -15q37 0 63 44q1 2 1 25
q0 118 -6 289l45 17v-303q24 26 59 47q41 25 73 25q31 0 54 -19q24 -21 24 -52zM401 677q0 19 -18 30q-15 9 -35 9q-25 0 -72 -35q-21 -16 -76 -64h63q71 0 109 22q29 16 29 38z" />
    <glyph glyph-name="afii57371" unicode="&#x6a4;" horiz-adv-x="1742" arabic-form="final" 
d="M1742 0h-72q-186 1 -292 97q-126 -68 -336 -106q-179 -32 -354 -32q-277 0 -398 61q-136 69 -136 236q0 105 62 189l94 -29q-38 -69 -38 -130q0 -115 125 -154q71 -22 220 -22h102q390 0 545 77q-60 53 -60 176q0 93 89 184q84 85 158 85q77 0 129 -86q44 -75 44 -157
q0 -56 -38 -125t-86 -94q41 -20 174 -20h68v-150zM1514 370q0 39 -23 74q-26 39 -63 39q-39 0 -80 -37.5t-41 -75.5q0 -33 30 -75q31 -45 62 -45q35 0 75 42t40 78zM1502 1017l-85 -112l-124 88l88 109zM1634 842l-86 -113l-125 90l-83 -106l-122 87l89 113l120 -88l82 104z
" />
    <glyph glyph-name="afii57372" unicode="&#x6a4;" horiz-adv-x="538" arabic-form="initial" 
d="M500 350q0 -349 -359 -350h-211v150h194q101 0 184 37q76 34 76 63v65q-65 -39 -148 -39q-88 0 -129 58q-29 41 -29 98q0 84 52 193q65 137 156 137q99 0 163 -164q51 -131 51 -248zM359 443q-30 169 -97 169q-29 0 -59 -49q-27 -45 -27 -77q0 -77 80 -77q64 0 103 34z
M325 1142l-85 -112l-124 88l88 109zM457 967l-86 -113l-125 90l-83 -106l-122 87l89 113l120 -88l82 104z" />
    <glyph glyph-name="afii57369" unicode="&#x6a4;" horiz-adv-x="574" arabic-form="medial" 
d="M574 1h-19q-175 0 -284 90q-141 -91 -260 -91h-81v150h97q78 0 133 37q-61 62 -61 176q0 94 89 184q84 85 159 85t127 -82q45 -72 45 -151q0 -142 -120 -223q60 -26 160 -26h15v-149zM410 359q0 37 -25 78q-27 46 -62 46q-36 0 -78 -38.5t-42 -74.5q0 -33 29 -76
q31 -46 62 -46q28 0 72 41.5t44 69.5zM382 1009l-85 -112l-124 88l88 109zM514 834l-86 -113l-125 90l-83 -106l-122 87l89 113l120 -88l82 104z" />
    <glyph glyph-name="uniFB6f" unicode="&#x6a6;" horiz-adv-x="1742" arabic-form="final" 
d="M1742 0h-72q-186 1 -292 97q-126 -68 -336 -106q-179 -32 -354 -32q-277 0 -398 61q-136 69 -136 236q0 105 62 189l94 -29q-38 -69 -38 -130q0 -115 125 -154q71 -22 220 -22h102q390 0 545 77q-60 53 -60 176q0 93 89 184q84 85 158 85q77 0 129 -86q44 -75 44 -157
q0 -56 -38 -125t-86 -94q41 -20 174 -20h68v-150zM1514 370q0 39 -23 74q-26 39 -63 39q-39 0 -80 -37.5t-41 -75.5q0 -33 30 -75q31 -45 62 -45q35 0 75 42t40 78zM1498 870l-90 90l90 90l90 -90zM1289 864l-90 90l90 90l90 -90zM1391 1030l-90 90l90 90l90 -90zM1395 698
l-90 90l90 90l90 -90z" />
    <glyph glyph-name="uniFB70" unicode="&#x6a6;" horiz-adv-x="538" arabic-form="initial" 
d="M500 350q0 -349 -359 -350h-211v150h194q101 0 184 37q76 34 76 63v65q-65 -39 -148 -39q-88 0 -129 58q-29 41 -29 98q0 84 52 193q65 137 156 137q99 0 163 -164q51 -131 51 -248zM359 443q-30 169 -97 169q-29 0 -59 -49q-27 -45 -27 -77q0 -77 80 -77q64 0 103 34z
M346 1012l-90 90l90 90l90 -90zM137 1006l-90 90l90 90l90 -90zM239 1172l-90 90l90 90l90 -90zM243 840l-90 90l90 90l90 -90z" />
    <glyph glyph-name="uniFB71" unicode="&#x6a6;" horiz-adv-x="574" arabic-form="medial" 
d="M574 1h-19q-175 0 -284 90q-141 -91 -260 -91h-81v150h97q78 0 133 37q-61 62 -61 176q0 94 89 184q84 85 159 85t127 -82q45 -72 45 -151q0 -142 -120 -223q60 -26 160 -26h15v-149zM410 359q0 37 -25 78q-27 46 -62 46q-36 0 -78 -38.5t-42 -74.5q0 -33 29 -76
q31 -46 62 -46q28 0 72 41.5t44 69.5zM427 877l-90 90l90 90l90 -90zM218 871l-90 90l90 90l90 -90zM320 1037l-90 90l90 90l90 -90zM324 705l-90 90l90 90l90 -90z" />
    <glyph glyph-name="uniFB73" unicode="&#x684;" horiz-adv-x="1134" arabic-form="final" 
d="M1173 -702q-202 -69 -413 -69q-277 0 -439 102q-196 124 -196 385q0 217 180 397q144 144 357 226q-243 72 -280 72q-66 0 -123 -95l-96 42q86 203 204 203q71 0 275 -60t329 -60q53 0 107 5l-38 -150q-137 -2 -201 -27q11 -76 71 -101q44 -18 154 -18h70v-150h-109
q-108 1 -180 72t-81 179q-228 -77 -366 -215q-142 -143 -142 -309q0 -350 544 -350q202 0 334 47zM635 -238l-90 90l90 90l90 -90zM638 -442l-90 90l90 90l90 -90z" />
    <glyph glyph-name="uniFB74" unicode="&#x684;" horiz-adv-x="954" arabic-form="initial" 
d="M954 419l-34 -143q-172 -1 -300 -73q-72 -45 -218 -131q-129 -71 -321 -72h-151v150h157q135 0 227 30q59 19 161 76q107 60 161 80q-56 14 -176 69q-108 50 -141 50q-51 0 -134 -83l-85 49q35 60 92 114q68 64 116 64q70 0 175 -49q168 -78 198 -89q130 -46 273 -42z
M520 -276l-90 90l90 90l90 -90zM523 -480l-90 90l90 90l90 -90z" />
    <glyph glyph-name="uniFB75" unicode="&#x684;" horiz-adv-x="1100" arabic-form="medial" 
d="M1100 0h-129q-134 1 -193 91q-17 26 -53 147l-304 -157q-159 -80 -330 -81h-161v150h157q172 0 305 59q91 43 273 128q-84 18 -212 75q-115 52 -144 52q-59 0 -118 -80l-91 48q99 186 197 186q66 0 172 -48q162 -73 205 -88q137 -47 283 -47q30 0 60 2l-34 -140
q-119 -1 -187 -33q30 -115 213 -114h91v-150zM526 -332l-90 90l90 90l90 -90zM529 -536l-90 90l90 90l90 -90z" />
    <glyph glyph-name="uniFB77" unicode="&#x683;" horiz-adv-x="1134" arabic-form="final" 
d="M1173 -702q-202 -69 -413 -69q-277 0 -439 102q-196 124 -196 385q0 217 180 397q144 144 357 226q-243 72 -280 72q-66 0 -123 -95l-96 42q86 203 204 203q71 0 275 -60t329 -60q53 0 107 5l-38 -150q-137 -2 -201 -27q11 -76 71 -101q44 -18 154 -18h70v-150h-109
q-108 1 -180 72t-81 179q-228 -77 -366 -215q-142 -143 -142 -309q0 -350 544 -350q202 0 334 47zM830 -216l-87 -111l-113 84l-81 -100l-121 86l92 113l109 -82l79 96z" />
    <glyph glyph-name="uniFB78" unicode="&#x683;" horiz-adv-x="954" arabic-form="initial" 
d="M954 419l-34 -143q-172 -1 -300 -73q-72 -45 -218 -131q-129 -71 -321 -72h-151v150h157q135 0 227 30q59 19 161 76q107 60 161 80q-56 14 -176 69q-108 50 -141 50q-51 0 -134 -83l-85 49q35 60 92 114q68 64 116 64q70 0 175 -49q168 -78 198 -89q130 -46 273 -42z
M696 -211l-87 -111l-113 84l-81 -100l-121 86l92 113l109 -82l79 96z" />
    <glyph glyph-name="uniFB79" unicode="&#x683;" horiz-adv-x="1100" arabic-form="medial" 
d="M1100 0h-129q-134 1 -193 91q-17 26 -53 147l-304 -157q-159 -80 -330 -81h-161v150h157q172 0 305 59q91 43 273 128q-84 18 -212 75q-115 52 -144 52q-59 0 -118 -80l-91 48q99 186 197 186q66 0 172 -48q162 -73 205 -88q137 -47 283 -47q30 0 60 2l-34 -140
q-119 -1 -187 -33q30 -115 213 -114h91v-150zM702 -268l-87 -111l-113 84l-81 -100l-121 86l92 113l109 -82l79 96z" />
    <glyph glyph-name="afii62961" unicode="&#x686;" horiz-adv-x="1134" arabic-form="final" 
d="M1173 -702q-202 -69 -413 -69q-277 0 -439 102q-196 124 -196 385q0 217 180 397q144 144 357 226q-243 72 -280 72q-66 0 -123 -95l-96 42q86 203 204 203q71 0 275 -60t329 -60q53 0 107 5l-38 -150q-137 -2 -201 -27q11 -76 71 -101q44 -18 154 -18h70v-150h-109
q-108 1 -180 72t-81 179q-228 -77 -366 -215q-142 -143 -142 -309q0 -350 544 -350q202 0 334 47zM560 -383l75 102l114 -84l-78 -99zM425 -196l80 105l116 -84l78 98l115 -81l-84 -105l-111 82l-78 -96z" />
    <glyph glyph-name="afii62959" unicode="&#x686;" horiz-adv-x="954" arabic-form="initial" 
d="M954 419l-34 -143q-172 -1 -300 -73q-72 -45 -218 -131q-129 -71 -321 -72h-151v150h157q135 0 227 30q59 19 161 76q107 60 161 80q-56 14 -176 69q-108 50 -141 50q-51 0 -134 -83l-85 49q35 60 92 114q68 64 116 64q70 0 175 -49q168 -78 198 -89q130 -46 273 -42z
M453 -425l75 102l114 -84l-78 -99zM318 -238l80 105l116 -84l78 98l115 -81l-84 -105l-111 82l-78 -96z" />
    <glyph glyph-name="afii62960" unicode="&#x686;" horiz-adv-x="1100" arabic-form="medial" 
d="M1100 0h-129q-134 1 -193 91q-17 26 -53 147l-304 -157q-159 -80 -330 -81h-161v150h157q172 0 305 59q91 43 273 128q-84 18 -212 75q-115 52 -144 52q-59 0 -118 -80l-91 48q99 186 197 186q66 0 172 -48q162 -73 205 -88q137 -47 283 -47q30 0 60 2l-34 -140
q-119 -1 -187 -33q30 -115 213 -114h91v-150zM466 -435l75 102l114 -84l-78 -99zM331 -248l80 105l116 -84l78 98l115 -81l-84 -105l-111 82l-78 -96z" />
    <glyph glyph-name="uniFB7F" unicode="&#x687;" horiz-adv-x="1134" arabic-form="final" 
d="M1173 -702q-202 -69 -413 -69q-277 0 -439 102q-196 124 -196 385q0 217 180 397q144 144 357 226q-243 72 -280 72q-66 0 -123 -95l-96 42q86 203 204 203q71 0 275 -60t329 -60q53 0 107 5l-38 -150q-137 -2 -201 -27q11 -76 71 -101q44 -18 154 -18h70v-150h-109
q-108 1 -180 72t-81 179q-228 -77 -366 -215q-142 -143 -142 -309q0 -350 544 -350q202 0 334 47zM747 -330l-90 90l90 90l90 -90zM538 -336l-90 90l90 90l90 -90zM640 -170l-90 90l90 90l90 -90zM644 -502l-90 90l90 90l90 -90z" />
    <glyph glyph-name="uniFB80" unicode="&#x687;" horiz-adv-x="954" arabic-form="initial" 
d="M954 419l-34 -143q-172 -1 -300 -73q-72 -45 -218 -131q-129 -71 -321 -72h-151v150h157q135 0 227 30q59 19 161 76q107 60 161 80q-56 14 -176 69q-108 50 -141 50q-51 0 -134 -83l-85 49q35 60 92 114q68 64 116 64q70 0 175 -49q168 -78 198 -89q130 -46 273 -42z
M646 -411l-90 90l90 90l90 -90zM437 -417l-90 90l90 90l90 -90zM539 -251l-90 90l90 90l90 -90zM543 -583l-90 90l90 90l90 -90z" />
    <glyph glyph-name="uniFB81" unicode="&#x687;" horiz-adv-x="1100" arabic-form="medial" 
d="M1100 0h-129q-134 1 -193 91q-17 26 -53 147l-304 -157q-159 -80 -330 -81h-161v150h157q172 0 305 59q91 43 273 128q-84 18 -212 75q-115 52 -144 52q-59 0 -118 -80l-91 48q99 186 197 186q66 0 172 -48q162 -73 205 -88q137 -47 283 -47q30 0 60 2l-34 -140
q-119 -1 -187 -33q30 -115 213 -114h91v-150zM601 -455l-90 90l90 90l90 -90zM392 -461l-90 90l90 90l90 -90zM494 -295l-90 90l90 90l90 -90zM498 -627l-90 90l90 90l90 -90z" />
    <glyph glyph-name="uniFB83" unicode="&#x68d;" horiz-adv-x="1018" arabic-form="final" 
d="M1018 0h-34q-75 0 -114 21q-63 35 -117 142q-49 -112 -142 -155q-73 -34 -207 -34q-177 0 -253 74l69 126q63 -44 168 -44q313 0 313 139q0 22 -8 48l-123 396l95 106l130 -448q64 -221 189 -221h34v-150zM601 -251l-87 -111l-113 84l-81 -100l-121 86l92 113l109 -82
l79 96z" />
    <glyph glyph-name="uniFB85" unicode="&#x68c;" horiz-adv-x="1018" arabic-form="final" 
d="M1018 0h-34q-75 0 -114 21q-63 35 -117 142q-49 -112 -142 -155q-73 -34 -207 -34q-177 0 -253 74l69 126q63 -44 168 -44q313 0 313 139q0 22 -8 48l-123 396l95 106l130 -448q64 -221 189 -221h34v-150zM754 1051l-87 -111l-113 84l-81 -100l-121 86l92 113l109 -82
l79 96z" />
    <glyph glyph-name="uniFB87" unicode="&#x68e;" horiz-adv-x="1018" arabic-form="final" 
d="M1018 0h-34q-75 0 -114 21q-63 35 -117 142q-49 -112 -142 -155q-73 -34 -207 -34q-177 0 -253 74l69 126q63 -44 168 -44q313 0 313 139q0 22 -8 48l-123 396l95 106l130 -448q64 -221 189 -221h34v-150zM625 1223l-85 -112l-124 88l88 109zM757 1048l-86 -113l-125 90
l-83 -106l-122 87l89 113l120 -88l82 104z" />
    <glyph glyph-name="uniFB89" unicode="&#x688;" horiz-adv-x="1018" arabic-form="final" 
d="M1018 0h-34q-75 0 -114 21q-63 35 -117 142q-49 -112 -142 -155q-73 -34 -207 -34q-177 0 -253 74l69 126q63 -44 168 -44q313 0 313 139q0 22 -8 48l-123 396l95 106l130 -448q64 -221 189 -221h34v-150zM712 1067q0 -68 -61 -101q-49 -27 -124 -27h-92q-68 0 -105 30
l14 40q34 -15 55 -15q37 0 63 44q1 2 1 25q0 118 -6 289l45 17v-303q24 26 59 47q41 25 73 25q31 0 54 -19q24 -21 24 -52zM669 1050q0 19 -18 30q-15 9 -35 9q-25 0 -72 -35q-21 -16 -76 -64h63q71 0 109 22q29 16 29 38z" />
    <glyph glyph-name="afii62962" unicode="&#x698;" horiz-adv-x="821" arabic-form="final" 
d="M821 0h-30q-76 0 -129 27q-23 -186 -231 -364q-140 -120 -320 -205l-94 78q200 115 344 236q180 152 180 248q0 72 -90 198l100 115q75 -106 90 -121q62 -62 148 -62h32v-150zM526 761l-85 -112l-124 88l88 109zM658 586l-86 -113l-125 90l-83 -106l-122 87l89 113
l120 -88l82 104z" />
    <glyph glyph-name="uniFB8D" unicode="&#x691;" horiz-adv-x="821" arabic-form="final" 
d="M821 0h-30q-76 0 -129 27q-23 -186 -231 -364q-140 -120 -320 -205l-94 78q200 115 344 236q180 152 180 248q0 72 -90 198l100 115q75 -106 90 -121q62 -62 148 -62h32v-150zM659 623q0 -68 -61 -101q-49 -27 -124 -27h-92q-68 0 -105 30l14 40q34 -15 55 -15
q37 0 63 44q1 2 1 25q0 118 -6 289l45 17v-303q24 26 59 47q41 25 73 25q31 0 54 -19q24 -21 24 -52zM616 606q0 19 -18 30q-15 9 -35 9q-25 0 -72 -35q-21 -16 -76 -64h63q71 0 109 22q29 16 29 38z" />
    <glyph glyph-name="afii62964" unicode="&#x6a9;" horiz-adv-x="1807" arabic-form="final" 
d="M1807 0h-31q-258 1 -463 342q4 -23 4 -45q0 -193 -278 -281q-180 -57 -394 -57q-277 0 -398 61q-136 69 -136 236q0 105 62 189l94 -29q-38 -69 -38 -130q0 -176 345 -176h29q180 0 354 35q271 54 271 168q0 90 -75 162q-18 17 -198 179q3 144 20 156q128 90 394 232
q258 137 408 198l-20 -154q-161 -67 -381 -179q-238 -121 -308 -176l153 -127q79 -70 133 -133q274 -321 415 -321h38v-150z" />
    <glyph glyph-name="afii52305" unicode="&#x6a9;" horiz-adv-x="756" arabic-form="initial" 
d="M774 1230l-20 -155q-415 -171 -646 -331q290 -236 290 -430q0 -92 -62 -177q-100 -136 -339 -137h-67v150h134q216 0 216 147q0 82 -91 181q-19 20 -210 194q7 135 35 154q296 205 760 404z" />
    <glyph glyph-name="afii52306" unicode="&#x6a9;" horiz-adv-x="851" arabic-form="medial" 
d="M851 0h-31q-247 1 -455 336q5 -30 5 -58q0 -145 -109 -217q-92 -60 -245 -61h-86v150h77q274 0 274 163q0 79 -74 153q-65 61 -196 185q3 145 19 156q125 88 395 232q258 137 408 198l-20 -154q-159 -66 -381 -179q-240 -122 -308 -176q51 -42 152 -127q72 -61 131 -130
q134 -156 203 -217q118 -104 208 -104h33v-150z" />
    <glyph glyph-name="afii62967" unicode="&#x6af;" horiz-adv-x="1820" arabic-form="final" 
d="M1776 1387l-20 -106q-120 -47 -370 -172l-387 -195l11 85q535 290 766 388zM1820 0h-31q-258 1 -463 342q4 -23 4 -45q0 -193 -278 -281q-180 -57 -394 -57q-277 0 -398 61q-136 69 -136 236q0 105 62 189l94 -29q-38 -69 -38 -130q0 -176 345 -176h29q180 0 354 35
q271 54 271 168q0 90 -85 161l-189 150q3 150 24 165q124 88 386 219q239 120 395 180l-20 -155q-139 -45 -346 -142q-230 -108 -322 -181l148 -112q86 -68 135 -127q270 -321 415 -321h38v-150z" />
    <glyph glyph-name="afii62965" unicode="&#x6af;" horiz-adv-x="731" arabic-form="initial" 
d="M741 1384l-8 -103q-129 -52 -351 -170l-356 -190l11 88q423 240 704 375zM749 1176l-20 -157q-172 -65 -366 -160q-179 -88 -243 -134q113 -92 164 -153q110 -131 110 -261q0 -310 -378 -311h-86v150h134q217 0 217 139q0 118 -287 359q6 123 34 143q306 216 721 385z
" />
    <glyph glyph-name="afii62966" unicode="&#x6af;" horiz-adv-x="851" arabic-form="medial" 
d="M816 1384l-20 -106q-111 -43 -370 -173l-387 -194l10 85q536 290 767 388zM851 0h-31q-247 1 -455 336q5 -30 5 -58q0 -145 -109 -217q-92 -60 -245 -61h-86v150h77q274 0 274 163q0 58 -85 142q-5 5 -190 166q4 151 24 165q124 88 386 219q236 118 396 180l-20 -155
q-139 -45 -346 -142q-230 -108 -322 -181q18 -15 152 -117q82 -63 131 -119q134 -156 203 -217q118 -104 208 -104h33v-150z" />
    <glyph glyph-name="uniFB97" unicode="&#x6b3;" horiz-adv-x="1820" arabic-form="final" 
d="M1776 1387l-20 -106q-120 -47 -370 -172l-387 -195l11 85q535 290 766 388zM1820 0h-31q-258 1 -463 342q4 -23 4 -45q0 -193 -278 -281q-180 -57 -394 -57q-277 0 -398 61q-136 69 -136 236q0 105 62 189l94 -29q-38 -69 -38 -130q0 -176 345 -176h29q180 0 354 35
q271 54 271 168q0 90 -85 161l-189 150q3 150 24 165q124 88 386 219q239 120 395 180l-20 -155q-139 -45 -346 -142q-230 -108 -322 -181l148 -112q86 -68 135 -127q270 -321 415 -321h38v-150zM639 -353l-90 90l90 90l90 -90zM642 -557l-90 90l90 90l90 -90z" />
    <glyph glyph-name="uniFB98" unicode="&#x6b3;" horiz-adv-x="731" arabic-form="initial" 
d="M741 1384l-8 -103q-129 -52 -351 -170l-356 -190l11 88q423 240 704 375zM749 1176l-20 -157q-172 -65 -366 -160q-179 -88 -243 -134q113 -92 164 -153q110 -131 110 -261q0 -310 -378 -311h-86v150h134q217 0 217 139q0 118 -287 359q6 123 34 143q306 216 721 385z
M276 -333l-90 90l90 90l90 -90zM279 -537l-90 90l90 90l90 -90z" />
    <glyph glyph-name="uniFB99" unicode="&#x6b3;" horiz-adv-x="851" arabic-form="medial" 
d="M816 1384l-20 -106q-111 -43 -370 -173l-387 -194l10 85q536 290 767 388zM851 0h-31q-247 1 -455 336q5 -30 5 -58q0 -145 -109 -217q-92 -60 -245 -61h-86v150h77q274 0 274 163q0 58 -85 142q-5 5 -190 166q4 151 24 165q124 88 386 219q236 118 396 180l-20 -155
q-139 -45 -346 -142q-230 -108 -322 -181q18 -15 152 -117q82 -63 131 -119q134 -156 203 -217q118 -104 208 -104h33v-150zM390 -312l-90 90l90 90l90 -90zM393 -516l-90 90l90 90l90 -90z" />
    <glyph glyph-name="uniFB9B" unicode="&#x6b1;" horiz-adv-x="1820" arabic-form="final" 
d="M1776 1387l-20 -106q-120 -47 -370 -172l-387 -195l11 85q535 290 766 388zM1820 0h-31q-258 1 -463 342q4 -23 4 -45q0 -193 -278 -281q-180 -57 -394 -57q-277 0 -398 61q-136 69 -136 236q0 105 62 189l94 -29q-38 -69 -38 -130q0 -176 345 -176h29q180 0 354 35
q271 54 271 168q0 90 -85 161l-189 150q3 150 24 165q124 88 386 219q239 120 395 180l-20 -155q-139 -45 -346 -142q-230 -108 -322 -181l148 -112q86 -68 135 -127q270 -321 415 -321h38v-150zM1453 1413l-87 -111l-113 84l-81 -100l-121 86l92 113l109 -82l79 96z" />
    <glyph glyph-name="uniFB9C" unicode="&#x6b1;" horiz-adv-x="731" arabic-form="initial" 
d="M741 1384l-8 -103q-129 -52 -351 -170l-356 -190l11 88q423 240 704 375zM749 1176l-20 -157q-172 -65 -366 -160q-179 -88 -243 -134q113 -92 164 -153q110 -131 110 -261q0 -310 -378 -311h-86v150h134q217 0 217 139q0 118 -287 359q6 123 34 143q306 216 721 385z
M485 1426l-87 -111l-113 84l-81 -100l-121 86l92 113l109 -82l79 96z" />
    <glyph glyph-name="uniFB9D" unicode="&#x6b1;" horiz-adv-x="851" arabic-form="medial" 
d="M816 1384l-20 -106q-111 -43 -370 -173l-387 -194l10 85q536 290 767 388zM851 0h-31q-247 1 -455 336q5 -30 5 -58q0 -145 -109 -217q-92 -60 -245 -61h-86v150h77q274 0 274 163q0 58 -85 142q-5 5 -190 166q4 151 24 165q124 88 386 219q236 118 396 180l-20 -155
q-139 -45 -346 -142q-230 -108 -322 -181q18 -15 152 -117q82 -63 131 -119q134 -156 203 -217q118 -104 208 -104h33v-150zM531 1442l-87 -111l-113 84l-81 -100l-121 86l92 113l109 -82l79 96z" />
    <glyph glyph-name="uniFB9F" unicode="&#x6ba;" horiz-adv-x="1185" arabic-form="final" 
d="M1185 0h-29q-71 1 -118 49q1 -22 1 -44q0 -222 -142 -356q-138 -131 -361 -131q-187 0 -301 111t-114 297q0 149 86 294l94 -35q-65 -107 -65 -230q0 -296 323 -296q148 0 254 76q119 85 119 227q0 144 -91 289l111 96q51 -104 80 -139q54 -58 130 -58h23v-150z" />
    <glyph glyph-name="uniFBA1" unicode="&#x6bb;" horiz-adv-x="1185" arabic-form="final" 
d="M1185 0h-29q-71 1 -118 49q1 -22 1 -44q0 -222 -142 -356q-138 -131 -361 -131q-187 0 -301 111t-114 297q0 149 86 294l94 -35q-65 -107 -65 -230q0 -296 323 -296q148 0 254 76q119 85 119 227q0 144 -91 289l111 96q51 -104 80 -139q54 -58 130 -58h23v-150zM751 583
q0 -68 -61 -101q-49 -27 -124 -27h-92q-68 0 -105 30l14 40q34 -15 55 -15q37 0 63 44q1 2 1 25q0 118 -6 289l45 17v-303q24 26 59 47q41 25 73 25q31 0 54 -19q24 -21 24 -52zM708 566q0 19 -18 30q-15 9 -35 9q-25 0 -72 -35q-21 -16 -76 -64h63q71 0 109 22q29 16 29 38
z" />
    <glyph glyph-name="uniFBA4" unicode="&#x6c0;" horiz-adv-x="639" arabic-form="isolated" 
d="M377 975q-62 -4 -97 -52q-1 -13 42.5 -24.5t69 -22.5t34 -37.5t-1 -52.5t-31 -42t-49 -22.5t-70.5 -6t-81 12.5q-27 23 -27 29.5t13 6.5q57 0 125.5 6t87.5 25q-5 23 -62.5 40t-76.5 29.5t-19 34.5q1 22 16 47.5t36 47t46.5 36.5t45.5 17q38 0 42.5 -29.5t-9.5 -58.5
q-13 -8 -19.5 3.5t-14.5 12.5zM586 231q0 -108 -61 -178q-64 -74 -170 -74q-86 0 -138 57.5t-52 144.5q0 78 26 141q11 28 79 149l-23 19l71 135q268 -210 268 -394zM479 230q0 52 -54 116q-41 49 -89 81q-76 -144 -76 -185q0 -116 105 -116q46 0 80 29.5t34 74.5z" />
    <glyph glyph-name="uniFBA5" unicode="&#x6c0;" horiz-adv-x="872" arabic-form="final" 
d="M351 1091q-62 -4 -97 -52q-1 -13 42.5 -24.5t69 -22.5t34 -37.5t-1 -52.5t-31 -42t-49 -22.5t-70.5 -6t-81 12.5q-27 23 -27 29.5t13 6.5q57 0 125.5 6t87.5 25q-5 23 -62.5 40t-76.5 29.5t-19 34.5q1 22 16 47.5t36 47t46.5 36.5t45.5 17q38 0 42.5 -29.5t-9.5 -58.5
q-13 -8 -19.5 3.5t-14.5 12.5zM872 0h-60q-124 1 -189 59q-62 55 -91 179q-100 -75 -260 -75q-62 0 -104.5 40.5t-42.5 101.5q0 213 321 375l-20 110l105 84l94 -495q25 -133 58 -174q46 -55 167 -55h22v-150zM499 378l-33 172q-70 -29 -131 -74q-84 -62 -84 -115
q0 -37 76 -37q120 0 172 54z" />
    <glyph glyph-name="uniFBA6" unicode="&#x6c1;" horiz-adv-x="639" arabic-form="isolated" 
d="M586 231q0 -108 -61 -178q-64 -74 -170 -74q-86 0 -138 57.5t-52 144.5q0 78 26 141q11 28 79 149l-23 19l71 135q268 -210 268 -394zM479 230q0 52 -54 116q-41 49 -89 81q-76 -144 -76 -185q0 -116 105 -116q46 0 80 29.5t34 74.5z" />
    <glyph glyph-name="uniFBA8" unicode="&#x6c1;" horiz-adv-x="417" arabic-form="initial" 
d="M298 -407q0 -15 -8 -31t-22.5 -29t-35.5 -21.5t-46 -8.5q-14 0 -32 6.5t-34.5 21t-28 38t-11.5 57.5q0 16 3 35t13 43.5t27.5 55t46.5 69.5q17 22 27.5 31.5t18.5 9.5q16 0 16 -18q0 -6 -13 -26.5t-28.5 -47t-28.5 -54.5t-13 -47q0 -42 37 -42q14 0 22 6t11 22
q76 1 79 -70zM370 258q0 -257 -299 -258h-123v150h131q173 0 173 93q0 50 -51 116l-34 44l103 113q100 -112 100 -258z" />
    <glyph glyph-name="uniFBA9" unicode="&#x6c1;" horiz-adv-x="636" arabic-form="medial" 
d="M-40 0v150h75q70 0 121 4.5t85.5 20t64.5 63.5t52 176l50 -12q0 -14 -3.5 -68t-20 -107t-34.5 -85t-40 -61q-12 -27 -16.5 -53t-4.5 -52q0 -118 76 -209l3 3q-11 25 -13 66t6 78t23.5 72.5t41.5 68t58 56.5q15 11 29 18.5t29.5 12t34.5 6.5t43 2h16v-150h-44
q-51 0 -85 -9t-54.5 -25t-28.5 -36.5t-8 -42.5q0 -38 15.5 -73.5t47.5 -80.5l-82 -153q-54 37 -87.5 75.5t-52 72t-31.5 86t-13 103.5q1 66 14 119q-37 -20 -96.5 -28t-170.5 -8z" />
    <glyph glyph-name="uniFBAB" unicode="&#x6be;" horiz-adv-x="935" arabic-form="final" 
d="M965 0h-36q-93 1 -163 -34q-89 -44 -89 -128q0 -85 95 -134l-44 -136q-328 103 -410 434l-95 -2q-25 0 -50 7.5t-45.5 24.5t-34.5 43t-15 62l224 10q0 180 87 346q77 147 134 147q46 0 109 -99q68 -106 68 -212q0 -121 -65 -217q-74 -109 -189 -109q30 -115 143 -195
q-6 23 -6 48q0 121 95 208q92 86 214 86h73v-150zM595 293q0 69 -33 121q-27 43 -48 43t-55 -80q-42 -98 -42 -224q91 3 139 45q39 37 39 95z" />
    <glyph glyph-name="uniFBAC" unicode="&#x6be;" horiz-adv-x="788" arabic-form="initial" 
d="M761 162q0 -219 -135 -219q-34 0 -269 113q-100 -55 -247 -56h-180v150h267q-118 50 -118 162q0 148 211 268l-53 38l60 141q464 -340 464 -597zM652 167q0 60 -141 215q3 -21 3 -41q0 -100 -74 -168q21 -13 85 -43q70 -32 83 -32q44 0 44 69zM414 347q0 43 -21 81
q-25 46 -64 46q-43 0 -87.5 -44.5t-44.5 -87.5q0 -40 54 -80q48 -35 82 -35q35 0 60 44q21 38 21 76z" />
    <glyph glyph-name="uniFBAD" unicode="&#x6be;" horiz-adv-x="811" arabic-form="medial" 
d="M830 0h-36q-93 1 -163 -34q-89 -44 -89 -128q0 -85 95 -134l-44 -136q-328 103 -410 432h-215v150h199q0 177 87 343q77 147 134 147q46 0 109 -99q68 -106 68 -212q0 -121 -65 -217q-74 -109 -189 -109q30 -115 143 -195q-6 23 -6 48q0 121 95 208q92 86 214 86h73v-150
zM460 293q0 69 -33 121q-27 43 -48 43t-55 -80q-42 -98 -42 -216q91 -8 139 37q39 37 39 95z" />
    <glyph glyph-name="uniFBAF" unicode="&#x6d2;" horiz-adv-x="977" arabic-form="final" 
d="M989 150l1 -150h-654q-18 0 -40 -1.5t-43 -5t-38.5 -10t-26.5 -16.5q-3 -8 -3 -17q0 -24 23 -41q22 -21 64 -28q106 -19 254.5 -22.5t255.5 0t190 7.5l-70 -117q-13 -5 -156 -20t-338 -10q-73 2 -140 8q-87 9 -135 40q-48 30 -48 85q0 23 9 53q8 29 28 70q32 66 87 107
q91 63 183 68h597z" />
    <glyph glyph-name="unifbb1" unicode="&#x6d3;" horiz-adv-x="977" arabic-form="final" 
d="M989 150l1 -150h-654q-18 0 -40 -1.5t-43 -5t-38.5 -10t-26.5 -16.5q-3 -8 -3 -17q0 -24 23 -41q22 -21 64 -28q106 -19 254.5 -22.5t255.5 0t190 7.5l-70 -117q-13 -5 -156 -20t-338 -10q-73 2 -140 8q-87 9 -135 40q-48 30 -48 85q0 23 9 53q8 29 28 70q32 66 87 107
q91 63 183 68h597zM528 377l-384 -98v67l99 41q-50 49 -50 97q0 56 46.5 102.5t102.5 46.5q67 0 116 -38l-24 -57q-44 15 -95 15q-25 0 -52 -14q-32 -17 -32 -40q0 -69 119 -69q16 0 154 42v-95z" />
    <glyph glyph-name="uniFBD4" unicode="&#x6ad;" horiz-adv-x="1597" arabic-form="final" 
d="M1597 0h-63q-132 1 -191 140l-2 2q-69 -79 -219 -126q-180 -57 -394 -57q-277 0 -398 61q-136 69 -136 236q0 105 62 189l94 -29q-38 -69 -38 -130q0 -176 345 -176h29q180 0 354 35q156 31 222 78v1q30 56 26 187l-23 790l132 68v-809q0 -310 159 -310h41v-150zM928 560
l-384 -98v67l99 41q-50 49 -50 97q0 57 46 103t103 46q67 0 116 -38l-23 -56q-45 14 -96 14q-25 0 -52 -14q-32 -17 -32 -39q0 -70 119 -70q16 0 154 42v-95zM848 1268l-85 -112l-124 88l88 109zM980 1093l-86 -113l-125 90l-83 -106l-122 87l89 113l120 -88l82 104z" />
    <glyph glyph-name="uniFBD5" unicode="&#x6ad;" horiz-adv-x="756" arabic-form="initial" 
d="M349 1417l-85 -112l-124 88l88 109zM481 1242l-86 -113l-125 90l-83 -106l-122 87l89 113l120 -88l82 104zM774 1230l-20 -155q-415 -171 -646 -331q290 -236 290 -430q0 -92 -62 -177q-100 -136 -339 -137h-67v150h134q216 0 216 147q0 82 -91 181q-19 20 -210 194
q7 135 35 154q296 205 760 404z" />
    <glyph glyph-name="uniFBD6" unicode="&#x6ad;" horiz-adv-x="851" arabic-form="medial" 
d="M397 1428l-85 -112l-124 88l88 109zM529 1253l-86 -113l-125 90l-83 -106l-122 87l89 113l120 -88l82 104zM851 0h-31q-247 1 -455 336q5 -30 5 -58q0 -145 -109 -217q-92 -60 -245 -61h-86v150h77q274 0 274 163q0 79 -74 153q-65 61 -196 185q3 145 19 156
q125 88 395 232q258 137 408 198l-20 -154q-159 -66 -381 -179q-240 -122 -308 -176q51 -42 152 -127q72 -61 131 -130q134 -156 203 -217q118 -104 208 -104h33v-150z" />
    <glyph glyph-name="uniFBD8" unicode="&#x6c7;" horiz-adv-x="739" arabic-form="final" 
d="M739 0h-129q-65 -363 -471 -537l-94 105q199 109 288 183q135 113 159 249q-50 -7 -103 -7q-224 -6 -224 154q0 97 57 204q65 123 154 123q113 0 177 -111q49 -84 62 -213h124v-150zM478 151q-4 60 -29 108q-31 61 -83 61q-36 0 -62.5 -39.5t-26.5 -76.5q0 -48 98 -55
q68 -2 103 2zM607 914q0 -109 -103 -193l66 -46l-49 -53q-32 19 -70 62q-137 -96 -309 -132l-31 66q189 61 267 126q-42 60 -42 93q0 59 49 120.5t106 61.5q46 0 81 -30t35 -75zM532 883q0 56 -65 56q-26 0 -51 -30t-25 -57q0 -47 61 -76q80 56 80 107z" />
    <glyph glyph-name="uniFBDA" unicode="&#x6c6;" horiz-adv-x="739" arabic-form="final" 
d="M739 0h-129q-65 -363 -471 -537l-94 105q199 109 288 183q135 113 159 249q-50 -7 -103 -7q-224 -6 -224 154q0 97 57 204q65 123 154 123q113 0 177 -111q49 -84 62 -213h124v-150zM478 151q-4 60 -29 108q-31 61 -83 61q-36 0 -62.5 -39.5t-26.5 -76.5q0 -48 98 -55
q68 -2 103 2zM511 825q-15 -12 -34.5 -38.5t-39 -62.5t-36.5 -78.5t-28 -87.5h-28l-1 3q-12 44 -29.5 86.5t-36.5 78t-38 61.5t-33 38l88 2q21 -32 36.5 -78t26.5 -96q11 50 27 96t38 78z" />
    <glyph glyph-name="uniFBDC" unicode="&#x6c8;" horiz-adv-x="739" arabic-form="final" 
d="M739 0h-129q-65 -363 -471 -537l-94 105q199 109 288 183q135 113 159 249q-50 -7 -103 -7q-224 -6 -224 154q0 97 57 204q65 123 154 123q113 0 177 -111q49 -84 62 -213h124v-150zM478 151q-4 60 -29 108q-31 61 -83 61q-36 0 -62.5 -39.5t-26.5 -76.5q0 -48 98 -55
q68 -2 103 2zM392 615l-48 -23l-32 352l94 44z" />
    <glyph glyph-name="uniFBDF" unicode="&#x6cb;" horiz-adv-x="739" arabic-form="final" 
d="M739 0h-129q-65 -363 -471 -537l-94 105q199 109 288 183q135 113 159 249q-50 -7 -103 -7q-224 -6 -224 154q0 97 57 204q65 123 154 123q113 0 177 -111q49 -84 62 -213h124v-150zM478 151q-4 60 -29 108q-31 61 -83 61q-36 0 -62.5 -39.5t-26.5 -76.5q0 -48 98 -55
q68 -2 103 2zM444 860l-85 -112l-124 88l88 109zM576 685l-86 -113l-125 90l-83 -106l-122 87l89 113l120 -88l82 104z" />
    <glyph glyph-name="uniFBE1" unicode="&#x6c5;" horiz-adv-x="721" arabic-form="final" 
d="M739 0h-129q-65 -363 -471 -537l-94 105q188 103 278 175l-195 -2l25 42l225 10q94 96 114 207q-50 -7 -103 -7q-224 -6 -224 154q0 97 57 204q65 123 154 123q113 0 177 -111q49 -84 62 -213h124v-150zM478 151q-4 60 -29 108q-31 61 -83 61q-36 0 -62.5 -39.5
t-26.5 -76.5q0 -48 98 -55q68 -2 103 2z" />
    <glyph glyph-name="uniFBE3" unicode="&#x6c9;" horiz-adv-x="739" arabic-form="final" 
d="M739 0h-129q-65 -363 -471 -537l-94 105q199 109 288 183q135 113 159 249q-50 -7 -103 -7q-224 -6 -224 154q0 97 57 204q65 123 154 123q113 0 177 -111q49 -84 62 -213h124v-150zM478 151q-4 60 -29 108q-31 61 -83 61q-36 0 -62.5 -39.5t-26.5 -76.5q0 -48 98 -55
q68 -2 103 2zM443 594q-22 32 -38 78t-27 96q-11 -50 -26.5 -96t-36.5 -78l-88 2q14 12 33 38t38 61.5t36.5 78t29.5 86.5l1 3h28q11 -45 28 -88t36.5 -79t39 -62t34.5 -38z" />
    <glyph glyph-name="uniFBE5" unicode="&#x6d0;" horiz-adv-x="1049" arabic-form="final" 
d="M474 -790l-90 90l90 90l90 -90zM477 -994l-90 90l90 90l90 -90zM1206 0h-199q-148 1 -148 -32q0 -25 114 -44q118 -19 153 -37q73 -36 73 -124q0 -137 -218 -232q-178 -79 -335 -79q-209 0 -326 98q-126 106 -126 312q0 149 86 312l109 -37q-64 -132 -64 -242
q0 -148 97 -224q88 -68 240 -68q261 0 418 119q15 11 15 22q0 15 -22 18q-197 30 -266 61q-23 11 -39 44t-16 61q0 222 390 222h64v-150z" />
    <glyph glyph-name="afii52364" unicode="&#x6cc;" horiz-adv-x="1129" arabic-form="final" 
d="M1129 0h-199q-148 1 -148 -32q0 -25 114 -44q118 -19 153 -37q73 -36 73 -124q0 -137 -218 -232q-178 -79 -335 -79q-209 0 -326 98q-126 106 -126 312q0 149 86 312l109 -37q-64 -132 -64 -242q0 -148 97 -224q88 -68 240 -68q261 0 418 119q15 11 15 22q0 15 -22 18
q-197 30 -266 61q-23 11 -39 44t-16 61q0 222 390 222h64v-150z" />
    <glyph glyph-name="uniFBFE" unicode="&#x6cc;" horiz-adv-x="417" arabic-form="initial" 
d="M370 258q0 -257 -299 -258h-123v150h131q173 0 173 93q0 50 -51 116l-34 44l103 113q100 -112 100 -258zM392 -254l-87 -111l-113 84l-81 -100l-121 86l92 113l109 -82l79 96z" />
    <glyph glyph-name="afii62832" unicode="&#x6cc;" horiz-adv-x="548" arabic-form="medial" 
d="M548 1h-54q-175 0 -230 122q-27 -55 -86.5 -88.5t-123.5 -33.5h-124v149h115q74 0 125 34q58 39 58 110v63l102 27q1 -145 52 -195q39 -39 136 -39h30v-149zM460 -257l-87 -111l-113 84l-81 -100l-121 86l92 113l109 -82l79 96z" />
    <glyph glyph-name="uniFC5D" unicode="&#xfc5d;" horiz-adv-x="1330" arabic-form="isolated" 
d="M536 615l-48 -23l-32 352l94 44zM1291 660l-49 -132q-48 21 -113 21q-96 0 -199 -66q-109 -70 -131 -158q-2 -8 -2 -19q0 -46 62 -52.5t209 -21.5q181 -21 181 -169q0 -151 -224 -283q-214 -126 -428 -126q-209 0 -329 94q-132 103 -132 305q0 174 91 319l98 -43
q-69 -122 -69 -233q0 -292 363 -292q122 0 258 46q141 48 231 123q44 37 44 65q0 37 -65 45q-270 32 -309 46q-84 31 -84 145q0 156 154 294q150 133 308 133q78 0 135 -41z" />
    <glyph glyph-name="afii62882" unicode="&#xfc5e;" arabic-form="isolated" 
d="M262 709q0 -106 -100 -191l66 -45l-51 -57q-49 29 -76 57q-138 -90 -303 -128l-33 67q11 4 28 12q66 57 66 108q0 29 -36 29q-24 0 -61 -25l-20 45q36 42 102 42q81 0 81 -65q0 -58 -49 -106q-1 -4 5 -6q111 35 159 78q-47 57 -47 105q0 58 47 118q50 64 107 64
q45 0 80 -29t35 -73zM190 678q0 56 -65 56q-23 0 -46.5 -28t-23.5 -51q0 -55 51 -82q84 41 84 105zM216 313q19 -63 19 -119q0 -158 -125 -158q-56 0 -94 87q-67 -126 -148 -126t-81 97q0 64 39 134h44q-15 -53 -15 -81q0 -47 49 -47q73 0 95 155l55 21q4 -68 8 -89
q14 -51 59 -51q53 0 53 70q0 36 -15 88z" />
    <glyph glyph-name="afii62883" unicode="&#xfc5f;" arabic-form="isolated" 
d="M258 129l-460 -123l-18 75l460 127zM258 297l-460 -123l-18 75l460 127zM218 727q19 -63 19 -119q0 -158 -125 -158q-56 0 -94 87q-67 -126 -148 -126t-81 97q0 64 39 134h44q-15 -53 -15 -81q0 -47 49 -47q73 0 95 155l55 21q4 -68 8 -89q14 -51 59 -51q53 0 53 70
q0 36 -15 88z" />
    <glyph glyph-name="afii62884" unicode="&#xfc60;" arabic-form="isolated" 
d="M252 461l-460 -122l-18 74l460 127zM216 313q19 -63 19 -119q0 -158 -125 -158q-56 0 -94 87q-67 -126 -148 -126t-81 97q0 64 39 134h44q-15 -53 -15 -81q0 -47 49 -47q73 0 95 155l55 21q4 -68 8 -89q14 -51 59 -51q53 0 53 70q0 36 -15 88z" />
    <glyph glyph-name="afii62885" unicode="&#xfc61;" arabic-form="isolated" 
d="M215 702q0 -109 -103 -193l66 -46l-49 -53q-32 19 -70 62q-137 -96 -309 -132l-31 66q172 48 286 118q-61 68 -61 101q0 59 49 120.5t106 61.5q46 0 81 -30t35 -75zM140 671q0 57 -65 57q-26 0 -51 -30.5t-25 -57.5q0 -47 61 -76q80 56 80 107zM216 313q19 -63 19 -119
q0 -158 -125 -158q-56 0 -94 87q-67 -126 -148 -126t-81 97q0 64 39 134h44q-15 -53 -15 -81q0 -47 49 -47q73 0 95 155l55 21q4 -68 8 -89q14 -51 59 -51q53 0 53 70q0 36 -15 88z" />
    <glyph glyph-name="afii62886" unicode="&#xfc62;" arabic-form="isolated" 
d="M251 126l-460 -123l-18 75l460 127zM216 543q19 -63 19 -119q0 -158 -125 -158q-56 0 -94 87q-67 -126 -148 -126t-81 97q0 64 39 134h44q-15 -53 -15 -81q0 -47 49 -47q73 0 95 155l55 21q4 -68 8 -89q14 -51 59 -51q53 0 53 70q0 36 -15 88z" />
    <glyph glyph-name="uniFC63" unicode="&#xfc63;" arabic-form="isolated" 
d="M20 384l-39 -19l-26 285l76 36zM192 305q19 -63 19 -119q0 -158 -125 -158q-56 0 -94 87q-67 -126 -148 -126t-81 97q0 64 39 134h44q-15 -53 -15 -81q0 -47 49 -47q73 0 95 155l55 21q4 -68 8 -89q14 -51 59 -51q53 0 53 70q0 36 -15 88z" />
    <glyph glyph-name="uniFCF2" unicode="&#xfcf2;" horiz-adv-x="701" arabic-form="medial" 
d="M604 770l-460 -122l-18 74l460 127zM557 612q19 -63 19 -119q0 -158 -125 -158q-56 0 -94 87q-67 -126 -148 -126t-81 97q0 64 39 134h44q-15 -53 -15 -81q0 -47 49 -47q73 0 95 155l55 21q4 -68 8 -89q14 -51 59 -51q53 0 53 70q0 36 -15 88zM732 0h-764v150h764v-150z
" />
    <glyph glyph-name="uniFCF3" unicode="&#xfcf3;" horiz-adv-x="701" arabic-form="medial" 
d="M591 1049q0 -109 -103 -193l66 -46l-49 -53q-32 19 -70 62q-137 -96 -309 -132l-31 66q189 61 267 126q-42 60 -42 93q0 59 49 120.5t106 61.5q46 0 81 -30t35 -75zM516 1018q0 57 -65 57q-26 0 -51 -30.5t-25 -57.5q0 -47 61 -76q80 56 80 107zM566 667q19 -63 19 -119
q0 -158 -125 -158q-56 0 -94 87q-67 -126 -148 -126t-81 97q0 64 39 134h44q-15 -53 -15 -81q0 -47 49 -47q73 0 95 155l55 21q4 -68 8 -89q14 -51 59 -51q53 0 53 70q0 36 -15 88zM732 0h-764v150h764v-150z" />
    <glyph glyph-name="uniFCF4" unicode="&#xfcf4;" horiz-adv-x="701" arabic-form="medial" 
d="M618 499l-460 -123l-18 75l460 127zM584 916q19 -63 19 -119q0 -158 -125 -158q-56 0 -94 87q-67 -126 -148 -126t-81 97q0 64 39 134h44q-15 -53 -15 -81q0 -47 49 -47q73 0 95 155l55 21q4 -68 8 -89q14 -51 59 -51q53 0 53 70q0 36 -15 88zM732 0h-764v150h764v-150z
" />
    <glyph glyph-name="uniFE71" unicode="&#xfe71;" horiz-adv-x="701" arabic-form="medial" 
d="M599 492l-460 -123l-18 75l460 127zM599 660l-460 -123l-18 75l460 127zM732 0h-764v150h764v-150z" />
    <glyph glyph-name="uniFE77" unicode="&#xfe77;" horiz-adv-x="701" arabic-form="medial" 
d="M599 492l-460 -123l-18 75l460 127zM732 0h-764v150h764v-150z" />
    <glyph glyph-name="uniFE79" unicode="&#xfe79;" horiz-adv-x="701" arabic-form="medial" 
d="M634 685q0 -109 -103 -193l66 -46l-49 -53q-32 19 -70 62q-137 -96 -309 -132l-31 66q189 61 267 126q-42 60 -42 93q0 59 49 120.5t106 61.5q46 0 81 -30t35 -75zM559 654q0 57 -65 57q-26 0 -51 -30.5t-25 -57.5q0 -47 61 -76q80 56 80 107zM732 0h-764v150h764v-150z
" />
    <glyph glyph-name="uniFE7B" unicode="&#xfe7b;" horiz-adv-x="701" arabic-form="medial" 
d="M586 -253l-460 -123l-18 75l460 127zM732 0h-764v150h764v-150z" />
    <glyph glyph-name="uniFE7D" unicode="&#xfe7d;" horiz-adv-x="701" arabic-form="medial" 
d="M568 658q19 -63 19 -119q0 -158 -125 -158q-56 0 -94 87q-67 -126 -148 -126t-81 97q0 64 39 134h44q-15 -53 -15 -81q0 -47 49 -47q73 0 95 155l55 21q4 -68 8 -89q14 -51 59 -51q53 0 53 70q0 36 -15 88zM732 0h-764v150h764v-150z" />
    <glyph glyph-name="uniFE7F" unicode="&#xfe7f;" horiz-adv-x="701" arabic-form="medial" 
d="M536 536q0 -76 -47 -130q-50 -57 -125 -57q-64 0 -106.5 41t-42.5 105q0 108 52 172q42 52 92 52q56 0 112 -47q65 -55 65 -136zM465 527q0 46 -37 75q-33 27 -81 27q-24 0 -46 -35.5t-22 -60.5q0 -82 88 -82q36 0 65 19q33 22 33 57zM732 0h-764v150h764v-150z" />
    <glyph glyph-name="afii52399" unicode="&#x621;" horiz-adv-x="891" arabic-form="isolated" 
d="M806 153l-612 -158v103l159 64q-67 65 -67 165q0 90 65.5 159.5t155.5 69.5q132 0 201 -79l-40 -98q-92 51 -157 51q-41 0 -80 -22q-46 -26 -46 -64q0 -60 69 -91q52 -24 120 -24q30 0 232 56v-132z" />
    <glyph glyph-name="afii62753" unicode="&#x622;" horiz-adv-x="489" arabic-form="final" 
d="M526 0h-30q-156 1 -221 135q-44 92 -52 276q-3 68 -7 364q-3 208 -22 426l133 68q7 -474 17 -831q3 -129 28 -190q40 -98 145 -98h9v-150zM589 1495q-35 -56 -94 -93q-63 -40 -126 -40q-38 0 -112.5 13t-111.5 13q-64 0 -126 -47l-61 72q78 84 167 84q36 0 108 -11.5
t109 -11.5q112 0 208 88z" />
    <glyph glyph-name="afii62754" unicode="&#x623;" horiz-adv-x="473" arabic-form="final" 
d="M473 0h-30q-156 1 -221 135q-44 92 -52 276q-3 68 -7 364q-3 208 -22 426l133 68q7 -474 17 -831q3 -129 28 -190q40 -98 145 -98h9v-150zM366 1438l-384 -98v67l99 41q-50 49 -50 97q0 56 46.5 102.5t102.5 46.5q67 0 116 -38l-24 -57q-44 15 -95 15q-25 0 -52 -14
q-32 -17 -32 -40q0 -69 119 -69q16 0 154 42v-95z" />
    <glyph glyph-name="afii62755" unicode="&#x624;" horiz-adv-x="739" arabic-form="final" 
d="M739 0h-129q-65 -363 -471 -537l-94 105q199 109 288 183q135 113 159 249q-50 -7 -103 -7q-224 -6 -224 154q0 97 57 204q65 123 154 123q113 0 177 -111q49 -84 62 -213h124v-150zM478 151q-4 60 -29 108q-31 61 -83 61q-36 0 -62.5 -39.5t-26.5 -76.5q0 -48 98 -55
q68 -2 103 2zM547 694l-384 -98v67l99 41q-50 49 -50 97q0 56 46.5 102.5t102.5 46.5q67 0 116 -38l-24 -57q-44 15 -95 15q-25 0 -52 -14q-32 -17 -32 -40q0 -69 119 -69q16 0 154 42v-95z" />
    <glyph glyph-name="afii62756" unicode="&#x625;" horiz-adv-x="473" arabic-form="final" 
d="M473 0h-30q-156 1 -221 135q-44 92 -52 276q-3 68 -7 364q-3 208 -22 426l133 68q7 -474 17 -831q3 -129 28 -190q40 -98 145 -98h9v-150zM471 -397l-384 -98v67l99 41q-50 49 -50 97q0 56 46.5 102.5t102.5 46.5q67 0 116 -38l-24 -57q-44 15 -95 15q-25 0 -52 -14
q-32 -17 -32 -40q0 -69 119 -69q16 0 154 42v-95z" />
    <glyph glyph-name="afii62759" unicode="&#x626;" horiz-adv-x="1129" arabic-form="final" 
d="M1129 0h-199q-148 1 -148 -32q0 -25 114 -44q118 -19 153 -37q73 -36 73 -124q0 -137 -218 -232q-178 -79 -335 -79q-209 0 -326 98q-126 106 -126 312q0 149 86 312l109 -37q-64 -132 -64 -242q0 -148 97 -224q88 -68 240 -68q261 0 418 119q15 11 15 22q0 15 -22 18
q-197 30 -266 61q-23 11 -39 44t-16 61q0 222 390 222h64v-150zM736 458l-384 -98v67l99 41q-50 49 -50 97q0 56 46.5 102.5t102.5 46.5q67 0 116 -38l-24 -57q-44 15 -95 15q-25 0 -52 -14q-32 -17 -32 -40q0 -69 119 -69q16 0 154 42v-95z" />
    <glyph glyph-name="afii62757" unicode="&#x626;" horiz-adv-x="417" arabic-form="initial" 
d="M370 258q0 -257 -299 -258h-123v150h131q173 0 173 93q0 50 -51 116l-34 44l103 113q100 -112 100 -258zM370 712l-384 -98v67l99 41q-50 49 -50 97q0 56 46.5 102.5t102.5 46.5q67 0 116 -38l-24 -57q-44 15 -95 15q-25 0 -52 -14q-32 -17 -32 -40q0 -69 119 -69
q16 0 154 42v-95z" />
    <glyph glyph-name="afii62758" unicode="&#x626;" horiz-adv-x="548" arabic-form="medial" 
d="M548 1h-54q-175 0 -230 122q-27 -55 -86.5 -88.5t-123.5 -33.5h-124v149h115q74 0 125 34q58 39 58 110v63l102 27q1 -145 52 -195q39 -39 136 -39h30v-149zM456 652l-384 -98v67l99 41q-50 49 -50 97q0 56 46.5 102.5t102.5 46.5q67 0 116 -38l-24 -57q-44 15 -95 15
q-25 0 -52 -14q-32 -17 -32 -40q0 -69 119 -69q16 0 154 42v-95z" />
    <glyph glyph-name="afii57415" unicode="&#x627;" horiz-adv-x="328" arabic-form="isolated" 
d="M327 29l-101 -28l-32 1217l133 51v-1240z" />
    <glyph glyph-name="afii62760" unicode="&#x627;" horiz-adv-x="468" arabic-form="final" 
d="M468 0h-30q-156 1 -221 135q-44 92 -52 276q-3 68 -7 364q-3 208 -22 426l133 68q7 -474 17 -831q3 -129 28 -190q40 -98 145 -98h9v-150z" />
    <glyph glyph-name="afii62763" unicode="&#x628;" horiz-adv-x="1673" arabic-form="final" 
d="M1673 0h-31q-176 1 -206 151q-163 -192 -774 -192q-277 0 -398 61q-136 69 -136 236q0 105 62 189l94 -29q-38 -69 -38 -130q0 -120 152 -158q73 -18 246 -18h49q212 0 398 30q306 49 326 162l10 56l82 27q0 -113 24 -162q34 -73 133 -73h7v-150zM887 -320l-97 -128
l-131 87l96 131z" />
    <glyph glyph-name="afii62761" unicode="&#x628;" horiz-adv-x="417" arabic-form="initial" 
d="M370 258q0 -257 -299 -258h-123v150h131q173 0 173 93q0 50 -51 116l-34 44l103 113q100 -112 100 -258zM300 -264l-97 -128l-131 87l96 131z" />
    <glyph glyph-name="afii62762" unicode="&#x628;" horiz-adv-x="548" arabic-form="medial" 
d="M548 1h-54q-175 0 -230 122q-27 -55 -86.5 -88.5t-123.5 -33.5h-124v149h115q74 0 125 34q58 39 58 110v63l102 27q1 -145 52 -195q39 -39 136 -39h30v-149zM374 -268l-97 -128l-131 87l96 131z" />
    <glyph glyph-name="afii62764" unicode="&#x629;" horiz-adv-x="872" arabic-form="final" 
d="M872 0h-60q-124 1 -189 59q-62 55 -91 179q-100 -75 -260 -75q-62 0 -104.5 40.5t-42.5 101.5q0 213 321 375l-20 110l105 84l94 -495q25 -133 58 -174q46 -55 167 -55h22v-150zM499 378l-33 172q-70 -29 -131 -74q-84 -62 -84 -115q0 -37 76 -37q120 0 172 54zM495 1038
l-87 -111l-113 84l-81 -100l-121 86l92 113l109 -82l79 96z" />
    <glyph glyph-name="afii62767" unicode="&#x62a;" horiz-adv-x="1673" arabic-form="final" 
d="M1673 0h-31q-176 1 -206 151q-163 -192 -774 -192q-277 0 -398 61q-136 69 -136 236q0 105 62 189l94 -29q-38 -69 -38 -130q0 -120 152 -158q73 -18 246 -18h49q212 0 398 30q306 49 326 162l10 56l82 27q0 -113 24 -162q34 -73 133 -73h7v-150zM946 780l-87 -111
l-113 84l-81 -100l-121 86l92 113l109 -82l79 96z" />
    <glyph glyph-name="afii62765" unicode="&#x62a;" horiz-adv-x="417" arabic-form="initial" 
d="M370 258q0 -257 -299 -258h-123v150h131q173 0 173 93q0 50 -51 116l-34 44l103 113q100 -112 100 -258zM391 778l-87 -111l-113 84l-81 -100l-121 86l92 113l109 -82l79 96z" />
    <glyph glyph-name="afii62766" unicode="&#x62a;" horiz-adv-x="548" arabic-form="medial" 
d="M548 1h-54q-175 0 -230 122q-27 -55 -86.5 -88.5t-123.5 -33.5h-124v149h115q74 0 125 34q58 39 58 110v63l102 27q1 -145 52 -195q39 -39 136 -39h30v-149zM446 702l-87 -111l-113 84l-81 -100l-121 86l92 113l109 -82l79 96z" />
    <glyph glyph-name="afii62770" unicode="&#x62b;" horiz-adv-x="1673" arabic-form="final" 
d="M1673 0h-31q-176 1 -206 151q-163 -192 -774 -192q-277 0 -398 61q-136 69 -136 236q0 105 62 189l94 -29q-38 -69 -38 -130q0 -120 152 -158q73 -18 246 -18h49q212 0 398 30q306 49 326 162l10 56l82 27q0 -113 24 -162q34 -73 133 -73h7v-150zM866 898l-85 -112
l-124 88l88 109zM998 723l-86 -113l-125 90l-83 -106l-122 87l89 113l120 -88l82 104z" />
    <glyph glyph-name="afii62768" unicode="&#x62b;" horiz-adv-x="417" arabic-form="initial" 
d="M370 258q0 -257 -299 -258h-123v150h131q173 0 173 93q0 50 -51 116l-34 44l103 113q100 -112 100 -258zM274 907l-85 -112l-124 88l88 109zM406 732l-86 -113l-125 90l-83 -106l-122 87l89 113l120 -88l82 104z" />
    <glyph glyph-name="afii62769" unicode="&#x62b;" horiz-adv-x="548" arabic-form="medial" 
d="M548 1h-54q-175 0 -230 122q-27 -55 -86.5 -88.5t-123.5 -33.5h-124v149h115q74 0 125 34q58 39 58 110v63l102 27q1 -145 52 -195q39 -39 136 -39h30v-149zM349 846l-85 -112l-124 88l88 109zM481 671l-86 -113l-125 90l-83 -106l-122 87l89 113l120 -88l82 104z" />
    <glyph glyph-name="afii62773" unicode="&#x62c;" horiz-adv-x="1134" arabic-form="final" 
d="M1173 -702q-202 -69 -413 -69q-277 0 -439 102q-196 124 -196 385q0 217 180 397q144 144 357 226q-243 72 -280 72q-66 0 -123 -95l-96 42q86 203 204 203q71 0 275 -60t329 -60q53 0 107 5l-38 -150q-137 -2 -201 -27q11 -76 71 -101q44 -18 154 -18h70v-150h-109
q-108 1 -180 72t-81 179q-228 -77 -366 -215q-142 -143 -142 -309q0 -350 544 -350q202 0 334 47zM728 -215l-97 -128l-131 87l96 131z" />
    <glyph glyph-name="afii62771" unicode="&#x62c;" horiz-adv-x="954" arabic-form="initial" 
d="M954 419l-34 -143q-172 -1 -300 -73q-72 -45 -218 -131q-129 -71 -321 -72h-151v150h157q135 0 227 30q59 19 161 76q107 60 161 80q-56 14 -176 69q-108 50 -141 50q-51 0 -134 -83l-85 49q35 60 92 114q68 64 116 64q70 0 175 -49q168 -78 198 -89q130 -46 273 -42z
M644 -249l-97 -128l-131 87l96 131z" />
    <glyph glyph-name="afii62772" unicode="&#x62c;" horiz-adv-x="1100" arabic-form="medial" 
d="M1100 0h-129q-134 1 -193 91q-17 26 -53 147l-304 -157q-159 -80 -330 -81h-161v150h157q172 0 305 59q91 43 273 128q-84 18 -212 75q-115 52 -144 52q-59 0 -118 -80l-91 48q99 186 197 186q66 0 172 -48q162 -73 205 -88q137 -47 283 -47q30 0 60 2l-34 -140
q-119 -1 -187 -33q30 -115 213 -114h91v-150zM664 -233l-97 -128l-131 87l96 131z" />
    <glyph glyph-name="afii62776" unicode="&#x62d;" horiz-adv-x="1134" arabic-form="final" 
d="M1173 -702q-202 -69 -413 -69q-277 0 -439 102q-196 124 -196 385q0 217 180 397q144 144 357 226q-243 72 -280 72q-66 0 -123 -95l-96 42q86 203 204 203q71 0 275 -60t329 -60q53 0 107 5l-38 -150q-137 -2 -201 -27q11 -76 71 -101q44 -18 154 -18h70v-150h-109
q-108 1 -180 72t-81 179q-228 -77 -366 -215q-142 -143 -142 -309q0 -350 544 -350q202 0 334 47z" />
    <glyph glyph-name="afii62774" unicode="&#x62d;" horiz-adv-x="954" arabic-form="initial" 
d="M954 419l-34 -143q-172 -1 -300 -73q-72 -45 -218 -131q-129 -71 -321 -72h-151v150h157q135 0 227 30q59 19 161 76q107 60 161 80q-56 14 -176 69q-108 50 -141 50q-51 0 -134 -83l-85 49q35 60 92 114q68 64 116 64q70 0 175 -49q168 -78 198 -89q130 -46 273 -42z
" />
    <glyph glyph-name="afii62775" unicode="&#x62d;" horiz-adv-x="1100" arabic-form="medial" 
d="M1100 0h-129q-134 1 -193 91q-17 26 -53 147l-304 -157q-159 -80 -330 -81h-161v150h157q172 0 305 59q91 43 273 128q-84 18 -212 75q-115 52 -144 52q-59 0 -118 -80l-91 48q99 186 197 186q66 0 172 -48q162 -73 205 -88q137 -47 283 -47q30 0 60 2l-34 -140
q-119 -1 -187 -33q30 -115 213 -114h91v-150z" />
    <glyph glyph-name="afii62779" unicode="&#x62e;" horiz-adv-x="1134" arabic-form="final" 
d="M1173 -702q-202 -69 -413 -69q-277 0 -439 102q-196 124 -196 385q0 217 180 397q144 144 357 226q-243 72 -280 72q-66 0 -123 -95l-96 42q86 203 204 203q71 0 275 -60t329 -60q53 0 107 5l-38 -150q-137 -2 -201 -27q11 -76 71 -101q44 -18 154 -18h70v-150h-109
q-108 1 -180 72t-81 179q-228 -77 -366 -215q-142 -143 -142 -309q0 -350 544 -350q202 0 334 47zM759 814l-97 -128l-131 87l96 131z" />
    <glyph glyph-name="afii62777" unicode="&#x62e;" horiz-adv-x="954" arabic-form="initial" 
d="M954 419l-34 -143q-172 -1 -300 -73q-72 -45 -218 -131q-129 -71 -321 -72h-151v150h157q135 0 227 30q59 19 161 76q107 60 161 80q-56 14 -176 69q-108 50 -141 50q-51 0 -134 -83l-85 49q35 60 92 114q68 64 116 64q70 0 175 -49q168 -78 198 -89q130 -46 273 -42z
M676 808l-97 -128l-131 87l96 131z" />
    <glyph glyph-name="afii62778" unicode="&#x62e;" horiz-adv-x="1100" arabic-form="medial" 
d="M1100 0h-129q-134 1 -193 91q-17 26 -53 147l-304 -157q-159 -80 -330 -81h-161v150h157q172 0 305 59q91 43 273 128q-84 18 -212 75q-115 52 -144 52q-59 0 -118 -80l-91 48q99 186 197 186q66 0 172 -48q162 -73 205 -88q137 -47 283 -47q30 0 60 2l-34 -140
q-119 -1 -187 -33q30 -115 213 -114h91v-150zM709 859l-97 -128l-131 87l96 131z" />
    <glyph glyph-name="afii62780" unicode="&#x62f;" horiz-adv-x="1018" arabic-form="final" 
d="M1018 0h-34q-75 0 -114 21q-63 35 -117 142q-49 -112 -142 -155q-73 -34 -207 -34q-177 0 -253 74l69 126q63 -44 168 -44q313 0 313 139q0 22 -8 48l-123 396l95 106l130 -448q64 -221 189 -221h34v-150z" />
    <glyph glyph-name="afii62781" unicode="&#x630;" horiz-adv-x="1018" arabic-form="final" 
d="M1018 0h-34q-75 0 -114 21q-63 35 -117 142q-49 -112 -142 -155q-73 -34 -207 -34q-177 0 -253 74l69 126q63 -44 168 -44q313 0 313 139q0 22 -8 48l-123 396l95 106l130 -448q64 -221 189 -221h34v-150zM653 1064l-97 -128l-131 87l96 131z" />
    <glyph glyph-name="afii62782" unicode="&#x631;" horiz-adv-x="821" arabic-form="final" 
d="M821 0h-30q-76 0 -129 27q-23 -186 -231 -364q-140 -120 -320 -205l-94 78q200 115 344 236q180 152 180 248q0 72 -90 198l100 115q75 -106 90 -121q62 -62 148 -62h32v-150z" />
    <glyph glyph-name="afii62783" unicode="&#x632;" horiz-adv-x="821" arabic-form="final" 
d="M821 0h-30q-76 0 -129 27q-23 -186 -231 -364q-140 -120 -320 -205l-94 78q200 115 344 236q180 152 180 248q0 72 -90 198l100 115q75 -106 90 -121q62 -62 148 -62h32v-150zM511 582l-97 -128l-131 87l96 131z" />
    <glyph glyph-name="afii62786" unicode="&#x633;" horiz-adv-x="1992" arabic-form="final" 
d="M1992 0h-44q-123 1 -171 103q-73 -102 -196 -102q-129 0 -182 102q-63 -102 -186 -102q-84 0 -139 50q2 -23 2 -46q0 -235 -146.5 -373t-382.5 -138q-197 0 -316.5 116t-119.5 312q0 157 91 309l99 -37q-26 -41 -47.5 -117t-21.5 -124q0 -311 339 -311q157 0 268 79
q124 88 124 239q0 152 -96 304l117 100q51 -103 86 -145q58 -69 135 -69q84 0 117 40q29 37 29 123v24l97 35v-26q0 -196 129 -196q84 0 118 39t34 124v24l97 35v-26q0 -96 25 -139q33 -57 121 -57h20v-150z" />
    <glyph glyph-name="afii62784" unicode="&#x633;" horiz-adv-x="1013" arabic-form="initial" 
d="M1012 265q0 -107 -57 -182q-63 -81 -167 -81q-138 0 -193 102q-74 -103 -200 -103q-137 0 -174 104q-58 -104 -189 -105h-102v150h74q88 0 127.5 37t39.5 126v24l98 35v-26q0 -196 129 -196q149 0 149 164v24l98 35v-26q0 -196 149 -196q107 0 107 96q0 68 -61 133
l96 109q76 -92 76 -224z" />
    <glyph glyph-name="afii62785" unicode="&#x633;" horiz-adv-x="1211" arabic-form="medial" 
d="M1211 1h-32q-148 0 -193 102q-70 -102 -207 -102q-121 0 -171 102q-75 -102 -212 -102q-128 0 -175 102q-59 -102 -189 -103h-102v150h75q88 0 127.5 37t39.5 126v24l98 35v-26q0 -196 129 -196q88 0 124.5 37.5t36.5 125.5v24l97 35v-26q0 -196 130 -196q151 0 151 163
v24l98 39v-30q0 -96 24 -139q33 -57 122 -57h29v-149z" />
    <glyph glyph-name="afii62789" unicode="&#x634;" horiz-adv-x="1992" arabic-form="final" 
d="M1992 0h-44q-123 1 -171 103q-73 -102 -196 -102q-129 0 -182 102q-63 -102 -186 -102q-84 0 -139 50q2 -23 2 -46q0 -235 -146.5 -373t-382.5 -138q-197 0 -316.5 116t-119.5 312q0 157 91 309l99 -37q-26 -41 -47.5 -117t-21.5 -124q0 -311 339 -311q157 0 268 79
q124 88 124 239q0 152 -96 304l117 100q51 -103 86 -145q58 -69 135 -69q84 0 117 40q29 37 29 123v24l97 35v-26q0 -196 129 -196q84 0 118 39t34 124v24l97 35v-26q0 -96 25 -139q33 -57 121 -57h20v-150zM1470 847l-85 -112l-124 88l88 109zM1602 672l-86 -113l-125 90
l-83 -106l-122 87l89 113l120 -88l82 104z" />
    <glyph glyph-name="afii62787" unicode="&#x634;" horiz-adv-x="1013" arabic-form="initial" 
d="M1012 265q0 -107 -57 -182q-63 -81 -167 -81q-138 0 -193 102q-74 -103 -200 -103q-137 0 -174 104q-58 -104 -189 -105h-102v150h74q88 0 127.5 37t39.5 126v24l98 35v-26q0 -196 129 -196q149 0 149 164v24l98 35v-26q0 -196 149 -196q107 0 107 96q0 68 -61 133
l96 109q76 -92 76 -224zM654.153 840.438l-79.8643 -108.534l-116.507 85.2764l82.6826 105.627zM778.178 670.854l-80.8037 -109.503l-117.447 87.2148l-77.9844 -102.72l-114.628 84.3076l83.6221 109.503l112.749 -85.2764l77.0449 100.781z" />
    <glyph glyph-name="afii62788" unicode="&#x634;" horiz-adv-x="1211" arabic-form="medial" 
d="M1211 1h-32q-148 0 -193 102q-70 -102 -207 -102q-121 0 -171 102q-75 -102 -212 -102q-128 0 -175 102q-59 -102 -189 -103h-102v150h75q88 0 127.5 37t39.5 126v24l98 35v-26q0 -196 129 -196q88 0 124.5 37.5t36.5 125.5v24l97 35v-26q0 -196 130 -196q151 0 151 163
v24l98 39v-30q0 -96 24 -139q33 -57 122 -57h29v-149zM683 838l-85 -112l-124 88l88 109zM815 663l-86 -113l-125 90l-83 -106l-122 87l89 113l120 -88l82 104z" />
    <glyph glyph-name="afii62792" unicode="&#x635;" horiz-adv-x="2146" arabic-form="final" 
d="M2146 0h-31q-138 1 -196 89q-145 -88 -378 -88h-270q-104 0 -169 50q2 -23 2 -46q0 -234 -149 -374q-145 -137 -380 -137q-196 0 -316 116.5t-120 311.5q0 157 91 309l99 -37q-26 -41 -47.5 -117t-21.5 -124q0 -311 339 -311q157 0 268 79q124 88 124 239q0 152 -96 304
l117 100q61 -126 83 -155q45 -59 111 -59q60 0 104 52q31 40 96 118q241 266 453 266q89 0 153.5 -61t64.5 -149q0 -116 -57 -193q31 -33 106 -33h20v-150zM1950 326q0 55 -49 86q-42 27 -101 27q-150 0 -406 -289h160q206 0 313 63q83 49 83 113z" />
    <glyph glyph-name="afii62790" unicode="&#x635;" horiz-adv-x="1313" arabic-form="initial" 
d="M1261 376q0 -198 -179 -296q-143 -79 -359 -79h-270q-95 0 -140 14q-67 21 -106 85q-65 -99 -174 -100h-103v150h83q146 0 146 154v39l113 40v-24q0 -209 121 -209q63 0 105 49q29 37 88 111q76 91 184 169q148 107 270 107q88 0 154.5 -61t66.5 -149zM1134 326
q0 55 -51 87q-43 26 -102 26q-138 0 -407 -289h161q207 0 315 63q84 49 84 113z" />
    <glyph glyph-name="afii62791" unicode="&#x635;" horiz-adv-x="1331" arabic-form="medial" 
d="M1331 0h-32q-132 1 -195 89q-146 -88 -381 -88h-270q-95 0 -140 14q-67 21 -106 85q-51 -99 -164 -100h-113v150h83q146 0 146 154v39l113 40v-24q0 -209 121 -209q61 0 101 47q30 38 91 113q242 276 455 276q88 0 154.5 -61t66.5 -149q0 -116 -56 -193q31 -33 106 -33
h20v-150zM1134 326q0 55 -51 87q-43 26 -102 26q-131 0 -407 -289h161q207 0 315 63q84 49 84 113z" />
    <glyph glyph-name="afii62795" unicode="&#x636;" horiz-adv-x="2146" arabic-form="final" 
d="M2146 0h-31q-138 1 -196 89q-145 -88 -378 -88h-270q-104 0 -169 50q2 -23 2 -46q0 -234 -149 -374q-145 -137 -380 -137q-196 0 -316 116.5t-120 311.5q0 157 91 309l99 -37q-26 -41 -47.5 -117t-21.5 -124q0 -311 339 -311q157 0 268 79q124 88 124 239q0 152 -96 304
l117 100q61 -126 83 -155q45 -59 111 -59q60 0 104 52q31 40 96 118q241 266 453 266q89 0 153.5 -61t64.5 -149q0 -116 -57 -193q31 -33 106 -33h20v-150zM1950 326q0 55 -49 86q-42 27 -101 27q-150 0 -406 -289h160q206 0 313 63q83 49 83 113zM1442 827l-97 -128
l-131 87l96 131z" />
    <glyph glyph-name="afii62793" unicode="&#x636;" horiz-adv-x="1313" arabic-form="initial" 
d="M1261 376q0 -198 -179 -296q-143 -79 -359 -79h-270q-95 0 -140 14q-67 21 -106 85q-65 -99 -174 -100h-103v150h83q146 0 146 154v39l113 40v-24q0 -209 121 -209q63 0 105 49q29 37 88 111q76 91 184 169q148 107 270 107q88 0 154.5 -61t66.5 -149zM1134 326
q0 55 -51 87q-43 26 -102 26q-138 0 -407 -289h161q207 0 315 63q84 49 84 113zM616 811l-97 -128l-131 87l96 131z" />
    <glyph glyph-name="afii62794" unicode="&#x636;" horiz-adv-x="1331" arabic-form="medial" 
d="M1331 0h-32q-132 1 -195 89q-146 -88 -381 -88h-270q-95 0 -140 14q-67 21 -106 85q-51 -99 -164 -100h-113v150h83q146 0 146 154v39l113 40v-24q0 -209 121 -209q61 0 101 47q30 38 91 113q242 276 455 276q88 0 154.5 -61t66.5 -149q0 -116 -56 -193q31 -33 106 -33
h20v-150zM1134 326q0 55 -51 87q-43 26 -102 26q-131 0 -407 -289h161q207 0 315 63q84 49 84 113zM674 852l-97 -128l-131 87l96 131z" />
    <glyph glyph-name="afii62798" unicode="&#x637;" horiz-adv-x="1329" arabic-form="final" 
d="M1329 0h-31q-133 1 -201 92q-150 -91 -386 -91h-270q-198 0 -307 89l42 115q98 -42 160 -42q109 0 185 127q2 6 2 73q0 345 -19 847l134 49v-888q70 78 172 140q120 73 212 73q93 0 161 -57q73 -60 73 -151q0 -130 -75 -200q21 -19 70 -24q20 -2 59 -2h19v-150zM1126 326
q0 55 -53 87q-45 26 -104 26q-72 0 -210 -103q-62 -46 -222 -186h186q207 0 317 63q86 49 86 113z" />
    <glyph glyph-name="afii62796" unicode="&#x637;" horiz-adv-x="983" arabic-form="initial" 
d="M943 376q0 -200 -179 -297q-143 -78 -361 -79h-473v150h96q85 0 187 139q2 6 2 73q0 346 -19 848l135 49v-888q71 79 171 140q120 73 212 73q93 0 159 -57q70 -59 70 -151zM818 326q0 55 -53 87q-44 26 -103 26q-73 0 -211 -103q-55 -41 -222 -186h187q207 0 316 63
q86 50 86 113z" />
    <glyph glyph-name="afii62797" unicode="&#x637;" horiz-adv-x="1022" arabic-form="medial" 
d="M1022 0h-32q-131 0 -200 92q-150 -91 -387 -92l-473 -1v151h96q85 0 187 139q2 6 2 73q0 346 -19 848l135 49v-888q71 79 171 140q120 73 212 73q93 0 161 -57q73 -60 73 -151q0 -126 -70 -202q25 -24 124 -24h20v-150zM818 326q0 55 -53 87q-44 26 -103 26
q-73 0 -211 -103q-55 -41 -222 -186h187q207 0 316 63q86 50 86 113z" />
    <glyph glyph-name="afii62801" unicode="&#x638;" horiz-adv-x="1329" arabic-form="final" 
d="M1329 0h-31q-133 1 -201 92q-150 -91 -386 -91h-270q-198 0 -307 89l42 115q98 -42 160 -42q109 0 185 127q2 6 2 73q0 345 -19 847l134 49v-888q70 78 172 140q120 73 212 73q93 0 161 -57q73 -60 73 -151q0 -130 -75 -200q21 -19 70 -24q20 -2 59 -2h19v-150zM1126 326
q0 55 -53 87q-45 26 -104 26q-72 0 -210 -103q-62 -46 -222 -186h186q207 0 317 63q86 49 86 113zM1093 958l-97 -128l-131 87l96 131z" />
    <glyph glyph-name="afii62799" unicode="&#x638;" horiz-adv-x="983" arabic-form="initial" 
d="M752 973l-97 -128l-131 87l96 131zM943 376q0 -200 -179 -297q-143 -78 -361 -79h-473v150h96q85 0 187 139q2 6 2 73q0 346 -19 848l135 49v-888q71 79 171 140q120 73 212 73q93 0 159 -57q70 -59 70 -151zM818 326q0 55 -53 87q-44 26 -103 26q-73 0 -211 -103
q-55 -41 -222 -186h187q207 0 316 63q86 50 86 113z" />
    <glyph glyph-name="afii62800" unicode="&#x638;" horiz-adv-x="1022" arabic-form="medial" 
d="M771 961l-97 -128l-131 87l96 131zM1022 0h-32q-131 0 -200 92q-150 -91 -387 -92l-473 -1v151h96q85 0 187 139q2 6 2 73q0 346 -19 848l135 49v-888q71 79 171 140q120 73 212 73q93 0 161 -57q73 -60 73 -151q0 -126 -70 -202q25 -24 124 -24h20v-150zM818 326
q0 55 -53 87q-44 26 -103 26q-73 0 -211 -103q-55 -41 -222 -186h187q207 0 316 63q86 50 86 113z" />
    <glyph glyph-name="afii62804" unicode="&#x639;" horiz-adv-x="1039" arabic-form="final" 
d="M1191 -702q-219 -69 -413 -69q-277 0 -439 102q-196 124 -196 385q0 320 429 560q-35 101 -170 105q5 85 81 147q88 72 232 72q72 0 130 -33q69 -40 69 -107q0 -85 -60 -142q-13 -12 -137 -97q61 -71 286 -71h36v-150h-107q-227 1 -303 161q-183 -103 -260 -192
q-89 -103 -89 -241q0 -192 184 -282q140 -69 354 -69q129 0 334 47z" />
    <glyph glyph-name="afii62802" unicode="&#x639;" horiz-adv-x="837" arabic-form="initial" 
d="M791 263l-15 -138q-380 -124 -742 -125h-104v150h272q-93 80 -93 227q0 103 82 188q92 96 232 96q138 0 249 -96l-48 -98q-91 53 -205 53q-71 0 -129 -35q-69 -41 -69 -107q0 -90 95 -137q74 -36 174 -36q85 0 301 58z" />
    <glyph glyph-name="afii62803" unicode="&#x639;" horiz-adv-x="776" arabic-form="medial" 
d="M776 0h-73q-250 1 -321 158q-147 -157 -344 -158h-108v150h87q208 0 295 108q-35 108 -164 113q5 110 102 169q83 50 201 50q68 0 123 -31q66 -38 66 -101q0 -84 -48 -138q-29 -32 -127 -99q76 -71 278 -71h33v-150z" />
    <glyph glyph-name="afii62807" unicode="&#x63a;" horiz-adv-x="1039" arabic-form="final" 
d="M728 879l-97 -128l-131 87l96 131zM1191 -702q-219 -69 -413 -69q-277 0 -439 102q-196 124 -196 385q0 320 429 560q-35 101 -170 105q5 85 81 147q88 72 232 72q72 0 130 -33q69 -40 69 -107q0 -85 -60 -142q-13 -12 -137 -97q61 -71 286 -71h36v-150h-107
q-227 1 -303 161q-183 -103 -260 -192q-89 -103 -89 -241q0 -192 184 -282q140 -69 354 -69q129 0 334 47z" />
    <glyph glyph-name="afii62805" unicode="&#x63a;" horiz-adv-x="837" arabic-form="initial" 
d="M791 263l-15 -138q-380 -124 -742 -125h-104v150h272q-93 80 -93 227q0 103 82 188q92 96 232 96q138 0 249 -96l-48 -98q-91 53 -205 53q-71 0 -129 -35q-69 -41 -69 -107q0 -90 95 -137q74 -36 174 -36q85 0 301 58zM514 936l-97 -128l-131 87l96 131z" />
    <glyph glyph-name="afii62806" unicode="&#x63a;" horiz-adv-x="776" arabic-form="medial" 
d="M776 0h-73q-250 1 -321 158q-147 -157 -344 -158h-108v150h87q208 0 295 108q-35 108 -164 113q5 110 102 169q83 50 201 50q68 0 123 -31q66 -38 66 -101q0 -84 -48 -138q-29 -32 -127 -99q76 -71 278 -71h33v-150zM490 875l-97 -128l-131 87l96 131z" />
    <glyph glyph-name="afii62810" unicode="&#x641;" horiz-adv-x="1742" arabic-form="final" 
d="M1742 0h-72q-186 1 -292 97q-126 -68 -336 -106q-179 -32 -354 -32q-277 0 -398 61q-136 69 -136 236q0 105 62 189l94 -29q-38 -69 -38 -130q0 -115 125 -154q71 -22 220 -22h102q390 0 545 77q-60 53 -60 176q0 93 89 184q84 85 158 85q77 0 129 -86q44 -75 44 -157
q0 -56 -38 -125t-86 -94q41 -20 174 -20h68v-150zM1514 370q0 39 -23 74q-26 39 -63 39q-39 0 -80 -37.5t-41 -75.5q0 -33 30 -75q31 -45 62 -45q35 0 75 42t40 78zM1481 897l-97 -128l-131 87l96 131z" />
    <glyph glyph-name="afii62808" unicode="&#x641;" horiz-adv-x="538" arabic-form="initial" 
d="M500 350q0 -349 -359 -350h-211v150h194q101 0 184 37q76 34 76 63v65q-65 -39 -148 -39q-88 0 -129 58q-29 41 -29 98q0 84 52 193q65 137 156 137q99 0 163 -164q51 -131 51 -248zM359 443q-30 169 -97 169q-29 0 -59 -49q-27 -45 -27 -77q0 -77 80 -77q64 0 103 34z
M355 1009l-97 -128l-131 87l96 131z" />
    <glyph glyph-name="afii62809" unicode="&#x641;" horiz-adv-x="574" arabic-form="medial" 
d="M574 1h-19q-175 0 -284 90q-141 -91 -260 -91h-81v150h97q78 0 133 37q-61 62 -61 176q0 94 89 184q84 85 159 85t127 -82q45 -72 45 -151q0 -142 -120 -223q60 -26 160 -26h15v-149zM410 359q0 37 -25 78q-27 46 -62 46q-36 0 -78 -38.5t-42 -74.5q0 -33 29 -76
q31 -46 62 -46q28 0 72 41.5t44 69.5zM408 884l-97 -128l-131 87l96 131z" />
    <glyph glyph-name="afii62813" unicode="&#x642;" horiz-adv-x="1199" arabic-form="final" 
d="M1199 -14h-44q-25 -221 -168 -362q-149 -147 -369 -147q-251 0 -373 151q-94 117 -94 290q0 153 83 281l99 -41q-60 -116 -60 -253q0 -139 119 -215q102 -65 249 -65q167 0 276 105q105 101 126 256h-85q-232 6 -232 186q0 99 48 189q56 105 142 105q98 0 166 -125
q54 -98 66 -205h51v-150zM1024 136q-4 50 -31 110q-34 77 -80 77q-33 0 -60 -37q-24 -33 -24 -68q0 -88 124 -82h71zM1050 730l-87 -111l-113 84l-81 -100l-121 86l92 113l109 -82l79 96z" />
    <glyph glyph-name="afii62811" unicode="&#x642;" horiz-adv-x="538" arabic-form="initial" 
d="M500 350q0 -349 -359 -350h-211v150h194q101 0 184 37q76 34 76 63v65q-65 -39 -148 -39q-88 0 -129 58q-29 41 -29 98q0 84 52 193q65 137 156 137q99 0 163 -164q51 -131 51 -248zM359 443q-30 169 -97 169q-29 0 -59 -49q-27 -45 -27 -77q0 -77 80 -77q64 0 103 34z
M423 1009l-87 -111l-113 84l-81 -100l-121 86l92 113l109 -82l79 96z" />
    <glyph glyph-name="afii62812" unicode="&#x642;" horiz-adv-x="574" arabic-form="medial" 
d="M574 1h-19q-175 0 -284 90q-141 -91 -260 -91h-81v150h97q78 0 133 37q-61 62 -61 176q0 94 89 184q84 85 159 85t127 -82q45 -72 45 -151q0 -142 -120 -223q60 -26 160 -26h15v-149zM410 359q0 37 -25 78q-27 46 -62 46q-36 0 -78 -38.5t-42 -74.5q0 -33 29 -76
q31 -46 62 -46q28 0 72 41.5t44 69.5zM514 895l-87 -111l-113 84l-81 -100l-121 86l92 113l109 -82l79 96z" />
    <glyph glyph-name="afii62816" unicode="&#x643;" horiz-adv-x="1532" arabic-form="final" 
d="M1532 0h-63q-132 1 -191 140l-2 2q-69 -79 -219 -126q-180 -57 -394 -57q-277 0 -398 61q-136 69 -136 236q0 105 62 189l94 -29q-38 -69 -38 -130q0 -176 345 -176h29q180 0 354 35q156 31 222 78v1q30 56 26 187l-23 790l132 68v-809q0 -310 159 -310h41v-150zM863 560
l-384 -98v67l99 41q-50 49 -50 97q0 57 46 103t103 46q67 0 116 -38l-23 -56q-45 14 -96 14q-25 0 -52 -14q-32 -17 -32 -39q0 -70 119 -70q16 0 154 42v-95z" />
    <glyph glyph-name="afii57410" unicode="&#x643;" horiz-adv-x="756" arabic-form="initial" 
d="M774 1230l-20 -155q-415 -171 -646 -331q290 -236 290 -430q0 -92 -62 -177q-100 -136 -339 -137h-67v150h134q216 0 216 147q0 82 -91 181q-19 20 -210 194q7 135 35 154q296 205 760 404z" />
    <glyph glyph-name="afii62815" unicode="&#x643;" horiz-adv-x="851" arabic-form="medial" 
d="M851 0h-31q-247 1 -455 336q5 -30 5 -58q0 -145 -109 -217q-92 -60 -245 -61h-86v150h77q274 0 274 163q0 79 -74 153q-65 61 -196 185q3 145 19 156q125 88 395 232q258 137 408 198l-20 -154q-159 -66 -381 -179q-240 -122 -308 -176q51 -42 152 -127q72 -61 131 -130
q134 -156 203 -217q118 -104 208 -104h33v-150z" />
    <glyph glyph-name="afii62819" unicode="&#x644;" horiz-adv-x="1236" arabic-form="final" 
d="M1236 0h-33q-103 1 -159 89q0 -575 -507 -575q-192 0 -298 115q-103 111 -103 304q0 181 87 319l100 -37q-66 -123 -66 -252q0 -301 315 -301q379 0 366 424l-34 1110l143 73v-850q0 -269 184 -269h5v-150z" />
    <glyph glyph-name="afii62817" unicode="&#x644;" horiz-adv-x="346" arabic-form="initial" 
d="M292 434q0 -203 -39 -295q-59 -138 -221 -139h-102v150h104q99 0 131 77q19 46 19 166q0 38 -1 70l-23 738l132 68v-835z" />
    <glyph glyph-name="afii62818" unicode="&#x644;" horiz-adv-x="465" arabic-form="medial" 
d="M465 0h-31q-132 1 -188 135q-80 -134 -214 -135h-102v150h72q120 0 160 74q30 56 26 187l-23 790l132 68v-809q0 -310 159 -310h9v-150z" />
    <glyph glyph-name="afii62822" unicode="&#x645;" horiz-adv-x="1048" arabic-form="final" 
d="M1048 0h-32q-115 1 -186 44q19 -39 19 -100q0 -42 -9.5 -80t-27 -67t-42 -46t-53.5 -17q-226 0 -226 321q0 18 1 34.5t3 31.5q-49 0 -83 -11.5t-55.5 -40t-31 -76.5t-9.5 -120v-736h-108l-13 823q0 68 21.5 126.5t61 101t95.5 67t125 24.5l12 92l253 -147
q148 -74 266 -74h19v-150zM692 82q-32 31 -106 70q0 -8 -0.5 -16.5t-0.5 -16.5q0 -229 103 -229q60 0 60 77q0 18 -6 36t-15 33.5t-18.5 27.5t-16.5 18z" />
    <glyph glyph-name="afii62820" unicode="&#x645;" horiz-adv-x="687" arabic-form="initial" 
d="M685 216q0 -35 -40 -103q-44 -75 -78 -75q-62 0 -147 39q-78 36 -128 83q-73 -83 -120 -115q-64 -44 -140 -45h-102v150h72q153 0 240 142q32 58 99 170q77 120 153 120q90 0 147 -146q44 -113 44 -220zM563 248q0 44 -27 108q-31 73 -63 73q-43 0 -115 -155
q63 -49 136 -72q32 -10 44 -10q25 0 25 56z" />
    <glyph glyph-name="afii62821" unicode="&#x645;" horiz-adv-x="836" arabic-form="medial" 
d="M836 0h-32q-92 0 -184 90q-27 -166 -89 -166h-5q-159 19 -312 148q-80 -71 -166 -72h-118v150h95q143 0 195 85q14 23 35 58t51 81q60 92 114 92q46 0 109 -83q99 -129 123 -152q85 -81 179 -81h5v-150zM474 259q-38 66 -63 66q-49 0 -106 -146q16 -16 41 -34t52 -33
t52.5 -25t43.5 -10q32 0 32 36q0 57 -52 146z" />
    <glyph glyph-name="afii62825" unicode="&#x646;" horiz-adv-x="1185" arabic-form="final" 
d="M1185 0h-29q-71 1 -118 49q1 -22 1 -44q0 -222 -142 -356q-138 -131 -361 -131q-187 0 -301 111t-114 297q0 149 86 294l94 -35q-65 -107 -65 -230q0 -296 323 -296q148 0 254 76q119 85 119 227q0 144 -91 289l111 96q51 -104 80 -139q54 -58 130 -58h23v-150zM671 583
l-97 -128l-131 87l96 131z" />
    <glyph glyph-name="afii62823" unicode="&#x646;" horiz-adv-x="417" arabic-form="initial" 
d="M370 258q0 -257 -299 -258h-123v150h131q173 0 173 93q0 50 -51 116l-34 44l103 113q100 -112 100 -258zM270 790l-97 -128l-131 87l96 131z" />
    <glyph glyph-name="afii62824" unicode="&#x646;" horiz-adv-x="548" arabic-form="medial" 
d="M548 1h-54q-175 0 -230 122q-27 -55 -86.5 -88.5t-123.5 -33.5h-124v149h115q74 0 125 34q58 39 58 110v63l102 27q1 -145 52 -195q39 -39 136 -39h30v-149zM370 727l-97 -128l-131 87l96 131z" />
    <glyph glyph-name="afii57447" unicode="&#x647;" horiz-adv-x="602" arabic-form="isolated" 
d="M550 231q0 -108 -61 -178q-64 -74 -170 -74q-86 0 -138 57.5t-52 144.5q0 78 26 141q11 28 79 149l-23 19l71 135q268 -210 268 -394zM443 230q0 52 -54 116q-41 49 -89 81q-76 -144 -76 -185q0 -116 105 -116q46 0 80 29.5t34 74.5z" />
    <glyph glyph-name="afii62828" unicode="&#x647;" horiz-adv-x="872" arabic-form="final" 
d="M872 0h-60q-124 1 -189 59q-62 55 -91 179q-100 -75 -260 -75q-62 0 -104.5 40.5t-42.5 101.5q0 213 321 375l-20 110l105 84l94 -495q25 -133 58 -174q46 -55 167 -55h22v-150zM499 378l-33 172q-70 -29 -131 -74q-84 -62 -84 -115q0 -37 76 -37q120 0 172 54z" />
    <glyph glyph-name="afii57470" unicode="&#x647;" horiz-adv-x="764" arabic-form="initial" 
d="M761 162q0 -219 -135 -219q-34 0 -269 113q-100 -55 -247 -56h-180v150h267q-118 50 -118 162q0 148 211 268l-53 38l60 141q464 -340 464 -597zM652 167q0 60 -141 215q3 -21 3 -41q0 -100 -74 -168q21 -13 85 -43q70 -32 83 -32q44 0 44 69zM414 347q0 43 -21 81
q-25 46 -64 46q-43 0 -87.5 -44.5t-44.5 -87.5q0 -40 54 -80q48 -35 82 -35q35 0 60 44q21 38 21 76z" />
    <glyph glyph-name="afii62827" unicode="&#x647;" horiz-adv-x="792" arabic-form="medial" 
d="M792 0h-36q-93 1 -163 -34q-89 -44 -89 -128q0 -85 95 -134l-44 -136q-328 103 -410 432h-215v150h199q0 177 87 343q77 147 134 147q46 0 109 -99q68 -106 68 -212q0 -121 -65 -217q-74 -109 -189 -109q30 -115 143 -195q-6 23 -6 48q0 121 95 208q92 86 214 86h73v-150
zM422 293q0 69 -33 121q-27 43 -48 43t-55 -80q-42 -98 -42 -216q91 -8 139 37q39 37 39 95z" />
    <glyph glyph-name="afii62829" unicode="&#x648;" horiz-adv-x="739" arabic-form="final" 
d="M739 0h-129q-65 -363 -471 -537l-94 105q199 109 288 183q135 113 159 249q-50 -7 -103 -7q-224 -6 -224 154q0 97 57 204q65 123 154 123q113 0 177 -111q49 -84 62 -213h124v-150zM478 151q-4 60 -29 108q-31 61 -83 61q-36 0 -62.5 -39.5t-26.5 -76.5q0 -48 98 -55
q68 -2 103 2z" />
    <glyph glyph-name="afii62830" unicode="&#x649;" horiz-adv-x="1049" arabic-form="final" 
d="M1206 0h-199q-148 1 -148 -32q0 -25 114 -44q118 -19 153 -37q73 -36 73 -124q0 -137 -218 -232q-178 -79 -335 -79q-209 0 -326 98q-126 106 -126 312q0 149 86 312l109 -37q-64 -132 -64 -242q0 -148 97 -224q88 -68 240 -68q261 0 418 119q15 11 15 22q0 15 -22 18
q-197 30 -266 61q-23 11 -39 44t-16 61q0 222 390 222h64v-150z" />
    <glyph glyph-name="afii62833" unicode="&#x64a;" horiz-adv-x="1129" arabic-form="final" 
d="M1129 0h-199q-148 1 -148 -32q0 -25 114 -44q118 -19 153 -37q73 -36 73 -124q0 -137 -218 -232q-178 -79 -335 -79q-209 0 -326 98q-126 106 -126 312q0 149 86 312l109 -37q-64 -132 -64 -242q0 -148 97 -224q88 -68 240 -68q261 0 418 119q15 11 15 22q0 15 -22 18
q-197 30 -266 61q-23 11 -39 44t-16 61q0 222 390 222h64v-150zM761 -752l-87 -111l-113 84l-81 -100l-121 86l92 113l109 -82l79 96z" />
    <glyph glyph-name="afii62831" unicode="&#x64a;" horiz-adv-x="417" arabic-form="initial" 
d="M370 258q0 -257 -299 -258h-123v150h131q173 0 173 93q0 50 -51 116l-34 44l103 113q100 -112 100 -258zM417 -253l-87 -111l-113 84l-81 -100l-121 86l92 113l109 -82l79 96z" />
    <glyph glyph-name=".notdef" horiz-adv-x="1063" 
 />
    <glyph glyph-name=".null" 
 />
    <glyph glyph-name="nonmarkingreturn" horiz-adv-x="682" 
 />
    <glyph glyph-name="space" unicode=" " horiz-adv-x="395" 
 />
    <glyph glyph-name="exclam" unicode="!" horiz-adv-x="362" 
d="M361 949l-51 -676h-62l-54 674v269h167v-267zM357 -29h-159v158h159v-158z" />
    <glyph glyph-name="quotedbl" unicode="&#x22;" horiz-adv-x="480" 
d="M78 1325h102l-22 -322h-68zM291 1325h101l-22 -322h-67z" />
    <glyph glyph-name="numbersign" unicode="#" horiz-adv-x="870" 
d="M820 376h-190l-54 -376h-101l55 376h-234l-57 -376h-101l57 376h-187v96h203l36 233h-191v96h205l54 352h101l-54 -352h231l53 352h101l-53 -352h170v-96h-183l-35 -233h174v-96zM348 705l-36 -233h233l35 233h-232z" />
    <glyph glyph-name="dollar" unicode="$" horiz-adv-x="870" 
d="M714 870q-23 111 -84 168t-170 71v-428q79 -46 129.5 -77.5t83 -56t52 -46.5t36.5 -49q16 -26 25.5 -68.5t9.5 -87.5q0 -63 -24 -115t-67 -88q-23 -19 -46.5 -33t-51.5 -24.5t-63.5 -19t-83.5 -16.5v-151h-60v151q-55 2 -97.5 7t-80 15t-72.5 26t-74 40v227h27
q31 -137 102.5 -201t194.5 -66v492q-46 26 -78 45t-55 35t-41.5 31t-37.5 33q-53 49 -75.5 97t-22.5 111q0 57 24.5 106.5t69.5 84.5q22 17 43 29t46 20t55.5 13.5t71.5 10.5v110h60v-110q55 -7 97 -15.5t75.5 -19.5t59 -25t47.5 -33v-193h-25zM399 1109q-180 -36 -180 -179
q0 -30 7.5 -55t28 -49.5t55.5 -52.5t89 -64v400zM460 48q103 20 150.5 69t47.5 137q0 40 -8.5 71t-30.5 59.5t-60.5 58t-98.5 67.5v-462z" />
    <glyph glyph-name="percent" unicode="%" horiz-adv-x="1450" 
d="M1164 646q88 0 134 -47.5t46 -138.5q0 -51 -10.5 -102t-30 -99t-47.5 -91.5t-62 -79.5q-46 -45 -95 -66.5t-109 -21.5q-47 0 -85.5 16t-65.5 45t-42 70.5t-15 92.5q0 82 32 158t85.5 134.5t122 94t142.5 35.5zM1176 590q-40 0 -77 -24.5t-72 -76.5q-24 -35 -45 -77
t-36 -86t-23.5 -86t-8.5 -76q0 -51 29 -81.5t77 -30.5t87.5 23.5t81.5 75.5q25 31 45 67.5t34.5 76t22.5 79t8 76.5q0 29 -10 54.5t-26.5 44.5t-39 30t-47.5 11zM433 -23h-83l610 1090q-26 -15 -48 -25t-44 -16t-46 -8.5t-53 -2.5q-38 0 -63.5 4t-49.5 13q7 -23 9.5 -40.5
t2.5 -36.5q0 -51 -12 -104.5t-34.5 -104t-54.5 -94.5t-71.5 -77.5t-86 -52.5t-97.5 -19q-43 0 -80.5 17.5t-65.5 47.5t-44 70.5t-16 85.5q0 83 32 160.5t85.5 137t123 95.5t144.5 36q20 0 35.5 -2t29 -7.5t27 -14.5t30.5 -24q31 -27 64.5 -37t86.5 -10q40 0 74.5 6t66.5 20
t64 36.5t67 55.5h67zM609 1045q-20 5 -33.5 9.5t-24 9.5t-19.5 11t-19 15q-8 7 -12 8t-10 2q-41 0 -87 -40.5t-84 -112.5q-17 -33 -32 -70.5t-26 -74.5t-17 -72t-6 -62q0 -48 28 -76.5t74 -28.5q53 0 104 34t91 90t64.5 127t24.5 145q0 38 -16 86z" />
    <glyph glyph-name="ampersand" unicode="&#x26;" horiz-adv-x="1354" 
d="M1238 705q-33 -5 -57 -11.5t-42.5 -17.5t-34 -28.5t-30.5 -44.5l-46 -81q-20 -36 -39 -66.5t-39 -61t-43 -62.5t-52 -71q121 -160 268 -160q24 0 43.5 4.5t37.5 15t36 28.5t39 44l27 -19q-39 -94 -108.5 -145.5t-154.5 -51.5q-38 0 -73.5 9t-71 28t-73 49.5t-78.5 72.5
q-49 -43 -94 -73.5t-90 -49.5t-92 -27.5t-100 -8.5q-141 0 -219.5 70.5t-78.5 196.5q0 111 67 201.5t207 172.5l65 38q-18 49 -29.5 85.5t-18.5 65t-9.5 53t-2.5 49.5q0 55 21 104t57 85t85 57t105 21q51 0 94.5 -15.5t74.5 -43t48.5 -66.5t17.5 -85q0 -43 -16 -86t-43 -73
q-18 -20 -37 -36.5t-43 -32.5t-55.5 -32.5t-75.5 -37.5q28 -56 54 -102t53 -88t56.5 -82.5t65.5 -85.5q42 55 72 101t49.5 84.5t28.5 70.5t9 60q0 19 -5 33t-18 23t-34 14.5t-54 8.5v36h376v-36zM558 724q107 58 155.5 116.5t48.5 132.5q0 32 -10.5 59t-29 47t-44 31
t-55.5 11q-60 0 -97 -40t-37 -103q0 -29 3.5 -57t12 -58t21.5 -64t32 -75zM439 597q-57 -36 -96.5 -69.5t-63.5 -67t-35 -69.5t-11 -77q0 -51 18 -95.5t48.5 -78t71.5 -53t87 -19.5q54 0 111.5 25.5t133.5 87.5q-37 46 -68.5 88.5t-62 90.5t-62.5 105t-71 132z" />
    <glyph glyph-name="quotesingle" unicode="'" horiz-adv-x="384" 
d="M142 1325h101l-22 -322h-67z" />
    <glyph glyph-name="parenleft" unicode="(" horiz-adv-x="557" 
d="M556 -124l-37 -45q-162 152 -250 368q-75 184 -75 348q0 156 68 333q88 229 257 386l37 -46q-234 -365 -234 -670q0 -307 234 -674z" />
    <glyph glyph-name="parenright" unicode=")" horiz-adv-x="557" 
d="M194 1220l37 46q162 -153 250 -368q75 -183 75 -349q0 -153 -69 -333q-88 -230 -256 -385l-37 45q233 366 233 670q0 307 -233 674z" />
    <glyph glyph-name="asterisk" unicode="*" horiz-adv-x="774" 
d="M430 713v-144q0 -14 -8 -24t-23 -10h-51q-8 0 -18.5 10t-10.5 24v144l-98 -101q-28 -18 -57 0l-31 33q-18 23 6 49l101 103h-144q-14 0 -26.5 9t-12.5 25v50q0 10 12.5 19t26.5 9h135l-98 101q-14 12 -15 26.5t9 28.5l37 31q10 10 22.5 9t24.5 -15l108 -105v156
q0 12 10.5 23.5t18.5 11.5h51q15 0 23 -11.5t8 -23.5v-150l107 105q12 14 24 15t31 -7l26 -39q11 -8 11 -20.5t-13 -28.5l-104 -107h156q10 0 22 -9t12 -19v-50q0 -16 -12 -25t-22 -9h-164l112 -103q19 -26 0 -57l-30 -31q-23 -18 -49 6z" />
    <glyph glyph-name="plus" unicode="+" horiz-adv-x="864" 
d="M356 326h-260v133h260v264h133v-264h273v-133h-273v-263h-133v263z" />
    <glyph glyph-name="comma" unicode="," horiz-adv-x="418" 
d="M79 105q0 19 9.5 38t26 34t39 24.5t47.5 9.5q31 0 56.5 -12t43.5 -33.5t27.5 -51.5t9.5 -65q0 -168 -140 -243q-11 -6 -24 -8.5t-28 -2.5q-22 0 -22 11q6 7 30 29q84 73 84 177q-31 -10 -61 -10q-98 0 -98 103z" />
    <glyph glyph-name="hyphen" unicode="-" horiz-adv-x="894" 
d="M96 326v133h666v-133h-666z" />
    <glyph glyph-name="period" unicode="." horiz-adv-x="589" 
d="M510 104q0 -45 -30 -75.5t-75 -30.5q-22 0 -41 8.5t-33.5 22.5t-23 33.5t-8.5 41.5t8.5 41t23 33t33.5 22.5t41 8.5t41 -8.5t33.5 -22.5t22.5 -33t8 -41z" />
    <glyph glyph-name="slash" unicode="/" horiz-adv-x="423" 
d="M378 1119l-266 -1212h-69l267 1212h68z" />
    <glyph glyph-name="zero" unicode="0" horiz-adv-x="960" 
d="M482 1176q85 0 156.5 -43.5t122.5 -123t79.5 -190t28.5 -244.5q0 -79 -12 -155t-34 -142.5t-53 -121t-69 -90.5q-48 -46 -102.5 -68.5t-123.5 -22.5q-76 0 -140.5 30.5t-113.5 88.5q-31 36 -56.5 90.5t-44 120t-28.5 137.5t-10 143q0 76 11.5 150.5t33.5 140.5t53 120
t69 90q49 46 105 68t128 22zM477 1131q-228 0 -228 -562q0 -548 226 -548t226 550q0 278 -56 419t-168 141z" />
    <glyph glyph-name="one" unicode="1" horiz-adv-x="960" 
d="M565 1173v-1044q0 -32 6.5 -51.5t24.5 -30.5t50.5 -15.5t84.5 -5.5v-26h-480v26q27 1 46 2.5t33 3.5t24.5 6t19.5 10q42 25 42 113v789q0 82 -52 82q-23 0 -50 -8.5t-76 -29.5v24l314 158z" />
    <glyph glyph-name="two" unicode="2" horiz-adv-x="960" 
d="M776 0h-679v21l310 329q112 118 169 233.5t57 218.5q0 55 -18 100.5t-50 77.5t-77 50t-100 18q-45 0 -80.5 -11.5t-65 -38t-55.5 -69.5t-52 -107l-36 8q11 46 22 81t24 62.5t29 50t37 44.5q49 53 112.5 80.5t137.5 27.5q67 0 126 -23.5t102.5 -65t68.5 -97.5t25 -121
q0 -51 -13 -102t-40.5 -103.5t-69.5 -108t-100 -116.5l-292 -306h416q29 0 49.5 4t38 16t35.5 34.5t42 59.5l23 -8z" />
    <glyph glyph-name="three" unicode="3" horiz-adv-x="960" 
d="M311 597q45 16 77.5 29.5t57.5 27t44.5 28.5t39.5 35q34 33 52 77t18 92q0 41 -14 75.5t-39 59t-60.5 38.5t-77.5 14q-83 0 -144.5 -45t-114.5 -141l-27 8q14 39 27 68.5t26.5 52t28.5 40.5t35 35q49 42 105 63.5t122 21.5q60 0 109.5 -17.5t85.5 -49t56 -75.5t20 -96
q0 -35 -8.5 -65.5t-28 -59t-50.5 -56.5t-76 -59q28 -12 49.5 -22.5t38 -21.5t30 -22.5t26.5 -25.5q38 -42 58 -100t20 -124q0 -92 -36 -167.5t-100.5 -128.5t-152.5 -82t-192 -29q-91 0 -143.5 27t-52.5 73q0 27 18 44t48 17q23 0 48 -10t63 -33q48 -32 80 -43.5t67 -11.5
q48 0 89.5 20t72 55t48 82t17.5 102q0 45 -12.5 86t-35 74.5t-55.5 58.5t-73 39q-15 6 -31.5 10t-37.5 6t-48.5 3t-66.5 1v22z" />
    <glyph glyph-name="four" unicode="4" horiz-adv-x="960" 
d="M867 291h-178v-291h-134v291h-489v111l547 774h76v-774h178v-111zM553 1000l-418 -598h418v598z" />
    <glyph glyph-name="five" unicode="5" horiz-adv-x="960" 
d="M287 867q77 -14 135.5 -29t103.5 -33.5t79 -40.5t63 -50q33 -33 56 -65t37 -67.5t20.5 -74.5t6.5 -85q0 -100 -28.5 -175.5t-88.5 -135.5q-66 -66 -156 -101t-202 -35q-100 0 -156 28.5t-56 79.5q0 65 75 65q27 0 58.5 -13.5t73.5 -44.5q39 -29 64.5 -39.5t51.5 -10.5
q51 0 95 23t77 63t51.5 94.5t18.5 116.5q0 130 -70.5 213.5t-221.5 132.5q-54 17 -104 25.5t-92 8.5q-22 0 -22 14q0 2 2 8l190 414h363q28 0 44.5 9t36.5 36l15 -12l-66 -156q-4 -9 -11.5 -12t-28.5 -3h-341z" />
    <glyph glyph-name="six" unicode="6" horiz-adv-x="960" 
d="M825 1163q-102 -17 -189 -60t-153.5 -107t-111 -147.5t-62.5 -182.5q41 25 70.5 40.5t54 24t47 11.5t51.5 3q75 0 135.5 -25.5t103 -73t65.5 -114.5t23 -150q0 -90 -26.5 -165t-75 -129t-115.5 -83.5t-148 -29.5q-90 0 -162.5 38t-123 105.5t-77.5 161t-27 205.5
q0 179 73 321t218 245q48 34 92.5 56.5t94 38.5t107 26t132.5 19zM467 665q-48 0 -86.5 -11.5t-66.5 -32.5q-26 -20 -37 -58t-11 -105q0 -101 17 -181.5t49 -136.5t78 -85.5t103 -29.5q94 0 142 75.5t48 221.5q0 82 -16 145.5t-46 107.5t-74 67t-100 23z" />
    <glyph glyph-name="seven" unicode="7" horiz-adv-x="960" 
d="M827 1125l-370 -1139h-113l345 1037h-378q-36 0 -61.5 -5.5t-47.5 -20.5t-43 -42.5t-49 -72.5l-30 15l103 256h644v-28z" />
    <glyph glyph-name="eight" unicode="8" horiz-adv-x="960" 
d="M550 646q79 -59 131 -106t82.5 -90.5t43 -86.5t12.5 -94q0 -67 -24 -121.5t-68.5 -92.5t-108 -59t-141.5 -21q-74 0 -135.5 21t-105.5 59.5t-68.5 91.5t-24.5 116q0 45 8.5 79.5t33.5 69t69 73.5t115 93q-69 60 -111 102t-65.5 77.5t-31.5 69t-8 75.5q0 59 25 109.5
t69 87t105 57t132 20.5q65 0 120 -18.5t94.5 -51t62 -77.5t22.5 -99q0 -45 -12 -82t-40 -70.5t-72.5 -65.5t-108.5 -66zM414 543q-38 -30 -64.5 -60t-43.5 -62t-24.5 -67.5t-7.5 -76.5q0 -57 16 -103.5t45.5 -79.5t70 -51t89.5 -18q43 0 78.5 14t61 39t39.5 60.5t14 77.5
q0 37 -8.5 68t-28.5 60t-52.5 59t-80.5 64zM500 677q5 5 7 6t8 5q75 51 111.5 110t36.5 134q0 45 -13.5 81t-38.5 61.5t-61 39.5t-80 14q-41 0 -75.5 -12.5t-59.5 -35.5t-39 -55t-14 -70q0 -36 12 -70t38.5 -67.5t67.5 -68t100 -72.5z" />
    <glyph glyph-name="nine" unicode="9" horiz-adv-x="960" 
d="M143 -3q99 17 184 59.5t152.5 108.5t116 153t75.5 194q-68 -54 -128.5 -77t-132.5 -23q-70 0 -127.5 25.5t-99 72t-64 111.5t-22.5 145q0 88 27.5 163t76 130t114.5 86t144 31q84 0 155 -36t122 -101t79.5 -155t28.5 -198q0 -89 -19.5 -172.5t-56 -158.5t-90 -139
t-121.5 -113q-45 -33 -87 -55.5t-89 -38.5t-103.5 -27t-129.5 -20zM675 686q0 442 -230 442q-78 0 -123 -54q-14 -17 -26 -44.5t-20.5 -60.5t-13.5 -70.5t-5 -73.5q0 -78 15 -140.5t43.5 -106.5t68 -67.5t89.5 -23.5q48 0 93 16.5t83 48.5q14 12 20 26t6 40v68z" />
    <glyph glyph-name="colon" unicode=":" horiz-adv-x="752" 
d="M620 104q0 -45 -30 -75.5t-75 -30.5q-22 0 -41 8.5t-33.5 22.5t-23 33.5t-8.5 41.5t8.5 41t23 33t33.5 22.5t41 8.5t41 -8.5t33.5 -22.5t22.5 -33t8 -41zM620 617q0 -45 -30 -75.5t-75 -30.5q-22 0 -41 8.5t-33.5 22.5t-23 33.5t-8.5 41.5t8.5 41t23 33t33.5 22.5t41 8.5
t41 -8.5t33.5 -22.5t22.5 -33t8 -41z" />
    <glyph glyph-name="semicolon" unicode=";" horiz-adv-x="356" 
d="M253 522q0 -18 -7 -34t-19.5 -28t-28.5 -19t-34 -7t-34 7t-28.5 19t-19.5 28t-7 34q0 37 26 63t63 26t63 -26t26 -63zM79 105q0 19 9.5 38t26 34t39 24.5t47.5 9.5q31 0 56.5 -12t43.5 -33.5t27.5 -51.5t9.5 -65q0 -168 -140 -243q-11 -6 -24 -8.5t-28 -2.5q-22 0 -22 11
q6 7 30 29q84 73 84 177q-31 -10 -61 -10q-98 0 -98 103z" />
    <glyph glyph-name="less" unicode="&#x3c;" horiz-adv-x="1117" 
d="M955 58l-805 386v90l805 384v-134l-624 -295l624 -297v-134z" />
    <glyph glyph-name="equal" unicode="=" horiz-adv-x="1029" 
d="M873 586h-729v120h729v-120zM873 271h-729v120h729v-120z" />
    <glyph glyph-name="greater" unicode="&#x3e;" horiz-adv-x="1117" 
d="M966 444l-806 -386v134l626 297l-626 295v134l806 -384v-90z" />
    <glyph glyph-name="question" unicode="?" horiz-adv-x="773" 
d="M395 286q2 57 14.5 119t37.5 128l49 111q32 72 48 141.5t16 129.5q0 43 -14.5 81.5t-40 67t-60 45t-73.5 16.5q-32 0 -61.5 -9t-52.5 -24t-37 -34.5t-14 -40.5q0 -20 30 -54q20 -23 28.5 -40t8.5 -36q0 -31 -20 -50.5t-52 -19.5q-42 0 -63 27.5t-21 79.5q0 54 21.5 100
t59.5 80t89.5 53t111.5 19q72 0 141.5 -27.5t116.5 -72.5q30 -29 46.5 -73.5t16.5 -95.5q0 -53 -18.5 -104t-59.5 -115q-9 -14 -15.5 -23t-16 -21.5t-26.5 -33t-47 -57.5q-24 -30 -42 -59.5t-31.5 -61t-23 -67.5t-16.5 -79h-30zM412 173q19 0 36.5 -7.5t30.5 -21t20.5 -31
t7.5 -37.5q0 -38 -27 -64t-69 -26q-39 0 -65 25.5t-26 63.5q0 42 26.5 70t65.5 28z" />
    <glyph glyph-name="at" unicode="@" horiz-adv-x="1603" 
d="M1219 75q-63 -29 -113 -48t-93.5 -30.5t-84.5 -16.5t-87 -5q-135 0 -252 45.5t-203 125.5t-135 188t-49 234q0 127 49.5 238t135.5 193t202 129.5t248 47.5q121 0 225 -39t181 -108t121 -162t44 -201q0 -84 -25.5 -159.5t-69.5 -133t-102 -91t-123 -33.5
q-63 0 -106.5 34.5t-51.5 92.5q-45 -60 -102.5 -92.5t-115.5 -32.5q-32 0 -60 15t-49 41t-33 61.5t-12 76.5q0 75 26 153t72 141.5t108.5 104t135.5 40.5q22 0 39 -4t31.5 -14.5t27.5 -27.5t27 -44l18 66h120l-113 -442q-4 -13 -4 -31q0 -81 68 -81q43 0 83.5 29t72 77
t50.5 110t19 127q0 97 -39.5 183.5t-107.5 151t-159 102t-194 37.5q-97 0 -181 -33.5t-148 -99.5q-37 -39 -67 -88t-51 -104t-32.5 -115t-11.5 -120q0 -114 38 -209.5t105.5 -164.5t161 -107.5t204.5 -38.5q43 0 83 4.5t80 14.5t83.5 26t94.5 39zM924 807h-7
q-32 0 -70.5 -23t-73.5 -63q-90 -102 -90 -248q0 -69 27.5 -108t76.5 -39q30 0 57.5 18.5t50.5 49.5t41.5 71t31.5 82.5t20 85t7 77.5q0 45 -18.5 70t-52.5 27z" />
    <glyph glyph-name="A" unicode="A" horiz-adv-x="1257" 
d="M1229 0h-444v33q34 1 57.5 4t38 10t20.5 18t6 28t-8.5 48.5t-24.5 67.5l-72 167h-455l-81 -203q-6 -17 -10 -35t-4 -33q0 -37 28 -54.5t91 -17.5v-33h-345v33q31 1 53 10.5t44 39t49.5 85.5t69.5 151l362 854h35l434 -989q22 -48 38.5 -77t33 -44.5t36 -21.5t48.5 -8v-33
zM778 447l-202 479l-200 -479h402z" />
    <glyph glyph-name="B" unicode="B" horiz-adv-x="1161" 
d="M517 1153q456 0 456 -296q0 -54 -18.5 -99.5t-50.5 -74.5q-16 -14 -31.5 -25t-35 -19.5t-44.5 -16.5t-59 -16q42 -11 73.5 -21t55.5 -20.5t44 -23.5t40 -31q42 -38 63.5 -88.5t21.5 -107.5q0 -67 -26.5 -124.5t-79 -99.5t-131.5 -66t-184 -24h-581v33q54 2 86.5 8.5
t50.5 23.5t23.5 47t5.5 78v773q0 48 -5.5 77t-23 45.5t-50 23.5t-87.5 10v34h487zM374 136q0 -21 5 -34.5t18 -22t34 -11.5t53 -3q94 0 160.5 15.5t108 46.5t60.5 77t19 108q0 84 -35.5 136.5t-110.5 84.5q-24 9 -52 15.5t-64.5 11t-84 6.5t-111.5 2v-432zM540 637
q125 0 190.5 54.5t65.5 157.5q0 118 -77 178.5t-230 60.5h-77q-19 0 -28.5 -12t-9.5 -40v-399h166z" />
    <glyph glyph-name="C" unicode="C" horiz-adv-x="1161" 
d="M1040 784q-13 42 -25 73.5t-25 56.5t-29 45.5t-37 41.5q-107 107 -259 107q-95 0 -171.5 -37t-130.5 -104.5t-83 -164t-29 -214.5q0 -132 30.5 -232.5t87 -168t136.5 -101.5t178 -34q54 0 103 10t96 31.5t94 54.5t95 80l31 -32q-81 -106 -203 -163.5t-273 -57.5
q-123 0 -229 41t-183.5 117.5t-121.5 186t-44 246.5q0 146 47.5 263t141.5 198q81 72 183 110.5t212 38.5q63 0 126.5 -10t127.5 -31q20 -8 38 -12t30 -4q26 0 45.5 15t27.5 42h36v-392h-23z" />
    <glyph glyph-name="D" unicode="D" horiz-adv-x="1257" 
d="M181 963q0 48 -4.5 77t-20.5 45t-46 23t-82 11v34h470q162 0 291 -38.5t219 -112t137.5 -179.5t47.5 -242q0 -129 -44 -236t-129.5 -183.5t-210.5 -119t-287 -42.5h-494v33q49 3 79.5 10.5t46.5 24.5t21.5 46t5.5 76v773zM359 136q0 -21 4 -34.5t14.5 -22t28 -11.5
t43.5 -3q57 0 105 4t89 12.5t77.5 22t69.5 32.5q213 123 213 433q0 287 -207 432q-125 87 -347 87q-27 0 -44.5 -3t-27.5 -10.5t-14 -21t-4 -33.5v-884z" />
    <glyph glyph-name="E" unicode="E" horiz-adv-x="1063" 
d="M960 0h-939v33q48 3 77.5 10.5t46 25t22.5 46.5t6 75v773q0 46 -5.5 74.5t-22 45.5t-46.5 24.5t-78 11.5v34h924v-249h-38q-11 58 -26 94t-43.5 55.5t-75 26t-119.5 6.5h-236q-35 0 -46 -11.5t-11 -47.5v-386h268q120 0 153 43q7 9 12 19.5t9 24t8 32.5t9 46h40v-404h-40
q-8 54 -18.5 87t-31 51t-54 23.5t-87.5 5.5h-268v-430q0 -22 3 -36t9 -18q4 -5 19 -8.5t38.5 -6t52.5 -4t61 -1.5h47q93 0 157 9.5t109.5 34.5t78.5 69.5t65 115.5h50z" />
    <glyph glyph-name="F" unicode="F" horiz-adv-x="968" 
d="M794 402q-8 52 -19 85t-32 51t-54.5 24.5t-85.5 6.5h-253v-379q0 -47 6 -76.5t23 -46.5t48 -24t81 -10v-33h-487v33q49 3 79 11t46.5 26.5t21.5 51.5t5 87v754q0 46 -5.5 74.5t-22 45.5t-46.5 24.5t-78 11.5v34h924v-249h-38q-11 58 -26 94t-43.5 55.5t-75 26t-119.5 6.5
h-238q-17 0 -28 -2.5t-17 -9t-8 -18t-2 -29.5v-386h253q51 0 84.5 6t54.5 24t32.5 50t19.5 85h40v-404h-40z" />
    <glyph glyph-name="G" unicode="G" horiz-adv-x="1257" 
d="M1234 585q-38 -3 -61.5 -10t-37 -22t-18 -39.5t-4.5 -63.5v-352q-26 -23 -76.5 -45t-112 -39.5t-127 -28t-121.5 -10.5q-147 0 -267 47.5t-208 138.5q-75 78 -110 176.5t-35 228.5q0 133 44 245t123.5 193t189 126.5t240.5 45.5q120 0 237 -40q51 -17 76 -17
q28 0 49.5 16.5t29.5 40.5h38v-367h-26q-17 40 -31.5 69.5t-28.5 53t-29.5 42.5t-34.5 37q-103 97 -250 97q-95 0 -173.5 -36t-135.5 -105t-88.5 -169.5t-31.5 -229.5q0 -122 31.5 -218.5t91 -164.5t144 -104t191.5 -36q47 0 89 8.5t73.5 22.5t50 32.5t18.5 39.5v282
q0 57 -8 88t-28 42q-8 6 -16.5 9.5t-21.5 6.5t-32 5t-47 4v31h444v-31z" />
    <glyph glyph-name="H" unicode="H" horiz-adv-x="1257" 
d="M892 625v338q0 46 -5 75t-21.5 45.5t-47 24t-80.5 11.5v34h484v-34q-50 -4 -80.5 -11.5t-47 -24t-21.5 -45.5t-5 -75v-773q0 -47 5.5 -75.5t22 -45.5t46.5 -24.5t80 -11.5v-33h-484v33q51 3 81.5 10.5t46.5 26t21 51.5t5 88v339h-528v-358q0 -47 5.5 -75.5t22 -45.5
t46.5 -24.5t79 -11.5v-33h-484v33q51 3 81.5 10.5t46 26t20.5 51.5t5 88v754q0 46 -5 75t-21 45.5t-46.5 24t-80.5 11.5v34h484v-34q-50 -4 -80.5 -11.5t-46.5 -24t-21 -45.5t-5 -75v-338h528z" />
    <glyph glyph-name="I" unicode="I" horiz-adv-x="580" 
d="M201 963q0 48 -6 77t-24 45.5t-51.5 23.5t-88.5 10v34h517v-34q-55 -2 -88.5 -8.5t-52 -23.5t-24.5 -46.5t-6 -77.5v-773q0 -48 6.5 -77.5t25.5 -46.5t52 -24t87 -9v-33h-517v33q55 2 88.5 8.5t51.5 23t24 46.5t6 79v773z" />
    <glyph glyph-name="J" unicode="J" horiz-adv-x="677" 
d="M484 319q0 -166 -75.5 -255t-218.5 -89q-38 0 -70 9.5t-55 26t-35.5 40t-12.5 50.5q0 18 7 33.5t18.5 27.5t27 19t33.5 7q64 0 90 -89q10 -32 19.5 -44.5t28.5 -12.5q34 0 49.5 27t15.5 87v807q0 48 -5 76.5t-22 45t-49 23.5t-86 11v34h500v-34q-53 -4 -84.5 -11
t-48.5 -23.5t-22 -45t-5 -76.5v-644z" />
    <glyph glyph-name="K" unicode="K" horiz-adv-x="1257" 
d="M719 1153h456v-34q-44 -3 -74.5 -8.5t-58 -20t-58 -40t-74.5 -67.5l-330 -327l405 -435q60 -63 97.5 -100t65.5 -56t52.5 -25t58.5 -7v-33h-531v33q5 2 10.5 2h10.5h13h14q37 0 55 10.5t18 27.5q0 16 -17 46t-47 69t-71.5 85t-90.5 96l-184 183l-45 -37v-325
q0 -47 5 -76.5t21.5 -46.5t47.5 -24t82 -10v-33h-491v33q51 3 82 11t47.5 26.5t22 51.5t5.5 87v754q0 46 -5.5 75t-22 45.5t-47.5 24t-82 11.5v34h494v-34q-53 -4 -84.5 -11t-48 -23.5t-21.5 -45t-5 -76.5v-357l307 280q73 66 104 108t32 71q0 18 -6 27.5t-20 15t-36.5 7.5
t-55.5 4v34z" />
    <glyph glyph-name="L" unicode="L" horiz-adv-x="1063" 
d="M1041 303l-84 -303h-936v33q48 3 77.5 10.5t46 25t22.5 46.5t6 75v773q0 46 -5.5 74.5t-22 45.5t-46.5 24.5t-78 11.5v34h491v-34q-52 -3 -83.5 -10.5t-49 -24.5t-23.5 -46t-6 -75v-824q0 -23 5.5 -37t21.5 -21.5t45.5 -10t77.5 -2.5h116q109 0 182.5 24t118.5 75
q20 22 39 53t42 83h43z" />
    <glyph glyph-name="M" unicode="M" horiz-adv-x="1548" 
d="M728 0h-25l-437 957v-701q0 -66 7 -108t25 -66.5t50 -35t82 -13.5v-33h-409v33q54 4 87.5 14t51.5 34t24 65.5t6 109.5v707q0 48 -6 77t-23.5 45.5t-50 23.5t-85.5 10v34h344l402 -879l385 879h346v-34q-48 -4 -77.5 -11.5t-46 -24t-22 -45.5t-5.5 -75v-773
q0 -47 5.5 -76t22 -46t46 -24.5t77.5 -10.5v-33h-487v33q52 3 83 11t47.5 26.5t22 51.5t5.5 87v789z" />
    <glyph glyph-name="N" unicode="N" horiz-adv-x="1257" 
d="M1036 -20l-770 958v-682q0 -66 7 -108t25 -66.5t50 -35t82 -13.5v-33h-409v33q54 4 87.5 14t51.5 34t24 65.5t6 109.5v767q-26 31 -45.5 49.5t-37.5 29t-38.5 14t-47.5 3.5v34h298l670 -843v587q0 69 -7 111t-25.5 65t-51 32.5t-83.5 13.5v34h409v-34q-26 -2 -43.5 -5
t-30.5 -6.5t-22.5 -8.5t-18.5 -11q-51 -36 -51 -191v-917h-29z" />
    <glyph glyph-name="O" unicode="O" horiz-adv-x="1257" 
d="M628 1176q118 0 221.5 -41.5t181 -120t122.5 -191t45 -254.5q0 -131 -42.5 -240.5t-119 -188t-183.5 -122t-235 -43.5q-57 0 -114 12.5t-110 35.5t-100 56t-85 74q-72 78 -111 187.5t-39 235.5q0 131 42 241.5t118 190t180 124t229 44.5zM628 1114q-72 0 -135 -28
t-114 -85q-28 -32 -50.5 -77.5t-38 -101t-24 -119t-8.5 -130.5q0 -72 10.5 -140.5t29.5 -127.5t46 -105.5t61 -76.5q48 -42 104 -63t116 -22q139 0 232 93q61 61 85 127q26 68 42 151.5t16 161.5q0 132 -27.5 233.5t-77 170.5t-118 104t-149.5 35z" />
    <glyph glyph-name="P" unicode="P" horiz-adv-x="968" 
d="M352 190q0 -48 6 -77.5t23.5 -46.5t49.5 -24t84 -9v-33h-487v33q49 4 78 11.5t44 26t19.5 51.5t4.5 87v754q0 46 -5 74.5t-20 45t-44 24t-77 12.5v34h459q61 0 119 -9t108.5 -25.5t91 -40t66.5 -51.5q35 -38 53 -86.5t18 -103.5q0 -87 -44.5 -161t-122.5 -116
q-29 -16 -61 -27.5t-68.5 -18.5t-79.5 -10t-95 -3q-34 0 -60 1.5t-60 4.5v-317zM352 576q30 -2 51 -3.5t47 -1.5q304 0 304 256q0 135 -83 198t-260 63q-35 0 -47 -12t-12 -48v-452z" />
    <glyph glyph-name="Q" unicode="Q" horiz-adv-x="1257" 
d="M1221 -308q-12 -2 -19 -2h-12q-229 0 -390 50.5t-257 161.5l-81 96q-47 16 -82 31t-63.5 32.5t-53 38.5t-49.5 48q-155 167 -155 425q0 132 42 243t118 191t180 124.5t229 44.5q124 0 229 -44.5t180.5 -124t118 -190t42.5 -241.5q0 -292 -195 -466q-30 -27 -58 -46.5
t-58.5 -33.5t-65.5 -24t-80 -18q53 -69 106.5 -118t111.5 -81t122.5 -48t139.5 -18v-31zM633 1114q-75 0 -137.5 -27.5t-116.5 -85.5q-27 -29 -49.5 -74.5t-38 -101t-24.5 -117.5t-9 -125q0 -134 27 -236t76 -170.5t117 -103.5t150 -35q72 0 137 29t114 83q27 30 49 76.5
t38 103.5t25 121t9 129q0 125 -28 224t-77 168t-116.5 105.5t-145.5 36.5z" />
    <glyph glyph-name="R" unicode="R" horiz-adv-x="1161" 
d="M1147 0h-280l-415 536h-97v-346q0 -47 5.5 -76t22.5 -46t47.5 -24.5t81.5 -10.5v-33h-482v33q49 4 78 11.5t44.5 26t20.5 51.5t5 87v754q0 46 -5 74t-20.5 44.5t-44.5 24.5t-78 13v34h480q218 0 330 -80t112 -227q0 -63 -23 -114.5t-65 -85.5q-22 -18 -43.5 -31
t-48 -23.5t-59 -19t-76.5 -17.5l358 -440q19 -22 36 -37t34.5 -24.5t37 -14t44.5 -6.5v-33zM355 597q62 1 107 4t79.5 9.5t63 17.5t58.5 28q48 25 73.5 76t25.5 117q0 123 -77.5 181t-240.5 58q-26 0 -43.5 -3t-27.5 -10t-14 -19.5t-4 -30.5v-428z" />
    <glyph glyph-name="S" unicode="S" horiz-adv-x="968" 
d="M817 806h-44q-11 39 -21 67.5t-22 51.5t-27.5 43.5t-36.5 41.5q-48 48 -99.5 71.5t-111.5 23.5q-41 0 -74 -11.5t-57 -33t-37 -51.5t-13 -66q0 -35 14.5 -67.5t45 -65t79 -66.5t117.5 -72q86 -47 147.5 -92t101 -91t58 -94.5t18.5 -102.5q0 -67 -27.5 -125t-75 -100.5
t-112.5 -67t-140 -24.5q-54 0 -104.5 10.5t-101.5 29.5q-54 20 -82 20q-20 0 -33 -16.5t-15 -41.5h-39l-52 370h40q66 -160 151 -234.5t201 -74.5q48 0 87 14.5t67.5 40.5t44 62t15.5 80q0 32 -7 57.5t-18 43.5q-33 51 -99 102t-160 102q-73 39 -124.5 77t-84.5 78.5
t-48 85.5t-15 98q0 136 93 217q45 38 98.5 59t110.5 21q42 0 89 -9.5t95 -28.5q49 -20 77 -20q45 0 55 58h37z" />
    <glyph glyph-name="T" unicode="T" horiz-adv-x="1063" 
d="M348 1079q-73 0 -119.5 -8t-76 -32t-47.5 -67.5t-34 -114.5h-41v296h992v-296h-32q-15 72 -32 115.5t-46.5 67t-76.5 31.5t-121 8h-94v-889q0 -48 6 -77.5t24 -46t50.5 -23.5t86.5 -10v-33h-508v33q54 3 86 10t49.5 25.5t22.5 51.5t5 89v870h-94z" />
    <glyph glyph-name="U" unicode="U" horiz-adv-x="1257" 
d="M1063 442q0 -50 -3 -91t-10 -75.5t-17.5 -64t-26.5 -56.5q-105 -180 -388 -180q-222 0 -329.5 109t-107.5 336v543q0 48 -5.5 76.5t-22 45t-47 23.5t-81.5 11v34h492v-34q-53 -4 -84 -11.5t-47.5 -24t-21.5 -45.5t-5 -75v-558q0 -82 10 -135t33 -94q70 -124 256 -124
q49 0 93.5 9.5t82 27.5t66.5 43.5t47 57.5q21 39 30.5 93.5t9.5 143.5v470q0 65 -6.5 106t-24.5 65.5t-49.5 35.5t-82.5 15v34h403v-34q-53 -6 -85.5 -16.5t-50 -34.5t-23 -64.5t-5.5 -106.5v-455z" />
    <glyph glyph-name="V" unicode="V" horiz-adv-x="1257" 
d="M1213 1119q-32 -2 -52.5 -8t-37 -23t-32.5 -48t-38 -83l-387 -977h-25l-429 957q-28 58 -48 93t-39.5 54.5t-42 26.5t-54.5 8v34h463v-34q-67 -3 -99 -13t-32 -44q0 -10 3 -23.5t11 -35.5t22 -54.5t36 -79.5l262 -589l256 639q17 40 25 73t8 54q0 37 -27.5 53t-98.5 20
v34h356v-34z" />
    <glyph glyph-name="W" unicode="W" horiz-adv-x="1643" 
d="M1623 1119q-35 -6 -57.5 -13.5t-38 -20.5t-26.5 -34.5t-23 -55.5q-47 -128 -81 -221.5t-61.5 -168.5t-50 -139t-46.5 -134t-51.5 -154t-64.5 -198h-27l-277 737l-269 -737h-26l-336 935q-24 61 -42.5 99.5t-38 60.5t-42.5 31.5t-57 12.5v34h427v-34q-33 -2 -55 -5.5
t-34.5 -10t-18 -16t-5.5 -24.5q0 -14 5 -35t14 -45l251 -654l186 491l-57 143q-23 52 -39 83t-34 47t-41.5 21t-61.5 5v34h465v-34q-72 -1 -103.5 -15t-31.5 -46q0 -23 13.5 -56t33.5 -85l231 -593l217 590q14 36 21 69.5t7 61.5q0 35 -26.5 51.5t-93.5 22.5v34h345v-34z
" />
    <glyph glyph-name="X" unicode="X" horiz-adv-x="1257" 
d="M1211 1119q-41 -2 -71 -8.5t-58 -24t-58 -48.5t-72 -83l-254 -316l334 -478q28 -38 48.5 -61t41.5 -36.5t45 -20t59 -10.5v-33h-517v33q15 2 28.5 3t18.5 1q86 2 86 50q0 42 -88 171l-166 243l-206 -257q-25 -31 -42 -54.5t-28 -41.5t-16 -31t-5 -23q0 -15 6.5 -25.5
t21.5 -17.5t40.5 -11t63.5 -7v-33h-406v33q23 2 39.5 4.5t31.5 9.5t30.5 19t36 33.5t48 53.5t66.5 78l274 337l-189 278q-43 60 -75 103.5t-58 73.5t-47 48t-41.5 28.5t-43.5 14.5t-51 5v34h526v-34l-49 -1q-43 -2 -63 -13.5t-20 -37.5q0 -15 8 -36.5t26 -53t46 -73.5
t68 -98l73 -103l196 240q38 48 54 75.5t16 44.5q0 29 -25 41.5t-97 14.5v34h414v-34z" />
    <glyph glyph-name="Y" unicode="Y" horiz-adv-x="1257" 
d="M1224 1119q-33 -2 -60 -11.5t-54 -32t-57 -60t-70 -94.5l-257 -393v-338q0 -49 6.5 -79.5t25.5 -47t54 -23t93 -7.5v-33h-533v33q60 3 95 9.5t53 24.5t23 51.5t5 90.5v303l-228 334q-65 91 -105.5 145t-69.5 82t-52.5 36.5t-54.5 9.5v34h487v-34q-63 -3 -93 -12t-30 -40
q0 -14 7.5 -35t22.5 -42l257 -386l249 394q12 20 18.5 35t6.5 29q0 31 -26.5 43.5t-94.5 13.5v34h382v-34z" />
    <glyph glyph-name="Z" unicode="Z" horiz-adv-x="1063" 
d="M1040 306l-42 -306h-983v26l761 1060h-384q-176 0 -234 -75q-11 -14 -19.5 -28t-15 -32t-12.5 -41t-12 -55h-45l34 298h917v-27l-753 -1060h448q151 0 217 68q13 15 23.5 30t20 34.5t19 45.5t20.5 62h40z" />
    <glyph glyph-name="bracketleft" unicode="[" horiz-adv-x="580" 
d="M520 -271h-367v1424h367v-44h-156q-42 0 -60 -17.5t-18 -59.5v-1170q0 -90 85 -90h149v-43z" />
    <glyph glyph-name="backslash" unicode="\" horiz-adv-x="423" 
d="M110 1119l267 -1212h-69l-266 1212h68z" />
    <glyph glyph-name="bracketright" unicode="]" horiz-adv-x="580" 
d="M216 -228q40 0 59 17.5t19 59.5v1169q0 91 -85 91h-150v44h368v-1424h-368v43h157z" />
    <glyph glyph-name="asciicircum" unicode="^" horiz-adv-x="817" 
d="M42 517l315 636h105l314 -636h-118l-249 503l-249 -503h-118z" />
    <glyph glyph-name="underscore" unicode="_" horiz-adv-x="870" 
d="M0 -218v87h870v-87h-870z" />
    <glyph glyph-name="grave" unicode="`" horiz-adv-x="580" 
d="M352 882l-269 169q-23 17 -36.5 35.5t-13.5 39.5q0 25 16 40t44 15q18 0 33.5 -9t39.5 -32l256 -258h-70z" />
    <glyph glyph-name="a" unicode="a" horiz-adv-x="773" 
d="M769 70q-23 -26 -42 -42.5t-36.5 -26.5t-36 -14t-41.5 -4q-54 0 -79.5 29t-32.5 98q-40 -34 -73.5 -58t-64 -39.5t-59 -22.5t-57.5 -7q-40 0 -73.5 13.5t-57.5 38t-37.5 59t-13.5 75.5q0 43 16.5 84t45.5 67q19 17 35 30t35 24.5t43.5 24t60 27.5t84 35t115.5 47v107
q0 72 -34.5 108t-98.5 36q-26 0 -49 -6.5t-40 -18t-26.5 -27t-9.5 -33.5q0 -15 4.5 -37t4.5 -33q0 -15 -6.5 -28t-17 -23t-25 -16t-29.5 -6q-30 0 -52.5 22.5t-22.5 52.5q0 41 22.5 76.5t62 62t92.5 41.5t115 15q157 0 216 -96q19 -31 27 -73t8 -110v-339q0 -58 11 -79.5
t41 -21.5q20 0 36.5 7t39.5 26v-45zM500 467q-79 -29 -133 -56t-87 -55.5t-47.5 -60.5t-14.5 -71v-6q0 -28 8.5 -52.5t23 -43t34.5 -29t43 -10.5q26 0 61 10.5t67 29.5q13 7 21.5 15t13.5 18t7.5 24t2.5 34v253z" />
    <glyph glyph-name="b" unicode="b" horiz-adv-x="870" 
d="M266 653q13 32 37.5 59t57 47t70 31t77.5 11q66 0 122 -29t97 -80t64 -120t23 -149q0 -93 -31.5 -173.5t-86 -140t-129 -93t-160.5 -33.5q-52 0 -103.5 9.5t-92 25.5t-66 36t-25.5 40v904q0 27 -3.5 44.5t-13 27t-26 13t-42.5 3.5h-15.5t-14.5 -1v28l51 13q31 9 56 16
t48 14t46.5 15t51.5 18l8 -3v-533zM266 122q0 -17 13.5 -32t37 -26.5t54 -18.5t64.5 -7q109 0 167.5 78.5t58.5 226.5q0 79 -15.5 143.5t-44.5 110t-70 70t-92 24.5q-35 0 -66 -11t-55 -29t-38 -42t-14 -49v-438z" />
    <glyph glyph-name="c" unicode="c" horiz-adv-x="773" 
d="M717 256q-20 -38 -36 -67t-31.5 -51.5t-31 -40t-33.5 -32.5q-50 -42 -100 -62t-111 -20q-72 0 -133 28.5t-105 80t-68.5 122.5t-24.5 157q0 103 35 188.5t101 143.5q54 48 117 73t129 25q55 0 103.5 -14.5t85 -39t58 -57t21.5 -69.5q0 -30 -25 -51.5t-59 -21.5
q-26 0 -48 22t-33 58l-11 38q-6 24 -14 40.5t-20 26.5t-28.5 14t-40.5 4q-53 0 -96 -22.5t-74.5 -62.5t-48.5 -96t-17 -123q0 -75 20 -137.5t55.5 -107t85 -69.5t108.5 -25q38 0 69 8.5t59.5 27.5t57 50.5t60.5 76.5z" />
    <glyph glyph-name="d" unicode="d" horiz-adv-x="870" 
d="M592 -12v111q-44 -62 -97 -89t-126 -27q-72 0 -131 27t-101.5 76.5t-66 118t-23.5 152.5q0 93 28.5 174t77.5 141t115 94.5t141 34.5q26 0 48.5 -4t44 -12.5t43.5 -23t47 -35.5v272q0 26 -3.5 43t-12.5 27t-24.5 14t-39.5 4h-19.5t-19.5 -1v28q42 11 75.5 20t63.5 18
t58 18t59 20l9 -3v-988q0 -33 3.5 -53t14 -30t28.5 -13t47 -3h9.5t14.5 2v-28l-256 -90zM592 578q0 34 -14.5 65.5t-39.5 55.5t-57 38.5t-67 14.5q-50 0 -90 -23t-68.5 -66t-44 -103t-15.5 -133q0 -81 17.5 -146t49 -111.5t76 -71.5t98.5 -25q78 0 126 52q13 14 21 29t8 24
v400z" />
    <glyph glyph-name="e" unicode="e" horiz-adv-x="773" 
d="M738 274q-55 -145 -148.5 -218t-220.5 -73q-75 0 -135.5 27t-102.5 77.5t-65 122.5t-23 162q0 99 28.5 178.5t77.5 135t115.5 85.5t142.5 30q69 0 126.5 -26t96.5 -74q16 -20 28 -41t20.5 -46.5t15 -57.5t11.5 -74h-536q3 -95 24 -166.5t56.5 -118.5t84 -70.5
t106.5 -23.5q42 0 77.5 10t68 31.5t63 56.5t62.5 85zM528 538q-9 57 -22 95t-32.5 61.5t-48 33.5t-68.5 10q-81 0 -125.5 -48.5t-58.5 -151.5h355z" />
    <glyph glyph-name="f" unicode="f" horiz-adv-x="580" 
d="M538 728h-212v-547q0 -49 5 -78.5t22 -46t49 -22.5t85 -8v-26h-452v26q47 3 75.5 9.5t43.5 23t20 45.5t5 77v547h-142v56h142q1 52 4.5 91t10.5 71t18.5 59.5t28.5 56.5q35 60 98.5 93.5t145.5 33.5q39 0 72.5 -8t57.5 -22.5t37.5 -34t13.5 -43.5q0 -30 -21.5 -50.5
t-51.5 -20.5q-22 0 -39.5 14t-38.5 49q-23 38 -43.5 52.5t-48.5 14.5q-51 0 -75 -39.5t-24 -115.5v-201h214v-56z" />
    <glyph glyph-name="g" unicode="g" horiz-adv-x="870" 
d="M674 676q18 -42 25 -75t7 -71q0 -66 -19 -113t-64 -85q-47 -40 -98 -56.5t-106 -16.5q-13 0 -33.5 1.5t-49.5 7.5q-18 -5 -36.5 -18t-33.5 -29t-25 -33t-10 -30q0 -41 136 -47l225 -10q97 -5 153.5 -55t56.5 -131q0 -51 -22.5 -92.5t-73.5 -83.5q-35 -28 -76.5 -50
t-87 -37t-94.5 -23t-98 -8q-62 0 -117 13.5t-96 36t-65 53t-24 65.5q0 25 9.5 48.5t30 48.5t53 53.5t78.5 62.5q-53 26 -72.5 45.5t-19.5 46.5q0 21 7.5 37t25.5 35.5t48 46.5t74 71q-87 43 -124.5 97t-37.5 136q0 61 23 113t63 90t94 59.5t116 21.5q32 0 65.5 -8t68.5 -19
l38 -13q26 -9 48 -13.5t48 -4.5h135v-67h-145zM256 -3q-27 -33 -43.5 -55t-26 -38t-12.5 -29t-3 -28q0 -29 18 -52.5t51 -40.5t80 -26t105 -9q73 0 134 12t104 34.5t67 54t24 69.5q0 24 -11.5 40t-37 26t-67 14.5t-100.5 4.5q-32 0 -72 2t-79.5 5t-74 7t-56.5 9zM264 583
q0 -63 13 -114.5t36.5 -88t56.5 -57t72 -20.5q60 0 95.5 42t35.5 117q0 51 -14.5 106.5t-38.5 101.5q-20 39 -53 60.5t-73 21.5q-60 0 -95 -43t-35 -121v-5z" />
    <glyph glyph-name="h" unicode="h" horiz-adv-x="870" 
d="M274 178q0 -45 4 -73t17 -44t36 -23.5t61 -11.5v-26h-377v26q37 5 59.5 12t34 22.5t15 43.5t3.5 74v820q0 28 -3.5 45.5t-13 27t-27 12.5t-45.5 3h-10.5t-10.5 -1v28l48 13q36 10 63.5 18t50.5 15.5t43 14.5t42 15l10 -5v-530q30 39 59.5 67t60 46t64 26t72.5 8
q213 0 213 -277v-346q0 -45 3 -72t14 -42.5t31.5 -23.5t55.5 -14v-26h-368v26q38 4 61 11.5t36 24t17 44t4 72.5v344q0 184 -130 184q-26 0 -49 -6t-46 -18.5t-47 -33.5t-51 -51v-419z" />
    <glyph glyph-name="i" unicode="i" horiz-adv-x="484" 
d="M312 796v-618q0 -47 4 -75.5t17.5 -44.5t38.5 -22.5t68 -9.5v-26h-412v26q45 3 72 9.5t42 22t19.5 44t4.5 76.5v403q0 58 -13 81.5t-45 23.5q-11 -1 -27 -2t-33 -3l-13 -2v26l269 96zM223 1189q19 0 35.5 -7t29 -19t19.5 -28.5t7 -34.5q0 -19 -7 -35t-19.5 -28t-29 -19
t-35.5 -7q-37 0 -62 26t-25 63q0 18 7 34.5t19 28.5t27.5 19t33.5 7z" />
    <glyph glyph-name="j" unicode="j" horiz-adv-x="484" 
d="M336 0q0 -188 -74 -283.5t-220 -95.5q-35 0 -65 7t-52 20t-34.5 30t-12.5 38q0 29 21 48.5t51 19.5q21 0 39.5 -12.5t43.5 -42.5q23 -28 38 -38.5t35 -10.5q17 0 34.5 9t25.5 22q7 13 11.5 29t7.5 40t4 58t1 84v659q0 57 -13 81t-43 24q-14 0 -32 -1.5t-37 -3.5l-9 -2v27
q38 12 71 22.5t64.5 22t64 23.5t71.5 27l9 -5v-796zM247 1189q19 0 35.5 -7t28.5 -19t19 -28.5t7 -34.5q0 -38 -26 -63.5t-64 -25.5q-37 0 -62 26t-25 63q0 18 7 34.5t19 28.5t28 19t33 7z" />
    <glyph glyph-name="k" unicode="k" horiz-adv-x="870" 
d="M12 1113l53 13q38 9 67.5 17t54.5 15.5t47.5 15t47.5 15.5l7 -3v-731l239 211q18 17 29 33t11 27q0 19 -18.5 25t-69.5 8v25h356v-27h-14q-45 0 -81 -10q-20 -6 -48.5 -23t-64.5 -44t-78.5 -63t-89.5 -79l-51 -47l267 -338q27 -33 51.5 -56.5t48.5 -38.5t49 -22.5
t54 -9.5v-26h-379v26h33q15 0 25.5 7.5t10.5 18.5q0 7 -4 15t-15 21q-10 10 -12 17l-249 332v-321q0 -46 21 -65.5t75 -22.5l35 -2v-26h-408v26q47 8 73.5 14.5t39 18t15.5 31t3 53.5v839q0 31 -3.5 51.5t-12.5 32.5t-23.5 17t-35.5 5q-14 0 -26.5 -1t-29.5 -2v28z" />
    <glyph glyph-name="l" unicode="l" horiz-adv-x="484" 
d="M33 1113q45 11 81 20t68.5 18t63 18t64.5 20l7 -3v-1040q0 -36 5 -58.5t19 -35t39.5 -18t66.5 -8.5v-26h-410v26q41 3 67 10t41 21t20.5 36.5t5.5 57.5v831q0 61 -16 83.5t-57 22.5q-11 0 -25.5 -1t-29.5 -2h-10v28z" />
    <glyph glyph-name="m" unicode="m" horiz-adv-x="1354" 
d="M33 722q36 10 66 19t58.5 18.5t57.5 19.5t62 22l12 -4v-131q54 41 92 67.5t68 41.5t55 20.5t54 5.5q72 0 117 -36t68 -111q71 77 139.5 112t144.5 35q202 0 202 -310v-358q0 -53 18 -76.5t57 -26.5l45 -4v-26h-381v26q37 4 60 10.5t35 19.5t16 35.5t4 59.5v367
q0 54 -6.5 91t-22 59.5t-40.5 32.5t-62 10q-60 0 -105.5 -25t-84.5 -82v-438q0 -41 5.5 -67.5t20 -42.5t38.5 -22.5t61 -7.5v-26h-389v26q37 3 60 8.5t36 19t17.5 36t4.5 60.5v378q0 183 -115 183q-23 0 -47.5 -5.5t-48.5 -14.5t-45.5 -22t-37.5 -28q-10 -9 -18 -20t-8 -13
v-492q0 -25 5.5 -42t19 -27t36 -15t57.5 -6v-26h-386v26q36 1 60 7t37.5 20t19 37t5.5 58v440q0 63 -13.5 87.5t-48.5 24.5q-14 0 -26 -1.5t-29 -5.5v29z" />
    <glyph glyph-name="n" unicode="n" horiz-adv-x="870" 
d="M28 722q36 11 66 20t58 18t56 19t60 22l12 -4v-137q45 42 78.5 69t62 43t55.5 22.5t57 6.5q97 0 151 -68t54 -193v-399q0 -32 4.5 -52.5t16.5 -33.5t32.5 -19.5t52.5 -9.5v-26h-362v26q33 3 54 10.5t33.5 24t17.5 43.5t5 69v363q0 88 -31.5 128.5t-95.5 40.5
q-22 0 -41 -4.5t-39 -16t-44 -30.5t-55 -48v-490q0 -23 5.5 -39t18.5 -26.5t35 -16t55 -8.5v-26h-369v26q33 3 54 9.5t33 21t16.5 38t4.5 61.5v432q0 64 -14 88t-50 24q-14 0 -26.5 -1.5t-20.5 -5.5v29z" />
    <glyph glyph-name="o" unicode="o" horiz-adv-x="870" 
d="M435 801q84 0 154.5 -29.5t121.5 -82t79.5 -125t28.5 -157.5q0 -90 -29.5 -167.5t-81.5 -134.5t-123 -89.5t-153 -32.5q-83 0 -153 31t-121 86t-79.5 130t-28.5 164q0 90 28.5 164.5t79.5 128.5t121.5 84t155.5 30zM412 752q-47 0 -84.5 -19.5t-64.5 -55t-41.5 -86
t-14.5 -112.5q0 -81 15 -161.5t46 -144t76.5 -103t107.5 -39.5q49 0 88 21.5t66 62.5t41 99.5t14 132.5q0 89 -18.5 163.5t-51.5 128t-78.5 83.5t-100.5 30z" />
    <glyph glyph-name="p" unicode="p" horiz-adv-x="870" 
d="M15 712q36 11 66.5 21t60 20.5t59.5 22t65 25.5l11 -4v-134q58 72 117 105t134 33q63 0 116.5 -27.5t92 -77t60.5 -117.5t22 -149q0 -95 -28.5 -176.5t-78 -141.5t-116.5 -94.5t-144 -34.5q-27 0 -49.5 3.5t-43 12t-40.5 23t-42 36.5v-274q0 -41 5.5 -66.5t22 -39.5
t46.5 -19t79 -6v-30h-422v28q39 4 63 11t37.5 20t18 34.5t4.5 55.5v814q0 36 -4 56t-14.5 30t-30.5 12t-51 2h-8t-8 -2v28zM277 153q0 -20 16.5 -40t43 -37t58.5 -27.5t63 -10.5q47 0 85.5 23.5t66.5 66t43 102.5t15 132q0 76 -15.5 137.5t-43 105t-67 67.5t-87.5 24
q-30 0 -62 -10.5t-57.5 -27.5t-42 -37.5t-16.5 -39.5v-428z" />
    <glyph glyph-name="q" unicode="q" horiz-adv-x="870" 
d="M721 796h18v-1042q0 -27 4 -44.5t15.5 -29t33 -19t57.5 -15.5v-23h-410v28q46 4 76 11.5t47.5 22t24 38.5t6.5 61v327q-57 -63 -126 -95.5t-147 -32.5q-62 0 -113 27.5t-87.5 77t-57 118t-20.5 151.5q0 94 29.5 175.5t81 141.5t122 94t152.5 34q25 0 48.5 -3t47 -10.5
t48.5 -19.5t55 -30zM593 580q0 174 -161 174q-56 0 -100.5 -23.5t-75.5 -67t-48 -105.5t-17 -138t16 -137t46 -104.5t72 -67t95 -23.5q40 0 79 15t70 40q13 10 18.5 27.5t5.5 50.5v359z" />
    <glyph glyph-name="r" unicode="r" horiz-adv-x="580" 
d="M12 706q39 12 71 22.5t62 22t60 23.5t64 27l10 -4v-160q32 46 58.5 77.5t50.5 50.5t48 27.5t51 8.5q45 0 70.5 -24.5t25.5 -67.5q0 -37 -18 -58t-50 -21q-17 0 -33.5 8t-36.5 27q-14 13 -24 19.5t-21 6.5q-17 0 -38 -14.5t-39.5 -36t-31 -46.5t-12.5 -46v-392
q0 -37 6.5 -61t23 -39t45 -21.5t73.5 -8.5v-26h-419v26q42 8 67 15.5t37.5 20t16.5 32t4 52.5v435q0 58 -14 81.5t-46 23.5q-16 0 -29 -1.5t-32 -5.5v27z" />
    <glyph glyph-name="s" unicode="s" horiz-adv-x="677" 
d="M522 547q-15 58 -33 98.5t-40.5 66t-51.5 37.5t-66 12q-60 0 -97.5 -33t-37.5 -85q0 -36 19.5 -67t55.5 -52l189 -112q77 -46 111.5 -94t34.5 -112q0 -46 -19.5 -86.5t-53 -71t-78 -48t-95.5 -17.5q-19 0 -50 5t-62.5 10.5t-58 10.5t-36.5 5q-15 0 -23 -4t-17 -17h-23
v271h28q9 -37 16.5 -64t16 -48t18.5 -37.5t24 -32.5q25 -29 63 -45t83 -16q67 0 106 34t39 91q0 80 -90 131l-102 57q-56 31 -95 60.5t-63 59.5t-35 62t-11 69q0 47 18 86.5t49.5 68t75 44t95.5 15.5q33 0 62.5 -5t58.5 -16q14 -5 25.5 -8.5t19.5 -3.5t10.5 1.5t15.5 12.5
l4 4h19v-237h-19z" />
    <glyph glyph-name="t" unicode="t" horiz-adv-x="484" 
d="M444 728h-176v-499q0 -82 21 -119t70 -37q29 0 53 14t51 47l22 -19q-43 -69 -93.5 -100.5t-114.5 -31.5q-155 0 -155 221v524h-92q-7 4 -7 11q0 16 29 34q10 3 28.5 19t41.5 41t48.5 57.5t50.5 68.5q10 14 17.5 25.5t17.5 23.5q8 0 10 -4.5t2 -18.5v-201h176v-56z" />
    <glyph glyph-name="u" unicode="u" horiz-adv-x="870" 
d="M834 63q-33 -9 -62.5 -17.5t-57.5 -17.5t-57 -19.5t-62 -23.5l-7 3v145l-75 -75q-37 -37 -83.5 -56t-95.5 -19q-48 0 -86.5 16t-66.5 45.5t-43 71t-15 93.5v439q0 30 -5 50.5t-17.5 33t-33.5 19t-52 8.5v25h254v-568q0 -27 10 -51.5t27 -42.5t39.5 -28.5t48.5 -10.5
q79 0 153 60q18 14 25.5 34.5t7.5 57.5v409q0 33 -5 53.5t-19.5 32.5t-40 17t-65.5 7v30h276v-598q0 -30 4 -49t15.5 -30.5t30.5 -15.5t49 -4h9v-24z" />
    <glyph glyph-name="v" unicode="v" horiz-adv-x="870" 
d="M830 757q-19 -2 -32 -7t-24.5 -19t-24.5 -40t-32 -70l-222 -558q-20 -51 -31 -69.5t-19 -18.5q-11 0 -21 22t-24 61l-209 499q-30 67 -49 106.5t-35 59.5t-32.5 26.5t-41.5 7.5v27h341v-27q-45 -4 -62.5 -14.5t-17.5 -33.5q0 -12 4 -29.5t12 -35.5l177 -446l173 451
q10 26 10 52q0 49 -82 56v27h242v-27z" />
    <glyph glyph-name="w" unicode="w" horiz-adv-x="1257" 
d="M1208 784v-27q-13 -5 -21.5 -10t-15.5 -14.5t-15 -25.5t-20 -44l-239 -602q-11 -26 -18 -43t-12.5 -26.5t-9.5 -13t-10 -3.5q-5 0 -8.5 2.5t-8 11t-10 23t-14.5 38.5l-158 412l-196 -419q-16 -34 -25.5 -51t-17.5 -17q-15 0 -45 77l-235 596q-15 33 -25.5 53.5
t-20.5 32.5t-20.5 17t-25.5 6v27h313v-27q-48 -6 -64.5 -19t-16.5 -43q-1 -12 2.5 -23.5t8.5 -23.5l172 -455l159 347q-23 66 -38.5 107t-31.5 64.5t-35.5 33t-49.5 12.5v27h353v-27q-30 -5 -49.5 -9.5t-31 -11.5t-15.5 -17t-4 -25q0 -8 0.5 -14t3 -15.5t8.5 -26t17 -46.5
l146 -390l157 386q14 35 22 65t8 50q0 23 -16 34t-61 20v27h214z" />
    <glyph glyph-name="x" unicode="x" horiz-adv-x="870" 
d="M484 26q42 2 55.5 10.5t13.5 31.5q0 15 -10 31l-158 244l-138 -214q-35 -53 -35 -71q0 -17 16.5 -24.5t53.5 -7.5v-26h-252v26q22 2 37 6t28.5 13t27.5 26t33 44l199 287l-164 251q-20 30 -36 50t-31 32t-31 17t-35 5h-16v27h360v-27q-39 -1 -57 -10.5t-18 -27.5
q0 -17 22 -58.5t58 -96.5l25 -34q30 46 52 76t36 50.5t21 34.5t7 28q0 18 -15 27t-54 11v27h275v-27q-42 -1 -79 -21t-62 -55l-145 -209l223 -341q20 -29 37 -49t34 -32.5t34.5 -18t37.5 -5.5v-26h-350v26z" />
    <glyph glyph-name="y" unicode="y" horiz-adv-x="870" 
d="M827 757q-16 -2 -27.5 -6.5t-21 -13.5t-18 -23t-17.5 -35l-268 -710q-35 -94 -69 -160t-69.5 -108t-74 -61t-81.5 -19q-27 0 -51 7.5t-41 21t-27 32t-10 39.5q0 32 22.5 54.5t52.5 22.5q21 0 44.5 -4.5t47.5 -14.5q13 -5 23 -8.5t18 -3.5q18 0 44 20t46 58q11 18 23 46.5
t22.5 57t17.5 52t7 32.5q0 20 -20 65t-57 111l-26 52l-5 14l-199 428q-21 46 -88 56v25h358v-27q-57 -2 -79 -12.5t-22 -33.5q0 -28 17 -67l201 -440l168 480l5.5 16.5t2.5 13.5q0 43 -84 43v27h235v-27z" />
    <glyph glyph-name="z" unicode="z" horiz-adv-x="773" 
d="M703 0h-656v26l463 705h-241q-39 0 -64 -6t-41.5 -23t-25.5 -46.5t-15 -77.5h-30v206h608v-27l-468 -705h240q67 0 111 11.5t62 34.5q8 10 14.5 21.5t12.5 28t11.5 39t11.5 55.5l32 -7z" />
    <glyph glyph-name="braceleft" unicode="{" horiz-adv-x="836" 
d="M609 -315q-43 0 -74.5 2.5t-55.5 7.5t-43 13.5t-37 20.5q-37 24 -57 74.5t-20 125.5v308q0 45 -6.5 76.5t-23.5 54t-45.5 38t-72.5 29.5q44 13 72.5 28.5t45.5 37.5t23.5 53.5t6.5 77.5v310q0 71 14.5 117t48.5 73t89 38.5t135 13.5v-20q-45 -12 -75.5 -28.5t-49 -41
t-26.5 -60t-8 -84.5v-292q0 -54 -7 -91t-25.5 -62.5t-50 -42t-80.5 -29.5q49 -12 80.5 -28t50 -41t25.5 -62t7 -91v-293q0 -49 8 -84t26.5 -60t49 -41.5t75.5 -28.5v-19z" />
    <glyph glyph-name="bar" unicode="|" horiz-adv-x="348" 
d="M116 1176h115v-1201h-115v1201z" />
    <glyph glyph-name="braceright" unicode="}" horiz-adv-x="836" 
d="M226 1184q44 -1 75.5 -3.5t55.5 -7.5t43 -13t37 -20q36 -23 56 -74t20 -126v-308q0 -46 6.5 -77.5t23.5 -53.5t45.5 -37.5t72.5 -28.5q-44 -14 -72.5 -29.5t-45.5 -37.5t-23.5 -53.5t-6.5 -77.5v-310q0 -152 -76 -198q-19 -12 -38 -20t-43 -13.5t-55.5 -8t-74.5 -2.5v19
q45 12 75.5 28.5t49 41.5t26.5 60t8 84v293q0 54 7 91t25.5 62t50 41.5t80.5 29.5q-49 12 -80.5 28t-50 41t-25.5 62t-7 92v292q0 49 -8 84.5t-26.5 60t-49 41t-75.5 28.5v20z" />
    <glyph glyph-name="asciitilde" unicode="~" horiz-adv-x="942" 
d="M874 472q-30 -42 -56 -70.5t-51.5 -45.5t-51 -24.5t-55.5 -7.5t-53 3t-51 13t-65.5 28.5t-95.5 49.5q-23 12 -50 18t-53 6q-20 0 -36 -4.5t-31 -14.5t-29.5 -27t-31.5 -42l-94 55q30 42 55.5 70t51 45.5t51.5 25t56 7.5q29 0 52 -3t51 -13t65.5 -28.5t95.5 -49.5
q23 -13 49.5 -18.5t53.5 -5.5q19 0 35.5 4t31.5 14.5t30 27.5t32 43z" />
    <glyph glyph-name="cent" unicode="&#xa2;" horiz-adv-x="693" 
d="M365 -18l39 194q-262 19 -262 179q0 104 100 179.5t250 87.5l35 177h45l-35 -177q100 -5 178 -21l-26 -130h-45q0 6 1 17q3 21 3 29q0 55 -120 61l-69 -349q108 0 202 51l-11 -51q-106 -53 -202 -53l-39 -194h-44zM415 232l69 346q-212 -31 -212 -195q0 -128 143 -151z
" />
    <glyph glyph-name="sterling" unicode="&#xa3;" horiz-adv-x="874" 
d="M17 0l92 88h13q107 0 150.5 48.5t74.5 206.5l9 48h-160l9 45h160l13 63q29 143 118.5 222t221.5 79q79 0 174 -35l-34 -179h-50l2 12q2 10 2 22q0 126 -133 126q-65 0 -94.5 -36t-49.5 -141l-27 -133h240l-9 -45h-240l-7 -32q-19 -94 -64.5 -151t-152.5 -120h205
q137 0 199 14.5t140 64.5l-11 -54q-73 -78 -142.5 -105.5t-195.5 -27.5l-28 1z" />
    <glyph glyph-name="currency" unicode="&#xa4;" horiz-adv-x="932" 
d="M769 322l110 -138l-38 -31l-109 139q-116 -78 -228 -78q-110 0 -194 78l-165 -139l-25 31l166 138q-43 75 -43 148q0 143 126 273l-110 139l38 31l110 -138q114 77 227 77q110 0 194 -77l166 138l25 -31l-167 -139q43 -75 43 -147q0 -141 -126 -274zM818 579
q0 87 -56 142.5t-142 55.5q-118 0 -209 -89t-91 -203q0 -85 56.5 -140.5t142.5 -55.5q116 0 207.5 88.5t91.5 201.5z" />
    <glyph glyph-name="yen" unicode="&#xa5;" horiz-adv-x="965" 
d="M156 0l91 99q22 -2 32 -2q136 0 198 160h-205l8 44h209q6 45 10 108h-198l9 44h189v17q0 97 -35.5 161t-88.5 64t-125 -57t-111 -129l-33 25q66 116 162.5 190.5t183.5 74.5q160 0 160 -281l-1 -46q125 327 360 327q74 0 129 -34l-84 -112q-49 31 -101 31
q-173 0 -264 -231h184l-9 -44h-183l-9 -40q-7 -34 -25 -68h196l-9 -44h-211q-66 -119 -196 -166l235 -14l-90 -95z" />
    <glyph glyph-name="brokenbar" unicode="&#xa6;" horiz-adv-x="355" 
d="M86 -213l117 586h98l-117 -586h-98zM238 551l117 586h98l-116 -586h-99z" />
    <glyph glyph-name="section" unicode="&#xa7;" horiz-adv-x="932" 
d="M107 -153l125 73q116 -98 249 -98q83 0 140.5 50.5t57.5 122.5q0 53 -33.5 85.5t-132.5 79.5l-73 33q-193 90 -193 216q0 119 162 243q-81 65 -81 163q0 123 112 200.5t287 77.5q87 0 206 -33l-36 -181h-44q4 25 4 37q0 123 -205 123q-92 0 -151.5 -52t-59.5 -134
q0 -55 25 -78.5t147 -88.5l61 -34q180 -99 180 -208q0 -125 -151 -244q98 -64 98 -160q0 -115 -116.5 -193t-287.5 -78q-153 0 -290 78zM667 229q80 90 80 165q0 76 -119 133l-70 35q-63 31 -113 63q-90 -80 -90 -169q0 -74 119 -130l97 -47q36 -16 96 -50z" />
    <glyph glyph-name="dieresis" unicode="&#xa8;" horiz-adv-x="862" 
d="M495 923l-87 110l112 86l87 -116zM841 923l-89 112l114 84l85 -115z" />
    <glyph glyph-name="copyright" unicode="&#xa9;" horiz-adv-x="1244" 
d="M725 -27q-230 0 -394.5 164t-164.5 396t164.5 396t394.5 164q233 0 397 -164t164 -396t-164 -396t-397 -164zM725 18q214 0 365 151t151 364t-151 364t-365 151q-212 0 -363 -151t-151 -364t151 -364t363 -151zM890 246q-105 -33 -186 -33q-124 0 -196 66.5t-72 182.5
q0 163 105 272.5t264 109.5q91 0 198 -30l-36 -139l-52 9l8 82q-69 32 -131 32q-104 0 -176 -98t-72 -238q0 -191 178 -191q101 0 180 36z" />
    <glyph glyph-name="guillemotleft" unicode="&#xab;" horiz-adv-x="748" 
d="M747 -70q-9 -11 -56 -48q-229 200 -229 405q0 207 228 406q36 -22 57 -46q-174 -193 -174 -360q0 -168 174 -357zM469 -70q-7 -11 -53 -48q-229 197 -229 405q0 211 229 405q35 -21 53 -45q-170 -192 -170 -360t170 -357z" />
    <glyph glyph-name="logicalnot" unicode="&#xac;" horiz-adv-x="932" 
d="M177 510l16 80h782l-69 -342h-92l52 262h-689z" />
    <glyph glyph-name="registered" unicode="&#xae;" horiz-adv-x="897" 
d="M580 445q-132 0 -225.5 93.5t-93.5 225.5t93.5 226t225.5 94q134 0 227 -94t93 -226t-93.5 -225.5t-226.5 -93.5zM580 484q115 0 197.5 83t82.5 197t-82.5 197t-197.5 83q-114 0 -196.5 -83t-82.5 -197t82.5 -197t196.5 -83zM529 737l-28 -141h-107l9 43h53l55 276h-53
l8 44h132q153 0 153 -84q0 -75 -101 -125l35 -111h62l-9 -43h-97l-50 141h-62zM538 782h36q123 0 123 84q0 49 -90 49h-43z" />
    <glyph glyph-name="macron" unicode="&#xaf;" horiz-adv-x="1118" 
d="M1134 1659h-1150v130h1150v-130z" />
    <glyph glyph-name="degree" unicode="&#xb0;" horiz-adv-x="409" 
d="M395 844q-51 0 -87.5 36t-36.5 88q0 53 36.5 89t87.5 36q52 0 88 -36t36 -89q0 -52 -36 -88t-88 -36zM395 888q32 0 55.5 24t23.5 56t-23.5 56t-55.5 24t-56 -24t-24 -56t24 -56t56 -24z" />
    <glyph glyph-name="plusminus" unicode="&#xb1;" horiz-adv-x="932" 
d="M76 0l16 80h781l-15 -80h-782zM469 213l56 280h-351l15 80h352l55 279h80l-55 -279h350l-15 -80h-351l-56 -280h-80z" />
    <glyph glyph-name="twosuperior" unicode="&#xb2;" horiz-adv-x="596" 
d="M187 516l20 101q155 95 247.5 186.5t92.5 148.5q0 94 -84 94q-111 0 -132 -118h-53l26 131q96 34 180 34q190 0 190 -134q0 -72 -49.5 -117t-327.5 -225h310l-20 -101h-400z" />
    <glyph glyph-name="threesuperior" unicode="&#xb3;" horiz-adv-x="596" 
d="M185 545l72 75q80 -64 161 -64q42 0 72.5 31t30.5 74q0 115 -176 115q-22 0 -44 -3l30 86q19 1 34 1q47 0 101 -11q81 37 81 112q0 85 -93 85q-89 0 -112 -105h-53l22 116q87 36 173 36q178 0 178 -109q0 -91 -142 -155q105 -39 105 -136q0 -77 -70.5 -130t-176.5 -53
q-89 0 -193 35z" />
    <glyph glyph-name="acute" unicode="&#xb4;" horiz-adv-x="256" 
d="M118 999q77 84 74 47q-9 -32 -56.5 -122t-69.5 -122q-11 -6 -4 46q21 71 56 151z" />
    <glyph glyph-name="mu1" unicode="&#xb5;" horiz-adv-x="992" 
d="M100 -302l55 226l115 576q12 60 12 111q0 82 -76 171l162 8q59 -50 59 -167q0 -47 -18 -142l-54 -268q-8 -37 -8 -52q0 -55 44 -55q55 0 162.5 123t199.5 290l52 263l153 8l-53 -221l-71 -356q-16 -81 -16 -107q0 -53 43 -53q70 0 214 165l-13 -67q-157 -169 -283 -169
q-104 0 -104 109q0 37 17 122l35 178h-10q-200 -391 -405 -391l-57 -284z" />
    <glyph glyph-name="paragraph" unicode="&#xb6;" horiz-adv-x="932" 
d="M365 -239l146 735q-270 46 -270 251q0 129 105.5 221t281.5 117l32 159h44l-31 -159l30 1q41 0 93 -6l32 164h45l-34 -173q52 -14 109 -35l-10 -48q-40 17 -108 36l-88 -438q52 17 127 57l-10 -57q-65 -37 -127 -56l-154 -769h-44l150 753q-87 -18 -128 -18l-147 -735
h-44zM695 568l92 463q-49 9 -83 9q-13 0 -40 -1l-97 -486q58 0 128 15z" />
    <glyph glyph-name="periodcentered" unicode="&#xb7;" horiz-adv-x="724" 
d="M482 832h-239v285h239v-285z" />
    <glyph glyph-name="cedilla" unicode="&#xb8;" horiz-adv-x="862" 
d="M456 0l-42 -64q71 -22 71 -83q0 -51 -56.5 -94t-125.5 -43q-31 0 -66 7l55 76q34 -22 60 -22q64 0 64 52q0 59 -98 59l76 112h62z" />
    <glyph glyph-name="onesuperior" unicode="&#xb9;" horiz-adv-x="596" 
d="M573 1093l-86 -436q-11 -50 -11 -68q0 -19 56 -26l59 -3l-9 -44h-372l8 44l61 3q49 4 58.5 15t24.5 79l56 281q5 22 5 40q0 26 -68 35l-45 8l9 45z" />
    <glyph glyph-name="guillemotright" unicode="&#xbb;" horiz-adv-x="747" 
d="M185 -70q173 189 173 357q0 167 -173 360q20 24 57 46q227 -199 227 -406q0 -205 -228 -405q-47 37 -56 48zM462 -70q170 189 170 357t-170 360q19 24 54 45q229 -194 229 -405q0 -208 -229 -405q-46 37 -54 48z" />
    <glyph glyph-name="onequarter" unicode="&#xbc;" horiz-adv-x="1262" 
d="M546 1093l-86 -436q-10 -51 -10 -68q0 -19 56 -26l59 -3l-9 -44h-373l9 44l61 3q48 4 58 15t25 79l55 281q5 22 5 40q0 26 -68 35l-45 8l9 45zM178 -27l1020 1120h100l-1023 -1120h-97zM981 164l-249 18l15 79l355 317h68l-68 -342l110 -7l-44 -80l-82 8q-10 -55 -10 -83
q0 -22 53 -25l60 -4l-9 -45h-360l9 45l57 4q51 3 66 15t21 53q3 17 8 47zM997 244l41 202l-215 -191z" />
    <glyph glyph-name="onehalf" unicode="&#xbd;" horiz-adv-x="1262" 
d="M528 1093l-86 -436q-10 -51 -10 -68q0 -19 56 -26l59 -3l-9 -44h-373l9 44l61 3q48 4 58 15t25 79l55 281q5 22 5 40q0 26 -68 35l-45 8l9 45zM160 -27l1020 1120h100l-1023 -1120h-97zM778 0l19 103q155 94 248 185t93 148q0 94 -85 94q-111 0 -131 -117h-54l27 131
q94 34 180 34q189 0 189 -133q0 -72 -49.5 -117t-327.5 -225h310l-20 -103h-399z" />
    <glyph glyph-name="threequarters" unicode="&#xbe;" horiz-adv-x="1262" 
d="M174 545l73 75q79 -64 160 -64q41 0 71.5 31t30.5 74q0 115 -176 115q-22 0 -44 -3l30 86q19 1 36 1q46 0 100 -11q80 37 80 112q0 85 -93 85q-88 0 -112 -105h-53l24 116q86 36 171 36q179 0 179 -109q0 -91 -143 -155q106 -39 106 -136q0 -77 -71 -130t-177 -53
q-89 0 -192 35zM178 -27l1020 1120h100l-1023 -1120h-97zM981 164l-249 18l15 79l355 317h68l-68 -342l110 -7l-44 -80l-82 8q-10 -55 -10 -83q0 -22 53 -25l60 -4l-9 -45h-360l9 45l57 4q52 3 66.5 15t20.5 53q3 17 8 47zM997 244l41 202l-215 -191z" />
    <glyph glyph-name="multiply" unicode="&#xd7;" horiz-adv-x="820" 
d="M330 397l-184 184l94 94l184 -184l187 187l94 -94l-187 -187l193 -193l-94 -94l-193 193l-186 -186l-94 94z" />
    <glyph glyph-name="agrave" unicode="&#xe0;" horiz-adv-x="1075" 
d="M856 70q-23 -26 -42 -42.5t-36.5 -26.5t-36 -14t-41.5 -4q-54 0 -79.5 29t-32.5 98q-40 -34 -73.5 -58t-64 -39.5t-59 -22.5t-57.5 -7q-40 0 -73.5 13.5t-57.5 38t-37.5 59t-13.5 75.5q0 43 16.5 84t45.5 67q19 17 35 30t35 24.5t43.5 24t60 27.5t84 35t115.5 47v107
q0 72 -34.5 108t-98.5 36q-26 0 -49 -6.5t-40 -18t-26.5 -27t-9.5 -33.5q0 -15 4.5 -37t4.5 -33q0 -15 -6.5 -28t-17 -23t-25 -16t-29.5 -6q-30 0 -52.5 22.5t-22.5 52.5q0 41 22.5 76.5t62 62t92.5 41.5t115 15q157 0 216 -96q19 -31 27 -73t8 -110v-339q0 -58 11 -79.5
t41 -21.5q20 0 36.5 7t39.5 26v-45zM587 467q-79 -29 -133 -56t-87 -55.5t-47.5 -60.5t-14.5 -71v-6q0 -28 8.5 -52.5t23 -43t34.5 -29t43 -10.5q26 0 61 10.5t67 29.5q13 7 21.5 15t13.5 18t7.5 24t2.5 34v253zM641 538l-269 169q-23 17 -36.5 35.5t-13.5 39.5q0 25 16 40
t44 15q18 0 33.5 -9t39.5 -32l256 -258h-70z" />
    <glyph glyph-name="acircumflex" unicode="&#xe2;" horiz-adv-x="698" 
d="M856 70q-23 -26 -42 -42.5t-36.5 -26.5t-36 -14t-41.5 -4q-54 0 -79.5 29t-32.5 98q-40 -34 -73.5 -58t-64 -39.5t-59 -22.5t-57.5 -7q-40 0 -73.5 13.5t-57.5 38t-37.5 59t-13.5 75.5q0 43 16.5 84t45.5 67q19 17 35 30t35 24.5t43.5 24t60 27.5t84 35t115.5 47v107
q0 72 -34.5 108t-98.5 36q-26 0 -49 -6.5t-40 -18t-26.5 -27t-9.5 -33.5q0 -15 4.5 -37t4.5 -33q0 -15 -6.5 -28t-17 -23t-25 -16t-29.5 -6q-30 0 -52.5 22.5t-22.5 52.5q0 41 22.5 76.5t62 62t92.5 41.5t115 15q157 0 216 -96q19 -31 27 -73t8 -110v-339q0 -58 11 -79.5
t41 -21.5q20 0 36.5 7t39.5 26v-45zM587 467q-79 -29 -133 -56t-87 -55.5t-47.5 -60.5t-14.5 -71v-6q0 -28 8.5 -52.5t23 -43t34.5 -29t43 -10.5q26 0 61 10.5t67 29.5q13 7 21.5 15t13.5 18t7.5 24t2.5 34v253zM877 665l-87 -53q-54 61 -90 159q-41 -50 -119 -129
q-3 -4 -21 -22l-101 -8q155 114 222 197l98 62q33 -113 98 -206z" />
    <glyph glyph-name="ccedilla" unicode="&#xe7;" horiz-adv-x="805" 
d="M775 198l-11 -56q-148 -105 -319 -151l-37 -56q73 -21 73 -81q0 -51 -56.5 -94.5t-123.5 -43.5q-29 0 -69 7l55 76q35 -22 61 -22q64 0 64 51q0 55 -101 61l65 92q-231 24 -231 247q0 217 157 394t350 177q84 0 167 -37l-49 -184h-45l3 11q7 33 7 49q0 99 -136 99
q-124 0 -216.5 -142t-92.5 -332q0 -201 156 -201q117 0 329 136z" />
    <glyph glyph-name="egrave" unicode="&#xe8;" horiz-adv-x="1078" 
d="M738 274q-55 -145 -148.5 -218t-220.5 -73q-75 0 -135.5 27t-102.5 77.5t-65 122.5t-23 162q0 99 28.5 178.5t77.5 135t115.5 85.5t142.5 30q69 0 126.5 -26t96.5 -74q16 -20 28 -41t20.5 -46.5t15 -57.5t11.5 -74h-536q3 -95 24 -166.5t56.5 -118.5t84 -70.5
t106.5 -23.5q42 0 77.5 10t68 31.5t63 56.5t62.5 85zM528 538q-9 57 -22 95t-32.5 61.5t-48 33.5t-68.5 10q-81 0 -125.5 -48.5t-58.5 -151.5h355zM776 882l-269 169q-23 17 -36.5 35.5t-13.5 39.5q0 25 16 40t44 15q18 0 33.5 -9t39.5 -32l256 -258h-70z" />
    <glyph glyph-name="eacute" unicode="&#xe9;" horiz-adv-x="1078" 
d="M738 274q-55 -145 -148.5 -218t-220.5 -73q-75 0 -135.5 27t-102.5 77.5t-65 122.5t-23 162q0 99 28.5 178.5t77.5 135t115.5 85.5t142.5 30q69 0 126.5 -26t96.5 -74q16 -20 28 -41t20.5 -46.5t15 -57.5t11.5 -74h-536q3 -95 24 -166.5t56.5 -118.5t84 -70.5
t106.5 -23.5q42 0 77.5 10t68 31.5t63 56.5t62.5 85zM528 538q-9 57 -22 95t-32.5 61.5t-48 33.5t-68.5 10q-81 0 -125.5 -48.5t-58.5 -151.5h355zM479 999q77 84 74 47q-9 -32 -56.5 -122t-69.5 -122q-11 -6 -4 46q21 71 56 151z" />
    <glyph glyph-name="ecircumflex" unicode="&#xea;" horiz-adv-x="1078" 
d="M738 274q-55 -145 -148.5 -218t-220.5 -73q-75 0 -135.5 27t-102.5 77.5t-65 122.5t-23 162q0 99 28.5 178.5t77.5 135t115.5 85.5t142.5 30q69 0 126.5 -26t96.5 -74q16 -20 28 -41t20.5 -46.5t15 -57.5t11.5 -74h-536q3 -95 24 -166.5t56.5 -118.5t84 -70.5
t106.5 -23.5q42 0 77.5 10t68 31.5t63 56.5t62.5 85zM528 538q-9 57 -22 95t-32.5 61.5t-48 33.5t-68.5 10q-81 0 -125.5 -48.5t-58.5 -151.5h355zM963 976l-87 -53q-54 61 -90 159q-41 -50 -119 -129q-3 -4 -21 -22l-101 -8q155 114 222 197l98 62q33 -113 98 -206z" />
    <glyph glyph-name="edieresis" unicode="&#xeb;" horiz-adv-x="1078" 
d="M738 274q-55 -145 -148.5 -218t-220.5 -73q-75 0 -135.5 27t-102.5 77.5t-65 122.5t-23 162q0 99 28.5 178.5t77.5 135t115.5 85.5t142.5 30q69 0 126.5 -26t96.5 -74q16 -20 28 -41t20.5 -46.5t15 -57.5t11.5 -74h-536q3 -95 24 -166.5t56.5 -118.5t84 -70.5
t106.5 -23.5q42 0 77.5 10t68 31.5t63 56.5t62.5 85zM528 538q-9 57 -22 95t-32.5 61.5t-48 33.5t-68.5 10q-81 0 -125.5 -48.5t-58.5 -151.5h355zM364 972l-87 110l112 86l87 -116zM710 972l-89 112l114 84l85 -115z" />
    <glyph glyph-name="icircumflex" unicode="&#xee;" horiz-adv-x="468" 
d="M328 0h-188v1117h188v-1117zM521 1297h-151l-139 263l-138 -263h-147l174 379h227z" />
    <glyph glyph-name="idieresis" unicode="&#xef;" horiz-adv-x="468" 
d="M328 0h-188v1117h188v-1117zM506 1304h-189v195h189v-195zM151 1304h-189v195h189v-195z" />
    <glyph glyph-name="ocircumflex" unicode="&#xf4;" horiz-adv-x="1024" 
d="M435 801q84 0 154.5 -29.5t121.5 -82t79.5 -125t28.5 -157.5q0 -90 -29.5 -167.5t-81.5 -134.5t-123 -89.5t-153 -32.5q-83 0 -153 31t-121 86t-79.5 130t-28.5 164q0 90 28.5 164.5t79.5 128.5t121.5 84t155.5 30zM412 752q-47 0 -84.5 -19.5t-64.5 -55t-41.5 -86
t-14.5 -112.5q0 -81 15 -161.5t46 -144t76.5 -103t107.5 -39.5q49 0 88 21.5t66 62.5t41 99.5t14 132.5q0 89 -18.5 163.5t-51.5 128t-78.5 83.5t-100.5 30zM673 1077l-87 -53q-54 61 -90 159q-41 -50 -119 -129q-3 -4 -21 -22l-101 -8q155 114 222 197l98 62
q33 -113 98 -206z" />
    <glyph glyph-name="divide" unicode="&#xf7;" horiz-adv-x="1093" 
d="M624 674h-158v181h158v-181zM933 383h-776v106h776v-106zM624 17h-158v181h158v-181z" />
    <glyph glyph-name="ugrave" unicode="&#xf9;" horiz-adv-x="1142" 
d="M834 63q-33 -9 -62.5 -17.5t-57.5 -17.5t-57 -19.5t-62 -23.5l-7 3v145l-75 -75q-37 -37 -83.5 -56t-95.5 -19q-48 0 -86.5 16t-66.5 45.5t-43 71t-15 93.5v439q0 30 -5 50.5t-17.5 33t-33.5 19t-52 8.5v25h254v-568q0 -27 10 -51.5t27 -42.5t39.5 -28.5t48.5 -10.5
q79 0 153 60q18 14 25.5 34.5t7.5 57.5v409q0 33 -5 53.5t-19.5 32.5t-40 17t-65.5 7v30h276v-598q0 -30 4 -49t15.5 -30.5t30.5 -15.5t49 -4h9v-24zM778 882l-269 169q-23 17 -36.5 35.5t-13.5 39.5q0 25 16 40t44 15q18 0 33.5 -9t39.5 -32l256 -258h-70z" />
    <glyph glyph-name="ucircumflex" unicode="&#xfb;" horiz-adv-x="1142" 
d="M834 63q-33 -9 -62.5 -17.5t-57.5 -17.5t-57 -19.5t-62 -23.5l-7 3v145l-75 -75q-37 -37 -83.5 -56t-95.5 -19q-48 0 -86.5 16t-66.5 45.5t-43 71t-15 93.5v439q0 30 -5 50.5t-17.5 33t-33.5 19t-52 8.5v25h254v-568q0 -27 10 -51.5t27 -42.5t39.5 -28.5t48.5 -10.5
q79 0 153 60q18 14 25.5 34.5t7.5 57.5v409q0 33 -5 53.5t-19.5 32.5t-40 17t-65.5 7v30h276v-598q0 -30 4 -49t15.5 -30.5t30.5 -15.5t49 -4h9v-24zM692 1086l-87 -53q-54 61 -90 159q-41 -50 -119 -129q-3 -4 -21 -22l-101 -8q155 114 222 197l98 62q33 -113 98 -206z" />
    <glyph glyph-name="udieresis" unicode="&#xfc;" horiz-adv-x="1142" 
d="M834 63q-33 -9 -62.5 -17.5t-57.5 -17.5t-57 -19.5t-62 -23.5l-7 3v145l-75 -75q-37 -37 -83.5 -56t-95.5 -19q-48 0 -86.5 16t-66.5 45.5t-43 71t-15 93.5v439q0 30 -5 50.5t-17.5 33t-33.5 19t-52 8.5v25h254v-568q0 -27 10 -51.5t27 -42.5t39.5 -28.5t48.5 -10.5
q79 0 153 60q18 14 25.5 34.5t7.5 57.5v409q0 33 -5 53.5t-19.5 32.5t-40 17t-65.5 7v30h276v-598q0 -30 4 -49t15.5 -30.5t30.5 -15.5t49 -4h9v-24zM299 1009l-87 110l112 86l87 -116zM645 1009l-89 112l114 84l85 -115z" />
    <glyph glyph-name="dotlessi" unicode="&#x131;" horiz-adv-x="468" 
 />
    <glyph glyph-name="OE" unicode="&#x152;" horiz-adv-x="1477" 
d="M816 0l15 70q-120 -97 -282 -97q-178 0 -280 108t-102 297q0 283 191 499t441 216q132 0 218 -86l12 59h564l-64 -204h-45q6 29 6 51q0 56 -65.5 77.5t-237.5 21.5h-22l-83 -426h320l-73 -74q-164 21 -222 21h-36l-59 -315q-10 -51 -10 -62q0 -76 226 -76q120 0 225 80
l-11 -57q-124 -126 -239 -126q-20 0 -42 2zM888 361l73 362q13 63 13 118q0 92 -57.5 149.5t-147.5 57.5q-165 0 -302.5 -204t-137.5 -449q0 -177 67.5 -277.5t188.5 -100.5q233 0 303 344z" />
    <glyph glyph-name="oe" unicode="&#x153;" horiz-adv-x="1350" 
d="M706 145q-171 -163 -336 -163q-97 0 -161 73t-64 182q0 211 157.5 386.5t347.5 175.5q144 0 209 -169q166 169 324 169q63 0 103.5 -41t40.5 -107q0 -143 -134.5 -237t-351.5 -103l-1 -33q0 -212 158 -212q115 0 329 134l-11 -54q-233 -164 -399 -164q-159 0 -211 163z
M431 35q113 0 205 143.5t92 320.5q0 108 -39 173t-105 65q-112 0 -202 -143t-90 -322q0 -237 139 -237zM844 355q160 13 253.5 83.5t93.5 181.5q0 113 -81 113q-86 0 -168.5 -117t-97.5 -261z" />
    <glyph glyph-name="uni04D8" unicode="&#x18f;" horiz-adv-x="1449" 
 />
    <glyph glyph-name="florin" unicode="&#x192;" horiz-adv-x="679" 
d="M158 -231l52 213l76 382h-178l9 45h177l4 18q32 159 165 265.5t298 106.5q57 0 99 -15l-96 -106q-52 51 -121 51q-143 0 -186 -217l-21 -103h187l-9 -45h-187l-114 -577z" />
    <glyph glyph-name="uni04D9" unicode="&#x259;" horiz-adv-x="1078" 
 />
    <glyph glyph-name="circumflex" unicode="&#x2c6;" horiz-adv-x="862" 
d="M870 976l-87 -53q-54 61 -90 159q-41 -50 -119 -129q-3 -4 -21 -22l-101 -8q155 114 222 197l98 62q33 -113 98 -206z" />
    <glyph glyph-name="gravecomb" unicode="&#x300;" 
 />
    <glyph glyph-name="acutecomb" unicode="&#x301;" 
 />
    <glyph glyph-name="uni040d" unicode="&#x400;" horiz-adv-x="1149" 
 />
    <glyph glyph-name="uni045D" unicode="&#x40d;" horiz-adv-x="1372" 
 />
    <glyph glyph-name="uni0400" unicode="&#x450;" horiz-adv-x="1078" 
 />
    <glyph glyph-name="uni0450" unicode="&#x45d;" horiz-adv-x="1154" 
 />
    <glyph glyph-name="doublevav" unicode="&#x5f0;" horiz-adv-x="1122" 
 />
    <glyph glyph-name="doubleyod" unicode="&#x5f2;" horiz-adv-x="1122" 
 />
    <glyph glyph-name="afii57388" unicode="&#x60c;" horiz-adv-x="455" 
d="M313 408l6 -50q-28 -22 -57.5 -62t-29.5 -104q0 -15 7 -26q5 -7 11 -7q9 0 38 16q15 7 31 7q39 0 62 -23t23 -64q0 -39 -30 -67t-73 -28q-53 0 -94 46t-41 122q-1 75 53 147.5t94 92.5z" />
    <glyph glyph-name="afii57403" unicode="&#x61b;" horiz-adv-x="417" 
d="M256 2q36 0 62 25.5t26 62.5t-26 63t-62 26q-37 0 -63 -26t-26 -63t26 -62.5t63 -25.5zM271 814l6 -50q-28 -22 -57.5 -62t-29.5 -104q0 -15 7 -26q5 -7 11 -7q9 0 38 16q15 7 31 7q39 0 62 -23t23 -64q0 -39 -30 -67t-73 -28q-53 0 -94 46t-41 122q-1 75 53 147.5
t94 92.5z" />
    <glyph glyph-name="afii57407" unicode="&#x61f;" horiz-adv-x="987" 
d="M902 875l-119 -20q-45 186 -234 186q-81 0 -139.5 -59t-58.5 -140q0 -64 49 -131q38 -52 132 -134l80 -69q79 -79 76 -253h-123q-2 56 -3 64q-3 24 -16 55q-22 51 -119 129q-106 85 -107 86q-53 47 -88.5 104t-35.5 138q0 156 109 257q106 97 264 97q141 0 237.5 -85
t95.5 -225zM706 -38h-176v176h176v-176z" />
    <glyph glyph-name="afii57409" unicode="&#x621;" horiz-adv-x="891" 
d="M806 153l-612 -158v103l159 64q-67 65 -67 165q0 90 65.5 159.5t155.5 69.5q132 0 201 -79l-40 -98q-92 51 -157 51q-41 0 -80 -22q-46 -26 -46 -64q0 -60 69 -91q52 -24 120 -24q30 0 232 56v-132z" />
    <glyph glyph-name="afii52400" unicode="&#x622;" horiz-adv-x="473" 
d="M327 29l-101 -28l-32 1217l133 51v-1240zM594 1477q-35 -56 -94 -93q-63 -40 -126 -40q-38 0 -112.5 13t-111.5 13q-64 0 -126 -47l-61 72q78 84 167 84q36 0 108 -11.5t109 -11.5q112 0 208 88z" />
    <glyph glyph-name="afii57411" unicode="&#x623;" horiz-adv-x="365" 
d="M278 29l-101 -28l-32 1217l133 51v-1240zM378 1414l-384 -98v67l99 41q-50 49 -50 97q0 56 46.5 102.5t102.5 46.5q67 0 116 -38l-24 -57q-44 15 -95 15q-25 0 -52 -14q-32 -17 -32 -40q0 -69 119 -69q16 0 154 42v-95z" />
    <glyph glyph-name="afii57412" unicode="&#x624;" horiz-adv-x="663" 
d="M615 223q0 -212 -142 -388q-129 -159 -337 -248l-94 105q203 110 292 188q138 121 163 272q-60 -39 -145 -39q-84 0 -134 41q-55 45 -55 127q0 108 58 207q64 110 152 110q119 0 187 -134q55 -108 55 -241zM472 287q-8 156 -111 156q-36 0 -63 -39q-24 -35 -24 -72
q0 -78 98 -78q52 0 100 33zM535 828l-384 -98v67l99 41q-50 49 -50 97q0 56 46.5 102.5t102.5 46.5q67 0 116 -38l-24 -57q-44 15 -95 15q-25 0 -52 -14q-32 -17 -32 -40q0 -69 119 -69q16 0 154 42v-95z" />
    <glyph glyph-name="afii57413" unicode="&#x625;" horiz-adv-x="350" 
d="M263 29l-101 -28l-32 1217l133 51v-1240zM378 -383l-384 -98v67l99 41q-50 49 -50 97q0 56 46.5 102.5t102.5 46.5q67 0 116 -38l-24 -57q-44 15 -95 15q-25 0 -52 -14q-32 -17 -32 -40q0 -69 119 -69q16 0 154 42v-95z" />
    <glyph glyph-name="afii57414" unicode="&#x626;" horiz-adv-x="1330" 
d="M1291 660l-49 -132q-48 21 -113 21q-96 0 -199 -66q-109 -70 -131 -158q-2 -8 -2 -19q0 -46 62 -52.5t209 -21.5q181 -21 181 -169q0 -151 -224 -283q-214 -126 -428 -126q-209 0 -329 94q-132 103 -132 305q0 174 91 319l98 -43q-69 -122 -69 -233q0 -292 363 -292
q122 0 258 46q141 48 231 123q44 37 44 65q0 37 -65 45q-270 32 -309 46q-84 31 -84 145q0 156 154 294q150 133 308 133q78 0 135 -41zM667 663l-384 -98v67l99 41q-50 49 -50 97q0 56 46.5 102.5t102.5 46.5q67 0 116 -38l-24 -57q-44 15 -95 15q-25 0 -52 -14
q-32 -17 -32 -40q0 -69 119 -69q16 0 154 42v-95z" />
    <glyph glyph-name="afii57415.001" unicode="&#x627;" horiz-adv-x="350" 
d="M263 29l-101 -28l-32 1217l133 51v-1240z" />
    <glyph glyph-name="afii57416" unicode="&#x628;" horiz-adv-x="1610" 
d="M1567 280q0 -177 -320 -260q-235 -61 -569 -61q-277 0 -398 61q-136 69 -136 236q0 105 62 189l94 -29q-38 -69 -38 -130q0 -119 152 -157q75 -19 246 -19h49q178 0 411 32q341 47 341 130q0 72 -89 173l92 117q103 -133 103 -282zM899 -292l-97 -128l-131 87l96 131z
" />
    <glyph glyph-name="afii57417" unicode="&#x629;" horiz-adv-x="639" 
d="M586 231q0 -108 -61 -178q-64 -74 -170 -74q-86 0 -138 57.5t-52 144.5q0 78 26 141q11 28 79 149l-23 19l71 135q268 -210 268 -394zM479 230q0 52 -54 116q-41 49 -89 81q-76 -144 -76 -185q0 -116 105 -116q46 0 80 29.5t34 74.5zM497 874l-87 -111l-113 84l-81 -100
l-121 86l92 113l109 -82l79 96z" />
    <glyph glyph-name="afii57418" unicode="&#x62a;" horiz-adv-x="1610" 
d="M1567 280q0 -177 -320 -260q-235 -61 -569 -61q-277 0 -398 61q-136 69 -136 236q0 105 62 189l94 -29q-38 -69 -38 -130q0 -119 152 -157q75 -19 246 -19h49q178 0 411 32q341 47 341 130q0 72 -89 173l92 117q103 -133 103 -282zM973 784l-87 -111l-113 84l-81 -100
l-121 86l92 113l109 -82l79 96z" />
    </font>
</defs>
</svg>
