<svg xmlns="http://www.w3.org/2000/svg" viewBox="0 0 864 504"><defs><style>.cls-1{fill:#f5f1f0;}.cls-2{fill:#ff8672;}.cls-3{fill:#504b4a;}.cls-4{fill:none;}.cls-5{fill:#fff;}</style></defs><title>material-17</title><g id="Layer_1" data-name="Layer 1"><path class="cls-1" d="M682.5,193.5v81h-501v-81h501M684,192H180v84H684V192Z"/><rect class="cls-2" x="180" y="274.5" width="504" height="1.5"/><path class="cls-3" d="M511.85,256.18a6.26,6.26,0,0,0,1.87-.27,4.77,4.77,0,0,0,1.5-.73,3.76,3.76,0,0,0,1-1.1,2.65,2.65,0,0,0,.37-1.36,1.66,1.66,0,0,0-.36-1.09,1.75,1.75,0,0,0-1.41-.45h-4.18V247a4.16,4.16,0,0,1,1.06-3,3.77,3.77,0,0,1,2.92-1.14h2.76l.12,1.65h-3a2.59,2.59,0,0,0-.88.16,2.1,2.1,0,0,0-.74.46,2.13,2.13,0,0,0-.53.74,2.41,2.41,0,0,0-.21,1v2.55h2.93a4,4,0,0,1,1.48.23,2.34,2.34,0,0,1,.93.62,2,2,0,0,1,.48.92,4.6,4.6,0,0,1,.14,1.13,4.73,4.73,0,0,1-.48,2.11,5.47,5.47,0,0,1-1.3,1.71,6.16,6.16,0,0,1-1.93,1.14,6.68,6.68,0,0,1-2.37.42h-2a5.29,5.29,0,0,1-4.17-1.66,6.53,6.53,0,0,1-1.49-4.53v-4.2h1.54v4.15a6.41,6.41,0,0,0,.25,1.87,3.85,3.85,0,0,0,.79,1.45,3.52,3.52,0,0,0,1.36,1,5.21,5.21,0,0,0,2,.34Z"/><path class="cls-3" d="M529.51,246.29a4.52,4.52,0,0,1,.9,1.38,3.42,3.42,0,0,1,.28,1.33,2.8,2.8,0,0,1-.93,2.15,3.71,3.71,0,0,1-2.62.85h-6.7l-.12-1.66h6.62a2.21,2.21,0,0,0,1.46-.43,1.41,1.41,0,0,0,.51-1.13,1.83,1.83,0,0,0-.17-.74,2.61,2.61,0,0,0-.5-.77l-4.46-5,1.22-1.15Z"/><path class="cls-3" d="M535.39,256.18a4.82,4.82,0,0,0,1.86-.34,3.87,3.87,0,0,0,2.2-2.24,5.71,5.71,0,0,0,.34-1.6h-2.41a6.67,6.67,0,0,1-2-.26,2.93,2.93,0,0,1-1.25-.77,2.88,2.88,0,0,1-.64-1.21,6.58,6.58,0,0,1-.18-1.6,5.5,5.5,0,0,1,.27-1.73,4.34,4.34,0,0,1,.77-1.44,3.54,3.54,0,0,1,1.26-1,3.84,3.84,0,0,1,1.74-.38,4.29,4.29,0,0,1,1.51.27,3.3,3.3,0,0,1,1.27.83,4,4,0,0,1,.88,1.46,6.58,6.58,0,0,1,.32,2.17v3.27a6.91,6.91,0,0,1-.4,2.35,6,6,0,0,1-1.13,2A5.38,5.38,0,0,1,538,257.3a5.61,5.61,0,0,1-2.42.51H533l-.14-1.63Zm-.6-8.12a3.93,3.93,0,0,0,.13,1,1.54,1.54,0,0,0,.46.7,2.06,2.06,0,0,0,.88.41,6,6,0,0,0,1.39.13h2.16v-1.8a3.71,3.71,0,0,0-.7-2.54,2.46,2.46,0,0,0-1.92-.77,2.14,2.14,0,0,0-1.77.77A3.15,3.15,0,0,0,534.79,248.06Z"/><path class="cls-3" d="M541.39,256.18h.48a4.76,4.76,0,0,0,2-.39,3.77,3.77,0,0,0,1.38-1,4.12,4.12,0,0,0,.8-1.45,5.36,5.36,0,0,0,.27-1.7v-6.48h1.56v6.48a6.86,6.86,0,0,1-.45,2.53,5.85,5.85,0,0,1-1.21,2,5.19,5.19,0,0,1-1.81,1.26,5.68,5.68,0,0,1-2.27.45h-.6Z"/><path class="cls-3" d="M552.74,256.18a4.82,4.82,0,0,0,1.86-.34,3.87,3.87,0,0,0,2.2-2.24,5.71,5.71,0,0,0,.34-1.6h-2.4a6.7,6.7,0,0,1-2-.26,3,3,0,0,1-1.25-.77,2.86,2.86,0,0,1-.63-1.21,6.58,6.58,0,0,1-.18-1.6,5.49,5.49,0,0,1,.26-1.73,4.53,4.53,0,0,1,.77-1.44,3.54,3.54,0,0,1,1.26-1,3.84,3.84,0,0,1,1.74-.38,4.25,4.25,0,0,1,1.51.27,3.3,3.3,0,0,1,1.27.83,4,4,0,0,1,.88,1.46,6.58,6.58,0,0,1,.32,2.17v3.27a7.15,7.15,0,0,1-.39,2.35,6.26,6.26,0,0,1-1.14,2,5.38,5.38,0,0,1-1.83,1.35,5.61,5.61,0,0,1-2.42.51h-2.55l-.14-1.63Zm-.6-8.12a3.54,3.54,0,0,0,.14,1,1.44,1.44,0,0,0,.45.7,2.06,2.06,0,0,0,.88.41,6,6,0,0,0,1.39.13h2.16v-1.8a3.71,3.71,0,0,0-.7-2.54,2.46,2.46,0,0,0-1.92-.77,2.16,2.16,0,0,0-1.77.77A3.15,3.15,0,0,0,552.14,248.06Z"/><path class="cls-3" d="M579.94,252a3,3,0,0,1-1.14-.22,2,2,0,0,1-.95-.74v.53a7,7,0,0,1-.41,2.4,6.12,6.12,0,0,1-1.16,2,5.52,5.52,0,0,1-1.84,1.35,5.68,5.68,0,0,1-2.45.51h-1.41a5.3,5.3,0,0,1-4.18-1.66,6.53,6.53,0,0,1-1.49-4.53v-4.2h1.54v4.15a6.41,6.41,0,0,0,.25,1.87,3.85,3.85,0,0,0,.79,1.45,3.52,3.52,0,0,0,1.36,1,5.23,5.23,0,0,0,2,.34h1a4.81,4.81,0,0,0,2-.38,3.94,3.94,0,0,0,2.24-2.46,5.39,5.39,0,0,0,.28-1.75v-6.45h1.54v3.38a1.66,1.66,0,0,0,.56,1.33,2.15,2.15,0,0,0,1.48.49h.26c.35,0,.53.28.53.82s-.18.84-.53.84Zm-7.83-7.39h-2v-1.75h2Z"/><path class="cls-3" d="M582,250.34a2.12,2.12,0,0,0,1.54-.5,1.85,1.85,0,0,0,.53-1.39v-3.31h1.56v3.31a2,2,0,0,0,.18.89,1.67,1.67,0,0,0,.46.58,1.82,1.82,0,0,0,.65.33,3.08,3.08,0,0,0,.75.09h.72c.37,0,.55.28.55.82s-.18.84-.55.84h-.77a4.09,4.09,0,0,1-1.61-.32,2.62,2.62,0,0,1-1.22-1.24,3,3,0,0,1-1.26,1.24A3.71,3.71,0,0,1,582,252H580.2a.43.43,0,0,1-.42-.19,1.31,1.31,0,0,1-.11-.6,1.52,1.52,0,0,1,.11-.65.43.43,0,0,1,.42-.22Zm2-8.28h-1.92v-1.7H584Zm3.05,0h-1.92v-1.7h1.92Z"/><path class="cls-3" d="M588.79,250.34a2,2,0,0,0,1.42-.45,1.62,1.62,0,0,0,.48-1.23v-.91a4.67,4.67,0,0,1,1.06-3.26,3.81,3.81,0,0,1,3-1.18,4.64,4.64,0,0,1,1.73.31,3.28,3.28,0,0,1,1.23.89,3.94,3.94,0,0,1,.74,1.37,6,6,0,0,1,.24,1.75,4.57,4.57,0,0,1-1.08,3.22,3.86,3.86,0,0,1-3,1.15,4.65,4.65,0,0,1-1.84-.37,2.78,2.78,0,0,1-1.4-1.33,2.85,2.85,0,0,1-.52.88,2.52,2.52,0,0,1-.65.52,2.29,2.29,0,0,1-.71.24,4.53,4.53,0,0,1-.71.06h-.38a.43.43,0,0,1-.42-.19,1.31,1.31,0,0,1-.11-.6,1.52,1.52,0,0,1,.11-.65.43.43,0,0,1,.42-.22Zm8.33-2.56a3.41,3.41,0,0,0-.55-2,2.17,2.17,0,0,0-1.9-.78c-1.66,0-2.5,1-2.5,2.9a2.37,2.37,0,0,0,.69,1.85,2.49,2.49,0,0,0,1.76.62,2.42,2.42,0,0,0,1.86-.67A2.62,2.62,0,0,0,597.12,247.78Z"/><path class="cls-3" d="M567.93,221a1.34,1.34,0,0,0,1-.31,1.15,1.15,0,0,0,.33-.87v-2.07h1v2.07a1.15,1.15,0,0,0,.11.55,1,1,0,0,0,.29.37,1,1,0,0,0,.41.2,1.88,1.88,0,0,0,.46.06h.26a.28.28,0,0,1,.26.13.92.92,0,0,1,.07.38,1,1,0,0,1-.07.4.26.26,0,0,1-.26.13h-.27a2.61,2.61,0,0,1-1-.2,1.66,1.66,0,0,1-.77-.78,1.9,1.9,0,0,1-.79.78,2.38,2.38,0,0,1-1,.2h-5.32a2.61,2.61,0,0,1-1.06-.19,1.82,1.82,0,0,1-.72-.5,2,2,0,0,1-.41-.74,3.17,3.17,0,0,1-.12-.88v-2h1v1.78a1.64,1.64,0,0,0,.34,1.09,1.51,1.51,0,0,0,1.22.41Zm-2.13,3.87h-1.26v-1.09h1.26Z"/><path class="cls-3" d="M572.27,221a1.42,1.42,0,0,0,1-.31,1.12,1.12,0,0,0,.35-.87v-2.07h1v2.07a1.15,1.15,0,0,0,.11.55.91.91,0,0,0,.3.37,1,1,0,0,0,.42.2,1.84,1.84,0,0,0,.47.06,1.59,1.59,0,0,0,1.07-.31,1.07,1.07,0,0,0,.37-.87v-2.07h1v2.07a1.06,1.06,0,0,0,.36.92,1.39,1.39,0,0,0,.84.26,1.27,1.27,0,0,0,.92-.31,1.18,1.18,0,0,0,.32-.87v-2.07h1v2.07a1.15,1.15,0,0,0,.11.55,1.07,1.07,0,0,0,.28.37,1,1,0,0,0,.4.2,1.74,1.74,0,0,0,.45.06h.29a.29.29,0,0,1,.26.13.92.92,0,0,1,.07.38,1,1,0,0,1-.07.4.27.27,0,0,1-.26.13H583a2.55,2.55,0,0,1-1-.2,1.66,1.66,0,0,1-.77-.78,1.92,1.92,0,0,1-.8.78,2.28,2.28,0,0,1-.89.2,2.47,2.47,0,0,1-1-.2,1.67,1.67,0,0,1-.75-.78,1.75,1.75,0,0,1-.84.78,2.83,2.83,0,0,1-1,.2,2.78,2.78,0,0,1-1.06-.2A1.64,1.64,0,0,1,574,221a1.78,1.78,0,0,1-.81.78,2.69,2.69,0,0,1-1,.2h-.48a.29.29,0,0,1-.27-.12.91.91,0,0,1-.06-.38,1,1,0,0,1,.06-.4.28.28,0,0,1,.27-.14Z"/><path class="cls-3" d="M587.58,221.11c-.26.15-.51.29-.75.4a3.79,3.79,0,0,1-.78.28,7.62,7.62,0,0,1-.92.16c-.34,0-.72.05-1.15.05h-.73a.29.29,0,0,1-.27-.12.91.91,0,0,1-.06-.38,1,1,0,0,1,.06-.4.28.28,0,0,1,.27-.14H584c.39,0,.73,0,1,0s.58-.07.83-.12a4.78,4.78,0,0,0,.7-.22,4.89,4.89,0,0,0,.68-.35l2.53-1.47a5.12,5.12,0,0,0-.25-.57,1.57,1.57,0,0,0-.34-.45,1.34,1.34,0,0,0-.5-.27,2.31,2.31,0,0,0-.75-.1h-3.36l.09-1h3.4a3.7,3.7,0,0,1,.8.09,1.8,1.8,0,0,1,.78.39,2.71,2.71,0,0,1,.69.86,5.35,5.35,0,0,1,.54,1.51Zm-.49,3.69h-1.2v-1.06h1.2Zm1,1.8h-1.2v-1.06h1.2Zm.94-1.8h-1.2v-1.06H589Z"/><path class="cls-3" d="M594.08,221.76a4.4,4.4,0,0,1-.27,1.58,3.58,3.58,0,0,1-.75,1.22,3.3,3.3,0,0,1-1.13.79,3.45,3.45,0,0,1-1.41.28h-.88l-.08-1h.74a3.16,3.16,0,0,0,1.29-.24,2.42,2.42,0,0,0,.88-.64,2.55,2.55,0,0,0,.51-.91,3.41,3.41,0,0,0,.17-1.06v-4h1v2.11a1.05,1.05,0,0,0,.35.84,1.36,1.36,0,0,0,.92.3h.17q.33,0,.33.51c0,.35-.11.53-.33.53h-.17a2,2,0,0,1-.71-.14,1.26,1.26,0,0,1-.59-.46Z"/><path class="cls-3" d="M596.9,221a1.32,1.32,0,0,0,.93-.31,1.1,1.1,0,0,0,.36-.87v-2.07h1v2.07A2,2,0,0,1,597,222h-1.41a.29.29,0,0,1-.27-.12.91.91,0,0,1-.06-.38,1,1,0,0,1,.06-.4.28.28,0,0,1,.27-.14Zm.6,3.87h-1.26v-1.09h1.26Z"/><path class="cls-3" d="M606,302.61a4.63,4.63,0,0,0,1.28-.15,2.49,2.49,0,0,0,.85-.4,1.42,1.42,0,0,0,.47-.55,1.46,1.46,0,0,0,.15-.64,1,1,0,0,0-.19-.61A.73.73,0,0,0,608,300h-2.5l.07-1h5.33q.33,0,.33.51c0,.35-.11.52-.33.52h-1.48a.82.82,0,0,1,.27.41,2.08,2.08,0,0,1,.07.54,2.53,2.53,0,0,1-.76,1.74,3.26,3.26,0,0,1-1.1.67,4.58,4.58,0,0,1-1.68.27h-1.5a3.3,3.3,0,0,1-2.61-1,4.1,4.1,0,0,1-.94-2.84v-2.62h1v2.59a4.24,4.24,0,0,0,.16,1.17,2.45,2.45,0,0,0,.5.91,2.32,2.32,0,0,0,.84.59,3.25,3.25,0,0,0,1.24.21Z"/><path class="cls-3" d="M614.81,299a1.26,1.26,0,0,0,.93-.28A1,1,0,0,0,616,298a2.09,2.09,0,0,0-.09-.57,1.8,1.8,0,0,0-.49-.72l-3.24-3.22v-1.07l5-2,.26,1-4.26,1.67,2.71,2.71c.5.51.93.94,1.3,1.29s.68.64.94.88.48.42.66.55a2.31,2.31,0,0,0,.49.28,1.44,1.44,0,0,0,.43.11,3.13,3.13,0,0,0,.46,0q.33,0,.33.51c0,.35-.11.52-.33.52a3.55,3.55,0,0,1-.77-.07,2.32,2.32,0,0,1-.68-.29,5.39,5.39,0,0,1-.77-.57c-.28-.24-.62-.55-1-.94a1.71,1.71,0,0,1-.1.84,1.36,1.36,0,0,1-.41.58,1.91,1.91,0,0,1-.65.34,3.14,3.14,0,0,1-.83.11h-4a.29.29,0,0,1-.27-.12.86.86,0,0,1-.06-.37,1.07,1.07,0,0,1,.06-.41.28.28,0,0,1,.27-.13Z"/><path class="cls-3" d="M620.36,299a1.23,1.23,0,0,0,.88-.29,1,1,0,0,0,.3-.76v-.57a2.9,2.9,0,0,1,.67-2,2.37,2.37,0,0,1,1.85-.74,2.26,2.26,0,0,1,1.85.75,2.93,2.93,0,0,1,.61,1.92v.47a1.23,1.23,0,0,0,.33,1,1.26,1.26,0,0,0,.82.27h.26a.27.27,0,0,1,.26.12.82.82,0,0,1,.07.39.77.77,0,0,1-.07.39.25.25,0,0,1-.26.13h-.26a2.56,2.56,0,0,1-.47,0,1.66,1.66,0,0,1-.45-.17,1.36,1.36,0,0,1-.39-.34,2,2,0,0,1-.32-.56,2,2,0,0,1-.95.89,3,3,0,0,1-2.26,0,1.75,1.75,0,0,1-.85-.83,1.91,1.91,0,0,1-.33.55,1.48,1.48,0,0,1-.41.32,1.21,1.21,0,0,1-.44.15,2.32,2.32,0,0,1-.44,0h-.24a.29.29,0,0,1-.27-.12.86.86,0,0,1-.06-.37,1.07,1.07,0,0,1,.06-.41.28.28,0,0,1,.27-.13Zm5.2-1.61a2.1,2.1,0,0,0-.35-1.27,1.34,1.34,0,0,0-1.18-.48c-1,0-1.56.6-1.56,1.81a1.48,1.48,0,0,0,.43,1.16,1.56,1.56,0,0,0,1.1.39,1.51,1.51,0,0,0,1.16-.42A1.65,1.65,0,0,0,625.56,297.36Z"/><path class="cls-3" d="M631.89,299a1.26,1.26,0,0,0,.93-.28,1,1,0,0,0,.25-.67,2.09,2.09,0,0,0-.09-.57,1.8,1.8,0,0,0-.49-.72l-3.24-3.22v-1.07l5-2,.26,1-4.26,1.67,2.71,2.71a7.92,7.92,0,0,1,.6.68,3.78,3.78,0,0,1,.36.57,1.61,1.61,0,0,1,.18.52,3.1,3.1,0,0,1,.05.54,1.92,1.92,0,0,1-.16.83,1.42,1.42,0,0,1-.44.58,2.07,2.07,0,0,1-.68.34,3.24,3.24,0,0,1-.85.11h-4.05a.27.27,0,0,1-.26-.12.71.71,0,0,1-.07-.37.89.89,0,0,1,.07-.41.25.25,0,0,1,.26-.13Z"/><path class="cls-3" d="M647.46,300a1.94,1.94,0,0,1-.71-.13,1.3,1.3,0,0,1-.6-.47v.33a4.37,4.37,0,0,1-.25,1.5,3.76,3.76,0,0,1-.73,1.24,3.52,3.52,0,0,1-1.15.85,3.56,3.56,0,0,1-1.52.31h-.89a3.33,3.33,0,0,1-2.61-1,4.1,4.1,0,0,1-.93-2.84v-2.62h1v2.59a3.9,3.9,0,0,0,.16,1.17,2.43,2.43,0,0,0,.49.91,2.36,2.36,0,0,0,.85.59,3.23,3.23,0,0,0,1.23.21h.66a3.1,3.1,0,0,0,1.23-.23,2.84,2.84,0,0,0,.88-.62,2.62,2.62,0,0,0,.52-.92,3.36,3.36,0,0,0,.17-1.09v-4h1v2.12a1,1,0,0,0,.36.83,1.36,1.36,0,0,0,.92.31h.16c.22,0,.34.17.34.51s-.12.52-.34.52Zm-4.89-4.62h-1.26v-1.09h1.26Z"/><path class="cls-3" d="M648.76,299a1.34,1.34,0,0,0,1-.32,1.11,1.11,0,0,0,.33-.87v-2.07h1v2.07a1.33,1.33,0,0,0,.11.56,1.18,1.18,0,0,0,.29.36,1.07,1.07,0,0,0,.41.21,1.76,1.76,0,0,0,.46.06h.45c.24,0,.35.17.35.51s-.11.52-.35.52h-.47a2.6,2.6,0,0,1-1-.2,1.68,1.68,0,0,1-.77-.77,1.91,1.91,0,0,1-.78.77,2.39,2.39,0,0,1-1,.2h-1.14a.29.29,0,0,1-.26-.12.83.83,0,0,1-.07-.37,1,1,0,0,1,.07-.41.27.27,0,0,1,.26-.13Zm1.27-5.18h-1.2v-1.06H650Zm1.9,0h-1.2v-1.06h1.2Z"/><path class="cls-3" d="M653,299a1.24,1.24,0,0,0,.88-.29,1,1,0,0,0,.3-.76v-.57a2.9,2.9,0,0,1,.67-2,2.37,2.37,0,0,1,1.85-.74,2.77,2.77,0,0,1,1.08.2,2,2,0,0,1,.77.55,2.3,2.3,0,0,1,.46.86,3.73,3.73,0,0,1,.15,1.09,2.87,2.87,0,0,1-.67,2,2.42,2.42,0,0,1-1.85.72,3,3,0,0,1-1.15-.23,1.75,1.75,0,0,1-.87-.83,1.91,1.91,0,0,1-.33.55,1.48,1.48,0,0,1-.41.32,1.21,1.21,0,0,1-.44.15,2.39,2.39,0,0,1-.44,0h-.25a.28.28,0,0,1-.26-.12.83.83,0,0,1-.07-.37,1,1,0,0,1,.07-.41.26.26,0,0,1,.26-.13Zm5.2-1.61a2.17,2.17,0,0,0-.35-1.27,1.35,1.35,0,0,0-1.18-.48c-1,0-1.56.6-1.56,1.81a1.48,1.48,0,0,0,.43,1.16,1.56,1.56,0,0,0,1.1.39,1.51,1.51,0,0,0,1.16-.42A1.65,1.65,0,0,0,658.2,297.36Z"/><path class="cls-3" d="M655.5,228v6L642,247.49,628.5,234v-6l4.5-4.5h6l3,3,3-3h6Z"/><rect class="cls-4" x="624" y="216" width="36" height="36"/><path class="cls-3" d="M230.85,228.14,236.7,234l-7.42,7.42a10.52,10.52,0,0,1-13.1,1.41l4.5-4.5a4.45,4.45,0,0,0,5.67-4.33,4.47,4.47,0,0,0-.17-1.17Zm6.77-8.52-30,30-2.12-2.13L213,240l-6-6,7.43-7.42a10.5,10.5,0,0,1,13.28-1.28l7.79-7.8Zm-14.35,10.11a4.45,4.45,0,0,0-1.42-.24,4.5,4.5,0,0,0-4.5,4.5,4.45,4.45,0,0,0,.24,1.42Z"/><rect class="cls-4" x="204" y="216" width="36" height="36"/><rect x="708" y="222" width="24" height="24"/><rect x="660" y="233.75" width="48" height="0.5"/><path class="cls-5" d="M721.26,238.5h-1.65v-8l-2.44.84v-1.4l3.88-1.43h.21Z"/><rect x="570" y="156" width="24" height="24" transform="translate(414 750) rotate(-90)"/><rect x="581.75" y="180" width="0.5" height="30"/><path class="cls-5" d="M580.69,166.76h1a1.78,1.78,0,0,0,1.21-.39,1.42,1.42,0,0,0,.45-1.13,1.53,1.53,0,0,0-.37-1.1,1.48,1.48,0,0,0-1.14-.4,1.57,1.57,0,0,0-1.1.39,1.28,1.28,0,0,0-.43,1h-1.66a2.54,2.54,0,0,1,.4-1.4,2.74,2.74,0,0,1,1.14-1,3.75,3.75,0,0,1,1.63-.35,3.43,3.43,0,0,1,2.34.75,2.61,2.61,0,0,1,.85,2.08,2.07,2.07,0,0,1-.43,1.26,2.59,2.59,0,0,1-1.1.89,2.34,2.34,0,0,1,1.68,2.32,2.67,2.67,0,0,1-.92,2.13,3.58,3.58,0,0,1-2.42.8,3.54,3.54,0,0,1-2.35-.77,2.53,2.53,0,0,1-.92-2h1.66a1.4,1.4,0,0,0,.44,1.07,1.7,1.7,0,0,0,1.19.41,1.76,1.76,0,0,0,1.22-.41,1.83,1.83,0,0,0,0-2.4,2,2,0,0,0-1.38-.42h-1Z"/><rect x="504" y="156" width="24" height="24" transform="translate(348 684) rotate(-90)"/><rect x="515.75" y="180" width="0.5" height="54"/><path class="cls-5" d="M518.39,169h1.23v1.34h-1.23v2.21h-1.67v-2.21h-4.3l0-1,4.29-6.72h1.72Zm-4.27,0h2.6V164.8l-.12.21Z"/><rect x="354" y="156" width="24" height="24" transform="translate(198 534) rotate(-90)"/><rect x="365.75" y="180" width="0.5" height="12"/><path class="cls-5" d="M363.21,167.56l.54-5h5.35V164h-4l-.27,2.38a3.12,3.12,0,0,1,1.56-.4,2.79,2.79,0,0,1,2.21.91,3.66,3.66,0,0,1,.79,2.45,3.3,3.3,0,0,1-.88,2.42,3.18,3.18,0,0,1-2.4.9,3.32,3.32,0,0,1-2.26-.78,2.81,2.81,0,0,1-1-2.05h1.61a1.71,1.71,0,0,0,.52,1.11,1.57,1.57,0,0,0,1.11.39,1.42,1.42,0,0,0,1.19-.55,2.38,2.38,0,0,0,.43-1.49,2.13,2.13,0,0,0-.47-1.44,1.67,1.67,0,0,0-1.3-.53,2.18,2.18,0,0,0-.77.12,2.14,2.14,0,0,0-.68.47Z"/><rect x="354" y="288" width="24" height="24" transform="translate(66 666) rotate(-90)"/><rect x="365.75" y="276" width="0.5" height="12"/><path class="cls-5" d="M369.39,295.47l-4,9h-1.74l4-8.62h-5.15v-1.33h6.9Z"/><rect x="120" y="222" width="24" height="24" transform="translate(264 468) rotate(180)"/><rect x="144" y="233.75" width="60" height="0.5"/><path class="cls-5" d="M133.93,228.5v1.37h-.2a3.33,3.33,0,0,0-2.23.77,3.21,3.21,0,0,0-1,2.11,2.68,2.68,0,0,1,2-.84,2.53,2.53,0,0,1,2.08.93,3.66,3.66,0,0,1,.77,2.4,3.46,3.46,0,0,1-.89,2.46,3.13,3.13,0,0,1-2.35.94,3,3,0,0,1-2.41-1.1,4.34,4.34,0,0,1-.93-2.89v-.57a6.1,6.1,0,0,1,1.28-4.1,4.56,4.56,0,0,1,3.66-1.48Zm-1.78,4.75a1.71,1.71,0,0,0-1,.31,1.8,1.8,0,0,0-.67.82v.5a3,3,0,0,0,.47,1.76,1.46,1.46,0,0,0,2.37.1,2.27,2.27,0,0,0,.43-1.45,2.36,2.36,0,0,0-.44-1.47A1.39,1.39,0,0,0,132.15,233.25Z"/><rect x="708" y="285" width="24" height="24"/><rect x="672" y="296.75" width="36" height="0.5"/><path class="cls-5" d="M723.46,301.5h-6.69v-1.14l3.31-3.62a8.17,8.17,0,0,0,1-1.33,2.12,2.12,0,0,0,.31-1.08,1.63,1.63,0,0,0-.4-1.15,1.41,1.41,0,0,0-1.08-.44,1.6,1.6,0,0,0-1.25.5,1.88,1.88,0,0,0-.44,1.34h-1.66a3.25,3.25,0,0,1,.41-1.64,2.86,2.86,0,0,1,1.18-1.13,3.77,3.77,0,0,1,1.78-.4,3.34,3.34,0,0,1,2.28.73,2.5,2.5,0,0,1,.84,2,3.39,3.39,0,0,1-.42,1.56,8.63,8.63,0,0,1-1.38,1.86l-2.43,2.6h4.62Z"/></g></svg>