<svg xmlns="http://www.w3.org/2000/svg" viewBox="0 0 864 504"><defs><style>.cls-1{fill:#f5f1f0;}.cls-2{fill:#ac2700;}.cls-3{fill:#504b4a;}.cls-4{fill:none;}</style></defs><title>material-24</title><g id="Layer_1" data-name="Layer 1"><path class="cls-1" d="M683,193v82H181V193H683m1-1H180v84H684V192Z"/><rect class="cls-2" x="180" y="274.5" width="504" height="1.5"/><path class="cls-2" d="M494.67,246.72l-1.08-.89,2.47-3.21-3.84-1.35.5-1.27,3.72,1.44-.05-4.1h1.35l-.05,4.1,3.72-1.44.5,1.27-3.84,1.35,2.48,3.21-1.06.89-2.4-3.36Z"/><path class="cls-2" d="M511.85,256.18a6.21,6.21,0,0,0,1.87-.27,4.77,4.77,0,0,0,1.5-.73,3.63,3.63,0,0,0,1-1.1,2.65,2.65,0,0,0,.37-1.36,1.66,1.66,0,0,0-.36-1.09,1.75,1.75,0,0,0-1.41-.45h-4.18V247a4.16,4.16,0,0,1,1.06-3,3.78,3.78,0,0,1,2.92-1.14h2.76l.12,1.65h-3a2.59,2.59,0,0,0-.88.16,2.1,2.1,0,0,0-.74.46,2.26,2.26,0,0,0-.53.74,2.41,2.41,0,0,0-.2,1v2.55h2.92a3.93,3.93,0,0,1,1.48.23,2.45,2.45,0,0,1,.94.62,2.2,2.2,0,0,1,.48.92,5.14,5.14,0,0,1,.13,1.13,4.73,4.73,0,0,1-.48,2.11,5.32,5.32,0,0,1-1.3,1.71,6.16,6.16,0,0,1-1.93,1.14,6.63,6.63,0,0,1-2.36.42h-2a5.3,5.3,0,0,1-4.18-1.66,6.53,6.53,0,0,1-1.49-4.53v-4.2h1.54v4.15a6.41,6.41,0,0,0,.25,1.87,3.85,3.85,0,0,0,.79,1.45,3.52,3.52,0,0,0,1.36,1,5.23,5.23,0,0,0,2,.34Z"/><path class="cls-2" d="M529.51,246.29a4.52,4.52,0,0,1,.9,1.38,3.42,3.42,0,0,1,.28,1.33,2.83,2.83,0,0,1-.92,2.15,3.75,3.75,0,0,1-2.63.85h-6.7l-.12-1.66H527a2.2,2.2,0,0,0,1.45-.43,1.41,1.41,0,0,0,.51-1.13,2,2,0,0,0-.16-.74,2.64,2.64,0,0,0-.51-.77l-4.46-5,1.22-1.15Z"/><path class="cls-2" d="M535.39,256.18a4.82,4.82,0,0,0,1.86-.34,3.87,3.87,0,0,0,2.2-2.24,5.71,5.71,0,0,0,.34-1.6h-2.4a6.7,6.7,0,0,1-2-.26,3,3,0,0,1-1.25-.77,2.86,2.86,0,0,1-.63-1.21,6.58,6.58,0,0,1-.18-1.6,5.49,5.49,0,0,1,.26-1.73,4.53,4.53,0,0,1,.77-1.44,3.54,3.54,0,0,1,1.26-1,3.84,3.84,0,0,1,1.74-.38,4.25,4.25,0,0,1,1.51.27,3.3,3.3,0,0,1,1.27.83,4,4,0,0,1,.88,1.46,6.58,6.58,0,0,1,.32,2.17v3.27a7.15,7.15,0,0,1-.39,2.35,6.26,6.26,0,0,1-1.14,2A5.38,5.38,0,0,1,538,257.3a5.61,5.61,0,0,1-2.42.51H533l-.14-1.63Zm-.6-8.12a3.54,3.54,0,0,0,.14,1,1.44,1.44,0,0,0,.45.7,2.06,2.06,0,0,0,.88.41,6,6,0,0,0,1.39.13h2.16v-1.8a3.71,3.71,0,0,0-.7-2.54,2.46,2.46,0,0,0-1.92-.77,2.16,2.16,0,0,0-1.77.77A3.15,3.15,0,0,0,534.79,248.06Z"/><path class="cls-2" d="M541.39,256.18h.48a4.76,4.76,0,0,0,2-.39,3.77,3.77,0,0,0,1.38-1,4.12,4.12,0,0,0,.8-1.45,5.36,5.36,0,0,0,.27-1.7v-6.48h1.56v6.48a6.86,6.86,0,0,1-.45,2.53,5.85,5.85,0,0,1-1.21,2,5.1,5.1,0,0,1-1.81,1.26,5.68,5.68,0,0,1-2.27.45h-.6Z"/><path class="cls-2" d="M552.75,256.18a4.9,4.9,0,0,0,1.86-.34,4,4,0,0,0,1.35-.91,4,4,0,0,0,.84-1.33,5.71,5.71,0,0,0,.34-1.6h-2.4a6.7,6.7,0,0,1-2-.26,3,3,0,0,1-1.25-.77,2.86,2.86,0,0,1-.63-1.21,6.58,6.58,0,0,1-.18-1.6,5.79,5.79,0,0,1,.26-1.73,4.53,4.53,0,0,1,.77-1.44,3.72,3.72,0,0,1,1.26-1,3.84,3.84,0,0,1,1.74-.38,4.25,4.25,0,0,1,1.51.27,3.3,3.3,0,0,1,1.27.83,4,4,0,0,1,.88,1.46,6.33,6.33,0,0,1,.32,2.17v3.27a7.15,7.15,0,0,1-.39,2.35,6.26,6.26,0,0,1-1.14,2,5.38,5.38,0,0,1-1.83,1.35,5.58,5.58,0,0,1-2.42.51h-2.55l-.14-1.63Zm-.6-8.12a3.56,3.56,0,0,0,.13,1,1.52,1.52,0,0,0,.45.7,2.06,2.06,0,0,0,.88.41,6,6,0,0,0,1.39.13h2.16v-1.8a3.71,3.71,0,0,0-.7-2.54,2.46,2.46,0,0,0-1.92-.77,2.17,2.17,0,0,0-1.77.77A3.14,3.14,0,0,0,552.15,248.06Z"/><path class="cls-2" d="M579.94,252a3,3,0,0,1-1.14-.22,2.06,2.06,0,0,1-.95-.74v.53a7,7,0,0,1-.41,2.4,6.12,6.12,0,0,1-1.16,2,5.52,5.52,0,0,1-1.84,1.35,5.65,5.65,0,0,1-2.45.51h-1.41a5.32,5.32,0,0,1-4.18-1.66,6.53,6.53,0,0,1-1.49-4.53v-4.2h1.54v4.15a6.41,6.41,0,0,0,.25,1.87,3.85,3.85,0,0,0,.79,1.45,3.59,3.59,0,0,0,1.36,1,5.23,5.23,0,0,0,2,.34h1a4.77,4.77,0,0,0,2-.38,4.12,4.12,0,0,0,1.41-1,4.27,4.27,0,0,0,.84-1.47,5.67,5.67,0,0,0,.27-1.75v-6.45h1.54v3.38a1.66,1.66,0,0,0,.56,1.33,2.17,2.17,0,0,0,1.48.49h.26c.35,0,.53.28.53.82s-.18.84-.53.84Zm-7.83-7.39h-2v-1.75h2Z"/><path class="cls-2" d="M582,250.34a2.11,2.11,0,0,0,1.53-.5,1.85,1.85,0,0,0,.53-1.39v-3.31h1.56v3.31a2,2,0,0,0,.18.89,1.69,1.69,0,0,0,.47.58,1.74,1.74,0,0,0,.65.33,3,3,0,0,0,.74.09h.72c.37,0,.55.28.55.82s-.18.84-.55.84h-.77a4.13,4.13,0,0,1-1.61-.32,2.62,2.62,0,0,1-1.22-1.24,3,3,0,0,1-1.26,1.24A3.7,3.7,0,0,1,582,252H580.2a.43.43,0,0,1-.42-.19,1.31,1.31,0,0,1-.11-.6,1.52,1.52,0,0,1,.11-.65.43.43,0,0,1,.42-.22Zm2-8.28h-1.92v-1.7H584Zm3.05,0h-1.92v-1.7h1.92Z"/><path class="cls-2" d="M588.79,250.34a2,2,0,0,0,1.42-.45,1.62,1.62,0,0,0,.48-1.23v-.91a4.63,4.63,0,0,1,1.07-3.26,3.78,3.78,0,0,1,3-1.18,4.6,4.6,0,0,1,1.73.31,3.28,3.28,0,0,1,1.23.89,3.78,3.78,0,0,1,.74,1.37,6,6,0,0,1,.24,1.75,4.53,4.53,0,0,1-1.08,3.22,3.86,3.86,0,0,1-3,1.15,4.65,4.65,0,0,1-1.84-.37,2.78,2.78,0,0,1-1.4-1.33,2.85,2.85,0,0,1-.52.88,2.52,2.52,0,0,1-.65.52,2.29,2.29,0,0,1-.71.24,4.44,4.44,0,0,1-.71.06h-.38a.43.43,0,0,1-.42-.19,1.31,1.31,0,0,1-.11-.6,1.52,1.52,0,0,1,.11-.65.43.43,0,0,1,.42-.22Zm8.33-2.56a3.41,3.41,0,0,0-.55-2,2.17,2.17,0,0,0-1.9-.78c-1.66,0-2.49,1-2.49,2.9a2.37,2.37,0,0,0,.68,1.85,2.49,2.49,0,0,0,1.76.62,2.42,2.42,0,0,0,1.86-.67A2.62,2.62,0,0,0,597.12,247.78Z"/><path class="cls-3" d="M567.93,221a1.34,1.34,0,0,0,1-.31,1.15,1.15,0,0,0,.33-.87v-2.07h1v2.07a1.15,1.15,0,0,0,.11.55,1,1,0,0,0,.29.37,1.07,1.07,0,0,0,.41.21,1.85,1.85,0,0,0,.46.05h.26a.28.28,0,0,1,.26.13,1,1,0,0,1,.07.38.92.92,0,0,1-.07.4.26.26,0,0,1-.26.13h-.27a2.61,2.61,0,0,1-1-.2,1.64,1.64,0,0,1-.77-.77,1.87,1.87,0,0,1-.79.77,2.38,2.38,0,0,1-1,.2h-5.32a2.61,2.61,0,0,1-1.06-.19,1.82,1.82,0,0,1-.72-.5,2,2,0,0,1-.41-.73,3.24,3.24,0,0,1-.12-.89v-2h1v1.78a1.62,1.62,0,0,0,.34,1.09,1.51,1.51,0,0,0,1.22.41Zm-2.13,3.87h-1.26v-1.09h1.26Z"/><path class="cls-3" d="M572.27,221a1.42,1.42,0,0,0,1-.31,1.12,1.12,0,0,0,.35-.87v-2.07h1v2.07a1.15,1.15,0,0,0,.11.55.91.91,0,0,0,.3.37,1,1,0,0,0,.42.21,1.83,1.83,0,0,0,.47.05,1.59,1.59,0,0,0,1.07-.31,1.07,1.07,0,0,0,.37-.87v-2.07h1v2.07a1.06,1.06,0,0,0,.36.92,1.39,1.39,0,0,0,.84.26,1.27,1.27,0,0,0,.92-.31,1.18,1.18,0,0,0,.32-.87v-2.07h1v2.07a1.15,1.15,0,0,0,.11.55,1.07,1.07,0,0,0,.28.37,1,1,0,0,0,.4.21,1.73,1.73,0,0,0,.45.05h.29a.28.28,0,0,1,.26.13,1,1,0,0,1,.07.38.92.92,0,0,1-.07.4.26.26,0,0,1-.26.13H583a2.55,2.55,0,0,1-1-.2,1.64,1.64,0,0,1-.77-.77,1.89,1.89,0,0,1-.8.77,2.28,2.28,0,0,1-.89.2,2.47,2.47,0,0,1-1-.2,1.65,1.65,0,0,1-.75-.77,1.72,1.72,0,0,1-.84.77,2.83,2.83,0,0,1-1,.2,2.78,2.78,0,0,1-1.06-.2A1.61,1.61,0,0,1,574,221a1.75,1.75,0,0,1-.81.77,2.69,2.69,0,0,1-1,.2h-.48a.29.29,0,0,1-.27-.12.86.86,0,0,1-.06-.37,1.07,1.07,0,0,1,.06-.41.28.28,0,0,1,.27-.14Z"/><path class="cls-3" d="M587.58,221.11a6.94,6.94,0,0,1-.75.4,3.79,3.79,0,0,1-.78.28,7.62,7.62,0,0,1-.92.16c-.34,0-.72.05-1.15.05h-.73a.29.29,0,0,1-.27-.12.86.86,0,0,1-.06-.37,1.07,1.07,0,0,1,.06-.41.28.28,0,0,1,.27-.14H584c.39,0,.73,0,1,0s.58-.07.83-.12a4.78,4.78,0,0,0,.7-.22,4,4,0,0,0,.68-.35l2.53-1.46a5.31,5.31,0,0,0-.25-.58,1.52,1.52,0,0,0-.34-.44,1.35,1.35,0,0,0-.5-.28,2.31,2.31,0,0,0-.75-.1h-3.36l.09-1h3.4a4.46,4.46,0,0,1,.8.09,1.8,1.8,0,0,1,.78.39,2.71,2.71,0,0,1,.69.86,5.43,5.43,0,0,1,.54,1.52Zm-.49,3.69h-1.2v-1.06h1.2Zm1,1.8h-1.2v-1.06h1.2Zm.94-1.8h-1.2v-1.06H589Z"/><path class="cls-3" d="M594.08,221.76a4.4,4.4,0,0,1-.27,1.58,3.73,3.73,0,0,1-.75,1.23,3.47,3.47,0,0,1-2.54,1.06h-.88l-.08-1h.74a3.16,3.16,0,0,0,1.29-.24,2.42,2.42,0,0,0,.88-.64,2.59,2.59,0,0,0,.51-.9,3.52,3.52,0,0,0,.17-1.07v-4h1v2.12a1,1,0,0,0,.35.83,1.36,1.36,0,0,0,.92.3h.17c.22,0,.33.18.33.51s-.11.53-.33.53h-.17a2,2,0,0,1-.71-.14,1.2,1.2,0,0,1-.59-.46Z"/><path class="cls-3" d="M596.9,221a1.32,1.32,0,0,0,.93-.31,1.1,1.1,0,0,0,.36-.87v-2.07h1v2.07A2,2,0,0,1,597,222h-1.41a.29.29,0,0,1-.27-.12.86.86,0,0,1-.06-.37,1.07,1.07,0,0,1,.06-.41.28.28,0,0,1,.27-.14Zm.6,3.87h-1.26v-1.09h1.26Z"/><path class="cls-3" d="M655.5,228v6L642,247.49,628.5,234v-6l4.5-4.5h6l3,3,3-3h6Z"/><rect class="cls-4" x="624" y="216" width="36" height="36"/><path class="cls-2" d="M641.22,300a2.67,2.67,0,0,1-.75-.11,1.81,1.81,0,0,1-.64-.38,2,2,0,0,1-.44-.72,3.16,3.16,0,0,1-.16-1.1v-7h1v6.81a1.77,1.77,0,0,0,.28,1,1,1,0,0,0,.91.41h.25c.22,0,.33.18.33.51s-.11.53-.33.53Z"/><path class="cls-2" d="M643.11,290.7h1v5.69c0,.37,0,.73,0,1.09a10.77,10.77,0,0,1,1.74-2.2,3.39,3.39,0,0,1,1.61-.89,1.15,1.15,0,0,1,.32,0l.32,0a2.35,2.35,0,0,1,.94.29,2.77,2.77,0,0,1,.73.63,3,3,0,0,1,.46.88,3.3,3.3,0,0,1,.17,1.05,2.49,2.49,0,0,1-.35,1.31,1.13,1.13,0,0,0,.64.36,5.06,5.06,0,0,0,.83,0h.21a.27.27,0,0,1,.26.13.81.81,0,0,1,.07.38.79.79,0,0,1-.07.4.25.25,0,0,1-.26.13H651a2.14,2.14,0,0,1-.49-.07,2.58,2.58,0,0,1-.49-.21,1.49,1.49,0,0,1-.47-.38,2.61,2.61,0,0,1-.79.48,2.71,2.71,0,0,1-1.06.19h-6a.27.27,0,0,1-.26-.12.71.71,0,0,1-.07-.37.89.89,0,0,1,.07-.41.26.26,0,0,1,.26-.14h1.47Zm6.26,6.54a2.2,2.2,0,0,0-.13-.73,1.87,1.87,0,0,0-.35-.58,1.5,1.5,0,0,0-.54-.39,1.45,1.45,0,0,0-.66-.14,2.46,2.46,0,0,0-1.65.83,15.28,15.28,0,0,0-2,2.73h3.64a2.16,2.16,0,0,0,.62-.09,1.45,1.45,0,0,0,.53-.32,1.52,1.52,0,0,0,.37-.54A1.79,1.79,0,0,0,649.37,297.24Z"/><path class="cls-2" d="M656,299.11a6.94,6.94,0,0,1-.75.4,3.88,3.88,0,0,1-.79.28,7,7,0,0,1-.92.16c-.33,0-.71.05-1.14.05h-.74a.27.27,0,0,1-.26-.12.71.71,0,0,1-.07-.37.89.89,0,0,1,.07-.41.26.26,0,0,1,.26-.14h.75c.39,0,.74,0,1,0s.57-.07.82-.12a5.33,5.33,0,0,0,.71-.22,3.93,3.93,0,0,0,.67-.35l2.54-1.46a5.28,5.28,0,0,0-.26-.58,1.37,1.37,0,0,0-.34-.44,1.28,1.28,0,0,0-.5-.28,2.31,2.31,0,0,0-.75-.1H653l.09-1h3.41a4.56,4.56,0,0,1,.8.09,1.91,1.91,0,0,1,.78.39,3,3,0,0,1,.69.86,5.79,5.79,0,0,1,.53,1.52Zm0-6.46h-1.26v-1.1h1.26Z"/><path class="cls-2" d="M641.22,300a2.67,2.67,0,0,1-.75-.11,1.81,1.81,0,0,1-.64-.38,2,2,0,0,1-.44-.72,3.16,3.16,0,0,1-.16-1.1v-7h1v6.81a1.77,1.77,0,0,0,.28,1,1,1,0,0,0,.91.41h.25c.22,0,.33.18.33.51s-.11.53-.33.53Z"/><path class="cls-2" d="M643.11,290.7h1v5.69c0,.37,0,.73,0,1.09a10.77,10.77,0,0,1,1.74-2.2,3.39,3.39,0,0,1,1.61-.89,1.15,1.15,0,0,1,.32,0l.32,0a2.35,2.35,0,0,1,.94.29,2.77,2.77,0,0,1,.73.63,3,3,0,0,1,.46.88,3.3,3.3,0,0,1,.17,1.05,2.49,2.49,0,0,1-.35,1.31,1.13,1.13,0,0,0,.64.36,5.06,5.06,0,0,0,.83,0h.21a.27.27,0,0,1,.26.13.81.81,0,0,1,.07.38.79.79,0,0,1-.07.4.25.25,0,0,1-.26.13H651a2.14,2.14,0,0,1-.49-.07,2.58,2.58,0,0,1-.49-.21,1.49,1.49,0,0,1-.47-.38,2.61,2.61,0,0,1-.79.48,2.71,2.71,0,0,1-1.06.19h-6a.27.27,0,0,1-.26-.12.71.71,0,0,1-.07-.37.89.89,0,0,1,.07-.41.26.26,0,0,1,.26-.14h1.47Zm6.26,6.54a2.2,2.2,0,0,0-.13-.73,1.87,1.87,0,0,0-.35-.58,1.5,1.5,0,0,0-.54-.39,1.45,1.45,0,0,0-.66-.14,2.46,2.46,0,0,0-1.65.83,15.28,15.28,0,0,0-2,2.73h3.64a2.16,2.16,0,0,0,.62-.09,1.45,1.45,0,0,0,.53-.32,1.52,1.52,0,0,0,.37-.54A1.79,1.79,0,0,0,649.37,297.24Z"/><path class="cls-2" d="M656,299.11a6.94,6.94,0,0,1-.75.4,3.88,3.88,0,0,1-.79.28,7,7,0,0,1-.92.16c-.33,0-.71.05-1.14.05h-.74a.27.27,0,0,1-.26-.12.71.71,0,0,1-.07-.37.89.89,0,0,1,.07-.41.26.26,0,0,1,.26-.14h.75c.39,0,.74,0,1,0s.57-.07.82-.12a5.33,5.33,0,0,0,.71-.22,3.93,3.93,0,0,0,.67-.35l2.54-1.46a5.28,5.28,0,0,0-.26-.58,1.37,1.37,0,0,0-.34-.44,1.28,1.28,0,0,0-.5-.28,2.31,2.31,0,0,0-.75-.1H653l.09-1h3.41a4.56,4.56,0,0,1,.8.09,1.91,1.91,0,0,1,.78.39,3,3,0,0,1,.69.86,5.79,5.79,0,0,1,.53,1.52Zm0-6.46h-1.26v-1.1h1.26Z"/></g></svg>