<svg xmlns="http://www.w3.org/2000/svg" viewBox="0 0 864 504"><defs><style>.cls-1{fill:#f5f1f0;}.cls-2{fill:#bdb9b9;}.cls-3{fill:none;}</style></defs><title>material-19</title><g id="Layer_1" data-name="Layer 1"><path class="cls-1" d="M682.5,193.5v81h-501v-81h501M684,192H180v84H684V192Z"/><rect class="cls-2" x="180" y="275" width="504" height="0.5"/><path class="cls-2" d="M511.85,244.18a6.26,6.26,0,0,0,1.87-.27,4.77,4.77,0,0,0,1.5-.73,3.76,3.76,0,0,0,1-1.1,2.65,2.65,0,0,0,.37-1.36,1.66,1.66,0,0,0-.36-1.09,1.75,1.75,0,0,0-1.41-.45h-4.18V235a4.16,4.16,0,0,1,1.06-3,3.77,3.77,0,0,1,2.92-1.14h2.76l.12,1.65h-3a2.59,2.59,0,0,0-.88.16,2.1,2.1,0,0,0-.74.46,2.13,2.13,0,0,0-.53.74,2.41,2.41,0,0,0-.21,1v2.55h2.93a4,4,0,0,1,1.48.23,2.34,2.34,0,0,1,.93.62,2,2,0,0,1,.48.92,4.6,4.6,0,0,1,.14,1.13,4.73,4.73,0,0,1-.48,2.11,5.47,5.47,0,0,1-1.3,1.71,6.16,6.16,0,0,1-1.93,1.14,6.68,6.68,0,0,1-2.37.42h-2a5.29,5.29,0,0,1-4.17-1.66,6.53,6.53,0,0,1-1.49-4.53v-4.2h1.54v4.15a6.41,6.41,0,0,0,.25,1.87,3.85,3.85,0,0,0,.79,1.45,3.52,3.52,0,0,0,1.36,1,5.21,5.21,0,0,0,2,.34Z"/><path class="cls-2" d="M529.51,234.29a4.52,4.52,0,0,1,.9,1.38,3.42,3.42,0,0,1,.28,1.33,2.8,2.8,0,0,1-.93,2.15,3.71,3.71,0,0,1-2.62.85h-6.7l-.12-1.66h6.62a2.21,2.21,0,0,0,1.46-.43,1.41,1.41,0,0,0,.51-1.13,1.83,1.83,0,0,0-.17-.74,2.61,2.61,0,0,0-.5-.77l-4.46-5,1.22-1.15Z"/><path class="cls-2" d="M535.39,244.18a4.82,4.82,0,0,0,1.86-.34,3.87,3.87,0,0,0,2.2-2.24,5.71,5.71,0,0,0,.34-1.6h-2.41a6.67,6.67,0,0,1-2-.26,2.93,2.93,0,0,1-1.25-.77,2.88,2.88,0,0,1-.64-1.21,6.58,6.58,0,0,1-.18-1.6,5.5,5.5,0,0,1,.27-1.73,4.34,4.34,0,0,1,.77-1.44,3.54,3.54,0,0,1,1.26-1,3.84,3.84,0,0,1,1.74-.38,4.29,4.29,0,0,1,1.51.27,3.3,3.3,0,0,1,1.27.83,4,4,0,0,1,.88,1.46,6.58,6.58,0,0,1,.32,2.17v3.27a6.91,6.91,0,0,1-.4,2.35,6,6,0,0,1-1.13,2A5.38,5.38,0,0,1,538,245.3a5.61,5.61,0,0,1-2.42.51H533l-.14-1.63Zm-.6-8.12a3.93,3.93,0,0,0,.13,1,1.54,1.54,0,0,0,.46.7,2.06,2.06,0,0,0,.88.41,6,6,0,0,0,1.39.13h2.16v-1.8a3.71,3.71,0,0,0-.7-2.54,2.46,2.46,0,0,0-1.92-.77,2.14,2.14,0,0,0-1.77.77A3.15,3.15,0,0,0,534.79,236.06Z"/><path class="cls-2" d="M541.39,244.18h.48a4.76,4.76,0,0,0,2-.39,3.77,3.77,0,0,0,1.38-1,4.12,4.12,0,0,0,.8-1.45,5.36,5.36,0,0,0,.27-1.7v-6.48h1.56v6.48a6.86,6.86,0,0,1-.45,2.53,5.85,5.85,0,0,1-1.21,1.95,5.19,5.19,0,0,1-1.81,1.26,5.68,5.68,0,0,1-2.27.45h-.6Z"/><path class="cls-2" d="M552.74,244.18a4.82,4.82,0,0,0,1.86-.34,3.87,3.87,0,0,0,2.2-2.24,5.71,5.71,0,0,0,.34-1.6h-2.4a6.7,6.7,0,0,1-2-.26,3,3,0,0,1-1.25-.77,2.86,2.86,0,0,1-.63-1.21,6.58,6.58,0,0,1-.18-1.6,5.49,5.49,0,0,1,.26-1.73,4.53,4.53,0,0,1,.77-1.44,3.54,3.54,0,0,1,1.26-1,3.84,3.84,0,0,1,1.74-.38,4.25,4.25,0,0,1,1.51.27,3.3,3.3,0,0,1,1.27.83,4,4,0,0,1,.88,1.46,6.58,6.58,0,0,1,.32,2.17v3.27a7.15,7.15,0,0,1-.39,2.35,6.26,6.26,0,0,1-1.14,2,5.38,5.38,0,0,1-1.83,1.35,5.61,5.61,0,0,1-2.42.51h-2.55l-.14-1.63Zm-.6-8.12a3.54,3.54,0,0,0,.14,1,1.44,1.44,0,0,0,.45.7,2.06,2.06,0,0,0,.88.41,6,6,0,0,0,1.39.13h2.16v-1.8a3.71,3.71,0,0,0-.7-2.54,2.46,2.46,0,0,0-1.92-.77,2.16,2.16,0,0,0-1.77.77A3.15,3.15,0,0,0,552.14,236.06Z"/><path class="cls-2" d="M579.94,240a3,3,0,0,1-1.14-.22,2,2,0,0,1-.95-.74v.53a7,7,0,0,1-.41,2.4,6.12,6.12,0,0,1-1.16,2,5.52,5.52,0,0,1-1.84,1.35,5.68,5.68,0,0,1-2.45.51h-1.41a5.3,5.3,0,0,1-4.18-1.66,6.53,6.53,0,0,1-1.49-4.53v-4.2h1.54v4.15a6.41,6.41,0,0,0,.25,1.87,3.85,3.85,0,0,0,.79,1.45,3.52,3.52,0,0,0,1.36,1,5.23,5.23,0,0,0,2,.34h1a4.81,4.81,0,0,0,2-.38,3.94,3.94,0,0,0,2.24-2.46,5.39,5.39,0,0,0,.28-1.75v-6.45h1.54v3.38a1.66,1.66,0,0,0,.56,1.33,2.15,2.15,0,0,0,1.48.49h.26c.35,0,.53.28.53.82s-.18.84-.53.84Zm-7.83-7.39h-2v-1.75h2Z"/><path class="cls-2" d="M582,238.34a2.12,2.12,0,0,0,1.54-.5,1.85,1.85,0,0,0,.53-1.39v-3.31h1.56v3.31a2,2,0,0,0,.18.89,1.67,1.67,0,0,0,.46.58,1.82,1.82,0,0,0,.65.33,3.08,3.08,0,0,0,.75.09h.72c.37,0,.55.28.55.82s-.18.84-.55.84h-.77a4.09,4.09,0,0,1-1.61-.32,2.62,2.62,0,0,1-1.22-1.24,3,3,0,0,1-1.26,1.24A3.71,3.71,0,0,1,582,240H580.2a.43.43,0,0,1-.42-.19,1.31,1.31,0,0,1-.11-.6,1.52,1.52,0,0,1,.11-.65.43.43,0,0,1,.42-.22Zm2-8.28h-1.92v-1.7H584Zm3.05,0h-1.92v-1.7h1.92Z"/><path class="cls-2" d="M588.79,238.34a2,2,0,0,0,1.42-.45,1.62,1.62,0,0,0,.48-1.23v-.91a4.67,4.67,0,0,1,1.06-3.26,3.81,3.81,0,0,1,3-1.18,4.6,4.6,0,0,1,1.73.31,3.28,3.28,0,0,1,1.23.89,3.94,3.94,0,0,1,.74,1.37,6,6,0,0,1,.24,1.75,4.57,4.57,0,0,1-1.08,3.22,3.86,3.86,0,0,1-3,1.15,4.65,4.65,0,0,1-1.84-.37,2.78,2.78,0,0,1-1.4-1.33,2.85,2.85,0,0,1-.52.88,2.52,2.52,0,0,1-.65.52,2.29,2.29,0,0,1-.71.24,4.53,4.53,0,0,1-.71.06h-.38a.43.43,0,0,1-.42-.19,1.31,1.31,0,0,1-.11-.6,1.52,1.52,0,0,1,.11-.65.43.43,0,0,1,.42-.22Zm8.33-2.56a3.41,3.41,0,0,0-.55-2,2.17,2.17,0,0,0-1.9-.78c-1.66,0-2.5,1-2.5,2.9a2.37,2.37,0,0,0,.69,1.85,2.49,2.49,0,0,0,1.76.62,2.42,2.42,0,0,0,1.86-.67A2.62,2.62,0,0,0,597.12,235.78Z"/><path class="cls-2" d="M655.5,228v6L642,247.49,628.5,234v-6l4.5-4.5h6l3,3,3-3h6Z"/><rect class="cls-3" x="624" y="216" width="36" height="36"/></g></svg>