<svg xmlns="http://www.w3.org/2000/svg" viewBox="0 0 432 252"><defs><style>.cls-1{fill:#ff8873;}.cls-2{fill:#858282;}.cls-3{fill:#fff;}.cls-4{fill:none;}</style></defs><title>material-73</title><g id="Layer_1" data-name="Layer 1"><rect class="cls-1" x="282" y="108" width="72" height="36" rx="18"/><rect class="cls-2" x="78" y="108" width="72" height="36" rx="18"/><rect class="cls-3" x="81" y="111" width="30" height="30" rx="15"/><rect class="cls-3" x="321" y="111" width="30" height="30" rx="15"/><path class="cls-1" d="M342.88,118.94l2.12,2.12-12,12-6-6,2.12-2.12,3.88,3.88Z"/><rect class="cls-4" x="324" y="114" width="24" height="24"/><rect class="cls-4" x="84" y="114" width="24" height="24"/><path class="cls-2" d="M102.62,121.5l-4.5,4.5,4.5,4.5-2.12,2.12-4.5-4.5-4.5,4.5-2.12-2.12,4.5-4.5-4.5-4.5,2.12-2.12,4.5,4.5,4.5-4.5Z"/><rect x="372" y="114" width="24" height="24"/><rect x="351" y="125.75" width="21" height="0.5"/><path class="cls-3" d="M385.26,130.5h-1.65v-8l-2.44.84v-1.4l3.88-1.43h.21Z"/><rect x="324" y="66" width="24" height="24" transform="translate(414 -258) rotate(90)"/><rect x="335.75" y="90" width="0.5" height="30"/><path class="cls-3" d="M339.46,82.5h-6.69V81.36l3.31-3.62a8.17,8.17,0,0,0,1-1.33,2.12,2.12,0,0,0,.31-1.08,1.67,1.67,0,0,0-.4-1.15,1.41,1.41,0,0,0-1.08-.44,1.6,1.6,0,0,0-1.25.5,1.88,1.88,0,0,0-.44,1.34h-1.66a3.25,3.25,0,0,1,.41-1.64,2.86,2.86,0,0,1,1.18-1.13,3.77,3.77,0,0,1,1.78-.4,3.34,3.34,0,0,1,2.28.73,2.5,2.5,0,0,1,.84,2,3.39,3.39,0,0,1-.42,1.56,8.63,8.63,0,0,1-1.38,1.86l-2.43,2.6h4.62Z"/><rect x="240" y="114" width="24" height="24" transform="translate(504 252) rotate(180)"/><rect x="264" y="125.75" width="18" height="0.5"/><path class="cls-3" d="M250.69,124.76h1a1.78,1.78,0,0,0,1.21-.39,1.42,1.42,0,0,0,.45-1.13,1.53,1.53,0,0,0-.37-1.1,1.48,1.48,0,0,0-1.14-.4,1.57,1.57,0,0,0-1.1.39,1.28,1.28,0,0,0-.43,1h-1.66a2.54,2.54,0,0,1,.4-1.4,2.81,2.81,0,0,1,1.14-1,3.75,3.75,0,0,1,1.63-.35,3.43,3.43,0,0,1,2.34.75,2.61,2.61,0,0,1,.85,2.08,2.07,2.07,0,0,1-.43,1.26,2.59,2.59,0,0,1-1.1.89,2.34,2.34,0,0,1,1.68,2.32,2.67,2.67,0,0,1-.92,2.13,3.58,3.58,0,0,1-2.42.8,3.54,3.54,0,0,1-2.35-.77,2.53,2.53,0,0,1-.92-2h1.66a1.4,1.4,0,0,0,.44,1.07,1.7,1.7,0,0,0,1.19.41,1.76,1.76,0,0,0,1.22-.41,1.83,1.83,0,0,0,0-2.4,2,2,0,0,0-1.38-.42h-1Z"/><rect x="168" y="114" width="24" height="24"/><rect x="150" y="125.75" width="18" height="0.5"/><path class="cls-3" d="M182.39,127h1.23v1.34h-1.23v2.21h-1.67v-2.21h-4.3l0-1,4.29-6.72h1.72Zm-4.27,0h2.6V122.8l-.12.21Z"/><rect x="84" y="162" width="24" height="24" transform="translate(270 78) rotate(90)"/><rect x="95.75" y="132" width="0.5" height="30"/><path class="cls-3" d="M93.21,173.56l.54-5H99.1V170h-4l-.27,2.38a3.12,3.12,0,0,1,1.56-.4,2.81,2.81,0,0,1,2.21.91,3.66,3.66,0,0,1,.79,2.45,3.3,3.3,0,0,1-.88,2.42,3.18,3.18,0,0,1-2.4.9,3.32,3.32,0,0,1-2.26-.78,2.81,2.81,0,0,1-1-2.05h1.61a1.71,1.71,0,0,0,.52,1.11,1.57,1.57,0,0,0,1.11.39,1.42,1.42,0,0,0,1.19-.55,2.38,2.38,0,0,0,.43-1.49,2.13,2.13,0,0,0-.47-1.44,1.67,1.67,0,0,0-1.3-.53,2.18,2.18,0,0,0-.77.12,2.14,2.14,0,0,0-.68.47Z"/><rect x="36" y="114" width="24" height="24" transform="translate(96 252) rotate(180)"/><rect x="60" y="125.75" width="21" height="0.5"/><path class="cls-3" d="M49.93,120.5v1.37h-.2a3.33,3.33,0,0,0-2.23.77,3.17,3.17,0,0,0-1,2.11,2.68,2.68,0,0,1,2-.84,2.57,2.57,0,0,1,2.09.93,3.71,3.71,0,0,1,.76,2.4,3.46,3.46,0,0,1-.89,2.46,3.13,3.13,0,0,1-2.35.94,3,3,0,0,1-2.41-1.1,4.34,4.34,0,0,1-.93-2.89v-.57A6.1,6.1,0,0,1,46.1,122a4.56,4.56,0,0,1,3.66-1.48Zm-1.78,4.75a1.71,1.71,0,0,0-1,.31,1.8,1.8,0,0,0-.67.82v.5a3,3,0,0,0,.47,1.76,1.46,1.46,0,0,0,2.37.1,2.27,2.27,0,0,0,.43-1.45,2.36,2.36,0,0,0-.44-1.47A1.39,1.39,0,0,0,48.15,125.25Z"/></g></svg>