<svg xmlns="http://www.w3.org/2000/svg" viewBox="0 0 432 252"><defs><style>.cls-1{fill:#dbd8d7;}.cls-2{fill:#fff;}.cls-3{fill:none;}.cls-4{fill:#bdb9b9;}</style></defs><title>material-74</title><g id="Layer_2" data-name="Layer 2"><rect class="cls-1" width="432" height="252"/></g><g id="Layer_1" data-name="Layer 1"><path class="cls-2" d="M234,144.5H198a18.5,18.5,0,0,1,0-37h36a18.5,18.5,0,0,1,0,37Zm-36-36a17.5,17.5,0,0,0,0,35h36a17.5,17.5,0,0,0,0-35Z"/><path class="cls-2" d="M234,141.5A15.5,15.5,0,1,1,249.5,126,15.51,15.51,0,0,1,234,141.5Zm0-30A14.5,14.5,0,1,0,248.5,126,14.51,14.51,0,0,0,234,111.5Z"/><path class="cls-2" d="M240.88,118.94l2.12,2.12-12,12-6-6,2.12-2.12,3.88,3.88Z"/><rect class="cls-3" x="222" y="114" width="24" height="24"/><rect x="146.99" y="113.74" width="24.01" height="0.5"/><rect x="158.75" y="113.99" width="0.5" height="24.01"/><rect x="146.98" y="137.7" width="24.01" height="0.5" transform="translate(-0.27 0.31) rotate(-0.11)"/><path d="M136.27,129.5h-1.09v-7.22l-2.18.8v-1l3.1-1.17h.17Z"/><path d="M143.7,121v.92h-.2a2.8,2.8,0,0,0-2,.75,3.11,3.11,0,0,0-.87,2,2.3,2.3,0,0,1,1.84-.77,2.23,2.23,0,0,1,1.78.78,3.06,3.06,0,0,1,.66,2,3,3,0,0,1-.72,2.11,2.65,2.65,0,0,1-3.91-.15,3.78,3.78,0,0,1-.76-2.42v-.42a5.61,5.61,0,0,1,1-3.6,3.65,3.65,0,0,1,3-1.27Zm-1.42,3.84a1.75,1.75,0,0,0-1,.33,1.82,1.82,0,0,0-.65.84v.4a2.79,2.79,0,0,0,.48,1.7,1.41,1.41,0,0,0,1.18.64,1.37,1.37,0,0,0,1.15-.54,2.23,2.23,0,0,0,.42-1.41,2.26,2.26,0,0,0-.42-1.42A1.37,1.37,0,0,0,142.28,124.81Z"/><rect x="251.75" y="152.99" width="0.5" height="24.01"/><rect x="250.25" y="163.5" width="0.5" height="3" transform="translate(85.1 415.23) rotate(-89.91)"/><rect x="248.76" y="152.98" width="0.5" height="24.01"/><rect x="248.76" y="152.99" width="0.5" height="24.01"/><rect x="218.75" y="152.99" width="0.5" height="24.01"/><rect x="219" y="164.75" width="30.01" height="0.5"/><rect x="251.75" y="75" width="0.5" height="24.01"/><rect x="179.75" y="75" width="0.5" height="24.01"/><rect x="180" y="86.76" width="72" height="0.5"/><path d="M253.43,189h-5.59v-.78l2.95-3.28a7.36,7.36,0,0,0,.91-1.21,2.08,2.08,0,0,0,.25-1,1.54,1.54,0,0,0-.41-1.1,1.4,1.4,0,0,0-1.08-.43,1.68,1.68,0,0,0-1.25.46,1.77,1.77,0,0,0-.45,1.28h-1.09a2.53,2.53,0,0,1,.76-1.9,2.81,2.81,0,0,1,2-.73,2.67,2.67,0,0,1,1.88.63,2.1,2.1,0,0,1,.7,1.66,4.89,4.89,0,0,1-1.61,3l-2.28,2.48h4.28Z"/><path d="M233.56,189H228v-.78l3-3.28a6.66,6.66,0,0,0,.9-1.21,2,2,0,0,0,.25-1,1.54,1.54,0,0,0-.4-1.1,1.4,1.4,0,0,0-1.08-.43,1.71,1.71,0,0,0-1.26.46,1.77,1.77,0,0,0-.45,1.28h-1.08a2.49,2.49,0,0,1,.76-1.9,2.79,2.79,0,0,1,2-.73,2.69,2.69,0,0,1,1.88.63,2.12,2.12,0,0,1,.69,1.66,4.87,4.87,0,0,1-1.6,3l-2.29,2.48h4.28Z"/><path d="M240.06,185.36a4.91,4.91,0,0,1-.65,2.83,2.69,2.69,0,0,1-4,0,4.62,4.62,0,0,1-.68-2.7v-1.45a4.79,4.79,0,0,1,.65-2.79,2.33,2.33,0,0,1,2-.92,2.35,2.35,0,0,1,2,.88,4.64,4.64,0,0,1,.67,2.73ZM239,183.88a4,4,0,0,0-.39-2,1.5,1.5,0,0,0-2.44,0,4,4,0,0,0-.39,1.93v1.73a4.12,4.12,0,0,0,.4,2,1.34,1.34,0,0,0,1.22.66,1.3,1.3,0,0,0,1.19-.62,3.87,3.87,0,0,0,.41-2Z"/><path d="M214.55,72.13h1.18V73h-1.18v2h-1.09V73h-3.89v-.64l3.82-5.91h1.16Zm-3.75,0h2.66V68l-.13.24Z"/><path d="M221.88,68.7a2,2,0,0,1-.33,1.13,2.34,2.34,0,0,1-.92.78,2.4,2.4,0,0,1,1.06.84,2.11,2.11,0,0,1,.39,1.25,2.22,2.22,0,0,1-.75,1.76,3.26,3.26,0,0,1-3.93,0,2.23,2.23,0,0,1-.74-1.76,2.19,2.19,0,0,1,.37-1.25,2.37,2.37,0,0,1,1.05-.84,2.28,2.28,0,0,1-.9-.78,2,2,0,0,1-.32-1.13,2.24,2.24,0,0,1,.69-1.72,2.94,2.94,0,0,1,3.64,0A2.24,2.24,0,0,1,221.88,68.7Zm-.88,4a1.54,1.54,0,0,0-.46-1.16,1.59,1.59,0,0,0-1.18-.45,1.51,1.51,0,0,0-1.62,1.61,1.52,1.52,0,0,0,.43,1.15,1.69,1.69,0,0,0,1.2.41,1.61,1.61,0,0,0,1.19-.42A1.51,1.51,0,0,0,221,72.67Zm-1.63-5.43a1.39,1.39,0,0,0-1,.4,1.45,1.45,0,0,0-.39,1.07,1.42,1.42,0,0,0,.39,1.05,1.52,1.52,0,0,0,2.08,0,1.42,1.42,0,0,0,.39-1.05,1.46,1.46,0,0,0-.41-1.06A1.37,1.37,0,0,0,219.37,67.24Z"/><rect class="cls-4" x="251.75" y="151.52" width="0.5" height="1.5"/><path class="cls-4" d="M252.25,148.52h-.5v-3h.5Zm0-6h-.5v-3h.5Zm0-6h-.5v-3h.5Zm0-6h-.5v-3h.5Zm0-6h-.5v-3h.5Zm0-6h-.5v-3h.5Zm0-6h-.5v-3h.5Zm0-6h-.5v-3h.5Z"/><rect class="cls-4" x="251.75" y="99" width="0.5" height="1.5"/><rect class="cls-4" x="248.75" y="151.52" width="0.5" height="1.5"/><path class="cls-4" d="M249.25,148.52h-.5v-3h.5Zm0-6h-.5v-3h.5Zm0-6h-.5v-3h.5Zm0-6h-.5v-3h.5Zm0-6h-.5v-3h.5Zm0-6h-.5v-3h.5Zm0-6h-.5v-3h.5Zm0-6h-.5v-3h.5Z"/><rect class="cls-4" x="248.75" y="99" width="0.5" height="1.5"/><rect class="cls-4" x="218.75" y="151.52" width="0.5" height="1.5"/><path class="cls-4" d="M219.25,148.52h-.5v-3h.5Zm0-6h-.5v-3h.5Zm0-6h-.5v-3h.5Zm0-6h-.5v-3h.5Zm0-6h-.5v-3h.5Zm0-6h-.5v-3h.5Zm0-6h-.5v-3h.5Zm0-6h-.5v-3h.5Z"/><rect class="cls-4" x="218.75" y="99" width="0.5" height="1.5"/><rect class="cls-4" x="171" y="113.75" width="1.5" height="0.5"/><path class="cls-4" d="M241.62,114.25h-2.88v-.5h2.88Zm-5.76,0H233v-.5h2.88Zm-5.76,0h-2.88v-.5h2.88Zm-5.76,0h-2.88v-.5h2.88Zm-5.76,0H215.7v-.5h2.88Zm-5.76,0h-2.88v-.5h2.88Zm-5.76,0h-2.88v-.5h2.88Zm-5.76,0h-2.88v-.5h2.88Zm-5.76,0h-2.88v-.5h2.88Zm-5.76,0H186.9v-.5h2.88Zm-5.76,0h-2.88v-.5H184Zm-5.76,0h-2.88v-.5h2.88Z"/><rect class="cls-4" x="244.5" y="113.75" width="1.5" height="0.5"/><rect class="cls-4" x="234" y="110.75" width="1.5" height="0.5"/><path class="cls-4" d="M262.77,111.25h-2.72v-.5h2.72Zm-5.45,0h-2.73v-.5h2.73Zm-5.46,0h-2.72v-.5h2.72Zm-5.45,0h-2.73v-.5h2.73Zm-5.46,0h-2.72v-.5H241Z"/><rect class="cls-4" x="265.5" y="110.75" width="1.5" height="0.5"/><rect class="cls-4" x="234" y="107.75" width="1.5" height="0.5"/><path class="cls-4" d="M262.77,108.25h-2.72v-.5h2.72Zm-5.45,0h-2.73v-.5h2.73Zm-5.46,0h-2.72v-.5h2.72Zm-5.45,0h-2.73v-.5h2.73Zm-5.46,0h-2.72v-.5H241Z"/><rect class="cls-4" x="265.5" y="107.75" width="1.5" height="0.5"/><rect class="cls-4" x="234" y="143.75" width="1.5" height="0.5"/><path class="cls-4" d="M262.77,144.25h-2.72v-.5h2.72Zm-5.45,0h-2.73v-.5h2.73Zm-5.46,0h-2.72v-.5h2.72Zm-5.45,0h-2.73v-.5h2.73Zm-5.46,0h-2.72v-.5H241Z"/><rect class="cls-4" x="265.5" y="143.75" width="1.5" height="0.5"/><rect class="cls-4" x="234" y="140.75" width="1.5" height="0.5"/><path class="cls-4" d="M262.77,141.25h-2.72v-.5h2.72Zm-5.45,0h-2.73v-.5h2.73Zm-5.46,0h-2.72v-.5h2.72Zm-5.45,0h-2.73v-.5h2.73Zm-5.46,0h-2.72v-.5H241Z"/><rect class="cls-4" x="265.5" y="140.75" width="1.5" height="0.5"/><rect class="cls-4" x="171" y="137.75" width="1.5" height="0.5"/><path class="cls-4" d="M241.62,138.25h-2.88v-.5h2.88Zm-5.76,0H233v-.5h2.88Zm-5.76,0h-2.88v-.5h2.88Zm-5.76,0h-2.88v-.5h2.88Zm-5.76,0H215.7v-.5h2.88Zm-5.76,0h-2.88v-.5h2.88Zm-5.76,0h-2.88v-.5h2.88Zm-5.76,0h-2.88v-.5h2.88Zm-5.76,0h-2.88v-.5h2.88Zm-5.76,0H186.9v-.5h2.88Zm-5.76,0h-2.88v-.5H184Zm-5.76,0h-2.88v-.5h2.88Z"/><rect class="cls-4" x="244.5" y="137.75" width="1.5" height="0.5"/><path class="cls-4" d="M246.25,138.25h-24.5v-24.5h24.5Zm-24-.5h23.5v-23.5h-23.5Z"/><rect x="263.99" y="107.75" width="24.01" height="0.5"/><rect x="274.5" y="109.25" width="3" height="0.5" transform="translate(165.96 385.28) rotate(-89.89)"/><rect x="263.98" y="110.74" width="24.01" height="0.5"/><rect x="263.99" y="110.74" width="24.01" height="0.5"/><rect x="263.99" y="140.75" width="24.01" height="0.5"/><rect x="274.5" y="142.25" width="3" height="0.5" transform="translate(132.96 418.22) rotate(-89.89)"/><rect x="263.99" y="143.74" width="24.01" height="0.5"/><rect x="275.75" y="110.99" width="0.5" height="30.01"/><rect x="263.98" y="140.69" width="24.01" height="0.5" transform="translate(-0.34 0.67) rotate(-0.14)"/><path d="M300.3,113h-5.59v-.78l3-3.28a7.36,7.36,0,0,0,.91-1.21,2.12,2.12,0,0,0,.25-1,1.52,1.52,0,0,0-.41-1.09,1.4,1.4,0,0,0-1.08-.43,1.65,1.65,0,0,0-1.25.46,1.75,1.75,0,0,0-.45,1.28h-1.09a2.55,2.55,0,0,1,.76-1.91,2.85,2.85,0,0,1,2-.72,2.71,2.71,0,0,1,1.88.62,2.11,2.11,0,0,1,.7,1.66,4.89,4.89,0,0,1-1.61,3L296,112.12h4.28Z"/><path d="M300.3,146h-5.59v-.78l3-3.28a7.36,7.36,0,0,0,.91-1.21,2.12,2.12,0,0,0,.25-1,1.52,1.52,0,0,0-.41-1.09,1.4,1.4,0,0,0-1.08-.43,1.65,1.65,0,0,0-1.25.46,1.75,1.75,0,0,0-.45,1.28h-1.09a2.55,2.55,0,0,1,.76-1.91,2.85,2.85,0,0,1,2-.72,2.71,2.71,0,0,1,1.88.62,2.11,2.11,0,0,1,.7,1.66,4.89,4.89,0,0,1-1.61,3L296,145.12h4.28Z"/><path d="M300.3,129.5h-5.59v-.78l3-3.28a7,7,0,0,0,.91-1.21,2.08,2.08,0,0,0,.25-1,1.54,1.54,0,0,0-.41-1.1,1.44,1.44,0,0,0-1.08-.43,1.68,1.68,0,0,0-1.25.46,1.77,1.77,0,0,0-.45,1.28h-1.09a2.53,2.53,0,0,1,.76-1.9,2.85,2.85,0,0,1,2-.73,2.67,2.67,0,0,1,1.88.63,2.1,2.1,0,0,1,.7,1.66,4.89,4.89,0,0,1-1.61,3L296,128.62h4.28Z"/><path d="M306.8,125.86a5,5,0,0,1-.65,2.83,2.7,2.7,0,0,1-4.06,0,4.7,4.7,0,0,1-.68-2.7v-1.45a4.87,4.87,0,0,1,.65-2.79,2.74,2.74,0,0,1,4.07,0,4.66,4.66,0,0,1,.67,2.72Zm-1.09-1.48a4.08,4.08,0,0,0-.38-2,1.34,1.34,0,0,0-1.23-.63,1.31,1.31,0,0,0-1.21.63,3.74,3.74,0,0,0-.39,1.93V126a4,4,0,0,0,.4,2.05,1.46,1.46,0,0,0,2.41,0,3.84,3.84,0,0,0,.4-2Z"/></g></svg>