<?xml version="1.0" encoding="utf-8"?>
<!-- Generator: Adobe Illustrator 23.1.0, SVG Export Plug-In . SVG Version: 6.00 Build 0)  -->
<svg version="1.1" id="Layer_1" xmlns="http://www.w3.org/2000/svg" xmlns:xlink="http://www.w3.org/1999/xlink" x="0px" y="0px"
	 viewBox="0 0 432 252" style="enable-background:new 0 0 432 252;" xml:space="preserve">
<style type="text/css">
	.st0{fill:#FF8672;}
	.st1{fill:#FFFFFF;}
	.st2{fill:none;}
	.st3{fill:#949191;}
	.st4{fill:#FFFFFF;fill-opacity:0.16;}
</style>
<title>material-78</title>
<path class="st0" d="M318,144h-36c-9.9,0-18-8.1-18-18v0c0-9.9,8.1-18,18-18h36c9.9,0,18,8.1,18,18v0C336,135.9,327.9,144,318,144z"
	/>
<path class="st1" d="M318,141L318,141c-8.3,0-15-6.7-15-15v0c0-8.3,6.7-15,15-15l0,0c8.3,0,15,6.7,15,15v0
	C333,134.3,326.3,141,318,141z"/>
<g>
	<path class="st0" d="M324.9,118.9l2.1,2.1l-12,12l-6-6l2.1-2.1l3.9,3.9L324.9,118.9z"/>
	<rect x="306" y="114" class="st2" width="24" height="24"/>
</g>
<path class="st3" d="M150,144h-36c-9.9,0-18-8.1-18-18v0c0-9.9,8.1-18,18-18h36c9.9,0,18,8.1,18,18v0C168,135.9,159.9,144,150,144z"
	/>
<path class="st1" d="M114,141L114,141c-8.3,0-15-6.7-15-15v0c0-8.3,6.7-15,15-15h0c8.3,0,15,6.7,15,15v0
	C129,134.3,122.3,141,114,141z"/>
<g>
	<rect x="102" y="114" class="st2" width="24" height="24"/>
	<path class="st3" d="M120.6,121.5l-4.5,4.5l4.5,4.5l-2.1,2.1l-4.5-4.5l-4.5,4.5l-2.1-2.1l4.5-4.5l-4.5-4.5l2.1-2.1l4.5,4.5l4.5-4.5
		L120.6,121.5z"/>
</g>
<path class="st4" d="M318,144h-36c-9.9,0-18-8.1-18-18v0c0-9.9,8.1-18,18-18h36c9.9,0,18,8.1,18,18v0C336,135.9,327.9,144,318,144z"
	/>
</svg>
