<svg xmlns="http://www.w3.org/2000/svg" viewBox="0 0 432 252"><defs><style>.cls-1{fill:#ff8873;}.cls-2{fill:#fff;}.cls-3{fill:none;}.cls-4{fill:#858282;}</style></defs><title>material-76</title><g id="Layer_1" data-name="Layer 1"><rect class="cls-1" x="264" y="108" width="72" height="36" rx="18"/><rect class="cls-2" x="303" y="111" width="30" height="30" rx="15"/><path class="cls-1" d="M324.88,118.94l2.12,2.12-12,12-6-6,2.12-2.12,3.88,3.88Z"/><rect class="cls-3" x="306" y="114" width="24" height="24"/><rect class="cls-4" x="96" y="108" width="72" height="36" rx="18"/><rect class="cls-2" x="99" y="111" width="30" height="30" rx="15"/><rect class="cls-3" x="102" y="114" width="24" height="24"/><path class="cls-4" d="M120.62,121.5l-4.5,4.5,4.5,4.5-2.12,2.12-4.5-4.5-4.5,4.5-2.12-2.12,4.5-4.5-4.5-4.5,2.12-2.12,4.5,4.5,4.5-4.5Z"/></g></svg>