<svg xmlns="http://www.w3.org/2000/svg" xmlns:xlink="http://www.w3.org/1999/xlink" viewBox="0 0 504 504"><defs><style>.cls-1{fill:#061f6b;}.cls-2,.cls-4,.cls-5{fill:none;stroke-miterlimit:10;}.cls-2{stroke:#fff;stroke-dasharray:15 5;}.cls-3{fill:#4672e2;}.cls-4{stroke:url(#linear-gradient);}.cls-5{stroke:url(#linear-gradient-2);}</style><linearGradient id="linear-gradient" y1="175.76" x2="495.48" y2="175.76" gradientUnits="userSpaceOnUse"><stop offset="0" stop-color="#fff" stop-opacity="0"/><stop offset="0.51" stop-color="#fff"/><stop offset="1" stop-color="#fff" stop-opacity="0"/></linearGradient><linearGradient id="linear-gradient-2" y1="328.24" x2="495.48" y2="328.24" xlink:href="#linear-gradient"/></defs><g id="Graphics"><rect class="cls-1" x="108" y="108" width="288" height="288" rx="48"/><polygon class="cls-2" points="271.9 396 220.94 396 256.96 339.53 226.73 339.53 226.73 328.24 277.56 328.24 241.54 384.71 271.9 384.71 271.9 396"/><polygon class="cls-3" points="209.72 243.53 158.75 243.53 194.77 187.06 164.54 187.06 164.54 175.76 215.37 175.76 179.35 232.24 209.72 232.24 209.72 243.53"/><polygon class="cls-3" points="271.84 243.53 226.81 243.53 226.65 175.76 271.84 175.76 271.84 187.06 237.97 187.06 238.07 232.24 271.84 232.24 271.84 243.53"/><rect class="cls-3" x="232.31" y="204" width="39.53" height="11.29"/><polygon class="cls-3" points="333.95 243.53 288.78 243.53 288.78 175.76 333.95 175.76 333.95 187.06 300.07 187.06 300.07 232.24 333.95 232.24 333.95 243.53"/><rect class="cls-3" x="294.42" y="204" width="39.53" height="11.29"/><polygon class="cls-3" points="271.84 328.24 226.66 328.24 226.66 260.47 271.84 260.47 271.84 271.76 237.95 271.76 237.95 316.94 271.84 316.94 271.84 328.24"/><rect class="cls-3" x="232.31" y="288.71" width="39.53" height="11.29"/><polygon class="cls-3" points="339.6 328.24 328.78 328.24 300.07 282.47 300.07 328.24 288.78 328.24 288.78 260.47 299.6 260.47 328.31 306.23 328.31 260.47 339.6 260.47 339.6 328.24"/><polygon class="cls-2" points="271.9 175.76 220.94 175.76 256.96 119.29 226.73 119.29 226.73 108 277.56 108 241.54 164.47 271.9 164.47 271.9 175.76"/><line class="cls-4" x1="495.48" y1="175.76" y2="175.76"/><line class="cls-5" x1="495.48" y1="328.24" y2="328.24"/></g></svg>