<svg xmlns="http://www.w3.org/2000/svg" viewBox="0 0 1920 1080"><defs><style>.cls-1{fill:none;stroke:#000;stroke-miterlimit:10;stroke-width:12px;}</style></defs><g id="Graphics"><line class="cls-1" x1="654" y1="336" x2="654" y2="192"/><line class="cls-1" x1="654" y1="252" x2="696" y2="252"/><line class="cls-1" x1="654" y1="252" x2="686.22" y2="219.78"/><line class="cls-1" x1="650.62" y1="294" x2="630" y2="294"/><path class="cls-1" d="M660,276a18,18,0,0,1,0,36"/><path class="cls-1" d="M672,210a18,18,0,0,0-36,0"/><line class="cls-1" x1="858" y1="384" x2="726" y2="516"/><path class="cls-1" d="M756,396l-66,66v12a18,18,0,0,1-18,18H654V336H768A108,108,0,0,1,876,444v36h210a108,108,0,0,1,108,108V744H726V426"/><path class="cls-1" d="M1194,708h0a114,114,0,0,1-114-114V480"/><path class="cls-1" d="M696,336h0a42,42,0,0,1-42,42h0"/><path class="cls-1" d="M852.57,744A126.57,126.57,0,0,0,726,617.43"/><path class="cls-1" d="M876,480h156a0,0,0,0,1,0,0V590.42A45.58,45.58,0,0,1,986.42,636H921.58A45.58,45.58,0,0,1,876,590.42V480a0,0,0,0,1,0,0Z"/></g></svg>