<svg xmlns="http://www.w3.org/2000/svg" viewBox="0 0 1920 1080"><defs><style>.cls-1{fill:none;stroke:#000;stroke-miterlimit:10;stroke-width:18px;}.cls-2{fill:#d5d7d7;}</style></defs><g id="Graphics"><path d="M796,681.17a12.69,12.69,0,0,1-1,5.46,8.73,8.73,0,0,1-2.9,3.49,12,12,0,0,1-4.48,1.84,27.78,27.78,0,0,1-5.76.54,13.8,13.8,0,0,1-3.78-.51,9,9,0,0,1-3.15-1.6,8,8,0,0,1-2.16-2.72,8.76,8.76,0,0,1-.81-3.9,14,14,0,0,1,.38-3.12,19.23,19.23,0,0,1,.95-3,10.8,10.8,0,0,1,1.19-2.22c.42-.59.79-.88,1.12-.88.61,0,.91.42.91,1.26a3.37,3.37,0,0,1-.21,1c-.13.42-.29.89-.47,1.39s-.34,1-.47,1.58a6.28,6.28,0,0,0-.2,1.58,5,5,0,0,0,.69,2.76,4.81,4.81,0,0,0,1.83,1.64,7.76,7.76,0,0,0,2.56.79,20.31,20.31,0,0,0,2.93.21c.51,0,1.12,0,1.84-.07s1.46-.12,2.23-.23a18.52,18.52,0,0,0,2.29-.45,9.3,9.3,0,0,0,2.05-.76,4.65,4.65,0,0,0,1.46-1.17,2.52,2.52,0,0,0,.56-1.65,4.24,4.24,0,0,0-.42-1.55,16.63,16.63,0,0,0-1.1-2,23.18,23.18,0,0,0-1.49-2.12,19.85,19.85,0,0,0-1.58-1.8l2.39-4.86c.15-.33.34-.33.59,0C794.67,674,796,677.72,796,681.17Zm-9.32-12.11-3.38,3.33-3.28-3.33,3.28-3.24Z"/><path d="M804.53,678.83a14.25,14.25,0,0,1-1.71,5.3c-.33.64-.54,1-.63,1s-.35-.7-.49-2.12L799.58,659l4.18-3.46q.36-.36.54-.36c.16,0,.23.17.23.49Z"/><path d="M818.1,683.87a5.24,5.24,0,0,1-1.24-.45,16.59,16.59,0,0,1-1.44,7,13.41,13.41,0,0,1-1.1,1.87,20,20,0,0,1-1.31,1.66,11.26,11.26,0,0,1-1.19,1.2,1.63,1.63,0,0,1-.77.44c-1,0-2,0-3-.11s-2.1-.17-3-.29a16.9,16.9,0,0,1-2.34-.43c-.62-.16-.92-.35-.92-.56,0-.06.1-.13.31-.23a27.15,27.15,0,0,0,4.3-2,30.49,30.49,0,0,0,3.94-2.68,17.94,17.94,0,0,0,2.87-2.83,4.28,4.28,0,0,0,1.13-2.45,2.5,2.5,0,0,0-.34-1.11,10.13,10.13,0,0,0-.9-1.41,15,15,0,0,0-1.33-1.56c-.51-.52-1-1-1.57-1.55l2.39-4.81c0-.12.13-.19.22-.19s.18.08.27.23c2.28,3.06,4.36,4.59,6.26,4.59V684A5.62,5.62,0,0,1,818.1,683.87Z"/><path d="M819.25,684a4.32,4.32,0,0,1-.91-.09c-.26-.06-.4-.15-.4-.27v-5.13c0-.12.14-.21.4-.27a4.32,4.32,0,0,1,.91-.09h7.51c2.22,0,3.33-.4,3.33-1.21a3,3,0,0,0-.7-1.47c-.46-.64-1.09-1.43-1.86-2.36a.58.58,0,0,1,0-.76l2.65-3.7c.21-.32.43-.37.68-.13a6.15,6.15,0,0,1,1,1.37,11.36,11.36,0,0,1,.72,1.67,13.16,13.16,0,0,1,.45,1.8,11.08,11.08,0,0,1,.16,1.77,11.49,11.49,0,0,1-1.31,5.68,5.8,5.8,0,0,1-5.44,3.19Zm5.49,7L822,693.77,819.2,691l2.75-2.79Zm6.16,0-2.74,2.79L825.37,691l2.79-2.79Z"/><path d="M841.7,678.83a14.25,14.25,0,0,1-1.71,5.3c-.33.64-.54,1-.63,1s-.35-.7-.5-2.12L836.75,659l4.18-3.46q.36-.36.54-.36c.15,0,.23.17.23.49Z"/><path d="M863.48,682.42a15.34,15.34,0,0,1-2.63,8.76,20,20,0,0,1-1.33,1.75,11.85,11.85,0,0,1-1.24,1.28,1.69,1.69,0,0,1-.79.5c-1,0-2,0-3.08-.11s-2.11-.18-3-.29a20.71,20.71,0,0,1-2.31-.43c-.62-.17-.93-.34-.93-.52s.11-.13.32-.23a24.72,24.72,0,0,0,4.36-2,29.09,29.09,0,0,0,3.9-2.7,17,17,0,0,0,2.79-2.88,4.58,4.58,0,0,0,1-2.61,2.71,2.71,0,0,0-.38-1.19,10,10,0,0,0-1-1.56c-.4-.54-.84-1.06-1.3-1.57a12.69,12.69,0,0,0-1.38-1.31l2.21-4.63c.06-.15.15-.22.27-.22a.38.38,0,0,1,.27.13A13.52,13.52,0,0,1,863.48,682.42Zm-2-16.51-3.38,3.33-3.28-3.33,3.28-3.24Z"/><path d="M872,678.83a14.25,14.25,0,0,1-1.71,5.3c-.33.64-.54,1-.63,1s-.35-.7-.5-2.12L867.08,659l4.18-3.46q.36-.36.54-.36c.15,0,.23.17.23.49Z"/><path d="M900.2,684q-3.69,0-5.36-5.54L893,681.57q-8.82,0-8.82-3.06a5.89,5.89,0,0,1,.14-1.08c.09-.45.2-.91.34-1.39a10.18,10.18,0,0,1,.47-1.35,2.81,2.81,0,0,1,.54-.9,17.5,17.5,0,0,1,3-2.32,24.57,24.57,0,0,1,4-2l-.77-2.79,3.2-3.06c.12.33.34,1.3.67,2.92s.8,3.94,1.4,6.94c.12.54.25,1.08.38,1.64a5.17,5.17,0,0,0,.61,1.48,3.43,3.43,0,0,0,1,1.08,2.89,2.89,0,0,0,1.67.43h1.62V684Zm-6.93-11.7q-4.68,2-5.54,3.24.85,1.26,6.71,1.26Z"/><path d="M918.65,684a14.24,14.24,0,0,1-4.35-.61,10.63,10.63,0,0,1-3.66-2.09,13.44,13.44,0,0,1-7.83,2.7h-.36a4.16,4.16,0,0,1-.9-.09c-.27-.06-.41-.15-.41-.27v-5.13c0-.12.14-.21.41-.27a4.16,4.16,0,0,1,.9-.09h1.21a9.29,9.29,0,0,0,3-.32,6.64,6.64,0,0,1-1.49-3.55,7.11,7.11,0,0,1,.52-2.47,11,11,0,0,1,1.39-2.62,9.14,9.14,0,0,1,2-2,4.06,4.06,0,0,1,2.45-.84,3.56,3.56,0,0,1,2,.61,5.13,5.13,0,0,1,1.44,1.56,7.84,7.84,0,0,1,.85,2.06,8.63,8.63,0,0,1,.3,2.21,7.16,7.16,0,0,1-1.71,5.08c.3.22,1.44.32,3.42.32h1.35V684Zm-8.1-23.94-2.79,2.79L905,660.06l2.75-2.79Zm3.24,14a2.36,2.36,0,0,0-.25-1,3.27,3.27,0,0,0-.65-.92,3.71,3.71,0,0,0-.93-.68,2.28,2.28,0,0,0-1-.27,3.07,3.07,0,0,0-1.06.21,4.09,4.09,0,0,0-1,.56,3.76,3.76,0,0,0-.84.85,1.88,1.88,0,0,0-.33,1,1.67,1.67,0,0,0,.33.9,5.4,5.4,0,0,0,.81.92,5,5,0,0,0,1,.72,2,2,0,0,0,.9.3,2.38,2.38,0,0,0,.83-.21,3.88,3.88,0,0,0,1-.58,4.82,4.82,0,0,0,.83-.86A1.9,1.9,0,0,0,913.79,674Zm2.92-14L914,662.85l-2.79-2.79,2.79-2.79Z"/><path d="M931.38,684a7.73,7.73,0,0,1-3.37-.79,5.23,5.23,0,0,1-2.52-2.54,7,7,0,0,1-2.43,2.39,6.37,6.37,0,0,1-3.33.94h-.45a4.16,4.16,0,0,1-.9-.09c-.27-.06-.41-.15-.41-.27v-5.13c0-.12.14-.21.41-.27a4.16,4.16,0,0,1,.9-.09h.27a7.36,7.36,0,0,0,2.22-.4,3.84,3.84,0,0,0,1.65-1.08,5.92,5.92,0,0,0,1-2.75c.12-1,.48-1.48,1.08-1.48s.93.49,1.08,1.48a7,7,0,0,0,.85,2.75c.72,1,2,1.48,3.78,1.48h.5V684Zm-6.25,7-2.79,2.79L919.59,691l2.75-2.79Zm6.16,0-2.74,2.79L925.76,691l2.79-2.79Z"/><path d="M943.17,684a5.18,5.18,0,0,1-2.68-.79,4.32,4.32,0,0,1-1.86-2.09,5.78,5.78,0,0,1-2,2,4.73,4.73,0,0,1-2.52.83H931.7a4.16,4.16,0,0,1-.9-.09c-.27-.06-.41-.15-.41-.27v-5.13c0-.12.14-.21.41-.27a4.16,4.16,0,0,1,.9-.09h2.38c2.22,0,3.33-1,3.33-3.11,0-1.08,0-2.33-.09-3.77s-.15-3.08-.27-4.91-.23-3.4-.34-4.55a22.44,22.44,0,0,0-.29-2.33l4.41-4.15c.24-.23.36-.19.36.14V675q0,3.19,3.2,3.19h2.83V684Z"/><path d="M968.37,684a4.47,4.47,0,0,1-2.68-.79,7.26,7.26,0,0,1-2-2.36,7.06,7.06,0,0,1-2,2.36A4.49,4.49,0,0,1,959,684q-2.93,0-4.63-3.15a6,6,0,0,1-5.54,3.15h-1.62a4.16,4.16,0,0,1-.9-.09c-.27-.06-.4-.15-.4-.27v-5.13c0-.12.13-.21.4-.27a4.16,4.16,0,0,1,.9-.09h2.66a3.92,3.92,0,0,0,1.59-.27,2.44,2.44,0,0,0,1-.76,4,4,0,0,0,.63-1.22q.25-.72.48-1.62c.24-.93.6-1.4,1.08-1.4s.93.47,1.17,1.4c.12.51.24,1,.36,1.46a3.77,3.77,0,0,0,.54,1.24,2.47,2.47,0,0,0,1,.85,3.37,3.37,0,0,0,1.6.32,3.51,3.51,0,0,0,1.53-.29,2.7,2.7,0,0,0,1-.84,4.56,4.56,0,0,0,.61-1.23c.15-.47.3-1,.45-1.51.24-.93.64-1.4,1.21-1.4s.84.47,1.08,1.4c.09.54.2,1,.32,1.51A3.72,3.72,0,0,0,966,677a2.45,2.45,0,0,0,1,.83,3.58,3.58,0,0,0,1.66.32c1.89,0,2.84-.6,2.84-1.8A2.77,2.77,0,0,0,971,675c-.33-.54-.79-1.22-1.39-2.06l2-3.2c.21-.33.39-.49.54-.49s.26.1.41.31a10.7,10.7,0,0,1,1.35,2.68,9.38,9.38,0,0,1,.49,3,15.26,15.26,0,0,1-.29,2.82,10.31,10.31,0,0,1-1,2.81,6.56,6.56,0,0,1-1.87,2.18A4.63,4.63,0,0,1,968.37,684Z"/><path d="M992.54,684a5.13,5.13,0,0,1-4.69-2.5,7.88,7.88,0,0,1-1-2.45,14.47,14.47,0,0,1-.34-2.65c-.06-1-.11-2.18-.13-3.65s-.09-3.06-.19-4.77q-.22-3.47-.44-5.74c-.16-1.51-.26-2.6-.32-3.26l3.82-3.19a2.52,2.52,0,0,1,.77-.5c.12,0,.18.2.18.59V675q0,3.19,3.6,3.19h2V684Z"/><path d="M999.38,691.42,996,694.75l-3.29-3.33,3.29-3.23ZM995.82,684a4.16,4.16,0,0,1-.9-.09c-.27-.06-.4-.15-.4-.27v-5.13c0-.12.13-.21.4-.27a4.16,4.16,0,0,1,.9-.09h3c2.22,0,3.33-.4,3.33-1.21s-.85-2-2.56-3.83a.55.55,0,0,1-.14-.36.72.72,0,0,1,.14-.4l2.65-3.7c.12-.17.24-.27.36-.27a.47.47,0,0,1,.32.14,5.48,5.48,0,0,1,1,1.33,9.14,9.14,0,0,1,.72,1.69,14.17,14.17,0,0,1,.47,1.84,8.72,8.72,0,0,1,.19,1.75,10.68,10.68,0,0,1-1.78,6.44,5.81,5.81,0,0,1-5,2.43Z"/><path d="M873.93,729.81c0,2.76-.3,4.14-.91,4.16-.29,0-.44-.31-.44-.94a28.5,28.5,0,0,0-1-7.52,23.78,23.78,0,0,0-3.08-6.78l1.54-2.4a22.39,22.39,0,0,1,2.91,6.51A26.59,26.59,0,0,1,873.93,729.81Z"/><path d="M884,730.29c0,2.43-.3,3.66-.91,3.68-.3,0-.44-.31-.44-.94a18.79,18.79,0,0,0-.4-3.83,24.84,24.84,0,0,0-1.07-3.67,28.93,28.93,0,0,0-1.59-3.5q-.91-1.69-1.95-3.3l1.54-2.4c.29.46.56.88.79,1.26a6.64,6.64,0,0,0,.69,1,2.16,2.16,0,0,0,.79.6,2.54,2.54,0,0,0,1.1.21,1.64,1.64,0,0,0,1.32-.49,3,3,0,0,0,.59-1.07l.3-1.07c.08-.33.24-.49.47-.49s.31.15.36.44.13.62.22,1a2.91,2.91,0,0,0,.47,1,1.35,1.35,0,0,0,1.15.44,1.1,1.1,0,0,0,1-.44,3.25,3.25,0,0,0,.45-1c.11-.35.2-.67.29-1s.24-.44.47-.44.41.24.41.72c0,3-.93,4.57-2.77,4.57a2,2,0,0,1-.71-.12,3.3,3.3,0,0,1-.62-.32,2.46,2.46,0,0,1-.48-.41,1.23,1.23,0,0,1-.27-.38,2.18,2.18,0,0,1-1,1.17,3.24,3.24,0,0,1-1.49.35h-.36a1.34,1.34,0,0,1-.4-.07,32.35,32.35,0,0,1,1.51,4.44A16.12,16.12,0,0,1,884,730.29Z"/><path d="M903.35,731c-.14.72-.26,1.27-.36,1.67s-.16.69-.2.88a1.82,1.82,0,0,1-.1.35s0,.06-.06.06-.35-.26-.8-.77a7.3,7.3,0,0,1-1.25-2.22,10.62,10.62,0,0,1-.6-2.87q-.15-1.75-.15-3.84a11.63,11.63,0,0,1-2.81.35,5.48,5.48,0,0,1-1.24-.13,2.73,2.73,0,0,1-1-.44,2.18,2.18,0,0,1-.7-.87,3.07,3.07,0,0,1-.27-1.37A8.24,8.24,0,0,1,894,720a7.11,7.11,0,0,1,.68-1.84,4.87,4.87,0,0,1,1.13-1.43,2.39,2.39,0,0,1,1.62-.59q3.75,0,3.75,6.3a22.26,22.26,0,0,0,.54,5.31A6.8,6.8,0,0,0,903.35,731Zm-3.81-9.23a6.12,6.12,0,0,0-.23-1,3.69,3.69,0,0,0-.49-1,2.62,2.62,0,0,0-.74-.71,1.84,1.84,0,0,0-1-.27,2,2,0,0,0-1.33.52,1.79,1.79,0,0,0-.6,1.43,1.12,1.12,0,0,0,.73,1.12,4.07,4.07,0,0,0,1.57.3,6.92,6.92,0,0,0,1.22-.11A2.81,2.81,0,0,0,899.54,721.78Z"/><path d="M913.37,730.29c0,2.43-.3,3.66-.91,3.68-.3,0-.44-.31-.44-.94a18.79,18.79,0,0,0-.4-3.83,24.84,24.84,0,0,0-1.07-3.67A28.93,28.93,0,0,0,909,722q-.91-1.69-2-3.3l1.54-2.4c.25.38.52.75.79,1.12a7,7,0,0,0,.88,1,3.85,3.85,0,0,0,1,.67,3.13,3.13,0,0,0,1.29.26,4.32,4.32,0,0,0,2.36-.62,4,4,0,0,0,1.52-1.87c.14-.4.34-.6.59-.6a.31.31,0,0,1,.27.16.82.82,0,0,1,.11.5,5.55,5.55,0,0,1-.38,2.16,4.5,4.5,0,0,1-1,1.56,4.14,4.14,0,0,1-1.53.94,5.6,5.6,0,0,1-1.89.32,5.88,5.88,0,0,1-1.29-.13,32.35,32.35,0,0,1,1.51,4.44A16.12,16.12,0,0,1,913.37,730.29Z"/><path d="M957.69,733.5h-1.23a3.3,3.3,0,0,1-3.21-1.89,3,3,0,0,1-3,1.95,2.85,2.85,0,0,1-2.87-2,3.47,3.47,0,0,1-3.23,2,5.88,5.88,0,0,1-1.69-.26,10,10,0,0,1,.14,1.8,7.69,7.69,0,0,1-.37,2.52,6.83,6.83,0,0,1-3.9,3.93,13.28,13.28,0,0,1-5.55,1.14,7.59,7.59,0,0,1-4.87-1.49,5.38,5.38,0,0,1-2.09-4.49,8.64,8.64,0,0,1,.77-3.27c.63-1.45,1.17-2.23,1.61-2.35.15,0,.23.09.23.26a.82.82,0,0,1-.09.4,8.43,8.43,0,0,0-1,3.75,4.21,4.21,0,0,0,1.09,2.93,5.85,5.85,0,0,0,4.46,1.63,13.12,13.12,0,0,0,5.85-1.23,5.52,5.52,0,0,0,2.6-2.15,4.77,4.77,0,0,0,0-1.52,6.2,6.2,0,0,0-.34-1.66,16.35,16.35,0,0,0-2.21-3.38l1-1.89a1,1,0,0,1,.35-.37,1.46,1.46,0,0,1,.28.34,10.94,10.94,0,0,0,1.26,1.72,3.23,3.23,0,0,0,2.32,1,2.53,2.53,0,0,0,2.18-.83,4.27,4.27,0,0,0,.75-1.91c0-.41.19-.63.4-.66s.28.2.34.6c.23,1.87,1,2.81,2.46,2.83,1.66,0,2.6-.88,2.81-2.72,0-.44.15-.66.34-.66s.35.22.4.66q.35,2.67,2.7,2.67h1.28Z"/><path d="M968.8,733.5h-1.74c-2.08,0-3.47-.7-4.15-2.09q-1.26,2.08-4.7,2.09h-1.49v-2.63h2q3.33,0,3.61-2.61c.1-.67.28-1,.55-1s.38.36.45,1.09c.18,1.68,1.33,2.52,3.47,2.52h2Zm-7.47,5-1.72,1.75-1.74-1.75,1.74-1.8Zm3.92,0-1.77,1.75-1.75-1.75,1.75-1.8Z"/><path d="M986.64,728.66a5.54,5.54,0,0,1-.94,3.32,3.48,3.48,0,0,1-3,1.52,3.44,3.44,0,0,1-3.29-1.89,3.76,3.76,0,0,1-3.18,1.89,3.17,3.17,0,0,1-3.3-1.89,4.05,4.05,0,0,1-3.49,1.89h-1.63v-2.63h1.83c1.64,0,2.62-.89,2.92-2.67.06-.44.19-.66.4-.66s.34.22.38.66a2.56,2.56,0,0,0,2.83,2.67,2.53,2.53,0,0,0,2.12-.78,4.24,4.24,0,0,0,.66-1.89c.06-.4.19-.6.4-.6s.29.2.34.6c.23,1.78,1.16,2.67,2.78,2.67s2.53-.41,2.55-1.21a5.15,5.15,0,0,0-1.26-2.63l1-1.92c.17-.31.31-.46.4-.46a3.07,3.07,0,0,1,.37.57A7.13,7.13,0,0,1,986.64,728.66Z"/><path d="M995.61,709l-.29,1.14a29.87,29.87,0,0,0-5.07,1.41v-.8c.16-.1.65-.39,1.49-.86-1-.6-1.44-1.15-1.46-1.66a4,4,0,0,1,2.92-3,1.79,1.79,0,0,1,1.72,1.14.7.7,0,0,1,.06.49s-.08.06-.17.06a1,1,0,0,1-.32-.06,4.1,4.1,0,0,0-1.46-.2,1.87,1.87,0,0,0-.93.27c-.31.18-.47.36-.47.53,0,.44.29.81.88,1.12a3.24,3.24,0,0,0,1.49.4,3.42,3.42,0,0,0,1.26-.26h.35A.29.29,0,0,1,995.61,709Zm2.23,24.54h-1.55a3.56,3.56,0,0,1-3.52-2.06,10.94,10.94,0,0,1-.66-4.35v-4.3q0-3.78-.48-8.85l1.37-1.49c.27-.28.42-.26.46.06a63.31,63.31,0,0,1,.49,8.93v6.65c0,1.85.88,2.78,2.66,2.78h1.23Z"/><path d="M1003.22,729c0,3-1.47,4.52-4.43,4.52h-1.92v-2.63h1.54c2.26,0,3.38-.41,3.38-1.21a6,6,0,0,0-1.51-2.83l.91-2.24c.08-.19.15-.29.23-.31s.2.12.37.37A7.52,7.52,0,0,1,1003.22,729Zm-2.09-9.91-1.77,1.77-1.75-1.77,1.75-1.72Zm3.87,0-1.75,1.77-1.77-1.77,1.77-1.72Z"/></g><g id="Guides"><path class="cls-1" d="M780,382.5v81a90,90,0,0,0,90,90h0a90,90,0,0,0,90-90v-81"/><polyline class="cls-1" points="1074.36 559.86 1140 494.23 1140 436.5"/><line class="cls-1" x1="870" y1="382.5" x2="870" y2="418.5"/><line class="cls-1" x1="1140" y1="418.5" x2="1140" y2="382.5"/><line class="cls-1" x1="960" y1="580.5" x2="960" y2="616.5"/><line class="cls-1" x1="996" y1="616.5" x2="996" y2="580.5"/><polyline class="cls-1" points="996 382.5 996 422.23 960 458.23"/><polyline class="cls-1" points="1032 382.5 1032 440.23 960 512.23"/><polyline class="cls-1" points="960 382.5 960 553.5 972.73 553.5 1068 458.23 1068 382.5"/><path class="cls-2" d="M0,0V1080H1920V0ZM1383,931.5H537v-783h846Z"/></g></svg>