<svg xmlns="http://www.w3.org/2000/svg" viewBox="0 0 1920 1080"><defs><style>.cls-1{fill:#082b96;}.cls-2{fill:#061f6b;}.cls-3{fill:#fff;}</style></defs><g id="Background"><rect class="cls-1" width="1920" height="1080"/></g><g id="Graphics"><path class="cls-2" d="M1400,955H520V125h880Z"/><rect class="cls-3" x="700" y="250" width="10" height="120"/><rect class="cls-3" x="705" y="295" width="35" height="10"/><rect class="cls-3" x="699.44" y="281.58" width="37.97" height="10" transform="translate(7.78 591.94) rotate(-45)"/><rect class="cls-3" x="685" y="330" width="17.19" height="10"/><path class="cls-3" d="M710,355V345a10,10,0,0,0,0-20V315a20,20,0,0,1,0,40Z"/><path class="cls-3" d="M725,265H715a10,10,0,0,0-20,0H685a20,20,0,0,1,40,0Z"/><path class="cls-3" d="M949.68,705h-10A59.84,59.84,0,1,0,820,705H810a69.84,69.84,0,1,1,139.68,0Z"/><rect class="cls-3" x="742.22" y="460" width="155.56" height="10" transform="translate(-88.63 716.02) rotate(-45)"/><path class="cls-3" d="M1160,715H760V457.07l-20,20V505H700V365H800a95.11,95.11,0,0,1,95,95v25h170a95.11,95.11,0,0,1,95,95ZM770,705h380V580a85.1,85.1,0,0,0-85-85H885V460a85.1,85.1,0,0,0-85-85H710V495h20V472.93l56.46-56.47,7.08,7.08L770,447.07Z"/><polygon class="cls-3" points="1155 685 1055 685 1055 490 1065 490 1065 675 1155 675 1155 685"/><path class="cls-3" d="M955,625a70.08,70.08,0,0,1-70-70V485h140v70A70.08,70.08,0,0,1,955,625ZM895,495v60a60,60,0,0,0,120,0V495Z"/><polygon class="cls-3" points="745 410 705 410 705 400 735 400 735 370 745 370 745 410"/></g></svg>