<svg xmlns="http://www.w3.org/2000/svg" viewBox="0 0 1920 1080"><defs><style>.cls-1{fill:none;stroke:#000;stroke-miterlimit:10;stroke-width:24px;}.cls-2{font-size:60px;font-family:Akkurat;letter-spacing:-0.02em;}.cls-3{letter-spacing:0.01em;}.cls-4{letter-spacing:-0.02em;}.cls-5{font-size:42px;letter-spacing:-0.01em;}.cls-6{fill:#d5d7d7;}</style></defs><g id="Graphics"><polyline class="cls-1" points="648 444 734.13 444 657.58 564 744 564"/><polyline class="cls-1" points="875.71 564 792 564 791.71 444 875.71 444"/><line class="cls-1" x1="875.71" y1="504" x2="791.71" y2="504"/><polyline class="cls-1" points="1008 564 924 564 924 444 1008 444"/><line class="cls-1" x1="1008" y1="504" x2="924" y2="504"/><polyline class="cls-1" points="1140 564 1056 564 1056 444 1140 444"/><line class="cls-1" x1="1140" y1="504" x2="1056" y2="504"/><polyline class="cls-1" points="1272 432 1272 564 1266.81 564 1193.28 444 1188 444 1188 576"/><text class="cls-2" transform="translate(636 672)">A<tspan class="cls-3" x="35.76" y="0">r</tspan><tspan class="cls-4" x="59.7" y="0">tistically From Iran</tspan><tspan class="cls-5"><tspan x="0" y="48">EST 2013</tspan></tspan></text><path class="cls-6" d="M0,0V1080H1920V0ZM1572,936H348V144H1572Z"/></g></svg>