<svg xmlns="http://www.w3.org/2000/svg" viewBox="0 0 176 166"><defs><style>.cls-1{fill:none;stroke:#000;stroke-miterlimit:10;stroke-width:2px;}</style></defs><g id="Graphics"><line class="cls-1" x1="37" y1="49" x2="37" y2="25"/><line class="cls-1" x1="37" y1="35" x2="44" y2="35"/><line class="cls-1" x1="37" y1="35" x2="42.37" y2="29.63"/><line class="cls-1" x1="36.44" y1="42" x2="33" y2="42"/><path class="cls-1" d="M38,39a3,3,0,0,1,0,6"/><path class="cls-1" d="M40,28a3,3,0,0,0-6,0"/><path class="cls-1" d="M59,116a13,13,0,0,1,13-13h0a13,13,0,0,1,13,13"/><line class="cls-1" x1="71" y1="57" x2="49" y2="79"/><path class="cls-1" d="M54,59,43,70v5H37V49H56A18,18,0,0,1,74,67v6h35a18,18,0,0,1,18,18v26H49V64"/><polyline class="cls-1" points="127 111 108 111 108 73"/><path class="cls-1" d="M74,73h26a0,0,0,0,1,0,0V86A13,13,0,0,1,87,99h0A13,13,0,0,1,74,86V73A0,0,0,0,1,74,73Z"/><polyline class="cls-1" points="44 49 44 56 37 56"/></g></svg>