<svg xmlns="http://www.w3.org/2000/svg" viewBox="0 0 94 77"><defs><style>.cls-1{fill:none;stroke:#000;stroke-miterlimit:10;stroke-width:2px;}.cls-2{fill:#777d7e;}</style></defs><g id="Graphics"><path class="cls-1" d="M27,28.5v9a10,10,0,0,0,10,10h0a10,10,0,0,0,10-10v-9"/><polyline class="cls-1" points="59.71 48.21 67 40.91 67 34.5"/><line class="cls-1" x1="37" y1="28.5" x2="37" y2="32.5"/><line class="cls-1" x1="67" y1="32.5" x2="67" y2="28.5"/><line class="cls-1" x1="47" y1="50.5" x2="47" y2="54.5"/><line class="cls-1" x1="51" y1="54.5" x2="51" y2="50.5"/><polyline class="cls-1" points="51 28.5 51 32.91 47 36.91"/><polyline class="cls-1" points="55 28.5 55 34.91 47 42.91"/><polyline class="cls-1" points="47 28.5 47 47.5 48.41 47.5 59 36.91 59 28.5"/><path class="cls-2" d="M93,1V76H1V1H93m1-1H0V77H94V0Z"/></g></svg>