<svg xmlns="http://www.w3.org/2000/svg" viewBox="0 0 176 166"><defs><style>.cls-1{fill:#777d7e;}</style></defs><g id="Graphics"><rect x="36" y="25" width="2" height="24"/><rect x="37" y="34" width="7" height="2"/><rect x="35.89" y="31.32" width="7.59" height="2" transform="translate(-11.23 37.52) rotate(-45)"/><rect x="33" y="41" width="3.44" height="2"/><path d="M38,46V44a2,2,0,0,0,0-4V38a4,4,0,0,1,0,8Z"/><path d="M41,28H39a2,2,0,0,0-4,0H33a4,4,0,0,1,8,0Z"/><path d="M85.94,116h-2A12,12,0,0,0,60,116H58a14,14,0,0,1,27.94,0Z"/><rect x="44.44" y="67" width="31.11" height="2" transform="translate(-30.51 62.34) rotate(-45)"/><path d="M128,118H48V66.41l-4,4V76H36V48H56A19,19,0,0,1,75,67v5h34a19,19,0,0,1,19,19Zm-78-2h76V91a17,17,0,0,0-17-17H73V67A17,17,0,0,0,56,50H38V74h4V69.59l11.29-11.3,1.42,1.42L50,64.41Z"/><polygon points="127 112 107 112 107 73 109 73 109 110 127 110 127 112"/><path d="M87,100A14,14,0,0,1,73,86V72h28V86A14,14,0,0,1,87,100ZM75,74V86a12,12,0,0,0,24,0V74Z"/><polygon points="45 57 37 57 37 55 43 55 43 49 45 49 45 57"/><path class="cls-1" d="M175,1V165H1V1H175m1-1H0V166H176V0Z"/></g></svg>