<svg xmlns="http://www.w3.org/2000/svg" viewBox="0 0 1920 1080"><defs><style>.cls-1{fill:#082b96;}.cls-2{fill:#061f6b;}.cls-3{fill:#fff;}</style></defs><g id="Background"><rect class="cls-1" width="1920" height="1080"/></g><g id="Graphics"><path class="cls-2" d="M1296,846H624V234h672Z"/><polygon class="cls-3" points="876 522 767.7 522 844.24 402 780 402 780 378 888.02 378 811.47 498 876 498 876 522"/><polygon class="cls-3" points="1008 522 912.31 522 911.97 378 1008 378 1008 402 936.03 402 936.26 498 1008 498 1008 522"/><rect class="cls-3" x="924" y="438" width="84" height="24"/><polygon class="cls-3" points="1140 522 1044 522 1044 378 1140 378 1140 402 1068 402 1068 498 1140 498 1140 522"/><rect class="cls-3" x="1056" y="438" width="84" height="24"/><polygon class="cls-3" points="1008 702 912 702 912 558 1008 558 1008 582 936 582 936 678 1008 678 1008 702"/><rect class="cls-3" x="924" y="618" width="84" height="24"/><polygon class="cls-3" points="1152 702 1129.01 702 1068 604.76 1068 702 1044 702 1044 558 1067 558 1128 655.23 1128 558 1152 558 1152 702"/></g></svg>