<svg xmlns="http://www.w3.org/2000/svg" xmlns:xlink="http://www.w3.org/1999/xlink" viewBox="0 0 1920 1080"><defs><style>.cls-1{fill:#082b96;}.cls-2{fill:#4672e2;}.cls-3{fill:url(#linear-gradient);}.cls-4{fill:url(#linear-gradient-2);}.cls-5{fill:url(#linear-gradient-3);}.cls-6{fill:url(#linear-gradient-4);}.cls-7{fill:url(#linear-gradient-5);}.cls-8{fill:url(#linear-gradient-6);}.cls-9{fill:#fff;}</style><linearGradient id="linear-gradient" x1="-13935.53" y1="-187.56" x2="-12855.53" y2="-187.56" gradientTransform="translate(648.47 13935.53) rotate(90)" gradientUnits="userSpaceOnUse"><stop offset="0" stop-color="#fff" stop-opacity="0"/><stop offset="0.51" stop-color="#fff"/><stop offset="1" stop-color="#fff" stop-opacity="0"/></linearGradient><linearGradient id="linear-gradient-2" x1="-13935.53" y1="-435.45" x2="-12855.53" y2="-435.45" xlink:href="#linear-gradient"/><linearGradient id="linear-gradient-3" x1="-13935.53" y1="-315.13" x2="-12855.53" y2="-315.13" xlink:href="#linear-gradient"/><linearGradient id="linear-gradient-4" x1="-14351.93" y1="-387.69" x2="-12431.93" y2="-387.69" gradientTransform="translate(-12431.93 224.87) rotate(180)" xlink:href="#linear-gradient"/><linearGradient id="linear-gradient-5" x1="-14351.93" y1="-242.62" x2="-12431.93" y2="-242.62" gradientTransform="translate(-12431.93 224.87) rotate(180)" xlink:href="#linear-gradient"/><linearGradient id="linear-gradient-6" x1="-13935.53" y1="-307.93" x2="-12855.53" y2="-307.93" xlink:href="#linear-gradient"/></defs><g id="Background"><rect class="cls-1" width="1920" height="1080"/></g><g id="Graphics"><polygon class="cls-2" points="296.04 612 187.73 612 264.28 492 200.03 492 200.03 468 308.05 468 231.51 588 296.04 588 296.04 612"/><polygon class="cls-2" points="427.75 612 332.06 612 331.72 468 427.75 468 427.75 492 355.78 492 356.01 588 427.75 588 427.75 612"/><rect class="cls-2" x="343.75" y="528" width="84" height="24"/><polygon class="cls-2" points="560.03 612 464.04 612 464.04 468 560.03 468 560.03 492 488.04 492 488.04 588 560.03 588 560.03 612"/><rect class="cls-2" x="476.03" y="528" width="84" height="24"/><polygon class="cls-2" points="692.03 612 596.03 612 596.03 468 692.03 468 692.03 492 620.03 492 620.03 588 692.03 588 692.03 612"/><rect class="cls-2" x="608.03" y="528" width="84" height="24"/><polygon class="cls-2" points="836.03 612 812.13 612 752.03 513.93 752.03 612 728.03 612 728.03 468 752.04 468 812.03 565.91 812.03 468 836.03 468 836.03 612"/><rect class="cls-2" x="956.4" y="468" width="7.2" height="144"/><rect class="cls-3" x="835.43" width="1.22" height="1080"/><rect class="cls-4" x="1083.31" width="1.22" height="1080"/><rect class="cls-5" x="962.99" width="1.22" height="1080"/><rect class="cls-6" y="611.75" width="1920" height="1.63"/><rect class="cls-7" y="466.68" width="1920" height="1.63"/><rect class="cls-8" x="955.79" width="1.22" height="1080"/><path class="cls-9" d="M945,798.6h-18.6v-1.2h17.4v-5.16H945Zm-24.6,0h-18v-1.2h18Zm-24,0h-18v-1.2h18Zm-24,0h-18v-1.2h18Zm-24,0H835l3.65-5.72,1,.64-2.48,3.88h11.21Zm-5.51-10.14-1-.64,9.68-15.18,1,.65ZM945,786.24h-1.2V774.6h-5.16v-1.2H945ZM932.62,774.6h-18v-1.2h18Zm-24,0h-18v-1.2h18Zm-24,0h-5.86l7.7-12.08,1,.65L881,773.4h3.67Zm-28.84-6.37-1-.65,9.68-15.17,1,.64Zm34.92-10.12-1-.65,9.68-15.17,1,.64Zm-22-10.11-1-.65,9.68-15.18,1,.65Zm34.92-10.12-1-.65,9.68-15.18,1,.65Zm-22-10.12-1-.64,9.68-15.18,1,.64Zm34.93-10.12-1-.64,9.68-15.18,1,.65Zm-22-10.11-1-.65,9.68-15.17,1,.64Zm34.92-10.12-1-.65,9.68-15.17,1,.64Zm-22-10.12-1-.64,5.13-8h-6.27v-1.2h8.46Zm-8.15-8.69h-18v-1.2h18Zm-24,0h-18v-1.2h18Zm-24,0h-3.48V662.88H849V677.4h2.28Zm91.07-1.43-1-.64L951,661.35l1,.65Zm12.91-20.23-1-.65,1.08-1.69H941.5v-1.2h16ZM849,656.88h-1.2V653.4H863.5v1.2H849Zm86.52-2.28h-18v-1.2h18Zm-24,0h-18v-1.2h18Zm-24,0h-18v-1.2h18Z"/><path class="cls-9" d="M1072.51,798.6h-18.6v-1.2h17.4v-5.16h1.2Zm-24.6,0h-18v-1.2h18Zm-24,0h-18v-1.2h18Zm-24,0h-18v-1.2h18Zm-24,0H962.5l3.66-5.72,1,.64-2.48,3.88h11.22Zm-5.52-10.14-1-.64,9.68-15.18,1,.65Zm102.12-2.22h-1.2V774.6h-5.16v-1.2h6.36Zm-12.36-11.64h-18v-1.2h18Zm-24,0h-18v-1.2h18Zm-24,0h-5.87l7.71-12.08,1,.65-6.53,10.23h3.68Zm-28.85-6.37-1-.65L992,752.41l1,.64Zm34.92-10.12-1-.65,9.68-15.17,1,.64Zm-22-10.11-1-.65,9.68-15.17,1,.64Zm34.92-10.12-1-.65,9.68-15.18,1,.65Zm-22-10.12-1-.64,9.68-15.18,1,.65ZM1044,717.64l-1-.64,9.68-15.18,1,.65Zm-22-10.11-1-.65,9.68-15.17,1,.64ZM1057,697.41l-1-.65,9.68-15.17,1,.64Zm-22-10.12-1-.64,5.13-8h-6.26v-1.2h8.45Zm-8.14-8.69h-18v-1.2h18Zm-24,0h-18v-1.2h18Zm-24,0h-3.48V662.88h1.2V677.4h2.28Zm91.06-1.43-1-.64,9.68-15.18,1,.65Zm12.91-20.23-1-.65,1.08-1.69H1069v-1.2h16Zm-106.25-.06h-1.2V653.4H991v1.2H976.51ZM1063,654.6h-18v-1.2h18Zm-24,0h-18v-1.2h18Zm-24,0H997v-1.2h18Z"/></g><g id="Layer_1" data-name="Layer 1"><path class="cls-2" d="M1287,517.2c-7.72-8.38-18.35-13.44-31.43-13.44-24.18,0-45.94,21.76-45.94,55.61S1231.4,615,1255.58,615c13.08,0,23.71-5.07,31.43-13.45v11h29V506.18h-29Zm-24.18,73.6c-14.5,0-24.17-12.09-24.17-31.43s9.67-31.43,24.17-31.43S1287,540,1287,559.37,1277.34,590.8,1262.83,590.8Z"/><polygon class="cls-2" points="1374.05 477.16 1345.04 477.16 1345.04 506.18 1330.53 506.18 1330.53 530.35 1345.04 530.35 1345.04 612.56 1374.05 612.56 1374.05 530.35 1393.39 530.35 1393.39 506.18 1374.05 506.18 1374.05 477.16"/><rect class="cls-2" x="1407.9" y="506.18" width="29.01" height="106.38"/><circle class="cls-2" cx="1422.41" cy="478.37" r="18.13"/><path class="cls-2" d="M1171.61,524.63A36.28,36.28,0,0,0,1142,467.49h-58V612.56H1154v0c24.24-.83,43.52-14.3,43.52-45.9C1197.56,545.8,1187,531.21,1171.61,524.63Zm-30.87-30.54a8.46,8.46,0,0,1,6,14.44h0l-33.78,33.79V494.09h27.8ZM1149.2,586h-36.26v-9.42L1135.52,554c3.78-3.77,8.73-6.67,13.68-6.67,9.67,0,19.34,7.25,19.34,19.34S1158.87,586,1149.2,586Z"/><polygon class="cls-2" points="1560.22 506.18 1526.02 506.18 1485.27 546.93 1485.27 467.49 1456.25 467.49 1456.25 612.56 1485.27 612.56 1485.27 581.13 1497.31 569.08 1527.75 612.56 1560.22 612.56 1516.4 549.99 1560.22 506.18"/></g></svg>