<svg xmlns="http://www.w3.org/2000/svg" viewBox="0 0 1920 1080"><g id="Graphics"><polygon points="855 510 719.62 510 815.3 360 735 360 735 330 870.02 330 774.34 480 855 480 855 510"/><polygon points="1020 510 900.39 510 899.96 330 1020 330 1020 360 930.04 360 930.32 480 1020 480 1020 510"/><rect x="915" y="405" width="105" height="30"/><polygon points="1185 510 1065 510 1065 330 1185 330 1185 360 1095 360 1095 480 1185 480 1185 510"/><rect x="1080" y="405" width="105" height="30"/><polygon points="1020 735 900 735 900 555 1020 555 1020 585 930 585 930 705 1020 705 1020 735"/><rect x="915" y="630" width="105" height="30"/><polygon points="1200 735 1171.27 735 1095 613.45 1095 735 1065 735 1065 555 1093.74 555 1170 676.53 1170 555 1200 555 1200 735"/></g></svg>