<svg xmlns="http://www.w3.org/2000/svg" xmlns:xlink="http://www.w3.org/1999/xlink" viewBox="0 0 1920 1080"><defs><style>.cls-1,.cls-12{fill:#082b96;}.cls-2,.cls-3,.cls-4,.cls-5,.cls-6,.cls-7,.cls-8{fill:none;stroke-miterlimit:10;}.cls-2{stroke:url(#linear-gradient);}.cls-3{stroke:url(#linear-gradient-2);}.cls-4{stroke:url(#linear-gradient-3);}.cls-5{stroke:url(#linear-gradient-4);}.cls-6{stroke:url(#linear-gradient-5);}.cls-7{stroke:url(#linear-gradient-6);}.cls-8{stroke:#777d7e;stroke-dasharray:15 5;}.cls-11,.cls-9{fill:#4672e2;}.cls-10{fill:#fff;}.cls-11,.cls-12{fill-rule:evenodd;}</style><linearGradient id="linear-gradient" x1="-15340" y1="792.47" x2="-13804" y2="792.47" gradientTransform="translate(-13612 1260) rotate(180)" gradientUnits="userSpaceOnUse"><stop offset="0" stop-color="#fff" stop-opacity="0"/><stop offset="0.51" stop-color="#fff"/><stop offset="1" stop-color="#fff" stop-opacity="0"/></linearGradient><linearGradient id="linear-gradient-2" x1="-14935.46" y1="945.91" x2="-14063.59" y2="945.91" gradientTransform="translate(1752.47 15039.53) rotate(90)" xlink:href="#linear-gradient"/><linearGradient id="linear-gradient-3" x1="-14935.46" y1="639.07" x2="-14063.59" y2="639.07" gradientTransform="translate(1752.47 15039.53) rotate(90)" xlink:href="#linear-gradient"/><linearGradient id="linear-gradient-4" x1="-14935.46" y1="789.47" x2="-14063.59" y2="789.47" gradientTransform="translate(1752.47 15039.53) rotate(90)" xlink:href="#linear-gradient"/><linearGradient id="linear-gradient-5" x1="-14935.46" y1="795.47" x2="-14063.59" y2="795.47" gradientTransform="translate(1752.47 15039.53) rotate(90)" xlink:href="#linear-gradient"/><linearGradient id="linear-gradient-6" x1="-15340" y1="592.47" x2="-13804" y2="592.47" xlink:href="#linear-gradient"/></defs><g id="Background"><rect class="cls-1" x="185" y="104.06" width="1550" height="871.87"/></g><g id="Graphics"><line class="cls-2" x1="192" y1="467.53" x2="1728" y2="467.53"/><line class="cls-3" x1="806.56" y1="975.94" x2="806.56" y2="104.06"/><line class="cls-4" x1="1113.4" y1="975.94" x2="1113.4" y2="104.06"/><line class="cls-5" x1="963" y1="975.94" x2="963" y2="104.06"/><line class="cls-6" x1="957" y1="975.94" x2="957" y2="104.06"/><line class="cls-7" x1="192" y1="667.53" x2="1728" y2="667.53"/><polygon class="cls-8" points="946.99 787.53 856.73 787.53 920.52 687.53 866.99 687.53 866.99 667.53 957 667.53 893.21 767.53 946.99 767.53 946.99 787.53"/><polygon class="cls-8" points="846.68 787.53 756.43 787.53 820.22 687.53 766.68 687.53 766.68 667.53 856.7 667.53 792.91 767.53 846.68 767.53 846.68 787.53"/><polygon class="cls-8" points="1153.52 787.53 1063.27 787.53 1127.06 687.53 1073.52 687.53 1073.52 667.53 1163.54 667.53 1099.75 767.53 1153.52 767.53 1153.52 787.53"/><polygon class="cls-8" points="1053.26 787.53 963 787.53 1026.79 687.53 973.25 687.53 973.25 667.53 1063.27 667.53 999.48 767.53 1053.26 767.53 1053.26 787.53"/><polygon class="cls-9" points="356.56 587.53 266.31 587.53 330.09 487.53 276.56 487.53 276.56 467.53 366.57 467.53 302.79 567.53 356.56 567.53 356.56 587.53"/><polygon class="cls-9" points="466.32 587.53 386.58 587.53 386.3 467.53 466.32 467.53 466.32 487.53 406.35 487.53 406.54 567.53 466.32 567.53 466.32 587.53"/><rect class="cls-9" x="396.32" y="517.53" width="70" height="20"/><polygon class="cls-9" points="576.56 587.53 496.56 587.53 496.56 467.53 576.56 467.53 576.56 487.53 516.56 487.53 516.56 567.53 576.56 567.53 576.56 587.53"/><rect class="cls-9" x="506.56" y="517.53" width="70" height="20"/><polygon class="cls-9" points="686.56 587.53 606.56 587.53 606.56 467.53 686.56 467.53 686.56 487.53 626.56 487.53 626.56 567.53 686.56 567.53 686.56 587.53"/><rect class="cls-9" x="616.56" y="517.53" width="70" height="20"/><polygon class="cls-9" points="806.56 587.53 786.64 587.53 736.56 505.8 736.56 587.53 716.56 587.53 716.56 467.53 736.57 467.53 786.56 549.12 786.56 467.53 806.56 467.53 806.56 587.53"/><path class="cls-9" d="M292.61,667.53l-2.9-8.4h-15.4l-2.85,8.4H267l12.5-35.45h5.2l12.55,35.45Zm-10.65-31-6.25,18.4h12.55Z"/><path class="cls-9" d="M312.31,646.18a7,7,0,0,0-4.8,2c-2.05,2-2.3,5.45-2.3,8.1v11.25H301v-25.3h3.75l.35,4.45a7.85,7.85,0,0,1,7.55-4.6,13.46,13.46,0,0,1,2,.15v4.15A12.43,12.43,0,0,0,312.31,646.18Z"/><path class="cls-9" d="M329,667.88c-5.45,0-6.95-3.45-6.95-6.85V645.88h-4.9v-3.65h4.9v-6.45l4.25-1v7.45h7.5v3.65h-7.5v14.65c0,2.45,1.05,3.45,3.4,3.45a31.22,31.22,0,0,0,4.35-.45v3.65A18.31,18.31,0,0,1,329,667.88Z"/><path class="cls-9" d="M338.66,636.43v-5h4.95v5Zm.3,31.1v-25.3h4.35v25.3Z"/><path class="cls-9" d="M368.11,665.33c-1.95,2-4.95,2.85-8.25,2.85s-6.05-.75-8.2-2.85a8.18,8.18,0,0,1-2.45-5.8h4.25a4.93,4.93,0,0,0,2.05,4,8,8,0,0,0,4.55,1.15,6.86,6.86,0,0,0,4.65-1.4,3.59,3.59,0,0,0,1.25-2.75c0-1.9-1.35-3.25-3.95-3.6-1.1-.15-3.95-.5-5.7-.75-3.8-.6-6.2-3-6.2-6.8a7.28,7.28,0,0,1,2.1-5,10.31,10.31,0,0,1,7.45-2.8c3.35,0,6.35,1,8,3.2a7.23,7.23,0,0,1,1.8,4.85h-4.25a4.57,4.57,0,0,0-1.45-3.15,5.94,5.94,0,0,0-4.15-1.35,6.55,6.55,0,0,0-3,.5,3.79,3.79,0,0,0-2.55,3.4c0,2.1,1.3,3,3.4,3.3,1.4.2,3.4.4,6.1.85,3.6.6,6.45,3.2,6.45,7A7.21,7.21,0,0,1,368.11,665.33Z"/><path class="cls-9" d="M384.21,667.88c-5.45,0-6.95-3.45-6.95-6.85V645.88h-4.9v-3.65h4.9v-6.45l4.25-1v7.45H389v3.65h-7.5v14.65c0,2.45,1.05,3.45,3.4,3.45a31.22,31.22,0,0,0,4.35-.45v3.65A18.31,18.31,0,0,1,384.21,667.88Z"/><path class="cls-9" d="M393.86,636.43v-5h4.95v5Zm.3,31.1v-25.3h4.35v25.3Z"/><path class="cls-9" d="M423.26,665.43a10,10,0,0,1-7.3,2.75,10.58,10.58,0,0,1-9.25-4.75c-1.35-2-2.1-4.75-2.1-8.55s.75-6.55,2.1-8.55a10.49,10.49,0,0,1,9.2-4.75,10.06,10.06,0,0,1,7.2,2.7,9.7,9.7,0,0,1,3,6.5h-4.3a6.35,6.35,0,0,0-1.8-3.95,5.92,5.92,0,0,0-4.1-1.55,6.39,6.39,0,0,0-4.4,1.65c-2,1.7-2.55,4.85-2.55,8s.55,6.25,2.55,8a6.39,6.39,0,0,0,4.4,1.65,5.91,5.91,0,0,0,4.3-1.7,6.25,6.25,0,0,0,1.7-3.75h4.3A9.52,9.52,0,0,1,423.26,665.43Z"/><path class="cls-9" d="M450.31,667.88a3.6,3.6,0,0,1-3.65-3.85h-.1c-1.45,2.55-4.6,4.15-8.15,4.15-5.8,0-8.7-3.9-8.7-7.8,0-3.25,2.1-7.5,9-7.9l7.7-.45v-1.85a5,5,0,0,0-1.3-3.85A5.7,5.7,0,0,0,441,645a6.27,6.27,0,0,0-4.6,1.5,4.14,4.14,0,0,0-1.25,3.05H431a7.49,7.49,0,0,1,2.2-5.3c1.7-1.8,4.7-2.7,7.8-2.7,4.9,0,7.7,2.1,8.9,4.85a9.69,9.69,0,0,1,.75,3.9v12.25c0,1.35.55,1.7,1.4,1.7a6.16,6.16,0,0,0,1.1-.15v3.15A5.89,5.89,0,0,1,450.31,667.88Zm-3.9-12.55-6.8.4c-2.55.15-5.55,1.35-5.55,4.55,0,2.25,1.4,4.35,5,4.35a7.13,7.13,0,0,0,5.2-2,8.16,8.16,0,0,0,2.15-5.75Z"/><path class="cls-9" d="M463.76,667.83c-3.7,0-5.3-2.2-5.3-6.2v-30.2h4.25v30c0,1.7.55,2.6,2.3,2.6a16.38,16.38,0,0,0,1.75-.05v3.6A11.09,11.09,0,0,1,463.76,667.83Z"/><path class="cls-9" d="M477.06,667.83c-3.7,0-5.3-2.2-5.3-6.2v-30.2H476v30c0,1.7.55,2.6,2.3,2.6a16.38,16.38,0,0,0,1.75-.05v3.6A11.09,11.09,0,0,1,477.06,667.83Z"/><path class="cls-9" d="M493.56,672.73c-1.2,3.25-3.05,5.4-6.85,5.4a13.84,13.84,0,0,1-3.85-.5v-3.7a11.76,11.76,0,0,0,3,.4,3.6,3.6,0,0,0,3.8-2.55l1.6-4.25-10.1-25.3H486l7.45,19.95,7.1-19.95H505Z"/><path class="cls-9" d="M523.91,636.18v11.55h16.5v4.2h-16.5v15.6h-4.45V632.08h22.95v4.1Z"/><path class="cls-9" d="M558.51,646.18a7,7,0,0,0-4.8,2c-2.05,2-2.3,5.45-2.3,8.1v11.25h-4.2v-25.3H551l.35,4.45a7.85,7.85,0,0,1,7.55-4.6,13.46,13.46,0,0,1,2,.15v4.15A12.43,12.43,0,0,0,558.51,646.18Z"/><path class="cls-9" d="M582.11,665.23a11.41,11.41,0,0,1-15.31,0c-2.75-2.7-3.6-6.35-3.6-10.35s.85-7.65,3.6-10.35a11.41,11.41,0,0,1,15.31,0c2.75,2.7,3.6,6.35,3.6,10.35S584.86,662.53,582.11,665.23ZM579,647a6.19,6.19,0,0,0-4.54-1.8,6.26,6.26,0,0,0-4.56,1.8c-1.8,1.85-2.35,4.9-2.35,7.85s.55,6,2.35,7.85a6.26,6.26,0,0,0,4.56,1.8,6.19,6.19,0,0,0,4.54-1.8c1.8-1.85,2.36-4.9,2.36-7.85S580.8,648.88,579,647Z"/><path class="cls-9" d="M622.56,667.53v-16.1c0-3.55-1.15-6-5.15-6a5.13,5.13,0,0,0-3.85,1.7c-1.7,1.75-2.15,4.3-2.15,7v13.45h-4.25v-16.1c0-3.55-1-6-5.1-6a5.38,5.38,0,0,0-4.31,2.25c-1.25,1.6-1.7,4.3-1.7,6.4v13.45H591.8v-25.3h3.7l.41,3.6a7.68,7.68,0,0,1,7.09-4.25c3.76,0,6.46,1.7,7.56,4.8a8.34,8.34,0,0,1,7.8-4.8c5.75,0,8.45,3.7,8.45,9.3v16.65Z"/><path class="cls-9" d="M645.05,667.53V632.08h4.55v35.45Z"/><path class="cls-9" d="M669.3,646.18a7,7,0,0,0-4.8,2c-2,2-2.3,5.45-2.3,8.1v11.25H658v-25.3h3.75l.35,4.45a7.85,7.85,0,0,1,7.55-4.6,13.46,13.46,0,0,1,2,.15v4.15A12.43,12.43,0,0,0,669.3,646.18Z"/><path class="cls-9" d="M694.35,667.88A3.6,3.6,0,0,1,690.7,664h-.1c-1.45,2.55-4.6,4.15-8.15,4.15-5.8,0-8.7-3.9-8.7-7.8,0-3.25,2.1-7.5,9-7.9l7.7-.45v-1.85a5,5,0,0,0-1.3-3.85A5.7,5.7,0,0,0,685,645a6.27,6.27,0,0,0-4.6,1.5,4.14,4.14,0,0,0-1.25,3.05H675a7.49,7.49,0,0,1,2.2-5.3c1.7-1.8,4.7-2.7,7.8-2.7,4.9,0,7.7,2.1,8.9,4.85a9.69,9.69,0,0,1,.75,3.9v12.25c0,1.35.55,1.7,1.4,1.7a6.16,6.16,0,0,0,1.1-.15v3.15A5.89,5.89,0,0,1,694.35,667.88Zm-3.9-12.55-6.8.4c-2.55.15-5.55,1.35-5.55,4.55,0,2.25,1.4,4.35,5,4.35a7.13,7.13,0,0,0,5.2-2,8.16,8.16,0,0,0,2.15-5.75Z"/><path class="cls-9" d="M718.85,667.53v-16c0-3.8-1.55-6.05-5.55-6.05a6.2,6.2,0,0,0-5.5,3.9c-.85,1.85-.9,4.5-.9,6.45v11.75h-4.25v-25.3h3.7l.35,3.8c1.3-2.9,4.8-4.45,7.65-4.45,5.75,0,8.75,3.45,8.75,9.3v16.65Z"/><path class="cls-9" d="M270.06,707.53V682.71h16.59v2.87H273.18v7.56H285v2.94H273.18v8.58h13.47v2.87Z"/><path class="cls-9" d="M306.46,705.5a10.1,10.1,0,0,1-7,2.49,10.25,10.25,0,0,1-7.11-2.38,8.25,8.25,0,0,1-2.66-6h3.26a5.64,5.64,0,0,0,1.75,3.92,7,7,0,0,0,4.76,1.54,6.54,6.54,0,0,0,4.62-1.44,3.65,3.65,0,0,0,1.26-2.9c0-1.93-1.23-3.54-4.17-4l-3.92-.6c-3.71-.56-6.61-2.63-6.61-6.58a6.83,6.83,0,0,1,2.17-4.9,9.21,9.21,0,0,1,6.51-2.45,9.33,9.33,0,0,1,6.44,2.38,7.47,7.47,0,0,1,2.38,5.32h-3.26a5.19,5.19,0,0,0-1.22-3.12,6.5,6.5,0,0,0-8.79,0,4,4,0,0,0-1,2.7c0,2.24,1.85,3.25,3.71,3.5,1.4.17,2.76.42,4.13.63,4.13.59,6.89,3.12,6.89,7A6.44,6.44,0,0,1,306.46,705.5Z"/><path class="cls-9" d="M321,685.62v21.91H317.8V685.62h-7.38v-2.91h17.92v2.91Z"/><path class="cls-9" d="M338.66,707.53V705l9.84-12.15a5.43,5.43,0,0,0,1.33-3.5c0-2.49-1.44-3.92-4-3.92-2.17,0-4.13,1.19-4.13,4.41h-3.08a6.76,6.76,0,0,1,7.17-7.11,7.05,7.05,0,0,1,5.95,2.8,6.25,6.25,0,0,1,1.12,3.78,8,8,0,0,1-2.06,5.19l-8.26,10.25h10.71v2.8Z"/><path class="cls-9" d="M370.44,705.92a7.69,7.69,0,0,1-10.5,0c-2.45-2.48-2.87-5.88-2.87-10.57s.42-8.12,2.87-10.61a7.8,7.8,0,0,1,10.5,0c2.45,2.49,2.87,5.92,2.87,10.61S372.89,703.44,370.44,705.92Zm-2.24-19.36a4.6,4.6,0,0,0-6,0c-2.06,2-2,5.5-2,8.79s-.07,6.83,2,8.79a4.6,4.6,0,0,0,6,0c2.07-2,2-5.5,2-8.79S370.27,688.52,368.2,686.56Z"/><path class="cls-9" d="M384.48,707.53V686.6l-5.78,4.23v-3.32l5.95-4.31h2.87v24.33Z"/><path class="cls-9" d="M409.33,705.78a8.52,8.52,0,0,1-11.45,0,7.26,7.26,0,0,1-2.07-5.21h3.05a5.11,5.11,0,0,0,1.26,3.36,4.3,4.3,0,0,0,3.33,1.36,4.51,4.51,0,0,0,3.53-1.4,4.44,4.44,0,0,0,1.16-3.08c0-3-2-4.52-5-4.52h-1.47v-2.76h1.47c2.8,0,4.48-1.54,4.48-4.1a3.78,3.78,0,0,0-1.15-2.83,4.09,4.09,0,0,0-3-1.19,4.46,4.46,0,0,0-3,1,4.36,4.36,0,0,0-1.46,3.43H396a6.73,6.73,0,0,1,2.34-5.36,8,8,0,0,1,5.22-1.75,7.54,7.54,0,0,1,5.18,2,6.11,6.11,0,0,1,2,4.76,6.28,6.28,0,0,1-3.57,5.5,6.22,6.22,0,0,1,4.06,6A7.09,7.09,0,0,1,409.33,705.78Z"/><rect class="cls-10" x="957" y="467.53" width="6" height="200"/><polygon id="Shape" class="cls-11" points="1613.34 667.53 1113.4 667.53 1113.4 467.53 1613.41 467.53 1613.41 667.53 1613.34 667.53"/><path id="path7" class="cls-12" d="M1123.4,567.53c0,49.16,100.59,90,240,90s240-40.84,240-90-100.58-90-240-90S1123.4,518.37,1123.4,567.53Z"/><path id="path9" class="cls-9" d="M1345.65,597.55a39.79,39.79,0,0,0,5.3,6.23h-54.11c0-2.1-2.07-6.37-4.37-9.72s-14.69-21.76-14.69-21.76v25.25a12.72,12.72,0,0,0,1.08,6.23h-45.08a12.82,12.82,0,0,0,1.07-6.23v-60a12.78,12.78,0,0,0-1.07-6.22h45.08a12.68,12.68,0,0,0-1.08,6.22v26.24s14.41-18.33,17.7-22.6c2.51-3.22,5.59-7.77,5.59-9.86h47c-3.22,2.1-6.8,5.87-9.74,9.37l-17.2,20.5s21.64,32.25,24.51,36.37Zm14.19-60v60a12.72,12.72,0,0,1-1.08,6.23h87V583.63a13.6,13.6,0,0,1-6.37,1h-36.63v-9.51H1438V559.92h-35.19v-9.59h36.63a14.47,14.47,0,0,1,6.37,1V531.24h-87A13.09,13.09,0,0,1,1359.84,537.53Zm206.46,60a17.43,17.43,0,0,0,3.52,6.23h-47.16c.21-2.1-.57-4.13-1.43-6.23,0,0-.72-1.68-1.72-4.12l-.43-1h-27.16l-.43,1.12s-.79,2-1.51,4.12-1.5,4.13-1.22,6.23h-37.19a18.31,18.31,0,0,0,3.37-6.23l22.28-60c.79-2.1,1.58-4.12,1.29-6.22h62.85c-.57,2.1.58,4.12,1.37,6.22C1544.59,542.15,1564.73,593.5,1566.3,597.55Zm-53.17-20.49-6.59-16.79a35.75,35.75,0,0,1-1.44-4.76,27.24,27.24,0,0,1-1.29,4.76c-.21.7-3,8-6.23,16.79Zm-300.71-45.75h-49a12.68,12.68,0,0,1,1.08,6.22v60a12.72,12.72,0,0,1-1.08,6.23h49a12.82,12.82,0,0,1-1.07-6.23v-60A12.78,12.78,0,0,1,1212.42,531.31ZM1551.25,537a9.23,9.23,0,0,1,9.11-9.51h.64a9.45,9.45,0,0,1,9.75,9.16V537a9.79,9.79,0,0,1-19.57.49,1.19,1.19,0,0,0,.07-.49Zm1.94,0a7.81,7.81,0,1,0,7.81-7.62,7.45,7.45,0,0,0-7.81,7.06Zm5.88,5.67h-1.72V531.24h4.37a3.69,3.69,0,0,1,3.65,3.7,3.83,3.83,0,0,1-2.08,3.36l2.51,4.41h-1.93l-2.3-4.06h-2.5Zm0-5.67h2.36a2,2,0,0,0,2.15-1.89,2,2,0,0,0-1.93-2.09h-2.58Z"/></g></svg>