<svg xmlns="http://www.w3.org/2000/svg" viewBox="0 0 188 174"><defs><style>.cls-1,.cls-2{fill:none;}.cls-1{stroke:#000;stroke-miterlimit:10;stroke-width:4px;}</style></defs><g id="Graphics"><path d="M57.56,118.37a2.77,2.77,0,0,1-.23,1.22,1.94,1.94,0,0,1-.64.77,2.74,2.74,0,0,1-1,.41,6.26,6.26,0,0,1-1.28.12,3.34,3.34,0,0,1-.84-.11,2.11,2.11,0,0,1-.7-.36,1.77,1.77,0,0,1-.48-.6,2,2,0,0,1-.18-.87,2.84,2.84,0,0,1,.09-.69,3.1,3.1,0,0,1,.21-.67,2.46,2.46,0,0,1,.26-.49c.1-.13.18-.2.25-.2s.2.09.2.28a.73.73,0,0,1,0,.22l-.11.31a3.57,3.57,0,0,0-.1.35,1.48,1.48,0,0,0,0,.35,1.08,1.08,0,0,0,.16.62,1.16,1.16,0,0,0,.4.36,1.73,1.73,0,0,0,.57.18,4.73,4.73,0,0,0,.65,0h.41l.5,0,.51-.1a2.35,2.35,0,0,0,.45-.17,1.09,1.09,0,0,0,.33-.26.61.61,0,0,0,.12-.37.9.9,0,0,0-.09-.34,4.23,4.23,0,0,0-.25-.46,5,5,0,0,0-.33-.47A3.57,3.57,0,0,0,56,117l.53-1.08c0-.07.08-.07.13,0A4.45,4.45,0,0,1,57.56,118.37Zm-2.07-2.69-.75.74-.73-.74.73-.72Z"/><path d="M59.45,117.85a3.25,3.25,0,0,1-.38,1.18c-.07.14-.12.21-.14.21s-.08-.16-.11-.47l-.47-5.32.93-.77c.06-.05.1-.08.12-.08s.05,0,.05.11Z"/><path d="M62.47,119a.94.94,0,0,1-.28-.1,3.58,3.58,0,0,1-.32,1.55,3,3,0,0,1-.24.42l-.29.37a3.12,3.12,0,0,1-.27.26c-.08.07-.13.1-.17.1l-.68,0-.67-.07-.52-.09c-.14,0-.21-.08-.21-.13s0,0,.07-.05a5.5,5.5,0,0,0,1-.45,7.34,7.34,0,0,0,.87-.59,3.83,3.83,0,0,0,.64-.63.94.94,0,0,0,.25-.55.49.49,0,0,0-.07-.24,2.36,2.36,0,0,0-.2-.32,3,3,0,0,0-.3-.34c-.11-.12-.23-.24-.35-.35l.53-1.07s0,0,.05,0,0,0,.06.05c.51.68,1,1,1.39,1V119Z"/><path d="M62.72,119l-.2,0q-.09,0-.09-.06v-1.14s0,0,.09-.06l.2,0h1.67c.49,0,.74-.09.74-.27a.66.66,0,0,0-.15-.32c-.11-.15-.24-.32-.42-.53a.14.14,0,0,1,0-.17l.59-.82q.07-.11.15,0a1.47,1.47,0,0,1,.23.31,3.17,3.17,0,0,1,.16.37c0,.13.07.26.1.4a2.56,2.56,0,0,1,0,.39,2.61,2.61,0,0,1-.29,1.26,1.29,1.29,0,0,1-1.21.71Zm1.22,1.55-.62.62-.61-.62.61-.62Zm1.37,0-.61.62-.62-.62.62-.62Z"/><path d="M67.71,117.85a3.06,3.06,0,0,1-.38,1.18c-.07.14-.12.21-.14.21s-.07-.16-.11-.47l-.47-5.32.93-.77c.06-.05.1-.08.12-.08s0,0,0,.11Z"/><path d="M72.55,118.65a3.42,3.42,0,0,1-.34,1.52,3.79,3.79,0,0,1-.24.43q-.15.21-.3.39a3.75,3.75,0,0,1-.27.28.48.48,0,0,1-.18.11l-.68,0-.68-.07-.51-.09q-.21-.06-.21-.12s0,0,.07,0a5,5,0,0,0,1-.45,7.37,7.37,0,0,0,.87-.6,4.1,4.1,0,0,0,.62-.64,1.05,1.05,0,0,0,.23-.58.68.68,0,0,0-.08-.26,2.84,2.84,0,0,0-.22-.35c-.09-.12-.19-.24-.29-.35a4,4,0,0,0-.31-.29l.49-1a.07.07,0,0,1,.06,0,.09.09,0,0,1,.06,0A3,3,0,0,1,72.55,118.65ZM72.11,115l-.75.74-.73-.74.73-.72Z"/><path d="M74.45,117.85a3.25,3.25,0,0,1-.38,1.18c-.07.14-.12.21-.14.21s-.08-.16-.11-.47l-.47-5.32.93-.77c.06-.05.1-.08.12-.08s0,0,0,.11Z"/><path d="M80.71,119c-.54,0-.94-.41-1.19-1.23l-.42.69c-1.31,0-2-.23-2-.68a1.29,1.29,0,0,1,0-.24c0-.1,0-.2.08-.31a2.11,2.11,0,0,1,.1-.3.7.7,0,0,1,.12-.2,3.82,3.82,0,0,1,.67-.51,4.92,4.92,0,0,1,.89-.44l-.17-.62.71-.68a5.05,5.05,0,0,1,.15.65c.07.36.18.87.31,1.54l.09.37a1.2,1.2,0,0,0,.13.33,1,1,0,0,0,.23.24.7.7,0,0,0,.37.09h.36V119Zm-1.54-2.6a3.22,3.22,0,0,0-1.23.72c.13.19.62.28,1.49.28Z"/><path d="M84.81,119a3.14,3.14,0,0,1-1-.13,2.35,2.35,0,0,1-.82-.47,3,3,0,0,1-1.74.6h-.08l-.2,0q-.09,0-.09-.06v-1.14s0,0,.09-.06l.2,0h.27a2,2,0,0,0,.67-.07,1.48,1.48,0,0,1-.33-.79,1.57,1.57,0,0,1,.12-.55,2.16,2.16,0,0,1,.31-.58,1.92,1.92,0,0,1,.45-.45.87.87,0,0,1,.54-.19.78.78,0,0,1,.46.14,1.16,1.16,0,0,1,.32.34,1.84,1.84,0,0,1,.25,1,1.56,1.56,0,0,1-.38,1.13,2,2,0,0,0,.76.07H85V119ZM83,113.68l-.62.62-.61-.62.61-.62Zm.72,3.1a.54.54,0,0,0,0-.21.8.8,0,0,0-.15-.21,1,1,0,0,0-.2-.15.53.53,0,0,0-.23-.06.68.68,0,0,0-.23,0,1.08,1.08,0,0,0-.24.12.81.81,0,0,0-.18.19.4.4,0,0,0-.08.23.37.37,0,0,0,.08.2,1.68,1.68,0,0,0,.18.21l.22.16a.49.49,0,0,0,.2.06.54.54,0,0,0,.19,0,1.27,1.27,0,0,0,.22-.13,1.07,1.07,0,0,0,.18-.19A.35.35,0,0,0,83.73,116.78Zm.65-3.1-.61.62-.62-.62.62-.62Z"/><path d="M87.64,119a1.86,1.86,0,0,1-.75-.17,1.19,1.19,0,0,1-.56-.57,1.61,1.61,0,0,1-.54.53,1.41,1.41,0,0,1-.74.21H85l-.2,0q-.09,0-.09-.06v-1.14s0,0,.09-.06l.2,0H85a1.93,1.93,0,0,0,.5-.09.76.76,0,0,0,.36-.24,1.32,1.32,0,0,0,.22-.61q0-.33.24-.33t.24.33a1.61,1.61,0,0,0,.19.61,1,1,0,0,0,.84.33h.11V119Zm-1.39,1.55-.62.62-.61-.62.61-.62Zm1.37,0-.61.62-.62-.62.62-.62Z"/><path d="M90.26,119a1.18,1.18,0,0,1-.59-.17,1,1,0,0,1-.42-.47,1.37,1.37,0,0,1-.44.46,1.05,1.05,0,0,1-.56.18h-.54l-.2,0q-.09,0-.09-.06v-1.14s0,0,.09-.06l.2,0h.53c.5,0,.74-.23.74-.69,0-.24,0-.52,0-.84s0-.68-.06-1.09-.05-.76-.07-1,0-.43-.07-.52l1-.92c.05,0,.08,0,.08,0V117a.63.63,0,0,0,.71.71h.63V119Z"/><path d="M95.86,119a1,1,0,0,1-.59-.17,1.6,1.6,0,0,1-.45-.53,1.6,1.6,0,0,1-.45.53,1,1,0,0,1-.59.17,1.14,1.14,0,0,1-1-.7,1.32,1.32,0,0,1-1.23.7h-.36l-.2,0q-.09,0-.09-.06v-1.14s0,0,.09-.06l.2,0h.59a.9.9,0,0,0,.36-.06.62.62,0,0,0,.22-.17,1.13,1.13,0,0,0,.14-.27c0-.11.07-.23.1-.36s.13-.31.24-.31.21.1.26.31.05.22.08.33a1.11,1.11,0,0,0,.12.27.59.59,0,0,0,.22.19.7.7,0,0,0,.35.07.83.83,0,0,0,.34-.06.67.67,0,0,0,.22-.19,1.13,1.13,0,0,0,.13-.27c0-.11.07-.22.1-.34s.14-.31.27-.31.19.1.24.31a3.4,3.4,0,0,0,.07.34,1.11,1.11,0,0,0,.12.27.67.67,0,0,0,.22.18.79.79,0,0,0,.37.07c.42,0,.63-.13.63-.4a.66.66,0,0,0-.11-.29c-.07-.12-.18-.27-.31-.46l.45-.71c0-.07.09-.11.12-.11s.06,0,.09.07a2.11,2.11,0,0,1,.3.6,2.14,2.14,0,0,1,.11.67,3.7,3.7,0,0,1-.06.63,2.53,2.53,0,0,1-.22.62,1.66,1.66,0,0,1-.42.49A1,1,0,0,1,95.86,119Z"/><path d="M101.23,119a1.24,1.24,0,0,1-.64-.15,1.27,1.27,0,0,1-.4-.4,1.74,1.74,0,0,1-.21-.55,3.09,3.09,0,0,1-.08-.59q0-.32,0-.81c0-.33,0-.68,0-1.06s-.07-.94-.1-1.27-.06-.58-.07-.73l.85-.71a.58.58,0,0,1,.17-.11s0,0,0,.13V117c0,.47.27.71.8.71H102V119Z"/><path d="M102.75,120.65l-.75.74-.73-.74.73-.72ZM102,119l-.2,0q-.09,0-.09-.06v-1.14s0,0,.09-.06l.2,0h.66c.49,0,.74-.09.74-.27s-.19-.44-.57-.85a.13.13,0,0,1,0-.08.16.16,0,0,1,0-.09l.59-.82s.05-.06.08-.06a.09.09,0,0,1,.07,0,1.46,1.46,0,0,1,.22.3,3.17,3.17,0,0,1,.16.37c0,.13.07.27.1.41a1.84,1.84,0,0,1,0,.39,2.4,2.4,0,0,1-.39,1.43,1.31,1.31,0,0,1-1.11.54Z"/><path d="M74.88,129.18q0,.91-.21.93c-.06,0-.1-.07-.1-.21a6.48,6.48,0,0,0-.21-1.67,5.42,5.42,0,0,0-.69-1.51l.34-.53a4.82,4.82,0,0,1,.65,1.44A6,6,0,0,1,74.88,129.18Z"/><path d="M77.1,129.29c0,.54-.07.81-.2.82s-.1-.07-.1-.21a4,4,0,0,0-.09-.85,4.8,4.8,0,0,0-.24-.82,6,6,0,0,0-.35-.78c-.13-.25-.28-.49-.43-.73l.34-.53.18.28.15.21a.52.52,0,0,0,.17.13.62.62,0,0,0,.25,0,.37.37,0,0,0,.29-.11.56.56,0,0,0,.13-.24,2.17,2.17,0,0,0,.07-.24c0-.07,0-.1.1-.1s.07,0,.08.09,0,.14,0,.22a.65.65,0,0,0,.11.22.31.31,0,0,0,.25.1.28.28,0,0,0,.23-.1,1.47,1.47,0,0,0,.1-.22l.06-.21c0-.07,0-.1.1-.1s.1.06.1.16c0,.68-.21,1-.62,1a.41.41,0,0,1-.16,0l-.13-.07a.53.53,0,0,1-.11-.09l-.06-.08a.47.47,0,0,1-.23.25.62.62,0,0,1-.33.08h-.17a6.65,6.65,0,0,1,.33,1A3.44,3.44,0,0,1,77.1,129.29Z"/><path d="M81.41,129.45c0,.16-.06.28-.08.37s0,.15,0,.2l0,.07s0,0,0,0-.08-.06-.18-.18a1.47,1.47,0,0,1-.27-.49,2.27,2.27,0,0,1-.14-.64c0-.26,0-.54,0-.85A2.64,2.64,0,0,1,80,128a1.27,1.27,0,0,1-.28,0,.55.55,0,0,1-.39-.29.69.69,0,0,1,0-.31,2,2,0,0,1,0-.4,2.48,2.48,0,0,1,.15-.41,1.35,1.35,0,0,1,.26-.32.57.57,0,0,1,.36-.13c.55,0,.83.47.83,1.4a4.93,4.93,0,0,0,.12,1.18A1.61,1.61,0,0,0,81.41,129.45Zm-.84-2a1,1,0,0,0-.06-.23.74.74,0,0,0-.1-.22.64.64,0,0,0-.17-.16.42.42,0,0,0-.51.06.39.39,0,0,0-.14.32.24.24,0,0,0,.16.24.84.84,0,0,0,.35.07l.27,0Z"/><path d="M83.64,129.29c0,.54-.07.81-.2.82s-.1-.07-.1-.21a4,4,0,0,0-.09-.85,5.91,5.91,0,0,0-.24-.82,7.75,7.75,0,0,0-.35-.78c-.14-.25-.28-.49-.44-.73l.35-.53.17.24a1.07,1.07,0,0,0,.2.22,1.14,1.14,0,0,0,.23.15.65.65,0,0,0,.29.06,1,1,0,0,0,.52-.14.87.87,0,0,0,.34-.41c0-.09.08-.14.13-.14a.07.07,0,0,1,.06,0,.16.16,0,0,1,0,.11,1.21,1.21,0,0,1-.09.48.93.93,0,0,1-.23.35,1,1,0,0,1-.34.21,1.42,1.42,0,0,1-.42.07,1.27,1.27,0,0,1-.28,0,6.65,6.65,0,0,1,.33,1A3.44,3.44,0,0,1,83.64,129.29Z"/><path d="M93.49,130h-.28a.73.73,0,0,1-.71-.42.66.66,0,0,1-.67.43.61.61,0,0,1-.63-.44.76.76,0,0,1-.72.44,1.73,1.73,0,0,1-.38,0,2.17,2.17,0,0,1,0,.4,1.61,1.61,0,0,1-.08.56,1.5,1.5,0,0,1-.86.87A3,3,0,0,1,88,132a1.7,1.7,0,0,1-1.08-.33,1.19,1.19,0,0,1-.46-1,1.78,1.78,0,0,1,.17-.72c.14-.32.26-.5.35-.52s0,0,0,.05a.22.22,0,0,1,0,.09,1.9,1.9,0,0,0-.23.84,1,1,0,0,0,.24.65,1.36,1.36,0,0,0,1,.36,3,3,0,0,0,1.3-.28,1.12,1.12,0,0,0,.57-.47,1.08,1.08,0,0,0,0-.34,1.2,1.2,0,0,0-.08-.37,3.22,3.22,0,0,0-.49-.75l.23-.42s0-.07.07-.08l.07.07a2.36,2.36,0,0,0,.28.39.69.69,0,0,0,.51.21.58.58,0,0,0,.49-.18,1,1,0,0,0,.16-.43q0-.13.09-.15s.06.05.08.14q.08.62.54.63c.37,0,.58-.2.63-.61,0-.09,0-.14.07-.14s.08,0,.09.14q.08.6.6.6h.29Z"/><path d="M96,130h-.39a.92.92,0,0,1-.92-.46,1.13,1.13,0,0,1-1.05.46h-.33v-.58h.45c.5,0,.76-.2.81-.58,0-.15.06-.23.12-.23s.08.08.1.25c0,.37.29.56.77.56H96Zm-1.66,1.11-.38.39-.39-.39.39-.4Zm.87,0-.4.39-.38-.39.38-.4Z"/><path d="M99.92,128.93a1.21,1.21,0,0,1-.21.73.83.83,0,0,1-1.39-.08.8.8,0,0,1-.7.42.68.68,0,0,1-.73-.42.92.92,0,0,1-.78.42h-.36v-.58h.4a.61.61,0,0,0,.65-.6c0-.09,0-.14.09-.14s.08,0,.09.14a.57.57,0,0,0,.63.6.56.56,0,0,0,.47-.18,1,1,0,0,0,.14-.42c0-.09,0-.13.09-.13s.07,0,.08.13c0,.4.25.6.62.6s.56-.09.56-.27a1.13,1.13,0,0,0-.28-.59l.22-.42c0-.07.07-.11.09-.11a.55.55,0,0,1,.09.13A1.68,1.68,0,0,1,99.92,128.93Z"/><path d="M101.91,124.55l-.06.25a7.69,7.69,0,0,0-1.13.31v-.17l.33-.2c-.21-.13-.32-.25-.32-.36A.64.64,0,0,1,101,124a.68.68,0,0,1,.42-.25.41.41,0,0,1,.38.26.14.14,0,0,1,0,.11s0,0,0,0h-.07a.91.91,0,0,0-.33,0,.45.45,0,0,0-.21.06c-.07,0-.1.08-.1.12s.07.18.2.25a.68.68,0,0,0,.33.09.74.74,0,0,0,.28-.06h.07S101.92,124.52,101.91,124.55Zm.5,5.45h-.34a.8.8,0,0,1-.79-.46,2.56,2.56,0,0,1-.14-1v-1c0-.56,0-1.21-.11-2l.31-.33c0-.06.09-.06.1,0a14.43,14.43,0,0,1,.1,2v1.48a.54.54,0,0,0,.6.62h.27Z"/><path d="M103.61,129a.88.88,0,0,1-1,1h-.43v-.58h.35q.75,0,.75-.27a1.29,1.29,0,0,0-.34-.63l.21-.5a.1.1,0,0,1,0-.07s0,0,.08.08A1.7,1.7,0,0,1,103.61,129Zm-.47-2.21-.39.4-.39-.4.39-.38Zm.86,0-.39.4-.39-.4.39-.38Z"/><path class="cls-1" d="M54,52V70A20,20,0,0,0,74,90h0A20,20,0,0,0,94,70V52"/><polyline class="cls-1" points="119.41 91.42 134 76.83 134 64"/><line class="cls-1" x1="74" y1="52" x2="74" y2="60"/><line class="cls-1" x1="134" y1="60" x2="134" y2="52"/><line class="cls-1" x1="94" y1="96" x2="94" y2="104"/><line class="cls-1" x1="102" y1="104" x2="102" y2="96"/><polyline class="cls-1" points="102 52 102 60.83 94 68.83"/><polyline class="cls-1" points="110 52 110 64.83 94 80.83"/><polyline class="cls-1" points="94 52 94 90 96.83 90 118 68.83 118 52"/><rect class="cls-2" width="188" height="174"/></g></svg>