<svg xmlns="http://www.w3.org/2000/svg" xmlns:xlink="http://www.w3.org/1999/xlink" viewBox="0 0 1920 1080"><defs><style>.cls-1{fill:#082b96;}.cls-2{fill:#4672e2;}.cls-3{fill:url(#linear-gradient);}.cls-4{fill:url(#linear-gradient-2);}.cls-5{fill:url(#linear-gradient-3);}.cls-6{fill:url(#linear-gradient-4);}.cls-7{fill:url(#linear-gradient-5);}.cls-8{fill:url(#linear-gradient-6);}.cls-9{fill:url(#linear-gradient-7);}.cls-10{fill:url(#linear-gradient-8);}.cls-11{fill:url(#linear-gradient-9);}.cls-12{fill:url(#linear-gradient-10);}</style><linearGradient id="linear-gradient" x1="961.77" y1="540" x2="1633.23" y2="540" gradientTransform="translate(480.07 -603.2) rotate(31.84)" gradientUnits="userSpaceOnUse"><stop offset="0" stop-color="#fff" stop-opacity="0"/><stop offset="0.51" stop-color="#fff"/><stop offset="1" stop-color="#fff" stop-opacity="0"/></linearGradient><linearGradient id="linear-gradient-2" x1="750" y1="1080" x2="750" y2="0" gradientTransform="matrix(1, 0, 0, 1, 0, 0)" xlink:href="#linear-gradient"/><linearGradient id="linear-gradient-3" x1="915" y1="1080" x2="915" y2="0" gradientTransform="matrix(1, 0, 0, 1, 0, 0)" xlink:href="#linear-gradient"/><linearGradient id="linear-gradient-4" x1="1080" y1="1080" x2="1080" y2="0" gradientTransform="matrix(1, 0, 0, 1, 0, 0)" xlink:href="#linear-gradient"/><linearGradient id="linear-gradient-5" x1="1245" y1="1080" x2="1245" y2="0" gradientTransform="matrix(1, 0, 0, 1, 0, 0)" xlink:href="#linear-gradient"/><linearGradient id="linear-gradient-6" x1="1350" y1="1080" x2="1350" y2="0" gradientTransform="matrix(1, 0, 0, 1, 0, 0)" xlink:href="#linear-gradient"/><linearGradient id="linear-gradient-7" x1="294.27" y1="540" x2="965.73" y2="540" gradientTransform="translate(756.48 -280.06) rotate(58.17)" xlink:href="#linear-gradient"/><linearGradient id="linear-gradient-8" x1="0" y1="540" x2="1920" y2="540" gradientTransform="matrix(1, 0, 0, 1, 0, 0)" xlink:href="#linear-gradient"/><linearGradient id="linear-gradient-9" x1="0" y1="465" x2="1920" y2="465" gradientTransform="matrix(1, 0, 0, 1, 0, 0)" xlink:href="#linear-gradient"/><linearGradient id="linear-gradient-10" x1="0" y1="615" x2="1920" y2="615" gradientTransform="matrix(1, 0, 0, 1, 0, 0)" xlink:href="#linear-gradient"/></defs><g id="Background"><rect class="cls-1" width="1920" height="1080"/></g><g id="Graphics"><polygon class="cls-2" points="690 630 554.62 630 650.3 480 570 480 570 450 705.02 450 609.34 600 690 600 690 630"/><polygon class="cls-2" points="855 630 735.39 630 734.96 450 855 450 855 480 765.04 480 765.32 600 855 600 855 630"/><rect class="cls-2" x="750" y="525" width="105" height="30"/><polygon class="cls-2" points="1020 630 900 630 900 450 1020 450 1020 480 930 480 930 600 1020 600 1020 630"/><rect class="cls-2" x="915" y="525" width="105" height="30"/><polygon class="cls-2" points="1185 630 1065 630 1065 450 1185 450 1185 480 1095 480 1095 600 1185 600 1185 630"/><rect class="cls-2" x="1080" y="525" width="105" height="30"/><polygon class="cls-2" points="1365 630 1335.12 630 1260 507.41 1260 630 1230 630 1230 450 1260.01 450 1335 572.39 1335 450 1365 450 1365 630"/><rect class="cls-3" x="1297" y="-95.63" width="1" height="1271.26" transform="translate(-89.64 765.69) rotate(-31.84)"/><rect class="cls-4" x="749.5" width="1" height="1080"/><rect class="cls-5" x="914.5" width="1" height="1080"/><rect class="cls-6" x="1079.5" width="1" height="1080"/><rect class="cls-7" x="1244.5" width="1" height="1080"/><rect class="cls-8" x="1349.5" width="1" height="1080"/><rect class="cls-9" x="-5.63" y="539.5" width="1271.26" height="1" transform="translate(-161.07 790.42) rotate(-58.17)"/><rect class="cls-10" y="539.5" width="1920" height="1"/><rect class="cls-11" y="464.5" width="1920" height="1"/><rect class="cls-12" y="614.5" width="1920" height="1"/></g></svg>