<svg xmlns="http://www.w3.org/2000/svg" viewBox="0 0 56 51"><defs><style>.cls-1{fill:none;stroke:#000;stroke-miterlimit:10;stroke-width:2px;}.cls-2{fill:#777d7e;}</style></defs><g id="Graphics"><polyline class="cls-1" points="13 13 20.18 13 13.8 23 21 23"/><polyline class="cls-1" points="32 23 25.02 23 25 13 32 13"/><line class="cls-1" x1="32" y1="18" x2="25" y2="18"/><polyline class="cls-1" points="43 23 36 23 36 13 43 13"/><line class="cls-1" x1="43" y1="18" x2="36" y2="18"/><polyline class="cls-1" points="32 38 25 38 25 28 32 28"/><line class="cls-1" x1="32" y1="33" x2="25" y2="33"/><polyline class="cls-1" points="43 27 43 38 42.64 38 36.36 28 36 28 36 39"/><path class="cls-2" d="M55,1V50H1V1H55m1-1H0V51H56V0Z"/></g></svg>