<svg xmlns="http://www.w3.org/2000/svg" viewBox="0 0 504 504"><defs><style>.cls-1{fill:#cde5d9;}</style></defs><g id="Graphics"><rect class="cls-1" x="108" y="108" width="288" height="288" rx="144"/><path d="M205.47,302.33a51.24,51.24,0,0,1-51.18-51.19V204.61h9.3v46.53a41.88,41.88,0,0,0,83.76,0V204.61h9.3v46.53A51.24,51.24,0,0,1,205.47,302.33Z"/><polygon points="310.73 300.96 304.15 294.38 340.41 258.12 340.41 232.53 349.71 232.53 349.71 261.98 310.73 300.96"/><rect x="200.82" y="204.61" width="9.31" height="18.61"/><rect x="340.41" y="204.61" width="9.31" height="18.61"/><rect x="247.35" y="311.63" width="9.31" height="18.61"/><rect x="265.96" y="311.63" width="9.31" height="18.61"/><polygon points="255.29 251.71 248.71 245.13 270.61 223.22 270.61 204.61 279.92 204.61 279.92 227.08 255.29 251.71"/><polygon points="255.29 279.63 248.71 273.04 289.23 232.53 289.23 204.61 298.53 204.61 298.53 236.38 255.29 279.63"/><polygon points="260.51 302.33 247.35 302.33 247.35 204.61 256.65 204.61 256.65 293.02 307.84 241.84 307.84 204.61 317.14 204.61 317.14 245.69 260.51 302.33"/></g></svg>