<svg xmlns="http://www.w3.org/2000/svg" xmlns:xlink="http://www.w3.org/1999/xlink" viewBox="0 0 1920 1080"><defs><style>.cls-1,.cls-6{fill:#082b96;}.cls-10,.cls-2,.cls-3,.cls-4,.cls-5,.cls-7,.cls-8,.cls-9{fill:none;}.cls-2{stroke:#4672e2;stroke-width:10px;}.cls-10,.cls-2,.cls-3,.cls-4,.cls-5,.cls-6,.cls-7,.cls-8,.cls-9{stroke-miterlimit:10;}.cls-3{stroke:url(#linear-gradient);}.cls-4{stroke:url(#linear-gradient-2);}.cls-5,.cls-6{stroke:#fff;}.cls-5{stroke-width:1.25px;stroke-dasharray:15 5;}.cls-7{stroke:url(#linear-gradient-3);}.cls-8{stroke:url(#linear-gradient-4);}.cls-9{stroke:url(#linear-gradient-5);}.cls-10{stroke:url(#linear-gradient-6);}</style><linearGradient id="linear-gradient" x1="699.5" y1="540" x2="700.5" y2="540" gradientUnits="userSpaceOnUse"><stop offset="0" stop-color="#fff" stop-opacity="0"/><stop offset="0.51" stop-color="#fff"/><stop offset="1" stop-color="#fff" stop-opacity="0"/></linearGradient><linearGradient id="linear-gradient-2" x1="520" y1="245" x2="1400" y2="245" xlink:href="#linear-gradient"/><linearGradient id="linear-gradient-3" x1="12702.43" y1="8835.57" x2="13782.43" y2="8835.57" gradientTransform="translate(10235.57 -12702.43) rotate(90)" xlink:href="#linear-gradient"/><linearGradient id="linear-gradient-4" x1="12702.43" y1="9715.57" x2="13782.43" y2="9715.57" gradientTransform="translate(10235.57 -12702.43) rotate(90)" xlink:href="#linear-gradient"/><linearGradient id="linear-gradient-5" x1="12282.42" y1="8860.57" x2="14202.42" y2="8860.57" gradientTransform="translate(14202.43 9815.57) rotate(180)" xlink:href="#linear-gradient"/><linearGradient id="linear-gradient-6" x1="12282.42" y1="9690.57" x2="14202.42" y2="9690.57" gradientTransform="translate(14202.43 9815.57) rotate(180)" xlink:href="#linear-gradient"/></defs><g id="Background"><rect class="cls-1" width="1920" height="1080"/></g><g id="Graphics"><line class="cls-2" x1="705" y1="370" x2="705" y2="250"/><line class="cls-2" x1="705" y1="300" x2="740" y2="300"/><line class="cls-2" x1="705" y1="300" x2="731.85" y2="273.15"/><line class="cls-2" x1="702.19" y1="335" x2="685" y2="335"/><path class="cls-2" d="M710,320a15,15,0,0,1,0,30"/><path class="cls-2" d="M720,265a15,15,0,0,0-30,0"/><path class="cls-2" d="M815,705a64.84,64.84,0,0,1,64.84-64.84h0A64.84,64.84,0,0,1,944.68,705"/><line class="cls-2" x1="875" y1="410" x2="765" y2="520"/><path class="cls-2" d="M790,420l-55,55v25H705V370h95a90,90,0,0,1,90,90v30h175a90,90,0,0,1,90,90V710H765V445"/><polyline class="cls-2" points="1155 680 1060 680 1060 490"/><path class="cls-2" d="M890,490h130a0,0,0,0,1,0,0v65a65,65,0,0,1-65,65h0a65,65,0,0,1-65-65V490A0,0,0,0,1,890,490Z"/><polyline class="cls-2" points="740 370 740 405 705 405"/><line class="cls-3" x1="700" y1="955" x2="700" y2="125"/><line class="cls-4" x1="1400" y1="245" x2="520" y2="245"/><path class="cls-5" d="M895,245v60a60,60,0,0,0,120,0V245Z"/><path class="cls-5" d="M895,365v60a60,60,0,0,0,120,0V365Z"/><path class="cls-5" d="M895,125v60a60,60,0,0,0,120,0V125Z"/><path class="cls-5" d="M640,495v60a60,60,0,0,0,120,0V495Z"/><path class="cls-5" d="M520,495v60a60,60,0,0,0,120,0V495Z"/><path class="cls-5" d="M1160,595v60a60,60,0,0,0,120,0V595Z"/><path class="cls-5" d="M1280,595v60a60,60,0,0,0,120,0V595Z"/><path class="cls-5" d="M895,835v60a60,60,0,0,0,120,0V835Z"/><path class="cls-5" d="M895,715v60a60,60,0,0,0,120,0V715Z"/><path class="cls-6" d="M895,495v60a60,60,0,0,0,120,0V495Z"/><line class="cls-7" x1="1400" x2="1400" y2="1080"/><line class="cls-8" x1="520" x2="520" y2="1080"/><line class="cls-9" x1="1920" y1="955" y2="955"/><line class="cls-10" x1="1920" y1="125" y2="125"/></g></svg>