<svg xmlns="http://www.w3.org/2000/svg" viewBox="0 0 1920 1080"><defs><style>.cls-1,.cls-3{fill:none;stroke-miterlimit:10;}.cls-1{stroke:#969b9c;stroke-width:1.25px;stroke-dasharray:15 5;}.cls-2{fill:#d5d7d7;}.cls-3{stroke:#b5b9ba;stroke-width:24px;}</style></defs><g id="Graphics"><polygon class="cls-1" points="888.3 378 780 378 856.54 258 792.3 258 792.3 234 900.32 234 823.77 354 888.3 354 888.3 378"/><polygon class="cls-1" points="768 413.69 768 522 648 445.45 648 509.69 624 509.69 624 401.68 744 478.23 744 413.69 768 413.69"/><polygon class="cls-1" points="1152 701.98 1152 593.68 1272 670.23 1272 605.98 1296 605.98 1296 714 1176 637.46 1176 701.98 1152 701.98"/><polygon class="cls-1" points="1007.98 846 899.68 846 976.23 726 911.98 726 911.98 702 1020 702 943.46 822 1007.98 822 1007.98 846"/><path class="cls-2" d="M0,0V1080H1920V0ZM1296,846H624V234h672Z"/><polyline class="cls-3" points="780 390 866.13 390 789.58 510 876 510"/><polyline class="cls-3" points="1008 510 924.29 510 924 390 1008 390"/><line class="cls-3" x1="1008" y1="450" x2="924" y2="450"/><polyline class="cls-3" points="1140 510 1056 510 1056 390 1140 390"/><line class="cls-3" x1="1140" y1="450" x2="1056" y2="450"/><polyline class="cls-3" points="1008 690 924 690 924 570 1008 570"/><line class="cls-3" x1="1008" y1="630" x2="924" y2="630"/><polyline class="cls-3" points="1140 558 1140 690 1135.65 690 1060.36 570 1056 570 1056 702"/></g></svg>