<svg xmlns="http://www.w3.org/2000/svg" viewBox="0 0 540 540"><defs><style>.cls-1{fill:#f5cebc;}</style></defs><g id="Layer_1" data-name="Layer 1"><g id="Graphics-2" data-name="Graphics"><path class="cls-1" d="M270,126h0A144,144,0,0,1,414,270h0A144,144,0,0,1,270,414h0A144,144,0,0,1,126,270h0A144,144,0,0,1,270,126Z"/><path d="M251.78,412.86v-76L320.65,268A56,56,0,0,1,328,295.74v62.94a46.28,46.28,0,0,0,15.91,34.93q3-1.78,5.88-3.72a39.69,39.69,0,0,1-15.17-31.21V318.93h70.87c.79-2.19,1.52-4.4,2.21-6.63H334.6V295.74a63,63,0,0,0-62.94-63H212v-6.63a13.25,13.25,0,0,0,0-26.5V193h19.9v-6.6H216.71l12.13-12.13-4.68-4.69L212,181.72V160.8a6.6,6.6,0,0,1,3.31,5.73H222a13.25,13.25,0,1,0-26.5,0h6.62a6.61,6.61,0,0,1,3.32-5.73v48.8H195.5v6.62h9.94V325.55h26.5v-18.5l13.25-13.25V411.86C247.34,412.24,249.55,412.58,251.78,412.86ZM212,206.28a6.63,6.63,0,0,1,.51,13.25H212Zm0,33.13h16.57V256H212Zm13.25,64.89v14.63H212V262.6h23.19V239.41h36.45a56.25,56.25,0,0,1,45.3,22.9l-65.18,65.18V287.17l15.59-15.6-4.68-4.68Z"/></g></g></svg>