<svg xmlns="http://www.w3.org/2000/svg" viewBox="0 0 1920 1080"><defs><style>.cls-1{fill:#fff;}.cls-2,.cls-3{fill:none;stroke:#000;stroke-miterlimit:10;}.cls-2{stroke-width:12px;}.cls-3{stroke-width:12px;}.cls-4{font-size:60px;font-family:Approach-Regular, Approach;letter-spacing:-0.01em;}.cls-5{letter-spacing:0.01em;}.cls-6{letter-spacing:-0.02em;}.cls-7{letter-spacing:-0.03em;}.cls-8{letter-spacing:-0.05em;}.cls-9{letter-spacing:-0.04em;}.cls-10{letter-spacing:-0.03em;}.cls-11{letter-spacing:-0.03em;}.cls-12{letter-spacing:-0.03em;}.cls-13{font-size:42px;letter-spacing:-0.01em;}.cls-14{letter-spacing:-0.02em;}.cls-15{letter-spacing:-0.04em;}</style></defs><g id="Background"><rect class="cls-1" width="1920" height="1080"/></g><g id="Graphics"><line class="cls-2" x1="654" y1="264" x2="654" y2="120"/><line class="cls-2" x1="654" y1="180" x2="696" y2="180"/><line class="cls-2" x1="654" y1="180" x2="686.22" y2="147.78"/><line class="cls-2" x1="650.62" y1="222" x2="630" y2="222"/><path class="cls-2" d="M660,204a18,18,0,0,1,0,36"/><path class="cls-2" d="M672,138a18,18,0,0,0-36,0"/><path class="cls-2" d="M786,666a77.81,77.81,0,0,1,77.81-77.81h0A77.81,77.81,0,0,1,941.61,666"/><line class="cls-2" x1="858" y1="312" x2="726" y2="444"/><path class="cls-2" d="M756,324l-66,66v30H654V264H768A108,108,0,0,1,876,372v36h210a108,108,0,0,1,108,108V672H726V354"/><polyline class="cls-2" points="1194 636 1080 636 1080 408"/><path class="cls-2" d="M876,408h156a0,0,0,0,1,0,0v78a78,78,0,0,1-78,78h0a78,78,0,0,1-78-78V408A0,0,0,0,1,876,408Z"/><polyline class="cls-2" points="696 264 696 306 654 306"/><path class="cls-2" d="M726,750v54a60,60,0,0,0,60,60h0a60,60,0,0,0,60-60V750"/><polyline class="cls-2" points="922.24 868.24 966 824.48 966 786"/><line class="cls-2" x1="786" y1="750" x2="786" y2="774"/><line class="cls-2" x1="966" y1="774" x2="966" y2="750"/><line class="cls-2" x1="846" y1="882" x2="846" y2="906"/><line class="cls-2" x1="870" y1="906" x2="870" y2="882"/><polyline class="cls-2" points="870 750 870 776.48 846 800.48"/><polyline class="cls-2" points="894 750 894 788.48 846 836.48"/><polyline class="cls-2" points="846 750 846 864 854.48 864 918 800.48 918 750"/><polyline class="cls-3" points="444 498 493.35 498 448.65 570 498 570"/><polyline class="cls-3" points="570 570 522 570 522 498 570 498"/><line class="cls-3" x1="570" y1="534" x2="522" y2="534"/><polyline class="cls-3" points="642 570 594 570 594 498 642 498"/><line class="cls-3" x1="642" y1="534" x2="594" y2="534"/><polyline class="cls-3" points="570 672 522 672 522 600 570 600"/><line class="cls-3" x1="570" y1="636" x2="522" y2="636"/><polyline class="cls-3" points="642 594 642 672 639.42 672 596.59 600 594 600 594 678"/><text class="cls-4" transform="translate(1026 822)">A<tspan class="cls-5" x="39.6" y="0">r</tspan><tspan x="61.9" y="0">ti</tspan><tspan class="cls-6" x="96.01" y="0">s</tspan><tspan x="124.21" y="0">ticall</tspan><tspan class="cls-7" x="248.02" y="0">y</tspan><tspan x="277.33" y="0"> </tspan><tspan class="cls-8" x="290.44" y="0">F</tspan><tspan class="cls-9" x="324.33" y="0">r</tspan><tspan class="cls-10" x="343.81" y="0">om </tspan><tspan class="cls-11" x="439.88" y="0">I</tspan><tspan class="cls-12" x="454.53" y="0">r</tspan><tspan class="cls-10" x="474.21" y="0">an</tspan><tspan class="cls-13"><tspan x="0" y="48">E</tspan><tspan class="cls-14" x="25.6" y="48">S</tspan><tspan class="cls-15" x="50.37" y="48">T</tspan><tspan x="72.59" y="48" xml:space="preserve"> 2013</tspan></tspan></text></g></svg>