<svg xmlns="http://www.w3.org/2000/svg" viewBox="0 0 1080 1080"><defs><style>.cls-1{fill:#ffec00;}.cls-2{fill:#f5cebc;}.cls-3{fill:#a9afb0;}.cls-4{fill:#cde5d9;}</style></defs><g id="Graphics"><path d="M625,802.63H611.93L609.12,810h-4.18l11.61-30h4.15l11.48,30h-4.5Zm-11.73-3.43h10.46l-5.15-14Z"/><path d="M638.87,810h-3.8V788.58h3.72v3.89a6.61,6.61,0,0,1,6.13-3.89h1.65v3.59h-1.69a5.09,5.09,0,0,0-4.38,2.36,11,11,0,0,0-1.63,6.35Z"/><path d="M649.62,791.71v-3.13h3.77v-6.91h3.81v6.91h5.39v3.13H657.2v12a3.6,3.6,0,0,0,.59,2.37,2.69,2.69,0,0,0,2.06.67h3.27V810h-3.85a6,6,0,0,1-4.38-1.47,5.78,5.78,0,0,1-1.5-4.3V791.71Z"/><path d="M669.87,785.1h-3.81V780h3.81Zm0,24.9h-3.81V788.58h3.81Z"/><path d="M682.75,810.52a10.49,10.49,0,0,1-6.61-1.9,6.88,6.88,0,0,1-2.68-5.17l3.81-.56a5.27,5.27,0,0,0,1.62,3.49,5.85,5.85,0,0,0,3.86,1.13,5.36,5.36,0,0,0,3.38-.92,3.24,3.24,0,0,0,1.16-2.72q0-2.55-3.76-3.08l-3.08-.48a8.46,8.46,0,0,1-4.69-2,5.27,5.27,0,0,1-1.63-4,5.47,5.47,0,0,1,2.2-4.48,9.19,9.19,0,0,1,5.86-1.74,9.29,9.29,0,0,1,5.87,1.71,7.44,7.44,0,0,1,2.71,4.9l-3.52.51a5.47,5.47,0,0,0-1.72-3.15,6.43,6.43,0,0,0-6.54-.13,2.72,2.72,0,0,0-.37,4.13,4.85,4.85,0,0,0,2.54,1l3.44.56q6.49,1,6.5,6.13a6.09,6.09,0,0,1-2.24,5A9.27,9.27,0,0,1,682.75,810.52Z"/><path d="M692.19,791.71v-3.13H696v-6.91h3.81v6.91h5.4v3.13h-5.4v12a3.6,3.6,0,0,0,.6,2.37,2.66,2.66,0,0,0,2.06.67h3.26V810h-3.85a6,6,0,0,1-4.37-1.47,5.79,5.79,0,0,1-1.51-4.3V791.71Z"/><path d="M712.44,785.1h-3.81V780h3.81Zm0,24.9h-3.81V788.58h3.81Z"/><path d="M726.43,807.26a5.5,5.5,0,0,0,3.87-1.35,5.93,5.93,0,0,0,1.76-3.8l3.72.44a8.6,8.6,0,0,1-3,5.81,10.58,10.58,0,0,1-13.8-.85,11.75,11.75,0,0,1-2.7-8.14,11.9,11.9,0,0,1,2.74-8.22,9.43,9.43,0,0,1,7.37-3.1,9.82,9.82,0,0,1,6.49,2.06,8.9,8.9,0,0,1,3,5.83l-3.89.44c-.52-3.38-2.4-5.06-5.63-5.06a5.34,5.34,0,0,0-4.52,2.11,9.58,9.58,0,0,0-1.61,5.94,9.27,9.27,0,0,0,1.62,5.81A5.43,5.43,0,0,0,726.43,807.26Z"/><path d="M757.76,806.82h1V810h-2.07a4.7,4.7,0,0,1-2.82-.81,3,3,0,0,1-1.28-2.22,7.51,7.51,0,0,1-6.78,3.55,8.07,8.07,0,0,1-5.4-1.74,5.68,5.68,0,0,1-2-4.51,6,6,0,0,1,1.68-4.39,8.42,8.42,0,0,1,4.79-2.22l6.25-1.07a1.44,1.44,0,0,0,1.34-1.55,3.59,3.59,0,0,0-1.25-2.83,5,5,0,0,0-3.44-1.1,5.54,5.54,0,0,0-3.45,1,5.09,5.09,0,0,0-1.75,3l-3.62-.42a7.31,7.31,0,0,1,2.91-4.79,9.83,9.83,0,0,1,6.06-1.82A8.58,8.58,0,0,1,754,790.1a7.11,7.11,0,0,1,2.21,5.46v9.65a1.76,1.76,0,0,0,.35,1.25A1.72,1.72,0,0,0,757.76,806.82ZM742.15,804a3.16,3.16,0,0,0,1.09,2.55,4.55,4.55,0,0,0,3,.92,5.72,5.72,0,0,0,4.47-2,7.28,7.28,0,0,0,1.74-5v-1.23l-6.86,1.19a4.45,4.45,0,0,0-2.58,1.19A3.24,3.24,0,0,0,742.15,804Z"/><path d="M765.29,810h-3.81V780h3.81Z"/><path d="M774.36,810h-3.81V780h3.81Z"/><path d="M784.94,812l.72-1.88-8.44-21.55h4l6.34,16.84,6.4-16.84h3.85l-9.35,23.83a9.24,9.24,0,0,1-2.91,4.33,7.28,7.28,0,0,1-4.41,1.19h-2.22v-3.22h2.22a3.52,3.52,0,0,0,3.78-2.7Z"/><path d="M813.39,810h-4.12V780h21.05v3.51H813.39v9.77H828.6v3.52H813.39Z"/><path d="M836.65,810h-3.8V788.58h3.72v3.89a6.61,6.61,0,0,1,6.13-3.89h1.65v3.59h-1.69a5.06,5.06,0,0,0-4.37,2.36,10.94,10.94,0,0,0-1.64,6.35Z"/><path d="M845.37,799.29a11.57,11.57,0,0,1,2.83-8.14,9.79,9.79,0,0,1,7.59-3.1,10,10,0,0,1,7.62,3.1,11.43,11.43,0,0,1,2.87,8.14,11.58,11.58,0,0,1-2.87,8.14,10,10,0,0,1-7.62,3.09,9.81,9.81,0,0,1-7.59-3.09A11.59,11.59,0,0,1,845.37,799.29Zm15.26,5.87a10.72,10.72,0,0,0,0-11.74,5.93,5.93,0,0,0-4.84-2.15,5.84,5.84,0,0,0-4.79,2.15,10.87,10.87,0,0,0,0,11.75,5.83,5.83,0,0,0,4.8,2.13A5.92,5.92,0,0,0,860.63,805.16Z"/><path d="M887.78,798.18V810H884V796.8a6,6,0,0,0-1.22-4,4.29,4.29,0,0,0-3.44-1.42,4.77,4.77,0,0,0-4,1.74,8.13,8.13,0,0,0-1.37,5.08V810h-3.81V788.58h3.73v2.61a7.19,7.19,0,0,1,6.29-3.14,8,8,0,0,1,4.09,1,6.38,6.38,0,0,1,2.63,2.87,7.27,7.27,0,0,1,6.91-3.87,7.6,7.6,0,0,1,5.76,2.17,8.12,8.12,0,0,1,2.08,5.89V810h-3.81V796.8a6,6,0,0,0-1.23-4,4.31,4.31,0,0,0-3.45-1.42,4.77,4.77,0,0,0-4,1.74A8.13,8.13,0,0,0,887.78,798.18Z"/><path d="M920.12,810H916V780h4.12Z"/><path d="M929.63,810h-3.8V788.58h3.72v3.89a6.62,6.62,0,0,1,6.13-3.89h1.65v3.59h-1.69a5.06,5.06,0,0,0-4.37,2.36,10.94,10.94,0,0,0-1.64,6.35Z"/><path d="M957.75,806.82h1V810H956.7a4.7,4.7,0,0,1-2.82-.81A3,3,0,0,1,952.6,807a7.48,7.48,0,0,1-6.78,3.55,8,8,0,0,1-5.39-1.74,5.65,5.65,0,0,1-2-4.51,6,6,0,0,1,1.67-4.39,8.46,8.46,0,0,1,4.79-2.22l6.26-1.07a1.45,1.45,0,0,0,1.34-1.55,3.57,3.57,0,0,0-1.26-2.83,5,5,0,0,0-3.43-1.1,5.54,5.54,0,0,0-3.45,1,5.1,5.1,0,0,0-1.76,3l-3.62-.42a7.33,7.33,0,0,1,2.92-4.79,9.81,9.81,0,0,1,6.06-1.82A8.57,8.57,0,0,1,954,790.1a7.11,7.11,0,0,1,2.21,5.46v9.65a1.71,1.71,0,0,0,.36,1.25A1.69,1.69,0,0,0,957.75,806.82ZM942.14,804a3.16,3.16,0,0,0,1.09,2.55,4.59,4.59,0,0,0,3,.92,5.7,5.7,0,0,0,4.47-2,7.24,7.24,0,0,0,1.75-5v-1.23l-6.86,1.19a4.48,4.48,0,0,0-2.59,1.19A3.29,3.29,0,0,0,942.14,804Z"/><path d="M979.88,796.11V810h-3.8V796.8a5.72,5.72,0,0,0-1.31-4,4.88,4.88,0,0,0-3.76-1.41,5.3,5.3,0,0,0-4.27,1.73,7.76,7.76,0,0,0-1.46,5.09V810h-3.81V788.58h3.73v2.69a7.53,7.53,0,0,1,6.67-3.22,7.85,7.85,0,0,1,5.88,2.17A8,8,0,0,1,979.88,796.11Z"/><path d="M621.94,850H605.11V825.49H621.6v2.87H608.48v7.78H620.2v2.8H608.48v8.19h13.46Z"/><path d="M634,850.43a10.68,10.68,0,0,1-7-2.14,7.38,7.38,0,0,1-2.67-5.84l3.3-.43a5.61,5.61,0,0,0,1.77,4.19,6.75,6.75,0,0,0,4.62,1.45,5.67,5.67,0,0,0,3.8-1.19,4,4,0,0,0,1.4-3.19,3.26,3.26,0,0,0-1-2.52,7.38,7.38,0,0,0-3.36-1.41l-3.27-.7a9.51,9.51,0,0,1-5-2.41,6.49,6.49,0,0,1,.68-9.19,8.77,8.77,0,0,1,5.95-2,9.48,9.48,0,0,1,6.16,1.88,7.4,7.4,0,0,1,2.62,5.23l-3.32.41c-.38-3.16-2.21-4.75-5.46-4.75a5.64,5.64,0,0,0-3.64,1,3.89,3.89,0,0,0-.35,5.43,5.94,5.94,0,0,0,3,1.38l3.81.82a9.4,9.4,0,0,1,4.85,2.29,5.86,5.86,0,0,1,1.56,4.29,6.74,6.74,0,0,1-2.35,5.25A9.09,9.09,0,0,1,634,850.43Z"/><path d="M643.59,825.49H662.2v2.87h-7.62V850h-3.33V828.36h-7.66Z"/><path d="M682.74,832a3.83,3.83,0,0,0-1.17-2.94,4.34,4.34,0,0,0-3.11-1.11,4.73,4.73,0,0,0-4,1.69,7.56,7.56,0,0,0-1.26,4.93l-3.21-.43a7.94,7.94,0,0,1,8.42-9.06A7.78,7.78,0,0,1,684,827a6.63,6.63,0,0,1,2.06,5,8.78,8.78,0,0,1-1.24,4.41,21.23,21.23,0,0,1-4,4.77l-6.54,6h12.46V850h-16.8v-2.87l8.81-8.09a15.4,15.4,0,0,0,3.09-3.6A6.93,6.93,0,0,0,682.74,832Z"/><path d="M689.52,837.75q0-5.87,2.41-9.28a8.44,8.44,0,0,1,13.52,0c1.62,2.22,2.44,5.31,2.44,9.28s-.82,7-2.44,9.28a8.47,8.47,0,0,1-13.53.05Q689.52,843.72,689.52,837.75Zm13.51,7.3a18.23,18.23,0,0,0,0-14.6,4.91,4.91,0,0,0-8.66.06,14.29,14.29,0,0,0-1.55,7.24,14.62,14.62,0,0,0,1.51,7.31,5,5,0,0,0,8.69,0Z"/><path d="M726.22,850H711v-2.8h6V831.46a5.32,5.32,0,0,1-2.8.65h-3.28v-2.75H714a2.89,2.89,0,0,0,2.35-.94,4.57,4.57,0,0,0,.77-2.93h3.22V847.2h5.88Z"/><path d="M741.75,842.82a3.85,3.85,0,0,0-1.26-3.07,5.28,5.28,0,0,0-3.57-1.1h-2.21v-2.54h2.11a4,4,0,0,0,3.06-1.17A4.52,4.52,0,0,0,741,831.7a3.53,3.53,0,0,0-1.19-2.82,4.72,4.72,0,0,0-3.22-1,5,5,0,0,0-3.69,1.35,5.36,5.36,0,0,0-1.49,3.76l-3-.67a6.75,6.75,0,0,1,2.37-5.21,8.87,8.87,0,0,1,5.92-2,8.4,8.4,0,0,1,5.58,1.75,5.88,5.88,0,0,1,2.06,4.7,6.46,6.46,0,0,1-.9,3.41,5.61,5.61,0,0,1-2.54,2.24,6.35,6.35,0,0,1,3.16,2.17,5.76,5.76,0,0,1,1.08,3.51,7.09,7.09,0,0,1-2.27,5.5,8.76,8.76,0,0,1-6.12,2.07,10.41,10.41,0,0,1-6.31-1.83,6.66,6.66,0,0,1-2.73-5l3.33-.73a5.1,5.1,0,0,0,1.65,3.55,5.84,5.84,0,0,0,3.94,1.25,5.4,5.4,0,0,0,3.81-1.28A4.63,4.63,0,0,0,741.75,842.82Z"/><rect x="280" y="190" width="10" height="120"/><rect x="285" y="235" width="35" height="10"/><rect x="279.44" y="221.57" width="37.97" height="10" transform="translate(-72.8 277.4) rotate(-45)"/><rect x="265" y="270" width="17.19" height="10"/><path d="M290,295V285a10,10,0,0,0,0-20V255a20,20,0,0,1,0,40Z"/><path d="M305,205H295a10,10,0,0,0-20,0H265a20,20,0,0,1,40,0Z"/><path d="M529.68,645h-10A59.84,59.84,0,0,0,400,645H390a69.84,69.84,0,1,1,139.68,0Z"/><rect x="322.21" y="400" width="155.56" height="10" transform="translate(-169.22 401.5) rotate(-45)"/><path d="M740,655H340V397.07l-20,20V445H280V305H380a95.11,95.11,0,0,1,95,95v25H645a95.11,95.11,0,0,1,95,95ZM350,645H730V520a85.1,85.1,0,0,0-85-85H465V400a85.1,85.1,0,0,0-85-85H290V435h20V412.93l56.46-56.47,7.07,7.07L350,387.07Z"/><polygon points="735 625 635 625 635 430 645 430 645 615 735 615 735 625"/><path d="M535,565a70.08,70.08,0,0,1-70-70V425H605v70A70.08,70.08,0,0,1,535,565ZM475,435v60a60.07,60.07,0,0,0,60,60h0a60.07,60.07,0,0,0,60-60V435Z"/><path d="M325,350H280V305h45Zm-35-10h25V315H290Z"/><path class="cls-1" d="M475,435v60a60,60,0,0,0,120,0V435Z"/><path class="cls-2" d="M400.32,645A59.84,59.84,0,1,1,520,645Z"/><rect class="cls-3" x="290" y="315" width="25" height="25"/><path class="cls-4" d="M645,435h0a85,85,0,0,1,85,85v95a0,0,0,0,1,0,0H645a0,0,0,0,1,0,0V435A0,0,0,0,1,645,435Z"/><polygon points="627.5 745 604.94 745 620.89 720 607.5 720 607.5 715 630.01 715 614.06 740 627.5 740 627.5 745"/><polygon points="655 745 635.07 745 635 715 655 715 655 720 640.01 720 640.06 740 655 740 655 745"/><rect x="637.5" y="727.5" width="17.5" height="5"/><polygon points="682.5 745 662.5 745 662.5 715 682.5 715 682.5 720 667.5 720 667.5 740 682.5 740 682.5 745"/><rect x="665" y="727.5" width="17.5" height="5"/><polygon points="710 745 690 745 690 715 710 715 710 720 695 720 695 740 710 740 710 745"/><rect x="692.51" y="727.5" width="17.5" height="5"/><polygon points="740 745 735.22 745 722.5 724.74 722.5 745 717.5 745 717.5 715 722.3 715 735 735.26 735 715 740 715 740 745"/><path d="M395,820a55.06,55.06,0,0,1-55-55V715h10v50a45,45,0,0,0,90,0V715h10v50A55.06,55.06,0,0,1,395,820Z"/><polygon points="508.1 818.54 501.03 811.47 540 772.5 540 745 550 745 550 776.64 508.1 818.54"/><rect x="390" y="715" width="10" height="20"/><rect x="540" y="715" width="10" height="20"/><rect x="440" y="830" width="10" height="20"/><rect x="460" y="830" width="10" height="20"/><polygon points="448.53 765.61 441.46 758.54 465 735 465 715 475 715 475 739.14 448.53 765.61"/><polygon points="448.53 795.61 441.46 788.54 485 745 485 715 495 715 495 749.14 448.53 795.61"/><polygon points="454.14 820 440 820 440 715 450 715 450 810 505 755 505 715 515 715 515 759.14 454.14 820"/></g></svg>