<svg xmlns="http://www.w3.org/2000/svg" xmlns:xlink="http://www.w3.org/1999/xlink" viewBox="0 0 1920 1080"><defs><style>.cls-1{fill:#082b96;}.cls-2{fill:#4672e2;}.cls-3{fill:#fff;}.cls-4{fill:url(#linear-gradient);}.cls-5{fill:url(#linear-gradient-2);}.cls-6{fill:url(#linear-gradient-3);}.cls-7{fill:url(#linear-gradient-4);}</style><linearGradient id="linear-gradient" x1="4926.43" y1="1031.57" x2="6006.43" y2="1031.57" gradientTransform="translate(2459.57 -4926.43) rotate(90)" gradientUnits="userSpaceOnUse"><stop offset="0" stop-color="#fff" stop-opacity="0"/><stop offset="0.51" stop-color="#fff"/><stop offset="1" stop-color="#fff" stop-opacity="0"/></linearGradient><linearGradient id="linear-gradient-2" x1="4926.43" y1="1967.57" x2="6006.43" y2="1967.57" xlink:href="#linear-gradient"/><linearGradient id="linear-gradient-3" x1="-3269.58" y1="9059.57" x2="-1349.58" y2="9059.57" gradientTransform="translate(-1349.57 9815.57) rotate(180)" xlink:href="#linear-gradient"/><linearGradient id="linear-gradient-4" x1="-3269.58" y1="9491.57" x2="-1349.58" y2="9491.57" gradientTransform="translate(-1349.57 9815.57) rotate(180)" xlink:href="#linear-gradient"/></defs><g id="Background"><rect class="cls-1" width="1920" height="1080"/><rect class="cls-1" width="1920" height="1080"/></g><g id="Graphics"><polygon class="cls-2" points="744 612 635.7 612 712.24 492 648 492 648 468 756.02 468 679.47 588 744 588 744 612"/><polygon class="cls-2" points="875.72 612 780.03 612 779.69 468 875.72 468 875.72 492 803.74 492 803.97 588 875.72 588 875.72 612"/><rect class="cls-2" x="791.71" y="528" width="84" height="24"/><polygon class="cls-2" points="1008 612 912 612 912 468 1008 468 1008 492 936 492 936 588 1008 588 1008 612"/><rect class="cls-2" x="924" y="528" width="84" height="24"/><polygon class="cls-2" points="1140 612 1044 612 1044 468 1140 468 1140 492 1068 492 1068 588 1140 588 1140 612"/><rect class="cls-2" x="1056" y="528" width="84" height="24"/><polygon class="cls-2" points="1284 612 1260.09 612 1200 513.93 1200 612 1176 612 1176 468 1200 468 1260 565.91 1260 468 1284 468 1284 612"/><path class="cls-3" d="M756,468.62H741v-1.24h15Zm-20,0H721v-1.24h15Zm-20,0H701v-1.24h15Zm-20,0H681v-1.24h15Zm-20,0H661v-1.24h15Zm-20,0h-9.44l4.21-6.6,1.06.67-3,4.69H656Zm100.63-3.38h-1.25v-15h1.25ZM654.5,458.48l-1.06-.68,8.07-12.64,1,.67Zm102.11-13.24h-1.25v-.62H742.22v-1.24h14.39Zm-19.39-.62h-15v-1.24h15Zm-20,0h-15v-1.24h15Zm-20,0h-6.91l5.58-8.74,1.06.67-4.36,6.83h4.63Zm-32-3-1-.67,8.06-12.64,1.06.67Zm34.39-9.27-1.06-.68L706.65,419l1.05.67ZM676,424.75l-1.06-.67L683,411.43l1.05.68Zm34.38-9.27-1-.68,8.06-12.64,1.06.67Zm-23.63-7.59-1-.67,8.07-12.65,1.05.67Zm34.39-9.28-1.06-.67,8.07-12.64,1.05.67ZM697.52,391l-1.06-.67,8.07-12.65,1.05.67Zm34.38-9.28-1-.67,8.07-12.65,1.05.68Zm-23.63-7.58-1-.67,8.07-12.65,1.05.67Zm34.39-9.28-1.06-.67,8.07-12.65,1.06.67ZM719,357.31l-1-.68,5.1-8h-3.22v-1.24h5.5Zm-4.17-8.69h-15v-1.24h15Zm-20,0h-15v-1.24h15Zm-20,0h-15.5v-.74H660v-.5h14.88Zm78.55-.59-1-.67,8.07-12.65,1.05.67Zm-92.8-5.15h-1.25v-15h1.25Zm103.56-11.71-1-.68,3.74-5.87H761.1v-1.24h8Zm-8.07-6.55h-15v-1.24h15Zm-20,0h-15v-1.24h15Zm-20,0h-15v-1.24h15Zm-20,0h-15v-1.24h15Zm-20,0h-15v-1.24h15Z"/><path class="cls-3" d="M636.62,613.46l-6.6-4.21.67-1.06,4.69,3V604h1.24Zm-10.82-6.9-12.64-8.07.67-1,12.65,8.06Zm-109.18-5.92h-.74V600h-.5V585.14h1.24Zm-5.74,0h-15v-1.25h15ZM636.62,599h-1.24V584h1.24Zm-144-.12h-1.24v-15h1.24Zm116.32-3.1-12.64-8.06.67-1.06,12.64,8.07Zm-16.86-10.75L579.43,577l.68-1.05L592.75,584Zm-75.46-4.91h-1.24v-15h1.24Zm120-1.12h-1.24V564h1.24Zm-144-.12h-1.24v-15h1.24Zm82.6-4.61-12.65-8.07.67-1.05,12.65,8.07Zm37.4-4.6-8.74-5.58.67-1.06,6.83,4.36v-4.63h1.24Zm-54.26-6.15-12.65-8.07.67-1.05L559,562.48Zm41.31-2.12L587,553.35l.67-1.05,12.65,8.07Zm-83-1.28h-1.24v-15h1.24Zm120-1.12h-1.24V544h1.24Zm-144-.12h-1.24v-15h1.24Zm120-1.12h-1.24v-15h1.24Zm-71.12-5-12.65-8.07.67-1.05,12.65,8.07Zm41.3-2.12-12.64-8.06.67-1.06,12.65,8.07ZM524.63,542l-8-5.1v3.22h-1.24v-5.5l9.93,6.33Zm41.31-2.11-12.64-8.07.67-1.05,12.64,8.06Zm70.68-.89h-1.24V524h1.24Zm-144-.12h-1.24v-15h1.24Zm120-1.12h-1.24v-15h1.24Zm-63.54-8.63-12.65-8.07.68-1.05,12.64,8.07ZM636.62,519h-1.24V504h1.24Zm-144-.12h-1.24v-15h1.24Zm39.6-.5-12.65-8.07.68-1.05,12.64,8.06Zm80.4-.62h-1.24V503.39h1.86v1.25h-.62Zm-97.26-10.14-12.65-8.07.67-1.05L516,506.59Zm117.88-3h-15v-1.25h15ZM492.62,498.9h-1.24v-8l7.79,5-.67,1.05-5.88-3.74Z"/><path class="cls-3" d="M1428.62,613.46l-7.79-5,.67-1,5.88,3.74v-5.76h1.24Zm-12-7.66L1404,597.73l.67-1.05,12.65,8.07Zm-108-4.87h-1.86v-1.25h.62V586.54h1.24Zm-6.86,0h-15v-1.25h15Zm126.86-.51h-1.24v-15h1.24Zm-144-.12h-1.24v-15h1.24ZM1399.75,595,1387.11,587l.67-1.06,12.65,8.07Zm-16.86-10.75-12.64-8.07.67-1.05,12.65,8.07Zm-74.27-2.75h-1.24v-15h1.24Zm120-1.12h-1.24v-15h1.24Zm-144-.12h-1.24v-15h1.24Zm81.41-6.77-12.64-8.06.67-1.06,12.64,8.07Zm38.59-3.84-9.93-6.34.68-1.05,8,5.11v-3.22h1.24Zm-55.45-6.91-12.65-8.07.68-1.05,12.64,8.06Zm-40.55-1.24h-1.24v-15h1.24Zm81.86-.88-12.65-8.07.67-1.05,12.65,8.07Zm38.14-.24h-1.24v-15h1.24Zm-144-.12h-1.24v-15h1.24Zm120-1.11h-1.24v-15h1.24ZM1332.31,552,1319.66,544l.67-1.06L1333,551Zm41.31-2.11L1361,541.84l.67-1.05,12.65,8.06Zm-65-8.37h-1.24v-6.9l8.74,5.57-.67,1.06-6.83-4.35Zm120-1.12h-1.24v-15h1.24Zm-144-.12h-1.24v-15h1.24Zm120-1.11h-1.24v-15h1.24Zm-47.86,0-12.65-8.07.67-1.05,12.65,8.07Zm-16.87-10.76-12.64-8.06.67-1.06,12.65,8.07Zm88.73-8h-1.24v-15h1.24Zm-144-.12h-1.24v-15h1.24Zm120-1.11h-1.24V503.68h.74v.62h.5ZM1323,517.64l-12.64-8.07.67-1.05,12.64,8.06Zm-16.86-10.76-12.65-8.06.68-1.06,12.64,8.07Zm117.95-1.95h-15v-1.25h15Zm-139.5-4.63h-1.24v-9.44l6.6,4.21-.67,1.06-4.69-3Z"/><path class="cls-3" d="M1008.3,756.62h-15v-1.24h15Zm-20,0h-15v-1.24h15Zm-20,0h-15v-1.24h15Zm-20,0h-15v-1.24h15Zm-20,0h-15v-1.24h15Zm-20,0h-9.44l4.21-6.6,1.06.67-3,4.69h7.16Zm100.63-3.38h-1.25v-15h1.25Zm-102.11-6.76-1.06-.68,8.07-12.64,1,.67Zm102.11-13.24h-1.25v-.62H994.55v-1.24h14.38Zm-19.38-.62h-15v-1.24h15Zm-20,0h-15v-1.24h15Zm-20,0h-6.91l5.57-8.74,1.06.67-4.35,6.83h4.63Zm-32-3-1.05-.67,8.06-12.64,1.06.67ZM952,720.34l-1.06-.67L959,707l1,.67Zm-23.63-7.59-1.06-.67,8.07-12.65,1,.68Zm34.38-9.27-1.05-.67,8.06-12.65,1.06.67Zm-23.63-7.59-1.05-.67,8.07-12.65,1,.67Zm34.39-9.27-1.06-.68,8.07-12.64,1,.67ZM949.84,679l-1.05-.67,8.06-12.65,1.06.67Zm34.38-9.28-1.05-.67,8.06-12.64,1.06.67Zm-23.63-7.58-1.05-.67,8.07-12.65,1,.67ZM995,652.89l-1.06-.67,8.07-12.65,1,.68Zm-23.63-7.58-1.05-.68,5.11-8h-3.23v-1.24h5.5Zm-4.17-8.69h-15v-1.24h15Zm-20,0h-15v-1.24h15Zm-20,0h-15.5v-.74h.62v-.5h14.88Zm78.55-.59-1.05-.67,8.07-12.65,1,.67Zm-92.8-5.15h-1.25v-15h1.25Zm103.56-11.71-1.06-.67,3.75-5.88h-5.76v-1.24h8Zm-8.07-6.55h-15v-1.24h15Zm-20,0h-15v-1.24h15Zm-20,0h-15v-1.24h15Zm-20,0h-15v-1.24h15Zm-20,0h-15v-1.24h15Z"/><rect class="cls-4" x="1427.5" width="1" height="1080"/><rect class="cls-5" x="491.5" width="1" height="1080"/><rect class="cls-6" y="755.5" width="1920" height="1"/><rect class="cls-7" y="323.5" width="1920" height="1"/></g></svg>