<svg xmlns="http://www.w3.org/2000/svg" viewBox="0 0 1920 1080"><defs><style>.cls-1,.cls-2{fill:none;stroke-miterlimit:10;}.cls-1{stroke:#b5b9ba;stroke-width:24px;}.cls-2{stroke:#969b9c;stroke-width:1.25px;stroke-dasharray:15 5;}.cls-3{fill:#d5d7d7;}</style></defs><g id="Graphics"><polyline class="cls-1" points="648 480 734.13 480 657.58 600 744 600"/><polyline class="cls-1" points="875.71 600 792 600 791.71 480 875.71 480"/><line class="cls-1" x1="875.71" y1="540" x2="791.71" y2="540"/><polyline class="cls-1" points="1008 600 924 600 924 480 1008 480"/><line class="cls-1" x1="1008" y1="540" x2="924" y2="540"/><polyline class="cls-1" points="1140 600 1056 600 1056 480 1140 480"/><line class="cls-1" x1="1140" y1="540" x2="1056" y2="540"/><polyline class="cls-1" points="1272 468 1272 600 1266.81 600 1193.28 480 1188 480 1188 612"/><polygon class="cls-2" points="755.98 468 647.68 468 724.23 348 659.98 348 659.98 324 768 324 691.46 444 755.98 444 755.98 468"/><polygon class="cls-2" points="636 504.02 636 612.32 516 535.77 516 600.02 492 600.02 492 492 612 568.54 612 504.02 636 504.02"/><polygon class="cls-2" points="1284 600.3 1284 492 1404 568.54 1404 504.31 1428 504.31 1428 612.32 1308 535.77 1308 600.3 1284 600.3"/><polygon class="cls-2" points="1008.3 756 900 756 976.54 636 912.3 636 912.3 612 1020.32 612 943.77 732 1008.3 732 1008.3 756"/></g><g id="Isolation_Mode" data-name="Isolation Mode"><path class="cls-3" d="M0,0V1080H1920V0ZM1428,756H492V324h936Z"/></g></svg>