<svg xmlns="http://www.w3.org/2000/svg" xmlns:xlink="http://www.w3.org/1999/xlink" viewBox="0 0 1920 1080"><defs><style>.cls-1{fill:#082b96;}.cls-2{fill:url(#linear-gradient);}.cls-3{fill:url(#linear-gradient-2);}.cls-4{fill:url(#linear-gradient-3);}.cls-5{fill:url(#linear-gradient-4);}.cls-6{fill:url(#linear-gradient-5);}.cls-7{fill:#4672e2;}.cls-8{fill:#fff;}</style><linearGradient id="linear-gradient" x1="3908" y1="5041.5" x2="5828" y2="5041.5" gradientTransform="translate(5828 5676) rotate(180)" gradientUnits="userSpaceOnUse"><stop offset="0" stop-color="#fff" stop-opacity="0"/><stop offset="0.51" stop-color="#fff"/><stop offset="1" stop-color="#fff" stop-opacity="0"/></linearGradient><linearGradient id="linear-gradient-2" x1="13806.43" y1="7739.57" x2="14886.43" y2="7739.57" gradientTransform="translate(9131.57 -13806.43) rotate(90)" xlink:href="#linear-gradient"/><linearGradient id="linear-gradient-3" x1="13806.43" y1="8603.76" x2="14886.43" y2="8603.76" gradientTransform="translate(9131.57 -13806.43) rotate(90)" xlink:href="#linear-gradient"/><linearGradient id="linear-gradient-4" x1="12282.42" y1="6730.07" x2="14202.42" y2="6730.07" gradientTransform="translate(14202.43 7607.57) rotate(180)" xlink:href="#linear-gradient"/><linearGradient id="linear-gradient-5" x1="12282.42" y1="7405.07" x2="14202.42" y2="7405.07" gradientTransform="translate(14202.43 7607.57) rotate(180)" xlink:href="#linear-gradient"/></defs><g id="Background"><rect class="cls-1" width="1920" height="1080"/></g><g id="Graphics"><rect class="cls-2" y="634" width="1920" height="1"/><rect class="cls-3" x="1391.5" width="1" height="1080"/><rect class="cls-4" x="527.32" width="1" height="1080"/><rect class="cls-5" y="877" width="1920" height="1"/><rect class="cls-6" y="202" width="1920" height="1"/><path class="cls-7" d="M870,634.5a99.11,99.11,0,0,1-99-99v-90h18v90a81,81,0,0,0,162,0v-90h18v90A99.11,99.11,0,0,1,870,634.5Z"/><polygon class="cls-7" points="1073.59 631.86 1060.86 619.14 1131 549 1131 499.5 1149 499.5 1149 556.46 1073.59 631.86"/><rect class="cls-7" x="861" y="445.5" width="18" height="36"/><rect class="cls-7" x="1131" y="445.5" width="18" height="36"/><rect class="cls-7" x="951" y="652.5" width="18" height="36"/><rect class="cls-7" x="987" y="652.5" width="18" height="36"/><polygon class="cls-7" points="966.36 536.59 953.64 523.86 996 481.5 996 445.5 1014 445.5 1014 488.95 966.36 536.59"/><polygon class="cls-7" points="966.36 590.59 953.64 577.86 1032 499.5 1032 445.5 1050 445.5 1050 506.95 966.36 590.59"/><polygon class="cls-7" points="976.46 634.5 951 634.5 951 445.5 969 445.5 969 616.5 1068 517.5 1068 445.5 1086 445.5 1086 524.96 976.46 634.5"/><path class="cls-8" d="M1073.59,389.5l-1.72-1.72.63-.64,1.09,1.09,5.91-5.92.64.64Zm-4.27-4.27-7.64-7.64.64-.63,7.64,7.63Zm13.36-4.82-.63-.64,7.64-7.64.63.64Zm-20.09-5.36-.64-.64,7.64-7.64.63.64Zm30.28-4.83-.64-.63,7.64-7.64.63.64Zm-20.1-5.35-.64-.64,7.64-7.64.64.64Zm30.28-4.83-.64-.64,7.64-7.63.64.63Zm-20.1-5.36-.63-.63,7.63-7.64.64.64Zm30.28-4.82-.63-.64,7.63-7.63.64.63Zm-20.1-5.36-.63-.64,7.64-7.63.63.63Zm30.28-4.82-.63-.64,7.63-7.64.64.64Zm-20.09-5.36-.64-.64,7.64-7.64.63.64Zm30.28-4.83-.64-.63,7.64-7.64.63.64Zm-20.1-5.35-.64-.64,7.64-7.64.64.64Zm30.28-4.83-.64-.63,5.41-5.41v-2.78h.9v3.15Zm-20.1-5.36-.63-.63,7.5-7.51v-2.5h.9v2.88Zm25.77-7.06h-.9v-10.8h.9Zm-18-7.18h-.9v-10.8h.9Zm18-7.22h-.9v-10.8h.9Zm-18-7.18h-.9v-10.8h.9Zm18-7.22h-.9v-10.8h.9Zm-18-7.18h-.9v-10.8h.9Zm18-7.22h-.9V257h-3.16v-.9h4.06Zm-7.66-6.74H1131v-.45h-.45v-.45h11.24Z"/><path class="cls-8" d="M875.4,239H864.6v-.9h10.8Zm4.05-.45h-.9V227.7h.9Zm-18,0h-.9V227.7h.9Zm18-14.4h-.9V213.3h.9Zm-18,0h-.9V213.3h.9Zm18-14.4h-.9V203H868.2v-.9h11.25Zm-18,0h-.9v-7.65h4.05v.9h-3.15Z"/><path class="cls-8" d="M1149,239h-10.8v-.9H1149Zm-14.4,0h-4V231.3h.9v6.75h3.15Zm14.85-4h-.9V224.1h.9Zm-18-7.2h-.9V216.9h.9Zm18-7.2h-.9V209.7h.9Zm-18-7.2h-.9V202.05h7.65v.9h-6.75Zm18-7.2h-.9V203h-6.75v-.9h7.65Z"/><path class="cls-8" d="M969.45,446H965.4v-.9h3.15V438.3h.9Zm-7.65,0H950.55V438.3h.9v6.75H961.8Zm7.65-11.25h-.9V423.9h.9Zm-18,0h-.9V423.9h.9Zm18-14.4h-.9V409.5h.9Zm-18,0h-.9V409.5h.9ZM965.4,410H954.6v-.9h10.8Z"/><path class="cls-8" d="M1005.45,446h-4.05v-.9h3.15V438.3h.9Zm-7.65,0H986.55V438.3h.9v6.75H997.8Zm7.65-11.25h-.9V423.9h.9Zm-18,0h-.9V423.9h.9Zm18-14.4h-.9V409.5h.9Zm-18,0h-.9V409.5h.9ZM1001.4,410H990.6v-.9h10.8Z"/><path class="cls-8" d="M976.64,392h-8.37v-.9h8l1.72-1.72.63.64Zm-12,0h-10.8v-.9h10.8ZM870,392c-1.37,0-2.75,0-4.11-.08l0-.9a104,104,0,0,0,10.74-.14l.06.89C874.51,391.87,872.24,392,870,392Zm-7.72-.3a96.81,96.81,0,0,1-10.74-1.42l.16-.88a100.1,100.1,0,0,0,10.65,1.41Zm18.06-.23-.1-.9a99.86,99.86,0,0,0,10.62-1.69l.19.88A101.58,101.58,0,0,1,880.34,391.42Zm71.11-.65h-.9V380h.9ZM848,389.5a99.22,99.22,0,0,1-10.43-3l.3-.85a97.32,97.32,0,0,0,10.33,2.95Zm46.57-.62-.22-.87a99.05,99.05,0,0,0,10.25-3.23l.32.84A99.32,99.32,0,0,1,894.57,388.88Zm86.6-1.46-.64-.64,7.64-7.63.64.63Zm-147-2.14a97.33,97.33,0,0,1-9.88-4.47l.41-.8a98.81,98.81,0,0,0,9.79,4.43Zm74.1-1-.35-.83a97.93,97.93,0,0,0,9.67-4.69l.44.79A103.23,103.23,0,0,1,908.28,384.29Zm-87.15-5.2a99.5,99.5,0,0,1-9.13-5.85l.53-.73a99.76,99.76,0,0,0,9,5.8Zm100-1.35-.46-.77a100.58,100.58,0,0,0,8.89-6l.54.71A96.86,96.86,0,0,1,921.17,377.74Zm70.18-.5-.63-.64,7.63-7.64.64.64Zm-39.9-.87h-.9v-10.8h.9Zm-82.93-2.43a83,83,0,0,1-10.81-.92l.14-.88a82.72,82.72,0,0,0,10.69.9Zm3.62,0,0-.9a79.4,79.4,0,0,0,10.68-1l.14.89A81.2,81.2,0,0,1,872.14,373.92Zm97.31-.82h-.9V362.3h.9Zm-115.3-.7a80.32,80.32,0,0,1-10.49-2.82l.29-.85a81,81,0,0,0,10.37,2.79Zm32.35-.13-.18-.88a80.84,80.84,0,0,0,10.34-2.87l.29.85A82.1,82.1,0,0,1,886.5,372.27Zm85.08-.72-.63-.64,7.64-7.63.63.63Zm-162.47-.47a100.63,100.63,0,0,1-8.19-7.1l.62-.65a100.62,100.62,0,0,0,8.12,7ZM933,369.41l-.57-.7a98.75,98.75,0,0,0,7.92-7.25l.65.63A102.48,102.48,0,0,1,933,369.41Zm-92.72-1.08a82.13,82.13,0,0,1-9.81-4.64l.43-.79a81.17,81.17,0,0,0,9.71,4.59Zm60.07-.24-.34-.83a80.22,80.22,0,0,0,9.66-4.66l.44.78A80.39,80.39,0,0,1,900.33,368.09Zm101.2-1-.63-.64,7.64-7.64.63.64ZM951.45,362h-.9v-10.8h.9Zm-124.13-.12a83.19,83.19,0,0,1-8.83-6.3l.57-.7a80.93,80.93,0,0,0,8.73,6.23Zm85.88-.32-.48-.76a81.33,81.33,0,0,0,8.68-6.3l.58.69A82.8,82.8,0,0,1,913.2,361.53Zm-114.83-.11a100.53,100.53,0,0,1-7.09-8.21l.71-.55a102.54,102.54,0,0,0,7,8.13Zm183.4-.05-.64-.64,7.64-7.64.63.64Zm-38.31-1.91-.66-.61a100.48,100.48,0,0,0,6.8-8.31l.73.53A100.45,100.45,0,0,1,943.46,359.46Zm26-.76h-.9V347.9h.9Zm42.27-1.83-.64-.63,7.64-7.64.63.64Zm-196-3.68a81.67,81.67,0,0,1-7.59-7.75l.68-.59a81.15,81.15,0,0,0,7.51,7.67Zm109-.4-.6-.67a81,81,0,0,0,7.44-7.72l.69.58A81.65,81.65,0,0,1,924.71,352.79Zm67.24-1.6-.64-.64,7.64-7.64.64.64Zm-202.83-.88a101.62,101.62,0,0,1-5.83-9.14l.79-.45a98.4,98.4,0,0,0,5.77,9.06Zm232.78-3.62-.64-.64,7.64-7.63.64.63Zm-52.12-1.88-.64-.63,7.64-7.64.63.64Zm-163.92-2.17a81.33,81.33,0,0,1-6.11-9l.77-.45a81.86,81.86,0,0,0,6,8.86Zm128.66-.48-.72-.55a78.28,78.28,0,0,0,6-8.91l.78.45A82.31,82.31,0,0,1,934.52,342.16Zm67.61-1.16-.63-.63,7.63-7.64.64.64Zm-220.56-3a100.56,100.56,0,0,1-4.44-9.89l.84-.33a98.91,98.91,0,0,0,4.4,9.81Zm250.51-1.47-.63-.64,7.63-7.63.64.63ZM980,334.63l-.64-.64,7.64-7.63.64.63Zm32.35-3.81-.63-.64,7.63-7.63.64.63ZM798,330.53a81.85,81.85,0,0,1-4.42-9.9l.84-.31a82.36,82.36,0,0,0,4.38,9.79ZM942.31,330l-.8-.42a79.31,79.31,0,0,0,4.3-9.83l.85.3A82.8,82.8,0,0,1,942.31,330Zm100-3.65-.63-.64,7.63-7.64.64.64Zm-266.37-1.65a99.25,99.25,0,0,1-2.95-10.44l.88-.19a100.48,100.48,0,0,0,2.92,10.34Zm214.25-.23-.63-.64,7.63-7.64.64.64Zm32.36-3.81-.64-.64,7.64-7.64.63.64Zm-54-.05V314h.9v4.46l2.94-2.94.64.63Zm-176.17-3.38a81.33,81.33,0,0,1-2.6-10.53l.89-.16a79.64,79.64,0,0,0,2.57,10.42Zm155.43-.62-.86-.26a79.64,79.64,0,0,0,2.49-10.44l.88.15A79.33,79.33,0,0,1,947.81,316.59Zm104.64-.45-.64-.63,7.64-7.64.63.64Zm-52.13-1.87-.63-.64,7.64-7.64.63.64Zm-24.74-.71-.64-.64,7.64-7.63.63.63ZM772.22,310.7A96.92,96.92,0,0,1,770.83,300l.89-.07a100.22,100.22,0,0,0,1.38,10.66Zm260.46-.24-.64-.64,7.64-7.64.64.64Zm-63.23-.11h-.9v-10.8h.9Zm93.18-4.39-.64-.63,7.64-7.64.64.64Zm-52.12-1.88-.64-.63,7.64-7.64.63.64Zm-24.75-.7-.64-.64,7.64-7.64.64.64Zm-196.52-.28a81.45,81.45,0,0,1-.69-10.6v-.23h.9v.23a81.37,81.37,0,0,0,.68,10.48Zm161.6-.64-.89-.11a80.89,80.89,0,0,0,.6-9.85v-.87h.9v.87A80.58,80.58,0,0,1,950.84,302.46Zm92-2.19-.63-.63,7.63-7.64.64.64Zm-272.24-3.93c0-1.27-.07-2.56-.07-3.84v-7h.9v7c0,1.26,0,2.55.07,3.81ZM969.45,296h-.9v-5.18l4.24-4.24.63.64-4,4Zm103.36-.17-.63-.64,7.63-7.63.64.63Zm-52.12-1.88-.64-.64,7.64-7.63.64.63Zm-24.75-.71-.64-.63,7.64-7.64.64.64Zm57.1-3.1-.63-.64,7.63-7.63.64.63Zm-263.59-1.42h-.9v-10.8h.9Zm162-.64h-.9v-10.8h.9ZM1083,285.6l-.63-.64,3.19-3.19v-5.91h.9v6.28Zm-107-1-.64-.63,7.64-7.64.64.64Zm54.9-.9-.63-.64,7.63-7.63.64.63Zm-24.75-.71-.63-.63,7.63-7.64.64.64Zm-234.67-1.08h-.9v-10.8h.9Zm291.78-2-.64-.64,5-5V270.9h.9v3.79Zm-77.08-5.47-.64-.64,7.64-7.63.64.63Zm-196.7-.17h-.9v-10.8h.9Zm162-.64h-.9v-10.8h.9Zm89.6-.09-.63-.64,7.63-7.64.64.64Zm-24.74-.71-.64-.64,7.64-7.63.63.63Zm70.14-.57h-.9v-10.8h.9Zm-315-4.73h-.9v-10.8h.9Zm297-.23h-.9V256.5h.9Zm-99.9-.72v-9.21h.9v7l1.12-1.12.64.64Zm27.78-2.32-.63-.64,7.63-7.64.64.64Zm54.12-1.6h-.9v-10.8h.9Zm-24,0-.64-.64,5.7-5.7v-2.37h.9v2.75Zm-52.74-1.27-.63-.63,7.63-7.64.64.64Zm-184.3-1.51h-.9v-10.8h.9Zm162-.64h-.9v-10.8h.9Zm135-1.37h-.9v-10.8h.9Zm-79.93-3.78-.64-.64,7.64-7.64.63.64Zm-37.07-.31h-.9V243h.9Zm-198-.64h-.9v-10.8h.9Zm297-.23h-.9V242.1h.9Zm-84.52-1.7-.63-.64,7.64-7.63.63.63Zm48.52-.86h-.9v-10.8h.9Zm18-2.08h-.9v-10.8h.9Zm-261-2.79h-.9v-10.8h.9Zm162-.64h-.9V234h.9Zm135-1.37h-.9v-10.8h.9Zm-72-.87h-.9v-10.8h.9ZM994.12,241l-.64-.64,2.07-2.07v-7.5h.9v7.88Zm-24.67-1.65h-.9v-10.8h.9Zm-198-.64h-.9v-10.8h.9Zm297-.23h-.9V227.7h.9Zm-36-2.56h-.9v-10.8h.9Zm18-2.08h-.9v-10.8h.9Zm-261-2.79h-.9v-10.8h.9Zm162-.64h-.9v-10.8h.9Zm135-1.37h-.9v-10.8h.9Zm-72-.87h-.9v-10.8h.9Zm-18-1h-.9v-10.8h.9Zm-27-2.24h-.9v-10.8h.9Zm-198-.64h-.9v-10.8h.9Zm297-.23h-.9V213.3h.9Zm-36-2.56h-.9v-10.8h.9Zm18-2.08h-.9v-10.8h.9Zm-261-2.79h-.9v-10.8h.9Zm162-.64h-.9v-10.8h.9Zm135-1.37h-.9v-10.8h.9Zm-72-.87h-.9V203h.9Zm-18-1h-.9V202.05h.94Zm-27-2.24h-.9V203h-2.28v-.9h3.18Zm-198-.64h-.9v-7.88h3.82v.9h-2.92Zm297-.23h-.9v-7.65h4v.9h-3.15Zm-36-2.56h-.9v-5.09h6.61v.9h-5.71Zm18-2.08h-.9V203h-7.79v-.9h8.69ZM1086,203h-10.8v-.9H1086Zm-75.11,0h-10.8v-.9h10.8Zm-48.22,0h-10.8v-.9h10.8Zm-173.9,0H778v-.9h10.8Z"/><path class="cls-8" d="M1073.59,821.5l-1.72-1.72.63-.64,1.09,1.09,5.91-5.92.64.64Zm-4.27-4.27-7.64-7.64.64-.63,7.64,7.63Zm13.36-4.82-.63-.64,7.64-7.64.63.64Zm-20.09-5.36-.64-.64,7.64-7.64.63.64Zm30.28-4.83-.64-.63,7.64-7.64.63.64Zm-20.1-5.35-.64-.64,7.64-7.64.64.64Zm30.28-4.83-.64-.64,7.64-7.63.64.63Zm-20.1-5.36-.63-.63,7.63-7.64.64.64Zm30.28-4.82-.63-.64,7.63-7.63.64.63Zm-20.1-5.36-.63-.64,7.64-7.63.63.63Zm30.28-4.82-.63-.64,7.63-7.64.64.64Zm-20.09-5.36-.64-.64,7.64-7.64.63.64Zm30.28-4.83-.64-.63,7.64-7.64.63.64Zm-20.1-5.35-.64-.64,7.64-7.64.64.64Zm30.28-4.83-.64-.63,5.41-5.41v-2.78h.9v3.15Zm-20.1-5.36-.63-.63,7.5-7.51v-2.5h.9v2.88Zm25.77-7.06h-.9v-10.8h.9Zm-18-7.18h-.9v-10.8h.9Zm18-7.22h-.9v-10.8h.9Zm-18-7.18h-.9v-10.8h.9Zm18-7.22h-.9v-10.8h.9Zm-18-7.18h-.9v-10.8h.9Zm18-7.22h-.9V689h-3.16v-.9h4.06Zm-7.66-6.74H1131v-.45h-.45v-.45h11.24Z"/><path class="cls-8" d="M875.4,671H864.6v-.9h10.8Zm4.05-.45h-.9V659.7h.9Zm-18,0h-.9V659.7h.9Zm18-14.4h-.9V645.3h.9Zm-18,0h-.9V645.3h.9Zm18-14.4h-.9V635H868.2v-.9h11.25Zm-18,0h-.9v-7.65h4.05v.9h-3.15Z"/><path class="cls-8" d="M1149,671h-10.8v-.9H1149Zm-14.4,0h-4V663.3h.9v6.75h3.15Zm14.85-4.05h-.9V656.1h.9Zm-18-7.2h-.9V648.9h.9Zm18-7.2h-.9V641.7h.9Zm-18-7.2h-.9V634.05h7.65v.9h-6.75Zm18-7.2h-.9V635h-6.75v-.9h7.65Z"/><path class="cls-8" d="M969.45,878H965.4v-.9h3.15V870.3h.9Zm-7.65,0H950.55V870.3h.9v6.75H961.8Zm7.65-11.25h-.9V855.9h.9Zm-18,0h-.9V855.9h.9Zm18-14.4h-.9V841.5h.9Zm-18,0h-.9V841.5h.9ZM965.4,842H954.6v-.9h10.8Z"/><path class="cls-8" d="M1005.45,878h-4.05v-.9h3.15V870.3h.9Zm-7.65,0H986.55V870.3h.9v6.75H997.8Zm7.65-11.25h-.9V855.9h.9Zm-18,0h-.9V855.9h.9Zm18-14.4h-.9V841.5h.9Zm-18,0h-.9V841.5h.9ZM1001.4,842H990.6v-.9h10.8Z"/><path class="cls-8" d="M976.64,824h-8.37v-.9h8l1.72-1.72.63.64Zm-12,0h-10.8v-.9h10.8ZM870,824c-1.37,0-2.75,0-4.11-.08l0-.9a104,104,0,0,0,10.74-.14l.06.89C874.51,823.87,872.24,824,870,824Zm-7.72-.3a96.81,96.81,0,0,1-10.74-1.42l.16-.88a100.44,100.44,0,0,0,10.65,1.41Zm18.05-.23-.09-.9a99.86,99.86,0,0,0,10.62-1.69l.19.88A101.76,101.76,0,0,1,880.33,823.42Zm71.12-.65h-.9V812h.9ZM848,821.5a98.54,98.54,0,0,1-10.43-3l.3-.85a96.65,96.65,0,0,0,10.33,3Zm46.57-.62-.22-.87a99.05,99.05,0,0,0,10.25-3.23l.32.84A99.32,99.32,0,0,1,894.57,820.88Zm86.6-1.46-.64-.64,7.64-7.63.64.63Zm-147-2.14a98.55,98.55,0,0,1-9.88-4.47l.41-.8a97.78,97.78,0,0,0,9.79,4.43Zm74.1-1-.35-.83a99,99,0,0,0,9.67-4.69l.44.79A100.84,100.84,0,0,1,908.28,816.29Zm-87.15-5.2a99.5,99.5,0,0,1-9.13-5.85l.53-.73a99.76,99.76,0,0,0,9,5.8Zm100-1.34-.46-.77a104.47,104.47,0,0,0,8.89-6l.54.71A99,99,0,0,1,921.17,809.75Zm70.18-.51-.63-.64,7.63-7.63.64.63Zm-39.9-.87h-.9v-10.8h.9Zm-82.93-2.43a83.12,83.12,0,0,1-10.81-.92l.14-.88a82.72,82.72,0,0,0,10.69.9Zm3.62,0,0-.9a79.4,79.4,0,0,0,10.68-1l.14.89A81,81,0,0,1,872.14,805.92Zm97.31-.82h-.9V794.3h.9Zm-115.3-.7a80.32,80.32,0,0,1-10.49-2.82l.29-.85a81,81,0,0,0,10.37,2.79Zm32.35-.13-.18-.88a80.84,80.84,0,0,0,10.34-2.87l.29.85A82.1,82.1,0,0,1,886.5,804.27Zm85.08-.72-.63-.64,7.64-7.63.63.63Zm-162.47-.47a100.63,100.63,0,0,1-8.19-7.1l.62-.65a100.62,100.62,0,0,0,8.12,7ZM933,801.41l-.57-.7a98.75,98.75,0,0,0,7.92-7.25l.65.63A104.49,104.49,0,0,1,933,801.41Zm-92.72-1.08a80.61,80.61,0,0,1-9.81-4.64l.43-.79a81.91,81.91,0,0,0,9.71,4.59Zm60.07-.24-.33-.83a80.82,80.82,0,0,0,9.65-4.66l.45.78A81.24,81.24,0,0,1,900.33,800.09Zm101.2-1-.63-.64,7.63-7.64.64.64ZM951.45,794h-.9v-10.8h.9Zm-124.13-.12a81.78,81.78,0,0,1-8.83-6.3l.57-.7a80.93,80.93,0,0,0,8.73,6.23Zm85.88-.32-.48-.77a81,81,0,0,0,8.69-6.29l.57.69A81.79,81.79,0,0,1,913.2,793.53Zm-114.84-.11a102.39,102.39,0,0,1-7.08-8.21l.71-.55a100.52,100.52,0,0,0,7,8.13Zm183.41,0-.64-.64,7.64-7.64.63.64Zm-38.31-1.91-.66-.6a102.32,102.32,0,0,0,6.8-8.32l.72.53A100,100,0,0,1,943.46,791.46Zm26-.76h-.9V779.9h.9Zm42.27-1.83-.64-.63,7.64-7.64.63.64Zm-196-3.68a81.67,81.67,0,0,1-7.59-7.75l.68-.59a81.15,81.15,0,0,0,7.51,7.67Zm109-.4-.6-.67a83.55,83.55,0,0,0,7.45-7.72l.68.58A81.65,81.65,0,0,1,924.71,784.79Zm67.24-1.6-.64-.64,7.64-7.64.64.64Zm-202.83-.88a101.62,101.62,0,0,1-5.83-9.14l.78-.45a100.66,100.66,0,0,0,5.78,9.06Zm232.78-3.62-.64-.63,7.64-7.64.64.64Zm-52.12-1.88-.64-.63,7.64-7.64.63.64Zm-163.92-2.17a80,80,0,0,1-6.11-9l.77-.45a81.86,81.86,0,0,0,6,8.86Zm128.66-.48-.72-.55a78.28,78.28,0,0,0,6-8.91l.78.45A82.31,82.31,0,0,1,934.52,774.16Zm67.61-1.16-.63-.63,7.63-7.64.64.64Zm-220.56-3a101.63,101.63,0,0,1-4.44-9.89l.84-.33a98.91,98.91,0,0,0,4.4,9.81Zm250.51-1.47-.63-.64,7.63-7.63.64.63ZM980,766.63l-.64-.64,7.64-7.63.64.63Zm32.35-3.81-.63-.64,7.63-7.63.64.63ZM798,762.53a78.91,78.91,0,0,1-4.43-9.9l.84-.31a82.36,82.36,0,0,0,4.38,9.79ZM942.31,762l-.8-.42a79.31,79.31,0,0,0,4.3-9.83l.85.3A82.8,82.8,0,0,1,942.31,762Zm100-3.65-.63-.64,7.63-7.64.64.64Zm-266.37-1.65a99.25,99.25,0,0,1-2.95-10.44l.88-.2a100,100,0,0,0,2.92,10.35Zm214.25-.23-.63-.64,7.63-7.64.64.64Zm32.36-3.81-.64-.64,7.64-7.64.63.64Zm-54,0V746h.9v4.46l2.94-2.94.64.63Zm-176.17-3.38a80.93,80.93,0,0,1-2.6-10.53l.89-.16a79.24,79.24,0,0,0,2.57,10.42Zm155.43-.62-.86-.26a79.64,79.64,0,0,0,2.49-10.44l.89.15A81,81,0,0,1,947.81,748.59Zm104.64-.44-.64-.64,7.64-7.64.63.64Zm-52.13-1.88-.63-.64,7.64-7.64.63.64Zm-24.74-.71-.64-.64,7.64-7.63.63.63ZM772.22,742.7A96.62,96.62,0,0,1,770.83,732l.89-.07a100.22,100.22,0,0,0,1.38,10.66Zm260.46-.24-.64-.64,7.64-7.64.64.64Zm-63.23-.11h-.9v-10.8h.9Zm93.18-4.39-.64-.63,7.64-7.64.63.64Zm-52.12-1.88-.64-.63,7.64-7.64.63.64Zm-24.75-.7-.64-.64,7.64-7.64.64.64Zm-196.52-.28a81.45,81.45,0,0,1-.69-10.6v-.23h.9v.23a81.37,81.37,0,0,0,.68,10.48Zm161.6-.64-.89-.11a80.89,80.89,0,0,0,.6-9.85v-.87h.9v.87A80.58,80.58,0,0,1,950.84,734.46Zm92-2.19-.63-.63,7.63-7.64.64.64Zm-272.24-3.93c0-1.27-.07-2.56-.07-3.84v-7h.9v7c0,1.26,0,2.54.07,3.81ZM969.45,728h-.9v-5.18l4.24-4.24.63.64-4,4Zm103.36-.17-.64-.64,7.64-7.63.64.63Zm-52.12-1.88-.64-.64,7.64-7.63.64.63Zm-24.75-.71-.64-.63,7.64-7.64.64.64Zm57.1-3.1-.63-.64,7.63-7.63.64.63Zm-263.59-1.42h-.9v-10.8h.9Zm162-.64h-.9v-10.8h.9ZM1083,717.6l-.63-.64,3.19-3.19v-5.91h.9v6.28Zm-107-1-.64-.63,7.64-7.64.64.64Zm54.9-.9-.63-.64,7.63-7.63.64.63Zm-24.75-.71-.63-.63,7.63-7.64.64.64Zm-234.67-1.08h-.9v-10.8h.9Zm291.78-2-.64-.64,5-5V702.9h.9v3.79Zm-77.08-5.47-.64-.64,7.64-7.63.64.63Zm-196.7-.17h-.9v-10.8h.9Zm162-.64h-.9v-10.8h.9Zm89.6-.09-.63-.64,7.63-7.64.64.64Zm-24.74-.71-.64-.64,7.64-7.63.63.63Zm70.14-.57h-.9v-10.8h.9Zm-315-4.73h-.9v-10.8h.9Zm297-.23h-.9V688.5h.9Zm-99.9-.71v-9.22h.9v7l1.12-1.12.64.64Zm27.78-2.33-.63-.64,7.63-7.64.64.64Zm54.12-1.6h-.9v-10.8h.9Zm-24,0-.64-.64,5.7-5.7v-2.37h.9v2.75Zm-52.74-1.27-.63-.63,7.63-7.64.64.64Zm-184.3-1.51h-.9v-10.8h.9Zm162-.64h-.9v-10.8h.9Zm135-1.37h-.9v-10.8h.9Zm-79.93-3.78-.64-.64,7.64-7.64.63.64Zm-37.07-.31h-.9V675h.9Zm-198-.64h-.9v-10.8h.9Zm297-.23h-.9V674.1h.9Zm-84.52-1.7-.63-.64,7.64-7.63.63.63Zm48.52-.86h-.9v-10.8h.9Zm18-2.08h-.9v-10.8h.9Zm-261-2.79h-.9v-10.8h.9Zm162-.64h-.9V666h.9Zm135-1.37h-.9v-10.8h.9Zm-72-.87h-.9v-10.8h.9ZM994.12,673l-.64-.64,2.07-2.07v-7.5h.9v7.88Zm-24.67-1.65h-.9v-10.8h.9Zm-198-.64h-.9v-10.8h.9Zm297-.23h-.9V659.7h.9Zm-36-2.56h-.9v-10.8h.9Zm18-2.08h-.9v-10.8h.9Zm-261-2.79h-.9v-10.8h.9Zm162-.64h-.9v-10.8h.9Zm135-1.37h-.9v-10.8h.9Zm-72-.87h-.9v-10.8h.9Zm-18-1h-.9v-10.8h.9Zm-27-2.24h-.9v-10.8h.9Zm-198-.64h-.9v-10.8h.9Zm297-.23h-.9V645.3h.9Zm-36-2.56h-.9v-10.8h.9Zm18-2.08h-.9v-10.8h.9Zm-261-2.79h-.9v-10.8h.9Zm162-.64h-.9v-10.8h.9Zm135-1.37h-.9v-10.8h.9Zm-72-.87h-.9V635h.9Zm-18-1h-.9V634.05h.94Zm-27-2.24h-.9V635h-2.28v-.9h3.18Zm-198-.64h-.9v-7.88h3.82v.9h-2.92Zm297-.23h-.9v-7.65h4v.9h-3.15Zm-36-2.56h-.9v-5.09h6.61v.9h-5.71Zm18-2.08h-.9V635h-7.79v-.9h8.69ZM1086,635h-10.8v-.9H1086Zm-75.11,0h-10.8v-.9h10.8Zm-48.22,0h-10.8v-.9h10.8Zm-173.9,0H778v-.9h10.8Z"/><path class="cls-8" d="M717.27,756.45h-7.64v-.9h6.74v-3.16h.9Zm-11.24,0h-10.8v-.9H706Zm-14.4,0h-10.8v-.9h10.8Zm-14.4,0h-10.8v-.9h10.8Zm-14.4,0h-3.15L654,750.78l.63-.64,5.41,5.41h2.78Zm54.44-7.66h-.9V738h.44v-.45h.45v11.24Zm-65.81-.56-7.64-7.63.64-.64,7.64,7.64Zm61.75-9.78h-10.8v-.9h10.8Zm-14.4,0H688v-.9h10.8Zm-14.4,0h-10.8v-.9h10.8Zm-14.4,0h-2.88l-7.76-7.77L660,730l7.51,7.51H670Zm-28.73-.4-7.64-7.64.64-.63,7.63,7.63Zm15.54-9.91-7.64-7.64.64-.64,7.64,7.64Zm-25.72-.27-7.64-7.64.64-.63,7.63,7.63ZM646.64,718,639,710.32l.64-.64,7.63,7.64Zm-25.73-.26-7.63-7.64.63-.64,7.64,7.64Zm15.54-9.92-7.63-7.64.63-.63,7.64,7.63Zm-25.72-.27-7.64-7.63.64-.64,7.64,7.64Zm15.54-9.91L618.64,690l.63-.63,7.64,7.63Zm-25.72-.27-7.64-7.64.64-.63,7.64,7.64Zm15.54-9.91-7.64-7.64.64-.64,7.64,7.64Zm-25.72-.27-6.55-6.55,1.72-1.72.64.63-1.09,1.09L591,686.5Zm15.54-9.92-7.64-7.63.64-.64,7.63,7.64ZM588.72,677l-.63-.64,7.64-7.64.63.64Z"/><path class="cls-8" d="M771.27,486.45h-7.65v-.9h6.75V475.2h.9Zm-11.25,0h-10.8v-.9H760Zm-14.4,0h-10.8v-.9h10.8Zm-10.35-4.05h-.9V471.6h.9Zm36-10.8h-.9v-3.15h-6.75v-.9h7.65ZM760,468.45h-10.8v-.9H760Zm-14.4,0h-10.8v-.9h10.8Z"/><path class="cls-8" d="M771.27,756.45h-4v-.9h3.15V748.8h.9Zm-7.65,0h-10.8v-.9h10.8Zm-14.4,0h-10.8v-.9h10.8Zm-14-.45h-.9V745.2h.9Zm36-10.8h-.9v-6.75H760v-.9h11.25Zm-36-3.6h-.9v-4.05H742v.9h-6.75Zm21.15-3.15h-10.8v-.9h10.8Z"/><path class="cls-8" d="M563.82,576.45H553v-.9h10.8Zm-14.4,0h-10.8v-.9h10.8Zm-14.4,0h-7.65V572.4h.9v3.15H535Zm29.25-4.05h-.9V561.6h.9Zm-36-3.6h-.9V557.55H535v.9h-6.75Zm35.55-10.35H553v-.9h10.8Zm-14.4,0h-10.8v-.9h10.8Z"/><path class="cls-8" d="M563.82,612.45H553v-.9h10.8Zm-14.4,0h-10.8v-.9h10.8Zm-14.4,0h-7.65V608.4h.9v3.15H535Zm29.25-4.05h-.9V597.6h.9Zm-36-3.6h-.9V593.55H535v.9h-6.75Zm35.55-10.35H553v-.9h10.8Zm-14.4,0h-10.8v-.9h10.8Z"/><path class="cls-8" d="M769.46,693.45h-10.8v-.9h10.8Zm-14.4,0h-10.8v-.9h10.8Zm-14.4,0h-10.8v-.9h10.8Zm-14.4,0h-10.8v-.9h10.8Zm-14.4,0h-10.8v-.9h10.8Zm-14.4,0h-6.28L687.72,690l.64-.63,3.19,3.19h5.91Zm73.81-.45h-.9V682.2h.9Zm-86.09-5.55-7.64-7.64.64-.64,7.63,7.64Zm86.09-8.85h-.9v-3.15h-6.75v-.9h7.65ZM675,677.27l-7.63-7.64L668,669l7.64,7.64Zm85-1.82h-10.8v-.9H760Zm-14.4,0h-10.8v-.9h10.8Zm-14.4,0h-10.8v-.9h10.8Zm-14.4,0H706v-.9h10.8Zm-14.4,0h-3.79l-5.22-5.22.64-.64,5,5h3.41Zm-11.56-7.77L683.23,660l.63-.63L691.5,667Zm-26.05-.6-7.64-7.63.64-.64,7.64,7.64Zm15.87-9.58-7.63-7.64.63-.64,7.64,7.64Zm90.59,0h-3v-.9h2.11v-7.79h.9Zm-6.61,0h-10.8v-.9h10.8Zm-14.4,0h-10.8v-.9h10.8Zm-14.4,0h-10.8v-.9h10.8Zm-14.4,0h-10.8v-.9h10.8Zm-66.83-.55L647,649.26l.64-.63,7.63,7.63Zm52.79-1.21-7.64-7.64.64-.63,7.63,7.63Zm-36.92-8.37-7.64-7.64.64-.64,7.64,7.64Zm-26-.6-7.64-7.64.64-.63,7.63,7.63Zm52.79-1.21-7.64-7.64.64-.63,7.63,7.63Zm74-.35h-.9v-5.71h-4.2v-.9h5.1Zm-8.7-5.71h-10.8v-.9h10.8Zm-14.4,0h-10.8v-.9h10.8Zm-14.4,0H723v-.9h10.8Zm-14.4,0h-2.74l-6-6,.64-.64,5.7,5.7h2.36Zm-59-2.32-7.64-7.63.64-.64L661,636.5Zm-26.06-.59-7.63-7.64.63-.64,7.64,7.64Zm52.79-1.21-7.63-7.64.63-.64,7.64,7.64Zm21.08-4.39-7.64-7.63.63-.64,7.64,7.64Zm-58-4-7.63-7.64.63-.63,7.64,7.63Zm-26-.6-7.64-7.63.64-.64,7.64,7.64Zm52.79-1.21-7.63-7.63.63-.64,7.64,7.64Zm93.46-3.69h-10.8v-.9h10.8Zm-14.4,0h-10.8v-.9h10.8Zm-14.4,0h-10.8v-.9h10.8Zm-14.65-.3-7.64-7.63.64-.64,7.64,7.64Zm-28.94-.39-7.63-7.64.63-.63,7.64,7.63Zm73.33-2.87h-.9v-10.8h.9ZM640,616.77l-7.63-7.64.63-.63,7.64,7.63Zm-26.05-.6-7.64-7.63.64-.64,7.64,7.64ZM666.69,615l-7.64-7.63.64-.64,7.64,7.64Zm50-4-7.64-7.64.64-.63,7.63,7.63Zm-28.94-.39-7.64-7.64.64-.64,7.64,7.64Zm-58-4L622.13,599l.64-.64,7.64,7.64Zm-26-.6-7.64-7.64.64-.63,7.63,7.63Zm52.79-1.21-7.64-7.64.64-.63,7.63,7.63Zm114.76-1.29-10.76,0v-.9h10.76Zm-14.36,0h-10.8v-.9h10.8Zm-14.4,0h-7.88l-2.33-2.33.64-.64,2.07,2.07h7.5Zm-36-2.66-7.64-7.64.64-.64,7.63,7.64Zm-28.94-.39-7.64-7.64.64-.64,7.63,7.64Zm52.18-1.83-7.64-7.63.63-.64,7.64,7.64ZM619.59,596.4,612,588.77l.64-.64,7.63,7.64Zm-26.06-.59-7.63-7.64.63-.64,7.64,7.64Zm52.79-1.21L638.69,587l.63-.64L647,594Zm50-4L688.7,583l.63-.64L697,590Zm-28.93-.4-7.64-7.63.64-.64,7.63,7.64Zm52.17-1.82-7.63-7.64.63-.63,7.64,7.63Zm-110.16-2.17-7.64-7.64.64-.63,7.63,7.63Zm-26.06-.6-2-2v-8.37h.9v8L584,585Zm52.79-1.21-7.63-7.63.63-.64,7.64,7.64Zm50-4-4-4h-4.81v-.9h5.18l4.24,4.24ZM657.21,580l-4.48-4.48h6.64v.9h-4.46l2.94,2.94Zm52.18-1.82-2.66-2.66H716v.9h-7l1.12,1.12Zm61.88-1.76h-8.52v-.9h7.62v-2.28h.9Zm-12.12,0h-10.8v-.9h10.8Zm-14.4,0H734v-.9h10.8Zm-14.4,0h-10.8v-.9h10.8Zm-56.58,0H663v-.9h10.8Zm-48.36,0h-10.8v-.9h10.8Zm-14.4,0h-10.8v-.9H611Zm-28.74-4.78h-.9v-10.8h.9Zm189-2h-.9v-10.8h.9Zm-3.18-11.22h-10.8v-.9h10.8Zm-14.4,0h-10.8v-.9h10.8Zm-14.4,0h-10.8v-.9h10.8Zm-14.4,0h-10.8v-.9h10.8Zm-14.4,0h-10.8v-.9h10.8Zm-14.4,0h-10.8v-.9h10.8Zm-14.4,0h-.87a80.58,80.58,0,0,1-10-.61L671,557a80.89,80.89,0,0,0,9.85.6h.87Zm-59.54,0h-10.8v-.9h10.8Zm-14.4,0H597v-.9h10.8Zm-14.4,0h-10.8v-.9h10.8Zm73.93-1.12a81,81,0,0,1-10.55-2.52L657,554a79.64,79.64,0,0,0,10.44,2.49Zm-45,0a98.38,98.38,0,0,1-8.39-6.86l.6-.66a102.32,102.32,0,0,0,8.32,6.8Zm31-3.66a82.8,82.8,0,0,1-9.95-4.35l.42-.8a79.31,79.31,0,0,0,9.83,4.3ZM611.23,548a102.48,102.48,0,0,1-7.32-8l.7-.57a98.75,98.75,0,0,0,7.25,7.92Zm28.94-.42a82.43,82.43,0,0,1-9-6l.55-.72a79.3,79.3,0,0,0,8.92,6Zm-11.83-8.32a80.49,80.49,0,0,1-7.81-7.53l.67-.6a81.11,81.11,0,0,0,7.72,7.45Zm-26.67-2.1a100.4,100.4,0,0,1-6.1-9l.77-.46a102.18,102.18,0,0,0,6,8.89ZM618.16,529a82.8,82.8,0,0,1-6.37-8.78l.76-.48a81.33,81.33,0,0,0,6.3,8.68ZM593.76,525a99.66,99.66,0,0,1-4.73-9.76l.83-.35a99,99,0,0,0,4.69,9.67Zm16.18-7.94a82.85,82.85,0,0,1-4.72-9.77l.84-.33a80.82,80.82,0,0,0,4.66,9.65Zm-22.24-5.18a99.32,99.32,0,0,1-3.26-10.35l.87-.22a99.05,99.05,0,0,0,3.23,10.25ZM604,504a82.1,82.1,0,0,1-2.9-10.45l.88-.18a80.84,80.84,0,0,0,2.87,10.34Zm-20.34-5.9a99.44,99.44,0,0,1-1.71-10.71l.9-.1a99.86,99.86,0,0,0,1.69,10.62Zm16.79-8.11a81,81,0,0,1-1-10.8l.9,0a81.06,81.06,0,0,0,1,10.68Zm-18.81-6.21c-.15-2.23-.22-4.49-.22-6.73,0-1.36,0-2.75.08-4.11l.9,0c-.05,1.35-.08,2.72-.08,4.07,0,2.22.07,4.46.22,6.67Zm18.69-8.19-.9,0a83,83,0,0,1,.91-10.81l.89.14A82.72,82.72,0,0,0,600.28,475.54Zm-17.72-6.19-.9-.07a99.26,99.26,0,0,1,1.43-10.74l.88.16A100.1,100.1,0,0,0,582.56,469.35Zm19.24-8-.88-.17a81.18,81.18,0,0,1,2.82-10.49l.85.29A79.34,79.34,0,0,0,601.8,461.32Zm-17.1-6.12-.88-.2a99.22,99.22,0,0,1,3-10.43l.85.3A97.32,97.32,0,0,0,584.7,455.2Zm21.13-7.61-.84-.33a80.61,80.61,0,0,1,4.64-9.81l.79.43A79.65,79.65,0,0,0,605.83,447.59Zm-17-6.09-.84-.32a97.33,97.33,0,0,1,4.47-9.88l.79.41A101.09,101.09,0,0,0,588.88,441.5Zm23.35-6.71-.76-.47a80.42,80.42,0,0,1,6.3-8.83l.7.57A82.43,82.43,0,0,0,612.23,434.79ZM595,428.57l-.78-.44a96.86,96.86,0,0,1,5.85-9.13l.73.53A98.38,98.38,0,0,0,595,428.57Zm25.79-5.23-.67-.6a81.67,81.67,0,0,1,7.75-7.59l.58.68A79.87,79.87,0,0,0,620.8,423.34ZM603,416.66l-.71-.55a100.63,100.63,0,0,1,7.1-8.19l.65.62A100.62,100.62,0,0,0,603,416.66Zm28.28-3.1-.55-.7a80.39,80.39,0,0,1,9-6.11l.45.77A81.86,81.86,0,0,0,631.23,413.56ZM612.53,406l-.63-.64a100.53,100.53,0,0,1,8.21-7.09l.55.71A100.79,100.79,0,0,0,612.53,406Zm30.68-.23-.42-.8a81.85,81.85,0,0,1,9.9-4.42l.31.84A82.36,82.36,0,0,0,643.21,405.78Zm13.17-5.54-.27-.86a81.33,81.33,0,0,1,10.53-2.6l.16.89A79.64,79.64,0,0,0,656.38,400.24Zm14-3.11-.12-.89a81.3,81.3,0,0,1,10.59-.69H681v.9h-.23A81.21,81.21,0,0,0,670.34,397.13Zm-46.81-.28-.52-.73a101.62,101.62,0,0,1,9.14-5.83l.44.79A101.17,101.17,0,0,0,623.53,396.85Zm143.91-.4h-10.8v-.9h10.8Zm-14.4,0h-10.8v-.9H753Zm-14.4,0h-10.8v-.9h10.8Zm-14.4,0h-10.8v-.9h10.8Zm-14.4,0H699v-.9h10.8Zm-14.4,0h-10.8v-.9h10.8Zm75.83-.68h-.9V385h.9Zm-135.52-6.4-.41-.8a99.52,99.52,0,0,1,9.89-4.44l.33.84A98.91,98.91,0,0,0,635.75,389.37Zm13.18-5.63-.29-.85a99.25,99.25,0,0,1,10.44-2.95l.19.88A100.48,100.48,0,0,0,648.93,383.74Zm122.34-2.37h-.9v-2.92h-7v-.9h7.88ZM662.78,380.1l-.16-.88a96.92,96.92,0,0,1,10.75-1.39l.07.89A100.22,100.22,0,0,0,662.78,380.1ZM677,378.52l0-.9c1.27-.05,2.56-.07,3.84-.07h7v.9h-7C679.55,378.45,678.27,378.47,677,378.52Zm82.78-.07H749v-.9h10.8Zm-14.4,0h-10.8v-.9h10.8Zm-14.4,0h-10.8v-.9H731Zm-14.4,0h-10.8v-.9h10.8Zm-14.4,0h-10.8v-.9h10.8Z"/><path class="cls-8" d="M1324.09,465.32l-.63-.64,7.63-7.64.64.64Zm-3.18-.27-7.64-7.64.64-.63,7.64,7.63Zm13.37-9.92-.64-.63,1.09-1.09-5.91-5.91.63-.64,6.55,6.55Zm-23.55-.26-7.64-7.64.64-.64,7.64,7.64Zm15.54-9.92-7.64-7.64.64-.63,7.64,7.64Zm-25.72-.27-7.64-7.63.64-.64,7.63,7.64Zm15.54-9.91-7.64-7.64.64-.63,7.63,7.63Zm-25.73-.27-7.63-7.63.63-.64,7.64,7.64Zm15.55-9.91-7.64-7.64.63-.64,7.64,7.64Zm-25.73-.27-7.63-7.64.63-.63,7.64,7.63Zm15.54-9.92-7.63-7.63.63-.64,7.64,7.64Zm-25.72-.26-7.64-7.64.64-.64,7.64,7.64Zm15.54-9.92-7.64-7.63.64-.64,7.64,7.64Zm-25.72-.26-7.51-7.51h-2.5v-.9h2.87l7.77,7.77Zm-13.61-7.51h-10.8v-.9h10.8Zm-14.4,0H1221v-.9h10.8Zm-14.4,0h-10.8v-.9h10.8Zm-14.4,0h-.45V385.21h.9V396H1203Zm72.35-2.41-7.64-7.64.64-.63,7.63,7.63Zm-10.18-10.18-5.41-5.41H1257v-.9h3.15l5.67,5.67Zm-61.73-2.25h-.9v-4.06h7.64v.9h-6.74Zm49.94-3.16h-10.8v-.9h10.8Zm-14.4,0h-10.8v-.9H1239Zm-14.4,0h-10.8v-.9h10.8Z"/><path class="cls-8" d="M1185,666.45h-10.8v-.9H1185Zm-14.4,0h-10.8v-.9h10.8Zm-14.4,0h-7.65V662.4h.9v3.15h6.75Zm29.25-4.05h-.9V651.6h.9Zm-36-3.6h-.9V647.55h7.65v.9h-6.75ZM1185,648.45h-10.8v-.9H1185Zm-14.4,0h-10.8v-.9h10.8Z"/><path class="cls-8" d="M1185.45,396.45h-7.65v-.9h6.75V392.4h.9Zm-11.25,0h-10.8v-.9h10.8Zm-14.4,0h-11.25V388.8h.9v6.75h10.35Zm25.65-7.65h-.9V378h.9Zm-36-3.6h-.9v-7.65h4v.9h-3.15Zm32-6.75h-10.8v-.9h10.8Zm-14.4,0h-10.8v-.9H1167Z"/><path class="cls-8" d="M1392.45,576.45h-7.65v-.9h6.75V565.2h.9Zm-11.25,0h-10.8v-.9h10.8Zm-14.4,0H1356v-.9h10.8Zm-10.35-4.05h-.9V561.6h.9Zm36-10.8h-.9v-3.15h-6.75v-.9h7.65Zm-11.25-3.15h-10.8v-.9h10.8Zm-14.4,0H1356v-.9h10.8Z"/><path class="cls-8" d="M1392.45,540.45h-7.65v-.9h6.75V529.2h.9Zm-11.25,0h-10.8v-.9h10.8Zm-14.4,0H1356v-.9h10.8Zm-10.35-4.05h-.9V525.6h.9Zm36-10.8h-.9v-3.15h-6.75v-.9h7.65Zm-11.25-3.15h-10.8v-.9h10.8Zm-14.4,0H1356v-.9h10.8Z"/><path class="cls-8" d="M1239,756.45h-7v-.9h7c1.26,0,2.55,0,3.81-.07l0,.9C1241.57,756.43,1240.28,756.45,1239,756.45Zm-10.57,0h-10.8v-.9h10.8Zm-14.4,0h-10.8v-.9H1214Zm-14.4,0h-10.8v-.9h10.8Zm-14.4,0h-10.8v-.9h10.8Zm-14.4,0H1160v-.9h10.8Zm-14.4,0h-7.88v-3.82h.9v2.92h7Zm90-.28-.07-.89A100.22,100.22,0,0,0,1257,753.9l.16.88A96.92,96.92,0,0,1,1246.45,756.17Zm14.29-2.11-.19-.88a100.48,100.48,0,0,0,10.34-2.92l.29.85A99.25,99.25,0,0,1,1260.74,754.06Zm13.85-4.19-.33-.84a98.91,98.91,0,0,0,9.81-4.4l.41.8A100.56,100.56,0,0,1,1274.59,749.87ZM1149.45,749h-.9v-10.8h.9Zm138.22-5.32-.45-.79a98.4,98.4,0,0,0,9.06-5.77l.53.73A101.62,101.62,0,0,1,1287.67,743.71ZM1239,738.45h-.24v-.9h.24a81.21,81.21,0,0,0,10.47-.68l.12.89A81.3,81.3,0,0,1,1239,738.45Zm-3.84,0h-10.8v-.9h10.8Zm-14.4,0H1210v-.9h10.8Zm-14.4,0h-10.8v-.9h10.8Zm-14.4,0h-10.8v-.9H1192Zm-14.4,0h-10.8v-.9h10.8Zm-14.4,0h-10.8v-.9h10.8Zm90-1.23-.16-.89a79.64,79.64,0,0,0,10.42-2.57l.27.86A81.33,81.33,0,0,1,1253.18,737.22Zm46.53-1.5-.55-.71a102.54,102.54,0,0,0,8.13-7l.63.64A100.53,100.53,0,0,1,1299.71,735.72Zm-32.58-2.28-.31-.84a82.36,82.36,0,0,0,9.79-4.38l.42.8A81.85,81.85,0,0,1,1267.13,733.44Zm13-6.19-.45-.77a81.86,81.86,0,0,0,8.86-6l.55.7A81.33,81.33,0,0,1,1280.18,727.25Zm30.3-1.17-.65-.62a100.62,100.62,0,0,0,7-8.12l.71.55A100.63,100.63,0,0,1,1310.48,726.08Zm-18.54-7.23-.59-.68a81.15,81.15,0,0,0,7.67-7.51l.67.6A81.67,81.67,0,0,1,1291.94,718.85Zm27.8-3.85-.73-.53a98.38,98.38,0,0,0,5.8-9l.78.44A96.86,96.86,0,0,1,1319.74,715Zm-17.69-6.49-.7-.57a80.93,80.93,0,0,0,6.23-8.73l.77.47A81.78,81.78,0,0,1,1302.05,708.51Zm25.26-5.81-.8-.41a98.81,98.81,0,0,0,4.43-9.79l.84.32A97.33,97.33,0,0,1,1327.31,702.7Zm-17.12-6.15-.79-.43a81.17,81.17,0,0,0,4.59-9.71l.84.33A80.61,80.61,0,0,1,1310.19,696.55Zm22.83-7.12-.85-.3a97.32,97.32,0,0,0,2.95-10.33l.88.2A99.22,99.22,0,0,1,1333,689.43Zm-16.94-6.09-.85-.29a81,81,0,0,0,2.79-10.37l.88.17A81.18,81.18,0,0,1,1316.08,683.34Zm20.65-7.88-.88-.16a100.1,100.1,0,0,0,1.41-10.65l.89.07A96.81,96.81,0,0,1,1336.73,675.46Zm-17.21-6.17-.88-.14a82.72,82.72,0,0,0,.9-10.69l.9,0A81.26,81.26,0,0,1,1319.52,669.29Zm18.85-8.18-.9,0c0-1.35.08-2.72.08-4.07,0-2.22-.08-4.46-.22-6.67l.89-.06c.15,2.23.23,4.49.23,6.73C1338.45,658.36,1338.42,659.75,1338.37,661.11Zm-18.85-6.23a79.4,79.4,0,0,0-1-10.68l.89-.14a81,81,0,0,1,1,10.8Zm17.5-8.12a99.86,99.86,0,0,0-1.69-10.62l.88-.19a102,102,0,0,1,1.71,10.71Zm-19.13-6.08a80.84,80.84,0,0,0-2.87-10.34l.85-.29a82.1,82.1,0,0,1,2.9,10.45Zm16.62-8a99.05,99.05,0,0,0-3.23-10.25l.84-.32a99.32,99.32,0,0,1,3.26,10.35ZM1313.76,627a80.82,80.82,0,0,0-4.66-9.65l.78-.45a81.24,81.24,0,0,1,4.71,9.77Zm16.2-7.93a99,99,0,0,0-4.69-9.67l.79-.44a102,102,0,0,1,4.73,9.76Zm-22.69-4.79a81.33,81.33,0,0,0-6.3-8.68l.69-.58a82.8,82.8,0,0,1,6.37,8.78Zm16.2-8a102.07,102.07,0,0,0-6-8.89l.71-.54a100.4,100.4,0,0,1,6.1,9Zm-24.85-3.4a82.31,82.31,0,0,0-7.72-7.45l.58-.68a81.65,81.65,0,0,1,7.81,7.53Zm16.59-8.3a98.75,98.75,0,0,0-7.25-7.92l.63-.65a104.49,104.49,0,0,1,7.32,8Zm-27.1-1.39a78.28,78.28,0,0,0-8.91-6l.45-.78a81.36,81.36,0,0,1,9,6Zm-12-7.71a79.31,79.31,0,0,0-9.83-4.3l.3-.85a82.8,82.8,0,0,1,10,4.35Zm29.3-1.29a102.32,102.32,0,0,0-8.32-6.8l.53-.72a100,100,0,0,1,8.39,6.86Zm-42.53-4.15a79.64,79.64,0,0,0-10.44-2.49l.15-.89a81,81,0,0,1,10.55,2.52Zm-14-3a80.89,80.89,0,0,0-9.85-.6h-.87v-.9h.87a80.58,80.58,0,0,1,10,.61Zm88.42-.6h-10.8v-.9h10.8Zm-14.4,0h-10.8v-.9h10.8Zm-14.4,0h-10.8v-.9h10.8Zm-73.94,0h-10.8v-.9h10.8Zm-14.4,0h-10.8v-.9h10.8Zm-14.4,0h-10.8v-.9h10.8Zm-14.4,0h-10.8v-.9h10.8Zm-14.4,0h-10.8v-.9h10.8Zm-14.4,0h-10.8v-.9h10.8Zm-13.08-1.32h-.9v-10.8h.9Zm189-2h-.9v-10.8h.9Zm-189-12.4h-.9v-3.18h8.52v.9h-7.62Zm189-2h-.9v-8l-1.72-1.72.64-.63,2,2Zm-18.85-.28h-10.8v-.9h10.8Zm-14.4,0h-10.8v-.9h10.8Zm-38.11,0h-6.64v-.9h4.46l-2.94-2.94.63-.64Zm-10.24,0h-10.8v-.9h10.8Zm-14.4,0h-5.18l-4.24-4.24.64-.63,4,4h4.81Zm-29.36,0h-9.22v-.9h7l-1.12-1.12.64-.64Zm-12.82,0h-10.8v-.9h10.8Zm-14.4,0h-10.8v-.9h10.8Zm-14.4,0h-10.8v-.9h10.8Zm119.21-.59-7.64-7.64.64-.63,7.63,7.63Zm26.73-1.81-7.63-7.63.63-.64,7.64,7.64Zm-110.16-2.17-7.64-7.63.64-.64,7.63,7.64Zm52.17-1.82-7.63-7.64.63-.63,7.64,7.63Zm-28.93-.39-7.64-7.64.64-.64,7.63,7.64Zm50-4-7.63-7.64.63-.64,7.64,7.64Zm52.79-1.21-7.63-7.64.63-.64,7.64,7.64Zm-26-.6-7.64-7.64.64-.63,7.64,7.63Zm-110.17-2.17-7.63-7.64.63-.63,7.64,7.63Zm52.18-1.82-7.64-7.64.64-.64,7.64,7.64Zm-28.94-.39-7.63-7.64.63-.64,7.64,7.64Zm50-4-7.63-7.63.63-.64,7.64,7.64Zm52.79-1.21-7.63-7.63.63-.64,7.64,7.64Zm-26-.59-7.64-7.64.64-.64,7.64,7.64Zm-110.17-2.17-2.07-2.07h-7.5v-.9h7.88l2.33,2.33Zm52.18-1.82-7.64-7.64.64-.64,7.63,7.64Zm-65.35-.25h-10.8v-.9h10.8Zm-14.4,0h-10.76v-.94l10.76,0Zm50.81-.15-7.64-7.63.64-.64,7.64,7.64Zm50-4-7.64-7.64.64-.63,7.64,7.63Zm-110.68-.4h-.9v-10.8h.9Zm163.47-.81-7.64-7.64.64-.63,7.64,7.63Zm-26.05-.6-7.64-7.63.64-.64,7.63,7.64Zm-58-4-7.64-7.63.64-.64,7.63,7.64Zm-28.94-.39-7.64-7.64.64-.63,7.63,7.63Zm50-4-7.64-7.64.64-.63,7.63,7.63Zm52.79-1.21-7.64-7.64.64-.63,7.63,7.63Zm-26.06-.6-7.63-7.63.63-.64,7.64,7.64Zm-87.59-1.87h-10.8v-.9h10.8Zm-14.4,0h-10.8v-.9h10.8Zm-14.4,0h-10.8v-.9h10.8Zm58.4-2.12-7.63-7.64.63-.63,7.64,7.63Zm21.07-4.38-7.63-7.64.63-.64,7.64,7.64Zm52.8-1.21-7.64-7.64.63-.64,7.64,7.64Zm-26.06-.6-7.63-7.64.63-.63,7.64,7.63Zm-58-4-5.7-5.7h-2.37v-.9h2.74l6,6Zm21.07-4.39-7.63-7.63.63-.64,7.64,7.64Zm52.79-1.21-7.63-7.63.63-.64,7.64,7.64Zm-85.53-.1H1186v-.9h10.8Zm-14.4,0h-10.8v-.9h10.8Zm-14.4,0h-10.8v-.9H1168Zm-14.4,0h-5.09v-6.61h.9v5.71h4.19Zm102.68-.49-7.64-7.64.64-.64,7.64,7.64Zm-36.92-8.38-7.64-7.63.64-.64L1220,486Zm52.79-1.21-7.64-7.63.64-.64,7.64,7.64Zm-122.74-.13h-.9v-8.69h3v.9h-2.11Zm96.69-.46-7.64-7.64.64-.64,7.63,7.64Zm-37-7.33h-10.8v-.9h10.8Zm-14.4,0H1184v-.9h10.8Zm-14.4,0h-10.8v-.9h10.8Zm-14.4,0h-10.8v-.9H1166Zm96-2.26-7.64-7.64.64-.63,7.63,7.63Zm-26-.6-7.64-7.63.63-.64,7.64,7.64Zm15.87-9.58-7.64-7.64.64-.64,7.63,7.64Zm-26.06-.6-5-5h-3.41v-.9h3.78l5.23,5.22Zm-12-5H1203v-.9h10.8Zm-14.4,0h-10.8v-.9h10.8Zm-14.4,0h-10.8v-.9H1185Zm-14.4,0h-10.8v-.9h10.8Zm-14.4,0h-7.65V455.4h.9v3.15h6.75Zm85.44-4.62-7.63-7.64.63-.64,7.64,7.64Zm-92.19-3h-.9V441h.9Zm82-7.16-3.19-3.19h-5.91v-.9h6.28l3.46,3.46Zm-12.7-3.19H1208v-.9h10.8Zm-14.4,0h-10.8v-.9h10.8Zm-14.4,0h-10.8v-.9H1190Zm-14.4,0h-10.8v-.9h10.8Zm-14.4,0h-10.8v-.9h10.8Z"/></g></svg>