<svg xmlns="http://www.w3.org/2000/svg" viewBox="0 0 1920 1080"><defs><style>.cls-1{fill:#fff;}.cls-2{fill:none;stroke:#000;stroke-miterlimit:10;stroke-width:30px;}</style></defs><g id="Background"><rect class="cls-1" width="1920" height="1080"/></g><g id="Graphics"><path d="M686.71,775.27a21.26,21.26,0,0,1-1.73,9.12,14.58,14.58,0,0,1-4.83,5.81,19.81,19.81,0,0,1-7.47,3.07,46.73,46.73,0,0,1-9.6.91,22.51,22.51,0,0,1-6.3-.87,14.79,14.79,0,0,1-5.25-2.66,13.15,13.15,0,0,1-3.6-4.54,14.52,14.52,0,0,1-1.35-6.49,22.8,22.8,0,0,1,.64-5.21,30.66,30.66,0,0,1,1.58-5,18.75,18.75,0,0,1,2-3.72c.7-1,1.33-1.46,1.88-1.46q1.5,0,1.5,2.1a5.64,5.64,0,0,1-.34,1.65c-.22.7-.49,1.48-.79,2.32s-.56,1.73-.78,2.63a10.59,10.59,0,0,0-.34,2.62,8.22,8.22,0,0,0,1.16,4.62,8.1,8.1,0,0,0,3,2.74,13.52,13.52,0,0,0,4.27,1.31,35.82,35.82,0,0,0,4.88.33c.85,0,1.87,0,3.07-.11s2.44-.2,3.72-.37a36.8,36.8,0,0,0,3.82-.75,15.51,15.51,0,0,0,3.41-1.28,7.57,7.57,0,0,0,2.44-1.95,4.23,4.23,0,0,0,.94-2.73,6.94,6.94,0,0,0-.71-2.59,27,27,0,0,0-1.84-3.41,41,41,0,0,0-2.48-3.53,33.07,33.07,0,0,0-2.62-3l4-8.1c.25-.55.58-.55,1,0Q686.71,766.65,686.71,775.27ZM671.18,755.1l-5.62,5.55-5.48-5.55,5.48-5.4Z"/><path d="M700.88,771.38q0,2.85-2.85,8.85c-.55,1-.9,1.57-1,1.57-.3,0-.57-1.18-.82-3.53l-3.53-39.89,7-5.78q.6-.6.9-.6c.25,0,.37.28.37.82Z"/><path d="M723.5,779.77a7.23,7.23,0,0,1-2.07-.75,27.66,27.66,0,0,1-2.4,11.63,21.22,21.22,0,0,1-1.83,3.11c-.73,1-1.46,2-2.18,2.78a19.32,19.32,0,0,1-2,2,2.7,2.7,0,0,1-1.27.75q-2.4,0-5.1-.18c-1.8-.13-3.49-.29-5.07-.49a30.81,30.81,0,0,1-3.89-.71c-1-.28-1.54-.59-1.54-.94,0-.1.17-.22.52-.38a44.67,44.67,0,0,0,7.16-3.37,51.27,51.27,0,0,0,6.57-4.46,30.81,30.81,0,0,0,4.8-4.73,7,7,0,0,0,1.87-4.08,4.11,4.11,0,0,0-.56-1.84,17.73,17.73,0,0,0-1.5-2.36,25,25,0,0,0-2.21-2.59c-.85-.88-1.73-1.74-2.63-2.59l4-8c.1-.19.22-.29.37-.29s.3.12.45.37q5.7,7.65,10.43,7.65V780A8.88,8.88,0,0,1,723.5,779.77Z"/><path d="M725.41,780a6.93,6.93,0,0,1-1.5-.15c-.45-.1-.68-.25-.68-.45v-8.55c0-.2.23-.35.68-.45a6.93,6.93,0,0,1,1.5-.15h12.52c3.7,0,5.55-.68,5.55-2a5,5,0,0,0-1.16-2.44c-.78-1.08-1.81-2.39-3.11-3.94a1,1,0,0,1,0-1.28l4.42-6.14c.35-.55.73-.63,1.13-.23a9.61,9.61,0,0,1,1.68,2.29,16.32,16.32,0,0,1,1.2,2.77,19.36,19.36,0,0,1,.75,3,17.26,17.26,0,0,1,.27,3,19.14,19.14,0,0,1-2.18,9.45,9.66,9.66,0,0,1-9.07,5.32Zm9.15,11.62-4.65,4.65-4.58-4.65,4.58-4.64Zm10.27,0-4.57,4.65-4.65-4.65,4.65-4.64Z"/><path d="M762.83,771.38q0,2.85-2.85,8.85c-.55,1-.9,1.57-1.05,1.57s-.57-1.18-.82-3.53l-3.53-39.89,7-5.78q.6-.6.9-.6c.25,0,.37.28.37.82Z"/><path d="M799.13,777.38a26,26,0,0,1-2.55,11.39,23.91,23.91,0,0,1-1.84,3.19,31.1,31.1,0,0,1-2.21,2.93,22.56,22.56,0,0,1-2.06,2.13c-.63.55-1.06.83-1.31.83-1.61,0-3.32-.06-5.14-.19s-3.52-.29-5.06-.48a31.25,31.25,0,0,1-3.87-.72c-1-.27-1.53-.56-1.53-.86,0-.1.17-.22.52-.37a42.12,42.12,0,0,0,7.28-3.38,47.41,47.41,0,0,0,6.48-4.5,27.28,27.28,0,0,0,4.65-4.8,7.59,7.59,0,0,0,1.77-4.35,4.81,4.81,0,0,0-.64-2,19.7,19.7,0,0,0-1.65-2.59c-.68-.89-1.4-1.77-2.18-2.62a20.77,20.77,0,0,0-2.28-2.18l3.67-7.72c.1-.25.25-.37.45-.37a.64.64,0,0,1,.45.22A22.53,22.53,0,0,1,799.13,777.38Zm-3.3-27.53-5.62,5.55-5.48-5.55,5.48-5.4Z"/><path d="M813.38,771.38q0,2.85-2.85,8.85c-.55,1-.9,1.57-1,1.57-.3,0-.58-1.18-.82-3.53l-3.53-39.89,7-5.78c.39-.4.69-.6.89-.6s.38.28.38.82Z"/><path d="M860.33,780q-6.15,0-8.93-9.23L848.25,776q-14.7,0-14.7-5.1a9.76,9.76,0,0,1,.23-1.8c.15-.75.34-1.52.56-2.32a19.12,19.12,0,0,1,.79-2.25,4.77,4.77,0,0,1,.9-1.5,29.89,29.89,0,0,1,5-3.87,42,42,0,0,1,6.68-3.26l-1.27-4.65,5.32-5.1c.2.55.57,2.17,1.12,4.88s1.33,6.55,2.33,11.54c.2.91.41,1.82.64,2.74a8.33,8.33,0,0,0,1,2.48,6,6,0,0,0,1.72,1.8,4.92,4.92,0,0,0,2.78.71h2.7V780Zm-11.55-19.5q-7.8,3.3-9.23,5.4Q841,768,850.73,768Z"/><path d="M891.08,780a24.08,24.08,0,0,1-7.24-1,18,18,0,0,1-6.11-3.49,22.6,22.6,0,0,1-13.05,4.5h-.6a6.93,6.93,0,0,1-1.5-.15c-.45-.1-.68-.25-.68-.45v-8.55c0-.2.23-.35.68-.45a6.93,6.93,0,0,1,1.5-.15h2a16.06,16.06,0,0,0,5-.52q-2.48-3.53-2.48-5.93a12,12,0,0,1,.87-4.12,18.46,18.46,0,0,1,2.32-4.36,15.41,15.41,0,0,1,3.38-3.41,6.84,6.84,0,0,1,4.08-1.39,5.85,5.85,0,0,1,3.42,1,8.25,8.25,0,0,1,2.4,2.58,13.48,13.48,0,0,1,1.42,3.45,14.45,14.45,0,0,1,.49,3.68q0,5.4-2.85,8.48.75.53,5.7.52h2.25V780Zm-13.5-39.9-4.65,4.65-4.58-4.65,4.58-4.65Zm5.4,23.25a3.8,3.8,0,0,0-.41-1.61,5.59,5.59,0,0,0-1.09-1.54,6.44,6.44,0,0,0-1.54-1.13,3.63,3.63,0,0,0-1.69-.45,5.36,5.36,0,0,0-1.76.34,7.29,7.29,0,0,0-1.76.94,6,6,0,0,0-1.39,1.42,3.09,3.09,0,0,0-.56,1.73,2.77,2.77,0,0,0,.56,1.5,8.84,8.84,0,0,0,3,2.74,3.37,3.37,0,0,0,1.5.48,4.17,4.17,0,0,0,1.39-.33,6.41,6.41,0,0,0,1.65-1A8.42,8.42,0,0,0,882.3,765,3.22,3.22,0,0,0,883,763.35Zm4.87-23.25-4.57,4.65-4.65-4.65,4.65-4.65Z"/><path d="M912.3,780a13.08,13.08,0,0,1-5.62-1.31,8.79,8.79,0,0,1-4.2-4.24,11.45,11.45,0,0,1-4.05,4,10.61,10.61,0,0,1-5.55,1.57h-.75a6.93,6.93,0,0,1-1.5-.15c-.45-.1-.68-.25-.68-.45v-8.55c0-.2.23-.35.68-.45a6.93,6.93,0,0,1,1.5-.15h.45a12.05,12.05,0,0,0,3.71-.68,6.21,6.21,0,0,0,2.74-1.8,9.69,9.69,0,0,0,1.65-4.57c.2-1.65.8-2.47,1.8-2.47s1.55.82,1.8,2.47a11.58,11.58,0,0,0,1.42,4.57c1.2,1.66,3.3,2.48,6.3,2.48h.83V780Zm-10.42,11.62-4.65,4.65-4.58-4.65,4.58-4.64Zm10.27,0-4.57,4.65-4.65-4.65,4.65-4.64Z"/><path d="M932,780a8.69,8.69,0,0,1-4.46-1.31,7.22,7.22,0,0,1-3.11-3.49,9.5,9.5,0,0,1-3.3,3.41,7.79,7.79,0,0,1-4.2,1.39h-4a6.93,6.93,0,0,1-1.5-.15c-.45-.1-.68-.25-.68-.45v-8.55c0-.2.23-.35.68-.45a6.93,6.93,0,0,1,1.5-.15h4q5.55,0,5.55-5.18c0-1.8-.05-3.89-.15-6.3s-.25-5.12-.45-8.17-.39-5.67-.56-7.58-.34-3.19-.49-3.9l7.35-6.89c.4-.4.6-.33.6.22v32.48q0,5.33,5.33,5.32h4.72V780Z"/><path d="M974,780a7.49,7.49,0,0,1-4.46-1.31,12.12,12.12,0,0,1-3.34-3.94,11.94,11.94,0,0,1-3.37,3.94,7.57,7.57,0,0,1-4.43,1.31q-4.87,0-7.72-5.25A10,10,0,0,1,941.4,780h-2.7a6.93,6.93,0,0,1-1.5-.15c-.45-.1-.67-.25-.67-.45v-8.55c0-.2.22-.35.67-.45a6.93,6.93,0,0,1,1.5-.15h4.43a6.63,6.63,0,0,0,2.66-.45,4.19,4.19,0,0,0,1.65-1.28,7.1,7.1,0,0,0,1-2c.27-.8.54-1.7.79-2.7.4-1.55,1-2.32,1.8-2.32s1.54.77,1.95,2.32c.2.85.4,1.66.6,2.44a6.51,6.51,0,0,0,.9,2.06,4.21,4.21,0,0,0,1.61,1.43,5.77,5.77,0,0,0,2.66.52,5.65,5.65,0,0,0,2.55-.49,4.21,4.21,0,0,0,1.61-1.38,7.54,7.54,0,0,0,1-2.07c.25-.77.5-1.61.75-2.51.4-1.55,1.07-2.32,2-2.32.8,0,1.4.77,1.8,2.32.15.9.33,1.74.53,2.51a6.27,6.27,0,0,0,.9,2,4.36,4.36,0,0,0,1.65,1.39,6.22,6.22,0,0,0,2.77.52q4.73,0,4.73-3a4.64,4.64,0,0,0-.83-2.18c-.55-.89-1.32-2-2.32-3.45l3.37-5.32c.35-.55.65-.82.9-.82s.43.17.68.52a17.79,17.79,0,0,1,2.25,4.46,15.73,15.73,0,0,1,.82,5.06,24.21,24.21,0,0,1-.49,4.69,16.24,16.24,0,0,1-1.65,4.69,10.92,10.92,0,0,1-3.11,3.64A7.8,7.8,0,0,1,974,780Z"/><path d="M1014.22,780a9.05,9.05,0,0,1-4.8-1.16,9.15,9.15,0,0,1-3-3,13.24,13.24,0,0,1-1.61-4.09,25.33,25.33,0,0,1-.56-4.43c-.1-1.59-.18-3.62-.22-6.07s-.15-5.1-.31-8q-.37-5.77-.75-9.56c-.25-2.53-.42-4.34-.52-5.44l6.38-5.32a4,4,0,0,1,1.27-.83c.2,0,.3.33.3,1v31.81q0,5.33,6,5.32h3.3V780Z"/><path d="M1025.62,792.38l-5.62,5.55-5.48-5.55L1020,787ZM1019.7,780a6.93,6.93,0,0,1-1.5-.15c-.45-.1-.68-.25-.68-.45v-8.55c0-.2.23-.35.68-.45a6.93,6.93,0,0,1,1.5-.15h5c3.7,0,5.55-.68,5.55-2q0-1.72-4.28-6.38a1,1,0,0,1-.22-.6,1.38,1.38,0,0,1,.22-.68l4.43-6.14c.2-.31.4-.45.6-.45a.7.7,0,0,1,.52.22,9.79,9.79,0,0,1,1.62,2.21,17.84,17.84,0,0,1,1.2,2.82,26,26,0,0,1,.78,3.07,15.66,15.66,0,0,1,.3,2.93q0,6.67-3,10.72a9.68,9.68,0,0,1-8.29,4Z"/><path d="M816.56,856.36q0,6.87-1.53,6.93c-.49,0-.73-.53-.73-1.58a47.53,47.53,0,0,0-1.63-12.52,39.71,39.71,0,0,0-5.14-11.31l2.57-4A37,37,0,0,1,815,844.73,44.22,44.22,0,0,1,816.56,856.36Z"/><path d="M833.25,857.15c0,4.06-.51,6.1-1.52,6.14-.49,0-.74-.53-.74-1.58a31.53,31.53,0,0,0-.65-6.38,41.92,41.92,0,0,0-1.79-6.11,48.49,48.49,0,0,0-2.65-5.83c-1-1.89-2.1-3.73-3.26-5.51l2.58-4c.49.77.92,1.47,1.31,2.1a11.65,11.65,0,0,0,1.15,1.6,4.05,4.05,0,0,0,1.32,1,4.46,4.46,0,0,0,1.83.34,2.71,2.71,0,0,0,2.21-.82,4.93,4.93,0,0,0,1-1.78c.19-.65.36-1.24.5-1.79s.4-.81.79-.81.51.25.6.74.21,1,.37,1.62a4.66,4.66,0,0,0,.79,1.63,2.23,2.23,0,0,0,1.91.74,1.88,1.88,0,0,0,1.66-.74,6,6,0,0,0,.76-1.6c.17-.58.33-1.11.47-1.6s.4-.74.79-.74.68.41.68,1.21q0,7.62-4.62,7.61a3.29,3.29,0,0,1-1.18-.21,5.24,5.24,0,0,1-1-.52,5,5,0,0,1-.81-.68,2,2,0,0,1-.44-.64,3.72,3.72,0,0,1-1.71,2,5.47,5.47,0,0,1-2.5.57h-.6a2,2,0,0,1-.65-.1,57.7,57.7,0,0,1,2.51,7.4A27,27,0,0,1,833.25,857.15Z"/><path d="M865.59,858.35q-.37,1.78-.6,2.79c-.16.66-.28,1.15-.34,1.46a5.94,5.94,0,0,1-.16.58c0,.07-.07.11-.11.11s-.58-.43-1.34-1.29a12.67,12.67,0,0,1-2.07-3.7,17.38,17.38,0,0,1-1-4.78q-.26-2.94-.26-6.4a19.46,19.46,0,0,1-4.67.58,9.84,9.84,0,0,1-2.08-.21,4.58,4.58,0,0,1-1.7-.74,3.67,3.67,0,0,1-1.18-1.44,5.22,5.22,0,0,1-.45-2.29,13.78,13.78,0,0,1,.37-3,11.74,11.74,0,0,1,1.13-3.07,8.13,8.13,0,0,1,1.89-2.39,4,4,0,0,1,2.7-1q6.24,0,6.25,10.5a37.15,37.15,0,0,0,.89,8.85A11.37,11.37,0,0,0,865.59,858.35ZM859.24,843a8.78,8.78,0,0,0-.4-1.73,5.78,5.78,0,0,0-.81-1.63,4.44,4.44,0,0,0-1.23-1.18,3.06,3.06,0,0,0-1.66-.45,3.27,3.27,0,0,0-2.2.87,3,3,0,0,0-1,2.39,1.84,1.84,0,0,0,1.21,1.86,6.83,6.83,0,0,0,2.62.5,11,11,0,0,0,2-.18A5.19,5.19,0,0,0,859.24,843Z"/><path d="M882.29,857.15c0,4.06-.51,6.1-1.53,6.14-.49,0-.73-.53-.73-1.58a30.84,30.84,0,0,0-.66-6.38,41.88,41.88,0,0,0-1.78-6.11,48.56,48.56,0,0,0-2.66-5.83c-1-1.89-2.1-3.73-3.25-5.51l2.57-4c.42.63.86,1.25,1.31,1.86a11.1,11.1,0,0,0,1.48,1.63,6.53,6.53,0,0,0,1.73,1.13,5.22,5.22,0,0,0,2.15.42,7.21,7.21,0,0,0,3.94-1,6.63,6.63,0,0,0,2.52-3.12c.24-.66.58-1,1-1a.54.54,0,0,1,.44.26,1.56,1.56,0,0,1,.18.85,9.67,9.67,0,0,1-.62,3.59,7.55,7.55,0,0,1-1.71,2.6,7,7,0,0,1-2.55,1.58,9.3,9.3,0,0,1-3.15.52,10.38,10.38,0,0,1-2.15-.21,56.29,56.29,0,0,1,2.52,7.4A27,27,0,0,1,882.29,857.15Z"/><path d="M956.16,862.5H954.1a5.5,5.5,0,0,1-5.34-3.15,5,5,0,0,1-5,3.25,4.75,4.75,0,0,1-4.78-3.35,5.8,5.8,0,0,1-5.39,3.35,9.94,9.94,0,0,1-2.81-.43,16.47,16.47,0,0,1,.23,3,12.81,12.81,0,0,1-.62,4.2q-1.47,4.25-6.49,6.54a22.14,22.14,0,0,1-9.26,1.91,12.73,12.73,0,0,1-8.11-2.48,9,9,0,0,1-3.48-7.49,14.22,14.22,0,0,1,1.28-5.45c1-2.41,1.94-3.72,2.68-3.91.25,0,.38.14.38.43a1.54,1.54,0,0,1-.14.67,14,14,0,0,0-1.67,6.25,7,7,0,0,0,1.81,4.87q2.43,2.67,7.44,2.72a21.84,21.84,0,0,0,9.74-2q3.39-1.68,4.34-3.58a8,8,0,0,0,.05-2.53,9.68,9.68,0,0,0-.57-2.77,27.17,27.17,0,0,0-3.68-5.63l1.67-3.15a1.52,1.52,0,0,1,.58-.62,2.58,2.58,0,0,1,.47.57,17.44,17.44,0,0,0,2.1,2.86,5.43,5.43,0,0,0,3.87,1.63,4.27,4.27,0,0,0,3.63-1.39,7.1,7.1,0,0,0,1.24-3.2c.09-.66.32-1,.67-1.09s.47.33.57,1q.57,4.68,4.1,4.72,4.15.06,4.68-4.53c.06-.73.26-1.1.57-1.1s.58.37.67,1.1q.57,4.44,4.49,4.44h2.15Z"/><path d="M974.67,862.5h-2.91c-3.47,0-5.77-1.16-6.92-3.48q-2.1,3.48-7.82,3.48h-2.49v-4.39h3.39q5.54,0,6-4.34c.15-1.12.46-1.67.9-1.67s.64.6.77,1.81c.28,2.8,2.21,4.2,5.77,4.2h3.29Zm-12.45,8.3-2.87,2.92-2.91-2.92,2.91-3Zm6.54,0-3,2.92-2.91-2.92,2.91-3Z"/><path d="M1004.41,854.43a9.26,9.26,0,0,1-1.58,5.54,6.2,6.2,0,0,1-10.4-.62,6.27,6.27,0,0,1-5.3,3.15q-4.15,0-5.49-3.15a6.77,6.77,0,0,1-5.82,3.15H973.1v-4.39h3q4.11,0,4.87-4.44c.1-.73.32-1.1.67-1.1s.56.37.62,1.1q.38,4.44,4.73,4.44a4.23,4.23,0,0,0,3.53-1.29,7.36,7.36,0,0,0,1.1-3.15c.09-.67.31-1,.66-1s.48.33.58,1q.57,4.44,4.63,4.44c2.79,0,4.21-.67,4.24-2q0-1.43-2.1-4.39l1.67-3.19c.29-.51.51-.77.67-.77a6.33,6.33,0,0,1,.62,1A11.91,11.91,0,0,1,1004.41,854.43Z"/><path d="M1019.35,821.6l-.48,1.91a47.61,47.61,0,0,0-8.45,2.34v-1.34c.26-.16,1.08-.64,2.48-1.43-1.59-1-2.4-1.91-2.43-2.77s.54-1.9,1.72-3.13,2.22-1.83,3.15-1.83a3,3,0,0,1,2.86,1.9,1.22,1.22,0,0,1,.1.82c0,.06-.13.09-.29.09a1.72,1.72,0,0,1-.52-.09,6.63,6.63,0,0,0-2.44-.34,3,3,0,0,0-1.55.46c-.53.3-.79.59-.79.88,0,.73.5,1.35,1.48,1.86a5.35,5.35,0,0,0,2.48.67,5.88,5.88,0,0,0,2.1-.43h.58A.52.52,0,0,1,1019.35,821.6Zm3.72,40.9h-2.58q-4.25,0-5.87-3.44a18.24,18.24,0,0,1-1.1-7.25v-7.16q0-6.3-.81-14.75l2.29-2.48c.45-.48.7-.44.77.1a104.6,104.6,0,0,1,.81,14.89v11.07q0,4.63,4.44,4.63h2.05Z"/><path d="M1032,855q0,7.54-7.4,7.54h-3.19v-4.39H1024q5.64,0,5.64-2c0-1-.85-2.53-2.53-4.72l1.52-3.72c.13-.32.26-.5.39-.53s.33.21.62.62A12.62,12.62,0,0,1,1032,855Zm-3.48-16.51-3,2.95-2.91-2.95,2.91-2.87Zm6.44,0-2.91,2.95-3-2.95,3-2.87Z"/></g><g id="Guides"><path class="cls-2" d="M660,277.5v135a150,150,0,0,0,150,150h0a150,150,0,0,0,150-150v-135"/><polyline class="cls-2" points="1150.61 573.11 1260 463.71 1260 367.5"/><line class="cls-2" x1="810" y1="277.5" x2="810" y2="337.5"/><line class="cls-2" x1="1260" y1="337.5" x2="1260" y2="277.5"/><line class="cls-2" x1="960" y1="607.5" x2="960" y2="667.5"/><line class="cls-2" x1="1020" y1="667.5" x2="1020" y2="607.5"/><polyline class="cls-2" points="1020 277.5 1020 343.71 960 403.71"/><polyline class="cls-2" points="1080 277.5 1080 373.71 960 493.71"/><polyline class="cls-2" points="960 277.5 960 562.5 981.21 562.5 1140 403.71 1140 277.5"/></g></svg>