<svg xmlns="http://www.w3.org/2000/svg" xmlns:xlink="http://www.w3.org/1999/xlink" viewBox="0 0 1920 1080"><defs><style>.cls-1,.cls-2,.cls-4{fill:none;stroke-miterlimit:10;}.cls-1{stroke:#b5b9ba;stroke-width:18px;}.cls-2{stroke:#777d7e;stroke-width:0.9px;stroke-dasharray:10.8 3.6;}.cls-3{fill:#d5d7d7;}.cls-4{stroke-width:0.94px;stroke:url(#linear-gradient);}</style><linearGradient id="linear-gradient" x1="3908" y1="5046" x2="5828" y2="5046" gradientTransform="translate(5828 5676) rotate(180)" gradientUnits="userSpaceOnUse"><stop offset="0" stop-color="#fff" stop-opacity="0"/><stop offset="0.5" stop-color="#777d7e"/><stop offset="1" stop-color="#969b9c" stop-opacity="0"/></linearGradient></defs><g id="Graphics"><path class="cls-1" d="M781,450v81a90,90,0,0,0,90,90h0a90,90,0,0,0,90-90V450"/><polyline class="cls-1" points="1075.36 627.36 1141 561.73 1141 504"/><line class="cls-1" x1="871" y1="450" x2="871" y2="486"/><line class="cls-1" x1="1141" y1="486" x2="1141" y2="450"/><line class="cls-1" x1="961" y1="648" x2="961" y2="684"/><line class="cls-1" x1="997" y1="684" x2="997" y2="648"/><polyline class="cls-1" points="997 450 997 489.73 961 525.73"/><polyline class="cls-1" points="1033 450 1033 507.73 961 579.73"/><polyline class="cls-1" points="961 450 961 621 973.73 621 1069 525.73 1069 450"/></g><g id="Guides"><polygon class="cls-2" points="1204 378 1204 396 1258 396 1321 459 1333.73 446.27 1265.45 378 1204 378"/><rect class="cls-2" x="1150" y="648" width="36" height="18"/><rect class="cls-2" x="1150" y="378" width="36" height="18"/><rect class="cls-2" x="1348" y="558" width="36" height="18"/><rect class="cls-2" x="1348" y="522" width="36" height="18"/><path class="cls-2" d="M1150,450v18h72l90,90h-28.55l-72-72H1150v18h54l54,54h-28.55l-36-36H1150v18h36l18,18h-54v18h81a81,81,0,0,1,0,162h-81v18h81a99,99,0,0,0,56.82-180H1330V550.54L1229.46,450Z"/><polygon class="cls-2" points="592 378 592 396 646 396 709 459 721.73 446.27 653.46 378 592 378"/><rect class="cls-2" x="538" y="648" width="36" height="18"/><rect class="cls-2" x="538" y="378" width="36" height="18"/><rect class="cls-2" x="736" y="558" width="36" height="18"/><rect class="cls-2" x="736" y="522" width="36" height="18"/><path class="cls-2" d="M538,450v18h72l90,90H671.45l-72-72H538v18h54l54,54H617.45l-36-36H538v18h36l18,18H538v18h81a81,81,0,0,1,0,162H538v18h81a99,99,0,0,0,56.82-180H718V550.54L617.46,450Z"/><polygon class="cls-2" points="1132 324 1069 387 1081.73 399.73 1150 331.45 1150 270 1132 270 1132 324"/><rect class="cls-2" x="862" y="216" width="18" height="36"/><rect class="cls-2" x="1132" y="216" width="18" height="36"/><rect class="cls-2" x="952" y="414" width="18" height="36"/><rect class="cls-2" x="988" y="414" width="18" height="36"/><path class="cls-2" d="M1078,216h-18v72l-90,90V349.45l72-72V216h-18v54l-54,54V295.45l36-36V216H988v36l-18,18V216H952v81a81,81,0,0,1-162,0V216H772v81a99,99,0,0,0,180,56.82V396h25.46L1078,295.46Z"/><polygon class="cls-2" points="1132 738 1069 801 1081.73 813.73 1150 745.46 1150 684 1132 684 1132 738"/><rect class="cls-2" x="862" y="630" width="18" height="36"/><rect class="cls-2" x="1132" y="630" width="18" height="36"/><rect class="cls-2" x="952" y="828" width="18" height="36"/><rect class="cls-2" x="988" y="828" width="18" height="36"/><path class="cls-2" d="M1078,630h-18v72l-90,90V763.45l72-72V630h-18v54l-54,54V709.45l36-36V630H988v36l-18,18V630H952v81a81,81,0,0,1-162,0V630H772v81a99,99,0,0,0,180,56.82V810h25.46L1078,709.46Z"/><path class="cls-3" d="M0,0V1080H1920V0ZM1384,864H538V216h846Z"/><line class="cls-4" y1="630" x2="1920" y2="630"/></g></svg>