<svg xmlns="http://www.w3.org/2000/svg" viewBox="0 0 1920 1080"><defs><style>.cls-1{fill:#082b96;}.cls-2{fill:#061f6b;}.cls-3{fill:#fff;}</style></defs><g id="Background"><rect class="cls-1" width="1920" height="1080"/></g><g id="Graphics"><path class="cls-2" d="M1392,877.5H530v-675h862Z"/><path class="cls-3" d="M870,634.5a99.11,99.11,0,0,1-99-99v-90h18v90a81,81,0,0,0,162,0v-90h18v90A99.11,99.11,0,0,1,870,634.5Z"/><polygon class="cls-3" points="1073.59 631.86 1060.86 619.14 1131 549 1131 499.5 1149 499.5 1149 556.46 1073.59 631.86"/><rect class="cls-3" x="861" y="445.5" width="18" height="36"/><rect class="cls-3" x="1131" y="445.5" width="18" height="36"/><rect class="cls-3" x="951" y="652.5" width="18" height="36"/><rect class="cls-3" x="987" y="652.5" width="18" height="36"/><polygon class="cls-3" points="966.36 536.59 953.64 523.86 996 481.5 996 445.5 1014 445.5 1014 488.95 966.36 536.59"/><polygon class="cls-3" points="966.36 590.59 953.64 577.86 1032 499.5 1032 445.5 1050 445.5 1050 506.95 966.36 590.59"/><polygon class="cls-3" points="976.46 634.5 951 634.5 951 445.5 969 445.5 969 616.5 1068 517.5 1068 445.5 1086 445.5 1086 524.96 976.46 634.5"/></g></svg>