<svg xmlns="http://www.w3.org/2000/svg" viewBox="0 0 1920 1080"><defs><style>.cls-1{fill:#082b96;}.cls-2{fill:#fff;}</style></defs><g id="Background"><rect class="cls-1" width="1920" height="1080"/></g><g id="Graphics"><polygon class="cls-2" points="296.04 612 187.73 612 264.28 492 200.03 492 200.03 468 308.05 468 231.51 588 296.04 588 296.04 612"/><polygon class="cls-2" points="427.75 612 332.06 612 331.72 468 427.75 468 427.75 492 355.78 492 356.01 588 427.75 588 427.75 612"/><rect class="cls-2" x="343.75" y="528" width="84" height="24"/><polygon class="cls-2" points="560.03 612 464.04 612 464.04 468 560.03 468 560.03 492 488.04 492 488.04 588 560.03 588 560.03 612"/><rect class="cls-2" x="476.03" y="528" width="84" height="24"/><polygon class="cls-2" points="692.03 612 596.03 612 596.03 468 692.03 468 692.03 492 620.03 492 620.03 588 692.03 588 692.03 612"/><rect class="cls-2" x="608.03" y="528" width="84" height="24"/><polygon class="cls-2" points="836.03 612 812.13 612 752.03 513.93 752.03 612 728.03 612 728.03 468 752.04 468 812.03 565.91 812.03 468 836.03 468 836.03 612"/><rect class="cls-2" x="956.4" y="468" width="7.2" height="144"/></g><g id="Layer_1" data-name="Layer 1"><path class="cls-2" d="M1287,517.2c-7.72-8.38-18.35-13.44-31.43-13.44-24.18,0-45.94,21.76-45.94,55.61S1231.4,615,1255.58,615c13.08,0,23.71-5.07,31.43-13.45v11h29V506.18h-29Zm-24.18,73.6c-14.5,0-24.17-12.09-24.17-31.43s9.67-31.43,24.17-31.43S1287,540,1287,559.37,1277.34,590.8,1262.83,590.8Z"/><polygon class="cls-2" points="1374.05 477.16 1345.04 477.16 1345.04 506.18 1330.53 506.18 1330.53 530.35 1345.04 530.35 1345.04 612.56 1374.05 612.56 1374.05 530.35 1393.39 530.35 1393.39 506.18 1374.05 506.18 1374.05 477.16"/><rect class="cls-2" x="1407.9" y="506.18" width="29.01" height="106.38"/><circle class="cls-2" cx="1422.41" cy="478.37" r="18.13"/><path class="cls-2" d="M1171.61,524.63A36.28,36.28,0,0,0,1142,467.49h-58V612.56H1154v0c24.24-.83,43.52-14.3,43.52-45.9C1197.56,545.8,1187,531.21,1171.61,524.63Zm-30.87-30.54a8.46,8.46,0,0,1,6,14.44h0l-33.78,33.79V494.09h27.8ZM1149.2,586h-36.26v-9.42L1135.52,554c3.78-3.77,8.73-6.67,13.68-6.67,9.67,0,19.34,7.25,19.34,19.34S1158.87,586,1149.2,586Z"/><polygon class="cls-2" points="1560.22 506.18 1526.02 506.18 1485.27 546.93 1485.27 467.49 1456.25 467.49 1456.25 612.56 1485.27 612.56 1485.27 581.13 1497.31 569.08 1527.75 612.56 1560.22 612.56 1516.4 549.99 1560.22 506.18"/></g></svg>