<svg xmlns="http://www.w3.org/2000/svg" viewBox="0 0 1920 1080"><g id="Graphics"><polygon points="482.64 630 347.26 630 442.94 480 362.64 480 362.64 450 497.66 450 401.98 600 482.64 600 482.64 630"/><polygon points="751.32 630 631.71 630 631.28 450 751.32 450 751.32 480 661.36 480 661.64 600 751.32 600 751.32 630"/><rect x="646.32" y="525" width="105" height="30"/><polygon points="1020 630 900 630 900 450 1020 450 1020 480 930 480 930 600 1020 600 1020 630"/><rect x="915" y="525" width="105" height="30"/><polygon points="1288.68 630 1168.68 630 1168.68 450 1288.68 450 1288.68 480 1198.68 480 1198.68 600 1288.68 600 1288.68 630"/><rect x="1183.68" y="525" width="105" height="30"/><polygon points="1572.36 630 1542.48 630 1467.36 507.41 1467.36 630 1437.36 630 1437.36 450 1467.36 450 1542.36 572.39 1542.36 450 1572.36 450 1572.36 630"/></g></svg>