<svg xmlns="http://www.w3.org/2000/svg" xmlns:xlink="http://www.w3.org/1999/xlink" viewBox="0 0 504 504"><defs><style>.cls-1{fill:#061f6b;}.cls-2{fill:#fff;}.cls-3{fill:#4672e2;}.cls-4{fill:url(#linear-gradient);}.cls-5{fill:url(#linear-gradient-2);}</style><linearGradient id="linear-gradient" y1="175.76" x2="495.48" y2="175.76" gradientUnits="userSpaceOnUse"><stop offset="0" stop-color="#fff" stop-opacity="0"/><stop offset="0.51" stop-color="#fff"/><stop offset="1" stop-color="#fff" stop-opacity="0"/></linearGradient><linearGradient id="linear-gradient-2" y1="328.24" x2="495.48" y2="328.24" xlink:href="#linear-gradient"/></defs><g id="Graphics"><rect class="cls-1" x="108" y="108" width="288" height="288" rx="48"/><path class="cls-2" d="M271.9,396.5h-15v-1h15Zm-20,0h-15v-1h15Zm-20,0H220l2.65-4.17.85.54-1.68,2.63H231.9Zm40.5-4.44h-1v-6.85h-7.14v-1h8.14Zm-46.18-3.41-.85-.53,8.07-12.65.84.54Zm33-3.44h-15v-1h15Zm-16.07-2.16-.85-.54,8.07-12.64.84.53ZM237,371.79l-.84-.54,8.07-12.64.84.54Zm17-5.6-.84-.54L261.17,353l.84.53Zm-6.21-11.26-.85-.54L255,341.75l.84.53Zm17-5.6-.85-.54,8.07-12.65.84.54Zm-9.79-9.3h-15v-1h15Zm-20,0h-8.68v-7.32h1V339h7.68Zm40.54-7.56-.84-.54,2-3.19h-9.39v-1h11.21Zm-13.19-3.73h-15v-1h15Zm-20,0h-15v-1h15Z"/><polygon class="cls-3" points="209.72 243.53 158.75 243.53 194.77 187.06 164.54 187.06 164.54 175.76 215.37 175.76 179.35 232.24 209.72 232.24 209.72 243.53"/><polygon class="cls-3" points="271.84 243.53 226.81 243.53 226.65 175.76 271.84 175.76 271.84 187.06 237.97 187.06 238.07 232.24 271.84 232.24 271.84 243.53"/><rect class="cls-3" x="232.31" y="204" width="39.53" height="11.29"/><polygon class="cls-3" points="333.95 243.53 288.78 243.53 288.78 175.76 333.95 175.76 333.95 187.06 300.07 187.06 300.07 232.24 333.95 232.24 333.95 243.53"/><rect class="cls-3" x="294.42" y="204" width="39.53" height="11.29"/><polygon class="cls-3" points="271.84 328.24 226.66 328.24 226.66 260.47 271.84 260.47 271.84 271.76 237.95 271.76 237.95 316.94 271.84 316.94 271.84 328.24"/><rect class="cls-3" x="232.31" y="288.71" width="39.53" height="11.29"/><polygon class="cls-3" points="339.6 328.24 328.78 328.24 300.07 282.47 300.07 328.24 288.78 328.24 288.78 260.47 299.6 260.47 328.31 306.23 328.31 260.47 339.6 260.47 339.6 328.24"/><path class="cls-2" d="M271.9,176.26h-15v-1h15Zm-20,0h-15v-1h15Zm-20,0H220l2.65-4.16.85.53-1.68,2.63H231.9Zm40.5-4.44h-1V165h-7.14v-1h8.14Zm-46.18-3.4-.85-.54,8.07-12.65.84.54Zm33-3.45h-15v-1h15Zm-16.07-2.15-.85-.54,8.07-12.65.84.54ZM237,151.56l-.84-.54,8.07-12.65.84.54Zm17-5.61-.84-.53,8.07-12.65.84.54Zm-6.21-11.26-.85-.53L255,121.51l.84.54Zm17-5.6-.85-.54,8.07-12.64.84.54Zm-9.79-9.3h-15v-1h15Zm-20,0h-8.68v-7.32h1v6.32h7.68Zm40.54-7.56-.84-.54,2-3.19h-9.39v-1h11.21Zm-13.19-3.73h-15v-1h15Zm-20,0h-15v-1h15Z"/><rect class="cls-4" y="175.26" width="495.48" height="1"/><rect class="cls-5" y="327.74" width="495.48" height="1"/></g></svg>