<svg xmlns="http://www.w3.org/2000/svg" viewBox="0 0 1920 1080"><defs><style>.cls-1{fill:#082b96;}.cls-2{fill:#061f6b;}.cls-3{fill:none;stroke:#fff;stroke-miterlimit:10;stroke-width:18px;}</style></defs><g id="Background"><rect class="cls-1" width="1920" height="1080"/></g><g id="Graphics"><path class="cls-2" d="M1384,864H538V216h846Z"/><path class="cls-3" d="M780,450v81a90,90,0,0,0,90,90h0a90,90,0,0,0,90-90V450"/><polyline class="cls-3" points="1074.36 627.36 1140 561.73 1140 504"/><line class="cls-3" x1="870" y1="450" x2="870" y2="486"/><line class="cls-3" x1="1140" y1="486" x2="1140" y2="450"/><line class="cls-3" x1="960" y1="648" x2="960" y2="684"/><line class="cls-3" x1="996" y1="684" x2="996" y2="648"/><polyline class="cls-3" points="996 450 996 489.73 960 525.73"/><polyline class="cls-3" points="1032 450 1032 507.73 960 579.73"/><polyline class="cls-3" points="960 450 960 621 972.73 621 1068 525.73 1068 450"/></g></svg>