<svg xmlns="http://www.w3.org/2000/svg" viewBox="0 0 78 36"><defs><style>.cls-1{fill:#777d7e;}</style></defs><g id="Graphics"><polygon points="21 24 11.97 24 18.35 14 13 14 13 12 22 12 15.62 22 21 22 21 24"/><polygon points="31.98 24 24 24 23.97 12 31.98 12 31.98 14 25.98 14 26 22 31.98 22 31.98 24"/><rect x="24.98" y="17" width="7" height="2"/><polygon points="43 24 35 24 35 12 43 12 43 14 37 14 37 22 43 22 43 24"/><rect x="36" y="17" width="7" height="2"/><polygon points="54 24 46 24 46 12 54 12 54 14 48 14 48 22 54 22 54 24"/><rect x="47" y="17" width="7" height="2"/><polygon points="66 24 64.01 24 59 15.83 59 24 57 24 57 12 59 12 64 20.16 64 12 66 12 66 24"/><path class="cls-1" d="M77,1V35H1V1H77m1-1H0V36H78V0Z"/></g></svg>