<svg xmlns="http://www.w3.org/2000/svg" viewBox="0 0 1920 1080"><defs><style>.cls-1{fill:none;stroke:#000;stroke-miterlimit:10;stroke-width:12px;}</style></defs><g id="Graphics"><path class="cls-1" d="M786,738a77.81,77.81,0,0,1,77.81-77.81h0A77.81,77.81,0,0,1,941.61,738"/><path class="cls-1" d="M846,396l66,66v30h36V336H834A108,108,0,0,0,726,444V744h468V588a108,108,0,0,0-108-108H951.38"/><polyline class="cls-1" points="1194 708 1080 708 1080 480"/><path class="cls-1" d="M1032,480v78a78,78,0,0,1-78,78h0a78,78,0,0,1-78-78V480"/><line class="cls-1" x1="948" y1="336" x2="948" y2="192"/><line class="cls-1" x1="948" y1="252" x2="906" y2="252"/><line class="cls-1" x1="948" y1="252" x2="915.78" y2="219.78"/><line class="cls-1" x1="951.38" y1="294" x2="972" y2="294"/><path class="cls-1" d="M942,276a18,18,0,0,0,0,36"/><path class="cls-1" d="M930,210a18,18,0,0,1,36,0"/><line class="cls-1" x1="744" y1="384" x2="876" y2="516"/><line class="cls-1" x1="876" y1="516" x2="876" y2="426"/><polyline class="cls-1" points="906 336 906 378 948 378"/><line class="cls-1" x1="912" y1="480" x2="876" y2="480"/></g></svg>