<svg xmlns="http://www.w3.org/2000/svg" viewBox="0 0 204 132"><defs><style>.cls-1{fill:none;stroke:#000;stroke-miterlimit:10;stroke-width:4px;}</style></defs><g id="Graphics"><polyline class="cls-1" points="50 50 64.36 50 51.6 70 66 70"/><polyline class="cls-1" points="87.95 70 74 70 73.95 50 87.95 50"/><line class="cls-1" x1="87.95" y1="60" x2="73.95" y2="60"/><polyline class="cls-1" points="110 70 96 70 96 50 110 50"/><line class="cls-1" x1="110" y1="60" x2="96" y2="60"/><polyline class="cls-1" points="132 70 118 70 118 50 132 50"/><line class="cls-1" x1="132" y1="60" x2="118" y2="60"/><polyline class="cls-1" points="154 48 154 70 153.14 70 140.88 50 140 50 140 72"/><path d="M53.21,88l-.58-1.68H49.55L49,88h-.9l2.5-7.09h1L54.13,88Zm-2.13-6.2-1.25,3.68h2.51Z"/><path d="M57.15,83.73a1.39,1.39,0,0,0-1,.4,2.27,2.27,0,0,0-.46,1.62V88h-.84V82.94h.75l.07.89a1.57,1.57,0,0,1,1.51-.92,2.69,2.69,0,0,1,.4,0v.83A2.49,2.49,0,0,0,57.15,83.73Z"/><path d="M60.49,88.07A1.24,1.24,0,0,1,59.1,86.7v-3h-1v-.73h1V81.65l.85-.2v1.49h1.5v.73H60V86.6c0,.49.21.69.68.69a6.24,6.24,0,0,0,.87-.09v.73A3.66,3.66,0,0,1,60.49,88.07Z"/><path d="M62.42,81.78v-1h1v1ZM62.48,88V82.94h.87V88Z"/><path d="M68.31,87.56a2.66,2.66,0,0,1-3.29,0,1.64,1.64,0,0,1-.49-1.16h.85a1,1,0,0,0,.41.79,1.6,1.6,0,0,0,.91.23,1.37,1.37,0,0,0,.93-.28.72.72,0,0,0,.25-.55c0-.38-.27-.65-.79-.72L66,85.72a1.32,1.32,0,0,1-1.24-1.36,1.46,1.46,0,0,1,.42-1,2.06,2.06,0,0,1,1.49-.56,2,2,0,0,1,1.61.64,1.45,1.45,0,0,1,.36,1h-.85a.91.91,0,0,0-.29-.63,1.19,1.19,0,0,0-.83-.27,1.31,1.31,0,0,0-.59.1.76.76,0,0,0-.51.68c0,.42.26.6.68.66s.68.08,1.22.17a1.44,1.44,0,0,1,.89,2.43Z"/><path d="M71.53,88.07a1.24,1.24,0,0,1-1.39-1.37v-3h-1v-.73h1V81.65l.85-.2v1.49h1.5v.73H71V86.6c0,.49.21.69.68.69a6.24,6.24,0,0,0,.87-.09v.73A3.66,3.66,0,0,1,71.53,88.07Z"/><path d="M73.46,81.78v-1h1v1ZM73.52,88V82.94h.87V88Z"/><path d="M79.34,87.58a2,2,0,0,1-1.46.55A2.12,2.12,0,0,1,76,87.18a3.69,3.69,0,0,1,0-3.42,2.1,2.1,0,0,1,1.84-1,2,2,0,0,1,1.44.54,1.94,1.94,0,0,1,.6,1.3h-.86a1.27,1.27,0,0,0-.36-.79,1.18,1.18,0,0,0-.82-.31,1.28,1.28,0,0,0-.88.33,2.73,2.73,0,0,0,0,3.18,1.28,1.28,0,0,0,.88.33,1.18,1.18,0,0,0,.86-.34,1.25,1.25,0,0,0,.34-.75h.86A1.9,1.9,0,0,1,79.34,87.58Z"/><path d="M84.75,88.07A.72.72,0,0,1,84,87.3h0a1.84,1.84,0,0,1-1.63.83,1.59,1.59,0,0,1-1.74-1.56c0-.65.42-1.5,1.8-1.58L84,84.9v-.37a1,1,0,0,0-.26-.77,1.14,1.14,0,0,0-.83-.26,1.25,1.25,0,0,0-.92.3.83.83,0,0,0-.25.61h-.83a1.5,1.5,0,0,1,.44-1.06,2.18,2.18,0,0,1,1.56-.54,1.77,1.77,0,0,1,1.78,1,1.94,1.94,0,0,1,.15.78V87c0,.27.11.34.28.34a1.23,1.23,0,0,0,.22,0V88A1.18,1.18,0,0,1,84.75,88.07ZM84,85.56l-1.36.08c-.51,0-1.11.27-1.11.91,0,.45.28.87,1,.87a1.43,1.43,0,0,0,1-.41A1.63,1.63,0,0,0,84,85.86Z"/><path d="M87.44,88.06c-.74,0-1.06-.44-1.06-1.24v-6h.85v6c0,.34.11.52.46.52H88V88A2.22,2.22,0,0,1,87.44,88.06Z"/><path d="M90.1,88.06c-.74,0-1.06-.44-1.06-1.24v-6h.85v6c0,.34.11.52.46.52h.35V88A2.22,2.22,0,0,1,90.1,88.06Z"/><path d="M93.4,89A1.37,1.37,0,0,1,92,90.12a2.77,2.77,0,0,1-.77-.1v-.74a2.35,2.35,0,0,0,.6.08.72.72,0,0,0,.76-.51l.32-.85-2-5.06h1l1.49,4,1.42-4h.89Z"/><path d="M99.47,81.73V84h3.3v.84h-3.3V88h-.89V80.91h4.59v.82Z"/><path d="M106.39,83.73a1.39,1.39,0,0,0-1,.4,2.27,2.27,0,0,0-.46,1.62V88h-.84V82.94h.75l.07.89a1.57,1.57,0,0,1,1.51-.92,2.69,2.69,0,0,1,.4,0v.83A2.49,2.49,0,0,0,106.39,83.73Z"/><path d="M111.11,87.54a2.28,2.28,0,0,1-3.06,0,3.34,3.34,0,0,1,0-4.14,2.28,2.28,0,0,1,3.06,0,3.34,3.34,0,0,1,0,4.14Zm-.62-3.64a1.33,1.33,0,0,0-1.82,0,2.86,2.86,0,0,0,0,3.14,1.33,1.33,0,0,0,1.82,0,2.86,2.86,0,0,0,0-3.14Z"/><path d="M119.19,88V84.78c0-.71-.23-1.2-1-1.2a1,1,0,0,0-.77.34,1.94,1.94,0,0,0-.43,1.39V88h-.85V84.78c0-.71-.21-1.2-1-1.2a1.07,1.07,0,0,0-.86.45,2.24,2.24,0,0,0-.34,1.28V88h-.85V82.94h.74l.08.72a1.54,1.54,0,0,1,1.42-.85,1.47,1.47,0,0,1,1.51,1,1.67,1.67,0,0,1,1.56-1c1.14,0,1.68.74,1.68,1.86V88Z"/><path d="M123.7,88V80.91h.91V88Z"/><path d="M128.55,83.73a1.39,1.39,0,0,0-1,.4,2.27,2.27,0,0,0-.46,1.62V88h-.84V82.94H127l.07.89a1.57,1.57,0,0,1,1.51-.92,2.69,2.69,0,0,1,.4,0v.83A2.49,2.49,0,0,0,128.55,83.73Z"/><path d="M133.56,88.07a.72.72,0,0,1-.73-.77h0a1.84,1.84,0,0,1-1.63.83,1.59,1.59,0,0,1-1.74-1.56c0-.65.42-1.5,1.8-1.58l1.54-.09v-.37a1,1,0,0,0-.26-.77,1.14,1.14,0,0,0-.83-.26,1.25,1.25,0,0,0-.92.3.83.83,0,0,0-.25.61h-.83a1.5,1.5,0,0,1,.44-1.06,2.18,2.18,0,0,1,1.56-.54,1.77,1.77,0,0,1,1.78,1,1.94,1.94,0,0,1,.15.78V87c0,.27.11.34.28.34a1.23,1.23,0,0,0,.22,0V88A1.18,1.18,0,0,1,133.56,88.07Zm-.78-2.51-1.36.08c-.51,0-1.11.27-1.11.91,0,.45.28.87,1,.87a1.43,1.43,0,0,0,1-.41,1.63,1.63,0,0,0,.43-1.15Z"/><path d="M138.46,88V84.79c0-.76-.31-1.21-1.11-1.21a1.24,1.24,0,0,0-1.1.78,3.34,3.34,0,0,0-.18,1.29V88h-.85V82.94H136l.07.76a1.71,1.71,0,0,1,1.53-.89,1.63,1.63,0,0,1,1.75,1.86V88Z"/><path d="M48.7,96V91H52v.58h-2.7v1.51h2.37v.59H49.32v1.72H52V96Z"/><path d="M56,95.59a2,2,0,0,1-1.41.5,2,2,0,0,1-1.42-.48,1.65,1.65,0,0,1-.53-1.19h.65a1.16,1.16,0,0,0,.35.79,1.4,1.4,0,0,0,1,.31,1.33,1.33,0,0,0,.93-.29.75.75,0,0,0,.25-.58c0-.39-.24-.71-.83-.8l-.79-.12c-.74-.11-1.32-.52-1.32-1.32a1.41,1.41,0,0,1,.43-1,1.88,1.88,0,0,1,1.31-.49,1.82,1.82,0,0,1,1.28.48,1.44,1.44,0,0,1,.48,1.06h-.65a1.07,1.07,0,0,0-.24-.62,1.13,1.13,0,0,0-.88-.34,1.12,1.12,0,0,0-.88.34.79.79,0,0,0-.21.54c0,.45.38.65.75.7l.82.13a1.42,1.42,0,0,1,1.38,1.4A1.25,1.25,0,0,1,56,95.59Z"/><path d="M58.88,91.62V96h-.63V91.62H56.77V91h3.59v.59Z"/><path d="M62.42,96v-.51l2-2.43a1.09,1.09,0,0,0,.26-.7.72.72,0,0,0-.79-.79.78.78,0,0,0-.83.89h-.62A1.36,1.36,0,0,1,63.85,91a1.43,1.43,0,0,1,1.19.56,1.24,1.24,0,0,1,.22.76,1.57,1.57,0,0,1-.41,1l-1.65,2h2.14V96Z"/><path d="M68.78,95.68a1.41,1.41,0,0,1-1,.41,1.38,1.38,0,0,1-1-.41,4.16,4.16,0,0,1,0-4.24,1.38,1.38,0,0,1,1-.41,1.41,1.41,0,0,1,1,.41,4.23,4.23,0,0,1,0,4.24Zm-.45-3.88a.86.86,0,0,0-.6-.22.9.9,0,0,0-.61.22,4.17,4.17,0,0,0,0,3.52.9.9,0,0,0,.61.22.86.86,0,0,0,.6-.22,4.07,4.07,0,0,0,0-3.52Z"/><path d="M71.58,96V91.81l-1.15.85V92l1.19-.86h.57V96Z"/><path d="M76.55,95.65a1.52,1.52,0,0,1-1.17.44,1.56,1.56,0,0,1-1.12-.44,1.47,1.47,0,0,1-.41-1h.61a1,1,0,0,0,.25.67.87.87,0,0,0,.67.27.92.92,0,0,0,.71-.28.91.91,0,0,0,.23-.61.89.89,0,0,0-1-.91H75V93.2h.29A.82.82,0,0,0,76,91.81a.83.83,0,0,0-.6-.24.89.89,0,0,0-.59.2.84.84,0,0,0-.29.69h-.61a1.33,1.33,0,0,1,.47-1.08,1.61,1.61,0,0,1,1-.35,1.49,1.49,0,0,1,1,.4,1.23,1.23,0,0,1,.39.95,1.27,1.27,0,0,1-.72,1.1,1.25,1.25,0,0,1,.82,1.19A1.41,1.41,0,0,1,76.55,95.65Z"/></g></svg>