<svg xmlns="http://www.w3.org/2000/svg" viewBox="0 0 1080 1080"><defs><style>.cls-1{fill:#f4f5f5;}.cls-2{fill:#cde5d9;}.cls-3{fill:#ffec00;}.cls-4{fill:#a9afb0;}.cls-5{fill:#f5cebc;}.cls-6{fill:none;stroke:#000;stroke-miterlimit:10;stroke-width:12px;}</style></defs><g id="Graphics"><circle class="cls-1" cx="540" cy="540" r="540"/><path class="cls-2" d="M768,588V702H666V486A102.12,102.12,0,0,1,768,588Z"/><path class="cls-3" d="M606,486v72a72.08,72.08,0,0,1-72,72h0a72.08,72.08,0,0,1-72-72V486Z"/><rect class="cls-4" x="240" y="342" width="30" height="30"/><path class="cls-5" d="M372,738a71.81,71.81,0,1,1,143.61,0Z"/><line class="cls-6" x1="234" y1="336" x2="234" y2="192"/><line class="cls-6" x1="234" y1="252" x2="276" y2="252"/><line class="cls-6" x1="234" y1="252" x2="266.22" y2="219.78"/><line class="cls-6" x1="230.62" y1="294" x2="210" y2="294"/><path class="cls-6" d="M240,276a18,18,0,0,1,0,36"/><path class="cls-6" d="M252,210a18,18,0,0,0-36,0"/><path class="cls-6" d="M366,738a77.81,77.81,0,0,1,77.81-77.81h0A77.81,77.81,0,0,1,521.61,738"/><line class="cls-6" x1="438" y1="384" x2="306" y2="516"/><path class="cls-6" d="M336,396l-66,66v30H234V336H348A108,108,0,0,1,456,444v36H666A108,108,0,0,1,774,588V744H306V426"/><polyline class="cls-6" points="774 708 660 708 660 480"/><polyline class="cls-6" points="276 336 276 378 234 378"/><path class="cls-6" d="M456,480H612a0,0,0,0,1,0,0v78a78,78,0,0,1-78,78h0a78,78,0,0,1-78-78V480a0,0,0,0,1,0,0Z"/></g></svg>