<svg xmlns="http://www.w3.org/2000/svg" viewBox="0 0 540 540"><defs><style>.cls-1{fill:#cde5d9;}</style></defs><g id="Layer_1" data-name="Layer 1"><g id="Graphics-2" data-name="Graphics"><path class="cls-1" d="M270,126h0A144,144,0,0,1,414,270h0A144,144,0,0,1,270,414h0A144,144,0,0,1,126,270h0A144,144,0,0,1,270,126Z"/><path d="M223.47,320.33a51.23,51.23,0,0,1-51.18-51.19V222.61h9.3v46.53a41.88,41.88,0,0,0,83.76,0V222.61h9.3v46.53A51.23,51.23,0,0,1,223.47,320.33Z"/><polygon points="328.73 318.96 322.15 312.38 358.41 276.12 358.41 250.53 367.71 250.53 367.71 279.98 328.73 318.96"/><rect x="218.82" y="222.61" width="9.31" height="18.61"/><rect x="358.41" y="222.61" width="9.31" height="18.61"/><rect x="265.35" y="329.63" width="9.31" height="18.61"/><rect x="283.96" y="329.63" width="9.31" height="18.61"/><polygon points="273.29 269.71 266.71 263.13 288.61 241.22 288.61 222.61 297.92 222.61 297.92 245.08 273.29 269.71"/><polygon points="273.29 297.63 266.71 291.04 307.23 250.53 307.23 222.61 316.53 222.61 316.53 254.38 273.29 297.63"/><polygon points="278.51 320.33 265.35 320.33 265.35 222.61 274.65 222.61 274.65 311.02 325.84 259.84 325.84 222.61 335.14 222.61 335.14 263.69 278.51 320.33"/></g></g></svg>