<svg xmlns="http://www.w3.org/2000/svg" viewBox="0 0 1920 1080"><g id="Graphics"><rect x="801.82" y="135.32" width="144" height="12" transform="translate(155.98 659.23) rotate(-45)"/><rect x="891.15" y="126.68" width="12" height="42" transform="translate(158.34 677.64) rotate(-45)"/><rect x="882.3" y="126.83" width="45.57" height="12"/><rect x="836.92" y="142.54" width="12" height="20.62" transform="translate(138.81 640.81) rotate(-45)"/><path d="M856.85,190.76a23.9,23.9,0,0,1-17-7l8.48-8.48a12,12,0,1,0,17-17l8.49-8.49a24,24,0,0,1-17,41Z"/><path d="M929,120.1l-8.49-8.48a12,12,0,1,0-17-17L895,86.16A24,24,0,0,1,929,120.1Z"/><path d="M746.26,684.1l-8.48-8.48A71.81,71.81,0,1,0,636.23,574.07l-8.49-8.49A83.81,83.81,0,1,1,746.26,684.1Z"/><rect x="746.54" y="364.42" width="186.68" height="12"/><path d="M916.24,871.05,576.83,531.64,795.69,312.78H761.75l-23.7,23.7-33.94-33.94L822.9,183.74l84.86,84.86a114,114,0,0,1,0,161.22L886.54,451l144.25,144.25a114.13,114.13,0,0,1,0,161.22ZM593.8,531.64,916.24,854.08,1022.31,748a102.12,102.12,0,0,0,0-144.25L869.57,451l29.7-29.7a102.12,102.12,0,0,0,0-144.25L822.9,200.71,721.08,302.54l17,17,18.73-18.73H852.6v12H812.66Z"/><polygon points="937.46 841.35 852.6 756.5 1018.07 591.04 1026.55 599.52 869.57 756.5 945.94 832.87 937.46 841.35"/><polygon points="822.9 260.11 788.96 226.17 797.45 217.68 822.9 243.14 848.36 217.68 856.85 226.17 822.9 260.11"/><path d="M878.06,645.34a84,84,0,0,1-59.4-143.4l59.4-59.4,118.79,118.8-59.39,59.39A83.45,83.45,0,0,1,878.06,645.34Zm0-185.83-50.91,50.92A72,72,0,1,0,929,612.25l50.91-50.91Z"/></g></svg>