<svg xmlns="http://www.w3.org/2000/svg" xmlns:xlink="http://www.w3.org/1999/xlink" viewBox="0 0 1920 1080"><defs><style>.cls-1,.cls-2,.cls-3,.cls-4{fill:none;stroke-miterlimit:10;}.cls-1{stroke:#b5b9ba;stroke-width:10px;}.cls-2{stroke:url(#linear-gradient);}.cls-3{stroke:url(#linear-gradient-2);}.cls-4{stroke:#777d7e;stroke-width:1.25px;stroke-dasharray:15 5;}.cls-5{fill:#d5d7d7;}</style><linearGradient id="linear-gradient" x1="700" y1="955" x2="700" y2="125" gradientUnits="userSpaceOnUse"><stop offset="0" stop-color="#fff" stop-opacity="0"/><stop offset="0.5" stop-color="#777d7e"/><stop offset="1" stop-color="#969b9c" stop-opacity="0"/></linearGradient><linearGradient id="linear-gradient-2" x1="520" y1="245" x2="1400" y2="245" xlink:href="#linear-gradient"/></defs><g id="Graphics"><line class="cls-1" x1="705" y1="370" x2="705" y2="250"/><line class="cls-1" x1="705" y1="300" x2="740" y2="300"/><line class="cls-1" x1="705" y1="300" x2="731.85" y2="273.15"/><line class="cls-1" x1="702.19" y1="335" x2="685" y2="335"/><path class="cls-1" d="M710,320a15,15,0,0,1,0,30"/><path class="cls-1" d="M720,265a15,15,0,0,0-30,0"/><path class="cls-1" d="M815,705a64.84,64.84,0,0,1,64.84-64.84h0A64.84,64.84,0,0,1,944.68,705"/><line class="cls-1" x1="875" y1="410" x2="765" y2="520"/><path class="cls-1" d="M790,420l-55,55v25H705V370h95a90,90,0,0,1,90,90v30h175a90,90,0,0,1,90,90V710H765V445"/><polyline class="cls-1" points="1155 680 1060 680 1060 490"/><path class="cls-1" d="M890,490h130a0,0,0,0,1,0,0v65a65,65,0,0,1-65,65h0a65,65,0,0,1-65-65V490a0,0,0,0,1,0,0Z"/><polyline class="cls-1" points="740 370 740 405 705 405"/><line class="cls-2" x1="700" y1="955" x2="700" y2="125"/><line class="cls-3" x1="1400" y1="245" x2="520" y2="245"/></g><g id="Guides"><path class="cls-4" d="M895,245v60a60,60,0,0,0,120,0V245Z"/><path class="cls-4" d="M895,365v60a60,60,0,0,0,120,0V365Z"/><path class="cls-4" d="M895,125v60a60,60,0,0,0,120,0V125Z"/><path class="cls-5" d="M0,0V1080H1920V0ZM1400,955H520V125h880Z"/><path class="cls-4" d="M640,495v60a60,60,0,0,0,120,0V495Z"/><path class="cls-4" d="M520,495v60a60,60,0,0,0,120,0V495Z"/><path class="cls-4" d="M1160,595v60a60,60,0,0,0,120,0V595Z"/><path class="cls-4" d="M1280,595v60a60,60,0,0,0,120,0V595Z"/><path class="cls-4" d="M895,835v60a60,60,0,0,0,120,0V835Z"/><path class="cls-4" d="M895,715v60a60,60,0,0,0,120,0V715Z"/><path class="cls-4" d="M895,495v60a60,60,0,0,0,120,0V495Z"/></g></svg>