<svg xmlns="http://www.w3.org/2000/svg" viewBox="0 0 1920 1080"><defs><style>.cls-1{fill:#082b96;}.cls-2{fill:#fff;}</style></defs><g id="Background"><rect class="cls-1" width="1920" height="1080"/></g><g id="Graphics"><polygon class="cls-2" points="690 630 554.62 630 650.3 480 570 480 570 450 705.02 450 609.34 600 690 600 690 630"/><polygon class="cls-2" points="855 630 735.39 630 734.96 450 855 450 855 480 765.04 480 765.32 600 855 600 855 630"/><rect class="cls-2" x="750" y="525" width="105" height="30"/><polygon class="cls-2" points="1020 630 900 630 900 450 1020 450 1020 480 930 480 930 600 1020 600 1020 630"/><rect class="cls-2" x="915" y="525" width="105" height="30"/><polygon class="cls-2" points="1185 630 1065 630 1065 450 1185 450 1185 480 1095 480 1095 600 1185 600 1185 630"/><rect class="cls-2" x="1080" y="525" width="105" height="30"/><polygon class="cls-2" points="1365 630 1335.12 630 1260 507.41 1260 630 1230 630 1230 450 1260.01 450 1335 572.39 1335 450 1365 450 1365 630"/></g></svg>