<svg xmlns="http://www.w3.org/2000/svg" viewBox="0 0 56 51"><defs><style>.cls-1{fill:#777d7e;}</style></defs><g id="Graphics"><polygon points="21 24 11.97 24 18.35 14 13 14 13 12 22 12 15.62 22 21 22 21 24"/><polygon points="32 24 24.02 24 24 12 32 12 32 14 26 14 26.02 22 32 22 32 24"/><rect x="25" y="17" width="7" height="2"/><polygon points="43 24 35 24 35 12 43 12 43 14 37 14 37 22 43 22 43 24"/><rect x="36" y="17" width="7" height="2"/><polygon points="32 39 24 39 24 27 32 27 32 29 26 29 26 37 32 37 32 39"/><rect x="25" y="32" width="7" height="2"/><polygon points="44 39 42.08 39 37 30.9 37 39 35 39 35 27 36.91 27 42 35.1 42 27 44 27 44 39"/><path class="cls-1" d="M55,1V50H1V1H55m1-1H0V51H56V0Z"/></g></svg>