<svg xmlns="http://www.w3.org/2000/svg" viewBox="0 0 272 190"><defs><style>.cls-1{font-size:10px;font-family:Approach-Regular, Approach;letter-spacing:-0.01em;}.cls-2{letter-spacing:0.01em;}.cls-3{letter-spacing:-0.02em;}.cls-4{letter-spacing:-0.01em;}.cls-5{letter-spacing:-0.03em;}.cls-6{letter-spacing:-0.05em;}.cls-7{letter-spacing:-0.04em;}.cls-8{letter-spacing:-0.03em;}.cls-9{letter-spacing:-0.03em;}.cls-10{letter-spacing:-0.03em;}.cls-11{font-size:7px;letter-spacing:-0.01em;}.cls-12{letter-spacing:-0.02em;}.cls-13{letter-spacing:-0.04em;}.cls-14{letter-spacing:-0.01em;}.cls-15{fill:#777d7e;}</style></defs><g id="Graphics"><rect x="84" y="25" width="2" height="24"/><rect x="85" y="34" width="7" height="2"/><rect x="83.89" y="31.32" width="7.59" height="2" transform="translate(2.83 71.46) rotate(-45)"/><rect x="81" y="41" width="3.44" height="2"/><path d="M86,46V44a2,2,0,0,0,0-4V38a4,4,0,0,1,0,8Z"/><path d="M89,28H87a2,2,0,0,0-4,0H81a4,4,0,0,1,8,0Z"/><path d="M133.94,116h-2A12,12,0,0,0,108,116h-2a14,14,0,0,1,27.94,0Z"/><rect x="92.44" y="67" width="31.11" height="2" transform="translate(-16.45 96.28) rotate(-45)"/><path d="M176,118H96V66.41l-4,4V76H84V48h20a19,19,0,0,1,19,19v5h34a19,19,0,0,1,19,19Zm-78-2h76V91a17,17,0,0,0-17-17H121V67a17,17,0,0,0-17-17H86V74h4V69.59l11.29-11.3,1.42,1.42L98,64.41Z"/><polygon points="175 112 155 112 155 73 157 73 157 110 175 110 175 112"/><path d="M135,100a14,14,0,0,1-14-14V72h28V86A14,14,0,0,1,135,100ZM123,74V86a12,12,0,0,0,24,0V74Z"/><polygon points="93 57 85 57 85 55 91 55 91 49 93 49 93 57"/><path d="M107,150a11,11,0,0,1-11-11v-9h2v9a9,9,0,0,0,18,0v-9h2v9A11,11,0,0,1,107,150Z"/><polygon points="130.41 150.41 129 149 136 142 136 136 138 136 138 142.83 130.41 150.41"/><rect x="106" y="130" width="2" height="4"/><rect x="136" y="130" width="2" height="4"/><rect x="116" y="152" width="2" height="4"/><rect x="120" y="152" width="2" height="4"/><polygon points="117.71 139.12 116.29 137.71 120 134 120 130 122 130 122 134.83 117.71 139.12"/><polygon points="117.71 145.12 116.29 143.71 124 136 124 130 126 130 126 136.83 117.71 145.12"/><polygon points="118.83 150 116 150 116 130 118 130 118 148 128 138 128 130 130 130 130 138.83 118.83 150"/><polygon points="59 101 48.98 101 56.43 89 50 89 50 87 60.02 87 52.57 99 59 99 59 101"/><polygon points="71 101 62 101 62 87 71 87 71 89 64 89 64 99 71 99 71 101"/><rect x="63" y="93" width="8" height="2"/><polygon points="83 101 74 101 74 87 83 87 83 89 76 89 76 99 83 99 83 101"/><rect x="75" y="93" width="8" height="2"/><polygon points="71 118 62 118 62 104 71 104 71 106 64 106 64 116 71 116 71 118"/><rect x="63" y="110" width="8" height="2"/><polygon points="84 118 82 118 76 107.91 76 118 74 118 74 104 76 104 82 114.09 82 104 84 104 84 118"/><text class="cls-1" transform="translate(147 142)">A<tspan class="cls-2" x="6.6" y="0">r</tspan><tspan x="10.32" y="0">ti</tspan><tspan class="cls-3" x="16" y="0">s</tspan><tspan class="cls-4" x="20.7" y="0">ticall</tspan><tspan class="cls-5" x="41.34" y="0">y</tspan><tspan x="46.22" y="0"> </tspan><tspan class="cls-6" x="48.41" y="0">F</tspan><tspan class="cls-7" x="54.06" y="0">r</tspan><tspan class="cls-8" x="57.3" y="0">om </tspan><tspan class="cls-9" x="73.31" y="0">I</tspan><tspan class="cls-10" x="75.75" y="0">r</tspan><tspan class="cls-8" x="79.04" y="0">an</tspan><tspan class="cls-11"><tspan x="0" y="8">E</tspan><tspan class="cls-12" x="4.27" y="8">S</tspan><tspan class="cls-13" x="8.39" y="8">T</tspan><tspan class="cls-14" x="12.1" y="8" xml:space="preserve"> 2013</tspan></tspan></text><path class="cls-15" d="M271,1V189H1V1H271m1-1H0V190H272V0Z"/></g></svg>