<svg xmlns="http://www.w3.org/2000/svg" xmlns:xlink="http://www.w3.org/1999/xlink" viewBox="0 0 1920 1080"><defs><style>.cls-1{fill:#082b96;}.cls-2{fill:url(#linear-gradient);}.cls-3{fill:url(#linear-gradient-2);}.cls-4{fill:url(#linear-gradient-3);}.cls-5{fill:url(#linear-gradient-4);}.cls-6{fill:url(#linear-gradient-5);}.cls-7{fill:url(#linear-gradient-6);}.cls-8{fill:#fff;}.cls-9{fill:#4672e2;}</style><linearGradient id="linear-gradient" x1="-3868" y1="5102.25" x2="-1948" y2="5102.25" gradientTransform="translate(-1948 5676) rotate(180)" gradientUnits="userSpaceOnUse"><stop offset="0" stop-color="#fff" stop-opacity="0"/><stop offset="0.51" stop-color="#fff"/><stop offset="1" stop-color="#fff" stop-opacity="0"/></linearGradient><linearGradient id="linear-gradient-2" y1="4859.25" y2="4859.25" xlink:href="#linear-gradient"/><linearGradient id="linear-gradient-3" x1="9918.43" y1="3851.57" x2="10998.42" y2="3851.57" gradientTransform="translate(5243.57 -9918.43) rotate(90)" xlink:href="#linear-gradient"/><linearGradient id="linear-gradient-4" x1="9918.43" y1="4715.58" x2="10998.42" y2="4715.58" gradientTransform="translate(5243.57 -9918.43) rotate(90)" xlink:href="#linear-gradient"/><linearGradient id="linear-gradient-5" x1="4506.42" y1="6669.32" x2="6426.42" y2="6669.32" gradientTransform="translate(6426.43 7607.57) rotate(180)" xlink:href="#linear-gradient"/><linearGradient id="linear-gradient-6" x1="4506.42" y1="7465.83" x2="6426.42" y2="7465.83" gradientTransform="translate(6426.43 7607.57) rotate(180)" xlink:href="#linear-gradient"/></defs><g id="Background"><rect class="cls-1" width="1920" height="1080"/></g><g id="Graphics"><rect class="cls-2" y="573.25" width="1920" height="1"/><rect class="cls-3" y="816.25" width="1920" height="1"/><rect class="cls-4" x="1391.5" width="1" height="1080"/><rect class="cls-5" x="527.5" width="1" height="1080"/><rect class="cls-6" y="937.75" width="1920" height="1"/><rect class="cls-7" y="141.25" width="1920" height="1"/><path class="cls-8" d="M1071.69,326.92l-10.61-10.61.71-.71,10.61,10.61Zm4.24-.44-.71-.71,10.61-10.6.71.7Zm-11.75-13.7-.71-.71,10.61-10.61.71.71Zm25.89-.44-.7-.71L1100,301l.71.71Zm-11.75-13.71-.71-.7,10.61-10.61.71.71Zm25.9-.43-.71-.71,10.61-10.61.7.71Zm-11.76-13.71-.7-.71,10.6-10.6.71.71Zm25.9-.44-.71-.7,10.61-10.61.7.71Zm-11.75-13.7-.71-.71,10.61-10.6.7.7Zm25.89-.44-.71-.7,10.61-10.61.71.71Zm-11.75-13.7-.71-.71L1130.5,245V237h1v8.49Zm25.89-.44-.7-.71,2.56-2.56v-11h1v11.37Zm2.86-19.23h-1v-15h1Zm-18-4.58h-1V217h1Zm18-15.42h-1v-15h1Zm-18-4.58h-1V197h1Zm18-15.42h-1v-.29h-13.71v-1h14.71Z"/><path class="cls-8" d="M879.5,178.25H867v-1h11.5v-2.5h1Zm-17.5,0h-1.5v-14.5h1v13.5h.5Zm17.5-8.5h-1v-15h1Zm-18-11h-1v-15h1Zm18-9h-1v-7.5H864v-1h15.5Z"/><path class="cls-8" d="M1149.5,178.25H1135v-1h13.5v-.5h1Zm-18-1.5h-1v-15h1Zm18-5h-1v-15h1Zm-18-15h-1v-15.5h8.5v1h-7.5Zm18-5h-1v-9.5H1144v-1h5.5Z"/><path class="cls-8" d="M966,385.25H950.5v-8.5h1v7.5H966Zm3.5-2.5h-1v-15h1Zm-18-11h-1v-15h1Zm18-9h-1v-13.5H968v-1h1.5Zm-18-11h-1v-3.5H963v1H951.5Z"/><path class="cls-8" d="M1002,385.25H986.5v-8.5h1v7.5H1002Zm3.5-2.5h-1v-15h1Zm-18-11h-1v-15h1Zm18-9h-1v-13.5h-.5v-1h1.5Zm-18-11h-1v-3.5H999v1H987.5Z"/><path class="cls-8" d="M869.94,331.25l-2.47,0,0-1c.83,0,1.66,0,2.5,0a98.37,98.37,0,0,0,12.39-.78l.13,1a100.56,100.56,0,0,1-12.52.78Zm106.72,0h-5.28v-1h4.87l6.87-6.87.71.7Zm-10.28,0h-15v-1h15ZM862.46,331a99.31,99.31,0,0,1-14.89-2.27l.23-1A98.65,98.65,0,0,0,862.53,330Zm25-1.26-.18-1A99.71,99.71,0,0,0,901.75,325l.32.94A99.09,99.09,0,0,1,887.49,329.71Zm-44.78-2.26a100.56,100.56,0,0,1-14.12-5.23l.42-.91a98.41,98.41,0,0,0,14,5.17Zm108.79-1.32h-1v-15h1Zm-44.71-1.94-.38-.92a98.31,98.31,0,0,0,13.39-6.58l.51.87A100.12,100.12,0,0,1,906.79,324.19Zm80.57-3.64-.7-.71,10.6-10.61.71.71ZM824.09,320a99.15,99.15,0,0,1-12.78-8l.59-.8a98.86,98.86,0,0,0,12.65,7.87Zm100.48-5.11-.55-.84a98.1,98.1,0,0,0,11.79-9.12l.67.75A101.14,101.14,0,0,1,924.57,314.9ZM968.5,314v-6.2h1v3.79l6.22-6.22.71.71Zm-98.5-.7a82,82,0,0,1-13.29-1.08l.16-1a81.11,81.11,0,0,0,14.85,1.05l0,1Zm6.76-.28-.08-1a80.59,80.59,0,0,0,14.65-2.6l.27,1A81.79,81.79,0,0,1,876.76,313Zm-25-1.77a80.8,80.8,0,0,1-14.31-4.73l.4-.91A80.64,80.64,0,0,0,852,310.22ZM807.33,309a100.75,100.75,0,0,1-10.93-10.34l.74-.68A99,99,0,0,0,808,308.21Zm89.07-.12-.32-.94a80.91,80.91,0,0,0,13.56-6.12l.49.87A81.74,81.74,0,0,1,896.4,308.86Zm105.11-2.45-.71-.71,10.61-10.61.7.71Zm-50-.28h-1v-15h1Zm-118.58-1.82a81.34,81.34,0,0,1-12.72-8.08l.61-.79a82.06,82.06,0,0,0,12.56,8Zm136.58-1.56h-1v-15h1Zm10.46-.26-.7-.71,10.6-10.6.71.7Zm-39.83-.26-.7-.71a99.5,99.5,0,0,0,9.74-11.28l.81.59A99.8,99.8,0,0,1,940.13,302.23Zm-25.71-2.18-.54-.84A80.37,80.37,0,0,0,925.54,290l.69.72A81.9,81.9,0,0,1,914.42,300.05Zm-121.31-5.21a100,100,0,0,1-8.66-12.32l.86-.52a98.34,98.34,0,0,0,8.57,12.2ZM816.32,293A83.1,83.1,0,0,1,806,282.1l.79-.62A81.06,81.06,0,0,0,817,292.28Zm199.33-.77-.71-.7L1025.55,281l.7.71Zm-21.54-3.91-.71-.71L1004,277l.7.71Zm-64.35-1.24-.73-.68a81,81,0,0,0,9.07-11.8l.85.54A82.8,82.8,0,0,1,929.76,287.11Zm40.62-3.58-.71-.71,10.61-10.6.71.71ZM782,278.13a100,100,0,0,1-6-13.81l.95-.33a97.94,97.94,0,0,0,6,13.67Zm247.81,0-.71-.71,10.61-10.6.71.7ZM803,278.05a81.8,81.8,0,0,1-7.4-13.12l.91-.41a81.78,81.78,0,0,0,7.31,13Zm205.29-3.84-.71-.71,10.61-10.61.7.71Zm-66.75-3.38-.87-.48a80.56,80.56,0,0,0,5.92-13.66l1,.31A81.44,81.44,0,0,1,941.5,270.83Zm43-1.44-.71-.71,10.61-10.6.71.7Zm59.41-5.41-.7-.71,10.6-10.6.71.7Zm-250.28-3.69a81.19,81.19,0,0,1-3.95-14.54l1-.17a80.47,80.47,0,0,0,3.9,14.36Zm228.74-.23-.71-.7,10.61-10.61.71.71Zm-247.95-.54a98.47,98.47,0,0,1-3.09-14.74l1-.13a99,99,0,0,0,3.06,14.59Zm195.37-.88-.7-.71,10.6-10.6.71.7Zm28.85-3.39-.7-.71,10.6-10.61.71.71Zm-29.16-.85h-1v-15h1Zm-20.59-2.22-1-.26a80,80,0,0,0,2.37-14.68l1,.06A82.14,82.14,0,0,1,948.91,252.18Zm109.16-2.34-.7-.71,10.6-10.61.71.71Zm-21.54-3.92-.7-.71,10.6-10.6.71.7ZM984,244.5l-.71-.71,10.61-10.6.7.7Zm28.85-3.39-.71-.71,10.61-10.61.7.71ZM789,240.77a84.61,84.61,0,0,1-.49-9v-6h1v6a80.22,80.22,0,0,0,.49,8.91Zm-18.17-1c-.21-2.65-.32-5.36-.32-8v-7h1v7c0,2.65.11,5.33.32,8Zm301.4-4.1-.71-.7,10.61-10.61.7.71ZM969.5,234.4h-1V230l7.79-7.79.7.71-7.49,7.49Zm-18-2.12h-1v-15h1Zm99.17-.5-.7-.71,10.6-10.6.71.7Zm-52.57-1.42-.71-.71L1008,219l.7.71ZM1027,227l-.71-.7,10.61-10.61.7.71Zm59.55-5.76h-1v-15h1Zm-297-.46h-1v-15h1Zm-18-1h-1v-15h1Zm209-.38-.71-.7,10.61-10.61.71.71Zm84.29-1.74-.71-.71,3.39-3.39v-9.79h1V214Zm-52.58-1.43-.71-.7,10.61-10.61.71.71Zm28.85-3.39-.71-.71,9.12-9.11v-1.69h1v2.1Zm-89.59-.54h-1v-15h1Zm17-6.32V193.22h1v10.32l1.6-1.6.71.71Zm26.17-.72-.71-.71,10.61-10.6.71.7Zm31.71-3.17-.7-.7,5.82-5.83v-6.35h1V196Zm60.12-.87h-1v-15h1Zm-297-.46h-1v-15h1Zm-18-1h-1v-15h1Zm203.85-.65-.71-.71,10.6-10.6.71.7Zm93.15-.36h-1v-15h1Zm-18-2.44h-1v-15h1Zm-99-4h-1v-15h1Zm57.31-1.18-.7-.71,5.39-5.39v-7h1v7.37Zm-39.31-2.88h-1v-15h1Zm20-3.25-.71-.71,6.72-6.72v-5.08h1V178Zm43-.78h-1v-15h1Zm54-3h-1v-15h1Zm-297-.46h-1v-15h1Zm-18-1h-1v-15h1Zm297-1h-1v-15h1Zm-18-2.44h-1v-15h1Zm-36-3.27h-1V158h1Zm-63-.76h-1v-15h1Zm18-4.06h-1v-15h1Zm27-.76h-1v-15h1Zm36-3.27h-1v-15h1Zm54-3h-1v-15h1Zm-297-.46h-1v-15h1Zm-18-1h-1v-15h1Zm297-1h-1v-15h1Zm-18-2.44h-1V141.75h.06v-.5h.94Zm-36-3.27h-1V142.25h-3.21v-1h4.21Zm-63-.76h-1v-11h5v1h-4Zm18-4.06h-1v-6h-8v-1h9Zm27-.76h-1v-6.21h9.79v1H996.5Zm36-3.27h-1v-2.94h13.06v1H1032.5Zm53.5-1.94h-15v-1h15Zm-298,0H773v-1h15Z"/><path class="cls-8" d="M1071.69,758.92l-10.61-10.61.71-.7,10.61,10.6Zm4.24-.44-.71-.7,10.61-10.61.71.71Zm-11.75-13.7-.71-.71,10.61-10.61.71.71Zm25.89-.44-.7-.71L1100,733l.71.7Zm-11.75-13.7-.7-.71,10.6-10.61.71.71Zm25.9-.44-.71-.71,10.61-10.61.7.71Zm-11.76-13.71-.7-.7,10.6-10.61.71.71Zm25.9-.43-.71-.71,10.61-10.61.7.71Zm-11.75-13.71-.71-.71,10.61-10.6.7.7Zm25.89-.44-.71-.7,10.61-10.61.71.71Zm-11.75-13.7-.71-.71L1130.5,677V669h1v8.5Zm25.89-.44-.7-.71,2.56-2.56v-11h1v11.37Zm2.86-19.23h-1v-15h1Zm-18-4.58h-1V649h1Zm18-15.42h-1v-15h1Zm-18-4.58h-1V629h1Zm18-15.42h-1v-.29h-13.71v-1h14.71Z"/><path class="cls-8" d="M879.5,610.25H867v-1h11.5v-2.5h1Zm-17.5,0h-1.5v-14.5h1v13.5h.5Zm17.5-8.5h-1v-15h1Zm-18-11h-1v-15h1Zm18-9h-1v-7.5H864v-1h15.5Z"/><path class="cls-8" d="M1149.5,610.25H1135v-1h13.5v-.5h1Zm-18-1.5h-1v-15h1Zm18-5h-1v-15h1Zm-18-15h-1v-15.5h8.5v1h-7.5Zm18-5h-1v-9.5H1144v-1h5.5Z"/><path class="cls-8" d="M966,817.25H950.5v-8.5h1v7.5H966Zm3.5-2.5h-1v-15h1Zm-18-11h-1v-15h1Zm18-9h-1v-13.5H968v-1h1.5Zm-18-11h-1v-3.5H963v1H951.5Z"/><path class="cls-8" d="M1002,817.25H986.5v-8.5h1v7.5H1002Zm3.5-2.5h-1v-15h1Zm-18-11h-1v-15h1Zm18-9h-1v-13.5h-.5v-1h1.5Zm-18-11h-1v-3.5H999v1H987.5Z"/><path class="cls-8" d="M869.94,763.25c-.82,0-1.65,0-2.47,0l0-1c.83,0,1.66,0,2.5,0a100.28,100.28,0,0,0,12.39-.77l.12,1A97.19,97.19,0,0,1,869.94,763.25Zm106.72,0h-5.28v-1h4.87l6.87-6.87.71.71Zm-10.28,0h-15v-1h15ZM862.46,763a99.31,99.31,0,0,1-14.89-2.27l.23-1A98.65,98.65,0,0,0,862.53,762Zm25-1.26-.18-1A98.43,98.43,0,0,0,901.75,757l.32.94A99.09,99.09,0,0,1,887.49,761.71Zm-44.78-2.26a100.56,100.56,0,0,1-14.12-5.23l.42-.91a98.46,98.46,0,0,0,14,5.18Zm108.79-1.32h-1v-15h1Zm-44.71-1.93-.38-.93a98.25,98.25,0,0,0,13.39-6.57l.51.86A101.38,101.38,0,0,1,906.79,756.2Zm80.57-3.65-.7-.71,10.6-10.6.71.7ZM824.09,752a98.06,98.06,0,0,1-12.78-8l.59-.8a98.86,98.86,0,0,0,12.65,7.87Zm100.48-5.11-.55-.84a97.09,97.09,0,0,0,11.79-9.12l.67.75A101.14,101.14,0,0,1,924.57,746.9ZM968.5,746v-6.2h1v3.78l6.22-6.22.71.71Zm-98.5-.71a82,82,0,0,1-13.29-1.08l.16-1a81.11,81.11,0,0,0,14.85,1.05l0,1C871.16,745.25,870.58,745.25,870,745.25Zm6.76-.28-.08-1a79.74,79.74,0,0,0,14.65-2.6l.27,1A80.94,80.94,0,0,1,876.76,745Zm-25-1.77a80.76,80.76,0,0,1-14.31-4.72l.4-.92A79,79,0,0,0,852,742.22ZM807.33,741a100.84,100.84,0,0,1-10.93-10.35l.74-.67A98.92,98.92,0,0,0,808,740.21Zm89.07-.13-.32-.94a80.91,80.91,0,0,0,13.56-6.12l.49.87A81,81,0,0,1,896.4,740.86Zm105.11-2.45-.71-.71,10.61-10.61.7.71Zm-50-.28h-1v-15h1Zm-118.58-1.81a82.13,82.13,0,0,1-12.72-8.09l.62-.79a80.74,80.74,0,0,0,12.55,8Zm136.58-1.56h-1v-15h1Zm10.46-.27-.7-.7,10.6-10.61.71.71Zm-39.83-.26-.7-.71a99.64,99.64,0,0,0,9.74-11.28l.81.6A100.7,100.7,0,0,1,940.13,734.23Zm-25.71-2.18-.54-.83A81.13,81.13,0,0,0,925.54,722l.69.72A81.9,81.9,0,0,1,914.42,732.05Zm-121.31-5.21a100,100,0,0,1-8.66-12.32l.86-.52a98.34,98.34,0,0,0,8.57,12.2ZM816.32,725A83.1,83.1,0,0,1,806,714.1l.79-.62A80.45,80.45,0,0,0,817,724.28Zm199.33-.76-.71-.71L1025.55,713l.7.71Zm-21.54-3.92-.71-.71L1004,709l.7.7Zm-64.35-1.24-.73-.68a81,81,0,0,0,9.07-11.8l.85.54A81.72,81.72,0,0,1,929.76,719.11Zm40.62-3.58-.71-.7,10.61-10.61.71.71ZM782,710.13a100,100,0,0,1-6-13.81l.95-.33a97.94,97.94,0,0,0,6,13.67Zm247.81,0-.71-.7,10.61-10.61.71.71ZM803,710.06a82.33,82.33,0,0,1-7.4-13.13l.92-.4a81.1,81.1,0,0,0,7.31,13Zm205.29-3.85-.71-.71,10.61-10.61.7.71Zm-66.75-3.38-.87-.48a80.21,80.21,0,0,0,5.92-13.66l1,.31A81.44,81.44,0,0,1,941.5,702.83Zm43-1.44-.71-.71,10.61-10.6.71.71Zm59.41-5.41-.7-.71,10.6-10.6.71.71Zm-250.28-3.69a81.19,81.19,0,0,1-3.95-14.54l1-.17a80,80,0,0,0,3.9,14.36Zm228.74-.22-.71-.71,10.61-10.61.71.71Zm-247.95-.55a98.6,98.6,0,0,1-3.09-14.73l1-.13a99.14,99.14,0,0,0,3.06,14.58Zm195.37-.88-.7-.7,10.6-10.61.71.71Zm28.85-3.39-.7-.71,10.6-10.6.71.7Zm-29.16-.85h-1v-15h1Zm-20.59-2.22-1-.25a79.92,79.92,0,0,0,2.37-14.69l1,.07A82,82,0,0,1,948.91,684.18Zm109.16-2.34-.7-.71,10.6-10.6.71.7Zm-21.54-3.92-.7-.7,10.6-10.61.71.71ZM984,676.5l-.71-.71,10.61-10.6.7.7Zm28.85-3.39-.71-.71,10.61-10.61.7.71ZM789,672.77a81.94,81.94,0,0,1-.5-9v-6h1v6a80,80,0,0,0,.49,8.91Zm-18.18-1c-.21-2.65-.32-5.36-.32-8v-7h1v7c0,2.66.11,5.33.32,8Zm301.4-4.09-.71-.71,10.61-10.61.7.71ZM969.5,666.4h-1V662l7.79-7.79.7.71-7.49,7.49Zm-18-2.12h-1v-15h1Zm99.17-.5-.7-.71,10.6-10.6.71.7Zm-52.57-1.42-.71-.71,10.61-10.6.7.7ZM1027,659l-.71-.71,10.61-10.61.7.71Zm59.55-5.77h-1v-15h1Zm-297-.46h-1v-15h1Zm-18-1h-1v-15h1Zm209-.38-.71-.7,10.61-10.61.71.71Zm84.29-1.74-.71-.71,3.39-3.39v-9.79h1V646Zm-52.58-1.42-.71-.71,10.61-10.61.71.71Zm28.85-3.4-.71-.7,9.12-9.12v-1.69h1v2.1Zm-89.59-.54h-1v-15h1Zm17-6.32V625.22h1v10.32l1.6-1.6.71.71Zm26.17-.72-.71-.7,10.61-10.61.71.71Zm31.71-3.17-.71-.7,5.83-5.83v-6.35h1V628Zm60.12-.87h-1v-15h1Zm-297-.46h-1v-15h1Zm-18-1h-1v-15h1Zm203.85-.65-.71-.71,10.6-10.6.71.7Zm93.15-.36h-1v-15h1Zm-18-2.44h-1v-15h1Zm-99-4h-1v-15h1Zm57.31-1.18-.7-.71,5.39-5.39v-7h1v7.37Zm-39.31-2.88h-1v-15h1Zm20-3.25-.71-.71,6.72-6.72v-5.08h1V610Zm43-.78h-1v-15h1Zm54-3h-1v-15h1Zm-297-.46h-1v-15h1Zm-18-1h-1v-15h1Zm297-1h-1v-15h1Zm-18-2.44h-1v-15h1Zm-36-3.27h-1V590h1Zm-63-.76h-1v-15h1Zm18-4.06h-1v-15h1Zm27-.76h-1v-15h1Zm36-3.27h-1v-15h1Zm54-3h-1v-15h1Zm-297-.46h-1v-15h1Zm-18-1h-1v-15h1Zm297-1h-1v-15h1Zm-18-2.44h-1V573.75h.06v-.5h.94Zm-36-3.27h-1V574.25h-3.21v-1h4.21Zm-63-.76h-1v-11h5v1h-4Zm18-4.06h-1v-6h-8v-1h9Zm27-.76h-1v-6.21h9.79v1H996.5Zm36-3.27h-1v-2.94h13.06v1H1032.5Zm53.5-1.94h-15v-1h15Zm-298,0H773v-1h15Z"/><path class="cls-8" d="M1071.69,1001.92l-10.61-10.61.71-.7,10.61,10.6Zm4.24-.44-.71-.7,10.61-10.61.71.71Zm-11.75-13.7-.71-.71,10.61-10.6.71.7Zm25.89-.44-.7-.71L1100,976l.71.7Zm-11.75-13.7-.71-.71,10.61-10.61.71.71Zm25.9-.44-.71-.71,10.61-10.6.7.7Zm-11.76-13.7-.7-.71,10.6-10.61.71.71Zm25.9-.44-.71-.71,10.61-10.61.7.71Zm-11.75-13.71-.71-.7L1116.51,934l.7.71Zm25.89-.43-.71-.71,10.61-10.61.71.71Zm-11.75-13.71-.71-.71L1130.5,920V912h1v8.5Zm25.89-.44-.7-.7,2.56-2.57v-11h1v11.38Zm2.86-19.23h-1v-15h1Zm-18-4.58h-1V892h1Zm18-15.42h-1v-15h1Zm-18-4.58h-1V872h1Zm18-15.42h-1v-.29h-13.71v-1h14.71Z"/><path class="cls-8" d="M879.5,853.25H867v-1h11.5v-2.5h1Zm-17.5,0h-1.5v-14.5h1v13.5h.5Zm17.5-8.5h-1v-15h1Zm-18-11h-1v-15h1Zm18-9h-1v-7.5H864v-1h15.5Z"/><path class="cls-8" d="M1149.5,853.25H1135v-1h13.5v-.5h1Zm-18-1.5h-1v-15h1Zm18-5h-1v-15h1Zm-18-15h-1v-15.5h8.5v1h-7.5Zm18-5h-1v-9.5H1144v-1h5.5Z"/><path class="cls-8" d="M966,1060.25H950.5v-8.5h1v7.5H966Zm3.5-2.5h-1v-15h1Zm-18-11h-1v-15h1Zm18-9h-1v-13.5H968v-1h1.5Zm-18-11h-1v-3.5H963v1H951.5Z"/><path class="cls-8" d="M1002,1060.25H986.5v-8.5h1v7.5H1002Zm3.5-2.5h-1v-15h1Zm-18-11h-1v-15h1Zm18-9h-1v-13.5h-.5v-1h1.5Zm-18-11h-1v-3.5H999v1H987.5Z"/><path class="cls-8" d="M869.94,1006.25c-.82,0-1.65,0-2.47,0l0-1c.83,0,1.66,0,2.5,0a100.28,100.28,0,0,0,12.39-.77l.12,1a100.28,100.28,0,0,1-12.51.78Zm106.72,0h-5.28v-1h4.87l6.87-6.87.71.71Zm-10.28,0h-15v-1h15ZM862.46,1006a99.31,99.31,0,0,1-14.89-2.27l.23-1a98.65,98.65,0,0,0,14.73,2.24Zm25-1.26-.17-1a98.43,98.43,0,0,0,14.44-3.73l.32.94A97.67,97.67,0,0,1,887.48,1004.71Zm-44.77-2.26a99.32,99.32,0,0,1-14.12-5.23l.41-.91a97.82,97.82,0,0,0,14,5.18Zm108.79-1.32h-1v-15h1Zm-44.72-1.93-.37-.93a98.82,98.82,0,0,0,13.39-6.57l.5.86A99,99,0,0,1,906.78,999.2Zm80.58-3.65-.7-.71,10.6-10.6.71.7ZM824.08,995a98.63,98.63,0,0,1-12.77-8l.59-.8a100.06,100.06,0,0,0,12.65,7.88Zm100.49-5.11-.55-.83a100.05,100.05,0,0,0,11.8-9.12l.66.74A99,99,0,0,1,924.57,989.9ZM968.5,989v-6.2h1v3.78l6.22-6.22.71.71Zm-98.5-.71a82,82,0,0,1-13.29-1.08l.17-1a80.07,80.07,0,0,0,14.84,1.05l0,1C871.16,988.25,870.58,988.25,870,988.25Zm6.76-.27-.08-1a79.74,79.74,0,0,0,14.65-2.6l.27,1A81.66,81.66,0,0,1,876.76,988Zm-25-1.78a81,81,0,0,1-14.31-4.72l.4-.92A79.85,79.85,0,0,0,852,985.23ZM807.33,984a100.84,100.84,0,0,1-10.93-10.35l.74-.67A99.74,99.74,0,0,0,808,983.21Zm89.07-.13-.32-.94a80.91,80.91,0,0,0,13.56-6.12l.49.87A81,81,0,0,1,896.4,983.86Zm105.1-2.45-.7-.71,10.6-10.6.71.7Zm-50-.28h-1v-15h1Zm-118.58-1.81a82.13,82.13,0,0,1-12.72-8.09l.62-.79a80.36,80.36,0,0,0,12.56,8Zm136.58-1.56h-1v-15h1Zm10.46-.27-.7-.7,10.6-10.61.71.71Zm-39.83-.26-.7-.7a100.62,100.62,0,0,0,9.74-11.29l.81.6A100.7,100.7,0,0,1,940.13,977.23Zm-25.71-2.18-.54-.83A81.13,81.13,0,0,0,925.54,965l.69.72A81.9,81.9,0,0,1,914.42,975.05Zm-121.31-5.21a100,100,0,0,1-8.66-12.32l.86-.52a98.34,98.34,0,0,0,8.57,12.2ZM816.32,968A83.1,83.1,0,0,1,806,957.1l.79-.62A81.09,81.09,0,0,0,817,967.28Zm199.33-.76-.71-.71L1025.55,956l.7.71Zm-21.54-3.92-.71-.71L1004,952l.7.7Zm-64.35-1.24-.73-.68a81,81,0,0,0,9.07-11.8l.85.54A81.72,81.72,0,0,1,929.76,962.11Zm40.62-3.58-.71-.7,10.61-10.61.71.71ZM782,953.13a100.64,100.64,0,0,1-6-13.81l.95-.33a97.94,97.94,0,0,0,6,13.67Zm247.81,0-.71-.7,10.61-10.61.71.71ZM803,953.06a82.23,82.23,0,0,1-7.4-13.12l.92-.41a80.24,80.24,0,0,0,7.31,13Zm205.29-3.85-.71-.71,10.61-10.6.7.7Zm-66.75-3.38-.87-.48a80.21,80.21,0,0,0,5.92-13.66l1,.31A81.44,81.44,0,0,1,941.5,945.83Zm43-1.44-.71-.7,10.61-10.61.71.71Zm59.41-5.41-.71-.7,10.61-10.61.71.71Zm-250.28-3.69a81.19,81.19,0,0,1-3.95-14.54l1-.17a80,80,0,0,0,3.9,14.36Zm228.74-.22-.71-.71,10.61-10.61.71.71Zm-247.95-.55a98.6,98.6,0,0,1-3.09-14.73l1-.13a99.14,99.14,0,0,0,3.06,14.58Zm195.37-.88-.7-.7,10.6-10.61.71.71Zm28.85-3.39-.7-.71,10.6-10.6.71.7Zm-29.16-.85h-1v-15h1Zm-20.59-2.22-1-.25a79.92,79.92,0,0,0,2.37-14.69l1,.07A82,82,0,0,1,948.91,927.18Zm109.16-2.34-.7-.71,10.6-10.6.71.7Zm-21.54-3.92-.7-.7,10.6-10.61.71.71ZM984,919.5l-.71-.7,10.61-10.61.7.71Zm28.85-3.39-.71-.71,10.61-10.61.7.71ZM789,915.77a84.61,84.61,0,0,1-.49-9v-6h1v6a80.22,80.22,0,0,0,.49,8.91Zm-18.17-1c-.21-2.65-.32-5.36-.32-8v-7h1v7c0,2.66.11,5.33.32,8Zm301.4-4.09-.71-.71,10.61-10.6.7.7ZM969.5,909.4h-1V905l7.79-7.79.7.71-7.49,7.49Zm-18-2.12h-1v-15h1Zm99.17-.5-.7-.7,10.6-10.61.71.71Zm-52.57-1.42-.71-.71,10.61-10.6.7.7ZM1027,902l-.71-.71,10.61-10.61.7.71Zm59.55-5.77h-1v-15h1Zm-297-.46h-1v-15h1Zm-18-1h-1v-15h1Zm209-.37-.71-.71,10.61-10.61.71.71Zm84.29-1.75-.71-.71,3.39-3.39v-9.79h1V889Zm-52.58-1.42-.71-.71,10.61-10.61.71.71Zm28.85-3.4-.71-.7,9.12-9.12v-1.69h1v2.1Zm-89.59-.54h-1v-15h1Zm17-6.32V868.23h1v10.31l1.6-1.6.71.71Zm26.17-.72-.71-.7,10.61-10.61.71.71Zm31.71-3.16-.71-.71,5.83-5.83V864.2h1V871Zm60.12-.88h-1v-15h1Zm-297-.46h-1v-15h1Zm-18-1h-1v-15h1Zm203.85-.65-.71-.7,10.6-10.61.71.71Zm93.15-.36h-1v-15h1Zm-18-2.44h-1v-15h1Zm-99-4h-1v-15h1Zm57.31-1.18-.7-.71,5.39-5.39v-7h1v7.37Zm-39.31-2.87h-1v-15h1Zm20-3.26-.71-.71,6.72-6.72v-5.08h1V853Zm43-.77h-1v-15h1Zm54-3h-1v-15h1Zm-297-.46h-1v-15h1Zm-18-1h-1v-15h1Zm297-1h-1v-15h1Zm-18-2.44h-1v-15h1Zm-36-3.27h-1V833h1Zm-63-.76h-1v-15h1Zm18-4h-1v-15h1Zm27-.77h-1v-15h1Zm36-3.26h-1v-15h1Zm54-3h-1v-15h1Zm-297-.46h-1v-15h1Zm-18-1h-1v-15h1Zm297-1h-1v-15h1Zm-18-2.44h-1V816.75h.06v-.5h.94Zm-36-3.27h-1V817.25h-3.21v-1h4.21Zm-63-.76h-1v-11h5v1h-4Zm18-4h-1v-6h-8v-1h9Zm27-.77h-1v-6.21h9.79v1H996.5Zm36-3.26h-1v-3h13.06v1H1032.5Zm53.5-2h-15v-1h15Zm-298,0H773v-1h15Z"/><path class="cls-8" d="M1323.56,409.67l-.7-.71,10.6-10.61.71.71Zm-4.24-2.39-10.61-10.61.71-.71L1320,406.57ZM1333,395.53l-10.61-10.61.71-.71,10.6,10.61Zm-27.85-2.39-10.61-10.61.71-.71,10.61,10.61Zm13.7-11.76-10.6-10.6.7-.71,10.61,10.61ZM1291,379l-10.61-10.6.71-.71,10.6,10.61Zm13.7-11.75-10.61-10.6.71-.71,10.61,10.61Zm-27.85-2.39-10.6-10.6.7-.71,10.61,10.61Zm13.71-11.75L1280,342.49l.71-.7,10.61,10.6Zm-27.85-2.39-10.46-10.46h-8.08v-1h8.5L1263.46,350Zm-23.54-10.46h-15v-1h15Zm-20,0h-15v-1h15Zm57.25-1.29-10.61-10.61.71-.71,10.6,10.61Zm-73-3h-1V321.25h1.29v1h-.29Zm58.81-11.14-2.56-2.57h-11v-1h11.37l2.86,2.86Zm-18.52-2.57h-15v-1h15Zm-20,0h-15v-1h15Z"/><path class="cls-8" d="M1185.5,610.25H1171v-1h13.5v-.5h1Zm-19.5,0h-15v-1h15Zm-16.5-3.5h-1v-15.5h8.5v1h-7.5Zm36-3h-1v-11.5H1182v-1h3.5Zm-8.5-11.5h-15v-1h15Z"/><path class="cls-8" d="M1184,340.25h-15v-1h15Zm-20,0h-15.5v-8.5h1v7.5H1164Zm21.5-4.5h-1v-13.5h-.5v-1h1.5Zm-36-9h-1v-5.5H1159v1h-9.5Zm29.5-4.5h-15v-1h15Z"/><path class="cls-8" d="M1392.5,520.25H1384v-1h7.5v-14.5h1Zm-13.5,0h-15v-1h15Zm-20,0h-3.5v-12.5h1v11.5h2.5Zm-2.5-17.5h-1v-1.5H1370v1h-13.5Zm33.5-.5h-15v-1h15Z"/><path class="cls-8" d="M1392.5,484.25H1384v-1h7.5v-14.5h1Zm-13.5,0h-15v-1h15Zm-20,0h-3.5v-12.5h1v11.5h2.5Zm-2.5-17.5h-1v-1.5H1370v1h-13.5Zm33.5-.5h-15v-1h15Z"/><path class="cls-8" d="M1239,700.25h-7v-1h7c2.66,0,5.33-.11,8-.32l.08,1C1244.39,700.14,1241.68,700.25,1239,700.25Zm-12,0h-15v-1h15Zm-20,0h-15v-1h15Zm-20,0h-15v-1h15Zm-20,0h-15v-1h15Zm85-.85-.13-1a98.87,98.87,0,0,0,14.58-3.06l.28,1A98.34,98.34,0,0,1,1252,699.4Zm-102.54-1.64h-1v-15h1Zm122.07-3-.33-.95a98.58,98.58,0,0,0,13.68-6l.46.89A99.43,99.43,0,0,1,1271.57,694.78Zm18.2-8.48-.51-.86a99,99,0,0,0,12.19-8.57l.64.77A100,100,0,0,1,1289.77,686.3Zm-50.77-4h-6v-1h6a80,80,0,0,0,8.91-.49l.11,1A84.47,84.47,0,0,1,1239,682.25Zm-11,0h-15v-1h15Zm-20,0h-15v-1h15Zm-20,0h-15v-1h15Zm-20,0h-15v-1h15Zm85-1.2-.17-1a80.24,80.24,0,0,0,14.36-3.9l.35.94A81.19,81.19,0,0,1,1253,681.05Zm19.18-5.86-.41-.91a82.32,82.32,0,0,0,13-7.31l.57.82A82.33,82.33,0,0,1,1272.18,675.19Zm33.71-.84-.67-.74a99.83,99.83,0,0,0,10.24-10.83l.78.64A100.84,100.84,0,0,1,1305.89,674.35Zm-16.54-9.55-.62-.79a81.06,81.06,0,0,0,10.8-10.24l.75.66A82.45,82.45,0,0,1,1289.35,664.8Zm30-5.36-.81-.59a100.06,100.06,0,0,0,7.88-12.65l.88.46A99.08,99.08,0,0,1,1319.31,659.44Zm-15.83-8.89-.79-.61a81.31,81.31,0,0,0,8-12.56l.89.45A82.13,82.13,0,0,1,1303.48,650.55Zm26-8.39-.91-.42a97.25,97.25,0,0,0,5.18-14l1,.27A99.32,99.32,0,0,1,1329.47,642.16Zm-15.75-8.88-.91-.4a79.81,79.81,0,0,0,4.66-14.13l1,.22A80,80,0,0,1,1313.72,633.28Zm22.23-10.1-1-.23a98.65,98.65,0,0,0,2.24-14.73l1,.07A99.31,99.31,0,0,1,1336,623.18ZM1319.42,614l-1-.16a81,81,0,0,0,1.07-13.13c0-.57,0-1.15,0-1.72l1,0c0,.58,0,1.16,0,1.74A81.89,81.89,0,0,1,1319.42,614Zm19-10.76-1,0c0-.83,0-1.66,0-2.5a100.28,100.28,0,0,0-.77-12.39l1-.13a100.56,100.56,0,0,1,.78,12.52C1338.5,601.59,1338.49,602.44,1338.47,603.28Zm-19.24-9.21a79.74,79.74,0,0,0-2.6-14.65l1-.27a81.09,81.09,0,0,1,2.62,14.84ZM1336,583.44a98.11,98.11,0,0,0-3.73-14.44l.94-.32a99.09,99.09,0,0,1,3.77,14.58Zm-20.81-8.76a80.65,80.65,0,0,0-6.12-13.57l.87-.49a81,81,0,0,1,6.19,13.73Zm15.35-10.34A98.25,98.25,0,0,0,1324,551l.86-.51a101.38,101.38,0,0,1,6.64,13.52Zm-24-7.47a81.68,81.68,0,0,0-9.25-11.66l.72-.69a82.46,82.46,0,0,1,9.36,11.81Zm14.84-10.14a99,99,0,0,0-9.12-11.8l.75-.66a101.14,101.14,0,0,1,9.21,11.91Zm-27.63-5a81,81,0,0,0-11.8-9.07l.54-.85a81.72,81.72,0,0,1,11.94,9.19Zm15.09-10.4a100.52,100.52,0,0,0-11.28-9.74l.6-.81a100.56,100.56,0,0,1,11.39,9.85Zm-31.17-1.2a80.21,80.21,0,0,0-13.66-5.92l.31-1a81.44,81.44,0,0,1,13.83,6Zm-18.42-7.31a79.92,79.92,0,0,0-14.69-2.37l.07-1a81.89,81.89,0,0,1,14.87,2.4Zm-19.65-2.56h-15v-1h15Zm93.86,0h-15v-1h15Zm-20,0h-15v-1h15Zm-93.86,0h-15v-1h15Zm-20,0h-15v-1h15Zm-20,0h-15v-1h15Zm-20,0h-11v-5h1v4h10Zm179-.88h-1v-15h1Zm-189-9.09h-1v-9h7v1h-6Zm171.71-8H1315v-1h3.78l-6.22-6.22.71-.71Zm-11.2,0h-15v-1h15Zm-48.36,0h-15v-1h15Zm-20,0h-4.4l-7.79-7.79.71-.7,7.49,7.49h4Zm-28.44,0h-12.74v-1h10.32l-1.6-1.6.71-.71Zm-17.74,0h-15v-1h15Zm-20,0h-15v-1h15Zm89.72-.61L1254.58,491l.71-.71,10.6,10.61Zm24.89-.56-10.61-10.61.71-.71,10.6,10.61Zm48.42-1.71h-1V494.5l-6.87-6.87.7-.71,7.17,7.17Zm-132.85-3.26-10.6-10.6.7-.71,10.61,10.61ZM1309,491.49l-10.61-10.6.71-.71,10.6,10.61Zm-83.11-.56-10.61-10.61.71-.7,10.6,10.6ZM1251,487.5l-10.6-10.6.7-.71,10.61,10.6Zm24.89-.56-10.6-10.61.71-.71,10.6,10.61Zm51.16-2.85-10.6-10.6.7-.71,10.61,10.61ZM1191.51,482l-6.72-6.72h-5.08v-1h5.5l7,7Zm103.38-4.62-10.6-10.61.7-.7,10.61,10.6Zm-83.1-.56-10.61-10.61.71-.71,10.6,10.61Zm-37.08-1.54h-15v-1h15Zm-20,0h-6.21v-9.79h1v8.79h5.21Zm82.19-1.89-10.61-10.61.71-.7,10.61,10.6Zm24.89-.57-10.6-10.6.7-.71,10.61,10.61ZM1313,470l-10.61-10.61.71-.7,10.61,10.6Zm-32.2-6.74-10.61-10.61.71-.7,10.61,10.6Zm-83.11-.57-5.39-5.39h-7v-1h7.37l5.69,5.69Zm-48.14-2.18h-1v-4.21h11.79v1H1149.5Zm73.26-1.24-10.61-10.61.71-.71,10.61,10.61Zm24.89-.57L1237,448l.71-.7,10.61,10.6Zm-67.36-1.4h-15v-1h15Zm118.52-1.44L1288.2,445.2l.71-.7,10.6,10.6Zm-32.2-6.74L1256,438.46l.71-.71,10.61,10.61Zm-58-4-5.83-5.83h-6.35v-1h6.77l6.11,6.12Zm24.89-.57L1222.9,433.9l.71-.7,10.61,10.6Zm51.16-2.84-10.61-10.61.71-.71,10.6,10.61Zm-93.23-2.42h-15v-1h15Zm-20,0h-15v-1h15Zm-20,0h-2.94V426.19h1v12.06h1.94Zm101-4.33-10.61-10.6.71-.71,10.6,10.61Zm-33.1-4.55-9.12-9.12h-1.69v-1h2.1l9.41,9.41Zm51.15-2.85-10.6-10.6.7-.71,10.61,10.61Zm-67-6.27h-15v-1h15Zm-20,0h-15v-1h15Zm-20,0H1149v-.06h-.5v-.94h15.06Zm74.76-.47-10.6-10.6.7-.71L1239,420.08Zm18.06-7.4-10.61-10.6.71-.71,10.61,10.61Zm-32.2-6.74-3.39-3.39H1211v-1h10.21l3.68,3.68ZM1206,403.25h-15v-1h15Zm-20,0h-15v-1h15Zm-20,0h-15v-1h15Zm-16.5-3.5h-1v-15h1Zm92.74-.51-10.61-10.61.71-.7,10.61,10.6Zm-13.79-14h-15v-1h15Zm-20,0h-15v-1h15Zm-20,0h-15v-1h15Zm-20,0h-15v-1h15Z"/><path class="cls-8" d="M702.56,409.67l-.71-.71,10.61-10.6.71.7Zm-4.24-2.39-10.61-10.61.71-.71L699,406.57ZM712,395.53l-10.6-10.61.7-.71,10.61,10.61Zm-27.84-2.39-10.61-10.61.71-.71,10.6,10.61Zm13.7-11.76-10.61-10.6.71-.71,10.61,10.61ZM670,379l-10.6-10.6.7-.71,10.61,10.61Zm13.71-11.75-10.61-10.6.71-.71,10.61,10.61Zm-27.85-2.39-10.61-10.6.71-.71,10.61,10.61ZM669.6,353.1,659,342.49l.71-.7,10.6,10.6Zm-27.85-2.39-10.46-10.46h-8.08v-1h8.49L642.46,350Zm-23.54-10.46h-15v-1h15Zm-20,0h-15v-1h15ZM655.45,339l-10.6-10.61.7-.71,10.61,10.61Zm-73-3h-1V321.25h1.29v1h-.29Zm58.81-11.14-2.56-2.57h-11v-1h11.37l2.86,2.86Zm-18.52-2.57h-15v-1h15Zm-20,0h-15v-1h15Z"/><path class="cls-8" d="M564.5,610.25H550v-1h13.5v-.5h1Zm-19.5,0H530v-1h15Zm-16.5-3.5h-1v-15.5H536v1h-7.5Zm36-3h-1v-11.5H561v-1h3.5Zm-8.5-11.5H541v-1h15Z"/><path class="cls-8" d="M563,340.25H548v-1h15Zm-20,0H527.5v-8.5h1v7.5H543Zm21.5-4.5h-1v-13.5H563v-1h1.5Zm-36-9h-1v-5.5H538v1h-9.5Zm29.5-4.5H543v-1h15Z"/><path class="cls-8" d="M771.5,520.25H763v-1h7.5v-14.5h1Zm-13.5,0H743v-1h15Zm-20,0h-3.5v-12.5h1v11.5H738Zm-2.5-17.5h-1v-1.5H749v1H735.5Zm33.5-.5H754v-1h15Z"/><path class="cls-8" d="M771.5,484.25H763v-1h7.5v-14.5h1Zm-13.5,0H743v-1h15Zm-20,0h-3.5v-12.5h1v11.5H738Zm-2.5-17.5h-1v-1.5H749v1H735.5Zm33.5-.5H754v-1h15Z"/><path class="cls-8" d="M618,700.25h-7v-1h7c2.65,0,5.33-.11,8-.32l.08,1C623.38,700.14,620.68,700.25,618,700.25Zm-12,0H591v-1h15Zm-20,0H571v-1h15Zm-20,0H551v-1h15Zm-20,0H531v-1h15Zm85-.85-.13-1a99.27,99.27,0,0,0,14.59-3.06l.28,1A98.73,98.73,0,0,1,631,699.4ZM528.5,697.76h-1v-15h1Zm122.07-3-.33-.95a96.77,96.77,0,0,0,13.67-6l.47.89A100,100,0,0,1,650.57,694.78Zm18.19-8.48-.51-.86a99.1,99.1,0,0,0,12.2-8.57l.64.77A99.36,99.36,0,0,1,668.76,686.3Zm-50.76-4h-6v-1h6a80.22,80.22,0,0,0,8.91-.49l.11,1A84.61,84.61,0,0,1,618,682.25Zm-11,0H592v-1h15Zm-20,0H572v-1h15Zm-20,0H552v-1h15Zm-20,0H532v-1h15Zm85-1.2-.17-1a80.14,80.14,0,0,0,14.35-3.9l.36.94A81.42,81.42,0,0,1,632,681.05Zm19.18-5.86-.41-.91a81.78,81.78,0,0,0,13-7.31l.57.82A82.23,82.23,0,0,1,651.18,675.19Zm33.71-.84-.68-.74a99,99,0,0,0,10.25-10.83l.77.64A101.73,101.73,0,0,1,684.89,674.35Zm-16.54-9.55-.62-.79a81.67,81.67,0,0,0,10.8-10.24l.75.66A82.45,82.45,0,0,1,668.35,664.8Zm29.95-5.36-.8-.59a98.86,98.86,0,0,0,7.87-12.65l.89.47A99.73,99.73,0,0,1,698.3,659.44Zm-15.82-8.89-.79-.61a81.25,81.25,0,0,0,8-12.56l.89.45A82.83,82.83,0,0,1,682.48,650.55Zm26-8.39-.91-.42a98.41,98.41,0,0,0,5.17-14l1,.27A99.28,99.28,0,0,1,708.47,642.16Zm-15.75-8.88-.91-.4a80.64,80.64,0,0,0,4.66-14.13l1,.22A81.62,81.62,0,0,1,692.72,633.28ZM715,623.18l-1-.23a98.65,98.65,0,0,0,2.24-14.73l1,.07A99.31,99.31,0,0,1,715,623.18ZM698.42,614l-1-.16a81,81,0,0,0,1.07-13.13c0-.57,0-1.15,0-1.72l1,0c0,.58,0,1.16,0,1.74A83,83,0,0,1,698.42,614Zm19.05-10.76-1,0c0-.83,0-1.66,0-2.5a98.37,98.37,0,0,0-.78-12.39l1-.12a98.41,98.41,0,0,1,.79,12.51C717.5,601.59,717.49,602.44,717.47,603.28Zm-19.24-9.21a80.59,80.59,0,0,0-2.6-14.65l1-.27A82,82,0,0,1,699.22,594ZM715,583.44A97.19,97.19,0,0,0,711.24,569l1-.32A99.09,99.09,0,0,1,716,583.26Zm-20.8-8.77a80.91,80.91,0,0,0-6.12-13.56l.87-.49a81.74,81.74,0,0,1,6.19,13.73Zm15.35-10.33A98.31,98.31,0,0,0,702.94,551l.86-.51A99.72,99.72,0,0,1,710.44,564Zm-24.06-7.47a80.91,80.91,0,0,0-9.24-11.66l.72-.69a82.46,82.46,0,0,1,9.36,11.81Zm14.85-10.14a99.13,99.13,0,0,0-9.12-11.79l.74-.67a100.16,100.16,0,0,1,9.22,11.91Zm-27.63-5a81,81,0,0,0-11.8-9.07l.54-.85A82.8,82.8,0,0,1,673.36,541Zm15.09-10.4a100.52,100.52,0,0,0-11.28-9.74l.59-.81a100.8,100.8,0,0,1,11.4,9.85Zm-31.17-1.2a80.56,80.56,0,0,0-13.66-5.92l.31-1a81.44,81.44,0,0,1,13.83,6Zm-18.43-7.31a80,80,0,0,0-14.68-2.37l.06-1a82,82,0,0,1,14.88,2.4Zm-19.65-2.56h-15v-1h15Zm93.86,0h-15v-1h15Zm-20,0h-15v-1h15Zm-93.85,0h-15v-1h15Zm-20,0h-15v-1h15Zm-20,0h-15v-1h15Zm-20,0h-11v-5h1v4h10Zm179-.88h-1v-15h1Zm-189-9.09h-1v-9h7v1h-6Zm171.7-8H694v-1h3.79L691.57,495l.7-.71Zm-11.2,0H674v-1h15Zm-48.35,0h-15v-1h15Zm-20,0h-4.4l-7.79-7.79.71-.7,7.49,7.49h4Zm-28.45,0H579.47v-1h10.32l-1.6-1.6.7-.71Zm-17.73,0h-15v-1h15Zm-20,0h-15v-1h15Zm89.71-.61L633.58,491l.7-.71,10.61,10.61Zm24.89-.56-10.6-10.61.7-.71,10.61,10.61Zm48.43-1.71h-1V494.5l-6.88-6.87.71-.71,7.17,7.17Zm-132.85-3.26-10.6-10.6.7-.71,10.61,10.61ZM688,491.49l-10.6-10.6.7-.71,10.61,10.61Zm-83.11-.56-10.6-10.61.7-.7,10.61,10.6ZM630,487.5l-10.61-10.6.71-.71,10.61,10.6Zm24.89-.56-10.6-10.61.7-.71,10.61,10.61Zm51.16-2.85-10.61-10.6.71-.71,10.61,10.61ZM570.51,482l-6.72-6.72h-5.08v-1h5.49l7,7Zm103.38-4.62-10.61-10.61.71-.7,10.61,10.6Zm-83.11-.56-10.6-10.61.7-.71,10.61,10.61Zm-37.07-1.54h-15v-1h15Zm-20,0H527.5v-9.79h1v8.79h5.21Zm82.19-1.89-10.61-10.61.71-.7,10.61,10.6Zm24.89-.57-10.61-10.6.71-.71,10.61,10.61ZM692,470l-10.61-10.61.71-.7,10.6,10.6Zm-32.2-6.74L649.14,452.6l.71-.7,10.61,10.6Zm-83.11-.57-5.39-5.39h-7v-1h7.37l5.69,5.69Zm-48.14-2.18h-1v-4.21h11.79v1H528.5Zm73.26-1.24-10.61-10.61.71-.71,10.6,10.61Zm24.89-.57L616,448l.71-.7,10.6,10.6Zm-67.36-1.4h-15v-1h15Zm118.52-1.44L667.2,445.2l.71-.7,10.6,10.6Zm-32.2-6.74L635,438.46l.71-.71,10.6,10.61Zm-58-4-5.82-5.83h-6.35v-1h6.76l6.12,6.12Zm24.9-.57L601.9,433.9l.71-.7,10.6,10.6Zm51.15-2.84-10.6-10.61.7-.71L664.37,441Zm-93.22-2.42h-15v-1h15Zm-20,0h-15v-1h15Zm-20,0H527.5V426.19h1v12.06h1.94Zm101-4.33-10.6-10.6.7-.71,10.61,10.61Zm-33.1-4.55-9.11-9.12h-1.7v-1h2.11l9.41,9.41Zm51.16-2.85-10.61-10.6.71-.71,10.61,10.61Zm-67-6.27h-15v-1h15Zm-20,0h-15v-1h15Zm-20,0H528v-.06h-.5v-.94h15Zm74.77-.47-10.61-10.6.71-.71L618,420.08Zm18.06-7.4-10.61-10.6.71-.71,10.61,10.61Zm-32.2-6.74-3.39-3.39H590v-1h10.2l3.69,3.68ZM585,403.25H570v-1h15Zm-20,0H550v-1h15Zm-20,0H530v-1h15Zm-16.5-3.5h-1v-15h1Zm92.74-.51-10.61-10.61.71-.7,10.6,10.6Zm-13.79-14h-15v-1h15Zm-20,0h-15v-1h15Zm-20,0h-15v-1h15Zm-20,0h-15v-1h15Z"/><path class="cls-9" d="M790.9,698a17.26,17.26,0,0,1,2.52,4.8,15,15,0,0,1,.85,4.79,14.61,14.61,0,0,1-.85,5.13,11.07,11.07,0,0,1-2.43,3.91,10.82,10.82,0,0,1-3.87,2.52,14,14,0,0,1-5.13.9,13.06,13.06,0,0,1-4.32-.67,9.11,9.11,0,0,1-3.31-2,9,9,0,0,1-2.14-3.22,11.85,11.85,0,0,1-.76-4.43,12.6,12.6,0,0,1,.67-4.21,22.5,22.5,0,0,1,2-4.07l3.2,1.3a18.64,18.64,0,0,0-1.49,3.49,9.89,9.89,0,0,0-.45,2.68,5.48,5.48,0,0,0,1.83,4.43,7.82,7.82,0,0,0,5.24,1.55,8.22,8.22,0,0,0,5.58-1.82,6.31,6.31,0,0,0,2.11-5.06,9.4,9.4,0,0,0-.72-3.31,17.17,17.17,0,0,0-2-3.71Zm-8.69,1.4-3.42-2.88,2.75-3.24L785,696.2Z"/><path class="cls-9" d="M803.54,712.53l-4.23,1v-29.7l4.23-2Z"/><path class="cls-9" d="M819.29,713.25a8.25,8.25,0,0,1-1.44-.11,2.56,2.56,0,0,1-1.26-.61,9.49,9.49,0,0,1-1.17,3.49,16.43,16.43,0,0,1-2.43,3.26,29.17,29.17,0,0,1-3.48,3.11q-2,1.53-4.3,3l-3.47-3.28q2.47-1.49,4.55-3a34.88,34.88,0,0,0,3.51-2.84,16.24,16.24,0,0,0,2.25-2.52,3.79,3.79,0,0,0,.81-2.07,6.63,6.63,0,0,0-.81-2.58A26.87,26.87,0,0,0,810,705.6l3.42-3.42c.63,1.08,1.18,2,1.64,2.75a16.15,16.15,0,0,0,1.28,1.82,4.06,4.06,0,0,0,1.17,1,2.73,2.73,0,0,0,1.31.32h1.8v5.17Z"/><path class="cls-9" d="M832.34,706.86a2.07,2.07,0,0,0-.2-.76,11.28,11.28,0,0,0-.58-1.15c-.26-.43-.54-.89-.86-1.37s-.65-1-1-1.4l3.37-3.55a14.43,14.43,0,0,1,2.52,4.16,11,11,0,0,1,.81,3.85,6.44,6.44,0,0,1-1.8,4.93q-1.8,1.68-5.53,1.68H820.6q-.5,0-.81-.69a4.62,4.62,0,0,1-.32-1.87,4.76,4.76,0,0,1,.32-1.89q.32-.72.81-.72h8.5a7.83,7.83,0,0,0,2.36-.29C832.05,707.59,832.34,707.28,832.34,706.86Zm-8.82,15.44-3.28-2.79,2.61-3.11,3.33,2.75Zm5.76,0L826,719.51l2.61-3.11,3.28,2.75Z"/><path class="cls-9" d="M845.66,712.53l-4.23,1v-29.7l4.23-2Z"/><path class="cls-9" d="M868.48,708.84a9.3,9.3,0,0,1-.9,4,15.47,15.47,0,0,1-2.46,3.66,27.6,27.6,0,0,1-3.66,3.42c-1.42,1.11-2.94,2.19-4.59,3.24l-3.47-3.28q2.48-1.49,4.55-3a34.88,34.88,0,0,0,3.51-2.84,16.24,16.24,0,0,0,2.25-2.52,3.79,3.79,0,0,0,.81-2.07,3.87,3.87,0,0,0-.23-1.14,12.44,12.44,0,0,0-.61-1.53,14.39,14.39,0,0,0-.92-1.71c-.36-.59-.73-1.17-1.12-1.74L865,700a21.22,21.22,0,0,1,2.68,4.93A12.1,12.1,0,0,1,868.48,708.84ZM864,697.37l-3.42-2.88,2.74-3.24,3.42,2.88Z"/><path class="cls-9" d="M877.79,712.53l-4.23,1v-29.7l4.23-2Z"/><path class="cls-9" d="M905.92,713.25a6.69,6.69,0,0,1-4.33-1.21,7.49,7.49,0,0,1-2.25-3.74,8.29,8.29,0,0,1-2.36,1.08,9.85,9.85,0,0,1-2.81.41,4.57,4.57,0,0,1-3.26-1.15,4.15,4.15,0,0,1-1.24-3.22,7.79,7.79,0,0,1,1.69-4.83,18.21,18.21,0,0,1,5.51-4.44l-.54-2.29,3.6-2.66,2.16,11.25c.21,1.08.4,2,.58,2.7a5.43,5.43,0,0,0,.72,1.74,2.44,2.44,0,0,0,1.2.92,5.78,5.78,0,0,0,1.95.27h.68v5.17Zm-8.38-13.09A13.86,13.86,0,0,0,896,701a14.35,14.35,0,0,0-1.4,1,6.63,6.63,0,0,0-1.05,1.08,2.5,2.5,0,0,0-.52,1.1.8.8,0,0,0,.49.75,2.89,2.89,0,0,0,1.26.24,6.61,6.61,0,0,0,1-.09,10.26,10.26,0,0,0,1.1-.24,6.63,6.63,0,0,0,.94-.36,3.92,3.92,0,0,0,.63-.39Z"/><path class="cls-9" d="M921,713.25a10.92,10.92,0,0,1-3.26-.49,8.68,8.68,0,0,1-2.9-1.53,11,11,0,0,1-3,1.53,9.12,9.12,0,0,1-2.79.49h-1.84q-.5,0-.81-.69a4.62,4.62,0,0,1-.32-1.87,4.76,4.76,0,0,1,.32-1.89q.32-.72.81-.72h1.08c.48,0,.91,0,1.28-.05a12.2,12.2,0,0,0,1.28-.18A7.13,7.13,0,0,1,910,706a6.24,6.24,0,0,1-.3-1.83,6.56,6.56,0,0,1,.61-2.72,9.14,9.14,0,0,1,1.58-2.38,7.93,7.93,0,0,1,2.18-1.71,5,5,0,0,1,2.38-.66,3.85,3.85,0,0,1,2,.57,5.43,5.43,0,0,1,1.62,1.48,7.82,7.82,0,0,1,1.08,2.14,7.92,7.92,0,0,1,.41,2.52,7,7,0,0,1-.41,2.27,5.71,5.71,0,0,1-1.53,2.27c.51.06,1,.1,1.4.12l1.3,0h1.21v5.17ZM913.47,694l-3.28-2.75,2.61-3.1,3.33,2.7Zm2.57,7.51a2.21,2.21,0,0,0-.95.25,4.32,4.32,0,0,0-.9.61,3.22,3.22,0,0,0-.65.79,1.61,1.61,0,0,0-.25.78,2.83,2.83,0,0,0,.57,1.56,5.23,5.23,0,0,0,1.32,1.37,6.78,6.78,0,0,0,2.05-1.42,2.13,2.13,0,0,0,.74-1.28,3,3,0,0,0-.15-.88,3.39,3.39,0,0,0-.43-.85,3,3,0,0,0-.61-.66A1.15,1.15,0,0,0,916,701.55Zm3.19-7.51L916,691.29l2.61-3.1,3.28,2.7Z"/><path class="cls-9" d="M936.15,713.25a7.23,7.23,0,0,1-3.06-.58,5,5,0,0,1-2.11-1.94,5.86,5.86,0,0,1-2.25,1.92,7.75,7.75,0,0,1-3.24.6h-1.94c-.33,0-.59-.23-.8-.69a4.62,4.62,0,0,1-.32-1.87,4.76,4.76,0,0,1,.32-1.89c.21-.48.47-.72.8-.72h1.85a13.72,13.72,0,0,0,1.87-.11,2.89,2.89,0,0,0,1.21-.45,2,2,0,0,0,.7-.95,5.21,5.21,0,0,0,.27-1.55v-1.89l3.73-1a27,27,0,0,0,.12,2.79,5.08,5.08,0,0,0,.47,1.83,2.11,2.11,0,0,0,1,1,4.87,4.87,0,0,0,1.85.29h2.11v5.17Zm-8.14,9-3.29-2.79,2.61-3.11,3.34,2.75Zm5.76,0-3.29-2.79,2.61-3.11,3.29,2.75Z"/><path class="cls-9" d="M949.34,713.25a5.24,5.24,0,0,1-2.72-.63,4.59,4.59,0,0,1-1.69-1.75,5.26,5.26,0,0,1-4.55,2.38h-1.62c-.33,0-.59-.22-.8-.67a4.46,4.46,0,0,1-.32-1.85,4.76,4.76,0,0,1,.32-1.89c.21-.48.47-.72.8-.72h1.17a3.12,3.12,0,0,0,2.5-.76A3.8,3.8,0,0,0,943,705c0-.27,0-.85,0-1.75s0-2.2-.07-3.89-.08-3.82-.14-6.37-.13-5.61-.22-9.18l4.23-2v19.94c0,1.2,0,2.21.11,3a7.42,7.42,0,0,0,.41,2,2.13,2.13,0,0,0,.85,1.08,3,3,0,0,0,1.51.33h1.71v5.13Z"/><path class="cls-9" d="M969.23,710.51a6.32,6.32,0,0,1-2.07,2,6.12,6.12,0,0,1-3.15.72,7.34,7.34,0,0,1-3.13-.56,4.74,4.74,0,0,1-2-2.14,5.53,5.53,0,0,1-2.13,2.07,5.66,5.66,0,0,1-2.59.63h-2.7q-.49,0-.81-.69a4.62,4.62,0,0,1-.32-1.87,4.76,4.76,0,0,1,.32-1.89q.31-.72.81-.72h2.52a5,5,0,0,0,2.36-.52,1.85,1.85,0,0,0,1-1.82v-2.61l3.74-1c0,1.11,0,2,.11,2.79a5.82,5.82,0,0,0,.45,1.83,2.08,2.08,0,0,0,.95,1,3.73,3.73,0,0,0,1.59.29,6.72,6.72,0,0,0,1.78-.2,2,2,0,0,0,1.55-1.67,7.67,7.67,0,0,0,.14-1.55v-1.53l3.69-1a13.19,13.19,0,0,0,.56,4.48,2.31,2.31,0,0,0,2.41,1.42c1.77,0,2.65-.38,2.65-1.13a2.43,2.43,0,0,0-.2-.81,8.78,8.78,0,0,0-.56-1.19c-.24-.43-.52-.89-.83-1.37s-.66-1-1-1.4l3.33-3.55a14.43,14.43,0,0,1,2.52,4.16,11,11,0,0,1,.81,3.85,7.23,7.23,0,0,1-.49,2.72,5.78,5.78,0,0,1-1.4,2.09,6.31,6.31,0,0,1-2.11,1.33,7.29,7.29,0,0,1-2.7.47Q970.63,713.25,969.23,710.51Z"/><path class="cls-9" d="M993.17,713.25a6.38,6.38,0,0,1-3.38-.78,5.4,5.4,0,0,1-1.93-2.07,8.82,8.82,0,0,1-.9-2.93,30.48,30.48,0,0,1-.27-3.35c-.06-1.38-.11-2.93-.14-4.64s-.06-3.46-.11-5.26-.1-3.6-.18-5.4-.17-3.48-.29-5l4.18-2c0,1.68,0,3.42,0,5.2s0,3.56.09,5.33.09,3.53.13,5.27.08,3.39.11,5c0,.72,0,1.42,0,2.09a6.37,6.37,0,0,0,.31,1.8,2.52,2.52,0,0,0,.88,1.24,3.05,3.05,0,0,0,1.82.45h1.8v5.17Z"/><path class="cls-9" d="M996.9,722.57l-3.42-2.93,2.75-3.24,3.42,2.88Zm4.14-15.71a2.07,2.07,0,0,0-.2-.76,9.53,9.53,0,0,0-.58-1.15c-.26-.43-.54-.89-.86-1.37a17.11,17.11,0,0,0-1-1.4l3.37-3.55a14.43,14.43,0,0,1,2.52,4.16,11,11,0,0,1,.81,3.85,6.44,6.44,0,0,1-1.8,4.93q-1.8,1.68-5.53,1.68h-2.39q-.5,0-.81-.69a4.64,4.64,0,0,1-.31-1.87,4.78,4.78,0,0,1,.31-1.89q.32-.72.81-.72h2.39a8.07,8.07,0,0,0,2.38-.29Q1001,707.49,1001,706.86Z"/><path class="cls-9" d="M869,743.22a26.4,26.4,0,0,1,2.31,4.74,26,26,0,0,1,1.23,4.76,40.93,40.93,0,0,1,.49,5.06c.06,1.74.09,3.61.09,5.6h-1.44c0-1.93-.1-3.71-.24-5.34a38.72,38.72,0,0,0-.65-4.59,25,25,0,0,0-1.19-4.1,28.67,28.67,0,0,0-1.86-3.83Z"/><path class="cls-9" d="M878.2,743.22c.46.89.87,1.63,1.22,2.22a10.74,10.74,0,0,0,1,1.45,3,3,0,0,0,1,.79,2.57,2.57,0,0,0,1.13.24A1.6,1.6,0,0,0,884,747a6.7,6.7,0,0,0,.51-3l1.48-.38a9.44,9.44,0,0,0,.74,3.32,1.65,1.65,0,0,0,1.53,1,1.55,1.55,0,0,0,1.4-1.06,7.85,7.85,0,0,0,.49-3.13l1.7-.48q0,3.91-1,5.59a3,3,0,0,1-2.72,1.69,2.63,2.63,0,0,1-1.73-.54,3.39,3.39,0,0,1-1-1.32,3,3,0,0,1-2.84,2,2.72,2.72,0,0,1-.78-.11A1.62,1.62,0,0,1,881,750a24.65,24.65,0,0,1,1.13,6.09q.23,3.3.22,7.26h-1.44c0-1.93-.1-3.71-.24-5.34a34.71,34.71,0,0,0-.68-4.58,26.14,26.14,0,0,0-1.23-4.08,26.43,26.43,0,0,0-1.86-3.83Z"/><path class="cls-9" d="M904.15,763.54a10.05,10.05,0,0,1-1.23-2.13,16.54,16.54,0,0,1-.83-2.52,20.4,20.4,0,0,1-.49-2.78c-.11-1-.17-2-.19-2.93l-.83,0c-.33,0-.64,0-.93,0a12.6,12.6,0,0,1-2-.14,4.08,4.08,0,0,1-1.45-.52,2.49,2.49,0,0,1-.91-1,3.89,3.89,0,0,1-.31-1.67,7.06,7.06,0,0,1,.37-2.17,9.72,9.72,0,0,1,1-2.16,6.76,6.76,0,0,1,1.47-1.66,2.76,2.76,0,0,1,4.36,1.08,13.06,13.06,0,0,1,.88,5.6c0,.88,0,1.8,0,2.74a21.92,21.92,0,0,0,.28,2.81,14.65,14.65,0,0,0,.73,2.69,8.49,8.49,0,0,0,1.37,2.41Zm-2.71-12.63a17.66,17.66,0,0,0-.11-2.14,8.67,8.67,0,0,0-.34-1.69,2.94,2.94,0,0,0-.62-1.1,1.23,1.23,0,0,0-.91-.39,1.76,1.76,0,0,0-1.06.39,4.08,4.08,0,0,0-.91,1,5.16,5.16,0,0,0-.63,1.29,4.09,4.09,0,0,0-.24,1.3,1.31,1.31,0,0,0,.82,1.06,5.6,5.6,0,0,0,2.21.33h1C900.92,750.94,901.19,750.93,901.44,750.91Z"/><path class="cls-9" d="M910.86,749.9A24.6,24.6,0,0,1,912,756c.14,2.19.22,4.64.22,7.35H910.8q0-2.89-.24-5.34a34.71,34.71,0,0,0-.68-4.58,27.25,27.25,0,0,0-1.22-4.08,28.67,28.67,0,0,0-1.86-3.83l1.26-2.33c.44.84.85,1.56,1.23,2.15a9.14,9.14,0,0,0,1.11,1.44,3.75,3.75,0,0,0,1.17.84,3.54,3.54,0,0,0,1.43.27q2.78,0,2.77-4.22l1.74-.48a17.48,17.48,0,0,1-.24,3,7.51,7.51,0,0,1-.77,2.33,3.78,3.78,0,0,1-1.42,1.49,4.18,4.18,0,0,1-2.17.52,3.89,3.89,0,0,1-1.07-.15A2.7,2.7,0,0,1,910.86,749.9Z"/><path class="cls-9" d="M958.21,762.75a5.1,5.1,0,0,1-2.35-.47,3,3,0,0,1-1.4-1.64,3.65,3.65,0,0,1-3.41,2.11,3.19,3.19,0,0,1-1.82-.52,3.41,3.41,0,0,1-1.26-1.62,4,4,0,0,1-3.69,2.14,3,3,0,0,1-2.36-.88,5.51,5.51,0,0,1,.08.71,5,5,0,0,1,0,.68,9.2,9.2,0,0,1-.72,3.21,7.38,7.38,0,0,1-1.75,2.49,7.87,7.87,0,0,1-2.69,1.61,10.68,10.68,0,0,1-3.56.56,8.69,8.69,0,0,1-3-.47,6.55,6.55,0,0,1-2.3-1.37,6,6,0,0,1-1.49-2.21,7.63,7.63,0,0,1-.54-2.94,9.27,9.27,0,0,1,.41-2.84,12,12,0,0,1,1.29-2.67l1.45.72a10.61,10.61,0,0,0-1,2.16,7,7,0,0,0-.34,2.13,4.72,4.72,0,0,0,1.51,3.71,6.07,6.07,0,0,0,4.19,1.36,8.16,8.16,0,0,0,2.74-.43,5.85,5.85,0,0,0,2.08-1.21,5.36,5.36,0,0,0,1.32-1.91,6.18,6.18,0,0,0,.47-2.47,7.76,7.76,0,0,0-.48-2.49,13.92,13.92,0,0,0-1.34-2.71l1.76-1.51,1,1.81a9.3,9.3,0,0,0,.88,1.37,3.5,3.5,0,0,0,1,.87,2.63,2.63,0,0,0,1.32.3,2.51,2.51,0,0,0,2.93-2.93v-1.07l1.79-.44a7.83,7.83,0,0,0,.54,3.43,1.82,1.82,0,0,0,1.73,1,2.54,2.54,0,0,0,1.67-.57,2.6,2.6,0,0,0,.76-2v-1.45l1.79-.44a12.89,12.89,0,0,0,.13,2,3.68,3.68,0,0,0,.46,1.38,1.93,1.93,0,0,0,.93.81,4.13,4.13,0,0,0,1.54.25h1.13v2.42Z"/><path class="cls-9" d="M968.63,762.75a5.12,5.12,0,0,1-2.35-.47,3.31,3.31,0,0,1-1.46-1.61,4.08,4.08,0,0,1-1.56,1.58,4.84,4.84,0,0,1-2.35.5h-1.29a.61.61,0,0,1-.53-.34,1.61,1.61,0,0,1-.22-.89,1.5,1.5,0,0,1,.22-.86.62.62,0,0,1,.53-.33h1.29a3.76,3.76,0,0,0,2.29-.58,3,3,0,0,0,.83-2.23l0-1.19,1.77-.44A15.52,15.52,0,0,0,966,758a3.35,3.35,0,0,0,.48,1.37,1.93,1.93,0,0,0,1,.74,5,5,0,0,0,1.59.22h1.23v2.42ZM963,768.52,961.1,767l1.36-1.6,1.82,1.54Zm3.75,0L964.88,767l1.39-1.6,1.79,1.54Z"/><path class="cls-9" d="M982.81,760.61a4.3,4.3,0,0,1-1.48,1.61,4.38,4.38,0,0,1-2.3.53,4.8,4.8,0,0,1-2.26-.45,3.43,3.43,0,0,1-1.37-1.66,4.16,4.16,0,0,1-1.52,1.61,4.06,4.06,0,0,1-2,.5h-1.63a.64.64,0,0,1-.54-.34,1.61,1.61,0,0,1-.22-.89,1.5,1.5,0,0,1,.22-.86.65.65,0,0,1,.54-.33h1.51a3.51,3.51,0,0,0,2-.57,2.39,2.39,0,0,0,.88-2v-1.45l1.76-.44a13.89,13.89,0,0,0,.13,2.11,3.68,3.68,0,0,0,.44,1.37,1.82,1.82,0,0,0,.82.74,3.24,3.24,0,0,0,1.26.22,3.1,3.1,0,0,0,2.22-.66,3.29,3.29,0,0,0,.74-2.27v-1.07l1.76-.44a7.46,7.46,0,0,0,.57,3.43,2.15,2.15,0,0,0,2,1,4.11,4.11,0,0,0,.77-.08,2.77,2.77,0,0,0,.72-.24,1.49,1.49,0,0,0,.54-.41.87.87,0,0,0,.2-.6,4.42,4.42,0,0,0-.39-1.37,11,11,0,0,0-1.31-2.22l1.64-1.7a8.37,8.37,0,0,1,1.48,2.59,7.23,7.23,0,0,1,.47,2.39,3.8,3.8,0,0,1-1.21,3,4.36,4.36,0,0,1-3,1.08,4.05,4.05,0,0,1-2.2-.53A3.28,3.28,0,0,1,982.81,760.61Z"/><path class="cls-9" d="M998.68,741.46,992,743.22V742l1.77-.6a2.06,2.06,0,0,1-.69-.82,2.15,2.15,0,0,1-.23-.91,2.37,2.37,0,0,1,.23-1,2.42,2.42,0,0,1,.59-.82,2.92,2.92,0,0,1,.87-.55,2.52,2.52,0,0,1,1-.21,3.19,3.19,0,0,1,2,.69l-.35,1a5.23,5.23,0,0,0-.81-.22,4.83,4.83,0,0,0-.8-.06,1.77,1.77,0,0,0-1,.28.84.84,0,0,0-.43.73,1.09,1.09,0,0,0,.51.88,1.83,1.83,0,0,0,1.13.38,12,12,0,0,0,3-.79Zm.32,21.29a4.37,4.37,0,0,1-2.38-.53,3.11,3.11,0,0,1-1.21-1.39,5.53,5.53,0,0,1-.46-2c-.05-.74-.09-1.48-.11-2.24,0-1.07-.07-2.06-.08-3l0-2.69c0-.89,0-1.82-.08-2.79s-.11-2.05-.19-3.24l2-.89c0,1.43.07,2.61.09,3.53s0,1.72,0,2.4c0,.94,0,1.85,0,2.74s0,1.79,0,2.74c0,.63,0,1.24.08,1.82a5.28,5.28,0,0,0,.35,1.55,2.5,2.5,0,0,0,.78,1.07,2.19,2.19,0,0,0,1.37.41h1v2.42Z"/><path class="cls-9" d="M1004.23,759a4.66,4.66,0,0,0-.38-1.34,10.35,10.35,0,0,0-1.29-2.22l1.6-1.7a8.37,8.37,0,0,1,1.48,2.59,7.27,7.27,0,0,1,.48,2.39,3.75,3.75,0,0,1-1.22,3,5.65,5.65,0,0,1-3.76,1h-1a.61.61,0,0,1-.53-.34,1.61,1.61,0,0,1-.22-.89,1.5,1.5,0,0,1,.22-.86.62.62,0,0,1,.53-.33h1a6.56,6.56,0,0,0,2.14-.32C1003.92,759.8,1004.23,759.46,1004.23,759Zm-2-7.71-1.86-1.55,1.36-1.6,1.82,1.54Zm3.75,0-1.83-1.55,1.39-1.6,1.79,1.54Z"/><path class="cls-9" d="M870,573.75a99.11,99.11,0,0,1-99-99v-90h18v90a81,81,0,0,0,162,0v-90h18v90A99.11,99.11,0,0,1,870,573.75Z"/><polygon class="cls-9" points="1073.59 571.12 1060.86 558.39 1131 488.25 1131 438.75 1149 438.75 1149 495.7 1073.59 571.12"/><rect class="cls-9" x="861" y="384.75" width="18" height="36"/><rect class="cls-9" x="1131" y="384.75" width="18" height="36"/><rect class="cls-9" x="951" y="591.75" width="18" height="36"/><rect class="cls-9" x="987" y="591.75" width="18" height="36"/><polygon class="cls-9" points="966.36 475.84 953.64 463.11 996 420.75 996 384.75 1014 384.75 1014 428.2 966.36 475.84"/><polygon class="cls-9" points="966.36 529.84 953.64 517.11 1032 438.75 1032 384.75 1050 384.75 1050 446.2 966.36 529.84"/><polygon class="cls-9" points="976.46 573.75 951 573.75 951 384.75 969 384.75 969 555.75 1068 456.75 1068 384.75 1086 384.75 1086 464.2 976.46 573.75"/></g></svg>