<svg xmlns="http://www.w3.org/2000/svg" xmlns:xlink="http://www.w3.org/1999/xlink" viewBox="0 0 1920 1080"><defs><style>.cls-1{fill:#082b96;}.cls-2{fill:#4672e2;}.cls-3,.cls-4,.cls-5,.cls-6,.cls-7,.cls-8,.cls-9{fill:none;stroke-miterlimit:10;}.cls-3{stroke:#fff;stroke-dasharray:15 5;}.cls-4{stroke:url(#linear-gradient);}.cls-5{stroke:url(#linear-gradient-2);}.cls-6{stroke:url(#linear-gradient-3);}.cls-7{stroke:url(#linear-gradient-4);}.cls-8{stroke:url(#linear-gradient-5);}.cls-9{stroke:url(#linear-gradient-6);}</style><linearGradient id="linear-gradient" x1="-3868" y1="5104.5" x2="-1948" y2="5104.5" gradientTransform="translate(-1948 5676) rotate(180)" gradientUnits="userSpaceOnUse"><stop offset="0" stop-color="#fff" stop-opacity="0"/><stop offset="0.51" stop-color="#fff"/><stop offset="1" stop-color="#fff" stop-opacity="0"/></linearGradient><linearGradient id="linear-gradient-2" y1="4870.5" y2="4870.5" xlink:href="#linear-gradient"/><linearGradient id="linear-gradient-3" x1="9918.43" y1="3859.57" x2="10998.42" y2="3859.57" gradientTransform="translate(5243.57 -9918.43) rotate(90)" xlink:href="#linear-gradient"/><linearGradient id="linear-gradient-4" x1="9918.43" y1="4705.57" x2="10998.42" y2="4705.57" gradientTransform="translate(5243.57 -9918.43) rotate(90)" xlink:href="#linear-gradient"/><linearGradient id="linear-gradient-5" x1="4506.42" y1="6685.07" x2="6426.42" y2="6685.07" gradientTransform="translate(6426.43 7607.57) rotate(180)" xlink:href="#linear-gradient"/><linearGradient id="linear-gradient-6" x1="4506.42" y1="7450.07" x2="6426.42" y2="7450.07" gradientTransform="translate(6426.43 7607.57) rotate(180)" xlink:href="#linear-gradient"/></defs><g id="Background"><rect class="cls-1" width="1920" height="1080"/></g><g id="Graphics"><path class="cls-2" d="M791.07,677.79a17.35,17.35,0,0,1,2.52,4.79,15.14,15.14,0,0,1,.86,4.8,14.6,14.6,0,0,1-.86,5.13,11.07,11.07,0,0,1-2.43,3.91,10.82,10.82,0,0,1-3.87,2.52,14,14,0,0,1-5.13.9,13.06,13.06,0,0,1-4.32-.67,8.7,8.7,0,0,1-5.44-5.2,11.88,11.88,0,0,1-.77-4.43,12.56,12.56,0,0,1,.68-4.21,22.19,22.19,0,0,1,2-4.07l3.19,1.3a18.27,18.27,0,0,0-1.48,3.49,9.83,9.83,0,0,0-.45,2.68,5.49,5.49,0,0,0,1.82,4.43,7.88,7.88,0,0,0,5.24,1.55,8.27,8.27,0,0,0,5.58-1.82,6.33,6.33,0,0,0,2.12-5.06,9.35,9.35,0,0,0-.72-3.31,17,17,0,0,0-2-3.71Zm-8.68,1.4L779,676.31l2.74-3.24,3.42,2.88Z"/><path class="cls-2" d="M803.49,692.28l-4.23,1v-29.7l4.23-2Z"/><path class="cls-2" d="M819,693a9.36,9.36,0,0,1-1.44-.11,2.65,2.65,0,0,1-1.26-.61,9.55,9.55,0,0,1-1.17,3.49,16.72,16.72,0,0,1-2.43,3.26,29.31,29.31,0,0,1-3.49,3.11q-2,1.53-4.3,3l-3.46-3.28q2.47-1.49,4.54-3a34.88,34.88,0,0,0,3.51-2.84,16.24,16.24,0,0,0,2.25-2.52,3.79,3.79,0,0,0,.81-2.07,6.71,6.71,0,0,0-.81-2.59,27.46,27.46,0,0,0-2.07-3.53l3.42-3.42c.63,1.08,1.18,2,1.64,2.75a17,17,0,0,0,1.29,1.82,4.22,4.22,0,0,0,1.17,1,2.69,2.69,0,0,0,1.3.32h1.8V693Z"/><path class="cls-2" d="M832.07,686.61a2.14,2.14,0,0,0-.21-.76,8.85,8.85,0,0,0-.58-1.15c-.26-.44-.54-.89-.86-1.37a17.11,17.11,0,0,0-1-1.4l3.38-3.55a14.3,14.3,0,0,1,2.52,4.16,11,11,0,0,1,.81,3.85,6.41,6.41,0,0,1-1.8,4.92q-1.8,1.7-5.54,1.69h-8.46c-.33,0-.6-.23-.81-.7a4.56,4.56,0,0,1-.31-1.86,4.78,4.78,0,0,1,.31-1.89q.32-.72.81-.72h8.51a7.53,7.53,0,0,0,2.36-.3C831.77,687.34,832.07,687,832.07,686.61Zm-8.82,15.44L820,699.26l2.61-3.11,3.33,2.75Zm5.76,0-3.29-2.79,2.61-3.11,3.29,2.75Z"/><path class="cls-2" d="M845.16,692.28l-4.23,1v-29.7l4.23-2Z"/><path class="cls-2" d="M866.85,688.59a9.22,9.22,0,0,1-.9,4,15.57,15.57,0,0,1-2.45,3.67,28.35,28.35,0,0,1-3.67,3.42,56.15,56.15,0,0,1-4.59,3.24l-3.47-3.28q2.47-1.49,4.55-3a34.88,34.88,0,0,0,3.51-2.84,16.24,16.24,0,0,0,2.25-2.52,3.79,3.79,0,0,0,.81-2.07,4.28,4.28,0,0,0-.22-1.15c-.16-.46-.36-1-.61-1.53a18.37,18.37,0,0,0-.93-1.71c-.36-.58-.73-1.16-1.12-1.73l3.37-3.37a20.64,20.64,0,0,1,2.68,4.92A11.94,11.94,0,0,1,866.85,688.59Zm-4.5-11.47-3.42-2.88,2.74-3.24,3.42,2.88Z"/><path class="cls-2" d="M875.94,692.28l-4.23,1v-29.7l4.23-2Z"/><path class="cls-2" d="M902.94,693a6.68,6.68,0,0,1-4.32-1.21,7.49,7.49,0,0,1-2.25-3.74,8.42,8.42,0,0,1-2.36,1.08,10,10,0,0,1-2.82.41,4.63,4.63,0,0,1-3.26-1.15,4.17,4.17,0,0,1-1.24-3.22,7.9,7.9,0,0,1,1.69-4.84,18.48,18.48,0,0,1,5.51-4.43l-.54-2.29L897,671l2.16,11.25c.21,1.08.41,2,.59,2.7a5.27,5.27,0,0,0,.72,1.73,2.42,2.42,0,0,0,1.19.93,5.89,5.89,0,0,0,2,.27h.67V693Zm-8.37-13.09a12.54,12.54,0,0,0-1.58.83,11.46,11.46,0,0,0-1.39,1,6.34,6.34,0,0,0-1.06,1.08,2.45,2.45,0,0,0-.52,1.1.79.79,0,0,0,.5.74,2.75,2.75,0,0,0,1.26.25,6.39,6.39,0,0,0,1-.09,8,8,0,0,0,1.1-.25,5,5,0,0,0,1-.36,3.35,3.35,0,0,0,.63-.38Z"/><path class="cls-2" d="M918,693a10.92,10.92,0,0,1-3.26-.49,8.88,8.88,0,0,1-2.9-1.53,10.77,10.77,0,0,1-3,1.53,9.12,9.12,0,0,1-2.79.49h-1.85c-.33,0-.6-.23-.81-.7a4.56,4.56,0,0,1-.31-1.86,4.78,4.78,0,0,1,.31-1.89q.32-.72.81-.72h1.08c.48,0,.91,0,1.28-.05a12.36,12.36,0,0,0,1.29-.18,7.4,7.4,0,0,1-.88-1.87,6.1,6.1,0,0,1-.29-1.82,6.38,6.38,0,0,1,.61-2.72,8.91,8.91,0,0,1,1.57-2.39,8.33,8.33,0,0,1,2.18-1.71,5.09,5.09,0,0,1,2.39-.65,3.92,3.92,0,0,1,2,.56,5.47,5.47,0,0,1,1.62,1.49,7.68,7.68,0,0,1,1.08,2.14,7.92,7.92,0,0,1,.41,2.52,7.09,7.09,0,0,1-.41,2.27,5.78,5.78,0,0,1-1.53,2.27c.51.06,1,.1,1.4.11s.85,0,1.3,0h1.22V693Zm-7.51-19.21L907.21,671l2.61-3.1,3.33,2.7Zm2.56,7.51a2,2,0,0,0-.94.25,4,4,0,0,0-.9.61,3.42,3.42,0,0,0-.66.78,1.65,1.65,0,0,0-.24.79,2.76,2.76,0,0,0,.56,1.55,5.15,5.15,0,0,0,1.33,1.38,7.09,7.09,0,0,0,2-1.42A2.21,2.21,0,0,0,915,684a2.93,2.93,0,0,0-.16-.88,3.46,3.46,0,0,0-.43-.86,3.41,3.41,0,0,0-.6-.65A1.19,1.19,0,0,0,913.06,681.3Zm3.2-7.51L913,671l2.61-3.1,3.29,2.7Z"/><path class="cls-2" d="M933.18,693a7.23,7.23,0,0,1-3.06-.58,5,5,0,0,1-2.12-1.94,5.74,5.74,0,0,1-2.25,1.91,7.59,7.59,0,0,1-3.24.61h-1.93c-.33,0-.6-.23-.81-.7a4.54,4.54,0,0,1-.32-1.86,4.76,4.76,0,0,1,.32-1.89q.32-.72.81-.72h1.84a12.11,12.11,0,0,0,1.87-.12,2.64,2.64,0,0,0,1.21-.45,1.92,1.92,0,0,0,.7-.94,5.27,5.27,0,0,0,.27-1.55v-1.89l3.74-1a27.38,27.38,0,0,0,.11,2.79,5,5,0,0,0,.47,1.82,2,2,0,0,0,1,1,4.61,4.61,0,0,0,1.84.3h2.12V693Zm-8.15,9-3.28-2.79,2.61-3.11,3.33,2.75Zm5.76,0-3.28-2.79,2.61-3.11,3.28,2.75Z"/><path class="cls-2" d="M946.36,693a5.24,5.24,0,0,1-2.72-.63,4.59,4.59,0,0,1-1.69-1.75,5.24,5.24,0,0,1-4.54,2.38h-1.62c-.33,0-.6-.22-.81-.67a4.46,4.46,0,0,1-.32-1.85,4.76,4.76,0,0,1,.32-1.89q.32-.72.81-.72H937a3.09,3.09,0,0,0,2.49-.76,3.8,3.8,0,0,0,.61-2.39c0-.27,0-.85,0-1.75s0-2.2-.07-3.9-.07-3.81-.13-6.36-.14-5.61-.23-9.18l4.23-2v19.94c0,1.2,0,2.21.11,3a7.25,7.25,0,0,0,.41,2,2.05,2.05,0,0,0,.85,1.08,2.89,2.89,0,0,0,1.51.34h1.71V693Z"/><path class="cls-2" d="M966.25,690.26a6.32,6.32,0,0,1-2.07,2A6.12,6.12,0,0,1,961,693a7.49,7.49,0,0,1-3.13-.56,4.77,4.77,0,0,1-2-2.14,5.55,5.55,0,0,1-2.14,2.07,5.66,5.66,0,0,1-2.59.63h-2.7c-.33,0-.6-.23-.81-.7a4.56,4.56,0,0,1-.31-1.86,4.78,4.78,0,0,1,.31-1.89q.32-.72.81-.72H951a5.16,5.16,0,0,0,2.36-.52,1.87,1.87,0,0,0,1-1.82v-2.61l3.73-1c0,1.11,0,2,.11,2.79a5.68,5.68,0,0,0,.45,1.82,2,2,0,0,0,1,1,3.62,3.62,0,0,0,1.6.3,6.21,6.21,0,0,0,1.77-.21A2.13,2.13,0,0,0,964,687a2.28,2.28,0,0,0,.5-1.06,7.8,7.8,0,0,0,.13-1.55v-1.53l3.69-1a13.23,13.23,0,0,0,.56,4.48,2.33,2.33,0,0,0,2.41,1.42c1.77,0,2.66-.38,2.66-1.13a2.51,2.51,0,0,0-.21-.81,8.25,8.25,0,0,0-.56-1.19c-.24-.44-.52-.89-.83-1.37s-.65-1-1-1.4l3.33-3.55a14.3,14.3,0,0,1,2.52,4.16,11,11,0,0,1,.81,3.85,7.27,7.27,0,0,1-.5,2.72,5.85,5.85,0,0,1-1.39,2.09,6.52,6.52,0,0,1-2.12,1.33,7.5,7.5,0,0,1-2.7.47Q967.65,693,966.25,690.26Z"/><path class="cls-2" d="M990,693a6.29,6.29,0,0,1-3.38-.79,5.26,5.26,0,0,1-1.93-2.07,8.76,8.76,0,0,1-.9-2.92,30.68,30.68,0,0,1-.27-3.35c-.06-1.38-.11-2.93-.14-4.64s-.07-3.46-.11-5.26-.11-3.6-.18-5.4-.17-3.48-.29-5l4.18-2c0,1.68,0,3.41,0,5.2s0,3.56.09,5.33.09,3.53.14,5.27.08,3.39.11,5c0,.72,0,1.41.05,2.09a6.5,6.5,0,0,0,.31,1.8,2.51,2.51,0,0,0,.88,1.24,3,3,0,0,0,1.82.45h1.8V693Z"/><path class="cls-2" d="M993.7,702.32l-3.42-2.93,2.75-3.24,3.42,2.88Zm4.14-15.71a2.3,2.3,0,0,0-.2-.76,9.06,9.06,0,0,0-.59-1.15c-.25-.44-.54-.89-.85-1.37s-.65-1-1-1.4l3.37-3.55a14.3,14.3,0,0,1,2.52,4.16,11,11,0,0,1,.81,3.85,6.41,6.41,0,0,1-1.8,4.92q-1.8,1.7-5.53,1.69h-2.39c-.33,0-.6-.23-.81-.7a4.56,4.56,0,0,1-.31-1.86,4.78,4.78,0,0,1,.31-1.89q.32-.72.81-.72h2.39a7.71,7.71,0,0,0,2.38-.3C997.54,687.34,997.84,687,997.84,686.61Z"/><path class="cls-2" d="M866.05,723a26.47,26.47,0,0,1,2.32,4.74,27.5,27.5,0,0,1,1.23,4.76,41,41,0,0,1,.48,5c.07,1.75.1,3.62.1,5.61h-1.45q0-2.89-.24-5.34a38.94,38.94,0,0,0-.64-4.6,25.9,25.9,0,0,0-1.2-4.09,26.43,26.43,0,0,0-1.86-3.83Z"/><path class="cls-2" d="M875.22,723q.69,1.32,1.23,2.22a10.52,10.52,0,0,0,1,1.45,3,3,0,0,0,1,.79,2.6,2.6,0,0,0,1.13.23,1.59,1.59,0,0,0,1.48-.94,6.72,6.72,0,0,0,.51-3l1.48-.37a9.67,9.67,0,0,0,.74,3.32,1.65,1.65,0,0,0,1.53,1,1.53,1.53,0,0,0,1.4-1,7.91,7.91,0,0,0,.49-3.14l1.7-.47c0,2.6-.33,4.47-1,5.59a3,3,0,0,1-2.73,1.69,2.65,2.65,0,0,1-1.73-.54,3.54,3.54,0,0,1-1-1.32,3,3,0,0,1-2.83,2,2.74,2.74,0,0,1-.79-.11,1.61,1.61,0,0,1-.76-.46,25.2,25.2,0,0,1,1.14,6.1c.14,2.19.22,4.61.22,7.26H878q0-2.89-.24-5.34a34.47,34.47,0,0,0-.68-4.58,27.25,27.25,0,0,0-1.22-4.08A28.67,28.67,0,0,0,874,725.3Z"/><path class="cls-2" d="M901.17,743.29a10.05,10.05,0,0,1-1.23-2.13,17.3,17.3,0,0,1-.83-2.52,21.91,21.91,0,0,1-.49-2.79c-.1-1-.17-1.94-.19-2.93-.23,0-.51,0-.83.05l-.93,0a12.38,12.38,0,0,1-1.95-.14,4,4,0,0,1-1.45-.52,2.51,2.51,0,0,1-.92-1,3.89,3.89,0,0,1-.31-1.67,6.91,6.91,0,0,1,.38-2.18,9.38,9.38,0,0,1,1-2.15,6.41,6.41,0,0,1,1.47-1.66,2.83,2.83,0,0,1,1.78-.66,2.79,2.79,0,0,1,2.58,1.73,13.15,13.15,0,0,1,.88,5.61c0,.88,0,1.8,0,2.74a21.59,21.59,0,0,0,.28,2.8,14.54,14.54,0,0,0,.73,2.7,8.62,8.62,0,0,0,1.37,2.41Zm-2.71-12.63a17.94,17.94,0,0,0-.11-2.15,7.89,7.89,0,0,0-.34-1.68,2.81,2.81,0,0,0-.62-1.1,1.18,1.18,0,0,0-.91-.4,1.71,1.71,0,0,0-1.06.4,4,4,0,0,0-.91,1,5.52,5.52,0,0,0-.63,1.29,4.11,4.11,0,0,0-.23,1.31,1.28,1.28,0,0,0,.81,1.06,5.63,5.63,0,0,0,2.21.33h1Q898.09,730.69,898.46,730.66Z"/><path class="cls-2" d="M907.88,729.65a24.6,24.6,0,0,1,1.17,6.13q.23,3.29.22,7.35h-1.45q0-2.89-.24-5.34a34.5,34.5,0,0,0-.67-4.58,26.77,26.77,0,0,0-3.09-7.91l1.26-2.33c.44.84.85,1.55,1.23,2.14a9.27,9.27,0,0,0,1.12,1.45,3.6,3.6,0,0,0,1.16.84,3.74,3.74,0,0,0,1.44.26c1.84,0,2.77-1.4,2.77-4.22l1.73-.47a17.36,17.36,0,0,1-.24,3,7.32,7.32,0,0,1-.77,2.34,3.78,3.78,0,0,1-1.42,1.49,4.15,4.15,0,0,1-2.17.52,3.61,3.61,0,0,1-1.07-.16A2.61,2.61,0,0,1,907.88,729.65Z"/><path class="cls-2" d="M955.23,742.5a5.23,5.23,0,0,1-2.35-.47,3,3,0,0,1-1.4-1.64,3.65,3.65,0,0,1-3.4,2.11,3.2,3.2,0,0,1-1.83-.52,3.65,3.65,0,0,1-1.26-1.62,4,4,0,0,1-3.69,2.14,3,3,0,0,1-2.36-.88,5.51,5.51,0,0,1,.08.71,3.67,3.67,0,0,1,0,.67,9.2,9.2,0,0,1-.72,3.22,7.44,7.44,0,0,1-1.75,2.49,7.76,7.76,0,0,1-2.69,1.6,10.43,10.43,0,0,1-3.56.57,9,9,0,0,1-2.95-.47A6.64,6.64,0,0,1,925,749a6.25,6.25,0,0,1-1.49-2.21,7.63,7.63,0,0,1-.54-2.94,9.27,9.27,0,0,1,.41-2.84,13.24,13.24,0,0,1,1.29-2.68l1.45.73a10.33,10.33,0,0,0-1,2.16,7,7,0,0,0-.35,2.12,4.72,4.72,0,0,0,1.51,3.72,6.08,6.08,0,0,0,4.19,1.35,8.43,8.43,0,0,0,2.74-.42,5.85,5.85,0,0,0,2.08-1.21,5.36,5.36,0,0,0,1.32-1.91,6.22,6.22,0,0,0,.48-2.47,7.7,7.7,0,0,0-.49-2.49,13.12,13.12,0,0,0-1.34-2.71l1.76-1.51c.36.67.68,1.27,1,1.81a9,9,0,0,0,.89,1.37,3.34,3.34,0,0,0,1,.87,2.68,2.68,0,0,0,1.32.3,2.52,2.52,0,0,0,2.93-2.93v-1.08l1.8-.44a7.88,7.88,0,0,0,.53,3.44,1.83,1.83,0,0,0,1.73,1,2.52,2.52,0,0,0,1.67-.57,2.57,2.57,0,0,0,.76-2v-1.45l1.8-.44a14.21,14.21,0,0,0,.12,2A3.92,3.92,0,0,0,953,739a1.87,1.87,0,0,0,.93.8,4,4,0,0,0,1.54.26h1.14v2.42Z"/><path class="cls-2" d="M965.65,742.5a5.21,5.21,0,0,1-2.34-.47,3.33,3.33,0,0,1-1.47-1.61,4.08,4.08,0,0,1-1.56,1.58,4.94,4.94,0,0,1-2.34.5h-1.29a.63.63,0,0,1-.54-.35,1.57,1.57,0,0,1-.22-.88,1.5,1.5,0,0,1,.22-.86.65.65,0,0,1,.54-.33h1.29a3.64,3.64,0,0,0,2.28-.59,3,3,0,0,0,.84-2.22l0-1.2,1.76-.44a13.8,13.8,0,0,0,.13,2.11,3.25,3.25,0,0,0,.47,1.37,1.82,1.82,0,0,0,1,.74,4.69,4.69,0,0,0,1.59.23h1.23v2.42ZM960,748.27l-1.85-1.55,1.35-1.6,1.83,1.54Zm3.75,0-1.82-1.55,1.38-1.6,1.8,1.54Z"/><path class="cls-2" d="M979.83,740.36a4.19,4.19,0,0,1-1.48,1.6,4.37,4.37,0,0,1-2.3.54,4.6,4.6,0,0,1-2.25-.46,3.25,3.25,0,0,1-1.37-1.65,3.84,3.84,0,0,1-3.56,2.11h-1.64a.63.63,0,0,1-.54-.35,1.66,1.66,0,0,1-.22-.88,1.59,1.59,0,0,1,.22-.86.65.65,0,0,1,.54-.33h1.51a3.51,3.51,0,0,0,2-.57,2.4,2.4,0,0,0,.88-2v-1.45l1.76-.44a15.22,15.22,0,0,0,.13,2.11,3.56,3.56,0,0,0,.44,1.37,1.72,1.72,0,0,0,.82.74,3.84,3.84,0,0,0,3.48-.44,3.26,3.26,0,0,0,.74-2.26v-1.08l1.77-.44a7.51,7.51,0,0,0,.56,3.44,2.15,2.15,0,0,0,2,1,4.11,4.11,0,0,0,.77-.08,3.29,3.29,0,0,0,.73-.24,1.45,1.45,0,0,0,.53-.41.91.91,0,0,0,.21-.6,4.45,4.45,0,0,0-.4-1.37,11.39,11.39,0,0,0-1.3-2.22l1.63-1.7a8.24,8.24,0,0,1,1.48,2.58,7.33,7.33,0,0,1,.48,2.4,3.77,3.77,0,0,1-1.22,3,4.31,4.31,0,0,1-3,1.09,4.06,4.06,0,0,1-2.21-.54A3.25,3.25,0,0,1,979.83,740.36Z"/><path class="cls-2" d="M995.7,721.21,989,723v-1.2l1.76-.6a2.15,2.15,0,0,1-.91-1.73,2.4,2.4,0,0,1,.22-1,2.52,2.52,0,0,1,.6-.82,3.08,3.08,0,0,1,.86-.55,2.69,2.69,0,0,1,1-.2,3.19,3.19,0,0,1,2,.69l-.35,1a4.23,4.23,0,0,0-.8-.22,5,5,0,0,0-.81-.06,1.79,1.79,0,0,0-1,.28.85.85,0,0,0-.42.72,1.09,1.09,0,0,0,.5.89,1.84,1.84,0,0,0,1.13.37,11.73,11.73,0,0,0,3-.78ZM996,742.5a4.39,4.39,0,0,1-2.38-.54,3,3,0,0,1-1.21-1.38,5.82,5.82,0,0,1-.46-2c-.05-.74-.09-1.48-.11-2.24,0-1.07-.07-2.06-.08-3l0-2.69c0-.9,0-1.83-.08-2.79s-.1-2.05-.19-3.25l2-.88c0,1.43.07,2.61.09,3.53s0,1.72,0,2.39c0,1,0,1.86,0,2.74s0,1.8,0,2.74c0,.63,0,1.24.08,1.83a5.54,5.54,0,0,0,.35,1.54,2.56,2.56,0,0,0,.79,1.08,2.15,2.15,0,0,0,1.37.41h1v2.42Z"/><path class="cls-2" d="M1001.25,738.72a4.58,4.58,0,0,0-.38-1.34,10.35,10.35,0,0,0-1.29-2.22l1.61-1.7a8.65,8.65,0,0,1,1.48,2.58,7.56,7.56,0,0,1,.47,2.4,3.78,3.78,0,0,1-1.21,3,5.73,5.73,0,0,1-3.77,1h-1a.63.63,0,0,1-.53-.35,1.57,1.57,0,0,1-.22-.88,1.5,1.5,0,0,1,.22-.86.65.65,0,0,1,.53-.33h1a6.51,6.51,0,0,0,2.14-.32C1000.94,739.55,1001.25,739.2,1001.25,738.72Zm-2-7.72-1.86-1.54,1.36-1.61,1.83,1.55Zm3.75,0-1.83-1.54,1.39-1.61,1.79,1.55Z"/><path class="cls-2" d="M870,571.5a99.11,99.11,0,0,1-99-99v-81h18v81a81,81,0,0,0,162,0v-81h18v81A99.11,99.11,0,0,1,870,571.5Z"/><polygon class="cls-2" points="1080.73 575.23 1068 562.5 1131 499.5 1131 445.5 1149 445.5 1149 506.95 1080.73 575.23"/><rect class="cls-2" x="861" y="391.5" width="18" height="36"/><rect class="cls-2" x="1131" y="391.5" width="18" height="36"/><rect class="cls-2" x="951" y="589.5" width="18" height="36"/><rect class="cls-2" x="987" y="589.5" width="18" height="36"/><polygon class="cls-2" points="966.36 473.59 953.64 460.86 987 427.5 987 391.5 1005 391.5 1005 434.95 966.36 473.59"/><polygon class="cls-2" points="966.36 527.59 953.64 514.86 1023 445.5 1023 391.5 1041 391.5 1041 452.95 966.36 527.59"/><polygon class="cls-2" points="976.46 571.5 951 571.5 951 391.5 969 391.5 969 553.5 1059 463.5 1059 391.5 1077 391.5 1077 470.95 976.46 571.5"/><polygon class="cls-3" points="1203 319.5 1203 337.5 1257 337.5 1320 400.5 1332.73 387.77 1264.45 319.5 1203 319.5"/><rect class="cls-3" x="1149" y="589.5" width="36" height="18"/><rect class="cls-3" x="1149" y="319.5" width="36" height="18"/><rect class="cls-3" x="1347" y="499.5" width="36" height="18"/><rect class="cls-3" x="1347" y="463.5" width="36" height="18"/><path class="cls-3" d="M1149,391.5v18h72l90,90h-28.55l-72-72H1149v18h54l54,54h-28.55l-36-36H1149v18h36l18,18h-54v18h81a81,81,0,0,1,0,162h-81v18h81a99,99,0,0,0,56.82-180H1329V492L1228.46,391.5Z"/><polygon class="cls-3" points="591 319.5 591 337.5 645 337.5 708 400.5 720.73 387.77 652.46 319.5 591 319.5"/><rect class="cls-3" x="537" y="589.5" width="36" height="18"/><rect class="cls-3" x="537" y="319.5" width="36" height="18"/><rect class="cls-3" x="735" y="499.5" width="36" height="18"/><rect class="cls-3" x="735" y="463.5" width="36" height="18"/><path class="cls-3" d="M537,391.5v18h72l90,90H670.45l-72-72H537v18h54l54,54H616.45l-36-36H537v18h36l18,18H537v18h81a81,81,0,0,1,0,162H537v18h81a99,99,0,0,0,56.82-180H717V492L616.46,391.5Z"/><polygon class="cls-3" points="1131 265.5 1068 328.5 1080.73 341.23 1149 272.95 1149 211.5 1131 211.5 1131 265.5"/><rect class="cls-3" x="861" y="157.5" width="18" height="36"/><rect class="cls-3" x="1131" y="157.5" width="18" height="36"/><rect class="cls-3" x="951" y="355.5" width="18" height="36"/><rect class="cls-3" x="987" y="355.5" width="18" height="36"/><path class="cls-3" d="M1077,157.5h-18v72l-90,90V291l72-72V157.5h-18v54l-54,54V237l36-36V157.5H987v36l-18,18v-54H951v81a81,81,0,0,1-162,0v-81H771v81a99,99,0,0,0,180,56.82V337.5h25.46L1077,237Z"/><polygon class="cls-3" points="1131 679.5 1068 742.5 1080.73 755.23 1149 686.96 1149 625.5 1131 625.5 1131 679.5"/><rect class="cls-3" x="861" y="571.5" width="18" height="36"/><rect class="cls-3" x="1131" y="571.5" width="18" height="36"/><rect class="cls-3" x="951" y="769.5" width="18" height="36"/><rect class="cls-3" x="987" y="769.5" width="18" height="36"/><path class="cls-3" d="M1077,571.5h-18v72l-90,90V705l72-72V571.5h-18v54l-54,54V651l36-36V571.5H987v36l-18,18v-54H951v81a81,81,0,0,1-162,0v-81H771v81a99,99,0,0,0,180,56.82V751.5h25.46L1077,651Z"/><polygon class="cls-3" points="1131 913.5 1068 976.5 1080.73 989.23 1149 920.96 1149 859.5 1131 859.5 1131 913.5"/><rect class="cls-3" x="861" y="805.5" width="18" height="36"/><rect class="cls-3" x="1131" y="805.5" width="18" height="36"/><rect class="cls-3" x="951" y="1003.5" width="18" height="36"/><rect class="cls-3" x="987" y="1003.5" width="18" height="36"/><path class="cls-3" d="M1077,805.5h-18v72l-90,90V939l72-72V805.5h-18v54l-54,54V885l36-36V805.5H987v36l-18,18v-54H951v81a81,81,0,0,1-162,0v-81H771v81a99,99,0,0,0,180,56.82V985.5h25.46L1077,885Z"/><line class="cls-4" y1="571.5" x2="1920" y2="571.5"/><line class="cls-5" y1="805.5" x2="1920" y2="805.5"/><line class="cls-6" x1="1384" x2="1384" y2="1080"/><line class="cls-7" x1="538" x2="538" y2="1080"/><line class="cls-8" x1="1920" y1="922.5" y2="922.5"/><line class="cls-9" x1="1920" y1="157.5" y2="157.5"/></g></svg>