<svg xmlns="http://www.w3.org/2000/svg" viewBox="0 0 1920 1080"><defs><style>.cls-1{fill:#fff;}.cls-2,.cls-6{fill:none;}.cls-2{stroke:#000;stroke-miterlimit:10;stroke-width:30px;}.cls-3{font-size:75px;font-family:Akkurat;letter-spacing:-0.03em;}.cls-4{letter-spacing:0.01em;}.cls-5{font-size:52.5px;letter-spacing:-0.01em;}</style></defs><g id="Background"><rect class="cls-1" width="1920" height="1080"/></g><g id="Isolation_Mode" data-name="Isolation Mode"><polyline class="cls-2" points="570 420 677.66 420 581.98 570 690 570"/><polyline class="cls-2" points="854.64 570 750 570 749.64 420 854.64 420"/><line class="cls-2" x1="854.64" y1="495" x2="749.64" y2="495"/><polyline class="cls-2" points="1020 570 915 570 915 420 1020 420"/><line class="cls-2" x1="1020" y1="495" x2="915" y2="495"/><polyline class="cls-2" points="1185 570 1080 570 1080 420 1185 420"/><line class="cls-2" x1="1185" y1="495" x2="1080" y2="495"/><polyline class="cls-2" points="1350 405 1350 570 1343.52 570 1251.6 420 1245 420 1245 585"/><text class="cls-3" transform="translate(555 705)">A<tspan class="cls-4" x="44.7" y="0">r</tspan><tspan x="74.62" y="0">tistically From Iran</tspan><tspan class="cls-5"><tspan x="0" y="60">EST 2013</tspan></tspan></text><rect class="cls-6" x="195" y="45" width="1530" height="990"/></g></svg>