<svg xmlns="http://www.w3.org/2000/svg" viewBox="0 0 1920 1080"><defs><style>.cls-1,.cls-6{fill:none;stroke:#000;stroke-miterlimit:10;}.cls-1{stroke-width:12px;}.cls-2{fill:#ffec00;}.cls-3{fill:#f5cebc;}.cls-4{fill:#a9afb0;}.cls-5{fill:#cde5d9;}.cls-6{stroke-width:12px;}.cls-7{font-size:60px;font-family:Approach-Regular, Approach;letter-spacing:-0.01em;}.cls-8{letter-spacing:0.01em;}.cls-9{letter-spacing:-0.02em;}.cls-10{letter-spacing:-0.03em;}.cls-11{letter-spacing:-0.05em;}.cls-12{letter-spacing:-0.04em;}.cls-13{letter-spacing:-0.03em;}.cls-14{letter-spacing:-0.03em;}.cls-15{letter-spacing:-0.03em;}.cls-16{font-size:42px;letter-spacing:-0.01em;}.cls-17{letter-spacing:-0.02em;}.cls-18{letter-spacing:-0.04em;}</style></defs><g id="Graphics"><path class="cls-1" d="M726,750v54a60,60,0,0,0,60,60h0a60,60,0,0,0,60-60V750"/><polyline class="cls-1" points="922.24 868.24 966 824.48 966 786"/><line class="cls-1" x1="786" y1="750" x2="786" y2="774"/><line class="cls-1" x1="966" y1="774" x2="966" y2="750"/><line class="cls-1" x1="846" y1="882" x2="846" y2="906"/><line class="cls-1" x1="870" y1="906" x2="870" y2="882"/><polyline class="cls-1" points="870 750 870 776.48 846 800.48"/><polyline class="cls-1" points="894 750 894 788.48 846 836.48"/><polyline class="cls-1" points="846 750 846 864 854.48 864 918 800.48 918 750"/><line class="cls-1" x1="654" y1="264" x2="654" y2="120"/><line class="cls-1" x1="654" y1="180" x2="696" y2="180"/><line class="cls-1" x1="654" y1="180" x2="686.22" y2="147.78"/><line class="cls-1" x1="650.62" y1="222" x2="630" y2="222"/><path class="cls-1" d="M660,204a18,18,0,0,1,0,36"/><path class="cls-1" d="M672,138a18,18,0,0,0-36,0"/><path class="cls-1" d="M786,666a77.81,77.81,0,0,1,77.81-77.81h0A77.81,77.81,0,0,1,941.61,666"/><line class="cls-1" x1="858" y1="312" x2="726" y2="444"/><path class="cls-1" d="M756,324l-66,66v30H654V264H768A108,108,0,0,1,876,372v36h210a108,108,0,0,1,108,108V672H726V354"/><polyline class="cls-1" points="1194 636 1080 636 1080 408"/><path class="cls-1" d="M876,408h156a0,0,0,0,1,0,0v78a78,78,0,0,1-78,78h0a78,78,0,0,1-78-78V408A0,0,0,0,1,876,408Z"/><rect class="cls-1" x="654" y="264" width="42" height="42"/><path class="cls-2" d="M882,414v72a72,72,0,0,0,144,0V414Z"/><path class="cls-3" d="M792.39,666A71.81,71.81,0,1,1,936,666Z"/><rect class="cls-4" x="660" y="270" width="30" height="30"/><path class="cls-5" d="M1086,414h0a102,102,0,0,1,102,102V630a0,0,0,0,1,0,0H1086a0,0,0,0,1,0,0V414A0,0,0,0,1,1086,414Z"/><polyline class="cls-6" points="461.6 522 504.66 522 466.39 582 509.6 582"/><polyline class="cls-6" points="575.6 582 533.74 582 533.6 522 575.6 522"/><line class="cls-6" x1="575.6" y1="552" x2="533.6" y2="552"/><polyline class="cls-6" points="641.6 582 599.6 582 599.6 522 641.6 522"/><line class="cls-6" x1="641.6" y1="552" x2="599.6" y2="552"/><polyline class="cls-6" points="575.6 672 533.6 672 533.6 612 575.6 612"/><line class="cls-6" x1="575.6" y1="642" x2="533.6" y2="642"/><polyline class="cls-6" points="641.6 606 641.6 672 639.42 672 601.77 612 599.6 612 599.6 678"/><text class="cls-7" transform="translate(918 304.4)">A<tspan class="cls-8" x="39.6" y="0">r</tspan><tspan x="61.9" y="0">ti</tspan><tspan class="cls-9" x="96.01" y="0">s</tspan><tspan x="124.21" y="0">ticall</tspan><tspan class="cls-10" x="248.02" y="0">y</tspan><tspan x="277.33" y="0"> </tspan><tspan class="cls-11" x="290.44" y="0">F</tspan><tspan class="cls-12" x="324.33" y="0">r</tspan><tspan class="cls-13" x="343.81" y="0">om </tspan><tspan class="cls-14" x="439.88" y="0">I</tspan><tspan class="cls-15" x="454.53" y="0">r</tspan><tspan class="cls-13" x="474.21" y="0">an</tspan><tspan class="cls-16"><tspan x="0" y="48">E</tspan><tspan class="cls-17" x="25.6" y="48">S</tspan><tspan class="cls-18" x="50.37" y="48">T</tspan><tspan x="72.59" y="48" xml:space="preserve"> 2013</tspan></tspan></text></g></svg>