<svg xmlns="http://www.w3.org/2000/svg" viewBox="0 0 1920 1080"><g id="Graphics"><rect x="342.3" y="192" width="17.69" height="144"/><rect x="351.14" y="243.15" width="91.3" height="17.69"/><rect x="347.62" y="227.04" width="77.1" height="17.69" transform="translate(-63.24 182.97) rotate(-24.7)"/><rect x="298.97" y="285.15" width="44.83" height="17.69"/><path d="M351.14,322.21V301.79c21.24,0,35.35-4.49,40.48-7.79-5.13-3.3-19.24-7.79-40.48-7.79V265.79c31.06,0,62.39,8.72,62.39,28.21S382.2,322.21,351.14,322.21Z"/><path d="M320.85,210.07,303.17,210c0-15.56,20.17-26.85,48-26.85s48,11.29,48,26.85H381.43v.07c-.52-2.23-10.63-9.22-30.29-9.22S321.38,207.84,320.85,210.07Z"/><path d="M985.22,738H967.53c0-16.88-16.18-34-44.39-47-30.81-14.17-72-22-115.91-22s-85.09,7.81-115.9,22c-28.21,13-44.39,30.1-44.39,47H629.25c0-24.44,19.42-46.83,54.69-63,33.08-15.22,76.87-23.6,123.29-23.6s90.22,8.38,123.3,23.6C965.8,691.17,985.22,713.56,985.22,738Z"/><rect x="493.21" y="441.15" width="315.85" height="17.69" transform="translate(-128.47 313.31) rotate(-24.7)"/><path d="M1533.88,752.85H498.82v-313l-60.57,27.86v33.18H342.3V327.15H599c64,0,124.23,11.52,169.71,32.45,47.67,21.92,73.92,51.9,73.92,84.4v27.15h447.66c64,0,124.23,11.52,169.71,32.45,47.67,21.92,73.92,51.9,73.92,84.4ZM516.51,735.15h999.67V588c0-24.83-23.18-49.73-63.61-68.33-43.21-19.88-100.86-30.82-162.32-30.82H824.89V444c0-24.83-23.18-49.73-63.61-68.33C718.07,355.79,660.43,344.85,599,344.85H360v138.3h60.57V456.33L569.18,388,576.57,404l-60.06,27.63Z"/><polygon points="1525.03 716.85 1268.36 716.85 1268.36 480 1286.06 480 1286.06 699.15 1525.03 699.15 1525.03 716.85"/><polygon points="451.29 386.85 351.14 386.85 351.14 369.15 433.6 369.15 433.6 336 451.29 336 451.29 386.85"/><path d="M1057.86,644.85H948.74A124,124,0,0,1,824.89,521V471.15h356.82V521A124,124,0,0,1,1057.86,644.85Zm-215.27-156V521A106.27,106.27,0,0,0,948.74,627.15h109.12A106.28,106.28,0,0,0,1164,521V488.85Z"/></g></svg>