<svg xmlns="http://www.w3.org/2000/svg" viewBox="0 0 1920 1080"><g id="Graphics"><polygon points="690 618.5 575.6 618.5 671.28 468.5 570 468.5 570 461.5 684.04 461.5 588.36 611.5 690 611.5 690 618.5"/><polygon points="855 618.5 746.87 618.5 746.49 461.5 855 461.5 855 468.5 753.51 468.5 753.85 611.5 855 611.5 855 618.5"/><rect x="750" y="536.5" width="105" height="7"/><polygon points="1020 618.5 911.5 618.5 911.5 461.5 1020 461.5 1020 468.5 918.5 468.5 918.5 611.5 1020 611.5 1020 618.5"/><rect x="915" y="536.5" width="105" height="7"/><polygon points="1185 618.5 1076.5 618.5 1076.5 461.5 1185 461.5 1185 468.5 1083.5 468.5 1083.5 611.5 1185 611.5 1185 618.5"/><rect x="1080" y="536.5" width="105" height="7"/><polygon points="1248.5 619.52 1241.5 619.52 1241.5 461.5 1253.56 461.5 1345.48 611.5 1346.5 611.5 1346.5 460.11 1353.5 460.11 1353.5 618.5 1341.56 618.5 1249.64 468.5 1248.5 468.5 1248.5 619.52"/></g></svg>