<svg xmlns="http://www.w3.org/2000/svg" viewBox="0 0 1920 1080"><g id="Graphics"><path d="M947.61,738h-12A71.81,71.81,0,1,0,792,738H780a83.81,83.81,0,1,1,167.61,0Z"/><path d="M1200,750H720V444A114.13,114.13,0,0,1,834,330H954V474h132a114.13,114.13,0,0,1,114,114ZM732,738h456V588a102.12,102.12,0,0,0-102-102H954v12H906V464.49l-64.24-64.25,8.48-8.48L918,459.51V486h24V342H834A102.12,102.12,0,0,0,732,444Z"/><polygon points="1194 714 1074 714 1074 480 1086 480 1086 702 1194 702 1194 714"/><path d="M954,642a84.09,84.09,0,0,1-84-84V480h12v78a72,72,0,0,0,144,0V480h12v78A84.09,84.09,0,0,1,954,642Z"/><rect x="942" y="192" width="12" height="144"/><rect x="906" y="246" width="42" height="12"/><rect x="925.89" y="213.11" width="12" height="45.57" transform="translate(106.14 728.04) rotate(-45)"/><rect x="951.38" y="288" width="20.62" height="12"/><path d="M942,318a24,24,0,0,1,0-48v12a12,12,0,0,0,0,24Z"/><path d="M972,210H960a12,12,0,0,0-24,0H924a24,24,0,0,1,48,0Z"/><rect x="804" y="356.66" width="12" height="186.68" transform="translate(-80.95 704.56) rotate(-45)"/><rect x="870" y="426" width="12" height="90"/><polygon points="948 384 900 384 900 336 912 336 912 372 948 372 948 384"/><rect x="876" y="474" width="36" height="12"/></g></svg>