<svg xmlns="http://www.w3.org/2000/svg" xmlns:xlink="http://www.w3.org/1999/xlink" viewBox="0 0 1550 871.88"><defs><style>.cls-1,.cls-2,.cls-3,.cls-4,.cls-5,.cls-6,.cls-8{fill:none;stroke-miterlimit:10;}.cls-1,.cls-6{stroke-width:0.94px;}.cls-1{stroke:url(#linear-gradient);}.cls-2,.cls-3,.cls-4,.cls-5{stroke-width:0.7px;}.cls-2{stroke:url(#linear-gradient-2);}.cls-3{stroke:url(#linear-gradient-3);}.cls-4{stroke:url(#linear-gradient-4);}.cls-5{stroke:url(#linear-gradient-5);}.cls-6{stroke:url(#linear-gradient-6);}.cls-7{fill:#b5b9ba;}.cls-8{stroke:#777d7e;stroke-dasharray:15 5;}</style><linearGradient id="linear-gradient" x1="3723" y1="-1519.59" x2="5643" y2="-1519.59" gradientTransform="translate(5458 -1156.13) rotate(180)" gradientUnits="userSpaceOnUse"><stop offset="0" stop-color="#fff" stop-opacity="0"/><stop offset="0.5" stop-color="#777d7e"/><stop offset="1" stop-color="#969b9c" stop-opacity="0"/></linearGradient><linearGradient id="linear-gradient-2" x1="-4400.53" y1="9457.85" x2="-3320.53" y2="9457.85" gradientTransform="translate(10079.41 4296.46) rotate(90)" xlink:href="#linear-gradient"/><linearGradient id="linear-gradient-3" x1="-4400.53" y1="9151.01" x2="-3320.53" y2="9151.01" gradientTransform="translate(10079.41 4296.46) rotate(90)" xlink:href="#linear-gradient"/><linearGradient id="linear-gradient-4" x1="-4400.53" y1="9301.41" x2="-3320.53" y2="9301.41" gradientTransform="translate(10079.41 4296.46) rotate(90)" xlink:href="#linear-gradient"/><linearGradient id="linear-gradient-5" x1="-4400.53" y1="9307.41" x2="-3320.53" y2="9307.41" gradientTransform="translate(10079.41 4296.46) rotate(90)" xlink:href="#linear-gradient"/><linearGradient id="linear-gradient-6" y1="-1639.57" y2="-1639.57" xlink:href="#linear-gradient"/></defs><g id="Graphics"><line class="cls-1" x1="-185" y1="363.46" x2="1735" y2="363.46"/><line class="cls-2" x1="621.56" y1="975.94" x2="621.56" y2="-104.06"/><line class="cls-3" x1="928.4" y1="975.94" x2="928.4" y2="-104.06"/><line class="cls-4" x1="778" y1="975.94" x2="778" y2="-104.06"/><line class="cls-5" x1="772" y1="975.94" x2="772" y2="-104.06"/><line class="cls-6" x1="-185" y1="483.44" x2="1735" y2="483.44"/></g><g id="Ebene_1" data-name="Ebene 1"><rect class="cls-7" x="772" y="363.46" width="6" height="119.98"/><polygon class="cls-7" points="928.4 391.9 965.16 391.9 987.13 439.03 1010.09 391.9 1046.35 391.9 998.45 483.44 975.79 483.44 928.4 391.9"/><rect class="cls-7" x="1050.57" y="391.9" width="34.3" height="91.54"/><path class="cls-7" d="M1067.9,379.94a22.38,22.38,0,1,0-22.38-22.38A22.38,22.38,0,0,0,1067.9,379.94Z"/><polygon class="cls-7" points="1102.86 363.52 1135.93 363.28 1135.92 391.9 1155.69 391.9 1155.91 418.3 1135.93 418.55 1135.72 483.44 1102.4 483.44 1102.61 418.55 1092.75 418.55 1092.74 391.9 1102.68 391.9 1102.86 363.52"/><path class="cls-7" d="M1164.07,391.9h34.29l-.24,13.08s10-17,33.91-15.05c-.11,15.42,0,18.25,0,31.09-10.61-4.94-33.88-.34-34,14.56-.07,9.87-.07,47.86-.07,47.86H1164.1Z"/><path class="cls-7" d="M1268.89,390.23a44.73,44.73,0,0,1,40.37,11.44c-.1-3.23-.08-9.77-.08-9.77h30.92l-.45,91.54h-30.88a99.38,99.38,0,0,1,0-10.11c-13.09,16.29-37.07,18.14-54.64,6.86-13.06-8.39-19.48-20.94-21.51-35.52C1229.31,420.63,1244.07,395.84,1268.89,390.23ZM1288,460.8a22.39,22.39,0,1,0-22.38-22.39A22.38,22.38,0,0,0,1288,460.8Zm0-22.39"/><path class="cls-7" d="M1374.12,488a22.39,22.39,0,1,0-22.38-22.39A22.39,22.39,0,0,0,1374.12,488Z"/><polygon class="cls-8" points="761.99 603.46 671.73 603.46 735.52 503.46 681.99 503.46 681.99 483.46 772 483.46 708.21 583.46 761.99 583.46 761.99 603.46"/><polygon class="cls-8" points="661.68 603.46 571.43 603.46 635.22 503.46 581.68 503.46 581.68 483.46 671.7 483.46 607.91 583.46 661.68 583.46 661.68 603.46"/><polygon class="cls-8" points="968.52 603.46 878.27 603.46 942.06 503.46 888.52 503.46 888.52 483.46 978.54 483.46 914.75 583.46 968.52 583.46 968.52 603.46"/><polygon class="cls-8" points="868.25 603.46 778 603.46 841.79 503.46 788.25 503.46 788.25 483.46 878.27 483.46 814.48 583.46 868.25 583.46 868.25 603.46"/><polygon class="cls-7" points="171.56 483.46 81.31 483.46 145.09 383.46 91.56 383.46 91.56 363.46 181.57 363.46 117.79 463.46 171.56 463.46 171.56 483.46"/><polygon class="cls-7" points="281.32 483.46 201.59 483.46 201.3 363.46 281.32 363.46 281.32 383.46 221.35 383.46 221.54 463.46 281.32 463.46 281.32 483.46"/><rect class="cls-7" x="211.32" y="413.46" width="70" height="20"/><polygon class="cls-7" points="391.56 483.46 311.56 483.46 311.56 363.46 391.56 363.46 391.56 383.46 331.56 383.46 331.56 463.46 391.56 463.46 391.56 483.46"/><rect class="cls-7" x="321.56" y="413.46" width="70" height="20"/><polygon class="cls-7" points="501.56 483.46 421.56 483.46 421.56 363.46 501.56 363.46 501.56 383.46 441.56 383.46 441.56 463.46 501.56 463.46 501.56 483.46"/><rect class="cls-7" x="431.56" y="413.46" width="70" height="20"/><polygon class="cls-7" points="621.56 483.46 601.64 483.46 551.56 401.74 551.56 483.46 531.56 483.46 531.56 363.46 551.57 363.46 601.56 445.06 601.56 363.46 621.56 363.46 621.56 483.46"/><path class="cls-7" d="M107.61,563.47l-2.9-8.4H89.31l-2.85,8.4H82L94.46,528h5.2l12.55,35.45ZM97,532.47l-6.25,18.4h12.55Z"/><path class="cls-7" d="M127.31,542.12a7,7,0,0,0-4.8,2c-2.05,2-2.3,5.45-2.3,8.1v11.25H116v-25.3h3.75l.35,4.45a7.85,7.85,0,0,1,7.55-4.6,13.46,13.46,0,0,1,2,.15v4.15A12.43,12.43,0,0,0,127.31,542.12Z"/><path class="cls-7" d="M144,563.82c-5.45,0-6.95-3.45-6.95-6.85V541.82h-4.9v-3.65h4.9v-6.45l4.25-1v7.45h7.5v3.65h-7.5v14.65c0,2.45,1.05,3.45,3.4,3.45a31.22,31.22,0,0,0,4.35-.45v3.65A18.31,18.31,0,0,1,144,563.82Z"/><path class="cls-7" d="M153.66,532.37v-5h5v5Zm.3,31.1v-25.3h4.35v25.3Z"/><path class="cls-7" d="M183.11,561.27c-2,2-5,2.85-8.25,2.85s-6.05-.75-8.2-2.85a8.18,8.18,0,0,1-2.45-5.8h4.25a4.93,4.93,0,0,0,2,3.95,8,8,0,0,0,4.55,1.15,6.86,6.86,0,0,0,4.65-1.4,3.59,3.59,0,0,0,1.25-2.75c0-1.9-1.35-3.25-4-3.6-1.1-.15-3.95-.5-5.7-.75-3.8-.6-6.2-3-6.2-6.8a7.28,7.28,0,0,1,2.1-4.95,10.31,10.31,0,0,1,7.45-2.8c3.35,0,6.35,1.05,8.05,3.2a7.23,7.23,0,0,1,1.8,4.85h-4.25a4.57,4.57,0,0,0-1.45-3.15,5.94,5.94,0,0,0-4.15-1.35,6.55,6.55,0,0,0-2.95.5,3.79,3.79,0,0,0-2.55,3.4c0,2.1,1.3,3,3.4,3.3,1.4.2,3.4.4,6.1.85,3.6.6,6.45,3.2,6.45,7A7.21,7.21,0,0,1,183.11,561.27Z"/><path class="cls-7" d="M199.21,563.82c-5.45,0-7-3.45-7-6.85V541.82h-4.9v-3.65h4.9v-6.45l4.25-1v7.45H204v3.65h-7.5v14.65c0,2.45,1.05,3.45,3.4,3.45a31.22,31.22,0,0,0,4.35-.45v3.65A18.31,18.31,0,0,1,199.21,563.82Z"/><path class="cls-7" d="M208.86,532.37v-5h4.95v5Zm.3,31.1v-25.3h4.35v25.3Z"/><path class="cls-7" d="M238.26,561.37a10,10,0,0,1-7.3,2.75,10.58,10.58,0,0,1-9.25-4.75c-1.35-2-2.1-4.75-2.1-8.55s.75-6.55,2.1-8.55a10.49,10.49,0,0,1,9.2-4.75,10.06,10.06,0,0,1,7.2,2.7,9.7,9.7,0,0,1,3,6.5h-4.3a6.35,6.35,0,0,0-1.8-4,5.92,5.92,0,0,0-4.1-1.55,6.39,6.39,0,0,0-4.4,1.65c-2,1.7-2.55,4.85-2.55,8s.55,6.25,2.55,7.95a6.39,6.39,0,0,0,4.4,1.65,5.91,5.91,0,0,0,4.3-1.7,6.25,6.25,0,0,0,1.7-3.75h4.3A9.52,9.52,0,0,1,238.26,561.37Z"/><path class="cls-7" d="M265.31,563.82a3.6,3.6,0,0,1-3.65-3.85h-.1c-1.45,2.55-4.6,4.15-8.15,4.15-5.8,0-8.7-3.9-8.7-7.8,0-3.25,2.1-7.5,9-7.9l7.7-.45v-1.85a5,5,0,0,0-1.3-3.85A5.7,5.7,0,0,0,256,541a6.27,6.27,0,0,0-4.6,1.5,4.14,4.14,0,0,0-1.25,3H246a7.49,7.49,0,0,1,2.2-5.3c1.7-1.8,4.7-2.7,7.8-2.7,4.9,0,7.7,2.1,8.9,4.85a9.69,9.69,0,0,1,.75,3.9v12.25c0,1.35.55,1.7,1.4,1.7a6.16,6.16,0,0,0,1.1-.15v3.15A5.89,5.89,0,0,1,265.31,563.82Zm-3.9-12.55-6.8.4c-2.55.15-5.55,1.35-5.55,4.55,0,2.25,1.4,4.35,5,4.35a7.13,7.13,0,0,0,5.2-2.05,8.16,8.16,0,0,0,2.15-5.75Z"/><path class="cls-7" d="M278.76,563.77c-3.7,0-5.3-2.2-5.3-6.2v-30.2h4.25v30c0,1.7.55,2.6,2.3,2.6a16.38,16.38,0,0,0,1.75,0v3.6A11.09,11.09,0,0,1,278.76,563.77Z"/><path class="cls-7" d="M292.06,563.77c-3.7,0-5.3-2.2-5.3-6.2v-30.2H291v30c0,1.7.55,2.6,2.3,2.6a16.38,16.38,0,0,0,1.75,0v3.6A11.09,11.09,0,0,1,292.06,563.77Z"/><path class="cls-7" d="M308.56,568.67c-1.2,3.25-3.05,5.4-6.85,5.4a13.84,13.84,0,0,1-3.85-.5v-3.7a11.76,11.76,0,0,0,3,.4,3.6,3.6,0,0,0,3.8-2.55l1.6-4.25-10.1-25.3H301l7.45,20,7.1-20H320Z"/><path class="cls-7" d="M338.91,532.12v11.55h16.5v4.2h-16.5v15.6h-4.45V528h23v4.1Z"/><path class="cls-7" d="M373.51,542.12a7,7,0,0,0-4.8,2c-2,2-2.3,5.45-2.3,8.1v11.25h-4.2v-25.3H366l.35,4.45a7.85,7.85,0,0,1,7.55-4.6,13.46,13.46,0,0,1,2,.15v4.15A12.43,12.43,0,0,0,373.51,542.12Z"/><path class="cls-7" d="M397.11,561.17a11.39,11.39,0,0,1-15.3,0c-2.76-2.7-3.6-6.35-3.6-10.35s.84-7.65,3.6-10.35a11.39,11.39,0,0,1,15.3,0c2.75,2.7,3.6,6.35,3.6,10.35S399.86,558.47,397.11,561.17ZM394,543a6.65,6.65,0,0,0-9.1,0c-1.8,1.85-2.35,4.9-2.35,7.85s.55,6,2.35,7.85a6.65,6.65,0,0,0,9.1,0c1.8-1.85,2.35-4.9,2.35-7.85S395.81,544.82,394,543Z"/><path class="cls-7" d="M437.56,563.47v-16.1c0-3.55-1.15-6-5.15-6a5.13,5.13,0,0,0-3.85,1.7c-1.7,1.75-2.15,4.3-2.15,6.95v13.45h-4.25v-16.1c0-3.55-1.05-6-5.1-6a5.37,5.37,0,0,0-4.3,2.25c-1.25,1.6-1.7,4.3-1.7,6.4v13.45h-4.25v-25.3h3.7l.4,3.6a7.7,7.7,0,0,1,7.1-4.25c3.75,0,6.45,1.7,7.55,4.8a8.34,8.34,0,0,1,7.8-4.8c5.75,0,8.45,3.7,8.45,9.3v16.65Z"/><path class="cls-7" d="M460.05,563.47V528h4.56v35.45Z"/><path class="cls-7" d="M484.3,542.12a7,7,0,0,0-4.8,2c-2.05,2-2.3,5.45-2.3,8.1v11.25H473v-25.3h3.75l.35,4.45a7.85,7.85,0,0,1,7.55-4.6,13.46,13.46,0,0,1,2,.15v4.15A12.43,12.43,0,0,0,484.3,542.12Z"/><path class="cls-7" d="M509.36,563.82a3.59,3.59,0,0,1-3.65-3.85h-.11c-1.44,2.55-4.6,4.15-8.15,4.15-5.8,0-8.7-3.9-8.7-7.8,0-3.25,2.1-7.5,9-7.9l7.71-.45v-1.85a5,5,0,0,0-1.3-3.85A5.75,5.75,0,0,0,500,541a6.27,6.27,0,0,0-4.6,1.5,4.14,4.14,0,0,0-1.25,3H490a7.49,7.49,0,0,1,2.2-5.3c1.7-1.8,4.7-2.7,7.8-2.7,4.91,0,7.71,2.1,8.91,4.85a9.69,9.69,0,0,1,.75,3.9v12.25c0,1.35.55,1.7,1.4,1.7a6.32,6.32,0,0,0,1.1-.15v3.15A5.91,5.91,0,0,1,509.36,563.82Zm-3.9-12.55-6.81.4c-2.55.15-5.55,1.35-5.55,4.55,0,2.25,1.4,4.35,5,4.35a7.11,7.11,0,0,0,5.2-2.05,8.17,8.17,0,0,0,2.16-5.75Z"/><path class="cls-7" d="M533.85,563.47V547.42c0-3.8-1.55-6-5.55-6a6.2,6.2,0,0,0-5.5,3.9c-.85,1.85-.9,4.5-.9,6.45v11.75h-4.25v-25.3h3.7l.35,3.8c1.3-2.9,4.8-4.45,7.65-4.45,5.75,0,8.75,3.45,8.75,9.3v16.65Z"/><path class="cls-7" d="M85.06,603.47V578.65h16.59v2.87H88.18v7.56H100V592H88.18v8.58h13.47v2.87Z"/><path class="cls-7" d="M121.46,601.44a10.09,10.09,0,0,1-7,2.48,10.25,10.25,0,0,1-7.11-2.38,8.23,8.23,0,0,1-2.66-5.95h3.26a5.64,5.64,0,0,0,1.75,3.92,7,7,0,0,0,4.76,1.54,6.54,6.54,0,0,0,4.62-1.43,3.67,3.67,0,0,0,1.26-2.91c0-1.92-1.23-3.53-4.17-4l-3.92-.59c-3.71-.56-6.61-2.63-6.61-6.58a6.83,6.83,0,0,1,2.17-4.9,9.21,9.21,0,0,1,6.51-2.45,9.33,9.33,0,0,1,6.44,2.38,7.47,7.47,0,0,1,2.38,5.32h-3.26a5.19,5.19,0,0,0-1.22-3.12,6.5,6.5,0,0,0-8.79,0,4,4,0,0,0-1,2.7c0,2.24,1.85,3.25,3.71,3.5,1.4.17,2.76.42,4.13.63,4.13.59,6.89,3.11,6.89,7A6.45,6.45,0,0,1,121.46,601.44Z"/><path class="cls-7" d="M136,581.56v21.91H132.8V581.56h-7.38v-2.91h17.92v2.91Z"/><path class="cls-7" d="M153.66,603.47v-2.56l9.84-12.14a5.43,5.43,0,0,0,1.33-3.5c0-2.49-1.44-3.92-4-3.92-2.17,0-4.13,1.19-4.13,4.41h-3.08a6.76,6.76,0,0,1,7.17-7.11,7.05,7.05,0,0,1,5.95,2.8,6.25,6.25,0,0,1,1.12,3.78,8,8,0,0,1-2.06,5.18l-8.26,10.26h10.71v2.8Z"/><path class="cls-7" d="M185.44,601.86a7.72,7.72,0,0,1-10.5,0c-2.45-2.49-2.87-5.88-2.87-10.57s.42-8.12,2.87-10.61a7.8,7.8,0,0,1,10.5,0c2.45,2.49,2.87,5.92,2.87,10.61S187.89,599.37,185.44,601.86ZM183.2,582.5a4.6,4.6,0,0,0-6,0c-2.06,2-2,5.5-2,8.79s-.07,6.82,2,8.78a4.6,4.6,0,0,0,6,0c2.07-2,2-5.49,2-8.78S185.27,584.46,183.2,582.5Z"/><path class="cls-7" d="M199.48,603.47V582.54l-5.78,4.23v-3.32l6-4.31h2.87v24.33Z"/><path class="cls-7" d="M224.33,601.72a8.54,8.54,0,0,1-11.45,0,7.24,7.24,0,0,1-2.06-5.22h3a5.09,5.09,0,0,0,1.26,3.36,4.27,4.27,0,0,0,3.33,1.37,4.54,4.54,0,0,0,3.53-1.4,4.46,4.46,0,0,0,1.16-3.08c0-3-2-4.52-5-4.52h-1.47v-2.76h1.47c2.8,0,4.48-1.54,4.48-4.1a3.78,3.78,0,0,0-1.15-2.83,4.09,4.09,0,0,0-3-1.19,4.41,4.41,0,0,0-3,1,4.34,4.34,0,0,0-1.47,3.43h-3a6.73,6.73,0,0,1,2.35-5.36,8,8,0,0,1,5.21-1.75,7.54,7.54,0,0,1,5.18,2,6.11,6.11,0,0,1,2,4.76,6.28,6.28,0,0,1-3.57,5.5,6.21,6.21,0,0,1,4.06,6A7.09,7.09,0,0,1,224.33,601.72Z"/></g></svg>