<svg xmlns="http://www.w3.org/2000/svg" viewBox="0 0 504 504"><defs><style>.cls-1{fill:#f5cebc;}</style></defs><g id="Graphics"><rect class="cls-1" x="108" y="108" width="288" height="288" rx="144"/><path d="M233.78,394.86v-76L302.65,250A55.94,55.94,0,0,1,310,277.74v62.94a46.29,46.29,0,0,0,15.91,34.93q3-1.78,5.88-3.72a39.71,39.71,0,0,1-15.17-31.21V300.93h70.87q1.18-3.29,2.21-6.63H316.6V277.74a63,63,0,0,0-62.94-63H194v-6.63a13.25,13.25,0,0,0,0-26.5V175H213.9V168.4H198.71l12.13-12.13-4.68-4.69L194,163.72V142.8a6.6,6.6,0,0,1,3.31,5.73H204a13.25,13.25,0,1,0-26.5,0h6.62a6.61,6.61,0,0,1,3.32-5.73v48.8h-9.94v6.62h9.94V307.55h26.5v-18.5l13.25-13.25V393.86C229.34,394.24,231.55,394.58,233.78,394.86ZM194,188.28a6.63,6.63,0,1,1,0,13.25Zm0,33.13h16.57V238H194Zm13.25,64.89v14.63H194V244.6h23.19V221.41h36.45a56.28,56.28,0,0,1,45.3,22.9l-65.18,65.18V269.17l15.59-15.6-4.68-4.68Z"/></g></svg>