<svg xmlns="http://www.w3.org/2000/svg" xmlns:xlink="http://www.w3.org/1999/xlink" viewBox="0 0 1920 1080"><defs><style>.cls-1{fill:#082b96;}.cls-2{fill:#4672e2;}.cls-3{fill:url(#linear-gradient);}.cls-4{fill:url(#linear-gradient-2);}.cls-5{fill:url(#linear-gradient-3);}.cls-6{fill:url(#linear-gradient-4);}.cls-7{fill:url(#linear-gradient-5);}.cls-8{fill:url(#linear-gradient-6);}.cls-9{fill:url(#linear-gradient-7);}.cls-10{fill:#fff;}.cls-11{fill:url(#linear-gradient-8);}.cls-12{fill:url(#linear-gradient-9);}.cls-13{fill:url(#linear-gradient-10);}.cls-14{fill:url(#linear-gradient-11);}.cls-15{fill:url(#linear-gradient-12);}</style><linearGradient id="linear-gradient" x1="1260" y1="1080" x2="1260" gradientUnits="userSpaceOnUse"><stop offset="0" stop-color="#fff" stop-opacity="0"/><stop offset="0.51" stop-color="#fff"/><stop offset="1" stop-color="#fff" stop-opacity="0"/></linearGradient><linearGradient id="linear-gradient-2" x1="1155" x2="1155" y2="0" xlink:href="#linear-gradient"/><linearGradient id="linear-gradient-3" x1="1095" x2="1095" y2="0" xlink:href="#linear-gradient"/><linearGradient id="linear-gradient-4" x1="1035" x2="1035" y2="0" xlink:href="#linear-gradient"/><linearGradient id="linear-gradient-5" x1="959.98" x2="959.98" y2="0" xlink:href="#linear-gradient"/><linearGradient id="linear-gradient-6" x1="660" x2="660" y2="0" xlink:href="#linear-gradient"/><linearGradient id="linear-gradient-7" x1="809.99" x2="809.99" y2="0" xlink:href="#linear-gradient"/><linearGradient id="linear-gradient-8" x1="-319.66" y1="448.33" x2="2416.79" y2="448.33" gradientTransform="matrix(0.45, 0.59, -0.89, 0.3, 945.86, -323.15)" xlink:href="#linear-gradient"/><linearGradient id="linear-gradient-9" x1="733.08" y1="538.25" x2="1817.33" y2="538.25" gradientTransform="translate(754.1 -744.06) rotate(45)" xlink:href="#linear-gradient"/><linearGradient id="linear-gradient-10" x1="577.25" y1="538.25" x2="1658.66" y2="538.25" gradientTransform="translate(707.84 -632.79) rotate(44.99)" xlink:href="#linear-gradient"/><linearGradient id="linear-gradient-11" x1="485.95" y1="538.25" x2="1570.14" y2="538.25" gradientTransform="translate(681.52 -569.23) rotate(44.99)" xlink:href="#linear-gradient"/><linearGradient id="linear-gradient-12" x1="396.05" y1="538.25" x2="1480.31" y2="538.25" gradientTransform="translate(655.39 -505.74) rotate(45)" xlink:href="#linear-gradient"/></defs><g id="Background"><rect class="cls-1" width="1920" height="1080"/></g><g id="Graphics"><path class="cls-2" d="M810,690c-91,0-165-74-165-165V375h30V525c0,74.44,60.56,135,135,135s135-60.56,135-135V375h30V525C975,616,901,690,810,690Z"/><polygon class="cls-2" points="1149.32 685.61 1128.1 664.39 1245 547.5 1245 465 1275 465 1275 559.92 1149.32 685.61"/><rect class="cls-2" x="795" y="375" width="30" height="60"/><rect class="cls-2" x="1245" y="375" width="30" height="60"/><rect class="cls-2" x="945" y="720" width="30" height="60"/><rect class="cls-2" x="1005" y="720" width="30" height="60"/><polygon class="cls-2" points="970.61 526.82 949.39 505.6 1020 435 1020 375 1050 375 1050 447.42 970.61 526.82"/><polygon class="cls-2" points="970.61 616.82 949.39 595.6 1080 465 1080 375 1110 375 1110 477.42 970.61 616.82"/><polygon class="cls-2" points="987.42 690 945 690 945 375 975 375 975 660 1140 495 1140 375 1170 375 1170 507.42 987.42 690"/><rect class="cls-3" x="1259.5" width="1" height="1080"/><rect class="cls-4" x="1154.5" width="1" height="1080"/><rect class="cls-5" x="1094.5" width="1" height="1080"/><rect class="cls-6" x="1034.5" width="1" height="1080"/><rect class="cls-7" x="959.48" width="1" height="1080"/><rect class="cls-8" x="659.5" width="1" height="1080"/><rect class="cls-9" x="809.49" width="1" height="1080"/><path class="cls-10" d="M810,675.5h-.29v-1H810c3.88,0,7.8-.15,11.66-.45l.07,1C817.86,675.35,813.91,675.5,810,675.5Zm-4.3-.06c-4-.11-8-.39-12-.81l.11-1c3.94.43,8,.7,11.92.81Zm20-.75-.11-1c4-.41,7.94-1,11.84-1.71l.18,1C833.71,673.7,829.71,674.27,825.73,674.69Zm-36-.55c-4-.53-8-1.23-11.85-2.08l.21-1c3.87.85,7.83,1.54,11.77,2.07Zm51.86-2-.21-1c3.89-.82,7.78-1.82,11.58-3l.29,1C849.4,670.34,845.48,671.35,841.57,672.18Zm-67.62-1c-3.88-.95-7.77-2.07-11.56-3.34l.32-.94c3.76,1.25,7.62,2.37,11.48,3.31ZM857.06,668l-.31-1c3.76-1.24,7.52-2.65,11.18-4.19l.39.92C864.64,665.33,860.85,666.75,857.06,668Zm-98.47-1.51c-3.76-1.36-7.51-2.9-11.15-4.57l.42-.91c3.62,1.66,7.34,3.18,11.07,4.54ZM872,662.18l-.41-.91c3.61-1.63,7.2-3.43,10.68-5.36l.48.88C879.23,658.72,875.62,660.54,872,662.18Zm-128.17-2c-3.59-1.76-7.15-3.69-10.59-5.73l.51-.86c3.42,2,7,3.95,10.52,5.69Zm142.4-5.39-.51-.87c3.42-2,6.8-4.18,10-6.46l.58.82C893.05,650.59,889.65,652.78,886.21,654.81ZM729.8,652.37c-3.38-2.13-6.72-4.43-9.92-6.82l.6-.8c3.18,2.38,6.49,4.66,9.85,6.78ZM899.58,646l-.6-.8c3.18-2.36,6.32-4.89,9.31-7.5l.66.75C905.93,641,902.78,643.57,899.58,646ZM716.7,643.1c-3.13-2.48-6.21-5.12-9.14-7.84l.68-.73c2.92,2.7,6,5.32,9.08,7.78Zm195.23-7.37-.68-.74c2.92-2.69,5.77-5.53,8.47-8.44l.73.68C917.73,630.16,914.87,633,911.93,635.73Zm-207.27-3.24c-2.85-2.79-5.63-5.74-8.25-8.76l.75-.66c2.61,3,5.37,5.93,8.2,8.71Zm218.48-8.24-.75-.66c2.62-3,5.15-6.11,7.52-9.3l.8.6C928.32,618.1,925.78,621.25,923.14,624.25Zm-229.32-3.58c-2.54-3.08-5-6.3-7.28-9.58l.82-.57c2.27,3.25,4.71,6.45,7.23,9.51Zm239.25-9-.81-.57c2.28-3.25,4.47-6.63,6.49-10l.86.5C937.58,605,935.38,608.38,933.07,611.64Zm-248.78-3.86c-2.2-3.34-4.29-6.8-6.22-10.3l.87-.48c1.92,3.47,4,6.91,6.18,10.22Zm257.32-9.73-.87-.49c1.93-3.47,3.74-7.06,5.39-10.67l.91.41C945.38,590.94,943.56,594.56,941.61,598.05ZM676.19,594c-1.84-3.55-3.55-7.22-5.09-10.9l.92-.39c1.53,3.66,3.23,7.3,5.05,10.83Zm272.47-10.33-.92-.39c1.54-3.66,3-7.43,4.21-11.2l.95.32C951.64,576.14,950.21,579.94,948.66,583.62Zm-279-4.28c-1.45-3.73-2.75-7.56-3.89-11.39l1-.28c1.13,3.8,2.43,7.61,3.86,11.31Zm284.51-10.83-1-.29c1.14-3.8,2.15-7.7,3-11.58l1,.21C956.28,560.76,955.27,564.68,954.12,568.51Zm-289.49-4.42c-1-3.86-1.93-7.81-2.65-11.74l1-.18c.72,3.9,1.6,7.83,2.63,11.66Zm293.29-11.17-1-.18c.73-3.9,1.32-7.88,1.73-11.83l1,.11C959.24,545,958.65,549,957.92,552.92ZM661.31,548.4c-.62-3.94-1.08-8-1.38-12l1-.07c.29,4,.76,8,1.37,11.87ZM960,537l-1-.08c.31-3.94.47-8,.47-11.94h1C960.5,529,960.34,533.05,960,537Zm-300.35-4.58c-.12-2.46-.18-5-.18-7.44,0-1.52,0-3.06.07-4.59l1,0c-.05,1.52-.07,3-.07,4.56,0,2.46.06,5,.18,7.39Zm299.79-10.27c-.07-4-.3-8-.69-11.94l1-.09c.38,4,.62,8,.69,12Zm-298.73-5.72-1-.05c.23-4,.62-8,1.16-12l1,.14C661.35,508.48,661,512.48,660.74,516.45Zm297.6-10.18c-.49-3.94-1.15-7.9-2-11.79l1-.2c.81,3.91,1.48,7.9,2,11.87Zm-295.86-5.65-1-.17c.65-3.95,1.47-7.91,2.42-11.78l1,.24C663.93,492.75,663.12,496.69,662.48,500.62Zm293-10c-.91-3.86-2-7.73-3.21-11.51l1-.31c1.22,3.81,2.31,7.71,3.22,11.59ZM665.9,485.05l-1-.26c1.07-3.85,2.3-7.7,3.67-11.46l.94.34C668.18,477.4,667,481.23,665.9,485.05ZM951,475.3c-1.32-3.74-2.8-7.47-4.42-11.1l.92-.4c1.62,3.65,3.12,7.41,4.44,11.17ZM671,469.94l-.93-.37c1.47-3.72,3.11-7.42,4.88-11l.9.44C674.06,462.57,672.43,466.24,671,469.94Zm274-9.34c-1.71-3.58-3.59-7.14-5.59-10.57l.87-.5c2,3.46,3.9,7,5.62,10.64Zm-267.33-5.16-.88-.46c1.86-3.54,3.89-7.05,6-10.42l.84.53C681.5,448.45,679.48,451.93,677.63,455.44Zm259.7-8.82c-2.08-3.37-4.33-6.71-6.67-9.91l.8-.59c2.37,3.22,4.63,6.58,6.72,10ZM685.8,441.75l-.83-.56c2.24-3.32,4.62-6.59,7.11-9.71l.78.62C690.39,435.21,688,438.45,685.8,441.75Zm242.46-8.22c-2.43-3.14-5-6.22-7.69-9.15l.74-.68c2.69,3,5.29,6.06,7.74,9.22ZM695.38,429l-.76-.64c2.56-3.06,5.29-6.06,8.09-8.91l.71.7C700.64,423,697.93,426,695.38,429Zm222.47-7.54c-2.76-2.87-5.65-5.66-8.62-8.29l.66-.75c3,2.65,5.91,5.46,8.68,8.34Zm-211.6-4.11-.69-.72c2.88-2.78,5.9-5.47,9-8l.63.77C712.12,411.92,709.12,414.6,706.25,417.36Zm200-6.79c-3-2.56-6.21-5-9.44-7.33l.58-.81c3.25,2.32,6.45,4.8,9.51,7.38Zm-187.92-3.65-.61-.79c3.16-2.45,6.45-4.81,9.78-7l.55.84C724.7,402.14,721.43,404.48,718.29,406.92ZM893.49,401c-3.29-2.22-6.72-4.34-10.17-6.29l.49-.87c3.48,2,6.92,4.09,10.24,6.33Zm-162.12-3.14-.53-.85c3.4-2.11,6.92-4.1,10.47-5.93l.46.89C738.24,393.75,734.74,395.73,731.37,397.83Zm148.44-5.06c-3.51-1.86-7.14-3.6-10.79-5.17l.4-.92c3.67,1.58,7.32,3.33,10.86,5.2Zm-134.48-2.6-.44-.9c3.61-1.73,7.32-3.33,11-4.77l.36.94C752.59,386.86,748.9,388.45,745.33,390.17Zm120-4.1c-3.69-1.47-7.48-2.81-11.28-4l.29-.95c3.83,1.18,7.65,2.52,11.36,4Zm-105.3-2-.33-.94c3.76-1.33,7.63-2.53,11.49-3.56l.26,1C767.61,381.54,763.77,382.73,760,384.05ZM850.22,381c-3.82-1.06-7.73-2-11.63-2.74l.19-1c3.92.76,7.86,1.69,11.71,2.76Zm-74.91-1.43-.23-1c3.89-.92,7.86-1.7,11.81-2.31l.15,1C783.12,377.86,779.17,378.63,775.31,379.54Zm59.36-2c-3.91-.64-7.9-1.14-11.86-1.48l.08-1c4,.34,8,.85,11.94,1.5ZM791,376.7l-.13-1c4-.5,8-.85,12-1l0,1C798.92,375.85,794.92,376.2,791,376.7Zm27.84-.94c-2.92-.17-5.89-.26-8.83-.26h0c-1,0-2.08,0-3.11,0l0-1c1,0,2.08,0,3.13,0h0c3,0,6,.09,8.89.26Z"/><rect class="cls-11" x="1013.29" y="-582.23" width="1" height="2026.35" transform="translate(174.96 1144.98) rotate(-63.43)"/><rect class="cls-12" x="509.03" y="537.75" width="1532.36" height="1" transform="translate(-7.1 1059.36) rotate(-45)"/><rect class="cls-13" x="353.78" y="537.75" width="1528.34" height="1" transform="translate(-53.23 947.96) rotate(-44.99)"/><rect class="cls-14" x="261.91" y="537.75" width="1532.28" height="1" transform="translate(-79.55 884.4) rotate(-44.99)"/><rect class="cls-15" x="172" y="537.75" width="1532.36" height="1" transform="translate(-105.82 821.04) rotate(-45)"/></g></svg>