<svg xmlns="http://www.w3.org/2000/svg" xmlns:xlink="http://www.w3.org/1999/xlink" viewBox="0 0 1920 1080"><defs><style>.cls-1{fill:#082b96;}.cls-2{fill:#4672e2;}.cls-3{fill:url(#linear-gradient);}.cls-4{fill:url(#linear-gradient-2);}.cls-5{fill:#fff;}.cls-6{fill:url(#linear-gradient-3);}.cls-7{fill:url(#linear-gradient-4);}.cls-8{fill:url(#linear-gradient-5);}.cls-9{fill:url(#linear-gradient-6);}</style><linearGradient id="linear-gradient" x1="699.5" y1="540" x2="700.5" y2="540" gradientUnits="userSpaceOnUse"><stop offset="0" stop-color="#fff" stop-opacity="0"/><stop offset="0.51" stop-color="#fff"/><stop offset="1" stop-color="#fff" stop-opacity="0"/></linearGradient><linearGradient id="linear-gradient-2" x1="520" y1="245" x2="1400" y2="245" xlink:href="#linear-gradient"/><linearGradient id="linear-gradient-3" x1="12702.43" y1="8835.57" x2="13782.43" y2="8835.57" gradientTransform="translate(10235.57 -12702.43) rotate(90)" xlink:href="#linear-gradient"/><linearGradient id="linear-gradient-4" x1="12702.43" y1="9715.57" x2="13782.43" y2="9715.57" gradientTransform="translate(10235.57 -12702.43) rotate(90)" xlink:href="#linear-gradient"/><linearGradient id="linear-gradient-5" x1="12282.42" y1="8860.57" x2="14202.42" y2="8860.57" gradientTransform="translate(14202.43 9815.57) rotate(180)" xlink:href="#linear-gradient"/><linearGradient id="linear-gradient-6" x1="12282.42" y1="9690.57" x2="14202.42" y2="9690.57" gradientTransform="translate(14202.43 9815.57) rotate(180)" xlink:href="#linear-gradient"/></defs><g id="Background"><rect class="cls-1" width="1920" height="1080"/></g><g id="Graphics"><rect class="cls-2" x="700" y="250" width="10" height="120"/><rect class="cls-2" x="705" y="295" width="35" height="10"/><rect class="cls-2" x="699.44" y="281.58" width="37.97" height="10" transform="translate(7.78 591.94) rotate(-45)"/><rect class="cls-2" x="685" y="330" width="17.19" height="10"/><path class="cls-2" d="M710,355V345a10,10,0,0,0,0-20V315a20,20,0,0,1,0,40Z"/><path class="cls-2" d="M725,265H715a10,10,0,0,0-20,0H685a20,20,0,0,1,40,0Z"/><path class="cls-2" d="M949.68,705h-10A59.84,59.84,0,1,0,820,705H810a69.84,69.84,0,1,1,139.68,0Z"/><rect class="cls-2" x="742.22" y="460" width="155.56" height="10" transform="translate(-88.63 716.02) rotate(-45)"/><path class="cls-2" d="M1160,715H760V457.07l-20,20V505H700V365H800a95.11,95.11,0,0,1,95,95v25h170a95.11,95.11,0,0,1,95,95ZM770,705h380V580a85.1,85.1,0,0,0-85-85H885V460a85.1,85.1,0,0,0-85-85H710V495h20V472.93l56.46-56.47,7.08,7.08L770,447.07Z"/><polygon class="cls-2" points="1155 685 1055 685 1055 490 1065 490 1065 675 1155 675 1155 685"/><path class="cls-2" d="M955,625a70.08,70.08,0,0,1-70-70V485h140v70A70.08,70.08,0,0,1,955,625ZM895,495v60a60.07,60.07,0,0,0,60,60h0a60.07,60.07,0,0,0,60-60V495Z"/><polygon class="cls-2" points="745 410 705 410 705 400 735 400 735 370 745 370 745 410"/><rect class="cls-3" x="699.5" y="125" width="1" height="830"/><rect class="cls-4" x="520" y="244.5" width="880" height="1"/><path class="cls-5" d="M955,365.62a61,61,0,0,1-14.27-1.69l.29-1.22a59.15,59.15,0,0,0,14,1.67h.73l0,1.25Zm5.79-.27-.12-1.24a59,59,0,0,0,14.45-3.24l.42,1.17A60.06,60.06,0,0,1,960.79,365.35Zm-24.91-2.82A60.37,60.37,0,0,1,922.25,356l.68-1.05a59.54,59.54,0,0,0,13.34,6.4Zm44.34-2.4L979.7,359a59.81,59.81,0,0,0,12.57-7.8l.79,1A61.3,61.3,0,0,1,980.22,360.13Zm-62.1-7a61.39,61.39,0,0,1-10.75-10.62l1-.77a60.32,60.32,0,0,0,10.54,10.4Zm78.73-4.27-.86-.9a59.55,59.55,0,0,0,9.35-11.47l1.06.66A60.7,60.7,0,0,1,996.85,348.82Zm-92.44-10.44a60.84,60.84,0,0,1-6.7-13.55l1.18-.41a59.62,59.62,0,0,0,6.56,13.27Zm104.49-5.65-1.11-.58a58.48,58.48,0,0,0,5.09-13.89l1.22.28A60.13,60.13,0,0,1,1008.9,332.73ZM896.25,320a60.83,60.83,0,0,1-1.87-15h1.24a59.29,59.29,0,0,0,1.84,14.68ZM1015,313.57l-1.24-.17a58.91,58.91,0,0,0,.6-8.4v-6.49h1.24V305A61.19,61.19,0,0,1,1015,313.57ZM895.62,300h-1.24V285h1.24Zm120-6.49h-1.24v-15h1.24ZM895.62,280h-1.24V265h1.24Zm120-6.49h-1.24v-15h1.24ZM895.62,260h-1.24V244.38h9.13v1.24h-7.89Zm120-6.49h-1.24v-7.89h-5.87v-1.24h7.11Zm-12.11-7.89h-15v-1.24h15Zm-20,0h-15v-1.24h15Zm-20,0h-15v-1.24h15Zm-20,0h-15v-1.24h15Zm-20,0h-15v-1.24h15Z"/><path class="cls-5" d="M955,485.62a61,61,0,0,1-14.27-1.69l.29-1.22a59.15,59.15,0,0,0,14,1.67h.73l0,1.25Zm5.79-.27-.12-1.24a59,59,0,0,0,14.45-3.24l.42,1.17A60.06,60.06,0,0,1,960.79,485.35Zm-24.91-2.82A60.37,60.37,0,0,1,922.25,476l.68-1.05a59.54,59.54,0,0,0,13.34,6.4Zm44.34-2.4L979.7,479a59.81,59.81,0,0,0,12.57-7.8l.79,1A61.3,61.3,0,0,1,980.22,480.13Zm-62.1-7a61.39,61.39,0,0,1-10.75-10.62l1-.77a60.32,60.32,0,0,0,10.54,10.4Zm78.73-4.27-.86-.9a59.55,59.55,0,0,0,9.35-11.47l1.06.66A60.7,60.7,0,0,1,996.85,468.82Zm-92.44-10.44a60.62,60.62,0,0,1-6.7-13.55l1.18-.41a59.62,59.62,0,0,0,6.56,13.27Zm104.49-5.65-1.11-.58a58.48,58.48,0,0,0,5.09-13.89l1.22.28A60.13,60.13,0,0,1,1008.9,452.73ZM896.25,440a60.83,60.83,0,0,1-1.87-15h1.24a59.43,59.43,0,0,0,1.84,14.69ZM1015,433.57l-1.24-.17a58.91,58.91,0,0,0,.6-8.4v-6.49h1.24V425A61.19,61.19,0,0,1,1015,433.57ZM895.62,420h-1.24V405h1.24Zm120-6.49h-1.24v-15h1.24ZM895.62,400h-1.24V385h1.24Zm120-6.49h-1.24v-15h1.24ZM895.62,380h-1.24V364.38h9.13v1.24h-7.89Zm120-6.49h-1.24v-7.89h-5.87v-1.24h7.11Zm-12.11-7.89h-15v-1.24h15Zm-20,0h-15v-1.24h15Zm-20,0h-15v-1.24h15Zm-20,0h-15v-1.24h15Zm-20,0h-15v-1.24h15Z"/><path class="cls-5" d="M955,245.62a61,61,0,0,1-14.27-1.69l.29-1.22a59.15,59.15,0,0,0,14,1.67h.73l0,1.25Zm5.79-.27-.12-1.24a59.09,59.09,0,0,0,14.45-3.24l.42,1.17A60.06,60.06,0,0,1,960.79,245.35Zm-24.91-2.81A60.84,60.84,0,0,1,922.25,236l.68-1.05a59.54,59.54,0,0,0,13.34,6.4Zm44.34-2.41L979.7,239a59.81,59.81,0,0,0,12.57-7.8l.79,1A61.3,61.3,0,0,1,980.22,240.13Zm-62.1-7a61.39,61.39,0,0,1-10.75-10.62l1-.77a60.32,60.32,0,0,0,10.54,10.4Zm78.73-4.27-.86-.9a59.55,59.55,0,0,0,9.35-11.47l1.06.66A60.7,60.7,0,0,1,996.85,228.82Zm-92.44-10.44a60.62,60.62,0,0,1-6.7-13.55l1.18-.41a59.62,59.62,0,0,0,6.56,13.27Zm104.49-5.65-1.11-.58a58.48,58.48,0,0,0,5.09-13.89l1.22.28A60.13,60.13,0,0,1,1008.9,212.73ZM896.25,200a60.83,60.83,0,0,1-1.87-15h1.24a59.29,59.29,0,0,0,1.84,14.68ZM1015,193.57l-1.24-.17a58.91,58.91,0,0,0,.6-8.4v-6.49h1.24V185A61.19,61.19,0,0,1,1015,193.57ZM895.62,180h-1.24V165h1.24Zm120-6.49h-1.24v-15h1.24ZM895.62,160h-1.24V145h1.24Zm120-6.49h-1.24v-15h1.24ZM895.62,140h-1.24V124.38h9.13v1.24h-7.89Zm120-6.49h-1.24v-7.89h-5.87v-1.24h7.11Zm-12.11-7.89h-15v-1.24h15Zm-20,0h-15v-1.24h15Zm-20,0h-15v-1.24h15Zm-20,0h-15v-1.24h15Zm-20,0h-15v-1.24h15Z"/><path class="cls-5" d="M700,615.62a61,61,0,0,1-14.27-1.69l.29-1.22a59.15,59.15,0,0,0,14,1.67h.73l0,1.25Zm5.79-.27-.12-1.24a59,59,0,0,0,14.45-3.24l.42,1.17A60.06,60.06,0,0,1,705.79,615.35Zm-24.91-2.82A60.37,60.37,0,0,1,667.25,606l.68-1a59.54,59.54,0,0,0,13.34,6.4Zm44.34-2.4L724.7,609a59.81,59.81,0,0,0,12.57-7.8l.79,1A61.3,61.3,0,0,1,725.22,610.13Zm-62.1-7a61.39,61.39,0,0,1-10.75-10.62l1-.77a60.32,60.32,0,0,0,10.54,10.4Zm78.73-4.27-.86-.9a59.55,59.55,0,0,0,9.35-11.47l1.06.66A60.7,60.7,0,0,1,741.85,598.82Zm-92.44-10.44a60.62,60.62,0,0,1-6.7-13.55l1.18-.41a59.62,59.62,0,0,0,6.56,13.27Zm104.49-5.65-1.11-.58a58.48,58.48,0,0,0,5.09-13.89l1.22.28A60.13,60.13,0,0,1,753.9,582.73ZM641.25,570a60.83,60.83,0,0,1-1.87-15h1.24a59.43,59.43,0,0,0,1.84,14.69ZM760,563.57l-1.24-.17a58.91,58.91,0,0,0,.6-8.4v-6.49h1.24V555A61.19,61.19,0,0,1,760,563.57ZM640.62,550h-1.24V535h1.24Zm120-6.49h-1.24v-15h1.24ZM640.62,530h-1.24V515h1.24Zm120-6.49h-1.24v-15h1.24ZM640.62,510h-1.24V494.38h9.13v1.24h-7.89Zm120-6.49h-1.24v-7.89h-5.87v-1.24h7.11Zm-12.11-7.89h-15v-1.24h15Zm-20,0h-15v-1.24h15Zm-20,0h-15v-1.24h15Zm-20,0h-15v-1.24h15Zm-20,0h-15v-1.24h15Z"/><path class="cls-5" d="M580,615.62a61,61,0,0,1-14.27-1.69l.29-1.22a59.15,59.15,0,0,0,14,1.67h.73l0,1.25Zm5.79-.27-.12-1.24a59,59,0,0,0,14.45-3.24l.42,1.17A60.06,60.06,0,0,1,585.79,615.35Zm-24.91-2.82A60.37,60.37,0,0,1,547.25,606l.68-1a59.54,59.54,0,0,0,13.34,6.4Zm44.34-2.4L604.7,609a59.81,59.81,0,0,0,12.57-7.8l.79,1A61.3,61.3,0,0,1,605.22,610.13Zm-62.1-7a61.39,61.39,0,0,1-10.75-10.62l1-.77a60.32,60.32,0,0,0,10.54,10.4Zm78.73-4.27-.86-.9a59.55,59.55,0,0,0,9.35-11.47l1.06.66A60.7,60.7,0,0,1,621.85,598.82Zm-92.44-10.44a60.62,60.62,0,0,1-6.7-13.55l1.18-.41a59.62,59.62,0,0,0,6.56,13.27Zm104.49-5.65-1.11-.58a58.48,58.48,0,0,0,5.09-13.89l1.22.28A60.13,60.13,0,0,1,633.9,582.73ZM521.25,570a60.83,60.83,0,0,1-1.87-15h1.24a59.43,59.43,0,0,0,1.84,14.69ZM640,563.57l-1.24-.17a58.91,58.91,0,0,0,.6-8.4v-6.49h1.24V555A61.19,61.19,0,0,1,640,563.57ZM520.62,550h-1.24V535h1.24Zm120-6.49h-1.24v-15h1.24ZM520.62,530h-1.24V515h1.24Zm120-6.49h-1.24v-15h1.24ZM520.62,510h-1.24V494.38h9.13v1.24h-7.89Zm120-6.49h-1.24v-7.89h-5.87v-1.24h7.11Zm-12.11-7.89h-15v-1.24h15Zm-20,0h-15v-1.24h15Zm-20,0h-15v-1.24h15Zm-20,0h-15v-1.24h15Zm-20,0h-15v-1.24h15Z"/><path class="cls-5" d="M1220,715.62a61,61,0,0,1-14.27-1.69l.29-1.22a59.15,59.15,0,0,0,14,1.67h.73l0,1.25Zm5.79-.27-.12-1.24a59,59,0,0,0,14.45-3.24l.42,1.17A60.06,60.06,0,0,1,1225.79,715.35Zm-24.91-2.82a60.37,60.37,0,0,1-13.63-6.53l.68-1a59.54,59.54,0,0,0,13.34,6.4Zm44.34-2.4-.52-1.14a59.81,59.81,0,0,0,12.57-7.8l.79,1A61.3,61.3,0,0,1,1245.22,710.13Zm-62.1-7a61.39,61.39,0,0,1-10.75-10.62l1-.77a60.32,60.32,0,0,0,10.54,10.4Zm78.73-4.27-.86-.9a59.55,59.55,0,0,0,9.35-11.47l1.06.66A60.7,60.7,0,0,1,1261.85,698.82Zm-92.44-10.44a60.62,60.62,0,0,1-6.7-13.55l1.18-.41a59.62,59.62,0,0,0,6.56,13.27Zm104.49-5.65-1.11-.58a58.48,58.48,0,0,0,5.09-13.89l1.22.28A60.13,60.13,0,0,1,1273.9,682.73ZM1161.25,670a60.83,60.83,0,0,1-1.87-15h1.24a59.43,59.43,0,0,0,1.84,14.69ZM1280,663.57l-1.24-.17a58.91,58.91,0,0,0,.6-8.4v-6.49h1.24V655A61.19,61.19,0,0,1,1280,663.57ZM1160.62,650h-1.24V635h1.24Zm120-6.49h-1.24v-15h1.24Zm-120-13.51h-1.24V615h1.24Zm120-6.49h-1.24v-15h1.24Zm-120-13.51h-1.24V594.38h9.13v1.24h-7.89Zm120-6.49h-1.24v-7.89h-5.87v-1.24h7.11Zm-12.11-7.89h-15v-1.24h15Zm-20,0h-15v-1.24h15Zm-20,0h-15v-1.24h15Zm-20,0h-15v-1.24h15Zm-20,0h-15v-1.24h15Z"/><path class="cls-5" d="M1340,715.62a61,61,0,0,1-14.27-1.69l.29-1.22a59.15,59.15,0,0,0,14,1.67h.73l0,1.25Zm5.79-.27-.12-1.24a59,59,0,0,0,14.45-3.24l.42,1.17A60.06,60.06,0,0,1,1345.79,715.35Zm-24.91-2.82a60.37,60.37,0,0,1-13.63-6.53l.68-1a59.54,59.54,0,0,0,13.34,6.4Zm44.34-2.4-.52-1.14a59.81,59.81,0,0,0,12.57-7.8l.79,1A61.3,61.3,0,0,1,1365.22,710.13Zm-62.1-7a61.39,61.39,0,0,1-10.75-10.62l1-.77a60.32,60.32,0,0,0,10.54,10.4Zm78.73-4.27-.86-.9a59.55,59.55,0,0,0,9.35-11.47l1.06.66A60.7,60.7,0,0,1,1381.85,698.82Zm-92.44-10.44a60.62,60.62,0,0,1-6.7-13.55l1.18-.41a59.62,59.62,0,0,0,6.56,13.27Zm104.49-5.65-1.11-.58a58.48,58.48,0,0,0,5.09-13.89l1.22.28A60.13,60.13,0,0,1,1393.9,682.73ZM1281.25,670a60.83,60.83,0,0,1-1.87-15h1.24a59.43,59.43,0,0,0,1.84,14.69ZM1400,663.57l-1.24-.17a58.91,58.91,0,0,0,.6-8.4v-6.49h1.24V655A61.19,61.19,0,0,1,1400,663.57ZM1280.62,650h-1.24V635h1.24Zm120-6.49h-1.24v-15h1.24Zm-120-13.51h-1.24V615h1.24Zm120-6.49h-1.24v-15h1.24Zm-120-13.51h-1.24V594.38h9.13v1.24h-7.89Zm120-6.49h-1.24v-7.89h-5.87v-1.24h7.11Zm-12.11-7.89h-15v-1.24h15Zm-20,0h-15v-1.24h15Zm-20,0h-15v-1.24h15Zm-20,0h-15v-1.24h15Zm-20,0h-15v-1.24h15Z"/><path class="cls-5" d="M955,955.62a61,61,0,0,1-14.27-1.69l.29-1.22a59.15,59.15,0,0,0,14,1.67h.73l0,1.25Zm5.79-.27-.12-1.24a59,59,0,0,0,14.45-3.24l.42,1.17A60.06,60.06,0,0,1,960.79,955.35Zm-24.91-2.82A60.37,60.37,0,0,1,922.25,946l.68-1a59.54,59.54,0,0,0,13.34,6.4Zm44.34-2.4L979.7,949a59.81,59.81,0,0,0,12.57-7.8l.79,1A61.3,61.3,0,0,1,980.22,950.13Zm-62.1-7a61.39,61.39,0,0,1-10.75-10.62l1-.77a60.32,60.32,0,0,0,10.54,10.4Zm78.73-4.27-.86-.9a59.55,59.55,0,0,0,9.35-11.47l1.06.66A60.7,60.7,0,0,1,996.85,938.82Zm-92.44-10.44a60.62,60.62,0,0,1-6.7-13.55l1.18-.41a59.62,59.62,0,0,0,6.56,13.27Zm104.49-5.65-1.11-.58a58.48,58.48,0,0,0,5.09-13.89l1.22.28A60.13,60.13,0,0,1,1008.9,922.73ZM896.25,910a60.83,60.83,0,0,1-1.87-15h1.24a59.43,59.43,0,0,0,1.84,14.69ZM1015,903.57l-1.24-.17a58.91,58.91,0,0,0,.6-8.4v-6.49h1.24V895A61.19,61.19,0,0,1,1015,903.57ZM895.62,890h-1.24V875h1.24Zm120-6.49h-1.24v-15h1.24ZM895.62,870h-1.24V855h1.24Zm120-6.49h-1.24v-15h1.24ZM895.62,850h-1.24V834.38h9.13v1.24h-7.89Zm120-6.49h-1.24v-7.89h-5.87v-1.24h7.11Zm-12.11-7.89h-15v-1.24h15Zm-20,0h-15v-1.24h15Zm-20,0h-15v-1.24h15Zm-20,0h-15v-1.24h15Zm-20,0h-15v-1.24h15Z"/><path class="cls-5" d="M955,835.62a61,61,0,0,1-14.27-1.69l.29-1.22a59.15,59.15,0,0,0,14,1.67h.73l0,1.25Zm5.79-.27-.12-1.24a59,59,0,0,0,14.45-3.24l.42,1.17A60.06,60.06,0,0,1,960.79,835.35Zm-24.91-2.82A60.37,60.37,0,0,1,922.25,826l.68-1a59.54,59.54,0,0,0,13.34,6.4Zm44.34-2.4L979.7,829a59.81,59.81,0,0,0,12.57-7.8l.79,1A61.3,61.3,0,0,1,980.22,830.13Zm-62.1-7a61.39,61.39,0,0,1-10.75-10.62l1-.77a60.32,60.32,0,0,0,10.54,10.4Zm78.73-4.27-.86-.9a59.55,59.55,0,0,0,9.35-11.47l1.06.66A60.7,60.7,0,0,1,996.85,818.82Zm-92.44-10.44a60.62,60.62,0,0,1-6.7-13.55l1.18-.41a59.62,59.62,0,0,0,6.56,13.27Zm104.49-5.65-1.11-.58a58.48,58.48,0,0,0,5.09-13.89l1.22.28A60.13,60.13,0,0,1,1008.9,802.73ZM896.25,790a60.83,60.83,0,0,1-1.87-15h1.24a59.43,59.43,0,0,0,1.84,14.69ZM1015,783.57l-1.24-.17a58.91,58.91,0,0,0,.6-8.4v-6.49h1.24V775A61.19,61.19,0,0,1,1015,783.57ZM895.62,770h-1.24V755h1.24Zm120-6.49h-1.24v-15h1.24ZM895.62,750h-1.24V735h1.24Zm120-6.49h-1.24v-15h1.24ZM895.62,730h-1.24V714.38h9.13v1.24h-7.89Zm120-6.49h-1.24v-7.89h-5.87v-1.24h7.11Zm-12.11-7.89h-15v-1.24h15Zm-20,0h-15v-1.24h15Zm-20,0h-15v-1.24h15Zm-20,0h-15v-1.24h15Zm-20,0h-15v-1.24h15Z"/><path class="cls-1" d="M895,495v60a60,60,0,0,0,120,0V495Z"/><path class="cls-5" d="M955,615.5A60.57,60.57,0,0,1,894.5,555V494.5h121V555A60.57,60.57,0,0,1,955,615.5Zm-59.5-120V555a59.5,59.5,0,0,0,119,0V495.5Z"/><rect class="cls-6" x="1399.5" width="1" height="1080"/><rect class="cls-7" x="519.5" width="1" height="1080"/><rect class="cls-8" y="954.5" width="1920" height="1"/><rect class="cls-9" y="124.5" width="1920" height="1"/></g></svg>