<svg xmlns="http://www.w3.org/2000/svg" xmlns:xlink="http://www.w3.org/1999/xlink" viewBox="0 0 1920 1080"><defs><style>.cls-1,.cls-10,.cls-11,.cls-2,.cls-3,.cls-4,.cls-5,.cls-6,.cls-7,.cls-8,.cls-9{fill:none;stroke-miterlimit:10;}.cls-1{stroke:#4672e2;stroke-width:30px;}.cls-2{stroke:url(#linear-gradient);}.cls-3{stroke:url(#linear-gradient-2);}.cls-4{stroke:url(#linear-gradient-3);}.cls-5{stroke:url(#linear-gradient-4);}.cls-6{stroke:url(#linear-gradient-5);}.cls-7{stroke:url(#linear-gradient-6);}.cls-8{stroke:url(#linear-gradient-7);}.cls-9{stroke:url(#linear-gradient-8);}.cls-10{stroke:url(#linear-gradient-9);}.cls-11{stroke:url(#linear-gradient-10);}</style><linearGradient id="linear-gradient" x1="961.77" y1="540" x2="1633.23" y2="540" gradientUnits="userSpaceOnUse"><stop offset="0" stop-color="#fff" stop-opacity="0"/><stop offset="0.51" stop-color="#fff"/><stop offset="1" stop-color="#fff" stop-opacity="0"/></linearGradient><linearGradient id="linear-gradient-2" x1="750" y1="1080" x2="750" y2="0" xlink:href="#linear-gradient"/><linearGradient id="linear-gradient-3" x1="915" y1="1080" x2="915" y2="0" xlink:href="#linear-gradient"/><linearGradient id="linear-gradient-4" x1="1080" y1="1080" x2="1080" y2="0" xlink:href="#linear-gradient"/><linearGradient id="linear-gradient-5" x1="1245" y1="1080" x2="1245" y2="0" xlink:href="#linear-gradient"/><linearGradient id="linear-gradient-6" x1="1350" y1="1080" x2="1350" y2="0" xlink:href="#linear-gradient"/><linearGradient id="linear-gradient-7" x1="294.27" x2="965.73" xlink:href="#linear-gradient"/><linearGradient id="linear-gradient-8" x1="0" x2="1920" xlink:href="#linear-gradient"/><linearGradient id="linear-gradient-9" x1="0" y1="465" x2="1920" y2="465" xlink:href="#linear-gradient"/><linearGradient id="linear-gradient-10" x1="0" y1="615" x2="1920" y2="615" xlink:href="#linear-gradient"/></defs><g id="Graphics"><polyline class="cls-1" points="570 465 677.66 465 581.98 615 690 615"/><polyline class="cls-1" points="855 615 750.36 615 750 465 855 465"/><line class="cls-1" x1="855" y1="540" x2="750" y2="540"/><polyline class="cls-1" points="1020 615 915 615 915 465 1020 465"/><line class="cls-1" x1="1020" y1="540" x2="915" y2="540"/><polyline class="cls-1" points="1185 615 1080 615 1080 465 1185 465"/><line class="cls-1" x1="1185" y1="540" x2="1080" y2="540"/><polyline class="cls-1" points="1350 450 1350 615 1343.52 615 1251.6 465 1245 465 1245 630"/><line class="cls-2" x1="962.2" x2="1632.8" y2="1080"/><line class="cls-3" x1="750" x2="750" y2="1080"/><line class="cls-4" x1="915" x2="915" y2="1080"/><line class="cls-5" x1="1080" x2="1080" y2="1080"/><line class="cls-6" x1="1245" x2="1245" y2="1080"/><line class="cls-7" x1="1350" x2="1350" y2="1080"/><line class="cls-8" x1="294.7" y1="1080" x2="965.3"/><line class="cls-9" x1="1920" y1="540" y2="540"/><line class="cls-10" x1="1920" y1="465" y2="465"/><line class="cls-11" x1="1920" y1="615" y2="615"/></g></svg>