<svg xmlns="http://www.w3.org/2000/svg" viewBox="0 0 1920 1080"><defs><style>.cls-1{fill:#082b96;}.cls-2{fill:#061f6b;}.cls-3{fill:none;stroke:#fff;stroke-miterlimit:10;stroke-width:24px;}</style></defs><g id="Background"><rect class="cls-1" width="1920" height="1080"/></g><g id="Graphics"><path class="cls-2" d="M1296,846H624V234h672Z"/><polyline class="cls-3" points="780 390 866.13 390 789.58 510 876 510"/><polyline class="cls-3" points="1008 510 924.29 510 924 390 1008 390"/><line class="cls-3" x1="1008" y1="450" x2="924" y2="450"/><polyline class="cls-3" points="1140 510 1056 510 1056 390 1140 390"/><line class="cls-3" x1="1140" y1="450" x2="1056" y2="450"/><polyline class="cls-3" points="1008 690 924 690 924 570 1008 570"/><line class="cls-3" x1="1008" y1="630" x2="924" y2="630"/><polyline class="cls-3" points="1140 558 1140 690 1135.65 690 1060.36 570 1056 570 1056 702"/></g></svg>