<svg xmlns="http://www.w3.org/2000/svg" viewBox="0 0 1920 1080"><g id="Graphics"><rect x="648" y="192" width="12" height="144"/><rect x="654" y="246" width="42" height="12"/><rect x="647.33" y="229.89" width="45.57" height="12" transform="translate(29.45 542.89) rotate(-45)"/><rect x="630" y="288" width="20.62" height="12"/><path d="M660,318V306a12,12,0,0,0,0-24V270a24,24,0,0,1,0,48Z"/><path d="M678,210H666a12,12,0,0,0-24,0H630a24,24,0,0,1,48,0Z"/><rect x="698.66" y="444" width="186.68" height="12" transform="translate(-86.24 691.78) rotate(-45)"/><path d="M1200,750H720V440.49l-24,24V474a24,24,0,0,1-24,24H648V330H768A114.13,114.13,0,0,1,882,444v30h204a114.13,114.13,0,0,1,114,114ZM732,738h456V588a102.12,102.12,0,0,0-102-102H870V444A102.12,102.12,0,0,0,768,342H660V486h12a12,12,0,0,0,12-12V459.51l67.76-67.75,8.48,8.48L732,428.49Z"/><path d="M1194,714a120.13,120.13,0,0,1-120-120V480h12V594a108.12,108.12,0,0,0,108,108Z"/><path d="M654,384V372a36,36,0,0,0,36-36h12A48.05,48.05,0,0,1,654,384Z"/><path d="M858.57,744h-12A120.71,120.71,0,0,0,726,623.43v-12C799.1,611.43,858.57,670.9,858.57,744Z"/><path d="M986.42,642H921.58A51.64,51.64,0,0,1,870,590.42V474h168V590.42A51.64,51.64,0,0,1,986.42,642ZM882,486V590.42A39.63,39.63,0,0,0,921.58,630h64.84A39.63,39.63,0,0,0,1026,590.42V486Z"/></g></svg>