<svg xmlns="http://www.w3.org/2000/svg" viewBox="0 0 1920 1080"><defs><style>.cls-1,.cls-2{fill:none;stroke:#000;stroke-miterlimit:10;}.cls-1{stroke-width:17.69px;}.cls-2{stroke-width:20.43px;}</style></defs><g id="Graphics"><line class="cls-1" x1="351.14" y1="336" x2="351.14" y2="192"/><line class="cls-1" x1="351.14" y1="252" x2="442.45" y2="252"/><line class="cls-1" x1="351.14" y1="252" x2="421.18" y2="219.78"/><line class="cls-1" x1="343.8" y1="294" x2="298.97" y2="294"/><path class="cls-2" d="M351.14,276c28.82,0,52.18,8.06,52.18,18S380,312,351.14,312"/><path class="cls-1" d="M390.27,210c0-9.94-17.52-18-39.13-18S312,200.06,312,210"/><path class="cls-1" d="M638.09,738c0-43,75.73-77.81,169.14-77.81h0c93.42,0,169.14,34.84,169.14,77.81"/><line class="cls-1" x1="794.61" y1="384" x2="507.66" y2="516"/><path class="cls-1" d="M572.88,396,429.4,462v30H351.14V336H599c129.67,0,234.78,48.35,234.78,108v36h456.51C1419.92,480,1525,528.35,1525,588V744H507.66V426"/><polyline class="cls-1" points="1525.03 708 1277.21 708 1277.21 480"/><polyline class="cls-1" points="442.45 336 442.45 378 351.14 378"/><path class="cls-1" d="M833.74,480h339.12a0,0,0,0,1,0,0v41a115,115,0,0,1-115,115H948.74a115,115,0,0,1-115-115V480A0,0,0,0,1,833.74,480Z"/></g></svg>