<svg xmlns="http://www.w3.org/2000/svg" viewBox="0 0 204 132"><defs><style>.cls-1{fill:#777d7e;}</style></defs><g id="Graphics"><path class="cls-1" d="M203,1V131H1V1H203m1-1H0V132H204V0Z"/></g><g id="Isolation_Mode" data-name="Isolation Mode"><path d="M52.68,85h-3L49,86.67H48l2.71-7h1l2.68,7h-1Zm-2.74-.8h2.44l-1.2-3.27Z"/><path d="M55.92,86.67H55v-5h.87v.9a1.54,1.54,0,0,1,1.43-.9h.38v.84h-.39a1.18,1.18,0,0,0-1,.54,2.53,2.53,0,0,0-.38,1.49Z"/><path d="M58.43,82.4v-.73h.87V80.05h.89v1.62h1.26v.73H60.19v2.8a.87.87,0,0,0,.14.55.66.66,0,0,0,.48.15h.77v.77h-.9a1.39,1.39,0,0,1-1-.35,1.32,1.32,0,0,1-.36-1V82.4Z"/><path d="M63.15,80.85h-.89V79.66h.89Zm0,5.82h-.89v-5h.89Z"/><path d="M66.16,86.79a2.41,2.41,0,0,1-1.54-.45,1.58,1.58,0,0,1-.63-1.2l.89-.13a1.2,1.2,0,0,0,.38.81,1.31,1.31,0,0,0,.9.26,1.28,1.28,0,0,0,.79-.21.77.77,0,0,0,.27-.64c0-.39-.3-.63-.88-.71l-.72-.12a2,2,0,0,1-1.1-.47,1.24,1.24,0,0,1-.37-.94,1.27,1.27,0,0,1,.51-1A2.15,2.15,0,0,1,66,81.54a2.21,2.21,0,0,1,1.37.4A1.75,1.75,0,0,1,68,83.09l-.82.11a1.31,1.31,0,0,0-.4-.73,1.26,1.26,0,0,0-.79-.22,1.23,1.23,0,0,0-.74.19.6.6,0,0,0-.27.5.59.59,0,0,0,.18.46,1.16,1.16,0,0,0,.6.23l.8.13c1,.17,1.52.64,1.52,1.44a1.44,1.44,0,0,1-.53,1.16A2.19,2.19,0,0,1,66.16,86.79Z"/><path d="M68.36,82.4v-.73h.88V80.05h.89v1.62h1.26v.73H70.13v2.8a.81.81,0,0,0,.14.55.63.63,0,0,0,.48.15h.76v.77h-.9a1.39,1.39,0,0,1-1-.35,1.35,1.35,0,0,1-.35-1V82.4Z"/><path d="M73.08,80.85H72.2V79.66h.88Zm0,5.82H72.2v-5h.88Z"/><path d="M76.35,86a1.25,1.25,0,0,0,.9-.32,1.33,1.33,0,0,0,.41-.89l.87.11a2,2,0,0,1-.69,1.35,2.45,2.45,0,0,1-3.22-.2,2.72,2.72,0,0,1-.63-1.9,2.77,2.77,0,0,1,.64-1.91,2.18,2.18,0,0,1,1.72-.73,2.26,2.26,0,0,1,1.51.48,2,2,0,0,1,.7,1.36l-.91.11a1.22,1.22,0,0,0-1.31-1.19,1.25,1.25,0,0,0-1,.5,2.24,2.24,0,0,0-.38,1.38,2.18,2.18,0,0,0,.38,1.36A1.27,1.27,0,0,0,76.35,86Z"/><path d="M83.66,85.92h.24v.75h-.48a1.12,1.12,0,0,1-.66-.19.69.69,0,0,1-.3-.52,1.76,1.76,0,0,1-1.58.83,1.89,1.89,0,0,1-1.26-.41,1.31,1.31,0,0,1-.48-1,1.42,1.42,0,0,1,.39-1,2.06,2.06,0,0,1,1.12-.52l1.46-.24a.34.34,0,0,0,.31-.37.85.85,0,0,0-.29-.66,1.18,1.18,0,0,0-.8-.25,1.32,1.32,0,0,0-.81.22,1.22,1.22,0,0,0-.41.7l-.84-.09A1.68,1.68,0,0,1,80,82a2.23,2.23,0,0,1,1.41-.43,2,2,0,0,1,1.42.48,1.68,1.68,0,0,1,.51,1.28v2.25a.44.44,0,0,0,.08.29A.39.39,0,0,0,83.66,85.92ZM80,85.26a.73.73,0,0,0,.25.6,1.09,1.09,0,0,0,.71.21,1.34,1.34,0,0,0,1-.45,1.68,1.68,0,0,0,.41-1.18v-.28l-1.6.27a1.09,1.09,0,0,0-.6.28A.77.77,0,0,0,80,85.26Z"/><path d="M85.42,86.67h-.89v-7h.89Z"/><path d="M87.54,86.67h-.89v-7h.89Z"/><path d="M90,87.13l.16-.44-2-5h.94l1.48,3.93,1.5-3.93H93l-2.18,5.56a2.14,2.14,0,0,1-.68,1,1.73,1.73,0,0,1-1,.28H88.6v-.76h.52a.9.9,0,0,0,.55-.14A1,1,0,0,0,90,87.13Z"/><path d="M96.64,86.67h-1v-7h4.92v.82h-4v2.28h3.55v.82H96.64Z"/><path d="M102.07,86.67h-.88v-5h.86v.9a1.56,1.56,0,0,1,1.43-.9h.39v.84h-.39a1.21,1.21,0,0,0-1,.54,2.61,2.61,0,0,0-.38,1.49Z"/><path d="M104.11,84.17a2.68,2.68,0,0,1,.66-1.9,2.26,2.26,0,0,1,1.77-.73,2.31,2.31,0,0,1,1.78.73,3,3,0,0,1,0,3.79,2.31,2.31,0,0,1-1.78.73,2.26,2.26,0,0,1-1.77-.73A2.67,2.67,0,0,1,104.11,84.17Zm3.56,1.36a2.48,2.48,0,0,0,0-2.73,1.37,1.37,0,0,0-1.13-.5,1.35,1.35,0,0,0-1.12.5,2.55,2.55,0,0,0,0,2.74,1.51,1.51,0,0,0,2.25,0Z"/><path d="M114,83.91v2.76h-.89V83.58a1.38,1.38,0,0,0-.29-.93,1,1,0,0,0-.8-.34,1.11,1.11,0,0,0-.93.41,1.86,1.86,0,0,0-.32,1.19v2.76h-.89v-5h.87v.61a1.68,1.68,0,0,1,1.47-.74,1.81,1.81,0,0,1,1,.24,1.44,1.44,0,0,1,.62.67,1.67,1.67,0,0,1,1.61-.91,1.76,1.76,0,0,1,1.34.51,1.87,1.87,0,0,1,.49,1.37v3.25h-.89V83.58a1.38,1.38,0,0,0-.29-.93,1,1,0,0,0-.8-.34,1.11,1.11,0,0,0-.93.41A1.86,1.86,0,0,0,114,83.91Z"/><path d="M121.55,86.67h-1v-7h1Z"/><path d="M123.77,86.67h-.89v-5h.87v.9a1.56,1.56,0,0,1,1.43-.9h.39v.84h-.4a1.2,1.2,0,0,0-1,.54,2.61,2.61,0,0,0-.38,1.49Z"/><path d="M130.33,85.92h.24v.75h-.48a1.17,1.17,0,0,1-.66-.19.75.75,0,0,1-.3-.52,1.76,1.76,0,0,1-1.58.83,1.89,1.89,0,0,1-1.26-.41,1.31,1.31,0,0,1-.48-1,1.42,1.42,0,0,1,.39-1,2.09,2.09,0,0,1,1.12-.52l1.46-.24a.34.34,0,0,0,.31-.37.82.82,0,0,0-.29-.66,1.16,1.16,0,0,0-.8-.25,1.32,1.32,0,0,0-.81.22,1.27,1.27,0,0,0-.41.7l-.84-.09a1.72,1.72,0,0,1,.68-1.12,2.25,2.25,0,0,1,1.41-.43,2,2,0,0,1,1.42.48A1.68,1.68,0,0,1,130,83.3v2.25a.39.39,0,0,0,.09.29A.36.36,0,0,0,130.33,85.92Zm-3.64-.66a.74.74,0,0,0,.26.6,1.06,1.06,0,0,0,.7.21,1.36,1.36,0,0,0,1-.45,1.72,1.72,0,0,0,.4-1.18v-.28l-1.6.27a1.12,1.12,0,0,0-.6.28A.77.77,0,0,0,126.69,85.26Z"/><path d="M135.5,83.42v3.25h-.89V83.58a1.36,1.36,0,0,0-.3-.94,1.15,1.15,0,0,0-.88-.33,1.24,1.24,0,0,0-1,.41,1.85,1.85,0,0,0-.34,1.19v2.76h-.89v-5h.87v.63a1.74,1.74,0,0,1,1.56-.76,1.83,1.83,0,0,1,1.37.51A1.88,1.88,0,0,1,135.5,83.42Z"/><path d="M52,96H48V90.28h3.85V91H48.82v1.82h2.74v.65H48.82v1.91H52Z"/><path d="M54.79,96.1a2.51,2.51,0,0,1-1.64-.5,1.72,1.72,0,0,1-.62-1.36l.77-.1a1.31,1.31,0,0,0,.41,1,1.62,1.62,0,0,0,1.08.33,1.37,1.37,0,0,0,.89-.27,1,1,0,0,0,.32-.75.74.74,0,0,0-.23-.59,1.8,1.8,0,0,0-.78-.32l-.76-.17a2.22,2.22,0,0,1-1.16-.56,1.42,1.42,0,0,1-.37-1,1.45,1.45,0,0,1,.53-1.12,2.07,2.07,0,0,1,1.39-.45,2.23,2.23,0,0,1,1.44.43,1.76,1.76,0,0,1,.61,1.22l-.78.1a1.14,1.14,0,0,0-1.27-1.11,1.27,1.27,0,0,0-.85.25.8.8,0,0,0-.3.66.78.78,0,0,0,.22.6,1.34,1.34,0,0,0,.71.33l.89.19a2.17,2.17,0,0,1,1.13.53,1.38,1.38,0,0,1,.36,1,1.6,1.6,0,0,1-.54,1.23A2.15,2.15,0,0,1,54.79,96.1Z"/><path d="M57,90.28h4.34V91H59.58v5H58.8V91H57Z"/><path d="M66.15,91.8a.9.9,0,0,0-.27-.69,1,1,0,0,0-.72-.25,1.12,1.12,0,0,0-.93.39,1.8,1.8,0,0,0-.29,1.15l-.75-.1a1.91,1.91,0,0,1,.49-1.54,2,2,0,0,1,1.48-.57,1.81,1.81,0,0,1,1.3.44,1.56,1.56,0,0,1,.48,1.17,2.09,2.09,0,0,1-.29,1,5.13,5.13,0,0,1-.94,1.11l-1.53,1.41h2.91V96H63.17v-.67l2-1.89a3.59,3.59,0,0,0,.72-.84A1.59,1.59,0,0,0,66.15,91.8Z"/><path d="M67.74,93.14A3.7,3.7,0,0,1,68.3,91a2,2,0,0,1,3.15,0,4.42,4.42,0,0,1,0,4.34,2,2,0,0,1-3.15,0A3.65,3.65,0,0,1,67.74,93.14Zm3.15,1.71a3.35,3.35,0,0,0,.36-1.71,3.31,3.31,0,0,0-.36-1.7,1.15,1.15,0,0,0-2,0,3.34,3.34,0,0,0-.36,1.69,3.46,3.46,0,0,0,.35,1.71,1.16,1.16,0,0,0,2,0Z"/><path d="M76.3,96H72.76v-.65h1.39V91.67a1.23,1.23,0,0,1-.65.15h-.77v-.64h.72A.68.68,0,0,0,74,91a1.09,1.09,0,0,0,.18-.69h.75v5.07H76.3Z"/><path d="M79.93,94.33a.89.89,0,0,0-.3-.72,1.21,1.21,0,0,0-.83-.26h-.52v-.59h.49a.94.94,0,0,0,.72-.27,1.07,1.07,0,0,0,.25-.76.84.84,0,0,0-.27-.66,1.14,1.14,0,0,0-.76-.24,1.2,1.2,0,0,0-.86.32,1.23,1.23,0,0,0-.34.87l-.71-.15a1.56,1.56,0,0,1,.55-1.22,2.07,2.07,0,0,1,1.38-.46,1.94,1.94,0,0,1,1.3.4,1.38,1.38,0,0,1,.48,1.1,1.52,1.52,0,0,1-.21.8,1.3,1.3,0,0,1-.59.52,1.5,1.5,0,0,1,.74.51,1.3,1.3,0,0,1,.25.81,1.67,1.67,0,0,1-.53,1.29,2,2,0,0,1-1.43.48,2.39,2.39,0,0,1-1.47-.43,1.58,1.58,0,0,1-.64-1.17l.78-.17a1.18,1.18,0,0,0,.38.83,1.35,1.35,0,0,0,.92.29,1.24,1.24,0,0,0,.89-.3A1,1,0,0,0,79.93,94.33Z"/><polygon points="66 72 47.95 72 60.71 52 50 52 50 48 68 48 55.24 68 66 68 66 72"/><polygon points="87.95 72 72 72 71.95 48 87.95 48 87.95 52 75.96 52 76 68 87.95 68 87.95 72"/><rect x="73.95" y="58" width="14" height="4"/><polygon points="110 72 94 72 94 48 110 48 110 52 98 52 98 68 110 68 110 72"/><rect x="96" y="58" width="14" height="4"/><polygon points="132 72 116 72 116 48 132 48 132 52 120 52 120 68 132 68 132 72"/><rect x="118" y="58" width="14" height="4"/><polygon points="156 72 152.02 72 142 55.66 142 72 138 72 138 48 142 48 152 64.32 152 48 156 48 156 72"/></g></svg>