<svg xmlns="http://www.w3.org/2000/svg" xmlns:xlink="http://www.w3.org/1999/xlink" viewBox="0 0 1920 1080"><defs><style>.cls-1{fill:#082b96;}.cls-2,.cls-3,.cls-4,.cls-5,.cls-6,.cls-7{fill:none;stroke-miterlimit:10;}.cls-2{stroke:#fff;stroke-width:1.25px;stroke-dasharray:15 5;}.cls-3{stroke:#4672e2;stroke-width:24px;}.cls-4{stroke:url(#linear-gradient);}.cls-5{stroke:url(#linear-gradient-2);}.cls-6{stroke:url(#linear-gradient-3);}.cls-7{stroke:url(#linear-gradient-4);}</style><linearGradient id="linear-gradient" x1="8814.43" y1="5051.57" x2="9894.43" y2="5051.57" gradientTransform="translate(6347.57 -8814.43) rotate(90)" gradientUnits="userSpaceOnUse"><stop offset="0" stop-color="#fff" stop-opacity="0"/><stop offset="0.51" stop-color="#fff"/><stop offset="1" stop-color="#fff" stop-opacity="0"/></linearGradient><linearGradient id="linear-gradient-2" x1="8814.43" y1="5723.57" x2="9894.43" y2="5723.57" xlink:href="#linear-gradient"/><linearGradient id="linear-gradient-3" x1="4506.42" y1="8969.57" x2="6426.42" y2="8969.57" gradientTransform="translate(6426.43 9815.57) rotate(180)" xlink:href="#linear-gradient"/><linearGradient id="linear-gradient-4" x1="4506.42" y1="9581.57" x2="6426.42" y2="9581.57" gradientTransform="translate(6426.43 9815.57) rotate(180)" xlink:href="#linear-gradient"/></defs><g id="Background"><rect class="cls-1" width="1920" height="1080"/></g><g id="Graphics"><polygon class="cls-2" points="888.3 378 780 378 856.54 258 792.3 258 792.3 234 900.32 234 823.77 354 888.3 354 888.3 378"/><polygon class="cls-2" points="768 413.69 768 522 648 445.45 648 509.69 624 509.69 624 401.68 744 478.23 744 413.69 768 413.69"/><polygon class="cls-2" points="1152 701.98 1152 593.68 1272 670.23 1272 605.98 1296 605.98 1296 714 1176 637.46 1176 701.98 1152 701.98"/><polygon class="cls-2" points="1007.98 846 899.68 846 976.23 726 911.98 726 911.98 702 1020 702 943.46 822 1007.98 822 1007.98 846"/><polyline class="cls-3" points="780 390 866.13 390 789.58 510 876 510"/><polyline class="cls-3" points="1008 510 924.29 510 924 390 1008 390"/><line class="cls-3" x1="1008" y1="450" x2="924" y2="450"/><polyline class="cls-3" points="1140 510 1056 510 1056 390 1140 390"/><line class="cls-3" x1="1140" y1="450" x2="1056" y2="450"/><polyline class="cls-3" points="1008 690 924 690 924 570 1008 570"/><line class="cls-3" x1="1008" y1="630" x2="924" y2="630"/><polyline class="cls-3" points="1140 558 1140 690 1135.65 690 1060.36 570 1056 570 1056 702"/><line class="cls-4" x1="1296" x2="1296" y2="1080"/><line class="cls-5" x1="624" x2="624" y2="1080"/><line class="cls-6" x1="1920" y1="846" y2="846"/><line class="cls-7" x1="1920" y1="234" y2="234"/></g></svg>