<svg xmlns="http://www.w3.org/2000/svg" viewBox="0 0 1920 1080"><defs><style>.cls-1{fill:#082b96;}.cls-2{fill:#061f6b;}.cls-3{fill:none;stroke:#fff;stroke-miterlimit:10;stroke-width:24px;}.cls-4{fill:#fff;}</style></defs><g id="Background"><rect class="cls-1" width="1920" height="1080"/></g><g id="Graphics"><path class="cls-2" d="M1572,936H348V144H1572Z"/><polyline class="cls-3" points="648 444 734.13 444 657.58 564 744 564"/><polyline class="cls-3" points="875.71 564 792 564 791.71 444 875.71 444"/><line class="cls-3" x1="875.71" y1="504" x2="791.71" y2="504"/><polyline class="cls-3" points="1008 564 924 564 924 444 1008 444"/><line class="cls-3" x1="1008" y1="504" x2="924" y2="504"/><polyline class="cls-3" points="1140 564 1056 564 1056 444 1140 444"/><line class="cls-3" x1="1140" y1="504" x2="1056" y2="504"/><polyline class="cls-3" points="1272 432 1272 564 1266.81 564 1193.28 444 1188 444 1188 576"/><path class="cls-4" d="M667.26,672l-3.48-10.08H645.3L641.88,672h-5.4l15-42.54h6.24L672.78,672Zm-12.78-37.2L647,656.88H662Z"/><path class="cls-4" d="M690.9,646.38a8.34,8.34,0,0,0-5.76,2.4c-2.46,2.34-2.76,6.54-2.76,9.72V672h-5V641.64h4.5l.42,5.34c1.56-3.72,5.22-5.52,9.06-5.52a16.16,16.16,0,0,1,2.4.18v5A14.92,14.92,0,0,0,690.9,646.38Z"/><path class="cls-4" d="M710.94,672.42c-6.54,0-8.34-4.14-8.34-8.22V646h-5.88v-4.38h5.88V633.9l5.1-1.2v8.94h9V646h-9V663.6c0,2.94,1.26,4.14,4.08,4.14a37.46,37.46,0,0,0,5.22-.54v4.38A22,22,0,0,1,710.94,672.42Z"/><path class="cls-4" d="M722.52,634.68v-6h5.94v6Zm.36,37.32V641.64h5.22V672Z"/><path class="cls-4" d="M757.86,669.36c-2.34,2.4-5.94,3.42-9.9,3.42-3.78,0-7.26-.9-9.84-3.42a9.81,9.81,0,0,1-2.94-7h5.1a5.92,5.92,0,0,0,2.46,4.74,9.63,9.63,0,0,0,5.46,1.38,8.24,8.24,0,0,0,5.58-1.68,4.31,4.31,0,0,0,1.5-3.3c0-2.28-1.62-3.9-4.74-4.32-1.32-.18-4.74-.6-6.84-.9-4.56-.72-7.44-3.54-7.44-8.16a8.73,8.73,0,0,1,2.52-5.94,12.37,12.37,0,0,1,8.94-3.36c4,0,7.62,1.26,9.66,3.84a8.67,8.67,0,0,1,2.16,5.82h-5.1a5.48,5.48,0,0,0-1.74-3.78,7.13,7.13,0,0,0-5-1.62,7.86,7.86,0,0,0-3.54.6,4.55,4.55,0,0,0-3.06,4.08c0,2.52,1.56,3.6,4.08,4,1.68.24,4.08.48,7.32,1,4.32.72,7.74,3.84,7.74,8.4A8.65,8.65,0,0,1,757.86,669.36Z"/><path class="cls-4" d="M777.18,672.42c-6.54,0-8.34-4.14-8.34-8.22V646H763v-4.38h5.88V633.9l5.1-1.2v8.94h9V646h-9V663.6c0,2.94,1.26,4.14,4.08,4.14a37.46,37.46,0,0,0,5.22-.54v4.38A22,22,0,0,1,777.18,672.42Z"/><path class="cls-4" d="M788.76,634.68v-6h5.94v6Zm.36,37.32V641.64h5.22V672Z"/><path class="cls-4" d="M824,669.48a12,12,0,0,1-8.76,3.3,12.7,12.7,0,0,1-11.1-5.7c-1.62-2.4-2.52-5.7-2.52-10.26s.9-7.86,2.52-10.26a12.59,12.59,0,0,1,11-5.7,12.07,12.07,0,0,1,8.64,3.24,11.64,11.64,0,0,1,3.6,7.8H822.3a7.62,7.62,0,0,0-2.16-4.74,7.11,7.11,0,0,0-4.92-1.86,7.67,7.67,0,0,0-5.28,2c-2.4,2-3.06,5.82-3.06,9.54s.66,7.5,3.06,9.54a7.67,7.67,0,0,0,5.28,2,7.1,7.1,0,0,0,5.16-2,7.5,7.5,0,0,0,2-4.5h5.16A11.42,11.42,0,0,1,824,669.48Z"/><path class="cls-4" d="M856.5,672.42a4.32,4.32,0,0,1-4.38-4.62H852c-1.74,3.06-5.52,5-9.78,5-7,0-10.44-4.68-10.44-9.36,0-3.9,2.52-9,10.8-9.48l9.24-.54v-2.22a6,6,0,0,0-1.56-4.62c-1-1-2.52-1.56-5-1.56-2.76,0-4.5.78-5.52,1.8a5,5,0,0,0-1.5,3.66h-5a9,9,0,0,1,2.64-6.36c2-2.16,5.64-3.24,9.36-3.24,5.88,0,9.24,2.52,10.68,5.82a11.63,11.63,0,0,1,.9,4.68v14.7c0,1.62.66,2,1.68,2a7.39,7.39,0,0,0,1.32-.18v3.78A7.06,7.06,0,0,1,856.5,672.42Zm-4.68-15.06-8.16.48c-3.06.18-6.66,1.62-6.66,5.46,0,2.7,1.68,5.22,6,5.22a8.55,8.55,0,0,0,6.24-2.46,9.79,9.79,0,0,0,2.58-6.9Z"/><path class="cls-4" d="M872.64,672.36c-4.44,0-6.36-2.64-6.36-7.44V628.68h5.1v35.94c0,2,.66,3.12,2.76,3.12a19.66,19.66,0,0,0,2.1-.06V672A13.31,13.31,0,0,1,872.64,672.36Z"/><path class="cls-4" d="M888.59,672.36c-4.43,0-6.35-2.64-6.35-7.44V628.68h5.09v35.94c0,2,.67,3.12,2.76,3.12a19.66,19.66,0,0,0,2.1-.06V672A13.31,13.31,0,0,1,888.59,672.36Z"/><path class="cls-4" d="M908.39,678.24c-1.44,3.9-3.66,6.48-8.22,6.48a16.61,16.61,0,0,1-4.62-.6v-4.44a14.11,14.11,0,0,0,3.6.48,4.32,4.32,0,0,0,4.56-3.06l1.92-5.1-12.12-30.36h5.76l8.94,23.94,8.52-23.94h5.34Z"/><path class="cls-4" d="M944.81,634.38v13.86h19.8v5h-19.8V672h-5.34V629.46H967v4.92Z"/><path class="cls-4" d="M986.33,646.38a8.34,8.34,0,0,0-5.76,2.4c-2.46,2.34-2.76,6.54-2.76,9.72V672h-5V641.64h4.5l.42,5.34c1.56-3.72,5.22-5.52,9.06-5.52a16.16,16.16,0,0,1,2.4.18v5A14.92,14.92,0,0,0,986.33,646.38Z"/><path class="cls-4" d="M1014.65,669.24a13.67,13.67,0,0,1-18.36,0C993,666,992,661.62,992,656.82s1-9.18,4.32-12.42a13.67,13.67,0,0,1,18.36,0c3.3,3.24,4.32,7.62,4.32,12.42S1018,666,1014.65,669.24Zm-3.72-21.84a8,8,0,0,0-10.92,0c-2.16,2.22-2.82,5.88-2.82,9.42s.66,7.2,2.82,9.42a8,8,0,0,0,10.92,0c2.16-2.22,2.82-5.88,2.82-9.42S1013.09,649.62,1010.93,647.4Z"/><path class="cls-4" d="M1063.19,672V652.68c0-4.26-1.38-7.2-6.18-7.2a6.16,6.16,0,0,0-4.62,2c-2,2.1-2.58,5.16-2.58,8.34V672h-5.1V652.68c0-4.26-1.26-7.2-6.12-7.2a6.45,6.45,0,0,0-5.16,2.7c-1.5,1.92-2,5.16-2,7.68V672h-5.1V641.64h4.44l.48,4.32a9.24,9.24,0,0,1,8.52-5.1c4.5,0,7.74,2,9.06,5.76a10,10,0,0,1,9.36-5.76c6.9,0,10.14,4.44,10.14,11.16v20Z"/><path class="cls-4" d="M1090.19,672V629.46h5.46V672Z"/><path class="cls-4" d="M1119.29,646.38a8.34,8.34,0,0,0-5.76,2.4c-2.46,2.34-2.76,6.54-2.76,9.72V672h-5V641.64h4.5l.42,5.34c1.56-3.72,5.22-5.52,9.06-5.52a16.16,16.16,0,0,1,2.4.18v5A14.92,14.92,0,0,0,1119.29,646.38Z"/><path class="cls-4" d="M1149.35,672.42a4.32,4.32,0,0,1-4.38-4.62h-.12c-1.74,3.06-5.52,5-9.78,5-7,0-10.44-4.68-10.44-9.36,0-3.9,2.52-9,10.8-9.48l9.24-.54v-2.22a6,6,0,0,0-1.56-4.62c-1-1-2.52-1.56-5-1.56-2.76,0-4.5.78-5.52,1.8a5,5,0,0,0-1.5,3.66h-5a9,9,0,0,1,2.64-6.36c2-2.16,5.64-3.24,9.36-3.24,5.88,0,9.24,2.52,10.68,5.82a11.63,11.63,0,0,1,.9,4.68v14.7c0,1.62.66,2,1.68,2a7.39,7.39,0,0,0,1.32-.18v3.78A7.06,7.06,0,0,1,1149.35,672.42Zm-4.68-15.06-8.16.48c-3.06.18-6.66,1.62-6.66,5.46,0,2.7,1.68,5.22,6,5.22a8.55,8.55,0,0,0,6.24-2.46,9.79,9.79,0,0,0,2.58-6.9Z"/><path class="cls-4" d="M1178.75,672V652.74c0-4.56-1.86-7.26-6.66-7.26-2.94,0-5.28,1.92-6.6,4.68-1,2.22-1.08,5.4-1.08,7.74V672h-5.1V641.64h4.44l.42,4.56c1.56-3.48,5.76-5.34,9.18-5.34,6.9,0,10.5,4.14,10.5,11.16v20Z"/><path class="cls-4" d="M640.2,720V690.22h19.91v3.44H643.94v9.07h14.2v3.53h-14.2v10.3h16.17V720Z"/><path class="cls-4" d="M683.88,717.56a12.11,12.11,0,0,1-8.44,3,12.3,12.3,0,0,1-8.53-2.86,9.87,9.87,0,0,1-3.19-7.14h3.91a6.77,6.77,0,0,0,2.1,4.7,8.38,8.38,0,0,0,5.71,1.85,7.87,7.87,0,0,0,5.55-1.72,4.4,4.4,0,0,0,1.51-3.49c0-2.31-1.47-4.24-5-4.79l-4.71-.71c-4.45-.67-7.94-3.15-7.94-7.9a8.21,8.21,0,0,1,2.61-5.88,11.07,11.07,0,0,1,7.81-2.94,11.2,11.2,0,0,1,7.73,2.86,9,9,0,0,1,2.86,6.38H682a6.21,6.21,0,0,0-1.47-3.74,7.8,7.8,0,0,0-10.54,0,4.73,4.73,0,0,0-1.22,3.24c0,2.69,2.23,3.9,4.45,4.2,1.68.21,3.32.5,5,.76,5,.71,8.27,3.73,8.27,8.44A7.73,7.73,0,0,1,683.88,717.56Z"/><path class="cls-4" d="M701.27,693.7V720h-3.78V693.7h-8.86v-3.48h21.5v3.48Z"/><path class="cls-4" d="M722.52,720v-3.07l11.8-14.57a6.48,6.48,0,0,0,1.6-4.2c0-3-1.72-4.71-4.79-4.71-2.6,0-5,1.43-5,5.29h-3.69c0-5.08,3.44-8.52,8.61-8.52a8.45,8.45,0,0,1,7.14,3.36,7.55,7.55,0,0,1,1.34,4.53,9.6,9.6,0,0,1-2.47,6.22l-9.92,12.31H740V720Z"/><path class="cls-4" d="M760.66,718.07a9.24,9.24,0,0,1-12.6,0c-2.94-3-3.45-7.06-3.45-12.69s.51-9.74,3.45-12.73a9.38,9.38,0,0,1,12.6,0c2.94,3,3.44,7.1,3.44,12.73S763.6,715.08,760.66,718.07ZM758,694.84a5.52,5.52,0,0,0-7.23,0c-2.47,2.35-2.39,6.59-2.39,10.54s-.08,8.19,2.39,10.55a5.55,5.55,0,0,0,7.23,0c2.48-2.36,2.39-6.6,2.39-10.55S760.45,697.19,758,694.84Z"/><path class="cls-4" d="M777.5,720V694.88L770.57,700v-4l7.14-5.17h3.44V720Z"/><path class="cls-4" d="M807.32,717.9c-1.55,1.64-3.78,2.65-7.06,2.65a9.15,9.15,0,0,1-6.68-2.65,8.69,8.69,0,0,1-2.47-6.26h3.65a6.07,6.07,0,0,0,1.51,4,5.12,5.12,0,0,0,4,1.64,5.24,5.24,0,0,0,5.63-5.38c0-3.57-2.43-5.41-6-5.41h-1.77V703.2h1.77c3.36,0,5.37-1.85,5.37-4.92a4.57,4.57,0,0,0-1.38-3.4,4.92,4.92,0,0,0-3.57-1.43,5.36,5.36,0,0,0-3.58,1.18,5.23,5.23,0,0,0-1.76,4.11h-3.65a8.07,8.07,0,0,1,2.81-6.42,9.59,9.59,0,0,1,6.26-2.1,9,9,0,0,1,6.22,2.35,7.34,7.34,0,0,1,2.35,5.71,7.55,7.55,0,0,1-4.29,6.6,7.46,7.46,0,0,1,4.88,7.14A8.5,8.5,0,0,1,807.32,717.9Z"/></g></svg>