<svg xmlns="http://www.w3.org/2000/svg" xmlns:xlink="http://www.w3.org/1999/xlink" viewBox="0 0 1920 1080"><defs><style>.cls-1,.cls-10,.cls-11,.cls-12,.cls-13,.cls-14,.cls-2,.cls-3,.cls-4,.cls-5,.cls-6,.cls-7,.cls-8,.cls-9{fill:none;stroke-miterlimit:10;}.cls-1{stroke:#4672e2;stroke-width:30px;}.cls-2{stroke:url(#linear-gradient);}.cls-3{stroke:url(#linear-gradient-2);}.cls-4{stroke:url(#linear-gradient-3);}.cls-5{stroke:url(#linear-gradient-4);}.cls-6{stroke:url(#linear-gradient-5);}.cls-7{stroke:url(#linear-gradient-6);}.cls-8{stroke:url(#linear-gradient-7);}.cls-9{stroke:#fff;stroke-dasharray:12 4;}.cls-10{stroke:url(#linear-gradient-8);}.cls-11{stroke:url(#linear-gradient-9);}.cls-12{stroke:url(#linear-gradient-10);}.cls-13{stroke:url(#linear-gradient-11);}.cls-14{stroke:url(#linear-gradient-12);}</style><linearGradient id="linear-gradient" x1="1260" y1="1080" x2="1260" gradientUnits="userSpaceOnUse"><stop offset="0" stop-color="#fff" stop-opacity="0"/><stop offset="0.51" stop-color="#fff"/><stop offset="1" stop-color="#fff" stop-opacity="0"/></linearGradient><linearGradient id="linear-gradient-2" x1="1140" x2="1140" y2="0" xlink:href="#linear-gradient"/><linearGradient id="linear-gradient-3" x1="1080" x2="1080" y2="0" xlink:href="#linear-gradient"/><linearGradient id="linear-gradient-4" x1="1020" x2="1020" y2="0" xlink:href="#linear-gradient"/><linearGradient id="linear-gradient-5" x1="959.98" x2="959.98" y2="0" xlink:href="#linear-gradient"/><linearGradient id="linear-gradient-6" x1="660" x2="660" y2="0" xlink:href="#linear-gradient"/><linearGradient id="linear-gradient-7" x1="809.99" x2="809.99" y2="0" xlink:href="#linear-gradient"/><linearGradient id="linear-gradient-8" x1="-315.14" y1="472.75" x2="2421.3" y2="472.75" gradientTransform="matrix(0.73, -0.14, -0.14, 0.93, 308.93, 154.47)" xlink:href="#linear-gradient"/><linearGradient id="linear-gradient-9" x1="755.83" y1="538.25" x2="1840.08" y2="538.25" xlink:href="#linear-gradient"/><linearGradient id="linear-gradient-10" x1="577.25" y1="538.25" x2="1658.66" y2="538.25" xlink:href="#linear-gradient"/><linearGradient id="linear-gradient-11" x1="485.95" y1="538.25" x2="1570.14" y2="538.25" xlink:href="#linear-gradient"/><linearGradient id="linear-gradient-12" x1="396.05" y1="538.25" x2="1480.31" y2="538.25" xlink:href="#linear-gradient"/></defs><g id="Graphics"><path class="cls-1" d="M660,390V525A150,150,0,0,0,810,675h0A150,150,0,0,0,960,525V390"/><polyline class="cls-1" points="1150.61 685.61 1260 576.21 1260 480"/><line class="cls-1" x1="810" y1="390" x2="810" y2="450"/><line class="cls-1" x1="1260" y1="450" x2="1260" y2="390"/><line class="cls-1" x1="960" y1="720" x2="960" y2="780"/><line class="cls-1" x1="1020" y1="780" x2="1020" y2="720"/><polyline class="cls-1" points="1020 390 1020 456.21 960 516.21"/><polyline class="cls-1" points="1080 390 1080 486.21 960 606.21"/><polyline class="cls-1" points="960 390 960 675 981.21 675 1140 516.21 1140 390"/><line class="cls-2" x1="1260" x2="1260" y2="1080"/><line class="cls-3" x1="1140" x2="1140" y2="1080"/><line class="cls-4" x1="1080" x2="1080" y2="1080"/><line class="cls-5" x1="1020" x2="1020" y2="1080"/><line class="cls-6" x1="959.98" x2="959.98" y2="1080"/><line class="cls-7" x1="660" x2="660" y2="1080"/><line class="cls-8" x1="809.99" x2="809.99" y2="1080"/><circle class="cls-9" cx="810" cy="525" r="150"/><line class="cls-10" x1="1920" y1="906.21" x2="107.58"/><line class="cls-11" x1="756.19" y1="1080.02" x2="1839.73" y2="-3.52"/><line class="cls-12" x1="577.6" y1="1078.6" x2="1658.3" y2="-2.1"/><line class="cls-13" x1="486.31" y1="1079.99" x2="1569.79" y2="-3.49"/><line class="cls-14" x1="396.41" y1="1080.02" x2="1479.95" y2="-3.52"/></g></svg>