<svg xmlns="http://www.w3.org/2000/svg" viewBox="0 0 94 77"><defs><style>.cls-1{fill:#777d7e;}</style></defs><g id="Graphics"><path d="M37,48.5a11,11,0,0,1-11-11v-9h2v9a9,9,0,0,0,18,0v-9h2v9A11,11,0,0,1,37,48.5Z"/><polygon points="60.41 48.91 59 47.5 66 40.5 66 34.5 68 34.5 68 41.33 60.41 48.91"/><rect x="36" y="28.5" width="2" height="4"/><rect x="66" y="28.5" width="2" height="4"/><rect x="46" y="50.5" width="2" height="4"/><rect x="50" y="50.5" width="2" height="4"/><polygon points="47.71 37.62 46.29 36.21 50 32.5 50 28.5 52 28.5 52 33.33 47.71 37.62"/><polygon points="47.71 43.62 46.29 42.21 54 34.5 54 28.5 56 28.5 56 35.33 47.71 43.62"/><polygon points="48.83 48.5 46 48.5 46 28.5 48 28.5 48 46.5 58 36.5 58 28.5 60 28.5 60 37.33 48.83 48.5"/><path class="cls-1" d="M93,1V76H1V1H93m1-1H0V77H94V0Z"/></g></svg>