<svg xmlns="http://www.w3.org/2000/svg" xmlns:xlink="http://www.w3.org/1999/xlink" viewBox="0 0 1920 1080"><defs><style>.cls-1,.cls-2{fill:#082b96;}.cls-1,.cls-4{stroke:#fff;}.cls-1,.cls-3,.cls-4,.cls-5,.cls-6,.cls-7,.cls-8{stroke-miterlimit:10;}.cls-3,.cls-4,.cls-5,.cls-6,.cls-7,.cls-8{fill:none;}.cls-3{stroke:#4672e2;stroke-width:24px;}.cls-4{stroke-width:1.25px;stroke-dasharray:15 5;}.cls-5{stroke:url(#linear-gradient);}.cls-6{stroke:url(#linear-gradient-2);}.cls-7{stroke:url(#linear-gradient-3);}.cls-8{stroke:url(#linear-gradient-4);}</style><linearGradient id="linear-gradient" x1="4926.43" y1="1031.57" x2="6006.43" y2="1031.57" gradientTransform="translate(2459.57 -4926.43) rotate(90)" gradientUnits="userSpaceOnUse"><stop offset="0" stop-color="#fff" stop-opacity="0"/><stop offset="0.51" stop-color="#fff"/><stop offset="1" stop-color="#fff" stop-opacity="0"/></linearGradient><linearGradient id="linear-gradient-2" x1="4926.43" y1="1967.57" x2="6006.43" y2="1967.57" xlink:href="#linear-gradient"/><linearGradient id="linear-gradient-3" x1="-3269.58" y1="9059.57" x2="-1349.58" y2="9059.57" gradientTransform="translate(-1349.57 9815.57) rotate(180)" xlink:href="#linear-gradient"/><linearGradient id="linear-gradient-4" x1="-3269.58" y1="9491.57" x2="-1349.58" y2="9491.57" gradientTransform="translate(-1349.57 9815.57) rotate(180)" xlink:href="#linear-gradient"/></defs><g id="Background"><rect class="cls-1" width="1920" height="1080"/><rect class="cls-2" width="1920" height="1080"/></g><g id="Graphics"><polyline class="cls-3" points="648 480 734.13 480 657.58 600 744 600"/><polyline class="cls-3" points="875.71 600 792 600 791.71 480 875.71 480"/><line class="cls-3" x1="875.71" y1="540" x2="791.71" y2="540"/><polyline class="cls-3" points="1008 600 924 600 924 480 1008 480"/><line class="cls-3" x1="1008" y1="540" x2="924" y2="540"/><polyline class="cls-3" points="1140 600 1056 600 1056 480 1140 480"/><line class="cls-3" x1="1140" y1="540" x2="1056" y2="540"/><polyline class="cls-3" points="1272 468 1272 600 1266.81 600 1193.28 480 1188 480 1188 612"/><polygon class="cls-4" points="755.98 468 647.68 468 724.23 348 659.98 348 659.98 324 768 324 691.46 444 755.98 444 755.98 468"/><polygon class="cls-4" points="636 504.02 636 612.32 516 535.77 516 600.02 492 600.02 492 492 612 568.54 612 504.02 636 504.02"/><polygon class="cls-4" points="1284 600.3 1284 492 1404 568.54 1404 504.31 1428 504.31 1428 612.32 1308 535.77 1308 600.3 1284 600.3"/><polygon class="cls-4" points="1008.3 756 900 756 976.54 636 912.3 636 912.3 612 1020.32 612 943.77 732 1008.3 732 1008.3 756"/><line class="cls-5" x1="1428" x2="1428" y2="1080"/><line class="cls-6" x1="492" x2="492" y2="1080"/><line class="cls-7" x1="1920" y1="756" y2="756"/><line class="cls-8" x1="1920" y1="324" y2="324"/></g></svg>