<svg xmlns="http://www.w3.org/2000/svg" xmlns:xlink="http://www.w3.org/1999/xlink" viewBox="0 0 1920 1080"><defs><style>.cls-1{fill:#082b96;}.cls-2{fill:#4672e2;}.cls-3{fill:#fff;}.cls-4{fill:url(#linear-gradient);}.cls-5{fill:url(#linear-gradient-2);}.cls-6{fill:url(#linear-gradient-3);}.cls-7{fill:url(#linear-gradient-4);}.cls-8{fill:url(#linear-gradient-5);}.cls-9{fill:url(#linear-gradient-6);}</style><linearGradient id="linear-gradient" x1="71.65" y1="541.08" x2="1150.19" y2="541.08" gradientTransform="translate(561.4 -273.5) rotate(44.99)" gradientUnits="userSpaceOnUse"><stop offset="0" stop-color="#fff" stop-opacity="0"/><stop offset="0.51" stop-color="#fff"/><stop offset="1" stop-color="#fff" stop-opacity="0"/></linearGradient><linearGradient id="linear-gradient-2" x1="161.65" y1="541.16" x2="1240.03" y2="541.16" gradientTransform="translate(587.78 -337.04) rotate(44.99)" xlink:href="#linear-gradient"/><linearGradient id="linear-gradient-3" x1="2.13" y1="451.41" x2="907.04" y2="451.41" gradientTransform="translate(452.29 -189.22) rotate(45)" xlink:href="#linear-gradient"/><linearGradient id="linear-gradient-4" x1="0" y1="744" x2="1920" y2="744" gradientTransform="matrix(1, 0, 0, 1, 0, 0)" xlink:href="#linear-gradient"/><linearGradient id="linear-gradient-5" x1="0" y1="480" x2="1920" y2="480" gradientTransform="matrix(1, 0, 0, 1, 0, 0)" xlink:href="#linear-gradient"/><linearGradient id="linear-gradient-6" x1="0" y1="708" x2="1920" y2="708" gradientTransform="matrix(1, 0, 0, 1, 0, 0)" xlink:href="#linear-gradient"/></defs><g id="Background"><rect class="cls-1" width="1920" height="1080"/></g><g id="Graphics"><rect class="cls-2" x="648" y="192" width="12" height="144"/><rect class="cls-2" x="654" y="246" width="42" height="12"/><rect class="cls-2" x="647.33" y="229.89" width="45.57" height="12" transform="translate(29.47 542.93) rotate(-45)"/><rect class="cls-2" x="630" y="288" width="20.62" height="12"/><path class="cls-2" d="M660,318V306a12,12,0,0,0,0-24V270a24,24,0,0,1,0,48Z"/><path class="cls-2" d="M678,210H666a12,12,0,0,0-24,0H630a24,24,0,0,1,48,0Z"/><path class="cls-2" d="M947.61,738h-12A71.81,71.81,0,1,0,792,738H780a83.81,83.81,0,1,1,167.61,0Z"/><rect class="cls-2" x="698.66" y="444" width="186.68" height="12" transform="translate(-86.23 691.83) rotate(-45)"/><path class="cls-2" d="M1200,750H720V440.49l-24,24V498H648V330H768A114.13,114.13,0,0,1,882,444v30h204a114.13,114.13,0,0,1,114,114ZM732,738h456V588a102.12,102.12,0,0,0-102-102H870V444A102.12,102.12,0,0,0,768,342H660V486h24V459.51l67.76-67.75,8.48,8.48L732,428.49Z"/><polygon class="cls-2" points="1194 714 1074 714 1074 480 1086 480 1086 702 1194 702 1194 714"/><path class="cls-2" d="M954,642a84.09,84.09,0,0,1-84-84V474h168v84A84.09,84.09,0,0,1,954,642ZM882,486v72a72,72,0,0,0,144,0V486Z"/><polygon class="cls-2" points="702 384 654 384 654 372 690 372 690 336 702 336 702 384"/><path class="cls-3" d="M954,636.5h-1.45l0-1a78.67,78.67,0,0,0,11.89-.69l.13,1A79.48,79.48,0,0,1,954,636.5Zm-5.47-.19a77.29,77.29,0,0,1-11.93-1.75l.22-1a79.1,79.1,0,0,0,11.78,1.73Zm20-1.16-.19-1a76,76,0,0,0,11.5-3.1l.33.95A78.11,78.11,0,0,1,968.57,635.15Zm-35.87-1.57a78.4,78.4,0,0,1-11.33-4.16l.42-.91a76.74,76.74,0,0,0,11.18,4.1Zm51.27-3-.38-.93a77.11,77.11,0,0,0,10.61-5.38l.52.85A79.21,79.21,0,0,1,984,630.58Zm-66.22-2.93a79.65,79.65,0,0,1-10.24-6.39l.59-.8a78.26,78.26,0,0,0,10.11,6.3ZM998.1,623l-.56-.83a79.08,79.08,0,0,0,9.3-7.43l.69.73A79.41,79.41,0,0,1,998.1,623Zm-93.77-4.16a79.86,79.86,0,0,1-8.73-8.33l.75-.66A79.61,79.61,0,0,0,905,618Zm106.07-6.19-.72-.69a77.62,77.62,0,0,0,7.61-9.17l.81.58A78.66,78.66,0,0,1,1010.4,612.6ZM893,607.4a78.76,78.76,0,0,1-6.85-9.92l.86-.5a78.33,78.33,0,0,0,6.77,9.8ZM1020.35,600l-.85-.54a77.89,77.89,0,0,0,5.59-10.52l.91.4A78.74,78.74,0,0,1,1020.35,600ZM884.2,594a77.78,77.78,0,0,1-4.68-11.11l.94-.32a77.68,77.68,0,0,0,4.63,11Zm143.32-8.38-.94-.35a76.05,76.05,0,0,0,3.31-11.45l1,.2A77.7,77.7,0,0,1,1027.52,585.58ZM878.34,579A77.9,77.9,0,0,1,876,567.16l1-.11a78.27,78.27,0,0,0,2.28,11.68Zm153.24-9-1-.15a78.64,78.64,0,0,0,.24-22l1-.13a80.22,80.22,0,0,1,.67,10.29A78.87,78.87,0,0,1,1031.58,570Zm-155.91-6.86c-.11-1.71-.17-3.44-.17-5.16,0-2.3.1-4.63.3-6.9l1,.08c-.2,2.25-.3,4.55-.3,6.82,0,1.7.06,3.41.17,5.09Zm1.57-15.93-1-.13a77.7,77.7,0,0,1,2.58-11.79l1,.29A76.82,76.82,0,0,0,877.24,547.23Zm153-3.31a75.91,75.91,0,0,0-3-11.51l.95-.33a79.33,79.33,0,0,1,3.09,11.65ZM881,531.82l-.94-.34a79.8,79.8,0,0,1,4.94-11l.88.48A77.8,77.8,0,0,0,881,531.82Zm144.74-3.13a78.24,78.24,0,0,0-5.34-10.63l.85-.52a76.91,76.91,0,0,1,5.41,10.77ZM887.9,517.51l-.85-.52a78.88,78.88,0,0,1,7.08-9.77l.77.65A78.68,78.68,0,0,0,887.9,517.51Zm130.39-2.8a78,78,0,0,0-7.39-9.33l.73-.68a79.07,79.07,0,0,1,7.49,9.45ZM897.54,504.9l-.72-.68a79.77,79.77,0,0,1,8.91-8.13l.61.79A79.58,79.58,0,0,0,897.54,504.9Zm110.58-2.37a77.47,77.47,0,0,0-9.13-7.64l.58-.82a78.77,78.77,0,0,1,9.25,7.75Zm-98.59-8-.57-.82a78.58,78.58,0,0,1,10.37-6.15l.44.9A77.69,77.69,0,0,0,909.53,494.52Zm86.17-1.86A78.52,78.52,0,0,0,985.2,487l.4-.91a78.11,78.11,0,0,1,10.63,5.7Zm-72.33-5.87-.39-.92a78.32,78.32,0,0,1,11.41-3.9l.25,1A76.4,76.4,0,0,0,923.37,486.79Zm58.14-1.26a76.82,76.82,0,0,0-11.43-3.36l.21-1a78,78,0,0,1,11.58,3.4Zm-43-3.48-.2-1a77.53,77.53,0,0,1,12-1.48l.05,1A76.82,76.82,0,0,0,938.51,482.05Zm27.66-.6a79.62,79.62,0,0,0-11.87-.95v-1a80.4,80.4,0,0,1,12,1Z"/><path class="cls-3" d="M863.81,816.5h-1.45l0-1a78.82,78.82,0,0,0,11.89-.69l.13,1A79.6,79.6,0,0,1,863.81,816.5Zm-5.47-.19a77.12,77.12,0,0,1-11.93-1.75l.22-1a78.91,78.91,0,0,0,11.78,1.73Zm20-1.16-.18-1a76.59,76.59,0,0,0,11.5-3.1l.33.95A77.91,77.91,0,0,1,878.37,815.15Zm-35.86-1.57a78.4,78.4,0,0,1-11.33-4.16l.41-.91a76.86,76.86,0,0,0,11.19,4.1Zm51.27-3-.38-.93A77.68,77.68,0,0,0,904,804.27l.52.85A79.21,79.21,0,0,1,893.78,810.58Zm-66.22-2.93a79.65,79.65,0,0,1-10.24-6.39l.59-.8a78.26,78.26,0,0,0,10.11,6.3Zm80.35-4.7-.56-.83a79.08,79.08,0,0,0,9.3-7.43l.68.73A78.5,78.5,0,0,1,907.91,803Zm-93.77-4.16a79,79,0,0,1-8.73-8.33l.75-.66a79.61,79.61,0,0,0,8.61,8.22Zm106.07-6.19-.72-.69a77.53,77.53,0,0,0,7.6-9.17l.82.58A78.66,78.66,0,0,1,920.21,792.6ZM802.8,787.4a77.79,77.79,0,0,1-6.86-9.92l.87-.5a76.47,76.47,0,0,0,6.77,9.79ZM930.15,780l-.84-.54a77.83,77.83,0,0,0,5.58-10.52l.92.4A78.8,78.8,0,0,1,930.15,780ZM794,774a79,79,0,0,1-4.69-11.11l.95-.32a76.53,76.53,0,0,0,4.63,11Zm143.32-8.38-.94-.35a77.24,77.24,0,0,0,3.31-11.45l1,.21A79.13,79.13,0,0,1,937.33,765.58ZM788.15,759a77.9,77.9,0,0,1-2.31-11.84l1-.11a77,77,0,0,0,2.28,11.68Zm153.24-9-1-.16a78.28,78.28,0,0,0,.91-11.87,79.88,79.88,0,0,0-.66-10.16l1-.13a80.22,80.22,0,0,1,.67,10.29A79.1,79.1,0,0,1,941.39,750Zm-155.92-6.88c-.11-1.7-.16-3.43-.16-5.15,0-2.3.1-4.63.3-6.9l1,.08c-.19,2.25-.29,4.55-.29,6.82,0,1.7.05,3.41.16,5.09Zm1.58-15.92-1-.13a77.7,77.7,0,0,1,2.58-11.79l1,.29A76.79,76.79,0,0,0,787.05,727.23Zm153-3.31a77.1,77.1,0,0,0-3-11.51l.95-.33A78.06,78.06,0,0,1,941,723.73Zm-149.19-12.1-.94-.34a78.62,78.62,0,0,1,4.94-11l.88.48A77.8,77.8,0,0,0,790.84,711.82Zm144.73-3.13a76,76,0,0,0-5.34-10.63l.86-.52a79.15,79.15,0,0,1,5.41,10.77ZM797.71,697.51l-.85-.52a78.88,78.88,0,0,1,7.08-9.77l.76.65A78.6,78.6,0,0,0,797.71,697.51Zm130.39-2.8a78.12,78.12,0,0,0-7.4-9.33l.74-.68a81.14,81.14,0,0,1,7.49,9.45ZM807.35,684.9l-.73-.68a79.77,79.77,0,0,1,8.91-8.13l.62.79A79.58,79.58,0,0,0,807.35,684.9Zm110.58-2.37a78.29,78.29,0,0,0-9.13-7.64l.58-.82a79.6,79.6,0,0,1,9.25,7.75Zm-98.59-8-.57-.82a77.31,77.31,0,0,1,10.37-6.15l.44.9A77.69,77.69,0,0,0,819.34,674.52Zm86.16-1.86A77.31,77.31,0,0,0,895,667l.41-.91a78.71,78.71,0,0,1,10.63,5.7Zm-72.32-5.87-.39-.92A77.51,77.51,0,0,1,844.2,662l.25,1A76,76,0,0,0,833.18,666.79Zm58.14-1.26a77.17,77.17,0,0,0-11.43-3.36l.2-1a77.63,77.63,0,0,1,11.58,3.4Zm-43-3.48-.2-1a77.38,77.38,0,0,1,12-1.48l0,1A76.67,76.67,0,0,0,848.32,662.05Zm27.66-.6a79.62,79.62,0,0,0-11.87-1v-1a80.43,80.43,0,0,1,12,1Z"/><path class="cls-3" d="M1086,696.5l-2.29,0,0-1a110.43,110.43,0,0,0,11.93-.41l.09,1C1092.53,696.35,1089.25,696.5,1086,696.5Zm-6.3-.18a108.48,108.48,0,0,1-12-1.35l.16-1a109.21,109.21,0,0,0,11.86,1.34Zm20-.68-.12-1a108.05,108.05,0,0,0,11.73-2.16l.24,1A107.86,107.86,0,0,1,1099.74,695.64Zm-36-1.42a106.18,106.18,0,0,1-11.64-3.11l.31-1a107.05,107.05,0,0,0,11.53,3.08Zm51.7-1.77-.28-1a106.61,106.61,0,0,0,11.29-3.88l.38.93A109.28,109.28,0,0,1,1115.48,692.45Zm-67.15-2.67a107,107,0,0,1-11-4.81l.45-.89a107.24,107.24,0,0,0,11,4.77Zm82.22-2.82-.41-.91a109.53,109.53,0,0,0,10.59-5.5l.51.86A108.23,108.23,0,0,1,1130.55,687Zm-96.83-3.86a109,109,0,0,1-10.21-6.39l.57-.82a107.17,107.17,0,0,0,10.13,6.33Zm110.93-3.8-.54-.84a110.48,110.48,0,0,0,9.66-7l.63.78A112.49,112.49,0,0,1,1144.65,679.3Zm-124.38-5a108.55,108.55,0,0,1-9.16-7.82l.69-.73a107.81,107.81,0,0,0,9.07,7.75Zm137.2-4.69-.66-.75a112,112,0,0,0,8.53-8.35l.74.67A110.49,110.49,0,0,1,1157.47,669.64Zm-149.22-6a109.87,109.87,0,0,1-7.91-9.08l.79-.62a106.36,106.36,0,0,0,7.84,9Zm160.48-5.48-.76-.65a107.59,107.59,0,0,0,7.22-9.51l.82.56A108.6,108.6,0,0,1,1168.73,658.2Zm-170.8-6.81a107.73,107.73,0,0,1-6.49-10.15l.87-.49a109,109,0,0,0,6.43,10Zm180.27-6.17-.85-.53a105.21,105.21,0,0,0,5.73-10.47l.91.43A109.39,109.39,0,0,1,1178.2,645.22Zm-188.67-7.51a109,109,0,0,1-4.92-11l.94-.36a106,106,0,0,0,4.87,10.89ZM1185.65,631l-.92-.4a106.7,106.7,0,0,0,4.12-11.21l1,.29A106.5,106.5,0,0,1,1185.65,631Zm-202.4-8A105.61,105.61,0,0,1,980,611.33l1-.21a106.52,106.52,0,0,0,3.21,11.5Zm207.65-7.13-1-.26a107.65,107.65,0,0,0,2.4-11.69l1,.15A107.81,107.81,0,0,1,1190.9,615.81Zm-211.67-8.42a108.63,108.63,0,0,1-1.48-11.95l1-.07a109.23,109.23,0,0,0,1.46,11.85ZM1193.84,600l-1-.11a110,110,0,0,0,.65-11.92c0-2.27-.07-4.56-.21-6.81l1-.07c.14,2.28.21,4.59.21,6.88A109.67,109.67,0,0,1,1193.84,600Zm-216.29-8.6c0-1.14,0-2.28,0-3.43,0-2.87.11-5.76.34-8.61l1,.08c-.22,2.82-.33,5.69-.33,8.53,0,1.14,0,2.27,0,3.4ZM1193,577.22a111.15,111.15,0,0,0-1.84-11.79l1-.21a108.25,108.25,0,0,1,1.86,11.9ZM979.22,575.5l-1-.11a110.22,110.22,0,0,1,2-11.87l1,.22A108.63,108.63,0,0,0,979.22,575.5Zm211-14a105.81,105.81,0,0,0-3.57-11.39l.94-.35a107.13,107.13,0,0,1,3.6,11.5Zm-208-1.67-1-.26A107.89,107.89,0,0,1,985,548.18l.93.37A107.38,107.38,0,0,0,982.21,559.88Zm203-13.4a106.21,106.21,0,0,0-5.22-10.73l.87-.49a109.28,109.28,0,0,1,5.27,10.83ZM987.5,544.87l-.91-.41A106.09,106.09,0,0,1,992,533.72l.86.5A108.52,108.52,0,0,0,987.5,544.87ZM1178,532.31a108.27,108.27,0,0,0-6.74-9.84l.79-.61a110.35,110.35,0,0,1,6.81,9.93Zm-183-1.5-.85-.54a110.48,110.48,0,0,1,7-9.82l.78.62A108.55,108.55,0,0,0,995,530.81Zm173.78-11.45a106.46,106.46,0,0,0-8.12-8.74l.69-.72a110.17,110.17,0,0,1,8.2,8.82ZM1004.41,518l-.76-.65a108.62,108.62,0,0,1,8.34-8.69l.68.73A108.27,108.27,0,0,0,1004.41,518Zm153.29-10.09a109.47,109.47,0,0,0-9.31-7.47l.58-.81a109.87,109.87,0,0,1,9.4,7.53Zm-142.07-1.18L1015,506a109.38,109.38,0,0,1,9.52-7.37l.57.82A107.58,107.58,0,0,0,1015.63,506.73Zm129.47-8.54a106.11,106.11,0,0,0-10.31-6l.45-.89a110.23,110.23,0,0,1,10.41,6.06Zm-116.72-1-.53-.85a109.08,109.08,0,0,1,10.5-5.88l.44.89A109.47,109.47,0,0,0,1028.38,497.23Zm102.82-6.79a105.8,105.8,0,0,0-11.09-4.42l.31-.95a107,107,0,0,1,11.2,4.46Zm-88.81-.73-.41-.91a107.81,107.81,0,0,1,11.27-4.27l.3,1A108,108,0,0,0,1042.39,489.71Zm73.92-4.88a107,107,0,0,0-11.62-2.71l.17-1a109.08,109.08,0,0,1,11.73,2.74Zm-59-.47-.26-1a109.08,109.08,0,0,1,11.77-2.55l.16,1A105.43,105.43,0,0,0,1057.36,484.36Zm43.39-2.86a109.51,109.51,0,0,0-11.89-1l0-1a109,109,0,0,1,12,1Zm-27.78-.22-.12-1a109.26,109.26,0,0,1,12-.78v1A109.91,109.91,0,0,0,1073,481.28Z"/><path class="cls-3" d="M768,552.5l-2.29,0,0-1a110.43,110.43,0,0,0,11.93-.41l.09,1C774.53,552.35,771.25,552.5,768,552.5Zm-6.3-.18a108.48,108.48,0,0,1-12-1.35l.16-1a109.21,109.21,0,0,0,11.86,1.34Zm20-.68-.12-1a108.5,108.5,0,0,0,11.73-2.16l.24,1A110.24,110.24,0,0,1,781.74,551.64Zm-36-1.42a106.18,106.18,0,0,1-11.64-3.11l.31-1A107.05,107.05,0,0,0,746,549.24Zm51.7-1.77-.28-1a106.61,106.61,0,0,0,11.29-3.88l.38.93A109.28,109.28,0,0,1,797.48,548.45Zm-67.15-2.67A107,107,0,0,1,719.28,541l.45-.89a107.24,107.24,0,0,0,10.95,4.77ZM812.55,543l-.41-.91a109.53,109.53,0,0,0,10.59-5.5l.51.86A108.23,108.23,0,0,1,812.55,543Zm-96.83-3.86a109,109,0,0,1-10.21-6.39l.57-.82a107.17,107.17,0,0,0,10.13,6.33Zm110.93-3.8-.54-.84a110.48,110.48,0,0,0,9.66-7l.63.78A112.49,112.49,0,0,1,826.65,535.3Zm-124.38-5a108.55,108.55,0,0,1-9.16-7.82l.69-.73a107.81,107.81,0,0,0,9.07,7.75Zm137.2-4.69-.66-.75a112,112,0,0,0,8.53-8.35l.74.67A110.49,110.49,0,0,1,839.47,525.64Zm-149.22-6a109.87,109.87,0,0,1-7.91-9.08l.79-.62a106.36,106.36,0,0,0,7.84,9Zm160.48-5.48-.76-.65a107.59,107.59,0,0,0,7.22-9.51l.82.56A105.74,105.74,0,0,1,850.73,514.2Zm-170.8-6.81a109,109,0,0,1-6.49-10.15l.87-.49a109,109,0,0,0,6.43,10.05Zm180.27-6.17-.85-.53a105.21,105.21,0,0,0,5.73-10.47l.91.43A109.39,109.39,0,0,1,860.2,501.22Zm-188.67-7.51a109,109,0,0,1-4.92-11l.94-.36a106,106,0,0,0,4.87,10.89ZM867.65,487l-.92-.4a106.7,106.7,0,0,0,4.12-11.21l.95.29A106.5,106.5,0,0,1,867.65,487Zm-202.4-8.05A105.61,105.61,0,0,1,662,467.33l1-.21a106.52,106.52,0,0,0,3.21,11.5Zm207.65-7.13-1-.26a107.65,107.65,0,0,0,2.4-11.69l1,.15A107.81,107.81,0,0,1,872.9,471.81Zm-211.67-8.42a108.63,108.63,0,0,1-1.48-11.95l1-.07a109.23,109.23,0,0,0,1.46,11.85ZM875.84,456l-1-.11A110,110,0,0,0,875.5,444c0-2.27-.07-4.56-.21-6.81l1-.07c.14,2.28.21,4.59.21,6.88A109.67,109.67,0,0,1,875.84,456Zm-216.29-8.6c0-1.14,0-2.28,0-3.43,0-2.87.11-5.76.34-8.61l1,.08c-.22,2.82-.33,5.69-.33,8.53,0,1.14,0,2.27,0,3.4ZM875,433.22a111.15,111.15,0,0,0-1.84-11.79l1-.21a108.25,108.25,0,0,1,1.86,11.9ZM661.22,431.5l-1-.11a110.22,110.22,0,0,1,2-11.87l1,.22A108.63,108.63,0,0,0,661.22,431.5Zm211-13.95a105.81,105.81,0,0,0-3.57-11.39l.94-.35a107.13,107.13,0,0,1,3.6,11.5Zm-208-1.67-1-.26A107.89,107.89,0,0,1,667,404.18l.93.37A107.38,107.38,0,0,0,664.21,415.88Zm203-13.4A106.21,106.21,0,0,0,862,391.75l.87-.49a109.28,109.28,0,0,1,5.27,10.83ZM669.5,400.87l-.91-.41A106.09,106.09,0,0,1,674,389.72l.86.5A108.52,108.52,0,0,0,669.5,400.87ZM860,388.31a108.27,108.27,0,0,0-6.74-9.84l.79-.61a110.35,110.35,0,0,1,6.81,9.93Zm-183-1.5-.85-.54a110.48,110.48,0,0,1,7-9.82l.78.62A108.55,108.55,0,0,0,677,386.81Zm173.78-11.45a106.46,106.46,0,0,0-8.12-8.74l.69-.72a108.62,108.62,0,0,1,8.2,8.83ZM686.41,374l-.76-.65a108.62,108.62,0,0,1,8.34-8.69l.68.73A108.27,108.27,0,0,0,686.41,374ZM839.7,363.91a109.47,109.47,0,0,0-9.31-7.47l.58-.81a109.87,109.87,0,0,1,9.4,7.53Zm-142.07-1.18L697,362a109.38,109.38,0,0,1,9.52-7.37l.57.82A109.09,109.09,0,0,0,697.63,362.73Zm129.47-8.54a106.11,106.11,0,0,0-10.31-6l.45-.89a110.23,110.23,0,0,1,10.41,6.06Zm-116.72-1-.53-.85a109.08,109.08,0,0,1,10.5-5.88l.44.89A109.47,109.47,0,0,0,710.38,353.23Zm102.82-6.79A108,108,0,0,0,802.11,342l.31-.95a107,107,0,0,1,11.2,4.46Zm-88.81-.73-.41-.91a107.81,107.81,0,0,1,11.27-4.27l.3,1A108,108,0,0,0,724.39,345.71Zm73.92-4.88a108.13,108.13,0,0,0-11.62-2.71l.17-1a109.64,109.64,0,0,1,11.73,2.74Zm-58.95-.47-.26-1a109.6,109.6,0,0,1,11.77-2.55l.16,1A105.43,105.43,0,0,0,739.36,340.36Zm43.39-2.86a109.51,109.51,0,0,0-11.89-1l0-1a109,109,0,0,1,12,1ZM755,337.28l-.12-1a109.26,109.26,0,0,1,12-.78v1A109.91,109.91,0,0,0,755,337.28Z"/><path class="cls-3" d="M660.29,312.5v-1A17.29,17.29,0,0,0,671,307.58l.64.78A18.38,18.38,0,0,1,660.29,312.5Zm-4.08-.39a18.57,18.57,0,0,1-10.38-6.22l.76-.64a17.54,17.54,0,0,0,9.83,5.88Zm18.33-6.67-.78-.62A17.31,17.31,0,0,0,677.5,294q0-.56,0-1.11l1-.06c0,.39,0,.78,0,1.17A18.33,18.33,0,0,1,674.54,305.44Zm-31-3a18.61,18.61,0,0,1-1.72-12l1,.19a18.28,18.28,0,0,0-.31,3.31,17.27,17.27,0,0,0,1.94,8Zm33.25-13.41a17.64,17.64,0,0,0-6.65-9.33l.58-.81a18.61,18.61,0,0,1,7,9.86ZM644,287l-.91-.4a18.56,18.56,0,0,1,8.21-8.89l.48.88A17.65,17.65,0,0,0,644,287Zm22.8-9.13a17.63,17.63,0,0,0-11.42-.72l-.27-1a18.69,18.69,0,0,1,12.08.77Z"/><path class="cls-3" d="M654.29,228.5v-1A17.29,17.29,0,0,0,665,223.58l.64.78A18.38,18.38,0,0,1,654.29,228.5Zm-4.08-.39a18.57,18.57,0,0,1-10.38-6.22l.76-.64a17.54,17.54,0,0,0,9.83,5.88Zm18.33-6.67-.78-.62A17.31,17.31,0,0,0,671.5,210q0-.56,0-1.11l1-.06c0,.39,0,.78,0,1.17A18.33,18.33,0,0,1,668.54,221.44Zm-31-3a18.61,18.61,0,0,1-1.72-12l1,.19a18.28,18.28,0,0,0-.31,3.31,17.27,17.27,0,0,0,1.94,8Zm33.25-13.41a17.64,17.64,0,0,0-6.65-9.33l.58-.81a18.61,18.61,0,0,1,7,9.86ZM638,203l-.91-.4a18.56,18.56,0,0,1,8.21-8.89l.47.88A17.68,17.68,0,0,0,638,203Zm22.8-9.13A17.54,17.54,0,0,0,654,192.5h0a17.4,17.4,0,0,0-4.66.63l-.27-1a18.6,18.6,0,0,1,4.93-.66h0a18.4,18.4,0,0,1,7.15,1.43Z"/><rect class="cls-4" x="-151.23" y="540.58" width="1524.29" height="1" transform="translate(-203.68 590.32) rotate(-44.99)"/><rect class="cls-5" x="-61.19" y="540.66" width="1524.06" height="1" transform="translate(-177.41 653.92) rotate(-44.99)"/><rect class="cls-6" x="-184.78" y="450.91" width="1278.74" height="1" transform="translate(-186.05 453.6) rotate(-45)"/><rect class="cls-7" y="743.5" width="1920" height="1"/><rect class="cls-8" y="479.5" width="1920" height="1"/><rect class="cls-9" y="707.5" width="1920" height="1"/></g></svg>