<svg xmlns="http://www.w3.org/2000/svg" viewBox="0 0 188 174"><defs><style>.cls-1,.cls-3{fill:none;}.cls-2{fill:#777d7e;}.cls-3{stroke:#000;stroke-miterlimit:10;stroke-width:4px;}</style></defs><g id="Graphics"><rect class="cls-1" width="188" height="174"/><path class="cls-2" d="M186.94,1.06V172.94H1.06V1.06H186.94M188,0H0V174H188V0Z"/><path d="M56.53,115.57a4,4,0,0,1,.56,1.06,3.55,3.55,0,0,1,.19,1.06,3.41,3.41,0,0,1-.19,1.14,2.56,2.56,0,0,1-.54.87,2.33,2.33,0,0,1-.86.56,3,3,0,0,1-1.14.2,2.93,2.93,0,0,1-1-.15,1.86,1.86,0,0,1-.73-.44,2,2,0,0,1-.48-.71,3,3,0,0,1,0-1.92,4.94,4.94,0,0,1,.44-.9l.71.28a4.74,4.74,0,0,0-.33.78,2.07,2.07,0,0,0-.1.59,1.23,1.23,0,0,0,.41,1,1.73,1.73,0,0,0,1.16.34,1.83,1.83,0,0,0,1.24-.4,1.43,1.43,0,0,0,.47-1.13,2.25,2.25,0,0,0-.16-.73,3.9,3.9,0,0,0-.45-.82Zm-1.93.31-.76-.64.61-.72.76.64Z"/><path d="M59.29,118.78l-.94.21V112.4l.94-.45Z"/><path d="M62.73,118.94l-.32,0a.57.57,0,0,1-.28-.14,2.06,2.06,0,0,1-.26.78,3.56,3.56,0,0,1-.54.72,5.86,5.86,0,0,1-.77.69c-.3.23-.61.45-1,.67l-.77-.73c.36-.22.7-.44,1-.66a7.06,7.06,0,0,0,.78-.63,3.06,3.06,0,0,0,.5-.56.82.82,0,0,0,.18-.46,1.48,1.48,0,0,0-.18-.57,6.13,6.13,0,0,0-.46-.79l.76-.75c.14.24.27.44.37.6a3.54,3.54,0,0,0,.28.41,1,1,0,0,0,.26.22.59.59,0,0,0,.29.07H63v1.15Z"/><path d="M65.63,117.52a.49.49,0,0,0,0-.17c0-.07-.08-.15-.13-.25l-.19-.31-.23-.3.75-.79a3.2,3.2,0,0,1,.56.92,2.45,2.45,0,0,1,.18.85,1.43,1.43,0,0,1-.4,1.1,1.76,1.76,0,0,1-1.23.37H63q-.1,0-.18-.15a1.14,1.14,0,0,1-.07-.42,1.22,1.22,0,0,1,.07-.42c0-.1.11-.16.18-.16h1.89a1.88,1.88,0,0,0,.53-.06C65.57,117.69,65.63,117.62,65.63,117.52Zm-2,3.43-.73-.62.58-.69.74.61ZM65,121l-.73-.62.58-.69.73.61Z"/><path d="M68.54,118.78l-.94.21V112.4l.94-.45Z"/><path d="M73.35,118a2,2,0,0,1-.2.89,3.36,3.36,0,0,1-.54.81,5.5,5.5,0,0,1-.82.76,11.32,11.32,0,0,1-1,.72l-.77-.73c.36-.22.7-.44,1-.66a7.06,7.06,0,0,0,.78-.63,3.06,3.06,0,0,0,.5-.56.82.82,0,0,0,.18-.46.68.68,0,0,0,0-.25,2.11,2.11,0,0,0-.13-.34c-.06-.12-.13-.25-.21-.38s-.16-.26-.25-.38l.75-.75a4.84,4.84,0,0,1,.6,1.09A2.83,2.83,0,0,1,73.35,118Zm-1-2.54-.76-.64.61-.72.76.64Z"/><path d="M75.37,118.78l-.94.21V112.4l.94-.45Z"/><path d="M81.37,118.94a1.48,1.48,0,0,1-1-.27,1.61,1.61,0,0,1-.5-.83,1.85,1.85,0,0,1-.53.24,2.16,2.16,0,0,1-.62.09,1,1,0,0,1-.73-.25.94.94,0,0,1-.27-.72,1.74,1.74,0,0,1,.37-1.07,4,4,0,0,1,1.23-1l-.12-.51.8-.59.48,2.5c0,.23.09.43.13.59a1.17,1.17,0,0,0,.16.39.47.47,0,0,0,.26.2,1.33,1.33,0,0,0,.44.06h.15v1.15ZM79.51,116a2.31,2.31,0,0,0-.35.18,1.89,1.89,0,0,0-.31.22,1.81,1.81,0,0,0-.24.24.52.52,0,0,0-.11.24.18.18,0,0,0,.11.17.56.56,0,0,0,.28,0,.9.9,0,0,0,.22,0l.25-.05a1,1,0,0,0,.21-.08l.14-.09Z"/><path d="M84.71,118.94a2.21,2.21,0,0,1-.72-.11,1.84,1.84,0,0,1-.65-.34,2.08,2.08,0,0,1-.66.34,1.81,1.81,0,0,1-.62.11h-.4q-.12,0-.18-.15a1,1,0,0,1-.07-.42,1,1,0,0,1,.07-.42c0-.1.1-.16.18-.16h.52a1.57,1.57,0,0,0,.28,0,1.69,1.69,0,0,1-.19-.41,1.51,1.51,0,0,1-.06-.41,1.44,1.44,0,0,1,.13-.6,2.12,2.12,0,0,1,.35-.53,1.75,1.75,0,0,1,.48-.38,1.08,1.08,0,0,1,.53-.14.89.89,0,0,1,.45.12,1.13,1.13,0,0,1,.36.33,1.8,1.8,0,0,1,.24.48,1.71,1.71,0,0,1,.09.55,1.61,1.61,0,0,1-.09.51,1.21,1.21,0,0,1-.34.5l.31,0h.56v1.15ZM83,114.68l-.73-.61.58-.69.74.6Zm.57,1.67a.46.46,0,0,0-.21.05.9.9,0,0,0-.2.14.75.75,0,0,0-.14.17.32.32,0,0,0-.06.17.66.66,0,0,0,.13.35,1.18,1.18,0,0,0,.29.3,1.37,1.37,0,0,0,.46-.31.47.47,0,0,0,.16-.29.68.68,0,0,0,0-.19,1.14,1.14,0,0,0-.1-.19.58.58,0,0,0-.13-.14A.27.27,0,0,0,83.61,116.35Zm.71-1.67-.73-.61.58-.69.73.6Z"/><path d="M88.08,118.94a1.56,1.56,0,0,1-.68-.13,1.07,1.07,0,0,1-.47-.43,1.27,1.27,0,0,1-.5.43,1.69,1.69,0,0,1-.72.13h-.43q-.11,0-.18-.15a1.14,1.14,0,0,1-.07-.42,1.22,1.22,0,0,1,.07-.42c.05-.1.11-.16.18-.16h.41a2.56,2.56,0,0,0,.42,0,.66.66,0,0,0,.27-.1.41.41,0,0,0,.15-.21,1.48,1.48,0,0,0,.06-.35v-.41l.83-.21a5.16,5.16,0,0,0,0,.61,1.07,1.07,0,0,0,.1.41.45.45,0,0,0,.23.22,1.15,1.15,0,0,0,.41.06h.47v1.15Zm-1.81,2-.73-.62.58-.69.74.61Zm1.28,0-.73-.62.58-.69.73.61Z"/><path d="M91,118.94a1.13,1.13,0,0,1-.61-.14,1,1,0,0,1-.37-.39,1.15,1.15,0,0,1-1,.53h-.36q-.1,0-.18-.15a.92.92,0,0,1-.07-.41,1,1,0,0,1,.07-.42c0-.1.11-.16.18-.16h.26c.28,0,.46,0,.55-.17a.84.84,0,0,0,.14-.53c0-.06,0-.19,0-.38s0-.49,0-.87,0-.85,0-1.41,0-1.25,0-2l.94-.45v4.43c0,.26,0,.49,0,.67a2,2,0,0,0,.09.44.52.52,0,0,0,.19.24.69.69,0,0,0,.34.07h.38v1.14Z"/><path d="M95.42,118.33a1.24,1.24,0,0,1-.46.45,1.32,1.32,0,0,1-.7.16,1.71,1.71,0,0,1-.69-.12,1,1,0,0,1-.45-.48,1.23,1.23,0,0,1-.48.46,1.15,1.15,0,0,1-.57.14h-.6q-.12,0-.18-.15a1,1,0,0,1-.07-.42,1,1,0,0,1,.07-.42c0-.1.1-.16.18-.16H92a1.08,1.08,0,0,0,.52-.11.42.42,0,0,0,.23-.41v-.57l.82-.21a5.16,5.16,0,0,0,0,.61,1.29,1.29,0,0,0,.1.41.45.45,0,0,0,.21.22.88.88,0,0,0,.35.06,1.49,1.49,0,0,0,.4,0,.48.48,0,0,0,.23-.14.41.41,0,0,0,.11-.23,1.75,1.75,0,0,0,0-.35v-.33l.82-.21a2.7,2.7,0,0,0,.13,1,.5.5,0,0,0,.53.31c.4,0,.59-.08.59-.25a.54.54,0,0,0,0-.18,1.57,1.57,0,0,0-.13-.26,3.49,3.49,0,0,0-.18-.31l-.23-.3.74-.79a3.2,3.2,0,0,1,.56.92,2.45,2.45,0,0,1,.18.85,1.7,1.7,0,0,1-.11.61,1.14,1.14,0,0,1-.31.46,1.35,1.35,0,0,1-.47.3,1.64,1.64,0,0,1-.6.1A1.14,1.14,0,0,1,95.42,118.33Z"/><path d="M100.69,118.94a1.49,1.49,0,0,1-.75-.17,1.19,1.19,0,0,1-.43-.46,1.9,1.9,0,0,1-.2-.65q0-.36-.06-.75t0-1c0-.38,0-.77,0-1.17s0-.8,0-1.2,0-.77-.07-1.12L100,112v1.15c0,.4,0,.79,0,1.19s0,.78,0,1.17,0,.75,0,1.1c0,.16,0,.31,0,.46a1.59,1.59,0,0,0,.07.4.51.51,0,0,0,.2.27.62.62,0,0,0,.4.1h.4v1.15Z"/><path d="M101.52,121l-.76-.65.61-.72.76.64Zm.92-3.49a.58.58,0,0,0,0-.17,2.05,2.05,0,0,0-.13-.25c-.05-.1-.12-.2-.19-.31l-.22-.3.75-.79a3.2,3.2,0,0,1,.56.92,2.45,2.45,0,0,1,.18.85,1.47,1.47,0,0,1-.4,1.1,1.76,1.76,0,0,1-1.23.37h-.53q-.11,0-.18-.15a1,1,0,0,1-.07-.42A1,1,0,0,1,101,118c0-.1.11-.16.18-.16h.53a1.93,1.93,0,0,0,.53-.06C102.37,117.69,102.44,117.62,102.44,117.52Z"/><path d="M73.18,125.6a5.6,5.6,0,0,1,.51,1.05,6.1,6.1,0,0,1,.27,1.06,8,8,0,0,1,.11,1.12c0,.39,0,.8,0,1.24h-.32c0-.43,0-.82,0-1.18a7.81,7.81,0,0,0-.15-1,5.06,5.06,0,0,0-.26-.91,6,6,0,0,0-.41-.85Z"/><path d="M75.21,125.6c.1.19.19.36.27.49a2.44,2.44,0,0,0,.23.32.84.84,0,0,0,.21.18.71.71,0,0,0,.26,0,.34.34,0,0,0,.32-.21,1.4,1.4,0,0,0,.12-.67l.33-.09a2,2,0,0,0,.16.74.36.36,0,0,0,.34.22.35.35,0,0,0,.31-.23,1.79,1.79,0,0,0,.11-.7l.38-.1a2.66,2.66,0,0,1-.22,1.24.68.68,0,0,1-.61.37.56.56,0,0,1-.38-.12.73.73,0,0,1-.23-.29.65.65,0,0,1-.63.43.52.52,0,0,1-.17,0,.42.42,0,0,1-.17-.1,5.14,5.14,0,0,1,.25,1.35c0,.49,0,1,0,1.61h-.32c0-.43,0-.82,0-1.18a7.81,7.81,0,0,0-.15-1,5.35,5.35,0,0,0-.28-.91,6.6,6.6,0,0,0-.41-.85Z"/><path d="M81,130.11a3,3,0,0,1-.27-.47,4.59,4.59,0,0,1-.18-.56,4.23,4.23,0,0,1-.11-.62,4.73,4.73,0,0,1,0-.65H80a2.81,2.81,0,0,1-.43,0,.82.82,0,0,1-.32-.12.45.45,0,0,1-.2-.23.79.79,0,0,1-.07-.37,1.42,1.42,0,0,1,.08-.48,2.62,2.62,0,0,1,.22-.48,1.71,1.71,0,0,1,.33-.37.64.64,0,0,1,.39-.14.62.62,0,0,1,.58.38,3,3,0,0,1,.19,1.25c0,.19,0,.4,0,.61a4.36,4.36,0,0,0,.07.62,3.33,3.33,0,0,0,.16.6,1.86,1.86,0,0,0,.3.53Zm-.6-2.81c0-.17,0-.33,0-.47a1.8,1.8,0,0,0-.08-.38.57.57,0,0,0-.14-.24.25.25,0,0,0-.2-.09.35.35,0,0,0-.23.09.7.7,0,0,0-.2.22.92.92,0,0,0-.14.28.83.83,0,0,0-.06.29.32.32,0,0,0,.18.24,1.24,1.24,0,0,0,.49.07h.4Z"/><path d="M82.46,127.08a5.29,5.29,0,0,1,.26,1.36c0,.49,0,1,0,1.63h-.32c0-.43,0-.82,0-1.18a7.81,7.81,0,0,0-.15-1A5.35,5.35,0,0,0,82,127a5.5,5.5,0,0,0-.41-.85l.28-.51.27.47a2.39,2.39,0,0,0,.25.32.75.75,0,0,0,.26.19.79.79,0,0,0,.32.06c.41,0,.62-.31.62-.94l.38-.1a4.57,4.57,0,0,1,0,.67,1.87,1.87,0,0,1-.17.52.92.92,0,0,1-.32.33.9.9,0,0,1-.48.11,1,1,0,0,1-.24,0A.53.53,0,0,1,82.46,127.08Z"/><path d="M93,129.93a1.12,1.12,0,0,1-.52-.1.67.67,0,0,1-.32-.36.8.8,0,0,1-.75.46.78.78,0,0,1-.41-.11.87.87,0,0,1-.28-.36.86.86,0,0,1-.82.47.67.67,0,0,1-.52-.19.77.77,0,0,1,0,.15.81.81,0,0,1,0,.16,1.85,1.85,0,0,1-.16.71,1.64,1.64,0,0,1-.38.55,1.81,1.81,0,0,1-.6.36,2.47,2.47,0,0,1-.79.12,2,2,0,0,1-.66-.1,1.32,1.32,0,0,1-.51-.31,1.37,1.37,0,0,1-.33-.48,1.76,1.76,0,0,1-.12-.66,2.08,2.08,0,0,1,.09-.63,2.9,2.9,0,0,1,.29-.59l.32.16a2.56,2.56,0,0,0-.22.48,1.58,1.58,0,0,0-.07.47,1,1,0,0,0,.33.82,1.37,1.37,0,0,0,.93.31,1.9,1.9,0,0,0,.61-.1,1.17,1.17,0,0,0,.46-.27,1.15,1.15,0,0,0,.3-.42,1.42,1.42,0,0,0,.1-.55,1.73,1.73,0,0,0-.11-.55,2.77,2.77,0,0,0-.29-.6l.39-.34.21.4a1.84,1.84,0,0,0,.2.31.79.79,0,0,0,.22.19.62.62,0,0,0,.29.06.68.68,0,0,0,.49-.14.71.71,0,0,0,.16-.51v-.23l.4-.1a1.72,1.72,0,0,0,.12.76.4.4,0,0,0,.38.22.57.57,0,0,0,.37-.12.55.55,0,0,0,.17-.44v-.32l.4-.1a2.76,2.76,0,0,0,0,.44.81.81,0,0,0,.1.31.46.46,0,0,0,.21.18.81.81,0,0,0,.34,0h.25v.54Z"/><path d="M95.29,129.93a1.15,1.15,0,0,1-.52-.1.67.67,0,0,1-.32-.36.9.9,0,0,1-.35.35,1,1,0,0,1-.52.11h-.29a.14.14,0,0,1-.12-.07.39.39,0,0,1,0-.2.36.36,0,0,1,0-.19c0-.05.07-.08.12-.08h.29a.87.87,0,0,0,.51-.12.69.69,0,0,0,.18-.5v-.26l.39-.1a3.09,3.09,0,0,0,0,.47.81.81,0,0,0,.1.3.44.44,0,0,0,.21.17,1.23,1.23,0,0,0,.36,0h.27v.54ZM94,131.21l-.41-.34.3-.36.41.35Zm.83,0-.4-.34.31-.36.4.35Z"/><path d="M98.44,129.46a.86.86,0,0,1-.33.35,1,1,0,0,1-.51.12,1,1,0,0,1-.5-.1.8.8,0,0,1-.31-.36.86.86,0,0,1-.33.35.9.9,0,0,1-.46.11h-.36a.13.13,0,0,1-.12-.07.39.39,0,0,1,0-.2.36.36,0,0,1,0-.19.14.14,0,0,1,.12-.08H96a.79.79,0,0,0,.45-.12.53.53,0,0,0,.2-.44v-.32l.39-.1a3.09,3.09,0,0,0,0,.47,1.07,1.07,0,0,0,.09.3.44.44,0,0,0,.19.17.72.72,0,0,0,.28,0,.68.68,0,0,0,.49-.14.75.75,0,0,0,.16-.51v-.23l.4-.1a1.72,1.72,0,0,0,.12.76.49.49,0,0,0,.46.22h.17l.16,0a.4.4,0,0,0,.12-.1.18.18,0,0,0,0-.13.91.91,0,0,0-.09-.3,1.92,1.92,0,0,0-.29-.5l.37-.37a1.84,1.84,0,0,1,.33.57,1.63,1.63,0,0,1,.1.53.84.84,0,0,1-.27.66,1,1,0,0,1-.67.24.91.91,0,0,1-.49-.12A.67.67,0,0,1,98.44,129.46Z"/><path d="M102,125.21l-1.48.39v-.27l.39-.13a.43.43,0,0,1-.15-.18.54.54,0,0,1,0-.21.56.56,0,0,1,.18-.41.76.76,0,0,1,.19-.12.63.63,0,0,1,.22,0,.68.68,0,0,1,.44.16l-.08.22-.18,0h-.18a.4.4,0,0,0-.22.06.18.18,0,0,0-.1.16.26.26,0,0,0,.11.2.47.47,0,0,0,.26.08,2.89,2.89,0,0,0,.65-.17Zm.07,4.72a1,1,0,0,1-.53-.12.63.63,0,0,1-.26-.3,1.42,1.42,0,0,1-.11-.44c0-.16,0-.33,0-.49s0-.46,0-.66v-.6c0-.2,0-.4,0-.62s0-.45,0-.72l.44-.19q0,.46,0,.78v1.75c0,.14,0,.27,0,.4a1.2,1.2,0,0,0,.08.35.66.66,0,0,0,.17.23.5.5,0,0,0,.31.09h.22v.54Z"/><path d="M103.19,129.09a.84.84,0,0,0-.08-.29,2.25,2.25,0,0,0-.29-.5l.36-.37a1.84,1.84,0,0,1,.33.57,1.63,1.63,0,0,1,.1.53.82.82,0,0,1-.27.67,1.19,1.19,0,0,1-.83.23h-.22a.15.15,0,0,1-.12-.07.39.39,0,0,1,0-.2.36.36,0,0,1,0-.19.17.17,0,0,1,.12-.08h.23a1.63,1.63,0,0,0,.47-.06C103.13,129.28,103.19,129.2,103.19,129.09Zm-.44-1.71-.42-.34.3-.36.41.34Zm.83,0-.41-.34.31-.36.4.34Z"/><path class="cls-3" d="M54.07,52V70a20,20,0,0,0,20,20h0A20,20,0,0,0,94,70V52"/><polyline class="cls-3" points="119.43 91.38 134 76.81 134 63.99"/><line class="cls-3" x1="74.05" y1="52" x2="74.05" y2="59.99"/><line class="cls-3" x1="134" y1="59.99" x2="134" y2="52"/><line class="cls-3" x1="94.03" y1="95.96" x2="94.03" y2="103.96"/><line class="cls-3" x1="102.03" y1="103.96" x2="102.03" y2="95.96"/><polyline class="cls-3" points="102.03 52 102.03 60.82 94.03 68.81"/><polyline class="cls-3" points="110.02 52 110.02 64.82 94.03 80.8"/><polyline class="cls-3" points="94.03 52 94.03 89.97 96.86 89.97 118.01 68.81 118.01 52"/></g></svg>