<svg xmlns="http://www.w3.org/2000/svg" viewBox="0 0 1920 1080"><g id="Graphics"><path d="M1188,588V702H1086V486A102.12,102.12,0,0,1,1188,588ZM1026,486v72a72,72,0,0,1-144,0V486ZM690,342v30H660V342Zm-6,117.51V486H660V384h42V342h66a101.89,101.89,0,0,1,82,41.47l-118,118v-73l28.24-28.25-8.48-8.48ZM792,738a71.81,71.81,0,1,1,143.61,0Zm155.61,0A83.81,83.81,0,1,0,780,738H732V518.49L856.74,393.75A101.44,101.44,0,0,1,870,444V558a84,84,0,0,0,168,0V486h36V714h114v24Z"/><path d="M708,258V246H680.49l22-22L694,215.54l-22,22V199.62A12,12,0,0,1,678,210h12a24,24,0,0,0-48,0h12a12,12,0,0,1,6-10.38V288H642v12h18v30h12V318a24,24,0,0,0,0-48V258Zm-24,36a12,12,0,0,1-12,12V282A12,12,0,0,1,684,294Z"/></g></svg>