<svg xmlns="http://www.w3.org/2000/svg" xmlns:xlink="http://www.w3.org/1999/xlink" viewBox="0 0 1920 1080"><defs><style>.cls-1,.cls-6,.cls-8,.cls-9{fill:none;stroke-miterlimit:10;}.cls-1{stroke:#b5b9ba;stroke-width:24px;}.cls-2{font-size:60px;fill:#b5b9ba;font-family:Akkurat;letter-spacing:-0.02em;}.cls-3{letter-spacing:0.01em;}.cls-4{letter-spacing:-0.02em;}.cls-5{font-size:42px;letter-spacing:-0.01em;}.cls-6{stroke:#777d7e;stroke-dasharray:12 4;}.cls-7{fill:#d5d7d7;}.cls-8,.cls-9{stroke-width:0.81px;}.cls-8{stroke:url(#linear-gradient);}.cls-9{stroke:url(#linear-gradient-2);}</style><linearGradient id="linear-gradient" x1="-18916.04" y1="7020" x2="-17499.64" y2="7020" gradientTransform="translate(-17500 7884) rotate(180)" gradientUnits="userSpaceOnUse"><stop offset="0" stop-color="#fff" stop-opacity="0"/><stop offset="0.5" stop-color="#777d7e"/><stop offset="1" stop-color="#969b9c" stop-opacity="0"/></linearGradient><linearGradient id="linear-gradient-2" x1="-18916.04" y1="6876" x2="-17499.64" y2="6876" xlink:href="#linear-gradient"/></defs><g id="Graphics"><polyline class="cls-1" points="648 444 734.13 444 657.58 564 744 564"/><polyline class="cls-1" points="875.71 564 792 564 791.71 444 875.71 444"/><line class="cls-1" x1="875.71" y1="504" x2="791.71" y2="504"/><polyline class="cls-1" points="1008 564 924 564 924 444 1008 444"/><line class="cls-1" x1="1008" y1="504" x2="924" y2="504"/><polyline class="cls-1" points="1140 564 1056 564 1056 444 1140 444"/><line class="cls-1" x1="1140" y1="504" x2="1056" y2="504"/><polyline class="cls-1" points="1272 432 1272 564 1266.81 564 1193.28 444 1188 444 1188 576"/><text class="cls-2" transform="translate(636 672)">A<tspan class="cls-3" x="35.76" y="0">r</tspan><tspan class="cls-4" x="59.7" y="0">tistically From Iran</tspan><tspan class="cls-5"><tspan x="0" y="48">EST 2013</tspan></tspan></text><polygon class="cls-6" points="755.98 432 647.68 432 724.23 312 659.98 312 659.98 288 768 288 691.46 408 755.98 408 755.98 432"/><polygon class="cls-6" points="755.98 288 647.68 288 724.23 168 659.98 168 659.98 144 768 144 691.46 264 755.98 264 755.98 288"/><polygon class="cls-6" points="636 468.02 636 576.32 516 499.77 516 564.02 492 564.02 492 456 612 532.54 612 468.02 636 468.02"/><polygon class="cls-6" points="492 468.02 492 576.32 372 499.77 372 564.02 348 564.02 348 456 468 532.54 468 468.02 492 468.02"/><polygon class="cls-6" points="1284 564.3 1284 456 1404 532.54 1404 468.31 1428 468.31 1428 576.32 1308 499.77 1308 564.3 1284 564.3"/><polygon class="cls-6" points="1428 564.3 1428 456 1548 532.54 1548 468.31 1572 468.31 1572 576.32 1452 499.77 1452 564.3 1428 564.3"/><polygon class="cls-6" points="755.98 720 647.68 720 724.23 600 659.98 600 659.98 576 768 576 691.46 696 755.98 696 755.98 720"/><polygon class="cls-6" points="755.98 864 647.68 864 724.23 744 659.98 744 659.98 720 768 720 691.46 840 755.98 840 755.98 864"/><path class="cls-7" d="M0,0V1080H1920V0ZM1572,936H348V144H1572Z"/><polygon class="cls-6" points="755.98 1008 647.68 1008 724.23 888 659.98 888 659.98 864 768 864 691.46 984 755.98 984 755.98 1008"/></g><g id="Guides"><line class="cls-8" x1="-0.36" y1="864" x2="1416.04" y2="864"/><line class="cls-9" x1="-0.36" y1="1008" x2="1416.04" y2="1008"/></g></svg>