<svg xmlns="http://www.w3.org/2000/svg" viewBox="0 0 272 190"><defs><style>.cls-1,.cls-2{fill:none;stroke:#000;stroke-miterlimit:10;}.cls-1{stroke-width:2px;}.cls-2{stroke-width:2px;}.cls-3{font-size:10px;font-family:Approach-Regular, Approach;letter-spacing:-0.01em;}.cls-4{letter-spacing:0.01em;}.cls-5{letter-spacing:-0.02em;}.cls-6{letter-spacing:-0.01em;}.cls-7{letter-spacing:-0.03em;}.cls-8{letter-spacing:-0.05em;}.cls-9{letter-spacing:-0.04em;}.cls-10{letter-spacing:-0.03em;}.cls-11{letter-spacing:-0.03em;}.cls-12{letter-spacing:-0.03em;}.cls-13{font-size:7px;letter-spacing:-0.01em;}.cls-14{letter-spacing:-0.02em;}.cls-15{letter-spacing:-0.04em;}.cls-16{letter-spacing:-0.01em;}</style></defs><g id="Graphics"><line class="cls-1" x1="85" y1="49" x2="85" y2="25"/><line class="cls-1" x1="85" y1="35" x2="92" y2="35"/><line class="cls-1" x1="85" y1="35" x2="90.37" y2="29.63"/><line class="cls-1" x1="84.44" y1="42" x2="81" y2="42"/><path class="cls-1" d="M86,39a3,3,0,0,1,0,6"/><path class="cls-1" d="M88,28a3,3,0,0,0-6,0"/><path class="cls-1" d="M107,116a13,13,0,0,1,13-13h0a13,13,0,0,1,13,13"/><line class="cls-1" x1="119" y1="57" x2="97" y2="79"/><path class="cls-1" d="M102,59,91,70v5H85V49h19a18,18,0,0,1,18,18v6h35a18,18,0,0,1,18,18v26H97V64"/><polyline class="cls-1" points="175 111 156 111 156 73"/><path class="cls-1" d="M122,73h26a0,0,0,0,1,0,0V86a13,13,0,0,1-13,13h0a13,13,0,0,1-13-13V73a0,0,0,0,1,0,0Z"/><polyline class="cls-1" points="92 49 92 56 85 56"/><path class="cls-1" d="M97,130v9a10,10,0,0,0,10,10h0a10,10,0,0,0,10-10v-9"/><polyline class="cls-1" points="129.71 149.71 137 142.41 137 136"/><line class="cls-1" x1="107" y1="130" x2="107" y2="134"/><line class="cls-1" x1="137" y1="134" x2="137" y2="130"/><line class="cls-1" x1="117" y1="152" x2="117" y2="156"/><line class="cls-1" x1="121" y1="156" x2="121" y2="152"/><polyline class="cls-1" points="121 130 121 134.41 117 138.41"/><polyline class="cls-1" points="125 130 125 136.41 117 144.41"/><polyline class="cls-1" points="117 130 117 149 118.41 149 129 138.41 129 130"/><polyline class="cls-2" points="50 88 58.23 88 50.77 100 59 100"/><polyline class="cls-2" points="71 100 63 100 63 88 71 88"/><line class="cls-2" x1="71" y1="94" x2="63" y2="94"/><polyline class="cls-2" points="83 100 75 100 75 88 83 88"/><line class="cls-2" x1="83" y1="94" x2="75" y2="94"/><polyline class="cls-2" points="71 117 63 117 63 105 71 105"/><line class="cls-2" x1="71" y1="111" x2="63" y2="111"/><polyline class="cls-2" points="83 104 83 117 82.57 117 75.43 105 75 105 75 118"/><text class="cls-3" transform="translate(147 142)">A<tspan class="cls-4" x="6.6" y="0">r</tspan><tspan x="10.32" y="0">ti</tspan><tspan class="cls-5" x="16" y="0">s</tspan><tspan class="cls-6" x="20.7" y="0">ticall</tspan><tspan class="cls-7" x="41.34" y="0">y</tspan><tspan x="46.22" y="0"> </tspan><tspan class="cls-8" x="48.41" y="0">F</tspan><tspan class="cls-9" x="54.06" y="0">r</tspan><tspan class="cls-10" x="57.3" y="0">om </tspan><tspan class="cls-11" x="73.31" y="0">I</tspan><tspan class="cls-12" x="75.75" y="0">r</tspan><tspan class="cls-10" x="79.04" y="0">an</tspan><tspan class="cls-13"><tspan x="0" y="8">E</tspan><tspan class="cls-14" x="4.27" y="8">S</tspan><tspan class="cls-15" x="8.39" y="8">T</tspan><tspan class="cls-16" x="12.1" y="8" xml:space="preserve"> 2013</tspan></tspan></text></g></svg>