<?xml version="1.0" encoding="utf-8"?>
<!-- Generator: Adobe Illustrator 25.0.0, SVG Export Plug-In . SVG Version: 6.00 Build 0)  -->
<svg version="1.1" xmlns="http://www.w3.org/2000/svg" xmlns:xlink="http://www.w3.org/1999/xlink" x="0px" y="0px"
	 viewBox="0 0 1920 1080" style="enable-background:new 0 0 1920 1080;" xml:space="preserve">
<style type="text/css">
	.st0{fill:#082B96;}
	.st1{fill:#061F6B;}
	.st2{fill:#FFFFFF;}
	.st3{fill:#FFFFFF;stroke:#000000;stroke-width:28.1368;stroke-miterlimit:10;}
</style>
<g id="Layer_1">
	<g id="Background">
		<rect class="st0" width="1920" height="1080"/>
	</g>
	<g id="Graphics">
		<rect x="399.1" y="65" class="st1" width="1121.7" height="950"/>
		<g>
			<g>
				<g>
					<path class="st2" d="M1045,737.6h-13.1l-2.8,7.4h-4.2l11.6-30h4.1l11.5,30h-4.5L1045,737.6z M1033.3,734.2h10.5l-5.1-14
						L1033.3,734.2z"/>
					<path class="st2" d="M1058.9,745h-3.8v-21.4h3.7v3.9c1.4-2.6,3.4-3.9,6.1-3.9h1.7v3.6h-1.7c-1.8,0-3.3,0.8-4.4,2.4
						s-1.6,3.7-1.6,6.4V745z"/>
					<path class="st2" d="M1069.6,726.7v-3.1h3.8v-6.9h3.8v6.9h5.4v3.1h-5.4v12c0,1.1,0.2,1.9,0.6,2.4c0.4,0.4,1.1,0.7,2.1,0.7h3.3
						v3.3h-3.8c-1.9,0-3.4-0.5-4.4-1.5c-1-1-1.5-2.4-1.5-4.3v-12.5H1069.6z"/>
					<path class="st2" d="M1089.9,720.1h-3.8V715h3.8V720.1z M1089.9,745h-3.8v-21.4h3.8V745z"/>
					<path class="st2" d="M1102.8,745.5c-2.8,0-5-0.6-6.6-1.9c-1.6-1.3-2.5-3-2.7-5.2l3.8-0.6c0.2,1.6,0.7,2.7,1.6,3.5
						c0.9,0.8,2.2,1.1,3.9,1.1c1.5,0,2.6-0.3,3.4-0.9c0.8-0.6,1.2-1.5,1.2-2.7c0-1.7-1.3-2.7-3.8-3.1l-3.1-0.5c-2.1-0.3-3.6-1-4.7-2
						s-1.6-2.4-1.6-4c0-1.8,0.7-3.3,2.2-4.5c1.5-1.2,3.4-1.7,5.9-1.7c2.5,0,4.4,0.6,5.9,1.7c1.5,1.1,2.4,2.8,2.7,4.9l-3.5,0.5
						c-0.3-1.5-0.9-2.5-1.7-3.1c-0.8-0.6-1.9-1-3.4-1c-1.3,0-2.4,0.3-3.2,0.8c-0.8,0.6-1.2,1.3-1.2,2.2c0,0.8,0.3,1.5,0.8,2
						s1.4,0.8,2.5,1l3.4,0.6c4.3,0.7,6.5,2.7,6.5,6.1c0,2.1-0.7,3.7-2.2,5C1107.4,744.9,1105.3,745.5,1102.8,745.5z"/>
					<path class="st2" d="M1112.2,726.7v-3.1h3.8v-6.9h3.8v6.9h5.4v3.1h-5.4v12c0,1.1,0.2,1.9,0.6,2.4c0.4,0.4,1.1,0.7,2.1,0.7h3.3
						v3.3h-3.8c-1.9,0-3.4-0.5-4.4-1.5c-1-1-1.5-2.4-1.5-4.3v-12.5H1112.2z"/>
					<path class="st2" d="M1132.4,720.1h-3.8V715h3.8V720.1z M1132.4,745h-3.8v-21.4h3.8V745z"/>
					<path class="st2" d="M1146.4,742.3c1.6,0,2.9-0.4,3.9-1.3c1-0.9,1.6-2.2,1.8-3.8l3.7,0.4c-0.3,2.4-1.3,4.4-3,5.8
						s-3.8,2.2-6.4,2.2c-3.1,0-5.6-1-7.4-3c-1.8-2-2.7-4.7-2.7-8.1c0-3.4,0.9-6.2,2.7-8.2c1.9-2.1,4.3-3.1,7.4-3.1
						c2.7,0,4.8,0.7,6.5,2.1c1.6,1.4,2.6,3.3,3,5.8l-3.9,0.4c-0.5-3.4-2.4-5.1-5.6-5.1c-1.9,0-3.4,0.7-4.5,2.1
						c-1.1,1.4-1.6,3.4-1.6,5.9c0,2.5,0.5,4.4,1.6,5.8C1143,741.6,1144.5,742.3,1146.4,742.3z"/>
					<path class="st2" d="M1177.8,741.8h1v3.2h-2.1c-1.1,0-2.1-0.3-2.8-0.8c-0.8-0.5-1.2-1.3-1.3-2.2c-1.5,2.4-3.8,3.6-6.8,3.6
						c-2.2,0-4-0.6-5.4-1.7c-1.4-1.2-2.1-2.7-2.1-4.5c0-1.8,0.6-3.2,1.7-4.4c1.1-1.1,2.7-1.9,4.8-2.2l6.3-1.1
						c0.9-0.2,1.3-0.7,1.3-1.5c0-1.2-0.4-2.1-1.3-2.8c-0.8-0.7-2-1.1-3.4-1.1s-2.6,0.3-3.5,1c-0.8,0.6-1.4,1.6-1.8,3l-3.6-0.4
						c0.3-2,1.3-3.6,2.9-4.8s3.6-1.8,6.1-1.8c2.6,0,4.6,0.7,6.1,2.1c1.5,1.4,2.2,3.2,2.2,5.5v9.6c0,0.6,0.1,1,0.4,1.3
						C1176.8,741.7,1177.2,741.8,1177.8,741.8z M1162.2,739c0,1.1,0.4,1.9,1.1,2.6s1.7,0.9,3,0.9c1.8,0,3.3-0.7,4.5-2
						c1.2-1.3,1.7-3,1.7-5v-1.2l-6.9,1.2c-1.1,0.2-2,0.6-2.6,1.2C1162.5,737.2,1162.2,738,1162.2,739z"/>
					<path class="st2" d="M1185.3,745h-3.8v-30h3.8V745z"/>
					<path class="st2" d="M1194.4,745h-3.8v-30h3.8V745z"/>
					<path class="st2" d="M1205,747l0.7-1.9l-8.4-21.5h4l6.3,16.8l6.4-16.8h3.9l-9.4,23.8c-0.8,2.1-1.8,3.5-2.9,4.3
						c-1.1,0.8-2.5,1.2-4.4,1.2h-2.2v-3.2h2.2c1,0,1.8-0.2,2.4-0.6C1204.1,748.7,1204.6,748,1205,747z"/>
					<path class="st2" d="M1233.4,745h-4.1v-30h21v3.5h-16.9v9.8h15.2v3.5h-15.2V745z"/>
					<path class="st2" d="M1256.7,745h-3.8v-21.4h3.7v3.9c1.4-2.6,3.4-3.9,6.1-3.9h1.7v3.6h-1.7c-1.8,0-3.3,0.8-4.4,2.4
						s-1.6,3.7-1.6,6.4V745z"/>
					<path class="st2" d="M1265.4,734.3c0-3.4,0.9-6.1,2.8-8.1c1.9-2.1,4.4-3.1,7.6-3.1c3.1,0,5.7,1,7.6,3.1c1.9,2,2.9,4.8,2.9,8.1
						c0,3.3-1,6.1-2.9,8.1c-1.9,2.1-4.5,3.1-7.6,3.1c-3.2,0-5.7-1-7.6-3.1C1266.3,740.4,1265.4,737.7,1265.4,734.3z M1280.6,740.2
						c1.2-1.4,1.8-3.4,1.8-5.9c0-2.5-0.6-4.4-1.8-5.9c-1.2-1.4-2.8-2.1-4.8-2.1c-2,0-3.6,0.7-4.8,2.1c-1.2,1.4-1.7,3.4-1.7,5.9
						c0,2.5,0.6,4.5,1.7,5.9c1.2,1.4,2.8,2.1,4.8,2.1S1279.5,741.6,1280.6,740.2z"/>
					<path class="st2" d="M1307.8,733.2V745h-3.8v-13.2c0-1.7-0.4-3.1-1.2-4s-2-1.4-3.4-1.4c-1.7,0-3.1,0.6-4,1.7
						c-0.9,1.2-1.4,2.9-1.4,5.1V745h-3.8v-21.4h3.7v2.6c1.5-2.1,3.6-3.1,6.3-3.1c1.6,0,2.9,0.3,4.1,1c1.2,0.7,2,1.6,2.6,2.9
						c1.4-2.6,3.7-3.9,6.9-3.9c2.5,0,4.4,0.7,5.8,2.2c1.4,1.4,2.1,3.4,2.1,5.9V745h-3.8v-13.2c0-1.7-0.4-3.1-1.2-4
						c-0.8-0.9-2-1.4-3.5-1.4c-1.7,0-3.1,0.6-4,1.7C1308.2,729.3,1307.8,731,1307.8,733.2z"/>
					<path class="st2" d="M1340.1,745h-4.1v-30h4.1V745z"/>
					<path class="st2" d="M1349.6,745h-3.8v-21.4h3.7v3.9c1.4-2.6,3.4-3.9,6.1-3.9h1.7v3.6h-1.7c-1.8,0-3.3,0.8-4.4,2.4
						s-1.6,3.7-1.6,6.4V745z"/>
					<path class="st2" d="M1377.8,741.8h1v3.2h-2.1c-1.1,0-2.1-0.3-2.8-0.8c-0.8-0.5-1.2-1.3-1.3-2.2c-1.5,2.4-3.8,3.6-6.8,3.6
						c-2.2,0-4-0.6-5.4-1.7s-2.1-2.7-2.1-4.5c0-1.8,0.6-3.2,1.7-4.4c1.1-1.1,2.7-1.9,4.8-2.2l6.3-1.1c0.9-0.2,1.3-0.7,1.3-1.5
						c0-1.2-0.4-2.1-1.3-2.8c-0.8-0.7-2-1.1-3.4-1.1c-1.4,0-2.6,0.3-3.5,1c-0.9,0.6-1.4,1.6-1.8,3l-3.6-0.4c0.3-2,1.3-3.6,2.9-4.8
						s3.6-1.8,6.1-1.8c2.6,0,4.6,0.7,6.1,2.1c1.5,1.4,2.2,3.2,2.2,5.5v9.6c0,0.6,0.1,1,0.4,1.3S1377.2,741.8,1377.8,741.8z
						 M1362.2,739c0,1.1,0.4,1.9,1.1,2.6c0.7,0.6,1.7,0.9,3,0.9c1.8,0,3.3-0.7,4.5-2c1.2-1.3,1.7-3,1.7-5v-1.2l-6.9,1.2
						c-1.1,0.2-2,0.6-2.6,1.2C1362.4,737.2,1362.2,738,1362.2,739z"/>
					<path class="st2" d="M1399.9,731.1V745h-3.8v-13.2c0-1.7-0.4-3.1-1.3-4c-0.9-0.9-2.1-1.4-3.8-1.4c-1.9,0-3.3,0.6-4.3,1.7
						c-1,1.2-1.5,2.9-1.5,5.1V745h-3.8v-21.4h3.7v2.7c1.5-2.1,3.7-3.2,6.7-3.2c2.5,0,4.5,0.7,5.9,2.2
						C1399.2,726.7,1399.9,728.6,1399.9,731.1z"/>
					<path class="st2" d="M1042,785h-16.8v-24.5h16.5v2.9h-13.1v7.8h11.7v2.8h-11.7v8.2h13.5V785z"/>
					<path class="st2" d="M1054,785.4c-3,0-5.3-0.7-7-2.1c-1.7-1.5-2.6-3.4-2.7-5.8l3.3-0.4c0.1,1.8,0.7,3.2,1.8,4.2
						s2.6,1.4,4.6,1.4c1.6,0,2.9-0.4,3.8-1.2c0.9-0.8,1.4-1.9,1.4-3.2c0-1.1-0.3-1.9-1-2.5c-0.6-0.6-1.8-1.1-3.4-1.4l-3.3-0.7
						c-2.2-0.5-3.9-1.3-4.9-2.4c-1.1-1.1-1.6-2.6-1.6-4.4c0-1.9,0.8-3.5,2.3-4.8c1.5-1.3,3.5-2,5.9-2c2.6,0,4.6,0.6,6.2,1.9
						c1.5,1.3,2.4,3,2.6,5.2l-3.3,0.4c-0.4-3.2-2.2-4.8-5.5-4.8c-1.6,0-2.8,0.4-3.6,1.1c-0.9,0.7-1.3,1.7-1.3,2.9
						c0,1.1,0.3,1.9,0.9,2.6c0.6,0.6,1.6,1.1,3,1.4l3.8,0.8c2.2,0.5,3.8,1.2,4.9,2.3s1.6,2.5,1.6,4.3c0,2.1-0.8,3.9-2.3,5.2
						C1058.7,784.7,1056.6,785.4,1054,785.4z"/>
					<path class="st2" d="M1063.6,760.5h18.6v2.9h-7.6V785h-3.3v-21.6h-7.7V760.5z"/>
					<path class="st2" d="M1102.7,767c0-1.2-0.4-2.2-1.2-2.9c-0.8-0.7-1.8-1.1-3.1-1.1c-1.8,0-3.1,0.6-4,1.7s-1.3,2.8-1.3,4.9
						l-3.2-0.4c-0.2-2.8,0.5-5,2.1-6.6c1.6-1.6,3.7-2.4,6.3-2.4c2.4,0,4.2,0.6,5.6,1.9c1.4,1.3,2.1,3,2.1,5c0,1.5-0.4,3-1.2,4.4
						c-0.8,1.5-2.2,3-4,4.8l-6.5,6h12.5v2.8h-16.8v-2.9l8.8-8.1c1.5-1.3,2.5-2.5,3.1-3.6C1102.4,769.4,1102.7,768.2,1102.7,767z"/>
					<path class="st2" d="M1109.5,772.7c0-3.9,0.8-7,2.4-9.3c1.6-2.3,3.9-3.4,6.8-3.4c2.9,0,5.2,1.1,6.8,3.4
						c1.6,2.2,2.4,5.3,2.4,9.3c0,3.9-0.8,7-2.4,9.3c-1.6,2.3-3.9,3.4-6.8,3.4c-2.9,0-5.2-1.1-6.8-3.3
						C1110.3,779.8,1109.5,776.7,1109.5,772.7z M1123,780.1c1-1.7,1.5-4.2,1.5-7.3c0-3.2-0.5-5.6-1.5-7.3s-2.5-2.6-4.4-2.6
						c-1.8,0-3.3,0.9-4.3,2.6s-1.5,4.2-1.5,7.2c0,3.2,0.5,5.6,1.5,7.3c1,1.7,2.5,2.6,4.3,2.6C1120.6,782.6,1122,781.8,1123,780.1z"
						/>
					<path class="st2" d="M1146.2,785H1131v-2.8h6v-15.7c-0.7,0.4-1.6,0.7-2.8,0.7h-3.3v-2.8h3.1c1,0,1.8-0.3,2.3-0.9
						c0.5-0.6,0.8-1.6,0.8-2.9h3.2v21.7h5.9V785z"/>
					<path class="st2" d="M1161.8,777.8c0-1.3-0.4-2.3-1.3-3.1c-0.8-0.7-2-1.1-3.6-1.1h-2.2v-2.5h2.1c1.3,0,2.3-0.4,3.1-1.2
						c0.7-0.8,1.1-1.9,1.1-3.2c0-1.2-0.4-2.1-1.2-2.8c-0.8-0.7-1.9-1-3.2-1c-1.5,0-2.8,0.5-3.7,1.3c-0.9,0.9-1.4,2.2-1.5,3.8l-3-0.7
						c0-2.1,0.8-3.9,2.4-5.2c1.6-1.3,3.5-2,5.9-2c2.3,0,4.2,0.6,5.6,1.8s2.1,2.7,2.1,4.7c0,1.3-0.3,2.4-0.9,3.4
						c-0.6,1-1.4,1.7-2.5,2.2c1.4,0.5,2.4,1.2,3.2,2.2c0.7,1,1.1,2.1,1.1,3.5c0,2.3-0.8,4.1-2.3,5.5c-1.5,1.4-3.6,2.1-6.1,2.1
						c-2.5,0-4.6-0.6-6.3-1.8c-1.7-1.2-2.6-2.9-2.7-5l3.3-0.7c0.1,1.5,0.7,2.7,1.6,3.6c1,0.8,2.3,1.2,3.9,1.2c1.6,0,2.9-0.4,3.8-1.3
						C1161.3,780.5,1161.8,779.3,1161.8,777.8z"/>
				</g>
			</g>
			<path class="st3" d="M997,716.5"/>
			<g>
				<rect x="700" y="190" class="st2" width="10" height="120"/>
				<rect x="705" y="235" class="st2" width="35" height="10"/>
				
					<rect x="699.4" y="221.6" transform="matrix(0.7071 -0.7071 0.7071 0.7071 50.2101 574.3619)" class="st2" width="38" height="10"/>
				<rect x="685" y="270" class="st2" width="17.2" height="10"/>
				<path class="st2" d="M710,295v-10c5.5,0,10-4.5,10-10s-4.5-10-10-10v-10c11,0,20,9,20,20C730,286,721,295,710,295z"/>
				<path class="st2" d="M725,205h-10c0-5.5-4.5-10-10-10s-10,4.5-10,10h-10c0-11,9-20,20-20C716,185,725,194,725,205z"/>
				<path class="st2" d="M949.7,645h-10c0-33-26.8-59.8-59.8-59.8S820,612,820,645h-10c0-38.5,31.3-69.8,69.8-69.8
					S949.7,606.5,949.7,645z"/>
				
					<rect x="742.2" y="400" transform="matrix(0.7071 -0.7071 0.7071 0.7071 -46.2055 698.4467)" class="st2" width="155.6" height="10"/>
				<path class="st2" d="M1160,655H760V397.1l-20,20V445h-40V305h100c52.4,0,95,42.6,95,95v25h170c52.4,0,95,42.6,95,95V655z
					 M770,645h380V520c0-46.9-38.1-85-85-85H885v-35c0-46.9-38.1-85-85-85h-90v120h20v-22.1l56.5-56.5l7.1,7.1L770,387.1V645z"/>
				<polygon class="st2" points="1155,625 1055,625 1055,430 1065,430 1065,615 1155,615 				"/>
				<path class="st2" d="M955,565c-38.6,0-70-31.4-70-70v-70h140v70C1025,533.6,993.6,565,955,565z M895,435v60
					c0,33.1,26.9,60,60,60c33.1,0,60-26.9,60-60v-60H895z"/>
				<path class="st2" d="M745,350h-45v-45h45V350z M710,340h25v-25h-25V340z"/>
			</g>
			<g>
				<polygon class="st2" points="585,580 539.9,580 571.8,530 545,530 545,520 590,520 558.1,570 585,570 				"/>
				<polygon class="st2" points="640,580 600.1,580 600,520 640,520 640,530 610,530 610.1,570 640,570 				"/>
				<rect x="605" y="545" class="st2" width="35" height="10"/>
				<polygon class="st2" points="695,580 655,580 655,520 695,520 695,530 665,530 665,570 695,570 				"/>
				<rect x="660" y="545" class="st2" width="35" height="10"/>
				<polygon class="st2" points="640,655 600,655 600,595 640,595 640,605 610,605 610,645 640,645 				"/>
				<rect x="605" y="620" class="st2" width="35" height="10"/>
				<polygon class="st2" points="700,655 690.4,655 665,614.5 665,655 655,655 655,595 664.6,595 690,635.5 690,595 700,595 				"/>
			</g>
			<g>
				<path class="st2" d="M815,820c-30.3,0-55-24.7-55-55v-50h10v50c0,24.8,20.2,45,45,45s45-20.2,45-45v-50h10v50
					C870,795.3,845.3,820,815,820z"/>
				<g>
					<polygon class="st2" points="928.1,818.5 921,811.5 960,772.5 960,745 970,745 970,776.6 					"/>
				</g>
				<rect x="810" y="715" class="st2" width="10" height="20"/>
				<rect x="960" y="715" class="st2" width="10" height="20"/>
				<rect x="860" y="830" class="st2" width="10" height="20"/>
				<rect x="880" y="830" class="st2" width="10" height="20"/>
				<polygon class="st2" points="868.5,765.6 861.5,758.5 885,735 885,715 895,715 895,739.1 				"/>
				<polygon class="st2" points="868.5,795.6 861.5,788.5 905,745 905,715 915,715 915,749.1 				"/>
				<polygon class="st2" points="874.1,820 860,820 860,715 870,715 870,810 925,755 925,715 935,715 935,759.1 				"/>
			</g>
		</g>
	</g>
</g>
<g id="Graphics_1_">
</g>
</svg>
