<svg xmlns="http://www.w3.org/2000/svg" viewBox="0 0 94 78"><defs><style>.cls-1{fill:none;stroke:#000;stroke-miterlimit:10;stroke-width:2px;}</style></defs><g id="Graphics"><path class="cls-1" d="M27,29v9A10,10,0,0,0,37,48h0A10,10,0,0,0,47,38V29"/><polyline class="cls-1" points="59.71 48.71 67 41.41 67 35"/><line class="cls-1" x1="37" y1="29" x2="37" y2="33"/><line class="cls-1" x1="67" y1="33" x2="67" y2="29"/><line class="cls-1" x1="47" y1="51" x2="47" y2="55"/><line class="cls-1" x1="51" y1="55" x2="51" y2="51"/><polyline class="cls-1" points="51 29 51 33.41 47 37.41"/><polyline class="cls-1" points="55 29 55 35.41 47 43.41"/><polyline class="cls-1" points="47 29 47 48 48.41 48 59 37.41 59 29"/></g></svg>