<svg xmlns="http://www.w3.org/2000/svg" viewBox="0 0 204 132"><defs><style>.cls-1{font-size:10px;font-family:Akkurat;letter-spacing:-0.03em;}.cls-2{letter-spacing:0.01em;}.cls-3{font-size:7px;letter-spacing:-0.01em;}.cls-4{fill:#777d7e;}</style></defs><g id="Graphics"><polygon points="66 72 47.95 72 60.71 52 50 52 50 48 68 48 55.24 68 66 68 66 72"/><polygon points="87.95 72 72 72 71.95 48 87.95 48 87.95 52 75.96 52 76 68 87.95 68 87.95 72"/><rect x="73.95" y="58" width="14" height="4"/><polygon points="110 72 94 72 94 48 110 48 110 52 98 52 98 68 110 68 110 72"/><rect x="96" y="58" width="14" height="4"/><polygon points="132 72 116 72 116 48 132 48 132 52 120 52 120 68 132 68 132 72"/><rect x="118" y="58" width="14" height="4"/><polygon points="156 72 152.02 72 142 55.66 142 72 138 72 138 48 142 48 152 64.32 152 48 156 48 156 72"/><text class="cls-1" transform="translate(48 88)">A<tspan class="cls-2" x="5.96" y="0">r</tspan><tspan x="9.95" y="0">tistically From Iran</tspan><tspan class="cls-3"><tspan x="0" y="8">EST 2013</tspan></tspan></text><path class="cls-4" d="M203,1V131H1V1H203m1-1H0V132H204V0Z"/></g></svg>