<svg xmlns="http://www.w3.org/2000/svg" viewBox="0 0 1920 1080"><g id="Graphics"><path d="M678.46,754.65a28.76,28.76,0,0,1,4.2,8,25,25,0,0,1,1.43,8,24.3,24.3,0,0,1-1.43,8.55,18.5,18.5,0,0,1-4,6.53,18,18,0,0,1-6.45,4.2,23.25,23.25,0,0,1-8.55,1.5,21.76,21.76,0,0,1-7.2-1.12A15.06,15.06,0,0,1,650.9,787a14.81,14.81,0,0,1-3.56-5.36,19.75,19.75,0,0,1-1.28-7.39,21,21,0,0,1,1.13-7,37.76,37.76,0,0,1,3.3-6.79l5.32,2.18a30.15,30.15,0,0,0-2.47,5.81,16.49,16.49,0,0,0-.75,4.47,9.16,9.16,0,0,0,3,7.38q3,2.6,8.74,2.59a13.72,13.72,0,0,0,9.3-3,10.54,10.54,0,0,0,3.53-8.43,15.66,15.66,0,0,0-1.2-5.52,28.9,28.9,0,0,0-3.38-6.19ZM664,757l-5.7-4.8,4.57-5.39,5.7,4.8Z"/><path d="M699.16,778.8l-7,1.58v-49.5l7-3.38Z"/><path d="M725,780a14.07,14.07,0,0,1-2.4-.19,4.28,4.28,0,0,1-2.1-1,15.8,15.8,0,0,1-1.95,5.81,27.52,27.52,0,0,1-4.05,5.44,47.68,47.68,0,0,1-5.81,5.17q-3.33,2.55-7.16,5l-5.78-5.47q4.13-2.49,7.58-4.95a59.57,59.57,0,0,0,5.85-4.73,27.06,27.06,0,0,0,3.75-4.2,6.32,6.32,0,0,0,1.35-3.45,11.1,11.1,0,0,0-1.35-4.31,44.93,44.93,0,0,0-3.45-5.89l5.7-5.7c1,1.8,2,3.33,2.74,4.57a24.92,24.92,0,0,0,2.13,3,6.85,6.85,0,0,0,1.95,1.69,4.54,4.54,0,0,0,2.18.53h3V780Z"/><path d="M746.78,769.35a3.74,3.74,0,0,0-.33-1.27,17.61,17.61,0,0,0-1-1.92c-.43-.72-.9-1.48-1.42-2.28s-1.09-1.58-1.69-2.33l5.62-5.93a24.17,24.17,0,0,1,4.2,6.94,18.39,18.39,0,0,1,1.35,6.41c0,3.61-1,6.34-3,8.22s-5.07,2.81-9.22,2.81h-14.1c-.55,0-1-.39-1.35-1.16a7.69,7.69,0,0,1-.53-3.12,7.92,7.92,0,0,1,.53-3.14q.52-1.2,1.35-1.2h14.17a13,13,0,0,0,3.94-.49C746.3,770.56,746.78,770.05,746.78,769.35Zm-14.7,25.73-5.47-4.66,4.35-5.17,5.55,4.58Zm9.6,0-5.47-4.66,4.35-5.17,5.47,4.58Z"/><path d="M768.61,778.8l-7.05,1.58v-49.5l7.05-3.38Z"/><path d="M804.76,772.65a15.44,15.44,0,0,1-1.5,6.64,26.43,26.43,0,0,1-4.09,6.11,47,47,0,0,1-6.11,5.7,93.58,93.58,0,0,1-7.65,5.4L779.63,791c2.75-1.65,5.28-3.31,7.58-4.95a60.78,60.78,0,0,0,5.85-4.73,27.06,27.06,0,0,0,3.75-4.2,6.32,6.32,0,0,0,1.35-3.45,6.51,6.51,0,0,0-.38-1.91,23.5,23.5,0,0,0-1-2.55,26.8,26.8,0,0,0-1.54-2.85c-.6-1-1.23-1.94-1.87-2.89l5.62-5.62a34.86,34.86,0,0,1,4.46,8.21A19.9,19.9,0,0,1,804.76,772.65Zm-7.5-19.12-5.7-4.81,4.57-5.39,5.7,4.79Z"/><path d="M819.91,778.8l-7,1.58v-49.5l7-3.38Z"/><path d="M864.9,780c-3.15,0-5.55-.67-7.2-2a12.45,12.45,0,0,1-3.75-6.22,14,14,0,0,1-3.93,1.8,16.51,16.51,0,0,1-4.69.67,7.65,7.65,0,0,1-5.44-1.91,6.92,6.92,0,0,1-2.06-5.36,13.09,13.09,0,0,1,2.81-8.06q2.82-3.72,9.19-7.39l-.9-3.83,6-4.42,3.6,18.75c.35,1.8.67,3.3,1,4.5a9,9,0,0,0,1.2,2.89,4.08,4.08,0,0,0,2,1.53,9.73,9.73,0,0,0,3.26.46h1.13V780ZM851,758.17a24.33,24.33,0,0,0-2.62,1.39,22.78,22.78,0,0,0-2.33,1.65,11,11,0,0,0-1.76,1.8,4.19,4.19,0,0,0-.86,1.84,1.32,1.32,0,0,0,.82,1.24,4.76,4.76,0,0,0,2.1.41,10.87,10.87,0,0,0,1.69-.15,15.84,15.84,0,0,0,1.84-.41,10.34,10.34,0,0,0,1.57-.6,6.35,6.35,0,0,0,1.05-.64Z"/><path d="M890,780a18,18,0,0,1-5.44-.83,14.61,14.61,0,0,1-4.84-2.55,17.67,17.67,0,0,1-5,2.55,15,15,0,0,1-4.65.83h-3.07c-.55,0-1-.39-1.35-1.16a7.69,7.69,0,0,1-.53-3.12,7.92,7.92,0,0,1,.53-3.14q.53-1.2,1.35-1.2h1.8c.8,0,1.51,0,2.14-.08a20.79,20.79,0,0,0,2.13-.3,12.37,12.37,0,0,1-1.46-3.11,10.22,10.22,0,0,1,.53-7.58,15,15,0,0,1,2.62-4,13.57,13.57,0,0,1,3.64-2.85,8.29,8.29,0,0,1,4-1.09,6.46,6.46,0,0,1,3.38.94,9.06,9.06,0,0,1,2.7,2.47,13.41,13.41,0,0,1,2.47,7.77,11.7,11.7,0,0,1-.67,3.78,9.56,9.56,0,0,1-2.55,3.79c.85.1,1.62.16,2.32.19s1.43,0,2.18,0h2V780ZM877.5,748,872,743.4l4.35-5.18,5.55,4.5Zm4.28,12.53a3.61,3.61,0,0,0-1.58.41,7.44,7.44,0,0,0-1.5,1,5.31,5.31,0,0,0-1.08,1.32,2.6,2.6,0,0,0-.42,1.31,4.68,4.68,0,0,0,.94,2.59,8.74,8.74,0,0,0,2.21,2.28,11.35,11.35,0,0,0,3.42-2.36,3.61,3.61,0,0,0,1.23-2.14,4.51,4.51,0,0,0-.26-1.46A5.55,5.55,0,0,0,884,762a5.29,5.29,0,0,0-1-1.09A2,2,0,0,0,881.78,760.5ZM887.1,748l-5.47-4.57,4.35-5.18,5.47,4.5Z"/><path d="M915.3,780a12.05,12.05,0,0,1-5.1-1,8.34,8.34,0,0,1-3.52-3.23,9.7,9.7,0,0,1-3.75,3.19,12.85,12.85,0,0,1-5.4,1H894.3c-.55,0-1-.39-1.35-1.16a7.7,7.7,0,0,1-.52-3.12,7.94,7.94,0,0,1,.52-3.14q.52-1.2,1.35-1.2h3.08a22.07,22.07,0,0,0,3.11-.19,4.74,4.74,0,0,0,2-.75,3.27,3.27,0,0,0,1.17-1.58,8.68,8.68,0,0,0,.45-2.58v-3.16l6.22-1.57a46.36,46.36,0,0,0,.19,4.65,8.45,8.45,0,0,0,.79,3,3.49,3.49,0,0,0,1.72,1.65,8,8,0,0,0,3.08.49h3.52V780Zm-13.57,15.08-5.48-4.66,4.35-5.17,5.55,4.58Zm9.6,0-5.48-4.66,4.35-5.17,5.48,4.58Z"/><path d="M937.28,780a8.77,8.77,0,0,1-4.54-1,7.66,7.66,0,0,1-2.81-2.92,8.76,8.76,0,0,1-7.58,4h-2.7c-.55,0-1-.38-1.35-1.12a7.46,7.46,0,0,1-.52-3.08,8,8,0,0,1,.52-3.15q.53-1.2,1.35-1.2h2c2.1,0,3.49-.42,4.16-1.28a6.29,6.29,0,0,0,1-4c0-.45,0-1.42,0-2.92s-.06-3.67-.11-6.49-.13-6.36-.23-10.62-.22-9.34-.37-15.29l7.05-3.38v33.22c0,2,.06,3.69.18,5.07a12.32,12.32,0,0,0,.68,3.3,3.5,3.5,0,0,0,1.43,1.8,4.89,4.89,0,0,0,2.51.56h2.85V780Z"/><path d="M970.43,775.42A10.48,10.48,0,0,1,967,778.8a10.2,10.2,0,0,1-5.25,1.2,12.28,12.28,0,0,1-5.22-.94,7.87,7.87,0,0,1-3.41-3.56,9.21,9.21,0,0,1-3.56,3.45,9.39,9.39,0,0,1-4.31,1h-4.5c-.55,0-1-.39-1.35-1.16a7.69,7.69,0,0,1-.53-3.12,7.92,7.92,0,0,1,.53-3.14q.52-1.2,1.35-1.2h4.2a8.43,8.43,0,0,0,3.93-.87,3.1,3.1,0,0,0,1.69-3v-4.35l6.23-1.57q0,2.78.18,4.65a9.44,9.44,0,0,0,.75,3,3.43,3.43,0,0,0,1.58,1.65,6.22,6.22,0,0,0,2.66.49,11,11,0,0,0,3-.34,3.78,3.78,0,0,0,1.77-1,3.73,3.73,0,0,0,.82-1.77,12.83,12.83,0,0,0,.23-2.59v-2.55l6.15-1.57a21.88,21.88,0,0,0,.93,7.46q.95,2.37,4,2.37,4.42,0,4.42-1.88a4.19,4.19,0,0,0-.34-1.35,14.84,14.84,0,0,0-.93-2c-.4-.72-.87-1.48-1.39-2.28s-1.09-1.58-1.69-2.33l5.55-5.93a24.17,24.17,0,0,1,4.2,6.94A18.39,18.39,0,0,1,990,769a12.11,12.11,0,0,1-.82,4.54,9.69,9.69,0,0,1-2.33,3.49,10.57,10.57,0,0,1-3.52,2.21,12.22,12.22,0,0,1-4.5.79Q972.75,780,970.43,775.42Z"/><path d="M1010,780a10.53,10.53,0,0,1-5.62-1.31,8.91,8.91,0,0,1-3.23-3.45,14.69,14.69,0,0,1-1.5-4.88,50.8,50.8,0,0,1-.45-5.58q-.15-3.45-.23-7.73c0-2.85-.11-5.77-.18-8.77s-.18-6-.3-9-.29-5.8-.49-8.4l7-3.38c0,2.8,0,5.69,0,8.66s.08,5.94.15,8.89.15,5.88.23,8.78.13,5.65.19,8.25c0,1.2,0,2.36.07,3.48a11,11,0,0,0,.52,3,4.08,4.08,0,0,0,1.47,2.06,5.06,5.06,0,0,0,3,.76h3V780Z"/><path d="M1016.18,795.53l-5.7-4.88,4.57-5.4,5.7,4.8Zm6.9-26.18a3.81,3.81,0,0,0-.34-1.27,16,16,0,0,0-1-1.92c-.42-.72-.9-1.48-1.42-2.28s-1.09-1.58-1.69-2.33l5.63-5.93a24.17,24.17,0,0,1,4.2,6.94,18.39,18.39,0,0,1,1.35,6.41c0,3.61-1,6.34-3,8.22s-5.08,2.81-9.23,2.81h-4c-.55,0-1-.39-1.35-1.16a7.69,7.69,0,0,1-.53-3.12,7.92,7.92,0,0,1,.53-3.14q.53-1.2,1.35-1.2h4a13.4,13.4,0,0,0,4-.49C1022.58,770.56,1023.08,770.05,1023.08,769.35Z"/><path d="M803.43,830a42.41,42.41,0,0,1,5.9,15.83,68.8,68.8,0,0,1,.82,8.43c.1,2.9.15,6,.15,9.34h-2.41q-.06-4.83-.4-8.9a64,64,0,0,0-1.07-7.66,41.64,41.64,0,0,0-2-6.83,46.11,46.11,0,0,0-3.09-6.38Z"/><path d="M818.7,830c.77,1.47,1.45,2.7,2,3.7a17.18,17.18,0,0,0,1.68,2.42,5,5,0,0,0,1.63,1.31,4.44,4.44,0,0,0,1.89.39,2.68,2.68,0,0,0,2.47-1.57,11.45,11.45,0,0,0,.83-5l2.47-.63a16.23,16.23,0,0,0,1.24,5.54,2.73,2.73,0,0,0,2.54,1.65,2.56,2.56,0,0,0,2.34-1.76,13,13,0,0,0,.81-5.22l2.84-.79q0,6.51-1.66,9.32a5.06,5.06,0,0,1-4.54,2.81,4.44,4.44,0,0,1-2.89-.9,5.81,5.81,0,0,1-1.68-2.2,5,5,0,0,1-4.72,3.26,5.12,5.12,0,0,1-1.31-.19,2.7,2.7,0,0,1-1.26-.76,42.21,42.21,0,0,1,1.89,10.16q.36,5.49.36,12.1h-2.41q-.06-4.83-.39-8.9a59.34,59.34,0,0,0-1.13-7.64,46.73,46.73,0,0,0-2-6.8,45.07,45.07,0,0,0-3.1-6.38Z"/><path d="M862,863.81a16.12,16.12,0,0,1-2-3.54,27.58,27.58,0,0,1-1.4-4.2,35.77,35.77,0,0,1-.81-4.65c-.17-1.61-.28-3.23-.31-4.88-.39,0-.85.06-1.4.08s-1,0-1.54,0a19.81,19.81,0,0,1-3.26-.23,6.49,6.49,0,0,1-2.41-.87,4.08,4.08,0,0,1-1.53-1.73,6.45,6.45,0,0,1-.52-2.78,11.75,11.75,0,0,1,.63-3.62,15.61,15.61,0,0,1,1.68-3.6,11.08,11.08,0,0,1,2.44-2.76,4.74,4.74,0,0,1,3-1.1,4.63,4.63,0,0,1,4.3,2.89c1,1.92,1.47,5,1.47,9.34,0,1.47,0,3,.08,4.57a34.52,34.52,0,0,0,.47,4.67,24.59,24.59,0,0,0,1.21,4.49,14.58,14.58,0,0,0,2.28,4Zm-4.51-21a30.31,30.31,0,0,0-.19-3.57,14,14,0,0,0-.57-2.81,4.93,4.93,0,0,0-1-1.84,2,2,0,0,0-1.52-.65,2.93,2.93,0,0,0-1.76.65,6.78,6.78,0,0,0-1.52,1.63,8.76,8.76,0,0,0-1.05,2.15,7,7,0,0,0-.39,2.18,2.14,2.14,0,0,0,1.36,1.76,9.25,9.25,0,0,0,3.68.55h1.62C856.57,842.81,857,842.79,857.45,842.76Z"/><path d="M873.15,841.08a41,41,0,0,1,1.94,10.21q.36,5.49.37,12.26H873q0-4.83-.39-8.9a59.34,59.34,0,0,0-1.13-7.64,46.73,46.73,0,0,0-2-6.8,45.07,45.07,0,0,0-3.1-6.38l2.1-3.88c.74,1.4,1.42,2.59,2,3.57a15.56,15.56,0,0,0,1.86,2.41,5.53,5.53,0,0,0,4.34,1.84q4.62,0,4.62-7l2.88-.79a29.66,29.66,0,0,1-.39,5,12.36,12.36,0,0,1-1.29,3.89,6.37,6.37,0,0,1-2.36,2.49,7,7,0,0,1-3.62.87,6.17,6.17,0,0,1-1.79-.27A4.31,4.31,0,0,1,873.15,841.08Z"/><path d="M952.05,862.5a8.53,8.53,0,0,1-3.91-.79A5,5,0,0,1,945.8,859a6.08,6.08,0,0,1-5.67,3.52,5.37,5.37,0,0,1-3-.87,5.76,5.76,0,0,1-2.1-2.7,6.58,6.58,0,0,1-6.14,3.57,5,5,0,0,1-3.94-1.47,9.26,9.26,0,0,1,.13,1.18,7,7,0,0,1,0,1.13,15.35,15.35,0,0,1-1.2,5.36,12.2,12.2,0,0,1-2.92,4.14,12.85,12.85,0,0,1-4.49,2.68,17.4,17.4,0,0,1-5.93.94,14.83,14.83,0,0,1-4.91-.78,10.93,10.93,0,0,1-3.83-2.29,10.12,10.12,0,0,1-2.49-3.67,12.75,12.75,0,0,1-.9-4.91,15.17,15.17,0,0,1,.69-4.73,20.69,20.69,0,0,1,2.15-4.46l2.41,1.21a17.36,17.36,0,0,0-1.62,3.6,11.45,11.45,0,0,0-.58,3.54,7.92,7.92,0,0,0,2.52,6.2,10.12,10.12,0,0,0,7,2.25,13.74,13.74,0,0,0,4.57-.71,9.55,9.55,0,0,0,3.46-2,9.05,9.05,0,0,0,2.21-3.17,10.63,10.63,0,0,0,.79-4.13,12.46,12.46,0,0,0-.82-4.14,21.31,21.31,0,0,0-2.23-4.52l2.94-2.52c.6,1.12,1.13,2.13,1.6,3a15.53,15.53,0,0,0,1.47,2.28,5.72,5.72,0,0,0,1.66,1.45,4.47,4.47,0,0,0,2.2.5,4.17,4.17,0,0,0,4.88-4.88v-1.79l3-.74c0,2.7.29,4.61.89,5.73a3,3,0,0,0,2.89,1.68,4.26,4.26,0,0,0,2.78-1,4.32,4.32,0,0,0,1.26-3.3v-2.42l3-.74a22.79,22.79,0,0,0,.21,3.34,6.4,6.4,0,0,0,.76,2.31A3.27,3.27,0,0,0,950,858a6.7,6.7,0,0,0,2.57.42h1.9v4Z"/><path d="M969.43,862.5a8.53,8.53,0,0,1-3.91-.79,5.48,5.48,0,0,1-2.44-2.67,6.81,6.81,0,0,1-2.6,2.62,8.14,8.14,0,0,1-3.91.84h-2.15a1.07,1.07,0,0,1-.9-.58,2.71,2.71,0,0,1-.36-1.47,2.6,2.6,0,0,1,.36-1.44,1.07,1.07,0,0,1,.9-.55h2.15a6.15,6.15,0,0,0,3.8-1c.83-.65,1.29-1.88,1.39-3.7l.06-2,2.94-.74a24.5,24.5,0,0,0,.21,3.52,5.66,5.66,0,0,0,.78,2.29,3.16,3.16,0,0,0,1.61,1.23,8.07,8.07,0,0,0,2.65.37h2v4ZM960,872.11l-3.1-2.57,2.26-2.68,3,2.57Zm6.25,0-3.05-2.57,2.31-2.68,3,2.57Z"/><path d="M993.05,858.93a7.06,7.06,0,0,1-2.46,2.68,7.37,7.37,0,0,1-3.84.89,7.82,7.82,0,0,1-3.75-.76,5.55,5.55,0,0,1-2.28-2.76,6.42,6.42,0,0,1-5.93,3.52h-2.74a1.06,1.06,0,0,1-.89-.58,2.71,2.71,0,0,1-.37-1.47,2.6,2.6,0,0,1,.37-1.44,1.07,1.07,0,0,1,.89-.55h2.52a5.87,5.87,0,0,0,3.42-1,4,4,0,0,0,1.47-3.3v-2.42l2.94-.74a24.5,24.5,0,0,0,.21,3.52,6.17,6.17,0,0,0,.73,2.29,3,3,0,0,0,1.37,1.23,5.34,5.34,0,0,0,2.1.37,5.19,5.19,0,0,0,3.7-1.1,5.51,5.51,0,0,0,1.23-3.78v-1.79l2.94-.74q0,4.05,1,5.73a3.56,3.56,0,0,0,3.41,1.68,7.23,7.23,0,0,0,1.29-.13,5,5,0,0,0,1.2-.4,2.49,2.49,0,0,0,.9-.68,1.57,1.57,0,0,0,.34-1,7.17,7.17,0,0,0-.66-2.28,18.38,18.38,0,0,0-2.18-3.7l2.73-2.84a14.25,14.25,0,0,1,2.47,4.31,12.42,12.42,0,0,1,.79,4,6.35,6.35,0,0,1-2,5,7.24,7.24,0,0,1-5,1.81,6.83,6.83,0,0,1-3.67-.89A5.55,5.55,0,0,1,993.05,858.93Z"/><path d="M1019.51,827,1008.38,830v-2l2.94-1a3.56,3.56,0,0,1-1.15-1.37,3.5,3.5,0,0,1-.37-1.52,4,4,0,0,1,.37-1.73,4.25,4.25,0,0,1,1-1.37,5.13,5.13,0,0,1,1.44-.92,4.35,4.35,0,0,1,1.65-.34,5.31,5.31,0,0,1,3.26,1.16l-.58,1.68a7,7,0,0,0-2.68-.47,3,3,0,0,0-1.7.47,1.41,1.41,0,0,0-.71,1.2,1.8,1.8,0,0,0,.84,1.47,3.08,3.08,0,0,0,1.89.64,19.44,19.44,0,0,0,4.93-1.32Zm.53,35.49a7.35,7.35,0,0,1-4-.89,5.3,5.3,0,0,1-2-2.31,9.76,9.76,0,0,1-.76-3.26c-.08-1.22-.15-2.46-.18-3.72-.07-1.79-.11-3.43-.13-4.94s0-3-.05-4.49-.07-3-.14-4.64-.17-3.42-.31-5.41l3.36-1.47q.1,3.57.16,5.88c0,1.54,0,2.87,0,4q0,2.35,0,4.56c0,1.48,0,3,0,4.57,0,1,0,2.07.13,3a8.68,8.68,0,0,0,.58,2.57,4.24,4.24,0,0,0,1.31,1.79,3.62,3.62,0,0,0,2.28.68H1022v4Z"/><path d="M1028.75,856.2a7.47,7.47,0,0,0-.63-2.23,17.18,17.18,0,0,0-2.15-3.7l2.68-2.84a14.25,14.25,0,0,1,2.47,4.31,12.38,12.38,0,0,1,.78,4,6.28,6.28,0,0,1-2,5q-2,1.72-6.27,1.73H1022a1,1,0,0,1-.89-.58,2.63,2.63,0,0,1-.37-1.47,2.52,2.52,0,0,1,.37-1.44,1,1,0,0,1,.89-.55h1.68a11,11,0,0,0,3.57-.53C1028.25,857.58,1028.75,857,1028.75,856.2Zm-3.36-12.86-3.09-2.58,2.25-2.67,3,2.57Zm6.25,0-3-2.58,2.31-2.67,3,2.57Z"/><path d="M810,577.5c-91,0-165-74-165-165v-150h30v150c0,74.44,60.56,135,135,135s135-60.56,135-135v-150h30v150C975,503.48,901,577.5,810,577.5Z"/><polygon points="1149.32 573.11 1128.1 551.89 1245 435 1245 352.5 1275 352.5 1275 447.42 1149.32 573.11"/><rect x="795" y="262.5" width="30" height="60"/><rect x="1245" y="262.5" width="30" height="60"/><rect x="945" y="607.5" width="30" height="60"/><rect x="1005" y="607.5" width="30" height="60"/><polygon points="970.61 414.32 949.39 393.1 1020 322.5 1020 262.5 1050 262.5 1050 334.92 970.61 414.32"/><polygon points="970.61 504.32 949.39 483.1 1080 352.5 1080 262.5 1110 262.5 1110 364.92 970.61 504.32"/><polygon points="987.42 577.5 945 577.5 945 262.5 975 262.5 975 547.5 1140 382.5 1140 262.5 1170 262.5 1170 394.92 987.42 577.5"/></g></svg>