<svg xmlns="http://www.w3.org/2000/svg" viewBox="0 0 1920 1080"><defs><style>.cls-1{fill:#082b96;}.cls-2{fill:#061f6b;}.cls-3{fill:none;stroke:#fff;stroke-miterlimit:10;stroke-width:10px;}</style></defs><g id="Background"><rect class="cls-1" width="1920" height="1080"/></g><g id="Graphics"><path class="cls-2" d="M1400,955H520V125h880Z"/><line class="cls-3" x1="705" y1="370" x2="705" y2="250"/><line class="cls-3" x1="705" y1="300" x2="740" y2="300"/><line class="cls-3" x1="705" y1="300" x2="731.85" y2="273.15"/><line class="cls-3" x1="702.19" y1="335" x2="685" y2="335"/><path class="cls-3" d="M710,320a15,15,0,0,1,0,30"/><path class="cls-3" d="M720,265a15,15,0,0,0-30,0"/><path class="cls-3" d="M815,705a64.84,64.84,0,0,1,64.84-64.84h0A64.84,64.84,0,0,1,944.68,705"/><line class="cls-3" x1="875" y1="410" x2="765" y2="520"/><path class="cls-3" d="M790,420l-55,55v25H705V370h95a90,90,0,0,1,90,90v30h175a90,90,0,0,1,90,90V710H765V445"/><polyline class="cls-3" points="1155 680 1060 680 1060 490"/><path class="cls-3" d="M890,490h130a0,0,0,0,1,0,0v65a65,65,0,0,1-65,65h0a65,65,0,0,1-65-65V490A0,0,0,0,1,890,490Z"/><polyline class="cls-3" points="740 370 740 405 705 405"/></g></svg>