<svg xmlns="http://www.w3.org/2000/svg" viewBox="0 0 272 190"><defs><style>.cls-1,.cls-2{fill:none;stroke:#000;stroke-miterlimit:10;}.cls-1{stroke-width:2px;}.cls-2{stroke-width:2px;}.cls-3{fill:#777d7e;}</style></defs><g id="Graphics"><line class="cls-1" x1="85" y1="49" x2="85" y2="25"/><line class="cls-1" x1="85" y1="35" x2="92" y2="35"/><line class="cls-1" x1="85" y1="35" x2="90.37" y2="29.63"/><line class="cls-1" x1="84.44" y1="42" x2="81" y2="42"/><path class="cls-1" d="M86,39a3,3,0,0,1,0,6"/><path class="cls-1" d="M88,28a3,3,0,0,0-6,0"/><path class="cls-1" d="M107,116a13,13,0,0,1,13-13h0a13,13,0,0,1,13,13"/><line class="cls-1" x1="119" y1="57" x2="97" y2="79"/><path class="cls-1" d="M102,59,91,70v5H85V49h19a18,18,0,0,1,18,18v6h35a18,18,0,0,1,18,18v26H97V64"/><polyline class="cls-1" points="175 111 156 111 156 73"/><path class="cls-1" d="M122,73h26a0,0,0,0,1,0,0V86a13,13,0,0,1-13,13h0a13,13,0,0,1-13-13V73A0,0,0,0,1,122,73Z"/><polyline class="cls-1" points="92 49 92 56 85 56"/><path class="cls-1" d="M97,130v9a10,10,0,0,0,10,10h0a10,10,0,0,0,10-10v-9"/><polyline class="cls-1" points="129.71 149.71 137 142.41 137 136"/><line class="cls-1" x1="107" y1="130" x2="107" y2="134"/><line class="cls-1" x1="137" y1="134" x2="137" y2="130"/><line class="cls-1" x1="117" y1="152" x2="117" y2="156"/><line class="cls-1" x1="121" y1="156" x2="121" y2="152"/><polyline class="cls-1" points="121 130 121 134.41 117 138.41"/><polyline class="cls-1" points="125 130 125 136.41 117 144.41"/><polyline class="cls-1" points="117 130 117 149 118.41 149 129 138.41 129 130"/><polyline class="cls-2" points="50 88 58.23 88 50.77 100 59 100"/><polyline class="cls-2" points="71 100 63 100 63 88 71 88"/><line class="cls-2" x1="71" y1="94" x2="63" y2="94"/><polyline class="cls-2" points="83 100 75 100 75 88 83 88"/><line class="cls-2" x1="83" y1="94" x2="75" y2="94"/><polyline class="cls-2" points="71 117 63 117 63 105 71 105"/><line class="cls-2" x1="71" y1="111" x2="63" y2="111"/><polyline class="cls-2" points="83 104 83 117 82.57 117 75.43 105 75 105 75 118"/><path d="M151.84,140.28h-3.05l-.65,1.72h-1l2.71-7h1l2.68,7h-1.05Zm-2.74-.8h2.44l-1.2-3.26Z"/><path d="M155.23,142h-.89v-5h.87v.91a1.54,1.54,0,0,1,1.43-.91H157v.84h-.4a1.19,1.19,0,0,0-1,.55,2.57,2.57,0,0,0-.38,1.48Z"/><path d="M157.49,137.73V137h.88v-1.61h.89V137h1.26v.73h-1.26v2.8a.79.79,0,0,0,.14.55.59.59,0,0,0,.48.16h.76V142h-.9a1.42,1.42,0,0,1-1-.34,1.34,1.34,0,0,1-.35-1v-2.92Z"/><path d="M162.36,136.19h-.88V135h.88Zm0,5.81h-.88v-5h.88Z"/><path d="M165.52,142.12a2.47,2.47,0,0,1-1.54-.44,1.63,1.63,0,0,1-.63-1.21l.89-.13a1.19,1.19,0,0,0,.38.81,1.34,1.34,0,0,0,.9.27,1.2,1.2,0,0,0,.79-.22.75.75,0,0,0,.27-.63c0-.4-.29-.64-.88-.72l-.72-.11a1.94,1.94,0,0,1-1.09-.48,1.2,1.2,0,0,1-.38-.93,1.28,1.28,0,0,1,.51-1.05,2.55,2.55,0,0,1,2.74,0,1.71,1.71,0,0,1,.63,1.14l-.82.12a1.34,1.34,0,0,0-.4-.74,1.53,1.53,0,0,0-1.53,0,.6.6,0,0,0-.27.51.58.58,0,0,0,.19.46,1.21,1.21,0,0,0,.59.23l.8.13c1,.16,1.52.64,1.52,1.43a1.46,1.46,0,0,1-.52,1.16A2.18,2.18,0,0,1,165.52,142.12Z"/><path d="M167.87,137.73V137h.88v-1.61h.89V137h1.26v.73h-1.26v2.8a.85.85,0,0,0,.14.55.59.59,0,0,0,.48.16H171V142h-.9a1.46,1.46,0,0,1-1-.34,1.38,1.38,0,0,1-.35-1v-2.92Z"/><path d="M172.75,136.19h-.89V135h.89Zm0,5.81h-.89v-5h.89Z"/><path d="M176.16,141.36a1.29,1.29,0,0,0,.91-.32,1.43,1.43,0,0,0,.41-.88l.87.1a2,2,0,0,1-.7,1.36,2.24,2.24,0,0,1-1.49.5,2.2,2.2,0,0,1-1.73-.7,2.74,2.74,0,0,1-.63-1.9,2.8,2.8,0,0,1,.64-1.92,2.22,2.22,0,0,1,1.72-.72,2.31,2.31,0,0,1,1.52.48,2.11,2.11,0,0,1,.7,1.36l-.91.1a1.22,1.22,0,0,0-1.32-1.18,1.24,1.24,0,0,0-1.05.49,2.25,2.25,0,0,0-.38,1.39,2.15,2.15,0,0,0,.38,1.35A1.26,1.26,0,0,0,176.16,141.36Z"/><path d="M183.52,141.26h.24V142h-.48a1.09,1.09,0,0,1-.66-.19.73.73,0,0,1-.3-.52,1.76,1.76,0,0,1-1.58.83,1.84,1.84,0,0,1-1.26-.41,1.31,1.31,0,0,1-.48-1.05,1.38,1.38,0,0,1,.39-1,2,2,0,0,1,1.12-.52l1.46-.25a.33.33,0,0,0,.31-.36.82.82,0,0,0-.29-.66,1.17,1.17,0,0,0-.8-.26,1.32,1.32,0,0,0-.81.23,1.24,1.24,0,0,0-.41.7l-.84-.1a1.72,1.72,0,0,1,.68-1.12,2.31,2.31,0,0,1,1.41-.42,2,2,0,0,1,1.42.48,1.64,1.64,0,0,1,.51,1.27v2.25a.37.37,0,0,0,.09.29A.36.36,0,0,0,183.52,141.26Zm-3.64-.66a.73.73,0,0,0,.26.59,1,1,0,0,0,.7.22,1.34,1.34,0,0,0,1-.46,1.68,1.68,0,0,0,.4-1.17v-.29l-1.6.28a1,1,0,0,0-.6.28A.74.74,0,0,0,179.88,140.6Z"/><path d="M185.43,142h-.89v-7h.89Z"/><path d="M187.7,142h-.89v-7h.89Z"/><path d="M190.32,142.47l.16-.44-2-5h.93l1.48,3.93,1.5-3.93h.9l-2.19,5.56a2.07,2.07,0,0,1-.68,1,1.66,1.66,0,0,1-1,.28h-.51v-.75h.51A1,1,0,0,0,190,143,1.11,1.11,0,0,0,190.32,142.47Z"/><path d="M197.26,142h-1v-7h4.91v.82h-4v2.28h3.55v.82h-3.55Z"/><path d="M202.69,142h-.89v-5h.87v.91a1.53,1.53,0,0,1,1.43-.91h.38v.84h-.39a1.17,1.17,0,0,0-1,.55,2.5,2.5,0,0,0-.38,1.48Z"/><path d="M204.72,139.5a2.7,2.7,0,0,1,.66-1.9,2.28,2.28,0,0,1,1.77-.72,2.32,2.32,0,0,1,1.78.72,2.66,2.66,0,0,1,.67,1.9,2.69,2.69,0,0,1-.67,1.9,2.32,2.32,0,0,1-1.78.72,2.28,2.28,0,0,1-1.77-.72A2.7,2.7,0,0,1,204.72,139.5Zm3.56,1.37a2.49,2.49,0,0,0,0-2.74,1.39,1.39,0,0,0-1.13-.5,1.36,1.36,0,0,0-1.11.5,2.06,2.06,0,0,0-.41,1.37,2.11,2.11,0,0,0,.4,1.37,1.37,1.37,0,0,0,1.12.5A1.39,1.39,0,0,0,208.28,140.87Z"/><path d="M214.62,139.24V142h-.89v-3.08a1.39,1.39,0,0,0-.29-.94,1,1,0,0,0-.8-.33,1.08,1.08,0,0,0-.93.41,1.89,1.89,0,0,0-.32,1.18V142h-.89v-5h.87v.61a1.68,1.68,0,0,1,1.47-.73,1.78,1.78,0,0,1,.95.23,1.49,1.49,0,0,1,.62.67,1.69,1.69,0,0,1,1.61-.9,1.83,1.83,0,0,1,1.35.5,1.93,1.93,0,0,1,.48,1.38V142H217v-3.08a1.34,1.34,0,0,0-.29-.94,1,1,0,0,0-.8-.33,1.08,1.08,0,0,0-.93.41A1.82,1.82,0,0,0,214.62,139.24Z"/><path d="M222.17,142h-1v-7h1Z"/><path d="M224.39,142h-.89v-5h.87v.91a1.53,1.53,0,0,1,1.43-.91h.38v.84h-.39a1.17,1.17,0,0,0-1,.55,2.5,2.5,0,0,0-.38,1.48Z"/><path d="M231,141.26h.24V142h-.49a1.09,1.09,0,0,1-.66-.19.69.69,0,0,1-.29-.52,1.77,1.77,0,0,1-1.59.83,1.84,1.84,0,0,1-1.26-.41,1.3,1.3,0,0,1-.47-1.05,1.38,1.38,0,0,1,.39-1,1.93,1.93,0,0,1,1.11-.52l1.46-.25a.34.34,0,0,0,.32-.36.83.83,0,0,0-.3-.66,1.17,1.17,0,0,0-.8-.26,1.29,1.29,0,0,0-.8.23,1.14,1.14,0,0,0-.41.7l-.85-.1a1.77,1.77,0,0,1,.68-1.12,2.32,2.32,0,0,1,1.42-.42,2,2,0,0,1,1.41.48,1.65,1.65,0,0,1,.52,1.27v2.25a.32.32,0,0,0,.37.38Zm-3.65-.66a.73.73,0,0,0,.26.59,1,1,0,0,0,.71.22,1.32,1.32,0,0,0,1-.46,1.69,1.69,0,0,0,.41-1.17v-.29l-1.6.28a1,1,0,0,0-.61.28A.74.74,0,0,0,227.3,140.6Z"/><path d="M236.11,138.76V142h-.89v-3.08a1.34,1.34,0,0,0-.3-.94,1.15,1.15,0,0,0-.88-.33,1.21,1.21,0,0,0-1,.4,1.8,1.8,0,0,0-.35,1.19V142h-.88v-5h.86v.63a1.78,1.78,0,0,1,1.56-.75,1.73,1.73,0,0,1,1.87,1.88Z"/><path d="M151,150h-3.37v-4.9h3.3v.57h-2.63v1.56h2.35v.56h-2.35v1.64H151Z"/><path d="M153.51,150.08a2.16,2.16,0,0,1-1.4-.42,1.47,1.47,0,0,1-.53-1.17l.65-.09a1.14,1.14,0,0,0,.36.84,1.37,1.37,0,0,0,.92.29,1.12,1.12,0,0,0,.76-.24.77.77,0,0,0,.28-.63.66.66,0,0,0-.19-.51,1.5,1.5,0,0,0-.68-.28l-.65-.14a1.91,1.91,0,0,1-1-.48,1.25,1.25,0,0,1-.32-.88,1.2,1.2,0,0,1,.46-1,1.76,1.76,0,0,1,1.19-.39,1.9,1.9,0,0,1,1.23.37,1.44,1.44,0,0,1,.52,1.05l-.66.08a1,1,0,0,0-1.09-1,1.11,1.11,0,0,0-.73.21.7.7,0,0,0-.26.57.66.66,0,0,0,.19.51,1.2,1.2,0,0,0,.61.28l.76.17a1.87,1.87,0,0,1,1,.45,1.18,1.18,0,0,1,.31.86,1.33,1.33,0,0,1-.47,1A1.79,1.79,0,0,1,153.51,150.08Z"/><path d="M155.53,145.1h3.72v.57h-1.52V150h-.67v-4.33h-1.53Z"/><path d="M163.57,146.4a.76.76,0,0,0-.24-.59.84.84,0,0,0-.62-.22.94.94,0,0,0-.79.34,1.47,1.47,0,0,0-.25,1l-.64-.08a1.64,1.64,0,0,1,.42-1.33,1.67,1.67,0,0,1,1.26-.48,1.54,1.54,0,0,1,1.12.38,1.33,1.33,0,0,1,.41,1,1.71,1.71,0,0,1-.25.88,4.58,4.58,0,0,1-.81,1l-1.3,1.2h2.49V150H161v-.57l1.76-1.62a3.32,3.32,0,0,0,.62-.72A1.42,1.42,0,0,0,163.57,146.4Z"/><path d="M165,147.55a3.2,3.2,0,0,1,.48-1.86,1.58,1.58,0,0,1,1.35-.67,1.56,1.56,0,0,1,1.35.67,3.76,3.76,0,0,1,0,3.71,1.69,1.69,0,0,1-2.7,0A3.12,3.12,0,0,1,165,147.55Zm2.7,1.46a3.59,3.59,0,0,0,0-2.92,1,1,0,0,0-1.73,0,2.81,2.81,0,0,0-.31,1.45A2.92,2.92,0,0,0,166,149a1,1,0,0,0,.87.51A1,1,0,0,0,167.73,149Z"/><path d="M172.47,150h-3v-.56h1.2v-3.15a1,1,0,0,1-.56.13h-.65v-.55H170a.56.56,0,0,0,.47-.19.92.92,0,0,0,.15-.58h.65v4.34h1.17Z"/><path d="M175.68,148.56a.75.75,0,0,0-.25-.61,1,1,0,0,0-.71-.22h-.44v-.51h.42a.81.81,0,0,0,.61-.23.9.9,0,0,0,.22-.65.72.72,0,0,0-.24-.57,1,1,0,0,0-.64-.2,1,1,0,0,0-.74.27,1,1,0,0,0-.3.75l-.61-.13a1.34,1.34,0,0,1,.48-1,1.74,1.74,0,0,1,1.18-.4,1.65,1.65,0,0,1,1.12.35,1.16,1.16,0,0,1,.41.93,1.31,1.31,0,0,1-.18.69,1.12,1.12,0,0,1-.51.45,1.17,1.17,0,0,1,.63.43,1.12,1.12,0,0,1,.22.7,1.38,1.38,0,0,1-.46,1.1,1.72,1.72,0,0,1-1.22.41,2.09,2.09,0,0,1-1.26-.36,1.36,1.36,0,0,1-.55-1l.67-.15a1,1,0,0,0,.33.71,1.14,1.14,0,0,0,.79.25,1,1,0,0,0,.76-.26A.92.92,0,0,0,175.68,148.56Z"/><path class="cls-3" d="M271,1V189H1V1H271m1-1H0V190H272V0Z"/></g></svg>