<svg xmlns="http://www.w3.org/2000/svg" viewBox="0 0 272 190"><defs><style>.cls-1{fill:#777d7e;}</style></defs><g id="Graphics"><path class="cls-1" d="M271,1V189H1V1H271m1-1H0V190H272V0Z"/><rect x="84" y="25" width="2" height="24"/><rect x="85" y="34" width="7" height="2"/><rect x="83.89" y="31.32" width="7.59" height="2" transform="translate(2.83 71.46) rotate(-45)"/><rect x="81" y="41" width="3.44" height="2"/><path d="M86,46V44a2,2,0,0,0,0-4V38a4,4,0,0,1,0,8Z"/><path d="M89,28H87a2,2,0,0,0-4,0H81a4,4,0,0,1,8,0Z"/><path d="M133.94,116h-2A12,12,0,0,0,108,116h-2a14,14,0,0,1,27.94,0Z"/><rect x="92.44" y="67" width="31.11" height="2" transform="translate(-16.45 96.28) rotate(-45)"/><path d="M176,118H96V66.41l-4,4V76H84V48h20a19,19,0,0,1,19,19v5h34a19,19,0,0,1,19,19Zm-78-2h76V91a17,17,0,0,0-17-17H121V67a17,17,0,0,0-17-17H86V74h4V69.59l11.29-11.3,1.42,1.42L98,64.41Z"/><polygon points="175 112 155 112 155 73 157 73 157 110 175 110 175 112"/><path d="M135,100a14,14,0,0,1-14-14V72h28V86A14,14,0,0,1,135,100ZM123,74V86a12,12,0,0,0,24,0V74Z"/><polygon points="93 57 85 57 85 55 91 55 91 49 93 49 93 57"/><path d="M107,150a11,11,0,0,1-11-11v-9h2v9a9,9,0,0,0,18,0v-9h2v9A11,11,0,0,1,107,150Z"/><polygon points="130.41 150.41 129 149 136 142 136 136 138 136 138 142.83 130.41 150.41"/><rect x="106" y="130" width="2" height="4"/><rect x="136" y="130" width="2" height="4"/><rect x="116" y="152" width="2" height="4"/><rect x="120" y="152" width="2" height="4"/><polygon points="117.71 139.12 116.29 137.71 120 134 120 130 122 130 122 134.83 117.71 139.12"/><polygon points="117.71 145.12 116.29 143.71 124 136 124 130 126 130 126 136.83 117.71 145.12"/><polygon points="118.83 150 116 150 116 130 118 130 118 148 128 138 128 130 130 130 130 138.83 118.83 150"/><path d="M151.84,140.28h-3.05l-.65,1.72h-1l2.71-7h1l2.68,7h-1.05Zm-2.74-.8h2.44l-1.2-3.26Z"/><path d="M155.23,142h-.89v-5h.87v.91a1.54,1.54,0,0,1,1.43-.91H157v.84h-.4a1.19,1.19,0,0,0-1,.55,2.57,2.57,0,0,0-.38,1.48Z"/><path d="M157.49,137.73V137h.88v-1.61h.89V137h1.26v.73h-1.26v2.8a.79.79,0,0,0,.14.55.59.59,0,0,0,.48.16h.76V142h-.9a1.42,1.42,0,0,1-1-.34,1.38,1.38,0,0,1-.35-1v-2.92Z"/><path d="M162.37,136.19h-.89V135h.89Zm0,5.81h-.89v-5h.89Z"/><path d="M165.52,142.12a2.47,2.47,0,0,1-1.54-.44,1.63,1.63,0,0,1-.63-1.21l.89-.13a1.19,1.19,0,0,0,.38.81,1.34,1.34,0,0,0,.9.27,1.2,1.2,0,0,0,.79-.22.75.75,0,0,0,.27-.63c0-.4-.29-.64-.88-.72l-.72-.11a2,2,0,0,1-1.09-.48,1.24,1.24,0,0,1-.38-.93,1.28,1.28,0,0,1,.51-1.05,2.55,2.55,0,0,1,2.74,0,1.71,1.71,0,0,1,.63,1.14l-.82.12a1.28,1.28,0,0,0-.4-.74,1.53,1.53,0,0,0-1.53,0,.6.6,0,0,0-.27.51.61.61,0,0,0,.19.46,1.21,1.21,0,0,0,.59.23l.8.13c1,.16,1.52.64,1.52,1.43a1.43,1.43,0,0,1-.52,1.16A2.18,2.18,0,0,1,165.52,142.12Z"/><path d="M167.87,137.73V137h.88v-1.61h.89V137h1.26v.73h-1.26v2.8a.85.85,0,0,0,.14.55.59.59,0,0,0,.48.16H171V142h-.9a1.46,1.46,0,0,1-1-.34,1.38,1.38,0,0,1-.35-1v-2.92Z"/><path d="M172.75,136.19h-.89V135h.89Zm0,5.81h-.89v-5h.89Z"/><path d="M176.16,141.36a1.29,1.29,0,0,0,.91-.32,1.43,1.43,0,0,0,.41-.88l.87.1a2.06,2.06,0,0,1-.69,1.36,2.28,2.28,0,0,1-1.5.5,2.18,2.18,0,0,1-1.72-.7,3.19,3.19,0,0,1,0-3.82,2.18,2.18,0,0,1,1.71-.72,2.31,2.31,0,0,1,1.52.48,2.11,2.11,0,0,1,.7,1.36l-.91.1a1.22,1.22,0,0,0-1.32-1.18,1.24,1.24,0,0,0-1.05.49,2.25,2.25,0,0,0-.38,1.39,2.15,2.15,0,0,0,.38,1.35A1.26,1.26,0,0,0,176.16,141.36Z"/><path d="M183.53,141.26h.23V142h-.48a1.09,1.09,0,0,1-.66-.19.73.73,0,0,1-.3-.52,1.74,1.74,0,0,1-1.58.83,1.84,1.84,0,0,1-1.26-.41,1.31,1.31,0,0,1-.48-1.05,1.38,1.38,0,0,1,.39-1,2,2,0,0,1,1.12-.52l1.46-.25a.34.34,0,0,0,.32-.36.83.83,0,0,0-.3-.66,1.17,1.17,0,0,0-.8-.26,1.27,1.27,0,0,0-.8.23,1.14,1.14,0,0,0-.41.7l-.85-.1a1.77,1.77,0,0,1,.68-1.12,2.32,2.32,0,0,1,1.42-.42,2,2,0,0,1,1.41.48,1.64,1.64,0,0,1,.51,1.27v2.25a.33.33,0,0,0,.38.38Zm-3.65-.66a.73.73,0,0,0,.26.59,1,1,0,0,0,.7.22,1.32,1.32,0,0,0,1-.46,1.68,1.68,0,0,0,.4-1.17v-.29l-1.6.28a1,1,0,0,0-.6.28A.74.74,0,0,0,179.88,140.6Z"/><path d="M185.43,142h-.89v-7h.89Z"/><path d="M187.7,142h-.89v-7h.89Z"/><path d="M190.32,142.47l.17-.44-2-5h.94l1.47,3.93,1.5-3.93h.9l-2.19,5.56a2.14,2.14,0,0,1-.67,1,1.7,1.7,0,0,1-1,.28h-.52v-.75h.52A1,1,0,0,0,190,143,1.11,1.11,0,0,0,190.32,142.47Z"/><path d="M197.26,142h-1v-7h4.91v.82h-4v2.28h3.55v.82h-3.55Z"/><path d="M202.69,142h-.89v-5h.87v.91a1.53,1.53,0,0,1,1.43-.91h.38v.84h-.39a1.17,1.17,0,0,0-1,.55,2.5,2.5,0,0,0-.38,1.48Z"/><path d="M204.72,139.5a2.7,2.7,0,0,1,.66-1.9,2.55,2.55,0,0,1,3.55,0,2.66,2.66,0,0,1,.67,1.9,2.69,2.69,0,0,1-.67,1.9,2.55,2.55,0,0,1-3.55,0A2.7,2.7,0,0,1,204.72,139.5Zm3.56,1.37a2.49,2.49,0,0,0,0-2.74,1.39,1.39,0,0,0-1.13-.5,1.36,1.36,0,0,0-1.11.5,2.11,2.11,0,0,0-.41,1.37,2.17,2.17,0,0,0,.4,1.37,1.52,1.52,0,0,0,2.25,0Z"/><path d="M214.62,139.24V142h-.89v-3.08a1.34,1.34,0,0,0-.29-.94,1,1,0,0,0-.8-.33,1.08,1.08,0,0,0-.93.41,1.89,1.89,0,0,0-.32,1.18V142h-.89v-5h.87v.61a1.68,1.68,0,0,1,1.47-.73,1.85,1.85,0,0,1,1,.23,1.47,1.47,0,0,1,.61.67,1.7,1.7,0,0,1,1.61-.9,1.83,1.83,0,0,1,1.35.5,1.93,1.93,0,0,1,.48,1.38V142H217v-3.08a1.34,1.34,0,0,0-.29-.94,1,1,0,0,0-.8-.33,1.08,1.08,0,0,0-.93.41A1.89,1.89,0,0,0,214.62,139.24Z"/><path d="M222.17,142h-1v-7h1Z"/><path d="M224.39,142h-.89v-5h.87v.91a1.53,1.53,0,0,1,1.43-.91h.38v.84h-.39a1.17,1.17,0,0,0-1,.55,2.5,2.5,0,0,0-.38,1.48Z"/><path d="M231,141.26h.24V142h-.49a1.09,1.09,0,0,1-.66-.19.69.69,0,0,1-.29-.52,1.76,1.76,0,0,1-1.58.83,1.81,1.81,0,0,1-1.26-.41,1.31,1.31,0,0,1-.48-1.05,1.38,1.38,0,0,1,.39-1,1.93,1.93,0,0,1,1.12-.52l1.46-.25a.34.34,0,0,0,.31-.36.85.85,0,0,0-.29-.66,1.21,1.21,0,0,0-.81-.26,1.31,1.31,0,0,0-.8.23,1.14,1.14,0,0,0-.41.7l-.85-.1a1.74,1.74,0,0,1,.69-1.12,2.27,2.27,0,0,1,1.41-.42,2,2,0,0,1,1.41.48,1.62,1.62,0,0,1,.52,1.27v2.25a.37.37,0,0,0,.08.29A.39.39,0,0,0,231,141.26Zm-3.64-.66a.72.72,0,0,0,.25.59,1,1,0,0,0,.71.22,1.32,1.32,0,0,0,1-.46,1.69,1.69,0,0,0,.41-1.17v-.29l-1.6.28a1,1,0,0,0-.61.28A.77.77,0,0,0,227.31,140.6Z"/><path d="M236.11,138.76V142h-.89v-3.08a1.34,1.34,0,0,0-.3-.94,1.14,1.14,0,0,0-.88-.33,1.21,1.21,0,0,0-1,.4,1.8,1.8,0,0,0-.34,1.19V142h-.89v-5h.87v.63a1.75,1.75,0,0,1,1.55-.75,1.72,1.72,0,0,1,1.87,1.88Z"/><path d="M151,150h-3.37v-4.9h3.3v.57H148.3v1.56h2.34v.56H148.3v1.64H151Z"/><path d="M153.51,150.08a2.16,2.16,0,0,1-1.4-.42,1.47,1.47,0,0,1-.53-1.17l.66-.09a1.09,1.09,0,0,0,.35.84,1.37,1.37,0,0,0,.92.29,1.12,1.12,0,0,0,.76-.24.77.77,0,0,0,.28-.63.66.66,0,0,0-.19-.51,1.5,1.5,0,0,0-.68-.28l-.65-.14a2,2,0,0,1-1-.48,1.25,1.25,0,0,1-.32-.88,1.23,1.23,0,0,1,.46-1,1.76,1.76,0,0,1,1.19-.39,1.9,1.9,0,0,1,1.23.37,1.44,1.44,0,0,1,.52,1.05l-.66.08a1,1,0,0,0-1.09-1,1.11,1.11,0,0,0-.73.21.7.7,0,0,0-.26.57.69.69,0,0,0,.19.51,1.2,1.2,0,0,0,.61.28l.76.17a1.83,1.83,0,0,1,1,.45,1.18,1.18,0,0,1,.31.86,1.33,1.33,0,0,1-.47,1A1.79,1.79,0,0,1,153.51,150.08Z"/><path d="M155.53,145.1h3.72v.57h-1.52V150h-.67v-4.33h-1.53Z"/><path d="M163.57,146.4a.76.76,0,0,0-.24-.59.84.84,0,0,0-.62-.22.94.94,0,0,0-.79.34,1.53,1.53,0,0,0-.25,1l-.64-.08a1.64,1.64,0,0,1,.42-1.33,1.67,1.67,0,0,1,1.26-.48,1.54,1.54,0,0,1,1.12.38,1.33,1.33,0,0,1,.41,1,1.71,1.71,0,0,1-.25.88,4.21,4.21,0,0,1-.8,1l-1.31,1.2h2.49V150H161v-.57l1.76-1.62a3.32,3.32,0,0,0,.62-.72A1.42,1.42,0,0,0,163.57,146.4Z"/><path d="M165,147.55a3.2,3.2,0,0,1,.48-1.86,1.58,1.58,0,0,1,1.35-.67,1.56,1.56,0,0,1,1.36.67,3.82,3.82,0,0,1,0,3.71,1.7,1.7,0,0,1-2.71,0A3.12,3.12,0,0,1,165,147.55Zm2.7,1.46a3.59,3.59,0,0,0,0-2.92,1,1,0,0,0-1.73,0,2.92,2.92,0,0,0-.31,1.45A2.81,2.81,0,0,0,166,149a1,1,0,0,0,1.73,0Z"/><path d="M172.48,150h-3v-.56h1.19v-3.15a1,1,0,0,1-.56.13h-.65v-.55H170a.56.56,0,0,0,.47-.19.92.92,0,0,0,.15-.58h.65v4.34h1.18Z"/><path d="M175.69,148.56a.76.76,0,0,0-.26-.61,1,1,0,0,0-.71-.22h-.44v-.51h.42a.81.81,0,0,0,.61-.23.9.9,0,0,0,.22-.65.72.72,0,0,0-.24-.57,1,1,0,0,0-.64-.2,1,1,0,0,0-.74.27,1,1,0,0,0-.3.75l-.61-.13a1.34,1.34,0,0,1,.48-1,1.74,1.74,0,0,1,1.18-.4,1.65,1.65,0,0,1,1.12.35,1.16,1.16,0,0,1,.41.93,1.31,1.31,0,0,1-.18.69,1.12,1.12,0,0,1-.51.45,1.17,1.17,0,0,1,.63.43,1.12,1.12,0,0,1,.22.7,1.38,1.38,0,0,1-.46,1.1,1.72,1.72,0,0,1-1.22.41,2.09,2.09,0,0,1-1.26-.36,1.36,1.36,0,0,1-.55-1l.67-.15a1,1,0,0,0,.33.71,1.14,1.14,0,0,0,.79.25,1,1,0,0,0,.76-.26A.93.93,0,0,0,175.69,148.56Z"/><polygon points="60.93 103 51.91 103 58.29 93 52.93 93 52.93 91 61.94 91 55.56 101 60.93 101 60.93 103"/><polygon points="71.93 103 63.96 103 63.93 91 71.93 91 71.93 93 65.94 93 65.95 101 71.93 101 71.93 103"/><rect x="64.93" y="96" width="7" height="2"/><polygon points="82.93 103 74.93 103 74.93 91 82.93 91 82.93 93 76.93 93 76.93 101 82.93 101 82.93 103"/><rect x="75.93" y="96" width="7" height="2"/><polygon points="71.93 118 63.93 118 63.93 106 71.93 106 71.93 108 65.93 108 65.93 116 71.93 116 71.93 118"/><rect x="64.93" y="111" width="7" height="2"/><polygon points="83.93 118 82.02 118 76.93 109.9 76.93 118 74.93 118 74.93 106 76.85 106 81.93 114.1 81.93 106 83.93 106 83.93 118"/></g></svg>