<svg xmlns="http://www.w3.org/2000/svg" viewBox="0 0 1920 1080"><defs><style>.cls-1{fill:#082b96;}.cls-2{fill:#061f6b;}.cls-3{fill:#fff;}</style></defs><g id="Background"><rect class="cls-1" width="1920" height="1080"/></g><g id="Graphics"><path class="cls-2" d="M1572,936H348V144H1572Z"/><path class="cls-3" d="M664.06,653.68H645.78L641.85,664H636l16.26-42h5.8l16.08,42h-6.29Zm-16.44-4.8h14.65l-7.21-19.58Z"/><path class="cls-3" d="M683.5,664h-5.33V634h5.22v5.45Q686.32,634,692,634h2.32v5h-2.38a7.09,7.09,0,0,0-6.12,3.3c-1.52,2.19-2.29,5.16-2.29,8.89Z"/><path class="cls-3" d="M698.55,638.39V634h5.28v-9.67h5.33V634h7.56v4.4h-7.56v16.78a5,5,0,0,0,.83,3.31,3.72,3.72,0,0,0,2.89.94h4.57V664h-5.39a8.4,8.4,0,0,1-6.12-2.06,8.05,8.05,0,0,1-2.11-6V638.39Z"/><path class="cls-3" d="M726.91,629.13h-5.33V622h5.33Zm0,34.86h-5.33V634h5.33Z"/><path class="cls-3" d="M745,664.72c-3.89,0-7-.88-9.26-2.66a9.63,9.63,0,0,1-3.75-7.24l5.33-.79a7.33,7.33,0,0,0,2.27,4.89,8.1,8.1,0,0,0,5.41,1.59,7.47,7.47,0,0,0,4.73-1.29,4.58,4.58,0,0,0,1.63-3.81q0-3.57-5.28-4.31l-4.3-.67a12,12,0,0,1-6.58-2.84,7.41,7.41,0,0,1-2.27-5.63,7.63,7.63,0,0,1,3.07-6.27,12.88,12.88,0,0,1,8.21-2.43,13.06,13.06,0,0,1,8.22,2.39,10.45,10.45,0,0,1,3.79,6.87l-4.92.7a7.72,7.72,0,0,0-2.42-4.41,9.06,9.06,0,0,0-9.16-.17,3.57,3.57,0,0,0-1.61,3,3.53,3.53,0,0,0,1.1,2.75,6.84,6.84,0,0,0,3.56,1.38l4.81.79q9.11,1.47,9.11,8.58a8.57,8.57,0,0,1-3.14,7Q750.37,664.73,745,664.72Z"/><path class="cls-3" d="M758.16,638.39V634h5.27v-9.67h5.33V634h7.56v4.4h-7.56v16.78a5,5,0,0,0,.84,3.31,3.68,3.68,0,0,0,2.88.94h4.57V664h-5.39a8.42,8.42,0,0,1-6.12-2.06,8.05,8.05,0,0,1-2.11-6V638.39Z"/><path class="cls-3" d="M786.51,629.13h-5.33V622h5.33Zm0,34.86h-5.33V634h5.33Z"/><path class="cls-3" d="M806.1,660.15a7.66,7.66,0,0,0,5.42-1.89A8.24,8.24,0,0,0,814,653l5.22.61a12,12,0,0,1-4.15,8.13,13.31,13.31,0,0,1-8.95,3q-6.58,0-10.37-4.21c-2.52-2.82-3.78-6.61-3.78-11.4s1.28-8.66,3.84-11.51a13.21,13.21,0,0,1,10.31-4.34,13.66,13.66,0,0,1,9.08,2.89,12.31,12.31,0,0,1,4.19,8.15l-5.45.62q-1.08-7.09-7.88-7.09a7.49,7.49,0,0,0-6.32,3c-1.51,2-2.26,4.75-2.26,8.32s.76,6.19,2.27,8.13A7.62,7.62,0,0,0,806.1,660.15Z"/><path class="cls-3" d="M850,659.54h1.43V664h-2.9a6.57,6.57,0,0,1-4-1.13,4.17,4.17,0,0,1-1.79-3.12,10.5,10.5,0,0,1-9.49,5,11.24,11.24,0,0,1-7.56-2.44,7.93,7.93,0,0,1-2.87-6.32,8.38,8.38,0,0,1,2.34-6.13,11.91,11.91,0,0,1,6.71-3.12l8.76-1.5a2,2,0,0,0,1.88-2.17,5,5,0,0,0-1.76-4,7,7,0,0,0-4.81-1.54,7.76,7.76,0,0,0-4.83,1.36,7.14,7.14,0,0,0-2.46,4.2l-5.07-.58a10.24,10.24,0,0,1,4.09-6.71,13.67,13.67,0,0,1,8.48-2.55q5.39,0,8.48,2.87a9.93,9.93,0,0,1,3.09,7.65v13.5a2.47,2.47,0,0,0,.5,1.76A2.42,2.42,0,0,0,850,659.54Zm-21.86-4a4.42,4.42,0,0,0,1.53,3.58,6.36,6.36,0,0,0,4.24,1.29,8,8,0,0,0,6.26-2.74,10.21,10.21,0,0,0,2.45-7.05v-1.73L833,650.6a6.26,6.26,0,0,0-3.62,1.67A4.58,4.58,0,0,0,828.11,655.58Z"/><path class="cls-3" d="M860.51,664h-5.33V622h5.33Z"/><path class="cls-3" d="M873.22,664h-5.33V622h5.33Z"/><path class="cls-3" d="M888,666.8l1-2.63L877.23,634h5.62l8.88,23.59,9-23.59h5.39L893,667.36q-1.72,4.42-4.07,6.07a10.24,10.24,0,0,1-6.19,1.67h-3.1v-4.52h3.1a5.7,5.7,0,0,0,3.31-.85A5.8,5.8,0,0,0,888,666.8Z"/><path class="cls-3" d="M927.87,664H922.1V622h29.47v4.92h-23.7v13.68h21.3v4.93h-21.3Z"/><path class="cls-3" d="M960.44,664h-5.33V634h5.21v5.45q2.94-5.45,8.59-5.45h2.31v5h-2.37a7.09,7.09,0,0,0-6.12,3.3c-1.53,2.19-2.29,5.16-2.29,8.89Z"/><path class="cls-3" d="M972.65,649q0-7.08,4-11.39a13.74,13.74,0,0,1,10.63-4.34,14,14,0,0,1,10.67,4.34q4,4.27,4,11.39t-4,11.4a14,14,0,0,1-10.67,4.33,13.73,13.73,0,0,1-10.63-4.33Q972.65,656.09,972.65,649ZM994,657.21q2.46-3,2.46-8.22T994,640.77a8.28,8.28,0,0,0-6.77-3,8.17,8.17,0,0,0-6.71,3q-2.43,3-2.43,8.22t2.42,8.23a8.14,8.14,0,0,0,6.72,3A8.28,8.28,0,0,0,994,657.21Z"/><path class="cls-3" d="M1032,647.44V664h-5.33V645.51a8.38,8.38,0,0,0-1.71-5.63,6,6,0,0,0-4.82-2,6.67,6.67,0,0,0-5.59,2.44c-1.27,1.64-1.91,4-1.91,7.11V664h-5.34V634h5.22v3.66a10.06,10.06,0,0,1,8.82-4.39,11.25,11.25,0,0,1,5.72,1.39,9,9,0,0,1,3.68,4q3-5.41,9.67-5.42,5.16,0,8.07,3a11.42,11.42,0,0,1,2.92,8.25V664h-5.34V645.51a8.33,8.33,0,0,0-1.72-5.63,6.08,6.08,0,0,0-4.84-2,6.67,6.67,0,0,0-5.58,2.44C1032.67,642,1032,644.33,1032,647.44Z"/><path class="cls-3" d="M1077.31,664h-5.77V622h5.77Z"/><path class="cls-3" d="M1090.64,664h-5.33V634h5.21v5.45q2.93-5.45,8.58-5.45h2.32v5h-2.37a7.11,7.11,0,0,0-6.13,3.3c-1.52,2.19-2.28,5.16-2.28,8.89Z"/><path class="cls-3" d="M1130,659.54h1.43V664h-2.9a6.57,6.57,0,0,1-4-1.13,4.17,4.17,0,0,1-1.79-3.12,10.5,10.5,0,0,1-9.49,5,11.24,11.24,0,0,1-7.56-2.44,7.9,7.9,0,0,1-2.87-6.32,8.38,8.38,0,0,1,2.34-6.13,11.88,11.88,0,0,1,6.71-3.12l8.76-1.5a2,2,0,0,0,1.88-2.17,5,5,0,0,0-1.76-4,7,7,0,0,0-4.81-1.54,7.76,7.76,0,0,0-4.83,1.36,7.14,7.14,0,0,0-2.46,4.2l-5.07-.58a10.24,10.24,0,0,1,4.09-6.71,13.67,13.67,0,0,1,8.48-2.55q5.38,0,8.48,2.87a9.93,9.93,0,0,1,3.09,7.65v13.5a2.47,2.47,0,0,0,.5,1.76A2.42,2.42,0,0,0,1130,659.54Zm-21.86-4a4.45,4.45,0,0,0,1.52,3.58,6.4,6.4,0,0,0,4.25,1.29,8,8,0,0,0,6.26-2.74,10.2,10.2,0,0,0,2.44-7.05v-1.73L1113,650.6a6.26,6.26,0,0,0-3.61,1.67A4.58,4.58,0,0,0,1108.15,655.58Z"/><path class="cls-3" d="M1161,644.54V664h-5.33V645.51a8,8,0,0,0-1.84-5.64,6.79,6.79,0,0,0-5.25-2,7.39,7.39,0,0,0-6,2.43q-2.05,2.43-2,7.12V664h-5.33V634h5.21v3.78q3.08-4.51,9.35-4.51c3.49,0,6.24,1,8.23,3A11.25,11.25,0,0,1,1161,644.54Z"/><path class="cls-3" d="M659.8,720H636.23V685.69h23.09v4H640.94v10.88h16.42v3.93H640.94V716H659.8Z"/><path class="cls-3" d="M676.74,720.6c-4.14,0-7.41-1-9.84-3a10.36,10.36,0,0,1-3.73-8.19l4.62-.59a7.85,7.85,0,0,0,2.47,5.87,9.51,9.51,0,0,0,6.48,2,7.92,7.92,0,0,0,5.32-1.66,5.57,5.57,0,0,0,2-4.46,4.55,4.55,0,0,0-1.36-3.53,10.22,10.22,0,0,0-4.72-2l-4.57-1a13.26,13.26,0,0,1-6.93-3.37,9.1,9.1,0,0,1,1-12.88,12.31,12.31,0,0,1,8.33-2.75,13.22,13.22,0,0,1,8.62,2.63,10.34,10.34,0,0,1,3.68,7.33l-4.65.57q-.81-6.64-7.65-6.65a7.87,7.87,0,0,0-5.09,1.47,4.91,4.91,0,0,0-1.81,4,4.86,4.86,0,0,0,1.32,3.59,8.46,8.46,0,0,0,4.26,1.94l5.34,1.15a13.11,13.11,0,0,1,6.79,3.2,8.25,8.25,0,0,1,2.18,6,9.39,9.39,0,0,1-3.28,7.34A12.7,12.7,0,0,1,676.74,720.6Z"/><path class="cls-3" d="M690.11,685.69h26.06v4H705.5V720h-4.67V689.71H690.11Z"/><path class="cls-3" d="M744.92,694.8a5.36,5.36,0,0,0-1.64-4.12,6.07,6.07,0,0,0-4.34-1.55,6.63,6.63,0,0,0-5.54,2.36c-1.24,1.57-1.82,3.87-1.76,6.9l-4.5-.6q-.36-5.88,2.94-9.26a11.71,11.71,0,0,1,8.86-3.42,10.89,10.89,0,0,1,7.8,2.68,9.26,9.26,0,0,1,2.9,7,12.4,12.4,0,0,1-1.75,6.18,29.52,29.52,0,0,1-5.65,6.67l-9.16,8.43h17.44V720H727v-4l12.35-11.32a21.54,21.54,0,0,0,4.32-5A9.78,9.78,0,0,0,744.92,694.8Z"/><path class="cls-3" d="M754.42,702.84q0-8.21,3.37-13a11.82,11.82,0,0,1,18.93,0q3.42,4.67,3.42,13t-3.42,13a11.85,11.85,0,0,1-18.94.07Q754.42,711.21,754.42,702.84Zm18.91,10.23q2.14-3.6,2.15-10.23t-2.13-10.21a6.88,6.88,0,0,0-12.13.08q-2.16,3.67-2.16,10.13,0,6.66,2.12,10.25a6.93,6.93,0,0,0,12.15,0Z"/><path class="cls-3" d="M805.81,720H784.54v-3.92h8.38V694A7.52,7.52,0,0,1,789,695H784.4v-3.86h4.3a4,4,0,0,0,3.28-1.3,6.38,6.38,0,0,0,1.08-4.1h4.52v30.39h8.23Z"/><path class="cls-3" d="M827.56,710a5.41,5.41,0,0,0-1.77-4.31,7.42,7.42,0,0,0-5-1.53H817.7v-3.56h2.95a5.59,5.59,0,0,0,4.29-1.63,6.43,6.43,0,0,0,1.52-4.55,5,5,0,0,0-1.66-4,6.72,6.72,0,0,0-4.51-1.43,7.08,7.08,0,0,0-5.17,1.89,7.46,7.46,0,0,0-2.08,5.26l-4.26-.93a9.4,9.4,0,0,1,3.32-7.3,12.39,12.39,0,0,1,8.28-2.8,11.72,11.72,0,0,1,7.82,2.45,8.2,8.2,0,0,1,2.88,6.57,9.06,9.06,0,0,1-1.26,4.79,7.8,7.8,0,0,1-3.55,3.13,8.83,8.83,0,0,1,4.41,3A8,8,0,0,1,832.2,710a9.9,9.9,0,0,1-3.18,7.7c-2.12,1.94-5,2.9-8.57,2.9a14.54,14.54,0,0,1-8.83-2.56,9.36,9.36,0,0,1-3.83-7l4.67-1a7.11,7.11,0,0,0,2.31,5,8.19,8.19,0,0,0,5.52,1.74,7.52,7.52,0,0,0,5.33-1.79A6.43,6.43,0,0,0,827.56,710Z"/><polygon class="cls-3" points="744 576 635.7 576 712.24 456 648 456 648 432 756.02 432 679.47 552 744 552 744 576"/><polygon class="cls-3" points="875.71 576 780.03 576 779.69 432 875.71 432 875.71 456 803.74 456 803.97 552 875.71 552 875.71 576"/><rect class="cls-3" x="791.71" y="492" width="84" height="24"/><polygon class="cls-3" points="1008 576 912 576 912 432 1008 432 1008 456 936 456 936 552 1008 552 1008 576"/><rect class="cls-3" x="924" y="492" width="84" height="24"/><polygon class="cls-3" points="1140 576 1044 576 1044 432 1140 432 1140 456 1068 456 1068 552 1140 552 1140 576"/><rect class="cls-3" x="1056" y="492" width="84" height="24"/><polygon class="cls-3" points="1284 576 1260.09 576 1200 477.93 1200 576 1176 576 1176 432 1200 432 1260 529.91 1260 432 1284 432 1284 576"/></g></svg>