<svg xmlns="http://www.w3.org/2000/svg" xmlns:xlink="http://www.w3.org/1999/xlink" viewBox="0 0 1920 1080"><defs><style>.cls-1{fill:#082b96;}.cls-2{fill:#4672e2;}.cls-3{fill:url(#linear-gradient);}.cls-4{fill:url(#linear-gradient-2);}.cls-5{fill:url(#linear-gradient-3);}.cls-6{fill:url(#linear-gradient-4);}.cls-7{fill:url(#linear-gradient-5);}.cls-8{fill:#fff;}</style><linearGradient id="linear-gradient" x1="158.3" y1="185" x2="1303.16" y2="185" gradientUnits="userSpaceOnUse"><stop offset="0" stop-color="#fff" stop-opacity="0"/><stop offset="0.51" stop-color="#fff"/><stop offset="1" stop-color="#fff" stop-opacity="0"/></linearGradient><linearGradient id="linear-gradient-2" x1="-21.15" y1="65" x2="1920" y2="65" xlink:href="#linear-gradient"/><linearGradient id="linear-gradient-3" x1="-65.57" y1="-724.43" x2="1014.43" y2="-724.43" gradientTransform="translate(-324.43 65.57) rotate(90)" xlink:href="#linear-gradient"/><linearGradient id="linear-gradient-4" x1="-65.57" y1="-1845.29" x2="1014.43" y2="-1845.29" gradientTransform="translate(-324.43 65.57) rotate(90)" xlink:href="#linear-gradient"/><linearGradient id="linear-gradient-5" x1="-21.15" y1="1015" x2="1920" y2="1015" xlink:href="#linear-gradient"/></defs><g id="Background"><rect class="cls-1" width="1920" height="1080"/></g><g id="Graphics"><path class="cls-2" d="M1045,737.64h-13.06l-2.8,7.36H1025l11.62-30h4.14l11.49,30h-4.5Zm-11.74-3.44h10.46l-5.15-14Z"/><path class="cls-2" d="M1058.89,745h-3.81V723.58h3.72v3.89a6.62,6.62,0,0,1,6.13-3.89h1.65v3.59h-1.69a5.07,5.07,0,0,0-4.37,2.36,10.94,10.94,0,0,0-1.63,6.35Z"/><path class="cls-2" d="M1069.63,726.71v-3.13h3.77v-6.91h3.81v6.91h5.4v3.13h-5.4v12a3.66,3.66,0,0,0,.59,2.37,2.7,2.7,0,0,0,2.07.67h3.26V745h-3.85a6,6,0,0,1-4.37-1.47,5.75,5.75,0,0,1-1.51-4.3V726.71Z"/><path class="cls-2" d="M1089.88,720.1h-3.8V715h3.8Zm0,24.9h-3.8V723.58h3.8Z"/><path class="cls-2" d="M1102.77,745.52a10.47,10.47,0,0,1-6.61-1.9,6.82,6.82,0,0,1-2.68-5.17l3.81-.56a5.18,5.18,0,0,0,1.62,3.49,5.81,5.81,0,0,0,3.86,1.13,5.38,5.38,0,0,0,3.38-.92,3.27,3.27,0,0,0,1.16-2.72q0-2.55-3.77-3.08l-3.07-.48a8.49,8.49,0,0,1-4.7-2,5.3,5.3,0,0,1-1.62-4,5.46,5.46,0,0,1,2.19-4.48,10.83,10.83,0,0,1,11.73,0,7.44,7.44,0,0,1,2.71,4.9l-3.51.51a5.48,5.48,0,0,0-1.73-3.15,6.49,6.49,0,0,0-6.54-.13,2.72,2.72,0,0,0-.37,4.13,4.85,4.85,0,0,0,2.55,1l3.43.56q6.51,1,6.51,6.13a6.12,6.12,0,0,1-2.24,5A9.29,9.29,0,0,1,1102.77,745.52Z"/><path class="cls-2" d="M1112.2,726.71v-3.13H1116v-6.91h3.81v6.91h5.4v3.13h-5.4v12a3.6,3.6,0,0,0,.6,2.37,2.68,2.68,0,0,0,2.06.67h3.26V745h-3.85a6,6,0,0,1-4.37-1.47,5.79,5.79,0,0,1-1.51-4.3V726.71Z"/><path class="cls-2" d="M1132.45,720.1h-3.81V715h3.81Zm0,24.9h-3.81V723.58h3.81Z"/><path class="cls-2" d="M1146.44,742.26a5.46,5.46,0,0,0,3.87-1.35,5.88,5.88,0,0,0,1.76-3.8l3.72.44a8.56,8.56,0,0,1-3,5.81,9.51,9.51,0,0,1-6.39,2.16,9.4,9.4,0,0,1-7.4-3,13.66,13.66,0,0,1,0-16.36,9.4,9.4,0,0,1,7.36-3.1,9.82,9.82,0,0,1,6.49,2.06,8.9,8.9,0,0,1,3,5.83l-3.89.44c-.52-3.38-2.39-5.06-5.63-5.06a5.36,5.36,0,0,0-4.52,2.11,9.65,9.65,0,0,0-1.61,5.94,9.27,9.27,0,0,0,1.62,5.81A5.43,5.43,0,0,0,1146.44,742.26Z"/><path class="cls-2" d="M1177.77,741.82h1V745h-2.07a4.77,4.77,0,0,1-2.82-.8,3,3,0,0,1-1.28-2.23,7.48,7.48,0,0,1-6.78,3.55,8,8,0,0,1-5.39-1.74,5.66,5.66,0,0,1-2.06-4.51,6,6,0,0,1,1.68-4.39,8.42,8.42,0,0,1,4.79-2.22l6.26-1.07a1.45,1.45,0,0,0,1.34-1.55,3.57,3.57,0,0,0-1.26-2.83,5,5,0,0,0-3.43-1.1,5.54,5.54,0,0,0-3.45,1,5,5,0,0,0-1.76,3l-3.62-.42a7.33,7.33,0,0,1,2.92-4.79,9.8,9.8,0,0,1,6.05-1.82,8.58,8.58,0,0,1,6.06,2.05,7.11,7.11,0,0,1,2.21,5.46v9.65a1.71,1.71,0,0,0,.36,1.25A1.67,1.67,0,0,0,1177.77,741.82ZM1162.16,739a3.16,3.16,0,0,0,1.09,2.55,4.57,4.57,0,0,0,3,.92,5.71,5.71,0,0,0,4.47-2,7.28,7.28,0,0,0,1.75-5v-1.23l-6.87,1.19a4.45,4.45,0,0,0-2.58,1.19A3.29,3.29,0,0,0,1162.16,739Z"/><path class="cls-2" d="M1185.3,745h-3.81V715h3.81Z"/><path class="cls-2" d="M1194.37,745h-3.8V715h3.8Z"/><path class="cls-2" d="M1205,747l.71-1.88-8.43-21.55h4l6.34,16.84,6.41-16.84h3.85l-9.36,23.83a9.24,9.24,0,0,1-2.91,4.33,7.28,7.28,0,0,1-4.41,1.19H1199v-3.22h2.22a4,4,0,0,0,2.36-.61A4.2,4.2,0,0,0,1205,747Z"/><path class="cls-2" d="M1233.4,745h-4.12V715h21v3.51H1233.4v9.77h15.22v3.52H1233.4Z"/><path class="cls-2" d="M1256.67,745h-3.81V723.58h3.72v3.89a6.62,6.62,0,0,1,6.13-3.89h1.66v3.59h-1.7a5.07,5.07,0,0,0-4.37,2.36,10.94,10.94,0,0,0-1.63,6.35Z"/><path class="cls-2" d="M1265.39,734.29a11.57,11.57,0,0,1,2.82-8.14,9.81,9.81,0,0,1,7.6-3.1,9.93,9.93,0,0,1,7.61,3.1,11.43,11.43,0,0,1,2.87,8.14,11.56,11.56,0,0,1-2.87,8.14,10,10,0,0,1-7.61,3.09,9.84,9.84,0,0,1-7.6-3.09A11.58,11.58,0,0,1,1265.39,734.29Zm15.25,5.87a10.67,10.67,0,0,0,0-11.74,5.91,5.91,0,0,0-4.83-2.15,5.81,5.81,0,0,0-4.79,2.15,10.84,10.84,0,0,0,0,11.75,6.51,6.51,0,0,0,9.64,0Z"/><path class="cls-2" d="M1307.79,733.18V745H1304V731.8a6,6,0,0,0-1.23-4,4.27,4.27,0,0,0-3.44-1.42,4.77,4.77,0,0,0-4,1.75,8.08,8.08,0,0,0-1.37,5.07V745h-3.8V723.58h3.72v2.61a7.2,7.2,0,0,1,6.3-3.14,8,8,0,0,1,4.09,1,6.41,6.41,0,0,1,2.62,2.87,7.27,7.27,0,0,1,6.91-3.87,7.6,7.6,0,0,1,5.76,2.17,8.12,8.12,0,0,1,2.08,5.89V745h-3.8V731.8a5.92,5.92,0,0,0-1.24-4,4.31,4.31,0,0,0-3.45-1.42,4.77,4.77,0,0,0-4,1.75A8.08,8.08,0,0,0,1307.79,733.18Z"/><path class="cls-2" d="M1340.13,745H1336V715h4.12Z"/><path class="cls-2" d="M1349.65,745h-3.81V723.58h3.72v3.89a6.62,6.62,0,0,1,6.13-3.89h1.66v3.59h-1.7a5.08,5.08,0,0,0-4.37,2.36,10.94,10.94,0,0,0-1.63,6.35Z"/><path class="cls-2" d="M1377.76,741.82h1V745h-2.07a4.82,4.82,0,0,1-2.83-.8,3,3,0,0,1-1.27-2.23,7.51,7.51,0,0,1-6.78,3.55,8.07,8.07,0,0,1-5.4-1.74,5.65,5.65,0,0,1-2-4.51,6,6,0,0,1,1.67-4.39,8.49,8.49,0,0,1,4.79-2.22l6.26-1.07a1.45,1.45,0,0,0,1.34-1.55,3.57,3.57,0,0,0-1.26-2.83,5,5,0,0,0-3.43-1.1,5.54,5.54,0,0,0-3.45,1,5.1,5.1,0,0,0-1.76,3l-3.62-.42a7.37,7.37,0,0,1,2.92-4.79,9.81,9.81,0,0,1,6.06-1.82,8.58,8.58,0,0,1,6.06,2.05,7.11,7.11,0,0,1,2.2,5.46v9.65a1.34,1.34,0,0,0,1.59,1.61Zm-15.6-2.82a3.19,3.19,0,0,0,1.08,2.55,4.6,4.6,0,0,0,3,.92,5.72,5.72,0,0,0,4.47-2,7.28,7.28,0,0,0,1.74-5v-1.23l-6.86,1.19a4.51,4.51,0,0,0-2.59,1.19A3.28,3.28,0,0,0,1362.16,739Z"/><path class="cls-2" d="M1399.9,731.11V745h-3.81V731.8a5.72,5.72,0,0,0-1.31-4,4.87,4.87,0,0,0-3.76-1.41,5.28,5.28,0,0,0-4.26,1.73,7.71,7.71,0,0,0-1.47,5.09V745h-3.81V723.58h3.73v2.69a7.54,7.54,0,0,1,6.67-3.22,7.85,7.85,0,0,1,5.88,2.17A8,8,0,0,1,1399.9,731.11Z"/><path class="cls-2" d="M1042,785h-16.84V760.49h16.5v2.87h-13.13v7.78h11.72v2.8h-11.72v8.19H1042Z"/><path class="cls-2" d="M1054.05,785.43a10.68,10.68,0,0,1-7-2.14,7.44,7.44,0,0,1-2.67-5.84l3.3-.43a5.65,5.65,0,0,0,1.77,4.2,6.8,6.8,0,0,0,4.62,1.44,5.7,5.7,0,0,0,3.81-1.19,4,4,0,0,0,1.39-3.19,3.26,3.26,0,0,0-1-2.52,7.49,7.49,0,0,0-3.36-1.41l-3.27-.7a9.43,9.43,0,0,1-4.94-2.41,6.48,6.48,0,0,1,.67-9.19,8.79,8.79,0,0,1,6-2,9.46,9.46,0,0,1,6.16,1.88,7.36,7.36,0,0,1,2.62,5.23l-3.31.41c-.39-3.16-2.21-4.75-5.47-4.75a5.61,5.61,0,0,0-3.63,1,3.51,3.51,0,0,0-1.29,2.87,3.45,3.45,0,0,0,.94,2.56,5.9,5.9,0,0,0,3,1.38l3.81.82a9.36,9.36,0,0,1,4.85,2.29,5.86,5.86,0,0,1,1.56,4.29,6.73,6.73,0,0,1-2.34,5.25A9.12,9.12,0,0,1,1054.05,785.43Z"/><path class="cls-2" d="M1063.6,760.49h18.61v2.87h-7.62V785h-3.33V763.36h-7.66Z"/><path class="cls-2" d="M1102.75,767a3.83,3.83,0,0,0-1.17-2.94,4.33,4.33,0,0,0-3.1-1.11,4.73,4.73,0,0,0-4,1.69,7.62,7.62,0,0,0-1.26,4.93l-3.21-.43a7.94,7.94,0,0,1,8.43-9.06,7.76,7.76,0,0,1,5.57,1.92,6.6,6.6,0,0,1,2.07,5,8.8,8.8,0,0,1-1.25,4.41,21,21,0,0,1-4,4.77l-6.54,6h12.46V785H1090v-2.87l8.82-8.08a15.53,15.53,0,0,0,3.08-3.61A6.93,6.93,0,0,0,1102.75,767Z"/><path class="cls-2" d="M1109.53,772.75q0-5.87,2.41-9.28a8.44,8.44,0,0,1,13.52,0q2.44,3.33,2.44,9.28t-2.44,9.28a8.47,8.47,0,0,1-13.53.05Q1109.53,778.74,1109.53,772.75Zm13.51,7.3a18.23,18.23,0,0,0,0-14.6,4.91,4.91,0,0,0-8.66.06,14.3,14.3,0,0,0-1.54,7.24,14.49,14.49,0,0,0,1.51,7.31,4.94,4.94,0,0,0,8.68,0Z"/><path class="cls-2" d="M1146.24,785H1131v-2.8h6V766.46a5.39,5.39,0,0,1-2.81.65h-3.28v-2.75H1134a2.83,2.83,0,0,0,2.34-.94,4.57,4.57,0,0,0,.77-2.93h3.23V782.2h5.88Z"/><path class="cls-2" d="M1161.77,777.82a3.82,3.82,0,0,0-1.27-3.07,5.28,5.28,0,0,0-3.57-1.1h-2.2v-2.54h2.1a4,4,0,0,0,3.07-1.17,4.56,4.56,0,0,0,1.08-3.24,3.5,3.5,0,0,0-1.19-2.82,4.72,4.72,0,0,0-3.22-1,5,5,0,0,0-3.69,1.35,5.38,5.38,0,0,0-1.49,3.76l-3-.66a6.78,6.78,0,0,1,2.38-5.22,8.83,8.83,0,0,1,5.91-2,8.31,8.31,0,0,1,5.58,1.76,5.84,5.84,0,0,1,2.06,4.69,6.46,6.46,0,0,1-.9,3.41,5.55,5.55,0,0,1-2.54,2.24,6.35,6.35,0,0,1,3.16,2.17,5.76,5.76,0,0,1,1.08,3.51,7.06,7.06,0,0,1-2.27,5.5,8.74,8.74,0,0,1-6.12,2.07,10.36,10.36,0,0,1-6.3-1.83,6.64,6.64,0,0,1-2.74-5l3.33-.73a5.08,5.08,0,0,0,1.65,3.55,5.85,5.85,0,0,0,3.94,1.25,5.4,5.4,0,0,0,3.81-1.28A4.6,4.6,0,0,0,1161.77,777.82Z"/><rect class="cls-2" x="700" y="190" width="10" height="120"/><rect class="cls-2" x="705" y="235" width="35" height="10"/><rect class="cls-2" x="699.44" y="221.57" width="37.97" height="10" transform="translate(50.19 574.32) rotate(-45)"/><rect class="cls-2" x="685" y="270" width="17.19" height="10"/><path class="cls-2" d="M710,295V285a10,10,0,0,0,0-20V255a20,20,0,0,1,0,40Z"/><path class="cls-2" d="M725,205H715a10,10,0,0,0-20,0H685a20,20,0,0,1,40,0Z"/><path class="cls-2" d="M949.68,645h-10A59.84,59.84,0,1,0,820,645H810a69.84,69.84,0,1,1,139.68,0Z"/><rect class="cls-2" x="742.22" y="400" width="155.56" height="10" transform="translate(-46.23 698.39) rotate(-45)"/><path class="cls-2" d="M1160,655H760V397.07l-20,20V445H700V305H800a95.11,95.11,0,0,1,95,95v25h170a95.11,95.11,0,0,1,95,95ZM770,645h380V520a85.1,85.1,0,0,0-85-85H885V400a85.1,85.1,0,0,0-85-85H710V435h20V412.93l56.46-56.47,7.07,7.07L770,387.07Z"/><polygon class="cls-2" points="1155 625 1055 625 1055 430 1065 430 1065 615 1155 615 1155 625"/><path class="cls-2" d="M955,565a70.08,70.08,0,0,1-70-70V425h140v70A70.08,70.08,0,0,1,955,565ZM895,435v60a60.07,60.07,0,0,0,60,60h0a60.07,60.07,0,0,0,60-60V435Z"/><path class="cls-2" d="M745,350H700V305h45Zm-35-10h25V315H710Z"/><polygon class="cls-2" points="585 580 539.88 580 571.77 530 545 530 545 520 590.01 520 558.12 570 585 570 585 580"/><polygon class="cls-2" points="640 580 600.13 580 599.99 520 640 520 640 530 610.01 530 610.11 570 640 570 640 580"/><rect class="cls-2" x="605" y="545" width="35" height="10"/><polygon class="cls-2" points="695 580 655 580 655 520 695 520 695 530 665 530 665 570 695 570 695 580"/><rect class="cls-2" x="660" y="545" width="35" height="10"/><polygon class="cls-2" points="640 655 600 655 600 595 640 595 640 605 610 605 610 645 640 645 640 655"/><rect class="cls-2" x="605" y="620" width="35" height="10"/><polygon class="cls-2" points="700 655 690.42 655 665 614.48 665 655 655 655 655 595 664.59 595 690 635.51 690 595 700 595 700 655"/><path class="cls-2" d="M815,820a55.06,55.06,0,0,1-55-55V715h10v50a45,45,0,0,0,90,0V715h10v50A55.06,55.06,0,0,1,815,820Z"/><polygon class="cls-2" points="928.11 818.54 921.04 811.47 960 772.5 960 745 970 745 970 776.64 928.11 818.54"/><rect class="cls-2" x="810" y="715" width="10" height="20"/><rect class="cls-2" x="960" y="715" width="10" height="20"/><rect class="cls-2" x="860" y="830" width="10" height="20"/><rect class="cls-2" x="880" y="830" width="10" height="20"/><polygon class="cls-2" points="868.54 765.61 861.47 758.53 885 735 885 715 895 715 895 739.14 868.54 765.61"/><polygon class="cls-2" points="868.54 795.61 861.47 788.54 905 745 905 715 915 715 915 749.14 868.54 795.61"/><polygon class="cls-2" points="874.15 820 860 820 860 715 870 715 870 810 925 755 925 715 935 715 935 759.14 874.15 820"/><rect class="cls-3" x="158.3" y="184.5" width="1144.85" height="1"/><rect class="cls-4" x="-21.15" y="64.5" width="1941.15" height="1"/><rect class="cls-5" x="399.5" width="1" height="1080"/><rect class="cls-6" x="1520.37" width="1" height="1080"/><rect class="cls-7" x="-21.15" y="1014.5" width="1941.15" height="1"/><path class="cls-8" d="M955,305.62a61,61,0,0,1-14.27-1.69l.29-1.22a59.15,59.15,0,0,0,14,1.67h.73l0,1.25Zm5.79-.27-.12-1.24a59,59,0,0,0,14.45-3.24l.42,1.17A60.06,60.06,0,0,1,960.79,305.35Zm-24.91-2.81A60.84,60.84,0,0,1,922.25,296l.68-1.05a59.13,59.13,0,0,0,13.34,6.4Zm44.34-2.41-.53-1.14a59.62,59.62,0,0,0,12.58-7.8l.79,1A61.3,61.3,0,0,1,980.22,300.13Zm-62.1-7a61.39,61.39,0,0,1-10.75-10.62l1-.77a60.32,60.32,0,0,0,10.54,10.4Zm78.73-4.27-.86-.9a59.55,59.55,0,0,0,9.35-11.47l1.06.66A60.7,60.7,0,0,1,996.85,288.82Zm-92.44-10.44a60.62,60.62,0,0,1-6.7-13.55l1.18-.41a59.62,59.62,0,0,0,6.56,13.27Zm104.5-5.65-1.12-.58a58.48,58.48,0,0,0,5.09-13.89l1.22.28A60.54,60.54,0,0,1,1008.91,272.73ZM896.25,260a60.83,60.83,0,0,1-1.87-15h1.24a59.29,59.29,0,0,0,1.84,14.68ZM1015,253.57l-1.24-.17a58.91,58.91,0,0,0,.6-8.4v-6.49h1.24V245A59.72,59.72,0,0,1,1015,253.57ZM895.62,240h-1.24V225h1.24Zm120-6.49h-1.24v-15h1.24ZM895.62,220h-1.24V205h1.24Zm120-6.49h-1.24v-15h1.24ZM895.62,200h-1.24V184.38h9.13v1.24h-7.89Zm120-6.49h-1.24v-7.89h-5.87v-1.24h7.11Zm-12.11-7.89h-15v-1.24h15Zm-20,0h-15v-1.24h15Zm-20,0h-15v-1.24h15Zm-20,0h-15v-1.24h15Zm-20,0h-15v-1.24h15Z"/><path class="cls-8" d="M955,425.62a61,61,0,0,1-14.27-1.69l.29-1.22a59.15,59.15,0,0,0,14,1.67h.73l0,1.25Zm5.79-.27-.12-1.24a59,59,0,0,0,14.45-3.24l.42,1.17A60.06,60.06,0,0,1,960.79,425.35Zm-24.91-2.81A60.84,60.84,0,0,1,922.25,416l.68-1.05a59.13,59.13,0,0,0,13.34,6.4Zm44.34-2.41-.53-1.14a59.62,59.62,0,0,0,12.58-7.8l.79,1A61.3,61.3,0,0,1,980.22,420.13Zm-62.1-7a61.39,61.39,0,0,1-10.75-10.62l1-.77a60.32,60.32,0,0,0,10.54,10.4Zm78.73-4.27-.86-.9a59.55,59.55,0,0,0,9.35-11.47l1.06.66A60.7,60.7,0,0,1,996.85,408.82Zm-92.44-10.44a60.62,60.62,0,0,1-6.7-13.55l1.18-.41a59.62,59.62,0,0,0,6.56,13.27Zm104.5-5.65-1.12-.58a58.48,58.48,0,0,0,5.09-13.89l1.22.28A60.54,60.54,0,0,1,1008.91,392.73ZM896.25,380a60.83,60.83,0,0,1-1.87-15h1.24a59.29,59.29,0,0,0,1.84,14.68ZM1015,373.57l-1.24-.17a58.91,58.91,0,0,0,.6-8.4v-6.49h1.24V365A59.72,59.72,0,0,1,1015,373.57ZM895.62,360h-1.24V345h1.24Zm120-6.49h-1.24v-15h1.24ZM895.62,340h-1.24V325h1.24Zm120-6.49h-1.24v-15h1.24ZM895.62,320h-1.24V304.38h9.13v1.24h-7.89Zm120-6.49h-1.24v-7.89h-5.87v-1.24h7.11Zm-12.11-7.89h-15v-1.24h15Zm-20,0h-15v-1.24h15Zm-20,0h-15v-1.24h15Zm-20,0h-15v-1.24h15Zm-20,0h-15v-1.24h15Z"/><path class="cls-8" d="M955,185.62a61,61,0,0,1-14.27-1.69l.29-1.22a59.15,59.15,0,0,0,14,1.67h.73l0,1.25Zm5.79-.27-.12-1.24a59,59,0,0,0,14.45-3.24l.42,1.17A60.06,60.06,0,0,1,960.79,185.35Zm-24.91-2.81A60.84,60.84,0,0,1,922.25,176l.68-1.05a59.13,59.13,0,0,0,13.34,6.4Zm44.34-2.41-.53-1.14a59.62,59.62,0,0,0,12.58-7.8l.79,1A61.3,61.3,0,0,1,980.22,180.13Zm-62.1-7a61.39,61.39,0,0,1-10.75-10.62l1-.77a60.32,60.32,0,0,0,10.54,10.4Zm78.73-4.27-.86-.9a59.55,59.55,0,0,0,9.35-11.47l1.06.66A60.7,60.7,0,0,1,996.85,168.82Zm-92.44-10.44a60.62,60.62,0,0,1-6.7-13.55l1.18-.41a59.62,59.62,0,0,0,6.56,13.27Zm104.5-5.65-1.12-.58a58.48,58.48,0,0,0,5.09-13.89l1.22.28A60.54,60.54,0,0,1,1008.91,152.73ZM896.25,140a60.83,60.83,0,0,1-1.87-15h1.24a59.29,59.29,0,0,0,1.84,14.68ZM1015,133.57l-1.24-.17a58.91,58.91,0,0,0,.6-8.4v-6.49h1.24V125A59.72,59.72,0,0,1,1015,133.57ZM895.62,120h-1.24V105h1.24Zm120-6.49h-1.24v-15h1.24ZM895.62,100h-1.24V85h1.24Zm120-6.49h-1.24v-15h1.24ZM895.62,80h-1.24V64.38h9.13v1.24h-7.89Zm120-6.49h-1.24V65.62h-5.87V64.38h7.11Zm-12.11-7.89h-15V64.38h15Zm-20,0h-15V64.38h15Zm-20,0h-15V64.38h15Zm-20,0h-15V64.38h15Zm-20,0h-15V64.38h15Z"/><path class="cls-8" d="M700,555.62a61,61,0,0,1-14.27-1.69l.29-1.22a59.67,59.67,0,0,0,14,1.67h.73l0,1.25Zm5.79-.27-.12-1.24a59,59,0,0,0,14.45-3.24l.42,1.17A60.06,60.06,0,0,1,705.79,555.35Zm-24.91-2.81A60.84,60.84,0,0,1,667.25,546l.68-1a59.54,59.54,0,0,0,13.34,6.4Zm44.34-2.41L724.7,549a59.56,59.56,0,0,0,12.57-7.8l.79,1A61.3,61.3,0,0,1,725.22,550.13Zm-62.1-7a61.39,61.39,0,0,1-10.75-10.62l1-.77a60.32,60.32,0,0,0,10.54,10.4Zm78.73-4.27-.86-.9a59.55,59.55,0,0,0,9.35-11.47l1.06.66A60.7,60.7,0,0,1,741.85,538.82Zm-92.44-10.44a60.62,60.62,0,0,1-6.7-13.55l1.18-.41a59.62,59.62,0,0,0,6.56,13.27Zm104.5-5.65-1.12-.58a58.48,58.48,0,0,0,5.09-13.89l1.22.28A60.54,60.54,0,0,1,753.91,522.73ZM641.25,510a60.83,60.83,0,0,1-1.87-15h1.24a59.29,59.29,0,0,0,1.84,14.68ZM760,503.57l-1.24-.17a58.91,58.91,0,0,0,.6-8.4v-6.49h1.24V495A59.72,59.72,0,0,1,760,503.57ZM640.62,490h-1.24V475h1.24Zm120-6.49h-1.24v-15h1.24ZM640.62,470h-1.24V455h1.24Zm120-6.49h-1.24v-15h1.24ZM640.62,450h-1.24V434.38h9.13v1.24h-7.89Zm120-6.49h-1.24v-7.89h-5.87v-1.24h7.11Zm-12.11-7.89h-15v-1.24h15Zm-20,0h-15v-1.24h15Zm-20,0h-15v-1.24h15Zm-20,0h-15v-1.24h15Zm-20,0h-15v-1.24h15Z"/><path class="cls-8" d="M460,555.62a61,61,0,0,1-14.27-1.69l.29-1.22a59.67,59.67,0,0,0,14,1.67h.73l0,1.25Zm5.79-.27-.12-1.24a59,59,0,0,0,14.45-3.24l.42,1.17A60.06,60.06,0,0,1,465.79,555.35Zm-24.91-2.81A60.84,60.84,0,0,1,427.25,546l.68-1a59.54,59.54,0,0,0,13.34,6.4Zm44.34-2.41L484.7,549a59.56,59.56,0,0,0,12.57-7.8l.79,1A61.3,61.3,0,0,1,485.22,550.13Zm-62.1-7a61.39,61.39,0,0,1-10.75-10.62l1-.77a60.32,60.32,0,0,0,10.54,10.4Zm78.73-4.27-.86-.9a59.55,59.55,0,0,0,9.35-11.47l1.06.66A60.7,60.7,0,0,1,501.85,538.82Zm-92.44-10.44a60.62,60.62,0,0,1-6.7-13.55l1.18-.41a59.62,59.62,0,0,0,6.56,13.27Zm104.5-5.65-1.12-.58a58.48,58.48,0,0,0,5.09-13.89l1.22.28A60.54,60.54,0,0,1,513.91,522.73ZM401.25,510a60.83,60.83,0,0,1-1.87-15h1.24a59.29,59.29,0,0,0,1.84,14.68ZM520,503.57l-1.24-.17a58.91,58.91,0,0,0,.6-8.4v-6.49h1.24V495A59.72,59.72,0,0,1,520,503.57ZM400.62,490h-1.24V475h1.24Zm120-6.49h-1.24v-15h1.24ZM400.62,470h-1.24V455h1.24Zm120-6.49h-1.24v-15h1.24ZM400.62,450h-1.24V434.38h9.13v1.24h-7.89Zm120-6.49h-1.24v-7.89h-5.87v-1.24h7.11Zm-12.11-7.89h-15v-1.24h15Zm-20,0h-15v-1.24h15Zm-20,0h-15v-1.24h15Zm-20,0h-15v-1.24h15Zm-20,0h-15v-1.24h15Z"/><path class="cls-8" d="M580,555.62a61,61,0,0,1-14.27-1.69l.29-1.22a59.15,59.15,0,0,0,14,1.67h.73l0,1.25Zm5.79-.27-.12-1.24a59,59,0,0,0,14.45-3.24l.42,1.17A60.06,60.06,0,0,1,585.79,555.35Zm-24.91-2.81A60.84,60.84,0,0,1,547.25,546l.68-1a59.13,59.13,0,0,0,13.34,6.4Zm44.34-2.41-.53-1.14a59.62,59.62,0,0,0,12.58-7.8l.79,1A61.3,61.3,0,0,1,605.22,550.13Zm-62.1-7a61.39,61.39,0,0,1-10.75-10.62l1-.77a60.32,60.32,0,0,0,10.54,10.4Zm78.73-4.27-.86-.9a59.55,59.55,0,0,0,9.35-11.47l1.06.66A60.7,60.7,0,0,1,621.85,538.82Zm-92.44-10.44a60.62,60.62,0,0,1-6.7-13.55l1.18-.41a59.62,59.62,0,0,0,6.56,13.27Zm104.5-5.65-1.12-.58a58.48,58.48,0,0,0,5.09-13.89l1.22.28A60.54,60.54,0,0,1,633.91,522.73ZM521.25,510a60.83,60.83,0,0,1-1.87-15h1.24a59.29,59.29,0,0,0,1.84,14.68ZM640,503.57l-1.24-.17a58.91,58.91,0,0,0,.6-8.4v-6.49h1.24V495A59.72,59.72,0,0,1,640,503.57ZM520.62,490h-1.24V475h1.24Zm120-6.49h-1.24v-15h1.24ZM520.62,470h-1.24V455h1.24Zm120-6.49h-1.24v-15h1.24ZM520.62,450h-1.24V434.38h9.13v1.24h-7.89Zm120-6.49h-1.24v-7.89h-5.87v-1.24h7.11Zm-12.11-7.89h-15v-1.24h15Zm-20,0h-15v-1.24h15Zm-20,0h-15v-1.24h15Zm-20,0h-15v-1.24h15Zm-20,0h-15v-1.24h15Z"/><path class="cls-8" d="M1220,656.33a60.49,60.49,0,0,1-14.27-1.7l.29-1.21a59.66,59.66,0,0,0,14,1.66h.73l0,1.25Zm5.79-.28-.12-1.24a59,59,0,0,0,14.45-3.24l.42,1.17A60.06,60.06,0,0,1,1225.79,656.05Zm-24.91-2.81a60.84,60.84,0,0,1-13.63-6.54l.68-1.05a59.13,59.13,0,0,0,13.34,6.4Zm44.34-2.41-.53-1.14a59.22,59.22,0,0,0,12.58-7.8l.79,1A61.3,61.3,0,0,1,1245.22,650.83Zm-62.1-7a61.39,61.39,0,0,1-10.75-10.62l1-.77a60.32,60.32,0,0,0,10.54,10.4Zm78.73-4.27-.86-.9a59.55,59.55,0,0,0,9.35-11.47l1.06.66A60.7,60.7,0,0,1,1261.85,639.52Zm-92.44-10.44a60.62,60.62,0,0,1-6.7-13.55l1.18-.41a59.62,59.62,0,0,0,6.56,13.27Zm104.5-5.65-1.12-.57a58.71,58.71,0,0,0,5.09-13.9l1.22.28A60.38,60.38,0,0,1,1273.91,623.43ZM1161.25,610.7a61,61,0,0,1-1.87-15h1.24a59.43,59.43,0,0,0,1.84,14.69ZM1280,604.27l-1.24-.17a58.91,58.91,0,0,0,.6-8.4v-6.48h1.24v6.48A59.72,59.72,0,0,1,1280,604.27Zm-119.4-13.57h-1.24v-15h1.24Zm120-6.48h-1.24v-15h1.24Zm-120-13.52h-1.24v-15h1.24Zm120-6.48h-1.24v-15h1.24Zm-120-13.52h-1.24V535.08h9.13v1.25h-7.89Zm120-6.48h-1.24v-7.89h-5.87v-1.25h7.11Zm-12.11-7.89h-15v-1.25h15Zm-20,0h-15v-1.25h15Zm-20,0h-15v-1.25h15Zm-20,0h-15v-1.25h15Zm-20,0h-15v-1.25h15Z"/><path class="cls-8" d="M1340,656.33a60.49,60.49,0,0,1-14.27-1.7l.29-1.21a59.66,59.66,0,0,0,14,1.66h.73l0,1.25Zm5.79-.28-.12-1.24a59,59,0,0,0,14.45-3.24l.42,1.17A60.06,60.06,0,0,1,1345.79,656.05Zm-24.91-2.81a60.84,60.84,0,0,1-13.63-6.54l.68-1.05a59.13,59.13,0,0,0,13.34,6.4Zm44.34-2.41-.53-1.14a59.22,59.22,0,0,0,12.58-7.8l.79,1A61.3,61.3,0,0,1,1365.22,650.83Zm-62.1-7a61.39,61.39,0,0,1-10.75-10.62l1-.77a60.32,60.32,0,0,0,10.54,10.4Zm78.73-4.27-.86-.9a59.55,59.55,0,0,0,9.35-11.47l1.06.66A60.7,60.7,0,0,1,1381.85,639.52Zm-92.44-10.44a60.62,60.62,0,0,1-6.7-13.55l1.18-.41a59.62,59.62,0,0,0,6.56,13.27Zm104.5-5.65-1.12-.57a58.71,58.71,0,0,0,5.09-13.9l1.22.28A60.38,60.38,0,0,1,1393.91,623.43ZM1281.25,610.7a61,61,0,0,1-1.87-15h1.24a59.43,59.43,0,0,0,1.84,14.69ZM1400,604.27l-1.24-.17a58.91,58.91,0,0,0,.6-8.4v-6.48h1.24v6.48A59.72,59.72,0,0,1,1400,604.27Zm-119.4-13.57h-1.24v-15h1.24Zm120-6.48h-1.24v-15h1.24Zm-120-13.52h-1.24v-15h1.24Zm120-6.48h-1.24v-15h1.24Zm-120-13.52h-1.24V535.08h9.13v1.25h-7.89Zm120-6.48h-1.24v-7.89h-5.87v-1.25h7.11Zm-12.11-7.89h-15v-1.25h15Zm-20,0h-15v-1.25h15Zm-20,0h-15v-1.25h15Zm-20,0h-15v-1.25h15Zm-20,0h-15v-1.25h15Z"/><path class="cls-8" d="M1460,656.33a60.49,60.49,0,0,1-14.27-1.7l.29-1.21a59.66,59.66,0,0,0,14,1.66h.73l0,1.25Zm5.79-.28-.12-1.24a59,59,0,0,0,14.45-3.24l.42,1.17A60.06,60.06,0,0,1,1465.79,656.05Zm-24.91-2.81a60.84,60.84,0,0,1-13.63-6.54l.68-1.05a59.13,59.13,0,0,0,13.34,6.4Zm44.34-2.41-.53-1.14a59.22,59.22,0,0,0,12.58-7.8l.79,1A61.3,61.3,0,0,1,1485.22,650.83Zm-62.1-7a61.39,61.39,0,0,1-10.75-10.62l1-.77a60.32,60.32,0,0,0,10.54,10.4Zm78.73-4.27-.86-.9a59.55,59.55,0,0,0,9.35-11.47l1.06.66A60.7,60.7,0,0,1,1501.85,639.52Zm-92.44-10.44a60.62,60.62,0,0,1-6.7-13.55l1.18-.41a59.62,59.62,0,0,0,6.56,13.27Zm104.5-5.65-1.12-.57a58.71,58.71,0,0,0,5.09-13.9l1.22.28A60.38,60.38,0,0,1,1513.91,623.43ZM1401.25,610.7a61,61,0,0,1-1.87-15h1.24a59.43,59.43,0,0,0,1.84,14.69ZM1520,604.27l-1.24-.17a58.91,58.91,0,0,0,.6-8.4v-6.48h1.24v6.48A59.72,59.72,0,0,1,1520,604.27Zm-119.4-13.57h-1.24v-15h1.24Zm120-6.48h-1.24v-15h1.24Zm-120-13.52h-1.24v-15h1.24Zm120-6.48h-1.24v-15h1.24Zm-120-13.52h-1.24V535.08h9.13v1.25h-7.89Zm120-6.48h-1.24v-7.89h-5.87v-1.25h7.11Zm-12.11-7.89h-15v-1.25h15Zm-20,0h-15v-1.25h15Zm-20,0h-15v-1.25h15Zm-20,0h-15v-1.25h15Zm-20,0h-15v-1.25h15Z"/><path class="cls-8" d="M955,895.62a61,61,0,0,1-14.27-1.69l.29-1.22a59.15,59.15,0,0,0,14,1.67h.73l0,1.25Zm5.79-.27-.12-1.24a59,59,0,0,0,14.45-3.24l.42,1.17A60.06,60.06,0,0,1,960.79,895.35Zm-24.91-2.81A60.84,60.84,0,0,1,922.25,886l.68-1a59.13,59.13,0,0,0,13.34,6.4Zm44.34-2.41-.53-1.14a59.62,59.62,0,0,0,12.58-7.8l.79,1A61.3,61.3,0,0,1,980.22,890.13Zm-62.1-7a61.39,61.39,0,0,1-10.75-10.62l1-.77a60.32,60.32,0,0,0,10.54,10.4Zm78.73-4.27-.86-.9a59.55,59.55,0,0,0,9.35-11.47l1.06.66A60.7,60.7,0,0,1,996.85,878.82Zm-92.44-10.44a60.62,60.62,0,0,1-6.7-13.55l1.18-.41a59.62,59.62,0,0,0,6.56,13.27Zm104.5-5.65-1.12-.58a58.48,58.48,0,0,0,5.09-13.89l1.22.28A60.54,60.54,0,0,1,1008.91,862.73ZM896.25,850a60.83,60.83,0,0,1-1.87-15h1.24a59.29,59.29,0,0,0,1.84,14.68ZM1015,843.57l-1.24-.17a58.91,58.91,0,0,0,.6-8.4v-6.49h1.24V835A59.72,59.72,0,0,1,1015,843.57ZM895.62,830h-1.24V815h1.24Zm120-6.49h-1.24v-15h1.24ZM895.62,810h-1.24V795h1.24Zm120-6.49h-1.24v-15h1.24ZM895.62,790h-1.24V774.38h9.13v1.24h-7.89Zm120-6.49h-1.24v-7.89h-5.87v-1.24h7.11Zm-12.11-7.89h-15v-1.24h15Zm-20,0h-15v-1.24h15Zm-20,0h-15v-1.24h15Zm-20,0h-15v-1.24h15Zm-20,0h-15v-1.24h15Z"/><path class="cls-8" d="M955,1015.62a61,61,0,0,1-14.27-1.69l.29-1.22a59.15,59.15,0,0,0,14,1.67h.73l0,1.25Zm5.79-.27-.12-1.24a59,59,0,0,0,14.45-3.24l.42,1.17A60.06,60.06,0,0,1,960.79,1015.35Zm-24.91-2.81a60.84,60.84,0,0,1-13.63-6.54l.68-1a59.13,59.13,0,0,0,13.34,6.4Zm44.34-2.41-.53-1.14a59.62,59.62,0,0,0,12.58-7.8l.79,1A61.3,61.3,0,0,1,980.22,1010.13Zm-62.1-7a61.39,61.39,0,0,1-10.75-10.62l1-.77a60.32,60.32,0,0,0,10.54,10.4Zm78.73-4.27-.86-.9a59.55,59.55,0,0,0,9.35-11.47l1.06.66A60.7,60.7,0,0,1,996.85,998.82Zm-92.44-10.44a60.62,60.62,0,0,1-6.7-13.55l1.18-.41a59.62,59.62,0,0,0,6.56,13.27Zm104.5-5.65-1.12-.58a58.48,58.48,0,0,0,5.09-13.89l1.22.28A60.54,60.54,0,0,1,1008.91,982.73ZM896.25,970a60.83,60.83,0,0,1-1.87-15h1.24a59.29,59.29,0,0,0,1.84,14.68ZM1015,963.57l-1.24-.17a58.91,58.91,0,0,0,.6-8.4v-6.49h1.24V955A59.72,59.72,0,0,1,1015,963.57ZM895.62,950h-1.24V935h1.24Zm120-6.49h-1.24v-15h1.24ZM895.62,930h-1.24V915h1.24Zm120-6.49h-1.24v-15h1.24ZM895.62,910h-1.24V894.38h9.13v1.24h-7.89Zm120-6.49h-1.24v-7.89h-5.87v-1.24h7.11Zm-12.11-7.89h-15v-1.24h15Zm-20,0h-15v-1.24h15Zm-20,0h-15v-1.24h15Zm-20,0h-15v-1.24h15Zm-20,0h-15v-1.24h15Z"/><path class="cls-8" d="M955,775.62a61,61,0,0,1-14.27-1.69l.29-1.22a59.15,59.15,0,0,0,14,1.67h.73l0,1.25Zm5.79-.27-.12-1.24a59,59,0,0,0,14.45-3.24l.42,1.17A60.06,60.06,0,0,1,960.79,775.35Zm-24.91-2.81A60.84,60.84,0,0,1,922.25,766l.68-1a59.13,59.13,0,0,0,13.34,6.4Zm44.34-2.41-.53-1.14a59.62,59.62,0,0,0,12.58-7.8l.79,1A61.3,61.3,0,0,1,980.22,770.13Zm-62.1-7a61.39,61.39,0,0,1-10.75-10.62l1-.77a60.32,60.32,0,0,0,10.54,10.4Zm78.73-4.27-.86-.9a59.55,59.55,0,0,0,9.35-11.47l1.06.66A60.7,60.7,0,0,1,996.85,758.82Zm-92.44-10.44a60.62,60.62,0,0,1-6.7-13.55l1.18-.41a59.62,59.62,0,0,0,6.56,13.27Zm104.5-5.65-1.12-.58a58.48,58.48,0,0,0,5.09-13.89l1.22.28A60.54,60.54,0,0,1,1008.91,742.73ZM896.25,730a60.83,60.83,0,0,1-1.87-15h1.24a59.29,59.29,0,0,0,1.84,14.68ZM1015,723.57l-1.24-.17a58.91,58.91,0,0,0,.6-8.4v-6.49h1.24V715A59.72,59.72,0,0,1,1015,723.57ZM895.62,710h-1.24V695h1.24Zm120-6.49h-1.24v-15h1.24ZM895.62,690h-1.24V675h1.24Zm120-6.49h-1.24v-15h1.24ZM895.62,670h-1.24V654.38h9.13v1.24h-7.89Zm120-6.49h-1.24v-7.89h-5.87v-1.24h7.11Zm-12.11-7.89h-15v-1.24h15Zm-20,0h-15v-1.24h15Zm-20,0h-15v-1.24h15Zm-20,0h-15v-1.24h15Zm-20,0h-15v-1.24h15Z"/><path class="cls-8" d="M955,555.62a61,61,0,0,1-14.27-1.69l.29-1.22a59.67,59.67,0,0,0,14,1.67h.73l0,1.25Zm5.79-.27-.12-1.24a59,59,0,0,0,14.45-3.24l.42,1.17A60.06,60.06,0,0,1,960.79,555.35Zm-24.91-2.81A60.84,60.84,0,0,1,922.25,546l.68-1a59.54,59.54,0,0,0,13.34,6.4Zm44.34-2.41L979.7,549a59.56,59.56,0,0,0,12.57-7.8l.79,1A61.3,61.3,0,0,1,980.22,550.13Zm-62.1-7a61.39,61.39,0,0,1-10.75-10.62l1-.77a60.32,60.32,0,0,0,10.54,10.4Zm78.73-4.27-.86-.9a59.55,59.55,0,0,0,9.35-11.47l1.06.66A60.7,60.7,0,0,1,996.85,538.82Zm-92.44-10.44a60.62,60.62,0,0,1-6.7-13.55l1.18-.41a59.62,59.62,0,0,0,6.56,13.27Zm104.5-5.65-1.12-.58a58.48,58.48,0,0,0,5.09-13.89l1.22.28A60.54,60.54,0,0,1,1008.91,522.73ZM896.25,510a60.83,60.83,0,0,1-1.87-15h1.24a59.29,59.29,0,0,0,1.84,14.68ZM1015,503.57l-1.24-.17a58.91,58.91,0,0,0,.6-8.4v-6.49h1.24V495A59.72,59.72,0,0,1,1015,503.57ZM895.62,490h-1.24V475h1.24Zm120-6.49h-1.24v-15h1.24ZM895.62,470h-1.24V455h1.24Zm120-6.49h-1.24v-15h1.24ZM895.62,450h-1.24V434.38h9.13v1.24h-7.89Zm120-6.49h-1.24v-7.89h-5.87v-1.24h7.11Zm-12.11-7.89h-15v-1.24h15Zm-20,0h-15v-1.24h15Zm-20,0h-15v-1.24h15Zm-20,0h-15v-1.24h15Zm-20,0h-15v-1.24h15Z"/></g></svg>