<svg xmlns="http://www.w3.org/2000/svg" xmlns:xlink="http://www.w3.org/1999/xlink" viewBox="0 0 1920 1080"><defs><style>.cls-1{fill:#082b96;}.cls-2{fill:#fff;}.cls-3{fill:#4672e2;}.cls-4{fill:url(#linear-gradient);}.cls-5{fill:url(#linear-gradient-2);}.cls-6{fill:url(#linear-gradient-3);}.cls-7{fill:url(#linear-gradient-4);}</style><linearGradient id="linear-gradient" x1="8814.43" y1="5051.57" x2="9894.43" y2="5051.57" gradientTransform="translate(6347.57 -8814.43) rotate(90)" gradientUnits="userSpaceOnUse"><stop offset="0" stop-color="#fff" stop-opacity="0"/><stop offset="0.51" stop-color="#fff"/><stop offset="1" stop-color="#fff" stop-opacity="0"/></linearGradient><linearGradient id="linear-gradient-2" x1="8814.43" y1="5723.57" x2="9894.43" y2="5723.57" xlink:href="#linear-gradient"/><linearGradient id="linear-gradient-3" x1="4506.42" y1="8969.57" x2="6426.42" y2="8969.57" gradientTransform="translate(6426.43 9815.57) rotate(180)" xlink:href="#linear-gradient"/><linearGradient id="linear-gradient-4" x1="4506.42" y1="9581.57" x2="6426.42" y2="9581.57" gradientTransform="translate(6426.43 9815.57) rotate(180)" xlink:href="#linear-gradient"/></defs><g id="Background"><rect class="cls-1" width="1920" height="1080"/></g><g id="Graphics"><path class="cls-2" d="M888.3,378.62h-15v-1.24h15Zm-20,0h-15v-1.24h15Zm-20,0h-15v-1.24h15Zm-20,0h-15v-1.24h15Zm-20,0h-15v-1.24h15Zm-20,0h-9.44l4.21-6.6,1.06.67-3,4.69h7.16Zm100.63-3.38h-1.25v-15h1.25Zm-102.11-6.76-1.06-.68,8.07-12.64,1,.67Zm102.11-13.24h-1.25v-.62H874.54v-1.24h14.39Zm-19.39-.62h-15v-1.24h15Zm-20,0h-15v-1.24h15Zm-20,0h-6.9l5.57-8.74,1.06.67-4.35,6.83h4.62Zm-32-3-1.05-.67,8.06-12.64,1.06.67ZM832,342.34l-1.06-.67L839,329l1,.67Zm-23.63-7.59-1.06-.67,8.07-12.65,1,.68Zm34.38-9.27-1.05-.68,8.06-12.64,1.06.67Zm-23.63-7.59-1.05-.67,8.07-12.65,1,.67Zm34.39-9.28-1.06-.67,8.07-12.64,1,.67ZM829.84,301l-1.05-.67,8.06-12.65,1.06.67Zm34.38-9.28-1.05-.67,8.07-12.65,1,.68Zm-23.63-7.58-1.05-.67,8.07-12.65,1,.67ZM875,274.89l-1.06-.67L882,261.57l1,.68Zm-23.63-7.58-1.05-.68,5.11-8h-3.22v-1.24h5.5Zm-4.16-8.69h-15v-1.24h15Zm-20,0h-15v-1.24h15Zm-20,0H791.68v-.74h.62v-.5h14.89Zm78.54-.59-1.05-.67,8.07-12.65,1,.67Zm-92.8-5.15h-1.25v-15h1.25Zm103.56-11.71-1-.67,3.74-5.88h-5.76v-1.24h8Zm-8.07-6.55h-15v-1.24h15Zm-20,0h-15v-1.24h15Zm-20,0h-15v-1.24h15Zm-20,0h-15v-1.24h15Zm-20,0h-15v-1.24h15Z"/><path class="cls-2" d="M768.62,523.14l-6.6-4.21.67-1.06,4.69,3V513.7h1.24Zm-10.82-6.9-12.64-8.07.67-1.05,12.65,8.06Zm-109.18-5.92h-.74v-.62h-.5V494.81h1.24Zm-5.74,0h-15v-1.25h15Zm125.74-1.62h-1.24v-15h1.24Zm-144-.12h-1.24v-15h1.24Zm116.32-3.1-12.64-8.06.67-1.06,12.64,8.07Zm-16.86-10.75-12.65-8.07.68-1.05,12.64,8.06Zm-75.46-4.92h-1.24v-15h1.24Zm120-1.11h-1.24v-15h1.24Zm-144-.12h-1.24v-15h1.24Zm82.6-4.61-12.65-8.07.67-1,12.65,8.07Zm37.4-4.61-8.74-5.57.67-1.06,6.83,4.35v-4.62h1.24Zm-54.26-6.15-12.65-8.06.67-1.06L691,472.16Zm41.31-2.11L719,463l.67-1L732.34,470Zm-83-1.29h-1.24v-15h1.24Zm120-1.11h-1.24v-15h1.24Zm-144-.12h-1.24v-15h1.24Zm120-1.12h-1.24v-15h1.24Zm-71.12-5-12.65-8.07.67-1.05,12.65,8.07Zm41.3-2.12-12.64-8.06.67-1.06,12.65,8.07Zm-58.17-8.64-8-5.11v3.22h-1.24v-5.5l9.93,6.34Zm41.31-2.11-12.64-8.07.67-1,12.64,8.06Zm70.68-.89h-1.24v-15h1.24Zm-144-.12h-1.24v-15h1.24Zm120-1.12h-1.24v-15h1.24Zm-63.54-8.63-12.64-8.07.67-1.05,12.64,8.07Zm87.54-10.13h-1.24v-15h1.24Zm-144-.12h-1.24v-15h1.24Zm39.6-.5L651.57,420l.68-1.05L664.89,427Zm80.4-.62h-1.24V413.07h1.86v1.25h-.62Zm-97.26-10.14-12.65-8.07.67-1.05L648,416.27Zm117.88-3h-15v-1.25h15Zm-140.62-5.74h-1.24v-8l7.79,5-.67,1.05-5.88-3.74Z"/><path class="cls-2" d="M1296.62,715.14l-7.79-5,.67-1,5.88,3.74V707.1h1.24Zm-12-7.66L1272,699.41l.67-1,12.65,8.07Zm-108-4.87h-1.86v-1.25h.62V688.22h1.24Zm-6.86,0h-15v-1.25h15Zm126.86-.51h-1.24v-15h1.24Zm-144-.12h-1.24V687h1.24Zm115.13-5.26-12.64-8.06.67-1.06,12.65,8.07ZM1250.89,686l-12.64-8.07.67-1,12.64,8.07Zm-74.27-2.75h-1.24v-15h1.24Zm120-1.12h-1.24v-15h1.24Zm-144-.12h-1.24V667h1.24Zm81.41-6.77-12.64-8.06.67-1.06,12.64,8.07Zm38.59-3.85-9.93-6.33.68-1,8,5.1v-3.22h1.24Zm-55.45-6.9-12.65-8.07.68-1,12.64,8.06Zm-40.55-1.24h-1.24v-15h1.24Zm81.86-.88-12.65-8.07.67-1,12.65,8.07Zm38.14-.24h-1.24v-15h1.24Zm-144-.12h-1.24V647h1.24Zm120-1.12h-1.24v-15h1.24Zm-72.31-7.16-12.65-8.07.67-1,12.65,8.07Zm41.31-2.12L1229,643.52l.67-1.06,12.65,8.07Zm-65-8.36h-1.24v-6.91l8.74,5.58-.67,1.06-6.83-4.36Zm120-1.12h-1.24v-15h1.24Zm-144-.12h-1.24V627h1.24Zm120-1.12h-1.24v-15h1.24Zm-47.86,0-12.65-8.07.67-1,12.65,8.07Zm-16.87-10.76L1195.25,622l.67-1.06,12.65,8.07Zm88.73-8h-1.24v-15h1.24Zm-144-.12h-1.24V607h1.24Zm120-1.12h-1.24v-15.5h.74V606h.5ZM1191,619.32l-12.64-8.07.67-1,12.64,8.06Zm-16.86-10.76-12.65-8.06.68-1.06,12.64,8.07Zm117.95-1.95h-15v-1.25h15ZM1152.62,602h-1.24v-9.44l6.6,4.21-.67,1.06-4.69-3Z"/><path class="cls-2" d="M1008,846.62H993v-1.24h15Zm-20,0H973v-1.24h15Zm-20,0H953v-1.24h15Zm-20,0H933v-1.24h15Zm-20,0H913v-1.24h15Zm-20,0h-9.44l4.21-6.6,1.06.67-3,4.69H908Zm100.63-3.38h-1.25v-15h1.25ZM906.5,836.48l-1.06-.68,8.07-12.64,1,.67Zm102.11-13.24h-1.25v-.62H994.22v-1.24h14.39Zm-19.39-.62h-15v-1.24h15Zm-20,0h-15v-1.24h15Zm-20,0h-6.91l5.58-8.74,1.06.67-4.36,6.83h4.63Zm-32-3-1-.67,8.06-12.64,1.06.67Zm34.38-9.27-1-.67L958.65,797l1.05.67ZM928,802.75l-1.06-.67L935,789.43l1.05.68Zm34.38-9.27-1-.68,8.06-12.64,1.06.67Zm-23.63-7.59-1-.67,8.07-12.65,1.05.67Zm34.39-9.28-1.06-.67,8.07-12.64,1.05.67ZM949.52,769l-1.06-.67,8.07-12.65,1.05.67Zm34.38-9.28-1-.67,8.07-12.64,1.05.67Zm-23.63-7.58-1-.67,8.07-12.65,1.05.67Zm34.39-9.28-1.06-.67,8.07-12.65,1.05.68ZM971,735.31l-1-.68,5.1-8h-3.22v-1.24h5.5Zm-4.17-8.69h-15v-1.24h15Zm-20,0h-15v-1.24h15Zm-20,0h-15.5v-.74H912v-.5h14.88Zm78.55-.59-1-.67,8.07-12.65,1.05.67Zm-92.8-5.15h-1.25v-15h1.25Zm103.56-11.71-1-.67,3.74-5.88h-5.76v-1.24h8Zm-8.07-6.55h-15v-1.24h15Zm-20,0h-15v-1.24h15Zm-20,0h-15v-1.24h15Zm-20,0h-15v-1.24h15Zm-20,0h-15v-1.24h15Z"/><polygon class="cls-3" points="876 522 767.7 522 844.24 402 780 402 780 378 888.02 378 811.47 498 876 498 876 522"/><polygon class="cls-3" points="1008 522 912.31 522 911.97 378 1008 378 1008 402 936.03 402 936.26 498 1008 498 1008 522"/><rect class="cls-3" x="924" y="438" width="84" height="24"/><polygon class="cls-3" points="1140 522 1044 522 1044 378 1140 378 1140 402 1068 402 1068 498 1140 498 1140 522"/><rect class="cls-3" x="1056" y="438" width="84" height="24"/><polygon class="cls-3" points="1008 702 912 702 912 558 1008 558 1008 582 936 582 936 678 1008 678 1008 702"/><rect class="cls-3" x="924" y="618" width="84" height="24"/><polygon class="cls-3" points="1152 702 1129.01 702 1068 604.76 1068 702 1044 702 1044 558 1067 558 1128 655.23 1128 558 1152 558 1152 702"/><rect class="cls-4" x="1295.5" width="1" height="1080"/><rect class="cls-5" x="623.5" width="1" height="1080"/><rect class="cls-6" y="845.5" width="1920" height="1"/><rect class="cls-7" y="233.5" width="1920" height="1"/></g></svg>