<svg xmlns="http://www.w3.org/2000/svg" viewBox="0 0 1920 1080"><defs><style>.cls-1{fill:none;stroke:#000;stroke-miterlimit:10;stroke-width:12px;}</style></defs><g id="Graphics"><line class="cls-1" x1="822.9" y1="192.23" x2="924.73" y2="90.4"/><line class="cls-1" x1="882.3" y1="132.83" x2="912" y2="162.53"/><line class="cls-1" x1="882.3" y1="132.83" x2="927.87" y2="132.83"/><line class="cls-1" x1="850.22" y1="160.14" x2="835.63" y2="145.56"/><path class="cls-1" d="M869.57,154a18,18,0,0,1-25.45,25.46"/><path class="cls-1" d="M924.73,115.86A18,18,0,1,0,899.27,90.4"/><path class="cls-1" d="M632,569.82a77.81,77.81,0,0,1,110,0h0a77.8,77.8,0,0,1,0,110"/><line class="cls-1" x1="933.21" y1="370.42" x2="746.54" y2="370.42"/><path class="cls-1" d="M852.6,306.78H759.26L738.05,328,712.6,302.54,822.9,192.23l80.61,80.61a108,108,0,0,1,0,152.73L878.06,451l148.49,148.49a108,108,0,0,1,0,152.74L916.24,862.57,585.32,531.64,810.18,306.78"/><polyline class="cls-1" points="941.7 837.11 861.09 756.5 1022.31 595.28"/><polyline class="cls-1" points="852.6 221.93 822.9 251.63 793.21 221.93"/><path class="cls-1" d="M800.06,483.34h156a0,0,0,0,1,0,0v78a78,78,0,0,1-78,78h0a78,78,0,0,1-78-78v-78a0,0,0,0,1,0,0Z" transform="translate(654.1 -456.47) rotate(45)"/></g></svg>