<svg xmlns="http://www.w3.org/2000/svg" viewBox="0 0 1920 1080"><defs><style>.cls-1{fill:#f5cebc;}.cls-2{fill:none;stroke:#000;stroke-miterlimit:10;stroke-width:12px;}</style></defs><g id="Background"><path class="cls-1" d="M0,0V1080H1920V0Z"/></g><g id="Graphics"><line class="cls-2" x1="654" y1="336" x2="654" y2="192"/><line class="cls-2" x1="654" y1="252" x2="696" y2="252"/><line class="cls-2" x1="654" y1="252" x2="686.22" y2="219.78"/><line class="cls-2" x1="650.62" y1="294" x2="630" y2="294"/><path class="cls-2" d="M660,276a18,18,0,0,1,0,36"/><path class="cls-2" d="M672,210a18,18,0,0,0-36,0"/><path class="cls-2" d="M786,738a77.81,77.81,0,0,1,77.81-77.81h0A77.81,77.81,0,0,1,941.61,738"/><line class="cls-2" x1="858" y1="384" x2="726" y2="516"/><path class="cls-2" d="M756,396l-66,66v30H654V336H768A108,108,0,0,1,876,444v36h210a108,108,0,0,1,108,108V744H726V426"/><polyline class="cls-2" points="1194 708 1080 708 1080 480"/><polyline class="cls-2" points="696 336 696 378 654 378"/><path class="cls-2" d="M876,480h156a0,0,0,0,1,0,0v78a78,78,0,0,1-78,78h0a78,78,0,0,1-78-78V480A0,0,0,0,1,876,480Z"/></g></svg>