<svg xmlns="http://www.w3.org/2000/svg" viewBox="0 0 204 132"><defs><style>.cls-1{fill:none;stroke:#000;stroke-miterlimit:10;stroke-width:4px;}.cls-2{font-size:10px;font-family:Akkurat;letter-spacing:-0.02em;}.cls-3{letter-spacing:0.01em;}.cls-4{font-size:7px;letter-spacing:-0.01em;}</style></defs><g id="Isolation_Mode" data-name="Isolation Mode"><polyline class="cls-1" points="50 50 64.36 50 51.6 70 66 70"/><polyline class="cls-1" points="87.95 70 74 70 73.95 50 87.95 50"/><line class="cls-1" x1="87.95" y1="60" x2="73.95" y2="60"/><polyline class="cls-1" points="110 70 96 70 96 50 110 50"/><line class="cls-1" x1="110" y1="60" x2="96" y2="60"/><polyline class="cls-1" points="132 70 118 70 118 50 132 50"/><line class="cls-1" x1="132" y1="60" x2="118" y2="60"/><polyline class="cls-1" points="154 48 154 70 153.14 70 140.88 50 140 50 140 72"/><text class="cls-2" transform="translate(48 88)">A<tspan class="cls-3" x="5.96" y="0">r</tspan><tspan x="9.95" y="0">tistically From Iran</tspan><tspan class="cls-4"><tspan x="0" y="8">EST 2013</tspan></tspan></text></g></svg>