<svg xmlns="http://www.w3.org/2000/svg" viewBox="0 0 94 87"><defs><style>.cls-1{fill:none;stroke:#000;stroke-miterlimit:10;stroke-width:2px;}</style></defs><g id="Graphics"><path d="M28.78,59.19a1.5,1.5,0,0,1-.11.6,1,1,0,0,1-.33.39,1.37,1.37,0,0,1-.49.21,3.24,3.24,0,0,1-.64.06,1.42,1.42,0,0,1-.42-.06,1,1,0,0,1-.35-.18.89.89,0,0,1-.24-.3,1,1,0,0,1-.09-.43,1.39,1.39,0,0,1,0-.35,3.37,3.37,0,0,1,.1-.34,1.08,1.08,0,0,1,.14-.24c0-.07.08-.1.12-.1s.1,0,.1.14a.65.65,0,0,1,0,.11l-.05.15-.06.18a1.1,1.1,0,0,0,0,.18.56.56,0,0,0,.08.3.61.61,0,0,0,.2.19.82.82,0,0,0,.29.08,1.67,1.67,0,0,0,.32,0h.21l.24,0,.26-.05.23-.08a.7.7,0,0,0,.16-.13.29.29,0,0,0,.06-.19.51.51,0,0,0-.05-.17,1.19,1.19,0,0,0-.12-.22,2,2,0,0,0-.16-.24,1.8,1.8,0,0,0-.18-.2l.27-.54s0,0,.06,0A2.22,2.22,0,0,1,28.78,59.19Zm-1-1.35-.38.37L27,57.84l.36-.36Z"/><path d="M29.73,58.93a1.7,1.7,0,0,1-.19.58c0,.07-.06.11-.07.11s0-.08-.06-.23l-.23-2.66.46-.39.06,0s0,0,0,.05Z"/><path d="M31.23,59.49l-.13-.05a1.93,1.93,0,0,1-.16.77,2.39,2.39,0,0,1-.13.21.86.86,0,0,1-.14.18l-.13.14a.16.16,0,0,1-.09,0h-.34l-.34,0-.26-.05c-.06,0-.1,0-.1-.06s0,0,0,0a3.28,3.28,0,0,0,.91-.52,1.9,1.9,0,0,0,.32-.31.54.54,0,0,0,.13-.27.38.38,0,0,0,0-.13l-.1-.15a1.19,1.19,0,0,0-.15-.18l-.17-.17.26-.54,0,0,0,0q.38.51.69.51v.65Z"/><path d="M31.36,59.5h-.1s0,0,0,0v-.57s0,0,0,0h.94c.24,0,.37-.05.37-.13a.36.36,0,0,0-.08-.17,3,3,0,0,0-.21-.26.06.06,0,0,1,0-.08l.3-.42s0,0,.07,0a.58.58,0,0,1,.11.15,1.08,1.08,0,0,1,.08.19,1.17,1.17,0,0,1,0,.2,1.37,1.37,0,0,1,0,.19,1.41,1.41,0,0,1-.14.64.66.66,0,0,1-.61.35Zm.61.77-.31.31-.3-.31.3-.3Zm.69,0-.31.31L32,60.27l.31-.3Z"/><path d="M33.86,58.93a1.7,1.7,0,0,1-.19.58c0,.07-.06.11-.07.11s0-.08-.06-.23l-.23-2.66.46-.39.06,0s0,0,0,.05Z"/><path d="M36.28,59.32a1.76,1.76,0,0,1-.17.76,1.59,1.59,0,0,1-.13.22,1.39,1.39,0,0,1-.15.19,1,1,0,0,1-.13.15.21.21,0,0,1-.09,0h-.34l-.34,0-.26,0c-.07,0-.1,0-.1-.06s0,0,0,0a2.56,2.56,0,0,0,.48-.22,2.74,2.74,0,0,0,.43-.3,1.84,1.84,0,0,0,.31-.32.5.5,0,0,0,.12-.29.27.27,0,0,0,0-.13c0-.06-.07-.11-.11-.18l-.15-.17-.15-.15.25-.51s0,0,0,0h0A1.51,1.51,0,0,1,36.28,59.32Zm-.22-1.83-.38.37-.36-.37.36-.36Z"/><path d="M37.23,58.93a1.7,1.7,0,0,1-.19.58c0,.07-.06.11-.07.11s0-.08-.06-.23l-.23-2.66.46-.39.06,0s0,0,0,.05Z"/><path d="M40.36,59.5c-.28,0-.48-.21-.6-.61l-.21.34c-.65,0-1-.11-1-.34,0,0,0-.07,0-.12a.75.75,0,0,0,0-.16l.06-.14a.29.29,0,0,1,.06-.11,1.78,1.78,0,0,1,.33-.25,3.15,3.15,0,0,1,.45-.22l-.09-.31.36-.34s0,.15.07.32l.16.77a1.06,1.06,0,0,0,0,.19.46.46,0,0,0,.07.16.32.32,0,0,0,.11.12.36.36,0,0,0,.19.05h.18v.65Zm-.78-1.3a1.71,1.71,0,0,0-.61.36c.06.09.31.14.74.14Z"/><path d="M42.41,59.5a1.49,1.49,0,0,1-.49-.07,1.09,1.09,0,0,1-.4-.23,1.74,1.74,0,0,1-.47.24,1.55,1.55,0,0,1-.4.06h-.14l0,0v-.57l0,0h.23a.91.91,0,0,0,.34,0,.71.71,0,0,1-.17-.39.74.74,0,0,1,.06-.27,1.68,1.68,0,0,1,.15-.3,1,1,0,0,1,.23-.22.41.41,0,0,1,.5,0,.85.85,0,0,1,.16.17.92.92,0,0,1,.09.23.77.77,0,0,1,0,.25.81.81,0,0,1-.19.56.86.86,0,0,0,.38,0h.15v.65Zm-.9-2.66-.31.31-.31-.31.31-.31Zm.36,1.55a.26.26,0,0,0,0-.11.36.36,0,0,0-.07-.1l-.11-.08a.2.2,0,0,0-.11,0,.27.27,0,0,0-.12,0,.24.24,0,0,0-.11.06l-.1.09a.27.27,0,0,0,0,.12.22.22,0,0,0,0,.1l.09.1.12.08a.26.26,0,0,0,.1,0l.09,0a.3.3,0,0,0,.11-.06l.09-.1A.22.22,0,0,0,41.87,58.39Zm.32-1.55-.3.31-.31-.31.31-.31Z"/><path d="M43.82,59.5a.81.81,0,0,1-.37-.09.55.55,0,0,1-.28-.28,1,1,0,0,1-.27.27.71.71,0,0,1-.37.1h-.15l-.05,0v-.57l.05,0h.13a.6.6,0,0,0,.24-.05.4.4,0,0,0,.19-.11.85.85,0,0,0,.11-.31c0-.11.05-.16.12-.16s.1.05.12.16a.77.77,0,0,0,.09.31.51.51,0,0,0,.42.16h.06v.65Zm-.69.77-.31.31-.31-.31.31-.3Zm.68,0-.3.31-.31-.31.31-.3Z"/><path d="M45.13,59.5a.58.58,0,0,1-.3-.09.45.45,0,0,1-.2-.23.69.69,0,0,1-.22.23.54.54,0,0,1-.28.09h-.37l0,0v-.57l0,0h.36c.25,0,.37-.11.37-.35s0-.25,0-.42,0-.34,0-.54,0-.38,0-.51,0-.21,0-.26l.49-.46s0,0,0,0V58.5a.32.32,0,0,0,.36.35h.31v.65Z"/><path d="M47.93,59.5a.49.49,0,0,1-.3-.09.84.84,0,0,1-.22-.26.84.84,0,0,1-.22.26.53.53,0,0,1-.3.09.56.56,0,0,1-.51-.35.69.69,0,0,1-.62.35h-.28s0,0,0,0v-.57s0,0,0,0h.4a.4.4,0,0,0,.17,0,.31.31,0,0,0,.11-.08.61.61,0,0,0,.07-.14,1.89,1.89,0,0,0,.06-.18c0-.1.06-.16.12-.16s.1.06.13.16a.75.75,0,0,0,0,.16.58.58,0,0,0,.05.14.31.31,0,0,0,.11.09.34.34,0,0,0,.18,0,.4.4,0,0,0,.17,0,.48.48,0,0,0,.11-.09.35.35,0,0,0,.06-.14l.06-.17c0-.1.07-.16.13-.16s.09.06.12.16a.85.85,0,0,0,0,.17.31.31,0,0,0,.06.13.2.2,0,0,0,.11.09.3.3,0,0,0,.18,0c.21,0,.32-.07.32-.2a.29.29,0,0,0-.06-.15,2.33,2.33,0,0,1-.15-.23l.22-.35s0-.06.06-.06l0,0a1,1,0,0,1,.14.3,1,1,0,0,1,.06.33,1.82,1.82,0,0,1,0,.32,1.15,1.15,0,0,1-.11.31.61.61,0,0,1-.21.24A.49.49,0,0,1,47.93,59.5Z"/><path d="M50.62,59.5a.67.67,0,0,1-.33-.08.76.76,0,0,1-.2-.2A.79.79,0,0,1,50,59a1.55,1.55,0,0,1,0-.29c0-.11,0-.25,0-.41s0-.34,0-.53,0-.47-.05-.64,0-.29,0-.36l.42-.36.09,0s0,0,0,.07V58.5c0,.23.13.35.4.35H51v.65Z"/><path d="M51.37,60.32,51,60.7l-.37-.38L51,60ZM51,59.5h-.1l-.05,0v-.57l.05,0h.43c.25,0,.37-.05.37-.13s-.1-.22-.29-.43a.08.08,0,0,1,0-.08l.3-.42a.05.05,0,0,1,0,0l0,0a.58.58,0,0,1,.11.15,1.42,1.42,0,0,1,.08.18,1.6,1.6,0,0,1,0,.21.68.68,0,0,1,0,.19,1.2,1.2,0,0,1-.19.72.65.65,0,0,1-.56.27Z"/><path d="M37.44,64.59c0,.31,0,.46-.1.46s-.05,0-.05-.1a3.34,3.34,0,0,0-.11-.84,2.55,2.55,0,0,0-.35-.75l.18-.27a2.53,2.53,0,0,1,.32.73A3,3,0,0,1,37.44,64.59Z"/><path d="M38.55,64.64c0,.27,0,.41-.1.41s-.05,0-.05-.1a2,2,0,0,0,0-.43,3.17,3.17,0,0,0-.12-.41,2.64,2.64,0,0,0-.18-.38c-.07-.13-.14-.25-.22-.37l.17-.27a.8.8,0,0,1,.09.14,1,1,0,0,0,.08.11.31.31,0,0,0,.09.07l.12,0a.18.18,0,0,0,.15-.06.24.24,0,0,0,.06-.11,1,1,0,0,0,0-.12s0-.06.06-.06,0,0,0,.05a.52.52,0,0,0,0,.11.37.37,0,0,0,0,.11.17.17,0,0,0,.13,0,.13.13,0,0,0,.11,0,.37.37,0,0,0,.05-.11.45.45,0,0,0,0-.11.05.05,0,0,1,.06,0s0,0,0,.08c0,.33-.1.5-.31.5h-.07l-.07,0-.06,0,0,0a.24.24,0,0,1-.11.13.47.47,0,0,1-.17,0h-.08a3.58,3.58,0,0,1,.17.49A1.86,1.86,0,0,1,38.55,64.64Z"/><path d="M40.71,64.72c0,.08,0,.14,0,.19a.62.62,0,0,1,0,.1s0,0,0,0h0L40.54,65a.82.82,0,0,1-.14-.25,1.18,1.18,0,0,1-.07-.32c0-.13,0-.27,0-.43A1.06,1.06,0,0,1,40,64h-.14l-.11,0a.27.27,0,0,1-.08-.1.33.33,0,0,1,0-.15.75.75,0,0,1,0-.2.68.68,0,0,1,.07-.2.53.53,0,0,1,.13-.16.24.24,0,0,1,.18-.07c.28,0,.41.23.41.7a2.49,2.49,0,0,0,.06.59A.69.69,0,0,0,40.71,64.72Zm-.43-1a.5.5,0,0,0,0-.12l-.06-.11a.27.27,0,0,0-.08-.07.2.2,0,0,0-.11,0,.23.23,0,0,0-.15.05.21.21,0,0,0-.06.16.13.13,0,0,0,.08.13.47.47,0,0,0,.17,0h.14Z"/><path d="M41.82,64.64c0,.27,0,.41-.1.41s0,0,0-.1a3,3,0,0,0,0-.43,3.17,3.17,0,0,0-.12-.41,2.64,2.64,0,0,0-.18-.38c-.07-.13-.14-.25-.22-.37l.17-.27.09.13.1.11a.41.41,0,0,0,.11.07.37.37,0,0,0,.15,0,.44.44,0,0,0,.26-.07.45.45,0,0,0,.17-.21.07.07,0,0,1,.06-.06h0a.08.08,0,0,1,0,.06.6.6,0,0,1-.05.24.34.34,0,0,1-.11.17.5.5,0,0,1-.17.11.66.66,0,0,1-.21,0h-.14c.07.17.12.33.17.49A1.86,1.86,0,0,1,41.82,64.64Z"/><path d="M46.74,65h-.13a.37.37,0,0,1-.36-.21.34.34,0,0,1-.33.22.32.32,0,0,1-.32-.23.39.39,0,0,1-.36.23.63.63,0,0,1-.19,0,1,1,0,0,1,0,.2,1.18,1.18,0,0,1,0,.28.75.75,0,0,1-.44.43A1.36,1.36,0,0,1,44,66a.86.86,0,0,1-.55-.16.61.61,0,0,1-.23-.5,1,1,0,0,1,.09-.37c.07-.16.13-.24.18-.26s0,0,0,0a.09.09,0,0,1,0,0,.93.93,0,0,0-.11.41.48.48,0,0,0,.12.33.65.65,0,0,0,.5.18,1.41,1.41,0,0,0,.65-.14.6.6,0,0,0,.29-.24.44.44,0,0,0,0-.17.8.8,0,0,0,0-.18,1.77,1.77,0,0,0-.24-.38l.11-.21s0,0,0,0l0,0a.92.92,0,0,0,.14.19.35.35,0,0,0,.26.11.3.3,0,0,0,.24-.09.61.61,0,0,0,.08-.21s0-.07,0-.08,0,0,0,.07c0,.21.12.31.28.31s.29-.1.31-.3c0,0,0-.07,0-.07s0,0,0,.07q0,.3.3.3h.14Z"/><path d="M48,65h-.2a.47.47,0,0,1-.46-.23.55.55,0,0,1-.52.23h-.16v-.29h.22c.25,0,.38-.1.4-.29s0-.11.06-.11,0,0,0,.12.15.28.39.28H48Zm-.83.55-.19.2-.2-.2.2-.2Zm.43,0-.19.2-.2-.2.2-.2Z"/><path d="M50,64.46a.62.62,0,0,1-.1.37.39.39,0,0,1-.33.17.39.39,0,0,1-.37-.21.41.41,0,0,1-.35.21.37.37,0,0,1-.37-.21.44.44,0,0,1-.39.21h-.18v-.29h.21a.3.3,0,0,0,.32-.3s0-.07.05-.07,0,0,0,.07a.33.33,0,0,0,.55.21.56.56,0,0,0,.07-.21s0-.07,0-.07,0,0,0,.07c0,.2.13.3.31.3s.28,0,.29-.14a.65.65,0,0,0-.14-.29l.11-.21s0,0,0,0l0,.06A.79.79,0,0,1,50,64.46Z"/><path d="M51,62.27l0,.13a2.66,2.66,0,0,0-.56.16v-.09l.17-.1a.31.31,0,0,1-.17-.18.46.46,0,0,1,.33-.33.2.2,0,0,1,.19.12.13.13,0,0,1,0,.06h-.06a.34.34,0,0,0-.16,0,.19.19,0,0,0-.1,0s-.06,0-.06.05,0,.09.1.13a.35.35,0,0,0,.17,0l.14,0h0ZM51.2,65H51a.39.39,0,0,1-.39-.23,1.22,1.22,0,0,1-.07-.48v-.48a9.29,9.29,0,0,0-.06-1l.16-.17s0,0,0,0a8,8,0,0,1,.05,1v.74a.27.27,0,0,0,.3.31h.13Z"/><path d="M51.8,64.5a.44.44,0,0,1-.49.5H51.1v-.29h.17c.25,0,.37,0,.37-.14a.63.63,0,0,0-.17-.31l.11-.25s0,0,0,0l0,0A.79.79,0,0,1,51.8,64.5Zm-.23-1.1-.2.19-.19-.19.19-.19Zm.43,0-.19.19-.2-.19.2-.19Z"/></g><g id="Guides"><path class="cls-1" d="M27,26v9A10,10,0,0,0,37,45h0A10,10,0,0,0,47,35V26"/><polyline class="cls-1" points="59.71 45.71 67 38.41 67 32"/><line class="cls-1" x1="37" y1="26" x2="37" y2="30"/><line class="cls-1" x1="67" y1="30" x2="67" y2="26"/><line class="cls-1" x1="47" y1="48" x2="47" y2="52"/><line class="cls-1" x1="51" y1="52" x2="51" y2="48"/><polyline class="cls-1" points="51 26 51 30.41 47 34.41"/><polyline class="cls-1" points="55 26 55 32.41 47 40.41"/><polyline class="cls-1" points="47 26 47 45 48.41 45 59 34.41 59 26"/></g></svg>