<svg xmlns="http://www.w3.org/2000/svg" viewBox="0 0 1920 1080"><defs><style>.cls-1{fill:#082b96;}.cls-2{fill:#061f6b;}.cls-3{fill:none;stroke:#fff;stroke-miterlimit:10;stroke-width:24px;}</style></defs><g id="Background"><rect class="cls-1" width="1920" height="1080"/></g><g id="Graphics"><path class="cls-2" d="M1428,756H492V324h936Z"/><polyline class="cls-3" points="648 480 734.13 480 657.58 600 744 600"/><polyline class="cls-3" points="875.71 600 792 600 791.71 480 875.71 480"/><line class="cls-3" x1="875.71" y1="540" x2="791.71" y2="540"/><polyline class="cls-3" points="1008 600 924 600 924 480 1008 480"/><line class="cls-3" x1="1008" y1="540" x2="924" y2="540"/><polyline class="cls-3" points="1140 600 1056 600 1056 480 1140 480"/><line class="cls-3" x1="1140" y1="540" x2="1056" y2="540"/><polyline class="cls-3" points="1272 468 1272 600 1266.81 600 1193.28 480 1188 480 1188 612"/></g></svg>