<svg xmlns="http://www.w3.org/2000/svg" viewBox="0 0 1920 1080"><g id="Graphics"><polygon points="690 585 554.62 585 650.3 435 570 435 570 405 705.02 405 609.34 555 690 555 690 585"/><polygon points="854.64 585 735.04 585 734.61 405 854.64 405 854.64 435 764.68 435 764.96 555 854.64 555 854.64 585"/><rect x="749.64" y="480" width="105" height="30"/><polygon points="1020 585 900 585 900 405 1020 405 1020 435 930 435 930 555 1020 555 1020 585"/><rect x="915" y="480" width="105" height="30"/><polygon points="1185 585 1065 585 1065 405 1185 405 1185 435 1095 435 1095 555 1185 555 1185 585"/><rect x="1080" y="480" width="105" height="30"/><polygon points="1365 585 1335.12 585 1260 462.41 1260 585 1230 585 1230 405 1260.01 405 1335 527.39 1335 405 1365 405 1365 585"/><path d="M594.07,705l-4.35-12.6h-23.1L562.35,705H555.6l18.75-53.17h7.8L601,705Zm-16-46.5-9.38,27.6h18.83Z"/><path d="M623.62,673a10.43,10.43,0,0,0-7.2,3c-3.07,2.92-3.45,8.17-3.45,12.15V705h-6.3v-38h5.63l.52,6.68c1.95-4.65,6.53-6.9,11.33-6.9a20.29,20.29,0,0,1,3,.22v6.23A18.3,18.3,0,0,0,623.62,673Z"/><path d="M648.67,705.53c-8.17,0-10.42-5.18-10.42-10.28V672.53H630.9v-5.48h7.35v-9.67l6.37-1.5v11.17h11.25v5.48H644.62v22c0,3.68,1.58,5.18,5.1,5.18a46.61,46.61,0,0,0,6.53-.68v5.48A27.51,27.51,0,0,1,648.67,705.53Z"/><path d="M663.15,658.35v-7.5h7.42v7.5ZM663.6,705v-38h6.52v38Z"/><path d="M707.32,701.7c-2.93,3-7.43,4.28-12.38,4.28-4.72,0-9.07-1.13-12.29-4.28A12.24,12.24,0,0,1,679,693h6.38a7.38,7.38,0,0,0,3.07,5.93c1.73,1.27,4.43,1.72,6.83,1.72,2.62,0,5-.45,7-2.1a5.37,5.37,0,0,0,1.87-4.12c0-2.85-2-4.88-5.92-5.4-1.65-.23-5.92-.75-8.55-1.13-5.7-.9-9.3-4.42-9.3-10.2a10.92,10.92,0,0,1,3.15-7.42,15.47,15.47,0,0,1,11.18-4.2c5,0,9.52,1.57,12.07,4.8a10.83,10.83,0,0,1,2.7,7.27H703a6.83,6.83,0,0,0-2.17-4.72,8.9,8.9,0,0,0-6.22-2,9.84,9.84,0,0,0-4.43.75,5.69,5.69,0,0,0-3.82,5.1c0,3.15,2,4.5,5.1,5,2.09.3,5.09.6,9.14,1.28,5.4.9,9.68,4.8,9.68,10.5A10.79,10.79,0,0,1,707.32,701.7Z"/><path d="M731.47,705.53c-8.18,0-10.43-5.18-10.43-10.28V672.53H713.7v-5.48H721v-9.67l6.38-1.5v11.17h11.25v5.48H727.42v22c0,3.68,1.57,5.18,5.1,5.18A46.38,46.38,0,0,0,739,699v5.48A27.43,27.43,0,0,1,731.47,705.53Z"/><path d="M745.94,658.35v-7.5h7.43v7.5Zm.45,46.65v-38h6.53v38Z"/><path d="M790,701.85A15,15,0,0,1,779.09,706a15.86,15.86,0,0,1-13.87-7.13c-2-3-3.15-7.12-3.15-12.82s1.12-9.83,3.15-12.83a15.74,15.74,0,0,1,13.8-7.12,15.1,15.1,0,0,1,10.8,4,14.53,14.53,0,0,1,4.5,9.75h-6.45a9.57,9.57,0,0,0-2.7-5.93,8.91,8.91,0,0,0-6.15-2.32,9.59,9.59,0,0,0-6.6,2.47c-3,2.55-3.83,7.28-3.83,11.93s.83,9.37,3.83,11.92a9.55,9.55,0,0,0,6.6,2.48,8.9,8.9,0,0,0,6.45-2.55,9.39,9.39,0,0,0,2.55-5.63h6.45A14.27,14.27,0,0,1,790,701.85Z"/><path d="M830.62,705.53c-3.38,0-5.48-2.55-5.48-5.78H825c-2.17,3.83-6.9,6.23-12.22,6.23-8.7,0-13-5.85-13-11.7,0-4.88,3.15-11.25,13.5-11.85l11.55-.68V679c0-1.88-.23-4.2-1.95-5.78-1.28-1.2-3.15-2-6.23-2-3.45,0-5.62,1-6.9,2.25a6.22,6.22,0,0,0-1.87,4.58h-6.23a11.25,11.25,0,0,1,3.3-8c2.55-2.7,7.05-4,11.7-4,7.35,0,11.55,3.15,13.35,7.27a14.57,14.57,0,0,1,1.13,5.85v18.38c0,2,.82,2.55,2.1,2.55a9.13,9.13,0,0,0,1.65-.23v4.73A8.9,8.9,0,0,1,830.62,705.53Zm-5.85-18.83-10.2.6c-3.83.23-8.33,2-8.33,6.83,0,3.37,2.1,6.52,7.5,6.52a10.67,10.67,0,0,0,7.8-3.07,12.27,12.27,0,0,0,3.23-8.63Z"/><path d="M850.79,705.45c-5.55,0-7.95-3.3-7.95-9.3v-45.3h6.38v44.93c0,2.55.82,3.9,3.45,3.9a22.87,22.87,0,0,0,2.62-.08V705A16.6,16.6,0,0,1,850.79,705.45Z"/><path d="M870.74,705.45c-5.55,0-8-3.3-8-9.3v-45.3h6.38v44.93c0,2.55.82,3.9,3.45,3.9a22.87,22.87,0,0,0,2.62-.08V705A16.6,16.6,0,0,1,870.74,705.45Z"/><path d="M895.49,712.8c-1.8,4.87-4.57,8.1-10.27,8.1a20.85,20.85,0,0,1-5.78-.75V714.6a17.69,17.69,0,0,0,4.5.6c2.7,0,4.65-1,5.7-3.82L892,705l-15.15-38h7.2L895.27,697l10.65-29.93h6.67Z"/><path d="M941,658V675.3h24.75v6.3H941V705h-6.67V651.83h34.42V658Z"/><path d="M992.91,673a10.43,10.43,0,0,0-7.2,3c-3.07,2.92-3.45,8.17-3.45,12.15V705H976v-38h5.63l.52,6.68c1.95-4.65,6.53-6.9,11.33-6.9a20.29,20.29,0,0,1,3,.22v6.23A18.3,18.3,0,0,0,992.91,673Z"/><path d="M1028.31,701.55a17.08,17.08,0,0,1-22.95,0c-4.12-4-5.4-9.52-5.4-15.52s1.28-11.48,5.4-15.53a17.11,17.11,0,0,1,22.95,0c4.13,4,5.4,9.53,5.4,15.53S1032.44,697.5,1028.31,701.55Zm-4.65-27.3a10,10,0,0,0-13.65,0c-2.7,2.78-3.52,7.35-3.52,11.78s.82,9,3.52,11.77a10,10,0,0,0,13.65,0c2.7-2.77,3.53-7.35,3.53-11.77S1026.36,677,1023.66,674.25Z"/><path d="M1089,705V680.85c0-5.32-1.73-9-7.73-9a7.7,7.7,0,0,0-5.77,2.55c-2.55,2.63-3.23,6.45-3.23,10.43V705h-6.37V680.85c0-5.32-1.58-9-7.65-9a8,8,0,0,0-6.45,3.38c-1.88,2.4-2.55,6.45-2.55,9.6V705h-6.38v-38h5.55l.6,5.4a11.56,11.56,0,0,1,10.65-6.37c5.63,0,9.68,2.55,11.33,7.2,2-4.73,6.9-7.2,11.7-7.2,8.62,0,12.67,5.55,12.67,13.95v25Z"/><path d="M1122.74,705V651.83h6.82V705Z"/><path d="M1159.11,673a10.43,10.43,0,0,0-7.2,3c-3.07,2.92-3.45,8.17-3.45,12.15V705h-6.3v-38h5.63l.52,6.68c2-4.65,6.53-6.9,11.33-6.9a20.29,20.29,0,0,1,3,.22v6.23A18.3,18.3,0,0,0,1159.11,673Z"/><path d="M1196.68,705.53c-3.37,0-5.47-2.55-5.47-5.78h-.15c-2.18,3.83-6.9,6.23-12.23,6.23-8.69,0-13-5.85-13-11.7,0-4.88,3.15-11.25,13.49-11.85l11.55-.68V679c0-1.88-.22-4.2-1.95-5.78-1.27-1.2-3.15-2-6.22-2-3.45,0-5.63,1-6.9,2.25a6.22,6.22,0,0,0-1.88,4.58h-6.22a11.25,11.25,0,0,1,3.3-8c2.55-2.7,7-4,11.7-4,7.35,0,11.55,3.15,13.35,7.27a14.57,14.57,0,0,1,1.12,5.85v18.38c0,2,.83,2.55,2.1,2.55a9,9,0,0,0,1.65-.23v4.73A8.87,8.87,0,0,1,1196.68,705.53Zm-5.85-18.83-10.2.6c-3.82.23-8.32,2-8.32,6.83,0,3.37,2.1,6.52,7.5,6.52a10.7,10.7,0,0,0,7.8-3.07,12.26,12.26,0,0,0,3.22-8.63Z"/><path d="M1233.43,705V680.93c0-5.7-2.32-9.08-8.32-9.08-3.68,0-6.6,2.4-8.25,5.85-1.28,2.78-1.35,6.75-1.35,9.68V705h-6.38v-38h5.55l.53,5.7c2-4.35,7.2-6.67,11.47-6.67,8.63,0,13.13,5.17,13.13,13.95v25Z"/><path d="M560.25,765V727.77h24.89v4.31H564.92v11.34h17.75v4.41H564.92v12.86h20.22V765Z"/><path d="M614.85,762c-2.57,2.53-6.56,3.73-10.55,3.73-4.52,0-8.14-1.26-10.66-3.57a12.34,12.34,0,0,1-4-8.92h4.88a8.48,8.48,0,0,0,2.63,5.88c1.68,1.62,4.51,2.31,7.14,2.31,2.83,0,5.25-.58,6.93-2.16a5.49,5.49,0,0,0,1.89-4.35c0-2.89-1.84-5.31-6.25-6L601,748c-5.57-.84-9.92-3.94-9.92-9.87a10.27,10.27,0,0,1,3.25-7.35,13.81,13.81,0,0,1,9.77-3.68,14,14,0,0,1,9.66,3.57,11.19,11.19,0,0,1,3.57,8h-4.88A7.79,7.79,0,0,0,610.6,734a9.73,9.73,0,0,0-13.18,0,5.88,5.88,0,0,0-1.52,4c0,3.36,2.78,4.89,5.56,5.25,2.1.27,4.15.63,6.2,1,6.19.89,10.34,4.67,10.34,10.55A9.67,9.67,0,0,1,614.85,762Z"/><path d="M636.58,732.13V765h-4.72V732.13H620.78v-4.36h26.88v4.36Z"/><path d="M663.15,765v-3.83L677.9,743a8.1,8.1,0,0,0,2-5.25c0-3.73-2.16-5.88-6-5.88-3.25,0-6.19,1.78-6.19,6.61H663.1c0-6.35,4.3-10.66,10.76-10.66a10.59,10.59,0,0,1,8.93,4.2,9.45,9.45,0,0,1,1.68,5.67,12,12,0,0,1-3.1,7.78L669,760.8H685V765Z"/><path d="M710.82,762.58a11.55,11.55,0,0,1-15.75,0c-3.68-3.72-4.31-8.82-4.31-15.85s.63-12.18,4.31-15.91a11.69,11.69,0,0,1,15.75,0c3.68,3.73,4.31,8.87,4.31,15.91S714.5,758.86,710.82,762.58Zm-3.36-29a6.91,6.91,0,0,0-9,0c-3.1,2.94-3,8.24-3,13.18s-.11,10.24,3,13.18a6.91,6.91,0,0,0,9,0c3.1-2.94,3-8.25,3-13.18S710.56,736.49,707.46,733.55Z"/><path d="M731.87,765V733.6L723.21,740v-5l8.92-6.46h4.31V765Z"/><path d="M769.15,762.38c-1.95,2-4.73,3.3-8.82,3.3a11.45,11.45,0,0,1-8.35-3.3,10.9,10.9,0,0,1-3.1-7.83h4.57a7.57,7.57,0,0,0,1.89,5,6.39,6.39,0,0,0,5,2,6.8,6.8,0,0,0,5.3-2.1,6.7,6.7,0,0,0,1.73-4.62c0-4.46-3-6.77-7.51-6.77h-2.2V744h2.2c4.2,0,6.72-2.31,6.72-6.15a5.67,5.67,0,0,0-1.73-4.25,6.14,6.14,0,0,0-4.46-1.78,6.63,6.63,0,0,0-4.46,1.47,6.53,6.53,0,0,0-2.21,5.14h-4.57a10.08,10.08,0,0,1,3.52-8,12,12,0,0,1,7.82-2.63,11.31,11.31,0,0,1,7.77,2.94,9.18,9.18,0,0,1,2.94,7.14,9.44,9.44,0,0,1-5.35,8.25,9.32,9.32,0,0,1,6.09,8.92A10.7,10.7,0,0,1,769.15,762.38Z"/></g></svg>