<svg xmlns="http://www.w3.org/2000/svg" xmlns:xlink="http://www.w3.org/1999/xlink" viewBox="0 0 1920 1080"><defs><style>.cls-1{fill:#d5d7d7;}.cls-16,.cls-17,.cls-2,.cls-3{fill:none;stroke-miterlimit:10;}.cls-2,.cls-3{stroke:#b5b9ba;}.cls-2{stroke-width:10px;}.cls-3{stroke-width:10px;}.cls-4{font-size:50px;fill:#b5b9ba;font-family:Approach-Regular, Approach;letter-spacing:-0.01em;}.cls-5{letter-spacing:0.01em;}.cls-6{letter-spacing:-0.02em;}.cls-7{letter-spacing:-0.03em;}.cls-8{letter-spacing:-0.05em;}.cls-9{letter-spacing:-0.04em;}.cls-10{letter-spacing:-0.03em;}.cls-11{letter-spacing:-0.03em;}.cls-12{letter-spacing:-0.03em;}.cls-13{font-size:35px;letter-spacing:-0.01em;}.cls-14{letter-spacing:-0.02em;}.cls-15{letter-spacing:-0.04em;}.cls-16{stroke:url(#linear-gradient);}.cls-17{stroke:#777d7e;stroke-width:1.25px;stroke-dasharray:15 5;}</style><linearGradient id="linear-gradient" x1="158.31" y1="185" x2="1303.16" y2="185" gradientUnits="userSpaceOnUse"><stop offset="0" stop-color="#fff" stop-opacity="0"/><stop offset="0.5" stop-color="#777d7e"/><stop offset="1" stop-color="#969b9c" stop-opacity="0"/></linearGradient></defs><g id="Graphics"><path class="cls-1" d="M0,0V1080H1920V0ZM1640,1015H280V65H1640Z"/><line class="cls-2" x1="705" y1="310" x2="705" y2="190"/><line class="cls-2" x1="705" y1="240" x2="740" y2="240"/><line class="cls-2" x1="705" y1="240" x2="731.85" y2="213.15"/><line class="cls-2" x1="702.19" y1="275" x2="685" y2="275"/><path class="cls-2" d="M710,260a15,15,0,0,1,0,30"/><path class="cls-2" d="M720,205a15,15,0,0,0-30,0"/><path class="cls-2" d="M815,645a64.84,64.84,0,0,1,64.84-64.84h0A64.84,64.84,0,0,1,944.68,645"/><line class="cls-2" x1="875" y1="350" x2="765" y2="460"/><path class="cls-2" d="M790,360l-55,55v25H705V310h95a90,90,0,0,1,90,90v30h175a90,90,0,0,1,90,90V650H765V385"/><polyline class="cls-2" points="1155 620 1060 620 1060 430"/><path class="cls-2" d="M890,430h130a0,0,0,0,1,0,0v65a65,65,0,0,1-65,65h0a65,65,0,0,1-65-65V430A0,0,0,0,1,890,430Z"/><polyline class="cls-2" points="740 310 740 345 705 345"/><path class="cls-2" d="M765,715v45a50,50,0,0,0,50,50h0a50,50,0,0,0,50-50V715"/><polyline class="cls-2" points="928.53 813.53 965 777.07 965 745"/><line class="cls-2" x1="815" y1="715" x2="815" y2="735"/><line class="cls-2" x1="965" y1="735" x2="965" y2="715"/><line class="cls-2" x1="865" y1="825" x2="865" y2="845"/><line class="cls-2" x1="885" y1="845" x2="885" y2="825"/><polyline class="cls-2" points="885 715 885 737.07 865 757.07"/><polyline class="cls-2" points="905 715 905 747.07 865 787.07"/><polyline class="cls-2" points="865 715 865 810 872.07 810 925 757.07 925 715"/><polyline class="cls-3" points="530 505 571.13 505 533.87 565 575 565"/><polyline class="cls-3" points="635 565 595 565 595 505 635 505"/><line class="cls-3" x1="635" y1="535" x2="595" y2="535"/><polyline class="cls-3" points="695 565 655 565 655 505 695 505"/><line class="cls-3" x1="695" y1="535" x2="655" y2="535"/><polyline class="cls-3" points="635 650 595 650 595 590 635 590"/><line class="cls-3" x1="635" y1="620" x2="595" y2="620"/><polyline class="cls-3" points="695 585 695 650 692.85 650 657.15 590 655 590 655 655"/><text class="cls-4" transform="translate(1015 775)">A<tspan class="cls-5" x="33" y="0">r</tspan><tspan x="51.59" y="0">ti</tspan><tspan class="cls-6" x="80.01" y="0">s</tspan><tspan x="103.5" y="0">ticall</tspan><tspan class="cls-7" x="206.68" y="0">y</tspan><tspan x="231.11" y="0"> </tspan><tspan class="cls-8" x="242.03" y="0">F</tspan><tspan class="cls-9" x="270.28" y="0">r</tspan><tspan class="cls-10" x="286.51" y="0">om </tspan><tspan class="cls-11" x="366.57" y="0">I</tspan><tspan class="cls-12" x="378.77" y="0">r</tspan><tspan class="cls-10" x="395.17" y="0">an</tspan><tspan class="cls-13"><tspan x="0" y="40">E</tspan><tspan class="cls-14" x="21.34" y="40">S</tspan><tspan class="cls-15" x="41.97" y="40">T</tspan><tspan x="60.49" y="40" xml:space="preserve"> 2013</tspan></tspan></text><line class="cls-16" x1="158.31" y1="185" x2="1303.16" y2="185"/></g><g id="Guides"><path class="cls-17" d="M895,185v60a60,60,0,0,0,120,0V185Z"/><path class="cls-17" d="M895,305v60a60,60,0,0,0,120,0V305Z"/><path class="cls-17" d="M895,65v60a60,60,0,0,0,120,0V65Z"/><path class="cls-17" d="M640,435v60a60,60,0,0,0,120,0V435Z"/><path class="cls-17" d="M400,435v60a60,60,0,0,0,120,0V435Z"/><path class="cls-17" d="M280,435v60a60,60,0,0,0,120,0V435Z"/><path class="cls-17" d="M520,435v60a60,60,0,0,0,120,0V435Z"/><path class="cls-17" d="M1160,535.7v60a60,60,0,0,0,120,0v-60Z"/><path class="cls-17" d="M1280,535.7v60a60,60,0,0,0,120,0v-60Z"/><path class="cls-17" d="M1400,535.7v60a60,60,0,0,0,120,0v-60Z"/><path class="cls-17" d="M1520,535.7v60a60,60,0,0,0,120,0v-60Z"/><path class="cls-17" d="M895,775v60a60,60,0,0,0,120,0V775Z"/><path class="cls-17" d="M895,895v60a60,60,0,0,0,120,0V895Z"/><path class="cls-17" d="M895,655v60a60,60,0,0,0,120,0V655Z"/><path class="cls-17" d="M895,435v60a60,60,0,0,0,120,0V435Z"/></g></svg>