<svg xmlns="http://www.w3.org/2000/svg" viewBox="0 0 1920 1080"><g id="Graphics"><path d="M691.4,580.87c-2.29,11-7.24,37.7-10.48,49.13H529.72l-2.47-4.38c40.37-55.22,80.36-109.12,120.92-165.86h-49.7c-31.42,0-35.8,2.66-40.75,10.28-3.43,4.95-6.67,12.38-10.1,24.95l-8.57-.39c1.53-18.85,3.05-40.18,3.43-52.74h6.86c3.62,6.66,6.66,7,15.23,7H682.26l2.28,4.19c-40,54.65-79.41,108.36-118.83,164.72,9.53,1.15,26.47,1.72,45.9,1.72,34.66,0,47-2.1,55.41-10.67,5.72-6.09,10.48-14.85,16-29.7Z"/><path d="M852.69,584.87c-1.9,10.47-7.42,36.18-9.9,45.13H703v-8c25.71-1.9,28.19-4.57,28.19-27.42V485.46c0-25.51-2.48-26.28-24.57-28.18V448.9H835.74c.38,7.24,1.53,25.71,2.67,41.32l-8.76,1.15c-2.67-11.62-5.71-18.09-9.33-24.19-4.19-6.09-12-8-31.61-8H767.57c-9.33,0-9.9.77-9.9,9.15v62.46h26.09c25.51,0,27.42-2.29,31-21.14h8.57V564.3H814.8c-4-20.37-6.1-21.9-31-21.9H757.67v51.23c0,13.14,1.52,19.42,6.85,22.85,5.53,3.24,16.19,3.24,29.14,3.24,20.76,0,29.33-1.91,35.8-9.14,4.95-5.91,10.28-15.62,14.47-26.85Z"/><path d="M1016.27,584.87c-1.9,10.47-7.43,36.18-9.9,45.13H866.59v-8c25.71-1.9,28.19-4.57,28.19-27.42V485.46c0-25.51-2.48-26.28-24.57-28.18V448.9H999.32c.38,7.24,1.53,25.71,2.67,41.32l-8.76,1.15c-2.67-11.62-5.71-18.09-9.33-24.19-4.19-6.09-12-8-31.61-8H931.15c-9.33,0-9.9.77-9.9,9.15v62.46h26.09c25.51,0,27.42-2.29,31-21.14H987V564.3h-8.57c-4-20.37-6.1-21.9-31-21.9H921.25v51.23c0,13.14,1.52,19.42,6.85,22.85,5.52,3.24,16.19,3.24,29.14,3.24,20.76,0,29.32-1.91,35.8-9.14,5-5.91,10.28-15.62,14.47-26.85Z"/><path d="M1179.85,584.87c-1.9,10.47-7.43,36.18-9.9,45.13H1030.17v-8c25.71-1.9,28.19-4.57,28.19-27.42V485.46c0-25.51-2.48-26.28-24.57-28.18V448.9H1162.9c.38,7.24,1.53,25.71,2.67,41.32l-8.76,1.15c-2.67-11.62-5.71-18.09-9.33-24.19-4.19-6.09-12-8-31.61-8h-21.14c-9.33,0-9.9.77-9.9,9.15v62.46h26.09c25.51,0,27.42-2.29,31-21.14h8.56V564.3H1142c-4-20.37-6.1-21.9-31-21.9h-26.09v51.23c0,13.14,1.52,19.42,6.85,22.85,5.52,3.24,16.19,3.24,29.14,3.24,20.75,0,29.32-1.91,35.8-9.14,5-5.91,10.28-15.62,14.47-26.85Z"/><path d="M1394.46,457.28c-15.8.76-22.66,4-24,16.76-1,8.95-1.71,21.52-1.71,47.42v111.4h-9.14L1234.5,487.75h-.38l-.19,68c0,25.71,1.15,38.85,1.91,46.85,1.33,14.47,7.8,17.9,27.42,19.42v8h-68.18v-8c16.38-1.14,23.62-4.76,25-18.66,1.14-8.76,2.29-21.9,2.29-47.61V495.94c0-20.38-1-21.9-6.1-28.57-5.9-6.85-12-9.14-25.32-10.09V448.9h43.79L1356,586.39h.76V521.46c0-25.9-1.14-38.47-1.9-46.47-1.34-13.14-8-16.76-28.38-17.71V448.9h68Z"/></g></svg>