<svg xmlns="http://www.w3.org/2000/svg" viewBox="0 0 1920 1080"><defs><style>.cls-1{fill:#082b96;}.cls-2{fill:#061f6b;}.cls-3{fill:#fff;}</style></defs><g id="Background"><rect class="cls-1" width="1920" height="1080"/></g><g id="Graphics"><rect class="cls-2" x="399.13" y="65" width="1121.73" height="950"/><rect class="cls-3" x="700" y="190" width="10" height="120"/><rect class="cls-3" x="705" y="235" width="35" height="10"/><rect class="cls-3" x="699.44" y="221.58" width="37.97" height="10" transform="translate(50.2 574.35) rotate(-45)"/><rect class="cls-3" x="685" y="270" width="17.19" height="10"/><path class="cls-3" d="M710,295V285a10,10,0,0,0,0-20V255a20,20,0,0,1,0,40Z"/><path class="cls-3" d="M725,205H715a10,10,0,0,0-20,0H685a20,20,0,0,1,40,0Z"/><path class="cls-3" d="M949.68,645h-10A59.84,59.84,0,1,0,820,645H810a69.84,69.84,0,1,1,139.68,0Z"/><rect class="cls-3" x="742.22" y="400" width="155.56" height="10" transform="translate(-46.21 698.43) rotate(-45)"/><path class="cls-3" d="M1160,655H760V397.07l-20,20V445H700V305H800a95.11,95.11,0,0,1,95,95v25h170a95.11,95.11,0,0,1,95,95ZM770,645h380V520a85.1,85.1,0,0,0-85-85H885V400a85.1,85.1,0,0,0-85-85H710V435h20V412.93l56.46-56.47,7.08,7.08L770,387.07Z"/><polygon class="cls-3" points="1155 625 1055 625 1055 430 1065 430 1065 615 1155 615 1155 625"/><path class="cls-3" d="M955,565a70.08,70.08,0,0,1-70-70V425h140v70A70.08,70.08,0,0,1,955,565ZM895,435v60a60.07,60.07,0,0,0,60,60h0a60.07,60.07,0,0,0,60-60V435Z"/><polygon class="cls-3" points="745 350 705 350 705 340 735 340 735 310 745 310 745 350"/><path class="cls-3" d="M815,815a55.06,55.06,0,0,1-55-55V715h10v45a45,45,0,0,0,90,0V715h10v45A55.06,55.06,0,0,1,815,815Z"/><polygon class="cls-3" points="932.07 817.07 925 810 960 775 960 745 970 745 970 779.14 932.07 817.07"/><rect class="cls-3" x="810" y="715" width="10" height="20"/><rect class="cls-3" x="960" y="715" width="10" height="20"/><rect class="cls-3" x="860" y="825" width="10" height="20"/><rect class="cls-3" x="880" y="825" width="10" height="20"/><polygon class="cls-3" points="868.54 760.61 861.46 753.53 880 735 880 715 890 715 890 739.14 868.54 760.61"/><polygon class="cls-3" points="868.54 790.61 861.46 783.53 900 745 900 715 910 715 910 749.14 868.54 790.61"/><polygon class="cls-3" points="874.14 815 860 815 860 715 870 715 870 805 920 755 920 715 930 715 930 759.14 874.14 815"/><polygon class="cls-3" points="575 570 524.88 570 562.14 510 530 510 530 500 580.12 500 542.86 560 575 560 575 570"/><polygon class="cls-3" points="635 570 590 570 590 500 635 500 635 510 600 510 600 560 635 560 635 570"/><rect class="cls-3" x="595" y="530" width="40" height="10"/><polygon class="cls-3" points="695 570 650 570 650 500 695 500 695 510 660 510 660 560 695 560 695 570"/><rect class="cls-3" x="655" y="530" width="40" height="10"/><polygon class="cls-3" points="635 655 590 655 590 585 635 585 635 595 600 595 600 645 635 645 635 655"/><rect class="cls-3" x="595" y="615" width="40" height="10"/><polygon class="cls-3" points="700 655 690.01 655 660 604.56 660 655 650 655 650 585 660 585 690 635.43 690 585 700 585 700 655"/><path class="cls-3" d="M1039.19,766.4H1024l-3.27,8.6h-4.88l13.55-35h4.83l13.4,35h-5.25Zm-13.69-4h12.21l-6-16.31Z"/><path class="cls-3" d="M1056.15,775h-4.44V750h4.34v4.54c1.63-3,4-4.54,7.16-4.54h1.92v4.2h-2a5.92,5.92,0,0,0-5.11,2.74,12.87,12.87,0,0,0-1.9,7.41Z"/><path class="cls-3" d="M1067.44,753.66V750h4.4v-8.06h4.44V750h6.3v3.66h-6.3v14a4.15,4.15,0,0,0,.7,2.76,3.09,3.09,0,0,0,2.4.78h3.81V775h-4.49a7,7,0,0,1-5.11-1.73,6.68,6.68,0,0,1-1.75-5v-14.6Z"/><path class="cls-3" d="M1091.82,745.94h-4.44v-6h4.44Zm0,29.06h-4.44V750h4.44Z"/><path class="cls-3" d="M1107.6,775.61a12.17,12.17,0,0,1-7.71-2.23,8,8,0,0,1-3.13-6l4.45-.65a6.09,6.09,0,0,0,1.89,4.07,6.75,6.75,0,0,0,4.5,1.32,6.3,6.3,0,0,0,4-1.07,3.83,3.83,0,0,0,1.35-3.18q0-3-4.39-3.59l-3.59-.56a9.9,9.9,0,0,1-5.48-2.37,6.17,6.17,0,0,1-1.89-4.68,6.35,6.35,0,0,1,2.56-5.23,12.67,12.67,0,0,1,13.68,0,8.66,8.66,0,0,1,3.16,5.72l-4.1.59a6.41,6.41,0,0,0-2-3.68,6.22,6.22,0,0,0-3.94-1.11,6.15,6.15,0,0,0-3.69,1,3.18,3.18,0,0,0-.43,4.82,5.73,5.73,0,0,0,3,1.14l4,.66q7.59,1.23,7.59,7.16a7.15,7.15,0,0,1-2.61,5.8A10.86,10.86,0,0,1,1107.6,775.61Z"/><path class="cls-3" d="M1119.36,753.66V750h4.39v-8.06h4.45V750h6.3v3.66h-6.3v14a4.21,4.21,0,0,0,.69,2.76,3.13,3.13,0,0,0,2.41.78h3.81V775h-4.5a7,7,0,0,1-5.1-1.73,6.69,6.69,0,0,1-1.76-5v-14.6Z"/><path class="cls-3" d="M1143.74,745.94h-4.45v-6h4.45Zm0,29.06h-4.45V750h4.45Z"/><path class="cls-3" d="M1160.82,771.8a6.39,6.39,0,0,0,4.51-1.58,6.89,6.89,0,0,0,2.05-4.43l4.35.51a10,10,0,0,1-3.46,6.78,12.32,12.32,0,0,1-16.1-1q-3.15-3.51-3.15-9.5t3.2-9.59a11,11,0,0,1,8.6-3.61,11.42,11.42,0,0,1,7.56,2.4,10.34,10.34,0,0,1,3.5,6.8l-4.55.51q-.9-5.91-6.56-5.91a6.27,6.27,0,0,0-5.28,2.47,11.24,11.24,0,0,0-1.88,6.93,10.74,10.74,0,0,0,1.9,6.78A6.34,6.34,0,0,0,1160.82,771.8Z"/><path class="cls-3" d="M1197.62,771.29h1.2V775h-2.42a5.59,5.59,0,0,1-3.3-.94,3.52,3.52,0,0,1-1.49-2.6,8.75,8.75,0,0,1-7.91,4.15,9.35,9.35,0,0,1-6.29-2,6.58,6.58,0,0,1-2.4-5.26,7,7,0,0,1,2-5.12,9.92,9.92,0,0,1,5.59-2.6l7.3-1.24a1.69,1.69,0,0,0,1.56-1.81,4.2,4.2,0,0,0-1.47-3.31,5.88,5.88,0,0,0-4-1.28,6.47,6.47,0,0,0-4,1.14,5.94,5.94,0,0,0-2.05,3.5l-4.22-.49a8.55,8.55,0,0,1,3.4-5.59,11.4,11.4,0,0,1,7.07-2.12,10,10,0,0,1,7.07,2.39,8.26,8.26,0,0,1,2.57,6.37v11.26a2,2,0,0,0,.42,1.46A2,2,0,0,0,1197.62,771.29Zm-18.21-3.3a3.69,3.69,0,0,0,1.27,3,5.33,5.33,0,0,0,3.54,1.07,6.68,6.68,0,0,0,5.21-2.28,8.48,8.48,0,0,0,2-5.87v-1.44l-8,1.39a5.2,5.2,0,0,0-3,1.39A3.82,3.82,0,0,0,1179.41,768Z"/><path class="cls-3" d="M1207.15,775h-4.44V740h4.44Z"/><path class="cls-3" d="M1218.5,775h-4.45V740h4.45Z"/><path class="cls-3" d="M1231.59,777.34l.83-2.2L1222.59,750h4.68l7.4,19.65,7.47-19.65h4.49l-10.91,27.8a10.82,10.82,0,0,1-3.39,5.06,8.5,8.5,0,0,1-5.16,1.39h-2.58v-3.76h2.58a4.11,4.11,0,0,0,4.42-3.15Z"/><path class="cls-3" d="M1266.29,775h-4.81V740H1286v4.1h-19.75v11.4H1284v4.1h-17.75Z"/><path class="cls-3" d="M1293.43,775H1289V750h4.34v4.54q2.45-4.54,7.16-4.54h1.93v4.2h-2a5.9,5.9,0,0,0-5.1,2.74,12.79,12.79,0,0,0-1.91,7.41Z"/><path class="cls-3" d="M1303.61,762.5a13.52,13.52,0,0,1,3.29-9.5,11.46,11.46,0,0,1,8.86-3.61,11.61,11.61,0,0,1,8.89,3.61,13.32,13.32,0,0,1,3.35,9.5,13.47,13.47,0,0,1-3.35,9.49,11.62,11.62,0,0,1-8.89,3.62,11.47,11.47,0,0,1-8.86-3.62A13.5,13.5,0,0,1,1303.61,762.5Zm17.79,6.84a12.4,12.4,0,0,0,0-13.69,6.87,6.87,0,0,0-5.64-2.5,6.8,6.8,0,0,0-5.59,2.5,12.67,12.67,0,0,0,0,13.71,6.8,6.8,0,0,0,5.6,2.49A6.88,6.88,0,0,0,1321.4,769.34Z"/><path class="cls-3" d="M1353.09,761.2V775h-4.44V759.59a7,7,0,0,0-1.43-4.69,5,5,0,0,0-4-1.66,5.56,5.56,0,0,0-4.65,2,9.4,9.4,0,0,0-1.6,5.92V775h-4.44V750h4.34v3a8.41,8.41,0,0,1,7.35-3.66,9.38,9.38,0,0,1,4.78,1.16,7.49,7.49,0,0,1,3.06,3.35q2.46-4.51,8.06-4.51a8.9,8.9,0,0,1,6.72,2.52,9.52,9.52,0,0,1,2.43,6.88V775h-4.44V759.59a6.94,6.94,0,0,0-1.44-4.69,5.08,5.08,0,0,0-4-1.66,5.54,5.54,0,0,0-4.65,2A9.4,9.4,0,0,0,1353.09,761.2Z"/><path class="cls-3" d="M1390.82,775H1386V740h4.81Z"/><path class="cls-3" d="M1401.93,775h-4.45V750h4.35v4.54q2.45-4.54,7.15-4.54h1.93v4.2h-2a5.91,5.91,0,0,0-5.1,2.74,12.79,12.79,0,0,0-1.9,7.41Z"/><path class="cls-3" d="M1434.73,771.29h1.2V775h-2.42a5.58,5.58,0,0,1-3.29-.94,3.49,3.49,0,0,1-1.49-2.6,8.77,8.77,0,0,1-7.91,4.15,9.36,9.36,0,0,1-6.3-2,6.57,6.57,0,0,1-2.39-5.26,7,7,0,0,1,1.95-5.12,10,10,0,0,1,5.59-2.6l7.3-1.24a1.69,1.69,0,0,0,1.56-1.81,4.19,4.19,0,0,0-1.46-3.31,5.9,5.9,0,0,0-4-1.28,6.44,6.44,0,0,0-4,1.14,5.85,5.85,0,0,0-2,3.5l-4.23-.49a8.56,8.56,0,0,1,3.41-5.59,11.38,11.38,0,0,1,7.07-2.12,9.93,9.93,0,0,1,7.06,2.39,8.27,8.27,0,0,1,2.58,6.37v11.26a2.07,2.07,0,0,0,.41,1.46A2,2,0,0,0,1434.73,771.29Zm-18.21-3.3a3.69,3.69,0,0,0,1.27,3,5.36,5.36,0,0,0,3.54,1.07,6.67,6.67,0,0,0,5.21-2.28,8.48,8.48,0,0,0,2-5.87v-1.44l-8,1.39a5.17,5.17,0,0,0-3,1.39A3.83,3.83,0,0,0,1416.52,768Z"/><path class="cls-3" d="M1460.56,758.79V775h-4.44V759.59a6.67,6.67,0,0,0-1.53-4.7,5.68,5.68,0,0,0-4.38-1.65,6.16,6.16,0,0,0-5,2,9,9,0,0,0-1.71,5.93V775h-4.44V750h4.34v3.15q2.57-3.76,7.79-3.76a9.21,9.21,0,0,1,6.86,2.52A9.39,9.39,0,0,1,1460.56,758.79Z"/><path class="cls-3" d="M1034.94,815h-16.83V790.49h16.49v2.87h-13.12v7.78h11.72v2.8h-11.72v8.18h13.46Z"/><path class="cls-3" d="M1047.57,815.42a10.74,10.74,0,0,1-7-2.13,7.41,7.41,0,0,1-2.66-5.85l3.29-.42a5.61,5.61,0,0,0,1.77,4.19,6.81,6.81,0,0,0,4.63,1.44,5.69,5.69,0,0,0,3.8-1.18,4,4,0,0,0,1.39-3.19,3.26,3.26,0,0,0-1-2.52,7.32,7.32,0,0,0-3.37-1.41l-3.26-.7a9.43,9.43,0,0,1-5-2.41,6.49,6.49,0,0,1,.67-9.2,8.78,8.78,0,0,1,5.95-2A9.44,9.44,0,0,1,1053,792a7.34,7.34,0,0,1,2.62,5.23l-3.31.41q-.58-4.76-5.47-4.75a5.61,5.61,0,0,0-3.63,1,3.49,3.49,0,0,0-1.29,2.86,3.44,3.44,0,0,0,.94,2.56,6,6,0,0,0,3,1.39l3.81.82a9.36,9.36,0,0,1,4.85,2.29,5.86,5.86,0,0,1,1.56,4.29,6.73,6.73,0,0,1-2.34,5.25A9.13,9.13,0,0,1,1047.57,815.42Z"/><path class="cls-3" d="M1057.64,790.49h18.61v2.87h-7.62V815h-3.33V793.36h-7.66Z"/><path class="cls-3" d="M1097.84,797a3.87,3.87,0,0,0-1.17-3,4.39,4.39,0,0,0-3.11-1.1,4.72,4.72,0,0,0-4,1.68,7.59,7.59,0,0,0-1.26,4.93l-3.21-.42a7.93,7.93,0,0,1,8.42-9.06,7.78,7.78,0,0,1,5.57,1.91,6.61,6.61,0,0,1,2.07,5,8.84,8.84,0,0,1-1.24,4.41,21.23,21.23,0,0,1-4,4.77l-6.54,6h12.45V815H1085v-2.88l8.81-8.08a15.4,15.4,0,0,0,3.09-3.6A7,7,0,0,0,1097.84,797Z"/><path class="cls-3" d="M1105.14,802.74c0-3.91.81-7,2.41-9.28a8.45,8.45,0,0,1,13.52,0c1.63,2.22,2.44,5.32,2.44,9.28s-.81,7-2.44,9.28a8.47,8.47,0,0,1-13.53.05Q1105.14,808.73,1105.14,802.74Zm13.51,7.31a18.23,18.23,0,0,0,0-14.6,4.91,4.91,0,0,0-8.66,0,14.32,14.32,0,0,0-1.54,7.24,14.53,14.53,0,0,0,1.51,7.32,4.76,4.76,0,0,0,4.33,2.56A4.81,4.81,0,0,0,1118.65,810.05Z"/><path class="cls-3" d="M1142.37,815h-15.19v-2.81h6V796.45a5.25,5.25,0,0,1-2.8.65h-3.28v-2.75h3.07a2.85,2.85,0,0,0,2.34-.93,4.53,4.53,0,0,0,.77-2.93h3.23v21.7h5.88Z"/><path class="cls-3" d="M1158.43,807.82a3.84,3.84,0,0,0-1.27-3.08,5.27,5.27,0,0,0-3.57-1.09h-2.2V801.1h2.1a4,4,0,0,0,3.07-1.16,4.59,4.59,0,0,0,1.08-3.25,3.55,3.55,0,0,0-1.18-2.82,4.81,4.81,0,0,0-3.23-1,5.08,5.08,0,0,0-3.69,1.35,5.31,5.31,0,0,0-1.48,3.76l-3-.67a6.74,6.74,0,0,1,2.38-5.21,8.83,8.83,0,0,1,5.91-2,8.31,8.31,0,0,1,5.58,1.75,5.86,5.86,0,0,1,2.06,4.69,6.47,6.47,0,0,1-.9,3.42,5.58,5.58,0,0,1-2.53,2.24,6.32,6.32,0,0,1,3.15,2.17,5.76,5.76,0,0,1,1.08,3.5,7.08,7.08,0,0,1-2.27,5.51,8.77,8.77,0,0,1-6.12,2.06,10.36,10.36,0,0,1-6.3-1.83,6.67,6.67,0,0,1-2.74-5l3.34-.74a5.06,5.06,0,0,0,1.64,3.56,5.85,5.85,0,0,0,3.94,1.24,5.36,5.36,0,0,0,3.81-1.28A4.57,4.57,0,0,0,1158.43,807.82Z"/></g></svg>