<svg xmlns="http://www.w3.org/2000/svg" viewBox="0 0 224.35 190"><g id="Graphics"><rect x="60.17" y="25" width="2" height="24"/><rect x="61.17" y="34" width="7" height="2"/><rect x="60.06" y="31.32" width="7.59" height="2" transform="translate(-4.15 54.61) rotate(-45)"/><rect x="57.17" y="41" width="3.44" height="2"/><path d="M62.17,46V44a2,2,0,0,0,0-4V38a4,4,0,0,1,0,8Z"/><path d="M65.17,28h-2a2,2,0,0,0-4,0h-2a4,4,0,0,1,8,0Z"/><path d="M110.11,116h-2a12,12,0,0,0-23.94,0h-2a14,14,0,0,1,27.94,0Z"/><rect x="68.62" y="67" width="31.11" height="2" transform="translate(-23.43 79.44) rotate(-45)"/><path d="M152.17,118h-80V66.41l-4,4V76h-8V48h20a19,19,0,0,1,19,19v5h34a19,19,0,0,1,19,19Zm-78-2h76V91a17,17,0,0,0-17-17h-36V67a17,17,0,0,0-17-17h-18V74h4V69.59l11.3-11.3,1.41,1.42-4.71,4.7Z"/><polygon points="151.17 112 131.17 112 131.17 73 133.17 73 133.17 110 151.17 110 151.17 112"/><path d="M111.17,100a14,14,0,0,1-14-14V72h28V86A14,14,0,0,1,111.17,100Zm-12-26V86a12,12,0,0,0,24,0V74Z"/><polygon points="69.17 57 61.17 57 61.17 55 67.17 55 67.17 49 69.17 49 69.17 57"/><path d="M83.17,150a11,11,0,0,1-11-11v-9h2v9a9,9,0,0,0,18,0v-9h2v9A11,11,0,0,1,83.17,150Z"/><polygon points="106.59 150.41 105.17 149 112.17 142 112.17 136 114.17 136 114.17 142.83 106.59 150.41"/><rect x="82.17" y="130" width="2" height="4"/><rect x="112.17" y="130" width="2" height="4"/><rect x="92.17" y="152" width="2" height="4"/><rect x="96.17" y="152" width="2" height="4"/><polygon points="93.88 139.12 92.47 137.71 96.17 134 96.17 130 98.17 130 98.17 134.83 93.88 139.12"/><polygon points="93.88 145.12 92.47 143.71 100.17 136 100.17 130 102.17 130 102.17 136.83 93.88 145.12"/><polygon points="95 150 92.17 150 92.17 130 94.17 130 94.17 148 104.17 138 104.17 130 106.17 130 106.17 138.83 95 150"/><polygon points="35.17 101 25.15 101 32.6 89 26.17 89 26.17 87 36.2 87 28.75 99 35.17 99 35.17 101"/><polygon points="47.17 101 38.17 101 38.17 87 47.17 87 47.17 89 40.17 89 40.17 99 47.17 99 47.17 101"/><rect x="39.17" y="93" width="8" height="2"/><polygon points="59.17 101 50.17 101 50.17 87 59.17 87 59.17 89 52.17 89 52.17 99 59.17 99 59.17 101"/><rect x="51.17" y="93" width="8" height="2"/><polygon points="47.17 118 38.17 118 38.17 104 47.17 104 47.17 106 40.17 106 40.17 116 47.17 116 47.17 118"/><rect x="39.17" y="110" width="8" height="2"/><polygon points="60.17 118 58.17 118 52.17 107.91 52.17 118 50.17 118 50.17 104 52.17 104 58.17 114.09 58.17 104 60.17 104 60.17 118"/><path d="M128,140.28h-3l-.66,1.72h-1l2.71-7h1l2.68,7h-1.05Zm-2.74-.8h2.44l-1.2-3.26Z"/><path d="M131.4,142h-.88v-5h.86v.91a1.55,1.55,0,0,1,1.43-.91h.39v.84h-.39a1.19,1.19,0,0,0-1,.55,2.57,2.57,0,0,0-.38,1.48Z"/><path d="M133.66,137.73V137h.88v-1.61h.89V137h1.26v.73h-1.26v2.8a.85.85,0,0,0,.14.55.59.59,0,0,0,.48.16h.76V142h-.9a1.42,1.42,0,0,1-1-.35,1.34,1.34,0,0,1-.35-1v-2.92Z"/><path d="M138.54,136.19h-.89V135h.89Zm0,5.81h-.89v-5h.89Z"/><path d="M141.69,142.12a2.49,2.49,0,0,1-1.54-.44,1.59,1.59,0,0,1-.62-1.21l.88-.13a1.24,1.24,0,0,0,.38.81,1.34,1.34,0,0,0,.9.27,1.2,1.2,0,0,0,.79-.22.75.75,0,0,0,.27-.63c0-.4-.29-.64-.88-.72l-.71-.11a2,2,0,0,1-1.1-.48,1.24,1.24,0,0,1-.38-.93,1.28,1.28,0,0,1,.51-1.05,2.57,2.57,0,0,1,2.74,0,1.75,1.75,0,0,1,.63,1.15l-.82.12a1.28,1.28,0,0,0-.4-.74,1.53,1.53,0,0,0-1.53,0,.62.62,0,0,0-.26.51.6.6,0,0,0,.18.46,1.21,1.21,0,0,0,.59.23l.8.13c1,.16,1.52.64,1.52,1.43a1.43,1.43,0,0,1-.52,1.16A2.16,2.16,0,0,1,141.69,142.12Z"/><path d="M144.05,137.73V137h.87v-1.61h.89V137h1.26v.73h-1.26v2.8a.85.85,0,0,0,.14.55.62.62,0,0,0,.48.16h.76V142h-.89a1.39,1.39,0,0,1-1-.35,1.3,1.3,0,0,1-.36-1v-2.92Z"/><path d="M148.92,136.19H148V135h.89Zm0,5.81H148v-5h.89Z"/><path d="M152.34,141.36a1.29,1.29,0,0,0,.9-.32,1.38,1.38,0,0,0,.41-.88l.87.1a2.06,2.06,0,0,1-.69,1.36,2.25,2.25,0,0,1-1.49.5,2.19,2.19,0,0,1-1.73-.7,3.19,3.19,0,0,1,0-3.82,2.19,2.19,0,0,1,1.72-.72,2.28,2.28,0,0,1,1.51.48,2.07,2.07,0,0,1,.7,1.36l-.91.1a1.22,1.22,0,0,0-1.31-1.18,1.24,1.24,0,0,0-1.06.49,2.25,2.25,0,0,0-.37,1.39,2.15,2.15,0,0,0,.37,1.35A1.28,1.28,0,0,0,152.34,141.36Z"/><path d="M159.7,141.26h.24V142h-.49a1.09,1.09,0,0,1-.66-.19.69.69,0,0,1-.29-.52,1.76,1.76,0,0,1-1.59.83,1.84,1.84,0,0,1-1.26-.41,1.33,1.33,0,0,1-.47-1.05,1.38,1.38,0,0,1,.39-1,1.93,1.93,0,0,1,1.12-.52l1.46-.25a.34.34,0,0,0,.31-.36.83.83,0,0,0-.3-.66,1.17,1.17,0,0,0-.8-.26,1.29,1.29,0,0,0-.8.23,1.14,1.14,0,0,0-.41.7l-.85-.1a1.74,1.74,0,0,1,.68-1.12,2.32,2.32,0,0,1,1.42-.42,2,2,0,0,1,1.41.48,1.65,1.65,0,0,1,.52,1.27v2.25a.37.37,0,0,0,.08.29A.39.39,0,0,0,159.7,141.26Zm-3.64-.66a.72.72,0,0,0,.25.59,1,1,0,0,0,.71.22,1.32,1.32,0,0,0,1-.46,1.69,1.69,0,0,0,.41-1.17v-.29l-1.6.28a1,1,0,0,0-.61.28A.73.73,0,0,0,156.06,140.6Z"/><path d="M161.6,142h-.88v-7h.88Z"/><path d="M163.87,142H163v-7h.89Z"/><path d="M166.49,142.47l.17-.44-2-5h.94l1.48,3.93L168.6,137h.9l-2.18,5.56a2.22,2.22,0,0,1-.68,1,1.68,1.68,0,0,1-1,.28h-.52v-.75h.52a1,1,0,0,0,.55-.14A1,1,0,0,0,166.49,142.47Z"/><path d="M173.43,142h-1v-7h4.91v.82h-3.95v2.28H177v.82h-3.55Z"/><path d="M178.86,142H178v-5h.87v.91a1.54,1.54,0,0,1,1.43-.91h.39v.84h-.4a1.17,1.17,0,0,0-1,.55,2.57,2.57,0,0,0-.38,1.48Z"/><path d="M180.9,139.5a2.69,2.69,0,0,1,.65-1.9,2.55,2.55,0,0,1,3.55,0,2.64,2.64,0,0,1,.67,1.9,2.69,2.69,0,0,1-.67,1.9,2.55,2.55,0,0,1-3.55,0A2.69,2.69,0,0,1,180.9,139.5Zm3.55,1.37a2.49,2.49,0,0,0,0-2.74,1.5,1.5,0,0,0-2.24,0,2.49,2.49,0,0,0,0,2.74,1.5,1.5,0,0,0,2.24,0Z"/><path d="M190.79,139.24V142h-.89v-3.08a1.39,1.39,0,0,0-.28-.94,1,1,0,0,0-.81-.33,1.11,1.11,0,0,0-.93.41,1.89,1.89,0,0,0-.32,1.18V142h-.88v-5h.86v.61a1.68,1.68,0,0,1,1.47-.73,1.85,1.85,0,0,1,1,.23,1.47,1.47,0,0,1,.61.67,1.7,1.7,0,0,1,1.61-.9,1.81,1.81,0,0,1,1.35.5,1.93,1.93,0,0,1,.48,1.38V142h-.88v-3.08a1.39,1.39,0,0,0-.29-.94,1,1,0,0,0-.81-.33,1.08,1.08,0,0,0-.93.41A1.89,1.89,0,0,0,190.79,139.24Z"/><path d="M198.34,142h-1v-7h1Z"/><path d="M200.56,142h-.89v-5h.87v.91A1.53,1.53,0,0,1,202,137h.39v.84H202a1.17,1.17,0,0,0-1,.55,2.57,2.57,0,0,0-.38,1.48Z"/><path d="M207.12,141.26h.24V142h-.48a1.05,1.05,0,0,1-.66-.19.67.67,0,0,1-.3-.52,1.76,1.76,0,0,1-1.58.83,1.84,1.84,0,0,1-1.26-.41,1.31,1.31,0,0,1-.48-1.05,1.38,1.38,0,0,1,.39-1,1.93,1.93,0,0,1,1.12-.52l1.46-.25a.33.33,0,0,0,.31-.36.85.85,0,0,0-.29-.66,1.18,1.18,0,0,0-.8-.26,1.32,1.32,0,0,0-.81.23,1.19,1.19,0,0,0-.41.7l-.84-.1a1.66,1.66,0,0,1,.68-1.12,2.27,2.27,0,0,1,1.41-.42,2,2,0,0,1,1.41.48,1.62,1.62,0,0,1,.52,1.27v2.25a.42.42,0,0,0,.08.29A.39.39,0,0,0,207.12,141.26Zm-3.64-.66a.72.72,0,0,0,.25.59,1,1,0,0,0,.71.22,1.32,1.32,0,0,0,1-.46,1.69,1.69,0,0,0,.41-1.17v-.29l-1.6.28a.94.94,0,0,0-.6.28A.74.74,0,0,0,203.48,140.6Z"/><path d="M212.29,138.76V142h-.89v-3.08a1.3,1.3,0,0,0-.31-.94,1.12,1.12,0,0,0-.87-.33,1.23,1.23,0,0,0-1,.4,1.8,1.8,0,0,0-.34,1.19V142H208v-5h.87v.63a1.76,1.76,0,0,1,1.56-.75,1.86,1.86,0,0,1,1.37.5A1.9,1.9,0,0,1,212.29,138.76Z"/><path d="M127.16,150H123.8v-4.9h3.29v.57h-2.62v1.56h2.34v.56h-2.34v1.63h2.69Z"/><path d="M129.69,150.08a2.19,2.19,0,0,1-1.41-.42,1.5,1.5,0,0,1-.53-1.17l.66-.09a1.09,1.09,0,0,0,.35.84,1.38,1.38,0,0,0,.93.29,1.14,1.14,0,0,0,.76-.24.81.81,0,0,0,.28-.63.66.66,0,0,0-.2-.51,1.46,1.46,0,0,0-.67-.28l-.66-.14a1.92,1.92,0,0,1-1-.48,1.21,1.21,0,0,1-.32-.88,1.22,1.22,0,0,1,.45-1,1.76,1.76,0,0,1,1.19-.39,1.88,1.88,0,0,1,1.23.37,1.49,1.49,0,0,1,.53,1.05l-.67.08a1,1,0,0,0-1.09-1,1.13,1.13,0,0,0-.73.21.79.79,0,0,0-.07,1.08,1.2,1.2,0,0,0,.61.28l.76.17a1.83,1.83,0,0,1,1,.45,1.19,1.19,0,0,1,.32.86,1.36,1.36,0,0,1-.47,1A1.8,1.8,0,0,1,129.69,150.08Z"/><path d="M131.7,145.1h3.72v.57H133.9V150h-.67v-4.33H131.7Z"/><path d="M139.74,146.4a.79.79,0,0,0-.23-.59.87.87,0,0,0-.62-.22.92.92,0,0,0-.79.34,1.47,1.47,0,0,0-.26,1l-.64-.08a1.72,1.72,0,0,1,.42-1.33,1.7,1.7,0,0,1,1.27-.48,1.53,1.53,0,0,1,1.11.38,1.29,1.29,0,0,1,.41,1,1.71,1.71,0,0,1-.25.88,4.21,4.21,0,0,1-.8,1l-1.31,1.2h2.49V150h-3.36v-.58l1.76-1.61a3.06,3.06,0,0,0,.62-.72A1.42,1.42,0,0,0,139.74,146.4Z"/><path d="M141.2,147.55a3.2,3.2,0,0,1,.48-1.86A1.58,1.58,0,0,1,143,145a1.56,1.56,0,0,1,1.36.67,3.76,3.76,0,0,1,0,3.71,1.7,1.7,0,0,1-2.71,0A3.12,3.12,0,0,1,141.2,147.55Zm2.7,1.46a2.81,2.81,0,0,0,.31-1.46,2.92,2.92,0,0,0-.3-1.46,1,1,0,0,0-.88-.51,1,1,0,0,0-.86.52,3.68,3.68,0,0,0,0,2.91,1,1,0,0,0,1.73,0Z"/><path d="M148.65,150h-3v-.56h1.2v-3.15a1.06,1.06,0,0,1-.56.13h-.66v-.55h.61a.56.56,0,0,0,.47-.19.91.91,0,0,0,.16-.58h.64v4.34h1.18Z"/><path d="M151.86,148.56a.78.78,0,0,0-.25-.61,1.05,1.05,0,0,0-.72-.22h-.44v-.51h.42a.79.79,0,0,0,.61-.23.9.9,0,0,0,.22-.65.72.72,0,0,0-.24-.57,1,1,0,0,0-.64-.2,1,1,0,0,0-.74.27,1.12,1.12,0,0,0-.3.75l-.6-.13a1.3,1.3,0,0,1,.47-1,1.76,1.76,0,0,1,1.18-.4,1.64,1.64,0,0,1,1.12.35,1.16,1.16,0,0,1,.41.93,1.31,1.31,0,0,1-.18.69,1.12,1.12,0,0,1-.51.45,1.24,1.24,0,0,1,.64.43,1.18,1.18,0,0,1,.21.7,1.41,1.41,0,0,1-.45,1.1,1.74,1.74,0,0,1-1.23.41,2.13,2.13,0,0,1-1.26-.36,1.31,1.31,0,0,1-.54-1l.66-.15a1,1,0,0,0,.33.71,1.15,1.15,0,0,0,.79.25,1,1,0,0,0,.76-.26A.89.89,0,0,0,151.86,148.56Z"/></g></svg>