<svg xmlns="http://www.w3.org/2000/svg" viewBox="0 0 1920 1080"><defs><style>.cls-1,.cls-2{fill:none;stroke:#000;stroke-miterlimit:10;}.cls-1{stroke-width:12px;}.cls-2{stroke-width:12px;}</style></defs><g id="Graphics"><line class="cls-1" x1="654" y1="264" x2="654" y2="120"/><line class="cls-1" x1="654" y1="180" x2="696" y2="180"/><line class="cls-1" x1="654" y1="180" x2="686.22" y2="147.78"/><line class="cls-1" x1="650.62" y1="222" x2="630" y2="222"/><path class="cls-1" d="M660,204a18,18,0,0,1,0,36"/><path class="cls-1" d="M672,138a18,18,0,0,0-36,0"/><path class="cls-1" d="M786,666a77.81,77.81,0,0,1,77.81-77.81h0A77.81,77.81,0,0,1,941.61,666"/><line class="cls-1" x1="858" y1="312" x2="726" y2="444"/><path class="cls-1" d="M756,324l-66,66v30H654V264H768A108,108,0,0,1,876,372v36h210a108,108,0,0,1,108,108V672H726V354"/><polyline class="cls-1" points="1194 636 1080 636 1080 408"/><path class="cls-1" d="M876,408h156a0,0,0,0,1,0,0v78a78,78,0,0,1-78,78h0a78,78,0,0,1-78-78V408A0,0,0,0,1,876,408Z"/><polyline class="cls-1" points="696 264 696 306 654 306"/><path class="cls-1" d="M726,750v54a60,60,0,0,0,60,60h0a60,60,0,0,0,60-60V750"/><polyline class="cls-1" points="922.24 868.24 966 824.48 966 786"/><line class="cls-1" x1="786" y1="750" x2="786" y2="774"/><line class="cls-1" x1="966" y1="774" x2="966" y2="750"/><line class="cls-1" x1="846" y1="882" x2="846" y2="906"/><line class="cls-1" x1="870" y1="906" x2="870" y2="882"/><polyline class="cls-1" points="870 750 870 776.48 846 800.48"/><polyline class="cls-1" points="894 750 894 788.48 846 836.48"/><polyline class="cls-1" points="846 750 846 864 854.48 864 918 800.48 918 750"/><polyline class="cls-2" points="444 498 493.35 498 448.65 570 498 570"/><polyline class="cls-2" points="570 570 522 570 522 498 570 498"/><line class="cls-2" x1="570" y1="534" x2="522" y2="534"/><polyline class="cls-2" points="642 570 594 570 594 498 642 498"/><line class="cls-2" x1="642" y1="534" x2="594" y2="534"/><polyline class="cls-2" points="570 672 522 672 522 600 570 600"/><line class="cls-2" x1="570" y1="636" x2="522" y2="636"/><polyline class="cls-2" points="642 594 642 672 639.42 672 596.59 600 594 600 594 678"/><path d="M1055,811.68h-18.28L1032.83,822H1027l16.26-42h5.8l16.08,42h-6.3Zm-16.43-4.8h14.65L1046,787.31Z"/><path d="M1075.38,822h-5.33V792h5.21v5.45q2.94-5.46,8.59-5.45h2.31v5h-2.37a7.08,7.08,0,0,0-6.12,3.29q-2.3,3.3-2.29,8.89Z"/><path d="M1088.93,796.39V792h5.27v-9.67h5.34V792h7.55v4.39h-7.55v16.79a5,5,0,0,0,.83,3.31,3.75,3.75,0,0,0,2.89.94h4.57V822h-5.39a8.4,8.4,0,0,1-6.13-2.07,8.08,8.08,0,0,1-2.11-6V796.39Z"/><path d="M1118.18,787.13h-5.33V780h5.33Zm0,34.87h-5.33V792h5.33Z"/><path d="M1137.12,822.73c-3.88,0-7-.89-9.25-2.67a9.55,9.55,0,0,1-3.75-7.23l5.33-.79a7.33,7.33,0,0,0,2.27,4.89,8.15,8.15,0,0,0,5.4,1.58,7.52,7.52,0,0,0,4.74-1.29,4.58,4.58,0,0,0,1.62-3.81c0-2.38-1.76-3.82-5.27-4.3l-4.31-.68a12,12,0,0,1-6.58-2.84,7.45,7.45,0,0,1-2.27-5.63,7.63,7.63,0,0,1,3.08-6.26,12.81,12.81,0,0,1,8.2-2.44,13,13,0,0,1,8.22,2.39,10.41,10.41,0,0,1,3.79,6.87l-4.92.7a7.65,7.65,0,0,0-2.41-4.4,9,9,0,0,0-9.16-.18,3.81,3.81,0,0,0-.51,5.79,6.84,6.84,0,0,0,3.56,1.37l4.8.79q9.12,1.47,9.11,8.59a8.57,8.57,0,0,1-3.13,7C1143.59,821.86,1140.74,822.73,1137.12,822.73Z"/><path d="M1151.23,796.39V792h5.27v-9.67h5.34V792h7.56v4.39h-7.56v16.79a5,5,0,0,0,.83,3.31,3.75,3.75,0,0,0,2.89.94h4.57V822h-5.39a8.4,8.4,0,0,1-6.13-2.07,8.08,8.08,0,0,1-2.11-6V796.39Z"/><path d="M1180.48,787.13h-5.33V780h5.33Zm0,34.87h-5.33V792h5.33Z"/><path d="M1201,818.16a7.7,7.7,0,0,0,5.42-1.89,8.24,8.24,0,0,0,2.46-5.32l5.21.62a12.09,12.09,0,0,1-4.14,8.13,13.33,13.33,0,0,1-9,3q-6.6,0-10.37-4.22t-3.78-11.4q0-7.23,3.84-11.51a13.18,13.18,0,0,1,10.31-4.34,13.71,13.71,0,0,1,9.08,2.89,12.39,12.39,0,0,1,4.19,8.16l-5.45.61q-1.08-7.08-7.88-7.09a7.51,7.51,0,0,0-6.33,3q-2.25,3-2.25,8.32c0,3.48.75,6.19,2.27,8.13A7.58,7.58,0,0,0,1201,818.16Z"/><path d="M1245.14,817.54h1.44V822h-2.9a6.69,6.69,0,0,1-4-1.13,4.16,4.16,0,0,1-1.78-3.12,10.51,10.51,0,0,1-9.5,5,11.24,11.24,0,0,1-7.55-2.45A7.88,7.88,0,0,1,1218,814a8.4,8.4,0,0,1,2.34-6.14,11.88,11.88,0,0,1,6.71-3.12l8.76-1.49a2,2,0,0,0,1.87-2.17,5,5,0,0,0-1.76-4,7,7,0,0,0-4.8-1.54,7.83,7.83,0,0,0-4.83,1.36,7,7,0,0,0-2.46,4.21l-5.07-.59a10.29,10.29,0,0,1,4.08-6.71,13.72,13.72,0,0,1,8.49-2.55q5.39,0,8.48,2.87a10,10,0,0,1,3.09,7.65v13.51a2.39,2.39,0,0,0,.5,1.75A2.34,2.34,0,0,0,1245.14,817.54Zm-21.85-3.95a4.44,4.44,0,0,0,1.52,3.57,6.38,6.38,0,0,0,4.25,1.29,8,8,0,0,0,6.26-2.74,10.16,10.16,0,0,0,2.44-7v-1.73l-9.61,1.67a6.23,6.23,0,0,0-3.62,1.67A4.56,4.56,0,0,0,1223.29,813.59Z"/><path d="M1256.59,822h-5.34V780h5.34Z"/><path d="M1270.19,822h-5.33V780h5.33Z"/><path d="M1285.91,824.81l1-2.64L1275.1,792h5.63l8.87,23.58,9-23.58H1304l-13.1,33.37c-1.15,2.94-2.51,5-4.07,6.06a10.19,10.19,0,0,1-6.18,1.67h-3.11v-4.51h3.11a5.77,5.77,0,0,0,3.31-.85A5.9,5.9,0,0,0,1285.91,824.81Z"/><path d="M1327.54,822h-5.77V780h29.48v4.93h-23.71v13.68h21.3v4.92h-21.3Z"/><path d="M1360.12,822h-5.34V792H1360v5.45q2.93-5.46,8.58-5.45h2.32v5h-2.37a7.11,7.11,0,0,0-6.13,3.29q-2.28,3.3-2.28,8.89Z"/><path d="M1372.33,807q0-7.1,4-11.4a13.76,13.76,0,0,1,10.64-4.34,14,14,0,0,1,10.66,4.34q4,4.27,4,11.4t-4,11.39a14,14,0,0,1-10.66,4.34,13.76,13.76,0,0,1-10.64-4.34Q1372.34,814.09,1372.33,807Zm21.36,8.21q2.46-3,2.46-8.21t-2.46-8.22a8.3,8.3,0,0,0-6.77-3,8.17,8.17,0,0,0-6.71,3q-2.43,3-2.43,8.22c0,3.49.8,6.24,2.41,8.23a9.09,9.09,0,0,0,13.5,0Z"/><path d="M1431.71,805.44V822h-5.34V803.51a8.4,8.4,0,0,0-1.71-5.63,6,6,0,0,0-4.82-2,6.67,6.67,0,0,0-5.58,2.45q-1.92,2.45-1.92,7.1V822H1407V792h5.21v3.66a10.08,10.08,0,0,1,8.82-4.4,11.26,11.26,0,0,1,5.73,1.4,9,9,0,0,1,3.68,4q3-5.41,9.66-5.42a10.67,10.67,0,0,1,8.08,3,11.4,11.4,0,0,1,2.91,8.24V822h-5.33V803.51a8.35,8.35,0,0,0-1.73-5.63,6.07,6.07,0,0,0-4.83-2,6.66,6.66,0,0,0-5.58,2.45Q1431.71,800.79,1431.71,805.44Z"/><path d="M1477,822h-5.77V780H1477Z"/><path d="M1490.31,822H1485V792h5.21v5.45q2.94-5.46,8.59-5.45h2.31v5h-2.37a7.08,7.08,0,0,0-6.12,3.29q-2.3,3.3-2.29,8.89Z"/><path d="M1529.68,817.54h1.44V822h-2.9a6.67,6.67,0,0,1-4-1.13,4.2,4.2,0,0,1-1.79-3.12,10.5,10.5,0,0,1-9.49,5,11.28,11.28,0,0,1-7.56-2.45,7.91,7.91,0,0,1-2.87-6.31,8.37,8.37,0,0,1,2.35-6.14,11.85,11.85,0,0,1,6.71-3.12l8.75-1.49a2,2,0,0,0,1.88-2.17,5,5,0,0,0-1.76-4,7,7,0,0,0-4.8-1.54,7.86,7.86,0,0,0-4.84,1.36,7.14,7.14,0,0,0-2.46,4.21l-5.07-.59a10.3,10.3,0,0,1,4.09-6.71,13.69,13.69,0,0,1,8.48-2.55c3.6,0,6.42,1,8.48,2.87a10,10,0,0,1,3.09,7.65v13.51a2.44,2.44,0,0,0,.5,1.75A2.37,2.37,0,0,0,1529.68,817.54Zm-21.85-3.95a4.41,4.41,0,0,0,1.52,3.57,6.37,6.37,0,0,0,4.25,1.29,8,8,0,0,0,6.25-2.74,10.16,10.16,0,0,0,2.45-7v-1.73l-9.61,1.67a6.23,6.23,0,0,0-3.62,1.67A4.56,4.56,0,0,0,1507.83,813.59Z"/><path d="M1560.67,802.54V822h-5.33V803.51a8,8,0,0,0-1.83-5.64,6.82,6.82,0,0,0-5.26-2,7.39,7.39,0,0,0-6,2.43c-1.36,1.63-2,4-2,7.12V822h-5.33V792h5.22v3.78q3.08-4.51,9.34-4.52,5.25,0,8.23,3A11.2,11.2,0,0,1,1560.67,802.54Z"/><path d="M1049.93,870h-20.2V840.59h19.79V844h-15.75v9.33h14.07v3.37h-14.07v9.82h16.16Z"/><path d="M1065.08,870.51a12.93,12.93,0,0,1-8.43-2.56,8.92,8.92,0,0,1-3.2-7l4-.51a6.71,6.71,0,0,0,2.12,5,8.13,8.13,0,0,0,5.55,1.74,6.79,6.79,0,0,0,4.56-1.43,4.74,4.74,0,0,0,1.67-3.82,3.92,3.92,0,0,0-1.17-3,8.72,8.72,0,0,0-4-1.69l-3.91-.84a11.42,11.42,0,0,1-5.94-2.89,7.78,7.78,0,0,1,.81-11,10.54,10.54,0,0,1,7.14-2.35,11.34,11.34,0,0,1,7.39,2.25,8.85,8.85,0,0,1,3.15,6.28l-4,.49q-.71-5.7-6.56-5.7a6.72,6.72,0,0,0-4.36,1.26,4.66,4.66,0,0,0-.42,6.51,7.18,7.18,0,0,0,3.65,1.66l4.57,1a11.31,11.31,0,0,1,5.83,2.74,7.08,7.08,0,0,1,1.86,5.15,8.06,8.06,0,0,1-2.81,6.3A10.94,10.94,0,0,1,1065.08,870.51Z"/><path d="M1077.17,840.59h22.33V844h-9.15v26h-4V844h-9.19Z"/><path d="M1125.4,848.4a4.66,4.66,0,0,0-1.4-3.54,5.22,5.22,0,0,0-3.72-1.32,5.66,5.66,0,0,0-4.75,2q-1.59,2-1.51,5.92l-3.85-.52q-.32-5,2.52-7.93a10,10,0,0,1,7.59-2.93,9.31,9.31,0,0,1,6.68,2.29,7.91,7.91,0,0,1,2.48,6,10.65,10.65,0,0,1-1.49,5.29,25.47,25.47,0,0,1-4.84,5.72l-7.86,7.22h15V870H1110v-3.45l10.58-9.7a18.52,18.52,0,0,0,3.71-4.33A8.38,8.38,0,0,0,1125.4,848.4Z"/><path d="M1134.17,855.29q0-7,2.89-11.13a9.45,9.45,0,0,1,8.1-4.06,9.35,9.35,0,0,1,8.12,4.06q2.94,4,2.94,11.13t-2.94,11.14a10.16,10.16,0,0,1-16.23.06Q1134.17,862.47,1134.17,855.29Zm16.21,8.77q1.84-3.09,1.84-8.77t-1.83-8.75a5.88,5.88,0,0,0-10.38.07q-1.86,3.15-1.86,8.68,0,5.7,1.81,8.78a5.94,5.94,0,0,0,10.42,0Z"/><path d="M1178.85,870h-18.23v-3.37h7.17V847.75a6.45,6.45,0,0,1-3.36.77h-3.94v-3.3h3.69a3.41,3.41,0,0,0,2.81-1.12,5.42,5.42,0,0,0,.93-3.51h3.87v26h7.06Z"/><path d="M1198.11,861.38a4.63,4.63,0,0,0-1.51-3.69,6.38,6.38,0,0,0-4.29-1.31h-2.64v-3.06h2.52a4.79,4.79,0,0,0,3.68-1.39,5.49,5.49,0,0,0,1.3-3.9,4.23,4.23,0,0,0-1.42-3.38,5.72,5.72,0,0,0-3.87-1.23,6.07,6.07,0,0,0-4.43,1.62,6.38,6.38,0,0,0-1.78,4.51l-3.65-.8a8.06,8.06,0,0,1,2.85-6.25,10.57,10.57,0,0,1,7.09-2.4,10,10,0,0,1,6.7,2.1,7,7,0,0,1,2.47,5.63,7.77,7.77,0,0,1-1.08,4.1,6.81,6.81,0,0,1-3,2.69,7.53,7.53,0,0,1,3.78,2.6,6.88,6.88,0,0,1,1.3,4.2,8.54,8.54,0,0,1-2.72,6.61,10.53,10.53,0,0,1-7.35,2.48,12.38,12.38,0,0,1-7.56-2.2,8,8,0,0,1-3.28-6l4-.89a6.14,6.14,0,0,0,2,4.27,7,7,0,0,0,4.73,1.5,6.48,6.48,0,0,0,4.57-1.54A5.53,5.53,0,0,0,1198.11,861.38Z"/></g></svg>