<svg xmlns="http://www.w3.org/2000/svg" viewBox="0 0 188 170"><defs><style>.cls-1{fill:none;}.cls-2{fill:#777d7e;}</style></defs><g id="Graphics"><rect class="cls-1" y="-2" width="188" height="174"/></g><g id="Isolation_Mode" data-name="Isolation Mode"><path class="cls-2" d="M186.94,1.06V168.94H1.06V1.06H186.94M188,0H0V170H188V0Z"/><path d="M56.42,120.12a3.54,3.54,0,0,1,.56,1.07,3.21,3.21,0,0,1,.19,1.06,3.17,3.17,0,0,1-.19,1.14,2.29,2.29,0,0,1-.54.87,2.33,2.33,0,0,1-.86.56,3.17,3.17,0,0,1-1.14.2,2.93,2.93,0,0,1-1-.15,2.07,2.07,0,0,1-.73-.44,2,2,0,0,1-.48-.71,3,3,0,0,1,0-1.92,5,5,0,0,1,.44-.91l.71.29a4.74,4.74,0,0,0-.33.78,2.42,2.42,0,0,0-.1.59,1.23,1.23,0,0,0,.41,1,1.75,1.75,0,0,0,1.16.34,1.81,1.81,0,0,0,1.24-.4,1.4,1.4,0,0,0,.47-1.13,2,2,0,0,0-.16-.73,3.22,3.22,0,0,0-.45-.83Zm-1.93.31-.76-.64.61-.72.76.64Z"/><path d="M59.23,123.34l-.94.21V117l.94-.45Z"/><path d="M62.73,123.5l-.32,0a.67.67,0,0,1-.28-.14,2.06,2.06,0,0,1-.26.78,3.56,3.56,0,0,1-.54.72,7.63,7.63,0,0,1-.77.69c-.3.23-.62.45-1,.67l-.77-.73c.37-.22.71-.44,1-.66a7.06,7.06,0,0,0,.78-.63,4,4,0,0,0,.5-.56.84.84,0,0,0,.18-.46,1.48,1.48,0,0,0-.18-.57,5.52,5.52,0,0,0-.46-.79l.76-.76c.14.24.26.44.37.61a3.19,3.19,0,0,0,.28.41,1,1,0,0,0,.26.22.57.57,0,0,0,.29.07H63v1.15Z"/><path d="M65.63,122.08a.45.45,0,0,0,0-.17c0-.07-.08-.16-.13-.25l-.19-.31A3.55,3.55,0,0,0,65,121l.75-.79a3.25,3.25,0,0,1,.56.93,2.4,2.4,0,0,1,.18.85,1.43,1.43,0,0,1-.4,1.1,1.72,1.72,0,0,1-1.23.37H63q-.1,0-.18-.15a1.29,1.29,0,0,1,0-.84c0-.11.11-.16.18-.16h1.89a1.88,1.88,0,0,0,.53-.06C65.57,122.24,65.63,122.17,65.63,122.08Zm-2,3.43-.73-.62.58-.69.74.61Zm1.28,0-.73-.62.58-.69.73.61Z"/><path d="M68.59,123.34l-.94.21V117l.94-.45Z"/><path d="M73.66,122.52a2.14,2.14,0,0,1-.2.89,3.36,3.36,0,0,1-.54.81,6.08,6.08,0,0,1-.82.76,10.2,10.2,0,0,1-1,.72l-.77-.73c.37-.22.71-.44,1-.66a7.06,7.06,0,0,0,.78-.63,3.42,3.42,0,0,0,.5-.56.84.84,0,0,0,.18-.46.92.92,0,0,0,0-.25,2.92,2.92,0,0,0-.13-.34,3.59,3.59,0,0,0-.21-.38c-.08-.13-.16-.26-.25-.39l.75-.75a4.88,4.88,0,0,1,.6,1.1A2.83,2.83,0,0,1,73.66,122.52Zm-1-2.55-.76-.64.61-.72.76.64Z"/><path d="M75.73,123.34l-.94.21V117l.94-.45Z"/><path d="M82,123.5a1.48,1.48,0,0,1-1-.27,1.65,1.65,0,0,1-.5-.83,1.92,1.92,0,0,1-.52.24,2.28,2.28,0,0,1-.63.09,1,1,0,0,1-.72-.25.91.91,0,0,1-.28-.72,1.73,1.73,0,0,1,.38-1.07,4.06,4.06,0,0,1,1.22-1l-.12-.51.8-.59.48,2.5c.05.24.09.44.13.6a1.17,1.17,0,0,0,.16.39.6.6,0,0,0,.27.2,1.27,1.27,0,0,0,.43.06h.15v1.15Zm-1.86-2.91a2.37,2.37,0,0,0-.35.19,2.44,2.44,0,0,0-.31.22,1,1,0,0,0-.23.24.45.45,0,0,0-.12.24.2.2,0,0,0,.11.17.74.74,0,0,0,.28,0l.23,0,.24-.05.21-.08a.56.56,0,0,0,.14-.09Z"/><path d="M85.33,123.5a2.46,2.46,0,0,1-.72-.11,1.92,1.92,0,0,1-.65-.34,2.3,2.3,0,0,1-.66.34,2.08,2.08,0,0,1-.62.11h-.41q-.1,0-.18-.15a1.3,1.3,0,0,1,0-.84c0-.11.11-.16.18-.16h.53l.28,0a1.69,1.69,0,0,1-.19-.41,1.26,1.26,0,0,1-.07-.41,1.39,1.39,0,0,1,.14-.6,1.75,1.75,0,0,1,.35-.53,1.58,1.58,0,0,1,.48-.38,1.1,1.1,0,0,1,.53-.15.81.81,0,0,1,.45.13,1.13,1.13,0,0,1,.36.33,1.6,1.6,0,0,1,.24.47,1.77,1.77,0,0,1,.09.56,1.61,1.61,0,0,1-.09.51,1.27,1.27,0,0,1-.34.5l.31,0h.56v1.15Zm-1.67-4.27-.73-.61.58-.69.74.6Zm.57,1.67A.45.45,0,0,0,84,121a.86.86,0,0,0-.2.13.49.49,0,0,0-.14.18.32.32,0,0,0-.06.17.61.61,0,0,0,.13.35,1.18,1.18,0,0,0,.29.3,1.68,1.68,0,0,0,.46-.31.5.5,0,0,0,.16-.29.68.68,0,0,0,0-.19.85.85,0,0,0-.1-.19.64.64,0,0,0-.13-.15A.27.27,0,0,0,84.23,120.9Zm.71-1.67-.73-.61.58-.69.73.6Z"/><path d="M88.7,123.5a1.56,1.56,0,0,1-.68-.13,1.13,1.13,0,0,1-.47-.43,1.28,1.28,0,0,1-.5.43,1.69,1.69,0,0,1-.72.13H85.9q-.11,0-.18-.15a1.3,1.3,0,0,1,0-.84c0-.11.11-.16.18-.16h.41l.42,0a.66.66,0,0,0,.27-.1.41.41,0,0,0,.15-.21,1.1,1.1,0,0,0,.06-.35v-.42L88,121a5.34,5.34,0,0,0,0,.62,1.12,1.12,0,0,0,.1.41.49.49,0,0,0,.23.22,1.15,1.15,0,0,0,.41.06h.47v1.15Zm-1.81,2-.73-.62.58-.69.74.61Zm1.28,0-.73-.62.58-.69.73.61Z"/><path d="M91.63,123.5a1.16,1.16,0,0,1-.6-.14,1,1,0,0,1-.38-.39,1.18,1.18,0,0,1-1,.53h-.36q-.11,0-.18-.15a.94.94,0,0,1-.07-.41,1,1,0,0,1,.07-.42c.05-.11.11-.16.18-.16h.26a.72.72,0,0,0,.56-.17.84.84,0,0,0,.13-.53v-.39c0-.2,0-.49,0-.86s0-.85,0-1.42,0-1.25-.05-2l.94-.45v4.43a6.52,6.52,0,0,0,0,.68,1.26,1.26,0,0,0,.09.44.42.42,0,0,0,.19.24.62.62,0,0,0,.33.07h.38v1.14Z"/><path d="M96.05,122.89a1.51,1.51,0,0,1-.46.45,1.32,1.32,0,0,1-.7.16,1.64,1.64,0,0,1-.69-.12,1.13,1.13,0,0,1-.46-.48,1.21,1.21,0,0,1-.47.46,1.34,1.34,0,0,1-.58.14h-.6q-.11,0-.18-.15a1.3,1.3,0,0,1,0-.84c0-.11.11-.16.18-.16h.56a1.25,1.25,0,0,0,.53-.11.43.43,0,0,0,.22-.41v-.58l.83-.21a5.34,5.34,0,0,0,0,.62,1.12,1.12,0,0,0,.1.41.5.5,0,0,0,.21.22.85.85,0,0,0,.35.06,1.54,1.54,0,0,0,.4,0,.48.48,0,0,0,.23-.14.55.55,0,0,0,.11-.23,1.83,1.83,0,0,0,0-.35v-.34l.82-.21a2.76,2.76,0,0,0,.13,1,.5.5,0,0,0,.53.31c.39,0,.59-.08.59-.25a.54.54,0,0,0,0-.18,2.1,2.1,0,0,0-.13-.26,3.49,3.49,0,0,0-.18-.31,3.55,3.55,0,0,0-.23-.31l.74-.79a3.25,3.25,0,0,1,.56.93,2.4,2.4,0,0,1,.18.85,1.74,1.74,0,0,1-.11.61,1.33,1.33,0,0,1-.31.46,1.35,1.35,0,0,1-.47.3,1.64,1.64,0,0,1-.6.1A1.14,1.14,0,0,1,96.05,122.89Z"/><path d="M101.37,123.5a1.49,1.49,0,0,1-.75-.17,1.19,1.19,0,0,1-.43-.46,1.9,1.9,0,0,1-.2-.65q0-.37-.06-.75c0-.31,0-.65,0-1s0-.77,0-1.17,0-.8,0-1.2,0-.77-.07-1.12l.93-.45c0,.37,0,.76,0,1.16s0,.79,0,1.18l0,1.17c0,.39,0,.75,0,1.1,0,.16,0,.32,0,.47a1.59,1.59,0,0,0,.07.4.6.6,0,0,0,.2.27.64.64,0,0,0,.4.1h.4v1.15Z"/><path d="M102.2,125.57l-.76-.65.61-.72.76.64Zm.92-3.49a.45.45,0,0,0,0-.17c0-.07-.08-.16-.13-.25l-.19-.31a3.55,3.55,0,0,0-.23-.31l.75-.79a3.25,3.25,0,0,1,.56.93,2.4,2.4,0,0,1,.18.85,1.43,1.43,0,0,1-.4,1.1,1.76,1.76,0,0,1-1.23.37h-.53q-.1,0-.18-.15a1.3,1.3,0,0,1,0-.84c0-.11.11-.16.18-.16h.53a1.88,1.88,0,0,0,.53-.06C103.05,122.24,103.12,122.17,103.12,122.08Z"/><path d="M73.78,130.16a6.38,6.38,0,0,1,.52,1.05,6.59,6.59,0,0,1,.27,1.06,8.17,8.17,0,0,1,.11,1.12c0,.39,0,.81,0,1.25h-.32c0-.43,0-.82,0-1.19a7.81,7.81,0,0,0-.15-1,5.31,5.31,0,0,0-.26-.91,6.69,6.69,0,0,0-.42-.85Z"/><path d="M75.82,130.16c.1.2.19.36.27.49a2.63,2.63,0,0,0,.23.33.57.57,0,0,0,.22.17.49.49,0,0,0,.25,0,.37.37,0,0,0,.33-.21,1.56,1.56,0,0,0,.11-.67l.33-.08a2.1,2.1,0,0,0,.16.74.38.38,0,0,0,.34.22.33.33,0,0,0,.31-.24,1.57,1.57,0,0,0,.11-.69l.38-.11a2.53,2.53,0,0,1-.22,1.24.69.69,0,0,1-.61.38.58.58,0,0,1-.38-.12.86.86,0,0,1-.23-.3.66.66,0,0,1-.63.44l-.17,0a.33.33,0,0,1-.17-.1A5.29,5.29,0,0,1,76.7,133c0,.48,0,1,0,1.61h-.32c0-.43,0-.82-.05-1.19a7.41,7.41,0,0,0-.15-1,5.35,5.35,0,0,0-.28-.91,6,6,0,0,0-.41-.85Z"/><path d="M81.59,134.68a1.87,1.87,0,0,1-.27-.48,3.07,3.07,0,0,1-.19-.56A5.7,5.7,0,0,1,81,133c0-.21,0-.43,0-.65h-.39a2.85,2.85,0,0,1-.44,0,1,1,0,0,1-.32-.12.56.56,0,0,1-.2-.23.82.82,0,0,1-.07-.37,1.85,1.85,0,0,1,.08-.49,1.87,1.87,0,0,1,.23-.47,1.45,1.45,0,0,1,.32-.37.64.64,0,0,1,.4-.15.61.61,0,0,1,.57.39,2.88,2.88,0,0,1,.2,1.24c0,.2,0,.4,0,.61a6.2,6.2,0,0,0,.06.62,3.77,3.77,0,0,0,.16.6,2.23,2.23,0,0,0,.31.54Zm-.6-2.81a3.64,3.64,0,0,0,0-.48,1.74,1.74,0,0,0-.07-.37.66.66,0,0,0-.14-.25.26.26,0,0,0-.2-.08.38.38,0,0,0-.24.08,1.07,1.07,0,0,0-.2.22,1,1,0,0,0-.14.29.77.77,0,0,0,0,.29.27.27,0,0,0,.18.23,1.21,1.21,0,0,0,.49.08H81Z"/><path d="M83.08,131.64a5.37,5.37,0,0,1,.26,1.37c0,.48,0,1,0,1.63h-.32c0-.43,0-.82-.06-1.19a7.41,7.41,0,0,0-.15-1,6.41,6.41,0,0,0-.27-.91,6,6,0,0,0-.41-.85l.28-.52q.15.28.27.48A2.23,2.23,0,0,0,83,131a.87.87,0,0,0,.26.18.79.79,0,0,0,.32.06c.41,0,.61-.31.61-.93l.39-.11a3.4,3.4,0,0,1-.06.67,1.52,1.52,0,0,1-.17.52.77.77,0,0,1-.31.33.9.9,0,0,1-.48.12.67.67,0,0,1-.24,0A.53.53,0,0,1,83.08,131.64Z"/><path d="M93.6,134.5a1.15,1.15,0,0,1-.52-.1.68.68,0,0,1-.31-.37.82.82,0,0,1-.76.47.75.75,0,0,1-.4-.11.78.78,0,0,1-.28-.37.88.88,0,0,1-.82.48.65.65,0,0,1-.53-.2,1,1,0,0,1,0,.16v.15a2.11,2.11,0,0,1-.17.72,1.64,1.64,0,0,1-.38.55,2,2,0,0,1-.6.36,2.43,2.43,0,0,1-.79.12,2,2,0,0,1-.66-.1,1.39,1.39,0,0,1-.84-.8,1.67,1.67,0,0,1-.12-.65,2.08,2.08,0,0,1,.09-.63,2.73,2.73,0,0,1,.29-.6l.32.16a2.56,2.56,0,0,0-.22.48,1.64,1.64,0,0,0-.07.48,1,1,0,0,0,.33.82,1.37,1.37,0,0,0,.93.3,1.91,1.91,0,0,0,.61-.09,1.17,1.17,0,0,0,.46-.27,1.25,1.25,0,0,0,.3-.42,1.42,1.42,0,0,0,.1-.55,1.54,1.54,0,0,0-.11-.56,3.29,3.29,0,0,0-.29-.6l.39-.33.21.4a2,2,0,0,0,.2.3.82.82,0,0,0,.22.2.65.65,0,0,0,.29.06.67.67,0,0,0,.49-.15.63.63,0,0,0,.16-.5v-.24l.4-.1a1.78,1.78,0,0,0,.12.77.41.41,0,0,0,.39.22.59.59,0,0,0,.37-.12.62.62,0,0,0,.17-.45v-.32l.4-.1c0,.18,0,.33,0,.45a.87.87,0,0,0,.11.31.39.39,0,0,0,.2.18,1.06,1.06,0,0,0,.34.05h.26v.54Z"/><path d="M95.92,134.5a1.12,1.12,0,0,1-.52-.1.73.73,0,0,1-.33-.36.9.9,0,0,1-.35.35,1.11,1.11,0,0,1-.52.11h-.28a.12.12,0,0,1-.12-.08.29.29,0,0,1,0-.19.27.27,0,0,1,0-.19.14.14,0,0,1,.12-.08h.28a.8.8,0,0,0,.51-.13.66.66,0,0,0,.19-.49v-.27l.39-.1a3,3,0,0,0,0,.47.8.8,0,0,0,.11.31.37.37,0,0,0,.21.16A.92.92,0,0,0,96,134h.27v.54Zm-1.26,1.28-.41-.34.3-.36.4.34Zm.83,0-.41-.34.31-.36.4.34Z"/><path d="M99.07,134a.86.86,0,0,1-.84.48,1,1,0,0,1-.5-.1.73.73,0,0,1-.31-.37.85.85,0,0,1-.34.36.94.94,0,0,1-.45.11h-.36a.12.12,0,0,1-.12-.08.36.36,0,0,1-.05-.19.33.33,0,0,1,.05-.19.14.14,0,0,1,.12-.08h.33a.81.81,0,0,0,.46-.12.56.56,0,0,0,.2-.45v-.32l.39-.1a3,3,0,0,0,0,.47.81.81,0,0,0,.09.31.37.37,0,0,0,.19.16.56.56,0,0,0,.28.05.68.68,0,0,0,.49-.15.71.71,0,0,0,.16-.5v-.24l.4-.1a1.78,1.78,0,0,0,.12.77.49.49,0,0,0,.46.22.52.52,0,0,0,.17,0,.43.43,0,0,0,.16-.05.27.27,0,0,0,.12-.09.2.2,0,0,0,0-.13,1.25,1.25,0,0,0-.08-.31,3.08,3.08,0,0,0-.29-.49l.36-.38a1.88,1.88,0,0,1,.33.58,1.58,1.58,0,0,1,.1.53.84.84,0,0,1-.27.66,1,1,0,0,1-.66.24.87.87,0,0,1-.49-.12A.7.7,0,0,1,99.07,134Z"/><path d="M102.6,129.77l-1.49.39v-.27l.39-.13a.43.43,0,0,1-.15-.18.53.53,0,0,1,0-.2.56.56,0,0,1,0-.23.8.8,0,0,1,.13-.19.67.67,0,0,1,.2-.12.54.54,0,0,1,.22,0,.7.7,0,0,1,.43.15l-.08.22-.17,0h-.18a.41.41,0,0,0-.23.06.22.22,0,0,0-.1.16.24.24,0,0,0,.12.2.36.36,0,0,0,.25.08,2.44,2.44,0,0,0,.66-.17Zm.07,4.73a1,1,0,0,1-.53-.12.62.62,0,0,1-.27-.31,1.13,1.13,0,0,1-.1-.43c0-.16,0-.33,0-.5s0-.45,0-.66v-.59c0-.2,0-.41,0-.62s0-.46,0-.72l.45-.2c0,.32,0,.58,0,.78v1.75c0,.14,0,.28,0,.41a1.54,1.54,0,0,0,.08.34.55.55,0,0,0,.18.24.47.47,0,0,0,.3.09h.23v.54Z"/><path d="M103.83,133.66a1,1,0,0,0-.09-.3,2.36,2.36,0,0,0-.28-.49l.35-.38a1.88,1.88,0,0,1,.33.58,1.62,1.62,0,0,1,.11.53.83.83,0,0,1-.27.67,1.3,1.3,0,0,1-.84.23h-.22a.12.12,0,0,1-.11-.08.29.29,0,0,1,0-.19.27.27,0,0,1,0-.19.14.14,0,0,1,.11-.08h.23a1.33,1.33,0,0,0,.47-.07C103.76,133.85,103.83,133.77,103.83,133.66Zm-.45-1.71-.41-.35.3-.35.4.34Zm.83,0-.4-.35.31-.35.39.34Z"/><path d="M74,92.5a22,22,0,0,1-22-22v-20h4v20a18,18,0,0,0,36,0v-20h4v20A22,22,0,0,1,74,92.5Z"/><polygon points="119.24 91.92 116.41 89.09 132 73.5 132 62.5 136 62.5 136 75.16 119.24 91.92"/><rect x="72" y="50.5" width="4" height="8"/><rect x="132" y="50.5" width="4" height="8"/><rect x="92" y="96.5" width="4" height="8"/><rect x="100" y="96.5" width="4" height="8"/><polygon points="95.41 70.74 92.59 67.91 102 58.5 102 50.5 106 50.5 106 60.16 95.41 70.74"/><polygon points="95.41 82.74 92.59 79.91 110 62.5 110 50.5 114 50.5 114 64.16 95.41 82.74"/><polygon points="97.66 92.5 92 92.5 92 50.5 96 50.5 96 88.5 118 66.5 118 50.5 122 50.5 122 68.16 97.66 92.5"/></g></svg>