<svg xmlns="http://www.w3.org/2000/svg" viewBox="0 0 1920 1080"><g id="Graphics"><path d="M1062,777.16h-15.67L1043,786h-5l13.93-36h5l13.79,36h-5.4Zm-14.09-4.11h12.56l-6.18-16.78Z"/><path d="M1078.66,786h-4.57V760.29h4.47V765q2.51-4.66,7.35-4.67h2v4.32h-2a6.07,6.07,0,0,0-5.24,2.82,13.16,13.16,0,0,0-2,7.62Z"/><path d="M1091.55,764.06v-3.77h4.52V752h4.57v8.28h6.48v3.77h-6.48v14.38a4.28,4.28,0,0,0,.72,2.84,3.16,3.16,0,0,0,2.47.8h3.92V786h-4.62a7.2,7.2,0,0,1-5.25-1.77,6.92,6.92,0,0,1-1.81-5.16v-15Z"/><path d="M1115.85,756.12h-4.57V750h4.57Zm0,29.88h-4.57V760.29h4.57Z"/><path d="M1131.31,786.63a12.55,12.55,0,0,1-7.93-2.29,8.19,8.19,0,0,1-3.21-6.2l4.57-.68a6.28,6.28,0,0,0,1.94,4.2,7,7,0,0,0,4.63,1.35,6.4,6.4,0,0,0,4.06-1.1,3.93,3.93,0,0,0,1.39-3.27c0-2-1.5-3.27-4.52-3.69l-3.69-.57a10.23,10.23,0,0,1-5.63-2.44,6.35,6.35,0,0,1-2-4.82,6.54,6.54,0,0,1,2.64-5.37,11,11,0,0,1,7-2.09,11.18,11.18,0,0,1,7,2.05,9,9,0,0,1,3.25,5.89l-4.22.6a6.6,6.6,0,0,0-2.07-3.78,7.78,7.78,0,0,0-7.85-.15,3.06,3.06,0,0,0-1.38,2.6,3,3,0,0,0,.95,2.36,5.83,5.83,0,0,0,3.05,1.18l4.11.68c5.21.83,7.81,3.29,7.81,7.35a7.34,7.34,0,0,1-2.68,6A11.2,11.2,0,0,1,1131.31,786.63Z"/><path d="M1142.63,764.06v-3.77h4.52V752h4.57v8.28h6.48v3.77h-6.48v14.38a4.28,4.28,0,0,0,.72,2.84,3.16,3.16,0,0,0,2.47.8h3.92V786h-4.62a7.2,7.2,0,0,1-5.25-1.77,6.89,6.89,0,0,1-1.81-5.16v-15Z"/><path d="M1166.93,756.12h-4.57V750h4.57Zm0,29.88h-4.57V760.29h4.57Z"/><path d="M1183.72,782.71a6.58,6.58,0,0,0,4.65-1.62,7.14,7.14,0,0,0,2.11-4.55l4.47.52a10.31,10.31,0,0,1-3.56,7,12.66,12.66,0,0,1-16.55-1q-3.24-3.62-3.24-9.76t3.29-9.87a11.28,11.28,0,0,1,8.83-3.72,11.76,11.76,0,0,1,7.79,2.48,10.62,10.62,0,0,1,3.59,7l-4.67.53q-.93-6.07-6.76-6.08a6.44,6.44,0,0,0-5.42,2.54c-1.29,1.69-1.93,4.06-1.93,7.13a11.1,11.1,0,0,0,1.94,7A6.52,6.52,0,0,0,1183.72,782.71Z"/><path d="M1221.32,782.18h1.23V786h-2.49a5.68,5.68,0,0,1-3.39-1,3.58,3.58,0,0,1-1.53-2.67,9,9,0,0,1-8.13,4.27,9.64,9.64,0,0,1-6.48-2.1,6.78,6.78,0,0,1-2.46-5.41,7.2,7.2,0,0,1,2-5.26,10.18,10.18,0,0,1,5.75-2.67l7.5-1.28a1.74,1.74,0,0,0,1.61-1.86,4.29,4.29,0,0,0-1.51-3.4,6,6,0,0,0-4.11-1.32,6.66,6.66,0,0,0-4.15,1.17,6.11,6.11,0,0,0-2.11,3.6l-4.34-.5a8.77,8.77,0,0,1,3.5-5.75,11.74,11.74,0,0,1,7.27-2.19,10.27,10.27,0,0,1,7.27,2.46,8.52,8.52,0,0,1,2.65,6.56v11.57a2.1,2.1,0,0,0,.43,1.51A2.06,2.06,0,0,0,1221.32,782.18Zm-18.73-3.39a3.81,3.81,0,0,0,1.3,3.07,5.51,5.51,0,0,0,3.64,1.1,6.86,6.86,0,0,0,5.36-2.34,8.73,8.73,0,0,0,2.1-6V773.1l-8.24,1.43a5.32,5.32,0,0,0-3.1,1.43A3.9,3.9,0,0,0,1202.59,778.79Z"/><path d="M1230.35,786h-4.57V750h4.57Z"/><path d="M1241.24,786h-4.57V750h4.57Z"/><path d="M1253.94,788.41l.85-2.26-10.11-25.86h4.82l7.61,20.21,7.68-20.21h4.62l-11.23,28.6a11.13,11.13,0,0,1-3.48,5.2,8.77,8.77,0,0,1-5.3,1.43h-2.66v-3.87h2.66a4.85,4.85,0,0,0,2.83-.73A4.94,4.94,0,0,0,1253.94,788.41Z"/><path d="M1288.08,786h-4.95V750h25.26v4.21h-20.31v11.73h18.25v4.22h-18.25Z"/><path d="M1316,786h-4.57V760.29h4.47V765q2.52-4.66,7.36-4.67h2v4.32h-2a6.09,6.09,0,0,0-5.25,2.82,13.23,13.23,0,0,0-2,7.62Z"/><path d="M1326.46,773.15a13.88,13.88,0,0,1,3.39-9.77,11.75,11.75,0,0,1,9.11-3.72,12,12,0,0,1,9.14,3.72q3.44,3.66,3.44,9.77a13.86,13.86,0,0,1-3.44,9.76,12,12,0,0,1-9.14,3.72,11.75,11.75,0,0,1-9.11-3.72A13.85,13.85,0,0,1,1326.46,773.15Zm18.3,7a12.82,12.82,0,0,0,0-14.09,7.11,7.11,0,0,0-5.8-2.57,7,7,0,0,0-5.75,2.57,13,13,0,0,0,0,14.1,7,7,0,0,0,5.76,2.56A7.11,7.11,0,0,0,1344.76,780.19Z"/><path d="M1377.35,771.81V786h-4.57V770.16a7.16,7.16,0,0,0-1.47-4.82,5.16,5.16,0,0,0-4.13-1.71,5.72,5.72,0,0,0-4.79,2.1,9.7,9.7,0,0,0-1.64,6.08V786h-4.57V760.29h4.47v3.14a8.63,8.63,0,0,1,7.56-3.77,9.59,9.59,0,0,1,4.9,1.2,7.62,7.62,0,0,1,3.16,3.45q2.54-4.65,8.28-4.65a9.16,9.16,0,0,1,6.92,2.6,9.8,9.8,0,0,1,2.5,7.07V786h-4.57V770.16a7.16,7.16,0,0,0-1.48-4.82,5.2,5.2,0,0,0-4.15-1.71,5.71,5.71,0,0,0-4.78,2.1C1377.89,767.12,1377.35,769.15,1377.35,771.81Z"/><path d="M1416.15,786h-4.94V750h4.94Z"/><path d="M1427.57,786H1423V760.29h4.47V765q2.51-4.66,7.36-4.67h2v4.32h-2a6.08,6.08,0,0,0-5.25,2.82,13.16,13.16,0,0,0-2,7.62Z"/><path d="M1461.31,782.18h1.23V786h-2.49a5.63,5.63,0,0,1-3.38-1,3.56,3.56,0,0,1-1.54-2.67,9,9,0,0,1-8.13,4.27,9.64,9.64,0,0,1-6.48-2.1,6.78,6.78,0,0,1-2.46-5.41,7.2,7.2,0,0,1,2-5.26,10.18,10.18,0,0,1,5.75-2.67l7.51-1.28a1.73,1.73,0,0,0,1.6-1.86,4.32,4.32,0,0,0-1.5-3.4,6.05,6.05,0,0,0-4.12-1.32,6.65,6.65,0,0,0-4.14,1.17,6,6,0,0,0-2.11,3.6l-4.35-.5a8.78,8.78,0,0,1,3.51-5.75,11.69,11.69,0,0,1,7.26-2.19,10.26,10.26,0,0,1,7.27,2.46,8.52,8.52,0,0,1,2.65,6.56v11.57a1.6,1.6,0,0,0,1.91,1.93Zm-18.73-3.39a3.78,3.78,0,0,0,1.31,3.07,5.49,5.49,0,0,0,3.64,1.1,6.89,6.89,0,0,0,5.36-2.34,8.77,8.77,0,0,0,2.09-6V773.1l-8.23,1.43a5.27,5.27,0,0,0-3.1,1.43A3.9,3.9,0,0,0,1442.58,778.79Z"/><path d="M1487.87,769.33V786h-4.57V770.16a6.86,6.86,0,0,0-1.57-4.84,5.85,5.85,0,0,0-4.51-1.69,6.32,6.32,0,0,0-5.12,2.08,9.26,9.26,0,0,0-1.76,6.1V786h-4.57V760.29h4.47v3.24q2.64-3.87,8-3.87a9.48,9.48,0,0,1,7.06,2.6A9.62,9.62,0,0,1,1487.87,769.33Z"/><path d="M1058.34,834h-20.2V804.59h19.79V808h-15.75v9.33h14.07v3.36h-14.07v9.83h16.16Z"/><path d="M1072.86,834.51q-5.31,0-8.43-2.56a8.89,8.89,0,0,1-3.2-7l4-.52a6.73,6.73,0,0,0,2.12,5,8.18,8.18,0,0,0,5.55,1.73,6.78,6.78,0,0,0,4.56-1.42,4.76,4.76,0,0,0,1.67-3.83,3.88,3.88,0,0,0-1.17-3,8.82,8.82,0,0,0-4-1.7l-3.91-.84a11.35,11.35,0,0,1-5.94-2.89,7.77,7.77,0,0,1,.81-11,10.55,10.55,0,0,1,7.14-2.36,11.28,11.28,0,0,1,7.39,2.26,8.81,8.81,0,0,1,3.15,6.27l-4,.49q-.7-5.7-6.56-5.7a6.72,6.72,0,0,0-4.36,1.26,4.67,4.67,0,0,0-.42,6.52,7.27,7.27,0,0,0,3.65,1.66l4.57,1a11.31,11.31,0,0,1,5.83,2.75,7.06,7.06,0,0,1,1.86,5.15,8.07,8.07,0,0,1-2.81,6.29A10.89,10.89,0,0,1,1072.86,834.51Z"/><path d="M1084.32,804.59h22.33V808h-9.15v26h-4V808h-9.18Z"/><path d="M1131.29,812.41a4.65,4.65,0,0,0-1.4-3.54,5.22,5.22,0,0,0-3.72-1.32,5.66,5.66,0,0,0-4.75,2c-1.06,1.34-1.56,3.32-1.51,5.91l-3.85-.51q-.32-5,2.52-7.94a10,10,0,0,1,7.59-2.93,9.31,9.31,0,0,1,6.68,2.3,7.9,7.9,0,0,1,2.48,6,10.67,10.67,0,0,1-1.49,5.29,25.69,25.69,0,0,1-4.84,5.72l-7.86,7.22h14.95V834h-20.16v-3.44l10.58-9.7a18.72,18.72,0,0,0,3.71-4.33A8.41,8.41,0,0,0,1131.29,812.41Z"/><path d="M1139.43,819.3q0-7,2.89-11.14a9.45,9.45,0,0,1,8.1-4.06,9.35,9.35,0,0,1,8.12,4.06q2.94,4,2.94,11.14c0,4.71-1,8.43-2.94,11.13a10.16,10.16,0,0,1-16.23.06Q1139.43,826.47,1139.43,819.3Zm16.21,8.76c1.23-2,1.84-5,1.84-8.76s-.61-6.71-1.83-8.76a5.88,5.88,0,0,0-10.38.07q-1.86,3.15-1.86,8.69,0,5.7,1.81,8.77a5.94,5.94,0,0,0,10.42,0Z"/><path d="M1183.48,834h-18.23v-3.36h7.17V811.75a6.33,6.33,0,0,1-3.36.78h-3.94v-3.3h3.69a3.41,3.41,0,0,0,2.81-1.12,5.47,5.47,0,0,0,.93-3.52h3.87v26h7.06Z"/><path d="M1202.12,825.39a4.61,4.61,0,0,0-1.52-3.69,6.33,6.33,0,0,0-4.29-1.32h-2.64v-3h2.52a4.8,4.8,0,0,0,3.68-1.4,5.46,5.46,0,0,0,1.3-3.89,4.24,4.24,0,0,0-1.42-3.39,5.72,5.72,0,0,0-3.87-1.23,6.09,6.09,0,0,0-4.43,1.62,6.4,6.4,0,0,0-1.78,4.51l-3.65-.8a8.07,8.07,0,0,1,2.85-6.25,10.57,10.57,0,0,1,7.09-2.4,10,10,0,0,1,6.7,2.1,7,7,0,0,1,2.47,5.63,7.75,7.75,0,0,1-1.08,4.1,6.7,6.7,0,0,1-3,2.69,7.59,7.59,0,0,1,3.78,2.6,6.89,6.89,0,0,1,1.3,4.21,8.5,8.5,0,0,1-2.72,6.6,10.48,10.48,0,0,1-7.35,2.48,12.47,12.47,0,0,1-7.56-2.19,8,8,0,0,1-3.28-6l4-.88a6.12,6.12,0,0,0,2,4.26,7,7,0,0,0,4.73,1.5,6.43,6.43,0,0,0,4.57-1.54A5.5,5.5,0,0,0,1202.12,825.39Z"/><rect x="648" y="120" width="12" height="144"/><rect x="654" y="174" width="42" height="12"/><rect x="647.32" y="157.89" width="45.57" height="12" transform="translate(80.38 521.84) rotate(-45)"/><rect x="630" y="216" width="20.62" height="12"/><path d="M660,246V234a12,12,0,0,0,0-24V198a24,24,0,0,1,0,48Z"/><path d="M678,138H666a12,12,0,0,0-24,0H630a24,24,0,0,1,48,0Z"/><path d="M947.61,666h-12A71.81,71.81,0,1,0,792,666H780a83.81,83.81,0,1,1,167.61,0Z"/><rect x="698.66" y="372" width="186.68" height="12" transform="translate(-35.31 670.74) rotate(-45)"/><path d="M1200,678H720V368.48l-24,24V426H648V258H768A114.13,114.13,0,0,1,882,372v30h204a114.13,114.13,0,0,1,114,114ZM732,666h456V516a102.12,102.12,0,0,0-102-102H870V372A102.11,102.11,0,0,0,768,270H660V414h24V387.51l67.75-67.76,8.49,8.49L732,356.48Z"/><polygon points="1194 642 1074 642 1074 408 1086 408 1086 630 1194 630 1194 642"/><path d="M954,570a84.09,84.09,0,0,1-84-84V402h168v84A84.09,84.09,0,0,1,954,570ZM882,414v72a72.08,72.08,0,0,0,72,72h0a72.08,72.08,0,0,0,72-72V414Z"/><path d="M702,312H648V258h54Zm-42-12h30V270H660Z"/><polygon points="510 588 455.85 588 494.12 528 462 528 462 516 516.01 516 477.74 576 510 576 510 588"/><polygon points="576 588 528.16 588 527.99 516 576 516 576 528 540.02 528 540.13 576 576 576 576 588"/><rect x="534" y="546" width="42" height="12"/><polygon points="642 588 594 588 594 516 642 516 642 528 606 528 606 576 642 576 642 588"/><rect x="600" y="546" width="42" height="12"/><polygon points="576 678 528 678 528 606 576 606 576 618 540 618 540 666 576 666 576 678"/><rect x="534" y="636" width="42" height="12"/><polygon points="648 678 636.51 678 606 629.38 606 678 594 678 594 606 605.5 606 636 654.61 636 606 648 606 648 678"/><path d="M786,876a66.08,66.08,0,0,1-66-66V750h12v60a54,54,0,0,0,108,0V750h12v60A66.08,66.08,0,0,1,786,876Z"/><polygon points="921.73 874.24 913.25 865.76 960.01 819 960.01 786 972.01 786 972.01 823.97 921.73 874.24"/><rect x="780" y="750" width="12" height="24"/><rect x="960.01" y="750" width="12" height="24"/><rect x="840.01" y="888" width="12" height="24"/><rect x="864.01" y="888" width="12" height="24"/><polygon points="850.25 810.73 841.76 802.24 870 774 870 750 882 750 882 778.97 850.25 810.73"/><polygon points="850.25 846.73 841.76 838.24 894 786 894 750 906 750 906 790.97 850.25 846.73"/><polygon points="856.98 876 840 876 840 750 852 750 852 864 918.01 798 918.01 750 930.01 750 930.01 802.97 856.98 876"/></g></svg>