<svg xmlns="http://www.w3.org/2000/svg" viewBox="0 0 1920 1080"><defs><style>.cls-1{fill:#082b96;}.cls-2{fill:#061f6b;}.cls-3{fill:#fff;}</style></defs><g id="Background"><rect class="cls-1" width="1920" height="1080"/></g><g id="Graphics"><path class="cls-2" d="M1383,922.5H537v-765h846Z"/></g><g id="Isolation_Mode" data-name="Isolation Mode"><path class="cls-3" d="M790.9,698a17.26,17.26,0,0,1,2.52,4.8,15,15,0,0,1,.85,4.79,14.61,14.61,0,0,1-.85,5.13,11.07,11.07,0,0,1-2.43,3.91,10.82,10.82,0,0,1-3.87,2.52,14,14,0,0,1-5.13.9,13.06,13.06,0,0,1-4.32-.67,9.11,9.11,0,0,1-3.31-2,9,9,0,0,1-2.14-3.22,11.85,11.85,0,0,1-.76-4.43,12.6,12.6,0,0,1,.67-4.21,22.5,22.5,0,0,1,2-4.07l3.2,1.3a18.64,18.64,0,0,0-1.49,3.49,9.89,9.89,0,0,0-.45,2.68,5.48,5.48,0,0,0,1.83,4.43,7.82,7.82,0,0,0,5.24,1.55,8.22,8.22,0,0,0,5.58-1.82,6.31,6.31,0,0,0,2.11-5.06,9.4,9.4,0,0,0-.72-3.31,17.17,17.17,0,0,0-2-3.71Zm-8.69,1.4-3.42-2.88,2.75-3.24L785,696.2Z"/><path class="cls-3" d="M803.54,712.53l-4.23,1v-29.7l4.23-2Z"/><path class="cls-3" d="M819.29,713.25a8.25,8.25,0,0,1-1.44-.11,2.56,2.56,0,0,1-1.26-.61,9.49,9.49,0,0,1-1.17,3.49,16.43,16.43,0,0,1-2.43,3.26,28.54,28.54,0,0,1-3.49,3.11q-2,1.53-4.29,3l-3.47-3.28q2.47-1.49,4.55-3a34.88,34.88,0,0,0,3.51-2.84,16.24,16.24,0,0,0,2.25-2.52,3.79,3.79,0,0,0,.81-2.07,6.63,6.63,0,0,0-.81-2.58A26.87,26.87,0,0,0,810,705.6l3.42-3.42c.63,1.08,1.18,2,1.64,2.75a15,15,0,0,0,1.28,1.82,4.06,4.06,0,0,0,1.17,1,2.73,2.73,0,0,0,1.31.32h1.8v5.17Z"/><path class="cls-3" d="M832.34,706.86a2.07,2.07,0,0,0-.2-.76,11.28,11.28,0,0,0-.58-1.15c-.26-.43-.54-.89-.86-1.37s-.65-1-1-1.4l3.37-3.55a14.43,14.43,0,0,1,2.52,4.16,11,11,0,0,1,.81,3.85,6.44,6.44,0,0,1-1.8,4.93q-1.8,1.68-5.53,1.68H820.6q-.5,0-.81-.69a4.62,4.62,0,0,1-.32-1.87,4.76,4.76,0,0,1,.32-1.89q.32-.72.81-.72h8.5a7.83,7.83,0,0,0,2.36-.29C832.05,707.59,832.34,707.28,832.34,706.86Zm-8.82,15.44-3.28-2.79,2.61-3.11,3.33,2.75Zm5.76,0L826,719.51l2.61-3.11,3.28,2.75Z"/><path class="cls-3" d="M845.66,712.53l-4.23,1v-29.7l4.23-2Z"/><path class="cls-3" d="M868.48,708.84a9.3,9.3,0,0,1-.9,4,15.47,15.47,0,0,1-2.46,3.66,27.6,27.6,0,0,1-3.66,3.42c-1.42,1.11-2.94,2.19-4.59,3.24l-3.47-3.28q2.48-1.49,4.55-3a34.88,34.88,0,0,0,3.51-2.84,16.24,16.24,0,0,0,2.25-2.52,3.79,3.79,0,0,0,.81-2.07,3.87,3.87,0,0,0-.23-1.14,12.44,12.44,0,0,0-.61-1.53,14.39,14.39,0,0,0-.92-1.71c-.36-.59-.73-1.17-1.12-1.74L865,700a21.22,21.22,0,0,1,2.68,4.93A12.1,12.1,0,0,1,868.48,708.84ZM864,697.37l-3.42-2.88,2.74-3.24,3.42,2.88Z"/><path class="cls-3" d="M877.79,712.53l-4.23,1v-29.7l4.23-2Z"/><path class="cls-3" d="M905.92,713.25a6.69,6.69,0,0,1-4.33-1.21,7.49,7.49,0,0,1-2.25-3.74,8.29,8.29,0,0,1-2.36,1.08,9.85,9.85,0,0,1-2.81.41,4.57,4.57,0,0,1-3.26-1.15,4.15,4.15,0,0,1-1.24-3.22,7.79,7.79,0,0,1,1.69-4.83,18.21,18.21,0,0,1,5.51-4.44l-.54-2.29,3.6-2.66,2.16,11.25c.21,1.08.4,2,.58,2.7a5.43,5.43,0,0,0,.72,1.74,2.44,2.44,0,0,0,1.2.92,5.78,5.78,0,0,0,1.95.27h.68v5.17Zm-8.38-13.09A13.86,13.86,0,0,0,896,701a14.35,14.35,0,0,0-1.4,1,6.63,6.63,0,0,0-1.05,1.08,2.5,2.5,0,0,0-.52,1.1.8.8,0,0,0,.49.75,2.89,2.89,0,0,0,1.26.24,6.61,6.61,0,0,0,1-.09,10.26,10.26,0,0,0,1.1-.24,6.63,6.63,0,0,0,.94-.36,3.92,3.92,0,0,0,.63-.39Z"/><path class="cls-3" d="M921,713.25a10.92,10.92,0,0,1-3.26-.49,8.68,8.68,0,0,1-2.9-1.53,11,11,0,0,1-3,1.53,9.12,9.12,0,0,1-2.79.49h-1.84q-.5,0-.81-.69a4.62,4.62,0,0,1-.32-1.87,4.76,4.76,0,0,1,.32-1.89q.32-.72.81-.72h1.08c.48,0,.91,0,1.28-.05a12.2,12.2,0,0,0,1.28-.18A7.13,7.13,0,0,1,910,706a6.24,6.24,0,0,1-.3-1.83,6.56,6.56,0,0,1,.61-2.72,9.14,9.14,0,0,1,1.58-2.38,7.93,7.93,0,0,1,2.18-1.71,5,5,0,0,1,2.38-.66,3.85,3.85,0,0,1,2,.57,5.43,5.43,0,0,1,1.62,1.48,7.82,7.82,0,0,1,1.08,2.14,7.92,7.92,0,0,1,.41,2.52,7,7,0,0,1-.41,2.27,5.71,5.71,0,0,1-1.53,2.27c.51.06,1,.1,1.4.12l1.3,0h1.21v5.17ZM913.47,694l-3.28-2.75,2.61-3.1,3.33,2.7Zm2.57,7.51a2.21,2.21,0,0,0-.95.25,4.32,4.32,0,0,0-.9.61,3.22,3.22,0,0,0-.65.79,1.61,1.61,0,0,0-.25.78,2.83,2.83,0,0,0,.57,1.56,5.23,5.23,0,0,0,1.32,1.37,6.78,6.78,0,0,0,2.05-1.42,2.13,2.13,0,0,0,.74-1.28,3,3,0,0,0-.15-.88,3.39,3.39,0,0,0-.43-.85,3,3,0,0,0-.61-.66A1.15,1.15,0,0,0,916,701.55Zm3.19-7.51L916,691.29l2.61-3.1,3.28,2.7Z"/><path class="cls-3" d="M936.15,713.25a7.23,7.23,0,0,1-3.06-.58,5,5,0,0,1-2.11-1.94,5.86,5.86,0,0,1-2.25,1.92,7.75,7.75,0,0,1-3.24.6h-1.94c-.33,0-.59-.23-.8-.69a4.62,4.62,0,0,1-.32-1.87,4.76,4.76,0,0,1,.32-1.89c.21-.48.47-.72.8-.72h1.85a13.72,13.72,0,0,0,1.87-.11,2.89,2.89,0,0,0,1.21-.45,2,2,0,0,0,.7-.95,5.21,5.21,0,0,0,.27-1.55v-1.89l3.73-1a27,27,0,0,0,.12,2.79,5.08,5.08,0,0,0,.47,1.83,2.11,2.11,0,0,0,1,1,4.87,4.87,0,0,0,1.85.29h2.11v5.17Zm-8.14,9-3.29-2.79,2.61-3.11,3.34,2.75Zm5.76,0-3.29-2.79,2.61-3.11,3.29,2.75Z"/><path class="cls-3" d="M949.34,713.25a5.24,5.24,0,0,1-2.72-.63,4.59,4.59,0,0,1-1.69-1.75,5.26,5.26,0,0,1-4.55,2.38h-1.62c-.33,0-.59-.22-.8-.67a4.46,4.46,0,0,1-.32-1.85,4.76,4.76,0,0,1,.32-1.89c.21-.48.47-.72.8-.72h1.17a3.12,3.12,0,0,0,2.5-.76A3.8,3.8,0,0,0,943,705c0-.27,0-.85,0-1.75s0-2.2-.07-3.89-.08-3.82-.14-6.37-.13-5.61-.22-9.18l4.23-2v19.94c0,1.2,0,2.21.11,3a7.42,7.42,0,0,0,.41,2,2.13,2.13,0,0,0,.85,1.08,3,3,0,0,0,1.51.33h1.71v5.13Z"/><path class="cls-3" d="M969.23,710.51a6.32,6.32,0,0,1-2.07,2,6.12,6.12,0,0,1-3.15.72,7.34,7.34,0,0,1-3.13-.56,4.74,4.74,0,0,1-2-2.14,5.53,5.53,0,0,1-2.13,2.07,5.66,5.66,0,0,1-2.59.63h-2.7q-.49,0-.81-.69a4.62,4.62,0,0,1-.32-1.87,4.76,4.76,0,0,1,.32-1.89q.31-.72.81-.72h2.52a5,5,0,0,0,2.36-.52,1.85,1.85,0,0,0,1-1.82v-2.61l3.74-1c0,1.11,0,2,.11,2.79a5.82,5.82,0,0,0,.45,1.83,2.08,2.08,0,0,0,.95,1,3.73,3.73,0,0,0,1.59.29,6.72,6.72,0,0,0,1.78-.2,2,2,0,0,0,1.55-1.67,7.67,7.67,0,0,0,.14-1.55v-1.53l3.69-1a13.19,13.19,0,0,0,.56,4.48,2.31,2.31,0,0,0,2.41,1.42c1.77,0,2.65-.38,2.65-1.13a2.43,2.43,0,0,0-.2-.81,8.78,8.78,0,0,0-.56-1.19c-.24-.43-.52-.89-.83-1.37s-.66-1-1-1.4l3.33-3.55a14.43,14.43,0,0,1,2.52,4.16,11,11,0,0,1,.81,3.85,7.23,7.23,0,0,1-.49,2.72,5.78,5.78,0,0,1-1.4,2.09,6.31,6.31,0,0,1-2.11,1.33,7.29,7.29,0,0,1-2.7.47Q970.63,713.25,969.23,710.51Z"/><path class="cls-3" d="M993.17,713.25a6.38,6.38,0,0,1-3.38-.78,5.4,5.4,0,0,1-1.93-2.07,8.82,8.82,0,0,1-.9-2.93,30.48,30.48,0,0,1-.27-3.35c-.06-1.38-.11-2.93-.14-4.64s-.06-3.46-.11-5.26-.1-3.6-.18-5.4-.17-3.48-.29-5l4.18-2c0,1.68,0,3.42,0,5.2s0,3.56.09,5.33.09,3.53.13,5.27.08,3.39.11,5c0,.72,0,1.42,0,2.09a6.37,6.37,0,0,0,.31,1.8,2.52,2.52,0,0,0,.88,1.24,3.05,3.05,0,0,0,1.82.45h1.8v5.17Z"/><path class="cls-3" d="M996.9,722.57l-3.42-2.93,2.75-3.24,3.42,2.88Zm4.14-15.71a2.07,2.07,0,0,0-.2-.76,9.53,9.53,0,0,0-.58-1.15c-.26-.43-.54-.89-.86-1.37a17.11,17.11,0,0,0-1-1.4l3.37-3.55a14.43,14.43,0,0,1,2.52,4.16,11,11,0,0,1,.81,3.85,6.44,6.44,0,0,1-1.8,4.93q-1.8,1.68-5.53,1.68h-2.39q-.5,0-.81-.69a4.64,4.64,0,0,1-.31-1.87,4.78,4.78,0,0,1,.31-1.89q.32-.72.81-.72h2.39a8.07,8.07,0,0,0,2.38-.29Q1001,707.49,1001,706.86Z"/><path class="cls-3" d="M869,743.22a26.4,26.4,0,0,1,2.31,4.74,26,26,0,0,1,1.23,4.76,40.93,40.93,0,0,1,.49,5.06c.06,1.74.09,3.61.09,5.6h-1.44c0-1.93-.1-3.71-.24-5.34a38.72,38.72,0,0,0-.65-4.59,25,25,0,0,0-1.19-4.1,28.67,28.67,0,0,0-1.86-3.83Z"/><path class="cls-3" d="M878.2,743.22c.46.89.87,1.63,1.22,2.22a10.74,10.74,0,0,0,1,1.45,3,3,0,0,0,1,.79,2.57,2.57,0,0,0,1.13.24A1.6,1.6,0,0,0,884,747a6.7,6.7,0,0,0,.51-3l1.48-.38a9.44,9.44,0,0,0,.74,3.32,1.65,1.65,0,0,0,1.53,1,1.55,1.55,0,0,0,1.4-1.06,7.85,7.85,0,0,0,.49-3.13l1.7-.48q0,3.91-1,5.59a3,3,0,0,1-2.72,1.69,2.63,2.63,0,0,1-1.73-.54,3.39,3.39,0,0,1-1-1.32,3,3,0,0,1-2.84,2,2.72,2.72,0,0,1-.78-.11A1.62,1.62,0,0,1,881,750a24.65,24.65,0,0,1,1.13,6.09q.23,3.3.22,7.26h-1.44c0-1.93-.1-3.71-.24-5.34a34.71,34.71,0,0,0-.68-4.58,26.14,26.14,0,0,0-1.23-4.08,26.43,26.43,0,0,0-1.86-3.83Z"/><path class="cls-3" d="M904.15,763.54a10.05,10.05,0,0,1-1.23-2.13,16.54,16.54,0,0,1-.83-2.52,20.4,20.4,0,0,1-.49-2.78c-.11-1-.17-2-.19-2.93l-.83,0c-.33,0-.64,0-.93,0a12.6,12.6,0,0,1-2-.14,4.08,4.08,0,0,1-1.45-.52,2.49,2.49,0,0,1-.91-1,3.89,3.89,0,0,1-.31-1.67,7.06,7.06,0,0,1,.37-2.17,9.72,9.72,0,0,1,1-2.16,6.76,6.76,0,0,1,1.47-1.66,2.76,2.76,0,0,1,4.36,1.08,13.06,13.06,0,0,1,.88,5.6c0,.88,0,1.8,0,2.74a21.92,21.92,0,0,0,.28,2.81,14.65,14.65,0,0,0,.73,2.69,8.49,8.49,0,0,0,1.37,2.41Zm-2.71-12.63a17.66,17.66,0,0,0-.11-2.14,8.67,8.67,0,0,0-.34-1.69,2.94,2.94,0,0,0-.62-1.1,1.23,1.23,0,0,0-.91-.39,1.76,1.76,0,0,0-1.06.39,4.08,4.08,0,0,0-.91,1,5.16,5.16,0,0,0-.63,1.29,4.09,4.09,0,0,0-.24,1.3,1.31,1.31,0,0,0,.82,1.06,5.6,5.6,0,0,0,2.21.33h1C900.92,750.94,901.19,750.93,901.44,750.91Z"/><path class="cls-3" d="M910.86,749.9A24.6,24.6,0,0,1,912,756c.14,2.19.22,4.64.22,7.35H910.8q0-2.89-.24-5.34a34.71,34.71,0,0,0-.68-4.58,27.25,27.25,0,0,0-1.22-4.08,28.67,28.67,0,0,0-1.86-3.83l1.26-2.33c.44.84.85,1.56,1.23,2.15a9.14,9.14,0,0,0,1.11,1.44,3.75,3.75,0,0,0,1.17.84,3.54,3.54,0,0,0,1.43.27q2.78,0,2.77-4.22l1.74-.48a17.48,17.48,0,0,1-.24,3,7.51,7.51,0,0,1-.77,2.33,3.78,3.78,0,0,1-1.42,1.49,4.18,4.18,0,0,1-2.17.52,3.89,3.89,0,0,1-1.07-.15A2.7,2.7,0,0,1,910.86,749.9Z"/><path class="cls-3" d="M958.21,762.75a5.1,5.1,0,0,1-2.35-.47,3,3,0,0,1-1.4-1.64,3.65,3.65,0,0,1-3.41,2.11,3.19,3.19,0,0,1-1.82-.52,3.41,3.41,0,0,1-1.26-1.62,4,4,0,0,1-3.69,2.14,3,3,0,0,1-2.36-.88,5.51,5.51,0,0,1,.08.71,5,5,0,0,1,0,.68,9.2,9.2,0,0,1-.72,3.21,7.38,7.38,0,0,1-1.75,2.49,7.87,7.87,0,0,1-2.69,1.61,10.68,10.68,0,0,1-3.56.56,8.69,8.69,0,0,1-3-.47,6.55,6.55,0,0,1-2.3-1.37,6,6,0,0,1-1.49-2.21,7.63,7.63,0,0,1-.54-2.94,9.27,9.27,0,0,1,.41-2.84,12,12,0,0,1,1.29-2.67l1.45.72a10.61,10.61,0,0,0-1,2.16,7,7,0,0,0-.34,2.13,4.72,4.72,0,0,0,1.51,3.71,6.07,6.07,0,0,0,4.19,1.36,8.16,8.16,0,0,0,2.74-.43,5.85,5.85,0,0,0,2.08-1.21,5.36,5.36,0,0,0,1.32-1.91,6.18,6.18,0,0,0,.47-2.47,7.76,7.76,0,0,0-.48-2.49,13.92,13.92,0,0,0-1.34-2.71l1.76-1.51,1,1.81a9.3,9.3,0,0,0,.88,1.37,3.5,3.5,0,0,0,1,.87,2.63,2.63,0,0,0,1.32.3,2.51,2.51,0,0,0,2.93-2.93v-1.07l1.79-.44a7.83,7.83,0,0,0,.54,3.43,1.82,1.82,0,0,0,1.73,1,2.54,2.54,0,0,0,1.67-.57,2.6,2.6,0,0,0,.76-2v-1.45l1.79-.44a12.89,12.89,0,0,0,.13,2,3.68,3.68,0,0,0,.46,1.38,1.93,1.93,0,0,0,.93.81,4.13,4.13,0,0,0,1.54.25h1.13v2.42Z"/><path class="cls-3" d="M968.63,762.75a5.12,5.12,0,0,1-2.35-.47,3.31,3.31,0,0,1-1.46-1.61,4.08,4.08,0,0,1-1.56,1.58,4.84,4.84,0,0,1-2.35.5h-1.29a.61.61,0,0,1-.53-.34,1.61,1.61,0,0,1-.22-.89,1.5,1.5,0,0,1,.22-.86.62.62,0,0,1,.53-.33h1.29a3.76,3.76,0,0,0,2.29-.58,3,3,0,0,0,.83-2.23l0-1.19,1.77-.44A15.52,15.52,0,0,0,966,758a3.35,3.35,0,0,0,.48,1.37,1.93,1.93,0,0,0,1,.74,5,5,0,0,0,1.59.22h1.23v2.42ZM963,768.52,961.1,767l1.36-1.6,1.82,1.54Zm3.75,0L964.88,767l1.39-1.6,1.79,1.54Z"/><path class="cls-3" d="M982.81,760.61a4.3,4.3,0,0,1-1.48,1.61,4.38,4.38,0,0,1-2.3.53,4.8,4.8,0,0,1-2.26-.45,3.43,3.43,0,0,1-1.37-1.66,4.16,4.16,0,0,1-1.52,1.61,4.06,4.06,0,0,1-2,.5h-1.63a.64.64,0,0,1-.54-.34,1.61,1.61,0,0,1-.22-.89,1.5,1.5,0,0,1,.22-.86.65.65,0,0,1,.54-.33h1.51a3.51,3.51,0,0,0,2-.57,2.39,2.39,0,0,0,.88-2v-1.45l1.76-.44a13.89,13.89,0,0,0,.13,2.11,3.68,3.68,0,0,0,.44,1.37,1.82,1.82,0,0,0,.82.74,3.24,3.24,0,0,0,1.26.22,3.1,3.1,0,0,0,2.22-.66,3.29,3.29,0,0,0,.74-2.27v-1.07l1.76-.44a7.46,7.46,0,0,0,.57,3.43,2.15,2.15,0,0,0,2,1,4.11,4.11,0,0,0,.77-.08,2.77,2.77,0,0,0,.72-.24,1.49,1.49,0,0,0,.54-.41.87.87,0,0,0,.2-.6,4.42,4.42,0,0,0-.39-1.37,11,11,0,0,0-1.31-2.22l1.64-1.7a8.37,8.37,0,0,1,1.48,2.59,7.23,7.23,0,0,1,.47,2.39,3.8,3.8,0,0,1-1.21,3,4.36,4.36,0,0,1-3,1.08,4.05,4.05,0,0,1-2.2-.53A3.28,3.28,0,0,1,982.81,760.61Z"/><path class="cls-3" d="M998.68,741.46,992,743.22V742l1.77-.6a2.06,2.06,0,0,1-.69-.82,2.15,2.15,0,0,1-.23-.91,2.37,2.37,0,0,1,.23-1,2.42,2.42,0,0,1,.59-.82,2.92,2.92,0,0,1,.87-.55,2.52,2.52,0,0,1,1-.21,3.19,3.19,0,0,1,2,.69l-.35,1a5.23,5.23,0,0,0-.81-.22,4.83,4.83,0,0,0-.8-.06,1.77,1.77,0,0,0-1,.28.84.84,0,0,0-.43.73,1.09,1.09,0,0,0,.51.88,1.83,1.83,0,0,0,1.13.38,12,12,0,0,0,3-.79Zm.32,21.29a4.37,4.37,0,0,1-2.38-.53,3.11,3.11,0,0,1-1.21-1.39,5.53,5.53,0,0,1-.46-2c-.05-.74-.09-1.48-.11-2.24,0-1.07-.07-2.06-.08-3l0-2.69c0-.89,0-1.82-.08-2.79s-.11-2.05-.19-3.24l2-.89c0,1.43.07,2.61.09,3.53s0,1.72,0,2.4c0,.94,0,1.85,0,2.74s0,1.79,0,2.74c0,.63,0,1.24.08,1.82a5.28,5.28,0,0,0,.35,1.55,2.5,2.5,0,0,0,.78,1.07,2.19,2.19,0,0,0,1.37.41h1v2.42Z"/><path class="cls-3" d="M1004.23,759a4.66,4.66,0,0,0-.38-1.34,10.35,10.35,0,0,0-1.29-2.22l1.6-1.7a8.37,8.37,0,0,1,1.48,2.59,7.27,7.27,0,0,1,.48,2.39,3.75,3.75,0,0,1-1.22,3,5.65,5.65,0,0,1-3.76,1h-1a.61.61,0,0,1-.53-.34,1.61,1.61,0,0,1-.22-.89,1.5,1.5,0,0,1,.22-.86.62.62,0,0,1,.53-.33h1a6.56,6.56,0,0,0,2.14-.32C1003.92,759.8,1004.23,759.46,1004.23,759Zm-2-7.71-1.86-1.55,1.36-1.6,1.82,1.54Zm3.75,0-1.83-1.55,1.39-1.6,1.79,1.54Z"/><path class="cls-3" d="M870,573.75a99.11,99.11,0,0,1-99-99v-90h18v90a81,81,0,0,0,162,0v-90h18v90A99.11,99.11,0,0,1,870,573.75Z"/><polygon class="cls-3" points="1073.59 571.12 1060.86 558.39 1131 488.25 1131 438.75 1149 438.75 1149 495.7 1073.59 571.12"/><rect class="cls-3" x="861" y="384.75" width="18" height="36"/><rect class="cls-3" x="1131" y="384.75" width="18" height="36"/><rect class="cls-3" x="951" y="591.75" width="18" height="36"/><rect class="cls-3" x="987" y="591.75" width="18" height="36"/><polygon class="cls-3" points="966.36 475.84 953.64 463.11 996 420.75 996 384.75 1014 384.75 1014 428.2 966.36 475.84"/><polygon class="cls-3" points="966.36 529.84 953.64 517.11 1032 438.75 1032 384.75 1050 384.75 1050 446.2 966.36 529.84"/><polygon class="cls-3" points="976.45 573.75 951 573.75 951 384.75 969 384.75 969 555.75 1068 456.75 1068 384.75 1086 384.75 1086 464.2 976.45 573.75"/></g></svg>