<svg xmlns="http://www.w3.org/2000/svg" xmlns:xlink="http://www.w3.org/1999/xlink" viewBox="0 0 1920 1080"><defs><style>.cls-1{fill:#082b96;}.cls-2{fill:#4672e2;}.cls-3{fill:#fff;}.cls-4{fill:url(#linear-gradient);}.cls-5{fill:url(#linear-gradient-2);}.cls-6{fill:url(#linear-gradient-3);}.cls-7{fill:url(#linear-gradient-4);}.cls-8{fill:url(#linear-gradient-5);}</style><linearGradient id="linear-gradient" x1="-18916.04" y1="7020" x2="-17499.64" y2="7020" gradientTransform="translate(-17500 7884) rotate(180)" gradientUnits="userSpaceOnUse"><stop offset="0" stop-color="#fff" stop-opacity="0"/><stop offset="0.51" stop-color="#fff"/><stop offset="1" stop-color="#fff" stop-opacity="0"/></linearGradient><linearGradient id="linear-gradient-2" x1="-19420" y1="7740" x2="-17499.64" y2="7740" xlink:href="#linear-gradient"/><linearGradient id="linear-gradient-3" x1="-19420" y1="6948" x2="-17499.64" y2="6948" xlink:href="#linear-gradient"/><linearGradient id="linear-gradient-4" x1="1038.43" y1="-1776.43" x2="2118.43" y2="-1776.43" gradientTransform="translate(-1428.43 -1038.43) rotate(90)" xlink:href="#linear-gradient"/><linearGradient id="linear-gradient-5" x1="1038.43" y1="-3000.43" x2="2118.43" y2="-3000.43" gradientTransform="translate(-1428.43 -1038.43) rotate(90)" xlink:href="#linear-gradient"/></defs><g id="Background"><rect class="cls-1" width="1920" height="1080"/></g><g id="Graphics"><polygon class="cls-2" points="744 576 635.7 576 712.24 456 648 456 648 432 756.02 432 679.47 552 744 552 744 576"/><polygon class="cls-2" points="875.72 576 780.03 576 779.69 432 875.72 432 875.72 456 803.74 456 803.97 552 875.72 552 875.72 576"/><rect class="cls-2" x="791.71" y="492" width="84" height="24"/><polygon class="cls-2" points="1008 576 912 576 912 432 1008 432 1008 456 936 456 936 552 1008 552 1008 576"/><rect class="cls-2" x="924" y="492" width="84" height="24"/><polygon class="cls-2" points="1140 576 1044 576 1044 432 1140 432 1140 456 1068 456 1068 552 1140 552 1140 576"/><rect class="cls-2" x="1056" y="492" width="84" height="24"/><polygon class="cls-2" points="1284 576 1260.09 576 1200 477.93 1200 576 1176 576 1176 432 1200 432 1260 529.91 1260 432 1284 432 1284 576"/><path class="cls-3" d="M756.48,432.5H744v-1h11.5v-5.26h1Zm-16.5,0H728v-1h12Zm-16,0H712v-1h12Zm-16,0H696v-1h12Zm-16,0H680v-1h12Zm-16,0H664v-1h12Zm-16,0H648v-1h12Zm-9.89-3.35-.85-.53,6.46-10.12.84.54Zm106.39-6.91h-1v-12h1Zm-97.79-6.58-.84-.53L664.3,405l.85.54Zm95.53-7.16h-12v-1h12Zm-16,0h-12v-1h12Zm-16,0h-12v-1h12Zm-16,0h-12v-1h12Zm-13.68-1.27-.84-.54,6.45-10.12.84.54Zm-25.24-5.06-.85-.53,6.46-10.12.84.54Zm33.84-8.43-.84-.54,6.45-10.11.85.53Zm-25.24-5.05-.84-.54L681.51,378l.85.54Zm33.85-8.44-.85-.54,6.46-10.11.84.53Zm-25.24-5.05-.85-.54,6.46-10.12.84.54Zm33.84-8.44-.84-.54L724,356.11l.85.54Zm-25.24-5.05-.84-.54,6.45-10.12.84.54ZM727,353.27l-.85-.54,6.46-10.11.84.54Zm-25.24-5-.85-.54,6.46-10.12.84.54Zm33.84-8.44-.84-.53,6.45-10.12.85.54Zm-25.24-5-.84-.54,6.45-10.12.84.54Zm33.85-8.44-.85-.53,6.46-10.12.84.54Zm-25.25-5.05-.84-.54,5.23-8.2h-.45v-1h2.28Zm33.85-8.44-.84-.53,6.45-10.12.84.54Zm-33.91-.3h-12v-1h12Zm-16,0h-12v-1h12Zm-16,0h-12v-1h12Zm-16,0H659.48v-1.62h1v.62h10.38Zm-10.38-5.62h-1v-12h1Zm100.9-7.56-.85-.54L767,288.66l.84.54Zm-100.9-8.44h-1V287.5h9.62v1h-8.62ZM765.1,288.5h-12v-1h12Zm-16,0h-12v-1h12Zm-16,0h-12v-1h12Zm-16,0h-12v-1h12Zm-16,0h-12v-1h12Zm-16,0h-12v-1h12Z"/><path class="cls-3" d="M756.48,288.5H744v-1h11.5v-5.26h1Zm-16.5,0H728v-1h12Zm-16,0H712v-1h12Zm-16,0H696v-1h12Zm-16,0H680v-1h12Zm-16,0H664v-1h12Zm-16,0H648v-1h12Zm-9.89-3.35-.85-.53,6.46-10.12.84.54Zm106.39-6.91h-1v-12h1Zm-97.79-6.58-.84-.53L664.3,261l.85.54Zm95.53-7.16h-12v-1h12Zm-16,0h-12v-1h12Zm-16,0h-12v-1h12Zm-16,0h-12v-1h12Zm-13.68-1.27-.84-.54,6.45-10.12.84.54Zm-25.24-5.06-.85-.53,6.46-10.12.84.54Zm33.84-8.43-.84-.54,6.45-10.11.85.53Zm-25.24-5.05-.84-.54L681.51,234l.85.54Zm33.85-8.44-.85-.54,6.46-10.11.84.53Zm-25.24-5.05-.85-.54,6.46-10.12.84.54Zm33.84-8.44-.84-.54L724,212.11l.85.53Zm-25.24-5-.84-.54,6.45-10.12.84.54ZM727,209.27l-.85-.54,6.46-10.11.84.54Zm-25.24-5.05-.85-.54,6.46-10.12.84.54Zm33.84-8.44-.84-.53,6.45-10.12.85.54Zm-25.24-5.05-.84-.54,6.45-10.12.84.54Zm33.85-8.44-.85-.53,6.46-10.12.84.54Zm-25.25-5-.84-.54,5.23-8.2h-.45v-1h2.28Zm33.85-8.44-.84-.53,6.45-10.12.84.54Zm-33.91-.3h-12v-1h12Zm-16,0h-12v-1h12Zm-16,0h-12v-1h12Zm-16,0H659.48v-1.62h1v.62h10.38Zm-10.38-5.62h-1v-12h1Zm100.9-7.56-.85-.54L767,144.66l.84.54Zm-100.9-8.44h-1V143.5h9.62v1h-8.62ZM765.1,144.5h-12v-1h12Zm-16,0h-12v-1h12Zm-16,0h-12v-1h12Zm-16,0h-12v-1h12Zm-16,0h-12v-1h12Zm-16,0h-12v-1h12Z"/><path class="cls-3" d="M636.5,576h-1V564h1Zm-3.88-1.27L622.5,568.3l.54-.84,10.11,6.45Zm-13.49-8.6L609,559.7l.54-.85,10.11,6.46ZM516.5,564.52h-1.62v-1h.62V553.14h1Zm-5.62,0h-12v-1h12Zm-16,0H491.5V554.9h1v8.62h2.38ZM636.5,560h-1V548h1Zm-30.86-2.47-10.12-6.46.54-.84,10.11,6.45ZM492.5,550.9h-1v-12h1Zm24-1.76h-1v-12h1Zm75.65-.2L582,542.49l.54-.84,10.12,6.45ZM636.5,544h-1V532h1Zm-57.84-3.68-10.12-6.46.54-.84,10.12,6.45ZM492.5,534.9h-1v-12h1Zm24-1.76h-1v-12h1Zm94.19-.84-10.11-6.45.53-.84,10.12,6.45Zm-45.52-.57-10.12-6.45.54-.84,10.12,6.45Zm47.33-2h-1v-12h1Zm24-1.76h-1V516h1Zm-39.3-4.32-10.11-6.45.53-.85,10.12,6.46Zm-45.52-.57-10.12-6.46.54-.84,10.12,6.45ZM492.5,518.9h-1v-12h1Zm24-1.76h-1v-12h1Zm67.21-2-10.11-6.46.53-.84,10.12,6.45Zm-45.52-.58-10.12-6.45.54-.84,10.12,6.45Zm74.31-.74h-1v-12h1Zm24-1.76h-1V500h1Zm-66.27-5.53L560.11,500l.54-.85,10.11,6.46Zm-45.53-.57-8.2-5.23v.45h-1v-2.28l9.74,6.22Zm-32.2-3h-1v-12h1Zm64.24-5-10.12-6.46.54-.84L557.27,497Zm55.76-.11h-1v-12h1Zm24-1.76h-1V484h1Zm-93.25-6.74-10.12-6.45.54-.84,10.11,6.45ZM492.5,486.9h-1v-12h1Zm120-5.12h-1v-12h1Zm-82.74-1.1-10.12-6.46.54-.84,10.11,6.45ZM636.5,480h-1v-11.5h-5.26v-1h6.26Zm-120.23-7.95-10.12-6.45.54-.84,10.12,6.45ZM492.5,470.9h-1v-12h1Zm133.74-2.38h-12v-1h12Zm-123.46-5L492.66,457l.54-.85,10.12,6.46Z"/><path class="cls-3" d="M492.5,576h-1V564h1Zm-3.88-1.27L478.5,568.3l.54-.84,10.11,6.45Zm-13.49-8.6L465,559.7l.54-.85,10.11,6.46ZM372.5,564.52h-1.62v-1h.62V553.14h1Zm-5.62,0h-12v-1h12Zm-16,0H347.5V554.9h1v8.62h2.38ZM492.5,560h-1V548h1Zm-30.86-2.47-10.12-6.46.54-.84,10.11,6.45ZM348.5,550.9h-1v-12h1Zm24-1.76h-1v-12h1Zm75.65-.2L438,542.49l.54-.84,10.12,6.45ZM492.5,544h-1V532h1Zm-57.84-3.68-10.12-6.46.54-.84,10.12,6.45ZM348.5,534.9h-1v-12h1Zm24-1.76h-1v-12h1Zm94.19-.84-10.11-6.45.53-.84,10.12,6.45Zm-45.52-.57-10.12-6.45.54-.84,10.12,6.45Zm47.33-2h-1v-12h1Zm24-1.76h-1V516h1Zm-39.3-4.32-10.11-6.45.53-.85,10.12,6.46Zm-45.52-.57-10.12-6.46.54-.84,10.12,6.45ZM348.5,518.9h-1v-12h1Zm24-1.76h-1v-12h1Zm67.21-2-10.11-6.46.53-.84,10.12,6.45Zm-45.52-.58-10.12-6.45.54-.84,10.12,6.45Zm74.31-.74h-1v-12h1Zm24-1.76h-1V500h1Zm-66.27-5.53L416.11,500l.54-.85,10.11,6.46Zm-45.53-.57-8.2-5.23v.45h-1v-2.28l9.74,6.22Zm-32.2-3h-1v-12h1Zm64.24-5-10.12-6.46.54-.84L413.27,497Zm55.76-.11h-1v-12h1Zm24-1.76h-1V484h1Zm-93.25-6.74-10.12-6.45.54-.84,10.11,6.45ZM348.5,486.9h-1v-12h1Zm120-5.12h-1v-12h1Zm-82.74-1.1-10.12-6.46.54-.84,10.11,6.45ZM492.5,480h-1v-11.5h-5.26v-1h6.26Zm-120.23-7.95-10.12-6.45.54-.84,10.12,6.45ZM348.5,470.9h-1v-12h1Zm133.74-2.38h-12v-1h12Zm-123.46-5L348.66,457l.54-.85,10.12,6.46Z"/><path class="cls-3" d="M1426.8,576.15l-10.12-6.45.54-.85,10.12,6.46Zm1.7-2.73h-1v-12h1Zm-15.19-5.88-10.12-6.45.54-.84,10.12,6.45Zm-107.55-2.74h-12v-1h12Zm-16,0h-6.26V552.3h1v11.5h5.26Zm18.74-2.26h-1v-12h1Zm91.32-3.6-10.11-6.45.53-.85,10.12,6.46Zm28.68-1.52h-1v-12h1Zm-42.17-7.09-10.11-6.45.53-.84,10.12,6.45Zm-101.83-2h-1v-12h1Zm24-1.76h-1v-12h1Zm64.34-4.81-10.11-6.45.53-.85,10.12,6.46Zm55.66-.31h-1v-12h1Zm-24-8-9.74-6.21.54-.85,8.2,5.23v-.44h1Zm-45.15-.33-10.11-6.46.53-.84,10.12,6.45Zm-74.85-.83h-1v-12h1Zm24-1.76h-1v-12h1Zm96-3.35h-1v-12h1Zm24-1.77h-1v-12h1Zm-37.11-.33-10.12-6.45.54-.84,10.12,6.45Zm-45.52-.57-10.12-6.45.54-.84,10.11,6.45Zm32-8L1367.78,510l.54-.85,10.12,6.46Zm-93.4-.19h-1v-12h1Zm47.88-.38-10.12-6.46.54-.84,10.11,6.45Zm-23.88-1.38h-1v-12h1Zm96-3.35h-1v-12h1Zm24-1.77h-1v-12h1Zm-64.09-1.54-10.12-6.45.54-.84L1365,507Zm-45.52-.57-10.12-6.45.54-.84,10.11,6.45Zm-34.39-7h-1v-12h1Zm66.42-1-10.12-6.45.54-.85,10.12,6.46Zm53.58-4.09h-1v-12h1Zm24-1.77h-1v-12h1Zm-91.07-2.74-10.12-6.46.54-.84,10.12,6.45Zm-52.93-6.38h-1v-12h1Zm39.44-2.23-10.11-6.45.53-.85,10.12,6.46Zm80.56-2.88h-1V467.8h1.62v1h-.62Zm24-1.77h-1V468.8h-2.38v-1h3.38Zm-118-3.95L1300.34,467l.53-.84,10.12,6.45Zm110.67-4.67h-12v-1h12Zm-136.62-.5h-1v-12h1Zm12.46-3.44-10.11-6.45.53-.84L1297.5,464Z"/><path class="cls-3" d="M756.48,720.5H744v-1h11.5v-5.26h1Zm-16.5,0H728v-1h12Zm-16,0H712v-1h12Zm-16,0H696v-1h12Zm-16,0H680v-1h12Zm-16,0H664v-1h12Zm-16,0H648v-1h12Zm-9.89-3.35-.85-.53,6.46-10.12.84.54Zm106.39-6.91h-1v-12h1Zm-97.79-6.58-.84-.53L664.3,693l.85.54Zm95.53-7.16h-12v-1h12Zm-16,0h-12v-1h12Zm-16,0h-12v-1h12Zm-16,0h-12v-1h12Zm-13.68-1.27-.84-.54,6.45-10.12.84.54Zm-25.24-5.06-.85-.53,6.46-10.12.84.54Zm33.84-8.43-.84-.54,6.45-10.11.85.53Zm-25.24-5-.84-.54L681.51,666l.85.54Zm33.85-8.44-.85-.54,6.46-10.11.84.53Zm-25.24-5-.85-.54,6.46-10.12.84.54Zm33.84-8.44-.84-.54L724,644.11l.85.54Zm-25.24-5-.84-.54,6.45-10.12.84.54ZM727,641.27l-.85-.54,6.46-10.11.84.54Zm-25.24-5-.85-.54,6.46-10.12.84.54Zm33.84-8.44-.84-.53,6.45-10.12.85.54Zm-25.24-5-.84-.54,6.45-10.12.84.54Zm33.85-8.44-.85-.53,6.46-10.12.84.54Zm-25.25-5-.84-.54,5.23-8.2h-.45v-1h2.28Zm33.85-8.44-.84-.53,6.45-10.12.84.54Zm-33.91-.3h-12v-1h12Zm-16,0h-12v-1h12Zm-16,0h-12v-1h12Zm-16,0H659.48v-1.62h1v.62h10.38Zm-10.38-5.62h-1v-12h1Zm100.9-7.56-.85-.54L767,576.66l.84.54Zm-100.9-8.44h-1V575.5h9.62v1h-8.62ZM765.1,576.5h-12v-1h12Zm-16,0h-12v-1h12Zm-16,0h-12v-1h12Zm-16,0h-12v-1h12Zm-16,0h-12v-1h12Zm-16,0h-12v-1h12Z"/><path class="cls-3" d="M756.48,864.5H744v-1h11.5v-5.26h1Zm-16.5,0H728v-1h12Zm-16,0H712v-1h12Zm-16,0H696v-1h12Zm-16,0H680v-1h12Zm-16,0H664v-1h12Zm-16,0H648v-1h12Zm-9.89-3.35-.85-.53,6.46-10.12.84.54Zm106.39-6.91h-1v-12h1Zm-97.79-6.58-.84-.53L664.3,837l.85.54Zm95.53-7.16h-12v-1h12Zm-16,0h-12v-1h12Zm-16,0h-12v-1h12Zm-16,0h-12v-1h12Zm-13.68-1.27-.84-.54,6.45-10.12.84.54Zm-25.24-5.06-.85-.53,6.46-10.12.84.54Zm33.84-8.43-.84-.54,6.45-10.11.85.53Zm-25.24-5-.84-.54L681.51,810l.85.54Zm33.85-8.44-.85-.54,6.46-10.11.84.53Zm-25.24-5-.85-.54,6.46-10.12.84.54Zm33.84-8.44-.84-.54L724,788.11l.85.54Zm-25.24-5-.84-.54,6.45-10.12.84.54ZM727,785.27l-.85-.54,6.46-10.11.84.54Zm-25.24-5-.85-.54,6.46-10.12.84.54Zm33.84-8.44-.84-.53,6.45-10.12.85.54Zm-25.24-5-.84-.54,6.45-10.12.84.54Zm33.85-8.44-.85-.53,6.46-10.12.84.54Zm-25.25-5-.84-.54,5.23-8.2h-.45v-1h2.28Zm33.85-8.44-.84-.53,6.45-10.12.84.54Zm-33.91-.3h-12v-1h12Zm-16,0h-12v-1h12Zm-16,0h-12v-1h12Zm-16,0H659.48v-1.62h1v.62h10.38Zm-10.38-5.62h-1v-12h1Zm100.9-7.56-.85-.54L767,720.66l.84.54Zm-100.9-8.44h-1V719.5h9.62v1h-8.62ZM765.1,720.5h-12v-1h12Zm-16,0h-12v-1h12Zm-16,0h-12v-1h12Zm-16,0h-12v-1h12Zm-16,0h-12v-1h12Zm-16,0h-12v-1h12Z"/><path class="cls-3" d="M756.48,1008.5H744v-1h11.5v-5.26h1Zm-16.5,0H728v-1h12Zm-16,0H712v-1h12Zm-16,0H696v-1h12Zm-16,0H680v-1h12Zm-16,0H664v-1h12Zm-16,0H648v-1h12Zm-9.89-3.35-.85-.53,6.46-10.12.84.54Zm106.39-6.91h-1v-12h1Zm-97.79-6.58-.84-.53L664.3,981l.85.54Zm95.53-7.16h-12v-1h12Zm-16,0h-12v-1h12Zm-16,0h-12v-1h12Zm-16,0h-12v-1h12Zm-13.68-1.27-.84-.54,6.45-10.12.84.54Zm-25.24-5.06-.85-.53,6.46-10.12.84.54Zm33.84-8.43-.84-.54,6.45-10.11.85.53Zm-25.24-5-.84-.54L681.51,954l.85.54Zm33.85-8.44-.85-.54,6.46-10.11.84.53Zm-25.24-5-.85-.54,6.46-10.12.84.54Zm33.84-8.44-.84-.54L724,932.11l.85.54Zm-25.24-5-.84-.54,6.45-10.12.84.54ZM727,929.27l-.85-.54,6.46-10.11.84.54Zm-25.24-5-.85-.54,6.46-10.12.84.54Zm33.84-8.44-.84-.53,6.45-10.12.85.54Zm-25.24-5-.84-.54,6.45-10.12.84.54Zm33.85-8.44-.85-.53,6.46-10.12.84.54Zm-25.25-5-.84-.54,5.23-8.2h-.45v-1h2.28Zm33.85-8.44-.84-.53,6.45-10.12.84.54Zm-33.91-.3h-12v-1h12Zm-16,0h-12v-1h12Zm-16,0h-12v-1h12Zm-16,0H659.48v-1.62h1v.62h10.38Zm-10.38-5.62h-1v-12h1Zm100.9-7.56-.85-.54L767,864.66l.84.54Zm-100.9-8.44h-1V863.5h9.62v1h-8.62ZM765.1,864.5h-12v-1h12Zm-16,0h-12v-1h12Zm-16,0h-12v-1h12Zm-16,0h-12v-1h12Zm-16,0h-12v-1h12Zm-16,0h-12v-1h12Z"/><rect class="cls-4" x="-0.36" y="863.5" width="1416.41" height="1"/><rect class="cls-5" x="-0.36" y="143.5" width="1920.36" height="1"/><rect class="cls-6" x="-0.36" y="935.5" width="1920.36" height="1"/><rect class="cls-7" x="347.5" width="1" height="1080"/><rect class="cls-8" x="1571.5" width="1" height="1080"/><path class="cls-2" d="M664.06,653.68H645.78L641.85,664H636l16.26-42h5.8l16.08,42h-6.29Zm-16.44-4.8h14.65l-7.21-19.58Z"/><path class="cls-2" d="M683.5,664h-5.33V634h5.22v5.45Q686.32,634,692,634h2.32v5h-2.38a7.09,7.09,0,0,0-6.12,3.3c-1.52,2.19-2.29,5.16-2.29,8.89Z"/><path class="cls-2" d="M698.55,638.39V634h5.28v-9.67h5.33V634h7.56v4.4h-7.56v16.78a5,5,0,0,0,.83,3.31,3.72,3.72,0,0,0,2.89.94h4.57V664h-5.39a8.4,8.4,0,0,1-6.12-2.06,8.05,8.05,0,0,1-2.11-6V638.39Z"/><path class="cls-2" d="M726.91,629.13h-5.34V622h5.34Zm0,34.86h-5.34V634h5.34Z"/><path class="cls-2" d="M745,664.72c-3.89,0-7-.88-9.26-2.66a9.57,9.57,0,0,1-3.75-7.24l5.33-.79a7.28,7.28,0,0,0,2.27,4.89,8.1,8.1,0,0,0,5.41,1.59,7.47,7.47,0,0,0,4.73-1.29,4.58,4.58,0,0,0,1.62-3.81c0-2.38-1.75-3.82-5.27-4.31l-4.31-.67a12,12,0,0,1-6.57-2.84,7.41,7.41,0,0,1-2.27-5.63,7.63,7.63,0,0,1,3.07-6.27,12.88,12.88,0,0,1,8.21-2.43,13.06,13.06,0,0,1,8.22,2.39,10.45,10.45,0,0,1,3.79,6.87l-4.92.7a7.72,7.72,0,0,0-2.42-4.41,9.06,9.06,0,0,0-9.16-.17,3.57,3.57,0,0,0-1.61,3,3.53,3.53,0,0,0,1.1,2.75,6.84,6.84,0,0,0,3.56,1.38l4.81.79q9.11,1.47,9.11,8.58a8.57,8.57,0,0,1-3.14,7Q750.37,664.73,745,664.72Z"/><path class="cls-2" d="M758.15,638.39V634h5.28v-9.67h5.33V634h7.56v4.4h-7.56v16.78a5,5,0,0,0,.84,3.31,3.68,3.68,0,0,0,2.88.94h4.57V664h-5.39a8.4,8.4,0,0,1-6.12-2.06,8.05,8.05,0,0,1-2.11-6V638.39Z"/><path class="cls-2" d="M786.51,629.13h-5.33V622h5.33Zm0,34.86h-5.33V634h5.33Z"/><path class="cls-2" d="M806.1,660.15a7.68,7.68,0,0,0,5.42-1.89A8.24,8.24,0,0,0,814,653l5.22.61a12,12,0,0,1-4.15,8.13,13.31,13.31,0,0,1-8.95,3q-6.58,0-10.37-4.21c-2.52-2.82-3.78-6.61-3.78-11.4s1.28-8.66,3.84-11.51a13.19,13.19,0,0,1,10.31-4.34,13.66,13.66,0,0,1,9.08,2.89,12.35,12.35,0,0,1,4.19,8.15l-5.45.62q-1.08-7.09-7.88-7.09a7.52,7.52,0,0,0-6.33,3c-1.5,2-2.25,4.75-2.25,8.32s.76,6.19,2.27,8.13A7.62,7.62,0,0,0,806.1,660.15Z"/><path class="cls-2" d="M850,659.54h1.43V664h-2.9a6.57,6.57,0,0,1-4-1.13,4.17,4.17,0,0,1-1.79-3.12,10.5,10.5,0,0,1-9.49,5,11.24,11.24,0,0,1-7.56-2.44,7.93,7.93,0,0,1-2.87-6.32,8.38,8.38,0,0,1,2.34-6.13,11.91,11.91,0,0,1,6.71-3.12l8.76-1.5a2,2,0,0,0,1.88-2.17,5,5,0,0,0-1.76-4,7,7,0,0,0-4.81-1.54,7.76,7.76,0,0,0-4.83,1.36,7.14,7.14,0,0,0-2.46,4.2l-5.07-.58a10.24,10.24,0,0,1,4.09-6.71,13.67,13.67,0,0,1,8.48-2.55q5.39,0,8.48,2.87a9.93,9.93,0,0,1,3.09,7.65v13.5a2.47,2.47,0,0,0,.5,1.76A2.42,2.42,0,0,0,850,659.54Zm-21.86-4a4.42,4.42,0,0,0,1.53,3.58,6.36,6.36,0,0,0,4.24,1.29,8,8,0,0,0,6.26-2.74,10.21,10.21,0,0,0,2.45-7.05v-1.73L833,650.6a6.26,6.26,0,0,0-3.62,1.67A4.58,4.58,0,0,0,828.11,655.58Z"/><path class="cls-2" d="M860.51,664h-5.33V622h5.33Z"/><path class="cls-2" d="M873.22,664h-5.33V622h5.33Z"/><path class="cls-2" d="M888,666.8l1-2.63L877.23,634h5.62l8.88,23.59,9-23.59h5.39L893,667.36q-1.72,4.42-4.07,6.07a10.24,10.24,0,0,1-6.19,1.67h-3.1v-4.52h3.1a5.7,5.7,0,0,0,3.31-.85A5.8,5.8,0,0,0,888,666.8Z"/><path class="cls-2" d="M927.87,664H922.1V622h29.47v4.92h-23.7v13.68h21.3v4.93h-21.3Z"/><path class="cls-2" d="M960.44,664h-5.33V634h5.21v5.45q2.94-5.45,8.59-5.45h2.31v5h-2.37a7.09,7.09,0,0,0-6.12,3.3c-1.53,2.19-2.29,5.16-2.29,8.89Z"/><path class="cls-2" d="M972.65,649q0-7.08,4-11.39a13.74,13.74,0,0,1,10.63-4.34,14,14,0,0,1,10.67,4.34q4,4.27,4,11.39t-4,11.4a14,14,0,0,1-10.67,4.33,13.73,13.73,0,0,1-10.63-4.33Q972.65,656.09,972.65,649ZM994,657.21q2.46-3,2.46-8.22T994,640.77a8.28,8.28,0,0,0-6.77-3,8.17,8.17,0,0,0-6.71,3q-2.43,3-2.43,8.22t2.42,8.23a8.14,8.14,0,0,0,6.72,3A8.28,8.28,0,0,0,994,657.21Z"/><path class="cls-2" d="M1032,647.44V664h-5.33V645.51a8.33,8.33,0,0,0-1.72-5.63,6,6,0,0,0-4.81-2,6.67,6.67,0,0,0-5.59,2.44c-1.28,1.64-1.91,4-1.91,7.11V664h-5.34V634h5.22v3.66a10.06,10.06,0,0,1,8.82-4.39,11.25,11.25,0,0,1,5.72,1.39,9,9,0,0,1,3.68,4q3-5.41,9.67-5.42,5.16,0,8.07,3a11.42,11.42,0,0,1,2.92,8.25V664h-5.34V645.51a8.33,8.33,0,0,0-1.72-5.63,6.08,6.08,0,0,0-4.84-2,6.67,6.67,0,0,0-5.58,2.44C1032.67,642,1032,644.33,1032,647.44Z"/><path class="cls-2" d="M1077.31,664h-5.77V622h5.77Z"/><path class="cls-2" d="M1090.64,664h-5.34V634h5.22v5.45q2.93-5.45,8.58-5.45h2.32v5H1099a7.11,7.11,0,0,0-6.12,3.3c-1.52,2.19-2.28,5.16-2.28,8.89Z"/><path class="cls-2" d="M1130,659.54h1.43V664h-2.9a6.57,6.57,0,0,1-4-1.13,4.17,4.17,0,0,1-1.79-3.12,10.5,10.5,0,0,1-9.49,5,11.24,11.24,0,0,1-7.56-2.44,7.9,7.9,0,0,1-2.87-6.32,8.38,8.38,0,0,1,2.34-6.13,11.88,11.88,0,0,1,6.71-3.12l8.76-1.5a2,2,0,0,0,1.87-2.17,5,5,0,0,0-1.75-4,7.05,7.05,0,0,0-4.81-1.54,7.76,7.76,0,0,0-4.83,1.36,7.14,7.14,0,0,0-2.46,4.2l-5.07-.58a10.24,10.24,0,0,1,4.09-6.71,13.67,13.67,0,0,1,8.48-2.55q5.38,0,8.48,2.87a9.93,9.93,0,0,1,3.09,7.65v13.5a2.47,2.47,0,0,0,.5,1.76A2.42,2.42,0,0,0,1130,659.54Zm-21.86-4a4.45,4.45,0,0,0,1.52,3.58,6.4,6.4,0,0,0,4.25,1.29,8,8,0,0,0,6.26-2.74,10.2,10.2,0,0,0,2.44-7.05v-1.73L1113,650.6a6.26,6.26,0,0,0-3.61,1.67A4.58,4.58,0,0,0,1108.15,655.58Z"/><path class="cls-2" d="M1161,644.54V664h-5.34V645.51a8,8,0,0,0-1.83-5.64,6.8,6.8,0,0,0-5.26-2,7.37,7.37,0,0,0-6,2.43q-2.05,2.43-2,7.12V664h-5.34V634h5.22v3.78q3.08-4.51,9.35-4.51c3.49,0,6.24,1,8.23,3A11.25,11.25,0,0,1,1161,644.54Z"/><path class="cls-2" d="M659.8,720H636.23V685.69h23.09v4H640.94v10.88h16.42v3.93H640.94V716H659.8Z"/><path class="cls-2" d="M676.73,720.6q-6.19,0-9.83-3a10.36,10.36,0,0,1-3.73-8.19l4.62-.59a7.85,7.85,0,0,0,2.47,5.87,9.5,9.5,0,0,0,6.47,2,8,8,0,0,0,5.33-1.66,5.57,5.57,0,0,0,2-4.46,4.59,4.59,0,0,0-1.36-3.53,10.27,10.27,0,0,0-4.72-2l-4.57-1a13.26,13.26,0,0,1-6.93-3.37,9.1,9.1,0,0,1,1-12.88,12.31,12.31,0,0,1,8.33-2.75,13.22,13.22,0,0,1,8.62,2.63,10.34,10.34,0,0,1,3.68,7.33l-4.65.57q-.81-6.64-7.65-6.65a7.87,7.87,0,0,0-5.09,1.47,4.91,4.91,0,0,0-1.81,4,4.86,4.86,0,0,0,1.32,3.59,8.46,8.46,0,0,0,4.26,1.94l5.34,1.15a13.15,13.15,0,0,1,6.79,3.2,8.25,8.25,0,0,1,2.18,6,9.39,9.39,0,0,1-3.28,7.34A12.71,12.71,0,0,1,676.73,720.6Z"/><path class="cls-2" d="M690.11,685.69h26.06v4H705.49V720h-4.66V689.71H690.11Z"/><path class="cls-2" d="M744.92,694.8a5.36,5.36,0,0,0-1.64-4.12,6.07,6.07,0,0,0-4.34-1.55,6.61,6.61,0,0,0-5.54,2.36c-1.24,1.57-1.82,3.87-1.76,6.9l-4.5-.6q-.36-5.88,2.94-9.26a11.71,11.71,0,0,1,8.86-3.42,10.89,10.89,0,0,1,7.8,2.68,9.25,9.25,0,0,1,2.89,7,12.39,12.39,0,0,1-1.74,6.18,29.52,29.52,0,0,1-5.65,6.67l-9.16,8.43h17.44V720H727v-4l12.35-11.32a21.22,21.22,0,0,0,4.31-5A9.68,9.68,0,0,0,744.92,694.8Z"/><path class="cls-2" d="M754.42,702.84q0-8.21,3.37-13a11.82,11.82,0,0,1,18.93,0q3.42,4.67,3.42,13t-3.42,13a11.85,11.85,0,0,1-18.94.07Q754.42,711.21,754.42,702.84Zm18.91,10.23q2.14-3.6,2.14-10.23t-2.12-10.21a6.88,6.88,0,0,0-12.13.08q-2.16,3.67-2.16,10.13,0,6.66,2.12,10.25a6.93,6.93,0,0,0,12.15,0Z"/><path class="cls-2" d="M805.81,720H784.54v-3.92h8.37V694A7.46,7.46,0,0,1,789,695H784.4v-3.86h4.3a4,4,0,0,0,3.28-1.3,6.38,6.38,0,0,0,1.08-4.1h4.52v30.39h8.23Z"/><path class="cls-2" d="M827.56,710a5.41,5.41,0,0,0-1.77-4.31,7.42,7.42,0,0,0-5-1.53H817.7v-3.56h2.94a5.6,5.6,0,0,0,4.3-1.63,6.43,6.43,0,0,0,1.52-4.55,5,5,0,0,0-1.66-4,6.72,6.72,0,0,0-4.51-1.43,7.08,7.08,0,0,0-5.17,1.89,7.41,7.41,0,0,0-2.08,5.26l-4.26-.93a9.4,9.4,0,0,1,3.32-7.3,12.39,12.39,0,0,1,8.28-2.8,11.72,11.72,0,0,1,7.82,2.45,8.2,8.2,0,0,1,2.88,6.57,9.06,9.06,0,0,1-1.26,4.79,7.85,7.85,0,0,1-3.55,3.13,8.83,8.83,0,0,1,4.41,3A8,8,0,0,1,832.2,710a9.9,9.9,0,0,1-3.18,7.7c-2.12,1.94-5,2.9-8.57,2.9a14.54,14.54,0,0,1-8.83-2.56,9.36,9.36,0,0,1-3.83-7l4.67-1a7.11,7.11,0,0,0,2.31,5,8.19,8.19,0,0,0,5.52,1.74,7.52,7.52,0,0,0,5.33-1.79A6.47,6.47,0,0,0,827.56,710Z"/></g></svg>