<svg xmlns="http://www.w3.org/2000/svg" viewBox="0 0 1920 1080"><defs><style>.cls-1{fill:#082b96;}.cls-2{fill:none;stroke:#fff;stroke-miterlimit:10;stroke-width:30px;}</style></defs><g id="Background"><rect class="cls-1" width="1920" height="1080"/></g><g id="Graphics"><path class="cls-2" d="M660,390V525A150,150,0,0,0,810,675h0A150,150,0,0,0,960,525V390"/><polyline class="cls-2" points="1150.61 685.61 1260 576.21 1260 480"/><line class="cls-2" x1="810" y1="390" x2="810" y2="450"/><line class="cls-2" x1="1260" y1="450" x2="1260" y2="390"/><line class="cls-2" x1="960" y1="720" x2="960" y2="780"/><line class="cls-2" x1="1020" y1="780" x2="1020" y2="720"/><polyline class="cls-2" points="1020 390 1020 456.21 960 516.21"/><polyline class="cls-2" points="1080 390 1080 486.21 960 606.21"/><polyline class="cls-2" points="960 390 960 675 981.21 675 1140 516.21 1140 390"/></g></svg>