<svg xmlns="http://www.w3.org/2000/svg" viewBox="0 0 1080 1080"><defs><style>.cls-1{fill:#ffec00;}.cls-2{fill:#f5cebc;}.cls-3{fill:#a9afb0;}.cls-4{fill:#cde5d9;}</style></defs><g id="Graphics"><path d="M360,907.64H346.92l-2.8,7.36h-4.19l11.61-30h4.15l11.48,30h-4.49Zm-11.74-3.43H358.7l-5.15-14Z"/><path d="M373.87,915h-3.81V893.58h3.72v3.89a6.62,6.62,0,0,1,6.13-3.89h1.65v3.6h-1.69a5,5,0,0,0-4.37,2.35,11,11,0,0,0-1.63,6.35Z"/><path d="M384.61,896.72v-3.14h3.77v-6.91h3.81v6.91h5.39v3.14h-5.39v12a3.66,3.66,0,0,0,.59,2.37,2.69,2.69,0,0,0,2.06.67h3.27V915h-3.85a6,6,0,0,1-4.37-1.47,5.75,5.75,0,0,1-1.51-4.3V896.72Z"/><path d="M404.86,890.1h-3.81V885h3.81Zm0,24.9h-3.81V893.58h3.81Z"/><path d="M417.75,915.53a10.52,10.52,0,0,1-6.62-1.91,6.84,6.84,0,0,1-2.67-5.17l3.8-.56a5.23,5.23,0,0,0,1.63,3.49,5.76,5.76,0,0,0,3.86,1.13,5.29,5.29,0,0,0,3.37-.92,3.25,3.25,0,0,0,1.17-2.72c0-1.7-1.26-2.73-3.77-3.07l-3.07-.49a8.52,8.52,0,0,1-4.7-2,5.33,5.33,0,0,1-1.62-4,5.46,5.46,0,0,1,2.19-4.48,10.83,10.83,0,0,1,11.73,0,7.46,7.46,0,0,1,2.71,4.91l-3.51.5a5.48,5.48,0,0,0-1.73-3.15,6.49,6.49,0,0,0-6.54-.13,2.73,2.73,0,0,0-.37,4.14,4.94,4.94,0,0,0,2.55,1l3.43.56q6.51,1,6.5,6.13a6.11,6.11,0,0,1-2.23,5A9.29,9.29,0,0,1,417.75,915.53Z"/><path d="M427.18,896.72v-3.14h3.76v-6.91h3.81v6.91h5.4v3.14h-5.4v12a3.6,3.6,0,0,0,.6,2.37,2.68,2.68,0,0,0,2.06.67h3.26V915h-3.85a6,6,0,0,1-4.37-1.47,5.79,5.79,0,0,1-1.51-4.3V896.72Z"/><path d="M447.43,890.1h-3.81V885h3.81Zm0,24.9h-3.81V893.58h3.81Z"/><path d="M461.42,912.26a5.5,5.5,0,0,0,3.87-1.35,5.91,5.91,0,0,0,1.76-3.8l3.72.44a8.58,8.58,0,0,1-3,5.81,10.55,10.55,0,0,1-13.8-.85,13.68,13.68,0,0,1,.05-16.36,9.43,9.43,0,0,1,7.36-3.1,9.77,9.77,0,0,1,6.49,2.07,8.85,8.85,0,0,1,3,5.82l-3.89.44q-.78-5.05-5.63-5.06a5.34,5.34,0,0,0-4.52,2.11,9.65,9.65,0,0,0-1.61,5.94,9.25,9.25,0,0,0,1.62,5.81A5.43,5.43,0,0,0,461.42,912.26Z"/><path d="M492.75,911.82h1V915H491.7a4.77,4.77,0,0,1-2.82-.8A3,3,0,0,1,487.6,912a7.51,7.51,0,0,1-6.78,3.56,8.08,8.08,0,0,1-5.4-1.75,5.68,5.68,0,0,1-2.05-4.51,6,6,0,0,1,1.68-4.38,8.43,8.43,0,0,1,4.79-2.23l6.25-1.07a1.44,1.44,0,0,0,1.34-1.55,3.59,3.59,0,0,0-1.25-2.83,5,5,0,0,0-3.43-1.1,5.57,5.57,0,0,0-3.46,1,5.09,5.09,0,0,0-1.75,3l-3.62-.41a7.31,7.31,0,0,1,2.92-4.8,9.8,9.8,0,0,1,6.05-1.82A8.58,8.58,0,0,1,489,895.1a7.12,7.12,0,0,1,2.21,5.47v9.64a1.81,1.81,0,0,0,.35,1.26A1.77,1.77,0,0,0,492.75,911.82ZM477.14,909a3.15,3.15,0,0,0,1.09,2.55,4.55,4.55,0,0,0,3,.92,5.72,5.72,0,0,0,4.47-2,7.28,7.28,0,0,0,1.74-5v-1.23l-6.86,1.19a4.45,4.45,0,0,0-2.58,1.19A3.29,3.29,0,0,0,477.14,909Z"/><path d="M500.28,915h-3.81V885h3.81Z"/><path d="M509.35,915h-3.81V885h3.81Z"/><path d="M519.93,917l.72-1.88-8.44-21.55h4l6.34,16.84,6.4-16.84h3.85l-9.35,23.83a9.24,9.24,0,0,1-2.91,4.33,7.28,7.28,0,0,1-4.41,1.19h-2.22v-3.22h2.22a4,4,0,0,0,2.36-.61A4.13,4.13,0,0,0,519.93,917Z"/><path d="M548.38,915h-4.12V885h21v3.51H548.38v9.77h15.21v3.52H548.38Z"/><path d="M571.64,915h-3.8V893.58h3.72v3.89a6.61,6.61,0,0,1,6.13-3.89h1.65v3.6h-1.69a5,5,0,0,0-4.37,2.35,11,11,0,0,0-1.64,6.35Z"/><path d="M580.36,904.29a11.57,11.57,0,0,1,2.83-8.14,9.82,9.82,0,0,1,7.59-3.1,10,10,0,0,1,7.62,3.1,11.43,11.43,0,0,1,2.87,8.14,11.56,11.56,0,0,1-2.87,8.14,10,10,0,0,1-7.62,3.1,9.82,9.82,0,0,1-7.59-3.1A11.57,11.57,0,0,1,580.36,904.29Zm15.26,5.87a10.72,10.72,0,0,0,0-11.74,5.92,5.92,0,0,0-4.84-2.14,5.83,5.83,0,0,0-4.79,2.14,10.87,10.87,0,0,0,0,11.75,5.83,5.83,0,0,0,4.8,2.13A5.92,5.92,0,0,0,595.62,910.16Z"/><path d="M622.77,903.18V915H619V901.8a6,6,0,0,0-1.22-4,4.29,4.29,0,0,0-3.44-1.42,4.74,4.74,0,0,0-4,1.75,8.08,8.08,0,0,0-1.37,5.07V915h-3.81V893.58h3.73v2.61a7.19,7.19,0,0,1,6.29-3.14,8.14,8.14,0,0,1,4.1,1,6.41,6.41,0,0,1,2.62,2.87,7.27,7.27,0,0,1,6.91-3.87,7.64,7.64,0,0,1,5.76,2.17,8.13,8.13,0,0,1,2.08,5.89V915h-3.81V901.8a6,6,0,0,0-1.23-4,4.32,4.32,0,0,0-3.45-1.42,4.74,4.74,0,0,0-4,1.75A8.08,8.08,0,0,0,622.77,903.18Z"/><path d="M655.11,915H651V885h4.12Z"/><path d="M664.62,915h-3.8V893.58h3.72v3.89a6.61,6.61,0,0,1,6.13-3.89h1.65v3.6h-1.69a5,5,0,0,0-4.37,2.35,11,11,0,0,0-1.64,6.35Z"/><path d="M692.74,911.82h1V915h-2.07a4.77,4.77,0,0,1-2.82-.8,3,3,0,0,1-1.28-2.23,7.49,7.49,0,0,1-6.78,3.56,8,8,0,0,1-5.39-1.75,5.65,5.65,0,0,1-2-4.51,6,6,0,0,1,1.67-4.38,8.46,8.46,0,0,1,4.79-2.23l6.26-1.07a1.45,1.45,0,0,0,1.34-1.55,3.57,3.57,0,0,0-1.26-2.83,5,5,0,0,0-3.43-1.1,5.54,5.54,0,0,0-3.45,1,5.1,5.1,0,0,0-1.76,3l-3.62-.41a7.35,7.35,0,0,1,2.92-4.8,9.8,9.8,0,0,1,6-1.82,8.58,8.58,0,0,1,6.06,2.05,7.12,7.12,0,0,1,2.21,5.47v9.64a1.81,1.81,0,0,0,.35,1.26A1.77,1.77,0,0,0,692.74,911.82ZM677.13,909a3.15,3.15,0,0,0,1.09,2.55,4.57,4.57,0,0,0,3,.92,5.7,5.7,0,0,0,4.47-2,7.28,7.28,0,0,0,1.75-5v-1.23l-6.87,1.19a4.45,4.45,0,0,0-2.58,1.19A3.29,3.29,0,0,0,677.13,909Z"/><path d="M714.87,901.11V915h-3.81V901.8a5.73,5.73,0,0,0-1.3-4,4.89,4.89,0,0,0-3.76-1.41,5.27,5.27,0,0,0-4.27,1.74,7.71,7.71,0,0,0-1.46,5.08V915h-3.81V893.58h3.72v2.7a7.54,7.54,0,0,1,6.68-3.23,7.92,7.92,0,0,1,5.88,2.17A8,8,0,0,1,714.87,901.11Z"/><path d="M356.94,955H340.1V930.5h16.49v2.87H343.47v7.77h11.72V944H343.47v8.18h13.47Z"/><path d="M369,955.43a10.68,10.68,0,0,1-7-2.14,7.4,7.4,0,0,1-2.67-5.84l3.3-.43a5.64,5.64,0,0,0,1.77,4.2,6.8,6.8,0,0,0,4.62,1.44,5.65,5.65,0,0,0,3.8-1.19,4,4,0,0,0,1.4-3.18,3.27,3.27,0,0,0-1-2.53,7.38,7.38,0,0,0-3.36-1.4l-3.27-.71a9.5,9.5,0,0,1-4.95-2.4,6.15,6.15,0,0,1-1.59-4.41,6.09,6.09,0,0,1,2.27-4.79,8.77,8.77,0,0,1,5.95-2,9.48,9.48,0,0,1,6.16,1.88,7.4,7.4,0,0,1,2.62,5.23l-3.31.41c-.39-3.16-2.22-4.75-5.47-4.75a5.61,5.61,0,0,0-3.63,1,3.91,3.91,0,0,0-.36,5.43,6,6,0,0,0,3.05,1.38l3.81.83a9.33,9.33,0,0,1,4.85,2.29,5.83,5.83,0,0,1,1.56,4.29,6.73,6.73,0,0,1-2.34,5.24A9.13,9.13,0,0,1,369,955.43Z"/><path d="M378.58,930.5h18.61v2.87h-7.62V955h-3.33V933.37h-7.66Z"/><path d="M417.73,937a3.86,3.86,0,0,0-1.17-3,4.32,4.32,0,0,0-3.1-1.1,4.73,4.73,0,0,0-4,1.68,7.63,7.63,0,0,0-1.26,4.93l-3.21-.43a7.94,7.94,0,0,1,8.43-9.06A7.77,7.77,0,0,1,419,932a6.63,6.63,0,0,1,2.06,5,8.84,8.84,0,0,1-1.24,4.41,21.43,21.43,0,0,1-4,4.76l-6.54,6h12.46V955h-16.8v-2.87l8.82-8.08a15.79,15.79,0,0,0,3.08-3.61A6.89,6.89,0,0,0,417.73,937Z"/><path d="M424.51,942.75q0-5.87,2.41-9.28a8.44,8.44,0,0,1,13.52,0q2.44,3.33,2.44,9.28T440.44,952a8.47,8.47,0,0,1-13.53.05Q424.51,948.74,424.51,942.75Zm13.51,7.3a18.23,18.23,0,0,0,0-14.6,4.91,4.91,0,0,0-8.66.06,14.29,14.29,0,0,0-1.55,7.24,14.48,14.48,0,0,0,1.52,7.31,4.94,4.94,0,0,0,8.68,0Z"/><path d="M461.21,955H446v-2.8h6V936.46a5.32,5.32,0,0,1-2.8.65h-3.28v-2.75H449a2.88,2.88,0,0,0,2.34-.93,4.59,4.59,0,0,0,.77-2.93h3.23v21.7h5.87Z"/><path d="M476.75,947.82a3.85,3.85,0,0,0-1.27-3.07,5.28,5.28,0,0,0-3.57-1.1h-2.2v-2.54h2.1a4,4,0,0,0,3.07-1.16A4.6,4.6,0,0,0,476,936.7a3.53,3.53,0,0,0-1.19-2.82,4.77,4.77,0,0,0-3.22-1,5,5,0,0,0-3.69,1.35,5.38,5.38,0,0,0-1.49,3.76l-3-.66a6.75,6.75,0,0,1,2.38-5.22,8.83,8.83,0,0,1,5.91-2,8.31,8.31,0,0,1,5.58,1.76,5.84,5.84,0,0,1,2.06,4.69,6.47,6.47,0,0,1-.9,3.42,5.59,5.59,0,0,1-2.54,2.23,6.36,6.36,0,0,1,3.16,2.18,5.71,5.71,0,0,1,1.08,3.5,7.09,7.09,0,0,1-2.27,5.5,8.76,8.76,0,0,1-6.12,2.07,10.41,10.41,0,0,1-6.31-1.83,6.66,6.66,0,0,1-2.73-5l3.33-.73a5.08,5.08,0,0,0,1.65,3.55,5.79,5.79,0,0,0,3.94,1.25,5.4,5.4,0,0,0,3.81-1.28A4.63,4.63,0,0,0,476.75,947.82Z"/><polygon points="362.5 850 339.94 850 355.88 825 342.5 825 342.5 820 365 820 349.06 845 362.5 845 362.5 850"/><polygon points="390 850 370.07 850 370 820 390 820 390 825 375.01 825 375.05 845 390 845 390 850"/><rect x="372.5" y="832.5" width="17.5" height="5"/><polygon points="417.5 850 397.5 850 397.5 820 417.5 820 417.5 825 402.5 825 402.5 845 417.5 845 417.5 850"/><rect x="400" y="832.5" width="17.5" height="5"/><polygon points="445 850 425 850 425 820 445 820 445 825 430 825 430 845 445 845 445 850"/><rect x="427.5" y="832.5" width="17.5" height="5"/><polygon points="475 850 470.21 850 457.5 829.74 457.5 850 452.5 850 452.5 820 457.29 820 470 840.25 470 820 475 820 475 850"/><path d="M585,820a55.06,55.06,0,0,1-55-55V715h10v50a45,45,0,0,0,90,0V715h10v50A55.06,55.06,0,0,1,585,820Z"/><polygon points="698.1 818.53 691.03 811.46 730 772.5 730 745 740 745 740 776.64 698.1 818.53"/><rect x="580" y="715" width="10" height="20"/><rect x="730" y="715" width="10" height="20"/><rect x="630" y="830" width="10" height="20"/><rect x="650" y="830" width="10" height="20"/><polygon points="638.53 765.61 631.46 758.53 655 735 655 715 665 715 665 739.14 638.53 765.61"/><polygon points="638.53 795.6 631.46 788.53 675 745 675 715 685 715 685 749.14 638.53 795.6"/><polygon points="644.14 820 630 820 630 715 640 715 640 810 695 755 695 715 705 715 705 759.14 644.14 820"/><rect x="280" y="190" width="10" height="120"/><rect x="285" y="235" width="35" height="10"/><rect x="279.44" y="221.58" width="37.97" height="10" transform="translate(-72.8 277.41) rotate(-45)"/><rect x="265" y="270" width="17.19" height="10"/><path d="M290,295V285a10,10,0,0,0,0-20V255a20,20,0,0,1,0,40Z"/><path d="M305,205H295a10,10,0,0,0-20,0H265a20,20,0,0,1,40,0Z"/><path d="M529.68,645h-10A59.84,59.84,0,0,0,400,645H390a69.84,69.84,0,1,1,139.68,0Z"/><rect x="322.22" y="400" width="155.56" height="10" transform="translate(-169.22 401.5) rotate(-45)"/><path d="M740,655H340V397.07l-20,20V445H280V305H380a95.11,95.11,0,0,1,95,95v25H645a95.11,95.11,0,0,1,95,95ZM350,645H730V520a85.1,85.1,0,0,0-85-85H465V400a85.1,85.1,0,0,0-85-85H290V435h20V412.93l56.46-56.46,7.08,7.07L350,387.07Z"/><polygon points="735 625 635 625 635 430 645 430 645 615 735 615 735 625"/><path d="M535,565a70.08,70.08,0,0,1-70-70V425H605v70A70.08,70.08,0,0,1,535,565ZM475,435v60a60,60,0,0,0,120,0V435Z"/><path d="M325,350H280V305h45Zm-35-10h25V315H290Z"/><path class="cls-1" d="M475,435v60a60,60,0,0,0,120,0V435Z"/><path class="cls-2" d="M400.32,645A59.84,59.84,0,1,1,520,645Z"/><rect class="cls-3" x="290" y="315" width="25" height="25"/><path class="cls-4" d="M645,435h0a85,85,0,0,1,85,85v95a0,0,0,0,1,0,0H645a0,0,0,0,1,0,0V435a0,0,0,0,1,0,0Z"/></g></svg>