<svg xmlns="http://www.w3.org/2000/svg" viewBox="0 0 95.78 75"><defs><style>.cls-1{fill:#777d7e;}</style></defs><g id="Graphics"><path class="cls-1" d="M94.78,1V74H1V1H94.78m1-1H0V75H95.78V0Z"/><path d="M37.78,48a11,11,0,0,1-11-11V27h2V37a9,9,0,0,0,18,0V27h2V37A11,11,0,0,1,37.78,48Z"/><polygon points="60.4 47.71 58.98 46.29 66.78 38.5 66.78 33 68.78 33 68.78 39.33 60.4 47.71"/><rect x="36.78" y="27" width="2" height="4"/><rect x="66.78" y="27" width="2" height="4"/><rect x="46.78" y="50" width="2" height="4"/><rect x="50.78" y="50" width="2" height="4"/><polygon points="48.48 37.12 47.07 35.71 51.78 31 51.78 27 53.78 27 53.78 31.83 48.48 37.12"/><polygon points="48.48 43.12 47.07 41.71 55.78 33 55.78 27 57.78 27 57.78 33.83 48.48 43.12"/><polygon points="49.61 48 46.78 48 46.78 27 48.78 27 48.78 46 59.78 35 59.78 27 61.78 27 61.78 35.83 49.61 48"/></g></svg>