<svg xmlns="http://www.w3.org/2000/svg" viewBox="0 0 1920 1080"><defs><style>.cls-1{fill:#f5cebc;}</style></defs><g id="Background"><path class="cls-1" d="M0,0V1080H1920V0Z"/></g><g id="Graphics"><rect x="648" y="192" width="12" height="144"/><rect x="654" y="246" width="42" height="12"/><rect x="647.33" y="229.89" width="45.57" height="12" transform="translate(29.45 542.89) rotate(-45)"/><rect x="630" y="288" width="20.62" height="12"/><path d="M660,318V306a12,12,0,0,0,0-24V270a24,24,0,0,1,0,48Z"/><path d="M678,210H666a12,12,0,0,0-24,0H630a24,24,0,0,1,48,0Z"/><path d="M947.61,738h-12A71.81,71.81,0,1,0,792,738H780a83.81,83.81,0,1,1,167.61,0Z"/><rect x="698.66" y="444" width="186.68" height="12" transform="translate(-86.24 691.78) rotate(-45)"/><path d="M1200,750H720V440.49l-24,24V498H648V330H768A114.13,114.13,0,0,1,882,444v30h204a114.13,114.13,0,0,1,114,114ZM732,738h456V588a102.12,102.12,0,0,0-102-102H870V444A102.12,102.12,0,0,0,768,342H660V486h24V459.51l67.76-67.75,8.48,8.48L732,428.49Z"/><polygon points="1194 714 1074 714 1074 480 1086 480 1086 702 1194 702 1194 714"/><polygon points="702 384 654 384 654 372 690 372 690 336 702 336 702 384"/><path d="M954,642a84.09,84.09,0,0,1-84-84V474h168v84A84.09,84.09,0,0,1,954,642ZM882,486v72a72,72,0,0,0,144,0V486Z"/></g></svg>