<svg xmlns="http://www.w3.org/2000/svg" viewBox="0 0 1080 1080"><defs><style>.cls-1{fill:#f4f5f5;}.cls-2{fill:#cde5d9;}.cls-3{fill:#ffec00;}.cls-4{fill:#a9afb0;}.cls-5{fill:#f5cebc;}</style></defs><g id="Graphics"><circle class="cls-1" cx="540" cy="540" r="540"/><path class="cls-2" d="M768,588V702H666V486A102.12,102.12,0,0,1,768,588Z"/><path class="cls-3" d="M606,486v72a72.08,72.08,0,0,1-72,72h0a72.08,72.08,0,0,1-72-72V486Z"/><rect class="cls-4" x="240" y="342" width="30" height="30"/><path class="cls-5" d="M372,738a71.81,71.81,0,1,1,143.61,0Z"/><rect x="228" y="192" width="12" height="144"/><rect x="234" y="246" width="42" height="12"/><rect x="227.33" y="229.89" width="45.57" height="12" transform="translate(-93.54 245.94) rotate(-45)"/><rect x="210" y="288" width="20.62" height="12"/><path d="M240,318V306a12,12,0,0,0,0-24V270a24,24,0,0,1,0,48Z"/><path d="M258,210H246a12,12,0,0,0-24,0H210a24,24,0,0,1,48,0Z"/><path d="M527.61,738h-12A71.81,71.81,0,1,0,372,738H360a83.81,83.81,0,1,1,167.61,0Z"/><rect x="278.66" y="444" width="186.68" height="12" transform="translate(-209.24 394.85) rotate(-45)"/><path d="M780,750H300V440.49l-24,24V498H228V330H348A114.13,114.13,0,0,1,462,444v30H666A114.13,114.13,0,0,1,780,588ZM312,738H768V588A102.12,102.12,0,0,0,666,486H450V444A102.12,102.12,0,0,0,348,342H240V486h24V459.51l67.76-67.75,8.48,8.48L312,428.49Z"/><polygon points="774 714 654 714 654 480 666 480 666 702 774 702 774 714"/><polygon points="282 384 234 384 234 372 270 372 270 336 282 336 282 384"/><path d="M534,642a84.09,84.09,0,0,1-84-84V474H618v84A84.09,84.09,0,0,1,534,642ZM462,486v72a72,72,0,0,0,144,0V486Z"/></g></svg>