<svg xmlns="http://www.w3.org/2000/svg" viewBox="0 0 1920 1080"><g id="Graphics"><path d="M810,690c-91,0-165-74-165-165V375h30V525c0,74.44,60.56,135,135,135s135-60.56,135-135V375h30V525C975,616,901,690,810,690Z"/><polygon points="1149.32 685.61 1128.1 664.39 1245 547.5 1245 465 1275 465 1275 559.92 1149.32 685.61"/><rect x="795" y="375" width="30" height="60"/><rect x="1245" y="375" width="30" height="60"/><rect x="945" y="720" width="30" height="60"/><rect x="1005" y="720" width="30" height="60"/><polygon points="970.61 526.82 949.39 505.6 1020 435 1020 375 1050 375 1050 447.42 970.61 526.82"/><polygon points="970.61 616.82 949.39 595.6 1080 465 1080 375 1110 375 1110 477.42 970.61 616.82"/><polygon points="987.42 690 945 690 945 375 975 375 975 660 1140 495 1140 375 1170 375 1170 507.42 987.42 690"/></g></svg>