<svg xmlns="http://www.w3.org/2000/svg" viewBox="0 0 1920 1080"><defs><style>.cls-1{fill:#ffec00;}.cls-2{fill:#f5cebc;}.cls-3{fill:#a9afb0;}.cls-4{fill:#cde5d9;}</style></defs><g id="Graphics"><path d="M786,870a66.08,66.08,0,0,1-66-66V750h12v54a54,54,0,0,0,108,0V750h12v54A66.08,66.08,0,0,1,786,870Z"/><polygon points="926.49 872.49 918 864 960 822 960 786 972 786 972 826.97 926.49 872.49"/><rect x="780" y="750" width="12" height="24"/><rect x="960" y="750" width="12" height="24"/><rect x="840" y="882" width="12" height="24"/><rect x="864" y="882" width="12" height="24"/><polygon points="850.24 804.73 841.76 796.24 864 774 864 750 876 750 876 778.97 850.24 804.73"/><polygon points="850.24 840.73 841.76 832.24 888 786 888 750 900 750 900 790.97 850.24 840.73"/><polygon points="856.97 870 840 870 840 750 852 750 852 858 912 798 912 750 924 750 924 802.97 856.97 870"/><rect x="648" y="120" width="12" height="144"/><rect x="654" y="174" width="42" height="12"/><rect x="647.33" y="157.89" width="45.57" height="12" transform="translate(80.38 521.84) rotate(-45)"/><rect x="630" y="216" width="20.62" height="12"/><path d="M660,246V234a12,12,0,0,0,0-24V198a24,24,0,0,1,0,48Z"/><path d="M678,138H666a12,12,0,0,0-24,0H630a24,24,0,0,1,48,0Z"/><path d="M947.61,666h-12A71.81,71.81,0,1,0,792,666H780a83.81,83.81,0,1,1,167.61,0Z"/><rect x="698.66" y="372" width="186.68" height="12" transform="translate(-35.31 670.74) rotate(-45)"/><path d="M1200,678H720V368.49l-24,24V426H648V258H768A114.13,114.13,0,0,1,882,372v30h204a114.13,114.13,0,0,1,114,114ZM732,666h456V516a102.12,102.12,0,0,0-102-102H870V372A102.12,102.12,0,0,0,768,270H660V414h24V387.51l67.76-67.75,8.48,8.48L732,356.49Z"/><polygon points="1194 642 1074 642 1074 408 1086 408 1086 630 1194 630 1194 642"/><path d="M954,570a84.09,84.09,0,0,1-84-84V402h168v84A84.09,84.09,0,0,1,954,570ZM882,414v72a72,72,0,0,0,144,0V414Z"/><path d="M702,312H648V258h54Zm-42-12h30V270H660Z"/><path class="cls-1" d="M882,414v72a72,72,0,0,0,144,0V414Z"/><path class="cls-2" d="M792.39,666A71.81,71.81,0,1,1,936,666Z"/><rect class="cls-3" x="660" y="270" width="30" height="30"/><path class="cls-4" d="M1086,414h0a102,102,0,0,1,102,102V630a0,0,0,0,1,0,0H1086a0,0,0,0,1,0,0V414A0,0,0,0,1,1086,414Z"/><polygon points="509.6 588 455.44 588 493.71 528 461.6 528 461.6 516 515.6 516 477.33 576 509.6 576 509.6 588"/><polygon points="575.6 588 527.75 588 527.58 516 575.6 516 575.6 528 539.61 528 539.72 576 575.6 576 575.6 588"/><rect x="533.6" y="546" width="42" height="12"/><polygon points="641.6 588 593.6 588 593.6 516 641.6 516 641.6 528 605.6 528 605.6 576 641.6 576 641.6 588"/><rect x="599.6" y="546" width="42" height="12"/><polygon points="575.6 678 527.6 678 527.6 606 575.6 606 575.6 618 539.6 618 539.6 666 575.6 666 575.6 678"/><rect x="533.6" y="636" width="42" height="12"/><polygon points="647.6 678 636.1 678 605.6 629.38 605.6 678 593.6 678 593.6 606 605.09 606 635.6 654.61 635.6 606 647.6 606 647.6 678"/><path d="M947,294.09H928.75l-3.92,10.31H919l16.26-42H941l16.08,42h-6.3Zm-16.43-4.8h14.65L938,269.72Z"/><path d="M967.38,304.4h-5.33v-30h5.21v5.45q2.94-5.44,8.59-5.45h2.31v5h-2.37a7.09,7.09,0,0,0-6.12,3.3q-2.29,3.3-2.29,8.89Z"/><path d="M980.93,278.8v-4.4h5.27v-9.66h5.34v9.66h7.55v4.4h-7.55v16.79a5,5,0,0,0,.83,3.31,3.75,3.75,0,0,0,2.89.93h4.57v4.57h-5.39c-2.68,0-4.72-.68-6.13-2.06a8.09,8.09,0,0,1-2.11-6V278.8Z"/><path d="M1010.18,269.54h-5.33v-7.15h5.33Zm0,34.86h-5.33v-30h5.33Z"/><path d="M1029.12,305.14c-3.88,0-7-.89-9.25-2.67a9.57,9.57,0,0,1-3.75-7.24l5.33-.79a7.33,7.33,0,0,0,2.27,4.9,8.15,8.15,0,0,0,5.4,1.58,7.52,7.52,0,0,0,4.74-1.29,4.58,4.58,0,0,0,1.62-3.81q0-3.57-5.27-4.31l-4.31-.67a12,12,0,0,1-6.58-2.84,7.45,7.45,0,0,1-2.27-5.63,7.64,7.64,0,0,1,3.08-6.27,12.87,12.87,0,0,1,8.2-2.43,13,13,0,0,1,8.22,2.39,10.41,10.41,0,0,1,3.79,6.87l-4.92.7a7.72,7.72,0,0,0-2.41-4.41,9.06,9.06,0,0,0-9.16-.17,3.57,3.57,0,0,0-1.61,3,3.53,3.53,0,0,0,1.1,2.75,6.76,6.76,0,0,0,3.56,1.38l4.8.79q9.12,1.47,9.11,8.59a8.55,8.55,0,0,1-3.13,7Q1034.54,305.14,1029.12,305.14Z"/><path d="M1043.23,278.8v-4.4h5.27v-9.66h5.34v9.66h7.56v4.4h-7.56v16.79a5.08,5.08,0,0,0,.83,3.31,3.75,3.75,0,0,0,2.89.93h4.57v4.57h-5.39c-2.68,0-4.72-.68-6.13-2.06a8.09,8.09,0,0,1-2.11-6V278.8Z"/><path d="M1072.48,269.54h-5.33v-7.15h5.33Zm0,34.86h-5.33v-30h5.33Z"/><path d="M1093,300.57a7.7,7.7,0,0,0,5.42-1.89,8.27,8.27,0,0,0,2.46-5.32l5.21.61a12,12,0,0,1-4.14,8.13,13.28,13.28,0,0,1-9,3q-6.6,0-10.37-4.22c-2.52-2.82-3.78-6.61-3.78-11.4s1.28-8.66,3.84-11.51a13.18,13.18,0,0,1,10.31-4.34,13.66,13.66,0,0,1,9.08,2.89,12.35,12.35,0,0,1,4.19,8.16l-5.45.61q-1.08-7.08-7.88-7.09a7.52,7.52,0,0,0-6.33,3c-1.5,2-2.25,4.75-2.25,8.32s.75,6.19,2.27,8.13A7.61,7.61,0,0,0,1093,300.57Z"/><path d="M1137.14,300h1.44v4.45h-2.9a6.68,6.68,0,0,1-4-1.12,4.2,4.2,0,0,1-1.78-3.12,10.51,10.51,0,0,1-9.5,5,11.24,11.24,0,0,1-7.55-2.45,7.9,7.9,0,0,1-2.87-6.31,8.4,8.4,0,0,1,2.34-6.14,11.88,11.88,0,0,1,6.71-3.12l8.76-1.5a2,2,0,0,0,1.87-2.16,5,5,0,0,0-1.76-4,7,7,0,0,0-4.8-1.54,7.76,7.76,0,0,0-4.83,1.36,7,7,0,0,0-2.46,4.21l-5.07-.59a10.29,10.29,0,0,1,4.08-6.71,13.72,13.72,0,0,1,8.49-2.55q5.39,0,8.48,2.87a10,10,0,0,1,3.09,7.65v13.5a2.4,2.4,0,0,0,.5,1.76A2.34,2.34,0,0,0,1137.14,300ZM1115.29,296a4.44,4.44,0,0,0,1.52,3.57,6.38,6.38,0,0,0,4.25,1.29,8,8,0,0,0,6.25-2.74,10.16,10.16,0,0,0,2.45-7.05v-1.72l-9.61,1.67a6.23,6.23,0,0,0-3.62,1.67A4.54,4.54,0,0,0,1115.29,296Z"/><path d="M1148.58,304.4h-5.33v-42h5.33Z"/><path d="M1162.19,304.4h-5.33v-42h5.33Z"/><path d="M1177.91,307.22l1-2.64L1167.1,274.4h5.63L1181.6,298l9-23.59H1196l-13.1,33.37q-1.72,4.43-4.07,6.07a10.19,10.19,0,0,1-6.18,1.67h-3.11V311h3.11a5.77,5.77,0,0,0,3.31-.85A6,6,0,0,0,1177.91,307.22Z"/><path d="M1219.54,304.4h-5.77v-42h29.48v4.92h-23.71V281h21.3v4.92h-21.3Z"/><path d="M1252.12,304.4h-5.34v-30H1252v5.45q2.93-5.44,8.58-5.45h2.32v5h-2.38a7.11,7.11,0,0,0-6.12,3.3q-2.28,3.3-2.28,8.89Z"/><path d="M1264.33,289.4q0-7.08,4-11.39a13.76,13.76,0,0,1,10.64-4.34,14,14,0,0,1,10.66,4.34q4,4.28,4,11.39t-4,11.4a14,14,0,0,1-10.66,4.34,13.76,13.76,0,0,1-10.64-4.34Q1264.34,296.5,1264.33,289.4Zm21.36,8.22q2.46-3,2.46-8.22t-2.46-8.21a8.28,8.28,0,0,0-6.77-3,8.14,8.14,0,0,0-6.71,3q-2.43,3-2.43,8.21c0,3.5.8,6.24,2.41,8.24a8.19,8.19,0,0,0,6.73,3A8.3,8.3,0,0,0,1285.69,297.62Z"/><path d="M1323.71,287.85V304.4h-5.34V285.92a8.4,8.4,0,0,0-1.71-5.63,6,6,0,0,0-4.82-2,6.67,6.67,0,0,0-5.58,2.45q-1.92,2.44-1.92,7.1V304.4H1299v-30h5.21v3.67a10.08,10.08,0,0,1,8.82-4.4,11.36,11.36,0,0,1,5.73,1.39,9,9,0,0,1,3.68,4q3-5.41,9.66-5.42a10.7,10.7,0,0,1,8.08,3,11.43,11.43,0,0,1,2.91,8.25V304.4h-5.33V285.92a8.35,8.35,0,0,0-1.73-5.63,6,6,0,0,0-4.83-2,6.66,6.66,0,0,0-5.58,2.45Q1323.71,283.2,1323.71,287.85Z"/><path d="M1369,304.4h-5.77v-42H1369Z"/><path d="M1382.31,304.4H1377v-30h5.21v5.45q2.94-5.44,8.59-5.45h2.31v5h-2.37a7.09,7.09,0,0,0-6.12,3.3q-2.3,3.3-2.29,8.89Z"/><path d="M1421.68,300h1.44v4.45h-2.9a6.66,6.66,0,0,1-4-1.12,4.24,4.24,0,0,1-1.79-3.12,10.5,10.5,0,0,1-9.49,5,11.28,11.28,0,0,1-7.56-2.45,7.93,7.93,0,0,1-2.87-6.31,8.37,8.37,0,0,1,2.35-6.14,11.85,11.85,0,0,1,6.7-3.12l8.76-1.5a2,2,0,0,0,1.88-2.16,5,5,0,0,0-1.76-4,7,7,0,0,0-4.8-1.54,7.79,7.79,0,0,0-4.84,1.36,7.14,7.14,0,0,0-2.46,4.21l-5.07-.59a10.3,10.3,0,0,1,4.09-6.71,13.69,13.69,0,0,1,8.48-2.55c3.6,0,6.42,1,8.48,2.87a10,10,0,0,1,3.09,7.65v13.5a2.45,2.45,0,0,0,.5,1.76A2.37,2.37,0,0,0,1421.68,300ZM1399.83,296a4.41,4.41,0,0,0,1.52,3.57,6.37,6.37,0,0,0,4.25,1.29,8,8,0,0,0,6.25-2.74,10.21,10.21,0,0,0,2.45-7.05v-1.72l-9.61,1.67a6.23,6.23,0,0,0-3.62,1.67A4.54,4.54,0,0,0,1399.83,296Z"/><path d="M1452.67,285V304.4h-5.33V285.92a8,8,0,0,0-1.83-5.64,6.82,6.82,0,0,0-5.26-2,7.39,7.39,0,0,0-6,2.43c-1.36,1.62-2,4-2,7.12V304.4h-5.33v-30h5.21v3.78q3.09-4.5,9.35-4.51,5.25,0,8.23,3A11.22,11.22,0,0,1,1452.67,285Z"/><path d="M941.93,352.4h-20.2V323h19.79v3.44H925.77v9.33h14.07v3.37H925.77V349h16.16Z"/><path d="M957.08,352.92q-5.31,0-8.43-2.57a8.89,8.89,0,0,1-3.2-7l4-.51a6.71,6.71,0,0,0,2.12,5,8.13,8.13,0,0,0,5.55,1.73,6.78,6.78,0,0,0,4.56-1.42,4.79,4.79,0,0,0,1.67-3.83,3.91,3.91,0,0,0-1.17-3,8.72,8.72,0,0,0-4-1.69l-3.91-.84a11.42,11.42,0,0,1-5.94-2.89,7.78,7.78,0,0,1,.81-11,10.55,10.55,0,0,1,7.14-2.36,11.34,11.34,0,0,1,7.39,2.26,8.83,8.83,0,0,1,3.15,6.27l-4,.5q-.71-5.7-6.56-5.7a6.72,6.72,0,0,0-4.36,1.26,4.66,4.66,0,0,0-.42,6.51,7.27,7.27,0,0,0,3.65,1.66l4.57,1a11.31,11.31,0,0,1,5.83,2.75,7.06,7.06,0,0,1,1.86,5.15,8.06,8.06,0,0,1-2.81,6.3A10.94,10.94,0,0,1,957.08,352.92Z"/><path d="M969.17,323H991.5v3.44h-9.15v26h-4v-26h-9.19Z"/><path d="M1017.4,330.81a4.65,4.65,0,0,0-1.4-3.54,5.22,5.22,0,0,0-3.72-1.32,5.66,5.66,0,0,0-4.75,2q-1.59,2-1.51,5.92l-3.85-.52c-.21-3.36.63-6,2.52-7.93a10,10,0,0,1,7.59-2.94,9.31,9.31,0,0,1,6.68,2.3,7.91,7.91,0,0,1,2.48,6,10.65,10.65,0,0,1-1.49,5.29,25.47,25.47,0,0,1-4.84,5.72l-7.86,7.22h15v3.36H1002V349l10.58-9.7a18.52,18.52,0,0,0,3.71-4.33A8.38,8.38,0,0,0,1017.4,330.81Z"/><path d="M1026.17,337.7q0-7,2.89-11.14a9.47,9.47,0,0,1,8.1-4.06,9.37,9.37,0,0,1,8.12,4.06q2.94,4,2.94,11.14t-2.94,11.14a10.16,10.16,0,0,1-16.23.06Q1026.17,344.88,1026.17,337.7Zm16.21,8.77q1.84-3.09,1.84-8.77t-1.83-8.76A5.9,5.9,0,0,0,1032,329q-1.85,3.15-1.85,8.69,0,5.7,1.81,8.78a6,6,0,0,0,10.42,0Z"/><path d="M1070.85,352.4h-18.23V349h7.17V330.15a6.35,6.35,0,0,1-3.36.78h-3.94v-3.3h3.69a3.41,3.41,0,0,0,2.81-1.12,5.42,5.42,0,0,0,.93-3.51h3.87v26h7.06Z"/><path d="M1090.11,343.79a4.6,4.6,0,0,0-1.51-3.69,6.34,6.34,0,0,0-4.29-1.31h-2.64v-3.06h2.52a4.79,4.79,0,0,0,3.68-1.39,5.49,5.49,0,0,0,1.3-3.9,4.22,4.22,0,0,0-1.42-3.38,5.72,5.72,0,0,0-3.87-1.23,6.07,6.07,0,0,0-4.43,1.62,6.38,6.38,0,0,0-1.78,4.51l-3.65-.8a8.09,8.09,0,0,1,2.85-6.26,10.57,10.57,0,0,1,7.09-2.4,10,10,0,0,1,6.7,2.11,7,7,0,0,1,2.47,5.62,7.78,7.78,0,0,1-1.08,4.11,6.73,6.73,0,0,1-3,2.68,7.54,7.54,0,0,1,3.78,2.61,6.84,6.84,0,0,1,1.3,4.2,8.54,8.54,0,0,1-2.72,6.61,10.53,10.53,0,0,1-7.35,2.48,12.4,12.4,0,0,1-7.56-2.2,8,8,0,0,1-3.28-6l4-.88a6.14,6.14,0,0,0,2,4.27,7,7,0,0,0,4.73,1.49,6.47,6.47,0,0,0,4.57-1.53A5.53,5.53,0,0,0,1090.11,343.79Z"/></g></svg>