<svg xmlns="http://www.w3.org/2000/svg" viewBox="0 0 1920 1080"><defs><style>.cls-1{fill:#082b96;}.cls-2{fill:#061f6b;}.cls-3{fill:#fff;}</style></defs><g id="Background"><rect class="cls-1" width="1920" height="1080"/></g><g id="Graphics"><path class="cls-2" d="M1428,756H492V324h936Z"/><polygon class="cls-3" points="744 612 635.7 612 712.24 492 648 492 648 468 756.02 468 679.47 588 744 588 744 612"/><polygon class="cls-3" points="875.72 612 780.03 612 779.69 468 875.72 468 875.72 492 803.74 492 803.97 588 875.72 588 875.72 612"/><rect class="cls-3" x="791.71" y="528" width="84" height="24"/><polygon class="cls-3" points="1008 612 912 612 912 468 1008 468 1008 492 936 492 936 588 1008 588 1008 612"/><rect class="cls-3" x="924" y="528" width="84" height="24"/><polygon class="cls-3" points="1140 612 1044 612 1044 468 1140 468 1140 492 1068 492 1068 588 1140 588 1140 612"/><rect class="cls-3" x="1056" y="528" width="84" height="24"/><polygon class="cls-3" points="1284 612 1260.09 612 1200 513.93 1200 612 1176 612 1176 468 1200 468 1260 565.91 1260 468 1284 468 1284 612"/></g></svg>