<svg xmlns="http://www.w3.org/2000/svg" viewBox="0 0 864 504"><defs><style>.cls-1{fill:#ff8672;}.cls-2{fill:#fff;}.cls-3{fill:none;}</style></defs><title>material-35</title><g id="Layer_1" data-name="Layer 1"><rect class="cls-1" x="264" y="192" width="336" height="120"/><path class="cls-2" d="M567,240v12l-27,27-27-27V240l9-9h12l6,6,6-6h12Z"/><rect class="cls-3" x="504" y="216" width="72" height="72"/><path class="cls-2" d="M309.79,258.72a3.11,3.11,0,0,0,2.31-.67,2,2,0,0,0,.62-1.35,4.75,4.75,0,0,0-.14-1c-.1-.4-.29-1.06-.58-2s-.71-2.17-1.27-3.77-1.32-3.69-2.28-6.28l4.66-2,4.94,13.82a6,6,0,0,0,1.37,2.43,3.54,3.54,0,0,0,2.47.74h.62c.71,0,1.06.85,1.06,2.54s-.35,2.74-1.06,2.74h-.62a8.15,8.15,0,0,1-3.05-.58,5.84,5.84,0,0,1-2.66-2.44,5.44,5.44,0,0,1-2.52,2.37,8.33,8.33,0,0,1-3.29.65H300.05l-.24-5.28Z"/><path class="cls-2" d="M325.87,258.72q3.22,0,3.22-3.12v-5.66H334v5.66a2.74,2.74,0,0,0,1,2.4,4.15,4.15,0,0,0,2.43.72h1.25c.73,0,1.1.85,1.1,2.54s-.37,2.74-1.1,2.74h-1.4a8.79,8.79,0,0,1-3.31-.6,5.6,5.6,0,0,1-2.59-2.42,6.23,6.23,0,0,1-2.59,2.42,7.45,7.45,0,0,1-3,.6h-3.36a.85.85,0,0,1-.84-.65,6.46,6.46,0,0,1-.21-1.89,7.51,7.51,0,0,1,.21-2.07.84.84,0,0,1,.84-.67Zm3.75,15.36h-4.95v-4.7h4.95Zm6.91,0h-4.95v-4.7h4.95Z"/><path class="cls-2" d="M342.1,258.72q3.21,0,3.21-3.12v-5.66h4.95v5.66a2.71,2.71,0,0,0,1,2.4,4.12,4.12,0,0,0,2.42.72H355c.74,0,1.1.85,1.1,2.54S355.7,264,355,264h-1.39a8.75,8.75,0,0,1-3.31-.6,5.58,5.58,0,0,1-2.6-2.42,6.23,6.23,0,0,1-2.59,2.42,7.44,7.44,0,0,1-3,.6h-3.36a.83.83,0,0,1-.84-.65,6.08,6.08,0,0,1-.22-1.89,7.07,7.07,0,0,1,.22-2.07.83.83,0,0,1,.84-.67Zm8-14.4h-5.42v-4.9h5.42Z"/><path class="cls-2" d="M366.87,258.72a2.46,2.46,0,0,0,1.8-.53,1.81,1.81,0,0,0,.5-1.29,4.1,4.1,0,0,0-.26-1.42,4.47,4.47,0,0,0-1.13-1.51l-9.07-9.07v-5.48l15.88-6,1.11,4.9-12.24,4.51,7.05,7.15a23.6,23.6,0,0,1,2,2.19,10.77,10.77,0,0,1,1.2,1.87,6.8,6.8,0,0,1,.6,1.78,10,10,0,0,1,.17,1.84,7,7,0,0,1-.55,2.88,5.5,5.5,0,0,1-1.49,2,6,6,0,0,1-2.21,1.13,10.12,10.12,0,0,1-2.76.36H355a.84.84,0,0,1-.84-.65,6.46,6.46,0,0,1-.21-1.89,7.51,7.51,0,0,1,.21-2.07.84.84,0,0,1,.84-.67Z"/><path class="cls-2" d="M403,244.9v-5.48l15.89-6,1.1,4.9-12.24,4.51,7.11,7.15q3.21,3.27,5.18,5a27,27,0,0,0,3.29,2.59,6.18,6.18,0,0,0,2.4,1,20.5,20.5,0,0,0,2.52.14.85.85,0,0,1,.84.65,6.46,6.46,0,0,1,.21,1.89,7.51,7.51,0,0,1-.21,2.07.84.84,0,0,1-.84.67,22.88,22.88,0,0,1-2.64-.14,9.37,9.37,0,0,1-2.28-.6,10.8,10.8,0,0,1-2.38-1.4,27.05,27.05,0,0,1-2.83-2.52,4.6,4.6,0,0,1-2.14,3.58A8.08,8.08,0,0,1,411.7,264H393.6a8.62,8.62,0,0,1-3.38-.6,6,6,0,0,1-3.6-4,9.45,9.45,0,0,1-.41-2.83v-6.82h4.89v5.57a3.92,3.92,0,0,0,.7,2.47c.46.59,1.43.89,2.9.89h16.37a2.54,2.54,0,0,0,1.85-.53,1.77,1.77,0,0,0,.5-1.29,4,4,0,0,0-.26-1.4A4.89,4.89,0,0,0,412,254Z"/><path class="cls-2" d="M431.57,258.72q3.21,0,3.21-3.12v-5.66h5v5.66a2.71,2.71,0,0,0,1,2.4,4.14,4.14,0,0,0,2.42.72h1.25c.74,0,1.11.85,1.11,2.54s-.37,2.74-1.11,2.74H443a8.75,8.75,0,0,1-3.31-.6,5.56,5.56,0,0,1-2.59-2.42,6.24,6.24,0,0,1-2.6,2.42,7.4,7.4,0,0,1-3,.6h-3.36a.83.83,0,0,1-.84-.65,6.08,6.08,0,0,1-.22-1.89,7.07,7.07,0,0,1,.22-2.07.83.83,0,0,1,.84-.67Zm3.74,15.36h-4.94v-4.7h4.94Zm6.91,0h-4.94v-4.7h4.94Z"/><path class="cls-2" d="M445.54,258.72q3.25,0,3.26-3.12V234.24h4.9V255.6a2.71,2.71,0,0,0,1,2.4,4.21,4.21,0,0,0,2.47.72H458c.7,0,1,.85,1,2.54s-.35,2.74-1,2.74h-1a9,9,0,0,1-3.31-.6,5.47,5.47,0,0,1-2.64-2.42,5.72,5.72,0,0,1-2.52,2.42,7.65,7.65,0,0,1-3,.6h-1.11a.85.85,0,0,1-.84-.65,6.46,6.46,0,0,1-.21-1.89,7.51,7.51,0,0,1,.21-2.07.84.84,0,0,1,.84-.67Z"/><path class="cls-2" d="M469.87,258.72a2.43,2.43,0,0,0,1.8-.53,1.78,1.78,0,0,0,.51-1.29,3.89,3.89,0,0,0-.27-1.42,4.22,4.22,0,0,0-1.13-1.51l-9.07-9.07v-5.48l15.89-6,1.1,4.9-12.24,4.51,7.06,7.15a23.6,23.6,0,0,1,2,2.19,10.77,10.77,0,0,1,1.2,1.87,7.19,7.19,0,0,1,.6,1.78,10,10,0,0,1,.17,1.84,6.82,6.82,0,0,1-.56,2.88,5.37,5.37,0,0,1-1.48,2,6.09,6.09,0,0,1-2.21,1.13,10.12,10.12,0,0,1-2.76.36H458a.83.83,0,0,1-.84-.65,6.08,6.08,0,0,1-.22-1.89,7.07,7.07,0,0,1,.22-2.07.83.83,0,0,1,.84-.67Z"/><rect x="648" y="240" width="24" height="24"/><rect x="576" y="251.75" width="72" height="0.5"/><path class="cls-2" d="M661.26,256.5h-1.65v-8l-2.44.84v-1.4l3.88-1.43h.21Z"/><rect x="192" y="240" width="24" height="24"/><rect x="216" y="251.75" width="72" height="0.5"/><path class="cls-2" d="M202.69,250.76h1a1.78,1.78,0,0,0,1.21-.39,1.42,1.42,0,0,0,.45-1.13,1.53,1.53,0,0,0-.37-1.1,1.48,1.48,0,0,0-1.14-.4,1.57,1.57,0,0,0-1.1.39,1.28,1.28,0,0,0-.43,1h-1.66a2.54,2.54,0,0,1,.4-1.4,2.74,2.74,0,0,1,1.14-1,3.75,3.75,0,0,1,1.63-.35,3.43,3.43,0,0,1,2.34.75,2.61,2.61,0,0,1,.85,2.08,2.07,2.07,0,0,1-.43,1.26,2.59,2.59,0,0,1-1.1.89,2.34,2.34,0,0,1,1.68,2.32,2.67,2.67,0,0,1-.92,2.13,3.58,3.58,0,0,1-2.42.8,3.54,3.54,0,0,1-2.35-.77,2.53,2.53,0,0,1-.92-2h1.66a1.4,1.4,0,0,0,.44,1.07,1.7,1.7,0,0,0,1.19.41,1.76,1.76,0,0,0,1.22-.41,1.83,1.83,0,0,0,0-2.4,2,2,0,0,0-1.38-.42h-1Z"/><rect x="648" y="288" width="24" height="24"/><rect x="600" y="299.75" width="48" height="0.5"/><path class="cls-2" d="M663.46,304.5h-6.69v-1.14l3.31-3.62a8.17,8.17,0,0,0,1-1.33,2.12,2.12,0,0,0,.31-1.08,1.63,1.63,0,0,0-.4-1.15,1.41,1.41,0,0,0-1.08-.44,1.6,1.6,0,0,0-1.25.5,1.88,1.88,0,0,0-.44,1.34h-1.66a3.25,3.25,0,0,1,.41-1.64,2.86,2.86,0,0,1,1.18-1.13,3.77,3.77,0,0,1,1.78-.4,3.34,3.34,0,0,1,2.28.73,2.5,2.5,0,0,1,.84,2,3.39,3.39,0,0,1-.42,1.56,8.63,8.63,0,0,1-1.38,1.86l-2.43,2.6h4.62Z"/></g></svg>