<svg xmlns="http://www.w3.org/2000/svg" viewBox="0 0 864 504"><defs><style>.cls-1{fill:#dbd8d7;}.cls-2{fill:#bdb9b9;}.cls-3{fill:#fff;}.cls-4{fill:none;}</style></defs><title>material-36</title><g id="Layer_2" data-name="Layer 2"><rect class="cls-1" x="0.05" width="863.9" height="504"/></g><g id="Layer_1" data-name="Layer 1"><rect class="cls-2" x="264" y="263.75" width="216" height="0.5"/><rect x="227.99" y="263.76" width="24.01" height="0.5"/><rect x="239.75" y="264.02" width="0.5" height="47.98"/><polygon points="227.98 312.25 227.98 311.75 251.99 311.71 251.99 312.21 227.98 312.25"/><path d="M220.27,291.52h-1.09v-7.23l-2.18.8v-1l3.1-1.17h.17Z"/><path d="M227.7,283v.92h-.2a2.8,2.8,0,0,0-2,.75,3.13,3.13,0,0,0-.87,2,2.33,2.33,0,0,1,1.84-.77,2.21,2.21,0,0,1,1.78.79,3.44,3.44,0,0,1-.06,4.13,2.65,2.65,0,0,1-3.91-.15,3.75,3.75,0,0,1-.76-2.42v-.42a5.61,5.61,0,0,1,1-3.6,3.68,3.68,0,0,1,3-1.27Zm-1.42,3.84a1.7,1.7,0,0,0-1,.34,1.74,1.74,0,0,0-.65.83v.4a2.76,2.76,0,0,0,.48,1.7,1.42,1.42,0,0,0,1.18.65,1.37,1.37,0,0,0,1.15-.54,2.23,2.23,0,0,0,.42-1.41,2.29,2.29,0,0,0-.42-1.43A1.37,1.37,0,0,0,226.28,286.82Z"/><rect x="599.74" y="155.98" width="0.5" height="24.02"/><rect x="576" y="167.75" width="24.01" height="0.5"/><rect x="575.74" y="155.98" width="0.5" height="24"/><path d="M590.51,149.7a2,2,0,0,1-.33,1.13,2.39,2.39,0,0,1-.91.78,2.43,2.43,0,0,1,1.05.84,2.11,2.11,0,0,1,.39,1.25,2.24,2.24,0,0,1-.74,1.76,2.88,2.88,0,0,1-2,.66,2.84,2.84,0,0,1-2-.66,2.23,2.23,0,0,1-.74-1.76,2.12,2.12,0,0,1,.38-1.25,2.34,2.34,0,0,1,1-.84,2.28,2.28,0,0,1-.9-.78,2.1,2.1,0,0,1-.32-1.13,2.24,2.24,0,0,1,.69-1.72,2.94,2.94,0,0,1,3.64,0A2.24,2.24,0,0,1,590.51,149.7Zm-.88,4a1.54,1.54,0,0,0-.46-1.16,1.59,1.59,0,0,0-1.18-.45,1.51,1.51,0,0,0-1.62,1.61,1.52,1.52,0,0,0,.43,1.15,1.69,1.69,0,0,0,1.2.41,1.66,1.66,0,0,0,1.2-.42A1.55,1.55,0,0,0,589.63,153.67ZM588,148.24a1.36,1.36,0,0,0-1,.4,1.62,1.62,0,0,0,0,2.12,1.52,1.52,0,0,0,2.08,0,1.42,1.42,0,0,0,.39-1,1.5,1.5,0,0,0-.4-1.06A1.41,1.41,0,0,0,588,148.24Z"/><rect x="503.74" y="155.98" width="0.5" height="24.02"/><rect x="480" y="167.75" width="24.01" height="0.5"/><rect x="479.74" y="155.98" width="0.5" height="24"/><path d="M494.51,149.7a2,2,0,0,1-.33,1.13,2.39,2.39,0,0,1-.91.78,2.43,2.43,0,0,1,1.05.84,2.11,2.11,0,0,1,.39,1.25,2.24,2.24,0,0,1-.74,1.76,2.88,2.88,0,0,1-2,.66,2.84,2.84,0,0,1-2-.66,2.23,2.23,0,0,1-.74-1.76,2.12,2.12,0,0,1,.38-1.25,2.34,2.34,0,0,1,1-.84,2.28,2.28,0,0,1-.9-.78,2.1,2.1,0,0,1-.32-1.13,2.24,2.24,0,0,1,.69-1.72,2.94,2.94,0,0,1,3.64,0A2.24,2.24,0,0,1,494.51,149.7Zm-.88,4a1.54,1.54,0,0,0-.46-1.16,1.59,1.59,0,0,0-1.18-.45,1.51,1.51,0,0,0-1.62,1.61,1.52,1.52,0,0,0,.43,1.15,1.69,1.69,0,0,0,1.2.41,1.66,1.66,0,0,0,1.2-.42A1.55,1.55,0,0,0,493.63,153.67ZM492,148.24a1.36,1.36,0,0,0-1,.4,1.62,1.62,0,0,0,0,2.12,1.52,1.52,0,0,0,2.08,0,1.42,1.42,0,0,0,.39-1,1.5,1.5,0,0,0-.4-1.06A1.41,1.41,0,0,0,492,148.24Z"/><rect x="299.73" y="155.98" width="0.5" height="24.02"/><rect x="264" y="167.75" width="36" height="0.5"/><rect x="263.74" y="155.98" width="0.5" height="24"/><path d="M279.53,156h-1.09v-7.22l-2.18.8v-1l3.1-1.16h.17Z"/><path d="M288.3,156h-5.59v-.78l3-3.28a7.36,7.36,0,0,0,.91-1.21,2.07,2.07,0,0,0,.24-1,1.54,1.54,0,0,0-.4-1.1,1.4,1.4,0,0,0-1.08-.43,1.67,1.67,0,0,0-1.25.46,1.77,1.77,0,0,0-.45,1.28h-1.09a2.53,2.53,0,0,1,.76-1.9,2.79,2.79,0,0,1,2-.73,2.69,2.69,0,0,1,1.88.63,2.12,2.12,0,0,1,.69,1.66,4.87,4.87,0,0,1-1.6,3L284,155.12h4.29Z"/><rect x="575.72" y="155.98" width="0.5" height="24.02"/><rect x="504" y="167.75" width="72" height="0.5"/><rect x="503.75" y="156" width="0.5" height="24"/><path d="M539.56,156H534v-.78l2.95-3.28a7.36,7.36,0,0,0,.91-1.21,2,2,0,0,0,.25-1,1.54,1.54,0,0,0-.41-1.1,1.39,1.39,0,0,0-1.07-.43,1.71,1.71,0,0,0-1.26.46,1.77,1.77,0,0,0-.45,1.28h-1.08a2.49,2.49,0,0,1,.76-1.9,2.78,2.78,0,0,1,2-.73,2.69,2.69,0,0,1,1.88.63,2.12,2.12,0,0,1,.69,1.66,4.89,4.89,0,0,1-1.61,3l-2.28,2.48h4.28Z"/><path d="M545.29,153.13h1.18V154h-1.18v2H544.2v-2h-3.89v-.64l3.82-5.91h1.16Zm-3.75,0h2.66V149l-.13.24Z"/><rect class="cls-2" x="598" y="287.75" width="2" height="0.5"/><path class="cls-2" d="M595.06,288.25h-3.91v-.5h3.91Zm-6.85,0H584.3v-.5h3.91Zm-6.85,0h-3.91v-.5h3.91Zm-6.85,0H570.6v-.5h3.91Zm-6.85,0h-3.92v-.5h3.92Zm-6.85,0h-3.92v-.5h3.92Zm-6.85,0H550v-.5H554Zm-6.85,0h-3.92v-.5h3.92Zm-6.86,0h-3.91v-.5h3.91Zm-6.85,0h-3.91v-.5h3.91Zm-6.85,0h-3.91v-.5h3.91Zm-6.85,0h-3.91v-.5h3.91Zm-6.85,0h-3.91v-.5h3.91Z"/><rect class="cls-2" x="504" y="287.75" width="2" height="0.5"/><rect class="cls-2" x="598" y="215.75" width="2" height="0.5"/><path class="cls-2" d="M595.06,216.25h-3.91v-.5h3.91Zm-6.85,0H584.3v-.5h3.91Zm-6.85,0h-3.91v-.5h3.91Zm-6.85,0H570.6v-.5h3.91Zm-6.85,0h-3.92v-.5h3.92Zm-6.85,0h-3.92v-.5h3.92Zm-6.85,0H550v-.5H554Zm-6.85,0h-3.92v-.5h3.92Zm-6.86,0h-3.91v-.5h3.91Zm-6.85,0h-3.91v-.5h3.91Zm-6.85,0h-3.91v-.5h3.91Zm-6.85,0h-3.91v-.5h3.91Zm-6.85,0h-3.91v-.5h3.91Z"/><rect class="cls-2" x="504" y="215.75" width="2" height="0.5"/><rect class="cls-2" x="575.75" y="310" width="0.5" height="2"/><path class="cls-2" d="M576.25,307h-.5v-4h.5Zm0-7.06h-.5v-4h.5Zm0-7.06h-.5v-4h.5Zm0-7.06h-.5v-4h.5Zm0-7.06h-.5v-4h.5Zm0-7.06h-.5v-4h.5Zm0-7.06h-.5v-4h.5Zm0-7.06h-.5v-4h.5Zm0-7.06h-.5v-4h.5Zm0-7.06h-.5v-4h.5Zm0-7.06h-.5v-4h.5Zm0-7.07h-.5v-4h.5Zm0-7.06h-.5v-4h.5Zm0-7.06h-.5v-4h.5Zm0-7.06h-.5v-4h.5Zm0-7.06h-.5v-4h.5Z"/><rect class="cls-2" x="575.75" y="192" width="0.5" height="2"/><rect class="cls-2" x="503.75" y="310" width="0.5" height="2"/><path class="cls-2" d="M504.25,307h-.5v-4h.5Zm0-7.06h-.5v-4h.5Zm0-7.06h-.5v-4h.5Zm0-7.06h-.5v-4h.5Zm0-7.06h-.5v-4h.5Zm0-7.06h-.5v-4h.5Zm0-7.06h-.5v-4h.5Zm0-7.06h-.5v-4h.5Zm0-7.06h-.5v-4h.5Zm0-7.06h-.5v-4h.5Zm0-7.06h-.5v-4h.5Zm0-7.07h-.5v-4h.5Zm0-7.06h-.5v-4h.5Zm0-7.06h-.5v-4h.5Zm0-7.06h-.5v-4h.5Zm0-7.06h-.5v-4h.5Z"/><rect class="cls-2" x="503.75" y="192" width="0.5" height="2"/><rect class="cls-2" x="479.75" y="310" width="0.5" height="2"/><path class="cls-2" d="M480.25,307h-.5v-4h.5Zm0-7.06h-.5v-4h.5Zm0-7.06h-.5v-4h.5Zm0-7.06h-.5v-4h.5Zm0-7.06h-.5v-4h.5Zm0-7.06h-.5v-4h.5Zm0-7.06h-.5v-4h.5Zm0-7.06h-.5v-4h.5Zm0-7.06h-.5v-4h.5Zm0-7.06h-.5v-4h.5Zm0-7.06h-.5v-4h.5Zm0-7.07h-.5v-4h.5Zm0-7.06h-.5v-4h.5Zm0-7.06h-.5v-4h.5Zm0-7.06h-.5v-4h.5Zm0-7.06h-.5v-4h.5Z"/><rect class="cls-2" x="479.75" y="192" width="0.5" height="2"/><rect class="cls-2" x="299.75" y="310" width="0.5" height="2"/><path class="cls-2" d="M300.25,307h-.5v-4h.5Zm0-7.06h-.5v-4h.5Zm0-7.06h-.5v-4h.5Zm0-7.06h-.5v-4h.5Zm0-7.06h-.5v-4h.5Zm0-7.06h-.5v-4h.5Zm0-7.06h-.5v-4h.5Zm0-7.06h-.5v-4h.5Zm0-7.06h-.5v-4h.5Zm0-7.06h-.5v-4h.5Zm0-7.06h-.5v-4h.5Zm0-7.07h-.5v-4h.5Zm0-7.06h-.5v-4h.5Zm0-7.06h-.5v-4h.5Zm0-7.06h-.5v-4h.5Zm0-7.06h-.5v-4h.5Z"/><rect class="cls-2" x="299.75" y="192" width="0.5" height="2"/><rect x="612.02" y="215.76" width="24.01" height="0.5"/><rect x="623.77" y="216.03" width="0.5" height="71.97"/><polygon points="612 288.25 612 287.75 636.01 287.68 636.01 288.18 612 288.25"/><path d="M640.84,255.52h-5.59v-.78l3-3.28a7.36,7.36,0,0,0,.91-1.21,2.09,2.09,0,0,0,.25-1,1.52,1.52,0,0,0-.41-1.09,1.4,1.4,0,0,0-1.08-.43,1.66,1.66,0,0,0-1.25.46,1.75,1.75,0,0,0-.45,1.28h-1.08a2.52,2.52,0,0,1,.75-1.9,2.81,2.81,0,0,1,2-.73,2.76,2.76,0,0,1,1.89.62,2.14,2.14,0,0,1,.69,1.66,4.89,4.89,0,0,1-1.61,3l-2.28,2.48h4.28Z"/><path d="M646.56,252.65h1.19v.89h-1.19v2h-1.09v-2h-3.88v-.64l3.82-5.91h1.15Zm-3.74,0h2.65v-4.18l-.12.23Z"/><rect x="611.99" y="287.76" width="24.01" height="0.5"/><rect x="623.75" y="288.01" width="0.5" height="23.96"/><polygon points="611.98 312.23 611.98 311.73 635.99 311.67 635.99 312.17 611.98 312.23"/><path d="M647.14,297.19a2,2,0,0,1-.33,1.14,2.39,2.39,0,0,1-.91.78A2.43,2.43,0,0,1,647,300a2.11,2.11,0,0,1,.39,1.25,2.24,2.24,0,0,1-.74,1.76,2.88,2.88,0,0,1-2,.66,2.84,2.84,0,0,1-2-.66,2.26,2.26,0,0,1-.74-1.76,2.12,2.12,0,0,1,.38-1.25,2.34,2.34,0,0,1,1-.84,2.19,2.19,0,0,1-.89-.78,2,2,0,0,1-.33-1.14,2.23,2.23,0,0,1,.69-1.71,2.94,2.94,0,0,1,3.64,0A2.23,2.23,0,0,1,647.14,297.19Zm-.88,4a1.58,1.58,0,0,0-.45-1.16,1.63,1.63,0,0,0-1.19-.45,1.58,1.58,0,0,0-1.18.44,1.62,1.62,0,0,0-.44,1.17,1.55,1.55,0,0,0,.43,1.15,1.69,1.69,0,0,0,1.2.41,1.66,1.66,0,0,0,1.2-.42A1.51,1.51,0,0,0,646.26,301.17Zm-1.63-5.43a1.37,1.37,0,0,0-1,.4,1.62,1.62,0,0,0,0,2.12,1.52,1.52,0,0,0,2.08,0,1.42,1.42,0,0,0,.39-1.05,1.46,1.46,0,0,0-.4-1.06A1.41,1.41,0,0,0,644.63,295.74Z"/><rect x="611.99" y="191.78" width="24.01" height="0.5"/><rect x="623.75" y="192.03" width="0.5" height="23.96"/><polygon points="611.98 216.25 611.98 215.75 635.99 215.69 635.99 216.19 611.98 216.25"/><path d="M647.14,201.22a2,2,0,0,1-.33,1.13,2.39,2.39,0,0,1-.91.78A2.43,2.43,0,0,1,647,204a2.11,2.11,0,0,1,.39,1.25,2.24,2.24,0,0,1-.74,1.76,2.88,2.88,0,0,1-2,.66,2.84,2.84,0,0,1-2-.66,2.26,2.26,0,0,1-.74-1.76,2.12,2.12,0,0,1,.38-1.25,2.34,2.34,0,0,1,1-.84,2.19,2.19,0,0,1-.89-.78,2,2,0,0,1-.33-1.13,2.2,2.2,0,0,1,.69-1.71,2.91,2.91,0,0,1,3.64,0A2.2,2.2,0,0,1,647.14,201.22Zm-.88,4a1.58,1.58,0,0,0-.45-1.16,1.62,1.62,0,0,0-2.81,1.16,1.55,1.55,0,0,0,.43,1.15,1.69,1.69,0,0,0,1.2.41,1.66,1.66,0,0,0,1.2-.42A1.48,1.48,0,0,0,646.26,205.19Zm-1.63-5.43a1.37,1.37,0,0,0-1,.4,1.42,1.42,0,0,0-.4,1.07,1.46,1.46,0,0,0,.39,1.06,1.55,1.55,0,0,0,2.08,0,1.62,1.62,0,0,0,0-2.12A1.41,1.41,0,0,0,644.63,199.76Z"/><path class="cls-2" d="M576.25,288.25h-72.5v-72.5h72.5Zm-72-.5h71.5v-71.5h-71.5Z"/><path class="cls-3" d="M600.25,312.25H263.75V191.75h336.5Zm-336-.5h335.5V192.25H264.25Z"/><path class="cls-3" d="M567,240v12l-27,27-27-27V240l9-9h12l6,6,6-6h12Z"/><rect class="cls-4" x="504" y="216" width="72" height="72"/><path class="cls-3" d="M309.79,258.72a3.11,3.11,0,0,0,2.31-.67,2,2,0,0,0,.62-1.35,4.75,4.75,0,0,0-.14-1c-.1-.4-.29-1.06-.58-2s-.71-2.17-1.27-3.77-1.32-3.69-2.28-6.28l4.66-2,4.94,13.82a6,6,0,0,0,1.37,2.43,3.54,3.54,0,0,0,2.47.74h.62c.71,0,1.06.85,1.06,2.54s-.35,2.74-1.06,2.74h-.62a8.15,8.15,0,0,1-3.05-.58,5.84,5.84,0,0,1-2.66-2.44,5.44,5.44,0,0,1-2.52,2.37,8.33,8.33,0,0,1-3.29.65H300.05l-.24-5.28Z"/><path class="cls-3" d="M325.87,258.72q3.22,0,3.22-3.12v-5.66H334v5.66a2.74,2.74,0,0,0,1,2.4,4.15,4.15,0,0,0,2.43.72h1.25c.73,0,1.1.85,1.1,2.54s-.37,2.74-1.1,2.74h-1.4a8.79,8.79,0,0,1-3.31-.6,5.6,5.6,0,0,1-2.59-2.42,6.23,6.23,0,0,1-2.59,2.42,7.45,7.45,0,0,1-3,.6h-3.36a.85.85,0,0,1-.84-.65,6.46,6.46,0,0,1-.21-1.89,7.51,7.51,0,0,1,.21-2.07.84.84,0,0,1,.84-.67Zm3.75,15.36h-4.95v-4.7h4.95Zm6.91,0h-4.95v-4.7h4.95Z"/><path class="cls-3" d="M342.1,258.72q3.21,0,3.21-3.12v-5.66h4.95v5.66a2.71,2.71,0,0,0,1,2.4,4.12,4.12,0,0,0,2.42.72H355c.74,0,1.1.85,1.1,2.54S355.7,264,355,264h-1.39a8.75,8.75,0,0,1-3.31-.6,5.58,5.58,0,0,1-2.6-2.42,6.23,6.23,0,0,1-2.59,2.42,7.44,7.44,0,0,1-3,.6h-3.36a.83.83,0,0,1-.84-.65,6.08,6.08,0,0,1-.22-1.89,7.07,7.07,0,0,1,.22-2.07.83.83,0,0,1,.84-.67Zm8-14.4h-5.42v-4.9h5.42Z"/><path class="cls-3" d="M366.87,258.72a2.46,2.46,0,0,0,1.8-.53,1.81,1.81,0,0,0,.5-1.29,4.1,4.1,0,0,0-.26-1.42,4.47,4.47,0,0,0-1.13-1.51l-9.07-9.07v-5.48l15.88-6,1.11,4.9-12.24,4.51,7.05,7.15a23.6,23.6,0,0,1,2,2.19,10.77,10.77,0,0,1,1.2,1.87,6.8,6.8,0,0,1,.6,1.78,10,10,0,0,1,.17,1.84,7,7,0,0,1-.55,2.88,5.5,5.5,0,0,1-1.49,2,6,6,0,0,1-2.21,1.13,10.12,10.12,0,0,1-2.76.36H355a.84.84,0,0,1-.84-.65,6.46,6.46,0,0,1-.21-1.89,7.51,7.51,0,0,1,.21-2.07.84.84,0,0,1,.84-.67Z"/><path class="cls-3" d="M403,244.9v-5.48l15.89-6,1.1,4.9-12.24,4.51,7.11,7.15q3.21,3.27,5.18,5a27,27,0,0,0,3.29,2.59,6.18,6.18,0,0,0,2.4,1,20.5,20.5,0,0,0,2.52.14.85.85,0,0,1,.84.65,6.46,6.46,0,0,1,.21,1.89,7.51,7.51,0,0,1-.21,2.07.84.84,0,0,1-.84.67,22.88,22.88,0,0,1-2.64-.14,9.37,9.37,0,0,1-2.28-.6,10.8,10.8,0,0,1-2.38-1.4,27.05,27.05,0,0,1-2.83-2.52,4.6,4.6,0,0,1-2.14,3.58A8.08,8.08,0,0,1,411.7,264H393.6a8.62,8.62,0,0,1-3.38-.6,6,6,0,0,1-3.6-4,9.45,9.45,0,0,1-.41-2.83v-6.82h4.89v5.57a3.92,3.92,0,0,0,.7,2.47c.46.59,1.43.89,2.9.89h16.37a2.54,2.54,0,0,0,1.85-.53,1.77,1.77,0,0,0,.5-1.29,4,4,0,0,0-.26-1.4A4.89,4.89,0,0,0,412,254Z"/><path class="cls-3" d="M431.57,258.72q3.21,0,3.21-3.12v-5.66h5v5.66a2.71,2.71,0,0,0,1,2.4,4.14,4.14,0,0,0,2.42.72h1.25c.74,0,1.11.85,1.11,2.54s-.37,2.74-1.11,2.74H443a8.75,8.75,0,0,1-3.31-.6,5.56,5.56,0,0,1-2.59-2.42,6.24,6.24,0,0,1-2.6,2.42,7.4,7.4,0,0,1-3,.6h-3.36a.83.83,0,0,1-.84-.65,6.08,6.08,0,0,1-.22-1.89,7.07,7.07,0,0,1,.22-2.07.83.83,0,0,1,.84-.67Zm3.74,15.36h-4.94v-4.7h4.94Zm6.91,0h-4.94v-4.7h4.94Z"/><path class="cls-3" d="M445.54,258.72q3.25,0,3.26-3.12V234.24h4.9V255.6a2.71,2.71,0,0,0,1,2.4,4.21,4.21,0,0,0,2.47.72H458c.7,0,1,.85,1,2.54s-.35,2.74-1,2.74h-1a9,9,0,0,1-3.31-.6,5.47,5.47,0,0,1-2.64-2.42,5.72,5.72,0,0,1-2.52,2.42,7.65,7.65,0,0,1-3,.6h-1.11a.85.85,0,0,1-.84-.65,6.46,6.46,0,0,1-.21-1.89,7.51,7.51,0,0,1,.21-2.07.84.84,0,0,1,.84-.67Z"/><path class="cls-3" d="M469.87,258.72a2.43,2.43,0,0,0,1.8-.53,1.78,1.78,0,0,0,.51-1.29,3.89,3.89,0,0,0-.27-1.42,4.22,4.22,0,0,0-1.13-1.51l-9.07-9.07v-5.48l15.89-6,1.1,4.9-12.24,4.51,7.06,7.15a23.6,23.6,0,0,1,2,2.19,10.77,10.77,0,0,1,1.2,1.87,7.19,7.19,0,0,1,.6,1.78,10,10,0,0,1,.17,1.84,6.82,6.82,0,0,1-.56,2.88,5.37,5.37,0,0,1-1.48,2,6.09,6.09,0,0,1-2.21,1.13,10.12,10.12,0,0,1-2.76.36H458a.83.83,0,0,1-.84-.65,6.08,6.08,0,0,1-.22-1.89,7.07,7.07,0,0,1,.22-2.07.83.83,0,0,1,.84-.67Z"/></g></svg>