<?xml version="1.0" encoding="utf-8"?>
<!-- Generator: Adobe Illustrator 23.1.0, SVG Export Plug-In . SVG Version: 6.00 Build 0)  -->
<svg version="1.1" xmlns="http://www.w3.org/2000/svg" xmlns:xlink="http://www.w3.org/1999/xlink" x="0px" y="0px"
	 viewBox="0 0 504 504" style="enable-background:new 0 0 504 504;" xml:space="preserve">
<style type="text/css">
	.st0{fill:#DBD4D3;}
	.st1{fill:#C7C0BF;}
	.st2{fill:#F5ECEB;}
	.st3{fill:#FFFFFF;}
	.st4{fill:none;stroke:#FFFFFF;stroke-miterlimit:10;}
	.st5{fill:none;stroke:#FFFFFF;stroke-miterlimit:10;stroke-dasharray:4.014,3.0105;}
	.st6{fill:none;stroke:#FFFFFF;stroke-miterlimit:10;stroke-dasharray:4.0661,3.0496;}
	.st7{fill:none;stroke:#FFFFFF;stroke-miterlimit:10;stroke-dasharray:4.0651,3.0488;}
	.st8{fill:none;stroke:#FFFFFF;stroke-miterlimit:10;stroke-dasharray:4.0655,3.0492;}
	.st9{fill:none;stroke:#FFFFFF;stroke-miterlimit:10;stroke-dasharray:3.9659,2.9745;}
	.st10{fill:none;stroke:#FFFFFF;stroke-miterlimit:10;stroke-dasharray:3.965,2.9737;}
	.st11{fill:none;stroke:#FFFFFF;stroke-miterlimit:10;stroke-dasharray:3.9654,2.9741;}
	.st12{fill:none;stroke:#000000;stroke-miterlimit:10;}
	.st13{fill:none;stroke:#FF8873;stroke-miterlimit:10;}
	.st14{fill:#FF8873;}
	.st15{fill:none;}
	.st16{clip-path:url(#SVGID_2_);}
	.st17{clip-path:url(#SVGID_4_);}
	.st18{fill:none;stroke:#BDB6B5;stroke-miterlimit:10;stroke-dasharray:4,3;}
	.st19{fill:#FF8873;fill-opacity:0.5;}
	.st20{fill:none;stroke:#000000;stroke-width:0.8165;stroke-miterlimit:10;}
	.st21{fill:none;stroke:#FFFFFF;stroke-width:1.225;stroke-miterlimit:10;}
	.st22{fill:none;stroke:#000000;stroke-width:24;stroke-miterlimit:10;}
	.st23{fill:none;stroke:#FFFFFF;stroke-width:24;stroke-miterlimit:10;}
</style>
<g id="Layer_2">
</g>
<g id="Layer_1">
	<rect y="0" width="504" height="504"/>
	<line class="st4" x1="396" y1="108" x2="108" y2="108"/>
	<line class="st4" x1="396" y1="120" x2="108" y2="120"/>
	<line class="st4" x1="396" y1="132" x2="108" y2="132"/>
	<line class="st4" x1="396" y1="144" x2="108" y2="144"/>
	<line class="st4" x1="396" y1="156" x2="108" y2="156"/>
	<line class="st4" x1="396" y1="168" x2="108" y2="168"/>
	<line class="st4" x1="396" y1="180" x2="108" y2="180"/>
	<line class="st4" x1="396" y1="192" x2="108" y2="192"/>
	<line class="st4" x1="396" y1="204" x2="108" y2="204"/>
	<line class="st4" x1="396" y1="216" x2="108" y2="216"/>
	<line class="st4" x1="396" y1="228" x2="108" y2="228"/>
	<line class="st4" x1="396" y1="240" x2="108" y2="240"/>
	<line class="st4" x1="396" y1="252" x2="108" y2="252"/>
	<line class="st4" x1="396" y1="264" x2="108" y2="264"/>
	<line class="st4" x1="396" y1="276" x2="108" y2="276"/>
	<line class="st4" x1="396" y1="288" x2="108" y2="288"/>
	<line class="st4" x1="396" y1="300" x2="108" y2="300"/>
	<line class="st4" x1="396" y1="312" x2="108" y2="312"/>
	<line class="st4" x1="396" y1="324" x2="108" y2="324"/>
	<line class="st4" x1="396" y1="336" x2="108" y2="336"/>
	<line class="st4" x1="396" y1="348" x2="108" y2="348"/>
	<line class="st4" x1="396" y1="360" x2="108" y2="360"/>
	<line class="st4" x1="396" y1="372" x2="108" y2="372"/>
	<line class="st4" x1="396" y1="384" x2="108" y2="384"/>
	<line class="st4" x1="396" y1="396" x2="108" y2="396"/>
	<line class="st4" x1="396" y1="396" x2="396" y2="108"/>
	<line class="st4" x1="384" y1="396" x2="384" y2="108"/>
	<line class="st4" x1="372" y1="396" x2="372" y2="108"/>
	<line class="st4" x1="360" y1="396" x2="360" y2="108"/>
	<line class="st4" x1="348" y1="396" x2="348" y2="108"/>
	<line class="st4" x1="336" y1="396" x2="336" y2="108"/>
	<line class="st4" x1="324" y1="396" x2="324" y2="108"/>
	<line class="st4" x1="312" y1="396" x2="312" y2="108"/>
	<line class="st4" x1="300" y1="396" x2="300" y2="108"/>
	<line class="st4" x1="288" y1="396" x2="288" y2="108"/>
	<line class="st4" x1="276" y1="396" x2="276" y2="108"/>
	<line class="st4" x1="264" y1="396" x2="264" y2="108"/>
	<line class="st4" x1="252" y1="396" x2="252" y2="108"/>
	<line class="st4" x1="240" y1="396" x2="240" y2="108"/>
	<line class="st4" x1="228" y1="396" x2="228" y2="108"/>
	<line class="st4" x1="216" y1="396" x2="216" y2="108"/>
	<line class="st4" x1="204" y1="396" x2="204" y2="108"/>
	<line class="st4" x1="192" y1="396" x2="192" y2="108"/>
	<line class="st4" x1="180" y1="396" x2="180" y2="108"/>
	<line class="st4" x1="168" y1="396" x2="168" y2="108"/>
	<line class="st4" x1="156" y1="396" x2="156" y2="108"/>
	<line class="st4" x1="144" y1="396" x2="144" y2="108"/>
	<line class="st4" x1="132" y1="396" x2="132" y2="108"/>
	<line class="st4" x1="120" y1="396" x2="120" y2="108"/>
	<line class="st4" x1="108" y1="396" x2="108" y2="108"/>
	<g>
		<path class="st3" d="M348,300l-36-36H192l-36,36l-0.2,48h192.4L348,300z M179.9,324l0.1-14l22-22h100.1l22,22l0.1,14H179.9z
			 M252,240c26.5,0,48-21.5,48-48s-21.5-48-48-48s-48,21.5-48,48S225.5,240,252,240z M252,168c13.2,0,24,10.8,24,24s-10.8,24-24,24
			s-24-10.8-24-24S238.8,168,252,168z"/>
	</g>
	<g>
		<line class="st4" x1="396" y1="72" x2="396" y2="96"/>
		<line class="st4" x1="396" y1="84" x2="108" y2="84"/>
		<line class="st4" x1="108" y1="72" x2="108.1" y2="96"/>
		<g>
			<path class="st3" d="M241,72h-7.5v-1l3.9-4.4c0.6-0.7,1-1.2,1.2-1.6s0.3-0.8,0.3-1.3c0-0.6-0.2-1.1-0.5-1.5
				c-0.4-0.4-0.8-0.6-1.4-0.6c-0.7,0-1.3,0.2-1.7,0.6c-0.4,0.4-0.6,1-0.6,1.7h-1.4c0-1,0.3-1.9,1-2.5c0.7-0.6,1.6-1,2.7-1
				c1.1,0,1.9,0.3,2.5,0.8s0.9,1.3,0.9,2.2c0,1.1-0.7,2.5-2.1,4l-3,3.3h5.7V72z"/>
			<path class="st3" d="M248.6,68.2h1.6v1.2h-1.6V72h-1.5v-2.6H242v-0.9l5.1-7.9h1.5V68.2z M243.6,68.2h3.5v-5.6l-0.2,0.3
				L243.6,68.2z"/>
			<path class="st3" d="M262.7,67.9c0,1.3-0.3,2.3-0.9,3.1c-0.6,0.8-1.4,1.2-2.4,1.2c-1,0-1.8-0.3-2.4-1v4.1h-1.4V63.5h1.3l0.1,0.9
				c0.6-0.7,1.4-1.1,2.5-1.1c1,0,1.8,0.4,2.4,1.1s0.9,1.8,0.9,3.2V67.9z M261.3,67.7c0-1-0.2-1.7-0.6-2.3c-0.4-0.6-1-0.8-1.7-0.8
				c-0.9,0-1.5,0.4-2,1.2v4c0.4,0.8,1.1,1.2,2,1.2c0.7,0,1.2-0.3,1.7-0.8C261.1,69.6,261.3,68.8,261.3,67.7z"/>
			<path class="st3" d="M267.4,66.6l1.9-3.1h1.7l-2.8,4.2l2.9,4.3h-1.7l-2-3.2l-2,3.2h-1.7l2.9-4.3l-2.8-4.2h1.7L267.4,66.6z"/>
		</g>
	</g>
	<g>
		<line class="st4" x1="432" y1="396" x2="408" y2="396"/>
		<line class="st4" x1="420" y1="396" x2="420" y2="108"/>
		<line class="st4" x1="432" y1="108" x2="408" y2="108.1"/>
		<g>
			<path class="st3" d="M432,241v-7.5h1l4.4,3.9c0.7,0.6,1.2,1,1.6,1.2c0.4,0.2,0.8,0.3,1.3,0.3c0.6,0,1.1-0.2,1.5-0.5
				s0.6-0.8,0.6-1.4c0-0.7-0.2-1.3-0.6-1.7s-1-0.6-1.7-0.6v-1.4c1,0,1.9,0.3,2.5,1c0.6,0.7,1,1.6,1,2.7c0,1.1-0.3,1.9-0.8,2.5
				c-0.6,0.6-1.3,0.9-2.2,0.9c-1.1,0-2.5-0.7-4-2.1l-3.3-3v5.7H432z"/>
			<path class="st3" d="M435.8,248.6v1.6h-1.2v-1.6H432v-1.5h2.6V242h0.9l7.9,5.1v1.5H435.8z M435.8,243.6v3.5h5.6l-0.3-0.2
				L435.8,243.6z"/>
			<path class="st3" d="M436.1,262.7c-1.3,0-2.3-0.3-3.1-0.9c-0.8-0.6-1.2-1.4-1.2-2.4c0-1,0.3-1.8,1-2.4h-4.1v-1.4h11.7v1.3
				l-0.9,0.1c0.7,0.6,1.1,1.4,1.1,2.5c0,1-0.4,1.8-1.1,2.4c-0.8,0.6-1.8,0.9-3.2,0.9H436.1z M436.3,261.3c1,0,1.7-0.2,2.3-0.6
				s0.8-1,0.8-1.7c0-0.9-0.4-1.5-1.2-2h-4c-0.8,0.4-1.2,1.1-1.2,2c0,0.7,0.3,1.2,0.8,1.7C434.4,261.1,435.2,261.3,436.3,261.3z"/>
			<path class="st3" d="M437.4,267.4l3.1,1.9v1.7l-4.2-2.8l-4.3,2.9v-1.7l3.2-2l-3.2-2v-1.7l4.3,2.9l4.2-2.8v1.7L437.4,267.4z"/>
		</g>
	</g>
</g>
</svg>
