<?xml version="1.0" encoding="utf-8"?>
<!-- Generator: Adobe Illustrator 23.1.0, SVG Export Plug-In . SVG Version: 6.00 Build 0)  -->
<svg version="1.1" xmlns="http://www.w3.org/2000/svg" xmlns:xlink="http://www.w3.org/1999/xlink" x="0px" y="0px"
	 viewBox="0 0 864 504" style="enable-background:new 0 0 864 504;" xml:space="preserve">
<style type="text/css">
	.st0{fill:#DBD4D3;}
	.st1{fill:#C7C0BF;}
	.st2{fill:#F5ECEB;}
	.st3{fill:#FFFFFF;}
	.st4{fill:none;stroke:#FFFFFF;stroke-miterlimit:10;}
	.st5{fill:none;stroke:#FFFFFF;stroke-miterlimit:10;stroke-dasharray:4.014,3.0105;}
	.st6{fill:none;stroke:#FFFFFF;stroke-miterlimit:10;stroke-dasharray:4.0661,3.0496;}
	.st7{fill:none;stroke:#FFFFFF;stroke-miterlimit:10;stroke-dasharray:4.0651,3.0488;}
	.st8{fill:none;stroke:#FFFFFF;stroke-miterlimit:10;stroke-dasharray:4.0655,3.0492;}
	.st9{fill:none;stroke:#FFFFFF;stroke-miterlimit:10;stroke-dasharray:3.9659,2.9745;}
	.st10{fill:none;stroke:#FFFFFF;stroke-miterlimit:10;stroke-dasharray:3.965,2.9737;}
	.st11{fill:none;stroke:#FFFFFF;stroke-miterlimit:10;stroke-dasharray:3.9654,2.9741;}
	.st12{fill:none;stroke:#000000;stroke-miterlimit:10;}
	.st13{fill:none;stroke:#FF8873;stroke-miterlimit:10;}
	.st14{fill:#FF8873;}
	.st15{fill:none;}
	.st16{clip-path:url(#SVGID_2_);}
	.st17{clip-path:url(#SVGID_4_);}
	.st18{fill:none;stroke:#BDB6B5;stroke-miterlimit:10;stroke-dasharray:4,3;}
	.st19{fill:#FF8873;fill-opacity:0.5;}
	.st20{fill:none;stroke:#000000;stroke-width:0.8165;stroke-miterlimit:10;}
	.st21{fill:none;stroke:#FFFFFF;stroke-width:1.225;stroke-miterlimit:10;}
	.st22{fill:none;stroke:#000000;stroke-width:24;stroke-miterlimit:10;}
	.st23{fill:none;stroke:#FFFFFF;stroke-width:24;stroke-miterlimit:10;}
</style>
<g id="Layer_2">
	<rect x="0.1" y="0" class="st0" width="863.9" height="504"/>
</g>
<g id="Layer_1">
	<rect x="96" y="156" class="st4" width="192" height="192"/>
	<rect x="468" y="108" class="st4" width="288" height="288"/>
	<path class="st3" d="M612,360L504,252.1v-48l36-36h48l24,24l24-24h48l36,36v48L612,360z M528,242.1l84,84l84-84V214l-21.9-21.9
		h-28.1L612,225.9l-33.9-33.9h-28.1L528,214V242.1z"/>
	<g>
		<line class="st12" x1="792" y1="396" x2="768" y2="396"/>
		<line class="st12" x1="780" y1="396" x2="780" y2="108"/>
		<line class="st12" x1="792" y1="108" x2="768" y2="108.1"/>
		<g>
			<path d="M792,241v-7.5h1l4.4,3.9c0.7,0.6,1.2,1,1.6,1.2c0.4,0.2,0.8,0.3,1.3,0.3c0.6,0,1.1-0.2,1.5-0.5s0.6-0.8,0.6-1.4
				c0-0.7-0.2-1.3-0.6-1.7s-1-0.6-1.7-0.6v-1.4c1,0,1.9,0.3,2.5,1c0.6,0.7,1,1.6,1,2.7c0,1.1-0.3,1.9-0.8,2.5
				c-0.6,0.6-1.3,0.9-2.2,0.9c-1.1,0-2.5-0.7-4-2.1l-3.3-3v5.7H792z"/>
			<path d="M795.8,248.6v1.6h-1.2v-1.6H792v-1.5h2.6V242h0.9l7.9,5.1v1.5H795.8z M795.8,243.6v3.5h5.6l-0.3-0.2L795.8,243.6z"/>
			<path d="M796.1,262.7c-1.3,0-2.3-0.3-3.1-0.9c-0.8-0.6-1.2-1.4-1.2-2.4c0-1,0.3-1.8,1-2.4h-4.1v-1.4h11.7v1.3l-0.9,0.1
				c0.7,0.6,1.1,1.4,1.1,2.5c0,1-0.4,1.8-1.1,2.4c-0.8,0.6-1.8,0.9-3.2,0.9H796.1z M796.3,261.3c1,0,1.7-0.2,2.3-0.6s0.8-1,0.8-1.7
				c0-0.9-0.4-1.5-1.2-2h-4c-0.8,0.4-1.2,1.1-1.2,2c0,0.7,0.3,1.2,0.8,1.7C794.4,261.1,795.2,261.3,796.3,261.3z"/>
			<path d="M797.4,267.4l3.1,1.9v1.7l-4.2-2.8l-4.3,2.9v-1.7l3.2-2l-3.2-2v-1.7l4.3,2.9l4.2-2.8v1.7L797.4,267.4z"/>
		</g>
	</g>
	<g>
		<line class="st12" x1="756" y1="72" x2="756" y2="96"/>
		<line class="st12" x1="756" y1="84" x2="468" y2="84"/>
		<line class="st12" x1="468" y1="72" x2="468.1" y2="96"/>
		<g>
			<path d="M601,72h-7.5v-1l3.9-4.4c0.6-0.7,1-1.2,1.2-1.6s0.3-0.8,0.3-1.3c0-0.6-0.2-1.1-0.5-1.5c-0.4-0.4-0.8-0.6-1.4-0.6
				c-0.7,0-1.3,0.2-1.7,0.6c-0.4,0.4-0.6,1-0.6,1.7h-1.4c0-1,0.3-1.9,1-2.5c0.7-0.6,1.6-1,2.7-1c1.1,0,1.9,0.3,2.5,0.8
				s0.9,1.3,0.9,2.2c0,1.1-0.7,2.5-2.1,4l-3,3.3h5.7V72z"/>
			<path d="M608.6,68.2h1.6v1.2h-1.6V72h-1.5v-2.6H602v-0.9l5.1-7.9h1.5V68.2z M603.6,68.2h3.5v-5.6l-0.2,0.3L603.6,68.2z"/>
			<path d="M622.7,67.9c0,1.3-0.3,2.3-0.9,3.1c-0.6,0.8-1.4,1.2-2.4,1.2c-1,0-1.8-0.3-2.4-1v4.1h-1.4V63.5h1.3l0.1,0.9
				c0.6-0.7,1.4-1.1,2.5-1.1c1,0,1.8,0.4,2.4,1.1s0.9,1.8,0.9,3.2V67.9z M621.3,67.7c0-1-0.2-1.7-0.6-2.3c-0.4-0.6-1-0.8-1.7-0.8
				c-0.9,0-1.5,0.4-2,1.2v4c0.4,0.8,1.1,1.2,2,1.2c0.7,0,1.2-0.3,1.7-0.8C621.1,69.6,621.3,68.8,621.3,67.7z"/>
			<path d="M627.4,66.6l1.9-3.1h1.7l-2.8,4.2l2.9,4.3h-1.7l-2-3.2l-2,3.2h-1.7l2.9-4.3l-2.8-4.2h1.7L627.4,66.6z"/>
		</g>
	</g>
	<g>
		<line class="st20" x1="324" y1="348" x2="300" y2="348"/>
		<line class="st20" x1="312" y1="348" x2="312" y2="156"/>
		<line class="st20" x1="324" y1="156" x2="300" y2="156.1"/>
		<g>
			<g>
				<path d="M324,238.3v-1.5h9.6l-1.1-2.9h1.3l1.6,4.1v0.2H324z"/>
				<path d="M335.4,248.2h-1.2v-0.3c0-1.1-0.4-2-1-2.7c-0.6-0.7-1.6-1.1-2.7-1.2c0.7,0.6,1,1.4,1,2.5c0,1-0.3,1.8-1,2.4
					c-0.7,0.6-1.6,0.9-2.7,0.9c-1.2,0-2.1-0.3-2.8-1c-0.7-0.6-1.1-1.5-1.1-2.6c0-1.1,0.4-2,1.3-2.6c0.8-0.7,1.9-1,3.2-1h0.6
					c2.1,0,3.7,0.4,4.8,1.3c1.1,0.9,1.7,2.2,1.7,4V248.2z M330.3,246.3c0-0.5-0.1-1-0.4-1.4c-0.3-0.4-0.7-0.7-1.1-0.9h-0.5
					c-0.9,0-1.7,0.2-2.3,0.6s-0.9,0.9-0.9,1.6c0,0.7,0.2,1.2,0.7,1.5c0.5,0.4,1.1,0.6,1.9,0.6c0.8,0,1.4-0.2,1.9-0.6
					C330,247.4,330.3,246.9,330.3,246.3z"/>
				<path d="M328.1,262.7c-1.3,0-2.3-0.3-3.1-0.9c-0.8-0.6-1.2-1.4-1.2-2.4c0-1,0.3-1.8,1-2.4h-4.1v-1.4h11.7v1.3l-0.9,0.1
					c0.7,0.6,1.1,1.4,1.1,2.5c0,1-0.4,1.8-1.1,2.4c-0.8,0.6-1.8,0.9-3.2,0.9H328.1z M328.3,261.3c1,0,1.7-0.2,2.3-0.6s0.8-1,0.8-1.7
					c0-0.9-0.4-1.5-1.2-2h-4c-0.8,0.4-1.2,1.1-1.2,2c0,0.7,0.3,1.2,0.8,1.7C326.4,261.1,327.2,261.3,328.3,261.3z"/>
				<path d="M329.4,267.4l3.1,1.9v1.7l-4.2-2.8l-4.3,2.9v-1.7l3.2-2l-3.2-2v-1.7l4.3,2.9l4.2-2.8v1.7L329.4,267.4z"/>
			</g>
		</g>
	</g>
	<g>
		<line class="st20" x1="288" y1="120" x2="288" y2="144"/>
		<line class="st20" x1="288" y1="132" x2="96" y2="132"/>
		<line class="st20" x1="96" y1="120" x2="96.1" y2="144"/>
		<g>
			<path d="M178.3,120h-1.5v-9.6l-2.9,1.1v-1.3l4.1-1.6h0.2V120z"/>
			<path d="M188.2,108.6v1.2h-0.3c-1.1,0-2,0.4-2.7,1c-0.7,0.6-1.1,1.6-1.2,2.7c0.6-0.7,1.4-1,2.5-1c1,0,1.8,0.3,2.4,1
				c0.6,0.7,0.9,1.6,0.9,2.7c0,1.2-0.3,2.1-1,2.8s-1.5,1.1-2.6,1.1c-1.1,0-2-0.4-2.6-1.3s-1-1.9-1-3.2v-0.6c0-2.1,0.4-3.7,1.3-4.8
				c0.9-1.1,2.2-1.7,4-1.7H188.2z M186.3,113.7c-0.5,0-1,0.1-1.4,0.4s-0.7,0.7-0.9,1.1v0.5c0,0.9,0.2,1.7,0.6,2.3
				c0.4,0.6,0.9,0.9,1.6,0.9c0.7,0,1.2-0.2,1.5-0.7c0.4-0.5,0.6-1.1,0.6-1.9c0-0.8-0.2-1.4-0.6-1.9
				C187.4,114,186.9,113.7,186.3,113.7z"/>
			<path d="M202.7,115.9c0,1.3-0.3,2.3-0.9,3.1c-0.6,0.8-1.4,1.2-2.4,1.2c-1,0-1.8-0.3-2.4-1v4.1h-1.4v-11.7h1.3l0.1,0.9
				c0.6-0.7,1.4-1.1,2.5-1.1c1,0,1.8,0.4,2.4,1.1s0.9,1.8,0.9,3.2V115.9z M201.3,115.7c0-1-0.2-1.7-0.6-2.3c-0.4-0.6-1-0.8-1.7-0.8
				c-0.9,0-1.5,0.4-2,1.2v4c0.4,0.8,1.1,1.2,2,1.2c0.7,0,1.2-0.3,1.7-0.8C201.1,117.6,201.3,116.8,201.3,115.7z"/>
			<path d="M207.4,114.6l1.9-3.1h1.7l-2.8,4.2l2.9,4.3h-1.7l-2-3.2l-2,3.2h-1.7l2.9-4.3l-2.8-4.2h1.7L207.4,114.6z"/>
		</g>
	</g>
	<line class="st4" x1="96" y1="168" x2="288" y2="168"/>
	<line class="st4" x1="96" y1="180" x2="288" y2="180"/>
	<line class="st4" x1="96" y1="192" x2="288" y2="192"/>
	<line class="st4" x1="96" y1="204" x2="288" y2="204"/>
	<line class="st4" x1="96" y1="216" x2="288" y2="216"/>
	<line class="st4" x1="96" y1="228" x2="288" y2="228"/>
	<line class="st4" x1="96" y1="240" x2="288" y2="240"/>
	<line class="st4" x1="96" y1="252" x2="288" y2="252"/>
	<line class="st4" x1="96" y1="264" x2="288" y2="264"/>
	<line class="st4" x1="96" y1="276" x2="288" y2="276"/>
	<line class="st4" x1="96" y1="288" x2="288" y2="288"/>
	<line class="st4" x1="96" y1="300" x2="288" y2="300"/>
	<line class="st4" x1="96" y1="312" x2="288" y2="312"/>
	<line class="st4" x1="96" y1="324" x2="288" y2="324"/>
	<line class="st4" x1="96" y1="336" x2="288" y2="336"/>
	<line class="st4" x1="96" y1="168" x2="288" y2="168"/>
	<line class="st4" x1="96" y1="180" x2="288" y2="180"/>
	<line class="st4" x1="96" y1="192" x2="288" y2="192"/>
	<line class="st4" x1="96" y1="204" x2="288" y2="204"/>
	<line class="st4" x1="96" y1="216" x2="288" y2="216"/>
	<line class="st4" x1="96" y1="228" x2="288" y2="228"/>
	<line class="st4" x1="96" y1="240" x2="288" y2="240"/>
	<line class="st4" x1="96" y1="252" x2="288" y2="252"/>
	<line class="st4" x1="96" y1="264" x2="288" y2="264"/>
	<line class="st4" x1="96" y1="276" x2="288" y2="276"/>
	<line class="st4" x1="96" y1="288" x2="288" y2="288"/>
	<line class="st4" x1="96" y1="300" x2="288" y2="300"/>
	<line class="st4" x1="96" y1="312" x2="288" y2="312"/>
	<line class="st4" x1="96" y1="324" x2="288" y2="324"/>
	<line class="st4" x1="96" y1="336" x2="288" y2="336"/>
	<line class="st21" x1="468" y1="120" x2="756" y2="120"/>
	<line class="st21" x1="468" y1="132" x2="756" y2="132"/>
	<line class="st21" x1="468" y1="144" x2="756" y2="144"/>
	<line class="st21" x1="468" y1="156" x2="756" y2="156"/>
	<line class="st21" x1="468" y1="168" x2="756" y2="168"/>
	<line class="st21" x1="468" y1="180" x2="756" y2="180"/>
	<line class="st21" x1="468" y1="192" x2="756" y2="192"/>
	<line class="st21" x1="468" y1="204" x2="756" y2="204"/>
	<line class="st21" x1="468" y1="216" x2="756" y2="216"/>
	<line class="st21" x1="468" y1="228" x2="756" y2="228"/>
	<line class="st21" x1="468" y1="240" x2="756" y2="240"/>
	<line class="st21" x1="468" y1="252" x2="756" y2="252"/>
	<line class="st21" x1="468" y1="264" x2="756" y2="264"/>
	<line class="st21" x1="468" y1="276" x2="756" y2="276"/>
	<line class="st21" x1="468" y1="288" x2="756" y2="288"/>
	<line class="st21" x1="468" y1="120" x2="756" y2="120"/>
	<line class="st21" x1="468" y1="132" x2="756" y2="132"/>
	<line class="st21" x1="468" y1="144" x2="756" y2="144"/>
	<line class="st21" x1="468" y1="156" x2="756" y2="156"/>
	<line class="st21" x1="468" y1="168" x2="756" y2="168"/>
	<line class="st21" x1="468" y1="180" x2="756" y2="180"/>
	<line class="st21" x1="468" y1="192" x2="756" y2="192"/>
	<line class="st21" x1="468" y1="204" x2="756" y2="204"/>
	<line class="st21" x1="468" y1="216" x2="756" y2="216"/>
	<line class="st21" x1="468" y1="228" x2="756" y2="228"/>
	<line class="st21" x1="468" y1="240" x2="756" y2="240"/>
	<line class="st21" x1="468" y1="252" x2="756" y2="252"/>
	<line class="st21" x1="468" y1="264" x2="756" y2="264"/>
	<line class="st21" x1="468" y1="276" x2="756" y2="276"/>
	<line class="st21" x1="468" y1="288" x2="756" y2="288"/>
	<line class="st21" x1="468" y1="300" x2="756" y2="300"/>
	<line class="st21" x1="468" y1="312" x2="756" y2="312"/>
	<line class="st21" x1="468" y1="324" x2="756" y2="324"/>
	<line class="st21" x1="468" y1="336" x2="756" y2="336"/>
	<line class="st21" x1="468" y1="300" x2="756" y2="300"/>
	<line class="st21" x1="468" y1="312" x2="756" y2="312"/>
	<line class="st21" x1="468" y1="324" x2="756" y2="324"/>
	<line class="st21" x1="468" y1="336" x2="756" y2="336"/>
	<line class="st21" x1="468" y1="348" x2="756" y2="348"/>
	<line class="st21" x1="468" y1="360" x2="756" y2="360"/>
	<line class="st21" x1="468" y1="372" x2="756" y2="372"/>
	<line class="st21" x1="468" y1="384" x2="756" y2="384"/>
	<line class="st21" x1="468" y1="348" x2="756" y2="348"/>
	<line class="st21" x1="468" y1="360" x2="756" y2="360"/>
	<line class="st21" x1="468" y1="372" x2="756" y2="372"/>
	<line class="st21" x1="468" y1="384" x2="756" y2="384"/>
	<line class="st21" x1="744" y1="108" x2="744" y2="396"/>
	<line class="st21" x1="732" y1="108" x2="732" y2="396"/>
	<line class="st21" x1="720" y1="108" x2="720" y2="396"/>
	<line class="st21" x1="708" y1="108" x2="708" y2="396"/>
	<line class="st21" x1="696" y1="108" x2="696" y2="396"/>
	<line class="st21" x1="684" y1="108" x2="684" y2="396"/>
	<line class="st21" x1="672" y1="108" x2="672" y2="396"/>
	<line class="st21" x1="660" y1="108" x2="660" y2="396"/>
	<line class="st21" x1="648" y1="108" x2="648" y2="396"/>
	<line class="st21" x1="636" y1="108" x2="636" y2="396"/>
	<line class="st21" x1="624" y1="108" x2="624" y2="396"/>
	<line class="st21" x1="612" y1="108" x2="612" y2="396"/>
	<line class="st21" x1="600" y1="108" x2="600" y2="396"/>
	<line class="st21" x1="588" y1="108" x2="588" y2="396"/>
	<line class="st21" x1="576" y1="108" x2="576" y2="396"/>
	<line class="st21" x1="744" y1="108" x2="744" y2="396"/>
	<line class="st21" x1="732" y1="108" x2="732" y2="396"/>
	<line class="st21" x1="720" y1="108" x2="720" y2="396"/>
	<line class="st21" x1="708" y1="108" x2="708" y2="396"/>
	<line class="st21" x1="696" y1="108" x2="696" y2="396"/>
	<line class="st21" x1="684" y1="108" x2="684" y2="396"/>
	<line class="st21" x1="672" y1="108" x2="672" y2="396"/>
	<line class="st21" x1="660" y1="108" x2="660" y2="396"/>
	<line class="st21" x1="648" y1="108" x2="648" y2="396"/>
	<line class="st21" x1="636" y1="108" x2="636" y2="396"/>
	<line class="st21" x1="624" y1="108" x2="624" y2="396"/>
	<line class="st21" x1="612" y1="108" x2="612" y2="396"/>
	<line class="st21" x1="600" y1="108" x2="600" y2="396"/>
	<line class="st21" x1="588" y1="108" x2="588" y2="396"/>
	<line class="st21" x1="576" y1="108" x2="576" y2="396"/>
	<line class="st21" x1="564" y1="108" x2="564" y2="396"/>
	<line class="st21" x1="552" y1="108" x2="552" y2="396"/>
	<line class="st21" x1="540" y1="108" x2="540" y2="396"/>
	<line class="st21" x1="528" y1="108" x2="528" y2="396"/>
	<line class="st21" x1="564" y1="108" x2="564" y2="396"/>
	<line class="st21" x1="552" y1="108" x2="552" y2="396"/>
	<line class="st21" x1="540" y1="108" x2="540" y2="396"/>
	<line class="st21" x1="528" y1="108" x2="528" y2="396"/>
	<line class="st21" x1="516" y1="108" x2="516" y2="396"/>
	<line class="st21" x1="504" y1="108" x2="504" y2="396"/>
	<line class="st21" x1="492" y1="108" x2="492" y2="396"/>
	<line class="st21" x1="480" y1="108" x2="480" y2="396"/>
	<line class="st21" x1="516" y1="108" x2="516" y2="396"/>
	<line class="st21" x1="504" y1="108" x2="504" y2="396"/>
	<line class="st21" x1="492" y1="108" x2="492" y2="396"/>
	<line class="st21" x1="480" y1="108" x2="480" y2="396"/>
	<line class="st4" x1="276" y1="156" x2="276" y2="348"/>
	<line class="st4" x1="264" y1="156" x2="264" y2="348"/>
	<line class="st4" x1="252" y1="156" x2="252" y2="348"/>
	<line class="st4" x1="240" y1="156" x2="240" y2="348"/>
	<line class="st4" x1="228" y1="156" x2="228" y2="348"/>
	<line class="st4" x1="216" y1="156" x2="216" y2="348"/>
	<line class="st4" x1="204" y1="156" x2="204" y2="348"/>
	<line class="st4" x1="192" y1="156" x2="192" y2="348"/>
	<line class="st4" x1="180" y1="156" x2="180" y2="348"/>
	<line class="st4" x1="168" y1="156" x2="168" y2="348"/>
	<line class="st4" x1="156" y1="156" x2="156" y2="348"/>
	<line class="st4" x1="144" y1="156" x2="144" y2="348"/>
	<line class="st4" x1="132" y1="156" x2="132" y2="348"/>
	<line class="st4" x1="120" y1="156" x2="120" y2="348"/>
	<line class="st4" x1="108" y1="156" x2="108" y2="348"/>
	<path class="st3" d="M240,192h-36l-12,11.9L180,192h-36l-24,24v36l72,72l72-72v-36L240,192z M240,242.1l-48,48l-48-48v-16.1
		l9.9-9.9h16.1l21.9,21.8l21.9-21.8h16.1l9.9,9.9V242.1z"/>
</g>
</svg>
