<svg xmlns="http://www.w3.org/2000/svg" viewBox="0 0 504 504"><defs><style>.cls-1{fill:#fff;}.cls-2{fill:#f5f1f0;}.cls-3{fill:#4c4b4b;}.cls-4{fill:none;}.cls-5{fill:#858282;}</style></defs><title>material-29</title><g id="Layer_1" data-name="Layer 1"><rect class="cls-1" x="108" y="192" width="288" height="84"/><path class="cls-2" d="M396.75,276.75H107.25v-85.5h289.5Zm-288-1.5h286.5v-82.5H108.75Z"/><path class="cls-3" d="M157.55,231,150,238.52,142.5,231Z"/><rect class="cls-4" x="132" y="216" width="36" height="36"/><rect class="cls-3" x="107.25" y="275.25" width="289.5" height="1.5"/><path class="cls-3" d="M333.29,256.18a4.9,4.9,0,0,0,1.86-.34,4.21,4.21,0,0,0,1.37-.91,4.37,4.37,0,0,0,.87-1.33,4.84,4.84,0,0,0,.36-1.6h-2.4a6.86,6.86,0,0,1-2-.26,3,3,0,0,1-1.26-.77,2.86,2.86,0,0,1-.63-1.21,6.58,6.58,0,0,1-.18-1.6,5.79,5.79,0,0,1,.26-1.73,4.56,4.56,0,0,1,.78-1.44,3.86,3.86,0,0,1,1.27-1,3.9,3.9,0,0,1,1.74-.38,4.31,4.31,0,0,1,1.52.27,3.19,3.19,0,0,1,1.26.83,4.06,4.06,0,0,1,.86,1.46,6.33,6.33,0,0,1,.32,2.17v3.27a6.91,6.91,0,0,1-.4,2.35,6.14,6.14,0,0,1-1.17,2,5.38,5.38,0,0,1-1.83,1.35,5.62,5.62,0,0,1-2.43.51H330.5a5.29,5.29,0,0,1-4.17-1.66,6.53,6.53,0,0,1-1.49-4.53v-4.2h1.54v4.15a6.41,6.41,0,0,0,.25,1.87,3.85,3.85,0,0,0,.79,1.45,3.52,3.52,0,0,0,1.36,1,5.21,5.21,0,0,0,2,.34Zm-.53-8.12a3.56,3.56,0,0,0,.13,1,1.46,1.46,0,0,0,.46.7,2,2,0,0,0,.87.41,6.11,6.11,0,0,0,1.4.13h2.16v-1.8a3.76,3.76,0,0,0-.7-2.54,2.46,2.46,0,0,0-1.92-.77,2.18,2.18,0,0,0-1.78.77A3.2,3.2,0,0,0,332.76,248.06Zm2-7.15h-1.92v-1.7h1.92Zm3,0H335.9v-1.7h1.92Z"/><path class="cls-3" d="M345.46,252a4,4,0,0,1-1.2-.18,2.42,2.42,0,0,1-1-.61,3,3,0,0,1-.71-1.14,5,5,0,0,1-.27-1.77V237.12h1.56V248a2.87,2.87,0,0,0,.45,1.66,1.61,1.61,0,0,0,1.45.66h.41c.35,0,.53.28.53.82s-.18.84-.53.84Z"/><path class="cls-3" d="M348.29,250.34a2.16,2.16,0,0,0,1.5-.5,1.79,1.79,0,0,0,.56-1.39v-3.31h1.56v3.31a3.49,3.49,0,0,1-1,2.63,3.55,3.55,0,0,1-2.58.92h-2.25a.43.43,0,0,1-.42-.19,1.31,1.31,0,0,1-.11-.6,1.52,1.52,0,0,1,.11-.65.43.43,0,0,1,.42-.22Zm.81-8.28h-1.92v-1.7h1.92Zm3,0h-1.92v-1.7h1.92Z"/><path class="cls-3" d="M354.91,237.12h1.56V252h-1.56Z"/><path class="cls-3" d="M367.46,246.17a2.86,2.86,0,0,1-1.14-.22,1.89,1.89,0,0,1-.85-.72c0,.37.06.76.07,1.18s0,.83,0,1.25v5.8H364v-5.83q0-1.44-.09-2.52a17.9,17.9,0,0,0-.24-2c-.1-.6-.22-1.17-.36-1.7s-.28-1.09-.44-1.67l1.49-.55c.11.38.2.73.27,1s.15.59.22.86l.2.78.22.81A3.62,3.62,0,0,0,366,244a1.67,1.67,0,0,0,1.32.51,2.21,2.21,0,0,0,1.36-.46,1.55,1.55,0,0,0,.58-1.3,14,14,0,0,0-.09-1.4c-.07-.57-.16-1.19-.29-1.86l1.51-.31a15.34,15.34,0,0,1,.29,1.8c.06.61.1,1.18.1,1.73a3.71,3.71,0,0,1-.26,1.4,3.22,3.22,0,0,1-.69,1.09,3,3,0,0,1-1.05.7A3.52,3.52,0,0,1,367.46,246.17Z"/><path class="cls-5" d="M322.56,224.61a3,3,0,0,0,1.16-.21,2.59,2.59,0,0,0,.86-.57,2.73,2.73,0,0,0,.55-.83,3.09,3.09,0,0,0,.22-1h-1.5a3.86,3.86,0,0,1-1.27-.17,1.62,1.62,0,0,1-.78-.48,1.65,1.65,0,0,1-.4-.75,3.88,3.88,0,0,1-.11-1,3.49,3.49,0,0,1,.16-1.08,2.62,2.62,0,0,1,.49-.9,2.29,2.29,0,0,1,.79-.62,2.39,2.39,0,0,1,1.09-.23,2.75,2.75,0,0,1,.95.16,2,2,0,0,1,.78.52,2.39,2.39,0,0,1,.54.91,3.93,3.93,0,0,1,.21,1.36v2a4.29,4.29,0,0,1-.26,1.47,3.76,3.76,0,0,1-.73,1.24,3.62,3.62,0,0,1-1.14.85,3.56,3.56,0,0,1-1.52.31h-1.83a3.3,3.3,0,0,1-2.61-1,4.06,4.06,0,0,1-.93-2.83v-2.62h1v2.59a3.9,3.9,0,0,0,.16,1.17,2.43,2.43,0,0,0,.49.91,2.36,2.36,0,0,0,.85.59,3.23,3.23,0,0,0,1.23.21Zm-.33-5.07a2.32,2.32,0,0,0,.08.64,1,1,0,0,0,.29.45,1.28,1.28,0,0,0,.55.25,3.58,3.58,0,0,0,.87.08h1.35v-1.12a2.34,2.34,0,0,0-.44-1.59,1.54,1.54,0,0,0-1.2-.48,1.35,1.35,0,0,0-1.11.48A2,2,0,0,0,322.23,219.54Zm1.26-4.47h-1.2V214h1.2Zm1.91,0h-1.2V214h1.2Z"/><path class="cls-5" d="M330.17,222a2.67,2.67,0,0,1-.75-.11,1.73,1.73,0,0,1-.64-.38,1.83,1.83,0,0,1-.44-.72,3.14,3.14,0,0,1-.17-1.1v-7h1v6.81a1.85,1.85,0,0,0,.27,1,1,1,0,0,0,.91.41h.26c.22,0,.33.18.33.51s-.11.53-.33.53Z"/><path class="cls-5" d="M331.94,221a1.32,1.32,0,0,0,.93-.31,1.1,1.1,0,0,0,.36-.87v-2.07h1v2.07A2,2,0,0,1,332,222h-1.41a.29.29,0,0,1-.27-.12.86.86,0,0,1-.06-.37,1.07,1.07,0,0,1,.06-.41.28.28,0,0,1,.27-.14Zm.51-5.17h-1.2v-1.07h1.2Zm1.9,0h-1.2v-1.07h1.2Z"/><path class="cls-5" d="M336.08,212.7h1V222h-1Z"/><path class="cls-5" d="M346.74,218.43a2.93,2.93,0,0,1,.56.86,2.15,2.15,0,0,1,.18.84,1.77,1.77,0,0,1-.58,1.34,2.36,2.36,0,0,1-1.64.53h-4.19l-.07-1h4.14a1.34,1.34,0,0,0,.9-.26.88.88,0,0,0,.33-.71,1.23,1.23,0,0,0-.11-.46,1.79,1.79,0,0,0-.31-.48l-2.79-3.15.76-.73Z"/><path class="cls-5" d="M349.26,212.7h1V222h-1Z"/><path class="cls-5" d="M355.09,221a1.51,1.51,0,0,0,.56-.08,1,1,0,0,0,.37-.21.9.9,0,0,0,.21-.27.79.79,0,0,0,.06-.29,1.86,1.86,0,0,0-.05-.41c0-.16-.12-.41-.22-.75l-.45-1.31-.76-2.12.92-.37,1.6,4.57a2.35,2.35,0,0,0,.55,1,1.28,1.28,0,0,0,.89.28H359c.22,0,.33.18.33.51s-.11.53-.33.53h-.21a2.29,2.29,0,0,1-.94-.19A1.8,1.8,0,0,1,357,221a1.52,1.52,0,0,1-.79.81,2.48,2.48,0,0,1-1,.2H352l-.08-1Z"/><path class="cls-5" d="M359.65,221a11.29,11.29,0,0,0,1.38-.08,3.93,3.93,0,0,0,1.43-.43l-2.24-2.89.56-1h3.85a2.14,2.14,0,0,1,1.14.29,1.13,1.13,0,0,1,.53.85,1.09,1.09,0,0,1,0,.18V218a1.87,1.87,0,0,1-.11.42,1.93,1.93,0,0,1-.3.52,6.21,6.21,0,0,1-.6.68,12.57,12.57,0,0,1-1,.9,1.92,1.92,0,0,0,.45.23,1.71,1.71,0,0,0,.47.12,4.49,4.49,0,0,0,.55.05h1.77c.22,0,.33.18.33.51s-.11.53-.33.53H366.3c-.33,0-.63,0-.91,0a3.78,3.78,0,0,1-.77-.09,2.66,2.66,0,0,1-.68-.26,2.74,2.74,0,0,1-.64-.48,4.46,4.46,0,0,1-1.66.68,9.36,9.36,0,0,1-1.93.17H359a.27.27,0,0,1-.26-.12.71.71,0,0,1-.07-.37.89.89,0,0,1,.07-.41A.26.26,0,0,1,359,221Zm5.64-2.83a.51.51,0,0,0-.23-.45,1.21,1.21,0,0,0-.7-.16h-3l2.08,2.69c.36-.29.66-.55.9-.76a6.49,6.49,0,0,0,.58-.55,1.54,1.54,0,0,0,.3-.43A.73.73,0,0,0,365.29,218.13Z"/><path class="cls-5" d="M368.89,221a1.33,1.33,0,0,0,.94-.31,1.09,1.09,0,0,0,.35-.87v-2.07h1v2.07A2,2,0,0,1,369,222h-1.42a.29.29,0,0,1-.26-.12.83.83,0,0,1-.07-.37,1,1,0,0,1,.07-.41.28.28,0,0,1,.26-.14Zm.52-5.17h-1.2v-1.07h1.2Zm1.9,0h-1.2v-1.07h1.2Z"/></g></svg>