<svg xmlns="http://www.w3.org/2000/svg" viewBox="0 0 504 504"><defs><style>.cls-1{fill:#ac2700;}.cls-2{fill:#fff;}.cls-3{fill:#f5f1f0;}.cls-4{fill:#4c4b4b;}.cls-5{fill:none;}</style></defs><title>material-30</title><g id="Layer_1" data-name="Layer 1"><path class="cls-1" d="M316.73,302.61a4.35,4.35,0,0,0,1.17-.16,3.37,3.37,0,0,0,.93-.46,2.28,2.28,0,0,0,.63-.69,1.63,1.63,0,0,0,.24-.85,1,1,0,0,0-.23-.68,1.08,1.08,0,0,0-.88-.28H316V296.9a2.65,2.65,0,0,1,.66-1.86,2.38,2.38,0,0,1,1.82-.71h1.73l.08,1h-1.86a1.63,1.63,0,0,0-.55.1,1.42,1.42,0,0,0-.47.29,1.59,1.59,0,0,0-.33.46,1.67,1.67,0,0,0-.12.65v1.59h1.83a2.5,2.5,0,0,1,.92.15,1.35,1.35,0,0,1,.58.39,1.24,1.24,0,0,1,.3.58,2.63,2.63,0,0,1,.09.7,3,3,0,0,1-.3,1.32,3.56,3.56,0,0,1-.82,1.07,4.05,4.05,0,0,1-1.2.71,4.31,4.31,0,0,1-1.48.26h-1.27a3.28,3.28,0,0,1-2.61-1,4.06,4.06,0,0,1-.94-2.83v-2.62h1v2.59a4.25,4.25,0,0,0,.15,1.17,2.45,2.45,0,0,0,.5.91,2.28,2.28,0,0,0,.85.59,3.23,3.23,0,0,0,1.23.21Z"/><path class="cls-1" d="M320.62,302.61h.31a3,3,0,0,0,1.26-.24,2.42,2.42,0,0,0,.86-.64,2.74,2.74,0,0,0,.5-.9,3.51,3.51,0,0,0,.16-1.07v-4.05h1v4.05a4.19,4.19,0,0,1-.28,1.58,3.9,3.9,0,0,1-.75,1.23,3.36,3.36,0,0,1-1.14.78,3.45,3.45,0,0,1-1.41.28h-.38Z"/><path class="cls-1" d="M328.56,300a2.67,2.67,0,0,1-.75-.11,1.81,1.81,0,0,1-.64-.38,2,2,0,0,1-.44-.72,3.16,3.16,0,0,1-.16-1.1v-7h1v6.81a1.77,1.77,0,0,0,.28,1,1,1,0,0,0,.91.41H329c.22,0,.33.18.33.51s-.11.53-.33.53Z"/><path class="cls-1" d="M330.12,299a1.34,1.34,0,0,0,1-.31,1.15,1.15,0,0,0,.33-.87v-2.07h1v2.07a1.15,1.15,0,0,0,.11.55,1,1,0,0,0,.29.37,1.07,1.07,0,0,0,.41.21,1.75,1.75,0,0,0,.46,0h.45c.23,0,.35.18.35.51s-.12.53-.35.53h-.48a2.64,2.64,0,0,1-1-.2,1.66,1.66,0,0,1-.76-.77,1.87,1.87,0,0,1-.79.77,2.31,2.31,0,0,1-.95.2H329a.27.27,0,0,1-.26-.12.71.71,0,0,1-.07-.37.89.89,0,0,1,.07-.41A.26.26,0,0,1,329,299Zm2,3.87H330.9v-1.09h1.26Z"/><path class="cls-1" d="M338.45,299.11a6.94,6.94,0,0,1-.75.4,3.79,3.79,0,0,1-.78.28,7.46,7.46,0,0,1-.93.16c-.33,0-.71.05-1.14.05h-.74a.27.27,0,0,1-.26-.12.71.71,0,0,1-.07-.37.89.89,0,0,1,.07-.41.26.26,0,0,1,.26-.14h.75c.39,0,.74,0,1,0s.57-.07.82-.12a4.91,4.91,0,0,0,.71-.22,3.93,3.93,0,0,0,.67-.35l2.54-1.46a5.28,5.28,0,0,0-.26-.58,1.37,1.37,0,0,0-.34-.44,1.28,1.28,0,0,0-.5-.28,2.31,2.31,0,0,0-.75-.1h-3.36l.09-1h3.41a4.56,4.56,0,0,1,.8.09,1.91,1.91,0,0,1,.78.39,3,3,0,0,1,.69.86,5.79,5.79,0,0,1,.53,1.52Zm-.05,3.72h-1.26v-1.09h1.26Z"/><path class="cls-1" d="M343.49,290.7h1V300h-1Z"/><path class="cls-1" d="M351.62,299a1.49,1.49,0,0,0,.55-.08,1,1,0,0,0,.37-.21.9.9,0,0,0,.21-.27.79.79,0,0,0,.06-.29,2.77,2.77,0,0,0-.05-.41c-.05-.16-.12-.41-.22-.75l-.45-1.31-.76-2.12.92-.37,1.6,4.57a2.47,2.47,0,0,0,.55,1,1.3,1.3,0,0,0,.89.28h.21c.22,0,.33.18.33.51s-.11.53-.33.53h-.21a2.29,2.29,0,0,1-.94-.19,1.76,1.76,0,0,1-.83-.82,1.52,1.52,0,0,1-.79.81,2.48,2.48,0,0,1-1,.2h-3.23l-.08-1Z"/><path class="cls-1" d="M355.89,299a1.29,1.29,0,0,0,.95-.31,1.15,1.15,0,0,0,.33-.87V290.7h1v7.08a1.28,1.28,0,0,0,.11.55,1.22,1.22,0,0,0,.29.37,1.14,1.14,0,0,0,.41.21,1.83,1.83,0,0,0,.47,0h.2a.29.29,0,0,1,.27.13,1,1,0,0,1,.07.38.92.92,0,0,1-.07.4.27.27,0,0,1-.27.13h-.24a2.59,2.59,0,0,1-1-.2,1.58,1.58,0,0,1-.76-.77,1.87,1.87,0,0,1-.79.77,2.41,2.41,0,0,1-.94.2h-.39a.27.27,0,0,1-.26-.12.71.71,0,0,1-.07-.37.89.89,0,0,1,.07-.41.26.26,0,0,1,.26-.14Z"/><path class="cls-1" d="M360.77,299a1.29,1.29,0,0,0,1-.31,1.11,1.11,0,0,0,.33-.87v-2.07h1v2.07a1.28,1.28,0,0,0,.11.55,1.11,1.11,0,0,0,.3.37,1,1,0,0,0,.4.21,1.75,1.75,0,0,0,.46,0h.46c.23,0,.34.18.34.51s-.11.53-.34.53h-.48a2.6,2.6,0,0,1-1-.2,1.62,1.62,0,0,1-.76-.77,1.92,1.92,0,0,1-.79.77,2.34,2.34,0,0,1-1,.2h-1.15a.29.29,0,0,1-.26-.12.83.83,0,0,1-.07-.37,1,1,0,0,1,.07-.41.28.28,0,0,1,.26-.14Zm1,3.84h-1.15v-1.06h1.15Zm2,0h-1.14v-1.06h1.14Z"/><path class="cls-1" d="M367.29,299h1.26a6.59,6.59,0,0,1-1.34-.56,2.84,2.84,0,0,1-.75-.59,1.47,1.47,0,0,1-.32-.65,4.79,4.79,0,0,1-.06-.79,2.37,2.37,0,0,1,.16-.85,2.33,2.33,0,0,1,.49-.79,2.45,2.45,0,0,1,.79-.58,2.53,2.53,0,0,1,1.09-.23,3.27,3.27,0,0,1,1,.16,2.17,2.17,0,0,1,.81.5,2.48,2.48,0,0,1,.52.9,4.23,4.23,0,0,1,.19,1.37v.68a2.35,2.35,0,0,1-.7,1.81,3.08,3.08,0,0,1-2.19.66h-3.51a.28.28,0,0,1-.27-.12.86.86,0,0,1-.06-.37,1.07,1.07,0,0,1,.06-.41.27.27,0,0,1,.27-.14Zm1.26-4a1.55,1.55,0,0,0-1.15.48,1.5,1.5,0,0,0-.3.48,1.54,1.54,0,0,0-.11.55,2.29,2.29,0,0,0,.06.54,1,1,0,0,0,.33.49,3.63,3.63,0,0,0,.82.53,14,14,0,0,0,1.52.62,1.48,1.48,0,0,0,.48-1.2V297a2.53,2.53,0,0,0-.37-1.46A1.47,1.47,0,0,0,368.55,295Zm.69-2.52H368v-1.1h1.26Z"/><rect class="cls-2" x="108" y="192" width="288" height="84"/><path class="cls-3" d="M396.75,276.75H107.25v-85.5h289.5Zm-288-1.5h286.5v-82.5H108.75Z"/><path class="cls-4" d="M157.55,231,150,238.52,142.5,231Z"/><rect class="cls-5" x="132" y="216" width="36" height="36"/><rect class="cls-1" x="107.25" y="275.25" width="289.5" height="1.5"/><path class="cls-1" d="M274.75,234.72l-1.08-.89,2.48-3.21-3.85-1.35.51-1.27,3.72,1.44,0-4.1h1.35l-.05,4.1L281.5,228l.5,1.27-3.84,1.35,2.47,3.21-1.05.89-2.4-3.36Z"/><path class="cls-1" d="M292.9,244.18a4.9,4.9,0,0,0,1.86-.34,4.06,4.06,0,0,0,1.36-.91,4.22,4.22,0,0,0,.88-1.33,4.84,4.84,0,0,0,.36-1.6H295a6.82,6.82,0,0,1-2-.26,3,3,0,0,1-1.26-.77,2.86,2.86,0,0,1-.63-1.21,6.58,6.58,0,0,1-.18-1.6,5.49,5.49,0,0,1,.26-1.73,4.56,4.56,0,0,1,.78-1.44,3.76,3.76,0,0,1,1.27-1,3.9,3.9,0,0,1,1.74-.38,4.25,4.25,0,0,1,1.51.27,3.19,3.19,0,0,1,1.26.83,4.08,4.08,0,0,1,.87,1.46,6.58,6.58,0,0,1,.32,2.17v3.27a6.68,6.68,0,0,1-.41,2.35,6.12,6.12,0,0,1-1.16,2,5.42,5.42,0,0,1-1.84,1.35,5.58,5.58,0,0,1-2.42.51h-2.93a5.29,5.29,0,0,1-4.17-1.66,6.48,6.48,0,0,1-1.49-4.53v-4.2H286v4.15a6.4,6.4,0,0,0,.26,1.87,3.72,3.72,0,0,0,.79,1.45,3.56,3.56,0,0,0,1.35,1,5.26,5.26,0,0,0,2,.34Zm-.53-8.12a3.56,3.56,0,0,0,.13,1,1.46,1.46,0,0,0,.46.7,2,2,0,0,0,.87.41,6,6,0,0,0,1.39.13h2.16v-1.8a3.76,3.76,0,0,0-.69-2.54,2.49,2.49,0,0,0-1.92-.77A2.18,2.18,0,0,0,293,234,3.2,3.2,0,0,0,292.37,236.06Zm2-7.15h-1.92v-1.7h1.92Zm3.05,0h-1.92v-1.7h1.92Z"/><path class="cls-1" d="M305.06,240a3.94,3.94,0,0,1-1.19-.18,2.52,2.52,0,0,1-1-.61,3.07,3.07,0,0,1-.7-1.14,5,5,0,0,1-.27-1.77V225.12h1.56V236a2.87,2.87,0,0,0,.45,1.66,1.61,1.61,0,0,0,1.45.66h.41c.35,0,.52.28.52.82s-.17.84-.52.84Z"/><path class="cls-1" d="M307.9,238.34a2.16,2.16,0,0,0,1.5-.5,1.79,1.79,0,0,0,.56-1.39v-3.31h1.56v3.31A3.24,3.24,0,0,1,308,240h-2.25a.43.43,0,0,1-.42-.19,1.19,1.19,0,0,1-.11-.6,1.38,1.38,0,0,1,.11-.65.43.43,0,0,1,.42-.22Zm.81-8.28h-1.92v-1.7h1.92Zm3.05,0h-1.92v-1.7h1.92Z"/><path class="cls-1" d="M314.52,225.12h1.56V240h-1.56Z"/><path class="cls-1" d="M331.58,234.29a4.52,4.52,0,0,1,.9,1.38,3.42,3.42,0,0,1,.28,1.33,2.83,2.83,0,0,1-.92,2.15,3.75,3.75,0,0,1-2.63.85h-6.7l-.12-1.66H329a2.2,2.2,0,0,0,1.45-.43,1.41,1.41,0,0,0,.51-1.13,2,2,0,0,0-.16-.74,2.64,2.64,0,0,0-.51-.77l-4.46-5,1.22-1.15Z"/><path class="cls-1" d="M335.62,225.12h1.56V240h-1.56Z"/><path class="cls-1" d="M345,238.34a2.57,2.57,0,0,0,.89-.13,1.94,1.94,0,0,0,.59-.33,1.37,1.37,0,0,0,.33-.45,1,1,0,0,0,.11-.45,3.19,3.19,0,0,0-.09-.65c-.07-.27-.18-.67-.35-1.2s-.41-1.23-.72-2.11-.72-2-1.21-3.39L346,229l2.57,7.32a3.72,3.72,0,0,0,.89,1.54,2,2,0,0,0,1.41.45h.34c.35,0,.53.28.53.82s-.18.84-.53.84h-.34a3.88,3.88,0,0,1-1.51-.3,3,3,0,0,1-1.32-1.31,2.61,2.61,0,0,1-1.26,1.3,4.2,4.2,0,0,1-1.64.31h-5.16l-.12-1.66Z"/><path class="cls-1" d="M352.25,238.34a19.45,19.45,0,0,0,2.21-.13,6.8,6.8,0,0,0,2.28-.68l-3.58-4.63.89-1.64h6.17a3.4,3.4,0,0,1,1.81.46,1.79,1.79,0,0,1,.85,1.37,1.37,1.37,0,0,1,0,.29v.28a3.28,3.28,0,0,1-.18.68,2.91,2.91,0,0,1-.48.82,10.08,10.08,0,0,1-1,1.1c-.4.41-.94.89-1.59,1.44a3.4,3.4,0,0,0,1.46.56,7.85,7.85,0,0,0,.89.07h2.83c.35,0,.53.28.53.82s-.18.84-.53.84h-2l-1.45,0a6.88,6.88,0,0,1-1.24-.16,4.22,4.22,0,0,1-1.09-.41,4.33,4.33,0,0,1-1-.78,7.58,7.58,0,0,1-2.65,1.11,16.82,16.82,0,0,1-3.09.26h-1.17a.43.43,0,0,1-.42-.19,1.31,1.31,0,0,1-.11-.6,1.52,1.52,0,0,1,.11-.65.43.43,0,0,1,.42-.22Zm9-4.53a.82.82,0,0,0-.37-.72,1.91,1.91,0,0,0-1.12-.27H355l3.34,4.32,1.44-1.22a11.57,11.57,0,0,0,.92-.89,2.85,2.85,0,0,0,.48-.67A1.29,1.29,0,0,0,361.27,233.81Z"/><path class="cls-1" d="M367,238.34a2.13,2.13,0,0,0,1.5-.5,1.77,1.77,0,0,0,.57-1.39v-3.31h1.56v3.31a3.24,3.24,0,0,1-3.53,3.55h-2.26a.43.43,0,0,1-.42-.19,1.31,1.31,0,0,1-.11-.6,1.52,1.52,0,0,1,.11-.65.43.43,0,0,1,.42-.22Zm.82-8.28h-1.92v-1.7h1.92Zm3,0H369v-1.7h1.92Z"/></g></svg>