<svg xmlns="http://www.w3.org/2000/svg" viewBox="0 0 864 504"><defs><style>.cls-1{fill:#dbd8d7;}.cls-2{fill:#f5f1f0;}.cls-3{fill:#fff;}.cls-4{fill:none;}.cls-5{fill:#bdb9b9;}</style></defs><title>material-31</title><g id="Layer_2" data-name="Layer 2"><rect class="cls-1" x="0.05" width="863.9" height="504"/></g><g id="Layer_1" data-name="Layer 1"><rect class="cls-2" x="288" y="264" width="288" height="60"/><path class="cls-3" d="M576.25,396.25H287.75V191.75h288.5Zm-288-.5h287.5V192.25H288.25Z"/><path class="cls-3" d="M518.47,244.18a4.82,4.82,0,0,0,1.86-.34,4.11,4.11,0,0,0,1.37-.91,4.22,4.22,0,0,0,.88-1.33,5.4,5.4,0,0,0,.36-1.6h-2.4a6.77,6.77,0,0,1-2-.26,2.91,2.91,0,0,1-1.26-.77,2.77,2.77,0,0,1-.64-1.21,6.58,6.58,0,0,1-.18-1.6,5.5,5.5,0,0,1,.27-1.73,4.19,4.19,0,0,1,.78-1.44,3.76,3.76,0,0,1,1.27-1,3.84,3.84,0,0,1,1.74-.38,4.25,4.25,0,0,1,1.51.27,3.19,3.19,0,0,1,1.26.83,3.93,3.93,0,0,1,.86,1.46,6.31,6.31,0,0,1,.33,2.17v3.27A6.92,6.92,0,0,1,524,242a6.12,6.12,0,0,1-1.16,2A5.52,5.52,0,0,1,521,245.3a5.61,5.61,0,0,1-2.42.51h-2.93a5.32,5.32,0,0,1-4.18-1.66,6.53,6.53,0,0,1-1.49-4.53v-4.2h1.54v4.15a6.41,6.41,0,0,0,.25,1.87,4,4,0,0,0,.79,1.45,3.59,3.59,0,0,0,1.36,1,5.23,5.23,0,0,0,2,.34Zm-.53-8.12a3.54,3.54,0,0,0,.14,1,1.44,1.44,0,0,0,.45.7,2.06,2.06,0,0,0,.88.41,6,6,0,0,0,1.39.13H523v-1.8a3.71,3.71,0,0,0-.7-2.54,2.46,2.46,0,0,0-1.92-.77,2.16,2.16,0,0,0-1.77.77A3.15,3.15,0,0,0,517.94,236.06Zm2-7.15H518v-1.7H520Zm3,0h-1.92v-1.7H523Z"/><path class="cls-3" d="M530.64,240a4,4,0,0,1-1.2-.18,2.55,2.55,0,0,1-1-.61,3.08,3.08,0,0,1-.71-1.14,5.25,5.25,0,0,1-.26-1.77V225.12H529V236a3,3,0,0,0,.44,1.66,1.63,1.63,0,0,0,1.46.66h.4c.36,0,.53.28.53.82s-.17.84-.53.84Z"/><path class="cls-3" d="M533.47,238.34a2.13,2.13,0,0,0,1.5-.5,1.77,1.77,0,0,0,.57-1.39v-3.31h1.56v3.31a3.24,3.24,0,0,1-3.53,3.55h-2.26a.43.43,0,0,1-.42-.19,1.31,1.31,0,0,1-.11-.6,1.52,1.52,0,0,1,.11-.65.43.43,0,0,1,.42-.22Zm.82-8.28h-1.92v-1.7h1.92Zm3.05,0h-1.92v-1.7h1.92Z"/><path class="cls-3" d="M540.1,225.12h1.56V240H540.1Z"/><path class="cls-3" d="M549.05,241.46v-5.83q0-1.44-.09-2.52a17.9,17.9,0,0,0-.24-2c-.1-.6-.22-1.17-.35-1.7s-.29-1.09-.45-1.67l1.49-.55c.21.64.39,1.25.54,1.85s.27,1.2.37,1.84.17,1.34.22,2.08.07,1.59.07,2.53v6Z"/><path class="cls-3" d="M508.54,364.18a4.9,4.9,0,0,0,1.86-.34,4.06,4.06,0,0,0,1.36-.91,4.22,4.22,0,0,0,.88-1.33A4.84,4.84,0,0,0,513,360h-2.4a6.82,6.82,0,0,1-2-.26,3,3,0,0,1-1.26-.77,2.86,2.86,0,0,1-.63-1.21,6.58,6.58,0,0,1-.18-1.6,5.49,5.49,0,0,1,.26-1.73,4.56,4.56,0,0,1,.78-1.44,3.76,3.76,0,0,1,1.27-1,3.9,3.9,0,0,1,1.74-.38,4.25,4.25,0,0,1,1.51.27,3.19,3.19,0,0,1,1.26.83,4.08,4.08,0,0,1,.87,1.46,6.58,6.58,0,0,1,.32,2.17v3.27a6.68,6.68,0,0,1-.41,2.35,6.12,6.12,0,0,1-1.16,2,5.42,5.42,0,0,1-1.84,1.35,5.58,5.58,0,0,1-2.42.51h-2.93a5.29,5.29,0,0,1-4.17-1.66,6.48,6.48,0,0,1-1.49-4.53v-4.2h1.53v4.15a6.4,6.4,0,0,0,.26,1.87,3.72,3.72,0,0,0,.79,1.45,3.56,3.56,0,0,0,1.35.95,5.26,5.26,0,0,0,2,.34Zm-.53-8.12a3.56,3.56,0,0,0,.13,1,1.46,1.46,0,0,0,.46.7,2,2,0,0,0,.87.41,6,6,0,0,0,1.39.13H513v-1.8a3.76,3.76,0,0,0-.69-2.54,2.49,2.49,0,0,0-1.92-.77,2.18,2.18,0,0,0-1.78.77A3.2,3.2,0,0,0,508,356.06Zm2-7.15H508.1v-1.7H510Zm3.05,0h-1.92v-1.7h1.92Z"/><path class="cls-3" d="M520.7,360a4.06,4.06,0,0,1-1.2-.18,2.55,2.55,0,0,1-1-.61,3.07,3.07,0,0,1-.7-1.14,5,5,0,0,1-.27-1.77V345.12h1.56V356a2.87,2.87,0,0,0,.45,1.66,1.61,1.61,0,0,0,1.45.66h.41c.35,0,.52.28.52.82s-.17.84-.52.84Z"/><path class="cls-3" d="M523.54,358.34a2.16,2.16,0,0,0,1.5-.5,1.79,1.79,0,0,0,.56-1.39v-3.31h1.56v3.31a3.24,3.24,0,0,1-3.53,3.55h-2.25a.43.43,0,0,1-.42-.19,1.19,1.19,0,0,1-.11-.6,1.38,1.38,0,0,1,.11-.65.43.43,0,0,1,.42-.22Zm.81-8.28h-1.92v-1.7h1.92Zm3,0h-1.92v-1.7h1.92Z"/><path class="cls-3" d="M530.16,345.12h1.56V360h-1.56Z"/><path class="cls-3" d="M545.78,349a15.07,15.07,0,0,1,.1,1.73c0,.12,0,.26,0,.4a3.17,3.17,0,0,1-.1.48,2.26,2.26,0,0,0,.78.66,1.92,1.92,0,0,0,.92.26,1.89,1.89,0,0,0,1.34-.52,1.56,1.56,0,0,0,.54-1.16,14.66,14.66,0,0,0-.1-1.48c-.06-.57-.16-1.19-.29-1.86l1.49-.31a16.61,16.61,0,0,1,.41,3.62,3.55,3.55,0,0,1-.25,1.31,3.51,3.51,0,0,1-.69,1.07,3.17,3.17,0,0,1-1,.71,3.36,3.36,0,0,1-1.28.25,3.11,3.11,0,0,1-1.3-.28,3.81,3.81,0,0,1-1.22-.92,2.79,2.79,0,0,1-1.05.87,3.12,3.12,0,0,1-1.47.33,2.79,2.79,0,0,1-1.14-.22,1.79,1.79,0,0,1-.85-.72c0,.37,0,.76.07,1.18s0,.83,0,1.25v5.8h-1.56v-5.83c0-1,0-1.8-.08-2.52s-.14-1.38-.24-2-.23-1.17-.36-1.7-.29-1.09-.45-1.67l1.49-.55c.11.38.21.73.28,1s.14.59.21.86.14.54.21.78.13.52.21.81a3.62,3.62,0,0,0,.72,1.34,1.7,1.7,0,0,0,1.32.51,2.17,2.17,0,0,0,1.36-.46,1.55,1.55,0,0,0,.59-1.3,11.82,11.82,0,0,0-.1-1.4c-.06-.57-.16-1.19-.29-1.86l1.52-.31A17.75,17.75,0,0,1,545.78,349Z"/><path class="cls-3" d="M576.25,192.25H287.75v-84.5h288.5Zm-288-.5h287.5v-83.5H288.25Z"/><path class="cls-3" d="M322.45,153l7.53-7.53L337.5,153Z"/><rect class="cls-4" x="312" y="132" width="36" height="36" transform="translate(660 300) rotate(180)"/><rect class="cls-5" x="574" y="383.75" width="2" height="0.5"/><path class="cls-5" d="M571,384.25h-4v-.5h4Zm-7,0h-4v-.5h4Zm-7,0h-4v-.5h4Zm-7,0h-4v-.5h4Zm-7,0h-4v-.5h4Zm-7,0h-4v-.5h4Zm-7,0h-4v-.5h4Zm-7,0h-4v-.5h4Zm-7,0h-4v-.5h4Zm-7,0h-4v-.5h4Zm-7,0h-4v-.5h4Zm-7,0h-4v-.5h4Zm-7,0h-4v-.5h4Zm-7,0h-4v-.5h4Zm-7,0h-4v-.5h4Zm-7,0h-4v-.5h4Zm-7,0h-4v-.5h4Zm-7,0h-4v-.5h4Zm-7,0h-4v-.5h4Zm-7,0h-4v-.5h4Zm-7,0h-4v-.5h4Zm-7,0h-4v-.5h4Zm-7,0h-4v-.5h4Zm-7,0h-4v-.5h4Zm-7,0h-4v-.5h4Zm-7,0h-4v-.5h4Zm-7,0h-4v-.5h4Zm-7,0h-4v-.5h4Zm-7,0h-4v-.5h4Zm-7,0h-4v-.5h4Zm-7,0h-4v-.5h4Zm-7,0h-4v-.5h4Zm-7,0h-4v-.5h4Zm-7,0h-4v-.5h4Zm-7,0h-4v-.5h4Zm-7,0h-4v-.5h4Zm-7,0h-4v-.5h4Zm-7,0h-4v-.5h4Zm-7,0h-4v-.5h4Zm-7,0h-4v-.5h4Z"/><rect class="cls-5" x="288" y="383.75" width="2" height="0.5"/><rect class="cls-5" x="574" y="323.75" width="2" height="0.5"/><path class="cls-5" d="M571,324.25h-4v-.5h4Zm-7,0h-4v-.5h4Zm-7,0h-4v-.5h4Zm-7,0h-4v-.5h4Zm-7,0h-4v-.5h4Zm-7,0h-4v-.5h4Zm-7,0h-4v-.5h4Zm-7,0h-4v-.5h4Zm-7,0h-4v-.5h4Zm-7,0h-4v-.5h4Zm-7,0h-4v-.5h4Zm-7,0h-4v-.5h4Zm-7,0h-4v-.5h4Zm-7,0h-4v-.5h4Zm-7,0h-4v-.5h4Zm-7,0h-4v-.5h4Zm-7,0h-4v-.5h4Zm-7,0h-4v-.5h4Zm-7,0h-4v-.5h4Zm-7,0h-4v-.5h4Zm-7,0h-4v-.5h4Zm-7,0h-4v-.5h4Zm-7,0h-4v-.5h4Zm-7,0h-4v-.5h4Zm-7,0h-4v-.5h4Zm-7,0h-4v-.5h4Zm-7,0h-4v-.5h4Zm-7,0h-4v-.5h4Zm-7,0h-4v-.5h4Zm-7,0h-4v-.5h4Zm-7,0h-4v-.5h4Zm-7,0h-4v-.5h4Zm-7,0h-4v-.5h4Zm-7,0h-4v-.5h4Zm-7,0h-4v-.5h4Zm-7,0h-4v-.5h4Zm-7,0h-4v-.5h4Zm-7,0h-4v-.5h4Zm-7,0h-4v-.5h4Zm-7,0h-4v-.5h4Z"/><rect class="cls-5" x="288" y="323.75" width="2" height="0.5"/><rect class="cls-5" x="574" y="263.75" width="2" height="0.5"/><path class="cls-5" d="M571,264.25h-4v-.5h4Zm-7,0h-4v-.5h4Zm-7,0h-4v-.5h4Zm-7,0h-4v-.5h4Zm-7,0h-4v-.5h4Zm-7,0h-4v-.5h4Zm-7,0h-4v-.5h4Zm-7,0h-4v-.5h4Zm-7,0h-4v-.5h4Zm-7,0h-4v-.5h4Zm-7,0h-4v-.5h4Zm-7,0h-4v-.5h4Zm-7,0h-4v-.5h4Zm-7,0h-4v-.5h4Zm-7,0h-4v-.5h4Zm-7,0h-4v-.5h4Zm-7,0h-4v-.5h4Zm-7,0h-4v-.5h4Zm-7,0h-4v-.5h4Zm-7,0h-4v-.5h4Zm-7,0h-4v-.5h4Zm-7,0h-4v-.5h4Zm-7,0h-4v-.5h4Zm-7,0h-4v-.5h4Zm-7,0h-4v-.5h4Zm-7,0h-4v-.5h4Zm-7,0h-4v-.5h4Zm-7,0h-4v-.5h4Zm-7,0h-4v-.5h4Zm-7,0h-4v-.5h4Zm-7,0h-4v-.5h4Zm-7,0h-4v-.5h4Zm-7,0h-4v-.5h4Zm-7,0h-4v-.5h4Zm-7,0h-4v-.5h4Zm-7,0h-4v-.5h4Zm-7,0h-4v-.5h4Zm-7,0h-4v-.5h4Zm-7,0h-4v-.5h4Zm-7,0h-4v-.5h4Z"/><rect class="cls-5" x="288" y="263.75" width="2" height="0.5"/><rect class="cls-5" x="574" y="203.75" width="2" height="0.5"/><path class="cls-5" d="M571,204.25h-4v-.5h4Zm-7,0h-4v-.5h4Zm-7,0h-4v-.5h4Zm-7,0h-4v-.5h4Zm-7,0h-4v-.5h4Zm-7,0h-4v-.5h4Zm-7,0h-4v-.5h4Zm-7,0h-4v-.5h4Zm-7,0h-4v-.5h4Zm-7,0h-4v-.5h4Zm-7,0h-4v-.5h4Zm-7,0h-4v-.5h4Zm-7,0h-4v-.5h4Zm-7,0h-4v-.5h4Zm-7,0h-4v-.5h4Zm-7,0h-4v-.5h4Zm-7,0h-4v-.5h4Zm-7,0h-4v-.5h4Zm-7,0h-4v-.5h4Zm-7,0h-4v-.5h4Zm-7,0h-4v-.5h4Zm-7,0h-4v-.5h4Zm-7,0h-4v-.5h4Zm-7,0h-4v-.5h4Zm-7,0h-4v-.5h4Zm-7,0h-4v-.5h4Zm-7,0h-4v-.5h4Zm-7,0h-4v-.5h4Zm-7,0h-4v-.5h4Zm-7,0h-4v-.5h4Zm-7,0h-4v-.5h4Zm-7,0h-4v-.5h4Zm-7,0h-4v-.5h4Zm-7,0h-4v-.5h4Zm-7,0h-4v-.5h4Zm-7,0h-4v-.5h4Zm-7,0h-4v-.5h4Zm-7,0h-4v-.5h4Zm-7,0h-4v-.5h4Zm-7,0h-4v-.5h4Z"/><rect class="cls-5" x="288" y="203.75" width="2" height="0.5"/><rect class="cls-5" x="551.75" y="394" width="0.5" height="2"/><path class="cls-5" d="M552.25,391h-.5v-4h.5Zm0-7h-.5v-4h.5Zm0-7h-.5v-4h.5Zm0-7h-.5v-4h.5Zm0-7h-.5v-4h.5Zm0-7h-.5v-4h.5Zm0-7h-.5v-4h.5Zm0-7h-.5v-4h.5Zm0-7h-.5v-4h.5Zm0-7h-.5v-4h.5Zm0-7h-.5v-4h.5Zm0-7h-.5v-4h.5Zm0-7h-.5v-4h.5Zm0-7h-.5v-4h.5Zm0-7h-.5v-4h.5Zm0-7h-.5v-4h.5Zm0-7h-.5v-4h.5Zm0-7h-.5v-4h.5Zm0-7h-.5v-4h.5Zm0-7h-.5v-4h.5Zm0-7h-.5v-4h.5Zm0-7h-.5v-4h.5Zm0-7h-.5v-4h.5Zm0-7h-.5v-4h.5Zm0-7h-.5v-4h.5Zm0-7h-.5v-4h.5Zm0-7h-.5v-4h.5Zm0-7h-.5v-4h.5Zm0-7h-.5v-4h.5Zm0-7h-.5v-4h.5Zm0-7h-.5v-4h.5Zm0-7h-.5v-4h.5Zm0-7h-.5v-4h.5Zm0-7h-.5v-4h.5Zm0-7h-.5v-4h.5Zm0-7h-.5v-4h.5Zm0-7h-.5v-4h.5Zm0-7h-.5v-4h.5Zm0-7h-.5v-4h.5Zm0-7h-.5v-4h.5Z"/><rect class="cls-5" x="551.75" y="108" width="0.5" height="2"/><rect class="cls-5" x="311.75" y="394" width="0.5" height="2"/><path class="cls-5" d="M312.25,391h-.5v-4h.5Zm0-7h-.5v-4h.5Zm0-7h-.5v-4h.5Zm0-7h-.5v-4h.5Zm0-7h-.5v-4h.5Zm0-7h-.5v-4h.5Zm0-7h-.5v-4h.5Zm0-7h-.5v-4h.5Zm0-7h-.5v-4h.5Zm0-7h-.5v-4h.5Zm0-7h-.5v-4h.5Zm0-7h-.5v-4h.5Zm0-7h-.5v-4h.5Zm0-7h-.5v-4h.5Zm0-7h-.5v-4h.5Zm0-7h-.5v-4h.5Zm0-7h-.5v-4h.5Zm0-7h-.5v-4h.5Zm0-7h-.5v-4h.5Zm0-7h-.5v-4h.5Zm0-7h-.5v-4h.5Zm0-7h-.5v-4h.5Zm0-7h-.5v-4h.5Zm0-7h-.5v-4h.5Zm0-7h-.5v-4h.5Zm0-7h-.5v-4h.5Zm0-7h-.5v-4h.5Zm0-7h-.5v-4h.5Zm0-7h-.5v-4h.5Zm0-7h-.5v-4h.5Zm0-7h-.5v-4h.5Zm0-7h-.5v-4h.5Zm0-7h-.5v-4h.5Zm0-7h-.5v-4h.5Zm0-7h-.5v-4h.5Zm0-7h-.5v-4h.5Zm0-7h-.5v-4h.5Zm0-7h-.5v-4h.5Zm0-7h-.5v-4h.5Zm0-7h-.5v-4h.5Z"/><rect class="cls-5" x="311.75" y="108" width="0.5" height="2"/><rect x="263.99" y="383.75" width="24.01" height="0.5"/><rect x="275.75" y="384.01" width="0.5" height="12.01"/><polygon points="263.98 396.27 263.98 395.77 287.99 395.73 287.99 396.23 263.98 396.27"/><path d="M257.88,387.21a2,2,0,0,1-.33,1.14,2.34,2.34,0,0,1-.92.78,2.4,2.4,0,0,1,1.06.84,2.11,2.11,0,0,1,.39,1.25,2.23,2.23,0,0,1-.75,1.76,3.26,3.26,0,0,1-3.93,0,2.23,2.23,0,0,1-.74-1.76A2.19,2.19,0,0,1,253,390a2.46,2.46,0,0,1,1.05-.85,2.14,2.14,0,0,1-.9-.78,2,2,0,0,1-.32-1.13,2.23,2.23,0,0,1,.69-1.71,2.94,2.94,0,0,1,3.64,0A2.23,2.23,0,0,1,257.88,387.21Zm-.88,4a1.54,1.54,0,0,0-.46-1.16,1.79,1.79,0,0,0-2.36,0,1.62,1.62,0,0,0-.44,1.17,1.52,1.52,0,0,0,.43,1.15,1.69,1.69,0,0,0,1.2.41,1.61,1.61,0,0,0,1.19-.42A1.51,1.51,0,0,0,257,391.19Zm-1.63-5.43a1.39,1.39,0,0,0-1,.4,1.45,1.45,0,0,0-.39,1.07,1.42,1.42,0,0,0,.39,1,1.55,1.55,0,0,0,2.08,0,1.42,1.42,0,0,0,.39-1,1.45,1.45,0,0,0-.41-1.06A1.39,1.39,0,0,0,255.37,385.76Z"/><rect x="251.99" y="191.75" width="24.01" height="0.5"/><rect x="263.75" y="192" width="0.5" height="12.01"/><rect x="251.98" y="203.74" width="24.01" height="0.5"/><path d="M245.88,195.21a2.05,2.05,0,0,1-.33,1.14,2.24,2.24,0,0,1-.92.77,2.55,2.55,0,0,1,1.06.84,2.13,2.13,0,0,1,.39,1.25,2.2,2.2,0,0,1-.75,1.76,3.26,3.26,0,0,1-3.93,0,2.21,2.21,0,0,1-.74-1.76A2.19,2.19,0,0,1,241,198a2.37,2.37,0,0,1,1.05-.84,2.28,2.28,0,0,1-.9-.78,2,2,0,0,1-.32-1.13,2.2,2.2,0,0,1,.69-1.71,2.94,2.94,0,0,1,3.64,0A2.2,2.2,0,0,1,245.88,195.21Zm-.88,4a1.55,1.55,0,0,0-.46-1.17,1.62,1.62,0,0,0-2.8,1.17,1.51,1.51,0,0,0,.43,1.14,1.66,1.66,0,0,0,1.2.42,1.61,1.61,0,0,0,1.19-.42A1.51,1.51,0,0,0,245,199.19Zm-1.63-5.43a1.43,1.43,0,0,0-1,.39,1.65,1.65,0,0,0,0,2.13,1.55,1.55,0,0,0,2.08,0,1.45,1.45,0,0,0,.39-1.05,1.43,1.43,0,0,0-.41-1.06A1.35,1.35,0,0,0,243.37,193.76Z"/><rect class="cls-5" x="420" y="155.75" width="156" height="0.5"/><rect class="cls-5" x="420" y="299.73" width="156" height="0.5"/><rect x="407.99" y="155.78" width="24.01" height="0.5"/><rect x="419.75" y="156.04" width="0.5" height="35.96"/><polygon points="407.98 192.25 407.98 191.75 431.99 191.69 431.99 192.19 407.98 192.25"/><path d="M402.3,177.52h-5.59v-.78l3-3.28a7.36,7.36,0,0,0,.91-1.21,2.08,2.08,0,0,0,.25-1,1.54,1.54,0,0,0-.41-1.1,1.44,1.44,0,0,0-1.08-.43,1.68,1.68,0,0,0-1.25.46,1.77,1.77,0,0,0-.45,1.28h-1.09a2.53,2.53,0,0,1,.76-1.9,2.85,2.85,0,0,1,2-.73,2.67,2.67,0,0,1,1.88.63,2.1,2.1,0,0,1,.7,1.66,4.89,4.89,0,0,1-1.61,3L398,176.64h4.28Z"/><path d="M408,174.66h1.19v.88H408v2h-1.09v-2h-3.88v-.64l3.82-5.91H408Zm-3.74,0h2.65v-4.19l-.13.24Z"/><polygon points="612 264.34 587.99 264.28 587.99 263.78 612 263.84 612 264.34"/><rect x="599.75" y="264.03" width="0.5" height="59.91"/><rect x="587.98" y="323.75" width="24.01" height="0.5"/><path d="M615.81,294.62H617v.88h-1.18v2h-1.09v-2h-3.89v-.63l3.82-5.92h1.16Zm-3.75,0h2.66v-4.18l-.13.23Z"/><path d="M623.14,291.18a2,2,0,0,1-.33,1.14,2.39,2.39,0,0,1-.91.78,2.48,2.48,0,0,1,1.05.83,2.13,2.13,0,0,1,.39,1.25,2.26,2.26,0,0,1-.74,1.77,2.92,2.92,0,0,1-2,.65,2.84,2.84,0,0,1-2-.66,2.24,2.24,0,0,1-.74-1.76,2.12,2.12,0,0,1,.38-1.25,2.34,2.34,0,0,1,1-.84,2.19,2.19,0,0,1-.89-.78,2,2,0,0,1-.33-1.13,2.2,2.2,0,0,1,.69-1.71,2.94,2.94,0,0,1,3.64,0A2.2,2.2,0,0,1,623.14,291.18Zm-.88,4a1.58,1.58,0,0,0-.45-1.17,1.63,1.63,0,0,0-1.19-.45,1.53,1.53,0,0,0-1.62,1.62,1.55,1.55,0,0,0,.43,1.14,1.92,1.92,0,0,0,2.4,0A1.51,1.51,0,0,0,622.26,295.16Zm-1.63-5.43a1.4,1.4,0,0,0-1,.39,1.63,1.63,0,0,0,0,2.13,1.55,1.55,0,0,0,2.08,0,1.45,1.45,0,0,0,.39-1.05,1.42,1.42,0,0,0-.4-1.06A1.37,1.37,0,0,0,620.63,289.73Z"/><polygon points="587.99 204.33 587.99 203.83 612 203.8 612 204.3 587.99 204.33"/><rect x="599.75" y="204.08" width="0.5" height="59.91"/><rect x="587.98" y="263.75" width="24.01" height="0.5"/><path d="M615.81,234.67H617v.89h-1.18v2h-1.09v-2h-3.89v-.64l3.82-5.91h1.16Zm-3.75,0h2.66v-4.18l-.13.23Z"/><path d="M623.14,231.23a2,2,0,0,1-.33,1.14,2.39,2.39,0,0,1-.91.78A2.43,2.43,0,0,1,623,234a2.08,2.08,0,0,1,.39,1.24,2.26,2.26,0,0,1-.74,1.77,3.31,3.31,0,0,1-3.94,0,2.26,2.26,0,0,1-.74-1.77,2.09,2.09,0,0,1,.38-1.24,2.36,2.36,0,0,1,1-.85,2.05,2.05,0,0,1-.89-.78,2,2,0,0,1-.33-1.13,2.2,2.2,0,0,1,.69-1.71,2.94,2.94,0,0,1,3.64,0A2.2,2.2,0,0,1,623.14,231.23Zm-.88,4a1.56,1.56,0,0,0-.45-1.16,1.77,1.77,0,0,0-2.37,0,1.62,1.62,0,0,0-.44,1.17,1.51,1.51,0,0,0,.43,1.14,1.92,1.92,0,0,0,2.4,0A1.51,1.51,0,0,0,622.26,235.21Zm-1.63-5.43a1.37,1.37,0,0,0-1,.4,1.42,1.42,0,0,0-.4,1.07,1.45,1.45,0,0,0,.39,1.05,1.55,1.55,0,0,0,2.08,0,1.61,1.61,0,0,0,0-2.11A1.41,1.41,0,0,0,620.63,229.78Z"/><polygon points="587.99 108.29 587.99 107.79 612 107.75 612 108.25 587.99 108.29"/><rect x="599.75" y="108.04" width="0.5" height="83.9"/><rect x="587.98" y="191.7" width="24.01" height="0.5"/><path d="M611.73,149.22l.43-4.26h4.38v1h-3.46l-.25,2.32a2.78,2.78,0,0,1,1.42-.37,2.36,2.36,0,0,1,1.85.77,3,3,0,0,1,.69,2.09,2.9,2.9,0,0,1-.71,2.07,2.59,2.59,0,0,1-2,.76,2.74,2.74,0,0,1-1.85-.62,2.47,2.47,0,0,1-.81-1.74h1a1.76,1.76,0,0,0,.52,1.11,1.66,1.66,0,0,0,1.12.37,1.43,1.43,0,0,0,1.18-.52,2.13,2.13,0,0,0,.43-1.42,2,2,0,0,0-.46-1.38,1.61,1.61,0,0,0-1.24-.51,1.8,1.8,0,0,0-1.12.31l-.28.23Z"/><path d="M622.22,145v.92H622a2.81,2.81,0,0,0-2,.75,3.11,3.11,0,0,0-.87,2,2.34,2.34,0,0,1,1.84-.77,2.2,2.2,0,0,1,1.78.79,3.42,3.42,0,0,1,0,4.13,2.47,2.47,0,0,1-1.93.79,2.41,2.41,0,0,1-2-.94,3.69,3.69,0,0,1-.76-2.42v-.42a5.61,5.61,0,0,1,1-3.6,3.69,3.69,0,0,1,3-1.27Zm-1.42,3.84a1.67,1.67,0,0,0-1,.34,1.77,1.77,0,0,0-.66.83v.4a2.76,2.76,0,0,0,.48,1.7,1.43,1.43,0,0,0,1.18.65,1.36,1.36,0,0,0,1.15-.54,2.23,2.23,0,0,0,.42-1.41,2.29,2.29,0,0,0-.42-1.43A1.36,1.36,0,0,0,620.8,148.8Z"/><rect x="587.99" y="323.75" width="24.01" height="0.5"/><rect x="599.75" y="324.03" width="0.5" height="59.91"/><rect x="587.98" y="383.65" width="24.01" height="0.5" transform="translate(-1.5 2.35) rotate(-0.22)"/><path d="M615.81,354.62H617v.88h-1.18v2h-1.09v-2h-3.89v-.63l3.82-5.92h1.16Zm-3.75,0h2.66v-4.18l-.13.23Z"/><path d="M623.14,351.18a2,2,0,0,1-.33,1.14,2.39,2.39,0,0,1-.91.78,2.48,2.48,0,0,1,1.05.83,2.13,2.13,0,0,1,.39,1.25,2.26,2.26,0,0,1-.74,1.77,2.92,2.92,0,0,1-2,.65,2.84,2.84,0,0,1-2-.66,2.24,2.24,0,0,1-.74-1.76,2.12,2.12,0,0,1,.38-1.25,2.34,2.34,0,0,1,1-.84,2.19,2.19,0,0,1-.89-.78,2,2,0,0,1-.33-1.13,2.2,2.2,0,0,1,.69-1.71,2.94,2.94,0,0,1,3.64,0A2.2,2.2,0,0,1,623.14,351.18Zm-.88,4a1.58,1.58,0,0,0-.45-1.17,1.63,1.63,0,0,0-1.19-.45,1.53,1.53,0,0,0-1.62,1.62,1.55,1.55,0,0,0,.43,1.14,1.92,1.92,0,0,0,2.4,0A1.51,1.51,0,0,0,622.26,355.16Zm-1.63-5.43a1.4,1.4,0,0,0-1,.39,1.63,1.63,0,0,0,0,2.13,1.55,1.55,0,0,0,2.08,0,1.45,1.45,0,0,0,.39-1.05,1.42,1.42,0,0,0-.4-1.06A1.37,1.37,0,0,0,620.63,349.73Z"/><rect x="575.74" y="71.98" width="0.5" height="24.02"/><rect x="552" y="83.75" width="24.01" height="0.5"/><rect x="551.74" y="71.98" width="0.5" height="24"/><path d="M561.53,72h-1.09V64.78l-2.18.8v-1l3.1-1.16h.17Z"/><path d="M569,63.46v.92h-.2a2.89,2.89,0,0,0-2,.75,3.16,3.16,0,0,0-.87,2.05,2.3,2.3,0,0,1,1.84-.78,2.23,2.23,0,0,1,1.78.79,3.47,3.47,0,0,1,0,4.14,2.5,2.5,0,0,1-1.93.79,2.44,2.44,0,0,1-2-.94,3.74,3.74,0,0,1-.77-2.43v-.41a5.61,5.61,0,0,1,1-3.6,3.7,3.7,0,0,1,3-1.28Zm-1.42,3.85a1.78,1.78,0,0,0-1,.33,1.72,1.72,0,0,0-.65.84v.4a2.79,2.79,0,0,0,.48,1.7,1.41,1.41,0,0,0,1.18.64,1.37,1.37,0,0,0,1.15-.54,2.59,2.59,0,0,0,0-2.83A1.37,1.37,0,0,0,567.54,67.31Z"/><rect class="cls-5" x="346" y="167.75" width="2" height="0.5"/><path class="cls-5" d="M343.15,168.25h-3.79v-.5h3.79Zm-6.64,0h-3.8v-.5h3.8Zm-6.65,0h-3.79v-.5h3.79Zm-6.64,0h-3.8v-.5h3.8Zm-6.64,0h-3.8v-.5h3.8Zm-6.65,0h-3.79v-.5h3.79Zm-6.64,0h-3.8v-.5h3.8Zm-6.65,0h-3.79v-.5h3.79Z"/><rect class="cls-5" x="288" y="167.75" width="2" height="0.5"/><rect class="cls-5" x="346" y="131.75" width="2" height="0.5"/><path class="cls-5" d="M343.15,132.25h-3.79v-.5h3.79Zm-6.64,0h-3.8v-.5h3.8Zm-6.65,0h-3.79v-.5h3.79Zm-6.64,0h-3.8v-.5h3.8Zm-6.64,0h-3.8v-.5h3.8Zm-6.65,0h-3.79v-.5h3.79Zm-6.64,0h-3.8v-.5h3.8Zm-6.65,0h-3.79v-.5h3.79Z"/><rect class="cls-5" x="288" y="131.75" width="2" height="0.5"/><rect class="cls-5" x="311.75" y="190" width="0.5" height="2"/><path class="cls-5" d="M312.25,187h-.5v-4h.5Zm0-7h-.5v-4h.5Zm0-7h-.5v-4h.5Zm0-7h-.5v-4h.5Zm0-7h-.5v-4h.5Zm0-7h-.5v-4h.5Zm0-7h-.5v-4h.5Zm0-7h-.5v-4h.5Zm0-7h-.5v-4h.5Zm0-7h-.5v-4h.5Zm0-7h-.5v-4h.5Z"/><rect class="cls-5" x="311.75" y="108" width="0.5" height="2"/><rect class="cls-5" x="347.75" y="190" width="0.5" height="2"/><path class="cls-5" d="M348.25,187h-.5v-4h.5Zm0-7h-.5v-4h.5Zm0-7h-.5v-4h.5Zm0-7h-.5v-4h.5Zm0-7h-.5v-4h.5Zm0-7h-.5v-4h.5Zm0-7h-.5v-4h.5Zm0-7h-.5v-4h.5Zm0-7h-.5v-4h.5Zm0-7h-.5v-4h.5Zm0-7h-.5v-4h.5Z"/><rect class="cls-5" x="347.75" y="108" width="0.5" height="2"/><path class="cls-5" d="M348.25,168.25h-36.5v-36.5h36.5Zm-36-.5h35.5v-35.5h-35.5Z"/><polygon points="276 168.31 252.01 168.25 252.01 167.75 276 167.81 276 168.31"/><rect x="263.75" y="167.99" width="0.5" height="24.01"/><polygon points="251.98 192.25 251.98 191.75 275.99 191.72 275.99 192.22 251.98 192.25"/><path d="M244.27,183.5h-1.09v-7.22l-2.18.8v-1l3.1-1.16h.17Z"/><path d="M251.7,175v.92h-.2a2.89,2.89,0,0,0-2,.75,3.16,3.16,0,0,0-.87,2.05,2.3,2.3,0,0,1,1.84-.78,2.24,2.24,0,0,1,1.78.79,3.45,3.45,0,0,1-.06,4.14,2.65,2.65,0,0,1-3.91-.15,3.79,3.79,0,0,1-.76-2.43v-.41a5.61,5.61,0,0,1,1-3.6,3.69,3.69,0,0,1,3-1.28Zm-1.42,3.85a1.75,1.75,0,0,0-1,.33,1.72,1.72,0,0,0-.65.84v.4a2.79,2.79,0,0,0,.48,1.7,1.41,1.41,0,0,0,1.18.64,1.37,1.37,0,0,0,1.15-.54,2.59,2.59,0,0,0,0-2.83A1.37,1.37,0,0,0,250.28,178.81Z"/><rect x="252" y="107.75" width="24" height="0.5"/><rect x="263.75" y="107.99" width="0.5" height="24.01"/><polygon points="251.99 132.25 251.99 131.75 276 131.71 276 132.21 251.99 132.25"/><path d="M244.27,123.5h-1.09v-7.22l-2.18.8v-1l3.1-1.16h.17Z"/><path d="M251.7,115v.92h-.2a2.89,2.89,0,0,0-2,.75,3.16,3.16,0,0,0-.87,2.05,2.3,2.3,0,0,1,1.84-.78,2.24,2.24,0,0,1,1.78.79,3.45,3.45,0,0,1-.06,4.14,2.65,2.65,0,0,1-3.91-.15,3.79,3.79,0,0,1-.76-2.43v-.41a5.61,5.61,0,0,1,1-3.6,3.69,3.69,0,0,1,3-1.28Zm-1.42,3.85a1.75,1.75,0,0,0-1,.33,1.72,1.72,0,0,0-.65.84v.4a2.79,2.79,0,0,0,.48,1.7,1.41,1.41,0,0,0,1.18.64,1.37,1.37,0,0,0,1.15-.54,2.59,2.59,0,0,0,0-2.83A1.37,1.37,0,0,0,250.28,118.81Z"/><rect x="252" y="131.76" width="24.01" height="0.5"/><rect x="263.75" y="132.02" width="0.5" height="35.96"/><rect x="252" y="167.74" width="23.99" height="0.5"/><path d="M246.3,153.5h-5.59v-.78l2.95-3.28a7.36,7.36,0,0,0,.91-1.21,2.08,2.08,0,0,0,.25-1,1.54,1.54,0,0,0-.41-1.1,1.44,1.44,0,0,0-1.08-.43,1.68,1.68,0,0,0-1.25.46,1.77,1.77,0,0,0-.45,1.28h-1.09a2.53,2.53,0,0,1,.76-1.9,2.81,2.81,0,0,1,2-.73,2.67,2.67,0,0,1,1.88.63,2.1,2.1,0,0,1,.7,1.66,4.89,4.89,0,0,1-1.61,3L242,152.62h4.28Z"/><path d="M252,150.64h1.19v.88H252v2h-1.09v-2h-3.88v-.64l3.82-5.91H252Zm-3.74,0h2.65v-4.19l-.13.24Z"/><rect x="311.75" y="71.98" width="0.5" height="24.02"/><rect x="288" y="83.75" width="24.01" height="0.5"/><rect x="287.75" y="71.98" width="0.5" height="24"/><path d="M297.54,72h-1.09V64.78l-2.19.8v-1l3.11-1.16h.17Z"/><path d="M305,63.46v.92h-.2a2.91,2.91,0,0,0-2,.75,3.15,3.15,0,0,0-.86,2.05,2.3,2.3,0,0,1,1.84-.78,2.24,2.24,0,0,1,1.78.79,3.45,3.45,0,0,1-.06,4.14,2.49,2.49,0,0,1-1.92.79,2.46,2.46,0,0,1-2-.94,3.74,3.74,0,0,1-.76-2.43v-.41a5.61,5.61,0,0,1,1-3.6,3.69,3.69,0,0,1,3-1.28Zm-1.42,3.85a1.81,1.81,0,0,0-1.68,1.17v.4a2.85,2.85,0,0,0,.47,1.7,1.44,1.44,0,0,0,1.19.64,1.37,1.37,0,0,0,1.15-.54,2.23,2.23,0,0,0,.42-1.41,2.19,2.19,0,0,0-.43-1.42A1.36,1.36,0,0,0,303.55,67.31Z"/><rect x="347.73" y="71.98" width="0.5" height="24.02"/><rect x="312" y="83.75" width="36" height="0.5"/><rect x="311.75" y="71.98" width="0.5" height="24"/><path d="M329.56,72H324v-.78l3-3.28a7.79,7.79,0,0,0,.9-1.21,2,2,0,0,0,.25-1,1.54,1.54,0,0,0-.4-1.1,1.4,1.4,0,0,0-1.08-.43,1.71,1.71,0,0,0-1.26.46,1.77,1.77,0,0,0-.45,1.28h-1.08a2.49,2.49,0,0,1,.76-1.9,2.78,2.78,0,0,1,2-.73,2.69,2.69,0,0,1,1.88.63,2.12,2.12,0,0,1,.69,1.66,4.89,4.89,0,0,1-1.61,3l-2.28,2.48h4.28Z"/><path d="M335.29,69.13h1.18V70h-1.18v2H334.2V70h-3.89v-.64l3.82-5.91h1.16Zm-3.75,0h2.66V65l-.13.24Z"/><path class="cls-3" d="M472.9,160.18a4.9,4.9,0,0,0,1.86-.34,4.21,4.21,0,0,0,1.37-.91,4.37,4.37,0,0,0,.87-1.33,4.84,4.84,0,0,0,.36-1.6H475a6.86,6.86,0,0,1-2-.26,3,3,0,0,1-1.26-.77,2.86,2.86,0,0,1-.63-1.21,6.58,6.58,0,0,1-.18-1.6,5.79,5.79,0,0,1,.26-1.73,4.56,4.56,0,0,1,.78-1.44,3.86,3.86,0,0,1,1.27-1,3.9,3.9,0,0,1,1.74-.38,4.31,4.31,0,0,1,1.52.27,3.19,3.19,0,0,1,1.26.83,4.06,4.06,0,0,1,.86,1.46,6.33,6.33,0,0,1,.32,2.17v3.27a6.91,6.91,0,0,1-.4,2.35,6.14,6.14,0,0,1-1.17,2,5.38,5.38,0,0,1-1.83,1.35,5.62,5.62,0,0,1-2.43.51h-2.93a5.29,5.29,0,0,1-4.17-1.66,6.53,6.53,0,0,1-1.49-4.53v-4.2H466v4.15a6.41,6.41,0,0,0,.25,1.87,3.85,3.85,0,0,0,.79,1.45,3.52,3.52,0,0,0,1.36,1,5.21,5.21,0,0,0,2,.34Zm-.53-8.12a3.56,3.56,0,0,0,.13,1,1.46,1.46,0,0,0,.46.7,2,2,0,0,0,.87.41,6.11,6.11,0,0,0,1.4.13h2.16v-1.8a3.76,3.76,0,0,0-.7-2.54,2.46,2.46,0,0,0-1.92-.77A2.18,2.18,0,0,0,473,150,3.2,3.2,0,0,0,472.37,152.06Zm2-7.15h-1.92v-1.7h1.92Zm3,0h-1.92v-1.7h1.92Z"/><path class="cls-3" d="M485.07,156a4,4,0,0,1-1.2-.18,2.42,2.42,0,0,1-1-.61,3,3,0,0,1-.71-1.14,5,5,0,0,1-.27-1.77V141.12h1.56V152a2.87,2.87,0,0,0,.45,1.66,1.61,1.61,0,0,0,1.45.66h.41c.35,0,.53.28.53.82s-.18.84-.53.84Z"/><path class="cls-3" d="M487.9,154.34a2.16,2.16,0,0,0,1.5-.5,1.79,1.79,0,0,0,.56-1.39v-3.31h1.56v3.31a3.49,3.49,0,0,1-.95,2.63A3.55,3.55,0,0,1,488,156h-2.25a.43.43,0,0,1-.42-.19,1.31,1.31,0,0,1-.11-.6,1.52,1.52,0,0,1,.11-.65.43.43,0,0,1,.42-.22Zm.81-8.28h-1.92v-1.7h1.92Zm3.05,0h-1.92v-1.7h1.92Z"/><path class="cls-3" d="M494.52,141.12h1.56V156h-1.56Z"/><path class="cls-3" d="M511.59,150.29a4.93,4.93,0,0,1,.9,1.38,3.59,3.59,0,0,1,.27,1.33,2.83,2.83,0,0,1-.92,2.15,3.73,3.73,0,0,1-2.63.85h-6.7l-.12-1.66H509a2.2,2.2,0,0,0,1.45-.43,1.41,1.41,0,0,0,.52-1.13,2,2,0,0,0-.17-.74,2.46,2.46,0,0,0-.51-.77l-4.46-5,1.22-1.15Z"/><path class="cls-3" d="M515.62,141.12h1.56V156h-1.56Z"/><path class="cls-3" d="M525,154.34a2.57,2.57,0,0,0,.89-.13,1.94,1.94,0,0,0,.59-.33,1.37,1.37,0,0,0,.33-.45,1,1,0,0,0,.11-.45,3.19,3.19,0,0,0-.09-.65c-.07-.27-.18-.67-.35-1.2s-.41-1.23-.72-2.11-.72-2-1.21-3.39L526,145l2.57,7.32a3.72,3.72,0,0,0,.89,1.54,2,2,0,0,0,1.41.45h.34c.35,0,.53.28.53.82s-.18.84-.53.84h-.34a3.88,3.88,0,0,1-1.51-.3,3,3,0,0,1-1.32-1.31,2.61,2.61,0,0,1-1.26,1.3,4.2,4.2,0,0,1-1.64.31h-5.16l-.12-1.66Z"/><path class="cls-3" d="M532.25,154.34a19.45,19.45,0,0,0,2.21-.13,6.8,6.8,0,0,0,2.28-.68l-3.58-4.63.89-1.64h6.17a3.4,3.4,0,0,1,1.81.46,1.79,1.79,0,0,1,.85,1.37,1.36,1.36,0,0,1,0,.29v.28a4.14,4.14,0,0,1-.19.68,3.11,3.11,0,0,1-.47.82,12.87,12.87,0,0,1-1,1.1c-.41.41-.95.89-1.6,1.44a3.72,3.72,0,0,0,.71.37,3.43,3.43,0,0,0,.75.19,7.85,7.85,0,0,0,.89.07h2.83c.35,0,.53.28.53.82s-.18.84-.53.84h-2l-1.45,0a6.88,6.88,0,0,1-1.24-.16,4.22,4.22,0,0,1-1.09-.41,4.33,4.33,0,0,1-1-.78,7.58,7.58,0,0,1-2.65,1.11,16.82,16.82,0,0,1-3.09.26h-1.17a.43.43,0,0,1-.42-.19,1.31,1.31,0,0,1-.11-.6,1.52,1.52,0,0,1,.11-.65.43.43,0,0,1,.42-.22Zm9-4.53a.82.82,0,0,0-.37-.72,1.89,1.89,0,0,0-1.11-.27H535l3.34,4.32,1.44-1.22a11.57,11.57,0,0,0,.92-.89,2.85,2.85,0,0,0,.48-.67A1.29,1.29,0,0,0,541.27,149.81Z"/><path class="cls-3" d="M547,154.34a2.13,2.13,0,0,0,1.5-.5,1.77,1.77,0,0,0,.57-1.39v-3.31h1.56v3.31a3.24,3.24,0,0,1-3.53,3.55h-2.26a.43.43,0,0,1-.42-.19,1.31,1.31,0,0,1-.11-.6,1.52,1.52,0,0,1,.11-.65.43.43,0,0,1,.42-.22Zm.82-8.28h-1.92v-1.7h1.92Zm3,0H549v-1.7h1.92Z"/><rect x="407.99" y="299.73" width="24.01" height="0.5"/><rect x="419.75" y="299.99" width="0.5" height="24.01"/><polygon points="407.98 324.25 407.98 323.75 431.99 323.71 431.99 324.21 407.98 324.25"/><path d="M400.27,315.5h-1.09v-7.22l-2.18.8v-1l3.1-1.16h.17Z"/><path d="M407.7,307v.92h-.2a2.89,2.89,0,0,0-2,.75,3.16,3.16,0,0,0-.87,2.05,2.3,2.3,0,0,1,1.84-.78,2.24,2.24,0,0,1,1.78.79,3.45,3.45,0,0,1-.06,4.14,2.65,2.65,0,0,1-3.91-.15,3.79,3.79,0,0,1-.76-2.43v-.41a5.61,5.61,0,0,1,1-3.6,3.69,3.69,0,0,1,3-1.28Zm-1.42,3.85a1.75,1.75,0,0,0-1,.33,1.72,1.72,0,0,0-.65.84v.4a2.79,2.79,0,0,0,.48,1.7,1.41,1.41,0,0,0,1.18.64,1.37,1.37,0,0,0,1.15-.54,2.59,2.59,0,0,0,0-2.83A1.37,1.37,0,0,0,406.28,310.81Z"/><path class="cls-3" d="M513.48,304.18a4.9,4.9,0,0,0,1.86-.34,4.11,4.11,0,0,0,1.37-.91,4.2,4.2,0,0,0,.87-1.33,4.84,4.84,0,0,0,.36-1.6h-2.4a6.74,6.74,0,0,1-2-.26,2.91,2.91,0,0,1-1.26-.77,2.77,2.77,0,0,1-.64-1.21,6.58,6.58,0,0,1-.18-1.6,5.5,5.5,0,0,1,.27-1.73,4.34,4.34,0,0,1,.77-1.44,3.8,3.8,0,0,1,1.28-1,3.84,3.84,0,0,1,1.74-.38,4.29,4.29,0,0,1,1.51.27,3.19,3.19,0,0,1,1.26.83,3.93,3.93,0,0,1,.86,1.46,6.31,6.31,0,0,1,.33,2.17v3.27a6.92,6.92,0,0,1-.41,2.35,6,6,0,0,1-1.17,2,5.38,5.38,0,0,1-1.83,1.35,5.62,5.62,0,0,1-2.43.51H510.7a5.3,5.3,0,0,1-4.18-1.66,6.53,6.53,0,0,1-1.49-4.53v-4.2h1.54v4.15a6.41,6.41,0,0,0,.25,1.87,3.85,3.85,0,0,0,.79,1.45,3.52,3.52,0,0,0,1.36.95,5.23,5.23,0,0,0,2,.34Zm-.53-8.12a3.93,3.93,0,0,0,.13,1,1.46,1.46,0,0,0,.46.7,2.06,2.06,0,0,0,.88.41,6,6,0,0,0,1.39.13H518v-1.8a3.71,3.71,0,0,0-.7-2.54,2.46,2.46,0,0,0-1.92-.77,2.14,2.14,0,0,0-1.77.77A3.15,3.15,0,0,0,513,296.06Zm2-7.15h-1.92v-1.7H515Zm3,0H516.1v-1.7H518Z"/><path class="cls-3" d="M525.65,300a4,4,0,0,1-1.2-.18,2.42,2.42,0,0,1-1-.61,3.08,3.08,0,0,1-.71-1.14,5,5,0,0,1-.26-1.77V285.12H524V296a2.87,2.87,0,0,0,.44,1.66,1.62,1.62,0,0,0,1.45.66h.41c.35,0,.53.28.53.82s-.18.84-.53.84Z"/><path class="cls-3" d="M528.48,298.34a2.16,2.16,0,0,0,1.5-.5,1.76,1.76,0,0,0,.56-1.39v-3.31h1.56v3.31a3.53,3.53,0,0,1-.94,2.63,3.59,3.59,0,0,1-2.58.92h-2.26a.43.43,0,0,1-.42-.19,1.31,1.31,0,0,1-.11-.6,1.52,1.52,0,0,1,.11-.65.43.43,0,0,1,.42-.22Zm.82-8.28h-1.92v-1.7h1.92Zm3,0h-1.92v-1.7h1.92Z"/><path class="cls-3" d="M535.1,285.12h1.56V300H535.1Z"/><path class="cls-3" d="M547.51,294.17a2.86,2.86,0,0,1-1.14-.22,1.84,1.84,0,0,1-.85-.72c0,.37.06.76.07,1.18s0,.83,0,1.25v5.8h-1.56v-5.83q0-1.44-.09-2.52a17.9,17.9,0,0,0-.24-2c-.1-.6-.22-1.17-.36-1.7s-.28-1.09-.44-1.67l1.49-.55c.11.38.2.73.27,1s.15.59.22.86l.2.78.22.81a3.35,3.35,0,0,0,.72,1.34,1.67,1.67,0,0,0,1.32.51,2.16,2.16,0,0,0,1.35-.46,1.53,1.53,0,0,0,.59-1.3,14,14,0,0,0-.09-1.4c-.07-.57-.16-1.19-.29-1.86l1.51-.31a17.76,17.76,0,0,1,.29,1.8c.06.61.09,1.18.09,1.73a3.71,3.71,0,0,1-.25,1.4,3.38,3.38,0,0,1-.69,1.09,3,3,0,0,1-1,.7A3.52,3.52,0,0,1,547.51,294.17Z"/></g></svg>