<svg xmlns="http://www.w3.org/2000/svg" viewBox="0 0 504 504"><defs><style>.cls-1{fill:#fff;}.cls-2{fill:#f5f1f0;}.cls-3{fill:#4c4b4b;}.cls-4{fill:none;}.cls-5{fill:#858282;}</style></defs><title>material-26</title><g id="Layer_1" data-name="Layer 1"><rect class="cls-1" x="108" y="192" width="288" height="84"/><path class="cls-2" d="M396.75,276.75H107.25v-85.5h289.5Zm-288-1.5h286.5v-82.5H108.75Z"/><path class="cls-3" d="M157.55,231,150,238.52,142.5,231Z"/><rect class="cls-4" x="132" y="216" width="36" height="36"/><rect class="cls-3" x="107.25" y="275.25" width="289.5" height="1.5"/><path class="cls-5" d="M292.9,244.18a4.9,4.9,0,0,0,1.86-.34,4.21,4.21,0,0,0,1.37-.91,4.37,4.37,0,0,0,.87-1.33,4.84,4.84,0,0,0,.36-1.6H295a6.86,6.86,0,0,1-2-.26,3,3,0,0,1-1.26-.77,2.86,2.86,0,0,1-.63-1.21,6.58,6.58,0,0,1-.18-1.6,5.79,5.79,0,0,1,.26-1.73,4.56,4.56,0,0,1,.78-1.44,3.86,3.86,0,0,1,1.27-1,3.9,3.9,0,0,1,1.74-.38,4.31,4.31,0,0,1,1.52.27,3.19,3.19,0,0,1,1.26.83,4.06,4.06,0,0,1,.86,1.46,6.33,6.33,0,0,1,.32,2.17v3.27a6.91,6.91,0,0,1-.4,2.35,6.14,6.14,0,0,1-1.17,2,5.38,5.38,0,0,1-1.83,1.35,5.62,5.62,0,0,1-2.43.51h-2.93a5.29,5.29,0,0,1-4.17-1.66,6.53,6.53,0,0,1-1.49-4.53v-4.2H286v4.15a6.41,6.41,0,0,0,.25,1.87,3.85,3.85,0,0,0,.79,1.45,3.52,3.52,0,0,0,1.36,1,5.21,5.21,0,0,0,2,.34Zm-.53-8.12a3.56,3.56,0,0,0,.13,1,1.46,1.46,0,0,0,.46.7,2,2,0,0,0,.87.41,6.11,6.11,0,0,0,1.4.13h2.16v-1.8a3.76,3.76,0,0,0-.7-2.54,2.46,2.46,0,0,0-1.92-.77A2.18,2.18,0,0,0,293,234,3.2,3.2,0,0,0,292.37,236.06Zm2-7.15h-1.92v-1.7h1.92Zm3,0h-1.92v-1.7h1.92Z"/><path class="cls-5" d="M305.07,240a4,4,0,0,1-1.2-.18,2.42,2.42,0,0,1-1-.61,3,3,0,0,1-.71-1.14,5,5,0,0,1-.27-1.77V225.12h1.56V236a2.87,2.87,0,0,0,.45,1.66,1.61,1.61,0,0,0,1.45.66h.41c.35,0,.53.28.53.82s-.18.84-.53.84Z"/><path class="cls-5" d="M307.9,238.34a2.16,2.16,0,0,0,1.5-.5,1.79,1.79,0,0,0,.56-1.39v-3.31h1.56v3.31a3.49,3.49,0,0,1-.95,2.63A3.55,3.55,0,0,1,308,240h-2.25a.43.43,0,0,1-.42-.19,1.31,1.31,0,0,1-.11-.6,1.52,1.52,0,0,1,.11-.65.43.43,0,0,1,.42-.22Zm.81-8.28h-1.92v-1.7h1.92Zm3.05,0h-1.92v-1.7h1.92Z"/><path class="cls-5" d="M314.52,225.12h1.56V240h-1.56Z"/><path class="cls-5" d="M331.59,234.29a4.93,4.93,0,0,1,.9,1.38,3.59,3.59,0,0,1,.27,1.33,2.83,2.83,0,0,1-.92,2.15,3.73,3.73,0,0,1-2.63.85h-6.7l-.12-1.66H329a2.2,2.2,0,0,0,1.45-.43,1.41,1.41,0,0,0,.52-1.13,2,2,0,0,0-.17-.74,2.46,2.46,0,0,0-.51-.77l-4.46-5,1.22-1.15Z"/><path class="cls-5" d="M335.62,225.12h1.56V240h-1.56Z"/><path class="cls-5" d="M345,238.34a2.57,2.57,0,0,0,.89-.13,1.94,1.94,0,0,0,.59-.33,1.37,1.37,0,0,0,.33-.45,1,1,0,0,0,.11-.45,3.19,3.19,0,0,0-.09-.65c-.07-.27-.18-.67-.35-1.2s-.41-1.23-.72-2.11-.72-2-1.21-3.39L346,229l2.57,7.32a3.72,3.72,0,0,0,.89,1.54,2,2,0,0,0,1.41.45h.34c.35,0,.53.28.53.82s-.18.84-.53.84h-.34a3.88,3.88,0,0,1-1.51-.3,3,3,0,0,1-1.32-1.31,2.61,2.61,0,0,1-1.26,1.3,4.2,4.2,0,0,1-1.64.31h-5.16l-.12-1.66Z"/><path class="cls-5" d="M352.25,238.34a19.45,19.45,0,0,0,2.21-.13,6.8,6.8,0,0,0,2.28-.68l-3.58-4.63.89-1.64h6.17a3.4,3.4,0,0,1,1.81.46,1.79,1.79,0,0,1,.85,1.37,1.36,1.36,0,0,1,0,.29v.28a4.14,4.14,0,0,1-.19.68,3.11,3.11,0,0,1-.47.82,12.87,12.87,0,0,1-1,1.1c-.41.41-1,.89-1.6,1.44a3.72,3.72,0,0,0,.71.37,3.43,3.43,0,0,0,.75.19,7.85,7.85,0,0,0,.89.07h2.83c.35,0,.53.28.53.82s-.18.84-.53.84h-2l-1.45,0a6.88,6.88,0,0,1-1.24-.16,4.22,4.22,0,0,1-1.09-.41,4.33,4.33,0,0,1-1-.78,7.58,7.58,0,0,1-2.65,1.11,16.82,16.82,0,0,1-3.09.26h-1.17a.43.43,0,0,1-.42-.19,1.31,1.31,0,0,1-.11-.6,1.52,1.52,0,0,1,.11-.65.43.43,0,0,1,.42-.22Zm9-4.53a.82.82,0,0,0-.37-.72,1.89,1.89,0,0,0-1.11-.27H355l3.34,4.32,1.44-1.22a11.57,11.57,0,0,0,.92-.89,2.85,2.85,0,0,0,.48-.67A1.29,1.29,0,0,0,361.27,233.81Z"/><path class="cls-5" d="M367,238.34a2.13,2.13,0,0,0,1.5-.5,1.77,1.77,0,0,0,.57-1.39v-3.31h1.56v3.31a3.24,3.24,0,0,1-3.53,3.55h-2.26a.43.43,0,0,1-.42-.19,1.31,1.31,0,0,1-.11-.6,1.52,1.52,0,0,1,.11-.65.43.43,0,0,1,.42-.22Zm.82-8.28h-1.92v-1.7h1.92Zm3,0H369v-1.7h1.92Z"/></g></svg>