<svg xmlns="http://www.w3.org/2000/svg" xmlns:xlink="http://www.w3.org/1999/xlink" viewBox="0 0 1920 1080"><defs><style>.cls-1{fill:#061f6b;}.cls-2{fill:#4672e2;}.cls-3{fill:url(#linear-gradient);}.cls-4{fill:#fff;}.cls-5{fill:url(#linear-gradient-2);}.cls-6{fill:url(#linear-gradient-3);}.cls-7{fill:url(#linear-gradient-4);}.cls-8{fill:url(#linear-gradient-5);}.cls-9{fill:url(#linear-gradient-6);}.cls-10{fill:url(#linear-gradient-7);}.cls-11{fill:url(#linear-gradient-8);}.cls-12{fill:url(#linear-gradient-9);}.cls-13{fill:url(#linear-gradient-10);}.cls-14{fill:url(#linear-gradient-11);}</style><linearGradient id="linear-gradient" x1="192" y1="1080" x2="192" gradientUnits="userSpaceOnUse"><stop offset="0" stop-color="#fff" stop-opacity="0"/><stop offset="0.51" stop-color="#fff"/><stop offset="1" stop-color="#fff" stop-opacity="0"/></linearGradient><linearGradient id="linear-gradient-2" x1="12462.43" y1="13115.57" x2="13542.43" y2="13115.57" gradientTransform="translate(14843.57 -12462.43) rotate(90)" xlink:href="#linear-gradient"/><linearGradient id="linear-gradient-3" x1="16650.42" y1="13691.57" x2="18570.42" y2="13691.57" gradientTransform="translate(18570.43 14663.57) rotate(180)" xlink:href="#linear-gradient"/><linearGradient id="linear-gradient-4" x1="16650.42" y1="14555.57" x2="18570.42" y2="14555.57" gradientTransform="translate(18570.43 14663.57) rotate(180)" xlink:href="#linear-gradient"/><linearGradient id="linear-gradient-5" x1="16650.42" y1="13776.12" x2="18570.42" y2="13776.12" gradientTransform="translate(18570.43 14663.57) rotate(180)" xlink:href="#linear-gradient"/><linearGradient id="linear-gradient-6" x1="21120" y1="216" x2="21120" gradientTransform="matrix(-1, 0, 0, 1, 22080, 0)" gradientUnits="userSpaceOnUse"><stop offset="0" stop-color="#fff" stop-opacity="0"/><stop offset="1" stop-color="#fff"/></linearGradient><linearGradient id="linear-gradient-7" x1="960" y1="767.22" x2="960" y2="551.23" gradientTransform="matrix(1, 0, 0, -1, 0, 1631.22)" xlink:href="#linear-gradient-6"/><linearGradient id="linear-gradient-8" x1="11040" y1="10044" x2="11040" y2="9660" gradientTransform="matrix(0, -1, -1, 0, 11580, 11580)" xlink:href="#linear-gradient-6"/><linearGradient id="linear-gradient-9" x1="11040" y1="-9307.02" x2="11040" y2="-9691.03" gradientTransform="matrix(0, 1, 1, 0, 9691.03, -10500)" xlink:href="#linear-gradient-6"/><linearGradient id="linear-gradient-10" x1="-2617.27" y1="14123.66" x2="-2481.88" y2="14123.66" gradientTransform="translate(3509.58 -13583.74)" xlink:href="#linear-gradient"/><linearGradient id="linear-gradient-11" x1="7462.73" y1="24203.66" x2="7598.12" y2="24203.66" gradientTransform="translate(25163.66 -6990.51) rotate(90)" xlink:href="#linear-gradient"/></defs><g id="Background"><rect class="cls-1" width="1920" height="1080"/></g><g id="Layer_2" data-name="Layer 2"><path class="cls-2" d="M758,0h970a0,0,0,0,1,0,0V487a485,485,0,0,1-485,485h0A485,485,0,0,1,758,487V0A0,0,0,0,1,758,0Z"/></g><g id="Guids_and_Grids" data-name="Guids and Grids"><rect class="cls-3" x="191.5" width="1" height="1080"/><path class="cls-4" d="M203.69,727.09H197v-42h7.73l18.73,29.59V685.07h6.73v42h-6.12L203.69,695Z"/><path class="cls-4" d="M265,721.64h1.32v5.45h-3.34a7.66,7.66,0,0,1-4.09-1,4.33,4.33,0,0,1-2-2.93q-3.08,4.7-9.37,4.69a11.24,11.24,0,0,1-7.63-2.48,8.09,8.09,0,0,1-2.86-6.43,8.39,8.39,0,0,1,2.36-6.16,11.92,11.92,0,0,1,6.75-3.13l8.47-1.43a1.91,1.91,0,0,0,1.79-2.11,4.28,4.28,0,0,0-1.56-3.41,6.28,6.28,0,0,0-4.24-1.34c-3.66,0-5.84,1.68-6.57,5l-6.24-.7a10.44,10.44,0,0,1,4.22-6.87,14.44,14.44,0,0,1,8.88-2.62q5.65,0,8.82,2.91a10.3,10.3,0,0,1,3.16,8v12.3a2.48,2.48,0,0,0,.51,1.76A2.26,2.26,0,0,0,265,721.64Zm-21.53-3.26a3.86,3.86,0,0,0,1.33,3.14,5.82,5.82,0,0,0,3.82,1.11,7.34,7.34,0,0,0,5.64-2.38,8.71,8.71,0,0,0,2.21-6.17v-1.53L247.84,714a5.86,5.86,0,0,0-3.28,1.48A3.87,3.87,0,0,0,243.42,718.38Z"/><path class="cls-4" d="M297,710.24v16.85h-6.59V708.66a7.67,7.67,0,0,0-1.52-5.1,5.45,5.45,0,0,0-4.37-1.79,6,6,0,0,0-5,2.17q-1.72,2.17-1.72,6.3v16.85h-6.62V696.91h6.36v3.49a9.91,9.91,0,0,1,8.64-4.22,11.5,11.5,0,0,1,5.7,1.35,8.81,8.81,0,0,1,3.68,3.86q2.93-5.21,9.52-5.21a10.8,10.8,0,0,1,8.13,3.07,11.48,11.48,0,0,1,3,8.32v19.52h-6.59V708.66a7.61,7.61,0,0,0-1.53-5.1,5.41,5.41,0,0,0-4.36-1.79,6,6,0,0,0-5,2.17A10,10,0,0,0,297,710.24Z"/><path class="cls-4" d="M337.05,722.52a7.44,7.44,0,0,0,4.55-1.28,7,7,0,0,0,2.45-3.94l5.89,1.26a11.18,11.18,0,0,1-4.44,6.81,14.12,14.12,0,0,1-8.45,2.45q-7.19,0-11-4.12T322.17,712q0-7.12,4-11.4a13.84,13.84,0,0,1,10.69-4.39q6.36,0,10.05,4T350.61,711v2.64H328.7Q329.32,722.52,337.05,722.52Zm-.24-21.13q-6.88,0-8,7.71h15.06Q343.25,701.39,336.81,701.39Z"/><path class="cls-4" d="M381.35,725.24a12.27,12.27,0,0,1-9.53-3.93q-3.48-3.91-3.48-10.54a15.55,15.55,0,0,1,3.54-10.58,12.09,12.09,0,0,1,9.47-4q6,0,9.19,4.22v-3.49h6.36v28.56q0,6.3-3.7,9.86t-10.39,3.56q-6.12,0-9.81-2.71a10.1,10.1,0,0,1-4.19-7.42l6.62-.71a6.39,6.39,0,0,0,2.43,4.15,8.65,8.65,0,0,0,5.07,1.3,7.09,7.09,0,0,0,5.51-2.06q1.88-2.07,1.87-6.08V721A10.6,10.6,0,0,1,381.35,725.24Zm-4.22-21.17a11.91,11.91,0,0,0,0,13.27,7,7,0,0,0,5.68,2.36,6.92,6.92,0,0,0,5.54-2.44,11.19,11.19,0,0,0,0-13,6.86,6.86,0,0,0-5.51-2.51A7.07,7.07,0,0,0,377.13,704.07Z"/><path class="cls-4" d="M403.05,712a16.24,16.24,0,0,1,4.08-11.46,14.27,14.27,0,0,1,10.92-4.39q6.94,0,11,4.39T433.11,712A15.92,15.92,0,0,1,429,723.42a14.28,14.28,0,0,1-10.93,4.4q-6.85,0-10.92-4.34T403.05,712Zm23.33,0c0-3.26-.74-5.82-2.2-7.66a8.11,8.11,0,0,0-12.22,0,12.09,12.09,0,0,0-2.2,7.65,11.82,11.82,0,0,0,2.2,7.57,8.18,8.18,0,0,0,12.22,0A11.82,11.82,0,0,0,426.38,712Z"/><path class="cls-4" d="M452.48,722.52a7.44,7.44,0,0,0,4.55-1.28,7,7,0,0,0,2.45-3.94l5.89,1.26a11.18,11.18,0,0,1-4.44,6.81,14.12,14.12,0,0,1-8.45,2.45q-7.19,0-11-4.12T437.6,712q0-7.12,4-11.4a13.82,13.82,0,0,1,10.69-4.39q6.36,0,10.05,4T466,711v2.64H444.13Q444.75,722.52,452.48,722.52Zm-.24-21.13q-6.89,0-8,7.71H459.3Q458.68,701.39,452.24,701.39Z"/><path class="cls-4" d="M483.53,727.82q-6,0-9.55-2.65a9.54,9.54,0,0,1-3.89-7.25l6.62-.8a6.26,6.26,0,0,0,2,4.27,7.33,7.33,0,0,0,4.79,1.39,6.88,6.88,0,0,0,4.27-1.13,3.91,3.91,0,0,0,1.45-3.27c0-2-1.55-3.19-4.63-3.66l-4.51-.79a12.42,12.42,0,0,1-6.7-3,7.57,7.57,0,0,1-2.3-5.68,8,8,0,0,1,3.25-6.5,13.35,13.35,0,0,1,8.59-2.58c3.55,0,6.37.79,8.45,2.39a10.4,10.4,0,0,1,3.85,6.92l-6,.77a6.62,6.62,0,0,0-2.14-3.87,6.73,6.73,0,0,0-4.28-1.23,6.84,6.84,0,0,0-3.95,1,3,3,0,0,0-1.41,2.62,3,3,0,0,0,1,2.36,6.33,6.33,0,0,0,3.13,1.25l5,.9q9.22,1.71,9.23,8.7a8.78,8.78,0,0,1-3.27,7.2C490.33,726.93,487.34,727.82,483.53,727.82Z"/><path class="cls-4" d="M541.78,707.57v19.52h-6.63V708.66a7.24,7.24,0,0,0-1.65-5.1,6.09,6.09,0,0,0-4.7-1.79,6.65,6.65,0,0,0-5.34,2.17q-1.85,2.17-1.84,6.3v16.85H515v-42h6.62v15.12q3-4,8.88-4a11,11,0,0,1,8.26,3.07A11.38,11.38,0,0,1,541.78,707.57Z"/><path class="cls-4" d="M562.63,722.52a7.45,7.45,0,0,0,4.56-1.28,7,7,0,0,0,2.45-3.94l5.89,1.26a11.27,11.27,0,0,1-4.44,6.81,14.17,14.17,0,0,1-8.46,2.45q-7.17,0-11-4.12T547.75,712q0-7.12,4-11.4a13.81,13.81,0,0,1,10.69-4.39q6.36,0,10,4T576.2,711v2.64H554.29Q554.91,722.52,562.63,722.52Zm-.23-21.13q-6.89,0-8,7.71h15.06Q568.84,701.39,562.4,701.39Z"/><path class="cls-4" d="M589.15,727.09h-6.62V696.91h6.35v5q2.91-5,8.3-5h2.52V703H597a6.7,6.7,0,0,0-5.8,2.9c-1.37,1.94-2.05,4.69-2.05,8.27Z"/><path class="cls-4" d="M617.19,722.52a7.44,7.44,0,0,0,4.55-1.28,7,7,0,0,0,2.45-3.94l5.89,1.26a11.27,11.27,0,0,1-4.44,6.81,14.16,14.16,0,0,1-8.45,2.45q-7.19,0-11-4.12T602.3,712q0-7.12,4-11.4A13.82,13.82,0,0,1,617,696.18q6.36,0,10,4T630.75,711v2.64H608.84Q609.45,722.52,617.19,722.52ZM617,701.39q-6.88,0-8,7.71H624Q623.4,701.39,617,701.39Z"/><path class="cls-4" d="M197.75,790.72h-2.48v-23.8H204a8.37,8.37,0,0,1,5.87,2.07,6.82,6.82,0,0,1,2.3,5.25,7.65,7.65,0,0,1-2.33,5.61,7.89,7.89,0,0,1-5.84,2.27h-6.29Zm11.9-16.48a4.75,4.75,0,0,0-1.63-3.72,5.84,5.84,0,0,0-4.15-1.46h-6.12V780h6.12a5.49,5.49,0,0,0,4.15-1.62A5.58,5.58,0,0,0,209.65,774.24Z"/><path class="cls-4" d="M214.6,782.29a9.23,9.23,0,0,1,2.17-6.42,8.32,8.32,0,0,1,11.77,0,10.44,10.44,0,0,1,0,12.85,8.37,8.37,0,0,1-11.77,0A9.27,9.27,0,0,1,214.6,782.29Zm12.24,5a8.9,8.9,0,0,0,0-10,5.59,5.59,0,0,0-8.33,0,7.7,7.7,0,0,0-1.52,5,7.6,7.6,0,0,0,1.52,5,5.07,5.07,0,0,0,4.15,1.84A5.15,5.15,0,0,0,226.84,787.29Z"/><path class="cls-4" d="M240.78,791.14a7.88,7.88,0,0,1-5.07-1.53,5.36,5.36,0,0,1-2-4.08l2.28-.42a4.65,4.65,0,0,0,1.44,3.1,5.08,5.08,0,0,0,3.39,1,4.61,4.61,0,0,0,3-.84,3,3,0,0,0,1-2.47q0-2.19-3.4-2.75l-2.31-.37q-4.89-.81-4.89-4.63a4.15,4.15,0,0,1,1.68-3.39,8.1,8.1,0,0,1,8.88,0,6,6,0,0,1,2.12,3.86l-2.11.37a5,5,0,0,0-1.54-2.79,4.61,4.61,0,0,0-3-.85,4.72,4.72,0,0,0-2.8.74,2.28,2.28,0,0,0-1,1.95,2.34,2.34,0,0,0,.7,1.79,4.21,4.21,0,0,0,2.25.87l2.66.43q5.06.82,5.06,4.76a4.76,4.76,0,0,1-1.71,3.81A6.93,6.93,0,0,1,240.78,791.14Z"/><path class="cls-4" d="M253.61,770.8H251.3v-3.88h2.31Zm0,19.92H251.3v-16.9h2.31Z"/><path class="cls-4" d="M256.93,775.77v-1.95h3.12v-5.57h2.33v5.57H267v1.95h-4.58V786a3.28,3.28,0,0,0,.52,2.13,2.31,2.31,0,0,0,1.82.6h2.69v2h-3a4,4,0,0,1-4.38-4.41V775.77Z"/><path class="cls-4" d="M273,770.8h-2.3v-3.88H273Zm0,19.92h-2.3v-16.9H273Z"/><path class="cls-4" d="M277.3,782.29a9.23,9.23,0,0,1,2.17-6.42,8.33,8.33,0,0,1,11.78,0,10.48,10.48,0,0,1,0,12.85,8.38,8.38,0,0,1-11.78,0A9.27,9.27,0,0,1,277.3,782.29Zm12.24,5a8.9,8.9,0,0,0,0-10,5.58,5.58,0,0,0-8.32,0,9,9,0,0,0,0,10,5.63,5.63,0,0,0,8.33,0Z"/><path class="cls-4" d="M311.81,779.78v10.94h-2.32v-10.5a5,5,0,0,0-1.15-3.52,4.21,4.21,0,0,0-3.27-1.25,4.58,4.58,0,0,0-3.75,1.55,6.91,6.91,0,0,0-1.28,4.51v9.21h-2.3v-16.9H300v2.25a6,6,0,0,1,5.42-2.64,5.86,5.86,0,0,1,6.35,6.35Z"/><path class="cls-4" d="M322.54,775.77v-1.95h3.12v-5.57H328v5.57h4.59v1.95H328V786a3.28,3.28,0,0,0,.53,2.13,2.31,2.31,0,0,0,1.82.6H333v2h-3a4,4,0,0,1-4.38-4.41V775.77Z"/><path class="cls-4" d="M338.64,770.8h-2.31v-3.88h2.31Zm0,19.92h-2.31v-16.9h2.31Z"/><path class="cls-4" d="M342,775.77v-1.95h3.12v-5.57h2.33v5.57H352v1.95h-4.58V786a3.28,3.28,0,0,0,.52,2.13,2.33,2.33,0,0,0,1.82.6h2.69v2h-3a4,4,0,0,1-4.39-4.41V775.77Z"/><path class="cls-4" d="M358.07,790.72h-2.31v-23.8h2.31Z"/><path class="cls-4" d="M370.37,789.23a4.32,4.32,0,0,0,4.68-3.88l2.21.34a5.79,5.79,0,0,1-2.23,4,7.35,7.35,0,0,1-4.66,1.47,7.58,7.58,0,0,1-5.95-2.28c-1.37-1.53-2.05-3.72-2.05-6.6a9.28,9.28,0,0,1,2.14-6.43,7.38,7.38,0,0,1,5.78-2.4,6.81,6.81,0,0,1,5.32,2.08,8.32,8.32,0,0,1,1.9,5.83v1.43H364.76Q365,789.24,370.37,789.23Zm-.12-13.91a5,5,0,0,0-3.76,1.41,6.73,6.73,0,0,0-1.67,4.13h10.23Q374.79,775.33,370.25,775.32Z"/><path class="cls-4" d="M203.25,886a6.65,6.65,0,0,0,4.4-1.4,8.42,8.42,0,0,0,2.47-4.36l2.15.31a9.65,9.65,0,0,1-3.17,5.46,9.81,9.81,0,0,1-12.84-1q-2.55-2.91-2.55-8a11.49,11.49,0,0,1,2.58-7.88,8.75,8.75,0,0,1,7-3,9.24,9.24,0,0,1,6.15,2,9.34,9.34,0,0,1,3,5.74l-2.23.37a8.13,8.13,0,0,0-2.36-4.62,6.74,6.74,0,0,0-4.6-1.5,6.54,6.54,0,0,0-5.36,2.36,12,12,0,0,0,0,13.07A6.52,6.52,0,0,0,203.25,886Z"/><path class="cls-4" d="M228.08,885.92h.78v1.71h-1.23a2.9,2.9,0,0,1-1.89-.61,2,2,0,0,1-.75-1.64v-.12a5.26,5.26,0,0,1-4.86,2.74,5.51,5.51,0,0,1-3.75-1.21,3.93,3.93,0,0,1-1.41-3.14,4.13,4.13,0,0,1,1.17-3,6,6,0,0,1,3.33-1.57l4.52-.78a1,1,0,0,0,1-1.14,2.82,2.82,0,0,0-1-2.23,4,4,0,0,0-2.68-.86,3.69,3.69,0,0,0-4,3.06l-1.91-.26a5,5,0,0,1,2-3.26,6.42,6.42,0,0,1,4.06-1.24,5.74,5.74,0,0,1,4.08,1.39,4.8,4.8,0,0,1,1.5,3.71v7.31a1.22,1.22,0,0,0,.25.88A1.15,1.15,0,0,0,228.08,885.92ZM217,883.55a2.47,2.47,0,0,0,.85,2,3.47,3.47,0,0,0,2.35.74,4.42,4.42,0,0,0,3.43-1.51,5.83,5.83,0,0,0,1.35-4v-1l-5.33.92a3.32,3.32,0,0,0-2,.93A2.6,2.6,0,0,0,217,883.55Z"/><path class="cls-4" d="M229.78,874.44v-1.72h2.75V867.8h2.05v4.92h4v1.72h-4v9a2.85,2.85,0,0,0,.47,1.87,2,2,0,0,0,1.6.53H239v1.77H236.4a3.83,3.83,0,0,1-2.86-1,3.9,3.9,0,0,1-1-2.88v-9.3Z"/><path class="cls-4" d="M247.78,886.32a3.82,3.82,0,0,0,4.13-3.43l2,.31a5.12,5.12,0,0,1-2,3.51,6.54,6.54,0,0,1-4.12,1.29,6.71,6.71,0,0,1-5.25-2,8.45,8.45,0,0,1-1.81-5.83,8.15,8.15,0,0,1,1.89-5.66,6.5,6.5,0,0,1,5.1-2.13,6,6,0,0,1,4.7,1.84,7.4,7.4,0,0,1,1.67,5.15v1.26H242.83Q243,886.32,247.78,886.32Zm-.1-12.28a4.45,4.45,0,0,0-3.32,1.25,6,6,0,0,0-1.47,3.64h9Q251.7,874,247.68,874Z"/><path class="cls-4" d="M263.4,886.77a6,6,0,0,1-4.68-1.95,8.79,8.79,0,0,1,0-10.47,5.92,5.92,0,0,1,4.66-2,5.63,5.63,0,0,1,4.73,2.27v-1.92h2V887a6.55,6.55,0,0,1-1.7,4.75,6.16,6.16,0,0,1-4.66,1.76,7.22,7.22,0,0,1-4.55-1.31,5.15,5.15,0,0,1-1.93-3.67l2-.18a4,4,0,0,0,1.42,2.6,4.92,4.92,0,0,0,3,.8,4.11,4.11,0,0,0,3.25-1.24,5.43,5.43,0,0,0,1.1-3.68v-2.55A5.45,5.45,0,0,1,263.4,886.77Zm-4.29-7.21a6.07,6.07,0,0,0,1.2,4,4.21,4.21,0,0,0,3.38,1.42,4,4,0,0,0,3.25-1.5,6.73,6.73,0,0,0,0-7.83,4,4,0,0,0-3.24-1.54,4.21,4.21,0,0,0-3.41,1.41A6.17,6.17,0,0,0,259.11,879.56Z"/><path class="cls-4" d="M273.89,880.19a8.22,8.22,0,0,1,1.91-5.67,7.35,7.35,0,0,1,10.39,0,9.22,9.22,0,0,1,0,11.34,7.38,7.38,0,0,1-10.39,0A8.19,8.19,0,0,1,273.89,880.19Zm10.8,4.41a7.89,7.89,0,0,0,0-8.83,4.94,4.94,0,0,0-7.35,0,7.94,7.94,0,0,0,0,8.83,4.47,4.47,0,0,0,3.66,1.63A4.53,4.53,0,0,0,284.69,884.6Z"/><path class="cls-4" d="M294,887.63h-2V872.72h2v2.92a4.73,4.73,0,0,1,4.44-2.92h1.12v2h-1.12a3.73,3.73,0,0,0-3.21,1.82,8.42,8.42,0,0,0-1.23,4.79Z"/><path class="cls-4" d="M306.16,889.26l.6-1.54-6-15h2.2l4.91,12.6,4.92-12.6h2.11l-6.81,16.95a6.12,6.12,0,0,1-1.88,2.74,4.75,4.75,0,0,1-2.84.78h-1.47v-1.78h1.47a2.85,2.85,0,0,0,1.72-.46A3.78,3.78,0,0,0,306.16,889.26Z"/><path d="M299.25,865.06h0a15.6,15.6,0,0,1-15.6-15.6V833.85h31.21v15.61A15.6,15.6,0,0,1,299.25,865.06Z"/><path class="cls-4" d="M302.48,854.07a4.87,4.87,0,0,1-6.54,0,4.14,4.14,0,0,1-1.18-3h1.74a2.9,2.9,0,0,0,.72,1.92,2.44,2.44,0,0,0,1.9.78,2.59,2.59,0,0,0,2-.8,2.56,2.56,0,0,0,.66-1.76c0-1.7-1.16-2.58-2.86-2.58h-.84v-1.58h.84a2.26,2.26,0,0,0,2.56-2.34,2.17,2.17,0,0,0-.66-1.62,2.34,2.34,0,0,0-1.7-.68,2.55,2.55,0,0,0-1.7.56,2.5,2.5,0,0,0-.84,2h-1.74a3.84,3.84,0,0,1,1.34-3.06,4.58,4.58,0,0,1,3-1,4.35,4.35,0,0,1,3,1.12,3.5,3.5,0,0,1,1.12,2.72,3.6,3.6,0,0,1-2,3.14,3.55,3.55,0,0,1,2.33,3.4A4,4,0,0,1,302.48,854.07Z"/><path d="M615.15,677.47h0a15.61,15.61,0,0,1-15.61-15.61v-15.6h31.21v15.6A15.61,15.61,0,0,1,615.15,677.47Z"/><path class="cls-4" d="M615.18,667.47v-12l-3.3,2.42V656l3.4-2.46h1.64v13.9Z"/><path d="M361.9,833.85h0a15.6,15.6,0,0,1-15.6-15.6v-15.6h31.21v15.6A15.6,15.6,0,0,1,361.9,833.85Z"/><path class="cls-4" d="M357.75,823.86V822.4l5.62-6.94a3.1,3.1,0,0,0,.76-2,2.05,2.05,0,0,0-2.28-2.24,2.23,2.23,0,0,0-2.36,2.52h-1.76a3.86,3.86,0,0,1,4.1-4.06,4,4,0,0,1,3.4,1.6,3.59,3.59,0,0,1,.64,2.16,4.56,4.56,0,0,1-1.18,3L360,822.26h6.12v1.6Z"/><rect class="cls-5" x="1727.5" width="1" height="1080"/><rect class="cls-6" y="971.5" width="1920" height="1"/><rect class="cls-7" y="107.5" width="1920" height="1"/><rect class="cls-8" y="886.95" width="1920" height="1"/><rect class="cls-9" x="959.5" width="1" height="216"/><rect class="cls-10" x="959.5" y="864" width="1" height="216"/><rect class="cls-11" x="1536" y="539.34" width="384" height="1.33"/><rect class="cls-12" y="539.34" width="384" height="1.33"/><rect class="cls-13" x="892.31" y="539.42" width="135.39" height="1"/><rect class="cls-14" x="959.5" y="472.23" width="1" height="135.39"/></g></svg>