<svg xmlns="http://www.w3.org/2000/svg" xmlns:xlink="http://www.w3.org/1999/xlink" viewBox="0 0 1920 1080"><defs><style>.cls-1{fill:#061f6b;}.cls-2{fill:#fff;}.cls-3{fill:url(#linear-gradient);}.cls-4{fill:url(#linear-gradient-2);}.cls-5{fill:url(#linear-gradient-3);}.cls-6{fill:url(#linear-gradient-4);}.cls-7{fill:url(#linear-gradient-5);}.cls-8{fill:url(#linear-gradient-6);}.cls-9{fill:url(#linear-gradient-7);}.cls-10{fill:url(#linear-gradient-8);}.cls-11{fill:url(#linear-gradient-9);}.cls-12{fill:url(#linear-gradient-10);}</style><linearGradient id="linear-gradient" x1="8256" y1="1080" x2="8256" gradientTransform="matrix(-1, 0, 0, 1, 9984, 0)" gradientUnits="userSpaceOnUse"><stop offset="0" stop-color="#fff" stop-opacity="0"/><stop offset="0.51" stop-color="#fff"/><stop offset="1" stop-color="#fff" stop-opacity="0"/></linearGradient><linearGradient id="linear-gradient-2" x1="192" y1="1080" x2="192" y2="0" gradientTransform="matrix(1, 0, 0, 1, 0, 0)" xlink:href="#linear-gradient"/><linearGradient id="linear-gradient-3" x1="4554.42" y1="13691.57" x2="6474.42" y2="13691.57" gradientTransform="translate(6474.43 14663.57) rotate(180)" xlink:href="#linear-gradient"/><linearGradient id="linear-gradient-4" x1="4554.42" y1="14555.57" x2="6474.42" y2="14555.57" gradientTransform="translate(6474.43 14663.57) rotate(180)" xlink:href="#linear-gradient"/><linearGradient id="linear-gradient-5" x1="9024" y1="216" x2="9024" gradientTransform="matrix(-1, 0, 0, 1, 9984, 0)" gradientUnits="userSpaceOnUse"><stop offset="0" stop-color="#fff" stop-opacity="0"/><stop offset="1" stop-color="#fff"/></linearGradient><linearGradient id="linear-gradient-6" x1="960" y1="767.22" x2="960" y2="551.23" gradientTransform="matrix(1, 0, 0, -1, 0, 1631.22)" xlink:href="#linear-gradient-5"/><linearGradient id="linear-gradient-7" x1="4992" y1="3996" x2="4992" y2="3612" gradientTransform="matrix(0, -1, -1, 0, 5532, 5532)" xlink:href="#linear-gradient-5"/><linearGradient id="linear-gradient-8" x1="4992" y1="-3259.02" x2="4992" y2="-3643.03" gradientTransform="matrix(0, 1, 1, 0, 3643.03, -4452)" xlink:href="#linear-gradient-5"/><linearGradient id="linear-gradient-9" x1="-2617.27" y1="14123.66" x2="-2481.88" y2="14123.66" gradientTransform="translate(3509.58 -13583.74)" xlink:href="#linear-gradient"/><linearGradient id="linear-gradient-10" x1="1414.73" y1="18155.66" x2="1550.12" y2="18155.66" gradientTransform="translate(19115.66 -942.51) rotate(90)" xlink:href="#linear-gradient"/></defs><g id="Background"><rect class="cls-1" width="1920" height="1080"/></g><g id="Layer_2" data-name="Layer 2"><path class="cls-2" d="M717.28,590H712V549.39h6.26L737.7,580.2V549.39H743V590H738.1l-20.82-33Z"/><path class="cls-2" d="M776.19,580H758.51l-3.79,10h-5.66l15.71-40.61h5.61L785.93,590h-6.09Zm-15.89-4.64h14.16l-7-18.92Z"/><path class="cls-2" d="M797.17,590h-5V549.39h7.31l12.83,33,12.51-33h7.31V590h-5.15V556.75l-13,33.42h-3.71L797.17,557Z"/><path class="cls-2" d="M870.35,590H842.46V549.39h27.33v4.76H848V567h19.42v4.65H848v13.56h22.31Z"/><path class="cls-2" d="M909.29,590.71q-8.92,0-14.38-5.81t-5.41-15.09q0-9.54,5.41-15.29t14.5-5.81q7.13,0,11.75,3.31a16.35,16.35,0,0,1,6.23,9.63l-5.58,1a12.72,12.72,0,0,0-4.46-6.9,13.12,13.12,0,0,0-7.94-2.25q-6.72,0-10.51,4.39t-3.77,11.95q0,7.16,4,11.67A13.49,13.49,0,0,0,909.58,586a14.5,14.5,0,0,0,9.51-3.09,9.67,9.67,0,0,0,3.71-7.7v-2.32H910.11v-4.59H928V590h-5.1v-5.58a15.75,15.75,0,0,1-5.84,4.65A18.06,18.06,0,0,1,909.29,590.71Z"/><path class="cls-2" d="M973.13,569.7q0,9.57-5.27,15.26t-14,5.75q-8.73,0-14-5.75t-5.24-15.26q0-9.5,5.24-15.24t14-5.75q8.8,0,14,5.75T973.13,569.7Zm-29.19-11.83q-3.63,4.35-3.64,11.83t3.64,11.83a13.5,13.5,0,0,0,19.87,0q3.65-4.41,3.65-11.83t-3.64-11.83a13.53,13.53,0,0,0-19.88,0Z"/><path class="cls-2" d="M1009.12,590H981.23V549.39h27.32v4.76H986.8V567h19.43v4.65H986.8v13.56h22.32Z"/><path class="cls-2" d="M1030.62,590.71q-7.33,0-11.64-3.54a12.31,12.31,0,0,1-4.42-9.69l5.46-.7a9.33,9.33,0,0,0,2.94,7q2.73,2.38,7.66,2.39a9.41,9.41,0,0,0,6.3-2,6.58,6.58,0,0,0,2.31-5.28,5.39,5.39,0,0,0-1.62-4.18q-1.6-1.49-5.58-2.33l-5.41-1.16q-5.55-1.23-8.2-4a10.75,10.75,0,0,1,1.12-15.23,14.55,14.55,0,0,1,9.86-3.26q6.4,0,10.21,3.12a12.17,12.17,0,0,1,4.35,8.66l-5.5.68q-1-7.87-9.06-7.87a9.3,9.3,0,0,0-6,1.74,5.8,5.8,0,0,0-2.14,4.74,5.73,5.73,0,0,0,1.56,4.25,10,10,0,0,0,5,2.3l6.32,1.35c3.64.78,6.32,2,8,3.8a9.72,9.72,0,0,1,2.58,7.11,11.16,11.16,0,0,1-3.88,8.69A15.08,15.08,0,0,1,1030.62,590.71Z"/><path class="cls-2" d="M1071.54,590H1066V549.39h5.58v17.53h20.36V549.39h5.5V590h-5.5V571.73h-20.36Z"/><path class="cls-2" d="M1135.6,590h-27.9V549.39H1135v4.76h-21.75V567h19.43v4.65h-19.43v13.56h22.32Z"/><path class="cls-2" d="M1172.64,579.49l.6,10.51h-5.53l-.56-10.56a5.18,5.18,0,0,0-2-4.18c-1.23-.88-3.17-1.32-5.84-1.32h-10.08V590h-5.58V549.39h16q6.18,0,9.91,3.14a10,10,0,0,1,3.71,8.07,11.63,11.63,0,0,1-6.51,10.65Q1172.3,573.07,1172.64,579.49Zm-5-18.43a6.28,6.28,0,0,0-2.25-5.07,9.24,9.24,0,0,0-6.16-1.9h-10V569.3h10a8.37,8.37,0,0,0,6.12-2.31A8,8,0,0,0,1167.66,561.06Z"/><path class="cls-2" d="M1210.28,590h-27.9V549.39h27.33v4.76H1188V567h19.43v4.65H1188v13.56h22.32Z"/><path class="cls-2" d="M931.55,477h16v2.47H941V498h-2.85V479.46h-6.56Z"/><path class="cls-2" d="M952.81,480.57h-2.66V477h2.66Zm0,17.43h-2.66V483h2.66Z"/><path class="cls-2" d="M955.54,485.2V483h2.64v-4.83h2.66V483h3.78v2.2h-3.78v8.39a2.53,2.53,0,0,0,.42,1.66,1.87,1.87,0,0,0,1.44.46H965V498h-2.7a4.18,4.18,0,0,1-3.06-1,4,4,0,0,1-1.05-3V485.2Z"/><path class="cls-2" d="M970.47,498H967.8V477h2.67Z"/><path class="cls-2" d="M981.2,496.2a3.54,3.54,0,0,0,3.81-3l2.46.48a5.49,5.49,0,0,1-2.11,3.45,6.79,6.79,0,0,1-4.16,1.27,7,7,0,0,1-5.38-2,8.31,8.31,0,0,1-1.88-5.83,8.11,8.11,0,0,1,1.95-5.7,6.74,6.74,0,0,1,5.26-2.17,6.2,6.2,0,0,1,4.83,1.94,7.54,7.54,0,0,1,1.76,5.27v1.29H976.63Q976.86,496.2,981.2,496.2Zm-.13-11.43a4.06,4.06,0,0,0-3,1.12,5.31,5.31,0,0,0-1.37,3.26H985C984.84,486.23,983.53,484.77,981.07,484.77Z"/></g><g id="Guids_and_Grids" data-name="Guids and Grids"><path d="M960,456h0a15.6,15.6,0,0,1-15.6-15.6V424.79h31.2V440.4A15.6,15.6,0,0,1,960,456Z"/><path class="cls-2" d="M960,446V434l-3.3,2.42v-1.9l3.4-2.46h1.64V446Z"/><path d="M960,638.66h0a15.6,15.6,0,0,1-15.6-15.61v-15.6h31.2v15.6A15.6,15.6,0,0,1,960,638.66Z"/><path class="cls-2" d="M955.85,628.66V627.2l5.62-6.94a3.1,3.1,0,0,0,.76-2A2.05,2.05,0,0,0,960,616a2.23,2.23,0,0,0-2.36,2.52h-1.76a3.86,3.86,0,0,1,4.1-4.06,4,4,0,0,1,3.4,1.6,3.59,3.59,0,0,1,.64,2.16,4.56,4.56,0,0,1-1.18,3l-4.72,5.86h6.12v1.6Z"/><rect class="cls-3" x="1727.5" width="1" height="1080"/><rect class="cls-4" x="191.5" width="1" height="1080"/><rect class="cls-5" y="971.5" width="1920" height="1"/><rect class="cls-6" y="107.5" width="1920" height="1"/><rect class="cls-7" x="959.5" width="1" height="216"/><rect class="cls-8" x="959.5" y="864" width="1" height="216"/><rect class="cls-9" x="1536" y="539.34" width="384" height="1.33"/><rect class="cls-10" y="539.34" width="384" height="1.33"/><rect class="cls-11" x="892.31" y="539.42" width="135.39" height="1"/><rect class="cls-12" x="959.5" y="472.23" width="1" height="135.39"/></g></svg>