<svg xmlns="http://www.w3.org/2000/svg" xmlns:xlink="http://www.w3.org/1999/xlink" viewBox="0 0 1920 1080"><defs><style>.cls-1{fill:#061f6b;}.cls-2{fill:#fff;}.cls-3{fill:url(#linear-gradient);}.cls-4{fill:url(#linear-gradient-2);}.cls-5{fill:url(#linear-gradient-3);}.cls-6{fill:url(#linear-gradient-4);}.cls-7{fill:url(#linear-gradient-5);}.cls-8{fill:url(#linear-gradient-6);}.cls-9{fill:url(#linear-gradient-7);}.cls-10{fill:url(#linear-gradient-8);}.cls-11{fill:url(#linear-gradient-9);}.cls-12{fill:url(#linear-gradient-10);}</style><linearGradient id="linear-gradient" y1="888" x2="1920" y2="888" gradientUnits="userSpaceOnUse"><stop offset="0" stop-color="#fff" stop-opacity="0"/><stop offset="0.51" stop-color="#fff"/><stop offset="1" stop-color="#fff" stop-opacity="0"/></linearGradient><linearGradient id="linear-gradient-2" x1="192" y1="1080" x2="192" y2="0" xlink:href="#linear-gradient"/><linearGradient id="linear-gradient-3" x1="522.43" y1="16907.57" x2="2442.42" y2="16907.57" gradientTransform="translate(2442.43 17015.57) rotate(180)" xlink:href="#linear-gradient"/><linearGradient id="linear-gradient-4" x1="3222.43" y1="6227.57" x2="4302.43" y2="6227.57" gradientTransform="translate(7955.57 -3222.43) rotate(90)" xlink:href="#linear-gradient"/><linearGradient id="linear-gradient-5" x1="4992" y1="216" x2="4992" gradientTransform="matrix(-1, 0, 0, 1, 5952, 0)" gradientUnits="userSpaceOnUse"><stop offset="0" stop-color="#fff" stop-opacity="0"/><stop offset="1" stop-color="#fff"/></linearGradient><linearGradient id="linear-gradient-6" x1="960" y1="3119.22" x2="960" y2="2903.23" gradientTransform="matrix(1, 0, 0, -1, 0, 3983.22)" xlink:href="#linear-gradient-5"/><linearGradient id="linear-gradient-7" x1="4152" y1="3156" x2="4152" y2="2772" gradientTransform="matrix(0, -1, -1, 0, 4692, 4692)" xlink:href="#linear-gradient-5"/><linearGradient id="linear-gradient-8" x1="1800" y1="-67.02" x2="1800" y2="-451.03" gradientTransform="matrix(0, 1, 1, 0, 451.03, -1260)" xlink:href="#linear-gradient-5"/><linearGradient id="linear-gradient-9" x1="-2617.27" y1="14123.66" x2="-2481.88" y2="14123.66" gradientTransform="translate(3509.58 -13583.74)" xlink:href="#linear-gradient"/><linearGradient id="linear-gradient-10" x1="-1777.27" y1="17315.66" x2="-1641.88" y2="17315.66" gradientTransform="translate(18275.66 2249.49) rotate(90)" xlink:href="#linear-gradient"/></defs><g id="Background"><rect class="cls-1" width="1920" height="1080"/></g><g id="Guids_and_Grids" data-name="Guids and Grids"><path d="M432.1,939h0a15.6,15.6,0,0,1-15.6-15.61v-15.6h31.2v15.6A15.6,15.6,0,0,1,432.1,939Z"/><path class="cls-2" d="M428,929v-1.46l5.62-6.94a3.1,3.1,0,0,0,.76-2,2.05,2.05,0,0,0-2.28-2.24,2.23,2.23,0,0,0-2.36,2.52h-1.76a3.86,3.86,0,0,1,4.1-4.06,4,4,0,0,1,3.4,1.6,3.59,3.59,0,0,1,.64,2.16,4.56,4.56,0,0,1-1.18,3l-4.72,5.86h6.12V929Z"/><path d="M677.86,760.36h0a15.6,15.6,0,0,1-15.61-15.6v-15.6h31.21v15.6A15.59,15.59,0,0,1,677.86,760.36Z"/><path class="cls-2" d="M677.89,750.37v-12l-3.3,2.42v-1.9l3.4-2.46h1.64v13.9Z"/><path class="cls-2" d="M203.61,824h-6.8V783.39h6.8v16.87h18.78V783.39h6.79V824h-6.79V806.18H203.61Z"/><path class="cls-2" d="M250.17,819.58a7.2,7.2,0,0,0,4.4-1.23,6.75,6.75,0,0,0,2.37-3.81l5.69,1.22a10.85,10.85,0,0,1-4.29,6.58,13.63,13.63,0,0,1-8.17,2.37q-6.94,0-10.66-4t-3.73-11.35c0-4.58,1.3-8.26,3.88-11A13.39,13.39,0,0,1,250,794.12q6.15,0,9.71,3.87t3.57,10.46V811H242.1Q242.7,819.58,250.17,819.58Zm-.23-20.42q-6.65,0-7.73,7.45h14.56Q256.17,799.16,249.94,799.16Z"/><path class="cls-2" d="M294.63,818.73h1.28V824h-3.23a7.35,7.35,0,0,1-3.95-1,4.17,4.17,0,0,1-2-2.84q-3,4.53-9.06,4.54a10.85,10.85,0,0,1-7.38-2.4,7.83,7.83,0,0,1-2.76-6.21,8.14,8.14,0,0,1,2.28-6,11.59,11.59,0,0,1,6.53-3l8.18-1.39a1.84,1.84,0,0,0,1.73-2,4.16,4.16,0,0,0-1.5-3.3,6.1,6.1,0,0,0-4.11-1.29c-3.53,0-5.64,1.63-6.34,4.87l-6-.68a10.13,10.13,0,0,1,4.08-6.64,14,14,0,0,1,8.58-2.53q5.48,0,8.53,2.82a9.94,9.94,0,0,1,3.06,7.69v11.89a2.4,2.4,0,0,0,.49,1.7A2.16,2.16,0,0,0,294.63,818.73Zm-20.81-3.14a3.73,3.73,0,0,0,1.29,3,5.64,5.64,0,0,0,3.69,1.07,7.09,7.09,0,0,0,5.45-2.31,8.38,8.38,0,0,0,2.14-6V810l-8.3,1.42a5.64,5.64,0,0,0-3.17,1.43A3.75,3.75,0,0,0,273.82,815.59Z"/><path class="cls-2" d="M312,824.71a12,12,0,0,1-9.51-4.08q-3.54-4.05-3.54-11t3.54-11.19a11.84,11.84,0,0,1,9.51-4.3,10.79,10.79,0,0,1,9.1,4.36V783.39h6.37V824h-6.15v-4.17A10.58,10.58,0,0,1,312,824.71Zm-6.51-15.33a11.47,11.47,0,0,0,2.1,7.23,6.76,6.76,0,0,0,5.63,2.69,7.08,7.08,0,0,0,5.82-2.69,11.19,11.19,0,0,0,2.17-7.23,11,11,0,0,0-2.2-7.13,7,7,0,0,0-5.79-2.72,6.77,6.77,0,0,0-5.63,2.67A11.33,11.33,0,0,0,305.45,809.38Z"/><path class="cls-2" d="M341.7,824h-6.4V783.39h6.4Z"/><path class="cls-2" d="M356,790.58h-6.4v-7.19H356ZM356,824h-6.4V794.83H356Z"/><path class="cls-2" d="M389.68,805.14V824h-6.4V806.18a7,7,0,0,0-1.6-4.92,5.88,5.88,0,0,0-4.55-1.73,6.4,6.4,0,0,0-5.15,2.09,9.16,9.16,0,0,0-1.79,6.09V824h-6.4V794.83h6.15v3.48a10.3,10.3,0,0,1,8.83-4.19,10.7,10.7,0,0,1,8,3A11,11,0,0,1,389.68,805.14Z"/><path class="cls-2" d="M409.84,819.58a7.2,7.2,0,0,0,4.4-1.23,6.75,6.75,0,0,0,2.37-3.81l5.69,1.22a10.85,10.85,0,0,1-4.29,6.58,13.63,13.63,0,0,1-8.17,2.37q-6.94,0-10.66-4t-3.73-11.35c0-4.58,1.3-8.26,3.88-11a13.39,13.39,0,0,1,10.34-4.25q6.15,0,9.71,3.87T423,808.45V811H401.77Q402.37,819.58,409.84,819.58Zm-.23-20.42q-6.64,0-7.73,7.45h14.56Q415.84,799.16,409.61,799.16Z"/><path class="cls-2" d="M452.66,822.21a11.83,11.83,0,0,1-9.2-3.79q-3.37-3.79-3.37-10.2A15,15,0,0,1,443.51,798a11.66,11.66,0,0,1,9.15-3.88q5.83,0,8.89,4.08v-3.37h6.15v27.61q0,6.09-3.58,9.53t-10,3.44q-5.93,0-9.49-2.62a9.78,9.78,0,0,1-4-7.18l6.4-.68a6.2,6.2,0,0,0,2.35,4,8.36,8.36,0,0,0,4.9,1.26,6.83,6.83,0,0,0,5.32-2,8.46,8.46,0,0,0,1.82-5.87v-4.25A10.26,10.26,0,0,1,452.66,822.21Zm-4.08-20.46a11.53,11.53,0,0,0,0,12.83,6.85,6.85,0,0,0,5.5,2.28,6.69,6.69,0,0,0,5.35-2.36,10.83,10.83,0,0,0,0-12.61,6.63,6.63,0,0,0-5.32-2.42A6.85,6.85,0,0,0,448.58,801.75Z"/><path class="cls-2" d="M473.65,809.44a15.71,15.71,0,0,1,3.93-11.07,13.84,13.84,0,0,1,10.57-4.25q6.71,0,10.62,4.25t3.93,11.07a15.47,15.47,0,0,1-4,11,13.82,13.82,0,0,1-10.56,4.25q-6.63,0-10.57-4.2T473.65,809.44Zm22.54,0a11.63,11.63,0,0,0-2.13-7.41,7.85,7.85,0,0,0-11.81,0,11.66,11.66,0,0,0-2.12,7.39,11.41,11.41,0,0,0,2.12,7.32,7.9,7.9,0,0,0,11.81,0A11.36,11.36,0,0,0,496.19,809.44Z"/><path class="cls-2" d="M521.42,819.58a7.25,7.25,0,0,0,4.41-1.23,6.79,6.79,0,0,0,2.36-3.81l5.69,1.22a10.85,10.85,0,0,1-4.29,6.58,13.63,13.63,0,0,1-8.17,2.37q-6.93,0-10.66-4T507,809.38c0-4.58,1.29-8.26,3.88-11a13.37,13.37,0,0,1,10.33-4.25q6.15,0,9.72,3.87t3.56,10.46V811H513.35Q514,819.58,521.42,819.58Zm-.22-20.42q-6.66,0-7.74,7.45H528Q527.42,799.16,521.2,799.16Z"/><path class="cls-2" d="M551.44,824.71q-5.81,0-9.23-2.57a9.21,9.21,0,0,1-3.77-7l6.4-.76a6.05,6.05,0,0,0,2,4.12,7.08,7.08,0,0,0,4.63,1.34,6.59,6.59,0,0,0,4.12-1.09,3.73,3.73,0,0,0,1.4-3.15q0-2.87-4.47-3.54l-4.36-.77a12,12,0,0,1-6.47-2.89,7.27,7.27,0,0,1-2.23-5.49,7.7,7.7,0,0,1,3.15-6.29,12.89,12.89,0,0,1,8.3-2.49c3.43,0,6.16.77,8.16,2.31a10,10,0,0,1,3.73,6.69l-5.81.74a6.31,6.31,0,0,0-2.06-3.74,6.52,6.52,0,0,0-4.14-1.19,6.61,6.61,0,0,0-3.82,1,3.14,3.14,0,0,0-.43,4.82,6.23,6.23,0,0,0,3,1.2l4.82.88q8.92,1.63,8.92,8.41a8.46,8.46,0,0,1-3.16,6.95C558,823.85,555.12,824.71,551.44,824.71Z"/><path class="cls-2" d="M607.74,805.14V824h-6.4V806.18a7,7,0,0,0-1.6-4.92,5.86,5.86,0,0,0-4.54-1.73,6.42,6.42,0,0,0-5.16,2.09,9.16,9.16,0,0,0-1.78,6.09V824h-6.4V783.39h6.4V798q2.94-3.88,8.58-3.88a10.7,10.7,0,0,1,8,3A11,11,0,0,1,607.74,805.14Z"/><path class="cls-2" d="M627.91,819.58a7.2,7.2,0,0,0,4.4-1.23,6.79,6.79,0,0,0,2.36-3.81l5.7,1.22a10.85,10.85,0,0,1-4.29,6.58,13.66,13.66,0,0,1-8.17,2.37q-6.95,0-10.67-4t-3.72-11.35c0-4.58,1.29-8.26,3.88-11a13.38,13.38,0,0,1,10.34-4.25q6.13,0,9.71,3.87T641,808.45V811H619.83Q620.43,819.58,627.91,819.58Zm-.23-20.42q-6.66,0-7.73,7.45H634.5Q633.92,799.16,627.68,799.16Z"/><path class="cls-2" d="M653.54,824h-6.4V794.83h6.14v4.87a8.79,8.79,0,0,1,8-4.87h2.43v5.92h-2.6a6.46,6.46,0,0,0-5.61,2.8q-2,2.81-2,8Z"/><path class="cls-2" d="M680.64,819.58a7.2,7.2,0,0,0,4.4-1.23,6.75,6.75,0,0,0,2.37-3.81l5.69,1.22a10.85,10.85,0,0,1-4.29,6.58,13.63,13.63,0,0,1-8.17,2.37q-6.95,0-10.66-4t-3.73-11.35c0-4.58,1.29-8.26,3.88-11a13.39,13.39,0,0,1,10.34-4.25q6.15,0,9.71,3.87t3.57,10.46V811H672.57Q673.16,819.58,680.64,819.58Zm-.23-20.42q-6.66,0-7.73,7.45h14.56Q686.64,799.16,680.41,799.16Z"/><path class="cls-2" d="M201.54,888a8.81,8.81,0,0,1-5.85-1.83,6.42,6.42,0,0,1-2.23-5l2.14-.28a5.34,5.34,0,0,0,1.64,3.9,6.23,6.23,0,0,0,4.3,1.36,5.06,5.06,0,0,0,3.52-1.15,3.9,3.9,0,0,0,1.28-3,3.05,3.05,0,0,0-.91-2.37,7.15,7.15,0,0,0-3.18-1.35l-2.81-.63a7.77,7.77,0,0,1-4.06-2,5.18,5.18,0,0,1-1.31-3.69,5.11,5.11,0,0,1,1.86-4,7.26,7.26,0,0,1,4.89-1.61,7.67,7.67,0,0,1,5.11,1.61,6.38,6.38,0,0,1,2.18,4.48l-2.16.27q-.51-4.5-5.16-4.5a5.05,5.05,0,0,0-3.36,1,3.43,3.43,0,0,0-1.2,2.76,3.32,3.32,0,0,0,.91,2.45,6,6,0,0,0,2.9,1.36l3.3.71a7.59,7.59,0,0,1,3.94,1.92,5,5,0,0,1,1.24,3.55,5.63,5.63,0,0,1-1.92,4.35A7.22,7.22,0,0,1,201.54,888Z"/><path class="cls-2" d="M222.38,872.72h2v14.92h-2v-1.92a5.92,5.92,0,0,1-8.62.77,5.65,5.65,0,0,1-1.46-4.1v-9.67h2V882a4.49,4.49,0,0,0,1,3.09,3.56,3.56,0,0,0,2.78,1.08,3.84,3.84,0,0,0,3.19-1.36,6.21,6.21,0,0,0,1.1-4Z"/><path class="cls-2" d="M236.25,872.37a6,6,0,0,1,4.84,2.1,8.2,8.2,0,0,1,1.83,5.61,8.64,8.64,0,0,1-1.83,5.75,6,6,0,0,1-4.84,2.17,5.71,5.71,0,0,1-5-2.62v2.26h-2v-21h2v8.44A5.68,5.68,0,0,1,236.25,872.37Zm4.56,7.82a7,7,0,0,0-1.26-4.4,4.11,4.11,0,0,0-3.44-1.63,4.36,4.36,0,0,0-3.58,1.65,7.73,7.73,0,0,0,0,8.73,4.34,4.34,0,0,0,3.58,1.66,4.13,4.13,0,0,0,3.44-1.62A7,7,0,0,0,240.81,880.19Z"/><path class="cls-2" d="M259.15,878v9.66h-2v-9.28a4.43,4.43,0,0,0-1-3.1,3.75,3.75,0,0,0-2.89-1.1,4,4,0,0,0-3.31,1.36,6.14,6.14,0,0,0-1.13,4v8.13h-2v-21h2v8.07a5.31,5.31,0,0,1,4.78-2.33,5.19,5.19,0,0,1,5.61,5.61Z"/><path class="cls-2" d="M269.83,886.32a3.82,3.82,0,0,0,4.13-3.43l2,.31a5.13,5.13,0,0,1-2,3.51,6.51,6.51,0,0,1-4.11,1.29,6.68,6.68,0,0,1-5.25-2,8.42,8.42,0,0,1-1.81-5.82,8.16,8.16,0,0,1,1.89-5.67,6.48,6.48,0,0,1,5.09-2.13,6.06,6.06,0,0,1,4.71,1.84,7.4,7.4,0,0,1,1.67,5.15v1.26H264.88Q265,886.32,269.83,886.32ZM269.72,874a4.43,4.43,0,0,0-3.31,1.25,5.89,5.89,0,0,0-1.48,3.64h9Q273.74,874,269.72,874Z"/><path class="cls-2" d="M291.92,885.92h.77v1.72h-1.23a2.88,2.88,0,0,1-1.88-.62,2,2,0,0,1-.75-1.64v-.12A5.27,5.27,0,0,1,284,888a5.54,5.54,0,0,1-3.75-1.21,4,4,0,0,1-1.4-3.14,4.09,4.09,0,0,1,1.17-3,5.92,5.92,0,0,1,3.32-1.58l4.53-.78a1,1,0,0,0,1-1.14,2.82,2.82,0,0,0-1-2.23,4,4,0,0,0-2.69-.86,3.69,3.69,0,0,0-4,3.06l-1.92-.26a5.08,5.08,0,0,1,2-3.26,6.47,6.47,0,0,1,4.05-1.24,5.76,5.76,0,0,1,4.09,1.39,4.79,4.79,0,0,1,1.49,3.71v7.31a1.24,1.24,0,0,0,.26.89A1.2,1.2,0,0,0,291.92,885.92Zm-11.08-2.37a2.54,2.54,0,0,0,.85,2,3.54,3.54,0,0,0,2.36.73,4.38,4.38,0,0,0,3.43-1.51,5.82,5.82,0,0,0,1.35-4v-1l-5.34.92a3.22,3.22,0,0,0-1.95.94A2.53,2.53,0,0,0,280.84,883.55Z"/><path class="cls-2" d="M301.15,888a6.14,6.14,0,0,1-4.87-2.11,8.33,8.33,0,0,1-1.8-5.61,8.66,8.66,0,0,1,1.8-5.73,6,6,0,0,1,4.87-2.18,5.75,5.75,0,0,1,5,2.61v-8.35h2v21h-2v-2.35A5.69,5.69,0,0,1,301.15,888Zm-4.56-7.83a7,7,0,0,0,1.26,4.4,4.11,4.11,0,0,0,3.44,1.63,4.36,4.36,0,0,0,3.58-1.65,6.7,6.7,0,0,0,1.34-4.38,6.78,6.78,0,0,0-1.34-4.33,4.36,4.36,0,0,0-3.58-1.68,4.13,4.13,0,0,0-3.44,1.62A7,7,0,0,0,296.59,880.17Z"/><path class="cls-2" d="M325.68,886.77a5.92,5.92,0,0,1-4.67-1.95,8.77,8.77,0,0,1,0-10.47,6,6,0,0,1,4.66-2,5.63,5.63,0,0,1,4.73,2.27v-1.92h2V887a6.57,6.57,0,0,1-1.69,4.74,6.2,6.2,0,0,1-4.67,1.76,7.24,7.24,0,0,1-4.55-1.31,5.14,5.14,0,0,1-1.92-3.67l2-.18a4.09,4.09,0,0,0,1.42,2.6,4.94,4.94,0,0,0,3,.8,4.09,4.09,0,0,0,3.25-1.24,5.38,5.38,0,0,0,1.1-3.68v-2.55A5.45,5.45,0,0,1,325.68,886.77Zm-4.29-7.21a6.07,6.07,0,0,0,1.2,4A4.18,4.18,0,0,0,326,885a4,4,0,0,0,3.26-1.5,6.76,6.76,0,0,0,0-7.83,4,4,0,0,0-3.24-1.54,4.19,4.19,0,0,0-3.4,1.41A6.12,6.12,0,0,0,321.39,879.56Z"/><path class="cls-2" d="M336.17,880.19a8.14,8.14,0,0,1,1.92-5.66,7.32,7.32,0,0,1,10.38,0,9.2,9.2,0,0,1,0,11.33,7.36,7.36,0,0,1-10.38,0A8.15,8.15,0,0,1,336.17,880.19ZM347,884.6a7.85,7.85,0,0,0,0-8.83,4.93,4.93,0,0,0-7.34,0,7.92,7.92,0,0,0,0,8.83,5,5,0,0,0,7.35,0Z"/><path class="cls-2" d="M360.27,886.32a3.82,3.82,0,0,0,4.13-3.43l2,.31a5.13,5.13,0,0,1-2,3.51,6.51,6.51,0,0,1-4.11,1.29,6.68,6.68,0,0,1-5.25-2,8.42,8.42,0,0,1-1.81-5.82,8.16,8.16,0,0,1,1.89-5.67,6.48,6.48,0,0,1,5.09-2.13,6.08,6.08,0,0,1,4.71,1.84,7.4,7.4,0,0,1,1.67,5.15v1.26H355.32Q355.49,886.32,360.27,886.32ZM360.16,874a4.43,4.43,0,0,0-3.31,1.25,5.89,5.89,0,0,0-1.48,3.64h9Q364.18,874,360.16,874Z"/><path class="cls-2" d="M375.46,888a6.93,6.93,0,0,1-4.47-1.35,4.71,4.71,0,0,1-1.8-3.6l2-.37a4.22,4.22,0,0,0,1.28,2.74,4.5,4.5,0,0,0,3,.87,4.09,4.09,0,0,0,2.64-.74,2.65,2.65,0,0,0,.9-2.18q0-1.93-3-2.43l-2-.32q-4.32-.72-4.32-4.09a3.67,3.67,0,0,1,1.49-3,7.11,7.11,0,0,1,7.83,0,5.25,5.25,0,0,1,1.87,3.41l-1.86.32a4.35,4.35,0,0,0-1.36-2.46,4.06,4.06,0,0,0-2.61-.75,4.18,4.18,0,0,0-2.47.65,2,2,0,0,0-.91,1.72,2.07,2.07,0,0,0,.62,1.58,3.64,3.64,0,0,0,2,.77l2.34.38q4.47.74,4.47,4.2a4.17,4.17,0,0,1-1.51,3.36A6.1,6.1,0,0,1,375.46,888Z"/><path class="cls-2" d="M404.36,878v9.66h-2.05v-9.28a4.43,4.43,0,0,0-1-3.1,3.75,3.75,0,0,0-2.89-1.1,4,4,0,0,0-3.31,1.36,6.14,6.14,0,0,0-1.13,4v8.13h-2v-21h2v8.07a5.31,5.31,0,0,1,4.78-2.33,5.19,5.19,0,0,1,5.61,5.61Z"/><path class="cls-2" d="M415,886.32a3.82,3.82,0,0,0,4.13-3.43l1.95.31a5.13,5.13,0,0,1-2,3.51A6.51,6.51,0,0,1,415,888a6.68,6.68,0,0,1-5.25-2,8.42,8.42,0,0,1-1.81-5.82,8.16,8.16,0,0,1,1.89-5.67,6.48,6.48,0,0,1,5.09-2.13,6.06,6.06,0,0,1,4.71,1.84,7.4,7.4,0,0,1,1.67,5.15v1.26H410.09Q410.26,886.32,415,886.32ZM414.93,874a4.43,4.43,0,0,0-3.31,1.25,5.89,5.89,0,0,0-1.48,3.64h9Q418.94,874,414.93,874Z"/><path class="cls-2" d="M427.2,887.64h-2V872.72h2v2.92a4.72,4.72,0,0,1,4.43-2.92h1.12v2h-1.12a3.73,3.73,0,0,0-3.2,1.82,8.42,8.42,0,0,0-1.23,4.79Z"/><path class="cls-2" d="M441.4,886.32a3.83,3.83,0,0,0,4.14-3.43l1.94.31a5.12,5.12,0,0,1-2,3.51A6.52,6.52,0,0,1,441.4,888a6.71,6.71,0,0,1-5.25-2,8.47,8.47,0,0,1-1.81-5.82,8.16,8.16,0,0,1,1.89-5.67,6.5,6.5,0,0,1,5.1-2.13,6,6,0,0,1,4.7,1.84,7.36,7.36,0,0,1,1.67,5.15v1.26H436.45Q436.63,886.32,441.4,886.32ZM441.3,874a4.46,4.46,0,0,0-3.32,1.25,6,6,0,0,0-1.47,3.64h9Q445.31,874,441.3,874Z"/><rect class="cls-3" y="887.5" width="1920" height="1"/><rect class="cls-4" x="191.5" width="1" height="1080"/><rect class="cls-5" y="107.5" width="1920" height="1"/><rect class="cls-6" x="1727.5" width="1" height="1080"/><rect class="cls-7" x="959.5" width="1" height="216"/><rect class="cls-8" x="959.5" y="864" width="1" height="216"/><rect class="cls-9" x="1536" y="539.34" width="384" height="1.33"/><rect class="cls-10" y="539.34" width="384" height="1.33"/><rect class="cls-11" x="892.31" y="539.42" width="135.39" height="1"/><rect class="cls-12" x="959.5" y="472.23" width="1" height="135.39"/></g></svg>