<svg xmlns="http://www.w3.org/2000/svg" xmlns:xlink="http://www.w3.org/1999/xlink" viewBox="0 0 1920 1080"><defs><style>.cls-1{fill:#061f6b;}.cls-2{fill:#4672e2;}.cls-3{fill:#fff;}.cls-4{fill:url(#linear-gradient);}.cls-5{fill:url(#linear-gradient-2);}.cls-6{fill:url(#linear-gradient-3);}.cls-7{fill:url(#linear-gradient-4);}.cls-8{fill:url(#linear-gradient-5);}.cls-9{fill:url(#linear-gradient-6);}.cls-10{fill:url(#linear-gradient-7);}.cls-11{fill:url(#linear-gradient-8);}.cls-12{fill:url(#linear-gradient-9);}.cls-13{fill:url(#linear-gradient-10);}.cls-14{fill:url(#linear-gradient-11);}</style><linearGradient id="linear-gradient" x1="192" y1="1080" x2="192" gradientUnits="userSpaceOnUse"><stop offset="0" stop-color="#fff" stop-opacity="0"/><stop offset="0.51" stop-color="#fff"/><stop offset="1" stop-color="#fff" stop-opacity="0"/></linearGradient><linearGradient id="linear-gradient-2" x1="11286.43" y1="14291.57" x2="12366.43" y2="14291.57" gradientTransform="translate(16019.57 -11286.43) rotate(90)" xlink:href="#linear-gradient"/><linearGradient id="linear-gradient-3" x1="16650.42" y1="16043.57" x2="18570.42" y2="16043.57" gradientTransform="translate(18570.43 17015.57) rotate(180)" xlink:href="#linear-gradient"/><linearGradient id="linear-gradient-4" x1="16650.42" y1="16907.57" x2="18570.42" y2="16907.57" gradientTransform="translate(18570.43 17015.57) rotate(180)" xlink:href="#linear-gradient"/><linearGradient id="linear-gradient-5" x1="16650.42" y1="16128.12" x2="18570.42" y2="16128.12" gradientTransform="translate(18570.43 17015.57) rotate(180)" xlink:href="#linear-gradient"/><linearGradient id="linear-gradient-6" x1="21120" y1="216" x2="21120" gradientTransform="matrix(-1, 0, 0, 1, 22080, 0)" gradientUnits="userSpaceOnUse"><stop offset="0" stop-color="#fff" stop-opacity="0"/><stop offset="1" stop-color="#fff"/></linearGradient><linearGradient id="linear-gradient-7" x1="960" y1="3119.22" x2="960" y2="2903.23" gradientTransform="matrix(1, 0, 0, -1, 0, 3983.22)" xlink:href="#linear-gradient-6"/><linearGradient id="linear-gradient-8" x1="12216" y1="11220" x2="12216" y2="10836" gradientTransform="matrix(0, -1, -1, 0, 12756, 12756)" xlink:href="#linear-gradient-6"/><linearGradient id="linear-gradient-9" x1="9864" y1="-8131.02" x2="9864" y2="-8515.03" gradientTransform="matrix(0, 1, 1, 0, 8515.03, -9324)" xlink:href="#linear-gradient-6"/><linearGradient id="linear-gradient-10" x1="-2617.27" y1="14123.66" x2="-2481.88" y2="14123.66" gradientTransform="translate(3509.58 -13583.74)" xlink:href="#linear-gradient"/><linearGradient id="linear-gradient-11" x1="6286.73" y1="25379.66" x2="6422.12" y2="25379.66" gradientTransform="translate(26339.66 -5814.51) rotate(90)" xlink:href="#linear-gradient"/></defs><g id="Background"><rect class="cls-1" y="0.07" width="1920" height="1080"/></g><g id="Layer_2" data-name="Layer 2"><path class="cls-2" d="M758,0h970a0,0,0,0,1,0,0V487a485,485,0,0,1-485,485h0A485,485,0,0,1,758,487V0A0,0,0,0,1,758,0Z"/><path class="cls-3" d="M640,876.94a7.64,7.64,0,0,1-5.57,1.88h-5.6v8.8H626V864.94h8.42c2.65,0,4.54.73,5.76,2a7,7,0,0,1,1.72,4.8A7.06,7.06,0,0,1,640,876.94Zm-5.67-9.41h-5.5v8.7h5.53c3,0,4.58-1.41,4.58-4.45C639,868.9,637.17,867.53,634.35,867.53Z"/><path class="cls-3" d="M653.07,874a4.47,4.47,0,0,0-3.07,1.28c-1.31,1.25-1.47,3.49-1.47,5.18v7.2h-2.69V871.43h2.4l.22,2.85a5,5,0,0,1,4.84-2.94,9.29,9.29,0,0,1,1.28.09v2.66A7.7,7.7,0,0,0,653.07,874Z"/><path class="cls-3" d="M670.83,880.42H659.38a6,6,0,0,0,1.56,4.07,4.09,4.09,0,0,0,3,1.15,4,4,0,0,0,3-1.06,3.4,3.4,0,0,0,1-1.76h2.65a5.93,5.93,0,0,1-2.49,4,7.44,7.44,0,0,1-4.13,1.22,6.92,6.92,0,0,1-5.38-2.43,9.19,9.19,0,0,1-2-6,9.83,9.83,0,0,1,1.25-5.18,6.92,6.92,0,0,1,6.11-3.39,6.53,6.53,0,0,1,4.93,2.08,8.31,8.31,0,0,1,2,5.69Zm-3.74-5.63a3.85,3.85,0,0,0-3.2-1.47c-2.95,0-4.39,2.4-4.45,4.77h8.64A5.67,5.67,0,0,0,667.09,874.79Z"/><path class="cls-3" d="M686.16,886.21a8.49,8.49,0,0,1-10.53,0,5.23,5.23,0,0,1-1.57-3.71h2.72A3.18,3.18,0,0,0,678.1,885a5.06,5.06,0,0,0,2.91.74,4.35,4.35,0,0,0,3-.9,2.28,2.28,0,0,0,.8-1.76c0-1.21-.86-2.08-2.52-2.3-.71-.1-2.53-.32-3.65-.48-2.43-.39-4-1.89-4-4.35a4.67,4.67,0,0,1,1.34-3.17,6.61,6.61,0,0,1,4.77-1.79,6.42,6.42,0,0,1,5.15,2,4.63,4.63,0,0,1,1.16,3.11h-2.72a3,3,0,0,0-.93-2,3.79,3.79,0,0,0-2.66-.86,4.2,4.2,0,0,0-1.89.32,2.42,2.42,0,0,0-1.63,2.17c0,1.35.83,1.92,2.18,2.12.89.12,2.17.25,3.9.54a4.61,4.61,0,0,1,2.85,7.77Z"/><path class="cls-3" d="M705.14,880.42H693.68a6,6,0,0,0,1.57,4.07,4.6,4.6,0,0,0,6,.09,3.33,3.33,0,0,0,1-1.76h2.66a6,6,0,0,1-2.5,4,7.44,7.44,0,0,1-4.13,1.22,6.9,6.9,0,0,1-5.37-2.43,9.15,9.15,0,0,1-2-6,9.83,9.83,0,0,1,1.25-5.18,6.94,6.94,0,0,1,6.11-3.39,6.52,6.52,0,0,1,4.93,2.08,8.36,8.36,0,0,1,2,5.69Zm-3.75-5.63a3.85,3.85,0,0,0-3.2-1.47c-2.94,0-4.38,2.4-4.45,4.77h8.64A5.67,5.67,0,0,0,701.39,874.79Z"/><path class="cls-3" d="M720.11,887.62V877.35c0-2.43-1-3.87-3.55-3.87A4,4,0,0,0,713,876a10.73,10.73,0,0,0-.58,4.12v7.52h-2.72V871.43h2.37l.23,2.43a5.48,5.48,0,0,1,4.89-2.84c3.68,0,5.6,2.2,5.6,6v10.65Z"/><path class="cls-3" d="M733.62,887.85c-3.49,0-4.45-2.21-4.45-4.39v-9.69H726v-2.34h3.14V867.3l2.72-.63v4.76h4.8v2.34h-4.8v9.37c0,1.57.67,2.21,2.17,2.21a19.82,19.82,0,0,0,2.79-.29v2.34A11.82,11.82,0,0,1,733.62,887.85Z"/><path class="cls-3" d="M751.5,886.21a8.47,8.47,0,0,1-10.52,0,5.19,5.19,0,0,1-1.57-3.71h2.72a3.14,3.14,0,0,0,1.31,2.53,5.1,5.1,0,0,0,2.91.74,4.37,4.37,0,0,0,3-.9,2.28,2.28,0,0,0,.8-1.76c0-1.21-.87-2.08-2.53-2.3-.7-.1-2.53-.32-3.65-.48-2.43-.39-4-1.89-4-4.35a4.63,4.63,0,0,1,1.35-3.17A6.58,6.58,0,0,1,746.1,871a6.45,6.45,0,0,1,5.15,2,4.67,4.67,0,0,1,1.15,3.11h-2.72a2.94,2.94,0,0,0-.93-2,3.78,3.78,0,0,0-2.65-.86,4.2,4.2,0,0,0-1.89.32,2.41,2.41,0,0,0-1.63,2.17c0,1.35.83,1.92,2.17,2.12.9.12,2.18.25,3.91.54a4.61,4.61,0,0,1,2.84,7.77Z"/></g><g id="Guids_and_Grids" data-name="Guids and Grids"><rect class="cls-4" x="191.5" width="1" height="1080"/><path d="M692,849.64h0A15.6,15.6,0,0,1,676.4,834v-15.6h31.2V834A15.6,15.6,0,0,1,692,849.64Z"/><path class="cls-3" d="M692,839.64v-12l-3.3,2.42v-1.9l3.4-2.46h1.64v13.9Z"/><rect class="cls-5" x="1727.5" width="1" height="1080"/><rect class="cls-6" y="971.5" width="1920" height="1"/><rect class="cls-7" y="107.5" width="1920" height="1"/><rect class="cls-8" y="886.95" width="1920" height="1"/><polygon class="cls-3" points="204.31 563.45 204.31 587.45 268.55 587.45 192 707.45 300.31 707.45 300.31 683.45 235.78 683.45 312.32 563.45 204.31 563.45"/><polygon class="cls-3" points="336.62 707.45 432.31 707.45 432.31 683.45 360.56 683.45 360.48 647.45 432.31 647.45 432.31 623.45 360.42 623.45 360.33 587.45 432.31 587.45 432.31 563.45 336.28 563.45 336.62 707.45"/><polygon class="cls-3" points="564.3 683.45 492.31 683.45 492.31 647.45 564.3 647.45 564.3 623.45 492.31 623.45 492.31 587.45 564.3 587.45 564.3 563.45 468.31 563.45 468.31 707.45 564.3 707.45 564.3 683.45"/><polygon class="cls-3" points="336.31 887.45 432.31 887.45 432.31 863.45 360.31 863.45 360.31 827.45 432.31 827.45 432.31 803.45 360.31 803.45 360.31 767.45 432.31 767.45 432.31 743.45 336.31 743.45 336.31 887.45"/><polygon class="cls-3" points="552.3 743.45 552.3 840.68 491.3 743.45 468.31 743.45 468.31 887.45 492.31 887.45 492.31 790.21 553.32 887.45 576.3 887.45 576.3 743.45 552.3 743.45"/><rect class="cls-9" x="959.5" width="1" height="216"/><rect class="cls-10" x="959.5" y="864" width="1" height="216"/><rect class="cls-11" x="1536" y="539.34" width="384" height="1.33"/><rect class="cls-12" y="539.34" width="384" height="1.33"/><rect class="cls-13" x="892.31" y="539.42" width="135.39" height="1"/><rect class="cls-14" x="959.5" y="472.23" width="1" height="135.39"/></g></svg>