<svg xmlns="http://www.w3.org/2000/svg" xmlns:xlink="http://www.w3.org/1999/xlink" viewBox="0 0 1920 1080"><defs><style>.cls-1{fill:#061f6b;}.cls-2{fill:#fff;}.cls-3{fill:url(#linear-gradient);}.cls-4{fill:url(#linear-gradient-2);}.cls-5{fill:url(#linear-gradient-3);}.cls-6{fill:url(#linear-gradient-4);}.cls-7{fill:url(#linear-gradient-5);}.cls-8{fill:url(#linear-gradient-6);}.cls-9{fill:url(#linear-gradient-7);}.cls-10{fill:url(#linear-gradient-8);}.cls-11{fill:url(#linear-gradient-9);}.cls-12{fill:url(#linear-gradient-10);}</style><linearGradient id="linear-gradient" y1="888" x2="1920" y2="888" gradientUnits="userSpaceOnUse"><stop offset="0" stop-color="#fff" stop-opacity="0"/><stop offset="0.51" stop-color="#fff"/><stop offset="1" stop-color="#fff" stop-opacity="0"/></linearGradient><linearGradient id="linear-gradient-2" x1="192" y1="1080" x2="192" y2="0" xlink:href="#linear-gradient"/><linearGradient id="linear-gradient-3" x1="4554.42" y1="16907.57" x2="6474.42" y2="16907.57" gradientTransform="translate(6474.43 17015.57) rotate(180)" xlink:href="#linear-gradient"/><linearGradient id="linear-gradient-4" x1="5238.43" y1="8243.57" x2="6318.43" y2="8243.57" gradientTransform="translate(9971.57 -5238.43) rotate(90)" xlink:href="#linear-gradient"/><linearGradient id="linear-gradient-5" x1="9024" y1="216" x2="9024" gradientTransform="matrix(-1, 0, 0, 1, 9984, 0)" gradientUnits="userSpaceOnUse"><stop offset="0" stop-color="#fff" stop-opacity="0"/><stop offset="1" stop-color="#fff"/></linearGradient><linearGradient id="linear-gradient-6" x1="960" y1="3119.22" x2="960" y2="2903.23" gradientTransform="matrix(1, 0, 0, -1, 0, 3983.22)" xlink:href="#linear-gradient-5"/><linearGradient id="linear-gradient-7" x1="6168" y1="5172" x2="6168" y2="4788" gradientTransform="matrix(0, -1, -1, 0, 6708, 6708)" xlink:href="#linear-gradient-5"/><linearGradient id="linear-gradient-8" x1="3816" y1="-2083.02" x2="3816" y2="-2467.03" gradientTransform="matrix(0, 1, 1, 0, 2467.03, -3276)" xlink:href="#linear-gradient-5"/><linearGradient id="linear-gradient-9" x1="-2617.27" y1="14123.66" x2="-2481.88" y2="14123.66" gradientTransform="translate(3509.58 -13583.74)" xlink:href="#linear-gradient"/><linearGradient id="linear-gradient-10" x1="238.73" y1="19331.66" x2="374.12" y2="19331.66" gradientTransform="translate(20291.66 233.49) rotate(90)" xlink:href="#linear-gradient"/></defs><g id="Background"><rect class="cls-1" width="1920" height="1080"/></g><g id="Guids_and_Grids" data-name="Guids and Grids"><path d="M1427.58,939h0a15.6,15.6,0,0,1-15.6-15.61v-15.6h31.2v15.6A15.6,15.6,0,0,1,1427.58,939Z"/><path class="cls-2" d="M1430.69,926.06v3H1429v-3h-6.38v-1.78l5.28-9.16h1.8l-5.44,9.4H1429v-4.14h1.72v4.14h1.88v1.54Z"/><path d="M1170.18,760.36h0a15.6,15.6,0,0,1-15.61-15.6v-15.6h31.21v15.6A15.6,15.6,0,0,1,1170.18,760.36Z"/><path class="cls-2" d="M1170.21,750.37v-12l-3.3,2.42v-1.9l3.4-2.46H1172v13.9Z"/><path class="cls-2" d="M1423.27,883a4.77,4.77,0,0,1-.56,2.46,4.2,4.2,0,0,1-1.48,1.51,6.44,6.44,0,0,1-2.15.75,14.81,14.81,0,0,1-2.53.21,9.2,9.2,0,0,1-2.59-.32,4.57,4.57,0,0,1-2-1.35l1.08-1.82a4.28,4.28,0,0,0,1.65.83,9.05,9.05,0,0,0,2,.19,8,8,0,0,0,3.52-.61c.81-.4,1.22-.9,1.22-1.5a3.28,3.28,0,0,0-.24-1.07,6.19,6.19,0,0,0-.82-1.47,12.2,12.2,0,0,0-1.55-1.76,17.91,17.91,0,0,0-2.45-1.94l1-2.34a15.42,15.42,0,0,1,4.1,3.65,10.7,10.7,0,0,1,1.33,2.26A5.9,5.9,0,0,1,1423.27,883Z"/><path class="cls-2" d="M1434.06,887.64a4.59,4.59,0,0,1-1.06-.12,2.07,2.07,0,0,1-1-.52,6.24,6.24,0,0,1-.75,2.54,11.5,11.5,0,0,1-1.76,2.4,21.88,21.88,0,0,1-2.58,2.3c-1,.76-2,1.52-3.2,2.29l-1.63-1.57a38.14,38.14,0,0,0,3.42-2.35,25.37,25.37,0,0,0,2.55-2.21,10.76,10.76,0,0,0,1.58-1.93,3.09,3.09,0,0,0,.55-1.57,4.88,4.88,0,0,0-.56-2,28.52,28.52,0,0,0-1.46-2.61l1.66-1.63c.49.88.91,1.61,1.24,2.19a9.53,9.53,0,0,0,.92,1.39,2.64,2.64,0,0,0,.87.72,2.43,2.43,0,0,0,1.07.21h.93v2.47Z"/><path class="cls-2" d="M1444,887.64a5.22,5.22,0,0,1-2.38-.48,3.34,3.34,0,0,1-1.49-1.64,4.14,4.14,0,0,1-1.59,1.6,5,5,0,0,1-2.38.52h-1.31a.66.66,0,0,1-.55-.36,1.7,1.7,0,0,1-.22-.89,1.64,1.64,0,0,1,.22-.88.65.65,0,0,1,.55-.34h1.31a3.75,3.75,0,0,0,2.32-.59,3,3,0,0,0,.85-2.26l0-1.21,1.79-.45a14.23,14.23,0,0,0,.13,2.14,3.44,3.44,0,0,0,.48,1.4,1.9,1.9,0,0,0,1,.75,4.81,4.81,0,0,0,1.61.22h1.25v2.47Zm-5.76,5.85-1.89-1.57,1.38-1.63,1.85,1.57Zm3.81,0-1.86-1.57,1.41-1.63,1.82,1.57Z"/><path class="cls-2" d="M1454.34,882.52a4.72,4.72,0,0,1-.46,2.12,4.92,4.92,0,0,1-1.28,1.62,5.55,5.55,0,0,1-2,1,8.64,8.64,0,0,1-2.55.36h-2.43a.64.64,0,0,1-.54-.36,1.61,1.61,0,0,1-.23-.89,1.55,1.55,0,0,1,.23-.88.64.64,0,0,1,.54-.34h2.59a5.43,5.43,0,0,0,3.14-.75,2.65,2.65,0,0,0,1.21-1.62,4.13,4.13,0,0,0-.43-1.47,7.66,7.66,0,0,0-1.1-1.63,20.94,20.94,0,0,0-1.83-1.87c-.72-.67-1.59-1.41-2.59-2.23a15.19,15.19,0,0,1,.27-1.85,1.28,1.28,0,0,1,.47-.77c.55-.36,1.2-.77,2-1.22s1.54-.9,2.37-1.36l2.57-1.39c.89-.47,1.75-.92,2.58-1.34l-.32,2.59c-1.56.75-3,1.49-4.34,2.22s-2.47,1.42-3.4,2a26.09,26.09,0,0,1,4.2,4.32A6.26,6.26,0,0,1,1454.34,882.52Zm1.41-16q-1.95,1-4.11,2.22t-4.43,2.64l.19-1.66c1.43-.94,2.87-1.82,4.34-2.64s2.86-1.58,4.2-2.26Z"/><path class="cls-2" d="M1475,887.64c-.7,0-1.34,0-1.92,0l-1.21,0a5.5,5.5,0,0,0-1.8.21c-.36.14-.54.29-.54.46a.3.3,0,0,0,.19.29,4.86,4.86,0,0,0,.9.26l2.81.64a3.2,3.2,0,0,1,1.4.64,1.48,1.48,0,0,1,.46,1.15,3,3,0,0,1-.88,2.1,8,8,0,0,1-2.27,1.63,13.07,13.07,0,0,1-3.11,1,15.53,15.53,0,0,1-3.34.37,9.45,9.45,0,0,1-3.09-.48,6.23,6.23,0,0,1-3.89-3.61,7.8,7.8,0,0,1-.54-3,9.29,9.29,0,0,1,.42-2.91,11.61,11.61,0,0,1,1.31-2.69l1.47.7a11.5,11.5,0,0,0-1,2.21,6.81,6.81,0,0,0-.35,2.15,4.87,4.87,0,0,0,1.53,3.79,6.26,6.26,0,0,0,4.35,1.39,14.58,14.58,0,0,0,2.92-.27,13.18,13.18,0,0,0,2.27-.66,7.72,7.72,0,0,0,1.53-.77,3.78,3.78,0,0,0,.77-.6,1.08,1.08,0,0,0-.37-.24,2.9,2.9,0,0,0-.68-.21l-2.66-.64a4.17,4.17,0,0,1-1.54-.69,1.68,1.68,0,0,1-.54-1.39,2.79,2.79,0,0,1,1.28-2.4,7.26,7.26,0,0,1,4.1-.9h2.3v2.47Z"/><path class="cls-2" d="M1483.69,878.64a2.31,2.31,0,0,1,1.5.56,5,5,0,0,1,1.15,1.43,7.52,7.52,0,0,1,.74,1.93,9.26,9.26,0,0,1,.26,2.13,3.1,3.1,0,0,1-.24,1.17,3.75,3.75,0,0,1-.63,1,3.56,3.56,0,0,1-.86.74,1.91,1.91,0,0,1-1,.28,4.42,4.42,0,0,1-1.11-.16,9.17,9.17,0,0,1-1.28-.43,7.92,7.92,0,0,1-1.29-.67,10.82,10.82,0,0,1-1.22-.88,4.44,4.44,0,0,1-1.76,1.47,5.71,5.71,0,0,1-2.21.39h-.51a.64.64,0,0,1-.54-.39,1.6,1.6,0,0,1-.23-.83,1.65,1.65,0,0,1,.23-.86.64.64,0,0,1,.54-.39h.51a5.86,5.86,0,0,0,1.84-.3,2.75,2.75,0,0,0,1.52-1.43c.39-.66.75-1.28,1.11-1.87a11.35,11.35,0,0,1,1.07-1.53,4.87,4.87,0,0,1,1.13-1A2.43,2.43,0,0,1,1483.69,878.64Zm-.26,2.34a1.8,1.8,0,0,0-1.39.85,12.16,12.16,0,0,0-1.3,2.16,7.29,7.29,0,0,0,2.07,1.21,5.18,5.18,0,0,0,1.77.39,1,1,0,0,0,.68-.29.87.87,0,0,0,.32-.64,4.68,4.68,0,0,0-.18-1.26,5.87,5.87,0,0,0-.46-1.2,3,3,0,0,0-.69-.88A1.25,1.25,0,0,0,1483.43,881Z"/><path class="cls-2" d="M1502.89,884.88a6.21,6.21,0,0,1-.64,2.72,11.11,11.11,0,0,1-1.76,2.55,20.44,20.44,0,0,1-2.66,2.41c-1,.79-2.12,1.58-3.29,2.37l-1.64-1.57a39.88,39.88,0,0,0,3.43-2.35,26.32,26.32,0,0,0,2.54-2.21,11.32,11.32,0,0,0,1.59-1.93,3.16,3.16,0,0,0,.54-1.57,3.31,3.31,0,0,0-.16-1,9.74,9.74,0,0,0-.43-1.15c-.18-.41-.4-.82-.64-1.25s-.51-.84-.79-1.25l1.64-1.63a13.25,13.25,0,0,1,1.72,3.12A7.77,7.77,0,0,1,1502.89,884.88Z"/><path class="cls-2" d="M1508.9,887.32l-2.05.48V866.2l2.05-1Z"/><path class="cls-2" d="M1519.88,887.64a4.66,4.66,0,0,1-1.06-.12,2.07,2.07,0,0,1-1-.52,6.24,6.24,0,0,1-.75,2.54,11.15,11.15,0,0,1-1.76,2.4,21.1,21.1,0,0,1-2.58,2.3c-1,.76-2,1.52-3.2,2.29l-1.63-1.57a39.88,39.88,0,0,0,3.43-2.35,26.32,26.32,0,0,0,2.54-2.21,10.76,10.76,0,0,0,1.58-1.93,3.09,3.09,0,0,0,.55-1.57,4.88,4.88,0,0,0-.56-2,28.52,28.52,0,0,0-1.46-2.61l1.67-1.63,1.23,2.19a8.74,8.74,0,0,0,.93,1.39,2.52,2.52,0,0,0,.86.72,2.46,2.46,0,0,0,1.07.21h.93v2.47Z"/><path class="cls-2" d="M1530.37,882a5.35,5.35,0,0,1-1.55,4.22q-1.54,1.38-5,1.38h-3.1a.64.64,0,0,1-.54-.36,1.61,1.61,0,0,1-.23-.89,1.55,1.55,0,0,1,.23-.88.64.64,0,0,1,.54-.34h3.17a7.67,7.67,0,0,0,3.26-.56,2.3,2.3,0,0,0,1.41-1.58,3.33,3.33,0,0,0,0-.37c0-.14,0-.35,0-.62a6.62,6.62,0,0,1-1.6.52,7.35,7.35,0,0,1-1.4.15,3.11,3.11,0,0,1-2.44-.93,3.72,3.72,0,0,1-.83-2.56,6.15,6.15,0,0,1,.29-1.84,5.76,5.76,0,0,1,.8-1.63,4.37,4.37,0,0,1,1.22-1.17,2.77,2.77,0,0,1,1.53-.45,2.72,2.72,0,0,1,2,.79,5.87,5.87,0,0,1,1.29,2,10.87,10.87,0,0,1,.71,2.58A18.78,18.78,0,0,1,1530.37,882Zm-6.17-10.63-1.89-1.57,1.38-1.63,1.85,1.57Zm4.22,8.58a6.24,6.24,0,0,0-.85-2.58,1.91,1.91,0,0,0-1.64-1,1.69,1.69,0,0,0-1.36.75,2.87,2.87,0,0,0-.6,1.84,1.64,1.64,0,0,0,.42,1.12,1.79,1.79,0,0,0,1.41.48,6.19,6.19,0,0,0,1.47-.16A4.54,4.54,0,0,0,1528.42,880Zm-.41-8.58-1.86-1.57,1.41-1.63,1.82,1.57Z"/><path class="cls-2" d="M1543.78,887.64a4.32,4.32,0,0,1-2.38-.55,3.26,3.26,0,0,1-1.25-1.41,5.44,5.44,0,0,1-.48-2c-.05-.75-.09-1.5-.11-2.27,0-1.09-.07-2.27-.08-3.54s0-2.56-.07-3.89-.07-2.65-.11-4-.11-2.61-.19-3.82l2.05-1c.06,1.72.1,3.27.13,4.64s0,2.64,0,3.84,0,2.33,0,3.42,0,2.22.06,3.39c0,.64,0,1.24.08,1.81a5,5,0,0,0,.29,1.47,2.09,2.09,0,0,0,.75,1,2.4,2.4,0,0,0,1.44.37h1v2.47Z"/><path class="cls-2" d="M1561.12,887.64a8.49,8.49,0,0,1-1.71-.15,3.33,3.33,0,0,1-1.28-.54,3.77,3.77,0,0,1-1-1.12,9.49,9.49,0,0,1-.81-1.84c-.84.51-1.6,1-2.29,1.44a17.58,17.58,0,0,1-2.1,1.17,10.81,10.81,0,0,1-2.27.76,12.87,12.87,0,0,1-2.78.28H1545a.64.64,0,0,1-.55-.36,1.61,1.61,0,0,1-.22-.89,1.55,1.55,0,0,1,.22-.88.64.64,0,0,1,.55-.34h2a13.43,13.43,0,0,0,2.88-.25,10.12,10.12,0,0,0,2.13-.74c.67-.32,1.4-.72,2.19-1.18s1.8-1,3-1.6c-.77-.24-1.48-.48-2.14-.74l-1.79-.72-1.38-.56a2.67,2.67,0,0,0-.9-.22,1.9,1.9,0,0,0-1,.41,9,9,0,0,0-1.6,1.6l-1.35-.8c.26-.4.55-.82.87-1.25a10.37,10.37,0,0,1,1-1.16,4.85,4.85,0,0,1,1.08-.85,2.17,2.17,0,0,1,1.11-.32,4.69,4.69,0,0,1,1.82.48l2.43,1c.9.37,1.87.72,2.92,1a10.94,10.94,0,0,0,3.23.48h.64l-.52,2.4a9.74,9.74,0,0,0-2.06.33,10.82,10.82,0,0,0-1.71.63,4.25,4.25,0,0,0,.67,1.13,2.19,2.19,0,0,0,1.62.82c.31,0,.64,0,1,0h2.5v2.47Zm-9.15,6-2-1.66,1.44-1.7,2,1.63Z"/><path class="cls-2" d="M1572.77,887.64a5.22,5.22,0,0,1-2.38-.48,3.34,3.34,0,0,1-1.49-1.64,4.12,4.12,0,0,1-1.58,1.6,5,5,0,0,1-2.39.52h-1.31a.64.64,0,0,1-.54-.36,1.61,1.61,0,0,1-.23-.89,1.55,1.55,0,0,1,.23-.88.64.64,0,0,1,.54-.34h1.31a3.75,3.75,0,0,0,2.32-.59,3,3,0,0,0,.85-2.26l0-1.21,1.79-.45a15.7,15.7,0,0,0,.13,2.14,3.6,3.6,0,0,0,.48,1.4,1.94,1.94,0,0,0,1,.75,4.81,4.81,0,0,0,1.61.22h1.25v2.47ZM1569,878.2l-2-1.67,1.44-1.69,2,1.63Z"/><path class="cls-2" d="M1573.64,893.49l-1.89-1.57,1.37-1.63,1.86,1.57Zm4.86-9.69a4.65,4.65,0,0,0-.38-1.36,10.8,10.8,0,0,0-1.32-2.26l1.64-1.73a8.61,8.61,0,0,1,1.5,2.63,7.44,7.44,0,0,1,.48,2.43,3.82,3.82,0,0,1-1.23,3.07,5.82,5.82,0,0,1-3.83,1.06h-1a.64.64,0,0,1-.54-.36,1.61,1.61,0,0,1-.23-.89,1.55,1.55,0,0,1,.23-.88.64.64,0,0,1,.54-.34h1a6.48,6.48,0,0,0,2.17-.32Q1578.5,884.54,1578.5,883.8Zm-1.06,9.69-1.85-1.57,1.41-1.63,1.82,1.57Z"/><path class="cls-2" d="M1586.44,887.32l-2,.48V866.2l2-1Z"/><path class="cls-2" d="M1602.18,884.88a6.07,6.07,0,0,1-.64,2.72,10.8,10.8,0,0,1-1.76,2.55,20.44,20.44,0,0,1-2.66,2.41c-1,.79-2.12,1.58-3.29,2.37l-1.63-1.57a38.14,38.14,0,0,0,3.42-2.35,26.32,26.32,0,0,0,2.54-2.21,10.86,10.86,0,0,0,1.59-1.93,3.16,3.16,0,0,0,.54-1.57,3.31,3.31,0,0,0-.16-1,9.74,9.74,0,0,0-.43-1.15c-.18-.41-.4-.82-.64-1.25s-.51-.84-.78-1.25l1.63-1.63a13.32,13.32,0,0,1,1.73,3.12A8,8,0,0,1,1602.18,884.88Z"/><path class="cls-2" d="M1616.83,883a4.77,4.77,0,0,1-.56,2.46,4.12,4.12,0,0,1-1.48,1.51,6.44,6.44,0,0,1-2.15.75,14.81,14.81,0,0,1-2.53.21,9.2,9.2,0,0,1-2.59-.32,4.57,4.57,0,0,1-2-1.35l1.09-1.82a4.18,4.18,0,0,0,1.64.83,9.12,9.12,0,0,0,2,.19,8,8,0,0,0,3.52-.61c.82-.4,1.22-.9,1.22-1.5a3.28,3.28,0,0,0-.24-1.07,6.48,6.48,0,0,0-.81-1.47,13,13,0,0,0-1.56-1.76,17.76,17.76,0,0,0-2.44-1.94l1-2.34a15.81,15.81,0,0,1,2.19,1.62,14.48,14.48,0,0,1,1.9,2,10.29,10.29,0,0,1,1.33,2.26A5.9,5.9,0,0,1,1616.83,883Z"/><path class="cls-2" d="M1634.34,887.64a4.66,4.66,0,0,1-1.06-.12,2.07,2.07,0,0,1-1-.52,6.24,6.24,0,0,1-.75,2.54,11.15,11.15,0,0,1-1.76,2.4,21.1,21.1,0,0,1-2.58,2.3c-1,.76-2,1.52-3.2,2.29L1622.4,895a39.88,39.88,0,0,0,3.43-2.35,26.32,26.32,0,0,0,2.54-2.21,10.76,10.76,0,0,0,1.58-1.93,3.09,3.09,0,0,0,.55-1.57,4.88,4.88,0,0,0-.56-2,28.52,28.52,0,0,0-1.46-2.61l1.67-1.63,1.23,2.19a8.74,8.74,0,0,0,.93,1.39,2.52,2.52,0,0,0,.86.72,2.46,2.46,0,0,0,1.07.21h.93v2.47Z"/><path class="cls-2" d="M1644.32,887.64a5.22,5.22,0,0,1-2.38-.48,3.34,3.34,0,0,1-1.49-1.64,4.12,4.12,0,0,1-1.58,1.6,5,5,0,0,1-2.39.52h-1.31a.64.64,0,0,1-.54-.36,1.61,1.61,0,0,1-.23-.89,1.55,1.55,0,0,1,.23-.88.64.64,0,0,1,.54-.34h1.31a3.75,3.75,0,0,0,2.32-.59,3,3,0,0,0,.85-2.26l0-1.21,1.79-.45a15.7,15.7,0,0,0,.13,2.14,3.6,3.6,0,0,0,.48,1.4,1.94,1.94,0,0,0,1,.75,4.81,4.81,0,0,0,1.61.22h1.25v2.47Zm-5.69-9.44-1.89-1.57,1.37-1.63,1.86,1.56Zm3.8,0-1.85-1.57L1642,875l1.82,1.56Z"/><path class="cls-2" d="M1655.07,887.64a5.22,5.22,0,0,1-2.38-.48,3.34,3.34,0,0,1-1.49-1.64,4.12,4.12,0,0,1-1.58,1.6,5,5,0,0,1-2.39.52h-1.31a.64.64,0,0,1-.54-.36,1.61,1.61,0,0,1-.23-.89,1.55,1.55,0,0,1,.23-.88.64.64,0,0,1,.54-.34h1.31a3.75,3.75,0,0,0,2.32-.59,3,3,0,0,0,.85-2.26l0-1.21,1.8-.45a15.9,15.9,0,0,0,.12,2.14,3.6,3.6,0,0,0,.48,1.4,1.94,1.94,0,0,0,1,.75,4.87,4.87,0,0,0,1.62.22h1.24v2.47Zm-5.76,5.85-1.88-1.57,1.37-1.63,1.86,1.57Zm3.81,0-1.85-1.57,1.4-1.63,1.83,1.57Z"/><path class="cls-2" d="M1660.8,883.8a4.65,4.65,0,0,0-.38-1.36,11.16,11.16,0,0,0-1.31-2.26l1.63-1.73a8.61,8.61,0,0,1,1.5,2.63,7.44,7.44,0,0,1,.48,2.43,3.82,3.82,0,0,1-1.23,3.07,5.81,5.81,0,0,1-3.82,1.06h-1a.64.64,0,0,1-.54-.36,1.61,1.61,0,0,1-.22-.89,1.55,1.55,0,0,1,.22-.88.64.64,0,0,1,.54-.34h1a6.48,6.48,0,0,0,2.17-.32Q1660.8,884.54,1660.8,883.8Zm-2-7.84-1.88-1.57,1.37-1.63,1.86,1.56Zm3.81,0-1.85-1.57,1.4-1.63,1.83,1.56Z"/><path class="cls-2" d="M1673.15,883c0,1,.67,1.77,2,2.19a21.23,21.23,0,0,0,5.88.62q1.4,0,2.88-.09c1-.07,1.93-.15,2.86-.26s1.79-.23,2.59-.38a16.1,16.1,0,0,0,2.1-.52,6.58,6.58,0,0,0,1.81-.84,2,2,0,0,0,.59-.66,6.2,6.2,0,0,0-.39-1.26,10.48,10.48,0,0,0-1.28-2.16l1.67-1.73a9,9,0,0,1,1.37,2.51,7.23,7.23,0,0,1,.45,2.35,3.32,3.32,0,0,1-.49,1.83,4.57,4.57,0,0,1-1.3,1.29,7.75,7.75,0,0,1-1.83.87,15.26,15.26,0,0,1-2,.52c-.71.18-1.47.32-2.31.45s-1.67.24-2.52.32-1.69.15-2.5.18-1.53,0-2.14,0c-1.2,0-2.35,0-3.46-.15a10.67,10.67,0,0,1-3-.64,4.78,4.78,0,0,1-2.07-1.47,4.11,4.11,0,0,1-.76-2.61,7.26,7.26,0,0,1,.22-1.6,7.69,7.69,0,0,1,.8-2l1.47.57a10.7,10.7,0,0,0-.51,1.51A5.3,5.3,0,0,0,1673.15,883Zm9.89,11-2-1.66,1.44-1.7,2,1.63Z"/><path class="cls-2" d="M1704.29,887.64a4.36,4.36,0,0,1-2.39-.55,3.24,3.24,0,0,1-1.24-1.41,5.44,5.44,0,0,1-.48-2c-.06-.75-.09-1.5-.12-2.27,0-1.09-.06-2.27-.08-3.54s0-2.56-.06-3.89-.07-2.65-.11-4-.11-2.61-.19-3.82l2.05-1c.06,1.72.1,3.27.12,4.64s0,2.64,0,3.84,0,2.33,0,3.42,0,2.22.06,3.39c0,.64,0,1.24.08,1.81a4.73,4.73,0,0,0,.29,1.47,2.09,2.09,0,0,0,.75,1,2.4,2.4,0,0,0,1.44.37h1v2.47Z"/><path class="cls-2" d="M1718.3,885.46a4.18,4.18,0,0,1-1.5,1.63,4.41,4.41,0,0,1-2.34.55,4.72,4.72,0,0,1-2.28-.47,3.43,3.43,0,0,1-1.4-1.68,4.08,4.08,0,0,1-1.55,1.63,4.15,4.15,0,0,1-2.06.52h-1.67a.64.64,0,0,1-.54-.36,1.61,1.61,0,0,1-.22-.89,1.55,1.55,0,0,1,.22-.88.64.64,0,0,1,.54-.34H1707a3.59,3.59,0,0,0,2.08-.57,2.47,2.47,0,0,0,.9-2v-1.47l1.79-.45a14.23,14.23,0,0,0,.13,2.14,3.79,3.79,0,0,0,.44,1.4,1.89,1.89,0,0,0,.84.75,4,4,0,0,0,3.53-.45,3.33,3.33,0,0,0,.75-2.3v-1.09l1.8-.45a7.73,7.73,0,0,0,.57,3.49,2.19,2.19,0,0,0,2.08,1,3.59,3.59,0,0,0,.79-.08,2.84,2.84,0,0,0,.73-.24,1.45,1.45,0,0,0,.55-.41,1,1,0,0,0,.2-.61,4.25,4.25,0,0,0-.4-1.39,11.26,11.26,0,0,0-1.32-2.26l1.66-1.73a8.61,8.61,0,0,1,1.5,2.63,7.44,7.44,0,0,1,.48,2.43,3.84,3.84,0,0,1-1.23,3,4.39,4.39,0,0,1-3.05,1.11,4.06,4.06,0,0,1-2.24-.55A3.34,3.34,0,0,1,1718.3,885.46Z"/><path class="cls-2" d="M1174.9,815.43a10,10,0,0,1-1,4.65,7.36,7.36,0,0,1-2.55,2.8,9.67,9.67,0,0,1-3.75,1.34,28.55,28.55,0,0,1-4.51.34,14,14,0,0,1-4.65-.7,10.65,10.65,0,0,1-3.92-2.72l2.8-4.87a9.49,9.49,0,0,0,2.69,1.4,11,11,0,0,0,3.36.45,15.71,15.71,0,0,0,5.07-.65c1.21-.43,1.82-1,1.82-1.65,0-.93-.67-2.2-2-3.81a31.06,31.06,0,0,0-6.61-5.43l2.53-6a29.17,29.17,0,0,1,3.89,2.83,24.42,24.42,0,0,1,3.44,3.61,19.09,19.09,0,0,1,2.44,4.12A10.86,10.86,0,0,1,1174.9,815.43Z"/><path class="cls-2" d="M1194.67,824a11.21,11.21,0,0,1-1.79-.14,3.29,3.29,0,0,1-1.57-.76,11.81,11.81,0,0,1-1.46,4.34,20.64,20.64,0,0,1-3,4.06,35.67,35.67,0,0,1-4.34,3.87c-1.66,1.26-3.45,2.51-5.35,3.75l-4.31-4.09c2.05-1.23,3.94-2.46,5.65-3.7a42.38,42.38,0,0,0,4.37-3.53,19.42,19.42,0,0,0,2.8-3.13,4.74,4.74,0,0,0,1-2.58,8.39,8.39,0,0,0-1-3.22,34,34,0,0,0-2.57-4.39l4.25-4.26c.79,1.35,1.47,2.48,2.05,3.42a21.37,21.37,0,0,0,1.59,2.27,5.47,5.47,0,0,0,1.46,1.26,3.37,3.37,0,0,0,1.62.39h2.24V824Z"/><path class="cls-2" d="M1212,824a9.12,9.12,0,0,1-3.81-.73,6.29,6.29,0,0,1-2.63-2.41,7.19,7.19,0,0,1-2.8,2.38,9.44,9.44,0,0,1-4,.76h-2.41c-.41,0-.74-.29-1-.87a5.76,5.76,0,0,1-.39-2.33,6,6,0,0,1,.39-2.35c.27-.59.6-.89,1-.89h2.3a16.35,16.35,0,0,0,2.32-.14,3.51,3.51,0,0,0,1.51-.56,2.34,2.34,0,0,0,.87-1.18,6.5,6.5,0,0,0,.34-1.93V811.4l4.65-1.18a33.76,33.76,0,0,0,.14,3.47A6.46,6.46,0,0,0,1209,816a2.57,2.57,0,0,0,1.29,1.23,5.78,5.78,0,0,0,2.3.37h2.63V824Zm-10.13,11.25-4.09-3.47,3.25-3.86,4.14,3.41Zm7.16,0-4.08-3.47,3.24-3.86,4.09,3.41Z"/><path class="cls-2" d="M1230.9,814.42a9.64,9.64,0,0,1-.81,4,8.46,8.46,0,0,1-2.27,3,10,10,0,0,1-3.5,1.87,14.93,14.93,0,0,1-4.51.65h-4.59c-.41,0-.75-.29-1-.87a5.76,5.76,0,0,1-.39-2.33,6,6,0,0,1,.39-2.35c.26-.59.6-.89,1-.89h4.87a10.48,10.48,0,0,0,4.29-.68,4.14,4.14,0,0,0,2-1.67,10,10,0,0,0-2.88-4.88,58.1,58.1,0,0,0-7.25-6,30.55,30.55,0,0,1,.53-4,3,3,0,0,1,.92-1.79q1.86-1.23,4.12-2.55t4.65-2.6q2.37-1.29,4.7-2.47t4.29-2.12l-.84,6.77c-2.43,1.09-4.65,2.15-6.67,3.2s-3.92,2.1-5.71,3.19Q1230.91,808.77,1230.9,814.42Zm2.41-26.93q-3.58,1.78-7.56,4t-8.4,5l.5-4q4.37-2.85,8.35-5.1c2.65-1.49,5.2-2.85,7.67-4.08Z"/><path class="cls-2" d="M1266,824c-1.31,0-2.52-.1-3.62-.17s-1.87-.11-2.32-.11a4.09,4.09,0,0,0-1.6.22c-.31.15-.47.32-.47.51a.47.47,0,0,0,.22.42,4,4,0,0,0,1,.3l3.81.73a6.74,6.74,0,0,1,2.77,1.06,2.7,2.7,0,0,1,1,2.3,6.19,6.19,0,0,1-1.48,4,12.24,12.24,0,0,1-3.84,3,22.08,22.08,0,0,1-5.26,1.9,25.34,25.34,0,0,1-5.72.67,16.45,16.45,0,0,1-5.4-.84,11.43,11.43,0,0,1-4.14-2.43,10.84,10.84,0,0,1-2.66-4,14.67,14.67,0,0,1-1-5.52,15.56,15.56,0,0,1,.84-5.26,29.39,29.39,0,0,1,2.47-5.1l4,1.63a24.22,24.22,0,0,0-1.84,4.37,11.87,11.87,0,0,0-.56,3.36,6.84,6.84,0,0,0,2.26,5.51q2.28,1.93,6.58,1.94a24.56,24.56,0,0,0,3.62-.26,27.52,27.52,0,0,0,3.08-.61,20.71,20.71,0,0,0,2.38-.79c.67-.28,1.19-.51,1.56-.7a4.18,4.18,0,0,0-1.79-.56l-2.91-.61a6.41,6.41,0,0,1-2.94-1.29,3.85,3.85,0,0,1-1.15-3.14,6.09,6.09,0,0,1,2.49-5.2c1.66-1.24,4.25-1.85,7.76-1.85h3.64V824Z"/><path class="cls-2" d="M1280.91,806.8a4.82,4.82,0,0,1,3,1,8.27,8.27,0,0,1,2.24,2.57,13.6,13.6,0,0,1,1.43,3.56,15.66,15.66,0,0,1,.51,4,6.39,6.39,0,0,1-.45,2.3,8.49,8.49,0,0,1-1.18,2.13,6.29,6.29,0,0,1-1.68,1.54,3.7,3.7,0,0,1-2,.59,8.85,8.85,0,0,1-2-.26,17.61,17.61,0,0,1-2.24-.67,16.26,16.26,0,0,1-2.26-1,17.3,17.3,0,0,1-2.08-1.35,7.83,7.83,0,0,1-2.91,2.24,9.84,9.84,0,0,1-3.7.62h-.89c-.41,0-.75-.33-1-1a5.8,5.8,0,0,1-.39-2.16,6.4,6.4,0,0,1,.39-2.27c.26-.69.6-1,1-1h.67a12.08,12.08,0,0,0,2.91-.34,3.35,3.35,0,0,0,2.19-1.73c.59-1.12,1.21-2.21,1.85-3.25a20.65,20.65,0,0,1,2-2.78,10.35,10.35,0,0,1,2.16-1.93A4.39,4.39,0,0,1,1280.91,806.8Zm-.56,5.94a2.52,2.52,0,0,0-1.74,1,10.29,10.29,0,0,0-1.73,2.75,8.34,8.34,0,0,0,1.28.84,12.36,12.36,0,0,0,1.49.67,8.71,8.71,0,0,0,1.48.42,7.21,7.21,0,0,0,1.29.14,1.6,1.6,0,0,0,.73-.22,1.06,1.06,0,0,0,.5-.51,6.05,6.05,0,0,0-.25-1.71,6.39,6.39,0,0,0-.73-1.62,5.18,5.18,0,0,0-1.06-1.23A2,2,0,0,0,1280.35,812.74Z"/><path class="cls-2" d="M1318.2,818.51a11.4,11.4,0,0,1-1.12,5,19.39,19.39,0,0,1-3,4.57,35.57,35.57,0,0,1-4.56,4.26c-1.76,1.38-3.66,2.72-5.72,4l-4.31-4.09c2.06-1.23,3.94-2.47,5.66-3.7a43.49,43.49,0,0,0,4.37-3.53,20.91,20.91,0,0,0,2.8-3.13,3.8,3.8,0,0,0,.72-4,15.54,15.54,0,0,0-.75-1.91,20.47,20.47,0,0,0-1.15-2.13c-.45-.72-.92-1.44-1.4-2.15l4.2-4.2a26,26,0,0,1,3.33,6.13A14.79,14.79,0,0,1,1318.2,818.51Z"/><path class="cls-2" d="M1330.19,823.1l-5.27,1.18v-37l5.27-2.52Z"/><path class="cls-2" d="M1350.18,824a11.43,11.43,0,0,1-1.8-.14,3.3,3.3,0,0,1-1.56-.76,12,12,0,0,1-1.46,4.34,20.64,20.64,0,0,1-3,4.06,35.67,35.67,0,0,1-4.34,3.87q-2.51,1.89-5.35,3.75l-4.31-4.09c2.05-1.23,3.94-2.46,5.65-3.7a42.38,42.38,0,0,0,4.37-3.53,19.42,19.42,0,0,0,2.8-3.13,4.74,4.74,0,0,0,1-2.58,8.39,8.39,0,0,0-1-3.22,33,33,0,0,0-2.58-4.39l4.26-4.26c.78,1.35,1.47,2.48,2,3.42a21.28,21.28,0,0,0,1.6,2.27,5.47,5.47,0,0,0,1.46,1.26,3.35,3.35,0,0,0,1.62.39h2.24V824Z"/><path class="cls-2" d="M1361.21,798.35a5.51,5.51,0,0,1,3.78,1.37,10,10,0,0,1,2.46,3.47,18.25,18.25,0,0,1,1.32,4.68,33.32,33.32,0,0,1,.39,5q0,5.88-2.77,8.52t-9,2.63h-5.6c-.41,0-.75-.29-1-.87a5.76,5.76,0,0,1-.39-2.33,6,6,0,0,1,.39-2.35c.26-.59.6-.89,1-.89h5.71a19.12,19.12,0,0,0,4.12-.45,4.43,4.43,0,0,0,2.77-1.46,1.39,1.39,0,0,0,.2-.73c0-.33,0-.8,0-1.39a11.94,11.94,0,0,1-2.46.58,16.07,16.07,0,0,1-2,.14q-6.27,0-6.27-6.6a10.66,10.66,0,0,1,.56-3.36,11.41,11.41,0,0,1,1.51-3,7.77,7.77,0,0,1,2.3-2.13A5.64,5.64,0,0,1,1361.21,798.35Zm-3.87-3.53-4.08-3.41,3.24-3.87,4.15,3.36Zm3.31,9.07a2.39,2.39,0,0,0-2,1,3.43,3.43,0,0,0-.79,2.13,1.84,1.84,0,0,0,.62,1.37,2.87,2.87,0,0,0,2,.59,10.39,10.39,0,0,0,2.07-.2,8,8,0,0,0,1.57-.47,7.41,7.41,0,0,0-1.29-3.17A2.77,2.77,0,0,0,1360.65,803.89Zm3.86-9.07-4.09-3.41,3.25-3.87,4.09,3.36Z"/><path class="cls-2" d="M1394.75,824a7.91,7.91,0,0,1-4.2-1,6.78,6.78,0,0,1-2.41-2.58,11,11,0,0,1-1.12-3.64,37.83,37.83,0,0,1-.33-4.17c-.08-1.72-.13-3.64-.17-5.77s-.08-4.31-.14-6.55-.13-4.48-.22-6.72-.22-4.33-.37-6.27l5.21-2.52q0,3.13,0,6.46c0,2.23,0,4.44.11,6.64s.11,4.39.17,6.55.1,4.22.14,6.16c0,.9,0,1.77,0,2.61a7.92,7.92,0,0,0,.4,2.24A3.09,3.09,0,0,0,1393,817a3.81,3.81,0,0,0,2.27.56h2.24V824Z"/><path class="cls-2" d="M1424.77,824a17.4,17.4,0,0,1-3-.23,5.79,5.79,0,0,1-2.24-.86,6.53,6.53,0,0,1-1.74-1.83,13.78,13.78,0,0,1-1.45-3.13l-3.67,2.43a28.13,28.13,0,0,1-3.33,1.91,17.68,17.68,0,0,1-3.56,1.26,18.73,18.73,0,0,1-4.34.45h-4c-.42,0-.75-.29-1-.87a5.76,5.76,0,0,1-.39-2.33,6,6,0,0,1,.39-2.35c.26-.59.59-.89,1-.89h4.14a24.42,24.42,0,0,0,3.89-.26,13.66,13.66,0,0,0,3-.84,27.75,27.75,0,0,0,3.16-1.51c1.12-.61,2.54-1.37,4.26-2.26l-2.55-.79-2.33-.73c-.71-.22-1.32-.41-1.85-.56a4.62,4.62,0,0,0-1.17-.22,2.9,2.9,0,0,0-1.46.53,12.64,12.64,0,0,0-2.4,2.44l-3.59-2.07a24.09,24.09,0,0,1,3.53-4.93,5.36,5.36,0,0,1,3.81-2,10.14,10.14,0,0,1,3.25.65l4.06,1.39q2.21.76,4.73,1.41a21.84,21.84,0,0,0,5.32.64h1.79l-1.23,5.71a18.32,18.32,0,0,0-3.17.39,14.52,14.52,0,0,0-2.77.9,9.26,9.26,0,0,0,.93,1.23,2.51,2.51,0,0,0,.89.64,3,3,0,0,0,1.06.23c.4,0,.85,0,1.38,0h5.49V824Zm-15.07,11.08-4.25-3.63,3.41-4,4.26,3.59Z"/><path class="cls-2" d="M1445.38,824a9.05,9.05,0,0,1-3.81-.73,6.18,6.18,0,0,1-2.63-2.41,7.22,7.22,0,0,1-2.81,2.38,9.41,9.41,0,0,1-4,.76h-2.4c-.41,0-.75-.29-1-.87a5.74,5.74,0,0,1-.4-2.33,6,6,0,0,1,.4-2.35c.26-.59.6-.89,1-.89H1432a16.61,16.61,0,0,0,2.33-.14,3.56,3.56,0,0,0,1.51-.56,2.46,2.46,0,0,0,.87-1.18,6.87,6.87,0,0,0,.33-1.93V811.4l4.65-1.18c0,1.38,0,2.54.14,3.47a6.24,6.24,0,0,0,.59,2.27,2.53,2.53,0,0,0,1.29,1.23,5.69,5.69,0,0,0,2.29.37h2.63V824Zm-6.33-16.8-4.26-3.59,3.42-4,4.25,3.59Z"/><path class="cls-2" d="M1446.94,835.25l-4.09-3.47,3.25-3.86,4.15,3.41Zm8.74-19.21a3,3,0,0,0-.25-.95,11.42,11.42,0,0,0-.73-1.42c-.32-.55-.67-1.12-1.07-1.71s-.81-1.18-1.25-1.74l4.2-4.42a17.93,17.93,0,0,1,3.13,5.18,13.72,13.72,0,0,1,1,4.78,8,8,0,0,1-2.24,6.14q-2.24,2.1-6.89,2.1h-3c-.41,0-.74-.29-1-.87a5.58,5.58,0,0,1-.4-2.33,5.77,5.77,0,0,1,.4-2.35c.26-.59.59-.89,1-.89h3a9.65,9.65,0,0,0,3-.37C1455.31,817,1455.68,816.57,1455.68,816Zm-1.57,19.21-4.09-3.47,3.25-3.86,4.09,3.41Z"/><path class="cls-2" d="M1472.65,823.1l-5.27,1.18v-37l5.27-2.52Z"/><path class="cls-2" d="M1503,818.51a11.55,11.55,0,0,1-1.12,5,19.7,19.7,0,0,1-3.05,4.57,35,35,0,0,1-4.57,4.26c-1.75,1.38-3.66,2.72-5.71,4l-4.31-4.09c2-1.23,3.94-2.47,5.65-3.7a42.38,42.38,0,0,0,4.37-3.53,19.85,19.85,0,0,0,2.8-3.13,4.74,4.74,0,0,0,1-2.58,4.69,4.69,0,0,0-.28-1.42A17.54,17.54,0,0,0,1497,816a20.32,20.32,0,0,0-1.14-2.13c-.45-.72-.92-1.44-1.4-2.15l4.2-4.2a26.76,26.76,0,0,1,3.33,6.13A15.05,15.05,0,0,1,1503,818.51Z"/><path class="cls-2" d="M1528.92,815.43a9.86,9.86,0,0,1-1,4.65,7.2,7.2,0,0,1-2.55,2.8,9.67,9.67,0,0,1-3.75,1.34,28.42,28.42,0,0,1-4.5.34,14,14,0,0,1-4.65-.7,10.49,10.49,0,0,1-3.92-2.72l2.8-4.87a9.31,9.31,0,0,0,2.68,1.4,11.13,11.13,0,0,0,3.37.45,15.68,15.68,0,0,0,5.06-.65c1.22-.43,1.82-1,1.82-1.65q0-1.4-2-3.81a31.58,31.58,0,0,0-6.61-5.43l2.52-6a28.54,28.54,0,0,1,3.89,2.83,23.43,23.43,0,0,1,3.44,3.61,19.09,19.09,0,0,1,2.44,4.12A10.68,10.68,0,0,1,1528.92,815.43Z"/><path class="cls-2" d="M1574.12,824c-1.31,0-2.52-.1-3.62-.17s-1.87-.11-2.32-.11a4.09,4.09,0,0,0-1.6.22c-.31.15-.47.32-.47.51a.47.47,0,0,0,.22.42,4,4,0,0,0,1,.3l3.81.73a6.74,6.74,0,0,1,2.77,1.06,2.7,2.7,0,0,1,1,2.3,6.14,6.14,0,0,1-1.48,4,12.24,12.24,0,0,1-3.84,3,22.08,22.08,0,0,1-5.26,1.9,25.27,25.27,0,0,1-5.72.67,16.45,16.45,0,0,1-5.4-.84,11.43,11.43,0,0,1-4.14-2.43,10.84,10.84,0,0,1-2.66-4,14.67,14.67,0,0,1-1-5.52,15.56,15.56,0,0,1,.84-5.26,30.13,30.13,0,0,1,2.47-5.1l4,1.63a25,25,0,0,0-1.84,4.37,11.87,11.87,0,0,0-.56,3.36,6.84,6.84,0,0,0,2.26,5.51q2.28,1.93,6.58,1.94a24.56,24.56,0,0,0,3.62-.26,27.07,27.07,0,0,0,3.08-.61,20.71,20.71,0,0,0,2.38-.79c.67-.28,1.19-.51,1.56-.7a4.18,4.18,0,0,0-1.79-.56l-2.91-.61a6.46,6.46,0,0,1-2.94-1.29,3.85,3.85,0,0,1-1.15-3.14,6.09,6.09,0,0,1,2.49-5.2c1.67-1.24,4.25-1.85,7.76-1.85h3.64V824Z"/><path class="cls-2" d="M1588.06,824a6.49,6.49,0,0,1-3.39-.79,5.72,5.72,0,0,1-2.1-2.18,6.54,6.54,0,0,1-5.65,3h-2c-.41,0-.75-.28-1-.84a5.57,5.57,0,0,1-.39-2.3,6,6,0,0,1,.39-2.35c.26-.6.6-.9,1-.9h1.46c1.56,0,2.6-.31,3.1-1a4.7,4.7,0,0,0,.76-3c0-.33,0-1.06,0-2.18s0-2.74-.08-4.84-.1-4.75-.17-7.93-.17-7-.28-11.42l5.26-2.52v24.81c0,1.49,0,2.75.14,3.77a9.16,9.16,0,0,0,.51,2.47,2.59,2.59,0,0,0,1.06,1.34,3.64,3.64,0,0,0,1.88.42h2.13V824Z"/><path class="cls-2" d="M1627.88,813a9.14,9.14,0,0,1-1.38,5.13,10.47,10.47,0,0,1-3.64,3.41,16.73,16.73,0,0,1-5.2,1.91,31.11,31.11,0,0,1-6.08.59h-4.2a13.19,13.19,0,0,1-4.76-.67,5.91,5.91,0,0,1-2.74-2.47,7,7,0,0,1-2.67,2.38,7.08,7.08,0,0,1-3.21.76h-3.37c-.41,0-.74-.29-1-.87a5.76,5.76,0,0,1-.39-2.33,6,6,0,0,1,.39-2.35c.26-.59.59-.89,1-.89h3.14a6.19,6.19,0,0,0,2.91-.65,2.44,2.44,0,0,0,1.29-2.26V811.4l4.65-1.18a37.09,37.09,0,0,0,.25,4.7,3.1,3.1,0,0,0,1.32,2.53q1.45-2,3.36-4.18a40.12,40.12,0,0,1,4-3.94,22.66,22.66,0,0,1,4.34-3,9.7,9.7,0,0,1,4.43-1.14,7.46,7.46,0,0,1,2.88.56,7.33,7.33,0,0,1,2.41,1.57,7.46,7.46,0,0,1,1.65,2.43A7.92,7.92,0,0,1,1627.88,813Zm-5.27,1a2.46,2.46,0,0,0-1-1.85,3.9,3.9,0,0,0-2.6-.83,8,8,0,0,0-4.2,1.56,34.32,34.32,0,0,0-5.77,5.15h3.36a27.3,27.3,0,0,0,3.41-.22,16.94,16.94,0,0,0,3.31-.73,8.06,8.06,0,0,0,2.49-1.26A2.24,2.24,0,0,0,1622.61,814Z"/><path class="cls-2" d="M1639.8,823.1l-5.26,1.18v-37l5.26-2.52Z"/><path class="cls-2" d="M1673.23,824a11.3,11.3,0,0,1-1.79-.14,3.33,3.33,0,0,1-1.57-.76,11.79,11.79,0,0,1-1.45,4.34,21.11,21.11,0,0,1-3,4.06,35.67,35.67,0,0,1-4.34,3.87q-2.49,1.89-5.34,3.75l-4.32-4.09c2.06-1.23,3.94-2.46,5.66-3.7a43.49,43.49,0,0,0,4.37-3.53,20.43,20.43,0,0,0,2.8-3.13,4.74,4.74,0,0,0,1-2.58,8.39,8.39,0,0,0-1-3.22,34.13,34.13,0,0,0-2.58-4.39l4.26-4.26c.78,1.35,1.46,2.48,2,3.42a19.93,19.93,0,0,0,1.6,2.27,5.44,5.44,0,0,0,1.45,1.26,3.41,3.41,0,0,0,1.63.39h2.24V824Z"/><path class="cls-2" d="M1690.54,824a9.05,9.05,0,0,1-3.81-.73,6.23,6.23,0,0,1-2.63-2.41,7.26,7.26,0,0,1-2.8,2.38,9.49,9.49,0,0,1-4,.76h-2.4c-.41,0-.75-.29-1-.87a5.76,5.76,0,0,1-.39-2.33,6,6,0,0,1,.39-2.35c.26-.59.6-.89,1-.89h2.29a16.61,16.61,0,0,0,2.33-.14,3.56,3.56,0,0,0,1.51-.56,2.46,2.46,0,0,0,.87-1.18,6.53,6.53,0,0,0,.33-1.93V811.4l4.65-1.18c0,1.38.05,2.54.14,3.47a6.24,6.24,0,0,0,.59,2.27,2.57,2.57,0,0,0,1.29,1.23,5.73,5.73,0,0,0,2.29.37h2.64V824Zm-9.92-16.8-4.08-3.42,3.25-3.86,4.14,3.36Zm7.17,0-4.08-3.42,3.24-3.86,4.09,3.36Z"/><path class="cls-2" d="M1709.46,824a9,9,0,0,1-3.8-.73,6.26,6.26,0,0,1-2.64-2.41,7.12,7.12,0,0,1-2.8,2.38,9.41,9.41,0,0,1-4,.76h-2.41c-.41,0-.74-.29-1-.87a5.74,5.74,0,0,1-.4-2.33,6,6,0,0,1,.4-2.35c.26-.59.59-.89,1-.89h2.3a16.35,16.35,0,0,0,2.32-.14,3.6,3.6,0,0,0,1.52-.56,2.38,2.38,0,0,0,.86-1.18,6.5,6.5,0,0,0,.34-1.93V811.4l4.65-1.18a33.76,33.76,0,0,0,.14,3.47,6.24,6.24,0,0,0,.59,2.27,2.51,2.51,0,0,0,1.28,1.23,5.78,5.78,0,0,0,2.3.37h2.63V824Zm-10.13,11.25-4.09-3.47,3.25-3.86,4.14,3.41Zm7.17,0-4.09-3.47,3.25-3.86,4.08,3.41Z"/><path class="cls-2" d="M1719.77,816a3,3,0,0,0-.25-.95,13,13,0,0,0-.73-1.42c-.32-.55-.67-1.12-1.07-1.71a21.36,21.36,0,0,0-1.26-1.74l4.2-4.42a17.75,17.75,0,0,1,3.14,5.18,13.72,13.72,0,0,1,1,4.78,8,8,0,0,1-2.24,6.14c-1.5,1.4-3.79,2.1-6.89,2.1h-3c-.41,0-.74-.29-1-.87a5.76,5.76,0,0,1-.39-2.33,6,6,0,0,1,.39-2.35c.27-.59.6-.89,1-.89h3a9.65,9.65,0,0,0,3-.37C1719.39,817,1719.77,816.57,1719.77,816Zm-3.87-13.21-4.08-3.42,3.24-3.86,4.15,3.36Zm7.17,0-4.09-3.42,3.25-3.86,4.09,3.36Z"/><rect class="cls-3" y="887.5" width="1920" height="1"/><rect class="cls-4" x="191.5" width="1" height="1080"/><rect class="cls-5" y="107.5" width="1920" height="1"/><rect class="cls-6" x="1727.5" width="1" height="1080"/><rect class="cls-7" x="959.5" width="1" height="216"/><rect class="cls-8" x="959.5" y="864" width="1" height="216"/><rect class="cls-9" x="1536" y="539.34" width="384" height="1.33"/><rect class="cls-10" y="539.34" width="384" height="1.33"/><rect class="cls-11" x="892.31" y="539.42" width="135.39" height="1"/><rect class="cls-12" x="959.5" y="472.23" width="1" height="135.39"/></g></svg>