<svg xmlns="http://www.w3.org/2000/svg" xmlns:xlink="http://www.w3.org/1999/xlink" viewBox="0 0 1920 1080"><defs><style>.cls-1{fill:#061f6b;}.cls-2{fill:#4672e2;}.cls-3{fill:#fff;}.cls-4{fill:url(#linear-gradient);}.cls-5{fill:url(#linear-gradient-2);}.cls-6{fill:url(#linear-gradient-3);}.cls-7{fill:url(#linear-gradient-4);}.cls-8{fill:url(#linear-gradient-5);}.cls-9{fill:url(#linear-gradient-6);}.cls-10{fill:url(#linear-gradient-7);}.cls-11{fill:url(#linear-gradient-8);}.cls-12{fill:url(#linear-gradient-9);}.cls-13{fill:url(#linear-gradient-10);}.cls-14{fill:url(#linear-gradient-11);}</style><linearGradient id="linear-gradient" x1="192" y1="1080" x2="192" gradientUnits="userSpaceOnUse"><stop offset="0" stop-color="#fff" stop-opacity="0"/><stop offset="0.51" stop-color="#fff"/><stop offset="1" stop-color="#fff" stop-opacity="0"/></linearGradient><linearGradient id="linear-gradient-2" x1="-809.57" y1="2195.57" x2="270.43" y2="2195.57" gradientTransform="translate(3923.57 809.57) rotate(90)" xlink:href="#linear-gradient"/><linearGradient id="linear-gradient-3" x1="-7541.57" y1="16043.57" x2="-5621.58" y2="16043.57" gradientTransform="translate(-5621.57 17015.57) rotate(180)" xlink:href="#linear-gradient"/><linearGradient id="linear-gradient-4" x1="-7541.57" y1="16907.57" x2="-5621.58" y2="16907.57" gradientTransform="translate(-5621.57 17015.57) rotate(180)" xlink:href="#linear-gradient"/><linearGradient id="linear-gradient-5" x1="-7541.57" y1="16128.12" x2="-5621.58" y2="16128.12" gradientTransform="translate(-5621.57 17015.57) rotate(180)" xlink:href="#linear-gradient"/><linearGradient id="linear-gradient-6" x1="-3072" y1="216" x2="-3072" gradientTransform="matrix(-1, 0, 0, 1, -2112, 0)" gradientUnits="userSpaceOnUse"><stop offset="0" stop-color="#fff" stop-opacity="0"/><stop offset="1" stop-color="#fff"/></linearGradient><linearGradient id="linear-gradient-7" x1="960" y1="3119.22" x2="960" y2="2903.23" gradientTransform="matrix(1, 0, 0, -1, 0, 3983.22)" xlink:href="#linear-gradient-6"/><linearGradient id="linear-gradient-8" x1="120" y1="-876" x2="120" y2="-1260" gradientTransform="matrix(0, -1, -1, 0, 660, 660)" xlink:href="#linear-gradient-6"/><linearGradient id="linear-gradient-9" x1="-2232" y1="3964.98" x2="-2232" y2="3580.97" gradientTransform="matrix(0, 1, 1, 0, -3580.97, 2772)" xlink:href="#linear-gradient-6"/><linearGradient id="linear-gradient-10" x1="-2617.27" y1="14123.66" x2="-2481.88" y2="14123.66" gradientTransform="translate(3509.58 -13583.74)" xlink:href="#linear-gradient"/><linearGradient id="linear-gradient-11" x1="-5809.27" y1="13283.66" x2="-5673.88" y2="13283.66" gradientTransform="translate(14243.66 6281.49) rotate(90)" xlink:href="#linear-gradient"/></defs><g id="Background"><rect class="cls-1" width="1920" height="1080"/></g><g id="Layer_2" data-name="Layer 2"><path class="cls-2" d="M758,0h970a0,0,0,0,1,0,0V487a485,485,0,0,1-485,485h0A485,485,0,0,1,758,487V0A0,0,0,0,1,758,0Z"/></g><g id="Guids_and_Grids" data-name="Guids and Grids"><path class="cls-3" d="M198.38,726.75h-6.71v-42h7.73l18.72,29.59V684.74h6.74v42h-6.12l-20.36-32.11Z"/><path class="cls-3" d="M259.64,721.3H261v5.45h-3.34a7.57,7.57,0,0,1-4.09-1,4.33,4.33,0,0,1-2-2.93q-3.08,4.69-9.37,4.69a11.24,11.24,0,0,1-7.63-2.47,8.1,8.1,0,0,1-2.86-6.43,8.42,8.42,0,0,1,2.36-6.17,12,12,0,0,1,6.75-3.12l8.47-1.44a1.9,1.9,0,0,0,1.79-2.11,4.29,4.29,0,0,0-1.56-3.41A6.28,6.28,0,0,0,245.2,701q-5.49,0-6.57,5l-6.24-.71a10.44,10.44,0,0,1,4.22-6.87,14.44,14.44,0,0,1,8.88-2.62q5.65,0,8.82,2.92a10.26,10.26,0,0,1,3.16,8V719a2.48,2.48,0,0,0,.51,1.76A2.25,2.25,0,0,0,259.64,721.3Zm-21.53-3.25a3.84,3.84,0,0,0,1.33,3.13,5.82,5.82,0,0,0,3.82,1.12,7.34,7.34,0,0,0,5.64-2.39,8.69,8.69,0,0,0,2.21-6.17v-1.52l-8.58,1.46a5.93,5.93,0,0,0-3.28,1.48A3.9,3.9,0,0,0,238.11,718.05Z"/><path class="cls-3" d="M291.66,709.9v16.85h-6.59V708.32a7.63,7.63,0,0,0-1.53-5.1,5.41,5.41,0,0,0-4.36-1.78,6,6,0,0,0-5,2.16,10,10,0,0,0-1.71,6.3v16.85h-6.62V696.57h6.36v3.49a9.94,9.94,0,0,1,8.64-4.22,11.5,11.5,0,0,1,5.7,1.35,8.86,8.86,0,0,1,3.67,3.87q2.94-5.22,9.53-5.22a10.81,10.81,0,0,1,8.13,3.08,11.46,11.46,0,0,1,3,8.32v19.51h-6.59V708.32a7.63,7.63,0,0,0-1.53-5.1,5.41,5.41,0,0,0-4.36-1.78,6,6,0,0,0-5,2.16A10,10,0,0,0,291.66,709.9Z"/><path class="cls-3" d="M331.74,722.18a7.44,7.44,0,0,0,4.55-1.28,7,7,0,0,0,2.45-3.94l5.89,1.26a11.32,11.32,0,0,1-4.44,6.82,14.14,14.14,0,0,1-8.45,2.44q-7.19,0-11-4.11t-3.85-11.74q0-7.11,4-11.39a13.83,13.83,0,0,1,10.69-4.4q6.36,0,10.05,4c2.46,2.67,3.69,6.27,3.69,10.83v2.63H323.39Q324,722.18,331.74,722.18Zm-.24-21.12q-6.88,0-8,7.7h15.05Q337.94,701.05,331.5,701.06Z"/><path class="cls-3" d="M376,724.9a12.29,12.29,0,0,1-9.53-3.92Q363,717.05,363,710.43a15.55,15.55,0,0,1,3.54-10.58,12.09,12.09,0,0,1,9.47-4q6,0,9.19,4.22v-3.49h6.36v28.57q0,6.3-3.71,9.86t-10.38,3.56q-6.12,0-9.81-2.71a10.11,10.11,0,0,1-4.19-7.43l6.62-.7a6.39,6.39,0,0,0,2.43,4.14,8.65,8.65,0,0,0,5.07,1.31,7,7,0,0,0,5.5-2.07c1.25-1.38,1.88-3.4,1.88-6.08v-4.39A10.59,10.59,0,0,1,376,724.9Zm-4.22-21.16a11.86,11.86,0,0,0,0,13.27,7.07,7.07,0,0,0,5.68,2.36,6.93,6.93,0,0,0,5.54-2.45,11.19,11.19,0,0,0,0-13,6.86,6.86,0,0,0-5.51-2.5A7,7,0,0,0,371.82,703.74Z"/><path class="cls-3" d="M397.74,711.69q0-7,4.08-11.45a14.28,14.28,0,0,1,10.92-4.4q6.94,0,11,4.4t4.07,11.45a16,16,0,0,1-4.13,11.4,14.29,14.29,0,0,1-10.93,4.39q-6.86,0-10.92-4.33C399.1,720.25,397.74,716.44,397.74,711.69Zm23.32,0q0-4.89-2.19-7.66a8.11,8.11,0,0,0-12.22,0,12.09,12.09,0,0,0-2.2,7.65,11.8,11.8,0,0,0,2.2,7.57,8.18,8.18,0,0,0,12.22,0C420.33,717.44,421.06,714.91,421.06,711.69Z"/><path class="cls-3" d="M447.17,722.18a7.44,7.44,0,0,0,4.55-1.28,7,7,0,0,0,2.45-3.94l5.89,1.26a11.32,11.32,0,0,1-4.44,6.82,14.14,14.14,0,0,1-8.45,2.44q-7.19,0-11-4.11t-3.85-11.74q0-7.11,4-11.39a13.83,13.83,0,0,1,10.69-4.4q6.36,0,10.05,4c2.46,2.67,3.69,6.27,3.69,10.83v2.63H438.82Q439.44,722.18,447.17,722.18Zm-.24-21.12q-6.89,0-8,7.7H454Q453.38,701.05,446.93,701.06Z"/><path class="cls-3" d="M478.22,727.48q-6,0-9.55-2.65a9.52,9.52,0,0,1-3.89-7.25l6.62-.79a6.25,6.25,0,0,0,2,4.26,7.31,7.31,0,0,0,4.79,1.39,6.77,6.77,0,0,0,4.26-1.13,3.88,3.88,0,0,0,1.46-3.26c0-2-1.55-3.2-4.63-3.66l-4.52-.8a12.42,12.42,0,0,1-6.69-3,7.6,7.6,0,0,1-2.3-5.69,8,8,0,0,1,3.25-6.5,13.35,13.35,0,0,1,8.59-2.58q5.33,0,8.45,2.39a10.4,10.4,0,0,1,3.85,6.93l-6,.76a6.62,6.62,0,0,0-2.14-3.87,6.73,6.73,0,0,0-4.28-1.23,6.9,6.9,0,0,0-4,1,3.07,3.07,0,0,0-1.4,2.62,3,3,0,0,0,1,2.36,6.41,6.41,0,0,0,3.14,1.25l5,.91q9.22,1.69,9.23,8.7a8.76,8.76,0,0,1-3.27,7.19Q483.93,727.49,478.22,727.48Z"/><path class="cls-3" d="M536.46,707.24v19.51h-6.62V708.32a7.26,7.26,0,0,0-1.65-5.1,6.1,6.1,0,0,0-4.7-1.78,6.63,6.63,0,0,0-5.34,2.16q-1.85,2.17-1.84,6.3v16.85h-6.62v-42h6.62v15.11q3-4,8.88-4a11.05,11.05,0,0,1,8.26,3.08A11.36,11.36,0,0,1,536.46,707.24Z"/><path class="cls-3" d="M557.32,722.18a7.45,7.45,0,0,0,4.56-1.28,7,7,0,0,0,2.45-3.94l5.88,1.26a11.26,11.26,0,0,1-4.43,6.82,14.17,14.17,0,0,1-8.46,2.44q-7.17,0-11-4.11t-3.85-11.74q0-7.11,4-11.39a13.82,13.82,0,0,1,10.69-4.4q6.36,0,10.05,4c2.46,2.67,3.69,6.27,3.69,10.83v2.63H549Q549.59,722.18,557.32,722.18Zm-.23-21.12q-6.89,0-8,7.7h15.06Q563.54,701.05,557.09,701.06Z"/><path class="cls-3" d="M583.84,726.75h-6.62V696.57h6.35v5q2.91-5,8.3-5h2.51v6.13h-2.69a6.66,6.66,0,0,0-5.8,2.9q-2.05,2.89-2,8.26Z"/><path class="cls-3" d="M611.88,722.18a7.44,7.44,0,0,0,4.55-1.28,7,7,0,0,0,2.45-3.94l5.89,1.26a11.32,11.32,0,0,1-4.44,6.82,14.16,14.16,0,0,1-8.45,2.44q-7.18,0-11-4.11T597,711.63q0-7.11,4-11.39a13.82,13.82,0,0,1,10.69-4.4q6.36,0,10,4c2.46,2.67,3.69,6.27,3.69,10.83v2.63H603.53Q604.15,722.18,611.88,722.18Zm-.24-21.12q-6.89,0-8,7.7H618.7Q618.08,701.05,611.64,701.06Z"/><path class="cls-3" d="M192.35,817.87H210V820h-7.59v21.64H200V820h-7.62Z"/><path class="cls-3" d="M215.53,821.75h-2.31v-3.88h2.31Zm0,19.93h-2.31v-16.9h2.31Z"/><path class="cls-3" d="M218.85,826.72v-1.94H222V819.2h2.32v5.58h4.58v1.94h-4.58V837a3.33,3.33,0,0,0,.52,2.12,2.33,2.33,0,0,0,1.82.6h2.69v2h-3a4.4,4.4,0,0,1-3.25-1.15,4.46,4.46,0,0,1-1.13-3.27V826.72Z"/><path class="cls-3" d="M235,841.68h-2.31V817.87H235Z"/><path class="cls-3" d="M247.25,840.18a4.32,4.32,0,0,0,4.68-3.88l2.21.35a5.77,5.77,0,0,1-2.22,4,7.4,7.4,0,0,1-4.67,1.47,7.59,7.59,0,0,1-5.95-2.28q-2.06-2.28-2.05-6.6a9.24,9.24,0,0,1,2.14-6.42,7.37,7.37,0,0,1,5.78-2.41,6.83,6.83,0,0,1,5.33,2.08,8.39,8.39,0,0,1,1.89,5.84v1.42H241.64Q241.84,840.19,247.25,840.18Zm-.12-13.91a5,5,0,0,0-3.75,1.41,6.63,6.63,0,0,0-1.67,4.14h10.22Q251.69,826.27,247.13,826.27Z"/><path class="cls-3" d="M266.88,842.14h-2.45l11.09-26.45H278Z"/><path class="cls-3" d="M307.86,832a6.27,6.27,0,0,0-1.14-.45,4,4,0,0,0-1.13-.17,4.63,4.63,0,0,0-2.09.53,8.69,8.69,0,0,0-1.89,1.27,7.93,7.93,0,0,0-1.38,1.62,3,3,0,0,0-.54,1.55.79.79,0,0,0,.48.72,6.8,6.8,0,0,0,1.61.43l1.92.33c.61.09,1.16.19,1.64.29a3.77,3.77,0,0,1,2.09.92,2.66,2.66,0,0,1,.57,1.85,3.94,3.94,0,0,1-1.06,2.55,10.58,10.58,0,0,1-2.79,2.27,16.79,16.79,0,0,1-3.9,1.62,16.36,16.36,0,0,1-4.45.61,10.84,10.84,0,0,1-3.47-.53,7.52,7.52,0,0,1-2.67-1.57,7.13,7.13,0,0,1-1.71-2.5,8.66,8.66,0,0,1-.61-3.35,10.64,10.64,0,0,1,.47-3.28,13.45,13.45,0,0,1,1.47-3l1.66.79a13.81,13.81,0,0,0-1.12,2.48,8,8,0,0,0-.39,2.42,5.42,5.42,0,0,0,1.73,4.26,7,7,0,0,0,4.89,1.57,14.46,14.46,0,0,0,3.69-.45,16.7,16.7,0,0,0,3-1.08,10.08,10.08,0,0,0,2.09-1.3,3.82,3.82,0,0,0,1-1.06.71.71,0,0,0-.35-.45,4.3,4.3,0,0,0-1.2-.34L301,840a9.22,9.22,0,0,1-1.32-.29,3.07,3.07,0,0,1-1-.52,2.27,2.27,0,0,1-.67-.88,3.71,3.71,0,0,1-.23-1.41,6.22,6.22,0,0,1,.74-2.86,10.53,10.53,0,0,1,1.92-2.66,10.07,10.07,0,0,1,2.65-2,6.1,6.1,0,0,1,2.86-.76,4.73,4.73,0,0,1,1.48.23,5.36,5.36,0,0,1,1.4.78Z"/><path class="cls-3" d="M318.7,838.58a6.75,6.75,0,0,1-.73,3.06,12.27,12.27,0,0,1-2,2.86,22.76,22.76,0,0,1-3,2.72q-1.72,1.34-3.71,2.66l-1.84-1.76a42,42,0,0,0,3.85-2.65,29.74,29.74,0,0,0,2.87-2.48,11.78,11.78,0,0,0,1.78-2.18,3.5,3.5,0,0,0,.61-1.76,3.91,3.91,0,0,0-.18-1.08,9.66,9.66,0,0,0-.49-1.3,14.38,14.38,0,0,0-.72-1.4c-.27-.48-.57-.95-.88-1.4l1.84-1.84a14.44,14.44,0,0,1,1.94,3.51A8.9,8.9,0,0,1,318.7,838.58Z"/><path class="cls-3" d="M328.38,841.68a4.92,4.92,0,0,1-2.68-.62,3.64,3.64,0,0,1-1.41-1.58,6.35,6.35,0,0,1-.54-2.23c-.06-.84-.1-1.69-.12-2.56-.05-1.22-.08-2.55-.09-4s0-2.88-.08-4.37-.07-3-.12-4.48-.12-2.94-.22-4.3l2.31-1.08c.07,1.94.12,3.68.14,5.22s0,3,.05,4.32,0,2.62,0,3.85,0,2.5.07,3.81q0,1.08.09,2a5.68,5.68,0,0,0,.33,1.66,2.46,2.46,0,0,0,.84,1.11,2.74,2.74,0,0,0,1.62.41h1.16v2.78Z"/><path class="cls-3" d="M339.54,835.92a5.48,5.48,0,0,1-.52,2.39,5.54,5.54,0,0,1-1.44,1.82,6.41,6.41,0,0,1-2.24,1.15,10,10,0,0,1-2.86.4h-2.73a.75.75,0,0,1-.62-.4,1.91,1.91,0,0,1-.25-1,1.86,1.86,0,0,1,.25-1,.75.75,0,0,1,.62-.38h2.91a6.11,6.11,0,0,0,3.53-.84,3,3,0,0,0,1.37-1.82,4.86,4.86,0,0,0-.49-1.66,8.7,8.7,0,0,0-1.24-1.83,26.17,26.17,0,0,0-2.05-2.11c-.82-.75-1.79-1.59-2.92-2.5a15.3,15.3,0,0,1,.31-2.09,1.46,1.46,0,0,1,.52-.86c.62-.41,1.36-.86,2.2-1.37s1.72-1,2.66-1.53,1.9-1,2.9-1.57l2.9-1.51-.36,2.92c-1.76.84-3.38,1.67-4.88,2.5s-2.78,1.59-3.84,2.29a29.09,29.09,0,0,1,4.74,4.86A7.08,7.08,0,0,1,339.54,835.92Z"/><path class="cls-3" d="M365.57,830.37a12.9,12.9,0,0,1,1.81,3.64,12.33,12.33,0,0,1,.6,3.71,11.36,11.36,0,0,1-.69,4,8.7,8.7,0,0,1-2,3.13,8.91,8.91,0,0,1-3.16,2,11.91,11.91,0,0,1-4.29.72,10,10,0,0,1-3.36-.54,7.35,7.35,0,0,1-2.63-1.56,7.08,7.08,0,0,1-1.71-2.52,8.8,8.8,0,0,1-.62-3.37,10.51,10.51,0,0,1,.47-3.24,14.65,14.65,0,0,1,1.48-3.06l1.66.83a12,12,0,0,0-1.12,2.46,8.13,8.13,0,0,0-.4,2.43,5.42,5.42,0,0,0,1.73,4.25,6.93,6.93,0,0,0,4.79,1.55,9.35,9.35,0,0,0,3.13-.49,6.57,6.57,0,0,0,2.38-1.38,6.36,6.36,0,0,0,1.51-2.18,7.17,7.17,0,0,0,.54-2.83,9.18,9.18,0,0,0-.52-2.84,12.08,12.08,0,0,0-1.57-3.1Zm-7.24.69-2.2-1.88,1.62-1.9,2.2,1.83Z"/><path class="cls-3" d="M374.71,841.32l-2.3.54v-24.3l2.3-1.08Z"/><path class="cls-3" d="M388.86,841.68a10.24,10.24,0,0,1-1.23,2.77,15,15,0,0,1-2.05,2.52,26.1,26.1,0,0,1-2.75,2.37q-1.53,1.15-3.3,2.31l-1.8-1.73a48.17,48.17,0,0,0,6.23-4.64,10.72,10.72,0,0,0,3-3.86,10.27,10.27,0,0,1-1.93.38q-.91.09-1.53.09a4,4,0,0,1-2.7-.93,3.53,3.53,0,0,1-1.08-2.81,8,8,0,0,1,.34-2.25,7.85,7.85,0,0,1,.94-2,5.6,5.6,0,0,1,1.42-1.52,3.05,3.05,0,0,1,1.8-.59,3.56,3.56,0,0,1,2,.61,5.19,5.19,0,0,1,1.51,1.61,8.41,8.41,0,0,1,1,2.28,13.78,13.78,0,0,1,.41,2.66h2.7v2.78ZM387,838.94a9.62,9.62,0,0,0-.36-1.76,6.55,6.55,0,0,0-.63-1.46,3.09,3.09,0,0,0-.9-1,2,2,0,0,0-1.17-.36,1.52,1.52,0,0,0-.92.29,3.19,3.19,0,0,0-.74.73,4,4,0,0,0-.5,1,3.36,3.36,0,0,0-.18,1,1.69,1.69,0,0,0,.59,1.38,2.57,2.57,0,0,0,1.68.49,15.81,15.81,0,0,0,1.62-.09A9.35,9.35,0,0,0,387,838.94Z"/><path class="cls-3" d="M402.1,841.68a5.89,5.89,0,0,1-2.68-.54,3.74,3.74,0,0,1-1.67-1.84,4.66,4.66,0,0,1-1.78,1.8,5.55,5.55,0,0,1-2.69.58h-1.47a.72.72,0,0,1-.61-.4,1.82,1.82,0,0,1-.26-1,1.78,1.78,0,0,1,.26-1,.72.72,0,0,1,.61-.38h1.47a4.21,4.21,0,0,0,2.61-.66,3.34,3.34,0,0,0,1-2.54l0-1.37,2-.5a17.88,17.88,0,0,0,.14,2.41,4,4,0,0,0,.54,1.57,2.16,2.16,0,0,0,1.1.84,5.47,5.47,0,0,0,1.82.25h1.4v2.78Zm-4.24-10.62-2.2-1.88,1.62-1.9,2.2,1.83Z"/><path class="cls-3" d="M407.11,834.91a5.53,5.53,0,0,1,.47-2.32,5.66,5.66,0,0,1,1.27-1.84,6.09,6.09,0,0,1,1.86-1.21,5.81,5.81,0,0,1,2.19-.43,6.7,6.7,0,0,1,2.6.51,10,10,0,0,1,2.37,1.4l-.9,1.8a9.75,9.75,0,0,0-2-.79,7.94,7.94,0,0,0-2.07-.25,4,4,0,0,0-1.45.25,4.08,4.08,0,0,0-1.16.66,3.36,3.36,0,0,0-.77,1,2.36,2.36,0,0,0-.29,1.11,2.82,2.82,0,0,0,.34,1.32,4.81,4.81,0,0,0,1.91,1.89,2.19,2.19,0,0,0,1,.29,14.94,14.94,0,0,0,2.91-.4c1.23-.26,2.82-.67,4.79-1.22l-.25,2.59a50,50,0,0,1-7.36,1.87,40.73,40.73,0,0,1-6.83.58h-1.8a.74.74,0,0,1-.61-.4,1.82,1.82,0,0,1-.25-1,1.77,1.77,0,0,1,.25-1,.73.73,0,0,1,.61-.38H407c.44,0,1.05,0,1.82-.09a5.56,5.56,0,0,1-1.34-1.88A5.29,5.29,0,0,1,407.11,834.91Z"/><path class="cls-3" d="M202,886a6.62,6.62,0,0,0,4.39-1.4,8.36,8.36,0,0,0,2.48-4.36l2.15.31a9.65,9.65,0,0,1-3.17,5.46,9.81,9.81,0,0,1-12.84-1q-2.55-2.91-2.55-8a11.49,11.49,0,0,1,2.58-7.88,8.75,8.75,0,0,1,7-3,9.24,9.24,0,0,1,6.15,2,9.39,9.39,0,0,1,3,5.74l-2.22.37a8.13,8.13,0,0,0-2.36-4.62,6.74,6.74,0,0,0-4.6-1.5,6.52,6.52,0,0,0-5.36,2.36,12,12,0,0,0,0,13.07A6.54,6.54,0,0,0,202,886Z"/><path class="cls-3" d="M226.81,885.92h.77v1.71h-1.23a2.87,2.87,0,0,1-1.88-.61,2,2,0,0,1-.75-1.64v-.12a5.27,5.27,0,0,1-4.87,2.74,5.54,5.54,0,0,1-3.75-1.21,4,4,0,0,1-1.4-3.14,4.13,4.13,0,0,1,1.17-3,6,6,0,0,1,3.32-1.57l4.53-.78a1,1,0,0,0,1-1.14,2.82,2.82,0,0,0-1-2.23,4,4,0,0,0-2.68-.86,3.69,3.69,0,0,0-4,3.06l-1.92-.26a5.06,5.06,0,0,1,2-3.26,6.41,6.41,0,0,1,4.05-1.24,5.76,5.76,0,0,1,4.09,1.39,4.79,4.79,0,0,1,1.49,3.71v7.31a1.22,1.22,0,0,0,.26.88A1.15,1.15,0,0,0,226.81,885.92Zm-11.08-2.37a2.5,2.5,0,0,0,.85,2,3.51,3.51,0,0,0,2.36.74,4.42,4.42,0,0,0,3.43-1.51,5.83,5.83,0,0,0,1.35-4v-1l-5.34.92a3.26,3.26,0,0,0-1.95.93A2.57,2.57,0,0,0,215.73,883.55Z"/><path class="cls-3" d="M228.51,874.44v-1.72h2.75V867.8h2.05v4.92h4v1.72h-4v9a2.85,2.85,0,0,0,.46,1.87,2,2,0,0,0,1.61.53h2.37v1.77h-2.62a3.85,3.85,0,0,1-2.87-1,3.94,3.94,0,0,1-1-2.88v-9.3Z"/><path class="cls-3" d="M246.51,886.32a3.82,3.82,0,0,0,4.13-3.43l2,.31a5.16,5.16,0,0,1-2,3.51,6.56,6.56,0,0,1-4.12,1.29,6.68,6.68,0,0,1-5.25-2,8.45,8.45,0,0,1-1.81-5.83,8.15,8.15,0,0,1,1.89-5.66,6.5,6.5,0,0,1,5.1-2.13,6,6,0,0,1,4.7,1.84,7.4,7.4,0,0,1,1.67,5.15v1.26H241.56Q241.74,886.32,246.51,886.32Zm-.1-12.28a4.43,4.43,0,0,0-3.32,1.25,5.83,5.83,0,0,0-1.47,3.64h9Q250.42,874,246.41,874Z"/><path class="cls-3" d="M262.12,886.77a5.92,5.92,0,0,1-4.67-1.95,7.65,7.65,0,0,1-1.73-5.26,7.53,7.53,0,0,1,1.75-5.21,5.91,5.91,0,0,1,4.65-2,5.65,5.65,0,0,1,4.74,2.27v-1.92h2V887a6.54,6.54,0,0,1-1.69,4.75,6.17,6.17,0,0,1-4.66,1.76,7.22,7.22,0,0,1-4.55-1.31,5.15,5.15,0,0,1-1.93-3.67l2-.18a4,4,0,0,0,1.42,2.6,4.92,4.92,0,0,0,3,.8,4.11,4.11,0,0,0,3.25-1.24,5.43,5.43,0,0,0,1.1-3.68v-2.55A5.47,5.47,0,0,1,262.12,886.77Zm-4.29-7.21a6.07,6.07,0,0,0,1.2,4,4.21,4.21,0,0,0,3.39,1.42,4,4,0,0,0,3.25-1.5,6.73,6.73,0,0,0,0-7.83,4,4,0,0,0-3.24-1.54,4.2,4.2,0,0,0-3.41,1.41A6.17,6.17,0,0,0,257.83,879.56Z"/><path class="cls-3" d="M272.61,880.19a8.18,8.18,0,0,1,1.92-5.67,7.35,7.35,0,0,1,10.39,0,9.22,9.22,0,0,1,0,11.34,7.38,7.38,0,0,1-10.39,0A8.15,8.15,0,0,1,272.61,880.19Zm10.81,4.41a7.89,7.89,0,0,0,0-8.83,4.55,4.55,0,0,0-3.69-1.64,4.5,4.5,0,0,0-3.66,1.64,7.92,7.92,0,0,0,0,8.83,5,5,0,0,0,7.36,0Z"/><path class="cls-3" d="M292.68,887.63h-2V872.72h2v2.92a4.73,4.73,0,0,1,4.44-2.92h1.11v2h-1.11a3.73,3.73,0,0,0-3.21,1.82,8.42,8.42,0,0,0-1.23,4.79Z"/><path class="cls-3" d="M304.88,889.26l.6-1.54-6-15h2.2l4.9,12.6,4.93-12.6h2.1l-6.81,16.95a6,6,0,0,1-1.87,2.74,4.75,4.75,0,0,1-2.84.78h-1.47v-1.78h1.47a2.87,2.87,0,0,0,1.72-.46A3.78,3.78,0,0,0,304.88,889.26Z"/><path class="cls-3" d="M328.46,867.47h2.05l-8,21.45h-1.92Z"/><path class="cls-3" d="M357.32,879a5.55,5.55,0,0,0-1-.41,3.9,3.9,0,0,0-1-.14,4.13,4.13,0,0,0-1.86.47,7.17,7.17,0,0,0-1.68,1.13,6.83,6.83,0,0,0-1.23,1.44,2.67,2.67,0,0,0-.48,1.38.71.71,0,0,0,.43.64,7.13,7.13,0,0,0,1.43.38l1.71.29c.54.08,1,.17,1.45.25a3.44,3.44,0,0,1,1.86.82,2.36,2.36,0,0,1,.51,1.65,3.51,3.51,0,0,1-.94,2.27,9.45,9.45,0,0,1-2.48,2,15.58,15.58,0,0,1-3.47,1.44,14.72,14.72,0,0,1-4,.54,9.35,9.35,0,0,1-3.08-.48,6.49,6.49,0,0,1-2.37-1.39,6.32,6.32,0,0,1-1.52-2.22,7.61,7.61,0,0,1-.55-3,9.29,9.29,0,0,1,.42-2.91,11.82,11.82,0,0,1,1.31-2.69l1.47.7a12.88,12.88,0,0,0-1,2.21,7.09,7.09,0,0,0-.35,2.14,4.86,4.86,0,0,0,1.54,3.8,6.28,6.28,0,0,0,4.35,1.39,12.76,12.76,0,0,0,3.28-.4,15.3,15.3,0,0,0,2.67-1,9.55,9.55,0,0,0,1.86-1.15,3.31,3.31,0,0,0,.86-1,.63.63,0,0,0-.3-.4,4.46,4.46,0,0,0-1.08-.3l-2.94-.48a7.24,7.24,0,0,1-1.17-.26,2.69,2.69,0,0,1-.91-.46,1.89,1.89,0,0,1-.59-.79,3.11,3.11,0,0,1-.21-1.24,5.6,5.6,0,0,1,.66-2.55,9.27,9.27,0,0,1,1.71-2.37,9.43,9.43,0,0,1,2.35-1.74,5.45,5.45,0,0,1,2.54-.67,4.06,4.06,0,0,1,1.32.21,4.31,4.31,0,0,1,1.24.69Z"/><path class="cls-3" d="M375.56,887.63a4.92,4.92,0,0,1-1.28-.14,3,3,0,0,1-1-.45,3.46,3.46,0,0,1-.8-.78,8.66,8.66,0,0,1-.75-1.18,4.35,4.35,0,0,1-2.29,2.3,9.81,9.81,0,0,1-3.57.58,7.37,7.37,0,0,1-2.51-.36,5.08,5.08,0,0,1-1.91-1.31l1.09-1.82a4.67,4.67,0,0,0,1.52.78,7.33,7.33,0,0,0,2,.24,7.45,7.45,0,0,0,3.28-.59c.78-.4,1.17-.87,1.17-1.43a9.51,9.51,0,0,0-.7-2.7q-.71-1.93-2.05-5.1l1.66-1.73,2.88,7.65a17.83,17.83,0,0,0,.74,1.74,4.47,4.47,0,0,0,.74,1.1,2.07,2.07,0,0,0,.81.58,2.72,2.72,0,0,0,1,.16h1v2.46Z"/><path class="cls-3" d="M385.8,887.63a5.22,5.22,0,0,1-2.38-.48,3.32,3.32,0,0,1-1.49-1.63,4.12,4.12,0,0,1-1.58,1.6,5,5,0,0,1-2.39.51h-1.31a.63.63,0,0,1-.54-.35,1.61,1.61,0,0,1-.23-.89,1.53,1.53,0,0,1,.23-.88.64.64,0,0,1,.54-.34H378a3.75,3.75,0,0,0,2.32-.59,3,3,0,0,0,.85-2.26l0-1.21,1.8-.45a15.9,15.9,0,0,0,.12,2.14,3.49,3.49,0,0,0,.48,1.39,1.91,1.91,0,0,0,1,.76,4.87,4.87,0,0,0,1.62.22h1.24v2.46ZM382,878.19l-1.95-1.66,1.44-1.7,2,1.64Z"/><path class="cls-3" d="M391.53,883.79a4.82,4.82,0,0,0-.38-1.36,11.12,11.12,0,0,0-1.31-2.25l1.63-1.73a8.61,8.61,0,0,1,1.5,2.63,7.44,7.44,0,0,1,.48,2.43,3.82,3.82,0,0,1-1.23,3.07,5.81,5.81,0,0,1-3.82,1h-1a.63.63,0,0,1-.54-.35,1.61,1.61,0,0,1-.23-.89,1.53,1.53,0,0,1,.23-.88.64.64,0,0,1,.54-.34h1a6.75,6.75,0,0,0,2.17-.32C391.22,884.64,391.53,884.29,391.53,883.79Zm-2.94,9.86-2-1.66,1.45-1.7,1.95,1.63Z"/><path class="cls-3" d="M409.07,887.63a4.25,4.25,0,0,1-3.09-1,6.81,6.81,0,0,1-1.59-3,6.14,6.14,0,0,1-1.87.89,7.5,7.5,0,0,1-2.29.36,3.13,3.13,0,0,1-2.22-.74,2.64,2.64,0,0,1-.78-2,5,5,0,0,1,1.29-3.29,16.35,16.35,0,0,1,4.24-3.24l-.38-1.79,1.76-1.25,1.53,7.84c.18.86.34,1.58.5,2.18a5,5,0,0,0,.62,1.47,2.26,2.26,0,0,0,1,.84,4.06,4.06,0,0,0,1.57.25h.57v2.46Zm-5.95-10a14.73,14.73,0,0,0-1.56.86,12.58,12.58,0,0,0-1.34,1,4.86,4.86,0,0,0-1,1,2.06,2.06,0,0,0-.4,1c0,.71.52,1.06,1.69,1.06a6.65,6.65,0,0,0,1-.08,7.69,7.69,0,0,0,1-.22,8.29,8.29,0,0,0,.86-.32,2,2,0,0,0,.58-.37Z"/><path class="cls-3" d="M419.08,887.63a5.22,5.22,0,0,1-2.38-.48,3.32,3.32,0,0,1-1.49-1.63,4.12,4.12,0,0,1-1.58,1.6,5,5,0,0,1-2.39.51h-1.31a.63.63,0,0,1-.54-.35,1.61,1.61,0,0,1-.23-.89,1.53,1.53,0,0,1,.23-.88.64.64,0,0,1,.54-.34h1.31a3.75,3.75,0,0,0,2.32-.59,3,3,0,0,0,.85-2.26l0-1.21,1.79-.45a15.7,15.7,0,0,0,.13,2.14,3.49,3.49,0,0,0,.48,1.39,1.91,1.91,0,0,0,1,.76,4.81,4.81,0,0,0,1.61.22h1.25v2.46Zm-5.69-9.44-1.89-1.56,1.38-1.63,1.85,1.56Zm3.81,0-1.86-1.56,1.41-1.63,1.82,1.56Z"/><path class="cls-3" d="M433.48,885.46a4.25,4.25,0,0,1-1.5,1.63,4.5,4.5,0,0,1-2.34.54,4.8,4.8,0,0,1-2.29-.46,3.47,3.47,0,0,1-1.39-1.68,4.08,4.08,0,0,1-1.55,1.63,4.14,4.14,0,0,1-2.06.51h-1.67a.63.63,0,0,1-.54-.35,1.61,1.61,0,0,1-.23-.89,1.53,1.53,0,0,1,.23-.88.64.64,0,0,1,.54-.34h1.54a3.54,3.54,0,0,0,2.08-.58,2.44,2.44,0,0,0,.9-2v-1.47l1.79-.45a14.23,14.23,0,0,0,.13,2.14,3.67,3.67,0,0,0,.44,1.39,1.83,1.83,0,0,0,.83.76,3.23,3.23,0,0,0,1.28.22,3.15,3.15,0,0,0,2.26-.67,3.34,3.34,0,0,0,.75-2.31v-1.08l1.79-.45a7.7,7.7,0,0,0,.58,3.49,2.18,2.18,0,0,0,2.08,1,4.13,4.13,0,0,0,.78-.08,2.79,2.79,0,0,0,.74-.24,1.47,1.47,0,0,0,.55-.42,1,1,0,0,0,.2-.6,4.35,4.35,0,0,0-.4-1.4,10.87,10.87,0,0,0-1.33-2.25l1.67-1.73a8.61,8.61,0,0,1,1.5,2.63,7.44,7.44,0,0,1,.48,2.43,3.85,3.85,0,0,1-1.23,3,4.38,4.38,0,0,1-3,1.1,4.21,4.21,0,0,1-2.25-.54A3.42,3.42,0,0,1,433.48,885.46Z"/><path class="cls-3" d="M456,883a4.87,4.87,0,0,1-.56,2.46A4.23,4.23,0,0,1,453.9,887a6.44,6.44,0,0,1-2.15.75,14.78,14.78,0,0,1-2.52.21,8.84,8.84,0,0,1-2.6-.33,4.45,4.45,0,0,1-2-1.34l1.09-1.82a4.15,4.15,0,0,0,1.65.83,9,9,0,0,0,2,.19,8,8,0,0,0,3.52-.61c.81-.4,1.21-.9,1.21-1.5a3.22,3.22,0,0,0-.24-1.07,6.74,6.74,0,0,0-.81-1.48,13,13,0,0,0-1.56-1.75,17.76,17.76,0,0,0-2.44-1.94l1-2.34a15.81,15.81,0,0,1,2.19,1.62,14.48,14.48,0,0,1,1.9,2,10.29,10.29,0,0,1,1.33,2.26A5.91,5.91,0,0,1,456,883Z"/><path class="cls-3" d="M201.33,647a4.88,4.88,0,0,1-.56,2.47,4,4,0,0,1-1.49,1.5,6.38,6.38,0,0,1-2.14.75,14.81,14.81,0,0,1-2.53.21,9.15,9.15,0,0,1-2.59-.32,4.4,4.4,0,0,1-2-1.34l1.08-1.83a4.18,4.18,0,0,0,1.65.84,9.7,9.7,0,0,0,2,.19,8.15,8.15,0,0,0,3.52-.61c.81-.41,1.22-.91,1.22-1.5a3.33,3.33,0,0,0-.24-1.08,6.6,6.6,0,0,0-.82-1.47,12.76,12.76,0,0,0-1.55-1.76,17.9,17.9,0,0,0-2.45-1.93l1-2.34a14.71,14.71,0,0,1,2.19,1.62,13.53,13.53,0,0,1,1.91,2,11.08,11.08,0,0,1,1.33,2.25A5.94,5.94,0,0,1,201.33,647Z"/><path class="cls-3" d="M212.12,651.65a5.22,5.22,0,0,1-1.06-.11,2.09,2.09,0,0,1-1-.53,6.45,6.45,0,0,1-.75,2.55,11.5,11.5,0,0,1-1.76,2.4,23.82,23.82,0,0,1-2.58,2.3c-1,.76-2,1.52-3.2,2.29L200.18,659a38.14,38.14,0,0,0,3.42-2.35,28,28,0,0,0,2.55-2.21,10.45,10.45,0,0,0,1.58-1.94,3.16,3.16,0,0,0,.55-1.56,4.68,4.68,0,0,0-.57-2,26.05,26.05,0,0,0-1.45-2.61l1.66-1.63c.49.87.9,1.6,1.24,2.19a9.27,9.27,0,0,0,.92,1.39,2.77,2.77,0,0,0,.87.72,2.43,2.43,0,0,0,1.07.21H213v2.46Z"/><path class="cls-3" d="M222.1,651.65a5.27,5.27,0,0,1-2.39-.48,3.35,3.35,0,0,1-1.48-1.63,4.21,4.21,0,0,1-1.59,1.6,5,5,0,0,1-2.38.51H213a.65.65,0,0,1-.55-.35,1.65,1.65,0,0,1-.22-.9,1.57,1.57,0,0,1,.22-.88.65.65,0,0,1,.55-.33h1.31a3.77,3.77,0,0,0,2.32-.59,3,3,0,0,0,.85-2.26l0-1.22,1.79-.44a14.32,14.32,0,0,0,.13,2.14,3.21,3.21,0,0,0,.48,1.39,1.92,1.92,0,0,0,1,.75,4.88,4.88,0,0,0,1.62.23h1.25v2.46Zm-5.76,5.86-1.89-1.57,1.38-1.63,1.85,1.57Zm3.81,0-1.86-1.57,1.41-1.63,1.82,1.57Z"/><path class="cls-3" d="M232.4,646.53a4.76,4.76,0,0,1-.46,2.13,4.92,4.92,0,0,1-1.28,1.62,5.84,5.84,0,0,1-2,1,8.86,8.86,0,0,1-2.54.35H223.7a.66.66,0,0,1-.55-.35,1.74,1.74,0,0,1-.22-.9,1.66,1.66,0,0,1,.22-.88.66.66,0,0,1,.55-.33h2.59a5.43,5.43,0,0,0,3.14-.75,2.68,2.68,0,0,0,1.21-1.62,4.13,4.13,0,0,0-.43-1.47,7.54,7.54,0,0,0-1.1-1.63,22.36,22.36,0,0,0-1.83-1.88c-.72-.67-1.59-1.41-2.59-2.22a15.77,15.77,0,0,1,.27-1.86,1.25,1.25,0,0,1,.47-.76c.55-.37,1.2-.77,1.95-1.22s1.53-.9,2.37-1.36,1.69-.92,2.57-1.39l2.58-1.35-.32,2.6c-1.56.74-3,1.48-4.34,2.22s-2.47,1.41-3.41,2a25.81,25.81,0,0,1,4.21,4.32A6.31,6.31,0,0,1,232.4,646.53Zm1.41-16c-1.3.68-2.67,1.43-4.11,2.22s-2.92,1.69-4.43,2.65l.19-1.67q2.14-1.41,4.33-2.64t4.21-2.26Z"/><path class="cls-3" d="M253,651.65l-1.92,0h-1.21a5.86,5.86,0,0,0-1.8.2c-.36.14-.54.3-.54.47a.31.31,0,0,0,.19.29,5.15,5.15,0,0,0,.9.25l2.81.64a3.22,3.22,0,0,1,1.39.64,1.48,1.48,0,0,1,.47,1.16,3,3,0,0,1-.88,2.09,7.92,7.92,0,0,1-2.27,1.63A13.54,13.54,0,0,1,247,660a16.19,16.19,0,0,1-3.34.37,9.45,9.45,0,0,1-3.09-.48,6.63,6.63,0,0,1-2.37-1.39,6.27,6.27,0,0,1-1.52-2.23,7.75,7.75,0,0,1-.54-3,9.72,9.72,0,0,1,.41-2.92,11.83,11.83,0,0,1,1.32-2.68l1.47.7a11.23,11.23,0,0,0-1,2.21,6.75,6.75,0,0,0-.35,2.14,4.86,4.86,0,0,0,1.53,3.79,6.23,6.23,0,0,0,4.35,1.4,14.37,14.37,0,0,0,2.91-.28,14,14,0,0,0,2.28-.65,8.3,8.3,0,0,0,1.53-.77,4.11,4.11,0,0,0,.77-.61,1.48,1.48,0,0,0-.37-.24,4.18,4.18,0,0,0-.69-.21l-2.65-.64a4.34,4.34,0,0,1-1.54-.68,1.7,1.7,0,0,1-.54-1.4,2.78,2.78,0,0,1,1.28-2.4,7.34,7.34,0,0,1,4.09-.89h2.31v2.46Z"/><path class="cls-3" d="M261.75,642.66a2.31,2.31,0,0,1,1.5.56,4.94,4.94,0,0,1,1.15,1.42,7.74,7.74,0,0,1,.74,1.94,9.11,9.11,0,0,1,.25,2.13,3.14,3.14,0,0,1-.24,1.17,3.57,3.57,0,0,1-1.48,1.77,1.93,1.93,0,0,1-1,.29,4.35,4.35,0,0,1-1.1-.16,10.14,10.14,0,0,1-1.28-.43,9.43,9.43,0,0,1-1.3-.67,10.45,10.45,0,0,1-1.21-.89,4.47,4.47,0,0,1-1.76,1.48,5.91,5.91,0,0,1-2.21.38h-.51a.66.66,0,0,1-.55-.38,1.75,1.75,0,0,1-.22-.83,1.81,1.81,0,0,1,.22-.87.66.66,0,0,1,.55-.38h.51a5.6,5.6,0,0,0,1.84-.31,2.76,2.76,0,0,0,1.52-1.42c.38-.66.75-1.29,1.1-1.87a12.49,12.49,0,0,1,1.08-1.54,4.6,4.6,0,0,1,1.13-1A2.34,2.34,0,0,1,261.75,642.66Zm-.26,2.34a1.82,1.82,0,0,0-1.39.84,12.93,12.93,0,0,0-1.3,2.16,7.2,7.2,0,0,0,2.07,1.22,5.13,5.13,0,0,0,1.77.38,1,1,0,0,0,.67-.28.85.85,0,0,0,.32-.64,4.78,4.78,0,0,0-.17-1.27,5.36,5.36,0,0,0-.47-1.2,3.08,3.08,0,0,0-.68-.88A1.29,1.29,0,0,0,261.49,645Z"/><path class="cls-3" d="M281,648.9a6.21,6.21,0,0,1-.64,2.72,11.28,11.28,0,0,1-1.76,2.54,21.15,21.15,0,0,1-2.66,2.42q-1.53,1.18-3.3,2.37L271,657.38a39.88,39.88,0,0,0,3.43-2.35,27.78,27.78,0,0,0,2.54-2.21,10.45,10.45,0,0,0,1.58-1.94,3.06,3.06,0,0,0,.55-1.56,3.69,3.69,0,0,0-.16-1,9.86,9.86,0,0,0-.43-1.16c-.18-.4-.4-.82-.64-1.24s-.51-.85-.79-1.25l1.63-1.63a12.6,12.6,0,0,1,1.73,3.12A8,8,0,0,1,281,648.9Z"/><path class="cls-3" d="M287,651.33l-2,.48v-21.6l2-1Z"/><path class="cls-3" d="M297.94,651.65a5.22,5.22,0,0,1-1.06-.11,2.09,2.09,0,0,1-1-.53,6.29,6.29,0,0,1-.75,2.55,11.5,11.5,0,0,1-1.76,2.4,23.82,23.82,0,0,1-2.58,2.3c-1,.76-2,1.52-3.2,2.29L286,659a38.14,38.14,0,0,0,3.42-2.35,26.72,26.72,0,0,0,2.55-2.21,10.45,10.45,0,0,0,1.58-1.94,3.06,3.06,0,0,0,.55-1.56,4.8,4.8,0,0,0-.56-2,28.52,28.52,0,0,0-1.46-2.61l1.67-1.63,1.23,2.19a10.11,10.11,0,0,0,.92,1.39,2.77,2.77,0,0,0,.87.72,2.43,2.43,0,0,0,1.07.21h.93v2.46Z"/><path class="cls-3" d="M308.43,646.05a5.36,5.36,0,0,1-1.55,4.23q-1.54,1.37-5,1.37h-3.1a.66.66,0,0,1-.55-.35,1.74,1.74,0,0,1-.22-.9,1.66,1.66,0,0,1,.22-.88.66.66,0,0,1,.55-.33h3.17a7.83,7.83,0,0,0,3.26-.56,2.32,2.32,0,0,0,1.41-1.59,3.13,3.13,0,0,0,.05-.36c0-.14,0-.35,0-.63a6.81,6.81,0,0,1-1.6.53,7.31,7.31,0,0,1-1.41.14,3.11,3.11,0,0,1-2.43-.93,3.69,3.69,0,0,1-.83-2.55,6.1,6.1,0,0,1,.29-1.84,5.82,5.82,0,0,1,.8-1.64,4.08,4.08,0,0,1,1.22-1.16,2.77,2.77,0,0,1,1.53-.45,2.71,2.71,0,0,1,2,.78,5.79,5.79,0,0,1,1.3,2,10.41,10.41,0,0,1,.7,2.58A17.18,17.18,0,0,1,308.43,646.05Zm-6.17-10.62-1.89-1.57,1.37-1.63,1.86,1.56Zm4.22,8.57a6.19,6.19,0,0,0-.85-2.57,1.89,1.89,0,0,0-1.65-1,1.72,1.72,0,0,0-1.36.75A2.9,2.9,0,0,0,302,643a1.64,1.64,0,0,0,.42,1.12,1.79,1.79,0,0,0,1.41.48,6.19,6.19,0,0,0,1.47-.16A5,5,0,0,0,306.48,644Zm-.42-8.57-1.85-1.57,1.41-1.63,1.82,1.56Z"/><path class="cls-3" d="M321.84,651.65a4.41,4.41,0,0,1-2.38-.54,3.2,3.2,0,0,1-1.25-1.41,5.54,5.54,0,0,1-.48-2c-.06-.75-.09-1.51-.11-2.28-.05-1.08-.07-2.26-.08-3.53s0-2.57-.07-3.89-.07-2.65-.11-4-.11-2.61-.19-3.83l2.05-1c.06,1.73.1,3.28.12,4.64s0,2.65.05,3.84,0,2.34,0,3.43,0,2.21.06,3.39c0,.64,0,1.24.08,1.81a4.85,4.85,0,0,0,.29,1.47,2.19,2.19,0,0,0,.75,1,2.47,2.47,0,0,0,1.44.37h1v2.46Z"/><path class="cls-3" d="M339.18,651.65a9.37,9.37,0,0,1-1.71-.14,3.28,3.28,0,0,1-1.28-.55,3.65,3.65,0,0,1-1-1.12,9.8,9.8,0,0,1-.82-1.84l-2.28,1.44a18.39,18.39,0,0,1-2.1,1.17,10.83,10.83,0,0,1-2.27.77,12.94,12.94,0,0,1-2.79.27h-1.88a.65.65,0,0,1-.55-.35,1.65,1.65,0,0,1-.22-.9,1.57,1.57,0,0,1,.22-.88.65.65,0,0,1,.55-.33h2a13.35,13.35,0,0,0,2.88-.26,10.1,10.1,0,0,0,2.13-.73c.67-.32,1.4-.72,2.19-1.19s1.8-1,3-1.6c-.77-.23-1.48-.48-2.14-.73l-1.8-.72c-.53-.23-1-.42-1.37-.56a2.73,2.73,0,0,0-.9-.23,1.92,1.92,0,0,0-1.05.42,9,9,0,0,0-1.6,1.6l-1.35-.8c.26-.41.55-.82.87-1.25a10.57,10.57,0,0,1,1-1.17,5.87,5.87,0,0,1,1.09-.85,2.24,2.24,0,0,1,1.11-.32,4.73,4.73,0,0,1,1.82.48c.72.32,1.54.67,2.43,1a30.72,30.72,0,0,0,2.91,1,11.05,11.05,0,0,0,3.24.48h.64l-.52,2.4a10.43,10.43,0,0,0-2.06.34,10.85,10.85,0,0,0-1.71.62,4.23,4.23,0,0,0,.67,1.14,2.27,2.27,0,0,0,.75.59,2.54,2.54,0,0,0,.87.23c.3,0,.64,0,1,0h2.5v2.46Zm-9.15,6L328.08,656l1.44-1.69,2,1.63Z"/><path class="cls-3" d="M350.83,651.65a5.22,5.22,0,0,1-2.38-.48,3.32,3.32,0,0,1-1.49-1.63,4.26,4.26,0,0,1-1.58,1.6,5,5,0,0,1-2.39.51h-1.31a.68.68,0,0,1-.55-.35,1.74,1.74,0,0,1-.22-.9,1.66,1.66,0,0,1,.22-.88.68.68,0,0,1,.55-.33H343a3.75,3.75,0,0,0,2.32-.59,3,3,0,0,0,.85-2.26l0-1.22,1.79-.44a15.8,15.8,0,0,0,.13,2.14,3.49,3.49,0,0,0,.48,1.39,1.94,1.94,0,0,0,1,.75,4.78,4.78,0,0,0,1.61.23h1.25v2.46Zm-3.78-9.44-1.95-1.66,1.44-1.7,2,1.63Z"/><path class="cls-3" d="M351.7,657.51l-1.89-1.57,1.37-1.63,1.86,1.57Zm4.86-9.7a4.73,4.73,0,0,0-.38-1.36,10.76,10.76,0,0,0-1.32-2.25l1.64-1.73a8.57,8.57,0,0,1,1.5,2.62,7.54,7.54,0,0,1,.48,2.43,3.84,3.84,0,0,1-1.23,3.08,5.82,5.82,0,0,1-3.83,1h-1a.65.65,0,0,1-.54-.35,1.65,1.65,0,0,1-.23-.9,1.57,1.57,0,0,1,.23-.88.65.65,0,0,1,.54-.33h1a6.75,6.75,0,0,0,2.17-.32C356.25,648.65,356.56,648.3,356.56,647.81Zm-1.06,9.7-1.85-1.57,1.4-1.63,1.83,1.57Z"/><path class="cls-3" d="M364.49,651.33l-2,.48v-21.6l2-1Z"/><path class="cls-3" d="M380.24,648.9a6.21,6.21,0,0,1-.64,2.72,11.28,11.28,0,0,1-1.76,2.54,20.48,20.48,0,0,1-2.66,2.42c-1,.79-2.12,1.58-3.29,2.37l-1.64-1.57a38.37,38.37,0,0,0,3.43-2.35,27.78,27.78,0,0,0,2.54-2.21,10.55,10.55,0,0,0,1.59-1.94,3.13,3.13,0,0,0,.54-1.56,3.31,3.31,0,0,0-.16-1,9.86,9.86,0,0,0-.43-1.16c-.18-.4-.4-.82-.64-1.24s-.51-.85-.79-1.25l1.64-1.63a12.87,12.87,0,0,1,1.72,3.12A7.77,7.77,0,0,1,380.24,648.9Z"/><path class="cls-3" d="M394.89,647a4.78,4.78,0,0,1-.56,2.47,4.1,4.1,0,0,1-1.48,1.5,6.44,6.44,0,0,1-2.15.75,14.81,14.81,0,0,1-2.53.21,9.2,9.2,0,0,1-2.59-.32,4.45,4.45,0,0,1-2-1.34l1.09-1.83a4.08,4.08,0,0,0,1.64.84,9.77,9.77,0,0,0,2,.19,8.15,8.15,0,0,0,3.52-.61c.81-.41,1.22-.91,1.22-1.5a3.33,3.33,0,0,0-.24-1.08,6.6,6.6,0,0,0-.82-1.47,12.76,12.76,0,0,0-1.55-1.76,17.9,17.9,0,0,0-2.45-1.93l1-2.34a15.31,15.31,0,0,1,2.2,1.62,14,14,0,0,1,1.9,2,10.64,10.64,0,0,1,1.33,2.25A5.94,5.94,0,0,1,394.89,647Z"/><path class="cls-3" d="M414.32,647.46a2.73,2.73,0,0,1-.21,1,3.83,3.83,0,0,1-.56,1,3.17,3.17,0,0,1-.83.72,2.06,2.06,0,0,1-1.06.29H407.5c-.92,0-1.51.2-1.78.62a4.24,4.24,0,0,0-.39,2.13v11.55h-1.77q-.06-3.39-.09-5.55c0-1.44,0-2.59-.05-3.44s0-1.46,0-1.83v-.7a7.46,7.46,0,0,1,.59-3.43,3.25,3.25,0,0,1,1.8-1.53,19.18,19.18,0,0,1,.21-2,7.55,7.55,0,0,1,.6-2,4.47,4.47,0,0,1,1.08-1.49,2.51,2.51,0,0,1,1.7-.59,3.68,3.68,0,0,1,1.74.46,6,6,0,0,1,1.59,1.22,6.61,6.61,0,0,1,1.15,1.7A4.34,4.34,0,0,1,414.32,647.46Zm-1.73.06a2.35,2.35,0,0,0-.35-1,5.08,5.08,0,0,0-.8-1,4.71,4.71,0,0,0-1.06-.77,2.41,2.41,0,0,0-1.12-.3c-.57,0-1,.36-1.3,1.09a8.34,8.34,0,0,0-.49,2.69l1,0,1.25,0h2a.82.82,0,0,0,.58-.22A1,1,0,0,0,412.59,647.52Z"/><path class="cls-3" d="M422.89,651.65a4.41,4.41,0,0,1-2.38-.54,3.26,3.26,0,0,1-1.25-1.41,5.54,5.54,0,0,1-.48-2c0-.75-.09-1.51-.11-2.28,0-1.08-.07-2.26-.08-3.53s0-2.57-.06-3.89-.07-2.65-.12-4-.1-2.61-.19-3.83l2-1c.06,1.73.11,3.28.13,4.64s0,2.65.05,3.84,0,2.34,0,3.43,0,2.21.07,3.39c0,.64,0,1.24.08,1.81a4.86,4.86,0,0,0,.28,1.47,2.19,2.19,0,0,0,.75,1,2.51,2.51,0,0,0,1.44.37h1v2.46Z"/><path class="cls-3" d="M428.24,647.81a4.53,4.53,0,0,0-.39-1.36,10.24,10.24,0,0,0-1.31-2.25l1.63-1.73a8.4,8.4,0,0,1,1.51,2.62,7.54,7.54,0,0,1,.48,2.43,3.82,3.82,0,0,1-1.24,3.08,5.79,5.79,0,0,1-3.82,1h-1a.66.66,0,0,1-.55-.35,1.74,1.74,0,0,1-.22-.9,1.66,1.66,0,0,1,.22-.88.66.66,0,0,1,.55-.33h1a6.81,6.81,0,0,0,2.18-.32C427.93,648.65,428.24,648.3,428.24,647.81Zm-.13-7.84-1.95-1.66,1.44-1.7,1.95,1.63Z"/><rect class="cls-4" x="191.5" width="1" height="1080"/><path d="M440.53,939.21h0a15.59,15.59,0,0,1-15.6-15.6V908h31.21v15.6A15.6,15.6,0,0,1,440.53,939.21Z"/><path class="cls-3" d="M443.64,926.26v3h-1.72v-3h-6.38v-1.78l5.28-9.16h1.8l-5.44,9.4h4.74v-4.14h1.72v4.14h1.88v1.54Z"/><path d="M524.3,807.19h0a15.6,15.6,0,0,1-15.6-15.6V776h31.21v15.61A15.6,15.6,0,0,1,524.3,807.19Z"/><path class="cls-3" d="M527.54,796.2a4.4,4.4,0,0,1-3.37,1.26A4.35,4.35,0,0,1,521,796.2a4.14,4.14,0,0,1-1.18-3h1.74a2.9,2.9,0,0,0,.72,1.92,2.44,2.44,0,0,0,1.9.78,2.59,2.59,0,0,0,2-.8,2.56,2.56,0,0,0,.66-1.76c0-1.7-1.16-2.58-2.86-2.58h-.84V789.2H524a2.26,2.26,0,0,0,2.56-2.34,2.17,2.17,0,0,0-.66-1.62,2.3,2.3,0,0,0-1.7-.68,2.39,2.39,0,0,0-2.54,2.52h-1.74a3.84,3.84,0,0,1,1.34-3.06,4.58,4.58,0,0,1,3-1,4.33,4.33,0,0,1,3,1.12,3.55,3.55,0,0,1,1.11,2.73,3.54,3.54,0,0,0,.29,6.54A4.1,4.1,0,0,1,527.54,796.2Z"/><path d="M414.49,617.78h0a15.61,15.61,0,0,1-15.6-15.6V586.57H430.1v15.61A15.61,15.61,0,0,1,414.49,617.78Z"/><path class="cls-3" d="M414.52,607.79v-12l-3.3,2.42v-1.9l3.4-2.46h1.64v13.91Z"/><path d="M609.83,677.48h0a15.61,15.61,0,0,1-15.6-15.61v-15.6h31.21v15.6A15.61,15.61,0,0,1,609.83,677.48Z"/><path class="cls-3" d="M605.68,667.48V666l5.62-6.94a3.06,3.06,0,0,0,.77-2,2.05,2.05,0,0,0-2.28-2.24,2.23,2.23,0,0,0-2.37,2.52h-1.76a3.86,3.86,0,0,1,4.1-4.06,4,4,0,0,1,3.41,1.6,3.59,3.59,0,0,1,.64,2.16,4.52,4.52,0,0,1-1.19,3l-4.72,5.86H614v1.6Z"/><rect class="cls-5" x="1727.5" width="1" height="1080"/><rect class="cls-6" y="971.5" width="1920" height="1"/><rect class="cls-7" y="107.5" width="1920" height="1"/><rect class="cls-8" y="886.95" width="1920" height="1"/><rect class="cls-9" x="959.5" width="1" height="216"/><rect class="cls-10" x="959.5" y="864" width="1" height="216"/><rect class="cls-11" x="1536" y="539.34" width="384" height="1.33"/><rect class="cls-12" y="539.34" width="384" height="1.33"/><rect class="cls-13" x="892.31" y="539.42" width="135.39" height="1"/><rect class="cls-14" x="959.5" y="472.23" width="1" height="135.39"/></g></svg>