<svg xmlns="http://www.w3.org/2000/svg" viewBox="0 0 1920 1080"><defs><style>.cls-1{fill:#dedcda;}.cls-2{fill:#2f2f59;}.cls-3{fill:#a49269;}.cls-4{fill:#4f2a22;}.cls-5{fill:#b89f96;}.cls-6{fill:#646d41;}.cls-7{font-size:100px;font-family:Approach-Light, Approach;font-weight:300;}</style></defs><g id="Background"><rect class="cls-1" width="1920" height="1080"/></g><g id="Graphic"><path class="cls-2" d="M539.29,87.11V540h452.9C992.19,289.87,789.42,87.11,539.29,87.11Z"/><path class="cls-3" d="M131.05,343.67,539.29,540V87.11C359.51,87.11,204.19,191.86,131.05,343.67Z"/><path class="cls-4" d="M539.29,540,131.05,343.67A451.17,451.17,0,0,0,86.4,540c0,215.06,149.9,395.11,350.92,441.37Z"/><path class="cls-5" d="M803.09,908.17,539.29,540l-102,441.37h0a454.11,454.11,0,0,0,365.77-73.2Z"/><path class="cls-6" d="M539.29,540l263.8,368.17C917.6,826,992.19,691.7,992.19,540Z"/><rect class="cls-4" x="1181.29" y="87.11" width="67.55" height="67.55"/><text class="cls-7" transform="translate(1183.86 198.61) rotate(90)">instagram</text><rect class="cls-2" x="1327.48" y="87.11" width="67.55" height="67.55"/><text class="cls-7" transform="translate(1330.06 198.61) rotate(90)">facebook</text><rect class="cls-6" x="1473.67" y="87.11" width="67.55" height="67.55"/><text class="cls-7" transform="translate(1476.24 198.61) rotate(90)">pinterest</text><rect class="cls-5" x="1619.86" y="87.11" width="67.55" height="67.55"/><text class="cls-7" transform="translate(1622.43 198.61) rotate(90)">linkedin</text><rect class="cls-3" x="1766.05" y="87.11" width="67.55" height="67.55"/><text class="cls-7" transform="translate(1768.63 198.61) rotate(90)">twitter</text></g></svg>