<svg xmlns="http://www.w3.org/2000/svg" viewBox="0 0 1080 1080"><defs><style>.cls-1{fill:#e5e2d9;}.cls-2{fill:#2f2f59;}.cls-3{fill:#a49269;}.cls-4{fill:#4f2a22;}.cls-5{fill:#b89f96;}.cls-6{fill:#646d41;}</style></defs><g id="Graphic"><rect class="cls-1" width="1080" height="1080"/><path class="cls-2" d="M540,87.11V540H992.89C992.89,289.87,790.13,87.11,540,87.11Z"/><path class="cls-3" d="M131.76,343.67,540,540V87.11C360.22,87.11,204.9,191.86,131.76,343.67Z"/><path class="cls-4" d="M540,540,131.76,343.67A451,451,0,0,0,87.11,540C87.11,755.06,237,935.11,438,981.37Z"/><path class="cls-5" d="M803.8,908.17,540,540,438,981.37h0a454.11,454.11,0,0,0,365.77-73.2Z"/><path class="cls-6" d="M540,540,803.8,908.17C918.3,826,992.89,691.7,992.89,540Z"/></g></svg>