<svg xmlns="http://www.w3.org/2000/svg" xmlns:xlink="http://www.w3.org/1999/xlink" viewBox="0 0 1920 1080"><defs><style>.cls-1{fill:#082b96;}.cls-2{fill:url(#linear-gradient);}.cls-3{fill:url(#linear-gradient-2);}.cls-4{fill:url(#linear-gradient-3);}.cls-5{fill:url(#linear-gradient-4);}.cls-6{fill:#fff;}.cls-7{fill:#061f6b;}.cls-8{fill:url(#linear-gradient-5);}.cls-9{fill:url(#linear-gradient-6);}.cls-10{fill:url(#linear-gradient-7);}.cls-11{fill:url(#linear-gradient-8);}.cls-12{fill:url(#linear-gradient-9);}.cls-13{fill:#f5cebc;}</style><linearGradient id="linear-gradient" x1="21831.35" y1="2622.45" x2="21831.35" y2="702.45" gradientTransform="translate(-702.45 21917.72) rotate(-90)" gradientUnits="userSpaceOnUse"><stop offset="0" stop-color="#fff" stop-opacity="0"/><stop offset="0.51" stop-color="#fff"/><stop offset="1" stop-color="#fff" stop-opacity="0"/></linearGradient><linearGradient id="linear-gradient-2" x1="20924.09" y1="2622.45" x2="20924.09" y2="702.45" xlink:href="#linear-gradient"/><linearGradient id="linear-gradient-3" x1="22251.32" y1="6234.44" x2="22251.32" y2="5154.44" gradientTransform="translate(-20417.72 -5154.44)" xlink:href="#linear-gradient"/><linearGradient id="linear-gradient-4" x1="20504.09" y1="6234.44" x2="20504.09" y2="5154.44" gradientTransform="translate(-20417.72 -5154.44)" xlink:href="#linear-gradient"/><linearGradient id="linear-gradient-5" x1="21746.28" y1="2622.45" x2="21746.28" y2="702.45" xlink:href="#linear-gradient"/><linearGradient id="linear-gradient-6" x1="21009.32" y1="2622.45" x2="21009.32" y2="702.45" xlink:href="#linear-gradient"/><linearGradient id="linear-gradient-7" x1="20126.42" y1="2622.45" x2="20126.42" y2="702.45" gradientTransform="translate(-702.46 20666.42) rotate(-90)" xlink:href="#linear-gradient"/><linearGradient id="linear-gradient-8" x1="20020.75" y1="2622.45" x2="20020.75" y2="702.45" gradientTransform="translate(-702.46 20666.42) rotate(-90)" xlink:href="#linear-gradient"/><linearGradient id="linear-gradient-9" x1="20072.17" y1="2622.45" x2="20072.17" y2="702.45" gradientTransform="translate(-702.46 20666.42) rotate(-90)" xlink:href="#linear-gradient"/></defs><g id="Graphic"><rect class="cls-1" width="1920" height="1080"/><rect class="cls-2" y="85.87" width="1920" height="1"/><rect class="cls-3" y="993.13" width="1920" height="1"/><rect class="cls-4" x="1833.1" width="1" height="1080"/><rect class="cls-5" x="85.87" width="1" height="1080"/><rect class="cls-6" x="1833.6" width="86.37" height="21.59"/><rect class="cls-6" x="1833.6" y="64.78" width="86.37" height="21.59"/><rect class="cls-6" x="1829.74" y="32.41" width="94.13" height="21.59" transform="translate(400.26 1202.54) rotate(-39.46)"/><rect class="cls-6" x="1747.14" y="85.07" width="86.37" height="21.59"/><rect class="cls-6" x="1747.14" y="149.84" width="86.37" height="21.59"/><rect class="cls-6" x="1743.28" y="117.47" width="94.13" height="21.59" transform="translate(326.49 1166.98) rotate(-39.46)"/><rect class="cls-6" width="86.37" height="21.59"/><rect class="cls-6" y="64.78" width="86.37" height="21.59"/><rect class="cls-6" x="-3.86" y="32.41" width="94.13" height="21.59" transform="translate(-17.61 37.3) rotate(-39.46)"/><rect class="cls-6" x="1833.6" y="993.63" width="86.37" height="21.59"/><rect class="cls-6" x="1833.6" y="1058.41" width="86.37" height="21.59"/><rect class="cls-6" x="1829.74" y="1026.04" width="94.13" height="21.59" transform="translate(-231.19 1428.99) rotate(-39.46)"/><rect class="cls-6" x="1747.7" y="908.4" width="85.23" height="21.31"/><rect class="cls-6" x="1747.7" y="972.32" width="85.23" height="21.31"/><rect class="cls-6" x="1743.88" y="940.38" width="92.89" height="21.31" transform="translate(-196.37 1354.48) rotate(-39.46)"/><rect class="cls-6" y="993.63" width="86.37" height="21.59"/><rect class="cls-6" y="1058.41" width="86.37" height="21.59"/><rect class="cls-6" x="-3.86" y="1026.04" width="94.13" height="21.59" transform="translate(-649.06 263.74) rotate(-39.46)"/><path class="cls-7" d="M970.66,171.43H949.34C733.44,174.5,540,270.37,407.09,421V908.57H1512.91V421C1380,270.37,1186.56,174.5,970.66,171.43Z"/><path class="cls-6" d="M880,644.22a7.72,7.72,0,0,0,5.13-1.64A9.75,9.75,0,0,0,888,637.5l2.51.36a11.3,11.3,0,0,1-3.7,6.37,11.41,11.41,0,0,1-15-1.13q-3-3.37-3-9.28t3-9.19a10.18,10.18,0,0,1,8.12-3.47,10.79,10.79,0,0,1,7.18,2.29,11,11,0,0,1,3.54,6.7l-2.6.42a9.51,9.51,0,0,0-2.75-5.39,7.87,7.87,0,0,0-5.37-1.75,7.65,7.65,0,0,0-6.26,2.76q-2.25,2.76-2.25,7.63t2.26,7.62A7.63,7.63,0,0,0,880,644.22Z"/><path class="cls-6" d="M898.13,646.08h-2.55V621.57h2.55v10.92h13.23V621.57h2.56v24.51h-2.56V634.76H898.13Z"/><path class="cls-6" d="M934.18,639.46H923.23l-2.59,6.62h-2.7l9.7-24.51H930l9.57,24.51h-2.9Zm-10.12-2.2h9.29l-4.55-12.12Z"/><path class="cls-6" d="M946.22,646.08h-2.55V621.57h9a8.65,8.65,0,0,1,6,2.13,7,7,0,0,1,2.36,5.4,7.85,7.85,0,0,1-2.4,5.78,8.13,8.13,0,0,1-6,2.34h-6.48Zm12.25-17a4.88,4.88,0,0,0-1.67-3.82,6,6,0,0,0-4.27-1.51h-6.31V635h6.31a5.64,5.64,0,0,0,4.27-1.68A5.72,5.72,0,0,0,958.47,629.1Z"/><path class="cls-6" d="M962.78,621.57H981v2.24h-7.81v22.27h-2.55V623.81h-7.85Z"/><path class="cls-6" d="M1001.78,646.08H985V621.57h16.38v2.24H987.59v8.68H1000v2.17H987.59v9.18h14.19Z"/><path class="cls-6" d="M1023.69,639.63l.34,6.45h-2.56l-.34-6.51a3.33,3.33,0,0,0-1.3-2.7A6.87,6.87,0,0,0,1016,636h-6.41v10.05H1007V621.57h9.06a8.5,8.5,0,0,1,5.81,1.89,6,6,0,0,1,2.21,4.81,7.3,7.3,0,0,1-1,3.83,6.83,6.83,0,0,1-2.89,2.63A5,5,0,0,1,1023.69,639.63Zm-2.26-11.26A4.15,4.15,0,0,0,1020,625a6.15,6.15,0,0,0-4.07-1.25h-6.34v10.05h6.3a5.42,5.42,0,0,0,4-1.54A5.19,5.19,0,0,0,1021.43,628.37Z"/><path class="cls-6" d="M1050.17,627.91a4.26,4.26,0,0,0-1.31-3.28,4.78,4.78,0,0,0-3.42-1.23q-5.87,0-5.82,7l-2.41-.31a8.37,8.37,0,0,1,2.07-6.47,8,8,0,0,1,6.09-2.41,7.49,7.49,0,0,1,5.4,1.88,6.49,6.49,0,0,1,2,4.94,8.75,8.75,0,0,1-1.24,4.37,21.21,21.21,0,0,1-4,4.77l-7.28,6.79h13v2.17H1037v-2.34l9-8.34a16.12,16.12,0,0,0,3.22-3.83A7.45,7.45,0,0,0,1050.17,627.91Z"/><path class="cls-6" d="M632.05,529.29a12.3,12.3,0,0,1-1.19,5.81,9.06,9.06,0,0,1-3.18,3.5,12.24,12.24,0,0,1-4.69,1.68,36.67,36.67,0,0,1-5.64.42,17.11,17.11,0,0,1-5.81-.88,13.09,13.09,0,0,1-4.9-3.39l3.5-6.09a11.75,11.75,0,0,0,3.36,1.75,13.91,13.91,0,0,0,4.2.56,19.63,19.63,0,0,0,6.34-.81c1.51-.53,2.27-1.22,2.27-2.06q0-1.75-2.52-4.76a38.66,38.66,0,0,0-8.26-6.8l3.15-7.49a36.07,36.07,0,0,1,4.87,3.54,30.47,30.47,0,0,1,4.3,4.51,23.82,23.82,0,0,1,3,5.15A13.51,13.51,0,0,1,632.05,529.29Z"/><path class="cls-6" d="M656.77,540a13.29,13.29,0,0,1-2.24-.18,4,4,0,0,1-2-.94,14.91,14.91,0,0,1-1.82,5.43,25.68,25.68,0,0,1-3.78,5.07,43.62,43.62,0,0,1-5.43,4.83c-2.08,1.59-4.31,3.15-6.69,4.7l-5.39-5.12q3.85-2.31,7.07-4.62a54.88,54.88,0,0,0,5.47-4.41,25.59,25.59,0,0,0,3.5-3.92,5.9,5.9,0,0,0,1.26-3.22,10.42,10.42,0,0,0-1.26-4,42.73,42.73,0,0,0-3.22-5.49l5.32-5.33c1,1.69,1.83,3.11,2.55,4.28a25.48,25.48,0,0,0,2,2.83,6.29,6.29,0,0,0,1.82,1.58,4.29,4.29,0,0,0,2,.49h2.8v8Z"/><path class="cls-6" d="M678.41,540a11.25,11.25,0,0,1-4.77-.91,7.86,7.86,0,0,1-3.29-3,9,9,0,0,1-3.5,3,11.74,11.74,0,0,1-5,1h-3c-.51,0-.93-.36-1.26-1.09a7.08,7.08,0,0,1-.49-2.9,7.38,7.38,0,0,1,.49-2.94c.33-.75.75-1.12,1.26-1.12h2.87a19.44,19.44,0,0,0,2.91-.18,4.24,4.24,0,0,0,1.89-.7,3,3,0,0,0,1.08-1.47,7.74,7.74,0,0,0,.42-2.41v-2.94l5.81-1.48q0,2.6.18,4.35a8.09,8.09,0,0,0,.73,2.83,3.19,3.19,0,0,0,1.62,1.54,7.22,7.22,0,0,0,2.87.46h3.29v8Zm-12.68,14.07-5.11-4.34,4.06-4.83,5.18,4.27Zm9,0-5.11-4.34,4.06-4.83,5.12,4.27Z"/><path class="cls-6" d="M702.07,528a12.23,12.23,0,0,1-1,5,10.77,10.77,0,0,1-2.84,3.78,12.3,12.3,0,0,1-4.37,2.34,18.66,18.66,0,0,1-5.64.81h-5.74c-.52,0-.94-.36-1.26-1.09a7.08,7.08,0,0,1-.49-2.9,7.38,7.38,0,0,1,.49-2.94c.32-.75.74-1.12,1.26-1.12h6.09a13.18,13.18,0,0,0,5.36-.84,5.28,5.28,0,0,0,2.48-2.1,12.37,12.37,0,0,0-3.61-6.09,72.32,72.32,0,0,0-9.06-7.57,39.07,39.07,0,0,1,.66-5,3.7,3.7,0,0,1,1.16-2.24q2.31-1.54,5.14-3.19c1.89-1.09,3.83-2.18,5.82-3.25s3.94-2.1,5.88-3.08,3.72-1.87,5.35-2.66l-1,8.47q-4.55,2-8.33,4t-7.14,4Q702.07,521,702.07,528Zm3-33.68c-3,1.49-6.14,3.15-9.45,5s-6.82,3.92-10.5,6.3l.63-5q5.46-3.57,10.43-6.37t9.59-5.11Z"/><path class="cls-6" d="M745.9,540c-1.63,0-3.14-.12-4.51-.21s-2.35-.14-2.91-.14a5,5,0,0,0-2,.28q-.6.29-.6.63a.59.59,0,0,0,.28.53,5.21,5.21,0,0,0,1.26.38l4.76.91a8.36,8.36,0,0,1,3.47,1.33,3.33,3.33,0,0,1,1.22,2.87,7.66,7.66,0,0,1-1.85,5,15.27,15.27,0,0,1-4.8,3.78,27.22,27.22,0,0,1-6.58,2.39,31.73,31.73,0,0,1-7.14.84,20.62,20.62,0,0,1-6.76-1,14.28,14.28,0,0,1-5.18-3.05,13.76,13.76,0,0,1-3.33-5,18.61,18.61,0,0,1-1.19-6.9,19.45,19.45,0,0,1,1.05-6.58,36.74,36.74,0,0,1,3.09-6.37l5,2a29.77,29.77,0,0,0-2.31,5.46,15,15,0,0,0-.7,4.2,8.56,8.56,0,0,0,2.83,6.9q2.84,2.41,8.23,2.41a31.06,31.06,0,0,0,4.52-.31,36.34,36.34,0,0,0,3.85-.77,24.62,24.62,0,0,0,3-1c.84-.35,1.5-.64,2-.88a5.31,5.31,0,0,0-2.24-.7l-3.64-.77a7.93,7.93,0,0,1-3.67-1.61,4.81,4.81,0,0,1-1.44-3.92,7.63,7.63,0,0,1,3.12-6.51q3.11-2.31,9.69-2.31h4.55v8Z"/><path class="cls-6" d="M764.6,518.5a6.06,6.06,0,0,1,3.74,1.23,10.53,10.53,0,0,1,2.81,3.22,17.47,17.47,0,0,1,1.78,4.45,19.86,19.86,0,0,1,.63,5,8.12,8.12,0,0,1-.56,2.87,10.25,10.25,0,0,1-1.47,2.66,7.93,7.93,0,0,1-2.1,1.92,4.6,4.6,0,0,1-2.45.74,11.13,11.13,0,0,1-2.49-.31,23.91,23.91,0,0,1-2.8-.85,21,21,0,0,1-2.83-1.29,19.22,19.22,0,0,1-2.59-1.68,9.84,9.84,0,0,1-3.64,2.8A12.39,12.39,0,0,1,748,540h-1.12q-.76,0-1.26-1.23a7.28,7.28,0,0,1-.49-2.69,8.14,8.14,0,0,1,.49-2.84q.5-1.29,1.26-1.29h.84a15.65,15.65,0,0,0,3.65-.42,4.24,4.24,0,0,0,2.73-2.17c.74-1.4,1.51-2.76,2.31-4.06a25.57,25.57,0,0,1,2.48-3.47,13,13,0,0,1,2.7-2.42A5.45,5.45,0,0,1,764.6,518.5Zm-.7,7.43a3.08,3.08,0,0,0-2.17,1.19,13,13,0,0,0-2.17,3.43,10.67,10.67,0,0,0,1.61,1.05,16.16,16.16,0,0,0,1.85.84,11.3,11.3,0,0,0,1.86.52,8.33,8.33,0,0,0,1.61.18,1.94,1.94,0,0,0,.91-.28,1.36,1.36,0,0,0,.63-.63,7.71,7.71,0,0,0-.32-2.14,7.89,7.89,0,0,0-.91-2,6.14,6.14,0,0,0-1.33-1.54A2.42,2.42,0,0,0,763.9,525.93Z"/><path class="cls-6" d="M811.23,533.14a14.39,14.39,0,0,1-1.4,6.19A23.91,23.91,0,0,1,806,545a44,44,0,0,1-5.71,5.32q-3.3,2.6-7.14,5l-5.4-5.11q3.86-2.31,7.08-4.62a55.83,55.83,0,0,0,5.46-4.41,25.59,25.59,0,0,0,3.5-3.92,5.9,5.9,0,0,0,1.26-3.22,6.24,6.24,0,0,0-.35-1.79,21.35,21.35,0,0,0-1-2.38,24.12,24.12,0,0,0-1.43-2.66c-.56-.91-1.15-1.81-1.75-2.69l5.25-5.26A33.22,33.22,0,0,1,810,527,18.85,18.85,0,0,1,811.23,533.14Z"/><path class="cls-6" d="M826.22,538.88l-6.59,1.47V494.14l6.59-3.15Z"/><path class="cls-6" d="M851.21,540a13.29,13.29,0,0,1-2.24-.18,4,4,0,0,1-2-.94,14.73,14.73,0,0,1-1.82,5.43,25.68,25.68,0,0,1-3.78,5.07,43.62,43.62,0,0,1-5.43,4.83c-2.08,1.59-4.3,3.15-6.69,4.7l-5.39-5.12q3.86-2.31,7.08-4.62a55.83,55.83,0,0,0,5.46-4.41,25.59,25.59,0,0,0,3.5-3.92,5.9,5.9,0,0,0,1.26-3.22,10.42,10.42,0,0,0-1.26-4,42.73,42.73,0,0,0-3.22-5.49l5.32-5.33c1,1.69,1.83,3.11,2.55,4.28a25.48,25.48,0,0,0,2,2.83,6.42,6.42,0,0,0,1.82,1.58,4.29,4.29,0,0,0,2,.49h2.8v8Z"/><path class="cls-6" d="M865,507.93a6.82,6.82,0,0,1,4.73,1.72,12.41,12.41,0,0,1,3.08,4.34,23.26,23.26,0,0,1,1.65,5.84,42.43,42.43,0,0,1,.49,6.24q0,7.35-3.47,10.64T860.24,540h-7c-.51,0-.93-.36-1.26-1.09a7.08,7.08,0,0,1-.49-2.9,7.38,7.38,0,0,1,.49-2.94c.33-.75.75-1.12,1.26-1.12h7.14a24.18,24.18,0,0,0,5.15-.56,5.66,5.66,0,0,0,3.47-1.82,1.68,1.68,0,0,0,.24-.91c0-.42,0-1,0-1.75a14.49,14.49,0,0,1-3.09.73,21.19,21.19,0,0,1-2.52.18q-7.83,0-7.84-8.27a13.12,13.12,0,0,1,.7-4.2,13.83,13.83,0,0,1,1.89-3.74,9.68,9.68,0,0,1,2.87-2.66A7,7,0,0,1,865,507.93Zm-4.83-4.41-5.11-4.27,4.06-4.83,5.18,4.2Zm4.13,11.34a3,3,0,0,0-2.45,1.26,4.29,4.29,0,0,0-1,2.66,2.31,2.31,0,0,0,.77,1.72,3.6,3.6,0,0,0,2.52.73,13,13,0,0,0,2.59-.24,8.9,8.9,0,0,0,2-.6,9,9,0,0,0-1.62-3.95A3.45,3.45,0,0,0,864.3,514.86Zm4.84-11.34L864,499.25l4.07-4.83,5.11,4.2Z"/><path class="cls-6" d="M906.94,540a9.81,9.81,0,0,1-5.25-1.23,8.31,8.31,0,0,1-3-3.22,13.79,13.79,0,0,1-1.4-4.55,49.25,49.25,0,0,1-.42-5.21q-.14-3.22-.21-7.22c0-2.66-.1-5.39-.17-8.19s-.17-5.6-.28-8.4-.27-5.42-.46-7.84l6.51-3.15c0,2.61,0,5.31,0,8.08s.07,5.55.14,8.3.14,5.49.21,8.19.13,5.28.17,7.71c0,1.12,0,2.2.07,3.25a10.08,10.08,0,0,0,.49,2.8,3.92,3.92,0,0,0,1.37,1.93,4.79,4.79,0,0,0,2.84.7h2.8v8Z"/><path class="cls-6" d="M944.48,540a21.69,21.69,0,0,1-3.72-.28,7.17,7.17,0,0,1-2.8-1.09,8.17,8.17,0,0,1-2.17-2.27,17.43,17.43,0,0,1-1.82-3.92l-4.58,3a35.22,35.22,0,0,1-4.17,2.38,21.36,21.36,0,0,1-4.45,1.58,23.64,23.64,0,0,1-5.42.56h-5c-.52,0-.94-.36-1.26-1.09a7.08,7.08,0,0,1-.49-2.9,7.38,7.38,0,0,1,.49-2.94c.32-.75.74-1.12,1.26-1.12h5.18a30.83,30.83,0,0,0,4.86-.32,18.26,18.26,0,0,0,3.79-1,35.62,35.62,0,0,0,3.95-1.89q2.1-1.16,5.32-2.83l-3.18-1-2.91-.91c-.89-.28-1.66-.52-2.31-.7a5.73,5.73,0,0,0-1.47-.28,3.59,3.59,0,0,0-1.82.66,15.4,15.4,0,0,0-3,3.05l-4.48-2.59a30.42,30.42,0,0,1,4.41-6.17q2.37-2.52,4.76-2.52a12.49,12.49,0,0,1,4.06.81l5.08,1.75q2.76.94,5.91,1.75a26.65,26.65,0,0,0,6.66.8h2.24l-1.54,7.15a21.44,21.44,0,0,0-4,.49,17.23,17.23,0,0,0-3.47,1.12,11.53,11.53,0,0,0,1.16,1.54,3.19,3.19,0,0,0,1.12.8,3.75,3.75,0,0,0,1.33.28c.49,0,1.06,0,1.72,0h6.86v8Zm-18.84,13.86-5.32-4.55,4.27-5,5.32,4.48Z"/><path class="cls-6" d="M970.24,540a11.23,11.23,0,0,1-4.76-.91,7.8,7.8,0,0,1-3.29-3,9,9,0,0,1-3.5,3,11.81,11.81,0,0,1-5,1h-3c-.52,0-.94-.36-1.26-1.09a7.08,7.08,0,0,1-.49-2.9,7.38,7.38,0,0,1,.49-2.94c.32-.75.74-1.12,1.26-1.12h2.87a19.39,19.39,0,0,0,2.9-.18,4.24,4.24,0,0,0,1.89-.7,3,3,0,0,0,1.09-1.47,8.37,8.37,0,0,0,.42-2.41v-2.94l5.81-1.48q0,2.6.18,4.35a7.87,7.87,0,0,0,.73,2.83,3.17,3.17,0,0,0,1.61,1.54A7.25,7.25,0,0,0,971,532h3.29v8Zm-7.91-21L957,514.51l4.27-5L966.6,514Z"/><path class="cls-6" d="M972.2,554.07l-5.11-4.34,4.06-4.83,5.18,4.27Zm10.93-24a3.47,3.47,0,0,0-.32-1.19,13.79,13.79,0,0,0-.91-1.79c-.4-.67-.84-1.39-1.33-2.13s-1-1.47-1.57-2.18l5.25-5.53a22.42,22.42,0,0,1,3.92,6.48,17.12,17.12,0,0,1,1.26,6c0,3.36-.94,5.91-2.8,7.66S981.89,540,978,540H974.3c-.51,0-.93-.36-1.26-1.09a7.25,7.25,0,0,1-.49-2.9,7.57,7.57,0,0,1,.49-2.94c.33-.75.75-1.12,1.26-1.12H978a12.16,12.16,0,0,0,3.72-.46C982.66,531.19,983.13,530.71,983.13,530.06Zm-2,24-5.12-4.34,4.07-4.83,5.11,4.27Z"/><path class="cls-6" d="M1004.34,538.88l-6.58,1.47V494.14l6.58-3.15Z"/><path class="cls-6" d="M1042.29,533.14a14.39,14.39,0,0,1-1.4,6.19,23.66,23.66,0,0,1-3.82,5.71,43.26,43.26,0,0,1-5.7,5.32q-3.3,2.6-7.14,5l-5.4-5.11q3.85-2.31,7.08-4.62a55.83,55.83,0,0,0,5.46-4.41,25.59,25.59,0,0,0,3.5-3.92,5.9,5.9,0,0,0,1.26-3.22,6.24,6.24,0,0,0-.35-1.79,23.48,23.48,0,0,0-1-2.38,24.12,24.12,0,0,0-1.43-2.66c-.56-.91-1.15-1.81-1.75-2.69l5.25-5.26a33.22,33.22,0,0,1,4.17,7.67A18.85,18.85,0,0,1,1042.29,533.14Z"/><path class="cls-6" d="M1074.71,529.29a12.42,12.42,0,0,1-1.19,5.81,9.09,9.09,0,0,1-3.19,3.5,12.18,12.18,0,0,1-4.69,1.68,36.54,36.54,0,0,1-5.63.42,17.17,17.17,0,0,1-5.82-.88,13.25,13.25,0,0,1-4.9-3.39l3.5-6.09a12,12,0,0,0,3.36,1.75,14,14,0,0,0,4.21.56,19.61,19.61,0,0,0,6.33-.81c1.52-.53,2.28-1.22,2.28-2.06q0-1.75-2.52-4.76a38.91,38.91,0,0,0-8.26-6.8l3.15-7.49a36,36,0,0,1,4.86,3.54,30.55,30.55,0,0,1,4.31,4.51,23.78,23.78,0,0,1,3,5.15A13.53,13.53,0,0,1,1074.71,529.29Z"/><path class="cls-6" d="M1133.81,540a7.5,7.5,0,0,1-2.6-.46,4.08,4.08,0,0,1-2-1.57v1.08a8.19,8.19,0,0,1-.07,1.09q-.63,8.48-5.39,13t-12.81,4.52a17.74,17.74,0,0,1-6.2-1.06,13.6,13.6,0,0,1-4.9-3.08,14.29,14.29,0,0,1-3.25-5,18.4,18.4,0,0,1-1.2-6.9,19.35,19.35,0,0,1,1.06-6.55,34.42,34.42,0,0,1,3.08-6.33l5,2a28.69,28.69,0,0,0-2.17,4.86,14.82,14.82,0,0,0-.84,4.73,8.73,8.73,0,0,0,2.73,6.9,10.69,10.69,0,0,0,7.35,2.41q5.67,0,8.75-3.18t3.08-10.05v-3.85c0-1.68,0-3.65,0-5.92s0-4.75-.07-7.46,0-5.48-.07-8.33,0-5.69-.07-8.54-.06-5.58-.11-8.19l6.51-3.15v33.89c0,2.47.44,4.27,1.3,5.39a4.53,4.53,0,0,0,3.82,1.68h2.1v8Z"/><path class="cls-6" d="M1184.78,540a18.13,18.13,0,0,1-4.76-.53,8.3,8.3,0,0,1-3.64-2.27,22.48,22.48,0,0,1-6.3,2.13,37.75,37.75,0,0,1-7.15.67h-5.25a16.27,16.27,0,0,1-6-.84,7.45,7.45,0,0,1-3.43-3.08,8.68,8.68,0,0,1-3.33,3,8.87,8.87,0,0,1-4,1h-4.2c-.52,0-.94-.36-1.26-1.09a7.08,7.08,0,0,1-.49-2.9,7.38,7.38,0,0,1,.49-2.94c.32-.75.74-1.12,1.26-1.12h3.92a7.73,7.73,0,0,0,3.64-.81,3.06,3.06,0,0,0,1.61-2.83v-4.06l5.81-1.48a47.08,47.08,0,0,0,.32,5.89c.21,1.63.75,2.68,1.64,3.15q1.82-2.52,4.2-5.22a50.68,50.68,0,0,1,5-4.94,28.36,28.36,0,0,1,5.43-3.67,12,12,0,0,1,5.53-1.44,9.54,9.54,0,0,1,3.6.7,9.27,9.27,0,0,1,3,2,9.4,9.4,0,0,1,2.07,3,10,10,0,0,1,.77,4,9.47,9.47,0,0,1-.39,2.8,11,11,0,0,1-1.08,2.45,4.83,4.83,0,0,0,1.47.42c.47,0,1,.07,1.54.07h1.82v8Zm-8-12.53a3,3,0,0,0-1.23-2.31,4.81,4.81,0,0,0-3.25-1,10.05,10.05,0,0,0-5.26,2,42.2,42.2,0,0,0-7.21,6.44h4.2a33.72,33.72,0,0,0,4.27-.28,21.72,21.72,0,0,0,4.14-.91,10.4,10.4,0,0,0,3.11-1.58A2.8,2.8,0,0,0,1176.73,527.47Z"/><path class="cls-6" d="M1198.43,507.93a6.82,6.82,0,0,1,4.73,1.72,12.41,12.41,0,0,1,3.08,4.34,23.26,23.26,0,0,1,1.65,5.84,42.43,42.43,0,0,1,.49,6.24q0,7.35-3.47,10.64T1193.67,540h-7c-.51,0-.93-.36-1.26-1.09a7.08,7.08,0,0,1-.49-2.9,7.38,7.38,0,0,1,.49-2.94c.33-.75.75-1.12,1.26-1.12h7.14a24.25,24.25,0,0,0,5.15-.56,5.6,5.6,0,0,0,3.46-1.82,1.68,1.68,0,0,0,.25-.91c0-.42,0-1,0-1.75a14.63,14.63,0,0,1-3.09.73,21.19,21.19,0,0,1-2.52.18q-7.83,0-7.84-8.27a13.12,13.12,0,0,1,.7-4.2,13.83,13.83,0,0,1,1.89-3.74,9.68,9.68,0,0,1,2.87-2.66A7,7,0,0,1,1198.43,507.93Zm-.35-4.41-5.32-4.48,4.27-5,5.32,4.48Zm-.35,11.34a3,3,0,0,0-2.45,1.26,4.29,4.29,0,0,0-1,2.66,2.31,2.31,0,0,0,.77,1.72,3.6,3.6,0,0,0,2.52.73,13,13,0,0,0,2.59-.24,8.9,8.9,0,0,0,2-.6,9.13,9.13,0,0,0-1.62-3.95A3.45,3.45,0,0,0,1197.73,514.86Z"/><path class="cls-6" d="M1249.83,540a13.2,13.2,0,0,1-2.24-.18,4,4,0,0,1-2-.94,14.91,14.91,0,0,1-1.82,5.43,25.74,25.74,0,0,1-3.79,5.07,44.22,44.22,0,0,1-5.42,4.83c-2.08,1.59-4.31,3.15-6.69,4.7l-5.39-5.12c2.57-1.54,4.92-3.08,7.07-4.62a53.53,53.53,0,0,0,5.46-4.41,25.06,25.06,0,0,0,3.5-3.92,5.9,5.9,0,0,0,1.26-3.22,10.42,10.42,0,0,0-1.26-4,41.6,41.6,0,0,0-3.22-5.49l5.32-5.33c1,1.69,1.84,3.11,2.56,4.28a24.22,24.22,0,0,0,2,2.83,6.29,6.29,0,0,0,1.82,1.58,4.26,4.26,0,0,0,2,.49h2.8v8Z"/><path class="cls-6" d="M1271.46,540a11.2,11.2,0,0,1-4.76-.91,7.8,7.8,0,0,1-3.29-3,9,9,0,0,1-3.5,3,11.81,11.81,0,0,1-5,1h-3c-.52,0-.94-.36-1.26-1.09a7.08,7.08,0,0,1-.49-2.9,7.38,7.38,0,0,1,.49-2.94c.32-.75.74-1.12,1.26-1.12h2.87a19.39,19.39,0,0,0,2.9-.18,4.24,4.24,0,0,0,1.89-.7,3,3,0,0,0,1.09-1.47,8.37,8.37,0,0,0,.42-2.41v-2.94l5.81-1.48q0,2.6.18,4.35a7.87,7.87,0,0,0,.73,2.83,3.17,3.17,0,0,0,1.61,1.54,7.25,7.25,0,0,0,2.87.46h3.29v8Zm-12.39-21-5.11-4.27,4.06-4.83,5.18,4.2Zm9,0-5.11-4.27,4.06-4.83,5.11,4.2Z"/><path class="cls-6" d="M1295.13,540a11.17,11.17,0,0,1-4.76-.91,7.75,7.75,0,0,1-3.29-3,9,9,0,0,1-3.5,3,11.82,11.82,0,0,1-5,1h-3c-.51,0-.93-.36-1.26-1.09a7.25,7.25,0,0,1-.49-2.9,7.57,7.57,0,0,1,.49-2.94c.33-.75.75-1.12,1.26-1.12h2.87a19.44,19.44,0,0,0,2.91-.18,4.24,4.24,0,0,0,1.89-.7,3.1,3.1,0,0,0,1.09-1.47,8.37,8.37,0,0,0,.42-2.41v-2.94l5.81-1.48c0,1.73.06,3.18.17,4.35a7.86,7.86,0,0,0,.74,2.83,3.17,3.17,0,0,0,1.61,1.54,7.25,7.25,0,0,0,2.87.46h3.29v8Zm-12.67,14.07-5.12-4.34,4.07-4.83,5.18,4.27Zm9,0-5.11-4.34,4.06-4.83,5.11,4.27Z"/><path class="cls-6" d="M1308,530.06a3.4,3.4,0,0,0-.31-1.19,15.19,15.19,0,0,0-.91-1.79c-.4-.67-.84-1.39-1.33-2.13s-1-1.47-1.58-2.18l5.25-5.53a22.2,22.2,0,0,1,3.92,6.48,17.12,17.12,0,0,1,1.26,6q0,5-2.8,7.66c-1.86,1.75-4.74,2.63-8.61,2.63h-3.71c-.51,0-.93-.36-1.26-1.09a7.08,7.08,0,0,1-.49-2.9,7.38,7.38,0,0,1,.49-2.94c.33-.75.75-1.12,1.26-1.12h3.71a12.09,12.09,0,0,0,3.71-.46C1307.55,531.19,1308,530.71,1308,530.06Zm-4.83-16.53-5.11-4.27,4.06-4.83,5.18,4.2Zm9,0-5.11-4.27,4.06-4.83,5.11,4.2Z"/><rect class="cls-6" x="935.08" y="592.41" width="51.84" height="3.67"/><rect class="cls-8" y="170.93" width="1920" height="1"/><rect class="cls-9" y="907.9" width="1920" height="1"/><rect class="cls-10" y="539.5" width="1920" height="1"/><rect class="cls-11" y="645.16" width="1920" height="1"/><rect class="cls-12" y="593.74" width="1920" height="1"/><rect class="cls-13" x="1605.83" y="540" width="105.66" height="26.42"/><rect class="cls-13" x="1605.83" y="619.25" width="105.66" height="26.42"/><rect class="cls-13" x="1601.11" y="579.65" width="115.16" height="26.42" transform="translate(1.25 1189.19) rotate(-39.46)"/></g></svg>