<svg xmlns="http://www.w3.org/2000/svg" viewBox="0 0 1920 1080"><defs><style>.cls-1{fill:#504631;}.cls-2{fill:#fff;}</style></defs><g id="Graphic"><rect class="cls-1" width="1920" height="1080"/><path class="cls-2" d="M104.21,802.36l-13.07,16h13.41v2.4H87.84v-2.28L101,802.32H88.53v-2.4h15.68Z"/><path class="cls-2" d="M117.58,819q4.85,0,5.79-4.8l2.72.43a7.17,7.17,0,0,1-2.74,4.92,9.12,9.12,0,0,1-5.77,1.81q-4.81,0-7.35-2.82t-2.54-8.15a11.47,11.47,0,0,1,2.65-7.94,9.14,9.14,0,0,1,7.14-3,8.43,8.43,0,0,1,6.58,2.58q2.34,2.58,2.34,7.21V811H110.65Q110.89,818.95,117.58,819Zm-.14-17.19a6.19,6.19,0,0,0-4.65,1.75,8.25,8.25,0,0,0-2.06,5.1h12.64Q123.06,801.77,117.44,801.76Z"/><path class="cls-2" d="M140.25,819c3.23,0,5.15-1.6,5.78-4.8l2.73.43A7.14,7.14,0,0,1,146,819.5a9.11,9.11,0,0,1-5.76,1.81c-3.21,0-5.67-.94-7.36-2.82s-2.53-4.6-2.53-8.15A11.42,11.42,0,0,1,133,802.4a9.14,9.14,0,0,1,7.14-3,8.43,8.43,0,0,1,6.58,2.58q2.34,2.58,2.34,7.21V811H133.32Q133.56,818.95,140.25,819Zm-.14-17.19a6.19,6.19,0,0,0-4.65,1.75,8.25,8.25,0,0,0-2.06,5.1H146Q145.73,801.77,140.11,801.76Z"/><path class="cls-2" d="M162.92,819q4.83,0,5.78-4.8l2.73.43a7.14,7.14,0,0,1-2.75,4.92,9.11,9.11,0,0,1-5.76,1.81q-4.83,0-7.36-2.82T153,810.34a11.42,11.42,0,0,1,2.65-7.94,9.1,9.1,0,0,1,7.13-3A8.45,8.45,0,0,1,169.4,802q2.34,2.58,2.34,7.21V811H156Q156.24,818.95,162.92,819Zm-.15-17.19a6.18,6.18,0,0,0-4.64,1.75,8.26,8.26,0,0,0-2.07,5.1H168.7Q168.4,801.77,162.77,801.76Z"/><path class="cls-2" d="M194.49,807.28V820.8h-2.87v-13a6.18,6.18,0,0,0-1.42-4.34,5.19,5.19,0,0,0-4-1.54,5.69,5.69,0,0,0-4.64,1.9,8.61,8.61,0,0,0-1.58,5.58V820.8h-2.85V799.92h2.85v2.77c1.43-2.18,3.65-3.27,6.69-3.27a7.27,7.27,0,0,1,7.86,7.86Z"/><path class="cls-2" d="M200.52,816.72h3.87v4.08h-3.87Z"/><path class="cls-2" d="M213.54,796.18h-2.85v-4.8h2.85Zm0,24.62h-2.85V799.92h2.85Z"/><path class="cls-2" d="M223.1,820.8h-2.85V799.92h2.85V804a6.62,6.62,0,0,1,6.22-4.08h1.56v2.77h-1.56a5.2,5.2,0,0,0-4.49,2.55,11.77,11.77,0,0,0-1.73,6.7Z"/><path class="cls-2" d="M111.62,665.06h7.73V599.38H100.09v13.14H88.68V590.25h75.26v22.27H152.53V599.38H130.26v65.68H139v9.58H111.62Z"/><path class="cls-2" d="M233.46,590.25h27.39v9.58h-8v65.23h8v9.58H233.46v-9.58h8.46V634.73H193.11v30.33h8.46v9.58H174.18v-9.58h8V599.83h-8v-9.58h27.39v9.58h-8.46v25.55h48.81V599.83h-8.46Z"/><path class="cls-2" d="M326.7,665.06h7L327,645.92H294.58l-6.51,19.14h8.68v9.58H269.37v-9.58h7.34L303,590.25h16.42l26.22,74.81h8.46v9.58H326.7Zm-28.94-28.39h26.05l-13.14-37.74Z"/><path class="cls-2" d="M414.82,590.25H442.2v9.63H435v74.76H420.77l-39.24-70v60.39h8.68v9.58H362.83v-9.58h7.79V599.88h-8v-9.74h22.72l38.51,69.3.45-2.67V599.88h-9.46Z"/><path class="cls-2" d="M453.11,590.25H480.5v9.63h-8.57v65.18h8.46v9.58H453v-9.58h8V599.88h-7.91Zm55.78,9.63v-9.63h19.37v9.63h-6.62l-37,31.12,34.56,34.06h9v9.58H505.55v-9.58L472,631.55Z"/><path class="cls-2" d="M560,590.25h27.39v9.63h-8L595.28,627l17-27.11h-8.8v-9.63h27.39v9.63h-7.18l-23.71,36v29.22h8.68v9.58H581.25v-9.58H589v-29.5l-22.38-35.68H560Z"/><path class="cls-2" d="M677.05,676.31a38.45,38.45,0,0,1-16-3.26,40.59,40.59,0,0,1-21.55-23.52,50.47,50.47,0,0,1-2.95-17.09,48.94,48.94,0,0,1,3-17.14,42.73,42.73,0,0,1,8.35-13.94,39.27,39.27,0,0,1,12.8-9.36,39.4,39.4,0,0,1,45.56,9.36,42.44,42.44,0,0,1,8.3,13.94,49.15,49.15,0,0,1,2.95,17.14,48.48,48.48,0,0,1-3,17.12,43,43,0,0,1-8.35,13.94,38.9,38.9,0,0,1-12.8,9.38A38.48,38.48,0,0,1,677.05,676.31Zm0-10.36a26.12,26.12,0,0,0,12-2.72,28.38,28.38,0,0,0,9.15-7.32,33.58,33.58,0,0,0,5.85-10.66,40.64,40.64,0,0,0-.2-26.14,31.51,31.51,0,0,0-6.29-10.88,28.17,28.17,0,0,0-9.38-6.87,26.58,26.58,0,0,0-11.13-2.43,26.24,26.24,0,0,0-12,2.73,28.42,28.42,0,0,0-9.19,7.32A33.49,33.49,0,0,0,650,619.67a42,42,0,0,0,.22,26.66,30,30,0,0,0,6,10.13,33.1,33.1,0,0,0,9,6.77A25.07,25.07,0,0,0,677.05,666Z"/><path class="cls-2" d="M727.76,590.25h27.33v9.63h-8.63v39.3a40,40,0,0,0,1.59,12.05,22.06,22.06,0,0,0,4.4,8.13,16.67,16.67,0,0,0,6.68,4.59,23.94,23.94,0,0,0,8.49,1.45,28.85,28.85,0,0,0,8.79-1.28,16.09,16.09,0,0,0,6.88-4.32,20.53,20.53,0,0,0,4.45-8.07,42.27,42.27,0,0,0,1.59-12.55v-39.3H780.2v-9.63h27.33v9.63H800V638a47.81,47.81,0,0,1-2.53,16.19A34.43,34.43,0,0,1,790.55,666a29,29,0,0,1-10.35,7.26,33.08,33.08,0,0,1-12.81,2.48,31.87,31.87,0,0,1-12.49-2.45,28.39,28.39,0,0,1-10.13-7.18,34.29,34.29,0,0,1-6.8-11.55A45.58,45.58,0,0,1,735.5,639V599.88h-7.74Z"/><path class="cls-2" d="M1920,640.86V607.08H1717.32V522.63c0-177-144-320.92-320.91-320.92h-304V167.93a67.56,67.56,0,1,0,0-135.12V0H1058.6V83.48h-50.67v33.78h50.67V674.64h135.13V580.29l67.56-67.56V1080h33.78V732.3L1646.2,381.17a285.39,285.39,0,0,1,37.34,141.46V843.54c0,130.38,106.07,236.46,236.46,236.46v-33.78c-111.76,0-202.68-90.92-202.68-202.68V640.86ZM1092.38,66.59a33.78,33.78,0,1,1,0,67.56Zm0,168.9h84.46V320h-84.46Zm202.69,449V479l79.5-79.5-23.89-23.89L1160,566.3v74.56h-67.57V353.73h118.24V235.49h185.79c94.57,0,178.61,46,230.95,116.74Z"/></g></svg>