<svg xmlns="http://www.w3.org/2000/svg" viewBox="0 0 1920 1080"><defs><style>.cls-1{fill:#dedcda;}.cls-2{fill:#504631;}.cls-3{fill:#a49269;}.cls-4{fill:#4f2a22;}.cls-5{fill:#312a28;}.cls-6{fill:#b89f96;}</style></defs><g id="Background"><rect class="cls-1" width="1920" height="1080"/></g><g id="Graphic"><path class="cls-2" d="M539.29,87.11V540h452.9C992.19,289.87,789.42,87.11,539.29,87.11Z"/><path class="cls-3" d="M131.05,343.67,539.29,540V87.11C359.51,87.11,204.19,191.86,131.05,343.67Z"/><path class="cls-4" d="M539.29,540,131.05,343.67A451.17,451.17,0,0,0,86.4,540c0,215.06,149.9,395.11,350.92,441.37Z"/><path class="cls-5" d="M803.09,908.17,539.29,540l-102,441.37h0a454.11,454.11,0,0,0,365.77-73.2Z"/><path class="cls-6" d="M539.29,540l263.8,368.17C917.6,826,992.19,691.7,992.19,540Z"/><rect class="cls-4" x="1181.29" y="87.11" width="67.55" height="67.55"/><path d="M1183.87,213.41v-6.79h49.71v6.79Zm58.59,0v-6.79h11.43v6.79Z"/><path d="M1216.05,270.78h-32.18v-6.84h30.91q6.69,0,10.35-3.36t3.66-9.62q0-7.28-4.54-11T1211,236.16h-27.1v-6.79h49.71v6.79H1227q7.77,5.09,7.77,15.92,0,8.75-5,13.72T1216.05,270.78Z"/><path d="M1182.65,303.06q0-9.29,4.49-14.9a15.71,15.71,0,0,1,12-6l1.22,6.69q-6.19.82-9.1,4.24t-2.91,10q0,5.81,2.47,8.81t7.25,3q6.43,0,8.1-10l1.08-6.78q2.38-14.41,13.62-14.41a12.12,12.12,0,0,1,10,5q3.92,5,3.91,13t-3.93,13.11q-3.93,5-11.36,6.23l-1.07-6.21q5.71-1.41,8.2-4.54t2.49-8.69q0-5.22-2.17-8.25a6.74,6.74,0,0,0-5.74-3,6.81,6.81,0,0,0-5.25,2.08c-1.28,1.38-2.14,3.59-2.56,6.61l-1.27,7.82q-2.44,14.88-14,14.89a13.93,13.93,0,0,1-11.18-5Q1182.64,311.6,1182.65,303.06Z"/><path d="M1227.86,327.13h5.72v9.18H1250v6.83h-16.4v13.48h-5.72V343.14h-30.08c-3,0-5.07.52-6.25,1.54s-1.75,2.81-1.75,5.35v7.91h-5.91V349.2q0-6.21,3.37-9.55t9.62-3.34h31Z"/><path d="M1189.58,407.6v2.58h-5.71v-4.1a9.58,9.58,0,0,1,2.05-6.27,6.7,6.7,0,0,1,5.47-2.52h.39q-9.13-5.31-9.13-16.21,0-7.81,4-12.5a13.15,13.15,0,0,1,10.47-4.68,13.68,13.68,0,0,1,10,3.9q4,3.92,5.25,11.09L1215,394a3.51,3.51,0,0,0,3.81,3.23,9.41,9.41,0,0,0,7.45-3.28q2.85-3.27,2.85-8.93,0-11-10.2-13.38l.88-6.4a16.92,16.92,0,0,1,10.86,6.55q4.13,5.37,4.13,13.52,0,8.64-4.62,13.63t-12.38,5h-24.36a4.08,4.08,0,0,0-3,.85A3.94,3.94,0,0,0,1189.58,407.6Zm7.91-36.92a8.4,8.4,0,0,0-6.69,2.83q-2.44,2.83-2.44,7.87a14.64,14.64,0,0,0,5,11.42q5.17,4.5,13.18,4.49h3.18l-3.08-17.77a10.87,10.87,0,0,0-3.1-6.52A8.56,8.56,0,0,0,1197.49,370.68Z"/><path d="M1186.75,437.77q0-9.81,6.49-15.57t17.53-5.77q10.85,0,17.39,5.82t6.59,15.52q0,10-7.57,15.77h6.4v6.79h-47.71q-10,0-15.82-5.64t-5.86-15.55q0-9.57,4.37-15.16a17,17,0,0,1,12.23-6.42l.59,6.78c-4,.79-6.89,2.36-8.67,4.74s-2.66,5.7-2.66,10q0,7.18,4.15,10.84t12.26,3.66H1195A18.16,18.16,0,0,1,1186.75,437.77Zm24-14.3q-8.64,0-13.38,4t-4.73,11.28a13.43,13.43,0,0,0,5,10.84q5,4.16,13.11,4.15a20,20,0,0,0,13-4.2,13.23,13.23,0,0,0,5.13-10.79q0-7.42-4.71-11.35C1221,424.78,1216.57,423.47,1210.77,423.47Z"/><path d="M1183.87,482.94v-6.79h49.71v6.79h-9.72q9.72,4.88,9.72,14.79v3.71H1227v-3.71q0-6.59-6.08-10.69t-15.94-4.1Z"/><path d="M1189.58,550.42V553h-5.71v-4.1a9.6,9.6,0,0,1,2.05-6.28,6.69,6.69,0,0,1,5.47-2.51h.39q-9.13-5.32-9.13-16.21,0-7.81,4-12.5a13.13,13.13,0,0,1,10.47-4.69,13.68,13.68,0,0,1,10,3.9q4,3.92,5.25,11.09L1215,536.8a3.51,3.51,0,0,0,3.81,3.22,9.43,9.43,0,0,0,7.45-3.27q2.85-3.27,2.85-8.94,0-11-10.2-13.38l.88-6.39a16.87,16.87,0,0,1,10.86,6.54q4.13,5.37,4.13,13.52,0,8.65-4.62,13.63t-12.38,5h-24.36a4.08,4.08,0,0,0-3,.85A3.94,3.94,0,0,0,1189.58,550.42Zm7.91-36.92a8.38,8.38,0,0,0-6.69,2.84q-2.44,2.82-2.44,7.86a14.64,14.64,0,0,0,5,11.42q5.17,4.5,13.18,4.5h3.18l-3.08-17.78a10.87,10.87,0,0,0-3.1-6.52A8.56,8.56,0,0,0,1197.49,513.5Z"/><path d="M1211,601.69h-27.1v-6.84h30.91q6.69,0,10.35-3.1t3.66-8.86q0-6.69-4.57-10.25T1211,569.07h-27.1v-6.79h49.71v6.79h-6.3q7.47,5.08,7.47,14.89a18.84,18.84,0,0,1-2.4,9.77,14.6,14.6,0,0,1-7,6q9.38,4.94,9.38,16.41,0,8.44-5,13.26t-13.69,4.81h-32.18v-6.79h30.91q6.69,0,10.35-3.13t3.66-8.88q0-6.69-4.57-10.23T1211,601.69Z"/><rect class="cls-2" x="1327.48" y="87.11" width="67.55" height="67.55"/><path d="M1374.05,216.83h-44V210h44v-9.47h5.72V210h4.1q7.76,0,12,3.81t4.22,10.94v6.68h-5.71v-6c0-3-.87-5.14-2.59-6.52s-4.46-2.07-8.2-2.07h-3.81v13.08h-5.72Z"/><path d="M1335.77,277.27v2.59h-5.71v-4.1a9.56,9.56,0,0,1,2-6.27,6.7,6.7,0,0,1,5.47-2.52h.39q-9.13-5.33-9.13-16.21,0-7.81,4-12.5a13.16,13.16,0,0,1,10.47-4.69,13.73,13.73,0,0,1,10,3.91q4,3.9,5.25,11.08l2.58,15.09a3.51,3.51,0,0,0,3.81,3.22,9.43,9.43,0,0,0,7.45-3.27q2.85-3.27,2.85-8.93,0-11-10.2-13.38l.88-6.4a16.87,16.87,0,0,1,10.86,6.54q4.13,5.37,4.13,13.53,0,8.64-4.62,13.62t-12.37,5h-24.37a4.09,4.09,0,0,0-2.95.86A3.93,3.93,0,0,0,1335.77,277.27Zm7.91-36.91a8.37,8.37,0,0,0-6.69,2.83c-1.62,1.89-2.44,4.51-2.44,7.86a14.66,14.66,0,0,0,5,11.43q5.18,4.49,13.18,4.49h3.18l-3.08-17.77a10.82,10.82,0,0,0-3.1-6.52A8.51,8.51,0,0,0,1343.68,240.36Z"/><path d="M1334.75,308.62a13.89,13.89,0,0,0,3.46,9.84q3.48,3.74,9.77,4.37l-.73,6.79a19.66,19.66,0,0,1-13.38-6.5q-5-5.76-5-14.5,0-10.5,6.93-16.7t18.9-6.1q12,0,19.09,6.1t7.18,16.7q0,9-4.69,14.6t-13.18,6.69l-.83-7.18q12.84-2,12.84-14.3,0-7.43-5.4-11.5t-15-4.08q-9.33,0-14.63,4.15T1334.75,308.62Z"/><path d="M1334.45,362q0,11.52,11.43,13.77l-1,6.49a17,17,0,0,1-11.69-6.54,21.69,21.69,0,0,1-4.32-13.72q0-11.48,6.71-17.5t19.41-6q11.86,0,18.9,6.3t7.08,17q0,10.09-6.13,15.67T1357.65,383h-4.2v-37.5Q1334.46,346.13,1334.45,362Zm40.92-.34q0-7-4.15-11.06t-12.16-4.91v30.08Q1375.38,375.08,1375.37,361.7Z"/><path d="M1380.94,419.27q0,10.16-7,16.11-7,6.11-18.71,6.1-11.91,0-19.18-6.1t-7.23-16.11a19.06,19.06,0,0,1,8.74-16.7h-7.52v-6.79h70v6.79H1372A18.93,18.93,0,0,1,1380.94,419.27Zm-26.08,15.18q9.29,0,14.7-4.2a13.73,13.73,0,0,0,5.42-11.47,14.61,14.61,0,0,0-5.49-11.94q-5.49-4.47-14.63-4.47-8.88,0-14.5,4.49a14.53,14.53,0,0,0-5.52,11.92,13.74,13.74,0,0,0,5.4,11.47Q1345.64,434.45,1354.86,434.45Z"/><path d="M1354.86,450.76q11.78,0,18.9,6.4t7.18,17.33q0,10.85-7.18,17.29t-18.9,6.49q-11.67,0-18.89-6.49t-7.13-17.29q0-10.78,7.13-17.33T1354.86,450.76Zm-14.69,36q5.41,4.51,14.69,4.52t14.75-4.52q5.48-4.51,5.47-12.28a15,15,0,0,0-5.47-12.21q-5.47-4.48-14.75-4.49t-14.69,4.47q-5.43,4.47-5.42,12.23T1340.17,486.77Z"/><path d="M1354.86,507.45q11.78,0,18.9,6.4t7.18,17.33q0,10.85-7.18,17.29t-18.9,6.49q-11.67,0-18.89-6.49t-7.13-17.29q0-10.78,7.13-17.33T1354.86,507.45Zm-14.69,36q5.41,4.51,14.69,4.52t14.75-4.52q5.48-4.51,5.47-12.28a15,15,0,0,0-5.47-12.21q-5.47-4.49-14.75-4.49T1340.17,519q-5.43,4.47-5.42,12.23T1340.17,543.46Z"/><path d="M1379.77,609.26l-18.41-19.83-31.3,21.44v-8l27-18.31-9.32-10.21h-17.68v-6.78h70v6.78h-44.34l24,25.59Z"/><rect class="cls-5" x="1473.67" y="87.11" width="67.55" height="67.55"/><path d="M1527.13,230.11q0,10.15-7,16.11t-18.71,6.1q-11.91,0-19.19-6.1T1475,230.11a19.06,19.06,0,0,1,8.74-16.7h-26v-6.79H1526v6.79h-7.82A18.93,18.93,0,0,1,1527.13,230.11Zm-26.08,15.18q9.29,0,14.7-4.2a13.73,13.73,0,0,0,5.42-11.47,14.61,14.61,0,0,0-5.49-11.94q-5.49-4.47-14.63-4.47-8.88,0-14.5,4.49a14.53,14.53,0,0,0-5.52,11.92,13.74,13.74,0,0,0,5.4,11.47Q1491.83,245.29,1501.05,245.29Z"/><path d="M1476.25,271.81V265H1526v6.79Zm58.59,0V265h11.43v6.79Z"/><path d="M1508.43,329.18h-32.18v-6.84h30.91q6.69,0,10.35-3.37t3.66-9.62q0-7.28-4.54-11t-13.28-3.76h-27.1v-6.79H1526v6.79h-6.6q7.77,5.07,7.77,15.92,0,8.73-5,13.72T1508.43,329.18Z"/><path d="M1520.24,337.87H1526v9.18h16.4v6.84H1526v13.47h-5.72V353.89h-30.07q-4.5,0-6.25,1.53c-1.18,1-1.76,2.81-1.76,5.35v7.91h-5.91v-8.74q0-6.19,3.37-9.55t9.62-3.34h31Z"/><path d="M1480.64,397.88q0,11.52,11.43,13.77l-1,6.49a17,17,0,0,1-11.69-6.54,21.69,21.69,0,0,1-4.32-13.72q0-11.47,6.71-17.5t19.41-6q11.86,0,18.9,6.3t7.08,17q0,10.1-6.13,15.67t-17.16,5.57h-4.2v-37.5Q1480.64,382,1480.64,397.88Zm40.92-.34q0-7-4.15-11.06t-12.16-4.91v30.08Q1521.55,410.92,1521.56,397.54Z"/><path d="M1476.25,438.41v-6.79H1526v6.79h-9.72q9.72,4.88,9.72,14.79v3.71h-6.6V453.2q0-6.58-6.07-10.69t-16-4.1Z"/><path d="M1480.64,485.77q0,11.52,11.43,13.77l-1,6.49a17,17,0,0,1-11.69-6.54,21.69,21.69,0,0,1-4.32-13.72q0-11.47,6.71-17.5t19.41-6q11.86,0,18.9,6.29t7.08,17q0,10.1-6.13,15.67t-17.16,5.57h-4.2v-37.5Q1480.64,469.86,1480.64,485.77Zm40.92-.34q0-7-4.15-11.06t-12.16-4.91v30.08Q1521.55,498.81,1521.56,485.43Z"/><path d="M1475,536.41q0-9.28,4.49-14.9a15.73,15.73,0,0,1,12-6l1.22,6.69q-6.2.82-9.1,4.24t-2.91,10q0,5.8,2.47,8.81t7.25,3q6.43,0,8.1-10l1.08-6.79Q1502,517,1513.26,517a12.12,12.12,0,0,1,10,5q3.91,4.95,3.91,13t-3.93,13.11q-3.93,4.95-11.36,6.23l-1.07-6.21q5.71-1.41,8.2-4.54t2.49-8.69q0-5.22-2.17-8.25a6.74,6.74,0,0,0-5.74-3,6.81,6.81,0,0,0-5.25,2.08c-1.28,1.38-2.14,3.59-2.56,6.61l-1.27,7.82Q1502,555,1490.46,555a13.93,13.93,0,0,1-11.18-5Q1475,545,1475,536.41Z"/><path d="M1520.24,560.48H1526v9.18h16.4v6.83H1526V590h-5.72V576.49h-30.07c-3,0-5.08.52-6.25,1.54s-1.76,2.81-1.76,5.35v7.91h-5.91v-8.74q0-6.21,3.37-9.55t9.62-3.34h31Z"/><rect class="cls-6" x="1619.86" y="87.11" width="67.55" height="67.55"/><path d="M1622.44,213.41v-6.79h70v6.79Z"/><path d="M1622.44,236.16v-6.79h49.71v6.79Zm58.59,0v-6.79h11.43v6.79Z"/><path d="M1654.62,293.53h-32.18V286.7h30.91q6.69,0,10.35-3.37t3.66-9.62q0-7.27-4.54-11t-13.28-3.75h-27.1v-6.79h49.71v6.79h-6.6q7.77,5.07,7.77,15.91,0,8.75-5,13.72T1654.62,293.53Z"/><path d="M1672.15,350.61l-18.41-19.82-31.3,21.44v-8l27-18.31-9.33-10.21h-17.67v-6.78h70v6.78h-44.34l24,25.59Z"/><path d="M1626.83,379.28q0,11.52,11.43,13.77l-1,6.49a17,17,0,0,1-11.69-6.54,21.71,21.71,0,0,1-4.32-13.72q0-11.47,6.71-17.51t19.41-6q11.87,0,18.9,6.3t7.08,17q0,10.11-6.13,15.68T1650,400.27h-4.2v-37.5Q1626.83,363.36,1626.83,379.28Zm40.92-.35q0-7-4.15-11.05T1651.44,363v30.08Q1667.75,392.32,1667.75,378.93Z"/><path d="M1621.22,431.91q0-10.05,7-16.21,7-6,18.7-6,11.91,0,19.09,6t7.28,16.21a19.11,19.11,0,0,1-8.69,16.7h27.83v6.79h-70v-6.79h7.81A18.91,18.91,0,0,1,1621.22,431.91Zm26.12-15.18q-9.27,0-14.7,4.2a13.73,13.73,0,0,0-5.42,11.47,14.59,14.59,0,0,0,5.5,11.94q5.49,4.47,14.62,4.47,8.79,0,14.41-4.49a14.52,14.52,0,0,0,5.61-11.92,13.74,13.74,0,0,0-5.4-11.47Q1656.57,416.73,1647.34,416.73Z"/><path d="M1622.44,478.2v-6.78h49.71v6.78Zm58.59,0v-6.78h11.43v6.78Z"/><path d="M1654.62,535.58h-32.18v-6.84h30.91q6.69,0,10.35-3.37t3.66-9.62q0-7.28-4.54-11T1649.54,501h-27.1v-6.79h49.71V501h-6.6q7.77,5.07,7.77,15.91,0,8.75-5,13.72T1654.62,535.58Z"/><rect class="cls-3" x="1766.05" y="87.11" width="67.55" height="67.55"/><path d="M1812.62,200.42h5.72v9.18h16.4v6.83h-16.4v13.48h-5.72V216.43h-30.07c-3,0-5.08.52-6.25,1.54s-1.76,2.81-1.76,5.35v7.91h-5.91v-8.74q0-6.21,3.37-9.55t9.62-3.34h31Z"/><path d="M1768.63,258.28v-6.59l49.71-16.41v7l-40.43,12.85,40.43,12.3v6.5l-40.29,12.15,40.29,12.75v6.88l-49.71-16.5v-6.5l40.09-12.3Z"/><path d="M1768.63,322.64v-6.79h49.71v6.79Zm58.59,0v-6.79h11.43v6.79Z"/><path d="M1812.62,332.4h5.72v9.18h16.4v6.84h-16.4v13.47h-5.72V348.42h-30.07q-4.5,0-6.25,1.54c-1.18,1-1.76,2.8-1.76,5.34v7.91h-5.91v-8.74q0-6.2,3.37-9.54t9.62-3.35h31Z"/><path d="M1812.62,366.78h5.72V376h16.4v6.83h-16.4v13.48h-5.72V382.79h-30.07q-4.5,0-6.25,1.54c-1.18,1-1.76,2.81-1.76,5.35v7.91h-5.91v-8.74q0-6.21,3.37-9.55t9.62-3.34h31Z"/><path d="M1773,426.79q0,11.52,11.43,13.77l-1,6.49a17,17,0,0,1-11.69-6.54,21.71,21.71,0,0,1-4.32-13.72q0-11.48,6.71-17.51t19.41-6q11.87,0,18.9,6.3t7.08,17q0,10.11-6.13,15.68t-17.16,5.56H1792v-37.5Q1773,410.87,1773,426.79Zm40.92-.35q0-7-4.15-11.06t-12.16-4.9v30.08Q1814,439.83,1813.94,426.44Z"/><path d="M1768.63,467.31v-6.78h49.71v6.78h-9.72q9.72,4.89,9.72,14.8v3.71h-6.59v-3.71q0-6.6-6.08-10.69t-16-4.11Z"/></g></svg>