<svg xmlns="http://www.w3.org/2000/svg" viewBox="0 0 1920 1080"><defs><style>.cls-1{fill:#312a28;}.cls-2{fill:#fff;}.cls-3{fill:#f2c9b8;}.cls-4,.cls-5{fill:none;stroke:#f2c9b8;stroke-miterlimit:10;}.cls-4{stroke-width:1.08px;}.cls-5{stroke-width:3px;}</style></defs><g id="Graphic"><rect class="cls-1" width="1920" height="1080"/></g><g id="Isolation_Mode" data-name="Isolation Mode"><path class="cls-2" d="M534.69,218.23a7.58,7.58,0,0,0-2.31-5.8,8.52,8.52,0,0,0-6.09-2.18c-3.52,0-6.17,1.18-7.93,3.54s-2.52,5.76-2.27,10.22l-8.81-1.17q-.57-9.45,4.8-14.93t14.37-5.48q7.89,0,12.7,4.35A14.34,14.34,0,0,1,543.87,218a19.74,19.74,0,0,1-2.81,9.94,44.86,44.86,0,0,1-9,10.43l-12.93,11.53H545.5v7.68H507.09V250l19.28-17.24a31.27,31.27,0,0,0,6.39-7.35A14.25,14.25,0,0,0,534.69,218.23Z"/><path class="cls-2" d="M558.2,267.22h-8.05l4.65-19.73h8.5Z"/><path class="cls-2" d="M611.62,230.44q0,12.93-5.6,20.53t-15.46,7.52q-10,0-15.5-7.45t-5.52-20.6q0-12.88,5.52-20.53,5.52-7.49,15.5-7.48T606,209.91Q611.62,217.4,611.62,230.44Zm-32.93,0q0,9.94,3,15.2a10.07,10.07,0,0,0,17.71-.06q3.1-5.31,3.1-15.14t-3.1-15.12a10,10,0,0,0-17.69,0Q578.69,220.65,578.69,230.44Z"/><path class="cls-2" d="M643.82,211.16H616.64v-7.82h38v7q-9.7,9.49-13.42,18.11-3.63,8.88-3.63,21.92v7.19h-9.07v-7.19a59.92,59.92,0,0,1,3.69-21.81A50.33,50.33,0,0,1,643.82,211.16Z"/><path class="cls-2" d="M701.55,230.44q0,12.93-5.6,20.53t-15.46,7.52q-10.05,0-15.5-7.45t-5.52-20.6q0-12.88,5.52-20.53,5.52-7.49,15.5-7.48T696,209.91Q701.54,217.4,701.55,230.44Zm-32.93,0q0,9.94,3,15.2a9.64,9.64,0,0,0,8.82,5.25,9.77,9.77,0,0,0,8.89-5.31q3.09-5.31,3.1-15.14t-3.1-15.12a9.77,9.77,0,0,0-8.89-5.29q-5.75,0-8.81,5.31T668.62,230.44Z"/><path class="cls-2" d="M543.26,326.06H539.1v-40h14.72a14,14,0,0,1,9.87,3.49,11.41,11.41,0,0,1,3.85,8.81,12.83,12.83,0,0,1-3.9,9.42,13.29,13.29,0,0,1-9.82,3.82H543.26Zm20-27.68a8,8,0,0,0-2.74-6.25,9.8,9.8,0,0,0-7-2.45H543.26V308h10.28a9.2,9.2,0,0,0,7-2.73A9.37,9.37,0,0,0,563.25,298.38Z"/><path class="cls-2" d="M571.55,311.9q0-6.72,3.66-10.79a14,14,0,0,1,19.76,0q3.71,4.13,3.71,10.79T595,322.69a14,14,0,0,1-19.76,0Q571.55,318.63,571.55,311.9Zm20.56,8.39q2.58-3.09,2.58-8.39t-2.58-8.42a9.39,9.39,0,0,0-14,0q-2.57,3.12-2.56,8.42t2.55,8.39a9.44,9.44,0,0,0,14,0Z"/><path class="cls-2" d="M615.52,326.76a13.19,13.19,0,0,1-8.5-2.57,9,9,0,0,1-3.43-6.85l3.82-.7a7.9,7.9,0,0,0,2.42,5.2,8.6,8.6,0,0,0,5.69,1.66,7.75,7.75,0,0,0,5-1.41,5.06,5.06,0,0,0,1.72-4.14c0-2.45-1.91-4-5.72-4.63l-3.87-.61q-8.23-1.36-8.23-7.78a6.93,6.93,0,0,1,2.83-5.69,13.54,13.54,0,0,1,14.92,0,10.05,10.05,0,0,1,3.55,6.48l-3.54.61a8.36,8.36,0,0,0-2.59-4.68,7.77,7.77,0,0,0-5-1.42,8,8,0,0,0-4.72,1.24,3.84,3.84,0,0,0-1.73,3.27,3.89,3.89,0,0,0,1.19,3,6.92,6.92,0,0,0,3.78,1.46l4.46.73q8.5,1.4,8.5,8a7.94,7.94,0,0,1-2.87,6.38A11.6,11.6,0,0,1,615.52,326.76Z"/><path class="cls-2" d="M629.26,300.94v-3.26h5.24v-9.37h3.91v9.37h7.69v3.26h-7.69v17.18a5.48,5.48,0,0,0,.88,3.57,3.92,3.92,0,0,0,3.05,1h4.52v3.37h-5a7.33,7.33,0,0,1-5.45-1.92,7.43,7.43,0,0,1-1.92-5.49V300.94Z"/><path class="cls-2" d="M662.08,326.76a13.19,13.19,0,0,1-8.5-2.57,8.92,8.92,0,0,1-3.43-6.85l3.82-.7a7.9,7.9,0,0,0,2.42,5.2,8.6,8.6,0,0,0,5.69,1.66,7.75,7.75,0,0,0,5-1.41,5.06,5.06,0,0,0,1.72-4.14c0-2.45-1.91-4-5.72-4.63l-3.87-.61q-8.24-1.36-8.23-7.78a6.93,6.93,0,0,1,2.83-5.69,13.54,13.54,0,0,1,14.92,0,10.05,10.05,0,0,1,3.55,6.48l-3.54.61a8.36,8.36,0,0,0-2.59-4.68,7.78,7.78,0,0,0-5-1.42,8,8,0,0,0-4.71,1.24,3.84,3.84,0,0,0-1.73,3.27,3.89,3.89,0,0,0,1.19,3,6.92,6.92,0,0,0,3.78,1.46l4.46.73q8.5,1.4,8.5,8a7.94,7.94,0,0,1-2.87,6.38A11.6,11.6,0,0,1,662.08,326.76Z"/><path class="cls-2" d="M838.13,218.23a7.61,7.61,0,0,0-2.3-5.8,8.52,8.52,0,0,0-6.09-2.18c-3.53,0-6.17,1.18-7.94,3.54s-2.52,5.76-2.27,10.22l-8.81-1.17q-.56-9.45,4.81-14.93t14.36-5.48q7.9,0,12.7,4.35A14.35,14.35,0,0,1,847.32,218a19.66,19.66,0,0,1-2.82,9.94,44.79,44.79,0,0,1-9,10.43l-12.93,11.53h26.38v7.68h-38.4V250l19.28-17.24a31,31,0,0,0,6.38-7.35A14.15,14.15,0,0,0,838.13,218.23Z"/><path class="cls-2" d="M891,257.55H856.54v-7.68h12.93V218a11.54,11.54,0,0,1-6.2,1.47h-6.8v-7.56h6.31a6.4,6.4,0,0,0,5.2-2.06c1.14-1.37,1.72-3.54,1.72-6.48h8.8v46.53H891Z"/><path class="cls-2" d="M924,218.23a7.58,7.58,0,0,0-2.31-5.8,8.48,8.48,0,0,0-6.08-2.18q-5.29,0-7.94,3.54T905.42,224l-8.81-1.17q-.57-9.45,4.8-14.93t14.37-5.48q7.9,0,12.7,4.35A14.35,14.35,0,0,1,933.21,218a19.66,19.66,0,0,1-2.82,9.94,44.62,44.62,0,0,1-9,10.43l-12.92,11.53h26.38v7.68H896.42V250l19.28-17.24a30.81,30.81,0,0,0,6.39-7.35A14.15,14.15,0,0,0,924,218.23Z"/><path class="cls-2" d="M987.38,203.34l-20.19,23.85,20.91,30.36h-11L961,234.07l-7.26,8.47v15h-9.07V203.34h9.07v27.25l22.61-27.25Z"/><path class="cls-2" d="M784.45,326.06h-4.16v-40h27.86v3.66h-23.7v14.41h21.41v3.6H784.45Z"/><path class="cls-2" d="M811.88,311.9q0-6.72,3.65-10.79a14,14,0,0,1,19.77,0Q839,305.24,839,311.9t-3.71,10.79a14,14,0,0,1-19.77,0Q811.89,318.63,811.88,311.9Zm20.56,8.39Q835,317.2,835,311.9t-2.58-8.42a9.39,9.39,0,0,0-14,0q-2.57,3.12-2.56,8.42t2.55,8.39a9.44,9.44,0,0,0,14,0Z"/><path class="cls-2" d="M850.08,326.06H846.2v-40h3.88Z"/><path class="cls-2" d="M863.07,326.06h-3.88v-40h3.88Z"/><path class="cls-2" d="M870.24,311.9q0-6.72,3.65-10.79a14,14,0,0,1,19.76,0q3.72,4.13,3.71,10.79t-3.71,10.79a14,14,0,0,1-19.76,0Q870.23,318.63,870.24,311.9Zm20.56,8.39a15,15,0,0,0,0-16.81,9.4,9.4,0,0,0-14,0q-2.56,3.12-2.56,8.42t2.55,8.39a8.58,8.58,0,0,0,7,3.1A8.67,8.67,0,0,0,890.8,320.29Z"/><path class="cls-2" d="M914.14,326.06h-3.76L901,297.68h4l7.33,23.09,7-23.09h3.71l6.94,23,7.28-23h3.93l-9.43,28.38h-3.71l-7-22.89Z"/><path class="cls-2" d="M958.28,323.55q6.59,0,7.86-6.52l3.71.58a9.7,9.7,0,0,1-3.74,6.68,12.36,12.36,0,0,1-7.83,2.47q-6.56,0-10-3.83t-3.44-11.09q0-6.76,3.6-10.79a12.39,12.39,0,0,1,9.7-4q5.77,0,9,3.5t3.18,9.8v2.4H948.86Q949.19,323.56,958.28,323.55Zm-.2-23.36a8.43,8.43,0,0,0-6.31,2.37,11.22,11.22,0,0,0-2.8,6.94h17.17Q965.72,300.19,958.08,300.19Z"/><path class="cls-2" d="M981.42,326.06h-3.88V297.68h3.88v5.55q2.79-5.55,8.45-5.55H992v3.76h-2.11a7.09,7.09,0,0,0-6.11,3.48,16,16,0,0,0-2.34,9.1Z"/><path class="cls-2" d="M1007.1,326.76a13.22,13.22,0,0,1-8.51-2.57,9,9,0,0,1-3.43-6.85l3.82-.7a8,8,0,0,0,2.43,5.2,8.58,8.58,0,0,0,5.69,1.66,7.77,7.77,0,0,0,5-1.41,5.06,5.06,0,0,0,1.71-4.14c0-2.45-1.9-4-5.71-4.63l-3.88-.61q-8.22-1.36-8.22-7.78a6.93,6.93,0,0,1,2.83-5.69,13.53,13.53,0,0,1,14.91,0,10.06,10.06,0,0,1,3.56,6.48l-3.54.61a8.36,8.36,0,0,0-2.6-4.68,7.75,7.75,0,0,0-5-1.42,7.91,7.91,0,0,0-4.71,1.24,3.84,3.84,0,0,0-1.73,3.27,3.89,3.89,0,0,0,1.19,3,6.91,6.91,0,0,0,3.77,1.46l4.46.73q8.5,1.4,8.51,8a7.94,7.94,0,0,1-2.87,6.38A11.62,11.62,0,0,1,1007.1,326.76Z"/><path class="cls-2" d="M1207.41,244.77h-27.64v-6.66l25-34.77h11.68v33.75h7.67v7.68h-7.67v12.78h-9.07Zm0-32.29-17.81,24.61h17.81Z"/><path class="cls-2" d="M1089.28,326.06h-4.16v-40H1113v3.66h-23.69v14.41h21.41v3.6h-21.41Z"/><path class="cls-2" d="M1116.71,311.9q0-6.72,3.65-10.79a14,14,0,0,1,19.77,0q3.7,4.13,3.71,10.79t-3.71,10.79a14,14,0,0,1-19.77,0Q1116.72,318.63,1116.71,311.9Zm20.56,8.39q2.58-3.09,2.58-8.39t-2.58-8.42a9.39,9.39,0,0,0-14,0q-2.57,3.12-2.56,8.42t2.55,8.39a8.56,8.56,0,0,0,7,3.1A8.66,8.66,0,0,0,1137.27,320.29Z"/><path class="cls-2" d="M1154.91,326.06H1151v-40h3.88Z"/><path class="cls-2" d="M1167.9,326.06H1164v-40h3.88Z"/><path class="cls-2" d="M1175.06,311.9q0-6.72,3.65-10.79a14,14,0,0,1,19.77,0q3.7,4.13,3.71,10.79t-3.71,10.79a14,14,0,0,1-19.77,0Q1175.07,318.63,1175.06,311.9Zm20.56,8.39q2.58-3.09,2.58-8.39t-2.58-8.42a9.39,9.39,0,0,0-14,0q-2.57,3.12-2.56,8.42t2.55,8.39a9.44,9.44,0,0,0,14,0Z"/><path class="cls-2" d="M1219,326.06h-3.76l-9.37-28.38h4l7.33,23.09,7-23.09h3.7l6.95,23,7.27-23H1246l-9.42,28.38h-3.71l-7-22.89Z"/><path class="cls-2" d="M1255.72,292.61h-3.88v-6.53h3.88Zm0,33.45h-3.88V297.68h3.88Z"/><path class="cls-2" d="M1288.48,307.69v18.37h-3.91V308.41a8.44,8.44,0,0,0-1.92-5.91,7.09,7.09,0,0,0-5.49-2.09,7.71,7.71,0,0,0-6.3,2.6q-2.14,2.58-2.15,7.58v15.47h-3.88V297.68h3.88v3.76q2.89-4.43,9.09-4.43a9.87,9.87,0,0,1,10.68,10.68Z"/><path class="cls-2" d="M1307.71,324.42a11.29,11.29,0,0,1-8.89-3.71q-3.28-3.7-3.29-10t3.32-9.92a11.27,11.27,0,0,1,8.86-3.77,10.71,10.71,0,0,1,9,4.32v-3.65h3.87v27.24q0,5.68-3.22,9t-8.88,3.35q-5.46,0-8.65-2.5a9.74,9.74,0,0,1-3.67-7l3.88-.34a7.67,7.67,0,0,0,2.7,4.95,9.3,9.3,0,0,0,5.69,1.52q4.1,0,6.19-2.37t2.09-7v-4.85A10.38,10.38,0,0,1,1307.71,324.42Zm-8.17-13.72c0,3.29.77,5.84,2.29,7.64a8,8,0,0,0,6.44,2.7,7.66,7.66,0,0,0,6.19-2.85,12.84,12.84,0,0,0,0-14.91,7.55,7.55,0,0,0-6.16-2.92,8,8,0,0,0-6.48,2.69Q1299.54,305.73,1299.54,310.7Z"/><g id="Graphics"><path class="cls-3" d="M241.49,100h0a144,144,0,0,1,144,144h0a144,144,0,0,1-144,144h0a144,144,0,0,1-144-144h0A144,144,0,0,1,241.49,100Z"/><path d="M223.27,386.9v-76L292.14,242a56,56,0,0,1,7.35,27.74v62.94a46.28,46.28,0,0,0,15.91,34.93q3-1.77,5.88-3.72a39.68,39.68,0,0,1-15.17-31.21V293H377q1.17-3.29,2.21-6.63h-73.1V269.78a63,63,0,0,0-62.94-63H183.49v-6.63a13.25,13.25,0,0,0,0-26.5V167h19.9v-6.6H188.2l12.13-12.13-4.68-4.69-12.16,12.14V134.84a6.61,6.61,0,0,1,3.31,5.73h6.69a13.25,13.25,0,0,0-26.5,0h6.62a6.6,6.6,0,0,1,3.32-5.73v48.8H167v6.62h9.94V299.59h26.5v-18.5l13.25-13.25V385.9C218.83,386.28,221,386.62,223.27,386.9ZM183.49,180.32a6.63,6.63,0,0,1,.51,13.25,4.34,4.34,0,0,1-.51,0Zm0,33.13h16.57V230H183.49Zm13.25,64.89V293H183.49V236.64h23.19V213.45h36.45a56.32,56.32,0,0,1,45.3,22.9l-65.18,65.18V261.21l15.59-15.6-4.68-4.68Z"/></g><path class="cls-4" d="M241.49,89h0A155.08,155.08,0,0,1,396.57,244h0A155.09,155.09,0,0,1,241.49,399.13h0A155.09,155.09,0,0,1,86.4,244h0A155.08,155.08,0,0,1,241.49,89Z"/><path class="cls-2" d="M1041.7,812.7a7.58,7.58,0,0,0-2.31-5.8,8.49,8.49,0,0,0-6.08-2.17c-3.53,0-6.18,1.17-7.94,3.53s-2.52,5.76-2.27,10.23l-8.81-1.18q-.57-9.45,4.8-14.93t14.37-5.48q7.89,0,12.7,4.35a14.37,14.37,0,0,1,4.72,11.19,19.74,19.74,0,0,1-2.81,9.94,44.86,44.86,0,0,1-9,10.43l-12.93,11.53h26.39V852H1014.1v-7.6l19.28-17.24a31.27,31.27,0,0,0,6.39-7.35A14.25,14.25,0,0,0,1041.7,812.7Z"/><path class="cls-2" d="M1065.21,861.69h-8l4.65-19.73h8.5Z"/><path class="cls-2" d="M1118.63,824.91q0,12.93-5.6,20.53T1097.57,853q-10,0-15.5-7.45t-5.52-20.6q0-12.88,5.52-20.52,5.52-7.49,15.5-7.49t15.46,7.49Q1118.63,811.88,1118.63,824.91Zm-32.93,0q0,9.95,3,15.2a10.07,10.07,0,0,0,17.71-.06q3.1-5.31,3.1-15.14t-3.1-15.12a10,10,0,0,0-17.69,0Q1085.7,815.12,1085.7,824.91Z"/><path class="cls-2" d="M1150.83,805.63h-27.18v-7.82h38v7q-9.71,9.5-13.42,18.11-3.63,8.88-3.63,21.92V852h-9.07v-7.19a59.92,59.92,0,0,1,3.69-21.81A50.47,50.47,0,0,1,1150.83,805.63Z"/><path class="cls-2" d="M1208.56,824.91q0,12.93-5.6,20.53T1187.5,853q-10.05,0-15.5-7.45t-5.52-20.6q0-12.88,5.52-20.52,5.52-7.49,15.5-7.49t15.46,7.49Q1208.56,811.88,1208.56,824.91Zm-32.93,0q0,9.95,3,15.2a9.64,9.64,0,0,0,8.82,5.25,9.77,9.77,0,0,0,8.89-5.31q3.09-5.31,3.1-15.14t-3.1-15.12a9.77,9.77,0,0,0-8.89-5.29,9.64,9.64,0,0,0-8.8,5.31Q1175.63,815.12,1175.63,824.91Z"/><path class="cls-2" d="M1050.27,920.53h-4.16v-40h14.72a14.07,14.07,0,0,1,9.87,3.49,11.41,11.41,0,0,1,3.85,8.81,12.83,12.83,0,0,1-3.9,9.42,13.29,13.29,0,0,1-9.82,3.82h-10.56Zm20-27.68a8,8,0,0,0-2.74-6.25,9.8,9.8,0,0,0-7-2.45h-10.28V902.5h10.28a9.21,9.21,0,0,0,7-2.74A9.33,9.33,0,0,0,1070.26,892.85Z"/><path class="cls-2" d="M1078.56,906.37q0-6.72,3.66-10.79a14,14,0,0,1,19.76,0q3.72,4.13,3.71,10.79T1102,917.16a14,14,0,0,1-19.76,0Q1078.56,913.1,1078.56,906.37Zm20.56,8.39q2.58-3.09,2.58-8.39t-2.58-8.42a9.39,9.39,0,0,0-14,0q-2.57,3.12-2.56,8.42t2.55,8.39a9.44,9.44,0,0,0,14,0Z"/><path class="cls-2" d="M1122.53,921.23a13.19,13.19,0,0,1-8.5-2.56,9,9,0,0,1-3.43-6.86l3.82-.7a7.9,7.9,0,0,0,2.42,5.2,8.55,8.55,0,0,0,5.69,1.66,7.75,7.75,0,0,0,5-1.41,5,5,0,0,0,1.72-4.14c0-2.45-1.91-4-5.72-4.63l-3.87-.61q-8.24-1.36-8.23-7.78a7,7,0,0,1,2.83-5.69,13.54,13.54,0,0,1,14.92,0,10.05,10.05,0,0,1,3.55,6.48l-3.54.61a8.36,8.36,0,0,0-2.59-4.68,7.75,7.75,0,0,0-5-1.42A8,8,0,0,0,1117,896a3.84,3.84,0,0,0-1.72,3.27,3.88,3.88,0,0,0,1.18,3,6.92,6.92,0,0,0,3.78,1.46l4.46.73q8.5,1.4,8.5,8a7.94,7.94,0,0,1-2.87,6.38A11.6,11.6,0,0,1,1122.53,921.23Z"/><path class="cls-2" d="M1136.27,895.41v-3.26h5.25v-9.37h3.9v9.37h7.69v3.26h-7.69v17.18a5.48,5.48,0,0,0,.88,3.57,3.88,3.88,0,0,0,3,1h4.52v3.37h-5a7.35,7.35,0,0,1-5.45-1.92,7.42,7.42,0,0,1-1.91-5.49V895.41Z"/><path class="cls-2" d="M1169.09,921.23a13.19,13.19,0,0,1-8.5-2.56,9,9,0,0,1-3.43-6.86l3.82-.7a7.9,7.9,0,0,0,2.42,5.2,8.55,8.55,0,0,0,5.69,1.66,7.75,7.75,0,0,0,5-1.41,5.06,5.06,0,0,0,1.72-4.14c0-2.45-1.91-4-5.72-4.63l-3.87-.61q-8.24-1.36-8.23-7.78a6.94,6.94,0,0,1,2.83-5.69,13.54,13.54,0,0,1,14.92,0,10.05,10.05,0,0,1,3.55,6.48l-3.54.61a8.36,8.36,0,0,0-2.59-4.68,7.77,7.77,0,0,0-5-1.42,8,8,0,0,0-4.72,1.24,3.84,3.84,0,0,0-1.72,3.27,3.88,3.88,0,0,0,1.18,3,6.92,6.92,0,0,0,3.78,1.46l4.46.73q8.51,1.4,8.5,8a7.94,7.94,0,0,1-2.87,6.38A11.6,11.6,0,0,1,1169.09,921.23Z"/><path class="cls-2" d="M1345.14,812.7a7.61,7.61,0,0,0-2.3-5.8,8.52,8.52,0,0,0-6.09-2.17c-3.53,0-6.17,1.17-7.94,3.53s-2.52,5.76-2.27,10.23l-8.8-1.18q-.57-9.45,4.8-14.93t14.36-5.48q7.9,0,12.7,4.35a14.38,14.38,0,0,1,4.73,11.19,19.66,19.66,0,0,1-2.82,9.94,44.79,44.79,0,0,1-9,10.43l-12.93,11.53H1356V852h-38.4v-7.6l19.28-17.24a31,31,0,0,0,6.38-7.35A14.15,14.15,0,0,0,1345.14,812.7Z"/><path class="cls-2" d="M1398,852h-34.44v-7.68h12.93v-31.9a11.54,11.54,0,0,1-6.2,1.47h-6.8v-7.56h6.31a6.4,6.4,0,0,0,5.2-2.06c1.14-1.37,1.72-3.53,1.72-6.48h8.81v46.53H1398Z"/><path class="cls-2" d="M1431,812.7a7.58,7.58,0,0,0-2.31-5.8,8.48,8.48,0,0,0-6.08-2.17c-3.53,0-6.18,1.17-7.94,3.53s-2.52,5.76-2.27,10.23l-8.81-1.18q-.55-9.45,4.8-14.93t14.37-5.48q7.9,0,12.7,4.35a14.38,14.38,0,0,1,4.73,11.19,19.66,19.66,0,0,1-2.82,9.94,44.62,44.62,0,0,1-9,10.43l-12.92,11.53h26.38V852h-38.41v-7.6l19.28-17.24a30.81,30.81,0,0,0,6.39-7.35A14.15,14.15,0,0,0,1431,812.7Z"/><path class="cls-2" d="M1494.39,797.81l-20.19,23.85L1495.11,852h-11L1468,828.54l-7.26,8.47v15h-9.07V797.81h9.07v27.25l22.61-27.25Z"/><path class="cls-2" d="M1291.46,920.53h-4.15v-40h27.85v3.66h-23.7v14.41h21.41v3.6h-21.41Z"/><path class="cls-2" d="M1318.89,906.37q0-6.72,3.65-10.79a14,14,0,0,1,19.77,0q3.7,4.13,3.71,10.79t-3.71,10.79a14,14,0,0,1-19.77,0Q1318.9,913.1,1318.89,906.37Zm20.56,8.39q2.58-3.09,2.58-8.39t-2.58-8.42a9.39,9.39,0,0,0-14,0q-2.57,3.12-2.56,8.42t2.55,8.39a9.44,9.44,0,0,0,14,0Z"/><path class="cls-2" d="M1357.09,920.53h-3.88v-40h3.88Z"/><path class="cls-2" d="M1370.08,920.53h-3.87v-40h3.87Z"/><path class="cls-2" d="M1377.25,906.37q0-6.72,3.65-10.79a14,14,0,0,1,19.76,0q3.72,4.13,3.71,10.79t-3.71,10.79a14,14,0,0,1-19.76,0Q1377.24,913.1,1377.25,906.37Zm20.56,8.39q2.58-3.09,2.58-8.39t-2.58-8.42a8.63,8.63,0,0,0-7-3.12,8.53,8.53,0,0,0-7,3.12,12.87,12.87,0,0,0-2.57,8.42q0,5.29,2.55,8.39a8.55,8.55,0,0,0,7,3.1A8.64,8.64,0,0,0,1397.81,914.76Z"/><path class="cls-2" d="M1421.16,920.53h-3.77L1408,892.15h4l7.33,23.09,7-23.09h3.71l6.94,23,7.28-23h3.93l-9.43,28.38h-3.7l-7-22.89Z"/><path class="cls-2" d="M1465.29,918q6.59,0,7.86-6.52l3.71.59a9.7,9.7,0,0,1-3.74,6.67,12.36,12.36,0,0,1-7.83,2.47q-6.55,0-10-3.83t-3.44-11.09q0-6.76,3.6-10.78a12.37,12.37,0,0,1,9.7-4q5.77,0,8.95,3.5t3.18,9.8v2.4h-21.41Q1456.2,918,1465.29,918Zm-.2-23.36a8.45,8.45,0,0,0-6.31,2.37A11.24,11.24,0,0,0,1456,904h17.17Q1472.73,894.67,1465.09,894.66Z"/><path class="cls-2" d="M1488.43,920.53h-3.88V892.15h3.88v5.55q2.79-5.55,8.45-5.55H1499v3.77h-2.12a7.08,7.08,0,0,0-6.11,3.47,16,16,0,0,0-2.34,9.1Z"/><path class="cls-2" d="M1514.11,921.23a13.24,13.24,0,0,1-8.51-2.56,9,9,0,0,1-3.43-6.86l3.82-.7a8,8,0,0,0,2.43,5.2,8.55,8.55,0,0,0,5.69,1.66,7.75,7.75,0,0,0,5-1.41,5.06,5.06,0,0,0,1.71-4.14c0-2.45-1.9-4-5.71-4.63l-3.88-.61q-8.22-1.36-8.22-7.78a6.94,6.94,0,0,1,2.83-5.69,13.53,13.53,0,0,1,14.91,0,10.06,10.06,0,0,1,3.56,6.48l-3.54.61a8.36,8.36,0,0,0-2.6-4.68,7.75,7.75,0,0,0-5-1.42,7.91,7.91,0,0,0-4.71,1.24,3.84,3.84,0,0,0-1.73,3.27,3.89,3.89,0,0,0,1.19,3,6.91,6.91,0,0,0,3.77,1.46l4.47.73q8.49,1.4,8.5,8a7.94,7.94,0,0,1-2.87,6.38A11.62,11.62,0,0,1,1514.11,921.23Z"/><path class="cls-2" d="M1714.42,839.24h-27.63v-6.65l25-34.78h11.68v33.76h7.68v7.67h-7.68V852h-9.07Zm0-32.28-17.81,24.61h17.81Z"/><path class="cls-2" d="M1596.29,920.53h-4.16v-40H1620v3.66h-23.7v14.41h21.41v3.6h-21.41Z"/><path class="cls-2" d="M1623.72,906.37q0-6.72,3.65-10.79a14,14,0,0,1,19.77,0q3.7,4.13,3.71,10.79t-3.71,10.79a14,14,0,0,1-19.77,0Q1623.73,913.1,1623.72,906.37Zm20.56,8.39q2.58-3.09,2.58-8.39t-2.58-8.42a9.39,9.39,0,0,0-14,0q-2.57,3.12-2.56,8.42t2.55,8.39a9.44,9.44,0,0,0,14,0Z"/><path class="cls-2" d="M1661.92,920.53H1658v-40h3.88Z"/><path class="cls-2" d="M1674.91,920.53H1671v-40h3.88Z"/><path class="cls-2" d="M1682.08,906.37q0-6.72,3.65-10.79a14,14,0,0,1,19.76,0q3.72,4.13,3.71,10.79t-3.71,10.79a14,14,0,0,1-19.76,0Q1682.07,913.1,1682.08,906.37Zm20.56,8.39q2.56-3.09,2.57-8.39a12.87,12.87,0,0,0-2.57-8.42,9.4,9.4,0,0,0-14,0q-2.57,3.12-2.56,8.42t2.55,8.39a8.55,8.55,0,0,0,7,3.1A8.64,8.64,0,0,0,1702.64,914.76Z"/><path class="cls-2" d="M1726,920.53h-3.76l-9.37-28.38h4l7.33,23.09,7-23.09h3.71l6.94,23,7.27-23h3.94l-9.43,28.38h-3.71l-7-22.89Z"/><path class="cls-2" d="M1762.73,887.08h-3.88v-6.53h3.88Zm0,33.45h-3.88V892.15h3.88Z"/><path class="cls-2" d="M1795.49,902.16v18.37h-3.91V902.89a8.41,8.41,0,0,0-1.92-5.91,7.06,7.06,0,0,0-5.49-2.1,7.71,7.71,0,0,0-6.3,2.6c-1.43,1.73-2.15,4.25-2.15,7.58v15.47h-3.87V892.15h3.87v3.77q2.9-4.44,9.09-4.44a9.87,9.87,0,0,1,10.68,10.68Z"/><path class="cls-2" d="M1814.73,918.89a11.3,11.3,0,0,1-8.9-3.71q-3.28-3.7-3.29-10t3.32-9.92a11.28,11.28,0,0,1,8.87-3.77,10.69,10.69,0,0,1,9,4.32v-3.65h3.88v27.24a12.5,12.5,0,0,1-3.22,9q-3.23,3.35-8.88,3.35c-3.65,0-6.53-.83-8.66-2.5a9.74,9.74,0,0,1-3.67-7l3.88-.33a7.71,7.71,0,0,0,2.7,4.94,9.3,9.3,0,0,0,5.69,1.52c2.73,0,4.8-.79,6.19-2.37s2.09-3.91,2.09-7V914.2A10.37,10.37,0,0,1,1814.73,918.89Zm-8.17-13.72q0,4.94,2.28,7.64a8,8,0,0,0,6.44,2.71,7.67,7.67,0,0,0,6.19-2.86,12.83,12.83,0,0,0,0-14.9,7.53,7.53,0,0,0-6.16-2.93,8,8,0,0,0-6.48,2.69C1807.3,899.31,1806.56,901.86,1806.56,905.17Z"/><g id="Graphics-2" data-name="Graphics"><path class="cls-3" d="M748.5,694.51h0a144,144,0,0,1,144,144h0a144,144,0,0,1-144,144h0a144,144,0,0,1-144-144h0A144,144,0,0,1,748.5,694.51Z"/><path d="M730.28,981.37v-76l68.87-68.86a56,56,0,0,1,7.35,27.74v62.94a46.28,46.28,0,0,0,15.91,34.93q3-1.77,5.88-3.72a39.68,39.68,0,0,1-15.17-31.21V887.44H884q1.17-3.29,2.21-6.63H813.1V864.25a63,63,0,0,0-62.94-63H690.5v-6.63a13.25,13.25,0,0,0,0-26.5v-6.61h19.9v-6.6H695.21l12.13-12.13-4.68-4.69L690.5,750.23V729.31a6.61,6.61,0,0,1,3.31,5.73h6.69a13.25,13.25,0,0,0-26.5,0h6.62a6.62,6.62,0,0,1,3.32-5.73v48.8H674v6.62h9.94V894.06h26.5v-18.5l13.25-13.25V980.37C725.84,980.75,728.05,981.09,730.28,981.37ZM690.5,774.79A6.63,6.63,0,0,1,691,788h-.51Zm0,33.13h16.57v16.59H690.5Zm13.25,64.89v14.63H690.5V831.11h23.19V807.92h36.45a56.32,56.32,0,0,1,45.3,22.9L730.26,896V855.68l15.59-15.6-4.68-4.68Z"/></g><path class="cls-4" d="M748.5,683.43h0A155.08,155.08,0,0,1,903.58,838.51h0A155.08,155.08,0,0,1,748.5,993.6h0A155.09,155.09,0,0,1,593.41,838.51h0A155.09,155.09,0,0,1,748.5,683.43Z"/><path class="cls-5" d="M1236.13,1014.92c0-75.72,273-7.93,316.34-155.9,22.5-76.75-64.83-144.82-144.81-144.82A144.81,144.81,0,0,0,1262.85,859c0,80,119.21,177,199.19,177"/><path class="cls-5" d="M903.58,364.6C936,521.32,1178.51,513.9,1287.31,694.51"/><path class="cls-5" d="M1297.13,640.66c-5.73,33,0,68.26,0,68.26s-28.19-17.61-52-18.06"/></g></svg>