<svg xmlns="http://www.w3.org/2000/svg" viewBox="0 0 1920 1080"><defs><style>.cls-1{fill:#504631;}.cls-2{fill:#fff;}</style></defs><g id="Graphic"><rect class="cls-1" width="1920" height="1080"/><path class="cls-2" d="M229.05,539.05a40.06,40.06,0,0,0-11.32-10.84,52.49,52.49,0,0,0-13.58-5.78,56,56,0,0,0-14.78-2A73.1,73.1,0,0,0,168,523.23a45.4,45.4,0,0,0-15.18,7.63,31.69,31.69,0,0,0-9.08,11.25,31,31,0,0,0-3.05,13.49q0,10.6,3.77,17.11A31.57,31.57,0,0,0,154,583.15a49.4,49.4,0,0,0,12.77,6.19q7,2.25,13.42,4.49l32.45,10.61A155,155,0,0,1,238.45,615a70.85,70.85,0,0,1,18.72,14.05,55.55,55.55,0,0,1,11.48,18.72,70.53,70.53,0,0,1,3.94,24.58,63.64,63.64,0,0,1-6.19,28,67.76,67.76,0,0,1-17.27,22.33,82,82,0,0,1-26.42,14.86,101,101,0,0,1-33.66,5.38q-18.8,0-32.13-4.26a70.25,70.25,0,0,1-22.41-11.4A59.63,59.63,0,0,1,120,710.94a89,89,0,0,1-8.51-18.79H99.25V664.52h40.48q0,17.82,3.78,25.22A34.15,34.15,0,0,0,154,702a48.15,48.15,0,0,0,16.07,7.39,79.51,79.51,0,0,0,20.56,2.49,70,70,0,0,0,19.68-2.57,43.67,43.67,0,0,0,14.94-7.47A33,33,0,0,0,234.76,690a36.75,36.75,0,0,0,3.29-15.82q0-9.81-4.1-16.63a40.61,40.61,0,0,0-10.52-11.65A61.35,61.35,0,0,0,209.37,638q-7.62-3-14.7-5.3l-35.18-10a102.33,102.33,0,0,1-21.12-9A62.49,62.49,0,0,1,122,600.42,56.15,56.15,0,0,1,111.46,582a73.48,73.48,0,0,1-3.69-24.34,63.42,63.42,0,0,1,5.46-26.19,60.83,60.83,0,0,1,16.06-21.36,77.18,77.18,0,0,1,26-14.38q15.33-5.22,35.1-5.22a89.77,89.77,0,0,1,24,3,75.84,75.84,0,0,1,19.92,8.6A69.85,69.85,0,0,1,250,515.52a80.43,80.43,0,0,1,11.48,17.11h12.05v27.63H234.19Q234.19,546.13,229.05,539.05Z"/><path class="cls-2" d="M353.55,710h22.33V520.42H320.3v37.91H287.37V494.07H504.56v64.26H471.63V520.42H407.37V710h25.06v27.63H353.55Z"/><path class="cls-2" d="M648.66,710H668.9l-19.28-55.26H556L537.17,710h25.06v27.63h-79V710H504.4l75.82-215.91h47.39L703.28,710h24.41v27.63h-79Zm-83.54-81.93H640.3L602.39,519.13Z"/><path class="cls-2" d="M772.51,710h22.33V520.42H739.26v37.91H706.33V494.07H923.52v64.26H890.59V520.42H826.33V710h25.06v27.63H772.51Z"/><path class="cls-2" d="M953.08,494.07h77.75v27.79H1007.7V710h23.13v27.63H953.08V710h23.13V521.86H953.08Z"/><path class="cls-2" d="M1196.45,539.05a39.93,39.93,0,0,0-11.32-10.84,52.49,52.49,0,0,0-13.58-5.78,56,56,0,0,0-14.78-2,73.1,73.1,0,0,0-21.36,2.81,45.4,45.4,0,0,0-15.18,7.63,31.69,31.69,0,0,0-9.08,11.25,31.12,31.12,0,0,0-3.05,13.49q0,10.6,3.78,17.11a31.43,31.43,0,0,0,9.55,10.44,49.56,49.56,0,0,0,12.77,6.19q7,2.25,13.42,4.49l32.45,10.61a155,155,0,0,1,25.78,10.6,70.85,70.85,0,0,1,18.72,14.05,55.55,55.55,0,0,1,11.48,18.72,70.3,70.3,0,0,1,3.94,24.58,63.51,63.51,0,0,1-6.19,28,67.76,67.76,0,0,1-17.27,22.33,81.85,81.85,0,0,1-26.42,14.86,101,101,0,0,1-33.66,5.38q-18.79,0-32.12-4.26a70,70,0,0,1-22.41-11.4,59.46,59.46,0,0,1-14.54-16.31,89,89,0,0,1-8.52-18.79h-12.21V664.52h40.49q0,17.82,3.77,25.22A34.25,34.25,0,0,0,1121.43,702a48.24,48.24,0,0,0,16.07,7.39,79.51,79.51,0,0,0,20.56,2.49,70,70,0,0,0,19.68-2.57,43.58,43.58,0,0,0,14.94-7.47,33,33,0,0,0,9.48-11.89,36.75,36.75,0,0,0,3.29-15.82q0-9.81-4.1-16.63a40.61,40.61,0,0,0-10.52-11.65,61.5,61.5,0,0,0-14-7.87q-7.63-3-14.7-5.3l-35.18-10a102.19,102.19,0,0,1-21.13-9,62.66,62.66,0,0,1-16.39-13.33A56.15,56.15,0,0,1,1078.86,582a73.48,73.48,0,0,1-3.69-24.34,63.42,63.42,0,0,1,5.46-26.19,61,61,0,0,1,16.06-21.36,77.18,77.18,0,0,1,26-14.38q15.33-5.22,35.1-5.22a89.77,89.77,0,0,1,24,3,75.84,75.84,0,0,1,19.92,8.6,69.63,69.63,0,0,1,15.75,13.33,80.43,80.43,0,0,1,11.48,17.11h12v27.63h-39.36Q1201.59,546.13,1196.45,539.05Z"/><path class="cls-2" d="M1321,710h22.33V520.42H1287.7v37.91h-32.93V494.07H1472v64.26H1439V520.42h-64.26V710h25.06v27.63H1321Z"/><path class="cls-2" d="M1501.52,494.07h77.75v27.79h-23.13V710h23.13v27.63h-77.75V710h23.13V521.86h-23.13Z"/><path class="cls-2" d="M1798.07,558.33a79.34,79.34,0,0,0-28.52-28.75A76.63,76.63,0,0,0,1730,519.13,73.78,73.78,0,0,0,1695.9,527a83,83,0,0,0-26.43,21.12,98.46,98.46,0,0,0-17.11,30.68,110.25,110.25,0,0,0-6.1,36.71q0,22.82,6.75,40.4t17.59,29.24a94.7,94.7,0,0,0,25.78,19.44,71.56,71.56,0,0,0,33.58,7.79q25.38,0,44.17-12.29t32.13-40.4L1834.53,673q-6.1,17.36-20.72,33.5a110.25,110.25,0,0,1-36.06,26q-21.45,9.88-47.47,9.88a110.19,110.19,0,0,1-45.79-9.4,116,116,0,0,1-37.19-26.75,117.59,117.59,0,0,1-24.9-41.12,144.9,144.9,0,0,1-8.59-49.64,140,140,0,0,1,8.59-49.16,123,123,0,0,1,24.1-40.24,113.26,113.26,0,0,1,37-27,109.91,109.91,0,0,1,46.51-9.88q22.32,0,38.55,6.35a110.56,110.56,0,0,1,27.55,15.1,113.56,113.56,0,0,1,19.52,19h17v28.59Z"/><path class="cls-2" d="M101.61,151.18H95.06v-63h6.55Z"/><path class="cls-2" d="M125.16,151.18h-6.28v-63h7.64l32.3,51.33V88.16h6.29v63h-5.85l-34.1-54.27Z"/><path class="cls-2" d="M202.33,152.28q-11,0-17.54-5.5t-6.68-15l6.42-.83c.23,5.07,1.88,9,4.92,11.69s7.34,4.09,12.88,4.09q6.72,0,10.57-3.45a11.73,11.73,0,0,0,3.84-9.17A9.15,9.15,0,0,0,214,127q-2.76-2.53-9.52-4.07L196,121q-8.25-1.89-12.19-6.11t-3.93-11.07a15.32,15.32,0,0,1,5.58-11.91q5.63-4.83,14.67-4.83,9.63,0,15.34,4.83t6.55,13.45l-6.5.79q-1.5-13.5-15.47-13.49-6.47,0-10.07,3a10.3,10.3,0,0,0-3.6,8.28,10,10,0,0,0,2.72,7.37q2.73,2.7,8.71,4.06l9.88,2.15c5.39,1.21,9.33,3.12,11.82,5.76s3.74,6.18,3.74,10.64a16.91,16.91,0,0,1-5.76,13.05Q211.78,152.27,202.33,152.28Z"/><path class="cls-2" d="M228.56,88.16h46.81v5.76H255.28v57.26h-6.55V93.92H228.56Z"/><path class="cls-2" d="M313.38,134.17H285.21l-6.64,17h-6.94l24.92-63h6.11l24.6,63h-7.47Zm-26-5.67h23.86L299.54,97.35Z"/><path class="cls-2" d="M363.3,152.28q-13.85,0-22.32-9t-8.44-23.42q0-14.82,8.26-23.74t22.24-9q11,0,18,5.12t9.51,15l-6.77,1.14q-2.24-7.86-7.36-11.71T363,92.86q-11.13,0-17.45,7.3t-6.33,19.69q0,11.5,6.68,19.2a22.28,22.28,0,0,0,17.36,7.47q9.7,0,15.95-5.32a16.2,16.2,0,0,0,6.29-13v-4.62H364.22v-5.84h27.6v33.4h-6.28v-9.54a24,24,0,0,1-9.39,7.87A29.41,29.41,0,0,1,363.3,152.28Z"/><path class="cls-2" d="M449.52,134.61l.88,16.57h-6.59l-.88-16.74c-.18-3.17-1.28-5.48-3.32-6.93s-5.37-2.17-10-2.17H413.13v25.84h-6.54v-63h23.29q9.4,0,14.94,4.88a15.34,15.34,0,0,1,5.67,12.35,18.68,18.68,0,0,1-2.64,9.86,17.5,17.5,0,0,1-7.43,6.75Q449,124.85,449.52,134.61Zm-5.8-29A10.66,10.66,0,0,0,439.9,97q-3.82-3.21-10.46-3.21H413.13v25.84h16.22a14,14,0,0,0,10.33-4A13.39,13.39,0,0,0,443.72,105.65Z"/><path class="cls-2" d="M500.58,134.17H472.42l-6.64,17h-6.94l24.91-63h6.11l24.61,63H507Zm-26-5.67h23.86L486.74,97.35Z"/><path class="cls-2" d="M530.91,151.18H525v-63h8.88l21.27,54.36,20.52-54.36h9.28v63h-6.24V96.38l-21.23,55.06H552.4l-21.49-54.8Z"/><path class="cls-2" d="M108.38,870.64a5.83,5.83,0,0,0-1.87-4.64,7.88,7.88,0,0,0-5.37-1.64H98.21v-2.79h2.93a5.88,5.88,0,0,0,4.57-1.77,7.05,7.05,0,0,0,1.62-4.94,5.36,5.36,0,0,0-1.79-4.25,7.13,7.13,0,0,0-4.84-1.56,7.59,7.59,0,0,0-5.48,2A7.7,7.7,0,0,0,93,856.43l-3.23-.72a9,9,0,0,1,3.14-6.89,11.37,11.37,0,0,1,7.71-2.7,11,11,0,0,1,7.41,2.36,8,8,0,0,1,2.72,6.38,9.24,9.24,0,0,1-1.26,4.86,7.65,7.65,0,0,1-3.57,3.11,8.92,8.92,0,0,1,4.39,3,7.62,7.62,0,0,1,1.54,4.78,9.73,9.73,0,0,1-3,7.5,11.43,11.43,0,0,1-8.11,2.79,13.75,13.75,0,0,1-8.25-2.41,8.94,8.94,0,0,1-3.7-6.47l3.47-1a7.61,7.61,0,0,0,2.55,5.11,8.7,8.7,0,0,0,5.75,1.8A8.12,8.12,0,0,0,106.3,876,7,7,0,0,0,108.38,870.64Z"/><path class="cls-2" d="M117.74,863.49q0-8.09,3.21-12.73a11,11,0,0,1,17.9,0q3.21,4.65,3.21,12.73t-3.25,12.73a11,11,0,0,1-17.91,0Q117.74,871.67,117.74,863.49Zm20.83,0q0-6.84-2.26-10.64a7.25,7.25,0,0,0-12.78,0q-2.31,3.84-2.3,10.59,0,6.91,2.24,10.69a7.34,7.34,0,0,0,12.84,0Q138.57,870.38,138.57,863.49Z"/><path class="cls-2" d="M149.89,886.62h-3.75l17.09-42h3.56Z"/><path class="cls-2" d="M176,880.29h-3.49V846.68h12.37a11.85,11.85,0,0,1,8.3,2.93,9.63,9.63,0,0,1,3.23,7.41,10.79,10.79,0,0,1-3.28,7.92,11.17,11.17,0,0,1-8.25,3.21H176ZM192.78,857a6.76,6.76,0,0,0-2.29-5.25,8.26,8.26,0,0,0-5.86-2.06H176v15.42h8.65a7.76,7.76,0,0,0,5.86-2.3A7.88,7.88,0,0,0,192.78,857Z"/><path class="cls-2" d="M199.77,868.39a13,13,0,0,1,3.07-9.07,11.73,11.73,0,0,1,16.62,0,14.78,14.78,0,0,1,0,18.14,11.81,11.81,0,0,1-16.62,0A13.06,13.06,0,0,1,199.77,868.39Zm17.28,7.05a10.63,10.63,0,0,0,2.17-7.05,10.75,10.75,0,0,0-2.17-7.08,7.88,7.88,0,0,0-11.75,0,12.66,12.66,0,0,0,0,14.13,7.95,7.95,0,0,0,11.76,0Z"/><path class="cls-2" d="M236.73,880.88a11.1,11.1,0,0,1-7.15-2.16A7.5,7.5,0,0,1,226.7,873l3.21-.59a6.58,6.58,0,0,0,2,4.37,7.18,7.18,0,0,0,4.78,1.4A6.52,6.52,0,0,0,241,877a4.23,4.23,0,0,0,1.44-3.48q0-3.09-4.8-3.89l-3.26-.51q-6.92-1.16-6.92-6.54a5.84,5.84,0,0,1,2.38-4.78,11.37,11.37,0,0,1,12.54,0,8.46,8.46,0,0,1,3,5.45l-3,.51a7,7,0,0,0-2.18-3.93,6.51,6.51,0,0,0-4.17-1.2,6.72,6.72,0,0,0-4,1,3.25,3.25,0,0,0-1.45,2.76,3.29,3.29,0,0,0,1,2.52,6,6,0,0,0,3.18,1.23l3.75.61q7.16,1.17,7.15,6.72a6.69,6.69,0,0,1-2.42,5.37A9.76,9.76,0,0,1,236.73,880.88Z"/><path class="cls-2" d="M248.28,859.18v-2.75h4.41v-7.87H256v7.87h6.47v2.75H256v14.43a4.62,4.62,0,0,0,.74,3,3.26,3.26,0,0,0,2.57.85h3.79v2.83h-4.19a5.61,5.61,0,0,1-6.19-6.23V859.18Z"/><path class="cls-2" d="M275.87,880.88a11.1,11.1,0,0,1-7.15-2.16,7.5,7.5,0,0,1-2.88-5.76l3.21-.59a6.58,6.58,0,0,0,2,4.37,7.19,7.19,0,0,0,4.78,1.4A6.52,6.52,0,0,0,280.1,877a4.23,4.23,0,0,0,1.44-3.48q0-3.09-4.8-3.89l-3.26-.51q-6.92-1.16-6.92-6.54a5.84,5.84,0,0,1,2.38-4.78,11.37,11.37,0,0,1,12.54,0,8.46,8.46,0,0,1,3,5.45l-3,.51a7,7,0,0,0-2.18-3.93,6.51,6.51,0,0,0-4.17-1.2,6.72,6.72,0,0,0-4,1,3.25,3.25,0,0,0-1.45,2.76,3.29,3.29,0,0,0,1,2.52,6,6,0,0,0,3.18,1.23l3.75.61q7.16,1.17,7.15,6.72a6.69,6.69,0,0,1-2.42,5.37A9.74,9.74,0,0,1,275.87,880.88Z"/><path class="cls-2" d="M736.78,870.64a5.83,5.83,0,0,0-1.87-4.64,7.88,7.88,0,0,0-5.37-1.64h-2.93v-2.79h2.93a5.88,5.88,0,0,0,4.57-1.77,7.05,7.05,0,0,0,1.62-4.94,5.34,5.34,0,0,0-1.8-4.25,7.11,7.11,0,0,0-4.84-1.56,7.56,7.56,0,0,0-5.47,2,7.7,7.7,0,0,0-2.19,5.43l-3.23-.72a9,9,0,0,1,3.14-6.89,11.33,11.33,0,0,1,7.71-2.7,10.92,10.92,0,0,1,7.4,2.36,8,8,0,0,1,2.72,6.38,9.33,9.33,0,0,1-1.25,4.86,7.67,7.67,0,0,1-3.58,3.11,9,9,0,0,1,4.4,3,7.68,7.68,0,0,1,1.53,4.78,9.72,9.72,0,0,1-3,7.5,11.43,11.43,0,0,1-8.11,2.79,13.75,13.75,0,0,1-8.25-2.41,8.91,8.91,0,0,1-3.7-6.47l3.47-1a7.52,7.52,0,0,0,2.55,5.11A8.67,8.67,0,0,0,729,878,8.15,8.15,0,0,0,734.7,876,7,7,0,0,0,736.78,870.64Z"/><path class="cls-2" d="M746.13,863.49q0-8.09,3.21-12.73a11,11,0,0,1,17.91,0q3.21,4.65,3.21,12.73t-3.26,12.73a11,11,0,0,1-17.9,0Q746.14,871.67,746.13,863.49Zm20.84,0q0-6.84-2.26-10.64a7.26,7.26,0,0,0-12.79,0q-2.29,3.84-2.3,10.59,0,6.91,2.24,10.69a7.35,7.35,0,0,0,12.85,0Q767,870.38,767,863.49Z"/><path class="cls-2" d="M776.41,863.49q0-8.09,3.21-12.73a11,11,0,0,1,17.91,0q3.21,4.65,3.21,12.73t-3.26,12.73a11,11,0,0,1-17.9,0Q776.42,871.67,776.41,863.49Zm20.84,0q0-6.84-2.26-10.64a7.26,7.26,0,0,0-12.79,0q-2.3,3.84-2.29,10.59,0,6.91,2.23,10.69a7.35,7.35,0,0,0,12.85,0Q797.26,870.38,797.25,863.49Z"/><path class="cls-2" d="M808.57,886.62h-3.75l17.09-42h3.56Z"/><path class="cls-2" d="M841.8,880.88q-5.85,0-9.35-2.93a10.24,10.24,0,0,1-3.56-8l3.42-.44a8.48,8.48,0,0,0,2.63,6.23c1.62,1.46,3.91,2.18,6.86,2.18a8.12,8.12,0,0,0,5.64-1.84,6.21,6.21,0,0,0,2-4.88,4.91,4.91,0,0,0-1.46-3.79,11.39,11.39,0,0,0-5.08-2.17l-4.5-1A12.56,12.56,0,0,1,832,861a8.31,8.31,0,0,1-2.1-5.91,8.16,8.16,0,0,1,3-6.35,11.59,11.59,0,0,1,7.83-2.58,12.26,12.26,0,0,1,8.18,2.58,10.28,10.28,0,0,1,3.49,7.17l-3.47.42q-.79-7.18-8.25-7.19a8,8,0,0,0-5.37,1.63,5.49,5.49,0,0,0-1.92,4.42,5.27,5.27,0,0,0,1.45,3.92,9.61,9.61,0,0,0,4.64,2.17l5.28,1.15a12.09,12.09,0,0,1,6.3,3.07,7.89,7.89,0,0,1,2,5.67,9,9,0,0,1-3.07,7A11.58,11.58,0,0,1,841.8,880.88Z"/><path class="cls-2" d="M856.34,859.18v-2.75h4.4v-7.87H864v7.87h6.47v2.75H864v14.43a4.62,4.62,0,0,0,.74,3,3.26,3.26,0,0,0,2.57.85h3.79v2.83h-4.19a6.2,6.2,0,0,1-4.58-1.61,6.29,6.29,0,0,1-1.61-4.62V859.18Z"/><path class="cls-2" d="M873.8,868.39a13,13,0,0,1,3.07-9.07,11.72,11.72,0,0,1,16.61,0,14.74,14.74,0,0,1,0,18.14,11.79,11.79,0,0,1-16.61,0A13.06,13.06,0,0,1,873.8,868.39Zm17.28,7.05a10.63,10.63,0,0,0,2.17-7.05,10.75,10.75,0,0,0-2.17-7.08,7.88,7.88,0,0,0-11.75,0,12.66,12.66,0,0,0,0,14.13,7.95,7.95,0,0,0,11.76,0Z"/><path class="cls-2" d="M905.91,880.29h-3.26V856.43h3.26v4.67q2.34-4.67,7.1-4.67h1.78v3.17H913a5.94,5.94,0,0,0-5.13,2.92,13.36,13.36,0,0,0-2,7.65Z"/><path class="cls-2" d="M925.43,882.9l1-2.47-9.66-24h3.52l7.85,20.16L936,856.43h3.37l-10.9,27.12a9.56,9.56,0,0,1-3,4.38,7.6,7.6,0,0,1-4.54,1.25h-2.35v-2.84h2.35a4.55,4.55,0,0,0,2.75-.75A5.92,5.92,0,0,0,925.43,882.9Z"/><path class="cls-2" d="M1441.15,870.64a5.83,5.83,0,0,0-1.87-4.64,7.88,7.88,0,0,0-5.37-1.64H1431v-2.79h2.93a5.88,5.88,0,0,0,4.57-1.77,7.05,7.05,0,0,0,1.62-4.94,5.34,5.34,0,0,0-1.8-4.25,7.09,7.09,0,0,0-4.84-1.56,7.56,7.56,0,0,0-5.47,2,7.7,7.7,0,0,0-2.19,5.43l-3.23-.72a9,9,0,0,1,3.14-6.89,11.37,11.37,0,0,1,7.71-2.7,10.92,10.92,0,0,1,7.4,2.36,8,8,0,0,1,2.72,6.38,9.33,9.33,0,0,1-1.25,4.86,7.67,7.67,0,0,1-3.58,3.11,8.91,8.91,0,0,1,4.4,3,7.68,7.68,0,0,1,1.53,4.78,9.72,9.72,0,0,1-3,7.5,11.43,11.43,0,0,1-8.11,2.79,13.75,13.75,0,0,1-8.25-2.41,8.91,8.91,0,0,1-3.7-6.47l3.47-1a7.52,7.52,0,0,0,2.55,5.11,8.67,8.67,0,0,0,5.74,1.8,8.13,8.13,0,0,0,5.75-1.93A7,7,0,0,0,1441.15,870.64Z"/><path class="cls-2" d="M1462.41,858.85a10.24,10.24,0,0,1,7.57,2.81,10,10,0,0,1,2.79,7.41,11.93,11.93,0,0,1-3.07,8.62,11.25,11.25,0,0,1-8.44,3.19,13,13,0,0,1-7.84-2.18,9.51,9.51,0,0,1-3.74-6.23l3.57-.43a7,7,0,0,0,2.63,4.4,8.52,8.52,0,0,0,5.24,1.51,7.81,7.81,0,0,0,6-2.29,9.05,9.05,0,0,0,2.14-6.45,7.59,7.59,0,0,0-1.89-5.47,6.83,6.83,0,0,0-5.21-2,9.45,9.45,0,0,0-4.36,1.06,8.37,8.37,0,0,0-3.24,2.79l-3.44-1.1,2.48-17.82h16.81v3H1456.6l-1.88,12.09A11.21,11.21,0,0,1,1462.41,858.85Z"/><path class="cls-2" d="M1497.1,870.64a5.83,5.83,0,0,0-1.88-4.64,7.87,7.87,0,0,0-5.36-1.64h-2.93v-2.79h2.93a5.89,5.89,0,0,0,4.57-1.77,7.1,7.1,0,0,0,1.61-4.94,5.33,5.33,0,0,0-1.79-4.25,7.13,7.13,0,0,0-4.84-1.56,7.55,7.55,0,0,0-5.47,2,7.7,7.7,0,0,0-2.19,5.43l-3.24-.72a9,9,0,0,1,3.14-6.89,11.37,11.37,0,0,1,7.71-2.7,10.93,10.93,0,0,1,7.41,2.36,8,8,0,0,1,2.72,6.38,9.24,9.24,0,0,1-1.26,4.86,7.6,7.6,0,0,1-3.57,3.11,8.88,8.88,0,0,1,4.39,3,7.62,7.62,0,0,1,1.54,4.78,9.76,9.76,0,0,1-3,7.5,11.45,11.45,0,0,1-8.11,2.79,13.75,13.75,0,0,1-8.25-2.41,9,9,0,0,1-3.71-6.47l3.47-1a7.57,7.57,0,0,0,2.56,5.11,8.65,8.65,0,0,0,5.74,1.8A8.1,8.1,0,0,0,1495,876,7,7,0,0,0,1497.1,870.64Z"/><path class="cls-2" d="M1518.73,858.68a10.56,10.56,0,0,1,7.92,3,11.32,11.32,0,0,1-8.15,19.17q-6,0-9-4.15t-3-12.33q0-8.71,3.23-13.5a10.34,10.34,0,0,1,9-4.78,10.6,10.6,0,0,1,6.65,2.08,10.21,10.21,0,0,1,3.68,5.84l-3.51.78a9.07,9.07,0,0,0-2.62-4.41,6.52,6.52,0,0,0-4.3-1.36,7.15,7.15,0,0,0-6.51,4.08,20.89,20.89,0,0,0-2.32,10.41,9.78,9.78,0,0,1,3.72-3.59A10.66,10.66,0,0,1,1518.73,858.68Zm-8.3,11.21a8,8,0,0,0,2.16,5.79,7.78,7.78,0,0,0,5.72,2.27,7.54,7.54,0,0,0,5.65-2.27,8.18,8.18,0,0,0,2.22-5.84,8.51,8.51,0,0,0-2-6.06,8.42,8.42,0,0,0-11.5.2A8.18,8.18,0,0,0,1510.43,869.89Z"/><path class="cls-2" d="M1547.61,858.68a10.56,10.56,0,0,1,7.92,3,11.83,11.83,0,0,1-.24,15.94,10.65,10.65,0,0,1-7.92,3.23q-6,0-9-4.15t-3-12.33q0-8.71,3.24-13.5a10.32,10.32,0,0,1,9-4.78,10.61,10.61,0,0,1,6.66,2.08A10.26,10.26,0,0,1,1558,854l-3.52.78a9.14,9.14,0,0,0-2.61-4.41,6.54,6.54,0,0,0-4.3-1.36,7.16,7.16,0,0,0-6.52,4.08,21,21,0,0,0-2.32,10.41,9.73,9.73,0,0,1,3.73-3.59A10.63,10.63,0,0,1,1547.61,858.68Zm-8.3,11.21a8,8,0,0,0,2.15,5.79,7.79,7.79,0,0,0,5.72,2.27,7.54,7.54,0,0,0,5.65-2.27,8.14,8.14,0,0,0,2.23-5.84,8.51,8.51,0,0,0-2-6.06,8.43,8.43,0,0,0-11.51.2A8.17,8.17,0,0,0,1539.31,869.89Z"/><path class="cls-2" d="M1584.5,880.29h-20.35v-3h8.44V854a7.23,7.23,0,0,1-3.82.91H1564v-3h4.45a4,4,0,0,0,3.23-1.26,6.14,6.14,0,0,0,1.06-4h3.36v30.64h8.39Z"/><path class="cls-2" d="M1590.36,886.62h-3.75l17.08-42h3.56Z"/><path class="cls-2" d="M1635.85,871.46l.47,8.83h-3.52l-.47-8.93a4.55,4.55,0,0,0-1.77-3.69q-1.62-1.15-5.33-1.16h-8.79v13.78H1613V846.68h12.42a11.61,11.61,0,0,1,8,2.61,8.15,8.15,0,0,1,3,6.58,10,10,0,0,1-1.4,5.26,9.34,9.34,0,0,1-4,3.6Q1635.56,866.26,1635.85,871.46Zm-3.1-15.45a5.68,5.68,0,0,0-2-4.59,8.37,8.37,0,0,0-5.57-1.71h-8.7v13.78h8.65a7.44,7.44,0,0,0,5.51-2.11A7.13,7.13,0,0,0,1632.75,856Z"/><path class="cls-2" d="M1653.17,878.18q5.53,0,6.61-5.48l3.11.49a8.16,8.16,0,0,1-3.14,5.62,10.41,10.41,0,0,1-6.58,2.07q-5.51,0-8.4-3.22t-2.9-9.32q0-5.7,3-9.07a10.42,10.42,0,0,1,8.16-3.4,9.63,9.63,0,0,1,7.52,2.94q2.68,2.94,2.68,8.24v2h-18Q1645.52,878.19,1653.17,878.18Zm-.17-19.64a7.08,7.08,0,0,0-5.3,2,9.42,9.42,0,0,0-2.36,5.83h14.44C1659.54,861.15,1657.29,858.54,1653,858.54Z"/><path class="cls-2" d="M1688.51,877.55h1.24v2.74h-2a4.61,4.61,0,0,1-3-1,3.23,3.23,0,0,1-1.2-2.63v-.18a8.42,8.42,0,0,1-7.78,4.38,8.88,8.88,0,0,1-6-1.93,6.33,6.33,0,0,1-2.25-5,6.55,6.55,0,0,1,1.87-4.79,9.47,9.47,0,0,1,5.32-2.52l7.24-1.25a1.68,1.68,0,0,0,1.55-1.82A4.53,4.53,0,0,0,1682,860a6.33,6.33,0,0,0-4.29-1.37q-5.28,0-6.42,4.9l-3.07-.42a8.08,8.08,0,0,1,3.14-5.22,10.34,10.34,0,0,1,6.49-2,9.22,9.22,0,0,1,6.54,2.22,7.7,7.7,0,0,1,2.39,5.94v11.69a2,2,0,0,0,.41,1.42A1.9,1.9,0,0,0,1688.51,877.55Zm-17.72-3.8a4.07,4.07,0,0,0,1.36,3.22,5.62,5.62,0,0,0,3.78,1.17,7,7,0,0,0,5.48-2.42,9.27,9.27,0,0,0,2.16-6.32v-1.53l-8.53,1.48a5.17,5.17,0,0,0-3.13,1.49A4.06,4.06,0,0,0,1670.79,873.75Z"/><path class="cls-2" d="M1703.56,878a6.65,6.65,0,0,0,4.72-1.66,7.07,7.07,0,0,0,2.1-4.69l3.26.35a9.49,9.49,0,0,1-3.12,6.43,11.29,11.29,0,0,1-15-.92c-2-2.23-2.93-5.26-2.93-9.07s1-6.88,2.93-9.16a10,10,0,0,1,8-3.45,10.52,10.52,0,0,1,7,2.25,9.56,9.56,0,0,1,3.21,6.33l-3.45.4q-1-6.17-6.87-6.17a6.51,6.51,0,0,0-5.51,2.59,11.7,11.7,0,0,0-2,7.21,11.08,11.08,0,0,0,2,7A6.67,6.67,0,0,0,1703.56,878Z"/><path class="cls-2" d="M1739.37,864.85v15.44h-3.28V865.46a7.07,7.07,0,0,0-1.62-5,6,6,0,0,0-4.61-1.76,6.49,6.49,0,0,0-5.3,2.18c-1.2,1.45-1.81,3.58-1.81,6.38v13h-3.25V846.68h3.25V859.6q2.45-3.74,7.64-3.73a8.29,8.29,0,0,1,9,9Z"/><path class="cls-2" d="M1776.31,871.22h-15l-3.54,9.07H1754l13.29-33.61h3.26l13.12,33.61h-4Zm-13.88-3h12.73l-6.23-16.62Z"/><path class="cls-2" d="M1797.33,880.29h-3.49l-9.47-23.86h3.47l7.8,20.35,7.83-20.35h3.42Z"/><path class="cls-2" d="M1820.09,878.91a9.5,9.5,0,0,1-7.48-3.12,12.21,12.21,0,0,1-2.76-8.41,12.08,12.08,0,0,1,2.79-8.34,9.48,9.48,0,0,1,7.45-3.17,9,9,0,0,1,7.57,3.63v-3.07h3.26v22.9a10.49,10.49,0,0,1-2.71,7.6,9.88,9.88,0,0,1-7.46,2.81,11.5,11.5,0,0,1-7.28-2.1,8.16,8.16,0,0,1-3.08-5.87l3.25-.28a6.53,6.53,0,0,0,2.28,4.16,7.85,7.85,0,0,0,4.78,1.28,6.56,6.56,0,0,0,5.2-2q1.75-2,1.76-5.88V875A8.72,8.72,0,0,1,1820.09,878.91Zm-6.87-11.53a9.65,9.65,0,0,0,1.92,6.42,6.71,6.71,0,0,0,5.42,2.27,6.44,6.44,0,0,0,5.2-2.4,10.8,10.8,0,0,0,0-12.52,6.34,6.34,0,0,0-5.18-2.47,6.69,6.69,0,0,0-5.45,2.27A9.75,9.75,0,0,0,1813.22,867.38Z"/><path class="cls-2" d="M108.38,983.94a5.84,5.84,0,0,0-1.87-4.64,7.93,7.93,0,0,0-5.37-1.64H98.21v-2.79h2.93a5.88,5.88,0,0,0,4.57-1.77,7,7,0,0,0,1.62-4.93,5.35,5.35,0,0,0-1.79-4.25,7.13,7.13,0,0,0-4.84-1.56,7.63,7.63,0,0,0-5.48,1.94A7.73,7.73,0,0,0,93,969.74L89.8,969a9,9,0,0,1,3.14-6.89,11.41,11.41,0,0,1,7.71-2.69,10.94,10.94,0,0,1,7.41,2.35,8,8,0,0,1,2.72,6.39,9.2,9.2,0,0,1-1.26,4.85,7.72,7.72,0,0,1-3.57,3.12,8.86,8.86,0,0,1,4.39,3,7.6,7.6,0,0,1,1.54,4.78,9.76,9.76,0,0,1-3,7.5,11.43,11.43,0,0,1-8.11,2.79,13.68,13.68,0,0,1-8.25-2.42,8.9,8.9,0,0,1-3.7-6.47l3.47-1a7.56,7.56,0,0,0,2.55,5.11,8.65,8.65,0,0,0,5.75,1.81,8.12,8.12,0,0,0,5.74-1.94A7,7,0,0,0,108.38,983.94Z"/><path class="cls-2" d="M117.74,976.8q0-8.1,3.21-12.73a11,11,0,0,1,17.9,0q3.21,4.63,3.21,12.73t-3.25,12.72a11,11,0,0,1-17.91.05Q117.74,985,117.74,976.8Zm20.83,0c0-4.57-.75-8.11-2.26-10.65a7.26,7.26,0,0,0-12.78.05q-2.31,3.84-2.3,10.6c0,4.6.74,8.17,2.24,10.68a7.34,7.34,0,0,0,12.84,0Q138.57,983.69,138.57,976.8Z"/><path class="cls-2" d="M149.89,999.93h-3.75L163.23,958h3.56Z"/><path class="cls-2" d="M176,993.6h-3.49V960H195.9v3.07H176v12.12h18v3H176Z"/><path class="cls-2" d="M199,981.69a13.08,13.08,0,0,1,3.07-9.07,11.76,11.76,0,0,1,16.62,0,14.74,14.74,0,0,1,0,18.14,11.78,11.78,0,0,1-16.62,0A13,13,0,0,1,199,981.69Zm17.29,7.06a12.63,12.63,0,0,0,0-14.13,7.89,7.89,0,0,0-11.76,0,12.71,12.71,0,0,0,0,14.13,7.22,7.22,0,0,0,5.87,2.6A7.29,7.29,0,0,0,216.33,988.75Z"/><path class="cls-2" d="M231.15,993.6h-3.26V960h3.26Z"/><path class="cls-2" d="M242.07,993.6h-3.26V960h3.26Z"/><path class="cls-2" d="M248.1,981.69a13.08,13.08,0,0,1,3.07-9.07,11.75,11.75,0,0,1,16.61,0,14.74,14.74,0,0,1,0,18.14,11.77,11.77,0,0,1-16.61,0A13,13,0,0,1,248.1,981.69Zm17.28,7.06a12.59,12.59,0,0,0,0-14.13,7.88,7.88,0,0,0-11.75,0,12.66,12.66,0,0,0,0,14.13,7.19,7.19,0,0,0,5.87,2.6A7.27,7.27,0,0,0,265.38,988.75Z"/><path class="cls-2" d="M285,993.6h-3.16L274,969.74h3.35l6.17,19.41,5.9-19.41h3.12l5.84,19.34,6.11-19.34h3.31l-7.92,23.86h-3.12l-5.91-19.24Z"/><path class="cls-2" d="M322.11,991.49q5.53,0,6.61-5.48l3.12.49a8.15,8.15,0,0,1-3.14,5.61,10.44,10.44,0,0,1-6.59,2.08q-5.5,0-8.4-3.23t-2.9-9.31q0-5.7,3-9.07a10.39,10.39,0,0,1,8.15-3.4,9.65,9.65,0,0,1,7.53,2.94q2.67,2.94,2.67,8.24v2h-18Q314.48,991.49,322.11,991.49ZM322,971.85a7.08,7.08,0,0,0-5.31,2,9.48,9.48,0,0,0-2.36,5.84h14.44Q328.38,971.85,322,971.85Z"/><path class="cls-2" d="M341.56,993.6h-3.25V969.74h3.25v4.66c1.57-3.1,3.93-4.66,7.11-4.66h1.78v3.16h-1.78a6,6,0,0,0-5.14,2.92,13.49,13.49,0,0,0-2,7.66Z"/><path class="cls-2" d="M363.15,994.19A11.1,11.1,0,0,1,356,992a7.55,7.55,0,0,1-2.88-5.77l3.21-.58a6.7,6.7,0,0,0,2,4.37,7.19,7.19,0,0,0,4.78,1.39,6.52,6.52,0,0,0,4.23-1.18,4.25,4.25,0,0,0,1.44-3.48q0-3.09-4.8-3.89l-3.26-.52q-6.92-1.14-6.91-6.54a5.85,5.85,0,0,1,2.37-4.78,11.42,11.42,0,0,1,12.54,0,8.44,8.44,0,0,1,3,5.45l-3,.52a7.07,7.07,0,0,0-2.18-3.94,8,8,0,0,0-8.14-.15,3.48,3.48,0,0,0-.45,5.27,5.73,5.73,0,0,0,3.17,1.23l3.75.61q7.15,1.17,7.15,6.73a6.68,6.68,0,0,1-2.41,5.37A9.79,9.79,0,0,1,363.15,994.19Z"/><path class="cls-2" d="M735.54,968.69a5.89,5.89,0,0,0-1.79-4.5,6.58,6.58,0,0,0-4.7-1.69q-8,0-8,9.54l-3.31-.42q-.27-5.62,2.84-8.89a11,11,0,0,1,8.34-3.3,10.32,10.32,0,0,1,7.41,2.58,8.9,8.9,0,0,1,2.72,6.77,12.11,12.11,0,0,1-1.7,6,29.24,29.24,0,0,1-5.45,6.54l-10,9.3H739.8v3H717.54v-3.21L729.82,979a22.24,22.24,0,0,0,4.42-5.24A10.18,10.18,0,0,0,735.54,968.69Z"/><path class="cls-2" d="M757.22,972.15a10.22,10.22,0,0,1,7.57,2.82,10,10,0,0,1,2.79,7.4,12,12,0,0,1-3.07,8.63,11.28,11.28,0,0,1-8.44,3.19,13,13,0,0,1-7.84-2.18,9.54,9.54,0,0,1-3.74-6.24l3.56-.42a7.06,7.06,0,0,0,2.64,4.39,8.53,8.53,0,0,0,5.24,1.52,7.84,7.84,0,0,0,6-2.29,9.06,9.06,0,0,0,2.14-6.46A7.61,7.61,0,0,0,762.2,977a6.87,6.87,0,0,0-5.22-2,9.39,9.39,0,0,0-4.36,1.06,8.47,8.47,0,0,0-3.23,2.78L746,977.8,748.43,960h16.8v3H751.41l-1.88,12.09A11.17,11.17,0,0,1,757.22,972.15Z"/><path class="cls-2" d="M774.77,999.93H771L788.11,958h3.56Z"/><path class="cls-2" d="M813.54,984.53h-15L795,993.6h-3.71L804.56,960h3.26L821,993.6h-4Zm-13.88-3h12.73l-6.23-16.62Z"/><path class="cls-2" d="M834,992.22a9.47,9.47,0,0,1-7.47-3.12,14,14,0,0,1,0-16.76,9.49,9.49,0,0,1,7.45-3.16,9,9,0,0,1,7.57,3.63v-3.07h3.26v22.9a10.45,10.45,0,0,1-2.71,7.59,9.84,9.84,0,0,1-7.46,2.82,11.52,11.52,0,0,1-7.28-2.1,8.21,8.21,0,0,1-3.08-5.87l3.26-.28a6.5,6.5,0,0,0,2.27,4.16,7.87,7.87,0,0,0,4.78,1.27,6.59,6.59,0,0,0,5.21-2q1.75-2,1.75-5.88v-4.08A8.73,8.73,0,0,1,834,992.22Zm-6.86-11.53a9.68,9.68,0,0,0,1.92,6.42,6.7,6.7,0,0,0,5.41,2.27,6.46,6.46,0,0,0,5.21-2.4,10.79,10.79,0,0,0,0-12.53,6.35,6.35,0,0,0-5.18-2.46,6.7,6.7,0,0,0-5.45,2.26A9.85,9.85,0,0,0,827.16,980.69Z"/><path class="cls-2" d="M862.15,991.49q5.54,0,6.61-5.48l3.12.49a8.16,8.16,0,0,1-3.15,5.61,10.41,10.41,0,0,1-6.58,2.08q-5.5,0-8.4-3.23t-2.9-9.31q0-5.7,3-9.07a10.38,10.38,0,0,1,8.15-3.4,9.63,9.63,0,0,1,7.52,2.94q2.69,2.94,2.68,8.24v2h-18Q854.5,991.49,862.15,991.49ZM862,971.85a7.07,7.07,0,0,0-5.3,2,9.48,9.48,0,0,0-2.36,5.84h14.44C868.52,974.46,866.27,971.85,862,971.85Z"/><path class="cls-2" d="M907.9,984.53h-15l-3.54,9.07h-3.71L898.92,960h3.26L915.3,993.6h-4Zm-13.88-3h12.73l-6.23-16.62Z"/><path class="cls-2" d="M928.92,993.6h-3.49L916,969.74h3.47l7.8,20.34,7.83-20.34h3.42Z"/><path class="cls-2" d="M951.68,992.22a9.5,9.5,0,0,1-7.48-3.12,14,14,0,0,1,0-16.76,9.47,9.47,0,0,1,7.45-3.16,9,9,0,0,1,7.57,3.63v-3.07h3.26v22.9a10.45,10.45,0,0,1-2.71,7.59,9.84,9.84,0,0,1-7.46,2.82,11.5,11.5,0,0,1-7.28-2.1,8.17,8.17,0,0,1-3.08-5.87l3.25-.28a6.55,6.55,0,0,0,2.28,4.16,7.85,7.85,0,0,0,4.78,1.27,6.55,6.55,0,0,0,5.2-2,8.66,8.66,0,0,0,1.76-5.88v-4.08A8.74,8.74,0,0,1,951.68,992.22Zm-6.87-11.53a9.68,9.68,0,0,0,1.92,6.42,6.74,6.74,0,0,0,5.42,2.27,6.44,6.44,0,0,0,5.2-2.4,10.81,10.81,0,0,0,0-12.53,6.36,6.36,0,0,0-5.18-2.46,6.68,6.68,0,0,0-5.45,2.26A9.79,9.79,0,0,0,944.81,980.69Z"/><path class="cls-2" d="M1441.15,983.94a5.84,5.84,0,0,0-1.87-4.64,7.93,7.93,0,0,0-5.37-1.64H1431v-2.79h2.93a5.88,5.88,0,0,0,4.57-1.77,7,7,0,0,0,1.62-4.93,5.32,5.32,0,0,0-1.8-4.25,7.09,7.09,0,0,0-4.84-1.56,7.6,7.6,0,0,0-5.47,1.94,7.73,7.73,0,0,0-2.19,5.44l-3.23-.73a9,9,0,0,1,3.14-6.89,11.41,11.41,0,0,1,7.71-2.69,10.92,10.92,0,0,1,7.4,2.35,8,8,0,0,1,2.72,6.39,9.29,9.29,0,0,1-1.25,4.85,7.75,7.75,0,0,1-3.58,3.12,8.85,8.85,0,0,1,4.4,3,7.66,7.66,0,0,1,1.53,4.78,9.75,9.75,0,0,1-3,7.5,11.43,11.43,0,0,1-8.11,2.79,13.68,13.68,0,0,1-8.25-2.42,8.87,8.87,0,0,1-3.7-6.47l3.47-1a7.48,7.48,0,0,0,2.55,5.11,8.62,8.62,0,0,0,5.74,1.81,8.13,8.13,0,0,0,5.75-1.94A7,7,0,0,0,1441.15,983.94Z"/><path class="cls-2" d="M1469.51,983.94a5.84,5.84,0,0,0-1.87-4.64,7.93,7.93,0,0,0-5.37-1.64h-2.93v-2.79h2.93a5.88,5.88,0,0,0,4.57-1.77,7,7,0,0,0,1.62-4.93,5.32,5.32,0,0,0-1.8-4.25,7.09,7.09,0,0,0-4.84-1.56,7.6,7.6,0,0,0-5.47,1.94,7.73,7.73,0,0,0-2.19,5.44l-3.23-.73a9,9,0,0,1,3.14-6.89,11.37,11.37,0,0,1,7.71-2.69,10.92,10.92,0,0,1,7.4,2.35,8,8,0,0,1,2.72,6.39,9.29,9.29,0,0,1-1.25,4.85,7.75,7.75,0,0,1-3.58,3.12,8.85,8.85,0,0,1,4.4,3,7.66,7.66,0,0,1,1.53,4.78,9.75,9.75,0,0,1-3,7.5,11.43,11.43,0,0,1-8.11,2.79,13.68,13.68,0,0,1-8.25-2.42,8.87,8.87,0,0,1-3.7-6.47l3.47-1a7.48,7.48,0,0,0,2.55,5.11,8.62,8.62,0,0,0,5.74,1.81,8.13,8.13,0,0,0,5.75-1.94A7,7,0,0,0,1469.51,983.94Z"/><path class="cls-2" d="M1491.14,972a10.6,10.6,0,0,1,7.93,3,11.83,11.83,0,0,1-.24,15.94,10.62,10.62,0,0,1-7.92,3.24q-6,0-9-4.15t-3-12.33q0-8.72,3.23-13.5a10.33,10.33,0,0,1,9-4.78,10.66,10.66,0,0,1,6.66,2.07,10.29,10.29,0,0,1,3.68,5.85l-3.52.77a9.06,9.06,0,0,0-2.61-4.4,6.54,6.54,0,0,0-4.3-1.36,7.16,7.16,0,0,0-6.52,4.08,21,21,0,0,0-2.32,10.4,9.78,9.78,0,0,1,3.73-3.58A10.51,10.51,0,0,1,1491.14,972Zm-8.29,11.2A8,8,0,0,0,1485,989a7.76,7.76,0,0,0,5.72,2.28,7.51,7.51,0,0,0,5.65-2.28,8.1,8.1,0,0,0,2.23-5.83,8.48,8.48,0,0,0-2-6.06,8.43,8.43,0,0,0-11.51.2A8.17,8.17,0,0,0,1482.85,983.19Z"/><path class="cls-2" d="M1520,972a10.59,10.59,0,0,1,7.92,3,11.81,11.81,0,0,1-.23,15.94,10.62,10.62,0,0,1-7.92,3.24q-6,0-9-4.15t-3-12.33q0-8.72,3.23-13.5a10.31,10.31,0,0,1,9-4.78,10.65,10.65,0,0,1,6.65,2.07,10.24,10.24,0,0,1,3.68,5.85l-3.51.77a9,9,0,0,0-2.62-4.4,6.52,6.52,0,0,0-4.3-1.36,7.15,7.15,0,0,0-6.51,4.08,20.87,20.87,0,0,0-2.32,10.4,9.75,9.75,0,0,1,3.72-3.58A10.55,10.55,0,0,1,1520,972Zm-8.3,11.2a8,8,0,0,0,2.16,5.79,7.73,7.73,0,0,0,5.72,2.28,7.53,7.53,0,0,0,5.65-2.28,8.14,8.14,0,0,0,2.22-5.83,8.48,8.48,0,0,0-2-6.06,8.42,8.42,0,0,0-11.5.2A8.17,8.17,0,0,0,1511.72,983.19Z"/><path class="cls-2" d="M1556.91,993.6h-20.34v-3H1545V967.3a7.23,7.23,0,0,1-3.82.92h-4.75v-3h4.45a4,4,0,0,0,3.22-1.26,6.16,6.16,0,0,0,1.07-4h3.35v30.63h8.39Z"/><path class="cls-2" d="M1562.77,999.93H1559L1576.11,958h3.56Z"/><path class="cls-2" d="M1588.86,993.6h-3.5V960h3.5Z"/><path class="cls-2" d="M1616,980.59v13h-3.28V978.76a7.4,7.4,0,0,0-1.49-5A5.24,5.24,0,0,0,1607,972a5.87,5.87,0,0,0-4.92,2.19q-1.71,2.19-1.71,6.36v13h-3.26V969.74h3.26v3a8.07,8.07,0,0,1,7.14-3.58,9,9,0,0,1,4.69,1.15,7,7,0,0,1,2.91,3.35q2.37-4.5,7.87-4.5a8.42,8.42,0,0,1,6.37,2.4,9.08,9.08,0,0,1,2.31,6.57V993.6h-3.26V978.76a7.4,7.4,0,0,0-1.5-5,5.28,5.28,0,0,0-4.27-1.76,5.84,5.84,0,0,0-4.91,2.19A10.23,10.23,0,0,0,1616,980.59Z"/><path class="cls-2" d="M1650.26,969.18a9.67,9.67,0,0,1,7.74,3.35c2,2.23,2.93,5.23,2.93,9a13.88,13.88,0,0,1-2.93,9.21,9.6,9.6,0,0,1-7.74,3.47,9.13,9.13,0,0,1-8-4.2v12.49H1639V969.74h3.26v3.75A9.08,9.08,0,0,1,1650.26,969.18Zm7.29,12.51a11.25,11.25,0,0,0-2-7.05A6.58,6.58,0,0,0,1650,972a7,7,0,0,0-5.73,2.63,12.41,12.41,0,0,0,0,14,7,7,0,0,0,5.72,2.65,6.6,6.6,0,0,0,5.51-2.59A11.14,11.14,0,0,0,1657.55,981.69Z"/><path class="cls-2" d="M1670.28,993.6H1667V969.74h3.26v4.66c1.56-3.1,3.93-4.66,7.1-4.66h1.78v3.16h-1.78a6,6,0,0,0-5.13,2.92,13.41,13.41,0,0,0-2,7.66Z"/><path class="cls-2" d="M1693,991.49q5.54,0,6.61-5.48l3.12.49a8.15,8.15,0,0,1-3.14,5.61,10.44,10.44,0,0,1-6.59,2.08q-5.51,0-8.4-3.23t-2.9-9.31q0-5.7,3-9.07a10.39,10.39,0,0,1,8.15-3.4,9.65,9.65,0,0,1,7.53,2.94q2.67,2.94,2.67,8.24v2h-18Q1685.38,991.49,1693,991.49Zm-.16-19.64a7.08,7.08,0,0,0-5.31,2,9.48,9.48,0,0,0-2.36,5.84h14.44Q1699.28,971.85,1692.85,971.85Z"/><path class="cls-2" d="M1717.32,994.19a11.08,11.08,0,0,1-7.15-2.16,7.52,7.52,0,0,1-2.88-5.77l3.21-.58a6.61,6.61,0,0,0,2,4.37,7.17,7.17,0,0,0,4.78,1.39,6.52,6.52,0,0,0,4.23-1.18,4.25,4.25,0,0,0,1.44-3.48q0-3.09-4.81-3.89l-3.25-.52q-6.92-1.14-6.92-6.54a5.83,5.83,0,0,1,2.38-4.78,11.42,11.42,0,0,1,12.54,0,8.49,8.49,0,0,1,3,5.45l-3,.52a7,7,0,0,0-2.18-3.94,6.57,6.57,0,0,0-4.17-1.19,6.64,6.64,0,0,0-4,1,3.23,3.23,0,0,0-1.45,2.75,3.26,3.26,0,0,0,1,2.52,5.76,5.76,0,0,0,3.18,1.23l3.75.61q7.14,1.17,7.15,6.73a6.69,6.69,0,0,1-2.42,5.37A9.76,9.76,0,0,1,1717.32,994.19Z"/><path class="cls-2" d="M1740.29,994.19a11.08,11.08,0,0,1-7.15-2.16,7.56,7.56,0,0,1-2.89-5.77l3.21-.58a6.7,6.7,0,0,0,2,4.37,7.22,7.22,0,0,0,4.79,1.39,6.56,6.56,0,0,0,4.23-1.18,4.25,4.25,0,0,0,1.44-3.48q0-3.09-4.81-3.89l-3.26-.52q-6.9-1.14-6.91-6.54a5.83,5.83,0,0,1,2.38-4.78,11.42,11.42,0,0,1,12.54,0,8.53,8.53,0,0,1,3,5.45l-3,.52a7,7,0,0,0-2.18-3.94,6.57,6.57,0,0,0-4.17-1.19,6.64,6.64,0,0,0-4,1,3.47,3.47,0,0,0-.46,5.27,5.73,5.73,0,0,0,3.18,1.23l3.75.61q7.14,1.17,7.14,6.73a6.68,6.68,0,0,1-2.41,5.37A9.76,9.76,0,0,1,1740.29,994.19Z"/><path class="cls-2" d="M1758.4,965.48h-3.26V960h3.26Zm0,28.12h-3.26V969.74h3.26Z"/><path class="cls-2" d="M1764.43,981.69a13.08,13.08,0,0,1,3.07-9.07,11.75,11.75,0,0,1,16.61,0,14.74,14.74,0,0,1,0,18.14,11.77,11.77,0,0,1-16.61,0A13,13,0,0,1,1764.43,981.69Zm17.28,7.06a12.59,12.59,0,0,0,0-14.13,7.88,7.88,0,0,0-11.75,0,12.66,12.66,0,0,0,0,14.13,7.95,7.95,0,0,0,11.76,0Z"/><path class="cls-2" d="M1813.15,978.15V993.6h-3.28V978.76a7,7,0,0,0-1.62-5,5.9,5.9,0,0,0-4.61-1.76,6.46,6.46,0,0,0-5.3,2.18c-1.2,1.45-1.8,3.58-1.8,6.37v13h-3.26V969.74h3.26v3.16q2.43-3.72,7.64-3.72a8.28,8.28,0,0,1,9,9Z"/></g></svg>