<svg xmlns="http://www.w3.org/2000/svg" viewBox="0 0 864 504"><defs><style>.cls-1{fill:#dbd8d7;}.cls-2{fill:#fff;}.cls-3{fill:#bdb9b9;}</style></defs><title>material-86</title><g id="Layer_2" data-name="Layer 2"><rect class="cls-1" x="0.05" width="863.9" height="504"/></g><g id="Layer_1" data-name="Layer 1"><path class="cls-2" d="M210,198V306H318V198Zm96,96H222V210h84Z"/><path class="cls-3" d="M264,348.25A96.25,96.25,0,1,1,360.25,252,96.36,96.36,0,0,1,264,348.25Zm0-192A95.75,95.75,0,1,0,359.75,252,95.85,95.85,0,0,0,264,156.25Z"/><path class="cls-3" d="M600,348.31A96.31,96.31,0,1,1,696.31,252,96.41,96.41,0,0,1,600,348.31Zm0-192A95.69,95.69,0,1,0,695.69,252,95.8,95.8,0,0,0,600,156.31Z"/><path class="cls-2" d="M546,198V306H654V198Zm41.77,84.23L564,258l8.57-8.4,15.33,15.62,39.66-39.66L636,234Z"/><rect x="149.99" y="197.73" width="24.01" height="0.5"/><rect x="161.75" y="197.98" width="0.5" height="12.01"/><polygon points="149.98 210.25 149.98 209.75 173.99 209.71 173.99 210.21 149.98 210.25"/><path d="M144.3,207.5h-5.59v-.78l2.95-3.28a7.36,7.36,0,0,0,.91-1.21,2.09,2.09,0,0,0,.25-1,1.52,1.52,0,0,0-.41-1.09,1.4,1.4,0,0,0-1.08-.43,1.65,1.65,0,0,0-1.25.46,1.75,1.75,0,0,0-.45,1.28h-1.09a2.51,2.51,0,0,1,.76-1.9,2.81,2.81,0,0,1,2-.73,2.71,2.71,0,0,1,1.88.62,2.11,2.11,0,0,1,.7,1.66,4.89,4.89,0,0,1-1.61,3L140,206.61h4.28Z"/><rect x="221.75" y="138" width="0.5" height="24.02"/><rect x="209.99" y="149.77" width="12.01" height="0.5"/><rect x="209.74" y="138" width="0.5" height="24"/><path d="M218.93,132h-5.59v-.78l2.95-3.28a6.66,6.66,0,0,0,.9-1.21,2,2,0,0,0,.25-1,1.54,1.54,0,0,0-.4-1.1,1.4,1.4,0,0,0-1.08-.43,1.71,1.71,0,0,0-1.26.46,1.81,1.81,0,0,0-.44,1.28h-1.09a2.49,2.49,0,0,1,.76-1.9,2.79,2.79,0,0,1,2-.73,2.69,2.69,0,0,1,1.88.63,2.12,2.12,0,0,1,.69,1.66,4.87,4.87,0,0,1-1.6,3l-2.29,2.48h4.29Z"/><rect class="cls-3" x="221.75" y="335.89" width="0.5" height="2"/><path class="cls-3" d="M222.25,332.88h-.5v-4h.5Zm0-7h-.5v-4h.5Zm0-7h-.5v-4h.5Zm0-7h-.5v-4h.5Zm0-7h-.5v-4h.5Zm0-7h-.5v-4h.5Zm0-7h-.5v-4h.5Zm0-7h-.5v-4h.5Zm0-7h-.5v-4h.5Zm0-7h-.5v-4h.5Zm0-7h-.5v-4h.5Zm0-7h-.5v-4h.5Zm0-7h-.5v-4h.5Zm0-7h-.5v-4h.5Zm0-7h-.5v-4h.5Zm0-7h-.5v-4h.5Zm0-7h-.5v-4h.5Zm0-7h-.5v-4h.5Zm0-7h-.5v-4h.5Zm0-7h-.5v-4h.5Zm0-7h-.5v-4h.5Zm0-7h-.5v-4h.5Zm0-7h-.5v-4h.5Zm0-7h-.5v-4h.5Z"/><rect class="cls-3" x="221.75" y="162" width="0.5" height="2"/><rect class="cls-3" x="209.75" y="328" width="0.5" height="2"/><path class="cls-3" d="M210.25,325h-.5v-4h.5Zm0-7h-.5v-4h.5Zm0-7h-.5v-4h.5Zm0-7h-.5v-4h.5Zm0-7h-.5v-4h.5Zm0-7h-.5v-4h.5Zm0-7h-.5v-4h.5Zm0-7h-.5v-4h.5Zm0-7h-.5v-4h.5Zm0-7h-.5v-4h.5Zm0-7h-.5v-4h.5Zm0-7h-.5v-4h.5Zm0-7h-.5v-4h.5Zm0-7h-.5v-4h.5Zm0-7h-.5v-4h.5Zm0-7h-.5v-4h.5Zm0-7h-.5v-4h.5Zm0-7h-.5v-4h.5Zm0-7h-.5v-4h.5Zm0-7h-.5v-4h.5Zm0-7h-.5v-4h.5Zm0-7h-.5v-4h.5Zm0-7h-.5v-4h.5Z"/><rect class="cls-3" x="209.75" y="162" width="0.5" height="2"/><rect class="cls-3" x="174" y="209.75" width="2" height="0.5"/><path class="cls-3" d="M338.58,210.25h-4v-.5h4Zm-7.07,0h-4v-.5h4Zm-7.06,0h-4v-.5h4Zm-7.07,0h-4v-.5h4Zm-7.07,0h-4v-.5h4Zm-7.07,0h-4v-.5h4Zm-7.07,0h-4v-.5h4Zm-7.07,0h-4v-.5h4Zm-7.07,0h-4v-.5h4Zm-7.07,0h-4v-.5h4Zm-7.07,0h-4v-.5h4Zm-7.06,0h-4v-.5h4Zm-7.07,0h-4v-.5h4Zm-7.07,0h-4v-.5h4Zm-7.07,0h-4v-.5h4Zm-7.07,0h-4v-.5h4Zm-7.07,0h-4v-.5h4Zm-7.07,0h-4v-.5h4Zm-7.07,0h-4v-.5h4Zm-7.06,0h-4v-.5h4Zm-7.07,0h-4v-.5h4Zm-7.07,0h-4v-.5h4Zm-7.07,0h-4v-.5h4Z"/><rect class="cls-3" x="341.61" y="209.75" width="2" height="0.5"/><rect class="cls-3" x="174" y="197.75" width="2" height="0.5"/><path class="cls-3" d="M673,198.25h-4v-.5h4Zm-7,0h-4v-.5h4Zm-7,0h-4v-.5h4Zm-7,0h-4v-.5h4Zm-7,0h-4v-.5h4Zm-7,0h-4v-.5h4Zm-7,0h-4v-.5h4Zm-7,0h-4v-.5h4Zm-7,0h-4v-.5h4Zm-7,0h-4v-.5h4Zm-7,0h-4v-.5h4Zm-7,0h-4v-.5h4Zm-7,0h-4v-.5h4Zm-7,0h-4v-.5h4Zm-7,0h-4v-.5h4Zm-7,0h-4v-.5h4Zm-7,0h-4v-.5h4Zm-7,0h-4v-.5h4Zm-7,0h-4v-.5h4Zm-7,0h-4v-.5h4Zm-7,0h-4v-.5h4Zm-7,0h-4v-.5h4Zm-7,0h-4v-.5h4Zm-7,0h-4v-.5h4Zm-7,0h-4v-.5h4Zm-7,0h-4v-.5h4Zm-7,0h-4v-.5h4Zm-7,0h-4v-.5h4Zm-7,0h-4v-.5h4Zm-7,0h-4v-.5h4Zm-7,0h-4v-.5h4Zm-7,0h-4v-.5h4Zm-7,0h-4v-.5h4Zm-7,0h-4v-.5h4Zm-7,0h-4v-.5h4Zm-7,0h-4v-.5h4Zm-7,0h-4v-.5h4Zm-7,0h-4v-.5h4Zm-7,0h-4v-.5h4Zm-7,0h-4v-.5h4Zm-7,0h-4v-.5h4Zm-7,0h-4v-.5h4Zm-7,0h-4v-.5h4Zm-7,0h-4v-.5h4Zm-7,0h-4v-.5h4Zm-7,0h-4v-.5h4Zm-7,0h-4v-.5h4Zm-7,0h-4v-.5h4Zm-7,0h-4v-.5h4Zm-7,0h-4v-.5h4Zm-7,0h-4v-.5h4Zm-7,0h-4v-.5h4Zm-7,0h-4v-.5h4Zm-7,0h-4v-.5h4Zm-7,0h-4v-.5h4Zm-7,0h-4v-.5h4Zm-7,0h-4v-.5h4Zm-7,0h-4v-.5h4Zm-7,0h-4v-.5h4Zm-7,0h-4v-.5h4Zm-7,0h-4v-.5h4Zm-7,0h-4v-.5h4Zm-7,0h-4v-.5h4Zm-7,0h-4v-.5h4Zm-7,0h-4v-.5h4Zm-7,0h-4v-.5h4Zm-7,0h-4v-.5h4Zm-7,0h-4v-.5h4Zm-7,0h-4v-.5h4Zm-7,0h-4v-.5h4Zm-7,0h-4v-.5h4Z"/><rect class="cls-3" x="676" y="197.75" width="2" height="0.5"/><rect class="cls-3" x="191.58" y="305.75" width="2" height="0.5"/><path class="cls-3" d="M673,306.25h-4v-.5h4Zm-7.05,0h-4v-.5h4Zm-7,0h-4v-.5h4Zm-7,0h-4v-.5h4Zm-7.05,0h-4v-.5h4Zm-7,0h-4v-.5h4Zm-7.05,0h-4v-.5h4Zm-7,0h-4v-.5h4Zm-7,0h-4v-.5h4Zm-7.05,0h-4v-.5h4Zm-7,0h-4v-.5h4Zm-7.05,0h-4v-.5h4Zm-7,0h-4v-.5h4Zm-7,0h-4v-.5h4Zm-7.05,0h-4v-.5h4Zm-7,0h-4v-.5h4Zm-7.05,0h-4v-.5h4Zm-7,0h-4v-.5h4Zm-7,0h-4v-.5h4Zm-7.05,0h-4v-.5h4Zm-7,0h-4v-.5h4Zm-7.05,0h-4v-.5h4Zm-7,0h-4v-.5h4Zm-7.05,0h-4v-.5h4Zm-7.05,0h-4v-.5h4Zm-7,0h-4v-.5h4Zm-7.05,0h-4v-.5h4Zm-7.05,0h-4v-.5h4Zm-7.05,0h-4v-.5h4Zm-7.05,0h-4v-.5h4Zm-7,0h-4v-.5h4Zm-7.05,0h-4v-.5h4Zm-7.05,0h-4v-.5h4Zm-7.05,0h-4v-.5h4Zm-7.05,0h-4v-.5h4Zm-7,0h-4v-.5h4Zm-7.05,0h-4v-.5h4Zm-7.05,0h-4v-.5h4Zm-7.05,0h-4v-.5h4Zm-7.05,0h-4v-.5h4Zm-7,0h-4v-.5h4Zm-7.05,0h-4v-.5h4Zm-7.05,0h-4v-.5h4Zm-7.05,0h-4v-.5h4Zm-7.05,0h-4v-.5h4Zm-7,0h-4v-.5h4Zm-7.05,0h-4v-.5h4Zm-7.05,0h-4v-.5h4Zm-7.05,0h-4v-.5h4Zm-7.05,0h-4v-.5h4Zm-7,0h-4v-.5h4Zm-7.05,0h-4v-.5h4Zm-7.05,0h-4v-.5h4Zm-7.05,0h-4v-.5h4Zm-7.05,0h-4v-.5h4Zm-7,0h-4v-.5h4Zm-7.05,0h-4v-.5h4Zm-7.05,0h-4v-.5h4Zm-7.05,0h-4v-.5h4Zm-7.05,0h-4v-.5h4Zm-7,0h-4v-.5h4Zm-7,0h-4v-.5h4Zm-7.05,0h-4v-.5h4Zm-7,0h-4v-.5h4Zm-7.05,0h-4v-.5h4Zm-7.05,0h-4v-.5h4Zm-7,0h-4v-.5h4Zm-7.05,0h-4v-.5h4Z"/><rect class="cls-3" x="676" y="305.75" width="2" height="0.5"/><rect class="cls-3" x="264" y="347.75" width="2" height="0.5"/><path class="cls-3" d="M703,348.25h-4v-.5h4Zm-7.05,0h-4v-.5h4Zm-7,0h-4v-.5h4Zm-7,0h-4v-.5h4Zm-7,0h-4v-.5h4Zm-7,0h-4v-.5h4Zm-7,0h-4v-.5h4Zm-7.05,0h-4v-.5h4Zm-7,0h-4v-.5h4Zm-7,0h-4v-.5h4Zm-7,0h-4v-.5h4Zm-7,0h-4v-.5h4Zm-7.05,0h-4v-.5h4Zm-7,0h-4v-.5h4Zm-7,0h-4v-.5h4Zm-7,0h-4v-.5h4Zm-7,0h-4v-.5h4Zm-7.05,0h-4v-.5h4Zm-7,0h-4v-.5h4Zm-7,0h-4v-.5h4Zm-7.05,0h-4v-.5h4Zm-7,0h-4v-.5h4Zm-7.05,0h-4v-.5h4Zm-7,0h-4v-.5h4Zm-7,0h-4v-.5h4Zm-7.05,0h-4v-.5h4Zm-7,0h-4v-.5h4Zm-7.05,0h-4v-.5h4Zm-7,0h-4v-.5h4Zm-7,0h-4v-.5h4Zm-7,0h-4v-.5h4Zm-7.05,0h-4v-.5h4Zm-7.05,0h-4v-.5h4Zm-7.05,0h-4v-.5h4Zm-7,0h-4v-.5h4Zm-7.05,0h-4v-.5h4Zm-7.05,0h-4v-.5h4Zm-7.05,0h-4v-.5h4Zm-7.05,0h-4v-.5h4Zm-7,0h-4v-.5h4Zm-7.05,0h-4v-.5h4Zm-7.05,0h-4v-.5h4Zm-7.05,0h-4v-.5h4Zm-7,0h-4v-.5h4Zm-7,0h-4v-.5h4Zm-7.05,0h-4v-.5h4Zm-7.05,0h-4v-.5h4Zm-7,0h-4v-.5h4Zm-7.05,0h-4v-.5h4Zm-7.05,0h-4v-.5h4Zm-7,0h-4v-.5h4Zm-7.05,0h-4v-.5h4Zm-7,0h-4v-.5h4Zm-7.05,0h-4v-.5h4Zm-7.05,0h-4v-.5h4Zm-7,0h-4v-.5h4Zm-7,0h-4v-.5h4Zm-7.05,0h-4v-.5h4Zm-7.05,0h-4v-.5h4Zm-7.05,0h-4v-.5h4Zm-7,0h-4v-.5h4Zm-7.05,0h-4v-.5h4Z"/><rect class="cls-3" x="706" y="347.75" width="2" height="0.5"/><rect class="cls-3" x="264" y="155.75" width="2" height="0.5"/><path class="cls-3" d="M703,156.25h-4v-.5h4Zm-7.05,0h-4v-.5h4Zm-7,0h-4v-.5h4Zm-7,0h-4v-.5h4Zm-7,0h-4v-.5h4Zm-7,0h-4v-.5h4Zm-7,0h-4v-.5h4Zm-7.05,0h-4v-.5h4Zm-7,0h-4v-.5h4Zm-7,0h-4v-.5h4Zm-7,0h-4v-.5h4Zm-7,0h-4v-.5h4Zm-7.05,0h-4v-.5h4Zm-7,0h-4v-.5h4Zm-7,0h-4v-.5h4Zm-7,0h-4v-.5h4Zm-7,0h-4v-.5h4Zm-7.05,0h-4v-.5h4Zm-7,0h-4v-.5h4Zm-7,0h-4v-.5h4Zm-7.05,0h-4v-.5h4Zm-7,0h-4v-.5h4Zm-7.05,0h-4v-.5h4Zm-7,0h-4v-.5h4Zm-7,0h-4v-.5h4Zm-7.05,0h-4v-.5h4Zm-7,0h-4v-.5h4Zm-7.05,0h-4v-.5h4Zm-7,0h-4v-.5h4Zm-7,0h-4v-.5h4Zm-7,0h-4v-.5h4Zm-7.05,0h-4v-.5h4Zm-7.05,0h-4v-.5h4Zm-7.05,0h-4v-.5h4Zm-7,0h-4v-.5h4Zm-7.05,0h-4v-.5h4Zm-7.05,0h-4v-.5h4Zm-7.05,0h-4v-.5h4Zm-7.05,0h-4v-.5h4Zm-7,0h-4v-.5h4Zm-7.05,0h-4v-.5h4Zm-7.05,0h-4v-.5h4Zm-7.05,0h-4v-.5h4Zm-7,0h-4v-.5h4Zm-7,0h-4v-.5h4Zm-7.05,0h-4v-.5h4Zm-7.05,0h-4v-.5h4Zm-7,0h-4v-.5h4Zm-7.05,0h-4v-.5h4Zm-7.05,0h-4v-.5h4Zm-7,0h-4v-.5h4Zm-7.05,0h-4v-.5h4Zm-7,0h-4v-.5h4Zm-7.05,0h-4v-.5h4Zm-7.05,0h-4v-.5h4Zm-7,0h-4v-.5h4Zm-7,0h-4v-.5h4Zm-7.05,0h-4v-.5h4Zm-7.05,0h-4v-.5h4Zm-7.05,0h-4v-.5h4Zm-7,0h-4v-.5h4Zm-7.05,0h-4v-.5h4Z"/><rect class="cls-3" x="706" y="155.75" width="2" height="0.5"/><rect x="708" y="155.79" width="24.01" height="0.5" transform="translate(-0.6 2.81) rotate(-0.22)"/><rect x="719.75" y="156" width="0.5" height="192.05"/><rect x="708" y="347.82" width="23.99" height="0.5"/><path d="M732.81,250.73h.81a1.76,1.76,0,0,0,1.21-.4,1.37,1.37,0,0,0,.44-1.06,1.32,1.32,0,0,0-1.49-1.5,1.56,1.56,0,0,0-1.13.4,1.4,1.4,0,0,0-.42,1.06h-1.08a2.19,2.19,0,0,1,.74-1.68,2.7,2.7,0,0,1,1.89-.67,2.66,2.66,0,0,1,1.89.64,2.31,2.31,0,0,1,.68,1.77,1.89,1.89,0,0,1-.36,1.08,2.11,2.11,0,0,1-1,.78,2.09,2.09,0,0,1,1.09.74,2.07,2.07,0,0,1,.38,1.26,2.33,2.33,0,0,1-.75,1.82,2.8,2.8,0,0,1-2,.67,2.84,2.84,0,0,1-1.95-.65,2.15,2.15,0,0,1-.76-1.71h1.09a1.39,1.39,0,0,0,.44,1.07,1.69,1.69,0,0,0,1.18.41,1.65,1.65,0,0,0,1.2-.41,1.59,1.59,0,0,0,.42-1.18,1.4,1.4,0,0,0-.46-1.14,2,2,0,0,0-1.32-.41h-.81Z"/><path d="M743.56,255.53H738v-.78l2.95-3.28a7.36,7.36,0,0,0,.91-1.21,2,2,0,0,0,.25-1,1.52,1.52,0,0,0-.41-1.09,1.39,1.39,0,0,0-1.07-.43,1.67,1.67,0,0,0-1.26.46,1.74,1.74,0,0,0-.45,1.28h-1.08a2.52,2.52,0,0,1,.76-1.91,2.81,2.81,0,0,1,2-.72,2.73,2.73,0,0,1,1.88.62,2.14,2.14,0,0,1,.69,1.66,4.89,4.89,0,0,1-1.61,3l-2.28,2.48h4.28Z"/><rect x="468.07" y="197.86" width="23.94" height="0.5"/><rect x="479.78" y="198.13" width="0.5" height="107.85"/><rect x="468.04" y="305.61" width="23.94" height="0.5" transform="translate(-3.55 5.65) rotate(-0.67)"/><path d="M454.27,257.31h-1.09v-7.23l-2.18.8v-1l3.1-1.17h.17Z"/><path d="M462.62,251a1.94,1.94,0,0,1-.34,1.14,2.25,2.25,0,0,1-.91.78,2.4,2.4,0,0,1,1.06.84,2.08,2.08,0,0,1,.39,1.24,2.24,2.24,0,0,1-.75,1.77,2.88,2.88,0,0,1-2,.65,2.84,2.84,0,0,1-2-.66,2.22,2.22,0,0,1-.75-1.76,2.16,2.16,0,0,1,.38-1.24,2.27,2.27,0,0,1,1.05-.85,2.28,2.28,0,0,1-.9-.78,2,2,0,0,1-.33-1.13,2.17,2.17,0,0,1,.7-1.71,2.58,2.58,0,0,1,1.82-.63,2.62,2.62,0,0,1,1.82.63A2.2,2.2,0,0,1,462.62,251Zm-.88,4a1.59,1.59,0,0,0-.46-1.17,1.62,1.62,0,0,0-2.8,1.17,1.51,1.51,0,0,0,.43,1.14,1.66,1.66,0,0,0,1.2.42,1.63,1.63,0,0,0,1.19-.42A1.51,1.51,0,0,0,461.74,255Zm-1.63-5.43a1.43,1.43,0,0,0-1,.39,1.49,1.49,0,0,0-.39,1.08,1.45,1.45,0,0,0,.39,1,1.36,1.36,0,0,0,1,.4,1.38,1.38,0,0,0,1-.4,1.59,1.59,0,0,0,0-2.11A1.35,1.35,0,0,0,460.11,249.55Z"/></g></svg>