<svg xmlns="http://www.w3.org/2000/svg" viewBox="0 0 1920 1080"><defs><style>.cls-1{fill:#910e0d;}.cls-2{fill:#fae700;}.cls-3{fill:#0b39c1;}.cls-4{fill:#49dadf;}.cls-5{fill:#cbbdf4;}.cls-6{fill:#f3c891;}.cls-7{fill:#64c494;}.cls-8{fill:#f75f5f;}.cls-9{fill:#cc975c;}.cls-10{fill:#634fc4;}.cls-11{fill:#fff457;}.cls-12{fill:#4e521b;}.cls-13{fill:#108e5a;}.cls-14{fill:#a27f57;}.cls-15{fill:#ffd557;}.cls-16{fill:#0079fa;}.cls-17{fill:#4f3a22;}.cls-18{fill:#4b3ebb;}</style></defs><g id="Isolation_Mode" data-name="Isolation Mode"><path class="cls-1" d="M470.22,421.78H404l-10.08,28.83h-38.2l60.58-168h44.06l60.47,168.05H480.3ZM415,389.91H459.2l-22-64.11Z"/><path class="cls-2" d="M573.11,450.61H536.66V328.27h34.57v17.22q11.25-17.22,30.94-17.22H613v33.28H600.41q-14.17,0-20.74,8.84T573.11,398Z"/><path class="cls-3" d="M624.67,357.45V328.27h17.69V291.94h36.56v36.33h23.91v29.18H678.92v52.14q0,5.87,2.41,8.44t7.67,2.58h16.29v30H681q-20,0-29.35-8.5t-9.32-27V357.45Z"/><path class="cls-4" d="M761,314.79H724.51V282.56H761Zm0,135.82H724.51V328.27H761Z"/><path class="cls-5" d="M836.66,453.54q-25.67,0-40.67-10.61t-16.4-29L816,410.3q1.76,16.51,20.63,16.52,17.1,0,17.11-11.72,0-7.5-12.54-9.84l-19.69-3.64q-18.16-3.39-27.77-12.77T784.16,365q0-17.35,13.94-28.36,14.29-11.25,37.15-11.25t36.27,9.84q13.43,9.84,16.11,28.12l-33.39,3.75q-3.16-15.35-19.93-15.35-7.26,0-11.42,2.76a8.39,8.39,0,0,0-4.16,7.32,7.86,7.86,0,0,0,2.75,6.39q2.76,2.28,9.44,3.45l21.21,4.11q37.85,7,37.85,36.21,0,19.33-14.12,30.47T836.66,453.54Z"/><path class="cls-6" d="M898.18,357.45V328.27h17.7V291.94h36.56v36.33h23.91v29.18H952.44v52.14q0,5.87,2.4,8.44t7.68,2.58h16.29v30H954.55q-20,0-29.36-8.5t-9.31-27V357.45Z"/><path class="cls-7" d="M1034.47,314.79H998V282.56h36.45Zm0,135.82H998V328.27h36.45Z"/><path class="cls-8" d="M1117.2,423.3q9.61,0,15.59-5.15t7.62-14.77L1175,407.6q-4.34,22.15-19.51,34t-39,11.9q-28.24,0-44.88-17.34Q1055,418.5,1055,389.67q0-29.18,16.64-46.87,16.76-17.46,45.35-17.46,24.72,0,40.08,12.54t19,35.5l-35.27,3.75q-4.34-21.33-23.56-21.33-12.18,0-18.57,8.74t-6.39,25.13q0,16.06,6.39,24.85T1117.2,423.3Z"/><path class="cls-9" d="M1306.93,420.61h4.34v30h-17q-21.8,0-27.18-13.95-12.42,16.88-36.45,16.88-19.34,0-31.4-10.08a33,33,0,0,1-11.84-26q0-15.58,9.49-25.32t27.78-12.77l31.4-5.27a8.71,8.71,0,0,0,5.16-2.52,7.94,7.94,0,0,0,1.52-5.22,11.87,11.87,0,0,0-4.63-9.78q-4.62-3.69-12.6-3.69-17.46,0-20.39,15.93l-34.33-3.63q2.46-17.46,17.58-28.59,15.34-11.25,38.55-11.25,24.38,0,38,12.36t13.65,33.69V411.7c0,3.21.66,5.49,2,6.86S1304,420.61,1306.93,420.61Zm-83.67-6.91q0,6,4,9.19t11.37,3.23q10.79,0,17.87-7.09t7.09-17.87v-4.57l-26,3.86q-7.39,1.29-10.84,4.4T1223.26,413.7Z"/><path class="cls-10" d="M1364.7,450.61h-36.44v-168h36.44Z"/><path class="cls-11" d="M1428.22,450.61h-36.45v-168h36.45Z"/><path class="cls-12" d="M1486.23,456.59l1.87-5.51-44.41-122.81h38.44l23.55,74.53,24.73-74.53h36l-45.11,126.91q-7.86,22.15-18.75,30.94-10.66,8.89-33,8.9h-14.65V465.49h14.88q7.27,0,11.14-2.05A11.17,11.17,0,0,0,1486.23,456.59Z"/><path class="cls-13" d="M481.82,738.61H443.14V570.56h120v32.7H481.82v37.38h71.72v32.93H481.82Z"/><path class="cls-1" d="M614.71,738.61H578.26V616.27h34.57v17.22q11.25-17.22,30.94-17.22h10.78v33.28H642q-14.18,0-20.74,8.84T614.71,686Z"/><path class="cls-14" d="M662.17,677.44q0-28.71,17.34-46.41t45.82-17.69q29.29,0,46.06,17.46,17.34,17.69,17.34,46.64,0,28.71-17.58,46.29-17.46,17.81-45.82,17.81-29.18,0-46.05-17.58Q662.17,706.16,662.17,677.44ZM745,703.22q6.74-9,6.74-25.78T745,651.66q-6.74-9-19.63-9-12.66,0-19.39,9.08t-6.74,25.73q0,16.63,6.74,25.72t19.39,9.08Q738.23,712.24,745,703.22Z"/><path class="cls-15" d="M920.92,669v69.61H884.47V665.37q0-10.2-4.8-15.76T866.19,644q-10.08,0-15.35,6.44T845.57,669v69.61H809.12V616.27h34.57v12.89q11.84-15.82,33.52-15.82,25.18,0,37,19.45,11.84-19.45,36.91-19.45,20.86,0,32.87,12.54t12,33.74v79H959.59V665.37q0-10.32-4.69-15.82T941.54,644q-10.08,0-15.35,6.39T920.92,669Z"/><path class="cls-7" d="M1110.64,738.61H1072V570.56h38.67Z"/><path class="cls-16" d="M1176.15,738.61h-36.44V616.27h34.57v17.22q11.25-17.22,30.93-17.22H1216v33.28h-12.54q-14.19,0-20.75,8.84t-6.56,27.6Z"/><path class="cls-17" d="M1343.38,708.61h4.33v30h-17q-21.79,0-27.18-14-12.43,16.88-36.45,16.88-19.33,0-31.41-10.08a33,33,0,0,1-11.83-26q0-15.59,9.49-25.32t27.77-12.77l31.41-5.27a8.71,8.71,0,0,0,5.16-2.52,7.94,7.94,0,0,0,1.52-5.22,11.87,11.87,0,0,0-4.63-9.78q-4.63-3.69-12.6-3.69-17.46,0-20.39,15.93l-34.33-3.63q2.46-17.46,17.57-28.59,15.36-11.25,38.56-11.25,24.38,0,38,12.36t13.65,33.69V699.7c0,3.21.66,5.49,2,6.86S1340.49,708.61,1343.38,708.61Zm-83.67-6.91q0,6,4,9.19t11.37,3.23q10.79,0,17.87-7.09t7.09-17.87v-4.57l-26,3.86q-7.38,1.29-10.84,4.4T1259.71,701.7Z"/><path class="cls-18" d="M1479.2,659.62v79h-36.56V665.37q0-10.32-5-15.82T1423.18,644q-10.79,0-16.4,6.39T1401.15,669v69.61h-36.44V616.27h34.57v13.12q12.18-16,35-16,20.85,0,32.87,12.54T1479.2,659.62Z"/></g></svg>