<svg xmlns="http://www.w3.org/2000/svg" viewBox="0 0 1920 1080"><g id="Isolation_Mode" data-name="Isolation Mode"><path d="M350.69,582.3h17.69l-8-25.54H305.8l-8,25.54h18.75v32.11H249.2V582.3h13.24l48.4-145.54h47L405.18,582.3h12.89v32.11H350.69Zm-35.63-55.54h35.86L332.87,469Z"/><path d="M540.3,537.19H507.37V524.65a55.12,55.12,0,0,0-8.79.64,23.84,23.84,0,0,0-7,2.17,14.65,14.65,0,0,0-5,4.22,16.42,16.42,0,0,0-2.87,6.68V582.3h24.73v32.11H429.2V582.3h18.17V525.12H429.44V493h54v8.55a39.07,39.07,0,0,1,11.6-6.33A42.91,42.91,0,0,1,509.12,493q7.74,0,15.94.11t15.24.12Z"/><path d="M610.84,493H635.1v30.7H610.6L610.37,575a30,30,0,0,0,.7,7.21,11.2,11.2,0,0,0,2,4.39,6.66,6.66,0,0,0,3.23,2.23,14.5,14.5,0,0,0,4.33.58,31.27,31.27,0,0,0,7.85-.88c2.27-.58,4.53-1.26,6.8-2.05l5,22.62a55.33,55.33,0,0,1-13.3,6,60.42,60.42,0,0,1-17.4,2.22A38.31,38.31,0,0,1,596,614.88a31.63,31.63,0,0,1-11.42-7.44A36.2,36.2,0,0,1,576.74,595a46.12,46.12,0,0,1-2.82-17.46l.36-53.79H556.81V493h17.58l.24-29.06,36.44-17.35Z"/><path d="M658.77,493h54.49V582.3h16.87v32.11H658.77V582.3h18.28V525.12H658.77Zm16.4-39.14a21,21,0,0,1,1.59-8.15,20.26,20.26,0,0,1,4.39-6.62,21.07,21.07,0,0,1,6.62-4.45A20.71,20.71,0,0,1,696,433a19.71,19.71,0,0,1,8,1.64,21,21,0,0,1,11,11.07A21,21,0,0,1,715,462a21,21,0,0,1-11,11.08,19.71,19.71,0,0,1-8,1.64,20.71,20.71,0,0,1-8.26-1.64,21.1,21.1,0,0,1-6.62-4.46,20.16,20.16,0,0,1-4.39-6.62A20.91,20.91,0,0,1,675.17,453.87Z"/><path d="M827,524.77a15.52,15.52,0,0,0-5.33-4.52,33.5,33.5,0,0,0-8.62-3.1A51.69,51.69,0,0,0,801.5,516a35.65,35.65,0,0,0-5.27.41,20.09,20.09,0,0,0-5.22,1.46,11,11,0,0,0-4,2.87,6.78,6.78,0,0,0-1.58,4.63,8.66,8.66,0,0,0,.41,2.7,6.1,6.1,0,0,0,1.58,2.46,11.94,11.94,0,0,0,3.22,2.17,21,21,0,0,0,5.33,1.58l22,4.33a99,99,0,0,1,20,5.86,44.19,44.19,0,0,1,13,8.21,27.94,27.94,0,0,1,7.09,10.43,34.71,34.71,0,0,1,2.17,12.42,34,34,0,0,1-4.86,18.28,42.14,42.14,0,0,1-12.78,13.07,60.47,60.47,0,0,1-17.81,7.85A80.44,80.44,0,0,1,793,616.52a60,60,0,0,1-9.61-2.22,40.28,40.28,0,0,1-7.62-3.34,43.87,43.87,0,0,1-6.15-4.28H748.42V574.1h33.16v.7a9.83,9.83,0,0,0,2.11,5.92A16.72,16.72,0,0,0,788.9,585a27.24,27.24,0,0,0,7.33,2.64,41.64,41.64,0,0,0,8.67.88q10.54,0,15.35-2.76c3.2-1.83,4.81-4.2,4.81-7.09a8,8,0,0,0-2.35-5.8q-2.34-2.4-8.32-3.81l-22.5-4.8q-21.21-4.11-32-13.65t-10.78-24.56a31.7,31.7,0,0,1,4.1-16,38.82,38.82,0,0,1,11.13-12.31,54.51,54.51,0,0,1,16.47-7.91A70.56,70.56,0,0,1,801,487a87,87,0,0,1,13.13.88,73,73,0,0,1,10.31,2.29,40.92,40.92,0,0,1,8,3.34,47.11,47.11,0,0,1,6.15,4H859v32.58H828.81A9.2,9.2,0,0,0,827,524.77Z"/><path d="M926.31,493h24.25v30.7H926.07L925.84,575a30,30,0,0,0,.7,7.21,11.2,11.2,0,0,0,2.05,4.39,6.68,6.68,0,0,0,3.22,2.23,14.62,14.62,0,0,0,4.34.58,31.32,31.32,0,0,0,7.85-.88c2.27-.58,4.53-1.26,6.8-2.05l5,22.62a55.33,55.33,0,0,1-13.3,6,60.44,60.44,0,0,1-17.41,2.22,38.29,38.29,0,0,1-13.65-2.46,31.63,31.63,0,0,1-11.42-7.44A36.2,36.2,0,0,1,892.21,595a46.12,46.12,0,0,1-2.82-17.46l.35-53.79H872.28V493h17.58L890.1,464l36.44-17.35Z"/><path d="M974.24,493h54.49V582.3h16.87v32.11H974.24V582.3h18.28V525.12H974.24Zm16.4-39.14a21.14,21.14,0,0,1,1.58-8.15,20.29,20.29,0,0,1,4.4-6.62,21,21,0,0,1,6.62-4.45,20.71,20.71,0,0,1,8.26-1.64,19.74,19.74,0,0,1,8,1.64,21,21,0,0,1,11,11.07,21,21,0,0,1,0,16.29,21,21,0,0,1-11,11.08,19.74,19.74,0,0,1-8,1.64,20.71,20.71,0,0,1-8.26-1.64,21,21,0,0,1-6.62-4.46,20.18,20.18,0,0,1-4.4-6.62A21.09,21.09,0,0,1,990.64,453.87Z"/><path d="M1157.75,535a35.19,35.19,0,0,0-11.25-9.55,27.84,27.84,0,0,0-14.65-2.75,26.63,26.63,0,0,0-12.36,1.87,28.47,28.47,0,0,0-9.61,6.56,29.81,29.81,0,0,0-6.27,10,36.37,36.37,0,0,0-2.23,13.07,31.81,31.81,0,0,0,2.35,12.19,30.48,30.48,0,0,0,6.39,9.9,28.76,28.76,0,0,0,9.6,6.5,38.06,38.06,0,0,0,12.13,2.82,34.86,34.86,0,0,0,10-2.29,30.48,30.48,0,0,0,8-4.69,32.81,32.81,0,0,0,6-6.44,40.87,40.87,0,0,0,3.92-6.74l32.23,8.91a55.84,55.84,0,0,1-6.86,14.64,57.8,57.8,0,0,1-12.65,13.89,67.16,67.16,0,0,1-42.95,14.47,63.79,63.79,0,0,1-25.67-5.09,61.69,61.69,0,0,1-20.15-13.89,63.6,63.6,0,0,1-13.19-20.63,67.73,67.73,0,0,1-4.74-25.43,63.77,63.77,0,0,1,4.86-25,62.81,62.81,0,0,1,13.42-20.16,60.62,60.62,0,0,1,20.33-13.42,61.46,61.46,0,0,1,25.61-4.33,58,58,0,0,1,19.1,2.22,66.25,66.25,0,0,1,17.58,8.09h23.32V535Z"/><path d="M1279.74,607.85q-4.1,2.58-7.5,4.4a41.06,41.06,0,0,1-13.82,4.57,56.05,56.05,0,0,1-8,.52,59.36,59.36,0,0,1-19.51-3,43.1,43.1,0,0,1-14.54-8.21,35.5,35.5,0,0,1-9.08-12.3,39.25,39.25,0,0,1,.06-31,33.91,33.91,0,0,1,9.32-12.24,44.17,44.17,0,0,1,14.94-8,65.22,65.22,0,0,1,20.21-2.87,121.19,121.19,0,0,1,15.18.87q6.85.89,12.71,2.17v-3.75a16.81,16.81,0,0,0-1.75-7.91,15.33,15.33,0,0,0-4.93-5.51,21.81,21.81,0,0,0-7.61-3.16,44.82,44.82,0,0,0-9.73-1,78,78,0,0,0-19.39,2.17,74.19,74.19,0,0,0-16.12,6.27L1209,507.19a99.44,99.44,0,0,1,25-12.54,87.46,87.46,0,0,1,27.72-4.34,83.21,83.21,0,0,1,21,2.52,42.62,42.62,0,0,1,16.58,8.21,38.34,38.34,0,0,1,10.84,14.82q3.93,9.14,3.93,22.26V582.3h16.29v32.11h-50.63ZM1253,589.69a40.6,40.6,0,0,0,15.11-2.7,44.27,44.27,0,0,0,11.6-6.56V565h-28.12a17.42,17.42,0,0,0-5.27.82,15.76,15.76,0,0,0-4.63,2.34,11.61,11.61,0,0,0-3.28,3.76,10.46,10.46,0,0,0-1.23,5.15,11.76,11.76,0,0,0,3.92,9Q1245.06,589.7,1253,589.69Z"/><path d="M1352.63,432.07h54.73V582.3h18.75v32.11h-73.48V582.3h18.75V464.18h-18.75Z"/><path d="M1444,432.07h54.73V582.3h18.75v32.11H1444V582.3h18.75V464.18H1444Z"/><path d="M1534.51,493H1594v32.11h-9.37l17.46,45.47,17.93-45.47h-10.43V493h59.53v32.11h-13.24l-47,112.38h20.86v32.11h-75.35V637.5h21.21l9.14-23.09-38-89.29h-12.3Z"/></g></svg>