<svg xmlns="http://www.w3.org/2000/svg" viewBox="0 0 1920 1080"><defs><style>.cls-1{fill:#cbe7ee;}.cls-2,.cls-8{fill:#fff;}.cls-3{fill:#39a935;}.cls-4,.cls-6{fill:#d9d9d9;}.cls-4,.cls-5,.cls-6,.cls-7{stroke:#1d1d1b;}.cls-4,.cls-5,.cls-6,.cls-7,.cls-8{stroke-miterlimit:10;}.cls-4,.cls-5{stroke-width:6.9px;}.cls-5{fill:none;}.cls-6,.cls-7{stroke-width:1.97px;}.cls-7{fill:#f5f5f5;}.cls-8{stroke:#000;stroke-width:14.26px;}</style></defs><g id="Background"><rect class="cls-1" width="1920" height="1082.61"/></g><g id="Layer_1" data-name="Layer 1"><rect class="cls-2" x="244.94" y="230.5" width="367.02" height="125.58" rx="62.79" transform="translate(856.89 586.57) rotate(-180)"/><rect class="cls-2" x="323.83" y="326.82" width="367.02" height="125.58" rx="62.79" transform="translate(1014.67 779.23) rotate(180)"/><rect class="cls-2" x="372.79" y="264.04" width="367.02" height="125.58" rx="62.79" transform="translate(1112.59 653.65) rotate(-180)"/><rect class="cls-2" x="1386.44" y="848.81" width="358.92" height="105.52" rx="52.76"/><rect class="cls-2" x="1320.15" y="767.87" width="358.92" height="105.52" rx="52.76"/><rect class="cls-2" x="1279.01" y="820.63" width="358.92" height="105.52" rx="52.76"/><rect class="cls-3" x="1623.04" y="214.3" width="7.53" height="267.21" rx="3.77"/><path class="cls-3" d="M1686,212.66c2.08-5.84,2.85-11.39,2.15-16.12-4.73-.69-10.27.07-16.12,2.16-8.55,3.05-17.75,8.93-26,17.16s-14.11,17.44-17.17,26c-2.08,5.84-2.85,11.39-2.15,16.12,4.73.7,10.27-.07,16.12-2.16,8.55-3.05,17.75-8.92,26-17.16S1682.89,221.22,1686,212.66Z"/><path class="cls-3" d="M1567.67,212.66c-2.09-5.84-2.86-11.39-2.16-16.12,4.73-.69,10.27.07,16.12,2.16,8.55,3.05,17.75,8.93,26,17.16s14.11,17.44,17.16,26c2.09,5.84,2.85,11.39,2.15,16.12-4.73.7-10.27-.07-16.12-2.16-8.55-3.05-17.74-8.92-26-17.16S1570.72,221.22,1567.67,212.66Z"/><path class="cls-3" d="M1686,265.45c2.08-5.84,2.85-11.39,2.15-16.12-4.73-.7-10.27.07-16.12,2.16-8.55,3-17.75,8.92-26,17.16s-14.11,17.44-17.17,26c-2.08,5.84-2.85,11.39-2.15,16.12,4.73.7,10.27-.07,16.12-2.16,8.55-3.05,17.75-8.92,26-17.16S1682.89,274,1686,265.45Z"/><path class="cls-3" d="M1567.67,265.45c-2.09-5.84-2.86-11.39-2.16-16.12,4.73-.7,10.27.07,16.12,2.16,8.55,3,17.75,8.92,26,17.16s14.11,17.44,17.16,26c2.09,5.84,2.85,11.39,2.15,16.12-4.73.7-10.27-.07-16.12-2.16-8.55-3.05-17.74-8.92-26-17.16S1570.72,274,1567.67,265.45Z"/><path class="cls-3" d="M1686,318.24c2.08-5.84,2.85-11.39,2.15-16.12-4.73-.7-10.27.07-16.12,2.16-8.55,3.05-17.75,8.92-26,17.16s-14.11,17.43-17.17,26c-2.08,5.84-2.85,11.39-2.15,16.12,4.73.69,10.27-.07,16.12-2.16,8.55-3.05,17.75-8.93,26-17.16S1682.89,326.79,1686,318.24Z"/><path class="cls-3" d="M1567.67,318.24c-2.09-5.84-2.86-11.39-2.16-16.12,4.73-.7,10.27.07,16.12,2.16,8.55,3.05,17.75,8.92,26,17.16s14.11,17.43,17.16,26c2.09,5.84,2.85,11.39,2.15,16.12-4.73.69-10.27-.07-16.12-2.16-8.55-3.05-17.74-8.93-26-17.16S1570.72,326.79,1567.67,318.24Z"/><path class="cls-3" d="M1636.68,147.91c-2.66-5.61-6-10.07-9.87-12.92-3.84,2.85-7.22,7.31-9.88,12.92-3.89,8.2-6.24,18.86-6.24,30.51s2.35,22.3,6.24,30.51c2.66,5.61,6,10.07,9.88,12.92,3.83-2.85,7.21-7.31,9.87-12.92,3.89-8.21,6.24-18.86,6.24-30.51S1640.57,156.11,1636.68,147.91Z"/><path class="cls-4" d="M1344.18,337.69l-497-259.77L1106.9,575l.06-.06a174.61,174.61,0,1,0,237.22-237.22Z"/><line class="cls-4" x1="1087.87" y1="203.67" x2="1087.87" y2="487.9"/><circle class="cls-4" cx="1260.21" cy="490.93" r="174.32"/><circle class="cls-4" cx="1261.05" cy="492.07" r="103.21"/><line class="cls-4" x1="1088.85" y1="306.42" x2="966.59" y2="306.42"/><line class="cls-4" x1="966.59" y1="306.42" x2="966.59" y2="140.3"/><circle class="cls-4" cx="1261.05" cy="492.07" r="15.41"/><path class="cls-4" d="M1206.62,337.69l-497-259.77L969.34,575l.06-.06a174.6,174.6,0,1,0,237.22-237.22Z"/><polygon class="cls-4" points="1644.73 423 1565.07 383.69 1565.07 462.32 1644.73 423"/><path class="cls-4" d="M1606.77,422.77a74.1,74.1,0,0,0-104.67-67.5l0-.06-95.36,40.18L943,590.78,725.48,682.45l414.28,76.39c2.62.48,5.28.89,8,1.21a254.23,254.23,0,0,0,34.34,2.34,251.31,251.31,0,0,0,171.23-67.06h0l.91-.86,3.36-3.2,221.61-210.83h0A73.93,73.93,0,0,0,1606.77,422.77Z"/><circle class="cls-4" cx="1532.52" cy="419.15" r="15.41"/><circle class="cls-4" cx="1532.67" cy="423.01" r="74.1"/><path class="cls-5" d="M1406.8,395.58a251.21,251.21,0,0,1,27.47,114.59c0,139.3-112.92,252.22-252.21,252.22-111,0-205.29-71.74-239-171.39"/><path class="cls-5" d="M1368.87,411.87a252.42,252.42,0,0,1-106.61,337.5"/><circle class="cls-4" cx="1162.9" cy="634.74" r="126.11"/><circle class="cls-4" cx="1162.9" cy="635.09" r="73.22"/><line class="cls-4" x1="948.33" y1="203.67" x2="948.33" y2="487.9"/><circle class="cls-4" cx="1122.65" cy="490.93" r="174.32"/><circle class="cls-4" cx="1123.48" cy="492.07" r="103.21"/><line class="cls-4" x1="725.48" y1="682.69" x2="943.07" y2="682.69"/><line class="cls-4" x1="951.29" y1="306.42" x2="829.02" y2="306.42"/><line class="cls-4" x1="829.02" y1="306.42" x2="829.02" y2="140.3"/><line class="cls-4" x1="943.07" y1="591" x2="943.07" y2="723.87"/><circle class="cls-4" cx="1123.48" cy="492.07" r="67.68"/><circle class="cls-4" cx="1123.48" cy="492.07" r="15.41"/><line class="cls-4" x1="1275.41" y1="574.97" x2="1390.87" y2="574.97"/><circle class="cls-6" cx="808.97" cy="145.45" r="6.03"/><line class="cls-7" x1="808.97" y1="139.42" x2="808.97" y2="151.48"/><line class="cls-7" x1="802.94" y1="145.45" x2="815" y2="145.45"/><circle class="cls-6" cx="742.25" cy="110.54" r="6.03"/><line class="cls-7" x1="742.25" y1="104.51" x2="742.25" y2="116.57"/><line class="cls-7" x1="736.22" y1="110.54" x2="748.28" y2="110.54"/><circle class="cls-6" cx="808.97" cy="238.29" r="6.03"/><line class="cls-7" x1="808.97" y1="232.26" x2="808.97" y2="244.31"/><line class="cls-7" x1="802.94" y1="238.29" x2="815" y2="238.29"/><circle class="cls-4" cx="1532.67" cy="423.01" r="15.41"/><circle class="cls-6" cx="845.25" cy="163.8" r="6.03"/><line class="cls-7" x1="845.25" y1="157.77" x2="845.25" y2="169.83"/><line class="cls-7" x1="839.22" y1="163.8" x2="851.28" y2="163.8"/><circle class="cls-6" cx="934.09" cy="211.3" r="6.03"/><line class="cls-7" x1="934.09" y1="205.27" x2="934.09" y2="217.33"/><line class="cls-7" x1="928.06" y1="211.3" x2="940.12" y2="211.3"/><circle class="cls-6" cx="845.25" cy="291.58" r="6.03"/><line class="cls-7" x1="845.25" y1="285.55" x2="845.25" y2="297.6"/><line class="cls-7" x1="839.22" y1="291.58" x2="851.28" y2="291.58"/><circle class="cls-6" cx="934.09" cy="291.58" r="6.03"/><line class="cls-7" x1="934.09" y1="285.55" x2="934.09" y2="297.6"/><line class="cls-7" x1="928.06" y1="291.58" x2="940.12" y2="291.58"/><circle class="cls-6" cx="935.07" cy="482.69" r="6.03"/><line class="cls-7" x1="935.07" y1="476.66" x2="935.07" y2="488.72"/><line class="cls-7" x1="929.05" y1="482.69" x2="941.1" y2="482.69"/><circle class="cls-6" cx="934.09" cy="320.57" r="6.03"/><line class="cls-7" x1="934.09" y1="314.54" x2="934.09" y2="326.6"/><line class="cls-7" x1="928.06" y1="320.57" x2="940.12" y2="320.57"/><circle class="cls-6" cx="852.11" cy="320.57" r="6.03"/><line class="cls-7" x1="852.11" y1="314.54" x2="852.11" y2="326.6"/><line class="cls-7" x1="846.08" y1="320.57" x2="858.14" y2="320.57"/><circle class="cls-6" cx="966.59" cy="227.77" r="6.03"/><line class="cls-7" x1="966.59" y1="221.74" x2="966.59" y2="233.8"/><line class="cls-7" x1="960.56" y1="227.77" x2="972.61" y2="227.77"/><circle class="cls-6" cx="983.14" cy="165.37" r="6.03"/><line class="cls-7" x1="983.14" y1="159.34" x2="983.14" y2="171.4"/><line class="cls-7" x1="977.11" y1="165.37" x2="989.17" y2="165.37"/><circle class="cls-6" cx="1069.87" cy="211.3" r="6.03"/><line class="cls-7" x1="1069.87" y1="205.27" x2="1069.87" y2="217.33"/><line class="cls-7" x1="1063.84" y1="211.3" x2="1075.9" y2="211.3"/><circle class="cls-6" cx="1108.08" cy="229.39" r="6.03"/><line class="cls-7" x1="1108.08" y1="223.36" x2="1108.08" y2="235.42"/><line class="cls-7" x1="1102.05" y1="229.39" x2="1114.1" y2="229.39"/><circle class="cls-6" cx="1245.64" cy="302.22" r="6.03"/><line class="cls-7" x1="1245.64" y1="296.19" x2="1245.64" y2="308.25"/><line class="cls-7" x1="1239.61" y1="302.22" x2="1251.67" y2="302.22"/><circle class="cls-6" cx="1377.76" cy="388.86" r="6.03"/><line class="cls-7" x1="1377.76" y1="382.83" x2="1377.76" y2="394.89"/><line class="cls-7" x1="1371.74" y1="388.86" x2="1383.79" y2="388.86"/><circle class="cls-6" cx="1396.35" cy="423.01" r="6.03"/><line class="cls-7" x1="1396.35" y1="416.98" x2="1396.35" y2="429.03"/><line class="cls-7" x1="1390.32" y1="423.01" x2="1402.38" y2="423.01"/><circle class="cls-6" cx="1440.3" cy="404.78" r="6.03"/><line class="cls-7" x1="1440.3" y1="398.75" x2="1440.3" y2="410.81"/><line class="cls-7" x1="1434.27" y1="404.78" x2="1446.33" y2="404.78"/><circle class="cls-6" cx="1532.67" cy="423.01" r="6.03"/><line class="cls-7" x1="1532.67" y1="416.98" x2="1532.67" y2="429.03"/><line class="cls-7" x1="1526.64" y1="423.01" x2="1538.7" y2="423.01"/><circle class="cls-6" cx="1440.3" cy="591.22" r="6.03"/><line class="cls-7" x1="1440.3" y1="585.19" x2="1440.3" y2="597.25"/><line class="cls-7" x1="1434.27" y1="591.22" x2="1446.33" y2="591.22"/><circle class="cls-6" cx="1214.02" cy="720.4" r="6.03"/><line class="cls-7" x1="1214.02" y1="714.37" x2="1214.02" y2="726.43"/><line class="cls-7" x1="1207.99" y1="720.4" x2="1220.04" y2="720.4"/><circle class="cls-6" cx="1111.78" cy="720.4" r="6.03"/><line class="cls-7" x1="1111.78" y1="714.37" x2="1111.78" y2="726.43"/><line class="cls-7" x1="1105.76" y1="720.4" x2="1117.81" y2="720.4"/><circle class="cls-6" cx="1361.69" cy="559.75" r="6.03"/><line class="cls-7" x1="1361.69" y1="553.72" x2="1361.69" y2="565.78"/><line class="cls-7" x1="1355.66" y1="559.75" x2="1367.72" y2="559.75"/><circle class="cls-6" cx="1299.21" cy="559.75" r="6.03"/><line class="cls-7" x1="1299.21" y1="553.72" x2="1299.21" y2="565.78"/><line class="cls-7" x1="1293.18" y1="559.75" x2="1305.24" y2="559.75"/><circle class="cls-6" cx="1342.63" cy="403.74" r="6.03"/><line class="cls-7" x1="1342.63" y1="397.71" x2="1342.63" y2="409.77"/><line class="cls-7" x1="1336.6" y1="403.74" x2="1348.66" y2="403.74"/><circle class="cls-6" cx="1361.69" cy="437.54" r="6.03"/><line class="cls-7" x1="1361.69" y1="431.51" x2="1361.69" y2="443.57"/><line class="cls-7" x1="1355.66" y1="437.54" x2="1367.72" y2="437.54"/><circle class="cls-6" cx="1299.21" cy="419.15" r="6.03"/><line class="cls-7" x1="1299.21" y1="413.12" x2="1299.21" y2="425.18"/><line class="cls-7" x1="1293.18" y1="419.15" x2="1305.24" y2="419.15"/><circle class="cls-6" cx="1311.27" cy="458.54" r="6.03"/><line class="cls-7" x1="1311.27" y1="452.51" x2="1311.27" y2="464.57"/><line class="cls-7" x1="1305.24" y1="458.54" x2="1317.3" y2="458.54"/><circle class="cls-6" cx="923.02" cy="665.25" r="6.03"/><line class="cls-7" x1="923.02" y1="659.22" x2="923.02" y2="671.28"/><line class="cls-7" x1="916.99" y1="665.25" x2="929.05" y2="665.25"/><circle class="cls-6" cx="923.02" cy="702.28" r="6.03"/><line class="cls-7" x1="923.02" y1="696.25" x2="923.02" y2="708.31"/><line class="cls-7" x1="916.99" y1="702.28" x2="929.05" y2="702.28"/><circle class="cls-6" cx="966.59" cy="702.28" r="6.03"/><line class="cls-7" x1="966.59" y1="696.25" x2="966.59" y2="708.31"/><line class="cls-7" x1="960.56" y1="702.28" x2="972.61" y2="702.28"/><circle class="cls-6" cx="923.02" cy="622.2" r="6.03"/><line class="cls-7" x1="923.02" y1="616.17" x2="923.02" y2="628.23"/><line class="cls-7" x1="916.99" y1="622.2" x2="929.05" y2="622.2"/><circle class="cls-6" cx="966.59" cy="603.88" r="6.03"/><line class="cls-7" x1="966.59" y1="597.85" x2="966.59" y2="609.91"/><line class="cls-7" x1="960.56" y1="603.88" x2="972.61" y2="603.88"/><circle class="cls-6" cx="1361.69" cy="591.22" r="6.03"/><line class="cls-7" x1="1361.69" y1="585.19" x2="1361.69" y2="597.25"/><line class="cls-7" x1="1355.66" y1="591.22" x2="1367.72" y2="591.22"/><circle class="cls-6" cx="1299.21" cy="591.22" r="6.03"/><line class="cls-7" x1="1299.21" y1="585.19" x2="1299.21" y2="597.25"/><line class="cls-7" x1="1293.18" y1="591.22" x2="1305.24" y2="591.22"/><circle class="cls-6" cx="1162.9" cy="681.92" r="6.03"/><line class="cls-7" x1="1162.9" y1="675.89" x2="1162.9" y2="687.95"/><line class="cls-7" x1="1156.87" y1="681.92" x2="1168.93" y2="681.92"/><circle class="cls-6" cx="983.69" cy="490.93" r="6.03"/><line class="cls-7" x1="983.69" y1="484.91" x2="983.69" y2="496.96"/><line class="cls-7" x1="977.66" y1="490.93" x2="989.72" y2="490.93"/><circle class="cls-6" cx="1261.6" cy="490.93" r="6.03"/><line class="cls-7" x1="1261.6" y1="484.91" x2="1261.6" y2="496.96"/><line class="cls-7" x1="1255.57" y1="490.93" x2="1267.63" y2="490.93"/><circle class="cls-6" cx="806.25" cy="665.25" r="6.03"/><line class="cls-7" x1="806.25" y1="659.22" x2="806.25" y2="671.28"/><line class="cls-7" x1="800.22" y1="665.25" x2="812.28" y2="665.25"/><circle class="cls-6" cx="879.66" cy="110.54" r="6.03"/><line class="cls-7" x1="879.66" y1="104.51" x2="879.66" y2="116.57"/><line class="cls-7" x1="873.63" y1="110.54" x2="885.69" y2="110.54"/><circle class="cls-6" cx="966.59" cy="377.61" r="6.03"/><line class="cls-7" x1="966.59" y1="371.58" x2="966.59" y2="383.64"/><line class="cls-7" x1="960.56" y1="377.61" x2="972.61" y2="377.61"/><circle class="cls-6" cx="1123.48" cy="492.07" r="6.03"/><line class="cls-7" x1="1123.48" y1="486.04" x2="1123.48" y2="498.1"/><line class="cls-7" x1="1117.45" y1="492.07" x2="1129.51" y2="492.07"/><circle class="cls-6" cx="1122.65" cy="351.98" r="6.03"/><line class="cls-7" x1="1128.67" y1="351.98" x2="1116.62" y2="351.98"/><line class="cls-7" x1="1122.65" y1="345.95" x2="1122.65" y2="358.01"/><circle class="cls-6" cx="1122.65" cy="629.89" r="6.03"/><line class="cls-7" x1="1128.67" y1="629.89" x2="1116.62" y2="629.89"/><line class="cls-7" x1="1122.65" y1="623.86" x2="1122.65" y2="635.92"/><circle class="cls-6" cx="1062.99" cy="431.58" r="6.03"/><line class="cls-7" x1="1067.26" y1="427.32" x2="1058.73" y2="435.85"/><line class="cls-7" x1="1058.73" y1="427.32" x2="1067.26" y2="435.85"/><circle class="cls-6" cx="1182.35" cy="550.94" r="6.03"/><line class="cls-7" x1="1186.61" y1="546.67" x2="1178.08" y2="555.2"/><line class="cls-7" x1="1178.08" y1="546.67" x2="1186.61" y2="555.2"/><circle class="cls-6" cx="1183.97" cy="433.2" r="6.03"/><line class="cls-7" x1="1188.23" y1="437.47" x2="1179.71" y2="428.94"/><line class="cls-7" x1="1188.23" y1="428.94" x2="1179.71" y2="437.47"/><circle class="cls-6" cx="1064.61" cy="552.56" r="6.03"/><line class="cls-7" x1="1068.88" y1="556.82" x2="1060.35" y2="548.29"/><line class="cls-7" x1="1068.88" y1="548.29" x2="1060.35" y2="556.82"/><polygon points="120.68 958.41 130.86 958.41 130.86 955.55 120.68 955.55 120.68 949.21 130.86 949.21 130.86 946.36 117.82 946.36 117.82 967.61 130.87 967.61 130.87 964.75 120.68 964.75 120.68 958.41"/><polygon points="138.78 958.41 148.97 958.41 148.97 955.55 138.78 955.55 138.78 949.21 148.97 949.21 148.97 946.36 135.93 946.36 135.93 967.61 148.98 967.61 148.98 964.75 138.78 964.75 138.78 958.41"/><polygon points="99.04 946.33 99.04 949.19 108.37 949.19 97.8 967.62 112.74 967.62 112.74 964.76 102.73 964.76 113.3 946.33 99.04 946.33"/><polygon points="156.91 958.38 167.09 958.38 167.09 955.52 156.91 955.52 156.91 949.18 167.09 949.18 167.09 946.32 154.05 946.32 154.05 967.57 167.1 967.57 167.1 964.72 156.91 964.72 156.91 958.38"/><polygon points="184.72 946.31 184.72 962.64 174.82 946.31 172.16 946.31 172.16 967.61 175.01 967.61 175.01 952.15 184.38 967.61 187.57 967.61 187.57 946.31 184.72 946.31"/><path d="M112.43,1001.17l-1.72-5h-9.15l-1.69,5H97.2l7.42-21h3.09l7.45,21Zm-6.32-18.4-3.71,10.92h7.44Z"/><path d="M124.57,988.5a4.09,4.09,0,0,0-2.85,1.19c-1.22,1.15-1.37,3.23-1.37,4.8v6.68h-2.49v-15h2.23l.2,2.64a4.68,4.68,0,0,1,4.49-2.73,7.81,7.81,0,0,1,1.18.09v2.46A7.25,7.25,0,0,0,124.57,988.5Z"/><path d="M133.74,1001.38c-3.23,0-4.12-2-4.12-4.07v-9h-2.91v-2.16h2.91v-3.83l2.52-.6v4.43h4.45v2.16h-4.45V997c0,1.45.62,2,2,2a19.15,19.15,0,0,0,2.58-.26V1001A10.86,10.86,0,0,1,133.74,1001.38Z"/><path d="M139.92,982.71v-3h2.93v3Zm.17,18.46v-15h2.59v15Z"/><path d="M157.84,999.87a7.89,7.89,0,0,1-9.76,0,4.87,4.87,0,0,1-1.46-3.45h2.53a3,3,0,0,0,1.21,2.35,4.81,4.81,0,0,0,2.7.68,4.08,4.08,0,0,0,2.76-.83,2.13,2.13,0,0,0,.75-1.63c0-1.13-.8-1.93-2.35-2.14-.65-.09-2.34-.3-3.38-.45-2.26-.35-3.68-1.75-3.68-4a4.32,4.32,0,0,1,1.24-2.94,6.13,6.13,0,0,1,4.43-1.66,5.92,5.92,0,0,1,4.77,1.9,4.25,4.25,0,0,1,1.07,2.88h-2.52a2.69,2.69,0,0,0-.86-1.87,3.48,3.48,0,0,0-2.46-.8,4,4,0,0,0-1.75.29,2.27,2.27,0,0,0-1.52,2c0,1.25.77,1.78,2,2,.83.12,2,.24,3.62.5a4.26,4.26,0,0,1,3.83,4.16A4.32,4.32,0,0,1,157.84,999.87Z"/><path d="M167.85,1001.38c-3.24,0-4.13-2-4.13-4.07v-9h-2.91v-2.16h2.91v-3.83l2.52-.6v4.43h4.45v2.16h-4.45V997c0,1.45.63,2,2,2a18.93,18.93,0,0,0,2.58-.26V1001A10.71,10.71,0,0,1,167.85,1001.38Z"/><path d="M174,982.71v-3H177v3Zm.18,18.46v-15h2.58v15Z"/><path d="M191.92,999.93a6,6,0,0,1-4.34,1.63,6.26,6.26,0,0,1-5.48-2.82,10.93,10.93,0,0,1,0-10.15,6.2,6.2,0,0,1,5.45-2.82,6,6,0,0,1,4.28,1.6,5.77,5.77,0,0,1,1.78,3.86h-2.55a3.77,3.77,0,0,0-1.07-2.34,3.5,3.5,0,0,0-2.44-.92,3.83,3.83,0,0,0-2.61,1c-1.18,1-1.51,2.88-1.51,4.72s.33,3.71,1.51,4.72a3.79,3.79,0,0,0,2.61,1,3.51,3.51,0,0,0,2.56-1,3.71,3.71,0,0,0,1-2.22h2.55A5.66,5.66,0,0,1,191.92,999.93Z"/><path d="M208.42,1001.38a2.14,2.14,0,0,1-2.16-2.29h-.06a5.47,5.47,0,0,1-4.84,2.47c-3.44,0-5.17-2.32-5.17-4.63,0-1.93,1.25-4.45,5.35-4.69l4.57-.27v-1.1a3,3,0,0,0-.77-2.28,3.38,3.38,0,0,0-2.47-.77,3.72,3.72,0,0,0-2.73.89,2.47,2.47,0,0,0-.74,1.81h-2.46a4.45,4.45,0,0,1,1.3-3.15,6.45,6.45,0,0,1,4.63-1.6c2.91,0,4.57,1.25,5.28,2.88a5.67,5.67,0,0,1,.45,2.31v7.27c0,.8.33,1,.83,1a3.52,3.52,0,0,0,.65-.09V1001A3.45,3.45,0,0,1,208.42,1001.38Zm-2.31-7.45-4,.24c-1.51.09-3.29.8-3.29,2.7,0,1.33.83,2.58,3,2.58a4.24,4.24,0,0,0,3.09-1.22,4.84,4.84,0,0,0,1.28-3.41Z"/><path d="M216.85,1001.35c-2.19,0-3.14-1.31-3.14-3.68V979.75h2.52v17.77c0,1,.32,1.54,1.36,1.54a9.69,9.69,0,0,0,1,0v2.14A6.48,6.48,0,0,1,216.85,1001.35Z"/><path d="M225.19,1001.35c-2.19,0-3.14-1.31-3.14-3.68V979.75h2.52v17.77c0,1,.33,1.54,1.36,1.54a9.45,9.45,0,0,0,1,0v2.14A6.48,6.48,0,0,1,225.19,1001.35Z"/><path d="M235.43,1004.26c-.71,1.93-1.81,3.2-4.06,3.2a8.17,8.17,0,0,1-2.29-.3V1005a6.9,6.9,0,0,0,1.78.24,2.14,2.14,0,0,0,2.26-1.52l.95-2.52-6-15h2.85L235.34,998l4.22-11.84h2.64Z"/><path d="M254.34,982.56v6.86h9.79v2.49h-9.79v9.26H251.7v-21h13.62v2.43Z"/><path d="M275.32,988.5a4.08,4.08,0,0,0-2.84,1.19c-1.22,1.15-1.37,3.23-1.37,4.8v6.68h-2.49v-15h2.22l.21,2.64a4.65,4.65,0,0,1,4.48-2.73,8,8,0,0,1,1.19.09v2.46A7.36,7.36,0,0,0,275.32,988.5Z"/><path d="M289.78,999.81a6.76,6.76,0,0,1-9.08,0,9.89,9.89,0,0,1,0-12.29,6.76,6.76,0,0,1,9.08,0,9.89,9.89,0,0,1,0,12.29ZM287.94,989a4,4,0,0,0-5.4,0,8.46,8.46,0,0,0,0,9.32,3.94,3.94,0,0,0,5.4,0,8.46,8.46,0,0,0,0-9.32Z"/><path d="M314.24,1001.17v-9.55c0-2.11-.69-3.57-3.06-3.57a3,3,0,0,0-2.28,1,5.76,5.76,0,0,0-1.28,4.13v8H305.1v-9.55c0-2.11-.63-3.57-3-3.57a3.19,3.19,0,0,0-2.55,1.34,6.65,6.65,0,0,0-1,3.8v8H296v-15h2.19l.24,2.13a4.56,4.56,0,0,1,4.21-2.52,4.38,4.38,0,0,1,4.49,2.85,4.94,4.94,0,0,1,4.62-2.85c3.42,0,5,2.2,5,5.52v9.88Z"/><path d="M328.49,1001.17v-21h2.7v21Z"/><path d="M343.33,988.5a4.09,4.09,0,0,0-2.85,1.19c-1.22,1.15-1.37,3.23-1.37,4.8v6.68h-2.49v-15h2.23l.21,2.64a4.65,4.65,0,0,1,4.48-2.73,7.81,7.81,0,0,1,1.18.09v2.46A7.25,7.25,0,0,0,343.33,988.5Z"/><path d="M358.64,1001.38a2.14,2.14,0,0,1-2.16-2.29h-.06a5.47,5.47,0,0,1-4.84,2.47c-3.44,0-5.16-2.32-5.16-4.63,0-1.93,1.24-4.45,5.34-4.69l4.57-.27v-1.1a3,3,0,0,0-.77-2.28,3.38,3.38,0,0,0-2.47-.77,3.72,3.72,0,0,0-2.73.89,2.47,2.47,0,0,0-.74,1.81h-2.46a4.42,4.42,0,0,1,1.31-3.15,6.41,6.41,0,0,1,4.62-1.6c2.91,0,4.57,1.25,5.29,2.88a5.84,5.84,0,0,1,.44,2.31v7.27c0,.8.33,1,.83,1a3.69,3.69,0,0,0,.66-.09V1001A3.49,3.49,0,0,1,358.64,1001.38Zm-2.31-7.45-4,.24c-1.51.09-3.29.8-3.29,2.7,0,1.33.83,2.58,3,2.58a4.23,4.23,0,0,0,3.08-1.22,4.84,4.84,0,0,0,1.28-3.41Z"/><path d="M373.63,1001.17v-9.53c0-2.25-.92-3.59-3.29-3.59a3.67,3.67,0,0,0-3.26,2.32,9.81,9.81,0,0,0-.54,3.83v7H364v-15h2.2l.2,2.25a5.08,5.08,0,0,1,4.54-2.64c3.42,0,5.2,2.05,5.2,5.52v9.88Z"/><path d="M201.61,897.54c-3.37,0-5.79-.71-7.28-2.12a12,12,0,0,1-3.11-6.51l-.07-.3a14.26,14.26,0,0,1-4,1.94,15.38,15.38,0,0,1-4.72.77,6.15,6.15,0,0,1-3.7-1,5,5,0,0,1-1.86-2.45,6.4,6.4,0,0,1-.22-3.26,9.6,9.6,0,0,1,1.17-3.32q2.7-4.77,10.17-8.64l-.73-4,4-3.08,3.51,18c.3,1.37.59,2.59.88,3.66a9.87,9.87,0,0,0,1.14,2.71,4.5,4.5,0,0,0,1.79,1.65,6.46,6.46,0,0,0,2.85.55H202v5.41ZM188.88,877.2a17.19,17.19,0,0,0-3.11,1.68,16.47,16.47,0,0,0-2.89,2.42q-2.2,2.19-1.65,3.47c.37.85,1.45,1.16,3.26.92a14.38,14.38,0,0,0,3.36-.88,8.28,8.28,0,0,0,2.34-1.25Z"/><path d="M227.66,897.54a23.58,23.58,0,0,1-4.21-.33,12.4,12.4,0,0,1-3.15-1,10.15,10.15,0,0,1-2.41-1.64A12,12,0,0,1,216,892.2a20.68,20.68,0,0,1-5.85,3.95,16.79,16.79,0,0,1-6.88,1.39H202a4.28,4.28,0,0,1-1.13-.15c-.37-.09-.55-.22-.55-.36v-4.39c0-.2.18-.33.55-.41a6,6,0,0,1,1.13-.1h.52a17.37,17.37,0,0,0,6.4-1,13.82,13.82,0,0,0,4.57-3.11,11.65,11.65,0,0,0-2.41-2.86,5.61,5.61,0,0,0-3.73-1.17,6.79,6.79,0,0,1,.8-3.36,7.27,7.27,0,0,1,2.27-2.49,12,12,0,0,1,4.28-1.83,13,13,0,0,1,4.9-.22,7.78,7.78,0,0,1,4.06,1.83,5.3,5.3,0,0,1,1.69,4.24,5.11,5.11,0,0,1-.62,2.6,7.17,7.17,0,0,1-1.61,1.87,21.23,21.23,0,0,1-2.13,1.5,25.12,25.12,0,0,0-2.08,1.42,9.92,9.92,0,0,0,3.69,1.91,21.77,21.77,0,0,0,6,.66h.36v5.41Z"/><path d="M227.22,892.64c0-.2.18-.33.55-.41a5.94,5.94,0,0,1,1.13-.1,12.19,12.19,0,0,0,2.67-.26,3.93,3.93,0,0,0,1.94-1,4.67,4.67,0,0,0,1.21-2.08,12,12,0,0,0,.4-3.44l3.59-1.32a12.71,12.71,0,0,0,1.17,6.15,4.1,4.1,0,0,0,3.88,2.05c1.9,0,3.22-.46,4-1.39s1.1-2.78,1.1-5.56l3.58-1.39q0,4.1,1.58,6.18a5.06,5.06,0,0,0,4.28,2.09,3.47,3.47,0,0,0,2.63-1,3.42,3.42,0,0,0,.95-2.45,7.32,7.32,0,0,0-.47-2.42,11,11,0,0,0-1.5-2.71l3.51-3.95a13.38,13.38,0,0,1,2.71,8.12,12.47,12.47,0,0,1-.52,3.59,10,10,0,0,1-1.53,3.15,8,8,0,0,1-2.56,2.23,7.38,7.38,0,0,1-3.59.84,9.89,9.89,0,0,1-4.28-.91,6.37,6.37,0,0,1-3-2.82,6.85,6.85,0,0,1-2.86,2.78,8.83,8.83,0,0,1-4.24,1,9.13,9.13,0,0,1-4.1-.87,5.32,5.32,0,0,1-2.56-2.93q-1.9,3.74-6.95,3.73h-1a4.22,4.22,0,0,1-1.13-.15c-.37-.09-.55-.22-.55-.36Z"/><path d="M289.57,897.54a20.07,20.07,0,0,1-2.2,6.33,26.73,26.73,0,0,1-3.91,5.34,34.23,34.23,0,0,1-5.16,4.47,51.92,51.92,0,0,1-6,3.62l-3.44-3.81a55.68,55.68,0,0,0,5.67-3.11,34.84,34.84,0,0,0,5-3.73,22.47,22.47,0,0,0,3.74-4.28,11.58,11.58,0,0,0,1.86-4.83h-4.31a12.5,12.5,0,0,1-3-.33,6.87,6.87,0,0,1-2.38-1.06,5.13,5.13,0,0,1-1.61-1.9,6.34,6.34,0,0,1-.58-2.86,13.17,13.17,0,0,1,.55-3.62,14.43,14.43,0,0,1,1.57-3.62,10.65,10.65,0,0,1,2.45-2.82,5.13,5.13,0,0,1,3.26-1.13,6,6,0,0,1,3.73,1.17,10.37,10.37,0,0,1,2.6,3,15.65,15.65,0,0,1,1.61,3.88,30.68,30.68,0,0,1,.77,3.92h2.12v5.41Zm-8.86-11.71a3.13,3.13,0,0,0-2.45,1.28,4.51,4.51,0,0,0-1.06,3,4.81,4.81,0,0,0,0,.58,1.17,1.17,0,0,0,.33.7,2.22,2.22,0,0,0,.8.55,4.22,4.22,0,0,0,1.54.22h5a13.57,13.57,0,0,0-1.36-4.43A3.12,3.12,0,0,0,280.71,885.83Z"/><path d="M290.22,892.64c0-.2.19-.33.55-.41a6.12,6.12,0,0,1,1.14-.1h1.46a10.46,10.46,0,0,0,4.57-.85,2.79,2.79,0,0,0,1.72-2.67,5.35,5.35,0,0,0-1.06-3q-1.07-1.57-2-2.82l3.73-4a16.44,16.44,0,0,1,2.71,4.31,14.06,14.06,0,0,1,1,5q0,9.38-11,9.37h-1.17a4.35,4.35,0,0,1-1.14-.15c-.36-.09-.55-.22-.55-.36Zm16-22.32-3.15,4.1-4.31-3.22-3.08,3.66-4.39-3.08,3.29-4,4.25,3.22,3-3.66Z"/><path d="M313.22,913.49c1.9-1,3.78-2,5.64-3.18a34.83,34.83,0,0,0,5-3.77,21.48,21.48,0,0,0,3.81-4.5,13.1,13.1,0,0,0,1.9-5.45,14.58,14.58,0,0,1-2.38.95,9,9,0,0,1-2.59.37,7.58,7.58,0,0,1-4.83-1.61,6,6,0,0,1-2.05-5,13.61,13.61,0,0,1,.55-3.66,14.24,14.24,0,0,1,1.57-3.66,10,10,0,0,1,2.45-2.78,5.22,5.22,0,0,1,3.26-1.1,5.81,5.81,0,0,1,4.06,1.5,11.14,11.14,0,0,1,2.63,3.66,18.11,18.11,0,0,1,1.39,4.54,24.8,24.8,0,0,1,.41,4.06,20.17,20.17,0,0,1-1.47,7.79,24.45,24.45,0,0,1-3.88,6.44,31.29,31.29,0,0,1-5.56,5.2,51.76,51.76,0,0,1-6.51,4.06Zm11.93-20.93a8.83,8.83,0,0,0,2.34-.29,5.06,5.06,0,0,0,2-1,12.78,12.78,0,0,0-1.29-3.84,3.21,3.21,0,0,0-5.41-.44,4.48,4.48,0,0,0-1.06,3,2.11,2.11,0,0,0,1.06,2.12A5.43,5.43,0,0,0,325.15,892.56Z"/><path d="M383,897.54a31.29,31.29,0,0,1-6.15-.51,10.59,10.59,0,0,1-4-1.61,6.08,6.08,0,0,1-2.19-2.86,12.06,12.06,0,0,1-.66-4.24,39,39,0,0,0-6.91,2.93,29.57,29.57,0,0,0-6.08,4.28,20.19,20.19,0,0,0-4.28,5.49,13.78,13.78,0,0,0-1.61,6.55,10.21,10.21,0,0,0,1.8,6.14,13,13,0,0,0,4.68,4,22,22,0,0,0,6.51,2.12,44.24,44.24,0,0,0,7.21.66,39.73,39.73,0,0,0,6.84-.51,29.26,29.26,0,0,0,5.38-1.36l1.39,4.69a43,43,0,0,1-7.76,1.9,47.5,47.5,0,0,1-8.49.55,36.22,36.22,0,0,1-8.23-1.14,21.41,21.41,0,0,1-7-3.14,16.39,16.39,0,0,1-4.91-5.42,16,16,0,0,1-1.86-8,18.74,18.74,0,0,1,1.68-7.91,23.81,23.81,0,0,1,4.43-6.54,31.17,31.17,0,0,1,6.22-5A38.5,38.5,0,0,1,366,885.1l-6.84-2a15.48,15.48,0,0,0-3.62-.77q-2.13,0-4.18,3.59l-3.58-1.47a18.41,18.41,0,0,1,3.62-5.93,5.87,5.87,0,0,1,4.14-1.68,14.54,14.54,0,0,1,3.54.73q2.46.74,5.53,1.61t6.51,1.61a31.5,31.5,0,0,0,6.59.73,16.69,16.69,0,0,0,3.73-.43L380,886.64a26.91,26.91,0,0,0-3.63.25q-1.86.25-3.69.63a4,4,0,0,0,.73,2.59,4.34,4.34,0,0,0,2.05,1.36,12.92,12.92,0,0,0,3.18.55c1.25.07,2.65.11,4.21.11h2.05v5.41Z"/><path d="M400.9,897.54a8.13,8.13,0,0,1-4.2-1.1,6.47,6.47,0,0,1-2.75-3.29,8.12,8.12,0,0,1-2.89,3.18,8.92,8.92,0,0,1-4.94,1.21h-1.24a4.22,4.22,0,0,1-1.13-.15c-.37-.09-.55-.22-.55-.36v-4.39c0-.2.18-.33.55-.41a5.94,5.94,0,0,1,1.13-.1H386a5.78,5.78,0,0,0,3-.7,4.49,4.49,0,0,0,1.72-1.87,7.31,7.31,0,0,0,.73-2.63,29.54,29.54,0,0,0,.15-3q0-8.19-.26-15.62t-.54-14.82l4.83-2.56v30.73a22.53,22.53,0,0,0,.44,4.9,9.71,9.71,0,0,0,1.24,3.22,4.81,4.81,0,0,0,1.94,1.8,6,6,0,0,0,2.6.55v5.41Z"/><path d="M400.17,892.64c0-.2.19-.33.55-.41a6.12,6.12,0,0,1,1.14-.1h.36c2,0,3.37-.52,4.1-1.54s1.1-2.9,1.1-5.64l4.31-1.46a26.32,26.32,0,0,0,.37,4.54,4.85,4.85,0,0,0,1.9,3.4,8.55,8.55,0,0,0,3.88,1q3.08-3.74,5.82-6.73a47.79,47.79,0,0,1,5.45-5.16,23.13,23.13,0,0,1,5.41-3.3,14.76,14.76,0,0,1,5.71-1.13,7.17,7.17,0,0,1,2.93.62,9.15,9.15,0,0,1,2.49,1.65,7.53,7.53,0,0,1,1.72,2.41,7.2,7.2,0,0,1,.62,2.93,11.84,11.84,0,0,1-1.17,5.49,12,12,0,0,1-3.11,3.84,15.71,15.71,0,0,1-4.47,2.52,30.43,30.43,0,0,1-5.23,1.47,41.61,41.61,0,0,1-5.41.66c-1.81.09-3.47.14-5,.14-1.85,0-3.55,0-5.08-.07a25,25,0,0,1-4.1-.44,10.1,10.1,0,0,1-3.11-1.13,5.25,5.25,0,0,1-2.05-2.24,6.14,6.14,0,0,1-6,3.59h-1.46a4.35,4.35,0,0,1-1.14-.15c-.36-.09-.55-.22-.55-.36Zm37.4-11.13a8,8,0,0,0-4,1.18,25.28,25.28,0,0,0-4,2.89,50.65,50.65,0,0,0-3.73,3.58c-1.17,1.25-2.2,2.33-3.08,3.26h.59c1,0,2.14,0,3.51,0s2.79-.1,4.28-.22,3-.3,4.43-.55a17.34,17.34,0,0,0,3.91-1.09,8.08,8.08,0,0,0,2.79-1.87,3.91,3.91,0,0,0,1.06-2.74,4.11,4.11,0,0,0-.52-2.16,3.71,3.71,0,0,0-1.35-1.32,6.52,6.52,0,0,0-1.87-.7A10.11,10.11,0,0,0,437.57,881.51Z"/><path d="M517.35,897.54q-6.37,0-7.54-5.49-2.93,3.51-10.06,5.2A85.21,85.21,0,0,1,481.34,899c-2.09,0-4.29-.08-6.58-.25a23.08,23.08,0,0,1-6.33-1.32,11.35,11.35,0,0,1-4.76-3.22,8.72,8.72,0,0,1-1.86-5.89,12.16,12.16,0,0,1,.58-3.73,11,11,0,0,1,1.68-3.29l3.44,1a9.87,9.87,0,0,0-1.09,2.59,10.23,10.23,0,0,0-.3,2.46,4.26,4.26,0,0,0,1.61,3.58,10.53,10.53,0,0,0,3.95,1.83,25.53,25.53,0,0,0,5,.7c1.78.07,3.4.11,4.86.11s3.22,0,5.12-.11,3.85-.2,5.82-.37,3.92-.41,5.82-.73a32.43,32.43,0,0,0,5.16-1.28,14.33,14.33,0,0,0,3.8-1.91,4.54,4.54,0,0,0,1.87-2.7l.37-2,3-1a14.57,14.57,0,0,0,1.13,6.47q1.14,2.24,4.65,2.24h.22v5.41ZM493.71,876l-3.15,4.09-4.31-3.22-3.08,3.66-4.39-3.07,3.3-4,4.24,3.22,3-3.66Z"/><path d="M516.83,892.64c0-.2.19-.33.55-.41a6.12,6.12,0,0,1,1.14-.1h1.09a7,7,0,0,0,1.58-.19,8,8,0,0,0,1.13-.33,5.16,5.16,0,0,0,2.27-1.75,16.79,16.79,0,0,0,1.72-2.82c.51-1,1-2.13,1.43-3.26a20.37,20.37,0,0,1,1.5-3.07,8.81,8.81,0,0,1,1.9-2.27,4,4,0,0,1,2.6-.88,4.78,4.78,0,0,1,3.36,1.36,11.1,11.1,0,0,1,2.42,3.29,17.92,17.92,0,0,1,1.42,4.1,17.64,17.64,0,0,1,.48,3.77,12.11,12.11,0,0,1-.29,2.56,9.58,9.58,0,0,1-.88,2.41,5.13,5.13,0,0,1-1.57,1.79,3.88,3.88,0,0,1-2.31.7,7,7,0,0,1-2.27-.44,16.6,16.6,0,0,1-2.45-1.1c-.8-.44-1.57-.9-2.3-1.39a14.69,14.69,0,0,1-1.83-1.39,8.52,8.52,0,0,1-2.93,3.22,9.09,9.09,0,0,1-4.83,1.1h-1.24a4.35,4.35,0,0,1-1.14-.15c-.36-.09-.55-.22-.55-.36Zm12.74-3.73c1,.68,2,1.31,3,1.9a5.79,5.79,0,0,0,2.6.88,1.21,1.21,0,0,0,1.17-.81,4.27,4.27,0,0,0,.37-1.83,9.82,9.82,0,0,0-.22-2,7.51,7.51,0,0,0-.66-1.87,5.18,5.18,0,0,0-1-1.39,1.77,1.77,0,0,0-1.24-.55,3.09,3.09,0,0,0-1.87,1.17A11.79,11.79,0,0,0,529.57,888.91Z"/><path d="M578.15,897.54a12.43,12.43,0,0,1-5.89-1.17,7.42,7.42,0,0,1-3.25-3.59,9.54,9.54,0,0,1-4.87,4.54,17.39,17.39,0,0,1-6.92,1.39,20.7,20.7,0,0,1-5.52-.73,14.78,14.78,0,0,1-4.57-2.05l2.78-4.68a8,8,0,0,0,3.25,1.5,19,19,0,0,0,4.28.47,20.09,20.09,0,0,0,3.63-.33,12.79,12.79,0,0,0,3.22-1,7.45,7.45,0,0,0,2.3-1.68,3.68,3.68,0,0,0,.95-2.31l-3.29-17.2,4-3.07,3.08,15.95c.29,1.42.56,2.66.8,3.74a7.78,7.78,0,0,0,1.1,2.67,4.71,4.71,0,0,0,1.94,1.61,8.08,8.08,0,0,0,3.26.55h.22v5.41Z"/><path d="M577,892.64c0-.2.18-.33.55-.41a6,6,0,0,1,1.13-.1h4.76a26.69,26.69,0,0,0,6.15-.63,28.43,28.43,0,0,0,4.9-1.61q2.26-1,4.43-2.19a51.43,51.43,0,0,1,4.64-2.31l-4.46-1.9-3.22-1.35q-1.32-.55-2.19-.84a4.63,4.63,0,0,0-1.4-.3,6.41,6.41,0,0,0-2.56.62,7.67,7.67,0,0,0-2.63,2.09l-3.29-1.46a14.23,14.23,0,0,1,4-5.09,7,7,0,0,1,4-1.65,11.41,11.41,0,0,1,5,1.36c1.81.9,3.88,1.82,6.22,2.74,1.07.49,2.05.89,2.93,1.21a21.32,21.32,0,0,0,2.67.77,26.29,26.29,0,0,0,2.93.44c1,.1,2.3.14,3.77.14l-1.25,5.27c-1,0-1.87,0-2.67.11s-1.55.16-2.23.26a14.71,14.71,0,0,0-5.64,2.05q-2.62,1.6-5.52,3.29a46.48,46.48,0,0,1-6.37,3,22.71,22.71,0,0,1-8.23,1.35h-4.76a4.28,4.28,0,0,1-1.13-.15c-.37-.09-.55-.22-.55-.36Zm17-22.32L589.13,867l3.66-4.46,4.75,3.37Z"/><path d="M639.78,896.52a13.79,13.79,0,0,1-1.68,6.58,27.37,27.37,0,0,1-4.24,5.86,36.65,36.65,0,0,1-5.6,4.82,47.25,47.25,0,0,1-5.82,3.52l-3.36-3.81a54.88,54.88,0,0,0,5.81-3.22,36.18,36.18,0,0,0,5.23-4,20.57,20.57,0,0,0,3.81-4.61,9.84,9.84,0,0,0,1.46-5.15,8.31,8.31,0,0,0-1.09-4.1c-.74-1.32-1.49-2.54-2.27-3.66l3.88-3.88a25.39,25.39,0,0,1,3,5.78A18.22,18.22,0,0,1,639.78,896.52Z"/><path d="M656,897.54a23.83,23.83,0,0,1-5.6-.66,14.39,14.39,0,0,1-4.87-2.12l2.78-4.68a8.42,8.42,0,0,0,3.81,1.68,25.3,25.3,0,0,0,4.24.37c.88,0,1.84,0,2.89-.15a11.3,11.3,0,0,0,2.93-.66,6.42,6.42,0,0,0,2.3-1.46,3.45,3.45,0,0,0,.95-2.56,6.47,6.47,0,0,0-1.13-3.63,16.21,16.21,0,0,0-2.74-3.14,28.21,28.21,0,0,0-3.44-2.6q-1.83-1.17-3.15-2l2.2-5.56q2.26,1.54,4.5,3.4a28.86,28.86,0,0,1,4,4,20.39,20.39,0,0,1,2.78,4.65,13.4,13.4,0,0,1,1.06,5.34,7.89,7.89,0,0,1-1.28,4.61,10.31,10.31,0,0,1-3.26,3,13.56,13.56,0,0,1-4.35,1.64A23.14,23.14,0,0,1,656,897.54Z"/><path d="M713.27,897.54a12.8,12.8,0,0,1-6.8-1.54,7.92,7.92,0,0,1,.73,3.52,10.68,10.68,0,0,1-.37,2.78,8.91,8.91,0,0,1-1.09,2.52,5.92,5.92,0,0,1-1.83,1.83,4.76,4.76,0,0,1-2.57.7,5.28,5.28,0,0,1-3.58-1.21,8.65,8.65,0,0,1-2.2-3,14.39,14.39,0,0,1-1.09-3.84,25.64,25.64,0,0,1-.3-3.66v-2.49a7.59,7.59,0,0,0-3.66.73,4.88,4.88,0,0,0-2,2,7.56,7.56,0,0,0-.81,2.89c-.09,1.1-.14,2.25-.14,3.47v27.15h-4.47V899a13.81,13.81,0,0,1,.77-4.64,10.61,10.61,0,0,1,2.2-3.7,10,10,0,0,1,3.51-2.41,11.79,11.79,0,0,1,4.65-.88l.44-3.37q3.36,2.13,6.11,3.62c1.82,1,3.52,1.85,5.08,2.53a26.64,26.64,0,0,0,4.32,1.5,15.84,15.84,0,0,0,3.73.48h1v5.41Zm-15.8-4.39c0,.83,0,1.76.11,2.78a11.53,11.53,0,0,0,.54,2.85,6.1,6.1,0,0,0,1.29,2.24,3.05,3.05,0,0,0,2.37.91,1.94,1.94,0,0,0,1.39-.55,2.47,2.47,0,0,0,.59-1.86,5.45,5.45,0,0,0-.59-2.53,8.31,8.31,0,0,0-1.5-2,12.74,12.74,0,0,0-2-1.64,25.46,25.46,0,0,0-2.19-1.32Z"/><path d="M731,897.54a8.16,8.16,0,0,1-4.21-1.1,6.45,6.45,0,0,1-2.74-3.29,8.28,8.28,0,0,1-2.89,3.18,9,9,0,0,1-4.94,1.21H715a4.22,4.22,0,0,1-1.13-.15c-.37-.09-.55-.22-.55-.36v-4.39c0-.2.18-.33.55-.41a5.94,5.94,0,0,1,1.13-.1h1.1a5.82,5.82,0,0,0,3-.7,4.56,4.56,0,0,0,1.72-1.87,7.51,7.51,0,0,0,.73-2.63,29.54,29.54,0,0,0,.15-3q0-8.19-.26-15.62t-.55-14.82l4.83-2.56v30.73a23.18,23.18,0,0,0,.44,4.9,9.93,9.93,0,0,0,1.24,3.22,4.94,4.94,0,0,0,1.94,1.8,6,6,0,0,0,2.6.55v5.41Z"/><path d="M730.25,892.64c0-.2.18-.33.55-.41a5.94,5.94,0,0,1,1.13-.1h8.49a11.06,11.06,0,0,1-2.53-3.85,11.92,11.92,0,0,1-.84-4.35,9.22,9.22,0,0,1,1.06-4.39,11.47,11.47,0,0,1,2.71-3.37,12.8,12.8,0,0,1,3.7-2.16,11.6,11.6,0,0,1,4.09-.76,12.69,12.69,0,0,1,4.91,1,16.18,16.18,0,0,1,4.17,2.53L756,880.49a18.14,18.14,0,0,0-3.43-1.5,12.16,12.16,0,0,0-3.66-.55,13.23,13.23,0,0,0-2.64.29,8.46,8.46,0,0,0-2.52,1,5.94,5.94,0,0,0-1.87,1.64,3.87,3.87,0,0,0-.73,2.38,4.5,4.5,0,0,0,1,3,7.87,7.87,0,0,0,2.41,2,11.08,11.08,0,0,0,3.08,1.1,15.12,15.12,0,0,0,3,.33,26,26,0,0,0,4.72-.55c1.88-.37,4.13-.89,6.77-1.58l-.59,5.42a77.51,77.51,0,0,1-13.83,3.26,99.79,99.79,0,0,1-13.46.91h-2.27a4.22,4.22,0,0,1-1.13-.15c-.37-.09-.55-.22-.55-.36Z"/><path d="M811.34,897.54a5,5,0,0,1,1.65,3.88,7.35,7.35,0,0,1-1.35,4.17,13.27,13.27,0,0,1-3.08,3,25.4,25.4,0,0,1-4.46,2.56,27.93,27.93,0,0,1-5.34,1.8,25.56,25.56,0,0,1-5.78.66,20.88,20.88,0,0,1-9.81-2.09,13.33,13.33,0,0,1-5.81-5.67,15.5,15.5,0,0,1-1.58-8.27,25.05,25.05,0,0,1,3-9.88l3.73,1.39a22.68,22.68,0,0,0-2.12,7.17,11.55,11.55,0,0,0,.84,6.08,9,9,0,0,0,4.1,4.17A16.4,16.4,0,0,0,793,908a27.36,27.36,0,0,0,12.22-3,12.69,12.69,0,0,0,1.64-1,7.4,7.4,0,0,0,1.25-1.1,2.13,2.13,0,0,0,.55-1c.05-.31-.12-.54-.52-.69l-9.36-3.66c.34-1.22.6-2.2.77-2.93a6.71,6.71,0,0,1,.55-1.64,1.34,1.34,0,0,1,.69-.7,3.45,3.45,0,0,1,1.14-.14H813v5.41Z"/><path d="M811.34,892.64c0-.2.19-.33.55-.41a6.12,6.12,0,0,1,1.14-.1h1.46a10.46,10.46,0,0,0,4.57-.85,2.79,2.79,0,0,0,1.72-2.67,5.35,5.35,0,0,0-1.06-3q-1.07-1.57-2-2.82l3.73-4a16.18,16.18,0,0,1,2.71,4.31,14.06,14.06,0,0,1,1,5q0,9.38-11,9.37H813a4.35,4.35,0,0,1-1.14-.15c-.36-.09-.55-.22-.55-.36ZM820,874.86l-4.83-3.37,3.66-4.46,4.75,3.36Z"/><path d="M837,896.11a8.85,8.85,0,0,1-3.18-3.69,15.12,15.12,0,0,1-1.32-5.12c-.17-1.91-.26-3.78-.26-5.64V853.49l4.61-3.07-.07,33.51a29.54,29.54,0,0,0,.15,3,7,7,0,0,0,.76,2.63,4.61,4.61,0,0,0,1.87,1.87,7,7,0,0,0,3.37.7v5.41A10.54,10.54,0,0,1,837,896.11Z"/><path d="M870.62,897.54a18.39,18.39,0,0,0-3.12.29,11.34,11.34,0,0,0-3,1,6.31,6.31,0,0,0-2.27,1.87,4.65,4.65,0,0,0-.88,2.85q0,3.23,3.44,5l-1.54,5a27.06,27.06,0,0,1-9.73-6.36,20.56,20.56,0,0,1-5.27-9.59H843a4.35,4.35,0,0,1-1.14-.15c-.36-.09-.55-.22-.55-.36v-4.39c0-.2.19-.33.55-.41a6.12,6.12,0,0,1,1.14-.1h4.61a28.86,28.86,0,0,1,.87-6.37,31.26,31.26,0,0,1,2-5.78,17.3,17.3,0,0,1,2.63-4.17,3.87,3.87,0,0,1,2.74-1.61,3.2,3.2,0,0,1,2.31,1.24,12.85,12.85,0,0,1,2,3.07,22.94,22.94,0,0,1,1.43,3.81,13.37,13.37,0,0,1,.55,3.44,13.72,13.72,0,0,1-.66,4.24,12.76,12.76,0,0,1-1.87,3.7,9.78,9.78,0,0,1-2.92,2.67,8.64,8.64,0,0,1-3.85,1.17,17.44,17.44,0,0,0,2.09,3.91,14.6,14.6,0,0,0,3.26,3.26,7.44,7.44,0,0,1,0-4.43,10.23,10.23,0,0,1,2.45-4.06,13.24,13.24,0,0,1,4.43-3,15.23,15.23,0,0,1,6-1.13v5.41ZM851.81,892a15.82,15.82,0,0,0,2.41-.48,7.78,7.78,0,0,0,2.09-.91,4.45,4.45,0,0,0,1.46-1.5,4.24,4.24,0,0,0,.55-2.23,7.81,7.81,0,0,0-.22-1.54,12.31,12.31,0,0,0-.62-2.05,8.76,8.76,0,0,0-.91-1.76,1.48,1.48,0,0,0-1.18-.73c-.43,0-.87.37-1.31,1.1a11.9,11.9,0,0,0-1.14,2.67c-.31,1.05-.58,2.15-.8,3.29a16.15,16.15,0,0,0-.33,3Z"/><path d="M869.44,892.64c0-.2.19-.33.55-.41a6.12,6.12,0,0,1,1.14-.1h4.75a26.69,26.69,0,0,0,6.15-.63,28.15,28.15,0,0,0,4.9-1.61q2.27-1,4.43-2.19t4.65-2.31l-4.47-1.9-3.22-1.35c-.87-.37-1.61-.65-2.19-.84a4.64,4.64,0,0,0-1.39-.3,6.37,6.37,0,0,0-2.56.62,7.61,7.61,0,0,0-2.64,2.09l-3.29-1.46a14.14,14.14,0,0,1,4-5.09,7,7,0,0,1,4-1.65,11.37,11.37,0,0,1,5,1.36c1.81.9,3.88,1.82,6.22,2.74,1.08.49,2,.89,2.93,1.21a21.32,21.32,0,0,0,2.67.77A26.29,26.29,0,0,0,904,882c1.05.1,2.3.14,3.77.14l-1.25,5.27c-1,0-1.86,0-2.67.11s-1.55.16-2.23.26a14.61,14.61,0,0,0-5.63,2.05q-2.64,1.6-5.53,3.29a46.91,46.91,0,0,1-6.36,3,22.77,22.77,0,0,1-8.24,1.35h-4.75a4.35,4.35,0,0,1-1.14-.15c-.36-.09-.55-.22-.55-.36ZM891,912.18l-4.76-3.37,3.59-4.46,4.83,3.36Z"/><path d="M932.25,896.52a13.69,13.69,0,0,1-1.69,6.58,27,27,0,0,1-4.24,5.86,36.18,36.18,0,0,1-5.6,4.82,45.81,45.81,0,0,1-5.82,3.52l-3.36-3.81a56,56,0,0,0,5.82-3.22,36.74,36.74,0,0,0,5.23-4,20.52,20.52,0,0,0,3.8-4.61,9.85,9.85,0,0,0,1.47-5.15,8.32,8.32,0,0,0-1.1-4.1,41.8,41.8,0,0,0-2.27-3.66l3.88-3.88a25.39,25.39,0,0,1,3,5.78A18.22,18.22,0,0,1,932.25,896.52Zm-5.64-16-4.83-3.36,3.66-4.47,4.76,3.37Z"/><path d="M934.88,913.49c1.9-1,3.78-2,5.64-3.18a34.83,34.83,0,0,0,5-3.77,21.48,21.48,0,0,0,3.81-4.5,13.1,13.1,0,0,0,1.9-5.45,14.58,14.58,0,0,1-2.38.95,9,9,0,0,1-2.59.37,7.58,7.58,0,0,1-4.83-1.61,6,6,0,0,1-2.05-5,13.61,13.61,0,0,1,.55-3.66,14.24,14.24,0,0,1,1.57-3.66,10,10,0,0,1,2.45-2.78,5.22,5.22,0,0,1,3.26-1.1,5.81,5.81,0,0,1,4.06,1.5,11.14,11.14,0,0,1,2.63,3.66,18.11,18.11,0,0,1,1.39,4.54,24.8,24.8,0,0,1,.41,4.06,20.17,20.17,0,0,1-1.47,7.79,24.45,24.45,0,0,1-3.88,6.44,31.29,31.29,0,0,1-5.56,5.2,51.76,51.76,0,0,1-6.51,4.06Zm11.93-20.93a8.83,8.83,0,0,0,2.34-.29,5.06,5.06,0,0,0,2-1,12.51,12.51,0,0,0-1.29-3.84,3.21,3.21,0,0,0-5.41-.44,4.48,4.48,0,0,0-1.06,3,2.11,2.11,0,0,0,1.06,2.12A5.43,5.43,0,0,0,946.81,892.56Z"/><path d="M972.13,896.52a14.36,14.36,0,0,1-1.61,6.54,27.64,27.64,0,0,1-4,5.9,36.69,36.69,0,0,1-5.27,4.86,40,40,0,0,1-5.34,3.48l-3.44-3.81a51.41,51.41,0,0,0,5.53-3.22,31,31,0,0,0,4.9-4,21.3,21.3,0,0,0,3.51-4.65,10.3,10.3,0,0,0,1.36-5.08,8.32,8.32,0,0,0-1.1-4.1,41.8,41.8,0,0,0-2.27-3.66l3.88-3.88a25.39,25.39,0,0,1,3,5.78A18.22,18.22,0,0,1,972.13,896.52Z"/><line class="cls-8" x1="97.2" y1="884.95" x2="154.29" y2="884.95"/><path d="M120.32,646q-12,0-19.07-5.49a18.66,18.66,0,0,1-7.2-15.12L106.61,624q.27,5.89,3.74,8.92t10,3q5.27,0,8.22-2.35a7.6,7.6,0,0,0,2.94-6.26,6.46,6.46,0,0,0-2-5.1q-2-1.76-7-2.76l-8.08-1.59Q96,614.15,96,599.42a16.46,16.46,0,0,1,6.29-13.22q6.36-5.33,16.74-5.32t16.82,4.94a18.55,18.55,0,0,1,7.21,13.43l-12.7,1.4q-1.19-9.71-11.33-9.71-5,0-7.78,2a6.56,6.56,0,0,0-2.77,5.6,6.72,6.72,0,0,0,1.87,5.07c1.24,1.22,3.27,2.1,6.08,2.66l9.63,1.89q9.22,1.8,13.75,6.22t4.52,11.62a18.13,18.13,0,0,1-6.68,14.32Q131.09,646,120.32,646Z"/><path d="M182.36,635.14q12.55,0,16.3-13l12.17,1.54q-2.16,10.5-9.8,16.41T182.09,646q-13.83,0-22.14-8.83t-8.17-23.77q0-14.72,8.26-23.64t22.23-8.92q11.78,0,19.33,6T211.35,604l-12.61,1.71q-3.33-13.92-16.38-13.92-8.36,0-13.07,5.77t-4.73,15.89q0,10.09,4.73,15.9T182.36,635.14Z"/><path d="M233.19,644.94H220.62v-63h12.57Z"/><path d="M290.52,644.94H246.9v-63h42.7v10.63H259.46v15.2H286v10.46H259.46v16.08h31.06Z"/><path d="M313.28,644.94H301.33v-63H315l25.92,40.86V581.94h11.86v63H342l-28.69-45.08Z"/><path d="M394.12,635.14q12.57,0,16.3-13l12.17,1.54q-2.14,10.5-9.79,16.41T393.86,646q-13.85,0-22.14-8.83t-8.18-23.77q0-14.72,8.26-23.64T394,580.88q11.76,0,19.33,6T423.12,604l-12.61,1.71q-3.33-13.92-16.39-13.92-8.34,0-13.07,5.77t-4.72,15.89q0,10.09,4.72,15.9T394.12,635.14Z"/><path d="M476,644.94H432.39v-63H475.1v10.63H445v15.2h26.58v10.46H445v16.08H476Z"/><path d="M532,644.94H505.32v-63H532q14.37,0,22.93,8.3t8.57,22.23q0,14.5-8.66,23.55T532,644.94Zm18.71-32.47q0-9-5.14-14.41T532,592.66H517.89v41.56H532q8.56,0,13.57-5.93T550.66,612.47Z"/><path d="M608.31,632.59h-25.7l-4.44,12.35H565.69l23.29-63H602.9l23.16,63H612.75Zm-21.93-10.41h18.24l-9.1-25.75Z"/><path d="M642.14,644.94V621.08l-20.52-39.14H635l13.49,26.27,13.62-26.27h13l-20.52,38.53v24.47Z"/><path d="M110.3,728.53H97.74v-63h44.72v10.64H110.3v16.21h28.56V703H110.3Z"/><path d="M209.82,697q0,14.82-8.48,23.69t-22.41,8.91q-14,0-22.36-8.91T148.17,697q0-14.62,8.4-23.54t22.36-9q14.1,0,22.49,8.92T209.82,697Zm-44.09-16Q161,686.83,161,697t4.77,16q4.76,5.85,13.2,5.84t13.27-5.84q4.83-5.84,4.83-16t-4.83-16q-4.83-5.82-13.27-5.82T165.73,681Z"/><path d="M269.66,712.8l.87,15.73H258.06L257.13,713a7,7,0,0,0-2.59-5.64q-2.41-1.83-7.29-1.83H233.1v23H220.54v-63h27.68q10.18,0,16.21,5a15.72,15.72,0,0,1,6.19,12.78,17.86,17.86,0,0,1-2.7,9.56,18.79,18.79,0,0,1-7.36,6.83Q269.13,702.74,269.66,712.8Zm-11.78-28a7.87,7.87,0,0,0-2.85-6.37,11.83,11.83,0,0,0-7.78-2.37H233.1v19.15h14.06a10.67,10.67,0,0,0,7.82-2.85A10.13,10.13,0,0,0,257.88,684.81Z"/><path d="M313.5,728.53H300.94v-63h27.9q10.14,0,16.43,5.76A18.86,18.86,0,0,1,351.68,686a20.64,20.64,0,0,1-6.5,15.51q-6.33,6.19-16.34,6.2H313.5ZM339,686a9.17,9.17,0,0,0-3-7.16,11.72,11.72,0,0,0-8.12-2.72H313.5V697.2h14.33a10.85,10.85,0,0,0,8.12-3.08A11.13,11.13,0,0,0,339,686Z"/><path d="M404.58,728.53H361v-63h42.71v10.64H373.52v15.2H400.1v10.45H373.52v16.08h31.06Z"/><path d="M452.16,716.18h-25.7L422,728.53H409.54l23.29-63h13.93l23.15,63H456.6Zm-21.92-10.41h18.23L439.38,680Z"/><path d="M503.17,718.73q12.57,0,16.3-13l12.17,1.54q-2.14,10.5-9.8,16.4t-18.93,5.91q-13.85,0-22.15-8.83T472.59,697q0-14.71,8.26-23.63t22.23-8.92q11.78,0,19.33,6t9.76,17.09l-12.61,1.71q-3.34-13.92-16.39-13.93-8.34,0-13.07,5.78T485.38,697q0,10.11,4.72,15.91T503.17,718.73Z"/><path d="M585.07,728.53H541.44v-63h42.7v10.64H554v15.2h26.58v10.45H554v16.08h31.07Z"/><path d="M635.41,729.62q-11.37,0-17.92-4.83a16.88,16.88,0,0,1-3.49-23q3-4,10.17-7.49-5.85-7.08-5.85-13.62a15.06,15.06,0,0,1,5-11.78q5.05-4.4,13.27-4.39,7.78,0,12.39,3.8a12.63,12.63,0,0,1,4.61,10.3,14.05,14.05,0,0,1-3.16,8.9q-3.16,4-10.46,8.32l12.61,13.58a33.48,33.48,0,0,0,1.8-11.51L665.82,699q0,11.6-5.23,19l9.84,10.55H655.84l-3.34-3.61Q645.57,729.63,635.41,729.62Zm-11.59-19.55a8.65,8.65,0,0,0,3.33,7.19q3.35,2.61,9.06,2.61,6.06,0,9.44-2.33L630,700.63a16,16,0,0,0-4.72,4.41A9.05,9.05,0,0,0,623.82,710.07Zm17.48-35.54a6.75,6.75,0,0,0-4.92-1.71,6.63,6.63,0,0,0-5,1.95,7,7,0,0,0-1.87,5,10.64,10.64,0,0,0,1.1,4.74,24.72,24.72,0,0,0,4,5.41,30.16,30.16,0,0,0,6.61-5.58,8.06,8.06,0,0,0,1.87-5.1A6.27,6.27,0,0,0,641.3,674.53Z"/><path d="M124.36,812.11H97.74v-63h26.62q14.37,0,22.94,8.3t8.56,22.23q0,14.5-8.65,23.55T124.36,812.11Zm18.72-32.47q0-9-5.14-14.41t-13.58-5.4H110.3v41.56h14.06q8.56,0,13.58-5.93T143.08,779.64Z"/><path d="M210.17,812.11H166.54v-63h42.71v10.63H179.11v15.2h26.58V785.4H179.11v16.08h31.06Z"/><path d="M250.63,812.11h-13l-22.15-63h13.23l15.73,46.18,15.46-46.18h12.79Z"/><path d="M324.49,812.11H280.86v-63h42.7v10.63H293.42v15.2H320V785.4H293.42v16.08h31.07Z"/><path d="M376,812.11H335.29v-63h12.57v52.28H376Z"/><path d="M440.3,780.61q0,14.8-8.48,23.68t-22.41,8.92q-14,0-22.36-8.92t-8.39-23.68q0-14.62,8.39-23.55t22.36-9q14.1,0,22.5,8.91T440.3,780.61Zm-44.09-16q-4.77,5.82-4.77,16t4.77,16q4.77,5.83,13.2,5.84t13.27-5.84q4.83-5.85,4.83-16t-4.83-16q-4.83-5.82-13.27-5.82T396.21,764.6Z"/><path d="M463.58,812.11H451v-63h27.9q10.14,0,16.43,5.76a18.8,18.8,0,0,1,6.41,14.67,20.6,20.6,0,0,1-6.5,15.51q-6.33,6.19-16.34,6.19H463.58Zm25.49-42.57a9.16,9.16,0,0,0-3-7.16,11.71,11.71,0,0,0-8.13-2.73H463.58v21.14h14.33a10.92,10.92,0,0,0,8.13-3.08A11.13,11.13,0,0,0,489.07,769.54Z"/><path d="M522.55,812.11H511v-63h16l17.18,44.55,17.48-44.55h15.47v63H565.47v-45l-18.1,45.26h-7.21l-17.61-44.73Z"/><path d="M634.54,812.11H590.91v-63h42.7v10.63H603.47v15.2h26.58V785.4H603.47v16.08h31.07Z"/><path d="M657.29,812.11H645.34v-63H659L684.93,790V749.11h11.86v63H686L657.29,767Z"/><path d="M705.23,749.11h49.91v10.72H736.42v52.28H723.94V759.83H705.23Z"/></g></svg>