<svg xmlns="http://www.w3.org/2000/svg" viewBox="0 0 1920 1080"><g id="Isolation_Mode" data-name="Isolation Mode"><path d="M281.29,411.64H208.16l-15.7,41.25H169l65-168h23.2l64.34,168H296.4Zm-65.75-19.21h58.6l-28.83-78.29Z"/><path d="M405.87,452.89H384.55v-120h20.86v21.8q11.71-21.79,34.33-21.8H449v20.16h-9.49q-15.36,0-24.49,13.18t-9.15,35.57Z"/><path d="M503.27,350.47V332.89h21.1V294.22h21.32v38.67h30.24v17.58H545.69v67.15q0,9.5,3.34,13.24t11.55,3.75h18.28v18.28H557.29q-16,0-24.49-8.26t-8.43-24.08V350.47Z"/><path d="M663.49,313.44H642.16V284.85h21.33Zm0,139.45H642.16v-120h21.33Z"/><path d="M782.45,455.82q-23.33,0-37-10.66t-15-29l21.33-3.16q1.63,13.24,9.08,19.57T782.45,439q12.42,0,18.93-5.16t6.5-15.23q0-14.3-21.09-17.23l-17.23-2.69q-17.23-2.7-26.31-11.37t-9.08-22.5q0-15.34,12.3-25.08T779.29,330q20.61,0,32.87,9.56T827.33,367l-19.69,2.81q-2.92-12.3-9.66-17.64t-18.93-5.33q-11.25,0-17.69,4.63a14.28,14.28,0,0,0-6.45,12.13q0,7,4.4,11t14.23,5.51l19.22,3.17q36.45,5.85,36.45,34.33,0,17.46-12.54,27.83T782.45,455.82Z"/><path d="M882.08,350.47V332.89h21.09V294.22H924.5v38.67h30.23v17.58H924.5v67.15q0,9.5,3.34,13.24t11.54,3.75h18.28v18.28H936.1q-16.05,0-24.49-8.26t-8.44-24.08V350.47Z"/><path d="M1042.29,313.44H1021V284.85h21.33Zm0,139.45H1021v-120h21.33Z"/><path d="M1167.47,437.54q13.47,0,21.68-7.56t9.84-21.27l20.86,2.47q-2.34,20.38-16.58,32.52t-35.8,12.12q-26.37,0-41.49-16.87t-15.11-45.59q0-28.94,15.35-46.05Q1141.8,330,1167.47,330q22.5,0,36.32,11.55t16.76,32.63l-21.79,2.47q-4.35-28.37-31.53-28.36-16.29,0-25.31,11.83t-9,33.28q0,20.86,9.08,32.52T1167.47,437.54Z"/><path d="M1387.33,435.08h5.74v17.81h-11.6q-9.49,0-15.82-4.51a16.71,16.71,0,0,1-7.15-12.48q-12.66,19.92-38,19.92-18.75,0-30.23-9.78t-11.49-25.25q0-15,9.38-24.56T1315,383.75l35-6q7.5-1.41,7.5-8.67a20.11,20.11,0,0,0-7-15.88q-7-6.17-19.22-6.16T1312,352.52q-7.15,5.46-9.85,16.82L1281.86,367a41,41,0,0,1,16.35-26.84q13.53-10.2,33.92-10.2,21.57,0,33.93,11.49T1378.42,372v54q0,5,2,7C1381.74,434.42,1384.05,435.08,1387.33,435.08Zm-87.42-15.82q0,9.15,6.09,14.3t17,5.15q15.24,0,25-10.95t9.79-28.19v-6.91l-38.44,6.68q-9.49,1.53-14.47,6.68A18.27,18.27,0,0,0,1299.91,419.26Z"/><path d="M1476.29,452.89H1455v-168h21.32Z"/><path d="M1573.93,452.89H1552.6v-168h21.33Z"/><path d="M1680,464.14l4-10.54-47.23-120.71h22.5l35.51,94.34,35.86-94.34h21.56l-52.38,133.48q-6.91,17.7-16.29,24.26-9,6.67-24.73,6.68h-12.42V479.26h12.42q8.32,0,13.24-3.4T1680,464.14Z"/><path d="M319.22,740.89H296.14v-168H414v19.69H319.22v54.72h85.2V667h-85.2Z"/><path d="M496.31,740.89H475v-120h20.86v21.8q11.71-21.8,34.34-21.8h9.26v20.16h-9.5q-15.35,0-24.49,13.18t-9.14,35.57Z"/><path d="M592,680.89q0-28.35,15.82-45.58T650.31,618q26.37,0,42.66,17.35,16,17.12,16,45.58,0,28.13-16,45.59-16.29,17.34-42.66,17.34-26.59,0-42.54-17.34T592,680.89Zm85.43,32.88q9.86-12,9.85-32.88T677.38,648q-9.84-12-27.07-12t-26.83,12q-9.74,12-9.73,32.87t9.67,32.93q9.66,12,26.89,12T677.38,713.77Z"/><path d="M876.27,674.68v66.21H854.94V667q0-14.54-6.85-22.5t-19.28-8q-14.65,0-22.33,9.79t-7.67,28.41v66.21H777.48v-120h20.86v14.65Q810.52,618,833.61,618q13.25,0,22.91,5.57a35.94,35.94,0,0,1,14.71,16.11Q883.07,618,909.9,618q20.63,0,32.29,12.13t11.66,33v77.81H932.52V667q0-14.54-6.91-22.5t-19.34-8q-14.65,0-22.32,9.79T876.27,674.68Z"/><path d="M1151,740.89h-23.08v-168H1151Z"/><path d="M1251.09,740.89h-21.33v-120h20.86v21.8q11.72-21.8,34.34-21.8h9.26v20.16h-9.5q-15.35,0-24.49,13.18t-9.14,35.57Z"/><path d="M1455.37,723.08h5.74v17.81h-11.6q-9.49,0-15.82-4.51a16.71,16.71,0,0,1-7.15-12.48q-12.66,19.92-38,19.92-18.75,0-30.23-9.78t-11.49-25.25q0-15,9.38-24.56t26.83-12.48l35-6q7.5-1.41,7.5-8.67a20.11,20.11,0,0,0-7-15.88q-7-6.16-19.22-6.16T1380,640.52q-7.15,5.46-9.85,16.82L1349.9,655a41,41,0,0,1,16.35-26.84q13.53-10.2,33.92-10.2,21.57,0,33.93,11.49T1446.46,660v54q0,5,2,7T1455.37,723.08ZM1368,707.26q0,9.15,6.09,14.3t17,5.15q15.24,0,25-11t9.79-28.19v-6.91l-38.44,6.68q-9.5,1.53-14.47,6.68A18.27,18.27,0,0,0,1368,707.26Z"/><path d="M1626.13,663.08v77.81H1604.8V667q0-14.66-7.32-22.56t-21-7.91q-15.7,0-23.9,9.73t-8.21,28.47v66.21H1523v-120h20.86V636q12.32-18,37.39-18,21,0,32.93,12.13T1626.13,663.08Z"/></g></svg>