<svg xmlns="http://www.w3.org/2000/svg" viewBox="0 0 720 1080"><defs><style>.cls-1{fill:#f7e1e4;}.cls-2{fill:#fff;}.cls-3,.cls-4,.cls-5{fill:none;stroke-miterlimit:10;}.cls-3{stroke:#fff;stroke-width:20.52px;}.cls-4,.cls-5{stroke:#000;}.cls-4{stroke-width:2.13px;}.cls-5{stroke-width:2.13px;}</style></defs><g id="Graphics"><rect class="cls-1" width="720" height="1080"/><rect width="720" height="338.75"/><path d="M631.37,396.2v26.58h-9.5v-7.91H557.56v7.91h-9.45V396.2h9.45v7.9h64.31v-7.9Z"/><path d="M631.37,484v27h-9.5V504H548.11V489.91l69-38.72H557.56v8.57h-9.45v-27h9.45v7.69h64.31v-7.91h9.61v22.41l-68.38,38,2.64.44h56.13V484Z"/><path d="M631.37,515.75v31a39.39,39.39,0,0,1-12.11,28.56,40.25,40.25,0,0,1-8.38,6.18,42.05,42.05,0,0,1-9.91,3.92,43.48,43.48,0,0,1-11,1.38,44.29,44.29,0,0,1-11.15-1.38,43,43,0,0,1-10-3.92,41,41,0,0,1-8.49-6.18,39.77,39.77,0,0,1-6.53-8.07,38.75,38.75,0,0,1-4.21-9.62,39.47,39.47,0,0,1-1.48-10.87v-31h9.45v7.91h64.31v-7.91Zm-9.5,18.67H557.56v13a24.12,24.12,0,0,0,2.52,10.85,28.63,28.63,0,0,0,6.9,8.87,33.08,33.08,0,0,0,10.27,6,36,36,0,0,0,12.71,2.2,35,35,0,0,0,12.52-2.2,32.59,32.59,0,0,0,10.13-6,28.13,28.13,0,0,0,6.79-8.87,24.61,24.61,0,0,0,2.47-10.85Z"/><path d="M631.37,592.55v59.64H607.81V640.93h14.06V611.22H595.23v25h-9.44v-25H557.56v29.71h14.06v11.26H548.11V592.55h9.45v7.91h64.31v-7.91Z"/><path d="M631.37,712.78v27h-9.5v-6.15l-31.25-22.52-33.06,23.5v5.17h-9.45v-27h9.45v10.16l24.77-17.8-24.77-17.9V697h-9.45v-27h9.45v5.44l33.11,23.72,31.2-22.4v-6.76h9.5v27h-9.5v-8l-22.79,16.2,22.79,16.37v-8.73Z"/><path d="M609.4,804a27.19,27.19,0,0,0,9.83-9.75,26.22,26.22,0,0,0,3.57-13.54A25.25,25.25,0,0,0,620.11,769a28.33,28.33,0,0,0-7.22-9,33.81,33.81,0,0,0-10.49-5.84,37.48,37.48,0,0,0-12.55-2.09A38.33,38.33,0,0,0,576,754.38a30.45,30.45,0,0,0-10,6,32.36,32.36,0,0,0-6.64,8.81,24.41,24.41,0,0,0-2.67,11.48,26.87,26.87,0,0,0,4.21,15.1q4.2,6.44,13.81,11l-4.56,9.66a34,34,0,0,1-11.45-7.08,37.56,37.56,0,0,1-8.9-12.33,38.37,38.37,0,0,1-3.38-16.23,37.74,37.74,0,0,1,3.22-15.65,39.62,39.62,0,0,1,9.14-12.71,40.25,40.25,0,0,1,14.06-8.52,49.52,49.52,0,0,1,17-2.93,47.89,47.89,0,0,1,16.81,2.93,42.14,42.14,0,0,1,13.75,8.24,38.61,38.61,0,0,1,9.23,12.63,37.58,37.58,0,0,1,3.38,15.9,36.28,36.28,0,0,1-2.17,13.18,37.79,37.79,0,0,1-5.17,9.42,38.51,38.51,0,0,1-6.5,6.67v5.82H609.4Z"/><path d="M557.56,871.05V878l18.89-6.59v-32l-18.89-6.43v8.57h-9.45v-27h9.45v7.25l73.81,25.92v16.2l-73.81,25.87v8.35h-9.45v-27Zm28-28.56v25.7l37.23-13Z"/><path d="M557.56,907.43v7.63h64.8v-19h-13V884.8h22v74.25h-22V947.79h13v-22h-64.8v8.56h-9.45v-27Z"/><path class="cls-2" d="M78.43,87.82h-1l-2.32-7.88h1.11L78,86.25l1.8-6.31h1.06l1.81,6.25,1.77-6.25h1.08l-2.32,7.88h-1l-1.84-6.21Z"/><path class="cls-2" d="M87.58,81.28h-1V79.94h1Zm0,6.54h-1V82.19h1Z"/><path class="cls-2" d="M94.07,84.17v3.65h-1V84.35a1.5,1.5,0,0,0-.34-1.06,1.3,1.3,0,0,0-1-.37,1.41,1.41,0,0,0-1.13.46,2,2,0,0,0-.38,1.33v3.11h-1V82.19h1v.71A2,2,0,0,1,92,82.06a2,2,0,0,1,1.54.56A2.09,2.09,0,0,1,94.07,84.17Z"/><path class="cls-2" d="M95,83v-.83h1V80.38h1v1.81h1.42V83H97v3.14a.89.89,0,0,0,.16.62.67.67,0,0,0,.54.18h.86v.86h-1a1.55,1.55,0,0,1-1.15-.39A1.5,1.5,0,0,1,96,86.3V83Z"/><path class="cls-2" d="M101.83,87.14A1.33,1.33,0,0,0,103.26,86l.92.19a2,2,0,0,1-.79,1.29,2.49,2.49,0,0,1-1.56.47,2.59,2.59,0,0,1-2-.76A3.07,3.07,0,0,1,99.11,85a3,3,0,0,1,.73-2.13,2.52,2.52,0,0,1,2-.81,2.33,2.33,0,0,1,1.81.72,2.82,2.82,0,0,1,.66,2v.48h-4.16C100.18,86.51,100.75,87.14,101.83,87.14Zm0-4.28a1.54,1.54,0,0,0-1.12.41,2.06,2.06,0,0,0-.52,1.23h3.11C103.2,83.4,102.71,82.86,101.78,82.86Z"/><path class="cls-2" d="M106.6,87.82h-1V82.19h1v1a1.74,1.74,0,0,1,1.61-1h.43v1h-.44a1.31,1.31,0,0,0-1.15.62,2.82,2.82,0,0,0-.43,1.66Z"/><path class="cls-2" d="M112.64,89.3h-1l4-9.83h.95Z"/><path class="cls-2" d="M123.71,82a1.22,1.22,0,0,0-.37-.94,1.39,1.39,0,0,0-1-.36,1.52,1.52,0,0,0-1.27.54,2.44,2.44,0,0,0-.4,1.59l-1-.14a2.55,2.55,0,0,1,2.71-2.91,2.49,2.49,0,0,1,1.79.61,2.15,2.15,0,0,1,.66,1.61,2.81,2.81,0,0,1-.4,1.42A6.38,6.38,0,0,1,123.1,85L121,86.92h4v.9h-5.4v-.93l2.83-2.59a5,5,0,0,0,1-1.16A2.17,2.17,0,0,0,123.71,82Z"/><path class="cls-2" d="M126.17,83.88a5,5,0,0,1,.78-3,2.71,2.71,0,0,1,4.34,0,4.89,4.89,0,0,1,.79,3,5,5,0,0,1-.79,3,2.72,2.72,0,0,1-4.34,0A5,5,0,0,1,126.17,83.88Zm4.34,2.35a4.61,4.61,0,0,0,.5-2.35,4.7,4.7,0,0,0-.49-2.35,1.58,1.58,0,0,0-2.78,0,5.78,5.78,0,0,0,0,4.68,1.59,1.59,0,0,0,2.78,0Z"/><path class="cls-2" d="M138.25,87.82h-4.88v-.9h1.92V81.86a1.71,1.71,0,0,1-.9.21h-1.06v-.89h1a.94.94,0,0,0,.76-.3,1.49,1.49,0,0,0,.24-.94h1v7h1.89Z"/><path class="cls-2" d="M143.42,83.66a2,2,0,0,1,1,.74,2.2,2.2,0,0,1,.34,1.21A2.11,2.11,0,0,1,144,87.3a3,3,0,0,1-2,.65,3.09,3.09,0,0,1-2.05-.64,2.12,2.12,0,0,1-.77-1.7,2,2,0,0,1,.36-1.16,2.05,2.05,0,0,1,1-.77,1.79,1.79,0,0,1-.86-.68,1.9,1.9,0,0,1-.29-1.08,1.87,1.87,0,0,1,.71-1.53,2.91,2.91,0,0,1,1.9-.58,3,3,0,0,1,1.92.57,1.89,1.89,0,0,1,.69,1.54,1.85,1.85,0,0,1-.29,1.06A1.76,1.76,0,0,1,143.42,83.66Zm.26,1.92a1.34,1.34,0,0,0-.48-1.08,1.86,1.86,0,0,0-1.27-.41,1.93,1.93,0,0,0-1.28.41,1.51,1.51,0,0,0,0,2.19,2.2,2.2,0,0,0,2.56,0A1.41,1.41,0,0,0,143.68,85.58ZM140.36,82a1.21,1.21,0,0,0,.43,1,1.63,1.63,0,0,0,1.14.39,1.64,1.64,0,0,0,1.14-.39,1.24,1.24,0,0,0,.42-1,1.15,1.15,0,0,0-.42-1,2,2,0,0,0-2.29,0A1.15,1.15,0,0,0,140.36,82Z"/><path d="M384,398v-1l5.62-1.79v1l-4.29,1.32,4.29,1.28v1l-4.28,1.28,4.28,1.3v1l-5.62-1.8v-1l4.24-1.29Z"/><path d="M384,406.59v-1l5.62-1.79v1l-4.29,1.32,4.29,1.27v1l-4.28,1.27,4.28,1.31v1l-5.62-1.8v-1l4.24-1.3Z"/><path d="M384,415.16v-1l5.62-1.79v1l-4.29,1.31,4.29,1.28v1l-4.28,1.27,4.28,1.3v1l-5.62-1.8v-1l4.24-1.3Z"/><path d="M385.22,421v1.23H384V421Z"/><path d="M388.78,427.78l-4-3.24v3.34H384v-4.54h.75l4,3.26v-3.09h.83v4.27Z"/><path d="M384.63,431.36a1.33,1.33,0,0,0,1.14,1.43l-.18.92a2,2,0,0,1-1.3-.79,2.56,2.56,0,0,1-.47-1.56,2.59,2.59,0,0,1,.76-2,3.12,3.12,0,0,1,2.19-.71,3,3,0,0,1,2.13.73,2.51,2.51,0,0,1,.82,2,2.29,2.29,0,0,1-.73,1.81,2.82,2.82,0,0,1-2,.66h-.48v-4.16C385.26,429.71,384.63,430.28,384.63,431.36Zm4.29,0a1.52,1.52,0,0,0-.42-1.13,2.06,2.06,0,0,0-1.23-.52v3.11C388.37,432.73,388.92,432.24,388.92,431.32Z"/><path d="M384.63,437.49a1.33,1.33,0,0,0,1.14,1.43l-.18.92a2,2,0,0,1-1.3-.79,2.56,2.56,0,0,1-.47-1.56,2.59,2.59,0,0,1,.76-2,3.07,3.07,0,0,1,2.19-.71,3,3,0,0,1,2.13.73,2.49,2.49,0,0,1,.82,2,2.3,2.3,0,0,1-.73,1.81,2.82,2.82,0,0,1-2,.66h-.48v-4.16C385.26,435.83,384.63,436.41,384.63,437.49Zm4.29-.05a1.51,1.51,0,0,0-.42-1.12,2,2,0,0,0-1.23-.52v3.11Q388.92,438.84,388.92,437.44Z"/><path d="M384.63,443.62a1.33,1.33,0,0,0,1.14,1.43l-.18.92a2,2,0,0,1-1.3-.79,2.56,2.56,0,0,1-.47-1.56,2.62,2.62,0,0,1,.76-2,3.12,3.12,0,0,1,2.19-.7,3,3,0,0,1,2.13.73,2.49,2.49,0,0,1,.82,2,2.3,2.3,0,0,1-.73,1.81,2.82,2.82,0,0,1-2,.66h-.48v-4.16C385.26,442,384.63,442.53,384.63,443.62Zm4.29-.05a1.53,1.53,0,0,0-.42-1.13,2,2,0,0,0-1.23-.51V445C388.37,445,388.92,444.5,388.92,443.57Z"/><path d="M387.6,452.22H384v-1h3.46a1.5,1.5,0,0,0,1.06-.34,1.28,1.28,0,0,0,.37-1,1.37,1.37,0,0,0-.46-1.12,2,2,0,0,0-1.33-.38H384v-1h5.62v1h-.71a2,2,0,0,1,.85,1.75,2.06,2.06,0,0,1-.57,1.54A2.09,2.09,0,0,1,387.6,452.22Z"/><path d="M385.22,453.72V455H384v-1.23Z"/><path d="M384,457.52v-1h5.62v1Zm6.53,0v-1h1.34v1Z"/><path d="M384,460.18v-1h5.62v1h-1a1.73,1.73,0,0,1,1,1.61v.43h-.95v-.44a1.32,1.32,0,0,0-.61-1.15,2.85,2.85,0,0,0-1.67-.43Z"/><path d="M374.11,400.66h-3.65v-1h3.46a1.5,1.5,0,0,0,1.06-.34,1.28,1.28,0,0,0,.37-1,1.4,1.4,0,0,0-.45-1.12,2,2,0,0,0-1.34-.38h-3.1v-1h7.87v1H375.4a2,2,0,0,1,.82,1.73,2.06,2.06,0,0,1-.57,1.54A2.11,2.11,0,0,1,374.11,400.66Z"/><path d="M371.13,404.62a1.33,1.33,0,0,0,1.14,1.43l-.18.92a2,2,0,0,1-1.29-.79,2.54,2.54,0,0,1-.48-1.56,2.64,2.64,0,0,1,.76-2,3.12,3.12,0,0,1,2.19-.7,3,3,0,0,1,2.14.73,2.51,2.51,0,0,1,.81,2,2.33,2.33,0,0,1-.72,1.81,2.85,2.85,0,0,1-2,.66H373v-4.16C371.77,403,371.13,403.53,371.13,404.62Zm4.29-.05a1.53,1.53,0,0,0-.42-1.13,2,2,0,0,0-1.22-.51V406C374.87,406,375.42,405.49,375.42,404.57Z"/><path d="M370.46,409.39v-1h7.87v1Z"/><path d="M370.46,412.05v-1h7.87v1Z"/><path d="M373.27,413.35a3.06,3.06,0,0,1,2.14.74,2.6,2.6,0,0,1,.81,2,2.63,2.63,0,0,1-.81,2,3,3,0,0,1-2.14.75,3.05,3.05,0,0,1-2.14-.75,2.63,2.63,0,0,1-.81-2,2.6,2.6,0,0,1,.81-2A3.06,3.06,0,0,1,373.27,413.35Zm-1.54,4a2.76,2.76,0,0,0,3.08,0,1.7,1.7,0,0,0,0-2.52,2.81,2.81,0,0,0-3.08,0,1.51,1.51,0,0,0-.56,1.26A1.55,1.55,0,0,0,371.73,417.35Z"/><path d="M371.06,424a1.75,1.75,0,0,1,.55-1.36,2,2,0,0,1,1.45-.51,3.41,3.41,0,0,1,2.15.68,2.14,2.14,0,0,1,.88,1.77,1.72,1.72,0,0,1-.24.91,1.47,1.47,0,0,1-.67.61l.8.17v.95l-3.14-.64a1.12,1.12,0,0,0-.8.06.68.68,0,0,0-.25.63,1.11,1.11,0,0,0,.65,1,3.6,3.6,0,0,0,1.78.37,3.52,3.52,0,0,0,1.39-.3,3.23,3.23,0,0,0,1.16-.81,3.76,3.76,0,0,0,.9-2.66,3.84,3.84,0,0,0-1.21-2.93,3.91,3.91,0,0,0-1.37-.87,4.27,4.27,0,0,0-1.6-.32,4,4,0,0,0-2.87,1.08,3.63,3.63,0,0,0-1.12,2.73,5.17,5.17,0,0,0,.17,1.34,5.75,5.75,0,0,0,.56,1.34l-.67.34a6.43,6.43,0,0,1-.66-1.51,5.73,5.73,0,0,1-.19-1.51,4.57,4.57,0,0,1,4.74-4.74,5,5,0,0,1,1.93.39,5.13,5.13,0,0,1,1.65,1.08,5.22,5.22,0,0,1,.23,6.94,3.85,3.85,0,0,1-3,1.33,3.8,3.8,0,0,1-2.34-.64,2,2,0,0,1-.85-1.68,1.93,1.93,0,0,1,.23-1,1.1,1.1,0,0,1,.64-.53A2,2,0,0,1,371.06,424Zm2.07-.89a1.43,1.43,0,0,0-.94.29,1,1,0,0,0-.34.81,1.34,1.34,0,0,0,.64,1.14,2.4,2.4,0,0,0,1.46.46,1.44,1.44,0,0,0,1-.32,1.11,1.11,0,0,0,.37-.86,1.24,1.24,0,0,0-.66-1.09A2.62,2.62,0,0,0,373.13,423.09Z"/><path d="M375.29,434.86l-4-3.24V435h-.83v-4.54h.75l4,3.26V430.6h.83v4.26Z"/><path d="M371.13,438.45a1.33,1.33,0,0,0,1.14,1.43l-.18.92a2,2,0,0,1-1.29-.79,2.54,2.54,0,0,1-.48-1.56,2.64,2.64,0,0,1,.76-2,3.12,3.12,0,0,1,2.19-.71,3,3,0,0,1,2.14.74,2.51,2.51,0,0,1,.81,2,2.33,2.33,0,0,1-.72,1.81,2.85,2.85,0,0,1-2,.66H373v-4.16C371.77,436.79,371.13,437.36,371.13,438.45Zm4.29-.05a1.53,1.53,0,0,0-.42-1.13,2,2,0,0,0-1.22-.51v3.11C374.87,439.81,375.42,439.32,375.42,438.4Z"/><path d="M371.13,444.58a1.33,1.33,0,0,0,1.14,1.43l-.18.92a2,2,0,0,1-1.29-.8,2.49,2.49,0,0,1-.48-1.55,2.64,2.64,0,0,1,.76-2,3.12,3.12,0,0,1,2.19-.71,3.08,3.08,0,0,1,2.14.73,2.54,2.54,0,0,1,.81,2,2.34,2.34,0,0,1-.72,1.81,2.85,2.85,0,0,1-2,.66H373v-4.17C371.77,442.92,371.13,443.49,371.13,444.58Zm4.29-.05a1.53,1.53,0,0,0-.42-1.13,2,2,0,0,0-1.22-.51V446C374.87,445.94,375.42,445.45,375.42,444.53Z"/><path d="M371.13,450.71a1.32,1.32,0,0,0,1.14,1.42l-.18.93a2,2,0,0,1-1.29-.8,2.49,2.49,0,0,1-.48-1.55,2.64,2.64,0,0,1,.76-2,3.12,3.12,0,0,1,2.19-.71,3.08,3.08,0,0,1,2.14.73,2.53,2.53,0,0,1,.81,2,2.35,2.35,0,0,1-.72,1.82,2.85,2.85,0,0,1-2,.66H373V449C371.77,449.05,371.13,449.62,371.13,450.71Zm4.29,0a1.52,1.52,0,0,0-.42-1.13,2,2,0,0,0-1.22-.51v3.1C374.87,452.07,375.42,451.58,375.42,450.66Z"/><path d="M374.11,459.31h-3.65v-1h3.46A1.5,1.5,0,0,0,375,458a1.24,1.24,0,0,0,.37-1,1.38,1.38,0,0,0-.45-1.12,2,2,0,0,0-1.34-.39h-3.1v-1h5.62v1h-.71a2,2,0,0,1,.85,1.75,2.08,2.08,0,0,1-.57,1.55A2.11,2.11,0,0,1,374.11,459.31Z"/><path d="M371.73,460.8V462h-1.27V460.8Z"/><path d="M370.46,464.6v-1h5.62v1Zm6.53,0v-1h1.34v1Z"/><path d="M370.46,467.26v-1h5.62v1h-1a1.74,1.74,0,0,1,1,1.61v.44h-.94v-.45a1.35,1.35,0,0,0-.62-1.15,2.93,2.93,0,0,0-1.67-.43Z"/><path d="M247.86,398.08v-2.33h16.93v2.33h-7.31v8.49h7.31v2.29H247.86v-2.29h7.61v-8.49Z"/><path d="M249.65,422.77v.58h-1.79v-1.17a2.67,2.67,0,0,1,.45-1.59,1.65,1.65,0,0,1,1.26-.72,4.25,4.25,0,0,1-2-3.83,4.53,4.53,0,0,1,1-3.05,3.17,3.17,0,0,1,2.54-1.15,3.36,3.36,0,0,1,2.47.94,4.75,4.75,0,0,1,1.26,2.7l.6,3.53a.82.82,0,0,0,.88.76,2.05,2.05,0,0,0,1.6-.71,2.85,2.85,0,0,0,.62-1.93,3.18,3.18,0,0,0-.55-1.95,2.87,2.87,0,0,0-1.7-1l.24-2.05a4.11,4.11,0,0,1,2.7,1.65,5.5,5.5,0,0,1,1,3.42,4.79,4.79,0,0,1-1.16,3.42,4,4,0,0,1-3.08,1.24h-5.44a.75.75,0,0,0-.91.9Zm1.59-8.81a1.8,1.8,0,0,0-1.44.62,2.59,2.59,0,0,0-.52,1.71,3.23,3.23,0,0,0,1.11,2.52,4.07,4.07,0,0,0,2.84,1h.69l-.67-3.87a2.55,2.55,0,0,0-.67-1.46A1.87,1.87,0,0,0,251.24,414Z"/><path d="M255.7,435.86h-7.84v-2.14h7.45a3.23,3.23,0,0,0,2.27-.74,2.75,2.75,0,0,0,.8-2.12,3,3,0,0,0-1-2.41,4.37,4.37,0,0,0-2.87-.83h-6.67v-2.15H260v2.11h-1.53a4.24,4.24,0,0,1,1.82,3.76,4.46,4.46,0,0,1-1.22,3.32A4.52,4.52,0,0,1,255.7,435.86Z"/><path d="M247.56,443.94a5,5,0,0,1,1.7-3.94,6.76,6.76,0,0,1,4.55-1.46,7,7,0,0,1,4.66,1.48,4.87,4.87,0,0,1,1.77,3.92,4.6,4.6,0,0,1-2,3.92h6.51V450H247.86v-2.1h1.81A4.55,4.55,0,0,1,247.56,443.94Zm6.34-3.2a5.18,5.18,0,0,0-3.26.95,3.08,3.08,0,0,0-1.21,2.56,3.25,3.25,0,0,0,1.22,2.66,5,5,0,0,0,3.25,1,5,5,0,0,0,3.26-1,3.24,3.24,0,0,0,1.24-2.65,3.08,3.08,0,0,0-1.22-2.56A5.24,5.24,0,0,0,253.9,440.74Z"/><path d="M254.53,463.54h-6.67v-2.15h7.45a3.36,3.36,0,0,0,2.26-.69,2.41,2.41,0,0,0,.81-1.94,2.67,2.67,0,0,0-1-2.25,4.53,4.53,0,0,0-2.86-.77h-6.67v-2.15H260v2.1h-1.48a4.05,4.05,0,0,1,1.77,3.55,4.59,4.59,0,0,1-.56,2.31,3.59,3.59,0,0,1-1.62,1.48,4.12,4.12,0,0,1,2.18,3.9,4.31,4.31,0,0,1-1.22,3.25,4.55,4.55,0,0,1-3.32,1.18h-7.84v-2.15h7.45a3.31,3.31,0,0,0,2.26-.7,2.42,2.42,0,0,0,.81-1.95,2.69,2.69,0,0,0-1-2.25A4.6,4.6,0,0,0,254.53,463.54Z"/><path d="M249.65,484.88v.58h-1.79v-1.17a2.72,2.72,0,0,1,.45-1.6,1.71,1.71,0,0,1,1.26-.72,4.22,4.22,0,0,1-2-3.82,4.53,4.53,0,0,1,1-3,3.18,3.18,0,0,1,2.54-1.16,3.37,3.37,0,0,1,2.47.95,4.75,4.75,0,0,1,1.26,2.7l.6,3.53a.82.82,0,0,0,.88.76,2.05,2.05,0,0,0,1.6-.71,2.86,2.86,0,0,0,.62-1.94,3.18,3.18,0,0,0-.55-2,2.87,2.87,0,0,0-1.7-1l.24-2a4.11,4.11,0,0,1,2.7,1.65,5.5,5.5,0,0,1,1,3.42,4.78,4.78,0,0,1-1.16,3.41A4,4,0,0,1,256,484h-5.44a1,1,0,0,0-.71.2A1,1,0,0,0,249.65,484.88Zm1.59-8.81a1.79,1.79,0,0,0-1.44.61,2.61,2.61,0,0,0-.52,1.71,3.23,3.23,0,0,0,1.11,2.53,4.12,4.12,0,0,0,2.84,1h.69l-.67-3.87a2.52,2.52,0,0,0-.67-1.46A1.87,1.87,0,0,0,251.24,476.07Z"/><path d="M247.56,492.22a5,5,0,0,1,1.7-3.94,6.76,6.76,0,0,1,4.55-1.46,7,7,0,0,1,4.66,1.48,4.87,4.87,0,0,1,1.77,3.92,4.6,4.6,0,0,1-2,3.92h6.51v2.15H247.86v-2.1h1.81A4.54,4.54,0,0,1,247.56,492.22Zm6.34-3.2a5.18,5.18,0,0,0-3.26,1,3.09,3.09,0,0,0-1.21,2.56,3.23,3.23,0,0,0,1.22,2.66,5,5,0,0,0,3.25,1,5,5,0,0,0,3.26-1,3.24,3.24,0,0,0,1.24-2.65,3.1,3.1,0,0,0-1.22-2.56A5.24,5.24,0,0,0,253.9,489Z"/><path d="M249.31,506.94a2.84,2.84,0,0,0,2.44,3.07l-.39,2a4.4,4.4,0,0,1-2.78-1.71,5.42,5.42,0,0,1-1-3.35,5.61,5.61,0,0,1,1.64-4.33,6.65,6.65,0,0,1,4.7-1.52,6.51,6.51,0,0,1,4.59,1.57,5.41,5.41,0,0,1,1.75,4.24,5,5,0,0,1-1.56,3.89,6,6,0,0,1-4.25,1.42h-1v-9Q249.31,503.44,249.31,506.94Zm9.21-.1a3.28,3.28,0,0,0-.9-2.43,4.29,4.29,0,0,0-2.63-1.1V510Q258.52,509.81,258.52,506.84Z"/><path d="M222.88,402.74a5,5,0,0,0,1,3.29,6.19,6.19,0,0,0,3.22,1.86l-.32,2.26a7.67,7.67,0,0,1-4.4-2.61,8.17,8.17,0,0,1,.8-10.57,9.23,9.23,0,0,1,6.39-2.11A9.08,9.08,0,0,1,236,397a7.33,7.33,0,0,1,2.4,5.73,7.64,7.64,0,0,1-1.6,5,7.43,7.43,0,0,1-4.61,2.5l-.34-2.33q4.51-1,4.52-5.2a4.94,4.94,0,0,0-1.79-4.05,9.07,9.07,0,0,0-9.87,0A4.94,4.94,0,0,0,222.88,402.74Z"/><path d="M227.19,412.26a6.5,6.5,0,0,1,4.59,1.6,5.52,5.52,0,0,1,1.75,4.28,5.61,5.61,0,0,1-1.75,4.3,6.43,6.43,0,0,1-4.59,1.62,6.5,6.5,0,0,1-4.59-1.62,5.61,5.61,0,0,1-1.75-4.3,5.52,5.52,0,0,1,1.75-4.28A6.47,6.47,0,0,1,227.19,412.26Zm-3.31,8.61a6,6,0,0,0,6.62,0,3.33,3.33,0,0,0,1.21-2.73,3.27,3.27,0,0,0-1.21-2.7,6.12,6.12,0,0,0-6.63,0,3.67,3.67,0,0,0,0,5.44Z"/><path d="M229,437.31h-7.84v-2.15h7.45a3.24,3.24,0,0,0,2.28-.74,2.75,2.75,0,0,0,.79-2.12,3,3,0,0,0-1-2.41,4.35,4.35,0,0,0-2.87-.82h-6.67v-2.15h12.09V429h-1.52a4.26,4.26,0,0,1,1.82,3.77,4.45,4.45,0,0,1-1.22,3.31A4.53,4.53,0,0,1,229,437.31Z"/><path d="M231.46,439.32h1.77v2.12h3.9v2.15h-3.9v3.05h-1.77v-3.05H224.7a2,2,0,0,0-1.34.34,1.49,1.49,0,0,0-.37,1.16v1.84h-1.85v-2.17a3.37,3.37,0,0,1,.84-2.47,3.25,3.25,0,0,1,2.42-.85h7.06Z"/><path d="M222.6,454.14a2.85,2.85,0,0,0,2.44,3.07l-.39,2a4.4,4.4,0,0,1-2.78-1.71,5.39,5.39,0,0,1-1-3.34,5.63,5.63,0,0,1,1.64-4.34,6.68,6.68,0,0,1,4.7-1.52,6.51,6.51,0,0,1,4.59,1.57,5.41,5.41,0,0,1,1.75,4.24A5,5,0,0,1,232,458a6.11,6.11,0,0,1-4.25,1.41h-1v-8.95Q222.6,450.63,222.6,454.14Zm9.21-.11a3.32,3.32,0,0,0-.9-2.43,4.29,4.29,0,0,0-2.63-1.1v6.68C230.63,457.07,231.81,456,231.81,454Z"/><path d="M227.81,472.26h-6.67v-2.15h7.45a3.37,3.37,0,0,0,2.27-.69,2.39,2.39,0,0,0,.8-1.94,2.72,2.72,0,0,0-1-2.25,4.61,4.61,0,0,0-2.87-.77h-6.67v-2.15h12.09v2.1h-1.47a4.06,4.06,0,0,1,1.77,3.56,4.58,4.58,0,0,1-.56,2.3,3.69,3.69,0,0,1-1.63,1.49,4.09,4.09,0,0,1,2.19,3.89,4.3,4.3,0,0,1-1.22,3.25,4.59,4.59,0,0,1-3.33,1.18h-7.84v-2.15h7.45a3.32,3.32,0,0,0,2.27-.7,2.41,2.41,0,0,0,.8-1.94,2.69,2.69,0,0,0-1-2.25A4.54,4.54,0,0,0,227.81,472.26Z"/><path d="M233.53,489.66a5,5,0,0,1-1.72,3.93,6.67,6.67,0,0,1-4.53,1.47,7,7,0,0,1-4.66-1.47,4.88,4.88,0,0,1-1.77-3.93,4.59,4.59,0,0,1,2-3.92h-6.14v-2.15h16.56v2.1h-1.81A4.54,4.54,0,0,1,233.53,489.66Zm-6.34,3.18a5.18,5.18,0,0,0,3.28-.95,3.07,3.07,0,0,0,1.22-2.55,3.22,3.22,0,0,0-1.24-2.66,5.05,5.05,0,0,0-3.26-1,5,5,0,0,0-3.24,1,3.23,3.23,0,0,0-1.24,2.65,3.07,3.07,0,0,0,1.22,2.55A5.12,5.12,0,0,0,227.19,492.84Z"/><path d="M227.19,497.17a6.54,6.54,0,0,1,4.59,1.59,5.53,5.53,0,0,1,1.75,4.29,5.62,5.62,0,0,1-1.75,4.3,6.47,6.47,0,0,1-4.59,1.61,6.54,6.54,0,0,1-4.59-1.61,5.62,5.62,0,0,1-1.75-4.3,5.53,5.53,0,0,1,1.75-4.29A6.51,6.51,0,0,1,227.19,497.17Zm-3.31,8.61a6,6,0,0,0,6.62,0,3.34,3.34,0,0,0,1.21-2.73,3.3,3.3,0,0,0-1.21-2.71,6.1,6.1,0,0,0-6.63,0,3.29,3.29,0,0,0-1.2,2.71A3.34,3.34,0,0,0,223.88,505.78Z"/><path d="M221.14,514v-2.15h12.09v2.1H231a3.74,3.74,0,0,1,2.19,3.46v.94h-2v-1a2.88,2.88,0,0,0-1.32-2.47,6.26,6.26,0,0,0-3.59-.92Z"/><path d="M222.94,530.52v.57h-1.8v-1.16a2.66,2.66,0,0,1,.46-1.6,1.71,1.71,0,0,1,1.26-.72,4.22,4.22,0,0,1-2-3.82,4.58,4.58,0,0,1,1-3,3.21,3.21,0,0,1,2.55-1.16,3.37,3.37,0,0,1,2.47.95,4.81,4.81,0,0,1,1.26,2.7l.6,3.53a.83.83,0,0,0,.88.76,2.05,2.05,0,0,0,1.6-.71,2.86,2.86,0,0,0,.62-1.94,3.18,3.18,0,0,0-.55-2,2.87,2.87,0,0,0-1.7-1l.24-2a4.11,4.11,0,0,1,2.7,1.65,5.47,5.47,0,0,1,1,3.41,4.84,4.84,0,0,1-1.16,3.42,4,4,0,0,1-3.08,1.25h-5.44a1,1,0,0,0-.71.2A1,1,0,0,0,222.94,530.52Zm1.59-8.81a1.79,1.79,0,0,0-1.44.61,2.61,2.61,0,0,0-.52,1.71,3.2,3.2,0,0,0,1.11,2.52,4.08,4.08,0,0,0,2.84,1h.69l-.67-3.87a2.52,2.52,0,0,0-.67-1.46A1.83,1.83,0,0,0,224.53,521.71Z"/><path d="M221.14,535.44v-2.15h12.09v2.1H231a3.74,3.74,0,0,1,2.19,3.46v.94h-2v-1a2.88,2.88,0,0,0-1.32-2.47,6.26,6.26,0,0,0-3.59-.92Z"/><path d="M220,545.11l1.06.4,12.16-4.75V543l-9.5,3.58,9.5,3.61v2.18l-13.44-5.28a5.28,5.28,0,0,1-2.45-1.64,4.11,4.11,0,0,1-.67-2.49v-1.26h1.82V543a2.3,2.3,0,0,0,.34,1.33A2.34,2.34,0,0,0,220,545.11Z"/><path d="M198.59,407.72v-7.36l-4.16-1.59v-2.36L211.36,403v2.33l-16.93,6.49v-2.54Zm1.93-6.62V407l7.89-2.9Z"/><path d="M194.43,416.17V414h12.09v2.1h-2.19a3.74,3.74,0,0,1,2.19,3.46v.93h-2v-.95a2.84,2.84,0,0,0-1.33-2.47,6.13,6.13,0,0,0-3.58-.92Z"/><path d="M204.75,421.39h1.77v2.12h3.9v2.15h-3.9v3h-1.77v-3H198a2,2,0,0,0-1.33.34,1.5,1.5,0,0,0-.38,1.16V429h-1.84v-2.17a3.41,3.41,0,0,1,.83-2.47,3.25,3.25,0,0,1,2.43-.85h7.06Z"/><path d="M194.43,436v-2.15L206.52,430v2.19L197.29,435l9.23,2.75v2.05l-9.21,2.74,9.21,2.8v2.14l-12.09-3.87v-2.13l9.12-2.79Z"/><path d="M200.48,448.77a6.54,6.54,0,0,1,4.59,1.59,5.56,5.56,0,0,1,1.75,4.29,5.66,5.66,0,0,1-1.75,4.3,6.47,6.47,0,0,1-4.59,1.61,6.58,6.58,0,0,1-4.6-1.61,5.65,5.65,0,0,1-1.74-4.3,5.55,5.55,0,0,1,1.74-4.29A6.55,6.55,0,0,1,200.48,448.77Zm-3.32,8.6a6,6,0,0,0,6.63,0,3.65,3.65,0,0,0,0-5.43,6.1,6.1,0,0,0-6.63,0,3.3,3.3,0,0,0-1.21,2.71A3.35,3.35,0,0,0,197.16,457.37Z"/><path d="M194.43,465.5v-2.15h12.09v2.1h-2.19a3.74,3.74,0,0,1,2.19,3.46v.93h-2v-.95a2.85,2.85,0,0,0-1.33-2.47,6.2,6.2,0,0,0-3.58-.92Z"/><path d="M206.52,482.69,202,477.94l-7.57,5.13v-2.56l6.14-4.11-2-2.15h-4.13V472.1h16.93v2.15H201.15l5.37,5.61Z"/><path d="M194.14,488.89a5.89,5.89,0,0,1,1.07-3.73,3.86,3.86,0,0,1,2.92-1.51l.32,2.15a3,3,0,0,0-2,.91,3.31,3.31,0,0,0-.63,2.18,3,3,0,0,0,.52,1.91,1.83,1.83,0,0,0,1.53.65c1,0,1.54-.71,1.74-2.12l.27-1.74a4.82,4.82,0,0,1,1.14-2.65,3,3,0,0,1,2.27-.92,3.11,3.11,0,0,1,2.53,1.24,6.11,6.11,0,0,1,0,6.62,4.22,4.22,0,0,1-2.76,1.53l-.29-2a3.08,3.08,0,0,0,1.78-1,3,3,0,0,0,.54-1.9,3,3,0,0,0-.47-1.79,1.45,1.45,0,0,0-1.22-.65,1.42,1.42,0,0,0-1.11.45,2.77,2.77,0,0,0-.56,1.43l-.32,1.94q-.58,3.68-3.46,3.67a3.46,3.46,0,0,1-2.8-1.26A5.26,5.26,0,0,1,194.14,488.89Z"/><path d="M130.27,398.08v-2.33H147.2v2.33h-7.3v8.49h7.3v2.29H130.27v-2.29h7.62v-8.49Z"/><path d="M132.07,422.77v.58h-1.8v-1.17a2.6,2.6,0,0,1,.46-1.59,1.65,1.65,0,0,1,1.25-.72,4.26,4.26,0,0,1-2-3.83,4.58,4.58,0,0,1,1-3.05,3.2,3.2,0,0,1,2.55-1.15,3.36,3.36,0,0,1,2.47.94,4.81,4.81,0,0,1,1.26,2.7l.6,3.53a.82.82,0,0,0,.87.76,2,2,0,0,0,1.6-.71,2.8,2.8,0,0,0,.62-1.93,3.18,3.18,0,0,0-.54-1.95,2.9,2.9,0,0,0-1.7-1l.24-2.05a4.14,4.14,0,0,1,2.7,1.65,5.5,5.5,0,0,1,1,3.42,4.84,4.84,0,0,1-1.16,3.42,4,4,0,0,1-3.08,1.24H133a1,1,0,0,0-.71.2A1,1,0,0,0,132.07,422.77Zm1.59-8.81a1.8,1.8,0,0,0-1.44.62,2.53,2.53,0,0,0-.52,1.71,3.25,3.25,0,0,0,1.1,2.52,4.11,4.11,0,0,0,2.84,1h.7l-.67-3.87a2.55,2.55,0,0,0-.67-1.46A1.88,1.88,0,0,0,133.66,414Z"/><path d="M138.11,435.86h-7.84v-2.14h7.45A3.26,3.26,0,0,0,140,433a2.75,2.75,0,0,0,.79-2.12,3,3,0,0,0-1-2.41,4.35,4.35,0,0,0-2.87-.83h-6.67v-2.15h12.09v2.11h-1.52a4.24,4.24,0,0,1,1.82,3.76,4.46,4.46,0,0,1-1.22,3.32A4.56,4.56,0,0,1,138.11,435.86Z"/><path d="M130,443.94a5,5,0,0,1,1.7-3.94,6.75,6.75,0,0,1,4.54-1.46,7.06,7.06,0,0,1,4.67,1.48,4.87,4.87,0,0,1,1.77,3.92,4.63,4.63,0,0,1-2,3.92h6.5V450H130.27v-2.1h1.82A4.55,4.55,0,0,1,130,443.94Zm6.34-3.2a5.18,5.18,0,0,0-3.26.95,3.08,3.08,0,0,0-1.22,2.56,3.28,3.28,0,0,0,1.22,2.66,5,5,0,0,0,3.26,1,5,5,0,0,0,3.26-1,3.27,3.27,0,0,0,1.24-2.65,3.07,3.07,0,0,0-1.23-2.56A5.19,5.19,0,0,0,136.32,440.74Z"/><path d="M136.94,463.54h-6.67v-2.15h7.45a3.38,3.38,0,0,0,2.27-.69,2.41,2.41,0,0,0,.8-1.94,2.69,2.69,0,0,0-1-2.25,4.54,4.54,0,0,0-2.87-.77h-6.67v-2.15h12.09v2.1h-1.47a4.05,4.05,0,0,1,1.77,3.55,4.59,4.59,0,0,1-.56,2.31,3.66,3.66,0,0,1-1.63,1.48,4.11,4.11,0,0,1,2.19,3.9,4.31,4.31,0,0,1-1.22,3.25,4.59,4.59,0,0,1-3.33,1.18h-7.84v-2.15h7.45a3.33,3.33,0,0,0,2.27-.7,2.42,2.42,0,0,0,.8-1.95,2.72,2.72,0,0,0-1-2.25A4.61,4.61,0,0,0,136.94,463.54Z"/><path d="M132.07,484.88v.58h-1.8v-1.17a2.66,2.66,0,0,1,.46-1.6A1.71,1.71,0,0,1,132,482a4.23,4.23,0,0,1-2-3.82,4.58,4.58,0,0,1,1-3,3.21,3.21,0,0,1,2.55-1.16,3.37,3.37,0,0,1,2.47.95,4.81,4.81,0,0,1,1.26,2.7l.6,3.53a.82.82,0,0,0,.87.76,2,2,0,0,0,1.6-.71,2.81,2.81,0,0,0,.62-1.94,3.18,3.18,0,0,0-.54-2,2.9,2.9,0,0,0-1.7-1l.24-2a4.14,4.14,0,0,1,2.7,1.65,5.5,5.5,0,0,1,1,3.42,4.83,4.83,0,0,1-1.16,3.41,4,4,0,0,1-3.08,1.25H133a1,1,0,0,0-.71.2A1,1,0,0,0,132.07,484.88Zm1.59-8.81a1.79,1.79,0,0,0-1.44.61,2.55,2.55,0,0,0-.52,1.71,3.26,3.26,0,0,0,1.1,2.53,4.15,4.15,0,0,0,2.84,1h.7l-.67-3.87a2.52,2.52,0,0,0-.67-1.46A1.88,1.88,0,0,0,133.66,476.07Z"/><path d="M130,492.22a5,5,0,0,1,1.7-3.94,6.75,6.75,0,0,1,4.54-1.46,7.06,7.06,0,0,1,4.67,1.48,4.87,4.87,0,0,1,1.77,3.92,4.63,4.63,0,0,1-2,3.92h6.5v2.15H130.27v-2.1h1.82A4.54,4.54,0,0,1,130,492.22Zm6.34-3.2a5.18,5.18,0,0,0-3.26,1,3.1,3.1,0,0,0-1.22,2.56,3.26,3.26,0,0,0,1.22,2.66,5,5,0,0,0,3.26,1,5,5,0,0,0,3.26-1,3.27,3.27,0,0,0,1.24-2.65,3.08,3.08,0,0,0-1.23-2.56A5.19,5.19,0,0,0,136.32,489Z"/><path d="M131.72,506.94a2.85,2.85,0,0,0,2.45,3.07l-.39,2a4.4,4.4,0,0,1-2.78-1.71,5.42,5.42,0,0,1-1-3.35,5.57,5.57,0,0,1,1.64-4.33,6.63,6.63,0,0,1,4.7-1.52,6.51,6.51,0,0,1,4.59,1.57,5.41,5.41,0,0,1,1.75,4.24,5,5,0,0,1-1.56,3.89,6.07,6.07,0,0,1-4.25,1.42h-1v-9C133.09,503.38,131.72,504.61,131.72,506.94Zm9.21-.1a3.28,3.28,0,0,0-.89-2.43,4.29,4.29,0,0,0-2.64-1.1V510C139.76,509.87,140.93,508.82,140.93,506.84Z"/><path d="M103.56,398.08v-2.33h16.93v6.69a6.06,6.06,0,0,1-1.5,4.25,4.93,4.93,0,0,1-3.8,1.64,5.46,5.46,0,0,1-4.06-1.67,5.78,5.78,0,0,1-1.62-4.22v-4.36ZM115.19,406a3.08,3.08,0,0,0,2.4-1,3.84,3.84,0,0,0,.94-2.69v-4.18h-7.06v4.18a3.69,3.69,0,0,0,1,2.7A3.64,3.64,0,0,0,115.19,406Z"/><path d="M105,415.7a2.86,2.86,0,0,0,2.45,3.07l-.39,2a4.38,4.38,0,0,1-2.78-1.71,5.39,5.39,0,0,1-1-3.34,5.6,5.6,0,0,1,1.64-4.34,6.68,6.68,0,0,1,4.7-1.52,6.51,6.51,0,0,1,4.59,1.57,5.44,5.44,0,0,1,1.75,4.24,5,5,0,0,1-1.56,3.9,6.11,6.11,0,0,1-4.25,1.41h-1V412C106.38,412.13,105,413.36,105,415.7Zm9.21-.11a3.35,3.35,0,0,0-.89-2.43,4.29,4.29,0,0,0-2.64-1.1v6.68C113.05,418.63,114.22,417.57,114.22,415.59Z"/><path d="M103.56,426V423.8h12.09v2.1h-2.19a3.74,3.74,0,0,1,2.19,3.46v.93h-2v-1a2.84,2.84,0,0,0-1.33-2.46,6.13,6.13,0,0,0-3.58-.92Z"/><path d="M103.27,436.75a5.89,5.89,0,0,1,1.07-3.73,3.86,3.86,0,0,1,2.92-1.51l.32,2.15a3,3,0,0,0-2,.91,3.31,3.31,0,0,0-.63,2.18,3,3,0,0,0,.52,1.91,1.83,1.83,0,0,0,1.53.65c1,0,1.54-.71,1.74-2.12l.27-1.74a4.82,4.82,0,0,1,1.14-2.65,3,3,0,0,1,2.27-.91,3.1,3.1,0,0,1,2.53,1.23,6.11,6.11,0,0,1,0,6.62,4.14,4.14,0,0,1-2.76,1.53l-.29-2a3.08,3.08,0,0,0,1.78-1,3,3,0,0,0,.54-1.9,3,3,0,0,0-.47-1.79,1.45,1.45,0,0,0-1.22-.65,1.42,1.42,0,0,0-1.11.45,2.77,2.77,0,0,0-.56,1.43l-.32,1.94q-.58,3.68-3.46,3.67a3.46,3.46,0,0,1-2.8-1.26A5.22,5.22,0,0,1,103.27,436.75Z"/><path d="M103.56,446.37v-2.15h12.09v2.15Zm14,0v-2.15h2.88v2.15Z"/><path d="M105.36,460v.58h-1.8v-1.17a2.69,2.69,0,0,1,.45-1.59,1.68,1.68,0,0,1,1.26-.72,4.23,4.23,0,0,1-2-3.83,4.5,4.5,0,0,1,1-3,3.21,3.21,0,0,1,2.55-1.16,3.38,3.38,0,0,1,2.47.94,4.84,4.84,0,0,1,1.26,2.71l.6,3.53a.81.81,0,0,0,.87.75,2,2,0,0,0,1.6-.7,2.83,2.83,0,0,0,.62-1.94,3.12,3.12,0,0,0-.55-1.95,2.85,2.85,0,0,0-1.69-1l.24-2a4.19,4.19,0,0,1,2.7,1.64,5.56,5.56,0,0,1,1,3.42,4.84,4.84,0,0,1-1.16,3.42,4,4,0,0,1-3.08,1.25h-5.45a1,1,0,0,0-.7.2A.92.92,0,0,0,105.36,460Zm1.59-8.8a1.78,1.78,0,0,0-1.44.61,2.55,2.55,0,0,0-.52,1.71,3.24,3.24,0,0,0,1.1,2.52,4.11,4.11,0,0,0,2.84,1h.7l-.67-3.87a2.53,2.53,0,0,0-.68-1.46A1.8,1.8,0,0,0,107,451.23Z"/><path d="M111.4,473.13h-7.84V471H111a3.21,3.21,0,0,0,2.27-.74,2.72,2.72,0,0,0,.8-2.12,3,3,0,0,0-1-2.41,4.35,4.35,0,0,0-2.87-.82h-6.67v-2.15h12.09v2.1h-1.52a4.26,4.26,0,0,1,1.82,3.77,4.42,4.42,0,0,1-1.23,3.31A4.49,4.49,0,0,1,111.4,473.13Z"/><path d="M81.23,407.85l-4.38.24v-2.3l4.4-.24a2.12,2.12,0,0,0,1.74-.83,4.25,4.25,0,0,0,.55-2.44v-4.2H76.85v-2.33H93.78v6.69a6.23,6.23,0,0,1-1.31,4.13,4.21,4.21,0,0,1-3.37,1.55,4.9,4.9,0,0,1-4.44-2.72A3.45,3.45,0,0,1,81.23,407.85Zm7.69-2.08a2.64,2.64,0,0,0,2.11-.94,3.85,3.85,0,0,0,.79-2.57v-4.18H85.48v4.16a3.51,3.51,0,0,0,1,2.55A3.34,3.34,0,0,0,88.92,405.77Z"/><path d="M88.94,419.24v2.15H76.85v-2.1h1.47a4.09,4.09,0,0,1-1.77-3.63,4.28,4.28,0,0,1,1.23-3.23,4.56,4.56,0,0,1,3.32-1.2h7.84v2.16H81.46a3.27,3.27,0,0,0-2.25.72,2.57,2.57,0,0,0-.79,2,2.82,2.82,0,0,0,1,2.32,4.5,4.5,0,0,0,2.87.8Z"/><path d="M77.57,429.49a4.91,4.91,0,0,1,1.58-3.83,7,7,0,0,1,8.45,0,4.76,4.76,0,0,1,1.63,3.8,4.42,4.42,0,0,1-1.77,3.74h1.48v2.1H77.4a5.23,5.23,0,0,1-3.89-1.42,5.36,5.36,0,0,1-1.42-4,6.15,6.15,0,0,1,1.08-3.81,4.08,4.08,0,0,1,3-1.62l.21,2.14a3,3,0,0,0-1.89,1,3.71,3.71,0,0,0-.6,2.25,3.1,3.1,0,0,0,.92,2.42,4,4,0,0,0,2.73.82h1.89A4.32,4.32,0,0,1,77.57,429.49Zm8.78-2.1a4.43,4.43,0,0,0-2.95-.9,4.38,4.38,0,0,0-2.94.9,3.1,3.1,0,0,0-1,2.5,3,3,0,0,0,1.1,2.42,4.94,4.94,0,0,0,5.77,0,3,3,0,0,0,1.14-2.4A3.08,3.08,0,0,0,86.35,427.39Z"/><path d="M76.55,443.16a5.89,5.89,0,0,1,1.08-3.73,3.87,3.87,0,0,1,2.91-1.51l.32,2.15a3,3,0,0,0-2,.91,3.26,3.26,0,0,0-.64,2.18,3.06,3.06,0,0,0,.52,1.91,1.87,1.87,0,0,0,1.54.65c1,0,1.54-.71,1.73-2.12l.27-1.74a4.93,4.93,0,0,1,1.15-2.65,3,3,0,0,1,2.27-.91,3.05,3.05,0,0,1,2.52,1.24,5.11,5.11,0,0,1,1,3.3,5.23,5.23,0,0,1-1,3.31,4.14,4.14,0,0,1-2.77,1.53l-.28-2a3.13,3.13,0,0,0,1.78-1,3.08,3.08,0,0,0,.53-1.91,3,3,0,0,0-.46-1.78,1.43,1.43,0,0,0-1.23-.65,1.38,1.38,0,0,0-1.1.44,2.69,2.69,0,0,0-.56,1.43l-.32,1.94c-.39,2.45-1.55,3.67-3.46,3.67a3.44,3.44,0,0,1-2.8-1.26A5.23,5.23,0,0,1,76.55,443.16Z"/><path d="M76.55,461.59a7,7,0,0,1,1.29-4.37,4.28,4.28,0,0,1,3.53-1.67,4,4,0,0,1,2.44.75,8.62,8.62,0,0,1,2.2,2.75,6.18,6.18,0,0,1,3.92-1.8,3.84,3.84,0,0,1,3,1.23,4.65,4.65,0,0,1,1.13,3.16,4.43,4.43,0,0,1-1,3,3.28,3.28,0,0,1-2.6,1.13,3.8,3.8,0,0,1-2.35-.8A10.43,10.43,0,0,1,85.8,462l-4.7,4.4a10.56,10.56,0,0,0,4.1.65l-.28,2.06a10.21,10.21,0,0,1-5.37-1.25l-2.7,2.53v-2.76l1.28-1.18A7.31,7.31,0,0,1,76.55,461.59Zm5-3.79a2.82,2.82,0,0,0-2.31,1.09,4.29,4.29,0,0,0-.88,2.77,5,5,0,0,0,1.11,3.57l5.38-5a6.26,6.26,0,0,0-1.55-1.86A2.91,2.91,0,0,0,81.51,457.8Zm10.91,3.82a2.17,2.17,0,0,0-.65-1.65,2.24,2.24,0,0,0-1.6-.62,3.57,3.57,0,0,0-1.5.32,7.51,7.51,0,0,0-1.74,1.3,10.3,10.3,0,0,0,1.81,2.18,2.55,2.55,0,0,0,1.63.6,2,2,0,0,0,1.51-.56A2.19,2.19,0,0,0,92.42,461.62Z"/><path d="M93.78,490.4,86.28,484l-9.43,6.6v-2.75l7.71-5.42-2.92-2.53H76.85v-2.33H93.78v2.33h-9.2l9.2,7.71Z"/><path d="M76.85,494.77v-2.15H88.94v2.15Zm14.05,0v-2.15h2.88v2.15Z"/><path d="M76.85,500.5v-2.15H93.78v2.15Z"/><path d="M76.85,506.22v-2.14H88.94v2.14Zm14.05,0v-2.14h2.88v2.14Z"/><path d="M83.52,519.76H76.85v-2.15H84.3a3.4,3.4,0,0,0,2.27-.69,2.45,2.45,0,0,0,.8-1.95,2.69,2.69,0,0,0-1-2.25,4.6,4.6,0,0,0-2.86-.77H76.85V509.8H88.94v2.1H87.46a4.07,4.07,0,0,1,1.77,3.56,4.49,4.49,0,0,1-.56,2.31,3.59,3.59,0,0,1-1.62,1.48,4.08,4.08,0,0,1,2.18,3.89A4.3,4.3,0,0,1,88,526.4a4.59,4.59,0,0,1-3.32,1.17H76.85v-2.15H84.3a3.4,3.4,0,0,0,2.27-.69,2.47,2.47,0,0,0,.8-2,2.67,2.67,0,0,0-1-2.25A4.53,4.53,0,0,0,83.52,519.76Z"/><path d="M76.55,535.31a5.94,5.94,0,0,1,1.08-3.74,3.87,3.87,0,0,1,2.91-1.51l.32,2.15a3,3,0,0,0-2,.92,3.24,3.24,0,0,0-.64,2.18,3,3,0,0,0,.52,1.9,1.85,1.85,0,0,0,1.54.66c1,0,1.54-.71,1.73-2.13l.27-1.73a4.89,4.89,0,0,1,1.15-2.65,3,3,0,0,1,2.27-.92,3.05,3.05,0,0,1,2.52,1.24,5.16,5.16,0,0,1,1,3.31,5.25,5.25,0,0,1-1,3.31,4.22,4.22,0,0,1-2.77,1.53l-.28-2A2.57,2.57,0,0,0,87.53,535a3,3,0,0,0-.46-1.78,1.45,1.45,0,0,0-1.23-.65,1.41,1.41,0,0,0-1.1.44,2.76,2.76,0,0,0-.56,1.44l-.32,1.94c-.39,2.44-1.55,3.67-3.46,3.67a3.42,3.42,0,0,1-2.8-1.27A5.22,5.22,0,0,1,76.55,535.31Z"/><polyline class="cls-3" points="87.42 156.77 161.04 156.77 95.61 259.35 169.48 259.35"/><polyline class="cls-3" points="282.32 259.35 210.76 259.35 210.51 156.77 282.32 156.77"/><line class="cls-3" x1="282.32" y1="208.06" x2="210.51" y2="208.06"/><polyline class="cls-3" points="395.16 259.35 323.35 259.35 323.35 156.77 395.16 156.77"/><line class="cls-3" x1="395.16" y1="208.06" x2="323.35" y2="208.06"/><polyline class="cls-3" points="508 259.35 436.19 259.35 436.19 156.77 508 156.77"/><line class="cls-3" x1="508" y1="208.06" x2="436.19" y2="208.06"/><polyline class="cls-3" points="620.84 146.51 620.84 259.35 616.4 259.35 553.55 156.77 549.03 156.77 549.03 269.61"/><line class="cls-4" x1="95.03" y1="906.87" x2="95.03" y2="881.32"/><line class="cls-4" x1="95.03" y1="891.97" x2="102.48" y2="891.97"/><line class="cls-4" x1="95.03" y1="891.97" x2="100.74" y2="886.25"/><line class="cls-4" x1="94.43" y1="899.42" x2="90.77" y2="899.42"/><path class="cls-4" d="M96.09,896.22a3.2,3.2,0,1,1,0,6.39"/><path class="cls-4" d="M98.22,884.51a3.2,3.2,0,0,0-6.39,0"/><path class="cls-4" d="M118.45,978.19a13.8,13.8,0,0,1,13.8-13.8h0a13.8,13.8,0,0,1,13.81,13.8"/><line class="cls-4" x1="131.22" y1="915.38" x2="107.8" y2="938.8"/><path class="cls-4" d="M113.13,917.51l-11.71,11.71v5.33H95V906.87h20.22A19.16,19.16,0,0,1,134.42,926v6.39h37.25a19.16,19.16,0,0,1,19.17,19.16v27.68h-83V922.84"/><polyline class="cls-4" points="190.84 972.87 170.61 972.87 170.61 932.42"/><path class="cls-4" d="M134.42,932.42h27.68a0,0,0,0,1,0,0v13.84a13.84,13.84,0,0,1-13.84,13.84h0a13.84,13.84,0,0,1-13.84-13.84V932.42a0,0,0,0,1,0,0Z"/><polyline class="cls-4" points="102.48 906.87 102.48 914.32 95.03 914.32"/><path class="cls-4" d="M107.8,993.09v9.59a10.65,10.65,0,0,0,10.65,10.64h0a10.64,10.64,0,0,0,10.64-10.64v-9.59"/><polyline class="cls-4" points="142.62 1014.07 150.38 1006.31 150.38 999.48"/><line class="cls-4" x1="118.45" y1="993.09" x2="118.45" y2="997.35"/><line class="cls-4" x1="150.38" y1="997.35" x2="150.38" y2="993.09"/><line class="cls-4" x1="129.09" y1="1016.51" x2="129.09" y2="1020.77"/><line class="cls-4" x1="133.35" y1="1020.77" x2="133.35" y2="1016.51"/><polyline class="cls-4" points="133.35 993.1 133.35 997.79 129.09 1002.05"/><polyline class="cls-4" points="137.61 993.1 137.61 999.92 129.09 1008.44"/><polyline class="cls-4" points="129.09 993.1 129.09 1013.32 130.6 1013.32 141.87 1002.05 141.87 993.1"/><polyline class="cls-5" points="57.77 948.38 66.53 948.38 58.59 961.16 67.35 961.16"/><polyline class="cls-5" points="80.13 961.16 71.61 961.16 71.61 948.38 80.13 948.38"/><line class="cls-5" x1="80.12" y1="954.77" x2="71.61" y2="954.77"/><polyline class="cls-5" points="92.9 961.16 84.38 961.16 84.38 948.38 92.9 948.38"/><line class="cls-5" x1="92.9" y1="954.77" x2="84.38" y2="954.77"/><polyline class="cls-5" points="80.13 979.26 71.61 979.26 71.61 966.48 80.13 966.48"/><line class="cls-5" x1="80.12" y1="972.87" x2="71.61" y2="972.87"/><polyline class="cls-5" points="92.9 965.42 92.9 979.26 92.44 979.26 84.84 966.48 84.38 966.48 84.38 980.32"/><path d="M166.18,1004h-3.24l-.7,1.83h-1l2.88-7.46h1l2.86,7.46h-1.12Zm-2.92-.85h2.6l-1.28-3.48Z"/><path d="M169.79,1005.87h-.95v-5.32h.93v1a1.65,1.65,0,0,1,1.52-1h.41v.89h-.42a1.25,1.25,0,0,0-1.08.58,2.67,2.67,0,0,0-.41,1.58Z"/><path d="M172.19,1001.33v-.78h.94v-1.72h1v1.72h1.34v.78h-1.34v3a.9.9,0,0,0,.14.59.67.67,0,0,0,.52.17h.81v.81h-1a1.48,1.48,0,0,1-1.09-.37,1.42,1.42,0,0,1-.37-1.07v-3.1Z"/><path d="M177.38,999.68h-.94v-1.27h.94Zm0,6.19h-.94v-5.32h.94Z"/><path d="M180.74,1006a2.64,2.64,0,0,1-1.64-.47,1.71,1.71,0,0,1-.66-1.29l.94-.14a1.32,1.32,0,0,0,.4.87,1.43,1.43,0,0,0,1,.28,1.33,1.33,0,0,0,.84-.23.79.79,0,0,0,.29-.67c0-.43-.31-.68-.93-.77l-.77-.12a2.18,2.18,0,0,1-1.17-.5,1.36,1.36,0,0,1-.4-1,1.33,1.33,0,0,1,.55-1.11,2.26,2.26,0,0,1,1.45-.43,2.32,2.32,0,0,1,1.46.42,1.83,1.83,0,0,1,.67,1.22l-.87.12a1.39,1.39,0,0,0-.43-.78,1.31,1.31,0,0,0-.84-.24,1.29,1.29,0,0,0-.78.21.65.65,0,0,0-.29.54.63.63,0,0,0,.2.49,1.24,1.24,0,0,0,.63.24l.85.14c1.08.17,1.62.68,1.62,1.52a1.54,1.54,0,0,1-.56,1.24A2.36,2.36,0,0,1,180.74,1006Z"/><path d="M183.25,1001.33v-.78h.93v-1.72h.95v1.72h1.34v.78h-1.34v3a.89.89,0,0,0,.15.59.66.66,0,0,0,.51.17h.81v.81h-1a1.46,1.46,0,0,1-1.08-.37,1.42,1.42,0,0,1-.38-1.07v-3.1Z"/><path d="M188.44,999.68h-.95v-1.27h.95Zm0,6.19h-.95v-5.32h.95Z"/><path d="M192.07,1005.19a1.33,1.33,0,0,0,1-.34,1.44,1.44,0,0,0,.44-.94l.93.11a2.15,2.15,0,0,1-.74,1.44,2.62,2.62,0,0,1-3.43-.21,3.39,3.39,0,0,1,0-4.06,2.32,2.32,0,0,1,1.83-.77,2.41,2.41,0,0,1,1.61.51,2.2,2.2,0,0,1,.75,1.45l-1,.1a1.3,1.3,0,0,0-1.4-1.25,1.33,1.33,0,0,0-1.12.52,2.37,2.37,0,0,0-.4,1.48,2.28,2.28,0,0,0,.4,1.44A1.35,1.35,0,0,0,192.07,1005.19Z"/><path d="M199.91,1005.08h.25v.79h-.51a1.18,1.18,0,0,1-.7-.2.74.74,0,0,1-.32-.56,1.86,1.86,0,0,1-1.68.89,2,2,0,0,1-1.35-.44,1.42,1.42,0,0,1-.5-1.12,1.45,1.45,0,0,1,.41-1.08,2.11,2.11,0,0,1,1.19-.56l1.56-.26a.37.37,0,0,0,.33-.39.9.9,0,0,0-.31-.7,1.29,1.29,0,0,0-.86-.28,1.36,1.36,0,0,0-.85.25,1.28,1.28,0,0,0-.44.74l-.9-.1a1.82,1.82,0,0,1,.73-1.19,2.43,2.43,0,0,1,1.5-.45,2.1,2.1,0,0,1,1.5.51,1.73,1.73,0,0,1,.55,1.35v2.4a.33.33,0,0,0,.4.4Zm-3.88-.7a.77.77,0,0,0,.27.63,1.14,1.14,0,0,0,.75.23,1.41,1.41,0,0,0,1.12-.49,1.84,1.84,0,0,0,.43-1.25v-.3l-1.71.29a1.16,1.16,0,0,0-.64.3A.8.8,0,0,0,196,1004.38Z"/><path d="M201.94,1005.87H201v-7.46h.95Z"/><path d="M204.35,1005.87h-.94v-7.46h.94Z"/><path d="M207.14,1006.37l.18-.47-2.1-5.35h1l1.58,4.18,1.59-4.18h1l-2.32,5.92a2.22,2.22,0,0,1-.72,1.07,1.8,1.8,0,0,1-1.1.3h-.55v-.8h.55a1,1,0,0,0,.59-.15A1.11,1.11,0,0,0,207.14,1006.37Z"/><path d="M214.53,1005.87h-1v-7.46h5.23v.88h-4.2v2.43h3.78v.87h-3.78Z"/><path d="M220.31,1005.87h-.95v-5.32h.93v1a1.64,1.64,0,0,1,1.52-1h.41v.89h-.42a1.25,1.25,0,0,0-1.09.58,2.74,2.74,0,0,0-.4,1.58Z"/><path d="M222.47,1003.21a2.88,2.88,0,0,1,.7-2,2.7,2.7,0,0,1,3.78,0,2.79,2.79,0,0,1,.72,2,2.85,2.85,0,0,1-.72,2,2.7,2.7,0,0,1-3.78,0A2.9,2.9,0,0,1,222.47,1003.21Zm3.79,1.46a2.27,2.27,0,0,0,.44-1.46,2.23,2.23,0,0,0-.44-1.46,1.61,1.61,0,0,0-2.39,0,2.69,2.69,0,0,0,0,2.92,1.46,1.46,0,0,0,1.19.53A1.48,1.48,0,0,0,226.26,1004.67Z"/><path d="M233,1002.93v2.94h-.95v-3.28a1.51,1.51,0,0,0-.3-1,1.05,1.05,0,0,0-.86-.35,1.19,1.19,0,0,0-1,.43,2.06,2.06,0,0,0-.34,1.26v2.94h-.94v-5.32h.92v.65a1.79,1.79,0,0,1,1.57-.78,2,2,0,0,1,1,.24,1.64,1.64,0,0,1,.66.72,1.79,1.79,0,0,1,1.71-1,1.91,1.91,0,0,1,1.43.53,2,2,0,0,1,.52,1.47v3.45h-.95v-3.28a1.51,1.51,0,0,0-.3-1,1.07,1.07,0,0,0-.86-.35,1.19,1.19,0,0,0-1,.43A2,2,0,0,0,233,1002.93Z"/><path d="M241,1005.87h-1v-7.46h1Z"/><path d="M243.41,1005.87h-.95v-5.32h.93v1a1.64,1.64,0,0,1,1.52-1h.41v.89h-.42a1.25,1.25,0,0,0-1.09.58,2.74,2.74,0,0,0-.4,1.58Z"/><path d="M250.39,1005.08h.26v.79h-.52a1.2,1.2,0,0,1-.7-.2.77.77,0,0,1-.32-.56,1.85,1.85,0,0,1-1.68.89,2,2,0,0,1-1.34-.44,1.4,1.4,0,0,1-.51-1.12,1.49,1.49,0,0,1,.41-1.08,2.11,2.11,0,0,1,1.19-.56l1.56-.26a.37.37,0,0,0,.33-.39.87.87,0,0,0-.31-.7,1.26,1.26,0,0,0-.85-.28,1.4,1.4,0,0,0-.86.25,1.28,1.28,0,0,0-.44.74l-.9-.1a1.85,1.85,0,0,1,.73-1.19,2.43,2.43,0,0,1,1.5-.45,2.14,2.14,0,0,1,1.51.51,1.76,1.76,0,0,1,.55,1.35v2.4a.48.48,0,0,0,.08.31A.44.44,0,0,0,250.39,1005.08Zm-3.88-.7a.77.77,0,0,0,.27.63,1.15,1.15,0,0,0,.76.23,1.41,1.41,0,0,0,1.11-.49,1.79,1.79,0,0,0,.43-1.25v-.3l-1.7.29a1.2,1.2,0,0,0-.65.3A.84.84,0,0,0,246.51,1004.38Z"/><path d="M255.89,1002.42v3.45h-.95v-3.28a1.45,1.45,0,0,0-.32-1,1.19,1.19,0,0,0-.93-.35,1.32,1.32,0,0,0-1.07.43,1.93,1.93,0,0,0-.36,1.26v2.94h-.94v-5.32h.92v.67a1.86,1.86,0,0,1,1.66-.8,2,2,0,0,1,1.46.53A2,2,0,0,1,255.89,1002.42Z"/><path d="M165.27,1014.38h-3.58v-5.21h3.51v.61h-2.79v1.65h2.49v.6h-2.49v1.74h2.86Z"/><path d="M168,1014.48a2.27,2.27,0,0,1-1.49-.46,1.59,1.59,0,0,1-.57-1.24l.7-.09a1.19,1.19,0,0,0,.38.89,1.46,1.46,0,0,0,1,.31,1.21,1.21,0,0,0,.81-.26.84.84,0,0,0,.3-.68.68.68,0,0,0-.21-.53,1.52,1.52,0,0,0-.72-.3l-.69-.15a2.07,2.07,0,0,1-1-.51,1.39,1.39,0,0,1,.14-2,1.85,1.85,0,0,1,1.27-.42,2,2,0,0,1,1.31.4,1.62,1.62,0,0,1,.56,1.11l-.71.09a1,1,0,0,0-1.16-1,1.19,1.19,0,0,0-.78.22.76.76,0,0,0-.27.61.73.73,0,0,0,.2.55,1.27,1.27,0,0,0,.65.29l.81.18a2.06,2.06,0,0,1,1,.48,1.26,1.26,0,0,1,.33.92,1.42,1.42,0,0,1-.5,1.12A2,2,0,0,1,168,1014.48Z"/><path d="M170.11,1009.17h4v.61h-1.62v4.6h-.71v-4.6h-1.63Z"/><path d="M178.66,1010.55a.81.81,0,0,0-.24-.62.93.93,0,0,0-.67-.24,1,1,0,0,0-.84.36,1.6,1.6,0,0,0-.27,1.05L176,1011a1.73,1.73,0,0,1,.45-1.41,1.76,1.76,0,0,1,1.34-.52,1.67,1.67,0,0,1,1.19.41,1.41,1.41,0,0,1,.44,1.06,1.93,1.93,0,0,1-.26.94,4.84,4.84,0,0,1-.86,1l-1.4,1.28h2.66v.59h-3.58v-.61l1.88-1.72a3,3,0,0,0,.65-.77A1.42,1.42,0,0,0,178.66,1010.55Z"/><path d="M180.22,1011.78a3.4,3.4,0,0,1,.51-2,1.69,1.69,0,0,1,1.44-.72,1.66,1.66,0,0,1,1.44.72,4,4,0,0,1,0,4,1.79,1.79,0,0,1-2.88,0A3.35,3.35,0,0,1,180.22,1011.78Zm2.88,1.55a3.12,3.12,0,0,0,.32-1.55,3.16,3.16,0,0,0-.32-1.56,1,1,0,0,0-.93-.54,1,1,0,0,0-.92.55,3.2,3.2,0,0,0-.32,1.55,3,3,0,0,0,.32,1.55,1,1,0,0,0,.92.55A1,1,0,0,0,183.1,1013.33Z"/><path d="M188.15,1014.38h-3.24v-.59h1.27v-3.35a1.12,1.12,0,0,1-.59.13h-.7V1010h.65a.61.61,0,0,0,.5-.2,1,1,0,0,0,.17-.62h.68v4.62h1.26Z"/><path d="M191.56,1012.86a.85.85,0,0,0-.26-.66,1.17,1.17,0,0,0-.76-.23h-.47v-.54h.44a.9.9,0,0,0,.66-.25,1,1,0,0,0,.23-.69.74.74,0,0,0-.26-.6,1,1,0,0,0-.68-.22,1.06,1.06,0,0,0-.79.29,1.12,1.12,0,0,0-.31.8l-.65-.15a1.41,1.41,0,0,1,.5-1.1,1.87,1.87,0,0,1,1.26-.43,1.77,1.77,0,0,1,1.19.37,1.25,1.25,0,0,1,.44,1,1.35,1.35,0,0,1-.19.73,1.26,1.26,0,0,1-.54.48,1.32,1.32,0,0,1,.67.46,1.23,1.23,0,0,1,.23.74,1.54,1.54,0,0,1-.48,1.18,1.9,1.9,0,0,1-1.31.44,2.21,2.21,0,0,1-1.34-.39,1.45,1.45,0,0,1-.58-1.07l.71-.16a1.11,1.11,0,0,0,.35.76,1.23,1.23,0,0,0,.84.27,1.13,1.13,0,0,0,.81-.28A1,1,0,0,0,191.56,1012.86Z"/></g></svg>