<svg xmlns="http://www.w3.org/2000/svg" viewBox="0 0 1920 1080"><defs><style>.cls-1{font-size:150px;}.cls-1,.cls-2{font-family:Approach-Bold, Approach;font-weight:700;}.cls-2{font-size:130px;}</style></defs><g id="Isolation_Mode" data-name="Isolation Mode"><path d="M151.43,264.81H112.76v-168h38.67v65h65v-65h38.67V264.81H216.47V195h-65Z"/><path d="M405.38,264.81H288.66v-168H402.91v32.7H327.33V163.8h66v32.11h-66v36.21h78.05Z"/><path d="M531.94,236H465.73l-10.08,28.83h-38.2L478,96.76h44.06l60.47,168.05H542Zm-55.2-31.87h44.18l-22-64.1Z"/><path d="M675.38,264.81H601.66v-168h73.72q38.77,0,61.64,22.15T759.87,178q0,38.67-23.09,62.81T675.38,264.81ZM720.49,178q0-22.15-12.19-35.34t-32.92-13.18h-35V232.12h35q20.26,0,32.69-14.89Q720.49,202.71,720.49,178Z"/><path d="M824.32,264.81H785.65v-168h38.67Z"/><path d="M894.63,264.81H857.84v-168h41.6L963,196.37V96.76h36.8V264.81h-33.4l-71.72-112Z"/><path d="M1106.74,267.74q-36.56,0-59.06-23.55-22-23.79-22-62.46,0-39.27,23.55-63.52T1111.78,94q29.29,0,49.51,14t26.78,38.73l-37.15,6.79Q1140.61,127,1111.78,127q-22,0-34.39,14.59T1065,181.73q0,24.6,12.37,38.73t34.16,14.12q18.51,0,30-9.32T1153,200.94h-39.84V171.88h74.41v92.93h-34.1V248.76Q1135.92,267.74,1106.74,267.74Z"/><path d="M1338.89,145.51q0-8.67-5.16-13.71t-14.29-5q-13,0-19.34,10.08T1296,165l-38.2-5.28q-2.11-30.69,15.11-48.28Q1290.37,93.95,1321.2,94q26.13,0,41.48,14,15.58,14.17,15.59,36,0,32.12-37.62,63l-30.24,25.2h74.07v32.69H1257.8v-30.7L1315.92,184q12.42-10.77,17.7-19.63A36.15,36.15,0,0,0,1338.89,145.51Z"/><path d="M142.19,480.15H110v-140h32.23v54.2h54.2v-54.2h32.23v140H196.39V422h-54.2Z"/><path d="M353.81,480.15H256.55v-140h95.21v27.25h-63V396h55v26.76h-55V452.9h65Z"/><path d="M459.28,456.13H404.11l-8.4,24H363.87l50.49-140h36.72l50.39,140H467.68Zm-46-26.57H450.1l-18.36-53.41Z"/><path d="M578.81,480.15H517.39v-140h61.42q32.33,0,51.37,18.46t19,49.22q0,32.22-19.24,52.34T578.81,480.15Zm37.6-72.36q0-18.46-10.16-29.45t-27.44-11h-29.2V452.9h29.2q16.89,0,27.25-12.4Q616.41,428.4,616.41,407.79Z"/><path d="M702.93,480.15H670.71v-140h32.22Z"/><path d="M761.53,480.15H730.86v-140h34.67l52.93,83v-83h30.66v140H821.29l-59.76-93.36Z"/><path d="M938.29,482.59q-30.48,0-49.22-19.63-18.36-19.81-18.36-52,0-32.71,19.63-52.93t52.14-20.21q24.42,0,41.26,11.67t22.32,32.27l-31,5.67q-8.6-22.08-32.62-22.07-18.36,0-28.66,12.16t-10.3,33.44q0,20.5,10.3,32.28T942.29,455q15.42,0,25-7.77a24.84,24.84,0,0,0,9.57-20.26h-33.2V402.71h62v77.44H977.25V466.77Q962.6,482.6,938.29,482.59Z"/><path d="M1131.74,380.74q0-7.23-4.29-11.43t-11.92-4.2q-10.85,0-16.11,8.4T1096,397l-31.84-4.4q-1.76-25.57,12.6-40.23,14.55-14.55,40.24-14.55,21.76,0,34.57,11.62,13,11.82,13,30,0,26.76-31.34,52.54l-25.2,21h61.72v27.25H1064.16V454.56l48.44-41.79q10.35-9,14.75-16.36A30.09,30.09,0,0,0,1131.74,380.74Z"/><path d="M135.26,665.1H107.87v-119h27.39v46.07h46.07V546.07h27.39v119H181.33V615.63H135.26Z"/><path d="M315.14,665.1H232.46v-119H313.4v23.16H259.86v24.32h46.73V616.3H259.86V642h55.28Z"/><path d="M404.79,644.68h-46.9l-7.14,20.42H323.69l42.92-119h31.21l42.83,119H411.93Zm-39.1-22.57H397L381.38,576.7Z"/><path d="M506.39,665.1H454.18v-119h52.21q27.48,0,43.66,15.69t16.19,41.84q0,27.39-16.35,44.49T506.39,665.1Zm32-61.5q0-15.69-8.64-25t-23.32-9.34H481.57V642h24.82q14.36,0,23.16-10.55Q538.34,621.11,538.35,603.6Z"/><path d="M611.89,665.1H584.5v-119h27.39Z"/><path d="M661.7,665.1H635.63v-119H665.1l45,70.56V546.07h26.07v119H712.5l-50.8-79.35Z"/><path d="M811.94,667.18q-25.89,0-41.83-16.68-15.61-16.86-15.61-44.25,0-27.81,16.69-45t44.32-17.18q20.75,0,35.07,9.92a46.84,46.84,0,0,1,19,27.43l-26.31,4.82q-7.31-18.76-27.73-18.76-15.6,0-24.36,10.33t-8.76,28.43q0,17.43,8.76,27.44t24.2,10q13.11,0,21.25-6.6a21.13,21.13,0,0,0,8.13-17.22H816.51V599.28h52.71V665.1H845.06V653.73Q832.61,667.19,811.94,667.18Z"/><path d="M976.38,580.6q0-6.14-3.65-9.71t-10.13-3.57q-9.21,0-13.7,7.14T946,594.38l-27.06-3.73q-1.5-21.75,10.71-34.2,12.36-12.37,34.2-12.37,18.51,0,29.38,9.88,11,10,11,25.48,0,22.74-26.65,44.66L956.21,642h52.46V665.1H918.94V643.36l41.17-35.53q8.8-7.64,12.53-13.9A25.62,25.62,0,0,0,976.38,580.6Z"/><text class="cls-1" transform="translate(96 832.88)">HEADING 2</text><text class="cls-2" transform="translate(96 984)">HEADING 2</text></g></svg>