<svg id="Graphics" xmlns="http://www.w3.org/2000/svg" viewBox="0 0 1920 1080"><defs><style>.cls-1{fill:#fff;}.cls-2{fill:#4672e2;}</style></defs><path class="cls-1" d="M1479.9,338.74H1612V385.2h-34.65V745.87h-68.75L1319.3,408.29V699.68h41.9v46.19H1229.07V699.68h37.6V385.2H1228v-47h109.58L1523.4,672.55l2.15-12.89V385.2H1479.9Z"/><path class="cls-1" d="M736.06,640.14l6,105.73H686.48l-5.7-106.3q-1.71-28.79-20.24-42t-58.7-13.25H500.39V745.87H444.25V337.21H605.54q62.13,0,99.75,31.63,37.32,31.37,37.33,81.22,0,35.06-17.24,63.13t-48.31,44Q732.65,575.45,736.06,640.14ZM685.91,454.62q0-31.9-22.66-51t-62-19.09H500.39v153H600.7q37.89,0,61.55-23.23T685.91,454.62Z"/><path class="cls-2" d="M387.63,745.87q-36.76,0-56-15.76t-29.19-48.44a109,109,0,0,1-30.64,14,128.3,128.3,0,0,1-36.47,5.25q-26.26,0-42.32-14.88t-16.05-41.73q0-33.84,21.89-62.74t71.49-57.49l-7-29.77L310,459.89,338,605.8q4.07,21,7.58,35T355,663.28a31.39,31.39,0,0,0,15.47,12q9.63,3.5,25.38,3.5h8.76v67.12ZM279.08,576a171.38,171.38,0,0,0-20.43,10.8,164,164,0,0,0-18.09,12.84,84.32,84.32,0,0,0-13.72,14q-5.55,7.3-6.71,14.29,0,6.43,6.42,9.63t16.34,3.21A83.8,83.8,0,0,0,256,639.65a117.38,117.38,0,0,0,14.29-3.21,73.39,73.39,0,0,0,12.26-4.67,47,47,0,0,0,8.17-5Z"/><path class="cls-2" d="M583.14,745.87a142.16,142.16,0,0,1-42.31-6.42,114.46,114.46,0,0,1-37.64-19.85,139.6,139.6,0,0,1-38.52,19.85q-19.85,6.42-36.19,6.42H404.55q-6.41,0-10.5-9T390,712.6q0-15.17,4.09-24.51t10.5-9.34h14q9.33,0,16.63-.58a161.24,161.24,0,0,0,16.64-2.34,94.07,94.07,0,0,1-11.38-24.22,81.43,81.43,0,0,1-3.8-23.64,84.14,84.14,0,0,1,7.88-35.31A119,119,0,0,1,465,561.73a106.6,106.6,0,0,1,28.31-22.18q15.75-8.44,30.93-8.46a50.5,50.5,0,0,1,26.26,7.3,70.76,70.76,0,0,1,21,19.26,100.09,100.09,0,0,1,14,27.72,102.69,102.69,0,0,1,5.25,32.68,91.72,91.72,0,0,1-5.25,29.48Q580.23,663,565.64,677q9.92,1.17,18.09,1.46c5.44.2,11.09.29,16.92.29h15.76v67.12ZM485.68,496.66l-42.61-35.6,33.85-40.27,43.19,35ZM519,594.12a27.55,27.55,0,0,0-12.26,3.21A53.63,53.63,0,0,0,495,605.21a41.46,41.46,0,0,0-8.47,10.22,20.69,20.69,0,0,0-3.21,10.21q0,9.35,7.3,20.14a68.16,68.16,0,0,0,17.22,17.8q16.92-8.18,26.55-18.39T544,628.56a36.17,36.17,0,0,0-2-11.38,42.36,42.36,0,0,0-5.55-11.09,41.19,41.19,0,0,0-7.87-8.46A15.05,15.05,0,0,0,519,594.12Zm41.43-97.46-42.6-35.6,33.85-40.27,42.6,35Z"/><path class="cls-2" d="M779.82,745.87q-23.34,0-39.68-7.59t-27.43-25.1Q700.44,730.12,683.52,738t-42,7.88H616.41q-6.42,0-10.51-9t-4.08-24.22q0-15.17,4.08-24.51t10.51-9.34h23.93a165.32,165.32,0,0,0,24.22-1.46q9.63-1.45,15.75-5.84a25.41,25.41,0,0,0,9.05-12.25q2.91-7.87,3.5-20.14V614.55l48.44-12.26q0,21.6,1.46,36.19t6.13,23.64A26.9,26.9,0,0,0,762.31,675q8.76,3.79,23.93,3.79h27.43v67.12ZM674.19,863.18,631.58,827l33.85-40.27,43.19,35.6Zm74.7,0L706.29,827l33.85-40.27,42.6,35.6Z"/><path class="cls-2" d="M950.82,745.87q-21.59,0-35.3-8.17a60,60,0,0,1-21.89-22.76q-21.6,30.93-59,30.93h-21q-6.42,0-10.5-8.76t-4.09-23.93q0-15.16,4.09-24.51t10.5-9.34h15.18q24.51,0,32.39-9.92t7.88-30.93q0-5.25-.3-22.76T868,565.23q-.59-33-1.75-82.58t-2.92-119.06l54.86-26.26V595.87q0,23.36,1.46,39.4T924.85,661q3.79,9.63,11.09,14t19.55,4.37h22.18v66.54Z"/><path class="cls-2" d="M1208.78,710.27a82.08,82.08,0,0,1-26.84,26.26q-15.76,9.35-40.86,9.34t-40.56-7.3q-15.46-7.29-26.56-27.72-11.67,18.69-27.72,26.85a73,73,0,0,1-33.56,8.17h-35q-6.42,0-10.51-9t-4.08-24.22q0-15.17,4.08-24.51t10.51-9.34h32.68q17.5,0,30.64-6.71t13.13-23.64V614.55l48.44-12.26q0,21.6,1.46,36.19t5.84,23.64q4.38,9,12.25,12.84t20.72,3.79q14,0,23.06-2.63t13.71-7.88a29.09,29.09,0,0,0,6.42-13.71,100.46,100.46,0,0,0,1.75-20.14V614.55l47.86-12.26q0,39.71,7.3,58.08t31.22,18.38q34.42,0,34.43-14.59,0-3.51-2.62-10.51a119.12,119.12,0,0,0-7.3-15.46q-4.68-8.46-10.79-17.8t-13.14-18.1l43.19-46.1q22.17,26.26,32.69,54t10.5,49.9a94.21,94.21,0,0,1-6.42,35.31,75.5,75.5,0,0,1-18.09,27.14,83.16,83.16,0,0,1-27.43,17.22,96,96,0,0,1-35,6.13Q1226.87,745.87,1208.78,710.27Z"/><path class="cls-2" d="M1523.36,745.87q-27.45,0-43.77-10.22a69.17,69.17,0,0,1-25.1-26.84,113.81,113.81,0,0,1-11.67-37.94,393.67,393.67,0,0,1-3.5-43.48q-1.18-26.83-1.76-60.11T1436.11,499q-.88-35-2.34-70T1430,363.59l54.27-26.26q0,32.69.3,67.41t1.16,69.16q.88,34.44,1.75,68.28t1.46,64.2q0,14,.59,27.14a83.14,83.14,0,0,0,4.08,23.34,32.41,32.41,0,0,0,11.38,16q7.89,5.85,23.64,5.84H1552v67.12Z"/><path class="cls-2" d="M1571.8,866.68l-44.36-37.94,35.6-42,44.36,37.35ZM1625.49,663q0-3.5-2.63-9.92a121,121,0,0,0-7.58-14.88q-5-8.46-11.09-17.8t-13.13-18.1l43.77-46.1q22.17,26.26,32.68,54t10.51,49.9q0,42-23.35,63.91t-71.78,21.89H1552q-6.4,0-10.5-9t-4.09-24.22q0-15.17,4.09-24.51t10.5-9.34h30.94q19.26,0,30.93-3.79T1625.49,663Z"/><path class="cls-1" d="M367.59,745.87H311.45V337.21h56.14Z"/><path class="cls-1" d="M1076.78,699.68h33.83l-32.22-92.39H921.82L890.4,699.68h41.89v46.19H800.17V699.68h35.44L962.37,338.74h79.23l126.49,360.94h40.82v46.19H1076.78Zm-139.65-137h125.68L999.43,380.63Z"/></svg>