<svg id="Graphics" xmlns="http://www.w3.org/2000/svg" viewBox="0 0 1920 1080"><defs><style>.cls-1{fill:#fff;}</style></defs><path class="cls-1" d="M392,167.87q0,8.59-4.14,14.38a15.08,15.08,0,0,1-13,6.56q-10.23,0-14.61-8-4.61,8-14.53,8-7,0-10.86-3.91c.1,1.2.16,2.4.16,3.6q0,18.28-11.64,29.22-11.34,10.69-29.69,10.7-15.32,0-24.69-9.1T259.61,195a46.52,46.52,0,0,1,7.1-24.14l7.74,2.89a35.57,35.57,0,0,0-3.71,9.14,37.33,37.33,0,0,0-1.68,9.69q0,24.3,26.48,24.3,12.27,0,20.94-6.17A21.73,21.73,0,0,0,326.17,192q0-11.87-7.5-23.75l9.14-7.81q4,8.06,6.72,11.33,4.53,5.39,10.54,5.39,6.65,0,9.14-3.13,2.27-2.73,2.27-9.6v-1.88l7.58-2.73v1.25q0,16.1,11.25,16.09,7.81,0,7.81-8,0-3.19-4.61-9.84l7.5-8.52A26.22,26.22,0,0,1,392,167.87Z"/><path class="cls-1" d="M463.37,173q0,13.91-16.17,28.44a103.56,103.56,0,0,1-25.08,16.72L414,211.94a157.19,157.19,0,0,0,26.49-18.13Q454,182.1,454,174.51t-7.11-17.57l8.21-8.21Q463.37,160.54,463.37,173Zm-2.27-42.19-6.72,8.83-9.76-7-6.49,8.28L428.6,134l7-8.82,9.37,6.87,6.41-8.12Zm-10.31-13.67-6.64,8.75L434.46,119l6.88-8.52Z"/><path class="cls-1" d="M530.88,173q0,13.91-16.17,28.44a103.56,103.56,0,0,1-25.08,16.72l-8.12-6.17A157.49,157.49,0,0,0,508,193.81q13.51-11.72,13.52-19.3t-7.11-17.57l8.2-8.21Q530.88,160.54,530.88,173Zm-10.16-43.2-7.57,10L502.91,133l7.5-10.23Z"/><path class="cls-1" d="M598.39,173q0,13.91-16.17,28.44a103.18,103.18,0,0,1-25.08,16.72L549,211.94a157.49,157.49,0,0,0,26.48-18.13Q589,182.1,589,174.51t-7.11-17.57l8.2-8.21Q598.39,160.54,598.39,173Z"/><path class="cls-1" d="M677.39,167.48q0,14.29-12.11,19.22a35.08,35.08,0,0,1-7.93,1.91,87,87,0,0,1-13,.83q-11.4,0-17.89-6.72l5.24-9q4.53,3.44,13.2,3.44a103.64,103.64,0,0,0,11.17-.51,32.46,32.46,0,0,0,7.46-1.56,10,10,0,0,0,4.14-2.54A5.19,5.19,0,0,0,669,169q0-11.4-22.65-26.09l4.76-11.72a66,66,0,0,1,16.88,14.22Q677.39,156.55,677.39,167.48Zm-23-57.26-7.58,10-10.23-6.8,7.5-10.23Z"/><path class="cls-1" d="M759.75,167.48q0,14.29-12.11,19.22a35.22,35.22,0,0,1-7.93,1.91,87.13,87.13,0,0,1-13,.83q-11.41,0-17.89-6.72l5.23-9q4.53,3.44,13.21,3.44a103.9,103.9,0,0,0,11.17-.51,32.46,32.46,0,0,0,7.46-1.56,10,10,0,0,0,4.14-2.54,5.19,5.19,0,0,0,1.29-3.52q0-11.4-22.66-26.09l4.77-11.72a65.75,65.75,0,0,1,16.87,14.22Q759.74,156.55,759.75,167.48Z"/><path class="cls-1" d="M873,244a107.62,107.62,0,0,1-32.26,5.39q-21.65,0-34.3-8-15.31-9.69-15.31-30.08,0-17,13.67-30.7,10.86-10.86,28.2-18.05Q814.06,157,811.17,157q-5.16,0-9.61,7.43l-7.5-3.29q6.72-15.85,15.93-15.86,6.81,0,22.5,4.69t24.77,4.69q4.07,0,8.28-.39l-3,11.72a68.79,68.79,0,0,0-22.73,3.75q-15.71,5.7-25.86,14.84-12.81,11.64-12.81,25.86,0,27.35,42.65,27.34a87.05,87.05,0,0,0,26.1-3.67ZM838,124.44l-7.58,10-10.23-6.8,7.5-10.24Z"/><path class="cls-1" d="M980.55,243.73a107.3,107.3,0,0,1-32.26,5.39q-21.64,0-34.3-8-15.32-9.68-15.31-30.07,0-17,13.67-30.71,10.86-10.86,28.2-18-18.9-5.55-21.79-5.55-5.16,0-9.61,7.42l-7.5-3.28q6.71-15.85,15.93-15.86,6.81,0,22.5,4.69t24.77,4.69q4.06,0,8.28-.4l-3,11.72a69.31,69.31,0,0,0-22.73,3.75q-15.7,5.72-25.86,14.85Q908.76,196,908.76,210.22q0,27.35,42.65,27.34a87,87,0,0,0,26.1-3.67Z"/><path class="cls-1" d="M1088.14,243.73a107.3,107.3,0,0,1-32.26,5.39q-21.64,0-34.3-8-15.32-9.68-15.31-30.07,0-17,13.67-30.71,10.86-10.86,28.2-18-18.9-5.55-21.79-5.55-5.16,0-9.61,7.42l-7.5-3.28q6.72-15.85,15.93-15.86,6.81,0,22.5,4.69t24.77,4.69q4.07,0,8.28-.4l-3,11.72a69.31,69.31,0,0,0-22.73,3.75q-15.7,5.72-25.86,14.85-12.81,11.64-12.81,25.86,0,27.35,42.65,27.34a87,87,0,0,0,26.1-3.67ZM1036,202.48l6.25-8.2,9.06,6.56,6.09-7.65,9,6.32-6.57,8.21-8.67-6.41-6.09,7.5Zm10.54,14.61,5.86-8,8.91,6.57-6.1,7.73Z"/><path class="cls-1" d="M1195.73,243.81a107.62,107.62,0,0,1-32.26,5.39q-21.65,0-34.3-8-15.32-9.69-15.31-30.08,0-17,13.67-30.7,10.86-10.86,28.2-18-18.9-5.53-21.79-5.54-5.16,0-9.61,7.42l-7.5-3.28q6.72-15.85,15.94-15.86,6.8,0,22.5,4.69t24.76,4.68q4.07,0,8.28-.39l-3,11.72a69.31,69.31,0,0,0-22.73,3.75q-15.7,5.7-25.86,14.85-12.81,11.64-12.81,25.85,0,27.35,42.65,27.35a87.28,87.28,0,0,0,26.1-3.67ZM1165,204.12l-7.57,10-10.24-6.79,7.5-10.24Z"/><path class="cls-1" d="M1334.11,167q0,13.83-25,20.32-18.36,4.75-44.46,4.76-21.64,0-31.09-4.76-10.63-5.4-10.63-18.44a24.27,24.27,0,0,1,4.85-14.77l7.34,2.27a21.16,21.16,0,0,0-3,10.15q0,9.3,11.88,12.27,5.85,1.49,19.22,1.48h3.82a238.74,238.74,0,0,0,32.11-2.5q26.64-3.66,26.64-10.15,0-5.62-7-13.52l7.19-9.14Q1334.1,155.38,1334.11,167Zm-41.72-36.09-6.72,8.83-9.77-7-6.48,8.28-9.53-6.8,6.95-8.83,9.37,6.88,6.41-8.13Zm-10.32-13.67-6.64,8.75-9.68-6.88,6.87-8.51Z"/><path class="cls-1" d="M1478,167q0,13.83-25,20.32-18.36,4.75-44.46,4.76-21.63,0-31.09-4.76-10.62-5.4-10.62-18.44a24.26,24.26,0,0,1,4.84-14.77l7.34,2.27a21.16,21.16,0,0,0-3,10.15q0,9.3,11.88,12.27,5.87,1.49,19.22,1.48h3.83a238.86,238.86,0,0,0,32.11-2.5q26.64-3.66,26.64-10.15,0-5.62-7-13.52l7.19-9.14Q1477.94,155.38,1478,167Zm-46.41-39.37-6.8,8.67-8.82-6.56-6.33,7.81-9.46-6.72,7.19-8.83,8.52,6.41,6.17-7.5Z"/><path class="cls-1" d="M1621.79,167q0,13.83-25,20.32-18.36,4.75-44.46,4.76-21.63,0-31.09-4.76-10.62-5.4-10.62-18.44a24.26,24.26,0,0,1,4.84-14.77l7.34,2.27a21.16,21.16,0,0,0-3,10.15q0,9.3,11.88,12.27,5.86,1.49,19.22,1.48h3.83a238.86,238.86,0,0,0,32.11-2.5q26.63-3.66,26.64-10.15,0-5.62-7-13.52l7.19-9.14Q1621.78,155.38,1621.79,167Zm-71.33,48.44,6.25-8.2,9.06,6.56,6.1-7.66,9,6.33-6.56,8.21-8.67-6.41-6.1,7.5ZM1561,230.06l5.86-8,8.9,6.56-6.09,7.74Z"/><path class="cls-1" d="M1765.63,167q0,13.83-25,20.32-18.36,4.75-44.46,4.76-21.63,0-31.09-4.76-10.62-5.4-10.62-18.44a24.26,24.26,0,0,1,4.84-14.77l7.34,2.27a21.16,21.16,0,0,0-3,10.15q0,9.3,11.88,12.27,5.87,1.49,19.22,1.48h3.83a238.86,238.86,0,0,0,32.11-2.5q26.64-3.66,26.64-10.15,0-5.62-7-13.52l7.19-9.14Q1765.64,155.38,1765.63,167Zm-52.19,44.69-7.58,10-10.23-6.8,7.5-10.23Z"/><path class="cls-1" d="M1833.45,73.5a22.64,22.64,0,0,1-7.34,7.26,18.18,18.18,0,0,1-9.84,3.13,55.69,55.69,0,0,1-8.79-1,56.62,56.62,0,0,0-8.71-1,16.17,16.17,0,0,0-9.85,3.67l-4.76-5.63q6.09-6.56,13-6.56a58.63,58.63,0,0,1,8.44.9,58.8,58.8,0,0,0,8.52.9q8.74,0,16.25-6.88Zm-20.86,113.12-7.89,2.19-2.5-95.08,10.39-4Z"/><path class="cls-1" d="M201.19,355.65q0,3.68-3.43,9.69-3.75,6.5-7.19,6.49c-1,0-2.52-.06-4.57-.16s-4.22-.23-6.49-.39-4.42-.29-6.48-.39-3.58-.16-4.57-.16q-7.74,0-10.16,4.92-1.71,3.36-1.72,12.89v55.55h-8.75l-.78-55.39q0-12.57,3.52-19.8a17.18,17.18,0,0,1,11.25-9.42,47.21,47.21,0,0,1,.94-9.57,30.68,30.68,0,0,1,2.69-8,17.56,17.56,0,0,1,4.18-5.43,8.21,8.21,0,0,1,5.39-2q7.89,0,17.11,7.81Q201.19,350,201.19,355.65Zm-11,1.57q0-2.27-4.46-6.41-5.24-4.77-9.21-4.77a3.85,3.85,0,0,0-2.39.82,8.2,8.2,0,0,0-1.87,2.11,10,10,0,0,0-1.25,3,14,14,0,0,0-.43,3.44,13.32,13.32,0,0,0,.31,3.05l3.2.23c1.41.11,2.84.22,4.3.35s2.81.24,4.06.31,2.09.12,2.5.12Q190.18,359.48,190.18,357.22Z"/><path class="cls-1" d="M299.49,351q0,21.48-6.56,32.26Q284.56,397,264.49,397q-15.31,0-23.63-8.55t-8.32-23.79a48.57,48.57,0,0,1,1.87-12,43.51,43.51,0,0,1,4.38-11.25l7.65,2.65q-4.6,9.38-4.61,17.27,0,24.14,24.14,24.14t24.22-31.09q0-6.65-1.87-68.05l11.17-4.61Z"/><path class="cls-1" d="M455.83,288.78,454.27,301q-13.53,5.16-28.6,12.5-13.91,6.81-19,10.47a104.73,104.73,0,0,1,12.89,12q8.51,10.15,8.51,20.39,0,8.59-5.31,13.43-15.78,14.31-49,14.3-21.65,0-31.1-4.76-10.62-5.4-10.62-18.44a24.26,24.26,0,0,1,4.84-14.77l7.35,2.27a21.16,21.16,0,0,0-3,10.15q0,9,9.76,12,5.55,1.71,17.19,1.71h2.27q48.35,0,48.82-14.21.17-5.24-5.31-11.88-4.92-5.94-17.19-16.17.48-9.61,2.74-11.17Q423.57,301.91,455.83,288.78Zm-.55-16.25-.7,8.05q-10,4.14-27.35,13.28L399.42,308.7l.78-6.87Q433.34,283.08,455.28,272.53Z"/><path class="cls-1" d="M608.81,285l-1.56,12.11q-33,13.59-50.47,25.94,22.65,18.36,22.65,33.51a17.91,17.91,0,0,1-5.39,13.2q-14.29,14.31-49,14.3-18.43,0-27.11-3.12-14.54-5.16-14.53-20.08a24.26,24.26,0,0,1,4.84-14.77l7.27,2.27a21.16,21.16,0,0,0-3,10.15q0,6.57,4.77,9.69,6.24,4.06,22.26,4.06h2.19q48.44,0,48.44-14.6,0-6.33-7.19-14-1.26-1.32-16.33-15.08.46-10.31,2.66-11.95Q572.87,299.16,608.81,285Z"/><path class="cls-1" d="M716.17,370.58a36.84,36.84,0,0,1-11.72,23.75q-12,11.55-30.32,11.56a48.55,48.55,0,0,1-15.27-2.23,32,32,0,0,1-11.48-6.44,27.68,27.68,0,0,1-7.23-10.32,36.07,36.07,0,0,1-2.5-13.82A47.78,47.78,0,0,1,644,348.7l7.65,2.89q-4.44,9.62-4.45,17.58,0,25.15,26.8,25.16,15.93,0,26.33-9.93,8.43-8,8.43-16.17a30.11,30.11,0,0,0-.93-7.42,26.22,26.22,0,0,1-13.6,3.75,12.53,12.53,0,0,1-9-3.24q-3.41-3.24-3.4-8.87,0-6.4,4.14-15.16Q691,326.6,698,326.59q7.58,0,13,12.5a65.67,65.67,0,0,1,4.06,12.7,63.5,63.5,0,0,1,1.33,13.08C716.4,366.75,716.32,368.65,716.17,370.58Zm-7.35-61.18L702,318.08l-8.83-6.57-6.33,7.82-9.45-6.72,7.18-8.83,8.52,6.41,6.17-7.5Zm-4.37,42.11a18.71,18.71,0,0,0-1.1-4.18,24.66,24.66,0,0,0-2.07-4.29,17.85,17.85,0,0,0-2.57-3.36,3.84,3.84,0,0,0-2.54-1.37,3.48,3.48,0,0,0-2.27,1.05,12.92,12.92,0,0,0-2.15,2.58,16.63,16.63,0,0,0-1.6,3.25,8.76,8.76,0,0,0-.62,3q0,6.11,6.25,6.1Q701.32,354.25,704.45,351.51Z"/><path class="cls-1" d="M858,351.44q0,12.42-8.35,19.37-6.5,5.38-20,8.59A175.22,175.22,0,0,1,789,384.09q-21.65,0-31.09-4.76-10.64-5.4-10.63-18.44a24.27,24.27,0,0,1,4.85-14.77l7.34,2.27a21.16,21.16,0,0,0-3,10.15q0,9,9.77,12,5.54,1.71,17.18,1.71h8q25.64,0,42-5,11.8-3.59,14.38-7.57a10.37,10.37,0,0,0,1.17-5.55,22.91,22.91,0,0,1-11.64,3,12.38,12.38,0,0,1-9-3.28A11.72,11.72,0,0,1,825,345q0-6.48,4.14-15.16,5.07-10.69,12.11-10.7,7.72,0,12.73,12.89A53,53,0,0,1,858,351.44Zm-15.31-51.25-7.58,10-10.23-6.8,7.5-10.24Zm4.3,43.9q-2.34-13.2-7.58-13.2-2.34,0-4.61,3.83a12.28,12.28,0,0,0-2,6q0,6.09,6.17,6.1A11.56,11.56,0,0,0,847,344.09Z"/><path class="cls-1" d="M971.89,434.79a107.33,107.33,0,0,1-32.26,5.4q-20.62,0-33.67-8Q890,422.53,890,403q0-23.44,25.47-42.11-12.19-6.09-12.19-19.3a22.3,22.3,0,0,1,7-16.48,22.86,22.86,0,0,1,16.6-6.88q11.49,0,18.36,6.49l-2.57,7.89q-6.18-3.92-15.47-3.91a18.9,18.9,0,0,0-10.08,2.89q-5.48,3.36-5.47,8.44c0,4.64,2.16,8.12,6.48,10.47a26.68,26.68,0,0,0,12.74,2.81q2.19,0,11.09-2.27l14.92-3.75v9.85q-56.55,13.13-56.56,45,0,14.22,15,21.25,11.32,5.24,27.42,5.23,8.84,0,25.32-3.67Zm-41.56-138-7.58,10L912.52,300l7.5-10.23Z"/><path class="cls-1" d="M1068.78,434.79a107.33,107.33,0,0,1-32.26,5.4q-20.62,0-33.68-8-15.93-9.69-15.93-29.22,0-23.44,25.47-42.11-12.2-6.09-12.19-19.3a22.3,22.3,0,0,1,7-16.48,22.86,22.86,0,0,1,16.6-6.88q11.49,0,18.36,6.49l-2.58,7.89q-6.16-3.92-15.47-3.91a18.89,18.89,0,0,0-10.07,2.89q-5.47,3.36-5.47,8.44c0,4.64,2.16,8.12,6.48,10.47a26.68,26.68,0,0,0,12.74,2.81q2.18,0,11.09-2.27l14.92-3.75v9.85q-56.56,13.13-56.56,45,0,14.22,15,21.25,11.32,5.24,27.42,5.23,8.83,0,25.31-3.67Z"/><path class="cls-1" d="M1171.14,351.51q0,15.63-14,23.21-11.16,6.09-28.2,6.09h-21.09q-15.48,0-24-6.95l3.28-9q7.66,3.28,12.5,3.28,8.52,0,14.46-9.92a48.77,48.77,0,0,0,.15-5.7q0-27-1.48-66.17l10.47-3.83V351.9A59.12,59.12,0,0,1,1136.68,341q9.38-5.7,16.57-5.71a18.55,18.55,0,0,1,12.42,4.46A14.88,14.88,0,0,1,1171.14,351.51Zm-9.77,3.91q0-4.29-4.14-6.8a16,16,0,0,0-8.12-2q-5.62,0-16.41,8.05-4.85,3.58-17.34,14.53h14.53q16.17,0,24.76-4.92Q1161.37,360.42,1161.37,355.42Zm-1.64-50.16-7.58,10-10.23-6.79,7.5-10.24Z"/><path class="cls-1" d="M1290.6,351.51q0,15.63-14,23.21-11.17,6.09-28.2,6.09h-21.1q-15.46,0-24-6.95l3.28-9q7.65,3.28,12.5,3.28,8.51,0,14.45-9.92a45,45,0,0,0,.16-5.7q0-27-1.49-66.17l10.47-3.83V351.9A59.4,59.4,0,0,1,1256.15,341q9.38-5.7,16.56-5.71a18.55,18.55,0,0,1,12.42,4.46A14.85,14.85,0,0,1,1290.6,351.51Zm-9.76,3.91q0-4.29-4.14-6.8a16,16,0,0,0-8.13-2q-5.62,0-16.4,8.05-4.85,3.58-17.35,14.53h14.53q16.17,0,24.77-4.92Q1280.84,360.42,1280.84,355.42Z"/><path class="cls-1" d="M1473.66,351.51q0,15.39-14,23.13-11.17,6.17-27.89,6.17h-21a23.73,23.73,0,0,1-13.36-3.91c.11,1.2.16,2.4.16,3.6q0,18.28-11.64,29.22-11.33,10.69-29.69,10.7-15.24,0-24.65-9.14t-9.41-24.3q0-12.25,7.11-24.14l7.73,2.89a35.93,35.93,0,0,0-3.71,9.14,37.33,37.33,0,0,0-1.68,9.69q0,24.3,26.49,24.3a34.87,34.87,0,0,0,20.78-6.25q9.84-7,9.84-18.6,0-11.86-7.5-23.75l9.14-7.81q5,10.16,7,12.66a10.59,10.59,0,0,0,8.67,4.06q4,0,8.52-5,3.29-4.14,6.48-8.28,19.85-20.79,35.55-20.78a16.87,16.87,0,0,1,12,4.76A15.42,15.42,0,0,1,1473.66,351.51Zm-50.39-36.87-7.58,10-10.23-6.8,7.5-10.23Zm40.47,40.78a7.58,7.58,0,0,0-3.83-6.72,14.26,14.26,0,0,0-7.89-2.11q-6.72,0-17,8.2a102.54,102.54,0,0,0-14.61,14.38h12.42q16.1,0,24.46-4.92Q1463.74,360.42,1463.74,355.42Z"/><path class="cls-1" d="M1657,351.51q0,15.39-14,23.13-11.17,6.17-27.89,6.17h-21a23.7,23.7,0,0,1-13.35-3.91q.15,1.8.15,3.6,0,18.28-11.64,29.22-11.33,10.69-29.69,10.7-15.22,0-24.65-9.14t-9.41-24.3q0-12.25,7.11-24.14l7.73,2.89a35.93,35.93,0,0,0-3.71,9.14,37.33,37.33,0,0,0-1.68,9.69q0,24.3,26.49,24.3a34.85,34.85,0,0,0,20.78-6.25q9.84-7,9.84-18.6,0-11.86-7.5-23.75l9.14-7.81q5,10.16,7,12.66a10.57,10.57,0,0,0,8.67,4.06q4,0,8.51-5,3.29-4.14,6.49-8.28,19.85-20.79,35.54-20.78a16.89,16.89,0,0,1,12,4.76A15.42,15.42,0,0,1,1657,351.51Zm-9.93,3.91a7.57,7.57,0,0,0-3.82-6.72,14.27,14.27,0,0,0-7.9-2.11q-6.72,0-17,8.2a103.59,103.59,0,0,0-14.61,14.38h12.43q16.08,0,24.45-4.92Q1647.11,360.42,1647.11,355.42Z"/><path class="cls-1" d="M1819.94,358.39q0,8.6-4.14,14.37a15.06,15.06,0,0,1-13,6.57q-10.24,0-14.61-8-4.62,8-14.53,8-7,0-10.86-3.91c.1,1.2.15,2.4.15,3.59q0,18.28-11.64,29.22-11.33,10.71-29.68,10.71-15.32,0-24.69-9.11t-9.38-24.33a46.48,46.48,0,0,1,7.11-24.14l7.74,2.89a35.26,35.26,0,0,0-3.71,9.14,37.33,37.33,0,0,0-1.68,9.69q0,24.29,26.48,24.29,12.27,0,20.94-6.17a21.72,21.72,0,0,0,9.69-18.67q0-11.88-7.5-23.75l9.14-7.81q4,8,6.72,11.32,4.53,5.4,10.54,5.4,6.64,0,9.14-3.13c1.51-1.82,2.27-5,2.27-9.61v-1.87l7.58-2.74v1.25q0,16.1,11.25,16.1,7.8,0,7.81-8.05,0-3.21-4.61-9.85l7.5-8.51A26.2,26.2,0,0,1,1819.94,358.39Zm-17.27-35.94-6.72,8.83-9.76-7-6.49,8.28-9.53-6.8,6.95-8.83,9.38,6.88,6.41-8.13Zm-10.31-13.67-6.64,8.75-9.69-6.88,6.88-8.51Z"/><path class="cls-1" d="M1523.73,554.84q0,8.45-4.77,13.91a16.69,16.69,0,0,1-13.28,5.78A13.84,13.84,0,0,1,1494.9,570a16.2,16.2,0,0,1-4.06-11.29,28.55,28.55,0,0,1,2-11q.86-2.19,6.17-11.64l-1.8-1.48,5.55-10.55Q1523.73,540.47,1523.73,554.84Zm-8.36.08q0-4.06-4.22-9.06a33.13,33.13,0,0,0-7-6.33q-5.94,11.25-5.94,14.45,0,9.06,8.2,9.06a9.2,9.2,0,0,0,6.25-2.3A7.39,7.39,0,0,0,1515.37,554.92Z"/><path class="cls-1" d="M1646.94,521.33l-3.82,10.31a21.81,21.81,0,0,0-8.83-1.64q-7.5,0-15.55,5.15-8.52,5.48-10.23,12.35a5.88,5.88,0,0,0-.16,1.48q0,3.6,4.84,4.1l16.33,1.68q14.14,1.65,14.14,13.21,0,11.79-17.5,22.11-16.71,9.84-33.44,9.84-16.32,0-25.7-7.34-10.3-8.05-10.31-23.83a46,46,0,0,1,7.11-24.92l7.65,3.36q-5.38,9.52-5.39,18.2,0,22.82,28.36,22.81a63.08,63.08,0,0,0,20.16-3.59,56.43,56.43,0,0,0,18.05-9.61q3.43-2.89,3.43-5.08,0-2.89-5.07-3.52-21.1-2.49-24.14-3.59-6.57-2.41-6.57-11.33,0-12.18,12-23,11.73-10.38,24.07-10.39A17.54,17.54,0,0,1,1646.94,521.33Z"/><path class="cls-1" d="M1716.1,555.47q0,16.56-11.1,30.31a67.14,67.14,0,0,1-26.33,19.37l-7.34-8.2q15.86-8.6,22.81-14.69,10.78-9.45,12.74-21.25a20.36,20.36,0,0,1-11.33,3q-6.57,0-10.47-3.2-4.29-3.52-4.3-9.92a31.48,31.48,0,0,1,4.54-16.18q5-8.6,11.87-8.59,9.3,0,14.61,10.47A40.93,40.93,0,0,1,1716.1,555.47Zm-11.18-5q-.62-12.19-8.67-12.19c-1.87,0-3.51,1-4.92,3.05a9.8,9.8,0,0,0-1.87,5.62q0,6.09,7.65,6.09A13.57,13.57,0,0,0,1704.92,550.47Z"/><path class="cls-1" d="M1820.33,549.37q0,18-10.9,28.79T1780.56,589q-15.7,0-25.08-10.62a33,33,0,0,1-8.28-22.5,38.11,38.11,0,0,1,2.11-11.33,41.17,41.17,0,0,1,4.77-10.39l7.58,2.73q-4.62,9.3-4.61,16.41,0,24.13,25,24.14,12.65,0,20.31-6.72,8-7,8-19.45,0-11.25-7.74-21.25l8.29-7Q1820.33,535.22,1820.33,549.37Zm-28-40.47-7.58,10-10.23-6.79,7.5-10.24Z"/><path class="cls-1" d="M1148.79,768.17h-7.11q-.87-53-18.83-78.67l6.33-14q11,15.63,15.62,40.55Q1148.47,736,1148.79,768.17Z"/><path class="cls-1" d="M1233.79,674.65q-.22,18.21-5.23,25.55-6.18,9-23.13,9,5,22.57,5.32,59h-7.11q-.95-53-18.83-78.75l5.62-12.81q5.86,9.3,9.07,12.26a19.14,19.14,0,0,0,13.67,5.32q8.52,0,11.72-4.69,2.58-3.75,2.58-12.66Z"/><path class="cls-1" d="M1313.88,674.65q.31,3.21.31,6.25a34.89,34.89,0,0,1-3.36,15.79q-4.29,8.59-12.5,8.59-5.94,0-10.62-5-4.31,5.31-7.74,7.11t-10.08,1.8q4.93,23,5.24,59H1268q-1-53.2-18.91-78.67l5.78-12.74a92.88,92.88,0,0,0,7.5,11.1q5.55,6.33,11.18,6.33,5.31,0,8-5.79a26.34,26.34,0,0,0,2-10.39l4.53-2q2.26,17.73,12.19,17.73,8.12,0,7.42-16.4Z"/><path class="cls-1" d="M1377.09,699.42a28.14,28.14,0,0,1-10.16,10,26.39,26.39,0,0,1-24.84,1.29q4.85,23.6,5.15,57.5h-7q-.93-51.25-18.9-77.11l6.09-14q2.34,2.65,9.84,14.14,4.69-18.75,17.89-18.75a17.55,17.55,0,0,1,14.46,7l-3,5.23q-5.47-3.51-9.69-3.51a11.63,11.63,0,0,0-8.12,3,10,10,0,0,0-3.36,7.74,8.7,8.7,0,0,0,4.06,7.65,15,15,0,0,0,8.67,2.35,21.15,21.15,0,0,0,16.33-7Z"/><path class="cls-1" d="M1455.77,741.14q0,11.57-5.55,19.06-4.92,6.64-11.17,6.64-9.37,0-14-7.19-4.45,8.37-12.65,8.36-8.52,0-12.89-6.56-3.68-5.55-3.68-14.53,0-15.31,9.07-32.58,6.71-12.81,14-20l-4.06-3.59,6.09-12.27a99.46,99.46,0,0,1,24.46,27.58Q1455.76,723.64,1455.77,741.14Zm-8.68-1.1q0-18.66-22.73-40.93-19.69,23.89-19.69,42.58,0,13.2,8.91,13.2,7.11,0,11.87-7.66,3,6.49,10.47,6.49Q1447.09,753.72,1447.09,740Z"/><path class="cls-1" d="M1526.94,706.76l-3,13.6q-18.68,9.3-31.1,22.5-8.6,9.14-18.83,26l-5.85-2.58q6.56-13.74,8.2-16.56a118.8,118.8,0,0,1,19.22-24.22Q1472,724.19,1472,708.4q0-7.8,8.91-18.12Q1490.7,679,1501.08,679a20.31,20.31,0,0,1,15,6.33l-3.82,6.87c-4.28-2.08-8-3.12-11.1-3.12q-5.16,0-11.64,4.92-6.72,5.16-6.72,10.16,0,5.63,8.44,7.89a43.93,43.93,0,0,0,12.89,1.17Q1513,712.71,1526.94,706.76Z"/><path class="cls-1" d="M1603.75,690.36q-9.76,10.7-18.44,30.54-10.71,24.38-11.88,47.66h-7.57q-1.17-23.28-11.88-47.66-8.67-19.83-18.51-30.54,1.71-5.7,4.29-13.36,24.77,32.5,29.85,61.17,4.14-27.1,29.76-61Q1601.1,682.16,1603.75,690.36Z"/><path class="cls-1" d="M1607.35,755.2q9.92-10.79,18.51-30.47,10.64-24.3,11.88-47.73h7.58q1.08,23.36,11.79,47.73,8.67,19.69,18.52,30.47-1.73,5.79-4.22,13.36-24.84-32.5-29.92-61.09-4.07,27-29.77,60.93Q1610,763.41,1607.35,755.2Z"/><path class="cls-1" d="M1737,756.61l-7.11,12.26q-12.18-16.56-12.18-44.29-19.31,0-25.55-5.47-3.91-3.43-3.91-12.35,0-7.65,6.49-18.43,7.41-12.35,15.47-12.35,14.83,0,14.84,32.74,0,21.33,3.75,33.12A44.85,44.85,0,0,0,1737,756.61Zm-20.31-45.47q0-13-1.09-16.72-1.65-5.38-7.66-5.39-3.29,0-6.87,6-3.36,5.63-3.36,9.46,0,7,13.43,7A40.26,40.26,0,0,0,1716.65,711.14Z"/><path class="cls-1" d="M1794.94,731.76l-11.56,11.57-11.72-11.57,11.72-11.64Z"/><path class="cls-1" d="M952.42,981.5q-3.36,0-5.82-.2a35.11,35.11,0,0,1-4.33-.58,16.38,16.38,0,0,1-3.36-1.06,18.66,18.66,0,0,1-2.89-1.6,11.85,11.85,0,0,1-4.46-5.82,26.81,26.81,0,0,1-1.56-9.8V938.37a29.91,29.91,0,0,0-.51-6,10.45,10.45,0,0,0-1.83-4.22,11,11,0,0,0-3.56-3,32.59,32.59,0,0,0-5.66-2.31,28.78,28.78,0,0,0,5.66-2.22,11.24,11.24,0,0,0,3.56-2.93,10.16,10.16,0,0,0,1.83-4.18,30.45,30.45,0,0,0,.51-6.06V883.29a31.2,31.2,0,0,1,1.13-9.14,11.54,11.54,0,0,1,3.79-5.7,16.39,16.39,0,0,1,7-3,59.26,59.26,0,0,1,10.54-1.05V866a27.55,27.55,0,0,0-5.9,2.23,11.52,11.52,0,0,0-3.82,3.2,12.07,12.07,0,0,0-2.08,4.69,30.84,30.84,0,0,0-.62,6.6v22.81a38.51,38.51,0,0,1-.55,7.11,11.9,11.9,0,0,1-2,4.88,11,11,0,0,1-3.91,3.29,31.39,31.39,0,0,1-6.28,2.3,30,30,0,0,1,6.28,2.19,10.76,10.76,0,0,1,3.91,3.2,11.67,11.67,0,0,1,2,4.84,38.59,38.59,0,0,1,.55,7.11v22.89a30.35,30.35,0,0,0,.62,6.57,12.37,12.37,0,0,0,2.08,4.68,11.3,11.3,0,0,0,3.82,3.25,27,27,0,0,0,5.9,2.22Z"/><path class="cls-1" d="M981.41,864.39q3.44.08,5.9.27a35.15,35.15,0,0,1,4.34.59,18.78,18.78,0,0,1,3.36,1,17.34,17.34,0,0,1,2.89,1.57,11.54,11.54,0,0,1,4.37,5.78,27.07,27.07,0,0,1,1.56,9.84v24.06a30.45,30.45,0,0,0,.51,6.06,10,10,0,0,0,1.84,4.18,11.2,11.2,0,0,0,3.55,2.93,28.9,28.9,0,0,0,5.67,2.22,32.72,32.72,0,0,0-5.67,2.31,11.07,11.07,0,0,0-3.55,2.93,10,10,0,0,0-1.84,4.18,30.42,30.42,0,0,0-.51,6v24.22q0,11.88-5.93,15.47a19.29,19.29,0,0,1-3,1.56,20.46,20.46,0,0,1-3.36,1.06,31.38,31.38,0,0,1-4.34.62q-2.46.19-5.82.2V980a26.85,26.85,0,0,0,5.9-2.22,11.43,11.43,0,0,0,3.83-3.25,12.51,12.51,0,0,0,2.07-4.68,30.35,30.35,0,0,0,.62-6.57V940.4a39.48,39.48,0,0,1,.55-7.11,11.8,11.8,0,0,1,2-4.84,11.35,11.35,0,0,1,3.91-3.24,30.86,30.86,0,0,1,6.29-2.31,29.62,29.62,0,0,1-6.29-2.18,11,11,0,0,1-3.91-3.21,11.74,11.74,0,0,1-2-4.84,40,40,0,0,1-.55-7.19V882.67a30.84,30.84,0,0,0-.62-6.6,12.21,12.21,0,0,0-2.07-4.69,11.66,11.66,0,0,0-3.83-3.2,27.35,27.35,0,0,0-5.9-2.23Z"/><path class="cls-1" d="M1063.29,978.06h-28.67V866.81h28.67v3.44h-12.18q-3.28,0-4.69,1.36t-1.41,4.65v91.41q0,7,6.64,7h11.64Z"/><path class="cls-1" d="M1078.46,974.7a6.65,6.65,0,0,0,4.61-1.37c1-.91,1.48-2.46,1.48-4.64V877.36q0-7.11-6.64-7.11h-11.72v-3.44h28.75V978.06h-28.75V974.7Z"/><path class="cls-1" d="M1115,962.36q13.52-14.77,13.51-27.89T1115,906.34a16.92,16.92,0,0,1,4.45-3.59q17.73,15.54,17.73,31.72,0,16-17.81,31.64A38.86,38.86,0,0,1,1115,962.36Zm21.64,0q13.28-14.77,13.28-27.89t-13.28-28.13a15.25,15.25,0,0,1,4.22-3.51q17.88,15.15,17.89,31.64,0,16.24-17.89,31.64A31.36,31.36,0,0,1,1136.59,962.36Z"/><path class="cls-1" d="M1189.09,962.36a25.8,25.8,0,0,1-4.14,3.75q-17.88-15.39-17.89-31.64,0-16.49,17.89-31.64a14,14,0,0,1,4.14,3.51q-13.27,15-13.28,28.13T1189.09,962.36Zm21.72,0a39.89,39.89,0,0,1-4.37,3.75q-17.89-15.63-17.89-31.64,0-16.17,17.81-31.72a19,19,0,0,1,4.45,3.59q-13.59,15.07-13.59,28.13T1210.81,962.36Z"/><path class="cls-1" d="M1230.27,925.87,1215.9,911.5l7.34-7.35,14.38,14.38,14.6-14.61,7.35,7.34L1245,925.87,1260,941l-7.35,7.34-15.07-15.07-14.54,14.53-7.34-7.35Z"/><path class="cls-1" d="M1335,927h-60.62v-8.28H1335Zm-24.14-22.74h-12.34V890.09h12.34Zm0,51.33h-12.34V941.42h12.34Z"/><path class="cls-1" d="M1365.91,876l-8.83,9-9.14-9.07,9.14-8.83Zm29.61-9.45-35.7,98.36-4.93-1.72L1390,864.78Zm11.25,83.75-8.83,9.14-9.14-9.14,9.14-8.83Z"/><path class="cls-1" d="M1462.32,899.94l28.36-.32v9.61l-27.73-.15,21,20.31-6.87,6.87-20.86-21.48.55,29H1447l.31-29-20.78,21.48-7-6.87,21.48-20.47-28,.31v-9.61l27.89.32-19.54-19.22,6.88-7,19.06,19.37-.31-28h9.77l-.55,28.36,19.06-19.68,6.88,7Z"/><path class="cls-1" d="M1564.52,922.2l-63,30.16V941.89l48.9-23.2-48.9-23.05V885.17l63,30Z"/><path class="cls-1" d="M1644.52,952.36l-62.89-30.16v-7l62.89-30v10.47l-48.75,23.05,48.75,23.2Z"/><path class="cls-1" d="M1694.22,966.58l-2.89,3.51a80.6,80.6,0,0,1-19.54-28.75q-5.85-14.37-5.86-27.19,0-12.18,5.32-26A79.19,79.19,0,0,1,1691.33,858l2.89,3.6q-18.29,28.51-18.29,52.34Q1675.93,937.91,1694.22,966.58Z"/><path class="cls-1" d="M1703.05,861.58l2.89-3.6a81.33,81.33,0,0,1,19.53,28.75q5.87,14.29,5.86,27.27,0,12-5.39,26a78.18,78.18,0,0,1-20,30.08l-2.89-3.51q18.21-28.61,18.2-52.35Q1721.25,890.25,1703.05,861.58Z"/><path class="cls-1" d="M1753.21,882.75l-4,52.81h-4.85l-4.21-52.66v-21h13Zm-.31,76.4h-12.42V946.81h12.42Z"/><path class="cls-1" d="M1817.36,888.53l-9.3,1.56q-3.51-14.54-18.28-14.53a14.83,14.83,0,0,0-10.9,4.61,15,15,0,0,0-4.57,10.94q0,5,3.83,10.23a71.81,71.81,0,0,0,10.31,10.47l6.25,5.39q6.18,6.18,5.94,19.77H1791c-.1-2.92-.18-4.59-.23-5a17.13,17.13,0,0,0-1.25-4.3q-1.72-4-9.3-10.08-8.28-6.63-8.36-6.72a36.48,36.48,0,0,1-6.91-8.12A20,20,0,0,1,1762.2,892q0-12.19,8.52-20.08,8.28-7.57,20.62-7.58,11,0,18.56,6.64T1817.36,888.53Zm-15.31,71.33H1788.3V946.11h13.75Z"/></svg>