<svg id="Graphics" xmlns="http://www.w3.org/2000/svg" viewBox="0 0 1920 1080"><defs><style>.cls-1{fill:#fff;}</style></defs><path class="cls-1" d="M163.74,177.83H121.09l-9.16,24.06H98.26l37.94-98h13.53l37.53,98h-14.7Zm-38.35-11.22h34.18L142.76,121Z"/><path class="cls-1" d="M249,201.89H202.23v-98h44.09q13.13,0,20.92,6.77a22.08,22.08,0,0,1,7.79,17.5,25.36,25.36,0,0,1-3.35,12.75,27.49,27.49,0,0,1-9.36,9.74,25.58,25.58,0,0,1,13,8.78,22.67,22.67,0,0,1,4.75,14.19A26.69,26.69,0,0,1,271.41,194Q262.73,201.89,249,201.89Zm12.37-72.39q0-6.84-4.24-10.7t-11.89-3.86H215.7v31.37H245q7.38,0,11.89-4.61T261.36,129.5Zm5,43.95a14.87,14.87,0,0,0-5.06-11.72q-5.06-4.48-13.53-4.48H215.7v33.56H248q8.68,0,13.5-4.61T266.35,173.45Z"/><path class="cls-1" d="M339.7,191.84q11.76,0,19-6.05t10.77-18.63L382.56,169q-3.82,16.41-15.07,25.5t-27.93,9.09q-20.78,0-33.29-13.74Q294,176.18,294,152.87q0-23.16,12.37-36.77,12.43-13.87,33.15-13.88,18.06,0,29.26,9.23t14.43,26.73l-13.47,2Q364,114,339.7,114q-15,0-23.48,10.35t-8.44,28.54q0,18.25,8.44,28.61T339.7,191.84Z"/><path class="cls-1" d="M439.3,201.89H401v-98H439.3q22.29,0,35.34,13.06t13.13,34.72q0,22.56-13.33,36.51Q461.11,201.89,439.3,201.89ZM474,151.64q0-16.53-9.37-26.31t-25.36-9.85H414.42v74.79H439.3q15.85,0,25.36-10.53T474,151.64Z"/><path class="cls-1" d="M574.65,201.89H507.32v-98h66v11.49h-52.5v31.1h46.89v11.21H520.79V190.4h53.86Z"/><path class="cls-1" d="M607.53,201.89H594.07v-98h68.77v11.49H607.53v31.92h49.7v11.48h-49.7Z"/><path class="cls-1" d="M721,203.6q-21.54,0-34.73-14t-13-36.43q0-23,13-36.92,13.2-14,35-14,17.24,0,28.37,8t15,23.24l-13.47,2.32q-3.35-11.2-10.76-16.64t-19.18-5.44q-16.2,0-25.36,10.6t-9.09,28.85q0,17.29,9.64,28.16t25.22,10.8q13.88,0,23-7.45t9-18.59v-5.61H723V149.39h43.07v52.5H753.75V188.42a37.66,37.66,0,0,1-14.08,11.21A43.39,43.39,0,0,1,721,203.6Z"/><path class="cls-1" d="M800.92,201.89H787.46v-98h13.46v42.32h49.15V103.86h13.26v98H850.07V157.8H800.92Z"/><path class="cls-1" d="M901.68,201.89H888.22v-98h13.46Z"/><path class="cls-1" d="M980.91,103.86v66.38q0,33.36-31,33.36-15.45,0-23.38-8.55T918.64,170v-3.62l13-2.66v5.74q0,11.76,4.48,17.36T950,192.39q9.09,0,13.36-5.2t4.27-16.27V103.86Z"/><path class="cls-1" d="M1079.42,103.86l-37,43.41,38.21,54.62h-15.93l-31.38-44.64-14.69,16.88v27.76h-13.47v-98h13.47v53.25l44.64-53.25Z"/><path class="cls-1" d="M1155.09,201.89h-60.77v-98h13.47v86.41h47.3Z"/><path class="cls-1" d="M1182.37,201.89H1170.2v-98h17.64l31,79.57L1249,103.86h17.63v98h-12.44V121.63l-31.37,80.67h-9l-31.51-80.05Z"/><path class="cls-1" d="M1304.46,201.89h-12.79v-98h15.11l47,74.38V103.86h12.72v98H1354.7l-50.24-79.64Z"/><path class="cls-1" d="M1479,152.87q0,23.12-12.72,36.85t-33.77,13.88q-21,0-33.7-13.88t-12.64-36.85q0-22.89,12.64-36.77t33.7-13.88q21.27,0,33.91,13.88Q1479,129.71,1479,152.87Zm-70.45-28.54q-8.77,10.5-8.78,28.54t8.78,28.58q8.79,10.53,24,10.53t24-10.53q8.82-10.66,8.82-28.58t-8.79-28.54q-8.77-10.48-24-10.49T1408.53,124.33Z"/><path class="cls-1" d="M1512,201.89h-13.47v-98h38.69q15.1,0,24.61,8.68a28.54,28.54,0,0,1,9.5,22q0,14.08-9.64,23.52t-24.47,9.37H1512Zm45.8-67.34a17.92,17.92,0,0,0-6-13.91q-6-5.43-15.58-5.43H1512v40.88h24.2q9.63,0,15.62-6T1557.8,134.55Z"/><path class="cls-1" d="M1645.09,216.18h19v10.45H1643q-9.57,0-14.59-4.54t-5-13.23v-5.6q-18.72-2.4-29.25-15.66-10.81-13.8-10.81-34.73,0-22.89,12.65-36.77t33.7-13.88q21.27,0,33.91,13.88,12.57,13.61,12.58,36.77,0,20.92-10.6,34.46t-28.85,15.79v5.19Q1636.68,216.17,1645.09,216.18Zm-39.41-91.85q-8.78,10.5-8.78,28.54t8.78,28.58q8.79,10.53,24,10.53t24-10.53q8.82-10.66,8.82-28.58t-8.79-28.54q-8.79-10.48-24-10.49T1605.68,124.33Z"/><path class="cls-1" d="M1765.68,176.53l1.43,25.36h-13.33l-1.36-25.5q-.42-6.9-4.86-10.08t-14.08-3.18h-24.34v38.76h-13.46v-98h38.69q14.89,0,23.92,7.59a24.26,24.26,0,0,1,9,19.48,28.16,28.16,0,0,1-15.72,25.7Q1764.85,161,1765.68,176.53Zm-12-44.5a15.2,15.2,0,0,0-5.44-12.24q-5.43-4.58-14.87-4.58h-24.2v36.71h24.07q9.09,0,14.76-5.57A19.22,19.22,0,0,0,1753.65,132Z"/><path class="cls-1" d="M140.91,353.6q-17.7,0-28.09-8.55-10.47-8.82-10.67-23.38l13.2-1.71q.47,11,7.07,16.79t18.49,5.77q9.65,0,15.21-4.75T161.69,325q0-6.5-3.89-10.08t-13.47-5.64l-13.06-2.8q-13.4-2.94-19.79-9.64t-6.39-17.64q0-11.28,9.09-19.14T138,252.22q15.45,0,24.65,7.52t10.49,20.92l-13.26,1.64q-2.32-19-21.88-19-9.36,0-14.52,4.21A14,14,0,0,0,118.29,279q0,6.49,3.75,10.25t12.17,5.54L149.46,298q13.18,2.81,19.41,9.16t6.22,17.16a26.92,26.92,0,0,1-9.36,21Q156.22,353.6,140.91,353.6Z"/><path class="cls-1" d="M182.61,253.86h74.44v11.49H226.57v86.54H213.24V265.35H182.61Z"/><path class="cls-1" d="M333.21,316.07V253.86h13.46v62.21q0,17-10.39,27.41Q326,353.61,309.14,353.6t-27.27-10.26Q271.34,333,271.34,316.07V253.86h13.47v62.21q0,12,6.63,19t17.7,6.94q11.08,0,17.57-6.91T333.21,316.07Z"/><path class="cls-1" d="M410.86,351.89h-13.6l-36.23-98h14.15l29.26,80.94,29-80.94h13.67Z"/><path class="cls-1" d="M494.81,351.89H482l-28.85-98h13.74l22.22,78.55,22.42-78.55h13.19l22.49,77.73,22-77.73h13.47l-28.85,98H540.88l-23-77.25Z"/><path class="cls-1" d="M588.32,351.89l31.79-48.74L588.6,253.86h15.11l23.92,38.69,24.82-38.69h14.69l-32.06,48.88,32.61,49.15H652.17l-24.95-38.21L603,351.89Z"/><path class="cls-1" d="M706.86,351.89v-39l-33.63-59h14.28l26,46.35,26-46.35h14l-33.5,58.24v39.79Z"/><path class="cls-1" d="M834.62,264.25l-56.33,76.29h58.25v11.35H762.23V341.5l56.26-76.29H764V253.86h70.61Z"/><path class="cls-1" d="M164.77,491.5h3.35v10.39h-6.77a15.53,15.53,0,0,1-9.23-2.63A9.77,9.77,0,0,1,148,492q-7.38,11.61-22.15,11.62-10.93,0-17.63-5.71a18.46,18.46,0,0,1-6.7-14.73q0-8.76,5.47-14.32t15.65-7.28L143,458.07c2.92-.55,4.38-2.23,4.38-5.06a11.72,11.72,0,0,0-4.11-9.26q-4.1-3.58-11.21-3.59t-11.28,3.18q-4.17,3.18-5.74,9.81l-11.82-1.37a23.91,23.91,0,0,1,9.53-15.65q7.91-6,19.79-5.95,12.59,0,19.79,6.7t7.21,17.84v31.51q0,2.94,1.17,4.11C161.51,491.11,162.86,491.5,164.77,491.5Zm-51-9.23a10.35,10.35,0,0,0,3.56,8.34q3.56,3,9.91,3a18.68,18.68,0,0,0,14.59-6.39q5.71-6.41,5.71-16.45v-4l-22.42,3.9q-5.53.89-8.44,3.89A10.66,10.66,0,0,0,113.77,482.27Z"/><path class="cls-1" d="M215.56,430.18q14,0,22.76,10,8.55,9.78,8.55,26.18,0,16.82-8.55,27T215.56,503.6q-15,0-23-11.76v10.05H180.42v-98h12.45v38.08Q201.06,430.18,215.56,430.18ZM234,466.89q0-11.89-5.51-19a17.76,17.76,0,0,0-14.8-7.08A18.74,18.74,0,0,0,198.33,448q-5.73,7.14-5.74,18.9t5.81,18.76a18.76,18.76,0,0,0,15.31,7.15,17.81,17.81,0,0,0,14.8-7Q234,478.71,234,466.89Z"/><path class="cls-1" d="M291.64,492.93q7.86,0,12.65-4.41t5.74-12.4l12.17,1.43q-1.36,11.9-9.67,19t-20.89,7.08q-15.37,0-24.19-9.85t-8.82-26.59q0-16.87,8.95-26.86t24.06-10.12q13.13,0,21.2,6.73t9.77,19l-12.71,1.44q-2.53-16.54-18.39-16.55-9.51,0-14.77,6.91t-5.26,19.41q0,12.16,5.3,19T291.64,492.93Z"/><path class="cls-1" d="M364.58,503.6q-14.22,0-22.83-9.85-8.4-9.84-8.41-26.31,0-16.83,8.55-27t22.69-10.25q14.35,0,22.7,11.35V403.86h12.44v98H387.55V491.36Q379.21,503.6,364.58,503.6Zm-18.52-36.71q0,11.82,5.5,18.87a17.82,17.82,0,0,0,14.8,7,18.9,18.9,0,0,0,15.42-7.08q5.78-7.08,5.77-18.83T381.71,448a18.85,18.85,0,0,0-15.35-7.18,17.77,17.77,0,0,0-14.8,7.08Q346.05,455,346.06,466.89Z"/><path class="cls-1" d="M449.83,493.48q14.57,0,17.77-14.15l11.49,2.26a25.45,25.45,0,0,1-9.88,16.09q-7.9,5.93-19.38,5.92-16.33,0-25.12-9.5t-8.79-27.21q0-16.68,9.09-26.59,9.09-10.12,24.54-10.12,14.35,0,22.56,9t8.21,24.61v6H428.5Q429.52,493.49,449.83,493.48Zm-.62-53.32q-8.82,0-14,5.2t-6.4,15.24h38.69Q466.44,440.16,449.21,440.16Z"/><path class="cls-1" d="M513.4,442.14v59.75H500.89V442.14H488.31V431.89h12.58v-5.33q0-10.87,5.71-16.79t16.3-5.91h10.19v10.39h-9.23c-3.55,0-6.19,1.06-7.89,3.18s-2.57,5.43-2.57,9.95v4.51h17.5v10.25Z"/><path class="cls-1" d="M567.41,497.72q-13.81,0-22.15-9.16-8.14-9-8.14-24.47,0-15.18,8.27-24.48t22-9.43q13.94,0,21.67,10.25v-8.54h12.16v66.79q0,14.35-8.23,22.55t-23,8.21q-13.8,0-22-6.26t-9.4-17.26L551,504.69q1.37,7.45,6,10.94t13,3.48q9.24,0,14-5.33T588.8,498V487.05Q580.94,497.72,567.41,497.72Zm-12.17-50.86Q550,453,550,464t5.2,17q5.19,6.09,14.49,6.08a17.37,17.37,0,0,0,14-6.35q5.34-6.36,5.34-16.75,0-10.18-5.47-16.68a17,17,0,0,0-13.88-6.56Q560.43,440.71,555.24,446.86Z"/><path class="cls-1" d="M681.84,456.5v45.39H669.4V458.75q0-8.53-4.27-13.16T652.86,441q-9.17,0-14,5.67t-4.79,16.62v38.62H621.68v-98h12.44v36.57q7.11-10.24,21.54-10.25,12.24,0,19.21,7.07T681.84,456.5Z"/><path class="cls-1" d="M714.17,420.54H701.73V403.86h12.44Zm0,81.35H701.73v-70h12.44Z"/><path class="cls-1" d="M747.33,431.89v70.68q0,12.93-5.54,19.07t-17,6.16H717V517.41h7.59q5.61,0,7.93-3.32t2.33-12.2v-70Zm0-11.35H734.89V403.86h12.44Z"/><path class="cls-1" d="M829.36,431.89l-27.48,26.18,29.67,43.82H816.71l-23.79-35.55L780.48,478v23.93H768v-98h12.44V463L813,431.89Z"/><path class="cls-1" d="M854.65,501.89H842.21v-98h12.44Z"/><path class="cls-1" d="M933,463.27v38.62H920.55V458.75q0-8.47-4-13.12T905.31,441q-8.55,0-13,5.71t-4.47,16.58v38.62H875.37v-70h12.16v8.54q7.11-10.24,20.58-10.25a26.26,26.26,0,0,1,13.36,3.25,20.91,20.91,0,0,1,8.58,9.4q6.91-12.65,22.56-12.65,12,0,18.83,7.07t6.81,19.25v45.39H965.8V458.75q0-8.47-4-13.12T950.49,441q-8.55,0-13,5.71T933,463.27Z"/><path class="cls-1" d="M1058.29,456.5v45.39h-12.44V458.75q0-8.53-4.27-13.16T1029.31,441q-9.16,0-13.94,5.67t-4.79,16.62v38.62H998.14v-70h12.17v8.82q7.17-10.53,21.8-10.53,12.24,0,19.21,7.07T1058.29,456.5Z"/><path class="cls-1" d="M1073.68,466.89q0-16.54,9.22-26.59t24.82-10.12q15.38,0,24.88,10.12t9.37,26.59q0,16.41-9.37,26.59t-24.88,10.12q-15.53,0-24.82-10.12T1073.68,466.89Zm49.83,19.17q5.74-7,5.74-19.17t-5.74-19.18q-5.74-7-15.79-7t-15.66,7q-5.67,7-5.67,19.18T1092,486.1q5.64,7,15.69,7T1123.51,486.06Z"/><path class="cls-1" d="M1193.24,430.18q14,0,22.76,10,8.55,9.78,8.54,26.18,0,16.82-8.54,27t-22.76,10.26q-14.35,0-22.7-11.35V527.8H1158.1V431.89h12.17v10.53Q1178.61,430.18,1193.24,430.18Zm18.45,36.71q0-11.89-5.5-19a17.77,17.77,0,0,0-14.8-7.08A18.73,18.73,0,0,0,1176,448q-5.74,7.14-5.74,18.9t5.81,18.76a18.75,18.75,0,0,0,15.31,7.15,17.82,17.82,0,0,0,14.8-7Q1211.69,478.71,1211.69,466.89Z"/><path class="cls-1" d="M1267.68,503.6q-14.22,0-22.83-9.85-8.41-9.84-8.41-26.31,0-16.83,8.54-27t22.7-10.25q15,0,23,11.76V431.89h12V527.8h-12.3v-36Q1282.18,503.6,1267.68,503.6Zm-18.53-36.71q0,11.82,5.51,18.87a17.82,17.82,0,0,0,14.8,7,18.88,18.88,0,0,0,15.41-7.08q5.78-7.08,5.78-18.83T1284.8,448a18.83,18.83,0,0,0-15.34-7.18,17.77,17.77,0,0,0-14.8,7.08Q1249.16,455,1249.15,466.89Z"/><path class="cls-1" d="M1335.83,501.89h-12.44v-70h12.17V444.6q6.84-12.71,20-12.71h5.4v11.76h-5.54q-9,0-14.28,7.69t-5.34,20.74Z"/><path class="cls-1" d="M1398.38,503.6q-13.61,0-21.6-6.22a22.4,22.4,0,0,1-8.75-16.89l12.44-1.84q1,7.73,5.3,11.41t12.61,3.69q7.24,0,11-3t3.8-8.89q0-8.34-12.31-10.05l-10.05-1.57q-10-1.58-15.34-6.63a17.31,17.31,0,0,1-5.3-13.13,17.81,17.81,0,0,1,7.18-14.63q7.17-5.67,19.14-5.67t19.17,5.57q7.14,5.58,8.85,16l-11.48,1.64q-1.71-7.17-5.64-10.29t-11-3.11c-4.37,0-7.82.9-10.32,2.7a8.32,8.32,0,0,0-3.76,7.08,8.21,8.21,0,0,0,2.56,6.42c1.71,1.55,4.48,2.63,8.31,3.22l11.21,1.84q21.25,3.42,21.26,20,0,10.19-7.32,16.24T1398.38,503.6Z"/><path class="cls-1" d="M1432.7,442.14V431.89H1445V409.33h12.45v22.56h17.63v10.25h-17.63v39.17c0,3.69.64,6.27,1.94,7.73s3.55,2.18,6.74,2.18h10.66v10.67h-12.58q-9.36,0-14.28-4.82T1445,483V442.14Z"/><path class="cls-1" d="M1535.38,431.89h12.44v70h-12.17v-8.55q-6.92,10.26-21,10.26-11.82,0-18.73-7.11t-6.9-19.21V431.89h12.51v43.27q0,8.41,4.13,13t11.66,4.62q8.82,0,13.43-5.71t4.62-16.58Z"/><path class="cls-1" d="M1600.86,501.89h-13.19l-26.87-70h13.13l20.58,55.71,20.64-55.71h12.72Z"/><path class="cls-1" d="M1667.86,501.89h-12.45l-22.28-70h12.71l16.41,53.46,15.93-53.46h11.89l15.86,53.32,16.2-53.32h12.38l-22.43,70h-12.3l-16.13-52.78Z"/><path class="cls-1" d="M1738.33,501.89l26.32-35.55-25-34.45h14.29l18.59,25.63,19.08-25.63h13.94L1780,466.2l26.46,35.69h-14.56l-19.62-26.73-19.76,26.73Z"/><path class="cls-1" d="M123.75,658.45l2.33-6.15L98.53,581.89h13.12l20.72,55,20.92-55h12.57l-30.55,77.86q-4,10.32-9.51,14.15-5.26,3.9-14.42,3.9h-7.25V667.27h7.25a13.41,13.41,0,0,0,7.73-2C121,664,122.57,661.69,123.75,658.45Z"/><path class="cls-1" d="M228.28,591.8l-40.34,49.7h41.57v10.39H173v-9.37l40.61-50.24H175.16V581.89h53.12Z"/><path class="cls-1" d="M164.91,801.89H104.13V790.68h23.93v-63q-4.25,2.6-11.21,2.6H103.72v-11H116q6.28,0,9.36-3.73t3.08-11.72h12.92v86.82h23.52Z"/><path class="cls-1" d="M226.57,729.91q0-7.39-4.69-11.8t-12.4-4.41q-10.53,0-15.83,6.74t-5,19.72l-12.85-1.71q-1-16.82,8.4-26.45t25.3-9.78q14.22,0,22.28,7.66,8.28,7.86,8.27,20a35.23,35.23,0,0,1-5,17.63q-5,8.76-16.13,19.07l-26.18,24.07h49.83v11.21H175.37V790.4l35.27-32.33q8.75-8,12.34-14.42A27.8,27.8,0,0,0,226.57,729.91Z"/><path class="cls-1" d="M312,773.18q0-7.93-5.06-12.31T292.6,756.5h-8.82V746.31h8.41q7.94,0,12.27-4.65t4.34-13q0-7.18-4.75-11.28t-12.88-4.11q-9.24,0-14.77,5.41t-5.95,15l-12.16-2.66a26.91,26.91,0,0,1,9.5-20.85q9.43-8,23.65-8t22.32,7q8.24,7,8.24,18.76a25.94,25.94,0,0,1-3.59,13.67,22.55,22.55,0,0,1-10.15,9q8.26,2.8,12.61,8.68a23,23,0,0,1,4.34,14q0,13.74-9.09,22t-24.48,8.27q-15.24,0-25.22-7.32a26.67,26.67,0,0,1-10.94-20l13.33-2.94q.82,9.24,6.6,14.22t15.76,5q9.7,0,15.24-5.12T312,773.18Z"/><path class="cls-1" d="M387.76,777.69H336.62v-9.43l47.51-64.4H401v62.62h14.42v11.21H401v24.2H387.76Zm0-59.68-35.82,48.47h35.82Z"/><path class="cls-1" d="M464.87,739.13q14.14,0,22.49,8.24t8.34,21.77q0,15.74-9.23,25.16t-25.36,9.3q-14.43,0-23.65-6.57a27.52,27.52,0,0,1-11.35-18.38l13.46-1.85q1.57,7.73,7,11.79t14.12,4.07q10.38,0,16-6t5.64-17q0-9.36-5-14.63t-14.11-5.26a26.48,26.48,0,0,0-12,2.84,24.91,24.91,0,0,0-9.19,7.55l-11.63-4.38,7.46-51.95h50.79v11.21H448.53l-4.92,31.65A32,32,0,0,1,464.87,739.13Z"/><path class="cls-1" d="M547.86,738.72q14.55,0,23.24,8.69t8.82,23.1a32.12,32.12,0,0,1-9.57,23.65q-9.44,9.44-23.93,9.44-17.91,0-27.14-12.24t-9.23-36.09q0-25.29,9.78-39.17t27.34-13.88q12.11,0,20.34,6.32t10.83,17.74l-13.26,2.26q-2.46-8.2-6.83-11.79t-11.56-3.59q-11.28,0-17.5,10.59t-6.29,27.89a26.56,26.56,0,0,1,10.46-9.53A31.14,31.14,0,0,1,547.86,738.72ZM524.61,771.4q0,9.36,5.92,15.45t15.21,6.08a20.1,20.1,0,0,0,15.1-6.15q6-6,6-15.58,0-10.34-5.54-16.07T546,749.39q-9.51,0-15.45,6.15T524.61,771.4Z"/><path class="cls-1" d="M642.19,715.35H590.51V703.86h66.93V714.8Q640.07,731.54,633,748.29q-6.9,16.07-6.9,40.88v12.72H612.8V789q0-23.52,7.14-41.39A91.25,91.25,0,0,1,642.19,715.35Z"/><path class="cls-1" d="M722.51,750.21a24,24,0,0,1,12.31,9.19,28.06,28.06,0,0,1-5.47,36.06q-9.57,8.14-25.29,8.14-16,0-25.64-8t-9.5-21.12A25,25,0,0,1,673.33,760a26.68,26.68,0,0,1,12.47-9.6,22.27,22.27,0,0,1-10.66-8.45,23.84,23.84,0,0,1-3.69-13.36,23.44,23.44,0,0,1,8.95-19.07q8.9-7.25,23.66-7.25,15.11,0,23.79,7.08t8.68,19.24a23.58,23.58,0,0,1-3.63,13.16A22.83,22.83,0,0,1,722.51,750.21ZM725.73,774a16.8,16.8,0,0,0-5.88-13.4q-5.88-5.05-15.79-5.06t-16,5.06a16.76,16.76,0,0,0-5.91,13.4q0,8.82,5.85,13.87t16,5.06q10.11,0,15.89-5.09T725.73,774Zm-41.29-45.19a15.44,15.44,0,0,0,5.33,12.07q5.33,4.75,14.29,4.75,8.75,0,14.08-4.79a15.49,15.49,0,0,0,5.33-12q0-7.51-5.23-11.82t-14.18-4.31q-9.16,0-14.39,4.31T684.44,728.81Z"/><path class="cls-1" d="M786.5,767q-14.49,0-23.38-8.69-8.68-8.67-8.68-23.1a31.94,31.94,0,0,1,9.5-23.52q9.49-9.5,23.93-9.5,18,0,27.17,12.2t9.19,36.06q0,25.29-9.74,39.21T787.18,803.6q-12.09,0-20.37-6.36t-10.87-17.77l13.33-2.19q2.46,8.21,6.8,11.79t11.52,3.59q11.35,0,17.37-10.66,6.21-10.61,6.42-27.83A26.38,26.38,0,0,1,801,763.68,31.29,31.29,0,0,1,786.5,767Zm23.24-32.61a21.29,21.29,0,0,0-6-15.49,20.34,20.34,0,0,0-15.24-6.11A20.73,20.73,0,0,0,773.3,719q-5.88,6.08-5.87,15.51,0,10.34,5.53,16.07t15.32,5.74q9.5,0,15.48-6.15T809.74,734.42Z"/><path class="cls-1" d="M840.37,752.87q0-23.45,9.63-37.11t27-13.54q17.49,0,27.07,13.54,9.76,13.32,9.77,37.11,0,23.6-9.77,37.12T877,803.6q-17.44,0-27-13.4T840.37,752.87Zm54,29.23q6.12-10.29,6.12-29.23t-6.08-29.18q-6.09-10.26-17.43-10.26-11,0-17.2,10.49t-6.18,29q0,19,6,29.26T877,792.39Q888.29,792.39,894.4,782.1Z"/><path class="cls-1" d="M122,951.89H106.66V936.1H122Zm-12-26.32-2.8-56.4V853.86h14.56v15.31l-2.66,56.4Z"/><path class="cls-1" d="M191.16,944.44q-10.53,0-16.89-6.84t-6.36-18.05q0-16,8.41-26.86,8.69-10.94,22.08-10.94a21.59,21.59,0,0,1,11.38,3,19.2,19.2,0,0,1,7.56,8.37l2.12-10h11.75l-7.86,39.1q-1.36,6.84.65,10t7.9,3.15q7.38,0,12-8.17t4.65-22a43.85,43.85,0,0,0-3.69-17.33,40.42,40.42,0,0,0-10.19-14.46q-12-11.21-33-11.21-22.27,0-36.57,15.11a50.84,50.84,0,0,0-10.83,17,54,54,0,0,0-3.87,20q0,21.74,13.33,35.69t34,13.87a65.07,65.07,0,0,0,16.68-2,74.43,74.43,0,0,0,16.68-7.08l4.3,8.41a81.29,81.29,0,0,1-18.83,8.17,70.86,70.86,0,0,1-18.83,2.43q-25.84,0-42.38-16.75t-16.55-42.32a64.4,64.4,0,0,1,18.32-44.5q17.71-17.91,44.57-17.91,25.09,0,41.84,15,16.54,14.84,16.54,37.53,0,18.46-8,29.12a24.93,24.93,0,0,1-21,10.6A23.49,23.49,0,0,1,219,941.5a13.85,13.85,0,0,1-6.59-7.93A24.81,24.81,0,0,1,191.16,944.44ZM180.08,918.6q0,7.46,3.66,11.69t10.08,4.24q8.48,0,14.15-7.87a30.16,30.16,0,0,0,5.74-18.18q0-7.59-4-12.13A13.56,13.56,0,0,0,199,891.8q-8.42,0-13.61,8.14A33.29,33.29,0,0,0,180.08,918.6Z"/><path class="cls-1" d="M322.27,923.59H300.12l-2.05,28.3H286.45l2.05-28.3H272.71V914h16.54l1.51-22.15H275v-9.64h16.48l2-28.3H305l-2,28.3h22l2.12-28.3h11.62l-2.12,28.3h15.93v9.64H336.15L334.44,914H350.3v9.64H333.89l-2.12,28.3H320.15Zm2.26-31.79H302.38L300.87,914h21.95Z"/><path class="cls-1" d="M402.32,953.46v17h-9V953.26q-13.8-1.38-21.77-9.88t-8.3-22l13-1.44q.35,9.64,4.69,15.42t12.4,7.14V907.11l-2.94-.89q-13.12-4.23-18.59-10.8t-5.47-17.15a24.18,24.18,0,0,1,7.25-17.78q7.31-7.31,19.75-8.13V835.27h9v17.36q11.15,1.57,17.94,9.06t8,19.24L415,882.3q-1.63-15.59-12.71-18.73v33.7l2.25.75q14.83,4.86,20,10.87,5.47,6.09,5.47,17a26.15,26.15,0,0,1-7.59,18.94Q415,952.43,402.32,953.46ZM378.67,878.4c0,4.2,1,7.45,3.14,9.78s5.95,4.42,11.55,6.29V863q-7,.69-10.83,4.85A14.89,14.89,0,0,0,378.67,878.4Zm38.48,47.85q0-6.21-2.94-9.77-2.81-3.35-11.89-6.56v32.74a16.72,16.72,0,0,0,10.87-5.4A16.11,16.11,0,0,0,417.15,926.25Z"/><path class="cls-1" d="M447,896.72q-6.47-7-6.46-18.32t6.5-18.35q6.48-7,17.29-7t17.36,7.18q6.57,7.11,6.57,18.18t-6.57,18.32q-6.42,7-17.36,7T447,896.72Zm91.09-42.86-78,98H448.94l78.07-98ZM477.45,878.4c0-5.28-1.14-9.39-3.42-12.3s-5.52-4.38-9.71-4.38a11.45,11.45,0,0,0-9.6,4.48q-3.47,4.49-3.46,12.2t3.46,12.1a11.53,11.53,0,0,0,9.6,4.38q6.29,0,9.71-4.38T477.45,878.4Zm27.92,67.34q-6.47-7-6.46-18.32t6.49-18.36q6.5-7,17.3-7t17.29,7q6.5,7,6.5,18.36T540,945.74q-6.46,7-17.33,7T505.37,945.74Zm27-6.12q3.35-4.27,3.35-12.2t-3.35-12.31q-3.36-4.36-9.64-4.37a11.47,11.47,0,0,0-9.61,4.47q-3.45,4.49-3.45,12.21t3.45,12.1a11.59,11.59,0,0,0,9.61,4.37Q529,943.89,532.34,939.62Z"/><path class="cls-1" d="M593.18,953.6q-15.58,0-25.3-7.45-9.71-7.67-9.7-20.44a23.44,23.44,0,0,1,4.37-14.15q4.73-6.43,15.93-12.72Q568,886.81,568,876.15q0-10.93,7.11-17.37a26.91,26.91,0,0,1,18.32-6.56q10.74,0,17.3,5.64t6.56,15.07a21.86,21.86,0,0,1-4.65,13.61q-4.17,5.73-16.95,13.53l25.5,27.21Q625,918.4,625,903.56l11.9,1.57q0,19.35-7.25,31.1l14.7,15.66h-16l-6.83-7.45Q610.68,953.59,593.18,953.6Zm-21.95-28.71a16.36,16.36,0,0,0,6.29,13.36q6.3,5.1,16.07,5.09,14,0,20.64-6.42l-29.12-31.11q-7.65,4.59-10.77,8.93A17,17,0,0,0,571.23,924.89Zm22.08-63.17a12.62,12.62,0,0,0-9.5,3.76,12.91,12.91,0,0,0-3.62,9.3,20.46,20.46,0,0,0,1.85,8.68q1.85,3.9,7.51,10,9.16-6.15,12.65-10.49a14.7,14.7,0,0,0,3.49-9.4q0-5.61-3.28-8.75T593.31,861.72Z"/><path class="cls-1" d="M697.49,875.6,680,880.79l11,15.39-8.07,5.74L671.72,886.2l-11.34,15.72-8.14-5.74,11.07-15.25-17.77-5.33,2.94-9.5,17.91,5.26v-17.5h10.39v17.5l17.91-5.26Z"/><path class="cls-1" d="M775.7,935.48l-63-28v-9.36l63-27.89v12.85l-47,19.75,47,19.76Z"/><path class="cls-1" d="M864.43,898.16v9.36l-63,28V922.63l47.1-19.76-47.1-19.75V870.27Z"/><path class="cls-1" d="M917.75,899.25q8.34-7.11,10.8-11.35a17.53,17.53,0,0,0,2.19-9.09q0-7.3-4.41-11.41t-12.48-4.11q-10.11,0-16.13,6.74t-6.84,19.31l-12.23-2q.2-15.87,10.25-25.5,9.84-9.65,25.36-9.64,14.22,0,22.15,7.08t7.93,19.24q0,8.48-6.15,16.82A39.45,39.45,0,0,1,935,899q-1.37,1.57-9.84,8.95-4,3.5-5.16,4.75a13,13,0,0,0-2,2.64c-1,2-1.57,5.37-1.71,10.25H904.42q0-9.57,2.12-14.15Q908.45,907.25,917.75,899.25Zm.27,52.64H902.64V936.1H918Z"/></svg>