<svg id="Graphics" xmlns="http://www.w3.org/2000/svg" viewBox="0 0 1920 1080"><defs><style>.cls-1{fill:#fff;}</style></defs><path class="cls-1" d="M234.44,178.56a53.49,53.49,0,0,0-5,11,35.24,35.24,0,0,0-1.76,10.8q0,12,7.68,18.88t21.28,6.88a42.36,42.36,0,0,0,13.92-2.16,29.62,29.62,0,0,0,10.56-6.16,27.79,27.79,0,0,0,6.72-9.68,32,32,0,0,0,2.4-12.56,38.62,38.62,0,0,0-2.48-12.64,66.37,66.37,0,0,0-6.8-13.76l9-7.68,4.88,9.2a43.42,43.42,0,0,0,4.48,7,17.29,17.29,0,0,0,5,4.4,13.63,13.63,0,0,0,6.72,1.52q7.68,0,11.2-3.36T326,168.64V163.2l9.12-2.24q0,12.31,2.8,17.44t10.32,5.12a19.76,19.76,0,0,0,3.92-.4,16,16,0,0,0,3.68-1.2,7.76,7.76,0,0,0,2.72-2.08,4.69,4.69,0,0,0,1-3q0-2.09-1.92-7a53.59,53.59,0,0,0-6.56-11.28l8.16-8.64A43,43,0,0,1,366.76,163a37.59,37.59,0,0,1,2.4,12.16q0,9.6-6.08,15.12t-15.36,5.52q-13.29,0-17.6-10.88Q324,195.84,311.4,195.84q-8,0-12-4.48a28.11,28.11,0,0,1,.4,3.6,25.72,25.72,0,0,1-.08,3.44A47,47,0,0,1,296,214.72a37.65,37.65,0,0,1-8.88,12.64,39.48,39.48,0,0,1-13.68,8.16,53.17,53.17,0,0,1-18.08,2.88,44.67,44.67,0,0,1-15-2.4,32.82,32.82,0,0,1-11.68-7,31.28,31.28,0,0,1-7.6-11.2,39.06,39.06,0,0,1-2.72-15,46.36,46.36,0,0,1,2.08-14.4,62.32,62.32,0,0,1,6.56-13.6Z"/><path class="cls-1" d="M434.12,182.08a30.71,30.71,0,0,1-3.2,13.6,55,55,0,0,1-8.8,12.72,103.38,103.38,0,0,1-13.28,12.08q-7.68,5.91-16.48,11.84l-8.16-7.84a196.26,196.26,0,0,0,17.12-11.76,139.19,139.19,0,0,0,12.72-11A53.81,53.81,0,0,0,422,192q2.71-4.49,2.72-7.84a17.38,17.38,0,0,0-.8-4.8,48.52,48.52,0,0,0-2.16-5.76q-1.37-3-3.2-6.24t-3.92-6.24l8.16-8.16a65.42,65.42,0,0,1,8.64,15.6A39.87,39.87,0,0,1,434.12,182.08ZM410.6,140.8,401.32,133l6.88-8.16,9.28,7.84ZM418,122.08l-9-7.36,6.72-8,8.8,7.68ZM429.8,140.8,420.52,133l6.88-8.16,9.28,7.84Z"/><path class="cls-1" d="M499.07,182.08a30.58,30.58,0,0,1-3.2,13.6,54.39,54.39,0,0,1-8.8,12.72,102.72,102.72,0,0,1-13.28,12.08q-7.68,5.91-16.48,11.84l-8.16-7.84a194.75,194.75,0,0,0,17.12-11.76,136.54,136.54,0,0,0,12.72-11,53,53,0,0,0,7.92-9.68c1.82-3,2.72-5.6,2.72-7.84a17,17,0,0,0-.8-4.8,45.26,45.26,0,0,0-2.16-5.76,66.1,66.1,0,0,0-3.2-6.24q-1.83-3.2-3.92-6.24l8.16-8.16a64.72,64.72,0,0,1,8.64,15.6A39.63,39.63,0,0,1,499.07,182.08ZM485.31,140.8l-9.76-8.32,7.2-8.48,9.76,8.16Z"/><path class="cls-1" d="M564,182.08a30.71,30.71,0,0,1-3.2,13.6A55,55,0,0,1,552,208.4a103.38,103.38,0,0,1-13.28,12.08q-7.68,5.91-16.48,11.84l-8.16-7.84a194.75,194.75,0,0,0,17.12-11.76,139.19,139.19,0,0,0,12.72-11,53.81,53.81,0,0,0,7.92-9.68q2.71-4.49,2.72-7.84a17.38,17.38,0,0,0-.8-4.8,48.52,48.52,0,0,0-2.16-5.76q-1.36-3-3.2-6.24t-3.92-6.24l8.16-8.16a65.42,65.42,0,0,1,8.64,15.6A39.87,39.87,0,0,1,564,182.08Z"/><path class="cls-1" d="M648.51,172.8q0,7.51-2.8,12.32a20.56,20.56,0,0,1-7.44,7.52,31.59,31.59,0,0,1-10.72,3.76,75.31,75.31,0,0,1-12.64,1,45.46,45.46,0,0,1-13-1.6,22.3,22.3,0,0,1-9.92-6.72l5.44-9.12a20.42,20.42,0,0,0,8.24,4.16,45.7,45.7,0,0,0,10,1q11.52,0,17.6-3t6.08-7.52a16.43,16.43,0,0,0-1.2-5.36,32.54,32.54,0,0,0-4.08-7.36,64.1,64.1,0,0,0-7.76-8.8,90.79,90.79,0,0,0-12.24-9.68l4.8-11.68a75.35,75.35,0,0,1,11,8.08,71.59,71.59,0,0,1,9.52,10.16A52.65,52.65,0,0,1,646,161.2,29.54,29.54,0,0,1,648.51,172.8ZM620,118.24l-9.76-8.32,7.2-8.48,9.76,8.16Z"/><path class="cls-1" d="M733,172.8q0,7.51-2.8,12.32a20.41,20.41,0,0,1-7.44,7.52A31.44,31.44,0,0,1,712,196.4a75.13,75.13,0,0,1-12.64,1,45.46,45.46,0,0,1-13-1.6,22.35,22.35,0,0,1-9.92-6.72l5.44-9.12a20.54,20.54,0,0,0,8.24,4.16,45.77,45.77,0,0,0,10,1q11.52,0,17.6-3t6.08-7.52a16.43,16.43,0,0,0-1.2-5.36,32.54,32.54,0,0,0-4.08-7.36,63.43,63.43,0,0,0-7.76-8.8,89.54,89.54,0,0,0-12.24-9.68l4.8-11.68a74.28,74.28,0,0,1,11,8.08,70.46,70.46,0,0,1,9.52,10.16,51.84,51.84,0,0,1,6.64,11.28A29.37,29.37,0,0,1,733,172.8Z"/><path class="cls-1" d="M814.42,163.52q-5.11-1-9.92-2.16T795.62,159q-4.08-1.12-7.28-1.92a22.48,22.48,0,0,0-5.12-.8,8,8,0,0,0-6.32,3.12,58.32,58.32,0,0,0-5.68,8.4l-7.2-3.52q4.49-10.08,8.8-15t9.92-4.88a35.33,35.33,0,0,1,9.84,1.76q5.83,1.75,12.72,3.92t14.32,3.92a64.27,64.27,0,0,0,14.8,1.76H838c.91,0,2.11-.05,3.6-.16l-3,12a73.78,73.78,0,0,0-13.36,2.08,99.21,99.21,0,0,0-14.64,4.8,103.11,103.11,0,0,0-14.32,7.28,67.52,67.52,0,0,0-12.32,9.52A43.85,43.85,0,0,0,775.38,203a30.36,30.36,0,0,0-3.2,13.76,34.87,34.87,0,0,0,2.24,12.56,24.49,24.49,0,0,0,7.44,10.16,36.86,36.86,0,0,0,13.76,6.72,79.06,79.06,0,0,0,21,2.4,112.06,112.06,0,0,0,16.64-1.2A116.83,116.83,0,0,0,848,244.32l3,9.92a99.77,99.77,0,0,1-18.56,4.88,114.17,114.17,0,0,1-18.08,1.52,88.77,88.77,0,0,1-20.48-2.24,45,45,0,0,1-16.24-7.2,34.47,34.47,0,0,1-10.72-13q-3.91-8.08-3.92-19.6a43.85,43.85,0,0,1,3.44-17,51.51,51.51,0,0,1,10.08-15.36,74.87,74.87,0,0,1,16.16-12.88A105.51,105.51,0,0,1,814.42,163.52ZM789.94,127l-9.76-8.32,7.2-8.48,9.76,8.16Z"/><path class="cls-1" d="M923.06,163.52q-5.13-1-9.92-2.16T904.26,159q-4.08-1.12-7.28-1.92a22.56,22.56,0,0,0-5.12-.8,8,8,0,0,0-6.32,3.12,57.52,57.52,0,0,0-5.68,8.4l-7.2-3.52q4.47-10.08,8.8-15t9.92-4.88a35.45,35.45,0,0,1,9.84,1.76q5.84,1.75,12.72,3.92t14.32,3.92a64.27,64.27,0,0,0,14.8,1.76h3.6c.9,0,2.1-.05,3.6-.16l-3,12a73.64,73.64,0,0,0-13.36,2.08,98.45,98.45,0,0,0-14.64,4.8,103.11,103.11,0,0,0-14.32,7.28,67.52,67.52,0,0,0-12.32,9.52A43.63,43.63,0,0,0,884,203a30.23,30.23,0,0,0-3.2,13.76,34.66,34.66,0,0,0,2.24,12.56,24.49,24.49,0,0,0,7.44,10.16,36.79,36.79,0,0,0,13.76,6.72,79,79,0,0,0,21,2.4,112.16,112.16,0,0,0,16.64-1.2,116.83,116.83,0,0,0,14.72-3.12l3,9.92a99.77,99.77,0,0,1-18.56,4.88,114.27,114.27,0,0,1-18.08,1.52,88.77,88.77,0,0,1-20.48-2.24,44.9,44.9,0,0,1-16.24-7.2,34.38,34.38,0,0,1-10.72-13q-3.93-8.08-3.92-19.6a43.67,43.67,0,0,1,3.44-17,51.51,51.51,0,0,1,10.08-15.36,74.62,74.62,0,0,1,16.16-12.88A105.27,105.27,0,0,1,923.06,163.52Z"/><path class="cls-1" d="M1031.7,163.52q-5.13-1-9.92-2.16T1012.9,159q-4.08-1.12-7.28-1.92a22.56,22.56,0,0,0-5.12-.8,8,8,0,0,0-6.32,3.12,57.52,57.52,0,0,0-5.68,8.4l-7.2-3.52q4.47-10.08,8.8-15t9.92-4.88a35.45,35.45,0,0,1,9.84,1.76q5.83,1.75,12.72,3.92t14.32,3.92a64.27,64.27,0,0,0,14.8,1.76h3.6c.9,0,2.1-.05,3.6-.16l-3,12a73.64,73.64,0,0,0-13.36,2.08,98.45,98.45,0,0,0-14.64,4.8,103.11,103.11,0,0,0-14.32,7.28,67.52,67.52,0,0,0-12.32,9.52A43.63,43.63,0,0,0,992.66,203a30.23,30.23,0,0,0-3.2,13.76,34.66,34.66,0,0,0,2.24,12.56,24.49,24.49,0,0,0,7.44,10.16,36.79,36.79,0,0,0,13.76,6.72,79,79,0,0,0,21,2.4,112.16,112.16,0,0,0,16.64-1.2,116.83,116.83,0,0,0,14.72-3.12l3,9.92a99.77,99.77,0,0,1-18.56,4.88,114.27,114.27,0,0,1-18.08,1.52,88.77,88.77,0,0,1-20.48-2.24A44.9,44.9,0,0,1,995,251.2a34.38,34.38,0,0,1-10.72-13q-3.93-8.08-3.92-19.6a43.67,43.67,0,0,1,3.44-17,51.51,51.51,0,0,1,10.08-15.36A74.62,74.62,0,0,1,1010,173.28,105.27,105.27,0,0,1,1031.7,163.52Zm-18.24,44,6.56-7.84,8.64,7.68-6.24,7.68ZM1025,224.8l6.24-7.52,8.48,7.36-6.4,7.36Zm6.72-17.28,6.56-7.84,8.64,7.68-6.24,7.68Z"/><path class="cls-1" d="M1140.34,163.52q-5.13-1-9.92-2.16t-8.88-2.32q-4.08-1.12-7.28-1.92a22.56,22.56,0,0,0-5.12-.8,8,8,0,0,0-6.32,3.12,57.52,57.52,0,0,0-5.68,8.4l-7.2-3.52q4.47-10.08,8.8-15t9.92-4.88a35.45,35.45,0,0,1,9.84,1.76q5.84,1.75,12.72,3.92t14.32,3.92a64.27,64.27,0,0,0,14.8,1.76h3.6c.9,0,2.1-.05,3.6-.16l-3,12a73.64,73.64,0,0,0-13.36,2.08,98.45,98.45,0,0,0-14.64,4.8,103.11,103.11,0,0,0-14.32,7.28,67.52,67.52,0,0,0-12.32,9.52A43.63,43.63,0,0,0,1101.3,203a30.23,30.23,0,0,0-3.2,13.76,34.66,34.66,0,0,0,2.24,12.56,24.49,24.49,0,0,0,7.44,10.16,36.79,36.79,0,0,0,13.76,6.72,79,79,0,0,0,21,2.4,112.16,112.16,0,0,0,16.64-1.2,116.83,116.83,0,0,0,14.72-3.12l3,9.92a99.77,99.77,0,0,1-18.56,4.88,114.27,114.27,0,0,1-18.08,1.52,88.77,88.77,0,0,1-20.48-2.24,44.9,44.9,0,0,1-16.24-7.2,34.38,34.38,0,0,1-10.72-13q-3.93-8.08-3.92-19.6a43.67,43.67,0,0,1,3.44-17,51.51,51.51,0,0,1,10.08-15.36,74.62,74.62,0,0,1,16.16-12.88A105.27,105.27,0,0,1,1140.34,163.52Zm-1.12,57.76-9.76-8.32,7.2-8.48,9.76,8.16Z"/><path class="cls-1" d="M1206.89,172.64q0,7.85,10,11t29.36,3.12q7.05,0,14.4-.48T1275,185q7-.79,13-1.92a86.69,86.69,0,0,0,10.48-2.56q6.57-2.23,9-4.24a9.36,9.36,0,0,0,3-3.28,30.52,30.52,0,0,0-1.92-6.32,54.5,54.5,0,0,0-6.4-10.8l8.32-8.64a44.6,44.6,0,0,1,6.88,12.56,36.18,36.18,0,0,1,2.24,11.76,16.39,16.39,0,0,1-2.48,9.12,22,22,0,0,1-6.48,6.48,37.7,37.7,0,0,1-9.12,4.32,79.85,79.85,0,0,1-10.24,2.64q-5.28,1.28-11.52,2.24t-12.64,1.6q-6.39.63-12.48.88t-10.72.24q-9,0-17.28-.72a54.68,54.68,0,0,1-14.8-3.2,23.46,23.46,0,0,1-10.32-7.36q-3.84-4.87-3.84-13a36.89,36.89,0,0,1,1.12-8,38,38,0,0,1,4-9.92l7.36,2.88a48.44,48.44,0,0,0-2.56,7.52A25.52,25.52,0,0,0,1206.89,172.64Zm40.8-18.4-9.28-7.84,6.88-8.16,9.28,7.84Zm7.36-18.72-9-7.36,6.72-8,8.8,7.68Zm11.84,18.72-9.28-7.84,6.88-8.16,9.28,7.84Z"/><path class="cls-1" d="M1358.89,172.64q0,7.85,10,11t29.36,3.12q7,0,14.4-.48T1427,185q7-.79,13-1.92a87.16,87.16,0,0,0,10.48-2.56q6.55-2.23,9-4.24a9.47,9.47,0,0,0,3-3.28,30.52,30.52,0,0,0-1.92-6.32,55,55,0,0,0-6.4-10.8l8.32-8.64a44.85,44.85,0,0,1,6.88,12.56,36.44,36.44,0,0,1,2.24,11.76,16.47,16.47,0,0,1-2.48,9.12,22,22,0,0,1-6.48,6.48,38.06,38.06,0,0,1-9.12,4.32,80.28,80.28,0,0,1-10.24,2.64q-5.28,1.28-11.52,2.24t-12.64,1.6q-6.4.63-12.48.88c-4,.16-7.63.24-10.72.24q-9,0-17.28-.72a54.6,54.6,0,0,1-14.8-3.2,23.46,23.46,0,0,1-10.32-7.36q-3.84-4.87-3.84-13a36.28,36.28,0,0,1,1.12-8,38,38,0,0,1,4-9.92l7.36,2.88a48.44,48.44,0,0,0-2.56,7.52A24.89,24.89,0,0,0,1358.89,172.64Zm41-18.4-9.44-7.84,6.88-8.16,9.28,7.84Zm19,0-9.28-7.84,7-8.16,9.12,7.84Z"/><path class="cls-1" d="M1510.89,172.64q0,7.85,10,11t29.36,3.12q7,0,14.4-.48T1579,185q7-.79,13-1.92a87.16,87.16,0,0,0,10.48-2.56q6.55-2.23,9-4.24a9.47,9.47,0,0,0,3-3.28,31.83,31.83,0,0,0-1.92-6.32,55,55,0,0,0-6.4-10.8l8.32-8.64a45.1,45.1,0,0,1,6.88,12.56,36.44,36.44,0,0,1,2.24,11.76,16.47,16.47,0,0,1-2.48,9.12,22.23,22.23,0,0,1-6.48,6.48,38.06,38.06,0,0,1-9.12,4.32,80.71,80.71,0,0,1-10.24,2.64q-5.28,1.28-11.52,2.24t-12.64,1.6q-6.4.63-12.48.88t-10.72.24q-9,0-17.28-.72a54.6,54.6,0,0,1-14.8-3.2,23.46,23.46,0,0,1-10.32-7.36q-3.84-4.87-3.84-13a36.28,36.28,0,0,1,1.12-8,37.66,37.66,0,0,1,4-9.92l7.36,2.88a47.39,47.39,0,0,0-2.56,7.52A24.89,24.89,0,0,0,1510.89,172.64Zm30.4,46.4,7-8.32,9.12,8-6.72,8.16Zm12.16,18.08,6.56-7.84,9,7.68-6.72,7.84Zm7-18.08,7-8.32,9.12,8-6.72,8.16Z"/><path class="cls-1" d="M1662.89,172.64q0,7.85,10,11t29.36,3.12q7,0,14.4-.48T1731,185q7-.79,13-1.92a87.16,87.16,0,0,0,10.48-2.56q6.55-2.23,9-4.24a9.47,9.47,0,0,0,3-3.28,31.83,31.83,0,0,0-1.92-6.32,55,55,0,0,0-6.4-10.8l8.32-8.64a45.1,45.1,0,0,1,6.88,12.56,36.44,36.44,0,0,1,2.24,11.76,16.47,16.47,0,0,1-2.48,9.12,22.23,22.23,0,0,1-6.48,6.48,38.06,38.06,0,0,1-9.12,4.32,80.71,80.71,0,0,1-10.24,2.64q-5.28,1.28-11.52,2.24t-12.64,1.6q-6.4.63-12.48.88t-10.72.24q-9,0-17.28-.72a54.6,54.6,0,0,1-14.8-3.2,23.46,23.46,0,0,1-10.32-7.36q-3.84-4.87-3.84-13a36.28,36.28,0,0,1,1.12-8,37.66,37.66,0,0,1,4-9.92l7.36,2.88a47.39,47.39,0,0,0-2.56,7.52A24.89,24.89,0,0,0,1662.89,172.64Zm49.44,54.88-9.76-8.32,7.2-8.48,9.76,8.16Z"/><path class="cls-1" d="M1838.72,72.16a23.36,23.36,0,0,1-8.48,7.28,21.45,21.45,0,0,1-9.6,2.48,35.43,35.43,0,0,1-9-1.12,30.42,30.42,0,0,0-7.52-1.12,6.9,6.9,0,0,0-3.52,1,25.55,25.55,0,0,0-4.16,3.28L1792,78.56a43.84,43.84,0,0,1,6.56-6.08,9.47,9.47,0,0,1,5.44-1.76,27.55,27.55,0,0,1,7.68,1.28,29.89,29.89,0,0,0,8.48,1.28,18.88,18.88,0,0,0,7.52-1.44,27.86,27.86,0,0,0,7.52-5.28Zm-25.6,124.64q-.48-25.76-.88-51.2t-.88-51.2l10.24-4.32V194.24Z"/><path class="cls-1" d="M200.83,366.88a13.61,13.61,0,0,1-1,5,17.72,17.72,0,0,1-2.8,4.8,15.78,15.78,0,0,1-4.16,3.6,10.07,10.07,0,0,1-5.28,1.44h-20.8q-6.87,0-8.88,3.12t-2,10.64v57.76h-8.8q-.31-17-.48-27.76t-.24-17.2q-.07-6.4-.08-9.12v-3.52q0-11.69,3-17.12a16.34,16.34,0,0,1,9-7.68,80.89,80.89,0,0,1,1-10.16,38.26,38.26,0,0,1,3-9.84,22.21,22.21,0,0,1,5.44-7.44,12.38,12.38,0,0,1,8.48-3,18.53,18.53,0,0,1,8.72,2.32,29.7,29.7,0,0,1,7.92,6.08,32.91,32.91,0,0,1,5.76,8.48A21.93,21.93,0,0,1,200.83,366.88Zm-8.64.32a11.61,11.61,0,0,0-1.76-5.12,23.71,23.71,0,0,0-4-5,22.85,22.85,0,0,0-5.28-3.84,12,12,0,0,0-5.6-1.52q-4.32,0-6.48,5.44a41.31,41.31,0,0,0-2.48,13.44c1.28.11,2.94.19,5,.24s4.11.08,6.24.08h10.08a3.86,3.86,0,0,0,2.88-1.12A5.12,5.12,0,0,0,192.19,367.2Z"/><path class="cls-1" d="M266.11,414.4a40,40,0,0,1-14-2.4,31.83,31.83,0,0,1-11.2-7,32.4,32.4,0,0,1-7.44-11.2,39.22,39.22,0,0,1-2.72-15,46.4,46.4,0,0,1,2.08-14.4,62.78,62.78,0,0,1,6.56-13.6l7.36,3.52a57.83,57.83,0,0,0-5,11.12,35.54,35.54,0,0,0-1.76,10.8q0,12,7.44,18.88t19.6,6.88q16.15,0,24.4-8.8t8.24-25.92q0-3-.08-11.76t-.16-21.36q-.08-12.64-.16-28.4t-.24-33.2l10.24-4.8v98.72q0,23.35-11.28,35.6T266.11,414.4Z"/><path class="cls-1" d="M439.87,361.92a20.7,20.7,0,0,1-2.8,10.88,26.42,26.42,0,0,1-7.44,7.92A40.37,40.37,0,0,1,419,386a88.52,88.52,0,0,1-12.24,3.12,113.46,113.46,0,0,1-12.32,1.52c-4.06.26-7.74.4-11,.4q-9,0-17.28-.72a54.6,54.6,0,0,1-14.8-3.2A23.46,23.46,0,0,1,341,379.76q-3.84-4.87-3.84-13a36.28,36.28,0,0,1,1.12-8,37.66,37.66,0,0,1,4-9.92l7.36,2.88a47.39,47.39,0,0,0-2.56,7.52,24.89,24.89,0,0,0-.64,5.44q0,7.85,10,11t29.36,3.12a130,130,0,0,0,14.88-.88,89,89,0,0,0,14.16-2.72,38.29,38.29,0,0,0,10.88-4.8q4.4-3,5.2-7.12-.48-6.88-7.6-15t-22-20.48a65.41,65.41,0,0,1,1.36-9.28,6.51,6.51,0,0,1,2.32-3.84q4.15-2.71,9.68-6.08t11.84-6.8q6.32-3.44,13-7T452.35,288l-1.6,13q-11.85,5.6-21.84,11.12t-17,10.16q14.24,12.17,21.12,21.6T439.87,361.92ZM448,282.24q-9.76,5.11-20.56,11.12t-22.16,13.2l1-8.32Q417,291.21,428,285t21.12-11.28Z"/><path class="cls-1" d="M574.27,361.92a20.62,20.62,0,0,1-2.81,10.88,26.18,26.18,0,0,1-7.44,7.92A40.22,40.22,0,0,1,553.38,386a88.39,88.39,0,0,1-12.23,3.12,113.77,113.77,0,0,1-12.32,1.52c-4.06.26-7.74.4-11,.4q-9,0-17.29-.72a54.52,54.52,0,0,1-14.79-3.2,23.43,23.43,0,0,1-10.33-7.36c-2.55-3.25-3.84-7.6-3.84-13a36.38,36.38,0,0,1,1.13-8,37.66,37.66,0,0,1,4-9.92l7.35,2.88a49.53,49.53,0,0,0-2.56,7.52,25.48,25.48,0,0,0-.63,5.44q0,7.85,10,11t29.36,3.12a129.94,129.94,0,0,0,14.87-.88,89.08,89.08,0,0,0,14.17-2.72,38.22,38.22,0,0,0,10.87-4.8q4.41-3,5.21-7.12-.49-6.88-7.6-15t-22-20.48a65.8,65.8,0,0,1,1.35-9.28,6.56,6.56,0,0,1,2.32-3.84q4.17-2.71,9.68-6.08t11.84-6.8q6.33-3.44,13-7T586.75,288l-1.6,13q-11.85,5.6-21.84,11.12t-17,10.16q14.24,12.17,21.11,21.6T574.27,361.92Z"/><path class="cls-1" d="M667.54,327.68a15.9,15.9,0,0,1,9.44,3,23.25,23.25,0,0,1,7,8.24,47.16,47.16,0,0,1,4.32,12.64,81.17,81.17,0,0,1,1.52,16.32,58.51,58.51,0,0,1-3,19.52,37.62,37.62,0,0,1-23.68,23.84,58.86,58.86,0,0,1-20.16,3.2,44.71,44.71,0,0,1-15-2.4,33,33,0,0,1-11.68-7,31.54,31.54,0,0,1-7.6-11.2,39.22,39.22,0,0,1-2.72-15,46.4,46.4,0,0,1,2.08-14.4,62.78,62.78,0,0,1,6.56-13.6l7.36,3.68a54,54,0,0,0-5,11,35.54,35.54,0,0,0-1.76,10.8q0,12,7.68,18.88t21.28,6.88q16,0,25.2-7.6T679.7,373.6c.11-.75.19-1.49.24-2.24s.08-1.55.08-2.4a26.87,26.87,0,0,1-8.72,3.2,45.58,45.58,0,0,1-7,.64,17.69,17.69,0,0,1-12-4.16q-4.8-4.15-4.8-12.48a35.38,35.38,0,0,1,1.52-10.08,33.86,33.86,0,0,1,4.24-9.2,24.61,24.61,0,0,1,6.4-6.64A13.46,13.46,0,0,1,667.54,327.68Zm-8.8-10.24-9.44-7.84,6.88-8.16,9.28,7.84Zm21,40.64a42,42,0,0,0-1.52-6.88,26.54,26.54,0,0,0-2.64-6,13.57,13.57,0,0,0-3.92-4.24,8.93,8.93,0,0,0-5.2-1.6,7,7,0,0,0-4.08,1.28,13.62,13.62,0,0,0-3.28,3.28,16.16,16.16,0,0,0-2.24,4.4A14.75,14.75,0,0,0,656,353a7.5,7.5,0,0,0,2.64,6.16q2.64,2.16,7.44,2.16a30.1,30.1,0,0,0,7.36-.88A27.67,27.67,0,0,0,679.7,358.08Zm-1.92-40.64-9.28-7.84,7-8.16,9.12,7.84Z"/><path class="cls-1" d="M819.54,320.32a13.9,13.9,0,0,1,10,3.92,28.81,28.81,0,0,1,6.56,9.84A53.82,53.82,0,0,1,839.62,347a88,88,0,0,1,1,12.88,24.89,24.89,0,0,1-2.56,11.84,22.91,22.91,0,0,1-7.28,8.08A38.27,38.27,0,0,1,819.3,385,147.27,147.27,0,0,1,804,388.32q-4.32.8-9.2,1.28c-3.25.32-6.53.58-9.84.8s-6.56.37-9.76.48-6.24.16-9.12.16q-9,0-17.28-.72a54.6,54.6,0,0,1-14.8-3.2,23.46,23.46,0,0,1-10.32-7.36q-3.84-4.87-3.84-13a36.28,36.28,0,0,1,1.12-8,38,38,0,0,1,4-9.92l7.36,2.88a48.44,48.44,0,0,0-2.56,7.52,24.89,24.89,0,0,0-.64,5.44q0,7.85,10,11t29.36,3.12q10.72,0,22-1a169.2,169.2,0,0,0,20.4-2.88,61.58,61.58,0,0,0,15-4.88q5.83-3,5.84-6.8v-3.36a34.17,34.17,0,0,1-8,2.64,37.71,37.71,0,0,1-6.88.72q-8.16,0-12.32-4.64t-4.16-12.8a30.41,30.41,0,0,1,1.44-9.2,29,29,0,0,1,4-8.16,21.75,21.75,0,0,1,6.08-5.84A14.07,14.07,0,0,1,819.54,320.32Zm-1.28,11.2q-3.84,0-6.8,3.76a14.43,14.43,0,0,0-3,9.2,8.28,8.28,0,0,0,2.08,5.6c1.39,1.6,3.73,2.4,7,2.4a31.72,31.72,0,0,0,7.44-.8,24.25,24.25,0,0,0,5.68-2.08,31.09,31.09,0,0,0-4.24-12.88Q823.21,331.52,818.26,331.52Zm.64-24.8-9.76-8.32,7.2-8.48,9.76,8.16Z"/><path class="cls-1" d="M919.06,336.64a57.45,57.45,0,0,0-8.88-3.36,34.66,34.66,0,0,0-9.2-1.12,18.71,18.71,0,0,0-6.56,1.12,18.12,18.12,0,0,0-5.2,2.88,12.35,12.35,0,0,0-3.36,4.24,11.44,11.44,0,0,0-1.2,5,11.3,11.3,0,0,0,1.76,6.16,17.82,17.82,0,0,0,4.4,4.8,22,22,0,0,0,5.68,3.12,16.54,16.54,0,0,0,5.76,1.12,21,21,0,0,0,5.44-1.12q3.67-1.12,8.08-2.64t9.2-3.28q4.8-1.75,9-3.2v11.84a135.24,135.24,0,0,0-26.24,10.4,73.7,73.7,0,0,0-17,12.16,41,41,0,0,0-9.2,13.12,34.65,34.65,0,0,0-2.8,13.44,30.05,30.05,0,0,0,2.08,11.28,23.44,23.44,0,0,0,6.64,9.12,32.75,32.75,0,0,0,11.92,6.16,62.91,62.91,0,0,0,18.08,2.24,128.09,128.09,0,0,0,16.88-1,105.15,105.15,0,0,0,15-3.12L952,446.24a110,110,0,0,1-18.48,4.88,107.9,107.9,0,0,1-17.84,1.52,72.08,72.08,0,0,1-18-2.16,40.78,40.78,0,0,1-14.56-6.8,32.5,32.5,0,0,1-9.76-12.16q-3.6-7.53-3.6-18.4a49.52,49.52,0,0,1,5.44-23q5.43-10.56,17-19.68a30.22,30.22,0,0,1-12.08-9.28,23.26,23.26,0,0,1-4.72-14.72,25.83,25.83,0,0,1,2.08-10.4,24.87,24.87,0,0,1,5.68-8.24,26.45,26.45,0,0,1,8.24-5.36,25.24,25.24,0,0,1,9.76-1.92,30.66,30.66,0,0,1,11.36,2.08,48,48,0,0,1,10.56,5.92ZM899.86,305l-9.76-8.32,7.2-8.48,9.76,8.16Z"/><path class="cls-1" d="M1017.14,336.64a57.45,57.45,0,0,0-8.88-3.36,34.66,34.66,0,0,0-9.2-1.12,18.71,18.71,0,0,0-6.56,1.12,18.12,18.12,0,0,0-5.2,2.88,12.35,12.35,0,0,0-3.36,4.24,11.44,11.44,0,0,0-1.2,5,11.3,11.3,0,0,0,1.76,6.16,17.82,17.82,0,0,0,4.4,4.8,22,22,0,0,0,5.68,3.12,16.54,16.54,0,0,0,5.76,1.12,21,21,0,0,0,5.44-1.12q3.68-1.12,8.08-2.64t9.2-3.28q4.8-1.75,9-3.2v11.84a135.24,135.24,0,0,0-26.24,10.4,73.7,73.7,0,0,0-17,12.16,41,41,0,0,0-9.2,13.12,34.65,34.65,0,0,0-2.8,13.44,30.05,30.05,0,0,0,2.08,11.28,23.44,23.44,0,0,0,6.64,9.12,32.75,32.75,0,0,0,11.92,6.16,62.91,62.91,0,0,0,18.08,2.24,128.09,128.09,0,0,0,16.88-1,105.15,105.15,0,0,0,15-3.12l2.72,10.24a110,110,0,0,1-18.48,4.88,107.9,107.9,0,0,1-17.84,1.52,72.08,72.08,0,0,1-18-2.16,40.78,40.78,0,0,1-14.56-6.8,32.5,32.5,0,0,1-9.76-12.16q-3.6-7.53-3.6-18.4a49.52,49.52,0,0,1,5.44-23q5.43-10.56,17-19.68a30.22,30.22,0,0,1-12.08-9.28,23.26,23.26,0,0,1-4.72-14.72,25.83,25.83,0,0,1,2.08-10.4,24.87,24.87,0,0,1,5.68-8.24,26.45,26.45,0,0,1,8.24-5.36,25.24,25.24,0,0,1,9.76-1.92,30.66,30.66,0,0,1,11.36,2.08,48,48,0,0,1,10.56,5.92Z"/><path class="cls-1" d="M1154.57,358.56a23.17,23.17,0,0,1-3.84,13.44,29.31,29.31,0,0,1-10.24,9.12,50,50,0,0,1-14.64,5.12,88.89,88.89,0,0,1-17,1.6h-9.44a87.32,87.32,0,0,1-20.64-2.16,44.29,44.29,0,0,1-14.24-5.84l3.2-8.8a48.71,48.71,0,0,0,9.36,3,67,67,0,0,0,9.68,1.28q5.28-6.56,8.24-10.72a13.92,13.92,0,0,0,3-8q0-2.4-.08-7.6c0-3.47-.11-7.41-.16-11.84s-.13-9.23-.24-14.4-.19-10.29-.24-15.36-.13-9.92-.24-14.56-.16-8.72-.16-12.24l10.24-4.8v76.64a65.1,65.1,0,0,1,14.16-10.88,28,28,0,0,1,13.36-3.68,20,20,0,0,1,13.92,5.76,21.39,21.39,0,0,1,4.4,6.48A20.39,20.39,0,0,1,1154.57,358.56Zm-10.24,2.08a9.43,9.43,0,0,0-.88-4,11.53,11.53,0,0,0-2.56-3.52,12.76,12.76,0,0,0-4-2.56,13.5,13.5,0,0,0-5.2-1q-7.2,0-15.84,6.72T1096.49,376h14.24a73.26,73.26,0,0,0,12.32-1,51.84,51.84,0,0,0,10.8-3,22.63,22.63,0,0,0,7.6-4.8A9,9,0,0,0,1144.33,360.64Zm-9-41.6-9.76-8.32,7.2-8.48,9.76,8.16Z"/><path class="cls-1" d="M1272.33,358.56a23.17,23.17,0,0,1-3.84,13.44,29.4,29.4,0,0,1-10.24,9.12,50,50,0,0,1-14.64,5.12,89,89,0,0,1-17,1.6h-9.44a87.2,87.2,0,0,1-20.64-2.16,44.19,44.19,0,0,1-14.24-5.84l3.2-8.8a48.71,48.71,0,0,0,9.36,3,66.8,66.8,0,0,0,9.68,1.28q5.28-6.56,8.24-10.72a13.92,13.92,0,0,0,3-8q0-2.4-.08-7.6t-.16-11.84q-.09-6.65-.24-14.4t-.24-15.36q-.09-7.6-.24-14.56t-.16-12.24l10.24-4.8v76.64A64.63,64.63,0,0,1,1239,341.6a28,28,0,0,1,13.36-3.68,20,20,0,0,1,13.92,5.76,21.39,21.39,0,0,1,4.4,6.48A20.39,20.39,0,0,1,1272.33,358.56Zm-10.24,2.08a9.59,9.59,0,0,0-.88-4,11.53,11.53,0,0,0-2.56-3.52,12.88,12.88,0,0,0-4-2.56,13.5,13.5,0,0,0-5.2-1q-7.2,0-15.84,6.72T1214.25,376h14.24a73.34,73.34,0,0,0,12.32-1,51.84,51.84,0,0,0,10.8-3,22.73,22.73,0,0,0,7.6-4.8A9,9,0,0,0,1262.09,360.64Z"/><path class="cls-1" d="M1457,358.56a23.1,23.1,0,0,1-3.85,13.44,29.36,29.36,0,0,1-10.23,9.12,50,50,0,0,1-14.64,5.12,89,89,0,0,1-17,1.6h-9.76a54.3,54.3,0,0,1-10.8-.88,14.92,14.92,0,0,1-7.6-4.24,42.58,42.58,0,0,1,.32,5.2,38.72,38.72,0,0,1-.32,5,45.65,45.65,0,0,1-4.08,15.36,36.51,36.51,0,0,1-9,11.84,39.66,39.66,0,0,1-13.45,7.6,53.65,53.65,0,0,1-17.35,2.64,44.67,44.67,0,0,1-15-2.4,33,33,0,0,1-11.69-7,31.39,31.39,0,0,1-7.59-11.2,39.06,39.06,0,0,1-2.72-15,46.36,46.36,0,0,1,2.08-14.4,62.32,62.32,0,0,1,6.56-13.6l7.36,3.68a53.49,53.49,0,0,0-5,11,35.24,35.24,0,0,0-1.76,10.8q0,12,7.68,18.88t21.28,6.88a42.4,42.4,0,0,0,13.92-2.16,29.79,29.79,0,0,0,10.56-6.16,27.92,27.92,0,0,0,6.72-9.68,32,32,0,0,0,2.39-12.56,38.37,38.37,0,0,0-2.48-12.64,65.83,65.83,0,0,0-6.79-13.76l9-7.68q2.55,5.12,4.56,8.8a51.68,51.68,0,0,0,3.84,6.16,31.06,31.06,0,0,0,3.52,4.08,11.16,11.16,0,0,0,3.76,2.4q4.32-5.76,9.84-12.32a113.54,113.54,0,0,1,11.68-12,68.69,68.69,0,0,1,12.8-9,27.47,27.47,0,0,1,13.2-3.6,19.34,19.34,0,0,1,7.59,1.52,19.67,19.67,0,0,1,6.33,4.24,21.39,21.39,0,0,1,4.4,6.48A20.39,20.39,0,0,1,1457,358.56Zm-10.08,2.08a9.59,9.59,0,0,0-.88-4,11.7,11.7,0,0,0-2.56-3.52,12.88,12.88,0,0,0-4-2.56,13.5,13.5,0,0,0-5.2-1q-7.37,0-15.84,6.72T1399.21,376h13.91a73.37,73.37,0,0,0,12.33-1,53.7,53.7,0,0,0,10.88-3,22.63,22.63,0,0,0,7.68-4.8A9,9,0,0,0,1446.89,360.64Zm-18.4-38.4-9.76-8.32,7.2-8.48,9.76,8.16Z"/><path class="cls-1" d="M1641.76,358.56a23.17,23.17,0,0,1-3.84,13.44,29.31,29.31,0,0,1-10.24,9.12,49.81,49.81,0,0,1-14.64,5.12,88.89,88.89,0,0,1-17,1.6h-9.76a54.44,54.44,0,0,1-10.8-.88,15,15,0,0,1-7.6-4.24,40.67,40.67,0,0,1,.32,5.2,37,37,0,0,1-.32,5,45.18,45.18,0,0,1-4.08,15.36,36.23,36.23,0,0,1-9,11.84,39.51,39.51,0,0,1-13.44,7.6A53.67,53.67,0,0,1,1524,430.4a44.71,44.71,0,0,1-15-2.4,33,33,0,0,1-11.68-7,31.54,31.54,0,0,1-7.6-11.2,39.25,39.25,0,0,1-2.72-15,46.65,46.65,0,0,1,2.08-14.4,63.25,63.25,0,0,1,6.56-13.6l7.36,3.68a54.58,54.58,0,0,0-5,11,35.54,35.54,0,0,0-1.76,10.8q0,12,7.68,18.88t21.28,6.88a42.36,42.36,0,0,0,13.92-2.16,29.62,29.62,0,0,0,10.56-6.16,27.79,27.79,0,0,0,6.72-9.68,32,32,0,0,0,2.4-12.56,38.37,38.37,0,0,0-2.48-12.64,65.88,65.88,0,0,0-6.8-13.76l9-7.68q2.57,5.12,4.56,8.8a54.39,54.39,0,0,0,3.84,6.16,32.64,32.64,0,0,0,3.52,4.08,11.26,11.26,0,0,0,3.76,2.4q4.32-5.76,9.84-12.32a114.54,114.54,0,0,1,11.68-12,69.35,69.35,0,0,1,12.8-9,27.53,27.53,0,0,1,13.2-3.6,19.39,19.39,0,0,1,7.6,1.52,19.63,19.63,0,0,1,6.32,4.24,21.21,21.21,0,0,1,4.4,6.48A20.39,20.39,0,0,1,1641.76,358.56Zm-10.08,2.08a9.43,9.43,0,0,0-.88-4,11.37,11.37,0,0,0-2.56-3.52,12.76,12.76,0,0,0-4-2.56,13.46,13.46,0,0,0-5.2-1q-7.35,0-15.84,6.72T1584,376h13.92a73.26,73.26,0,0,0,12.32-1,53.34,53.34,0,0,0,10.88-3,22.54,22.54,0,0,0,7.68-4.8A9,9,0,0,0,1631.68,360.64Z"/><path class="cls-1" d="M1687.84,370.56a54,54,0,0,0-5,11,35.54,35.54,0,0,0-1.76,10.8q0,12,7.68,18.88t21.28,6.88a42.36,42.36,0,0,0,13.92-2.16,29.62,29.62,0,0,0,10.56-6.16,27.79,27.79,0,0,0,6.72-9.68,32,32,0,0,0,2.4-12.56,38.62,38.62,0,0,0-2.48-12.64,65.88,65.88,0,0,0-6.8-13.76l9-7.68,4.88,9.2a43.42,43.42,0,0,0,4.48,7,17.55,17.55,0,0,0,5,4.4,13.63,13.63,0,0,0,6.72,1.52q7.68,0,11.2-3.36t3.68-11.52V355.2l9.12-2.24q0,12.32,2.8,17.44t10.32,5.12a19.68,19.68,0,0,0,3.92-.4,16,16,0,0,0,3.68-1.2,7.67,7.67,0,0,0,2.72-2.08,4.69,4.69,0,0,0,1-3q0-2.08-1.92-7a53.59,53.59,0,0,0-6.56-11.28l8.16-8.64a43,43,0,0,1,7.52,13.12,37.59,37.59,0,0,1,2.4,12.16q0,9.6-6.08,15.12t-15.36,5.52q-13.27,0-17.6-10.88-6.07,10.88-18.72,10.88-8,0-12-4.48a26.43,26.43,0,0,1,.4,3.6,24.15,24.15,0,0,1-.08,3.44,47,47,0,0,1-3.68,16.32,37.37,37.37,0,0,1-8.88,12.64,39.48,39.48,0,0,1-13.68,8.16,53.13,53.13,0,0,1-18.08,2.88,44.67,44.67,0,0,1-15-2.4,32.91,32.91,0,0,1-11.68-7,31.41,31.41,0,0,1-7.6-11.2,39.25,39.25,0,0,1-2.72-15,46.36,46.36,0,0,1,2.08-14.4,62.78,62.78,0,0,1,6.56-13.6Zm82.88-33.12-9.28-7.84,6.88-8.16,9.28,7.84Zm7.36-18.72-9-7.36,6.72-8,8.8,7.68Zm11.84,18.72-9.28-7.84,6.88-8.16,9.28,7.84Z"/><path class="cls-1" d="M1483.85,523.2a116.69,116.69,0,0,1,14.32,11.44,55.12,55.12,0,0,1,8.24,9.76,28.92,28.92,0,0,1,3.84,8.56,32.94,32.94,0,0,1,1,7.68,22.41,22.41,0,0,1-1.44,8.08,18.64,18.64,0,0,1-4.24,6.56,19.73,19.73,0,0,1-7,4.4,26.83,26.83,0,0,1-9.6,1.6q-9.45,0-14-5.28a18.48,18.48,0,0,1-4.56-12.48,29.93,29.93,0,0,1,.48-5.36,34.23,34.23,0,0,1,1.68-5.84,68.45,68.45,0,0,1,3.2-7.12q2-3.91,5.2-9.2l-3-2.08Zm4.16,17a96.88,96.88,0,0,0-6.72,11.52,22,22,0,0,0-2.56,9.44,8.27,8.27,0,0,0,2.64,6q2.64,2.64,8.4,2.64a14.9,14.9,0,0,0,8.72-2.4,8.81,8.81,0,0,0,3.92-6.4,18.46,18.46,0,0,0-3.12-9.68Q1496.17,546.24,1488,540.16Z"/><path class="cls-1" d="M1632.48,536.64a29.82,29.82,0,0,0-5-2,18,18,0,0,0-5-.72,20.58,20.58,0,0,0-9.28,2.32,38.4,38.4,0,0,0-8.4,5.68,33.7,33.7,0,0,0-6.16,7.2,13.35,13.35,0,0,0-2.4,6.88,3.62,3.62,0,0,0,2.16,3.2,32.35,32.35,0,0,0,7.12,1.92q4.49.79,8.56,1.44c2.72.43,5.15.85,7.28,1.28q6.72,1.27,9.28,4.08c1.71,1.87,2.56,4.61,2.56,8.24q0,5.76-4.72,11.36A46.92,46.92,0,0,1,1616,597.6a74.51,74.51,0,0,1-17.36,7.2,72.82,72.82,0,0,1-19.76,2.72,47.14,47.14,0,0,1-15.44-2.4,32.74,32.74,0,0,1-11.84-7A31.67,31.67,0,0,1,1544,587a38.62,38.62,0,0,1-2.72-14.88,47.25,47.25,0,0,1,2.08-14.56,60,60,0,0,1,6.56-13.44l7.36,3.52a59.25,59.25,0,0,0-5,11,34.81,34.81,0,0,0-1.76,10.72q0,12,7.68,19t21.76,7a64.36,64.36,0,0,0,16.4-2,74.18,74.18,0,0,0,13.36-4.8,45.24,45.24,0,0,0,9.28-5.76q3.53-3,4.32-4.72a3.16,3.16,0,0,0-1.52-2,19.73,19.73,0,0,0-5.36-1.52l-14.72-2.4a41.89,41.89,0,0,1-5.84-1.28,13.63,13.63,0,0,1-4.56-2.32,10,10,0,0,1-3-3.92,15.92,15.92,0,0,1-1-6.24,28.12,28.12,0,0,1,3.28-12.72,47.18,47.18,0,0,1,8.56-11.84,46.53,46.53,0,0,1,11.76-8.72,27.51,27.51,0,0,1,12.72-3.36,20.18,20.18,0,0,1,6.56,1,22.68,22.68,0,0,1,6.24,3.44Z"/><path class="cls-1" d="M1710.88,561.6a39.17,39.17,0,0,1-3.2,15.92,56.23,56.23,0,0,1-8.8,13.84A89,89,0,0,1,1685.36,604q-7.92,6.07-17.2,12.16l-8-7.68q18.24-11.68,29-21.76T1701.44,569a25.27,25.27,0,0,1-8.32,3.12,43.75,43.75,0,0,1-7.36.72,17.69,17.69,0,0,1-12-4.16q-4.8-4.15-4.8-12.48a34.59,34.59,0,0,1,1.52-10,35.5,35.5,0,0,1,4.16-9.12,24.66,24.66,0,0,1,6.32-6.72,13.43,13.43,0,0,1,8-2.64,15.55,15.55,0,0,1,9.36,3,25,25,0,0,1,6.88,7.76,39.48,39.48,0,0,1,4.24,10.88A53.26,53.26,0,0,1,1710.88,561.6Zm-9.76-3.52a43.05,43.05,0,0,0-1.52-6.88,26.54,26.54,0,0,0-2.64-6A13.69,13.69,0,0,0,1693,541a8.93,8.93,0,0,0-5.2-1.6,7,7,0,0,0-4.08,1.28,13.62,13.62,0,0,0-3.28,3.28,16.16,16.16,0,0,0-2.24,4.4,14.75,14.75,0,0,0-.8,4.64,7.5,7.5,0,0,0,2.64,6.16q2.64,2.16,7.44,2.16a30.1,30.1,0,0,0,7.36-.88A27.67,27.67,0,0,0,1701.12,558.08Z"/><path class="cls-1" d="M1812,529.6a57.33,57.33,0,0,1,8.08,16.16,55.31,55.31,0,0,1,2.64,16.48,50.73,50.73,0,0,1-3,18,38.35,38.35,0,0,1-22.88,23,52.85,52.85,0,0,1-19,3.2,44.67,44.67,0,0,1-15-2.4,32.91,32.91,0,0,1-11.68-7,31.41,31.41,0,0,1-7.6-11.2,39.22,39.22,0,0,1-2.72-15,46.4,46.4,0,0,1,2.08-14.4,62.78,62.78,0,0,1,6.56-13.6l7.36,3.68a54,54,0,0,0-5,11,35.54,35.54,0,0,0-1.76,10.8q0,12,7.68,18.88t21.28,6.88a42.36,42.36,0,0,0,13.92-2.16,29.62,29.62,0,0,0,10.56-6.16,27.79,27.79,0,0,0,6.72-9.68,32,32,0,0,0,2.4-12.56,40.79,40.79,0,0,0-2.32-12.64,54.2,54.2,0,0,0-7-13.76Zm-32.16,3-9.76-8.32,7.2-8.48L1787,524Z"/><path class="cls-1" d="M1195.84,672.64a128.6,128.6,0,0,1,18,48.24,207.32,207.32,0,0,1,2.48,25.68q.48,13.28.48,28.48h-7.36q-.15-14.71-1.2-27.12a198.28,198.28,0,0,0-3.28-23.36,126.7,126.7,0,0,0-6.08-20.8,137.79,137.79,0,0,0-9.44-19.44Z"/><path class="cls-1" d="M1250.24,706.56a124.48,124.48,0,0,1,5.92,31.12q1.13,16.73,1.12,37.36h-7.36q-.17-14.71-1.2-27.12a176,176,0,0,0-3.44-23.28,135.69,135.69,0,0,0-15.68-40.16l6.4-11.84q3.36,6.4,6.24,10.88a46.79,46.79,0,0,0,5.68,7.36,18.88,18.88,0,0,0,5.92,4.24,18,18,0,0,0,7.28,1.36q14.09,0,14.08-21.44l8.8-2.4a89.85,89.85,0,0,1-1.2,15.36,38.24,38.24,0,0,1-3.92,11.84,19.35,19.35,0,0,1-7.2,7.6,21.43,21.43,0,0,1-11,2.64,19.32,19.32,0,0,1-5.44-.8A13.3,13.3,0,0,1,1250.24,706.56Z"/><path class="cls-1" d="M1303.2,672.64q3.52,6.72,6.24,11.28a53.7,53.7,0,0,0,5.12,7.36,15.1,15.1,0,0,0,5,4,13.43,13.43,0,0,0,5.76,1.2q5,0,7.52-4.8t2.56-15.36l7.52-1.92q1.13,11.83,3.76,16.88t7.76,5q4.63,0,7.12-5.36T1364,675l8.64-2.4q0,19.85-5,28.4t-13.84,8.56a13.57,13.57,0,0,1-8.8-2.72,17.59,17.59,0,0,1-5.12-6.72q-4.63,9.92-14.4,9.92a15.54,15.54,0,0,1-4-.56,8.54,8.54,0,0,1-3.84-2.32,127.32,127.32,0,0,1,5.76,31q1.13,16.73,1.12,36.88h-7.36q-.16-14.71-1.2-27.12a176,176,0,0,0-3.44-23.28,135.69,135.69,0,0,0-15.68-40.16Z"/><path class="cls-1" d="M1391.84,672.64q3.2,5.28,5.6,10.32t4.32,9.68a28.24,28.24,0,0,1,2.08-7.76,23,23,0,0,1,4.24-6.64,21,21,0,0,1,6.16-4.64,17.31,17.31,0,0,1,7.84-1.76,21.1,21.1,0,0,1,9,2.08,25.34,25.34,0,0,1,8,5.92l-3.84,7.2a28.58,28.58,0,0,0-7-3.2,23.7,23.7,0,0,0-6.16-.8,11.1,11.1,0,0,0-4.56,1,13.62,13.62,0,0,0-4.16,2.88,14.64,14.64,0,0,0-3,4.24,11.92,11.92,0,0,0-1.12,5.12c0,2.67,1.33,4.93,4,6.8s6.13,2.8,10.4,2.8a36.1,36.1,0,0,0,9.92-1.36,34.37,34.37,0,0,0,9.44-4.4l3.52,8a25.47,25.47,0,0,1-4.72,3.92,32.54,32.54,0,0,1-6.08,3.12,48.24,48.24,0,0,1-6.8,2.08,31.94,31.94,0,0,1-7,.8,27.94,27.94,0,0,1-7.76-1,14.5,14.5,0,0,1-6.32-3.76,126.71,126.71,0,0,1,4.48,28.4q.79,15.6.8,33.36h-7.36q-.16-14.71-1.2-27.12a177.65,177.65,0,0,0-3.44-23.28,135.69,135.69,0,0,0-15.68-40.16Z"/><path class="cls-1" d="M1470.08,676a154.23,154.23,0,0,1,15.76,16.56,139.44,139.44,0,0,1,12.72,18.24,93.87,93.87,0,0,1,8.48,19,63.46,63.46,0,0,1,3,19.12q0,12.16-5.12,18.48a16.46,16.46,0,0,1-13.44,6.32,14.94,14.94,0,0,1-7.68-2.16,14.3,14.3,0,0,1-5.76-7.28,18.57,18.57,0,0,1-6.64,7.28,16.25,16.25,0,0,1-8.24,2.16q-8.48,0-12.56-5.76t-4.08-14.88q0-11,6.32-25.92t18.48-32.8l-7.36-7.2Zm7.2,23.52a193.93,193.93,0,0,0-10.72,16.88,141.63,141.63,0,0,0-7,14.08,68.79,68.79,0,0,0-3.76,11.36,40.85,40.85,0,0,0-1.12,8.72,11.1,11.1,0,0,0,2.4,7.36,8.09,8.09,0,0,0,6.56,2.88q5.76,0,8.24-4.16a26.09,26.09,0,0,0,3.12-10.88l6.72-1.76q0,8,2.88,12.4t7.52,4.4a8.56,8.56,0,0,0,6.64-2.72c1.65-1.81,2.48-4.75,2.48-8.8a42,42,0,0,0-1.76-11.44,79.21,79.21,0,0,0-4.88-12.64,99.86,99.86,0,0,0-7.6-13A138.32,138.32,0,0,0,1477.28,699.52Z"/><path class="cls-1" d="M1581.6,716a96.76,96.76,0,0,0-17.44,10.4,107.1,107.1,0,0,0-14.48,13.2,119.9,119.9,0,0,0-12.32,16.16,201.58,201.58,0,0,0-10.8,19.28l-6.88-3.2q2.88-6.72,6.32-13.52a152.45,152.45,0,0,1,7.6-13.28,131.43,131.43,0,0,1,9-12.4,87.23,87.23,0,0,1,10.48-10.72q-13.27-.31-18.8-5.52a17.73,17.73,0,0,1-5.52-13.52,26,26,0,0,1,2.32-10.32,36.37,36.37,0,0,1,6.24-9.76,35,35,0,0,1,8.88-7.2,20.55,20.55,0,0,1,10.24-2.8,21.48,21.48,0,0,1,9.12,2.16,28.92,28.92,0,0,1,8.32,5.84l-4.32,7.2a35.08,35.08,0,0,0-7.52-3.12A24,24,0,0,0,1556,684a13.69,13.69,0,0,0-6.32,1.6,25,25,0,0,0-5.68,4,21.31,21.31,0,0,0-4.16,5.36,11.76,11.76,0,0,0-1.6,5.52,7.25,7.25,0,0,0,1.68,5,11.07,11.07,0,0,0,4.24,3,23,23,0,0,0,5.68,1.44,47.88,47.88,0,0,0,6.16.4,39.65,39.65,0,0,0,13-2.08q6.09-2.08,14.24-5.76Z"/><path class="cls-1" d="M1594.4,672a150.5,150.5,0,0,1,21.68,35.36,160,160,0,0,1,11.12,40,129.64,129.64,0,0,1,4.56-20.32,176.26,176.26,0,0,1,7.44-19.76,170.61,170.61,0,0,1,9.68-18.56q5.37-8.88,11.12-16.72l5,12.32a158.54,158.54,0,0,0-23.2,42.4,175.76,175.76,0,0,0-10.4,48.32h-7.84a181.92,181.92,0,0,0-3.28-24.08,164.5,164.5,0,0,0-17.12-46.64,129.75,129.75,0,0,0-13.52-20Z"/><path class="cls-1" d="M1696.32,700.32a129.64,129.64,0,0,1-4.56,20.32,176.26,176.26,0,0,1-7.44,19.76,168.87,168.87,0,0,1-9.68,18.56q-5.36,8.88-11.12,16.72l-5-12.16a156.3,156.3,0,0,0,13-20.16,161.45,161.45,0,0,0,10.08-22.4,184,184,0,0,0,6.88-23.84,182,182,0,0,0,3.6-24.48H1700a161,161,0,0,0,3.2,24.08,171.54,171.54,0,0,0,6.88,24,167.77,167.77,0,0,0,10.32,22.72,128.37,128.37,0,0,0,13.52,20.08l-4.8,12.16a150.84,150.84,0,0,1-21.68-35.36A160.38,160.38,0,0,1,1696.32,700.32Z"/><path class="cls-1" d="M1773.92,775.84a50,50,0,0,1-6.24-10.8,83.51,83.51,0,0,1-4.24-12.8,106.62,106.62,0,0,1-2.48-14.16q-.8-7.37-1-14.88c-1.17.11-2.59.19-4.24.24s-3.23.08-4.72.08a60.91,60.91,0,0,1-9.92-.72,19.74,19.74,0,0,1-7.36-2.64,12.41,12.41,0,0,1-4.64-5.28,19.68,19.68,0,0,1-1.6-8.48,36,36,0,0,1,1.92-11,48,48,0,0,1,5.12-11A33.35,33.35,0,0,1,1742,676a14.31,14.31,0,0,1,9-3.36q8.64,0,13.12,8.8t4.48,28.48q0,6.72.24,13.92a105.53,105.53,0,0,0,1.44,14.24,75.47,75.47,0,0,0,3.68,13.68,44,44,0,0,0,7,12.24Zm-13.76-64.16a98.21,98.21,0,0,0-.56-10.88,42,42,0,0,0-1.76-8.56,14.65,14.65,0,0,0-3.12-5.6,6.21,6.21,0,0,0-4.64-2,8.85,8.85,0,0,0-5.36,2,20.6,20.6,0,0,0-4.64,5,26.83,26.83,0,0,0-3.2,6.56,21.11,21.11,0,0,0-1.2,6.64,6.61,6.61,0,0,0,4.16,5.36q3.67,1.68,11.2,1.68h5C1757.49,711.84,1758.88,711.79,1760.16,711.68Z"/><path class="cls-1" d="M1786.56,741.44a17.53,17.53,0,0,1,1.44-7.12,19.78,19.78,0,0,1,3.92-5.84,17.91,17.91,0,0,1,5.76-4,17.53,17.53,0,0,1,7.12-1.44,18.08,18.08,0,0,1,7.2,1.44,17.72,17.72,0,0,1,5.84,4,19.78,19.78,0,0,1,3.92,5.84,18.32,18.32,0,0,1,0,14.24,19.78,19.78,0,0,1-3.92,5.84,17.72,17.72,0,0,1-5.84,4,18.08,18.08,0,0,1-7.2,1.44,17.53,17.53,0,0,1-7.12-1.44,17.91,17.91,0,0,1-5.76-4,19.78,19.78,0,0,1-3.92-5.84A17.53,17.53,0,0,1,1786.56,741.44Zm9.76,0a8.51,8.51,0,0,0,2.4,6.16,8.12,8.12,0,0,0,6.08,2.48,8.64,8.64,0,1,0,0-17.28,8.12,8.12,0,0,0-6.08,2.48A8.51,8.51,0,0,0,1796.32,741.44Z"/><path class="cls-1" d="M922.11,914.24a21.21,21.21,0,0,1,5.52,5.28,22.86,22.86,0,0,1,3,6.24,30.63,30.63,0,0,1,1.28,7c.16,2.45.24,5.07.24,7.84v11.68q0,7.2,3.44,11.76t12.08,6.32v8.32q-14.09-2.73-19.84-10.56t-5.76-21.6V937q0-8-3.52-13.2t-11.68-6v-6.88q8.16-.79,11.68-6t3.52-13v-9.76q0-13.61,5.76-21.52t19.84-10.48v8.16q-8.64,1.75-12.08,6.32t-3.44,11.76V888q0,4.15-.24,7.92a29.58,29.58,0,0,1-1.28,7,20.56,20.56,0,0,1-8.56,11.28Z"/><path class="cls-1" d="M985.78,914.24A20.56,20.56,0,0,1,977.22,903a29.58,29.58,0,0,1-1.28-7q-.24-3.76-.24-7.92V876.32q0-7.2-3.44-11.76t-12.08-6.32v-8.16q14.09,2.56,19.84,10.48t5.76,21.52v9.76q0,7.85,3.52,13t11.68,6v6.88q-8.16.79-11.68,6T985.78,937v9.6q0,13.76-5.76,21.6t-19.84,10.56V970.4q8.64-1.77,12.08-6.32t3.44-11.76V940.64c0-2.77.08-5.39.24-7.84a30.63,30.63,0,0,1,1.28-7,22.86,22.86,0,0,1,3-6.24A21.21,21.21,0,0,1,985.78,914.24Z"/><path class="cls-1" d="M1043.38,975h-29.92V851.84h29.92v8.48h-20.16v106.4h20.16Z"/><path class="cls-1" d="M1055.86,966.72H1076V860.32h-20.16v-8.48h29.92V975h-29.92Z"/><path class="cls-1" d="M1123.54,935.84a39.33,39.33,0,0,1-4.88,18.4q-4.89,9.28-15.44,18.08l-5.12-5.12a70.14,70.14,0,0,0,12-15.92,32.64,32.64,0,0,0,0-30.72,70.14,70.14,0,0,0-12-15.92l5.12-5.28q10.56,8.8,15.44,18.08A39.33,39.33,0,0,1,1123.54,935.84Zm20,0a40.42,40.42,0,0,1-4.72,18.4q-4.72,9.28-15.28,18.08l-4.8-5a65.85,65.85,0,0,0,12-15.92,33.28,33.28,0,0,0,0-31,68.34,68.34,0,0,0-12-16.08l4.8-5q10.56,8.8,15.28,18.08A40.42,40.42,0,0,1,1143.54,935.84Z"/><path class="cls-1" d="M1156,935.68a40.3,40.3,0,0,1,4.72-18.4q4.71-9.28,15.28-18.08l4.8,5a68.34,68.34,0,0,0-12,16.08,33.28,33.28,0,0,0,0,31,65.85,65.85,0,0,0,12,15.92l-4.8,5q-10.56-8.8-15.28-18.08A40.3,40.3,0,0,1,1156,935.68Zm20,0a39.21,39.21,0,0,1,4.88-18.4q4.88-9.28,15.44-18.08l5.12,5.28a70.14,70.14,0,0,0-12,15.92,32.64,32.64,0,0,0,0,30.72,70.14,70.14,0,0,0,12,15.92l-5.12,5.12q-10.56-8.8-15.44-18.08A39.21,39.21,0,0,1,1176,935.68Z"/><path class="cls-1" d="M1260.65,960.64l-20.32-20.32-20.16,20.32-6.4-6.56,20.32-20.16-20.32-20.16,6.4-6.56,20.16,20.32,20.16-20.16,6.56,6.56-20.32,20,20.32,20.16Z"/><path class="cls-1" d="M1340.33,926.08v9.6h-60.8v-9.6Zm-30.88-28.64a6.19,6.19,0,0,1,5.28,2.32,10,10,0,0,1,0,11.36,7.17,7.17,0,0,1-10.56,0,10,10,0,0,1,0-11.36A6.19,6.19,0,0,1,1309.45,897.44Zm0,50.4a6.19,6.19,0,0,1,5.28,2.32,10,10,0,0,1,0,11.36,7.17,7.17,0,0,1-10.56,0,10,10,0,0,1,0-11.36A6.19,6.19,0,0,1,1309.45,947.84Z"/><path class="cls-1" d="M1361.45,865a7.47,7.47,0,0,1,6.24,2.64,10.37,10.37,0,0,1,2.08,6.64,10.7,10.7,0,0,1-2.08,6.72,7.38,7.38,0,0,1-6.24,2.72,7.18,7.18,0,0,1-6.08-2.72,10.7,10.7,0,0,1-2.08-6.72,10.37,10.37,0,0,1,2.08-6.64A7.26,7.26,0,0,1,1361.45,865Zm43.68-1.92-40,107.2h-9.76L1394.89,863Zm-5.6,85.92a7.47,7.47,0,0,1,6.24,2.64,10.37,10.37,0,0,1,2.08,6.64,10.7,10.7,0,0,1-2.08,6.72,7.38,7.38,0,0,1-6.24,2.72,7.18,7.18,0,0,1-6.08-2.72,10.7,10.7,0,0,1-2.08-6.72,10.37,10.37,0,0,1,2.08-6.64A7.26,7.26,0,0,1,1399.53,949Z"/><path class="cls-1" d="M1450.57,920v8.64h-30.08V917.28Zm5.92-6.88-5.12,5-23.2-19.36,8.8-9Zm-5.12,15.52,5.12,5L1437,956.8l-8.48-8.8Zm6.72,5.44H1465l2.72,30.24h-12.32Zm6.88-21.6h-6.88l-2.56-30.24h12.16Zm6.56,5.44-5.12-5,19.68-23.2,8.32,8.8Zm-5.12,15.52,5.28-4.8,23.2,19.2-8.8,9Zm5.92-6.72v-6.88l30.24-1.92v11.36Z"/><path class="cls-1" d="M1517,901.28l53.12,29v7.52L1517,966.88l-2.08-10.56,42.72-22.4L1514.89,912Z"/><path class="cls-1" d="M1637.77,912l-42.72,21.92,42.72,22.4-2.08,10.56-53.12-29.12v-7.52l53.12-29Z"/><path class="cls-1" d="M1684,856.48a112.09,112.09,0,0,0-17.44,28.08,73.6,73.6,0,0,0,0,57.84,112.6,112.6,0,0,0,17.44,28l-4.64,6.24a101,101,0,0,1-11.76-13.36,95.49,95.49,0,0,1-9.28-15.44,87.07,87.07,0,0,1-6.08-16.88,72.58,72.58,0,0,1-2.16-17.52,71.63,71.63,0,0,1,2.16-17.44,87.55,87.55,0,0,1,6.08-16.8,98.89,98.89,0,0,1,9.28-15.52,97.45,97.45,0,0,1,11.76-13.44Z"/><path class="cls-1" d="M1701.12,850.24a97.45,97.45,0,0,1,11.76,13.44,98.89,98.89,0,0,1,9.28,15.52,87.55,87.55,0,0,1,6.08,16.8,71.63,71.63,0,0,1,2.16,17.44,72.58,72.58,0,0,1-2.16,17.52,87.07,87.07,0,0,1-6.08,16.88,95.49,95.49,0,0,1-9.28,15.44,101,101,0,0,1-11.76,13.36l-4.64-6.24a112.6,112.6,0,0,0,17.44-28,73.6,73.6,0,0,0,0-57.84,112.09,112.09,0,0,0-17.44-28.08Z"/><path class="cls-1" d="M1750.24,946.88a6.75,6.75,0,0,1,5.6,2.4,10.59,10.59,0,0,1,0,12.16,6.75,6.75,0,0,1-5.6,2.4,6.53,6.53,0,0,1-5.52-2.4,11,11,0,0,1,0-12.16A6.53,6.53,0,0,1,1750.24,946.88Zm5.6-65.44q0,8.64-.88,21.6t-1.84,32.64h-5.76q-1-19.68-1.84-32.64t-.88-21.44V860.32a6.69,6.69,0,0,1,1.44-4.24,5.62,5.62,0,0,1,8.32,0,6.69,6.69,0,0,1,1.44,4.24Z"/><path class="cls-1" d="M1796.16,934.08a23,23,0,0,0-1.92-9.44,40,40,0,0,0-4.8-8.08,89.08,89.08,0,0,0-6.32-7.36,77,77,0,0,1-6.32-7.52,43.19,43.19,0,0,1-4.8-8.32,24.77,24.77,0,0,1-1.92-10,30.17,30.17,0,0,1,7.84-20.32,27.86,27.86,0,0,1,8.8-6.4,26.06,26.06,0,0,1,11.2-2.4,27,27,0,0,1,12.8,2.8,24.24,24.24,0,0,1,8.56,7.44,31.75,31.75,0,0,1,4.8,10.72,51.38,51.38,0,0,1,1.52,12.48q0,5.6-5,5.6t-5-5.6a30.55,30.55,0,0,0-1.2-8.8,20.94,20.94,0,0,0-3.6-7,16.68,16.68,0,0,0-5.84-4.72,17.44,17.44,0,0,0-7.76-1.68,16.58,16.58,0,0,0-11.76,4.88,17,17,0,0,0-3.68,5.6,18.77,18.77,0,0,0-1.36,7.28,16.5,16.5,0,0,0,1.76,7.52,42.66,42.66,0,0,0,4.4,7q2.64,3.44,5.76,7a60.56,60.56,0,0,1,5.76,7.68,44.75,44.75,0,0,1,4.4,9.12,33.45,33.45,0,0,1,1.76,11.2v3h-8.16Zm3.68,12.8a6.75,6.75,0,0,1,5.6,2.4,10.59,10.59,0,0,1,0,12.16,6.75,6.75,0,0,1-5.6,2.4,6.52,6.52,0,0,1-5.52-2.4,11,11,0,0,1,0-12.16A6.52,6.52,0,0,1,1799.84,946.88Z"/></svg>