<svg id="Graphics" xmlns="http://www.w3.org/2000/svg" viewBox="0 0 1920 1080"><defs><style>.cls-1{fill:#fff;}</style></defs><path class="cls-1" d="M167.09,190.64h8.62l-8.21-23.51H127.65l-8,23.51h10.67V202.4H96.68V190.64h9L138,98.77h20.17l32.2,91.87h10.39V202.4H167.09Zm-35.54-34.86h32l-16.13-46.35Z"/><path class="cls-1" d="M211.19,190.64H221v-80h-9.84v-12l46.62.14a29.87,29.87,0,0,1,11.82,2.35,30.66,30.66,0,0,1,9.64,6.43,29.62,29.62,0,0,1,6.46,9.61,30,30,0,0,1,2.36,11.89,21.18,21.18,0,0,1-3.69,12.1,25.78,25.78,0,0,1-10.53,8.75A33.08,33.08,0,0,1,280,154a26.78,26.78,0,0,1,4.64,5.17,24.32,24.32,0,0,1,3,5.94,20.2,20.2,0,0,1,1.06,6.43,30.89,30.89,0,0,1-8.82,21.87,30.42,30.42,0,0,1-9.61,6.57,29.34,29.34,0,0,1-11.79,2.39H211.19Zm23.24-80v33.84h23.51a14.45,14.45,0,0,0,6.12-1.3,15.86,15.86,0,0,0,4.92-3.48,17,17,0,0,0,3.32-5.06,15,15,0,0,0,1.23-6,18.54,18.54,0,0,0-1.23-6.6,19.89,19.89,0,0,0-3.35-5.77,17.46,17.46,0,0,0-5-4.11,12.38,12.38,0,0,0-6.05-1.57Zm0,45.74v34.31h24.13a11.85,11.85,0,0,0,6.08-1.64,17.83,17.83,0,0,0,4.92-4.27,20.39,20.39,0,0,0,3.32-6,20.16,20.16,0,0,0,1.2-6.84,14.33,14.33,0,0,0-1.23-5.81,17.2,17.2,0,0,0-3.32-5,15.88,15.88,0,0,0-4.92-3.49,14.45,14.45,0,0,0-6.05-1.29Z"/><path class="cls-1" d="M377.16,126.11A33.82,33.82,0,0,0,365,113.87a32.64,32.64,0,0,0-16.85-4.44,31.41,31.41,0,0,0-14.49,3.35,35.25,35.25,0,0,0-11.25,9,41.87,41.87,0,0,0-7.28,13.06,46.93,46.93,0,0,0-2.6,15.62,47.87,47.87,0,0,0,2.87,17.19,38,38,0,0,0,7.49,12.44,40.39,40.39,0,0,0,11,8.27,30.44,30.44,0,0,0,14.29,3.32,33.65,33.65,0,0,0,18.8-5.23q8-5.24,13.67-17.2l12,5.68a42.2,42.2,0,0,1-8.82,14.25,46.93,46.93,0,0,1-15.35,11.08,47.7,47.7,0,0,1-20.2,4.2,46.88,46.88,0,0,1-19.48-4A49.44,49.44,0,0,1,313,189.07a50.07,50.07,0,0,1-10.6-17.5,61.61,61.61,0,0,1-3.66-21.12,59.51,59.51,0,0,1,3.66-20.92,52.48,52.48,0,0,1,10.26-17.13,48,48,0,0,1,15.72-11.48,46.74,46.74,0,0,1,19.79-4.2,45,45,0,0,1,16.4,2.7,47.28,47.28,0,0,1,11.73,6.42,48.77,48.77,0,0,1,8.3,8.1h7.25v12.17Z"/><path class="cls-1" d="M406.76,98.77h38.56a48.75,48.75,0,0,1,13.53,1.84,49.47,49.47,0,0,1,29.7,23.65,52.77,52.77,0,0,1,4.89,12.34,54.44,54.44,0,0,1,1.71,13.71,55.38,55.38,0,0,1-1.71,13.88,53.88,53.88,0,0,1-4.89,12.44,50.48,50.48,0,0,1-7.69,10.56,48.53,48.53,0,0,1-35.54,15.21H406.76V190.64h9.85v-80h-9.85ZM430,110.59v80h16.14a30,30,0,0,0,13.5-3.14,35.56,35.56,0,0,0,11-8.58,41.35,41.35,0,0,0,7.45-12.79,45,45,0,0,0,2.73-15.82,43.86,43.86,0,0,0-2.73-15.59,40.66,40.66,0,0,0-7.45-12.61,35,35,0,0,0-11-8.44,30.5,30.5,0,0,0-13.5-3.08Z"/><path class="cls-1" d="M509.78,98.77H584v29.32H570v-17.5H533v33.16h31.1V155.5H533v35.14h37v-17.5h14V202.4H509.78V190.64h9.84v-80h-9.84Z"/><path class="cls-1" d="M597.69,98.77h74.24v29.32h-14v-17.5h-37v33.29h35.62v11.49H620.93v35.27h10.39V202.4H597.69V190.64h9.84v-80h-9.84Z"/><path class="cls-1" d="M762.64,202.81V182a35.41,35.41,0,0,1-6.49,9.4,36.33,36.33,0,0,1-8.69,6.59,41,41,0,0,1-10.21,3.9,47.2,47.2,0,0,1-11,1.3,50.4,50.4,0,0,1-18.67-3.38,42.91,42.91,0,0,1-15.48-10.77,50.07,50.07,0,0,1-10.6-17.5,61.84,61.84,0,0,1-3.65-21.12,59.73,59.73,0,0,1,3.65-20.92,52.83,52.83,0,0,1,10.26-17.16,47.51,47.51,0,0,1,15.72-11.48,47,47,0,0,1,19.79-4.17,45.91,45.91,0,0,1,16.92,2.8,47.09,47.09,0,0,1,12.1,6.8,55,55,0,0,1,8,7.62h6.63v12.17h-14.7a34.14,34.14,0,0,0-12.13-12.3,33.85,33.85,0,0,0-31.34-1,35.07,35.07,0,0,0-11.25,9,42.56,42.56,0,0,0-7.28,13.06,46.66,46.66,0,0,0-2.59,15.59,48.29,48.29,0,0,0,2.87,16.88A37.87,37.87,0,0,0,701.8,180a36.19,36.19,0,0,0,11,8,32.56,32.56,0,0,0,14.46,3.18q13.13,0,21.53-6.39t11.76-19.93h-29V153.11h43.82v49.7Z"/><path class="cls-1" d="M870.51,98.77h33.63v11.75H894.3v80.12h9.84V202.4H870.51V190.64H880.9V153.39H821v37.25h10.39V202.4H797.71V190.64h9.84V110.52h-9.84V98.77h33.63v11.75H821V141.9H880.9V110.52H870.51Z"/><path class="cls-1" d="M923.7,98.77h33.08v11.82h-9.84v80h9.84V202.4H923.7V190.64h9.84v-80H923.7Z"/><path class="cls-1" d="M976.81,98.77h33.57v11.82h-8.69v80a10.91,10.91,0,0,1-.71,3.52,38.35,38.35,0,0,1-1.85,4.27,50.23,50.23,0,0,1-2.63,4.62c-1,1.57-2,3.11-3,4.61q-3.63,5.26-8.2,11l-11.76-1q4-6.15,7.25-11.75,1.37-2.4,2.66-4.89c.87-1.67,1.64-3.27,2.33-4.82a45.58,45.58,0,0,0,1.67-4.34,11.73,11.73,0,0,0,.65-3.45v-77.8H976.81Z"/><path class="cls-1" d="M1023.09,98.77h33.63v11.82H1046.2v80h10.39V202.4H1023V190.64h9.85v-80h-9.71Zm68.5,11.82V98.77h23.79v11.82h-8.14l-45.39,38.22,42.45,41.83h11.08V202.4h-27.9V190.64l-41.15-41.15Z"/><path class="cls-1" d="M1130.07,98.77h33.64v11.82h-10.4v80h35.76a5.14,5.14,0,0,0,2.18-.51,8.05,8.05,0,0,0,2-1.33,6.84,6.84,0,0,0,1.43-1.88,4.62,4.62,0,0,0,.55-2.16v-13h13V202.4h-78.14V190.64h9.85v-80h-9.85Z"/><path class="cls-1" d="M1218.67,190.64h9.84V111.82h-9.84v-13h32.81l32.88,89.48,33.29-89.48h31.1v13H1339v78.82h9.77V202.4h-33.63V190.64h11.08V111.07L1290,202.4h-11.62l-36.71-91.53v79.77h10.67V202.4h-33.63Z"/><path class="cls-1" d="M1432.43,98.77h33.63v11.82h-8.82V202.4h-17.5l-48.19-85.93v74.17h10.66V202.4h-33.63V190.64h9.57v-80h-9.85v-12h27.9l47.3,85.11.55-3.28V110.59h-11.62Z"/><path class="cls-1" d="M1524.16,204.45a47.24,47.24,0,0,1-19.62-4,49.87,49.87,0,0,1-26.45-28.88,61.65,61.65,0,0,1-3.62-21,60.13,60.13,0,0,1,3.65-21.05,52.48,52.48,0,0,1,10.26-17.13,48.22,48.22,0,0,1,15.72-11.48,48.42,48.42,0,0,1,56,11.48,52.32,52.32,0,0,1,10.19,17.13,60.58,60.58,0,0,1,3.62,21.05,59.62,59.62,0,0,1-3.66,21A52.7,52.7,0,0,1,1560,188.73a48.19,48.19,0,0,1-15.72,11.52A47.43,47.43,0,0,1,1524.16,204.45Zm0-12.71a32.13,32.13,0,0,0,14.74-3.35,35,35,0,0,0,11.24-9,41.3,41.3,0,0,0,7.18-13.09,50,50,0,0,0-.24-32.1,38.62,38.62,0,0,0-7.73-13.36,34.84,34.84,0,0,0-11.51-8.45,32.85,32.85,0,0,0-13.68-3,32.3,32.3,0,0,0-14.76,3.35,34.72,34.72,0,0,0-11.28,9,41.13,41.13,0,0,0-7.18,13.12,51.66,51.66,0,0,0,.27,32.75,37.17,37.17,0,0,0,7.42,12.44,41,41,0,0,0,11,8.31A30.84,30.84,0,0,0,1524.16,191.74Z"/><path class="cls-1" d="M1588.49,98.77h41.9a43,43,0,0,1,12.82,1.81,29.37,29.37,0,0,1,10.12,5.33,23.85,23.85,0,0,1,6.63,8.78,29.39,29.39,0,0,1,2.36,12.1,25.16,25.16,0,0,1-2.33,10.7,26.52,26.52,0,0,1-6.56,8.79,31.57,31.57,0,0,1-10.15,5.94,37.65,37.65,0,0,1-13.16,2.19h-18.39v36.23h10.39V202.4h-33.63V190.64h9.84v-80h-9.84Zm23.24,11.82V143.2h18.66a22.87,22.87,0,0,0,7.15-1.06,16,16,0,0,0,5.6-3.11,14,14,0,0,0,3.69-5.13,17.72,17.72,0,0,0,1.34-7.11q0-7.65-4.65-11.92t-14.83-4.28Z"/><path class="cls-1" d="M1713.38,204a46.33,46.33,0,0,1-17.46-5.95,48.31,48.31,0,0,1-13.54-11.79,53.6,53.6,0,0,1-8.71-16.3,60.64,60.64,0,0,1-3.08-19.42,59.91,59.91,0,0,1,3.66-21.05,52.29,52.29,0,0,1,10.25-17.13,48.22,48.22,0,0,1,15.72-11.48,48.45,48.45,0,0,1,56,11.48,52.3,52.3,0,0,1,10.18,17.13,62.58,62.58,0,0,1,.45,40.64,54.08,54.08,0,0,1-8.93,16.34,49,49,0,0,1-13.74,11.79,45.61,45.61,0,0,1-17.63,5.81,28.11,28.11,0,0,1,7.11,2.73c1.77,1,4,2.25,6.7,3.59a17.77,17.77,0,0,0,8.06,2,12.58,12.58,0,0,0,6.94-1.95,9.3,9.3,0,0,0,4-6l10.39,4.72a16.75,16.75,0,0,1-3,6.73,20.81,20.81,0,0,1-5.2,4.85,22.8,22.8,0,0,1-6.39,2.91,24.69,24.69,0,0,1-6.7,1,25.47,25.47,0,0,1-9.88-1.91q-4.61-1.92-9.67-4.65a20.45,20.45,0,0,0-9.71-2.73,19.57,19.57,0,0,0-5.74.89Zm6.91-12.3a32.12,32.12,0,0,0,14.73-3.35,34.92,34.92,0,0,0,11.24-9,41.3,41.3,0,0,0,7.18-13.09,49.74,49.74,0,0,0-.24-32,39.18,39.18,0,0,0-7.76-13.37,35.51,35.51,0,0,0-11.34-8.51,33.92,33.92,0,0,0-28.58.38,34.72,34.72,0,0,0-11.28,9,41.13,41.13,0,0,0-7.18,13.12,51.6,51.6,0,0,0,.24,32.58A35.56,35.56,0,0,0,1706,188.39,31.94,31.94,0,0,0,1720.29,191.74Z"/><path class="cls-1" d="M105.78,248.77h43.13a42.85,42.85,0,0,1,12.75,1.81,29.37,29.37,0,0,1,10.12,5.33,24.25,24.25,0,0,1,6.66,8.78,28.91,28.91,0,0,1,2.39,12.1,21.9,21.9,0,0,1-1.4,7.69,26.73,26.73,0,0,1-3.89,7,29.74,29.74,0,0,1-5.92,5.77,26.91,26.91,0,0,1-7.45,3.9,15.58,15.58,0,0,1,3.45,2.15,19.9,19.9,0,0,1,3.29,3.42,28.34,28.34,0,0,1,4.81,10.08l5.75,22.56h8.95l.14,13H168.39l-7.72-31.51q-2.13-8.47-6.46-12.48t-11.86-4H129v36.23h10.39V352.4H105.78V340.64h9.84V260.59h-9.84ZM129,260.59V293.2h19.89a23.37,23.37,0,0,0,7.14-1,15.42,15.42,0,0,0,5.61-3.07,14.31,14.31,0,0,0,3.69-5.09,17.5,17.5,0,0,0,1.33-7.08q0-7.73-4.64-12t-14.77-4.31Z"/><path class="cls-1" d="M256.37,267.91a16.89,16.89,0,0,0-4.82-4.62,22.21,22.21,0,0,0-5.77-2.46,23.93,23.93,0,0,0-6.29-.85,31.38,31.38,0,0,0-9.1,1.19,19.38,19.38,0,0,0-6.46,3.25,13.66,13.66,0,0,0-3.86,4.79,13.27,13.27,0,0,0-1.3,5.74,14.44,14.44,0,0,0,1.61,7.28,13.41,13.41,0,0,0,4.07,4.44,20.7,20.7,0,0,0,5.43,2.63c2,.64,3.89,1.28,5.71,1.92l13.81,4.51a66.8,66.8,0,0,1,11,4.51,30,30,0,0,1,8,6,23.56,23.56,0,0,1,4.89,8,29.85,29.85,0,0,1,1.68,10.46,27,27,0,0,1-2.64,11.89,28.8,28.8,0,0,1-7.34,9.5,35,35,0,0,1-11.25,6.33,43.18,43.18,0,0,1-14.32,2.29,45.17,45.17,0,0,1-13.67-1.82,29.81,29.81,0,0,1-9.54-4.85,25.27,25.27,0,0,1-6.18-6.94,38.12,38.12,0,0,1-3.63-8h-5.19V321.3h17.22q0,7.57,1.61,10.73a14.56,14.56,0,0,0,4.48,5.23,20.36,20.36,0,0,0,6.83,3.14,33.73,33.73,0,0,0,8.75,1.06,29.75,29.75,0,0,0,8.38-1.09,18.48,18.48,0,0,0,6.35-3.18,14,14,0,0,0,4-5.06,15.67,15.67,0,0,0,1.4-6.73,13.56,13.56,0,0,0-1.74-7.08,17.35,17.35,0,0,0-4.48-4.95,25.74,25.74,0,0,0-6-3.35c-2.17-.87-4.25-1.62-6.26-2.26l-15-4.24a43.75,43.75,0,0,1-9-3.83,26.54,26.54,0,0,1-7-5.67,23.8,23.8,0,0,1-4.48-7.83,31.11,31.11,0,0,1-1.57-10.35,27,27,0,0,1,2.32-11.15,25.93,25.93,0,0,1,6.84-9.09,33,33,0,0,1,11-6.12,46.3,46.3,0,0,1,14.94-2.22,38.43,38.43,0,0,1,10.22,1.3,32.52,32.52,0,0,1,8.47,3.66,29.69,29.69,0,0,1,6.7,5.67,34.12,34.12,0,0,1,4.89,7.28h5.13v11.76H258.56Q258.56,270.92,256.37,267.91Z"/><path class="cls-1" d="M309.35,340.64h9.5V260H295.2v16.13h-14V248.77h92.42v27.34h-14V260H332.25v80.66h10.66V352.4H309.35Z"/><path class="cls-1" d="M384.13,248.77H417.7v11.82H407.1v48.26a49.07,49.07,0,0,0,1.95,14.8,27.07,27.07,0,0,0,5.4,10,20.39,20.39,0,0,0,8.21,5.64,29.37,29.37,0,0,0,10.42,1.78,35.27,35.27,0,0,0,10.8-1.57,19.58,19.58,0,0,0,8.44-5.3,25.18,25.18,0,0,0,5.47-9.91,52,52,0,0,0,1.95-15.42V260.59H448.53V248.77h33.56v11.82h-9.22v46.76a58.57,58.57,0,0,1-3.12,19.89,42.23,42.23,0,0,1-8.51,14.56,35.52,35.52,0,0,1-12.71,8.92,40.52,40.52,0,0,1-15.72,3,39.24,39.24,0,0,1-15.35-3A35.2,35.2,0,0,1,405,341.94a42.13,42.13,0,0,1-8.34-14.18,56,56,0,0,1-3-19.18v-48h-9.51Z"/><path class="cls-1" d="M551.62,248.77h33.63v11.82h-9L542.73,352.4h-18.8l-33.09-91.81h-9.16V248.77h33.64v11.82h-9l26.59,79.91,28.51-79.91h-9.77Z"/><path class="cls-1" d="M724.56,248.77H758.2v11.82h-9l-29.6,91.81H698.66l-28.1-90.3-25.91,90.3H623.94l-30.22-91.81h-9.16V248.77H618.2v11.82h-9l25.09,79.64,26.46-91.46h20.44l28.16,91.46,25.57-79.64H724.56Z"/><path class="cls-1" d="M823.82,248.77h33.64v11.82H849.8l-28,38.9L851,340.64h6.43V352.4H823.82V340.64h12.65l-22.15-30.83L792,340.64h12.09V352.4H770.5V340.64h6.77l29.53-41.22-27.89-38.83H770.5V248.77h33.63v11.82h-10L814.32,289l20.37-28.37H823.82Z"/><path class="cls-1" d="M864.91,248.77h33.63v11.82H888.7l19.48,33.29L929,260.59h-10.8V248.77h33.63v11.82H943l-29.12,44.16v35.89h10.66V352.4H891V340.64h9.5V304.41L873,260.59h-8.06Z"/><path class="cls-1" d="M1033.48,264.08l-62.41,76.56h48.6V323.41h13.4v29H957.46V336.88L1019,260.59H972v17.5h-13.4V248.77h74.85Z"/><path class="cls-1" d="M144.47,495.84a37.15,37.15,0,0,1-8.92,6.15,25,25,0,0,1-11.11,2.39,26.83,26.83,0,0,1-9.54-1.64,23.11,23.11,0,0,1-7.48-4.48,20.28,20.28,0,0,1-4.89-6.59,18.85,18.85,0,0,1-1.74-8,22.25,22.25,0,0,1,1.33-8,20.2,20.2,0,0,1,3.55-6.05,20.83,20.83,0,0,1,5.2-4.31,31.85,31.85,0,0,1,6.22-2.8,36.58,36.58,0,0,1,6.63-1.5,49.12,49.12,0,0,1,6.46-.45c3.28,0,6,.11,8.27.31a58.74,58.74,0,0,1,6.09.86l.06-5.82a17.67,17.67,0,0,0-1.09-6.52,12.06,12.06,0,0,0-3.08-4.58,12.57,12.57,0,0,0-4.75-2.7,19.92,19.92,0,0,0-6.18-.89,42,42,0,0,0-6.16.44,48.33,48.33,0,0,0-5.5,1.16,39.37,39.37,0,0,0-4.72,1.64,22.3,22.3,0,0,0-3.65,2l-4.17-8.82a46.5,46.5,0,0,1,5.53-3,47.27,47.27,0,0,1,6.33-2.39,56.71,56.71,0,0,1,6.76-1.57,40.76,40.76,0,0,1,6.81-.58,38.63,38.63,0,0,1,11.07,1.47,21.45,21.45,0,0,1,8.34,4.54,20.09,20.09,0,0,1,5.26,7.83,31.45,31.45,0,0,1,1.85,11.38l-.07,35.41H165V502.4H144.47Zm-17.23-2.12a21.36,21.36,0,0,0,5.06-.62,25.71,25.71,0,0,0,4.78-1.67,25.14,25.14,0,0,0,4.17-2.46,19.68,19.68,0,0,0,3.22-2.91l.07-16H129.77a25.64,25.64,0,0,0-6.73.82,16.25,16.25,0,0,0-5.27,2.39,10.81,10.81,0,0,0-4.68,9.23,10.83,10.83,0,0,0,1,4.88,9.43,9.43,0,0,0,2.9,3.49A13.28,13.28,0,0,0,121.5,493,21.42,21.42,0,0,0,127.24,493.72Z"/><path class="cls-1" d="M176.46,396h23v41.43a38.8,38.8,0,0,1,9.84-5.54,30.36,30.36,0,0,1,11-2.05,31,31,0,0,1,12.78,2.6,29.4,29.4,0,0,1,10,7.31,33.62,33.62,0,0,1,6.52,11.32,47.12,47.12,0,0,1-.27,30.07,35.83,35.83,0,0,1-7.21,11.93,31.63,31.63,0,0,1-11,7.69,35.34,35.34,0,0,1-14,2.7,30.94,30.94,0,0,1-9.88-1.54,27.55,27.55,0,0,1-7.89-4v4.44H186.71V407.79H176.46Zm40.47,45.05a23.1,23.1,0,0,0-9.57,2.05,24.94,24.94,0,0,0-7.93,5.54v38.07a18.79,18.79,0,0,0,6.42,4,28.07,28.07,0,0,0,10.67,1.75,22.22,22.22,0,0,0,8.41-1.64,20,20,0,0,0,7.11-5,24.71,24.71,0,0,0,4.92-8.24,32.64,32.64,0,0,0,1.84-11.48,30.34,30.34,0,0,0-1.74-10.67,23.64,23.64,0,0,0-4.72-7.86,19.77,19.77,0,0,0-6.94-4.88A21.45,21.45,0,0,0,216.93,441.08Z"/><path class="cls-1" d="M316.19,450.45a18.61,18.61,0,0,0-7.28-7.52,21.05,21.05,0,0,0-10.22-2.4,19.2,19.2,0,0,0-8.34,1.85,20.35,20.35,0,0,0-6.81,5.26A25.57,25.57,0,0,0,279,456a33.65,33.65,0,0,0-1.67,10.9A32.44,32.44,0,0,0,279,477.58a24.69,24.69,0,0,0,4.62,8.17,20.4,20.4,0,0,0,6.8,5.2,19.26,19.26,0,0,0,8.31,1.81,20.33,20.33,0,0,0,11.41-3.18,21.86,21.86,0,0,0,7.73-9.33l10.52,5.2a34,34,0,0,1-5.06,7.86,31.73,31.73,0,0,1-6.8,5.94,31.31,31.31,0,0,1-8.34,3.8,33.9,33.9,0,0,1-9.6,1.33,33.26,33.26,0,0,1-13.64-2.77,31.79,31.79,0,0,1-10.8-7.76A35.48,35.48,0,0,1,267,482a43.52,43.52,0,0,1-2.53-15.11,41.58,41.58,0,0,1,2.66-15.11,36.28,36.28,0,0,1,7.32-11.86,33.56,33.56,0,0,1,10.87-7.75,32,32,0,0,1,13.33-2.81,34.72,34.72,0,0,1,12.68,2.33,28.81,28.81,0,0,1,10.49,7H329v11.76Z"/><path class="cls-1" d="M383.25,396H405.6v94.61H416V502.4H392.88v-5.81A24.75,24.75,0,0,1,385,502a25.65,25.65,0,0,1-10.26,2,35.44,35.44,0,0,1-13.36-2.49,30.12,30.12,0,0,1-10.74-7.32,33.82,33.82,0,0,1-7.1-11.82,46.51,46.51,0,0,1-2.57-16,43.28,43.28,0,0,1,2.46-14.94,32.79,32.79,0,0,1,7-11.49,31.42,31.42,0,0,1,10.86-7.38,39.39,39.39,0,0,1,23.52-1.5,24.62,24.62,0,0,1,8.13,3.93V407.79h-9.63Zm-6.91,96.87a23.66,23.66,0,0,0,9.5-1.68,21.76,21.76,0,0,0,7-5V446.55a21.4,21.4,0,0,0-7.86-4.17,32.07,32.07,0,0,0-9.09-1.3,21.45,21.45,0,0,0-8.47,1.68,19.77,19.77,0,0,0-6.94,4.88,23.25,23.25,0,0,0-4.69,7.86,30.82,30.82,0,0,0-1.71,10.67,36.78,36.78,0,0,0,1.65,11.55,24,24,0,0,0,4.58,8.38,18.72,18.72,0,0,0,7,5.09A23,23,0,0,0,376.34,492.9Z"/><path class="cls-1" d="M440.19,468.63a32,32,0,0,0,.44,5.5,28.28,28.28,0,0,0,1.27,4.75,19.6,19.6,0,0,0,8.1,10.29,23.46,23.46,0,0,0,12.61,3.45,38.2,38.2,0,0,0,10.77-1.53,52.52,52.52,0,0,0,11-4.82l5.13,8.68a55.68,55.68,0,0,1-14,7.11,46.33,46.33,0,0,1-14.63,2.32A36.29,36.29,0,0,1,447.54,502,28.47,28.47,0,0,1,437,494.88a33,33,0,0,1-6.9-11.76,48.87,48.87,0,0,1-2.5-16.4,47.58,47.58,0,0,1,2.12-14.33,34,34,0,0,1,6.32-11.75,30.3,30.3,0,0,1,10.43-8A33.56,33.56,0,0,1,461,429.73a32.36,32.36,0,0,1,13.36,2.43,24.34,24.34,0,0,1,8.75,6.43,27.66,27.66,0,0,1,5.13,9.12,54.18,54.18,0,0,1,2.43,10.46c.23,1.73.37,3.49.44,5.26s.11,3.51.11,5.2Zm19.89-28.23a21.81,21.81,0,0,0-7.76,1.26,15.73,15.73,0,0,0-5.64,3.62,17.65,17.65,0,0,0-3.72,5.78,34.64,34.64,0,0,0-2.09,7.66h36.71a34.07,34.07,0,0,0-1.26-7.32,16.2,16.2,0,0,0-3-5.81,13.85,13.85,0,0,0-5.27-3.83A20.29,20.29,0,0,0,460.08,440.4Z"/><path class="cls-1" d="M531.86,431.58h16.41V441.9H531.86v48.74h11.07V502.4H508.48V490.64h10.66V441.9H507.46V431.58h11.68V420.5a34.48,34.48,0,0,1,1.78-10.73,20.82,20.82,0,0,1,4.65-7.65,18.74,18.74,0,0,1,7.25-4.58,27.84,27.84,0,0,1,9.43-1.51,57,57,0,0,1,6.49.34,38.92,38.92,0,0,1,5.13.93,34,34,0,0,1,4,1.26c1.16.46,2.2.91,3.11,1.37l-3.9,9.09a23.87,23.87,0,0,0-5.7-2,32.15,32.15,0,0,0-7.35-.82q-5.68,0-8.92,3.52t-3.25,10.35Z"/><path class="cls-1" d="M611.22,496.18a25,25,0,0,1-8.1,5.74A25.5,25.5,0,0,1,592.63,504a35.44,35.44,0,0,1-13.36-2.49,30.12,30.12,0,0,1-10.74-7.32,34,34,0,0,1-7.11-11.82,46.76,46.76,0,0,1-2.56-16,43.28,43.28,0,0,1,2.46-14.94,32.92,32.92,0,0,1,7-11.49,31.55,31.55,0,0,1,10.87-7.38,36.77,36.77,0,0,1,14.15-2.63,35.54,35.54,0,0,1,9.61,1.2,25.69,25.69,0,0,1,8.3,4.13v-3.62h12.72v68q0,16.81-8,25.43t-24.78,8.61a56.67,56.67,0,0,1-7.73-.55,50.45,50.45,0,0,1-15.62-4.78A34.24,34.24,0,0,1,561,523.8l6.84-10.33a28.31,28.31,0,0,0,4.68,3.28,33.69,33.69,0,0,0,5.64,2.57,43.76,43.76,0,0,0,6.22,1.67,34.08,34.08,0,0,0,6.43.62,33.64,33.64,0,0,0,9.12-1.1,13.17,13.17,0,0,0,6.36-3.86,17.64,17.64,0,0,0,3.72-7.48,48.59,48.59,0,0,0,1.23-12Zm-17-3.28a24.88,24.88,0,0,0,5.74-.62,24.19,24.19,0,0,0,4.72-1.6,18.66,18.66,0,0,0,3.73-2.29,18.35,18.35,0,0,0,2.76-2.74V446.89a21.18,21.18,0,0,0-8-4.44,32.27,32.27,0,0,0-9.33-1.37,21.53,21.53,0,0,0-8.48,1.68,19.82,19.82,0,0,0-6.93,4.88,23.25,23.25,0,0,0-4.69,7.86,30.82,30.82,0,0,0-1.71,10.67,36.78,36.78,0,0,0,1.65,11.55,24,24,0,0,0,4.58,8.38,18.72,18.72,0,0,0,7,5.09A23,23,0,0,0,594.27,492.9Z"/><path class="cls-1" d="M642.4,396h22.42v43.34h.41a29.27,29.27,0,0,1,4.41-3.59,35.54,35.54,0,0,1,5.23-2.9,31,31,0,0,1,5.67-1.92,27.4,27.4,0,0,1,6.15-.68A31.44,31.44,0,0,1,697,431.85a20.1,20.1,0,0,1,7.79,4.79,21.46,21.46,0,0,1,5,8.23,36.36,36.36,0,0,1,1.74,11.87v33.9H722.1V502.4H688.47V490.64h9.71V458.31q0-8.15-4.14-12.34t-11.86-4.21a21.09,21.09,0,0,0-8.89,2.09,41.79,41.79,0,0,0-8.47,5.23v41.56h10.25V502.4H641.44V490.64H652.1V407.79h-9.7Z"/><path class="cls-1" d="M733.45,431.58h23.11v59.06h10.66V502.4H733.59V490.64h10.12v-47.3H733.45Zm7.86-25.09a8.18,8.18,0,0,1,.72-3.38,9.5,9.5,0,0,1,1.91-2.81,9.39,9.39,0,0,1,2.84-1.91,8.62,8.62,0,0,1,3.49-.72,8.18,8.18,0,0,1,3.38.72,9.16,9.16,0,0,1,4.72,4.72,8.18,8.18,0,0,1,.72,3.38,8.62,8.62,0,0,1-.72,3.49,10,10,0,0,1-1.92,2.9,8.57,8.57,0,0,1-2.8,2,8.33,8.33,0,0,1-3.38.71,8.78,8.78,0,0,1-3.49-.71,8.63,8.63,0,0,1-2.84-2A10.21,10.21,0,0,1,742,410,8.62,8.62,0,0,1,741.31,406.49Z"/><path class="cls-1" d="M777.82,431.58h23v76.29a35.7,35.7,0,0,1-1.58,11,23.77,23.77,0,0,1-4.54,8.34,20.56,20.56,0,0,1-7.28,5.37,25.91,25.91,0,0,1-9.85,2.05l-1.3-9.51a11.46,11.46,0,0,0,8.86-5.77q2.76-4.89,2.77-12.89V443.34h-10Zm8.4-25.09a7.46,7.46,0,0,1,.65-3.08,8.7,8.7,0,0,1,1.75-2.52,8.49,8.49,0,0,1,2.56-1.75,7.83,7.83,0,0,1,3.18-.65,7.67,7.67,0,0,1,3.11.65,8.49,8.49,0,0,1,2.56,1.75,8.7,8.7,0,0,1,1.75,2.52,7.46,7.46,0,0,1,.65,3.08,8,8,0,0,1-.65,3.21,8.87,8.87,0,0,1-1.75,2.64,8,8,0,0,1-2.56,1.77,7.51,7.51,0,0,1-3.11.65,7.67,7.67,0,0,1-3.18-.65,8,8,0,0,1-2.56-1.77,8.87,8.87,0,0,1-1.75-2.64A8,8,0,0,1,786.22,406.49Z"/><path class="cls-1" d="M819.65,396h25v11.76h-.13V460.7h12.3l16.82-17.36h-4.24V431.58h26.86v11.76h-9l-21.53,22.21,23.51,25.09h8.55V502.4h-15l-29-31.65h-9.36v19.89h5.88V502.4H820.06V490.64h11.62V407.79h-12Z"/><path class="cls-1" d="M907.56,396h23v94.61H941.2V502.4H907.56V490.64h10.26V407.79H907.56Z"/><path class="cls-1" d="M953.64,431.58H976.2v8.27h.13a58.33,58.33,0,0,1,4.89-3.73,38.39,38.39,0,0,1,5.37-3,32.32,32.32,0,0,1,5.84-2.05,26.35,26.35,0,0,1,6.32-.75,28.63,28.63,0,0,1,13.2,2.84,19.25,19.25,0,0,1,8.54,8.85c1.73-1.55,3.56-3,5.47-4.48a41.21,41.21,0,0,1,6-3.72,36,36,0,0,1,6.53-2.53,26.18,26.18,0,0,1,7.11-1,31.59,31.59,0,0,1,10.32,1.57,20.13,20.13,0,0,1,7.8,4.79,20.62,20.62,0,0,1,4.88,8.23,37.55,37.55,0,0,1,1.68,11.87v33.9h9.84V502.4H1047V490.64h10V458.31q0-8.15-4.11-12.34t-11.82-4.21a22.4,22.4,0,0,0-9.37,2.19,28.65,28.65,0,0,0-8.2,5.54v41.15h9.78V502.4h-33V490.64h10V458.31q0-8.15-4.14-12.34t-11.86-4.21a20.93,20.93,0,0,0-9,2.12,45.17,45.17,0,0,0-8.55,5.27v41.49h10V502.4H953.64V490.64h9.84v-47.3h-9.84Z"/><path class="cls-1" d="M1140.39,490.64h10V458.31q0-8.15-4.14-12.34t-11.86-4.21a21,21,0,0,0-9,2.12,45.41,45.41,0,0,0-8.54,5.27v41.49h10V502.4h-33.09V490.64h9.85v-47.3h-9.85V431.58h22.56v8.34h.14a52,52,0,0,1,4.82-3.76,36.24,36.24,0,0,1,5.36-3.08,32.69,32.69,0,0,1,5.85-2.05,26.63,26.63,0,0,1,6.39-.75,31.37,31.37,0,0,1,10.25,1.57,20.13,20.13,0,0,1,7.8,4.79,21.32,21.32,0,0,1,5,8.23,36.08,36.08,0,0,1,1.75,11.87v33.9h9.84V502.4h-33.09Z"/><path class="cls-1" d="M1186.2,467a43.4,43.4,0,0,1,2.7-15.31,35,35,0,0,1,7.34-11.86,32.09,32.09,0,0,1,11.22-7.63,37.36,37.36,0,0,1,14.28-2.66,37.85,37.85,0,0,1,14.39,2.66,31.88,31.88,0,0,1,11.18,7.56,34.48,34.48,0,0,1,7.24,11.79,46.08,46.08,0,0,1,0,30.52,35.5,35.5,0,0,1-7.24,11.93,32.37,32.37,0,0,1-11.18,7.76,36.41,36.41,0,0,1-14.39,2.77,36.87,36.87,0,0,1-14.49-2.74,32.09,32.09,0,0,1-11.14-7.69,35.11,35.11,0,0,1-7.25-11.86A43.9,43.9,0,0,1,1186.2,467Zm13.46,0a32.55,32.55,0,0,0,1.75,11,25.1,25.1,0,0,0,4.78,8.38,21.57,21.57,0,0,0,7,5.33,19.81,19.81,0,0,0,8.51,1.88,21,21,0,0,0,8.79-1.84,20.67,20.67,0,0,0,7.07-5.3,25.09,25.09,0,0,0,4.72-8.38A33.58,33.58,0,0,0,1244,467a35.2,35.2,0,0,0-1.71-11.42,24.37,24.37,0,0,0-4.68-8.34,19.41,19.41,0,0,0-7.08-5.06,22.83,22.83,0,0,0-8.82-1.7,21.59,21.59,0,0,0-8.51,1.7,20.23,20.23,0,0,0-7,5.06,24,24,0,0,0-4.78,8.34A34.38,34.38,0,0,0,1199.66,467Z"/><path class="cls-1" d="M1268.09,431.58h22.56v5.88a38.8,38.8,0,0,1,9.84-5.54,30.36,30.36,0,0,1,11-2.05,31,31,0,0,1,12.78,2.6,29.4,29.4,0,0,1,10,7.31,33.62,33.62,0,0,1,6.52,11.32,43.61,43.61,0,0,1,2.33,14.59,44.81,44.81,0,0,1-2.6,15.59,36,36,0,0,1-7.21,12.06,32.58,32.58,0,0,1-11,7.83,34.18,34.18,0,0,1-13.95,2.8,36.76,36.76,0,0,1-9.6-1.13,49.4,49.4,0,0,1-8-2.9v22.9h11.07V534.6h-33.63V522.84h9.7v-79.5h-9.84Zm40.06,9.5a23.48,23.48,0,0,0-9.47,2,24.44,24.44,0,0,0-7.89,5.47v38.35a20.15,20.15,0,0,0,6.46,4.17,26.1,26.1,0,0,0,10.49,1.85,21.36,21.36,0,0,0,8.41-1.71,20.32,20.32,0,0,0,7.11-5.09,25.4,25.4,0,0,0,4.92-8.38,33.21,33.21,0,0,0,1.84-11.55,30.34,30.34,0,0,0-1.74-10.67,23.64,23.64,0,0,0-4.72-7.86,19.77,19.77,0,0,0-6.94-4.88A21.45,21.45,0,0,0,1308.15,441.08Z"/><path class="cls-1" d="M1397.15,522.84h10.26v-26a24.9,24.9,0,0,1-7.87,5.23,25.6,25.6,0,0,1-10,1.88,35.49,35.49,0,0,1-13.37-2.49,30.17,30.17,0,0,1-10.73-7.32,34,34,0,0,1-7.11-11.82,46.52,46.52,0,0,1-2.56-16,43.28,43.28,0,0,1,2.46-14.94,32.77,32.77,0,0,1,7-11.49A31.46,31.46,0,0,1,1376,432.5a36.74,36.74,0,0,1,14.15-2.63,34.93,34.93,0,0,1,9.23,1.13,27.66,27.66,0,0,1,8,3.72v-3.14h12.71v91.26h10.67V534.6h-33.64Zm-6-29.94A22.78,22.78,0,0,0,1401,491a20.63,20.63,0,0,0,6.43-4.51V446.34a21.39,21.39,0,0,0-7.76-4,32.61,32.61,0,0,0-8.92-1.23,21.5,21.5,0,0,0-8.48,1.68,19.59,19.59,0,0,0-6.94,4.92,23.54,23.54,0,0,0-4.68,7.89,30.57,30.57,0,0,0-1.71,10.6,37.09,37.09,0,0,0,1.64,11.55,24,24,0,0,0,4.58,8.38,18.88,18.88,0,0,0,7,5.09A23.07,23.07,0,0,0,1391.14,492.9Z"/><path class="cls-1" d="M1489.64,446.55h-13v-4.38a13.48,13.48,0,0,0-4.61.86,14.24,14.24,0,0,0-4.41,2.6,16.4,16.4,0,0,0-3.59,4.44,20.55,20.55,0,0,0-2.22,6.39v34.18h12V502.4h-35.14V490.64h9.78l.07-47.3h-9.85V431.58h22.63v9.77a28.19,28.19,0,0,1,2.77-4.06,18.91,18.91,0,0,1,3.42-3.28,14.82,14.82,0,0,1,4.17-2.19,15,15,0,0,1,5-.79h6.7q3.15,0,6.29.14Z"/><path class="cls-1" d="M1543.89,445.7a10.58,10.58,0,0,0-3.46-3.29,16,16,0,0,0-4.71-1.84,23.05,23.05,0,0,0-5.06-.58,19.37,19.37,0,0,0-5,.61,12.45,12.45,0,0,0-3.93,1.78,8.45,8.45,0,0,0-2.56,2.84,8.28,8.28,0,0,0,1.23,9.36,20.12,20.12,0,0,0,7.21,3.86l13.61,4.79q8.74,2.94,12.78,8a18.79,18.79,0,0,1,4,12.1,19.67,19.67,0,0,1-1.88,8.64,18.85,18.85,0,0,1-5.33,6.7,25.35,25.35,0,0,1-8.31,4.31,35.44,35.44,0,0,1-10.8,1.54q-8.27,0-13.46-2.67a20.05,20.05,0,0,1-8-7h-7.11V483.05h14.15a9.56,9.56,0,0,0,1.26,5,10.12,10.12,0,0,0,3.35,3.38,15.5,15.5,0,0,0,4.72,1.92,23.46,23.46,0,0,0,5.37.61,19.69,19.69,0,0,0,5.12-.65,14.16,14.16,0,0,0,4.34-1.91,10,10,0,0,0,3-3,7.55,7.55,0,0,0,1.09-4,8.24,8.24,0,0,0-2.22-5.81c-1.48-1.59-4-3-7.55-4.3l-13.54-5.06q-8.27-2.94-12.27-7.49a16.62,16.62,0,0,1-4-11.38,20.51,20.51,0,0,1,1.68-8.34,18.43,18.43,0,0,1,4.85-6.6,23.23,23.23,0,0,1,7.76-4.34,32.08,32.08,0,0,1,10.46-1.57,33.39,33.39,0,0,1,12.71,2.12,23.21,23.21,0,0,1,9.23,7.25h6.63v11.75h-14A8.71,8.71,0,0,0,1543.89,445.7Z"/><path class="cls-1" d="M1592.73,431.58h16.61V441.9h-16.75l-.2,40.88a20.16,20.16,0,0,0,.95,6.77,6,6,0,0,0,3.08,3.59,11.18,11.18,0,0,0,4.79,1,22.38,22.38,0,0,0,5-.51,24.83,24.83,0,0,0,4.79-1.75l2.94,8.55a34.66,34.66,0,0,1-6.91,2.7,32.59,32.59,0,0,1-8.54,1,26.18,26.18,0,0,1-8.1-1.13,13,13,0,0,1-5.81-3.79,17.06,17.06,0,0,1-3.52-7.15,45.05,45.05,0,0,1-1.16-11.17l.2-39h-11.28V431.58h11.42V414.63l12.44-5.88Z"/><path class="cls-1" d="M1667,431.58h22.83v59.06h7.86V502.4H1677v-6.56a38.65,38.65,0,0,1-10.43,5.74,35,35,0,0,1-12.06,2.05,28.74,28.74,0,0,1-9.68-1.54,18.36,18.36,0,0,1-7.38-4.78,21.75,21.75,0,0,1-4.68-8.24,38.09,38.09,0,0,1-1.64-11.9V443.34h-9.57V431.58h22.83v44.09q0,8.13,3.76,12.31t10.8,4.17a28.39,28.39,0,0,0,8.78-1.51,36.78,36.78,0,0,0,8.72-4.17V443.34H1667Z"/><path class="cls-1" d="M1711.13,431.58h24.47v11.76H1729l17.5,48.81,17.09-48.81h-4.31V431.58h22.42v11.76h-6.08l-23.17,60.15h-12.58l-23.11-60.15h-5.6Z"/><path class="cls-1" d="M97.37,581.58h22.42v11.76h-3.28l12.37,45.18,17-56.94H156.5l16.2,56.81,12.92-45h-4.1V581.58h22.42v11.76h-6.08l-19.42,60.15H166.68L150.62,597l-16,56.53H122.73l-19.28-60.15H97.37Z"/><path class="cls-1" d="M255.55,640.64h4l-14.08-17.5-13.74,17.5h3.49V652.4H211.73V640.64h5.74L239,615.55l-20.24-22.21H211.6V581.58h23.51v11.76h-2.66l13.05,16.81,13.2-16.81h-3.42V581.58h23.51v11.76h-6.08l-20,23.1,21.19,24.2h5.2V652.4H255.55Z"/><path class="cls-1" d="M284.74,581.58h26.87v11.76H303.2l16.61,45.18,17.36-45.18h-8.34V581.58H355.7v11.76h-7.32l-31.51,79.5h9.71V684.6H298V672.84h8.62l7.51-19.48-23.65-60h-5.74Z"/><path class="cls-1" d="M368.21,644.54l35.89-52.37H381.47v10H368.89V581.58h50.65v8.07l-35.82,52.09h24.2v-12h13.2v22.7H368.21Z"/><path class="cls-1" d="M112.54,790.64h10V714.83l-21,11.42V712l28.84-16.13h5.47v94.81h10.19V802.4H112.54Z"/><path class="cls-1" d="M160.67,792.35l36.43-44q1.85-2.19,3.87-4.72a58.49,58.49,0,0,0,3.76-5.33,33,33,0,0,0,2.87-5.85,18,18,0,0,0,1.12-6.32,15.39,15.39,0,0,0-1.36-6.43,16.67,16.67,0,0,0-3.76-5.26,17.56,17.56,0,0,0-5.71-3.55,20.83,20.83,0,0,0-14-.17A16.18,16.18,0,0,0,178.3,714a16.49,16.49,0,0,0-3.86,5.44,19.49,19.49,0,0,0-1.6,7.48H160.53a29.94,29.94,0,0,1,2.53-12,30.32,30.32,0,0,1,6.6-9.5,29.86,29.86,0,0,1,9.6-6.22A30.29,30.29,0,0,1,190.75,697a34.44,34.44,0,0,1,12.64,2.22,29,29,0,0,1,9.71,6.12,27.18,27.18,0,0,1,6.25,9.23,29.72,29.72,0,0,1,2.23,11.55,26.07,26.07,0,0,1-.58,5.23,30.1,30.1,0,0,1-2,5.95,51.85,51.85,0,0,1-3.69,6.8,74.14,74.14,0,0,1-5.78,7.79l-32.33,38.49h44.23v12H160.67Z"/><path class="cls-1" d="M283.17,725.84a16.52,16.52,0,0,0-1.13-5.71,16.81,16.81,0,0,0-3.49-5.61,18.72,18.72,0,0,0-5.94-4.24,19.94,19.94,0,0,0-8.45-1.67,16.66,16.66,0,0,0-13.94,6.63,14.09,14.09,0,0,0-3.56,8.48h-13a24.72,24.72,0,0,1,3-10.73,31.64,31.64,0,0,1,6.66-8.41A31.27,31.27,0,0,1,264,696.72a35,35,0,0,1,13.26,2.42,32.18,32.18,0,0,1,10.15,6.43,28.54,28.54,0,0,1,6.49,9.12,25.38,25.38,0,0,1,2.29,10.46,26.87,26.87,0,0,1-.82,6.57,23.53,23.53,0,0,1-2.56,6.25,23.78,23.78,0,0,1-4.48,5.5,27.52,27.52,0,0,1-6.63,4.45,23.32,23.32,0,0,1,6,3.45,23.87,23.87,0,0,1,5,5.3,26,26,0,0,1,3.35,7,28.29,28.29,0,0,1,1.23,8.54,29.61,29.61,0,0,1-2.6,12.41,31,31,0,0,1-7,9.88A32.39,32.39,0,0,1,277.25,801a34.63,34.63,0,0,1-12.81,2.36A36.73,36.73,0,0,1,252,801.13a29.3,29.3,0,0,1-10.49-6.32,28.38,28.38,0,0,1-6.36-8.54,27,27,0,0,1-2.46-8.82h13.13a18.7,18.7,0,0,0,7.07,10q5.1,3.62,13,3.62a17.71,17.71,0,0,0,6.94-1.43,19,19,0,0,0,6-4,19.78,19.78,0,0,0,4.17-6,18,18,0,0,0,1.58-7.55,18.78,18.78,0,0,0-1.58-7.8,17.77,17.77,0,0,0-4.23-5.91,19.18,19.18,0,0,0-6.19-3.76,20.94,20.94,0,0,0-7.49-1.33h-5.87V742.93h4.78a23.09,23.09,0,0,0,8.1-1.34,17.63,17.63,0,0,0,6.05-3.65,16,16,0,0,0,3.79-5.44A16.68,16.68,0,0,0,283.17,725.84Z"/><path class="cls-1" d="M312,761.66l36.84-62.89h14.56L328.35,760.7h26.53V743.61l13.4-1V760.7h15.44v11.76H368.28v18.18h10.25V802.4H344.9V790.64h10V772.46h-43Z"/><path class="cls-1" d="M412.91,741.29a31.31,31.31,0,0,1,7.87-3.93A29.25,29.25,0,0,1,430,736a35.51,35.51,0,0,1,14.09,2.74,34.27,34.27,0,0,1,11,7.38A33.45,33.45,0,0,1,462.3,757a33.88,33.88,0,0,1,2.57,13.1,35.06,35.06,0,0,1-2.53,13.22,33.18,33.18,0,0,1-7.18,11A34.32,34.32,0,0,1,444,801.75a36.74,36.74,0,0,1-14.52,2.77,38.73,38.73,0,0,1-11.35-1.61,34.27,34.27,0,0,1-9.5-4.51,32.12,32.12,0,0,1-7.35-6.94,34.8,34.8,0,0,1-5-8.82l11.21-5.6a23.08,23.08,0,0,0,38.39,9.36,23.17,23.17,0,0,0,4.89-7.35,22.87,22.87,0,0,0,1.77-9,22.57,22.57,0,0,0-1.77-9,22,22,0,0,0-4.93-7.18,23.35,23.35,0,0,0-16.4-6.53,25.67,25.67,0,0,0-10.09,2,22.24,22.24,0,0,0-7.69,5.23L401.63,753V698.77H460v11.34h-47.1Z"/><path class="cls-1" d="M524.82,698.77l-23.24,38.76a24.36,24.36,0,0,1,7.55-2c2.26-.19,4.27-.28,6-.28a32.46,32.46,0,0,1,12.17,2.36,32.61,32.61,0,0,1,17.7,16.82,30.53,30.53,0,0,1,2.74,13,38.43,38.43,0,0,1-2.94,15.45,33.74,33.74,0,0,1-7.93,11.41,34.11,34.11,0,0,1-11.59,7.08,40.14,40.14,0,0,1-14,2.43,37.11,37.11,0,0,1-24.88-9.61,34,34,0,0,1-8-10.94,33.21,33.21,0,0,1-3-14.18,32.45,32.45,0,0,1,2.29-11.89,116,116,0,0,1,5.71-12.31l25.36-46.07Zm-15,47.64a20.63,20.63,0,0,0-8.38,1.54,24.91,24.91,0,0,0-6.52,4.31,19.14,19.14,0,0,0-4.86,7,25.65,25.65,0,0,0-1.78,9.88,24.66,24.66,0,0,0,1.78,9.57,20.43,20.43,0,0,0,4.92,7.14,21.43,21.43,0,0,0,7.42,4.44,27.06,27.06,0,0,0,9.26,1.54,24.51,24.51,0,0,0,8.89-1.64,22.6,22.6,0,0,0,12.58-11.82,22,22,0,0,0,1.91-9.23A22.54,22.54,0,0,0,533,759.3a20.9,20.9,0,0,0-5.5-7.14,23.28,23.28,0,0,0-8-4.31A32,32,0,0,0,509.85,746.41Z"/><path class="cls-1" d="M566.93,790.64h8q3.69-10.53,8.13-21.36t9-21.09q4.59-10.26,9-19.52T609.24,712H570.41v8H557.29V698.77h68V709q-4.51,8.9-9.44,18.83t-9.74,20.41q-4.82,10.46-9.33,21.19t-8.2,21.19h8.61V802.4H566.93Z"/><path class="cls-1" d="M671.24,696.85A29.33,29.33,0,0,1,682.35,699a29.78,29.78,0,0,1,9.2,5.81,27.54,27.54,0,0,1,6.25,8.65A24.8,24.8,0,0,1,700.09,724,25.14,25.14,0,0,1,697,736.36a27.63,27.63,0,0,1-8.41,9.37,32.82,32.82,0,0,1,6.36,4.89,32.22,32.22,0,0,1,4.92,6.22,29.83,29.83,0,0,1,3.18,7.28,29,29,0,0,1,1.12,8.06,28.48,28.48,0,0,1-2.63,12.17,32.1,32.1,0,0,1-7.14,9.95A33.9,33.9,0,0,1,671,803.49,34.35,34.35,0,0,1,658,801a33.41,33.41,0,0,1-10.59-6.73,32.3,32.3,0,0,1-7.15-9.95,28.63,28.63,0,0,1-2.63-12.17A29.46,29.46,0,0,1,642,756.77a32.21,32.21,0,0,1,5-6.22,32.58,32.58,0,0,1,6.46-4.89,27.55,27.55,0,0,1-8.23-9.4,26,26,0,0,1-.79-22.83,27.05,27.05,0,0,1,6.19-8.65,28.93,28.93,0,0,1,9.26-5.81A30.65,30.65,0,0,1,671.24,696.85Zm-21.12,75.06a18.15,18.15,0,0,0,1.64,7.62,19.88,19.88,0,0,0,4.48,6.26,21.69,21.69,0,0,0,6.63,4.24,21.1,21.1,0,0,0,8.1,1.57,20.67,20.67,0,0,0,8-1.57,22,22,0,0,0,6.6-4.24,19.69,19.69,0,0,0,4.47-6.26,18,18,0,0,0,1.64-7.62,17.65,17.65,0,0,0-1.64-7.52,19.86,19.86,0,0,0-4.47-6.22A21.36,21.36,0,0,0,679,754a20.84,20.84,0,0,0-8-1.54,21.27,21.27,0,0,0-8.1,1.54,21,21,0,0,0-6.63,4.2,20.05,20.05,0,0,0-4.48,6.22A17.8,17.8,0,0,0,650.12,771.91Zm3.76-47.65a15.84,15.84,0,0,0,4.92,11.59,17.33,17.33,0,0,0,5.51,3.52,18,18,0,0,0,6.93,1.3,16.64,16.64,0,0,0,6.57-1.3,18,18,0,0,0,5.43-3.52,16.77,16.77,0,0,0,3.73-5.19,15.19,15.19,0,0,0,1.36-6.4,15,15,0,0,0-1.36-6.32,16.77,16.77,0,0,0-3.73-5.19,18,18,0,0,0-5.43-3.52,16.64,16.64,0,0,0-6.57-1.3,18,18,0,0,0-6.93,1.3,17.33,17.33,0,0,0-5.51,3.52,15.83,15.83,0,0,0-3.62,5.19A15.54,15.54,0,0,0,653.88,724.26Z"/><path class="cls-1" d="M744.73,802.4l23.86-39.1a31.16,31.16,0,0,1-6.22,1.84,35.27,35.27,0,0,1-18.49-1.88,31.65,31.65,0,0,1-11-6.63,34.65,34.65,0,0,1-7.52-10.52,29.31,29.31,0,0,1-3-12.69A38.41,38.41,0,0,1,725.32,718a33.34,33.34,0,0,1,19.51-18.5,40.36,40.36,0,0,1,14-2.42,38.05,38.05,0,0,1,13.78,2.46A35.4,35.4,0,0,1,784,706.59a33.39,33.39,0,0,1,7.83,11,34.59,34.59,0,0,1,2.83,14.18,32.5,32.5,0,0,1-2.29,11.9,113.94,113.94,0,0,1-5.71,12.3l-26,46.42ZM758.47,709a24.51,24.51,0,0,0-8.89,1.64,23.09,23.09,0,0,0-7.45,4.65,22.65,22.65,0,0,0-5.12,7.18,21.82,21.82,0,0,0-1.92,9.23,22.71,22.71,0,0,0,2,9.88,21,21,0,0,0,5.51,7.14,24,24,0,0,0,7.72,4.31,27,27,0,0,0,8.58,1.43q6.28,0,9.74-1.54a24.92,24.92,0,0,0,6.53-4.3,19.29,19.29,0,0,0,4.85-7,25.5,25.5,0,0,0,1.78-9.88,24.41,24.41,0,0,0-1.78-9.57,20.12,20.12,0,0,0-4.92-7.15,21.75,21.75,0,0,0-7.42-4.44A27,27,0,0,0,758.47,709Z"/><path class="cls-1" d="M846.93,803.63q-11.08,0-18.53-4.1a32.14,32.14,0,0,1-11.93-11.28,50,50,0,0,1-6.39-16.82,106.74,106.74,0,0,1-1.91-20.71,89.66,89.66,0,0,1,2.6-22.11q2.6-10.29,7-16.51a40.32,40.32,0,0,1,11-10.6q6.66-4.38,18.28-4.37,11,0,18.32,3.48a29.56,29.56,0,0,1,12.07,10.7,47.16,47.16,0,0,1,6.67,17.4,117.39,117.39,0,0,1,1.91,21.6,108.21,108.21,0,0,1-1.91,20.85,49.44,49.44,0,0,1-6.46,16.92,33,33,0,0,1-12.07,11.38Q858.08,803.63,846.93,803.63Zm0-12.17q8,0,12.88-3.25a20.26,20.26,0,0,0,7.39-8.85,53.62,53.62,0,0,0,3.72-13.09,98.45,98.45,0,0,0,1.23-16,124.71,124.71,0,0,0-.95-15.62,43.33,43.33,0,0,0-3.7-13.23,22.85,22.85,0,0,0-7.65-9.16q-4.92-3.42-12.79-3.42-8.13,0-12.85,3.42a21.93,21.93,0,0,0-7,8.24,48.8,48.8,0,0,0-3.66,13.23,106.53,106.53,0,0,0-1.33,16.54,140.81,140.81,0,0,0,.86,16,41.94,41.94,0,0,0,3.48,13.09,21.16,21.16,0,0,0,7.52,8.85Q838.93,791.46,846.93,791.46Z"/><path class="cls-1" d="M110.42,844.6H128.2l-2.81,79.77H113.23Zm0,99.53a8.22,8.22,0,0,1,.72-3.39,9.3,9.3,0,0,1,1.92-2.8,9.05,9.05,0,0,1,2.83-1.91,8.62,8.62,0,0,1,3.49-.72,8.18,8.18,0,0,1,3.38.72,9.32,9.32,0,0,1,2.81,1.91,9.46,9.46,0,0,1,1.91,2.8,8.22,8.22,0,0,1,.72,3.39,8.54,8.54,0,0,1-.72,3.48,10.13,10.13,0,0,1-1.91,2.91,8.84,8.84,0,0,1-2.81,2,8.18,8.18,0,0,1-3.38.72,8.68,8.68,0,0,1-6.32-2.7,10,10,0,0,1-1.92-2.91A8.54,8.54,0,0,1,110.42,944.13Z"/><path class="cls-1" d="M251.24,887.05v45.32a13.06,13.06,0,0,0,1.2,6.29,8.24,8.24,0,0,0,2.84,3.11,8,8,0,0,0,4.17,1,12.76,12.76,0,0,0,8.41-2.77,20.79,20.79,0,0,0,5.33-6.66,30.31,30.31,0,0,0,2.77-8,56.69,56.69,0,0,0,.78-10.28,46.23,46.23,0,0,0-2-13.5,51.57,51.57,0,0,0-5.57-12.31,53.77,53.77,0,0,0-8.65-10.59,54.83,54.83,0,0,0-11.28-8.28,58.36,58.36,0,0,0-13.4-5.36,57.63,57.63,0,0,0-15-1.92A55.07,55.07,0,0,0,206,865a55.62,55.62,0,0,0-24.6,14.28,54.13,54.13,0,0,0-8.69,11.25,56.66,56.66,0,0,0-5.57,13.29,54.83,54.83,0,0,0-2,14.77,55.41,55.41,0,0,0,2,14.87,57.18,57.18,0,0,0,5.57,13.36,53.53,53.53,0,0,0,8.69,11.28A55.76,55.76,0,0,0,206,972.43a56.63,56.63,0,0,0,30-.1,56.5,56.5,0,0,0,13.67-5.92l6.43,10.74a68.51,68.51,0,0,1-53.46,7.41A68.23,68.23,0,0,1,155,936.81a68.85,68.85,0,0,1,0-36.26,68.7,68.7,0,0,1,6.87-16.31,67.43,67.43,0,0,1,10.7-13.8,68.2,68.2,0,0,1,30.18-17.54,67.59,67.59,0,0,1,18.18-2.42,70.65,70.65,0,0,1,18.36,2.35,72.1,72.1,0,0,1,16.37,6.6,67.63,67.63,0,0,1,13.81,10.19,65.88,65.88,0,0,1,10.63,13.12,63.7,63.7,0,0,1,6.83,15.35A59,59,0,0,1,289.32,915a50.6,50.6,0,0,1-.89,9.36,46.11,46.11,0,0,1-2.66,9,44.27,44.27,0,0,1-4.35,8.06,30.68,30.68,0,0,1-5.94,6.53,27.55,27.55,0,0,1-7.49,4.37,24,24,0,0,1-8.88,1.61,19,19,0,0,1-10.53-2.73,19.6,19.6,0,0,1-6.63-7,32.92,32.92,0,0,1-9.71,5.53,33.25,33.25,0,0,1-11.62,2,33.91,33.91,0,0,1-13.16-2.5,31.31,31.31,0,0,1-17.16-17.06,32,32,0,0,1-2.42-12.5,31.21,31.21,0,0,1,2.52-12.48A32.4,32.4,0,0,1,197.34,897,33.15,33.15,0,0,1,207.73,890a32.38,32.38,0,0,1,12.89-2.56,32.89,32.89,0,0,1,18,5.26v-5.67Zm-30.62,52a20.13,20.13,0,0,0,11.07-3,19.08,19.08,0,0,0,7-7.69v-17.3a19.73,19.73,0,0,0-3-4.44,19.07,19.07,0,0,0-4.13-3.52,20,20,0,0,0-5.1-2.29,20.61,20.61,0,0,0-20.3,5,18.91,18.91,0,0,0-4.2,6.25,19.22,19.22,0,0,0-1.51,7.56,19.78,19.78,0,0,0,1.44,7.55,18.35,18.35,0,0,0,4.07,6.15,19.06,19.06,0,0,0,6.35,4.17A21.54,21.54,0,0,0,220.62,939.07Z"/><path class="cls-1" d="M312.15,870.5h17.23l4.31-21.73h13.05L342.5,870.5h24l4.3-21.73h13.06l-4.24,21.73H395l-2.66,13.61H377l-5.54,28.37h16.34l-2.53,13.33H368.82L363.7,952.4H350.5l5.2-26.59h-24l-5.12,26.59H313.11l5.26-26.59H301.9l2.8-13.33H321l5.6-28.37H309.35Zm22.15,42h24l5.54-28.37h-24Z"/><path class="cls-1" d="M433.08,965.11v-22a21.54,21.54,0,0,1-16.88-11.41h-8.14V919.93h17.16v.75l.14-.07q0,5.53,3.82,8.44T440.53,932q6.84,0,10.84-2.67a8.58,8.58,0,0,0,4-7.58,6.68,6.68,0,0,0-1.34-4.24,10.92,10.92,0,0,0-3.35-2.84,20.38,20.38,0,0,0-4.47-1.81l-4.72-1.3-12-3.21a36.58,36.58,0,0,1-7.18-2.7,20.9,20.9,0,0,1-5.64-4.14,17.5,17.5,0,0,1-3.66-5.81,21.59,21.59,0,0,1-1.3-7.79,18.6,18.6,0,0,1,1.44-7.35,17.75,17.75,0,0,1,4.17-6,22.56,22.56,0,0,1,6.73-4.31,36.76,36.76,0,0,1,9.06-2.46V844.46h13.47v23.38a27.68,27.68,0,0,1,10.05,3.69,23.62,23.62,0,0,1,6.83,6.36h6.91v11.76H456.05l-1.57.2v-.2h-.14v-1.51A10.63,10.63,0,0,0,449.9,881q-3.76-2.73-10-2.73-7.46,0-11.35,2.43a8,8,0,0,0-2.63,11.24,9.78,9.78,0,0,0,3.18,2.77,17.32,17.32,0,0,0,4.2,1.64q2.3.59,4.41,1.2l11.89,3.62a55.06,55.06,0,0,1,8.1,3.11,23.8,23.8,0,0,1,6,4.07,16.21,16.21,0,0,1,3.8,5.43A18.37,18.37,0,0,1,468.9,921a19.44,19.44,0,0,1-1.61,7.9,20.71,20.71,0,0,1-4.54,6.53,26.3,26.3,0,0,1-7.08,4.85,33.38,33.38,0,0,1-9.12,2.8v22Z"/><path class="cls-1" d="M485.65,872.62a22.58,22.58,0,0,1,1.71-8.71,22,22,0,0,1,4.82-7.25,23,23,0,0,1,7.41-4.92,25.5,25.5,0,0,1,18.87,0,22.33,22.33,0,0,1,12.2,12.17,22.07,22.07,0,0,1,1.75,8.71,22.84,22.84,0,0,1-1.68,8.75,22.15,22.15,0,0,1-12.13,12.21,26.39,26.39,0,0,1-19.21,0,21.92,21.92,0,0,1-7.35-5,22.65,22.65,0,0,1-4.72-7.25A23,23,0,0,1,485.65,872.62Zm80.46-25.49h13.33L508.28,953.49H495Zm-57.08,14a12.43,12.43,0,0,0-4.62.85,11.52,11.52,0,0,0-3.76,2.4,11.21,11.21,0,0,0-2.53,3.65,11.79,11.79,0,0,0,0,9.13,11.81,11.81,0,0,0,6.29,6.29,11.72,11.72,0,0,0,4.62.92,11.26,11.26,0,0,0,4.51-.92,12,12,0,0,0,3.69-2.5,11.71,11.71,0,0,0,3.42-8.34,11.38,11.38,0,0,0-3.42-8.23,11.21,11.21,0,0,0-3.69-2.4A11.94,11.94,0,0,0,509,861.14Zm35.82,69.18a22.32,22.32,0,0,1,1.71-8.68,22,22,0,0,1,4.82-7.21,23.23,23.23,0,0,1,7.41-5,25,25,0,0,1,18.87,0,23.39,23.39,0,0,1,7.42,5,22.33,22.33,0,0,1,6.53,15.89,23.06,23.06,0,0,1-1.68,8.78,22.11,22.11,0,0,1-4.72,7.25,22.69,22.69,0,0,1-7.34,5,26.17,26.17,0,0,1-19.28,0,22.84,22.84,0,0,1-7.35-5,22.11,22.11,0,0,1-4.72-7.25A23.25,23.25,0,0,1,544.85,930.32Zm23.38-11.49a11.86,11.86,0,0,0-4.55.89,12.11,12.11,0,0,0-3.76,2.43,11.41,11.41,0,0,0-2.53,3.62,11.21,11.21,0,0,0-.92,4.55,11.48,11.48,0,0,0,.92,4.54,11.91,11.91,0,0,0,2.53,3.76,11.7,11.7,0,0,0,3.76,2.53,11.36,11.36,0,0,0,4.55.93,11.1,11.1,0,0,0,4.51-.93,11.77,11.77,0,0,0,3.69-2.49,11.62,11.62,0,0,0,2.49-3.73,11.47,11.47,0,0,0,.93-4.61,11.05,11.05,0,0,0-.93-4.55,11.46,11.46,0,0,0-2.49-3.62,11.78,11.78,0,0,0-3.69-2.43A11.59,11.59,0,0,0,568.23,918.83Z"/><path class="cls-1" d="M686.83,952.81,670.7,937.22a53.26,53.26,0,0,1-6.22,6.5,43.5,43.5,0,0,1-7.15,5.09,35.9,35.9,0,0,1-8.06,3.35,33.38,33.38,0,0,1-9.06,1.2A32.93,32.93,0,0,1,627.8,951a31.75,31.75,0,0,1-10-6.36,29.38,29.38,0,0,1-6.73-9.53,28.72,28.72,0,0,1-2.46-11.86,26.37,26.37,0,0,1,1.26-8.1,31,31,0,0,1,3.49-7.35,31.93,31.93,0,0,1,5.19-6.15,42.71,42.71,0,0,1,9.27-5.95l-4.51-4.38a31.68,31.68,0,0,1-3.46-3.76,28.4,28.4,0,0,1-2.94-4.58,30.23,30.23,0,0,1-2.05-5.12,18.69,18.69,0,0,1-.78-5.27,24.43,24.43,0,0,1,2.12-10.18,25.63,25.63,0,0,1,5.77-8.2A27.53,27.53,0,0,1,641,846.72a28.53,28.53,0,0,1,11,2.11,28.21,28.21,0,0,1,8.78,5.68,26.4,26.4,0,0,1,5.81,8.27,23.64,23.64,0,0,1,2.12,9.84,28.35,28.35,0,0,1-.82,7.22,20.67,20.67,0,0,1-2.32,5.57,22.36,22.36,0,0,1-3.59,4.47,40.58,40.58,0,0,1-4.44,3.73,52.52,52.52,0,0,1-4.82,3.11q-2.46,1.41-5.06,2.7l20.92,19.48a72.7,72.7,0,0,0,3.52-9.87q1.33-4.89,2.08-8.86H687.1a89.08,89.08,0,0,1-3.55,13.33A84.47,84.47,0,0,1,677.46,927l18.87,17.5Zm-55.71-45.94a15,15,0,0,0-4.21,2.63,18.51,18.51,0,0,0-5.36,8.48,17,17,0,0,0-.76,5,17.6,17.6,0,0,0,1.54,7.35,17.81,17.81,0,0,0,4.24,5.85,19.82,19.82,0,0,0,6.36,3.86,21.8,21.8,0,0,0,7.83,1.4,24.32,24.32,0,0,0,6.7-.89,24.86,24.86,0,0,0,5.87-2.49,26.33,26.33,0,0,0,5-3.83,43.87,43.87,0,0,0,4.27-4.82l-26-25.09Zm21.26-24.61a18.24,18.24,0,0,0,3-4.41,11.53,11.53,0,0,0,1.24-5.23,12.78,12.78,0,0,0-1.27-5.53,16,16,0,0,0-8.34-8,15.38,15.38,0,0,0-6-1.19,16.33,16.33,0,0,0-6.19,1.12,14.4,14.4,0,0,0-4.75,3.11,14.15,14.15,0,0,0-3.07,4.62,14.71,14.71,0,0,0-1.1,5.71,15.09,15.09,0,0,0,1.4,6,21.62,21.62,0,0,0,5.1,6.66l6.08,5.68a81.44,81.44,0,0,0,7.59-3.83A30.18,30.18,0,0,0,652.38,882.26Z"/><path class="cls-1" d="M732.15,863.87l17-5.53,2.52,8.13-17,5.47,10.74,14.63-7.46,4.92-10.18-14.08-10.12,13.94-7.38-4.78,10.59-14.49-17.63-5.61,2.66-8.54,17.23,5.6V846.72h9.09Z"/><path class="cls-1" d="M757,900.38l57.62-28.92v12.65l-46.34,21.53,46.34,21.53v12.65L757,911Z"/><path class="cls-1" d="M893.55,911l-57.63,28.78V927.17l46.35-21.53-46.35-21.53V871.46l57.63,28.92Z"/><path class="cls-1" d="M929.16,929.43a117.48,117.48,0,0,1,.52-12.07,40.69,40.69,0,0,1,1.94-9.09,23.28,23.28,0,0,1,4-7.21,52.42,52.42,0,0,1,6.56-6.49q3.63-3.08,6.6-5.33a48.26,48.26,0,0,0,5.09-4.41,16.72,16.72,0,0,0,3.28-4.65,14.19,14.19,0,0,0,1.17-6,14.8,14.8,0,0,0-1.24-6,17.38,17.38,0,0,0-3.31-5.09,16.51,16.51,0,0,0-4.92-3.59,13.78,13.78,0,0,0-6.05-1.37,19.88,19.88,0,0,0-9.23,1.92,19,19,0,0,0-5.95,4.61,16.92,16.92,0,0,0-3.21,5.71,17.31,17.31,0,0,0-1,5.12l-12-.82a29.18,29.18,0,0,1,2.77-10.86,29.54,29.54,0,0,1,6.53-9,31.2,31.2,0,0,1,9.7-6.16,32.6,32.6,0,0,1,12.38-2.29,30.8,30.8,0,0,1,12.13,2.26,26.63,26.63,0,0,1,8.92,6,24.87,24.87,0,0,1,5.47,8.71,29.49,29.49,0,0,1,1.85,10.36,24.37,24.37,0,0,1-3.56,12.85A36.51,36.51,0,0,1,957,897.37q-3.22,2.25-7.35,5.81a19.48,19.48,0,0,0-5.88,8.78,38.26,38.26,0,0,0-2,8.75q-.27,3.52-.27,8.72Zm-2.94,14.7a8.22,8.22,0,0,1,.72-3.39,9.3,9.3,0,0,1,1.92-2.8,9.05,9.05,0,0,1,2.83-1.91,8.62,8.62,0,0,1,3.49-.72,8.18,8.18,0,0,1,3.38.72,9.32,9.32,0,0,1,2.81,1.91,9.46,9.46,0,0,1,1.91,2.8,8.22,8.22,0,0,1,.72,3.39,8.54,8.54,0,0,1-.72,3.48,10.13,10.13,0,0,1-1.91,2.91,8.84,8.84,0,0,1-2.81,2,8.18,8.18,0,0,1-3.38.72,8.68,8.68,0,0,1-6.32-2.7,10,10,0,0,1-1.92-2.91A8.54,8.54,0,0,1,926.22,944.13Z"/></svg>