<svg xmlns="http://www.w3.org/2000/svg" viewBox="0 0 720 1080"><defs><style>.cls-1{fill:#c2c7c8;}.cls-2{fill:#fff;}.cls-3{fill:#ffec00;}.cls-4{fill:#1d1d1b;}.cls-5{fill:#cbe4d4;}.cls-6,.cls-7{fill:none;stroke:#1d1d1b;stroke-miterlimit:10;}.cls-6{stroke-width:5.08px;}.cls-7{stroke-width:8.55px;}</style></defs><g id="Graphics"><rect class="cls-1" x="-180.67" y="180.67" width="1080" height="718.67" transform="translate(-180.67 899.33) rotate(-90)"/><rect class="cls-2" x="39.84" y="51.79" width="627.01" height="976.38"/><path class="cls-3" d="M218.92,644.28A87.62,87.62,0,0,0,131.3,731.9H306.53A87.61,87.61,0,0,0,218.92,644.28Z"/><polygon class="cls-4" points="468.76 203.7 474.51 203.7 474.51 202.08 468.76 202.08 468.76 198.5 474.51 198.5 474.51 196.89 467.14 196.89 467.14 208.89 474.52 208.89 474.52 207.28 468.76 207.28 468.76 203.7"/><polygon class="cls-4" points="478.98 203.7 484.74 203.7 484.74 202.08 478.98 202.08 478.98 198.5 484.74 198.5 484.74 196.89 477.37 196.89 477.37 208.89 484.74 208.89 484.74 207.28 478.98 207.28 478.98 203.7"/><polygon class="cls-4" points="456.53 196.88 456.53 198.49 461.81 198.49 455.83 208.9 464.27 208.9 464.27 207.28 458.62 207.28 464.59 196.88 456.53 196.88"/><polygon class="cls-4" points="489.22 203.68 494.97 203.68 494.97 202.06 489.22 202.06 489.22 198.48 494.97 198.48 494.97 196.87 487.61 196.87 487.61 208.87 494.98 208.87 494.98 207.26 489.22 207.26 489.22 203.68"/><polygon class="cls-4" points="504.93 196.87 504.93 206.09 499.34 196.87 497.83 196.87 497.83 208.89 499.45 208.89 499.45 200.16 504.74 208.89 506.54 208.89 506.54 196.87 504.93 196.87"/><path class="cls-4" d="M463.48,225h-5.11l-1.1,2.88h-1.64l4.55-11.74h1.62l4.49,11.74h-1.76Zm-4.6-1.34H463l-2-5.47Z"/><path class="cls-4" d="M469.16,227.85h-1.49v-8.38h1.46V221a2.57,2.57,0,0,1,2.4-1.52h.64v1.41h-.66a2,2,0,0,0-1.71.92,4.24,4.24,0,0,0-.64,2.48Z"/><path class="cls-4" d="M472.61,220.7v-1.23h1.47v-2.7h1.5v2.7h2.11v1.23h-2.11v4.69a1.36,1.36,0,0,0,.23.92,1,1,0,0,0,.81.26h1.27v1.28h-1.5a2.36,2.36,0,0,1-1.72-.58,2.24,2.24,0,0,1-.59-1.68V220.7Z"/><path class="cls-4" d="M480.79,218.11H479.3v-2h1.49Zm0,9.74H479.3v-8.38h1.49Z"/><path class="cls-4" d="M486.08,228.05a4.09,4.09,0,0,1-2.59-.74,2.68,2.68,0,0,1-1.05-2l1.49-.22a2,2,0,0,0,.64,1.36,2.25,2.25,0,0,0,1.51.45,2.08,2.08,0,0,0,1.32-.36,1.29,1.29,0,0,0,.45-1.07c0-.66-.49-1.07-1.47-1.2l-1.2-.19a3.41,3.41,0,0,1-1.84-.79,2.1,2.1,0,0,1-.63-1.58,2.13,2.13,0,0,1,.86-1.75,3.59,3.59,0,0,1,2.29-.68,3.65,3.65,0,0,1,2.29.67,2.87,2.87,0,0,1,1.06,1.92l-1.37.2a2.14,2.14,0,0,0-.68-1.24,2.53,2.53,0,0,0-2.55-.05,1.07,1.07,0,0,0-.15,1.62,1.9,1.9,0,0,0,1,.39l1.34.22c1.7.27,2.54,1.07,2.54,2.4a2.39,2.39,0,0,1-.87,1.94A3.66,3.66,0,0,1,486.08,228.05Z"/><path class="cls-4" d="M490,220.7v-1.23h1.47v-2.7H493v2.7h2.12v1.23H493v4.69a1.35,1.35,0,0,0,.24.92,1,1,0,0,0,.8.26h1.28v1.28h-1.51a2.35,2.35,0,0,1-1.71-.58,2.24,2.24,0,0,1-.59-1.68V220.7Z"/><path class="cls-4" d="M498.19,218.11H496.7v-2h1.49Zm0,9.74H496.7v-8.38h1.49Z"/><path class="cls-4" d="M503.92,226.78a2.18,2.18,0,0,0,1.52-.53,2.29,2.29,0,0,0,.68-1.49l1.46.18a3.39,3.39,0,0,1-1.16,2.27,4.16,4.16,0,0,1-5.4-.33,5.38,5.38,0,0,1,0-6.41,3.71,3.71,0,0,1,2.88-1.21,3.83,3.83,0,0,1,2.54.81,3.5,3.5,0,0,1,1.17,2.28l-1.52.17a2.05,2.05,0,0,0-2.21-2,2.1,2.1,0,0,0-1.76.83,3.74,3.74,0,0,0-.63,2.32,3.63,3.63,0,0,0,.63,2.27A2.11,2.11,0,0,0,503.92,226.78Z"/><path class="cls-4" d="M516.26,226.61h.4v1.24h-.81a1.84,1.84,0,0,1-1.1-.32,1.16,1.16,0,0,1-.5-.87,2.93,2.93,0,0,1-2.65,1.39,3.14,3.14,0,0,1-2.12-.68,2.21,2.21,0,0,1-.8-1.76,2.35,2.35,0,0,1,.66-1.72,3.34,3.34,0,0,1,1.87-.87l2.45-.42a.55.55,0,0,0,.52-.6,1.38,1.38,0,0,0-.49-1.11,1.94,1.94,0,0,0-1.34-.43,2.12,2.12,0,0,0-1.35.38,2,2,0,0,0-.69,1.17l-1.42-.16A2.93,2.93,0,0,1,510,220a3.86,3.86,0,0,1,2.37-.71,3.38,3.38,0,0,1,2.37.8,2.81,2.81,0,0,1,.86,2.14V226a.72.72,0,0,0,.14.49A.67.67,0,0,0,516.26,226.61Zm-6.11-1.11a1.25,1.25,0,0,0,.43,1,1.78,1.78,0,0,0,1.19.36,2.25,2.25,0,0,0,1.75-.77,2.85,2.85,0,0,0,.68-2v-.49l-2.69.47a1.74,1.74,0,0,0-1,.47A1.27,1.27,0,0,0,510.15,225.5Z"/><path class="cls-4" d="M519.46,227.85H518V216.11h1.49Z"/><path class="cls-4" d="M523.26,227.85h-1.49V216.11h1.49Z"/><path class="cls-4" d="M527.65,228.64l.28-.74-3.3-8.43h1.58l2.48,6.59,2.5-6.59h1.51L529,228.79a3.67,3.67,0,0,1-1.14,1.7,2.86,2.86,0,0,1-1.73.46h-.87v-1.26h.87a1.37,1.37,0,0,0,1.48-1.05Z"/><path class="cls-4" d="M539.29,227.85h-1.62V216.11h8.24v1.38h-6.62v3.82h6v1.37h-6Z"/><path class="cls-4" d="M548.64,227.85h-1.49v-8.38h1.46V221a2.57,2.57,0,0,1,2.39-1.52h.65v1.41H551a2,2,0,0,0-1.71.92,4.24,4.24,0,0,0-.64,2.48Z"/><path class="cls-4" d="M552.3,223.66a4.54,4.54,0,0,1,1.11-3.19,3.86,3.86,0,0,1,3-1.21,3.92,3.92,0,0,1,3,1.21,5.09,5.09,0,0,1,0,6.37,3.89,3.89,0,0,1-3,1.21,3.82,3.82,0,0,1-3-1.21A4.5,4.5,0,0,1,552.3,223.66Zm6,2.29a3.48,3.48,0,0,0,.69-2.29,3.53,3.53,0,0,0-.69-2.3,2.54,2.54,0,0,0-3.77,0,4.28,4.28,0,0,0,0,4.6,2.27,2.27,0,0,0,1.88.83A2.31,2.31,0,0,0,558.27,226Z"/><path class="cls-4" d="M569.15,223.22v4.63h-1.49v-5.17a2.34,2.34,0,0,0-.48-1.57,1.69,1.69,0,0,0-1.35-.55,1.86,1.86,0,0,0-1.56.68,3.15,3.15,0,0,0-.53,2v4.63h-1.49v-8.38h1.45v1a2.82,2.82,0,0,1,2.47-1.23,3.16,3.16,0,0,1,1.6.39,2.49,2.49,0,0,1,1,1.13,2.87,2.87,0,0,1,2.71-1.52,3,3,0,0,1,2.25.85,3.18,3.18,0,0,1,.82,2.3v5.44h-1.49v-5.17a2.29,2.29,0,0,0-.49-1.57,1.69,1.69,0,0,0-1.35-.55,1.86,1.86,0,0,0-1.56.68A3.22,3.22,0,0,0,569.15,223.22Z"/><path class="cls-4" d="M582.3,227.85h-1.61V216.11h1.61Z"/><path class="cls-4" d="M586.28,227.85h-1.49v-8.38h1.45V221a2.59,2.59,0,0,1,2.4-1.52h.65v1.41h-.66a2,2,0,0,0-1.71.92,4.24,4.24,0,0,0-.64,2.48Z"/><path class="cls-4" d="M597.53,226.61h.4v1.24h-.81a1.89,1.89,0,0,1-1.11-.32,1.19,1.19,0,0,1-.5-.87,2.92,2.92,0,0,1-2.65,1.39,3.13,3.13,0,0,1-2.11-.68,2.18,2.18,0,0,1-.8-1.76,2.39,2.39,0,0,1,.65-1.72,3.37,3.37,0,0,1,1.88-.87l2.44-.42a.56.56,0,0,0,.53-.6,1.38,1.38,0,0,0-.49-1.11,2,2,0,0,0-1.34-.43,2.17,2.17,0,0,0-1.36.38,1.94,1.94,0,0,0-.68,1.17l-1.42-.16A2.87,2.87,0,0,1,591.3,220a3.86,3.86,0,0,1,2.37-.71,3.35,3.35,0,0,1,2.37.8,2.78,2.78,0,0,1,.87,2.14V226a.51.51,0,0,0,.62.63Zm-6.11-1.11a1.22,1.22,0,0,0,.43,1,1.77,1.77,0,0,0,1.18.36,2.24,2.24,0,0,0,1.75-.77,2.81,2.81,0,0,0,.69-2v-.49l-2.69.47a1.74,1.74,0,0,0-1,.47A1.27,1.27,0,0,0,591.42,225.5Z"/><path class="cls-4" d="M606.44,222.41v5.44H605v-5.17a2.23,2.23,0,0,0-.51-1.57,1.89,1.89,0,0,0-1.47-.55,2,2,0,0,0-1.67.68,3,3,0,0,0-.58,2v4.63h-1.49v-8.38h1.46v1.05a2.94,2.94,0,0,1,2.61-1.26,2.92,2.92,0,0,1,3.14,3.15Z"/><path class="cls-4" d="M462.53,242.94h-6v-8.81h5.93v1h-4.72V238h4.21v1h-4.21v2.94h4.84Z"/><path class="cls-4" d="M467.06,243.09a3.79,3.79,0,0,1-2.52-.77,2.62,2.62,0,0,1-1-2.1l1.19-.15a2,2,0,0,0,.63,1.51,2.48,2.48,0,0,0,1.66.52,2,2,0,0,0,1.37-.43,1.43,1.43,0,0,0,.5-1.14,1.2,1.2,0,0,0-.35-.91,2.76,2.76,0,0,0-1.21-.51l-1.17-.25a3.34,3.34,0,0,1-1.78-.86,2.33,2.33,0,0,1,.24-3.31,3.17,3.17,0,0,1,2.14-.7,3.39,3.39,0,0,1,2.21.67,2.62,2.62,0,0,1,.94,1.88l-1.19.15a1.76,1.76,0,0,0-2-1.71,2,2,0,0,0-1.31.38,1.24,1.24,0,0,0-.46,1,1.23,1.23,0,0,0,.34.92,2.22,2.22,0,0,0,1.09.5l1.37.29a3.37,3.37,0,0,1,1.74.82,2.09,2.09,0,0,1,.56,1.54,2.43,2.43,0,0,1-.84,1.89A3.3,3.3,0,0,1,467.06,243.09Z"/><path class="cls-4" d="M470.68,234.13h6.69v1h-2.74v7.77h-1.2v-7.77h-2.75Z"/><path class="cls-4" d="M485.12,236.47a1.4,1.4,0,0,0-.42-1.06,1.57,1.57,0,0,0-1.11-.39,1.69,1.69,0,0,0-1.42.6,2.71,2.71,0,0,0-.45,1.77l-1.16-.15a2.94,2.94,0,0,1,.76-2.37,3,3,0,0,1,2.27-.88,2.82,2.82,0,0,1,2,.68,2.42,2.42,0,0,1,.74,1.8,3.18,3.18,0,0,1-.45,1.59,7.85,7.85,0,0,1-1.44,1.71l-2.36,2.16h4.48v1h-6v-1l3.17-2.91a5.39,5.39,0,0,0,1.11-1.29A2.47,2.47,0,0,0,485.12,236.47Z"/><path class="cls-4" d="M487.75,238.54a5.76,5.76,0,0,1,.86-3.34A2.84,2.84,0,0,1,491,234a2.79,2.79,0,0,1,2.43,1.21,6.76,6.76,0,0,1,0,6.67,3,3,0,0,1-4.86,0A5.7,5.7,0,0,1,487.75,238.54Zm4.85,2.62a6.54,6.54,0,0,0,0-5.25A1.72,1.72,0,0,0,491,235a1.74,1.74,0,0,0-1.55.95,5.1,5.1,0,0,0-.55,2.6,5.22,5.22,0,0,0,.54,2.62,1.71,1.71,0,0,0,1.56.93A1.73,1.73,0,0,0,492.6,241.16Z"/><path class="cls-4" d="M501.12,242.94h-5.46v-1h2.15v-5.65a2,2,0,0,1-1,.23h-1.18v-1h1.1a1,1,0,0,0,.84-.33,1.64,1.64,0,0,0,.28-1.06H499v7.8h2.11Z"/><path class="cls-4" d="M506.89,240.36a1.42,1.42,0,0,0-.45-1.11,1.93,1.93,0,0,0-1.29-.39h-.79V238h.76a1.43,1.43,0,0,0,1.1-.42,1.65,1.65,0,0,0,.39-1.17,1.25,1.25,0,0,0-.43-1A1.68,1.68,0,0,0,505,235a1.78,1.78,0,0,0-1.32.49,1.94,1.94,0,0,0-.54,1.35l-1.09-.24a2.41,2.41,0,0,1,.85-1.87,3.19,3.19,0,0,1,2.13-.72,3,3,0,0,1,2,.63,2.08,2.08,0,0,1,.74,1.68,2.3,2.3,0,0,1-.32,1.23,2,2,0,0,1-.91.8,2.3,2.3,0,0,1,1.13.78,2.1,2.1,0,0,1,.39,1.26,2.56,2.56,0,0,1-.81,2,3.18,3.18,0,0,1-2.2.74,3.81,3.81,0,0,1-2.27-.65,2.41,2.41,0,0,1-1-1.8l1.2-.27a1.82,1.82,0,0,0,.59,1.28,2.09,2.09,0,0,0,1.41.45,2,2,0,0,0,1.37-.46A1.64,1.64,0,0,0,506.89,240.36Z"/><circle class="cls-5" cx="460.09" cy="440.14" r="64.79"/><path class="cls-6" d="M437.1,540.07V591a55.92,55.92,0,0,1-55.93,55.92h0A55.92,55.92,0,0,1,325.25,591V540.07H437.1"/><line class="cls-7" x1="171.17" y1="440.14" x2="171.17" y2="395.33"/><line class="cls-7" x1="171.17" y1="395.33" x2="203.93" y2="395.33"/><line class="cls-7" x1="171.17" y1="395.33" x2="194.33" y2="372.17"/><line class="cls-7" x1="171.17" y1="395.33" x2="171.17" y2="352.39"/><path class="cls-7" d="M218.92,508.23V727.61H556V617.36h0a77.29,77.29,0,0,0-77.29-77.3H325.25V520.8A77.29,77.29,0,0,0,248,443.5H171.17V552.23H194.1l0-21,43.68-43.68"/><line class="cls-7" x1="171.17" y1="418.78" x2="152.04" y2="418.78"/><path class="cls-7" d="M173.16,407.34a11.44,11.44,0,0,1,0,22.88"/><path class="cls-7" d="M182.61,363.83a11.44,11.44,0,0,0-22.88,0"/><path class="cls-7" d="M437.1,540.07V591a55.92,55.92,0,0,1-55.93,55.92h0A55.92,55.92,0,0,1,325.25,591V540.07H437.1Z"/><path class="cls-7" d="M269.32,727.61a55.93,55.93,0,0,1,55.93-55.93h0a55.93,55.93,0,0,1,55.92,55.93"/><line class="cls-7" x1="314.16" y1="477.22" x2="218.92" y2="572.47"/><polyline class="cls-7" points="200.59 443.5 200.59 472.92 171.17 472.92"/><polyline class="cls-7" points="555.99 698.76 478.7 698.76 478.7 540.07"/><path class="cls-4" d="M94.81,351.7a3.45,3.45,0,0,1,.69-2.26,2.41,2.41,0,0,1,1.88-.86l.13,1.06a1.8,1.8,0,0,0-1.34.57,2.2,2.2,0,0,0-.47,1.49,1.85,1.85,0,0,0,.38,1.22,1.29,1.29,0,0,0,1,.45,1.07,1.07,0,0,0,.81-.32,2.29,2.29,0,0,0,.45-1.08l.22-1.05a3.13,3.13,0,0,1,.78-1.59,2,2,0,0,1,1.42-.51,1.94,1.94,0,0,1,1.53.73,2.78,2.78,0,0,1,.64,1.91,3,3,0,0,1-.61,2,2.36,2.36,0,0,1-1.68.84l-.13-1.06a1.58,1.58,0,0,0,1.53-1.76,1.85,1.85,0,0,0-.34-1.17,1.26,1.26,0,0,0-1.75-.11,1.91,1.91,0,0,0-.44,1l-.26,1.22a3,3,0,0,1-.74,1.56,1.86,1.86,0,0,1-1.38.5,2.14,2.14,0,0,1-1.68-.75A2.89,2.89,0,0,1,94.81,351.7Z"/><path class="cls-4" d="M100.57,359.47v1H95v-1h.68a1.91,1.91,0,0,1-.82-1.69,2,2,0,0,1,.57-1.5,2.13,2.13,0,0,1,1.55-.55h3.64v1H97.1a1.54,1.54,0,0,0-1,.33,1.19,1.19,0,0,0-.37.94,1.3,1.3,0,0,0,.46,1.08,2,2,0,0,0,1.33.37Z"/><path class="cls-4" d="M98.05,366.76H95v-1h3.46a1.54,1.54,0,0,0,1.06-.32,1.11,1.11,0,0,0,.37-.9,1.24,1.24,0,0,0-.46-1.05,2.11,2.11,0,0,0-1.33-.36H95v-1h5.62v1h-.68a1.9,1.9,0,0,1,.82,1.65,2.18,2.18,0,0,1-.26,1.08,1.76,1.76,0,0,1-.76.69,1.9,1.9,0,0,1,1,1.81,2,2,0,0,1-.57,1.51,2.11,2.11,0,0,1-1.55.55H95v-1h3.46a1.55,1.55,0,0,0,1.06-.33,1.11,1.11,0,0,0,.37-.9,1.24,1.24,0,0,0-.46-1.05A2.11,2.11,0,0,0,98.05,366.76Z"/><path class="cls-4" d="M98.05,376.63H95v-1h3.46a1.55,1.55,0,0,0,1.06-.33,1.11,1.11,0,0,0,.37-.9,1.24,1.24,0,0,0-.46-1,2.17,2.17,0,0,0-1.33-.35H95v-1h5.62v1h-.68a1.91,1.91,0,0,1,.82,1.66,2.15,2.15,0,0,1-.26,1.07,1.76,1.76,0,0,1-.76.69,1.9,1.9,0,0,1,1,1.81,2,2,0,0,1-.57,1.51,2.11,2.11,0,0,1-1.55.55H95v-1h3.46a1.6,1.6,0,0,0,1.06-.32,1.14,1.14,0,0,0,.37-.91,1.24,1.24,0,0,0-.46-1A2.17,2.17,0,0,0,98.05,376.63Z"/><path class="cls-4" d="M95.62,384.22a1.33,1.33,0,0,0,1.14,1.43l-.18.92a2,2,0,0,1-1.29-.79,2.52,2.52,0,0,1-.48-1.56,2.65,2.65,0,0,1,.76-2,3.12,3.12,0,0,1,2.19-.7,3,3,0,0,1,2.14.73,2.51,2.51,0,0,1,.81,2A2.3,2.3,0,0,1,100,386a2.81,2.81,0,0,1-2,.66h-.49v-4.16C96.26,382.56,95.62,383.13,95.62,384.22Zm4.29-.05a1.53,1.53,0,0,0-.42-1.13,2,2,0,0,0-1.22-.51v3.11C99.36,385.58,99.91,385.09,99.91,384.17Z"/><path class="cls-4" d="M95,389v-1h5.62v1h-1a1.73,1.73,0,0,1,1,1.6V391h-.94v-.45a1.32,1.32,0,0,0-.62-1.14,2.85,2.85,0,0,0-1.67-.43Z"/><path class="cls-4" d="M93.47,395v-1l9.83,4v1Z"/><path class="cls-4" d="M100.73,406.1a1.25,1.25,0,0,0,1-.38,1.36,1.36,0,0,0,.35-1,1.5,1.5,0,0,0-.54-1.27,2.42,2.42,0,0,0-1.58-.41l.13-1a2.66,2.66,0,0,1,2.13.67,2.72,2.72,0,0,1,.79,2,2.5,2.5,0,0,1-.62,1.79,2.13,2.13,0,0,1-1.61.66,2.81,2.81,0,0,1-1.42-.4,6.91,6.91,0,0,1-1.53-1.3l-1.93-2.1v4H95V402h.92l2.6,2.83a4.78,4.78,0,0,0,1.16,1A2.23,2.23,0,0,0,100.73,406.1Z"/><path class="cls-4" d="M98.89,408.56a5.14,5.14,0,0,1,3,.77A2.56,2.56,0,0,1,103,411.5a2.52,2.52,0,0,1-1.09,2.18,5,5,0,0,1-3,.78,5.05,5.05,0,0,1-3-.78,2.72,2.72,0,0,1,0-4.35A5.08,5.08,0,0,1,98.89,408.56Zm-2.35,4.34a5.86,5.86,0,0,0,4.69,0,1.58,1.58,0,0,0,0-2.78,4.6,4.6,0,0,0-2.32-.49,4.69,4.69,0,0,0-2.35.48,1.59,1.59,0,0,0,0,2.79Z"/><path class="cls-4" d="M95,420.64v-4.89h.9v1.93h5.06a1.71,1.71,0,0,1-.21-.9v-1.06h.88v1a.9.9,0,0,0,.3.75,1.45,1.45,0,0,0,.94.25v1h-7v1.89Z"/><path class="cls-4" d="M101.9,424.85V420.7h.92v5.37h-.88a8.24,8.24,0,0,0-2.69-2,8.33,8.33,0,0,0-3.28-.56H95v-1.06h1a9,9,0,0,1,3.33.57A7.33,7.33,0,0,1,101.9,424.85Z"/><path class="cls-4" d="M457.79,365.3h-2.32V348.37h2.32v7.31h8.49v-7.31h2.29V365.3h-2.29v-7.61h-8.49Z"/><path class="cls-4" d="M482.48,363.51h.58v1.79h-1.17a2.69,2.69,0,0,1-1.59-.45,1.66,1.66,0,0,1-.72-1.26,4.24,4.24,0,0,1-3.83,2,4.5,4.5,0,0,1-3-1,3.19,3.19,0,0,1-1.16-2.54,3.41,3.41,0,0,1,.95-2.48,4.71,4.71,0,0,1,2.7-1.25l3.53-.61a.81.81,0,0,0,.75-.87,2,2,0,0,0-.7-1.6,2.88,2.88,0,0,0-1.94-.62,3.12,3.12,0,0,0-1.95.55,2.88,2.88,0,0,0-1,1.69l-2-.23a4.15,4.15,0,0,1,1.64-2.71,5.55,5.55,0,0,1,3.42-1,4.83,4.83,0,0,1,3.42,1.15,4,4,0,0,1,1.25,3.09v5.44a1,1,0,0,0,.2.71A1,1,0,0,0,482.48,363.51Zm-8.8-1.6a1.76,1.76,0,0,0,.61,1.44,2.55,2.55,0,0,0,1.71.52,3.2,3.2,0,0,0,2.52-1.1,4.1,4.1,0,0,0,1-2.84v-.7l-3.87.68a2.46,2.46,0,0,0-1.46.67A1.82,1.82,0,0,0,473.68,361.91Z"/><path class="cls-4" d="M495.58,357.46v7.84h-2.15v-7.45a3.23,3.23,0,0,0-.74-2.27,2.75,2.75,0,0,0-2.12-.8,3,3,0,0,0-2.41,1,4.37,4.37,0,0,0-.82,2.87v6.67h-2.15V353.21h2.1v1.52a4.25,4.25,0,0,1,3.77-1.81,4.42,4.42,0,0,1,3.31,1.22A4.49,4.49,0,0,1,495.58,357.46Z"/><path class="cls-4" d="M503.65,365.6a5,5,0,0,1-3.94-1.7,6.77,6.77,0,0,1-1.45-4.55,7,7,0,0,1,1.47-4.66,4.88,4.88,0,0,1,3.92-1.77,4.59,4.59,0,0,1,3.92,2v-6.51h2.15V365.3h-2.1v-1.82A4.55,4.55,0,0,1,503.65,365.6Zm-3.2-6.34a5.18,5.18,0,0,0,.95,3.26,3.09,3.09,0,0,0,2.56,1.21,3.26,3.26,0,0,0,2.66-1.22,5,5,0,0,0,1-3.25,5,5,0,0,0-1-3.26,3.24,3.24,0,0,0-2.65-1.24A3.1,3.1,0,0,0,501.4,356,5.24,5.24,0,0,0,500.45,359.26Z"/><path class="cls-4" d="M523.25,358.63v6.67h-2.14v-7.45a3.35,3.35,0,0,0-.7-2.27,2.43,2.43,0,0,0-1.94-.8,2.69,2.69,0,0,0-2.25,1,4.6,4.6,0,0,0-.77,2.86v6.67H513.3V353.21h2.1v1.48a4.07,4.07,0,0,1,3.56-1.77,4.43,4.43,0,0,1,2.3.56,3.61,3.61,0,0,1,1.49,1.62,4.08,4.08,0,0,1,3.89-2.18,4.3,4.3,0,0,1,3.26,1.22,4.59,4.59,0,0,1,1.17,3.32v7.84h-2.15v-7.45a3.4,3.4,0,0,0-.69-2.27,2.47,2.47,0,0,0-2-.8,2.67,2.67,0,0,0-2.25,1A4.53,4.53,0,0,0,523.25,358.63Z"/><path class="cls-4" d="M544.59,363.51h.58v1.79H544a2.67,2.67,0,0,1-1.59-.45,1.66,1.66,0,0,1-.72-1.26,4.25,4.25,0,0,1-3.83,2,4.53,4.53,0,0,1-3.05-1,3.18,3.18,0,0,1-1.15-2.54,3.4,3.4,0,0,1,.94-2.48,4.74,4.74,0,0,1,2.7-1.25l3.53-.61a.81.81,0,0,0,.76-.87,2,2,0,0,0-.71-1.6,2.85,2.85,0,0,0-1.93-.62,3.12,3.12,0,0,0-2,.55,2.88,2.88,0,0,0-1,1.69l-2-.23a4.16,4.16,0,0,1,1.65-2.71,5.55,5.55,0,0,1,3.42-1,4.83,4.83,0,0,1,3.42,1.15,4,4,0,0,1,1.24,3.09v5.44a1,1,0,0,0,.2.71A1,1,0,0,0,544.59,363.51Zm-8.81-1.6a1.77,1.77,0,0,0,.62,1.44,2.53,2.53,0,0,0,1.71.52,3.22,3.22,0,0,0,2.52-1.1,4.09,4.09,0,0,0,1-2.84v-.7l-3.87.68a2.49,2.49,0,0,0-1.46.67A1.86,1.86,0,0,0,535.78,361.91Z"/><path class="cls-4" d="M551.93,365.6a5,5,0,0,1-3.94-1.7,6.77,6.77,0,0,1-1.45-4.55,7,7,0,0,1,1.47-4.66,4.88,4.88,0,0,1,3.92-1.77,4.62,4.62,0,0,1,3.93,2v-6.51H558V365.3h-2.1v-1.82A4.55,4.55,0,0,1,551.93,365.6Zm-3.19-6.34a5.12,5.12,0,0,0,1,3.26,3.06,3.06,0,0,0,2.55,1.21,3.26,3.26,0,0,0,2.66-1.22,5.77,5.77,0,0,0,0-6.51,3.23,3.23,0,0,0-2.65-1.24,3.07,3.07,0,0,0-2.55,1.22A5.18,5.18,0,0,0,548.74,359.26Z"/><path class="cls-4" d="M566.66,363.85a2.85,2.85,0,0,0,3.07-2.44l2,.39a4.39,4.39,0,0,1-1.7,2.78,5.44,5.44,0,0,1-3.35,1,5.63,5.63,0,0,1-4.34-1.64,6.69,6.69,0,0,1-1.52-4.7,6.6,6.6,0,0,1,1.57-4.6,5.43,5.43,0,0,1,4.24-1.74,5,5,0,0,1,3.9,1.55,6.12,6.12,0,0,1,1.41,4.26v1H563Q563.15,363.86,566.66,363.85Zm-.11-9.21a3.32,3.32,0,0,0-2.43.9,4.32,4.32,0,0,0-1.1,2.63h6.68Q569.54,354.65,566.55,354.64Z"/><path class="cls-4" d="M462.46,390.28a5,5,0,0,0,3.29-1,6.23,6.23,0,0,0,1.86-3.21l2.25.32a7.75,7.75,0,0,1-2.6,4.4,8.18,8.18,0,0,1-10.58-.8,9.29,9.29,0,0,1-2.11-6.39,9,9,0,0,1,2.14-6.35,7.3,7.3,0,0,1,5.72-2.4,7.72,7.72,0,0,1,5.06,1.59A7.5,7.5,0,0,1,470,381l-2.33.34q-1-4.52-5.19-4.52a5,5,0,0,0-4.06,1.79,9.07,9.07,0,0,0,0,9.87A5,5,0,0,0,462.46,390.28Z"/><path class="cls-4" d="M472,386a6.51,6.51,0,0,1,1.59-4.59,5.53,5.53,0,0,1,4.29-1.75,5.59,5.59,0,0,1,4.29,1.75,6.43,6.43,0,0,1,1.62,4.59,6.5,6.5,0,0,1-1.62,4.59,5.59,5.59,0,0,1-4.29,1.75,5.53,5.53,0,0,1-4.29-1.75A6.54,6.54,0,0,1,472,386Zm8.6,3.31a6,6,0,0,0,0-6.62,3.65,3.65,0,0,0-5.43,0,6.1,6.1,0,0,0,0,6.63,3.66,3.66,0,0,0,5.43,0Z"/><path class="cls-4" d="M497,384.17V392h-2.15v-7.45a3.18,3.18,0,0,0-.74-2.27,2.73,2.73,0,0,0-2.11-.8,3,3,0,0,0-2.41,1,4.37,4.37,0,0,0-.83,2.87V392h-2.15V379.92h2.1v1.53a4.25,4.25,0,0,1,3.77-1.82,4.48,4.48,0,0,1,3.32,1.22A4.54,4.54,0,0,1,497,384.17Z"/><path class="cls-4" d="M499,381.69v-1.77h2.13V376h2.14v3.89h3.05v1.77H503.3v6.77a2,2,0,0,0,.34,1.33,1.47,1.47,0,0,0,1.16.38h1.85V392h-2.18a3.35,3.35,0,0,1-2.46-.83,3.21,3.21,0,0,1-.85-2.42v-7.07Z"/><path class="cls-4" d="M513.85,390.56a2.84,2.84,0,0,0,3.07-2.44l2,.39a4.35,4.35,0,0,1-1.7,2.78,5.44,5.44,0,0,1-3.35,1,5.63,5.63,0,0,1-4.34-1.64A6.69,6.69,0,0,1,508,386a6.55,6.55,0,0,1,1.57-4.59,5.41,5.41,0,0,1,4.24-1.75,5,5,0,0,1,3.9,1.56,6.1,6.1,0,0,1,1.42,4.25v1h-8.95Q510.33,390.56,513.85,390.56Zm-.11-9.21a3.28,3.28,0,0,0-2.42.9,4.35,4.35,0,0,0-1.11,2.63h6.69Q516.72,381.35,513.74,381.35Z"/><path class="cls-4" d="M532,385.34V392h-2.15v-7.45a3.36,3.36,0,0,0-.69-2.26,2.41,2.41,0,0,0-1.94-.81,2.67,2.67,0,0,0-2.25,1,4.53,4.53,0,0,0-.78,2.86V392H522V379.92h2.1v1.48a4.07,4.07,0,0,1,3.56-1.77,4.59,4.59,0,0,1,2.31.56,3.59,3.59,0,0,1,1.48,1.62,4.1,4.1,0,0,1,3.9-2.18,4.33,4.33,0,0,1,3.25,1.22,4.61,4.61,0,0,1,1.17,3.32V392h-2.15v-7.45a3.36,3.36,0,0,0-.69-2.26,2.45,2.45,0,0,0-2-.81,2.69,2.69,0,0,0-2.25,1A4.53,4.53,0,0,0,532,385.34Z"/><path class="cls-4" d="M549.37,379.63a5,5,0,0,1,3.93,1.72,6.62,6.62,0,0,1,1.48,4.52,7,7,0,0,1-1.48,4.67,4.88,4.88,0,0,1-3.93,1.77,4.6,4.6,0,0,1-3.92-2v6.14H543.3V379.92h2.1v1.82A4.55,4.55,0,0,1,549.37,379.63Zm3.19,6.34a5.24,5.24,0,0,0-.95-3.28,3.1,3.1,0,0,0-2.56-1.22,3.22,3.22,0,0,0-2.65,1.23,5,5,0,0,0-1,3.27,5,5,0,0,0,1,3.24,3.24,3.24,0,0,0,2.64,1.23,3.09,3.09,0,0,0,2.56-1.21A5.18,5.18,0,0,0,552.56,386Z"/><path class="cls-4" d="M556.88,386a6.47,6.47,0,0,1,1.6-4.59,5.51,5.51,0,0,1,4.28-1.75,5.61,5.61,0,0,1,4.3,1.75,6.43,6.43,0,0,1,1.62,4.59,6.5,6.5,0,0,1-1.62,4.59,5.61,5.61,0,0,1-4.3,1.75,5.51,5.51,0,0,1-4.28-1.75A6.5,6.5,0,0,1,556.88,386Zm8.61,3.31a6,6,0,0,0,0-6.62,3.33,3.33,0,0,0-2.73-1.21,3.27,3.27,0,0,0-2.7,1.21,5.06,5.06,0,0,0-1,3.31,5.15,5.15,0,0,0,1,3.32,3.67,3.67,0,0,0,5.44,0Z"/><path class="cls-4" d="M573.69,392h-2.15V379.92h2.1v2.2a3.75,3.75,0,0,1,3.46-2.2H578v2h-1a2.86,2.86,0,0,0-2.46,1.33,6.16,6.16,0,0,0-.92,3.59Z"/><path class="cls-4" d="M590.23,390.22h.58V392h-1.17a2.67,2.67,0,0,1-1.59-.45,1.65,1.65,0,0,1-.72-1.26,4.25,4.25,0,0,1-3.83,2,4.53,4.53,0,0,1-3-1,3.17,3.17,0,0,1-1.15-2.54,3.36,3.36,0,0,1,.94-2.47,4.68,4.68,0,0,1,2.7-1.26l3.53-.6a.82.82,0,0,0,.76-.88,2.05,2.05,0,0,0-.71-1.6,2.85,2.85,0,0,0-1.93-.62,3.18,3.18,0,0,0-2,.55,2.87,2.87,0,0,0-1,1.7l-2-.24a4.11,4.11,0,0,1,1.65-2.7,5.5,5.5,0,0,1,3.42-1,4.79,4.79,0,0,1,3.42,1.16,4,4,0,0,1,1.24,3.08v5.44a.75.75,0,0,0,.9.91Zm-8.81-1.59a1.8,1.8,0,0,0,.62,1.44,2.59,2.59,0,0,0,1.71.52,3.23,3.23,0,0,0,2.52-1.11,4.07,4.07,0,0,0,1-2.84V386l-3.87.67a2.55,2.55,0,0,0-1.46.67A1.87,1.87,0,0,0,581.42,388.63Z"/><path class="cls-4" d="M595.15,392H593V379.92h2.1v2.2a3.74,3.74,0,0,1,3.46-2.2h.93v2h-1a2.86,2.86,0,0,0-2.46,1.33,6.16,6.16,0,0,0-.93,3.59Z"/><path class="cls-4" d="M604.83,393.15l.4-1.06-4.76-12.17h2.27l3.57,9.51,3.62-9.51h2.17l-5.28,13.45a5.2,5.2,0,0,1-1.64,2.45,4.09,4.09,0,0,1-2.49.67h-1.25v-1.82h1.25a2.28,2.28,0,0,0,1.33-.34A2.42,2.42,0,0,0,604.83,393.15Z"/><path class="cls-4" d="M467.44,414.57h-7.37l-1.58,4.16h-2.36l6.55-16.94H465l6.48,16.94H469Zm-6.63-1.94h5.91l-2.91-7.88Z"/><path class="cls-4" d="M475.88,418.73h-2.15V406.64h2.1v2.19a3.74,3.74,0,0,1,3.46-2.19h.94v2h-1A2.87,2.87,0,0,0,476.8,410a6.2,6.2,0,0,0-.92,3.58Z"/><path class="cls-4" d="M481.1,408.41v-1.77h2.13v-3.9h2.14v3.9h3.05v1.77h-3.05v6.76a2.06,2.06,0,0,0,.34,1.34,1.49,1.49,0,0,0,1.16.37h1.85v1.85h-2.18a3.33,3.33,0,0,1-2.46-.84,3.21,3.21,0,0,1-.85-2.42v-7.06Z"/><path class="cls-4" d="M495.67,418.73h-2.15l-3.85-12.09h2.2l2.83,9.23,2.75-9.23h2.06l2.74,9.21,2.79-9.21h2.14l-3.87,12.09h-2.13l-2.78-9.12Z"/><path class="cls-4" d="M508.48,412.68a6.5,6.5,0,0,1,1.6-4.59,5.51,5.51,0,0,1,4.28-1.75,5.61,5.61,0,0,1,4.3,1.75,6.43,6.43,0,0,1,1.62,4.59,6.5,6.5,0,0,1-1.62,4.59,5.61,5.61,0,0,1-4.3,1.75,5.51,5.51,0,0,1-4.28-1.75A6.47,6.47,0,0,1,508.48,412.68Zm8.61,3.31a6,6,0,0,0,0-6.62,3.33,3.33,0,0,0-2.73-1.21,3.27,3.27,0,0,0-2.7,1.21,6.12,6.12,0,0,0,0,6.63,3.67,3.67,0,0,0,5.44,0Z"/><path class="cls-4" d="M525.21,418.73h-2.15V406.64h2.11v2.19a3.73,3.73,0,0,1,3.45-2.19h.94v2h-1a2.87,2.87,0,0,0-2.47,1.33,6.2,6.2,0,0,0-.92,3.58Z"/><path class="cls-4" d="M542.4,406.64l-4.74,4.52,5.12,7.57h-2.56l-4.11-6.14-2.15,2v4.14h-2.15V401.79H534V412l5.61-5.37Z"/><path class="cls-4" d="M548.6,419a6,6,0,0,1-3.73-1.07,3.89,3.89,0,0,1-1.51-2.92l2.15-.32a2.93,2.93,0,0,0,.91,2,3.26,3.26,0,0,0,2.18.64,3,3,0,0,0,1.91-.52,1.83,1.83,0,0,0,.66-1.53q0-1.44-2.13-1.74l-1.74-.27a4.78,4.78,0,0,1-2.65-1.15,3,3,0,0,1-.91-2.26,3.07,3.07,0,0,1,1.24-2.53,5.19,5.19,0,0,1,3.3-1,5.28,5.28,0,0,1,3.32,1,4.2,4.2,0,0,1,1.52,2.77l-2,.29a3.13,3.13,0,0,0-1-1.78,3.63,3.63,0,0,0-3.69-.07,1.42,1.42,0,0,0-.65,1.22,1.45,1.45,0,0,0,.44,1.11,2.73,2.73,0,0,0,1.44.55l1.93.32q3.68.6,3.67,3.46a3.46,3.46,0,0,1-1.26,2.81A5.28,5.28,0,0,1,548.6,419Z"/><path class="cls-4" d="M97,760.41H94.67V743.48H97v7.3h8.49v-7.3h2.29v16.93h-2.29v-7.62H97Z"/><path class="cls-4" d="M121.69,758.61h.58v1.8H121.1a2.66,2.66,0,0,1-1.6-.46,1.71,1.71,0,0,1-.72-1.26,4.22,4.22,0,0,1-3.82,2,4.58,4.58,0,0,1-3-1,3.21,3.21,0,0,1-1.16-2.55,3.37,3.37,0,0,1,1-2.47,4.81,4.81,0,0,1,2.7-1.26l3.53-.6a.82.82,0,0,0,.76-.88,2.05,2.05,0,0,0-.71-1.6,2.86,2.86,0,0,0-1.94-.62,3.17,3.17,0,0,0-1.94.55,2.93,2.93,0,0,0-1,1.7l-2-.24a4.11,4.11,0,0,1,1.65-2.7,5.5,5.5,0,0,1,3.42-1,4.85,4.85,0,0,1,3.42,1.16,4,4,0,0,1,1.24,3.08v5.44a1,1,0,0,0,.2.71A1,1,0,0,0,121.69,758.61ZM112.88,757a1.79,1.79,0,0,0,.61,1.44,2.56,2.56,0,0,0,1.72.52,3.23,3.23,0,0,0,2.52-1.11,4.12,4.12,0,0,0,1-2.84v-.69l-3.87.67a2.55,2.55,0,0,0-1.46.67A1.87,1.87,0,0,0,112.88,757Z"/><path class="cls-4" d="M134.78,752.57v7.84h-2.15V753a3.24,3.24,0,0,0-.73-2.28,2.76,2.76,0,0,0-2.12-.79,3,3,0,0,0-2.41,1,4.35,4.35,0,0,0-.83,2.87v6.67h-2.15V748.32h2.1v1.52a4.27,4.27,0,0,1,3.77-1.82,4.46,4.46,0,0,1,3.32,1.22A4.56,4.56,0,0,1,134.78,752.57Z"/><path class="cls-4" d="M142.86,760.7a5,5,0,0,1-3.94-1.7,6.75,6.75,0,0,1-1.46-4.54,7,7,0,0,1,1.48-4.67,4.87,4.87,0,0,1,3.92-1.77,4.6,4.6,0,0,1,3.92,2v-6.5h2.15v16.93h-2.1v-1.82A4.55,4.55,0,0,1,142.86,760.7Zm-3.2-6.34a5.18,5.18,0,0,0,1,3.26,3.08,3.08,0,0,0,2.56,1.22,3.26,3.26,0,0,0,2.66-1.23,5,5,0,0,0,1-3.25,5,5,0,0,0-1-3.26,3.29,3.29,0,0,0-2.65-1.24,3.08,3.08,0,0,0-2.56,1.22A5.24,5.24,0,0,0,139.66,754.36Z"/><path class="cls-4" d="M162.46,753.74v6.67h-2.15V753a3.37,3.37,0,0,0-.69-2.27,2.41,2.41,0,0,0-1.94-.8,2.69,2.69,0,0,0-2.25,1,4.54,4.54,0,0,0-.78,2.87v6.67h-2.14V748.32h2.1v1.47a4.05,4.05,0,0,1,3.55-1.77,4.59,4.59,0,0,1,2.31.56,3.66,3.66,0,0,1,1.48,1.63,4.1,4.1,0,0,1,3.9-2.19,4.31,4.31,0,0,1,3.25,1.22,4.64,4.64,0,0,1,1.18,3.33v7.84h-2.15V753a3.37,3.37,0,0,0-.7-2.27,2.42,2.42,0,0,0-2-.8,2.72,2.72,0,0,0-2.25,1A4.61,4.61,0,0,0,162.46,753.74Z"/><path class="cls-4" d="M183.79,758.61h.58v1.8h-1.16a2.66,2.66,0,0,1-1.6-.46,1.71,1.71,0,0,1-.72-1.26,4.22,4.22,0,0,1-3.82,2,4.58,4.58,0,0,1-3-1,3.21,3.21,0,0,1-1.16-2.55,3.37,3.37,0,0,1,.95-2.47,4.81,4.81,0,0,1,2.7-1.26l3.53-.6a.83.83,0,0,0,.76-.88,2.05,2.05,0,0,0-.71-1.6,2.86,2.86,0,0,0-1.94-.62,3.18,3.18,0,0,0-2,.55,2.87,2.87,0,0,0-1,1.7l-2-.24a4.11,4.11,0,0,1,1.65-2.7,5.45,5.45,0,0,1,3.41-1,4.84,4.84,0,0,1,3.42,1.16,4,4,0,0,1,1.25,3.08v5.44a1,1,0,0,0,.2.71A.92.92,0,0,0,183.79,758.61ZM175,757a1.79,1.79,0,0,0,.61,1.44,2.55,2.55,0,0,0,1.71.52,3.2,3.2,0,0,0,2.52-1.11,4.08,4.08,0,0,0,1-2.84v-.69L177,755a2.52,2.52,0,0,0-1.46.67A1.83,1.83,0,0,0,175,757Z"/><path class="cls-4" d="M191.14,760.7a5,5,0,0,1-3.94-1.7,6.75,6.75,0,0,1-1.46-4.54,7,7,0,0,1,1.48-4.67,4.87,4.87,0,0,1,3.92-1.77,4.6,4.6,0,0,1,3.92,2v-6.5h2.15v16.93h-2.1v-1.82A4.55,4.55,0,0,1,191.14,760.7Zm-3.2-6.34a5.18,5.18,0,0,0,.95,3.26,3.08,3.08,0,0,0,2.56,1.22,3.26,3.26,0,0,0,2.66-1.23,5,5,0,0,0,1-3.25,5,5,0,0,0-1-3.26,3.29,3.29,0,0,0-2.65-1.24,3.08,3.08,0,0,0-2.56,1.22A5.24,5.24,0,0,0,187.94,754.36Z"/><path class="cls-4" d="M205.86,759a2.84,2.84,0,0,0,3.07-2.44l2,.39a4.4,4.4,0,0,1-1.71,2.78,5.42,5.42,0,0,1-3.35,1,5.61,5.61,0,0,1-4.34-1.64,6.67,6.67,0,0,1-1.51-4.7,6.51,6.51,0,0,1,1.57-4.59,5.39,5.39,0,0,1,4.24-1.75,5,5,0,0,1,3.89,1.56,6.07,6.07,0,0,1,1.42,4.25v1h-8.95Q202.36,759,205.86,759Zm-.1-9.21a3.28,3.28,0,0,0-2.43.9,4.29,4.29,0,0,0-1.1,2.64h6.68Q208.73,749.74,205.76,749.74Z"/><path class="cls-4" d="M97,787.12H94.67V770.19h6.69a6.06,6.06,0,0,1,4.25,1.5,4.93,4.93,0,0,1,1.64,3.8,5.46,5.46,0,0,1-1.67,4.06,5.78,5.78,0,0,1-4.22,1.62H97Zm7.91-11.63a3.08,3.08,0,0,0-1-2.4,3.84,3.84,0,0,0-2.69-.94H97v7.06h4.18a3.66,3.66,0,0,0,2.7-1A3.6,3.6,0,0,0,104.91,775.49Z"/><path class="cls-4" d="M114.62,785.67a2.86,2.86,0,0,0,3.07-2.45l2,.39a4.38,4.38,0,0,1-1.71,2.78,5.41,5.41,0,0,1-3.34,1,5.58,5.58,0,0,1-4.34-1.64,6.68,6.68,0,0,1-1.52-4.7,6.51,6.51,0,0,1,1.57-4.59,5.44,5.44,0,0,1,4.24-1.75,5,5,0,0,1,3.89,1.56,6.07,6.07,0,0,1,1.42,4.25v1h-8.95C111.05,784.3,112.28,785.67,114.62,785.67Zm-.11-9.21a3.33,3.33,0,0,0-2.43.89A4.29,4.29,0,0,0,111,780h6.68C117.54,777.63,116.49,776.46,114.51,776.46Z"/><path class="cls-4" d="M124.86,787.12h-2.14V775h2.1v2.19a3.73,3.73,0,0,1,3.46-2.19h.93v2h-1a2.84,2.84,0,0,0-2.46,1.33,6.13,6.13,0,0,0-.93,3.58Z"/><path class="cls-4" d="M135.67,787.41a5.89,5.89,0,0,1-3.73-1.07,3.86,3.86,0,0,1-1.51-2.92l2.15-.32a3,3,0,0,0,.91,2,3.31,3.31,0,0,0,2.18.63,3,3,0,0,0,1.91-.52,1.83,1.83,0,0,0,.65-1.53c0-1-.71-1.54-2.12-1.74l-1.74-.27a4.82,4.82,0,0,1-2.65-1.14,3,3,0,0,1-.92-2.27,3.11,3.11,0,0,1,1.24-2.53,6.11,6.11,0,0,1,6.62,0,4.22,4.22,0,0,1,1.53,2.76l-2,.29a3.08,3.08,0,0,0-1-1.78,3,3,0,0,0-1.9-.54,3,3,0,0,0-1.79.47,1.45,1.45,0,0,0-.65,1.22,1.42,1.42,0,0,0,.45,1.11,2.77,2.77,0,0,0,1.43.56l1.94.32q3.67.58,3.67,3.45a3.46,3.46,0,0,1-1.26,2.81A5.26,5.26,0,0,1,135.67,787.41Z"/><path class="cls-4" d="M145.29,773.07h-2.15v-2.88h2.15Zm0,14h-2.15V775h2.15Z"/><path class="cls-4" d="M159,785.32h.58v1.8h-1.17a2.6,2.6,0,0,1-1.59-.46,1.65,1.65,0,0,1-.72-1.25,4.23,4.23,0,0,1-3.83,2,4.5,4.5,0,0,1-3-1,3.18,3.18,0,0,1-1.16-2.55,3.38,3.38,0,0,1,.94-2.47,4.81,4.81,0,0,1,2.71-1.26l3.53-.6a.81.81,0,0,0,.75-.87,2,2,0,0,0-.7-1.6,2.83,2.83,0,0,0-1.94-.62,3.12,3.12,0,0,0-1.95.55,2.85,2.85,0,0,0-1,1.69l-2-.24a4.11,4.11,0,0,1,1.64-2.7,5.56,5.56,0,0,1,3.42-1,4.84,4.84,0,0,1,3.42,1.16,4,4,0,0,1,1.24,3.08v5.45a.94.94,0,0,0,.21.7A.92.92,0,0,0,159,785.32Zm-8.81-1.59a1.8,1.8,0,0,0,.62,1.44,2.55,2.55,0,0,0,1.71.52,3.25,3.25,0,0,0,2.52-1.1,4.11,4.11,0,0,0,1-2.84v-.7l-3.88.67a2.53,2.53,0,0,0-1.45.68A1.81,1.81,0,0,0,150.14,783.73Z"/><path class="cls-4" d="M172.05,779.28v7.84H169.9v-7.45a3.21,3.21,0,0,0-.74-2.27,2.72,2.72,0,0,0-2.12-.8,3,3,0,0,0-2.41,1,4.35,4.35,0,0,0-.82,2.87v6.67h-2.15V775h2.1v1.52a4.25,4.25,0,0,1,3.77-1.82,4.42,4.42,0,0,1,3.31,1.23A4.49,4.49,0,0,1,172.05,779.28Z"/><path class="cls-4" d="M106.76,809.45l.25,4.38h-2.3l-.24-4.4a2.1,2.1,0,0,0-.84-1.74,4.19,4.19,0,0,0-2.43-.55H97v6.69H94.67V796.9h6.69a6.23,6.23,0,0,1,4.13,1.31,4.21,4.21,0,0,1,1.55,3.37,4.87,4.87,0,0,1-2.72,4.43A3.45,3.45,0,0,1,106.76,809.45Zm-2.07-7.69a2.64,2.64,0,0,0-.94-2.11,3.85,3.85,0,0,0-2.57-.79H97v6.34h4.16a3.51,3.51,0,0,0,2.55-1A3.34,3.34,0,0,0,104.69,801.76Z"/><path class="cls-4" d="M118.16,801.74h2.15v12.09h-2.1v-1.47a4.09,4.09,0,0,1-3.63,1.77,4.28,4.28,0,0,1-3.23-1.23,4.56,4.56,0,0,1-1.2-3.32v-7.84h2.16v7.47a3.24,3.24,0,0,0,.72,2.25,2.52,2.52,0,0,0,2,.8,2.8,2.8,0,0,0,2.32-1,4.45,4.45,0,0,0,.8-2.86Z"/><path class="cls-4" d="M128.41,813.11a5,5,0,0,1-3.83-1.58,6,6,0,0,1-1.4-4.23,6.15,6.15,0,0,1,1.42-4.23,4.82,4.82,0,0,1,3.81-1.62,4.42,4.42,0,0,1,3.74,1.77v-1.48h2.1v11.54a5.23,5.23,0,0,1-1.42,3.89,5.36,5.36,0,0,1-4,1.42,6.15,6.15,0,0,1-3.81-1.08,4.13,4.13,0,0,1-1.63-3l2.15-.21a2.93,2.93,0,0,0,1,1.88,3.65,3.65,0,0,0,2.25.61,3.11,3.11,0,0,0,2.42-.92,4,4,0,0,0,.82-2.73v-1.89A4.32,4.32,0,0,1,128.41,813.11Zm-2.11-8.78a5.32,5.32,0,0,0,0,5.89,3.13,3.13,0,0,0,2.51,1,3,3,0,0,0,2.42-1.1,4.94,4.94,0,0,0,0-5.77,3,3,0,0,0-2.4-1.14A3.12,3.12,0,0,0,126.3,804.33Z"/><path class="cls-4" d="M142.08,814.13a5.89,5.89,0,0,1-3.73-1.08,3.84,3.84,0,0,1-1.51-2.91l2.15-.32a3,3,0,0,0,.91,2,3.31,3.31,0,0,0,2.18.64,3.08,3.08,0,0,0,1.91-.52,1.87,1.87,0,0,0,.65-1.54c0-1-.71-1.54-2.12-1.73l-1.74-.28a4.82,4.82,0,0,1-2.65-1.14,3,3,0,0,1-.92-2.27,3.06,3.06,0,0,1,1.25-2.52,5.11,5.11,0,0,1,3.3-1,5.23,5.23,0,0,1,3.31,1,4.14,4.14,0,0,1,1.53,2.77l-2,.28a3.08,3.08,0,0,0-1-1.78,3.67,3.67,0,0,0-3.68-.07,1.42,1.42,0,0,0-.65,1.22,1.38,1.38,0,0,0,.44,1.11,2.69,2.69,0,0,0,1.43.56l1.94.32q3.67.58,3.67,3.46a3.46,3.46,0,0,1-1.26,2.8A5.23,5.23,0,0,1,142.08,814.13Z"/><path class="cls-4" d="M160.51,814.13a7,7,0,0,1-4.37-1.29,4.26,4.26,0,0,1-1.67-3.53,4.09,4.09,0,0,1,.75-2.45,8.5,8.5,0,0,1,2.75-2.19,6.18,6.18,0,0,1-1.8-3.92,3.87,3.87,0,0,1,1.22-3,4.63,4.63,0,0,1,3.17-1.13,4.44,4.44,0,0,1,3,1,3.28,3.28,0,0,1,1.13,2.6,3.8,3.8,0,0,1-.8,2.35,10.61,10.61,0,0,1-2.93,2.34l4.4,4.7a10.56,10.56,0,0,0,.65-4.1l2.06.27a10.13,10.13,0,0,1-1.26,5.38l2.54,2.7h-2.76l-1.18-1.29A7.27,7.27,0,0,1,160.51,814.13Zm-3.79-5a2.82,2.82,0,0,0,1.09,2.31,4.29,4.29,0,0,0,2.77.88,5,5,0,0,0,3.57-1.11l-5-5.38a6.25,6.25,0,0,0-1.86,1.54A2.94,2.94,0,0,0,156.72,809.17Zm3.82-10.91a2.17,2.17,0,0,0-1.65.65,2.23,2.23,0,0,0-.62,1.6,3.42,3.42,0,0,0,.32,1.5,7.51,7.51,0,0,0,1.3,1.74,10.3,10.3,0,0,0,2.18-1.81,2.57,2.57,0,0,0,.6-1.63,2,2,0,0,0-.56-1.51A2.2,2.2,0,0,0,160.54,798.26Z"/><path class="cls-4" d="M189.32,796.9l-6.39,7.5,6.6,9.43h-2.75l-5.42-7.71L178.82,809v4.79H176.5V796.9h2.32v9.2l7.72-9.2Z"/><path class="cls-4" d="M193.69,799.78h-2.15V796.9h2.15Zm0,14.05h-2.15V801.74h2.15Z"/><path class="cls-4" d="M199.42,813.83h-2.15V796.9h2.15Z"/><path class="cls-4" d="M205.14,799.78H203V796.9h2.15Zm0,14.05H203V801.74h2.15Z"/><path class="cls-4" d="M218.67,807.16v6.67h-2.14v-7.45a3.39,3.39,0,0,0-.7-2.27,2.43,2.43,0,0,0-1.94-.8,2.69,2.69,0,0,0-2.25,1,4.58,4.58,0,0,0-.77,2.86v6.67h-2.15V801.74h2.1v1.48a4.07,4.07,0,0,1,3.56-1.77,4.43,4.43,0,0,1,2.3.56,3.61,3.61,0,0,1,1.49,1.62,4.08,4.08,0,0,1,3.89-2.18,4.3,4.3,0,0,1,3.26,1.22,4.59,4.59,0,0,1,1.17,3.32v7.84h-2.15v-7.45a3.38,3.38,0,0,0-.69-2.27,2.47,2.47,0,0,0-2-.8,2.67,2.67,0,0,0-2.25,1A4.51,4.51,0,0,0,218.67,807.16Z"/><path class="cls-4" d="M234.22,814.13a5.91,5.91,0,0,1-3.73-1.08,3.87,3.87,0,0,1-1.51-2.91l2.15-.32a3,3,0,0,0,.92,2,3.29,3.29,0,0,0,2.17.64,3.06,3.06,0,0,0,1.91-.52,1.85,1.85,0,0,0,.66-1.54c0-1-.71-1.54-2.13-1.73l-1.73-.28a4.85,4.85,0,0,1-2.66-1.14,3.23,3.23,0,0,1,.33-4.79,5.16,5.16,0,0,1,3.31-1,5.27,5.27,0,0,1,3.31,1,4.22,4.22,0,0,1,1.53,2.77l-2,.28a3.07,3.07,0,0,0-1-1.78,3.69,3.69,0,0,0-3.69-.07,1.45,1.45,0,0,0-.65,1.22,1.42,1.42,0,0,0,.44,1.11,2.76,2.76,0,0,0,1.44.56l1.93.32q3.68.58,3.68,3.46a3.46,3.46,0,0,1-1.27,2.8A5.23,5.23,0,0,1,234.22,814.13Z"/><path class="cls-4" d="M108.5,924.52v-1l5.62-1.79v1l-4.29,1.32,4.29,1.28v1l-4.28,1.27,4.28,1.3v1l-5.62-1.81v-1l4.24-1.3Z"/><path class="cls-4" d="M108.5,933.1v-1l5.62-1.79v1l-4.29,1.32,4.29,1.28v1l-4.28,1.28,4.28,1.3v1l-5.62-1.8v-1l4.24-1.29Z"/><path class="cls-4" d="M108.5,941.68v-1l5.62-1.79v1l-4.29,1.32,4.29,1.28v1l-4.28,1.28,4.28,1.3v1l-5.62-1.8v-1l4.24-1.29Z"/><path class="cls-4" d="M109.76,947.51v1.24H108.5v-1.24Z"/><path class="cls-4" d="M113.32,954.29l-4-3.24v3.34h-.83v-4.54h.75l4,3.26V950h.83v4.26Z"/><path class="cls-4" d="M109.17,957.88a1.33,1.33,0,0,0,1.14,1.43l-.18.92a2.08,2.08,0,0,1-1.3-.79,3,3,0,0,1,.29-3.58,3.12,3.12,0,0,1,2.19-.71,3,3,0,0,1,2.13.74,2.48,2.48,0,0,1,.82,2,2.3,2.3,0,0,1-.73,1.81,2.82,2.82,0,0,1-2,.66h-.48v-4.16C109.8,956.22,109.17,956.79,109.17,957.88Zm4.29,0a1.53,1.53,0,0,0-.42-1.13,2,2,0,0,0-1.23-.51v3.11Q113.46,959.21,113.46,957.83Z"/><path class="cls-4" d="M109.17,964a1.33,1.33,0,0,0,1.14,1.43l-.18.92a2,2,0,0,1-1.3-.8,2.55,2.55,0,0,1-.47-1.55,2.6,2.6,0,0,1,.76-2,3.12,3.12,0,0,1,2.19-.71,3.06,3.06,0,0,1,2.13.73,2.52,2.52,0,0,1,.82,2,2.32,2.32,0,0,1-.73,1.81,2.82,2.82,0,0,1-2,.66h-.48v-4.17C109.8,962.35,109.17,962.92,109.17,964Zm4.29,0a1.53,1.53,0,0,0-.42-1.13,2,2,0,0,0-1.23-.51v3.1C112.91,965.37,113.46,964.88,113.46,964Z"/><path class="cls-4" d="M109.17,970.14a1.32,1.32,0,0,0,1.14,1.42l-.18.93a2,2,0,0,1-1.3-.8,2.55,2.55,0,0,1-.47-1.55,2.6,2.6,0,0,1,.76-2,3.12,3.12,0,0,1,2.19-.71,3.06,3.06,0,0,1,2.13.73,2.51,2.51,0,0,1,.82,2,2.32,2.32,0,0,1-.73,1.82,2.82,2.82,0,0,1-2,.66h-.48v-4.17C109.8,968.48,109.17,969.05,109.17,970.14Zm4.29,0A1.52,1.52,0,0,0,113,969a2.06,2.06,0,0,0-1.23-.52v3.11C112.91,971.5,113.46,971,113.46,970.09Z"/><path class="cls-4" d="M112.14,978.74H108.5v-1H112a1.5,1.5,0,0,0,1.06-.35,1.25,1.25,0,0,0,.37-1,1.36,1.36,0,0,0-.46-1.12,2,2,0,0,0-1.33-.39h-3.1v-1h5.62v1h-.71a2,2,0,0,1,.85,1.75,2.08,2.08,0,0,1-.57,1.55A2.13,2.13,0,0,1,112.14,978.74Z"/><path class="cls-4" d="M109.76,980.23v1.24H108.5v-1.24Z"/><path class="cls-4" d="M108.5,984v-1h5.62v1Zm6.53,0v-1h1.34v1Z"/><path class="cls-4" d="M108.5,986.69v-1h5.62v1h-1a1.74,1.74,0,0,1,1,1.61v.44h-1v-.45a1.34,1.34,0,0,0-.61-1.15,2.93,2.93,0,0,0-1.67-.43Z"/><path class="cls-4" d="M98.65,920.09H95v-1h3.46a1.5,1.5,0,0,0,1.06-.34,1.28,1.28,0,0,0,.37-1,1.4,1.4,0,0,0-.45-1.12,2,2,0,0,0-1.34-.38H95v-1h7.87v1H99.94a2,2,0,0,1,.82,1.73,2.06,2.06,0,0,1-.57,1.54A2.11,2.11,0,0,1,98.65,920.09Z"/><path class="cls-4" d="M95.67,924.05a1.33,1.33,0,0,0,1.14,1.43l-.18.92a2,2,0,0,1-1.29-.79,2.54,2.54,0,0,1-.48-1.56,2.64,2.64,0,0,1,.76-2,3.12,3.12,0,0,1,2.19-.7,3,3,0,0,1,2.14.73,2.51,2.51,0,0,1,.81,2,2.33,2.33,0,0,1-.72,1.81,2.85,2.85,0,0,1-2,.66h-.49v-4.16C96.31,922.39,95.67,923,95.67,924.05Zm4.29,0a1.53,1.53,0,0,0-.42-1.13,2,2,0,0,0-1.22-.51v3.11C99.41,925.41,100,924.92,100,924Z"/><path class="cls-4" d="M95,928.82v-1h7.87v1Z"/><path class="cls-4" d="M95,931.48v-1h7.87v1Z"/><path class="cls-4" d="M97.81,932.78a3.06,3.06,0,0,1,2.14.74,2.59,2.59,0,0,1,.81,2,2.63,2.63,0,0,1-.81,2,3,3,0,0,1-2.14.75,3.05,3.05,0,0,1-2.14-.75,2.63,2.63,0,0,1-.81-2,2.59,2.59,0,0,1,.81-2A3.06,3.06,0,0,1,97.81,932.78Zm-1.54,4a2.76,2.76,0,0,0,3.08,0,1.7,1.7,0,0,0,0-2.52,2.81,2.81,0,0,0-3.08,0,1.51,1.51,0,0,0-.56,1.26A1.55,1.55,0,0,0,96.27,936.78Z"/><path class="cls-4" d="M95.6,943.41a1.75,1.75,0,0,1,.55-1.36,2,2,0,0,1,1.45-.51,3.41,3.41,0,0,1,2.15.68,2.14,2.14,0,0,1,.88,1.77,1.72,1.72,0,0,1-.24.91,1.47,1.47,0,0,1-.67.61l.8.17v1L97.38,946a1.12,1.12,0,0,0-.8.06.68.68,0,0,0-.25.63,1.11,1.11,0,0,0,.65,1,3.6,3.6,0,0,0,1.78.37,3.52,3.52,0,0,0,1.39-.3,3.23,3.23,0,0,0,1.16-.81,3.76,3.76,0,0,0,.9-2.66,3.84,3.84,0,0,0-1.21-2.93,4.08,4.08,0,0,0-1.37-.88,4.46,4.46,0,0,0-1.6-.31,4,4,0,0,0-2.87,1.08A3.62,3.62,0,0,0,94,943.93a5.06,5.06,0,0,0,.17,1.34,5.41,5.41,0,0,0,.56,1.34l-.67.35a6.43,6.43,0,0,1-.66-1.51,5.76,5.76,0,0,1-.19-1.52A4.57,4.57,0,0,1,98,939.2a5,5,0,0,1,1.93.39,5.13,5.13,0,0,1,1.65,1.08,5.22,5.22,0,0,1,.23,6.94,3.85,3.85,0,0,1-3,1.33,3.8,3.8,0,0,1-2.34-.64,2,2,0,0,1-.85-1.69,1.92,1.92,0,0,1,.23-1,1.1,1.1,0,0,1,.64-.53A2,2,0,0,1,95.6,943.41Zm2.07-.89a1.43,1.43,0,0,0-.94.29,1,1,0,0,0-.34.81,1.35,1.35,0,0,0,.64,1.14,2.4,2.4,0,0,0,1.46.46,1.44,1.44,0,0,0,1-.32,1.11,1.11,0,0,0,.37-.86,1.24,1.24,0,0,0-.66-1.09A2.62,2.62,0,0,0,97.67,942.52Z"/><path class="cls-4" d="M99.83,954.29l-4-3.24v3.34H95v-4.54h.75l4,3.26V950h.83v4.26Z"/><path class="cls-4" d="M95.67,957.88a1.33,1.33,0,0,0,1.14,1.43l-.18.92a2,2,0,0,1-1.29-.79,2.54,2.54,0,0,1-.48-1.56,2.64,2.64,0,0,1,.76-2,3.12,3.12,0,0,1,2.19-.71,3,3,0,0,1,2.14.74,2.51,2.51,0,0,1,.81,2,2.33,2.33,0,0,1-.72,1.81,2.85,2.85,0,0,1-2,.66h-.49v-4.16C96.31,956.22,95.67,956.79,95.67,957.88Zm4.29,0a1.53,1.53,0,0,0-.42-1.13,2,2,0,0,0-1.22-.51v3.11C99.41,959.24,100,958.75,100,957.83Z"/><path class="cls-4" d="M95.67,964a1.33,1.33,0,0,0,1.14,1.43l-.18.92a2,2,0,0,1-1.29-.8,2.49,2.49,0,0,1-.48-1.55,2.64,2.64,0,0,1,.76-2,3.12,3.12,0,0,1,2.19-.71A3.08,3.08,0,0,1,100,962a2.54,2.54,0,0,1,.81,2,2.34,2.34,0,0,1-.72,1.81,2.85,2.85,0,0,1-2,.66h-.49v-4.17C96.31,962.35,95.67,962.92,95.67,964Zm4.29,0a1.53,1.53,0,0,0-.42-1.13,2,2,0,0,0-1.22-.51v3.1C99.41,965.37,100,964.88,100,964Z"/><path class="cls-4" d="M95.67,970.14a1.32,1.32,0,0,0,1.14,1.42l-.18.93a2,2,0,0,1-1.29-.8,2.49,2.49,0,0,1-.48-1.55,2.64,2.64,0,0,1,.76-2,3.12,3.12,0,0,1,2.19-.71,3.08,3.08,0,0,1,2.14.73,2.53,2.53,0,0,1,.81,2,2.35,2.35,0,0,1-.72,1.82,2.85,2.85,0,0,1-2,.66h-.49v-4.17C96.31,968.48,95.67,969.05,95.67,970.14Zm4.29,0a1.52,1.52,0,0,0-.42-1.13,2.05,2.05,0,0,0-1.22-.52v3.11C99.41,971.5,100,971,100,970.09Z"/><path class="cls-4" d="M98.65,978.74H95v-1h3.46a1.5,1.5,0,0,0,1.06-.35,1.25,1.25,0,0,0,.37-1,1.38,1.38,0,0,0-.45-1.12,2,2,0,0,0-1.34-.39H95v-1h5.62v1h-.71a2,2,0,0,1,.85,1.75,2.08,2.08,0,0,1-.57,1.55A2.11,2.11,0,0,1,98.65,978.74Z"/><path class="cls-4" d="M96.27,980.23v1.24H95v-1.24Z"/><path class="cls-4" d="M95,984v-1h5.62v1Zm6.53,0v-1h1.34v1Z"/><path class="cls-4" d="M95,986.69v-1h5.62v1h-1a1.74,1.74,0,0,1,1,1.61v.44h-.94v-.45a1.35,1.35,0,0,0-.62-1.15,2.93,2.93,0,0,0-1.67-.43Z"/><path d="M95,107.43h43.25v15.45H125.41V227.52h12.87v15.37H95V227.52h12.86V122.88H95Z"/><path d="M238,107.43h44v15.45H270.38v120H247.51l-63-112.32v97h13.94v15.37h-44V227.52H167V122.88H154.13V107.25h36.46l61.83,111.24.72-4.28V122.88H238Z"/><path d="M266.17,853.2h50.4a63.73,63.73,0,0,1,17.69,2.41,64.59,64.59,0,0,1,38.82,30.92,68.7,68.7,0,0,1,6.39,16.13,71.11,71.11,0,0,1,2.24,17.91,72.35,72.35,0,0,1-2.24,18.14A70.21,70.21,0,0,1,373.08,955,65.75,65.75,0,0,1,363,968.78a64.34,64.34,0,0,1-13.13,10.63,63.27,63.27,0,0,1-33.33,9.25h-50.4V973.29H279V868.66H266.17Zm30.38,15.46V973.29h21.09a39.13,39.13,0,0,0,17.65-4.11A46.36,46.36,0,0,0,349.72,958a54.11,54.11,0,0,0,9.74-16.71A58.94,58.94,0,0,0,363,920.57a57.25,57.25,0,0,0-3.57-20.37,53.22,53.22,0,0,0-9.74-16.49,45.8,45.8,0,0,0-14.43-11,39.85,39.85,0,0,0-17.65-4Z"/><path d="M384.36,853.2h97v38.33H463.08V868.66H414.74V912H455.4v15.37H414.74v45.93h48.34V950.42H481.4v38.24h-97V973.29h12.87V868.66H384.36Z"/><path d="M573.21,853.2h44v15.46h-10L570.53,919.5l38.24,53.79h8.4v15.37h-44V973.29h16.53l-29-40.3-29.13,40.3h15.81v15.37h-44V973.29h8.85L551,919.41,514.5,868.66h-11V853.2h44v15.46h-13l26.36,37.08,26.63-37.08H573.21Z"/></g></svg>