<?xml version="1.0" encoding="utf-8"?>
<!-- Generator: Adobe Illustrator 23.1.0, SVG Export Plug-In . SVG Version: 6.00 Build 0)  -->
<svg version="1.1" id="Layer_1" xmlns="http://www.w3.org/2000/svg" xmlns:xlink="http://www.w3.org/1999/xlink" x="0px" y="0px"
	 viewBox="0 0 864 504" style="enable-background:new 0 0 864 504;" xml:space="preserve">
<style type="text/css">
	.st0{fill:#FFFFFF;}
	.st1{fill:#F5F1F0;}
	.st2{fill:#A8A5A5;}
	.st3{fill:#DBD8D7;}
	.st4{fill:#4C4B4B;}
	.st5{fill:none;}
	.st6{fill:#BDB9B9;}
	.st7{fill:#858282;}
</style>
<title>material-59</title>
<g>
	<rect x="162" class="st0" width="552" height="420"/>
	<path class="st1" d="M714,0v420H162V0H714 M715-1H161v422h554V-1z"/>
	<rect x="162" class="st2" width="552" height="108"/>
	<path class="st3" d="M384,66v96h120V66H384z M480,84c3.3,0,6,2.7,6,6s-2.7,6-6,6s-6-2.7-6-6c-0.2-3.1,2.2-5.8,5.3-6
		C479.5,84,479.8,84,480,84z M396,150v-26.4l24-21.6l30,30l12-12l30,30H396z"/>
	<rect x="162" y="108" class="st0" width="552" height="312"/>
	<path d="M444.4,149.3c0.4,0.5,0.8,1.1,1.1,1.7c0.2,0.5,0.3,1.1,0.3,1.6c0,0.5-0.1,0.9-0.3,1.4c-0.2,0.4-0.4,0.8-0.8,1.1
		c-0.4,0.3-0.8,0.6-1.3,0.7c-0.6,0.2-1.2,0.3-1.8,0.3h-7.2l-0.1-3h6.9c0.9,0,1.3-0.3,1.3-1c0-0.4-0.2-0.7-0.5-1l-4.6-5.2l2.1-2
		L444.4,149.3z"/>
	<path d="M452.6,156c-0.5,0-1-0.1-1.4-0.2c-0.4-0.1-0.9-0.4-1.2-0.7c-0.4-0.4-0.6-0.8-0.8-1.3c-0.2-0.6-0.3-1.3-0.3-2v-12.6h2.8
		v11.9c0,0.5,0.1,1,0.4,1.4c0.3,0.3,0.7,0.5,1.2,0.5h0.6c0.4,0,0.6,0.5,0.6,1.4s-0.2,1.5-0.6,1.5L452.6,156z"/>
	<path d="M456.3,153c1.2,0,1.8-0.6,1.8-1.8v-3.2h2.8v3.4c0.1,1.2-0.3,2.5-1.1,3.4c-0.9,0.8-2,1.2-3.2,1.1h-2.7
		c-0.2,0-0.4-0.1-0.5-0.4c-0.1-0.3-0.1-0.7-0.1-1.1c0-0.4,0-0.8,0.1-1.2c0-0.2,0.2-0.4,0.5-0.4L456.3,153z M457.7,161.8h-3V159h3
		V161.8z"/>
	<path d="M463.9,140.5c-0.3,0-0.6,0-0.8,0.1c-0.3,0.1-0.4,0.4-0.5,0.6l-0.6,1.2l-1.7-0.8l0.8-1.8c0.1-0.3,0.3-0.6,0.5-0.9
		c0.1-0.2,0.3-0.4,0.5-0.6c0.2-0.2,0.4-0.3,0.7-0.3c0.3-0.1,0.7-0.1,1-0.1h5.5l-0.1,2.5H463.9z M464,143.3h2.8V156H464L464,143.3z"
		/>
	<path d="M477.8,156c-0.6,0-1.3-0.1-1.9-0.3c-0.5-0.2-0.9-0.5-1.3-0.9c-0.3-0.4-0.6-0.8-0.7-1.3c-0.2-0.5-0.2-1.1-0.2-1.6V148h2.7
		v3.1c0,0.5,0.1,1,0.4,1.4c0.4,0.4,1,0.6,1.6,0.5h8.5c0.8,0.2,1.6-0.4,1.8-1.2c0-0.2,0-0.3,0-0.5v-3.2h2.8v3.8
		c0,0.6-0.1,1.2-0.4,1.8c-0.2,0.5-0.5,0.9-0.9,1.3c-0.4,0.3-0.8,0.6-1.3,0.8c-0.5,0.2-1,0.3-1.5,0.3L477.8,156z M482,145.9h-2.8
		v-2.6h2.8V145.9z M485.9,145.9h-2.8v-2.6h2.8V145.9z"/>
	<path d="M503.8,149.3c0.4,0.5,0.8,1.1,1.1,1.7c0.2,0.5,0.3,1.1,0.3,1.6c0,0.5-0.1,0.9-0.3,1.4c-0.2,0.4-0.4,0.8-0.8,1.1
		c-0.4,0.3-0.8,0.6-1.3,0.7c-0.6,0.2-1.2,0.3-1.8,0.3h-7.2l-0.1-3h6.9c0.9,0,1.3-0.3,1.3-1c0-0.4-0.2-0.7-0.5-1l-4.5-5.2l2.1-2
		L503.8,149.3z"/>
	<path d="M512,156c-0.5,0-1-0.1-1.4-0.2c-0.4-0.1-0.9-0.4-1.2-0.7c-0.4-0.4-0.6-0.8-0.8-1.3c-0.2-0.6-0.3-1.3-0.3-2v-12.6h2.8v11.9
		c0,0.5,0.1,1,0.4,1.4c0.3,0.3,0.7,0.5,1.2,0.5h0.6c0.4,0,0.6,0.5,0.6,1.4s-0.2,1.5-0.6,1.5L512,156z"/>
	<path d="M514.7,153c0.6,0,1.2,0,1.9-0.1c0.7,0,1.3-0.2,1.9-0.4l-3.4-4.5l1.4-2.6h7c0.7,0,1.5,0.2,2.1,0.6c0.5,0.4,0.9,0.9,1,1.5
		c0,0.1,0.1,0.3,0.1,0.4s0,0.3,0,0.4c0,0.3-0.1,0.5-0.1,0.8c-0.1,0.3-0.2,0.6-0.4,0.9c-0.2,0.4-0.5,0.8-0.8,1.2
		c-0.4,0.5-0.9,1-1.4,1.5c0.4,0.1,0.9,0.2,1.4,0.2c0.5,0,1,0,1.6,0h1.9c0.2,0,0.4,0.1,0.5,0.4c0.1,0.3,0.1,0.7,0.1,1.1
		c0,0.4,0,0.8-0.1,1.2c0,0.2-0.2,0.4-0.5,0.4h-2.4c-0.5,0-1,0-1.5,0c-0.5,0-0.9-0.1-1.4-0.2c-0.4-0.1-0.9-0.2-1.3-0.4
		c-0.4-0.2-0.8-0.5-1.2-0.8c-0.5,0.3-1,0.5-1.5,0.7c-0.5,0.2-1,0.3-1.5,0.4c-0.5,0.1-1,0.2-1.5,0.2c-0.5,0-1.1,0.1-1.7,0.1H513
		c-0.2,0-0.4-0.1-0.5-0.4c-0.1-0.3-0.1-0.7-0.1-1.1c0-0.4,0-0.8,0.1-1.2c0-0.2,0.2-0.4,0.5-0.4L514.7,153z M523.8,149
		c0-0.5-0.4-0.7-1.1-0.7h-4.3l2.9,3.7c0.7-0.5,1.4-1.2,2-1.9C523.6,149.8,523.8,149.5,523.8,149L523.8,149z"/>
	<path d="M530,153c1.2,0,1.9-0.6,1.9-1.8v-3.2h2.7v3.2c0,0.5,0.2,1,0.6,1.4c0.4,0.3,0.9,0.4,1.3,0.4c1.3,0,2-0.6,2-1.8v-3.2h2.8v3.2
		c0,0.5,0.1,1,0.5,1.4c0.3,0.3,0.8,0.4,1.2,0.4c0.5,0,0.9-0.1,1.3-0.4c0.3-0.4,0.5-0.8,0.5-1.3v-3.2h2.8v3.4
		c0.1,1.2-0.3,2.5-1.2,3.4c-0.9,0.8-2,1.2-3.2,1.1c-0.6,0-1.2-0.1-1.8-0.3c-0.6-0.3-1.1-0.8-1.5-1.4c-0.3,0.6-0.9,1.1-1.5,1.4
		c-0.6,0.2-1.2,0.3-1.8,0.3c-0.6,0-1.3-0.1-1.9-0.3c-0.6-0.3-1.1-0.8-1.5-1.4c-0.3,0.6-0.8,1.1-1.5,1.4c-0.5,0.2-1.1,0.4-1.7,0.4
		h-1.2c-0.2,0-0.4-0.1-0.5-0.4c-0.1-0.3-0.1-0.7-0.1-1.1c0-0.4,0-0.8,0.1-1.2c0-0.2,0.2-0.4,0.5-0.4L530,153z"/>
	<path d="M558.2,156c-0.6,0-1.3-0.1-1.9-0.3c-0.5-0.2-0.9-0.5-1.3-0.9c-0.3-0.4-0.6-0.8-0.7-1.3c-0.2-0.5-0.2-1.1-0.2-1.6V148h2.7
		v3.1c0,0.5,0.1,1,0.4,1.4c0.5,0.4,1.1,0.6,1.7,0.5h8.5c0.8,0.2,1.6-0.4,1.8-1.2c0-0.2,0-0.3,0-0.5v-3.2h2.8v3.8
		c0,0.6-0.1,1.2-0.3,1.8c-0.2,0.5-0.5,0.9-0.9,1.3c-0.4,0.3-0.8,0.6-1.3,0.8c-0.5,0.2-1,0.3-1.5,0.3L558.2,156z M564.5,161.8h-3V159
		h3V161.8z"/>
	<path d="M574.9,139.3h2.8V156h-2.8V139.3z"/>
	<path d="M583.3,159.6c0.6,0,1.2-0.1,1.8-0.3c0.5-0.2,0.9-0.4,1.2-0.8c0.3-0.3,0.6-0.7,0.8-1.1c0.2-0.4,0.3-0.9,0.3-1.4h-1.8
		c-0.8,0-1.6-0.1-2.3-0.3c-0.5-0.2-1-0.5-1.4-0.9c-0.4-0.4-0.6-0.9-0.7-1.4c-0.1-0.6-0.2-1.3-0.2-1.9c0-0.7,0.1-1.4,0.3-2
		c0.2-0.6,0.5-1.1,0.9-1.6c0.4-0.5,0.9-0.9,1.4-1.1c0.6-0.3,1.3-0.4,2-0.4c0.6,0,1.2,0.1,1.7,0.3c0.5,0.2,1,0.5,1.4,0.9
		c0.5,0.5,0.8,1.1,1,1.7c0.3,0.8,0.4,1.7,0.4,2.5v1.2h2.2c0.4,0,0.6,0.5,0.6,1.4s-0.2,1.5-0.6,1.5H590c0,0.9-0.2,1.7-0.5,2.5
		c-0.3,0.8-0.8,1.5-1.3,2.1c-0.6,0.6-1.2,1.1-2,1.4c-0.8,0.4-1.8,0.5-2.7,0.5h-2.7l-0.2-2.9L583.3,159.6z M583.6,151.3
		c-0.1,0.5,0.1,1,0.4,1.3c0.5,0.3,1.1,0.4,1.7,0.4h1.8v-1.3c0.1-0.7-0.1-1.4-0.5-2c-0.4-0.4-0.9-0.6-1.5-0.6c-0.5,0-1,0.2-1.4,0.5
		C583.7,150.2,583.5,150.8,583.6,151.3z"/>
	<path d="M600,154.5c-0.5,0.3-0.9,0.5-1.4,0.7c-0.5,0.2-1,0.4-1.5,0.5c-0.6,0.1-1.1,0.2-1.7,0.3c-0.6,0.1-1.3,0.1-2.2,0.1h-1
		c-0.2,0-0.4-0.1-0.5-0.4c-0.1-0.3-0.1-0.7-0.1-1.1c0-0.4,0-0.8,0.1-1.2c0-0.2,0.2-0.4,0.5-0.4h1.1c0.7,0,1.3,0,1.8,0
		c0.5,0,1-0.1,1.5-0.1c0.4-0.1,0.9-0.2,1.3-0.3c0.4-0.1,0.8-0.3,1.2-0.6l3.4-2c-0.1-0.2-0.2-0.4-0.4-0.6c-0.1-0.2-0.3-0.3-0.4-0.4
		c-0.2-0.1-0.4-0.2-0.6-0.3c-0.3-0.1-0.7-0.1-1-0.1h-5.7l0.2-3h6c0.5,0,1,0.1,1.5,0.2c0.5,0.2,1,0.4,1.4,0.8
		c0.5,0.5,0.9,1.1,1.2,1.7c0.4,0.9,0.7,1.9,0.9,2.9L600,154.5z M600.5,142.8h-3V140h3V142.8z"/>
	<path d="M617.1,149.7c-0.7,0-1.3-0.2-1.8-0.6c0,0.3,0.1,0.7,0.1,1.1s0,0.8,0,1.2v6.4h-2.8v-6.6c0-1.1,0-2-0.1-2.8
		c0-0.7-0.1-1.4-0.2-2.1c-0.1-0.6-0.2-1.2-0.4-1.8s-0.3-1.2-0.5-1.8l2.6-0.9c0.2,0.6,0.3,1.2,0.4,1.7s0.3,1,0.4,1.6
		c0.1,0.3,0.1,0.5,0.2,0.7c0.1,0.2,0.2,0.4,0.3,0.6c0.1,0.2,0.3,0.3,0.5,0.4c0.2,0.1,0.5,0.2,0.8,0.1c0.4,0,0.9-0.1,1.2-0.4
		c0.3-0.3,0.4-0.6,0.4-1c-0.1-1.1-0.2-2.1-0.5-3.1l2.7-0.6c0.1,0.7,0.3,1.3,0.3,2c0.1,0.6,0.1,1.2,0.1,1.8c0,0.6-0.1,1.2-0.3,1.7
		c-0.2,0.5-0.4,1-0.8,1.4c-0.3,0.4-0.8,0.7-1.2,0.9C618.2,149.6,617.6,149.7,617.1,149.7z"/>
	<path d="M633.1,155.6c0,0.9-0.2,1.9-0.5,2.7c-0.3,0.8-0.8,1.6-1.3,2.2c-0.6,0.6-1.2,1.1-2,1.5c-0.8,0.4-1.7,0.5-2.5,0.5H625
		l-0.1-2.9h1.1c0.7,0,1.4-0.1,2.1-0.3c0.5-0.2,1-0.5,1.4-0.9c0.4-0.4,0.6-0.8,0.8-1.3c0.2-0.5,0.2-1,0.2-1.5v-7.5h2.8v3.2
		c0,0.5,0.2,1,0.5,1.3c0.4,0.3,0.9,0.5,1.3,0.4h0.3c0.4,0,0.6,0.5,0.6,1.4s-0.2,1.5-0.6,1.5h-0.3c-0.4,0-0.7-0.1-1.1-0.2
		c-0.4-0.1-0.7-0.4-0.9-0.7L633.1,155.6z"/>
	<path d="M637.2,153c1.2,0,1.8-0.6,1.8-1.8v-3.2h2.8v3.2c0,0.5,0.2,1,0.6,1.4c0.4,0.3,0.9,0.4,1.4,0.4h0.7c0.4,0,0.6,0.5,0.6,1.4
		s-0.2,1.5-0.6,1.5h-0.8c-0.6,0-1.3-0.1-1.9-0.3c-0.6-0.3-1.1-0.8-1.5-1.4c-0.3,0.6-0.8,1.1-1.5,1.4c-0.5,0.2-1.1,0.3-1.7,0.3h-1.9
		c-0.2,0-0.4-0.1-0.5-0.4c-0.1-0.3-0.1-0.7-0.1-1.1c0-0.4,0-0.8,0.1-1.2c0-0.2,0.2-0.4,0.5-0.4L637.2,153z M639.6,144.9h-2.8v-2.6
		h2.8V144.9z M643.4,144.9h-2.8v-2.6h2.8V144.9z"/>
	<path d="M644.7,153c0.5,0,1-0.1,1.4-0.4c0.4-0.3,0.6-0.7,0.5-1.2v-0.6c0-0.7,0.1-1.4,0.3-2c0.2-0.6,0.5-1.1,0.9-1.6
		c0.4-0.4,0.9-0.8,1.4-1c0.6-0.2,1.3-0.4,1.9-0.4c0.7,0,1.4,0.1,2,0.4c0.5,0.2,1,0.6,1.4,1c0.4,0.5,0.7,1,0.9,1.6
		c0.2,0.6,0.3,1.3,0.3,2c0.1,1.4-0.4,2.7-1.2,3.8c-0.9,0.9-2.1,1.4-3.4,1.4c-0.7,0-1.4-0.1-2.1-0.4c-0.6-0.3-1.2-0.7-1.5-1.3
		c-0.3,0.6-0.7,1.1-1.3,1.4c-0.5,0.2-1,0.3-1.6,0.4h-0.2c-0.2,0-0.4-0.1-0.5-0.4c-0.1-0.3-0.1-0.7-0.1-1.1c0-0.4,0-0.8,0.1-1.2
		c0-0.2,0.2-0.4,0.5-0.4L644.7,153z M653.1,151.1c0-0.5-0.1-1.1-0.4-1.5c-0.4-0.5-0.9-0.7-1.5-0.6c-0.6-0.1-1.1,0.2-1.5,0.6
		c-0.3,0.5-0.5,1-0.5,1.6c0,0.5,0.2,1,0.5,1.4c0.4,0.3,0.9,0.5,1.4,0.5c0.9,0.1,1.8-0.5,1.9-1.5
		C653.1,151.4,653.1,151.2,653.1,151.1L653.1,151.1z"/>
	<path d="M668.5,152.6c0.2-1,0.4-1.9,0.6-2.8c0.2-0.9,0.4-1.8,0.8-2.7c0.3-0.9,0.7-1.9,1.1-2.8c0.5-1.1,1.1-2.1,1.7-3.1l2.3,1.4
		c-0.7,1.2-1.3,2.3-1.8,3.3c-0.6,1.1-1,2.2-1.5,3.3c-0.5,1.2-0.9,2.5-1.2,3.7c-0.3,1.3-0.7,2.9-1,4.6h-1.9c-0.3-1.7-0.7-3.2-1-4.6
		s-0.8-2.6-1.2-3.7c-0.4-1.1-0.9-2.2-1.5-3.3c-0.5-1.1-1.1-2.2-1.8-3.3l2.3-1.4c0.6,1,1.2,2,1.7,3.1c0.4,0.9,0.8,1.8,1.2,2.8
		c0.3,0.9,0.6,1.8,0.8,2.7C668.2,150.7,668.3,151.6,668.5,152.6z"/>
	<path d="M683,146.6c-0.2,1-0.3,1.9-0.5,2.8c-0.2,0.9-0.5,1.8-0.8,2.7c-0.3,0.9-0.7,1.8-1.2,2.8c-0.5,1.1-1.1,2.1-1.7,3.1l-2.3-1.4
		c0.7-1.2,1.3-2.3,1.8-3.3s1-2.2,1.5-3.3s0.8-2.4,1.2-3.7s0.7-2.8,1-4.6h2c0.3,1.7,0.7,3.2,1,4.6c0.3,1.3,0.7,2.5,1.2,3.7
		c0.4,1.1,0.9,2.2,1.5,3.3c0.5,1.1,1.2,2.2,1.8,3.3l-2.3,1.4c-1.2-1.8-2.1-3.8-2.8-5.8c-0.3-0.9-0.6-1.8-0.8-2.7
		C683.4,148.6,683.2,147.6,683,146.6z"/>
	<path class="st4" d="M601.6,177.4c0,0.4,0.1,0.7,0.4,1c0.3,0.3,0.7,0.4,1.2,0.4c0.5,0,0.9-0.1,1.3-0.4c0.3-0.3,0.4-0.6,0.4-1v-2.5
		h1.2v2.5c0,0.4,0.1,0.8,0.5,1.1c0.3,0.2,0.6,0.3,1,0.3c0.4,0,0.8-0.1,1.1-0.4c0.3-0.3,0.4-0.6,0.4-1v-2.5h1.2v2.5
		c0,0.2,0,0.5,0.1,0.7c0.1,0.2,0.2,0.3,0.3,0.4c0.1,0.1,0.3,0.2,0.5,0.3c0.2,0,0.4,0.1,0.5,0.1h0.3c0.3,0,0.4,0.2,0.4,0.6
		s-0.1,0.6-0.4,0.6h-0.3c-0.4,0-0.8-0.1-1.2-0.2c-0.4-0.2-0.7-0.5-0.9-0.9c-0.2,0.4-0.6,0.7-1,0.9c-0.3,0.2-0.7,0.2-1.1,0.2
		c-0.4,0-0.8-0.1-1.2-0.2c-0.4-0.2-0.7-0.5-0.9-0.9c-0.2,0.4-0.6,0.7-1,0.9c-0.4,0.2-0.8,0.2-1.2,0.2c-0.3,0-0.7-0.1-1-0.2
		c-0.3-0.1-0.5-0.3-0.7-0.5v0.4c0,0.6-0.1,1.2-0.3,1.8c-0.2,0.5-0.5,1-0.9,1.5c-0.4,0.4-0.8,0.8-1.4,1c-0.6,0.3-1.2,0.4-1.8,0.4
		h-1.1c-1.2,0.1-2.3-0.4-3.1-1.3c-0.8-0.9-1.2-2.2-1.1-3.4v-3.1h1.2v3.1c0,0.5,0.1,0.9,0.2,1.4c0.1,0.4,0.3,0.8,0.6,1.1
		c0.3,0.3,0.6,0.5,1,0.7c0.5,0.2,1,0.3,1.5,0.3h0.8c0.5,0,1-0.1,1.5-0.3c0.4-0.2,0.7-0.4,1-0.7c0.3-0.3,0.5-0.7,0.6-1.1
		c0.1-0.4,0.2-0.9,0.2-1.3v-4.8h1.2L601.6,177.4z M605.1,172.6h-1.4v-1.3h1.4V172.6z M606.3,170.4h-1.4v-1.3h1.4V170.4z
		 M607.4,172.6h-1.4v-1.3h1.4V172.6z"/>
	<path class="st4" d="M613.4,178.8c0.4,0,0.8-0.1,1.2-0.4c0.3-0.3,0.4-0.6,0.4-1v-2.5h1.2v2.5c0,0.2,0,0.5,0.1,0.7
		c0.1,0.2,0.2,0.3,0.3,0.4c0.1,0.1,0.3,0.2,0.5,0.3c0.2,0,0.4,0.1,0.6,0.1h0.5c0.3,0,0.4,0.2,0.4,0.6s-0.1,0.6-0.4,0.6h-0.6
		c-0.4,0-0.8-0.1-1.2-0.2c-0.4-0.2-0.7-0.5-0.9-0.9c-0.2,0.4-0.5,0.7-1,0.9c-0.4,0.2-0.7,0.2-1.1,0.2h-1.4c-0.1,0-0.2,0-0.3-0.1
		c-0.1-0.1-0.1-0.3-0.1-0.4c0-0.2,0-0.3,0.1-0.5c0.1-0.1,0.2-0.2,0.3-0.2L613.4,178.8z M614.6,183.4h-1.4v-1.3h1.4V183.4z
		 M616.9,183.4h-1.4v-1.3h1.4V183.4z"/>
	<path class="st4" d="M619.8,178.8c0.4,0,0.8-0.1,1.1-0.4c0.3-0.3,0.4-0.6,0.4-1v-2.5h1.2v2.5c0.1,0.7-0.2,1.5-0.7,2
		c-0.5,0.5-1.2,0.7-1.9,0.7h-1.7c-0.1,0-0.2,0-0.3-0.1c-0.1-0.1-0.1-0.3-0.1-0.4c0-0.2,0-0.3,0.1-0.5c0.1-0.1,0.2-0.2,0.3-0.2
		L619.8,178.8z M619.8,183.4h-1.4v-1.3h1.4V183.4z M621,185.5h-1.4v-1.3h1.4L621,185.5z M622.1,183.4h-1.4v-1.3h1.4L622.1,183.4z"/>
	<path class="st4" d="M633.5,177c0,0.4,0.1,0.9,0.3,1.3c0.3,0.4,0.7,0.5,1.1,0.5h0.3c0.1,0,0.2,0,0.3,0.1c0.1,0.1,0.1,0.3,0.1,0.5
		c0,0.2,0,0.3-0.1,0.5c-0.1,0.1-0.2,0.2-0.3,0.1h-0.3c-0.5,0-1-0.1-1.4-0.4c-0.4-0.3-0.7-0.8-0.8-1.3c-0.1,0.2-0.3,0.3-0.5,0.4
		c-0.2,0.1-0.4,0.2-0.7,0.3c-0.2,0.1-0.5,0.1-0.7,0.1c-0.2,0-0.4,0-0.7,0c-0.7,0-1.4-0.2-2-0.7c-0.5-0.6-0.8-1.4-0.7-2.1
		c0-0.4,0.1-0.9,0.2-1.3c0.1-0.4,0.3-0.8,0.6-1.1c0.3-0.3,0.6-0.6,1-0.8c0.4-0.2,0.9-0.3,1.3-0.3h1.9v-1.2h1.1L633.5,177z
		 M630.3,178.1c0.5,0,1-0.1,1.5-0.4c0.4-0.2,0.6-0.6,0.5-1V174h-1.9c-0.6,0-1.1,0.2-1.4,0.6c-0.4,0.5-0.5,1.1-0.5,1.6
		c-0.1,0.5,0.1,1,0.5,1.4C629.3,178,629.8,178.1,630.3,178.1L630.3,178.1z"/>
	<path class="st4" d="M638.6,178.8c-0.5-0.3-1-0.7-1.4-1.2c-0.3-0.5-0.5-1-0.5-1.6c0-0.4,0.1-0.8,0.2-1.1c0.1-0.4,0.4-0.7,0.6-1
		c0.6-0.6,1.5-1,2.4-0.9c0.4,0,0.9,0.1,1.3,0.3c0.4,0.2,0.7,0.4,0.9,0.7c0.3,0.3,0.4,0.6,0.6,1c0.1,0.3,0.2,0.7,0.2,1.1
		c0,1.2-0.6,2.3-1.7,2.9h3.3c0.3,0,0.4,0.2,0.4,0.6s-0.1,0.6-0.4,0.6h-2c-0.5,0-1,0-1.5-0.1c-0.3,0-0.7-0.1-1-0.2
		c-0.2,0.1-0.4,0.1-0.6,0.2c-0.3,0-0.5,0.1-0.8,0.1h-0.8h-2.8c-0.1,0-0.2,0-0.3-0.1c-0.1-0.1-0.1-0.3-0.1-0.4c0-0.2,0-0.3,0.1-0.5
		c0.1-0.1,0.2-0.2,0.3-0.2L638.6,178.8z M639.8,174.1c-0.5,0-1.1,0.2-1.4,0.6c-0.3,0.4-0.5,0.9-0.5,1.4c0,0.3,0.1,0.6,0.2,0.9
		c0.1,0.3,0.3,0.5,0.5,0.7c0.2,0.2,0.4,0.4,0.7,0.5c0.2,0.1,0.5,0.3,0.7,0.4c0.2-0.1,0.4-0.2,0.6-0.4c0.2-0.2,0.4-0.3,0.6-0.5
		c0.2-0.2,0.3-0.4,0.5-0.7c0.1-0.3,0.2-0.5,0.2-0.8c0-0.5-0.2-1.1-0.5-1.5C640.9,174.3,640.4,174.1,639.8,174.1z M639.4,171.1H638
		v-1.3h1.4V171.1z M641.7,171.1h-1.4v-1.3h1.4V171.1z"/>
	<path class="st4" d="M645.9,178.8c0.4,0,0.8-0.1,1.2-0.4c0.3-0.3,0.4-0.6,0.4-1v-2.5h1.2v2.5c0,0.2,0,0.5,0.1,0.7
		c0.1,0.2,0.2,0.3,0.3,0.4c0.1,0.1,0.3,0.2,0.5,0.3c0.2,0,0.4,0.1,0.6,0.1h0.5c0.3,0,0.4,0.2,0.4,0.6s-0.1,0.6-0.4,0.6h-0.6
		c-0.4,0-0.8-0.1-1.2-0.2c-0.4-0.2-0.7-0.5-0.9-0.9c-0.2,0.4-0.6,0.7-1,0.9c-0.4,0.2-0.7,0.2-1.1,0.2h-1.4c-0.1,0-0.2,0-0.3-0.1
		c-0.1-0.1-0.1-0.3-0.1-0.4c0-0.2,0-0.3,0.1-0.5c0.1-0.1,0.2-0.2,0.3-0.2L645.9,178.8z M647.1,183.4h-1.4v-1.3h1.4V183.4z
		 M649.4,183.4H648v-1.3h1.4L649.4,183.4z"/>
	<path class="st4" d="M653.8,178.8h0.8c0.2,0,0.5,0,0.7,0c-0.6-0.2-1.1-0.4-1.6-0.7c-0.3-0.2-0.6-0.4-0.9-0.7
		c-0.2-0.2-0.3-0.5-0.4-0.8c-0.1-0.3-0.1-0.7-0.1-1c0-0.3,0.1-0.7,0.2-1c0.3-0.7,0.8-1.3,1.5-1.6c0.4-0.2,0.9-0.3,1.3-0.3
		c0.4,0,0.8,0.1,1.3,0.2c0.4,0.1,0.7,0.3,1,0.6c0.3,0.3,0.5,0.7,0.6,1.1c0.2,0.5,0.2,1.1,0.2,1.6v0.8c0,0.8-0.3,1.6-0.8,2.2
		c-0.7,0.6-1.7,0.9-2.6,0.8h-4.2c-0.1,0-0.2,0-0.3-0.1c-0.1-0.1-0.1-0.3-0.1-0.4c0-0.2,0-0.3,0.1-0.5c0.1-0.1,0.2-0.2,0.3-0.2
		L653.8,178.8z M655.3,173.9c-0.3,0-0.5,0.1-0.8,0.2c-0.2,0.1-0.4,0.2-0.6,0.4c-0.2,0.2-0.3,0.4-0.4,0.6c-0.1,0.2-0.1,0.4-0.1,0.7
		c0,0.2,0,0.4,0.1,0.6c0.1,0.2,0.2,0.4,0.4,0.6c0.3,0.3,0.6,0.5,1,0.6c0.6,0.3,1.2,0.5,1.8,0.8c0.4-0.4,0.6-0.9,0.6-1.4v-0.6
		c0-0.6-0.1-1.2-0.5-1.8C656.4,174.1,655.8,173.9,655.3,173.9L655.3,173.9z M654.9,170.9h-1.4v-1.3h1.4V170.9z M657.2,170.9h-1.4
		v-1.3h1.4V170.9z"/>
	<path class="st4" d="M667,175.7c0.3,0.3,0.5,0.6,0.7,1c0.1,0.3,0.2,0.7,0.2,1c0,0.6-0.2,1.2-0.7,1.6c-0.6,0.5-1.3,0.7-2,0.6h-5
		l-0.1-1.2h5c0.4,0,0.8-0.1,1.1-0.3c0.3-0.2,0.4-0.5,0.4-0.8c0-0.2,0-0.4-0.1-0.6c-0.1-0.2-0.2-0.4-0.4-0.6l-3.3-3.8l0.9-0.9
		L667,175.7z"/>
	<path class="st4" d="M675.6,175.6c-0.3,0-0.6-0.1-0.9-0.2c-0.3-0.1-0.5-0.3-0.6-0.5c0,0.3,0,0.6,0,0.9s0,0.6,0,0.9v4.4H673v-4.4
		c0-0.7,0-1.4-0.1-1.9c0-0.5-0.1-1-0.2-1.5c-0.1-0.4-0.2-0.9-0.3-1.3c-0.1-0.4-0.2-0.8-0.3-1.3l1.1-0.4c0.1,0.3,0.2,0.5,0.2,0.8
		s0.1,0.4,0.2,0.6s0.1,0.4,0.2,0.6l0.2,0.6c0.1,0.4,0.3,0.7,0.5,1c0.3,0.3,0.6,0.4,1,0.4c0.4,0,0.7-0.1,1-0.3c0.3-0.2,0.5-0.6,0.4-1
		c0-0.3,0-0.6-0.1-1.1s-0.1-0.9-0.2-1.4l1.1-0.2c0.1,0.4,0.2,0.9,0.2,1.4c0,0.4,0.1,0.9,0.1,1.3c0,0.3-0.1,0.7-0.2,1
		c-0.1,0.3-0.3,0.6-0.5,0.8c-0.2,0.2-0.5,0.4-0.8,0.5C676.3,175.5,676,175.6,675.6,175.6z"/>
	<path class="st4" d="M679.9,178.5c0-0.4,0.1-0.8,0.2-1.2c0.1-0.5,0.3-1,0.6-1.4c0.3-0.6,0.7-1.2,1.2-1.8c0.5-0.7,1.1-1.4,1.9-2.3
		l-0.8-0.7l0.7-0.9c1,0.8,1.9,1.7,2.8,2.6c0.6,0.7,1.2,1.4,1.7,2.1c0.4,0.5,0.6,1.1,0.8,1.8c0.1,0.5,0.2,1,0.2,1.5
		c0,0.5-0.1,0.9-0.2,1.3c-0.1,0.4-0.3,0.7-0.6,0.9c-0.5,0.5-1.1,0.7-1.8,0.7c-0.4,0-0.8-0.1-1.2-0.3c-0.3-0.1-0.6-0.4-0.8-0.6
		c-0.2,0.3-0.5,0.5-0.9,0.7c-0.3,0.1-0.7,0.2-1.1,0.2c-0.7,0-1.4-0.2-1.9-0.7C680.1,179.9,679.9,179.2,679.9,178.5z M688,178.2
		c0-0.4-0.1-0.7-0.1-1.1c-0.1-0.5-0.3-0.9-0.5-1.3c-0.3-0.5-0.7-1-1.1-1.5c-0.5-0.6-1.1-1.2-1.8-1.8c-1,1-1.9,2-2.6,3.2
		c-0.5,0.7-0.8,1.6-0.8,2.5c0,0.5,0.1,0.9,0.4,1.3c0.3,0.3,0.7,0.4,1.1,0.4c0.2,0,0.4,0,0.5-0.1c0.2-0.1,0.4-0.2,0.5-0.3
		c0.2-0.1,0.3-0.3,0.4-0.5c0.1-0.2,0.1-0.5,0.1-0.7v-1.2h1.1v1.1c0,0.2,0,0.4-0.1,0.6c0,0.2-0.1,0.3-0.1,0.4
		c0.3,0.4,0.9,0.6,1.4,0.6c0.4,0,0.8-0.2,1.1-0.4C687.8,179.2,688,178.7,688,178.2L688,178.2z"/>
	<path class="st4" d="M273,162v-24h-18v24h3l6-6l6,6H273z M258,157.8V141h12v16.8l-6-6L258,157.8z"/>
	<rect x="246" y="132" class="st5" width="36" height="36"/>
	<path class="st4" d="M197.1,144.9l6.9,6.9l6.9-6.9l2.1,2.1l-9,9l-9-9L197.1,144.9z"/>
	<rect x="186" y="132" class="st5" width="36" height="36"/>
	<path d="M601.4,223.5c0,0.4,0.1,0.9,0.3,1.3c0.3,0.3,0.7,0.5,1.1,0.5h0.6c0.2,0,0.4,0.1,0.4,0.3c0.1,0.3,0.1,0.7,0.1,1
		c0,0.4,0,0.7-0.1,1.1c0,0.2-0.2,0.4-0.4,0.4h-0.6c-0.7,0-1.4-0.1-2.1-0.4c-0.6-0.3-1-0.9-1.2-1.5c-0.4,0.4-0.9,0.8-1.5,0.9
		c-0.5,0.1-1.1,0.2-1.7,0.2c-1,0.1-2-0.3-2.7-1c-0.7-0.9-1-2-0.9-3.1c0-0.6,0.1-1.2,0.3-1.8c0.2-0.6,0.4-1.1,0.8-1.6
		c0.7-1,1.9-1.6,3.1-1.5h2v-1.7h2.5L601.4,223.5z M596.9,224.5c0.5,0,1-0.1,1.5-0.4c0.3-0.3,0.5-0.7,0.5-1.1v-2.4h-1.8
		c-0.6-0.1-1.1,0.2-1.5,0.6c-0.3,0.5-0.5,1-0.5,1.6c0,0.5,0.1,0.9,0.4,1.3C596,224.4,596.5,224.5,596.9,224.5z"/>
	<path d="M604.8,225.3c0.5,0,1.1,0,1.7-0.1c0.6,0,1.2-0.1,1.8-0.3l-3.2-4.1l1.3-2.4h6.5c0.7,0,1.4,0.1,2,0.5c0.5,0.3,0.9,0.8,1,1.4
		c0,0.1,0,0.3,0.1,0.4c0,0.1,0,0.3,0,0.4c0,0.2-0.1,0.5-0.1,0.7c-0.1,0.3-0.2,0.6-0.4,0.9c-0.2,0.4-0.5,0.7-0.8,1.1
		c-0.4,0.5-0.9,0.9-1.3,1.4c0.4,0.1,0.8,0.2,1.3,0.2c0.4,0,0.9,0,1.5,0h1.7c0.2,0,0.4,0.1,0.4,0.3c0.1,0.3,0.1,0.7,0.1,1
		c0,0.4,0,0.7-0.1,1.1c0,0.2-0.2,0.4-0.4,0.4h-2.2c-0.5,0-1,0-1.4,0c-0.4,0-0.8-0.1-1.3-0.2c-0.4-0.1-0.8-0.2-1.2-0.4
		c-0.4-0.2-0.7-0.4-1.1-0.7c-0.4,0.3-0.9,0.5-1.4,0.7c-0.4,0.2-0.9,0.3-1.4,0.4c-0.5,0.1-1,0.2-1.4,0.2c-0.5,0-1,0.1-1.6,0.1h-1.7
		c-0.2,0-0.4-0.1-0.4-0.3c-0.1-0.3-0.1-0.7-0.1-1c0-0.4,0-0.7,0.1-1.1c0-0.2,0.2-0.4,0.4-0.4L604.8,225.3z M613.3,221.6
		c0-0.4-0.3-0.7-1-0.7h-4l2.7,3.4c0.7-0.5,1.3-1.1,1.8-1.7C613.1,222.3,613.2,222,613.3,221.6z"/>
	<path d="M620.2,225.3c1.1,0,1.7-0.5,1.7-1.6v-2.9h2.5v3.1c0.1,1.1-0.3,2.3-1,3.1c-0.8,0.8-1.9,1.1-3,1.1h-2.5
		c-0.2,0-0.4-0.1-0.4-0.3c-0.1-0.3-0.1-0.7-0.1-1c0-0.4,0-0.7,0.1-1.1c0-0.2,0.2-0.4,0.4-0.4L620.2,225.3z M620.5,233.3h-2.6v-2.4
		h2.6V233.3z M624.1,233.3h-2.6v-2.4h2.6V233.3z"/>
	<path d="M635.9,221.8c0.4,0.5,0.8,1,1,1.5c0.2,0.5,0.3,1,0.3,1.5c0,0.4-0.1,0.8-0.3,1.2c-0.2,0.4-0.4,0.7-0.7,1
		c-0.3,0.3-0.8,0.5-1.2,0.7c-0.5,0.2-1.1,0.3-1.6,0.3h-6.7l-0.1-2.8h6.3c0.8,0,1.2-0.3,1.2-0.9c0-0.3-0.2-0.7-0.4-0.9l-4.3-4.9
		l2-1.9L635.9,221.8z"/>
	<path d="M642,231.3c0.6,0,1.1-0.1,1.6-0.3c0.4-0.2,0.8-0.4,1.1-0.7c0.3-0.3,0.5-0.7,0.7-1.1c0.2-0.4,0.3-0.8,0.3-1.3h-1.7
		c-0.7,0-1.4-0.1-2.1-0.3c-1-0.3-1.8-1.1-2-2.1c-0.1-0.6-0.2-1.2-0.2-1.8c0-0.6,0.1-1.2,0.3-1.8c0.2-0.6,0.4-1.1,0.8-1.5
		c0.4-0.4,0.8-0.8,1.3-1c0.6-0.3,1.2-0.4,1.8-0.4c0.5,0,1.1,0.1,1.6,0.3c0.5,0.2,1,0.5,1.3,0.9c0.4,0.5,0.7,1,0.9,1.6
		c0.2,0.7,0.4,1.5,0.3,2.3v3.5c0,0.8-0.1,1.7-0.4,2.4c-0.3,0.8-0.7,1.5-1.2,2.1c-0.5,0.6-1.2,1.1-1.9,1.4c-0.8,0.4-1.7,0.5-2.6,0.5
		h-2.5l-0.2-2.7L642,231.3z M642.3,223.7c0,0.4,0.1,0.9,0.4,1.2c0.5,0.3,1,0.4,1.5,0.4h1.7v-1.2c0.1-0.6-0.1-1.3-0.5-1.8
		c-0.4-0.4-0.9-0.6-1.4-0.5c-0.5,0-0.9,0.2-1.3,0.5C642.4,222.6,642.2,223.2,642.3,223.7L642.3,223.7z"/>
	<path d="M655,229.5v-6.1c0-1,0-1.9-0.1-2.6c0-0.7-0.1-1.3-0.2-2c-0.1-0.6-0.2-1.1-0.4-1.7s-0.3-1.1-0.5-1.7l2.4-0.9
		c0.2,0.6,0.4,1.3,0.6,1.9c0.2,0.6,0.3,1.3,0.4,1.9c0.1,0.7,0.2,1.4,0.2,2.2s0.1,1.7,0.1,2.7v6.2L655,229.5z"/>
	<path d="M668.4,216.5c0.1,0.6,0.1,1.1,0.1,1.7c0,0.1,0,0.2,0,0.3c0,0.1,0,0.2-0.1,0.4c0.2,0.2,0.4,0.3,0.6,0.4
		c0.2,0.1,0.4,0.1,0.7,0.1c0.4,0,0.8-0.1,1.1-0.4c0.2-0.2,0.4-0.6,0.4-0.9c0-1-0.2-2-0.4-2.9l2.4-0.5c0.1,0.6,0.2,1.2,0.3,1.9
		c0.1,0.6,0.1,1.2,0.1,1.7c0,0.5-0.1,1.1-0.3,1.6c-0.2,0.5-0.4,0.9-0.7,1.2c-0.3,0.4-0.7,0.6-1.1,0.8c-0.5,0.2-1,0.3-1.5,0.3
		c-0.5,0-0.9-0.1-1.4-0.3c-0.5-0.2-0.9-0.5-1.3-0.9c-0.3,0.4-0.7,0.6-1.1,0.8c-0.5,0.2-1,0.3-1.5,0.3c-0.6,0-1.2-0.2-1.7-0.6
		c0,0.3,0.1,0.6,0.1,1s0,0.7,0,1.1v5.9h-2.5v-6.1c0-1,0-1.9-0.1-2.6c0-0.7-0.1-1.3-0.2-2c-0.1-0.6-0.2-1.1-0.4-1.7s-0.3-1.1-0.5-1.7
		l2.4-0.9c0.2,0.6,0.3,1.1,0.4,1.6s0.3,0.9,0.4,1.4c0.1,0.2,0.1,0.5,0.2,0.7c0.1,0.2,0.2,0.4,0.3,0.6c0.1,0.2,0.3,0.3,0.5,0.4
		c0.2,0.1,0.5,0.1,0.7,0.1c0.4,0,0.8-0.1,1.1-0.4c0.3-0.2,0.4-0.6,0.4-0.9c-0.1-1-0.2-2-0.4-2.9l2.5-0.5
		C668.2,215.3,668.3,215.9,668.4,216.5z"/>
	<path d="M675.8,225.9c0-0.6,0.1-1.1,0.2-1.6c0.2-0.7,0.4-1.3,0.7-1.9c0.4-0.8,0.9-1.6,1.4-2.3c0.6-0.9,1.4-1.8,2.4-2.9l-1-0.9
		l1.5-1.9c1.4,1.1,2.7,2.3,4,3.6c0.9,0.9,1.7,1.9,2.4,2.9c0.5,0.8,0.9,1.6,1.1,2.4c0.2,0.7,0.3,1.4,0.3,2.1c0,0.6-0.1,1.3-0.3,1.9
		c-0.2,0.5-0.5,0.9-0.9,1.3c-0.4,0.3-0.8,0.6-1.2,0.8c-0.4,0.2-0.9,0.3-1.4,0.3c-0.5,0-1.1-0.1-1.6-0.3c-0.4-0.2-0.8-0.5-1.2-0.9
		c-0.3,0.4-0.8,0.7-1.3,0.9c-0.5,0.2-1,0.3-1.5,0.3c-1,0.1-2-0.3-2.7-1C676.2,227.9,675.8,226.9,675.8,225.9z M686.4,225.4
		c0-0.4-0.1-0.8-0.2-1.2c-0.1-0.5-0.3-1-0.6-1.5c-0.4-0.7-0.8-1.3-1.3-1.8c-0.7-0.8-1.4-1.5-2.2-2.2c-1.1,1.2-2.1,2.5-3,3.9
		c-0.5,0.8-0.9,1.8-0.9,2.8c0,0.4,0.1,0.8,0.4,1.2c0.3,0.3,0.7,0.5,1.1,0.5c0.4,0,0.8-0.1,1.1-0.4c0.4-0.3,0.5-0.8,0.5-1.4v-1.5h2.3
		v1.2c0,0.3,0,0.5,0,0.8c0,0.2-0.1,0.4-0.2,0.6c0.4,0.4,0.9,0.6,1.4,0.6c0.8,0,1.5-0.6,1.6-1.4C686.5,225.5,686.5,225.4,686.4,225.4
		L686.4,225.4z"/>
	<path d="M477.9,224.1c0-0.5,0.1-0.9,0.2-1.4c0.1-0.5,0.3-0.9,0.5-1.3c0.3-0.5,0.6-0.9,0.9-1.3c0.4-0.4,0.8-0.9,1.3-1.4l-1.1-1.1
		l1.7-1.9c1,1,1.9,1.9,2.6,2.7c0.6,0.6,1.2,1.3,1.7,2c0.4,0.5,0.7,1.1,0.9,1.7c0.2,0.5,0.3,1.1,0.3,1.6c0,0.6-0.1,1.2-0.4,1.7
		c-0.5,1-1.3,1.8-2.4,2.2c-0.6,0.2-1.2,0.3-1.8,0.3c-0.6,0-1.2-0.1-1.8-0.3c-0.5-0.2-1-0.4-1.4-0.8c-0.4-0.3-0.7-0.8-0.9-1.2
		C478,225.2,477.9,224.7,477.9,224.1z M484.2,223.6c0-0.2,0-0.4-0.1-0.6c-0.1-0.2-0.2-0.4-0.3-0.6c-0.2-0.3-0.4-0.5-0.6-0.8
		c-0.3-0.3-0.6-0.6-1-1c-0.4,0.3-0.7,0.7-1,1.1c-0.2,0.3-0.4,0.5-0.6,0.8c-0.1,0.2-0.2,0.4-0.3,0.6c0,0.2-0.1,0.4-0.1,0.6
		c0,0.4,0.2,0.8,0.5,1.1c0.4,0.4,0.9,0.5,1.4,0.5c0.5,0,1-0.2,1.4-0.5C484.1,224.5,484.2,224,484.2,223.6L484.2,223.6z"/>
	<path d="M492.2,230.1c-0.3,0.8-0.7,1.5-1.3,2.1c-1.1,1.2-2.7,1.9-4.3,1.9h-1.6l-0.1-2.7h1.1c0.7,0,1.3-0.1,1.9-0.3
		c0.5-0.2,0.9-0.5,1.3-0.8c0.3-0.3,0.6-0.8,0.7-1.2c0.1-0.4,0.2-0.9,0.2-1.4v-6.9h2.5v6.9C492.7,228.5,492.6,229.3,492.2,230.1z"/>
	<path d="M499.1,228c-0.5,0-0.9-0.1-1.3-0.2c-0.4-0.1-0.8-0.3-1.1-0.6c-0.3-0.3-0.6-0.7-0.8-1.2c-0.2-0.6-0.3-1.2-0.3-1.8v-11.6h2.5
		v11c0,0.4,0.1,0.9,0.4,1.3c0.3,0.3,0.7,0.5,1.1,0.5h0.6c0.4,0,0.5,0.4,0.5,1.3s-0.2,1.4-0.5,1.4L499.1,228z"/>
	<path d="M507.4,226.6c-0.4,0.3-0.9,0.5-1.3,0.7c-0.4,0.2-0.9,0.3-1.4,0.4c-0.5,0.1-1.1,0.2-1.6,0.2c-0.6,0-1.2,0.1-2,0.1h-0.9
		c-0.2,0-0.4-0.1-0.4-0.3c-0.1-0.3-0.1-0.7-0.1-1c0-0.4,0-0.7,0.1-1.1c0-0.2,0.2-0.4,0.4-0.4h1c0.6,0,1.2,0,1.7,0
		c0.5,0,0.9-0.1,1.4-0.1c0.8-0.1,1.6-0.4,2.3-0.8l3.2-1.8c-0.1-0.2-0.2-0.4-0.3-0.6c-0.1-0.2-0.2-0.3-0.4-0.4
		c-0.2-0.1-0.4-0.2-0.6-0.3c-0.3-0.1-0.6-0.1-0.9-0.1h-5.3l0.1-2.8h5.5c0.5,0,0.9,0.1,1.4,0.2c0.5,0.2,0.9,0.4,1.3,0.8
		c0.5,0.5,0.9,1,1.1,1.6c0.4,0.8,0.7,1.7,0.9,2.7L507.4,226.6z M507.7,233.4h-2.8v-2.6h2.8L507.7,233.4z"/>
	<path d="M515.2,212.5h2.5V228h-2.5V212.5z"/>
	<path d="M529.2,222.2c-0.6,0-1.2-0.2-1.7-0.6c0,0.3,0.1,0.6,0.1,1s0,0.7,0,1.1v5.9H525v-6.1c0-1,0-1.9-0.1-2.6s-0.1-1.4-0.2-2
		s-0.2-1.1-0.4-1.7s-0.3-1.1-0.5-1.7l2.4-0.9c0.2,0.6,0.3,1.1,0.4,1.6s0.3,0.9,0.4,1.4c0.1,0.2,0.1,0.5,0.2,0.7
		c0.1,0.2,0.2,0.4,0.3,0.6c0.1,0.2,0.3,0.3,0.5,0.4c0.2,0.1,0.5,0.1,0.7,0.1c0.4,0,0.8-0.1,1.1-0.4c0.3-0.2,0.4-0.6,0.4-0.9
		c-0.1-1-0.2-2-0.4-2.9l2.5-0.5c0.1,0.6,0.2,1.2,0.3,1.8c0.1,0.6,0.1,1.1,0.1,1.7c0,0.5-0.1,1.1-0.3,1.6c-0.2,0.5-0.4,0.9-0.7,1.3
		c-0.3,0.4-0.7,0.6-1.1,0.8C530.2,222.1,529.7,222.2,529.2,222.2z"/>
	<path class="st6" d="M579.6,207.6l-30,30l-2.1-2.1l9-9h-6v-3h9l3-3h-12l7.5-7.5v4.5h7.5l12-12L579.6,207.6z M568.5,220.5h9v-3h-6
		L568.5,220.5z M571.5,223.5h-6l-3,3h7.5v4.5l7.5-7.5H571.5z"/>
	<rect x="546" y="204" class="st5" width="36" height="36"/>
	<path class="st1" d="M666,336.5h-72c-13.5,0-24.5-11-24.5-24.5s11-24.5,24.5-24.5h72c13.5,0,24.5,11,24.5,24.5
		S679.5,336.5,666,336.5z M594,288.5c-13,0-23.5,10.5-23.5,23.5s10.5,23.5,23.5,23.5h72c13,0,23.5-10.5,23.5-23.5
		S679,288.5,666,288.5H594z"/>
	<path class="st7" d="M595.1,321.8c0.6,0,1.2-0.1,1.7-0.2c0.5-0.1,1-0.4,1.4-0.7c0.4-0.3,0.7-0.6,0.9-1c0.2-0.4,0.3-0.8,0.3-1.2
		c0-0.4-0.1-0.7-0.3-1c-0.4-0.3-0.8-0.5-1.3-0.4H594v-3.8c0-1,0.3-2,1-2.7c0.7-0.7,1.7-1.1,2.7-1h2.5l0.1,1.5h-2.7
		c-0.3,0-0.5,0-0.8,0.1c-0.2,0.1-0.5,0.2-0.7,0.4c-0.2,0.2-0.4,0.4-0.5,0.7c-0.1,0.3-0.2,0.7-0.2,1v2.3h2.7c0.5,0,0.9,0.1,1.4,0.2
		c0.3,0.1,0.6,0.3,0.8,0.6c0.2,0.2,0.4,0.5,0.4,0.9c0.1,0.3,0.1,0.7,0.1,1c0,0.7-0.1,1.3-0.4,1.9c-0.3,0.6-0.7,1.1-1.2,1.6
		c-0.5,0.5-1.1,0.8-1.8,1c-0.7,0.3-1.4,0.4-2.2,0.4h-1.9c-1.4,0.1-2.8-0.5-3.8-1.5c-1-1.2-1.4-2.7-1.4-4.2v-3.9h1.4v3.8
		c0,0.6,0.1,1.2,0.2,1.7c0.3,1,1,1.8,2,2.2c0.6,0.2,1.2,0.3,1.8,0.3H595.1z"/>
	<path class="st7" d="M600.3,321.8h0.4c0.6,0,1.3-0.1,1.8-0.4c0.5-0.2,0.9-0.5,1.3-0.9c0.3-0.4,0.6-0.8,0.7-1.3
		c0.2-0.5,0.2-1,0.2-1.6v-5.9h1.4v5.9c0,0.8-0.1,1.6-0.4,2.3c-0.3,0.7-0.6,1.3-1.1,1.8c-0.5,0.5-1,0.9-1.7,1.2
		c-0.7,0.3-1.4,0.4-2.1,0.4h-0.5L600.3,321.8z"/>
	<path class="st7" d="M611.4,318c-0.4,0-0.7-0.1-1.1-0.2c-0.4-0.1-0.7-0.3-0.9-0.6c-0.3-0.3-0.5-0.6-0.7-1c-0.2-0.5-0.3-1.1-0.2-1.6
		v-10.3h1.4v10c0,0.5,0.1,1.1,0.4,1.5c0.3,0.4,0.8,0.6,1.3,0.6h0.4c0.3,0,0.5,0.3,0.5,0.8s-0.2,0.8-0.5,0.8L611.4,318z"/>
	<path class="st7" d="M613.7,316.5c0.5,0,1-0.1,1.4-0.5c0.3-0.3,0.5-0.8,0.5-1.3v-3h1.4v3c0,0.3,0,0.6,0.2,0.8
		c0.1,0.2,0.3,0.4,0.4,0.5c0.2,0.1,0.4,0.2,0.6,0.3c0.2,0.1,0.5,0.1,0.7,0.1h0.7c0.3,0,0.5,0.3,0.5,0.8s-0.2,0.8-0.5,0.8h-0.7
		c-0.5,0-1-0.1-1.5-0.3c-0.5-0.2-0.9-0.6-1.1-1.1c-0.3,0.5-0.7,0.9-1.2,1.1c-0.4,0.2-0.9,0.3-1.4,0.3H612c-0.2,0-0.3-0.1-0.4-0.2
		c-0.1-0.2-0.1-0.4-0.1-0.5c0-0.2,0-0.4,0.1-0.6c0.1-0.1,0.2-0.2,0.4-0.2L613.7,316.5z M616.7,322.2h-1.8v-1.6h1.8V322.2z"/>
	<path class="st7" d="M621.5,316.5c0.5,0,1-0.1,1.4-0.5c0.4-0.3,0.5-0.8,0.5-1.3v-3h1.4v3c0.1,0.9-0.3,1.8-0.9,2.4
		c-0.6,0.6-1.5,0.9-2.4,0.9h-2.1c-0.2,0-0.3-0.1-0.4-0.2c-0.1-0.2-0.1-0.4-0.1-0.5c0-0.2,0-0.4,0.1-0.6c0.1-0.1,0.2-0.2,0.4-0.2
		L621.5,316.5z M624.2,308.9h-1.8v-1.6h1.8V308.9z"/>
	<path class="st7" d="M627,304.4h1.4V318H627V304.4z"/>
	<path class="st7" d="M673.5,306v12l-13.5,7.5l-13.5-7.5v-12l13.5-7.5L673.5,306z M657.1,303.5l8.9,5l2.9-1.6l-8.9-5L657.1,303.5z
		 M658.5,314.4l-9-5v6.8l9,5V314.4z M660,311.8l2.9-1.6l-8.9-5l-2.9,1.6L660,311.8z M670.5,309.4l-3,1.7v2.9l-3,1.7v-2.9l-3,1.7v6.8
		l9-5V309.4z"/>
	<rect x="642" y="294" class="st5" width="36" height="36"/>
	<path class="st1" d="M666,396.5h-90c-13.5,0-24.5-11-24.5-24.5s11-24.5,24.5-24.5h90c13.5,0,24.5,11,24.5,24.5
		S679.5,396.5,666,396.5z M576,348.5c-13,0-23.5,10.5-23.5,23.5s10.5,23.5,23.5,23.5h90c13,0,23.5-10.5,23.5-23.5
		S679,348.5,666,348.5H576z"/>
	<path class="st7" d="M577.3,368.5v-1.6l7.3-2.9l0.3,1.4l-6.2,2.4l4,4l1.9,1.9c0.5,0.5,1,0.9,1.4,1.3c0.3,0.3,0.6,0.6,1,0.8
		c0.2,0.2,0.5,0.3,0.7,0.4c0.2,0.1,0.4,0.1,0.6,0.2c0.2,0,0.4,0,0.7,0c0.2,0,0.3,0.1,0.4,0.2c0.1,0.2,0.1,0.4,0.1,0.6
		c0,0.2,0,0.4-0.1,0.6c-0.1,0.1-0.2,0.2-0.4,0.2c-0.4,0-0.7,0-1.1-0.1c-0.4-0.1-0.7-0.2-1-0.4c-0.4-0.2-0.8-0.5-1.1-0.8
		c-0.4-0.4-0.9-0.8-1.5-1.4c0.1,0.4,0,0.8-0.1,1.2c-0.1,0.3-0.3,0.6-0.6,0.9c-0.3,0.2-0.6,0.4-1,0.5c-0.4,0.1-0.8,0.2-1.2,0.2H573
		c-0.5,0-1.1-0.1-1.5-0.3c-0.4-0.2-0.8-0.4-1.1-0.7c-0.3-0.3-0.5-0.7-0.6-1.1c-0.1-0.4-0.2-0.9-0.2-1.3v-3h1.4v2.6
		c0,0.6,0.2,1.2,0.5,1.6c0.5,0.4,1.1,0.7,1.8,0.6h7.9c0.5,0.1,1-0.1,1.4-0.4c0.2-0.3,0.4-0.6,0.4-1c0-0.3-0.1-0.6-0.1-0.8
		c-0.2-0.4-0.4-0.8-0.7-1.1L577.3,368.5z M577.2,363.9l6.6-2.7l0.3,1.1l-6.8,2.7L577.2,363.9z"/>
	<path class="st7" d="M590.6,376.5c0.5,0,1-0.2,1.4-0.5c0.3-0.3,0.5-0.8,0.5-1.3v-3h1.4v3c0,0.3,0,0.6,0.2,0.8
		c0.1,0.2,0.2,0.4,0.4,0.5c0.2,0.1,0.4,0.2,0.6,0.3c0.2,0.1,0.5,0.1,0.7,0.1h0.7c0.3,0,0.5,0.3,0.5,0.8c0,0.5-0.2,0.8-0.5,0.8h-0.7
		c-0.5,0-1-0.1-1.5-0.3c-0.5-0.2-0.9-0.6-1.1-1.1c-0.3,0.5-0.7,0.9-1.1,1.1c-0.4,0.2-0.9,0.3-1.4,0.3H589c-0.2,0-0.3-0.1-0.4-0.2
		c-0.1-0.2-0.1-0.4-0.1-0.5c0-0.2,0-0.4,0.1-0.6c0.1-0.1,0.2-0.2,0.4-0.2H590.6z M594,368.9h-1.8v-1.6h1.9L594,368.9z"/>
	<path class="st7" d="M598.2,376.5c0.5,0,1-0.1,1.4-0.5c0.3-0.3,0.5-0.8,0.5-1.3v-3h1.4v3c0,0.3,0,0.6,0.2,0.8
		c0.1,0.2,0.3,0.4,0.4,0.5c0.2,0.1,0.4,0.2,0.6,0.3c0.2,0.1,0.5,0.1,0.7,0.1h0.7c0.3,0,0.5,0.3,0.5,0.8s-0.2,0.8-0.5,0.8h-0.7
		c-0.5,0-1-0.1-1.5-0.3c-0.5-0.2-0.9-0.6-1.1-1.1c-0.3,0.5-0.7,0.9-1.2,1.1c-0.4,0.2-0.9,0.3-1.4,0.3h-1.7c-0.2,0-0.3-0.1-0.4-0.2
		c-0.1-0.2-0.1-0.4-0.1-0.5c0-0.2,0-0.4,0.1-0.6c0.1-0.1,0.2-0.2,0.4-0.2L598.2,376.5z M599.6,382.1h-1.7v-1.6h1.7V382.1z
		 M602.4,382.1h-1.7v-1.6h1.7V382.1z"/>
	<path class="st7" d="M609.8,376.5c0.5,0.1,1-0.1,1.4-0.4c0.3-0.3,0.4-0.6,0.4-1c0-0.3,0-0.6-0.1-0.8c-0.2-0.4-0.4-0.8-0.7-1.1
		l-4.8-4.7v-1.6l7.3-2.9l0.4,1.4l-6.3,2.4l4,4c0.3,0.4,0.6,0.7,0.9,1c0.2,0.3,0.4,0.5,0.5,0.8c0.1,0.2,0.2,0.5,0.3,0.8
		c0,0.3,0.1,0.5,0.1,0.8c0,0.4-0.1,0.8-0.2,1.2c-0.1,0.3-0.4,0.6-0.7,0.9c-0.3,0.2-0.6,0.4-1,0.5c-0.4,0.1-0.8,0.2-1.3,0.2h-6
		c-0.2,0-0.3-0.1-0.4-0.2c-0.1-0.2-0.1-0.4-0.1-0.5c0-0.2,0-0.4,0.1-0.6c0.1-0.1,0.2-0.2,0.4-0.2H609.8z"/>
	<path class="st7" d="M617.2,380c-0.2,0.7-0.6,1.3-1.1,1.8c-0.5,0.5-1,0.9-1.7,1.2c-0.7,0.3-1.4,0.4-2.1,0.4h-1.3l-0.1-1.5h1
		c0.6,0,1.3-0.1,1.9-0.4c0.5-0.2,0.9-0.5,1.3-0.9c0.3-0.4,0.6-0.8,0.7-1.3c0.2-0.5,0.3-1,0.3-1.6v-5.9h1.4v5.9
		C617.6,378.5,617.5,379.3,617.2,380z"/>
	<path class="st7" d="M622.8,378c-0.4,0-0.7-0.1-1.1-0.2c-0.4-0.1-0.7-0.3-0.9-0.6c-0.3-0.3-0.5-0.6-0.7-1c-0.2-0.5-0.3-1.1-0.3-1.6
		v-10.3h1.4v10c0,0.5,0.1,1.1,0.4,1.5c0.3,0.4,0.8,0.6,1.3,0.6h0.4c0.3,0,0.5,0.3,0.5,0.8c0,0.5-0.2,0.8-0.5,0.8L622.8,378z"/>
	<path class="st7" d="M625.5,376.5c0.5,0,1-0.1,1.4-0.5c0.4-0.3,0.5-0.8,0.5-1.3v-3h1.4v3c0.1,0.9-0.3,1.8-0.9,2.4
		c-0.6,0.6-1.5,0.9-2.4,0.9h-2.1c-0.2,0-0.3-0.1-0.4-0.2c-0.1-0.2-0.1-0.4-0.1-0.5c0-0.2,0-0.4,0.1-0.6c0.1-0.1,0.2-0.2,0.4-0.2
		L625.5,376.5z M625.5,382.1h-1.8v-1.6h1.8V382.1z M626.9,384.8h-1.8v-1.6h1.8V384.8z M628.2,382.1h-1.7v-1.6h1.8L628.2,382.1z"/>
	<path class="st7" d="M675.2,358.5v27h-3v-24h-27v-3H675.2z M667.8,369h2.8v3h-1.5v13.5h-3v-3h-16.5v3h-3V372h-1.5v-3h2.8l2.3-4.5
		h15.3L667.8,369z M649.8,372H666l-2.3-4.5h-11.7L649.8,372z M649.7,379.5h16.5V375h-1.5v3h-3v-3h-7.5v3h-3v-3h-1.5V379.5z"/>
	<rect x="642.2" y="354" class="st5" width="36" height="36"/>
	<path class="st1" d="M402,336.5H270c-13.5,0-24.5-11-24.5-24.5s11-24.5,24.5-24.5h132c13.5,0,24.5,11,24.5,24.5
		S415.5,336.5,402,336.5z M270,288.5c-13,0-23.5,10.5-23.5,23.5s10.5,23.5,23.5,23.5h132c13,0,23.5-10.5,23.5-23.5
		S415,288.5,402,288.5H270z"/>
	<path class="st7" d="M270.4,321.8c0.6,0,1.3-0.1,1.9-0.2c0.4-0.1,0.9-0.3,1.3-0.6c0.6-0.4,0.9-1,0.9-1.7c0-0.3-0.1-0.6-0.3-0.9
		c-0.2-0.3-0.6-0.4-0.9-0.4h-3.7l0.1-1.5h7.8c0.3,0,0.5,0.3,0.5,0.8s-0.2,0.8-0.5,0.8h-2.1c0.2,0.2,0.3,0.4,0.4,0.6
		c0.1,0.3,0.1,0.5,0.1,0.8c0,0.4-0.1,0.9-0.3,1.3c-0.2,0.5-0.5,0.9-0.9,1.3c-0.5,0.4-1,0.8-1.6,1c-0.8,0.3-1.6,0.4-2.5,0.4h-2.2
		c-1.4,0.1-2.8-0.5-3.8-1.5c-1-1.2-1.4-2.7-1.4-4.2v-3.9h1.4v3.8c0,0.6,0.1,1.2,0.2,1.7c0.3,1,1,1.8,2,2.2c0.6,0.2,1.2,0.3,1.8,0.3
		H270.4z"/>
	<path class="st7" d="M283.3,316.5c0.5,0.1,1-0.1,1.4-0.4c0.3-0.3,0.4-0.6,0.4-1c0-0.3,0-0.6-0.1-0.8c-0.2-0.4-0.4-0.8-0.7-1.1
		l-4.8-4.7v-1.6l7.3-2.9l0.4,1.4l-6.3,2.4l4,4c0.7,0.8,1.4,1.4,1.9,1.9s1,0.9,1.4,1.3c0.3,0.3,0.6,0.6,1,0.8
		c0.2,0.2,0.5,0.3,0.7,0.4c0.2,0.1,0.4,0.1,0.6,0.2c0.2,0,0.4,0,0.7,0s0.5,0.3,0.5,0.8s-0.2,0.8-0.5,0.8c-0.4,0-0.8,0-1.1-0.1
		c-0.4-0.1-0.7-0.2-1-0.4c-0.4-0.2-0.8-0.5-1.1-0.8c-0.4-0.4-0.9-0.8-1.5-1.4c0.1,0.4,0,0.8-0.1,1.2c-0.1,0.3-0.3,0.6-0.6,0.9
		c-0.3,0.2-0.6,0.4-1,0.5c-0.4,0.1-0.8,0.2-1.2,0.2h-5.9c-0.2,0-0.3-0.1-0.4-0.2c-0.1-0.2-0.1-0.4-0.1-0.5c0-0.2,0-0.4,0.1-0.6
		c0.1-0.1,0.2-0.2,0.4-0.2L283.3,316.5z M279.4,303.9l6.6-2.7l0.3,1.1l-6.8,2.7L279.4,303.9z"/>
	<path class="st7" d="M293.1,316.5c0.5,0,1-0.1,1.4-0.5c0.3-0.3,0.5-0.8,0.5-1.3v-3h1.4v3c0.1,1.7-1.1,3.1-2.7,3.3
		c-0.2,0-0.3,0-0.5,0h-2.1c-0.2,0-0.3-0.1-0.4-0.2c-0.1-0.2-0.1-0.4-0.1-0.5c0-0.2,0-0.4,0.1-0.6c0.1-0.1,0.2-0.2,0.4-0.2
		L293.1,316.5z M295.8,308.9H294v-1.6h1.9L295.8,308.9z"/>
	<path class="st7" d="M301.9,318c-0.4,0-0.7-0.1-1.1-0.2c-0.4-0.1-0.7-0.3-0.9-0.6c-0.3-0.3-0.5-0.6-0.6-1c-0.2-0.5-0.3-1.1-0.2-1.6
		v-10.3h1.4v10c0,0.5,0.1,1.1,0.4,1.5c0.3,0.4,0.8,0.6,1.3,0.6h0.4c0.3,0,0.5,0.3,0.5,0.8c0,0.5-0.2,0.8-0.5,0.8L301.9,318z"/>
	<path class="st7" d="M308.9,316.7c-0.4,0.2-0.8,0.4-1.1,0.6c-0.4,0.2-0.8,0.3-1.1,0.4c-0.4,0.1-0.9,0.2-1.4,0.2
		c-0.6,0.1-1.1,0.1-1.7,0.1h-1.1c-0.2,0-0.3-0.1-0.4-0.2c-0.1-0.2-0.1-0.4-0.1-0.5c0-0.2,0-0.4,0.1-0.6c0.1-0.1,0.2-0.2,0.4-0.2h1.1
		c0.6,0,1.1,0,1.5,0c0.4,0,0.8-0.1,1.2-0.2c0.3-0.1,0.7-0.2,1-0.3c0.3-0.1,0.7-0.3,1-0.5l3.7-2.2c-0.1-0.3-0.2-0.6-0.4-0.9
		c-0.1-0.2-0.3-0.5-0.5-0.6c-0.2-0.2-0.5-0.3-0.7-0.4c-0.4-0.1-0.7-0.2-1.1-0.1h-4.9l0.1-1.5h5c0.4,0,0.8,0,1.2,0.1
		c0.4,0.1,0.8,0.3,1.1,0.6c0.4,0.4,0.7,0.8,1,1.3c0.4,0.7,0.6,1.5,0.8,2.2L308.9,316.7z M309,307.2h-1.9v-1.6h1.9L309,307.2z"/>
	<path class="st7" d="M330.1,317.6c0,0.8-0.1,1.5-0.4,2.2c-0.2,0.7-0.6,1.3-1.1,1.8c-1,1.1-2.5,1.7-4,1.7h-1.3
		c-1.4,0.1-2.8-0.5-3.8-1.5c-1-1.2-1.5-2.7-1.4-4.2v-3.9h1.4v3.8c0,0.6,0.1,1.2,0.2,1.7c0.1,0.5,0.4,0.9,0.7,1.3
		c0.3,0.4,0.8,0.7,1.2,0.9c0.6,0.2,1.2,0.3,1.8,0.3h1c0.6,0,1.2-0.1,1.8-0.3c0.5-0.2,0.9-0.5,1.3-0.9c0.4-0.4,0.6-0.8,0.8-1.3
		c0.2-0.5,0.3-1.1,0.3-1.6v-5.9h1.4L330.1,317.6z M324.8,311.2h-1.9v-1.6h1.9V311.2z"/>
	<path class="st7" d="M332.7,304.4h1.4V318h-1.4V304.4z"/>
	<path class="st7" d="M338.7,321.8c0.6,0,1.2-0.1,1.7-0.3c0.5-0.2,0.9-0.5,1.3-0.8c0.3-0.4,0.6-0.8,0.8-1.2c0.2-0.5,0.3-1,0.3-1.5
		h-2.2c-0.6,0-1.2-0.1-1.8-0.2c-0.4-0.1-0.8-0.4-1.1-0.7c-0.3-0.3-0.5-0.7-0.6-1.1c-0.1-0.5-0.2-1-0.2-1.5c0-0.5,0.1-1.1,0.3-1.6
		c0.1-0.5,0.4-0.9,0.7-1.3c0.3-0.4,0.7-0.7,1.2-0.9c0.5-0.2,1-0.3,1.6-0.3c0.5,0,0.9,0.1,1.4,0.2c0.4,0.2,0.8,0.4,1.2,0.8
		c0.4,0.4,0.6,0.8,0.8,1.3c0.2,0.6,0.3,1.3,0.3,2v1.8h2.1c0.2,0,0.3,0.1,0.4,0.2c0.1,0.2,0.1,0.4,0.1,0.6c0,0.2,0,0.4-0.1,0.6
		c-0.1,0.1-0.2,0.2-0.4,0.2h-2.1c0,0.7-0.2,1.4-0.4,2c-0.2,0.6-0.6,1.2-1.1,1.7c-1,1-2.3,1.6-3.8,1.6h-2.3l-0.1-1.5L338.7,321.8z
		 M338.2,314.4c0,0.3,0,0.6,0.1,1c0.1,0.3,0.2,0.5,0.4,0.6c0.2,0.2,0.5,0.3,0.8,0.4c0.4,0.1,0.9,0.1,1.3,0.1h2v-1.6
		c0.1-0.8-0.2-1.7-0.6-2.3c-0.5-0.5-1.1-0.7-1.8-0.7c-0.6,0-1.2,0.2-1.6,0.7C338.3,313,338.1,313.7,338.2,314.4L338.2,314.4z"/>
	<path class="st7" d="M347.9,316.5c0.5,0,1-0.1,1.4-0.5c0.3-0.3,0.5-0.8,0.5-1.3v-3h1.4v3c0,0.3,0,0.6,0.2,0.8
		c0.1,0.2,0.3,0.4,0.4,0.5c0.2,0.1,0.4,0.2,0.6,0.3c0.2,0.1,0.5,0.1,0.7,0.1h0.7c0.3,0,0.5,0.3,0.5,0.8s-0.2,0.8-0.5,0.8h-0.7
		c-0.5,0-1-0.1-1.5-0.3c-0.5-0.2-0.9-0.6-1.1-1.1c-0.3,0.5-0.7,0.9-1.2,1.1c-0.4,0.2-0.9,0.3-1.4,0.3h-1.7c-0.2,0-0.3-0.1-0.4-0.2
		c-0.1-0.2-0.1-0.4-0.1-0.5c0-0.2,0-0.4,0.1-0.6c0.1-0.1,0.2-0.2,0.4-0.2L347.9,316.5z M349.3,322.1h-1.7v-1.6h1.7V322.1z
		 M352.2,322.1h-1.7v-1.6h1.7V322.1z"/>
	<path class="st7" d="M360.1,316.7c-0.4,0.2-0.8,0.4-1.1,0.6c-0.4,0.2-0.8,0.3-1.1,0.4c-0.4,0.1-0.9,0.2-1.4,0.2
		c-0.6,0.1-1.1,0.1-1.7,0.1h-1.1c-0.2,0-0.3-0.1-0.4-0.2c-0.1-0.2-0.1-0.4-0.1-0.5c0-0.2,0-0.4,0.1-0.6c0.1-0.1,0.2-0.2,0.4-0.2h1.1
		c0.6,0,1.1,0,1.5,0c0.4,0,0.8-0.1,1.2-0.2c0.3-0.1,0.7-0.2,1-0.3c0.3-0.1,0.7-0.3,1-0.5l3.7-2.2c-0.1-0.3-0.2-0.6-0.4-0.9
		c-0.1-0.2-0.3-0.5-0.5-0.6c-0.2-0.2-0.5-0.3-0.7-0.4c-0.4-0.1-0.7-0.2-1.1-0.1h-4.9l0.1-1.5h5c0.4,0,0.8,0,1.2,0.1
		c0.4,0.1,0.8,0.3,1.1,0.6c0.4,0.4,0.8,0.8,1,1.3c0.4,0.7,0.6,1.5,0.8,2.2L360.1,316.7z"/>
	<path class="st7" d="M406.5,300l-2.1-2.1l-2.4,2.4l-1.1,1.1l-6.2,6.2h-10.1l-2.6-2.6l-2.1,2.1l2.6,2.6v6.9L381,318v6h3v-4.8
		l1.2-1.2h12.3v6h3v-9.3l1.5-1.5l1.8,1.8h4l4.5-4.5l-8.1-8.1L406.5,300z M406.5,312H405l-3-3l-4.5,4.5v1.5h-12v-4.5H396l6-6l6,6
		L406.5,312z"/>
	<rect x="378" y="294" class="st5" width="36" height="36"/>
	<path class="st1" d="M534,336.5h-72c-13.5,0-24.5-11-24.5-24.5s11-24.5,24.5-24.5h72c13.5,0,24.5,11,24.5,24.5
		S547.5,336.5,534,336.5z M462,288.5c-13,0-23.5,10.5-23.5,23.5s10.5,23.5,23.5,23.5h72c13,0,23.5-10.5,23.5-23.5
		S547,288.5,534,288.5H462z"/>
	<path class="st7" d="M469.4,318c-0.4,0-0.7-0.1-1-0.2c-0.3-0.1-0.6-0.4-0.9-0.7v0.5c0,0.7-0.1,1.5-0.4,2.2
		c-0.2,0.7-0.6,1.3-1.1,1.8c-0.5,0.5-1,0.9-1.7,1.2c-0.7,0.3-1.5,0.5-2.2,0.5h-1.3c-1.4,0.1-2.8-0.5-3.8-1.5c-1-1.2-1.4-2.7-1.4-4.2
		v-3.9h1.4v3.8c0,0.6,0.1,1.2,0.2,1.7c0.1,0.5,0.4,0.9,0.7,1.3c0.3,0.4,0.8,0.7,1.2,0.9c0.6,0.2,1.2,0.3,1.8,0.3h1
		c0.6,0,1.2-0.1,1.8-0.3c0.5-0.2,0.9-0.5,1.3-0.9c0.3-0.4,0.6-0.8,0.8-1.3c0.2-0.5,0.3-1.1,0.3-1.6v-5.9h1.4v3.1
		c0,0.4,0.1,0.9,0.5,1.2c0.4,0.3,0.9,0.5,1.4,0.5h0.2c0.3,0,0.5,0.3,0.5,0.8c0,0.5-0.2,0.8-0.5,0.8L469.4,318z M462.2,311.2h-1.9
		v-1.6h1.9V311.2z"/>
	<path class="st7" d="M475.4,316.5c0.5,0.1,1-0.1,1.4-0.4c0.3-0.3,0.4-0.6,0.4-1c0-0.3-0.1-0.6-0.1-0.8c-0.1-0.4-0.4-0.8-0.7-1.1
		l-4.8-4.7v-1.6l7.3-2.9l0.4,1.4l-6.2,2.5l4,4c0.7,0.8,1.4,1.4,1.9,1.9s1,0.9,1.4,1.3c0.3,0.3,0.7,0.6,1,0.8
		c0.2,0.2,0.5,0.3,0.7,0.4c0.2,0.1,0.4,0.1,0.6,0.2c0.2,0,0.4,0,0.7,0s0.5,0.3,0.5,0.8s-0.2,0.8-0.5,0.8c-0.4,0-0.8,0-1.1-0.1
		c-0.4-0.1-0.7-0.2-1-0.4c-0.4-0.2-0.8-0.5-1.1-0.8c-0.4-0.4-0.9-0.8-1.5-1.4c0,0.4,0,0.8-0.1,1.2c-0.1,0.3-0.3,0.6-0.6,0.9
		c-0.3,0.2-0.6,0.4-1,0.5c-0.4,0.1-0.8,0.2-1.2,0.2h-5.9c-0.2,0-0.3-0.1-0.4-0.2c-0.1-0.2-0.1-0.4-0.1-0.5c0-0.2,0-0.4,0.1-0.6
		c0.1-0.1,0.2-0.2,0.4-0.2L475.4,316.5z"/>
	<path class="st7" d="M483.8,316.5c0.5,0,1-0.1,1.4-0.5c0.3-0.3,0.5-0.8,0.5-1.3v-10.4h1.4v10.4c0.1,1.7-1.1,3.1-2.7,3.3
		c-0.2,0-0.3,0-0.5,0h-0.7c-0.2,0-0.3,0-0.4-0.2c-0.1-0.2-0.1-0.4-0.1-0.5c0-0.2,0-0.4,0.1-0.6c0.1-0.1,0.2-0.2,0.4-0.2H483.8z"/>
	<path class="st7" d="M490.9,318c-0.4,0-0.7-0.1-1.1-0.2c-0.4-0.1-0.7-0.3-0.9-0.6c-0.3-0.3-0.5-0.6-0.6-1c-0.2-0.5-0.3-1.1-0.3-1.6
		v-10.3h1.4v10c0,0.5,0.1,1.1,0.4,1.5c0.3,0.4,0.8,0.6,1.3,0.6h0.4c0.3,0,0.5,0.3,0.5,0.8c0,0.5-0.2,0.8-0.5,0.8L490.9,318z"/>
	<path class="st7" d="M493.5,316.5c0.5,0,1-0.1,1.4-0.5c0.4-0.3,0.5-0.8,0.5-1.3v-3h1.4v3c0.1,0.9-0.3,1.8-0.9,2.4
		c-0.6,0.6-1.5,0.9-2.4,0.9h-2.1c-0.2,0-0.3-0.1-0.4-0.2c-0.1-0.2-0.1-0.4-0.1-0.5c0-0.2,0-0.4,0.1-0.6c0.1-0.1,0.2-0.2,0.4-0.2
		L493.5,316.5z M494.3,322.2h-1.9v-1.6h1.9V322.2z"/>
	<path class="st7" d="M537,297h-18v18h-3v3h1.5v6H516v3h24v-3h-1.5v-6h1.5v-3h-3V297z M534,315h-4.5v-3h1.5v-3h-1.5v-9h4.5V315z
		 M529.5,318v6h-3v-6H529.5z M522,300h4.5v15H522V300z M520.5,318h3v6h-3V318z M532.5,324v-6h3v6H532.5z"/>
	<rect x="510" y="294" class="st5" width="36" height="36"/>
	<path class="st1" d="M516,396.5H384c-13.5,0-24.5-11-24.5-24.5s11-24.5,24.5-24.5h132c13.5,0,24.5,11,24.5,24.5
		S529.5,396.5,516,396.5z M384,348.5c-13,0-23.5,10.5-23.5,23.5s10.5,23.5,23.5,23.5h132c13,0,23.5-10.5,23.5-23.5
		S529,348.5,516,348.5H384z"/>
	<path class="st7" d="M387.5,372.8c0.3,0.4,0.6,0.8,0.8,1.3c0.2,0.4,0.2,0.8,0.3,1.2c0,0.8-0.3,1.5-0.9,2c-0.7,0.6-1.5,0.8-2.4,0.8
		h-6.1l-0.1-1.5h6.1c0.5,0,0.9-0.1,1.3-0.4c0.3-0.2,0.5-0.6,0.5-1c0-0.2-0.1-0.5-0.1-0.7c-0.1-0.3-0.3-0.5-0.5-0.7l-4.1-4.6l1.1-1.1
		L387.5,372.8z"/>
	<path class="st7" d="M393.3,377.6c0,0.8-0.1,1.6-0.4,2.3c-0.2,0.7-0.6,1.3-1.1,1.8c-0.5,0.5-1,0.9-1.6,1.2
		c-0.7,0.3-1.4,0.4-2.1,0.4h-1.3l-0.1-1.5h1.1c0.6,0,1.3-0.1,1.9-0.4c0.5-0.2,0.9-0.5,1.3-0.9c0.3-0.4,0.6-0.8,0.7-1.3
		c0.2-0.5,0.3-1,0.3-1.6v-5.9h1.4v3.1c0,0.5,0.2,0.9,0.5,1.2c0.4,0.3,0.9,0.5,1.4,0.5h0.2c0.3,0,0.5,0.3,0.5,0.8
		c0,0.5-0.2,0.8-0.5,0.8h-0.2c-0.4,0-0.7-0.1-1-0.2c-0.3-0.1-0.6-0.4-0.9-0.7V377.6z"/>
	<path class="st7" d="M405,374.9c0.2,0.5,0.5,0.9,0.9,1.3c0.4,0.3,0.8,0.4,1.3,0.4h1.5c0.2,0,0.3,0.1,0.4,0.2
		c0.1,0.2,0.1,0.4,0.1,0.6c0,0.2,0,0.4-0.1,0.6c-0.1,0.1-0.2,0.2-0.4,0.2H407c-0.4,0-0.8-0.1-1.2-0.2c-0.3-0.1-0.6-0.3-0.8-0.5
		c-0.2-0.2-0.4-0.5-0.6-0.8c-0.2-0.3-0.3-0.7-0.4-1l-2.1,1.3c-0.4,0.2-0.7,0.4-1.1,0.6c-0.4,0.2-0.8,0.3-1.1,0.4
		c-0.4,0.1-0.9,0.2-1.4,0.2c-0.6,0.1-1.1,0.1-1.7,0.1h-1.1c-0.2,0-0.3-0.1-0.4-0.2c-0.1-0.2-0.1-0.4-0.1-0.5c0-0.2,0-0.4,0.1-0.6
		c0.1-0.1,0.2-0.2,0.4-0.2h1.1c0.6,0,1.1,0,1.5,0c0.4,0,0.8-0.1,1.2-0.2c0.3-0.1,0.7-0.2,1-0.3c0.3-0.1,0.7-0.3,1-0.5l3.7-2.2
		c-0.1-0.3-0.3-0.6-0.4-0.9c-0.1-0.2-0.3-0.5-0.5-0.6c-0.2-0.2-0.5-0.3-0.7-0.4c-0.4-0.1-0.7-0.2-1.1-0.1h-4.9l0.1-1.5h5
		c0.4,0,0.8,0,1.2,0.1c0.4,0.1,0.8,0.3,1.1,0.6c0.4,0.4,0.7,0.8,1,1.3c0.4,0.7,0.6,1.5,0.8,2.2L405,374.9z M401.8,382.2h-1.9v-1.6
		h1.9V382.2z"/>
	<path class="st7" d="M408.9,376.5c0.5,0,0.9-0.1,1.3-0.4c0.3-0.3,0.5-0.7,0.4-1.1v-0.8c-0.1-1.1,0.3-2.2,1-3
		c0.7-0.7,1.7-1.1,2.7-1.1c0.5,0,1.1,0.1,1.6,0.3c0.4,0.2,0.8,0.5,1.1,0.8c0.3,0.4,0.5,0.8,0.7,1.3c0.2,0.5,0.2,1.1,0.2,1.6
		c0.1,1.1-0.3,2.1-1,2.9c-0.7,0.7-1.7,1.1-2.7,1.1c-0.6,0-1.2-0.1-1.7-0.3c-0.6-0.2-1-0.7-1.3-1.2c-0.1,0.3-0.3,0.6-0.5,0.8
		c-0.2,0.2-0.4,0.4-0.6,0.5c-0.2,0.1-0.4,0.2-0.6,0.2c-0.2,0-0.4,0-0.6,0h-0.4c-0.2,0-0.3-0.1-0.4-0.2c-0.1-0.2-0.1-0.4-0.1-0.5
		c0-0.2,0-0.4,0.1-0.6c0.1-0.1,0.2-0.2,0.4-0.2H408.9z M416.6,374.1c0-0.7-0.1-1.3-0.5-1.9c-0.4-0.5-1.1-0.8-1.7-0.7
		c-1.5,0-2.3,0.9-2.3,2.7c0,0.6,0.2,1.2,0.6,1.7c0.4,0.4,1,0.6,1.6,0.6c0.6,0,1.2-0.2,1.7-0.6C416.4,375.4,416.6,374.8,416.6,374.1
		L416.6,374.1z"/>
	<path class="st7" d="M431.3,374.4c0,0.5,0.1,1.1,0.4,1.5c0.3,0.4,0.8,0.6,1.4,0.6h0.4c0.2,0,0.3,0.1,0.4,0.2
		c0.1,0.2,0.1,0.4,0.1,0.6c0,0.2,0,0.4-0.1,0.6c-0.1,0.1-0.2,0.2-0.4,0.2H433c-0.6,0-1.2-0.1-1.8-0.4c-0.5-0.4-0.9-0.9-1-1.5
		c-0.2,0.2-0.4,0.4-0.6,0.5c-0.3,0.1-0.5,0.3-0.8,0.3c-0.3,0.1-0.6,0.1-0.9,0.2c-0.3,0-0.5,0-0.8,0c-0.9,0.1-1.8-0.2-2.5-0.8
		c-0.6-0.7-0.9-1.7-0.9-2.6c0-0.5,0.1-1.1,0.2-1.6c0.1-0.5,0.4-1,0.7-1.4c0.3-0.4,0.7-0.8,1.1-1c0.5-0.3,1.1-0.4,1.6-0.4h2.4v-1.5
		h1.4V374.4z M427.4,375.7c0.6,0,1.3-0.1,1.8-0.5c0.4-0.2,0.7-0.7,0.7-1.2v-3.3h-2.4c-0.7,0-1.3,0.2-1.8,0.8c-0.4,0.6-0.6,1.3-0.6,2
		c-0.1,0.6,0.1,1.2,0.6,1.7C426.2,375.5,426.8,375.7,427.4,375.7z"/>
	<path class="st7" d="M435.3,376.5c0.5,0,1-0.1,1.4-0.5c0.4-0.3,0.5-0.8,0.5-1.3v-3h1.4v3c0.1,0.9-0.3,1.8-0.9,2.4
		c-0.6,0.6-1.5,0.9-2.4,0.9h-2.1c-0.2,0-0.3-0.1-0.4-0.2c-0.1-0.2-0.1-0.4-0.1-0.5c0-0.2,0-0.4,0.1-0.6c0.1-0.1,0.2-0.2,0.4-0.2
		L435.3,376.5z M436.2,382.2h-1.9v-1.6h1.9V382.2z"/>
	<path class="st7" d="M444.4,374.6c0-0.4,0.1-0.8,0.2-1.3c0.1-0.4,0.3-0.8,0.5-1.2c0.3-0.5,0.6-0.9,0.9-1.3c0.4-0.4,0.8-0.9,1.4-1.5
		l-1-1l1-1c0.9,0.9,1.7,1.7,2.3,2.3c0.5,0.6,1,1.1,1.5,1.8c0.3,0.5,0.6,0.9,0.8,1.5c0.2,0.5,0.2,0.9,0.2,1.4c0,0.5-0.1,1-0.3,1.5
		c-0.2,0.4-0.5,0.8-0.9,1.1c-0.4,0.3-0.8,0.6-1.3,0.8c-0.5,0.2-1,0.3-1.6,0.3c-0.5,0-1.1-0.1-1.6-0.3c-0.4-0.2-0.8-0.4-1.2-0.7
		c-0.3-0.3-0.6-0.7-0.8-1.1C444.4,375.6,444.3,375.1,444.4,374.6z M450.7,374.3c0-0.3,0-0.6-0.1-0.8c-0.1-0.3-0.2-0.6-0.4-0.9
		c-0.2-0.4-0.5-0.7-0.8-1c-0.3-0.4-0.7-0.8-1.2-1.2c-0.5,0.5-1,1-1.3,1.4c-0.3,0.3-0.5,0.7-0.8,1c-0.2,0.3-0.3,0.5-0.4,0.8
		c-0.1,0.2-0.1,0.5-0.1,0.8c0,0.6,0.2,1.1,0.6,1.5c0.5,0.4,1.1,0.6,1.8,0.6c0.3,0,0.7-0.1,1-0.2c0.3-0.1,0.6-0.3,0.8-0.5
		c0.2-0.2,0.4-0.4,0.5-0.7C450.7,374.9,450.7,374.6,450.7,374.3z"/>
	<path class="st7" d="M456.6,380c-0.2,0.7-0.6,1.3-1.1,1.8c-0.5,0.5-1,0.9-1.7,1.2c-0.7,0.3-1.4,0.4-2.1,0.4h-1.3l-0.1-1.5h1.1
		c0.6,0,1.3-0.1,1.9-0.4c1-0.4,1.7-1.3,2-2.3c0.2-0.5,0.2-1,0.2-1.6v-5.9h1.4v5.9C457,378.5,456.8,379.3,456.6,380z"/>
	<path class="st7" d="M462.7,378c-0.4,0-0.7-0.1-1.1-0.2c-0.4-0.1-0.7-0.3-0.9-0.6c-0.3-0.3-0.5-0.6-0.6-1c-0.2-0.5-0.3-1.1-0.2-1.6
		v-10.3h1.4v10c0,0.5,0.1,1.1,0.4,1.5c0.3,0.4,0.8,0.6,1.3,0.6h0.4c0.3,0,0.5,0.3,0.5,0.8c0,0.5-0.2,0.8-0.5,0.8L462.7,378z"/>
	<path class="st7" d="M469.6,376.7c-0.4,0.2-0.8,0.4-1.1,0.6c-0.4,0.2-0.8,0.3-1.1,0.4c-0.4,0.1-0.9,0.2-1.4,0.2
		c-0.6,0.1-1.1,0.1-1.7,0.1h-1.1c-0.2,0-0.3-0.1-0.4-0.2c-0.1-0.2-0.1-0.4-0.1-0.5c0-0.2,0-0.4,0.1-0.6c0.1-0.1,0.2-0.2,0.4-0.2h1.1
		c0.6,0,1.1,0,1.5,0c0.4,0,0.8-0.1,1.2-0.2c0.3-0.1,0.7-0.2,1-0.3c0.3-0.1,0.7-0.3,1-0.5l3.7-2.2c-0.1-0.3-0.2-0.6-0.4-0.9
		c-0.1-0.2-0.3-0.5-0.5-0.6c-0.2-0.2-0.5-0.3-0.7-0.4c-0.4-0.1-0.7-0.2-1.1-0.1h-4.9l0.1-1.5h5c0.4,0,0.8,0,1.2,0.1
		c0.4,0.1,0.8,0.3,1.1,0.6c0.4,0.4,0.7,0.8,1,1.3c0.4,0.7,0.6,1.5,0.8,2.2L469.6,376.7z M469.6,382.2h-1.9v-1.6h1.9V382.2z"/>
	<path class="st7" d="M477,364.4h1.4V378H477V364.4z"/>
	<path class="st7" d="M517.2,372h-14.5l-3.3,3.3v10.1l10.5-2.5l10.5,2.5v-10.1L517.2,372z M517.5,381.6l-1.1-0.3l-0.7-2.9l-5.7,1.4
		l-5.7-1.4l-0.7,2.9l-1.1,0.3v-5.1l1.5-1.5h12l1.5,1.5V381.6z M510,370.5c3.3,0,6-2.7,6-6s-2.7-6-6-6s-6,2.7-6,6
		S506.7,370.5,510,370.5z M510,361.5c1.7,0,3,1.3,3,3s-1.3,3-3,3s-3-1.3-3-3S508.3,361.5,510,361.5z"/>
	<rect x="492" y="354" class="st5" width="36" height="36"/>
</g>
</svg>
