<svg xmlns="http://www.w3.org/2000/svg" viewBox="0 0 864 504"><defs><style>.cls-1{fill:#fff;}.cls-2{fill:#f5f1f0;}.cls-3{fill:#858282;}.cls-4{fill:none;}.cls-5{fill:#ff8672;}.cls-6{fill:#4c4b4b;}</style></defs><title>material-60</title><g id="Layer_1" data-name="Layer 1"><polyline class="cls-1" points="714 0 714 420 162 420 162 0"/><polygon class="cls-2" points="714.5 420.5 161.5 420.5 161.5 0 162.5 0 162.5 419.5 713.5 419.5 713.5 0 714.5 0 714.5 420.5"/><path class="cls-2" d="M666,300.5H594a24.5,24.5,0,0,1,0-49h72a24.5,24.5,0,0,1,0,49Zm-72-48a23.5,23.5,0,0,0,0,47h72a23.5,23.5,0,0,0,0-47Z"/><path class="cls-3" d="M595.13,285.83a5.91,5.91,0,0,0,1.72-.24,4.62,4.62,0,0,0,1.37-.68,3.3,3.3,0,0,0,.93-1,2.49,2.49,0,0,0,.34-1.24,1.53,1.53,0,0,0-.33-1,1.64,1.64,0,0,0-1.3-.41H594v-3.8a3.82,3.82,0,0,1,1-2.72,3.46,3.46,0,0,1,2.68-1.05h2.53l.11,1.52h-2.73a2.45,2.45,0,0,0-.8.14,2.27,2.27,0,0,0-.68.42,2.09,2.09,0,0,0-.48.68,2.25,2.25,0,0,0-.19,1v2.33h2.68a3.77,3.77,0,0,1,1.36.21,2.19,2.19,0,0,1,.85.57,2,2,0,0,1,.44.85,4.29,4.29,0,0,1,.13,1,4.4,4.4,0,0,1-.44,1.93,5.06,5.06,0,0,1-1.19,1.56,5.77,5.77,0,0,1-1.77,1.05,6.08,6.08,0,0,1-2.17.38h-1.87a4.89,4.89,0,0,1-3.83-1.51,6,6,0,0,1-1.36-4.16V277.8h1.4v3.8a5.77,5.77,0,0,0,.24,1.72,3.28,3.28,0,0,0,2,2.2,4.8,4.8,0,0,0,1.8.31Z"/><path class="cls-3" d="M600.3,285.83h.44a4.49,4.49,0,0,0,1.85-.35,3.66,3.66,0,0,0,1.26-.94,3.86,3.86,0,0,0,.74-1.33,5.09,5.09,0,0,0,.24-1.56v-5.94h1.43v5.94a6.38,6.38,0,0,1-.4,2.32,5.77,5.77,0,0,1-1.11,1.79,4.87,4.87,0,0,1-1.67,1.16,5.25,5.25,0,0,1-2.08.4h-.54Z"/><path class="cls-3" d="M611.39,282a3.67,3.67,0,0,1-1.1-.17,2.33,2.33,0,0,1-.94-.56,2.89,2.89,0,0,1-.65-1,4.69,4.69,0,0,1-.24-1.62V268.36h1.43v10a2.73,2.73,0,0,0,.41,1.53,1.48,1.48,0,0,0,1.33.6H612c.33,0,.49.25.49.75s-.16.77-.49.77Z"/><path class="cls-3" d="M613.68,280.48a1.94,1.94,0,0,0,1.4-.46,1.66,1.66,0,0,0,.49-1.28v-3H617v3a1.82,1.82,0,0,0,.16.82,1.66,1.66,0,0,0,.43.54,1.52,1.52,0,0,0,.6.29,2.54,2.54,0,0,0,.68.09h.66c.34,0,.5.25.5.75s-.16.77-.5.77h-.71a3.65,3.65,0,0,1-1.47-.3,2.36,2.36,0,0,1-1.12-1.13,2.71,2.71,0,0,1-1.16,1.13,3.28,3.28,0,0,1-1.39.3H612a.4.4,0,0,1-.38-.18,1.1,1.1,0,0,1-.1-.55,1.31,1.31,0,0,1,.1-.59.39.39,0,0,1,.38-.2Zm3,5.68h-1.85v-1.61h1.85Z"/><path class="cls-3" d="M621.51,280.48a2,2,0,0,0,1.37-.46,1.61,1.61,0,0,0,.52-1.28v-3h1.43v3a3.19,3.19,0,0,1-.87,2.41,3.22,3.22,0,0,1-2.36.85h-2.07a.41.41,0,0,1-.39-.18,1.22,1.22,0,0,1-.1-.55,1.46,1.46,0,0,1,.1-.59.41.41,0,0,1,.39-.2Zm2.73-7.59h-1.85v-1.6h1.85Z"/><path class="cls-3" d="M627,268.36h1.43V282H627Z"/><path class="cls-3" d="M673.5,270v12L660,289.5,646.5,282V270l13.5-7.5Zm-16.41-2.45L666,272.5l2.91-1.62L660,265.93Zm1.41,10.88-9-5v6.8l9,5Zm1.5-2.6,2.91-1.61-8.91-5-2.91,1.61Zm10.5-2.4-3,1.67V278l-3,1.67v-2.9l-3,1.66v6.8l9-5Z"/><rect class="cls-4" x="642" y="258" width="36" height="36"/><path class="cls-2" d="M666,239.77H576a24.5,24.5,0,0,1,0-49h90a24.5,24.5,0,0,1,0,49Zm-90-48a23.5,23.5,0,0,0,0,47h90a23.5,23.5,0,0,0,0-47Z"/><path class="cls-3" d="M577.27,211.74v-1.56l7.3-2.88.35,1.43-6.22,2.44,4,4c.75.75,1.38,1.38,1.91,1.89s1,.94,1.37,1.29a11.4,11.4,0,0,0,1,.8,4.19,4.19,0,0,0,.74.42,2.25,2.25,0,0,0,.63.16,4.55,4.55,0,0,0,.67,0,.39.39,0,0,1,.38.18,1.24,1.24,0,0,1,.1.57,1.26,1.26,0,0,1-.1.58.39.39,0,0,1-.38.19,5.35,5.35,0,0,1-1.11-.11,3.74,3.74,0,0,1-1-.42,8.64,8.64,0,0,1-1.14-.84q-.62-.53-1.47-1.38a2.71,2.71,0,0,1-.14,1.24,2.13,2.13,0,0,1-.62.85,2.69,2.69,0,0,1-1,.49,4.19,4.19,0,0,1-1.2.17h-8.38a4,4,0,0,1-1.55-.28,2.93,2.93,0,0,1-1.06-.74,2.73,2.73,0,0,1-.59-1.07,4.7,4.7,0,0,1-.19-1.3v-2.95h1.41v2.62a2.32,2.32,0,0,0,.52,1.6,2.22,2.22,0,0,0,1.77.6h7.94a1.84,1.84,0,0,0,1.37-.41,1.44,1.44,0,0,0,.37-1,2.94,2.94,0,0,0-.14-.83,2.84,2.84,0,0,0-.74-1.06Zm-.09-4.58,6.6-2.68.29,1.08-6.82,2.75Z"/><path class="cls-3" d="M590.62,219.75a2,2,0,0,0,1.41-.46,1.7,1.7,0,0,0,.48-1.28v-3h1.43v3a1.8,1.8,0,0,0,.17.81,1.54,1.54,0,0,0,.43.54,1.57,1.57,0,0,0,.59.3,2.59,2.59,0,0,0,.68.09h.66q.51,0,.51.75c0,.51-.17.77-.51.77h-.7a3.66,3.66,0,0,1-1.48-.3,2.45,2.45,0,0,1-1.12-1.13A2.75,2.75,0,0,1,592,221a3.29,3.29,0,0,1-1.4.3H589a.41.41,0,0,1-.39-.18,1.27,1.27,0,0,1-.09-.55,1.49,1.49,0,0,1,.09-.59.39.39,0,0,1,.39-.2Zm3.37-7.59h-1.85v-1.61H594Z"/><path class="cls-3" d="M598.15,219.75a2,2,0,0,0,1.4-.46A1.67,1.67,0,0,0,600,218v-3h1.43v3a1.8,1.8,0,0,0,.16.81,1.66,1.66,0,0,0,.43.54,1.69,1.69,0,0,0,.6.3,2.54,2.54,0,0,0,.68.09H604c.33,0,.5.25.5.75s-.17.77-.5.77h-.71a3.61,3.61,0,0,1-1.47-.3,2.36,2.36,0,0,1-1.12-1.13,2.83,2.83,0,0,1-1.16,1.13,3.28,3.28,0,0,1-1.39.3h-1.68a.39.39,0,0,1-.38-.18,1.12,1.12,0,0,1-.1-.55,1.31,1.31,0,0,1,.1-.59.37.37,0,0,1,.38-.2Zm1.4,5.63h-1.69v-1.56h1.69Zm2.86,0h-1.67v-1.56h1.67Z"/><path class="cls-3" d="M609.81,219.75a1.83,1.83,0,0,0,1.36-.41,1.39,1.39,0,0,0,.37-1,2.9,2.9,0,0,0-.13-.83,2.75,2.75,0,0,0-.72-1.06l-4.76-4.73v-1.56l7.28-2.88.38,1.43-6.25,2.44,4,4q.52.56.87,1a4.54,4.54,0,0,1,.54.84,3.08,3.08,0,0,1,.27.77,4.88,4.88,0,0,1,.06.79,3.05,3.05,0,0,1-.23,1.22,2.2,2.2,0,0,1-.65.85,2.87,2.87,0,0,1-1,.49,4.5,4.5,0,0,1-1.25.17H604a.41.41,0,0,1-.39-.18,1.25,1.25,0,0,1-.1-.55,1.46,1.46,0,0,1,.1-.59.39.39,0,0,1,.39-.2Z"/><path class="cls-3" d="M617.21,223.23a5.47,5.47,0,0,1-1.11,1.8,4.9,4.9,0,0,1-1.66,1.15,5.32,5.32,0,0,1-2.08.41h-1.3l-.11-1.5H612a4.56,4.56,0,0,0,1.89-.35,3.7,3.7,0,0,0,1.3-.93,4,4,0,0,0,.74-1.33,4.83,4.83,0,0,0,.25-1.57V215h1.4v5.94A6.35,6.35,0,0,1,617.21,223.23Z"/><path class="cls-3" d="M622.85,221.27a3.67,3.67,0,0,1-1.1-.17,2.35,2.35,0,0,1-.93-.56,2.61,2.61,0,0,1-.65-1,4.43,4.43,0,0,1-.25-1.61V207.63h1.43v10a2.68,2.68,0,0,0,.41,1.53,1.48,1.48,0,0,0,1.33.61h.38q.48,0,.48.75c0,.51-.16.77-.48.77Z"/><path class="cls-3" d="M625.45,219.75a2,2,0,0,0,1.37-.46,1.62,1.62,0,0,0,.52-1.28v-3h1.43v3a3.22,3.22,0,0,1-.87,2.41,3.27,3.27,0,0,1-2.37.85h-2.06a.41.41,0,0,1-.39-.18,1.25,1.25,0,0,1-.1-.55,1.46,1.46,0,0,1,.1-.59.39.39,0,0,1,.39-.2Zm0,5.63h-1.76v-1.56h1.76Zm1.41,2.64h-1.76v-1.56h1.76Zm1.38-2.64H626.5v-1.56h1.76Z"/><path class="cls-3" d="M675.18,201.77v27h-3v-24h-27v-3Zm-7.33,10.5h2.83v3h-1.5v13.5h-3v-3h-16.5v3h-3v-13.5h-1.5v-3H648l2.25-4.5H665.6Zm-18,3H666l-2.25-4.5H652.1Zm-.17,7.5h16.5v-4.5h-1.5v3h-3v-3h-7.5v3h-3v-3h-1.5Z"/><rect class="cls-4" x="642.18" y="197.27" width="36" height="36"/><path class="cls-2" d="M384,239.77H252a24.5,24.5,0,0,1,0-49H384a24.5,24.5,0,0,1,0,49Zm-132-48a23.5,23.5,0,0,0,0,47H384a23.5,23.5,0,0,0,0-47Z"/><path class="cls-3" d="M252.43,225.09a6.69,6.69,0,0,0,1.88-.22,3.82,3.82,0,0,0,1.25-.58,2.17,2.17,0,0,0,.69-.81,2.22,2.22,0,0,0,.21-.94,1.44,1.44,0,0,0-.28-.9,1.07,1.07,0,0,0-.93-.37h-3.68l.11-1.52h7.81c.33,0,.49.25.49.75s-.16.77-.49.77h-2.15a1.1,1.1,0,0,1,.38.59,2.75,2.75,0,0,1,.1.79,3.67,3.67,0,0,1-.25,1.28,3.41,3.41,0,0,1-.86,1.27,4.64,4.64,0,0,1-1.6,1,6.68,6.68,0,0,1-2.48.4h-2.2a4.9,4.9,0,0,1-3.83-1.52,6,6,0,0,1-1.36-4.16v-3.85h1.41v3.81a5.71,5.71,0,0,0,.23,1.71,3.47,3.47,0,0,0,.72,1.34,3.43,3.43,0,0,0,1.25.87,4.84,4.84,0,0,0,1.8.3Z"/><path class="cls-3" d="M265.3,219.75a1.84,1.84,0,0,0,1.37-.41,1.39,1.39,0,0,0,.37-1,2.9,2.9,0,0,0-.13-.83,2.62,2.62,0,0,0-.73-1.06l-4.75-4.73v-1.56l7.28-2.88.38,1.43-6.25,2.44,4,4c.73.75,1.37,1.38,1.9,1.89l1.38,1.29a11.4,11.4,0,0,0,1,.8,3.49,3.49,0,0,0,.72.42,2.25,2.25,0,0,0,.63.16,4.55,4.55,0,0,0,.67,0q.48,0,.48.75c0,.51-.16.77-.48.77a5.31,5.31,0,0,1-1.12-.11,3.82,3.82,0,0,1-1-.42,9.35,9.35,0,0,1-1.14-.84q-.61-.53-1.47-1.38a2.71,2.71,0,0,1-.14,1.24,2,2,0,0,1-.61.84,2.47,2.47,0,0,1-.95.5,4.4,4.4,0,0,1-1.23.17h-5.94a.4.4,0,0,1-.38-.18,1.12,1.12,0,0,1-.1-.55,1.31,1.31,0,0,1,.1-.59.37.37,0,0,1,.38-.2Zm-3.91-12.59,6.6-2.68.26,1.08-6.82,2.75Z"/><path class="cls-3" d="M275.07,219.75a2.05,2.05,0,0,0,1.38-.46A1.65,1.65,0,0,0,277,218v-3h1.43v3a3,3,0,0,1-3.23,3.26h-2.07a.39.39,0,0,1-.38-.18,1.12,1.12,0,0,1-.1-.55,1.31,1.31,0,0,1,.1-.59.37.37,0,0,1,.38-.2Zm2.73-7.59H276v-1.61h1.85Z"/><path class="cls-3" d="M283.91,221.27a3.72,3.72,0,0,1-1.1-.17,2.35,2.35,0,0,1-.93-.56,2.73,2.73,0,0,1-.65-1,4.67,4.67,0,0,1-.24-1.61V207.63h1.43v10a2.61,2.61,0,0,0,.41,1.53,1.47,1.47,0,0,0,1.33.61h.37q.48,0,.48.75c0,.51-.16.77-.48.77Z"/><path class="cls-3" d="M290.89,220c-.38.22-.75.41-1.1.58a6.49,6.49,0,0,1-1.15.41,10,10,0,0,1-1.35.23,16.61,16.61,0,0,1-1.68.08h-1.08a.39.39,0,0,1-.38-.18,1.12,1.12,0,0,1-.1-.55,1.31,1.31,0,0,1,.1-.59.37.37,0,0,1,.38-.2h1.1c.57,0,1.08,0,1.52-.06a8.4,8.4,0,0,0,1.21-.17,6.51,6.51,0,0,0,1-.32,6.67,6.67,0,0,0,1-.51l3.72-2.15a8.64,8.64,0,0,0-.37-.85,2.34,2.34,0,0,0-.5-.65,2,2,0,0,0-.74-.41,3.78,3.78,0,0,0-1.1-.14h-4.92l.13-1.52h5a6.09,6.09,0,0,1,1.18.13,2.89,2.89,0,0,1,1.14.56,4.42,4.42,0,0,1,1,1.27,8.6,8.6,0,0,1,.78,2.22Zm.09-9.48h-1.85v-1.61H291Z"/><path class="cls-3" d="M312.07,220.83a6.56,6.56,0,0,1-.37,2.23,5.46,5.46,0,0,1-1.08,1.82,5.14,5.14,0,0,1-4,1.71h-1.3a4.88,4.88,0,0,1-3.82-1.52,6,6,0,0,1-1.37-4.16v-3.85h1.41v3.81a6,6,0,0,0,.23,1.71,3.63,3.63,0,0,0,.73,1.34,3.39,3.39,0,0,0,1.24.87,4.84,4.84,0,0,0,1.8.3h1a4.43,4.43,0,0,0,1.81-.34,3.76,3.76,0,0,0,1.28-.91,3.65,3.65,0,0,0,.77-1.34,5.12,5.12,0,0,0,.26-1.61V215h1.4Zm-5.3-6.34h-1.85v-1.61h1.85Z"/><path class="cls-3" d="M314.67,207.63h1.43v13.64h-1.43Z"/><path class="cls-3" d="M320.7,225.09a4.49,4.49,0,0,0,1.7-.3,3.82,3.82,0,0,0,1.25-.84,3.77,3.77,0,0,0,.77-1.22,5.06,5.06,0,0,0,.3-1.46h-2.2a5.92,5.92,0,0,1-1.84-.25,2.42,2.42,0,0,1-1.73-1.81,5.91,5.91,0,0,1-.17-1.46,4.9,4.9,0,0,1,.25-1.59,4,4,0,0,1,.7-1.32,3.44,3.44,0,0,1,1.15-.91,3.58,3.58,0,0,1,1.6-.34,4.06,4.06,0,0,1,1.39.24,3,3,0,0,1,1.16.76,3.47,3.47,0,0,1,.8,1.34,5.83,5.83,0,0,1,.3,2v1.83h2.11a.39.39,0,0,1,.37.18,1.39,1.39,0,0,1,.1.57,1.41,1.41,0,0,1-.1.58.39.39,0,0,1-.37.19h-2.15a6.09,6.09,0,0,1-.43,2,5.33,5.33,0,0,1-1.07,1.7,5.17,5.17,0,0,1-1.63,1.15,5,5,0,0,1-2.13.43H318.5l-.13-1.5Zm-.55-7.43a3.25,3.25,0,0,0,.12.94,1.32,1.32,0,0,0,.42.65,1.81,1.81,0,0,0,.8.38,5.67,5.67,0,0,0,1.28.12h2V218.1a3.43,3.43,0,0,0-.64-2.33,2.26,2.26,0,0,0-1.76-.71,2,2,0,0,0-1.63.71A2.88,2.88,0,0,0,320.15,217.66Z"/><path class="cls-3" d="M329.92,219.75a2,2,0,0,0,1.4-.46,1.67,1.67,0,0,0,.49-1.28v-3h1.43v3a1.8,1.8,0,0,0,.16.81,1.66,1.66,0,0,0,.43.54,1.69,1.69,0,0,0,.6.3,2.54,2.54,0,0,0,.68.09h.66c.34,0,.5.25.5.75s-.16.77-.5.77h-.71a3.61,3.61,0,0,1-1.47-.3,2.38,2.38,0,0,1-1.12-1.14,2.74,2.74,0,0,1-1.16,1.14,3.28,3.28,0,0,1-1.39.3h-1.68a.39.39,0,0,1-.38-.18,1.12,1.12,0,0,1-.1-.55,1.31,1.31,0,0,1,.1-.59.37.37,0,0,1,.38-.2Zm1.4,5.63h-1.69v-1.56h1.69Zm2.86,0h-1.67v-1.56h1.67Z"/><path class="cls-3" d="M342.13,220c-.39.22-.75.41-1.1.58a6.79,6.79,0,0,1-1.15.41,10,10,0,0,1-1.35.23,16.61,16.61,0,0,1-1.68.08h-1.08a.41.41,0,0,1-.39-.18,1.25,1.25,0,0,1-.1-.55,1.46,1.46,0,0,1,.1-.59.39.39,0,0,1,.39-.2h1.1c.57,0,1.08,0,1.52-.06a8.4,8.4,0,0,0,1.21-.17,6.51,6.51,0,0,0,1-.32,6.67,6.67,0,0,0,1-.51l3.72-2.15a6.76,6.76,0,0,0-.38-.85,2.14,2.14,0,0,0-.49-.65,2,2,0,0,0-.74-.41,3.78,3.78,0,0,0-1.1-.14H337.7l.14-1.52h5a6.17,6.17,0,0,1,1.18.13,2.89,2.89,0,0,1,1.14.56,4.25,4.25,0,0,1,1,1.27,7.91,7.91,0,0,1,.78,2.22Z"/><path class="cls-3" d="M388.5,203.27l-2.12-2.13L384,203.52l-1.06,1.06-6.18,6.19H366.62l-2.56-2.57-2.12,2.13,2.56,2.56v6.88l-1.5,1.5v6h3v-4.76l1.24-1.24H379.5v6h3V218l1.5-1.5,1.76,1.76h4l4.5-4.5-8.12-8.13Zm0,12H387l-3-3-4.5,4.5v1.5h-12v-4.5H378l6-6,6,6Z"/><rect class="cls-4" x="360" y="197.27" width="36" height="36"/><path class="cls-2" d="M516,239.77H444a24.5,24.5,0,0,1,0-49h72a24.5,24.5,0,0,1,0,49Zm-72-48a23.5,23.5,0,0,0,0,47h72a23.5,23.5,0,0,0,0-47Z"/><path class="cls-3" d="M451.38,221.26a3,3,0,0,1-1.05-.19,2,2,0,0,1-.87-.68v.48a6.39,6.39,0,0,1-.37,2.2,5.56,5.56,0,0,1-1.07,1.81,5.13,5.13,0,0,1-1.68,1.25,5.22,5.22,0,0,1-2.24.46h-1.3a4.88,4.88,0,0,1-3.83-1.52,6,6,0,0,1-1.36-4.16v-3.85H439v3.81a6,6,0,0,0,.23,1.71,3.63,3.63,0,0,0,.73,1.34,3.25,3.25,0,0,0,1.24.86,4.66,4.66,0,0,0,1.81.31h1a4.38,4.38,0,0,0,1.8-.34,3.91,3.91,0,0,0,1.29-.91,3.79,3.79,0,0,0,.77-1.34,5.11,5.11,0,0,0,.25-1.61V215h1.41v3.1a1.56,1.56,0,0,0,.51,1.23,2,2,0,0,0,1.36.45h.24c.32,0,.48.25.48.74s-.16.77-.48.77Zm-7.17-6.77h-1.85v-1.61h1.85Z"/><path class="cls-3" d="M457.43,219.75a1.81,1.81,0,0,0,1.36-.41,1.4,1.4,0,0,0,.38-1,3.07,3.07,0,0,0-.14-.84,2.62,2.62,0,0,0-.72-1.05l-4.75-4.73v-1.56l7.28-2.89.37,1.43L455,211.17l4,4c.73.75,1.36,1.38,1.9,1.89s1,.94,1.37,1.29.71.61,1,.8a3.81,3.81,0,0,0,.73.42,2.27,2.27,0,0,0,.62.16,4.7,4.7,0,0,0,.68,0c.32,0,.48.25.48.74s-.16.77-.48.77a5.46,5.46,0,0,1-1.13-.1,4,4,0,0,1-1-.42,9.32,9.32,0,0,1-1.13-.84c-.41-.35-.9-.81-1.47-1.39a2.73,2.73,0,0,1-.15,1.25,2.08,2.08,0,0,1-.6.84,2.74,2.74,0,0,1-1,.5,4.29,4.29,0,0,1-1.22.16h-5.94a.41.41,0,0,1-.39-.17,1.27,1.27,0,0,1-.09-.55,1.45,1.45,0,0,1,.09-.59.39.39,0,0,1,.39-.2Z"/><path class="cls-3" d="M465.79,219.75a1.94,1.94,0,0,0,1.36-.47,1.61,1.61,0,0,0,.51-1.27V207.63h1.43V218a3,3,0,0,1-3.21,3.25h-.66a.4.4,0,0,1-.39-.17,1.12,1.12,0,0,1-.1-.55,1.28,1.28,0,0,1,.1-.59.38.38,0,0,1,.39-.2Z"/><path class="cls-3" d="M472.85,221.26a3.66,3.66,0,0,1-1.1-.16,2.45,2.45,0,0,1-.94-.56,2.79,2.79,0,0,1-.64-1,4.43,4.43,0,0,1-.25-1.61V207.63h1.43v10a2.68,2.68,0,0,0,.41,1.53,1.48,1.48,0,0,0,1.33.61h.38c.32,0,.48.25.48.74s-.16.77-.48.77Z"/><path class="cls-3" d="M475.45,219.75a2,2,0,0,0,1.37-.47,1.62,1.62,0,0,0,.52-1.27v-3h1.43v3a3.22,3.22,0,0,1-.87,2.41,3.27,3.27,0,0,1-2.37.84h-2.07a.39.39,0,0,1-.38-.17,1.12,1.12,0,0,1-.1-.55,1.28,1.28,0,0,1,.1-.59.37.37,0,0,1,.38-.2Zm.88,5.67h-1.85v-1.6h1.85Z"/><path class="cls-3" d="M519,200.26H501v18h-3v3h1.5v6H498v3h24v-3h-1.5v-6H522v-3h-3Zm-3,18h-4.5v-3H513v-3h-1.5v-9H516Zm-4.5,3v6h-3v-6Zm-7.5-18h4.5v15H504Zm-1.5,18h3v6h-3Zm12,6v-6h3v6Z"/><rect class="cls-4" x="492" y="197.26" width="36" height="36"/><path class="cls-2" d="M294,299.77H222a24.5,24.5,0,0,1,0-49h72a24.5,24.5,0,1,1,0,49Zm-72-48a23.5,23.5,0,0,0,0,47h72a23.5,23.5,0,1,0,0-47Z"/><path class="cls-3" d="M222.73,277.61a2.83,2.83,0,0,0,.38,1.54,1.47,1.47,0,0,0,1.36.6h.38a.38.38,0,0,1,.36.18,1.24,1.24,0,0,1,.1.57,1.26,1.26,0,0,1-.1.58.39.39,0,0,1-.36.19h-.38a3.48,3.48,0,0,1-1.76-.43,2.47,2.47,0,0,1-1-1.55,2.32,2.32,0,0,1-.65.55,4.09,4.09,0,0,1-.81.34,5.4,5.4,0,0,1-.86.16,8,8,0,0,1-.81.05,3.34,3.34,0,0,1-2.45-.84,3.57,3.57,0,0,1-.85-2.62,5.38,5.38,0,0,1,.24-1.59,4.26,4.26,0,0,1,.69-1.4,3.54,3.54,0,0,1,1.15-1,3.42,3.42,0,0,1,1.64-.37h2.38v-1.52h1.38Zm-3.87,1.32a3.14,3.14,0,0,0,1.82-.46,1.37,1.37,0,0,0,.67-1.16V274H219a2.15,2.15,0,0,0-1.76.75,3.12,3.12,0,0,0-.61,2,2.08,2.08,0,0,0,.57,1.69A2.6,2.6,0,0,0,218.86,278.93Z"/><path class="cls-3" d="M226.45,279.75a2,2,0,0,0,1.41-.46,1.7,1.7,0,0,0,.48-1.28v-3h1.43v3a1.8,1.8,0,0,0,.17.81,1.54,1.54,0,0,0,.43.54,1.57,1.57,0,0,0,.59.3,2.59,2.59,0,0,0,.68.09h.66q.51,0,.51.75c0,.51-.17.77-.51.77h-.7a3.58,3.58,0,0,1-1.47-.3,2.42,2.42,0,0,1-1.13-1.13,2.75,2.75,0,0,1-1.15,1.13,3.29,3.29,0,0,1-1.4.3h-1.67a.39.39,0,0,1-.38-.18,1.12,1.12,0,0,1-.1-.55,1.31,1.31,0,0,1,.1-.59.37.37,0,0,1,.38-.2Zm1.41,5.63h-1.69v-1.56h1.69Zm2.86,0h-1.67v-1.56h1.67Z"/><path class="cls-3" d="M232.88,279.75a1.94,1.94,0,0,0,1.39-.46,1.7,1.7,0,0,0,.48-1.28V267.63h1.43V278a1.8,1.8,0,0,0,.16.81,1.54,1.54,0,0,0,.43.54,1.65,1.65,0,0,0,.59.3,2.61,2.61,0,0,0,.69.09h.3a.41.41,0,0,1,.39.18,1.39,1.39,0,0,1,.1.57,1.41,1.41,0,0,1-.1.58.42.42,0,0,1-.39.19H238a3.58,3.58,0,0,1-1.47-.3,2.36,2.36,0,0,1-1.12-1.13,2.66,2.66,0,0,1-1.16,1.13,3.36,3.36,0,0,1-1.37.3h-.58a.39.39,0,0,1-.38-.18,1.12,1.12,0,0,1-.1-.55,1.31,1.31,0,0,1,.1-.59.37.37,0,0,1,.38-.2Z"/><path class="cls-3" d="M247.88,278.12a2.93,2.93,0,0,0,.85,1.28,2.11,2.11,0,0,0,1.28.35h1.46a.39.39,0,0,1,.38.18,1.24,1.24,0,0,1,.1.57,1.26,1.26,0,0,1-.1.58.39.39,0,0,1-.38.19H249.9a3.35,3.35,0,0,1-1.22-.2,2.39,2.39,0,0,1-.83-.54,3.06,3.06,0,0,1-.57-.8,8,8,0,0,1-.43-1L244.71,280c-.38.22-.75.41-1.1.58a6.38,6.38,0,0,1-1.14.41,10,10,0,0,1-1.35.23c-.5.05-1.06.08-1.69.08h-1.08a.4.4,0,0,1-.38-.18,1.12,1.12,0,0,1-.1-.55,1.31,1.31,0,0,1,.1-.59.37.37,0,0,1,.38-.2h1.1c.58,0,1.08,0,1.52-.06a8.2,8.2,0,0,0,1.21-.17,6.22,6.22,0,0,0,2-.83l3.71-2.15a6.77,6.77,0,0,0-.37-.85,2.32,2.32,0,0,0-.49-.65,2.12,2.12,0,0,0-.74-.41,3.78,3.78,0,0,0-1.1-.14h-4.93l.13-1.52h5a6,6,0,0,1,1.17.13,2.86,2.86,0,0,1,1.15.56,4.41,4.41,0,0,1,1,1.27,8.24,8.24,0,0,1,.78,2.22Zm-3.08-7.63H243v-1.61h1.85Z"/><path class="cls-3" d="M253.45,279.75a2,2,0,0,0,1.37-.46,1.62,1.62,0,0,0,.52-1.28v-3h1.43v3a3.22,3.22,0,0,1-.87,2.41,3.27,3.27,0,0,1-2.37.85h-2.06a.41.41,0,0,1-.39-.18,1.12,1.12,0,0,1-.1-.55,1.31,1.31,0,0,1,.1-.59.39.39,0,0,1,.39-.2Zm.74-7.59h-1.76V270.6h1.76Zm2.8,0h-1.76V270.6H257Z"/><path class="cls-3" d="M277.5,287.26v-13.5l10.5-10.5,10.5,10.5v13.5Zm3-12.26v9.26h15V275l-7.5-7.5Z"/><rect class="cls-4" x="270" y="257.27" width="36" height="36"/><rect class="cls-5" x="162" y="336" width="552" height="84"/><path class="cls-1" d="M401.1,381.36a1.52,1.52,0,0,0,1.15-.34,1,1,0,0,0,.31-.67,2,2,0,0,0-.07-.49c-.05-.2-.14-.53-.28-1s-.36-1.09-.64-1.89-.66-1.85-1.14-3.14l2.33-1,2.47,6.92a3,3,0,0,0,.68,1.21,1.77,1.77,0,0,0,1.24.37h.31c.35,0,.53.42.53,1.27s-.18,1.37-.53,1.37h-.31a4.11,4.11,0,0,1-1.52-.29,2.94,2.94,0,0,1-1.34-1.22,2.71,2.71,0,0,1-1.26,1.19,4.21,4.21,0,0,1-1.64.32h-5.16l-.12-2.64Z"/><path class="cls-1" d="M409.14,381.36a1.4,1.4,0,0,0,1.61-1.56V377h2.47v2.83a1.35,1.35,0,0,0,.52,1.2,2,2,0,0,0,1.21.36h.62c.37,0,.55.42.55,1.27s-.18,1.37-.55,1.37h-.69a4.42,4.42,0,0,1-1.66-.3,2.76,2.76,0,0,1-1.3-1.21,3.1,3.1,0,0,1-1.29,1.21,3.74,3.74,0,0,1-1.49.3h-1.68a.42.42,0,0,1-.42-.32,3.29,3.29,0,0,1-.11-.95,3.63,3.63,0,0,1,.11-1,.41.41,0,0,1,.42-.34ZM411,389h-2.47v-2.35H411Zm3.46,0H412v-2.35h2.47Z"/><path class="cls-1" d="M417.25,381.36a1.4,1.4,0,0,0,1.61-1.56V377h2.47v2.83a1.35,1.35,0,0,0,.52,1.2,2.06,2.06,0,0,0,1.21.36h.62c.37,0,.56.42.56,1.27s-.19,1.37-.56,1.37H423a4.42,4.42,0,0,1-1.66-.3,2.74,2.74,0,0,1-1.29-1.21,3.12,3.12,0,0,1-1.3,1.21,3.71,3.71,0,0,1-1.49.3h-1.68a.42.42,0,0,1-.42-.32,3.29,3.29,0,0,1-.11-.95,3.63,3.63,0,0,1,.11-1,.41.41,0,0,1,.42-.34Zm4-7.2h-2.72v-2.45h2.72Z"/><path class="cls-1" d="M429.64,381.36a1.26,1.26,0,0,0,.9-.26,1,1,0,0,0,.25-.65,2.17,2.17,0,0,0-.13-.71,2.3,2.3,0,0,0-.57-.76l-4.53-4.53v-2.74l7.94-3,.55,2.45-6.12,2.26,3.53,3.57a12.26,12.26,0,0,1,1,1.09,4.87,4.87,0,0,1,.6.94,3.12,3.12,0,0,1,.3.89,4.56,4.56,0,0,1,.09.92,3.33,3.33,0,0,1-.28,1.44,2.74,2.74,0,0,1-.74,1,3.06,3.06,0,0,1-1.11.56,5,5,0,0,1-1.38.18h-6.24a.43.43,0,0,1-.42-.32,3.35,3.35,0,0,1-.1-.95,3.71,3.71,0,0,1,.1-1,.43.43,0,0,1,.42-.34Z"/><path class="cls-1" d="M444.42,383.62A6.66,6.66,0,0,1,444,386a6.4,6.4,0,0,1-1.19,2,5.4,5.4,0,0,1-4.07,1.8h-1.51l-.12-2.62h1a4.94,4.94,0,0,0,1.83-.3,3.45,3.45,0,0,0,1.24-.8,3.18,3.18,0,0,0,.7-1.15,4.33,4.33,0,0,0,.21-1.32V377h2.45v2.85A1.42,1.42,0,0,0,445,381a1.84,1.84,0,0,0,1.19.38h.26c.35,0,.53.42.53,1.27s-.18,1.37-.53,1.37h-.26a2.93,2.93,0,0,1-1-.16,1.56,1.56,0,0,1-.82-.63Z"/><path class="cls-1" d="M448.14,381.36a1.4,1.4,0,0,0,1.61-1.56V377h2.47v2.83a1.35,1.35,0,0,0,.52,1.2,2,2,0,0,0,1.21.36h.62c.37,0,.55.42.55,1.27s-.18,1.37-.55,1.37h-.69a4.42,4.42,0,0,1-1.66-.3,2.76,2.76,0,0,1-1.3-1.21,3.1,3.1,0,0,1-1.29,1.21,3.74,3.74,0,0,1-1.49.3h-1.68a.42.42,0,0,1-.42-.32,3.29,3.29,0,0,1-.11-.95,3.63,3.63,0,0,1,.11-1,.41.41,0,0,1,.42-.34Zm2.06-7.2h-2.49v-2.35h2.49Zm3.44,0h-2.5v-2.35h2.5Z"/><path class="cls-1" d="M455.12,381.36c1.09,0,1.64-.52,1.64-1.56V369.12h2.44V379.8a1.37,1.37,0,0,0,.52,1.2,2.11,2.11,0,0,0,1.24.36h.38c.35,0,.53.42.53,1.27s-.18,1.37-.53,1.37h-.48a4.57,4.57,0,0,1-1.66-.3,2.75,2.75,0,0,1-1.32-1.21,2.74,2.74,0,0,1-1.26,1.21,3.79,3.79,0,0,1-1.5.3h-.55a.42.42,0,0,1-.42-.32,3.29,3.29,0,0,1-.11-.95,3.63,3.63,0,0,1,.11-1,.41.41,0,0,1,.42-.34Z"/><path class="cls-1" d="M463,381.36a1.4,1.4,0,0,0,1.61-1.56V377h2.47v2.83a1.35,1.35,0,0,0,.52,1.2,2,2,0,0,0,1.21.36h.62c.37,0,.55.42.55,1.27s-.18,1.37-.55,1.37h-.69a4.42,4.42,0,0,1-1.66-.3,2.76,2.76,0,0,1-1.3-1.21,3.1,3.1,0,0,1-1.29,1.21,3.74,3.74,0,0,1-1.49.3h-1.68a.42.42,0,0,1-.42-.32,3.29,3.29,0,0,1-.11-.95,3.63,3.63,0,0,1,.11-1,.41.41,0,0,1,.42-.34Zm1.87,7.68h-2.47v-2.35h2.47Zm3.46,0h-2.47v-2.35h2.47Z"/><path class="cls-1" d="M471.61,381.36h.67l.54,0a4,4,0,0,1,.5.07l.52.12a5.56,5.56,0,0,1-1.33-.76,2.82,2.82,0,0,1-.75-.85,2.6,2.6,0,0,1-.35-1,7.29,7.29,0,0,1-.09-1.19,4,4,0,0,1,.26-1.35,3.59,3.59,0,0,1,.75-1.24,4.1,4.1,0,0,1,1.26-.92,4,4,0,0,1,1.74-.36,5.52,5.52,0,0,1,1.69.24,3.16,3.16,0,0,1,1.31.8,3.55,3.55,0,0,1,.85,1.45,7.09,7.09,0,0,1,.3,2.22v1.22a4.07,4.07,0,0,1-1.11,3,4.88,4.88,0,0,1-3.52,1.09h-5.4a.42.42,0,0,1-.42-.32,3.29,3.29,0,0,1-.11-.95,3.63,3.63,0,0,1,.11-1,.41.41,0,0,1,.42-.34Zm3.63-4.78a1.47,1.47,0,0,0-1.25.54,1.88,1.88,0,0,0-.41,1.14,2.61,2.61,0,0,0,.08.64,1.49,1.49,0,0,0,.4.61,4.51,4.51,0,0,0,.94.67,14.28,14.28,0,0,0,1.72.82,1.69,1.69,0,0,0,.3-.66,3,3,0,0,0,.11-.83v-.62a3,3,0,0,0-.41-1.66A1.61,1.61,0,0,0,475.24,376.58Zm1.44-4.63H474V369.5h2.72Z"/><path d="M596.88,149.27a5.63,5.63,0,0,1-1.6-.23,3.25,3.25,0,0,1-1.34-.76,3.73,3.73,0,0,1-.9-1.43,6.33,6.33,0,0,1-.33-2.2v-14h3.06V143.9a2.38,2.38,0,0,0,.44,1.51,1.55,1.55,0,0,0,1.3.56h.69q.66,0,.66,1.59t-.66,1.71Z"/><path d="M598.2,149.27a.52.52,0,0,1-.52-.41,3.9,3.9,0,0,1-.14-1.18,4.5,4.5,0,0,1,.14-1.29.52.52,0,0,1,.52-.42h4.29a4.9,4.9,0,0,1-1.59-5.76A4.87,4.87,0,0,1,602,138.6a5,5,0,0,1,1.67-1.11,5.76,5.76,0,0,1,2.23-.4,5.12,5.12,0,0,1,2.15.42,4.26,4.26,0,0,1,1.5,1.11,4.61,4.61,0,0,1,.87,1.56,5.65,5.65,0,0,1,.28,1.77,5,5,0,0,1-.46,2.2,6.33,6.33,0,0,1-1.34,1.82h4.2q1.44,0,1.44-1.11a1.47,1.47,0,0,0-.12-.54,3.11,3.11,0,0,0-.45-.72l-5-6.06,2.25-2.13,5.07,6.24a7.11,7.11,0,0,1,1.22,2,5.06,5.06,0,0,1,.34,1.79,4,4,0,0,1-.28,1.51,3.39,3.39,0,0,1-.86,1.23,4,4,0,0,1-1.42.83,6,6,0,0,1-2,.3H610a22,22,0,0,1-2.44-.12,2.55,2.55,0,0,0-2.73-.12,10.33,10.33,0,0,1-1.26.16l-1.26.06-1,0Zm7.41-9a2.12,2.12,0,0,0-1.63.66,2.33,2.33,0,0,0-.62,1.65,2.62,2.62,0,0,0,.71,1.78,5.91,5.91,0,0,0,1.66,1.31,4.94,4.94,0,0,0,1.5-1.29,2.78,2.78,0,0,0,.6-1.74,2.4,2.4,0,0,0-.61-1.71A2.1,2.1,0,0,0,605.61,140.27Z"/><path d="M634.68,153.26a11.37,11.37,0,0,0,2.21-.18,4.26,4.26,0,0,0,1.41-.51,2,2,0,0,0,.75-.8,2.25,2.25,0,0,0,.22-1,1.71,1.71,0,0,0-.33-1.05,1.29,1.29,0,0,0-1.11-.45h-4.32l.18-3.3H644.1q.66,0,.66,1.59t-.66,1.71h-2.58a1.43,1.43,0,0,1,.53.78,4.29,4.29,0,0,1,.13,1.17,4.89,4.89,0,0,1-1.54,3.46,6.45,6.45,0,0,1-2.19,1.32,9.38,9.38,0,0,1-3.35.53h-3.18a6.66,6.66,0,0,1-5.22-2.07,8.17,8.17,0,0,1-1.86-5.67v-5.37h3v5.25a6.93,6.93,0,0,0,.24,1.89,3.85,3.85,0,0,0,.77,1.44,3.54,3.54,0,0,0,1.38.93,5.78,5.78,0,0,0,2.08.33Z"/><path d="M651.54,146a1.54,1.54,0,0,0,1.13-.33,1.12,1.12,0,0,0,.31-.81,2.5,2.5,0,0,0-.16-.89,2.72,2.72,0,0,0-.71-.94l-5.67-5.67v-3.42l9.93-3.75.69,3.06L649.41,136l4.41,4.47a15.25,15.25,0,0,1,1.23,1.36,6.68,6.68,0,0,1,.75,1.17,4.43,4.43,0,0,1,.38,1.11,6.26,6.26,0,0,1,.1,1.16,4.28,4.28,0,0,1-.34,1.8,3.4,3.4,0,0,1-.93,1.23,3.75,3.75,0,0,1-1.38.7,6.35,6.35,0,0,1-1.73.23h-7.8a.52.52,0,0,1-.52-.41,3.9,3.9,0,0,1-.14-1.18,4.5,4.5,0,0,1,.14-1.29.52.52,0,0,1,.52-.42Zm-5.25-16.68,9-3.42.48,2.16-9.36,3.6Z"/><path d="M664.62,148.79a8.4,8.4,0,0,1-.54,3,7.92,7.92,0,0,1-1.48,2.46,7,7,0,0,1-2.25,1.65,6.88,6.88,0,0,1-2.84.6h-1.89l-.15-3.27h1.26a6.25,6.25,0,0,0,2.3-.38,4.24,4.24,0,0,0,1.54-1,3.82,3.82,0,0,0,.87-1.44,5.23,5.23,0,0,0,.27-1.65v-8.31h3.06v3.57a1.76,1.76,0,0,0,.59,1.44,2.25,2.25,0,0,0,1.48.48h.33q.66,0,.66,1.59t-.66,1.71h-.33a3.87,3.87,0,0,1-1.2-.2,2,2,0,0,1-1-.79ZM662.28,137h-3.12V134h3.12Zm2.19-4.2h-3.18v-2.91h3.18Zm2.1,4.2h-3.12V134h3.12Z"/><path d="M669.93,146a1.75,1.75,0,0,0,2-1.95v-3.54H675v3.75a5.13,5.13,0,0,1-1.26,3.76,4.76,4.76,0,0,1-3.54,1.28h-3a.52.52,0,0,1-.52-.41,3.9,3.9,0,0,1-.14-1.18,4.5,4.5,0,0,1,.14-1.29.52.52,0,0,1,.52-.42Zm.33,9.6h-3.09v-2.94h3.09Zm4.32,0h-3.09v-2.94h3.09Z"/><path d="M680.91,153.26a5.53,5.53,0,0,0,2-.32,3.8,3.8,0,0,0,1.36-.85,3.85,3.85,0,0,0,.84-1.28,5,5,0,0,0,.36-1.54h-2a8.22,8.22,0,0,1-2.55-.33,3.51,3.51,0,0,1-1.56-1,3.59,3.59,0,0,1-.79-1.57,8.94,8.94,0,0,1-.23-2.1,7.25,7.25,0,0,1,.33-2.21,5.36,5.36,0,0,1,1-1.81,4.72,4.72,0,0,1,1.6-1.25,5,5,0,0,1,2.22-.46,5.69,5.69,0,0,1,1.94.33,4.13,4.13,0,0,1,1.6,1.05,5.13,5.13,0,0,1,1.1,1.86,8.4,8.4,0,0,1,.4,2.79v4.2a8.62,8.62,0,0,1-.51,2.94,7.53,7.53,0,0,1-1.45,2.47,6.92,6.92,0,0,1-2.33,1.7,7.36,7.36,0,0,1-3.09.63h-3l-.18-3.27Zm.3-9.18a1.92,1.92,0,0,0,.47,1.47,2.86,2.86,0,0,0,1.84.42h2v-1.41a3.21,3.21,0,0,0-.58-2.19,2.13,2.13,0,0,0-1.64-.63,2,2,0,0,0-1.53.6A2.52,2.52,0,0,0,681.21,144.08Z"/><polyline class="cls-1" points="690 0 690 66 186 66 186 0"/><polygon class="cls-2" points="690.75 66.75 185.25 66.75 185.25 0 186.75 0 186.75 65.25 689.25 65.25 689.25 0 690.75 0 690.75 66.75"/><path class="cls-3" d="M586.9,34.18a4.9,4.9,0,0,0,1.86-.34,4.21,4.21,0,0,0,1.37-.91A4.37,4.37,0,0,0,591,31.6a4.84,4.84,0,0,0,.36-1.6H589a6.86,6.86,0,0,1-2-.26,3,3,0,0,1-1.26-.77,2.86,2.86,0,0,1-.63-1.21,6.58,6.58,0,0,1-.18-1.6,5.79,5.79,0,0,1,.26-1.73A4.56,4.56,0,0,1,585.9,23a3.86,3.86,0,0,1,1.27-1,3.9,3.9,0,0,1,1.74-.38,4.31,4.31,0,0,1,1.52.27,3.19,3.19,0,0,1,1.26.83,4.06,4.06,0,0,1,.86,1.46,6.33,6.33,0,0,1,.32,2.17v3.27a6.91,6.91,0,0,1-.4,2.35,6.14,6.14,0,0,1-1.17,2,5.38,5.38,0,0,1-1.83,1.35,5.62,5.62,0,0,1-2.43.51h-2.93a5.29,5.29,0,0,1-4.17-1.66,6.53,6.53,0,0,1-1.49-4.53v-4.2H580v4.15a6.41,6.41,0,0,0,.25,1.87,3.85,3.85,0,0,0,.79,1.45,3.52,3.52,0,0,0,1.36,1,5.21,5.21,0,0,0,2,.34Zm-.53-8.12a3.56,3.56,0,0,0,.13,1,1.46,1.46,0,0,0,.46.7,2,2,0,0,0,.87.41,6.11,6.11,0,0,0,1.4.13h2.16v-1.8a3.76,3.76,0,0,0-.7-2.54,2.46,2.46,0,0,0-1.92-.77A2.18,2.18,0,0,0,587,24,3.2,3.2,0,0,0,586.37,26.06Zm2-7.15h-1.92v-1.7h1.92Zm3,0h-1.92v-1.7h1.92Z"/><path class="cls-3" d="M599.07,30a4,4,0,0,1-1.2-.18,2.42,2.42,0,0,1-1-.61,3,3,0,0,1-.71-1.14,5,5,0,0,1-.27-1.77V15.12h1.56V26a2.87,2.87,0,0,0,.45,1.66,1.61,1.61,0,0,0,1.45.66h.41c.35,0,.53.28.53.82s-.18.84-.53.84Z"/><path class="cls-3" d="M601.9,28.34a2.16,2.16,0,0,0,1.5-.5,1.79,1.79,0,0,0,.56-1.39V23.14h1.56v3.31a3.49,3.49,0,0,1-.95,2.63A3.55,3.55,0,0,1,602,30h-2.25a.43.43,0,0,1-.42-.19,1.31,1.31,0,0,1-.11-.6,1.52,1.52,0,0,1,.11-.65.43.43,0,0,1,.42-.22Zm.81-8.28h-1.92v-1.7h1.92Zm3,0h-1.92v-1.7h1.92Z"/><path class="cls-3" d="M608.52,15.12h1.56V30h-1.56Z"/><path class="cls-3" d="M625.59,24.29a4.93,4.93,0,0,1,.9,1.38,3.59,3.59,0,0,1,.27,1.33,2.83,2.83,0,0,1-.92,2.15,3.73,3.73,0,0,1-2.63.85h-6.7l-.12-1.66H623a2.18,2.18,0,0,0,1.45-.43,1.41,1.41,0,0,0,.52-1.13,2,2,0,0,0-.17-.74,2.46,2.46,0,0,0-.51-.77l-4.46-5,1.22-1.15Z"/><path class="cls-3" d="M629.62,15.12h1.56V30h-1.56Z"/><path class="cls-3" d="M639,28.34a2.57,2.57,0,0,0,.89-.13,1.94,1.94,0,0,0,.59-.33,1.37,1.37,0,0,0,.33-.45,1,1,0,0,0,.11-.45,3.19,3.19,0,0,0-.09-.65c-.07-.27-.18-.67-.35-1.2S640,23.9,639.71,23s-.72-2-1.21-3.39L640,19l2.57,7.32a3.72,3.72,0,0,0,.89,1.54,2,2,0,0,0,1.41.45h.34c.35,0,.53.28.53.82s-.18.84-.53.84h-.34a3.88,3.88,0,0,1-1.51-.3A3,3,0,0,1,642,28.39a2.61,2.61,0,0,1-1.26,1.3,4.2,4.2,0,0,1-1.64.31h-5.16l-.12-1.66Z"/><path class="cls-3" d="M646.25,28.34a19.45,19.45,0,0,0,2.21-.13,6.8,6.8,0,0,0,2.28-.68l-3.58-4.63.89-1.64h6.17a3.4,3.4,0,0,1,1.81.46,1.79,1.79,0,0,1,.85,1.37,1.36,1.36,0,0,1,0,.29v.28a4.14,4.14,0,0,1-.19.68,3.11,3.11,0,0,1-.47.82,12.87,12.87,0,0,1-1,1.1c-.41.41-.95.89-1.6,1.44a3.72,3.72,0,0,0,.71.37,3.43,3.43,0,0,0,.75.19,7.85,7.85,0,0,0,.89.07h2.83c.35,0,.53.28.53.82s-.18.84-.53.84h-2l-1.45,0a6.88,6.88,0,0,1-1.24-.16,4.22,4.22,0,0,1-1.09-.41,4.33,4.33,0,0,1-1-.78,7.58,7.58,0,0,1-2.65,1.11,16.82,16.82,0,0,1-3.09.26h-1.17a.43.43,0,0,1-.42-.19,1.31,1.31,0,0,1-.11-.6,1.52,1.52,0,0,1,.11-.65.43.43,0,0,1,.42-.22Zm9-4.53a.82.82,0,0,0-.37-.72,1.89,1.89,0,0,0-1.11-.27H649l3.34,4.32,1.44-1.22a11.57,11.57,0,0,0,.92-.89,2.85,2.85,0,0,0,.48-.67A1.29,1.29,0,0,0,655.27,23.81Z"/><path class="cls-3" d="M661,28.34a2.13,2.13,0,0,0,1.5-.5,1.77,1.77,0,0,0,.57-1.39V23.14h1.56v3.31A3.24,3.24,0,0,1,661.13,30h-2.26a.43.43,0,0,1-.42-.19,1.31,1.31,0,0,1-.11-.6,1.52,1.52,0,0,1,.11-.65.43.43,0,0,1,.42-.22Zm.82-8.28h-1.92v-1.7h1.92Zm3,0H663v-1.7h1.92Z"/><path class="cls-6" d="M235.55,21,228,28.52,220.5,21Z"/><rect class="cls-4" x="210" y="6" width="36" height="36"/><rect class="cls-6" x="185.25" y="65.25" width="505.5" height="1.5"/><rect class="cls-3" x="330" y="251.27" width="228" height="48" rx="24"/><path class="cls-1" d="M405.49,276a4.48,4.48,0,0,1,.83,1.26,3.46,3.46,0,0,1,.25,1.23,2.53,2.53,0,0,1-.85,2,3.43,3.43,0,0,1-2.41.79h-6.13l-.11-1.52h6.07a2,2,0,0,0,1.33-.4,1.29,1.29,0,0,0,.47-1,1.78,1.78,0,0,0-.15-.68,2.61,2.61,0,0,0-.46-.71l-4.1-4.62,1.13-1.05Z"/><path class="cls-1" d="M411.32,280.91a6.57,6.57,0,0,1-.39,2.32,5.61,5.61,0,0,1-1.1,1.8,4.86,4.86,0,0,1-1.65,1.15,5.24,5.24,0,0,1-2.07.41h-1.3l-.11-1.5h1.08a4.56,4.56,0,0,0,1.89-.35,3.7,3.7,0,0,0,1.3-.93,4,4,0,0,0,.74-1.33,4.83,4.83,0,0,0,.25-1.57V275h1.41v3.11a1.55,1.55,0,0,0,.51,1.22,2,2,0,0,0,1.36.45h.24q.48,0,.48.75c0,.51-.16.77-.48.77h-.24a2.92,2.92,0,0,1-1.05-.2,2,2,0,0,1-.87-.68Z"/><path class="cls-1" d="M423,278.12a2.93,2.93,0,0,0,.85,1.28,2.15,2.15,0,0,0,1.29.35h1.45a.39.39,0,0,1,.38.18,1.24,1.24,0,0,1,.1.57,1.26,1.26,0,0,1-.1.58.39.39,0,0,1-.38.19H425a3.31,3.31,0,0,1-1.22-.2,2.43,2.43,0,0,1-.84-.54,3.06,3.06,0,0,1-.57-.8,8,8,0,0,1-.43-1L419.83,280c-.38.22-.74.41-1.09.58a6.79,6.79,0,0,1-1.15.41,10,10,0,0,1-1.35.23,16.67,16.67,0,0,1-1.69.08h-1.07a.41.41,0,0,1-.39-.18,1.25,1.25,0,0,1-.1-.55,1.46,1.46,0,0,1,.1-.59.39.39,0,0,1,.39-.2h1.1c.57,0,1.08,0,1.51-.06a8,8,0,0,0,1.21-.17,6.32,6.32,0,0,0,1-.32,6.67,6.67,0,0,0,1-.51l3.72-2.15a8.59,8.59,0,0,0-.38-.85,2.14,2.14,0,0,0-.49-.65,2.12,2.12,0,0,0-.74-.41,3.78,3.78,0,0,0-1.1-.14h-4.93l.13-1.52h5a6.17,6.17,0,0,1,1.18.13,2.89,2.89,0,0,1,1.14.56,4.25,4.25,0,0,1,1,1.27,7.91,7.91,0,0,1,.78,2.22Zm-3.23,7.3h-1.85v-1.6h1.85Z"/><path class="cls-1" d="M426.94,279.75a1.81,1.81,0,0,0,1.3-.42,1.48,1.48,0,0,0,.44-1.12v-.84a4.26,4.26,0,0,1,1-3,3.48,3.48,0,0,1,2.72-1.08,4.08,4.08,0,0,1,1.58.29,3,3,0,0,1,1.13.81,3.32,3.32,0,0,1,.67,1.26,5.34,5.34,0,0,1,.22,1.6,4.14,4.14,0,0,1-1,2.95,3.54,3.54,0,0,1-2.7,1.06,4.35,4.35,0,0,1-1.7-.35,2.5,2.5,0,0,1-1.27-1.22,2.78,2.78,0,0,1-.49.82,2.48,2.48,0,0,1-.59.47,2.17,2.17,0,0,1-.65.22,3.74,3.74,0,0,1-.65.06h-.35a.41.41,0,0,1-.39-.18,1.25,1.25,0,0,1-.1-.55,1.46,1.46,0,0,1,.1-.59.39.39,0,0,1,.39-.2Zm7.64-2.36a3.15,3.15,0,0,0-.51-1.86,2,2,0,0,0-1.74-.71c-1.52,0-2.29.89-2.29,2.66a2.2,2.2,0,0,0,.63,1.7,2.32,2.32,0,0,0,1.62.57,2.23,2.23,0,0,0,1.7-.62A2.43,2.43,0,0,0,434.58,277.39Z"/><path class="cls-1" d="M449.29,277.61a2.83,2.83,0,0,0,.38,1.54,1.47,1.47,0,0,0,1.36.6h.37a.39.39,0,0,1,.37.18,1.39,1.39,0,0,1,.1.57,1.41,1.41,0,0,1-.1.58.39.39,0,0,1-.37.19H451a3.45,3.45,0,0,1-1.76-.43,1,1,0,1,0-1.68-1,3.94,3.94,0,0,1-.82.34,5.08,5.08,0,0,1-.85.16,8,8,0,0,1-.81.05,3.32,3.32,0,0,1-2.45-.84,3.53,3.53,0,0,1-.85-2.62,5.71,5.71,0,0,1,.23-1.59,4.49,4.49,0,0,1,.7-1.4,3.44,3.44,0,0,1,1.15-1,3.39,3.39,0,0,1,1.64-.37h2.38v-1.52h1.38Zm-3.87,1.32a3.17,3.17,0,0,0,1.82-.46,1.39,1.39,0,0,0,.67-1.16V274h-2.36a2.15,2.15,0,0,0-1.76.75,3.12,3.12,0,0,0-.61,2,2.08,2.08,0,0,0,.57,1.69A2.6,2.6,0,0,0,445.42,278.93Z"/><path class="cls-1" d="M453.32,279.75a2,2,0,0,0,1.37-.46,1.62,1.62,0,0,0,.52-1.28v-3h1.43v3a3.22,3.22,0,0,1-.87,2.41,3.26,3.26,0,0,1-2.36.85h-2.07a.41.41,0,0,1-.39-.18,1.25,1.25,0,0,1-.1-.55,1.46,1.46,0,0,1,.1-.59.39.39,0,0,1,.39-.2Zm.88,5.67h-1.85v-1.6h1.85Z"/><path class="cls-1" d="M462.36,277.88a4.36,4.36,0,0,1,.18-1.26,5,5,0,0,1,.55-1.21,9.6,9.6,0,0,1,.94-1.27c.38-.44.84-.93,1.37-1.48l-1-1,1-1c.91.9,1.67,1.69,2.28,2.34a16.26,16.26,0,0,1,1.47,1.77,6,6,0,0,1,.81,1.46,4.19,4.19,0,0,1,.24,1.42,3.56,3.56,0,0,1-1.13,2.63,3.9,3.9,0,0,1-1.27.77,4.48,4.48,0,0,1-1.58.28,4.57,4.57,0,0,1-1.57-.26,3.5,3.5,0,0,1-1.19-.7,3.15,3.15,0,0,1-.77-1.07A3.18,3.18,0,0,1,462.36,277.88Zm6.38-.31a3,3,0,0,0-.12-.83,3.24,3.24,0,0,0-.41-.84,7.74,7.74,0,0,0-.76-1,16.49,16.49,0,0,0-1.2-1.24c-.52.51-.95,1-1.28,1.35a7.22,7.22,0,0,0-.76,1,3.14,3.14,0,0,0-.35.84,3.2,3.2,0,0,0-.09.75,2,2,0,0,0,.63,1.48,2.43,2.43,0,0,0,1.79.61,2.84,2.84,0,0,0,1-.18,2.63,2.63,0,0,0,.82-.47,2.17,2.17,0,0,0,.52-.69A1.91,1.91,0,0,0,468.74,277.57Z"/><path class="cls-1" d="M474.56,283.23a5.47,5.47,0,0,1-1.11,1.8,4.81,4.81,0,0,1-1.66,1.15,5.29,5.29,0,0,1-2.08.41h-1.3l-.11-1.5h1.08a4.56,4.56,0,0,0,1.89-.35,3.7,3.7,0,0,0,1.3-.93,3.81,3.81,0,0,0,.75-1.33,5.1,5.1,0,0,0,.24-1.57V275H475v5.94A6.35,6.35,0,0,1,474.56,283.23Z"/><path class="cls-1" d="M480.66,281.27a3.72,3.72,0,0,1-1.1-.17,2.35,2.35,0,0,1-.93-.56,2.73,2.73,0,0,1-.65-1.05,4.67,4.67,0,0,1-.24-1.61V267.63h1.43v10a2.61,2.61,0,0,0,.41,1.53,1.47,1.47,0,0,0,1.33.61h.37q.48,0,.48.75c0,.51-.16.77-.48.77Z"/><path class="cls-1" d="M487.64,280c-.38.22-.75.41-1.1.58a6.49,6.49,0,0,1-1.15.41,10,10,0,0,1-1.35.23,16.61,16.61,0,0,1-1.68.08h-1.08a.39.39,0,0,1-.38-.18,1.12,1.12,0,0,1-.1-.55,1.31,1.31,0,0,1,.1-.59.37.37,0,0,1,.38-.2h1.1c.57,0,1.08,0,1.52-.06a8.4,8.4,0,0,0,1.21-.17,6.51,6.51,0,0,0,1-.32,6.67,6.67,0,0,0,1-.51l3.72-2.15a8.64,8.64,0,0,0-.37-.85,2.34,2.34,0,0,0-.5-.65,2,2,0,0,0-.74-.41,3.78,3.78,0,0,0-1.1-.14h-4.92l.13-1.52h5a6.09,6.09,0,0,1,1.18.13,2.89,2.89,0,0,1,1.14.56,4.25,4.25,0,0,1,1,1.27,8.22,8.22,0,0,1,.79,2.22Zm-.07,5.45h-1.85v-1.6h1.85Z"/><path class="cls-1" d="M495,267.63h1.43v13.64H495Z"/><path class="cls-1" d="M535.24,275.26H520.76l-3.26,3.26v10.12l10.5-2.5,10.5,2.5V278.52Zm.26,9.58-1.14-.27-.69-2.87L528,283.05l-5.67-1.35-.69,2.87-1.14.27v-5.08l1.5-1.5h12l1.5,1.5ZM528,273.75a6,6,0,1,0-6-6A6,6,0,0,0,528,273.75Zm0-9a3,3,0,1,1-3,3A3,3,0,0,1,528,264.76Z"/><rect class="cls-4" x="510" y="257.27" width="36" height="36"/><path class="cls-1" d="M369.88,265.64l2.12,2.12-16.5,16.5-7.5-7.5,2.12-2.12L355.5,280Z"/><rect class="cls-4" x="342" y="257.27" width="36" height="36"/></g></svg>