<svg xmlns="http://www.w3.org/2000/svg" viewBox="0 0 432 252"><defs><style>.cls-1{fill:#f5f1f0;}.cls-2{fill:#858282;}.cls-3{fill:none;}.cls-4{fill:#fff;}</style></defs><title>material-54</title><g id="Layer_1" data-name="Layer 1"><path class="cls-1" d="M270,150.5H162a24.5,24.5,0,0,1,0-49H270a24.5,24.5,0,0,1,0,49Zm-108-48a23.5,23.5,0,0,0,0,47H270a23.5,23.5,0,0,0,0-47Z"/><path class="cls-2" d="M168.62,121.5l-4.5,4.5,4.5,4.5-2.12,2.12-4.5-4.5-4.5,4.5-2.12-2.12,4.5-4.5-4.5-4.5,2.12-2.12,4.5,4.5,4.5-4.5ZM162,114a12,12,0,1,0,12,12A12,12,0,0,0,162,114Z"/><path class="cls-2" d="M205.38,132a3,3,0,0,1-1-.2,2,2,0,0,1-.87-.68v.48a6.39,6.39,0,0,1-.37,2.2,5.44,5.44,0,0,1-1.07,1.82,5.1,5.1,0,0,1-1.68,1.24,5.22,5.22,0,0,1-2.24.46h-1.3a4.89,4.89,0,0,1-3.83-1.51,6,6,0,0,1-1.36-4.16V127.8H193v3.8a5.77,5.77,0,0,0,.24,1.72,3.43,3.43,0,0,0,.72,1.33,3.47,3.47,0,0,0,1.24.87,4.85,4.85,0,0,0,1.81.31h1a4.51,4.51,0,0,0,1.8-.34,3.93,3.93,0,0,0,1.29-.92,3.79,3.79,0,0,0,.77-1.34,5.05,5.05,0,0,0,.25-1.6v-5.92h1.41v3.1A1.52,1.52,0,0,0,204,130a2,2,0,0,0,1.35.45h.24q.48,0,.48.75c0,.51-.16.77-.48.77Zm-7.17-6.78h-1.85v-1.6h1.85Z"/><path class="cls-2" d="M211.43,130.48a1.77,1.77,0,0,0,1.36-.41,1.38,1.38,0,0,0,.38-1,3.07,3.07,0,0,0-.14-.84,2.64,2.64,0,0,0-.72-1.06l-4.75-4.73v-1.56l7.28-2.88.37,1.43L209,121.9l4,4c.73.75,1.36,1.38,1.9,1.9s1,.94,1.37,1.28.71.62,1,.81a3.26,3.26,0,0,0,.73.41,2.32,2.32,0,0,0,.62.17c.2,0,.43,0,.68,0s.48.25.48.75-.16.77-.48.77a5.41,5.41,0,0,1-1.13-.11,3.35,3.35,0,0,1-1-.42,8.21,8.21,0,0,1-1.13-.83c-.41-.36-.9-.82-1.47-1.39a2.68,2.68,0,0,1-.15,1.24,2.12,2.12,0,0,1-.6.85,2.64,2.64,0,0,1-1,.49,4.28,4.28,0,0,1-1.22.17h-5.94a.39.39,0,0,1-.38-.18,1.1,1.1,0,0,1-.1-.55,1.31,1.31,0,0,1,.1-.59.38.38,0,0,1,.38-.2Z"/><path class="cls-2" d="M219.79,130.48a1.93,1.93,0,0,0,1.36-.46,1.64,1.64,0,0,0,.51-1.28V118.36h1.43v10.38a3,3,0,0,1-3.21,3.26h-.66a.41.41,0,0,1-.39-.18,1.1,1.1,0,0,1-.1-.55,1.31,1.31,0,0,1,.1-.59.41.41,0,0,1,.39-.2Z"/><path class="cls-2" d="M226.85,132a3.67,3.67,0,0,1-1.1-.17,2.33,2.33,0,0,1-.94-.56,2.75,2.75,0,0,1-.64-1,4.45,4.45,0,0,1-.25-1.62V118.36h1.43v10a2.73,2.73,0,0,0,.41,1.53,1.49,1.49,0,0,0,1.33.6h.37c.33,0,.49.25.49.75s-.16.77-.49.77Z"/><path class="cls-2" d="M229.45,130.48a2,2,0,0,0,1.37-.46,1.61,1.61,0,0,0,.52-1.28v-3h1.43v3a3.19,3.19,0,0,1-.87,2.41,3.23,3.23,0,0,1-2.37.85h-2.06a.41.41,0,0,1-.39-.18,1.1,1.1,0,0,1-.1-.55,1.31,1.31,0,0,1,.1-.59.41.41,0,0,1,.39-.2Zm.88,5.68h-1.85v-1.61h1.85Z"/><path class="cls-2" d="M273,111H255v18h-3v3h1.5v6H252v3h24v-3h-1.5v-6H276v-3h-3Zm-3,18h-4.5v-3H267v-3h-1.5v-9H270Zm-4.5,3v6h-3v-6ZM258,114h4.5v15H258Zm-1.5,18h3v6h-3Zm12,6v-6h3v6Z"/><rect class="cls-3" x="246" y="108" width="36" height="36"/><rect x="318" y="114" width="24" height="24"/><rect x="276" y="125.75" width="48" height="0.5"/><path class="cls-4" d="M331.26,130.5h-1.65v-8l-2.44.84v-1.4l3.88-1.43h.21Z"/><rect x="84" y="114" width="24" height="24"/><rect x="102" y="125.75" width="48" height="0.5"/><path class="cls-4" d="M99.46,130.5H92.77v-1.14l3.31-3.62a8.17,8.17,0,0,0,1-1.33,2.12,2.12,0,0,0,.31-1.08,1.63,1.63,0,0,0-.4-1.15,1.41,1.41,0,0,0-1.08-.44,1.6,1.6,0,0,0-1.25.5,1.88,1.88,0,0,0-.44,1.34H92.58a3.25,3.25,0,0,1,.41-1.64,2.86,2.86,0,0,1,1.18-1.13,3.77,3.77,0,0,1,1.78-.4,3.34,3.34,0,0,1,2.28.73,2.5,2.5,0,0,1,.84,2,3.39,3.39,0,0,1-.42,1.56,8.63,8.63,0,0,1-1.38,1.86l-2.43,2.6h4.62Z"/><rect x="204" y="174" width="24" height="24" transform="translate(402 -30) rotate(90)"/><rect x="215.75" y="138" width="0.5" height="42"/><path class="cls-4" d="M214.69,184.76h1a1.78,1.78,0,0,0,1.21-.39,1.42,1.42,0,0,0,.45-1.13,1.53,1.53,0,0,0-.37-1.1,1.48,1.48,0,0,0-1.14-.4,1.57,1.57,0,0,0-1.1.39,1.28,1.28,0,0,0-.43,1h-1.66a2.54,2.54,0,0,1,.4-1.4,2.74,2.74,0,0,1,1.14-1,3.75,3.75,0,0,1,1.63-.35,3.43,3.43,0,0,1,2.34.75,2.61,2.61,0,0,1,.85,2.08,2.07,2.07,0,0,1-.43,1.26,2.59,2.59,0,0,1-1.1.89,2.34,2.34,0,0,1,1.68,2.32,2.67,2.67,0,0,1-.92,2.13,3.58,3.58,0,0,1-2.42.8,3.54,3.54,0,0,1-2.35-.77,2.53,2.53,0,0,1-.92-2h1.66a1.4,1.4,0,0,0,.44,1.07,1.7,1.7,0,0,0,1.19.41,1.76,1.76,0,0,0,1.22-.41,1.83,1.83,0,0,0,0-2.4,2,2,0,0,0-1.38-.42h-1Z"/><rect x="168" y="174" width="24" height="24" transform="translate(366 6) rotate(90)"/><rect x="179.75" y="150" width="0.5" height="30"/><path class="cls-4" d="M182.39,187h1.23v1.34h-1.23v2.21h-1.67v-2.21h-4.3l0-1,4.29-6.72h1.72Zm-4.27,0h2.6V182.8l-.12.21Z"/></g></svg>