<svg xmlns="http://www.w3.org/2000/svg" viewBox="0 0 432 252"><defs><style>.cls-1{fill:#f5f1f0;}.cls-2{fill:#858282;}.cls-3{fill:none;}</style></defs><title>material-67</title><g id="Layer_1" data-name="Layer 1"><path class="cls-1" d="M324,175H108a49,49,0,0,1,0-98H324a49,49,0,0,1,0,98ZM108,79a47,47,0,0,0,0,94H324a47,47,0,0,0,0-94Z"/><path class="cls-2" d="M121.24,117l-9,9,9,9L117,139.24l-9-9-9,9L94.75,135l9-9-9-9L99,112.76l9,9,9-9ZM108,102a24,24,0,1,0,24,24A24,24,0,0,0,108,102Z"/><path class="cls-2" d="M194.76,138a5.66,5.66,0,0,1-2.09-.4,3.75,3.75,0,0,1-1.74-1.36v1a12.83,12.83,0,0,1-.75,4.4,11.15,11.15,0,0,1-2.13,3.63,10.21,10.21,0,0,1-3.37,2.48,10.42,10.42,0,0,1-4.49.93H177.6a9.75,9.75,0,0,1-7.66-3q-2.73-3-2.73-8.31v-7.7H170v7.61a11.86,11.86,0,0,0,.46,3.43,7,7,0,0,0,1.45,2.66,6.58,6.58,0,0,0,2.49,1.74,9.49,9.49,0,0,0,3.61.62H180a8.77,8.77,0,0,0,3.61-.69,7.48,7.48,0,0,0,2.58-1.82,7.63,7.63,0,0,0,1.54-2.69,10.37,10.37,0,0,0,.5-3.21V125.42H191v6.2a3.06,3.06,0,0,0,1,2.44,4,4,0,0,0,2.71.9h.48c.65,0,1,.5,1,1.5s-.32,1.54-1,1.54Zm-14.35-13.55h-3.69v-3.21h3.69Z"/><path class="cls-2" d="M206.86,135a3.62,3.62,0,0,0,2.72-.81,2.79,2.79,0,0,0,.75-2,6.37,6.37,0,0,0-.26-1.67,5.35,5.35,0,0,0-1.45-2.11L199.11,119v-3.13l14.57-5.76.74,2.86-12.49,4.88,8,8c1.47,1.49,2.74,2.76,3.81,3.78s2,1.89,2.75,2.58a24.2,24.2,0,0,0,1.93,1.6,7.34,7.34,0,0,0,1.46.84,5.28,5.28,0,0,0,1.25.33c.4,0,.84.06,1.34.06.65,0,1,.5,1,1.5s-.32,1.54-1,1.54a9.93,9.93,0,0,1-2.24-.22,6.91,6.91,0,0,1-2-.84,16,16,0,0,1-2.27-1.67c-.82-.7-1.8-1.63-2.95-2.77a5.43,5.43,0,0,1-.28,2.49,4.29,4.29,0,0,1-1.21,1.69,5.3,5.3,0,0,1-1.92,1,8.62,8.62,0,0,1-2.44.33H195.24a.81.81,0,0,1-.77-.35,2.37,2.37,0,0,1-.2-1.1,2.78,2.78,0,0,1,.2-1.19.79.79,0,0,1,.77-.4Z"/><path class="cls-2" d="M223.58,135a3.85,3.85,0,0,0,2.72-.92,3.28,3.28,0,0,0,1-2.55V110.72h2.86v20.77a5.94,5.94,0,0,1-6.43,6.51h-1.32a.81.81,0,0,1-.77-.35,2.37,2.37,0,0,1-.2-1.1,2.78,2.78,0,0,1,.2-1.19.79.79,0,0,1,.77-.4Z"/><path class="cls-2" d="M237.7,138a7.33,7.33,0,0,1-2.2-.33,4.61,4.61,0,0,1-1.87-1.12,5.65,5.65,0,0,1-1.3-2.09,9.46,9.46,0,0,1-.48-3.24v-20.5h2.86v20a5.35,5.35,0,0,0,.81,3.05,3,3,0,0,0,2.66,1.21h.75c.65,0,1,.5,1,1.5s-.32,1.54-1,1.54Z"/><path class="cls-2" d="M242.89,135a3.94,3.94,0,0,0,2.75-.92,3.26,3.26,0,0,0,1-2.55v-6.07h2.86v6.07a5.95,5.95,0,0,1-6.47,6.51h-4.14a.81.81,0,0,1-.77-.35,2.37,2.37,0,0,1-.2-1.1,2.78,2.78,0,0,1,.2-1.19.79.79,0,0,1,.77-.4Zm1.76,11.36H241V143.1h3.69Z"/><path class="cls-2" d="M330,96H294v36h-6v6h3v12h-3v6h48v-6h-3V138h3v-6h-6Zm-6,36h-9v-6h3v-6h-3V102h9Zm-9,6v12h-6V138Zm-15-36h9v30h-9Zm-3,36h6v12h-6Zm24,12V138h6v12Z"/><rect class="cls-3" x="276" y="90" width="72" height="72"/></g></svg>