<svg xmlns="http://www.w3.org/2000/svg" viewBox="0 0 432 252"><defs><style>.cls-1{fill:#dbd8d7;}.cls-2{fill:#bdb9b9;}.cls-3{fill:#fff;}.cls-4{fill:none;}</style></defs><title>material-55</title><g id="Layer_2" data-name="Layer 2"><rect class="cls-1" width="432" height="252"/></g><g id="Layer_1" data-name="Layer 1"><rect class="cls-2" x="54" y="131.75" width="180" height="0.5"/><rect class="cls-2" x="54" y="149.75" width="180" height="0.5"/><path class="cls-3" d="M270,150.5H162a24.5,24.5,0,0,1,0-49H270a24.5,24.5,0,0,1,0,49Zm-108-48a23.5,23.5,0,0,0,0,47H270a23.5,23.5,0,0,0,0-47Z"/><path class="cls-3" d="M168.62,121.5l-4.5,4.5,4.5,4.5-2.12,2.12-4.5-4.5-4.5,4.5-2.12-2.12,4.5-4.5-4.5-4.5,2.12-2.12,4.5,4.5,4.5-4.5ZM162,114a12,12,0,1,0,12,12A12,12,0,0,0,162,114Z"/><path class="cls-3" d="M205.38,132a3,3,0,0,1-1-.2,2,2,0,0,1-.87-.68v.48a6.39,6.39,0,0,1-.37,2.2,5.44,5.44,0,0,1-1.07,1.82,5.1,5.1,0,0,1-1.68,1.24,5.22,5.22,0,0,1-2.24.46h-1.3a4.89,4.89,0,0,1-3.83-1.51,6,6,0,0,1-1.36-4.16V127.8H193v3.8a5.77,5.77,0,0,0,.24,1.72,3.43,3.43,0,0,0,.72,1.33,3.47,3.47,0,0,0,1.24.87,4.85,4.85,0,0,0,1.81.31h1a4.51,4.51,0,0,0,1.8-.34,3.93,3.93,0,0,0,1.29-.92,3.79,3.79,0,0,0,.77-1.34,5.05,5.05,0,0,0,.25-1.6v-5.92h1.41v3.1A1.52,1.52,0,0,0,204,130a2,2,0,0,0,1.35.45h.24q.48,0,.48.75c0,.51-.16.77-.48.77Zm-7.17-6.78h-1.85v-1.6h1.85Z"/><path class="cls-3" d="M211.43,130.48a1.77,1.77,0,0,0,1.36-.41,1.38,1.38,0,0,0,.38-1,3.07,3.07,0,0,0-.14-.84,2.64,2.64,0,0,0-.72-1.06l-4.75-4.73v-1.56l7.28-2.88.37,1.43L209,121.9l4,4c.73.75,1.36,1.38,1.9,1.9s1,.94,1.37,1.28.71.62,1,.81a3.26,3.26,0,0,0,.73.41,2.32,2.32,0,0,0,.62.17c.2,0,.43,0,.68,0s.48.25.48.75-.16.77-.48.77a5.41,5.41,0,0,1-1.13-.11,3.35,3.35,0,0,1-1-.42,8.21,8.21,0,0,1-1.13-.83c-.41-.36-.9-.82-1.47-1.39a2.68,2.68,0,0,1-.15,1.24,2.12,2.12,0,0,1-.6.85,2.64,2.64,0,0,1-1,.49,4.28,4.28,0,0,1-1.22.17h-5.94a.39.39,0,0,1-.38-.18,1.1,1.1,0,0,1-.1-.55,1.31,1.31,0,0,1,.1-.59.38.38,0,0,1,.38-.2Z"/><path class="cls-3" d="M219.79,130.48a1.93,1.93,0,0,0,1.36-.46,1.64,1.64,0,0,0,.51-1.28V118.36h1.43v10.38a3,3,0,0,1-3.21,3.26h-.66a.41.41,0,0,1-.39-.18,1.1,1.1,0,0,1-.1-.55,1.31,1.31,0,0,1,.1-.59.41.41,0,0,1,.39-.2Z"/><path class="cls-3" d="M226.85,132a3.67,3.67,0,0,1-1.1-.17,2.33,2.33,0,0,1-.94-.56,2.75,2.75,0,0,1-.64-1,4.45,4.45,0,0,1-.25-1.62V118.36h1.43v10a2.73,2.73,0,0,0,.41,1.53,1.49,1.49,0,0,0,1.33.6h.37c.33,0,.49.25.49.75s-.16.77-.49.77Z"/><path class="cls-3" d="M229.45,130.48a2,2,0,0,0,1.37-.46,1.61,1.61,0,0,0,.52-1.28v-3h1.43v3a3.19,3.19,0,0,1-.87,2.41,3.23,3.23,0,0,1-2.37.85h-2.06a.41.41,0,0,1-.39-.18,1.1,1.1,0,0,1-.1-.55,1.31,1.31,0,0,1,.1-.59.41.41,0,0,1,.39-.2Zm.88,5.68h-1.85v-1.61h1.85Z"/><path class="cls-3" d="M273,111H255v18h-3v3h1.5v6H252v3h24v-3h-1.5v-6H276v-3h-3Zm-3,18h-4.5v-3H267v-3h-1.5v-9H270Zm-4.5,3v6h-3v-6ZM258,114h4.5v15H258Zm-1.5,18h3v6h-3Zm12,6v-6h3v6Z"/><rect class="cls-4" x="246" y="108" width="36" height="36"/><rect x="281.73" y="71.98" width="0.5" height="24.02"/><rect x="246" y="83.75" width="36" height="0.5"/><rect x="245.75" y="71.98" width="0.5" height="24"/><path d="M263.56,72H258v-.78l2.95-3.28a7.36,7.36,0,0,0,.91-1.21,2,2,0,0,0,.25-1,1.54,1.54,0,0,0-.41-1.1,1.37,1.37,0,0,0-1.07-.43,1.71,1.71,0,0,0-1.26.46,1.77,1.77,0,0,0-.45,1.28h-1.08a2.49,2.49,0,0,1,.76-1.9,2.78,2.78,0,0,1,2-.73,2.69,2.69,0,0,1,1.88.63,2.12,2.12,0,0,1,.69,1.66,4.89,4.89,0,0,1-1.61,3l-2.28,2.48h4.28Z"/><path d="M269.29,69.13h1.18V70h-1.18v2H268.2V70h-3.89v-.64l3.82-5.91h1.16Zm-3.75,0h2.66V65l-.13.24Z"/><rect x="293.74" y="156" width="0.5" height="24.02"/><rect x="282" y="167.77" width="12" height="0.5"/><rect x="281.75" y="156" width="0.5" height="24"/><path d="M290.51,185.71a2,2,0,0,1-.33,1.14,2.39,2.39,0,0,1-.91.78,2.43,2.43,0,0,1,1.05.84,2.08,2.08,0,0,1,.39,1.24,2.26,2.26,0,0,1-.74,1.77,3.31,3.31,0,0,1-3.94,0,2.26,2.26,0,0,1-.74-1.77,2.09,2.09,0,0,1,.38-1.24,2.36,2.36,0,0,1,1-.85,2.05,2.05,0,0,1-.89-.78,2,2,0,0,1-.33-1.13,2.2,2.2,0,0,1,.69-1.71,2.94,2.94,0,0,1,3.64,0A2.2,2.2,0,0,1,290.51,185.71Zm-.88,4a1.56,1.56,0,0,0-.45-1.16,1.77,1.77,0,0,0-2.37,0,1.62,1.62,0,0,0-.44,1.17,1.51,1.51,0,0,0,.43,1.14,1.92,1.92,0,0,0,2.4,0A1.51,1.51,0,0,0,289.63,189.69ZM288,184.26a1.37,1.37,0,0,0-1,.4,1.42,1.42,0,0,0-.4,1.07,1.45,1.45,0,0,0,.39,1.05,1.55,1.55,0,0,0,2.08,0,1.61,1.61,0,0,0,0-2.11A1.39,1.39,0,0,0,288,184.26Z"/><rect x="149.74" y="156" width="0.5" height="24.02"/><rect x="138" y="167.77" width="12" height="0.5"/><rect x="137.75" y="156" width="0.5" height="24"/><path d="M146.51,185.71a2,2,0,0,1-.33,1.14,2.39,2.39,0,0,1-.91.78,2.43,2.43,0,0,1,1,.84,2.08,2.08,0,0,1,.39,1.24,2.26,2.26,0,0,1-.74,1.77,3.31,3.31,0,0,1-3.94,0,2.23,2.23,0,0,1-.74-1.77,2.09,2.09,0,0,1,.38-1.24,2.36,2.36,0,0,1,1-.85,2.14,2.14,0,0,1-.9-.78,2.07,2.07,0,0,1-.32-1.13,2.2,2.2,0,0,1,.69-1.71,2.94,2.94,0,0,1,3.64,0A2.2,2.2,0,0,1,146.51,185.71Zm-.88,4a1.53,1.53,0,0,0-.46-1.16,1.56,1.56,0,0,0-1.18-.46,1.59,1.59,0,0,0-1.18.45,1.62,1.62,0,0,0-.44,1.17,1.48,1.48,0,0,0,.43,1.14,1.92,1.92,0,0,0,2.4,0A1.55,1.55,0,0,0,145.63,189.69ZM144,184.26a1.36,1.36,0,0,0-1,.4,1.42,1.42,0,0,0-.4,1.07,1.45,1.45,0,0,0,.39,1.05,1.55,1.55,0,0,0,2.08,0,1.45,1.45,0,0,0,.39-1.05,1.48,1.48,0,0,0-.4-1.06A1.41,1.41,0,0,0,144,184.26Z"/><rect class="cls-2" x="172" y="137.75" width="2" height="0.5"/><path class="cls-2" d="M168.85,138.25h-4.21v-.5h4.21Zm-7.36,0h-4.2v-.5h4.2Zm-7.35,0h-4.21v-.5h4.21Zm-7.36,0h-4.2v-.5h4.2Zm-7.36,0h-4.2v-.5h4.2Zm-7.35,0h-4.21v-.5h4.21Zm-7.36,0h-4.2v-.5h4.2Zm-7.35,0h-4.21v-.5h4.21Z"/><rect class="cls-2" x="108" y="137.75" width="2" height="0.5"/><rect class="cls-2" x="172" y="113.75" width="2" height="0.5"/><path class="cls-2" d="M168.85,114.25h-4.21v-.5h4.21Zm-7.36,0h-4.2v-.5h4.2Zm-7.35,0h-4.21v-.5h4.21Zm-7.36,0h-4.2v-.5h4.2Zm-7.36,0h-4.2v-.5h4.2Zm-7.35,0h-4.21v-.5h4.21Zm-7.36,0h-4.2v-.5h4.2Zm-7.35,0h-4.21v-.5h4.21Z"/><rect class="cls-2" x="108" y="113.75" width="2" height="0.5"/><rect class="cls-2" x="316" y="107.75" width="2" height="0.5"/><path class="cls-2" d="M312.91,108.25h-4.12v-.5h4.12Zm-7.21,0h-4.12v-.5h4.12Zm-7.22,0h-4.12v-.5h4.12Zm-7.21,0h-4.12v-.5h4.12Zm-7.21,0h-4.12v-.5h4.12Zm-7.21,0h-4.12v-.5h4.12Zm-7.21,0h-4.12v-.5h4.12Zm-7.22,0H258.3v-.5h4.12Zm-7.21,0h-4.12v-.5h4.12Z"/><rect class="cls-2" x="246" y="107.75" width="2" height="0.5"/><rect class="cls-2" x="316" y="143.75" width="2" height="0.5"/><path class="cls-2" d="M312.91,144.25h-4.12v-.5h4.12Zm-7.21,0h-4.12v-.5h4.12Zm-7.22,0h-4.12v-.5h4.12Zm-7.21,0h-4.12v-.5h4.12Zm-7.21,0h-4.12v-.5h4.12Zm-7.21,0h-4.12v-.5h4.12Zm-7.21,0h-4.12v-.5h4.12Zm-7.22,0H258.3v-.5h4.12Zm-7.21,0h-4.12v-.5h4.12Z"/><rect class="cls-2" x="246" y="143.75" width="2" height="0.5"/><rect class="cls-2" x="173.75" y="148" width="0.5" height="2"/><path class="cls-2" d="M174.25,145.07h-.5v-3.91h.5Zm0-6.85h-.5v-3.91h.5Zm0-6.84h-.5v-3.91h.5Zm0-6.85h-.5v-3.91h.5Zm0-6.84h-.5v-3.91h.5Zm0-6.85h-.5v-3.91h.5Z"/><rect class="cls-2" x="173.75" y="102" width="0.5" height="2"/><rect class="cls-2" x="281.75" y="148" width="0.5" height="2"/><path class="cls-2" d="M282.25,145.07h-.5v-3.91h.5Zm0-6.85h-.5v-3.91h.5Zm0-6.84h-.5v-3.91h.5Zm0-6.85h-.5v-3.91h.5Zm0-6.84h-.5v-3.91h.5Zm0-6.85h-.5v-3.91h.5Z"/><rect class="cls-2" x="281.75" y="102" width="0.5" height="2"/><rect class="cls-2" x="293.75" y="148" width="0.5" height="2"/><path class="cls-2" d="M294.25,145.07h-.5v-3.91h.5Zm0-6.85h-.5v-3.91h.5Zm0-6.84h-.5v-3.91h.5Zm0-6.85h-.5v-3.91h.5Zm0-6.84h-.5v-3.91h.5Zm0-6.85h-.5v-3.91h.5Z"/><rect class="cls-2" x="293.75" y="102" width="0.5" height="2"/><rect class="cls-2" x="137.75" y="148" width="0.5" height="2"/><path class="cls-2" d="M138.25,145.07h-.5v-3.91h.5Zm0-6.85h-.5v-3.91h.5Zm0-6.84h-.5v-3.91h.5Zm0-6.85h-.5v-3.91h.5Zm0-6.84h-.5v-3.91h.5Zm0-6.85h-.5v-3.91h.5Z"/><rect class="cls-2" x="137.75" y="102" width="0.5" height="2"/><rect class="cls-2" x="149.75" y="148" width="0.5" height="2"/><path class="cls-2" d="M150.25,145.07h-.5v-3.91h.5Zm0-6.85h-.5v-3.91h.5Zm0-6.84h-.5v-3.91h.5Zm0-6.85h-.5v-3.91h.5Zm0-6.84h-.5v-3.91h.5Zm0-6.85h-.5v-3.91h.5Z"/><rect class="cls-2" x="149.75" y="102" width="0.5" height="2"/><path class="cls-2" d="M282.25,144.25h-36.5v-36.5h36.5Zm-36-.5h35.5v-35.5h-35.5Z"/><path class="cls-2" d="M174.25,138.25h-24.5v-24.5h24.5Zm-24-.5h23.5v-23.5h-23.5Z"/><rect x="107.99" y="137.75" width="24.01" height="0.5"/><rect x="119.75" y="138" width="0.5" height="12.01"/><rect x="107.98" y="149.74" width="24.01" height="0.5"/><path d="M101.88,141.21a2,2,0,0,1-.33,1.13,2.34,2.34,0,0,1-.92.78,2.4,2.4,0,0,1,1.06.84,2.11,2.11,0,0,1,.39,1.25,2.22,2.22,0,0,1-.75,1.76,3.26,3.26,0,0,1-3.93,0,2.23,2.23,0,0,1-.74-1.76A2.19,2.19,0,0,1,97,144a2.37,2.37,0,0,1,1-.84,2.28,2.28,0,0,1-.9-.78,2,2,0,0,1-.32-1.13,2.2,2.2,0,0,1,.69-1.71,2.91,2.91,0,0,1,3.64,0A2.2,2.2,0,0,1,101.88,141.21Zm-.88,4a1.54,1.54,0,0,0-.46-1.16,1.59,1.59,0,0,0-1.18-.45,1.51,1.51,0,0,0-1.62,1.61,1.52,1.52,0,0,0,.43,1.15,1.69,1.69,0,0,0,1.2.41,1.61,1.61,0,0,0,1.19-.42A1.5,1.5,0,0,0,101,145.18Zm-1.63-5.43a1.39,1.39,0,0,0-1,.4,1.65,1.65,0,0,0,0,2.13,1.55,1.55,0,0,0,2.08,0,1.6,1.6,0,0,0,0-2.12A1.39,1.39,0,0,0,99.37,139.75Z"/><rect x="53.99" y="131.75" width="24.01" height="0.5"/><rect x="65.75" y="132" width="0.5" height="18.01"/><rect x="53.98" y="149.74" width="24.01" height="0.5"/><path d="M46.27,144.51H45.18v-7.22l-2.18.8v-1l3.1-1.17h.17Z"/><path d="M55,144.51H49.45v-.78l2.95-3.28a7,7,0,0,0,.91-1.21,2.07,2.07,0,0,0,.24-1,1.54,1.54,0,0,0-.4-1.1,1.44,1.44,0,0,0-1.08-.43,1.67,1.67,0,0,0-1.25.46,1.77,1.77,0,0,0-.45,1.28H49.28a2.53,2.53,0,0,1,.76-1.9,2.84,2.84,0,0,1,2-.73,2.67,2.67,0,0,1,1.88.63,2.12,2.12,0,0,1,.69,1.66,4.87,4.87,0,0,1-1.6,3l-2.29,2.48H55Z"/><rect x="107.99" y="101.75" width="24.01" height="0.5"/><rect x="119.75" y="102" width="0.5" height="12.01"/><rect x="107.98" y="113.74" width="24.01" height="0.5"/><path d="M101.88,105.21a2,2,0,0,1-.33,1.13,2.34,2.34,0,0,1-.92.78,2.4,2.4,0,0,1,1.06.84,2.11,2.11,0,0,1,.39,1.25,2.22,2.22,0,0,1-.75,1.76,3.26,3.26,0,0,1-3.93,0,2.23,2.23,0,0,1-.74-1.76A2.19,2.19,0,0,1,97,108a2.37,2.37,0,0,1,1-.84,2.28,2.28,0,0,1-.9-.78,2,2,0,0,1-.32-1.13,2.2,2.2,0,0,1,.69-1.71,2.91,2.91,0,0,1,3.64,0A2.2,2.2,0,0,1,101.88,105.21Zm-.88,4a1.54,1.54,0,0,0-.46-1.16,1.59,1.59,0,0,0-1.18-.45,1.51,1.51,0,0,0-1.62,1.61,1.52,1.52,0,0,0,.43,1.15,1.69,1.69,0,0,0,1.2.41,1.61,1.61,0,0,0,1.19-.42A1.5,1.5,0,0,0,101,109.18Zm-1.63-5.43a1.39,1.39,0,0,0-1,.4,1.65,1.65,0,0,0,0,2.13,1.55,1.55,0,0,0,2.08,0,1.6,1.6,0,0,0,0-2.12A1.39,1.39,0,0,0,99.37,103.75Z"/><rect x="299.99" y="101.75" width="24.01" height="0.5"/><rect x="311.75" y="102" width="0.5" height="6"/><rect x="299.98" y="107.74" width="24.01" height="0.5"/><path d="M335.29,105.64h1.18v.89h-1.18v2H334.2v-2h-3.89v-.64l3.82-5.92h1.16Zm-3.75,0h2.66v-4.18l-.13.23Z"/><rect x="299.99" y="143.75" width="24.01" height="0.5"/><rect x="311.75" y="144" width="0.5" height="6"/><rect x="299.98" y="149.74" width="24.01" height="0.5"/><path d="M335.29,147.64h1.18v.89h-1.18v2H334.2v-2h-3.89v-.64l3.82-5.92h1.16Zm-3.75,0h2.66v-4.18l-.13.23Z"/><rect x="299.99" y="107.75" width="24.01" height="0.5"/><rect x="311.75" y="108" width="0.5" height="36"/><rect x="299.98" y="143.68" width="24.01" height="0.5" transform="translate(-0.39 0.84) rotate(-0.15)"/><path d="M328.82,129.51h-5.59v-.78l3-3.28a7.79,7.79,0,0,0,.9-1.21,2,2,0,0,0,.25-1,1.51,1.51,0,0,0-.4-1.09,1.4,1.4,0,0,0-1.08-.43,1.67,1.67,0,0,0-1.26.46,1.75,1.75,0,0,0-.45,1.28h-1.08a2.52,2.52,0,0,1,.76-1.91,2.81,2.81,0,0,1,2-.72,2.73,2.73,0,0,1,1.88.62,2.14,2.14,0,0,1,.69,1.66,4.89,4.89,0,0,1-1.61,3l-2.28,2.48h4.28Z"/><path d="M334.55,126.64h1.18v.89h-1.18v2h-1.09v-2h-3.89v-.64l3.82-5.91h1.16Zm-3.75,0h2.66v-4.18l-.13.23Z"/><rect x="119.75" y="102.04" width="0.5" height="23.99" transform="matrix(0, -1, 1, 0, 5.69, 233.78)"/><rect x="119.75" y="114" width="0.5" height="24.01"/><rect x="107.98" y="137.74" width="24.01" height="0.5" transform="translate(-0.17 0.15) rotate(-0.07)"/><path d="M100.27,129.51H99.18v-7.22l-2.18.8v-1l3.1-1.16h.17Z"/><path d="M107.7,121v.92h-.2a2.89,2.89,0,0,0-2,.75,3.16,3.16,0,0,0-.87,2,2.3,2.3,0,0,1,1.84-.77,2.23,2.23,0,0,1,1.78.78,3.45,3.45,0,0,1-.06,4.14,2.65,2.65,0,0,1-3.91-.15,3.79,3.79,0,0,1-.76-2.43v-.41a5.61,5.61,0,0,1,1-3.6,3.69,3.69,0,0,1,3-1.28Zm-1.42,3.85a1.75,1.75,0,0,0-1,.33,1.72,1.72,0,0,0-.65.84v.4a2.79,2.79,0,0,0,.48,1.7,1.41,1.41,0,0,0,1.18.64,1.37,1.37,0,0,0,1.15-.54,2.59,2.59,0,0,0,0-2.83A1.37,1.37,0,0,0,106.28,124.82Z"/></g></svg>