<?xml version="1.0" encoding="utf-8"?>
<!-- Generator: Adobe Illustrator 23.1.0, SVG Export Plug-In . SVG Version: 6.00 Build 0)  -->
<svg version="1.1" id="Layer_1" xmlns="http://www.w3.org/2000/svg" xmlns:xlink="http://www.w3.org/1999/xlink" x="0px" y="0px"
	 viewBox="0 0 864 504" style="enable-background:new 0 0 864 504;" xml:space="preserve">
<style type="text/css">
	.st0{fill:#F5F1F0;}
	.st1{fill:#FFFFFF;}
	.st2{fill:#C4C4C4;}
	.st3{fill:#4C4B4B;}
	.st4{fill:none;}
	.st5{fill:#858282;}
	.st6{fill:#C7C4C3;}
</style>
<title>material-58</title>
<g>
	<rect x="156" y="84" class="st0" width="552" height="421"/>
	<rect x="156" y="84" class="st1" width="552" height="120"/>
	<rect x="156" y="204" class="st1" width="552" height="72"/>
	<rect x="156" y="84" class="st0" width="552" height="36"/>
	<rect x="672" y="96" class="st2" width="12" height="12"/>
	<path class="st2" d="M634.5,96h15l-7.5,12L634.5,96z"/>
	<path class="st2" d="M660,96L660,96c3.3,0,6,2.7,6,6l0,0c0,3.3-2.7,6-6,6l0,0c-3.3,0-6-2.7-6-6l0,0C654,98.7,656.7,96,660,96z"/>
	<path d="M651,153h-9v18h9l9-9L651,153z"/>
	<path d="M676.5,153h-9v18h9V153z"/>
	<path d="M597,153v9h-4.5v-9h-9v9H579v-9h-9v18h36v-18H597z"/>
	<path d="M615,171v-9c5,0,9-4,9-9h9C633,162.9,624.9,171,615,171z"/>
	<path d="M660,147l12-12l12,12H660z"/>
	<g>
		<path class="st3" d="M301.5,163.8V159c0-3.6-2.5-6.6-6-7.4v-3.1h-3v3.1c-3.5,0.7-6,3.8-6,7.4v4.8l-3,3v4.2h21v-4.2L301.5,163.8z
			 M286.5,168l3-3v-6c0-2.5,2-4.5,4.5-4.5s4.5,2,4.5,4.5v6l3,3H286.5z M291,172.5h6c0,1.7-1.3,3-3,3S291,174.2,291,172.5z"/>
		<rect x="276" y="144" class="st4" width="36" height="36"/>
	</g>
	<path class="st0" d="M660,264.5H552c-13.5,0-24.5-11-24.5-24.5s11-24.5,24.5-24.5h108c13.5,0,24.5,11,24.5,24.5
		S673.5,264.5,660,264.5z M552,216.5c-13,0-23.5,10.5-23.5,23.5s10.5,23.5,23.5,23.5h108c13,0,23.5-10.5,23.5-23.5
		S673,216.5,660,216.5H552z"/>
	<path class="st5" d="M558.6,235.5l-4.5,4.5l4.5,4.5l-2.1,2.1l-4.5-4.5l-4.5,4.5l-2.1-2.1l4.5-4.5l-4.5-4.5l2.1-2.1l4.5,4.5l4.5-4.5
		L558.6,235.5z M552,228c-6.6,0-12,5.4-12,12s5.4,12,12,12s12-5.4,12-12S558.6,228,552,228z"/>
	<path class="st5" d="M589.1,249.8c0.6,0,1.2-0.1,1.7-0.2c0.5-0.1,1-0.4,1.4-0.7c0.4-0.3,0.7-0.6,0.9-1c0.2-0.4,0.3-0.8,0.3-1.2
		c0-0.4-0.1-0.7-0.3-1c-0.4-0.3-0.8-0.5-1.3-0.4H588v-3.8c0-1,0.3-2,1-2.7c0.7-0.7,1.7-1.1,2.7-1h2.5l0.1,1.5h-2.7
		c-0.3,0-0.5,0-0.8,0.1c-0.2,0.1-0.5,0.2-0.7,0.4c-0.2,0.2-0.4,0.4-0.5,0.7c-0.1,0.3-0.2,0.7-0.2,1v2.3h2.7c0.5,0,0.9,0.1,1.4,0.2
		c0.3,0.1,0.6,0.3,0.8,0.6c0.2,0.2,0.4,0.5,0.4,0.9c0.1,0.3,0.1,0.7,0.1,1c0,0.7-0.1,1.3-0.4,1.9c-0.3,0.6-0.7,1.1-1.2,1.6
		c-0.5,0.5-1.1,0.8-1.8,1.1c-0.7,0.3-1.4,0.4-2.2,0.4h-1.9c-1.4,0.1-2.8-0.5-3.8-1.5c-1-1.2-1.4-2.7-1.4-4.2v-3.9h1.4v3.8
		c0,0.6,0.1,1.2,0.2,1.7c0.3,1,1,1.8,2,2.2c0.6,0.2,1.2,0.3,1.8,0.3H589.1z"/>
	<path class="st5" d="M594.3,249.8h0.4c0.6,0,1.3-0.1,1.8-0.4c0.5-0.2,0.9-0.5,1.3-0.9c0.3-0.4,0.6-0.8,0.7-1.3
		c0.2-0.5,0.2-1,0.2-1.6v-5.9h1.4v5.9c0,0.8-0.1,1.6-0.4,2.3c-0.3,0.7-0.6,1.3-1.1,1.8c-0.5,0.5-1,0.9-1.7,1.2
		c-0.7,0.3-1.4,0.4-2.1,0.4h-0.5L594.3,249.8z"/>
	<path class="st5" d="M605.4,246c-0.4,0-0.7-0.1-1.1-0.2c-0.4-0.1-0.7-0.3-0.9-0.6c-0.3-0.3-0.5-0.6-0.6-1c-0.2-0.5-0.3-1.1-0.3-1.6
		v-10.3h1.4v10c0,0.5,0.1,1.1,0.4,1.5c0.3,0.4,0.8,0.6,1.3,0.6h0.4c0.3,0,0.5,0.3,0.5,0.8s-0.2,0.8-0.5,0.8L605.4,246z"/>
	<path class="st5" d="M607.7,244.5c0.5,0,1-0.1,1.4-0.5c0.3-0.3,0.5-0.8,0.5-1.3v-3h1.4v3c0,0.3,0,0.6,0.2,0.8
		c0.1,0.2,0.3,0.4,0.4,0.5c0.2,0.1,0.4,0.2,0.6,0.3c0.2,0.1,0.5,0.1,0.7,0.1h0.7c0.3,0,0.5,0.3,0.5,0.8c0,0.5-0.2,0.8-0.5,0.8h-0.7
		c-0.5,0-1-0.1-1.5-0.3c-0.5-0.2-0.9-0.6-1.1-1.1c-0.3,0.5-0.7,0.9-1.2,1.1c-0.4,0.2-0.9,0.3-1.4,0.3H606c-0.2,0-0.3-0.1-0.4-0.2
		c-0.1-0.2-0.1-0.4-0.1-0.6c0-0.2,0-0.4,0.1-0.6c0.1-0.1,0.2-0.2,0.4-0.2H607.7z M610.7,250.2h-1.8v-1.6h1.8V250.2z"/>
	<path class="st5" d="M615.5,244.5c0.5,0,1-0.1,1.4-0.5c0.4-0.3,0.5-0.8,0.5-1.3v-3h1.4v3c0.1,0.9-0.3,1.8-0.9,2.4
		c-0.6,0.6-1.5,0.9-2.4,0.9h-2.1c-0.2,0-0.3-0.1-0.4-0.2c-0.1-0.2-0.1-0.4-0.1-0.6c0-0.2,0-0.4,0.1-0.6c0.1-0.1,0.2-0.2,0.4-0.2
		L615.5,244.5z M618.2,236.9h-1.8v-1.6h1.8V236.9z"/>
	<path class="st5" d="M621,232.4h1.4V246H621V232.4z"/>
	<path class="st5" d="M667.5,234v12l-13.5,7.5l-13.5-7.5v-12l13.5-7.5L667.5,234z M651.1,231.6l8.9,4.9l2.9-1.6l-8.9-5L651.1,231.6z
		 M652.5,242.4l-9-5v6.8l9,5V242.4z M654,239.8l2.9-1.6l-8.9-4.9l-2.9,1.6L654,239.8z M664.5,237.4l-3,1.7v2.9l-3,1.7v-2.9l-3,1.7
		v6.8l9-5V237.4z"/>
	<rect x="636" y="222" class="st4" width="36" height="36"/>
	<path class="st0" d="M492,264.5H324c-13.5,0-24.5-11-24.5-24.5s11-24.5,24.5-24.5h168c13.5,0,24.5,11,24.5,24.5
		S505.5,264.5,492,264.5z M324,216.5c-13,0-23.5,10.5-23.5,23.5s10.5,23.5,23.5,23.5h168c13,0,23.5-10.5,23.5-23.5
		S505,216.5,492,216.5H324z"/>
	<path class="st5" d="M330.6,235.5l-4.5,4.5l4.5,4.5l-2.1,2.1l-4.5-4.5l-4.5,4.5l-2.1-2.1l4.5-4.5l-4.5-4.5l2.1-2.1l4.5,4.5l4.5-4.5
		L330.6,235.5z M324,228c-6.6,0-12,5.4-12,12s5.4,12,12,12s12-5.4,12-12S330.6,228,324,228z"/>
	<path class="st5" d="M360.4,249.8c0.6,0,1.3-0.1,1.9-0.2c0.4-0.1,0.9-0.3,1.3-0.6c0.3-0.2,0.5-0.5,0.7-0.8c0.1-0.3,0.2-0.6,0.2-0.9
		c0-0.3-0.1-0.6-0.3-0.9c-0.2-0.3-0.6-0.4-0.9-0.4h-3.7l0.1-1.5h7.8c0.3,0,0.5,0.3,0.5,0.8c0,0.5-0.2,0.8-0.5,0.8h-2.2
		c0.2,0.2,0.3,0.4,0.4,0.6c0.1,0.3,0.1,0.5,0.1,0.8c0,0.4-0.1,0.9-0.3,1.3c-0.2,0.5-0.5,0.9-0.9,1.3c-0.5,0.4-1,0.8-1.6,1
		c-0.8,0.3-1.6,0.4-2.5,0.4h-2.2c-1.4,0.1-2.8-0.5-3.8-1.5c-1-1.2-1.4-2.7-1.4-4.2v-3.9h1.4v3.8c0,0.6,0.1,1.2,0.2,1.7
		c0.1,0.5,0.4,0.9,0.7,1.3c0.3,0.4,0.8,0.7,1.3,0.9c0.6,0.2,1.2,0.3,1.8,0.3H360.4z"/>
	<path class="st5" d="M373.3,244.5c0.5,0.1,1-0.1,1.4-0.4c0.3-0.3,0.4-0.6,0.4-1c0-0.3,0-0.6-0.1-0.8c-0.2-0.4-0.4-0.8-0.7-1.1
		l-4.8-4.7v-1.6l7.3-2.9l0.4,1.4l-6.3,2.4l4,4c0.7,0.8,1.4,1.4,1.9,1.9s1,0.9,1.4,1.3c0.3,0.3,0.6,0.6,1,0.8
		c0.2,0.2,0.5,0.3,0.7,0.4c0.2,0.1,0.4,0.1,0.6,0.2c0.2,0,0.4,0,0.7,0s0.5,0.3,0.5,0.8s-0.2,0.8-0.5,0.8c-0.4,0-0.8,0-1.1-0.1
		c-0.4-0.1-0.7-0.2-1-0.4c-0.4-0.2-0.8-0.5-1.1-0.8c-0.4-0.4-0.9-0.8-1.5-1.4c0.1,0.4,0,0.8-0.1,1.2c-0.1,0.3-0.3,0.6-0.6,0.9
		c-0.3,0.2-0.6,0.4-1,0.5c-0.4,0.1-0.8,0.2-1.2,0.2h-6c-0.2,0-0.3,0-0.4-0.2c-0.1-0.2-0.1-0.4-0.1-0.6c0-0.2,0-0.4,0.1-0.6
		c0.1-0.1,0.2-0.2,0.4-0.2L373.3,244.5z M369.4,231.9l6.6-2.7l0.3,1.1l-6.8,2.7L369.4,231.9z"/>
	<path class="st5" d="M383.1,244.5c0.5,0,1-0.1,1.4-0.5c0.3-0.3,0.5-0.8,0.5-1.3v-3h1.4v3c0.1,1.7-1.1,3.1-2.7,3.3
		c-0.2,0-0.3,0-0.5,0h-2.1c-0.2,0-0.3-0.1-0.4-0.2c-0.1-0.2-0.1-0.4-0.1-0.6c0-0.2,0-0.4,0.1-0.6c0.1-0.1,0.2-0.2,0.4-0.2H383.1z
		 M385.8,236.9H384v-1.6h1.9L385.8,236.9z"/>
	<path class="st5" d="M391.9,246c-0.4,0-0.8-0.1-1.1-0.2c-0.4-0.1-0.7-0.3-0.9-0.6c-0.3-0.3-0.5-0.6-0.6-1c-0.2-0.5-0.3-1.1-0.2-1.6
		v-10.3h1.4v10c0,0.5,0.1,1.1,0.4,1.5c0.3,0.4,0.8,0.6,1.3,0.6h0.4c0.3,0,0.5,0.3,0.5,0.8c0,0.5-0.2,0.8-0.5,0.8L391.9,246z"/>
	<path class="st5" d="M398.9,244.7c-0.4,0.2-0.8,0.4-1.1,0.6c-0.4,0.2-0.7,0.3-1.1,0.4c-0.4,0.1-0.9,0.2-1.4,0.2
		c-0.6,0.1-1.1,0.1-1.7,0.1h-1.1c-0.2,0-0.3-0.1-0.4-0.2c-0.1-0.2-0.1-0.4-0.1-0.6c0-0.2,0-0.4,0.1-0.6c0.1-0.1,0.2-0.2,0.4-0.2h1.1
		c0.6,0,1.1,0,1.5,0c0.4,0,0.8-0.1,1.2-0.2c0.3-0.1,0.7-0.2,1-0.3c0.3-0.1,0.7-0.3,1-0.5l3.7-2.2c-0.1-0.3-0.2-0.6-0.4-0.9
		c-0.1-0.2-0.3-0.5-0.5-0.6c-0.2-0.2-0.5-0.3-0.7-0.4c-0.4-0.1-0.7-0.2-1.1-0.1h-4.9l0.1-1.5h5c0.4,0,0.8,0,1.2,0.1
		c0.4,0.1,0.8,0.3,1.1,0.6c0.4,0.4,0.7,0.8,1,1.3c0.4,0.7,0.6,1.5,0.8,2.2L398.9,244.7z M399,235.2h-1.9v-1.6h1.9L399,235.2z"/>
	<path class="st5" d="M420.1,245.6c0,0.8-0.1,1.5-0.4,2.2c-0.2,0.7-0.6,1.3-1.1,1.8c-1,1.1-2.5,1.7-4,1.7h-1.3
		c-1.4,0.1-2.8-0.5-3.8-1.5c-1-1.2-1.5-2.7-1.4-4.2v-3.8h1.4v3.8c0,0.6,0.1,1.2,0.2,1.7c0.1,0.5,0.4,0.9,0.7,1.3
		c0.3,0.4,0.8,0.7,1.2,0.9c0.6,0.2,1.2,0.3,1.8,0.3h1c0.6,0,1.2-0.1,1.8-0.3c0.5-0.2,0.9-0.5,1.3-0.9c0.4-0.4,0.6-0.8,0.8-1.3
		c0.2-0.5,0.3-1.1,0.3-1.6v-5.9h1.4L420.1,245.6z M414.8,239.2h-1.9v-1.6h1.9V239.2z"/>
	<path class="st5" d="M422.7,232.4h1.4V246h-1.4V232.4z"/>
	<path class="st5" d="M428.7,249.8c0.6,0,1.2-0.1,1.7-0.3c0.9-0.4,1.7-1.1,2-2.1c0.2-0.5,0.3-1,0.3-1.5h-2.2c-0.6,0-1.2-0.1-1.8-0.2
		c-0.4-0.1-0.8-0.4-1.1-0.7c-0.3-0.3-0.5-0.7-0.6-1.1c-0.1-0.5-0.2-1-0.2-1.5c0-0.5,0.1-1.1,0.3-1.6c0.1-0.5,0.4-0.9,0.7-1.3
		c0.3-0.4,0.7-0.7,1.2-0.9c0.5-0.2,1-0.3,1.6-0.3c0.5,0,0.9,0.1,1.4,0.2c0.4,0.2,0.8,0.4,1.2,0.8c0.4,0.4,0.6,0.8,0.8,1.4
		c0.2,0.6,0.3,1.3,0.3,2v1.8h2.1c0.2,0,0.3,0.1,0.4,0.2c0.1,0.2,0.1,0.4,0.1,0.6c0,0.2,0,0.4-0.1,0.6c-0.1,0.1-0.2,0.2-0.4,0.2h-2.1
		c0,0.7-0.2,1.4-0.4,2.1c-0.2,0.6-0.6,1.2-1.1,1.7c-1,1-2.3,1.6-3.8,1.6h-2.3l-0.1-1.5L428.7,249.8z M428.2,242.4c0,0.3,0,0.7,0.1,1
		c0.1,0.3,0.2,0.5,0.4,0.6c0.2,0.2,0.5,0.3,0.8,0.4c0.4,0.1,0.9,0.1,1.3,0.1h2v-1.6c0.1-0.8-0.2-1.7-0.6-2.3
		c-0.5-0.5-1.1-0.7-1.8-0.7c-0.6,0-1.2,0.2-1.6,0.7C428.3,241.1,428.1,241.7,428.2,242.4L428.2,242.4z"/>
	<path class="st5" d="M437.9,244.5c0.5,0,1-0.1,1.4-0.5c0.3-0.3,0.5-0.8,0.5-1.3v-3h1.4v3c0,0.3,0,0.6,0.2,0.8
		c0.1,0.2,0.3,0.4,0.4,0.5c0.2,0.1,0.4,0.2,0.6,0.3c0.2,0.1,0.5,0.1,0.7,0.1h0.7c0.3,0,0.5,0.3,0.5,0.8s-0.2,0.8-0.5,0.8h-0.7
		c-0.5,0-1-0.1-1.5-0.3c-0.5-0.2-0.9-0.6-1.1-1.1c-0.3,0.5-0.7,0.9-1.2,1.1c-0.4,0.2-0.9,0.3-1.4,0.3h-1.7c-0.2,0-0.3-0.1-0.4-0.2
		c-0.1-0.2-0.1-0.4-0.1-0.6c0-0.2,0-0.4,0.1-0.6c0.1-0.1,0.2-0.2,0.4-0.2H437.9z M439.3,250.1h-1.7v-1.6h1.7V250.1z M442.2,250.1
		h-1.7v-1.6h1.7V250.1z"/>
	<path class="st5" d="M450.1,244.7c-0.4,0.2-0.8,0.4-1.1,0.6c-0.4,0.2-0.8,0.3-1.1,0.4c-0.4,0.1-0.9,0.2-1.4,0.2
		c-0.6,0.1-1.1,0.1-1.7,0.1h-1.1c-0.2,0-0.3-0.1-0.4-0.2c-0.1-0.2-0.1-0.4-0.1-0.6c0-0.2,0-0.4,0.1-0.6c0.1-0.1,0.2-0.2,0.4-0.2h1.1
		c0.6,0,1.1,0,1.5,0c0.4,0,0.8-0.1,1.2-0.2c0.3-0.1,0.7-0.2,1-0.3c0.3-0.1,0.7-0.3,1-0.5l3.7-2.2c-0.1-0.3-0.2-0.6-0.4-0.9
		c-0.1-0.2-0.3-0.5-0.5-0.6c-0.2-0.2-0.5-0.3-0.7-0.4c-0.4-0.1-0.7-0.2-1.1-0.1h-4.9l0.1-1.5h5c0.4,0,0.8,0,1.2,0.1
		c0.4,0.1,0.8,0.3,1.1,0.6c0.4,0.4,0.7,0.8,1,1.3c0.4,0.7,0.6,1.5,0.8,2.2L450.1,244.7z"/>
	<path class="st5" d="M496.5,228l-2.1-2.1l-2.4,2.4l-1.1,1.1l-6.2,6.2h-10.1l-2.6-2.6l-2.1,2.1l2.6,2.6v6.9L471,246v6h3v-4.8
		l1.2-1.2h12.3v6h3v-9.3l1.5-1.5l1.8,1.8h4l4.5-4.5l-8.1-8.1L496.5,228z M496.5,240H495l-3-3l-4.5,4.5v1.5h-12v-4.5H486l6-6l6,6
		L496.5,240z"/>
	<rect x="468" y="222" class="st4" width="36" height="36"/>
	<path class="st0" d="M264,264.5H96c-13.5,0-24.5-11-24.5-24.5s11-24.5,24.5-24.5h168c13.5,0,24.5,11,24.5,24.5
		S277.5,264.5,264,264.5z M96,216.5c-13,0-23.5,10.5-23.5,23.5S83,263.5,96,263.5h168c13,0,23.5-10.5,23.5-23.5S277,216.5,264,216.5
		H96z"/>
	<path class="st5" d="M102.6,235.5l-4.5,4.5l4.5,4.5l-2.1,2.1l-4.5-4.5l-4.5,4.5l-2.1-2.1l4.5-4.5l-4.5-4.5l2.1-2.1l4.5,4.5l4.5-4.5
		L102.6,235.5z M96,228c-6.6,0-12,5.4-12,12s5.4,12,12,12s12-5.4,12-12S102.6,228,96,228z"/>
	<path class="st5" d="M135.5,240.8c0.3,0.4,0.6,0.8,0.8,1.3c0.2,0.4,0.2,0.8,0.3,1.2c0,0.8-0.3,1.5-0.9,2c-0.7,0.6-1.5,0.8-2.4,0.8
		h-6.1l-0.1-1.5h6.1c0.5,0,0.9-0.1,1.3-0.4c0.3-0.2,0.5-0.6,0.5-1c0-0.2-0.1-0.5-0.1-0.7c-0.1-0.3-0.3-0.5-0.5-0.7l-4.1-4.6l1.1-1.1
		L135.5,240.8z"/>
	<path class="st5" d="M141.3,245.6c0,0.8-0.1,1.6-0.4,2.3c-0.2,0.7-0.6,1.3-1.1,1.8c-0.5,0.5-1,0.9-1.7,1.2
		c-0.7,0.3-1.4,0.4-2.1,0.4h-1.3l-0.1-1.5h1.1c0.6,0,1.3-0.1,1.9-0.4c0.5-0.2,0.9-0.5,1.3-0.9c0.3-0.4,0.6-0.8,0.7-1.3
		c0.2-0.5,0.3-1,0.3-1.6v-5.9h1.4v3.1c0,0.5,0.2,0.9,0.5,1.2c0.4,0.3,0.9,0.5,1.4,0.4h0.2c0.3,0,0.5,0.3,0.5,0.8
		c0,0.5-0.2,0.8-0.5,0.8h-0.2c-0.4,0-0.7-0.1-1.1-0.2c-0.4-0.1-0.7-0.4-0.9-0.7L141.3,245.6z"/>
	<path class="st5" d="M153,242.9c0.2,0.5,0.5,0.9,0.9,1.3c0.4,0.3,0.8,0.4,1.3,0.4h1.4c0.2,0,0.3,0.1,0.4,0.2
		c0.1,0.2,0.1,0.4,0.1,0.6c0,0.2,0,0.4-0.1,0.6c-0.1,0.1-0.2,0.2-0.4,0.2H155c-0.4,0-0.8-0.1-1.2-0.2c-0.3-0.1-0.6-0.3-0.8-0.5
		c-0.2-0.2-0.4-0.5-0.6-0.8c-0.2-0.3-0.3-0.7-0.4-1l-2.1,1.3c-0.4,0.2-0.7,0.4-1.1,0.6c-0.4,0.2-0.7,0.3-1.1,0.4
		c-0.4,0.1-0.9,0.2-1.4,0.2c-0.6,0.1-1.1,0.1-1.7,0.1h-1.1c-0.2,0-0.3-0.1-0.4-0.2c-0.1-0.2-0.1-0.4-0.1-0.6c0-0.2,0-0.4,0.1-0.6
		c0.1-0.1,0.2-0.2,0.4-0.2h1.1c0.6,0,1.1,0,1.5,0c0.4,0,0.8-0.1,1.2-0.2c0.3-0.1,0.7-0.2,1-0.3c0.3-0.1,0.7-0.3,1-0.5l3.7-2.2
		c-0.1-0.3-0.3-0.6-0.4-0.9c-0.1-0.2-0.3-0.5-0.5-0.6c-0.2-0.2-0.5-0.3-0.7-0.4c-0.4-0.1-0.7-0.2-1.1-0.1h-4.9l0.1-1.5h5
		c0.4,0,0.8,0,1.2,0.1c0.4,0.1,0.8,0.3,1.1,0.6c0.4,0.4,0.7,0.8,1,1.3c0.4,0.7,0.6,1.5,0.8,2.2L153,242.9z M149.8,250.2h-1.9v-1.6
		h1.9V250.2z"/>
	<path class="st5" d="M156.9,244.5c0.5,0,0.9-0.1,1.3-0.4c0.3-0.3,0.5-0.7,0.4-1.1v-0.8c-0.1-1.1,0.3-2.2,1-3
		c0.7-0.7,1.7-1.1,2.7-1.1c0.5,0,1.1,0.1,1.6,0.3c0.4,0.2,0.8,0.5,1.1,0.8c0.3,0.4,0.5,0.8,0.7,1.3c0.2,0.5,0.2,1.1,0.2,1.6
		c0.1,1.1-0.3,2.1-1,2.9c-0.7,0.7-1.7,1.1-2.7,1.1c-0.6,0-1.2-0.1-1.7-0.3c-0.6-0.2-1-0.7-1.3-1.2c-0.1,0.3-0.3,0.6-0.5,0.8
		c-0.2,0.2-0.4,0.3-0.6,0.5c-0.2,0.1-0.4,0.2-0.6,0.2c-0.2,0-0.4,0-0.6,0.1h-0.4c-0.2,0-0.3-0.1-0.4-0.2c-0.1-0.2-0.1-0.4-0.1-0.6
		c0-0.2,0-0.4,0.1-0.6c0.1-0.1,0.2-0.2,0.4-0.2L156.9,244.5z M164.6,242.1c0-0.7-0.1-1.3-0.5-1.9c-0.4-0.5-1.1-0.8-1.7-0.7
		c-1.5,0-2.3,0.9-2.3,2.7c0,0.6,0.2,1.2,0.6,1.7c0.4,0.4,1,0.6,1.6,0.6c0.6,0,1.2-0.2,1.7-0.6C164.4,243.4,164.6,242.8,164.6,242.1
		L164.6,242.1z"/>
	<path class="st5" d="M179.3,242.4c0,0.5,0.1,1.1,0.4,1.5c0.3,0.4,0.8,0.6,1.4,0.6h0.4c0.2,0,0.3,0.1,0.4,0.2
		c0.1,0.2,0.1,0.4,0.1,0.6c0,0.2,0,0.4-0.1,0.6c-0.1,0.1-0.2,0.2-0.4,0.2H181c-0.6,0-1.2-0.1-1.8-0.4c-0.5-0.4-0.9-0.9-1-1.6
		c-0.2,0.2-0.4,0.4-0.6,0.6c-0.3,0.1-0.5,0.3-0.8,0.3c-0.3,0.1-0.6,0.1-0.9,0.2c-0.3,0-0.5,0-0.8,0c-0.9,0.1-1.8-0.2-2.4-0.8
		c-0.6-0.7-0.9-1.7-0.9-2.6c0-0.5,0.1-1.1,0.2-1.6c0.1-0.5,0.4-1,0.7-1.4c0.3-0.4,0.7-0.8,1.1-1c0.5-0.3,1.1-0.4,1.6-0.4h2.4v-1.5
		h1.4V242.4z M175.4,243.7c0.6,0,1.3-0.1,1.8-0.5c0.4-0.2,0.7-0.7,0.7-1.2v-3.3h-2.4c-0.7,0-1.3,0.2-1.8,0.8c-0.4,0.6-0.6,1.3-0.6,2
		c-0.1,0.6,0.1,1.2,0.6,1.7C174.2,243.5,174.8,243.7,175.4,243.7L175.4,243.7z"/>
	<path class="st5" d="M183.3,244.5c0.5,0,1-0.1,1.4-0.5c0.4-0.3,0.5-0.8,0.5-1.3v-3h1.4v3c0.1,0.9-0.3,1.8-0.9,2.4
		c-0.6,0.6-1.5,0.9-2.4,0.9h-2.1c-0.2,0-0.3-0.1-0.4-0.2c-0.1-0.2-0.1-0.4-0.1-0.6c0-0.2,0-0.4,0.1-0.6c0.1-0.1,0.2-0.2,0.4-0.2
		L183.3,244.5z M184.2,250.2h-1.9v-1.6h1.9V250.2z"/>
	<path class="st5" d="M192.4,242.6c0-0.4,0.1-0.8,0.2-1.3c0.1-0.4,0.3-0.8,0.6-1.2c0.3-0.5,0.6-0.9,0.9-1.3c0.4-0.4,0.8-0.9,1.4-1.5
		l-1-1l1-1c0.9,0.9,1.7,1.7,2.3,2.3c0.5,0.6,1,1.1,1.5,1.8c0.3,0.5,0.6,0.9,0.8,1.5c0.2,0.5,0.2,0.9,0.2,1.4c0,0.5-0.1,1-0.3,1.5
		c-0.2,0.4-0.5,0.8-0.9,1.1c-0.4,0.3-0.8,0.6-1.3,0.8c-0.5,0.2-1,0.3-1.6,0.3c-0.5,0-1.1-0.1-1.6-0.3c-0.4-0.2-0.8-0.4-1.2-0.7
		c-0.3-0.3-0.6-0.7-0.8-1.1C192.4,243.6,192.3,243.1,192.4,242.6z M198.7,242.3c0-0.3,0-0.6-0.1-0.8c-0.1-0.3-0.2-0.6-0.4-0.9
		c-0.2-0.4-0.5-0.7-0.8-1c-0.3-0.4-0.7-0.8-1.2-1.2c-0.5,0.5-0.9,1-1.3,1.4c-0.3,0.3-0.5,0.7-0.8,1.1c-0.2,0.3-0.3,0.5-0.4,0.8
		c-0.1,0.2-0.1,0.5-0.1,0.8c0,0.6,0.2,1.1,0.6,1.5c0.5,0.4,1.1,0.6,1.8,0.6c0.3,0,0.7-0.1,1-0.2c0.3-0.1,0.6-0.3,0.8-0.5
		c0.2-0.2,0.4-0.4,0.5-0.7C198.7,242.9,198.7,242.6,198.7,242.3z"/>
	<path class="st5" d="M204.6,248c-0.2,0.7-0.6,1.3-1.1,1.8c-0.5,0.5-1,0.9-1.7,1.2c-0.7,0.3-1.4,0.4-2.1,0.4h-1.3l-0.1-1.5h1.1
		c0.6,0,1.3-0.1,1.9-0.4c1-0.4,1.7-1.3,2-2.3c0.2-0.5,0.2-1,0.2-1.6v-5.9h1.5v5.9C205,246.5,204.8,247.3,204.6,248z"/>
	<path class="st5" d="M210.7,246c-0.4,0-0.7-0.1-1.1-0.2c-0.4-0.1-0.7-0.3-0.9-0.6c-0.3-0.3-0.5-0.6-0.6-1c-0.2-0.5-0.3-1.1-0.2-1.6
		v-10.3h1.4v10c0,0.5,0.1,1.1,0.4,1.5c0.3,0.4,0.8,0.6,1.3,0.6h0.4c0.3,0,0.5,0.3,0.5,0.8c0,0.5-0.2,0.8-0.5,0.8L210.7,246z"/>
	<path class="st5" d="M217.6,244.7c-0.4,0.2-0.8,0.4-1.1,0.6c-0.4,0.2-0.8,0.3-1.1,0.4c-0.4,0.1-0.9,0.2-1.4,0.2
		c-0.6,0.1-1.1,0.1-1.7,0.1h-1.1c-0.2,0-0.3-0.1-0.4-0.2c-0.1-0.2-0.1-0.4-0.1-0.6c0-0.2,0-0.4,0.1-0.6c0.1-0.1,0.2-0.2,0.4-0.2h1.1
		c0.6,0,1.1,0,1.5,0c0.4,0,0.8-0.1,1.2-0.2c0.3-0.1,0.7-0.2,1-0.3c0.3-0.1,0.7-0.3,1-0.5l3.7-2.2c-0.1-0.3-0.2-0.6-0.4-0.9
		c-0.1-0.2-0.3-0.5-0.5-0.6c-0.2-0.2-0.5-0.3-0.7-0.4c-0.4-0.1-0.7-0.2-1.1-0.1h-4.9l0.1-1.5h5c0.4,0,0.8,0,1.2,0.1
		c0.4,0.1,0.8,0.3,1.1,0.6c0.4,0.4,0.7,0.8,1,1.3c0.4,0.7,0.6,1.5,0.8,2.2L217.6,244.7z M217.6,250.2h-1.9v-1.6h1.9V250.2z"/>
	<path class="st5" d="M225,232.4h1.4V246H225V232.4z"/>
	<path class="st5" d="M265.2,240h-14.5l-3.3,3.3v10.1l10.5-2.5l10.5,2.5v-10.1L265.2,240z M265.5,249.6l-1.1-0.3l-0.7-2.9l-5.7,1.4
		l-5.7-1.4l-0.7,2.9l-1.1,0.3v-5.1l1.5-1.5h12l1.5,1.5V249.6z M258,238.5c3.3,0,6-2.7,6-6s-2.7-6-6-6c-3.3,0-6,2.7-6,6
		S254.7,238.5,258,238.5z M258,229.5c1.7,0,3,1.3,3,3s-1.3,3-3,3s-3-1.3-3-3S256.3,229.5,258,229.5z"/>
	<rect x="240" y="222" class="st4" width="36" height="36"/>
	<rect x="48" y="204" class="st1" width="108" height="72"/>
	<rect x="156" y="288" class="st6" width="552" height="217"/>
	<polygon class="st0" points="708.5,505 707.5,505 707.5,84.5 156.5,84.5 156.5,505 155.5,505 155.5,83.5 708.5,83.5 	"/>
	<path class="st1" d="M462,463c0-3.3,2.7-6,6-6s6,2.7,6,6s-2.7,6-6,6S462,466.3,462,463z M492,439v66H384v-11l0.1-0.1V439H492z
		 M480,451h-83.9v30.9l24-23.9l29.9,30l12-12l18,18V451z"/>
	<path class="st6" d="M246,180h-36c-9.9,0-18-8.1-18-18v0c0-9.9,8.1-18,18-18h36c9.9,0,18,8.1,18,18v0C264,171.9,255.9,180,246,180z
		"/>
	<g>
		<path class="st1" d="M246,147L246,147c8.3,0,15,6.7,15,15v0c0,8.3-6.7,15-15,15h0c-8.3,0-15-6.7-15-15v0
			C231,153.7,237.7,147,246,147z"/>
		<g>
			<path class="st3" d="M237,160.5h12v3h-12V160.5z M237,169.5h12v-3h-12V169.5z M237,157.5h12v-3h-12V157.5z M252,154.5v3h3v-3H252
				z M252,163.5h3v-3h-3V163.5z M252,169.5h3v-3h-3V169.5z"/>
			<rect x="234" y="150" class="st4" width="24" height="24"/>
		</g>
	</g>
	<g>
		<circle class="st5" cx="210.1" cy="159.8" r="2.3"/>
		<path class="st5" d="M210.1,173.1l-7.5-7.5v-10.2l3.9-3.9h7.2l3.9,3.9v10.2L210.1,173.1z M205.6,164.4l4.5,4.5l4.5-4.5v-7.8
			l-2.1-2.1h-4.8l-2.1,2.1V164.4z"/>
		<rect x="198" y="150" class="st4" width="24" height="24"/>
	</g>
</g>
</svg>
