<svg xmlns="http://www.w3.org/2000/svg" xmlns:xlink="http://www.w3.org/1999/xlink" viewBox="0 0 1080 1920"><defs><style>.cls-1{fill:#4672e2;}.cls-2{fill:url(#linear-gradient);}.cls-3{fill:url(#linear-gradient-2);}.cls-4{fill:url(#linear-gradient-3);}.cls-5{fill:#fff;}.cls-6{fill:#082b96;}.cls-7{fill:url(#linear-gradient-4);}.cls-8{fill:url(#linear-gradient-5);}.cls-9{fill:#061f6b;}.cls-10{fill:url(#linear-gradient-6);}.cls-11{fill:url(#linear-gradient-7);}</style><linearGradient id="linear-gradient" x1="13603.72" y1="14718.45" x2="13603.72" y2="13638.45" gradientTransform="translate(-13638.45 13853.72) rotate(-90)" gradientUnits="userSpaceOnUse"><stop offset="0" stop-color="#fff" stop-opacity="0"/><stop offset="0.51" stop-color="#fff"/><stop offset="1" stop-color="#fff" stop-opacity="0"/></linearGradient><linearGradient id="linear-gradient-2" x1="13282.73" y1="14718.45" x2="13282.73" y2="13638.45" xlink:href="#linear-gradient"/><linearGradient id="linear-gradient-3" x1="13369.09" y1="14718.45" x2="13369.09" y2="13638.45" xlink:href="#linear-gradient"/><linearGradient id="linear-gradient-4" x1="21411.35" y1="6234.44" x2="21411.35" y2="5154.44" gradientTransform="translate(-20417.72 -5154.44)" xlink:href="#linear-gradient"/><linearGradient id="linear-gradient-5" x1="12637.32" y1="11816.44" x2="12637.32" y2="9896.53" gradientTransform="translate(12723.72 11816.44) rotate(180)" xlink:href="#linear-gradient"/><linearGradient id="linear-gradient-6" x1="12183.72" y1="14718.45" x2="12183.72" y2="13638.45" xlink:href="#linear-gradient"/><linearGradient id="linear-gradient-7" x1="11730.15" y1="11816.44" x2="11730.15" y2="9896.53" gradientTransform="translate(12723.72 11816.44) rotate(180)" xlink:href="#linear-gradient"/></defs><g id="Graphic"><path class="cls-1" d="M98.77,471.82,89.69,483H99v1.66H87.4V483l9.16-11.25H87.88v-1.67H98.77Z"/><path class="cls-1" d="M108.05,483.34a3.71,3.71,0,0,0,4-3.33l1.89.3a4.93,4.93,0,0,1-1.9,3.41,6.36,6.36,0,0,1-4,1.26,6.48,6.48,0,0,1-5.1-2,8.17,8.17,0,0,1-1.76-5.66,8,8,0,0,1,1.83-5.52,6.36,6.36,0,0,1,5-2.06,5.85,5.85,0,0,1,4.57,1.79,7.14,7.14,0,0,1,1.63,5v1.23H103.24C103.35,481.49,105,483.34,108.05,483.34ZM108,471.4a4.34,4.34,0,0,0-3.22,1.21,5.77,5.77,0,0,0-1.44,3.55h8.78Q111.86,471.41,108,471.4Z"/><path class="cls-1" d="M123.79,483.34a3.7,3.7,0,0,0,4-3.33l1.9.3a5,5,0,0,1-1.91,3.41,6.36,6.36,0,0,1-4,1.26,6.48,6.48,0,0,1-5.1-2,8.17,8.17,0,0,1-1.76-5.66,8,8,0,0,1,1.84-5.52,6.33,6.33,0,0,1,5-2.06,5.89,5.89,0,0,1,4.58,1.79,7.18,7.18,0,0,1,1.62,5v1.23H119C119.09,481.49,120.7,483.34,123.79,483.34Zm-.09-11.94a4.34,4.34,0,0,0-3.23,1.21,5.77,5.77,0,0,0-1.43,3.55h8.77Q127.6,471.41,123.7,471.4Z"/><path class="cls-1" d="M139.54,483.34a3.7,3.7,0,0,0,4-3.33l1.9.3a5,5,0,0,1-1.91,3.41,6.33,6.33,0,0,1-4,1.26,6.49,6.49,0,0,1-5.11-2,8.22,8.22,0,0,1-1.76-5.66,8,8,0,0,1,1.84-5.52,6.33,6.33,0,0,1,5-2.06,5.88,5.88,0,0,1,4.58,1.79,7.18,7.18,0,0,1,1.62,5v1.23H134.72Q134.89,483.34,139.54,483.34Zm-.1-11.94a4.34,4.34,0,0,0-3.23,1.21,5.77,5.77,0,0,0-1.43,3.55h8.77Q143.34,471.41,139.44,471.4Z"/><path class="cls-1" d="M161.46,475.24v9.38h-2v-9a4.26,4.26,0,0,0-1-3,3.58,3.58,0,0,0-2.8-1.07,3.94,3.94,0,0,0-3.22,1.32,6,6,0,0,0-1.1,3.88v7.9h-2v-14.5h2V472a5.15,5.15,0,0,1,4.64-2.26,5,5,0,0,1,5.46,5.46Z"/><path class="cls-1" d="M165.65,481.79h2.69v2.83h-2.69Z"/><path class="cls-1" d="M174.69,467.53h-2v-3.34h2Zm0,17.09h-2v-14.5h2Z"/><path class="cls-1" d="M181.33,484.62h-2v-14.5h2V473a4.6,4.6,0,0,1,4.32-2.84h1.08V472h-1.08a3.64,3.64,0,0,0-3.12,1.78,8.14,8.14,0,0,0-1.2,4.65Z"/><path class="cls-1" d="M778.55,447.22a6,6,0,0,1-.65,2.76,11,11,0,0,1-1.72,2.45,18.81,18.81,0,0,1-2.45,2.2q-1.4,1-2.82,2l-1.95-1.8c.89-.59,1.78-1.19,2.65-1.81a29,29,0,0,0,2.36-1.86,11.19,11.19,0,0,0,1.7-1.8,3,3,0,0,0,.64-1.65,3.75,3.75,0,0,0-.13-.85,8.61,8.61,0,0,0-.38-1.06q-.25-.57-.57-1.17a11.2,11.2,0,0,0-.7-1.12l2-1.93a10.88,10.88,0,0,1,.88,1.46,14.67,14.67,0,0,1,.64,1.5,13.11,13.11,0,0,1,.41,1.43A5.81,5.81,0,0,1,778.55,447.22Z"/><path class="cls-1" d="M791.92,445.21a4.91,4.91,0,0,1-.51,2.4A3.59,3.59,0,0,1,790,449a5.91,5.91,0,0,1-2,.67,16.56,16.56,0,0,1-2.51.18,7.45,7.45,0,0,1-2.34-.34,4.25,4.25,0,0,1-1.77-1.18l1.16-2.19a4.91,4.91,0,0,0,3,.82,10.57,10.57,0,0,0,3.19-.37c.75-.24,1.12-.62,1.12-1.15,0-1.44-1.52-3.15-4.58-5.13l1.14-2.75a16.48,16.48,0,0,1,1.94,1.4,12.77,12.77,0,0,1,1.77,1.83,10.12,10.12,0,0,1,1.28,2.13A5.56,5.56,0,0,1,791.92,445.21Z"/><path class="cls-1" d="M807.7,458.16a8.19,8.19,0,0,1-2.87-.47,6.08,6.08,0,0,1-2.22-1.35,6.23,6.23,0,0,1-1.43-2.16,7.73,7.73,0,0,1-.51-2.9,8,8,0,0,1,.41-2.59,14.19,14.19,0,0,1,1.16-2.55l1.84.73a5,5,0,0,0-.46.93c-.14.35-.26.71-.37,1.07a8.68,8.68,0,0,0-.25,1,4.69,4.69,0,0,0-.08.84q0,4.61,5.16,4.61a12.32,12.32,0,0,0,2.41-.23,13.55,13.55,0,0,0,2-.56,7.67,7.67,0,0,0,1.39-.64,2,2,0,0,0,.61-.47.24.24,0,0,0-.16-.19l-.31-.1-2.54-.61a5.94,5.94,0,0,1-.81-.23A3,3,0,0,1,810,452a1.5,1.5,0,0,1-.48-.57,1.87,1.87,0,0,1-.18-.87q0-3.74,5.61-3.74h2.33v2.83H815.9l-1.36,0h-1.21q-.55,0-.93,0c-.66.06-1,.21-1,.44a.29.29,0,0,0,.11.19,1.07,1.07,0,0,0,.48.19l2.65.61a3.8,3.8,0,0,1,1.4.66,1.67,1.67,0,0,1,.53,1.38,3,3,0,0,1-.89,2.12,7.5,7.5,0,0,1-2.23,1.6,13,13,0,0,1-2.89,1A13.26,13.26,0,0,1,807.7,458.16Z"/><path class="cls-1" d="M829.06,447.75a3.6,3.6,0,0,1-1.42,1.37,3.91,3.91,0,0,1-1.88.49,3.7,3.7,0,0,1-3.59-1.86,3.23,3.23,0,0,1-1.41,1.4,4.09,4.09,0,0,1-1.86.46h-1.66a.58.58,0,0,1-.5-.35,2.19,2.19,0,0,1-.2-1.05,2.36,2.36,0,0,1,.2-1c.14-.25.3-.38.5-.38h1.52a4.51,4.51,0,0,0,1-.11,3.16,3.16,0,0,0,.86-.35,1.84,1.84,0,0,0,.62-.62,1.72,1.72,0,0,0,.23-.9v-1.37l1.93-.5a14.71,14.71,0,0,0,.07,1.55,3.76,3.76,0,0,0,.31,1.21,1.72,1.72,0,0,0,.71.8,2.43,2.43,0,0,0,1.3.29,2.86,2.86,0,0,0,1.82-.55,2,2,0,0,0,.72-1.66v-1.14l1.92-.5q0,.85.06,1.56a3.36,3.36,0,0,0,.31,1.23,1.8,1.8,0,0,0,.73.79,2.78,2.78,0,0,0,1.35.27,2.09,2.09,0,0,0,1.3-.33,1,1,0,0,0,.42-.83,2.17,2.17,0,0,0-.16-.78,6,6,0,0,0-.4-.86c-.17-.29-.34-.57-.53-.84a6.6,6.6,0,0,0-.54-.73l2-2.1a7.68,7.68,0,0,1,1.43,2.61,8.11,8.11,0,0,1,.41,2.46,4.4,4.4,0,0,1-1,2.95,4.62,4.62,0,0,1-3.3,1.27l-.49-.05a3.88,3.88,0,0,1-1.65-.61A3.45,3.45,0,0,1,829.06,447.75Z"/><path class="cls-1" d="M845.36,447.22a6,6,0,0,1-.65,2.76,11,11,0,0,1-1.72,2.45,18.81,18.81,0,0,1-2.45,2.2q-1.39,1-2.82,2l-2-1.8c.89-.59,1.77-1.19,2.65-1.81a29,29,0,0,0,2.36-1.86,11.19,11.19,0,0,0,1.7-1.8,3,3,0,0,0,.64-1.65,3.75,3.75,0,0,0-.13-.85,8.61,8.61,0,0,0-.38-1.06q-.25-.57-.57-1.17a11.2,11.2,0,0,0-.7-1.12l1.95-1.93a10.88,10.88,0,0,1,.88,1.46,14.67,14.67,0,0,1,.64,1.5,13.11,13.11,0,0,1,.41,1.43A5.81,5.81,0,0,1,845.36,447.22Z"/><path class="cls-1" d="M855.2,449.61H854a3.91,3.91,0,0,1-2.22-.57,3.87,3.87,0,0,1-1.31-1.47,6.42,6.42,0,0,1-.64-2,17.44,17.44,0,0,1-.21-2.25q-.06-3.09-.13-6.37c0-2.19-.16-4.33-.33-6.44l2.42-1.13c0,1.77,0,3.79.1,6.08s.1,4.65.16,7.1c0,.47,0,1,.07,1.46a5,5,0,0,0,.32,1.37,2.67,2.67,0,0,0,.75,1,2.09,2.09,0,0,0,1.37.4h.82Z"/><path class="cls-1" d="M855.2,449.61a.58.58,0,0,1-.5-.35,2.08,2.08,0,0,1-.2-1.05,2.23,2.23,0,0,1,.2-1c.14-.25.3-.38.5-.38h2.85a13.11,13.11,0,0,0,1.42-.07,7.94,7.94,0,0,0,1.23-.23,3.07,3.07,0,0,0,.87-.41.91.91,0,0,0,.39-.57,2.57,2.57,0,0,0,0-.93,4.51,4.51,0,0,1-1.15.4,5.54,5.54,0,0,1-1.15.12,2.89,2.89,0,0,1-2.12-.8,2.93,2.93,0,0,1-.8-2.15,6,6,0,0,1,.26-1.73,5.14,5.14,0,0,1,.75-1.52,4,4,0,0,1,1.14-1.06,2.63,2.63,0,0,1,1.47-.41,2.34,2.34,0,0,1,1.81.76,5.78,5.78,0,0,1,1.11,1.86,10.6,10.6,0,0,1,.55,2.35,18.62,18.62,0,0,1,.15,2.21,4.55,4.55,0,0,1-1.51,3.83,6.74,6.74,0,0,1-4.27,1.18Zm4.87-14.26-2-1.72,1.6-1.9,2,1.69ZM860,442.7a2.84,2.84,0,0,0,1.75-.53,5.5,5.5,0,0,0-.63-1.59,1.17,1.17,0,0,0-1-.65,1.25,1.25,0,0,0-1,.51,1.63,1.63,0,0,0-.41,1.06,1.12,1.12,0,0,0,.36.86A1.38,1.38,0,0,0,860,442.7Z"/><path class="cls-1" d="M883.17,445.32a3.09,3.09,0,0,1-.19,1,3.34,3.34,0,0,1-.54,1,3.24,3.24,0,0,1-.83.78,1.87,1.87,0,0,1-1.09.33h-3.68a1.85,1.85,0,0,0-1,.23,1.42,1.42,0,0,0-.57.66,2.73,2.73,0,0,0-.25,1c0,.39,0,.84,0,1.32v9.92h-2c0-2.27-.06-4.07-.08-5.38s0-2.31-.05-3,0-1.15,0-1.36v-.44a9.38,9.38,0,0,1,.61-3.76,3,3,0,0,1,2-1.78,10.2,10.2,0,0,1,.14-1.65,7.26,7.26,0,0,1,.5-1.74,3.87,3.87,0,0,1,.93-1.35,2.08,2.08,0,0,1,1.46-.54,3.9,3.9,0,0,1,1.73.42,5.81,5.81,0,0,1,1.54,1.09,6,6,0,0,1,1.09,1.51A3.66,3.66,0,0,1,883.17,445.32Zm-2.21.15a1.62,1.62,0,0,0-.27-.67,3.82,3.82,0,0,0-.58-.72,3.53,3.53,0,0,0-.77-.56,1.7,1.7,0,0,0-.83-.24.78.78,0,0,0-.57.22,1.49,1.49,0,0,0-.35.57,3.52,3.52,0,0,0-.19.79,6.36,6.36,0,0,0-.06.87l.76,0h2.1C880.68,445.79,880.94,445.68,881,445.47Z"/><path class="cls-1" d="M894.76,446.05a8.45,8.45,0,0,1-.69,3.46,11,11,0,0,1-1.82,2.85,15.76,15.76,0,0,1-2.64,2.34,28.79,28.79,0,0,1-3.14,1.94l-1.9-1.78c.65-.36,1.39-.81,2.22-1.32a28.68,28.68,0,0,0,2.44-1.69,16.15,16.15,0,0,0,2.08-1.92,4.49,4.49,0,0,0,1.14-2,2.25,2.25,0,0,1-.71.29,4.87,4.87,0,0,1-1.33.15,3.63,3.63,0,0,1-2.29-.7,2.59,2.59,0,0,1-.92-2.19,6.65,6.65,0,0,1,.25-1.75,6.28,6.28,0,0,1,.73-1.72,4.54,4.54,0,0,1,1.15-1.3,2.44,2.44,0,0,1,1.52-.51,2.86,2.86,0,0,1,1.73.55,4.49,4.49,0,0,1,1.23,1.4,6.78,6.78,0,0,1,.71,1.89A8.91,8.91,0,0,1,894.76,446.05Zm-2.34-.73a3.52,3.52,0,0,0-.58-1.67,1.44,1.44,0,0,0-1.23-.66,1.22,1.22,0,0,0-1,.57,1.9,1.9,0,0,0-.41,1.09c0,.74.52,1.11,1.55,1.11a3.92,3.92,0,0,0,.89-.1A2.3,2.3,0,0,0,892.42,445.32Z"/><path class="cls-1" d="M908.15,445.21a4.91,4.91,0,0,1-.51,2.4,3.59,3.59,0,0,1-1.39,1.42,5.91,5.91,0,0,1-2,.67,16.56,16.56,0,0,1-2.51.18,7.34,7.34,0,0,1-2.33-.34,4.22,4.22,0,0,1-1.78-1.18l1.16-2.19a4.91,4.91,0,0,0,3,.82,10.57,10.57,0,0,0,3.19-.37c.75-.24,1.13-.62,1.13-1.15q0-2.16-4.58-5.13l1.13-2.75a16.48,16.48,0,0,1,1.94,1.4,12.77,12.77,0,0,1,1.77,1.83,10.12,10.12,0,0,1,1.28,2.13A5.56,5.56,0,0,1,908.15,445.21Z"/><path class="cls-1" d="M930,439.46c.08-1.58.29-2.48.64-2.71q2.31-1.58,5.17-3.15t6.5-3.21l-.35,2.94q-3.06,1.29-5.38,2.53c-1.55.82-2.9,1.62-4.07,2.37a40.15,40.15,0,0,1,3.56,3.36c1.13,1.21,2.32,2.42,3.59,3.65a5.75,5.75,0,0,0,1.59,1.19,3.43,3.43,0,0,0,1.53.35h1.37v2.83h-1.25a6.47,6.47,0,0,1-1.8-.22,4.59,4.59,0,0,1-1.53-.77,10.05,10.05,0,0,1-1.62-1.52c-.57-.64-1.26-1.44-2.06-2.42a3.9,3.9,0,0,1-.11,1,3.72,3.72,0,0,1-.47,1.52,3.9,3.9,0,0,1-1,1.12,5.83,5.83,0,0,1-1.4.81,9,9,0,0,1-1.69.49,25.68,25.68,0,0,1-2.85.45,26.3,26.3,0,0,1-2.93.17c-1,0-2.06-.05-3.08-.14a9.35,9.35,0,0,1-2.74-.61,4.61,4.61,0,0,1-2-1.43,4.15,4.15,0,0,1-.74-2.61,5.76,5.76,0,0,1,.29-1.68,5.6,5.6,0,0,1,.85-1.67l1.75.64a4.94,4.94,0,0,0-.64,1.92,2.21,2.21,0,0,0,.29,1.29,2,2,0,0,0,1,.83,6.1,6.1,0,0,0,1.56.44,17.57,17.57,0,0,0,1.89.16l2,0a20.66,20.66,0,0,0,5.91-.7c1.51-.47,2.34-1.09,2.5-1.87a3.26,3.26,0,0,0-.41-1.27,7.15,7.15,0,0,0-.92-1.28,17,17,0,0,0-1.34-1.36Zm9.19-9.54c-1.28.62-2.66,1.34-4.11,2.16s-3,1.72-4.55,2.71l.23-1.66q2.53-1.67,4.65-2.87t4-2.15Z"/><path class="cls-1" d="M944.12,449.61a.58.58,0,0,1-.5-.35,2.19,2.19,0,0,1-.2-1.05,2.36,2.36,0,0,1,.2-1c.14-.25.3-.38.5-.38h1.22a4,4,0,0,0,2-.46,1.76,1.76,0,0,0,.8-1.67v-1.22l2-.5a15.6,15.6,0,0,0,.07,1.62,3.19,3.19,0,0,0,.35,1.21,1.83,1.83,0,0,0,.82.76,3.34,3.34,0,0,0,1.47.26H954v2.83h-1.49c-1.77,0-3-.6-3.59-1.81a3.25,3.25,0,0,1-1.44,1.35,4.48,4.48,0,0,1-2,.46Zm5-9.42-2-1.72,1.6-1.9,2,1.69Z"/><path class="cls-1" d="M961.36,445.38q0,4.23-4.84,4.23H954a.59.59,0,0,1-.5-.35,2.19,2.19,0,0,1-.2-1.05,2.29,2.29,0,0,1,.2-1.06.59.59,0,0,1,.5-.37h2.65c1.7,0,2.54-.39,2.54-1.16a1.8,1.8,0,0,0-.19-.75,6.48,6.48,0,0,0-.45-.86,9.26,9.26,0,0,0-.58-.86l-.58-.74,2-2.1a9.1,9.1,0,0,1,1.52,2.59A7.21,7.21,0,0,1,961.36,445.38Zm-5.48,7.12,2,1.64L956.29,456l-1.93-1.66Zm3.67,0,1.93,1.64L959.93,456,958,454.34Z"/><path class="cls-1" d="M978.58,449.61h-1.2a4.63,4.63,0,0,1-1.2-.13,2.86,2.86,0,0,1-.9-.42,3.61,3.61,0,0,1-.75-.76,10.4,10.4,0,0,1-.68-1.11,4.83,4.83,0,0,1-.93,1.37,4,4,0,0,1-1.19.82,5,5,0,0,1-1.48.39,14.76,14.76,0,0,1-1.83.11,8,8,0,0,1-2.43-.33,4,4,0,0,1-1.74-1l1.25-2.33a3.92,3.92,0,0,0,1.11.53A7.67,7.67,0,0,0,968,447h1a5.9,5.9,0,0,0,.86-.06,5.73,5.73,0,0,0,1.69-.31,1.51,1.51,0,0,0,.91-.74,1.67,1.67,0,0,0,.23-.88,2.13,2.13,0,0,0-.1-.56q-.1-.37-.36-1.11c-.18-.5-.43-1.15-.76-1.94l-1.29-3.1,1.78-2,2.78,7.26a9.08,9.08,0,0,0,1.21,2.41,1.83,1.83,0,0,0,1.53.83h1.14Z"/><path class="cls-1" d="M981.81,446.78a2.48,2.48,0,0,1-1.48-2.3,4.27,4.27,0,0,1,.75-2.31,5.51,5.51,0,0,1,2.25-1.89l-.82-.56,1.14-2.48q1.64,1.14,3.09,2.28a21.88,21.88,0,0,1,2.57,2.33,10.88,10.88,0,0,1,1.75,2.47,5.71,5.71,0,0,1,.64,2.64,5.33,5.33,0,0,1-.13,1.18,3.38,3.38,0,0,1-.44,1.09,2.55,2.55,0,0,1-.78.82,2.12,2.12,0,0,1-1.18.32,3.79,3.79,0,0,1-1-.17c-.39-.12-.79-.27-1.21-.44l-1.21-.54-1-.48a6.19,6.19,0,0,1-1.84.67,10.55,10.55,0,0,1-2.13.2h-2.19a.56.56,0,0,1-.49-.35,2.08,2.08,0,0,1-.2-1.05,2.23,2.23,0,0,1,.2-1,.58.58,0,0,1,.49-.38Zm3.82-2.8a2.93,2.93,0,0,0-.33-1.38,1,1,0,0,0-.92-.63,1.5,1.5,0,0,0-.71.2,3.36,3.36,0,0,0-.68.51,2.67,2.67,0,0,0-.49.68,1.48,1.48,0,0,0-.19.71,1,1,0,0,0,.25.63,3,3,0,0,0,.58.55,3.56,3.56,0,0,0,.7.41,1.54,1.54,0,0,0,.63.16.72.72,0,0,0,.48-.19,1.83,1.83,0,0,0,.38-.48,2.19,2.19,0,0,0,.23-.6A2.34,2.34,0,0,0,985.63,444Zm1.7-.35a5.7,5.7,0,0,1-.24,1.81,3.34,3.34,0,0,1-.78,1.29,5.93,5.93,0,0,0,.58.33l.77.37.73.29a2.08,2.08,0,0,0,.48.11.56.56,0,0,0,.54-.27,1.17,1.17,0,0,0,.16-.6,2.74,2.74,0,0,0-.7-1.68A13.32,13.32,0,0,0,987.33,443.63Z"/><path class="cls-1" d="M834.19,480.22a4.91,4.91,0,0,1-.51,2.4,3.52,3.52,0,0,1-1.39,1.42,5.91,5.91,0,0,1-2,.67,16.46,16.46,0,0,1-2.51.18,7.38,7.38,0,0,1-2.33-.34,4.28,4.28,0,0,1-1.78-1.18l1.17-2.19a4.9,4.9,0,0,0,3,.82,10.64,10.64,0,0,0,3.2-.37c.74-.24,1.12-.62,1.12-1.15q0-2.16-4.58-5.13l1.14-2.75a17.36,17.36,0,0,1,1.94,1.4,12.18,12.18,0,0,1,1.76,1.83A10.17,10.17,0,0,1,833.7,478,5.55,5.55,0,0,1,834.19,480.22Z"/><path class="cls-1" d="M842.51,484a6.22,6.22,0,0,1-.72,2.66,10.58,10.58,0,0,1-1.72,2.37,19.48,19.48,0,0,1-2.41,2.15c-.89.68-1.81,1.33-2.74,1.95l-2-1.81c.9-.58,1.78-1.18,2.66-1.8a29,29,0,0,0,2.36-1.86,10.82,10.82,0,0,0,1.7-1.81,2.92,2.92,0,0,0,.64-1.64,3.75,3.75,0,0,0-.13-.85,8.06,8.06,0,0,0-.38-1.06q-.25-.57-.57-1.17a11.2,11.2,0,0,0-.7-1.12l2-2q.62,1,1.08,1.71a8.22,8.22,0,0,0,.91,1.18,2.86,2.86,0,0,0,.89.68,2.19,2.19,0,0,0,1,.22h1.08v2.83h-.93A3,3,0,0,1,842.51,484Z"/><path class="cls-1" d="M845.45,484.62a.56.56,0,0,1-.49-.35,2.07,2.07,0,0,1-.21-1,2.22,2.22,0,0,1,.21-1.05.58.58,0,0,1,.49-.38h1.23a4,4,0,0,0,2-.46,1.78,1.78,0,0,0,.8-1.67v-1.22l2-.5a15.66,15.66,0,0,0,.08,1.62,3,3,0,0,0,.34,1.21,1.83,1.83,0,0,0,.82.76,3.36,3.36,0,0,0,1.48.26h1.13v2.83h-1.48c-1.78,0-3-.6-3.59-1.81a3.27,3.27,0,0,1-1.45,1.35,4.48,4.48,0,0,1-2,.46Zm2.72,2.89,2,1.64L848.57,491l-1.92-1.66Zm3.67,0,1.93,1.64L852.22,491l-2-1.66Z"/><path class="cls-1" d="M856.77,474.47c.12-1.58.33-2.48.64-2.71q2.31-1.58,5.17-3.15t6.53-3.21l-.38,2.94q-3.06,1.29-5.38,2.53c-1.55.82-2.89,1.62-4,2.37a13.42,13.42,0,0,1,3,3.29,5.88,5.88,0,0,1,.91,3.05,4.94,4.94,0,0,1-.45,2.14,4.56,4.56,0,0,1-1.26,1.59,5.69,5.69,0,0,1-1.86,1,7.73,7.73,0,0,1-2.29.33h-2.05a.56.56,0,0,1-.49-.35,2.07,2.07,0,0,1-.21-1,2.22,2.22,0,0,1,.21-1.05.58.58,0,0,1,.49-.38h2.28a5.27,5.27,0,0,0,2.49-.49,1.75,1.75,0,0,0,1-1.43,2.91,2.91,0,0,0-.38-1.27,7.14,7.14,0,0,0-.93-1.29,17.39,17.39,0,0,0-1.36-1.35Zm9.22-9.54q-1.92.93-4.13,2.16t-4.53,2.71l.2-1.66q2.54-1.67,4.67-2.87t4-2.15Z"/><path class="cls-1" d="M874.71,493.17a8.23,8.23,0,0,1-2.87-.47,6.16,6.16,0,0,1-2.22-1.35,6.23,6.23,0,0,1-1.43-2.16,7.73,7.73,0,0,1-.51-2.9,8.31,8.31,0,0,1,.41-2.59,13.6,13.6,0,0,1,1.17-2.55l1.84.73a5,5,0,0,0-.47.93,10.34,10.34,0,0,0-.36,1.07,8.68,8.68,0,0,0-.25,1,4.82,4.82,0,0,0-.09.84q0,4.61,5.16,4.61a12.25,12.25,0,0,0,2.41-.23,13.2,13.2,0,0,0,2-.56,8,8,0,0,0,1.39-.64,2,2,0,0,0,.61-.47.24.24,0,0,0-.16-.19l-.3-.1-2.54-.61a6.09,6.09,0,0,1-.82-.23A3,3,0,0,1,877,487a1.44,1.44,0,0,1-.49-.57,2,2,0,0,1-.17-.87q0-3.73,5.6-3.74h2.33v2.83h-1.34l-1.35,0h-1.21c-.37,0-.69,0-.94,0-.66.06-1,.21-1,.44a.27.27,0,0,0,.1.19,1.13,1.13,0,0,0,.48.19l2.66.61a3.88,3.88,0,0,1,1.4.66,1.66,1.66,0,0,1,.52,1.38,3,3,0,0,1-.89,2.12,7.37,7.37,0,0,1-2.23,1.6,12.82,12.82,0,0,1-2.89,1A13.18,13.18,0,0,1,874.71,493.17Z"/><path class="cls-1" d="M884.25,484.62a.58.58,0,0,1-.51-.36,2.38,2.38,0,0,1-.19-1,2.53,2.53,0,0,1,.19-1.05.59.59,0,0,1,.51-.38h.44a9.6,9.6,0,0,0,2.1-.2,2.19,2.19,0,0,0,1.46-1.17c.33-.58.66-1.15,1-1.69a11.29,11.29,0,0,1,1-1.44,5.13,5.13,0,0,1,1-1,2,2,0,0,1,1.15-.36,2.32,2.32,0,0,1,1.52.52,4.34,4.34,0,0,1,1.08,1.36,6.77,6.77,0,0,1,.64,1.82,9.55,9.55,0,0,1,.21,2,3.44,3.44,0,0,1-.19,1.05,4.05,4.05,0,0,1-.53,1,2.82,2.82,0,0,1-.8.74,1.87,1.87,0,0,1-1,.29,4.43,4.43,0,0,1-1-.14,7.87,7.87,0,0,1-1.15-.4,8.66,8.66,0,0,1-1.14-.57,7,7,0,0,1-1-.64,4.81,4.81,0,0,1-1.74,1.31,5.71,5.71,0,0,1-2.23.38Zm9.49-3.29a3.25,3.25,0,0,0-.14-.91,4,4,0,0,0-.33-.84,2,2,0,0,0-.5-.63,1,1,0,0,0-.58-.28.51.51,0,0,0-.29,0c-.49.18-1,.88-1.58,2.1a3.24,3.24,0,0,0,.67.44c.28.14.55.26.83.38s.55.21.81.28a2.82,2.82,0,0,0,.61.1.5.5,0,0,0,.34-.15A.72.72,0,0,0,893.74,481.33Z"/><path class="cls-1" d="M909.64,482.23A6,6,0,0,1,909,485a11,11,0,0,1-1.72,2.45,18.81,18.81,0,0,1-2.45,2.2c-.93.7-1.86,1.37-2.82,2l-2-1.8c.89-.59,1.78-1.19,2.65-1.81a27.4,27.4,0,0,0,2.36-1.86,10.76,10.76,0,0,0,1.7-1.8,2.9,2.9,0,0,0,.64-1.65,3.26,3.26,0,0,0-.13-.85,8.06,8.06,0,0,0-.38-1.06q-.25-.57-.57-1.17a9.63,9.63,0,0,0-.7-1.12l1.95-1.93a10.88,10.88,0,0,1,.88,1.46,12.74,12.74,0,0,1,.64,1.5,11.2,11.2,0,0,1,.41,1.43A5.87,5.87,0,0,1,909.64,482.23Z"/><path class="cls-1" d="M915.85,484.13l-1.93.55-.46-19.22,2.39-1.11Z"/><path class="cls-1" d="M924.19,484a6.21,6.21,0,0,1-.71,2.66,10.58,10.58,0,0,1-1.72,2.37,19.48,19.48,0,0,1-2.41,2.15c-.89.68-1.81,1.33-2.74,1.95l-2-1.81c.9-.58,1.78-1.18,2.66-1.8s1.66-1.24,2.36-1.86a10.33,10.33,0,0,0,1.69-1.81,2.87,2.87,0,0,0,.65-1.64,3.75,3.75,0,0,0-.13-.85,8.06,8.06,0,0,0-.38-1.06q-.25-.57-.57-1.17a11.2,11.2,0,0,0-.7-1.12l1.95-2q.62,1,1.08,1.71a9,9,0,0,0,.9,1.18,3.11,3.11,0,0,0,.89.68,2.26,2.26,0,0,0,1,.22h1.08v2.83h-.93A3,3,0,0,1,924.19,484Z"/><path class="cls-1" d="M927.14,484.62a.59.59,0,0,1-.5-.35,2.19,2.19,0,0,1-.2-1,2.36,2.36,0,0,1,.2-1.05c.14-.25.31-.38.5-.38H930a12.8,12.8,0,0,0,1.41-.07,7.72,7.72,0,0,0,1.23-.23,2.94,2.94,0,0,0,.87-.41.93.93,0,0,0,.4-.57,2.57,2.57,0,0,0,0-.93,4.64,4.64,0,0,1-1.15.4,5.64,5.64,0,0,1-1.16.12,2.75,2.75,0,0,1-2.91-3,5.72,5.72,0,0,1,.26-1.73,4.89,4.89,0,0,1,.74-1.52,4,4,0,0,1,1.14-1.06,2.67,2.67,0,0,1,1.47-.41,2.33,2.33,0,0,1,1.81.76,5.35,5.35,0,0,1,1.11,1.86,10.07,10.07,0,0,1,.55,2.35,18.6,18.6,0,0,1,.15,2.2,4.59,4.59,0,0,1-1.5,3.84,6.77,6.77,0,0,1-4.28,1.18Zm3.12-14.23-2-1.64,1.51-1.84,2,1.64Zm1.66,7.32a2.87,2.87,0,0,0,1.76-.53,6.13,6.13,0,0,0-.63-1.59,1.19,1.19,0,0,0-1-.65,1.25,1.25,0,0,0-1,.51,1.69,1.69,0,0,0-.41,1.06,1.09,1.09,0,0,0,.37.86A1.35,1.35,0,0,0,931.92,477.71Zm2-7.32-2-1.64,1.58-1.84,1.93,1.64Z"/><path class="cls-1" d="M950.77,484.62H949.6a3.68,3.68,0,0,1-3.53-2,6.68,6.68,0,0,1-.64-2,19.37,19.37,0,0,1-.2-2.25q-.06-3.09-.13-6.37t-.34-6.44l2.42-1.13c0,1.77.06,3.79.11,6.08s.1,4.65.16,7.1c0,.47,0,1,.07,1.46a4.67,4.67,0,0,0,.32,1.37,2.45,2.45,0,0,0,.74,1,2.07,2.07,0,0,0,1.38.41h.81Z"/><path class="cls-1" d="M950.28,484.27a2.07,2.07,0,0,1-.21-1,2.22,2.22,0,0,1,.21-1.05.58.58,0,0,1,.49-.38h2a12.54,12.54,0,0,0,2.48-.2,9.71,9.71,0,0,0,1.89-.58c.57-.26,1.15-.54,1.75-.87s1.28-.67,2.08-1.06a13.92,13.92,0,0,1-1.33-.45l-1.32-.53c-.43-.16-.82-.31-1.18-.43a2.65,2.65,0,0,0-.84-.19,1.54,1.54,0,0,0-.81.29,6.14,6.14,0,0,0-1.17,1.05l-1.6-.91a7.84,7.84,0,0,1,.71-1.06,10.79,10.79,0,0,1,.88-1,4.68,4.68,0,0,1,.94-.76,2,2,0,0,1,1-.29,4.79,4.79,0,0,1,1.82.41l2.14.89a25.58,25.58,0,0,0,2.57.89,11.22,11.22,0,0,0,3.12.41h.56l-.59,2.57a10,10,0,0,0-1.57.11,11.57,11.57,0,0,0-1.43.32,1.86,1.86,0,0,0,1.14,1.18,6.31,6.31,0,0,0,1.83.22h2.28v2.83h-2.48a8,8,0,0,1-1.59-.14,2.83,2.83,0,0,1-1.15-.53,3.24,3.24,0,0,1-.86-1,10,10,0,0,1-.72-1.66,21.73,21.73,0,0,0-2,1.21,18.36,18.36,0,0,1-1.78,1.08,8.92,8.92,0,0,1-2,.77,11.25,11.25,0,0,1-2.8.29h-1.93A.56.56,0,0,1,950.28,484.27Zm7,6.77-2-1.72,1.61-1.93,2,1.73Z"/><path class="cls-1" d="M968.13,484.62a.59.59,0,0,1-.5-.35,2.19,2.19,0,0,1-.2-1,2.36,2.36,0,0,1,.2-1.05c.14-.25.31-.38.5-.38h1.23a4,4,0,0,0,2-.46,1.76,1.76,0,0,0,.81-1.67v-1.22l1.95-.5a15.86,15.86,0,0,0,.07,1.62,3.19,3.19,0,0,0,.35,1.21,1.83,1.83,0,0,0,.82.76,3.34,3.34,0,0,0,1.47.26H978v2.83H976.5c-1.77,0-3-.6-3.59-1.81a3.25,3.25,0,0,1-1.44,1.35,4.48,4.48,0,0,1-2,.46Zm5-9.42-2-1.72,1.6-1.9,2,1.69Z"/><path class="cls-1" d="M985.37,480.39q0,4.23-4.84,4.23H978a.59.59,0,0,1-.5-.35,2.19,2.19,0,0,1-.2-1,2.29,2.29,0,0,1,.2-1.06.59.59,0,0,1,.5-.37h2.66c1.69,0,2.53-.39,2.53-1.16a1.8,1.8,0,0,0-.19-.75,6.48,6.48,0,0,0-.45-.86,9.26,9.26,0,0,0-.58-.86l-.58-.74,2-2.1a9.34,9.34,0,0,1,1.52,2.59A7.21,7.21,0,0,1,985.37,480.39Zm-5.48,7.12,2,1.64L980.29,491l-1.92-1.66Zm3.67,0,1.93,1.64L983.94,491l-2-1.66Z"/><path class="cls-1" d="M991.67,484.13l-1.92.55-.47-19.22,2.39-1.11Z"/><path class="cls-1" d="M466.88,293.19a8.17,8.17,0,0,1-4.37-1,6.87,6.87,0,0,1-2.51-2.68,11.36,11.36,0,0,1-1.17-3.8,38.3,38.3,0,0,1-.35-4.34q-.12-2.69-.17-6t-.15-6.83c-.06-2.33-.14-4.67-.23-7s-.23-4.51-.38-6.54l5.42-2.62c0,2.18,0,4.42,0,6.74s.06,4.62.12,6.91.12,4.57.17,6.83.11,4.4.15,6.42c0,.93,0,1.84.06,2.71a8.08,8.08,0,0,0,.41,2.33A3.22,3.22,0,0,0,465,285.9a4,4,0,0,0,2.37.58h2.33v6.71Z"/><path class="cls-1" d="M498.16,293.19a17.71,17.71,0,0,1-3.09-.23,6.09,6.09,0,0,1-2.34-.9,6.9,6.9,0,0,1-1.81-1.9,14.39,14.39,0,0,1-1.51-3.27l-3.83,2.54a28.24,28.24,0,0,1-3.47,2,17.67,17.67,0,0,1-3.7,1.32,19.74,19.74,0,0,1-4.53.46h-4.14q-.64,0-1.05-.9a6,6,0,0,1-.41-2.42,6.22,6.22,0,0,1,.41-2.45c.27-.63.62-.94,1.05-.94h4.32a25.48,25.48,0,0,0,4.06-.26,15.39,15.39,0,0,0,3.15-.88,27.55,27.55,0,0,0,3.29-1.57q1.76-1,4.44-2.36l-2.66-.82-2.42-.76c-.74-.23-1.38-.43-1.92-.58a4.91,4.91,0,0,0-1.23-.24,3,3,0,0,0-1.52.56,13,13,0,0,0-2.51,2.54L473,280a25.49,25.49,0,0,1,3.68-5.14,5.59,5.59,0,0,1,4-2.1,10.76,10.76,0,0,1,3.39.67c1.28.45,2.69.94,4.23,1.46s3.18,1,4.93,1.46a22.19,22.19,0,0,0,5.54.67h1.87l-1.28,5.95a18.85,18.85,0,0,0-3.3.41,14.2,14.2,0,0,0-2.89.94,9.4,9.4,0,0,0,1,1.28,2.77,2.77,0,0,0,.94.67,3.22,3.22,0,0,0,1.11.23c.4,0,.88,0,1.43,0h5.71v6.71Zm-15.7,11.56L478,301l3.56-4.2,4.43,3.74Z"/><path class="cls-1" d="M519.63,293.19a9.31,9.31,0,0,1-4-.76,6.47,6.47,0,0,1-2.74-2.5,7.64,7.64,0,0,1-2.92,2.48,10,10,0,0,1-4.2.78h-2.51q-.63,0-1.05-.9a6,6,0,0,1-.41-2.42,6.22,6.22,0,0,1,.41-2.45c.28-.63.63-.94,1.05-.94h2.4a17.93,17.93,0,0,0,2.42-.14,3.66,3.66,0,0,0,1.57-.59,2.58,2.58,0,0,0,.91-1.22,7.07,7.07,0,0,0,.35-2v-2.45l4.84-1.22c0,1.44.05,2.64.15,3.62a6.48,6.48,0,0,0,.61,2.36,2.69,2.69,0,0,0,1.34,1.28,6,6,0,0,0,2.39.38H523v6.71ZM513,275.69,508.6,272l3.56-4.2,4.44,3.74Z"/><path class="cls-1" d="M521.26,304.92,517,301.3l3.39-4,4.32,3.56Zm9.11-20a2.73,2.73,0,0,0-.27-1,10.92,10.92,0,0,0-.75-1.49c-.33-.57-.7-1.16-1.11-1.78s-.85-1.23-1.32-1.81l4.38-4.61a18.58,18.58,0,0,1,3.27,5.4,14.23,14.23,0,0,1,1,5q0,4.2-2.33,6.38t-7.18,2.19H523c-.43,0-.78-.3-1.06-.9a6,6,0,0,1-.4-2.42,6.23,6.23,0,0,1,.4-2.45c.28-.63.63-.94,1.06-.94h3.09a10.06,10.06,0,0,0,3.09-.38C530,285.85,530.37,285.45,530.37,284.91Zm-1.64,20-4.26-3.62,3.39-4,4.26,3.56Z"/><path class="cls-1" d="M548.05,292.26l-5.49,1.22V255l5.49-2.62Z"/><path class="cls-1" d="M579.67,287.47a12,12,0,0,1-1.17,5.17,19.55,19.55,0,0,1-3.18,4.75,35.88,35.88,0,0,1-4.75,4.44,72.44,72.44,0,0,1-6,4.2l-4.5-4.26c2.14-1.28,4.11-2.57,5.9-3.85a44.8,44.8,0,0,0,4.55-3.68,21,21,0,0,0,2.92-3.26,5,5,0,0,0,1-2.69,5.26,5.26,0,0,0-.29-1.49,19.81,19.81,0,0,0-.79-2,20.39,20.39,0,0,0-1.2-2.22c-.47-.76-1-1.5-1.46-2.24l4.38-4.38a27.3,27.3,0,0,1,3.47,6.39A15.59,15.59,0,0,1,579.67,287.47Z"/><path class="cls-1" d="M606.69,284.27a10.33,10.33,0,0,1-1,4.84A7.68,7.68,0,0,1,603,292a10.28,10.28,0,0,1-3.91,1.4,30.91,30.91,0,0,1-4.7.35,14.58,14.58,0,0,1-4.84-.73,11.07,11.07,0,0,1-4.08-2.83l2.91-5.08a9.76,9.76,0,0,0,2.8,1.46,11.63,11.63,0,0,0,3.5.47,16.72,16.72,0,0,0,5.29-.67c1.26-.45,1.89-1,1.89-1.73q0-1.46-2.1-4a32.08,32.08,0,0,0-6.88-5.66l2.62-6.25a30.15,30.15,0,0,1,4.06,2.95,25.46,25.46,0,0,1,3.59,3.76,19.8,19.8,0,0,1,2.53,4.29A11.16,11.16,0,0,1,606.69,284.27Z"/><path class="cls-1" d="M653.78,293.19c-1.37,0-2.62-.09-3.77-.17s-2-.12-2.42-.12a4.33,4.33,0,0,0-1.66.23c-.33.16-.5.33-.5.53a.5.5,0,0,0,.23.44,4.59,4.59,0,0,0,1.05.32l4,.76a6.87,6.87,0,0,1,2.89,1.11,2.77,2.77,0,0,1,1,2.39,6.39,6.39,0,0,1-1.55,4.2,13,13,0,0,1-4,3.15,22.4,22.4,0,0,1-5.49,2,26.17,26.17,0,0,1-5.95.7,17.27,17.27,0,0,1-5.63-.87,11.91,11.91,0,0,1-4.32-2.54,11.42,11.42,0,0,1-2.77-4.14,15.46,15.46,0,0,1-1-5.75,16,16,0,0,1,.88-5.48,30.24,30.24,0,0,1,2.56-5.31l4.15,1.69a25.54,25.54,0,0,0-1.93,4.55,12.55,12.55,0,0,0-.58,3.5,7.12,7.12,0,0,0,2.36,5.75q2.35,2,6.86,2a26.54,26.54,0,0,0,3.76-.26,31.93,31.93,0,0,0,3.21-.64,21.19,21.19,0,0,0,2.48-.82c.7-.29,1.24-.54,1.63-.73a4.33,4.33,0,0,0-1.87-.58l-3-.65a6.52,6.52,0,0,1-3.06-1.34,4,4,0,0,1-1.2-3.27,6.36,6.36,0,0,1,2.6-5.42q2.6-1.94,8.08-1.93h3.79v6.71Z"/><path class="cls-1" d="M677.7,289.63a8.22,8.22,0,0,1-2.69,2.63,8,8,0,0,1-4.08.93,9.55,9.55,0,0,1-4.06-.73,6.1,6.1,0,0,1-2.65-2.77,7.17,7.17,0,0,1-2.77,2.69,7.36,7.36,0,0,1-3.36.81h-3.5q-.65,0-1.05-.9a6,6,0,0,1-.41-2.42,6.22,6.22,0,0,1,.41-2.45c.27-.63.62-.94,1.05-.94h3.27a6.57,6.57,0,0,0,3.06-.67,2.42,2.42,0,0,0,1.32-2.36v-3.39l4.84-1.22c0,1.44,0,2.64.14,3.62a7.18,7.18,0,0,0,.59,2.36A2.63,2.63,0,0,0,669,286.1a4.73,4.73,0,0,0,2.07.38,8.26,8.26,0,0,0,2.31-.26,2.89,2.89,0,0,0,1.37-.79,2.82,2.82,0,0,0,.64-1.37,9.72,9.72,0,0,0,.18-2v-2l4.78-1.22a16.79,16.79,0,0,0,.73,5.8,3,3,0,0,0,3.12,1.84c2.3,0,3.45-.48,3.45-1.46a3.32,3.32,0,0,0-.27-1,11.54,11.54,0,0,0-.73-1.54c-.31-.57-.67-1.16-1.08-1.78a20.77,20.77,0,0,0-1.31-1.81l4.32-4.61a18.58,18.58,0,0,1,3.27,5.4,14.23,14.23,0,0,1,1,5,9.6,9.6,0,0,1-.64,3.53,7.68,7.68,0,0,1-1.81,2.71,8.37,8.37,0,0,1-2.75,1.72,9.52,9.52,0,0,1-3.5.61C681.08,293.19,678.9,292,677.7,289.63Z"/><path class="cls-1" d="M710.31,287.47a12,12,0,0,1-1.16,5.17,20.14,20.14,0,0,1-3.18,4.75,36,36,0,0,1-4.76,4.44,72.44,72.44,0,0,1-6,4.2l-4.49-4.26c2.14-1.28,4.1-2.57,5.89-3.85a43.72,43.72,0,0,0,4.55-3.68,20.54,20.54,0,0,0,2.92-3.26,5,5,0,0,0,1-2.69,5.26,5.26,0,0,0-.29-1.49,19.81,19.81,0,0,0-.79-2,20.39,20.39,0,0,0-1.2-2.22c-.46-.76-.95-1.5-1.45-2.24l4.37-4.38a26.94,26.94,0,0,1,3.47,6.39A15.59,15.59,0,0,1,710.31,287.47Z"/><path class="cls-1" d="M726.54,293.19a8.21,8.21,0,0,1-4.38-1,6.87,6.87,0,0,1-2.51-2.68,11.59,11.59,0,0,1-1.17-3.8,40.76,40.76,0,0,1-.35-4.34c-.08-1.79-.13-3.79-.17-6s-.09-4.5-.15-6.83-.13-4.67-.23-7-.23-4.51-.38-6.54l5.43-2.62c0,2.18,0,4.42,0,6.74s.05,4.62.11,6.91.12,4.57.18,6.83.1,4.4.14,6.42c0,.93,0,1.84.06,2.71a8.43,8.43,0,0,0,.41,2.33,3.18,3.18,0,0,0,1.14,1.61,3.93,3.93,0,0,0,2.36.58h2.33v6.71Z"/><path class="cls-1" d="M739.2,266.47a5.74,5.74,0,0,1,3.94,1.43,10.26,10.26,0,0,1,2.56,3.62,19.1,19.1,0,0,1,1.38,4.87,34.78,34.78,0,0,1,.4,5.19c0,4.09-1,7-2.88,8.87s-5.05,2.74-9.37,2.74h-5.84q-.63,0-1-.9a6,6,0,0,1-.4-2.42,6.23,6.23,0,0,1,.4-2.45c.28-.63.63-.94,1-.94h6a20,20,0,0,0,4.28-.46,4.65,4.65,0,0,0,2.89-1.52,1.41,1.41,0,0,0,.21-.76c0-.35,0-.84,0-1.46a11.91,11.91,0,0,1-2.57.61,17.76,17.76,0,0,1-2.1.15q-6.54,0-6.54-6.89a11,11,0,0,1,.59-3.5,11.71,11.71,0,0,1,1.57-3.12,8.18,8.18,0,0,1,2.4-2.22A5.88,5.88,0,0,1,739.2,266.47Zm-.29-3.68-4.44-3.73,3.56-4.2,4.43,3.73Zm-.3,9.46a2.5,2.5,0,0,0-2,1.05,3.57,3.57,0,0,0-.81,2.21,1.9,1.9,0,0,0,.64,1.43,3,3,0,0,0,2.1.62,10.48,10.48,0,0,0,2.16-.21,7.73,7.73,0,0,0,1.63-.5,7.49,7.49,0,0,0-1.34-3.29A2.87,2.87,0,0,0,738.61,272.25Z"/><path class="cls-1" d="M777.59,302.06a14.78,14.78,0,0,1-5.16-.87,11.46,11.46,0,0,1-4.09-2.57,12,12,0,0,1-2.71-4.17,15.46,15.46,0,0,1-1-5.75,16.45,16.45,0,0,1,.87-5.46,29.51,29.51,0,0,1,2.57-5.28l4.14,1.64a25.74,25.74,0,0,0-1.92,4.58,12.76,12.76,0,0,0-.59,3.47A7.26,7.26,0,0,0,772,293.4a8.93,8.93,0,0,0,6.13,2c3.15,0,5.58-.89,7.29-2.65s2.57-4.59,2.57-8.44c0-1.05,0-2.71-.09-5s-.14-4.89-.23-7.84-.19-6.12-.27-9.49-.13-6.68-.17-9.94l5.48-2.63.41,34.66q0,9-4.08,13.48T777.59,302.06Z"/><path class="cls-1" d="M808.57,273a6.46,6.46,0,0,1,3.56,1,8.41,8.41,0,0,1,2.66,2.71,13.51,13.51,0,0,1,1.63,4,19.43,19.43,0,0,1,.56,4.69,16.5,16.5,0,0,1-1.11,6.13,20.11,20.11,0,0,1-3.15,5.31,31.73,31.73,0,0,1-4.9,4.76,67,67,0,0,1-6.42,4.4l-4.5-4.2q2.8-1.63,5.28-3.27t4.44-3.21a39,39,0,0,0,3.35-3,10.66,10.66,0,0,0,2-2.6,7.24,7.24,0,0,1-2.63.79q-1.4.15-2,.15a7,7,0,0,1-4.7-1.64,6.12,6.12,0,0,1-1.89-4.9,14.23,14.23,0,0,1,.58-4,13.17,13.17,0,0,1,1.63-3.56,8.9,8.9,0,0,1,2.51-2.53A5.57,5.57,0,0,1,808.57,273Zm-.52,6.13a2.4,2.4,0,0,0-1.2.32,3,3,0,0,0-.93.85,5,5,0,0,0-.61,1.11,2.88,2.88,0,0,0-.24,1.1,1.82,1.82,0,0,0,.79,1.52,3.63,3.63,0,0,0,2.19.59,10.07,10.07,0,0,0,2.19-.24,8.72,8.72,0,0,0,1.72-.52,7.77,7.77,0,0,0-1.37-3.39A3.09,3.09,0,0,0,808.05,279.13Z"/><path class="cls-1" d="M829.46,292.26,824,293.48V255l5.48-2.62Z"/><path class="cls-1" d="M895.11,293.19a10,10,0,0,1-2.92-.38,9.21,9.21,0,0,1-2.6-1.28,18.8,18.8,0,0,1-2.8-2.45q-1.49-1.54-3.47-3.88a10.69,10.69,0,0,1-.88,2.33,7.26,7.26,0,0,1-3,3.5,18,18,0,0,1-4.87,2.08,34.3,34.3,0,0,1-5.66,1c-2,.17-3.77.26-5.4.26q-3.21,0-6.21-.26a17.86,17.86,0,0,1-5.31-1.23,8.44,8.44,0,0,1-3.68-2.83,8.32,8.32,0,0,1-1.37-5,12.56,12.56,0,0,1,.58-3.41,18.58,18.58,0,0,1,1.75-4.05l4.14,1.45a20.94,20.94,0,0,0-1,2.8,8.29,8.29,0,0,0-.29,2.05,2.32,2.32,0,0,0,1,1.92,6.72,6.72,0,0,0,2.65,1.17,22.85,22.85,0,0,0,3.91.55c1.48.1,3.07.15,4.79.15,1.43,0,2.95-.06,4.55-.18a35.44,35.44,0,0,0,4.55-.61,17.82,17.82,0,0,0,3.79-1.17,4.86,4.86,0,0,0,2.28-1.77,8.28,8.28,0,0,0-.88-2.34,14,14,0,0,0-1.81-2.48,40.43,40.43,0,0,0-2.86-2.86l-4-3.59a28.51,28.51,0,0,1,.58-4.2,3.17,3.17,0,0,1,1-1.86q4-2.68,10-5.9T895,254.1l-.88,7.06q-5.42,2.32-10.15,4.75t-7.7,4.23q3.5,3.17,7,6.83t6.83,7a9.26,9.26,0,0,0,2.62,2,6.15,6.15,0,0,0,2.57.55h2.63v6.71Zm-6.31-38.63c-2.56,1.25-5.3,2.67-8.19,4.26s-6,3.43-9.19,5.49l.52-4.14q4.72-3.15,9.13-5.63t8.26-4.41Z"/><path class="cls-1" d="M914.24,293.19a9.29,9.29,0,0,1-4-.76,6.49,6.49,0,0,1-2.75-2.5,7.61,7.61,0,0,1-2.91,2.48,10,10,0,0,1-4.2.78h-2.51q-.64,0-1-.9a5.82,5.82,0,0,1-.41-2.42,6,6,0,0,1,.41-2.45c.27-.63.62-.94,1-.94h2.39a17.82,17.82,0,0,0,2.42-.14,3.61,3.61,0,0,0,1.57-.59,2.58,2.58,0,0,0,.91-1.22,7.07,7.07,0,0,0,.35-2v-2.45l4.84-1.22c0,1.44.05,2.64.15,3.62a6.48,6.48,0,0,0,.61,2.36,2.69,2.69,0,0,0,1.34,1.28,6.05,6.05,0,0,0,2.4.38h2.74v6.71Zm-6.59-17.5L903.22,272l3.56-4.2,4.43,3.74Z"/><path class="cls-1" d="M915.88,304.92l-4.26-3.62,3.38-4,4.32,3.56Zm9.1-20a2.89,2.89,0,0,0-.26-1,12.44,12.44,0,0,0-.76-1.49c-.33-.57-.7-1.16-1.11-1.78s-.85-1.23-1.31-1.81l4.37-4.61a18.58,18.58,0,0,1,3.27,5.4,14.23,14.23,0,0,1,1.05,5q0,4.2-2.33,6.38t-7.18,2.19h-3.09q-.64,0-1-.9a6,6,0,0,1-.41-2.42,6.22,6.22,0,0,1,.41-2.45c.27-.63.62-.94,1-.94h3.09a10,10,0,0,0,3.09-.38C924.59,285.85,925,285.45,925,284.91Zm-1.63,20-4.26-3.62,3.38-4,4.26,3.56Z"/><path class="cls-1" d="M961.27,293.19a9.06,9.06,0,0,1-2.18-.23,6.09,6.09,0,0,1-1.73-.7A5.65,5.65,0,0,1,956,291a17.51,17.51,0,0,1-1.34-1.95,8.11,8.11,0,0,1-4,3.79,16.61,16.61,0,0,1-5.93.94A13.12,13.12,0,0,1,940,293a11.3,11.3,0,0,1-4-2.8l2.92-5.08a8.86,8.86,0,0,0,2.74,1.46,11.58,11.58,0,0,0,3.5.47,14.16,14.16,0,0,0,4.84-.7c1.25-.47,1.87-1.13,1.87-2a8.3,8.3,0,0,0-.5-2.1c-.33-1-.74-2.14-1.22-3.38s-1-2.55-1.61-3.91l-1.63-3.8,4.38-4.6L956.72,281c.35,1,.67,1.86,1,2.54a8.48,8.48,0,0,0,.93,1.69,2.86,2.86,0,0,0,1.14,1,3.84,3.84,0,0,0,1.63.29h2.33v6.71Z"/><path class="cls-1" d="M970.49,273.35l2.57-5.25q4.38,3,7.61,5.37a40.76,40.76,0,0,1,5.34,4.61,17.27,17.27,0,0,1,3.15,4.46,11.26,11.26,0,0,1,1.05,4.88,10.11,10.11,0,0,1-.32,2.51,6.61,6.61,0,0,1-1,2.27,5.81,5.81,0,0,1-1.72,1.63,4.44,4.44,0,0,1-2.42.65,7.78,7.78,0,0,1-1.87-.29c-.74-.2-1.52-.45-2.36-.76s-1.68-.66-2.54-1.05-1.63-.76-2.33-1.11a9.57,9.57,0,0,1-3.88,1.54,23.76,23.76,0,0,1-4.17.38h-3.86q-.63,0-1.05-.9a6,6,0,0,1-.4-2.42,6.23,6.23,0,0,1,.4-2.45c.28-.63.63-.94,1.05-.94h3.91c.55,0,1.11,0,1.7-.06a5.33,5.33,0,0,1-1.9-2.07,5.11,5.11,0,0,1-.44-2,8.9,8.9,0,0,1,1.29-4.38,9.37,9.37,0,0,1,3.67-3.61Zm5.14,4.38a3.08,3.08,0,0,0-1.46.41,5.69,5.69,0,0,0-1.37,1,6.53,6.53,0,0,0-1,1.31,2.62,2.62,0,0,0-.41,1.34,1.78,1.78,0,0,0,.41,1.08,4.38,4.38,0,0,0,1.05,1,11,11,0,0,0,1.4.81,7.28,7.28,0,0,0,1.4.56,2.67,2.67,0,0,0,1.51-1.23,3.79,3.79,0,0,0,.65-2.1,6.12,6.12,0,0,0-.67-3C976.67,278.12,976.17,277.73,975.63,277.73Zm5.66,3.21a5.55,5.55,0,0,1,.06.82v.81a8.7,8.7,0,0,1-.59,2.45,5.3,5.3,0,0,1-1.28,1.93,9.17,9.17,0,0,0,1.22.61l1.52.64c.51.22,1,.39,1.4.53a3.36,3.36,0,0,0,.93.2.91.91,0,0,0,.79-.55,2.19,2.19,0,0,0,.32-1.14,6.12,6.12,0,0,0-.9-2.86A11.36,11.36,0,0,0,981.29,280.94Z"/><path class="cls-1" d="M787.86,354.29a10.33,10.33,0,0,1-1,4.84,7.57,7.57,0,0,1-2.65,2.92,10.34,10.34,0,0,1-3.91,1.4,31,31,0,0,1-4.7.35,14.54,14.54,0,0,1-4.84-.73,11,11,0,0,1-4.09-2.83l2.92-5.08a9.63,9.63,0,0,0,2.8,1.46,11.58,11.58,0,0,0,3.5.47,16.61,16.61,0,0,0,5.28-.67c1.27-.45,1.9-1,1.9-1.73q0-1.45-2.1-4a32.18,32.18,0,0,0-6.89-5.66l2.63-6.25a30.08,30.08,0,0,1,4,2.95,25,25,0,0,1,3.59,3.76,19.85,19.85,0,0,1,2.54,4.29A11.32,11.32,0,0,1,787.86,354.29Z"/><path class="cls-1" d="M808.46,363.21a12.35,12.35,0,0,1-1.87-.14,3.36,3.36,0,0,1-1.63-.79,12.41,12.41,0,0,1-1.52,4.52,20.91,20.91,0,0,1-3.15,4.23,38,38,0,0,1-4.52,4q-2.6,2-5.57,3.91l-4.5-4.26q3.21-1.93,5.9-3.85a46.21,46.21,0,0,0,4.55-3.68,21.54,21.54,0,0,0,2.92-3.27,4.9,4.9,0,0,0,1-2.68,8.67,8.67,0,0,0-1-3.36,36.1,36.1,0,0,0-2.69-4.58l4.44-4.43c.81,1.4,1.52,2.59,2.13,3.56a19.79,19.79,0,0,0,1.66,2.36,5.38,5.38,0,0,0,1.52,1.31,3.41,3.41,0,0,0,1.69.41h2.33v6.71Z"/><path class="cls-1" d="M826.49,363.21a9.31,9.31,0,0,1-4-.76,6.47,6.47,0,0,1-2.74-2.5,7.64,7.64,0,0,1-2.92,2.48,10,10,0,0,1-4.2.78h-2.51c-.43,0-.77-.3-1-.9a6,6,0,0,1-.41-2.42,6.22,6.22,0,0,1,.41-2.45c.28-.63.62-.94,1-.94h2.39a18,18,0,0,0,2.43-.14,3.66,3.66,0,0,0,1.57-.59,2.58,2.58,0,0,0,.91-1.22,7.07,7.07,0,0,0,.35-2v-2.45l4.84-1.22c0,1.44.05,2.64.15,3.62a6.48,6.48,0,0,0,.61,2.36,2.69,2.69,0,0,0,1.34,1.28,6,6,0,0,0,2.39.38h2.75v6.71Zm-10.56,11.73-4.26-3.62,3.38-4,4.32,3.56Zm7.47,0-4.26-3.62,3.38-4,4.26,3.56Z"/><path class="cls-1" d="M846.21,353.23a10.18,10.18,0,0,1-.84,4.21,9,9,0,0,1-2.37,3.15,10.34,10.34,0,0,1-3.64,2,15.52,15.52,0,0,1-4.7.67h-4.78c-.43,0-.78-.3-1.06-.9a6,6,0,0,1-.4-2.42,6.23,6.23,0,0,1,.4-2.45c.28-.63.63-.94,1.06-.94H835a10.84,10.84,0,0,0,4.46-.7,4.35,4.35,0,0,0,2.08-1.75,10.48,10.48,0,0,0-3-5.07,60.46,60.46,0,0,0-7.56-6.31,32.24,32.24,0,0,1,.56-4.2,3.06,3.06,0,0,1,1-1.86q1.93-1.29,4.29-2.66c1.58-.91,3.19-1.82,4.84-2.71s3.29-1.75,4.9-2.57,3.11-1.56,4.47-2.22l-.88,7.06c-2.52,1.13-4.84,2.24-6.94,3.33s-4.08,2.2-6,3.32Q846.22,347.35,846.21,353.23Zm2.51-28.06q-3.74,1.86-7.88,4.14t-8.75,5.25l.53-4.2q4.54-3,8.69-5.31t8-4.26Z"/><path class="cls-1" d="M882.74,363.21c-1.36,0-2.62-.09-3.77-.17s-2-.12-2.42-.12a4.37,4.37,0,0,0-1.66.23c-.33.16-.5.33-.5.53a.49.49,0,0,0,.24.44,4.26,4.26,0,0,0,1,.32l4,.76a7,7,0,0,1,2.89,1.11,2.8,2.8,0,0,1,1,2.39,6.44,6.44,0,0,1-1.55,4.2,12.89,12.89,0,0,1-4,3.15,22.32,22.32,0,0,1-5.48,2,26.3,26.3,0,0,1-5.95.7,17.23,17.23,0,0,1-5.63-.87,11.75,11.75,0,0,1-4.32-2.54,11.3,11.3,0,0,1-2.77-4.14,15.26,15.26,0,0,1-1-5.75,16.28,16.28,0,0,1,.88-5.48,30.35,30.35,0,0,1,2.57-5.31l4.14,1.69a25.54,25.54,0,0,0-1.93,4.55,12.55,12.55,0,0,0-.58,3.5,7.15,7.15,0,0,0,2.36,5.75c1.58,1.34,3.86,2,6.86,2a26.43,26.43,0,0,0,3.76-.26,30.84,30.84,0,0,0,3.21-.64,21.19,21.19,0,0,0,2.48-.82c.7-.29,1.25-.54,1.64-.73a4.38,4.38,0,0,0-1.87-.58l-3-.65a6.61,6.61,0,0,1-3.06-1.34,4,4,0,0,1-1.2-3.27,6.36,6.36,0,0,1,2.6-5.42c1.73-1.29,4.43-1.93,8.08-1.93h3.8v6.71Z"/><path class="cls-1" d="M898.32,345.3a5.08,5.08,0,0,1,3.12,1,8.85,8.85,0,0,1,2.33,2.68,14.4,14.4,0,0,1,1.49,3.71,16.55,16.55,0,0,1,.53,4.14,6.77,6.77,0,0,1-.47,2.4,8.65,8.65,0,0,1-1.23,2.21,6.36,6.36,0,0,1-1.75,1.61,3.81,3.81,0,0,1-2,.61,9.59,9.59,0,0,1-2.07-.26,20.41,20.41,0,0,1-2.33-.7,16.69,16.69,0,0,1-2.37-1.08,17.69,17.69,0,0,1-2.15-1.4,8.25,8.25,0,0,1-3,2.33,10.17,10.17,0,0,1-3.85.64h-.93q-.64,0-1-1a5.84,5.84,0,0,1-.41-2.24,6.48,6.48,0,0,1,.41-2.37q.4-1.08,1-1.08h.7a12.57,12.57,0,0,0,3-.35,3.48,3.48,0,0,0,2.28-1.81c.62-1.16,1.26-2.29,1.92-3.38a21.68,21.68,0,0,1,2.07-2.89,10.37,10.37,0,0,1,2.25-2A4.48,4.48,0,0,1,898.32,345.3Zm-.59,6.18a2.6,2.6,0,0,0-1.8,1,10.63,10.63,0,0,0-1.81,2.86,8.61,8.61,0,0,0,1.34.87,11.32,11.32,0,0,0,1.55.7,9.17,9.17,0,0,0,1.54.44,6.94,6.94,0,0,0,1.34.14,1.47,1.47,0,0,0,.76-.23,1.15,1.15,0,0,0,.53-.52,6.15,6.15,0,0,0-.27-1.78,6.47,6.47,0,0,0-.75-1.7,5.2,5.2,0,0,0-1.11-1.28A2.07,2.07,0,0,0,897.73,351.48Z"/><path class="cls-1" d="M937.18,357.49a12,12,0,0,1-1.17,5.17,20.14,20.14,0,0,1-3.18,4.75,36.52,36.52,0,0,1-4.75,4.44,72.65,72.65,0,0,1-6,4.2l-4.49-4.26c2.14-1.28,4.11-2.57,5.89-3.85a45,45,0,0,0,4.56-3.68A20.93,20.93,0,0,0,931,361a4,4,0,0,0,.76-4.18,17.66,17.66,0,0,0-.79-2,22.1,22.1,0,0,0-1.19-2.22c-.47-.76-1-1.5-1.46-2.24l4.38-4.38a27.3,27.3,0,0,1,3.47,6.39A15.59,15.59,0,0,1,937.18,357.49Z"/><path class="cls-1" d="M949.66,362.28l-5.48,1.22V325l5.48-2.62Z"/><path class="cls-1" d="M970.49,363.21a12.12,12.12,0,0,1-1.86-.14,3.39,3.39,0,0,1-1.64-.79,12.39,12.39,0,0,1-1.51,4.52,21.69,21.69,0,0,1-3.15,4.23,38.92,38.92,0,0,1-4.53,4q-2.59,2-5.57,3.91l-4.49-4.26q3.21-1.93,5.89-3.85a45.06,45.06,0,0,0,4.55-3.68,21,21,0,0,0,2.92-3.27,4.9,4.9,0,0,0,1-2.68,8.67,8.67,0,0,0-1-3.36,37.19,37.19,0,0,0-2.68-4.58l4.43-4.43c.82,1.4,1.53,2.59,2.13,3.56a21,21,0,0,0,1.66,2.36,5.38,5.38,0,0,0,1.52,1.31,3.44,3.44,0,0,0,1.69.41h2.34v6.71Z"/><path class="cls-1" d="M982,336.49a5.74,5.74,0,0,1,3.94,1.43,10.26,10.26,0,0,1,2.56,3.62,19.1,19.1,0,0,1,1.38,4.87,34.78,34.78,0,0,1,.4,5.19c0,4.09-1,7-2.88,8.87s-5,2.74-9.37,2.74h-5.83q-.65,0-1.05-.9a5.82,5.82,0,0,1-.41-2.42,6,6,0,0,1,.41-2.45c.27-.63.62-.94,1.05-.94h5.95a20.05,20.05,0,0,0,4.29-.46,4.62,4.62,0,0,0,2.88-1.52,1.41,1.41,0,0,0,.21-.76c0-.35,0-.84,0-1.46a11.91,11.91,0,0,1-2.57.61,17.76,17.76,0,0,1-2.1.15q-6.54,0-6.53-6.89a11,11,0,0,1,.58-3.5,11.71,11.71,0,0,1,1.57-3.12,8.31,8.31,0,0,1,2.4-2.22A5.88,5.88,0,0,1,982,336.49Zm-4-3.68-4.26-3.56,3.39-4,4.32,3.5Zm3.45,9.46a2.51,2.51,0,0,0-2,1.05,3.57,3.57,0,0,0-.81,2.21,1.9,1.9,0,0,0,.64,1.43,3,3,0,0,0,2.1.62,10.41,10.41,0,0,0,2.16-.21,8.42,8.42,0,0,0,1.63-.49,7.48,7.48,0,0,0-1.34-3.3A2.86,2.86,0,0,0,981.41,342.27Zm4-9.46-4.26-3.56,3.39-4,4.26,3.5Z"/><rect class="cls-1" x="950.4" y="404.25" width="43.2" height="4.32"/><path class="cls-1" d="M540.16,1736.55c71.72,0,130.07,26.2,130.07,58.41s-58.35,58.4-130.07,58.4S410.1,1827.16,410.1,1795s58.34-58.41,130.06-58.41m0-1c-72.38,0-131.06,26.6-131.06,59.41s58.68,59.4,131.06,59.4,131.07-26.6,131.07-59.4-58.68-59.41-131.07-59.41Z"/><path class="cls-1" d="M470.13,1783.82a4,4,0,0,1-2.9-.93,6.43,6.43,0,0,1-1.48-2.79,5.77,5.77,0,0,1-1.76.84,7.13,7.13,0,0,1-2.14.33,2.94,2.94,0,0,1-2.09-.69,2.46,2.46,0,0,1-.73-1.89,4.7,4.7,0,0,1,1.21-3.09,15.16,15.16,0,0,1,4-3l-.36-1.68,1.65-1.17,1.44,7.35c.16.8.31,1.48.46,2a4.66,4.66,0,0,0,.59,1.38,2.06,2.06,0,0,0,.93.78,3.83,3.83,0,0,0,1.47.24h.54v2.31Zm-5.58-9.39a13.88,13.88,0,0,0-1.46.81,13.24,13.24,0,0,0-1.26.91,4.8,4.8,0,0,0-.9,1,2.09,2.09,0,0,0-.37,1q-.06,1,1.59,1a5.88,5.88,0,0,0,.9-.08,7,7,0,0,0,.93-.21,6.28,6.28,0,0,0,.81-.3,1.86,1.86,0,0,0,.54-.34Z"/><path class="cls-1" d="M486.06,1783.82a8.13,8.13,0,0,1-1.6-.14,3.06,3.06,0,0,1-1.21-.51,3.43,3.43,0,0,1-.93-1.05,9.13,9.13,0,0,1-.76-1.72c-.78.48-1.5.93-2.15,1.35a16.62,16.62,0,0,1-2,1.09,10.26,10.26,0,0,1-2.13.72,12,12,0,0,1-2.61.26h-1.77a.6.6,0,0,1-.51-.33,1.54,1.54,0,0,1-.21-.84,1.48,1.48,0,0,1,.21-.83.6.6,0,0,1,.51-.31h1.86a12.47,12.47,0,0,0,2.7-.24,9.56,9.56,0,0,0,2-.69c.63-.3,1.32-.67,2.06-1.11s1.69-.94,2.85-1.5q-1.08-.33-2-.69c-.62-.24-1.18-.47-1.68-.68l-1.29-.52a2.53,2.53,0,0,0-.84-.21,1.85,1.85,0,0,0-1,.39,8.59,8.59,0,0,0-1.5,1.5l-1.26-.75q.36-.57.81-1.17a10.23,10.23,0,0,1,.94-1.1,4.84,4.84,0,0,1,1-.79,2.09,2.09,0,0,1,1-.3,4.43,4.43,0,0,1,1.71.45c.68.3,1.44.62,2.28,1s1.75.68,2.73,1a10.29,10.29,0,0,0,3,.45h.6l-.48,2.25a9.25,9.25,0,0,0-1.94.31,9.8,9.8,0,0,0-1.6.59,4.05,4.05,0,0,0,.63,1.06,2.24,2.24,0,0,0,.7.56,2.2,2.2,0,0,0,.81.21c.29,0,.61,0,.95,0h2.34v2.31Z"/><path class="cls-1" d="M497.88,1783.82a8.39,8.39,0,0,1-2.4-.33,5.6,5.6,0,0,1-2-1.08,6.86,6.86,0,0,1-2,1.06,6.73,6.73,0,0,1-2,.35h-1a.6.6,0,0,1-.51-.33,1.54,1.54,0,0,1-.21-.84,1.48,1.48,0,0,1,.21-.83.6.6,0,0,1,.51-.31h.81a8.52,8.52,0,0,0,1.24-.09,5.5,5.5,0,0,0,1.28-.36,5.06,5.06,0,0,1-1-1.65,4.46,4.46,0,0,1-.28-1.47,3.76,3.76,0,0,1,.37-1.59,5.58,5.58,0,0,1,1-1.46,5.23,5.23,0,0,1,1.35-1.05,3.12,3.12,0,0,1,1.5-.4,2.26,2.26,0,0,1,1.23.36,3.64,3.64,0,0,1,1,.93,4.27,4.27,0,0,1,.64,1.3,5,5,0,0,1,.23,1.46,4.45,4.45,0,0,1-.42,1.77,5.25,5.25,0,0,1-1.74,2,4.82,4.82,0,0,0,1.39.27l1.31,0h.9v2.31Zm-1.77-5.94a2.39,2.39,0,0,0-.14-.74,3.24,3.24,0,0,0-.36-.75,2.3,2.3,0,0,0-.54-.58,1.08,1.08,0,0,0-.67-.24,1.68,1.68,0,0,0-.84.24,3.53,3.53,0,0,0-.75.57,3.3,3.3,0,0,0-.56.73,1.51,1.51,0,0,0-.22.71,2.4,2.4,0,0,0,.48,1.38,5.12,5.12,0,0,0,1.17,1.2,6.16,6.16,0,0,0,1.8-1.31A2,2,0,0,0,496.11,1777.88Zm-1.47-6.72-1.83-1.56,1.35-1.59,1.83,1.53Z"/><path class="cls-1" d="M519,1778.33a4.35,4.35,0,0,1-.72,2.52,5.54,5.54,0,0,1-1.91,1.71,9.17,9.17,0,0,1-2.73,1,16.67,16.67,0,0,1-3.19.3H508.2a11.46,11.46,0,0,1-1.55-.09,3.89,3.89,0,0,1-1.12-.32,2.45,2.45,0,0,1-.81-.6,4.52,4.52,0,0,1-.63-1,4,4,0,0,1-1.46,1.5,3.86,3.86,0,0,1-1.93.48h-1.56a.6.6,0,0,1-.51-.33,1.54,1.54,0,0,1-.21-.84,1.48,1.48,0,0,1,.21-.83.6.6,0,0,1,.51-.31h1.44a3.26,3.26,0,0,0,1.93-.54,2.36,2.36,0,0,0,.86-1.89v-1.38l1.68-.42a12.82,12.82,0,0,0,.24,2.67,1.83,1.83,0,0,0,1,1.44c.54-.72,1.15-1.49,1.84-2.31a21.23,21.23,0,0,1,2.19-2.25,13,13,0,0,1,2.4-1.7,5.17,5.17,0,0,1,2.48-.67,3.6,3.6,0,0,1,1.42.28,3.72,3.72,0,0,1,1.19.8,4,4,0,0,1,.82,1.21A3.84,3.84,0,0,1,519,1778.33Zm-1.89.39a2,2,0,0,0-.65-1.43,2.28,2.28,0,0,0-1.69-.64,4.94,4.94,0,0,0-3,1.26,25.49,25.49,0,0,0-3.6,3.69h2.64a13.68,13.68,0,0,0,2.31-.2,9.69,9.69,0,0,0,2-.55,4.28,4.28,0,0,0,1.43-.9A1.69,1.69,0,0,0,517.11,1778.72Z"/><path class="cls-1" d="M539.85,1783.82a4.71,4.71,0,0,1-1.2-.14,2.86,2.86,0,0,1-.92-.42,3.44,3.44,0,0,1-.75-.73,8.64,8.64,0,0,1-.7-1.11,4.08,4.08,0,0,1-2.15,2.16,9.09,9.09,0,0,1-3.34.54,7.09,7.09,0,0,1-2.36-.33,4.77,4.77,0,0,1-1.78-1.23l1-1.71a4.27,4.27,0,0,0,1.42.73,8.44,8.44,0,0,0,5-.33c.73-.37,1.1-.81,1.1-1.33a9,9,0,0,0-.66-2.54q-.66-1.82-1.92-4.78l1.56-1.62,2.7,7.17a14.55,14.55,0,0,0,.69,1.63,4.68,4.68,0,0,0,.69,1,2,2,0,0,0,.76.54,2.65,2.65,0,0,0,.92.15h1v2.31Z"/><path class="cls-1" d="M540.18,1789.31l-1.77-1.47,1.29-1.53,1.74,1.47Zm4.56-9.09a4.28,4.28,0,0,0-.36-1.28,10,10,0,0,0-1.23-2.11l1.53-1.62a8.06,8.06,0,0,1,1.41,2.46,7,7,0,0,1,.45,2.28,3.59,3.59,0,0,1-1.16,2.88,5.41,5.41,0,0,1-3.58,1h-.93a.6.6,0,0,1-.51-.33,1.54,1.54,0,0,1-.21-.84,1.48,1.48,0,0,1,.21-.83.6.6,0,0,1,.51-.31h1a6.26,6.26,0,0,0,2-.3Q544.74,1780.91,544.74,1780.22Zm-1,9.09-1.74-1.47,1.32-1.53,1.71,1.47Z"/><path class="cls-1" d="M556.65,1783.82a4.62,4.62,0,0,1-1-.11,1.91,1.91,0,0,1-.9-.49,5.94,5.94,0,0,1-.71,2.38,10.44,10.44,0,0,1-1.65,2.25A20.74,20.74,0,0,1,550,1790c-.92.71-1.92,1.43-3,2.15l-1.53-1.47a36.33,36.33,0,0,0,3.21-2.21,25.44,25.44,0,0,0,2.38-2.07,10,10,0,0,0,1.49-1.81,2.94,2.94,0,0,0,.51-1.47,4.54,4.54,0,0,0-.53-1.88,25.74,25.74,0,0,0-1.36-2.44l1.56-1.53,1.15,2a8.7,8.7,0,0,0,.87,1.31,2.52,2.52,0,0,0,.81.67,2.33,2.33,0,0,0,1,.2h.87v2.31Z"/><path class="cls-1" d="M573,1779a8.73,8.73,0,0,0-2.4.43,12.34,12.34,0,0,0-1.89.8q-1.35.75-2.4,1.41a19.13,19.13,0,0,1-2.12,1.15,12,12,0,0,1-2.25.78,11.75,11.75,0,0,1-2.74.29h-1.77a.6.6,0,0,1-.51-.33,1.54,1.54,0,0,1-.21-.84,1.48,1.48,0,0,1,.21-.83.6.6,0,0,1,.51-.31h1.86a12.47,12.47,0,0,0,2.7-.24,10.15,10.15,0,0,0,2-.68c.63-.29,1.32-.64,2.06-1.06s1.69-.9,2.85-1.44a20.1,20.1,0,0,1-2-.72l-1.65-.72c-.49-.22-.92-.41-1.29-.56a2.48,2.48,0,0,0-.88-.22,1.85,1.85,0,0,0-1,.39,8.59,8.59,0,0,0-1.5,1.5l-1.26-.75q.36-.57.81-1.17a10.23,10.23,0,0,1,.94-1.1,4.84,4.84,0,0,1,1-.79,2.09,2.09,0,0,1,1-.3,4.44,4.44,0,0,1,1.77.48l2.31,1.06a25.74,25.74,0,0,0,2.7,1.07,9.33,9.33,0,0,0,3,.48h.6Zm-9.51-8-1.83-1.56,1.35-1.59,1.83,1.53Z"/><path class="cls-1" d="M598.56,1775.72a5.7,5.7,0,0,0-.95-.38,3.33,3.33,0,0,0-.94-.13,3.85,3.85,0,0,0-1.74.43,7.2,7.2,0,0,0-1.58,1.07,6.26,6.26,0,0,0-1.15,1.35,2.51,2.51,0,0,0-.45,1.29.67.67,0,0,0,.4.6,6.1,6.1,0,0,0,1.34.36l1.6.27,1.37.24a3.14,3.14,0,0,1,1.74.76,2.23,2.23,0,0,1,.48,1.55,3.31,3.31,0,0,1-.89,2.13,8.76,8.76,0,0,1-2.32,1.89,13.93,13.93,0,0,1-3.26,1.35,13.6,13.6,0,0,1-3.7.51,8.87,8.87,0,0,1-2.9-.45,6.14,6.14,0,0,1-2.22-1.31,5.88,5.88,0,0,1-1.42-2.08,7.23,7.23,0,0,1-.51-2.79,8.82,8.82,0,0,1,.39-2.73,11.19,11.19,0,0,1,1.23-2.52l1.38.66a11,11,0,0,0-.93,2.07,6.5,6.5,0,0,0-.33,2,4.55,4.55,0,0,0,1.44,3.55,5.87,5.87,0,0,0,4.08,1.31,12,12,0,0,0,3.07-.38,13.79,13.79,0,0,0,2.51-.9,8.46,8.46,0,0,0,1.74-1.08,3.09,3.09,0,0,0,.81-.88.61.61,0,0,0-.29-.38,3.74,3.74,0,0,0-1-.28l-2.76-.45a7.82,7.82,0,0,1-1.1-.24,2.54,2.54,0,0,1-.85-.44,1.86,1.86,0,0,1-.56-.73,3,3,0,0,1-.19-1.17,5.27,5.27,0,0,1,.61-2.39,8.86,8.86,0,0,1,1.61-2.22,8.67,8.67,0,0,1,2.2-1.63,5.18,5.18,0,0,1,2.39-.63,3.78,3.78,0,0,1,1.23.19,4.31,4.31,0,0,1,1.17.65Z"/><path class="cls-1" d="M605,1783.52,603,1784v-20.25l1.92-.9Z"/><path class="cls-1" d="M615.24,1783.82a4.62,4.62,0,0,1-1-.11,1.91,1.91,0,0,1-.9-.49,5.94,5.94,0,0,1-.71,2.38,10.44,10.44,0,0,1-1.65,2.25,20.74,20.74,0,0,1-2.41,2.16c-.92.71-1.92,1.43-3,2.15l-1.53-1.47a36.33,36.33,0,0,0,3.21-2.21,25.44,25.44,0,0,0,2.38-2.07,10,10,0,0,0,1.49-1.81,2.94,2.94,0,0,0,.51-1.47,4.54,4.54,0,0,0-.53-1.88,25.74,25.74,0,0,0-1.36-2.44l1.56-1.53,1.15,2a8.7,8.7,0,0,0,.87,1.31,2.52,2.52,0,0,0,.81.67,2.33,2.33,0,0,0,1,.2H616v2.31Z"/><path class="cls-1" d="M619.89,1780.22a4.28,4.28,0,0,0-.36-1.28,9.65,9.65,0,0,0-1.24-2.11l1.54-1.62a8.27,8.27,0,0,1,1.41,2.46,7,7,0,0,1,.45,2.28,3.59,3.59,0,0,1-1.16,2.88,5.41,5.41,0,0,1-3.58,1H616a.6.6,0,0,1-.51-.33,1.54,1.54,0,0,1-.22-.84,1.48,1.48,0,0,1,.22-.83.6.6,0,0,1,.51-.31h1a6.26,6.26,0,0,0,2-.3Q619.89,1780.91,619.89,1780.22Zm-1,9.24L617,1787.9l1.35-1.59,1.83,1.53Z"/><path class="cls-1" d="M492.43,1819.82a4.71,4.71,0,0,1-1.2-.14,2.81,2.81,0,0,1-.91-.42,3.44,3.44,0,0,1-.75-.73,8.61,8.61,0,0,1-.71-1.11,4.07,4.07,0,0,1-2.14,2.16,9.15,9.15,0,0,1-3.35.54,7,7,0,0,1-2.35-.33,4.8,4.8,0,0,1-1.79-1.23l1-1.71a4.31,4.31,0,0,0,1.43.73,6.8,6.8,0,0,0,1.9.23,6.94,6.94,0,0,0,3.08-.56c.73-.37,1.09-.81,1.09-1.33a9,9,0,0,0-.66-2.54q-.66-1.82-1.92-4.78l1.56-1.62,2.7,7.17a14.55,14.55,0,0,0,.69,1.63,4.68,4.68,0,0,0,.69,1,2,2,0,0,0,.77.54,2.59,2.59,0,0,0,.91.15h1v2.31Z"/><path class="cls-1" d="M502,1819.82a4.89,4.89,0,0,1-2.23-.45,3.14,3.14,0,0,1-1.4-1.53,3.88,3.88,0,0,1-1.48,1.5,4.67,4.67,0,0,1-2.24.48h-1.23a.6.6,0,0,1-.51-.33,1.54,1.54,0,0,1-.21-.84,1.48,1.48,0,0,1,.21-.83.6.6,0,0,1,.51-.31h1.23a3.51,3.51,0,0,0,2.18-.56,2.79,2.79,0,0,0,.79-2.11l0-1.14,1.68-.42a14.06,14.06,0,0,0,.12,2,3.16,3.16,0,0,0,.45,1.3,1.82,1.82,0,0,0,.92.71,4.53,4.53,0,0,0,1.51.21h1.17v2.31Zm-5.4,5.49-1.77-1.47,1.29-1.53,1.74,1.47Zm3.57,0-1.74-1.47,1.32-1.53,1.71,1.47Z"/><path class="cls-1" d="M525.31,1819.82a4.93,4.93,0,0,1-2.22-.45,3,3,0,0,1-1.38-1.56,3.45,3.45,0,0,1-3.21,2,3.15,3.15,0,0,1-1.75-.5,3.33,3.33,0,0,1-1.22-1.54,4,4,0,0,1-1.41,1.53,4.18,4.18,0,0,1-2.19.51,4.46,4.46,0,0,1-2.14-.44,3.18,3.18,0,0,1-1.31-1.57,3.65,3.65,0,0,1-3.39,2h-1.56a.6.6,0,0,1-.51-.33,1.54,1.54,0,0,1-.21-.84,1.48,1.48,0,0,1,.21-.83.6.6,0,0,1,.51-.31H505a3.35,3.35,0,0,0,1.95-.54,2.27,2.27,0,0,0,.84-1.89v-1.38l1.68-.42a14.06,14.06,0,0,0,.12,2,3.49,3.49,0,0,0,.42,1.3,1.72,1.72,0,0,0,.78.71,3,3,0,0,0,1.2.21,3,3,0,0,0,2.12-.63,3.13,3.13,0,0,0,.7-2.16v-1l1.68-.42a7.14,7.14,0,0,0,.54,3.27,1.8,1.8,0,0,0,1.68,1,2.39,2.39,0,0,0,1.56-.54,2.48,2.48,0,0,0,.72-1.89v-1.38l1.68-.42a12.91,12.91,0,0,0,.12,1.9,3.42,3.42,0,0,0,.45,1.32,1.93,1.93,0,0,0,.9.77,3.83,3.83,0,0,0,1.47.24h1.08v2.31Zm-11.1-9.45-1.74-1.47,1.29-1.53,1.74,1.47Zm1.38-3.51-1.68-1.38,1.26-1.5,1.65,1.44Zm2.22,3.51-1.74-1.47,1.29-1.53,1.74,1.47Z"/><path class="cls-1" d="M541.09,1819.82a4.44,4.44,0,0,1-1.44-.23,4.88,4.88,0,0,1-1.38-.78,15.39,15.39,0,0,1-1.62-1.48q-.9-.93-2.16-2.34a3.13,3.13,0,0,1-.09,1.17,3.76,3.76,0,0,1-1.78,2.68,6.78,6.78,0,0,1-3.74,1h-2.22a.6.6,0,0,1-.51-.33,1.54,1.54,0,0,1-.21-.84,1.48,1.48,0,0,1,.21-.83.6.6,0,0,1,.51-.31h2.43a5.06,5.06,0,0,0,2.94-.71,2.5,2.5,0,0,0,1.14-1.51,4,4,0,0,0-.39-1.41,7.63,7.63,0,0,0-1-1.49,18.83,18.83,0,0,0-1.62-1.72c-.65-.62-1.43-1.33-2.33-2.13a10.64,10.64,0,0,1,.27-1.74,1.38,1.38,0,0,1,.42-.72c.6-.4,1.33-.85,2.18-1.35s1.79-1,2.82-1.59,2.12-1.13,3.27-1.71,2.31-1.15,3.49-1.71l-.27,2.43c-1,.44-2,.9-3,1.39s-1.94,1-2.83,1.46-1.71.93-2.46,1.36-1.38.82-1.88,1.16c.68.6,1.38,1.26,2.09,2l2.13,2.22,2.1,2.24c.69.74,1.35,1.41,2,2a6.18,6.18,0,0,0,1.53,1.18,3.25,3.25,0,0,0,1.47.35h1.08v2.31Z"/><path class="cls-1" d="M546.13,1816.22a4.28,4.28,0,0,0-.36-1.28,10,10,0,0,0-1.23-2.11l1.53-1.62a8.06,8.06,0,0,1,1.41,2.46,7,7,0,0,1,.45,2.28,3.58,3.58,0,0,1-1.15,2.88,5.44,5.44,0,0,1-3.59,1h-.93a.6.6,0,0,1-.51-.33,1.54,1.54,0,0,1-.21-.84,1.48,1.48,0,0,1,.21-.83.6.6,0,0,1,.51-.31h1a6.26,6.26,0,0,0,2-.3Q546.13,1816.91,546.13,1816.22Zm-2.76,9.24-1.83-1.56,1.35-1.59,1.83,1.53Z"/><path class="cls-1" d="M562.54,1820.15a25.3,25.3,0,0,1-2.77-.15,17.48,17.48,0,0,1-2.69-.51l.42-2.43a14.68,14.68,0,0,0,6.33-4.38,16.11,16.11,0,0,0-1.9-2.64,28.07,28.07,0,0,0-2.49-2.51q-1.34-1.18-2.7-2.19a30.1,30.1,0,0,0-2.54-1.69l.36-2.4q1.11.66,2.49,1.65a30.3,30.3,0,0,1,2.76,2.25,32.78,32.78,0,0,1,2.66,2.73,22.08,22.08,0,0,1,2.23,3.06,9.08,9.08,0,0,0,.66-2.57,28.28,28.28,0,0,0,.15-3.07c0-.3,0-.67,0-1.11s0-.91,0-1.41,0-1-.05-1.55,0-1-.06-1.51l1.92-.9c0,.48,0,1,.05,1.57s0,1.13,0,1.67,0,1,0,1.5,0,.82,0,1.08a24.25,24.25,0,0,1-.37,4.51,11.34,11.34,0,0,1-1.25,3.5,13.14,13.14,0,0,1,.83,2,7,7,0,0,1,.31,2,3.06,3.06,0,0,1-1.08,2.58A5.4,5.4,0,0,1,562.54,1820.15Zm.18-2a4.72,4.72,0,0,0,1.91-.3,1.24,1.24,0,0,0,.76-.9,4.88,4.88,0,0,0-.22-1.43,9,9,0,0,0-.56-1.39,11.46,11.46,0,0,1-2.25,2.08,17.45,17.45,0,0,1-3.06,1.7,14.14,14.14,0,0,0,1.44.18Q561.52,1818.14,562.72,1818.14Z"/><path class="cls-1" d="M575.68,1819.82a4.11,4.11,0,0,1-2.23-.51,3.09,3.09,0,0,1-1.17-1.32,5.3,5.3,0,0,1-.45-1.86c-.05-.7-.09-1.41-.11-2.13,0-1-.06-2.13-.07-3.32s0-2.4-.06-3.64-.07-2.49-.11-3.74-.1-2.44-.18-3.58l1.92-.9q.09,2.43.12,4.35c0,1.28,0,2.48,0,3.6s0,2.19,0,3.21,0,2.08.06,3.18c0,.6,0,1.16.08,1.69a4.57,4.57,0,0,0,.27,1.38,2,2,0,0,0,.7.93,2.28,2.28,0,0,0,1.35.35h1v2.31Z"/><path class="cls-1" d="M580.69,1816.22a4.28,4.28,0,0,0-.36-1.28,10,10,0,0,0-1.23-2.11l1.53-1.62a8.06,8.06,0,0,1,1.41,2.46,7,7,0,0,1,.45,2.28,3.58,3.58,0,0,1-1.15,2.88,5.44,5.44,0,0,1-3.59,1h-.93a.6.6,0,0,1-.51-.33,1.54,1.54,0,0,1-.21-.84,1.48,1.48,0,0,1,.21-.83.6.6,0,0,1,.51-.31h1a6.26,6.26,0,0,0,2-.3Q580.69,1816.91,580.69,1816.22Zm-2.76,9.24-1.83-1.56,1.35-1.59,1.83,1.53Z"/><path class="cls-1" d="M592.63,1819.52l-1.92.45v-20.25l1.92-.9Z"/><path class="cls-1" d="M601.09,1817.24a5.75,5.75,0,0,1-.6,2.55,10.2,10.2,0,0,1-1.65,2.38,19.19,19.19,0,0,1-2.49,2.27q-1.44,1.11-3.09,2.22l-1.53-1.47a36.33,36.33,0,0,0,3.21-2.21,25.67,25.67,0,0,0,2.39-2.07,9.92,9.92,0,0,0,1.48-1.81,2.94,2.94,0,0,0,.51-1.47,3.24,3.24,0,0,0-.15-.9,8.54,8.54,0,0,0-.4-1.08,13,13,0,0,0-.6-1.17c-.23-.4-.48-.79-.74-1.17l1.53-1.53a12.15,12.15,0,0,1,1.62,2.92A7.48,7.48,0,0,1,601.09,1817.24Z"/><rect class="cls-2" y="249.5" width="1080" height="1"/><rect class="cls-3" y="570.49" width="1080" height="1"/><rect class="cls-4" y="484.12" width="1080" height="1"/><rect class="cls-5" x="993.58" y="484.62" width="86.37" height="21.59"/><rect class="cls-5" x="993.58" y="549.4" width="86.37" height="21.59"/><rect class="cls-5" x="989.72" y="517.03" width="94.13" height="21.59" transform="translate(-99.15 779.16) rotate(-39.46)"/><circle class="cls-1" cx="75.95" cy="95.51" r="45.07"/><polygon class="cls-6" points="48.38 74 48.38 77.43 57.54 77.43 46.62 94.54 62.07 94.54 62.07 91.12 52.87 91.12 63.78 74 48.38 74"/><polygon class="cls-6" points="67.25 94.54 80.89 94.54 80.89 91.12 70.66 91.12 70.65 85.98 80.89 85.98 80.89 82.56 70.64 82.56 70.63 77.43 80.89 77.43 80.89 74 67.2 74 67.25 94.54"/><polygon class="cls-6" points="99.72 91.12 89.45 91.12 89.45 85.98 99.72 85.98 99.72 82.56 89.45 82.56 89.45 77.43 99.72 77.43 99.72 74 86.03 74 86.03 94.54 99.72 94.54 99.72 91.12"/><polygon class="cls-6" points="67.2 120.21 80.89 120.21 80.89 116.79 70.62 116.79 70.62 111.65 80.89 111.65 80.89 108.23 70.62 108.23 70.62 103.1 80.89 103.1 80.89 99.67 67.2 99.67 67.2 120.21"/><polygon class="cls-6" points="98 99.67 98 113.54 89.3 99.67 86.03 99.67 86.03 120.21 89.45 120.21 89.45 106.34 98.15 120.21 101.43 120.21 101.43 99.67 98 99.67"/><path class="cls-1" d="M179.29,82.59,162.4,105.48h17.47v3.4H157.58v-3.12l16.88-22.88H158.11V79.47h21.18Z"/><path class="cls-1" d="M205.22,108.88H185V79.47h19.79v3.45H189.06v9.33h14.06v3.36H189.06v9.83h16.16Z"/><path class="cls-1" d="M231.24,108.88H211V79.47h19.79v3.45H215.08v9.33h14.07v3.36H215.08v9.83h16.16Z"/><path class="cls-1" d="M257.27,108.88h-20.2V79.47h19.79v3.45H241.11v9.33h14.06v3.36H241.11v9.83h16.16Z"/><path class="cls-1" d="M266.93,108.88h-3.84V79.47h4.53l14.09,22.32V79.47h3.82v29.41H282L266.93,85Z"/><path class="cls-1" d="M302.73,109.39q-5.31,0-8.43-2.56a8.89,8.89,0,0,1-3.2-7l4-.52a6.8,6.8,0,0,0,2.12,5,8.18,8.18,0,0,0,5.55,1.73,6.78,6.78,0,0,0,4.56-1.42,4.77,4.77,0,0,0,1.68-3.83,3.9,3.9,0,0,0-1.17-3,8.77,8.77,0,0,0-4-1.69l-3.92-.85a11.35,11.35,0,0,1-5.94-2.89,7.79,7.79,0,0,1,.81-11A10.55,10.55,0,0,1,301.85,79a11.28,11.28,0,0,1,7.39,2.26,8.81,8.81,0,0,1,3.15,6.27l-4,.49q-.69-5.7-6.56-5.7a6.74,6.74,0,0,0-4.36,1.26,4.67,4.67,0,0,0-.42,6.52,7.27,7.27,0,0,0,3.65,1.66l4.57,1a11.27,11.27,0,0,1,5.83,2.75,7.07,7.07,0,0,1,1.87,5.15,8.06,8.06,0,0,1-2.81,6.29A10.92,10.92,0,0,1,302.73,109.39Z"/><path class="cls-1" d="M322.77,108.88h-4V79.47h4v12.7h14.74V79.47h4v29.41h-4V95.65H322.77Z"/><path class="cls-1" d="M375.25,94.18q0,6.93-3.82,11a14.39,14.39,0,0,1-20.24,0q-3.79-4.16-3.79-11t3.79-11a14.44,14.44,0,0,1,20.28,0C374,85.87,375.25,89.54,375.25,94.18Zm-21.13-8.56c-1.76,2.09-2.64,4.95-2.64,8.56s.88,6.46,2.64,8.57a9.76,9.76,0,0,0,14.38,0,13,13,0,0,0,2.65-8.57c0-3.61-.88-6.47-2.64-8.56a9.79,9.79,0,0,0-14.39,0Z"/><path class="cls-1" d="M385.15,108.88h-4V79.47h11.61a10.5,10.5,0,0,1,7.38,2.61,8.55,8.55,0,0,1,2.85,6.6,9.47,9.47,0,0,1-2.89,7.06,10.06,10.06,0,0,1-7.34,2.81h-7.57Zm13.74-20.2a5.38,5.38,0,0,0-1.8-4.17,6.71,6.71,0,0,0-4.68-1.63h-7.26V95.14h7.26a6.14,6.14,0,0,0,6.48-6.46Z"/><path class="cls-1" d="M449.63,87.29a4.62,4.62,0,0,0-1.41-3.54,5.19,5.19,0,0,0-3.72-1.32,5.68,5.68,0,0,0-4.75,2,9.1,9.1,0,0,0-1.5,5.91l-3.86-.51q-.3-5,2.52-7.94A10.06,10.06,0,0,1,444.5,79a9.34,9.34,0,0,1,6.69,2.3,7.93,7.93,0,0,1,2.48,6,10.59,10.59,0,0,1-1.5,5.29,25.21,25.21,0,0,1-4.84,5.72l-7.85,7.22h14.95v3.36H434.27v-3.44l10.58-9.7a18.64,18.64,0,0,0,3.7-4.33A8.31,8.31,0,0,0,449.63,87.29Z"/><path class="cls-1" d="M477.58,95.26v13.62h-3.73V95.94a5.64,5.64,0,0,0-1.28-4,4.78,4.78,0,0,0-3.68-1.38,5.19,5.19,0,0,0-4.19,1.7,7.6,7.6,0,0,0-1.43,5v11.59h-3.73V79.47h3.73v11a7.31,7.31,0,0,1,6.46-3.08,7.74,7.74,0,0,1,5.76,2.12A7.89,7.89,0,0,1,477.58,95.26Z"/><path class="cls-5" d="M857.32,120.16a3.3,3.3,0,0,0-1-2.52,3.72,3.72,0,0,0-2.66-1,4.06,4.06,0,0,0-3.39,1.44,6.57,6.57,0,0,0-1.07,4.23l-2.76-.37a6.8,6.8,0,0,1,7.22-7.76,6.67,6.67,0,0,1,4.78,1.64,5.67,5.67,0,0,1,1.77,4.29,7.49,7.49,0,0,1-1.07,3.78,17.89,17.89,0,0,1-3.45,4.09l-5.62,5.16h10.68v2.4h-14.4v-2.46l7.56-6.93a13.09,13.09,0,0,0,2.65-3.09A6,6,0,0,0,857.32,120.16Z"/><path class="cls-5" d="M871.67,122.14a6.55,6.55,0,0,1,4.82,1.77,6.25,6.25,0,0,1,1.79,4.66,6.86,6.86,0,0,1-7.41,7.38,8.51,8.51,0,0,1-5.07-1.4,5.9,5.9,0,0,1-2.43-3.94l2.88-.4a4.05,4.05,0,0,0,1.5,2.53,5,5,0,0,0,3,.87,4.5,4.5,0,0,0,3.43-1.28,5.1,5.1,0,0,0,1.21-3.64,4.37,4.37,0,0,0-1.08-3.14,4,4,0,0,0-3-1.12,5.74,5.74,0,0,0-2.57.6,5.44,5.44,0,0,0-2,1.62l-2.49-.93,1.59-11.14h10.89V117h-8.6l-1,6.79A6.79,6.79,0,0,1,871.67,122.14Z"/><path class="cls-5" d="M881.32,125.09a13.57,13.57,0,0,1,2.07-8,7.24,7.24,0,0,1,11.59,0q2.09,2.87,2.09,8c0,3.36-.7,6-2.09,7.95a7.27,7.27,0,0,1-11.6,0C882,131.17,881.32,128.5,881.32,125.09Zm11.58,6.26a12.29,12.29,0,0,0,1.31-6.26,12.37,12.37,0,0,0-1.3-6.26,4.21,4.21,0,0,0-7.42,0,12.3,12.3,0,0,0-1.32,6.21,12.46,12.46,0,0,0,1.29,6.26,4.25,4.25,0,0,0,7.44,0Z"/><path class="cls-5" d="M908.53,120.22a6.19,6.19,0,0,1,4.87,2.14,8.24,8.24,0,0,1,1.84,5.61,8.74,8.74,0,0,1-1.84,5.79,6,6,0,0,1-4.87,2.19,5.74,5.74,0,0,1-4.87-2.43v7.62H901V120.59h2.61v2.25A5.65,5.65,0,0,1,908.53,120.22Zm4,7.87A6.44,6.44,0,0,0,911.3,124a3.79,3.79,0,0,0-3.17-1.51,4,4,0,0,0-3.29,1.53,6.27,6.27,0,0,0-1.23,4,6.17,6.17,0,0,0,1.24,4,4,4,0,0,0,3.28,1.53,3.79,3.79,0,0,0,3.17-1.51A6.35,6.35,0,0,0,912.48,128.09Z"/><path class="cls-5" d="M916.25,135.59l5.64-7.62-5.36-7.38h3.06l4,5.49,4.09-5.49h3l-5.48,7.35,5.67,7.65h-3.12l-4.21-5.73-4.23,5.73Z"/><rect class="cls-5" x="879.06" y="155.27" width="3" height="93.23"/><rect class="cls-5" x="870.81" y="247" width="19.5" height="3"/><rect class="cls-5" x="879.06" y="1.5" width="3" height="93.23"/><rect class="cls-5" x="870.81" width="19.5" height="3"/><path class="cls-5" d="M857.32,1790.16a3.3,3.3,0,0,0-1-2.52,3.72,3.72,0,0,0-2.66-1,4.06,4.06,0,0,0-3.39,1.44,6.57,6.57,0,0,0-1.07,4.23l-2.76-.37a6.8,6.8,0,0,1,7.22-7.76,6.67,6.67,0,0,1,4.78,1.64,5.67,5.67,0,0,1,1.77,4.29,7.49,7.49,0,0,1-1.07,3.78,18.1,18.1,0,0,1-3.45,4.09l-5.62,5.16h10.68v2.4h-14.4v-2.46l7.56-6.93a13.09,13.09,0,0,0,2.65-3.09A6,6,0,0,0,857.32,1790.16Z"/><path class="cls-5" d="M871.67,1792.14a6.55,6.55,0,0,1,4.82,1.77,6.25,6.25,0,0,1,1.79,4.66,6.86,6.86,0,0,1-7.41,7.38,8.51,8.51,0,0,1-5.07-1.4,5.9,5.9,0,0,1-2.43-3.94l2.88-.4a4.05,4.05,0,0,0,1.5,2.53,5,5,0,0,0,3,.87,4.5,4.5,0,0,0,3.43-1.28,5.1,5.1,0,0,0,1.21-3.64,4.37,4.37,0,0,0-1.08-3.14,4,4,0,0,0-3-1.12,5.74,5.74,0,0,0-2.57.6,5.44,5.44,0,0,0-2,1.62l-2.49-.94,1.59-11.13h10.89v2.4h-8.6l-1,6.79A6.79,6.79,0,0,1,871.67,1792.14Z"/><path class="cls-5" d="M881.32,1795.08a13.56,13.56,0,0,1,2.07-7.95,7.24,7.24,0,0,1,11.59,0q2.09,2.86,2.09,7.95c0,3.37-.7,6-2.09,8a7.27,7.27,0,0,1-11.6,0Q881.33,1800.22,881.32,1795.08Zm11.58,6.27a15.67,15.67,0,0,0,0-12.52,4.21,4.21,0,0,0-7.42.05,12.29,12.29,0,0,0-1.32,6.2,12.48,12.48,0,0,0,1.29,6.27,4.25,4.25,0,0,0,7.44,0Z"/><path class="cls-5" d="M908.53,1790.22a6.16,6.16,0,0,1,4.87,2.14,8.24,8.24,0,0,1,1.84,5.61,8.74,8.74,0,0,1-1.84,5.79,6,6,0,0,1-4.87,2.19,5.74,5.74,0,0,1-4.87-2.43v7.62H901v-20.55h2.61v2.25A5.65,5.65,0,0,1,908.53,1790.22Zm4,7.87a6.44,6.44,0,0,0-1.18-4.07,3.79,3.79,0,0,0-3.17-1.51,4,4,0,0,0-3.29,1.53,6.27,6.27,0,0,0-1.23,4,6.17,6.17,0,0,0,1.24,4,4,4,0,0,0,3.28,1.53,3.79,3.79,0,0,0,3.17-1.51A6.35,6.35,0,0,0,912.48,1798.09Z"/><path class="cls-5" d="M916.25,1805.59l5.64-7.62-5.36-7.38h3.06l4,5.49,4.09-5.49h3l-5.48,7.35,5.67,7.65h-3.12l-4.21-5.73-4.23,5.73Z"/><rect class="cls-5" x="879.06" y="1825.27" width="3" height="93.23"/><rect class="cls-5" x="870.81" y="1917" width="19.5" height="3"/><rect class="cls-5" x="879.06" y="1671.5" width="3" height="93.23"/><rect class="cls-5" x="870.81" y="1670" width="19.5" height="3"/><rect class="cls-7" x="993.13" width="1" height="1080"/><rect class="cls-5" x="993.58" y="916.82" width="86.37" height="21.59"/><rect class="cls-5" x="993.58" y="981.59" width="86.37" height="21.59"/><rect class="cls-5" x="989.72" y="949.22" width="94.13" height="21.59" transform="translate(-373.81 877.65) rotate(-39.46)"/><rect class="cls-5" y="916.82" width="86.37" height="21.59"/><rect class="cls-5" y="981.59" width="86.37" height="21.59"/><rect class="cls-5" x="-3.86" y="949.22" width="94.13" height="21.59" transform="translate(-600.24 246.24) rotate(-39.46)"/><rect class="cls-8" x="85.9" width="1" height="1919.91"/><path class="cls-9" d="M540,571h0a453.57,453.57,0,0,1,453.57,453.57V1670a0,0,0,0,1,0,0H86.43a0,0,0,0,1,0,0V1024.56A453.57,453.57,0,0,1,540,571Z"/><rect class="cls-10" y="1669.5" width="1080" height="1"/><rect class="cls-11" x="993.07" width="1" height="1919.91"/></g></svg>