<svg xmlns="http://www.w3.org/2000/svg" xmlns:xlink="http://www.w3.org/1999/xlink" viewBox="0 0 1080 1080"><defs><style>.cls-1{fill:url(#linear-gradient);}.cls-2{fill:#4672e2;}.cls-3{fill:url(#linear-gradient-2);}.cls-4{fill:url(#linear-gradient-3);}.cls-5{fill:url(#linear-gradient-4);}.cls-6{fill:url(#linear-gradient-5);}.cls-7{fill:url(#linear-gradient-6);}.cls-8{fill:url(#linear-gradient-7);}.cls-9{fill:#fff;}</style><linearGradient id="linear-gradient" x1="19281.51" y1="12282.45" x2="19281.51" y2="11202.45" gradientTransform="translate(-11202.45 19481.72) rotate(-90)" gradientUnits="userSpaceOnUse"><stop offset="0" stop-color="#fff" stop-opacity="0"/><stop offset="0.51" stop-color="#fff"/><stop offset="1" stop-color="#fff" stop-opacity="0"/></linearGradient><linearGradient id="linear-gradient-2" x1="19395.94" y1="12282.45" x2="19395.94" y2="11202.45" xlink:href="#linear-gradient"/><linearGradient id="linear-gradient-3" x1="19194.76" y1="12282.45" x2="19194.76" y2="11202.45" xlink:href="#linear-gradient"/><linearGradient id="linear-gradient-4" x1="19238.31" y1="12282.45" x2="19238.31" y2="11202.45" xlink:href="#linear-gradient"/><linearGradient id="linear-gradient-5" x1="18488.68" y1="12282.45" x2="18488.68" y2="11202.45" xlink:href="#linear-gradient"/><linearGradient id="linear-gradient-6" x1="21411.35" y1="6233.85" x2="21411.35" y2="5153.85" gradientTransform="translate(-20417.72 -5154.44)" xlink:href="#linear-gradient"/><linearGradient id="linear-gradient-7" x1="20504.09" y1="6233.85" x2="20504.09" y2="5153.85" gradientTransform="translate(-20417.72 -5154.44)" xlink:href="#linear-gradient"/></defs><g id="Graphic"><rect class="cls-1" y="199.7" width="1080" height="1"/><path class="cls-2" d="M105,286H91V265.58h13.78v2.92H94.37v5.73h9.19v2.82H94.37v6H105Z"/><path class="cls-2" d="M112.07,286H108.8V265.58h3.76L121.67,280V265.58h3.27V286h-3l-9.9-15.61Z"/><path class="cls-2" d="M138.65,286.37a9.55,9.55,0,0,1-7.21-2.89,12,12,0,0,1,.06-15.32,9.7,9.7,0,0,1,7.4-2.92,10,10,0,0,1,5.94,1.69,8.15,8.15,0,0,1,3.17,4.78l-3.36.58a5.5,5.5,0,0,0-5.75-4.1,6.13,6.13,0,0,0-4.9,2.05,8.31,8.31,0,0,0-1.78,5.64,8,8,0,0,0,1.84,5.46,6.24,6.24,0,0,0,4.87,2.08,6.55,6.55,0,0,0,4.4-1.44,4.57,4.57,0,0,0,1.73-3.62v-.7h-5.9V275h9V286h-3.09v-2.53a7,7,0,0,1-2.74,2.14A8.9,8.9,0,0,1,138.65,286.37Z"/><path class="cls-2" d="M165.3,286H152.38V265.58h3.42v17.48h9.5Z"/><path class="cls-2" d="M171.67,286h-3.42V265.58h3.42Z"/><path class="cls-2" d="M183.54,286.37a9.38,9.38,0,0,1-6-1.78,6.06,6.06,0,0,1-2.27-4.9l3.41-.39a4.28,4.28,0,0,0,1.34,3.19,5.18,5.18,0,0,0,3.54,1.1,4.4,4.4,0,0,0,2.9-.88,2.91,2.91,0,0,0,1.06-2.35,2.41,2.41,0,0,0-.73-1.87,5.5,5.5,0,0,0-2.54-1l-2.69-.55q-5.68-1.17-5.68-5.87a5.19,5.19,0,0,1,2-4.1,7.64,7.64,0,0,1,5.2-1.7,8.17,8.17,0,0,1,5.28,1.6,6.07,6.07,0,0,1,2.27,4.36l-3.48.37c-.25-2.38-1.62-3.56-4.1-3.56a4.32,4.32,0,0,0-2.74.78,2.54,2.54,0,0,0-1,2.11,2.62,2.62,0,0,0,.69,1.93,4.21,4.21,0,0,0,2.24,1l3.14.61a8,8,0,0,1,4.25,1.94,5,5,0,0,1,1.4,3.69,5.78,5.78,0,0,1-2.08,4.53A7.92,7.92,0,0,1,183.54,286.37Z"/><path class="cls-2" d="M198.11,286h-3.42V265.58h3.42v8.49h9.44v-8.49H211V286h-3.42v-9h-9.44Z"/><path class="cls-2" d="M225.55,286h-3.42V265.58h3.42v8.49H235v-8.49h3.42V286H235v-9h-9.44Z"/><path class="cls-2" d="M252.7,271.2a2.88,2.88,0,0,0-.87-2.19,3.18,3.18,0,0,0-2.29-.82,3.54,3.54,0,0,0-3,1.33,5.81,5.81,0,0,0-.85,3.86l-3.32-.45a7,7,0,0,1,1.81-5.62,7.22,7.22,0,0,1,5.41-2.07,6.88,6.88,0,0,1,4.79,1.64,5.4,5.4,0,0,1,1.78,4.22,7.35,7.35,0,0,1-1.06,3.74,16.89,16.89,0,0,1-3.4,3.94l-4.87,4.34h9.94V286H242.3v-2.86l7.26-6.5a11.22,11.22,0,0,0,2.41-2.77A5.27,5.27,0,0,0,252.7,271.2Z"/><path class="cls-2" d="M266.82,279.47h-7.65v-2.82h7.65Z"/><path class="cls-2" d="M274.48,286h-3.42V265.58h3.42v8.49h9.45v-8.49h3.41V286h-3.41v-9h-9.45Z"/><path class="cls-2" d="M306.23,286H292.17V265.58H306v2.92H295.59v5.73h9.19v2.82h-9.19v6h10.64Z"/><path class="cls-2" d="M321.75,281.5h-8.64L311.45,286H308l7.7-20.43h3.7L327.06,286h-3.67Zm-7.58-2.84h6.57l-3.25-9Z"/><path class="cls-2" d="M338.23,286h-8.32V265.58h8.32a10.07,10.07,0,0,1,7.38,2.7,9.6,9.6,0,0,1,2.73,7.23,10.56,10.56,0,0,1-2.76,7.61A9.68,9.68,0,0,1,338.23,286Zm6.65-10.5a7,7,0,0,0-1.81-5.08,6.35,6.35,0,0,0-4.84-1.9h-4.9v14.53h4.9a6.09,6.09,0,0,0,4.84-2.06A8,8,0,0,0,344.88,275.51Z"/><path class="cls-2" d="M355.58,286h-3.42V265.58h3.42Z"/><path class="cls-2" d="M363.67,286h-3.26V265.58h3.76l9.1,14.39V265.58h3.28V286h-3l-9.9-15.61Z"/><path class="cls-2" d="M390.25,286.37a9.53,9.53,0,0,1-7.2-2.89,12.06,12.06,0,0,1,.05-15.32,9.74,9.74,0,0,1,7.41-2.92,9.94,9.94,0,0,1,5.93,1.69,8.1,8.1,0,0,1,3.17,4.78l-3.36.58a5.49,5.49,0,0,0-5.74-4.1,6.15,6.15,0,0,0-4.91,2.05,8.36,8.36,0,0,0-1.77,5.64,8,8,0,0,0,1.84,5.46,6.22,6.22,0,0,0,4.87,2.08,6.57,6.57,0,0,0,4.4-1.44,4.57,4.57,0,0,0,1.73-3.62v-.7h-5.9V275h9V286h-3.09v-2.53a7,7,0,0,1-2.73,2.14A8.94,8.94,0,0,1,390.25,286.37Z"/><path class="cls-2" d="M99.83,321.38a9.55,9.55,0,0,1-7.21-2.89,12,12,0,0,1,.06-15.32,9.71,9.71,0,0,1,7.41-2.92,9.94,9.94,0,0,1,5.93,1.69,8.15,8.15,0,0,1,3.17,4.78l-3.36.58a5.5,5.5,0,0,0-5.74-4.1,6.14,6.14,0,0,0-4.91,2.05,8.36,8.36,0,0,0-1.78,5.64,8,8,0,0,0,1.84,5.46,6.24,6.24,0,0,0,4.87,2.08,6.58,6.58,0,0,0,4.41-1.44,4.59,4.59,0,0,0,1.72-3.62v-.7h-5.9V310h9v11h-3.09v-2.53a7,7,0,0,1-2.74,2.14A8.9,8.9,0,0,1,99.83,321.38Z"/><path class="cls-2" d="M132.18,310.81a10.88,10.88,0,0,1-2.69,7.68,10.31,10.31,0,0,1-14.32,0,12.35,12.35,0,0,1,0-15.35,10.28,10.28,0,0,1,14.29,0A10.77,10.77,0,0,1,132.18,310.81Zm-14.48-5.57a10,10,0,0,0,0,11.15,6.33,6.33,0,0,0,9.31,0,10,10,0,0,0,0-11.15,6.33,6.33,0,0,0-9.31,0Z"/><path class="cls-2" d="M150,321H136V300.59h13.78v2.92H139.4v5.73h9.19v2.82H139.4v6H150Z"/><path class="cls-2" d="M160.87,321.38a9.35,9.35,0,0,1-6-1.78,6.1,6.1,0,0,1-2.28-4.9l3.42-.39a4.24,4.24,0,0,0,1.34,3.19,5.18,5.18,0,0,0,3.53,1.1,4.39,4.39,0,0,0,2.9-.88,2.88,2.88,0,0,0,1.06-2.35,2.38,2.38,0,0,0-.73-1.87,5.45,5.45,0,0,0-2.53-1l-2.69-.55q-5.69-1.17-5.69-5.87a5.19,5.19,0,0,1,2-4.1,7.66,7.66,0,0,1,5.2-1.7,8.18,8.18,0,0,1,5.29,1.6,6.06,6.06,0,0,1,2.26,4.36l-3.47.37c-.26-2.38-1.63-3.56-4.11-3.56a4.33,4.33,0,0,0-2.74.78,2.54,2.54,0,0,0-1,2.11,2.58,2.58,0,0,0,.7,1.93,4.14,4.14,0,0,0,2.24,1l3.13.61a8,8,0,0,1,4.26,1.94,5,5,0,0,1,1.4,3.69,5.82,5.82,0,0,1-2.08,4.53A7.94,7.94,0,0,1,160.87,321.38Z"/><path class="cls-2" d="M181.77,321h-3.42V300.59h3.42v8.49h9.44v-8.49h3.42V321h-3.42v-9h-9.44Z"/><path class="cls-2" d="M213.52,321H199.46V300.59h13.78v2.92H202.88v5.73h9.19v2.82h-9.19v6h10.64Z"/><path class="cls-2" d="M232.57,315.82l.3,5.2h-3.42l-.3-5.2a2.47,2.47,0,0,0-.93-1.94,4.49,4.49,0,0,0-2.65-.62h-4.84V321h-3.42V300.59h8.49a7.66,7.66,0,0,1,5.1,1.61,5,5,0,0,1,2,4.09,5.92,5.92,0,0,1-.86,3.13,6.1,6.1,0,0,1-2.42,2.21A4.21,4.21,0,0,1,232.57,315.82Zm-3.18-9.19a2.83,2.83,0,0,0-1-2.29,4.29,4.29,0,0,0-2.82-.85h-4.82v6.95h4.82a3.62,3.62,0,0,0,3.84-3.81Z"/><path class="cls-2" d="M251.15,321H237.09V300.59h13.77v2.92H240.5v5.73h9.19v2.82H240.5v6h10.65Z"/><path class="cls-2" d="M92.61,86.4h14v4.93h-4.33v33.36h14.9a2.2,2.2,0,0,0,.92-.21,3.06,3.06,0,0,0,.82-.56,2.81,2.81,0,0,0,.6-.78,2,2,0,0,0,.23-.9V116.8h5.41v12.79H92.61v-4.9h4.1V91.33h-4.1Z"/><path class="cls-2" d="M148.22,130.45a19.74,19.74,0,0,1-8.18-1.67,20.87,20.87,0,0,1-6.61-4.74,20.61,20.61,0,0,1-4.41-7.3,25.63,25.63,0,0,1-1.51-8.74A25.16,25.16,0,0,1,129,99.22a21.92,21.92,0,0,1,4.28-7.14,20,20,0,0,1,6.55-4.78,20.85,20.85,0,0,1,16.77,0,19.93,19.93,0,0,1,6.55,4.78,21.83,21.83,0,0,1,4.24,7.14,25.16,25.16,0,0,1,1.51,8.78,24.82,24.82,0,0,1-1.52,8.76,22.13,22.13,0,0,1-4.27,7.13,19.8,19.8,0,0,1-14.92,6.56Zm0-5.3a13.37,13.37,0,0,0,6.14-1.4,14.52,14.52,0,0,0,4.69-3.75,17,17,0,0,0,3-5.45,20.9,20.9,0,0,0-.1-13.38,16.13,16.13,0,0,0-3.22-5.57,14.61,14.61,0,0,0-4.8-3.52,13.74,13.74,0,0,0-5.7-1.24,13.44,13.44,0,0,0-6.15,1.4,14.34,14.34,0,0,0-4.7,3.75,16.83,16.83,0,0,0-3,5.47,21.42,21.42,0,0,0,.11,13.64,15.56,15.56,0,0,0,3.09,5.19,16.8,16.8,0,0,0,4.59,3.46A12.82,12.82,0,0,0,148.22,125.15Z"/><path class="cls-2" d="M201.76,86.4h14v4.93H212.1v38.26h-7.29L184.72,93.78v30.91h4.44v4.9h-14v-4.9h4V91.33H175v-5h11.63l19.71,35.47.23-1.36V91.33h-4.84Z"/><path class="cls-2" d="M254.64,129.76V121.1a14.78,14.78,0,0,1-6.33,6.67,17.36,17.36,0,0,1-4.26,1.62,19.75,19.75,0,0,1-4.6.54,21,21,0,0,1-7.78-1.41,17.89,17.89,0,0,1-6.45-4.48,20.93,20.93,0,0,1-4.42-7.3,25.81,25.81,0,0,1-1.52-8.8,25,25,0,0,1,1.52-8.72,22,22,0,0,1,4.28-7.15,19.68,19.68,0,0,1,14.8-6.53,19.13,19.13,0,0,1,7.05,1.17,19.56,19.56,0,0,1,5,2.84,23.16,23.16,0,0,1,3.35,3.17h2.76V97.8H252a14.22,14.22,0,0,0-5.06-5.13,14.07,14.07,0,0,0-13.06-.43A14.52,14.52,0,0,0,229.15,96a17.71,17.71,0,0,0-3,5.44,19.24,19.24,0,0,0-1.09,6.5,20.17,20.17,0,0,0,1.2,7,15.81,15.81,0,0,0,3.05,5.27,14.92,14.92,0,0,0,4.57,3.34,13.51,13.51,0,0,0,6,1.33,14.44,14.44,0,0,0,9-2.66q3.51-2.67,4.9-8.31H241.67v-4.9h18.27v20.71Z"/><path class="cls-2" d="M312.36,86.4h14v4.9h-4.11v33.39h4.11v4.9h-14v-4.9h4.33V109.16h-25v15.53H296v4.9H282v-4.9h4.1V91.3H282V86.4h14v4.9H291.7v13.08h25V91.3h-4.33Z"/><path class="cls-2" d="M337.35,124.69h4.18V93.1l-8.74,4.75V91.9l12-6.73h2.28v39.52h4.25v4.9h-14Z"/><path class="cls-2" d="M402.08,86.4h14v4.9H412v33.39h4.11v4.9h-14v-4.9h4.33V109.16h-25v15.53h4.33v4.9h-14v-4.9h4.11V91.3h-4.11V86.4h14v4.9h-4.33v13.08h25V91.3h-4.33Z"/><path class="cls-2" d="M424.24,86.4h30.95V98.62h-5.85V91.33H433.93v13.82h13v4.9h-13v14.64h15.41V117.4h5.85v12.19H424.24v-4.9h4.11V91.33h-4.11Z"/><path class="cls-2" d="M486.44,124.69H490l-3.42-9.8H470l-3.33,9.8h4.44v4.9h-14v-4.9h3.77L474.3,86.4h8.41l13.42,38.29h4.33v4.9h-14Zm-14.82-14.53H485l-6.73-19.32Z"/><path class="cls-2" d="M504.82,86.4h16.07a20.39,20.39,0,0,1,10.62,2.93,20.84,20.84,0,0,1,4.19,3.35A20.56,20.56,0,0,1,538.91,97a21.77,21.77,0,0,1,2,5.14,22.45,22.45,0,0,1,.72,5.71,22.91,22.91,0,0,1-.72,5.79,22.24,22.24,0,0,1-2,5.18,20.87,20.87,0,0,1-3.21,4.4,20.35,20.35,0,0,1-4.19,3.39,20.16,20.16,0,0,1-10.62,3H504.82v-4.9h4.1V91.33h-4.1Zm9.68,4.93v33.36h6.73a12.55,12.55,0,0,0,5.63-1.31,14.72,14.72,0,0,0,4.6-3.57,17.21,17.21,0,0,0,3.1-5.33,18.76,18.76,0,0,0,1.14-6.6,18.19,18.19,0,0,0-1.14-6.49,16.86,16.86,0,0,0-3.1-5.26,14.71,14.71,0,0,0-4.6-3.52,12.79,12.79,0,0,0-5.63-1.28Z"/><path class="cls-2" d="M547.75,86.4h13.79v4.93h-4.1v33.36h4.1v4.9H547.75v-4.9h4.11V91.33h-4.11Z"/><path class="cls-2" d="M596.42,86.4h14v4.93h-3.67v38.26h-7.29L579.38,93.78v30.91h4.44v4.9h-14v-4.9h4V91.33h-4.1v-5h11.63L601,121.81l.23-1.36V91.33h-4.84Z"/><path class="cls-2" d="M649.3,129.76V121.1a14.78,14.78,0,0,1-6.33,6.67,17.36,17.36,0,0,1-4.26,1.62,19.75,19.75,0,0,1-4.6.54,21,21,0,0,1-7.78-1.41,17.89,17.89,0,0,1-6.45-4.48,20.93,20.93,0,0,1-4.42-7.3,25.81,25.81,0,0,1-1.52-8.8,25,25,0,0,1,1.52-8.72,22,22,0,0,1,4.28-7.15,19.68,19.68,0,0,1,14.8-6.53,19.13,19.13,0,0,1,7.05,1.17,19.56,19.56,0,0,1,5,2.84A23.16,23.16,0,0,1,650,92.72h2.76V97.8h-6.12a14.22,14.22,0,0,0-5.06-5.13,14.07,14.07,0,0,0-13.06-.43A14.52,14.52,0,0,0,623.81,96a17.71,17.71,0,0,0-3,5.44,19.24,19.24,0,0,0-1.09,6.5,20.17,20.17,0,0,0,1.2,7,15.81,15.81,0,0,0,3.05,5.27,14.92,14.92,0,0,0,4.57,3.34,13.51,13.51,0,0,0,6,1.33,14.44,14.44,0,0,0,9-2.66q3.51-2.67,4.9-8.31H636.33v-4.9H654.6v20.71Z"/><path class="cls-2" d="M125.94,199.78v-8.66a14.48,14.48,0,0,1-2.71,3.92,15,15,0,0,1-3.61,2.75,17.36,17.36,0,0,1-4.26,1.62,19.81,19.81,0,0,1-4.6.54,20.91,20.91,0,0,1-7.78-1.41,17.84,17.84,0,0,1-6.46-4.48,20.9,20.9,0,0,1-4.41-7.3,25.58,25.58,0,0,1-1.53-8.8,24.76,24.76,0,0,1,1.53-8.72,21.94,21.94,0,0,1,4.27-7.15,19.89,19.89,0,0,1,6.55-4.79,19.62,19.62,0,0,1,8.25-1.74,19.06,19.06,0,0,1,7,1.17,19.8,19.8,0,0,1,5,2.84,23,23,0,0,1,3.34,3.17h2.77v5.08h-6.13a14.28,14.28,0,0,0-5.05-5.13,14.09,14.09,0,0,0-13.07-.43,14.59,14.59,0,0,0-4.68,3.76,17.53,17.53,0,0,0-3,5.44,19.49,19.49,0,0,0-1.08,6.5,20.17,20.17,0,0,0,1.2,7,15.79,15.79,0,0,0,3,5.27,15,15,0,0,0,4.58,3.34,13.46,13.46,0,0,0,6,1.33,14.47,14.47,0,0,0,9-2.66q3.5-2.67,4.9-8.31H113v-4.9h18.26v20.71Z"/><path class="cls-2" d="M159.25,200.47a19.74,19.74,0,0,1-8.18-1.67,20.76,20.76,0,0,1-11-12,25.87,25.87,0,0,1-1.51-8.74,24.94,24.94,0,0,1,1.53-8.78,21.9,21.9,0,0,1,4.27-7.14,20.18,20.18,0,0,1,6.56-4.78,20.83,20.83,0,0,1,16.76,0,20,20,0,0,1,6.56,4.78,22,22,0,0,1,4.24,7.14,26.14,26.14,0,0,1,0,17.54,22,22,0,0,1-4.28,7.13,19.76,19.76,0,0,1-14.91,6.56Zm0-5.3a13.4,13.4,0,0,0,6.14-1.4,14.48,14.48,0,0,0,4.68-3.75,17,17,0,0,0,3-5.45,20.9,20.9,0,0,0-.1-13.38,16.29,16.29,0,0,0-3.22-5.57,14.61,14.61,0,0,0-4.8-3.52,13.8,13.8,0,0,0-5.7-1.24,13.51,13.51,0,0,0-6.16,1.4,14.45,14.45,0,0,0-4.7,3.75,17,17,0,0,0-3,5.47,21.61,21.61,0,0,0,.11,13.64,15.41,15.41,0,0,0,3.1,5.19,16.9,16.9,0,0,0,4.58,3.46A12.89,12.89,0,0,0,159.25,195.17Z"/><path class="cls-2" d="M186.06,156.42H217v12.22h-5.84v-7.29H195.74v13.82h13v4.9h-13v14.64h15.42v-7.29H217v12.19H186.06v-4.9h4.1V161.35h-4.1Z"/><path class="cls-2" d="M243.92,164.4a7,7,0,0,0-2-1.93,9.53,9.53,0,0,0-2.4-1,9.9,9.9,0,0,0-2.62-.36,13,13,0,0,0-3.79.5,8,8,0,0,0-2.7,1.35,5.68,5.68,0,0,0-1.61,2,5.53,5.53,0,0,0-.54,2.39,6.09,6.09,0,0,0,.67,3,5.61,5.61,0,0,0,1.7,1.85,8.75,8.75,0,0,0,2.26,1.09l2.38.8L241,176a27.61,27.61,0,0,1,4.57,1.88,12.63,12.63,0,0,1,3.32,2.5,9.93,9.93,0,0,1,2,3.32,12.57,12.57,0,0,1,.69,4.35,11.29,11.29,0,0,1-1.09,5,11.9,11.9,0,0,1-3.07,4,14.61,14.61,0,0,1-4.68,2.64,18.14,18.14,0,0,1-6,1,19,19,0,0,1-5.7-.75,12.46,12.46,0,0,1-4-2,10.2,10.2,0,0,1-2.58-2.89,15.48,15.48,0,0,1-1.51-3.33H220.9v-4.9h7.18a10.72,10.72,0,0,0,.67,4.47,6.05,6.05,0,0,0,1.87,2.18,8.5,8.5,0,0,0,2.85,1.31,13.81,13.81,0,0,0,3.64.44,12.46,12.46,0,0,0,3.49-.45,7.76,7.76,0,0,0,2.65-1.33,5.83,5.83,0,0,0,1.68-2.11,6.46,6.46,0,0,0,.59-2.8,5.59,5.59,0,0,0-.73-3,7.07,7.07,0,0,0-1.86-2.07,10.89,10.89,0,0,0-2.5-1.39c-.9-.36-1.77-.68-2.6-.94l-6.24-1.77a18.71,18.71,0,0,1-3.75-1.59,11.28,11.28,0,0,1-2.91-2.37,10,10,0,0,1-1.86-3.26,12.94,12.94,0,0,1-.66-4.32,11.31,11.31,0,0,1,1-4.64,10.81,10.81,0,0,1,2.85-3.79,13.79,13.79,0,0,1,4.6-2.55,19.25,19.25,0,0,1,6.23-.93,15.92,15.92,0,0,1,4.26.54,13.71,13.71,0,0,1,3.53,1.53,12.39,12.39,0,0,1,2.79,2.36,14.19,14.19,0,0,1,2,3h2.14v4.9h-7A6.36,6.36,0,0,0,243.92,164.4Z"/><path class="cls-2" d="M300.28,156.42h14v4.9h-4.11v33.39h4.11v4.9h-14v-4.9h4.33V179.18h-25v15.53H284v4.9h-14v-4.9H274V161.32h-4.1v-4.9h14v4.9h-4.33V174.4h25V161.32h-4.33Z"/><path class="cls-2" d="M322.44,156.42h30.95v12.22h-5.84v-7.29H332.13v13.82h13v4.9h-13v14.64h15.42v-7.29h5.84v12.19H322.44v-4.9h4.11V161.35h-4.11Z"/><path class="cls-2" d="M359.08,156.42h18a18,18,0,0,1,5.32.75,12.29,12.29,0,0,1,4.21,2.23,10,10,0,0,1,2.78,3.66,12,12,0,0,1,1,5,9.24,9.24,0,0,1-.59,3.21,11.21,11.21,0,0,1-1.62,2.93,12.23,12.23,0,0,1-2.46,2.41,11.38,11.38,0,0,1-3.11,1.62,6.78,6.78,0,0,1,1.44.9,8.45,8.45,0,0,1,1.37,1.42,12.1,12.1,0,0,1,1.16,1.91,11.46,11.46,0,0,1,.85,2.3l2.39,9.4h3.73l.06,5.41h-8.41L382,186.48a10.26,10.26,0,0,0-2.69-5.2,7,7,0,0,0-4.94-1.67h-5.56v15.1h4.33v4.9h-14v-4.9h4.11V161.35h-4.11Zm9.69,4.93v13.59h8.29a9.66,9.66,0,0,0,3-.43,6.48,6.48,0,0,0,2.34-1.28,6.14,6.14,0,0,0,1.54-2.12,7.32,7.32,0,0,0,.55-3,6.52,6.52,0,0,0-1.94-5q-1.93-1.78-6.15-1.79Z"/><path class="cls-2" d="M400.62,156.42h30.95v12.22h-5.84v-7.29H410.31v13.82h13v4.9h-13v14.64h15.42v-7.29h5.84v12.19H400.62v-4.9h4.11V161.35h-4.11Z"/><rect class="cls-2" x="88.53" y="240.65" width="43.2" height="4.32"/><rect class="cls-3" y="85.28" width="1080" height="1"/><rect class="cls-4" y="286.46" width="1080" height="1"/><rect class="cls-5" y="242.9" width="1080" height="1"/><rect class="cls-6" y="992.54" width="1080" height="1"/><rect class="cls-7" x="993.13" y="-0.59" width="1" height="1080"/><rect class="cls-8" x="85.87" y="-0.59" width="1" height="1080"/><rect class="cls-9" x="907.23" y="200.22" width="86.37" height="21.59"/><rect class="cls-9" x="907.23" y="265" width="86.37" height="21.59"/><rect class="cls-9" x="903.37" y="232.63" width="94.13" height="21.59" transform="translate(61.9 659.47) rotate(-39.46)"/><rect class="cls-9" x="993.59" y="-0.59" width="86.37" height="21.59"/><rect class="cls-9" x="993.59" y="64.19" width="86.37" height="21.59"/><rect class="cls-9" x="989.72" y="31.82" width="94.13" height="21.59" transform="translate(209.2 668.58) rotate(-39.46)"/><rect class="cls-9" y="-0.59" width="86.37" height="21.59"/><rect class="cls-9" y="64.19" width="86.37" height="21.59"/><rect class="cls-9" x="-3.86" y="31.82" width="94.13" height="21.59" transform="translate(-17.24 37.17) rotate(-39.46)"/><rect class="cls-9" x="993.59" y="993.04" width="86.37" height="21.59"/><rect class="cls-9" x="993.59" y="1057.82" width="86.37" height="21.59"/><rect class="cls-9" x="989.72" y="1025.45" width="94.13" height="21.59" transform="translate(-422.25 895.03) rotate(-39.46)"/><rect class="cls-9" y="993.04" width="86.37" height="21.59"/><rect class="cls-9" y="1057.82" width="86.37" height="21.59"/><rect class="cls-9" x="-3.86" y="1025.45" width="94.13" height="21.59" transform="translate(-648.68 263.61) rotate(-39.46)"/><polygon class="cls-2" points="477.25 993.6 444.75 993.6 467.72 957.6 448.45 957.6 448.45 950.4 480.85 950.4 457.89 986.4 477.25 986.4 477.25 993.6"/><polygon class="cls-2" points="516.76 993.6 488.06 993.6 487.95 950.4 516.76 950.4 516.76 957.6 495.17 957.6 495.24 986.4 516.76 986.4 516.76 993.6"/><rect class="cls-2" x="491.56" y="968.4" width="25.2" height="7.2"/><polygon class="cls-2" points="556.45 993.6 527.65 993.6 527.65 950.4 556.45 950.4 556.45 957.6 534.85 957.6 534.85 986.4 556.45 986.4 556.45 993.6"/><rect class="cls-2" x="531.25" y="968.4" width="25.2" height="7.2"/><polygon class="cls-2" points="596.05 993.6 567.25 993.6 567.25 950.4 596.05 950.4 596.05 957.6 574.45 957.6 574.45 986.4 596.05 986.4 596.05 993.6"/><rect class="cls-2" x="570.85" y="968.4" width="25.2" height="7.2"/><polygon class="cls-2" points="639.25 993.6 632.08 993.6 614.05 964.18 614.05 993.6 606.85 993.6 606.85 950.4 614.04 950.4 632.05 979.78 632.05 950.4 639.25 950.4 639.25 993.6"/><path class="cls-2" d="M99.77,980.79l-9.08,11.14H100v1.67H88.4V992l9.16-11.26H88.88V979.1H99.77Z"/><path class="cls-2" d="M109.06,992.32a3.7,3.7,0,0,0,4-3.34l1.9.3a5,5,0,0,1-1.91,3.41,6.28,6.28,0,0,1-4,1.27,6.52,6.52,0,0,1-5.11-2,8.24,8.24,0,0,1-1.76-5.67,7.94,7.94,0,0,1,1.84-5.51,6.31,6.31,0,0,1,5-2.06,5.86,5.86,0,0,1,4.57,1.78,7.21,7.21,0,0,1,1.62,5v1.23H104.24C104.36,990.47,106,992.32,109.06,992.32Zm-.1-11.94a4.31,4.31,0,0,0-3.23,1.21,5.77,5.77,0,0,0-1.43,3.55h8.77Q112.86,980.39,109,980.38Z"/><path class="cls-2" d="M124.8,992.32a3.7,3.7,0,0,0,4-3.34l1.9.3a5,5,0,0,1-1.91,3.41,6.28,6.28,0,0,1-4,1.27,6.54,6.54,0,0,1-5.11-2,8.24,8.24,0,0,1-1.76-5.67,7.94,7.94,0,0,1,1.84-5.51,6.31,6.31,0,0,1,5-2.06,5.86,5.86,0,0,1,4.57,1.78,7.21,7.21,0,0,1,1.62,5v1.23H120C120.1,990.47,121.7,992.32,124.8,992.32Zm-.1-11.94a4.31,4.31,0,0,0-3.23,1.21,5.77,5.77,0,0,0-1.43,3.55h8.77Q128.6,980.39,124.7,980.38Z"/><path class="cls-2" d="M140.54,992.32a3.71,3.71,0,0,0,4-3.34l1.89.3a4.92,4.92,0,0,1-1.91,3.41,6.26,6.26,0,0,1-4,1.27,6.55,6.55,0,0,1-5.11-2,8.24,8.24,0,0,1-1.76-5.67,8,8,0,0,1,1.84-5.51,6.33,6.33,0,0,1,5-2.06,5.86,5.86,0,0,1,4.57,1.78,7.21,7.21,0,0,1,1.63,5v1.23H135.72C135.84,990.47,137.44,992.32,140.54,992.32Zm-.1-11.94a4.32,4.32,0,0,0-3.23,1.21,5.77,5.77,0,0,0-1.43,3.55h8.78Q144.33,980.39,140.44,980.38Z"/><path class="cls-2" d="M162.46,984.21v9.39h-2v-9a4.32,4.32,0,0,0-1-3,3.64,3.64,0,0,0-2.81-1.07,3.94,3.94,0,0,0-3.22,1.33,5.93,5.93,0,0,0-1.1,3.87v7.91h-2V979.1h2V981a5.16,5.16,0,0,1,4.65-2.26,5,5,0,0,1,5.45,5.45Z"/><path class="cls-2" d="M166.65,990.76h2.69v2.84h-2.69Z"/><path class="cls-2" d="M175.7,976.5h-2v-3.33h2Zm0,17.1h-2V979.1h2Z"/><path class="cls-2" d="M182.34,993.6h-2V979.1h2v2.83a4.58,4.58,0,0,1,4.31-2.83h1.08V981h-1.08a3.63,3.63,0,0,0-3.12,1.77,8.2,8.2,0,0,0-1.19,4.66Z"/></g></svg>