<svg xmlns="http://www.w3.org/2000/svg" xmlns:xlink="http://www.w3.org/1999/xlink" viewBox="0 0 1079.33 1080"><defs><style>.cls-1{fill:#fff;}.cls-2{fill:#e0c4a3;}.cls-3{fill:#afb6b6;}.cls-10,.cls-11,.cls-12,.cls-13,.cls-14,.cls-4,.cls-6,.cls-8,.cls-9{fill:none;stroke-miterlimit:10;}.cls-11,.cls-4{stroke:#b43f18;stroke-width:12.72px;}.cls-5{fill:#b6b6b6;}.cls-10,.cls-13,.cls-6,.cls-9{stroke:#000;}.cls-10,.cls-6{stroke-width:7.95px;}.cls-7{clip-path:url(#clip-path);}.cls-8{stroke:#828282;stroke-width:3.79px;}.cls-9{stroke-width:9.26px;}.cls-10,.cls-11{stroke-linecap:round;}.cls-12{stroke:#b6b6b6;stroke-width:8.34px;}.cls-13{stroke-width:7.15px;}.cls-14{stroke:#fff;stroke-width:1.59px;}.cls-15{fill:#06676b;}.cls-16{fill:#404545;}.cls-17{fill:#ed9b97;}.cls-18{fill:#91d7f3;}</style><clipPath id="clip-path"><path class="cls-1" d="M610.66,133.34a68.43,68.43,0,1,0-136,10.8L494.2,392.05h95.19l20.34-247.47A68.29,68.29,0,0,0,610.66,133.34Z"/></clipPath></defs><g id="Graphics"><rect class="cls-2" width="1080" height="1080"/><polygon points="733.67 288.23 689.83 228.26 645.99 288.23 645.99 288.23 645.99 470.76 733.68 470.76 733.68 288.23 733.67 288.23"/><polygon points="438.47 288.23 394.63 228.26 350.78 288.23 350.78 288.23 350.78 470.76 438.47 470.76 438.47 288.23 438.47 288.23"/><path class="cls-3" d="M191.45,453l131.72,70.44h0a90.71,90.71,0,1,1-131.72,80.91v-.17h0Z"/><path d="M221.74,503l90.61,48.45h0a62.4,62.4,0,1,1-90.61,55.66V607h0Z"/><circle class="cls-4" cx="853.48" cy="700.3" r="41.55"/><path class="cls-3" d="M892.18,453,760.46,523.46h0a90.71,90.71,0,1,0,131.72,80.91v-.17h0Z"/><path d="M861.89,503l-90.61,48.45h0a62.4,62.4,0,1,0,90.61,55.66V607h0Z"/><rect class="cls-5" x="456.64" y="701.55" width="155.34" height="109.41" rx="54.71"/><path class="cls-5" d="M862.2,477.11a3.58,3.58,0,0,1-3.58-3.57V432.21a3.58,3.58,0,1,1,7.16,0v41.33A3.57,3.57,0,0,1,862.2,477.11Z"/><path class="cls-5" d="M875.4,470.06a3.58,3.58,0,0,1-3.57-3.58V425.15a3.58,3.58,0,0,1,7.15,0v41.33A3.58,3.58,0,0,1,875.4,470.06Z"/><path class="cls-5" d="M888.61,463a3.58,3.58,0,0,1-3.58-3.58V418.1a3.58,3.58,0,1,1,7.15,0v41.32A3.57,3.57,0,0,1,888.61,463Z"/><path class="cls-5" d="M221.43,477.11a3.58,3.58,0,0,1-3.58-3.57V432.21a3.58,3.58,0,1,1,7.16,0v41.33A3.57,3.57,0,0,1,221.43,477.11Z"/><path class="cls-5" d="M208.23,470.06a3.58,3.58,0,0,1-3.58-3.58V425.15a3.58,3.58,0,0,1,7.15,0v41.33A3.58,3.58,0,0,1,208.23,470.06Z"/><path class="cls-5" d="M195,463a3.57,3.57,0,0,1-3.57-3.58V418.1a3.58,3.58,0,1,1,7.15,0v41.32A3.58,3.58,0,0,1,195,463Z"/><path class="cls-1" d="M435.73,840.48V952.91c-26.47-.27-47.85-25.33-47.85-56.21S409.26,840.75,435.73,840.48Z"/><path class="cls-1" d="M648.73,840.48V952.91c26.46-.27,47.84-25.33,47.84-56.21S675.19,840.75,648.73,840.48Z"/><circle class="cls-3" cx="650.85" cy="569.58" r="146.78"/><circle class="cls-3" cx="433.6" cy="569.58" r="146.78"/><rect class="cls-3" x="286.8" y="568.33" width="510.86" height="211.11"/><circle cx="542.23" cy="473.54" r="32.91"/><line class="cls-6" x1="542.23" y1="473.54" x2="542.23" y2="387.03"/><circle class="cls-4" cx="542.23" cy="473.54" r="20.51"/><path class="cls-1" d="M610.66,133.34a68.43,68.43,0,1,0-136,10.8L494.2,392.05h95.19l20.34-247.47A68.29,68.29,0,0,0,610.66,133.34Z"/><g class="cls-7"><line class="cls-8" x1="542.23" y1="64.91" x2="542.23" y2="392.05"/><line class="cls-8" x1="630.18" y1="13.91" x2="542.23" y2="101.87"/><line class="cls-8" x1="630.18" y1="48.74" x2="542.23" y2="136.69"/><line class="cls-8" x1="630.18" y1="83.57" x2="542.23" y2="171.52"/><line class="cls-8" x1="630.18" y1="118.39" x2="542.23" y2="206.34"/><line class="cls-8" x1="630.18" y1="153.22" x2="542.23" y2="241.17"/><line class="cls-8" x1="630.18" y1="188.04" x2="542.23" y2="275.99"/><line class="cls-8" x1="630.18" y1="222.87" x2="542.23" y2="310.82"/><line class="cls-8" x1="630.18" y1="257.69" x2="542.23" y2="345.64"/><line class="cls-8" x1="630.18" y1="292.52" x2="542.23" y2="380.47"/><line class="cls-8" x1="454.62" y1="13.91" x2="542.57" y2="101.87"/><line class="cls-8" x1="454.62" y1="48.74" x2="542.57" y2="136.69"/><line class="cls-8" x1="454.62" y1="83.57" x2="542.57" y2="171.52"/><line class="cls-8" x1="454.62" y1="118.39" x2="542.57" y2="206.34"/><line class="cls-8" x1="454.62" y1="153.22" x2="542.57" y2="241.17"/><line class="cls-8" x1="454.62" y1="188.04" x2="542.57" y2="275.99"/><line class="cls-8" x1="454.62" y1="222.87" x2="542.57" y2="310.82"/><line class="cls-8" x1="454.62" y1="257.69" x2="542.57" y2="345.64"/><line class="cls-8" x1="454.62" y1="292.52" x2="542.57" y2="380.47"/></g><line class="cls-9" x1="602.61" y1="392.11" x2="481.85" y2="392.11"/><circle class="cls-3" cx="435.73" cy="804.26" r="106.52"/><circle class="cls-3" cx="648.73" cy="804.26" r="106.52"/><rect class="cls-5" x="343.3" y="761.48" width="387.42" height="62.54"/><line class="cls-10" x1="886.58" y1="808.39" x2="584.05" y2="808.39"/><line class="cls-10" x1="886.58" y1="831.54" x2="584.05" y2="831.54"/><line class="cls-10" x1="886.58" y1="854.69" x2="584.05" y2="854.69"/><line class="cls-10" x1="499.65" y1="808.39" x2="197.12" y2="808.39"/><line class="cls-10" x1="499.65" y1="831.54" x2="197.12" y2="831.54"/><line class="cls-10" x1="499.65" y1="854.69" x2="197.12" y2="854.69"/><path class="cls-11" d="M817.63,679.29a41.23,41.23,0,0,0-5.58,24.18"/><rect class="cls-3" x="329.2" y="772.88" width="7.5" height="31.38"/><rect class="cls-3" x="747.76" y="772.88" width="7.5" height="31.38"/><circle cx="554.86" cy="759.61" r="25.47"/><circle cx="528.77" cy="759.61" r="25.47"/><polyline points="503.49 638.05 503.49 751.91 541.95 776.06 580.15 751.91 580.15 638.05"/><polyline class="cls-12" points="486.87 740.87 541.95 776.06 589.81 744.92"/><path class="cls-13" d="M435.73,914.36A106.53,106.53,0,0,0,542.25,807.83l0-.62V781"/><path class="cls-13" d="M648.73,914.36A106.53,106.53,0,0,1,542.21,807.83l0-.62V781"/><line class="cls-14" x1="721.72" y1="527.39" x2="752.49" y2="496.63"/><line class="cls-14" x1="752.49" y1="527.39" x2="721.72" y2="496.63"/><line class="cls-14" x1="715.35" y1="512.01" x2="758.86" y2="512.01"/><line class="cls-14" x1="737.1" y1="533.76" x2="737.1" y2="490.26"/><line class="cls-14" x1="617.8" y1="493.21" x2="648.57" y2="462.44"/><line class="cls-14" x1="648.57" y1="493.21" x2="617.8" y2="462.44"/><line class="cls-14" x1="611.43" y1="477.83" x2="654.94" y2="477.83"/><line class="cls-14" x1="633.19" y1="499.58" x2="633.19" y2="456.07"/><line class="cls-14" x1="526.4" y1="597.09" x2="557.16" y2="566.32"/><line class="cls-14" x1="557.16" y1="597.09" x2="526.4" y2="566.32"/><line class="cls-14" x1="520.03" y1="581.71" x2="563.53" y2="581.71"/><line class="cls-14" x1="541.78" y1="603.46" x2="541.78" y2="559.95"/><line class="cls-14" x1="379.24" y1="489.12" x2="410.01" y2="458.36"/><line class="cls-14" x1="410.01" y1="489.12" x2="379.24" y2="458.36"/><line class="cls-14" x1="372.87" y1="473.74" x2="416.38" y2="473.74"/><line class="cls-14" x1="394.63" y1="495.49" x2="394.63" y2="451.98"/><line class="cls-14" x1="306.17" y1="703.51" x2="336.93" y2="672.74"/><line class="cls-14" x1="336.93" y1="703.51" x2="306.17" y2="672.74"/><line class="cls-14" x1="299.8" y1="688.12" x2="343.3" y2="688.12"/><line class="cls-14" x1="321.55" y1="709.88" x2="321.55" y2="666.37"/><line class="cls-14" x1="402.73" y1="771.63" x2="433.5" y2="740.87"/><line class="cls-14" x1="433.5" y1="771.63" x2="402.73" y2="740.87"/><line class="cls-14" x1="396.36" y1="756.25" x2="439.87" y2="756.25"/><line class="cls-14" x1="418.11" y1="778.01" x2="418.11" y2="734.5"/><line class="cls-14" x1="728.09" y1="741.73" x2="758.86" y2="710.97"/><line class="cls-14" x1="758.86" y1="741.73" x2="728.09" y2="710.97"/><line class="cls-14" x1="721.72" y1="726.35" x2="765.23" y2="726.35"/><line class="cls-14" x1="743.48" y1="748.1" x2="743.48" y2="704.59"/><polyline class="cls-15" points="695.87 589.82 646.43 528.98 597 589.82"/><polygon class="cls-15" points="646.43 528.98 671.34 528.98 647.4 552.91 646.43 528.98"/><polygon class="cls-15" points="657.64 542.74 682.55 542.74 658.62 566.68 657.64 542.74"/><polygon class="cls-15" points="668.84 556.6 693.75 556.6 669.81 580.53 668.84 556.6"/><polygon class="cls-15" points="680.05 570.33 704.96 570.33 681.02 594.27 680.05 570.33"/><polygon class="cls-15" points="691.24 584.12 716.15 584.12 692.21 608.05 691.24 584.12"/><circle class="cls-15" cx="646.43" cy="634.02" r="66.29"/><circle class="cls-16" cx="646.43" cy="634.02" r="52.31"/><circle class="cls-1" cx="646.43" cy="634.02" r="43.13"/><circle class="cls-17" cx="646.43" cy="634.02" r="35.78"/><circle cx="646.43" cy="634.02" r="16.44"/><polyline class="cls-15" points="387.76 589.82 437.2 528.98 486.64 589.82"/><polygon class="cls-15" points="437.2 528.98 412.29 528.98 436.23 552.91 437.2 528.98"/><polygon class="cls-15" points="425.99 542.74 401.08 542.74 425.02 566.68 425.99 542.74"/><polygon class="cls-15" points="414.79 556.6 389.88 556.6 413.82 580.53 414.79 556.6"/><polygon class="cls-15" points="403.58 570.33 378.67 570.33 402.61 594.27 403.58 570.33"/><polygon class="cls-15" points="392.39 584.12 367.48 584.12 391.42 608.05 392.39 584.12"/><circle class="cls-15" cx="437.2" cy="634.02" r="66.29"/><circle class="cls-16" cx="437.2" cy="634.02" r="52.31"/><circle class="cls-1" cx="437.2" cy="634.02" r="43.13"/><circle class="cls-18" cx="437.2" cy="634.02" r="35.78"/><circle cx="437.2" cy="634.02" r="16.44"/></g></svg>