<svg xmlns="http://www.w3.org/2000/svg" xmlns:xlink="http://www.w3.org/1999/xlink" viewBox="0 0 1080 1080"><defs><style>.cls-1,.cls-10,.cls-11,.cls-12,.cls-13,.cls-14,.cls-5,.cls-8{fill:none;}.cls-2{fill:#fff;}.cls-3{fill:#66ff78;}.cls-4{clip-path:url(#clip-path);}.cls-5{stroke:#002d6e;stroke-width:2px;}.cls-10,.cls-11,.cls-12,.cls-13,.cls-14,.cls-5,.cls-8{stroke-miterlimit:10;}.cls-6{fill:red;}.cls-7{fill:#b5b1b0;}.cls-11,.cls-12,.cls-13,.cls-8{stroke:#000;}.cls-12,.cls-8{stroke-width:7.95px;}.cls-9{clip-path:url(#clip-path-2);}.cls-10{stroke:#828282;stroke-width:3.79px;}.cls-11{stroke-width:9.26px;}.cls-12{stroke-linecap:round;}.cls-13{stroke-width:7.15px;}.cls-14{stroke:#fff;stroke-width:1.59px;}.cls-15{fill:aqua;}.cls-16{fill:#404545;}.cls-17{fill:#f910ee;}</style><clipPath id="clip-path"><rect class="cls-1" y="-1104" width="1080" height="1080"/></clipPath><clipPath id="clip-path-2"><path class="cls-2" d="M610.66,133.34a68.43,68.43,0,1,0-136,10.8L494.2,392.05h95.19l20.34-247.47A68.29,68.29,0,0,0,610.66,133.34Z"/></clipPath></defs><g id="Graphics"><rect class="cls-3" width="1080" height="1080"/><path class="cls-2" d="M435.73,840.48V952.91c-26.47-.27-47.85-25.33-47.85-56.21S409.26,840.75,435.73,840.48Z"/><path class="cls-2" d="M648.73,840.48V952.91c26.46-.27,47.84-25.33,47.84-56.21S675.19,840.75,648.73,840.48Z"/><g class="cls-4"><line class="cls-5" x1="-755.79" y1="-928.69" x2="904.69" y2="731.79"/><line class="cls-5" x1="-671.14" y1="-1013.34" x2="989.34" y2="647.14"/><line class="cls-5" x1="-586.5" y1="-1097.98" x2="1073.98" y2="562.5"/><line class="cls-5" x1="-501.85" y1="-1182.63" x2="1158.63" y2="477.85"/><line class="cls-5" x1="-417.21" y1="-1267.27" x2="1243.27" y2="393.21"/><line class="cls-5" x1="-332.56" y1="-1351.92" x2="1327.92" y2="308.56"/><line class="cls-5" x1="-247.92" y1="-1436.56" x2="1412.56" y2="223.92"/><line class="cls-5" x1="-163.27" y1="-1521.21" x2="1497.21" y2="139.27"/><line class="cls-5" x1="-78.63" y1="-1605.85" x2="1581.85" y2="54.63"/><line class="cls-5" x1="175.31" y1="731.79" x2="1835.79" y2="-928.69"/><line class="cls-5" x1="90.66" y1="647.14" x2="1751.14" y2="-1013.34"/><line class="cls-5" x1="6.02" y1="562.5" x2="1666.5" y2="-1097.98"/><line class="cls-5" x1="-78.63" y1="477.85" x2="1581.85" y2="-1182.63"/><line class="cls-5" x1="-163.27" y1="393.21" x2="1497.21" y2="-1267.27"/><line class="cls-5" x1="-247.92" y1="308.56" x2="1412.56" y2="-1351.92"/><line class="cls-5" x1="-332.56" y1="223.92" x2="1327.92" y2="-1436.56"/><line class="cls-5" x1="-417.21" y1="139.27" x2="1243.27" y2="-1521.21"/><line class="cls-5" x1="-501.85" y1="54.63" x2="1158.63" y2="-1605.85"/></g><polygon points="733.67 288.23 689.83 228.26 645.99 288.23 645.99 288.23 645.99 470.76 733.68 470.76 733.68 288.23 733.67 288.23"/><polygon points="438.47 288.23 394.63 228.26 350.78 288.23 350.78 288.23 350.78 470.76 438.47 470.76 438.47 288.23 438.47 288.23"/><path class="cls-6" d="M853.5,748.22a48,48,0,0,1-47.18-56.38h0a47.91,47.91,0,1,1,47.18,56.38Zm-34.66-54.13a35.19,35.19,0,1,0,40.86-28.43,34.94,34.94,0,0,0-40.86,28.43Z"/><path class="cls-7" d="M888.61,414.52A3.58,3.58,0,0,0,885,418.1v38.75l-6,3.23V425.15a3.58,3.58,0,0,0-7.15,0v38.76l-6.05,3.23V432.21a3.58,3.58,0,1,0-7.16,0V471l-73.48,39.3a146.81,146.81,0,0,0-242.92-39.41,146.8,146.8,0,0,0-243.06,39.76L225,471V432.21a3.58,3.58,0,1,0-7.16,0v34.93l-6-3.23V425.15a3.58,3.58,0,0,0-7.15,0v34.93l-6.05-3.23V418.1a3.58,3.58,0,1,0-7.15,0V604.21h0v.16a90.7,90.7,0,0,0,90.7,90.7q2.34,0,4.65-.12v84.49h42.4v24.82A106.53,106.53,0,0,0,540.41,824H544a106.53,106.53,0,0,0,211.21-19.76V779.44h42.41V695c1.27.06,2.54.09,3.83.09a90.69,90.69,0,0,0,90.69-90.7v-.16h0V418.1A3.57,3.57,0,0,0,888.61,414.52Z"/><path d="M221.74,503l90.61,48.45h0a62.4,62.4,0,1,1-90.61,55.66V607h0Z"/><path d="M861.89,503l-90.61,48.45h0a62.4,62.4,0,1,0,90.61,55.66V607h0Z"/><circle cx="542.23" cy="473.54" r="32.91"/><line class="cls-8" x1="542.23" y1="473.54" x2="542.23" y2="387.03"/><path class="cls-6" d="M542.23,500.41a26.88,26.88,0,1,1,26.87-26.87A26.9,26.9,0,0,1,542.23,500.41Zm0-41a14.16,14.16,0,1,0,14.16,14.16A14.17,14.17,0,0,0,542.23,459.38Z"/><path class="cls-2" d="M610.66,133.34a68.43,68.43,0,1,0-136,10.8L494.2,392.05h95.19l20.34-247.47A68.29,68.29,0,0,0,610.66,133.34Z"/><g class="cls-9"><line class="cls-10" x1="542.23" y1="64.91" x2="542.23" y2="392.05"/><line class="cls-10" x1="630.18" y1="13.91" x2="542.23" y2="101.87"/><line class="cls-10" x1="630.18" y1="48.74" x2="542.23" y2="136.69"/><line class="cls-10" x1="630.18" y1="83.57" x2="542.23" y2="171.52"/><line class="cls-10" x1="630.18" y1="118.39" x2="542.23" y2="206.34"/><line class="cls-10" x1="630.18" y1="153.22" x2="542.23" y2="241.17"/><line class="cls-10" x1="630.18" y1="188.04" x2="542.23" y2="275.99"/><line class="cls-10" x1="630.18" y1="222.87" x2="542.23" y2="310.82"/><line class="cls-10" x1="630.18" y1="257.69" x2="542.23" y2="345.64"/><line class="cls-10" x1="630.18" y1="292.52" x2="542.23" y2="380.47"/><line class="cls-10" x1="454.62" y1="13.91" x2="542.57" y2="101.87"/><line class="cls-10" x1="454.62" y1="48.74" x2="542.57" y2="136.69"/><line class="cls-10" x1="454.62" y1="83.57" x2="542.57" y2="171.52"/><line class="cls-10" x1="454.62" y1="118.39" x2="542.57" y2="206.34"/><line class="cls-10" x1="454.62" y1="153.22" x2="542.57" y2="241.17"/><line class="cls-10" x1="454.62" y1="188.04" x2="542.57" y2="275.99"/><line class="cls-10" x1="454.62" y1="222.87" x2="542.57" y2="310.82"/><line class="cls-10" x1="454.62" y1="257.69" x2="542.57" y2="345.64"/><line class="cls-10" x1="454.62" y1="292.52" x2="542.57" y2="380.47"/></g><line class="cls-11" x1="602.61" y1="392.11" x2="481.85" y2="392.11"/><line class="cls-12" x1="886.58" y1="808.39" x2="584.05" y2="808.39"/><line class="cls-12" x1="886.58" y1="831.54" x2="584.05" y2="831.54"/><line class="cls-12" x1="886.58" y1="854.69" x2="584.05" y2="854.69"/><line class="cls-12" x1="499.65" y1="808.39" x2="197.12" y2="808.39"/><line class="cls-12" x1="499.65" y1="831.54" x2="197.12" y2="831.54"/><line class="cls-12" x1="499.65" y1="854.69" x2="197.12" y2="854.69"/><path class="cls-6" d="M812,709.83a6.36,6.36,0,0,1-6.33-5.87,47.55,47.55,0,0,1,6.44-27.89,6.36,6.36,0,1,1,11,6.44A35,35,0,0,0,818.39,703a6.36,6.36,0,0,1-5.86,6.82A4,4,0,0,1,812,709.83Z"/><polygon points="541.93 771.1 580.15 746.23 580.15 638.05 503.49 638.05 503.49 746.53 541.93 771.1"/><path d="M542,781l-38.46-24.58a25.46,25.46,0,0,0,38.31,25,25.46,25.46,0,0,0,38.28-25.27Z"/><path class="cls-13" d="M435.73,914.36A106.53,106.53,0,0,0,542.25,807.83l0-.62V781"/><path class="cls-13" d="M648.73,914.36A106.53,106.53,0,0,1,542.21,807.83l0-.62V781"/><line class="cls-14" x1="721.72" y1="527.39" x2="752.49" y2="496.63"/><line class="cls-14" x1="752.49" y1="527.39" x2="721.72" y2="496.63"/><line class="cls-14" x1="715.35" y1="512.01" x2="758.86" y2="512.01"/><line class="cls-14" x1="737.1" y1="533.76" x2="737.1" y2="490.26"/><line class="cls-14" x1="617.8" y1="493.21" x2="648.57" y2="462.44"/><line class="cls-14" x1="648.57" y1="493.21" x2="617.8" y2="462.44"/><line class="cls-14" x1="611.43" y1="477.83" x2="654.94" y2="477.83"/><line class="cls-14" x1="633.19" y1="499.58" x2="633.19" y2="456.07"/><line class="cls-14" x1="526.4" y1="597.09" x2="557.16" y2="566.32"/><line class="cls-14" x1="557.16" y1="597.09" x2="526.4" y2="566.32"/><line class="cls-14" x1="520.03" y1="581.71" x2="563.53" y2="581.71"/><line class="cls-14" x1="541.78" y1="603.46" x2="541.78" y2="559.95"/><line class="cls-14" x1="379.24" y1="489.12" x2="410.01" y2="458.36"/><line class="cls-14" x1="410.01" y1="489.12" x2="379.24" y2="458.36"/><line class="cls-14" x1="372.87" y1="473.74" x2="416.38" y2="473.74"/><line class="cls-14" x1="394.63" y1="495.49" x2="394.63" y2="451.98"/><line class="cls-14" x1="306.17" y1="703.51" x2="336.93" y2="672.74"/><line class="cls-14" x1="336.93" y1="703.51" x2="306.17" y2="672.74"/><line class="cls-14" x1="299.8" y1="688.12" x2="343.3" y2="688.12"/><line class="cls-14" x1="321.55" y1="709.88" x2="321.55" y2="666.37"/><line class="cls-14" x1="402.73" y1="771.63" x2="433.5" y2="740.87"/><line class="cls-14" x1="433.5" y1="771.63" x2="402.73" y2="740.87"/><line class="cls-14" x1="396.36" y1="756.25" x2="439.87" y2="756.25"/><line class="cls-14" x1="418.11" y1="778.01" x2="418.11" y2="734.5"/><line class="cls-14" x1="728.09" y1="741.73" x2="758.86" y2="710.97"/><line class="cls-14" x1="758.86" y1="741.73" x2="728.09" y2="710.97"/><line class="cls-14" x1="721.72" y1="726.35" x2="765.23" y2="726.35"/><line class="cls-14" x1="743.48" y1="748.1" x2="743.48" y2="704.59"/><path class="cls-15" d="M716.15,584.11H691.24l0,0L705,570.33H680.05v0l0,0,13.72-13.72H668.88l-.08-.1,13.75-13.76H657.64v0l0-.06L671.34,529H646.43L597,589.82h0a66.3,66.3,0,1,0,105.1,8.3Z"/><circle class="cls-16" cx="646.43" cy="634.02" r="52.31"/><circle class="cls-2" cx="646.43" cy="634.02" r="43.13"/><circle class="cls-17" cx="646.43" cy="634.02" r="35.78"/><circle cx="646.43" cy="634.02" r="16.44"/><path class="cls-15" d="M486.59,589.82h.05L437.2,529H412.29L426,542.72l0,.06v0H401.08l13.76,13.76-.08.1H389.88l13.73,13.72,0,0v0H378.67l13.75,13.75,0,0H367.48l14,14a66.28,66.28,0,1,0,105.1-8.3Z"/><circle class="cls-16" cx="437.2" cy="634.02" r="52.31"/><circle class="cls-2" cx="437.2" cy="634.02" r="43.13"/><circle class="cls-15" cx="437.2" cy="634.02" r="35.78"/><circle cx="437.2" cy="634.02" r="16.44"/></g></svg>