<svg xmlns="http://www.w3.org/2000/svg" viewBox="0 0 1080 1080"><defs><style>.cls-1{fill:#fff;}</style></defs><g id="Background"><rect class="cls-1" width="1080" height="1080"/></g><g id="Graphics"><path d="M829.22,684.61c0-159.73-129.49-289.22-289.22-289.22S250.78,524.88,250.78,684.61Z"/><polygon class="cls-1" points="540.01 496.54 510.18 466.72 511.98 464.92 540.01 492.94 568.02 464.92 569.82 466.72 540.01 496.54"/><rect class="cls-1" x="538.72" y="437.57" width="2.55" height="57.17"/><path class="cls-1" d="M489.41,642.48h-3V620.55h15.38v2.57H489.41v7.14h11.11v2.57H489.41Z"/><path class="cls-1" d="M508,624.28h-2.78v-3.73H508Zm0,18.2h-2.78V626.82H508Z"/><path class="cls-1" d="M526.06,632.32v10.16h-2.79v-9.65a4.17,4.17,0,0,0-.95-3,3.59,3.59,0,0,0-2.75-1,3.85,3.85,0,0,0-3.11,1.27,5.61,5.61,0,0,0-1.07,3.72v8.64H512.6V626.82h2.72v2a5.5,5.5,0,0,1,4.88-2.35,5.74,5.74,0,0,1,4.3,1.58A5.85,5.85,0,0,1,526.06,632.32Z"/><path class="cls-1" d="M543.56,640.15h.75v2.33H542.8a3.51,3.51,0,0,1-2.07-.59,2.2,2.2,0,0,1-.93-1.63,5.48,5.48,0,0,1-4.95,2.6,5.9,5.9,0,0,1-4-1.28,4.11,4.11,0,0,1-1.49-3.29,4.37,4.37,0,0,1,1.22-3.21,6.13,6.13,0,0,1,3.5-1.62l4.57-.78a1.07,1.07,0,0,0,1-1.14,2.65,2.65,0,0,0-.92-2.07,3.68,3.68,0,0,0-2.5-.8,4.11,4.11,0,0,0-2.53.71,3.7,3.7,0,0,0-1.28,2.19l-2.65-.3a5.35,5.35,0,0,1,2.14-3.5,7.1,7.1,0,0,1,4.42-1.33,6.26,6.26,0,0,1,4.43,1.5,5.18,5.18,0,0,1,1.61,4v7a1.3,1.3,0,0,0,.26.92A1.27,1.27,0,0,0,543.56,640.15Zm-11.4-2.06A2.31,2.31,0,0,0,533,640a3.33,3.33,0,0,0,2.22.68,4.19,4.19,0,0,0,3.26-1.43,5.34,5.34,0,0,0,1.28-3.68v-.9l-5,.87a3.22,3.22,0,0,0-1.89.87A2.35,2.35,0,0,0,532.16,638.09Z"/><path class="cls-1" d="M560.52,632.32v10.16h-2.78v-9.65a4.17,4.17,0,0,0-1-3,3.58,3.58,0,0,0-2.74-1,3.86,3.86,0,0,0-3.12,1.27,5.61,5.61,0,0,0-1.07,3.72v8.64h-2.79V626.82h2.73v2a5.49,5.49,0,0,1,4.87-2.35A5.74,5.74,0,0,1,559,628,5.85,5.85,0,0,1,560.52,632.32Z"/><path class="cls-1" d="M571.34,640.47a4,4,0,0,0,2.83-1,4.36,4.36,0,0,0,1.29-2.78l2.72.32a6.36,6.36,0,0,1-2.16,4.25,7.74,7.74,0,0,1-10.09-.62,10,10,0,0,1,0-12,6.88,6.88,0,0,1,5.38-2.26,7.16,7.16,0,0,1,4.74,1.5,6.44,6.44,0,0,1,2.19,4.26l-2.84.32c-.38-2.46-1.75-3.7-4.12-3.7a3.93,3.93,0,0,0-3.3,1.55,7,7,0,0,0-1.18,4.34A6.75,6.75,0,0,0,568,639,4,4,0,0,0,571.34,640.47Z"/><path class="cls-1" d="M588.22,640.6a3.69,3.69,0,0,0,4-3.17l2.57.5a5.73,5.73,0,0,1-2.21,3.61,7,7,0,0,1-4.34,1.32,7.27,7.27,0,0,1-5.62-2.13,8.66,8.66,0,0,1-2-6.08,8.49,8.49,0,0,1,2-5.95,7,7,0,0,1,5.49-2.26,6.47,6.47,0,0,1,5.05,2A7.87,7.87,0,0,1,595,634v1.34H583.45Q583.69,640.6,588.22,640.6Zm-.13-11.93a4.29,4.29,0,0,0-3.15,1.16,5.6,5.6,0,0,0-1.43,3.41h8.66C592,630.19,590.65,628.67,588.09,628.67Z"/><rect class="cls-1" x="497.3" y="570.71" width="4.55" height="25.05"/><path class="cls-1" d="M615.73,591.21v-1.14a8,8,0,0,0-8-8h-5.7v4.56h5.7a3.41,3.41,0,0,1,3.41,3.41v1.14H593a2.28,2.28,0,0,1-2.27-2.28v-4.55h-4.56v4.55a2.28,2.28,0,1,1-4.55,0v-2.27H577v2.27a2.28,2.28,0,0,1-2.28,2.28h-4.55v-4.55h-4.56v4.55H542.85v-20.5h-4.56v25.06h36.44a6.8,6.8,0,0,0,4.56-1.76,6.77,6.77,0,0,0,9.11,0,6.77,6.77,0,0,0,4.55,1.76h27.33v-4.56Z"/><rect class="cls-1" x="524.63" y="600.32" width="4.55" height="4.55"/><path class="cls-1" d="M529.18,591.21H517.79v-2.28A6.84,6.84,0,0,0,511,582.1h-4.55v4.56H511a2.28,2.28,0,0,1,2.28,2.27v2.28h-6.83v4.56h27.33V584.38h-4.56Z"/><path class="cls-1" d="M468.83,588.93v6.84h6.83v4.55h-6.83a4.56,4.56,0,0,1-4.56-4.55v-4.56h-4.55v4.56a9.12,9.12,0,0,0,9.11,9.11h11.38V591.21h-6.83v-2.28a2.28,2.28,0,0,1,2.28-2.27h4.55V582.1h-4.55A6.84,6.84,0,0,0,468.83,588.93Z"/><path class="cls-1" d="M488.19,595.77a4.56,4.56,0,0,1-4.56,4.55v4.56a9.12,9.12,0,0,0,9.11-9.11v-9.11h-4.55Z"/></g></svg>