<svg xmlns="http://www.w3.org/2000/svg" viewBox="0 0 1080 1080"><defs><style>.cls-1{fill:#fff;}</style></defs><g id="Background"><rect width="1080" height="1080"/></g><g id="Graphics"><path class="cls-1" d="M753.26,787.39A277.74,277.74,0,0,0,617.78,698V645c24.53-16.62,45.3-40.83,60.44-70.59,17-33.41,26-72.2,26-112.18,0-3.38-.07-6.75-.19-10.1a237.12,237.12,0,0,0,17.47-90.34c0-55.75-18.54-108.29-52.2-147.93-30.28-35.67-69.54-57.19-112-61.8V99.26H522.72v52.79c-42.46,4.61-81.72,26.14-112,61.8-33.66,39.64-52.2,92.18-52.2,147.93a238.12,238.12,0,0,0,16,86.68l1.67-.65c-.25,4.77-.39,9.58-.39,14.41,0,40,9,78.77,26,112.18,15.14,29.76,35.91,54,60.44,70.59v53A276.66,276.66,0,0,0,263.45,963.46v17.28h553.1V963.46A277,277,0,0,0,753.26,787.39ZM393.08,361.78c0-97.1,65.91-176.1,146.92-176.1s146.92,79,146.92,176.1c0,2.39-.06,4.76-.14,7.13a213.18,213.18,0,0,0-29.22-51.7C626.47,277,584.72,254.81,540,254.81S453.53,277,422.44,317.21a213.73,213.73,0,0,0-29.23,51.7C393.14,366.54,393.08,364.17,393.08,361.78Zm17.29,100.44c0-95.3,58.15-172.84,129.63-172.84s129.63,77.54,129.63,172.84c0,68.48-30.57,130.63-77.87,158.34l-8.55,5V697L540,740.25,496.79,697V625.56l-8.55-5C440.94,592.85,410.37,530.7,410.37,462.22Zm-57,347.19A242.84,242.84,0,0,1,479.89,729l35.67,35.66L436.3,844V946.18H298.64A242.32,242.32,0,0,1,353.39,809.41ZM470.86,946.18V858.27L600.11,729A242.06,242.06,0,0,1,781.36,946.18Z"/></g></svg>