<svg xmlns="http://www.w3.org/2000/svg" viewBox="0 0 1080 1080"><defs><style>.cls-1{fill:#a9afb0;}.cls-2{fill:#fff;}</style></defs><g id="Background"><rect class="cls-1" width="1080" height="1080"/></g><g id="Graphics"><path class="cls-2" d="M707.35,329.29V580.53a125.62,125.62,0,1,1-251.24,0V454.91H204.86V580.53A125.77,125.77,0,0,1,79.24,706.16H0V957.4H79.24a374.16,374.16,0,0,0,251.25-96c69.18,62,157.6,96,251.24,96A376.86,376.86,0,0,0,958.6,580.53V329.29Z"/><rect x="958.1" y="580.53" width="1" height="185.79"/><circle cx="958.6" cy="766.32" r="5.26"/><rect x="581.73" y="956.9" width="185.79" height="1"/><circle cx="767.52" cy="957.4" r="5.26"/><rect x="79.24" y="956.9" width="185.79" height="1"/><circle cx="265.03" cy="957.4" r="5.26"/><rect x="395.95" y="956.9" width="185.79" height="1"/><circle cx="395.95" cy="957.4" r="5.26"/><rect x="706.85" y="580.53" width="1" height="95.07"/><circle cx="707.35" cy="675.6" r="5.26"/><rect x="455.61" y="580.53" width="1" height="95.07"/><circle cx="456.11" cy="675.6" r="5.26"/><rect x="486.66" y="705.66" width="95.07" height="1"/><circle cx="486.66" cy="706.16" r="5.26"/><rect x="581.73" y="705.66" width="95.07" height="1"/><circle cx="676.8" cy="706.16" r="5.26"/><rect x="73.98" y="705.66" width="95.07" height="1"/><circle cx="169.05" cy="706.16" r="5.26"/><rect x="363.6" y="847.51" width="1" height="95.07" transform="translate(-526.25 519.61) rotate(-45)"/><circle cx="397.71" cy="928.65" r="5.26"/><rect x="251.1" y="891.91" width="95.07" height="1" transform="translate(-543.56 472.55) rotate(-45)"/><circle cx="265.03" cy="926.03" r="5.26"/><rect x="204.36" y="580.53" width="1" height="95.07"/><circle cx="204.86" cy="675.6" r="5.26"/><rect x="953.35" y="575.28" width="10.51" height="10.51"/><rect x="702.1" y="575.28" width="10.51" height="10.51"/><rect x="953.35" y="324.03" width="10.51" height="10.51"/><rect x="702.1" y="324.03" width="10.51" height="10.51"/><rect x="450.85" y="575.28" width="10.51" height="10.51"/><rect x="199.61" y="575.28" width="10.51" height="10.51"/><rect x="450.85" y="449.66" width="10.51" height="10.51"/><rect x="199.61" y="449.66" width="10.51" height="10.51"/><rect x="68.73" y="700.9" width="10.51" height="10.51"/><rect x="68.73" y="952.15" width="10.51" height="10.51"/><rect x="576.48" y="952.15" width="10.51" height="10.51"/><rect x="325.23" y="856.17" width="10.51" height="10.51"/><rect x="576.48" y="700.9" width="10.51" height="10.51"/><path d="M580.82,832.17c-3.13,0-6.3-.08-9.43-.2l0-.79c3.11.13,6.27.2,9.4.21Zm9.44-.14,0-.78c3.12-.11,6.28-.27,9.39-.49l.06.78C596.56,831.76,593.39,831.93,590.26,832ZM562,831.41c-3.13-.24-6.29-.55-9.39-.91l.09-.78c3.09.36,6.24.67,9.36.91Zm47.09-.7-.08-.79c3.1-.33,6.24-.73,9.33-1.18l.11.78C615.33,830,612.18,830.37,609.07,830.71Zm-65.83-1.46c-3.09-.48-6.22-1-9.29-1.61l.14-.77c3.07.59,6.18,1.13,9.27,1.6Zm84.5-1.27-.15-.77c3.07-.57,6.17-1.2,9.22-1.89l.17.77C633.92,826.77,630.81,827.41,627.74,828Zm-103-2.29c-3.05-.71-6.13-1.48-9.15-2.3l.21-.76c3,.82,6.08,1.59,9.12,2.29Zm121.42-1.84-.2-.75c3-.8,6.06-1.67,9-2.58l.22.75C652.22,822.19,649.17,823.06,646.14,823.85Zm-139.62-3.11c-3-.94-6-1.94-9-3l.26-.74c2.95,1,6,2.06,8.95,3Zm157.66-2.39-.25-.74c2.94-1,5.91-2.11,8.82-3.24l.29.73C670.12,816.23,667.14,817.33,664.18,818.35Zm-175.49-3.94c-2.92-1.16-5.85-2.39-8.72-3.66l.32-.72c2.86,1.27,5.78,2.5,8.69,3.65Zm193.05-2.89-.32-.72c2.86-1.24,5.73-2.55,8.54-3.89l.34.7C687.48,809,684.6,810.28,681.74,811.52ZM471.4,806.76c-2.82-1.38-5.65-2.83-8.41-4.31l.37-.69c2.76,1.48,5.58,2.92,8.39,4.3Zm227.31-3.37-.37-.7c2.76-1.45,5.53-3,8.23-4.52l.39.68C704.25,800.41,701.48,801.93,698.71,803.39Zm-244-5.56c-2.71-1.58-5.42-3.24-8.06-4.92l.42-.67c2.64,1.68,5.34,3.34,8,4.91ZM715,794l-.41-.66c2.64-1.66,5.29-3.38,7.86-5.13l.45.65C720.34,790.61,717.69,792.34,715,794Zm-276.21-6.32c-2.57-1.78-5.15-3.63-7.66-5.51l.47-.63c2.5,1.87,5.07,3.72,7.64,5.5Zm291.8-4.26-.46-.63c2.51-1.85,5-3.77,7.46-5.71l.49.62C735.66,779.64,733.14,781.57,730.62,783.42Zm-306.91-7c-2.44-2-4.87-4-7.23-6.07l.51-.59c2.36,2,4.78,4.09,7.21,6Zm321.67-4.68-.51-.6c2.37-2,4.73-4.13,7-6.25l.54.58C750.13,767.55,747.76,769.66,745.38,771.7ZM409.48,764c-2.29-2.15-4.56-4.36-6.75-6.58l.56-.56c2.18,2.22,4.45,4.43,6.73,6.57Zm349.76-5.08-.56-.55c2.21-2.21,4.41-4.48,6.54-6.76l.58.53C763.66,754.41,761.45,756.69,759.24,758.9Zm-363-8.34c-2.11-2.31-4.22-4.68-6.24-7.06l.6-.51c2,2.37,4.11,4.74,6.22,7Zm375.88-5.45-.59-.52c2-2.36,4.07-4.79,6-7.23l.61.49C776.18,740.3,774.15,742.74,772.1,745.11ZM384,736.2c-1.94-2.45-3.85-5-5.7-7.51l.64-.46c1.83,2.52,3.74,5,5.67,7.49Zm399.9-5.82-.63-.47c1.86-2.5,3.7-5.08,5.47-7.66l.65.45C787.62,725.28,785.78,727.87,783.91,730.38Zm-411-9.4c-1.75-2.6-3.47-5.26-5.12-7.91l.67-.41c1.64,2.64,3.36,5.29,5.1,7.88Zm421.69-6.17-.66-.42c1.66-2.64,3.31-5.35,4.88-8l.68.39C797.91,709.45,796.26,712.16,794.59,714.81ZM363,705c-1.55-2.72-3.07-5.5-4.51-8.27l.69-.36c1.44,2.76,3,5.53,4.5,8.24Zm441.11-6.5-.7-.37c1.47-2.76,2.9-5.58,4.27-8.4l.7.34C807,692.88,805.55,695.71,804.08,698.48ZM354.26,688.29c-1.33-2.82-2.64-5.71-3.87-8.58l.72-.31c1.23,2.86,2.53,5.74,3.86,8.55Zm458.05-6.83-.72-.31c1.26-2.86,2.48-5.79,3.62-8.7l.73.28C814.79,675.66,813.57,678.59,812.31,681.46ZM346.84,671c-1.12-2.92-2.21-5.9-3.22-8.87l.74-.25c1,3,2.1,5.93,3.22,8.84Zm472.4-7.13-.74-.26c1-3,2-6,3-9l.75.23C821.28,657.89,820.28,660.91,819.24,663.87ZM340.73,653.15c-.9-3-1.76-6-2.55-9.08l.76-.2c.79,3,1.64,6.07,2.54,9.06Zm484.09-7.33-.76-.2c.81-3,1.57-6.09,2.26-9.13l.77.17C826.39,639.72,825.63,642.8,824.82,645.82ZM336,634.9c-.67-3-1.3-6.17-1.85-9.25l.77-.14c.56,3.07,1.18,6.18,1.85,9.22Zm493-7.47-.77-.15c.58-3.07,1.1-6.19,1.56-9.27l.78.12C830.12,621.22,829.59,624.35,829,627.43ZM332.62,616.34c-.44-3.1-.83-6.25-1.15-9.36l.78-.08c.32,3.1.71,6.24,1.15,9.33Zm499.18-7.57-.78-.08c.35-3.1.64-6.25.87-9.37l.79.06C832.44,602.51,832.15,605.67,831.8,608.77ZM330.66,597.58c-.21-3.12-.36-6.29-.45-9.42l.78,0c.09,3.12.25,6.28.45,9.39ZM833.2,590l-.79,0c.12-3.12.18-6.28.18-9.41h.78C833.37,583.67,833.31,586.84,833.2,590ZM330.88,578.73h-.78c0-3.13.1-6.31.24-9.42l.78,0C331,572.44,330.91,575.6,330.88,578.73Zm501.64-4c-.07-3.13-.2-6.29-.39-9.4l.79-.05c.18,3.12.31,6.29.38,9.43ZM331.71,560l-.78-.07c.25-3.12.57-6.27.94-9.38l.78.09C332.28,553.69,332,556.84,331.71,560Zm499.69-4c-.31-3.11-.67-6.25-1.09-9.34l.78-.11c.42,3.1.78,6.26,1.09,9.37ZM333.93,541.27l-.77-.12c.48-3.1,1-6.22,1.64-9.29l.77.15C335,535.07,334.42,538.19,333.93,541.27Zm495-4c-.54-3.07-1.14-6.18-1.79-9.23l.77-.16c.65,3.06,1.25,6.18,1.79,9.26ZM337.55,522.82l-.77-.18c.72-3,1.51-6.13,2.34-9.14l.76.21C339.05,516.71,338.27,519.78,337.55,522.82ZM825,518.92c-.76-3-1.6-6.08-2.47-9.07l.75-.22c.88,3,1.72,6.06,2.48,9.1ZM342.55,504.69l-.75-.23c.95-3,2-6,3-9l.73.27C344.51,498.7,343.49,501.71,342.55,504.69Zm477.12-3.81c-1-3-2-5.94-3.15-8.86l.74-.28c1.1,2.93,2.16,5.92,3.16,8.89ZM348.92,487l-.73-.3c1.17-2.91,2.41-5.84,3.69-8.7l.72.32C351.32,481.13,350.09,484,348.92,487Zm464.13-3.64c-1.21-2.87-2.49-5.76-3.8-8.58l.71-.33c1.32,2.83,2.6,5.73,3.81,8.6ZM356.61,469.74l-.71-.34c1.39-2.81,2.84-5.63,4.34-8.4l.69.37C359.44,464.13,358,467,356.61,469.74Zm448.52-3.43c-1.42-2.77-2.91-5.56-4.44-8.28l.69-.38c1.53,2.73,3,5.52,4.45,8.3ZM365.57,453.18l-.68-.4c1.59-2.7,3.26-5.4,5-8l.66.43C368.81,447.79,367.15,450.49,365.57,453.18ZM796,449.93c-1.63-2.66-3.32-5.32-5.05-7.92l.66-.43c1.73,2.6,3.43,5.28,5.06,7.94Zm-420.21-12.6-.64-.44c1.78-2.57,3.65-5.14,5.53-7.65l.63.47C379.38,432.21,377.52,434.78,375.74,437.33Zm409.82-3.05c-1.81-2.53-3.71-5.06-5.62-7.52l.62-.48c1.92,2.47,3.82,5,5.64,7.55Zm-398.5-12-.6-.5c2-2.43,4-4.85,6.09-7.21l.59.52C391.08,417.47,389,419.88,387.06,422.31Zm387-2.86c-2-2.39-4.09-4.78-6.18-7.09l.59-.53c2.09,2.32,4.18,4.71,6.19,7.11ZM399.47,408.17l-.57-.54c2.15-2.27,4.38-4.54,6.61-6.73l.55.56C403.83,403.65,401.62,405.9,399.47,408.17Zm362-2.67c-2.18-2.23-4.43-4.46-6.69-6.61l.55-.57c2.26,2.16,4.52,4.39,6.7,6.63ZM412.89,395l-.52-.58c2.31-2.11,4.69-4.2,7.09-6.22l.5.6C417.58,390.82,415.2,392.9,412.89,395Zm334.92-2.47c-2.34-2.07-4.75-4.12-7.16-6.1l.5-.61c2.42,2,4.84,4.05,7.18,6.12Zm-320.56-9.66-.48-.61c2.46-1.93,5-3.84,7.53-5.67l.46.63C432.23,379.05,429.71,381,427.25,382.87Zm306-2.27c-2.48-1.88-5-3.75-7.6-5.55l.45-.64c2.57,1.8,5.13,3.67,7.63,5.57Zm-290.79-8.74-.44-.66c2.6-1.73,5.27-3.45,7.93-5.09l.41.67C447.72,368.42,445.06,370.12,442.47,371.86Zm275.39-2.07c-2.62-1.7-5.32-3.37-8-5l.4-.67c2.69,1.6,5.39,3.28,8,5ZM458.46,362l-.39-.68c2.72-1.54,5.51-3.05,8.28-4.48l.36.69C464,359,461.17,360.48,458.46,362Zm243.22-1.85c-2.75-1.5-5.56-3-8.36-4.35l.35-.71c2.81,1.4,5.63,2.87,8.38,4.37Zm-226.55-6.77-.34-.71c2.83-1.32,5.72-2.62,8.59-3.84l.31.72C480.82,350.78,477.94,352.07,475.13,353.39Zm209.68-1.62c-2.85-1.29-5.77-2.54-8.66-3.71l.29-.73c2.91,1.18,5.83,2.43,8.69,3.72Zm-192.43-5.71-.28-.73c2.93-1.12,5.92-2.19,8.88-3.2l.25.75C498.28,343.88,495.3,345,492.38,346.06Zm175-1.39c-2.94-1.07-6-2.09-8.93-3.05l.24-.75c3,1,6,2,9,3.06ZM510.19,340l-.22-.75c3-.89,6.06-1.74,9.09-2.52l.2.76C516.23,338.3,513.18,339.14,510.19,340Zm139.23-1.11c-3-.84-6.07-1.64-9.11-2.36l.19-.77c3,.73,6.12,1.53,9.13,2.37Zm-121-3.56-.17-.77c3.06-.66,6.18-1.27,9.26-1.82l.13.77C534.56,334.09,531.46,334.7,528.41,335.36Zm102.72-.82c-3.06-.61-6.17-1.17-9.25-1.66l.12-.78c3.09.5,6.21,1.06,9.28,1.67Zm-84.21-2.46-.11-.78c3.1-.43,6.25-.81,9.37-1.12l.08.78C553.15,331.27,550,331.65,546.92,332.08Zm65.64-.52c-3.09-.38-6.24-.71-9.35-1l.07-.78c3.12.26,6.28.59,9.38,1Zm-46.93-1.37,0-.78c3.12-.2,6.29-.34,9.42-.43l0,.79C571.9,329.85,568.74,330,565.63,330.19Zm28.2-.22c-3.11-.15-6.28-.24-9.4-.27v-.79c3.13,0,6.3.12,9.43.27Z"/></g></svg>