<svg xmlns="http://www.w3.org/2000/svg" viewBox="0 0 1080 1080"><defs><style>.cls-1{fill:#fff;}</style></defs><g id="Background"><rect class="cls-1" width="1080" height="1080"/></g><g id="Graphics"><rect x="296.62" y="371.12" width="486.77" height="111.26"/><polygon class="cls-1" points="712.88 398.07 711.15 399.8 736.88 425.52 684.85 425.52 684.85 427.98 736.86 427.98 711.15 453.7 712.88 455.44 741.57 426.74 712.88 398.07"/><rect x="296.62" y="597.62" width="486.77" height="111.26"/><polygon class="cls-1" points="712.88 681.93 711.15 680.19 738.1 653.23 711.15 626.3 712.88 624.56 741.57 653.23 712.88 681.93"/><rect class="cls-1" x="684.85" y="652.02" width="54.98" height="2.45"/><path class="cls-1" d="M434.82,465.1h-2.56l-4.37-15.41-4.42,15.41h-2.54L417.1,446h2.24l3.05,15.59,4.42-15.32H429l4.42,15.29L436.44,446h2.19Z"/><path class="cls-1" d="M421.44,672.73H424l4.37,15.41,4.42-15.41h2.54l3.83,19.13h-2.24l-3.05-15.6-4.42,15.33H427.3l-4.43-15.3-3,15.57h-2.19Z"/><path class="cls-1" d="M372,664.79V659c4.52-3,7.61-8.59,8.3-15a23.08,23.08,0,0,0,1.83-9c0-10.61-7.09-19.33-16-20.06v-5.59h-2.45V615c-9,.73-16,9.45-16,20.06a22.9,22.9,0,0,0,1.83,9c.68,6.36,3.77,12,8.3,15v5.78a26.63,26.63,0,0,0-19.42,25.57v1.23h53.1v-1.23A26.63,26.63,0,0,0,372,664.79Zm-7.14-47.42c8.17,0,14.81,7.93,14.81,17.67v.22c-2-7.92-7.9-13.66-14.81-13.66s-12.77,5.74-14.81,13.66V635C350.07,625.3,356.71,617.37,364.88,617.37Zm-13.12,24c0-9.56,5.88-17.35,13.12-17.35S378,631.84,378,641.4c0,6.85-3.08,13.08-7.84,15.87l-.61.35v6.91l-4.68,4.68-4.68-4.68v-6.91l-.61-.35C354.83,654.48,351.76,648.25,351.76,641.4ZM359.15,667l4,4-7.94,7.93v10.26h-14.4A24.18,24.18,0,0,1,359.15,667Zm-1.48,22.19V679.9L370.61,667A24.18,24.18,0,0,1,389,689.14Z"/><path class="cls-1" d="M381.35,441.91v-29h0a2.35,2.35,0,0,1,0-.26c0-.3,0-.6-.06-.89a2.46,2.46,0,0,0,0-.28c0-.24,0-.47-.07-.7s0-.21,0-.31l-.09-.65-.06-.31c0-.22-.07-.43-.11-.64l-.06-.3-.15-.65-.06-.26-.18-.68-.06-.22-.24-.75a.93.93,0,0,0,0-.13,24.37,24.37,0,0,0-1-2.58v0l-.39-.76-.06-.12-.36-.64a1.4,1.4,0,0,1-.1-.16l-.36-.59-.11-.16c-.12-.19-.25-.38-.38-.56l-.11-.15L377,400V388.41H353.87V400l-.14.19a1.3,1.3,0,0,0-.1.15c-.14.18-.26.37-.39.56s-.07.11-.1.16l-.37.59-.09.16-.36.64-.07.12c-.13.25-.26.51-.38.77l0,0a24.37,24.37,0,0,0-1,2.58.5.5,0,0,1,0,.13c-.08.25-.16.5-.23.75l-.06.22c-.07.22-.13.45-.18.68a2,2,0,0,0-.07.26c-.05.22-.1.43-.14.65l-.06.3c0,.21-.08.42-.12.64s0,.21-.05.31-.07.43-.09.65,0,.21,0,.31-.05.46-.07.69l0,.29c0,.29,0,.59-.05.89a2.17,2.17,0,0,0,0,.26h0v29a27.22,27.22,0,0,0-11.22,22v1.23h54.25v-1.23A27.2,27.2,0,0,0,381.35,441.91Zm-2.45-1.59a27,27,0,0,0-6.18-2.58v-5.95a18.1,18.1,0,0,0,6.18-7.22Zm-4-39.09c.23.31.46.63.67,1l.12.18c.21.32.4.65.59,1l.12.22c.18.35.36.7.53,1.07l.06.14c.15.34.3.69.43,1.05a1.67,1.67,0,0,1,.08.2c.14.38.27.76.39,1.15,0,.09.05.18.08.27.11.4.22.8.31,1.2,0,.08,0,.15.05.23.09.42.17.84.24,1.27a.13.13,0,0,1,0,.06c.07.45.13.9.17,1.36,0,0,0,.09,0,.13h-.4a11.74,11.74,0,0,1-11.66-10.49h8.2Zm-10.79-2.46h-5.84a10.72,10.72,0,0,1,14.29,0h-8.45Zm-7.83-1.51v-6.4h18.26v6.4h0a13.17,13.17,0,0,0-18.26,0Zm-4.21,14.31c.05-.46.1-.91.17-1.36,0,0,0,0,0-.06.07-.43.15-.85.24-1.27,0-.07,0-.15.05-.23.1-.4.2-.8.31-1.19l.09-.28c.12-.39.24-.77.38-1.15a1.8,1.8,0,0,0,.08-.21c.14-.35.28-.69.43-1l.07-.16c.16-.36.34-.7.52-1l.13-.24c.18-.34.38-.66.57-1l.14-.21q.31-.48.66-.93v0h8.19a11.73,11.73,0,0,1-11.66,10.49h-.4A.57.57,0,0,0,352.11,411.57Zm.39,2.6a14.2,14.2,0,0,0,12.95-8.42,14.2,14.2,0,0,0,12.95,8.42h.49c-.1,6.87-3.22,13.08-8,15.89l-.6.36v7.06l-4.82,4.81-4.81-4.81v-7.06l-.61-.36c-4.79-2.81-7.91-9-8-15.89Zm-.5,10.4a18.18,18.18,0,0,0,6.18,7.22v5.95a27,27,0,0,0-6.18,2.58Zm7.6,15.33,4.12,4.12-8.13,8.12v10.5H340.81A24.75,24.75,0,0,1,359.6,439.9Zm-1.55,22.74v-9.48L371.3,439.9a24.74,24.74,0,0,1,18.79,22.74Z"/></g></svg>