<svg xmlns="http://www.w3.org/2000/svg" viewBox="0 0 1080 1080"><defs><style>.cls-1{fill:#fff;}.cls-2{fill:#b8babc;}</style></defs><g id="Background"><rect class="cls-1" width="1080" height="1080"/></g><g id="Content"><polygon class="cls-2" points="760.94 667.56 760.94 412.44 540 284.88 319.06 412.44 319.06 667.56 540 795.12 760.94 667.56"/><rect x="366.18" y="522" width="347.64" height="36"/><polygon points="447.76 611.28 429.12 580.63 423.76 580.63 423.76 618.62 428.37 618.62 428.37 588.08 447.01 618.62 452.37 618.62 452.37 580.63 447.76 580.63 447.76 611.28"/><path d="M472.67,590.81a11.49,11.49,0,0,0-8.2,3.16c-3,2.89-3.86,6.81-3.86,11.09s.91,8.2,3.86,11.09a12.21,12.21,0,0,0,16.39,0c2.95-2.89,3.86-6.8,3.86-11.09s-.91-8.2-3.86-11.09A11.48,11.48,0,0,0,472.67,590.81Zm4.87,22.66a7.12,7.12,0,0,1-9.75,0c-1.93-2-2.52-5.25-2.52-8.41s.59-6.43,2.52-8.41a7.12,7.12,0,0,1,9.75,0c1.93,2,2.52,5.25,2.52,8.41S479.47,611.49,477.54,613.47Z"/><polygon points="505.29 618.62 530.68 618.62 530.68 614.22 510.06 614.22 510.06 601.1 528.16 601.1 528.16 596.6 510.06 596.6 510.06 585.02 530.68 585.02 530.68 580.63 505.29 580.63 505.29 618.62"/><path d="M550.93,590.81c-3,0-6.81,1.66-8.2,4.77l-.37-4.07h-4v27.11H543V606c0-2.09,0-4.93,1-6.92,1.18-2.46,3.27-4.17,5.89-4.17,4.29,0,6,2.41,6,6.48v17.2h4.55V600.78C560.3,594.51,557.09,590.81,550.93,590.81Z"/><path d="M575.46,611.12v-15.7h8v-3.91h-8v-8l-4.55,1.08v6.91h-5.25v3.91h5.25v16.23c0,3.64,1.61,7.34,7.44,7.34a19.79,19.79,0,0,0,5.42-.75v-3.91a33.77,33.77,0,0,1-4.67.48C576.59,614.81,575.46,613.74,575.46,611.12Z"/><path d="M600,590.81a11.61,11.61,0,0,0-10.24,5.68,16.55,16.55,0,0,0-2.09,8.68,15.34,15.34,0,0,0,3.38,10.07,11.57,11.57,0,0,0,9,4.07,12.53,12.53,0,0,0,6.91-2,10,10,0,0,0,4.18-6.7h-4.45a5.7,5.7,0,0,1-1.6,2.95,7.74,7.74,0,0,1-10-.16,10,10,0,0,1-2.63-6.81h19.18l.06-2.73a14,14,0,0,0-3.43-9.54A10.94,10.94,0,0,0,600,590.81Zm-7.45,11.84c.11-4,2.52-8,7.45-8a6.41,6.41,0,0,1,5.35,2.46,9.49,9.49,0,0,1,1.66,5.52Z"/><path d="M623.73,596.28l-.38-4.77h-4v27.11h4.5V606.56c0-2.84.27-6.59,2.47-8.68a7.43,7.43,0,0,1,5.14-2.14A13.4,13.4,0,0,1,634,596v-4.44a14.11,14.11,0,0,0-2.14-.16C628.39,591.35,625.12,593,623.73,596.28Z"/><path d="M648.69,612.88l-8-21.37h-5.15l10.82,27.11-1.71,4.55a3.84,3.84,0,0,1-4.07,2.73,12.61,12.61,0,0,1-3.22-.43v4a15.33,15.33,0,0,0,4.13.53c4.07,0,6-2.3,7.34-5.78l12.21-32.68H656.3Z"/><path d="M616.2,456.61a14.31,14.31,0,0,0-14.29-14.29h-9.53v9.52h9.53a4.77,4.77,0,0,1,4.76,4.77v4.76H592.38v9.52H616.2Z"/><path d="M675.72,470.89V451.84H666.2v19.05a9.54,9.54,0,0,1-9.53,9.53v9.52A19.06,19.06,0,0,0,675.72,470.89Z"/><path d="M699.53,442.32a14.29,14.29,0,1,0,4.77,27.74v.83a9.55,9.55,0,0,1-9.53,9.53H690v9.52h4.76a19.06,19.06,0,0,0,19.05-19.05V456.61A14.31,14.31,0,0,0,699.53,442.32Zm0,19.05a4.77,4.77,0,1,1,4.77-4.76A4.77,4.77,0,0,1,699.53,461.37Z"/><path d="M637.63,470.89a14.22,14.22,0,0,0,4.76-.83v.83a9.55,9.55,0,0,1-9.53,9.53H628.1v9.52h4.76a19.06,19.06,0,0,0,19-19.05V456.61a14.29,14.29,0,1,0-14.28,14.28Zm0-19.05a4.77,4.77,0,1,1-4.77,4.77A4.77,4.77,0,0,1,637.63,451.84Z"/><rect x="442.37" y="432.8" width="9.52" height="9.52"/><path d="M420.94,470.89a14.23,14.23,0,0,0,4.77-.83v.83a9.55,9.55,0,0,1-9.53,9.53h-4.76v9.52h4.76a19.06,19.06,0,0,0,19.05-19.05v-.82a14.34,14.34,0,0,0,4.76.82h14.29a14.21,14.21,0,0,0,9.52-3.66,14.25,14.25,0,0,0,9.53,3.66h33.33a14.21,14.21,0,0,0,9.53-3.66,14.21,14.21,0,0,0,9.52,3.66h33.34a14.33,14.33,0,1,0-13.46-9.52H525.71a4.77,4.77,0,0,1-4.76-4.76,14.29,14.29,0,1,0-27.74,4.76H473.33a4.76,4.76,0,0,1-4.76-4.76v-4.77H459v4.77a4.76,4.76,0,0,1-4.76,4.76H440a4.78,4.78,0,0,1-4.76-4.77h0A14.19,14.19,0,0,0,430,445.52a14.28,14.28,0,0,0-20.09,20.09A14.19,14.19,0,0,0,420.94,470.89Zm138.11-19.05a4.77,4.77,0,1,1-4.76,4.77A4.77,4.77,0,0,1,559.05,451.84Zm-52.39,0a4.77,4.77,0,1,1-4.76,4.77A4.78,4.78,0,0,1,506.66,451.84Zm-90.36,3.69a4.72,4.72,0,0,1,3.57-3.57,5.25,5.25,0,0,1,1.08-.12,4.68,4.68,0,0,1,3,1.07,4.76,4.76,0,0,1,1.77,3.7h0a4.77,4.77,0,1,1-9.41-1.08Z"/><path d="M385.23,499.47h14.28v-9.53H385.23a9.53,9.53,0,1,1,0-19.05h14.28v-9.52H390a4.77,4.77,0,0,1,0-9.53h9.52v-9.52H390a14.31,14.31,0,0,0-14.29,14.29,14.14,14.14,0,0,0,1.59,6.51,19,19,0,0,0,7.94,36.35Z"/></g></svg>