<svg xmlns="http://www.w3.org/2000/svg" viewBox="0 0 1080 1080"><defs><style>.cls-1{fill:#fff;}</style></defs><g id="Background"><rect class="cls-1" width="1080" height="1080"/></g><g id="Graphics"><polygon points="814.01 438.77 382.88 438.77 265.99 641.23 697.13 641.23 814.01 438.77"/><polygon class="cls-1" points="453.99 539.93 424.15 510.1 425.95 508.3 453.99 536.32 481.99 508.3 483.8 510.1 453.99 539.93"/><rect class="cls-1" x="452.7" y="480.95" width="2.55" height="57.17"/><path class="cls-1" d="M510.29,593.36l.32,5.67h-3l-.3-5.7a2.79,2.79,0,0,0-1.09-2.25,5.43,5.43,0,0,0-3.15-.71h-5.44V599h-3V577.11h8.65a8,8,0,0,1,5.35,1.7,5.41,5.41,0,0,1,2,4.35,6.3,6.3,0,0,1-.93,3.39,6.37,6.37,0,0,1-2.59,2.36A4.46,4.46,0,0,1,510.29,593.36Zm-2.69-10a3.4,3.4,0,0,0-1.21-2.74,5,5,0,0,0-3.33-1h-5.41v8.21H503a4.5,4.5,0,0,0,3.3-1.25A4.28,4.28,0,0,0,507.6,583.41Z"/><path class="cls-1" d="M525.05,583.38h2.78V599h-2.72v-1.91a5.27,5.27,0,0,1-4.69,2.3,5.56,5.56,0,0,1-4.19-1.59,5.92,5.92,0,0,1-1.55-4.3V583.38h2.8v9.68a4.25,4.25,0,0,0,.92,2.91,3.33,3.33,0,0,0,2.61,1,3.62,3.62,0,0,0,3-1.28,5.8,5.8,0,0,0,1-3.7Z"/><path class="cls-1" d="M538.32,598.1a6.35,6.35,0,0,1-5-2.05,7.79,7.79,0,0,1-1.82-5.47,7.88,7.88,0,0,1,1.85-5.47,6.17,6.17,0,0,1,4.92-2.11,5.73,5.73,0,0,1,4.85,2.29v-1.91h2.72v14.94a6.78,6.78,0,0,1-1.85,5,7,7,0,0,1-5.14,1.84,8,8,0,0,1-4.93-1.4,5.32,5.32,0,0,1-2.1-3.86l2.78-.28a3.73,3.73,0,0,0,1.35,2.45,4.74,4.74,0,0,0,2.9.78,4,4,0,0,0,3.13-1.2,5.09,5.09,0,0,0,1.07-3.53v-2.44A5.61,5.61,0,0,1,538.32,598.1Zm-2.72-11.37a6.85,6.85,0,0,0,0,7.63,4,4,0,0,0,3.24,1.36,3.88,3.88,0,0,0,3.13-1.43,6.35,6.35,0,0,0,0-7.47,3.8,3.8,0,0,0-3.1-1.47A4,4,0,0,0,535.6,586.73Z"/><path class="cls-1" d="M564.71,599h-2.88l-6.45-21.92h3.08l5,17.57,5-17.57h2.95l5,17.38,4.92-17.38h3L577.9,599H575l-5.13-17.27Z"/><path class="cls-1" d="M585.21,591.21a8.44,8.44,0,0,1,2.07-6,7.15,7.15,0,0,1,5.55-2.26,7.27,7.27,0,0,1,5.56,2.26,9.47,9.47,0,0,1,0,11.89,7.28,7.28,0,0,1-5.56,2.27,7.16,7.16,0,0,1-5.55-2.27A8.41,8.41,0,0,1,585.21,591.21Zm11.15,4.29a7.83,7.83,0,0,0,0-8.58,4.32,4.32,0,0,0-3.53-1.57,4.27,4.27,0,0,0-3.51,1.57,7.93,7.93,0,0,0,0,8.58,4.26,4.26,0,0,0,3.51,1.56A4.34,4.34,0,0,0,596.36,595.5Z"/><path class="cls-1" d="M606.88,599h-2.79V583.38h2.73v2.84a4.84,4.84,0,0,1,4.48-2.84h1.2V586h-1.24a3.69,3.69,0,0,0-3.19,1.72,8,8,0,0,0-1.19,4.64Z"/><path class="cls-1" d="M629.14,583.38,623,589.23l6.64,9.8h-3.32L621,591.08l-2.78,2.6V599h-2.79V577.11h2.79v13.22l7.26-7Z"/><path class="cls-1" d="M637.17,599.42a7.75,7.75,0,0,1-4.84-1.39,5,5,0,0,1-2-3.78l2.78-.41a3.83,3.83,0,0,0,1.18,2.55,4.27,4.27,0,0,0,2.83.83,3.86,3.86,0,0,0,2.46-.68,2.37,2.37,0,0,0,.85-2c0-1.24-.91-2-2.75-2.24l-2.25-.35a6.23,6.23,0,0,1-3.43-1.49,3.86,3.86,0,0,1-1.18-2.93,4,4,0,0,1,1.6-3.27,6.69,6.69,0,0,1,4.28-1.27,6.78,6.78,0,0,1,4.29,1.24,5.42,5.42,0,0,1,2,3.59l-2.57.36a4,4,0,0,0-1.26-2.3,4.76,4.76,0,0,0-4.78-.09,1.86,1.86,0,0,0-.84,1.58,1.81,1.81,0,0,0,.58,1.44,3.51,3.51,0,0,0,1.85.72l2.51.41c3.17.51,4.76,2,4.76,4.48a4.47,4.47,0,0,1-1.64,3.63A6.75,6.75,0,0,1,637.17,599.42Z"/><path class="cls-1" d="M660.3,588.88V599h-2.78v-9.64a4.17,4.17,0,0,0-1-2.95,3.58,3.58,0,0,0-2.74-1,3.83,3.83,0,0,0-3.12,1.27,5.61,5.61,0,0,0-1.07,3.72V599h-2.79V577.11h2.79v8.18a5.45,5.45,0,0,1,4.81-2.29,5.74,5.74,0,0,1,4.3,1.58A5.85,5.85,0,0,1,660.3,588.88Z"/><path class="cls-1" d="M663.74,591.21a8.48,8.48,0,0,1,2.06-6,7.18,7.18,0,0,1,5.55-2.26,7.28,7.28,0,0,1,5.57,2.26,9.5,9.5,0,0,1,0,11.89,7.29,7.29,0,0,1-5.57,2.27,7.18,7.18,0,0,1-5.55-2.27A8.45,8.45,0,0,1,663.74,591.21Zm11.14,4.29a7.78,7.78,0,0,0,0-8.58,4.29,4.29,0,0,0-3.53-1.57,4.25,4.25,0,0,0-3.5,1.57,7.91,7.91,0,0,0,0,8.58,4.26,4.26,0,0,0,3.51,1.56A4.31,4.31,0,0,0,674.88,595.5Z"/><path class="cls-1" d="M690.48,583a6.43,6.43,0,0,1,5.09,2.23,8.6,8.6,0,0,1,1.91,5.85,9.11,9.11,0,0,1-1.91,6,6.31,6.31,0,0,1-5.09,2.3,6,6,0,0,1-5.08-2.54v8h-2.78V583.38h2.72v2.35A5.91,5.91,0,0,1,690.48,583Zm4.13,8.21a6.75,6.75,0,0,0-1.23-4.25,4,4,0,0,0-3.31-1.58,4.16,4.16,0,0,0-3.44,1.6,6.51,6.51,0,0,0-1.29,4.23,6.4,6.4,0,0,0,1.3,4.19,4.2,4.2,0,0,0,3.43,1.6,4,4,0,0,0,3.31-1.57A6.68,6.68,0,0,0,694.61,591.21Z"/><path class="cls-1" d="M612.85,538.34a6.83,6.83,0,1,0,6.84,6.83A6.84,6.84,0,0,0,612.85,538.34Zm0,9.11a2.28,2.28,0,1,1,2.28-2.28A2.28,2.28,0,0,1,612.85,547.45Z"/><path class="cls-1" d="M658.4,552a4.56,4.56,0,0,1-4.55,4.56v4.55A9.12,9.12,0,0,0,663,552v-9.11H658.4Z"/><path class="cls-1" d="M690.29,538.34h-7l7.5-7.5-3.22-3.22-10.91,10.91v4.36h13.66a2.29,2.29,0,0,1,2.28,2.28v2.28h-20.5V527h-4.55v25h29.6v-6.83A6.83,6.83,0,0,0,690.29,538.34Z"/><path class="cls-1" d="M653.85,552v-6.83a6.84,6.84,0,0,0-6.83-6.83h-7l7.5-7.5-3.22-3.22-10.92,10.91v4.36H647a2.29,2.29,0,0,1,2.28,2.28v2.28H628.8V527h-4.56v25h29.61Z"/><rect class="cls-1" x="631.93" y="524.67" width="9.66" height="4.56" transform="translate(-186.11 604.6) rotate(-45)"/><path class="cls-1" d="M590.08,538.34a6.83,6.83,0,0,0-6.44,9.11h-4.95v-4.56h-4.55V552a4.56,4.56,0,0,1-4.56,4.56v4.55a9.12,9.12,0,0,0,9.11-9.11h11.39a6.83,6.83,0,0,0,0-13.66Zm0,9.11a2.28,2.28,0,1,1,2.28-2.28A2.28,2.28,0,0,1,590.08,547.45Z"/><rect class="cls-1" x="587.8" y="529.23" width="4.56" height="4.5"/><polygon class="cls-1" points="560.47 529.23 555.91 529.23 555.91 533.78 551.36 533.78 551.36 538.34 560.47 538.34 560.47 529.23"/><path class="cls-1" d="M569.58,540.62H565v4.55a2.28,2.28,0,0,1-4.56,0v-2.28h-4.56v2.34a2.22,2.22,0,0,1-2.21,2.22h-4.62v-4.56h-4.55v10.25a5.7,5.7,0,1,1-11.39,0v-5.69h-4.56v5.69a10.25,10.25,0,0,0,20.5,0V552h4.62a6.76,6.76,0,0,0,4.51-1.73,6.83,6.83,0,0,0,11.37-5.1Z"/></g></svg>