<svg xmlns="http://www.w3.org/2000/svg" viewBox="0 0 1080 1080"><defs><style>.cls-1{fill:#fff;}</style></defs><g id="Background"><rect width="1080" height="1080"/></g><g id="Graphics"><path class="cls-1" d="M890.2,507.93H678.81l169.73-98-35-60.59L538.89,507.93H201.82v80.38H399.67L228.49,687.14l35,60.59L539.59,588.31H890.2ZM231.78,558.36V537.89H487l-35.44,20.47Zm395.14-20.47H731.31v20.47H591.48Zm233.32,20.47h-99V537.89h99Z"/><path class="cls-1" d="M275.53,384V336.71A43.82,43.82,0,0,1,319.3,293V263a73.8,73.8,0,0,0-73.72,73.72V384a43.81,43.81,0,0,1-43.77,43.76v30A73.8,73.8,0,0,0,275.53,384Z"/></g></svg>