<svg xmlns="http://www.w3.org/2000/svg" viewBox="0 0 1080 1080"><defs><style>.cls-1{fill:#082b96;}.cls-2{fill:#b4b5b8;}.cls-3{fill:#fff;}.cls-4{fill:#1d1d1b;}</style></defs><g id="Background"><rect class="cls-1" width="1080" height="1080"/></g><g id="Graphics"><polygon points="780.51 392.44 603.13 392.44 603.13 482.63 149.17 482.63 149.17 858.43 314.52 1023.78 930.83 1023.78 930.83 542.76 780.51 392.44"/><path class="cls-2" d="M537.77,56.22h0C467.5,56.22,410,113.71,410,184V236.6H229.62v481H665.54V184C665.54,113.71,608.05,56.22,537.77,56.22Z"/><path class="cls-3" d="M714.86,770.77a5.69,5.69,0,0,1-5.68,5.69v5.68a11.38,11.38,0,0,0,11.36-11.37V759.41h-5.68Z"/><rect class="cls-3" x="714.86" y="748.05" width="5.68" height="5.68"/><path class="cls-3" d="M700.65,765.09H689.29a2.84,2.84,0,0,1-2.84-2.84v-2.84h-5.68v2.84a2.85,2.85,0,0,1-2.85,2.84H669.4a2.84,2.84,0,0,1-2.84-2.84v-2.84h-5.68v2.84a2.84,2.84,0,0,1-2.84,2.84H646.67v5.68H658a8.49,8.49,0,0,0,5.68-2.17,8.49,8.49,0,0,0,5.68,2.17h8.52a8.5,8.5,0,0,0,5.69-2.17,8.49,8.49,0,0,0,5.68,2.17h17v-14.2h-5.68Z"/><rect class="cls-3" x="686.45" y="776.46" width="11.36" height="5.68"/><rect class="cls-3" x="667.98" y="776.46" width="11.36" height="5.68"/><rect class="cls-3" x="648.09" y="776.46" width="11.36" height="5.68"/><rect class="cls-3" x="629.63" y="765.09" width="5.68" height="5.68"/><path class="cls-3" d="M641,770.78a8.52,8.52,0,0,1-17,0v-5.69h-5.68v5.69a14.2,14.2,0,1,0,28.4,0V759.41H641Z"/><path class="cls-3" d="M784.46,770.77a5.68,5.68,0,0,1-5.68,5.69v5.68a11.38,11.38,0,0,0,11.37-11.37V759.41h-5.69Z"/><polygon class="cls-3" points="866.86 739.52 861.17 739.52 861.17 745.21 855.49 745.21 855.49 750.89 866.86 750.89 866.86 739.52"/><path class="cls-3" d="M872.54,756.57v5.68a2.84,2.84,0,0,1-5.68,0v-2.84h-5.69v2.84a2.84,2.84,0,0,1-2.84,2.84h-5.68v-5.68H847v5.68H815.72a2.83,2.83,0,0,1-2.84-2.84h0a8.53,8.53,0,1,0-8.53,8.52,8.35,8.35,0,0,0,2.84-.49v.49a5.69,5.69,0,0,1-5.68,5.69h-2.84v5.68h2.84a11.38,11.38,0,0,0,11.37-11.37v-.49a8.43,8.43,0,0,0,2.84.49h42.61a8.48,8.48,0,0,0,5.68-2.18,8.52,8.52,0,0,0,14.21-6.34v-5.68Zm-68.19,8.52a2.81,2.81,0,0,1-2.2-1.05,2.85,2.85,0,0,1-.57-2.43,2.81,2.81,0,0,1,2.13-2.13,3,3,0,0,1,.64-.07,2.89,2.89,0,0,1,1.79.63,2.84,2.84,0,0,1,1.05,2.21h0A2.84,2.84,0,0,1,804.35,765.09Z"/><path class="cls-3" d="M767.42,753.73a8.52,8.52,0,1,0,2.84,16.55v.49a5.69,5.69,0,0,1-5.68,5.69h-2.84v5.68h2.84a11.38,11.38,0,0,0,11.36-11.37v-8.52A8.53,8.53,0,0,0,767.42,753.73Zm0,11.36a2.84,2.84,0,1,1,2.84-2.84A2.84,2.84,0,0,1,767.42,765.09Z"/><path class="cls-3" d="M746.11,753.73a8.52,8.52,0,0,0-7.58,12.41,11.37,11.37,0,0,0-6.62,10.32V785h5.69v-8.52a5.69,5.69,0,0,1,5.68-5.69h2.84a8.52,8.52,0,1,0,0-17Zm0,11.36a2.84,2.84,0,1,1,2.84-2.84A2.84,2.84,0,0,1,746.11,765.09Z"/><path class="cls-3" d="M572.23,829v-3.48l16.13-21h-16v-3.24H592.5v3.52L576.33,825.8h16.33V829Z"/><path class="cls-3" d="M613.21,820.25h-14a7.27,7.27,0,0,0,1.91,5,5.62,5.62,0,0,0,7.31.12,4.17,4.17,0,0,0,1.17-2.15h3.24a7.25,7.25,0,0,1-3,4.88,9.11,9.11,0,0,1-5,1.49,8.43,8.43,0,0,1-6.56-3,11.17,11.17,0,0,1-2.47-7.35,12,12,0,0,1,1.53-6.33,8.46,8.46,0,0,1,7.46-4.14,7.94,7.94,0,0,1,6,2.54,10.16,10.16,0,0,1,2.5,7Zm-4.58-6.88a4.68,4.68,0,0,0-3.9-1.79c-3.6,0-5.35,2.93-5.43,5.82h10.55A6.87,6.87,0,0,0,608.63,813.37Z"/><path class="cls-3" d="M634.73,820.25h-14a7.28,7.28,0,0,0,1.92,5,5.61,5.61,0,0,0,7.3.12,4.17,4.17,0,0,0,1.17-2.15h3.25a7.3,7.3,0,0,1-3,4.88,9.11,9.11,0,0,1-5,1.49,8.44,8.44,0,0,1-6.56-3,11.21,11.21,0,0,1-2.46-7.35,12.12,12.12,0,0,1,1.52-6.33,8.47,8.47,0,0,1,7.46-4.14,8,8,0,0,1,6,2.54,10.25,10.25,0,0,1,2.5,7Zm-4.57-6.88a4.7,4.7,0,0,0-3.91-1.79c-3.59,0-5.35,2.93-5.43,5.82h10.55A6.93,6.93,0,0,0,630.16,813.37Z"/><path class="cls-3" d="M656.25,820.25h-14a7.28,7.28,0,0,0,1.92,5,5.61,5.61,0,0,0,7.3.12,4.17,4.17,0,0,0,1.17-2.15h3.25a7.3,7.3,0,0,1-3,4.88,9.09,9.09,0,0,1-5,1.49,8.44,8.44,0,0,1-6.56-3,11.21,11.21,0,0,1-2.46-7.35,12.12,12.12,0,0,1,1.52-6.33,8.47,8.47,0,0,1,7.46-4.14,8,8,0,0,1,6,2.54,10.2,10.2,0,0,1,2.5,7Zm-4.57-6.88a4.7,4.7,0,0,0-3.91-1.79c-3.59,0-5.35,2.93-5.43,5.82h10.55A6.93,6.93,0,0,0,651.68,813.37Z"/><path class="cls-3" d="M674.53,829V816.5c0-3-1.21-4.73-4.34-4.73a4.85,4.85,0,0,0-4.3,3.05,13.08,13.08,0,0,0-.7,5V829h-3.32V809.27h2.89l.28,3c1-2.27,3.75-3.48,6-3.48,4.49,0,6.84,2.7,6.84,7.27v13Z"/><path class="cls-3" d="M710.58,826.77a11.26,11.26,0,0,1-7.85,2.78,11.41,11.41,0,0,1-7.93-2.66,9.16,9.16,0,0,1-3-6.64h3.63a6.28,6.28,0,0,0,2,4.37,7.83,7.83,0,0,0,5.31,1.72,7.29,7.29,0,0,0,5.15-1.6,4.08,4.08,0,0,0,1.41-3.24c0-2.15-1.37-4-4.65-4.45-1.52-.24-2.89-.43-4.37-.67-4.14-.62-7.39-2.93-7.39-7.34a7.62,7.62,0,0,1,2.43-5.47,10.26,10.26,0,0,1,7.26-2.74,10.41,10.41,0,0,1,7.19,2.66,8.32,8.32,0,0,1,2.66,5.94h-3.64a5.8,5.8,0,0,0-1.36-3.48,7.25,7.25,0,0,0-9.81,0,4.42,4.42,0,0,0-1.13,3c0,2.5,2.07,3.63,4.14,3.91,1.56.19,3.08.46,4.61.7,4.61.66,7.69,3.48,7.69,7.85A7.21,7.21,0,0,1,710.58,826.77Z"/><path class="cls-3" d="M731.16,829V816.5c0-3-1.21-4.73-4.33-4.73a4.84,4.84,0,0,0-4.3,3.05,13.08,13.08,0,0,0-.7,5V829h-3.32V800.83h3.32v11.06a6.72,6.72,0,0,1,5.78-3.13c4.49,0,6.87,2.7,6.87,7.27v13Z"/><path class="cls-3" d="M754.68,827.24a8.9,8.9,0,0,1-12,0c-2.15-2.11-2.81-5-2.81-8.09s.66-6,2.81-8.08a8.9,8.9,0,0,1,12,0c2.14,2.11,2.81,5,2.81,8.08S756.82,825.13,754.68,827.24ZM752.25,813a5.2,5.2,0,0,0-7.1,0c-1.41,1.45-1.84,3.83-1.84,6.13s.43,4.69,1.84,6.14a5.2,5.2,0,0,0,7.1,0c1.41-1.45,1.84-3.83,1.84-6.14S753.66,814.47,752.25,813Z"/><path class="cls-3" d="M782.76,829h-3.2l-5.16-15.12L769.13,829H766l-5.07-19.77h3.28L768,824.19l5-14.68h2.85l5,14.68,3.83-14.92h3.24Z"/><path class="cls-3" d="M801.82,812.36a5.43,5.43,0,0,0-3.75,1.56c-1.6,1.52-1.8,4.26-1.8,6.33V829H793V809.27h2.93l.28,3.48a6.12,6.12,0,0,1,5.89-3.6,10.38,10.38,0,0,1,1.57.12v3.24A10.38,10.38,0,0,0,801.82,812.36Z"/><path class="cls-3" d="M820.53,827.24a8.88,8.88,0,0,1-11.95,0c-2.15-2.11-2.81-5-2.81-8.09s.66-6,2.81-8.08a8.88,8.88,0,0,1,11.95,0c2.15,2.11,2.81,5,2.81,8.08S822.68,825.13,820.53,827.24ZM818.11,813a5.21,5.21,0,0,0-7.11,0c-1.41,1.45-1.84,3.83-1.84,6.13s.43,4.69,1.84,6.14a5.21,5.21,0,0,0,7.11,0c1.41-1.45,1.83-3.83,1.83-6.14S819.52,814.47,818.11,813Z"/><path class="cls-3" d="M842.33,827.24a8.9,8.9,0,0,1-12,0c-2.15-2.11-2.81-5-2.81-8.09s.66-6,2.81-8.08a8.9,8.9,0,0,1,12,0c2.14,2.11,2.81,5,2.81,8.08S844.47,825.13,842.33,827.24ZM839.9,813a5.21,5.21,0,0,0-7.11,0c-1.4,1.45-1.83,3.83-1.83,6.13s.43,4.69,1.83,6.14a5.21,5.21,0,0,0,7.11,0c1.41-1.45,1.84-3.83,1.84-6.14S841.31,814.47,839.9,813Z"/><path class="cls-3" d="M874.9,829V816.46c0-2.77-.9-4.69-4-4.69a4,4,0,0,0-3,1.33c-1.33,1.37-1.68,3.36-1.68,5.43V829h-3.32V816.46c0-2.77-.82-4.69-4-4.69a4.18,4.18,0,0,0-3.36,1.76,8.71,8.71,0,0,0-1.33,5V829h-3.32V809.27h2.89l.31,2.81a6,6,0,0,1,5.55-3.32c2.93,0,5,1.33,5.9,3.75a6.51,6.51,0,0,1,6.09-3.75c4.49,0,6.6,2.89,6.6,7.27v13Z"/><path class="cls-3" d="M526.1,971.17V958.4H512.82v12.77h-3.47V943.48h3.47V955H526.1V943.48h3.48v27.69Z"/><path class="cls-3" d="M553,962.38H539a7.23,7.23,0,0,0,1.92,5,5.61,5.61,0,0,0,7.3.12,4.13,4.13,0,0,0,1.17-2.15h3.24a7.28,7.28,0,0,1-3,4.89,9.19,9.19,0,0,1-5,1.48,8.4,8.4,0,0,1-6.56-3,11.19,11.19,0,0,1-2.47-7.34,12,12,0,0,1,1.53-6.33,8.46,8.46,0,0,1,7.46-4.14,7.94,7.94,0,0,1,6,2.54,10.13,10.13,0,0,1,2.5,6.95Zm-4.57-6.87a4.69,4.69,0,0,0-3.91-1.8c-3.59,0-5.35,2.93-5.43,5.82h10.55A6.9,6.9,0,0,0,548.45,955.51Z"/><path class="cls-3" d="M558.4,946.88V943h3.87v3.91Zm.24,24.29V951.41H562v19.76Z"/><path class="cls-3" d="M582.35,971.17l-.24-2.58a6.9,6.9,0,0,1-5.89,3.09,7.52,7.52,0,0,1-5.59-2.15,11.67,11.67,0,0,1-2.85-8.2c0-3.4,1-6.52,3-8.44a7.72,7.72,0,0,1,5.43-2c2.14,0,4.68,1,5.74,2.81V943h3.32v28.2ZM580,955a4.6,4.6,0,0,0-3.21-1.29c-4.41,0-5.58,3.95-5.58,7.58s1.17,7.58,5.58,7.58a4.6,4.6,0,0,0,3.21-1.29c1.64-1.45,2.18-3.83,2.18-6.29S581.61,956.45,580,955Z"/><path class="cls-3" d="M606.92,971.45a2.82,2.82,0,0,1-2.86-3H604a7.23,7.23,0,0,1-6.37,3.24c-4.53,0-6.8-3-6.8-6.09,0-2.54,1.64-5.86,7-6.18l6-.35v-1.44a3.89,3.89,0,0,0-1-3,4.42,4.42,0,0,0-3.24-1,4.85,4.85,0,0,0-3.59,1.18,3.2,3.2,0,0,0-1,2.38H591.8a5.83,5.83,0,0,1,1.72-4.14,8.48,8.48,0,0,1,6.09-2.11c3.83,0,6,1.64,6.95,3.79a7.4,7.4,0,0,1,.59,3v9.58c0,1.05.43,1.32,1.09,1.32a5,5,0,0,0,.86-.11V971A4.58,4.58,0,0,1,606.92,971.45Zm-3-9.81-5.31.31c-2,.12-4.34,1.06-4.34,3.56,0,1.76,1.09,3.4,3.91,3.4a5.57,5.57,0,0,0,4.06-1.6,6.42,6.42,0,0,0,1.68-4.5Z"/><path class="cls-3" d="M623.2,954.49a5.44,5.44,0,0,0-3.75,1.57c-1.6,1.52-1.79,4.25-1.79,6.32v8.79h-3.28V951.41h2.92l.28,3.47a6.13,6.13,0,0,1,5.9-3.59,10.34,10.34,0,0,1,1.56.12v3.24A9.53,9.53,0,0,0,623.2,954.49Z"/><path class="cls-3" d="M629.14,946.88V943H633v3.91Zm.23,24.29V951.41h3.4v19.76Z"/><path class="cls-3" d="M654.41,971.45a2.81,2.81,0,0,1-2.85-3h-.08a7.2,7.2,0,0,1-6.37,3.24c-4.53,0-6.79-3-6.79-6.09,0-2.54,1.64-5.86,7-6.18l6-.35v-1.44a3.88,3.88,0,0,0-1-3,4.42,4.42,0,0,0-3.24-1,4.89,4.89,0,0,0-3.6,1.18,3.23,3.23,0,0,0-1,2.38h-3.25A5.87,5.87,0,0,1,641,953c1.33-1.41,3.68-2.11,6.1-2.11,3.83,0,6,1.64,6.95,3.79a7.56,7.56,0,0,1,.59,3v9.58c0,1.05.43,1.32,1.09,1.32a5.14,5.14,0,0,0,.86-.11V971A4.62,4.62,0,0,1,654.41,971.45Zm-3-9.81-5.31.31c-2,.12-4.33,1.06-4.33,3.56,0,1.76,1.09,3.4,3.9,3.4a5.6,5.6,0,0,0,4.07-1.6,6.41,6.41,0,0,0,1.67-4.5Z"/><path class="cls-3" d="M674.53,971.17V958.63c0-3-1.21-4.72-4.34-4.72a4.86,4.86,0,0,0-4.3,3,13.13,13.13,0,0,0-.7,5v9.18h-3.32V951.41h2.89l.27,3c1-2.27,3.75-3.48,6-3.48,4.49,0,6.84,2.69,6.84,7.26v13Z"/><path class="cls-3" d="M710.58,968.91a12.82,12.82,0,0,1-15.78.11,9.16,9.16,0,0,1-3-6.64h3.63a6.35,6.35,0,0,0,1.95,4.38,7.85,7.85,0,0,0,5.32,1.72,7.29,7.29,0,0,0,5.15-1.6,4.1,4.1,0,0,0,1.41-3.25c0-2.15-1.37-3.94-4.65-4.45l-4.37-.66c-4.15-.63-7.39-2.93-7.39-7.35a7.66,7.66,0,0,1,2.42-5.47,11,11,0,0,1,14.46-.07,8.27,8.27,0,0,1,2.65,5.93h-3.63a5.72,5.72,0,0,0-1.37-3.47,7.21,7.21,0,0,0-9.8,0,4.39,4.39,0,0,0-1.13,3c0,2.5,2.07,3.64,4.14,3.91,1.56.2,3.08.47,4.61.7,4.61.67,7.69,3.48,7.69,7.86A7.21,7.21,0,0,1,710.58,968.91Z"/><path class="cls-3" d="M731.16,971.17V958.63c0-3-1.21-4.72-4.33-4.72a4.84,4.84,0,0,0-4.3,3,13.13,13.13,0,0,0-.7,5v9.18h-3.32V943h3.32v11a6.71,6.71,0,0,1,5.78-3.12c4.49,0,6.87,2.69,6.87,7.26v13Z"/><path class="cls-3" d="M754.68,969.38a8.92,8.92,0,0,1-12,0c-2.15-2.11-2.81-5-2.81-8.09s.66-6,2.81-8.09a8.92,8.92,0,0,1,12,0c2.14,2.11,2.81,5,2.81,8.09S756.82,967.27,754.68,969.38Zm-2.43-14.22a5.19,5.19,0,0,0-7.11,0c-1.4,1.44-1.83,3.82-1.83,6.13s.43,4.69,1.83,6.13a5.19,5.19,0,0,0,7.11,0c1.41-1.44,1.84-3.83,1.84-6.13S753.66,956.6,752.25,955.16Z"/><path class="cls-3" d="M782.76,971.17h-3.2l-5.16-15.11-5.27,15.11H766l-5.08-19.76h3.29L768,966.33l5-14.69h2.86l5,14.69,3.82-14.92h3.25Z"/><path class="cls-3" d="M801.82,954.49a5.44,5.44,0,0,0-3.75,1.57c-1.6,1.52-1.8,4.25-1.8,6.32v8.79H793V951.41h2.93l.27,3.47a6.14,6.14,0,0,1,5.9-3.59,10.38,10.38,0,0,1,1.57.12v3.24A9.53,9.53,0,0,0,801.82,954.49Z"/><path class="cls-3" d="M820.53,969.38a8.91,8.91,0,0,1-11.95,0c-2.15-2.11-2.82-5-2.82-8.09s.67-6,2.82-8.09a8.91,8.91,0,0,1,11.95,0c2.15,2.11,2.81,5,2.81,8.09S822.68,967.27,820.53,969.38Zm-2.42-14.22a5.19,5.19,0,0,0-7.11,0c-1.41,1.44-1.84,3.82-1.84,6.13s.43,4.69,1.84,6.13a5.19,5.19,0,0,0,7.11,0c1.4-1.44,1.83-3.83,1.83-6.13S819.51,956.6,818.11,955.16Z"/><path class="cls-3" d="M842.32,969.38a8.91,8.91,0,0,1-12,0c-2.15-2.11-2.81-5-2.81-8.09s.66-6,2.81-8.09a8.91,8.91,0,0,1,12,0c2.15,2.11,2.82,5,2.82,8.09S844.47,967.27,842.32,969.38Zm-2.42-14.22a5.19,5.19,0,0,0-7.11,0c-1.4,1.44-1.83,3.82-1.83,6.13s.43,4.69,1.83,6.13a5.19,5.19,0,0,0,7.11,0c1.41-1.44,1.84-3.83,1.84-6.13S841.31,956.6,839.9,955.16Z"/><path class="cls-3" d="M874.9,971.17V958.59c0-2.77-.9-4.68-4-4.68a4,4,0,0,0-3,1.32c-1.33,1.37-1.68,3.36-1.68,5.43v10.51h-3.32V958.59c0-2.77-.82-4.68-4-4.68a4.2,4.2,0,0,0-3.36,1.75,8.71,8.71,0,0,0-1.33,5v10.51h-3.32V951.41h2.89l.31,2.81a6,6,0,0,1,5.55-3.32c2.93,0,5,1.33,5.9,3.75a6.51,6.51,0,0,1,6.09-3.75c4.49,0,6.6,2.89,6.6,7.26v13Z"/><path class="cls-3" d="M714.86,905.8a10,10,0,0,0-10-9.95h-7.1v5.69h7.1a4.27,4.27,0,0,1,4.27,4.26v1.42H689.29a2.84,2.84,0,0,1-2.84-2.84v-2.84h-5.69v2.84a2.84,2.84,0,0,1-2.84,2.84h-8.54v-2.84a8.54,8.54,0,0,0-8.52-8.53h-5.69v5.69h5.69a2.84,2.84,0,0,1,2.84,2.84v2.84h-8.53v5.68h22.75a8.47,8.47,0,0,0,5.69-2.19,8.44,8.44,0,0,0,5.68,2.19h31.25v-5.68h-5.68Z"/><path class="cls-3" d="M643.81,912.9a5.69,5.69,0,0,1-5.68,5.68v5.69a11.38,11.38,0,0,0,11.36-11.37V901.54h-5.68Z"/><rect class="cls-3" x="669.4" y="918.58" width="11.36" height="5.68"/><polygon class="cls-3" points="629.62 907.22 618.26 907.22 618.26 881.65 612.58 881.65 612.58 907.22 612.57 907.22 612.57 912.9 635.3 912.9 635.3 898.7 629.62 898.7 629.62 907.22"/><rect class="cls-3" x="618.25" y="918.58" width="11.36" height="5.68"/><rect class="cls-3" x="589.86" y="907.22" width="5.68" height="5.68"/><path class="cls-3" d="M601.22,912.91a8.52,8.52,0,0,1-17,0v-5.69H578.5v5.69a14.2,14.2,0,1,0,28.4,0V901.54h-5.68Z"/><path class="cls-3" d="M784.46,912.9a5.68,5.68,0,0,1-5.68,5.68v5.68a11.37,11.37,0,0,0,11.37-11.36V901.54h-5.69Z"/><polygon class="cls-3" points="866.86 881.65 861.17 881.65 861.17 887.33 855.49 887.33 855.49 893.01 866.86 893.01 866.86 881.65"/><path class="cls-3" d="M872.54,898.69v5.69a2.84,2.84,0,0,1-5.68,0v-2.84h-5.69v2.84a2.84,2.84,0,0,1-2.84,2.84h-5.68v-5.68H847v5.68H815.72a2.83,2.83,0,0,1-2.84-2.84h0a8.54,8.54,0,1,0-5.69,8v.49a5.69,5.69,0,0,1-5.68,5.68h-2.84v5.68h2.84a11.37,11.37,0,0,0,11.37-11.36v-.49a8.43,8.43,0,0,0,2.84.49h42.61a8.44,8.44,0,0,0,5.68-2.19,8.51,8.51,0,0,0,14.21-6.33v-5.69Zm-68.19,8.53a2.84,2.84,0,0,1-2.2-1.05,2.87,2.87,0,0,1-.57-2.44,2.84,2.84,0,0,1,2.13-2.13,3.72,3.72,0,0,1,.64-.06,2.83,2.83,0,0,1,2.84,2.84h0A2.84,2.84,0,0,1,804.35,907.22Z"/><path class="cls-3" d="M767.42,895.85a8.53,8.53,0,0,0,0,17,8.35,8.35,0,0,0,2.84-.5v.5a5.69,5.69,0,0,1-5.68,5.68h-2.84v5.68h2.84a11.37,11.37,0,0,0,11.36-11.36v-8.52A8.54,8.54,0,0,0,767.42,895.85Zm0,11.37a2.84,2.84,0,1,1,2.84-2.84A2.84,2.84,0,0,1,767.42,907.22Z"/><path class="cls-3" d="M746.11,895.85a8.54,8.54,0,0,0-8.52,8.53,8.42,8.42,0,0,0,.94,3.88,11.39,11.39,0,0,0-6.63,10.32v8.52h5.69v-8.53a5.69,5.69,0,0,1,5.68-5.68h2.84a8.53,8.53,0,0,0,0-17Zm0,11.37a2.84,2.84,0,1,1,2.84-2.84A2.84,2.84,0,0,1,746.11,907.22Z"/><path class="cls-4" d="M553.43,665l-5.23-11.52h-7.66V665h-3.47V637.32h10.86c3.24,0,5.5.89,7,2.46a7.81,7.81,0,0,1,2.19,5.62,7.46,7.46,0,0,1-2.11,5.47,8,8,0,0,1-3.32,2L557.26,665Zm-5.5-24.49h-7.39v9.73h7.39c3.28,0,5.62-1.33,5.62-4.85S551.21,640.52,547.93,640.52Z"/><path class="cls-4" d="M582.53,652c0,2.54-.62,5.86-1.91,7.7l4.73,5.27h-4.22l-2.39-2.69a10.42,10.42,0,0,1-7.89,3.2c-4.76,0-8.67-3-8.67-8a8.08,8.08,0,0,1,3.91-6.91c.47-.32.9-.59,1.37-.86-1.8-2-3.29-3.6-3.29-6.49,0-3.82,3-6.44,7-6.44s7.07,2.5,7.07,6.56a6.94,6.94,0,0,1-3.56,6.13c-.66.39-1.33.86-2,1.25l5.74,6.49c1.1-2,1-5.74,1-8h6V652Zm-13-.08-1.6,1a5.24,5.24,0,0,0-2.39,4.45,5,5,0,0,0,5.16,5c2.42,0,4.45-.54,6-2.5Zm1.6-12.34a3.46,3.46,0,0,0-3.67,3.59c0,2.23,1.79,3.75,3.16,5.28,2.19-1.21,4.41-2.19,4.41-5.08A3.54,3.54,0,0,0,571.09,639.62Z"/><path class="cls-4" d="M608.62,662.24a10.39,10.39,0,0,1-7.26,2.77h-9.65V637.32h9.65a10.38,10.38,0,0,1,7.26,2.81c3,2.89,3.56,7,3.56,11S611.63,659.35,608.62,662.24Zm-2.34-19.81a7,7,0,0,0-4.92-1.91h-6.17v21.29h6.17a7,7,0,0,0,4.92-1.92c2.19-2.22,2.38-5.78,2.38-8.75S608.47,644.7,606.28,642.43Z"/><path class="cls-4" d="M501.5,523.39l-2.26-6.56h-12L485,523.39h-3.52l9.77-27.7h4.06l9.81,27.7Zm-8.32-24.22-4.88,14.38h9.8Z"/><path class="cls-4" d="M517.87,506.71a5.43,5.43,0,0,0-3.75,1.56c-1.6,1.53-1.8,4.26-1.8,6.33v8.79H509V503.62H512l.27,3.48a6.14,6.14,0,0,1,5.9-3.59,11.57,11.57,0,0,1,1.56.11v3.25A9.43,9.43,0,0,0,517.87,506.71Z"/><path class="cls-4" d="M536.38,521.75a7.82,7.82,0,0,1-5.7,2.15,8.27,8.27,0,0,1-7.23-3.71,14.42,14.42,0,0,1,0-13.36,8.21,8.21,0,0,1,7.19-3.71,7.87,7.87,0,0,1,5.63,2.11,7.61,7.61,0,0,1,2.34,5.07h-3.36a4.94,4.94,0,0,0-1.41-3.08,4.63,4.63,0,0,0-3.2-1.21,5,5,0,0,0-3.44,1.29c-1.56,1.32-2,3.79-2,6.21s.43,4.88,2,6.21a5,5,0,0,0,3.44,1.29,4.62,4.62,0,0,0,3.36-1.33,4.92,4.92,0,0,0,1.33-2.93h3.36A7.45,7.45,0,0,1,536.38,521.75Z"/><path class="cls-4" d="M556.5,523.39V510.85c0-3-1.21-4.73-4.34-4.73a4.83,4.83,0,0,0-4.29,3.05,13,13,0,0,0-.71,5v9.18h-3.32v-28.2h3.32v11.05a6.72,6.72,0,0,1,5.78-3.12c4.5,0,6.88,2.69,6.88,7.26v13Z"/><path class="cls-4" d="M566.53,499.09v-3.9h3.87v3.9Zm.24,24.3V503.62h3.4v19.77Z"/><path class="cls-4" d="M585.17,523.39h-3.6l-7.3-19.77h3.47l5.71,15.86L589,503.62h3.35Z"/><path class="cls-4" d="M612.12,514.6h-14a7.28,7.28,0,0,0,1.92,5,5.61,5.61,0,0,0,7.3.12,4.13,4.13,0,0,0,1.17-2.15h3.25a7.3,7.3,0,0,1-3,4.88,9.09,9.09,0,0,1-5,1.49,8.41,8.41,0,0,1-6.56-3,11.2,11.2,0,0,1-2.46-7.34,12.08,12.08,0,0,1,1.52-6.33,8.45,8.45,0,0,1,7.46-4.14,8,8,0,0,1,6,2.54,10.16,10.16,0,0,1,2.5,6.95Zm-4.57-6.87a4.68,4.68,0,0,0-3.91-1.8c-3.59,0-5.35,2.93-5.43,5.82h10.55A6.88,6.88,0,0,0,607.55,507.73Z"/><polygon class="cls-3" points="266.69 838.04 229.49 800.86 266.69 763.64 268.94 765.89 233.99 800.85 268.94 835.79 266.69 838.04"/><rect class="cls-3" x="231.74" y="799.25" width="71.31" height="3.18"/><polygon class="cls-4" points="575.22 273.8 572.97 271.55 607.92 236.59 572.97 201.65 575.22 199.4 612.42 236.58 575.22 273.8"/><rect class="cls-4" x="538.85" y="235.01" width="71.31" height="3.18"/><rect x="606.5" y="433.87" width="5.68" height="31.25"/><path d="M604.14,420.64a9.79,9.79,0,0,0-9.78,9.78v3.47H600v-3.47a4.11,4.11,0,0,1,4.1-4.1h17.35v-5.68Z"/><path d="M596.56,462.28a5.69,5.69,0,0,1-5.69,5.68v5.69a11.38,11.38,0,0,0,11.37-11.37V450.92h-5.68Z"/><rect x="508.48" y="470.81" width="11.36" height="5.68"/><path d="M582.35,456.6a2.84,2.84,0,1,1-5.68,0v-2.84H571v2.84a2.84,2.84,0,0,1-2.84,2.84h-5.69v-5.68h-5.68v5.68H528.37a2.84,2.84,0,0,1-2.84-2.84v-2.84h-5.68v2.84a2.84,2.84,0,0,1-2.84,2.84h-8.53a2.85,2.85,0,0,1-2.84-2.84h0A8.5,8.5,0,0,0,502.5,450a8.52,8.52,0,0,0-12,12,8.47,8.47,0,0,0,6.61,3.15,8.6,8.6,0,0,0,2.84-.49v.49a5.68,5.68,0,0,1-5.68,5.68h-2.84v5.69h2.84a11.37,11.37,0,0,0,11.36-11.37v-.49a8.48,8.48,0,0,0,2.84.49H517a8.46,8.46,0,0,0,5.68-2.19,8.46,8.46,0,0,0,5.68,2.19h39.78a8.46,8.46,0,0,0,5.68-2.19A8.5,8.5,0,0,0,588,456.6v-5.68h-5.68Zm-85.23,2.84a2.84,2.84,0,0,1-2.21-1.05,2.88,2.88,0,0,1-.56-2.43,2.8,2.8,0,0,1,2.13-2.13,3,3,0,0,1,.64-.07A2.83,2.83,0,0,1,500,456.6h0A2.84,2.84,0,0,1,497.12,459.44Z"/><polygon points="576.67 433.87 570.99 433.87 570.99 439.55 565.31 439.55 565.31 445.24 576.67 445.24 576.67 433.87"/><path d="M606.5,593.05v8.52H592.3v-5.68h-5.69v11.36a5.69,5.69,0,0,1-5.68,5.69v5.68a11.38,11.38,0,0,0,11.37-11.37h19.88v-14.2Z"/><polygon points="595.14 618.62 600.82 618.62 600.82 624.3 606.5 624.3 606.5 618.62 606.5 612.94 595.14 612.94 595.14 618.62"/><polygon points="592.29 576 586.61 576 586.61 581.68 580.93 581.68 580.93 587.37 592.29 587.37 592.29 576"/><polygon points="503.26 576 497.58 576 497.58 581.68 491.9 581.68 491.9 587.37 503.26 587.37 503.26 576"/><path d="M570,590.21a8.52,8.52,0,1,0,2.84,16.55v.49a5.69,5.69,0,0,1-5.68,5.69h-2.84v5.68h2.84a11.38,11.38,0,0,0,11.36-11.37v-8.52A8.53,8.53,0,0,0,570,590.21Zm0,11.36a2.84,2.84,0,1,1,2.84-2.84A2.84,2.84,0,0,1,570,601.57Z"/><path d="M538.71,585.64l11.43,11.43v4.5h-4.76a8.35,8.35,0,0,0,.5-2.84,8.53,8.53,0,0,0-17,0,8.35,8.35,0,0,0,.5,2.84H517.47a2.84,2.84,0,0,1-2.84-2.84v-5.69H509v5.69a2.85,2.85,0,0,1-5.69,0V595.9h-5.68v2.84a2.84,2.84,0,0,1-2.84,2.84h-5.68V595.9h-5.69v12.78a7.1,7.1,0,0,1-14.2,0v-7.1h-5.68v7.1a12.78,12.78,0,0,0,25.56,0v-1.42h5.69a8.44,8.44,0,0,0,5.68-2.19,8.47,8.47,0,0,0,11.37,0,8.46,8.46,0,0,0,5.68,2.19h38.35V594.71l-13.09-13.09Zm-4.19,13.09a2.84,2.84,0,1,1,2.84,2.84A2.84,2.84,0,0,1,534.52,598.73Z"/></g></svg>