<svg xmlns="http://www.w3.org/2000/svg" viewBox="0 0 1080 1080"><defs><style>.cls-1{fill:#fff;}.cls-2{fill:#209b4f;}</style></defs><g id="Background"><rect class="cls-1" width="1080" height="1080"/></g><g id="Content"><polygon class="cls-2" points="311.96 416.48 207.44 521 207.44 663.52 872.56 663.52 872.56 521 768.04 416.48 311.96 416.48"/><path d="M478.24,631.85V578.8H513.7v6.14H484.9V601.1h25.29v6.28H484.9v18.34h28.8v6.13Z"/><path d="M545.87,631.85l-10-14.89-9.87,14.89h-7.26l12.87-19.3L518.94,594h7.48l9.88,14.29L545.8,594h7.33l-12.79,18.56,13.17,19.3Z"/><path d="M561.28,585.31v-7.48h7.41v7.48Zm.45,46.54V594h6.51v37.86Z"/><path d="M594.2,632.37c-8.15,0-10.4-5.16-10.4-10.25V599.45h-7.33V594h7.33v-9.65l6.36-1.5V594h11.23v5.46H590.16v21.93c0,3.66,1.58,5.16,5.09,5.16a46.82,46.82,0,0,0,6.51-.67v5.46A27.42,27.42,0,0,1,594.2,632.37Z"/><rect x="609.84" y="448.15" width="13.3" height="13.3"/><path d="M649.75,501.36V498a23.31,23.31,0,0,0-23.28-23.28H609.84v13.31h16.63a10,10,0,0,1,10,10v3.33H583.23v13.3h79.82v-13.3Z"/><rect x="470.16" y="527.96" width="13.3" height="13.3"/><path d="M483.46,498a23.31,23.31,0,0,0-23.28-23.28H443.56v13.31h16.62a10,10,0,0,1,10,10v3.33h-26.6a26.61,26.61,0,1,0,0,53.21h13.3v-13.3h-13.3a13.31,13.31,0,1,1,0-26.61h53.21v-13.3H483.46Z"/><path d="M530,474.75a20,20,0,0,0,0,39.91,19.77,19.77,0,0,0,6.65-1.16v1.16a13.31,13.31,0,0,1-13.3,13.3h-6.65v13.31h6.65A26.64,26.64,0,0,0,550,514.66V494.71A20,20,0,0,0,530,474.75Zm0,26.61a6.65,6.65,0,1,1,6.65-6.65A6.66,6.66,0,0,1,530,501.36Z"/><path d="M569.93,488.06v26.6a13.31,13.31,0,0,1-13.3,13.3v13.31a26.64,26.64,0,0,0,26.6-26.61v-26.6Z"/></g></svg>