<svg xmlns="http://www.w3.org/2000/svg" viewBox="0 0 1920 1080"><defs><style>.cls-1{fill:#fff;}.cls-17,.cls-2,.cls-22{fill:none;stroke:#000;stroke-miterlimit:10;}.cls-2{stroke-width:2px;}.cls-3{font-size:21.31px;font-family:Approach-Regular, Approach;letter-spacing:-0.02em;}.cls-4{letter-spacing:0.04em;}.cls-5{letter-spacing:-0.03em;}.cls-6{letter-spacing:-0.03em;}.cls-7{letter-spacing:-0.02em;}.cls-8{letter-spacing:-0.04em;}.cls-9{letter-spacing:-0.05em;}.cls-10{letter-spacing:-0.04em;}.cls-11{letter-spacing:-0.03em;}.cls-12{letter-spacing:-0.03em;}.cls-13{font-size:17.41px;letter-spacing:-0.03em;}.cls-14{letter-spacing:-0.04em;}.cls-15{letter-spacing:-0.06em;}.cls-16{letter-spacing:-0.02em;}.cls-17{stroke-width:4.97px;}.cls-18{fill:#ffec00;}.cls-19{fill:#f5cebc;}.cls-20{fill:#a9afb0;}.cls-21{fill:#cde5d9;}.cls-22{stroke-width:4.97px;}</style></defs><g id="Background"><rect width="1920" height="1080"/></g><g id="Layer_4" data-name="Layer 4"><rect class="cls-1" x="128.09" y="128.09" width="1672.72" height="951.91"/><rect class="cls-2" x="530.47" y="682.63" width="867.96" height="362.64"/><rect x="565.2" y="1045.27" width="798.49" height="34.73"/><polygon points="1295.01 750.44 1266 750.44 1286.51 718.3 1269.3 718.3 1269.3 711.87 1298.23 711.87 1277.73 744.01 1295.01 744.01 1295.01 750.44"/><polygon points="1330.37 750.44 1304.74 750.44 1304.65 711.87 1330.37 711.87 1330.37 718.3 1311.09 718.3 1311.15 744.01 1330.37 744.01 1330.37 750.44"/><rect x="1307.87" y="727.94" width="22.5" height="6.43"/><polygon points="1365.72 750.44 1340.01 750.44 1340.01 711.87 1365.72 711.87 1365.72 718.3 1346.44 718.3 1346.44 744.01 1365.72 744.01 1365.72 750.44"/><rect x="1343.22" y="727.94" width="22.5" height="6.43"/><polygon points="1330.37 798.65 1304.66 798.65 1304.66 760.08 1330.37 760.08 1330.37 766.51 1311.08 766.51 1311.08 792.22 1330.37 792.22 1330.37 798.65"/><rect x="1307.87" y="776.15" width="22.5" height="6.43"/><polygon points="1346.44 798.65 1340.01 798.65 1340.01 760.08 1346.17 760.08 1362.51 786.12 1362.51 760.08 1368.94 760.08 1368.94 798.65 1362.78 798.65 1346.44 772.6 1346.44 798.65"/><text class="cls-3" transform="translate(996.26 519.59)">A<tspan class="cls-4" x="13.75" y="0">r</tspan><tspan class="cls-5" x="22.2" y="0">ti</tspan><tspan class="cls-6" x="33.68" y="0">s</tspan><tspan class="cls-5" x="43.38" y="0">ti</tspan><tspan class="cls-7" x="54.85" y="0">c</tspan><tspan x="65.88" y="0">all</tspan><tspan class="cls-8" x="85.65" y="0">y</tspan><tspan x="95.74" y="0"> </tspan><tspan class="cls-9" x="100.08" y="0">F</tspan><tspan class="cls-10" x="112.12" y="0">r</tspan><tspan x="119.04" y="0">om </tspan><tspan class="cls-11" x="153.17" y="0">I</tspan><tspan class="cls-12" x="158.37" y="0">r</tspan><tspan x="165.36" y="0">an</tspan><tspan class="cls-13"><tspan x="-1.12" y="19.9">E</tspan><tspan class="cls-14" x="9.23" y="19.9">S</tspan><tspan class="cls-15" x="19.24" y="19.9">T</tspan><tspan class="cls-16" x="28.19" y="19.9" xml:space="preserve"> 2013</tspan></tspan></text><line class="cls-17" x1="837.46" y1="303.22" x2="837.46" y2="243.53"/><line class="cls-17" x1="837.46" y1="268.4" x2="854.87" y2="268.4"/><line class="cls-17" x1="837.46" y1="268.4" x2="850.81" y2="255.05"/><line class="cls-17" x1="836.06" y1="285.81" x2="827.51" y2="285.81"/><path class="cls-17" d="M840,278.35a7.46,7.46,0,0,1,0,14.92"/><path class="cls-17" d="M844.92,251A7.46,7.46,0,1,0,830,251"/><path class="cls-17" d="M892.17,469.85a32.25,32.25,0,0,1,32.25-32.25h0a32.25,32.25,0,0,1,32.25,32.25"/><line class="cls-17" x1="922.02" y1="323.11" x2="867.3" y2="377.83"/><path class="cls-17" d="M879.74,328.09l-27.36,27.35v12.44H837.46V303.22h47.25A44.77,44.77,0,0,1,929.48,348v14.93h87a44.77,44.77,0,0,1,44.77,44.76v64.66h-194V340.52"/><polyline class="cls-17" points="1061.29 457.41 1014.03 457.41 1014.03 362.91"/><path class="cls-17" d="M929.48,362.91h64.66a0,0,0,0,1,0,0v32.33a32.33,32.33,0,0,1-32.33,32.33h0a32.33,32.33,0,0,1-32.33-32.33V362.91a0,0,0,0,1,0,0Z"/><rect class="cls-17" x="837.46" y="303.22" width="17.41" height="17.41"/><path class="cls-18" d="M932,365.39v29.85a29.85,29.85,0,0,0,59.69,0V365.39Z"/><path class="cls-19" d="M894.82,469.85a29.77,29.77,0,1,1,59.53,0Z"/><rect class="cls-20" x="839.95" y="305.71" width="12.43" height="12.43"/><path class="cls-21" d="M1016.52,365.39h0a42.28,42.28,0,0,1,42.28,42.28v47.25a0,0,0,0,1,0,0h-42.28a0,0,0,0,1,0,0V365.39A0,0,0,0,1,1016.52,365.39Z"/><polyline class="cls-22" points="757.88 410.16 775.73 410.16 759.86 435.03 777.77 435.03"/><polyline class="cls-22" points="805.13 435.03 787.78 435.03 787.72 410.16 805.13 410.16"/><line class="cls-22" x1="805.13" y1="422.59" x2="787.72" y2="422.59"/><polyline class="cls-22" points="832.49 435.03 815.08 435.03 815.08 410.16 832.49 410.16"/><line class="cls-22" x1="832.49" y1="422.59" x2="815.08" y2="422.59"/><polyline class="cls-22" points="805.13 472.33 787.72 472.33 787.72 447.46 805.13 447.46"/><line class="cls-22" x1="805.13" y1="459.9" x2="787.72" y2="459.9"/><polyline class="cls-22" points="832.49 444.98 832.49 472.33 831.59 472.33 815.98 447.46 815.08 447.46 815.08 474.82"/><path class="cls-17" d="M867.31,504.66v24.87a24.86,24.86,0,0,0,24.87,24.87h0A24.86,24.86,0,0,0,917,529.53V504.66"/><polyline class="cls-17" points="946.67 554.4 966.78 534.29 966.78 519.59"/><line class="cls-17" x1="892.18" y1="504.66" x2="892.18" y2="514.61"/><line class="cls-17" x1="966.78" y1="514.61" x2="966.78" y2="504.66"/><line class="cls-17" x1="917.04" y1="561.86" x2="917.04" y2="571.81"/><line class="cls-17" x1="926.99" y1="571.81" x2="926.99" y2="561.86"/><polyline class="cls-17" points="929.48 504.66 929.48 515.64 917.04 528.08"/><polyline class="cls-17" points="939.43 504.66 939.43 520.62 917.04 543"/><polyline class="cls-17" points="917.04 504.66 917.04 554.4 920.56 554.4 949.38 525.59 949.38 504.66"/></g></svg>