<svg xmlns="http://www.w3.org/2000/svg" xmlns:xlink="http://www.w3.org/1999/xlink" viewBox="0 0 1080 1080"><defs><style>.cls-1{fill:none;}.cls-2{fill:#fff;}.cls-3{fill:#ffe725;}.cls-4{clip-path:url(#clip-path);}.cls-5{fill:#f5e12b;}</style><clipPath id="clip-path"><polygon class="cls-1" points="480.06 617.12 682.56 500.21 662.12 488.41 651.66 482.37 645.96 479.08 642.9 477.31 641.78 476.67 520.23 546.84 439.27 593.57 444.58 596.64 446.2 595.71 446.84 596.08 448.45 595.15 449.1 595.52 450.71 594.59 452.97 595.89 452.97 601.48 480.06 617.12"/></clipPath></defs><g id="Background"><rect class="cls-2" width="1080" height="1080"/></g><g id="Contentv"><path d="M540,53.35a165,165,0,0,0-165,165v808.31H705V218.34A165,165,0,0,0,540,53.35Z"/><path class="cls-2" d="M621.48,896.65l.11,1.94h-1l-.1-2a1,1,0,0,0-.37-.77,1.91,1.91,0,0,0-1.08-.25h-1.87v3h-1v-7.51h3a2.79,2.79,0,0,1,1.83.58,1.88,1.88,0,0,1,.69,1.5,2.2,2.2,0,0,1-.32,1.16,2.25,2.25,0,0,1-.89.81A1.54,1.54,0,0,1,621.48,896.65Zm-.93-3.41a1.17,1.17,0,0,0-.41-.94A1.74,1.74,0,0,0,619,892h-1.86v2.82H619a1.57,1.57,0,0,0,1.13-.43A1.48,1.48,0,0,0,620.55,893.24Z"/><path class="cls-2" d="M625.31,898a1.26,1.26,0,0,0,1.36-1.08l.88.17a1.91,1.91,0,0,1-.76,1.23,2.39,2.39,0,0,1-1.48.45,2.53,2.53,0,0,1-1.93-.72,3,3,0,0,1-.67-2.09,2.89,2.89,0,0,1,.7-2,2.41,2.41,0,0,1,1.88-.77,2.23,2.23,0,0,1,1.73.69,2.7,2.7,0,0,1,.63,1.89v.46h-4C623.73,897.35,624.27,898,625.31,898Zm0-4.09a1.46,1.46,0,0,0-1.07.4,1.91,1.91,0,0,0-.49,1.17h3C626.61,894.39,626.14,893.86,625.26,893.86Z"/><path class="cls-2" d="M631.09,897.91a1.41,1.41,0,0,0,1-.34,1.51,1.51,0,0,0,.44-1l.93.11a2.15,2.15,0,0,1-.74,1.45,2.4,2.4,0,0,1-1.6.54,2.38,2.38,0,0,1-1.86-.75,2.93,2.93,0,0,1-.67-2,3,3,0,0,1,.68-2.06,2.68,2.68,0,0,1,3.47-.25,2.22,2.22,0,0,1,.75,1.45l-1,.11a1.44,1.44,0,0,0-2.54-.73,2.84,2.84,0,0,0,0,2.94A1.38,1.38,0,0,0,631.09,897.91Z"/><path class="cls-2" d="M636.87,898a1.26,1.26,0,0,0,1.36-1.08l.88.17a1.91,1.91,0,0,1-.76,1.23,2.39,2.39,0,0,1-1.48.45,2.51,2.51,0,0,1-1.93-.72,3,3,0,0,1-.67-2.09,2.89,2.89,0,0,1,.7-2,2.41,2.41,0,0,1,1.88-.77,2.23,2.23,0,0,1,1.73.69,2.7,2.7,0,0,1,.63,1.89v.46h-4C635.29,897.35,635.83,898,636.87,898Zm0-4.09a1.46,1.46,0,0,0-1.07.4,1.91,1.91,0,0,0-.49,1.17h3C638.17,894.39,637.7,893.86,636.82,893.86Z"/><path class="cls-2" d="M643.15,893.1a2.22,2.22,0,0,1,1.75.76,2.93,2.93,0,0,1,.65,2,3.09,3.09,0,0,1-.65,2.07,2.17,2.17,0,0,1-1.75.78,2,2,0,0,1-1.73-.87v2.73h-1v-7.35h.94V894A2,2,0,0,1,643.15,893.1Zm1.42,2.81a2.29,2.29,0,0,0-.42-1.45,1.37,1.37,0,0,0-1.14-.54,1.46,1.46,0,0,0-1.18.54,2.27,2.27,0,0,0-.43,1.45,2.19,2.19,0,0,0,.44,1.44,1.46,1.46,0,0,0,1.17.55,1.37,1.37,0,0,0,1.14-.54A2.29,2.29,0,0,0,644.57,895.91Z"/><path class="cls-2" d="M646.12,894v-.79h1V891.5H648v1.73h1.35V894H648v3a.89.89,0,0,0,.15.59.67.67,0,0,0,.52.17h.81v.81h-1a1.51,1.51,0,0,1-1.1-.37,1.42,1.42,0,0,1-.37-1.07V894Z"/><path class="cls-2" d="M651.46,892.36h-1v-1.28h1Zm0,6.23h-1v-5.36h1Z"/><path class="cls-2" d="M652.7,895.91a2.93,2.93,0,0,1,.71-2,2.49,2.49,0,0,1,1.9-.77,2.52,2.52,0,0,1,1.91.77,2.86,2.86,0,0,1,.72,2,2.89,2.89,0,0,1-.72,2,2.49,2.49,0,0,1-1.91.77,2.45,2.45,0,0,1-1.9-.77A2.89,2.89,0,0,1,652.7,895.91Zm3.82,1.47a2.68,2.68,0,0,0,0-2.94,1.47,1.47,0,0,0-1.21-.53,1.45,1.45,0,0,0-1.2.53,2.28,2.28,0,0,0-.43,1.47,2.24,2.24,0,0,0,.43,1.47,1.46,1.46,0,0,0,1.2.54A1.48,1.48,0,0,0,656.52,897.38Z"/><path class="cls-2" d="M663.78,895.12v3.47h-.95v-3.3a1.43,1.43,0,0,0-.33-1,1.2,1.2,0,0,0-.94-.35,1.32,1.32,0,0,0-1.07.43,2,2,0,0,0-.36,1.27v3h-1v-5.36h.93v.68a1.9,1.9,0,0,1,1.68-.81,2,2,0,0,1,1.47.54A2,2,0,0,1,663.78,895.12Z"/><rect class="cls-2" x="652.18" y="871.89" width="1.91" height="1.91"/><path class="cls-2" d="M661.72,876.66v2.86H657v-.95a2.86,2.86,0,0,0-2.86-2.86h-1.91v1.9h1.91a1,1,0,0,1,.95,1v.95h-2.86v1.91h11.45v-4.77Z"/><polygon class="cls-2" points="657.9 885.24 659.81 885.24 659.81 887.15 661.72 887.15 661.72 885.24 661.72 883.34 657.9 883.34 657.9 885.24"/><path class="cls-2" d="M650.27,881.43v-4.77h-1.9v2.86H643.6v-1.91h-1.91v3.82a1.91,1.91,0,0,1-1.91,1.91v1.9a3.82,3.82,0,0,0,3.82-3.81Z"/><rect class="cls-2" x="646.46" y="883.34" width="3.81" height="1.91"/><polygon class="cls-2" points="635.02 870.94 633.11 870.94 633.11 872.85 631.2 872.85 631.2 874.75 635.02 874.75 635.02 870.94"/><path class="cls-2" d="M636.92,878.57a1,1,0,0,1-1.9,0v-1h-1.91v1a1,1,0,0,1-1,.95h-1.91v-1.91h-1.91v4.3a2.39,2.39,0,0,1-4.77,0v-2.39h-1.9v2.39a4.29,4.29,0,1,0,8.58,0v-.48h1.91a2.8,2.8,0,0,0,1.9-.74,2.85,2.85,0,0,0,4.77-2.12v-1.91h-1.91Z"/><path class="cls-2" d="M682.48,881.43h-5V880h1.68v-3.63a1.55,1.55,0,0,1-.85.21h-.84v-1.43h.78a.86.86,0,0,0,.72-.29,1.46,1.46,0,0,0,.23-.91h1.69V880h1.6Z"/><path class="cls-2" d="M640.23,936.19h-4.66v-7.51h1v6.62h3.63Z"/><path class="cls-2" d="M640.75,933.51a2.93,2.93,0,0,1,.71-2,2.47,2.47,0,0,1,1.9-.77,2.52,2.52,0,0,1,1.91.77,2.85,2.85,0,0,1,.71,2,2.88,2.88,0,0,1-.71,2,2.49,2.49,0,0,1-1.91.77,2.44,2.44,0,0,1-1.9-.77A2.89,2.89,0,0,1,640.75,933.51Zm3.82,1.47a2.68,2.68,0,0,0,0-2.94,1.47,1.47,0,0,0-1.21-.53,1.45,1.45,0,0,0-1.2.53,2.28,2.28,0,0,0-.43,1.47,2.24,2.24,0,0,0,.43,1.47,1.46,1.46,0,0,0,1.2.54A1.48,1.48,0,0,0,644.57,935Z"/><path class="cls-2" d="M649.91,930.7a2.22,2.22,0,0,1,1.75.76,3,3,0,0,1,.65,2,3.15,3.15,0,0,1-.65,2.07,2.17,2.17,0,0,1-1.75.78,2,2,0,0,1-1.76-.9v.77h-.93v-7.51h.95v2.92A2,2,0,0,1,649.91,930.7Zm1.42,2.81a2.29,2.29,0,0,0-.42-1.45,1.38,1.38,0,0,0-1.14-.54,1.46,1.46,0,0,0-1.18.54,2.28,2.28,0,0,0-.44,1.45,2.2,2.2,0,0,0,.45,1.44,1.45,1.45,0,0,0,1.17.55,1.38,1.38,0,0,0,1.14-.54A2.29,2.29,0,0,0,651.33,933.51Z"/><path class="cls-2" d="M656.25,930.7a2.18,2.18,0,0,1,1.74.76,2.93,2.93,0,0,1,.66,2,3.1,3.1,0,0,1-.66,2.07,2.17,2.17,0,0,1-1.74.78,2,2,0,0,1-1.76-.9v.77h-.93v-7.51h1v2.92A2,2,0,0,1,656.25,930.7Zm1.41,2.81a2.29,2.29,0,0,0-.42-1.45,1.36,1.36,0,0,0-1.13-.54,1.44,1.44,0,0,0-1.18.54,2.28,2.28,0,0,0-.44,1.45,2.2,2.2,0,0,0,.45,1.44,1.43,1.43,0,0,0,1.17.55,1.36,1.36,0,0,0,1.13-.54A2.29,2.29,0,0,0,657.66,933.51Z"/><path class="cls-2" d="M661.1,936.7l.17-.48-2.11-5.39h1l1.59,4.22,1.6-4.22h1l-2.34,6a2.39,2.39,0,0,1-.73,1.08,1.8,1.8,0,0,1-1.1.3h-.56v-.81h.56a1,1,0,0,0,.59-.15A1.12,1.12,0,0,0,661.1,936.7Z"/><path class="cls-2" d="M680.24,913.7a.85.85,0,0,0-.23-.62.87.87,0,0,0-.64-.22.94.94,0,0,0-.86.45,1.94,1.94,0,0,0-.19,1.26l-1.7-.24a2.67,2.67,0,0,1,.67-2.16,2.92,2.92,0,0,1,2.16-.78,2.61,2.61,0,0,1,1.85.63,2,2,0,0,1,.7,1.6,3.79,3.79,0,0,1-1.68,2.82L679,917.57h3.31V919h-5.66v-1.37l2.59-2.25a4.05,4.05,0,0,0,.8-.87A1.71,1.71,0,0,0,680.24,913.7Z"/><path class="cls-2" d="M680.5,954.28a.76.76,0,0,0-.28-.64,1.24,1.24,0,0,0-.79-.23h-.71v-1.27h.59a.94.94,0,0,0,.7-.23.87.87,0,0,0,.25-.66.76.76,0,0,0-.25-.6,1,1,0,0,0-.7-.21,1.12,1.12,0,0,0-.87.34,1.28,1.28,0,0,0-.33.94l-1.58-.33a2.19,2.19,0,0,1,.81-1.73,3.09,3.09,0,0,1,2.06-.67,2.92,2.92,0,0,1,1.89.57A1.77,1.77,0,0,1,682,951a1.89,1.89,0,0,1-.24,1,1.87,1.87,0,0,1-.72.67,1.69,1.69,0,0,1,1.21,1.74,2.15,2.15,0,0,1-.77,1.72,3.08,3.08,0,0,1-2.06.65,3.55,3.55,0,0,1-2.2-.65,2.12,2.12,0,0,1-.86-1.76l1.76-.24a1.15,1.15,0,0,0,.33.89,1.33,1.33,0,0,0,.95.31,1.16,1.16,0,0,0,.82-.27A1,1,0,0,0,680.5,954.28Z"/><rect class="cls-2" x="652.18" y="920.94" width="1.91" height="1.91"/><polygon class="cls-2" points="661.72 908.54 661.72 917.12 659.81 917.12 659.81 908.54 657.9 908.54 657.9 919.03 663.63 919.03 663.63 908.54 661.72 908.54"/><path class="cls-2" d="M654.09,917.12h-9.54V919h3.82v1.91h-3.82a1.91,1.91,0,0,1-1.9-1.91v-1.91h-1.91V919a3.82,3.82,0,0,0,3.81,3.81h5.72V919H656v-4.77h-1.91Z"/><path class="cls-2" d="M438,936.19h-1l-2.21-7.51h1.05l1.7,6,1.72-6h1l1.73,6,1.68-6h1l-2.21,7.51h-1l-1.76-5.92Z"/><path class="cls-2" d="M449.85,935.4h.25v.79h-.52a1.14,1.14,0,0,1-.7-.2.72.72,0,0,1-.32-.56,1.88,1.88,0,0,1-1.7.89,2,2,0,0,1-1.35-.43,1.42,1.42,0,0,1-.51-1.13,1.5,1.5,0,0,1,.41-1.1,2.17,2.17,0,0,1,1.2-.56l1.57-.26a.37.37,0,0,0,.34-.39.9.9,0,0,0-.32-.71,1.29,1.29,0,0,0-.86-.28,1.33,1.33,0,0,0-.86.25,1.22,1.22,0,0,0-.44.75l-.91-.11a1.9,1.9,0,0,1,.73-1.2,2.49,2.49,0,0,1,1.52-.45,2.12,2.12,0,0,1,1.51.51,1.78,1.78,0,0,1,.56,1.37V935a.45.45,0,0,0,.09.32A.43.43,0,0,0,449.85,935.4Zm-3.91-.71a.8.8,0,0,0,.27.64,1.17,1.17,0,0,0,.76.23,1.43,1.43,0,0,0,1.12-.49,1.84,1.84,0,0,0,.44-1.26v-.31l-1.72.3a1.1,1.1,0,0,0-.65.3A.8.8,0,0,0,445.94,934.69Z"/><path class="cls-2" d="M452,936.19h-1v-5.36H452v1a1.65,1.65,0,0,1,1.53-1h.42v.9h-.43a1.26,1.26,0,0,0-1.09.59,2.68,2.68,0,0,0-.41,1.59Z"/><path class="cls-2" d="M457.05,935.55a1.26,1.26,0,0,0,1.36-1.09l.88.18a1.91,1.91,0,0,1-.76,1.23,2.41,2.41,0,0,1-1.48.45,2.51,2.51,0,0,1-1.93-.72,3,3,0,0,1-.67-2.09,2.89,2.89,0,0,1,.7-2,2.41,2.41,0,0,1,1.88-.77,2.19,2.19,0,0,1,1.72.69,2.7,2.7,0,0,1,.63,1.89v.46h-4C455.47,934.94,456,935.55,457.05,935.55Zm-.05-4.09a1.5,1.5,0,0,0-1.08.4,2,2,0,0,0-.49,1.17h3C458.35,932,457.88,931.46,457,931.46Z"/><path class="cls-2" d="M465.25,932.72v3.47h-.95v-3.3a1.43,1.43,0,0,0-.33-1,1.2,1.2,0,0,0-.94-.35A1.31,1.31,0,0,0,462,932a2,2,0,0,0-.37,1.27v3h-.95v-7.51h.95v2.8a1.89,1.89,0,0,1,1.65-.78,2,2,0,0,1,1.48.54A2,2,0,0,1,465.25,932.72Z"/><path class="cls-2" d="M466.43,933.51a2.88,2.88,0,0,1,.71-2,2.46,2.46,0,0,1,1.9-.77,2.5,2.5,0,0,1,1.9.77,2.86,2.86,0,0,1,.72,2,2.89,2.89,0,0,1-.72,2,2.47,2.47,0,0,1-1.9.77,2.42,2.42,0,0,1-1.9-.77A2.85,2.85,0,0,1,466.43,933.51Zm3.82,1.47a2.68,2.68,0,0,0,0-2.94,1.48,1.48,0,0,0-1.21-.53,1.45,1.45,0,0,0-1.2.53,2.7,2.7,0,0,0,0,2.94,1.46,1.46,0,0,0,1.21.54A1.49,1.49,0,0,0,470.25,935Z"/><path class="cls-2" d="M476.38,930.83h.95v5.36h-.93v-.65a1.81,1.81,0,0,1-1.61.78,1.91,1.91,0,0,1-1.43-.54,2,2,0,0,1-.53-1.47v-3.48h1v3.32a1.43,1.43,0,0,0,.31,1,1.15,1.15,0,0,0,.9.36,1.26,1.26,0,0,0,1-.44,2,2,0,0,0,.35-1.27Z"/><path class="cls-2" d="M480.83,936.32a2.62,2.62,0,0,1-1.66-.47,1.72,1.72,0,0,1-.67-1.3l.95-.14a1.33,1.33,0,0,0,.41.88,1.44,1.44,0,0,0,1,.28,1.33,1.33,0,0,0,.84-.23.79.79,0,0,0,.29-.68c0-.43-.31-.68-.94-.77l-.77-.12a2.18,2.18,0,0,1-1.18-.51,1.33,1.33,0,0,1-.4-1,1.36,1.36,0,0,1,.55-1.12,2.3,2.3,0,0,1,1.47-.43,2.27,2.27,0,0,1,1.46.43,1.8,1.8,0,0,1,.68,1.22l-.88.13a1.34,1.34,0,0,0-.43-.79,1.31,1.31,0,0,0-.84-.24,1.36,1.36,0,0,0-.8.21.64.64,0,0,0-.28.54.61.61,0,0,0,.19.49,1.19,1.19,0,0,0,.64.25l.86.14c1.08.18,1.63.69,1.63,1.54a1.54,1.54,0,0,1-.56,1.24A2.35,2.35,0,0,1,480.83,936.32Z"/><path class="cls-2" d="M486.39,935.55a1.27,1.27,0,0,0,1.37-1.09l.88.18a2,2,0,0,1-.76,1.23,2.42,2.42,0,0,1-1.49.45,2.5,2.5,0,0,1-1.92-.72,3,3,0,0,1-.67-2.09,2.93,2.93,0,0,1,.69-2,2.43,2.43,0,0,1,1.88-.77,2.22,2.22,0,0,1,1.73.69,2.7,2.7,0,0,1,.63,1.89v.46h-4C484.81,934.94,485.36,935.55,486.39,935.55Zm0-4.09a1.5,1.5,0,0,0-1.08.4,1.91,1.91,0,0,0-.49,1.17h3C487.69,932,487.23,931.46,486.35,931.46Z"/><path class="cls-2" d="M504.25,917.41h-3.69v-1.32l3.15-4.57H506V916h1v1.46h-1V919h-1.72Zm0-4.24L502.33,916h1.92Z"/><path class="cls-2" d="M413.87,973.79h-3.59v-7.51h3.38a2.32,2.32,0,0,1,1.6.52,1.69,1.69,0,0,1,.6,1.34,1.87,1.87,0,0,1-.26,1,2.09,2.09,0,0,1-.71.74,2,2,0,0,1,1,.68,1.71,1.71,0,0,1,.36,1.08,2,2,0,0,1-.67,1.57A2.44,2.44,0,0,1,413.87,973.79Zm.94-5.54a1,1,0,0,0-.32-.82,1.3,1.3,0,0,0-.91-.3h-2.26v2.4h2.24a1.21,1.21,0,0,0,.91-.35A1.29,1.29,0,0,0,414.81,968.25Zm.39,3.36a1.14,1.14,0,0,0-.39-.9,1.57,1.57,0,0,0-1-.34h-2.45v2.57h2.47a1.43,1.43,0,0,0,1-.35A1.32,1.32,0,0,0,415.2,971.61Z"/><path class="cls-2" d="M422,973h.26v.79h-.52a1.24,1.24,0,0,1-.71-.2.75.75,0,0,1-.32-.56,1.85,1.85,0,0,1-1.69.89,2.05,2.05,0,0,1-1.36-.43,1.43,1.43,0,0,1-.51-1.13,1.49,1.49,0,0,1,.42-1.1,2.17,2.17,0,0,1,1.2-.56l1.57-.27a.36.36,0,0,0,.33-.38.89.89,0,0,0-.31-.71,1.24,1.24,0,0,0-.86-.28,1.36,1.36,0,0,0-.87.25,1.27,1.27,0,0,0-.44.75l-.9-.11a1.82,1.82,0,0,1,.73-1.2,2.46,2.46,0,0,1,1.51-.45,2.15,2.15,0,0,1,1.52.51,1.77,1.77,0,0,1,.55,1.37v2.41a.45.45,0,0,0,.09.32A.43.43,0,0,0,422,973Zm-3.91-.71a.79.79,0,0,0,.28.64,1.15,1.15,0,0,0,.76.23,1.41,1.41,0,0,0,1.11-.49,1.79,1.79,0,0,0,.44-1.26v-.31l-1.72.3a1,1,0,0,0-.64.3A.81.81,0,0,0,418.12,972.29Z"/><path class="cls-2" d="M422.59,969.21v-.78h.94V966.7h1v1.73h1.35v.78h-1.35v3a.89.89,0,0,0,.15.59.67.67,0,0,0,.52.17H426v.81h-1a1.47,1.47,0,0,1-1.09-.37,1.42,1.42,0,0,1-.38-1.07v-3.14Z"/><path class="cls-2" d="M427.92,967.56H427v-1.28h.95Zm0,6.23H427v-5.36h.95Z"/><path class="cls-2" d="M434.21,968.43l-2.11,2,2.28,3.36h-1.14l-1.82-2.72-1,.89v1.83h-.95v-7.51h.95v4.53l2.49-2.38Z"/><path class="cls-2" d="M440.29,973.92a3.32,3.32,0,0,1-2.15-.65,2.26,2.26,0,0,1-.82-1.79l1-.13a1.75,1.75,0,0,0,.54,1.28,2.07,2.07,0,0,0,1.42.44,1.78,1.78,0,0,0,1.17-.36,1.23,1.23,0,0,0,.42-1,1,1,0,0,0-.3-.77,2.17,2.17,0,0,0-1-.43l-1-.22a2.89,2.89,0,0,1-1.51-.73,1.89,1.89,0,0,1-.49-1.36,1.87,1.87,0,0,1,.69-1.46,2.71,2.71,0,0,1,1.83-.6,2.91,2.91,0,0,1,1.88.57,2.29,2.29,0,0,1,.81,1.6l-1,.13a1.5,1.5,0,0,0-1.67-1.46,1.72,1.72,0,0,0-1.12.33,1.2,1.2,0,0,0-.11,1.66,1.92,1.92,0,0,0,.94.42l1.17.25a2.89,2.89,0,0,1,1.48.71,1.78,1.78,0,0,1,.48,1.31,2.06,2.06,0,0,1-.72,1.61A2.79,2.79,0,0,1,440.29,973.92Z"/><path class="cls-2" d="M448.83,970.31v3.48h-1v-3.3a1.41,1.41,0,0,0-.32-1,1.21,1.21,0,0,0-.94-.36,1.32,1.32,0,0,0-1.07.44,1.89,1.89,0,0,0-.37,1.27v3h-.95v-7.51h.95v2.8a1.89,1.89,0,0,1,1.65-.78,2,2,0,0,1,1.47.54A2,2,0,0,1,448.83,970.31Z"/><path class="cls-2" d="M450,971.11a2.92,2.92,0,0,1,.7-2,2.74,2.74,0,0,1,3.81,0,2.86,2.86,0,0,1,.72,2,2.89,2.89,0,0,1-.72,2,2.74,2.74,0,0,1-3.81,0A2.91,2.91,0,0,1,450,971.11Zm3.81,1.47a2.68,2.68,0,0,0,0-2.94,1.46,1.46,0,0,0-1.21-.54,1.44,1.44,0,0,0-1.19.54,2.28,2.28,0,0,0-.44,1.47,2.24,2.24,0,0,0,.43,1.47,1.61,1.61,0,0,0,2.41,0Z"/><path class="cls-2" d="M458.48,973.79h-1l-1.71-5.36h1l1.26,4.09,1.22-4.09h.91l1.22,4.08,1.24-4.08h.95l-1.72,5.36h-.94l-1.24-4Z"/><path class="cls-2" d="M465.54,973.79h-1v-5.36h.94v1a1.64,1.64,0,0,1,1.53-1h.41v.9H467a1.26,1.26,0,0,0-1.09.59,2.68,2.68,0,0,0-.41,1.59Z"/><path class="cls-2" d="M468,971.11a2.92,2.92,0,0,1,.7-2,2.74,2.74,0,0,1,3.81,0,2.86,2.86,0,0,1,.72,2,2.89,2.89,0,0,1-.72,2,2.74,2.74,0,0,1-3.81,0A2.91,2.91,0,0,1,468,971.11Zm3.82,1.47a2.68,2.68,0,0,0,0-2.94,1.49,1.49,0,0,0-1.21-.54,1.46,1.46,0,0,0-1.2.54,2.7,2.7,0,0,0,0,2.94,1.46,1.46,0,0,0,1.21.54A1.49,1.49,0,0,0,471.81,972.58Z"/><path class="cls-2" d="M474.11,971.11a2.93,2.93,0,0,1,.71-2,2.47,2.47,0,0,1,1.9-.77,2.54,2.54,0,0,1,1.91.77,2.89,2.89,0,0,1,.71,2,2.93,2.93,0,0,1-.71,2,2.54,2.54,0,0,1-1.91.77,2.47,2.47,0,0,1-1.9-.77A2.91,2.91,0,0,1,474.11,971.11Zm3.82,1.47a2.68,2.68,0,0,0,0-2.94,1.48,1.48,0,0,0-1.21-.54,1.46,1.46,0,0,0-1.2.54,2.28,2.28,0,0,0-.44,1.47,2.24,2.24,0,0,0,.44,1.47,1.46,1.46,0,0,0,1.2.54A1.48,1.48,0,0,0,477.93,972.58Z"/><path class="cls-2" d="M485,970.83v3H484v-3.3a1.52,1.52,0,0,0-.3-1,1.1,1.1,0,0,0-.87-.36,1.18,1.18,0,0,0-1,.44,2,2,0,0,0-.35,1.27v3h-.95v-5.36h.93v.65a1.8,1.8,0,0,1,1.58-.78,2,2,0,0,1,1,.25,1.54,1.54,0,0,1,.66.72,1.81,1.81,0,0,1,1.73-1,1.92,1.92,0,0,1,1.44.54,2,2,0,0,1,.52,1.47v3.48h-.95v-3.3a1.47,1.47,0,0,0-.31-1,1.07,1.07,0,0,0-.86-.36,1.2,1.2,0,0,0-1,.44A2,2,0,0,0,485,970.83Z"/><path class="cls-2" d="M504.53,951.78a2.58,2.58,0,0,1,1.83.63,2.29,2.29,0,0,1,.67,1.71,2.49,2.49,0,0,1-.78,1.92,3,3,0,0,1-2.13.72,3.54,3.54,0,0,1-2-.55,2.11,2.11,0,0,1-1-1.47l1.74-.27a1.09,1.09,0,0,0,.41.67,1.35,1.35,0,0,0,.82.24,1.13,1.13,0,0,0,.86-.31,1.2,1.2,0,0,0,.3-.88,1.05,1.05,0,0,0-.28-.8,1.14,1.14,0,0,0-.83-.28,1.89,1.89,0,0,0-1.38.59l-1.26-.6.6-4h4.32v1.46h-3l-.25,1.57A2.66,2.66,0,0,1,504.53,951.78Z"/><rect class="cls-2" x="478.77" y="910.45" width="1.91" height="1.88"/><rect class="cls-2" x="470.19" y="920.94" width="1.91" height="1.88"/><path class="cls-2" d="M482.59,917.12h-3.84a.93.93,0,0,1-.93-.93v-1h-1.91v1a.93.93,0,0,1-.93.93h-8.61v-8.58h-1.9V919H475a2.83,2.83,0,0,1,3.77,0h5.74v-4.75h-1.9Z"/><rect class="cls-2" x="486.4" y="908.54" width="1.91" height="10.49"/><path class="cls-2" d="M460.65,919a1.91,1.91,0,0,1-1.91,1.91v1.9a3.82,3.82,0,0,0,3.82-3.81v-3.82h-1.91Z"/><path class="cls-2" d="M456.84,956.63a1.91,1.91,0,0,1-1.91,1.9v1.91a3.82,3.82,0,0,0,3.81-3.81v-3.82h-1.9Z"/><polygon class="cls-2" points="484.49 946.13 482.58 946.13 482.58 948.04 480.68 948.04 480.68 949.95 484.49 949.95 484.49 946.13"/><path class="cls-2" d="M486.4,951.86v1.9a1,1,0,1,1-1.91,0v-1h-1.9v1a1,1,0,0,1-1,1h-1.91v-1.91h-1.9v1.91H467.33a1,1,0,0,1-1-1h0a2.86,2.86,0,0,0-5.66-.6,2.93,2.93,0,0,0,.58,2.41,2.87,2.87,0,0,0,2.22,1.06,3,3,0,0,0,1-.17v.17a1.91,1.91,0,0,1-1.91,1.9h-.95v1.91h.95a3.82,3.82,0,0,0,3.81-3.81v-.17a2.85,2.85,0,0,0,1,.17h14.3a2.83,2.83,0,0,1,3.82,0,2.87,2.87,0,0,0,2.86-2.87v-1.9Zm-22.89,2.86a1,1,0,0,1-.74-.35,1,1,0,0,1-.19-.82,1,1,0,0,1,.72-.72l.21,0a1,1,0,0,1,1,1h0A1,1,0,0,1,463.51,954.72Z"/><path class="cls-2" d="M451.12,950.9a2.87,2.87,0,1,0,0,5.73,3,3,0,0,0,.95-.17v.17a1.91,1.91,0,0,1-1.91,1.9h-1v1.91h1a3.82,3.82,0,0,0,3.82-3.81v-2.87A2.87,2.87,0,0,0,451.12,950.9Zm0,3.82a1,1,0,1,1,.95-1A1,1,0,0,1,451.12,954.72Z"/><path class="cls-2" d="M444.44,950.9a2.86,2.86,0,0,0-2.54,4.17,3.82,3.82,0,0,0-2.23,3.46v2.86h1.91v-2.86a1.9,1.9,0,0,1,1.91-1.9h.95a2.87,2.87,0,0,0,0-5.73Zm0,3.82a1,1,0,1,1,.95-1A1,1,0,0,1,444.44,954.72Z"/><rect class="cls-2" x="433" y="958.53" width="1.91" height="1.91"/><polygon class="cls-2" points="433 954.72 428.23 954.72 428.23 946.13 426.32 946.13 426.32 956.63 434.9 956.63 434.9 951.86 433 951.86 433 954.72"/><path class="cls-2" d="M422.51,954.72h-3.82a1,1,0,0,1-.95-1v-1h-1.91v1a1,1,0,0,1-.95,1h-3.82v-1a2.87,2.87,0,0,0-2.86-2.86h-2.94l3.62-3.61-1.35-1.35-5,5v1.82h5.72a1,1,0,0,1,1,1v1H397.71v1.91h17.17a2.85,2.85,0,0,0,1.91-.74,2.8,2.8,0,0,0,1.9.74h5.72v-4.77h-1.9Z"/><rect class="cls-2" x="420.6" y="948.04" width="3.81" height="1.91"/><rect class="cls-2" x="412.02" y="958.53" width="3.81" height="1.91"/><path class="cls-2" d="M599.61,685.81l.11,1.94h-1l-.11-2a.94.94,0,0,0-.37-.77,1.83,1.83,0,0,0-1.08-.25h-1.87v3h-1v-7.51h3a2.79,2.79,0,0,1,1.83.58,1.88,1.88,0,0,1,.69,1.5,2.2,2.2,0,0,1-.32,1.16,2.25,2.25,0,0,1-.89.81A1.54,1.54,0,0,1,599.61,685.81Zm-.93-3.41a1.17,1.17,0,0,0-.41-.94,1.74,1.74,0,0,0-1.14-.35h-1.86v2.81h1.85a1.56,1.56,0,0,0,1.13-.42A1.48,1.48,0,0,0,598.68,682.4Z"/><path class="cls-2" d="M604.66,682.39h1v5.36h-.93v-.65a1.81,1.81,0,0,1-1.61.78,1.91,1.91,0,0,1-1.43-.54,2,2,0,0,1-.53-1.47v-3.48h1v3.32a1.39,1.39,0,0,0,.32,1,1.11,1.11,0,0,0,.89.36,1.26,1.26,0,0,0,1-.44,2,2,0,0,0,.35-1.27Z"/><path class="cls-2" d="M609.21,687.43a2.18,2.18,0,0,1-1.7-.7,2.66,2.66,0,0,1-.62-1.87,2.74,2.74,0,0,1,.63-1.88,2.13,2.13,0,0,1,1.69-.72,2,2,0,0,1,1.66.78v-.65h.93v5.12a2.34,2.34,0,0,1-.63,1.73,2.42,2.42,0,0,1-1.76.62,2.71,2.71,0,0,1-1.69-.48,1.83,1.83,0,0,1-.72-1.32l1-.09a1.29,1.29,0,0,0,.46.84,1.7,1.7,0,0,0,1,.26,1.33,1.33,0,0,0,1.07-.41,1.77,1.77,0,0,0,.37-1.21v-.83A1.94,1.94,0,0,1,609.21,687.43Zm-.93-3.89a2.33,2.33,0,0,0,0,2.61,1.37,1.37,0,0,0,1.11.47,1.34,1.34,0,0,0,1.07-.49,2,2,0,0,0,.41-1.28,1.92,1.92,0,0,0-.42-1.28,1.3,1.3,0,0,0-1.06-.51A1.35,1.35,0,0,0,608.28,683.54Z"/><path class="cls-2" d="M618.25,687.75h-1l-2.21-7.51h1.06l1.7,6,1.72-6h1l1.72,6,1.69-6h1l-2.21,7.51h-1L620,681.83Z"/><path class="cls-2" d="M625.27,685.07a2.93,2.93,0,0,1,.71-2,2.47,2.47,0,0,1,1.9-.77,2.52,2.52,0,0,1,1.91.77,2.89,2.89,0,0,1,.71,2,2.93,2.93,0,0,1-.71,2,2.49,2.49,0,0,1-1.91.77,2.44,2.44,0,0,1-1.9-.77A2.89,2.89,0,0,1,625.27,685.07Zm3.82,1.47a2.68,2.68,0,0,0,0-2.94,1.48,1.48,0,0,0-1.21-.54,1.46,1.46,0,0,0-1.2.54,2.28,2.28,0,0,0-.43,1.47,2.24,2.24,0,0,0,.43,1.47,1.46,1.46,0,0,0,1.2.54A1.48,1.48,0,0,0,629.09,686.54Z"/><path class="cls-2" d="M632.69,687.75h-1v-5.36h.93v1a1.66,1.66,0,0,1,1.54-1h.41v.9h-.42a1.28,1.28,0,0,0-1.1.59,2.75,2.75,0,0,0-.41,1.59Z"/><path class="cls-2" d="M640.32,682.39l-2.11,2,2.28,3.35h-1.14L637.53,685l-1,.89v1.83h-1v-7.51h1v4.53l2.49-2.38Z"/><path class="cls-2" d="M643.07,687.88a2.62,2.62,0,0,1-1.66-.47,1.76,1.76,0,0,1-.67-1.3l1-.14a1.32,1.32,0,0,0,.4.88,1.46,1.46,0,0,0,1,.28,1.39,1.39,0,0,0,.85-.23.82.82,0,0,0,.29-.68c0-.43-.32-.68-1-.77l-.77-.12a2.12,2.12,0,0,1-1.17-.51,1.33,1.33,0,0,1-.41-1,1.36,1.36,0,0,1,.55-1.12,2.73,2.73,0,0,1,2.94,0,1.88,1.88,0,0,1,.68,1.22l-.88.13a1.4,1.4,0,0,0-.44-.79,1.59,1.59,0,0,0-1.63,0,.62.62,0,0,0-.29.54.59.59,0,0,0,.2.49,1.15,1.15,0,0,0,.63.25l.86.14c1.09.18,1.63.69,1.63,1.54a1.54,1.54,0,0,1-.56,1.24A2.31,2.31,0,0,1,643.07,687.88Z"/><path class="cls-2" d="M651,684.27v3.48h-1v-3.3a1.43,1.43,0,0,0-.33-1,1.19,1.19,0,0,0-.94-.35,1.3,1.3,0,0,0-1.06.43,1.89,1.89,0,0,0-.37,1.27v3h-1v-7.51h1V683a1.87,1.87,0,0,1,1.65-.78,1.85,1.85,0,0,1,2,2Z"/><path class="cls-2" d="M652.17,685.07a2.93,2.93,0,0,1,.71-2,2.47,2.47,0,0,1,1.9-.77,2.52,2.52,0,0,1,1.91.77,2.86,2.86,0,0,1,.72,2,2.89,2.89,0,0,1-.72,2,2.49,2.49,0,0,1-1.91.77,2.44,2.44,0,0,1-1.9-.77A2.89,2.89,0,0,1,652.17,685.07Zm3.82,1.47a2.68,2.68,0,0,0,0-2.94,1.48,1.48,0,0,0-1.21-.54,1.46,1.46,0,0,0-1.2.54,2.28,2.28,0,0,0-.43,1.47,2.24,2.24,0,0,0,.43,1.47,1.46,1.46,0,0,0,1.2.54A1.48,1.48,0,0,0,656,686.54Z"/><path class="cls-2" d="M661.33,682.26a2.22,2.22,0,0,1,1.75.76,3,3,0,0,1,.65,2,3.15,3.15,0,0,1-.65,2.07,2.17,2.17,0,0,1-1.75.78,2.05,2.05,0,0,1-1.74-.87v2.73h-1v-7.35h.93v.81A2,2,0,0,1,661.33,682.26Zm1.42,2.81a2.29,2.29,0,0,0-.42-1.45,1.37,1.37,0,0,0-1.14-.54,1.46,1.46,0,0,0-1.18.54,2.28,2.28,0,0,0-.44,1.45,2.2,2.2,0,0,0,.45,1.44,1.46,1.46,0,0,0,1.17.55,1.37,1.37,0,0,0,1.14-.54A2.29,2.29,0,0,0,662.75,685.07Z"/><path class="cls-2" d="M679.7,665.72a2.58,2.58,0,0,1,1.84.65,2.25,2.25,0,0,1,.7,1.73,2.51,2.51,0,0,1-.78,1.89,2.94,2.94,0,0,1-2,.73,2.8,2.8,0,0,1-2.31-1,4.29,4.29,0,0,1-.79-2.8,4.65,4.65,0,0,1,.82-2.94,2.73,2.73,0,0,1,2.29-1.06,2.83,2.83,0,0,1,1.79.54,2.34,2.34,0,0,1,.86,1.54l-1.7.16a1.19,1.19,0,0,0-.34-.64,1,1,0,0,0-.65-.21,1.13,1.13,0,0,0-1,.53,3.12,3.12,0,0,0-.41,1.55,2.21,2.21,0,0,1,.76-.51A2.28,2.28,0,0,1,679.7,665.72Zm-1.53,2.5a1.19,1.19,0,0,0,.34.85,1.15,1.15,0,0,0,.86.34,1.11,1.11,0,0,0,.84-.34,1.2,1.2,0,0,0,.32-.85,1.21,1.21,0,0,0-.3-.87,1.15,1.15,0,0,0-.86-.31,1.2,1.2,0,0,0-.88.31A1.18,1.18,0,0,0,678.17,668.22Z"/><path class="cls-2" d="M461.75,684a4,4,0,0,1-1,2.82,3.3,3.3,0,0,1-2.58,1.06,3.33,3.33,0,0,1-2.59-1.06,4.62,4.62,0,0,1,0-5.64,3.69,3.69,0,0,1,5.18,0A3.94,3.94,0,0,1,461.75,684Zm-5.4-2.19a3.91,3.91,0,0,0,0,4.38,2.52,2.52,0,0,0,3.68,0,3.35,3.35,0,0,0,.67-2.19,3.31,3.31,0,0,0-.67-2.19,2.52,2.52,0,0,0-3.68,0Z"/><path class="cls-2" d="M464.43,683.18v4.57h-1v-4.57h-1v-.79h1V682a1.82,1.82,0,0,1,.44-1.29,1.66,1.66,0,0,1,1.25-.45h.78v.8h-.71a.73.73,0,0,0-.6.24,1.21,1.21,0,0,0-.2.76v.35h1.34v.79Z"/><path class="cls-2" d="M468.05,683.18v4.57h-.95v-4.57h-1v-.79h1V682a1.81,1.81,0,0,1,.43-1.29,1.68,1.68,0,0,1,1.25-.45h.68v.8h-.6a.74.74,0,0,0-.61.24,1.21,1.21,0,0,0-.2.76v.35h1.35v.79Zm3.24-1.66h-1v-1.28h1Zm0,6.23h-1v-5.36h1Z"/><path class="cls-2" d="M475.06,687.07a1.4,1.4,0,0,0,1-.34,1.46,1.46,0,0,0,.44-1l.93.11a2.11,2.11,0,0,1-.74,1.45,2.65,2.65,0,0,1-3.45-.21,3.41,3.41,0,0,1,0-4.1,2.37,2.37,0,0,1,1.84-.77,2.5,2.5,0,0,1,1.63.51,2.25,2.25,0,0,1,.75,1.46l-1,.11a1.31,1.31,0,0,0-1.41-1.26,1.35,1.35,0,0,0-1.13.52,2.42,2.42,0,0,0-.4,1.49,2.35,2.35,0,0,0,.4,1.46A1.38,1.38,0,0,0,475.06,687.07Z"/><path class="cls-2" d="M480.85,687.11a1.27,1.27,0,0,0,1.36-1.09l.88.18a2,2,0,0,1-.76,1.23,2.41,2.41,0,0,1-1.48.45,2.51,2.51,0,0,1-1.93-.72,3,3,0,0,1-.67-2.09,2.93,2.93,0,0,1,.69-2,2.44,2.44,0,0,1,1.88-.77,2.22,2.22,0,0,1,1.73.69,2.7,2.7,0,0,1,.63,1.89v.46h-4C479.26,686.5,479.81,687.11,480.85,687.11ZM480.8,683a1.5,1.5,0,0,0-1.08.4,1.91,1.91,0,0,0-.49,1.17h3C482.14,683.55,481.68,683,480.8,683Z"/><path class="cls-2" d="M486.34,687.88a2.61,2.61,0,0,1-1.65-.47,1.72,1.72,0,0,1-.67-1.3l1-.14a1.33,1.33,0,0,0,.41.88,1.43,1.43,0,0,0,1,.28,1.35,1.35,0,0,0,.85-.23.82.82,0,0,0,.29-.68c0-.43-.31-.68-.94-.77l-.77-.12a2.15,2.15,0,0,1-1.18-.51,1.33,1.33,0,0,1-.4-1,1.36,1.36,0,0,1,.55-1.12,2.71,2.71,0,0,1,2.93,0,1.84,1.84,0,0,1,.68,1.22l-.88.13a1.39,1.39,0,0,0-.43-.79,1.61,1.61,0,0,0-1.64,0,.65.65,0,0,0-.29.54.62.62,0,0,0,.2.49,1.16,1.16,0,0,0,.64.25l.86.14c1.08.18,1.62.69,1.62,1.54a1.51,1.51,0,0,1-.56,1.24A2.31,2.31,0,0,1,486.34,687.88Z"/><path class="cls-2" d="M505,664.58h-3.4v-1.5h5.54v1.2a8,8,0,0,0-1.79,2.45,7.36,7.36,0,0,0-.46,2.84v1h-1.73v-1a7.76,7.76,0,0,1,.44-2.76A6.57,6.57,0,0,1,505,664.58Z"/><path class="cls-2" d="M472.1,670.59a1.92,1.92,0,0,1-1.91,1.91v1.9a3.82,3.82,0,0,0,3.81-3.81v-3.82h-1.9Z"/><rect class="cls-2" x="486.4" y="660.1" width="1.91" height="10.49"/><rect class="cls-2" x="475.91" y="660.1" width="1.91" height="10.49"/><path class="cls-2" d="M481.63,664.87h-1.91v1.9h1.91a1,1,0,0,1,1,1v.95h-2.87v1.91h4.77v-2.86A2.86,2.86,0,0,0,481.63,664.87Z"/><path class="cls-2" d="M463.51,667.73v2.86h2.86v1.91h-2.86a1.91,1.91,0,0,1-1.9-1.91v-1.91H459.7v1.91a3.82,3.82,0,0,0,3.81,3.81h4.77v-5.72h-2.86v-.95a1,1,0,0,1,.95-1h1.91v-1.9h-1.91A2.87,2.87,0,0,0,463.51,667.73Z"/><path class="cls-2" d="M681.11,350.49a1.82,1.82,0,0,1,1.26,1.86,1.94,1.94,0,0,1-.84,1.63,3.48,3.48,0,0,1-2.19.63,3.54,3.54,0,0,1-2.19-.62,2,2,0,0,1-.82-1.64,1.91,1.91,0,0,1,.33-1.11,2.2,2.2,0,0,1,1-.74,1.66,1.66,0,0,1-1-1.65,1.74,1.74,0,0,1,.75-1.45,3.29,3.29,0,0,1,2-.56,3.34,3.34,0,0,1,2,.56,1.75,1.75,0,0,1,.76,1.45A1.64,1.64,0,0,1,681.11,350.49Zm-.46,1.74a.93.93,0,0,0-.35-.78,1.72,1.72,0,0,0-1.91,0,1,1,0,0,0-.34.78,1,1,0,0,0,.34.8,1.42,1.42,0,0,0,1,.29,1.5,1.5,0,0,0,1-.29A1,1,0,0,0,680.65,352.23ZM678.3,349a.82.82,0,0,0,.28.65,1.09,1.09,0,0,0,.76.26,1.17,1.17,0,0,0,.78-.26.84.84,0,0,0,.29-.65.83.83,0,0,0-.29-.67,1.23,1.23,0,0,0-.78-.23,1.17,1.17,0,0,0-.76.23A.82.82,0,0,0,678.3,349Z"/><path class="cls-2" d="M585.84,402.52l-4.31,5.85H586v.87H580.3v-.8l4.31-5.84h-4.18v-.87h5.41Z"/><path class="cls-2" d="M589.23,408.6a1.27,1.27,0,0,0,1.36-1.09l.88.17a2,2,0,0,1-.76,1.24,2.41,2.41,0,0,1-1.48.45,2.48,2.48,0,0,1-1.93-.73,3.46,3.46,0,0,1,0-4.12,2.42,2.42,0,0,1,1.88-.78,2.22,2.22,0,0,1,1.73.7,2.69,2.69,0,0,1,.63,1.88v.46h-4C587.64,408,588.19,408.6,589.23,408.6Zm-.05-4.09a1.46,1.46,0,0,0-1.08.4,1.86,1.86,0,0,0-.49,1.17h3C590.52,405,590.06,404.51,589.18,404.51Z"/><path class="cls-2" d="M595.07,408.6a1.27,1.27,0,0,0,1.36-1.09l.88.17a2,2,0,0,1-.75,1.24,2.8,2.8,0,0,1-3.41-.28,2.94,2.94,0,0,1-.68-2.08,2.89,2.89,0,0,1,.7-2,2.39,2.39,0,0,1,1.88-.78,2.24,2.24,0,0,1,1.73.7,2.69,2.69,0,0,1,.63,1.88v.46h-4C593.49,408,594,408.6,595.07,408.6Zm-.05-4.09a1.42,1.42,0,0,0-1.07.4,1.86,1.86,0,0,0-.49,1.17h3C596.37,405,595.9,404.51,595,404.51Z"/><path class="cls-2" d="M600.92,408.6a1.27,1.27,0,0,0,1.36-1.09l.88.17a2,2,0,0,1-.76,1.24,2.41,2.41,0,0,1-1.48.45,2.48,2.48,0,0,1-1.93-.73,3.46,3.46,0,0,1,0-4.12,2.42,2.42,0,0,1,1.89-.78,2.21,2.21,0,0,1,1.72.7,2.69,2.69,0,0,1,.63,1.88v.46h-4C599.33,408,599.88,408.6,600.92,408.6Zm0-4.09a1.46,1.46,0,0,0-1.08.4,1.92,1.92,0,0,0-.49,1.17h3C602.22,405,601.75,404.51,600.87,404.51Z"/><path class="cls-2" d="M609.12,405.76v3.48h-1v-3.31a1.4,1.4,0,0,0-.33-1,1.21,1.21,0,0,0-.94-.36,1.32,1.32,0,0,0-1.07.44,1.89,1.89,0,0,0-.37,1.27v3h-1v-5.36h.93v.67a1.89,1.89,0,0,1,1.67-.81,2,2,0,0,1,1.47.55A2,2,0,0,1,609.12,405.76Z"/><path class="cls-2" d="M615.74,409.37a3.3,3.3,0,0,1-2.15-.65,2.26,2.26,0,0,1-.82-1.8l1-.13a1.74,1.74,0,0,0,.54,1.29,2.12,2.12,0,0,0,1.42.44,1.73,1.73,0,0,0,1.16-.36,1.21,1.21,0,0,0,.43-1,1,1,0,0,0-.3-.77,2.22,2.22,0,0,0-1-.43l-1-.22a2.9,2.9,0,0,1-1.52-.74,2,2,0,0,1,.21-2.81,2.65,2.65,0,0,1,1.82-.61,2.87,2.87,0,0,1,1.89.58,2.27,2.27,0,0,1,.81,1.6l-1,.13a1.51,1.51,0,0,0-1.68-1.46,1.75,1.75,0,0,0-1.11.32,1.22,1.22,0,0,0-.11,1.67,1.92,1.92,0,0,0,.94.42l1.16.25a2.88,2.88,0,0,1,1.49.7,1.82,1.82,0,0,1,.48,1.32,2.08,2.08,0,0,1-.72,1.61A2.79,2.79,0,0,1,615.74,409.37Z"/><path class="cls-2" d="M624.28,405.76v3.48h-1v-3.31a1.45,1.45,0,0,0-.32-1,1.22,1.22,0,0,0-.94-.36A1.32,1.32,0,0,0,621,405a1.89,1.89,0,0,0-.37,1.27v3h-1v-7.51h1v2.8a1.88,1.88,0,0,1,1.65-.79,2,2,0,0,1,1.47.55A2,2,0,0,1,624.28,405.76Z"/><path class="cls-2" d="M625.46,406.56a2.89,2.89,0,0,1,.7-2,2.46,2.46,0,0,1,1.9-.78,2.49,2.49,0,0,1,1.91.78,2.86,2.86,0,0,1,.72,2,2.91,2.91,0,0,1-.72,2,2.52,2.52,0,0,1-1.91.77,2.49,2.49,0,0,1-1.9-.77A2.92,2.92,0,0,1,625.46,406.56Zm3.81,1.47a2.68,2.68,0,0,0,0-2.94,1.61,1.61,0,0,0-2.41,0,2.73,2.73,0,0,0,0,2.94,1.45,1.45,0,0,0,1.2.53A1.48,1.48,0,0,0,629.27,408Z"/><path class="cls-2" d="M633.93,409.24H633l-1.71-5.36h1L633.5,408l1.22-4.09h.91l1.22,4.08,1.24-4.08H639l-1.72,5.36h-.94l-1.24-4Z"/><path class="cls-2" d="M641,409.24h-1v-5.36H641v1a1.66,1.66,0,0,1,1.54-1h.41v.9h-.42a1.27,1.27,0,0,0-1.1.59A2.75,2.75,0,0,0,641,407Z"/><path class="cls-2" d="M643.44,406.56a2.89,2.89,0,0,1,.7-2,2.72,2.72,0,0,1,3.81,0,2.86,2.86,0,0,1,.72,2,2.91,2.91,0,0,1-.72,2,2.74,2.74,0,0,1-3.81,0A2.92,2.92,0,0,1,643.44,406.56Zm3.81,1.47a2.68,2.68,0,0,0,0-2.94,1.46,1.46,0,0,0-1.21-.54,1.44,1.44,0,0,0-1.19.54,2.7,2.7,0,0,0,0,2.94,1.45,1.45,0,0,0,1.2.53A1.48,1.48,0,0,0,647.25,408Z"/><path class="cls-2" d="M649.56,406.56a2.89,2.89,0,0,1,.71-2,2.44,2.44,0,0,1,1.9-.78,2.47,2.47,0,0,1,1.9.78,2.86,2.86,0,0,1,.72,2,2.91,2.91,0,0,1-.72,2,2.5,2.5,0,0,1-1.9.77,2.47,2.47,0,0,1-1.9-.77A2.93,2.93,0,0,1,649.56,406.56Zm3.82,1.47a2.68,2.68,0,0,0,0-2.94,1.49,1.49,0,0,0-1.21-.54,1.46,1.46,0,0,0-1.2.54,2.68,2.68,0,0,0,0,2.94,1.42,1.42,0,0,0,1.2.53A1.51,1.51,0,0,0,653.38,408Z"/><path class="cls-2" d="M660.44,406.28v3h-1v-3.31a1.46,1.46,0,0,0-.31-1,1.06,1.06,0,0,0-.86-.36,1.21,1.21,0,0,0-1,.44,2.07,2.07,0,0,0-.34,1.27v3h-1v-5.36H657v.65a1.81,1.81,0,0,1,1.58-.79,2.08,2.08,0,0,1,1,.25,1.64,1.64,0,0,1,.66.72,1.83,1.83,0,0,1,1.73-1,1.92,1.92,0,0,1,1.44.55,2,2,0,0,1,.52,1.47v3.48H663v-3.31a1.51,1.51,0,0,0-.31-1,1.1,1.1,0,0,0-.87-.36,1.19,1.19,0,0,0-1,.44A2,2,0,0,0,660.44,406.28Z"/><path class="cls-2" d="M679,389.43a2.6,2.6,0,0,1-1.85-.64,2.29,2.29,0,0,1-.69-1.73,2.42,2.42,0,0,1,.78-1.88,2.8,2.8,0,0,1,2-.74,2.83,2.83,0,0,1,2.31,1,4.32,4.32,0,0,1,.79,2.8,4.68,4.68,0,0,1-.82,2.95,2.74,2.74,0,0,1-2.29,1.05,2.83,2.83,0,0,1-1.79-.54,2.37,2.37,0,0,1-.85-1.54l1.69-.16a1.07,1.07,0,0,0,.35.64.94.94,0,0,0,.65.21,1.13,1.13,0,0,0,1-.53,3.13,3.13,0,0,0,.4-1.55,2.28,2.28,0,0,1-.76.52A2.39,2.39,0,0,1,679,389.43Zm1.52-2.49a1.15,1.15,0,0,0-1.19-1.19,1.14,1.14,0,0,0-.84.33,1.32,1.32,0,0,0,0,1.72,1.13,1.13,0,0,0,.86.31,1.09,1.09,0,0,0,1.19-1.17Z"/><path class="cls-2" d="M608.92,352.09a3.35,3.35,0,0,0-3.34-3.34H603.2v1.91h2.38a1.43,1.43,0,0,1,1.43,1.43v.48h-6.67a1,1,0,0,1-1-1v-.95h-1.9v.95a1,1,0,0,1-1,1h-2.86v-1a2.87,2.87,0,0,0-2.87-2.86h-1.9v1.91h1.9a1,1,0,0,1,1,.95v1h-2.86v1.91h7.63a2.83,2.83,0,0,1,3.82,0h10.49v-1.91h-1.91Z"/><path class="cls-2" d="M585.07,354.48a1.9,1.9,0,0,1-1.9,1.9v1.91a3.82,3.82,0,0,0,3.81-3.81v-3.82h-1.91Z"/><rect class="cls-2" x="593.66" y="356.38" width="3.81" height="1.91"/><polygon class="cls-2" points="580.31 352.57 576.5 352.57 576.5 343.99 574.59 343.99 574.59 352.57 574.59 352.57 574.59 354.48 582.22 354.48 582.22 349.71 580.31 349.71 580.31 352.57"/><rect class="cls-2" x="576.49" y="356.38" width="3.81" height="1.91"/><rect class="cls-2" x="566.96" y="352.57" width="1.91" height="1.91"/><path class="cls-2" d="M570.78,354.48a2.86,2.86,0,1,1-5.72,0v-1.91h-1.91v1.91a4.77,4.77,0,0,0,9.53,0v-3.82h-1.9Z"/><path class="cls-2" d="M632.29,354.48a1.91,1.91,0,0,1-1.91,1.9v1.91a3.82,3.82,0,0,0,3.81-3.81v-3.82h-1.9Z"/><polygon class="cls-2" points="659.94 343.99 658.03 343.99 658.03 345.89 656.13 345.89 656.13 347.8 659.94 347.8 659.94 343.99"/><path class="cls-2" d="M661.85,349.71v1.9a1,1,0,1,1-1.91,0v-.95H658v.95a1,1,0,0,1-.95,1h-1.91v-1.91h-1.9v1.91H642.78a1,1,0,0,1-1-1h0a2.86,2.86,0,1,0-5.08,1.81,2.87,2.87,0,0,0,2.22,1.06,2.91,2.91,0,0,0,.95-.17v.17a1.9,1.9,0,0,1-1.9,1.9h-1v1.91h1a3.82,3.82,0,0,0,3.81-3.81v-.17a2.77,2.77,0,0,0,1,.17h14.3a2.85,2.85,0,0,0,1.91-.74,2.8,2.8,0,0,0,1.9.74,2.87,2.87,0,0,0,2.86-2.87v-1.9ZM639,352.57a.93.93,0,0,1-.74-.36,1,1,0,0,1-.19-.81,1,1,0,0,1,.71-.72l.22,0a1,1,0,0,1,.6.21,1,1,0,0,1,.35.74h0A1,1,0,0,1,639,352.57Z"/><path class="cls-2" d="M626.56,348.75a2.87,2.87,0,0,0,0,5.73,3,3,0,0,0,1-.17v.17a1.91,1.91,0,0,1-1.91,1.9h-1v1.91h1a3.82,3.82,0,0,0,3.81-3.81v-2.87A2.87,2.87,0,0,0,626.56,348.75Zm0,3.82a1,1,0,1,1,1-1A1,1,0,0,1,626.56,352.57Z"/><path class="cls-2" d="M619.41,348.75a2.86,2.86,0,0,0-2.54,4.17,3.82,3.82,0,0,0-2.23,3.46v2.86h1.91v-2.86a1.91,1.91,0,0,1,1.91-1.9h.95a2.87,2.87,0,0,0,0-5.73Zm0,3.82a1,1,0,1,1,1-1A1,1,0,0,1,619.41,352.57Z"/><path class="cls-2" d="M566.29,371.64h-1v-7.51h1v3.24h3.77v-3.24h1v7.51h-1v-3.38h-3.77Z"/><path class="cls-2" d="M575,371a1.27,1.27,0,0,0,1.36-1.09l.88.17a1.93,1.93,0,0,1-.76,1.24,2.39,2.39,0,0,1-1.48.45A2.48,2.48,0,0,1,573,371a3,3,0,0,1-.67-2.08,2.89,2.89,0,0,1,.7-2,2.38,2.38,0,0,1,1.88-.77,2.23,2.23,0,0,1,1.73.69,2.69,2.69,0,0,1,.63,1.88v.46h-4C573.38,370.39,573.92,371,575,371Zm-.05-4.09a1.42,1.42,0,0,0-1.07.4,1.86,1.86,0,0,0-.49,1.17h3C576.26,367.43,575.79,366.91,574.91,366.91Z"/><path class="cls-2" d="M579.46,365.41h-1v-1.28h1Zm0,6.23h-1v-5.36h1Z"/><path class="cls-2" d="M583.07,371.77a2.21,2.21,0,0,1-1.75-.75,3,3,0,0,1-.65-2,3.1,3.1,0,0,1,.66-2.07,2.17,2.17,0,0,1,1.74-.78,2,2,0,0,1,1.73.87v-2.89h1v7.51h-.93v-.81A2,2,0,0,1,583.07,371.77ZM581.65,369a2.28,2.28,0,0,0,.42,1.44,1.36,1.36,0,0,0,1.13.54,1.44,1.44,0,0,0,1.18-.54,2.18,2.18,0,0,0,.45-1.44,2.22,2.22,0,0,0-.45-1.45,1.47,1.47,0,0,0-1.18-.55,1.36,1.36,0,0,0-1.13.54A2.34,2.34,0,0,0,581.65,369Z"/><path class="cls-2" d="M591.77,370.84H592v.8h-.52a1.18,1.18,0,0,1-.7-.2.74.74,0,0,1-.32-.56,1.9,1.9,0,0,1-1.7.89,2,2,0,0,1-1.35-.44,1.41,1.41,0,0,1-.52-1.12,1.49,1.49,0,0,1,.42-1.1,2.11,2.11,0,0,1,1.2-.56l1.57-.27a.36.36,0,0,0,.33-.38.89.89,0,0,0-.31-.71,1.24,1.24,0,0,0-.86-.28,1.39,1.39,0,0,0-.86.24,1.28,1.28,0,0,0-.44.76l-.91-.11a1.86,1.86,0,0,1,.73-1.2,2.47,2.47,0,0,1,1.52-.45,2.12,2.12,0,0,1,1.51.51,1.78,1.78,0,0,1,.56,1.37v2.41a.41.41,0,0,0,.09.31A.41.41,0,0,0,591.77,370.84Zm-3.9-.7a.81.81,0,0,0,.27.64,1.15,1.15,0,0,0,.76.23,1.46,1.46,0,0,0,1.12-.49,1.84,1.84,0,0,0,.43-1.26V369l-1.71.3a1.09,1.09,0,0,0-.65.29A.84.84,0,0,0,587.87,370.14Z"/><path class="cls-2" d="M593.88,371.64h-1v-5.36h.93v1a1.66,1.66,0,0,1,1.54-1h.41v.9h-.42a1.27,1.27,0,0,0-1.1.59,2.75,2.75,0,0,0-.41,1.59Z"/><path class="cls-2" d="M597.72,365.41h-1v-1.28h1Zm0,6.23h-1v-5.36h1Z"/><path class="cls-2" d="M603.74,370.84H604v.8h-.52a1.24,1.24,0,0,1-.71-.2.77.77,0,0,1-.32-.56,1.89,1.89,0,0,1-1.7.89,2,2,0,0,1-1.35-.44,1.4,1.4,0,0,1-.51-1.12,1.49,1.49,0,0,1,.42-1.1,2.11,2.11,0,0,1,1.2-.56l1.56-.27a.36.36,0,0,0,.34-.38.92.92,0,0,0-.31-.71,1.24,1.24,0,0,0-.86-.28,1.43,1.43,0,0,0-.87.24,1.33,1.33,0,0,0-.44.76l-.9-.11a1.82,1.82,0,0,1,.73-1.2,2.46,2.46,0,0,1,1.51-.45,2.15,2.15,0,0,1,1.52.51,1.77,1.77,0,0,1,.55,1.37v2.41a.41.41,0,0,0,.09.31A.43.43,0,0,0,603.74,370.84Zm-3.91-.7a.81.81,0,0,0,.27.64,1.19,1.19,0,0,0,.76.23,1.45,1.45,0,0,0,1.12-.49,1.84,1.84,0,0,0,.44-1.26V369l-1.72.3a1.06,1.06,0,0,0-.64.29A.85.85,0,0,0,599.83,370.14Z"/><path class="cls-2" d="M609.51,368.16v3.48h-1v-3.31a1.45,1.45,0,0,0-.32-1,1.22,1.22,0,0,0-.94-.36,1.32,1.32,0,0,0-1.07.44,1.89,1.89,0,0,0-.37,1.27v3h-1v-5.36h.93V367a1.87,1.87,0,0,1,1.67-.8,1.86,1.86,0,0,1,2,2Z"/><path class="cls-2" d="M616,371.77a3.32,3.32,0,0,1-2.15-.65,2.26,2.26,0,0,1-.82-1.79l1-.14a1.76,1.76,0,0,0,.54,1.29,2.12,2.12,0,0,0,1.42.44,1.78,1.78,0,0,0,1.17-.36,1.23,1.23,0,0,0,.42-1,1,1,0,0,0-.3-.77,2.17,2.17,0,0,0-1-.43l-1-.22a2.82,2.82,0,0,1-1.51-.74,2,2,0,0,1,.2-2.81,2.66,2.66,0,0,1,1.83-.61,2.91,2.91,0,0,1,1.88.58,2.27,2.27,0,0,1,.81,1.6l-1,.13a1.5,1.5,0,0,0-1.67-1.46,1.78,1.78,0,0,0-1.12.32,1.09,1.09,0,0,0-.39.88,1.08,1.08,0,0,0,.28.79,1.92,1.92,0,0,0,.94.42l1.17.25a3,3,0,0,1,1.48.7,1.82,1.82,0,0,1,.48,1.32,2.06,2.06,0,0,1-.72,1.61A2.79,2.79,0,0,1,616,371.77Z"/><path class="cls-2" d="M624.54,368.16v3.48h-1v-3.31a1.4,1.4,0,0,0-.33-1,1.19,1.19,0,0,0-.94-.36,1.31,1.31,0,0,0-1.06.44,1.89,1.89,0,0,0-.37,1.27v3h-1v-7.51h1v2.8a1.87,1.87,0,0,1,1.65-.78,1.86,1.86,0,0,1,2,2Z"/><path class="cls-2" d="M625.67,369a2.89,2.89,0,0,1,.71-2,2.44,2.44,0,0,1,1.9-.77,2.5,2.5,0,0,1,1.91.77,2.89,2.89,0,0,1,.71,2,2.93,2.93,0,0,1-.71,2,2.54,2.54,0,0,1-1.91.77,2.47,2.47,0,0,1-1.9-.77A2.93,2.93,0,0,1,625.67,369Zm3.82,1.47a2.68,2.68,0,0,0,0-2.94,1.48,1.48,0,0,0-1.21-.54,1.46,1.46,0,0,0-1.2.54,2.73,2.73,0,0,0,0,2.94,1.45,1.45,0,0,0,1.2.53A1.47,1.47,0,0,0,629.49,370.43Z"/><path class="cls-2" d="M634.1,371.64h-1l-1.71-5.36h1l1.25,4.09,1.22-4.09h.91l1.22,4.08,1.24-4.08h1l-1.72,5.36h-.94l-1.24-4Z"/><path class="cls-2" d="M641.11,371.64h-1v-5.36h.93v1a1.66,1.66,0,0,1,1.54-1H643v.9h-.42a1.27,1.27,0,0,0-1.1.59,2.75,2.75,0,0,0-.41,1.59Z"/><path class="cls-2" d="M643.52,369a2.89,2.89,0,0,1,.71-2,2.45,2.45,0,0,1,1.9-.77,2.49,2.49,0,0,1,1.91.77,2.86,2.86,0,0,1,.72,2,2.89,2.89,0,0,1-.72,2,2.52,2.52,0,0,1-1.91.77,2.49,2.49,0,0,1-1.9-.77A2.93,2.93,0,0,1,643.52,369Zm3.82,1.47a2.68,2.68,0,0,0,0-2.94,1.61,1.61,0,0,0-2.41,0,2.73,2.73,0,0,0,0,2.94,1.63,1.63,0,0,0,2.41,0Z"/><path class="cls-2" d="M649.6,369a2.89,2.89,0,0,1,.71-2,2.45,2.45,0,0,1,1.9-.77,2.49,2.49,0,0,1,1.91.77,2.86,2.86,0,0,1,.72,2,2.89,2.89,0,0,1-.72,2,2.52,2.52,0,0,1-1.91.77,2.49,2.49,0,0,1-1.9-.77A2.93,2.93,0,0,1,649.6,369Zm3.82,1.47a2.68,2.68,0,0,0,0-2.94,1.61,1.61,0,0,0-2.41,0,2.73,2.73,0,0,0,0,2.94,1.63,1.63,0,0,0,2.41,0Z"/><path class="cls-2" d="M660.44,368.68v3h-1v-3.31a1.46,1.46,0,0,0-.31-1,1.06,1.06,0,0,0-.86-.36,1.18,1.18,0,0,0-1,.44,2,2,0,0,0-.35,1.27v3h-1v-5.36H657v.65a1.8,1.8,0,0,1,1.58-.78,2.08,2.08,0,0,1,1,.24,1.64,1.64,0,0,1,.66.72,1.82,1.82,0,0,1,1.73-1,1.92,1.92,0,0,1,1.44.54,2,2,0,0,1,.52,1.47v3.48H663v-3.31a1.46,1.46,0,0,0-.31-1,1.07,1.07,0,0,0-.86-.36,1.2,1.2,0,0,0-1,.44A2,2,0,0,0,660.44,368.68Z"/><path class="cls-2" d="M608.92,392.07A1.9,1.9,0,0,1,607,394v1.91a3.82,3.82,0,0,0,3.82-3.82v-3.81h-1.91Z"/><rect class="cls-2" x="608.92" y="384.45" width="1.91" height="1.91"/><path class="cls-2" d="M604.15,390.17h-3.81a1,1,0,0,1-1-1v-.95h-1.9v.95a1,1,0,0,1-1,1h-2.86a1,1,0,0,1-.95-1v-.95H590.8v.95a1,1,0,0,1-.95,1H586v1.9h3.82a2.84,2.84,0,0,0,1.91-.73,2.79,2.79,0,0,0,1.9.73h2.86a2.86,2.86,0,0,1,3.82,0h5.72v-4.76h-1.91Z"/><rect class="cls-2" x="599.38" y="393.98" width="3.81" height="1.91"/><rect class="cls-2" x="593.19" y="393.98" width="3.81" height="1.91"/><rect class="cls-2" x="586.51" y="393.98" width="3.81" height="1.91"/><rect class="cls-2" x="580.31" y="390.17" width="1.91" height="1.91"/><path class="cls-2" d="M584.12,392.08a2.86,2.86,0,0,1-5.72,0v-1.91h-1.9v1.91a4.77,4.77,0,0,0,9.53,0v-3.82h-1.91Z"/><path class="cls-2" d="M632.29,392.07a1.91,1.91,0,0,1-1.91,1.91v1.91a3.82,3.82,0,0,0,3.81-3.82v-3.81h-1.9Z"/><polygon class="cls-2" points="659.94 381.58 658.03 381.58 658.03 383.49 656.13 383.49 656.13 385.4 659.94 385.4 659.94 381.58"/><path class="cls-2" d="M661.85,387.31v1.9a1,1,0,1,1-1.91,0v-.95H658v.95a1,1,0,0,1-.95,1h-1.91v-1.91h-1.9v1.91H642.78a1,1,0,0,1-1-1h0a2.84,2.84,0,0,0-1.06-2.22,2.86,2.86,0,1,0-1.8,5.08,2.91,2.91,0,0,0,.95-.16v.16A1.9,1.9,0,0,1,638,394h-1v1.91h1a3.82,3.82,0,0,0,3.81-3.82v-.16a2.76,2.76,0,0,0,1,.16h14.3a2.89,2.89,0,0,0,1.91-.73,2.85,2.85,0,0,0,4.76-2.13v-1.9ZM639,390.17a.93.93,0,0,1-.74-.36,1,1,0,0,1,.52-1.53l.22,0a1,1,0,0,1,.6.21.92.92,0,0,1,.35.74h0A1,1,0,0,1,639,390.17Z"/><path class="cls-2" d="M626.56,386.35a2.86,2.86,0,1,0,0,5.72,3,3,0,0,0,1-.16v.16a1.91,1.91,0,0,1-1.91,1.91h-1v1.91h1a3.82,3.82,0,0,0,3.81-3.82v-2.86A2.87,2.87,0,0,0,626.56,386.35Zm0,3.82a1,1,0,1,1,1-1A1,1,0,0,1,626.56,390.17Z"/><path class="cls-2" d="M619.41,386.35a2.86,2.86,0,0,0-2.54,4.17,3.82,3.82,0,0,0-2.23,3.46v2.86h1.91V394a1.92,1.92,0,0,1,1.91-1.91h.95a2.86,2.86,0,1,0,0-5.72Zm0,3.82a1,1,0,1,1,1-1A1,1,0,0,1,619.41,390.17Z"/><path class="cls-2" d="M675.51,429.67h-5v-1.46h1.67v-3.62a1.62,1.62,0,0,1-.85.2h-.83v-1.42h.77a.89.89,0,0,0,.72-.29,1.43,1.43,0,0,0,.23-.92h1.69v6h1.6Z"/><path class="cls-2" d="M676.13,425.92a4.51,4.51,0,0,1,.81-2.85,3.07,3.07,0,0,1,4.58,0,5.34,5.34,0,0,1,0,5.7,2.71,2.71,0,0,1-2.28,1,2.75,2.75,0,0,1-2.29-1A4.51,4.51,0,0,1,676.13,425.92Zm4.47,0a3.81,3.81,0,0,0-.35-1.82,1.15,1.15,0,0,0-2,0,5,5,0,0,0,0,3.62,1.1,1.1,0,0,0,1,.61C680.14,428.34,680.6,427.53,680.6,425.92Z"/><path class="cls-2" d="M632.28,429.67a1.91,1.91,0,0,1-1.9,1.91v1.91a3.82,3.82,0,0,0,3.81-3.82v-3.81h-1.91Z"/><polygon class="cls-2" points="659.94 419.18 658.03 419.18 658.03 421.09 656.13 421.09 656.13 423 659.94 423 659.94 419.18"/><path class="cls-2" d="M661.85,424.91v1.9a1,1,0,1,1-1.91,0v-.95H658v.95a1,1,0,0,1-.95,1h-1.91v-1.91h-1.91v1.91H642.77a1,1,0,0,1-.95-1h0a2.84,2.84,0,0,0-1.06-2.22,2.86,2.86,0,1,0-1.8,5.08,2.91,2.91,0,0,0,.95-.16v.16a1.91,1.91,0,0,1-1.9,1.91h-1v1.91h1a3.82,3.82,0,0,0,3.81-3.82v-.16a2.75,2.75,0,0,0,.95.16h14.31a2.89,2.89,0,0,0,1.91-.73,2.85,2.85,0,0,0,4.76-2.13v-1.9ZM639,427.77a.93.93,0,0,1-.74-.36,1,1,0,0,1,.52-1.53l.22,0a.94.94,0,0,1,.6.21.92.92,0,0,1,.35.74h0A1,1,0,0,1,639,427.77Z"/><path class="cls-2" d="M626.56,424a2.86,2.86,0,1,0,0,5.72,3,3,0,0,0,1-.16v.16a1.92,1.92,0,0,1-1.91,1.91h-1v1.91h1a3.82,3.82,0,0,0,3.81-3.82v-2.86A2.86,2.86,0,0,0,626.56,424Zm0,3.82a1,1,0,1,1,1-1A1,1,0,0,1,626.56,427.77Z"/><path class="cls-2" d="M619.89,424a2.87,2.87,0,0,0-2.55,4.17,3.8,3.8,0,0,0-2.22,3.46v2.86H617v-2.86a1.91,1.91,0,0,1,1.9-1.91h1a2.86,2.86,0,0,0,0-5.72Zm0,3.82a1,1,0,1,1,1-1A1,1,0,0,1,619.89,427.77Z"/><rect class="cls-2" x="608.44" y="431.58" width="1.91" height="1.91"/><polygon class="cls-2" points="608.44 427.77 603.68 427.77 603.68 419.18 601.77 419.18 601.77 429.67 610.35 429.67 610.35 424.9 608.44 424.9 608.44 427.77"/><path class="cls-2" d="M598,427.77h-3.81a1,1,0,0,1-.95-1v-.95h-1.91v.95a1,1,0,0,1-.95,1h-3.82v-1a2.86,2.86,0,0,0-2.86-2.86h-2.94l3.61-3.62L583,419l-5.05,5v1.83h5.72a1,1,0,0,1,1,.95v1H573.16v1.9h17.17a2.84,2.84,0,0,0,1.9-.73,2.89,2.89,0,0,0,1.91.73h5.72v-4.76H598Z"/><rect class="cls-2" x="596.05" y="421.09" width="3.81" height="1.91"/><rect class="cls-2" x="587.46" y="431.58" width="3.81" height="1.91"/><path class="cls-2" d="M589.31,446.84h-3.58v-7.51h3.38a2.34,2.34,0,0,1,1.6.52,1.68,1.68,0,0,1,.6,1.34,1.93,1.93,0,0,1-.26,1,2.12,2.12,0,0,1-.71.75,2,2,0,0,1,1,.67,1.71,1.71,0,0,1,.37,1.09,2,2,0,0,1-.67,1.57A2.45,2.45,0,0,1,589.31,446.84Zm1-5.55a1.08,1.08,0,0,0-.32-.82,1.29,1.29,0,0,0-.91-.29h-2.27v2.4H589a1.24,1.24,0,0,0,.91-.35A1.29,1.29,0,0,0,590.26,441.29Zm.38,3.37a1.14,1.14,0,0,0-.38-.9,1.52,1.52,0,0,0-1-.34h-2.46V446h2.48a1.49,1.49,0,0,0,1-.35A1.33,1.33,0,0,0,590.64,444.66Z"/><path class="cls-2" d="M597.48,446h.26v.8h-.52a1.22,1.22,0,0,1-.71-.2.77.77,0,0,1-.32-.56,1.89,1.89,0,0,1-1.7.89,2,2,0,0,1-1.35-.44,1.42,1.42,0,0,1-.51-1.13,1.49,1.49,0,0,1,.42-1.09,2,2,0,0,1,1.2-.56l1.56-.27a.36.36,0,0,0,.34-.39.91.91,0,0,0-.32-.71,1.24,1.24,0,0,0-.85-.27,1.41,1.41,0,0,0-.87.24,1.27,1.27,0,0,0-.44.75l-.9-.1a1.78,1.78,0,0,1,.73-1.2,2.46,2.46,0,0,1,1.51-.46,2.11,2.11,0,0,1,1.52.52,1.75,1.75,0,0,1,.55,1.36v2.42a.33.33,0,0,0,.4.4Zm-3.91-.71a.78.78,0,0,0,.27.64,1.13,1.13,0,0,0,.76.23,1.41,1.41,0,0,0,1.12-.49,1.81,1.81,0,0,0,.44-1.26v-.3l-1.72.29a1.2,1.2,0,0,0-.65.3A.86.86,0,0,0,593.57,445.33Z"/><path class="cls-2" d="M598,442.26v-.79h1v-1.72h.95v1.72h1.35v.79h-1.35v3a.89.89,0,0,0,.15.59.67.67,0,0,0,.52.17h.81v.82h-1a1.55,1.55,0,0,1-1.1-.37,1.46,1.46,0,0,1-.37-1.08v-3.13Z"/><path class="cls-2" d="M603.37,440.6h-1v-1.27h1Zm0,6.24h-1v-5.37h1Z"/><path class="cls-2" d="M609.66,441.47l-2.11,2,2.28,3.36h-1.14l-1.82-2.73-1,.89v1.84H605v-7.51h.95v4.53l2.49-2.39Z"/><path class="cls-2" d="M615.74,447a3.25,3.25,0,0,1-2.15-.66,2.24,2.24,0,0,1-.82-1.79l1-.13a1.72,1.72,0,0,0,.54,1.29,2.12,2.12,0,0,0,1.42.44,1.73,1.73,0,0,0,1.16-.36,1.22,1.22,0,0,0,.43-1,1,1,0,0,0-.3-.77,2.21,2.21,0,0,0-1-.44l-1-.21a3,3,0,0,1-1.52-.74,2,2,0,0,1,.21-2.82,2.7,2.7,0,0,1,1.82-.6,2.87,2.87,0,0,1,1.89.58,2.27,2.27,0,0,1,.81,1.6l-1,.13a1.51,1.51,0,0,0-1.68-1.46,1.73,1.73,0,0,0-1.11.32,1.1,1.1,0,0,0-.4.88,1.06,1.06,0,0,0,.29.78,1.79,1.79,0,0,0,.94.43l1.16.25a2.88,2.88,0,0,1,1.49.7,1.82,1.82,0,0,1,.48,1.32,2,2,0,0,1-.72,1.6A2.77,2.77,0,0,1,615.74,447Z"/><path class="cls-2" d="M624.28,443.36v3.48h-1v-3.31a1.49,1.49,0,0,0-.32-1,1.25,1.25,0,0,0-.94-.35,1.32,1.32,0,0,0-1.07.44,1.89,1.89,0,0,0-.37,1.27v3h-1v-7.51h1v2.8a1.88,1.88,0,0,1,1.65-.79,1.92,1.92,0,0,1,1.47.55A2,2,0,0,1,624.28,443.36Z"/><path class="cls-2" d="M625.45,444.16a2.89,2.89,0,0,1,.71-2,2.46,2.46,0,0,1,1.9-.78,2.49,2.49,0,0,1,1.91.78,3.24,3.24,0,0,1,0,4.07,2.49,2.49,0,0,1-1.91.78,2.46,2.46,0,0,1-1.9-.78A2.89,2.89,0,0,1,625.45,444.16Zm3.82,1.47a2.22,2.22,0,0,0,.44-1.47,2.19,2.19,0,0,0-.44-1.47,1.61,1.61,0,0,0-2.41,0,2.24,2.24,0,0,0-.43,1.47,2.28,2.28,0,0,0,.43,1.47,1.63,1.63,0,0,0,2.41,0Z"/><path class="cls-2" d="M633.93,446.84H633l-1.71-5.37h1l1.26,4.1,1.22-4.1h.91l1.22,4.09,1.24-4.09H639l-1.72,5.37h-.94l-1.24-4Z"/><path class="cls-2" d="M641,446.84h-1v-5.37H641v1a1.67,1.67,0,0,1,1.54-1h.41v.91h-.42a1.28,1.28,0,0,0-1.1.58,2.8,2.8,0,0,0-.41,1.59Z"/><path class="cls-2" d="M643.44,444.16a2.89,2.89,0,0,1,.7-2,2.72,2.72,0,0,1,3.81,0,3.24,3.24,0,0,1,0,4.07,2.72,2.72,0,0,1-3.81,0A2.88,2.88,0,0,1,643.44,444.16Zm3.81,1.47a2.22,2.22,0,0,0,.44-1.47,2.19,2.19,0,0,0-.44-1.47,1.61,1.61,0,0,0-2.41,0,2.73,2.73,0,0,0,0,2.94,1.63,1.63,0,0,0,2.41,0Z"/><path class="cls-2" d="M649.56,444.16a2.85,2.85,0,0,1,.71-2,2.43,2.43,0,0,1,1.9-.78,2.47,2.47,0,0,1,1.9.78,3.24,3.24,0,0,1,0,4.07,2.47,2.47,0,0,1-1.9.78,2.43,2.43,0,0,1-1.9-.78A2.84,2.84,0,0,1,649.56,444.16Zm3.82,1.47a2.28,2.28,0,0,0,.44-1.47,2.24,2.24,0,0,0-.44-1.47,1.49,1.49,0,0,0-1.21-.54,1.46,1.46,0,0,0-1.2.54,2.24,2.24,0,0,0-.44,1.47,2.28,2.28,0,0,0,.44,1.47,1.45,1.45,0,0,0,1.2.53A1.51,1.51,0,0,0,653.38,445.63Z"/><path class="cls-2" d="M660.44,443.88v3h-1v-3.31a1.44,1.44,0,0,0-.31-1,1.06,1.06,0,0,0-.86-.36,1.21,1.21,0,0,0-1,.44,2.07,2.07,0,0,0-.34,1.27v3h-1v-5.37H657v.66a1.81,1.81,0,0,1,1.58-.79,2.08,2.08,0,0,1,1,.25,1.64,1.64,0,0,1,.66.72,1.83,1.83,0,0,1,1.73-1,1.88,1.88,0,0,1,1.44.55,2,2,0,0,1,.52,1.47v3.48H663v-3.31a1.49,1.49,0,0,0-.31-1,1.1,1.1,0,0,0-.87-.36,1.18,1.18,0,0,0-1,.44A2,2,0,0,0,660.44,443.88Z"/><path class="cls-2" d="M457.22,369.87H454l-.7,1.84H452.2l2.91-7.51h1l2.88,7.51h-1.13Zm-2.94-.86h2.62l-1.29-3.5Z"/><path class="cls-2" d="M461,371.71H460v-5.36h.93v1a1.67,1.67,0,0,1,1.54-1h.41v.9h-.42a1.28,1.28,0,0,0-1.1.59,2.75,2.75,0,0,0-.41,1.59Z"/><path class="cls-2" d="M465.94,371a1.34,1.34,0,0,0,1-.34,1.46,1.46,0,0,0,.44-.95l.94.11a2.12,2.12,0,0,1-.75,1.45,2.65,2.65,0,0,1-3.45-.21,3.41,3.41,0,0,1,0-4.1,2.38,2.38,0,0,1,1.84-.77,2.42,2.42,0,0,1,1.63.52,2.22,2.22,0,0,1,.75,1.45l-1,.11a1.31,1.31,0,0,0-1.41-1.26,1.33,1.33,0,0,0-1.13.53,2.37,2.37,0,0,0-.4,1.48,2.28,2.28,0,0,0,.41,1.46A1.37,1.37,0,0,0,465.94,371Z"/><path class="cls-2" d="M474.08,368.24v3.47h-.95v-3.3a1.43,1.43,0,0,0-.33-1,1.22,1.22,0,0,0-.94-.35,1.34,1.34,0,0,0-1.07.43,2,2,0,0,0-.36,1.27v3h-1V364.2h1V367a1.87,1.87,0,0,1,1.65-.78,1.85,1.85,0,0,1,2,2Z"/><path class="cls-2" d="M476.56,365.48h-.95V364.2h.95Zm0,6.23h-.95v-5.36h.95Z"/><path class="cls-2" d="M480.63,371.71h-1l-2.06-5.36h1l1.58,4.27,1.58-4.27h1Z"/><path class="cls-2" d="M485.79,371.07a1.26,1.26,0,0,0,1.36-1.08l.88.17a1.94,1.94,0,0,1-.75,1.23,2.44,2.44,0,0,1-1.49.45,2.49,2.49,0,0,1-1.92-.72,3,3,0,0,1-.68-2.09,2.89,2.89,0,0,1,.7-2,2.41,2.41,0,0,1,1.88-.77,2.23,2.23,0,0,1,1.73.69,2.7,2.7,0,0,1,.63,1.89v.46h-4C484.21,370.47,484.75,371.07,485.79,371.07Zm-.05-4.09a1.46,1.46,0,0,0-1.07.4,1.91,1.91,0,0,0-.49,1.17h3C487.09,367.51,486.62,367,485.74,367Z"/><path class="cls-2" d="M501.46,354.55h-5v-1.46h1.68v-3.63a1.55,1.55,0,0,1-.85.21h-.84v-1.43h.78a.86.86,0,0,0,.72-.29,1.46,1.46,0,0,0,.23-.91h1.69v6h1.6Z"/><path class="cls-2" d="M507.16,354.55h-5v-1.46h1.67v-3.63a1.53,1.53,0,0,1-.85.21h-.83v-1.43h.77a.86.86,0,0,0,.72-.29,1.4,1.4,0,0,0,.24-.91h1.68v6h1.6Z"/><path class="cls-2" d="M500.64,392.15h-5v-1.46h1.67v-3.63a1.55,1.55,0,0,1-.85.21h-.84v-1.43h.78a.86.86,0,0,0,.72-.29,1.46,1.46,0,0,0,.23-.91H499v6.05h1.6Z"/><path class="cls-2" d="M504.92,386.82a.81.81,0,0,0-.23-.62.87.87,0,0,0-.64-.22.94.94,0,0,0-.86.45,1.88,1.88,0,0,0-.18,1.26l-1.71-.24a2.65,2.65,0,0,1,.67-2.16,2.92,2.92,0,0,1,2.16-.78,2.7,2.7,0,0,1,1.86.62,2.1,2.1,0,0,1,.69,1.61,3.79,3.79,0,0,1-1.68,2.82l-1.35,1.13H507v1.46H501.3v-1.37l2.6-2.25a4,4,0,0,0,.79-.87A1.71,1.71,0,0,0,504.92,386.82Z"/><path class="cls-2" d="M472.75,407.37l.11,1.94h-1l-.11-1.95a.94.94,0,0,0-.37-.77,1.83,1.83,0,0,0-1.08-.25h-1.86v3h-1V401.8h3a2.79,2.79,0,0,1,1.83.58,1.86,1.86,0,0,1,.69,1.5,2.16,2.16,0,0,1-1.21,2A1.52,1.52,0,0,1,472.75,407.37Zm-.92-3.41a1.17,1.17,0,0,0-.42-.94,1.74,1.74,0,0,0-1.14-.35h-1.85v2.81h1.84a1.55,1.55,0,0,0,1.13-.42A1.48,1.48,0,0,0,471.83,404Z"/><path class="cls-2" d="M476.8,409.44a3.13,3.13,0,0,1-1.94-.57,1.9,1.9,0,0,1-.74-1.56,1.77,1.77,0,0,1,.34-1.09,3.68,3.68,0,0,1,1.22-1,2.73,2.73,0,0,1-.8-1.74,1.71,1.71,0,0,1,.54-1.33,2,2,0,0,1,1.4-.5,2,2,0,0,1,1.33.43,1.46,1.46,0,0,1,.5,1.15,1.74,1.74,0,0,1-.35,1.05,4.94,4.94,0,0,1-1.3,1l1.95,2.09a4.81,4.81,0,0,0,.29-1.82l.91.12a4.48,4.48,0,0,1-.56,2.38l1.13,1.2H479.5l-.53-.57A3.22,3.22,0,0,1,476.8,409.44Zm-1.68-2.2a1.26,1.26,0,0,0,.48,1,1.89,1.89,0,0,0,1.23.39,2.26,2.26,0,0,0,1.59-.49l-2.24-2.39a2.71,2.71,0,0,0-.82.69A1.28,1.28,0,0,0,475.12,407.24Zm1.69-4.84a1,1,0,0,0-.72.29,1,1,0,0,0-.28.71,1.52,1.52,0,0,0,.14.67,3.24,3.24,0,0,0,.58.77,4.36,4.36,0,0,0,1-.8,1.15,1.15,0,0,0,.27-.72.87.87,0,0,0-.25-.67A.94.94,0,0,0,476.81,402.4Z"/><path class="cls-2" d="M484.61,409.31h-2.94V401.8h2.94a3.69,3.69,0,0,1,2.71,1,3.57,3.57,0,0,1,1,2.66,3.87,3.87,0,0,1-1,2.8A3.59,3.59,0,0,1,484.61,409.31Zm2.66-3.85a2.78,2.78,0,0,0-.72-2,2.54,2.54,0,0,0-1.94-.76H482.7v5.73h1.91a2.5,2.5,0,0,0,1.94-.8A3.15,3.15,0,0,0,487.27,405.46Z"/><path class="cls-2" d="M500.51,429.75h-5v-1.47h1.68v-3.62a1.55,1.55,0,0,1-.85.2h-.84v-1.42h.78a.86.86,0,0,0,.71-.29,1.42,1.42,0,0,0,.24-.91h1.69v6h1.59Z"/><path class="cls-2" d="M505.19,427.39a.76.76,0,0,0-.29-.63,1.22,1.22,0,0,0-.79-.23h-.71v-1.27h.6a1,1,0,0,0,.7-.23.86.86,0,0,0,.24-.66.73.73,0,0,0-.25-.6,1,1,0,0,0-.69-.21,1.14,1.14,0,0,0-.88.34,1.28,1.28,0,0,0-.33.94l-1.58-.33a2.25,2.25,0,0,1,.81-1.74,3.16,3.16,0,0,1,2.06-.66,2.92,2.92,0,0,1,1.89.57,1.78,1.78,0,0,1,.71,1.47,1.9,1.9,0,0,1-.25,1,1.87,1.87,0,0,1-.72.67,1.68,1.68,0,0,1,1.21,1.73,2.13,2.13,0,0,1-.77,1.73,3.06,3.06,0,0,1-2.06.65,3.57,3.57,0,0,1-2.2-.65,2.12,2.12,0,0,1-.86-1.76l1.76-.24a1.15,1.15,0,0,0,.34.89,1.35,1.35,0,0,0,.94.31,1.14,1.14,0,0,0,.82-.27A1,1,0,0,0,505.19,427.39Z"/><path class="cls-2" d="M458.15,447a3.49,3.49,0,0,1-2.66-1.07,4.45,4.45,0,0,1,0-5.62,3.48,3.48,0,0,1,2.68-1.08,3.62,3.62,0,0,1,2.17.62,3,3,0,0,1,1.15,1.78l-1,.18a2.33,2.33,0,0,0-.82-1.28,2.74,2.74,0,0,0-3.41.4,3.22,3.22,0,0,0-.7,2.21,3.07,3.07,0,0,0,.74,2.15,2.46,2.46,0,0,0,1.93.83,2.68,2.68,0,0,0,1.76-.57,1.78,1.78,0,0,0,.69-1.42v-.43H458.3v-.85h3.3v4h-.94v-1a2.93,2.93,0,0,1-1.08.86A3.39,3.39,0,0,1,458.15,447Z"/><path class="cls-2" d="M467.55,446.12h.26v.79h-.52a1.18,1.18,0,0,1-.7-.2.72.72,0,0,1-.32-.56,1.88,1.88,0,0,1-1.7.89,2,2,0,0,1-1.35-.44,1.41,1.41,0,0,1-.52-1.12,1.49,1.49,0,0,1,.42-1.1,2.11,2.11,0,0,1,1.2-.56l1.57-.27a.36.36,0,0,0,.33-.38.89.89,0,0,0-.31-.71,1.24,1.24,0,0,0-.86-.28,1.39,1.39,0,0,0-.86.24,1.28,1.28,0,0,0-.44.76l-.91-.11a1.86,1.86,0,0,1,.73-1.2,2.47,2.47,0,0,1,1.52-.45,2.12,2.12,0,0,1,1.51.51,1.78,1.78,0,0,1,.56,1.37v2.41a.45.45,0,0,0,.09.32A.4.4,0,0,0,467.55,446.12Zm-3.9-.71a.81.81,0,0,0,.27.64,1.15,1.15,0,0,0,.76.23,1.46,1.46,0,0,0,1.12-.49,1.84,1.84,0,0,0,.43-1.26v-.31l-1.71.3a1,1,0,0,0-.65.3A.8.8,0,0,0,463.65,445.41Z"/><path class="cls-2" d="M469.71,446.91h-1V439.4h1Z"/><path class="cls-2" d="M472.25,446.91h-1V439.4h1Z"/><path class="cls-2" d="M476.09,446.27a1.27,1.27,0,0,0,1.36-1.09l.88.18a1.91,1.91,0,0,1-.76,1.23,2.41,2.41,0,0,1-1.48.45,2.48,2.48,0,0,1-1.93-.73,2.94,2.94,0,0,1-.67-2.08,2.89,2.89,0,0,1,.7-2,2.41,2.41,0,0,1,1.88-.77,2.19,2.19,0,0,1,1.72.69,2.69,2.69,0,0,1,.63,1.88v.46h-4C474.51,445.66,475.05,446.27,476.09,446.27Zm0-4.09a1.46,1.46,0,0,0-1.08.4,1.92,1.92,0,0,0-.49,1.17h3C477.39,442.7,476.92,442.18,476,442.18Z"/><path class="cls-2" d="M480.63,446.91h-.95v-5.36h.93v1a1.66,1.66,0,0,1,1.54-1h.41v.9h-.42a1.28,1.28,0,0,0-1.1.59,2.75,2.75,0,0,0-.41,1.59Z"/><path class="cls-2" d="M484.89,447.41l.18-.47L483,441.55h1l1.59,4.21,1.6-4.21h1l-2.34,6a2.38,2.38,0,0,1-.73,1.09,1.83,1.83,0,0,1-1.11.3h-.55v-.81h.55a1.07,1.07,0,0,0,.6-.15A1.09,1.09,0,0,0,484.89,447.41Z"/><path class="cls-2" d="M485.45,424H482.5l3.14-3.14-1.35-1.34-4.57,4.57v1.82h5.73a1,1,0,0,1,.95,1v.95h-8.58v-8.58h-1.91v10.49h12.4v-2.86A2.87,2.87,0,0,0,485.45,424Z"/><rect class="cls-2" x="479.13" y="418.3" width="4.05" height="1.91" transform="translate(-155.53 463) rotate(-45)"/><path class="cls-2" d="M472.1,427.84h-2.87v-.95h-1.9v2.86h0a1.91,1.91,0,0,1-1.91,1.9v1.91a3.82,3.82,0,0,0,3.81-3.81H474V419.26h-1.9Z"/><path class="cls-2" d="M459.22,426.89v2.86h2.86v1.9h-2.86a1.91,1.91,0,0,1-1.91-1.9v-1.91h-1.9v1.91a3.82,3.82,0,0,0,3.81,3.81H464v-5.72h-2.86v-.95a1,1,0,0,1,.95-1H464V424h-1.91A2.87,2.87,0,0,0,459.22,426.89Z"/><path class="cls-3" d="M610.43,600.91h-9.86V585h2.19v14h7.67Z"/><path class="cls-3" d="M623.8,600.91H612.88V585h10.69v1.87h-8.51v5h7.61v1.82h-7.61v5.31h8.74Z"/><path class="cls-3" d="M633.46,600.91h-2.2L625.38,585h2.3l4.74,13.13,4.7-13.13h2.22Z"/><path class="cls-3" d="M652.73,600.91H641.81V585H652.5v1.87H644v5h7.61v1.82H644v5.31h8.74Z"/><path class="cls-3" d="M665.73,600.91h-9.86V585h2.19v14h7.67Z"/><path class="cls-3" d="M681.82,600.91H672v-1.82h3.88V588.88a3.48,3.48,0,0,1-1.82.42H671.9v-1.78h2a1.85,1.85,0,0,0,1.52-.61,3,3,0,0,0,.49-1.9H678v14.08h3.81Z"/><path class="cls-3" d="M608.87,278.09H599V262.2h2.18v14h7.68Z"/><path class="cls-3" d="M622.23,278.09H611.31V262.2H622v1.86H613.5v5h7.6v1.82h-7.6v5.31h8.73Z"/><path class="cls-3" d="M631.9,278.09h-2.21l-5.87-15.89h2.29l4.75,13.12,4.7-13.12h2.21Z"/><path class="cls-3" d="M651.16,278.09H640.24V262.2h10.7v1.86h-8.51v5H650v1.82h-7.6v5.31h8.73Z"/><path class="cls-3" d="M664.16,278.09h-9.85V262.2h2.18v14h7.67Z"/><path class="cls-3" d="M678.62,266.42a2.49,2.49,0,0,0-.76-1.91,2.81,2.81,0,0,0-2-.72,3.07,3.07,0,0,0-2.57,1.1,4.9,4.9,0,0,0-.81,3.19l-2.09-.27a5.16,5.16,0,0,1,5.47-5.88,5.07,5.07,0,0,1,3.61,1.24,4.31,4.31,0,0,1,1.34,3.25,5.7,5.7,0,0,1-.81,2.86,13.54,13.54,0,0,1-2.61,3.09l-4.25,3.91h8.08v1.81H670.32v-1.86L676,271a10.39,10.39,0,0,0,2-2.34A4.58,4.58,0,0,0,678.62,266.42Z"/><path class="cls-2" d="M432.83,310.56v-3.43l-1,.7V307l1.12-.77h.69v4.36Z"/><path class="cls-2" d="M436.54,310.56v-3.43l-1,.7V307l1.12-.77h.7v4.36Z"/><path class="cls-2" d="M413.06,299.27v-3.43l-1,.69v-.85l1.12-.77h.7v4.36Z"/><path class="cls-2" d="M415.42,299.27v-.63l1.77-2a.84.84,0,0,0,.24-.55.53.53,0,0,0-.58-.55.59.59,0,0,0-.6.63h-.84a1.3,1.3,0,0,1,1.45-1.32,1.26,1.26,0,0,1,1.4,1.23,1.75,1.75,0,0,1-.5,1.07l-1.25,1.44h1.81v.71Z"/><rect class="cls-2" x="593.45" y="208.59" width="0.56" height="20.13" transform="translate(107.5 623.52) rotate(-60)"/><rect class="cls-2" x="573.03" y="220.38" width="0.56" height="20.13" transform="translate(87.09 611.73) rotate(-60)"/><rect class="cls-2" x="552.81" y="232.05" width="0.56" height="20.13" transform="translate(66.86 600.05) rotate(-60)"/><rect class="cls-2" x="532.5" y="243.78" width="0.56" height="20.13" transform="translate(46.55 588.32) rotate(-60)"/><rect class="cls-2" x="512.21" y="255.49" width="0.56" height="20.13" transform="translate(26.27 576.61) rotate(-60)"/><rect class="cls-2" x="436.25" y="258.4" width="46.67" height="0.56" transform="translate(-67.77 264.22) rotate(-29.97)"/><polygon class="cls-2" points="480.64 294.33 480.37 293.85 681.73 177.65 641.16 154.23 520.81 223.65 520.53 223.17 641.16 153.59 641.3 153.66 682.85 177.65 682.43 177.9 480.64 294.33"/><rect class="cls-2" x="448.72" y="302.33" width="34.07" height="0.56" transform="translate(-88.89 273.18) rotate(-29.97)"/><polygon class="cls-2" points="410.01 287.62 409.73 287.14 439.38 270.02 444.86 273.19 444.58 273.68 439.38 270.67 410.01 287.62"/><rect class="cls-2" x="466.56" y="270.43" width="0.56" height="31.56" transform="matrix(0.5, -0.87, 0.87, 0.5, -14.44, 547.4)"/><polygon class="cls-2" points="438.84 318.47 438.7 318.39 418.16 306.53 418.44 306.05 438.84 317.83 450.44 311.13 430.32 299.51 430.6 299.02 451.56 311.13 438.84 318.47"/><path class="cls-2" d="M418.3,306.61l-.14-.08-21-12.13,12.72-7.34.14.08,21,12.13Zm-20-12.21,20,11.56,11.6-6.69-20-11.57Z"/><path class="cls-2" d="M482.83,269.3a1.41,1.41,0,0,1-1.57-1.31,1.11,1.11,0,0,0,.1-2c0-.82.68-1.24,1.47-1.24s1.48.42,1.48,1.24a1.11,1.11,0,0,0,.09,2A1.4,1.4,0,0,1,482.83,269.3Zm0-2a.66.66,0,0,0-.74.65.75.75,0,1,0,.74-.65Zm0-1.83c-.44,0-.65.24-.65.56a.65.65,0,0,0,1.3,0C483.48,265.7,483.26,265.46,482.83,265.46Z"/><path class="cls-2" d="M621.75,189.33a1.45,1.45,0,0,1-1.11.44,1.48,1.48,0,0,1-1-.36,1.14,1.14,0,0,1-.38-.8H620a.5.5,0,0,0,.16.33.62.62,0,0,0,.48.16.61.61,0,0,0,.45-.18,1.3,1.3,0,0,0,.31-1,1.2,1.2,0,0,1-.86.32,1.37,1.37,0,0,1-1.49-1.49,1.44,1.44,0,0,1,1.56-1.52,1.52,1.52,0,0,1,1.53,1.38,4.43,4.43,0,0,1,.07.81A2.69,2.69,0,0,1,621.75,189.33Zm-1.1-3.39c-.49,0-.73.34-.73.85a.73.73,0,1,0,1.45,0C621.37,186.31,621.13,185.94,620.65,185.94Z"/><path class="cls-2" d="M519.73,262v-3.43l-1,.69v-.85l1.12-.77h.7V262Z"/><path class="cls-2" d="M523.51,262.07a1.42,1.42,0,0,1-1.54-1.34h.81a.67.67,0,0,0,.73.65.65.65,0,0,0,.72-.65c0-.45-.37-.66-.8-.66h-.33v-.68h.33c.45,0,.7-.18.7-.59a.59.59,0,0,0-.62-.57c-.4,0-.69.2-.7.59H522a1.35,1.35,0,0,1,1.52-1.28,1.3,1.3,0,0,1,1.45,1.24,1,1,0,0,1-.65.94,1,1,0,0,1,.74,1A1.36,1.36,0,0,1,523.51,262.07Z"/><path class="cls-2" d="M540.28,249.6v-3.43l-1,.69V246l1.12-.77h.69v4.36Z"/><path class="cls-2" d="M544.06,249.68a1.44,1.44,0,0,1-1.55-1.34h.82a.67.67,0,0,0,.73.65.65.65,0,0,0,.72-.65c0-.46-.37-.66-.8-.66h-.34V247H544c.45,0,.7-.17.7-.58a.59.59,0,0,0-.62-.57c-.4,0-.69.19-.7.59h-.82a1.35,1.35,0,0,1,1.52-1.28,1.3,1.3,0,0,1,1.45,1.24,1,1,0,0,1-.65.94,1,1,0,0,1,.74,1A1.36,1.36,0,0,1,544.06,249.68Z"/><path class="cls-2" d="M560,237.65v-3.44l-1,.7v-.85l1.12-.77h.7v4.36Z"/><path class="cls-2" d="M563.82,237.73a1.43,1.43,0,0,1-1.54-1.35h.82a.68.68,0,0,0,.73.66.66.66,0,0,0,.72-.66c0-.45-.38-.65-.8-.65h-.34V235h.34c.44,0,.7-.17.7-.58a.59.59,0,0,0-.62-.57c-.41,0-.7.19-.7.59h-.82a1.35,1.35,0,0,1,1.52-1.28,1.3,1.3,0,0,1,1.45,1.24,1,1,0,0,1-.66.94,1,1,0,0,1,.75,1A1.37,1.37,0,0,1,563.82,237.73Z"/><path class="cls-2" d="M579.81,226.82v-3.43l-1,.7v-.86l1.11-.77h.7v4.36Z"/><path class="cls-2" d="M583.58,226.9a1.43,1.43,0,0,1-1.54-1.34h.82a.67.67,0,0,0,.73.65.64.64,0,0,0,.72-.65c0-.45-.37-.66-.8-.66h-.34v-.68h.34c.45,0,.7-.18.7-.58a.58.58,0,0,0-.62-.57c-.4,0-.69.19-.7.58h-.82a1.35,1.35,0,0,1,1.52-1.27,1.3,1.3,0,0,1,1.45,1.24,1,1,0,0,1-.65.93,1,1,0,0,1,.74,1C585.13,226.45,584.44,226.9,583.58,226.9Z"/><polygon class="cls-2" points="445.08 276.57 442.4 275.02 442.68 274.54 444.52 275.6 444.52 274.06 448.67 271.67 449.45 272.12 449.17 272.6 448.67 272.31 445.08 274.38 445.08 276.57"/><polygon class="cls-2" points="449.31 280.87 442.26 276.8 442.26 274.62 446.41 272.23 447.19 272.68 446.92 273.16 446.41 272.87 442.82 274.94 442.82 276.48 449.31 280.23 453.04 278.07 453.32 278.56 449.31 280.87"/><rect class="cls-2" x="449.03" y="274.97" width="0.56" height="5.58"/><polygon class="cls-2" points="453.46 278.32 452.9 278.32 452.9 272.89 450.92 271.75 447.33 273.82 447.33 276.01 444.66 274.46 444.94 273.98 446.77 275.04 446.77 273.5 450.92 271.11 453.46 272.57 453.46 278.32"/><rect class="cls-2" x="449.01" y="273.57" width="4.47" height="0.56" transform="translate(-76.46 262.08) rotate(-29.97)"/><rect class="cls-2" x="447.9" y="273.01" width="0.56" height="2.6" transform="translate(-13.45 525.33) rotate(-60)"/><path class="cls-2" d="M459.08,212.88v-3.43l-1,.7v-.85l1.12-.77h.69v4.35Z"/><path class="cls-2" d="M464,212.58a1.45,1.45,0,0,1-1.05.39,1.47,1.47,0,0,1-1.06-.39,3.53,3.53,0,0,1,0-3.75,1.47,1.47,0,0,1,1.06-.39,1.45,1.45,0,0,1,1.05.39,3.47,3.47,0,0,1,0,3.75Zm-1.05-3.41c-.85,0-.78,1-.78,1.53s-.07,1.54.78,1.54.77-1,.77-1.54S463.74,209.17,462.9,209.17Z"/><polygon class="cls-2" points="479.79 247.34 479.65 247.25 410.98 207.61 452.42 183.68 452.56 183.76 521.23 223.41 496.01 237.97 495.74 237.49 520.11 223.41 452.42 184.33 412.1 207.61 479.79 246.69 488.97 241.39 489.25 241.88 479.79 247.34"/><rect class="cls-3" x="491.41" y="230.1" width="0.56" height="4.47" transform="translate(44.64 541.98) rotate(-60)"/><rect class="cls-3" x="493.44" y="232.52" width="2.61" height="0.56" transform="translate(-50.13 278.32) rotate(-29.97)"/><rect class="cls-3" x="491.41" y="231.96" width="0.56" height="4.47" transform="translate(43.03 542.91) rotate(-60)"/><rect class="cls-3" x="489.15" y="233.26" width="0.56" height="4.47" transform="matrix(0.5, -0.87, 0.87, 0.5, 40.77, 541.6)"/><rect class="cls-3" x="489.15" y="235.12" width="0.56" height="4.47" transform="matrix(0.5, -0.87, 0.87, 0.5, 39.16, 542.53)"/><polygon class="cls-3" points="491.5 236.85 491.22 236.37 493.34 235.15 493.34 233.45 493.9 233.45 493.9 235.47 491.5 236.85"/><polygon class="cls-3" points="487.77 236.24 487.22 236.24 487.22 234.22 489.61 232.83 489.89 233.32 487.77 234.54 487.77 236.24"/><polygon class="cls-3" points="489.11 240.1 485.1 237.78 485.38 237.3 489.11 239.45 491.08 238.31 491.08 236.61 491.64 236.61 491.64 238.63 489.11 240.1"/><polygon class="cls-3" points="489.11 241.96 484.96 239.56 484.96 237.38 487.36 236 487.63 236.48 485.52 237.7 485.52 239.24 489.11 241.31 495.6 237.57 495.6 232.31 492.01 230.23 490.03 231.38 490.03 233.07 489.47 233.07 489.47 231.05 492.01 229.59 496.15 231.98 496.15 237.89 489.11 241.96"/><rect class="cls-3" x="488.83" y="239.77" width="0.56" height="1.86"/><path class="cls-2" d="M452.15,850v-3.29l-1,.67v-.82l1.07-.74h.67V850Z"/><g class="cls-4"><rect class="cls-2" x="687.89" y="471.1" width="0.16" height="155.22"/><rect class="cls-2" x="684.08" y="471.1" width="0.16" height="155.22"/><rect class="cls-2" x="680.26" y="471.1" width="0.16" height="155.22"/><rect class="cls-2" x="676.45" y="471.1" width="0.16" height="155.22"/><rect class="cls-2" x="672.63" y="471.1" width="0.16" height="155.22"/><rect class="cls-2" x="668.82" y="471.1" width="0.16" height="155.22"/><rect class="cls-2" x="665" y="471.1" width="0.16" height="155.22"/><rect class="cls-2" x="661.19" y="471.1" width="0.16" height="155.22"/><rect class="cls-2" x="657.37" y="471.1" width="0.16" height="155.22"/><rect class="cls-2" x="653.56" y="471.1" width="0.16" height="155.22"/><rect class="cls-2" x="649.74" y="471.1" width="0.16" height="155.22"/><rect class="cls-2" x="645.93" y="471.1" width="0.16" height="155.22"/><rect class="cls-2" x="642.11" y="471.1" width="0.16" height="155.22"/><rect class="cls-2" x="638.3" y="471.1" width="0.16" height="155.22"/><rect class="cls-2" x="634.48" y="471.1" width="0.16" height="155.22"/><rect class="cls-2" x="630.67" y="471.1" width="0.16" height="155.22"/><rect class="cls-2" x="626.85" y="471.1" width="0.16" height="155.22"/><rect class="cls-2" x="623.04" y="471.1" width="0.16" height="155.22"/><rect class="cls-2" x="619.22" y="471.1" width="0.16" height="155.22"/><rect class="cls-2" x="615.41" y="471.1" width="0.16" height="155.22"/><rect class="cls-2" x="611.59" y="471.1" width="0.16" height="155.22"/><rect class="cls-2" x="607.78" y="471.1" width="0.16" height="155.22"/><rect class="cls-2" x="603.96" y="471.1" width="0.16" height="155.22"/><rect class="cls-2" x="600.15" y="471.1" width="0.16" height="155.22"/><rect class="cls-2" x="596.33" y="471.1" width="0.16" height="155.22"/><rect class="cls-2" x="592.52" y="471.1" width="0.16" height="155.22"/><rect class="cls-2" x="588.7" y="471.1" width="0.16" height="155.22"/><rect class="cls-2" x="584.89" y="471.1" width="0.16" height="155.22"/><rect class="cls-2" x="581.07" y="471.1" width="0.16" height="155.22"/><rect class="cls-2" x="577.26" y="471.1" width="0.16" height="155.22"/><rect class="cls-2" x="573.44" y="471.1" width="0.16" height="155.22"/><rect class="cls-2" x="569.63" y="471.1" width="0.16" height="155.22"/><rect class="cls-2" x="565.81" y="471.1" width="0.16" height="155.22"/><rect class="cls-2" x="562" y="471.1" width="0.16" height="155.22"/><rect class="cls-2" x="558.18" y="471.1" width="0.16" height="155.22"/><rect class="cls-2" x="554.37" y="471.1" width="0.16" height="155.22"/><rect class="cls-2" x="550.55" y="471.1" width="0.16" height="155.22"/><rect class="cls-2" x="546.74" y="471.1" width="0.16" height="155.22"/><rect class="cls-2" x="542.92" y="471.1" width="0.16" height="155.22"/><rect class="cls-2" x="539.11" y="471.1" width="0.16" height="155.22"/><rect class="cls-2" x="535.29" y="471.1" width="0.16" height="155.22"/><rect class="cls-2" x="531.48" y="471.1" width="0.16" height="155.22"/><rect class="cls-2" x="527.66" y="471.1" width="0.16" height="155.22"/><rect class="cls-2" x="523.85" y="471.1" width="0.16" height="155.22"/><rect class="cls-2" x="520.03" y="471.1" width="0.16" height="155.22"/><rect class="cls-2" x="516.22" y="471.1" width="0.16" height="155.22"/><rect class="cls-2" x="512.4" y="471.1" width="0.16" height="155.22"/><rect class="cls-2" x="508.59" y="471.1" width="0.16" height="155.22"/><rect class="cls-2" x="504.77" y="471.1" width="0.16" height="155.22"/><rect class="cls-2" x="500.96" y="471.1" width="0.16" height="155.22"/><rect class="cls-2" x="497.14" y="471.1" width="0.16" height="155.22"/><rect class="cls-2" x="493.33" y="471.1" width="0.16" height="155.22"/><rect class="cls-2" x="489.51" y="471.1" width="0.16" height="155.22"/><rect class="cls-2" x="485.7" y="471.1" width="0.16" height="155.22"/><rect class="cls-2" x="481.88" y="471.1" width="0.16" height="155.22"/><rect class="cls-2" x="478.07" y="471.1" width="0.16" height="155.22"/><rect class="cls-2" x="474.25" y="471.1" width="0.16" height="155.22"/><rect class="cls-2" x="470.44" y="471.1" width="0.16" height="155.22"/><rect class="cls-2" x="466.62" y="471.1" width="0.16" height="155.22"/><rect class="cls-2" x="462.81" y="471.1" width="0.16" height="155.22"/><rect class="cls-2" x="458.99" y="471.1" width="0.16" height="155.22"/><rect class="cls-2" x="455.18" y="471.1" width="0.16" height="155.22"/><rect class="cls-2" x="451.36" y="471.1" width="0.16" height="155.22"/><rect class="cls-2" x="447.55" y="471.1" width="0.16" height="155.22"/><rect class="cls-2" x="443.73" y="471.1" width="0.16" height="155.22"/><rect class="cls-2" x="439.92" y="471.1" width="0.16" height="155.22"/><rect class="cls-2" x="436.1" y="471.1" width="0.16" height="155.22"/></g><path class="cls-2" d="M462.53,536.4A1.53,1.53,0,0,1,461,535a4.62,4.62,0,0,1-.07-.82,2.74,2.74,0,0,1,.5-1.9,1.45,1.45,0,0,1,1.11-.44,1.49,1.49,0,0,1,1,.36,1.11,1.11,0,0,1,.39.8h-.83a.53.53,0,0,0-.15-.33.64.64,0,0,0-.49-.16.62.62,0,0,0-.45.18,1.31,1.31,0,0,0-.31,1,1.17,1.17,0,0,1,.86-.32,1.37,1.37,0,0,1,1.5,1.48A1.43,1.43,0,0,1,462.53,536.4Zm0-2.36a.73.73,0,0,0-.7.81c0,.48.23.85.72.85s.73-.34.73-.85A.72.72,0,0,0,462.51,534Z"/><path class="cls-2" d="M429.66,630.47h-.88l1.78-3.66H428.3v-.7h3.13v.63Z"/><rect class="cls-2" x="466.23" y="593.66" width="0.56" height="31.28" transform="translate(-294.41 708.67) rotate(-60)"/><polygon class="cls-2" points="479.35 570.77 479.21 570.69 410.54 531.04 451.98 507.12 452.12 507.2 520.79 546.85 495.57 561.4 495.29 560.92 519.67 546.85 451.98 507.76 411.65 531.04 479.35 570.13 488.53 564.83 488.8 565.31 479.35 570.77"/><rect class="cls-2" x="469.45" y="619.68" width="11.37" height="0.56" transform="translate(-246.19 320.31) rotate(-29.97)"/><polygon class="cls-2" points="438.75 641.29 437.09 640.33 397.42 617.42 409.8 610.28 410.08 610.76 398.54 617.42 438.75 640.64 450.57 633.82 450.85 634.3 438.75 641.29"/><rect class="cls-2" x="428.59" y="596.17" width="11.46" height="0.56" transform="translate(-239.9 296.77) rotate(-29.97)"/><rect class="cls-2" x="438.18" y="620.95" width="11.3" height="0.56" transform="translate(-251.01 304.84) rotate(-29.97)"/><polygon class="cls-2" points="450.71 634.38 450.57 634.3 435.6 625.66 438.79 623.81 439.07 624.29 436.71 625.66 450.71 633.74 463.14 626.56 463.42 627.05 450.71 634.38"/><rect class="cls-2" x="438.43" y="614.59" width="4.41" height="0.56" transform="translate(-248.21 302.27) rotate(-29.96)"/><polygon class="cls-2" points="442.69 614.01 442.42 613.53 447.92 610.35 429.36 599.63 419.75 605.18 419.47 604.7 429.36 598.99 429.5 599.07 449.04 610.35 442.69 614.01"/><path class="cls-2" d="M429.06,621.88l-.14-.08-19.54-11.28,10.23-5.9.14.08L439.29,616ZM410.5,610.52l18.56,10.72,9.11-5.26-18.56-10.72Z"/><rect class="cls-2" x="458.13" y="613.67" width="0.56" height="4.64" transform="translate(-304.25 705.03) rotate(-60)"/><polygon class="cls-2" points="453.35 621.39 448.17 618.4 455.65 614.08 456.54 614.59 456.26 615.07 455.65 614.72 449.28 618.4 453.63 620.91 453.35 621.39"/><path class="cls-2" d="M463.28,627.13l-10.35-6,7.48-4.32,10.36,6Zm-9.24-6,9.24,5.33,6.37-3.68-9.24-5.33Z"/><polygon class="cls-2" points="444.45 596.88 438.72 593.57 479.2 570.2 479.48 570.68 439.83 593.57 444.72 596.4 444.45 596.88"/><rect class="cls-3" x="490.96" y="553.53" width="0.56" height="4.47" transform="translate(-235.68 703.31) rotate(-60)"/><rect class="cls-3" x="493" y="555.95" width="2.61" height="0.56" transform="translate(-211.79 321.36) rotate(-29.97)"/><polygon class="cls-3" points="444.87 599.73 442.19 598.18 442.47 597.7 444.31 598.76 444.31 597.22 448.45 594.83 449.24 595.28 448.96 595.76 448.45 595.47 444.87 597.54 444.87 599.73"/><polygon class="cls-3" points="449.1 604.03 442.05 599.96 442.05 597.78 446.2 595.39 446.98 595.84 446.7 596.32 446.2 596.03 442.61 598.1 442.61 599.64 449.1 603.39 452.83 601.24 453.11 601.72 449.1 604.03"/><rect class="cls-3" x="448.82" y="598.13" width="0.56" height="5.58"/><polygon class="cls-3" points="453.25 601.48 452.69 601.48 452.69 596.05 450.71 594.91 447.12 596.99 447.12 599.17 444.45 597.63 444.73 597.14 446.56 598.2 446.56 596.66 450.71 594.27 453.25 595.73 453.25 601.48"/><rect class="cls-3" x="448.8" y="596.73" width="4.47" height="0.56" transform="translate(-237.95 305.2) rotate(-29.97)"/><rect class="cls-3" x="447.69" y="596.17" width="0.56" height="2.61" transform="translate(-293.45 686.63) rotate(-60)"/><rect class="cls-3" x="490.96" y="555.39" width="0.56" height="4.47" transform="translate(-237.3 704.25) rotate(-60)"/><rect class="cls-3" x="488.71" y="556.7" width="0.56" height="4.47" transform="matrix(0.5, -0.87, 0.87, 0.5, -239.55, 702.93)"/><rect class="cls-3" x="488.71" y="558.56" width="0.56" height="4.47" transform="matrix(0.5, -0.87, 0.87, 0.5, -241.17, 703.86)"/><path class="cls-2" d="M480.2,617.36l-.28-.48.76-.44.27.48Zm2.11-1.22-.28-.48,1.36-.79.28.48Zm2.72-1.57-.28-.48,1.36-.79.28.49Zm2.72-1.57-.28-.48,1.36-.79.28.49Zm2.71-1.57-.27-.48,1.35-.78.28.48Zm2.72-1.57-.28-.48,1.36-.78.28.48Zm2.72-1.56-.28-.49L497,607l.28.48Zm2.71-1.57-.27-.49,1.35-.78.28.48Zm2.72-1.57-.28-.48,1.36-.79.28.48Zm2.72-1.57-.28-.48,1.36-.79.28.49Zm2.72-1.57-.28-.48,1.35-.79.28.49Zm2.71-1.57-.28-.48,1.36-.78.28.48Zm2.72-1.57-.28-.48,1.36-.78.28.48Zm2.72-1.56-.28-.49,1.36-.78.27.48Zm2.71-1.57-.28-.49,1.36-.78.28.48Zm2.72-1.57-.28-.48,1.36-.79.28.48Zm2.72-1.57-.28-.48,1.36-.79.28.49Zm2.71-1.57-.27-.48,1.35-.79.28.49Zm2.72-1.57-.28-.48,1.36-.78.28.48Zm2.72-1.57-.28-.48,1.36-.78.28.48Zm2.71-1.56-.27-.49,1.35-.78.28.48Zm2.72-1.57-.28-.49,1.36-.78.28.48Zm2.72-1.57-.28-.49,1.36-.78.28.48Zm2.72-1.57-.28-.48,1.36-.79.27.49Zm2.71-1.57-.28-.48,1.36-.79.28.49Zm2.72-1.57-.28-.48,1.36-.78.28.48Zm2.72-1.57-.28-.48,1.36-.78.27.48Zm2.71-1.56-.28-.49,1.36-.78.28.48Zm2.72-1.57-.28-.49,1.36-.78.28.48Zm2.72-1.57-.28-.49,1.36-.78.28.48Zm2.71-1.57-.27-.48,1.35-.79.28.49Zm2.72-1.57-.28-.48,1.36-.79.28.49Zm2.72-1.57-.28-.48,1.36-.79.28.49Zm2.71-1.57-.27-.48,1.35-.78.28.48Zm2.72-1.56-.28-.49,1.36-.78.28.48Zm2.72-1.57-.28-.49,1.36-.78.28.48Zm2.72-1.57-.28-.49,1.36-.78.27.48Zm2.71-1.57-.28-.48,1.36-.79.28.48Zm2.72-1.57-.28-.48,1.36-.79.28.49Zm2.72-1.57-.28-.48,1.36-.79.27.49Zm2.71-1.57-.28-.48,1.36-.78.28.48Zm2.72-1.57-.28-.48,1.36-.78.28.48Zm2.72-1.56-.28-.49,1.36-.78.28.48Zm2.71-1.57-.27-.49,1.35-.78.28.48Zm2.72-1.57-.28-.48,1.36-.79.28.48Zm2.72-1.57-.28-.48,1.36-.79.28.49Zm-81.5,0-.27-.48,1.35-.79.28.49Zm84.21-1.53-.27-.48,1.35-.79.28.49Zm-81.49,0-.28-.48,1.36-.78.28.48ZM607.29,544l-.28-.48,1.36-.78.28.48Zm-81.49,0-.28-.48,1.36-.78.28.48ZM610,542.41l-.28-.48,1.36-.78.28.48Zm-81.49,0-.28-.49,1.36-.78.27.48Zm84.21-1.53-.28-.49,1.36-.78.27.48Zm-81.5,0-.28-.49,1.36-.78.28.48Zm84.21-1.53-.28-.49,1.36-.78.28.48Zm-81.49,0-.28-.48L535,538l.28.49Zm84.21-1.53-.28-.48,1.36-.79.28.48Zm-81.49,0-.28-.48,1.36-.79.28.49Zm84.21-1.53-.28-.48,1.36-.79.27.49Zm-81.5,0-.28-.48,1.36-.79.28.49Zm84.21-1.53-.28-.48,1.36-.79.28.49Zm-81.49,0-.28-.48,1.36-.78.28.48ZM626.31,533l-.28-.48,1.36-.79.28.49Zm-81.49,0-.28-.49,1.36-.78.28.48ZM629,531.43l-.28-.48,1.36-.78.28.48Zm-81.5,0-.27-.49,1.35-.78.28.48Zm84.21-1.53-.27-.49,1.35-.78.28.48Zm-81.49,0-.28-.48,1.36-.79.28.48Zm84.21-1.53-.28-.49,1.36-.78.28.48Zm-81.49,0-.28-.48,1.36-.79.28.49Zm84.21-1.53-.28-.49,1.36-.78.28.48Zm-81.49,0-.28-.48,1.36-.79.27.49Zm84.2-1.53-.27-.48,1.35-.79.28.49Zm-81.49,0-.28-.48,1.36-.78.28.48Zm84.21-1.53-.28-.48,1.36-.79.28.49Zm-81.49,0-.28-.48,1.36-.78.28.48ZM645.33,522l-.28-.48,1.36-.79.28.49Zm-81.49,0-.28-.49,1.36-.78.28.48Zm84.21-1.54-.28-.48,1.36-.78.27.48Zm-81.5,0-.28-.49,1.36-.78.28.48Zm84.21-1.53-.28-.49,1.36-.78.28.48Zm-81.49,0-.28-.48,1.36-.79.28.48Zm84.21-1.53-.28-.49,1.36-.78.28.48Zm-81.49,0-.28-.48,1.36-.79.28.49Zm84.21-1.53-.28-.49,1.36-.78.28.48Zm-81.5,0-.27-.48,1.35-.79.28.49Zm84.21-1.53-.28-.48,1.36-.79.28.49Zm-81.49,0-.28-.48,1.36-.78.28.48Zm84.21-1.53-.28-.48,1.36-.79.28.49Zm-81.49,0-.28-.49,1.36-.78.28.48ZM664.35,511l-.28-.48,1.36-.79.28.49Zm-81.49,0-.28-.49,1.36-.78.27.48Zm84.2-1.54-.27-.48,1.35-.78.28.48Zm-81.49,0-.28-.49,1.36-.78.28.48Zm84.21-1.54-.28-.48,1.36-.78.28.48Zm-81.49,0-.28-.48,1.36-.79.28.49Zm84.21-1.53-.28-.49,1.36-.78.28.48Zm-81.49,0-.28-.48,1.36-.79.28.49Zm84.2-1.53-.27-.49,1.35-.78.28.48Zm-81.49,0-.28-.48,1.36-.79.28.49Zm84.21-1.53-.28-.48,1.36-.79.28.48Zm-81.49,0-.28-.48,1.36-.78.28.48Zm84.21-1.53-.28-.48,1.36-.79.28.49Zm-81.49,0-.28-.49,1.36-.78.28.48Zm82.59-1.54-1.36-.78.28-.49,1.36.79Zm-79.88,0-.27-.49,1.35-.78.28.48ZM679,498.49l-1.36-.78.28-.48,1.36.78Zm-74.44,0-.28-.48,1.36-.79.28.48Zm71.72-1.54-1.36-.78.28-.48,1.36.78Zm-69,0-.28-.48,1.36-.79.28.49Zm66.29-1.53-1.36-.79.28-.48,1.35.78Zm-63.57,0-.28-.48,1.36-.79.27.49Zm60.85-1.53-1.36-.79.28-.48,1.36.78Zm-58.14,0-.28-.48,1.36-.78.28.48Zm55.42-1.53-1.36-.79.28-.48,1.36.79Zm-52.7,0-.28-.48,1.36-.78.28.48Zm50-1.53-1.35-.78.27-.49,1.36.79Zm-47.26,0-.28-.49,1.36-.78.28.48Zm44.55-1.54-1.36-.78.28-.49,1.36.79Zm-41.84,0-.28-.49,1.36-.78.28.48ZM660,487.51l-1.36-.78.28-.48,1.36.78Zm-36.4,0-.28-.48,1.36-.79.28.48Zm33.68-1.54-1.35-.78.27-.48,1.36.78Zm-31,0-.28-.48,1.36-.79.28.49Zm28.25-1.53-1.36-.79.28-.48,1.36.78Zm-25.54,0-.27-.48,1.35-.79.28.49Zm22.82-1.53L650.5,482l.28-.48,1.36.78Zm-20.1,0-.28-.48,1.36-.78.28.48Zm17.38-1.53-1.36-.79.28-.48,1.36.78Zm-14.66,0-.28-.49,1.36-.78.28.48Zm11.95-1.54-1.36-.78.28-.49,1.35.79Zm-9.23,0-.28-.49,1.36-.78.27.48Zm6.51-1.54-1.36-.78.28-.49,1.36.79Zm-3.8,0-.28-.49,1.36-.78.28.48Z"/><polygon class="cls-3" points="491.06 560.29 490.78 559.8 492.9 558.58 492.9 556.88 493.46 556.88 493.46 558.9 491.06 560.29"/><polygon class="cls-3" points="487.33 559.67 486.77 559.67 486.77 557.65 489.17 556.27 489.45 556.75 487.33 557.97 487.33 559.67"/><polygon class="cls-3" points="488.67 563.53 484.66 561.22 484.94 560.73 488.67 562.89 490.64 561.74 490.64 560.04 491.2 560.04 491.2 562.07 488.67 563.53"/><polygon class="cls-3" points="488.67 565.39 484.52 563 484.52 560.81 486.91 559.43 487.19 559.91 485.08 561.14 485.08 562.67 488.67 564.75 495.15 561 495.15 555.74 491.57 553.67 489.59 554.81 489.59 556.51 489.03 556.51 489.03 554.49 491.57 553.02 495.71 555.42 495.71 561.32 488.67 565.39"/><rect class="cls-3" x="488.39" y="563.21" width="0.56" height="1.86"/><path class="cls-3" d="M607.57,840.93h-9.86V825h2.19v14h7.67Z"/><path class="cls-3" d="M620.94,840.93H610V825h10.69v1.86H612.2v5.05h7.6v1.82h-7.6v5.3h8.74Z"/><path class="cls-3" d="M630.6,840.93h-2.2L622.52,825h2.29l4.75,13.13,4.7-13.13h2.22Z"/><path class="cls-3" d="M649.87,840.93H639V825h10.69v1.86h-8.51v5.05h7.6v1.82h-7.6v5.3h8.74Z"/><path class="cls-3" d="M662.87,840.93H653V825h2.19v14h7.67Z"/><path class="cls-3" d="M669.09,833a10.31,10.31,0,0,1,1.56-6,5.49,5.49,0,0,1,8.77,0,12.26,12.26,0,0,1,0,12,5.5,5.5,0,0,1-8.78,0A10.22,10.22,0,0,1,669.09,833Zm8.76,4.74a11.82,11.82,0,0,0,0-9.47,3.17,3.17,0,0,0-5.61,0,9.21,9.21,0,0,0-1,4.69,9.33,9.33,0,0,0,1,4.74,3.21,3.21,0,0,0,5.63,0Z"/><path class="cls-5" d="M526.33,866.48v-2.16l-1.86-3.26h.79l1.44,2.56,1.44-2.56h.78l-1.86,3.22v2.2Z"/><path class="cls-5" d="M528.73,864.54a2.09,2.09,0,0,1,.51-1.47,1.78,1.78,0,0,1,1.37-.56,1.82,1.82,0,0,1,1.38.56,2.37,2.37,0,0,1,0,2.94,1.78,1.78,0,0,1-1.38.56,1.74,1.74,0,0,1-1.37-.56A2.09,2.09,0,0,1,528.73,864.54Zm2.75,1.06a1.92,1.92,0,0,0,0-2.12,1.17,1.17,0,0,0-1.74,0,1.69,1.69,0,0,0-.31,1.06,1.61,1.61,0,0,0,.31,1.06,1.17,1.17,0,0,0,1.74,0Z"/><path class="cls-5" d="M535.91,862.61h.69v3.87h-.67V866a1.32,1.32,0,0,1-1.16.57,1.38,1.38,0,0,1-1-.39,1.44,1.44,0,0,1-.38-1.06v-2.51H534V865a1.05,1.05,0,0,0,.23.72.81.81,0,0,0,.64.25.91.91,0,0,0,.75-.31,1.44,1.44,0,0,0,.25-.92Z"/><path class="cls-5" d="M542.74,865.9h.19v.58h-.38a.85.85,0,0,1-.51-.15.57.57,0,0,1-.23-.4,1.34,1.34,0,0,1-1.22.64,1.46,1.46,0,0,1-1-.31,1.06,1.06,0,0,1-.37-.82,1.08,1.08,0,0,1,.3-.79,1.51,1.51,0,0,1,.87-.4l1.13-.2a.26.26,0,0,0,.24-.28.64.64,0,0,0-.22-.51.94.94,0,0,0-.62-.2,1,1,0,0,0-.63.18,1,1,0,0,0-.32.54l-.65-.07a1.34,1.34,0,0,1,.53-.87,1.75,1.75,0,0,1,1.09-.33,1.59,1.59,0,0,1,1.1.37,1.32,1.32,0,0,1,.4,1v1.74a.33.33,0,0,0,.06.23A.32.32,0,0,0,542.74,865.9Zm-2.82-.51a.57.57,0,0,0,.2.46.82.82,0,0,0,.55.17,1,1,0,0,0,.8-.35,1.33,1.33,0,0,0,.32-.91v-.23l-1.24.22a.77.77,0,0,0-.47.22A.61.61,0,0,0,539.92,865.39Z"/><path class="cls-5" d="M544.3,866.48h-.69v-3.87h.67v.7a1.19,1.19,0,0,1,1.11-.7h.3v.65h-.31a.92.92,0,0,0-.79.42,2.06,2.06,0,0,0-.29,1.15Z"/><path class="cls-5" d="M547.94,866a.9.9,0,0,0,1-.78l.64.12a1.42,1.42,0,0,1-.55.9,1.79,1.79,0,0,1-1.07.32,1.81,1.81,0,0,1-1.39-.52,2.17,2.17,0,0,1-.48-1.51,2.08,2.08,0,0,1,.5-1.47,1.74,1.74,0,0,1,1.36-.56,1.59,1.59,0,0,1,1.24.5,1.92,1.92,0,0,1,.46,1.36v.33h-2.87C546.8,865.58,547.19,866,547.94,866Zm0-3a1.06,1.06,0,0,0-.78.29,1.36,1.36,0,0,0-.35.84h2.14C548.88,863.44,548.54,863.06,547.91,863.06Z"/><path class="cls-5" d="M555.63,864v2.51h-.69v-2.39a1.08,1.08,0,0,0-.23-.73.89.89,0,0,0-.68-.25.93.93,0,0,0-.77.31,1.38,1.38,0,0,0-.27.92v2.14h-.69v-5.42H553v2a1.35,1.35,0,0,1,1.19-.57,1.45,1.45,0,0,1,1.07.39A1.49,1.49,0,0,1,555.63,864Z"/><path class="cls-5" d="M558.36,866a.91.91,0,0,0,1-.78l.64.12a1.46,1.46,0,0,1-.55.9,2,2,0,0,1-2.46-.2,2.49,2.49,0,0,1,0-3,1.76,1.76,0,0,1,1.36-.56,1.61,1.61,0,0,1,1.25.5,2,2,0,0,1,.45,1.36v.33h-2.86C557.22,865.58,557.61,866,558.36,866Zm0-3a1,1,0,0,0-.77.29,1.36,1.36,0,0,0-.36.84h2.14C559.3,863.44,559,863.06,558.32,863.06Z"/><path class="cls-5" d="M561.64,866.48H561v-3.87h.67v.7a1.21,1.21,0,0,1,1.11-.7h.3v.65h-.31a.92.92,0,0,0-.79.42,2.06,2.06,0,0,0-.29,1.15Z"/><path class="cls-5" d="M565.28,866a.92.92,0,0,0,1-.78l.63.12a1.41,1.41,0,0,1-.54.9,2.06,2.06,0,0,1-2.47-.2,2.17,2.17,0,0,1-.48-1.51,2.13,2.13,0,0,1,.5-1.47,1.76,1.76,0,0,1,1.36-.56,1.63,1.63,0,0,1,1.25.5,2,2,0,0,1,.45,1.36v.33H564.1C564.14,865.58,564.54,866,565.28,866Zm0-3a1.07,1.07,0,0,0-.78.29,1.36,1.36,0,0,0-.35.84h2.14C566.22,863.44,565.88,863.06,565.25,863.06Z"/><polygon class="cls-5" points="516.56 865.86 513.68 867.66 514.51 864.37 511.91 862.19 515.29 861.96 516.56 858.81 517.83 861.96 521.21 862.19 518.61 864.37 519.43 867.66 516.56 865.86"/><polygon class="cls-2" points="418.2 869.43 417.93 868.95 439.5 856.5 439.64 856.58 460.06 868.37 459.78 868.85 439.5 857.14 418.2 869.43"/><rect class="cls-2" x="450.4" y="862.16" width="3.21" height="0.56" transform="translate(-370.43 341.19) rotate(-29.97)"/><path class="cls-2" d="M577.53,777a1.45,1.45,0,0,1-1.58-1.36h.82a.68.68,0,0,0,.76.66c.55,0,.75-.38.75-.85a.7.7,0,0,0-.75-.79.83.83,0,0,0-.68.35h-.8l.1-2.46h2.75v.71h-2l-.05,1a1.33,1.33,0,0,1,.9-.28,1.34,1.34,0,0,1,1.41,1.46A1.47,1.47,0,0,1,577.53,777Z"/><path class="cls-2" d="M423.61,855.87v-.62l1.77-2a.88.88,0,0,0,.23-.56.52.52,0,0,0-.57-.54.58.58,0,0,0-.61.62h-.84a1.3,1.3,0,0,1,1.45-1.31,1.26,1.26,0,0,1,1.4,1.23,1.74,1.74,0,0,1-.49,1.06l-1.26,1.45h1.82v.7Z"/><path class="cls-2" d="M464.7,780v.88h-.82V780h-2v-.74l1.66-2.74h.89l-1.69,2.77h1.16v-1h.82v1h.57V780Z"/><polygon class="cls-2" points="454.93 860.91 443.4 854.25 449.43 850.76 460.68 857.26 460.4 857.75 449.43 851.41 444.51 854.25 455.21 860.42 454.93 860.91"/><polygon class="cls-2" points="453.54 861.87 453.26 861.39 470.49 851.44 479.93 856.89 479.65 857.38 470.49 852.09 453.54 861.87"/><rect class="cls-2" x="441.22" y="832.17" width="0.56" height="5.16" transform="translate(-502.07 797.35) rotate(-59.86)"/><polygon class="cls-2" points="479.08 810.78 478.94 810.71 410.27 771.06 451.71 747.13 451.85 747.21 520.52 786.86 495.3 801.42 495.02 800.93 519.4 786.86 451.71 747.78 411.38 771.06 479.08 810.14 488.26 804.84 488.54 805.33 479.08 810.78"/><path class="cls-2" d="M460.54,857.83l-11.67-6.74,6.63-3.83L467.18,854ZM450,851.09l10.56,6.09,5.52-3.18-10.56-6.1Z"/><rect class="cls-2" x="461.52" y="836.71" width="0.56" height="20.07" transform="translate(-502.4 823.31) rotate(-60)"/><polygon class="cls-3" points="444.19 839.5 441.1 837.72 441.38 837.24 443.63 838.54 443.63 837 447.77 834.61 448.97 835.3 448.69 835.78 447.77 835.25 444.19 837.32 444.19 839.5"/><polygon class="cls-3" points="449.24 844.28 440.96 839.5 440.96 837.32 445.11 834.93 446.3 835.62 446.02 836.1 445.11 835.57 441.52 837.64 441.52 839.18 449.24 843.64 452.97 841.49 453.25 841.97 449.24 844.28"/><rect class="cls-3" x="448.96" y="838.38" width="0.56" height="5.58"/><polygon class="cls-3" points="453.39 841.73 452.83 841.73 452.83 836.31 450.44 834.93 446.85 837 446.85 839.18 443.77 837.4 444.05 836.92 446.3 838.22 446.3 836.68 450.44 834.29 453.39 835.99 453.39 841.73"/><rect class="cls-3" x="448.94" y="836.98" width="4.47" height="0.56" transform="translate(-357.97 337.41) rotate(-29.97)"/><rect class="cls-3" x="447.63" y="836.07" width="0.56" height="3.08" transform="matrix(0.5, -0.87, 0.87, 0.5, -501.44, 806.77)"/><rect class="cls-2" x="487.87" y="802.85" width="7.82" height="0.56" transform="translate(-335.48 353.13) rotate(-29.97)"/><rect class="cls-3" x="488.12" y="803.22" width="0.56" height="1.86"/><rect class="cls-3" x="490.7" y="795.41" width="0.56" height="4.47" transform="translate(-445.29 824.02) rotate(-60)"/><polygon class="cls-3" points="490.79 800.3 490.51 799.82 492.63 798.6 492.63 796.9 493.19 796.9 493.19 798.92 490.79 800.3"/><polygon class="cls-3" points="487.06 799.69 486.51 799.69 486.51 797.67 488.9 796.28 489.18 796.77 487.06 797.99 487.06 799.69"/><rect class="cls-3" x="488.44" y="796.71" width="0.56" height="4.47" transform="translate(-447.55 822.72) rotate(-60)"/><rect class="cls-3" x="488.44" y="798.57" width="0.56" height="4.47" transform="translate(-449.16 823.65) rotate(-60)"/><polygon class="cls-3" points="488.54 803.47 488.26 802.98 490.37 801.76 490.37 800.06 490.93 800.06 490.93 802.08 488.54 803.47"/><rect class="cls-3" x="486.18" y="799.87" width="0.56" height="4.47" transform="translate(-451.41 822.37) rotate(-60)"/><rect class="cls-3" x="490.7" y="793.55" width="0.56" height="4.47" transform="translate(-443.68 823.09) rotate(-60)"/><polygon class="cls-3" points="488.4 805.41 484.25 803.01 484.25 800.83 486.65 799.45 486.92 799.93 484.81 801.15 484.81 802.69 488.4 804.76 494.89 801.02 494.89 795.75 491.3 793.68 489.32 794.83 489.32 796.52 488.76 796.52 488.76 794.5 491.3 793.04 495.44 795.43 495.44 801.34 488.4 805.41"/><rect class="cls-3" x="492.73" y="795.97" width="2.61" height="0.56" transform="translate(-331.74 353.33) rotate(-29.97)"/><path class="cls-2" d="M506.63,832a1.43,1.43,0,0,1-1.54-1.34h.82a.67.67,0,0,0,.73.65.64.64,0,0,0,.72-.65c0-.45-.37-.66-.8-.66h-.34v-.68h.34c.45,0,.7-.18.7-.58a.58.58,0,0,0-.62-.57c-.4,0-.69.19-.7.59h-.82a1.35,1.35,0,0,1,1.52-1.28,1.3,1.3,0,0,1,1.45,1.24,1,1,0,0,1-.65.93,1,1,0,0,1,.74,1C508.18,831.52,507.49,832,506.63,832Z"/><polygon class="cls-2" points="490.83 827.85 478.45 820.71 501.95 807.14 514.05 814.12 513.77 814.61 501.95 807.78 479.57 820.71 491.11 827.37 490.83 827.85"/><polygon class="cls-2" points="500.82 845.15 480.43 833.38 513.91 814.04 514.05 814.12 534.03 825.66 533.75 826.14 513.91 814.68 481.54 833.38 501.1 844.67 500.82 845.15"/><rect class="cls-2" x="513.23" y="790.59" width="0.56" height="47.08" transform="translate(-448.3 851.78) rotate(-60)"/><polygon class="cls-2" points="438.49 881.3 438.35 881.22 397.15 857.44 478.94 810.22 479.22 810.71 398.27 857.44 438.49 880.66 681.73 740.22 641.51 717 520.1 787.1 519.82 786.62 641.51 716.36 642.77 717.09 682.85 740.22 682.43 740.46 438.49 881.3"/><polygon class="cls-5" points="435.59 871.03 432.58 872.91 433.44 869.48 430.73 867.2 434.26 866.96 435.59 863.67 436.91 866.96 440.45 867.2 437.73 869.48 438.59 872.91 435.59 871.03"/><rect class="cls-2" x="486.4" y="344.04" width="1.91" height="10.51"/><path class="cls-2" d="M485.6,339.59a3.29,3.29,0,0,0-3.29,3.29V344h1.91v-1.16a1.38,1.38,0,0,1,1.38-1.38h5.84v-1.91Z"/><path class="cls-2" d="M483.05,353.59a1.91,1.91,0,0,1-1.91,1.91v1.91a3.82,3.82,0,0,0,3.82-3.82v-3.82h-1.91Z"/><rect class="cls-2" x="453.43" y="356.46" width="3.82" height="1.91"/><path class="cls-2" d="M478.27,351.68a1,1,0,1,1-1.91,0v-.95h-1.91v.95a1,1,0,0,1-.95,1h-1.92v-1.91h-1.91v1.91h-9.55a1,1,0,0,1-1-1v-.95h-1.91v.95a1,1,0,0,1-1,1h-2.86a1,1,0,0,1-1-1h0a2.81,2.81,0,0,0-1.06-2.22,2.87,2.87,0,1,0-1.8,5.09,2.75,2.75,0,0,0,.95-.17v.17a1.92,1.92,0,0,1-1.91,1.91h-1v1.91h1a3.82,3.82,0,0,0,3.82-3.82v-.17a2.85,2.85,0,0,0,1,.17h2.86a2.85,2.85,0,0,0,1.92-.74,2.81,2.81,0,0,0,1.91.74H473.5a2.85,2.85,0,0,0,1.91-.74,2.81,2.81,0,0,0,1.91.74,2.87,2.87,0,0,0,2.86-2.87v-1.91h-1.91Zm-28.66,1a1,1,0,0,1-.75-.36,1,1,0,0,1-.19-.81,1,1,0,0,1,.72-.72.86.86,0,0,1,.22,0,.94.94,0,0,1,.95.95h0A1,1,0,0,1,449.61,352.64Z"/><polygon class="cls-2" points="476.36 344.04 474.45 344.04 474.45 345.95 472.54 345.95 472.54 347.86 476.36 347.86 476.36 344.04"/><path class="cls-2" d="M486.4,387.37v2.87h-4.78v-1.91h-1.91v3.82a1.92,1.92,0,0,1-1.91,1.91V396a3.83,3.83,0,0,0,3.82-3.82h6.69v-4.78Z"/><polygon class="cls-2" points="482.57 395.97 484.49 395.97 484.49 397.88 486.4 397.88 486.4 395.97 486.4 394.06 482.57 394.06 482.57 395.97"/><polygon class="cls-2" points="481.62 381.64 479.71 381.64 479.71 383.55 477.8 383.55 477.8 385.46 481.62 385.46 481.62 381.64"/><polygon class="cls-2" points="451.68 381.64 449.76 381.64 449.76 383.55 447.85 383.55 447.85 385.46 451.68 385.46 451.68 381.64"/><path class="cls-2" d="M474.13,386.42a2.87,2.87,0,1,0,0,5.73,2.77,2.77,0,0,0,1-.17v.17a1.92,1.92,0,0,1-1.92,1.91h-.95V396h.95a3.83,3.83,0,0,0,3.83-3.82v-2.87A2.87,2.87,0,0,0,474.13,386.42Zm0,3.82a1,1,0,1,1,1-1A1,1,0,0,1,474.13,390.24Z"/><path class="cls-2" d="M463.6,384.88l3.84,3.84v1.52h-1.6a2.77,2.77,0,0,0,.17-1,2.87,2.87,0,0,0-5.73,0,3,3,0,0,0,.16,1h-4a1,1,0,0,1-.95-1v-1.91h-1.91v1.91a1,1,0,1,1-1.91,0v-.95h-1.91v.95a1,1,0,0,1-1,1H446.9v-1.91H445v4.3a2.39,2.39,0,1,1-4.77,0v-2.39H438.3v2.39a4.3,4.3,0,0,0,8.6,0v-.48h1.91a2.83,2.83,0,0,1,3.82,0,2.83,2.83,0,0,1,3.82,0h12.9v-4.22l-4.4-4.4Zm-1.41,4.4a1,1,0,1,1,.95,1A1,1,0,0,1,462.19,389.28Z"/><path class="cls-2" d="M628.36,664.87a2.86,2.86,0,1,0,2.86,2.86A2.86,2.86,0,0,0,628.36,664.87Zm0,3.81a.95.95,0,1,1,.95-.95A1,1,0,0,1,628.36,668.68Z"/><path class="cls-2" d="M647.42,670.59a1.9,1.9,0,0,1-1.91,1.9v1.91a3.82,3.82,0,0,0,3.82-3.81v-3.82h-1.91Z"/><path class="cls-2" d="M660.77,664.87h-2.95l3.14-3.14-1.34-1.35L655.05,665v1.83h5.72a1,1,0,0,1,1,1v.95h-8.58V660.1h-1.91v10.49h12.4v-2.86A2.87,2.87,0,0,0,660.77,664.87Z"/><path class="cls-2" d="M645.51,670.59v-2.86a2.86,2.86,0,0,0-2.86-2.86h-2.94l3.14-3.14-1.35-1.35L636.94,665v1.83h5.71a1,1,0,0,1,1,1v.95H635V660.1h-1.91v10.49h12.39Z"/><rect class="cls-2" x="636.34" y="659.15" width="4.04" height="1.91" transform="translate(-279.79 644.73) rotate(-45)"/><path class="cls-2" d="M618.83,664.87a2.86,2.86,0,0,0-2.86,2.86,3,3,0,0,0,.16.95h-2.07v-1.9h-1.91v3.81a1.9,1.9,0,0,1-1.9,1.9v1.91a3.82,3.82,0,0,0,3.81-3.81h4.77a2.86,2.86,0,0,0,0-5.72Zm0,3.81a.95.95,0,1,1,.95-.95A1,1,0,0,1,618.83,668.68Z"/><rect class="cls-2" x="617.87" y="661.06" width="1.91" height="1.88"/><polygon class="cls-2" points="606.43 661.06 604.53 661.06 604.53 662.96 602.62 662.96 602.62 664.87 606.43 664.87 606.43 661.06"/><path class="cls-2" d="M610.25,665.82h-1.91v1.91a1,1,0,0,1-1.91,0v-1h-1.9v1a.93.93,0,0,1-.93.93h-1.93v-1.9h-1.91v4.28a2.38,2.38,0,1,1-4.76,0v-2.38h-1.91v2.38a4.29,4.29,0,0,0,8.58,0v-.47h1.93a2.82,2.82,0,0,1,3.79,0,2.87,2.87,0,0,0,2.86-2.86Z"/><path class="cls-2" d="M570.29,973.79h-1v-7.51h3a2.64,2.64,0,0,1,1.88.67,2.15,2.15,0,0,1,.73,1.68,2.42,2.42,0,0,1-.74,1.8,2.56,2.56,0,0,1-1.87.72h-1.94Zm3.51-5.16a1.34,1.34,0,0,0-.46-1.06,1.7,1.7,0,0,0-1.19-.42h-1.86v3.13h1.86a1.58,1.58,0,0,0,1.65-1.65Z"/><path class="cls-2" d="M580.61,970.31v3.48h-1v-3.3a1.46,1.46,0,0,0-.32-1,1.22,1.22,0,0,0-.94-.36,1.32,1.32,0,0,0-1.07.44,1.89,1.89,0,0,0-.37,1.27v3h-1v-7.51h1v2.8a1.87,1.87,0,0,1,1.65-.78,2,2,0,0,1,1.47.54A2,2,0,0,1,580.61,970.31Z"/><path class="cls-2" d="M581.79,971.11a2.92,2.92,0,0,1,.7-2,2.49,2.49,0,0,1,1.9-.77,2.52,2.52,0,0,1,1.91.77,2.86,2.86,0,0,1,.72,2,2.89,2.89,0,0,1-.72,2,2.52,2.52,0,0,1-1.91.77,2.49,2.49,0,0,1-1.9-.77A2.91,2.91,0,0,1,581.79,971.11Zm3.81,1.47a2.68,2.68,0,0,0,0-2.94,1.61,1.61,0,0,0-2.41,0,2.28,2.28,0,0,0-.43,1.47,2.24,2.24,0,0,0,.43,1.47,1.61,1.61,0,0,0,2.41,0Z"/><path class="cls-2" d="M587.57,969.21v-.78h.94V966.7h1v1.73h1.36v.78h-1.36v3a.89.89,0,0,0,.15.59.67.67,0,0,0,.52.17H591v.81h-1a1.47,1.47,0,0,1-1.09-.37,1.42,1.42,0,0,1-.38-1.07v-3.14Z"/><path class="cls-2" d="M591.51,971.11a2.93,2.93,0,0,1,.71-2,2.47,2.47,0,0,1,1.9-.77,2.52,2.52,0,0,1,1.91.77,2.85,2.85,0,0,1,.71,2,2.88,2.88,0,0,1-.71,2,2.52,2.52,0,0,1-1.91.77,2.47,2.47,0,0,1-1.9-.77A2.91,2.91,0,0,1,591.51,971.11Zm3.82,1.47a2.68,2.68,0,0,0,0-2.94,1.48,1.48,0,0,0-1.21-.54,1.46,1.46,0,0,0-1.2.54,2.28,2.28,0,0,0-.43,1.47,2.24,2.24,0,0,0,.43,1.47,1.46,1.46,0,0,0,1.2.54A1.48,1.48,0,0,0,595.33,972.58Z"/><path class="cls-2" d="M600,973.47a2.18,2.18,0,0,1-1.7-.7,2.66,2.66,0,0,1-.62-1.87,2.74,2.74,0,0,1,.63-1.88,2.13,2.13,0,0,1,1.69-.72,2,2,0,0,1,1.66.78v-.65h.93v5.12a2.3,2.3,0,0,1-.63,1.72,2.38,2.38,0,0,1-1.76.63,2.71,2.71,0,0,1-1.69-.48,1.83,1.83,0,0,1-.72-1.32l1-.09a1.24,1.24,0,0,0,.46.83,1.63,1.63,0,0,0,1,.27,1.33,1.33,0,0,0,1.07-.41,1.77,1.77,0,0,0,.37-1.21v-.83A2,2,0,0,1,600,973.47Zm-.94-3.89a2.38,2.38,0,0,0,0,2.61,1.4,1.4,0,0,0,1.11.47,1.35,1.35,0,0,0,1.08-.49,2,2,0,0,0,.41-1.28,1.9,1.9,0,0,0-.42-1.28,1.3,1.3,0,0,0-1.07-.51A1.38,1.38,0,0,0,599.05,969.58Z"/><path class="cls-2" d="M605.1,973.79h-1v-5.36h.93v1a1.65,1.65,0,0,1,1.53-1H607v.9h-.43a1.26,1.26,0,0,0-1.09.59,2.68,2.68,0,0,0-.41,1.59Z"/><path class="cls-2" d="M612.41,973h.25v.79h-.52a1.18,1.18,0,0,1-.7-.2.72.72,0,0,1-.32-.56,1.88,1.88,0,0,1-1.7.89,2,2,0,0,1-1.35-.43,1.43,1.43,0,0,1-.51-1.13,1.49,1.49,0,0,1,.41-1.1,2.17,2.17,0,0,1,1.2-.56l1.57-.27a.36.36,0,0,0,.34-.38.9.9,0,0,0-.32-.71,1.24,1.24,0,0,0-.86-.28,1.33,1.33,0,0,0-.86.25,1.22,1.22,0,0,0-.44.75l-.91-.11a1.9,1.9,0,0,1,.73-1.2,2.49,2.49,0,0,1,1.52-.45,2.12,2.12,0,0,1,1.51.51,1.78,1.78,0,0,1,.56,1.37v2.41a.45.45,0,0,0,.09.32A.43.43,0,0,0,612.41,973Zm-3.91-.71a.81.81,0,0,0,.27.64,1.17,1.17,0,0,0,.76.23,1.43,1.43,0,0,0,1.12-.49,1.84,1.84,0,0,0,.44-1.26v-.31l-1.72.3a1,1,0,0,0-.65.3A.8.8,0,0,0,608.5,972.29Z"/><path class="cls-2" d="M616.3,968.3a2.21,2.21,0,0,1,1.74.76,2.93,2.93,0,0,1,.66,2,3.1,3.1,0,0,1-.66,2.07,2.17,2.17,0,0,1-1.74.78,2,2,0,0,1-1.74-.87v2.73h-1v-7.35h.94v.81A2,2,0,0,1,616.3,968.3Zm1.41,2.81a2.29,2.29,0,0,0-.42-1.45,1.37,1.37,0,0,0-1.13-.55,1.44,1.44,0,0,0-1.18.55,2.22,2.22,0,0,0-.44,1.45,2.27,2.27,0,0,0,.44,1.44,1.47,1.47,0,0,0,1.18.55,1.36,1.36,0,0,0,1.13-.54A2.31,2.31,0,0,0,617.71,971.11Z"/><path class="cls-2" d="M624.55,970.31v3.48h-.95v-3.3a1.41,1.41,0,0,0-.33-1,1.21,1.21,0,0,0-.94-.36,1.33,1.33,0,0,0-1.07.44,1.94,1.94,0,0,0-.36,1.27v3h-1v-7.51h1v2.8a1.87,1.87,0,0,1,1.65-.78,2,2,0,0,1,1.47.54A2,2,0,0,1,624.55,970.31Z"/><path class="cls-2" d="M627.28,974.29l.17-.47-2.11-5.39h1l1.59,4.22,1.6-4.22h1l-2.34,6a2.38,2.38,0,0,1-.73,1.09,1.8,1.8,0,0,1-1.1.3h-.56V975h.56a1,1,0,0,0,.59-.15A1.1,1.1,0,0,0,627.28,974.29Z"/><path class="cls-2" d="M636.39,973.92a3.3,3.3,0,0,1-2.15-.65,2.26,2.26,0,0,1-.82-1.79l1-.13a1.71,1.71,0,0,0,.54,1.28,2.07,2.07,0,0,0,1.42.44,1.73,1.73,0,0,0,1.16-.36,1.21,1.21,0,0,0,.43-1,1,1,0,0,0-.3-.77,2.22,2.22,0,0,0-1-.43l-1-.22a3,3,0,0,1-1.52-.73,1.94,1.94,0,0,1-.49-1.36,1.88,1.88,0,0,1,.7-1.46,2.7,2.7,0,0,1,1.82-.6,2.92,2.92,0,0,1,1.89.57,2.29,2.29,0,0,1,.81,1.6l-1,.13a1.51,1.51,0,0,0-1.68-1.46,1.69,1.69,0,0,0-1.11.33,1.2,1.2,0,0,0-.11,1.66,1.92,1.92,0,0,0,.94.42l1.16.25a2.89,2.89,0,0,1,1.49.71,1.78,1.78,0,0,1,.48,1.31,2.06,2.06,0,0,1-.72,1.61A2.79,2.79,0,0,1,636.39,973.92Z"/><path class="cls-2" d="M639.69,969.21v-.78h.95V966.7h1v1.73h1.35v.78h-1.35v3a.89.89,0,0,0,.15.59.67.67,0,0,0,.52.17h.81v.81h-1a1.51,1.51,0,0,1-1.1-.37,1.42,1.42,0,0,1-.37-1.07v-3.14Z"/><path class="cls-2" d="M647.56,968.43h1v5.36h-.93v-.65a1.81,1.81,0,0,1-1.61.78,1.91,1.91,0,0,1-1.43-.54,2,2,0,0,1-.53-1.47v-3.48h1v3.31a1.4,1.4,0,0,0,.32,1,1.11,1.11,0,0,0,.89.36,1.26,1.26,0,0,0,1-.44,2,2,0,0,0,.35-1.27Z"/><path class="cls-2" d="M652.16,973.92a2.21,2.21,0,0,1-1.75-.75,3,3,0,0,1-.64-2,3.09,3.09,0,0,1,.65-2.07,2.17,2.17,0,0,1,1.74-.78,2.05,2.05,0,0,1,1.74.87v-2.89h1v7.51h-.93V973A2,2,0,0,1,652.16,973.92Zm-1.42-2.81a2.31,2.31,0,0,0,.42,1.45,1.37,1.37,0,0,0,1.14.54,1.47,1.47,0,0,0,1.18-.55,2.57,2.57,0,0,0,0-2.89,1.46,1.46,0,0,0-1.17-.55,1.38,1.38,0,0,0-1.14.55A2.29,2.29,0,0,0,650.74,971.11Z"/><path class="cls-2" d="M657.39,967.56h-.95v-1.28h.95Zm0,6.23h-.95v-5.36h.95Z"/><path class="cls-2" d="M658.63,971.11a2.93,2.93,0,0,1,.71-2,2.49,2.49,0,0,1,1.9-.77,2.52,2.52,0,0,1,1.91.77,2.86,2.86,0,0,1,.72,2,2.89,2.89,0,0,1-.72,2,2.52,2.52,0,0,1-1.91.77,2.49,2.49,0,0,1-1.9-.77A2.91,2.91,0,0,1,658.63,971.11Zm3.82,1.47a2.68,2.68,0,0,0,0-2.94,1.61,1.61,0,0,0-2.41,0,2.28,2.28,0,0,0-.43,1.47,2.24,2.24,0,0,0,.43,1.47,1.61,1.61,0,0,0,2.41,0Z"/><path class="cls-2" d="M599.66,952.8h2.4v-1.91h-2.4a2.87,2.87,0,0,0-2.87,2.87,2.75,2.75,0,0,0,.17,1H594.4v-1a2.86,2.86,0,0,0-2.87-2.87h-2.95l3.63-3.63-1.35-1.36L585.79,951v1.83h5.74a1,1,0,0,1,1,1v1h-8.61V946.1H582v10.53h20.09v-1.92h-2.4a1,1,0,0,1,0-1.91Z"/><path class="cls-2" d="M578.14,953.76a1,1,0,0,1-1.91,0v-1h-1.92v1a1,1,0,0,1-.95,1h-1.92V952.8h-1.91v1.91H560v1.92h3.82v1.91H560a1.92,1.92,0,0,1-1.92-1.92v-1.91h-1.91v1.91a3.84,3.84,0,0,0,3.83,3.83h5.73v-3.82h7.66a2.83,2.83,0,0,1,3.82,0,2.87,2.87,0,0,0,2.87-2.87v-1.92h-1.91Z"/><rect class="cls-2" x="661.84" y="946.1" width="1.91" height="10.52"/><path class="cls-2" d="M622.14,950.89h-1.91v1.91h1.91a1,1,0,0,1,1,1v1h-2.87v1.92H625v-2.87A2.86,2.86,0,0,0,622.14,950.89Z"/><path class="cls-2" d="M616.4,954.71h-3.82a1,1,0,0,1-1-1h0a2.87,2.87,0,1,0-2.87,2.88,3,3,0,0,0,1-.17v.17a1.92,1.92,0,0,1-1.92,1.91h-.95v1.91h.95a3.83,3.83,0,0,0,3.83-3.82v-.17a2.81,2.81,0,0,0,1,.17h5.74v-4.79H616.4Zm-7.65,0a1,1,0,0,1-.74-.35,1,1,0,0,1,.52-1.54l.22,0a1,1,0,0,1,1,1h0A1,1,0,0,1,608.75,954.71Z"/><rect class="cls-2" x="612.58" y="958.54" width="3.83" height="1.91"/><rect class="cls-2" x="633.62" y="948.97" width="3.83" height="1.91"/><path class="cls-2" d="M658.49,953.76a1,1,0,0,1-1.91,0v-1h-1.91v1a1,1,0,0,1-1,1H651.8V952.8h-1.92v1.91h-9.56a1,1,0,0,1-1-1v-1h-1.91v1a1,1,0,0,1-1,1h-2.87a1,1,0,0,1-1-1h0a2.87,2.87,0,1,0-2.87,2.88,3,3,0,0,0,1-.17v.17a1.92,1.92,0,0,1-1.91,1.91h-1v1.91h1a3.83,3.83,0,0,0,3.83-3.82v-.17a2.75,2.75,0,0,0,1,.17h2.87a2.9,2.9,0,0,0,1.92-.74,2.86,2.86,0,0,0,1.91.74h13.39a2.86,2.86,0,0,0,1.91-.74,2.87,2.87,0,0,0,4.79-2.13v-1.92h-1.92Zm-28.69,1a1,1,0,0,1-.75-.35,1,1,0,0,1-.19-.82,1,1,0,0,1,.72-.72l.22,0a.94.94,0,0,1,1,1h0A1,1,0,0,1,629.8,954.71Z"/></g></svg>