<svg xmlns="http://www.w3.org/2000/svg" viewBox="0 0 1920 1080"><defs><style>.cls-1{fill:#082b96;}.cls-2{fill:#fff;}.cls-3,.cls-5,.cls-6{fill:none;stroke:#fff;stroke-miterlimit:10;}.cls-3{stroke-width:2.66px;}.cls-4{fill:#4672e2;}.cls-5{stroke-width:0.84px;stroke-dasharray:10.11 10.11;}.cls-7{fill:#ffec00;}.cls-8{fill:#a9afb0;}</style></defs><g id="Background"><rect class="cls-1" width="1920" height="1080"/></g><g id="Graphics"><path class="cls-2" d="M381.05,305.19l0,66.39h0a33.87,33.87,0,0,0,0-66.39Z"/><polyline class="cls-3" points="415.4 393.78 381.04 371.58 381.03 371.58 341.29 345.9 329.65 338.39 341.29 330.87 381.05 305.19 415.4 282.99"/><polygon class="cls-4" points="1313.99 179.94 1313.99 496.83 1289.55 492.52 1289.55 286 824.72 410.56 415.4 338.38 1313.99 179.94"/><path class="cls-2" d="M381.05,489l0,66.39h0a33.87,33.87,0,0,0,0-66.39Z"/><polyline class="cls-3" points="415.4 577.57 381.04 555.37 381.03 555.37 341.29 529.69 329.65 522.18 341.29 514.66 381.05 488.98 415.4 466.78"/><polygon points="1289.55 286 1289.55 492.52 824.72 410.56 1289.55 286"/><polygon class="cls-4" points="1289.55 492.52 1289.55 758.34 408.19 522.17 824.72 410.56 1289.55 492.52"/><line class="cls-5" x1="408.19" y1="522.17" x2="1284.9" y2="522.17"/><rect class="cls-2" x="1289.6" y="112.02" width="31.44" height="900.87"/><line class="cls-5" x1="412.88" y1="338.38" x2="1289.6" y2="338.38"/><line class="cls-6" x1="1346.92" y1="286" x2="1680.83" y2="286"/><line class="cls-6" x1="1346.92" y1="758.33" x2="1680.83" y2="758.33"/><rect class="cls-7" x="1346.92" y="286" width="20.48" height="206.52"/><path class="cls-2" d="M1414.74,324h20.77v3.2H1427v24.15h-3.72V327.2h-8.55Z"/><path class="cls-2" d="M1451.82,348.45h.93v2.9h-1.88a4.35,4.35,0,0,1-2.58-.74,2.68,2.68,0,0,1-1.16-2,6.84,6.84,0,0,1-6.18,3.25,7.26,7.26,0,0,1-4.92-1.6,5.13,5.13,0,0,1-1.87-4.11,5.48,5.48,0,0,1,1.52-4,7.74,7.74,0,0,1,4.37-2l5.7-1a1.31,1.31,0,0,0,1.22-1.41,3.28,3.28,0,0,0-1.14-2.58,4.56,4.56,0,0,0-3.13-1,5,5,0,0,0-3.14.88,4.71,4.71,0,0,0-1.61,2.74l-3.3-.38a6.73,6.73,0,0,1,2.66-4.37,9,9,0,0,1,5.53-1.66,7.82,7.82,0,0,1,5.52,1.87,6.49,6.49,0,0,1,2,5V347a1.65,1.65,0,0,0,.32,1.15A1.62,1.62,0,0,0,1451.82,348.45Zm-14.23-2.57a2.88,2.88,0,0,0,1,2.32,4.17,4.17,0,0,0,2.77.84,5.21,5.21,0,0,0,4.07-1.78,6.64,6.64,0,0,0,1.59-4.59v-1.12l-6.25,1.08a4.11,4.11,0,0,0-2.36,1.09A3,3,0,0,0,1437.59,345.88Z"/><path class="cls-2" d="M1464.14,348.85a5,5,0,0,0,3.53-1.23,5.39,5.39,0,0,0,1.6-3.46l3.4.4a7.87,7.87,0,0,1-2.7,5.29,9.62,9.62,0,0,1-12.58-.77,12.45,12.45,0,0,1,0-14.91,8.57,8.57,0,0,1,6.71-2.83,8.93,8.93,0,0,1,5.91,1.88,8.06,8.06,0,0,1,2.73,5.31l-3.55.4q-.7-4.6-5.13-4.61a4.89,4.89,0,0,0-4.12,1.92,8.78,8.78,0,0,0-1.47,5.42A8.45,8.45,0,0,0,1460,347,5,5,0,0,0,1464.14,348.85Z"/><path class="cls-2" d="M1474.72,334.68v-2.86h3.44v-6.29h3.47v6.29h4.92v2.86h-4.92v10.93a3.26,3.26,0,0,0,.54,2.15,2.41,2.41,0,0,0,1.88.61h3v3h-3.51a5.46,5.46,0,0,1-4-1.35,5.24,5.24,0,0,1-1.37-3.91V334.68Z"/><path class="cls-2" d="M1494.16,328.65h-3.47V324h3.47Zm0,22.7h-3.47V331.82h3.47Z"/><path class="cls-2" d="M1503.41,351.35h-3.47V324h3.47Z"/><path class="cls-2" d="M1517.39,349a4.6,4.6,0,0,0,5-3.94l3.2.63a7.11,7.11,0,0,1-2.76,4.49,8.74,8.74,0,0,1-5.4,1.65,9.09,9.09,0,0,1-7-2.65q-2.45-2.65-2.45-7.6a10.53,10.53,0,0,1,2.53-7.41,8.75,8.75,0,0,1,6.85-2.83,8.09,8.09,0,0,1,6.3,2.52,9.86,9.86,0,0,1,2.28,6.87v1.67h-14.45Q1511.73,349,1517.39,349Zm-.17-14.87a5.3,5.3,0,0,0-3.92,1.45,6.88,6.88,0,0,0-1.79,4.25h10.8Q1522,334.13,1517.22,334.13Z"/><path class="cls-2" d="M1426.53,398.7a12,12,0,0,1-7.84-2.39,8.25,8.25,0,0,1-3-6.52l3.68-.48a6.29,6.29,0,0,0,2,4.69,7.61,7.61,0,0,0,5.16,1.61,6.28,6.28,0,0,0,4.24-1.33,4.42,4.42,0,0,0,1.56-3.55,3.63,3.63,0,0,0-1.09-2.82,8.11,8.11,0,0,0-3.76-1.57l-3.64-.78a10.67,10.67,0,0,1-5.52-2.69,7.24,7.24,0,0,1,.75-10.26,9.76,9.76,0,0,1,6.64-2.2,10.5,10.5,0,0,1,6.87,2.1,8.22,8.22,0,0,1,2.93,5.84l-3.7.46q-.64-5.31-6.1-5.31a6.21,6.21,0,0,0-4,1.18,4.33,4.33,0,0,0-.39,6.05,6.7,6.7,0,0,0,3.39,1.55l4.25.91a10.41,10.41,0,0,1,5.42,2.56,6.53,6.53,0,0,1,1.74,4.78,7.48,7.48,0,0,1-2.62,5.86A10.13,10.13,0,0,1,1426.53,398.7Z"/><path class="cls-2" d="M1444.31,375.52h-3.48v-4.65h3.48Zm0,22.7h-3.48V378.69h3.48Z"/><path class="cls-2" d="M1457.39,397.06a7.93,7.93,0,0,1-6.18-2.56,11.32,11.32,0,0,1,0-13.65,7.7,7.7,0,0,1,6.14-2.64,7.14,7.14,0,0,1,6,2.86v-2.38h3.4v18.63a8.52,8.52,0,0,1-2.3,6.3,8.72,8.72,0,0,1-6.42,2.29,9.94,9.94,0,0,1-6.15-1.75,6.66,6.66,0,0,1-2.62-4.81l3.47-.35a4.61,4.61,0,0,0,1.68,3.05,5.9,5.9,0,0,0,3.62,1,5,5,0,0,0,3.91-1.49,6.41,6.41,0,0,0,1.34-4.41v-3.05A7,7,0,0,1,1457.39,397.06Zm-3.4-14.19a7.19,7.19,0,0,0-1.45,4.77,7.1,7.1,0,0,0,1.45,4.74,5,5,0,0,0,4,1.7,4.88,4.88,0,0,0,3.91-1.77,8,8,0,0,0,0-9.33,4.75,4.75,0,0,0-3.87-1.83A5,5,0,0,0,1454,382.87Z"/><path class="cls-2" d="M1489.31,385.56v12.66h-3.47v-12a5.21,5.21,0,0,0-1.19-3.68,4.44,4.44,0,0,0-3.42-1.28,4.81,4.81,0,0,0-3.89,1.58,7,7,0,0,0-1.34,4.63v10.78h-3.47V378.69h3.4v2.46a6.85,6.85,0,0,1,6.08-2.94,7.17,7.17,0,0,1,5.36,2A7.28,7.28,0,0,1,1489.31,385.56Z"/><path class="cls-2" d="M1511.15,395.32h.94v2.9h-1.89a4.34,4.34,0,0,1-2.58-.73,2.75,2.75,0,0,1-1.16-2,6.82,6.82,0,0,1-6.18,3.25,7.3,7.3,0,0,1-4.92-1.6,5.13,5.13,0,0,1-1.87-4.11,5.46,5.46,0,0,1,1.53-4,7.68,7.68,0,0,1,4.36-2l5.71-1a1.33,1.33,0,0,0,1.22-1.42,3.26,3.26,0,0,0-1.15-2.58,4.55,4.55,0,0,0-3.12-1,5,5,0,0,0-3.15.89,4.59,4.59,0,0,0-1.6,2.73l-3.3-.38a6.68,6.68,0,0,1,2.66-4.37,9,9,0,0,1,5.52-1.66,7.82,7.82,0,0,1,5.52,1.87,6.49,6.49,0,0,1,2,5v8.79A1.6,1.6,0,0,0,1510,395,1.58,1.58,0,0,0,1511.15,395.32Zm-14.23-2.57a2.85,2.85,0,0,0,1,2.32,4.14,4.14,0,0,0,2.76.84,5.21,5.21,0,0,0,4.07-1.78,6.65,6.65,0,0,0,1.6-4.59v-1.12l-6.26,1.08a4.07,4.07,0,0,0-2.35,1.09A3,3,0,0,0,1496.92,392.75Z"/><path class="cls-2" d="M1522.82,397.06a8,8,0,0,1-6.18-2.56,11.36,11.36,0,0,1,0-13.65,7.72,7.72,0,0,1,6.14-2.64,7.15,7.15,0,0,1,6,2.86v-2.38h3.39v18.63a8.51,8.51,0,0,1-2.29,6.3,8.75,8.75,0,0,1-6.42,2.29,9.94,9.94,0,0,1-6.15-1.75,6.62,6.62,0,0,1-2.62-4.81l3.47-.35a4.64,4.64,0,0,0,1.67,3.05,6,6,0,0,0,3.63,1,5,5,0,0,0,3.91-1.49,6.41,6.41,0,0,0,1.33-4.41v-3.05A7,7,0,0,1,1522.82,397.06Zm-3.39-14.19a7.14,7.14,0,0,0-1.45,4.77,7.05,7.05,0,0,0,1.45,4.74,5,5,0,0,0,4,1.7,4.85,4.85,0,0,0,3.91-1.77,8,8,0,0,0,0-9.33,4.75,4.75,0,0,0-3.87-1.83A5,5,0,0,0,1519.43,382.87Z"/><path class="cls-2" d="M1546.17,395.87a4.6,4.6,0,0,0,5-3.94l3.2.63a7.11,7.11,0,0,1-2.76,4.49,8.74,8.74,0,0,1-5.4,1.65,9.09,9.09,0,0,1-7-2.65c-1.64-1.77-2.45-4.3-2.45-7.59a10.53,10.53,0,0,1,2.53-7.42,8.77,8.77,0,0,1,6.85-2.83,8.06,8.06,0,0,1,6.29,2.52,9.82,9.82,0,0,1,2.29,6.87v1.68h-14.45Q1540.51,395.87,1546.17,395.87ZM1546,381a5.3,5.3,0,0,0-3.92,1.45,6.88,6.88,0,0,0-1.79,4.25h10.8Q1550.81,381,1546,381Z"/><path class="cls-2" d="M1435.68,420.64,1420,441.93h16.25v3.16h-20.73v-2.9l15.69-21.28H1416v-3.17h19.7Z"/><path class="cls-2" d="M1438.55,435.33a10.52,10.52,0,0,1,2.57-7.42,9,9,0,0,1,6.92-2.83,9.12,9.12,0,0,1,7,2.83,10.4,10.4,0,0,1,2.61,7.42,10.55,10.55,0,0,1-2.61,7.42,9.11,9.11,0,0,1-7,2.82,9,9,0,0,1-6.92-2.82A10.54,10.54,0,0,1,1438.55,435.33Zm13.9,5.35a9.74,9.74,0,0,0,0-10.7,5.38,5.38,0,0,0-4.41-2,5.28,5.28,0,0,0-4.36,2,8.22,8.22,0,0,0-1.59,5.35,8.31,8.31,0,0,0,1.58,5.36,5.31,5.31,0,0,0,4.37,1.94A5.4,5.4,0,0,0,1452.45,440.68Z"/><path class="cls-2" d="M1478.88,432.43v12.66h-3.47v-12a5.21,5.21,0,0,0-1.19-3.67,4.44,4.44,0,0,0-3.42-1.29,4.79,4.79,0,0,0-3.89,1.58,7,7,0,0,0-1.34,4.64v10.77h-3.47V425.56h3.39V428a6.88,6.88,0,0,1,6.09-2.94,7.19,7.19,0,0,1,5.36,2A7.32,7.32,0,0,1,1478.88,432.43Z"/><path class="cls-2" d="M1492.63,442.75a4.61,4.61,0,0,0,5-3.95l3.21.63a7.11,7.11,0,0,1-2.76,4.49,8.77,8.77,0,0,1-5.41,1.65,9.11,9.11,0,0,1-7-2.65q-2.44-2.66-2.45-7.59a10.54,10.54,0,0,1,2.54-7.42,8.75,8.75,0,0,1,6.85-2.83,8.07,8.07,0,0,1,6.29,2.52,9.82,9.82,0,0,1,2.29,6.87v1.68h-14.46Q1487,442.75,1492.63,442.75Zm-.17-14.88a5.3,5.3,0,0,0-3.92,1.45,6.9,6.9,0,0,0-1.78,4.25h10.79C1497.36,429.77,1495.67,427.87,1492.46,427.87Z"/><path class="cls-2" d="M1680.83,432.14v8.68h-1.6V437.4h-9a3,3,0,0,1,.37,1.6v1.88H1669v-1.76a1.64,1.64,0,0,0-.54-1.34,2.61,2.61,0,0,0-1.67-.44V435.5h12.4v-3.36Z"/><path class="cls-2" d="M1678.58,430.43v-2.2h2.25v2.2Z"/><path class="cls-2" d="M1670.55,418.54a2.19,2.19,0,0,0-1.68.67,2.46,2.46,0,0,0-.63,1.77,2.71,2.71,0,0,0,1,2.26,4.4,4.4,0,0,0,2.82.72l-.25,1.83a4.52,4.52,0,0,1-5.17-4.81,4.44,4.44,0,0,1,1.09-3.19,3.8,3.8,0,0,1,2.86-1.18,5,5,0,0,1,2.52.72,11.9,11.9,0,0,1,2.72,2.3l3.44,3.74v-7.12h1.6v9.6h-1.64l-4.62-5a8.82,8.82,0,0,0-2.06-1.76A4,4,0,0,0,1670.55,418.54Z"/><path class="cls-2" d="M1675.32,405.59h5.51v1.77h-6.16a2.72,2.72,0,0,0-1.87.58,2,2,0,0,0-.67,1.6,2.19,2.19,0,0,0,.82,1.86,3.74,3.74,0,0,0,2.37.64h5.51v1.78h-10v-1.74h1.22a3.37,3.37,0,0,1-1.46-2.94,3.78,3.78,0,0,1,.46-1.91,3,3,0,0,1,1.35-1.22,3.39,3.39,0,0,1-1.81-3.23,3.58,3.58,0,0,1,1-2.69,3.83,3.83,0,0,1,2.75-1h6.48v1.78h-6.16a2.72,2.72,0,0,0-1.87.58,2,2,0,0,0-.67,1.61A2.22,2.22,0,0,0,1673,405,3.8,3.8,0,0,0,1675.32,405.59Z"/><path class="cls-2" d="M1676.23,386.73v5.15h-1.62v-5.15Z"/><path class="cls-2" d="M1680.83,371v8.68h-1.6v-3.42h-9a3,3,0,0,1,.37,1.6v1.88H1669V378a1.62,1.62,0,0,0-.54-1.34,2.61,2.61,0,0,0-1.67-.44v-1.84h12.4V371Z"/><path class="cls-2" d="M1678.58,369.3v-2.2h2.25v2.2Z"/><path class="cls-2" d="M1671.81,359.72a4.46,4.46,0,0,1,1.24-3.32,4.4,4.4,0,0,1,3.3-1.26,4.63,4.63,0,0,1,4.73,4.78,4.54,4.54,0,0,1-1.75,3.88,8.48,8.48,0,0,1-5.16,1.32,9.6,9.6,0,0,1-5.59-1.4,4.5,4.5,0,0,1-2-3.9,4.63,4.63,0,0,1,.9-2.91,4.3,4.3,0,0,1,2.53-1.55l.33,1.9a3.36,3.36,0,0,0-1.69,1,2.54,2.54,0,0,0-.51,1.65,2.75,2.75,0,0,0,1.51,2.5,8.23,8.23,0,0,0,4,.9,3.85,3.85,0,0,1-1.37-1.49A4.5,4.5,0,0,1,1671.81,359.72Zm4.67,3.32a3,3,0,0,0,2.21-.85,3.14,3.14,0,0,0,0-4.33,3,3,0,0,0-2.23-.86,3.22,3.22,0,0,0-2.3.79,3.27,3.27,0,0,0,.06,4.4A3.16,3.16,0,0,0,1676.48,363Z"/><path class="cls-2" d="M1675.32,344.37h5.51v1.77h-6.16a2.77,2.77,0,0,0-1.87.57,2,2,0,0,0-.67,1.61,2.22,2.22,0,0,0,.82,1.86,3.74,3.74,0,0,0,2.37.64h5.51v1.78h-10v-1.74h1.22a3.37,3.37,0,0,1-1.46-2.94,3.78,3.78,0,0,1,.46-1.91,3,3,0,0,1,1.35-1.22,3.4,3.4,0,0,1-1.81-3.23,3.58,3.58,0,0,1,1-2.69,3.83,3.83,0,0,1,2.75-1h6.48v1.78h-6.16a2.77,2.77,0,0,0-1.87.57,2,2,0,0,0-.67,1.62,2.22,2.22,0,0,0,.82,1.86A3.8,3.8,0,0,0,1675.32,344.37Z"/><path class="cls-2" d="M182.94,338.39h-8.68v-1.6h3.42v-9a3,3,0,0,1-1.6.38H174.2v-1.58H176a1.63,1.63,0,0,0,1.34-.53,2.61,2.61,0,0,0,.44-1.67h1.84v12.4h3.36Z"/><path class="cls-2" d="M184.65,336.13h2.2v2.26h-2.2Z"/><path class="cls-2" d="M194.48,329.42a4.41,4.41,0,0,1,3.22,1.18,4.2,4.2,0,0,1,1.19,3.11,4.56,4.56,0,0,1-4.94,4.92,5.72,5.72,0,0,1-3.38-.93,3.94,3.94,0,0,1-1.62-2.63l1.92-.26a2.68,2.68,0,0,0,1,1.68,3.27,3.27,0,0,0,2,.58,3,3,0,0,0,2.29-.85,3.39,3.39,0,0,0,.8-2.43,2.9,2.9,0,0,0-.71-2.09,2.66,2.66,0,0,0-2-.75,3.77,3.77,0,0,0-1.71.4,3.53,3.53,0,0,0-1.32,1.08l-1.66-.62,1.07-7.42h7.25V326h-5.73l-.7,4.52A4.58,4.58,0,0,1,194.48,329.42Z"/><path class="cls-2" d="M206.12,329.42a4.41,4.41,0,0,1,3.21,1.18,4.2,4.2,0,0,1,1.19,3.11,4.56,4.56,0,0,1-4.94,4.92,5.72,5.72,0,0,1-3.38-.93,3.94,3.94,0,0,1-1.62-2.63l1.92-.26a2.72,2.72,0,0,0,1,1.68,3.27,3.27,0,0,0,2,.58,3,3,0,0,0,2.29-.85,3.4,3.4,0,0,0,.81-2.43,2.9,2.9,0,0,0-.72-2.09,2.66,2.66,0,0,0-2-.75,3.77,3.77,0,0,0-1.71.4,3.61,3.61,0,0,0-1.32,1.08l-1.66-.62,1.07-7.42h7.25V326h-5.73l-.7,4.52A4.59,4.59,0,0,1,206.12,329.42Z"/><path class="cls-2" d="M221.12,332.87v5.52h-1.77v-6.16a2.82,2.82,0,0,0-.57-1.88,2,2,0,0,0-1.61-.66,2.24,2.24,0,0,0-1.86.81,3.78,3.78,0,0,0-.64,2.37v5.52h-1.78v-10h1.74v1.22a3.35,3.35,0,0,1,2.94-1.46,3.75,3.75,0,0,1,1.91.46,3.08,3.08,0,0,1,1.23,1.34,3.38,3.38,0,0,1,3.22-1.8,3.54,3.54,0,0,1,2.69,1,3.78,3.78,0,0,1,1,2.75v6.48h-1.78v-6.16a2.82,2.82,0,0,0-.57-1.88,2,2,0,0,0-1.62-.66,2.24,2.24,0,0,0-1.86.81A3.84,3.84,0,0,0,221.12,332.87Z"/><path class="cls-2" d="M182.94,522.17h-8.68v-1.6h3.42v-9a3.13,3.13,0,0,1-1.6.37H174.2v-1.58H176a1.63,1.63,0,0,0,1.34-.53,2.61,2.61,0,0,0,.44-1.67h1.84v12.4h3.36Z"/><path class="cls-2" d="M184.65,519.92h2.2v2.25h-2.2Z"/><path class="cls-2" d="M196.54,511.89a2.24,2.24,0,0,0-.66-1.69,2.5,2.5,0,0,0-1.78-.63,2.69,2.69,0,0,0-2.26,1,4.38,4.38,0,0,0-.72,2.81l-1.83-.24a4.72,4.72,0,0,1,1.2-3.78,4.77,4.77,0,0,1,3.61-1.4,4.45,4.45,0,0,1,3.19,1.1,3.76,3.76,0,0,1,1.18,2.86,5.13,5.13,0,0,1-.71,2.52,12.24,12.24,0,0,1-2.31,2.72l-3.74,3.44h7.12v1.6h-9.6v-1.64l5-4.62a8.82,8.82,0,0,0,1.76-2.06A4,4,0,0,0,196.54,511.89Z"/><path class="cls-2" d="M208.18,511.89a2.24,2.24,0,0,0-.67-1.69,2.5,2.5,0,0,0-1.78-.63,2.69,2.69,0,0,0-2.26,1,4.32,4.32,0,0,0-.71,2.81l-1.84-.24a4.72,4.72,0,0,1,1.2-3.78,4.77,4.77,0,0,1,3.61-1.4,4.45,4.45,0,0,1,3.19,1.1,3.76,3.76,0,0,1,1.18,2.86,5.13,5.13,0,0,1-.71,2.52,12.24,12.24,0,0,1-2.31,2.72l-3.74,3.44h7.12v1.6h-9.6v-1.64l5-4.62a8.82,8.82,0,0,0,1.76-2.06A4,4,0,0,0,208.18,511.89Z"/><path class="cls-2" d="M221.12,516.65v5.52h-1.77V516a2.82,2.82,0,0,0-.57-1.88,2,2,0,0,0-1.61-.66,2.22,2.22,0,0,0-1.86.82,3.73,3.73,0,0,0-.64,2.36v5.52h-1.78v-10h1.74v1.22a3.37,3.37,0,0,1,2.94-1.46,3.75,3.75,0,0,1,1.91.46,3.08,3.08,0,0,1,1.23,1.34,3.38,3.38,0,0,1,3.22-1.8,3.54,3.54,0,0,1,2.69,1,3.78,3.78,0,0,1,1,2.75v6.48h-1.78V516a2.82,2.82,0,0,0-.57-1.88,2,2,0,0,0-1.62-.66,2.22,2.22,0,0,0-1.86.82A3.79,3.79,0,0,0,221.12,516.65Z"/><path class="cls-2" d="M812.13,71h-8.68v-1.6h3.42v-9a3.1,3.1,0,0,1-1.6.37h-1.88V59.18h1.76a1.62,1.62,0,0,0,1.34-.53,2.61,2.61,0,0,0,.44-1.67h1.84v12.4h3.36Z"/><path class="cls-2" d="M813.84,68.73H816V71h-2.2Z"/><path class="cls-2" d="M826.12,63.6a3.43,3.43,0,0,1,1.76,1.31,3.8,3.8,0,0,1,.6,2.16,3.73,3.73,0,0,1-1.39,3,5.35,5.35,0,0,1-3.61,1.17,5.57,5.57,0,0,1-3.66-1.15,3.75,3.75,0,0,1-1.36-3,3.57,3.57,0,0,1,.63-2.08,3.79,3.79,0,0,1,1.78-1.37,3.19,3.19,0,0,1-1.52-1.21,3.4,3.4,0,0,1-.53-1.91,3.36,3.36,0,0,1,1.28-2.72,6.12,6.12,0,0,1,6.78,0,3.36,3.36,0,0,1,1.24,2.75,3.32,3.32,0,0,1-.52,1.88A3.27,3.27,0,0,1,826.12,63.6Zm.46,3.4a2.4,2.4,0,0,0-.84-1.92,3.35,3.35,0,0,0-2.26-.72,3.39,3.39,0,0,0-2.28.72,2.4,2.4,0,0,0-.84,1.92,2.46,2.46,0,0,0,.83,2,3.4,3.4,0,0,0,2.29.72,3.28,3.28,0,0,0,2.27-.73A2.49,2.49,0,0,0,826.58,67Zm-5.9-6.46a2.22,2.22,0,0,0,.76,1.73,3,3,0,0,0,2,.67,2.86,2.86,0,0,0,2-.68,2.2,2.2,0,0,0,.76-1.72,2.07,2.07,0,0,0-.74-1.69,3.72,3.72,0,0,0-4.08,0A2.08,2.08,0,0,0,820.68,60.54Z"/><path class="cls-2" d="M839.33,65.46V71h-1.78V64.82a2.82,2.82,0,0,0-.57-1.88,2,2,0,0,0-1.6-.66,2.19,2.19,0,0,0-1.86.82,3.73,3.73,0,0,0-.64,2.36V71H831.1V61h1.74V62.2a3.35,3.35,0,0,1,2.94-1.46,3.78,3.78,0,0,1,1.91.46,3.05,3.05,0,0,1,1.22,1.34,3.39,3.39,0,0,1,3.22-1.8,3.51,3.51,0,0,1,2.69,1,3.79,3.79,0,0,1,1,2.75V71H844V64.82a2.77,2.77,0,0,0-.58-1.88,2,2,0,0,0-1.61-.66,2.22,2.22,0,0,0-1.86.82A3.73,3.73,0,0,0,839.33,65.46Z"/><path class="cls-2" d="M1673.83,676.8a9,9,0,0,1-5.3-1.38,4.49,4.49,0,0,1-1.93-3.86,4.45,4.45,0,0,1,1.93-3.86,10.73,10.73,0,0,1,10.6,0,4.82,4.82,0,0,1,0,7.72A9,9,0,0,1,1673.83,676.8Zm4.18-7.72a10.4,10.4,0,0,0-8.35,0,2.81,2.81,0,0,0,0,4.95,8.13,8.13,0,0,0,4.13.88A8.36,8.36,0,0,0,1678,674a2.83,2.83,0,0,0,0-5Z"/><path class="cls-2" d="M1678.58,664.42v-2.19h2.25v2.19Z"/><path class="cls-2" d="M1668.47,654.29v7.38h-1.64v-9.56h1.56a12.87,12.87,0,0,0,10.63,4.48h1.81v1.9H1679a15.93,15.93,0,0,1-5.92-1A13,13,0,0,1,1668.47,654.29Z"/><path class="cls-2" d="M1675.32,641.88h5.51v1.77h-6.16a2.77,2.77,0,0,0-1.87.57,2,2,0,0,0-.67,1.61,2.22,2.22,0,0,0,.82,1.86,3.74,3.74,0,0,0,2.37.64h5.51v1.78h-10v-1.74h1.22a3.37,3.37,0,0,1-1.46-2.94,3.75,3.75,0,0,1,.46-1.91,3,3,0,0,1,1.35-1.23,3.37,3.37,0,0,1-1.81-3.22,3.58,3.58,0,0,1,1-2.69,3.78,3.78,0,0,1,2.75-1h6.48v1.78h-6.16a2.77,2.77,0,0,0-1.87.57,2,2,0,0,0-.67,1.62,2.22,2.22,0,0,0,.82,1.86A3.8,3.8,0,0,0,1675.32,641.88Z"/><path class="cls-2" d="M1676.23,623v5.14h-1.62V623Z"/><path class="cls-2" d="M1680.83,607.29V616h-1.6v-3.42h-9a3,3,0,0,1,.37,1.6V616H1669v-1.76a1.62,1.62,0,0,0-.54-1.34,2.61,2.61,0,0,0-1.67-.44v-1.85h12.4v-3.36Z"/><path class="cls-2" d="M1678.58,605.59v-2.2h2.25v2.2Z"/><path class="cls-2" d="M1670.55,593.69a2.19,2.19,0,0,0-1.68.67,2.49,2.49,0,0,0-.63,1.77,2.69,2.69,0,0,0,1,2.26,4.28,4.28,0,0,0,2.82.72l-.25,1.84a4.52,4.52,0,0,1-5.17-4.82,4.43,4.43,0,0,1,1.09-3.18,3.76,3.76,0,0,1,2.86-1.18,5,5,0,0,1,2.52.71,12,12,0,0,1,2.72,2.31l3.44,3.74v-7.12h1.6V601h-1.64l-4.62-5a8.9,8.9,0,0,0-2.06-1.77A4,4,0,0,0,1670.55,593.69Z"/><path class="cls-2" d="M1675.32,580.74h5.51v1.78h-6.16a2.77,2.77,0,0,0-1.87.57,2,2,0,0,0-.67,1.61,2.22,2.22,0,0,0,.82,1.86,3.8,3.8,0,0,0,2.37.64h5.51V589h-10v-1.73h1.22a3.37,3.37,0,0,1-1.46-2.94,3.73,3.73,0,0,1,.46-1.91,3,3,0,0,1,1.35-1.23,3.38,3.38,0,0,1-1.81-3.22,3.57,3.57,0,0,1,1-2.69,3.78,3.78,0,0,1,2.75-1h6.48v1.77h-6.16a2.77,2.77,0,0,0-1.87.58,2,2,0,0,0-.67,1.61,2.19,2.19,0,0,0,.82,1.86A3.74,3.74,0,0,0,1675.32,580.74Z"/><rect class="cls-8" x="1346.92" y="492.52" width="20.48" height="265.81"/><path class="cls-2" d="M1435.68,570.55,1420,591.83h16.25V595h-20.73v-2.9l15.69-21.29H1416v-3.16h19.7Z"/><path class="cls-2" d="M1438.55,585.23a10.54,10.54,0,0,1,2.57-7.42A9,9,0,0,1,1448,575a9.11,9.11,0,0,1,7,2.82,10.42,10.42,0,0,1,2.61,7.42,10.53,10.53,0,0,1-2.61,7.42,9.11,9.11,0,0,1-7,2.82,9,9,0,0,1-6.92-2.82A10.52,10.52,0,0,1,1438.55,585.23Zm13.9,5.35a9.74,9.74,0,0,0,0-10.7,5.4,5.4,0,0,0-4.41-2,5.3,5.3,0,0,0-4.36,2,9.84,9.84,0,0,0,0,10.71,5.28,5.28,0,0,0,4.37,1.95A5.38,5.38,0,0,0,1452.45,590.58Z"/><path class="cls-2" d="M1478.88,582.33V595h-3.47V583a5.23,5.23,0,0,0-1.19-3.67,4.44,4.44,0,0,0-3.42-1.29,4.77,4.77,0,0,0-3.89,1.59,7,7,0,0,0-1.34,4.63V595h-3.47V575.47h3.39v2.46a6.88,6.88,0,0,1,6.09-2.94,7.22,7.22,0,0,1,5.36,2A7.36,7.36,0,0,1,1478.88,582.33Z"/><path class="cls-2" d="M1492.63,592.65a4.61,4.61,0,0,0,5-3.95l3.21.63a7.08,7.08,0,0,1-2.76,4.49,8.77,8.77,0,0,1-5.41,1.65c-3,0-5.37-.88-7-2.65s-2.45-4.3-2.45-7.59a10.57,10.57,0,0,1,2.54-7.42,8.75,8.75,0,0,1,6.85-2.82,8.07,8.07,0,0,1,6.29,2.52,9.79,9.79,0,0,1,2.29,6.86v1.68h-14.46Q1487,592.65,1492.63,592.65Zm-.17-14.88a5.34,5.34,0,0,0-3.92,1.45,6.93,6.93,0,0,0-1.78,4.26h10.79C1497.36,579.68,1495.67,577.77,1492.46,577.77Z"/><path class="cls-2" d="M1513.38,585.23a10.54,10.54,0,0,1,2.58-7.42,9,9,0,0,1,6.92-2.82,9.07,9.07,0,0,1,6.94,2.82,10.38,10.38,0,0,1,2.62,7.42,10.5,10.5,0,0,1-2.62,7.42,9.07,9.07,0,0,1-6.94,2.82,9,9,0,0,1-6.92-2.82A10.52,10.52,0,0,1,1513.38,585.23Zm13.91,5.35a9.74,9.74,0,0,0,0-10.7,5.4,5.4,0,0,0-4.41-2,5.32,5.32,0,0,0-4.37,2,9.89,9.89,0,0,0,0,10.71,5.32,5.32,0,0,0,4.38,1.95A5.38,5.38,0,0,0,1527.29,590.58Z"/><path class="cls-2" d="M1541.51,578.33V595H1538V578.33h-3.51v-2.86H1538V574a6.43,6.43,0,0,1,1.6-4.68,6,6,0,0,1,4.55-1.65H1547v2.9h-2.58a2.66,2.66,0,0,0-2.2.88,4.39,4.39,0,0,0-.72,2.78v1.26h4.89v2.86Z"/><path class="cls-2" d="M1428.76,639.06a8,8,0,0,0,5.31-1.68,10,10,0,0,0,3-5.2l3.64.51a12.38,12.38,0,0,1-4.21,7.12,13.2,13.2,0,0,1-17.07-1.3q-3.42-3.81-3.42-10.32t3.45-10.26a11.83,11.83,0,0,1,9.25-3.87,12.43,12.43,0,0,1,8.17,2.58,12.09,12.09,0,0,1,4,7.45l-3.76.56q-1.62-7.3-8.39-7.31a8,8,0,0,0-6.55,2.89q-2.36,2.89-2.35,8t2.35,8A8,8,0,0,0,1428.76,639.06Z"/><path class="cls-2" d="M1444,632.1a10.58,10.58,0,0,1,2.57-7.42,9,9,0,0,1,6.93-2.82,9.09,9.09,0,0,1,6.94,2.82,10.42,10.42,0,0,1,2.61,7.42,10.53,10.53,0,0,1-2.61,7.42,9.09,9.09,0,0,1-6.94,2.82,9,9,0,0,1-6.93-2.82A10.56,10.56,0,0,1,1444,632.1Zm13.9,5.35a9.74,9.74,0,0,0,0-10.7,5.38,5.38,0,0,0-4.4-2,5.32,5.32,0,0,0-4.37,2,9.89,9.89,0,0,0,0,10.71,5.91,5.91,0,0,0,8.78,0Z"/><path class="cls-2" d="M1483.65,631.09v10.78h-3.47v-12a5.43,5.43,0,0,0-1.12-3.66,3.92,3.92,0,0,0-3.13-1.3,4.37,4.37,0,0,0-3.64,1.6,7.37,7.37,0,0,0-1.25,4.62v10.78h-3.47V622.34h3.4v2.38a6.54,6.54,0,0,1,5.74-2.86,7.31,7.31,0,0,1,3.73.91,5.85,5.85,0,0,1,2.39,2.62,6.62,6.62,0,0,1,6.29-3.53,7,7,0,0,1,5.26,2,7.46,7.46,0,0,1,1.9,5.37v12.67h-3.48v-12a5.43,5.43,0,0,0-1.12-3.66,4,4,0,0,0-3.15-1.3,4.34,4.34,0,0,0-3.63,1.6A7.37,7.37,0,0,0,1483.65,631.09Z"/><path class="cls-2" d="M1517.9,631.09v10.78h-3.47v-12a5.48,5.48,0,0,0-1.11-3.66,3.94,3.94,0,0,0-3.14-1.3,4.34,4.34,0,0,0-3.63,1.6,7.31,7.31,0,0,0-1.25,4.62v10.78h-3.47V622.34h3.39v2.38a6.55,6.55,0,0,1,5.74-2.86,7.29,7.29,0,0,1,3.73.91,5.8,5.8,0,0,1,2.39,2.62,6.64,6.64,0,0,1,6.3-3.53,7,7,0,0,1,5.25,2,7.42,7.42,0,0,1,1.9,5.37v12.67h-3.47v-12a5.43,5.43,0,0,0-1.13-3.66,4,4,0,0,0-3.14-1.3,4.37,4.37,0,0,0-3.64,1.6A7.37,7.37,0,0,0,1517.9,631.09Z"/><path class="cls-2" d="M1534.82,632.1a10.58,10.58,0,0,1,2.57-7.42,9,9,0,0,1,6.93-2.82,9.09,9.09,0,0,1,6.94,2.82,10.42,10.42,0,0,1,2.61,7.42,10.53,10.53,0,0,1-2.61,7.42,9.09,9.09,0,0,1-6.94,2.82,9,9,0,0,1-6.93-2.82A10.56,10.56,0,0,1,1534.82,632.1Zm13.9,5.35a9.69,9.69,0,0,0,0-10.7,5.91,5.91,0,0,0-8.77,0,9.89,9.89,0,0,0,0,10.71,5.91,5.91,0,0,0,8.78,0Z"/><path class="cls-2" d="M1575.16,629.2v12.67h-3.47v-12a5.18,5.18,0,0,0-1.2-3.67,4.41,4.41,0,0,0-3.42-1.29,4.8,4.8,0,0,0-3.89,1.59,7,7,0,0,0-1.34,4.63v10.78h-3.47V622.34h3.4v2.46a6.85,6.85,0,0,1,6.08-2.94,7.2,7.2,0,0,1,5.36,2A7.32,7.32,0,0,1,1575.16,629.2Z"/><path class="cls-2" d="M1437,681.66l.4,7.08h-3.72l-.38-7.12a3.52,3.52,0,0,0-1.35-2.81,6.87,6.87,0,0,0-3.93-.89h-6.79v10.82h-3.76V661.39h10.8a10,10,0,0,1,6.67,2.12,6.75,6.75,0,0,1,2.5,5.43,7.81,7.81,0,0,1-4.39,7.17Q1436.77,677.34,1437,681.66Zm-3.36-12.41a4.25,4.25,0,0,0-1.51-3.42,6.26,6.26,0,0,0-4.15-1.27h-6.75V674.8h6.71a5.61,5.61,0,0,0,4.12-1.56A5.33,5.33,0,0,0,1433.64,669.25Z"/><path class="cls-2" d="M1451,686.39a4.6,4.6,0,0,0,5-3.95l3.2.63a7.09,7.09,0,0,1-2.75,4.5,8.77,8.77,0,0,1-5.41,1.65,9.08,9.08,0,0,1-7-2.66q-2.45-2.64-2.45-7.59a10.57,10.57,0,0,1,2.54-7.42,8.74,8.74,0,0,1,6.84-2.82,8.09,8.09,0,0,1,6.3,2.52,9.86,9.86,0,0,1,2.29,6.87v1.67H1445Q1445.3,686.39,1451,686.39Zm-.17-14.87a5.3,5.3,0,0,0-3.92,1.45,6.87,6.87,0,0,0-1.78,4.25h10.79Q1455.6,671.52,1450.79,671.52Z"/><path class="cls-2" d="M1480.33,685.84h.94v2.9h-1.89a4.35,4.35,0,0,1-2.58-.74,2.73,2.73,0,0,1-1.16-2,6.84,6.84,0,0,1-6.18,3.25,7.35,7.35,0,0,1-4.92-1.6,5.13,5.13,0,0,1-1.87-4.11,5.44,5.44,0,0,1,1.53-4,7.61,7.61,0,0,1,4.36-2l5.71-1a1.32,1.32,0,0,0,1.22-1.41,3.26,3.26,0,0,0-1.15-2.58,4.55,4.55,0,0,0-3.12-1,5.06,5.06,0,0,0-3.15.88,4.62,4.62,0,0,0-1.6,2.74l-3.3-.38a6.65,6.65,0,0,1,2.66-4.37,9,9,0,0,1,5.52-1.66,7.77,7.77,0,0,1,5.52,1.87,6.49,6.49,0,0,1,2,5v8.79a1.6,1.6,0,0,0,.33,1.15A1.58,1.58,0,0,0,1480.33,685.84Zm-14.23-2.58a2.86,2.86,0,0,0,1,2.33,4.14,4.14,0,0,0,2.76.84,5.21,5.21,0,0,0,4.07-1.78,6.65,6.65,0,0,0,1.6-4.59v-1.12l-6.26,1.08a4.07,4.07,0,0,0-2.35,1.09A2.94,2.94,0,0,0,1466.1,683.26Z"/><path class="cls-2" d="M1492.65,686.24a5,5,0,0,0,3.53-1.23,5.39,5.39,0,0,0,1.6-3.46l3.4.4a7.87,7.87,0,0,1-2.7,5.29,9.62,9.62,0,0,1-12.58-.77,12.46,12.46,0,0,1,0-14.92,8.59,8.59,0,0,1,6.71-2.82,8.93,8.93,0,0,1,5.91,1.88,8.06,8.06,0,0,1,2.73,5.31l-3.55.4q-.71-4.61-5.13-4.61a4.9,4.9,0,0,0-4.12,1.92,8.78,8.78,0,0,0-1.46,5.42,8.45,8.45,0,0,0,1.47,5.29A5,5,0,0,0,1492.65,686.24Z"/><path class="cls-2" d="M1522.29,676.07v12.67h-3.47v-12a5.23,5.23,0,0,0-1.19-3.67,4.44,4.44,0,0,0-3.43-1.28,4.79,4.79,0,0,0-3.89,1.58A7,7,0,0,0,1509,678v10.78h-3.47V661.39H1509v10.2a6.83,6.83,0,0,1,6-2.86,7.15,7.15,0,0,1,5.35,2A7.28,7.28,0,0,1,1522.29,676.07Z"/><line class="cls-6" x1="1346.92" y1="492.52" x2="1680.83" y2="492.52"/><path class="cls-2" d="M181,566.43h-6.1l-1.3,3.43h-2l5.42-14H179l5.36,14h-2.1Zm-5.48-1.61h4.88L178,558.3Z"/><path class="cls-2" d="M190.23,569.86h-1.89l-3.84-10h1.88l2.94,8,3-8h1.81Z"/><path class="cls-2" d="M199.86,568.66a2.35,2.35,0,0,0,2.53-2L204,567a3.61,3.61,0,0,1-1.42,2.3,4.43,4.43,0,0,1-2.76.85,4.65,4.65,0,0,1-3.59-1.36,5.52,5.52,0,0,1-1.26-3.89,5.39,5.39,0,0,1,1.3-3.8,4.49,4.49,0,0,1,3.51-1.44,4.14,4.14,0,0,1,3.22,1.29,5,5,0,0,1,1.17,3.51v.86h-7.4C196.91,567.54,197.92,568.66,199.86,568.66Zm-.09-7.62a2.72,2.72,0,0,0-2,.75,3.51,3.51,0,0,0-.91,2.17h5.53C202.28,562,201.41,561,199.77,561Z"/><path class="cls-2" d="M208.33,569.86h-1.78v-10h1.74v1.82a3.1,3.1,0,0,1,2.86-1.82h.78v1.68h-.8a2.38,2.38,0,0,0-2,1.1,5.18,5.18,0,0,0-.76,3Z"/><path class="cls-2" d="M222,568.38h.47v1.48h-1a2.21,2.21,0,0,1-1.32-.37,1.42,1.42,0,0,1-.6-1,3.51,3.51,0,0,1-3.16,1.66,3.73,3.73,0,0,1-2.52-.82,2.62,2.62,0,0,1-1-2.1,2.8,2.8,0,0,1,.78-2.05,4,4,0,0,1,2.24-1l2.92-.5a.66.66,0,0,0,.62-.72,1.67,1.67,0,0,0-.58-1.32,2.37,2.37,0,0,0-1.6-.52,2.59,2.59,0,0,0-1.61.46,2.31,2.31,0,0,0-.82,1.4l-1.69-.2a3.38,3.38,0,0,1,1.36-2.23,4.53,4.53,0,0,1,2.83-.85,4,4,0,0,1,2.82,1,3.27,3.27,0,0,1,1,2.54v4.51a.63.63,0,0,0,.75.75Zm-7.29-1.32a1.46,1.46,0,0,0,.51,1.19,2.1,2.1,0,0,0,1.41.43,2.68,2.68,0,0,0,2.09-.91,3.41,3.41,0,0,0,.81-2.35v-.58l-3.2.56a2,2,0,0,0-1.21.56A1.53,1.53,0,0,0,214.67,567.06Z"/><path class="cls-2" d="M227.93,569.27a4.07,4.07,0,0,1-3.16-1.31,5,5,0,0,1-1.16-3.5,5,5,0,0,1,1.18-3.49,4,4,0,0,1,3.14-1.35,3.68,3.68,0,0,1,3.1,1.46v-1.22h1.74v9.54a4.38,4.38,0,0,1-1.18,3.23,4.47,4.47,0,0,1-3.29,1.17,5.14,5.14,0,0,1-3.15-.89,3.43,3.43,0,0,1-1.34-2.47l1.78-.18a2.41,2.41,0,0,0,.86,1.57,3,3,0,0,0,1.85.49,2.53,2.53,0,0,0,2-.76,3.26,3.26,0,0,0,.69-2.25v-1.57A3.6,3.6,0,0,1,227.93,569.27ZM226.19,562a3.7,3.7,0,0,0-.74,2.44,3.64,3.64,0,0,0,.74,2.43,2.59,2.59,0,0,0,2.07.87,2.51,2.51,0,0,0,2-.9,3.67,3.67,0,0,0,.76-2.4,3.57,3.57,0,0,0-.78-2.38,2.46,2.46,0,0,0-2-.94A2.6,2.6,0,0,0,226.19,562Z"/><path class="cls-2" d="M239.88,568.66a2.35,2.35,0,0,0,2.54-2l1.64.32a3.56,3.56,0,0,1-1.41,2.3,4.44,4.44,0,0,1-2.77.85,4.64,4.64,0,0,1-3.58-1.36,5.52,5.52,0,0,1-1.26-3.89,5.39,5.39,0,0,1,1.3-3.8,4.49,4.49,0,0,1,3.51-1.44,4.14,4.14,0,0,1,3.22,1.29,5,5,0,0,1,1.17,3.51v.86h-7.4C236.94,567.54,238,568.66,239.88,568.66ZM239.8,561a2.72,2.72,0,0,0-2,.75,3.51,3.51,0,0,0-.91,2.17h5.52C242.31,562,241.44,561,239.8,561Z"/><path class="cls-2" d="M259.75,563.38v6.48H258V563.7a2.66,2.66,0,0,0-.61-1.88,2.27,2.27,0,0,0-1.75-.66,2.45,2.45,0,0,0-2,.81,3.58,3.58,0,0,0-.69,2.38v5.51h-1.78v-14h1.78v5.22a3.51,3.51,0,0,1,3.08-1.46,3.47,3.47,0,0,1,3.74,3.76Z"/><path class="cls-2" d="M266.79,568.66a2.35,2.35,0,0,0,2.54-2L271,567a3.64,3.64,0,0,1-1.41,2.3,4.45,4.45,0,0,1-2.77.85,4.67,4.67,0,0,1-3.59-1.36,5.51,5.51,0,0,1-1.25-3.89,5.44,5.44,0,0,1,1.29-3.8,4.5,4.5,0,0,1,3.51-1.44,4.12,4.12,0,0,1,3.22,1.29,5,5,0,0,1,1.17,3.51v.86h-7.4C263.84,567.54,264.86,568.66,266.79,568.66ZM266.7,561a2.72,2.72,0,0,0-2,.75,3.57,3.57,0,0,0-.91,2.17h5.53C269.21,562,268.34,561,266.7,561Z"/><path class="cls-2" d="M275.27,558.24h-1.78v-2.38h1.78Zm0,11.62h-1.78v-10h1.78Z"/><path class="cls-2" d="M282,569.27A4.07,4.07,0,0,1,278.8,568a5.81,5.81,0,0,1,0-7,4,4,0,0,1,3.14-1.35,3.66,3.66,0,0,1,3.1,1.46v-1.22h1.74v9.54a4.34,4.34,0,0,1-1.18,3.23,4.44,4.44,0,0,1-3.28,1.17,5.1,5.1,0,0,1-3.15-.89,3.4,3.4,0,0,1-1.35-2.47l1.78-.18a2.45,2.45,0,0,0,.86,1.57,3,3,0,0,0,1.86.49,2.56,2.56,0,0,0,2-.76,3.31,3.31,0,0,0,.68-2.25v-1.57A3.6,3.6,0,0,1,282,569.27ZM280.23,562a3.65,3.65,0,0,0-.75,2.44,3.59,3.59,0,0,0,.75,2.43,2.56,2.56,0,0,0,2.07.87,2.5,2.5,0,0,0,2-.9,3.62,3.62,0,0,0,.76-2.4,3.57,3.57,0,0,0-.78-2.38,2.45,2.45,0,0,0-2-.94A2.57,2.57,0,0,0,280.23,562Z"/><path class="cls-2" d="M298.31,563.38v6.48h-1.77V563.7a2.66,2.66,0,0,0-.62-1.88,2.25,2.25,0,0,0-1.75-.66,2.46,2.46,0,0,0-2,.81,3.58,3.58,0,0,0-.68,2.38v5.51h-1.78v-14h1.78v5.22a3.49,3.49,0,0,1,3.07-1.46,3.71,3.71,0,0,1,2.75,1A3.75,3.75,0,0,1,298.31,563.38Z"/><path class="cls-2" d="M299.91,561.33v-1.47h1.76v-3.22h1.78v3.22H306v1.47h-2.52v5.59a1.67,1.67,0,0,0,.28,1.11,1.22,1.22,0,0,0,1,.31h1.52v1.52h-1.79a2.77,2.77,0,0,1-2-.69,2.65,2.65,0,0,1-.71-2v-5.84Z"/><path class="cls-2" d="M312,564.86a5.41,5.41,0,0,1,1.32-3.8,5.1,5.1,0,0,1,7.1,0,6.06,6.06,0,0,1,0,7.6,5.07,5.07,0,0,1-7.1,0A5.39,5.39,0,0,1,312,564.86Zm7.12,2.74a5,5,0,0,0,0-5.48,3,3,0,0,0-4.49,0,5.06,5.06,0,0,0,0,5.49,3,3,0,0,0,4.49,0Z"/><path class="cls-2" d="M326.42,561.33v8.53h-1.79v-8.53h-1.8v-1.47h1.8v-.76a3.31,3.31,0,0,1,.82-2.4,3.09,3.09,0,0,1,2.33-.84h1.45v1.48h-1.32a1.35,1.35,0,0,0-1.13.46,2.26,2.26,0,0,0-.36,1.42v.64h2.5v1.47Z"/><path class="cls-2" d="M175,593.86H173.1v-14h5.52a5,5,0,0,1,3.52,1.24,4.05,4.05,0,0,1,1.36,3.14,4.49,4.49,0,0,1-1.38,3.36,4.77,4.77,0,0,1-3.5,1.34H175Zm6.54-9.62a2.54,2.54,0,0,0-.85-2,3.21,3.21,0,0,0-2.23-.78H175v5.84h3.46a2.92,2.92,0,0,0,3.08-3.08Z"/><path class="cls-2" d="M189.59,592.66a2.35,2.35,0,0,0,2.54-2l1.64.32a3.64,3.64,0,0,1-1.41,2.3,4.44,4.44,0,0,1-2.77.85,4.68,4.68,0,0,1-3.59-1.36,5.56,5.56,0,0,1-1.25-3.89,5.39,5.39,0,0,1,1.3-3.8,4.47,4.47,0,0,1,3.5-1.44,4.16,4.16,0,0,1,3.23,1.29,5,5,0,0,1,1.17,3.51v.86h-7.41C186.64,591.54,187.66,592.66,189.59,592.66ZM189.5,585a2.69,2.69,0,0,0-2,.75,3.51,3.51,0,0,0-.92,2.17h5.53C192,586,191.14,585,189.5,585Z"/><path class="cls-2" d="M195.65,588.86a5.45,5.45,0,0,1,1.31-3.8,5.1,5.1,0,0,1,7.1,0,6.06,6.06,0,0,1,0,7.6,5.07,5.07,0,0,1-7.1,0A5.43,5.43,0,0,1,195.65,588.86Zm7.12,2.74a5,5,0,0,0,0-5.48,2.79,2.79,0,0,0-2.26-1,2.75,2.75,0,0,0-2.24,1,5.06,5.06,0,0,0,0,5.49,2.73,2.73,0,0,0,2.24,1A2.76,2.76,0,0,0,202.77,591.6Z"/><path class="cls-2" d="M212.73,583.62A4.12,4.12,0,0,1,216,585a5.52,5.52,0,0,1,1.22,3.74,5.82,5.82,0,0,1-1.22,3.86,4,4,0,0,1-3.25,1.47,3.83,3.83,0,0,1-3.25-1.62v5.07h-1.77v-13.7h1.74v1.51A3.74,3.74,0,0,1,212.73,583.62Zm2.63,5.24a4.34,4.34,0,0,0-.78-2.71,2.56,2.56,0,0,0-2.12-1,2.65,2.65,0,0,0-2.19,1,4.16,4.16,0,0,0-.82,2.7,4.07,4.07,0,0,0,.83,2.68,2.67,2.67,0,0,0,2.18,1,2.55,2.55,0,0,0,2.12-1A4.29,4.29,0,0,0,215.36,588.86Z"/><path class="cls-2" d="M221.3,593.86h-1.78v-14h1.78Z"/><path class="cls-2" d="M228.46,592.66a2.35,2.35,0,0,0,2.54-2l1.64.32a3.64,3.64,0,0,1-1.41,2.3,4.45,4.45,0,0,1-2.77.85,4.67,4.67,0,0,1-3.59-1.36,5.51,5.51,0,0,1-1.25-3.89,5.44,5.44,0,0,1,1.29-3.8,4.5,4.5,0,0,1,3.51-1.44,4.12,4.12,0,0,1,3.22,1.29,5,5,0,0,1,1.17,3.51v.86h-7.4C225.51,591.54,226.53,592.66,228.46,592.66Zm-.09-7.62a2.72,2.72,0,0,0-2,.75,3.57,3.57,0,0,0-.91,2.17H231C230.88,586,230,585,228.37,585Z"/><path class="cls-2" d="M243.61,593.86h-1.78l-3.19-10h1.82l2.34,7.64,2.28-7.64h1.7l2.26,7.62,2.32-7.62h1.77l-3.21,10h-1.75l-2.31-7.54Z"/><path class="cls-2" d="M256.76,582.24H255v-2.38h1.78Zm0,11.62H255v-10h1.78Z"/><path class="cls-2" d="M258.58,585.33v-1.47h1.75v-3.22h1.78v3.22h2.52v1.47h-2.52v5.59a1.67,1.67,0,0,0,.28,1.11,1.24,1.24,0,0,0,1,.31h1.53v1.52h-1.8a2.8,2.8,0,0,1-2-.69,2.65,2.65,0,0,1-.71-2v-5.84Z"/><path class="cls-2" d="M275.34,587.38v6.48h-1.77V587.7a2.71,2.71,0,0,0-.61-1.88,2.29,2.29,0,0,0-1.76-.66,2.46,2.46,0,0,0-2,.81,3.58,3.58,0,0,0-.68,2.38v5.51h-1.78v-14h1.78v5.22a3.49,3.49,0,0,1,3.07-1.46,3.71,3.71,0,0,1,2.75,1A3.75,3.75,0,0,1,275.34,587.38Z"/><path class="cls-2" d="M286.59,594.11a4.12,4.12,0,0,1-3.26-1.41,5.6,5.6,0,0,1-1.2-3.76,5.83,5.83,0,0,1,1.22-3.86,4,4,0,0,1,3.24-1.46,3.83,3.83,0,0,1,3.25,1.62v-5.38h1.77v14h-1.73v-1.5A3.79,3.79,0,0,1,286.59,594.11ZM284,588.86a4.29,4.29,0,0,0,.78,2.7,2.55,2.55,0,0,0,2.12,1,2.67,2.67,0,0,0,2.2-1,4.75,4.75,0,0,0,0-5.38,2.68,2.68,0,0,0-2.19-1,2.56,2.56,0,0,0-2.12,1A4.34,4.34,0,0,0,284,588.86Z"/><path class="cls-2" d="M296.35,582.24h-1.78v-2.38h1.78Zm0,11.62h-1.78v-10h1.78Z"/><path class="cls-2" d="M302.86,594.11a4.9,4.9,0,0,1-3.08-.89,3.2,3.2,0,0,1-1.25-2.41l1.77-.27a2.48,2.48,0,0,0,.76,1.63,2.67,2.67,0,0,0,1.8.53,2.48,2.48,0,0,0,1.58-.43A1.53,1.53,0,0,0,305,591c0-.79-.58-1.27-1.76-1.43l-1.43-.23a3.9,3.9,0,0,1-2.19-1,2.44,2.44,0,0,1-.76-1.87,2.54,2.54,0,0,1,1-2.09,4.27,4.27,0,0,1,2.73-.81,4.33,4.33,0,0,1,2.74.79,3.51,3.51,0,0,1,1.26,2.29l-1.64.24a2.59,2.59,0,0,0-.8-1.47,2.48,2.48,0,0,0-1.58-.44,2.44,2.44,0,0,0-1.47.38,1.27,1.27,0,0,0-.18,1.93,2.37,2.37,0,0,0,1.19.46l1.6.26c2,.33,3,1.28,3,2.86a2.84,2.84,0,0,1-1.05,2.32A4.29,4.29,0,0,1,302.86,594.11Z"/><path class="cls-2" d="M317.38,592.38h.48v1.48h-1a2.21,2.21,0,0,1-1.32-.37,1.42,1.42,0,0,1-.6-1,3.51,3.51,0,0,1-3.16,1.66,3.73,3.73,0,0,1-2.52-.82,2.62,2.62,0,0,1-1-2.1,2.8,2.8,0,0,1,.78-2.05,4,4,0,0,1,2.24-1l2.92-.5a.66.66,0,0,0,.62-.72,1.67,1.67,0,0,0-.58-1.32,2.37,2.37,0,0,0-1.6-.52,2.59,2.59,0,0,0-1.61.46,2.31,2.31,0,0,0-.82,1.4l-1.69-.2a3.38,3.38,0,0,1,1.36-2.23,4.53,4.53,0,0,1,2.83-.85,4,4,0,0,1,2.82,1,3.27,3.27,0,0,1,1,2.54v4.51a.8.8,0,0,0,.17.58A.79.79,0,0,0,317.38,592.38Zm-7.28-1.32a1.46,1.46,0,0,0,.51,1.19,2.1,2.1,0,0,0,1.41.43,2.68,2.68,0,0,0,2.09-.91,3.41,3.41,0,0,0,.81-2.35v-.58l-3.2.56a2,2,0,0,0-1.21.56A1.53,1.53,0,0,0,310.1,591.06Z"/><path class="cls-2" d="M324.64,583.62a4.1,4.1,0,0,1,3.25,1.42,5.47,5.47,0,0,1,1.22,3.74,5.76,5.76,0,0,1-1.22,3.86,4,4,0,0,1-3.25,1.47,3.71,3.71,0,0,1-3.28-1.68v1.43h-1.74v-14h1.78v5.44A3.73,3.73,0,0,1,324.64,583.62Zm2.64,5.24a4.28,4.28,0,0,0-.79-2.71,2.54,2.54,0,0,0-2.11-1,2.68,2.68,0,0,0-2.2,1,4.8,4.8,0,0,0,0,5.38,2.68,2.68,0,0,0,2.19,1,2.53,2.53,0,0,0,2.11-1A4.23,4.23,0,0,0,327.28,588.86Z"/><path class="cls-2" d="M333.21,582.24h-1.77v-2.38h1.77Zm0,11.62h-1.77v-10h1.77Z"/><path class="cls-2" d="M338,593.86h-1.78v-14H338Z"/><path class="cls-2" d="M342.69,582.24h-1.78v-2.38h1.78Zm0,11.62h-1.78v-10h1.78Z"/><path class="cls-2" d="M344.5,585.33v-1.47h1.76v-3.22H348v3.22h2.52v1.47H348v5.59a1.67,1.67,0,0,0,.28,1.11,1.22,1.22,0,0,0,1,.31h1.52v1.52H349a2.81,2.81,0,0,1-2.05-.69,2.69,2.69,0,0,1-.7-2v-5.84Z"/><path class="cls-2" d="M354.46,582.24h-1.78v-2.38h1.78Zm0,11.62h-1.78v-10h1.78Z"/><path class="cls-2" d="M361.61,592.66a2.35,2.35,0,0,0,2.54-2l1.64.32a3.64,3.64,0,0,1-1.41,2.3,4.44,4.44,0,0,1-2.77.85,4.68,4.68,0,0,1-3.59-1.36,5.56,5.56,0,0,1-1.25-3.89,5.39,5.39,0,0,1,1.3-3.8,4.47,4.47,0,0,1,3.5-1.44,4.15,4.15,0,0,1,3.23,1.29,5,5,0,0,1,1.17,3.51v.86h-7.4C358.66,591.54,359.68,592.66,361.61,592.66Zm-.08-7.62a2.72,2.72,0,0,0-2,.75,3.51,3.51,0,0,0-.91,2.17h5.52C364,586,363.17,585,361.53,585Z"/><path class="cls-2" d="M371.87,594.11a4.91,4.91,0,0,1-3.09-.89,3.2,3.2,0,0,1-1.25-2.41l1.78-.27a2.39,2.39,0,0,0,.76,1.63,2.65,2.65,0,0,0,1.8.53,2.45,2.45,0,0,0,1.57-.43A1.51,1.51,0,0,0,374,591c0-.79-.59-1.27-1.76-1.43l-1.44-.23a4,4,0,0,1-2.19-1,2.48,2.48,0,0,1-.76-1.87,2.56,2.56,0,0,1,1-2.09,4.27,4.27,0,0,1,2.73-.81,4.33,4.33,0,0,1,2.74.79,3.56,3.56,0,0,1,1.27,2.29l-1.64.24a2.6,2.6,0,0,0-.81-1.47,3,3,0,0,0-3.05-.06,1.2,1.2,0,0,0-.54,1,1.16,1.16,0,0,0,.37.92,2.32,2.32,0,0,0,1.18.46l1.61.26c2,.33,3,1.28,3,2.86a2.83,2.83,0,0,1-1,2.32A4.33,4.33,0,0,1,371.87,594.11Z"/><path class="cls-2" d="M181,269.55h-6.1L173.6,273h-2l5.42-14H179l5.36,14h-2.1Zm-5.48-1.6h4.88l-2.4-6.52Z"/><path class="cls-2" d="M190.23,273h-1.89l-3.84-10h1.88l2.94,8,3-8h1.81Z"/><path class="cls-2" d="M199.86,271.79a2.35,2.35,0,0,0,2.53-2l1.65.32a3.63,3.63,0,0,1-1.42,2.3,4.48,4.48,0,0,1-2.76.84,4.62,4.62,0,0,1-3.59-1.36A5.49,5.49,0,0,1,195,268a5.38,5.38,0,0,1,1.3-3.8,4.5,4.5,0,0,1,3.51-1.45A4.14,4.14,0,0,1,203,264a5,5,0,0,1,1.17,3.52v.86h-7.4C196.91,270.66,197.92,271.79,199.86,271.79Zm-.09-7.62a2.75,2.75,0,0,0-2,.74,3.54,3.54,0,0,0-.91,2.18h5.53C202.28,265.14,201.41,264.17,199.77,264.17Z"/><path class="cls-2" d="M208.33,273h-1.78V263h1.74v1.81a3.09,3.09,0,0,1,2.86-1.81h.78v1.68h-.8a2.35,2.35,0,0,0-2,1.1,5.17,5.17,0,0,0-.76,3Z"/><path class="cls-2" d="M222,271.5h.47V273h-1a2.22,2.22,0,0,1-1.32-.38,1.42,1.42,0,0,1-.6-1,3.49,3.49,0,0,1-3.16,1.66,3.78,3.78,0,0,1-2.52-.81,2.65,2.65,0,0,1-1-2.11,2.79,2.79,0,0,1,.78-2,4,4,0,0,1,2.24-1l2.92-.5a.67.67,0,0,0,.62-.72,1.69,1.69,0,0,0-.58-1.33,2.36,2.36,0,0,0-1.6-.51,2.59,2.59,0,0,0-1.61.45,2.34,2.34,0,0,0-.82,1.4l-1.69-.19a3.43,3.43,0,0,1,1.36-2.24,4.6,4.6,0,0,1,2.83-.85,4,4,0,0,1,2.82,1,3.31,3.31,0,0,1,1,2.55v4.5a.83.83,0,0,0,.17.59A.81.81,0,0,0,222,271.5Zm-7.29-1.31a1.49,1.49,0,0,0,.51,1.19,2.16,2.16,0,0,0,1.41.43,2.69,2.69,0,0,0,2.09-.92,3.41,3.41,0,0,0,.81-2.35V268l-3.2.55a2.17,2.17,0,0,0-1.21.56A1.57,1.57,0,0,0,214.67,270.19Z"/><path class="cls-2" d="M227.93,272.39a4,4,0,0,1-3.16-1.31,5,5,0,0,1-1.16-3.49,5.06,5.06,0,0,1,1.18-3.5,4,4,0,0,1,3.14-1.35,3.66,3.66,0,0,1,3.1,1.47V263h1.74v9.54a4.35,4.35,0,0,1-1.18,3.22,4.47,4.47,0,0,1-3.29,1.17,5.08,5.08,0,0,1-3.15-.89,3.43,3.43,0,0,1-1.34-2.47l1.78-.17a2.36,2.36,0,0,0,.86,1.56,3,3,0,0,0,1.85.5,2.56,2.56,0,0,0,2-.76,3.27,3.27,0,0,0,.69-2.26v-1.56A3.61,3.61,0,0,1,227.93,272.39Zm-1.74-7.26a4.38,4.38,0,0,0,0,4.87,2.59,2.59,0,0,0,2.07.87,2.49,2.49,0,0,0,2-.91,3.64,3.64,0,0,0,.76-2.39,3.55,3.55,0,0,0-.78-2.38,2.43,2.43,0,0,0-2-.94A2.56,2.56,0,0,0,226.19,265.13Z"/><path class="cls-2" d="M239.88,271.79a2.36,2.36,0,0,0,2.54-2l1.64.32a3.58,3.58,0,0,1-1.41,2.3,4.49,4.49,0,0,1-2.77.84,4.61,4.61,0,0,1-3.58-1.36A5.49,5.49,0,0,1,235,268a5.38,5.38,0,0,1,1.3-3.8,4.5,4.5,0,0,1,3.51-1.45,4.14,4.14,0,0,1,3.22,1.29,5,5,0,0,1,1.17,3.52v.86h-7.4Q237,271.79,239.88,271.79Zm-.08-7.62a2.75,2.75,0,0,0-2,.74,3.54,3.54,0,0,0-.91,2.18h5.52C242.31,265.14,241.44,264.17,239.8,264.17Z"/><path class="cls-2" d="M259.75,266.5V273H258v-6.16a2.64,2.64,0,0,0-.61-1.88,2.27,2.27,0,0,0-1.75-.66,2.45,2.45,0,0,0-2,.81,3.56,3.56,0,0,0-.69,2.37V273h-1.78V259h1.78v5.23a3.49,3.49,0,0,1,3.08-1.47,3.68,3.68,0,0,1,2.74,1A3.73,3.73,0,0,1,259.75,266.5Z"/><path class="cls-2" d="M266.79,271.79a2.36,2.36,0,0,0,2.54-2l1.64.32a3.66,3.66,0,0,1-1.41,2.3,4.51,4.51,0,0,1-2.77.84,4.63,4.63,0,0,1-3.59-1.36A5.49,5.49,0,0,1,262,268a5.42,5.42,0,0,1,1.29-3.8,4.51,4.51,0,0,1,3.51-1.45A4.12,4.12,0,0,1,270,264a5,5,0,0,1,1.17,3.52v.86h-7.4Q263.89,271.79,266.79,271.79Zm-.09-7.62a2.75,2.75,0,0,0-2,.74,3.6,3.6,0,0,0-.91,2.18h5.53C269.21,265.14,268.34,264.17,266.7,264.17Z"/><path class="cls-2" d="M275.27,261.37h-1.78V259h1.78Zm0,11.62h-1.78V263h1.78Z"/><path class="cls-2" d="M282,272.39a4,4,0,0,1-3.16-1.31,5,5,0,0,1-1.16-3.49,5.06,5.06,0,0,1,1.18-3.5,4,4,0,0,1,3.14-1.35,3.65,3.65,0,0,1,3.1,1.47V263h1.74v9.54a4.31,4.31,0,0,1-1.18,3.22,4.44,4.44,0,0,1-3.28,1.17,5,5,0,0,1-3.15-.89,3.4,3.4,0,0,1-1.35-2.47l1.78-.17a2.4,2.4,0,0,0,.86,1.56,3,3,0,0,0,1.86.5,2.59,2.59,0,0,0,2-.76,3.32,3.32,0,0,0,.68-2.26v-1.56A3.61,3.61,0,0,1,282,272.39Zm-1.73-7.26a4.33,4.33,0,0,0,0,4.87,2.56,2.56,0,0,0,2.07.87,2.48,2.48,0,0,0,2-.91,4.08,4.08,0,0,0,0-4.77,2.43,2.43,0,0,0-2-.94A2.54,2.54,0,0,0,280.23,265.13Z"/><path class="cls-2" d="M298.31,266.5V273h-1.77v-6.16a2.65,2.65,0,0,0-.62-1.88,2.25,2.25,0,0,0-1.75-.66,2.46,2.46,0,0,0-2,.81,3.56,3.56,0,0,0-.68,2.37V273h-1.78V259h1.78v5.23a3.47,3.47,0,0,1,3.07-1.47,3.71,3.71,0,0,1,2.75,1A3.77,3.77,0,0,1,298.31,266.5Z"/><path class="cls-2" d="M299.91,264.45V263h1.76v-3.22h1.78V263H306v1.46h-2.52v5.6a1.64,1.64,0,0,0,.28,1.1,1.22,1.22,0,0,0,1,.31h1.52V273h-1.79a2.77,2.77,0,0,1-2-.69,2.69,2.69,0,0,1-.71-2v-5.84Z"/><path class="cls-2" d="M312,268a5.39,5.39,0,0,1,1.32-3.8,5.07,5.07,0,0,1,7.1,0,5.34,5.34,0,0,1,1.34,3.8,5.41,5.41,0,0,1-1.34,3.8,5.1,5.1,0,0,1-7.1,0A5.41,5.41,0,0,1,312,268Zm7.12,2.74a5,5,0,0,0,0-5.48,3,3,0,0,0-4.49,0,5,5,0,0,0,0,5.48,2.69,2.69,0,0,0,2.24,1A2.77,2.77,0,0,0,319.13,270.73Z"/><path class="cls-2" d="M326.42,264.45V273h-1.79v-8.54h-1.8V263h1.8v-.76a3.28,3.28,0,0,1,.82-2.4,3.1,3.1,0,0,1,2.33-.85h1.45v1.49h-1.32a1.38,1.38,0,0,0-1.13.45,2.3,2.3,0,0,0-.36,1.42V263h2.5v1.46Z"/><path class="cls-2" d="M175,297H173.1V283h5.52a5,5,0,0,1,3.52,1.24,4.07,4.07,0,0,1,1.36,3.15,4.51,4.51,0,0,1-1.38,3.36,4.81,4.81,0,0,1-3.5,1.34H175Zm6.54-9.62a2.57,2.57,0,0,0-.85-2,3.21,3.21,0,0,0-2.23-.78H175v5.84h3.46a2.92,2.92,0,0,0,3.08-3.07Z"/><path class="cls-2" d="M189.59,295.79a2.36,2.36,0,0,0,2.54-2l1.64.32a3.66,3.66,0,0,1-1.41,2.3,4.49,4.49,0,0,1-2.77.84,4.64,4.64,0,0,1-3.59-1.36,5.53,5.53,0,0,1-1.25-3.88,5.38,5.38,0,0,1,1.3-3.8,4.47,4.47,0,0,1,3.5-1.45,4.16,4.16,0,0,1,3.23,1.29,5,5,0,0,1,1.17,3.52v.86h-7.41Q186.69,295.79,189.59,295.79Zm-.09-7.62a2.73,2.73,0,0,0-2,.74,3.54,3.54,0,0,0-.92,2.18h5.53C192,289.14,191.14,288.17,189.5,288.17Z"/><path class="cls-2" d="M195.65,292a5.43,5.43,0,0,1,1.31-3.8,5.07,5.07,0,0,1,7.1,0,5.3,5.3,0,0,1,1.34,3.8,5.36,5.36,0,0,1-1.34,3.8,5.1,5.1,0,0,1-7.1,0A5.45,5.45,0,0,1,195.65,292Zm7.12,2.74a5,5,0,0,0,0-5.48,2.76,2.76,0,0,0-2.26-1,2.72,2.72,0,0,0-2.24,1,5,5,0,0,0,0,5.48,2.71,2.71,0,0,0,2.24,1A2.79,2.79,0,0,0,202.77,294.73Z"/><path class="cls-2" d="M212.73,286.74a4.12,4.12,0,0,1,3.25,1.43,5.5,5.5,0,0,1,1.22,3.74,5.83,5.83,0,0,1-1.22,3.86,4.06,4.06,0,0,1-3.25,1.46,3.83,3.83,0,0,1-3.25-1.62v5.08h-1.77V287h1.74v1.5A3.76,3.76,0,0,1,212.73,286.74Zm2.63,5.25a4.3,4.3,0,0,0-.78-2.71,2.54,2.54,0,0,0-2.12-1,2.65,2.65,0,0,0-2.19,1,4.16,4.16,0,0,0-.82,2.7,4.09,4.09,0,0,0,.83,2.68,2.67,2.67,0,0,0,2.18,1,2.56,2.56,0,0,0,2.12-1A4.28,4.28,0,0,0,215.36,292Z"/><path class="cls-2" d="M221.3,297h-1.78V283h1.78Z"/><path class="cls-2" d="M228.46,295.79a2.36,2.36,0,0,0,2.54-2l1.64.32a3.66,3.66,0,0,1-1.41,2.3,4.51,4.51,0,0,1-2.77.84,4.63,4.63,0,0,1-3.59-1.36,5.49,5.49,0,0,1-1.25-3.88,5.42,5.42,0,0,1,1.29-3.8,4.51,4.51,0,0,1,3.51-1.45,4.12,4.12,0,0,1,3.22,1.29,5,5,0,0,1,1.17,3.52v.86h-7.4Q225.56,295.79,228.46,295.79Zm-.09-7.62a2.75,2.75,0,0,0-2,.74,3.6,3.6,0,0,0-.91,2.18H231C230.88,289.14,230,288.17,228.37,288.17Z"/><polyline class="cls-6" points="408.19 99.18 408.19 83.33 1305.32 83.33 1305.32 99.18"/><line class="cls-6" x1="1920" y1="1012.89" y2="1012.89"/></g></svg>