<svg xmlns="http://www.w3.org/2000/svg" viewBox="0 0 1080 1080"><defs><style>.cls-1{fill:#fff;}</style></defs><g id="Background"><rect class="cls-1" width="1080" height="1080"/></g><g id="Graphics"><path d="M386.66,746.2a103.89,103.89,0,0,0,76.67,100.26A103.89,103.89,0,0,0,540,746.2V415.71H386.66Z"/><path d="M693.34,333.8a103.89,103.89,0,0,0-76.67-100.26A103.89,103.89,0,0,0,540,333.8V664.29H693.34Z"/><rect class="cls-1" x="628" y="499.48" width="5.57" height="30.62"/><path class="cls-1" d="M618.26,521.75a2.79,2.79,0,0,1-5.57,0V519h-5.56v2.78a2.78,2.78,0,0,1-2.79,2.78h-5.57V519h-5.56v5.56H565.37v-25H559.8V530.1h44.54a8.34,8.34,0,0,0,5.57-2.13,8.35,8.35,0,0,0,13.92-6.22v-5.57h-5.57Z"/><path class="cls-1" d="M548.66,524.53H537.53a2.78,2.78,0,0,1-2.78-2.77h0v-5.57h-5.57V519h0v2.78h0a2.79,2.79,0,0,1-5.57,0V519H518v2.78a2.78,2.78,0,0,1-2.78,2.78h-5.57V519h-5.57v5.56H473.5a2.76,2.76,0,0,1-2-.81,2.8,2.8,0,0,1-.81-2h0A8.35,8.35,0,0,0,454.2,520a8.35,8.35,0,0,0,8.17,10.12,8.29,8.29,0,0,0,2.78-.48v.48a5.58,5.58,0,0,1-5.57,5.57H456.8v5.57h2.78a11.16,11.16,0,0,0,11.14-11.14v-.47a8.37,8.37,0,0,0,2.78.47h41.76a8.34,8.34,0,0,0,5.57-2.13A8.33,8.33,0,0,0,532,528a8.34,8.34,0,0,0,5.57,2.13h16.7V516.18h-5.57Zm-86.29,0a2.79,2.79,0,0,1-.63-5.5,3.52,3.52,0,0,1,.63-.06,2.78,2.78,0,0,1,2.78,2.78h0A2.78,2.78,0,0,1,462.37,524.53Z"/><path class="cls-1" d="M442.88,530.1a5.58,5.58,0,0,1-5.57,5.57v5.57a11.16,11.16,0,0,0,11.14-11.14V519h-5.57Z"/><path class="cls-1" d="M625.69,486.52a9.6,9.6,0,0,0-9.59,9.58v3.4h5.57v-3.4a4,4,0,0,1,4-4h17v-5.57Z"/><rect class="cls-1" x="538.92" y="505.05" width="5.57" height="5.57"/><path class="cls-1" d="M500.07,579.07H485V557.15h14.75v2.57H488v7h10.49v2.5H488v7.32h12.05Z"/><path class="cls-1" d="M506.73,579.07H504V557.15h2.78Z"/><path class="cls-1" d="M517.93,577.19a3.69,3.69,0,0,0,4-3.16l2.57.5a5.69,5.69,0,0,1-2.21,3.6,7,7,0,0,1-4.34,1.32,7.25,7.25,0,0,1-5.61-2.12,8.65,8.65,0,0,1-2-6.08,8.44,8.44,0,0,1,2-6,7,7,0,0,1,5.48-2.26,6.51,6.51,0,0,1,5,2,7.9,7.9,0,0,1,1.83,5.51v1.34H513.17Q513.4,577.19,517.93,577.19Zm-.13-11.92a4.27,4.27,0,0,0-3.14,1.16,5.54,5.54,0,0,0-1.43,3.41h8.65C521.73,566.79,520.36,565.27,517.8,565.27Z"/><path class="cls-1" d="M535.27,579.07h-2.95l-6-15.65h2.94l4.6,12.46,4.61-12.46h2.85Z"/><path class="cls-1" d="M556.76,576.75h.75v2.32H556a3.41,3.41,0,0,1-2.06-.59,2.16,2.16,0,0,1-.93-1.63,5.46,5.46,0,0,1-5,2.6,5.89,5.89,0,0,1-3.95-1.27,4.13,4.13,0,0,1-1.5-3.3,4.37,4.37,0,0,1,1.23-3.2,6.2,6.2,0,0,1,3.5-1.63l4.57-.78a1.06,1.06,0,0,0,1-1.13,2.65,2.65,0,0,0-.92-2.07,3.71,3.71,0,0,0-2.51-.8,4.08,4.08,0,0,0-2.52.71,3.67,3.67,0,0,0-1.28,2.19l-2.65-.3a5.37,5.37,0,0,1,2.13-3.5,7.15,7.15,0,0,1,4.43-1.33,6.23,6.23,0,0,1,4.42,1.5,5.14,5.14,0,0,1,1.62,4v7.05a1,1,0,0,0,1.16,1.18Zm-11.4-2.07a2.31,2.31,0,0,0,.79,1.87,3.33,3.33,0,0,0,2.22.67,4.16,4.16,0,0,0,3.26-1.43,5.31,5.31,0,0,0,1.28-3.67v-.91l-5,.88A3.22,3.22,0,0,0,546,573,2.35,2.35,0,0,0,545.36,574.68Z"/><path class="cls-1" d="M558.38,565.71v-2.29h2.75v-5h2.78v5h4v2.29h-4v8.76a2.63,2.63,0,0,0,.44,1.73,2,2,0,0,0,1.5.49h2.39v2.38h-2.81a4.38,4.38,0,0,1-3.2-1.08,4.19,4.19,0,0,1-1.1-3.14v-9.14Z"/><path class="cls-1" d="M569.89,571.25a8.48,8.48,0,0,1,2.06-6A7.18,7.18,0,0,1,577.5,563a7.26,7.26,0,0,1,5.56,2.26,8.33,8.33,0,0,1,2.1,6,8.42,8.42,0,0,1-2.1,5.94,7.26,7.26,0,0,1-5.56,2.26,7.18,7.18,0,0,1-5.55-2.26A8.47,8.47,0,0,1,569.89,571.25ZM581,575.53a7.76,7.76,0,0,0,0-8.57,4.29,4.29,0,0,0-3.53-1.57A4.25,4.25,0,0,0,574,567a7.91,7.91,0,0,0,0,8.58,4.74,4.74,0,0,0,7,0Z"/><path class="cls-1" d="M591.55,579.07h-2.78V563.42h2.72v2.84a4.85,4.85,0,0,1,4.48-2.84h1.2v2.63h-1.24a3.69,3.69,0,0,0-3.19,1.72,8,8,0,0,0-1.19,4.64Z"/><polygon class="cls-1" points="463.34 800.67 433.5 770.84 435.31 769.04 463.34 797.06 491.35 769.04 493.15 770.84 463.34 800.67"/><rect class="cls-1" x="462.05" y="741.69" width="2.55" height="57.17"/><polygon class="cls-1" points="644.69 310.96 616.66 282.94 588.65 310.96 586.85 309.16 616.66 279.33 646.5 309.16 644.69 310.96"/><rect class="cls-1" x="615.4" y="281.14" width="2.55" height="57.17"/></g></svg>