<svg xmlns="http://www.w3.org/2000/svg" viewBox="0 0 1080 1080"><defs><style>.cls-1{fill:#fff;}</style></defs><g id="Background"><rect class="cls-1" width="1080" height="1080"/></g><g id="Content"><rect x="438.46" y="351.43" width="203.08" height="580.23" transform="translate(-101.54 1181.54) rotate(-90)"/><path d="M336.92,540c0-112.16,90.92-203.08,203.08-203.08S743.08,427.84,743.08,540"/><path class="cls-1" d="M451.61,658.85a9.6,9.6,0,0,1-6.3-1.92,6.67,6.67,0,0,1-2.39-5.25l3-.38a5.08,5.08,0,0,0,1.58,3.77,6.12,6.12,0,0,0,4.15,1.29A5.13,5.13,0,0,0,455,655.3a3.58,3.58,0,0,0,1.25-2.86,2.94,2.94,0,0,0-.88-2.27,6.66,6.66,0,0,0-3-1.26l-2.93-.63a8.57,8.57,0,0,1-4.44-2.16,5.82,5.82,0,0,1,.61-8.25A7.85,7.85,0,0,1,451,636.1a8.44,8.44,0,0,1,5.53,1.69,6.6,6.6,0,0,1,2.36,4.69l-3,.37c-.35-2.84-2-4.26-4.91-4.26a5,5,0,0,0-3.25.94,3.49,3.49,0,0,0-.32,4.87,5.35,5.35,0,0,0,2.73,1.24l3.42.74a8.46,8.46,0,0,1,4.36,2,5.27,5.27,0,0,1,1.39,3.85,6,6,0,0,1-2.1,4.71A8.17,8.17,0,0,1,451.61,658.85Z"/><path class="cls-1" d="M476,649.8v8.66h-2.79v-9.67a4.39,4.39,0,0,0-.89-2.95,3.17,3.17,0,0,0-2.53-1,3.51,3.51,0,0,0-2.92,1.28,5.91,5.91,0,0,0-1,3.72v8.66h-2.79v-15.7h2.73v1.92a5.24,5.24,0,0,1,4.61-2.3,6,6,0,0,1,3,.72,4.77,4.77,0,0,1,1.93,2.11,5.32,5.32,0,0,1,5.06-2.83,5.57,5.57,0,0,1,4.22,1.58,6,6,0,0,1,1.53,4.32v10.18h-2.79v-9.67a4.34,4.34,0,0,0-.91-2.95,3.19,3.19,0,0,0-2.53-1,3.5,3.5,0,0,0-2.92,1.28A5.91,5.91,0,0,0,476,649.8Z"/><path class="cls-1" d="M489.65,650.61a8.46,8.46,0,0,1,2.07-6,7.18,7.18,0,0,1,5.57-2.27,7.27,7.27,0,0,1,5.58,2.27,8.36,8.36,0,0,1,2.1,6,8.5,8.5,0,0,1-2.1,6,7.31,7.31,0,0,1-5.58,2.27,7.21,7.21,0,0,1-5.57-2.27A8.49,8.49,0,0,1,489.65,650.61Zm11.18,4.3a7.81,7.81,0,0,0,0-8.6,4.32,4.32,0,0,0-3.54-1.57,4.27,4.27,0,0,0-3.52,1.57,7.93,7.93,0,0,0,0,8.61,4.27,4.27,0,0,0,3.52,1.56A4.32,4.32,0,0,0,500.83,654.91Z"/><path class="cls-1" d="M522.35,642.76l-6.17,5.87,6.66,9.83h-3.33l-5.34-8-2.79,2.61v5.36h-2.79v-22h2.79v13.27l7.29-7Z"/><path class="cls-1" d="M528,640.21h-2.79v-3.74H528Zm0,18.25h-2.79v-15.7H528Z"/><path class="cls-1" d="M546.16,648.28v10.18h-2.79v-9.67a4.24,4.24,0,0,0-1-3,3.58,3.58,0,0,0-2.76-1,3.87,3.87,0,0,0-3.13,1.27,5.68,5.68,0,0,0-1.07,3.73v8.66h-2.79v-15.7h2.73v2a5.5,5.5,0,0,1,4.89-2.36A5.76,5.76,0,0,1,544.6,644,5.9,5.9,0,0,1,546.16,648.28Z"/><path class="cls-1" d="M556.5,657.53a6.41,6.41,0,0,1-5-2.06,7.89,7.89,0,0,1-1.82-5.49,8,8,0,0,1,1.85-5.49,6.23,6.23,0,0,1,4.94-2.11,5.7,5.7,0,0,1,4.86,2.3v-1.92h2.73v15a6.81,6.81,0,0,1-1.84,5.06,7,7,0,0,1-5.17,1.84,7.94,7.94,0,0,1-4.94-1.4,5.33,5.33,0,0,1-2.11-3.87l2.79-.28a3.84,3.84,0,0,0,1.35,2.46,4.79,4.79,0,0,0,2.91.78,4,4,0,0,0,3.15-1.2,5.18,5.18,0,0,0,1.07-3.54v-2.45A5.64,5.64,0,0,1,556.5,657.53Zm-2.73-11.41a5.8,5.8,0,0,0-1.16,3.83,5.73,5.73,0,0,0,1.16,3.82,4.05,4.05,0,0,0,3.25,1.37,3.92,3.92,0,0,0,3.15-1.43,5.69,5.69,0,0,0,1.19-3.76,5.59,5.59,0,0,0-1.22-3.74,3.84,3.84,0,0,0-3.12-1.47A4,4,0,0,0,553.77,646.12Z"/><path class="cls-1" d="M587.91,653.06h-9.57l-2.05,5.4h-3.07l8.51-22h3l8.42,22h-3.3Zm-8.6-2.51H587L583.2,640.3Z"/><path class="cls-1" d="M598.88,658.46h-2.79v-15.7h2.73v2.85a4.85,4.85,0,0,1,4.49-2.85h1.21v2.64h-1.24a3.72,3.72,0,0,0-3.21,1.72,8.1,8.1,0,0,0-1.19,4.66Z"/><path class="cls-1" d="M613.66,656.58a3.7,3.7,0,0,0,4-3.18l2.58.51a5.72,5.72,0,0,1-2.22,3.61,7.08,7.08,0,0,1-4.35,1.33,7.25,7.25,0,0,1-5.63-2.14,8.63,8.63,0,0,1-2-6.1,8.51,8.51,0,0,1,2-6,7,7,0,0,1,5.51-2.27,6.48,6.48,0,0,1,5.06,2,7.88,7.88,0,0,1,1.84,5.52v1.35H608.88C609,654.81,610.63,656.58,613.66,656.58Zm-.14-12a4.29,4.29,0,0,0-3.15,1.17,5.57,5.57,0,0,0-1.43,3.42h8.68Q617.4,644.61,613.52,644.61Z"/><path class="cls-1" d="M637.28,656.13H638v2.33h-1.52a3.46,3.46,0,0,1-2.07-.59,2.16,2.16,0,0,1-.93-1.63,5.5,5.5,0,0,1-5,2.61,5.91,5.91,0,0,1-4-1.28,4.16,4.16,0,0,1-1.5-3.31,4.37,4.37,0,0,1,1.23-3.21,6.15,6.15,0,0,1,3.51-1.64l4.58-.78a1.05,1.05,0,0,0,1-1.13,2.62,2.62,0,0,0-.92-2.08,3.66,3.66,0,0,0-2.51-.81,4,4,0,0,0-2.53.72,3.71,3.71,0,0,0-1.29,2.2l-2.65-.31a5.35,5.35,0,0,1,2.14-3.51,7.16,7.16,0,0,1,4.44-1.33,6.28,6.28,0,0,1,4.44,1.5,5.19,5.19,0,0,1,1.62,4V655a1.25,1.25,0,0,0,.26.92A1.21,1.21,0,0,0,637.28,656.13Zm-11.44-2.07a2.29,2.29,0,0,0,.8,1.87,3.33,3.33,0,0,0,2.22.68,4.17,4.17,0,0,0,3.27-1.44,5.28,5.28,0,0,0,1.29-3.68v-.91l-5,.87a3.35,3.35,0,0,0-1.89.88A2.41,2.41,0,0,0,625.84,654.06Z"/><path class="cls-1" d="M687.42,598.31a6.86,6.86,0,0,0-6.85,6.85,6.68,6.68,0,0,0,.4,2.29h-7.22v-1.14a8,8,0,0,0-8-8H660v4.57h5.71a3.44,3.44,0,0,1,3.43,3.43v1.14H651.34V586.89h-4.57v26.27a5.71,5.71,0,1,1-11.41,0v-5.71h-4.57v5.71a10.28,10.28,0,1,0,20.55,0V612h36.08a6.86,6.86,0,0,0,0-13.71Zm0,9.14a2.29,2.29,0,1,1,2.28-2.29A2.29,2.29,0,0,1,687.42,607.45Z"/><path class="cls-1" d="M390.3,612a4.58,4.58,0,0,1-4.57,4.57v4.57a9.15,9.15,0,0,0,9.14-9.14v-9.14H390.3Z"/><rect class="cls-1" x="410.58" y="584.59" width="9.69" height="4.57" transform="translate(-293.3 465.64) rotate(-45)"/><rect class="cls-1" x="430.28" y="616.59" width="9.14" height="4.57"/><path class="cls-1" d="M480.47,600.6v4.56a2.29,2.29,0,1,1-4.57,0v-2.28h-4.57v2.28a2.3,2.3,0,0,1-2.29,2.29h-4.56v-4.57h-4.57v4.57H446.27a2.29,2.29,0,0,1-2.28-2.29v-2.28h-4.57v2.28a2.3,2.3,0,0,1-2.29,2.29h-4.57v-2.3a6.86,6.86,0,0,0-6.85-6.86h-7l7.52-7.52L423,587.54l-10.95,11v4.37h13.71a2.29,2.29,0,0,1,2.28,2.29v2.28H404V586.87h-4.57V612h30.85v0h6.85a6.81,6.81,0,0,0,4.57-1.76,6.84,6.84,0,0,0,4.57,1.76H469a6.81,6.81,0,0,0,4.57-1.76,6.85,6.85,0,0,0,11.43-5.1V600.6Z"/><path class="cls-1" d="M614.8,598.31H602l7.52-7.52-3.23-3.23-11,11v4.37H614.8a2.28,2.28,0,0,1,2.28,2.28v2.29H590.81a2.3,2.3,0,0,1-2.29-2.29V600.6H584v4.56h0a2.29,2.29,0,1,1-4.57,0v-2.28h-4.56v2.28a2.3,2.3,0,0,1-2.29,2.29H568v-4.57h-4.57v4.57H549.76a2.3,2.3,0,0,1-2.29-2.29v-2.28H542.9v2.28a2.29,2.29,0,0,1-2.28,2.29h-6.85v-2.29a6.86,6.86,0,0,0-6.85-6.85h-4.57v4.57h4.57a2.29,2.29,0,0,1,2.28,2.28v2.29h-6.85V612h18.27a6.83,6.83,0,0,0,4.57-1.76,6.81,6.81,0,0,0,4.57,1.76h22.77a6.81,6.81,0,0,0,4.57-1.76,6.81,6.81,0,0,0,9.14,0,6.81,6.81,0,0,0,4.57,1.76h30.84v-6.86A6.86,6.86,0,0,0,614.8,598.31Z"/><rect class="cls-1" x="533.77" y="616.59" width="9.14" height="4.57"/><polygon class="cls-1" points="579.38 586.89 574.82 586.89 574.82 591.46 570.25 591.46 570.25 596.03 579.38 596.03 579.38 586.89"/><rect class="cls-1" x="503.31" y="607.38" width="4.57" height="4.57"/><path class="cls-1" d="M512.44,612a6.85,6.85,0,1,1-13.69,0v-4.57h-4.57V612A11.42,11.42,0,1,0,517,612v-9.14h-4.57Z"/><path class="cls-1" d="M478.43,483v14.7H604.31V483Zm5.48,5.48h91.34v3.74H483.91Zm114.92,3.74h-18.1v-3.74h18.1Z"/><path class="cls-1" d="M491.91,460.34v-8.66a8,8,0,0,1,8-8V438.2a13.5,13.5,0,0,0-13.48,13.48v8.66a8,8,0,0,1-8,8v5.48A13.5,13.5,0,0,0,491.91,460.34Z"/></g></svg>