<svg xmlns="http://www.w3.org/2000/svg" viewBox="0 0 1080 1080"><defs><style>.cls-1{fill:#fff;}.cls-2{fill:#b8babc;}.cls-3{fill:#222221;}</style></defs><g id="Background"><rect class="cls-1" width="1080" height="1080"/></g><g id="Graphics"><polygon class="cls-2" points="291.93 470.71 208.61 554.03 208.61 928.63 292.96 1012.99 871.39 1012.99 871.39 470.71 291.93 470.71"/><path d="M698.25,768a4.56,4.56,0,0,1-4.55,4.56v4.55a9.12,9.12,0,0,0,9.11-9.11v-9.11h-4.56Z"/><rect x="698.25" y="749.76" width="4.55" height="4.55"/><path d="M686.87,763.43h-9.11a2.28,2.28,0,0,1-2.28-2.28v-2.28h-4.56v2.28a2.28,2.28,0,0,1-2.27,2.28h-6.84a2.28,2.28,0,0,1-2.27-2.28v-2.28H655v2.28a2.28,2.28,0,0,1-2.28,2.28h-9.11V768h9.11a6.83,6.83,0,0,0,4.56-1.74,6.81,6.81,0,0,0,4.55,1.74h6.84a6.83,6.83,0,0,0,4.55-1.74,6.83,6.83,0,0,0,4.56,1.74h13.66V756.59h-4.55Z"/><rect x="675.48" y="772.54" width="9.11" height="4.56"/><rect x="660.67" y="772.54" width="9.11" height="4.56"/><rect x="644.73" y="772.54" width="9.11" height="4.56"/><rect x="629.93" y="763.43" width="4.55" height="4.55"/><path d="M639,768a6.83,6.83,0,0,1-13.66,0v-4.56h-4.55V768a11.38,11.38,0,0,0,22.76,0v-9.12H639Z"/><path d="M754.06,768a4.57,4.57,0,0,1-4.56,4.56v4.55a9.12,9.12,0,0,0,9.11-9.11v-9.11h-4.55Z"/><polygon points="820.11 742.93 815.55 742.93 815.55 747.48 811 747.48 811 752.04 820.11 752.04 820.11 742.93"/><path d="M824.66,756.59v4.56a2.28,2.28,0,1,1-4.55,0v-2.28h-4.56v2.28a2.28,2.28,0,0,1-2.28,2.28h-4.55v-4.56h-4.56v4.56h-25a2.29,2.29,0,0,1-2.28-2.28h0A6.83,6.83,0,1,0,770,768a6.67,6.67,0,0,0,2.28-.4v.4a4.57,4.57,0,0,1-4.56,4.56h-2.28v4.55h2.28a9.12,9.12,0,0,0,9.11-9.11v-.39a7,7,0,0,0,2.28.39h34.16a6.84,6.84,0,0,0,4.56-1.75,6.83,6.83,0,0,0,11.39-5.08v-4.56ZM770,763.43a2.27,2.27,0,0,1-1.77-.85,2.27,2.27,0,0,1,1.25-3.65,2.52,2.52,0,0,1,.52-.06,2.23,2.23,0,0,1,1.43.51,2.27,2.27,0,0,1,.85,1.77h0A2.29,2.29,0,0,1,770,763.43Z"/><path d="M740.39,754.32a6.83,6.83,0,1,0,0,13.66,6.67,6.67,0,0,0,2.28-.4v.4a4.57,4.57,0,0,1-4.56,4.56h-2.27v4.55h2.27a9.11,9.11,0,0,0,9.11-9.11v-6.83A6.83,6.83,0,0,0,740.39,754.32Zm0,9.11a2.28,2.28,0,1,1,2.28-2.28A2.28,2.28,0,0,1,740.39,763.43Z"/><path d="M723.31,754.32a6.83,6.83,0,0,0-6.83,6.83,6.72,6.72,0,0,0,.76,3.12,9.1,9.1,0,0,0-5.32,8.27v6.83h4.56v-6.83A4.56,4.56,0,0,1,721,768h2.28a6.83,6.83,0,1,0,0-13.66Zm0,9.11a2.28,2.28,0,1,1,2.28-2.28A2.28,2.28,0,0,1,723.31,763.43Z"/><path d="M583.92,814.69V811.9l12.93-16.81H584v-2.6h16.13v2.82l-13,16.78h13.09v2.6Z"/><path d="M616.76,807.64H605.55a5.85,5.85,0,0,0,1.54,4,4.49,4.49,0,0,0,5.85.09,3.29,3.29,0,0,0,.94-1.72h2.6a5.86,5.86,0,0,1-2.44,3.92,7.33,7.33,0,0,1-4,1.19,6.76,6.76,0,0,1-5.26-2.38,9,9,0,0,1-2-5.89,9.63,9.63,0,0,1,1.22-5.07,6.77,6.77,0,0,1,6-3.32,6.39,6.39,0,0,1,4.82,2,8.2,8.2,0,0,1,2,5.58Zm-3.66-5.51a3.78,3.78,0,0,0-3.13-1.44c-2.88,0-4.29,2.35-4.35,4.67h8.45A5.61,5.61,0,0,0,613.1,802.13Z"/><path d="M634,807.64h-11.2a5.84,5.84,0,0,0,1.53,4,4.5,4.5,0,0,0,5.86.09,3.28,3.28,0,0,0,.93-1.72h2.6a5.86,5.86,0,0,1-2.44,3.92,7.33,7.33,0,0,1-4,1.19,6.76,6.76,0,0,1-5.26-2.38,9,9,0,0,1-2-5.89,9.63,9.63,0,0,1,1.22-5.07,6.78,6.78,0,0,1,6-3.32,6.37,6.37,0,0,1,4.82,2,8.16,8.16,0,0,1,2,5.58Zm-3.66-5.51a3.78,3.78,0,0,0-3.13-1.44c-2.88,0-4.29,2.35-4.35,4.67h8.45A5.53,5.53,0,0,0,630.35,802.13Z"/><path d="M651.27,807.64H640.06a5.84,5.84,0,0,0,1.53,4,4.5,4.5,0,0,0,5.86.09,3.29,3.29,0,0,0,.94-1.72H651a5.83,5.83,0,0,1-2.45,3.92,7.28,7.28,0,0,1-4,1.19,6.77,6.77,0,0,1-5.26-2.38,9,9,0,0,1-2-5.89,9.72,9.72,0,0,1,1.22-5.07,6.79,6.79,0,0,1,6-3.32,6.36,6.36,0,0,1,4.82,2,8.16,8.16,0,0,1,2,5.58Zm-3.67-5.51a3.76,3.76,0,0,0-3.13-1.44c-2.88,0-4.29,2.35-4.35,4.67h8.46A5.54,5.54,0,0,0,647.6,802.13Z"/><path d="M665.92,814.69V804.64c0-2.38-1-3.79-3.47-3.79a3.88,3.88,0,0,0-3.45,2.44,10.5,10.5,0,0,0-.56,4v7.36h-2.66V798.85h2.31l.22,2.38a5.37,5.37,0,0,1,4.79-2.79c3.61,0,5.48,2.16,5.48,5.82v10.43Z"/><path d="M694.82,812.87a9,9,0,0,1-6.29,2.23,9.18,9.18,0,0,1-6.36-2.13,7.37,7.37,0,0,1-2.38-5.33h2.92a5.06,5.06,0,0,0,1.56,3.51,6.28,6.28,0,0,0,4.26,1.38,5.89,5.89,0,0,0,4.13-1.28,3.28,3.28,0,0,0,1.13-2.6c0-1.73-1.1-3.17-3.73-3.57l-3.5-.54c-3.32-.5-5.92-2.34-5.92-5.88a6.14,6.14,0,0,1,1.94-4.39,8.24,8.24,0,0,1,5.82-2.19,8.38,8.38,0,0,1,5.77,2.13,6.69,6.69,0,0,1,2.12,4.76h-2.91a4.68,4.68,0,0,0-1.09-2.79,5.81,5.81,0,0,0-7.86,0,3.51,3.51,0,0,0-.91,2.42c0,2,1.66,2.91,3.32,3.13,1.25.15,2.47.37,3.69.56,3.7.53,6.17,2.79,6.17,6.29A5.76,5.76,0,0,1,694.82,812.87Z"/><path d="M711.33,814.69V804.64c0-2.38-1-3.79-3.48-3.79a3.87,3.87,0,0,0-3.44,2.44,10.32,10.32,0,0,0-.57,4v7.36h-2.66V792.08h2.66v8.86a5.4,5.4,0,0,1,4.64-2.5c3.6,0,5.51,2.16,5.51,5.82v10.43Z"/><path d="M730.17,813.25a7.13,7.13,0,0,1-9.58,0c-1.72-1.69-2.25-4-2.25-6.48s.53-4.79,2.25-6.48a7.13,7.13,0,0,1,9.58,0c1.73,1.69,2.26,4,2.26,6.48S731.9,811.56,730.17,813.25Zm-1.94-11.4a4.15,4.15,0,0,0-5.69,0c-1.13,1.16-1.48,3.07-1.48,4.92s.35,3.75,1.48,4.91a4.15,4.15,0,0,0,5.69,0c1.13-1.16,1.48-3.06,1.48-4.91S729.36,803,728.23,801.85Z"/><path d="M752.69,814.69h-2.57L746,802.57l-4.23,12.12h-2.54l-4.07-15.84h2.64l3,12,4-11.78h2.29l4,11.78,3.07-12h2.6Z"/><path d="M768,801.32a4.36,4.36,0,0,0-3,1.25c-1.28,1.22-1.44,3.41-1.44,5.07v7.05h-2.63V798.85h2.35l.22,2.78a4.92,4.92,0,0,1,4.73-2.88,7.53,7.53,0,0,1,1.25.1v2.59A8.1,8.1,0,0,0,768,801.32Z"/><path d="M783,813.25a7.13,7.13,0,0,1-9.58,0c-1.72-1.69-2.26-4-2.26-6.48s.54-4.79,2.26-6.48a7.13,7.13,0,0,1,9.58,0c1.72,1.69,2.25,4,2.25,6.48S784.69,811.56,783,813.25ZM781,801.85a4.16,4.16,0,0,0-5.7,0c-1.13,1.16-1.47,3.07-1.47,4.92s.34,3.75,1.47,4.91a4.16,4.16,0,0,0,5.7,0c1.12-1.16,1.47-3.06,1.47-4.91S782.15,803,781,801.85Z"/><path d="M800.44,813.25a7.13,7.13,0,0,1-9.58,0c-1.72-1.69-2.25-4-2.25-6.48s.53-4.79,2.25-6.48a7.13,7.13,0,0,1,9.58,0c1.72,1.69,2.26,4,2.26,6.48S802.16,811.56,800.44,813.25Zm-1.94-11.4a4.16,4.16,0,0,0-5.7,0c-1.13,1.16-1.47,3.07-1.47,4.92s.34,3.75,1.47,4.91a4.16,4.16,0,0,0,5.7,0c1.13-1.16,1.47-3.06,1.47-4.91S799.63,803,798.5,801.85Z"/><path d="M826.55,814.69V804.61c0-2.23-.72-3.76-3.22-3.76a3.23,3.23,0,0,0-2.41,1.06,6.06,6.06,0,0,0-1.35,4.36v8.42h-2.66V804.61c0-2.23-.66-3.76-3.19-3.76a3.37,3.37,0,0,0-2.7,1.41,7,7,0,0,0-1.06,4v8.42H807.3V798.85h2.32l.25,2.25a4.82,4.82,0,0,1,4.44-2.66,4.6,4.6,0,0,1,4.73,3,5.22,5.22,0,0,1,4.88-3c3.61,0,5.3,2.32,5.3,5.82v10.43Z"/><path d="M542.67,928.63h-3V906.71h3v9.46h11v-9.46h3v21.92h-3v-9.86h-11Z"/><path d="M568.09,926.75a3.69,3.69,0,0,0,4-3.16l2.57.5a5.73,5.73,0,0,1-2.21,3.6,7,7,0,0,1-4.34,1.33,7.27,7.27,0,0,1-5.62-2.13,8.63,8.63,0,0,1-2-6.08,8.49,8.49,0,0,1,2-5.95A7,7,0,0,1,568,912.6a6.51,6.51,0,0,1,5.05,2,7.9,7.9,0,0,1,1.83,5.51v1.34H563.32Q563.55,926.76,568.09,926.75ZM568,914.83a4.28,4.28,0,0,0-3.14,1.16,5.57,5.57,0,0,0-1.43,3.41H572Q571.8,914.83,568,914.83Z"/><path d="M581.36,910.44h-2.78v-3.73h2.78Zm0,18.19h-2.78V913h2.78Z"/><path d="M592,929a6.43,6.43,0,0,1-5.1-2.21,8.7,8.7,0,0,1-1.88-5.88,9.06,9.06,0,0,1,1.91-6A6.28,6.28,0,0,1,592,912.6a6,6,0,0,1,5.08,2.53v-8.42h2.78v21.92h-2.72v-2.35A5.89,5.89,0,0,1,592,929Zm-4.14-8.21a6.68,6.68,0,0,0,1.23,4.22,4,4,0,0,0,3.31,1.57,4.24,4.24,0,0,0,3.45-1.58,7.48,7.48,0,0,0,0-8.43A4.21,4.21,0,0,0,592.4,915a4,4,0,0,0-3.31,1.58A6.75,6.75,0,0,0,587.86,920.81Z"/><path d="M617.55,926.31h.75v2.32h-1.51a3.49,3.49,0,0,1-2.07-.58,2.2,2.2,0,0,1-.93-1.63,5.48,5.48,0,0,1-4.95,2.6,5.9,5.9,0,0,1-4-1.28,4.12,4.12,0,0,1-1.49-3.3,4.36,4.36,0,0,1,1.22-3.2,6.2,6.2,0,0,1,3.5-1.63l4.57-.78a1.06,1.06,0,0,0,1-1.13,2.65,2.65,0,0,0-.92-2.07,3.7,3.7,0,0,0-2.5-.8,4,4,0,0,0-2.53.71,3.67,3.67,0,0,0-1.28,2.19l-2.65-.3a5.35,5.35,0,0,1,2.14-3.5,7.1,7.1,0,0,1,4.42-1.33,6.3,6.3,0,0,1,4.43,1.49,5.21,5.21,0,0,1,1.61,4v7a1.3,1.3,0,0,0,.26.92A1.26,1.26,0,0,0,617.55,926.31Zm-11.4-2.06a2.31,2.31,0,0,0,.79,1.86,3.33,3.33,0,0,0,2.22.67,4.16,4.16,0,0,0,3.26-1.43,5.29,5.29,0,0,0,1.28-3.67v-.9l-5,.87a3.22,3.22,0,0,0-1.89.87A2.35,2.35,0,0,0,606.15,924.25Z"/><path d="M623.84,928.63h-2.79V913h2.73v2.84a4.84,4.84,0,0,1,4.48-2.84h1.2v2.63h-1.23a3.71,3.71,0,0,0-3.2,1.72,8,8,0,0,0-1.19,4.64Z"/><path d="M635.17,910.44h-2.79v-3.73h2.79Zm0,18.19h-2.79V913h2.79Z"/><path d="M652.86,926.31h.75v2.32h-1.52a3.48,3.48,0,0,1-2.06-.58,2.2,2.2,0,0,1-.93-1.63,5.5,5.5,0,0,1-5,2.6,5.87,5.87,0,0,1-3.94-1.28,4.13,4.13,0,0,1-1.5-3.3,4.4,4.4,0,0,1,1.22-3.2,6.24,6.24,0,0,1,3.5-1.63l4.58-.78a1.05,1.05,0,0,0,1-1.13,2.64,2.64,0,0,0-.91-2.07,3.72,3.72,0,0,0-2.51-.8,4,4,0,0,0-2.52.71,3.68,3.68,0,0,0-1.29,2.19l-2.64-.3a5.3,5.3,0,0,1,2.13-3.5,7.13,7.13,0,0,1,4.43-1.33,6.27,6.27,0,0,1,4.42,1.49,5.17,5.17,0,0,1,1.61,4v7a1,1,0,0,0,1.17,1.18Zm-11.41-2.06a2.31,2.31,0,0,0,.8,1.86,3.3,3.3,0,0,0,2.21.67,4.16,4.16,0,0,0,3.27-1.43,5.29,5.29,0,0,0,1.27-3.67v-.9l-5,.87a3.22,3.22,0,0,0-1.89.87A2.39,2.39,0,0,0,641.45,924.25Z"/><path d="M669.81,918.48v10.15H667V919a4.17,4.17,0,0,0-1-3,3.57,3.57,0,0,0-2.74-1,3.83,3.83,0,0,0-3.12,1.27,5.67,5.67,0,0,0-1.07,3.72v8.63h-2.78V913h2.72v2A5.5,5.5,0,0,1,664,912.6a5.73,5.73,0,0,1,4.29,1.58A5.85,5.85,0,0,1,669.81,918.48Z"/><path d="M689.14,929a9.64,9.64,0,0,1-6.29-1.91,6.63,6.63,0,0,1-2.38-5.23l2.95-.39a5,5,0,0,0,1.58,3.76,6.09,6.09,0,0,0,4.14,1.29,5.05,5.05,0,0,0,3.4-1.06,3.56,3.56,0,0,0,1.25-2.85,2.9,2.9,0,0,0-.88-2.26,6.51,6.51,0,0,0-3-1.26l-2.92-.63a8.45,8.45,0,0,1-4.42-2.15,5.81,5.81,0,0,1,.6-8.23,7.87,7.87,0,0,1,5.32-1.76A8.45,8.45,0,0,1,694,908a6.61,6.61,0,0,1,2.35,4.68l-3,.37q-.51-4.25-4.89-4.25a5,5,0,0,0-3.25.94,3.13,3.13,0,0,0-1.15,2.56,3.09,3.09,0,0,0,.84,2.29,5.35,5.35,0,0,0,2.72,1.24l3.41.74a8.31,8.31,0,0,1,4.34,2,5.21,5.21,0,0,1,1.39,3.83,6.05,6.05,0,0,1-2.09,4.7A8.18,8.18,0,0,1,689.14,929Z"/><path d="M714.06,918.48v10.15h-2.78V919a4.17,4.17,0,0,0-1-3,3.58,3.58,0,0,0-2.74-1,3.83,3.83,0,0,0-3.12,1.27,5.61,5.61,0,0,0-1.07,3.72v8.63h-2.78V906.71h2.78v8.18a5.45,5.45,0,0,1,4.81-2.29,5.74,5.74,0,0,1,4.3,1.58A5.85,5.85,0,0,1,714.06,918.48Z"/><path d="M717.5,920.81a8.48,8.48,0,0,1,2.06-5.95,7.18,7.18,0,0,1,5.55-2.26,7.28,7.28,0,0,1,5.57,2.26,8.33,8.33,0,0,1,2.09,5.95,8.42,8.42,0,0,1-2.09,5.94,7.29,7.29,0,0,1-5.57,2.27,7.18,7.18,0,0,1-5.55-2.27A8.45,8.45,0,0,1,717.5,920.81Zm11.15,4.28a7.81,7.81,0,0,0,0-8.57,4.32,4.32,0,0,0-3.54-1.57,4.26,4.26,0,0,0-3.5,1.57,7.88,7.88,0,0,0,0,8.58,4.25,4.25,0,0,0,3.5,1.56A4.32,4.32,0,0,0,728.65,925.09Z"/><path d="M742.24,928.63h-2.78l-5-15.65h2.85L741,924.93,744.55,913h2.66l3.54,11.92L754.38,913h2.77l-5,15.65h-2.75l-3.61-11.8Z"/><path d="M762.83,928.63h-2.78V913h2.72v2.84a4.85,4.85,0,0,1,4.48-2.84h1.21v2.63h-1.24a3.69,3.69,0,0,0-3.19,1.72,8,8,0,0,0-1.2,4.64Z"/><path d="M770,920.81a8.48,8.48,0,0,1,2.06-5.95,7.18,7.18,0,0,1,5.55-2.26,7.28,7.28,0,0,1,5.57,2.26,8.37,8.37,0,0,1,2.09,5.95,8.46,8.46,0,0,1-2.09,5.94A7.29,7.29,0,0,1,777.6,929a7.18,7.18,0,0,1-5.55-2.27A8.45,8.45,0,0,1,770,920.81Zm11.14,4.28a7.76,7.76,0,0,0,0-8.57A4.29,4.29,0,0,0,777.6,915a4.25,4.25,0,0,0-3.5,1.57,7.91,7.91,0,0,0,0,8.58,4.74,4.74,0,0,0,7,0Z"/><path d="M787.86,920.81a8.44,8.44,0,0,1,2.07-5.95,7.15,7.15,0,0,1,5.55-2.26,7.27,7.27,0,0,1,5.56,2.26,8.33,8.33,0,0,1,2.1,5.95,8.42,8.42,0,0,1-2.1,5.94,7.28,7.28,0,0,1-5.56,2.27,7.16,7.16,0,0,1-5.55-2.27A8.41,8.41,0,0,1,787.86,920.81ZM799,925.09a7.81,7.81,0,0,0,0-8.57,4.32,4.32,0,0,0-3.53-1.57,4.27,4.27,0,0,0-3.51,1.57,7.93,7.93,0,0,0,0,8.58,4.26,4.26,0,0,0,3.51,1.56A4.32,4.32,0,0,0,799,925.09Z"/><path d="M819.63,920v8.63h-2.78V919a4.39,4.39,0,0,0-.89-2.94,3.16,3.16,0,0,0-2.52-1,3.49,3.49,0,0,0-2.91,1.28,5.9,5.9,0,0,0-1,3.71v8.63h-2.79V913h2.73v1.91a5.24,5.24,0,0,1,4.6-2.29,5.94,5.94,0,0,1,3,.72,4.77,4.77,0,0,1,1.92,2.1,5.3,5.3,0,0,1,5-2.82,5.54,5.54,0,0,1,4.21,1.58,5.91,5.91,0,0,1,1.52,4.3v10.15H827V919a4.34,4.34,0,0,0-.9-2.94,3.16,3.16,0,0,0-2.52-1,3.5,3.5,0,0,0-2.92,1.28A6,6,0,0,0,819.63,920Z"/><path d="M698.25,876.23a8,8,0,0,0-8-8h-5.69v4.56h5.69a3.42,3.42,0,0,1,3.42,3.42v1.13H677.76a2.28,2.28,0,0,1-2.28-2.27v-2.28h-4.56v2.28a2.28,2.28,0,0,1-2.28,2.27H661.8v-2.27a6.85,6.85,0,0,0-6.84-6.84h-4.55v4.56H655a2.28,2.28,0,0,1,2.28,2.28v2.27h-6.83v4.56h18.23a6.82,6.82,0,0,0,4.56-1.75,6.82,6.82,0,0,0,4.56,1.75h25v-4.56h-4.56Z"/><path d="M641.3,881.92a4.57,4.57,0,0,1-4.56,4.56V891a9.12,9.12,0,0,0,9.11-9.11v-9.11H641.3Z"/><rect x="661.81" y="886.48" width="9.11" height="4.56"/><polygon points="629.92 877.37 620.82 877.37 620.82 856.87 616.26 856.87 616.26 877.37 616.25 877.37 616.25 881.92 634.47 881.92 634.47 870.53 629.92 870.53 629.92 877.37"/><rect x="620.81" y="886.48" width="9.11" height="4.56"/><rect x="598.05" y="877.36" width="4.55" height="4.55"/><path d="M607.15,881.92a6.83,6.83,0,1,1-13.66,0v-4.56h-4.55v4.56a11.39,11.39,0,1,0,22.77,0v-9.11h-4.56Z"/><path d="M754.06,881.92a4.56,4.56,0,0,1-4.56,4.55V891a9.12,9.12,0,0,0,9.11-9.11v-9.11h-4.55Z"/><polygon points="820.11 856.87 815.55 856.87 815.55 861.42 811 861.42 811 865.98 820.11 865.98 820.11 856.87"/><path d="M824.66,870.53v4.56a2.28,2.28,0,0,1-4.55,0v-2.28h-4.56v2.28a2.28,2.28,0,0,1-2.28,2.27h-4.55v-4.55h-4.56v4.55h-25a2.25,2.25,0,0,1-1.61-.66,2.28,2.28,0,0,1-.67-1.61h0a6.83,6.83,0,0,0-2.52-5.3,6.83,6.83,0,0,0-9.61,9.62,6.8,6.8,0,0,0,5.3,2.52,6.67,6.67,0,0,0,2.28-.4v.4a4.56,4.56,0,0,1-4.56,4.55h-2.28V891h2.28a9.12,9.12,0,0,0,9.11-9.11v-.39a7,7,0,0,0,2.28.39h34.16a6.84,6.84,0,0,0,4.56-1.75,6.83,6.83,0,0,0,11.39-5.08v-4.56ZM770,877.36a2.26,2.26,0,0,1-1.77-.84,2.24,2.24,0,0,1-.45-1.95,2.27,2.27,0,0,1,1.7-1.71,3.37,3.37,0,0,1,.52-.05,2.23,2.23,0,0,1,1.43.51,2.26,2.26,0,0,1,.85,1.77h0A2.29,2.29,0,0,1,770,877.36Z"/><path d="M740.39,868.25a6.84,6.84,0,0,0,0,13.67,6.92,6.92,0,0,0,2.28-.4v.4a4.56,4.56,0,0,1-4.56,4.55h-2.27V891h2.27a9.12,9.12,0,0,0,9.11-9.11v-6.83A6.84,6.84,0,0,0,740.39,868.25Zm0,9.11a2.28,2.28,0,1,1,2.28-2.27A2.28,2.28,0,0,1,740.39,877.36Z"/><path d="M723.31,868.25a6.84,6.84,0,0,0-6.83,6.84,6.77,6.77,0,0,0,.75,3.11,9.13,9.13,0,0,0-5.31,8.27v6.84h4.55v-6.84a4.55,4.55,0,0,1,4.55-4.55h2.28a6.84,6.84,0,0,0,0-13.67Zm0,9.11a2.28,2.28,0,1,1,2.28-2.27A2.28,2.28,0,0,1,723.31,877.36Z"/><polygon class="cls-3" points="827.95 686.35 827.94 646.72 788.32 646.73 788.32 644.17 830.49 644.17 830.5 686.35 827.95 686.35"/><rect class="cls-3" x="780.43" y="664.39" width="57.17" height="2.55" transform="translate(-233.77 766.74) rotate(-44.98)"/><path d="M588.2,67V334.94H467.7V603.27H829.22V308C829.22,175.47,720.76,67,588.2,67Z"/><polygon class="cls-1" points="542.9 411.41 542.89 378.38 509.87 378.38 509.87 376.26 545.01 376.25 545.02 411.41 542.9 411.41"/><rect class="cls-1" x="503.29" y="393.1" width="47.64" height="2.13" transform="translate(-124.3 488.39) rotate(-45.02)"/><path class="cls-1" d="M600.18,513.24l.32,5.67h-3l-.3-5.7a2.83,2.83,0,0,0-1.09-2.26,5.51,5.51,0,0,0-3.15-.71h-5.44v8.67h-3V497h8.65a8,8,0,0,1,5.35,1.69,5.44,5.44,0,0,1,2,4.36,6.35,6.35,0,0,1-.93,3.39,6.44,6.44,0,0,1-2.59,2.36A4.46,4.46,0,0,1,600.18,513.24Zm-2.69-9.95a3.39,3.39,0,0,0-1.21-2.74,5,5,0,0,0-3.33-1h-5.41v8.21h5.38a4.49,4.49,0,0,0,3.3-1.24A4.28,4.28,0,0,0,597.49,503.29Z"/><path class="cls-1" d="M614.94,503.26h2.78v15.65H615V517a5.26,5.26,0,0,1-4.69,2.29,5.56,5.56,0,0,1-4.19-1.59,5.9,5.9,0,0,1-1.55-4.29V503.26h2.8v9.67a4.21,4.21,0,0,0,.93,2.92,3.32,3.32,0,0,0,2.6,1,3.65,3.65,0,0,0,3-1.28,5.84,5.84,0,0,0,1-3.71Z"/><path class="cls-1" d="M628.21,518a6.35,6.35,0,0,1-5-2.05,7.79,7.79,0,0,1-1.82-5.47,7.91,7.91,0,0,1,1.85-5.48,6.2,6.2,0,0,1,4.92-2.11,5.72,5.72,0,0,1,4.85,2.3v-1.91h2.72v14.93a6.84,6.84,0,0,1-1.84,5,7,7,0,0,1-5.15,1.83,7.91,7.91,0,0,1-4.93-1.4,5.3,5.3,0,0,1-2.1-3.86l2.78-.27a3.7,3.7,0,0,0,1.35,2.44,4.74,4.74,0,0,0,2.9.78,4,4,0,0,0,3.14-1.19A5.14,5.14,0,0,0,633,518v-2.45A5.65,5.65,0,0,1,628.21,518Zm-2.72-11.38a5.75,5.75,0,0,0-1.16,3.83,5.63,5.63,0,0,0,1.16,3.8,4,4,0,0,0,3.24,1.36,3.87,3.87,0,0,0,3.13-1.42,6.35,6.35,0,0,0,0-7.47,3.8,3.8,0,0,0-3.1-1.47A4,4,0,0,0,625.49,506.6Z"/><path class="cls-1" d="M654.6,518.91h-2.88L645.27,497h3.08l5,17.56,5-17.56h2.95l5,17.38L671.23,497h3l-6.46,21.92H664.9l-5.13-17.28Z"/><path class="cls-1" d="M675.1,511.08a8.41,8.41,0,0,1,2.07-5.94,7.16,7.16,0,0,1,5.55-2.27,7.28,7.28,0,0,1,5.56,2.27,8.31,8.31,0,0,1,2.1,5.94,8.43,8.43,0,0,1-2.1,5.95,7.27,7.27,0,0,1-5.56,2.26,7.15,7.15,0,0,1-5.55-2.26A8.44,8.44,0,0,1,675.1,511.08Zm11.15,4.29a7.83,7.83,0,0,0,0-8.58,4.34,4.34,0,0,0-3.53-1.56,4.29,4.29,0,0,0-3.51,1.56,8,8,0,0,0,0,8.59,4.26,4.26,0,0,0,3.51,1.56A4.32,4.32,0,0,0,686.25,515.37Z"/><path class="cls-1" d="M696.77,518.91H694V503.26h2.72v2.84a4.83,4.83,0,0,1,4.48-2.84h1.2v2.63h-1.23a3.72,3.72,0,0,0-3.2,1.71,8.09,8.09,0,0,0-1.19,4.65Z"/><path class="cls-1" d="M719,503.26l-6.15,5.85,6.64,9.8H716.2L710.88,511l-2.78,2.6v5.35h-2.79V497h2.79v13.22l7.26-6.95Z"/><path class="cls-1" d="M727.06,519.29a7.69,7.69,0,0,1-4.84-1.39,5,5,0,0,1-2-3.77l2.78-.42a3.84,3.84,0,0,0,1.18,2.56,4.27,4.27,0,0,0,2.83.82,3.86,3.86,0,0,0,2.46-.67,2.37,2.37,0,0,0,.85-2c0-1.24-.91-2-2.75-2.25l-2.25-.35a6.26,6.26,0,0,1-3.43-1.48,3.86,3.86,0,0,1-1.18-2.94,4,4,0,0,1,1.6-3.27,7.92,7.92,0,0,1,8.57,0,5.42,5.42,0,0,1,2,3.58l-2.57.37a4,4,0,0,0-1.26-2.3,4.69,4.69,0,0,0-4.78-.09,1.86,1.86,0,0,0-.84,1.58,1.83,1.83,0,0,0,.58,1.44,3.68,3.68,0,0,0,1.85.72l2.51.41q4.76.76,4.76,4.48a4.47,4.47,0,0,1-1.64,3.63A6.8,6.8,0,0,1,727.06,519.29Z"/><path class="cls-1" d="M750.19,508.76v10.15h-2.78v-9.65a4.16,4.16,0,0,0-1-2.94,3.54,3.54,0,0,0-2.74-1,3.83,3.83,0,0,0-3.12,1.27,5.57,5.57,0,0,0-1.07,3.71v8.64h-2.79V497h2.79v8.18a5.46,5.46,0,0,1,4.81-2.3,5.74,5.74,0,0,1,4.3,1.59A5.85,5.85,0,0,1,750.19,508.76Z"/><path class="cls-1" d="M753.63,511.08a8.45,8.45,0,0,1,2.06-5.94,7.18,7.18,0,0,1,5.55-2.27,7.29,7.29,0,0,1,5.57,2.27,8.34,8.34,0,0,1,2.09,5.94,8.47,8.47,0,0,1-2.09,5.95,7.28,7.28,0,0,1-5.57,2.26,7.18,7.18,0,0,1-5.55-2.26A8.48,8.48,0,0,1,753.63,511.08Zm11.14,4.29a7.78,7.78,0,0,0,0-8.58,4.31,4.31,0,0,0-3.53-1.56,4.27,4.27,0,0,0-3.5,1.56,7.92,7.92,0,0,0,0,8.59,4.74,4.74,0,0,0,7,0Z"/><path class="cls-1" d="M780.37,502.87a6.44,6.44,0,0,1,5.09,2.24,8.52,8.52,0,0,1,1.91,5.85,9.06,9.06,0,0,1-1.91,6,6.31,6.31,0,0,1-5.09,2.29,6,6,0,0,1-5.08-2.53v8h-2.78V503.26h2.72v2.35A5.92,5.92,0,0,1,780.37,502.87Zm4.13,8.21a6.74,6.74,0,0,0-1.23-4.24,4,4,0,0,0-3.31-1.58,4.16,4.16,0,0,0-3.44,1.6,7.49,7.49,0,0,0,0,8.42,4.2,4.2,0,0,0,3.43,1.6,4,4,0,0,0,3.31-1.58A6.66,6.66,0,0,0,784.5,511.08Z"/><path class="cls-1" d="M702.77,458.54a6.83,6.83,0,1,0,6.83,6.83A6.83,6.83,0,0,0,702.77,458.54Zm0,9.11a2.28,2.28,0,1,1,2.28-2.28A2.28,2.28,0,0,1,702.77,467.65Z"/><path class="cls-1" d="M748.32,472.2a4.56,4.56,0,0,1-4.56,4.56v4.55a9.11,9.11,0,0,0,9.11-9.11v-9.11h-4.55Z"/><path class="cls-1" d="M780.21,458.54h-7l7.5-7.5-3.22-3.22-10.92,10.91v4.36h13.67a2.28,2.28,0,0,1,2.27,2.28v2.28H762v-20.5h-4.55V472.2H787v-6.83A6.84,6.84,0,0,0,780.21,458.54Z"/><path class="cls-1" d="M743.76,472.2v-6.83a6.83,6.83,0,0,0-6.83-6.83h-7l7.5-7.5-3.22-3.22-10.91,10.91v4.36h13.66a2.29,2.29,0,0,1,2.28,2.28v2.28h-20.5v-20.5h-4.55V472.2h29.6Z"/><rect class="cls-1" x="721.85" y="444.87" width="9.66" height="4.56" transform="translate(-103.34 644.81) rotate(-45)"/><path class="cls-1" d="M680,458.54a6.83,6.83,0,0,0-6.83,6.83,6.62,6.62,0,0,0,.4,2.28h-5v-4.56h-4.55v9.11a4.56,4.56,0,0,1-4.56,4.56v4.55a9.11,9.11,0,0,0,9.11-9.11H680a6.83,6.83,0,1,0,0-13.66Zm0,9.11a2.28,2.28,0,1,1,2.28-2.28A2.29,2.29,0,0,1,680,467.65Z"/><rect class="cls-1" x="677.71" y="449.43" width="4.56" height="4.5"/><polygon class="cls-1" points="650.38 449.43 645.83 449.43 645.83 453.98 641.27 453.98 641.27 458.54 650.38 458.54 650.38 449.43"/><path class="cls-1" d="M659.49,460.82h-4.55v4.55a2.28,2.28,0,1,1-4.56,0v-2.28h-4.55v2.34a2.23,2.23,0,0,1-2.22,2.22H639v-4.56h-4.56v10.25a5.7,5.7,0,1,1-11.39,0v-5.69H618.5v5.69a10.25,10.25,0,0,0,20.5,0V472.2h4.61a6.72,6.72,0,0,0,4.51-1.73,6.83,6.83,0,0,0,11.37-5.1Z"/></g></svg>