<svg xmlns="http://www.w3.org/2000/svg" xmlns:xlink="http://www.w3.org/1999/xlink" viewBox="0 0 1920 1080"><defs><style>.cls-1{fill:#4672e2;}.cls-2{fill:#082b96;}.cls-22,.cls-23,.cls-3,.cls-4,.cls-5,.cls-6,.cls-7{fill:none;stroke-miterlimit:10;}.cls-3{stroke:url(#linear-gradient);}.cls-4{stroke:url(#linear-gradient-2);}.cls-5{stroke:url(#linear-gradient-3);}.cls-6{stroke:url(#linear-gradient-4);}.cls-22,.cls-23,.cls-7{stroke:#fff;}.cls-7{stroke-width:2px;}.cls-8,.cls-9{fill:#fff;}.cls-9{font-size:15.75px;font-family:Approach-Regular, Approach;letter-spacing:-0.02em;}.cls-10{letter-spacing:0.03em;}.cls-11{letter-spacing:-0.03em;}.cls-12{letter-spacing:-0.03em;}.cls-13{letter-spacing:-0.02em;}.cls-14{letter-spacing:-0.04em;}.cls-15{letter-spacing:-0.05em;}.cls-16{letter-spacing:-0.04em;}.cls-17{letter-spacing:-0.03em;}.cls-18{letter-spacing:-0.03em;}.cls-19{font-size:12.86px;letter-spacing:-0.02em;}.cls-20{letter-spacing:-0.04em;}.cls-21{letter-spacing:-0.06em;}.cls-22{stroke-width:3.68px;}.cls-23{stroke-width:3.68px;}</style><linearGradient id="linear-gradient" y1="740.98" x2="1920" y2="740.98" gradientUnits="userSpaceOnUse"><stop offset="0" stop-color="#fff" stop-opacity="0"/><stop offset="0.51" stop-color="#fff"/><stop offset="1" stop-color="#fff" stop-opacity="0"/></linearGradient><linearGradient id="linear-gradient-2" y1="682.63" y2="682.63" xlink:href="#linear-gradient"/><linearGradient id="linear-gradient-3" y1="985.75" y2="985.75" xlink:href="#linear-gradient"/><linearGradient id="linear-gradient-4" y1="1045.27" y2="1045.27" xlink:href="#linear-gradient"/></defs><g id="Background"><rect class="cls-1" width="1920" height="1080"/></g><g id="Layer_4" data-name="Layer 4"><rect class="cls-2" x="128.09" y="128.09" width="1672.72" height="951.91"/><line class="cls-3" y1="740.98" x2="1920" y2="740.98"/><line class="cls-4" y1="682.63" x2="1920" y2="682.63"/><line class="cls-5" y1="985.75" x2="1920" y2="985.75"/><line class="cls-6" y1="1045.27" x2="1920" y2="1045.27"/><polygon class="cls-1" points="1167.58 689.92 1167.58 682.63 1138.4 682.63 1138.4 689.92 1156.1 689.92 1138.4 704.51 1138.4 711.8 1167.58 711.8 1167.58 704.51 1149.87 704.51 1167.57 689.92 1167.58 689.92"/><polygon class="cls-1" points="1167.58 719.1 1167.58 711.8 1138.4 711.8 1138.4 719.1 1156.1 719.1 1138.4 733.69 1138.4 740.98 1167.58 740.98 1167.58 733.69 1149.87 733.69 1167.57 719.1 1167.58 719.1"/><polygon class="cls-1" points="1167.58 993.05 1167.58 985.75 1138.4 985.75 1138.4 993.05 1156.1 993.05 1138.4 1007.64 1138.4 1014.93 1167.58 1014.93 1167.58 1007.64 1149.87 1007.64 1167.57 993.05 1167.58 993.05"/><polygon class="cls-1" points="1167.58 1022.23 1167.58 1014.93 1138.4 1014.93 1138.4 1022.23 1156.1 1022.23 1138.4 1036.82 1138.4 1044.11 1167.58 1044.11 1167.58 1036.82 1149.87 1036.82 1167.57 1022.23 1167.58 1022.23"/><rect class="cls-7" x="530.47" y="682.63" width="867.96" height="362.64"/><rect class="cls-8" x="565.2" y="1045.27" width="798.49" height="34.73"/></g><g id="Layer_1" data-name="Layer 1"><circle class="cls-1" cx="330.13" cy="397" r="41.18"/><polygon class="cls-1" points="384.44 711.8 275.82 711.8 235.82 462.23 424.44 462.23 384.44 711.8"/></g><g id="Graphics"><text class="cls-9" transform="translate(988.23 947.16)">A<tspan class="cls-10" x="10.16" y="0">r</tspan><tspan x="16.41" y="0">ti</tspan><tspan class="cls-11" x="24.88" y="0">s</tspan><tspan class="cls-12" x="32.05" y="0">ti</tspan><tspan class="cls-13" x="40.53" y="0">c</tspan><tspan x="48.68" y="0">all</tspan><tspan class="cls-14" x="63.29" y="0">y</tspan><tspan x="70.75" y="0"> </tspan><tspan class="cls-15" x="73.95" y="0">F</tspan><tspan class="cls-16" x="82.85" y="0">r</tspan><tspan x="87.96" y="0">om </tspan><tspan class="cls-17" x="113.18" y="0">I</tspan><tspan class="cls-18" x="117.02" y="0">r</tspan><tspan x="122.19" y="0">an</tspan><tspan class="cls-19"><tspan x="-0.83" y="14.7">E</tspan><tspan class="cls-20" x="6.82" y="14.7">S</tspan><tspan class="cls-21" x="14.21" y="14.7">T</tspan><tspan x="20.83" y="14.7" xml:space="preserve"> 2013</tspan></tspan></text><line class="cls-22" x1="870.89" y1="787.28" x2="870.89" y2="743.18"/><line class="cls-22" x1="870.89" y1="761.55" x2="883.76" y2="761.55"/><line class="cls-22" x1="870.89" y1="761.55" x2="880.76" y2="751.69"/><line class="cls-22" x1="869.86" y1="774.42" x2="863.54" y2="774.42"/><path class="cls-22" d="M872.73,768.9a5.52,5.52,0,0,1,0,11"/><path class="cls-22" d="M876.4,748.69a5.51,5.51,0,1,0-11,0"/><path class="cls-22" d="M911.32,910.41a23.83,23.83,0,0,1,23.83-23.83h0A23.83,23.83,0,0,1,959,910.41"/><line class="cls-22" x1="933.37" y1="801.98" x2="892.94" y2="842.41"/><path class="cls-22" d="M902.13,805.66l-20.21,20.21v9.19h-11V787.28h34.92a33.08,33.08,0,0,1,33.08,33.08v11h64.32a33.08,33.08,0,0,1,33.07,33.07v47.78H892.94V814.85"/><polyline class="cls-22" points="1036.28 901.22 1001.37 901.22 1001.37 831.39"/><path class="cls-22" d="M938.89,831.39h47.78a0,0,0,0,1,0,0v23.89a23.89,23.89,0,0,1-23.89,23.89h0a23.89,23.89,0,0,1-23.89-23.89V831.39A0,0,0,0,1,938.89,831.39Z"/><rect class="cls-22" x="870.89" y="787.28" width="12.86" height="12.86"/><polyline class="cls-23" points="812.09 866.3 825.28 866.3 813.55 884.68 826.79 884.68"/><polyline class="cls-23" points="847 884.68 834.18 884.68 834.14 866.3 847 866.3"/><line class="cls-23" x1="847" y1="875.49" x2="834.14" y2="875.49"/><polyline class="cls-23" points="867.22 884.68 854.36 884.68 854.36 866.3 867.22 866.3"/><line class="cls-23" x1="867.22" y1="875.49" x2="854.35" y2="875.49"/><polyline class="cls-23" points="847 912.24 834.14 912.24 834.14 893.87 847 893.87"/><line class="cls-23" x1="847" y1="903.06" x2="834.14" y2="903.06"/><polyline class="cls-23" points="867.22 892.03 867.22 912.24 866.55 912.24 855.02 893.87 854.36 893.87 854.36 914.08"/><path class="cls-22" d="M893,936.13v18.38a18.37,18.37,0,0,0,18.37,18.38h0a18.38,18.38,0,0,0,18.38-18.38V936.13"/><polyline class="cls-22" points="951.59 972.89 966.45 958.03 966.45 947.16"/><line class="cls-22" x1="911.32" y1="936.13" x2="911.32" y2="943.48"/><line class="cls-22" x1="966.45" y1="943.48" x2="966.45" y2="936.13"/><line class="cls-22" x1="929.7" y1="978.4" x2="929.7" y2="985.75"/><line class="cls-22" x1="937.05" y1="985.75" x2="937.05" y2="978.4"/><polyline class="cls-22" points="938.89 936.13 938.89 944.25 929.7 953.43"/><polyline class="cls-22" points="946.24 936.13 946.24 947.92 929.7 964.46"/><polyline class="cls-22" points="929.7 936.13 929.7 972.89 932.3 972.89 953.59 951.6 953.59 936.13"/></g></svg>