<svg xmlns="http://www.w3.org/2000/svg" viewBox="0 0 1920 1080"><defs><style>.cls-1{fill:#fff;}.cls-2{fill:#4672e2;}.cls-3,.cls-4{fill:none;stroke:#000;stroke-miterlimit:10;}.cls-3{stroke-width:2px;}.cls-4{stroke-width:15px;}</style></defs><g id="Background"><rect class="cls-1" width="1920" height="1080"/></g><g id="Layer_4" data-name="Layer 4"><rect class="cls-2" x="128.09" y="128.09" width="1672.72" height="951.91"/><line class="cls-3" x1="964.05" y1="128.09" x2="964.05" y2="1080"/><line class="cls-4" x1="1382.03" y1="128.09" x2="1382.03" y2="1080"/><line class="cls-4" x1="546.07" y1="128.09" x2="546.07" y2="1080"/><path class="cls-1" d="M789.31,599.14H748.45v-6a22.85,22.85,0,0,0-22.83-22.83H704v-2.4a4.81,4.81,0,0,0,0-9.62v-2.4h7.21v-2.4h-5.51l4.4-4.4-1.7-1.7-4.4,4.4V544.2a2.38,2.38,0,0,1,1.2,2.07h2.41a4.81,4.81,0,0,0-9.62,0h2.41a2.38,2.38,0,0,1,1.2-2.07v17.69H698v2.4h3.61V604h9.61v-6.72l4.81-4.8v62h96.13V622A22.85,22.85,0,0,0,789.31,599.14Zm-82.91-36a2.4,2.4,0,0,1-2.41,2.4v-4.8A2.41,2.41,0,0,1,706.4,563.09ZM809.74,622V644.8H789.31V601.54h0A20.46,20.46,0,0,1,809.74,622Zm-32.45-20.43V616a14.42,14.42,0,1,1-28.84,0V601.54ZM710,572.7v6h-6v-6Zm-1.2,23.54v5.3H704V581.12h8.41V572.7h13.22A20.4,20.4,0,0,1,742,581l-23.63,23.62V590l5.66-5.66-1.7-1.7ZM730.43,652a14.38,14.38,0,0,1,28.76,0Zm31.16,0A16.78,16.78,0,0,0,728,652h-9.62v-44l25-25a20.27,20.27,0,0,1,2.67,10V616a16.83,16.83,0,1,0,33.65,0V601.54h7.21v45.67h22.83V652Z"/><path class="cls-1" d="M1194.06,599.14H1153.2v-6a22.85,22.85,0,0,0-22.83-22.83h-21.63v-2.4a4.81,4.81,0,0,0,0-9.62v-2.4H1116v-2.4h-5.51l4.4-4.4-1.7-1.7-4.4,4.4V544.2a2.38,2.38,0,0,1,1.2,2.07h2.41a4.81,4.81,0,0,0-9.62,0h2.41a2.38,2.38,0,0,1,1.2-2.07v17.69h-3.61v2.4h3.61V604H1116v-6.72l4.81-4.8v62h96.13V622A22.85,22.85,0,0,0,1194.06,599.14Zm-82.92-36a2.39,2.39,0,0,1-2.4,2.4v-4.8A2.4,2.4,0,0,1,1111.14,563.09ZM1214.48,622V644.8h-20.42V601.54h0A20.45,20.45,0,0,1,1214.48,622ZM1182,601.54V616a14.42,14.42,0,0,1-28.84,0V601.54Zm-67.29-28.84v6h-6v-6Zm-1.2,23.54v5.3h-4.81V581.12h8.41V572.7h13.22a20.4,20.4,0,0,1,16.42,8.33l-23.63,23.62V590l5.66-5.66-1.7-1.7ZM1135.18,652a14.38,14.38,0,0,1,28.76,0Zm31.16,0a16.79,16.79,0,0,0-33.57,0h-9.61v-44l25-25a20.27,20.27,0,0,1,2.67,10V616a16.82,16.82,0,1,0,33.64,0V601.54h7.21v45.67h22.83V652Z"/><path d="M1785.81,143.09V1065H143.09V143.09H1785.81m15-15H128.09V1080H1800.81V128.09Z"/></g></svg>