<svg xmlns="http://www.w3.org/2000/svg" viewBox="0 0 1080 1080"><defs><style>.cls-1{fill:#fff;}.cls-2{fill:#b8babc;}</style></defs><g id="Background"><rect class="cls-1" width="1080" height="1080"/></g><g id="Graphics"><polygon points="732.81 421.71 590.61 421.71 590.61 494.01 226.68 494.01 226.68 795.28 359.24 927.83 853.32 927.83 853.32 542.21 732.81 421.71"/><path class="cls-2" d="M538.21,152.17h0c-56.33,0-102.43,46.09-102.43,102.43v42.17H291.18V682.39H640.65V254.6C640.65,198.26,594.55,152.17,538.21,152.17Z"/><path class="cls-1" d="M680.18,725a4.56,4.56,0,0,1-4.56,4.55v4.56a9.12,9.12,0,0,0,9.11-9.11v-9.12h-4.55Z"/><rect class="cls-1" x="680.18" y="706.78" width="4.55" height="4.55"/><path class="cls-1" d="M668.79,720.45h-9.11a2.28,2.28,0,0,1-2.28-2.28v-2.28h-4.55v2.28a2.28,2.28,0,0,1-2.28,2.28h-6.83a2.28,2.28,0,0,1-2.28-2.28v-2.28H636.9v2.28a2.28,2.28,0,0,1-2.27,2.28h-9.11V725h9.11a6.77,6.77,0,0,0,4.55-1.75,6.79,6.79,0,0,0,4.56,1.75h6.83a6.79,6.79,0,0,0,4.56-1.75,6.75,6.75,0,0,0,4.55,1.75h13.67V713.62h-4.56Z"/><rect class="cls-1" x="657.4" y="729.56" width="9.11" height="4.56"/><rect class="cls-1" x="642.6" y="729.56" width="9.11" height="4.56"/><rect class="cls-1" x="626.66" y="729.56" width="9.11" height="4.56"/><rect class="cls-1" x="611.85" y="720.45" width="4.55" height="4.55"/><path class="cls-1" d="M621,725a6.83,6.83,0,1,1-13.65,0v-4.56h-4.56V725a11.39,11.39,0,0,0,22.77,0v-9.12H621Z"/><path class="cls-1" d="M736,725a4.56,4.56,0,0,1-4.56,4.55v4.56a9.12,9.12,0,0,0,9.11-9.11v-9.12H736Z"/><polygon class="cls-1" points="802.03 699.95 797.48 699.95 797.48 704.51 792.92 704.51 792.92 709.06 802.03 709.06 802.03 699.95"/><path class="cls-1" d="M806.58,713.62v4.55a2.28,2.28,0,1,1-4.55,0v-2.28h-4.56v2.28a2.28,2.28,0,0,1-2.27,2.28h-4.56v-4.56h-4.55v4.56H761a2.27,2.27,0,0,1-2.27-2.28h0a6.87,6.87,0,1,0-4.56,6.44v.4a4.55,4.55,0,0,1-4.55,4.55h-2.28v4.56h2.28a9.12,9.12,0,0,0,9.11-9.11v-.4a6.65,6.65,0,0,0,2.27.4H795.2a6.77,6.77,0,0,0,4.55-1.76,6.82,6.82,0,0,0,11.39-5.08v-4.55Zm-54.66,6.83a2.29,2.29,0,0,1-1.77-.84,2.32,2.32,0,0,1-.45-2,2.25,2.25,0,0,1,1.71-1.71,2.27,2.27,0,0,1,2,.45,2.29,2.29,0,0,1,.84,1.77h0A2.28,2.28,0,0,1,751.92,720.45Z"/><path class="cls-1" d="M722.31,711.34a6.84,6.84,0,1,0,2.28,13.27v.4a4.55,4.55,0,0,1-4.55,4.55h-2.28v4.56H720a9.12,9.12,0,0,0,9.11-9.11v-6.84A6.84,6.84,0,0,0,722.31,711.34Zm0,9.11a2.28,2.28,0,1,1,2.28-2.28A2.28,2.28,0,0,1,722.31,720.45Z"/><path class="cls-1" d="M705.23,711.34a6.82,6.82,0,0,0-6.07,9.95,9.11,9.11,0,0,0-5.32,8.27v6.83h4.56v-6.83A4.55,4.55,0,0,1,703,725h2.28a6.84,6.84,0,1,0,0-13.67Zm0,9.11a2.28,2.28,0,1,1,2.28-2.28A2.29,2.29,0,0,1,705.23,720.45Z"/><path class="cls-1" d="M583.79,752.11l-12.6,17.06h13v2.54H567.6v-2.32l12.58-17.06H568v-2.54h15.79Z"/><path class="cls-1" d="M593.67,769.83a3.68,3.68,0,0,0,4-3.16l2.57.5a5.64,5.64,0,0,1-2.21,3.6,7,7,0,0,1-4.33,1.32,7.26,7.26,0,0,1-5.62-2.12,8.66,8.66,0,0,1-2-6.09,8.42,8.42,0,0,1,2-5.94,7,7,0,0,1,5.49-2.27,6.48,6.48,0,0,1,5,2,7.9,7.9,0,0,1,1.84,5.51v1.34H588.9Q589.13,769.84,593.67,769.83Zm-.14-11.92a4.23,4.23,0,0,0-3.14,1.16,5.51,5.51,0,0,0-1.43,3.41h8.65Q597.39,757.91,593.53,757.91Z"/><path class="cls-1" d="M610.73,769.83a3.69,3.69,0,0,0,4-3.16l2.56.5a5.67,5.67,0,0,1-2.2,3.6,7.06,7.06,0,0,1-4.34,1.32,7.26,7.26,0,0,1-5.62-2.12,8.66,8.66,0,0,1-2-6.09,8.41,8.41,0,0,1,2-5.94,7,7,0,0,1,5.49-2.27,6.48,6.48,0,0,1,5,2,7.86,7.86,0,0,1,1.84,5.51v1.34H606Q606.18,769.84,610.73,769.83Zm-.14-11.92a4.24,4.24,0,0,0-3.14,1.16,5.51,5.51,0,0,0-1.43,3.41h8.65Q614.44,757.91,610.59,757.91Z"/><path class="cls-1" d="M627.79,769.83a3.69,3.69,0,0,0,4-3.16l2.57.5a5.73,5.73,0,0,1-2.21,3.6,7,7,0,0,1-4.34,1.32,7.27,7.27,0,0,1-5.62-2.12,8.66,8.66,0,0,1-2-6.09,8.46,8.46,0,0,1,2-5.94,7,7,0,0,1,5.49-2.27,6.52,6.52,0,0,1,5,2,7.9,7.9,0,0,1,1.83,5.51v1.34H623Q623.26,769.84,627.79,769.83Zm-.13-11.92a4.25,4.25,0,0,0-3.15,1.16,5.57,5.57,0,0,0-1.43,3.41h8.66Q631.5,757.91,627.66,757.91Z"/><path class="cls-1" d="M651.74,761.56v10.15H649v-9.65a4.16,4.16,0,0,0-1-2.94,3.55,3.55,0,0,0-2.75-1,3.86,3.86,0,0,0-3.12,1.27,5.62,5.62,0,0,0-1.07,3.71v8.64h-2.78V756.06H641v2a5.51,5.51,0,0,1,4.88-2.36,5.74,5.74,0,0,1,4.3,1.59A5.85,5.85,0,0,1,651.74,761.56Z"/><path class="cls-1" d="M671.06,772.09a9.55,9.55,0,0,1-6.28-1.91,6.61,6.61,0,0,1-2.39-5.23l3-.38a5.08,5.08,0,0,0,1.59,3.76,6.06,6.06,0,0,0,4.13,1.29,5.11,5.11,0,0,0,3.4-1.06,3.57,3.57,0,0,0,1.25-2.86,2.91,2.91,0,0,0-.87-2.25,6.45,6.45,0,0,0-3-1.26l-2.92-.63a8.49,8.49,0,0,1-4.43-2.16,5.8,5.8,0,0,1,.6-8.22,7.88,7.88,0,0,1,5.33-1.76,8.45,8.45,0,0,1,5.51,1.68,6.56,6.56,0,0,1,2.34,4.68l-3,.37c-.35-2.84-2-4.25-4.89-4.25a5,5,0,0,0-3.25.94,3.47,3.47,0,0,0-.32,4.85,5.35,5.35,0,0,0,2.72,1.24l3.41.73a8.51,8.51,0,0,1,4.35,2.05,5.29,5.29,0,0,1,1.39,3.84,6,6,0,0,1-2.1,4.69A8.09,8.09,0,0,1,671.06,772.09Z"/><path class="cls-1" d="M696,761.56v10.15H693.2v-9.65a4.21,4.21,0,0,0-1-2.94,3.57,3.57,0,0,0-2.75-1,3.84,3.84,0,0,0-3.12,1.27,5.62,5.62,0,0,0-1.07,3.71v8.64h-2.78V749.79h2.78V758a5.48,5.48,0,0,1,4.82-2.3,5.73,5.73,0,0,1,4.29,1.59A5.85,5.85,0,0,1,696,761.56Z"/><path class="cls-1" d="M699.42,763.88a8.43,8.43,0,0,1,2.07-5.94,7.16,7.16,0,0,1,5.55-2.27,7.27,7.27,0,0,1,5.56,2.27,8.31,8.31,0,0,1,2.1,5.94,8.43,8.43,0,0,1-2.1,6,7.26,7.26,0,0,1-5.56,2.26,7.15,7.15,0,0,1-5.55-2.26A8.44,8.44,0,0,1,699.42,763.88Zm11.15,4.29a7.81,7.81,0,0,0,0-8.57A4.31,4.31,0,0,0,707,758a4.23,4.23,0,0,0-3.5,1.57,6.58,6.58,0,0,0-1.27,4.28,6.65,6.65,0,0,0,1.26,4.3,4.26,4.26,0,0,0,3.51,1.56A4.31,4.31,0,0,0,710.57,768.17Z"/><path class="cls-1" d="M724.16,771.71h-2.78l-5-15.65h2.84l3.67,12,3.56-12h2.66L732.68,768l3.62-11.92h2.77l-5,15.65H731.3l-3.61-11.8Z"/><path class="cls-1" d="M744.76,771.71H742V756.06h2.73v2.84a4.82,4.82,0,0,1,4.48-2.84h1.2v2.63h-1.23a3.71,3.71,0,0,0-3.2,1.72,8,8,0,0,0-1.19,4.64Z"/><path class="cls-1" d="M751.91,763.88a8.43,8.43,0,0,1,2.07-5.94,7.16,7.16,0,0,1,5.55-2.27,7.28,7.28,0,0,1,5.56,2.27,8.31,8.31,0,0,1,2.1,5.94,8.43,8.43,0,0,1-2.1,6,7.27,7.27,0,0,1-5.56,2.26,7.15,7.15,0,0,1-5.55-2.26A8.44,8.44,0,0,1,751.91,763.88Zm11.15,4.29a7.81,7.81,0,0,0,0-8.57,4.31,4.31,0,0,0-3.53-1.57,4.23,4.23,0,0,0-3.5,1.57,6.58,6.58,0,0,0-1.27,4.28,6.65,6.65,0,0,0,1.26,4.3,4.26,4.26,0,0,0,3.51,1.56A4.31,4.31,0,0,0,763.06,768.17Z"/><path class="cls-1" d="M769.79,763.88a8.42,8.42,0,0,1,2.06-5.94,7.18,7.18,0,0,1,5.55-2.27,7.27,7.27,0,0,1,5.56,2.27,8.31,8.31,0,0,1,2.1,5.94,8.43,8.43,0,0,1-2.1,6,7.26,7.26,0,0,1-5.56,2.26,7.18,7.18,0,0,1-5.55-2.26A8.43,8.43,0,0,1,769.79,763.88Zm11.14,4.29a7.76,7.76,0,0,0,0-8.57A4.29,4.29,0,0,0,777.4,758a4.23,4.23,0,0,0-3.5,1.57,6.58,6.58,0,0,0-1.27,4.28,6.65,6.65,0,0,0,1.26,4.3,4.74,4.74,0,0,0,7,0Z"/><path class="cls-1" d="M801.56,763.07v8.64h-2.78v-9.65a4.33,4.33,0,0,0-.9-2.93,3.14,3.14,0,0,0-2.51-1,3.5,3.5,0,0,0-2.92,1.28,5.93,5.93,0,0,0-1,3.7v8.64h-2.78V756.06h2.72V758a5.25,5.25,0,0,1,4.6-2.3,5.94,5.94,0,0,1,3,.73,4.67,4.67,0,0,1,1.92,2.1,5.32,5.32,0,0,1,5.05-2.83,5.56,5.56,0,0,1,4.21,1.59,6,6,0,0,1,1.52,4.3v10.15H808.9v-9.65a4.28,4.28,0,0,0-.91-2.93,3.16,3.16,0,0,0-2.52-1,3.49,3.49,0,0,0-2.91,1.28A5.87,5.87,0,0,0,801.56,763.07Z"/><path class="cls-1" d="M524.59,885.66h-3V863.73h3v9.47h11v-9.47h3v21.93h-3v-9.87h-11Z"/><path class="cls-1" d="M550,883.78a3.69,3.69,0,0,0,4-3.17l2.57.51a5.74,5.74,0,0,1-2.21,3.6A7,7,0,0,1,550,886a7.26,7.26,0,0,1-5.62-2.13,8.62,8.62,0,0,1-2-6.08,8.44,8.44,0,0,1,2-6,7,7,0,0,1,5.48-2.26,6.47,6.47,0,0,1,5,2,7.87,7.87,0,0,1,1.83,5.5v1.35H545.25C545.4,882,547,883.78,550,883.78Zm-.14-11.93a4.27,4.27,0,0,0-3.14,1.16,5.54,5.54,0,0,0-1.43,3.41H554Q553.73,871.85,549.88,871.85Z"/><path class="cls-1" d="M563.29,867.46H560.5v-3.73h2.79Zm0,18.2H560.5V870h2.79Z"/><path class="cls-1" d="M573.93,886a6.46,6.46,0,0,1-5.11-2.2,8.78,8.78,0,0,1-1.88-5.89,9.11,9.11,0,0,1,1.91-6,6.31,6.31,0,0,1,5.08-2.29,5.93,5.93,0,0,1,5.07,2.54v-8.43h2.79v21.93h-2.72V883.3A5.89,5.89,0,0,1,573.93,886Zm-4.14-8.21a6.68,6.68,0,0,0,1.23,4.22,4,4,0,0,0,3.31,1.57,4.2,4.2,0,0,0,3.44-1.58,7.46,7.46,0,0,0,0-8.43,4.22,4.22,0,0,0-3.43-1.61,4,4,0,0,0-3.31,1.59A6.72,6.72,0,0,0,569.79,877.83Z"/><path class="cls-1" d="M599.48,883.33h.75v2.33h-1.52a3.48,3.48,0,0,1-2.06-.59,2.18,2.18,0,0,1-.93-1.63,5.5,5.5,0,0,1-5,2.6,5.87,5.87,0,0,1-3.94-1.28,4.12,4.12,0,0,1-1.5-3.29,4.42,4.42,0,0,1,1.22-3.21,6.16,6.16,0,0,1,3.5-1.62l4.58-.78a1.06,1.06,0,0,0,1-1.14,2.64,2.64,0,0,0-.91-2.07,3.72,3.72,0,0,0-2.51-.8,4.08,4.08,0,0,0-2.52.71,3.74,3.74,0,0,0-1.29,2.2l-2.64-.31a5.3,5.3,0,0,1,2.13-3.5,7.13,7.13,0,0,1,4.43-1.33,6.23,6.23,0,0,1,4.42,1.5,5.17,5.17,0,0,1,1.61,4v7a1.24,1.24,0,0,0,.27.91A1.21,1.21,0,0,0,599.48,883.33Zm-11.41-2.06a2.3,2.3,0,0,0,.8,1.86,3.3,3.3,0,0,0,2.21.68,4.19,4.19,0,0,0,3.27-1.43,5.33,5.33,0,0,0,1.27-3.68v-.9l-5,.87a3.22,3.22,0,0,0-1.89.87A2.41,2.41,0,0,0,588.07,881.27Z"/><path class="cls-1" d="M605.76,885.66H603V870h2.72v2.84a4.85,4.85,0,0,1,4.48-2.84h1.21v2.63h-1.24a3.71,3.71,0,0,0-3.2,1.72,8.05,8.05,0,0,0-1.19,4.64Z"/><path class="cls-1" d="M617.09,867.46h-2.78v-3.73h2.78Zm0,18.2h-2.78V870h2.78Z"/><path class="cls-1" d="M634.78,883.33h.75v2.33H634a3.49,3.49,0,0,1-2.07-.59,2.18,2.18,0,0,1-.93-1.63,5.48,5.48,0,0,1-4.95,2.6,5.88,5.88,0,0,1-4-1.28,4.12,4.12,0,0,1-1.5-3.29,4.39,4.39,0,0,1,1.23-3.21,6.13,6.13,0,0,1,3.5-1.62l4.57-.78a1.07,1.07,0,0,0,1-1.14,2.65,2.65,0,0,0-.92-2.07,3.71,3.71,0,0,0-2.51-.8,4.08,4.08,0,0,0-2.52.71,3.73,3.73,0,0,0-1.28,2.2l-2.65-.31a5.33,5.33,0,0,1,2.13-3.5,7.15,7.15,0,0,1,4.43-1.33,6.27,6.27,0,0,1,4.43,1.5,5.21,5.21,0,0,1,1.61,4v7a1.28,1.28,0,0,0,.26.91A1.21,1.21,0,0,0,634.78,883.33Zm-11.4-2.06a2.29,2.29,0,0,0,.79,1.86,3.33,3.33,0,0,0,2.22.68,4.19,4.19,0,0,0,3.26-1.43,5.34,5.34,0,0,0,1.28-3.68v-.9l-5,.87a3.28,3.28,0,0,0-1.89.87A2.4,2.4,0,0,0,623.38,881.27Z"/><path class="cls-1" d="M651.74,875.5v10.16H649V876a4.13,4.13,0,0,0-1-2.94,3.56,3.56,0,0,0-2.75-1,3.89,3.89,0,0,0-3.12,1.27,5.67,5.67,0,0,0-1.07,3.72v8.64h-2.78V870H641v2a5.5,5.5,0,0,1,4.88-2.35,5.78,5.78,0,0,1,4.3,1.58A5.87,5.87,0,0,1,651.74,875.5Z"/><path class="cls-1" d="M671.06,886a9.61,9.61,0,0,1-6.28-1.91,6.64,6.64,0,0,1-2.39-5.23l3-.38a5,5,0,0,0,1.59,3.75,6.06,6.06,0,0,0,4.13,1.29,5.05,5.05,0,0,0,3.4-1.06,3.56,3.56,0,0,0,1.25-2.85,2.93,2.93,0,0,0-.87-2.26,6.67,6.67,0,0,0-3-1.26l-2.92-.63a8.41,8.41,0,0,1-4.43-2.15,5.81,5.81,0,0,1,.6-8.23,7.87,7.87,0,0,1,5.32-1.76,8.48,8.48,0,0,1,5.52,1.69,6.56,6.56,0,0,1,2.34,4.68l-3,.36q-.52-4.25-4.9-4.25a5,5,0,0,0-3.24.94,3.48,3.48,0,0,0-.32,4.86,5.43,5.43,0,0,0,2.72,1.24l3.41.73a8.43,8.43,0,0,1,4.35,2,5.27,5.27,0,0,1,1.39,3.84,6,6,0,0,1-2.1,4.69A8.16,8.16,0,0,1,671.06,886Z"/><path class="cls-1" d="M696,875.5v10.16H693.2V876a4.17,4.17,0,0,0-1-2.94,3.57,3.57,0,0,0-2.75-1,3.88,3.88,0,0,0-3.12,1.27,5.67,5.67,0,0,0-1.07,3.72v8.64h-2.78V863.73h2.78v8.18a5.47,5.47,0,0,1,4.82-2.29,5.77,5.77,0,0,1,4.29,1.58A5.87,5.87,0,0,1,696,875.5Z"/><path class="cls-1" d="M699.42,877.83a8.44,8.44,0,0,1,2.07-6,7.15,7.15,0,0,1,5.55-2.26,7.26,7.26,0,0,1,5.56,2.26,8.33,8.33,0,0,1,2.1,6,8.45,8.45,0,0,1-2.1,5.95A7.29,7.29,0,0,1,707,886a7.18,7.18,0,0,1-5.55-2.26A8.44,8.44,0,0,1,699.42,877.83Zm11.15,4.29a7.83,7.83,0,0,0,0-8.58A4.33,4.33,0,0,0,707,872a4.26,4.26,0,0,0-3.5,1.57,7.91,7.91,0,0,0,0,8.58,4.26,4.26,0,0,0,3.51,1.56A4.33,4.33,0,0,0,710.57,882.12Z"/><path class="cls-1" d="M724.16,885.66h-2.78l-5-15.66h2.84l3.67,12,3.56-12h2.66l3.55,11.93L736.3,870h2.77l-5,15.66H731.3l-3.61-11.81Z"/><path class="cls-1" d="M744.76,885.66H742V870h2.73v2.84a4.84,4.84,0,0,1,4.48-2.84h1.2v2.63h-1.23a3.71,3.71,0,0,0-3.2,1.72,8,8,0,0,0-1.19,4.64Z"/><path class="cls-1" d="M751.91,877.83a8.44,8.44,0,0,1,2.07-6,7.15,7.15,0,0,1,5.55-2.26,7.27,7.27,0,0,1,5.56,2.26,8.33,8.33,0,0,1,2.1,6,8.45,8.45,0,0,1-2.1,5.95,7.31,7.31,0,0,1-5.56,2.26,7.18,7.18,0,0,1-5.55-2.26A8.44,8.44,0,0,1,751.91,877.83Zm11.15,4.29a7.83,7.83,0,0,0,0-8.58,4.33,4.33,0,0,0-3.53-1.57,4.26,4.26,0,0,0-3.5,1.57,7.91,7.91,0,0,0,0,8.58,4.26,4.26,0,0,0,3.51,1.56A4.33,4.33,0,0,0,763.06,882.12Z"/><path class="cls-1" d="M769.79,877.83a8.43,8.43,0,0,1,2.06-6,7.18,7.18,0,0,1,5.55-2.26,7.26,7.26,0,0,1,5.56,2.26,8.33,8.33,0,0,1,2.1,6,8.45,8.45,0,0,1-2.1,5.95A7.29,7.29,0,0,1,777.4,886a7.21,7.21,0,0,1-5.55-2.26A8.43,8.43,0,0,1,769.79,877.83Zm11.14,4.29a7.78,7.78,0,0,0,0-8.58A4.32,4.32,0,0,0,777.4,872a4.26,4.26,0,0,0-3.5,1.57,7.91,7.91,0,0,0,0,8.58,4.26,4.26,0,0,0,3.51,1.56A4.31,4.31,0,0,0,780.93,882.12Z"/><path class="cls-1" d="M801.56,877v8.64h-2.78V876a4.38,4.38,0,0,0-.9-2.94,3.14,3.14,0,0,0-2.51-1,3.5,3.5,0,0,0-2.92,1.28,6,6,0,0,0-1,3.71v8.64h-2.78V870h2.72v1.91a5.24,5.24,0,0,1,4.6-2.29,5.94,5.94,0,0,1,3,.72,4.74,4.74,0,0,1,1.92,2.11,5.31,5.31,0,0,1,5.05-2.83,5.59,5.59,0,0,1,4.21,1.58,6,6,0,0,1,1.52,4.3v10.16H808.9V876a4.33,4.33,0,0,0-.91-2.94,3.16,3.16,0,0,0-2.52-1,3.49,3.49,0,0,0-2.91,1.28A5.9,5.9,0,0,0,801.56,877Z"/><path class="cls-1" d="M680.18,833.25a8,8,0,0,0-8-8h-5.7v4.55h5.7a3.42,3.42,0,0,1,3.41,3.42v1.14H659.68a2.28,2.28,0,0,1-2.28-2.28v-2.28h-4.55v2.28a2.29,2.29,0,0,1-2.28,2.28h-6.85v-2.28a6.84,6.84,0,0,0-6.83-6.83h-4.56v4.55h4.56a2.28,2.28,0,0,1,2.27,2.28v2.28h-6.83v4.55h18.24a6.77,6.77,0,0,0,4.55-1.75,6.79,6.79,0,0,0,4.56,1.75h25.05v-4.55h-4.55Z"/><path class="cls-1" d="M623.22,838.94a4.56,4.56,0,0,1-4.55,4.56v4.55a9.12,9.12,0,0,0,9.11-9.11v-9.11h-4.56Z"/><rect class="cls-1" x="643.74" y="843.5" width="9.11" height="4.56"/><polygon class="cls-1" points="611.84 834.39 602.74 834.39 602.74 813.89 598.18 813.89 598.18 834.39 598.18 834.39 598.18 838.94 616.4 838.94 616.4 827.55 611.84 827.55 611.84 834.39"/><rect class="cls-1" x="602.73" y="843.5" width="9.11" height="4.56"/><rect class="cls-1" x="579.97" y="834.39" width="4.55" height="4.55"/><path class="cls-1" d="M589.08,839a6.83,6.83,0,0,1-13.66,0v-4.56h-4.56V839a11.39,11.39,0,0,0,22.77,0v-9.12h-4.55Z"/><path class="cls-1" d="M736,838.94a4.56,4.56,0,0,1-4.56,4.56v4.55a9.11,9.11,0,0,0,9.11-9.11v-9.11H736Z"/><polygon class="cls-1" points="802.03 813.89 797.48 813.89 797.48 818.44 792.92 818.44 792.92 823 802.03 823 802.03 813.89"/><path class="cls-1" d="M806.58,827.55v4.56a2.28,2.28,0,1,1-4.55,0v-2.28h-4.56v2.28a2.28,2.28,0,0,1-2.27,2.28h-4.56v-4.56h-4.55v4.56H761a2.27,2.27,0,0,1-2.27-2.28h0a6.84,6.84,0,1,0-4.56,6.44v.39a4.56,4.56,0,0,1-4.55,4.56h-2.28v4.55h2.28a9.12,9.12,0,0,0,9.11-9.11v-.39a6.9,6.9,0,0,0,2.27.39H795.2a6.77,6.77,0,0,0,4.55-1.75,6.83,6.83,0,0,0,11.39-5.08v-4.56Zm-54.66,6.84a2.27,2.27,0,0,1-1.77-.85,2.3,2.3,0,0,1-.45-1.95,2.25,2.25,0,0,1,1.71-1.7,2.35,2.35,0,0,1,.51-.06,2.28,2.28,0,0,1,2.28,2.28h0A2.28,2.28,0,0,1,751.92,834.39Z"/><path class="cls-1" d="M722.31,825.28a6.83,6.83,0,1,0,0,13.66,6.62,6.62,0,0,0,2.28-.4v.4A4.56,4.56,0,0,1,720,843.5h-2.28v4.55H720a9.12,9.12,0,0,0,9.11-9.11v-6.83A6.84,6.84,0,0,0,722.31,825.28Zm0,9.11a2.28,2.28,0,1,1,2.28-2.28A2.28,2.28,0,0,1,722.31,834.39Z"/><path class="cls-1" d="M705.23,825.28a6.82,6.82,0,0,0-6.07,10,9.11,9.11,0,0,0-5.32,8.27v6.83h4.56V843.5a4.56,4.56,0,0,1,4.55-4.56h2.28a6.83,6.83,0,0,0,0-13.66Zm0,9.11a2.28,2.28,0,1,1,2.28-2.28A2.29,2.29,0,0,1,705.23,834.39Z"/><path d="M552.48,634.55l.32,5.67h-3l-.31-5.71a2.8,2.8,0,0,0-1.08-2.25,5.56,5.56,0,0,0-3.15-.71h-5.45v8.67h-3V618.29h8.65a8.07,8.07,0,0,1,5.36,1.7,5.43,5.43,0,0,1,2,4.36,6.33,6.33,0,0,1-3.52,5.75A4.47,4.47,0,0,1,552.48,634.55Zm-2.69-10a3.42,3.42,0,0,0-1.22-2.74,5,5,0,0,0-3.32-1h-5.42V629h5.38a4.5,4.5,0,0,0,3.31-1.25A4.3,4.3,0,0,0,549.79,624.59Z"/><path d="M564.31,640.6a9.06,9.06,0,0,1-5.66-1.67,5.54,5.54,0,0,1-2.17-4.57,5.23,5.23,0,0,1,1-3.16,11.21,11.21,0,0,1,3.56-2.85,8,8,0,0,1-2.34-5.07,5,5,0,0,1,1.59-3.89,6.07,6.07,0,0,1,4.1-1.46,5.74,5.74,0,0,1,3.87,1.26,4.21,4.21,0,0,1,1.47,3.37,4.91,4.91,0,0,1-1,3,13.54,13.54,0,0,1-3.79,3l5.7,6.08a13.83,13.83,0,0,0,.84-5.3l2.66.35a13.18,13.18,0,0,1-1.62,7l3.29,3.5h-3.58l-1.53-1.67A9.43,9.43,0,0,1,564.31,640.6Zm-4.91-6.42a3.66,3.66,0,0,0,1.41,3,5.53,5.53,0,0,0,3.59,1.14,6.43,6.43,0,0,0,4.62-1.44l-6.51-7a8,8,0,0,0-2.41,2A3.75,3.75,0,0,0,559.4,634.18Zm4.94-14.13a2.8,2.8,0,0,0-2.12.84,2.89,2.89,0,0,0-.81,2.08,4.53,4.53,0,0,0,.41,1.94,9.83,9.83,0,0,0,1.68,2.25,13.14,13.14,0,0,0,2.83-2.35,3.26,3.26,0,0,0,.78-2.1,2.63,2.63,0,0,0-.73-2A2.87,2.87,0,0,0,564.34,620.05Z"/><path d="M587.09,640.22h-8.58V618.29h8.58a10.71,10.71,0,0,1,7.91,2.92,10.44,10.44,0,0,1,2.93,7.77,11.29,11.29,0,0,1-3,8.16A10.46,10.46,0,0,1,587.09,640.22ZM594.86,629a8.15,8.15,0,0,0-2.1-5.89,7.49,7.49,0,0,0-5.67-2.2h-5.56v16.73h5.56a7.25,7.25,0,0,0,5.67-2.36A9.12,9.12,0,0,0,594.86,629Z"/><path d="M507.84,521.3H498.3l-2.05,5.38H493.2l8.48-21.92h3l8.39,21.92h-3.28Zm-8.57-2.51h7.64l-3.76-10.21Z"/><path d="M518.78,526.68H516V511h2.73v2.84A4.84,4.84,0,0,1,523.2,511h1.2v2.63h-1.23a3.69,3.69,0,0,0-3.2,1.72,8,8,0,0,0-1.19,4.64Z"/><path d="M533.32,524.68a4,4,0,0,0,2.83-1,4.3,4.3,0,0,0,1.28-2.77l2.72.32a6.25,6.25,0,0,1-2.16,4.24,7.71,7.71,0,0,1-10.09-.62,8.59,8.59,0,0,1-2-5.94,8.69,8.69,0,0,1,2-6,6.89,6.89,0,0,1,5.39-2.26,7.2,7.2,0,0,1,4.74,1.5,6.45,6.45,0,0,1,2.18,4.26l-2.84.32q-.57-3.71-4.11-3.7a4,4,0,0,0-3.31,1.54,7.08,7.08,0,0,0-1.17,4.35,6.74,6.74,0,0,0,1.18,4.24A4,4,0,0,0,533.32,524.68Z"/><path d="M557.08,516.53v10.15h-2.79V517a4.17,4.17,0,0,0-.95-2.95,3.59,3.59,0,0,0-2.75-1,3.86,3.86,0,0,0-3.12,1.27,5.67,5.67,0,0,0-1.07,3.72v8.63h-2.78V504.76h2.78v8.18a5.47,5.47,0,0,1,4.82-2.29,5.75,5.75,0,0,1,4.3,1.58A5.85,5.85,0,0,1,557.08,516.53Z"/><path d="M564.31,508.49h-2.78v-3.73h2.78Zm0,18.19h-2.78V511h2.78Z"/><path d="M576.17,526.68h-2.95l-6-15.65h2.94l4.6,12.46L579.37,511h2.84Z"/><path d="M591.25,524.8a3.68,3.68,0,0,0,4-3.16l2.57.5a5.64,5.64,0,0,1-2.21,3.6,7,7,0,0,1-4.33,1.33,7.26,7.26,0,0,1-5.62-2.13,8.64,8.64,0,0,1-2-6.08,8.44,8.44,0,0,1,2-6,7,7,0,0,1,5.49-2.26,6.47,6.47,0,0,1,5,2,7.86,7.86,0,0,1,1.84,5.51v1.34H586.48Q586.7,524.8,591.25,524.8Zm-.14-11.92A4.28,4.28,0,0,0,588,514a5.51,5.51,0,0,0-1.43,3.41h8.65Q595,512.88,591.11,512.88Z"/><polygon class="cls-1" points="320.9 778.93 291.07 749.12 320.9 719.28 322.7 721.09 294.68 749.12 322.7 777.13 320.9 778.93"/><rect class="cls-1" x="292.88" y="747.83" width="57.17" height="2.55"/><polygon points="568.23 326.6 566.43 324.79 594.45 296.76 566.43 268.75 568.23 266.95 598.06 296.76 568.23 326.6"/><rect x="539.08" y="295.5" width="57.17" height="2.55"/><rect x="593.31" y="454.92" width="4.56" height="25.05"/><path d="M591.42,444.32a7.84,7.84,0,0,0-7.84,7.84v2.78h4.55v-2.78a3.29,3.29,0,0,1,3.29-3.29h13.91v-4.55Z"/><path d="M585.34,477.7a4.56,4.56,0,0,1-4.56,4.55v4.56a9.13,9.13,0,0,0,9.12-9.11v-9.12h-4.56Z"/><rect x="514.74" y="484.53" width="9.11" height="4.55"/><path d="M574,473.14a2.28,2.28,0,1,1-4.55,0v-2.28h-4.56v2.28a2.28,2.28,0,0,1-2.28,2.28H558v-4.56h-4.56v4.56H530.68a2.28,2.28,0,0,1-2.28-2.28v-2.28h-4.55v2.28a2.29,2.29,0,0,1-2.28,2.28h-6.83a2.29,2.29,0,0,1-1.62-.67,2.25,2.25,0,0,1-.66-1.61h0a6.84,6.84,0,0,0-13.52-1.44,6.84,6.84,0,0,0,9,7.88V480a4.56,4.56,0,0,1-4.55,4.56h-2.28v4.55h2.28a9.12,9.12,0,0,0,9.11-9.11v-.39a7,7,0,0,0,2.28.39h6.83a6.77,6.77,0,0,0,4.55-1.75,6.79,6.79,0,0,0,4.56,1.75h31.88a6.77,6.77,0,0,0,4.56-1.75,6.77,6.77,0,0,0,4.55,1.75,6.84,6.84,0,0,0,6.84-6.83v-4.56H574Zm-68.32,2.28a2.28,2.28,0,0,1-.52-4.5,2.37,2.37,0,0,1,.52-.06,2.28,2.28,0,0,1,2.27,2.28h0A2.28,2.28,0,0,1,505.63,475.42Z"/><polygon points="569.4 454.92 564.84 454.92 564.84 459.48 560.29 459.48 560.29 464.03 569.4 464.03 569.4 454.92"/><path d="M593.31,582.53v6.83H581.92V584.8h-4.55v9.12a4.56,4.56,0,0,1-4.56,4.55V603a9.12,9.12,0,0,0,9.11-9.11h16V582.53Z"/><polygon points="584.2 603.03 588.76 603.03 588.76 607.58 593.31 607.58 593.31 603.03 593.31 598.47 584.2 598.47 584.2 603.03"/><polygon points="581.92 568.86 577.37 568.86 577.37 573.42 572.81 573.42 572.81 577.97 581.92 577.97 581.92 568.86"/><polygon points="510.55 568.86 506 568.86 506 573.42 501.44 573.42 501.44 577.97 510.55 577.97 510.55 568.86"/><path d="M564.07,580.25a6.84,6.84,0,1,0,2.28,13.27v.4a4.55,4.55,0,0,1-4.55,4.55h-2.28V603h2.28a9.12,9.12,0,0,0,9.11-9.11v-6.84A6.84,6.84,0,0,0,564.07,580.25Zm0,9.11a2.28,2.28,0,1,1,2.28-2.28A2.28,2.28,0,0,1,564.07,589.36Z"/><path d="M539,576.59l9.16,9.16v3.61h-3.81a6.83,6.83,0,1,0-13.27-2.28,6.62,6.62,0,0,0,.4,2.28h-9.51a2.28,2.28,0,0,1-2.28-2.27v-4.56h-4.55v4.56a2.28,2.28,0,0,1-4.56,0v-2.28H506v2.28a2.27,2.27,0,0,1-2.27,2.27h-4.56v-4.55H494.6v10.25a5.69,5.69,0,0,1-11.38,0v-5.7h-4.56v5.7a10.25,10.25,0,0,0,20.49,0v-1.14h4.57a6.81,6.81,0,0,0,4.55-1.75,6.8,6.8,0,0,0,9.11,0,6.84,6.84,0,0,0,4.56,1.75h30.75V583.86l-10.5-10.49Zm-3.37,10.49a2.28,2.28,0,1,1,2.28,2.28A2.28,2.28,0,0,1,535.6,587.08Z"/></g></svg>