<svg xmlns="http://www.w3.org/2000/svg" viewBox="0 0 1080 1080"><defs><style>.cls-1,.cls-3{font-size:34.7px;}.cls-1,.cls-2,.cls-3,.cls-6{fill:#fff;}.cls-1,.cls-4{font-family:Akkurat;}.cls-3,.cls-5,.cls-6{font-family:Akkurat-Bold, Akkurat;font-weight:700;}.cls-4{font-size:73.43px;}.cls-4,.cls-7{fill:#ffe500;}.cls-6{font-size:20.3px;}</style></defs><g id="Background"><rect width="1080" height="1080"/></g><g id="Graphics"><text/><text class="cls-1" transform="translate(666.31 886.95)">Zeeen Showroom</text><text/><path class="cls-2" d="M762.35,702.08a10.8,10.8,0,0,0-10.8-10.79h-7.71v6.17h7.71a4.63,4.63,0,0,1,4.63,4.62v1.55H734.59a3.09,3.09,0,0,1-3.09-3.09v-3.08h-6.17v3.08a3.09,3.09,0,0,1-3.08,3.09H713v-3.09a9.26,9.26,0,0,0-9.26-9.25h-6.17v6.17h6.17a3.08,3.08,0,0,1,3.09,3.08v3.09h-9.26v6.17h24.71a9.22,9.22,0,0,0,6.17-2.38,9.21,9.21,0,0,0,6.17,2.38h33.93v-6.17h-6.17Z"/><path class="cls-2" d="M685.2,709.8A6.17,6.17,0,0,1,679,716v6.17a12.35,12.35,0,0,0,12.33-12.34V697.46H685.2Z"/><rect class="cls-2" x="712.99" y="715.97" width="12.34" height="6.17"/><polygon class="cls-2" points="669.79 703.63 657.46 703.63 657.46 675.86 651.29 675.86 651.29 703.63 651.28 703.63 651.28 709.8 675.96 709.8 675.96 694.37 669.79 694.37 669.79 703.63"/><rect class="cls-2" x="657.45" y="715.97" width="12.34" height="6.17"/><rect class="cls-2" x="626.63" y="703.63" width="6.17" height="6.17"/><path class="cls-2" d="M639,709.8a9.25,9.25,0,0,1-18.5,0v-6.17h-6.17v6.17a15.42,15.42,0,0,0,30.84,0V697.46H639Z"/><path class="cls-2" d="M837.93,709.8a6.18,6.18,0,0,1-6.17,6.17v6.17A12.35,12.35,0,0,0,844.1,709.8V697.46h-6.17Z"/><polygon class="cls-2" points="927.39 675.86 921.22 675.86 921.22 682.03 915.05 682.03 915.05 688.2 927.39 688.2 927.39 675.86"/><path class="cls-2" d="M933.56,694.37v6.17a3.09,3.09,0,1,1-6.17,0v-3.08h-6.17v3.08a3.09,3.09,0,0,1-3.08,3.09H912v-6.17H905.8v6.17H871.87a3.09,3.09,0,0,1-3.09-3.09h0a9.26,9.26,0,0,0-18.31-2,9.37,9.37,0,0,0,1.87,7.8,9.21,9.21,0,0,0,10.27,2.88v.54a6.18,6.18,0,0,1-6.17,6.17h-3.08v6.17h3.08a12.35,12.35,0,0,0,12.34-12.34v-.54a9.17,9.17,0,0,0,3.09.54h46.27a9.22,9.22,0,0,0,6.17-2.38,9.23,9.23,0,0,0,15.42-6.88v-6.17Zm-74,9.26a3.09,3.09,0,0,1-.7-6.1,3.46,3.46,0,0,1,.7-.07,3.08,3.08,0,0,1,3.08,3.08h0A3.09,3.09,0,0,1,859.53,703.63Z"/><path class="cls-2" d="M819.42,691.29a9.26,9.26,0,1,0,3.09,18v.54a6.18,6.18,0,0,1-6.17,6.17h-3.09v6.17h3.09a12.36,12.36,0,0,0,12.34-12.34v-9.26A9.27,9.27,0,0,0,819.42,691.29Zm0,12.34a3.09,3.09,0,1,1,3.09-3.09A3.09,3.09,0,0,1,819.42,703.63Z"/><path class="cls-2" d="M796.28,691.29a9.23,9.23,0,0,0-8.22,13.47,12.36,12.36,0,0,0-7.2,11.21v9.25H787V716a6.17,6.17,0,0,1,6.17-6.17h3.08a9.26,9.26,0,1,0,0-18.51Zm0,12.34a3.09,3.09,0,1,1,3.09-3.09A3.09,3.09,0,0,1,796.28,703.63Z"/><text class="cls-1" transform="translate(610.83 765.32)">Heidarian Showroom</text><path class="cls-2" d="M762.35,831.43a6.17,6.17,0,0,1-6.17,6.16v6.17a12.34,12.34,0,0,0,12.34-12.33V819.09h-6.17Z"/><rect class="cls-2" x="762.35" y="806.75" width="6.17" height="6.17"/><path class="cls-2" d="M746.93,825.26H734.59a3.1,3.1,0,0,1-3.09-3.09v-3.08h-6.17v3.08a3.09,3.09,0,0,1-3.08,3.09H713a3.09,3.09,0,0,1-3.08-3.09v-3.08h-6.17v3.08a3.1,3.1,0,0,1-3.09,3.09H688.31v6.17h12.34a9.22,9.22,0,0,0,6.17-2.37,9.22,9.22,0,0,0,6.17,2.37h9.26a9.22,9.22,0,0,0,6.17-2.37,9.22,9.22,0,0,0,6.17,2.37H753.1V816h-6.17Z"/><rect class="cls-2" x="731.5" y="837.59" width="12.34" height="6.17"/><rect class="cls-2" x="711.45" y="837.59" width="12.34" height="6.17"/><rect class="cls-2" x="689.86" y="837.59" width="12.34" height="6.17"/><rect class="cls-2" x="669.8" y="825.26" width="6.17" height="6.17"/><path class="cls-2" d="M682.13,831.43a9.25,9.25,0,0,1-18.5,0v-6.17h-6.16v6.17a15.42,15.42,0,1,0,30.83,0V819.09h-6.17Z"/><path class="cls-2" d="M837.93,831.43a6.17,6.17,0,0,1-6.17,6.16v6.17a12.34,12.34,0,0,0,12.34-12.33V819.09h-6.17Z"/><polygon class="cls-2" points="927.39 797.49 921.22 797.49 921.22 803.66 915.05 803.66 915.05 809.83 927.39 809.83 927.39 797.49"/><path class="cls-2" d="M933.56,816v6.17a3.09,3.09,0,1,1-6.17,0v-3.08h-6.17v3.08a3.09,3.09,0,0,1-3.08,3.09H912v-6.17H905.8v6.17H871.87a3.1,3.1,0,0,1-2.19-.91,3.07,3.07,0,0,1-.9-2.18h0a9.26,9.26,0,0,0-18.31-2,9.37,9.37,0,0,0,1.87,7.8,9.21,9.21,0,0,0,10.27,2.88v.54a6.17,6.17,0,0,1-6.17,6.16h-3.08v6.17h3.08a12.34,12.34,0,0,0,12.34-12.33v-.54a9.17,9.17,0,0,0,3.09.54h46.27a9.22,9.22,0,0,0,6.17-2.38,9.23,9.23,0,0,0,15.42-6.88V816Zm-74,9.26a3.09,3.09,0,0,1-.7-6.1,3.53,3.53,0,0,1,.7-.07,3.07,3.07,0,0,1,3.08,3.08h0A3.09,3.09,0,0,1,859.53,825.26Z"/><path class="cls-2" d="M819.42,812.92a9.26,9.26,0,1,0,3.09,18v.54a6.17,6.17,0,0,1-6.17,6.16h-3.09v6.17h3.09a12.35,12.35,0,0,0,12.34-12.33v-9.26A9.27,9.27,0,0,0,819.42,812.92Zm0,12.34a3.09,3.09,0,1,1,3.09-3.09A3.09,3.09,0,0,1,819.42,825.26Z"/><path class="cls-2" d="M796.29,812.92a9.23,9.23,0,0,0-8.23,13.47,12.36,12.36,0,0,0-7.2,11.2v9.26H787v-9.26a6.17,6.17,0,0,1,6.17-6.16h3.09a9.26,9.26,0,0,0,0-18.51Zm0,12.34a3.09,3.09,0,1,1,3.08-3.09A3.09,3.09,0,0,1,796.29,825.26Z"/><text class="cls-3" transform="translate(961.83 953.05)">0</text><path class="cls-2" d="M837.93,953.05a6.17,6.17,0,0,1-6.17,6.17v6.17a12.35,12.35,0,0,0,12.34-12.34V940.71h-6.17Z"/><polygon class="cls-2" points="927.39 919.12 921.22 919.12 921.22 925.29 915.05 925.29 915.05 931.46 927.39 931.46 927.39 919.12"/><path class="cls-2" d="M933.56,937.63v6.17a3.09,3.09,0,0,1-6.17,0v-3.09h-6.17v3.09a3.08,3.08,0,0,1-3.08,3.08H912v-6.17H905.8v6.17H871.86a3.07,3.07,0,0,1-3.08-3.08h0a9.26,9.26,0,1,0-6.17,8.72v.53a6.17,6.17,0,0,1-6.17,6.17h-3.08v6.17h3.08a12.35,12.35,0,0,0,12.34-12.34v-.53a9.15,9.15,0,0,0,3.08.53h46.28a9.22,9.22,0,0,0,6.17-2.37,9.24,9.24,0,0,0,15.42-6.88v-6.17Zm-74,9.25a3.08,3.08,0,0,1-.7-6.09,3.5,3.5,0,0,1,.7-.08,3.08,3.08,0,0,1,3.08,3.09h0A3.09,3.09,0,0,1,859.53,946.88Z"/><path class="cls-2" d="M819.42,934.54a9.26,9.26,0,0,0,0,18.51,9.08,9.08,0,0,0,3.09-.54v.54a6.17,6.17,0,0,1-6.17,6.17h-3.09v6.17h3.09a12.35,12.35,0,0,0,12.34-12.34V943.8A9.28,9.28,0,0,0,819.42,934.54Zm0,12.34a3.09,3.09,0,1,1,3.09-3.08A3.08,3.08,0,0,1,819.42,946.88Z"/><path class="cls-2" d="M797.83,934.54A9.24,9.24,0,0,0,789.6,948a12.34,12.34,0,0,0-7.2,11.2v9.26h6.17v-9.26a6.18,6.18,0,0,1,6.17-6.17h3.09a9.26,9.26,0,0,0,0-18.51Zm0,12.34a3.09,3.09,0,1,1,3.08-3.08A3.09,3.09,0,0,1,797.83,946.88Z"/><rect class="cls-2" x="760.81" y="959.22" width="6.17" height="6.17"/><polygon class="cls-2" points="760.81 946.88 745.38 946.88 745.38 919.12 739.22 919.12 739.22 953.05 766.98 953.05 766.98 937.63 760.81 937.63 760.81 946.88"/><path class="cls-2" d="M726.88,946.88H714.54a3.08,3.08,0,0,1-3.09-3.08v-3.09h-6.17v3.09a3.08,3.08,0,0,1-3.08,3.08H689.86V943.8a9.27,9.27,0,0,0-9.26-9.26h-9.52l11.7-11.7-4.36-4.36-16.33,16.33v5.9H680.6a3.1,3.1,0,0,1,3.09,3.09v3.08h-37v6.17H702.2a9.22,9.22,0,0,0,6.17-2.37,9.2,9.2,0,0,0,6.17,2.37h18.51V937.63h-6.17Z"/><rect class="cls-2" x="720.71" y="925.29" width="12.34" height="6.17"/><rect class="cls-2" x="692.94" y="959.22" width="12.34" height="6.17"/><text class="cls-1" transform="translate(680.36 1008.58)">Batik Showroom</text><text class="cls-1" transform="translate(254.96 765.56)">Archive</text><text class="cls-3" transform="translate(394.28 710.03)">1</text><text class="cls-3" transform="translate(394.28 831.66)">2</text><text class="cls-1" transform="translate(301.95 887.19)">R&amp;D</text><text class="cls-3" transform="translate(394.28 953.29)">3</text><text class="cls-1" transform="translate(259.44 1008.82)">Gallery</text><path class="cls-2" d="M362.93,934.78H353.4l10.16-10.16-4.36-4.36L344.42,935V941h18.51A3.08,3.08,0,0,1,366,944v3.08H338.24V919.36h-6.17v33.93h40.11V944A9.26,9.26,0,0,0,362.93,934.78Z"/><rect class="cls-2" x="342.5" y="916.27" width="13.09" height="6.17" transform="translate(-547.84 516.05) rotate(-45)"/><path class="cls-2" d="M319.74,947.12h-9.26V944h-6.17v9.25h0a6.18,6.18,0,0,1-6.17,6.17v6.17a12.35,12.35,0,0,0,12.34-12.34h15.43V919.36h-6.17Z"/><path class="cls-2" d="M278.09,944v9.25h9.26v6.17h-9.26a6.18,6.18,0,0,1-6.17-6.17v-6.17h-6.17v6.17a12.35,12.35,0,0,0,12.34,12.34h15.43V947.12h-9.26V944a3.09,3.09,0,0,1,3.09-3.09h6.17v-6.17h-6.17A9.27,9.27,0,0,0,278.09,944Z"/><text class="cls-4" transform="translate(732.84 462.71)">LEVEL <tspan class="cls-5" x="229.63" y="0">2</tspan></text><text class="cls-6" transform="translate(187.03 567.74) scale(1.04 1)">1</text><text class="cls-6" transform="translate(123.09 531.2) scale(1.04 1)">2</text><rect class="cls-2" x="711.8" y="237.87" width="2.82" height="65.13" transform="translate(122.4 752.88) rotate(-60)"/><rect class="cls-2" x="645.76" y="276.01" width="2.82" height="65.13" transform="translate(56.35 714.75) rotate(-60)"/><rect class="cls-2" x="580.34" y="313.78" width="2.82" height="65.13" transform="translate(-9.07 676.98) rotate(-60)"/><rect class="cls-2" x="514.62" y="351.72" width="2.82" height="65.13" transform="translate(-74.79 639.03) rotate(-60)"/><rect class="cls-2" x="449.01" y="389.6" width="2.82" height="65.13" transform="translate(-140.4 601.16) rotate(-60)"/><rect class="cls-2" x="203.78" y="398.5" width="150.96" height="2.82" transform="translate(-162.54 193.2) rotate(-30)"/><polygon class="cls-2" points="347.65 515.69 346.24 513.25 996.87 137.8 866.63 62.61 477.57 287.04 476.17 284.6 866.63 59.35 1002.5 137.8 347.65 515.69"/><rect class="cls-2" x="244.12" y="540.61" width="110.21" height="2.82" transform="translate(-230.92 222.22) rotate(-30)"/><polygon class="cls-2" points="119.15 493.98 117.75 491.54 213.89 436.03 231.9 446.42 230.49 448.86 213.89 439.28 119.15 493.98"/><rect class="cls-2" x="301.33" y="437.91" width="2.82" height="102.08" transform="translate(-272.07 506.66) rotate(-60)"/><polygon class="cls-2" points="212.17 593.91 145 555.13 146.41 552.69 212.17 590.66 248.68 569.57 184.34 532.42 185.75 529.98 254.32 569.57 212.17 593.91"/><path class="cls-2" d="M145.71,555.54,76.3,515.47l42.15-24.34,69.41,40.07ZM81.93,515.47l63.78,36.82,36.51-21.09-63.77-36.82Z"/><text/><text/><text class="cls-6" transform="translate(468.14 410.61) scale(1.04 1)">3</text><text class="cls-6" transform="translate(534.62 370.53) scale(1.04 1)">3</text><text class="cls-6" transform="translate(598.55 331.87) scale(1.04 1)">3</text><text class="cls-6" transform="translate(662.49 296.85) scale(1.04 1)">3</text><polygon class="cls-2" points="232.84 458.65 223.43 453.21 224.84 450.77 230.02 453.77 230.02 449.38 243.94 441.34 246.73 442.95 245.32 445.39 243.94 444.59 232.84 451 232.84 458.65"/><polygon class="cls-2" points="246.03 472.28 222.73 458.83 222.73 451.18 236.65 443.14 239.44 444.75 238.03 447.19 236.65 446.4 225.54 452.81 225.54 457.2 246.03 469.03 257.84 462.21 259.25 464.65 246.03 472.28"/><rect class="cls-2" x="244.62" y="452.6" width="2.82" height="18.06"/><polygon class="cls-2" points="259.95 463.43 257.13 463.43 257.13 446.19 251.24 442.79 240.14 449.2 240.14 456.84 230.73 451.41 232.14 448.97 237.32 451.96 237.32 447.57 251.24 439.53 259.95 444.56 259.95 463.43"/><rect class="cls-2" x="245.06" y="447.58" width="14.45" height="2.82" transform="translate(-190.69 186.29) rotate(-30)"/><rect class="cls-2" x="240.97" y="446.28" width="2.82" height="8.43" transform="translate(-268.95 435.15) rotate(-60)"/><text class="cls-6" transform="translate(271.95 251.76) scale(1.04 1)">0</text><polygon class="cls-2" points="344.63 363.8 121.02 234.7 256.08 156.72 256.79 157.13 479.69 285.82 397.37 333.35 395.96 330.91 474.05 285.82 256.08 159.98 126.66 234.7 344.63 360.55 374.06 343.55 375.47 345.99 344.63 363.8"/><rect class="cls-7" x="381.7" y="307.45" width="2.82" height="14.45" transform="translate(-80.97 489.1) rotate(-60)"/><rect class="cls-7" x="388.8" y="314.77" width="8.43" height="2.82" transform="translate(-105.43 238.86) rotate(-30)"/><rect class="cls-7" x="381.7" y="313.47" width="2.82" height="14.45" transform="translate(-86.17 492.13) rotate(-60)"/><rect class="cls-7" x="374.4" y="317.68" width="2.82" height="14.45" transform="translate(-93.47 487.92) rotate(-60)"/><rect class="cls-7" x="374.4" y="323.7" width="2.82" height="14.45" transform="translate(-98.68 490.93) rotate(-60)"/><polygon class="cls-7" points="382.77 329.74 381.36 327.3 387.95 323.49 387.95 318.29 390.77 318.29 390.77 325.12 382.77 329.74"/><polygon class="cls-7" points="370.96 327.31 368.15 327.31 368.15 320.48 376.15 315.86 377.56 318.3 370.96 322.11 370.96 327.31"/><polygon class="cls-7" points="374.77 340.38 361.55 332.75 362.96 330.31 374.77 337.13 380.66 333.72 380.66 328.52 383.47 328.52 383.47 335.35 374.77 340.38"/><polygon class="cls-7" points="374.77 346.4 360.85 338.36 360.85 330.71 368.85 326.1 370.26 328.54 363.67 332.34 363.67 336.73 374.77 343.14 395.25 331.32 395.25 314.88 384.15 308.48 378.26 311.88 378.26 317.08 375.44 317.08 375.44 310.25 384.15 305.22 398.07 313.26 398.07 332.94 374.77 346.4"/><rect class="cls-7" x="373.36" y="338.75" width="2.82" height="6.02"/><rect class="cls-2" x="366" y="676.03" width="6.18" height="34"/><path class="cls-2" d="M363.42,661.64a10.65,10.65,0,0,0-10.64,10.64v3.77H359v-3.77a4.46,4.46,0,0,1,4.45-4.46H382.3v-6.18Z"/><path class="cls-2" d="M355.18,706.94a6.19,6.19,0,0,1-6.19,6.18v6.19a12.39,12.39,0,0,0,12.37-12.37V694.58h-6.18Z"/><rect class="cls-2" x="259.35" y="716.22" width="12.37" height="6.18"/><path class="cls-2" d="M339.72,700.76a3.09,3.09,0,0,1-6.18,0v-3.09h-6.18v3.09a3.1,3.1,0,0,1-3.1,3.09h-6.18v-6.18H311.9v6.18H281a3.09,3.09,0,0,1-3.09-3.09v-3.09h-6.19v3.09a3.09,3.09,0,0,1-3.09,3.09h-9.27a3.09,3.09,0,0,1-3.09-3.09h0a9.28,9.28,0,0,0-18.35-2A9.28,9.28,0,0,0,247,710a9,9,0,0,0,3.09-.54V710a6.19,6.19,0,0,1-6.18,6.19H240.8v6.18h3.09A12.39,12.39,0,0,0,256.26,710v-.53a9.16,9.16,0,0,0,3.09.53h9.27a9.18,9.18,0,0,0,6.18-2.38A9.23,9.23,0,0,0,281,710h43.27a9.23,9.23,0,0,0,6.19-2.38,9.18,9.18,0,0,0,6.18,2.38,9.28,9.28,0,0,0,9.27-9.27v-6.18h-6.18ZM247,703.85a3.09,3.09,0,0,1-3-3.79,3.06,3.06,0,0,1,2.31-2.32,3.53,3.53,0,0,1,.7-.07,3.1,3.1,0,0,1,2,.69,3.06,3.06,0,0,1,1.14,2.4h0A3.09,3.09,0,0,1,247,703.85Z"/><polygon class="cls-2" points="333.54 676.03 327.36 676.03 327.36 682.21 321.17 682.21 321.17 688.39 333.54 688.39 333.54 676.03"/><path class="cls-2" d="M366,816.21v9.28H350.54V819.3h-6.18v12.37a6.18,6.18,0,0,1-6.18,6.18V844a12.37,12.37,0,0,0,12.36-12.36h21.64V816.21Z"/><polygon class="cls-2" points="353.63 844.03 359.81 844.03 359.81 850.21 366 850.21 366 844.03 366 837.85 353.63 837.85 353.63 844.03"/><polygon class="cls-2" points="350.54 797.67 344.36 797.67 344.36 803.85 338.18 803.85 338.18 810.03 350.54 810.03 350.54 797.67"/><polygon class="cls-2" points="253.68 797.67 247.5 797.67 247.5 803.85 241.32 803.85 241.32 810.03 253.68 810.03 253.68 797.67"/><path class="cls-2" d="M326.32,813.12a9.28,9.28,0,1,0,3.09,18v.54a6.18,6.18,0,0,1-6.18,6.18h-3.09V844h3.09a12.37,12.37,0,0,0,12.36-12.36V822.4A9.28,9.28,0,0,0,326.32,813.12Zm0,12.37a3.1,3.1,0,1,1,3.09-3.09A3.09,3.09,0,0,1,326.32,825.49Z"/><path class="cls-2" d="M292.25,808.15l12.43,12.43v4.91h-5.17a9.28,9.28,0,1,0-17.47,0h-12.9a3.09,3.09,0,0,1-3.09-3.09v-6.18h-6.19v6.18a3.09,3.09,0,0,1-6.18,0v-3.09H247.5v3.09a3.09,3.09,0,0,1-3.09,3.09h-6.18v-6.18H232v13.91a7.72,7.72,0,0,1-15.44,0v-7.73h-6.18v7.73a13.91,13.91,0,0,0,27.81,0v-1.55h6.19a9.18,9.18,0,0,0,6.18-2.38,9.23,9.23,0,0,0,12.37,0,9.18,9.18,0,0,0,6.18,2.38h41.72V818l-14.24-14.24Zm-4.57,14.25a3.09,3.09,0,1,1,3.09,3.09A3.1,3.1,0,0,1,287.68,822.4Z"/></g></svg>