<svg xmlns="http://www.w3.org/2000/svg" viewBox="0 0 1080 1080"><defs><style>.cls-1{fill:#fff;}.cls-2{fill:#b8babc;}.cls-3{fill:#222221;}</style></defs><g id="Background"><rect class="cls-1" width="1080" height="1080"/></g><g id="Graphics"><path d="M660.1,452.42c0-147.6-100-271.85-236-308.62-136,36.77-236,161-236,308.62V936.2h472Z"/><polygon class="cls-2" points="891.93 603 756.94 468.02 756.94 467.98 188.07 467.98 188.07 738.03 756.94 738.03 756.94 737.99 891.93 603"/><path d="M487,535.21a4.56,4.56,0,0,1-4.56,4.55v4.56a9.12,9.12,0,0,0,9.11-9.11V526.1H487Z"/><rect x="486.96" y="516.99" width="4.55" height="4.55"/><path d="M475.57,530.65h-9.11a2.29,2.29,0,0,1-2.28-2.28V526.1h-4.55v2.27a2.28,2.28,0,0,1-2.28,2.28h-6.83a2.28,2.28,0,0,1-2.28-2.28V526.1h-4.55v2.27a2.29,2.29,0,0,1-2.28,2.28H432.3v4.56h9.11a6.77,6.77,0,0,0,4.55-1.75,6.79,6.79,0,0,0,4.56,1.75h6.83a6.79,6.79,0,0,0,4.56-1.75,6.77,6.77,0,0,0,4.55,1.75h13.67V523.82h-4.56Z"/><rect x="464.18" y="539.76" width="9.11" height="4.56"/><rect x="449.38" y="539.76" width="9.11" height="4.56"/><rect x="433.44" y="539.76" width="9.11" height="4.56"/><rect x="418.63" y="530.65" width="4.55" height="4.55"/><path d="M427.73,535.21a6.83,6.83,0,1,1-13.65,0v-4.56h-4.56v4.56a11.39,11.39,0,0,0,22.77,0V526.1h-4.56Z"/><path d="M542.76,535.21a4.55,4.55,0,0,1-4.55,4.55v4.56a9.12,9.12,0,0,0,9.11-9.11V526.1h-4.56Z"/><polygon points="608.81 510.15 604.26 510.15 604.26 514.71 599.7 514.71 599.7 519.26 608.81 519.26 608.81 510.15"/><path d="M613.37,523.82v4.55a2.28,2.28,0,1,1-4.56,0V526.1h-4.55v2.27a2.29,2.29,0,0,1-2.28,2.28h-4.56V526.1h-4.55v4.55H567.81a2.28,2.28,0,0,1-1.61-.67,2.25,2.25,0,0,1-.66-1.61h0a6.83,6.83,0,1,0-6.84,6.84,6.87,6.87,0,0,0,2.28-.4v.4a4.55,4.55,0,0,1-4.55,4.55h-2.28v4.56h2.28a9.12,9.12,0,0,0,9.11-9.11v-.4a6.7,6.7,0,0,0,2.27.4H602a6.77,6.77,0,0,0,4.55-1.76,6.82,6.82,0,0,0,11.39-5.08v-4.55Zm-54.67,6.83a2.28,2.28,0,0,1-.51-4.5,2.39,2.39,0,0,1,1.95.45,2.29,2.29,0,0,1,.84,1.77h0A2.28,2.28,0,0,1,558.7,530.65Z"/><path d="M529.1,521.54a6.84,6.84,0,1,0,2.27,13.27v.4a4.55,4.55,0,0,1-4.55,4.55h-2.28v4.56h2.28a9.12,9.12,0,0,0,9.11-9.11v-6.84A6.85,6.85,0,0,0,529.1,521.54Zm0,9.11a2.28,2.28,0,1,1,2.27-2.28A2.28,2.28,0,0,1,529.1,530.65Z"/><path d="M512,521.54a6.82,6.82,0,0,0-6.07,10,9.11,9.11,0,0,0-5.31,8.27v6.83h4.55v-6.83a4.56,4.56,0,0,1,4.56-4.55H512a6.84,6.84,0,1,0,0-13.67Zm0,9.11a2.28,2.28,0,1,1,2.28-2.28A2.28,2.28,0,0,1,512,530.65Z"/><path d="M335.64,695.85V685.61H325v10.24H322.2v-22.2H325v9.27h10.65v-9.27h2.78v22.2Z"/><path d="M357.21,688.81H346a5.86,5.86,0,0,0,1.53,4,4.53,4.53,0,0,0,5.86.09,3.37,3.37,0,0,0,.94-1.72h2.6a5.86,5.86,0,0,1-2.44,3.91,7.33,7.33,0,0,1-4,1.19,6.74,6.74,0,0,1-5.26-2.38,8.94,8.94,0,0,1-2-5.89,9.72,9.72,0,0,1,1.22-5.07,6.79,6.79,0,0,1,6-3.32,6.4,6.4,0,0,1,4.83,2,8.18,8.18,0,0,1,2,5.57Zm-3.66-5.51a3.77,3.77,0,0,0-3.14-1.44c-2.88,0-4.29,2.35-4.35,4.66h8.46A5.55,5.55,0,0,0,353.55,683.3Z"/><path d="M361.53,676.38v-3.13h3.1v3.13Zm.19,19.47V680h2.72v15.84Z"/><path d="M380.72,695.85l-.18-2.06a5.58,5.58,0,0,1-4.73,2.47,6.05,6.05,0,0,1-4.48-1.72,10.66,10.66,0,0,1,.13-13.34,6.2,6.2,0,0,1,4.35-1.6,5.52,5.52,0,0,1,4.6,2.26v-8.61h2.66v22.6Zm-1.91-13a3.63,3.63,0,0,0-2.56-1c-3.54,0-4.48,3.16-4.48,6.07s.94,6.08,4.48,6.08a3.6,3.6,0,0,0,2.56-1,8.1,8.1,0,0,0,0-10.08Z"/><path d="M400.42,696.07a2.25,2.25,0,0,1-2.29-2.41h-.06a5.77,5.77,0,0,1-5.1,2.6c-3.63,0-5.45-2.44-5.45-4.88,0-2,1.31-4.7,5.64-5l4.82-.28V685a3.13,3.13,0,0,0-.82-2.41,3.56,3.56,0,0,0-2.6-.82,4,4,0,0,0-2.88.94,2.6,2.6,0,0,0-.78,1.91h-2.6a4.72,4.72,0,0,1,1.38-3.32,6.83,6.83,0,0,1,4.88-1.69c3.07,0,4.83,1.32,5.58,3a6.1,6.1,0,0,1,.47,2.44v7.67c0,.85.34,1.07.87,1.07a3.53,3.53,0,0,0,.69-.1v2A3.67,3.67,0,0,1,400.42,696.07ZM398,688.21l-4.26.25c-1.6.1-3.48.85-3.48,2.85,0,1.41.88,2.73,3.14,2.73a4.43,4.43,0,0,0,3.25-1.29,5.1,5.1,0,0,0,1.35-3.6Z"/><path d="M413.48,682.48a4.35,4.35,0,0,0-3,1.26c-1.28,1.22-1.44,3.41-1.44,5.07v7H406.4V680h2.35l.22,2.79a4.91,4.91,0,0,1,4.73-2.88A8.86,8.86,0,0,1,415,680v2.6A8.11,8.11,0,0,0,413.48,682.48Z"/><path d="M418.24,676.38v-3.13h3.1v3.13Zm.18,19.47V680h2.73v15.84Z"/><path d="M438.5,696.07a2.25,2.25,0,0,1-2.29-2.41h-.06a5.78,5.78,0,0,1-5.11,2.6c-3.63,0-5.44-2.44-5.44-4.88,0-2,1.31-4.7,5.63-5l4.82-.28V685a3.12,3.12,0,0,0-.81-2.41,3.58,3.58,0,0,0-2.6-.82,3.93,3.93,0,0,0-2.88.94,2.6,2.6,0,0,0-.78,1.91h-2.6a4.68,4.68,0,0,1,1.38-3.32,6.83,6.83,0,0,1,4.88-1.69c3.07,0,4.82,1.32,5.57,3a5.94,5.94,0,0,1,.47,2.44v7.67c0,.85.35,1.07.88,1.07a3.69,3.69,0,0,0,.69-.1v2A3.7,3.7,0,0,1,438.5,696.07Zm-2.45-7.86-4.26.25c-1.59.1-3.47.85-3.47,2.85,0,1.41.88,2.73,3.13,2.73a4.47,4.47,0,0,0,3.26-1.29,5.09,5.09,0,0,0,1.34-3.6Z"/><path d="M454.62,695.85V685.8c0-2.38-1-3.79-3.47-3.79a3.89,3.89,0,0,0-3.45,2.45,10.45,10.45,0,0,0-.56,4v7.35h-2.66V680h2.31l.22,2.38a5.37,5.37,0,0,1,4.79-2.79c3.6,0,5.48,2.16,5.48,5.83v10.42Z"/><path d="M483.52,694a9,9,0,0,1-6.29,2.22,9.18,9.18,0,0,1-6.36-2.13,7.33,7.33,0,0,1-2.38-5.32h2.91a5.09,5.09,0,0,0,1.57,3.51,6.28,6.28,0,0,0,4.26,1.37,5.84,5.84,0,0,0,4.13-1.28,3.28,3.28,0,0,0,1.13-2.6c0-1.72-1.1-3.16-3.73-3.57l-3.5-.53c-3.32-.5-5.92-2.35-5.92-5.89a6.12,6.12,0,0,1,1.94-4.38,8.24,8.24,0,0,1,5.82-2.19,8.34,8.34,0,0,1,5.76,2.13,6.64,6.64,0,0,1,2.13,4.76h-2.91a4.65,4.65,0,0,0-1.09-2.79,5.78,5.78,0,0,0-7.86,0,3.5,3.5,0,0,0-.91,2.41c0,2,1.66,2.91,3.32,3.13,1.25.16,2.47.38,3.69.56,3.7.54,6.17,2.79,6.17,6.3A5.78,5.78,0,0,1,483.52,694Z"/><path d="M500,695.85V685.8c0-2.38-1-3.79-3.47-3.79a3.89,3.89,0,0,0-3.45,2.45,10.45,10.45,0,0,0-.56,4v7.35h-2.66v-22.6h2.66v8.86a5.39,5.39,0,0,1,4.63-2.51c3.61,0,5.52,2.16,5.52,5.83v10.42Z"/><path d="M518.87,694.41a7.13,7.13,0,0,1-9.58,0c-1.72-1.69-2.25-4-2.25-6.48s.53-4.79,2.25-6.48a7.13,7.13,0,0,1,9.58,0c1.73,1.69,2.26,4,2.26,6.48S520.6,692.72,518.87,694.41ZM516.93,683a4.16,4.16,0,0,0-5.7,0c-1.12,1.15-1.47,3.06-1.47,4.91s.35,3.76,1.47,4.92a4.19,4.19,0,0,0,5.7,0c1.13-1.16,1.47-3.07,1.47-4.92S518.06,684.17,516.93,683Z"/><path d="M541.39,695.85h-2.57l-4.13-12.11-4.23,12.11h-2.54L523.85,680h2.63l3,12,4-11.77h2.29l4,11.77,3.07-12h2.6Z"/><path d="M556.67,682.48a4.37,4.37,0,0,0-3,1.26c-1.28,1.22-1.44,3.41-1.44,5.07v7h-2.63V680h2.35l.22,2.79a4.91,4.91,0,0,1,4.73-2.88,8.86,8.86,0,0,1,1.25.09v2.6A8.11,8.11,0,0,0,556.67,682.48Z"/><path d="M571.67,694.41a7.13,7.13,0,0,1-9.58,0c-1.73-1.69-2.26-4-2.26-6.48s.53-4.79,2.26-6.48a7.13,7.13,0,0,1,9.58,0c1.72,1.69,2.25,4,2.25,6.48S573.39,692.72,571.67,694.41ZM569.73,683a4.16,4.16,0,0,0-5.7,0c-1.13,1.15-1.47,3.06-1.47,4.91s.34,3.76,1.47,4.92a4.19,4.19,0,0,0,5.7,0c1.12-1.16,1.47-3.07,1.47-4.92S570.85,684.17,569.73,683Z"/><path d="M589.14,694.41a7.13,7.13,0,0,1-9.58,0c-1.72-1.69-2.26-4-2.26-6.48s.54-4.79,2.26-6.48a7.13,7.13,0,0,1,9.58,0c1.72,1.69,2.25,4,2.25,6.48S590.86,692.72,589.14,694.41ZM587.2,683a4.16,4.16,0,0,0-5.7,0c-1.13,1.15-1.47,3.06-1.47,4.91s.34,3.76,1.47,4.92a4.19,4.19,0,0,0,5.7,0c1.13-1.16,1.47-3.07,1.47-4.92S588.33,684.17,587.2,683Z"/><path d="M615.25,695.85V685.77c0-2.22-.72-3.76-3.22-3.76a3.2,3.2,0,0,0-2.41,1.07,6,6,0,0,0-1.35,4.35v8.42h-2.66V685.77c0-2.22-.66-3.76-3.19-3.76a3.39,3.39,0,0,0-2.7,1.41,7,7,0,0,0-1.06,4v8.42H596V680h2.31l.26,2.25A4.82,4.82,0,0,1,603,679.6a4.61,4.61,0,0,1,4.73,3,5.22,5.22,0,0,1,4.88-3c3.6,0,5.3,2.32,5.3,5.83v10.42Z"/><path d="M487,643.45a8,8,0,0,0-8-8h-5.7V640H479a3.42,3.42,0,0,1,3.41,3.42v1.14H466.46a2.28,2.28,0,0,1-2.28-2.28V640h-4.55v2.28a2.28,2.28,0,0,1-2.28,2.28H450.5v-2.28a6.83,6.83,0,0,0-6.83-6.83h-4.56V640h4.56a2.29,2.29,0,0,1,2.28,2.28v2.28h-6.84v4.56h18.24a6.8,6.8,0,0,0,4.56-1.76,6.77,6.77,0,0,0,4.55,1.76h25.05v-4.56H487Z"/><path d="M430,649.14a4.56,4.56,0,0,1-4.55,4.56v4.56a9.13,9.13,0,0,0,9.11-9.12V640H430Z"/><rect x="450.52" y="653.7" width="9.11" height="4.56"/><polygon points="418.62 644.59 409.52 644.59 409.52 624.09 404.97 624.09 404.97 644.59 404.96 644.59 404.96 649.14 423.18 649.14 423.18 637.76 418.62 637.76 418.62 644.59"/><rect x="409.51" y="653.7" width="9.11" height="4.56"/><rect x="386.76" y="644.59" width="4.55" height="4.55"/><path d="M395.86,649.15a6.83,6.83,0,0,1-13.66,0v-4.56h-4.56v4.56a11.39,11.39,0,0,0,22.77,0V640h-4.55Z"/><path d="M542.76,649.14a4.56,4.56,0,0,1-4.55,4.56v4.56a9.13,9.13,0,0,0,9.11-9.12V640h-4.56Z"/><polygon points="608.81 624.09 604.26 624.09 604.26 628.65 599.7 628.65 599.7 633.2 608.81 633.2 608.81 624.09"/><path d="M613.37,637.76v4.55a2.28,2.28,0,1,1-4.56,0V640h-4.55v2.28a2.29,2.29,0,0,1-2.28,2.28h-4.56V640h-4.55v4.56H567.81a2.28,2.28,0,0,1-1.61-.67,2.25,2.25,0,0,1-.66-1.61h0a6.85,6.85,0,0,0-8.28-6.68A6.83,6.83,0,1,0,561,648.75v.39a4.56,4.56,0,0,1-4.55,4.56h-2.28v4.56h2.28a9.13,9.13,0,0,0,9.11-9.12v-.39a6.69,6.69,0,0,0,2.27.39H602a6.77,6.77,0,0,0,4.55-1.75,6.83,6.83,0,0,0,11.39-5.08v-4.55Zm-54.67,6.83a2.29,2.29,0,0,1-2.22-2.79,2.25,2.25,0,0,1,1.71-1.71,2.27,2.27,0,0,1,1.95.45,2.29,2.29,0,0,1,.84,1.77h0A2.28,2.28,0,0,1,558.7,644.59Z"/><path d="M529.1,635.48a6.83,6.83,0,1,0,2.27,13.27v.39a4.56,4.56,0,0,1-4.55,4.56h-2.28v4.56h2.28a9.13,9.13,0,0,0,9.11-9.12v-6.83A6.84,6.84,0,0,0,529.1,635.48Zm0,9.11a2.28,2.28,0,1,1,2.27-2.28A2.28,2.28,0,0,1,529.1,644.59Z"/><path d="M512,635.48a6.82,6.82,0,0,0-6.07,9.95,9.11,9.11,0,0,0-5.31,8.27v6.83h4.56V653.7a4.56,4.56,0,0,1,4.56-4.56H512a6.83,6.83,0,1,0,0-13.66Zm0,9.11a2.28,2.28,0,1,1,2.28-2.28A2.28,2.28,0,0,1,512,644.59Z"/><path class="cls-1" d="M429.21,894,425,884.79h-6.14V894h-2.79v-22.2h8.71a7.51,7.51,0,0,1,5.64,2,6.31,6.31,0,0,1,1.75,4.51,6,6,0,0,1-1.69,4.38,6.49,6.49,0,0,1-2.66,1.57l4.44,9.77Zm-4.41-19.64h-5.92v7.8h5.92c2.63,0,4.51-1.07,4.51-3.88S427.43,874.39,424.8,874.39Z"/><path class="cls-1" d="M446.53,894l-.22-2.42a5.14,5.14,0,0,1-4.7,2.79c-3.6,0-5.41-2.16-5.41-5.82v-10.4h2.66v10c0,2.38.88,3.79,3.38,3.79a3.57,3.57,0,0,0,2.63-1.19,6.39,6.39,0,0,0,1.32-4.38v-8.24h2.66V894Z"/><path class="cls-1" d="M466.85,899.57c-1.53,1.5-4.16,1.85-6.39,1.85s-4.47-.32-6-1.85a3.83,3.83,0,0,1-1.12-2.82,3.9,3.9,0,0,1,2.25-3.51,2.86,2.86,0,0,1-1.85-2.66,3.44,3.44,0,0,1,2.1-3.07,5.6,5.6,0,0,1-1.82-4.1,5.22,5.22,0,0,1,1.51-3.85,6.18,6.18,0,0,1,4.69-1.79,6.77,6.77,0,0,1,3.64.94,3.35,3.35,0,0,1,3.25-2.22,7.18,7.18,0,0,1,.79.06v2.16a3.64,3.64,0,0,0-.6,0,1.82,1.82,0,0,0-1.94,1.44,5.09,5.09,0,0,1,1,3.29,5.6,5.6,0,0,1-1.44,3.79,6.21,6.21,0,0,1-4.73,1.88,7.08,7.08,0,0,1-2.66-.44,1.78,1.78,0,0,0-1.34,1.41c-.1,1.38,1.37,1.53,2.38,1.56s3.13,0,3.13,0c1.88,0,4,.38,5.23,1.66a4.29,4.29,0,0,1,1.25,3.1A4.46,4.46,0,0,1,466.85,899.57Zm-6.23-5.7h-2.88a2.74,2.74,0,0,0-2,2.5,2.25,2.25,0,0,0,.65,1.66c1,1,2.85,1.1,4.23,1.1s3.32-.13,4.32-1.13a2.21,2.21,0,0,0,.66-1.63C465.6,893.68,462.62,893.87,460.62,893.87Zm-.44-13.93a3.51,3.51,0,1,0,0,7,3.43,3.43,0,0,0,3.6-3.54A3.33,3.33,0,0,0,460.18,879.94Z"/><path class="cls-1" d="M497.44,894h-3l-5.07-17.88L484.26,894h-2.94l-4.45-22.2h2.6L483,889.92l5.13-17.78h2.51l5.13,17.75,3.54-18.06h2.54Z"/><path class="cls-1" d="M515.92,892.58a7.13,7.13,0,0,1-9.58,0c-1.72-1.69-2.26-4-2.26-6.48s.54-4.79,2.26-6.48a7.13,7.13,0,0,1,9.58,0c1.72,1.69,2.25,4,2.25,6.48S517.64,890.89,515.92,892.58ZM514,881.19a4.16,4.16,0,0,0-5.7,0c-1.13,1.16-1.47,3.07-1.47,4.91s.34,3.76,1.47,4.92a4.16,4.16,0,0,0,5.7,0c1.12-1.16,1.47-3.07,1.47-4.92S515.1,882.35,514,881.19Z"/><path class="cls-1" d="M529.85,880.66a4.33,4.33,0,0,0-3,1.25c-1.29,1.22-1.44,3.41-1.44,5.07v7h-2.63V878.18h2.34l.22,2.79a4.93,4.93,0,0,1,4.73-2.88,8.66,8.66,0,0,1,1.25.09v2.6A8.1,8.1,0,0,0,529.85,880.66Z"/><path class="cls-1" d="M545.45,894l-5-7.64-3,3.38V894H534.8V871.42h2.66v14.75l7.17-8h3.23l-5.64,6.26,6.23,9.59Z"/><path class="cls-1" d="M562.2,892.65a8.34,8.34,0,0,1-10.3,0,5.14,5.14,0,0,1-1.54-3.63H553a3.12,3.12,0,0,0,1.29,2.47,5,5,0,0,0,2.85.72,4.29,4.29,0,0,0,2.91-.88,2.23,2.23,0,0,0,.78-1.72c0-1.19-.84-2-2.47-2.25l-3.57-.47c-2.38-.38-3.88-1.85-3.88-4.26a4.56,4.56,0,0,1,1.31-3.1,6.43,6.43,0,0,1,4.67-1.76,6.3,6.3,0,0,1,5,2,4.51,4.51,0,0,1,1.13,3h-2.67a2.86,2.86,0,0,0-.9-2,3.75,3.75,0,0,0-2.6-.84,4.14,4.14,0,0,0-1.85.31,2.38,2.38,0,0,0-1.6,2.13c0,1.32.82,1.88,2.13,2.07.88.12,2.13.25,3.82.53a4.49,4.49,0,0,1,4,4.38A4.54,4.54,0,0,1,562.2,892.65Z"/><path class="cls-1" d="M578.17,894V884c0-2.38-1-3.78-3.48-3.78a3.88,3.88,0,0,0-3.44,2.44,10.51,10.51,0,0,0-.57,4V894H568V871.42h2.66v8.86a5.39,5.39,0,0,1,4.64-2.51c3.6,0,5.51,2.17,5.51,5.83V894Z"/><path class="cls-1" d="M597,892.58a7.13,7.13,0,0,1-9.58,0c-1.73-1.69-2.26-4-2.26-6.48s.53-4.79,2.26-6.48a7.13,7.13,0,0,1,9.58,0c1.72,1.69,2.25,4,2.25,6.48S598.74,890.89,597,892.58Zm-1.94-11.39a4.16,4.16,0,0,0-5.7,0c-1.13,1.16-1.47,3.07-1.47,4.91s.34,3.76,1.47,4.92a4.16,4.16,0,0,0,5.7,0c1.12-1.16,1.47-3.07,1.47-4.92S596.2,882.35,595.08,881.19Z"/><path class="cls-1" d="M615.49,892.87a6.19,6.19,0,0,1-4.35,1.59,5.51,5.51,0,0,1-4.6-2.25v8.61h-2.66V878.21h2.34l.19,2.07a5.55,5.55,0,0,1,4.73-2.47,6,6,0,0,1,4.48,1.72,10.66,10.66,0,0,1-.13,13.34Zm-4.79-12.81a3.68,3.68,0,0,0-2.57,1,8.15,8.15,0,0,0,0,10.09,3.68,3.68,0,0,0,2.57,1c3.54,0,4.48-3.16,4.48-6.08S614.24,880.06,610.7,880.06Z"/><polygon class="cls-1" points="269.82 894.08 269.82 854.44 230.2 854.45 230.2 851.9 272.37 851.89 272.38 894.08 269.82 894.08"/><rect class="cls-1" x="222.3" y="872.11" width="57.17" height="2.55" transform="translate(-544.1 433.21) rotate(-45)"/><path d="M372.61,581.91v-2.78l12.94-16.82H372.74v-2.6h16.13v2.82l-13,16.78H389v2.6Z"/><path d="M405.46,574.87H394.25a5.87,5.87,0,0,0,1.54,4,4.52,4.52,0,0,0,5.85.09,3.37,3.37,0,0,0,.94-1.72h2.6a5.86,5.86,0,0,1-2.44,3.91,7.33,7.33,0,0,1-4,1.19,6.76,6.76,0,0,1-5.26-2.38,8.94,8.94,0,0,1-2-5.89,9.63,9.63,0,0,1,1.22-5.07,6.77,6.77,0,0,1,6-3.32,6.4,6.4,0,0,1,4.82,2,8.18,8.18,0,0,1,2,5.57Zm-3.66-5.51a3.75,3.75,0,0,0-3.13-1.44c-2.88,0-4.29,2.35-4.36,4.66h8.46A5.55,5.55,0,0,0,401.8,569.36Z"/><path d="M422.71,574.87h-11.2a5.86,5.86,0,0,0,1.53,4,4.52,4.52,0,0,0,5.85.09,3.37,3.37,0,0,0,.94-1.72h2.6a5.86,5.86,0,0,1-2.44,3.91,7.33,7.33,0,0,1-4,1.19,6.76,6.76,0,0,1-5.26-2.38,9,9,0,0,1-2-5.89,9.63,9.63,0,0,1,1.22-5.07,6.78,6.78,0,0,1,6-3.32,6.38,6.38,0,0,1,4.82,2,8.14,8.14,0,0,1,2,5.57Zm-3.66-5.51a3.75,3.75,0,0,0-3.13-1.44c-2.88,0-4.29,2.35-4.35,4.66H420A5.48,5.48,0,0,0,419.05,569.36Z"/><path d="M440,574.87H428.76a5.86,5.86,0,0,0,1.53,4,4.53,4.53,0,0,0,5.86.09,3.37,3.37,0,0,0,.94-1.72h2.6a5.84,5.84,0,0,1-2.45,3.91,7.28,7.28,0,0,1-4,1.19,6.77,6.77,0,0,1-5.26-2.38,9,9,0,0,1-2-5.89,9.72,9.72,0,0,1,1.22-5.07,6.79,6.79,0,0,1,6-3.32,6.4,6.4,0,0,1,4.83,2,8.18,8.18,0,0,1,2,5.57Zm-3.67-5.51a3.74,3.74,0,0,0-3.13-1.44c-2.88,0-4.29,2.35-4.35,4.66h8.45A5.48,5.48,0,0,0,436.3,569.36Z"/><path d="M454.62,581.91v-10c0-2.38-1-3.79-3.47-3.79a3.89,3.89,0,0,0-3.45,2.45,10.45,10.45,0,0,0-.56,4v7.35h-2.66V566.07h2.31l.22,2.38a5.37,5.37,0,0,1,4.79-2.79c3.6,0,5.48,2.16,5.48,5.83v10.42Z"/><path d="M483.52,580.1a9,9,0,0,1-6.29,2.22,9.18,9.18,0,0,1-6.36-2.13,7.33,7.33,0,0,1-2.38-5.32h2.92a5.08,5.08,0,0,0,1.56,3.51,6.28,6.28,0,0,0,4.26,1.37,5.84,5.84,0,0,0,4.13-1.28,3.28,3.28,0,0,0,1.13-2.6c0-1.72-1.1-3.16-3.73-3.57l-3.5-.53c-3.32-.5-5.92-2.35-5.92-5.89a6.12,6.12,0,0,1,1.94-4.38,8.24,8.24,0,0,1,5.82-2.19,8.38,8.38,0,0,1,5.77,2.13A6.67,6.67,0,0,1,485,566.2h-2.91a4.65,4.65,0,0,0-1.09-2.79,5.78,5.78,0,0,0-7.86,0,3.5,3.5,0,0,0-.91,2.41c0,2,1.66,2.91,3.32,3.13,1.25.16,2.47.38,3.69.56,3.7.54,6.17,2.79,6.17,6.3A5.78,5.78,0,0,1,483.52,580.1Z"/><path d="M500,581.91v-10c0-2.38-1-3.79-3.47-3.79a3.89,3.89,0,0,0-3.45,2.45,10.45,10.45,0,0,0-.56,4v7.35h-2.66v-22.6h2.66v8.86a5.39,5.39,0,0,1,4.64-2.51c3.6,0,5.51,2.16,5.51,5.83v10.42Z"/><path d="M518.87,580.47a7.13,7.13,0,0,1-9.58,0c-1.72-1.69-2.25-4-2.25-6.48s.53-4.79,2.25-6.48a7.13,7.13,0,0,1,9.58,0c1.73,1.69,2.26,4,2.26,6.48S520.6,578.78,518.87,580.47Zm-1.94-11.39a4.16,4.16,0,0,0-5.7,0c-1.12,1.15-1.47,3.06-1.47,4.91s.35,3.76,1.47,4.92a4.16,4.16,0,0,0,5.7,0c1.13-1.16,1.48-3.07,1.48-4.92S518.06,570.23,516.93,569.08Z"/><path d="M541.39,581.91h-2.57l-4.13-12.11-4.23,12.11h-2.54l-4.07-15.84h2.63l3,12,4-11.77h2.29l4,11.77,3.07-12h2.6Z"/><path d="M556.67,568.54a4.37,4.37,0,0,0-3,1.26c-1.28,1.22-1.44,3.41-1.44,5.07v7h-2.63V566.07h2.35l.22,2.79a4.91,4.91,0,0,1,4.73-2.88,8.76,8.76,0,0,1,1.25.09v2.6A8.11,8.11,0,0,0,556.67,568.54Z"/><path d="M571.67,580.47a7.13,7.13,0,0,1-9.58,0c-1.73-1.69-2.26-4-2.26-6.48s.53-4.79,2.26-6.48a7.13,7.13,0,0,1,9.58,0c1.72,1.69,2.25,4,2.25,6.48S573.39,578.78,571.67,580.47Zm-1.94-11.39a4.16,4.16,0,0,0-5.7,0c-1.13,1.15-1.47,3.06-1.47,4.91s.34,3.76,1.47,4.92a4.16,4.16,0,0,0,5.7,0c1.12-1.16,1.47-3.07,1.47-4.92S570.85,570.23,569.73,569.08Z"/><path d="M589.14,580.47a7.13,7.13,0,0,1-9.58,0c-1.72-1.69-2.26-4-2.26-6.48s.54-4.79,2.26-6.48a7.13,7.13,0,0,1,9.58,0c1.72,1.69,2.25,4,2.25,6.48S590.86,578.78,589.14,580.47Zm-1.94-11.39a4.16,4.16,0,0,0-5.7,0c-1.13,1.15-1.47,3.06-1.47,4.91s.34,3.76,1.47,4.92a4.16,4.16,0,0,0,5.7,0c1.13-1.16,1.47-3.07,1.47-4.92S588.33,570.23,587.2,569.08Z"/><path d="M615.25,581.91V571.83c0-2.22-.72-3.76-3.22-3.76a3.2,3.2,0,0,0-2.41,1.07,6,6,0,0,0-1.35,4.35v8.42h-2.66V571.83c0-2.22-.66-3.76-3.19-3.76a3.39,3.39,0,0,0-2.7,1.41,7,7,0,0,0-1.06,4v8.42H596V566.07h2.32l.25,2.25a4.82,4.82,0,0,1,4.44-2.66,4.61,4.61,0,0,1,4.73,3,5.23,5.23,0,0,1,4.88-3c3.61,0,5.3,2.32,5.3,5.83v10.42Z"/><polygon class="cls-3" points="804.38 632.83 802.58 631.02 830.6 602.99 802.58 574.98 804.38 573.18 834.21 602.99 804.38 632.83"/><rect class="cls-3" x="775.23" y="601.73" width="57.17" height="2.55"/><path class="cls-1" d="M533.65,833.65a6.83,6.83,0,1,0,6.83,6.83A6.83,6.83,0,0,0,533.65,833.65Zm0,9.11a2.28,2.28,0,1,1,2.28-2.28A2.29,2.29,0,0,1,533.65,842.76Z"/><path class="cls-1" d="M579.2,847.31a4.56,4.56,0,0,1-4.55,4.56v4.55a9.12,9.12,0,0,0,9.11-9.11V838.2H579.2Z"/><path class="cls-1" d="M611.09,833.65h-7l7.5-7.5-3.22-3.22-10.92,10.91v4.36h13.67a2.29,2.29,0,0,1,2.28,2.28v2.28h-20.5v-20.5h-4.56v25h29.61v-6.83A6.83,6.83,0,0,0,611.09,833.65Z"/><path class="cls-1" d="M574.65,847.31v-6.83a6.84,6.84,0,0,0-6.84-6.83h-7l7.5-7.5-3.22-3.22-10.91,10.91v4.36h13.66a2.29,2.29,0,0,1,2.28,2.28v2.28h-20.5v-20.5H545v25h29.61Z"/><rect class="cls-1" x="552.73" y="819.98" width="9.66" height="4.56" transform="translate(-418.12 635.09) rotate(-45)"/><path class="cls-1" d="M510.88,833.65a6.81,6.81,0,0,0-6.44,9.11h-4.95V838.2h-4.56v9.11a4.56,4.56,0,0,1-4.55,4.56v4.55a9.12,9.12,0,0,0,9.11-9.11h11.39a6.83,6.83,0,1,0,0-13.66Zm0,9.11a2.28,2.28,0,1,1,2.27-2.28A2.28,2.28,0,0,1,510.88,842.76Z"/><rect class="cls-1" x="508.6" y="824.54" width="4.56" height="4.5"/><polygon class="cls-1" points="481.27 824.54 476.71 824.54 476.71 829.09 472.16 829.09 472.16 833.65 481.27 833.65 481.27 824.54"/><path class="cls-1" d="M490.38,835.93h-4.56v4.55a2.28,2.28,0,1,1-4.55,0V838.2h-4.56v2.34a2.22,2.22,0,0,1-2.22,2.22h-4.61V838.2h-4.56v10.25a5.69,5.69,0,1,1-11.38,0v-5.69h-4.56v5.69a10.25,10.25,0,0,0,20.5,0v-1.14h4.61a6.77,6.77,0,0,0,4.52-1.73,6.83,6.83,0,0,0,11.37-5.1Z"/></g></svg>