<svg xmlns="http://www.w3.org/2000/svg" viewBox="0 0 1080 1080"><defs><style>.cls-1{fill:#fff;}</style></defs><g id="Background"><rect class="cls-1" width="1080" height="1080"/></g><g id="Graphics"><polygon points="755.26 628.75 540 844.01 324.74 628.75 324.74 451.25 540 235.99 755.26 451.25 755.26 628.75"/><polygon class="cls-1" points="540.01 788.54 510.44 758.98 512.22 757.19 540.01 784.97 567.78 757.19 569.57 758.98 540.01 788.54"/><rect class="cls-1" x="538.74" y="730.08" width="2.53" height="56.68"/><polygon class="cls-1" points="386.17 569.54 356.6 539.99 386.17 510.41 387.96 512.2 360.18 539.99 387.96 567.75 386.17 569.54"/><rect class="cls-1" x="358.39" y="538.71" width="56.68" height="2.53"/><polygon class="cls-1" points="567.78 322.35 539.99 294.57 512.22 322.35 510.43 320.56 539.99 290.99 569.57 320.56 567.78 322.35"/><rect class="cls-1" x="538.74" y="292.78" width="2.53" height="56.68"/><polygon class="cls-1" points="693.83 569.57 692.04 567.78 719.82 539.99 692.04 512.22 693.83 510.43 723.4 539.99 693.83 569.57"/><rect class="cls-1" x="664.93" y="538.74" width="56.68" height="2.53"/><path class="cls-1" d="M460.8,577.26H447.21V555.35h3v19.32H460.8Z"/><path class="cls-1" d="M462.33,569.44a8.48,8.48,0,0,1,2.06-6,7.18,7.18,0,0,1,5.55-2.26,7.26,7.26,0,0,1,5.56,2.26,9.47,9.47,0,0,1,0,11.89,7.27,7.27,0,0,1-5.56,2.27,7.18,7.18,0,0,1-5.55-2.27A8.45,8.45,0,0,1,462.33,569.44Zm11.14,4.29a7.83,7.83,0,0,0,0-8.58,4.33,4.33,0,0,0-3.53-1.57,4.27,4.27,0,0,0-3.5,1.57,7.91,7.91,0,0,0,0,8.58,4.26,4.26,0,0,0,3.51,1.56A4.33,4.33,0,0,0,473.47,573.73Z"/><path class="cls-1" d="M494.26,574.94H495v2.32h-1.52a3.48,3.48,0,0,1-2.06-.58,2.2,2.2,0,0,1-.93-1.63,5.48,5.48,0,0,1-4.95,2.6,5.9,5.9,0,0,1-3.95-1.28,4.12,4.12,0,0,1-1.5-3.29,4.39,4.39,0,0,1,1.23-3.21,6.13,6.13,0,0,1,3.5-1.62l4.57-.78a1.06,1.06,0,0,0,1-1.13,2.65,2.65,0,0,0-.92-2.08,3.71,3.71,0,0,0-2.51-.8,4.08,4.08,0,0,0-2.52.71,3.73,3.73,0,0,0-1.28,2.2l-2.65-.31a5.4,5.4,0,0,1,2.13-3.5,7.15,7.15,0,0,1,4.43-1.33,6.23,6.23,0,0,1,4.42,1.5,5.18,5.18,0,0,1,1.62,4v7a1,1,0,0,0,1.16,1.18Zm-11.4-2.06a2.31,2.31,0,0,0,.79,1.86,3.33,3.33,0,0,0,2.22.68,4.19,4.19,0,0,0,3.26-1.43,5.34,5.34,0,0,0,1.28-3.68v-.9l-5,.87a3.28,3.28,0,0,0-1.89.87A2.39,2.39,0,0,0,482.86,572.88Z"/><path class="cls-1" d="M503.77,577.65a6.48,6.48,0,0,1-5.11-2.2,8.78,8.78,0,0,1-1.88-5.89,9.11,9.11,0,0,1,1.91-6,6.33,6.33,0,0,1,5.08-2.29,6,6,0,0,1,5.07,2.54v-8.42h2.78v21.91H508.9v-2.35A5.89,5.89,0,0,1,503.77,577.65Zm-4.15-8.21a6.68,6.68,0,0,0,1.23,4.22,4,4,0,0,0,3.31,1.57,4.24,4.24,0,0,0,3.45-1.58,7.48,7.48,0,0,0,0-8.43,4.2,4.2,0,0,0-3.43-1.6,4,4,0,0,0-3.31,1.58A6.72,6.72,0,0,0,499.62,569.44Z"/><path class="cls-1" d="M519,559.08h-2.79v-3.73H519Zm0,18.18h-2.79V561.61H519Z"/><path class="cls-1" d="M537.12,567.12v10.14h-2.78v-9.64a4.16,4.16,0,0,0-1-2.94,3.54,3.54,0,0,0-2.74-1,3.86,3.86,0,0,0-3.12,1.26,5.67,5.67,0,0,0-1.07,3.72v8.63h-2.78V561.61h2.72v2a5.51,5.51,0,0,1,4.87-2.35,5.78,5.78,0,0,1,4.3,1.58A5.88,5.88,0,0,1,537.12,567.12Z"/><path class="cls-1" d="M547.42,576.33a6.35,6.35,0,0,1-4.95-2.05,7.77,7.77,0,0,1-1.82-5.47,7.9,7.9,0,0,1,1.85-5.47,6.17,6.17,0,0,1,4.92-2.11,5.75,5.75,0,0,1,4.85,2.29v-1.91H555v14.94a6.78,6.78,0,0,1-1.85,5,7,7,0,0,1-5.14,1.83,8,8,0,0,1-4.93-1.39,5.32,5.32,0,0,1-2.1-3.86l2.78-.28a3.77,3.77,0,0,0,1.35,2.45,4.74,4.74,0,0,0,2.9.78,4,4,0,0,0,3.13-1.2,5.09,5.09,0,0,0,1.07-3.53V574A5.61,5.61,0,0,1,547.42,576.33ZM544.7,565a6.85,6.85,0,0,0,0,7.63,4,4,0,0,0,3.24,1.36,3.9,3.9,0,0,0,3.13-1.42,6.36,6.36,0,0,0,0-7.48,3.8,3.8,0,0,0-3.1-1.47A4,4,0,0,0,544.7,565Z"/><path class="cls-1" d="M581.76,557.67l-12.59,17.06h13v2.53H565.58v-2.32l12.58-17.06H566v-2.53h15.78Z"/><path class="cls-1" d="M584.06,569.44a8.48,8.48,0,0,1,2.06-6,7.18,7.18,0,0,1,5.55-2.26,7.26,7.26,0,0,1,5.56,2.26,9.47,9.47,0,0,1,0,11.89,7.27,7.27,0,0,1-5.56,2.27,7.18,7.18,0,0,1-5.55-2.27A8.45,8.45,0,0,1,584.06,569.44Zm11.14,4.29a7.83,7.83,0,0,0,0-8.58,4.33,4.33,0,0,0-3.53-1.57,4.27,4.27,0,0,0-3.5,1.57,7.91,7.91,0,0,0,0,8.58,4.26,4.26,0,0,0,3.51,1.56A4.33,4.33,0,0,0,595.2,573.73Z"/><path class="cls-1" d="M616.39,567.12v10.14H613.6v-9.64a4.16,4.16,0,0,0-1-2.94,3.55,3.55,0,0,0-2.75-1,3.85,3.85,0,0,0-3.11,1.26,5.61,5.61,0,0,0-1.07,3.72v8.63h-2.79V561.61h2.73v2a5.51,5.51,0,0,1,4.87-2.35,5.78,5.78,0,0,1,4.3,1.58A5.88,5.88,0,0,1,616.39,567.12Z"/><path class="cls-1" d="M627.41,575.38a3.68,3.68,0,0,0,4-3.16l2.57.51a5.69,5.69,0,0,1-2.21,3.59,7,7,0,0,1-4.33,1.33,7.26,7.26,0,0,1-5.62-2.13,8.62,8.62,0,0,1-2-6.08,8.44,8.44,0,0,1,2-6,7,7,0,0,1,5.49-2.26,6.46,6.46,0,0,1,5,2,7.87,7.87,0,0,1,1.83,5.5v1.35H622.64Q622.87,575.38,627.41,575.38Zm-.14-11.92a4.27,4.27,0,0,0-3.14,1.16A5.54,5.54,0,0,0,622.7,568h8.65C631.2,565,629.84,563.46,627.27,563.46Z"/><rect class="cls-1" x="606.79" y="533.86" width="5.57" height="5.57"/><polygon class="cls-1" points="606.79 514.38 606.79 522.73 592.88 522.73 592.88 497.69 587.31 497.69 587.31 528.3 612.36 528.3 612.36 514.38 606.79 514.38"/><path class="cls-1" d="M576.18,528.23a5.58,5.58,0,0,1-5.57,5.57v5.56a11.14,11.14,0,0,0,11.13-11.13V517.1h-5.56Z"/><rect class="cls-1" x="541.05" y="494.9" width="11.81" height="5.57" transform="translate(-191.72 532.5) rotate(-45)"/><path class="cls-1" d="M484.34,520a2.78,2.78,0,0,1,2.78-2.78h5.57V511.6h-5.57a8.36,8.36,0,0,0-8.35,8.35v8.35h8.35v5.56h-8.35a5.57,5.57,0,0,1-5.56-5.56v-5.57h-5.57v5.57a11.15,11.15,0,0,0,11.13,11.13h13.92v-16.7h-8.35Z"/><rect class="cls-1" x="510.77" y="533.86" width="11.13" height="5.57"/><path class="cls-1" d="M559.48,511.6h-8.59l9.16-9.16-3.93-3.94-13.34,13.33v5.34h16.7a2.77,2.77,0,0,1,2.78,2.78v2.78h-32a2.78,2.78,0,0,1-2.78-2.78v-2.78h-5.57V520a2.79,2.79,0,0,1-2.78,2.78H508v-5.54h-5.57v11.13a5.57,5.57,0,0,1-5.57,5.56v5.57A11.15,11.15,0,0,0,508,528.32v0h11.13a8.34,8.34,0,0,0,5.56-2.13,8.34,8.34,0,0,0,5.57,2.13h37.57V520A8.36,8.36,0,0,0,559.48,511.6Z"/></g></svg>