<svg xmlns="http://www.w3.org/2000/svg" xmlns:xlink="http://www.w3.org/1999/xlink" viewBox="0 0 1080 1080"><defs><style>.cls-1{fill:#4672e2;}.cls-2{fill:url(#linear-gradient);}.cls-3{fill:url(#linear-gradient-2);}.cls-4{fill:url(#linear-gradient-3);}.cls-5{fill:url(#linear-gradient-4);}.cls-6{fill:url(#linear-gradient-5);}.cls-7{fill:url(#linear-gradient-6);}.cls-8{fill:url(#linear-gradient-7);}.cls-9{fill:url(#linear-gradient-8);}.cls-10{fill:url(#linear-gradient-9);}.cls-11{fill:url(#linear-gradient-10);}.cls-12{fill:url(#linear-gradient-11);}.cls-13{fill:url(#linear-gradient-12);}.cls-14{fill:url(#linear-gradient-13);}.cls-15{fill:url(#linear-gradient-14);}</style><linearGradient id="linear-gradient" x1="-4021.93" y1="20563.4" x2="-2941.93" y2="20563.4" gradientTransform="translate(4021.93 -19634.51)" gradientUnits="userSpaceOnUse"><stop offset="0" stop-color="#fff" stop-opacity="0"/><stop offset="0.51" stop-color="#fff"/><stop offset="1" stop-color="#fff" stop-opacity="0"/></linearGradient><linearGradient id="linear-gradient-2" x1="-4021.93" y1="20528.83" x2="-2941.93" y2="20528.83" xlink:href="#linear-gradient"/><linearGradient id="linear-gradient-3" x1="-3870.34" y1="20391.68" x2="-3334.04" y2="20391.68" xlink:href="#linear-gradient"/><linearGradient id="linear-gradient-4" x1="-3870.34" y1="20357.11" x2="-3334.04" y2="20357.11" xlink:href="#linear-gradient"/><linearGradient id="linear-gradient-5" x1="-4247.35" y1="20100.69" x2="-3627.32" y2="20100.69" gradientTransform="translate(20794.13 4342.1) rotate(90)" xlink:href="#linear-gradient"/><linearGradient id="linear-gradient-6" x1="-4247.35" y1="20066.12" x2="-3627.32" y2="20066.12" gradientTransform="translate(20794.13 4342.1) rotate(90)" xlink:href="#linear-gradient"/><linearGradient id="linear-gradient-7" x1="-4247.35" y1="20205.4" x2="-3627.32" y2="20205.4" gradientTransform="translate(20794.13 4342.1) rotate(90)" xlink:href="#linear-gradient"/><linearGradient id="linear-gradient-8" x1="-4247.35" y1="20170.83" x2="-3627.32" y2="20170.83" gradientTransform="translate(20794.13 4342.1) rotate(90)" xlink:href="#linear-gradient"/><linearGradient id="linear-gradient-9" x1="-4247.35" y1="20309" x2="-3627.32" y2="20309" gradientTransform="translate(20794.13 4342.1) rotate(90)" xlink:href="#linear-gradient"/><linearGradient id="linear-gradient-10" x1="-4247.35" y1="20274.43" x2="-3627.32" y2="20274.43" gradientTransform="translate(20794.13 4342.1) rotate(90)" xlink:href="#linear-gradient"/><linearGradient id="linear-gradient-11" x1="-4021.93" y1="19820.19" x2="-2941.93" y2="19820.19" xlink:href="#linear-gradient"/><linearGradient id="linear-gradient-12" x1="-4021.93" y1="19785.62" x2="-2941.93" y2="19785.62" xlink:href="#linear-gradient"/><linearGradient id="linear-gradient-13" x1="-4021.93" y1="19915.25" x2="-2941.93" y2="19915.25" xlink:href="#linear-gradient"/><linearGradient id="linear-gradient-14" x1="-4021.93" y1="19880.68" x2="-2941.93" y2="19880.68" xlink:href="#linear-gradient"/></defs><g id="Graphics"><path class="cls-1" d="M758.83,687.46a204.61,204.61,0,0,0-4.47-20.6c-.37-1.35-.75-2.7-1.14-4a204.89,204.89,0,0,0-26.21-56V315.31a69.21,69.21,0,0,0-69.13-69.14H623.31V151.11H424.54v34.57H485V526q-7,2.5-13.88,5.5A210.23,210.23,0,0,0,409.48,573q-2.69,2.61-5.27,5.31-5.19,5.4-10,11.19c-1.59,1.93-3.15,3.88-4.68,5.87-.87,1.14-1.73,2.28-2.58,3.44a205.43,205.43,0,0,0-31.85,64c-.39,1.34-.77,2.69-1.14,4a204.61,204.61,0,0,0-4.47,20.6,210.84,210.84,0,0,0-2.75,34H234.42v17.29c0,104.83,85.28,190.12,190.12,190.12H683.8V883.35q2.12-1.7,4.19-3.45,6.21-5.25,12-11T711.11,857a208.62,208.62,0,0,0,27.32-40.27,204.84,204.84,0,0,0,12.08-28.37c1.33-3.9,2.53-7.84,3.63-11.82.54-2,1.06-4,1.54-6a208.46,208.46,0,0,0,5.81-42.89q.09-3.11.09-6.21A210.84,210.84,0,0,0,758.83,687.46Zm-101-406.72a34.6,34.6,0,0,1,34.56,34.57V567a209.9,209.9,0,0,0-55.25-35.57q-6.84-3-13.88-5.5V280.74ZM269.94,756.05h309.2c-8.62,77.67-74.67,138.27-154.6,138.27S278.56,833.72,269.94,756.05ZM685.48,833.8a174,174,0,0,1-29.19,27.1l-7.06,5.18h0v28.24H533.73a190,190,0,0,0,80.93-155.55V721.48H381.33a173.37,173.37,0,0,1,7-48.88q1-3.36,2.12-6.67t2.38-6.59q1.26-3.26,2.66-6.48c.46-1.07.94-2.14,1.43-3.2a173.68,173.68,0,0,1,72-78.44q6-3.42,12.27-6.35A169.69,169.69,0,0,1,507,555.21l6.28-1.78,6.29-1.78h0v-366h69.14v366h0l6.29,1.78,6.29,1.78a170,170,0,0,1,25.86,9.66q6.26,2.93,12.27,6.35a173.81,173.81,0,0,1,72,78.44c.48,1.06,1,2.13,1.42,3.2q1.4,3.23,2.66,6.48t2.39,6.59c.74,2.21,1.45,4.43,2.11,6.67a173.37,173.37,0,0,1,7,48.88A171.72,171.72,0,0,1,697.57,818,174.91,174.91,0,0,1,685.48,833.8Z"/><rect class="cls-2" y="928.39" width="1080" height="1"/><rect class="cls-3" y="893.82" width="1080" height="1"/><rect class="cls-4" x="151.6" y="756.67" width="536.3" height="1"/><rect class="cls-5" x="151.6" y="722.1" width="536.3" height="1"/><rect class="cls-6" x="692.95" y="94.72" width="1" height="620.03"/><rect class="cls-7" x="727.51" y="94.72" width="1" height="620.03"/><rect class="cls-8" x="588.24" y="94.72" width="1" height="620.03"/><rect class="cls-9" x="622.81" y="94.72" width="1" height="620.03"/><rect class="cls-10" x="484.64" y="94.72" width="1" height="620.03"/><rect class="cls-11" x="519.2" y="94.72" width="1" height="620.03"/><rect class="cls-12" y="185.18" width="1080" height="1"/><rect class="cls-13" y="150.61" width="1080" height="1"/><rect class="cls-14" y="280.24" width="1080" height="1"/><rect class="cls-15" y="245.67" width="1080" height="1"/></g></svg>