<svg xmlns="http://www.w3.org/2000/svg" viewBox="0 0 1080 1080"><defs><style>.cls-1{fill:#fff;}</style></defs><g id="Background"><rect width="1080" height="1080"/></g><g id="Graphics"><path class="cls-1" d="M758.83,687.46a204.61,204.61,0,0,0-4.47-20.6c-.37-1.35-.75-2.7-1.14-4a204.89,204.89,0,0,0-26.21-56V315.31a69.21,69.21,0,0,0-69.13-69.14H623.31V151.11H424.54v34.57H485V526q-7,2.5-13.88,5.5A210.23,210.23,0,0,0,409.48,573q-2.69,2.61-5.27,5.31-5.19,5.4-10,11.19c-1.59,1.93-3.15,3.88-4.68,5.87-.87,1.14-1.73,2.28-2.58,3.44a205.43,205.43,0,0,0-31.85,64c-.39,1.34-.77,2.69-1.14,4a204.61,204.61,0,0,0-4.47,20.6,210.84,210.84,0,0,0-2.75,34H234.42v17.29c0,104.83,85.28,190.12,190.12,190.12H683.8V883.35q2.12-1.7,4.19-3.45,6.21-5.25,12-11T711.11,857a208.62,208.62,0,0,0,27.32-40.27,204.84,204.84,0,0,0,12.08-28.37c1.33-3.9,2.53-7.84,3.63-11.82.54-2,1.06-4,1.54-6a208.46,208.46,0,0,0,5.81-42.89q.09-3.11.09-6.21A210.84,210.84,0,0,0,758.83,687.46Zm-101-406.72a34.6,34.6,0,0,1,34.56,34.57V567a209.9,209.9,0,0,0-55.25-35.57q-6.84-3-13.88-5.5V280.74ZM269.94,756.05h309.2c-8.62,77.67-74.67,138.27-154.6,138.27S278.56,833.72,269.94,756.05ZM685.48,833.8a174,174,0,0,1-29.19,27.1l-7.06,5.18h0v28.24H533.73a190,190,0,0,0,80.93-155.55V721.48H381.33a173.37,173.37,0,0,1,7-48.88q1-3.36,2.12-6.67t2.38-6.59q1.26-3.26,2.66-6.48c.46-1.07.94-2.14,1.43-3.2a173.68,173.68,0,0,1,72-78.44q6-3.42,12.27-6.35A169.69,169.69,0,0,1,507,555.21l6.28-1.78,6.29-1.78h0v-366h69.14v366h0l6.29,1.78,6.29,1.78a170,170,0,0,1,25.86,9.66q6.26,2.93,12.27,6.35a173.81,173.81,0,0,1,72,78.44c.48,1.06,1,2.13,1.42,3.2q1.4,3.23,2.66,6.48t2.39,6.59c.74,2.21,1.45,4.43,2.11,6.67a173.37,173.37,0,0,1,7,48.88A171.72,171.72,0,0,1,697.57,818,174.91,174.91,0,0,1,685.48,833.8Z"/></g></svg>