<svg xmlns="http://www.w3.org/2000/svg" viewBox="0 0 1080 1080"><defs><style>.cls-1{fill:#082b96;}.cls-2{fill:#b4b5b8;}.cls-3{fill:#fff;}.cls-4{fill:#1d1d1b;}</style></defs><g id="Background"><rect class="cls-1" width="1080" height="1080"/></g><g id="Graphics"><path d="M720.64,417c0-185.15-125.48-341-296-387.11-170.55,46.13-296,202-296,387.11v606.79H720.64Z"/><polygon class="cls-2" points="1011.42 605.86 842.11 436.55 842.11 436.49 128.58 436.49 128.58 775.22 842.11 775.22 842.11 775.16 1011.42 605.86"/><path d="M503.47,520.82a5.71,5.71,0,0,1-5.71,5.71v5.71a11.44,11.44,0,0,0,11.43-11.42V509.39h-5.72Z"/><rect x="503.47" y="497.96" width="5.71" height="5.71"/><path d="M489.19,515.1H477.76a2.86,2.86,0,0,1-2.85-2.85v-2.86h-5.72v2.86a2.86,2.86,0,0,1-2.85,2.85h-8.57a2.86,2.86,0,0,1-2.86-2.85v-2.86H449.2v2.86a2.86,2.86,0,0,1-2.86,2.85H434.91v5.72h11.43a8.52,8.52,0,0,0,5.71-2.19,8.54,8.54,0,0,0,5.72,2.19h8.57a8.54,8.54,0,0,0,5.71-2.19,8.54,8.54,0,0,0,5.71,2.19H494.9V506.53h-5.71Z"/><rect x="474.91" y="526.53" width="11.43" height="5.71"/><rect x="456.34" y="526.53" width="11.43" height="5.71"/><rect x="436.34" y="526.53" width="11.43" height="5.71"/><rect x="417.77" y="515.1" width="5.71" height="5.71"/><path d="M429.19,520.82a8.57,8.57,0,1,1-17.13,0V515.1h-5.71v5.72a14.28,14.28,0,1,0,28.55,0V509.39h-5.71Z"/><path d="M573.47,520.82a5.72,5.72,0,0,1-5.72,5.71v5.71a11.44,11.44,0,0,0,11.43-11.42V509.39h-5.71Z"/><polygon points="656.31 489.39 650.6 489.39 650.6 495.11 644.88 495.11 644.88 500.82 656.31 500.82 656.31 489.39"/><path d="M662,506.53v5.72a2.86,2.86,0,0,1-5.71,0v-2.86H650.6v2.86a2.86,2.86,0,0,1-2.86,2.85H642v-5.71h-5.72v5.71H604.89a2.85,2.85,0,0,1-2.86-2.85h0a8.6,8.6,0,1,0-5.71,8.08v.5a5.71,5.71,0,0,1-5.71,5.71h-2.86v5.71h2.86A11.43,11.43,0,0,0,602,520.82v-.5a8.6,8.6,0,0,0,2.86.5h42.85a8.51,8.51,0,0,0,5.71-2.2,8.56,8.56,0,0,0,14.29-6.37v-5.72Zm-68.56,8.57a2.86,2.86,0,0,1-2.22-1.05,2.89,2.89,0,0,1-.57-2.45,2.85,2.85,0,0,1,2.15-2.14,3,3,0,0,1,.64-.07,2.86,2.86,0,0,1,2.86,2.86h0A2.85,2.85,0,0,1,593.46,515.1Z"/><path d="M556.32,503.68a8.57,8.57,0,0,0,0,17.14,8.43,8.43,0,0,0,2.86-.5v.5a5.71,5.71,0,0,1-5.71,5.71h-2.86v5.71h2.86a11.43,11.43,0,0,0,11.42-11.42v-8.57A8.57,8.57,0,0,0,556.32,503.68Zm0,11.42a2.86,2.86,0,1,1,2.86-2.85A2.86,2.86,0,0,1,556.32,515.1Z"/><path d="M534.9,503.68a8.56,8.56,0,0,0-7.62,12.48,11.42,11.42,0,0,0-6.66,10.37v8.57h5.72v-8.57a5.71,5.71,0,0,1,5.71-5.71h2.86a8.57,8.57,0,1,0,0-17.14Zm0,11.42a2.86,2.86,0,1,1,2.86-2.85A2.86,2.86,0,0,1,534.9,515.1Z"/><path d="M313.67,722.32V709.47H300.32v12.85h-3.5V694.47h3.5V706.1h13.35V694.47h3.5v27.85Z"/><path d="M340.73,713.48H326.67a7.32,7.32,0,0,0,1.93,5,5.66,5.66,0,0,0,7.34.12,4.25,4.25,0,0,0,1.18-2.16h3.26a7.33,7.33,0,0,1-3.07,4.9,9.08,9.08,0,0,1-5.06,1.5,8.46,8.46,0,0,1-6.6-3,11.23,11.23,0,0,1-2.47-7.38,12.09,12.09,0,0,1,1.53-6.36,8.49,8.49,0,0,1,7.5-4.17,8,8,0,0,1,6.05,2.56,10.22,10.22,0,0,1,2.51,7Zm-4.59-6.91a4.72,4.72,0,0,0-3.93-1.81c-3.61,0-5.38,3-5.46,5.85h10.6A7,7,0,0,0,336.14,706.57Z"/><path d="M346.15,697.89V694H350v3.93Zm.24,24.43V702.44h3.41v19.88Z"/><path d="M370.23,722.32l-.24-2.6a7,7,0,0,1-5.93,3.11,7.61,7.61,0,0,1-5.62-2.16,11.8,11.8,0,0,1-2.86-8.25c0-3.42,1-6.56,3-8.48a7.78,7.78,0,0,1,5.46-2c2.16,0,4.71,1,5.77,2.83V694h3.34v28.36Zm-2.4-16.26a4.57,4.57,0,0,0-3.22-1.3c-4.44,0-5.62,4-5.62,7.62s1.18,7.62,5.62,7.62a4.57,4.57,0,0,0,3.22-1.3c1.65-1.45,2.2-3.85,2.2-6.32S369.48,707.51,367.83,706.06Z"/><path d="M394.93,722.59a2.82,2.82,0,0,1-2.87-3H392a7.24,7.24,0,0,1-6.4,3.26c-4.55,0-6.83-3.07-6.83-6.13,0-2.55,1.65-5.89,7.07-6.21l6.05-.35v-1.45a4,4,0,0,0-1-3,4.48,4.48,0,0,0-3.26-1,4.93,4.93,0,0,0-3.62,1.18,3.25,3.25,0,0,0-1,2.4h-3.26a5.91,5.91,0,0,1,1.73-4.17c1.33-1.41,3.69-2.12,6.13-2.12,3.84,0,6,1.65,7,3.81a7.71,7.71,0,0,1,.59,3.07v9.62c0,1.06.43,1.33,1.1,1.33a5.14,5.14,0,0,0,.86-.11v2.47A4.69,4.69,0,0,1,394.93,722.59Zm-3.06-9.86-5.34.32c-2,.12-4.36,1.06-4.36,3.57,0,1.77,1.1,3.42,3.92,3.42a5.61,5.61,0,0,0,4.09-1.61,6.42,6.42,0,0,0,1.69-4.52Z"/><path d="M411.31,705.55a5.43,5.43,0,0,0-3.77,1.57c-1.61,1.53-1.81,4.28-1.81,6.36v8.84h-3.3V702.44h2.95l.27,3.5a6.16,6.16,0,0,1,5.93-3.62,10.38,10.38,0,0,1,1.57.12v3.26A9.52,9.52,0,0,0,411.31,705.55Z"/><path d="M417.28,697.89V694h3.89v3.93Zm.23,24.43V702.44h3.42v19.88Z"/><path d="M442.69,722.59a2.82,2.82,0,0,1-2.87-3h-.08a7.25,7.25,0,0,1-6.4,3.26c-4.56,0-6.83-3.07-6.83-6.13,0-2.55,1.65-5.89,7.07-6.21l6-.35v-1.45a3.91,3.91,0,0,0-1-3,4.48,4.48,0,0,0-3.26-1,4.92,4.92,0,0,0-3.61,1.18,3.25,3.25,0,0,0-1,2.4h-3.26a5.86,5.86,0,0,1,1.73-4.17c1.33-1.41,3.69-2.12,6.12-2.12,3.85,0,6.05,1.65,7,3.81a7.54,7.54,0,0,1,.59,3.07v9.62c0,1.06.44,1.33,1.1,1.33a5.16,5.16,0,0,0,.87-.11v2.47A4.69,4.69,0,0,1,442.69,722.59Zm-3.07-9.86-5.34.32c-2,.12-4.36,1.06-4.36,3.57,0,1.77,1.1,3.42,3.93,3.42a5.59,5.59,0,0,0,4.08-1.61,6.42,6.42,0,0,0,1.69-4.52Z"/><path d="M462.91,722.32V709.71c0-3-1.21-4.75-4.36-4.75a4.87,4.87,0,0,0-4.32,3.06,13.23,13.23,0,0,0-.7,5.07v9.23h-3.34V702.44h2.91l.27,3c1-2.28,3.77-3.5,6-3.5,4.52,0,6.87,2.71,6.87,7.31v13.08Z"/><path d="M499.17,720a12.9,12.9,0,0,1-15.87.12,9.23,9.23,0,0,1-3-6.68H484a6.36,6.36,0,0,0,2,4.4,7.88,7.88,0,0,0,5.34,1.73,7.4,7.4,0,0,0,5.19-1.61,4.13,4.13,0,0,0,1.41-3.26c0-2.16-1.38-4-4.67-4.48-1.54-.24-2.91-.43-4.4-.67-4.17-.63-7.43-2.94-7.43-7.38a7.69,7.69,0,0,1,2.44-5.5,10.32,10.32,0,0,1,7.3-2.75,10.47,10.47,0,0,1,7.23,2.67,8.36,8.36,0,0,1,2.67,6h-3.65a5.84,5.84,0,0,0-1.38-3.5,7.29,7.29,0,0,0-9.86,0,4.47,4.47,0,0,0-1.13,3c0,2.51,2.08,3.65,4.16,3.93,1.57.19,3.1.47,4.63.7,4.64.67,7.74,3.5,7.74,7.9A7.29,7.29,0,0,1,499.17,720Z"/><path d="M519.86,722.32V709.71c0-3-1.22-4.75-4.36-4.75a4.87,4.87,0,0,0-4.32,3.06,13,13,0,0,0-.7,5.07v9.23h-3.34V694h3.34v11.11a6.74,6.74,0,0,1,5.81-3.14c4.51,0,6.91,2.71,6.91,7.31v13.08Z"/><path d="M543.5,720.51a8.93,8.93,0,0,1-12,0c-2.16-2.12-2.83-5-2.83-8.13s.67-6,2.83-8.13a8.93,8.93,0,0,1,12,0c2.17,2.12,2.83,5,2.83,8.13S545.67,718.39,543.5,720.51Zm-2.43-14.3a5.24,5.24,0,0,0-7.15,0c-1.41,1.46-1.84,3.85-1.84,6.17s.43,4.71,1.84,6.17a5.24,5.24,0,0,0,7.15,0c1.41-1.46,1.85-3.85,1.85-6.17S542.48,707.67,541.07,706.21Z"/><path d="M571.75,722.32h-3.23l-5.18-15.2-5.3,15.2h-3.18l-5.11-19.88h3.3l3.81,15,5.07-14.77h2.86l5,14.77,3.85-15h3.26Z"/><path d="M590.91,705.55a5.43,5.43,0,0,0-3.77,1.57c-1.61,1.53-1.81,4.28-1.81,6.36v8.84H582V702.44h3l.27,3.5a6.18,6.18,0,0,1,5.94-3.62,10.38,10.38,0,0,1,1.57.12v3.26A9.62,9.62,0,0,0,590.91,705.55Z"/><path d="M609.72,720.51a8.93,8.93,0,0,1-12,0c-2.16-2.12-2.83-5-2.83-8.13s.67-6,2.83-8.13a8.93,8.93,0,0,1,12,0c2.16,2.12,2.83,5,2.83,8.13S611.88,718.39,609.72,720.51Zm-2.43-14.3a5.24,5.24,0,0,0-7.15,0c-1.41,1.46-1.85,3.85-1.85,6.17s.44,4.71,1.85,6.17a5.24,5.24,0,0,0,7.15,0c1.41-1.46,1.84-3.85,1.84-6.17S608.7,707.67,607.29,706.21Z"/><path d="M631.64,720.51a8.94,8.94,0,0,1-12,0c-2.16-2.12-2.83-5-2.83-8.13s.67-6,2.83-8.13a8.94,8.94,0,0,1,12,0c2.16,2.12,2.83,5,2.83,8.13S633.8,718.39,631.64,720.51Zm-2.44-14.3a5.22,5.22,0,0,0-7.14,0c-1.42,1.46-1.85,3.85-1.85,6.17s.43,4.71,1.85,6.17a5.22,5.22,0,0,0,7.14,0c1.42-1.46,1.85-3.85,1.85-6.17S630.62,707.67,629.2,706.21Z"/><path d="M664.4,722.32V709.67c0-2.79-.91-4.71-4-4.71a4,4,0,0,0-3,1.33c-1.34,1.38-1.69,3.38-1.69,5.46v10.57H652.3V709.67c0-2.79-.83-4.71-4-4.71a4.23,4.23,0,0,0-3.38,1.76,8.81,8.81,0,0,0-1.33,5v10.57h-3.34V702.44h2.91l.31,2.83a6,6,0,0,1,5.58-3.34c2.94,0,5.07,1.34,5.93,3.77a6.56,6.56,0,0,1,6.13-3.77c4.51,0,6.63,2.91,6.63,7.31v13.08Z"/><path d="M503.47,656.59a10,10,0,0,0-10-10h-7.14v5.71h7.14a4.3,4.3,0,0,1,4.29,4.29V658h-20a2.86,2.86,0,0,1-2.85-2.86V652.3h-5.72v2.86a2.86,2.86,0,0,1-2.85,2.86h-8.6v-2.86a8.57,8.57,0,0,0-8.57-8.57h-5.71v5.71h5.71a2.86,2.86,0,0,1,2.86,2.86V658h-8.57v5.71h22.88a8.55,8.55,0,0,0,5.71-2.2,8.55,8.55,0,0,0,5.71,2.2h31.43V658h-5.72Z"/><path d="M432,663.73a5.71,5.71,0,0,1-5.71,5.71v5.72a11.45,11.45,0,0,0,11.43-11.43V652.3H432Z"/><rect x="457.77" y="669.44" width="11.43" height="5.71"/><polygon points="417.76 658.02 406.34 658.02 406.34 632.31 400.63 632.31 400.63 658.02 400.62 658.02 400.62 663.73 423.47 663.73 423.47 649.45 417.76 649.45 417.76 658.02"/><rect x="406.33" y="669.44" width="11.43" height="5.71"/><rect x="377.79" y="658.02" width="5.71" height="5.71"/><path d="M389.2,663.74a8.57,8.57,0,0,1-17.13,0V658h-5.71v5.72a14.28,14.28,0,0,0,28.56,0V652.3H389.2Z"/><path d="M573.47,663.73a5.72,5.72,0,0,1-5.72,5.71v5.72a11.45,11.45,0,0,0,11.43-11.43V652.3h-5.71Z"/><polygon points="656.31 632.3 650.6 632.3 650.6 638.02 644.88 638.02 644.88 643.73 656.31 643.73 656.31 632.3"/><path d="M662,649.45v5.71a2.86,2.86,0,1,1-5.71,0V652.3H650.6v2.86a2.87,2.87,0,0,1-2.86,2.86H642V652.3h-5.72V658H604.89a2.87,2.87,0,0,1-2.86-2.86h0a8.6,8.6,0,1,0-5.71,8.07v.5a5.71,5.71,0,0,1-5.71,5.71h-2.86v5.72h2.86A11.44,11.44,0,0,0,602,663.73v-.49a8.59,8.59,0,0,0,2.86.49h42.85a8.51,8.51,0,0,0,5.71-2.2,8.56,8.56,0,0,0,14.29-6.37v-5.71ZM593.46,658a2.86,2.86,0,0,1-.64-5.65,3,3,0,0,1,.64-.07,2.84,2.84,0,0,1,1.8.64,2.87,2.87,0,0,1,1.06,2.22h0A2.86,2.86,0,0,1,593.46,658Z"/><path d="M556.32,646.59a8.57,8.57,0,1,0,0,17.14,8.43,8.43,0,0,0,2.86-.5v.5a5.71,5.71,0,0,1-5.71,5.71h-2.86v5.72h2.86a11.44,11.44,0,0,0,11.42-11.43v-8.57A8.57,8.57,0,0,0,556.32,646.59Zm0,11.43a2.86,2.86,0,1,1,2.86-2.86A2.86,2.86,0,0,1,556.32,658Z"/><path d="M534.9,646.59a8.56,8.56,0,0,0-7.62,12.48,11.43,11.43,0,0,0-6.67,10.37V678h5.72v-8.57a5.71,5.71,0,0,1,5.71-5.71h2.86a8.57,8.57,0,1,0,0-17.14Zm0,11.43a2.86,2.86,0,1,1,2.86-2.86A2.87,2.87,0,0,1,534.9,658Z"/><path class="cls-3" d="M431.05,970.88l-5.27-11.59h-7.7v11.59h-3.49V943h10.92c3.26,0,5.54.91,7.07,2.48a7.89,7.89,0,0,1,2.2,5.65,7.46,7.46,0,0,1-2.12,5.5,8,8,0,0,1-3.34,2l5.57,12.25Zm-5.54-24.62h-7.43V956h7.43c3.3,0,5.65-1.33,5.65-4.87S428.81,946.26,425.51,946.26Z"/><path class="cls-3" d="M452.76,970.88l-.27-3a6.45,6.45,0,0,1-5.89,3.49c-4.52,0-6.8-2.71-6.8-7.3V951h3.34v12.57c0,3,1.1,4.75,4.24,4.75a4.48,4.48,0,0,0,3.3-1.49c1.26-1.3,1.65-3.46,1.65-5.5V951h3.34v19.87Z"/><path class="cls-3" d="M478.25,977.83c-1.92,1.89-5.22,2.32-8,2.32-2.63,0-5.62-.39-7.54-2.32a4.8,4.8,0,0,1-1.41-3.53,4.89,4.89,0,0,1,2.82-4.4,3.6,3.6,0,0,1-2.31-3.34,4.31,4.31,0,0,1,2.63-3.85,7,7,0,0,1-2.28-5.14,6.54,6.54,0,0,1,1.89-4.83,7.73,7.73,0,0,1,5.89-2.24,8.36,8.36,0,0,1,4.55,1.18,4.2,4.2,0,0,1,4.09-2.79,8.09,8.09,0,0,1,1,.08v2.71a4.24,4.24,0,0,0-.75,0,2.26,2.26,0,0,0-2.43,1.8,6.43,6.43,0,0,1,1.29,4.13,7,7,0,0,1-1.8,4.75,7.82,7.82,0,0,1-5.93,2.36,8.78,8.78,0,0,1-3.34-.55,2.22,2.22,0,0,0-1.69,1.76c-.12,1.73,1.73,1.93,3,2s3.93,0,3.93,0c2.36,0,5,.47,6.56,2.08a5.36,5.36,0,0,1,1.57,3.89A5.52,5.52,0,0,1,478.25,977.83Zm-7.81-7.14h-3.62a3.44,3.44,0,0,0-2.51,3.14,2.81,2.81,0,0,0,.82,2.08c1.3,1.29,3.58,1.37,5.31,1.37s4.16-.15,5.42-1.41a2.78,2.78,0,0,0,.82-2C476.68,970.45,473,970.69,470.44,970.69Zm-.55-17.48a4.4,4.4,0,1,0,0,8.79,4.3,4.3,0,0,0,4.51-4.43A4.18,4.18,0,0,0,469.89,953.21Z"/><path class="cls-3" d="M516.62,970.88h-3.73l-6.36-22.43-6.44,22.43H496.4L490.82,943h3.26l4.44,22.71L505,943.43h3.14l6.44,22.27L519,943h3.18Z"/><path class="cls-3" d="M539.8,969.07a8.94,8.94,0,0,1-12,0c-2.16-2.12-2.83-5-2.83-8.13s.67-6,2.83-8.13a9,9,0,0,1,12,0c2.16,2.13,2.82,5,2.82,8.13S542,967,539.8,969.07Zm-2.44-14.29a5.21,5.21,0,0,0-7.15,0c-1.41,1.45-1.84,3.85-1.84,6.16s.43,4.72,1.84,6.17a5.24,5.24,0,0,0,7.15,0c1.42-1.45,1.85-3.85,1.85-6.17S538.78,956.23,537.36,954.78Z"/><path class="cls-3" d="M557.27,954.11a5.49,5.49,0,0,0-3.77,1.57c-1.61,1.53-1.8,4.28-1.8,6.36v8.84h-3.3V951h2.94l.28,3.49a6.17,6.17,0,0,1,5.93-3.61,10.38,10.38,0,0,1,1.57.12v3.26A9.64,9.64,0,0,0,557.27,954.11Z"/><path class="cls-3" d="M576.83,970.88l-6.2-9.58-3.81,4.24v5.34h-3.34V942.52h3.34V961l9-10h4.05l-7.07,7.85,7.81,12Z"/><path class="cls-3" d="M597.85,969.15a10.45,10.45,0,0,1-12.93,0A6.44,6.44,0,0,1,583,964.6h3.34a3.86,3.86,0,0,0,1.61,3.1,6.26,6.26,0,0,0,3.57.9,5.34,5.34,0,0,0,3.65-1.1,2.81,2.81,0,0,0,1-2.16c0-1.49-1.06-2.55-3.11-2.82l-4.47-.59c-3-.47-4.87-2.32-4.87-5.35a5.66,5.66,0,0,1,1.65-3.88,8.05,8.05,0,0,1,5.85-2.2c2.63,0,5,.82,6.32,2.51a5.65,5.65,0,0,1,1.42,3.81h-3.34a3.58,3.58,0,0,0-1.14-2.47,4.66,4.66,0,0,0-3.26-1.06,5.17,5.17,0,0,0-2.32.39,3,3,0,0,0-2,2.67c0,1.65,1,2.36,2.67,2.59,1.1.16,2.67.32,4.79.67,2.83.47,5.07,2.51,5.07,5.5A5.65,5.65,0,0,1,597.85,969.15Z"/><path class="cls-3" d="M617.88,970.88V958.27c0-3-1.22-4.75-4.36-4.75a4.86,4.86,0,0,0-4.32,3.06,13.1,13.1,0,0,0-.71,5.07v9.23h-3.34V942.52h3.34v11.12a6.76,6.76,0,0,1,5.81-3.14c4.52,0,6.91,2.71,6.91,7.3v13.08Z"/><path class="cls-3" d="M641.52,969.07a8.94,8.94,0,0,1-12,0c-2.16-2.12-2.83-5-2.83-8.13s.67-6,2.83-8.13a9,9,0,0,1,12,0c2.16,2.13,2.83,5,2.83,8.13S643.68,967,641.52,969.07Zm-2.44-14.29a5.2,5.2,0,0,0-7.14,0c-1.42,1.45-1.85,3.85-1.85,6.16s.43,4.72,1.85,6.17a5.22,5.22,0,0,0,7.14,0c1.42-1.45,1.85-3.85,1.85-6.17S640.5,956.23,639.08,954.78Z"/><path class="cls-3" d="M664.69,969.43a7.78,7.78,0,0,1-5.46,2c-2.16,0-4.71-1-5.77-2.83v10.8h-3.34V951.05h3l.23,2.59a7,7,0,0,1,5.93-3.1,7.56,7.56,0,0,1,5.62,2.16,11.78,11.78,0,0,1,2.86,8.24C667.71,964.36,666.69,967.5,664.69,969.43Zm-6-16.07a4.59,4.59,0,0,0-3.22,1.3c-1.65,1.45-2.2,3.85-2.2,6.32s.55,4.87,2.2,6.33a4.62,4.62,0,0,0,3.22,1.29c4.44,0,5.62-4,5.62-7.62S663.12,953.36,658.68,953.36Z"/><polygon class="cls-3" points="231.13 970.95 231.11 921.23 181.42 921.24 181.42 918.04 234.31 918.03 234.32 970.94 231.13 970.95"/><rect class="cls-3" x="171.52" y="943.4" width="71.71" height="3.2" transform="translate(-607.42 423.33) rotate(-44.99)"/><path d="M360.05,579.4v-3.49l16.22-21.09H360.21v-3.26h20.23v3.53l-16.26,21h16.41v3.26Z"/><path d="M401.25,570.57H387.19a7.29,7.29,0,0,0,1.93,5,5.63,5.63,0,0,0,7.34.12,4.18,4.18,0,0,0,1.18-2.16h3.26a7.32,7.32,0,0,1-3.06,4.91,9.19,9.19,0,0,1-5.07,1.49,8.46,8.46,0,0,1-6.6-3,11.27,11.27,0,0,1-2.47-7.39,12.14,12.14,0,0,1,1.53-6.36,8.51,8.51,0,0,1,7.5-4.16,8,8,0,0,1,6,2.55,10.24,10.24,0,0,1,2.51,7Zm-4.59-6.92a4.72,4.72,0,0,0-3.93-1.8c-3.61,0-5.38,2.94-5.46,5.85h10.61A7,7,0,0,0,396.66,563.65Z"/><path d="M422.89,570.57H408.83a7.29,7.29,0,0,0,1.93,5,5.63,5.63,0,0,0,7.34.12,4.18,4.18,0,0,0,1.18-2.16h3.26a7.28,7.28,0,0,1-3.06,4.91,9.19,9.19,0,0,1-5.07,1.49,8.46,8.46,0,0,1-6.6-3,11.27,11.27,0,0,1-2.47-7.39,12.14,12.14,0,0,1,1.53-6.36,8.52,8.52,0,0,1,7.5-4.16,8,8,0,0,1,6.05,2.55,10.24,10.24,0,0,1,2.51,7Zm-4.59-6.92a4.72,4.72,0,0,0-3.93-1.8c-3.61,0-5.38,2.94-5.46,5.85h10.61A7,7,0,0,0,418.3,563.65Z"/><path d="M444.53,570.57H430.47a7.29,7.29,0,0,0,1.93,5,5.63,5.63,0,0,0,7.34.12,4.18,4.18,0,0,0,1.18-2.16h3.26a7.28,7.28,0,0,1-3.06,4.91,9.19,9.19,0,0,1-5.07,1.49,8.46,8.46,0,0,1-6.6-3,11.27,11.27,0,0,1-2.47-7.39,12.14,12.14,0,0,1,1.53-6.36A8.52,8.52,0,0,1,436,559a8,8,0,0,1,6.05,2.55,10.24,10.24,0,0,1,2.51,7Zm-4.59-6.92a4.72,4.72,0,0,0-3.93-1.8c-3.61,0-5.38,2.94-5.46,5.85h10.61A7,7,0,0,0,439.94,563.65Z"/><path d="M462.92,579.4V566.8c0-3-1.22-4.76-4.36-4.76a4.86,4.86,0,0,0-4.32,3.07,13,13,0,0,0-.71,5.06v9.23h-3.34V559.53h2.91l.27,3c1-2.27,3.77-3.49,6-3.49,4.52,0,6.87,2.71,6.87,7.3V579.4Z"/><path d="M499.17,577.12a12.9,12.9,0,0,1-15.87.12,9.21,9.21,0,0,1-3-6.67H484a6.31,6.31,0,0,0,2,4.39,7.88,7.88,0,0,0,5.34,1.73,7.35,7.35,0,0,0,5.19-1.61,4.1,4.1,0,0,0,1.41-3.26c0-2.16-1.37-4-4.67-4.47l-4.4-.67c-4.17-.63-7.43-2.95-7.43-7.39a7.71,7.71,0,0,1,2.44-5.5,11.11,11.11,0,0,1,14.53-.07,8.36,8.36,0,0,1,2.67,6h-3.65a5.79,5.79,0,0,0-1.38-3.5,7.28,7.28,0,0,0-9.85,0,4.43,4.43,0,0,0-1.14,3c0,2.51,2.08,3.65,4.16,3.92,1.57.2,3.1.47,4.64.71,4.63.67,7.73,3.5,7.73,7.89A7.25,7.25,0,0,1,499.17,577.12Z"/><path d="M519.86,579.4V566.8c0-3-1.21-4.76-4.36-4.76a4.88,4.88,0,0,0-4.32,3.07,13.21,13.21,0,0,0-.7,5.06v9.23h-3.34V551.05h3.34v11.11a6.76,6.76,0,0,1,5.81-3.14c4.52,0,6.91,2.71,6.91,7.3V579.4Z"/><path d="M543.51,577.6a9,9,0,0,1-12,0c-2.16-2.12-2.83-5-2.83-8.13s.67-6,2.83-8.13a8.94,8.94,0,0,1,12,0c2.16,2.12,2.82,5,2.82,8.13S545.67,575.48,543.51,577.6Zm-2.44-14.3a5.24,5.24,0,0,0-7.15,0c-1.41,1.45-1.84,3.85-1.84,6.17s.43,4.71,1.84,6.16a5.21,5.21,0,0,0,7.15,0c1.42-1.45,1.85-3.85,1.85-6.16S542.49,564.75,541.07,563.3Z"/><path d="M571.75,579.4h-3.22l-5.19-15.2L558,579.4h-3.18l-5.11-19.87h3.3l3.81,15,5.07-14.76h2.86l5,14.76,3.85-15h3.26Z"/><path d="M590.91,562.63a5.47,5.47,0,0,0-3.77,1.57c-1.61,1.53-1.81,4.28-1.81,6.37v8.83H582V559.53H585l.28,3.49a6.16,6.16,0,0,1,5.93-3.61,10.38,10.38,0,0,1,1.57.12v3.26A9.64,9.64,0,0,0,590.91,562.63Z"/><path d="M609.72,577.6a9,9,0,0,1-12,0c-2.16-2.12-2.83-5-2.83-8.13s.67-6,2.83-8.13a8.93,8.93,0,0,1,12,0c2.16,2.12,2.83,5,2.83,8.13S611.88,575.48,609.72,577.6Zm-2.43-14.3a5.24,5.24,0,0,0-7.15,0c-1.41,1.45-1.85,3.85-1.85,6.17s.44,4.71,1.85,6.16a5.21,5.21,0,0,0,7.15,0c1.41-1.45,1.84-3.85,1.84-6.16S608.7,564.75,607.29,563.3Z"/><path d="M631.64,577.6a9,9,0,0,1-12,0c-2.16-2.12-2.83-5-2.83-8.13s.67-6,2.83-8.13a8.94,8.94,0,0,1,12,0c2.16,2.12,2.83,5,2.83,8.13S633.8,575.48,631.64,577.6Zm-2.43-14.3a5.24,5.24,0,0,0-7.15,0c-1.42,1.45-1.85,3.85-1.85,6.17s.43,4.71,1.85,6.16a5.21,5.21,0,0,0,7.15,0c1.41-1.45,1.84-3.85,1.84-6.16S630.62,564.75,629.21,563.3Z"/><path d="M664.4,579.4V566.76c0-2.79-.91-4.72-4-4.72a4,4,0,0,0-3,1.34c-1.34,1.37-1.69,3.38-1.69,5.46V579.4H652.3V566.76c0-2.79-.83-4.72-4-4.72a4.24,4.24,0,0,0-3.38,1.77,8.81,8.81,0,0,0-1.33,5V579.4h-3.34V559.53h2.91l.31,2.83A6,6,0,0,1,649,559c2.94,0,5.07,1.33,5.93,3.77A6.54,6.54,0,0,1,661.1,559c4.51,0,6.63,2.91,6.63,7.3V579.4Z"/><polygon class="cls-4" points="901.62 643.26 899.35 641 934.5 605.84 899.36 570.71 901.62 568.45 939.02 605.84 901.62 643.26"/><rect class="cls-4" x="865.05" y="604.26" width="71.71" height="3.2"/><path class="cls-3" d="M562,895.15a8.57,8.57,0,1,0,8.57,8.57A8.57,8.57,0,0,0,562,895.15Zm0,11.43a2.86,2.86,0,1,1,2.86-2.86A2.86,2.86,0,0,1,562,906.58Z"/><path class="cls-3" d="M619.17,912.29a5.71,5.71,0,0,1-5.71,5.71v5.72a11.45,11.45,0,0,0,11.43-11.43V900.86h-5.72Z"/><path class="cls-3" d="M659.17,895.15h-8.82l9.41-9.41-4-4L642,895.4v5.46h17.14a2.86,2.86,0,0,1,2.85,2.86v2.86H636.31V880.87H630.6v31.42h37.14v-8.57A8.58,8.58,0,0,0,659.17,895.15Z"/><path class="cls-3" d="M613.46,912.29v-8.57a8.58,8.58,0,0,0-8.57-8.57h-8.82l9.41-9.41-4-4-13.69,13.69v5.47h17.14a2.87,2.87,0,0,1,2.86,2.86v2.86H582V880.87h-5.72v31.42h37.14Z"/><rect class="cls-3" x="585.97" y="878.01" width="12.12" height="5.71" transform="translate(-449.47 676.63) rotate(-45)"/><path class="cls-3" d="M533.47,895.15a8.55,8.55,0,0,0-8.07,11.43h-6.21v-5.72h-5.72v11.43a5.71,5.71,0,0,1-5.71,5.71v5.72a11.45,11.45,0,0,0,11.43-11.43h14.28a8.57,8.57,0,0,0,0-17.14Zm0,11.43a2.86,2.86,0,1,1,2.86-2.86A2.87,2.87,0,0,1,533.47,906.58Z"/><rect class="cls-3" x="530.61" y="883.72" width="5.71" height="5.64"/><polygon class="cls-3" points="496.33 883.72 490.62 883.72 490.62 889.44 484.91 889.44 484.91 895.15 496.33 895.15 496.33 883.72"/><path class="cls-3" d="M507.76,898h-5.71v5.71a2.86,2.86,0,0,1-5.72,0v-2.86h-5.71v2.94a2.79,2.79,0,0,1-2.78,2.78h-5.79v-5.72h-5.71v12.86a7.15,7.15,0,0,1-14.29,0v-7.14h-5.71v7.14a12.86,12.86,0,0,0,25.71,0v-1.43h5.79a8.47,8.47,0,0,0,5.66-2.18,8.55,8.55,0,0,0,14.26-6.39Z"/></g></svg>