<svg xmlns="http://www.w3.org/2000/svg" viewBox="0 0 1080 1080"><defs><style>.cls-1{fill:#fff;}</style></defs><g id="Background"><rect width="1080" height="1080"/></g><g id="Graphics"><path class="cls-1" d="M753.26,735.54a277.58,277.58,0,0,0-49.06-46.4V401.73h-.15C702.47,352.28,687.39,306.16,661,270V151.11H419V270c-26.4,36.21-41.48,82.32-43.06,131.77h-.15V689.14A276.15,276.15,0,0,0,263.45,911.61v17.28h553.1V911.61A276.94,276.94,0,0,0,753.26,735.54ZM617.78,646.18v-53c20.18-13.67,37.8-32.49,51.85-55.3V667.35A276.27,276.27,0,0,0,617.78,646.18ZM540,688.4l-43.21-43.21V573.71l-8.55-5C442.93,542.17,413,484,410.55,419A147,147,0,0,0,540,341.17,147,147,0,0,0,669.45,419C667,484,637.07,542.17,591.76,568.7l-8.55,5v71.48Zm128.13-304a112.53,112.53,0,0,1-109.52-95.05h73.74q1.7,2.3,3.31,4.66l.45.65q1.39,2.06,2.73,4.15c.55.87,1.09,1.74,1.63,2.63.18.29.36.6.55.9C655.3,326.11,664.68,354.48,668.13,384.43ZM439,302.34l.51-.84c.54-.9,1.1-1.79,1.66-2.67q1.33-2.08,2.71-4.13l.46-.67q1.62-2.36,3.31-4.65h73.74a112.54,112.54,0,0,1-109.53,95.05C415.32,354.47,424.7,326.08,439,302.34ZM626.42,185.68v69.13H453.58V185.68Zm-216,352.16c14.05,22.81,31.67,41.63,51.85,55.3v53a275.63,275.63,0,0,0-51.85,21.18Zm-57,219.72a242.84,242.84,0,0,1,126.5-80.38l35.67,35.66L436.3,792.1V894.32H298.64A242.32,242.32,0,0,1,353.39,757.56ZM470.86,894.32v-87.9L600.11,677.18A242.06,242.06,0,0,1,781.36,894.32Z"/></g></svg>