<svg xmlns="http://www.w3.org/2000/svg" viewBox="0 0 1080 1080"><defs><style>.cls-1{fill:#fff;}</style></defs><g id="Background"><rect class="cls-1" width="1080" height="1080"/></g><g id="Graphics"><path d="M826.72,683.36C826.72,525,698.35,396.64,540,396.64S253.28,525,253.28,683.36Z"/><polygon class="cls-1" points="540.01 496.92 510.43 467.35 512.22 465.56 540.01 493.34 567.78 465.56 569.57 467.35 540.01 496.92"/><rect class="cls-1" x="538.74" y="438.45" width="2.53" height="56.68"/><path class="cls-1" d="M452.31,641.59h-8.58V619.67h8.58a10.65,10.65,0,0,1,7.9,2.92,10.37,10.37,0,0,1,2.94,7.76,11.36,11.36,0,0,1-3,8.17A10.45,10.45,0,0,1,452.31,641.59Zm7.77-11.24a8.12,8.12,0,0,0-2.1-5.88,7.49,7.49,0,0,0-5.67-2.21h-5.57V639h5.57a7.27,7.27,0,0,0,5.67-2.35A9.14,9.14,0,0,0,460.08,630.35Z"/><path class="cls-1" d="M473.64,639.71a3.69,3.69,0,0,0,4-3.17l2.57.51a5.64,5.64,0,0,1-2.21,3.6,7,7,0,0,1-4.33,1.32,7.29,7.29,0,0,1-5.62-2.12,8.66,8.66,0,0,1-2-6.09,8.46,8.46,0,0,1,2-6,7,7,0,0,1,5.49-2.26,6.45,6.45,0,0,1,5,2,7.9,7.9,0,0,1,1.84,5.5v1.35H468.87Q469.1,639.72,473.64,639.71Zm-.14-11.93a4.23,4.23,0,0,0-3.14,1.17,5.51,5.51,0,0,0-1.43,3.41h8.65Q477.36,627.78,473.5,627.78Z"/><path class="cls-1" d="M489.69,642a7.64,7.64,0,0,1-4.83-1.39,5,5,0,0,1-2-3.78l2.79-.41a3.82,3.82,0,0,0,1.18,2.56,4.25,4.25,0,0,0,2.82.82,3.91,3.91,0,0,0,2.47-.67,2.37,2.37,0,0,0,.85-2c0-1.24-.92-2-2.75-2.25l-2.25-.35a6.23,6.23,0,0,1-3.43-1.48,3.89,3.89,0,0,1-1.19-2.94,4,4,0,0,1,1.61-3.27,6.67,6.67,0,0,1,4.28-1.27,6.82,6.82,0,0,1,4.29,1.25,5.48,5.48,0,0,1,2,3.58l-2.57.37a4.06,4.06,0,0,0-1.26-2.3,3.92,3.92,0,0,0-2.47-.7,3.84,3.84,0,0,0-2.31.61,2,2,0,0,0-.27,3,3.68,3.68,0,0,0,1.86.72l2.51.41q4.75.76,4.75,4.48a4.46,4.46,0,0,1-1.63,3.63A6.83,6.83,0,0,1,489.69,642Z"/><path class="cls-1" d="M502.15,623.4h-2.78v-3.73h2.78Zm0,18.19h-2.78V625.93h2.78Z"/><path class="cls-1" d="M512.64,640.66a6.35,6.35,0,0,1-4.95-2,7.81,7.81,0,0,1-1.82-5.47,7.91,7.91,0,0,1,1.85-5.48,6.17,6.17,0,0,1,4.92-2.11,5.74,5.74,0,0,1,4.85,2.3v-1.92h2.72v14.94a6.86,6.86,0,0,1-1.84,5,7,7,0,0,1-5.15,1.83,7.91,7.91,0,0,1-4.93-1.4,5.3,5.3,0,0,1-2.1-3.86l2.78-.27a3.7,3.7,0,0,0,1.35,2.44,4.74,4.74,0,0,0,2.9.78,4,4,0,0,0,3.14-1.19,5.14,5.14,0,0,0,1.07-3.53v-2.45A5.65,5.65,0,0,1,512.64,640.66Zm-2.72-11.38a5.72,5.72,0,0,0-1.16,3.82,5.65,5.65,0,0,0,1.16,3.81,4,4,0,0,0,3.24,1.36,3.87,3.87,0,0,0,3.13-1.42,6.36,6.36,0,0,0,0-7.48,3.82,3.82,0,0,0-3.1-1.46A4,4,0,0,0,509.92,629.28Z"/><path class="cls-1" d="M538.23,631.44v10.15h-2.78v-9.65a4.21,4.21,0,0,0-1-2.94,3.57,3.57,0,0,0-2.75-1,3.86,3.86,0,0,0-3.12,1.27,5.62,5.62,0,0,0-1.07,3.71v8.64h-2.78V625.93h2.72v2a5.51,5.51,0,0,1,4.88-2.36,5.79,5.79,0,0,1,4.3,1.58A5.91,5.91,0,0,1,538.23,631.44Z"/><path class="cls-1" d="M557.56,642a9.55,9.55,0,0,1-6.28-1.91,6.63,6.63,0,0,1-2.39-5.23l3-.38a5,5,0,0,0,1.58,3.75,6.06,6.06,0,0,0,4.14,1.3,5.06,5.06,0,0,0,3.4-1.07,3.56,3.56,0,0,0,1.25-2.85,2.89,2.89,0,0,0-.87-2.25,6.55,6.55,0,0,0-3-1.27l-2.93-.62a8.5,8.5,0,0,1-4.42-2.16,5.8,5.8,0,0,1,.6-8.22,7.82,7.82,0,0,1,5.32-1.76,8.48,8.48,0,0,1,5.52,1.68,6.56,6.56,0,0,1,2.34,4.68l-3,.37c-.35-2.84-2-4.25-4.9-4.25a5,5,0,0,0-3.25.94,3.48,3.48,0,0,0-.31,4.85,5.43,5.43,0,0,0,2.72,1.24l3.41.73a8.35,8.35,0,0,1,4.34,2.05,5.26,5.26,0,0,1,1.4,3.84,6,6,0,0,1-2.1,4.69A8.13,8.13,0,0,1,557.56,642Z"/><path class="cls-1" d="M567.21,628.23v-2.3H570v-5h2.78v5h4v2.3h-4V637a2.65,2.65,0,0,0,.44,1.73,2,2,0,0,0,1.51.49h2.38v2.38h-2.81a4.39,4.39,0,0,1-3.2-1.08,4.21,4.21,0,0,1-1.1-3.14v-9.14Z"/><path class="cls-1" d="M590.17,625.93H593v15.66h-2.73v-1.91a5.26,5.26,0,0,1-4.69,2.29,5.58,5.58,0,0,1-4.19-1.59,5.89,5.89,0,0,1-1.54-4.29V625.93h2.79v9.68a4.17,4.17,0,0,0,.93,2.91,3.33,3.33,0,0,0,2.61,1,3.64,3.64,0,0,0,3-1.28,5.77,5.77,0,0,0,1-3.71Z"/><path class="cls-1" d="M603.6,642a6.44,6.44,0,0,1-5.11-2.2,8.78,8.78,0,0,1-1.88-5.89,9.08,9.08,0,0,1,1.91-6,6.32,6.32,0,0,1,5.08-2.3,6,6,0,0,1,5.07,2.54v-8.42h2.79v21.92h-2.73v-2.35A5.88,5.88,0,0,1,603.6,642Zm-4.15-8.21a6.66,6.66,0,0,0,1.23,4.22,4,4,0,0,0,3.31,1.58,4.22,4.22,0,0,0,3.45-1.59,7.51,7.51,0,0,0,0-8.43,4.22,4.22,0,0,0-3.44-1.6,4,4,0,0,0-3.31,1.58A6.72,6.72,0,0,0,599.45,633.76Z"/><path class="cls-1" d="M618.87,623.4h-2.78v-3.73h2.78Zm0,18.19h-2.78V625.93h2.78Z"/><path class="cls-1" d="M622.49,633.76a8.45,8.45,0,0,1,2.07-6,7.18,7.18,0,0,1,5.55-2.26,7.29,7.29,0,0,1,5.56,2.26,9.48,9.48,0,0,1,0,11.9,7.26,7.26,0,0,1-5.56,2.26,7.15,7.15,0,0,1-5.55-2.26A8.44,8.44,0,0,1,622.49,633.76Zm11.15,4.29a7.83,7.83,0,0,0,0-8.58,4.33,4.33,0,0,0-3.53-1.56,4.25,4.25,0,0,0-3.5,1.56,7.92,7.92,0,0,0,0,8.59,4.26,4.26,0,0,0,3.51,1.56A4.31,4.31,0,0,0,633.64,638.05Z"/><rect class="cls-1" x="651.2" y="570.44" width="4.52" height="24.84"/><path class="cls-1" d="M557.5,581.73H553v4.52h4.52a2.26,2.26,0,0,1,2.26,2.25v2.26H553v4.52h11.29V588.5A6.78,6.78,0,0,0,557.5,581.73Z"/><path class="cls-1" d="M544,590.76h-9a2.25,2.25,0,0,1-1.6-.66,2.27,2.27,0,0,1-.66-1.6h0a6.78,6.78,0,0,0-13.4-1.43,6.76,6.76,0,0,0,8.89,7.81v.4a4.52,4.52,0,0,1-4.52,4.51h-2.26v4.52h2.26a9,9,0,0,0,9-9v-.39a6.88,6.88,0,0,0,2.26.39h13.55V584H544Zm-18.06,0a2.26,2.26,0,0,1-2.21-2.77,2.26,2.26,0,0,1,1.7-1.69,2.35,2.35,0,0,1,.51-.06,2.22,2.22,0,0,1,1.42.51,2.25,2.25,0,0,1,.84,1.75h0A2.27,2.27,0,0,1,525.89,590.76Z"/><rect class="cls-1" x="534.92" y="599.79" width="9.03" height="4.52"/><rect class="cls-1" x="584.59" y="577.21" width="9.03" height="4.52"/><path class="cls-1" d="M643.3,588.5a2.26,2.26,0,0,1-4.52,0v-2.25h-4.51v2.25a2.26,2.26,0,0,1-2.26,2.26h-4.52v-4.51H623v4.51H600.4a2.26,2.26,0,0,1-2.26-2.26v-2.25h-4.52v2.25a2.26,2.26,0,0,1-2.25,2.26h-6.78a2.21,2.21,0,0,1-1.59-.66,2.23,2.23,0,0,1-.66-1.6h0a6.82,6.82,0,1,0-4.52,6.38v.4a4.52,4.52,0,0,1-4.52,4.51h-2.25v4.52h2.25a9,9,0,0,0,9-9v-.39a6.78,6.78,0,0,0,2.25.39h6.78a6.72,6.72,0,0,0,4.51-1.74,6.73,6.73,0,0,0,4.52,1.74H632a6.72,6.72,0,0,0,4.51-1.74,6.76,6.76,0,0,0,11.29-5V584H643.3Zm-67.74,2.26a2.26,2.26,0,0,1-.51-4.46,2.35,2.35,0,0,1,.51-.06,2.2,2.2,0,0,1,1.42.51,2.25,2.25,0,0,1,.84,1.75h0A2.26,2.26,0,0,1,575.56,590.76Z"/><path class="cls-1" d="M503.31,581.73H492V570.44H487.5v20.32H483v-4.5h-4.52v9a4.52,4.52,0,0,1-4.51,4.52v4.52a9,9,0,0,0,9-9h20.32a6.78,6.78,0,0,0,0-13.55Zm0,9H492v-4.51h11.29a2.26,2.26,0,1,1,0,4.51Z"/><rect class="cls-1" x="469.44" y="570.44" width="4.52" height="24.84"/><path class="cls-1" d="M460.41,589.63a7.91,7.91,0,0,0-7.9-7.9h-5.65v4.52h5.65a3.38,3.38,0,0,1,3.38,3.38v1.13H433.31v4.52h9v4.51h-9a4.51,4.51,0,0,1-4.51-4.51v-4.52h-4.52v4.52a9,9,0,0,0,9,9h13.55v-9h18.07v-4.52h-4.52Z"/></g></svg>