<svg xmlns="http://www.w3.org/2000/svg" xmlns:xlink="http://www.w3.org/1999/xlink" viewBox="0 0 1920 1080"><defs><style>.cls-1{fill:#082b96;}.cls-2{fill:#4672e2;}.cls-3,.cls-4{fill:#fff;}.cls-4{font-size:14.53px;font-family:Approach-Regular, Approach;letter-spacing:-0.02em;}.cls-5{letter-spacing:0.03em;}.cls-6{letter-spacing:-0.03em;}.cls-7{letter-spacing:-0.02em;}.cls-8{letter-spacing:-0.04em;}.cls-9{letter-spacing:-0.05em;}.cls-10{letter-spacing:-0.04em;}.cls-11{letter-spacing:-0.03em;}.cls-12{letter-spacing:-0.03em;}.cls-13{letter-spacing:-0.03em;}.cls-14{font-size:11.87px;letter-spacing:-0.03em;}.cls-15{letter-spacing:-0.04em;}.cls-16{letter-spacing:-0.06em;}.cls-17{letter-spacing:-0.02em;}.cls-18{fill:url(#linear-gradient);}.cls-19{fill:url(#linear-gradient-2);}.cls-20{fill:url(#linear-gradient-3);}.cls-21{fill:url(#linear-gradient-4);}.cls-22{fill:url(#linear-gradient-5);}.cls-23{fill:url(#linear-gradient-6);}.cls-24{fill:url(#linear-gradient-7);}</style><linearGradient id="linear-gradient" y1="66.24" x2="1920" y2="66.24" gradientUnits="userSpaceOnUse"><stop offset="0" stop-color="#fff" stop-opacity="0"/><stop offset="0.51" stop-color="#fff"/><stop offset="1" stop-color="#fff" stop-opacity="0"/></linearGradient><linearGradient id="linear-gradient-2" y1="33.12" y2="33.12" xlink:href="#linear-gradient"/><linearGradient id="linear-gradient-3" y1="0.5" y2="0.5" xlink:href="#linear-gradient"/><linearGradient id="linear-gradient-4" y1="347.75" y2="347.75" xlink:href="#linear-gradient"/><linearGradient id="linear-gradient-5" y1="380.87" y2="380.87" xlink:href="#linear-gradient"/><linearGradient id="linear-gradient-6" y1="1079.5" y2="1079.5" xlink:href="#linear-gradient"/><linearGradient id="linear-gradient-7" y1="413.99" y2="413.99" xlink:href="#linear-gradient"/></defs><g id="Background"><rect class="cls-1" width="1920" height="1080"/></g><g id="Layer_4" data-name="Layer 4"><polygon class="cls-2" points="978.26 8.28 978.26 0 945.14 0 945.14 8.28 965.22 8.28 945.14 24.84 945.14 33.12 978.26 33.12 978.26 24.84 958.15 24.84 978.24 8.28 978.26 8.28"/><polygon class="cls-2" points="978.26 41.4 978.26 33.12 945.14 33.12 945.14 41.4 965.22 41.4 945.14 57.96 945.14 66.24 978.26 66.24 978.26 57.96 958.15 57.96 978.24 41.4 978.26 41.4"/><polygon class="cls-2" points="978.26 356.03 978.26 347.75 945.14 347.75 945.14 356.03 965.22 356.03 945.14 372.59 945.14 380.87 978.26 380.87 978.26 372.59 958.15 372.59 978.24 356.03 978.26 356.03"/><polygon class="cls-2" points="978.26 389.15 978.26 380.87 945.14 380.87 945.14 389.15 965.22 389.15 945.14 405.71 945.14 413.99 978.26 413.99 978.26 405.71 958.15 405.71 978.24 389.15 978.26 389.15"/><path class="cls-3" d="M1272.5,348.21h-625V65.78h625Zm-624.07-.92h623.14V66.7H648.43Z"/><text class="cls-4" transform="translate(981.79 276.52)">A<tspan class="cls-5" x="9.37" y="0">r</tspan><tspan x="15.14" y="0">ti</tspan><tspan class="cls-6" x="22.96" y="0">s</tspan><tspan x="29.58" y="0">ti</tspan><tspan class="cls-7" x="37.4" y="0">c</tspan><tspan x="44.93" y="0">all</tspan><tspan class="cls-8" x="58.4" y="0">y</tspan><tspan x="65.29" y="0"> </tspan><tspan class="cls-9" x="68.24" y="0">F</tspan><tspan class="cls-10" x="76.45" y="0">r</tspan><tspan x="81.17" y="0">om </tspan><tspan class="cls-11" x="104.44" y="0">I</tspan><tspan class="cls-12" x="107.99" y="0">r</tspan><tspan class="cls-13" x="112.76" y="0">an</tspan><tspan class="cls-14"><tspan x="-0.76" y="13.57">E</tspan><tspan class="cls-15" x="6.3" y="13.57">S</tspan><tspan class="cls-16" x="13.12" y="13.57">T</tspan><tspan class="cls-17" x="19.22" y="13.57" xml:space="preserve"> 2013</tspan></tspan></text><rect class="cls-3" x="871.81" y="88.28" width="3.39" height="40.7"/><rect class="cls-3" x="873.51" y="103.55" width="11.87" height="3.39"/><rect class="cls-3" x="871.62" y="98.99" width="12.88" height="3.39" transform="translate(185.98 650.38) rotate(-45)"/><rect class="cls-3" x="866.73" y="115.42" width="5.83" height="3.39"/><path class="cls-3" d="M875.21,123.9v-3.4a3.39,3.39,0,0,0,0-6.78v-3.39a6.79,6.79,0,0,1,0,13.57Z"/><path class="cls-3" d="M880.29,93.37H876.9a3.39,3.39,0,1,0-6.78,0h-3.39a6.78,6.78,0,1,1,13.56,0Z"/><path class="cls-3" d="M956.5,242.61h-3.39a20.3,20.3,0,1,0-40.59,0h-3.4a23.69,23.69,0,0,1,47.38,0Z"/><rect class="cls-3" x="886.13" y="159.51" width="52.76" height="3.39" transform="translate(153.28 692.46) rotate(-45)"/><path class="cls-3" d="M1027.83,246H892.17V158.52l-6.79,6.78v9.47H871.81V127.29h33.92A32.25,32.25,0,0,1,938,159.51V168h57.66a32.25,32.25,0,0,1,32.22,32.22Zm-132.27-3.39h128.88v-42.4a28.86,28.86,0,0,0-28.83-28.83H934.56V159.51a28.86,28.86,0,0,0-28.83-28.83H875.21v40.7H882v-7.49l19.15-19.15,2.4,2.4-8,8Z"/><polygon class="cls-3" points="1026.14 235.82 992.22 235.82 992.22 169.68 995.61 169.68 995.61 232.43 1026.14 232.43 1026.14 235.82"/><path class="cls-3" d="M958.3,215.47a23.77,23.77,0,0,1-23.74-23.74V168h47.49v23.74A23.78,23.78,0,0,1,958.3,215.47ZM938,171.38v20.35a20.35,20.35,0,0,0,40.7,0V171.38Z"/><path class="cls-3" d="M887.08,142.55H871.81V127.29h15.27Zm-11.87-3.39h8.48v-8.48h-8.48Z"/><polygon class="cls-3" points="832.81 220.56 817.51 220.56 828.32 203.6 819.25 203.6 819.25 200.21 834.51 200.21 823.69 217.17 832.81 217.17 832.81 220.56"/><polygon class="cls-3" points="851.47 220.56 837.94 220.56 837.9 200.21 851.47 200.21 851.47 203.6 841.29 203.6 841.33 217.17 851.47 217.17 851.47 220.56"/><rect class="cls-3" x="839.6" y="208.69" width="11.87" height="3.39"/><polygon class="cls-3" points="870.12 220.56 856.55 220.56 856.55 200.21 870.12 200.21 870.12 203.6 859.95 203.6 859.95 217.17 870.12 217.17 870.12 220.56"/><rect class="cls-3" x="858.25" y="208.69" width="11.87" height="3.39"/><polygon class="cls-3" points="851.47 246 837.9 246 837.9 225.65 851.47 225.65 851.47 229.04 841.29 229.04 841.29 242.61 851.47 242.61 851.47 246"/><rect class="cls-3" x="839.6" y="234.13" width="11.87" height="3.39"/><polygon class="cls-3" points="871.82 246 868.57 246 859.95 232.26 859.95 246 856.55 246 856.55 225.65 859.8 225.65 868.42 239.39 868.42 225.65 871.82 225.65 871.82 246"/><path class="cls-3" d="M910.82,302a18.68,18.68,0,0,1-18.65-18.65v-17h3.39v17a15.26,15.26,0,1,0,30.52,0v-17h3.4v17A18.68,18.68,0,0,1,910.82,302Z"/><polygon class="cls-3" points="949.18 301.46 946.78 299.07 960 285.85 960 276.52 963.39 276.52 963.39 287.25 949.18 301.46"/><rect class="cls-3" x="909.13" y="266.35" width="3.39" height="6.78"/><rect class="cls-3" x="960" y="266.35" width="3.39" height="6.78"/><rect class="cls-3" x="926.08" y="305.35" width="3.39" height="6.78"/><rect class="cls-3" x="932.87" y="305.35" width="3.39" height="6.78"/><polygon class="cls-3" points="928.98 283.51 926.58 281.11 934.56 273.13 934.56 266.35 937.96 266.35 937.96 274.54 928.98 283.51"/><polygon class="cls-3" points="928.98 293.69 926.58 291.29 941.35 276.52 941.35 266.35 944.74 266.35 944.74 277.93 928.98 293.69"/><polygon class="cls-3" points="930.88 301.96 926.08 301.96 926.08 266.35 929.48 266.35 929.48 298.57 948.13 279.91 948.13 266.35 951.52 266.35 951.52 281.32 930.88 301.96"/><rect class="cls-2" x="587.61" y="413.99" width="15" height="666.01"/><rect class="cls-2" x="1317.38" y="413.99" width="15" height="666.01"/><rect class="cls-2" x="959" y="413.99" width="2" height="666.01"/><path class="cls-2" d="M1674.77,429v636H245.23V429H1674.77m15-15H230.23v666H1689.77V414Z"/><rect class="cls-18" y="65.74" width="1920" height="1"/><rect class="cls-19" y="32.62" width="1920" height="1"/><rect class="cls-20" width="1920" height="1"/><rect class="cls-21" y="347.25" width="1920" height="1"/><rect class="cls-22" y="380.37" width="1920" height="1"/><rect class="cls-23" y="1079" width="1920" height="1"/><rect class="cls-24" y="413.49" width="1920" height="1"/></g></svg>