<svg xmlns="http://www.w3.org/2000/svg" viewBox="0 0 1080 1080"><defs><style>.cls-1,.cls-3{fill:#fff;}.cls-2{fill:none;stroke:#fff;stroke-miterlimit:10;stroke-width:3.41px;}.cls-3{font-size:29.95px;font-family:Akkurat;}</style></defs><g id="Background"><rect class="cls-1" width="1080" height="1080"/></g><g id="Layer_1" data-name="Layer 1"><path d="M717.56,605a88,88,0,0,0,84.93-65,88,88,0,0,0-84.93-64.95h-440V605Z"/><polyline class="cls-2" points="732.7 510.54 762.16 539.99 732.7 569.46"/><line class="cls-2" x1="762.17" y1="540" x2="703.93" y2="540"/><text class="cls-3" transform="translate(411.23 576.22)">Parking</text><rect class="cls-1" x="466.11" y="538.48" width="9.43" height="4.72"/><rect class="cls-1" x="425.01" y="504.29" width="12.23" height="4.72" transform="translate(-231.98 453.25) rotate(-45)"/><path class="cls-1" d="M511.7,533.77a4.71,4.71,0,0,1-4.72,4.71v4.72a9.44,9.44,0,0,0,9.44-9.43v-9.43H511.7Z"/><path class="cls-1" d="M507,525.91a7.86,7.86,0,0,0-7.86-7.86h-2.95l8.55-8.55-3.33-3.34-11.7,11.7v4.9h9.43a3.15,3.15,0,0,1,3.15,3.15v3.14H483.4a3.15,3.15,0,0,1-3.14-3.14v-1.57h-4.72v1.57a3.15,3.15,0,0,1-3.14,3.14h-4.72a3.15,3.15,0,0,1-3.14-3.14v-1.57h-4.72v1.57a3.15,3.15,0,0,1-3.14,3.14h-11v-3.14a7.87,7.87,0,0,0-7.86-7.86h-3.74l8.55-8.55-3.33-3.34-11.7,11.7v4.9h10.22a3.15,3.15,0,0,1,3.14,3.15v3.14h-22v-4.71h-4.71v9.43h42.45a7.81,7.81,0,0,0,5.5-2.26,7.81,7.81,0,0,0,5.5,2.26h4.72a7.81,7.81,0,0,0,5.5-2.26,7.81,7.81,0,0,0,5.5,2.26H507Z"/><rect class="cls-1" x="450.39" y="514.9" width="4.72" height="4.72"/><polygon class="cls-1" points="535.28 521.19 535.28 529.05 525.85 529.05 525.85 507.83 521.13 507.83 521.13 533.77 525.85 533.77 540 533.77 540 521.19 535.28 521.19"/><polygon class="cls-1" points="525.85 538.49 525.85 543.2 530.57 543.2 530.57 547.92 535.28 547.92 535.28 543.2 535.28 538.49 530.57 538.49 525.85 538.49"/><path class="cls-1" d="M327.44,576.22H316V507.83h28.52q10.88,0,17.6,6.15a20.06,20.06,0,0,1,6.82,15.64,22.35,22.35,0,0,1-6.92,16.6q-7,6.67-17.5,6.68H327.44Zm29.85-46.6a11.19,11.19,0,0,0-3.77-8.75,14.27,14.27,0,0,0-9.87-3.36H327.44v25.8h16.21a13.29,13.29,0,0,0,9.9-3.79A13.51,13.51,0,0,0,357.29,529.62Z"/></g></svg>