<svg xmlns="http://www.w3.org/2000/svg" viewBox="0 0 1080 1080"><defs><style>.cls-1{fill:#fff;}</style></defs><g id="Background"><rect width="1080" height="1080"/></g><g id="Graphics"><path class="cls-1" d="M540,340.81A112.35,112.35,0,1,0,652.35,453.16,112.48,112.48,0,0,0,540,340.81Zm0,190.13a77.78,77.78,0,1,1,77.78-77.78A77.87,77.87,0,0,1,540,530.94Z"/><path class="cls-1" d="M825.19,470.44V297.6H790.62V435.87H756.05V237.11H634.65a95,95,0,0,0-189.3,0H324V634.64H272.1v34.57H502.31L344.07,910.35l28.9,19L540,674.79,707,929.31l28.9-19L577.69,669.21H807.9V634.64H756.05V470.44ZM540,185.26a60.58,60.58,0,0,1,59.87,51.85H480.13A60.58,60.58,0,0,1,540,185.26ZM358.52,634.64v-363h363v363Z"/></g></svg>