<svg xmlns="http://www.w3.org/2000/svg" viewBox="0 0 1920 1080"><defs><style>.cls-1{fill:#fff;}.cls-2{fill:#082b96;}</style></defs><g id="Background"><rect class="cls-1" width="1920" height="1080"/></g><g id="Layer_1" data-name="Layer 1"><path class="cls-2" d="M805.39,428.92H666.45V290H805.39Zm-137.94-1H804.39V291H667.45Z"/><path class="cls-2" d="M1819.53,428.92H1680.6V290h138.93Zm-137.93-1h136.93V291H1681.6Z"/><path class="cls-2" d="M1957.46,428.92H1818.53V231.65h138.93Zm-137.93-1h136.93V232.65H1819.53Z"/><path class="cls-2" d="M1259.5,428.92H1044.19V213.62H1259.5Zm-214.31-1H1258.5V214.62H1045.19Z"/><path class="cls-2" d="M1045.19,428.92H804.3V188h240.89Zm-239.89-1h238.89V189H805.3Z"/><path class="cls-2" d="M805.39,1080.5H666.45V941.57H805.39Zm-137.94-1H804.39V942.57H667.45Z"/><path class="cls-2" d="M1933.41,1080.5H1670.12V941.57h263.29Zm-262.29-1h261.29V942.57H1671.12Z"/><path class="cls-2" d="M1933.41,942.57h-223V803.63h223Zm-222-1h221V804.63h-221Z"/><path class="cls-2" d="M1933.41,752.09H1670.12V469.79h263.29Zm-262.29-1h261.29V470.79H1671.12Z"/><path class="cls-2" d="M1252.38,1080.5H804.3V839.62h448.08Zm-447.08-1h446.08V840.62H805.3Z"/><path class="cls-2" d="M1237.44,754.16H1098.51V615.23h138.93Zm-137.93-1h136.93V616.23H1099.51Z"/><path class="cls-2" d="M859.71,754.16H702.51V597h157.2Zm-156.2-1h155.2V598H703.51Z"/><path class="cls-2" d="M859.71,598.19h-56v-56h56Zm-55-1h54v-54h-54Z"/><path class="cls-2" d="M804.68,598.19h-56v-56h56Zm-55-1h54v-54h-54Z"/><path class="cls-2" d="M1099.59,754.16H858.71V513.28h240.88Zm-239.88-1h238.88V514.28H859.71Z"/><path class="cls-2" d="M240.38,754.16H-.5V513.28H240.38ZM.5,753.16H239.38V514.28H.5Z"/><path class="cls-2" d="M190.37,1080.5H-.5V839.62H190.37ZM.5,1079.5H189.37V840.62H.5Z"/><path class="cls-2" d="M120.44,428.92H-.5V188H120.44ZM.5,427.92H119.44V189H.5Z"/><path class="cls-2" d="M240.38,428.92H119.44v-152H240.38Zm-119.94-1H239.38v-150H120.44Z"/><polygon class="cls-2" points="1920 115.01 1920 105.01 1616.88 105.01 1616.88 1080 1626.88 1080 1626.88 761.67 1920 761.67 1920 751.67 1626.88 751.67 1626.88 438.34 1920 438.34 1920 428.34 1626.88 428.34 1626.88 115.01 1920 115.01"/><polygon class="cls-2" points="1621.88 396.39 1621.88 470.29 1658.83 433.34 1621.88 396.39"/><circle class="cls-1" cx="1632.24" cy="422.81" r="3.43"/><circle class="cls-1" cx="1632.24" cy="443.86" r="3.43"/><polygon class="cls-2" points="1621.88 719.72 1621.88 793.62 1658.83 756.67 1621.88 719.72"/><circle class="cls-1" cx="1632.24" cy="746.14" r="3.43"/><circle class="cls-1" cx="1632.24" cy="767.19" r="3.43"/><polygon class="cls-2" points="0 115.01 0 105.01 303.13 105.01 303.13 1080 293.13 1080 293.13 761.67 0 761.67 0 751.67 293.13 751.67 293.13 438.34 0 438.34 0 428.34 293.13 428.34 293.13 115.01 0 115.01"/><polygon class="cls-2" points="298.13 396.39 298.13 470.29 261.18 433.34 298.13 396.39"/><circle class="cls-1" cx="287.76" cy="422.81" r="3.43"/><circle class="cls-1" cx="287.76" cy="443.86" r="3.43"/><polygon class="cls-2" points="298.13 719.72 298.13 793.62 261.18 756.67 298.13 719.72"/><circle class="cls-1" cx="287.76" cy="746.14" r="3.43"/><circle class="cls-1" cx="287.76" cy="767.19" r="3.43"/><polygon class="cls-2" points="959.68 115.01 959.68 105.01 1262.81 105.01 1262.81 1080 1252.81 1080 1252.81 761.67 959.68 761.67 959.68 751.67 1252.81 751.67 1252.81 438.34 959.68 438.34 959.68 428.34 1252.81 428.34 1252.81 115.01 959.68 115.01"/><polygon class="cls-2" points="1257.81 396.39 1257.81 470.29 1220.86 433.34 1257.81 396.39"/><circle class="cls-1" cx="1247.44" cy="422.81" r="3.43"/><circle class="cls-1" cx="1247.44" cy="443.86" r="3.43"/><polygon class="cls-2" points="1257.81 719.72 1257.81 793.62 1220.86 756.67 1257.81 719.72"/><circle class="cls-1" cx="1247.44" cy="746.14" r="3.43"/><circle class="cls-1" cx="1247.44" cy="767.19" r="3.43"/><polygon class="cls-2" points="960.32 115.01 960.32 105.01 657.19 105.01 657.19 1080 667.19 1080 667.19 761.67 960.32 761.67 960.32 751.67 667.19 751.67 667.19 438.34 960.32 438.34 960.32 428.34 667.19 428.34 667.19 115.01 960.32 115.01"/><polygon class="cls-2" points="662.19 396.39 662.19 470.29 699.14 433.34 662.19 396.39"/><circle class="cls-1" cx="672.56" cy="422.81" r="3.43"/><circle class="cls-1" cx="672.56" cy="443.86" r="3.43"/><polygon class="cls-2" points="662.19 719.72 662.19 793.62 699.14 756.67 662.19 719.72"/><circle class="cls-1" cx="672.56" cy="746.14" r="3.43"/><circle class="cls-1" cx="672.56" cy="767.19" r="3.43"/><rect x="685.41" y="76.79" width="131.68" height="188.12" transform="translate(922.1 -580.4) rotate(90)"/><path class="cls-1" d="M727.49,209.25c-5.57,4.25-12.26,4.86-19.14,4.86H679.79v-71.9h28.56c5.77,0,11.75.81,16.61,3.95a18.66,18.66,0,0,1,8.3,15.59c0,5.88-2.73,12.46-8.81,15.2a17.54,17.54,0,0,1,10.33,16.2C734.78,199.53,732.65,205.3,727.49,209.25Zm-18.64-55.8h-16.1v18h16.41c5.87,0,10.83-2.13,10.83-8.91S714.73,153.45,708.85,153.45Zm.41,29H692.75v20h16.1c6.08,0,12.66-2.22,12.66-9.51C721.51,185.15,716.15,182.41,709.26,182.41Z"/><polygon class="cls-1" points="813.63 145.92 804.32 136.61 813.63 127.3 814.2 127.86 805.45 136.61 814.2 145.36 813.63 145.92"/><rect class="cls-1" x="804.89" y="136.21" width="17.85" height="0.8"/><rect x="1645.09" y="76.79" width="131.68" height="188.12" transform="translate(1881.78 -1540.09) rotate(90)"/><polygon class="cls-1" points="1648.72 214.4 1639.4 205.08 1648.72 195.78 1649.28 196.34 1640.53 205.08 1649.28 213.83 1648.72 214.4"/><rect class="cls-1" x="1639.97" y="204.69" width="17.85" height="0.8"/><path class="cls-1" d="M1768.75,214.12l-4.66-13.78h-28.56l-4.66,13.78h-13.16l25.21-71.81h14.28l25.22,71.81Zm-18.94-55.81-10.23,30.28H1760Z"/></g></svg>