<svg xmlns="http://www.w3.org/2000/svg" viewBox="0 0 1920 1080"><defs><style>.cls-1{fill:#fff;}.cls-2{font-size:35.08px;font-family:Approach-Regular, Approach;letter-spacing:-0.03em;}.cls-3{letter-spacing:0.04em;}.cls-4{letter-spacing:-0.02em;}.cls-5{letter-spacing:-0.03em;}.cls-6{letter-spacing:-0.02em;}.cls-7{letter-spacing:-0.02em;}.cls-8{letter-spacing:-0.04em;}.cls-9{letter-spacing:-0.05em;}.cls-10{letter-spacing:-0.04em;}.cls-11{letter-spacing:-0.03em;}.cls-12{letter-spacing:-0.03em;}.cls-13{font-size:28.66px;letter-spacing:-0.02em;}.cls-14{letter-spacing:-0.04em;}.cls-15{letter-spacing:-0.06em;}.cls-16,.cls-21,.cls-22{fill:none;stroke:#000;stroke-miterlimit:10;}.cls-16{stroke-width:8.19px;}.cls-17{fill:#ffec00;}.cls-18{fill:#f5cebc;}.cls-19{fill:#a9afb0;}.cls-20{fill:#cde5d9;}.cls-21{stroke-width:8.19px;}.cls-22{stroke-width:2.23px;}</style></defs><g id="Background"><rect class="cls-1" width="1920" height="1080"/></g><g id="Layer_4" data-name="Layer 4"><text class="cls-2" transform="translate(1012.61 707.84)">A<tspan class="cls-3" x="22.63" y="0">r</tspan><tspan class="cls-4" x="36.55" y="0">ti</tspan><tspan class="cls-5" x="55.44" y="0">s</tspan><tspan class="cls-4" x="71.4" y="0">ti</tspan><tspan class="cls-6" x="90.29" y="0">c</tspan><tspan class="cls-7" x="108.45" y="0">all</tspan><tspan class="cls-8" x="140.99" y="0">y</tspan><tspan class="cls-4" x="157.6" y="0"> </tspan><tspan class="cls-9" x="164.74" y="0">F</tspan><tspan class="cls-10" x="184.56" y="0">r</tspan><tspan class="cls-4" x="195.95" y="0">om </tspan><tspan class="cls-11" x="252.12" y="0">I</tspan><tspan class="cls-12" x="260.69" y="0">r</tspan><tspan class="cls-4" x="272.19" y="0">an</tspan><tspan class="cls-13"><tspan x="-1.84" y="32.75">E</tspan><tspan class="cls-14" x="15.2" y="32.75">S</tspan><tspan class="cls-15" x="31.66" y="32.75">T</tspan><tspan x="46.4" y="32.75" xml:space="preserve"> 2013</tspan></tspan></text><line class="cls-16" x1="751.22" y1="351.69" x2="751.22" y2="253.44"/><line class="cls-16" x1="751.22" y1="294.37" x2="779.87" y2="294.37"/><line class="cls-16" x1="751.22" y1="294.37" x2="773.2" y2="272.39"/><line class="cls-16" x1="748.91" y1="323.03" x2="734.84" y2="323.03"/><path class="cls-16" d="M755.31,310.75a12.28,12.28,0,1,1,0,24.56"/><path class="cls-16" d="M763.5,265.72a12.28,12.28,0,0,0-24.56,0"/><path class="cls-16" d="M841.28,626a53.09,53.09,0,0,1,53.09-53.09h0A53.08,53.08,0,0,1,947.45,626"/><line class="cls-16" x1="890.41" y1="384.44" x2="800.34" y2="474.5"/><path class="cls-16" d="M820.81,392.62l-45,45v20.46H751.22V351.69H829a73.69,73.69,0,0,1,73.69,73.68v24.57H1046a73.69,73.69,0,0,1,73.69,73.68V630.06H800.34v-217"/><polyline class="cls-16" points="1119.66 605.5 1041.87 605.5 1041.87 449.94"/><path class="cls-16" d="M902.69,449.94h106.44a0,0,0,0,1,0,0v53.22a53.22,53.22,0,0,1-53.22,53.22h0a53.22,53.22,0,0,1-53.22-53.22V449.94A0,0,0,0,1,902.69,449.94Z"/><rect class="cls-16" x="751.22" y="351.69" width="28.66" height="28.66"/><path class="cls-17" d="M906.78,454v49.13a49.13,49.13,0,0,0,98.25,0V454Z"/><path class="cls-18" d="M845.64,626a49,49,0,0,1,98,0Z"/><rect class="cls-19" x="755.31" y="355.78" width="20.47" height="20.47"/><path class="cls-20" d="M1046,454h0a69.59,69.59,0,0,1,69.59,69.59v77.78a0,0,0,0,1,0,0H1046a0,0,0,0,1,0,0V454A0,0,0,0,1,1046,454Z"/><polyline class="cls-21" points="620.22 527.72 649.6 527.72 623.49 568.66 652.97 568.66"/><polyline class="cls-21" points="698 568.66 669.45 568.66 669.35 527.72 698 527.72"/><line class="cls-21" x1="698" y1="548.19" x2="669.35" y2="548.19"/><polyline class="cls-21" points="743.03 568.66 714.38 568.66 714.38 527.72 743.03 527.72"/><line class="cls-21" x1="743.03" y1="548.19" x2="714.38" y2="548.19"/><polyline class="cls-21" points="698 630.06 669.35 630.06 669.35 589.13 698 589.13"/><line class="cls-21" x1="698" y1="609.59" x2="669.35" y2="609.59"/><polyline class="cls-21" points="743.03 585.03 743.03 630.06 741.55 630.06 715.87 589.13 714.38 589.13 714.38 634.16"/><path class="cls-16" d="M800.35,683.28v40.94a40.94,40.94,0,0,0,40.94,40.94h0a40.94,40.94,0,0,0,40.93-40.94V683.28"/><polyline class="cls-16" points="931 765.16 964.1 732.05 964.1 707.84"/><line class="cls-16" x1="841.29" y1="683.28" x2="841.29" y2="699.66"/><line class="cls-16" x1="964.1" y1="699.66" x2="964.1" y2="683.28"/><line class="cls-16" x1="882.22" y1="777.44" x2="882.22" y2="793.81"/><line class="cls-16" x1="898.6" y1="793.81" x2="898.6" y2="777.44"/><polyline class="cls-16" points="902.69 683.28 902.69 701.35 882.22 721.82"/><polyline class="cls-16" points="919.07 683.28 919.07 709.54 882.22 746.38"/><polyline class="cls-16" points="882.22 683.28 882.22 765.16 888.01 765.16 935.44 717.73 935.44 683.28"/><rect class="cls-22" x="206.75" y="200.22" width="1506.49" height="679.56"/></g></svg>