<svg xmlns="http://www.w3.org/2000/svg" viewBox="0 0 1080 1080"><defs><style>.cls-1{fill:#fff;}.cls-2{fill:#e4b85f;}</style></defs><g id="Background"><rect class="cls-1" width="1080" height="1080"/></g><g id="Content"><polygon class="cls-2" points="760.94 667.56 760.94 412.44 540 284.88 319.06 412.44 319.06 667.56 540 795.12 760.94 667.56"/><path d="M721,519.1H612.19l87.34-50.42-18-31.18L540.19,519.1H366.74v41.37H468.55l-88.08,50.85,18,31.18,142.08-82H721ZM382.16,545.05V534.52H513.49l-18.24,10.53Zm203.33-10.53H639.2v10.53h-72Zm120.06,10.53H654.62V534.52h50.93Z"/><path d="M404.67,455.35V431a22.55,22.55,0,0,1,22.52-22.52V393.06A38,38,0,0,0,389.26,431v24.35a22.55,22.55,0,0,1-22.52,22.52v15.41A38,38,0,0,0,404.67,455.35Z"/></g></svg>