<svg xmlns="http://www.w3.org/2000/svg" xmlns:xlink="http://www.w3.org/1999/xlink" viewBox="0 0 1080 1080"><defs><style>.cls-1{fill:#4672e2;}.cls-2{fill:url(#linear-gradient);}.cls-3{fill:url(#linear-gradient-2);}.cls-4{fill:url(#linear-gradient-3);}.cls-5{fill:url(#linear-gradient-4);}.cls-6{fill:url(#linear-gradient-5);}.cls-7{fill:url(#linear-gradient-6);}.cls-8{fill:url(#linear-gradient-7);}.cls-9{fill:url(#linear-gradient-8);}.cls-10{fill:url(#linear-gradient-9);}.cls-11{fill:url(#linear-gradient-10);}.cls-12{fill:url(#linear-gradient-11);}.cls-13{fill:url(#linear-gradient-12);}.cls-14{fill:url(#linear-gradient-13);}.cls-15{fill:url(#linear-gradient-14);}.cls-16{fill:url(#linear-gradient-15);}.cls-17{fill:url(#linear-gradient-16);}.cls-18{fill:url(#linear-gradient-17);}.cls-19{fill:url(#linear-gradient-18);}.cls-20{fill:url(#linear-gradient-19);}.cls-21{fill:url(#linear-gradient-20);}</style><linearGradient id="linear-gradient" x1="-4021.93" y1="20563.4" x2="-2941.93" y2="20563.4" gradientTransform="translate(4021.93 -19634.51)" gradientUnits="userSpaceOnUse"><stop offset="0" stop-color="#fff" stop-opacity="0"/><stop offset="0.51" stop-color="#fff"/><stop offset="1" stop-color="#fff" stop-opacity="0"/></linearGradient><linearGradient id="linear-gradient-2" x1="-4021.93" y1="20528.83" x2="-2941.93" y2="20528.83" xlink:href="#linear-gradient"/><linearGradient id="linear-gradient-3" x1="-4011.45" y1="20416.67" x2="-3570.44" y2="20416.67" gradientTransform="translate(21086.11 4393.57) rotate(90)" xlink:href="#linear-gradient"/><linearGradient id="linear-gradient-4" x1="-4011.45" y1="20382.1" x2="-3570.44" y2="20382.1" gradientTransform="translate(21086.11 4393.57) rotate(90)" xlink:href="#linear-gradient"/><linearGradient id="linear-gradient-5" x1="-4011.45" y1="20710.32" x2="-3570.44" y2="20710.32" gradientTransform="translate(21086.11 4393.57) rotate(90)" xlink:href="#linear-gradient"/><linearGradient id="linear-gradient-6" x1="-4011.45" y1="20675.75" x2="-3570.44" y2="20675.75" gradientTransform="translate(21086.11 4393.57) rotate(90)" xlink:href="#linear-gradient"/><linearGradient id="linear-gradient-7" x1="-4011.45" y1="20623.89" x2="-3570.44" y2="20623.89" gradientTransform="translate(21086.11 4393.57) rotate(90)" xlink:href="#linear-gradient"/><linearGradient id="linear-gradient-8" x1="-4011.45" y1="20589.33" x2="-3570.44" y2="20589.33" gradientTransform="translate(21086.11 4393.57) rotate(90)" xlink:href="#linear-gradient"/><linearGradient id="linear-gradient-9" x1="-4011.45" y1="20503.65" x2="-3570.44" y2="20503.65" gradientTransform="translate(21086.11 4393.57) rotate(90)" xlink:href="#linear-gradient"/><linearGradient id="linear-gradient-10" x1="-4011.45" y1="20469.09" x2="-3570.44" y2="20469.09" gradientTransform="translate(21086.11 4393.57) rotate(90)" xlink:href="#linear-gradient"/><linearGradient id="linear-gradient-11" x1="-4021.93" y1="19820.19" x2="-2941.93" y2="19820.19" xlink:href="#linear-gradient"/><linearGradient id="linear-gradient-12" x1="-4021.93" y1="19785.62" x2="-2941.93" y2="19785.62" xlink:href="#linear-gradient"/><linearGradient id="linear-gradient-13" x1="-4021.93" y1="19923.89" x2="-2941.93" y2="19923.89" xlink:href="#linear-gradient"/><linearGradient id="linear-gradient-14" x1="-4021.93" y1="19889.32" x2="-2941.93" y2="19889.32" xlink:href="#linear-gradient"/><linearGradient id="linear-gradient-15" x1="274.28" y1="752.47" x2="677.57" y2="752.47" gradientTransform="translate(671.47 -116.14) rotate(45)" xlink:href="#linear-gradient"/><linearGradient id="linear-gradient-16" x1="299.19" y1="777.38" x2="702.48" y2="777.38" gradientTransform="translate(696.38 -126.45) rotate(45)" xlink:href="#linear-gradient"/><linearGradient id="linear-gradient-17" x1="524.05" y1="346.93" x2="814.37" y2="346.93" gradientTransform="matrix(1, 0, 0, 1, 0, 0)" xlink:href="#linear-gradient"/><linearGradient id="linear-gradient-18" x1="214.08" y1="854.67" x2="768.17" y2="854.67" gradientTransform="translate(1031.12 1627.33) rotate(180)" xlink:href="#linear-gradient"/><linearGradient id="linear-gradient-19" x1="247.99" y1="836.09" x2="734.26" y2="836.09" gradientTransform="translate(1031.12 1627.33) rotate(180)" xlink:href="#linear-gradient"/><linearGradient id="linear-gradient-20" x1="266.7" y1="346.93" x2="557.02" y2="346.93" gradientTransform="matrix(1, 0, 0, 1, 0, 0)" xlink:href="#linear-gradient"/></defs><g id="Graphics"><path class="cls-1" d="M753.26,735.54a277.58,277.58,0,0,0-49.06-46.4V401.73h-.15C702.47,352.28,687.39,306.16,661,270V151.11H419V270c-26.4,36.21-41.48,82.32-43.06,131.77h-.15V689.14A276.15,276.15,0,0,0,263.45,911.61v17.28h553.1V911.61A276.94,276.94,0,0,0,753.26,735.54ZM617.78,646.18v-53c20.18-13.67,37.8-32.49,51.85-55.3V667.35A276.27,276.27,0,0,0,617.78,646.18ZM540,688.4l-43.21-43.21V573.71l-8.55-5C442.93,542.17,413,484,410.55,419A147,147,0,0,0,540,341.17,147,147,0,0,0,669.45,419C667,484,637.07,542.17,591.76,568.7l-8.55,5v71.48Zm128.13-304a112.53,112.53,0,0,1-109.52-95.05h73.74q1.7,2.3,3.31,4.66l.45.65q1.39,2.06,2.73,4.15c.55.87,1.09,1.74,1.63,2.63.18.29.36.6.55.9C655.3,326.11,664.68,354.48,668.13,384.43ZM439,302.34l.51-.84c.54-.9,1.1-1.79,1.66-2.67q1.33-2.08,2.71-4.13l.46-.67q1.62-2.36,3.31-4.65h73.74a112.54,112.54,0,0,1-109.53,95.05C415.32,354.47,424.7,326.08,439,302.34ZM626.42,185.68v69.13H453.58V185.68Zm-216,352.16c14.05,22.81,31.67,41.63,51.85,55.3v53a275.63,275.63,0,0,0-51.85,21.18Zm-57,219.72a242.84,242.84,0,0,1,126.5-80.38l35.67,35.66L436.3,792.1V894.32H298.64A242.32,242.32,0,0,1,353.39,757.56ZM470.86,894.32v-87.9L600.11,677.18A242.06,242.06,0,0,1,781.36,894.32Z"/><rect class="cls-2" y="928.39" width="1080" height="1"/><rect class="cls-3" y="893.82" width="1080" height="1"/><rect class="cls-4" x="668.95" y="382.09" width="1" height="441.01"/><rect class="cls-5" x="703.52" y="382.09" width="1" height="441.01"/><rect class="cls-6" x="375.3" y="382.09" width="1" height="441.01"/><rect class="cls-7" x="409.87" y="382.09" width="1" height="441.01"/><rect class="cls-8" x="461.72" y="382.09" width="1" height="441.01"/><rect class="cls-9" x="496.29" y="382.09" width="1" height="441.01"/><rect class="cls-10" x="581.96" y="382.09" width="1" height="441.01"/><rect class="cls-11" x="616.53" y="382.09" width="1" height="441.01"/><rect class="cls-12" y="185.18" width="1080" height="1"/><rect class="cls-13" y="150.61" width="1080" height="1"/><rect class="cls-14" y="288.88" width="1080" height="1"/><rect class="cls-15" y="254.31" width="1080" height="1"/><rect class="cls-16" x="191.25" y="751.97" width="569.34" height="1" transform="translate(-392.68 556.93) rotate(-45)"/><rect class="cls-17" x="216.16" y="776.88" width="569.34" height="1" transform="translate(-403 581.83) rotate(-45)"/><path class="cls-18" d="M669.21,419.51c-80,0-145.16-65.12-145.16-145.16h1c0,79.49,64.67,144.16,144.16,144.16s144.16-64.67,144.16-144.16h1C814.37,354.39,749.25,419.51,669.21,419.51Z"/><path class="cls-19" d="M817,911.19h-1a276,276,0,0,0-552.09,0h-1A277,277,0,0,1,540,634.14h0A277,277,0,0,1,817,911.19Z"/><path class="cls-20" d="M783.14,912.81h-1a242.14,242.14,0,0,0-484.27,0h-1A243.13,243.13,0,0,1,540,669.68h0A243.14,243.14,0,0,1,783.14,912.81Z"/><path class="cls-21" d="M411.86,419.51c-80,0-145.16-65.12-145.16-145.16h1c0,79.49,64.67,144.16,144.16,144.16S556,353.84,556,274.35h1C557,354.39,491.91,419.51,411.86,419.51Z"/></g></svg>