<svg xmlns="http://www.w3.org/2000/svg" viewBox="0 0 1920 1080"><defs><style>.cls-1,.cls-2{fill:#fff;}.cls-2,.cls-20,.cls-25,.cls-4,.cls-5{stroke:#000;stroke-miterlimit:10;}.cls-2{stroke-width:0.92px;}.cls-3{fill:#4672e2;}.cls-20,.cls-25,.cls-4,.cls-5{fill:none;}.cls-4{stroke-width:15px;}.cls-5{stroke-width:2px;}.cls-6{font-size:14.53px;font-family:Approach-Regular, Approach;letter-spacing:-0.02em;}.cls-7{letter-spacing:0.03em;}.cls-8{letter-spacing:-0.03em;}.cls-9{letter-spacing:-0.02em;}.cls-10{letter-spacing:-0.04em;}.cls-11{letter-spacing:-0.05em;}.cls-12{letter-spacing:-0.04em;}.cls-13{letter-spacing:-0.03em;}.cls-14{letter-spacing:-0.03em;}.cls-15{letter-spacing:-0.03em;}.cls-16{font-size:11.87px;letter-spacing:-0.03em;}.cls-17{letter-spacing:-0.04em;}.cls-18{letter-spacing:-0.06em;}.cls-19{letter-spacing:-0.02em;}.cls-20{stroke-width:3.39px;}.cls-21{fill:#ffec00;}.cls-22{fill:#f5cebc;}.cls-23{fill:#a9afb0;}.cls-24{fill:#cde5d9;}.cls-25{stroke-width:3.39px;}</style></defs><g id="Background"><rect class="cls-1" width="1920" height="1080"/></g><g id="Layer_4" data-name="Layer 4"><rect class="cls-2" x="647.96" y="66.24" width="624.07" height="281.51"/><rect class="cls-3" x="230.23" y="413.99" width="364.89" height="666.01"/><rect class="cls-3" x="595.11" y="413.99" width="364.89" height="666.01"/><rect class="cls-3" x="1324.89" y="413.99" width="364.89" height="666.01"/><rect class="cls-3" x="960" y="413.99" width="364.89" height="666.01"/><line class="cls-4" x1="595.11" y1="413.99" x2="595.11" y2="1080"/><line class="cls-4" x1="1324.88" y1="413.99" x2="1324.88" y2="1080"/><line class="cls-5" x1="960" y1="413.99" x2="960" y2="1080"/><path d="M1674.77,429v636H245.23V429H1674.77m15-15H230.23v666H1689.77V414Z"/><text class="cls-6" transform="translate(981.79 276.52)">A<tspan class="cls-7" x="9.37" y="0">r</tspan><tspan x="15.14" y="0">ti</tspan><tspan class="cls-8" x="22.96" y="0">s</tspan><tspan x="29.58" y="0">ti</tspan><tspan class="cls-9" x="37.4" y="0">c</tspan><tspan x="44.93" y="0">all</tspan><tspan class="cls-10" x="58.4" y="0">y</tspan><tspan x="65.29" y="0"> </tspan><tspan class="cls-11" x="68.24" y="0">F</tspan><tspan class="cls-12" x="76.45" y="0">r</tspan><tspan x="81.17" y="0">om </tspan><tspan class="cls-13" x="104.44" y="0">I</tspan><tspan class="cls-14" x="107.99" y="0">r</tspan><tspan class="cls-15" x="112.76" y="0">an</tspan><tspan class="cls-16"><tspan x="-0.76" y="13.57">E</tspan><tspan class="cls-17" x="6.3" y="13.57">S</tspan><tspan class="cls-18" x="13.12" y="13.57">T</tspan><tspan class="cls-19" x="19.22" y="13.57" xml:space="preserve"> 2013</tspan></tspan></text><line class="cls-20" x1="873.51" y1="128.98" x2="873.51" y2="88.28"/><line class="cls-20" x1="873.51" y1="105.24" x2="885.38" y2="105.24"/><line class="cls-20" x1="873.51" y1="105.24" x2="882.62" y2="96.13"/><line class="cls-20" x1="872.56" y1="117.11" x2="866.73" y2="117.11"/><path class="cls-20" d="M875.21,112a5.09,5.09,0,0,1,0,10.18"/><path class="cls-20" d="M878.6,93.37a5.09,5.09,0,0,0-10.18,0"/><path class="cls-20" d="M910.82,242.61a22,22,0,0,1,22-22h0a22,22,0,0,1,22,22"/><line class="cls-20" x1="931.17" y1="142.55" x2="893.86" y2="179.86"/><path class="cls-20" d="M902.34,145.94,883.69,164.6v8.48H873.51V129h32.22a30.53,30.53,0,0,1,30.53,30.53v10.17h59.35a30.53,30.53,0,0,1,30.53,30.53V244.3H893.86V154.42"/><polyline class="cls-20" points="1026.14 234.13 993.92 234.13 993.92 169.68"/><path class="cls-20" d="M936.26,169.68h44.09a0,0,0,0,1,0,0v22a22,22,0,0,1-22,22h0a22,22,0,0,1-22-22v-22A0,0,0,0,1,936.26,169.68Z"/><rect class="cls-20" x="873.51" y="128.98" width="11.87" height="11.87"/><path class="cls-21" d="M938,171.38v20.35a20.35,20.35,0,0,0,40.7,0V171.38Z"/><path class="cls-22" d="M912.62,242.61a20.3,20.3,0,0,1,40.6,0Z"/><rect class="cls-23" x="875.21" y="130.68" width="8.48" height="8.48"/><path class="cls-24" d="M995.61,171.38h0a28.83,28.83,0,0,1,28.83,28.83v32.22a0,0,0,0,1,0,0H995.61a0,0,0,0,1,0,0V171.38A0,0,0,0,1,995.61,171.38Z"/><polyline class="cls-25" points="819.25 201.91 831.42 201.91 820.6 218.86 832.81 218.86"/><polyline class="cls-25" points="851.47 218.86 839.64 218.86 839.6 201.91 851.47 201.91"/><line class="cls-25" x1="851.47" y1="210.38" x2="839.6" y2="210.38"/><polyline class="cls-25" points="870.12 218.86 858.25 218.86 858.25 201.91 870.12 201.91"/><line class="cls-25" x1="870.12" y1="210.38" x2="858.25" y2="210.38"/><polyline class="cls-25" points="851.47 244.3 839.6 244.3 839.6 227.34 851.47 227.34"/><line class="cls-25" x1="851.47" y1="235.82" x2="839.6" y2="235.82"/><polyline class="cls-25" points="870.12 225.65 870.12 244.3 869.51 244.3 858.87 227.34 858.25 227.34 858.25 246"/><path class="cls-20" d="M893.86,266.35v17a17,17,0,0,0,17,17h0a17,17,0,0,0,17-17v-17"/><polyline class="cls-20" points="947.99 300.26 961.7 286.55 961.7 276.52"/><line class="cls-20" x1="910.82" y1="266.35" x2="910.82" y2="273.13"/><line class="cls-20" x1="961.7" y1="273.13" x2="961.7" y2="266.35"/><line class="cls-20" x1="927.78" y1="305.35" x2="927.78" y2="312.14"/><line class="cls-20" x1="934.56" y1="312.14" x2="934.56" y2="305.35"/><polyline class="cls-20" points="936.26 266.35 936.26 273.83 927.78 282.31"/><polyline class="cls-20" points="943.04 266.35 943.04 277.23 927.78 292.49"/><polyline class="cls-20" points="927.78 266.35 927.78 300.26 930.18 300.26 949.83 280.62 949.83 266.35"/></g></svg>