<svg xmlns="http://www.w3.org/2000/svg" viewBox="0 0 1080 1080"><defs><style>.cls-1{fill:#fff;}.cls-2{fill:#b8babc;}.cls-3{fill:#222221;}</style></defs><g id="Background"><rect class="cls-1" width="1080" height="1080"/></g><g id="Graphics"><polygon points="615.92 185.71 305.01 185.71 305.01 894.29 464.08 1053.36 774.99 1053.36 774.99 344.78 615.92 185.71"/><polygon class="cls-2" points="305.01 26.64 305.01 431.55 536.38 431.55 536.38 185.71 377.32 26.64 305.01 26.64"/><polygon class="cls-3" points="376.91 390.27 347.09 360.46 376.91 330.62 378.71 332.43 350.69 360.46 378.71 388.47 376.91 390.27"/><rect class="cls-3" x="348.89" y="359.17" width="57.17" height="2.55"/><path class="cls-1" d="M642.79,850.08h-9.54l-2,5.38h-3.06l8.49-21.92h3l8.4,21.92h-3.29Zm-8.58-2.5h7.64l-3.76-10.22Z"/><path class="cls-1" d="M653.72,855.46h-2.78V839.81h2.72v2.84a4.85,4.85,0,0,1,4.48-2.84h1.21v2.63h-1.24a3.71,3.71,0,0,0-3.2,1.72,8.05,8.05,0,0,0-1.19,4.64Z"/><path class="cls-1" d="M668.26,853.46a4,4,0,0,0,2.83-1,4.35,4.35,0,0,0,1.28-2.78l2.72.32a6.23,6.23,0,0,1-2.16,4.24,7.71,7.71,0,0,1-10.08-.61,10,10,0,0,1,0-12,6.87,6.87,0,0,1,5.38-2.26,7.16,7.16,0,0,1,4.74,1.5,6.53,6.53,0,0,1,2.19,4.26l-2.85.32q-.57-3.71-4.11-3.7a3.9,3.9,0,0,0-3.3,1.55,7,7,0,0,0-1.18,4.34,6.74,6.74,0,0,0,1.18,4.24A4,4,0,0,0,668.26,853.46Z"/><path class="cls-1" d="M692,845.31v10.15h-2.78v-9.64a4.17,4.17,0,0,0-1-3,3.58,3.58,0,0,0-2.74-1,3.86,3.86,0,0,0-3.12,1.27,5.61,5.61,0,0,0-1.07,3.72v8.63h-2.78V833.54h2.78v8.18a5.45,5.45,0,0,1,4.81-2.29,5.74,5.74,0,0,1,4.3,1.58A5.85,5.85,0,0,1,692,845.31Z"/><path class="cls-1" d="M699.25,837.27h-2.78v-3.73h2.78Zm0,18.19h-2.78V839.81h2.78Z"/><path class="cls-1" d="M711.12,855.46h-3l-6-15.65h2.93l4.6,12.46,4.62-12.46h2.85Z"/><path class="cls-1" d="M726.19,853.58a3.69,3.69,0,0,0,4-3.16l2.57.5a5.73,5.73,0,0,1-2.21,3.6,7,7,0,0,1-4.34,1.33,7.26,7.26,0,0,1-5.62-2.13,8.62,8.62,0,0,1-2-6.08,8.49,8.49,0,0,1,2-5.95,7,7,0,0,1,5.49-2.26,6.51,6.51,0,0,1,5,2A7.9,7.9,0,0,1,733,847v1.34H721.42Q721.65,853.59,726.19,853.58Zm-.14-11.92a4.28,4.28,0,0,0-3.14,1.16,5.6,5.6,0,0,0-1.43,3.41h8.66Q729.9,841.66,726.05,841.66Z"/><rect class="cls-1" x="728.26" y="783.7" width="4.56" height="25.05"/><path class="cls-1" d="M726.36,773.1a7.85,7.85,0,0,0-7.84,7.84v2.78h4.55v-2.78a3.29,3.29,0,0,1,3.29-3.29h13.91V773.1Z"/><path class="cls-1" d="M720.28,806.48a4.55,4.55,0,0,1-4.55,4.55v4.56a9.12,9.12,0,0,0,9.11-9.11v-9.11h-4.56Z"/><rect class="cls-1" x="649.68" y="813.31" width="9.11" height="4.55"/><path class="cls-1" d="M708.9,801.92a2.28,2.28,0,0,1-4.56,0v-2.28h-4.55v2.28a2.29,2.29,0,0,1-2.28,2.28H693v-4.56H688.4v4.56H665.62a2.29,2.29,0,0,1-2.28-2.28v-2.28h-4.55v2.28a2.28,2.28,0,0,1-2.28,2.28h-6.83a2.29,2.29,0,0,1-2.28-2.28h0a6.83,6.83,0,1,0-6.83,6.83,6.91,6.91,0,0,0,2.28-.39v.39a4.56,4.56,0,0,1-4.56,4.56H636v4.55h2.28a9.12,9.12,0,0,0,9.11-9.11v-.39a6.7,6.7,0,0,0,2.28.39h6.83a6.79,6.79,0,0,0,4.56-1.75,6.77,6.77,0,0,0,4.55,1.75h31.89a6.77,6.77,0,0,0,4.55-1.75,6.83,6.83,0,0,0,11.39-5.08v-4.55H708.9Zm-68.33,2.28a2.29,2.29,0,0,1-1.77-.84,2.28,2.28,0,0,1,1.25-3.66,2.52,2.52,0,0,1,.52-.06,2.23,2.23,0,0,1,1.43.51,2.27,2.27,0,0,1,.85,1.77h0A2.29,2.29,0,0,1,640.57,804.2Z"/><polygon class="cls-1" points="704.34 783.7 699.79 783.7 699.79 788.25 695.23 788.25 695.23 792.81 704.34 792.81 704.34 783.7"/><path class="cls-1" d="M687.41,963.33l.32,5.67h-3l-.3-5.7a2.83,2.83,0,0,0-1.09-2.26,5.51,5.51,0,0,0-3.15-.71h-5.44V969h-3V947.08h8.65a8,8,0,0,1,5.35,1.69,5.44,5.44,0,0,1,2,4.36,6.35,6.35,0,0,1-.93,3.39,6.44,6.44,0,0,1-2.59,2.36A4.46,4.46,0,0,1,687.41,963.33Zm-2.69-10a3.39,3.39,0,0,0-1.21-2.74,5,5,0,0,0-3.33-1h-5.41v8.21h5.38a4.49,4.49,0,0,0,3.3-1.24A4.28,4.28,0,0,0,684.72,953.38Z"/><path class="cls-1" d="M699.25,969.38a9,9,0,0,1-5.66-1.66,5.52,5.52,0,0,1-2.17-4.57,5.26,5.26,0,0,1,1-3.17,11,11,0,0,1,3.56-2.84,8,8,0,0,1-2.34-5.08,5,5,0,0,1,1.59-3.88,6,6,0,0,1,4.1-1.47,5.74,5.74,0,0,1,3.87,1.26,4.22,4.22,0,0,1,1.46,3.37,4.88,4.88,0,0,1-1,3,13.62,13.62,0,0,1-3.8,3l5.71,6.09a13.92,13.92,0,0,0,.84-5.31l2.66.35a13.13,13.13,0,0,1-1.62,7l3.28,3.5h-3.57l-1.53-1.67A9.43,9.43,0,0,1,699.25,969.38ZM694.34,963a3.65,3.65,0,0,0,1.41,3,5.5,5.5,0,0,0,3.59,1.14,6.43,6.43,0,0,0,4.62-1.44l-6.52-6.95a7.83,7.83,0,0,0-2.4,2A3.78,3.78,0,0,0,694.34,963Zm4.94-14.13a2.83,2.83,0,0,0-2.13.85,2.87,2.87,0,0,0-.81,2.07,4.55,4.55,0,0,0,.42,2,9.61,9.61,0,0,0,1.68,2.24,13.42,13.42,0,0,0,2.83-2.34,3.3,3.3,0,0,0,.78-2.1,2.59,2.59,0,0,0-.74-2A2.82,2.82,0,0,0,699.28,948.83Z"/><path class="cls-1" d="M722,969h-8.58V947.08H722a10.65,10.65,0,0,1,7.9,2.92,10.37,10.37,0,0,1,2.94,7.76,11.32,11.32,0,0,1-3,8.17A10.45,10.45,0,0,1,722,969Zm7.77-11.24a8.12,8.12,0,0,0-2.1-5.88,7.49,7.49,0,0,0-5.67-2.2h-5.57V966.4H722a7.27,7.27,0,0,0,5.67-2.35A9.14,9.14,0,0,0,729.8,957.76Z"/><path class="cls-1" d="M728.26,911.31v6.84H716.87v-4.56h-4.56v9.11a4.56,4.56,0,0,1-4.55,4.56v4.55a9.12,9.12,0,0,0,9.11-9.11h15.94V911.31Z"/><polygon class="cls-1" points="719.14 931.81 723.7 931.81 723.7 936.37 728.25 936.37 728.25 931.81 728.25 927.26 719.14 927.26 719.14 931.81"/><polygon class="cls-1" points="716.87 897.65 712.31 897.65 712.31 902.2 707.76 902.2 707.76 906.76 716.87 906.76 716.87 897.65"/><polygon class="cls-1" points="645.49 897.65 640.94 897.65 640.94 902.2 636.38 902.2 636.38 906.76 645.49 906.76 645.49 897.65"/><path class="cls-1" d="M699,909a6.83,6.83,0,1,0,0,13.66,6.57,6.57,0,0,0,2.27-.4v.4a4.56,4.56,0,0,1-4.55,4.56h-2.28v4.55h2.28a9.12,9.12,0,0,0,9.11-9.11v-6.83A6.83,6.83,0,0,0,699,909Zm0,9.11a2.28,2.28,0,1,1,2.27-2.28A2.28,2.28,0,0,1,699,918.15Z"/><path class="cls-1" d="M673.91,905.37l9.16,9.17v3.61h-3.81a6.92,6.92,0,0,0,.4-2.28,6.84,6.84,0,0,0-13.67,0,6.92,6.92,0,0,0,.4,2.28h-9.51a2.29,2.29,0,0,1-2.28-2.28v-4.55h-4.55v4.55a2.28,2.28,0,0,1-4.56,0V913.6h-4.55v2.27a2.28,2.28,0,0,1-2.28,2.28h-4.55V913.6h-4.57v10.25a5.69,5.69,0,1,1-11.38,0v-5.7h-4.55v5.7a10.25,10.25,0,0,0,20.49,0v-1.14h4.56a6.8,6.8,0,0,0,4.56-1.76,6.77,6.77,0,0,0,9.11,0,6.77,6.77,0,0,0,4.55,1.76h30.75V912.65l-10.5-10.5Zm-3.36,10.5a2.28,2.28,0,1,1,2.28,2.28A2.28,2.28,0,0,1,670.55,915.87Z"/></g></svg>