<svg xmlns="http://www.w3.org/2000/svg" viewBox="0 0 1080 1080"><defs><style>.cls-1{fill:#fff;}</style></defs><g id="Background"><rect class="cls-1" width="1080" height="1080"/></g><g id="Graphics"><path d="M826.72,683.36C826.72,525,698.35,396.64,540,396.64S253.28,525,253.28,683.36Z"/><polygon class="cls-1" points="540.01 496.92 510.44 467.35 512.22 465.56 540.01 493.34 567.78 465.56 569.57 467.35 540.01 496.92"/><rect class="cls-1" x="538.74" y="438.45" width="2.53" height="56.68"/><path class="cls-1" d="M399.92,636.26h-9.45l-2,5.34h-3l8.41-21.74h3l8.32,21.74h-3.26Zm-8.5-2.49H399l-3.73-10.12Z"/><path class="cls-1" d="M413.72,642a6.4,6.4,0,0,1-5.07-2.19,8.68,8.68,0,0,1-1.86-5.83,9,9,0,0,1,1.89-6,6.25,6.25,0,0,1,5-2.27,5.92,5.92,0,0,1,5,2.51v-8.35h2.76V641.6h-2.7v-2.34A5.84,5.84,0,0,1,413.72,642Zm-4.11-8.14a6.64,6.64,0,0,0,1.22,4.18,4,4,0,0,0,3.28,1.56,4.18,4.18,0,0,0,3.42-1.57,7.42,7.42,0,0,0,0-8.36,4.16,4.16,0,0,0-3.4-1.59,3.93,3.93,0,0,0-3.28,1.57A6.71,6.71,0,0,0,409.61,633.84Z"/><path class="cls-1" d="M438.88,633v8.57h-2.76V632a4.34,4.34,0,0,0-.89-2.91,3.1,3.1,0,0,0-2.49-1,3.44,3.44,0,0,0-2.89,1.27,5.86,5.86,0,0,0-1,3.67v8.57H426.1V626.08h2.7V628a5.19,5.19,0,0,1,4.56-2.27,5.82,5.82,0,0,1,3,.72,4.65,4.65,0,0,1,1.91,2.08,5.25,5.25,0,0,1,5-2.8,5.48,5.48,0,0,1,4.17,1.57,5.85,5.85,0,0,1,1.51,4.26V641.6h-2.76V632a4.34,4.34,0,0,0-.89-2.91,3.13,3.13,0,0,0-2.5-1,3.43,3.43,0,0,0-2.89,1.27A5.86,5.86,0,0,0,438.88,633Z"/><path class="cls-1" d="M456.08,623.56h-2.76v-3.7h2.76Zm0,18h-2.76V626.08h2.76Z"/><path class="cls-1" d="M474,631.53V641.6h-2.76V632a4.17,4.17,0,0,0-.94-2.92,3.54,3.54,0,0,0-2.72-1,3.83,3.83,0,0,0-3.1,1.26,5.63,5.63,0,0,0-1.06,3.68v8.57h-2.76V626.08h2.7V628a5.44,5.44,0,0,1,4.84-2.33,5.69,5.69,0,0,1,4.26,1.57A5.79,5.79,0,0,1,474,631.53Z"/><path class="cls-1" d="M481.18,623.56h-2.76v-3.7h2.76Zm0,18h-2.76V626.08h2.76Z"/><path class="cls-1" d="M491.29,642a7.6,7.6,0,0,1-4.79-1.38,5,5,0,0,1-1.94-3.75l2.76-.41a3.77,3.77,0,0,0,1.17,2.53,4.21,4.21,0,0,0,2.8.82,3.91,3.91,0,0,0,2.45-.66,2.38,2.38,0,0,0,.84-2c0-1.24-.91-2-2.73-2.23l-2.23-.35a6.15,6.15,0,0,1-3.4-1.47,3.86,3.86,0,0,1-1.17-2.91,4,4,0,0,1,1.59-3.25,7.89,7.89,0,0,1,8.49,0,5.45,5.45,0,0,1,2,3.56l-2.55.36a4,4,0,0,0-1.25-2.28,4.68,4.68,0,0,0-4.74-.09,1.86,1.86,0,0,0-.83,1.57,1.82,1.82,0,0,0,.57,1.42,3.55,3.55,0,0,0,1.84.71l2.49.41q4.71.76,4.71,4.44a4.42,4.42,0,0,1-1.62,3.6A6.72,6.72,0,0,1,491.29,642Z"/><path class="cls-1" d="M498.9,628.35v-2.27h2.73v-5h2.76v5h3.91v2.27h-3.91V637a2.62,2.62,0,0,0,.43,1.72,1.93,1.93,0,0,0,1.49.48h2.37v2.37h-2.79a4.36,4.36,0,0,1-3.17-1.07,4.16,4.16,0,0,1-1.09-3.12v-9.06Z"/><path class="cls-1" d="M514.35,641.6h-2.76V626.08h2.7v2.81a4.79,4.79,0,0,1,4.44-2.81h1.19v2.6H518.7a3.67,3.67,0,0,0-3.17,1.71,7.92,7.92,0,0,0-1.18,4.6Z"/><path class="cls-1" d="M535.49,639.29h.74v2.31h-1.5a3.4,3.4,0,0,1-2-.59,2.14,2.14,0,0,1-.93-1.61,5.43,5.43,0,0,1-4.91,2.58,5.84,5.84,0,0,1-3.91-1.27,4.09,4.09,0,0,1-1.49-3.27,4.33,4.33,0,0,1,1.22-3.17,6.13,6.13,0,0,1,3.47-1.62l4.53-.77a1,1,0,0,0,1-1.12,2.58,2.58,0,0,0-.91-2,3.6,3.6,0,0,0-2.49-.8,4,4,0,0,0-2.5.7,3.72,3.72,0,0,0-1.27,2.18l-2.62-.3A5.33,5.33,0,0,1,524,627a7.15,7.15,0,0,1,4.39-1.31,6.21,6.21,0,0,1,4.39,1.48,5.17,5.17,0,0,1,1.6,4v7a1.22,1.22,0,0,0,.26.91A1.2,1.2,0,0,0,535.49,639.29Zm-11.31-2a2.33,2.33,0,0,0,.79,1.85,3.34,3.34,0,0,0,2.2.66,4.15,4.15,0,0,0,3.24-1.42,5.25,5.25,0,0,0,1.26-3.64v-.89l-5,.86a3.24,3.24,0,0,0-1.87.86A2.39,2.39,0,0,0,524.18,637.25Z"/><path class="cls-1" d="M537.1,628.35v-2.27h2.72v-5h2.76v5h3.91v2.27h-3.91V637a2.62,2.62,0,0,0,.44,1.72,1.92,1.92,0,0,0,1.49.48h2.36v2.37h-2.79a4.33,4.33,0,0,1-3.16-1.07,4.16,4.16,0,0,1-1.1-3.12v-9.06Z"/><path class="cls-1" d="M552.54,623.56h-2.76v-3.7h2.76Zm0,18h-2.76V626.08h2.76Z"/><path class="cls-1" d="M564.3,641.6h-2.92l-6-15.52h2.91l4.56,12.35,4.58-12.35h2.82Z"/><path class="cls-1" d="M579.25,639.73a3.66,3.66,0,0,0,3.94-3.14l2.55.5a5.67,5.67,0,0,1-2.19,3.57,6.94,6.94,0,0,1-4.3,1.32,7.22,7.22,0,0,1-5.57-2.11,8.58,8.58,0,0,1-1.95-6,8.35,8.35,0,0,1,2-5.9,6.92,6.92,0,0,1,5.44-2.24,6.39,6.39,0,0,1,5,2,7.8,7.8,0,0,1,1.82,5.45v1.34H574.52Q574.74,639.73,579.25,639.73Zm-.14-11.82a4.2,4.2,0,0,0-3.11,1.15,5.47,5.47,0,0,0-1.42,3.38h8.58Q582.93,627.91,579.11,627.91Z"/><path class="cls-1" d="M616.63,630.73a11.56,11.56,0,0,1-2.82,8.17,10.62,10.62,0,0,1-15,0,13.27,13.27,0,0,1,0-16.33,10.68,10.68,0,0,1,15,0A11.54,11.54,0,0,1,616.63,630.73ZM601,624.4a11.25,11.25,0,0,0,0,12.66,7.21,7.21,0,0,0,10.63,0,11.23,11.23,0,0,0,0-12.66,7.24,7.24,0,0,0-10.64,0Z"/><path class="cls-1" d="M624.39,628.35V641.6h-2.78V628.35h-2.79v-2.27h2.79v-1.19a5.18,5.18,0,0,1,1.27-3.72,4.8,4.8,0,0,1,3.61-1.31h2.26v2.3h-2a2.1,2.1,0,0,0-1.75.71,3.47,3.47,0,0,0-.57,2.2v1h3.88v2.27Z"/><path class="cls-1" d="M634.88,628.35V641.6H632.1V628.35h-2.79v-2.27h2.79v-1.19a5.13,5.13,0,0,1,1.27-3.72,4.8,4.8,0,0,1,3.61-1.31h2v2.3H637.2a2.14,2.14,0,0,0-1.76.71,3.54,3.54,0,0,0-.56,2.2v1h3.88v2.27Zm9.36-4.79h-2.75v-3.7h2.75Zm0,18h-2.75V626.08h2.75Z"/><path class="cls-1" d="M655.16,639.61a4,4,0,0,0,2.8-1,4.26,4.26,0,0,0,1.27-2.75l2.7.32a6.22,6.22,0,0,1-2.14,4.21,6.92,6.92,0,0,1-4.63,1.57,6.82,6.82,0,0,1-5.37-2.19,8.51,8.51,0,0,1-1.95-5.89,8.61,8.61,0,0,1,2-6,6.82,6.82,0,0,1,5.34-2.24,7.08,7.08,0,0,1,4.7,1.49,6.38,6.38,0,0,1,2.16,4.22l-2.82.32q-.56-3.68-4.07-3.67a3.89,3.89,0,0,0-3.28,1.53,7,7,0,0,0-1.16,4.31,6.7,6.7,0,0,0,1.17,4.2A3.92,3.92,0,0,0,655.16,639.61Z"/><path class="cls-1" d="M671.89,639.73a3.65,3.65,0,0,0,3.94-3.14l2.55.5a5.67,5.67,0,0,1-2.19,3.57,6.94,6.94,0,0,1-4.3,1.32,7.24,7.24,0,0,1-5.57-2.11,8.58,8.58,0,0,1-2-6,8.35,8.35,0,0,1,2-5.9,6.93,6.93,0,0,1,5.44-2.24,6.39,6.39,0,0,1,5,2,7.8,7.8,0,0,1,1.82,5.45v1.34H667.16Q667.39,639.73,671.89,639.73Zm-.14-11.82a4.2,4.2,0,0,0-3.11,1.15,5.53,5.53,0,0,0-1.42,3.38h8.58Q675.58,627.91,671.75,627.91Z"/><path class="cls-1" d="M687.81,642A7.58,7.58,0,0,1,683,640.6a4.94,4.94,0,0,1-1.94-3.75l2.75-.41A3.83,3.83,0,0,0,685,639a4.18,4.18,0,0,0,2.8.82,3.88,3.88,0,0,0,2.44-.66,2.38,2.38,0,0,0,.84-2c0-1.24-.9-2-2.72-2.23l-2.23-.35a6.12,6.12,0,0,1-3.4-1.47,3.83,3.83,0,0,1-1.18-2.91,4,4,0,0,1,1.59-3.25,7.9,7.9,0,0,1,8.5,0,5.44,5.44,0,0,1,2,3.56l-2.55.36a3.91,3.91,0,0,0-1.25-2.28,4.66,4.66,0,0,0-4.73-.09,1.84,1.84,0,0,0-.84,1.57,1.82,1.82,0,0,0,.57,1.42,3.55,3.55,0,0,0,1.84.71l2.49.41q4.71.76,4.71,4.44a4.42,4.42,0,0,1-1.62,3.6A6.69,6.69,0,0,1,687.81,642Z"/><path class="cls-1" d="M535.48,595.28A4.52,4.52,0,0,1,531,599.8v4.51a9,9,0,0,0,9-9v-9h-4.52Z"/><rect class="cls-1" x="569.35" y="570.44" width="4.52" height="24.84"/><rect class="cls-1" x="544.52" y="570.44" width="4.52" height="24.84"/><path class="cls-1" d="M558.06,581.73h-4.51v4.52h4.51a2.26,2.26,0,0,1,2.26,2.26v2.25h-6.77v4.52h11.29v-6.77A6.79,6.79,0,0,0,558.06,581.73Z"/><path class="cls-1" d="M515.16,588.51v6.77h6.78v4.52h-6.78a4.52,4.52,0,0,1-4.51-4.52v-4.52h-4.52v4.52a9,9,0,0,0,9,9h11.29V590.76h-6.77v-2.25a2.26,2.26,0,0,1,2.26-2.26h4.51v-4.52h-4.51A6.79,6.79,0,0,0,515.16,588.51Z"/></g></svg>