<svg xmlns="http://www.w3.org/2000/svg" xmlns:xlink="http://www.w3.org/1999/xlink" viewBox="0 0 1080 1080"><defs><style>.cls-1{fill:#4672e2;}.cls-2{fill:url(#linear-gradient);}.cls-3{fill:url(#linear-gradient-2);}.cls-4{fill:url(#linear-gradient-3);}.cls-5{fill:url(#linear-gradient-4);}.cls-6{fill:url(#linear-gradient-5);}.cls-7{fill:url(#linear-gradient-6);}.cls-8{fill:url(#linear-gradient-7);}.cls-9{fill:url(#linear-gradient-8);}.cls-10{fill:url(#linear-gradient-9);}.cls-11{fill:url(#linear-gradient-10);}.cls-12{fill:url(#linear-gradient-11);}.cls-13{fill:url(#linear-gradient-12);}.cls-14{fill:url(#linear-gradient-13);}.cls-15{fill:url(#linear-gradient-14);}.cls-16{fill:url(#linear-gradient-15);}</style><linearGradient id="linear-gradient" x1="-2904.04" y1="20090.47" x2="-2475.18" y2="20090.47" gradientTransform="translate(-19533.18 -2475.18) rotate(-90)" gradientUnits="userSpaceOnUse"><stop offset="0" stop-color="#fff" stop-opacity="0"/><stop offset="0.51" stop-color="#fff"/><stop offset="1" stop-color="#fff" stop-opacity="0"/></linearGradient><linearGradient id="linear-gradient-2" x1="-2904.04" y1="20055.9" x2="-2475.18" y2="20055.9" xlink:href="#linear-gradient"/><linearGradient id="linear-gradient-3" x1="-4021.93" y1="20615.25" x2="-2941.93" y2="20615.25" gradientTransform="translate(4021.93 -19634.51)" xlink:href="#linear-gradient"/><linearGradient id="linear-gradient-4" x1="-4021.93" y1="20580.69" x2="-2941.93" y2="20580.69" gradientTransform="translate(4021.93 -19634.51)" xlink:href="#linear-gradient"/><linearGradient id="linear-gradient-5" x1="-3364.78" y1="20150.96" x2="-2935.93" y2="20150.96" xlink:href="#linear-gradient"/><linearGradient id="linear-gradient-6" x1="-3364.78" y1="20116.39" x2="-2935.93" y2="20116.39" xlink:href="#linear-gradient"/><linearGradient id="linear-gradient-7" x1="-3364.78" y1="20029.97" x2="-2935.93" y2="20029.97" xlink:href="#linear-gradient"/><linearGradient id="linear-gradient-8" x1="-3364.78" y1="19995.4" x2="-2935.93" y2="19995.4" xlink:href="#linear-gradient"/><linearGradient id="linear-gradient-9" x1="-3520.33" y1="20004.05" x2="-3268.66" y2="20004.05" xlink:href="#linear-gradient"/><linearGradient id="linear-gradient-10" x1="-3520.33" y1="19969.48" x2="-3268.66" y2="19969.48" xlink:href="#linear-gradient"/><linearGradient id="linear-gradient-11" x1="-3470.9" y1="20009.4" x2="-3042.05" y2="20009.4" gradientTransform="translate(-19457.18 -2503.96) rotate(-90)" xlink:href="#linear-gradient"/><linearGradient id="linear-gradient-12" x1="-3470.9" y1="19974.83" x2="-3042.05" y2="19974.83" gradientTransform="translate(-19447.05 -2479.51) rotate(-90)" xlink:href="#linear-gradient"/><linearGradient id="linear-gradient-13" x1="-3451.69" y1="20028.61" x2="-3022.84" y2="20028.61" gradientTransform="translate(3789.46 -19251.64)" xlink:href="#linear-gradient"/><linearGradient id="linear-gradient-14" x1="-3451.69" y1="19994.04" x2="-3022.84" y2="19994.04" gradientTransform="translate(3765.02 -19241.52)" xlink:href="#linear-gradient"/><linearGradient id="linear-gradient-15" x1="-15337.92" y1="3011.08" x2="-14783.83" y2="3011.08" gradientTransform="translate(-14520.88 3835.33) rotate(180)" xlink:href="#linear-gradient"/></defs><g id="Graphics"><path class="cls-1" d="M753.26,787.39A277.74,277.74,0,0,0,617.78,698V645c24.53-16.62,45.3-40.83,60.44-70.59,17-33.41,26-72.2,26-112.18,0-3.38-.07-6.75-.19-10.1a237.12,237.12,0,0,0,17.47-90.34c0-55.75-18.54-108.29-52.2-147.93-30.28-35.67-69.54-57.19-112-61.8V99.26H522.72v52.79c-42.46,4.61-81.72,26.14-112,61.8-33.66,39.64-52.2,92.18-52.2,147.93a238.12,238.12,0,0,0,16,86.68l1.67-.65c-.25,4.77-.39,9.58-.39,14.41,0,40,9,78.77,26,112.18,15.14,29.76,35.91,54,60.44,70.59v53A276.66,276.66,0,0,0,263.45,963.46v17.28h553.1V963.46A277,277,0,0,0,753.26,787.39ZM393.08,361.78c0-97.1,65.91-176.1,146.92-176.1s146.92,79,146.92,176.1c0,2.39-.06,4.76-.14,7.13a213.18,213.18,0,0,0-29.22-51.7C626.47,277,584.72,254.81,540,254.81S453.53,277,422.44,317.21a213.73,213.73,0,0,0-29.23,51.7C393.14,366.54,393.08,364.17,393.08,361.78Zm17.29,100.44c0-95.3,58.15-172.84,129.63-172.84s129.63,77.54,129.63,172.84c0,68.48-30.57,130.63-77.87,158.34l-8.55,5V697L540,740.25,496.79,697V625.56l-8.55-5C440.94,592.85,410.37,530.7,410.37,462.22Zm-57,347.19A242.84,242.84,0,0,1,479.89,729l35.67,35.66L436.3,844V946.18H298.64A242.32,242.32,0,0,1,353.39,809.41ZM470.86,946.18V858.27L600.11,729A242.06,242.06,0,0,1,781.36,946.18Z"/><rect class="cls-2" x="556.78" width="1" height="428.85"/><rect class="cls-3" x="522.22" width="1" height="428.85"/><rect class="cls-4" y="980.25" width="1080" height="1"/><rect class="cls-5" y="945.68" width="1080" height="1"/><rect class="cls-6" x="617.28" y="460.74" width="1" height="428.85"/><rect class="cls-7" x="582.71" y="460.74" width="1" height="428.85"/><rect class="cls-8" x="496.29" y="460.74" width="1" height="428.85"/><rect class="cls-9" x="461.72" y="460.74" width="1" height="428.85"/><rect class="cls-10" x="470.36" y="793.47" width="1" height="251.67"/><rect class="cls-11" x="435.79" y="793.47" width="1" height="251.67"/><rect class="cls-12" x="551.72" y="538.1" width="1" height="428.85" transform="translate(-370.38 610.89) rotate(-45)"/><rect class="cls-13" x="527.28" y="562.55" width="1" height="428.85" transform="translate(-394.82 600.77) rotate(-45)"/><rect class="cls-14" x="337.8" y="776.47" width="428.85" height="1" transform="translate(-387.66 618.05) rotate(-45)"/><rect class="cls-15" x="313.35" y="752.03" width="428.85" height="1" transform="translate(-377.54 593.61) rotate(-45)"/><path class="cls-16" d="M817,962.77h-1a276,276,0,1,0-552.08,0h-1a277,277,0,0,1,277-277h0a277,277,0,0,1,277,277Z"/></g></svg>