<svg xmlns="http://www.w3.org/2000/svg" viewBox="0 0 1920 1080"><defs><style>.cls-1{fill:#fff;}.cls-16,.cls-2,.cls-21{fill:none;stroke:#000;stroke-miterlimit:10;}.cls-2{stroke-width:2px;}.cls-3{font-size:15.75px;font-family:Approach-Regular, Approach;letter-spacing:-0.02em;}.cls-4{letter-spacing:0.03em;}.cls-5{letter-spacing:-0.03em;}.cls-6{letter-spacing:-0.03em;}.cls-7{letter-spacing:-0.02em;}.cls-8{letter-spacing:-0.04em;}.cls-9{letter-spacing:-0.05em;}.cls-10{letter-spacing:-0.04em;}.cls-11{letter-spacing:-0.03em;}.cls-12{letter-spacing:-0.03em;}.cls-13{font-size:12.86px;letter-spacing:-0.02em;}.cls-14{letter-spacing:-0.04em;}.cls-15{letter-spacing:-0.06em;}.cls-16{stroke-width:3.68px;}.cls-17{fill:#ffec00;}.cls-18{fill:#f5cebc;}.cls-19{fill:#a9afb0;}.cls-20{fill:#cde5d9;}.cls-21{stroke-width:3.68px;}</style></defs><g id="Background"><rect width="1920" height="1080"/></g><g id="Layer_4" data-name="Layer 4"><rect class="cls-1" x="128.09" y="128.09" width="1672.72" height="951.91"/><rect class="cls-2" x="530.47" y="682.63" width="867.96" height="362.64"/><rect x="565.2" y="1045.27" width="798.49" height="34.73"/></g><g id="Graphics"><text class="cls-3" transform="translate(988.23 947.16)">A<tspan class="cls-4" x="10.16" y="0">r</tspan><tspan x="16.41" y="0">ti</tspan><tspan class="cls-5" x="24.88" y="0">s</tspan><tspan class="cls-6" x="32.05" y="0">ti</tspan><tspan class="cls-7" x="40.53" y="0">c</tspan><tspan x="48.68" y="0">all</tspan><tspan class="cls-8" x="63.29" y="0">y</tspan><tspan x="70.75" y="0"> </tspan><tspan class="cls-9" x="73.95" y="0">F</tspan><tspan class="cls-10" x="82.85" y="0">r</tspan><tspan x="87.96" y="0">om </tspan><tspan class="cls-11" x="113.18" y="0">I</tspan><tspan class="cls-12" x="117.02" y="0">r</tspan><tspan x="122.19" y="0">an</tspan><tspan class="cls-13"><tspan x="-0.83" y="14.7">E</tspan><tspan class="cls-14" x="6.82" y="14.7">S</tspan><tspan class="cls-15" x="14.21" y="14.7">T</tspan><tspan x="20.83" y="14.7" xml:space="preserve"> 2013</tspan></tspan></text><line class="cls-16" x1="870.89" y1="787.28" x2="870.89" y2="743.18"/><line class="cls-16" x1="870.89" y1="761.55" x2="883.76" y2="761.55"/><line class="cls-16" x1="870.89" y1="761.55" x2="880.76" y2="751.69"/><line class="cls-16" x1="869.86" y1="774.42" x2="863.54" y2="774.42"/><path class="cls-16" d="M872.73,768.9a5.52,5.52,0,0,1,0,11"/><path class="cls-16" d="M876.4,748.69a5.51,5.51,0,1,0-11,0"/><path class="cls-16" d="M911.32,910.41a23.83,23.83,0,0,1,23.83-23.83h0A23.83,23.83,0,0,1,959,910.41"/><line class="cls-16" x1="933.37" y1="801.98" x2="892.94" y2="842.41"/><path class="cls-16" d="M902.13,805.66l-20.21,20.21v9.19h-11V787.28h34.92a33.08,33.08,0,0,1,33.08,33.08v11h64.32a33.08,33.08,0,0,1,33.07,33.07v47.78H892.94V814.85"/><polyline class="cls-16" points="1036.28 901.22 1001.37 901.22 1001.37 831.39"/><path class="cls-16" d="M938.89,831.39h47.78a0,0,0,0,1,0,0v23.89a23.89,23.89,0,0,1-23.89,23.89h0a23.89,23.89,0,0,1-23.89-23.89V831.39A0,0,0,0,1,938.89,831.39Z"/><rect class="cls-16" x="870.89" y="787.28" width="12.86" height="12.86"/><path class="cls-17" d="M940.72,833.22v22.06a22.06,22.06,0,0,0,44.11,0V833.22Z"/><path class="cls-18" d="M913.28,910.41a22,22,0,1,1,44,0Z"/><rect class="cls-19" x="872.73" y="789.12" width="9.19" height="9.19"/><path class="cls-20" d="M1003.21,833.22h0a31.24,31.24,0,0,1,31.24,31.24v34.92a0,0,0,0,1,0,0h-31.24a0,0,0,0,1,0,0V833.22A0,0,0,0,1,1003.21,833.22Z"/><polyline class="cls-21" points="812.09 866.3 825.28 866.3 813.55 884.68 826.79 884.68"/><polyline class="cls-21" points="847 884.68 834.18 884.68 834.14 866.3 847 866.3"/><line class="cls-21" x1="847" y1="875.49" x2="834.14" y2="875.49"/><polyline class="cls-21" points="867.22 884.68 854.36 884.68 854.36 866.3 867.22 866.3"/><line class="cls-21" x1="867.22" y1="875.49" x2="854.35" y2="875.49"/><polyline class="cls-21" points="847 912.24 834.14 912.24 834.14 893.87 847 893.87"/><line class="cls-21" x1="847" y1="903.06" x2="834.14" y2="903.06"/><polyline class="cls-21" points="867.22 892.03 867.22 912.24 866.55 912.24 855.02 893.87 854.36 893.87 854.36 914.08"/><path class="cls-16" d="M893,936.13v18.38a18.37,18.37,0,0,0,18.37,18.38h0a18.38,18.38,0,0,0,18.38-18.38V936.13"/><polyline class="cls-16" points="951.59 972.89 966.45 958.03 966.45 947.16"/><line class="cls-16" x1="911.32" y1="936.13" x2="911.32" y2="943.48"/><line class="cls-16" x1="966.45" y1="943.48" x2="966.45" y2="936.13"/><line class="cls-16" x1="929.7" y1="978.4" x2="929.7" y2="985.75"/><line class="cls-16" x1="937.05" y1="985.75" x2="937.05" y2="978.4"/><polyline class="cls-16" points="938.89 936.13 938.89 944.25 929.7 953.43"/><polyline class="cls-16" points="946.24 936.13 946.24 947.92 929.7 964.46"/><polyline class="cls-16" points="929.7 936.13 929.7 972.89 932.3 972.89 953.59 951.6 953.59 936.13"/></g></svg>