<svg xmlns="http://www.w3.org/2000/svg" xmlns:xlink="http://www.w3.org/1999/xlink" viewBox="0 0 1080 1080"><defs><style>.cls-1,.cls-2,.cls-3,.cls-4{fill:none;stroke-miterlimit:10;}.cls-1{stroke:url(#linear-gradient);}.cls-2{stroke:url(#linear-gradient-2);}.cls-3{stroke:url(#linear-gradient-3);}.cls-4{stroke:url(#linear-gradient-4);}.cls-5{fill:#4672e2;}.cls-6{fill:url(#linear-gradient-5);}.cls-7{fill:url(#linear-gradient-6);}.cls-8{fill:url(#linear-gradient-7);}.cls-9{fill:url(#linear-gradient-8);}.cls-10{fill:url(#linear-gradient-9);}.cls-11{fill:url(#linear-gradient-10);}.cls-12{fill:url(#linear-gradient-11);}.cls-13{fill:url(#linear-gradient-12);}.cls-14{fill:url(#linear-gradient-13);}.cls-15{fill:url(#linear-gradient-14);}.cls-16{fill:url(#linear-gradient-15);}.cls-17{fill:url(#linear-gradient-16);}.cls-18{fill:url(#linear-gradient-17);}.cls-19{fill:url(#linear-gradient-18);}.cls-20{fill:url(#linear-gradient-19);}.cls-21{fill:url(#linear-gradient-20);}</style><linearGradient id="linear-gradient" x1="465.87" y1="789.78" x2="847.75" y2="789.78" gradientUnits="userSpaceOnUse"><stop offset="0" stop-color="#fff" stop-opacity="0"/><stop offset="0.51" stop-color="#fff"/><stop offset="1" stop-color="#fff" stop-opacity="0"/></linearGradient><linearGradient id="linear-gradient-2" x1="424.37" y1="789.78" x2="806.25" y2="789.78" xlink:href="#linear-gradient"/><linearGradient id="linear-gradient-3" x1="658.18" y1="789.78" x2="1040.06" y2="789.78" gradientTransform="matrix(-1, 0, 0, 1, 1272.12, 0)" xlink:href="#linear-gradient"/><linearGradient id="linear-gradient-4" x1="616.68" y1="789.78" x2="998.56" y2="789.78" gradientTransform="matrix(-1, 0, 0, 1, 1272.12, 0)" xlink:href="#linear-gradient"/><linearGradient id="linear-gradient-5" x1="618.43" y1="16202.47" x2="1698.43" y2="16202.47" gradientTransform="translate(1698.43 16439.57) rotate(180)" xlink:href="#linear-gradient"/><linearGradient id="linear-gradient-6" x1="618.43" y1="15770.36" x2="1698.43" y2="15770.36" gradientTransform="translate(1698.43 16439.57) rotate(180)" xlink:href="#linear-gradient"/><linearGradient id="linear-gradient-7" x1="618.43" y1="15804.93" x2="1698.43" y2="15804.93" gradientTransform="translate(1698.43 16439.57) rotate(180)" xlink:href="#linear-gradient"/><linearGradient id="linear-gradient-8" x1="618.43" y1="15969.13" x2="1698.43" y2="15969.13" gradientTransform="translate(1698.43 16439.57) rotate(180)" xlink:href="#linear-gradient"/><linearGradient id="linear-gradient-9" x1="618.43" y1="16003.7" x2="1698.43" y2="16003.7" gradientTransform="translate(1698.43 16439.57) rotate(180)" xlink:href="#linear-gradient"/><linearGradient id="linear-gradient-10" x1="618.43" y1="16167.9" x2="1698.43" y2="16167.9" gradientTransform="translate(1698.43 16439.57) rotate(180)" xlink:href="#linear-gradient"/><linearGradient id="linear-gradient-11" x1="332.82" y1="16003.7" x2="1412.82" y2="16003.7" gradientTransform="translate(-15645.18 1412.82) rotate(-90)" xlink:href="#linear-gradient"/><linearGradient id="linear-gradient-12" x1="332.82" y1="15969.13" x2="1412.82" y2="15969.13" gradientTransform="translate(-15645.18 1412.82) rotate(-90)" xlink:href="#linear-gradient"/><linearGradient id="linear-gradient-13" x1="332.82" y1="16401.23" x2="1412.82" y2="16401.23" gradientTransform="translate(-15645.18 1412.82) rotate(-90)" xlink:href="#linear-gradient"/><linearGradient id="linear-gradient-14" x1="332.82" y1="16366.67" x2="1412.82" y2="16366.67" gradientTransform="translate(-15645.18 1412.82) rotate(-90)" xlink:href="#linear-gradient"/><linearGradient id="linear-gradient-15" x1="332.82" y1="16470.37" x2="1412.82" y2="16470.37" gradientTransform="translate(-15645.18 1412.82) rotate(-90)" xlink:href="#linear-gradient"/><linearGradient id="linear-gradient-16" x1="332.82" y1="16435.8" x2="1412.82" y2="16435.8" gradientTransform="translate(-15645.18 1412.82) rotate(-90)" xlink:href="#linear-gradient"/><linearGradient id="linear-gradient-17" x1="427.15" y1="509.58" x2="652.85" y2="509.58" xlink:href="#linear-gradient"/><linearGradient id="linear-gradient-18" x1="444.31" y1="51.91" x2="635.69" y2="51.91" gradientTransform="translate(1080 249.94) rotate(180)" xlink:href="#linear-gradient"/><linearGradient id="linear-gradient-19" x1="478.88" y1="34.63" x2="601.12" y2="34.63" gradientTransform="translate(1080 249.94) rotate(180)" xlink:href="#linear-gradient"/><linearGradient id="linear-gradient-20" x1="461.72" y1="492.3" x2="618.28" y2="492.3" xlink:href="#linear-gradient"/></defs><g id="Graphics"><line class="cls-1" x1="847.33" y1="1080.1" x2="466.29" y2="499.46"/><line class="cls-2" x1="805.83" y1="1080.1" x2="424.78" y2="499.46"/><line class="cls-3" x1="613.52" y1="499.46" x2="232.47" y2="1080.1"/><line class="cls-4" x1="655.02" y1="499.46" x2="273.98" y2="1080.1"/><path class="cls-5" d="M540,340.81A112.35,112.35,0,1,0,652.35,453.16,112.48,112.48,0,0,0,540,340.81Zm0,190.13a77.78,77.78,0,1,1,77.78-77.78A77.87,77.87,0,0,1,540,530.94Z"/><path class="cls-5" d="M825.19,470.44V297.6H790.62V435.87H756.05V237.11H634.65a95,95,0,0,0-189.3,0H324V634.64H272.1v34.57H502.31L344.07,910.35l28.9,19L540,674.79,707,929.31l28.9-19L577.69,669.21H807.9V634.64H756.05V470.44ZM540,185.26a60.58,60.58,0,0,1,59.87,51.85H480.13A60.58,60.58,0,0,1,540,185.26ZM358.52,634.64v-363h363v363Z"/><rect class="cls-6" y="236.61" width="1080" height="1"/><rect class="cls-7" y="668.71" width="1080" height="1"/><rect class="cls-8" y="634.14" width="1080" height="1"/><rect class="cls-9" y="469.94" width="1080" height="1"/><rect class="cls-10" y="435.37" width="1080" height="1"/><rect class="cls-11" y="271.18" width="1080" height="1"/><rect class="cls-12" x="358.02" width="1" height="1080"/><rect class="cls-13" x="323.45" width="1" height="1080"/><rect class="cls-14" x="755.55" width="1" height="1080"/><rect class="cls-15" x="720.98" width="1" height="1080"/><rect class="cls-16" x="824.69" width="1" height="1080"/><rect class="cls-17" x="790.12" width="1" height="1080"/><path class="cls-18" d="M540,566A113,113,0,0,1,427.15,453.16h1a111.85,111.85,0,1,0,223.7,0h1A113,113,0,0,1,540,566Z"/><path class="cls-19" d="M635.69,245.88h-1a94.69,94.69,0,0,0-189.38,0h-1a95.69,95.69,0,0,1,191.38,0Z"/><path class="cls-20" d="M601.12,245.88h-1a60.12,60.12,0,1,0-120.24,0h-1a61.12,61.12,0,1,1,122.24,0Z"/><path class="cls-21" d="M540,531.44a78.37,78.37,0,0,1-78.28-78.28h1a77.28,77.28,0,1,0,154.56,0h1A78.37,78.37,0,0,1,540,531.44Z"/></g></svg>