<svg xmlns="http://www.w3.org/2000/svg" xmlns:xlink="http://www.w3.org/1999/xlink" viewBox="0 0 1920 1080"><defs><style>.cls-1,.cls-12,.cls-13,.cls-15,.cls-16,.cls-17,.cls-18,.cls-3,.cls-4,.cls-6,.cls-7,.cls-8{fill:none;}.cls-2{fill:#082b96;}.cls-12,.cls-15,.cls-16,.cls-18,.cls-3,.cls-4,.cls-6,.cls-7{stroke:#fff;}.cls-3,.cls-4,.cls-6,.cls-7,.cls-8{stroke-miterlimit:10;}.cls-4{stroke-width:0.81px;stroke-dasharray:9.66 9.66;}.cls-5{fill:#fff;}.cls-6{stroke-width:2.66px;}.cls-7{stroke-width:0.81px;}.cls-8{stroke:#000;stroke-width:2px;}.cls-9{fill:#e4b85f;}.cls-10{fill:#252723;}.cls-11{fill:#ffe725;}.cls-12,.cls-13{stroke-width:0.22px;}.cls-13,.cls-17{stroke:#ffe725;}.cls-14{clip-path:url(#clip-path);}.cls-15{stroke-width:0.06px;}.cls-16,.cls-17,.cls-18{stroke-width:0.22px;}.cls-18{stroke-dasharray:0.61 0.61;}.cls-19{fill:#f5e12b;}</style><clipPath id="clip-path"><polygon class="cls-1" points="936.75 635.45 1015.29 590.1 1007.37 585.52 1003.31 583.18 1001.1 581.9 999.91 581.22 999.48 580.97 952.33 608.19 920.93 626.31 922.99 627.5 923.62 627.14 923.87 627.28 924.49 626.92 924.74 627.07 925.37 626.71 926.24 627.21 926.24 629.38 936.75 635.45"/></clipPath></defs><g id="Background"><rect class="cls-2" width="1920" height="1080"/></g><g id="Graphics"><line class="cls-3" y1="1010.95" x2="1920" y2="1010.95"/><line class="cls-4" x1="167.35" y1="69.05" x2="1920" y2="69.05"/><line class="cls-4" x1="167.35" y1="257.43" x2="1920" y2="257.43"/><line class="cls-4" x1="167.35" y1="445.81" x2="1920" y2="445.81"/><line class="cls-4" x1="167.35" y1="634.19" x2="1920" y2="634.19"/><line class="cls-4" x1="167.35" y1="822.57" x2="1920" y2="822.57"/><path class="cls-5" d="M67.94,815.57a9,9,0,0,1,1.38-5.3,4.81,4.81,0,0,1,7.72,0,10.73,10.73,0,0,1,0,10.6,4.83,4.83,0,0,1-7.73,0A9,9,0,0,1,67.94,815.57Zm7.72,4.18a10.45,10.45,0,0,0,0-8.35,2.81,2.81,0,0,0-4.94,0,8.16,8.16,0,0,0-.89,4.14,8.26,8.26,0,0,0,.87,4.18,2.7,2.7,0,0,0,2.47,1.46A2.73,2.73,0,0,0,75.66,819.75Z"/><path class="cls-5" d="M80.31,820.32h2.2v2.25h-2.2Z"/><path class="cls-5" d="M89.89,813.55a4.46,4.46,0,0,1,3.32,1.24,4.4,4.4,0,0,1,1.26,3.3,4.91,4.91,0,0,1-8.66,3,8.5,8.5,0,0,1-1.32-5.16,9.6,9.6,0,0,1,1.4-5.59,4.49,4.49,0,0,1,3.9-2,4.64,4.64,0,0,1,2.91.91,4.27,4.27,0,0,1,1.55,2.53l-1.9.32a3.37,3.37,0,0,0-1-1.68,2.54,2.54,0,0,0-1.65-.51,2.75,2.75,0,0,0-2.5,1.51,8.22,8.22,0,0,0-.9,4A3.83,3.83,0,0,1,87.82,814,4.5,4.5,0,0,1,89.89,813.55Zm-3.32,4.67a3,3,0,0,0,.85,2.2,3.12,3.12,0,0,0,4.33,0,3,3,0,0,0,.86-2.22,3.21,3.21,0,0,0-.79-2.3,3.27,3.27,0,0,0-4.4.06A3.16,3.16,0,0,0,86.57,818.22Z"/><path class="cls-5" d="M105.24,817.05v5.52h-1.77v-6.16a2.77,2.77,0,0,0-.57-1.87,2,2,0,0,0-1.61-.67,2.22,2.22,0,0,0-1.86.82,3.73,3.73,0,0,0-.64,2.36v5.52H97v-10h1.74v1.22a3.37,3.37,0,0,1,2.94-1.46,3.78,3.78,0,0,1,1.91.46,3,3,0,0,1,1.22,1.34,3.41,3.41,0,0,1,3.23-1.8,3.58,3.58,0,0,1,2.69,1,3.83,3.83,0,0,1,1,2.75v6.48h-1.78v-6.16a2.77,2.77,0,0,0-.57-1.87,2,2,0,0,0-1.62-.67,2.22,2.22,0,0,0-1.86.82A3.79,3.79,0,0,0,105.24,817.05Z"/><path class="cls-5" d="M76.64,634.19H68v-1.6h3.42v-9a3,3,0,0,1-1.6.38H67.9v-1.58h1.76a1.63,1.63,0,0,0,1.34-.53,2.61,2.61,0,0,0,.44-1.67h1.84v12.4h3.36Z"/><path class="cls-5" d="M78.35,631.93h2.2v2.26h-2.2Z"/><path class="cls-5" d="M90.24,623.91a2.22,2.22,0,0,0-.66-1.69,2.5,2.5,0,0,0-1.78-.63,2.71,2.71,0,0,0-2.26,1,4.43,4.43,0,0,0-.72,2.82L83,625.13a4.72,4.72,0,0,1,1.2-3.78A4.77,4.77,0,0,1,87.8,620a4.45,4.45,0,0,1,3.19,1.1,3.78,3.78,0,0,1,1.18,2.86,5.13,5.13,0,0,1-.71,2.52,12.24,12.24,0,0,1-2.31,2.72l-3.74,3.44h7.12v1.6h-9.6v-1.64l5-4.62a8.82,8.82,0,0,0,1.76-2.06A4,4,0,0,0,90.24,623.91Z"/><path class="cls-5" d="M103.19,628.67v5.52h-1.77V628a2.77,2.77,0,0,0-.58-1.88,2,2,0,0,0-1.6-.66,2.21,2.21,0,0,0-1.86.81,3.78,3.78,0,0,0-.64,2.37v5.52H95v-10H96.7v1.22A3.35,3.35,0,0,1,99.64,624a3.78,3.78,0,0,1,1.91.46,3.05,3.05,0,0,1,1.22,1.34A3.4,3.4,0,0,1,106,624a3.54,3.54,0,0,1,2.69,1,3.83,3.83,0,0,1,1,2.75v6.48h-1.78V628a2.77,2.77,0,0,0-.58-1.88,2,2,0,0,0-1.61-.66,2.24,2.24,0,0,0-1.86.81A3.84,3.84,0,0,0,103.19,628.67Z"/><path class="cls-5" d="M76.64,445.81H68v-1.6h3.42v-9a3,3,0,0,1-1.6.37H67.9V434h1.76a1.63,1.63,0,0,0,1.34-.53,2.61,2.61,0,0,0,.44-1.67h1.84v12.4h3.36Z"/><path class="cls-5" d="M78.35,443.55h2.2v2.26h-2.2Z"/><path class="cls-5" d="M90.62,438.43a3.39,3.39,0,0,1,1.76,1.31,3.72,3.72,0,0,1,.61,2.15,3.76,3.76,0,0,1-1.39,3A5.35,5.35,0,0,1,88,446.05a5.53,5.53,0,0,1-3.66-1.14,3.75,3.75,0,0,1-1.36-3,3.56,3.56,0,0,1,.63-2.07,3.75,3.75,0,0,1,1.78-1.37,3.19,3.19,0,0,1-1.52-1.21,3.42,3.42,0,0,1-.53-1.91,3.34,3.34,0,0,1,1.28-2.72,5.19,5.19,0,0,1,3.38-1,5.26,5.26,0,0,1,3.4,1,3.67,3.67,0,0,1,.72,4.63A3.29,3.29,0,0,1,90.62,438.43Zm.46,3.39a2.4,2.4,0,0,0-.84-1.91,3.34,3.34,0,0,0-2.25-.72,3.39,3.39,0,0,0-2.28.72,2.37,2.37,0,0,0-.85,1.91,2.49,2.49,0,0,0,.84,2,3.38,3.38,0,0,0,2.29.72,3.3,3.3,0,0,0,2.27-.73A2.49,2.49,0,0,0,91.08,441.82Zm-5.89-6.45a2.18,2.18,0,0,0,.76,1.72,3.36,3.36,0,0,0,4,0,2.21,2.21,0,0,0,.76-1.72,2.06,2.06,0,0,0-.75-1.69,3.06,3.06,0,0,0-2-.61,3.16,3.16,0,0,0-2.06.61A2.06,2.06,0,0,0,85.19,435.37Z"/><path class="cls-5" d="M103.84,440.29v5.52h-1.78v-6.16a2.82,2.82,0,0,0-.57-1.88,2,2,0,0,0-1.61-.66,2.24,2.24,0,0,0-1.86.81,3.84,3.84,0,0,0-.64,2.37v5.52H95.61v-10h1.73V437a3.35,3.35,0,0,1,2.94-1.46,3.73,3.73,0,0,1,1.91.46,3,3,0,0,1,1.23,1.34,3.39,3.39,0,0,1,3.22-1.8,3.53,3.53,0,0,1,2.69,1,3.78,3.78,0,0,1,1,2.74v6.49h-1.77v-6.16a2.82,2.82,0,0,0-.58-1.88,2,2,0,0,0-1.61-.66,2.21,2.21,0,0,0-1.86.81A3.78,3.78,0,0,0,103.84,440.29Z"/><path class="cls-5" d="M76.64,522.17H68v-1.6h3.42v-9a3.13,3.13,0,0,1-1.6.37H67.9v-1.58h1.76a1.63,1.63,0,0,0,1.34-.53,2.61,2.61,0,0,0,.44-1.67h1.84v12.4h3.36Z"/><path class="cls-5" d="M78.35,519.92h2.2v2.25h-2.2Z"/><path class="cls-5" d="M88.18,513.21a4.41,4.41,0,0,1,3.22,1.17,4.2,4.2,0,0,1,1.19,3.11,4.58,4.58,0,0,1-4.94,4.93,5.72,5.72,0,0,1-3.38-.94,3.94,3.94,0,0,1-1.62-2.63l1.92-.26a2.68,2.68,0,0,0,1,1.68,3.27,3.27,0,0,0,2,.58,3,3,0,0,0,2.29-.85,3.39,3.39,0,0,0,.8-2.43,2.94,2.94,0,0,0-.71-2.09,2.66,2.66,0,0,0-2-.75,3.78,3.78,0,0,0-1.71.41,3.6,3.6,0,0,0-1.32,1.07l-1.66-.62,1.07-7.42h7.25v1.6H85.85l-.7,4.52A4.57,4.57,0,0,1,88.18,513.21Z"/><path class="cls-5" d="M99.81,513.21a4.41,4.41,0,0,1,3.22,1.17,4.2,4.2,0,0,1,1.19,3.11,4.58,4.58,0,0,1-4.94,4.93,5.72,5.72,0,0,1-3.38-.94,3.94,3.94,0,0,1-1.62-2.63l1.92-.26a2.68,2.68,0,0,0,1,1.68,3.27,3.27,0,0,0,2,.58,3,3,0,0,0,2.29-.85,3.39,3.39,0,0,0,.8-2.43,2.9,2.9,0,0,0-.71-2.09,2.66,2.66,0,0,0-2-.75,3.78,3.78,0,0,0-1.71.41,3.6,3.6,0,0,0-1.32,1.07l-1.66-.62L96,508.17h7.25v1.6H97.48l-.7,4.52A4.57,4.57,0,0,1,99.81,513.21Z"/><path class="cls-5" d="M114.82,516.65v5.52h-1.77V516a2.82,2.82,0,0,0-.57-1.88,2,2,0,0,0-1.61-.66,2.22,2.22,0,0,0-1.86.82,3.73,3.73,0,0,0-.64,2.36v5.52h-1.78v-10h1.74v1.22a3.37,3.37,0,0,1,2.94-1.46,3.78,3.78,0,0,1,1.91.46,3,3,0,0,1,1.22,1.34,3.41,3.41,0,0,1,3.23-1.8,3.54,3.54,0,0,1,2.69,1,3.83,3.83,0,0,1,1,2.75v6.48h-1.78V516a2.82,2.82,0,0,0-.57-1.88,2.05,2.05,0,0,0-1.62-.66,2.22,2.22,0,0,0-1.86.82A3.79,3.79,0,0,0,114.82,516.65Z"/><path class="cls-5" d="M75.2,247.14a2.22,2.22,0,0,0-.67-1.68,2.5,2.5,0,0,0-1.78-.63,2.71,2.71,0,0,0-2.26,1,4.34,4.34,0,0,0-.71,2.82l-1.84-.24a4.7,4.7,0,0,1,1.2-3.78,4.77,4.77,0,0,1,3.61-1.4,4.44,4.44,0,0,1,3.19,1.09,3.78,3.78,0,0,1,1.18,2.86,5.07,5.07,0,0,1-.71,2.52,12,12,0,0,1-2.31,2.73l-3.74,3.44h7.12v1.6h-9.6v-1.64l5-4.62a8.82,8.82,0,0,0,1.76-2.06A4,4,0,0,0,75.2,247.14Z"/><path class="cls-5" d="M79.73,255.17h2.19v2.26H79.73Z"/><path class="cls-5" d="M91.06,254h-7.3v-1.35l6.79-9.2H93v9H95V254H93v3.46h-1.9Zm0-8.52L86,252.37h5.11Z"/><path class="cls-5" d="M105.46,251.91v5.52h-1.78v-6.16a2.8,2.8,0,0,0-.57-1.88,2,2,0,0,0-1.61-.66,2.24,2.24,0,0,0-1.86.81,3.84,3.84,0,0,0-.64,2.37v5.52H97.23v-10H99v1.22a3.36,3.36,0,0,1,2.94-1.47,3.73,3.73,0,0,1,1.91.47A3,3,0,0,1,105,249a3.4,3.4,0,0,1,3.22-1.81,3.57,3.57,0,0,1,2.69,1,3.8,3.8,0,0,1,1,2.75v6.49h-1.77v-6.16a2.8,2.8,0,0,0-.58-1.88,2,2,0,0,0-1.61-.66,2.24,2.24,0,0,0-1.86.81A3.78,3.78,0,0,0,105.46,251.91Z"/><path class="cls-5" d="M75.76,66.88A2.21,2.21,0,0,0,75,65.12a3.05,3.05,0,0,0-2-.62H71.74V63h1.2a2.28,2.28,0,0,0,1.75-.66,2.58,2.58,0,0,0,.62-1.86,2,2,0,0,0-.68-1.61,2.71,2.71,0,0,0-1.84-.58,2.87,2.87,0,0,0-2.11.77,3.08,3.08,0,0,0-.85,2.15l-1.73-.39a3.84,3.84,0,0,1,1.35-3,5,5,0,0,1,3.38-1.15,4.8,4.8,0,0,1,3.19,1,3.37,3.37,0,0,1,1.18,2.68,3.66,3.66,0,0,1-.52,2,3.24,3.24,0,0,1-1.45,1.28A3.59,3.59,0,0,1,77,64.9a3.28,3.28,0,0,1,.62,2A4,4,0,0,1,76.36,70a5,5,0,0,1-3.5,1.19,5.91,5.91,0,0,1-3.6-1,3.76,3.76,0,0,1-1.56-2.86l1.9-.42a2.89,2.89,0,0,0,.94,2,3.3,3.3,0,0,0,2.25.71A3.07,3.07,0,0,0,75,68.91,2.62,2.62,0,0,0,75.76,66.88Z"/><path class="cls-5" d="M88.47,65.46V71H86.69V64.82a2.82,2.82,0,0,0-.57-1.88,2,2,0,0,0-1.61-.66,2.22,2.22,0,0,0-1.86.82A3.73,3.73,0,0,0,82,65.46V71H80.23V61H82V62.2a3.37,3.37,0,0,1,2.94-1.46,3.75,3.75,0,0,1,1.91.46,3,3,0,0,1,1.23,1.34,3.38,3.38,0,0,1,3.22-1.8,3.53,3.53,0,0,1,2.69,1,3.78,3.78,0,0,1,1,2.75V71H93.15V64.82a2.82,2.82,0,0,0-.57-1.88A2,2,0,0,0,91,62.28a2.19,2.19,0,0,0-1.86.82A3.73,3.73,0,0,0,88.47,65.46Z"/><path class="cls-5" d="M220.91,489l0,66.39h0a33.87,33.87,0,0,0,0-66.39Z"/><polyline class="cls-6" points="255.25 577.57 220.9 555.37 220.88 555.37 181.15 529.69 169.51 522.18 181.15 514.66 220.91 488.98 255.25 466.78"/><polygon points="693.11 489.95 555.89 489.95 518.69 554.39 655.91 554.39 693.11 489.95"/><polyline class="cls-7" points="587.72 512.37 578.52 521.57 569.31 512.37"/><line class="cls-7" x1="578.52" y1="521.57" x2="578.52" y2="503.38"/><path class="cls-5" d="M595.84,541,594.51,538h-2V541h-.89V533.9h2.77a2.4,2.4,0,0,1,1.79.62,2,2,0,0,1,.56,1.44,1.86,1.86,0,0,1-.54,1.39,2,2,0,0,1-.84.5l1.41,3.11Zm-1.4-6.25h-1.88v2.48h1.88c.84,0,1.44-.33,1.44-1.23S595.28,534.71,594.44,534.71Z"/><path class="cls-5" d="M601.36,541l-.07-.77a1.64,1.64,0,0,1-1.5.89,1.61,1.61,0,0,1-1.72-1.85v-3.31h.85v3.19c0,.75.27,1.2,1.07,1.2a1.14,1.14,0,0,0,.84-.38,2,2,0,0,0,.42-1.39v-2.62h.84v5Z"/><path class="cls-5" d="M607.83,542.72a3,3,0,0,1-2,.59,2.65,2.65,0,0,1-1.91-.59,1.18,1.18,0,0,1-.36-.89,1.24,1.24,0,0,1,.72-1.12.91.91,0,0,1-.59-.85,1.09,1.09,0,0,1,.67-1,1.79,1.79,0,0,1-.58-1.31,1.66,1.66,0,0,1,.48-1.22,2,2,0,0,1,1.49-.57,2.14,2.14,0,0,1,1.16.3,1.07,1.07,0,0,1,1-.71l.24,0v.69H608a.58.58,0,0,0-.61.46,1.6,1.6,0,0,1,.33,1,1.79,1.79,0,0,1-.46,1.21,2,2,0,0,1-1.51.6,2.15,2.15,0,0,1-.84-.14.57.57,0,0,0-.43.45c0,.43.44.48.75.49h1a2.35,2.35,0,0,1,1.67.53,1.44,1.44,0,0,1,0,2Zm-2-1.81h-.91a.88.88,0,0,0-.64.8.71.71,0,0,0,.21.53,1.9,1.9,0,0,0,1.34.34,2.07,2.07,0,0,0,1.38-.35.71.71,0,0,0,.21-.52C607.43,540.85,606.48,540.91,605.84,540.91Zm-.14-4.43a1.12,1.12,0,1,0,0,2.23,1.1,1.1,0,0,0,1.15-1.13A1.06,1.06,0,0,0,605.7,536.48Z"/><path class="cls-5" d="M617.56,541h-.94L615,535.27,613.37,541h-.94L611,533.9h.82l1.13,5.76L614.6,534h.8l1.63,5.65,1.13-5.75H619Z"/><path class="cls-5" d="M623.44,540.5a2.12,2.12,0,0,1-1.52.59,2.15,2.15,0,0,1-1.53-.59,3.34,3.34,0,0,1,0-4.12,2.15,2.15,0,0,1,1.53-.59,2.12,2.12,0,0,1,1.52.59,3.31,3.31,0,0,1,0,4.12Zm-.62-3.62a1.21,1.21,0,0,0-.9-.36,1.25,1.25,0,0,0-.91.36,2.82,2.82,0,0,0,0,3.12,1.25,1.25,0,0,0,.91.36,1.21,1.21,0,0,0,.9-.36,2.82,2.82,0,0,0,0-3.12Z"/><path class="cls-5" d="M627.88,536.71a1.43,1.43,0,0,0-1,.39,2.27,2.27,0,0,0-.46,1.62V541h-.84v-5h.75l.07.89a1.57,1.57,0,0,1,1.51-.92,2.47,2.47,0,0,1,.39,0v.83A2.32,2.32,0,0,0,627.88,536.71Z"/><path class="cls-5" d="M632.84,541l-1.57-2.43-1,1.08V541h-.85v-7.19h.85v4.69l2.28-2.54h1l-1.8,2,2,3.05Z"/><path class="cls-5" d="M638.17,540.52a2.24,2.24,0,0,1-1.64.57,2.26,2.26,0,0,1-1.64-.57,1.6,1.6,0,0,1-.48-1.15h.84a1,1,0,0,0,.41.78,1.6,1.6,0,0,0,.91.23,1.33,1.33,0,0,0,.92-.28.7.7,0,0,0,.25-.54c0-.38-.27-.65-.78-.72l-1.14-.15a1.32,1.32,0,0,1-1.24-1.36,1.45,1.45,0,0,1,.42-1,2.06,2.06,0,0,1,1.49-.56,2,2,0,0,1,1.6.64,1.44,1.44,0,0,1,.36,1h-.85a.89.89,0,0,0-.29-.62,1.15,1.15,0,0,0-.82-.27,1.31,1.31,0,0,0-.59.1.76.76,0,0,0-.51.67c0,.42.26.6.68.66s.68.08,1.22.17a1.43,1.43,0,0,1,.88,2.42Z"/><path class="cls-5" d="M643.25,541v-3.2c0-.75-.3-1.2-1.1-1.2a1.25,1.25,0,0,0-1.1.77,3.34,3.34,0,0,0-.18,1.29V541H640v-7.19h.84v2.82a1.72,1.72,0,0,1,1.48-.8,1.63,1.63,0,0,1,1.75,1.85V541Z"/><path class="cls-5" d="M649.25,540.5a2.25,2.25,0,0,1-3,0,3.31,3.31,0,0,1,0-4.12,2.25,2.25,0,0,1,3,0,3.31,3.31,0,0,1,0,4.12Zm-.61-3.62a1.33,1.33,0,0,0-1.82,0,2.88,2.88,0,0,0,0,3.12,1.33,1.33,0,0,0,1.82,0,2.82,2.82,0,0,0,0-3.12Z"/><path class="cls-5" d="M655.13,540.59a1.94,1.94,0,0,1-1.38.51,1.77,1.77,0,0,1-1.47-.72v2.74h-.84v-7.19h.74l.06.66a1.77,1.77,0,0,1,1.51-.79,1.9,1.9,0,0,1,1.42.55,3.37,3.37,0,0,1,0,4.24Zm-1.52-4.07a1.17,1.17,0,0,0-.82.33,2.57,2.57,0,0,0,0,3.2,1.17,1.17,0,0,0,.82.33c1.13,0,1.42-1,1.42-1.93S654.74,536.52,653.61,536.52Z"/><path class="cls-5" d="M629.09,521.64a2.18,2.18,0,1,0,2.17,2.18A2.19,2.19,0,0,0,629.09,521.64Zm0,2.9a.73.73,0,0,1-.73-.72.73.73,0,0,1,.73-.73.73.73,0,0,1,.72.73A.72.72,0,0,1,629.09,524.54Z"/><path class="cls-5" d="M643.58,526a1.45,1.45,0,0,1-1.45,1.45v1.45A2.9,2.9,0,0,0,645,526v-2.9h-1.45Z"/><path class="cls-5" d="M653.73,521.64H651.5l2.38-2.38-1-1-3.48,3.47v1.39h4.35a.73.73,0,0,1,.73.73v.72h-6.53V518h-1.45v8h9.43v-2.17A2.19,2.19,0,0,0,653.73,521.64Z"/><path class="cls-5" d="M642.13,526v-2.17a2.18,2.18,0,0,0-2.17-2.18h-2.24l2.39-2.38-1-1-3.47,3.47v1.39H640a.73.73,0,0,1,.73.73v.72h-6.53V518h-1.45v8h9.42Z"/><rect class="cls-5" x="635.16" y="517.29" width="3.08" height="1.45" transform="translate(-179.81 601.94) rotate(-45)"/><path class="cls-5" d="M621.84,521.64a2.19,2.19,0,0,0-2.18,2.18,2.14,2.14,0,0,0,.13.72h-1.58v-1.45h-1.45V526a1.45,1.45,0,0,1-1.45,1.45v1.45a2.9,2.9,0,0,0,2.9-2.9h3.63a2.18,2.18,0,0,0,0-4.35Zm0,2.9a.73.73,0,0,1-.73-.72.73.73,0,0,1,.73-.73.73.73,0,0,1,.72.73A.72.72,0,0,1,621.84,524.54Z"/><rect class="cls-5" x="621.11" y="518.74" width="1.45" height="1.43"/><polygon class="cls-5" points="612.41 518.74 610.96 518.74 610.96 520.19 609.51 520.19 609.51 521.64 612.41 521.64 612.41 518.74"/><path class="cls-5" d="M615.31,522.37h-1.45v1.45a.72.72,0,0,1-.72.72.73.73,0,0,1-.73-.72v-.73H611v.75a.7.7,0,0,1-.7.7h-1.47v-1.45h-1.45v3.26a1.82,1.82,0,1,1-3.63,0v-1.81h-1.45v1.81a3.27,3.27,0,1,0,6.53,0V526h1.47a2.14,2.14,0,0,0,1.43-.55,2.19,2.19,0,0,0,1.45.55,2.17,2.17,0,0,0,2.17-2.17Z"/><rect x="1100.05" y="179.94" width="338.99" height="77.48"/><polygon class="cls-5" points="1389.94 198.71 1388.73 199.92 1406.65 217.83 1370.42 217.83 1370.42 219.54 1406.64 219.54 1388.73 237.45 1389.94 238.66 1409.92 218.68 1389.94 198.71"/><path class="cls-5" d="M1197.28,226.74v-4c3.16-2.06,5.31-6,5.78-10.41a15.85,15.85,0,0,0,1.28-6.28c0-7.39-4.94-13.46-11.17-14v-3.89h-1.71v3.89c-6.23.51-11.17,6.58-11.17,14a15.85,15.85,0,0,0,1.28,6.28c.47,4.43,2.62,8.35,5.77,10.41v4a18.55,18.55,0,0,0-13.52,17.81v.85h37v-.85A18.55,18.55,0,0,0,1197.28,226.74Zm-5-33c5.69,0,10.32,5.52,10.32,12.3v.15c-1.42-5.51-5.51-9.51-10.32-9.51s-8.89,4-10.31,9.51V206C1182,199.24,1186.63,193.72,1192.31,193.72Zm-9.14,16.73c0-6.66,4.1-12.08,9.14-12.08s9.14,5.42,9.14,12.08c0,4.77-2.14,9.11-5.45,11.05l-.42.24v4.82l-3.27,3.26-3.26-3.26v-4.82l-.42-.24C1185.32,219.56,1183.17,215.22,1183.17,210.45Zm5.15,17.79,2.79,2.79-5.53,5.52v7.14h-10A16.85,16.85,0,0,1,1188.32,228.24Zm-1,15.45v-6.43l9-9a16.84,16.84,0,0,1,12.78,15.45Z"/><path class="cls-5" d="M1159.06,229.24V209.07h0a1.21,1.21,0,0,0,0-.19c0-.2,0-.41,0-.62,0-.06,0-.13,0-.19s0-.32,0-.48l0-.22-.06-.45c0-.08,0-.15,0-.22s0-.3-.08-.45,0-.14,0-.2-.07-.31-.1-.46,0-.12,0-.18l-.12-.47c0-.05,0-.11-.05-.16s-.1-.34-.16-.52l0-.09a14.86,14.86,0,0,0-.72-1.79v0l-.27-.53,0-.09-.26-.45-.06-.11-.25-.41a1,1,0,0,1-.08-.11c-.08-.13-.17-.26-.26-.39l-.08-.1-.09-.14V192h-16.14V200l-.09.14-.08.1-.27.39a.41.41,0,0,1-.07.11l-.25.42a.61.61,0,0,1-.07.1l-.25.45,0,.09a5.28,5.28,0,0,0-.27.53v0a16.75,16.75,0,0,0-.73,1.79s0,.06,0,.09c-.06.18-.12.35-.17.52a.94.94,0,0,1,0,.16c0,.15-.09.31-.12.47a1.21,1.21,0,0,0,0,.18c0,.15-.07.3-.1.46a1.18,1.18,0,0,0,0,.2c0,.15-.06.3-.08.45a1.43,1.43,0,0,0,0,.22l-.06.45,0,.22c0,.15,0,.32,0,.48s0,.13,0,.19c0,.21,0,.42,0,.62v.19h0v20.17a18.94,18.94,0,0,0-7.82,15.3v.85h37.78v-.85A18.94,18.94,0,0,0,1159.06,229.24Zm-1.71-1.1a18.18,18.18,0,0,0-4.3-1.8V222.2a12.61,12.61,0,0,0,4.3-5Zm-2.75-27.23c.16.22.32.44.47.67l.08.13c.14.22.28.45.41.68a1.09,1.09,0,0,0,.08.15c.13.25.25.49.37.74a1,1,0,0,0,0,.1c.11.24.21.49.3.74l.06.13c.1.27.18.54.27.81a1.05,1.05,0,0,1,0,.19c.08.27.16.55.22.83a.94.94,0,0,0,0,.16c.06.29.12.58.16.88v0c0,.31.09.62.12.94a.38.38,0,0,0,0,.1H1157a8.17,8.17,0,0,1-8.12-7.31h5.71Zm-7.51-1.71H1143a7.48,7.48,0,0,1,10,0h-5.88Zm-5.46-1v-4.46h12.72v4.46h0a9.18,9.18,0,0,0-12.72,0Zm-2.93,10c0-.32.07-.63.12-.94v0c0-.3.11-.59.17-.88a.94.94,0,0,1,0-.16c.06-.28.13-.56.21-.83l.06-.19c.08-.27.17-.54.27-.8l.06-.15c.09-.24.19-.48.29-.72a.37.37,0,0,0,0-.11c.12-.25.24-.49.37-.73a1.29,1.29,0,0,1,.09-.16c.12-.23.26-.46.4-.68l.09-.14c.15-.22.3-.44.46-.65v0h5.7a8.17,8.17,0,0,1-8.12,7.31h-.28S1138.7,208.14,1138.7,208.11Zm.27,1.81a9.88,9.88,0,0,0,9-5.86,9.88,9.88,0,0,0,9,5.86h.34c-.07,4.79-2.25,9.12-5.58,11.07l-.43.25v4.92L1148,229.5l-3.35-3.35v-4.92l-.43-.25c-3.34-1.95-5.51-6.28-5.58-11.07Zm-.35,7.24a12.63,12.63,0,0,0,4.31,5v4.14a18.43,18.43,0,0,0-4.31,1.8Zm5.3,10.68,2.86,2.87-5.66,5.66v7.31h-10.29A17.24,17.24,0,0,1,1143.92,227.84Zm-1.09,15.84v-6.61l9.23-9.23a17.24,17.24,0,0,1,13.09,15.84Z"/><line class="cls-8" x1="1092.1" y1="257.43" x2="1092.1" y2="70.98"/><line class="cls-8" x1="1446.99" y1="257.43" x2="1446.99" y2="69.05"/><line class="cls-8" x1="1068.38" y1="69.05" x2="1920" y2="69.05"/><polygon class="cls-9" points="1686.22 547.08 1686.22 486 1633.32 455.46 1580.42 486 1580.42 547.08 1633.32 577.62 1686.22 547.08"/><path class="cls-10" d="M1676.65,511.53H1650.6l20.91-12.07-4.3-7.46-33.84,19.53h-41.53v9.91h24.37l-21.09,12.17,4.31,7.47,34-19.64h43.2Zm-81.12,6.22v-2.53H1627l-4.36,2.53Zm48.68-2.53h12.86v2.53h-17.23Zm28.75,2.53h-12.2v-2.53H1673Z"/><path class="cls-10" d="M1600.92,496.27v-5.83a5.4,5.4,0,0,1,5.39-5.39v-3.69a9.09,9.09,0,0,0-9.08,9.08v5.83a5.4,5.4,0,0,1-5.39,5.39v3.69A9.09,9.09,0,0,0,1600.92,496.27Z"/><path d="M960,416.77a64,64,0,0,0-64,64V794.3h128V480.77A64,64,0,0,0,960,416.77Z"/><path class="cls-5" d="M991,744.63l-.56-1.23h-.82v1.23h-.37v-3h1.16a1,1,0,0,1,.75.26.86.86,0,0,1,.23.6.81.81,0,0,1-.22.59,1,1,0,0,1-.36.21l.59,1.3Zm-.59-2.62h-.79v1h.79c.35,0,.6-.14.6-.52S990.76,742,990.41,742Z"/><path class="cls-5" d="M993.63,743.69h-1.49a.78.78,0,0,0,.2.53.57.57,0,0,0,.39.15.53.53,0,0,0,.39-.14.47.47,0,0,0,.13-.23h.34a.78.78,0,0,1-.32.52,1,1,0,0,1-.54.16.9.9,0,0,1-.7-.32,1.2,1.2,0,0,1-.26-.78,1.23,1.23,0,0,1,.16-.67.9.9,0,0,1,.8-.45.88.88,0,0,1,.64.27,1.07,1.07,0,0,1,.26.75Zm-.49-.73a.5.5,0,0,0-.41-.2.59.59,0,0,0-.58.62h1.12A.68.68,0,0,0,993.14,743Z"/><path class="cls-5" d="M995.62,744.45a.82.82,0,0,1-.61.23.88.88,0,0,1-.77-.4,1.23,1.23,0,0,1-.18-.71,1.26,1.26,0,0,1,.18-.71.92.92,0,0,1,1.37-.17.83.83,0,0,1,.25.54h-.36a.54.54,0,0,0-.15-.33.52.52,0,0,0-.35-.13.51.51,0,0,0-.36.14,1.14,1.14,0,0,0,0,1.32.51.51,0,0,0,.36.14.48.48,0,0,0,.5-.45h.36A.77.77,0,0,1,995.62,744.45Z"/><path class="cls-5" d="M998.14,743.69h-1.5a.78.78,0,0,0,.21.53.53.53,0,0,0,.39.15.55.55,0,0,0,.39-.14.46.46,0,0,0,.12-.23h.35a.79.79,0,0,1-.33.52,1,1,0,0,1-.53.16.9.9,0,0,1-.7-.32,1.16,1.16,0,0,1-.27-.78,1.24,1.24,0,0,1,.17-.67.9.9,0,0,1,.79-.45.86.86,0,0,1,.64.27,1.13,1.13,0,0,1,.27.75Zm-.49-.73a.5.5,0,0,0-.42-.2.59.59,0,0,0-.58.62h1.13A.75.75,0,0,0,997.65,743Z"/><path class="cls-5" d="M1000.28,744.47a.82.82,0,0,1-.58.21.71.71,0,0,1-.61-.3v1.15h-.36v-3h.32l0,.28a.72.72,0,0,1,.63-.33.78.78,0,0,1,.59.23,1.19,1.19,0,0,1,.31.87A1.25,1.25,0,0,1,1000.28,744.47Zm-.64-1.7a.46.46,0,0,0-.34.14.84.84,0,0,0-.23.67.86.86,0,0,0,.23.67.5.5,0,0,0,.34.13c.47,0,.6-.42.6-.8S1000.11,742.77,999.64,742.77Z"/><path class="cls-5" d="M1001.86,744.65a.52.52,0,0,1-.58-.57v-1.26h-.41v-.3h.41V742l.35-.08v.62h.63v.3h-.63V744c0,.21.09.29.29.29a2.39,2.39,0,0,0,.36,0v.31A1.91,1.91,0,0,1,1001.86,744.65Z"/><path class="cls-5" d="M1002.76,742v-.41h.42V742Zm0,2.6v-2.11h.36v2.11Z"/><path class="cls-5" d="M1005.34,744.43a.94.94,0,0,1-1.28,0,1.38,1.38,0,0,1,0-1.72.94.94,0,0,1,1.28,0,1.38,1.38,0,0,1,0,1.72Zm-.26-1.51a.56.56,0,0,0-.76,0,.94.94,0,0,0-.2.65,1,1,0,0,0,.2.66.56.56,0,0,0,.76,0,1,1,0,0,0,.2-.66A.94.94,0,0,0,1005.08,742.92Z"/><path class="cls-5" d="M1007.6,744.63v-1.34c0-.32-.13-.51-.47-.51a.52.52,0,0,0-.45.33,1.39,1.39,0,0,0-.08.54v1h-.35v-2.11h.3l0,.31a.72.72,0,0,1,.64-.37.68.68,0,0,1,.73.78v1.39Z"/><rect class="cls-5" x="1003.51" y="734.27" width="0.74" height="0.74"/><path class="cls-5" d="M1007.21,736.12v1.11h-1.85v-.37a1.11,1.11,0,0,0-1.11-1.11h-.74v.74h.74a.36.36,0,0,1,.37.37v.37h-1.11V738H1008v-1.85Z"/><polygon class="cls-5" points="1005.73 739.45 1006.47 739.45 1006.47 740.19 1007.21 740.19 1007.21 739.45 1007.21 738.71 1005.73 738.71 1005.73 739.45"/><path class="cls-5" d="M1002.77,738v-1.85H1002v1.11h-1.85v-.74h-.74V738a.74.74,0,0,1-.74.74v.74a1.48,1.48,0,0,0,1.48-1.48Z"/><rect class="cls-5" x="1001.29" y="738.71" width="1.48" height="0.74"/><polygon class="cls-5" points="996.86 733.9 996.12 733.9 996.12 734.64 995.38 734.64 995.38 735.38 996.86 735.38 996.86 733.9"/><path class="cls-5" d="M997.6,736.86a.38.38,0,0,1-.37.37.37.37,0,0,1-.37-.37v-.37h-.74v.37a.38.38,0,0,1-.37.37H995v-.74h-.75v1.66a.92.92,0,1,1-1.84,0v-.92h-.74v.92a1.66,1.66,0,1,0,3.32,0V738h.75a1.11,1.11,0,0,0,.74-.29,1.07,1.07,0,0,0,.74.29,1.11,1.11,0,0,0,1.11-1.11v-.74h-.74Z"/><path class="cls-5" d="M1014.09,738v-2.28l-.64.46v-.57l.72-.51h.44V738Z"/><path class="cls-5" d="M997.25,759.21v-3h.37v2.6H999v.35Z"/><path class="cls-5" d="M1000.83,759a1,1,0,0,1-1.27,0,1.4,1.4,0,0,1,0-1.73,1,1,0,0,1,1.27,0,1.4,1.4,0,0,1,0,1.73Zm-.26-1.52a.49.49,0,0,0-.37-.15.49.49,0,0,0-.38.15,1,1,0,0,0-.2.66.94.94,0,0,0,.2.65.49.49,0,0,0,.38.15.49.49,0,0,0,.37-.15.94.94,0,0,0,.2-.65A1,1,0,0,0,1000.57,757.5Z"/><path class="cls-5" d="M1003.3,759a.75.75,0,0,1-.59.23.72.72,0,0,1-.63-.33l0,.28h-.31v-3h.36v1.15a.73.73,0,0,1,.61-.3.84.84,0,0,1,.58.21,1.25,1.25,0,0,1,.32.9A1.23,1.23,0,0,1,1003.3,759Zm-.65-1.68a.5.5,0,0,0-.34.13.87.87,0,0,0-.23.68.86.86,0,0,0,.23.67.5.5,0,0,0,.34.13c.47,0,.6-.42.6-.8S1003.12,757.35,1002.65,757.35Z"/><path class="cls-5" d="M1005.76,759a.78.78,0,0,1-.6.23.74.74,0,0,1-.63-.33l0,.28h-.31v-3h.35v1.15a.73.73,0,0,1,.61-.3.82.82,0,0,1,.58.21,1.21,1.21,0,0,1,.32.9A1.23,1.23,0,0,1,1005.76,759Zm-.65-1.68a.53.53,0,0,0-.35.13.91.91,0,0,0-.23.68.9.9,0,0,0,.23.67.53.53,0,0,0,.35.13c.47,0,.59-.42.59-.8S1005.58,757.35,1005.11,757.35Z"/><path class="cls-5" d="M1007.31,759.64a.58.58,0,0,1-.57.45,1.18,1.18,0,0,1-.33,0v-.31a.9.9,0,0,0,.25,0,.31.31,0,0,0,.32-.22l.13-.35-.84-2.11h.4l.62,1.66.59-1.66h.38Z"/><path class="cls-5" d="M1013.23,752.55v-.41l1.13-1.35a.59.59,0,0,0,.15-.37.34.34,0,0,0-.37-.36.38.38,0,0,0-.39.41h-.53a.83.83,0,0,1,.92-.87.82.82,0,0,1,.9.81,1.19,1.19,0,0,1-.32.71l-.8,1h1.16v.47Z"/><path class="cls-5" d="M1014.13,767.19a.93.93,0,0,1-1-.89h.52a.44.44,0,0,0,.47.43.42.42,0,0,0,.45-.43.44.44,0,0,0-.5-.44h-.22v-.45h.22c.28,0,.44-.12.44-.39a.38.38,0,0,0-.39-.38c-.26,0-.45.13-.45.39h-.52a.88.88,0,0,1,1-.85.85.85,0,0,1,.92.83.65.65,0,0,1-.42.62.69.69,0,0,1,.48.68A.88.88,0,0,1,1014.13,767.19Z"/><rect class="cls-5" x="1003.51" y="753.29" width="0.74" height="0.74"/><polygon class="cls-5" points="1007.21 748.48 1007.21 751.81 1006.47 751.81 1006.47 748.48 1005.73 748.48 1005.73 752.55 1007.95 752.55 1007.95 748.48 1007.21 748.48"/><path class="cls-5" d="M1004.25,751.81h-3.7v.74H1002v.74h-1.48a.74.74,0,0,1-.74-.74v-.74h-.74v.74a1.48,1.48,0,0,0,1.48,1.48h2.22v-1.48H1005V750.7h-.74Z"/><path class="cls-5" d="M921.8,759.21h-.4l-.67-2.38-.69,2.38h-.39l-.59-3h.35l.47,2.4.68-2.36h.33l.69,2.36.47-2.4h.33Z"/><path class="cls-5" d="M924.39,759.24a.3.3,0,0,1-.3-.32h0a.77.77,0,0,1-.68.34.66.66,0,0,1-.72-.65c0-.27.17-.62.75-.65l.64,0v-.16a.45.45,0,0,0-.11-.32.62.62,0,0,0-.73,0,.33.33,0,0,0-.1.25h-.35a.61.61,0,0,1,.18-.44.9.9,0,0,1,.65-.22.72.72,0,0,1,.81.73v1c0,.11,0,.14.11.14h.09v.26A.43.43,0,0,1,924.39,759.24Zm-.32-1-.57,0c-.21,0-.46.11-.46.38s.12.36.42.36a.61.61,0,0,0,.43-.17.72.72,0,0,0,.18-.48Z"/><path class="cls-5" d="M926.13,757.43a.57.57,0,0,0-.4.17.93.93,0,0,0-.19.67v.94h-.35V757.1h.31l0,.37a.64.64,0,0,1,.63-.38h.16v.35A.62.62,0,0,0,926.13,757.43Z"/><path class="cls-5" d="M928.44,758.27H927a.78.78,0,0,0,.2.53.51.51,0,0,0,.39.15.51.51,0,0,0,.39-.14.38.38,0,0,0,.12-.23h.35a.78.78,0,0,1-.33.53.94.94,0,0,1-.53.15.89.89,0,0,1-.7-.31,1.2,1.2,0,0,1-.27-.79,1.24,1.24,0,0,1,.17-.67.89.89,0,0,1,.79-.44.83.83,0,0,1,.64.27,1.12,1.12,0,0,1,.27.74Zm-.49-.73a.5.5,0,0,0-.42-.19.59.59,0,0,0-.58.62h1.13A.75.75,0,0,0,928,757.54Z"/><path class="cls-5" d="M930.38,759.21v-1.34c0-.31-.13-.5-.46-.5a.52.52,0,0,0-.46.32,1.44,1.44,0,0,0-.07.54v1H929v-3h.36v1.18a.7.7,0,0,1,.61-.33.68.68,0,0,1,.74.77v1.39Z"/><path class="cls-5" d="M932.89,759a1,1,0,0,1-1.28,0,1.4,1.4,0,0,1,0-1.73,1,1,0,0,1,1.28,0,1.4,1.4,0,0,1,0,1.73Zm-.26-1.52a.56.56,0,0,0-.76,0,1,1,0,0,0-.19.66.93.93,0,0,0,.19.65.56.56,0,0,0,.76,0,.94.94,0,0,0,.2-.65A1,1,0,0,0,932.63,757.5Z"/><path class="cls-5" d="M935.14,759.21l0-.32a.72.72,0,0,1-1.35-.41V757.1h.36v1.33c0,.32.12.51.45.51a.46.46,0,0,0,.35-.16.87.87,0,0,0,.17-.58v-1.1h.36v2.11Z"/><path class="cls-5" d="M937.62,759a1,1,0,0,1-.69.23,1,1,0,0,1-.69-.23.74.74,0,0,1-.2-.49h.35a.4.4,0,0,0,.18.33.64.64,0,0,0,.37.1.59.59,0,0,0,.39-.12.28.28,0,0,0,.11-.23c0-.16-.12-.27-.33-.3l-.48-.06a.55.55,0,0,1-.51-.57.59.59,0,0,1,.17-.41.87.87,0,0,1,.62-.23.86.86,0,0,1,.67.26.64.64,0,0,1,.15.41h-.35a.4.4,0,0,0-.12-.26.51.51,0,0,0-.35-.12.45.45,0,0,0-.24,0,.3.3,0,0,0-.22.28c0,.17.11.25.29.27l.5.07a.6.6,0,0,1,.54.59A.66.66,0,0,1,937.62,759Z"/><path class="cls-5" d="M940.08,758.27h-1.49a.78.78,0,0,0,.21.53.49.49,0,0,0,.38.15.48.48,0,0,0,.39-.14.39.39,0,0,0,.13-.23H940a.76.76,0,0,1-.32.53,1,1,0,0,1-.54.15.92.92,0,0,1-.7-.31,1.25,1.25,0,0,1-.26-.79,1.33,1.33,0,0,1,.16-.67.89.89,0,0,1,.8-.44.83.83,0,0,1,.64.27,1.12,1.12,0,0,1,.27.74Zm-.48-.73a.5.5,0,0,0-.42-.19.59.59,0,0,0-.58.62h1.12A.75.75,0,0,0,939.6,757.54Z"/><path class="cls-5" d="M946.89,752v.58h-.52V752h-1.29v-.49l1.06-1.82h.57l-1.08,1.84h.74v-.68h.52v.68h.37V752Z"/><path class="cls-5" d="M911.2,773.52a1,1,0,0,1-.74.27h-1.19v-2.95h1.18a1,1,0,0,1,.72.27.72.72,0,0,1,.19.49.67.67,0,0,1-.43.66.73.73,0,0,1,.49.71A.75.75,0,0,1,911.2,773.52Zm-.75-2.35h-.82v.93h.83c.31,0,.52-.14.52-.47A.47.47,0,0,0,910.45,771.17Zm0,1.25h-.84v1h.83c.32,0,.59-.16.59-.51A.53.53,0,0,0,910.47,772.42Z"/><path class="cls-5" d="M913.55,773.82a.29.29,0,0,1-.3-.32h0a.78.78,0,0,1-.68.35.67.67,0,0,1-.73-.65c0-.27.18-.63.75-.66l.65,0v-.15a.43.43,0,0,0-.11-.32.47.47,0,0,0-.35-.11.52.52,0,0,0-.38.12.35.35,0,0,0-.11.26h-.34a.59.59,0,0,1,.18-.44.9.9,0,0,1,.65-.23.73.73,0,0,1,.74.41.79.79,0,0,1,.07.32v1c0,.11,0,.14.11.14h.09v.26A.43.43,0,0,1,913.55,773.82Zm-.32-1-.57,0c-.21,0-.46.11-.46.38s.11.36.41.36a.6.6,0,0,0,.44-.17.7.7,0,0,0,.18-.48Z"/><path class="cls-5" d="M915,773.82a.52.52,0,0,1-.58-.57V772H914v-.3h.4v-.54l.36-.08v.62h.62v.3h-.62v1.22c0,.2.09.29.28.29a2.39,2.39,0,0,0,.36,0v.3A1.29,1.29,0,0,1,915,773.82Z"/><path class="cls-5" d="M915.9,771.2v-.41h.41v.41Zm0,2.59v-2.1h.37v2.1Z"/><path class="cls-5" d="M918.48,773.79l-.66-1-.41.45v.56h-.35v-3h.35v2l1-1.06h.43l-.75.83.83,1.27Z"/><path class="cls-5" d="M922.08,773.55a1.34,1.34,0,0,1-1.68,0,.94.94,0,0,1-.32-.7h.39a.66.66,0,0,0,.21.46.84.84,0,0,0,.57.19.82.82,0,0,0,.55-.17A.46.46,0,0,0,922,773c0-.23-.15-.42-.5-.47l-.47-.08a.79.79,0,0,1-.78-.78.8.8,0,0,1,.26-.58,1.08,1.08,0,0,1,.77-.29,1.11,1.11,0,0,1,.77.28.88.88,0,0,1,.28.63h-.39a.58.58,0,0,0-.66-.57.69.69,0,0,0-.53.2.5.5,0,0,0-.12.32c0,.27.22.39.44.42l.49.07a.86.86,0,0,1,.82.84A.74.74,0,0,1,922.08,773.55Z"/><path class="cls-5" d="M924.28,773.79v-1.33c0-.32-.13-.51-.47-.51a.52.52,0,0,0-.45.33,1.37,1.37,0,0,0-.08.53v1h-.35v-3h.35V772a.72.72,0,0,1,.62-.34.68.68,0,0,1,.73.78v1.38Z"/><path class="cls-5" d="M926.78,773.6a.93.93,0,0,1-1.27,0,1.38,1.38,0,0,1,0-1.72.93.93,0,0,1,1.27,0,1.38,1.38,0,0,1,0,1.72Zm-.26-1.51a.49.49,0,0,0-.38-.15.53.53,0,0,0-.38.15,1.21,1.21,0,0,0,0,1.3.53.53,0,0,0,.38.15.49.49,0,0,0,.38-.15,1.16,1.16,0,0,0,0-1.3Z"/><path class="cls-5" d="M929.77,773.79h-.34l-.55-1.61-.56,1.61H928l-.54-2.1h.35l.41,1.59.53-1.57H929l.53,1.57.4-1.59h.35Z"/><path class="cls-5" d="M931.8,772a.6.6,0,0,0-.4.16,1,1,0,0,0-.19.68v.93h-.35v-2.1h.31l0,.37a.67.67,0,0,1,.63-.39l.17,0V772Z"/><path class="cls-5" d="M933.8,773.6a.94.94,0,0,1-1.28,0,1.38,1.38,0,0,1,0-1.72.94.94,0,0,1,1.28,0,1.38,1.38,0,0,1,0,1.72Zm-.26-1.51a.56.56,0,0,0-.76,0,1.16,1.16,0,0,0,0,1.3.56.56,0,0,0,.76,0,1.21,1.21,0,0,0,0-1.3Z"/><path class="cls-5" d="M936.12,773.6a.94.94,0,0,1-1.28,0,1.38,1.38,0,0,1,0-1.72.94.94,0,0,1,1.28,0,1.38,1.38,0,0,1,0,1.72Zm-.26-1.51a.56.56,0,0,0-.76,0,1.21,1.21,0,0,0,0,1.3.56.56,0,0,0,.76,0,1.16,1.16,0,0,0,0-1.3Z"/><path class="cls-5" d="M939.59,773.79v-1.34c0-.29-.1-.5-.43-.5a.45.45,0,0,0-.32.14.82.82,0,0,0-.18.58v1.12h-.35v-1.34c0-.29-.09-.5-.43-.5a.46.46,0,0,0-.36.19,1,1,0,0,0-.14.53v1.12H937v-2.1h.31l0,.3a.64.64,0,0,1,.59-.36.61.61,0,0,1,.63.4.69.69,0,0,1,.65-.4c.48,0,.7.31.7.78v1.38Z"/><path class="cls-5" d="M946.18,767.19a.93.93,0,0,1-1-.9h.52a.45.45,0,0,0,.49.44c.35,0,.48-.25.48-.57s-.14-.52-.48-.52a.52.52,0,0,0-.43.23h-.51l.06-1.63h1.76v.47h-1.31l0,.66a.76.76,0,0,1,.57-.19.88.88,0,0,1,.9,1A1,1,0,0,1,946.18,767.19Z"/><rect class="cls-5" x="936.25" y="749.22" width="0.74" height="0.73"/><rect class="cls-5" x="932.92" y="753.29" width="0.74" height="0.73"/><path class="cls-5" d="M937.73,751.81h-1.49a.36.36,0,0,1-.36-.36v-.37h-.74v.37a.36.36,0,0,1-.36.36h-3.34v-3.33h-.74v4.07h4.08a1.09,1.09,0,0,1,1.46,0h2.23v-1.84h-.74Z"/><rect class="cls-5" x="939.21" y="748.48" width="0.74" height="4.07"/><path class="cls-5" d="M929.22,752.55a.74.74,0,0,1-.74.74V754a1.48,1.48,0,0,0,1.48-1.48v-1.48h-.74Z"/><path class="cls-5" d="M927.74,767.13a.74.74,0,0,1-.74.74v.74a1.48,1.48,0,0,0,1.48-1.48v-1.47h-.74Z"/><polygon class="cls-5" points="938.47 763.07 937.73 763.07 937.73 763.81 936.99 763.81 936.99 764.55 938.47 764.55 938.47 763.07"/><path class="cls-5" d="M939.21,765.29V766a.37.37,0,0,1-.74,0v-.37h-.74V766a.38.38,0,0,1-.37.37h-.74v-.74h-.74v.74h-4.07a.36.36,0,0,1-.26-.11.38.38,0,0,1-.11-.26h0a1.13,1.13,0,0,0-.41-.86,1.11,1.11,0,0,0-1.56,1.56,1.08,1.08,0,0,0,.86.41,1.1,1.1,0,0,0,.37-.06v.06a.74.74,0,0,1-.74.74h-.37v.74H930a1.48,1.48,0,0,0,1.48-1.48v-.06a1.15,1.15,0,0,0,.37.06h5.55a1.12,1.12,0,0,1,1.48,0A1.11,1.11,0,0,0,940,766v-.74Zm-8.88,1.11a.38.38,0,0,1-.29-.14.39.39,0,0,1-.07-.32.38.38,0,0,1,.28-.28h.08a.33.33,0,0,1,.23.08.36.36,0,0,1,.14.29h0A.37.37,0,0,1,930.33,766.4Z"/><path class="cls-5" d="M925.52,764.92a1.11,1.11,0,1,0,.37,2.15v.06a.74.74,0,0,1-.74.74h-.37v.74h.37a1.48,1.48,0,0,0,1.48-1.48V766A1.1,1.1,0,0,0,925.52,764.92Zm0,1.48a.38.38,0,0,1-.37-.37.37.37,0,0,1,.37-.37.36.36,0,0,1,.37.37A.37.37,0,0,1,925.52,766.4Z"/><path class="cls-5" d="M922.93,764.92a1.11,1.11,0,0,0-1.11,1.11,1.06,1.06,0,0,0,.13.5,1.49,1.49,0,0,0-.87,1.34V769h.74v-1.11a.75.75,0,0,1,.74-.74h.37a1.11,1.11,0,1,0,0-2.21Zm0,1.48a.38.38,0,0,1-.37-.37.37.37,0,0,1,.37-.37.36.36,0,0,1,.37.37A.37.37,0,0,1,922.93,766.4Z"/><rect class="cls-5" x="918.5" y="767.87" width="0.74" height="0.74"/><polygon class="cls-5" points="918.5 766.39 916.65 766.39 916.65 763.07 915.91 763.07 915.91 767.13 919.24 767.13 919.24 765.28 918.5 765.28 918.5 766.39"/><path class="cls-5" d="M914.43,766.4H913a.37.37,0,0,1-.37-.37v-.37h-.74V766a.38.38,0,0,1-.37.37H910V766a1.11,1.11,0,0,0-1.11-1.11h-1.14l1.4-1.41-.52-.52-2,2v.71h2.22a.37.37,0,0,1,.37.37v.37h-4.44v.73h6.66a1.1,1.1,0,0,0,.74-.28,1.06,1.06,0,0,0,.74.28h2.22v-1.84h-.74Z"/><rect class="cls-5" x="913.69" y="763.81" width="1.48" height="0.74"/><rect class="cls-5" x="910.36" y="767.87" width="1.48" height="0.74"/><path class="cls-5" d="M982.87,662.84l-.56-1.23h-.81v1.23h-.37v-3h1.16a1,1,0,0,1,.75.26.84.84,0,0,1,.23.6.74.74,0,0,1-.23.58.69.69,0,0,1-.35.21l.59,1.3Zm-.58-2.61h-.79v1h.79c.35,0,.6-.14.6-.52S982.64,660.23,982.29,660.23Z"/><path class="cls-5" d="M985.17,662.84l0-.32a.68.68,0,0,1-.62.37c-.48,0-.72-.28-.72-.77v-1.38h.35v1.33c0,.31.12.5.45.5a.46.46,0,0,0,.35-.16.79.79,0,0,0,.18-.58v-1.09h.35v2.1Z"/><path class="cls-5" d="M987.87,663.58a1.23,1.23,0,0,1-.85.25,1.16,1.16,0,0,1-.8-.25.55.55,0,0,1-.15-.37.52.52,0,0,1,.3-.47.38.38,0,0,1-.24-.36.45.45,0,0,1,.28-.4.74.74,0,0,1-.24-.55.68.68,0,0,1,.2-.51.8.8,0,0,1,.62-.24.88.88,0,0,1,.48.13.45.45,0,0,1,.44-.3h.1v.29h-.08a.25.25,0,0,0-.26.19.68.68,0,0,1,.14.44.7.7,0,0,1-.19.5.83.83,0,0,1-.63.25,1,1,0,0,1-.35,0,.22.22,0,0,0-.18.18c0,.19.18.21.31.21h.42a1,1,0,0,1,.7.22.57.57,0,0,1,.16.42A.59.59,0,0,1,987.87,663.58Zm-.83-.76h-.38a.37.37,0,0,0-.26.34.33.33,0,0,0,.08.22,1.19,1.19,0,0,0,1.14,0,.29.29,0,0,0,.09-.21C987.71,662.8,987.31,662.82,987,662.82Zm0-1.85a.47.47,0,1,0,0,.93.46.46,0,0,0,.48-.47A.44.44,0,0,0,987,661Z"/><path class="cls-5" d="M991.94,662.84h-.4l-.67-2.38-.68,2.38h-.4l-.59-3h.35l.47,2.41.68-2.37H991l.68,2.36.47-2.4h.34Z"/><path class="cls-5" d="M994.39,662.65a.93.93,0,0,1-1.27,0,1.38,1.38,0,0,1,0-1.72.93.93,0,0,1,1.27,0,1.38,1.38,0,0,1,0,1.72Zm-.26-1.51a.49.49,0,0,0-.37-.15.49.49,0,0,0-.38.15.92.92,0,0,0-.2.65.94.94,0,0,0,.2.65.49.49,0,0,0,.38.15.49.49,0,0,0,.37-.15.89.89,0,0,0,.2-.65A.88.88,0,0,0,994.13,661.14Z"/><path class="cls-5" d="M996.25,661.06a.62.62,0,0,0-.41.17,1,1,0,0,0-.19.68v.93h-.35v-2.1h.32l0,.37a.67.67,0,0,1,.63-.39l.17,0v.34Z"/><path class="cls-5" d="M998.32,662.84l-.66-1-.41.45v.56h-.35v-3h.35v2l1-1.06h.43l-.75.83.83,1.27Z"/><path class="cls-5" d="M1000.54,662.66a.92.92,0,0,1-.68.24,1,1,0,0,1-.69-.24.67.67,0,0,1-.2-.48h.35a.45.45,0,0,0,.17.33.69.69,0,0,0,.38.09.54.54,0,0,0,.39-.12.27.27,0,0,0,.1-.22c0-.16-.11-.28-.32-.3l-.48-.07a.54.54,0,0,1-.52-.56.6.6,0,0,1,.18-.42.87.87,0,0,1,.62-.23.83.83,0,0,1,.67.27.6.6,0,0,1,.15.4h-.35a.4.4,0,0,0-.12-.26.51.51,0,0,0-.35-.11.59.59,0,0,0-.25,0,.32.32,0,0,0-.21.28c0,.18.11.25.29.28l.5.07a.59.59,0,0,1,.54.58A.6.6,0,0,1,1000.54,662.66Z"/><path class="cls-5" d="M1002.67,662.84v-1.33c0-.32-.13-.51-.47-.51a.54.54,0,0,0-.46.33,1.36,1.36,0,0,0-.07.53v1h-.35v-3h.35V661a.73.73,0,0,1,.62-.33.69.69,0,0,1,.73.78v1.38Z"/><path class="cls-5" d="M1005.17,662.65a.89.89,0,0,1-.64.25.93.93,0,0,1-.64-.25,1.38,1.38,0,0,1,0-1.72.93.93,0,0,1,.64-.25.89.89,0,0,1,.64.25,1.38,1.38,0,0,1,0,1.72Zm-.26-1.51a.51.51,0,0,0-.38-.15.53.53,0,0,0-.38.15.92.92,0,0,0-.19.65.93.93,0,0,0,.19.65.53.53,0,0,0,.38.15.51.51,0,0,0,.38-.15.94.94,0,0,0,.2-.65A.92.92,0,0,0,1004.91,661.14Z"/><path class="cls-5" d="M1007.62,662.69a.8.8,0,0,1-.57.21.76.76,0,0,1-.62-.3v1.15h-.35v-3h.31l0,.27a.73.73,0,0,1,.63-.32.81.81,0,0,1,.59.22,1.27,1.27,0,0,1,.31.88A1.23,1.23,0,0,1,1007.62,662.69ZM1007,661a.48.48,0,0,0-.34.13.87.87,0,0,0-.24.67.84.84,0,0,0,.24.67.45.45,0,0,0,.34.14c.47,0,.59-.42.59-.81S1007.46,661,1007,661Z"/><path class="cls-5" d="M1014.2,656.24a1,1,0,0,1-1-.91,3.35,3.35,0,0,1,0-.54,1.86,1.86,0,0,1,.32-1.27.92.92,0,0,1,.71-.29.94.94,0,0,1,.66.24.77.77,0,0,1,.25.53h-.53a.44.44,0,0,0-.1-.22.41.41,0,0,0-.31-.1.41.41,0,0,0-.29.11,1,1,0,0,0-.2.67.75.75,0,0,1,.55-.22.9.9,0,0,1,1,1A.94.94,0,0,1,1014.2,656.24Zm0-1.57a.49.49,0,0,0-.45.54c0,.32.15.56.46.56s.47-.22.47-.56S1014.52,654.67,1014.19,654.67Z"/><path class="cls-5" d="M928.72,662.58a1.14,1.14,0,0,1-.8.32,1.12,1.12,0,0,1-.79-.32,1.58,1.58,0,0,1-.38-1.21,1.61,1.61,0,0,1,.38-1.22,1.11,1.11,0,0,1,.79-.31,1.13,1.13,0,0,1,.8.31,1.61,1.61,0,0,1,.38,1.22A1.58,1.58,0,0,1,928.72,662.58Zm-.26-2.17a.73.73,0,0,0-.54-.22.75.75,0,0,0-.54.22,2,2,0,0,0,0,1.92.79.79,0,0,0,.54.22.77.77,0,0,0,.54-.22,2,2,0,0,0,0-1.92Z"/><path class="cls-5" d="M930.47,660.09a.28.28,0,0,0-.3.29v.36h.61v.3h-.61v1.8h-.36V661h-.38v-.3h.38v-.38a.58.58,0,0,1,.62-.57,2.34,2.34,0,0,1,.39,0v.3A1.69,1.69,0,0,0,930.47,660.09Z"/><path class="cls-5" d="M932,660.09a.28.28,0,0,0-.3.29v.36h.61v.3h-.61v1.8h-.35V661H931v-.3h.39v-.38a.57.57,0,0,1,.61-.57,2.34,2.34,0,0,1,.39,0v.3A1.69,1.69,0,0,0,932,660.09Zm.73.16v-.41h.41v.41Zm0,2.59v-2.1h.36v2.1Z"/><path class="cls-5" d="M935.27,662.67a.86.86,0,0,1-.61.23.88.88,0,0,1-.77-.4,1.26,1.26,0,0,1-.17-.71,1.24,1.24,0,0,1,.17-.71.88.88,0,0,1,.77-.4.82.82,0,0,1,.85.77h-.36a.54.54,0,0,0-.15-.33.49.49,0,0,0-.34-.13.54.54,0,0,0-.37.14,1.14,1.14,0,0,0,0,1.32.54.54,0,0,0,.37.14.55.55,0,0,0,.36-.14.59.59,0,0,0,.14-.32h.36A.83.83,0,0,1,935.27,662.67Z"/><path class="cls-5" d="M937.79,661.91H936.3a.73.73,0,0,0,.2.52.53.53,0,0,0,.39.15.54.54,0,0,0,.39-.13.39.39,0,0,0,.12-.23h.35a.78.78,0,0,1-.32.52,1,1,0,0,1-.54.16.9.9,0,0,1-.7-.32,1.15,1.15,0,0,1-.26-.78,1.27,1.27,0,0,1,.16-.68.92.92,0,0,1,1.44-.17,1.06,1.06,0,0,1,.26.74Zm-.49-.74a.52.52,0,0,0-.42-.19.59.59,0,0,0-.58.62h1.13A.78.78,0,0,0,937.3,661.17Z"/><path class="cls-5" d="M939.78,662.66a.92.92,0,0,1-.69.24,1,1,0,0,1-.68-.24.67.67,0,0,1-.2-.48h.35a.42.42,0,0,0,.17.33.69.69,0,0,0,.38.09.54.54,0,0,0,.39-.12.27.27,0,0,0,.1-.22c0-.16-.11-.28-.33-.3l-.47-.07a.54.54,0,0,1-.52-.56.6.6,0,0,1,.18-.42,1,1,0,0,1,1.29,0,.6.6,0,0,1,.15.4h-.36a.32.32,0,0,0-.12-.26.48.48,0,0,0-.34-.11.57.57,0,0,0-.25,0,.32.32,0,0,0-.21.28c0,.18.11.25.28.28l.51.07a.59.59,0,0,1,.54.58A.6.6,0,0,1,939.78,662.66Z"/><path class="cls-5" d="M946,656.19h-.56l1.13-2.43h-1.44v-.47h2v.42Z"/><path class="cls-5" d="M933.66,656.19a.74.74,0,0,1-.74.74v.74a1.48,1.48,0,0,0,1.48-1.48v-1.48h-.74Z"/><rect class="cls-5" x="939.21" y="652.12" width="0.74" height="4.07"/><rect class="cls-5" x="935.14" y="652.12" width="0.74" height="4.07"/><path class="cls-5" d="M937.36,654h-.74v.74h.74a.37.37,0,0,1,.37.37v.37h-1.11v.74h1.85v-1.11A1.11,1.11,0,0,0,937.36,654Z"/><path class="cls-5" d="M930.33,655.08v1.11h1.11v.74h-1.11a.74.74,0,0,1-.74-.74v-.74h-.74v.74a1.49,1.49,0,0,0,1.48,1.48h1.85v-2.22h-1.11v-.37a.37.37,0,0,1,.37-.37h.74V654h-.74A1.11,1.11,0,0,0,930.33,655.08Z"/><path class="cls-5" d="M1014.21,533.63a.91.91,0,0,1-1-.87.74.74,0,0,1,.42-.69.74.74,0,0,1-.37-.63,1,1,0,0,1,1.89,0,.75.75,0,0,0,.06,1.32A.91.91,0,0,1,1014.21,533.63Zm0-1.33a.43.43,0,0,0-.48.42.48.48,0,0,0,.95,0A.42.42,0,0,0,1014.21,532.3Zm0-1.22a.37.37,0,0,0-.42.37.42.42,0,0,0,.83,0A.36.36,0,0,0,1014.21,531.08Z"/><path class="cls-5" d="M975.4,554.81v-.37l1.72-2.23h-1.71v-.35h2.15v.37l-1.73,2.24h1.75v.34Z"/><path class="cls-5" d="M979.76,553.88h-1.49a.74.74,0,0,0,.21.52.49.49,0,0,0,.38.15.51.51,0,0,0,.39-.13.47.47,0,0,0,.13-.23h.35a.79.79,0,0,1-.33.52,1,1,0,0,1-.54.16.93.93,0,0,1-.7-.32,1.2,1.2,0,0,1-.26-.78,1.37,1.37,0,0,1,.16-.68.91.91,0,0,1,.8-.44.83.83,0,0,1,.64.27,1.12,1.12,0,0,1,.27.74Zm-.48-.74a.52.52,0,0,0-.42-.19.59.59,0,0,0-.58.62h1.13A.75.75,0,0,0,979.28,553.14Z"/><path class="cls-5" d="M982.06,553.88h-1.49a.73.73,0,0,0,.2.52.51.51,0,0,0,.39.15.54.54,0,0,0,.39-.13.46.46,0,0,0,.12-.23H982a.76.76,0,0,1-.33.52,1,1,0,0,1-.53.16.9.9,0,0,1-.7-.32,1.16,1.16,0,0,1-.27-.78,1.27,1.27,0,0,1,.17-.68.91.91,0,0,1,.79-.44.83.83,0,0,1,.64.27,1.12,1.12,0,0,1,.27.74Zm-.49-.74a.52.52,0,0,0-.42-.19.59.59,0,0,0-.58.62h1.13A.75.75,0,0,0,981.57,553.14Z"/><path class="cls-5" d="M984.35,553.88h-1.49a.73.73,0,0,0,.2.52.61.61,0,0,0,.78,0,.47.47,0,0,0,.13-.23h.34a.78.78,0,0,1-.32.52,1,1,0,0,1-.54.16.9.9,0,0,1-.7-.32,1.2,1.2,0,0,1-.26-.78,1.27,1.27,0,0,1,.16-.68.91.91,0,0,1,.8-.44.84.84,0,0,1,.64.27,1.06,1.06,0,0,1,.26.74Zm-.49-.74a.52.52,0,0,0-.41-.19.58.58,0,0,0-.58.62H984A.69.69,0,0,0,983.86,553.14Z"/><path class="cls-5" d="M986.3,554.81v-1.33c0-.32-.13-.51-.47-.51a.5.5,0,0,0-.45.33,1.2,1.2,0,0,0-.08.53v1H985V552.7h.3l0,.32a.72.72,0,0,1,.64-.37.68.68,0,0,1,.73.78v1.38Z"/><path class="cls-5" d="M990.14,554.57a1.22,1.22,0,0,1-.84.3,1.2,1.2,0,0,1-.85-.29,1,1,0,0,1-.31-.7h.39a.65.65,0,0,0,.2.46.85.85,0,0,0,.57.19.76.76,0,0,0,.55-.18A.42.42,0,0,0,990,554c0-.23-.15-.42-.5-.48l-.46-.07a.78.78,0,0,1-.53-1.36,1.08,1.08,0,0,1,.77-.29,1.11,1.11,0,0,1,.77.28.88.88,0,0,1,.28.63H990a.68.68,0,0,0-.15-.37.66.66,0,0,0-.52-.2.7.7,0,0,0-.53.2.5.5,0,0,0-.12.32c0,.27.22.39.45.42l.49.07a.85.85,0,0,1,.82.84A.78.78,0,0,1,990.14,554.57Z"/><path class="cls-5" d="M992.33,554.81v-1.33c0-.32-.13-.51-.46-.51a.5.5,0,0,0-.46.33,1.37,1.37,0,0,0-.08.53v1H991v-3h.35V553a.74.74,0,0,1,.62-.33.68.68,0,0,1,.73.78v1.38Z"/><path class="cls-5" d="M994.83,554.62a.93.93,0,0,1-1.27,0,1.38,1.38,0,0,1,0-1.72.93.93,0,0,1,1.27,0,1.38,1.38,0,0,1,0,1.72Zm-.25-1.52a.57.57,0,0,0-.38-.15.55.55,0,0,0-.38.15,1,1,0,0,0-.2.66.94.94,0,0,0,.2.65.51.51,0,0,0,.38.15.53.53,0,0,0,.38-.15.93.93,0,0,0,.19-.65A1,1,0,0,0,994.58,553.1Z"/><path class="cls-5" d="M997.83,554.81h-.35l-.55-1.61-.56,1.61H996l-.55-2.11h.35l.41,1.6.53-1.57h.31l.53,1.57.41-1.6h.34Z"/><path class="cls-5" d="M999.86,553a.57.57,0,0,0-.4.17.91.91,0,0,0-.2.68v.93h-.35V552.7h.32l0,.38a.67.67,0,0,1,.63-.39h.17v.35Z"/><path class="cls-5" d="M1001.85,554.62a.89.89,0,0,1-.64.25.93.93,0,0,1-.64-.25,1.38,1.38,0,0,1,0-1.72.93.93,0,0,1,.64-.25.89.89,0,0,1,.64.25,1.38,1.38,0,0,1,0,1.72Zm-.26-1.52a.56.56,0,0,0-.76,0,1,1,0,0,0-.19.66.93.93,0,0,0,.19.65.56.56,0,0,0,.76,0,.94.94,0,0,0,.2-.65A1,1,0,0,0,1001.59,553.1Z"/><path class="cls-5" d="M1004.17,554.62a.93.93,0,0,1-1.27,0,1.38,1.38,0,0,1,0-1.72.93.93,0,0,1,1.27,0,1.38,1.38,0,0,1,0,1.72Zm-.26-1.52a.53.53,0,0,0-.38-.15.57.57,0,0,0-.38.15,1,1,0,0,0-.19.66.93.93,0,0,0,.19.65.53.53,0,0,0,.38.15.49.49,0,0,0,.38-.15.94.94,0,0,0,.2-.65A1,1,0,0,0,1003.91,553.1Z"/><path class="cls-5" d="M1007.64,554.81v-1.34c0-.29-.09-.5-.43-.5a.47.47,0,0,0-.32.14.82.82,0,0,0-.18.58v1.12h-.35v-1.34c0-.29-.09-.5-.43-.5a.43.43,0,0,0-.35.19.89.89,0,0,0-.15.53v1.12h-.35V552.7h.31l0,.3a.65.65,0,0,1,.59-.35.6.6,0,0,1,.63.4.7.7,0,0,1,.65-.4c.48,0,.71.31.71.78v1.38Z"/><path class="cls-5" d="M1014.87,547.92a.92.92,0,0,1-.71.29.94.94,0,0,1-.66-.24.76.76,0,0,1-.24-.53h.52a.41.41,0,0,0,.1.22.41.41,0,0,0,.31.1.41.41,0,0,0,.29-.11,1,1,0,0,0,.2-.67.75.75,0,0,1-.55.22.9.9,0,0,1-1-1,.94.94,0,0,1,1-1,1,1,0,0,1,1,.91,3.39,3.39,0,0,1,0,.55A1.85,1.85,0,0,1,1014.87,547.92Zm-.7-2.25c-.31,0-.47.22-.47.56a.47.47,0,1,0,.93,0C1014.63,545.91,1014.48,545.67,1014.17,545.67Z"/><path class="cls-5" d="M986.73,532.65a1.3,1.3,0,0,0-1.29-1.3h-.93v.74h.93a.56.56,0,0,1,.55.56v.18H983.4a.38.38,0,0,1-.37-.37v-.37h-.74v.37a.37.37,0,0,1-.37.37h-1.11v-.37a1.11,1.11,0,0,0-1.11-1.11H979v.74h.74a.37.37,0,0,1,.37.37v.37H979v.74h3a1.11,1.11,0,0,0,.74-.28,1.15,1.15,0,0,0,.74.28h4.07v-.74h-.74Z"/><path class="cls-5" d="M977.48,533.57a.74.74,0,0,1-.74.74v.74a1.48,1.48,0,0,0,1.48-1.48v-1.48h-.74Z"/><rect class="cls-5" x="980.81" y="534.31" width="1.48" height="0.74"/><polygon class="cls-5" points="975.63 532.83 974.16 532.83 974.16 529.5 973.42 529.5 973.42 532.83 973.42 532.83 973.42 533.57 976.38 533.57 976.38 531.72 975.63 531.72 975.63 532.83"/><rect class="cls-5" x="974.16" y="534.31" width="1.48" height="0.74"/><rect class="cls-5" x="970.46" y="532.83" width="0.74" height="0.74"/><path class="cls-5" d="M971.94,533.57a1.11,1.11,0,1,1-2.22,0v-.74H969v.74a1.85,1.85,0,1,0,3.7,0v-1.48h-.74Z"/><path class="cls-5" d="M995.8,533.57a.74.74,0,0,1-.74.74v.74a1.48,1.48,0,0,0,1.48-1.48v-1.48h-.74Z"/><polygon class="cls-5" points="1006.52 529.5 1005.78 529.5 1005.78 530.24 1005.04 530.24 1005.04 530.98 1006.52 530.98 1006.52 529.5"/><path class="cls-5" d="M1007.26,531.72v.74a.37.37,0,0,1-.37.37.38.38,0,0,1-.37-.37v-.37h-.74v.37a.37.37,0,0,1-.37.37h-.74v-.74h-.74v.74h-4.07a.38.38,0,0,1-.26-.11.36.36,0,0,1-.11-.26h0a1.07,1.07,0,0,0-.41-.86,1.11,1.11,0,0,0-1.56,1.56,1.13,1.13,0,0,0,.87.41,1.15,1.15,0,0,0,.37-.06v.06a.74.74,0,0,1-.74.74h-.37v.74H998a1.47,1.47,0,0,0,1.47-1.48v-.06a1.19,1.19,0,0,0,.37.06h5.55a1.11,1.11,0,0,0,.74-.28,1.15,1.15,0,0,0,.74.28,1.11,1.11,0,0,0,1.11-1.11v-.74Zm-8.87,1.11a.36.36,0,0,1-.29-.14.37.37,0,0,1-.08-.31.38.38,0,0,1,.28-.28h.09a.38.38,0,0,1,.23.08.37.37,0,0,1,.14.29h0A.38.38,0,0,1,998.39,532.83Z"/><path class="cls-5" d="M993.58,531.35a1.11,1.11,0,0,0,0,2.22,1.15,1.15,0,0,0,.37-.06v.06a.74.74,0,0,1-.74.74h-.37v.74h.37a1.48,1.48,0,0,0,1.48-1.48v-1.11A1.11,1.11,0,0,0,993.58,531.35Zm0,1.48a.37.37,0,1,1,0-.74.37.37,0,1,1,0,.74Z"/><path class="cls-5" d="M990.8,531.35a1.11,1.11,0,0,0-1.11,1.11,1.14,1.14,0,0,0,.13.51,1.47,1.47,0,0,0-.87,1.34v1.11h.74v-1.11a.74.74,0,0,1,.74-.74h.37a1.11,1.11,0,0,0,0-2.22Zm0,1.48a.37.37,0,0,1,0-.74.37.37,0,0,1,0,.74Z"/><path class="cls-5" d="M970.77,540.23v-1.36h-1.42v1.36H969v-3h.37v1.24h1.42v-1.24h.37v3Z"/><path class="cls-5" d="M973.62,539.29h-1.49a.78.78,0,0,0,.2.53.51.51,0,0,0,.39.15.55.55,0,0,0,.39-.14.36.36,0,0,0,.12-.23h.35a.74.74,0,0,1-.33.52,1,1,0,0,1-.53.16.89.89,0,0,1-.7-.31,1.2,1.2,0,0,1-.27-.79,1.24,1.24,0,0,1,.17-.67.89.89,0,0,1,.79-.44.83.83,0,0,1,.64.27,1.05,1.05,0,0,1,.27.74Zm-.49-.73a.5.5,0,0,0-.42-.19.59.59,0,0,0-.58.62h1.13A.75.75,0,0,0,973.13,538.56Z"/><path class="cls-5" d="M974.17,537.64v-.42h.41v.42Zm0,2.59v-2.11h.36v2.11Z"/><path class="cls-5" d="M976.71,540.23l0-.28a.72.72,0,0,1-.63.33.78.78,0,0,1-.59-.23,1.23,1.23,0,0,1-.31-.87,1.22,1.22,0,0,1,.33-.9.8.8,0,0,1,.57-.21.74.74,0,0,1,.62.3v-1.15H977v3Zm-.26-1.73a.48.48,0,0,0-.34-.13c-.47,0-.59.42-.59.8s.12.81.59.81a.45.45,0,0,0,.34-.14.84.84,0,0,0,.24-.67A.87.87,0,0,0,976.45,538.5Z"/><path class="cls-5" d="M979.31,540.26a.3.3,0,0,1-.31-.32h0a.78.78,0,0,1-.68.34.66.66,0,0,1-.73-.65c0-.27.18-.62.75-.66l.64,0v-.16a.44.44,0,0,0-.1-.32.54.54,0,0,0-.35-.11.52.52,0,0,0-.38.13.34.34,0,0,0-.11.25h-.34a.59.59,0,0,1,.18-.44.9.9,0,0,1,.65-.22.73.73,0,0,1,.74.4.84.84,0,0,1,.06.33v1c0,.11,0,.14.12.14h.09v.26A.56.56,0,0,1,979.31,540.26Zm-.33-1-.56,0c-.21,0-.46.11-.46.37a.36.36,0,0,0,.41.37.61.61,0,0,0,.43-.17.67.67,0,0,0,.18-.48Z"/><path class="cls-5" d="M981,538.45a.53.53,0,0,0-.4.17.94.94,0,0,0-.2.67v.94h-.35v-2.11h.32l0,.37a.64.64,0,0,1,.63-.38h.16v.35A.62.62,0,0,0,981,538.45Z"/><path class="cls-5" d="M981.64,537.64v-.42h.41v.42Zm0,2.59v-2.11H982v2.11Z"/><path class="cls-5" d="M984.32,540.26a.3.3,0,0,1-.31-.32h0a.79.79,0,0,1-.68.34.66.66,0,0,1-.73-.65c0-.27.18-.62.75-.66l.64,0v-.16a.41.41,0,0,0-.11-.32.49.49,0,0,0-.34-.11.52.52,0,0,0-.38.13.34.34,0,0,0-.11.25h-.34a.59.59,0,0,1,.18-.44.9.9,0,0,1,.65-.22.73.73,0,0,1,.74.4.84.84,0,0,1,.06.33v1c0,.11,0,.14.12.14h.09v.26A.56.56,0,0,1,984.32,540.26Zm-.33-1-.56,0c-.22,0-.47.11-.47.37a.37.37,0,0,0,.42.37.61.61,0,0,0,.43-.17.67.67,0,0,0,.18-.48Z"/><path class="cls-5" d="M986.44,540.23v-1.34c0-.32-.12-.5-.46-.5a.53.53,0,0,0-.46.32,1.44,1.44,0,0,0-.07.54v1h-.36v-2.11h.31l0,.32a.72.72,0,0,1,.64-.37.68.68,0,0,1,.73.77v1.39Z"/><path class="cls-5" d="M990.25,540a1.19,1.19,0,0,1-.84.29,1.23,1.23,0,0,1-.84-.28,1,1,0,0,1-.32-.71h.39a.68.68,0,0,0,.21.47.82.82,0,0,0,.56.18.74.74,0,0,0,.55-.17.41.41,0,0,0,.15-.35c0-.22-.14-.42-.49-.47l-.47-.07c-.44-.07-.79-.31-.79-.78a.81.81,0,0,1,.26-.59,1.18,1.18,0,0,1,1.54,0,.91.91,0,0,1,.29.64h-.39a.57.57,0,0,0-.15-.37.66.66,0,0,0-.52-.21.65.65,0,0,0-.52.21.42.42,0,0,0-.12.32c0,.26.22.38.44.41l.49.08a.85.85,0,0,1,.82.84A.78.78,0,0,1,990.25,540Z"/><path class="cls-5" d="M992.43,540.23v-1.34c0-.32-.13-.5-.47-.5a.51.51,0,0,0-.45.32,1.45,1.45,0,0,0-.08.54v1h-.35v-3h.35v1.18a.71.71,0,0,1,.62-.33.68.68,0,0,1,.73.77v1.39Z"/><path class="cls-5" d="M994.92,540a.92.92,0,0,1-.64.24.88.88,0,0,1-.64-.24,1.4,1.4,0,0,1,0-1.73.88.88,0,0,1,.64-.24.92.92,0,0,1,.64.24,1.4,1.4,0,0,1,0,1.73Zm-.26-1.52a.56.56,0,0,0-.76,0,.94.94,0,0,0-.2.65,1,1,0,0,0,.2.66.56.56,0,0,0,.76,0,1,1,0,0,0,.19-.66A.93.93,0,0,0,994.66,538.52Z"/><path class="cls-5" d="M997.89,540.23h-.34l-.55-1.61-.56,1.61h-.34l-.54-2.11h.35l.4,1.59.54-1.56h.3l.53,1.56.41-1.59h.35Z"/><path class="cls-5" d="M999.9,538.45a.57.57,0,0,0-.4.17.93.93,0,0,0-.19.67v.94H999v-2.11h.32l0,.37a.66.66,0,0,1,.63-.38h.17v.35A.65.65,0,0,0,999.9,538.45Z"/><path class="cls-5" d="M1001.88,540a1,1,0,0,1-1.27,0,1.4,1.4,0,0,1,0-1.73,1,1,0,0,1,1.27,0,1.4,1.4,0,0,1,0,1.73Zm-.26-1.52a.49.49,0,0,0-.38-.15.53.53,0,0,0-.38.15.93.93,0,0,0-.19.65,1,1,0,0,0,.19.66.53.53,0,0,0,.38.15.49.49,0,0,0,.38-.15,1,1,0,0,0,.2-.66A.94.94,0,0,0,1001.62,538.52Z"/><path class="cls-5" d="M1004.19,540a1,1,0,0,1-1.28,0,1.4,1.4,0,0,1,0-1.73,1,1,0,0,1,1.28,0,1.4,1.4,0,0,1,0,1.73Zm-.26-1.52a.56.56,0,0,0-.76,0,.94.94,0,0,0-.2.65,1,1,0,0,0,.2.66.56.56,0,0,0,.76,0,1,1,0,0,0,.19-.66A.93.93,0,0,0,1003.93,538.52Z"/><path class="cls-5" d="M1007.64,540.23v-1.34c0-.3-.1-.5-.43-.5a.42.42,0,0,0-.32.14.81.81,0,0,0-.18.58v1.12h-.35v-1.34c0-.3-.09-.5-.43-.5a.45.45,0,0,0-.36.18,1,1,0,0,0-.14.54v1.12h-.35v-2.11h.31l0,.3a.63.63,0,0,1,.59-.35.61.61,0,0,1,.63.4.68.68,0,0,1,.65-.4c.48,0,.71.3.71.77v1.39Z"/><path class="cls-5" d="M986.73,548.15a.74.74,0,0,1-.74.74v.74a1.48,1.48,0,0,0,1.48-1.48v-1.48h-.74Z"/><rect class="cls-5" x="986.73" y="545.2" width="0.74" height="0.74"/><path class="cls-5" d="M984.88,547.41H983.4A.37.37,0,0,1,983,547v-.37h-.74V547a.36.36,0,0,1-.37.37h-1.11a.36.36,0,0,1-.36-.37v-.37h-.74V547a.37.37,0,0,1-.37.37h-1.48v.74h1.48a1.1,1.1,0,0,0,.74-.28,1.05,1.05,0,0,0,.73.28h1.11a1.06,1.06,0,0,0,.74-.28,1.1,1.1,0,0,0,.74.28h2.22v-1.84h-.74Z"/><rect class="cls-5" x="983.03" y="548.89" width="1.48" height="0.74"/><rect class="cls-5" x="980.63" y="548.89" width="1.48" height="0.74"/><rect class="cls-5" x="978.04" y="548.89" width="1.48" height="0.74"/><rect class="cls-5" x="975.64" y="547.41" width="0.74" height="0.74"/><path class="cls-5" d="M977.11,548.16a1.11,1.11,0,0,1-2.21,0v-.75h-.74v.75a1.85,1.85,0,0,0,3.69,0v-1.49h-.74Z"/><path class="cls-5" d="M995.8,548.15a.74.74,0,0,1-.74.74v.74a1.48,1.48,0,0,0,1.48-1.48v-1.48h-.74Z"/><polygon class="cls-5" points="1006.52 544.09 1005.78 544.09 1005.78 544.83 1005.04 544.83 1005.04 545.57 1006.52 545.57 1006.52 544.09"/><path class="cls-5" d="M1007.26,546.31V547a.36.36,0,0,1-.37.37.37.37,0,0,1-.37-.37v-.37h-.74V547a.36.36,0,0,1-.37.37h-.74v-.74h-.74v.74h-4.07a.37.37,0,0,1-.26-.1.39.39,0,0,1-.11-.27h0a1.09,1.09,0,0,0-.41-.86,1.11,1.11,0,1,0-.69,2,1.15,1.15,0,0,0,.37-.06v.06a.74.74,0,0,1-.74.74h-.37v.74H998a1.47,1.47,0,0,0,1.47-1.48v-.06a1.19,1.19,0,0,0,.37.06h5.55a1.06,1.06,0,0,0,.74-.28A1.11,1.11,0,0,0,1008,547v-.73Zm-8.87,1.1a.38.38,0,0,1-.29-.13A.39.39,0,0,1,998,547a.4.4,0,0,1,.28-.28h.09a.33.33,0,0,1,.23.09.35.35,0,0,1,.14.28h0A.37.37,0,0,1,998.39,547.41Z"/><path class="cls-5" d="M993.58,545.94a1.11,1.11,0,1,0,0,2.21,1.15,1.15,0,0,0,.37-.06v.06a.74.74,0,0,1-.74.74h-.37v.74h.37a1.48,1.48,0,0,0,1.48-1.48V547A1.11,1.11,0,0,0,993.58,545.94Zm0,1.47a.37.37,0,1,1,0-.73.37.37,0,1,1,0,.73Z"/><path class="cls-5" d="M990.8,545.94a1.11,1.11,0,0,0-1.11,1.1,1.07,1.07,0,0,0,.13.51,1.49,1.49,0,0,0-.87,1.34V550h.74v-1.11a.74.74,0,0,1,.74-.74h.37a1.11,1.11,0,1,0,0-2.21Zm0,1.47a.37.37,0,1,1,0-.73.37.37,0,1,1,0,.73Z"/><path class="cls-5" d="M1011.77,562.74v-2.28l-.64.46v-.56l.72-.52h.44v2.9Z"/><path class="cls-5" d="M1014.88,562.53a1,1,0,0,1-1.35,0,1.68,1.68,0,0,1-.34-1.24,1.71,1.71,0,0,1,.34-1.25,1,1,0,0,1,1.35,0,1.71,1.71,0,0,1,.35,1.25A1.68,1.68,0,0,1,1014.88,562.53Zm-.67-2.26c-.54,0-.5.64-.5,1s0,1,.5,1,.49-.65.49-1S1014.74,560.27,1014.21,560.27Z"/><path class="cls-5" d="M995.8,562.74a.74.74,0,0,1-.74.74v.74a1.49,1.49,0,0,0,1.48-1.48v-1.48h-.74Z"/><polygon class="cls-5" points="1006.52 558.67 1005.78 558.67 1005.78 559.41 1005.04 559.41 1005.04 560.15 1006.52 560.15 1006.52 558.67"/><path class="cls-5" d="M1007.26,560.89v.74a.37.37,0,0,1-.37.37.38.38,0,0,1-.37-.37v-.37h-.74v.37a.37.37,0,0,1-.37.37h-.74v-.74h-.74V562h-4.07a.38.38,0,0,1-.26-.11.36.36,0,0,1-.11-.26h0a1.07,1.07,0,0,0-.41-.86,1.11,1.11,0,0,0-1.56,1.56,1.13,1.13,0,0,0,.87.41,1,1,0,0,0,.37-.07v.07a.74.74,0,0,1-.74.74h-.37v.74H998a1.48,1.48,0,0,0,1.47-1.48v-.07a1,1,0,0,0,.37.07h5.55a1.07,1.07,0,0,0,.74-.29,1.1,1.1,0,0,0,1.85-.82v-.74ZM998.39,562a.36.36,0,0,1-.29-.14.37.37,0,0,1-.08-.31.38.38,0,0,1,.28-.28h.09a.38.38,0,0,1,.23.08.37.37,0,0,1,.14.29h0A.38.38,0,0,1,998.39,562Z"/><path class="cls-5" d="M993.58,560.52a1.11,1.11,0,0,0,0,2.22.94.94,0,0,0,.37-.07v.07a.74.74,0,0,1-.74.74h-.37v.74h.37a1.49,1.49,0,0,0,1.48-1.48v-1.11A1.11,1.11,0,0,0,993.58,560.52Zm0,1.48a.37.37,0,0,1-.37-.37.36.36,0,0,1,.37-.37.37.37,0,0,1,.37.37A.38.38,0,0,1,993.58,562Z"/><path class="cls-5" d="M991,560.52a1.11,1.11,0,0,0-1.11,1.11,1.13,1.13,0,0,0,.12.51,1.46,1.46,0,0,0-.86,1.34v1.11h.74v-1.11a.74.74,0,0,1,.74-.74H991a1.11,1.11,0,1,0,0-2.22Zm0,1.48a.37.37,0,0,1-.37-.37.36.36,0,0,1,.37-.37.37.37,0,0,1,.37.37A.38.38,0,0,1,991,562Z"/><rect class="cls-5" x="986.55" y="563.48" width="0.74" height="0.74"/><polygon class="cls-5" points="986.55 562 984.7 562 984.7 558.67 983.96 558.67 983.96 562.74 987.29 562.74 987.29 560.89 986.55 560.89 986.55 562"/><path class="cls-5" d="M982.48,562H981a.38.38,0,0,1-.37-.37v-.37h-.74v.37a.38.38,0,0,1-.37.37H978v-.37a1.11,1.11,0,0,0-1.11-1.11h-1.14l1.4-1.4-.52-.53-2,2v.71h2.22a.36.36,0,0,1,.37.37V562h-4.44v.74h6.66a1.09,1.09,0,0,1,1.48,0h2.22v-1.85h-.74Z"/><rect class="cls-5" x="981.74" y="559.41" width="1.48" height="0.74"/><rect class="cls-5" x="978.41" y="563.48" width="1.48" height="0.74"/><path class="cls-5" d="M979.25,569.13a1,1,0,0,1-.74.27h-1.19v-3h1.18a1,1,0,0,1,.72.27.69.69,0,0,1,.19.5.68.68,0,0,1-.42.65.75.75,0,0,1,.49.71A.8.8,0,0,1,979.25,569.13Zm-.75-2.36h-.82v.93h.83c.31,0,.52-.14.52-.47A.48.48,0,0,0,978.5,566.77Zm0,1.26h-.84v1h.83c.33,0,.59-.15.59-.5A.53.53,0,0,0,978.52,568Z"/><path class="cls-5" d="M981.6,569.43a.31.31,0,0,1-.3-.33h0a.75.75,0,0,1-.68.35.66.66,0,0,1-.72-.65c0-.27.17-.62.75-.66l.64,0V568a.41.41,0,0,0-.11-.32.46.46,0,0,0-.35-.11.52.52,0,0,0-.38.13.32.32,0,0,0-.1.25H980a.68.68,0,0,1,.18-.44.94.94,0,0,1,.65-.23.75.75,0,0,1,.75.41.79.79,0,0,1,.06.32v1c0,.12,0,.15.11.15l.1,0v.27A.64.64,0,0,1,981.6,569.43Zm-.32-1-.57,0c-.21,0-.46.12-.46.38s.12.36.42.36a.57.57,0,0,0,.43-.17.69.69,0,0,0,.18-.47Z"/><path class="cls-5" d="M983,569.43a.52.52,0,0,1-.57-.58v-1.26h-.41v-.3h.41v-.54l.35-.08v.62h.63v.3h-.63v1.22c0,.21.09.29.28.29a2.61,2.61,0,0,0,.37,0v.31A1.82,1.82,0,0,1,983,569.43Z"/><path class="cls-5" d="M984,566.81v-.42h.41v.42Zm0,2.59v-2.11h.36v2.11Z"/><path class="cls-5" d="M986.53,569.4l-.66-1-.4.45v.57h-.36v-3h.36v2l.95-1.06h.43l-.75.83.83,1.28Z"/><path class="cls-5" d="M990.14,569.15a1.22,1.22,0,0,1-.84.3,1.24,1.24,0,0,1-.85-.28,1,1,0,0,1-.31-.71h.39a.69.69,0,0,0,.2.47.9.9,0,0,0,.57.18.81.81,0,0,0,.55-.17.46.46,0,0,0,.15-.35c0-.23-.15-.42-.5-.47l-.46-.07c-.44-.07-.79-.32-.79-.79a.8.8,0,0,1,.26-.58,1.08,1.08,0,0,1,.77-.29,1.11,1.11,0,0,1,.77.28.9.9,0,0,1,.28.64H990a.68.68,0,0,0-.15-.38.69.69,0,0,0-.52-.2.7.7,0,0,0-.53.2.51.51,0,0,0-.12.33c0,.26.22.38.45.41l.49.08a.84.84,0,0,1,.82.83A.78.78,0,0,1,990.14,569.15Z"/><path class="cls-5" d="M992.33,569.4v-1.34c0-.32-.13-.5-.46-.5a.51.51,0,0,0-.46.32,1.42,1.42,0,0,0-.08.54v1H991v-3h.35v1.18a.72.72,0,0,1,.62-.34.68.68,0,0,1,.73.78v1.39Z"/><path class="cls-5" d="M994.83,569.2a.93.93,0,0,1-1.27,0,1.12,1.12,0,0,1-.3-.86,1.15,1.15,0,0,1,.3-.86.93.93,0,0,1,1.27,0,1.15,1.15,0,0,1,.3.86A1.12,1.12,0,0,1,994.83,569.2Zm-.25-1.51a.53.53,0,0,0-.38-.15.51.51,0,0,0-.38.15.94.94,0,0,0-.2.65,1,1,0,0,0,.2.66.55.55,0,0,0,.38.15.57.57,0,0,0,.38-.15,1,1,0,0,0,.19-.66A.93.93,0,0,0,994.58,567.69Z"/><path class="cls-5" d="M997.83,569.4h-.34l-.55-1.62-.57,1.62H996l-.55-2.11h.35l.41,1.59.54-1.57h.3l.53,1.57.41-1.59h.34Z"/><path class="cls-5" d="M999.86,567.62a.56.56,0,0,0-.4.16,1,1,0,0,0-.2.68v.94h-.34v-2.11h.31l0,.37a.64.64,0,0,1,.63-.38h.16v.34Z"/><path class="cls-5" d="M1001.85,569.2a.89.89,0,0,1-.64.25.93.93,0,0,1-.64-.25,1.16,1.16,0,0,1-.3-.86,1.19,1.19,0,0,1,.3-.86.93.93,0,0,1,.64-.25.89.89,0,0,1,.64.25,1.15,1.15,0,0,1,.3.86A1.12,1.12,0,0,1,1001.85,569.2Zm-.26-1.51a.56.56,0,0,0-.76,0,.93.93,0,0,0-.19.65,1,1,0,0,0,.19.66.56.56,0,0,0,.76,0,1,1,0,0,0,.2-.66A.94.94,0,0,0,1001.59,567.69Z"/><path class="cls-5" d="M1004.17,569.2a.93.93,0,0,1-1.27,0,1.12,1.12,0,0,1-.3-.86,1.15,1.15,0,0,1,.3-.86.93.93,0,0,1,1.27,0,1.15,1.15,0,0,1,.3.86A1.12,1.12,0,0,1,1004.17,569.2Zm-.26-1.51a.49.49,0,0,0-.38-.15.53.53,0,0,0-.38.15.93.93,0,0,0-.19.65,1,1,0,0,0,.19.66.57.57,0,0,0,.38.15.53.53,0,0,0,.38-.15,1,1,0,0,0,.2-.66A.94.94,0,0,0,1003.91,567.69Z"/><path class="cls-5" d="M1007.64,569.4v-1.34c0-.3-.09-.5-.43-.5a.43.43,0,0,0-.32.14.81.81,0,0,0-.18.58v1.12h-.35v-1.34c0-.3-.09-.5-.43-.5a.44.44,0,0,0-.35.18.92.92,0,0,0-.15.54v1.12h-.35v-2.11h.31l0,.3a.66.66,0,0,1,.59-.36.62.62,0,0,1,.63.4.7.7,0,0,1,.65-.4c.48,0,.71.31.71.78v1.39Z"/><path class="cls-5" d="M928.06,540.26l-.24-.7h-1.28l-.24.7h-.37l1-3h.43l1.05,3Zm-.88-2.59-.52,1.54h1Z"/><path class="cls-5" d="M929.81,538.48a.53.53,0,0,0-.4.17.93.93,0,0,0-.19.67v.94h-.35v-2.11h.31l0,.37a.65.65,0,0,1,.63-.38H930v.35A.62.62,0,0,0,929.81,538.48Z"/><path class="cls-5" d="M931.78,540.08a.82.82,0,0,1-.61.23.88.88,0,0,1-.77-.39,1.3,1.3,0,0,1-.17-.72,1.28,1.28,0,0,1,.17-.71.88.88,0,0,1,.77-.39.85.85,0,0,1,.6.22.83.83,0,0,1,.25.54h-.36a.56.56,0,0,0-.15-.33.49.49,0,0,0-.34-.13.52.52,0,0,0-.37.14.84.84,0,0,0-.21.66.88.88,0,0,0,.21.67.57.57,0,0,0,.37.13.51.51,0,0,0,.36-.14.56.56,0,0,0,.14-.31H932A.83.83,0,0,1,931.78,540.08Z"/><path class="cls-5" d="M933.92,540.26v-1.34c0-.32-.13-.5-.46-.5a.52.52,0,0,0-.46.32,1.44,1.44,0,0,0-.07.54v1h-.36v-3h.36v1.18a.7.7,0,0,1,.61-.33.68.68,0,0,1,.74.77v1.39Z"/><path class="cls-5" d="M935,537.67v-.42h.41v.42Zm0,2.59v-2.11h.36v2.11Z"/><path class="cls-5" d="M937,540.26h-.39l-.78-2.11h.37l.61,1.69.59-1.69h.36Z"/><path class="cls-5" d="M939.85,539.32h-1.49a.78.78,0,0,0,.2.53.57.57,0,0,0,.39.15.53.53,0,0,0,.39-.14.39.39,0,0,0,.12-.23h.35a.76.76,0,0,1-.32.52,1,1,0,0,1-.54.16.87.87,0,0,1-.7-.32,1.15,1.15,0,0,1-.26-.78,1.23,1.23,0,0,1,.16-.67.89.89,0,0,1,.79-.44.87.87,0,0,1,.65.27,1,1,0,0,1,.26.74Zm-.49-.73a.5.5,0,0,0-.42-.19.57.57,0,0,0-.57.62h1.12A.75.75,0,0,0,939.36,538.59Z"/><path class="cls-5" d="M943.72,533.6v-2.28l-.64.46v-.56l.71-.52h.45v2.9Z"/><path class="cls-5" d="M946.09,533.6v-2.28l-.64.46v-.56l.71-.52h.45v2.9Z"/><path class="cls-5" d="M943.72,548.18V545.9l-.64.47v-.57l.71-.51h.45v2.89Z"/><path class="cls-5" d="M945.22,548.18v-.41l1.13-1.35a.59.59,0,0,0,.15-.37.34.34,0,0,0-.36-.36.38.38,0,0,0-.39.41h-.53a.83.83,0,0,1,.92-.87.82.82,0,0,1,.89.82,1.18,1.18,0,0,1-.31.7l-.8,1h1.15v.47Z"/><path class="cls-5" d="M933.69,554.84l-.56-1.23h-.81v1.23H932v-3h1.15a1,1,0,0,1,.75.26.8.8,0,0,1,.24.6.79.79,0,0,1-.23.58.73.73,0,0,1-.35.21l.59,1.3Zm-.59-2.61h-.78v1h.78c.35,0,.6-.15.6-.52S933.45,552.23,933.1,552.23Z"/><path class="cls-5" d="M936.79,553.46a1.69,1.69,0,0,1-.2.82l.5.56h-.45l-.25-.29a1.12,1.12,0,0,1-.85.35.86.86,0,0,1-.92-.86.87.87,0,0,1,.42-.74l.14-.09a1,1,0,0,1-.35-.69.69.69,0,0,1,.75-.69.69.69,0,0,1,.75.7.74.74,0,0,1-.38.66l-.21.13.61.69a2,2,0,0,0,.11-.86h.63v.31Zm-1.39,0-.17.11a.57.57,0,0,0-.26.47.53.53,0,0,0,.55.54.74.74,0,0,0,.64-.27Zm.17-1.32a.37.37,0,0,0-.39.39c0,.23.19.4.34.56.23-.13.47-.23.47-.54A.38.38,0,0,0,935.57,552.13Z"/><path class="cls-5" d="M939.57,554.55a1.1,1.1,0,0,1-.77.29h-1v-3h1a1.11,1.11,0,0,1,.77.3,1.52,1.52,0,0,1,.38,1.17A1.59,1.59,0,0,1,939.57,554.55Zm-.25-2.12a.77.77,0,0,0-.52-.2h-.66v2.27h.66a.77.77,0,0,0,.52-.2,1.81,1.81,0,0,0,0-1.87Z"/><path class="cls-5" d="M943.72,562.77v-2.28l-.64.46v-.57l.71-.51h.45v2.9Z"/><path class="cls-5" d="M946.13,562.82a.93.93,0,0,1-1-.89h.53a.43.43,0,0,0,.46.43.42.42,0,0,0,.46-.43.45.45,0,0,0-.51-.44h-.21V561h.21c.29,0,.45-.12.45-.39a.38.38,0,0,0-.4-.38c-.26,0-.44.13-.44.39h-.53a.88.88,0,0,1,1-.85.85.85,0,0,1,.93.83.66.66,0,0,1-.42.62.69.69,0,0,1,.48.68A.89.89,0,0,1,946.13,562.82Z"/><path class="cls-5" d="M928.7,569.43l-.07-.36a1,1,0,0,1-.8.41,1.09,1.09,0,0,1-.79-.3,1.57,1.57,0,0,1-.39-1.23,1.59,1.59,0,0,1,.39-1.22,1.14,1.14,0,0,1,.79-.31,1.16,1.16,0,0,1,.85.33.89.89,0,0,1,.25.58h-.39a.58.58,0,0,0-.13-.33.72.72,0,0,0-.58-.23.77.77,0,0,0-.54.22,1.37,1.37,0,0,0-.25,1,1.42,1.42,0,0,0,.26,1,.7.7,0,0,0,.53.21.78.78,0,0,0,.54-.2,1.05,1.05,0,0,0,.25-.75h-.79v-.35H929v1.6Z"/><path class="cls-5" d="M931.18,569.45a.29.29,0,0,1-.3-.32h0a.76.76,0,0,1-.68.35.67.67,0,0,1-.73-.65c0-.27.18-.63.75-.66l.65,0V568a.45.45,0,0,0-.11-.32.47.47,0,0,0-.35-.11.48.48,0,0,0-.38.13.33.33,0,0,0-.11.25h-.34a.59.59,0,0,1,.18-.44.9.9,0,0,1,.65-.23.73.73,0,0,1,.74.41.79.79,0,0,1,.07.32v1c0,.12,0,.14.11.14h.09v.26A.43.43,0,0,1,931.18,569.45Zm-.32-1-.57,0c-.21,0-.46.11-.46.38s.11.36.41.36a.6.6,0,0,0,.44-.17.7.7,0,0,0,.18-.48Z"/><path class="cls-5" d="M932.4,569.45c-.31,0-.44-.18-.44-.52v-2.51h.35v2.49c0,.14.05.22.2.22h.14v.3A1.15,1.15,0,0,1,932.4,569.45Z"/><path class="cls-5" d="M933.61,569.45c-.31,0-.44-.18-.44-.52v-2.51h.36v2.49c0,.14,0,.22.19.22h.14v.3A1.15,1.15,0,0,1,933.61,569.45Z"/><path class="cls-5" d="M936.07,568.49h-1.49a.78.78,0,0,0,.2.53.57.57,0,0,0,.39.15.53.53,0,0,0,.39-.14.47.47,0,0,0,.13-.23H936a.78.78,0,0,1-.32.52,1,1,0,0,1-.54.16.9.9,0,0,1-.7-.32,1.15,1.15,0,0,1-.26-.78,1.29,1.29,0,0,1,.16-.68.91.91,0,0,1,.8-.44.88.88,0,0,1,.64.27,1.07,1.07,0,0,1,.26.75Zm-.49-.74a.52.52,0,0,0-.41-.19.58.58,0,0,0-.58.62h1.12A.73.73,0,0,0,935.58,567.75Z"/><path class="cls-5" d="M937.61,567.65a.56.56,0,0,0-.4.16,1,1,0,0,0-.19.68v.94h-.35v-2.11H937l0,.37a.66.66,0,0,1,.63-.39l.16,0v.34Z"/><path class="cls-5" d="M939,569.86a.57.57,0,0,1-.57.45,1.64,1.64,0,0,1-.32,0V570a1.05,1.05,0,0,0,.25,0,.28.28,0,0,0,.31-.21l.14-.35-.84-2.11h.4L939,569l.59-1.66h.37Z"/><path class="cls-5" d="M938.84,560.55H937.7l1.22-1.22-.53-.52-1.77,1.77v.71h2.22a.37.37,0,0,1,.37.37V562h-3.33V558.7h-.74v4.07H940v-1.11A1.11,1.11,0,0,0,938.84,560.55Z"/><rect class="cls-5" x="936.39" y="558.33" width="1.57" height="0.74" transform="translate(-120.58 826.28) rotate(-45)"/><path class="cls-5" d="M933.66,562h-1.11v-.37h-.74v1.11h0a.74.74,0,0,1-.74.74v.74a1.48,1.48,0,0,0,1.48-1.48h1.85V558.7h-.74Z"/><path class="cls-5" d="M928.67,561.66v1.11h1.11v.74h-1.11a.74.74,0,0,1-.74-.74V562h-.74v.74a1.48,1.48,0,0,0,1.48,1.48h1.85V562h-1.11v-.37a.36.36,0,0,1,.37-.37h.74v-.74h-.74A1.11,1.11,0,0,0,928.67,561.66Z"/><path class="cls-11" d="M985.07,629.16v-6.24h.78v5.51h3v.73Z"/><path class="cls-11" d="M989.86,629.16v-6.24H994v.72h-3.39v1.9h3v.74h-3v2.16H994v.72Z"/><path class="cls-11" d="M997.44,629.16h-.82l-2.1-6.24h.81l1.72,5.27,1.69-5.27h.8Z"/><path class="cls-11" d="M1000.46,629.16v-6.24h4.17v.72h-3.39v1.9h3v.74h-3v2.16h3.39v.72Z"/><path class="cls-11" d="M1006,629.16v-6.24h.79v5.51h3v.73Z"/><path class="cls-11" d="M1014.09,629.16v-4.82l-1.35,1v-1.2l1.51-1.08h.94v6.12Z"/><path class="cls-11" d="M984.07,503.94V497.7h.79v5.51h3v.73Z"/><path class="cls-11" d="M988.86,503.94V497.7H993v.72h-3.39v1.9h3v.74h-3v2.16H993v.72Z"/><path class="cls-11" d="M996.44,503.94h-.81l-2.11-6.24h.81l1.73,5.27,1.69-5.27h.8Z"/><path class="cls-11" d="M999.47,503.94V497.7h4.17v.72h-3.39v1.9h3v.74h-3v2.16h3.39v.72Z"/><path class="cls-11" d="M1005,503.94V497.7h.78v5.51h3v.73Z"/><path class="cls-11" d="M1011.27,503.94v-.88l2.39-2.84a1.27,1.27,0,0,0,.32-.78.73.73,0,0,0-.78-.77.81.81,0,0,0-.82.88h-1.12a1.77,1.77,0,0,1,2-1.85,1.73,1.73,0,0,1,1.88,1.73,2.5,2.5,0,0,1-.66,1.49l-1.69,2h2.44v1Z"/><path class="cls-5" d="M918.43,516.54V515.2l-.39.27v-.33l.43-.3h.28v1.7Z"/><path class="cls-5" d="M919.87,516.54V515.2l-.39.27v-.33l.43-.3h.28v1.7Z"/><path class="cls-5" d="M910.76,512.16v-1.34l-.39.27v-.33l.44-.3h.27v1.7Z"/><path class="cls-5" d="M911.68,512.16v-.25l.68-.79a.35.35,0,0,0,.09-.21.2.2,0,0,0-.22-.22.23.23,0,0,0-.23.25h-.33a.5.5,0,0,1,.56-.51.49.49,0,0,1,.55.47.72.72,0,0,1-.2.42l-.48.56h.7v.28Z"/><line class="cls-12" x1="984.22" y1="482.84" x2="977.46" y2="478.94"/><line class="cls-12" x1="976.3" y1="487.41" x2="969.54" y2="483.51"/><line class="cls-12" x1="968.46" y1="491.94" x2="961.7" y2="488.04"/><line class="cls-12" x1="960.58" y1="496.49" x2="953.82" y2="492.59"/><line class="cls-12" x1="945.95" y1="497.13" x2="952.71" y2="501.03"/><line class="cls-12" x1="936.65" y1="491.89" x2="920.97" y2="500.94"/><polyline class="cls-12" points="936.92 510.15 1015.19 464.98 999.24 455.77 952.5 482.73"/><line class="cls-12" x1="925.48" y1="516.76" x2="936.92" y2="510.15"/><polyline class="cls-12" points="923.04 502.14 920.97 500.94 909.52 507.55"/><line class="cls-12" x1="936.92" y1="510.15" x2="926.32" y2="504.03"/><polyline class="cls-12" points="912.79 514.88 920.76 519.48 925.48 516.76 917.51 512.16"/><polygon class="cls-12" points="909.52 507.55 904.81 510.27 912.79 514.88 917.51 512.16 909.52 507.55"/><path class="cls-5" d="M937.82,500.53a.55.55,0,0,1-.61-.51.42.42,0,0,1,.26-.4.43.43,0,0,1-.22-.37c0-.32.27-.48.57-.48s.57.16.57.48a.43.43,0,0,1-.22.37.42.42,0,0,1,.26.4A.55.55,0,0,1,937.82,500.53Zm0-.78c-.19,0-.29.11-.29.25a.26.26,0,0,0,.29.26.26.26,0,0,0,.29-.26C938.11,499.86,938,499.75,937.82,499.75Zm0-.71c-.17,0-.25.09-.25.22a.22.22,0,0,0,.25.22c.17,0,.26-.1.26-.22S938,499,937.82,499Z"/><path class="cls-5" d="M991.71,469.51a.55.55,0,0,1-.43.17.54.54,0,0,1-.4-.14.43.43,0,0,1-.15-.31h.32a.16.16,0,0,0,.06.13.24.24,0,0,0,.18.06.23.23,0,0,0,.18-.07.49.49,0,0,0,.12-.38.47.47,0,0,1-.33.12.53.53,0,0,1-.58-.58.55.55,0,0,1,.6-.59.6.6,0,0,1,.6.54,1.71,1.71,0,0,1,0,.31A1.06,1.06,0,0,1,991.71,469.51Zm-.43-1.32c-.19,0-.28.14-.28.33a.28.28,0,1,0,.56,0C991.56,468.34,991.47,468.19,991.28,468.19Z"/><path class="cls-5" d="M952.13,497.7v-1.34l-.38.27v-.33l.43-.3h.27v1.7Z"/><path class="cls-5" d="M953.6,497.73a.56.56,0,0,1-.6-.52h.32a.26.26,0,0,0,.28.25.25.25,0,0,0,.28-.25c0-.18-.14-.26-.31-.26h-.13v-.27h.13c.17,0,.27-.07.27-.22a.23.23,0,0,0-.24-.23c-.16,0-.27.08-.27.23H953a.52.52,0,0,1,.59-.49.5.5,0,0,1,.56.48.38.38,0,0,1-.25.36.41.41,0,0,1,.29.4A.53.53,0,0,1,953.6,497.73Z"/><path class="cls-5" d="M960.11,492.89v-1.34l-.39.27v-.33l.43-.3h.27v1.7Z"/><path class="cls-5" d="M961.57,492.92a.56.56,0,0,1-.6-.52h.32a.26.26,0,0,0,.28.25.25.25,0,0,0,.28-.25c0-.18-.14-.26-.31-.26h-.13v-.26h.13c.17,0,.27-.07.27-.23a.23.23,0,0,0-.24-.22c-.15,0-.27.07-.27.23H961a.53.53,0,0,1,.59-.5.5.5,0,0,1,.56.48.39.39,0,0,1-.25.37.4.4,0,0,1,.29.39A.53.53,0,0,1,961.57,492.92Z"/><path class="cls-5" d="M967.77,488.25v-1.33l-.38.27v-.33l.43-.3h.27v1.69Z"/><path class="cls-5" d="M969.24,488.29a.56.56,0,0,1-.6-.53H969a.26.26,0,0,0,.28.26.26.26,0,0,0,.28-.26c0-.17-.14-.25-.31-.25h-.13v-.27h.13c.17,0,.27-.07.27-.23a.23.23,0,0,0-.24-.22c-.16,0-.27.08-.27.23h-.32a.53.53,0,0,1,.59-.5.5.5,0,0,1,.56.49.38.38,0,0,1-.25.36.41.41,0,0,1,.29.4A.53.53,0,0,1,969.24,488.29Z"/><path class="cls-5" d="M975.44,484.06v-1.34l-.39.27v-.33l.43-.3h.28v1.7Z"/><path class="cls-5" d="M976.9,484.09a.55.55,0,0,1-.59-.53h.31a.27.27,0,0,0,.29.26.26.26,0,0,0,.28-.26c0-.17-.15-.25-.31-.25h-.14V483h.14c.17,0,.27-.07.27-.22a.23.23,0,0,0-.24-.23c-.16,0-.27.08-.27.23h-.32c0-.32.26-.5.59-.5a.5.5,0,0,1,.56.49.38.38,0,0,1-.25.36.4.4,0,0,1,.28.4C977.5,483.91,977.24,484.09,976.9,484.09Z"/><polyline class="cls-12" points="922.2 502.66 923.07 503.16 923.07 502.44 924.57 501.58 924.82 501.72"/><polyline class="cls-12" points="926.32 504.03 924.82 504.9 922.2 503.38 922.2 502.66 923.7 501.79 923.95 501.94"/><line class="cls-12" x1="924.82" y1="502.73" x2="924.82" y2="504.9"/><polyline class="cls-12" points="923.07 502.44 923.95 502.95 923.95 502.23 925.45 501.36 926.32 501.86 926.32 504.03"/><line class="cls-12" x1="924.82" y1="502.73" x2="926.32" y2="501.86"/><line class="cls-12" x1="923.95" y1="502.23" x2="924.82" y2="502.73"/><path class="cls-5" d="M928.61,478.65v-1.34l-.39.28v-.34l.43-.3h.28v1.7Z"/><path class="cls-5" d="M930.5,478.53a.64.64,0,0,1-.82,0,1.37,1.37,0,0,1,0-1.46.64.64,0,0,1,.82,0,1.37,1.37,0,0,1,0,1.46Zm-.41-1.33c-.33,0-.3.38-.3.6s0,.6.3.6.3-.38.3-.6S930.42,477.2,930.09,477.2Z"/><polyline class="cls-12" points="942.88 488.29 952.5 482.73 926.03 467.45 925.61 467.69 910.75 476.27 910.17 476.6 936.65 491.89 940.26 489.8"/><line class="cls-13" x1="942.01" y1="486.63" x2="940.51" y2="485.76"/><line class="cls-13" x1="942.01" y1="486.63" x2="942.88" y2="486.12"/><line class="cls-13" x1="942.01" y1="487.35" x2="940.51" y2="486.48"/><line class="cls-13" x1="941.13" y1="487.85" x2="939.63" y2="486.99"/><line class="cls-13" x1="941.13" y1="488.57" x2="939.63" y2="487.71"/><polyline class="cls-13" points="941.13 487.85 942.01 487.35 942.01 486.63"/><polyline class="cls-13" points="939.63 487.71 939.63 486.99 940.51 486.48"/><polyline class="cls-13" points="941.13 487.85 941.13 488.57 940.26 489.08 938.76 488.21"/><polyline class="cls-13" points="940.51 486.48 940.51 485.76 941.38 485.25 942.88 486.12 942.88 488.29 940.26 489.8 938.76 488.94 938.76 488.21 939.63 487.71"/><line class="cls-13" x1="940.26" y1="489.08" x2="940.26" y2="489.8"/><path class="cls-5" d="M925.92,725.78V724.5l-.37.26v-.32l.42-.28h.26v1.62Z"/><g class="cls-14"><line class="cls-15" x1="1017.4" y1="578.81" x2="1017.4" y2="639.01"/><line class="cls-15" x1="1015.92" y1="578.81" x2="1015.92" y2="639.01"/><line class="cls-15" x1="1014.44" y1="578.81" x2="1014.44" y2="639.01"/><line class="cls-15" x1="1012.96" y1="578.81" x2="1012.96" y2="639.01"/><line class="cls-15" x1="1011.48" y1="578.81" x2="1011.48" y2="639.01"/><line class="cls-15" x1="1010" y1="578.81" x2="1010" y2="639.01"/><line class="cls-15" x1="1008.52" y1="578.81" x2="1008.52" y2="639.01"/><line class="cls-15" x1="1007.04" y1="578.81" x2="1007.04" y2="639.01"/><line class="cls-15" x1="1005.56" y1="578.81" x2="1005.56" y2="639.01"/><line class="cls-15" x1="1004.08" y1="578.81" x2="1004.08" y2="639.01"/><line class="cls-15" x1="1002.6" y1="578.81" x2="1002.6" y2="639.01"/><line class="cls-15" x1="1001.12" y1="578.81" x2="1001.12" y2="639.01"/><line class="cls-15" x1="999.64" y1="578.81" x2="999.64" y2="639.01"/><line class="cls-15" x1="998.16" y1="578.81" x2="998.16" y2="639.01"/><line class="cls-15" x1="996.68" y1="578.81" x2="996.68" y2="639.01"/><line class="cls-15" x1="995.2" y1="578.81" x2="995.2" y2="639.01"/><line class="cls-15" x1="993.72" y1="578.81" x2="993.72" y2="639.01"/><line class="cls-15" x1="992.24" y1="578.81" x2="992.24" y2="639.01"/><line class="cls-15" x1="990.76" y1="578.81" x2="990.76" y2="639.01"/><line class="cls-15" x1="989.28" y1="578.81" x2="989.28" y2="639.01"/><line class="cls-15" x1="987.8" y1="578.81" x2="987.8" y2="639.01"/><line class="cls-15" x1="986.32" y1="578.81" x2="986.32" y2="639.01"/><line class="cls-15" x1="984.84" y1="578.81" x2="984.84" y2="639.01"/><line class="cls-15" x1="983.36" y1="578.81" x2="983.36" y2="639.01"/><line class="cls-15" x1="981.88" y1="578.81" x2="981.88" y2="639.01"/><line class="cls-15" x1="980.4" y1="578.81" x2="980.4" y2="639.01"/><line class="cls-15" x1="978.92" y1="578.81" x2="978.92" y2="639.01"/><line class="cls-15" x1="977.44" y1="578.81" x2="977.44" y2="639.01"/><line class="cls-15" x1="975.96" y1="578.81" x2="975.96" y2="639.01"/><line class="cls-15" x1="974.48" y1="578.81" x2="974.48" y2="639.01"/><line class="cls-15" x1="973" y1="578.81" x2="973" y2="639.01"/><line class="cls-15" x1="971.52" y1="578.81" x2="971.52" y2="639.01"/><line class="cls-15" x1="970.04" y1="578.81" x2="970.04" y2="639.01"/><line class="cls-15" x1="968.56" y1="578.81" x2="968.56" y2="639.01"/><line class="cls-15" x1="967.08" y1="578.81" x2="967.08" y2="639.01"/><line class="cls-15" x1="965.6" y1="578.81" x2="965.6" y2="639.01"/><line class="cls-15" x1="964.12" y1="578.81" x2="964.12" y2="639.01"/><line class="cls-15" x1="962.64" y1="578.81" x2="962.64" y2="639.01"/><line class="cls-15" x1="961.16" y1="578.81" x2="961.16" y2="639.01"/><line class="cls-15" x1="959.68" y1="578.81" x2="959.68" y2="639.01"/><line class="cls-15" x1="958.2" y1="578.81" x2="958.2" y2="639.01"/><line class="cls-15" x1="956.73" y1="578.81" x2="956.73" y2="639.01"/><line class="cls-15" x1="955.25" y1="578.81" x2="955.25" y2="639.01"/><line class="cls-15" x1="953.77" y1="578.81" x2="953.77" y2="639.01"/><line class="cls-15" x1="952.29" y1="578.81" x2="952.29" y2="639.01"/><line class="cls-15" x1="950.81" y1="578.81" x2="950.81" y2="639.01"/><line class="cls-15" x1="949.33" y1="578.81" x2="949.33" y2="639.01"/><line class="cls-15" x1="947.85" y1="578.81" x2="947.85" y2="639.01"/><line class="cls-15" x1="946.37" y1="578.81" x2="946.37" y2="639.01"/><line class="cls-15" x1="944.89" y1="578.81" x2="944.89" y2="639.01"/><line class="cls-15" x1="943.41" y1="578.81" x2="943.41" y2="639.01"/><line class="cls-15" x1="941.93" y1="578.81" x2="941.93" y2="639.01"/><line class="cls-15" x1="940.45" y1="578.81" x2="940.45" y2="639.01"/><line class="cls-15" x1="938.97" y1="578.81" x2="938.97" y2="639.01"/><line class="cls-15" x1="937.49" y1="578.81" x2="937.49" y2="639.01"/><line class="cls-15" x1="936.01" y1="578.81" x2="936.01" y2="639.01"/><line class="cls-15" x1="934.53" y1="578.81" x2="934.53" y2="639.01"/><line class="cls-15" x1="933.05" y1="578.81" x2="933.05" y2="639.01"/><line class="cls-15" x1="931.57" y1="578.81" x2="931.57" y2="639.01"/><line class="cls-15" x1="930.09" y1="578.81" x2="930.09" y2="639.01"/><line class="cls-15" x1="928.61" y1="578.81" x2="928.61" y2="639.01"/><line class="cls-15" x1="927.13" y1="578.81" x2="927.13" y2="639.01"/><line class="cls-15" x1="925.65" y1="578.81" x2="925.65" y2="639.01"/><line class="cls-15" x1="924.17" y1="578.81" x2="924.17" y2="639.01"/><line class="cls-15" x1="922.69" y1="578.81" x2="922.69" y2="639.01"/><line class="cls-15" x1="921.21" y1="578.81" x2="921.21" y2="639.01"/><line class="cls-15" x1="919.73" y1="578.81" x2="919.73" y2="639.01"/></g><path class="cls-5" d="M930,604.14a.59.59,0,0,1-.6-.54,1.73,1.73,0,0,1,0-.32,1.08,1.08,0,0,1,.2-.74.57.57,0,0,1,.43-.17.58.58,0,0,1,.4.14.45.45,0,0,1,.15.32h-.32a.18.18,0,0,0-.06-.13c0-.05-.1-.06-.19-.06a.22.22,0,0,0-.17.06.51.51,0,0,0-.12.39A.47.47,0,0,1,930,603a.53.53,0,0,1,.58.58A.55.55,0,0,1,930,604.14Zm0-.92a.28.28,0,0,0-.27.31c0,.19.09.33.28.33s.28-.13.28-.33A.28.28,0,0,0,929.94,603.22Z"/><path class="cls-5" d="M917.2,640.62h-.34l.69-1.42h-.88v-.27h1.22v.24Z"/><line class="cls-16" x1="936.75" y1="635.45" x2="926.24" y2="629.38"/><polyline class="cls-16" points="942.71 613.74 952.33 608.19 925.86 592.9 925.43 593.15 910.58 601.73 910 602.06 936.47 617.34 940.09 615.26"/><line class="cls-16" x1="932.93" y1="637.65" x2="936.75" y2="635.45"/><polyline class="cls-16" points="909.55 632.89 904.91 635.57 913.39 640.46 920.14 644.35 920.73 644.7 925.37 642.02"/><line class="cls-16" x1="920.93" y1="626.32" x2="917.08" y2="628.54"/><line class="cls-16" x1="924.6" y1="635.94" x2="920.8" y2="638.14"/><polyline class="cls-16" points="920.8 638.13 919.72 638.76 925.37 642.02 930.24 639.2"/><line class="cls-16" x1="920.72" y1="635" x2="922.2" y2="634.15"/><polyline class="cls-16" points="922.2 634.15 924.5 632.82 917.08 628.54 913.3 630.72"/><polyline class="cls-16" points="919.27 635.84 920.72 635 913.3 630.72 909.55 632.89 916.97 637.17 919.27 635.84"/><line class="cls-16" x1="929.13" y1="635.46" x2="927.57" y2="634.56"/><polyline class="cls-16" points="927.57 634.56 927.28 634.39 924.6 635.94 926.44 637.01"/><polyline class="cls-16" points="930.3 636.13 929.13 635.46 926.44 637.01 930.24 639.2 932.93 637.65 930.3 636.13"/><polyline class="cls-16" points="922.99 627.5 920.93 626.31 936.47 617.34"/><line class="cls-17" x1="941.84" y1="612.08" x2="940.34" y2="611.21"/><line class="cls-17" x1="941.84" y1="612.08" x2="942.71" y2="611.58"/><polyline class="cls-17" points="922.12 628.01 922.99 628.51 922.99 627.79 924.49 626.92 924.74 627.07"/><polyline class="cls-17" points="926.24 629.38 924.74 630.25 922.12 628.73 922.12 628.01 923.62 627.14 923.87 627.28"/><line class="cls-17" x1="924.74" y1="628.08" x2="924.74" y2="630.24"/><polyline class="cls-17" points="922.99 627.79 923.87 628.3 923.87 627.57 925.37 626.71 926.24 627.21 926.24 629.38"/><line class="cls-17" x1="924.74" y1="628.08" x2="926.24" y2="627.21"/><line class="cls-17" x1="923.87" y1="627.57" x2="924.74" y2="628.08"/><line class="cls-17" x1="941.84" y1="612.8" x2="940.34" y2="611.94"/><line class="cls-17" x1="940.96" y1="613.31" x2="939.46" y2="612.44"/><line class="cls-17" x1="940.96" y1="614.03" x2="939.46" y2="613.16"/><polyline class="cls-18" points="952.33 608.19 999.48 580.97 999.91 581.22 1001.1 581.9 1003.31 583.18 1007.37 585.52 1015.29 590.1 936.75 635.45"/><polyline class="cls-17" points="940.96 613.31 941.84 612.8 941.84 612.08"/><polyline class="cls-17" points="939.46 613.16 939.46 612.44 940.34 611.94"/><polyline class="cls-17" points="940.96 613.31 940.96 614.03 940.09 614.53 938.59 613.67"/><polyline class="cls-17" points="940.34 611.94 940.34 611.21 941.21 610.71 942.71 611.58 942.71 613.74 940.09 615.26 938.59 614.39 938.59 613.67 939.46 613.16"/><line class="cls-17" x1="940.09" y1="614.53" x2="940.09" y2="615.26"/><path class="cls-11" d="M983.79,722.26V716h.78v5.51h3v.73Z"/><path class="cls-11" d="M988.58,722.26V716h4.17v.72h-3.39v1.9h3v.74h-3v2.16h3.39v.72Z"/><path class="cls-11" d="M996.16,722.26h-.82L993.23,716H994l1.73,5.27,1.69-5.27h.8Z"/><path class="cls-11" d="M999.18,722.26V716h4.17v.72H1000v1.9h3v.74h-3v2.16h3.39v.72Z"/><path class="cls-11" d="M1004.68,722.26V716h.78v5.51h3v.73Z"/><path class="cls-11" d="M1014.38,721.83a2.16,2.16,0,0,1-2.86,0,5.12,5.12,0,0,1,0-5.27,2.16,2.16,0,0,1,2.86,0,5.12,5.12,0,0,1,0,5.27ZM1013,717c-1.14,0-1,1.36-1,2.15s-.1,2.16,1,2.16,1-1.36,1-2.16S1014.08,717,1013,717Z"/><path class="cls-19" d="M954.89,731.3v.87h-.27v-.87L953.9,730h.31l.55,1,.56-1h.29Z"/><path class="cls-19" d="M956.74,732a.68.68,0,0,1-.92,0,.81.81,0,0,1-.22-.62.84.84,0,0,1,.22-.63.71.71,0,0,1,.92,0,.88.88,0,0,1,.21.63A.84.84,0,0,1,956.74,732Zm-.19-1.09a.34.34,0,0,0-.27-.11.38.38,0,0,0-.28.11.71.71,0,0,0-.14.47.73.73,0,0,0,.14.47.42.42,0,0,0,.28.11.37.37,0,0,0,.27-.11.68.68,0,0,0,.14-.47A.66.66,0,0,0,956.55,730.94Z"/><path class="cls-19" d="M958.36,732.17l0-.23a.49.49,0,0,1-.45.26c-.35,0-.52-.2-.52-.56v-1h.26v1c0,.23.08.36.32.36a.33.33,0,0,0,.25-.11.6.6,0,0,0,.13-.42v-.79h.25v1.52Z"/><path class="cls-19" d="M960.94,732.19a.21.21,0,0,1-.22-.23h0a.55.55,0,0,1-.49.25.48.48,0,0,1-.52-.47c0-.2.13-.45.54-.48l.47,0v-.12a.31.31,0,0,0-.08-.23.34.34,0,0,0-.25-.08.35.35,0,0,0-.28.1.21.21,0,0,0-.07.18h-.25a.43.43,0,0,1,.13-.32.64.64,0,0,1,.47-.16.52.52,0,0,1,.53.29.59.59,0,0,1,.05.23v.74c0,.08,0,.1.08.1h.07v.19A.35.35,0,0,1,960.94,732.19Zm-.23-.76-.41,0c-.16,0-.34.08-.34.27s.09.26.3.26a.47.47,0,0,0,.32-.12.49.49,0,0,0,.13-.35Z"/><path class="cls-19" d="M962.19,730.88a.45.45,0,0,0-.29.12.71.71,0,0,0-.14.49v.68h-.25v-1.52h.23l0,.26a.47.47,0,0,1,.45-.27h.12v.25Z"/><path class="cls-19" d="M963.86,731.49h-1.08a.56.56,0,0,0,.15.38.38.38,0,0,0,.28.11.36.36,0,0,0,.28-.1.31.31,0,0,0,.09-.16h.25a.54.54,0,0,1-.23.37.75.75,0,0,1-.39.12.66.66,0,0,1-.51-.23.91.91,0,0,1-.19-.57,1,1,0,0,1,.12-.48.64.64,0,0,1,.58-.32.61.61,0,0,1,.46.19.83.83,0,0,1,.19.54Zm-.35-.53a.39.39,0,0,0-.3-.14.42.42,0,0,0-.42.45h.81A.54.54,0,0,0,963.51,731Z"/><path class="cls-19" d="M966,732.17v-1c0-.23-.1-.36-.34-.36a.38.38,0,0,0-.33.23,1,1,0,0,0,0,.39v.71H965V730h.26v.85a.5.5,0,0,1,.44-.24.49.49,0,0,1,.53.56v1Z"/><path class="cls-19" d="M968,731.49h-1.08a.56.56,0,0,0,.15.38.38.38,0,0,0,.28.11.36.36,0,0,0,.28-.1.31.31,0,0,0,.09-.16h.25a.54.54,0,0,1-.23.37.75.75,0,0,1-.39.12.65.65,0,0,1-.51-.23.91.91,0,0,1-.19-.57,1,1,0,0,1,.12-.48.64.64,0,0,1,.57-.32.62.62,0,0,1,.47.19.83.83,0,0,1,.19.54Zm-.35-.53a.4.4,0,0,0-.31-.14.42.42,0,0,0-.41.45h.81A.63.63,0,0,0,967.62,731Z"/><path class="cls-19" d="M969.08,730.88a.45.45,0,0,0-.29.12.71.71,0,0,0-.14.49v.68h-.25v-1.52h.22l0,.26a.47.47,0,0,1,.45-.27h.12v.25Z"/><path class="cls-19" d="M970.75,731.49h-1.08a.52.52,0,0,0,.15.38.38.38,0,0,0,.28.11.36.36,0,0,0,.28-.1.31.31,0,0,0,.09-.16h.25a.52.52,0,0,1-.24.37.69.69,0,0,1-.38.12.65.65,0,0,1-.51-.23,1,1,0,0,1-.07-1.05.64.64,0,0,1,.57-.32.63.63,0,0,1,.47.19.83.83,0,0,1,.19.54Zm-.36-.53a.36.36,0,0,0-.3-.14.43.43,0,0,0-.42.45h.82A.55.55,0,0,0,970.39,731Z"/><polygon class="cls-19" points="950.91 731.93 949.79 732.63 950.11 731.35 949.1 730.51 950.42 730.41 950.91 729.2 951.4 730.41 952.71 730.51 951.7 731.35 952.02 732.63 950.91 731.93"/><polyline class="cls-16" points="928.94 732.99 921.02 728.42 912.7 733.22"/><line class="cls-16" x1="926.41" y1="730.29" x2="925.33" y2="730.91"/><path class="cls-5" d="M974.55,697.44a.57.57,0,0,1-.61-.53h.32a.27.27,0,0,0,.3.26c.21,0,.29-.15.29-.33a.27.27,0,0,0-.29-.31.32.32,0,0,0-.27.14H974l0-1h1.07V696h-.8l0,.39a.56.56,0,0,1,.9.46A.57.57,0,0,1,974.55,697.44Z"/><path class="cls-5" d="M914.85,728.06v-.25l.69-.79a.35.35,0,0,0,.09-.21.21.21,0,0,0-.22-.22.23.23,0,0,0-.24.25h-.32a.51.51,0,0,1,.56-.52.5.5,0,0,1,.54.48.7.7,0,0,1-.19.42l-.49.56H916v.28Z"/><path class="cls-5" d="M930.79,698.62V699h-.31v-.34h-.79v-.29l.65-1.07h.34l-.66,1.08h.46v-.4h.31v.4H931v.28Z"/><polyline class="cls-16" points="929.18 728.69 924.87 726.2 922.75 727.42 927.06 729.91"/><polyline class="cls-16" points="936.65 728.54 933.04 726.46 926.41 730.29"/><line class="cls-16" x1="922.66" y1="720.36" x2="920.93" y2="719.36"/><polyline class="cls-16" points="942.61 706.84 947.42 704.06 952.23 701.29 925.75 686 909.9 695.16 936.37 710.44 939.98 708.36"/><polygon class="cls-16" points="931.54 727.33 927.23 724.84 924.87 726.2 929.18 728.69 931.54 727.33"/><line class="cls-16" x1="933.04" y1="726.46" x2="926.3" y2="722.57"/><polyline class="cls-17" points="921.69 720.92 922.73 721.52 922.73 720.8 924.23 719.93 924.64 720.17"/><polyline class="cls-17" points="926.3 722.57 924.8 723.43 921.69 721.64 921.69 720.92 923.19 720.05 923.6 720.29"/><line class="cls-17" x1="924.8" y1="721.27" x2="924.8" y2="723.43"/><polyline class="cls-17" points="922.73 720.8 923.76 721.39 923.76 720.67 925.26 719.81 926.3 720.4 926.3 722.57"/><line class="cls-17" x1="924.8" y1="721.27" x2="926.3" y2="720.4"/><line class="cls-17" x1="923.76" y1="720.67" x2="924.8" y2="721.27"/><line class="cls-16" x1="942.61" y1="706.84" x2="939.98" y2="708.35"/><line class="cls-17" x1="939.98" y1="708.35" x2="939.98" y2="707.63"/><line class="cls-17" x1="941.73" y1="705.9" x2="940.23" y2="705.03"/><polyline class="cls-17" points="940.86 706.41 941.73 705.9 941.73 705.18"/><polyline class="cls-17" points="939.36 706.26 939.36 705.54 940.23 705.03"/><line class="cls-17" x1="940.86" y1="706.41" x2="939.36" y2="705.54"/><line class="cls-17" x1="940.86" y1="707.13" x2="939.36" y2="706.26"/><polyline class="cls-17" points="939.98 707.63 940.86 707.13 940.86 706.41"/><line class="cls-17" x1="939.98" y1="707.63" x2="938.48" y2="706.77"/><line class="cls-17" x1="941.73" y1="705.18" x2="940.23" y2="704.31"/><polyline class="cls-17" points="940.23 705.03 940.23 704.31 941.11 703.81 942.61 704.67 942.61 706.84 939.98 708.36 938.48 707.49 938.48 706.77 939.36 706.26"/><line class="cls-17" x1="941.73" y1="705.18" x2="942.61" y2="704.67"/><path class="cls-5" d="M947.06,718.78a.55.55,0,0,1-.6-.52h.31a.27.27,0,0,0,.29.26.26.26,0,0,0,.28-.26c0-.17-.15-.25-.31-.25h-.13v-.27H947c.17,0,.27-.07.27-.23a.23.23,0,0,0-.24-.22c-.16,0-.27.08-.27.23h-.32a.53.53,0,0,1,.59-.5.5.5,0,0,1,.56.49.38.38,0,0,1-.25.36.41.41,0,0,1,.29.4C947.66,718.61,947.39,718.78,947.06,718.78Z"/><polyline class="cls-16" points="949.88 711.95 945.24 709.27 936.34 714.41 940.98 717.09"/><polyline class="cls-16" points="957.63 716.43 949.88 711.95 937.11 719.33 944.86 723.8"/><line class="cls-16" x1="957.63" y1="716.43" x2="941.82" y2="707.3"/><polyline class="cls-16" points="936.37 710.44 904.81 728.66 920.62 737.79 1015.19 683.2 999.81 674.32 999.38 674.07 952.23 701.29"/><polygon class="cls-19" points="919.5 733.93 918.34 734.66 918.67 733.33 917.62 732.45 918.99 732.35 919.5 731.08 920.01 732.35 921.39 732.45 920.33 733.33 920.67 734.66 919.5 733.93"/><rect class="cls-5" x="939.21" y="529.52" width="0.74" height="4.08"/><path class="cls-5" d="M938.9,527.8a1.28,1.28,0,0,0-1.28,1.27v.45h.74v-.45a.54.54,0,0,1,.54-.53h2.26v-.74Z"/><path class="cls-5" d="M937.91,533.23a.74.74,0,0,1-.74.74v.74a1.48,1.48,0,0,0,1.48-1.48v-1.48h-.74Z"/><rect class="cls-5" x="926.42" y="534.34" width="1.48" height="0.74"/><path class="cls-5" d="M936.06,532.49a.38.38,0,0,1-.37.37.37.37,0,0,1-.37-.37v-.37h-.75v.37a.37.37,0,0,1-.37.37h-.74v-.74h-.74v.74H929a.38.38,0,0,1-.37-.37v-.37h-.74v.37a.37.37,0,0,1-.37.37h-1.11a.38.38,0,0,1-.37-.37h0a1.12,1.12,0,1,0-1.11,1.11.94.94,0,0,0,.37-.07v.07a.74.74,0,0,1-.74.74h-.37v.74h.37a1.48,1.48,0,0,0,1.48-1.48v-.07a.94.94,0,0,0,.37.07h1.11a1.07,1.07,0,0,0,.74-.29,1.11,1.11,0,0,0,.74.29h5.19a1.11,1.11,0,0,0,.75-.29,1.07,1.07,0,0,0,.74.29,1.11,1.11,0,0,0,1.11-1.11v-.74h-.74Zm-11.12.37a.37.37,0,0,1-.29-.14.36.36,0,0,1-.07-.32.34.34,0,0,1,.27-.27h.09a.38.38,0,0,1,.23.08.36.36,0,0,1,.14.29h0A.38.38,0,0,1,924.94,532.86Z"/><polygon class="cls-5" points="935.32 529.52 934.58 529.52 934.58 530.26 933.83 530.26 933.83 531 935.32 531 935.32 529.52"/><path class="cls-5" d="M939.21,546.33v1.11h-1.86v-.74h-.74v1.48a.74.74,0,0,1-.74.74v.75a1.49,1.49,0,0,0,1.48-1.49H940v-1.85Z"/><polygon class="cls-5" points="937.73 549.67 938.47 549.67 938.47 550.41 939.21 550.41 939.21 549.67 939.21 548.92 937.73 548.92 937.73 549.67"/><polygon class="cls-5" points="937.36 544.11 936.61 544.11 936.61 544.85 935.87 544.85 935.87 545.59 937.36 545.59 937.36 544.11"/><polygon class="cls-5" points="925.74 544.11 925 544.11 925 544.85 924.26 544.85 924.26 545.59 925.74 545.59 925.74 544.11"/><path class="cls-5" d="M934.45,546a1.11,1.11,0,0,0,0,2.22,1.15,1.15,0,0,0,.37-.06v.06a.74.74,0,0,1-.74.74h-.37v.75h.37a1.49,1.49,0,0,0,1.48-1.49v-1.11A1.11,1.11,0,0,0,934.45,546Zm0,1.48a.37.37,0,0,1-.37-.37.37.37,0,1,1,.74,0A.37.37,0,0,1,934.45,547.44Z"/><path class="cls-5" d="M930.37,545.36l1.49,1.49v.59h-.62a1.11,1.11,0,1,0-2.1,0h-1.55a.37.37,0,0,1-.37-.37v-.74h-.74v.74a.36.36,0,0,1-.37.37.37.37,0,0,1-.37-.37v-.37H925v.37a.37.37,0,0,1-.37.37h-.74v-.74h-.75v1.67a.93.93,0,1,1-1.85,0v-.93h-.74v.93a1.67,1.67,0,1,0,3.34,0v-.19h.74a1.12,1.12,0,0,1,1.48,0,1.06,1.06,0,0,0,.74-.28,1.1,1.1,0,0,0,.74.28h5v-1.63l-1.71-1.71Zm-.55,1.71a.37.37,0,0,1,.37-.37.38.38,0,0,1,.37.37.37.37,0,0,1-.37.37A.36.36,0,0,1,929.82,547.07Z"/><path class="cls-5" d="M994.27,654a1.11,1.11,0,1,0,1.11,1.11A1.11,1.11,0,0,0,994.27,654Zm0,1.48a.38.38,0,0,1-.37-.37.37.37,0,0,1,.37-.37.36.36,0,0,1,.37.37A.37.37,0,0,1,994.27,655.45Z"/><path class="cls-5" d="M1001.67,656.19a.74.74,0,0,1-.74.73v.74a1.48,1.48,0,0,0,1.48-1.47v-1.48h-.74Z"/><path class="cls-5" d="M1006.84,654h-1.14l1.22-1.22-.52-.52-1.78,1.77v.71h2.22a.36.36,0,0,1,.37.37v.37h-3.32v-3.33h-.74v4.07h4.8v-1.11A1.11,1.11,0,0,0,1006.84,654Z"/><path class="cls-5" d="M1000.93,656.19v-1.11a1.11,1.11,0,0,0-1.11-1.11h-1.14l1.21-1.22-.52-.52L997.6,654v.71h2.22a.37.37,0,0,1,.37.37v.37h-3.33v-3.33h-.74v4.07h4.81Z"/><rect class="cls-5" x="997.37" y="651.75" width="1.57" height="0.74" transform="translate(-168.77 896.8) rotate(-45)"/><path class="cls-5" d="M990.58,654a1.1,1.1,0,0,0-1.11,1.11,1.15,1.15,0,0,0,.06.37h-.8v-.74H988v1.48a.74.74,0,0,1-.74.74v.73a1.48,1.48,0,0,0,1.48-1.47h1.85a1.11,1.11,0,0,0,0-2.22Zm0,1.48a.37.37,0,0,1-.37-.37.37.37,0,1,1,.73,0A.37.37,0,0,1,990.58,655.45Z"/><rect class="cls-5" x="990.21" y="652.49" width="0.74" height="0.73"/><polygon class="cls-5" points="985.77 652.49 985.03 652.49 985.03 653.23 984.29 653.23 984.29 653.97 985.77 653.97 985.77 652.49"/><path class="cls-5" d="M987.25,654.34h-.74v.74a.38.38,0,0,1-.37.37.37.37,0,0,1-.37-.37v-.36H985v.36h0a.36.36,0,0,1-.36.36h-.75v-.74h-.74v1.66a.93.93,0,0,1-1.85,0v-.92h-.74v.92a1.67,1.67,0,0,0,3.33,0v-.18h.75a1.06,1.06,0,0,0,.73-.29,1.1,1.1,0,0,0,1.85-.82Z"/><path class="cls-5" d="M972.59,772.4a1,1,0,0,1-.73.25h-.73v1.14h-.37v-2.95h1.1a1,1,0,0,1,.75.27.88.88,0,0,1,.22.62A.9.9,0,0,1,972.59,772.4Zm-.74-1.22h-.72v1.13h.73a.51.51,0,0,0,.59-.58C972.45,771.36,972.22,771.18,971.85,771.18Z"/><path class="cls-5" d="M974.69,773.79v-1.33c0-.32-.13-.51-.46-.51a.53.53,0,0,0-.46.33,1.36,1.36,0,0,0-.07.53v1h-.36v-3h.36V772a.71.71,0,0,1,.61-.34.69.69,0,0,1,.74.78v1.38Z"/><path class="cls-5" d="M977.2,773.6a.94.94,0,0,1-1.28,0,1.38,1.38,0,0,1,0-1.72.94.94,0,0,1,1.28,0,1.38,1.38,0,0,1,0,1.72Zm-.26-1.51a.56.56,0,0,0-.76,0,1.21,1.21,0,0,0,0,1.3.56.56,0,0,0,.76,0,1.16,1.16,0,0,0,0-1.3Z"/><path class="cls-5" d="M978.76,773.82a.51.51,0,0,1-.58-.57V772h-.41v-.3h.41v-.54l.35-.08v.62h.63v.3h-.63v1.22c0,.2.09.29.29.29a2.39,2.39,0,0,0,.36,0v.3A1.39,1.39,0,0,1,978.76,773.82Z"/><path class="cls-5" d="M981.06,773.6a.89.89,0,0,1-.64.25.93.93,0,0,1-.64-.25,1.38,1.38,0,0,1,0-1.72.93.93,0,0,1,.64-.25.89.89,0,0,1,.64.25,1.38,1.38,0,0,1,0,1.72Zm-.26-1.51a.56.56,0,0,0-.76,0,1.21,1.21,0,0,0,0,1.3.56.56,0,0,0,.76,0,1.16,1.16,0,0,0,0-1.3Z"/><path class="cls-5" d="M983.59,774.53a1.23,1.23,0,0,1-.85.25,1.09,1.09,0,0,1-.8-.25.5.5,0,0,1-.15-.37.51.51,0,0,1,.3-.47.38.38,0,0,1-.25-.35.45.45,0,0,1,.28-.41.77.77,0,0,1-.24-.55.68.68,0,0,1,.2-.51.84.84,0,0,1,.63-.24.88.88,0,0,1,.48.13.44.44,0,0,1,.43-.3h.11v.29h-.08a.25.25,0,0,0-.26.19.68.68,0,0,1,.14.44.8.8,0,0,1-.19.51.83.83,0,0,1-.63.25,1.13,1.13,0,0,1-.36-.06.24.24,0,0,0-.18.18c0,.19.19.21.32.21h.42a1,1,0,0,1,.69.22.58.58,0,0,1,.17.42A.59.59,0,0,1,983.59,774.53Zm-.83-.76h-.38a.38.38,0,0,0-.27.34.29.29,0,0,0,.09.22,1.19,1.19,0,0,0,1.14,0,.29.29,0,0,0,.08-.21C983.42,773.75,983,773.77,982.76,773.77Zm-.06-1.85a.46.46,0,0,0-.48.46.45.45,0,0,0,.48.47.45.45,0,0,0,.48-.47A.45.45,0,0,0,982.7,771.92Z"/><path class="cls-5" d="M985.16,772a.56.56,0,0,0-.4.16,1,1,0,0,0-.19.68v.93h-.35v-2.1h.31l0,.37a.66.66,0,0,1,.63-.39l.16,0V772Z"/><path class="cls-5" d="M987.3,773.82a.3.3,0,0,1-.3-.32h0a.77.77,0,0,1-.68.35.66.66,0,0,1-.72-.65c0-.27.17-.63.75-.66l.64,0v-.15a.4.4,0,0,0-.11-.32.45.45,0,0,0-.34-.11.53.53,0,0,0-.39.12.38.38,0,0,0-.1.26h-.35a.64.64,0,0,1,.19-.44.9.9,0,0,1,.65-.23.74.74,0,0,1,.74.41.79.79,0,0,1,.06.32v1c0,.11,0,.14.12.14h.09v.26A.49.49,0,0,1,987.3,773.82Zm-.32-1-.57,0c-.21,0-.46.11-.46.38s.12.36.42.36a.57.57,0,0,0,.43-.17.66.66,0,0,0,.18-.48Z"/><path class="cls-5" d="M989.64,773.64a.8.8,0,0,1-.58.21.74.74,0,0,1-.61-.3v1.15h-.35v-3h.31l0,.28a.71.71,0,0,1,.62-.33.78.78,0,0,1,.6.23,1.23,1.23,0,0,1,.3.87A1.21,1.21,0,0,1,989.64,773.64Zm-.63-1.7a.48.48,0,0,0-.34.13.87.87,0,0,0-.24.67.84.84,0,0,0,.24.67.45.45,0,0,0,.34.14c.47,0,.59-.42.59-.81S989.48,771.94,989,771.94Z"/><path class="cls-5" d="M991.92,773.79v-1.33c0-.32-.13-.51-.46-.51a.53.53,0,0,0-.46.33,1.36,1.36,0,0,0-.07.53v1h-.36v-3h.36V772a.71.71,0,0,1,.61-.34.69.69,0,0,1,.74.78v1.38Z"/><path class="cls-5" d="M993.67,774.23a.57.57,0,0,1-.57.45,1.64,1.64,0,0,1-.32,0v-.31a1.05,1.05,0,0,0,.25,0,.28.28,0,0,0,.31-.21l.14-.36-.84-2.1h.4l.62,1.66.59-1.66h.37Z"/><path class="cls-5" d="M997.8,773.55a1.34,1.34,0,0,1-1.68,0,.94.94,0,0,1-.32-.7h.39a.66.66,0,0,0,.21.46.84.84,0,0,0,.57.19.82.82,0,0,0,.55-.17.46.46,0,0,0,.15-.35c0-.23-.15-.42-.5-.47l-.47-.08a.79.79,0,0,1-.78-.78.83.83,0,0,1,.25-.58,1.12,1.12,0,0,1,.78-.29,1.11,1.11,0,0,1,.77.28.92.92,0,0,1,.28.63h-.39a.67.67,0,0,0-.14-.37.79.79,0,0,0-1.05,0,.45.45,0,0,0-.12.32c0,.27.22.39.44.42l.49.07a.86.86,0,0,1,.82.84A.74.74,0,0,1,997.8,773.55Z"/><path class="cls-5" d="M999.32,773.82a.51.51,0,0,1-.58-.57V772h-.41v-.3h.41v-.54l.35-.08v.62h.63v.3h-.63v1.22c0,.2.09.29.28.29a2.61,2.61,0,0,0,.37,0v.3A1.39,1.39,0,0,1,999.32,773.82Z"/><path class="cls-5" d="M1001.59,773.79l0-.32a.69.69,0,0,1-.62.37.68.68,0,0,1-.73-.77v-1.38h.36V773c0,.32.12.5.45.5a.46.46,0,0,0,.35-.16.84.84,0,0,0,.17-.58v-1.09h.36v2.1Z"/><path class="cls-5" d="M1004.06,773.79l0-.27a.77.77,0,0,1-.63.33.82.82,0,0,1-.6-.23,1.27,1.27,0,0,1-.3-.88,1.23,1.23,0,0,1,.32-.9.85.85,0,0,1,.58-.21.74.74,0,0,1,.61.3v-1.14h.35v3Zm-.25-1.72a.49.49,0,0,0-.35-.14c-.47,0-.59.42-.59.81s.12.81.59.81a.49.49,0,0,0,.35-.14,1.09,1.09,0,0,0,0-1.34Z"/><path class="cls-5" d="M1005.12,771.2v-.41h.41v.41Zm0,2.59v-2.1h.37v2.1Z"/><path class="cls-5" d="M1007.69,773.6a.93.93,0,0,1-1.27,0,1.38,1.38,0,0,1,0-1.72.93.93,0,0,1,1.27,0,1.38,1.38,0,0,1,0,1.72Zm-.26-1.51a.49.49,0,0,0-.38-.15.49.49,0,0,0-.37.15,1.16,1.16,0,0,0,0,1.3.49.49,0,0,0,.37.15.49.49,0,0,0,.38-.15,1.16,1.16,0,0,0,0-1.3Z"/><path class="cls-5" d="M983.14,765.65h.93v-.74h-.93a1.12,1.12,0,0,0-1,1.48h-1V766a1.11,1.11,0,0,0-1.11-1.11h-1.15l1.41-1.41-.52-.52-2,2v.71H980a.38.38,0,0,1,.37.37v.37H977v-3.34h-.74v4.08h7.79v-.74h-.93a.37.37,0,0,1-.37-.37A.38.38,0,0,1,983.14,765.65Z"/><path class="cls-5" d="M974.79,766a.36.36,0,0,1-.37.37.37.37,0,0,1-.37-.37v-.37h-.74V766a.37.37,0,0,1-.37.37h-.74v-.74h-.75v.74h-3.71v.74h1.49v.75h-1.49a.75.75,0,0,1-.74-.75v-.74h-.74v.74a1.49,1.49,0,0,0,1.48,1.49H970v-1.49h3a1.12,1.12,0,0,1,1.48,0,1.11,1.11,0,0,0,1.12-1.11v-.74h-.75Z"/><rect class="cls-5" x="1007.26" y="763.05" width="0.74" height="4.08"/><path class="cls-5" d="M991.86,764.91h-.74v.74h.74a.37.37,0,0,1,.37.37v.37h-1.11v.74H993V766A1.12,1.12,0,0,0,991.86,764.91Z"/><path class="cls-5" d="M989.64,766.39h-1.49a.38.38,0,0,1-.37-.37h0a1.1,1.1,0,0,0-.41-.86,1.11,1.11,0,0,0-1.79.63,1.1,1.1,0,0,0,1.09,1.34,1.15,1.15,0,0,0,.37-.06v.06a.75.75,0,0,1-.74.75h-.37v.74h.37a1.49,1.49,0,0,0,1.48-1.49v-.06a1.15,1.15,0,0,0,.37.06h2.23v-1.85h-.74Zm-3,0a.39.39,0,0,1-.29-.13.38.38,0,0,1-.07-.32.35.35,0,0,1,.27-.28h.09a.38.38,0,0,1,.23.08.37.37,0,0,1,.14.29h0A.37.37,0,0,1,986.67,766.39Z"/><rect class="cls-5" x="988.15" y="767.88" width="1.48" height="0.74"/><rect class="cls-5" x="996.31" y="764.17" width="1.48" height="0.74"/><path class="cls-5" d="M1006,766a.36.36,0,0,1-.37.37.37.37,0,0,1-.37-.37v-.37h-.74V766a.37.37,0,0,1-.37.37h-.75v-.74h-.74v.74h-3.71a.37.37,0,0,1-.37-.37v-.37h-.74V766a.37.37,0,0,1-.37.37h-1.12a.38.38,0,0,1-.26-.11.36.36,0,0,1-.11-.26h0a1.1,1.1,0,0,0-.41-.86,1.11,1.11,0,0,0-1.79.63,1.08,1.08,0,0,0,.23.93,1.07,1.07,0,0,0,.86.41,1.1,1.1,0,0,0,.37-.06v.06a.75.75,0,0,1-.74.75h-.37v.74h.37a1.49,1.49,0,0,0,1.48-1.49v-.06a1.19,1.19,0,0,0,.37.06h1.12a1.12,1.12,0,0,1,1.48,0h5.2a1.12,1.12,0,0,1,1.48,0,1.11,1.11,0,0,0,1.11-1.11v-.74H1006Zm-11.13.37a.39.39,0,0,1-.29-.13.41.41,0,0,1-.07-.32.37.37,0,0,1,.28-.28h.08a.38.38,0,0,1,.23.08.37.37,0,0,1,.14.29h0A.37.37,0,0,1,994.83,766.39Z"/></g></svg>