<svg xmlns="http://www.w3.org/2000/svg" viewBox="0 0 1920 1080"><defs><style>.cls-1{fill:#fff;}</style></defs><g id="Background"><rect width="1920" height="1080"/></g><g id="Graphics"><path class="cls-1" d="M1559.35,950.71a19.14,19.14,0,0,1-19.12,19.12V989a38.29,38.29,0,0,0,38.25-38.24V912.47h-19.13Z"/><path class="cls-1" d="M1498.8,887A31.87,31.87,0,1,0,1511.55,948v2.67a19.15,19.15,0,0,1-19.12,19.12h-9.56V989h9.56a38.28,38.28,0,0,0,38.24-38.24V918.84A31.9,31.9,0,0,0,1498.8,887Zm0,44.62a12.75,12.75,0,1,1,12.75-12.75A12.76,12.76,0,0,1,1498.8,931.59Z"/><path class="cls-1" d="M1419.14,887a31.87,31.87,0,0,0-27.91,47.25,28.71,28.71,0,0,0-16.71,26v38.24h19.12V960.27a9.57,9.57,0,0,1,9.56-9.56h15.94a31.87,31.87,0,0,0,0-63.74Zm0,44.62a12.75,12.75,0,1,1,12.74-12.75A12.76,12.76,0,0,1,1419.14,931.59Z"/><polygon class="cls-1" points="1769.68 848.73 1750.56 848.73 1750.56 867.85 1731.44 867.85 1731.44 886.97 1769.68 886.97 1769.68 848.73"/><path class="cls-1" d="M1795.18,902.91V922a9.56,9.56,0,0,1-19.12,0v-9.56h-19.12V922h0a9.58,9.58,0,0,1-9.56,9.56h-19.13V912.47h-19.12v19.12h-35.05a12.76,12.76,0,0,1-12.75-12.75,31.89,31.89,0,1,0-19.12,29.2v2.67a19.15,19.15,0,0,1-19.12,19.12h-9.56V989h9.56a38.28,38.28,0,0,0,38.24-38.24V948a31.74,31.74,0,0,0,12.75,2.67h73.3a28.53,28.53,0,0,0,19.12-7.33A28.66,28.66,0,0,0,1814.3,922V902.91Zm-165.72,28.68a12.75,12.75,0,1,1,12.75-12.75A12.76,12.76,0,0,1,1629.46,931.59Z"/><rect class="cls-1" x="1307.6" y="867.85" width="19.12" height="19.12"/><path class="cls-1" d="M1307.6,950.71a19.15,19.15,0,0,1-19.12,19.12V989a38.28,38.28,0,0,0,38.24-38.24V912.47H1307.6Z"/><rect class="cls-1" x="1154.63" y="969.83" width="38.24" height="19.12"/><rect class="cls-1" x="1087.71" y="969.83" width="38.24" height="19.12"/><path class="cls-1" d="M1259.8,931.59h-35.06A12.76,12.76,0,0,1,1212,918.84v-6.37h-19.12v6.37a12.74,12.74,0,0,1-12.74,12.75h-22.31a12.76,12.76,0,0,1-12.75-12.75v-6.37H1126v6.37a12.76,12.76,0,0,1-12.75,12.75h-35V912.47H1059v38.24a28.69,28.69,0,0,1-57.37,0V931.59H982.54v19.12a47.81,47.81,0,0,0,95.61,0h35a31.75,31.75,0,0,0,22.31-9.14,31.75,31.75,0,0,0,22.31,9.14h22.31a31.61,31.61,0,0,0,22.31-9.13,31.79,31.79,0,0,0,22.3,9.13h54.18v-51H1259.8Z"/><rect class="cls-1" x="1221.55" y="969.83" width="38.24" height="19.12"/><rect class="cls-1" x="1020.79" y="931.59" width="19.12" height="19.12"/><rect class="cls-1" x="424.63" y="632.19" width="20.65" height="123.89"/><rect class="cls-1" x="300.74" y="632.19" width="20.65" height="123.89"/><path class="cls-1" d="M218,797.38h-61.8a41.37,41.37,0,0,1-41.32-41.33V735.43h20.65v20.62a20.7,20.7,0,0,0,20.67,20.68h41.2l0-20.65H156.09l.07-34.48a34.46,34.46,0,0,1,34.41-34.35h27.58V707.9H190.57a13.79,13.79,0,0,0-13.76,13.74l0,13.79h41.39Z"/><path class="cls-1" d="M404,756.08H342V735.43h41.3V721.67a13.78,13.78,0,0,0-13.76-13.77H342V687.25h27.54A34.46,34.46,0,0,1,404,721.67Z"/><path class="cls-1" d="M238.8,797.38V776.73a20.67,20.67,0,0,0,20.64-20.65v-41.3h20.65v41.3A41.34,41.34,0,0,1,238.8,797.38Z"/><path class="cls-1" d="M592.93,887a31.85,31.85,0,0,0-29.2,44.62H529.19V918.84A31.9,31.9,0,0,0,497.33,887h-25.5V906.1h25.5a12.75,12.75,0,0,1,12.74,12.74v12.75H471.83v19.12h121.1a31.87,31.87,0,0,0,0-63.74Zm0,44.62a12.75,12.75,0,1,1,12.75-12.75A12.76,12.76,0,0,1,592.93,931.59Z"/><path class="cls-1" d="M433.59,931.59H395.35V912.47H376.23v38.24a19.15,19.15,0,0,1-19.12,19.12V989a38.28,38.28,0,0,0,38.24-38.24h57.36v-51H433.59Z"/><rect class="cls-1" x="395.35" y="969.83" width="38.24" height="19.12"/><path class="cls-1" d="M325.24,931.59H280.62a12.76,12.76,0,0,1-12.74-12.75V899.72H248.75v19.12A12.76,12.76,0,0,1,236,931.59H134V912.47H114.91v38.24H236a31.76,31.76,0,0,0,22.31-9.14,31.72,31.72,0,0,0,22.3,9.14h63.74v-51H325.24Z"/><rect class="cls-1" x="287" y="969.83" width="38.24" height="19.12"/><rect class="cls-1" x="172.27" y="880.6" width="38.24" height="19.12"/><polygon class="cls-1" points="354.73 350.36 354.73 459.37 332.93 459.37 332.93 350.36 311.13 350.36 311.13 459.37 311.13 470.27 311.13 481.17 376.53 481.17 376.53 350.36 354.73 350.36"/><path class="cls-1" d="M267.52,459.37h-109v21.8h43.58L202,503h-43.5a21.85,21.85,0,0,1-21.83-21.83V459.37h-21.8v21.77a43.68,43.68,0,0,0,43.63,43.64h65.25l.1-43.61h65.43V423h-21.8Z"/><rect class="cls-1" x="245.72" y="502.97" width="21.8" height="21.8"/><path class="cls-1" d="M1450.94,683.33a36.34,36.34,0,1,0,36.33,36.33A36.38,36.38,0,0,0,1450.94,683.33Zm0,50.87a14.54,14.54,0,1,1,14.53-14.54A14.55,14.55,0,0,1,1450.94,734.2Z"/><path class="cls-1" d="M1647.15,756a21.83,21.83,0,0,1-21.8,21.8v21.8A43.65,43.65,0,0,0,1669,756V712.4h-21.8Z"/><path class="cls-1" d="M1778,683.33h-13.65l39.53-39.53-15.42-15.42-54.06,54.07v22.68H1778a14.55,14.55,0,0,1,14.54,14.53V734.2h-79.94v-109h-21.8V756H1814.3V719.66A36.38,36.38,0,0,0,1778,683.33Z"/><rect class="cls-1" x="1533.5" y="619.74" width="56.53" height="21.8" transform="translate(11.5 1289.04) rotate(-45)"/><path class="cls-1" d="M1625.35,719.66A36.38,36.38,0,0,0,1589,683.33h-13.65l39.53-39.53-15.42-15.42-54.06,54.07v22.68H1589a14.55,14.55,0,0,1,14.54,14.53V734.2h-79.94v-109h-21.8V756h123.54Z"/><path class="cls-1" d="M1505.39,203.88a14.56,14.56,0,0,1,14.54-14.5H1549v-21.8h-29.11a36.39,36.39,0,0,0-36.34,36.26l-.07,36.41h43.7l0,21.8h-43.5a21.85,21.85,0,0,1-21.83-21.83V218.45H1440v21.77a43.68,43.68,0,0,0,43.63,43.63h65.25l.15-65.4h-43.71Z"/><path class="cls-1" d="M1647.15,218.45h-43.6V196.64h-21.8v43.61a21.83,21.83,0,0,1-21.8,21.8v21.8a43.65,43.65,0,0,0,43.6-43.6H1669V109.44h-21.8Z"/><rect class="cls-1" x="1722.45" y="103.99" width="56.53" height="21.8" transform="translate(431.53 1271.59) rotate(-45)"/><path class="cls-1" d="M1778,167.58h-13.65l39.53-39.53-15.42-15.42-54.06,54.06v22.69H1778a14.55,14.55,0,0,1,14.54,14.53v14.54h-79.94v-109h-21.8V240.25H1814.3V203.91A36.38,36.38,0,0,0,1778,167.58Z"/><path class="cls-1" d="M1523.61,481.17a21.83,21.83,0,0,1-21.8,21.8v21.81a43.65,43.65,0,0,0,43.6-43.61v-43.6h-21.8Z"/><path class="cls-1" d="M1454.57,408.5a36.34,36.34,0,1,0,14.53,69.63v3a21.83,21.83,0,0,1-21.8,21.8h-10.9v21.81h10.9a43.66,43.66,0,0,0,43.61-43.61V444.84A36.38,36.38,0,0,0,1454.57,408.5Zm0,50.87a14.54,14.54,0,1,1,14.53-14.53A14.55,14.55,0,0,1,1454.57,459.37Z"/><path class="cls-1" d="M1363.73,408.5a36.31,36.31,0,0,0-32.18,53.19A43.67,43.67,0,0,0,1302,503v32.71h21.8V503a21.83,21.83,0,0,1,21.8-21.8h18.17a36.34,36.34,0,1,0,0-72.67Zm0,50.87a14.54,14.54,0,1,1,14.53-14.53A14.56,14.56,0,0,1,1363.73,459.37Z"/><polygon class="cls-1" points="1763.43 364.9 1741.63 364.9 1741.63 386.7 1719.82 386.7 1719.82 408.5 1763.43 408.5 1763.43 364.9"/><path class="cls-1" d="M1792.5,426.67v21.8a10.9,10.9,0,0,1-21.8,0v-10.9h-21.81v10.9a10.91,10.91,0,0,1-10.9,10.9h-21.8v-21.8h-21.8v21.8h-40a14.55,14.55,0,0,1-14.54-14.53,36.35,36.35,0,1,0-21.8,33.29v3a21.83,21.83,0,0,1-21.8,21.8h-10.9v21.81h10.9a43.65,43.65,0,0,0,43.6-43.61v-3a36.19,36.19,0,0,0,14.54,3H1738a32.56,32.56,0,0,0,21.8-8.35,32.69,32.69,0,0,0,54.51-24.35v-21.8Zm-189,32.7a14.54,14.54,0,1,1,14.53-14.53A14.55,14.55,0,0,1,1603.55,459.37Z"/><rect class="cls-1" x="1080.31" y="502.97" width="43.6" height="21.8"/><path class="cls-1" d="M1254.72,444.84a36.38,36.38,0,0,0-36.34-36.34h-29.06v21.8h29.06a14.55,14.55,0,0,1,14.54,14.54v14.53h-72.67a14.55,14.55,0,0,1-14.54-14.53v-7.27h-21.8v7.27a14.55,14.55,0,0,1-14.53,14.53h-50.87V444.84a36.38,36.38,0,0,0-36.34-36.34H993.1v21.8h29.07a14.55,14.55,0,0,1,14.53,14.54v14.53H993.1v21.8h116.28a36.2,36.2,0,0,0,25.43-10.42,36.21,36.21,0,0,0,25.44,10.42h116.27v-21.8h-21.8Z"/><path class="cls-1" d="M796.88,481.17a32.7,32.7,0,0,1-65.4,0v-21.8h-21.8v21.8a54.51,54.51,0,1,0,109,0v-43.6H796.88Z"/><rect class="cls-1" x="753.28" y="459.37" width="21.8" height="21.8"/><polygon class="cls-1" points="927.7 423.03 905.89 423.03 905.89 459.37 862.29 459.37 862.29 350.36 840.49 350.36 840.49 481.17 927.7 481.17 927.7 423.03"/><rect class="cls-1" x="862.29" y="502.97" width="43.6" height="21.8"/><path class="cls-1" d="M949.5,481.17A21.83,21.83,0,0,1,927.69,503v21.81a43.66,43.66,0,0,0,43.61-43.61v-43.6H949.5Z"/><rect class="cls-1" x="1052.38" y="625.19" width="21.8" height="130.81"/><rect class="cls-1" x="921.57" y="777.8" width="21.8" height="21.8"/><path class="cls-1" d="M1008.78,734.2H979.71a14.55,14.55,0,0,1-14.54-14.54V712.4h-21.8v7.26a14.55,14.55,0,0,1-14.53,14.54H899.77v-109H878V756h50.87a36.2,36.2,0,0,0,25.43-10.42A36.21,36.21,0,0,0,979.71,756h50.87V697.86h-21.8Z"/><rect class="cls-1" x="976.08" y="661.53" width="21.8" height="21.8"/><path class="cls-1" d="M834.36,756a21.83,21.83,0,0,1-21.8,21.8v21.8A43.65,43.65,0,0,0,856.17,756V712.4H834.36Z"/><rect class="cls-1" x="1052.38" y="109.44" width="21.8" height="130.81"/><rect class="cls-1" x="409.23" y="109.44" width="21.8" height="130.81"/><polygon class="cls-1" points="1008.78 218.45 965.17 218.45 965.17 109.44 943.37 109.44 943.37 240.25 1030.58 240.25 1030.58 182.11 1008.78 182.11 1008.78 218.45"/><rect class="cls-1" x="986.98" y="145.77" width="43.6" height="21.8"/><rect class="cls-1" x="863.43" y="123.97" width="43.6" height="21.8"/><path class="cls-1" d="M885.24,167.58a36.34,36.34,0,1,0,14.53,69.63v3a32.71,32.71,0,0,1-65.41,0v-21.8h-21.8v21.8a54.51,54.51,0,0,0,109,0V203.91A36.37,36.37,0,0,0,885.24,167.58Zm0,50.87a14.54,14.54,0,1,1,14.53-14.54A14.55,14.55,0,0,1,885.24,218.45Z"/><path class="cls-1" d="M732.62,167.58H719l39.53-39.53-15.42-15.42L689,166.69v22.69h43.6a14.55,14.55,0,0,1,14.54,14.53v14.54H660a14.55,14.55,0,0,1-14.53-14.54v-7.27h-21.8v7.27a14.55,14.55,0,0,1-14.54,14.54H583.65a14.55,14.55,0,0,1-14.54-14.54,36.34,36.34,0,1,0-69.63,14.54H474.64V196.64h-21.8v43.61A21.83,21.83,0,0,1,431,262.05v21.8a43.65,43.65,0,0,0,43.61-43.6h58.14a36.2,36.2,0,0,0,25.43-10.42,36.21,36.21,0,0,0,25.44,10.42h25.43a36.21,36.21,0,0,0,25.44-10.42A36.2,36.2,0,0,0,660,240.25H769V203.91A36.38,36.38,0,0,0,732.62,167.58ZM532.78,218.45a14.54,14.54,0,1,1,14.53-14.54A14.55,14.55,0,0,1,532.78,218.45Z"/><rect class="cls-1" x="583.65" y="145.77" width="21.8" height="21.8"/><rect class="cls-1" x="521.87" y="123.97" width="21.8" height="21.8"/><path class="cls-1" d="M365.63,218.45H336.56A14.55,14.55,0,0,1,322,203.91v-21.8H300.22v25.44a10.9,10.9,0,0,1-21.8,0V196.64h-21.8v10.91a10.91,10.91,0,0,1-10.9,10.9h-21.8V196.64h-21.8v43.61h0a32.71,32.71,0,0,1-65.41,0v-21.8h-21.8v21.8a54.51,54.51,0,0,0,109,0h21.8a32.57,32.57,0,0,0,21.8-8.36,32.62,32.62,0,0,0,44.7-1,36.24,36.24,0,0,0,24.34,9.38h50.87V182.11h-21.8Z"/><rect class="cls-1" x="332.93" y="145.53" width="21.8" height="21.8"/><polygon class="cls-1" points="1199.24 194 1267.1 126.12 1271.2 130.22 1207.45 194 1271.2 257.72 1267.1 261.82 1199.24 194"/><rect class="cls-1" x="1203.35" y="191.07" width="130.07" height="5.8"/><polygon class="cls-1" points="858.42 930.63 790.57 998.51 786.47 994.41 850.22 930.63 786.47 866.91 790.57 862.8 858.42 930.63"/><rect class="cls-1" x="724.25" y="927.76" width="130.07" height="5.8"/><polygon class="cls-1" points="689.92 659.06 689.94 755.04 684.14 755.04 684.12 664.87 593.98 664.88 593.98 659.08 689.92 659.06"/><rect class="cls-1" x="576.02" y="705.07" width="130.07" height="5.8" transform="translate(-312.85 660.65) rotate(-45)"/><polygon class="cls-1" points="1283.34 755.98 1187.36 756 1187.36 750.2 1277.53 750.18 1277.51 660.04 1283.32 660.04 1283.34 755.98"/><rect class="cls-1" x="1231.52" y="642.07" width="5.8" height="130.07" transform="translate(-138.45 1079.98) rotate(-45)"/><polygon class="cls-1" points="505.62 385.23 601.6 385.21 601.6 391.01 511.43 391.03 511.45 481.17 505.64 481.17 505.62 385.23"/><rect class="cls-1" x="551.63" y="369.06" width="5.8" height="130.07" transform="translate(-144.54 519.26) rotate(-45)"/></g></svg>