<svg xmlns="http://www.w3.org/2000/svg" viewBox="0 0 1080 1080"><defs><style>.cls-1{fill:#a9afb0;}.cls-2{fill:#fff;}</style></defs><g id="Background"><rect class="cls-1" width="1080" height="1080"/></g><g id="Graphics"><path class="cls-2" d="M284.43,790h-68.2V653.58H148v-68.2h68.19V471.71h68.2V619.44a169.27,169.27,0,0,1,102.3-34.06h34.1v68.2h-34.1a102.42,102.42,0,0,0-102.3,102.3Z"/><path class="cls-2" d="M932,486.09,762.84,317,714.62,365.2,863.77,514.34v71.13H774.7a113.67,113.67,0,1,0-208.33,0h-77.7v68.2H932Zm-261.43,8.44A45.47,45.47,0,1,1,625.07,540,45.52,45.52,0,0,1,670.53,494.53Z"/><path d="M761.84,790.46H557.32c-75.47,0-136.88-61.4-136.88-136.88v-68.5h69v68.5a68,68,0,0,0,67.89,67.89H693l.15-67.41H556.47l.22-114.28A114.23,114.23,0,0,1,670.75,425.94h91.47v69H670.75a45.14,45.14,0,0,0-45.08,45l-.09,45.17H762.3ZM421.23,585.86v67.72c0,75,61,136.09,136.09,136.09H761.06l.46-203.81H624.8l.09-46a45.93,45.93,0,0,1,45.86-45.77h90.69V426.73H670.75a113.45,113.45,0,0,0-113.28,113l-.22,113.49H694l-.16,69H557.32a68.76,68.76,0,0,1-68.68-68.68V585.86Z"/><polygon points="705.02 294.64 704.24 294.64 704.24 290.33 699.92 290.33 699.92 289.54 705.02 289.54 705.02 294.64"/><path d="M691.53,290.33h-8.4v-.79h8.4Zm-16.8,0h-8.4v-.79h8.4Zm-16.79,0h-8.4v-.79h8.4Z"/><polygon points="636.83 294.64 636.04 294.64 636.04 289.54 641.14 289.54 641.14 290.33 636.83 290.33 636.83 294.64"/><path d="M636.83,345H636v-8.4h.79Zm0-16.8H636v-8.4h.79Zm0-16.79H636V303h.79Z"/><polygon points="641.14 358.52 636.04 358.52 636.04 353.42 636.83 353.42 636.83 357.74 641.14 357.74 641.14 358.52"/><path d="M691.53,358.53h-8.4v-.79h8.4Zm-16.8,0h-8.4v-.79h8.4Zm-16.79,0h-8.4v-.79h8.4Z"/><polygon points="705.02 358.52 699.92 358.52 699.92 357.74 704.24 357.74 704.24 353.42 705.02 353.42 705.02 358.52"/><path d="M705,345h-.79v-8.4H705Zm0-16.8h-.79v-8.4H705Zm0-16.79h-.79V303H705Z"/><path d="M567,585.86h-5.31v-.78h4.11c-.55-1.27-1.07-2.55-1.57-3.82l.73-.28c.57,1.44,1.17,2.9,1.8,4.33Z"/><path d="M552.25,585.86h-9.41v-.78h9.41Zm-18.82,0H524v-.78h9.41Zm-18.82,0H505.2v-.78h9.41Zm-18.82,0h-9.41v-.78h9.41Zm-18.82,0h-9.41v-.78H477Zm-18.82,0h-9.41v-.78h9.41Zm-18.82,0h-9.41v-.78h9.41Zm-18.82,0H411.1v-.78h9.41Zm-18.82,0h-9.41v-.78h9.41Zm-18.82,0h-9.41v-.78h9.41Zm-18.81,0h-9.41v-.78h9.41Zm-18.82,0h-9.41v-.78h9.41Zm-18.82,0H317v-.78h9.41Zm-18.82,0h-9.41v-.78h9.41Z"/><polygon points="288.78 585.86 283.68 585.86 283.68 580.76 284.46 580.76 284.46 585.08 288.78 585.08 288.78 585.86"/><path d="M284.46,572.36h-.78V564h.78Zm0-16.79h-.78v-8.4h.78Zm0-16.8h-.78v-8.39h.78Z"/><polygon points="284.46 521.98 283.68 521.98 283.68 517.66 279.36 517.66 279.36 516.88 284.46 516.88 284.46 521.98"/><path d="M271,517.66h-8.4v-.78H271Zm-16.79,0h-8.4v-.78h8.4Zm-16.8,0H229v-.78h8.39Z"/><polygon points="216.26 521.98 215.48 521.98 215.48 516.88 220.58 516.88 220.58 517.66 216.26 517.66 216.26 521.98"/><path d="M216.26,639.19h-.78v-9.77h.78Zm0-19.54h-.78v-9.76h.78Zm0-19.53h-.78v-9.77h.78Zm0-19.54h-.78v-9.76h.78Zm0-19.53h-.78v-9.77h.78Zm0-19.54h-.78v-9.76h.78Z"/><polygon points="220.58 654.06 215.48 654.06 215.48 648.96 216.26 648.96 216.26 653.27 220.58 653.27 220.58 654.06"/><path d="M670.53,654.06h-6.88v-.78h6.88c.85,0,1.7,0,2.54,0l0,.78C672.24,654.05,671.39,654.06,670.53,654.06Zm-16.31,0H644.8v-.78h9.42Zm-18.85,0h-9.43v-.78h9.43Zm-18.85,0h-9.43v-.78h9.43Zm-18.86,0h-9.43v-.78h9.43Zm-18.85,0h-9.43v-.78h9.43Zm-18.86,0h-9.42v-.78H560Zm-18.85,0h-9.43v-.78h9.43Zm-18.86,0h-9.42v-.78h9.42Zm-18.85,0H494v-.78h9.43Zm-18.85,0h-9.43v-.78h9.43Zm-18.86,0h-9.42v-.78h9.42Zm-18.85,0H437.4v-.78h9.43Zm-18.86,0h-9.42v-.78H428Zm-18.85,0h-9.43v-.78h9.43Zm-18.85,0h-9.43v-.78h9.43Zm-18.86,0H362v-.78h9.43Zm-18.85,0h-9.43v-.78h9.43Zm-18.86,0h-9.42v-.78h9.42Zm-18.85,0h-9.43v-.78h9.43Zm-18.85,0h-9.43v-.78H296Zm-18.86,0h-9.43v-.78h9.43Zm-18.85,0h-9.43v-.78h9.43Zm-18.86,0H230v-.78h9.42Zm443.09-.62-.08-.79c3.1-.32,6.23-.78,9.28-1.36l.15.77C688.79,652.64,685.64,653.11,682.52,653.44Zm18.56-3.53-.21-.76c3-.83,6-1.81,8.93-2.89l.27.73C707.13,648.09,704.1,649.07,701.08,649.91Zm17.72-6.57-.34-.71c2.82-1.32,5.63-2.78,8.34-4.34l.39.68C724.46,640.54,721.64,642,718.8,643.34Zm16.38-9.42-.44-.64c2.56-1.78,5.09-3.68,7.5-5.65l.5.6C740.31,630.22,737.77,632.14,735.18,633.92Zm14.62-12-.55-.56c2.24-2.17,4.42-4.46,6.48-6.8l.59.51C754.25,617.46,752.05,619.76,749.8,621.94Zm12.45-14.21-.63-.46c1.86-2.51,3.63-5.12,5.27-7.77l.67.41C765.9,602.58,764.12,605.21,762.25,607.73Zm10-16.05-.7-.36c1.42-2.78,2.74-5.65,3.91-8.53l.73.3C775,586,773.63,588.88,772.2,591.68Zm7.15-17.47-.75-.24c.94-3,1.76-6,2.45-9.06l.76.17C781.12,568.14,780.3,571.21,779.35,574.21Zm-218.27-2.1c-.88-3-1.65-6.1-2.29-9.18l.77-.15c.63,3.05,1.39,6.12,2.27,9.11ZM783.5,555.78l-.77-.11c.43-3.08.73-6.23.9-9.34l.79,0C784.24,549.51,783.94,552.67,783.5,555.78ZM557.28,553.6c-.37-3.11-.62-6.29-.73-9.43l.78,0c.12,3.12.36,6.27.73,9.37Zm226.49-16.66c-.09-3.13-.3-6.28-.64-9.37l.78-.09c.34,3.12.56,6.29.64,9.43Zm-226.39-2.19-.78,0c.14-3.14.42-6.31.82-9.41l.78.1C557.8,528.48,557.52,531.63,557.38,534.75Zm224.34-16.46c-.6-3.06-1.33-6.13-2.18-9.13l.75-.22c.86,3,1.6,6.12,2.2,9.2Zm-221.93-2.14L559,516c.66-3.07,1.46-6.15,2.37-9.15l.75.23C561.24,510,560.44,513.1,559.79,516.15ZM776.6,500.24c-1.09-2.92-2.33-5.83-3.67-8.65l.71-.34c1.35,2.84,2.59,5.77,3.7,8.71Zm-211.35-2-.73-.29c1.16-2.91,2.46-5.82,3.86-8.63l.7.35C567.69,492.43,566.4,495.31,565.25,498.2Zm203.31-14.92c-1.57-2.7-3.27-5.36-5-7.92l.64-.45c1.8,2.58,3.51,5.26,5.08,8Zm-194.94-1.87L573,481c1.62-2.68,3.38-5.33,5.23-7.87l.63.46C577,476.12,575.23,478.75,573.62,481.41Zm184.2-13.53c-2-2.4-4.1-4.75-6.28-7l.56-.55c2.19,2.25,4.32,4.61,6.33,7Zm-173.18-1.65-.6-.51c2.05-2.38,4.22-4.7,6.46-6.91l.55.56C588.83,461.56,586.67,463.87,584.64,466.23Zm160.07-11.77c-2.36-2-4.83-4-7.34-5.86l.47-.63c2.53,1.85,5,3.84,7.38,5.9ZM598,453.06l-.5-.6c2.41-2,4.93-4,7.5-5.76l.45.64C602.9,449.13,600.4,451.06,598,453.06Zm131.58-9.69c-2.66-1.63-5.42-3.17-8.2-4.58l.35-.7c2.8,1.42,5.58,3,8.26,4.61Zm-116.23-1.12-.4-.68c2.71-1.59,5.52-3.08,8.35-4.44l.34.7C618.83,439.18,616,440.67,613.35,442.25Zm99.48-7.33c-2.89-1.17-5.86-2.23-8.83-3.15l.23-.75c3,.93,6,2,8.9,3.17Zm-82.56-.8-.28-.73c2.93-1.12,6-2.13,9-3l.22.75C636.18,432,633.18,433,630.27,434.12Zm64.65-4.75c-3-.67-6.15-1.22-9.24-1.63l.1-.78c3.11.42,6.25,1,9.31,1.64Zm-46.62-.45-.15-.77c3.07-.62,6.21-1.11,9.34-1.47l.08.78C654.47,427.82,651.35,428.31,648.3,428.92Zm28-2.05c-3.12-.15-6.28-.18-9.39-.09l0-.78c3.13-.1,6.32-.07,9.46.09Z"/><path d="M670.53,585.86a45.92,45.92,0,0,1-9.52-1l.16-.77a45.14,45.14,0,0,0,9.36,1h.19v.79Zm9.71-1-.16-.77a45.47,45.47,0,0,0,8.94-2.95l.32.71A45.59,45.59,0,0,1,680.24,584.83Zm-28.35-2.93a46.31,46.31,0,0,1-8.29-4.8l.46-.63a45.06,45.06,0,0,0,8.15,4.71ZM697.61,577l-.46-.63a46,46,0,0,0,7-6.33l.58.52A45.59,45.59,0,0,1,697.61,577Zm-61.13-6.3a46.43,46.43,0,0,1-5.64-7.74l.68-.39a44.84,44.84,0,0,0,5.55,7.6Zm73.84-7.9-.68-.39a44.69,44.69,0,0,0,3.81-8.61l.75.24A46,46,0,0,1,710.32,562.79Zm-83.4-8.58a45.46,45.46,0,0,1-2-9.37l.78-.09a45.09,45.09,0,0,0,2,9.21Zm89.24-9.56-.78-.08c.15-1.51.23-3,.23-4.57a45.73,45.73,0,0,0-.26-4.84l.78-.09a47.74,47.74,0,0,1,.26,4.93C716.39,541.55,716.31,543.12,716.16,544.65Zm-90.46-9.31-.78-.08a45.53,45.53,0,0,1,2-9.38l.74.25A45.06,45.06,0,0,0,625.7,535.34ZM713.37,526a44.67,44.67,0,0,0-3.87-8.58l.68-.4a46.3,46.3,0,0,1,3.93,8.74Zm-81.9-8.43-.68-.39a46.45,46.45,0,0,1,5.63-7.75l.59.52A45.9,45.9,0,0,0,631.47,517.52Zm72.47-7.75a46,46,0,0,0-7-6.29l.46-.63a46.47,46.47,0,0,1,7.13,6.39Zm-60-6.18-.46-.63a46,46,0,0,1,8.28-4.82l.32.72A44.74,44.74,0,0,0,644,503.59Zm44.78-4.81a45,45,0,0,0-9-2.89l.16-.77a46,46,0,0,1,9.12,2.94Zm-27.69-2.85-.17-.77a46.11,46.11,0,0,1,9.53-1v.79A44.49,44.49,0,0,0,661.08,495.93Z"/></g></svg>