<svg xmlns="http://www.w3.org/2000/svg" xmlns:xlink="http://www.w3.org/1999/xlink" viewBox="0 0 1080 1080"><defs><style>.cls-1,.cls-15{fill:none;}.cls-2{fill:#012b6d;}.cls-3{fill:url(#linear-gradient);}.cls-4{clip-path:url(#clip-path);}.cls-5{fill:url(#linear-gradient-2);}.cls-6{fill:url(#linear-gradient-3);}.cls-7{fill:url(#linear-gradient-4);}.cls-8{fill:#f5cebc;}.cls-9{fill:#f05338;}.cls-10{clip-path:url(#clip-path-2);}.cls-11{fill:#0054ce;}.cls-12{clip-path:url(#clip-path-3);}.cls-13{fill:url(#linear-gradient-5);}.cls-14{fill:url(#linear-gradient-6);}.cls-15{stroke:#929b9b;stroke-miterlimit:10;stroke-width:18.42px;}.cls-16{fill:url(#linear-gradient-7);}.cls-17{fill:url(#linear-gradient-8);}</style><linearGradient id="linear-gradient" y1="539.66" x2="1080.68" y2="539.66" gradientUnits="userSpaceOnUse"><stop offset="0" stop-color="#183c58"/><stop offset="1" stop-color="#3484f4"/></linearGradient><clipPath id="clip-path"><rect class="cls-1" y="-0.68" width="1080.68" height="1080.68"/></clipPath><linearGradient id="linear-gradient-2" x1="600.07" y1="-178.83" x2="1028.02" y2="-178.83" gradientUnits="userSpaceOnUse"><stop offset="0" stop-color="#f3d9bc"/><stop offset="1" stop-color="#c19a67"/></linearGradient><linearGradient id="linear-gradient-3" x1="600.07" y1="960.72" x2="1028.02" y2="960.72" xlink:href="#linear-gradient-2"/><linearGradient id="linear-gradient-4" x1="52.66" y1="539.66" x2="480.61" y2="539.66" xlink:href="#linear-gradient-2"/><clipPath id="clip-path-2"><path class="cls-2" d="M469.17,355.08a165.59,165.59,0,0,1,118.35-158.7,165.54,165.54,0,1,0,0,317.39A165.59,165.59,0,0,1,469.17,355.08Z"/></clipPath><clipPath id="clip-path-3"><ellipse class="cls-1" cx="587.52" cy="355.08" rx="118.35" ry="158.7"/></clipPath><linearGradient id="linear-gradient-5" x1="540.34" y1="315.59" x2="540.34" y2="581.68" gradientTransform="translate(1080.68 897.27) rotate(180)" gradientUnits="userSpaceOnUse"><stop offset="0" stop-color="#fbebe3"/><stop offset="1" stop-color="#f5cebc"/></linearGradient><linearGradient id="linear-gradient-6" x1="540.34" y1="1080" x2="540.34" y2="626.82" gradientUnits="userSpaceOnUse"><stop offset="0" stop-color="#4baf61"/><stop offset="1" stop-color="#16562d"/></linearGradient><linearGradient id="linear-gradient-7" x1="687.97" y1="1080" x2="687.97" y2="626.82" gradientUnits="userSpaceOnUse"><stop offset="0" stop-color="#eb413d"/><stop offset="1" stop-color="#960808"/></linearGradient><linearGradient id="linear-gradient-8" x1="392.71" x2="392.71" y2="626.82" xlink:href="#linear-gradient-7"/></defs><g id="Graphics"><rect class="cls-3" y="-0.68" width="1080.68" height="1080.68"/><g class="cls-4"><path class="cls-5" d="M984.42-476.13V-520h0a58,58,0,0,0-45.29-56.57v-4.66a60.65,60.65,0,0,0-60.65-60.66v47.4h0v-47.4H855.09A41.07,41.07,0,0,1,814-682.93a41.06,41.06,0,0,1-41,41.06H749.61A60.65,60.65,0,0,0,689-581.21v4.66A58,58,0,0,0,643.67-520h0v43.85a58.62,58.62,0,0,0-43.6,56.67V61.81a58.62,58.62,0,0,0,43.6,56.67v43.85A58,58,0,0,0,689,218.9v4.66a60.65,60.65,0,0,0,60.65,60.66H773a41,41,0,0,1,41,41.06,41.05,41.05,0,0,1,41.05-41.06h23.39a60.65,60.65,0,0,0,60.65-60.66V218.9a58,58,0,0,0,45.29-56.57V118.48A58.62,58.62,0,0,0,1028,61.81V-419.46A58.62,58.62,0,0,0,984.42-476.13Z"/><path class="cls-6" d="M984.42,663.42V619.57A58,58,0,0,0,939.13,563v-4.67a60.64,60.64,0,0,0-60.65-60.65H855.09A41.07,41.07,0,0,1,814,456.62a41.06,41.06,0,0,1-41,41.06H749.61A60.64,60.64,0,0,0,689,558.33V563a58,58,0,0,0-45.29,56.57v43.85a58.62,58.62,0,0,0-43.6,56.66v481.28a58.61,58.61,0,0,0,43.6,56.66v43.85A58,58,0,0,0,689,1358.44v4.67a60.64,60.64,0,0,0,60.65,60.65H773a41.06,41.06,0,0,1,41,41.06,41.07,41.07,0,0,1,41.05-41.06h23.39v-47.4h0v47.4a60.64,60.64,0,0,0,60.65-60.65v-4.67a58,58,0,0,0,45.29-56.57V1258a58.61,58.61,0,0,0,43.6-56.66V720.08A58.62,58.62,0,0,0,984.42,663.42Z"/></g><path class="cls-7" d="M437,242.36V198.51a58,58,0,0,0-45.29-56.57v-4.67a60.64,60.64,0,0,0-60.65-60.65H307.68a41.07,41.07,0,0,1-41.05-41.06,41.06,41.06,0,0,1-41,41.06H202.2a60.64,60.64,0,0,0-60.65,60.65v4.67a58,58,0,0,0-45.29,56.57v43.85A58.62,58.62,0,0,0,52.66,299V780.3A58.61,58.61,0,0,0,96.26,837v43.85a58,58,0,0,0,45.29,56.57v4.67a60.64,60.64,0,0,0,60.65,60.65h23.39a41.06,41.06,0,0,1,41,41.06,41.07,41.07,0,0,1,41.05-41.06h23.39a60.64,60.64,0,0,0,60.65-60.65v-4.67A58,58,0,0,0,437,880.81V837a58.62,58.62,0,0,0,43.6-56.66V299A58.63,58.63,0,0,0,437,242.36Z"/><path class="cls-8" d="M646.84,638.93A225.61,225.61,0,0,0,606.22,621V508H474.45V621a225.83,225.83,0,0,0-40.61,17.94,122.66,122.66,0,0,0,24.84,30.9V1080H622V669.83A122.66,122.66,0,0,0,646.84,638.93Z"/><rect class="cls-9" x="521.95" y="67.07" width="36.78" height="229.63"/><ellipse class="cls-9" cx="540.34" cy="67.07" rx="18.39" ry="4.85"/><path class="cls-2" d="M493.52,196.28A39,39,0,0,0,522,158.73l18.39,30.81-38.56,17.23Z"/><path class="cls-2" d="M587.16,196.28a39,39,0,0,1-28.43-37.55l-18.39,30.81,38.57,17.23Z"/><path class="cls-2" d="M469.17,355.08a165.59,165.59,0,0,1,118.35-158.7,165.54,165.54,0,1,0,0,317.39A165.59,165.59,0,0,1,469.17,355.08Z"/><g class="cls-10"><ellipse class="cls-11" cx="498.84" cy="311.62" rx="164.44" ry="122.63" transform="translate(-85.45 379.14) rotate(-38.58)"/><ellipse class="cls-2" cx="530.03" cy="318.28" rx="164.44" ry="122.63" transform="translate(-48.38 536.62) rotate(-51.67)"/><ellipse class="cls-11" cx="561.92" cy="317.71" rx="164.44" ry="122.63" transform="translate(34.85 690.38) rotate(-64.75)"/><ellipse class="cls-2" cx="592.86" cy="309.93" rx="164.44" ry="122.63" transform="translate(164.88 824.11) rotate(-77.83)"/><ellipse class="cls-11" cx="621.23" cy="295.36" rx="122.63" ry="164.44" transform="translate(-4.6 9.88) rotate(-0.91)"/><ellipse class="cls-11" cx="645.57" cy="274.74" rx="122.63" ry="164.44" transform="translate(-47.27 164.2) rotate(-13.99)"/></g><ellipse class="cls-2" cx="587.52" cy="355.08" rx="118.35" ry="158.7"/><g class="cls-12"><ellipse class="cls-11" cx="611.32" cy="374.6" rx="158.7" ry="118.35" transform="translate(108.08 885.27) rotate(-76.92)"/><ellipse class="cls-2" cx="630.08" cy="399" rx="158.7" ry="118.35" transform="translate(-5.85 788.61) rotate(-63.84)"/><ellipse class="cls-11" cx="642.83" cy="427.02" rx="158.7" ry="118.35" transform="translate(-94.54 654.74) rotate(-50.76)"/><ellipse class="cls-2" cx="648.92" cy="457.2" rx="158.7" ry="118.35" transform="translate(-144.12 491.95) rotate(-37.68)"/><ellipse class="cls-11" cx="648.01" cy="487.97" rx="158.7" ry="118.35" transform="translate(-144.3 313.97) rotate(-24.6)"/><ellipse class="cls-2" cx="640.16" cy="517.73" rx="158.7" ry="118.35" transform="translate(-90.46 138.2) rotate(-11.51)"/></g><ellipse class="cls-13" cx="540.34" cy="448.64" rx="114.06" ry="133.04"/><path class="cls-14" d="M622,626.82V667l-81.66,81.67L458.68,667V626.82c-100.76,41.71-173.29,158.46-173.29,296V1080h509.9V922.78C795.29,785.28,722.75,668.53,622,626.82Z"/><line class="cls-15" x1="639.71" y1="649.31" x2="440.97" y2="848.04"/><line class="cls-15" x1="440.97" y1="649.31" x2="542.24" y2="750.58"/><path class="cls-16" d="M753.93,752.19C723,694.11,676.63,649.44,622,626.82V1080h79.79V804.33Z"/><path class="cls-17" d="M326.75,752.19l52.14,52.14V1080h79.79V626.82C404.05,649.44,357.72,694.11,326.75,752.19Z"/></g></svg>