<svg xmlns="http://www.w3.org/2000/svg" xmlns:xlink="http://www.w3.org/1999/xlink" viewBox="0 0 1080 1080"><defs><style>.cls-1,.cls-10,.cls-11,.cls-12,.cls-7,.cls-8,.cls-9{fill:none;}.cls-2{clip-path:url(#clip-path);}.cls-3{fill:#b69672;}.cls-4{fill:#e6e7e8;}.cls-5{fill:#c49a6c;}.cls-6{fill:#ed1c24;}.cls-7{stroke:#00a651;}.cls-10,.cls-11,.cls-12,.cls-7,.cls-8,.cls-9{stroke-miterlimit:10;}.cls-7,.cls-8{stroke-width:15.63px;}.cls-8{stroke:#000;}.cls-9{stroke:#fff;stroke-width:27px;}.cls-10,.cls-11{stroke:#ed1c24;}.cls-10,.cls-12{stroke-width:15.63px;}.cls-11{stroke-width:15.63px;}.cls-12{stroke:#1f53db;}</style><clipPath id="clip-path"><rect class="cls-1" y="-1104.68" width="1080.68" height="1080.68"/></clipPath></defs><g id="Graphics"><g class="cls-2"><path class="cls-3" d="M984.42-440.58v-43.85A58,58,0,0,0,939.13-541v-4.67a60.64,60.64,0,0,0-60.65-60.65H855.09A41.07,41.07,0,0,1,814-647.38a41.06,41.06,0,0,1-41,41.06H749.61A60.64,60.64,0,0,0,689-545.67V-541a58,58,0,0,0-45.29,56.57v43.85a58.62,58.62,0,0,0-43.6,56.66V97.36A58.61,58.61,0,0,0,643.67,154v43.85A58,58,0,0,0,689,254.44v4.67a60.64,60.64,0,0,0,60.65,60.65H773a41.06,41.06,0,0,1,41,41.06,41.07,41.07,0,0,1,41.05-41.06h23.39v-47.4h0v47.4a60.64,60.64,0,0,0,60.65-60.65v-4.67a58,58,0,0,0,45.29-56.57V154A58.61,58.61,0,0,0,1028,97.36V-383.92A58.62,58.62,0,0,0,984.42-440.58Z"/></g></g><g id="Layer_1" data-name="Layer 1"><rect class="cls-4" width="1080" height="1080"/><rect class="cls-5" x="720.83" width="359.17" height="359.17"/><path d="M656.06,466.92v-1.46l5.72-6.94h-5.72v-1.44h7.72v1.46l-5.7,6.94h5.76v1.44Z"/><path d="M674.29,462.54h-6.95a3.62,3.62,0,0,0,.95,2.47,2.79,2.79,0,0,0,3.63.06,2,2,0,0,0,.59-1.07h1.61a3.62,3.62,0,0,1-1.52,2.43,4.49,4.49,0,0,1-2.5.74,4.19,4.19,0,0,1-3.27-1.48,5.53,5.53,0,0,1-1.22-3.65,6,6,0,0,1,.75-3.15,4.22,4.22,0,0,1,3.72-2.06,4,4,0,0,1,3,1.26,5.06,5.06,0,0,1,1.24,3.46ZM672,459.12a2.34,2.34,0,0,0-1.94-.89,2.73,2.73,0,0,0-2.7,2.89h5.24A3.45,3.45,0,0,0,672,459.12Z"/><path d="M684.81,462.54h-7a3.62,3.62,0,0,0,.95,2.47,2.81,2.81,0,0,0,3.64.06A2,2,0,0,0,683,464h1.62a3.62,3.62,0,0,1-1.52,2.43,4.52,4.52,0,0,1-2.51.74,4.15,4.15,0,0,1-3.26-1.48,5.54,5.54,0,0,1-1.23-3.65,5.94,5.94,0,0,1,.76-3.15,4.2,4.2,0,0,1,3.71-2.06,4,4,0,0,1,3,1.26,5.11,5.11,0,0,1,1.24,3.46Zm-2.27-3.42a2.35,2.35,0,0,0-1.95-.89,2.73,2.73,0,0,0-2.7,2.89h5.25A3.52,3.52,0,0,0,682.54,459.12Z"/><path d="M695.33,462.54h-7a3.62,3.62,0,0,0,1,2.47,2.81,2.81,0,0,0,3.64.06,2.1,2.1,0,0,0,.58-1.07h1.61a3.59,3.59,0,0,1-1.52,2.43,4.46,4.46,0,0,1-2.5.74,4.19,4.19,0,0,1-3.27-1.48,5.53,5.53,0,0,1-1.22-3.65,6,6,0,0,1,.75-3.15,4.22,4.22,0,0,1,3.72-2.06,4,4,0,0,1,3,1.26,5.07,5.07,0,0,1,1.25,3.46Zm-2.28-3.42a2.34,2.34,0,0,0-1.94-.89,2.73,2.73,0,0,0-2.7,2.89h5.24A3.45,3.45,0,0,0,693.05,459.12Z"/><path d="M704.23,466.92v-6.24c0-1.48-.6-2.35-2.16-2.35a2.42,2.42,0,0,0-2.14,1.51,6.5,6.5,0,0,0-.35,2.51v4.57h-1.65v-9.84h1.44l.13,1.48a3.34,3.34,0,0,1,3-1.73c2.23,0,3.4,1.34,3.4,3.61v6.48Z"/><path d="M709,466.92V464.6h2.29v2.32Z"/><path d="M714.51,454.83v-1.95h1.93v1.95Zm.12,12.09v-9.84h1.69v9.84Z"/><path d="M724.13,458.62a2.72,2.72,0,0,0-1.86.77,4.4,4.4,0,0,0-.9,3.15v4.38h-1.63v-9.84h1.46l.13,1.73a3.07,3.07,0,0,1,2.94-1.79,5.22,5.22,0,0,1,.78.06v1.61A5.79,5.79,0,0,0,724.13,458.62Z"/><path d="M743.71,466.92V465.5l5.46-6.75a3,3,0,0,0,.74-1.94,2,2,0,0,0-2.22-2.18,2.17,2.17,0,0,0-2.29,2.45h-1.71a3.76,3.76,0,0,1,4-3.95,3.94,3.94,0,0,1,3.31,1.56,3.53,3.53,0,0,1,.62,2.1,4.45,4.45,0,0,1-1.15,2.88l-4.59,5.69h5.95v1.56Z"/><path d="M761.36,466a4.28,4.28,0,0,1-5.84,0c-1.36-1.38-1.59-3.26-1.59-5.87s.23-4.51,1.59-5.89a4.34,4.34,0,0,1,5.84,0c1.36,1.38,1.59,3.29,1.59,5.89S762.72,464.64,761.36,466Zm-1.25-10.75a2.56,2.56,0,0,0-3.34,0c-1.15,1.09-1.11,3.06-1.11,4.88s0,3.79,1.11,4.88a2.56,2.56,0,0,0,3.34,0c1.15-1.09,1.11-3,1.11-4.88S761.26,456.36,760.11,455.27Z"/><path d="M769.15,466.92V455.29l-3.21,2.35V455.8l3.31-2.39h1.59v13.51Z"/><path d="M778.44,466.92h-1.79l5.62-12h-6.92v-1.49H784v1.49Z"/><path class="cls-6" d="M534.29,600.6v93.07a102.19,102.19,0,0,1-102.2,102.2h0a102.2,102.2,0,0,1-102.2-102.2V600.6h204.4Z"/><line class="cls-7" x1="432.1" y1="600.6" x2="432.1" y2="795.87"/><line class="cls-7" x1="399.7" y1="600.6" x2="399.7" y2="795.87"/><line class="cls-7" x1="367.3" y1="600.6" x2="367.3" y2="773.77"/><line class="cls-7" x1="464.5" y1="600.6" x2="464.5" y2="795.87"/><line class="cls-7" x1="496.9" y1="600.6" x2="496.9" y2="771.59"/><path class="cls-1" d="M534.29,600.6v93.07a102.19,102.19,0,0,1-102.2,102.2h0a102.2,102.2,0,0,1-102.2-102.2V600.6h204.4"/><path class="cls-8" d="M534.29,600.6v93.07a102.19,102.19,0,0,1-102.2,102.2h0a102.2,102.2,0,0,1-102.2-102.2V600.6h204.4Z"/><path class="cls-8" d="M432.09,943.31a102.2,102.2,0,0,0-102.2-102.2h0a102.2,102.2,0,0,0-102.2,102.2Z"/><path class="cls-8" d="M610.3,600.61v290H751.55V741.85h0A141.25,141.25,0,0,0,610.3,600.6Z"/><line class="cls-9" x1="920.06" y1="652.73" x2="920.06" y2="812.12"/><line class="cls-9" x1="840.37" y1="732.43" x2="999.75" y2="732.43"/><line class="cls-9" x1="974.67" y1="677.81" x2="865.45" y2="787.04"/><line class="cls-9" x1="865.45" y1="677.81" x2="974.67" y2="787.04"/><line class="cls-9" x1="154.91" y1="245.04" x2="154.91" y2="404.43"/><line class="cls-9" x1="75.22" y1="324.74" x2="234.6" y2="324.74"/><line class="cls-9" x1="209.52" y1="270.12" x2="100.3" y2="379.35"/><line class="cls-9" x1="100.3" y1="270.12" x2="209.52" y2="379.35"/><line class="cls-9" x1="553.42" y1="66.54" x2="553.42" y2="279.31"/><line class="cls-9" x1="447.04" y1="172.93" x2="659.81" y2="172.93"/><line class="cls-9" x1="626.32" y1="100.02" x2="480.52" y2="245.83"/><line class="cls-9" x1="480.52" y1="100.02" x2="626.32" y2="245.83"/><path d="M617,175.41h4.84V136.65H617v-6.42h16.14l16.17,44,16.37-44H681v6.42h-4.81v38.76H681v5.78H664.43v-5.78h5.44V136.28l-17.81,44.91h-5.72l-18.05-45v39.23h5.24v5.78H617Z"/><path d="M694.36,164.58a16.07,16.07,0,0,0,.22,2.71,14.35,14.35,0,0,0,.63,2.34,9.64,9.64,0,0,0,4,5.06,11.54,11.54,0,0,0,6.2,1.69,18.86,18.86,0,0,0,5.3-.75,26,26,0,0,0,5.39-2.37l2.52,4.27a27.12,27.12,0,0,1-6.89,3.49,22.88,22.88,0,0,1-7.19,1.15A17.85,17.85,0,0,1,698,181a14,14,0,0,1-5.18-3.5,16.19,16.19,0,0,1-3.39-5.78,24.1,24.1,0,0,1-1.23-8.07,23.46,23.46,0,0,1,1-7,16.68,16.68,0,0,1,3.11-5.78,14.82,14.82,0,0,1,5.13-3.92,16.55,16.55,0,0,1,7.12-1.45,15.89,15.89,0,0,1,6.58,1.2,12,12,0,0,1,4.3,3.16A13.67,13.67,0,0,1,718,154.3a26.07,26.07,0,0,1,1.19,5.14,24.44,24.44,0,0,1,.22,2.59c0,.87.05,1.72.05,2.55Zm9.79-13.88a10.81,10.81,0,0,0-3.82.62,7.73,7.73,0,0,0-2.77,1.78,8.8,8.8,0,0,0-1.83,2.84,16.85,16.85,0,0,0-1,3.77h18a16.48,16.48,0,0,0-.62-3.6,7.88,7.88,0,0,0-1.49-2.86,6.91,6.91,0,0,0-2.59-1.88A10,10,0,0,0,704.15,150.7Z"/><path d="M752.31,153.72h-6.39v-2.15a6.63,6.63,0,0,0-2.27.42,7.09,7.09,0,0,0-2.17,1.28,8,8,0,0,0-1.76,2.19,9.93,9.93,0,0,0-1.1,3.14v16.81h5.92v5.78H727.26v-5.78h4.81l0-23.27h-4.84v-5.78h11.13v4.81a14.06,14.06,0,0,1,1.36-2,9.13,9.13,0,0,1,1.68-1.61,7.58,7.58,0,0,1,2.05-1.08,7.39,7.39,0,0,1,2.44-.39h3.29c1,0,2.07,0,3.1.07Z"/><path d="M783.89,153.72H777.5v-2.15a6.57,6.57,0,0,0-2.26.42,7,7,0,0,0-2.17,1.28,8,8,0,0,0-1.77,2.19,9.93,9.93,0,0,0-1.09,3.14v16.81h5.92v5.78H758.85v-5.78h4.8l0-23.27h-4.84v-5.78H770v4.81a15,15,0,0,1,1.36-2,9.51,9.51,0,0,1,1.69-1.61,7.37,7.37,0,0,1,4.48-1.47h3.3c1,0,2.06,0,3.09.07Z"/><path d="M788.11,146.36h13.21v5.78h-4.13l8.17,22.23,8.54-22.23h-4.11v-5.78H823v5.78h-3.6l-15.5,39.1h4.78V197H794.63v-5.78h4.24l3.7-9.58-11.63-29.52h-2.83Z"/><path d="M617,205.83H653.5v14.42h-6.89v-8.61H628.42V228h15.3v5.78h-15.3V251h18.19V242.4h6.89v14.39H617V251h4.84V211.64H617Z"/><path d="M655.4,222h12v5.78h-3.26l8.6,24,8.41-24h-2.12V222h11v5.78h-3l-11.39,29.59h-6.19l-11.36-29.59H655.4Z"/><path d="M700.3,240.18a15.1,15.1,0,0,0,.22,2.71,13.39,13.39,0,0,0,.62,2.34,9.74,9.74,0,0,0,4,5.06,11.57,11.57,0,0,0,6.21,1.69,18.79,18.79,0,0,0,5.29-.75,26.34,26.34,0,0,0,5.4-2.37l2.52,4.27a27.45,27.45,0,0,1-6.89,3.49,22.9,22.9,0,0,1-7.2,1.15,17.93,17.93,0,0,1-6.54-1.18,14,14,0,0,1-5.17-3.5,16.21,16.21,0,0,1-3.4-5.78,24.1,24.1,0,0,1-1.23-8.07,23.15,23.15,0,0,1,1-7,16.52,16.52,0,0,1,3.11-5.78,14.69,14.69,0,0,1,5.12-3.92,16.59,16.59,0,0,1,7.13-1.45,15.87,15.87,0,0,1,6.57,1.2,11.86,11.86,0,0,1,4.3,3.16,13.88,13.88,0,0,1,2.53,4.49,26.8,26.8,0,0,1,1.19,5.14c.11.85.18,1.71.22,2.59s0,1.72,0,2.55Zm9.78-13.88a10.71,10.71,0,0,0-3.81.62,7.77,7.77,0,0,0-2.78,1.78,8.8,8.8,0,0,0-1.83,2.84,16.86,16.86,0,0,0-1,3.77h18.05a17.1,17.1,0,0,0-.62-3.6,8.06,8.06,0,0,0-1.5-2.86A6.76,6.76,0,0,0,714,227,9.92,9.92,0,0,0,710.08,226.3Z"/><path d="M758.24,229.32h-6.39v-2.15a6.67,6.67,0,0,0-2.27.42,7,7,0,0,0-2.16,1.28,7.8,7.8,0,0,0-1.77,2.19,9.93,9.93,0,0,0-1.09,3.14V251h5.91v5.78H733.2V251H738l0-23.27H733.2V222h11.12v4.81a15,15,0,0,1,1.36-2,9.51,9.51,0,0,1,1.69-1.61,7.29,7.29,0,0,1,2-1.08,7.37,7.37,0,0,1,2.43-.39h3.3c1,0,2.06,0,3.09.07Z"/><path d="M762.46,222h13.21v5.78h-4.13L779.71,250l8.54-22.23h-4.11V222h13.22v5.78h-3.6l-15.5,39.1H783v5.78H769v-5.78h4.24l3.7-9.58-11.64-29.52h-2.82Z"/><path d="M813.71,222h8.17V227h-8.24l-.1,20.1a9.89,9.89,0,0,0,.47,3.33,3,3,0,0,0,1.52,1.77,5.54,5.54,0,0,0,2.35.48,10.92,10.92,0,0,0,2.49-.25,11.76,11.76,0,0,0,2.35-.86l1.45,4.21a16.87,16.87,0,0,1-3.4,1.32,15.83,15.83,0,0,1-4.2.49,12.8,12.8,0,0,1-4-.55,6.38,6.38,0,0,1-2.86-1.87A8.37,8.37,0,0,1,808,251.7a22.38,22.38,0,0,1-.57-5.5l.1-19.16H802V222h5.61v-8.34l6.12-2.89Z"/><path d="M829,204.48h11v21.31h.2a15,15,0,0,1,2.17-1.76A17.49,17.49,0,0,1,845,222.6a15.11,15.11,0,0,1,2.8-.94,13.5,13.5,0,0,1,3-.34,15.32,15.32,0,0,1,5,.78,9.91,9.91,0,0,1,3.84,2.35,10.44,10.44,0,0,1,2.43,4.05,17.86,17.86,0,0,1,.86,5.83V251h5.24v5.78H851.68V251h4.78v-15.9q0-4-2-6.07a7.8,7.8,0,0,0-5.83-2.07,10.29,10.29,0,0,0-4.37,1,20.46,20.46,0,0,0-4.17,2.57V251h5.05v5.78H828.56V251h5.24V210.26H829Z"/><path d="M873.12,222h11.36v29h5.24v5.78H873.18V251h5V227.74h-5ZM877,209.62a4.12,4.12,0,0,1,.35-1.66,4.47,4.47,0,0,1,.95-1.38,4.54,4.54,0,0,1,1.39-.94,4.34,4.34,0,0,1,1.72-.35,4.12,4.12,0,0,1,1.66.35,4.48,4.48,0,0,1,2.32,2.32,4,4,0,0,1,.35,1.66,4.17,4.17,0,0,1-.35,1.72,5.14,5.14,0,0,1-.94,1.43,4.21,4.21,0,0,1-1.38,1,4,4,0,0,1-1.66.36,4.31,4.31,0,0,1-3.11-1.33,5,5,0,0,1-.95-1.43A4.34,4.34,0,0,1,877,209.62Z"/><path d="M917.71,251h4.91v-15.9q0-4-2-6.07a7.82,7.82,0,0,0-5.84-2.07,10.37,10.37,0,0,0-4.4,1,22.31,22.31,0,0,0-4.2,2.59V251h4.91v5.78H894.79V251h4.84V227.74h-4.84V222h11.09v4.1H906a27.7,27.7,0,0,1,2.37-1.85A18.18,18.18,0,0,1,911,222.7a16.26,16.26,0,0,1,2.87-1,13.37,13.37,0,0,1,3.14-.37,15.42,15.42,0,0,1,5,.78,9.88,9.88,0,0,1,3.83,2.35,10.58,10.58,0,0,1,2.44,4.05,17.87,17.87,0,0,1,.85,5.83V251H934v5.78H917.71Z"/><path d="M965.5,253.73a12.42,12.42,0,0,1-4,2.83,12.67,12.67,0,0,1-5.16,1,17.58,17.58,0,0,1-6.58-1.22,14.83,14.83,0,0,1-5.27-3.6,16.72,16.72,0,0,1-3.5-5.82,22.82,22.82,0,0,1-1.26-7.88,21.22,21.22,0,0,1,1.21-7.35,16.12,16.12,0,0,1,3.43-5.64,15.34,15.34,0,0,1,5.34-3.63,17.94,17.94,0,0,1,7-1.3,17.69,17.69,0,0,1,4.73.59,12.77,12.77,0,0,1,4.08,2V222h6.25v33.45c0,5.52-1.3,9.68-3.91,12.51s-6.68,4.23-12.19,4.23a29.85,29.85,0,0,1-3.8-.26,25,25,0,0,1-3.91-.86,23.87,23.87,0,0,1-3.77-1.5,16.17,16.17,0,0,1-3.38-2.22l3.36-5.07a14.51,14.51,0,0,0,2.31,1.61,17.06,17.06,0,0,0,2.77,1.26,20.88,20.88,0,0,0,3.06.82,16.12,16.12,0,0,0,3.16.31,16.58,16.58,0,0,0,4.49-.54,6.45,6.45,0,0,0,3.12-1.9,8.72,8.72,0,0,0,1.84-3.68,24.06,24.06,0,0,0,.6-5.88Zm-8.34-1.61a12.47,12.47,0,0,0,2.83-.3,13.15,13.15,0,0,0,2.32-.79,9.14,9.14,0,0,0,1.83-1.13,8.69,8.69,0,0,0,1.36-1.35V229.49a10.41,10.41,0,0,0-4-2.18,15.79,15.79,0,0,0-4.59-.67,10.59,10.59,0,0,0-4.17.82,9.88,9.88,0,0,0-3.41,2.4,11.5,11.5,0,0,0-2.3,3.87,15.12,15.12,0,0,0-.84,5.24,18.41,18.41,0,0,0,.8,5.68,11.75,11.75,0,0,0,2.26,4.12,9.24,9.24,0,0,0,3.46,2.51A11.31,11.31,0,0,0,957.16,252.12Z"/><path d="M655.48,332.59l-7.93-7.66a25.7,25.7,0,0,1-3.06,3.19,21.24,21.24,0,0,1-3.51,2.51,18,18,0,0,1-4,1.64,16.49,16.49,0,0,1-4.45.59,16.18,16.18,0,0,1-6.1-1.14,15.57,15.57,0,0,1-5-3.13,14.51,14.51,0,0,1-3.31-4.69,14.22,14.22,0,0,1-1.21-5.83,13,13,0,0,1,.62-4,15.24,15.24,0,0,1,1.72-3.62,15.76,15.76,0,0,1,2.55-3,21.09,21.09,0,0,1,4.56-2.93l-2.22-2.15a16.15,16.15,0,0,1-1.7-1.85,13.06,13.06,0,0,1-1.44-2.25,14.41,14.41,0,0,1-1-2.52,9.1,9.1,0,0,1-.39-2.59,12.18,12.18,0,0,1,1-5,12.84,12.84,0,0,1,2.84-4,13.34,13.34,0,0,1,4.22-2.71,13.57,13.57,0,0,1,5.18-1,13.9,13.9,0,0,1,5.43,1,13.62,13.62,0,0,1,4.32,2.79,13.09,13.09,0,0,1,2.86,4.07,11.74,11.74,0,0,1,1,4.84,14,14,0,0,1-.4,3.55,9.88,9.88,0,0,1-1.15,2.73,11,11,0,0,1-1.76,2.21,20.22,20.22,0,0,1-2.19,1.83,25.11,25.11,0,0,1-2.37,1.53c-.8.46-1.63.9-2.49,1.33l10.29,9.58a34.18,34.18,0,0,0,1.73-4.86c.44-1.6.78-3.05,1-4.35h6.32a43.21,43.21,0,0,1-1.75,6.55,41.47,41.47,0,0,1-3,6.66l9.28,8.6ZM628.09,310a7.17,7.17,0,0,0-2.07,1.3,8.52,8.52,0,0,0-1.6,1.88,9.24,9.24,0,0,0-1,2.28,8.46,8.46,0,0,0-.37,2.47,8.68,8.68,0,0,0,2.84,6.49,9.8,9.8,0,0,0,3.13,1.9,10.65,10.65,0,0,0,3.85.69,11.73,11.73,0,0,0,3.29-.44,12.36,12.36,0,0,0,2.89-1.22,13.32,13.32,0,0,0,2.47-1.88,21.67,21.67,0,0,0,2.1-2.37l-12.77-12.34Zm10.45-12.1a9,9,0,0,0,1.48-2.17,5.78,5.78,0,0,0,.61-2.57,6.19,6.19,0,0,0-.63-2.72,7.86,7.86,0,0,0-4.1-3.92,7.53,7.53,0,0,0-2.94-.59,8,8,0,0,0-3,.56,6.81,6.81,0,0,0-2.34,1.52,7.1,7.1,0,0,0-1.51,2.27,7.25,7.25,0,0,0-.54,2.81,7.43,7.43,0,0,0,.69,3,10.56,10.56,0,0,0,2.5,3.27l3,2.79a39.34,39.34,0,0,0,3.73-1.88A14.82,14.82,0,0,0,638.54,297.9Z"/><path d="M715.83,281.43h16.54v5.78h-4.84v39.4h4.84v5.78H715.83v-5.78h5.11V308.29H691.46v18.32h5.11v5.78H680v-5.78h4.84v-39.4H680v-5.78h16.54v5.78h-5.11v15.43h29.48V287.21h-5.11Z"/><path d="M760.33,329.16a18.21,18.21,0,0,1-4.39,3,12.34,12.34,0,0,1-5.46,1.18,13.08,13.08,0,0,1-4.69-.81,11.49,11.49,0,0,1-3.69-2.2,9.92,9.92,0,0,1-2.4-3.25,9.24,9.24,0,0,1-.86-3.93,10.86,10.86,0,0,1,.66-3.93,9.85,9.85,0,0,1,1.75-3,10.22,10.22,0,0,1,2.55-2.12,16.13,16.13,0,0,1,3.06-1.38,19.22,19.22,0,0,1,3.26-.74,25.44,25.44,0,0,1,3.18-.21c1.61,0,3,.05,4.07.15a28.73,28.73,0,0,1,3,.42l0-2.86a8.7,8.7,0,0,0-.54-3.21,5.8,5.8,0,0,0-1.51-2.25,6.17,6.17,0,0,0-2.33-1.33,10,10,0,0,0-3-.44,20.93,20.93,0,0,0-3,.22,24.33,24.33,0,0,0-2.71.57,20.23,20.23,0,0,0-2.32.81,10.71,10.71,0,0,0-1.8,1l-2.05-4.34a22,22,0,0,1,2.73-1.5,23,23,0,0,1,3.11-1.17,28.12,28.12,0,0,1,3.32-.78,20.19,20.19,0,0,1,3.35-.28,19.06,19.06,0,0,1,5.44.72,10.49,10.49,0,0,1,4.11,2.24,9.83,9.83,0,0,1,2.58,3.85,15.3,15.3,0,0,1,.91,5.59l0,17.42h3.86v5.78H760.33Zm-8.48-1a10.6,10.6,0,0,0,2.49-.3,12.76,12.76,0,0,0,4.41-2,9.61,9.61,0,0,0,1.58-1.42l0-7.87H753.1a12.62,12.62,0,0,0-3.31.4,8,8,0,0,0-2.59,1.18,5.39,5.39,0,0,0-1.7,1.92,5.54,5.54,0,0,0-.61,2.62,5.31,5.31,0,0,0,.51,2.4,4.67,4.67,0,0,0,1.43,1.72,6.59,6.59,0,0,0,2.2,1A10.78,10.78,0,0,0,751.85,328.12Z"/><path d="M775.44,297.56h11.09v2.89a19.06,19.06,0,0,1,4.84-2.72,15,15,0,0,1,5.41-1,15.24,15.24,0,0,1,6.29,1.28,14.31,14.31,0,0,1,4.93,3.6,16.7,16.7,0,0,1,3.21,5.56,21.54,21.54,0,0,1,1.14,7.18,22,22,0,0,1-1.28,7.66,17.77,17.77,0,0,1-3.54,5.94,16.26,16.26,0,0,1-5.4,3.85,17,17,0,0,1-6.86,1.37,18.26,18.26,0,0,1-4.72-.55,24.38,24.38,0,0,1-3.95-1.43v11.26H792v5.78H775.5v-5.78h4.78v-39.1h-4.84Zm19.7,4.68a11.52,11.52,0,0,0-4.66,1,12,12,0,0,0-3.88,2.69v18.86a10.16,10.16,0,0,0,3.17,2.05,12.8,12.8,0,0,0,5.17.91,10.48,10.48,0,0,0,4.13-.84,10,10,0,0,0,3.5-2.51,12.5,12.5,0,0,0,2.42-4.12,16.43,16.43,0,0,0,.9-5.68,14.88,14.88,0,0,0-.85-5.24,11.7,11.7,0,0,0-2.32-3.87,9.88,9.88,0,0,0-3.41-2.4A10.59,10.59,0,0,0,795.14,302.24Z"/><path d="M816.74,297.56h11.09v2.89a19.06,19.06,0,0,1,4.84-2.72,15,15,0,0,1,5.41-1,15.24,15.24,0,0,1,6.29,1.28,14.31,14.31,0,0,1,4.93,3.6,16.54,16.54,0,0,1,3.21,5.56,21.54,21.54,0,0,1,1.14,7.18,22,22,0,0,1-1.28,7.66,17.77,17.77,0,0,1-3.54,5.94,16.26,16.26,0,0,1-5.4,3.85,16.94,16.94,0,0,1-6.86,1.37,18.26,18.26,0,0,1-4.72-.55,24.38,24.38,0,0,1-4-1.43v11.26h5.44v5.78H816.8v-5.78h4.78v-39.1h-4.84Zm19.7,4.68a11.52,11.52,0,0,0-4.66,1,12,12,0,0,0-3.88,2.69v18.86a10.1,10.1,0,0,0,3.18,2.05,12.72,12.72,0,0,0,5.16.91,10.48,10.48,0,0,0,4.13-.84,10,10,0,0,0,3.5-2.51,12.5,12.5,0,0,0,2.42-4.12,16.43,16.43,0,0,0,.91-5.68,14.88,14.88,0,0,0-.86-5.24,11.7,11.7,0,0,0-2.32-3.87,9.88,9.88,0,0,0-3.41-2.4A10.59,10.59,0,0,0,836.44,302.24Z"/><path d="M857.1,297.56h13.21v5.78h-4.14l8.17,22.23,8.54-22.23h-4.1v-5.78H892v5.78H888.4l-15.5,39.1h4.77v5.78h-14v-5.78h4.23l3.7-9.58-11.63-29.52H857.1Z"/><path d="M647.15,402.21h4.23l-4-11.57h-19.6l-3.93,11.57h5.24V408H612.52v-5.78H617L632.83,357h9.91l15.84,45.18h5.11V408H647.15Zm-17.48-17.15H645.4l-7.93-22.79Z"/><path d="M666.43,355.68h11.29v46.53H683V408H666.43v-5.78h5V361.46h-5Z"/><path d="M685.71,373.16h11v5.78h-1.62l6.09,22.23,8.33-28h5.25l8,27.94,6.35-22.16h-2v-5.78h11v5.78h-3l-9.55,29.59H719.8l-7.9-27.8L704,408.53h-5.85l-9.48-29.59h-3Z"/><path d="M763.32,404.76a18.21,18.21,0,0,1-4.39,3,12.31,12.31,0,0,1-5.46,1.18,13.08,13.08,0,0,1-4.69-.81,11.44,11.44,0,0,1-3.68-2.2,9.81,9.81,0,0,1-2.41-3.25,9.24,9.24,0,0,1-.86-3.93,10.86,10.86,0,0,1,.66-3.93,9.85,9.85,0,0,1,1.75-3,10.22,10.22,0,0,1,2.55-2.12,16.13,16.13,0,0,1,3.06-1.38,18.28,18.28,0,0,1,3.26-.73,23.74,23.74,0,0,1,3.18-.22c1.61,0,3,.05,4.07.15a28.35,28.35,0,0,1,3,.42l0-2.86a8.92,8.92,0,0,0-.53-3.21,5.93,5.93,0,0,0-1.52-2.25,6.17,6.17,0,0,0-2.33-1.33,10,10,0,0,0-3-.44,20.93,20.93,0,0,0-3,.22,24.33,24.33,0,0,0-2.71.57,20.23,20.23,0,0,0-2.32.81,10.71,10.71,0,0,0-1.8,1l-2.05-4.34a22,22,0,0,1,2.73-1.5,23,23,0,0,1,3.11-1.17,28.12,28.12,0,0,1,3.32-.78,20.28,20.28,0,0,1,3.35-.28,19.13,19.13,0,0,1,5.45.72,10.52,10.52,0,0,1,4.1,2.24,10,10,0,0,1,2.59,3.85,15.52,15.52,0,0,1,.9,5.59l0,17.42h3.87V408H763.32Zm-8.48-1a10.6,10.6,0,0,0,2.49-.3,12.89,12.89,0,0,0,2.36-.82,12.61,12.61,0,0,0,2-1.22,9.61,9.61,0,0,0,1.58-1.42l0-7.87h-7.26a12.62,12.62,0,0,0-3.31.4,8,8,0,0,0-2.59,1.18,5.39,5.39,0,0,0-1.7,1.92,5.53,5.53,0,0,0-.6,2.62,5.31,5.31,0,0,0,.5,2.4,4.67,4.67,0,0,0,1.43,1.72,6.69,6.69,0,0,0,2.2,1A10.78,10.78,0,0,0,754.84,403.72Z"/><path d="M777.49,373.16H790.7v5.78h-4.14l8.17,22.23,8.54-22.23h-4.1v-5.78h13.21v5.78h-3.59L793.29,418h4.77v5.78H784V418h4.24l3.69-9.58-11.63-29.52h-2.82Z"/><path d="M838.1,380.1a5.14,5.14,0,0,0-1.7-1.61,7.8,7.8,0,0,0-2.32-.91,11.36,11.36,0,0,0-2.48-.28,9.55,9.55,0,0,0-2.47.3,6.06,6.06,0,0,0-1.94.87,4.31,4.31,0,0,0-1.26,1.4,3.76,3.76,0,0,0-.45,1.83,3.65,3.65,0,0,0,1.06,2.77,9.66,9.66,0,0,0,3.54,1.9l6.69,2.36a13.11,13.11,0,0,1,6.29,3.93,9.26,9.26,0,0,1,2,5.95,9.62,9.62,0,0,1-.92,4.25,9.43,9.43,0,0,1-2.62,3.3,12.57,12.57,0,0,1-4.09,2.12,17.65,17.65,0,0,1-5.31.75,14.41,14.41,0,0,1-6.62-1.31,9.9,9.9,0,0,1-3.94-3.46h-3.49v-5.78h7a4.65,4.65,0,0,0,.62,2.47,4.85,4.85,0,0,0,1.65,1.66,7.39,7.39,0,0,0,2.32.94,11.09,11.09,0,0,0,2.64.31,10,10,0,0,0,2.52-.32,7.25,7.25,0,0,0,2.13-.94,4.84,4.84,0,0,0,1.46-1.5,3.68,3.68,0,0,0,.54-2,4,4,0,0,0-1.09-2.86,9.42,9.42,0,0,0-3.72-2.12l-6.65-2.49a14.27,14.27,0,0,1-6-3.68,8.16,8.16,0,0,1-2-5.6,10.11,10.11,0,0,1,.82-4.1,9.18,9.18,0,0,1,2.39-3.24,11.35,11.35,0,0,1,3.81-2.14,16,16,0,0,1,5.15-.77,16.53,16.53,0,0,1,6.25,1,11.57,11.57,0,0,1,4.54,3.57h3.26v5.78h-6.89A4.28,4.28,0,0,0,838.1,380.1Z"/><path d="M883.77,355.24h5.85L869.45,409H863.6Z"/><path d="M615.34,466.92v-5.79h18.53v5.79Z"/></g><g id="Isolation_Mode-2" data-name="Isolation Mode"><line class="cls-8" x1="416.21" y1="336.11" x2="356.36" y2="336.11"/><line class="cls-8" x1="416.21" y1="336.11" x2="373.89" y2="293.79"/><line class="cls-8" x1="416.21" y1="336.11" x2="416.21" y2="205.68"/><rect class="cls-4" x="374.3" y="581.78" width="41.05" height="41.05"/><path class="cls-8" d="M294.53,504.73l79.82,79.82-.05,38.28h41.91V424.14H275.89A141.25,141.25,0,0,0,134.64,565.39V943.31H751.55V741.84h0A141.25,141.25,0,0,0,610.3,600.59H416.21"/><line class="cls-8" x1="329.89" y1="600.6" x2="375.49" y2="600.6"/><line class="cls-8" x1="328.96" y1="542.43" x2="328.96" y2="659.82"/><line class="cls-8" x1="416.21" y1="378.96" x2="451.18" y2="378.96"/><path class="cls-8" d="M412.57,358.06a20.91,20.91,0,0,0,0,41.81"/><path class="cls-8" d="M395.3,278.56a20.91,20.91,0,1,1,41.81,0"/><line class="cls-8" x1="154.91" y1="485.76" x2="328.96" y2="659.82"/><polyline class="cls-8" points="362.45 424.14 362.45 477.9 416.21 477.9"/><line class="cls-8" x1="416.21" y1="417.99" x2="416.21" y2="336.11"/><circle class="cls-10" cx="415.36" cy="168.1" r="39.87"/><circle class="cls-7" cx="316.08" cy="335.17" r="33.89"/><circle class="cls-11" cx="316.08" cy="335.17" r="11.72"/><rect class="cls-12" x="451.18" y="351.95" width="54.03" height="54.03" transform="translate(857.16 -99.23) rotate(90)"/></g></svg>