<svg xmlns="http://www.w3.org/2000/svg" xmlns:xlink="http://www.w3.org/1999/xlink" viewBox="0 0 1080 1080"><defs><style>.cls-1,.cls-12{fill:none;}.cls-2{fill:#012b6d;}.cls-3{fill:#183c58;}.cls-4{clip-path:url(#clip-path);}.cls-5{fill:#c19a67;}.cls-6{fill:#f5cebc;}.cls-7{fill:#28773f;}.cls-8{fill:#f05338;}.cls-9{clip-path:url(#clip-path-2);}.cls-10{fill:#0054ce;}.cls-11{clip-path:url(#clip-path-3);}.cls-12{stroke:#929b9b;stroke-miterlimit:10;stroke-width:18.42px;}.cls-13{fill:#eb413d;}</style><clipPath id="clip-path"><rect class="cls-1" y="-0.68" width="1080.68" height="1080.68"/></clipPath><clipPath id="clip-path-2"><path class="cls-2" d="M469.17,355.08a165.59,165.59,0,0,1,118.35-158.7,165.54,165.54,0,1,0,0,317.39A165.59,165.59,0,0,1,469.17,355.08Z"/></clipPath><clipPath id="clip-path-3"><ellipse class="cls-1" cx="587.52" cy="355.08" rx="118.35" ry="158.7"/></clipPath></defs><g id="Graphics"><rect class="cls-3" y="-0.68" width="1080.68" height="1080.68"/><g class="cls-4"><path class="cls-5" d="M984.42-476.13V-520h0a58,58,0,0,0-45.29-56.57v-4.66a60.65,60.65,0,0,0-60.65-60.66v47.4h0v-47.4H855.09A41.07,41.07,0,0,1,814-682.93a41.06,41.06,0,0,1-41,41.06H749.61A60.65,60.65,0,0,0,689-581.21v4.66A58,58,0,0,0,643.67-520h0v43.85a58.62,58.62,0,0,0-43.6,56.67V61.81a58.62,58.62,0,0,0,43.6,56.67v43.85A58,58,0,0,0,689,218.9v4.66a60.65,60.65,0,0,0,60.65,60.66H773a41,41,0,0,1,41,41.06,41.05,41.05,0,0,1,41.05-41.06h23.39a60.65,60.65,0,0,0,60.65-60.66V218.9a58,58,0,0,0,45.29-56.57V118.48A58.62,58.62,0,0,0,1028,61.81V-419.46A58.62,58.62,0,0,0,984.42-476.13Z"/><path class="cls-5" d="M984.42,663.42V619.57A58,58,0,0,0,939.13,563v-4.67a60.64,60.64,0,0,0-60.65-60.65H855.09A41.07,41.07,0,0,1,814,456.62a41.06,41.06,0,0,1-41,41.06H749.61A60.64,60.64,0,0,0,689,558.33V563a58,58,0,0,0-45.29,56.57v43.85a58.62,58.62,0,0,0-43.6,56.66v481.28a58.61,58.61,0,0,0,43.6,56.66v43.85A58,58,0,0,0,689,1358.44v4.67a60.64,60.64,0,0,0,60.65,60.65H773a41.06,41.06,0,0,1,41,41.06,41.07,41.07,0,0,1,41.05-41.06h23.39v-47.4h0v47.4a60.64,60.64,0,0,0,60.65-60.65v-4.67a58,58,0,0,0,45.29-56.57V1258a58.61,58.61,0,0,0,43.6-56.66V720.08A58.62,58.62,0,0,0,984.42,663.42Z"/></g><path class="cls-5" d="M437,242.36V198.51a58,58,0,0,0-45.29-56.57v-4.67a60.64,60.64,0,0,0-60.65-60.65H307.68a41.07,41.07,0,0,1-41.05-41.06,41.06,41.06,0,0,1-41,41.06H202.2a60.64,60.64,0,0,0-60.65,60.65v4.67a58,58,0,0,0-45.29,56.57v43.85A58.62,58.62,0,0,0,52.66,299V780.3A58.61,58.61,0,0,0,96.26,837v43.85a58,58,0,0,0,45.29,56.57v4.67a60.64,60.64,0,0,0,60.65,60.65h23.39a41.06,41.06,0,0,1,41,41.06,41.07,41.07,0,0,1,41.05-41.06h23.39a60.64,60.64,0,0,0,60.65-60.65v-4.67A58,58,0,0,0,437,880.81V837a58.62,58.62,0,0,0,43.6-56.66V299A58.63,58.63,0,0,0,437,242.36Z"/><rect class="cls-6" x="458.68" y="649.31" width="163.33" height="430.69"/><polygon class="cls-7" points="540.34 848.04 440.97 848.04 440.97 649.31 542.24 750.58 540.34 848.04"/><polygon class="cls-7" points="622 667.01 458.68 830.34 458.68 1080 622 1080 622 667.01"/><path class="cls-6" d="M540.34,701.11A117.17,117.17,0,0,0,606.22,681V508H474.45V681A117.22,117.22,0,0,0,540.34,701.11Z"/><path class="cls-6" d="M540.34,701.11a122.23,122.23,0,0,0,106.5-62.18c-32.41-18.27-68.48-28.47-106.5-28.47s-74.09,10.2-106.5,28.47A122.23,122.23,0,0,0,540.34,701.11Z"/><rect class="cls-8" x="521.95" y="67.07" width="36.78" height="229.63"/><ellipse class="cls-8" cx="540.34" cy="67.07" rx="18.39" ry="4.85"/><path class="cls-2" d="M493.52,196.28A39,39,0,0,0,522,158.73l18.39,30.81-38.56,17.23Z"/><path class="cls-2" d="M587.16,196.28a39,39,0,0,1-28.43-37.55l-18.39,30.81,38.57,17.23Z"/><path class="cls-2" d="M469.17,355.08a165.59,165.59,0,0,1,118.35-158.7,165.54,165.54,0,1,0,0,317.39A165.59,165.59,0,0,1,469.17,355.08Z"/><g class="cls-9"><ellipse class="cls-10" cx="498.84" cy="311.62" rx="164.44" ry="122.63" transform="translate(-85.45 379.14) rotate(-38.58)"/><ellipse class="cls-2" cx="530.03" cy="318.28" rx="164.44" ry="122.63" transform="translate(-48.38 536.62) rotate(-51.67)"/><ellipse class="cls-10" cx="561.92" cy="317.71" rx="164.44" ry="122.63" transform="translate(34.85 690.38) rotate(-64.75)"/><ellipse class="cls-2" cx="592.86" cy="309.93" rx="164.44" ry="122.63" transform="translate(164.88 824.11) rotate(-77.83)"/><ellipse class="cls-10" cx="621.23" cy="295.36" rx="122.63" ry="164.44" transform="translate(-4.6 9.88) rotate(-0.91)"/><ellipse class="cls-10" cx="645.57" cy="274.74" rx="122.63" ry="164.44" transform="translate(-47.27 164.2) rotate(-13.99)"/></g><ellipse class="cls-2" cx="587.52" cy="355.08" rx="118.35" ry="158.7"/><g class="cls-11"><ellipse class="cls-10" cx="611.32" cy="374.6" rx="158.7" ry="118.35" transform="translate(108.08 885.27) rotate(-76.92)"/><ellipse class="cls-2" cx="630.08" cy="399" rx="158.7" ry="118.35" transform="translate(-5.85 788.61) rotate(-63.84)"/><ellipse class="cls-10" cx="642.83" cy="427.02" rx="158.7" ry="118.35" transform="translate(-94.54 654.74) rotate(-50.76)"/><ellipse class="cls-2" cx="648.92" cy="457.2" rx="158.7" ry="118.35" transform="translate(-144.12 491.95) rotate(-37.68)"/><ellipse class="cls-10" cx="648.01" cy="487.97" rx="158.7" ry="118.35" transform="translate(-144.3 313.97) rotate(-24.6)"/><ellipse class="cls-2" cx="640.16" cy="517.73" rx="158.7" ry="118.35" transform="translate(-90.46 138.2) rotate(-11.51)"/></g><path class="cls-7" d="M285.39,922.78V1080H458.68V626.82C357.92,668.53,285.39,785.28,285.39,922.78Z"/><ellipse class="cls-6" cx="540.34" cy="448.64" rx="114.06" ry="133.04"/><path class="cls-7" d="M795.29,922.78V1080H622V626.82C722.75,668.53,795.29,785.28,795.29,922.78Z"/><line class="cls-12" x1="639.71" y1="649.31" x2="440.97" y2="848.04"/><line class="cls-12" x1="440.97" y1="649.31" x2="542.24" y2="750.58"/><rect class="cls-13" x="622" y="750.58" width="79.79" height="329.42"/><path class="cls-13" d="M753.93,752.19,691.15,815,622,853.12V626.82C676.63,649.44,723,694.11,753.93,752.19Z"/><rect class="cls-13" x="378.89" y="750.58" width="79.79" height="329.42"/><path class="cls-13" d="M326.75,752.19,389.53,815l69.15,38.14V626.82C404.05,649.44,357.72,694.11,326.75,752.19Z"/></g></svg>