<svg xmlns="http://www.w3.org/2000/svg" xmlns:xlink="http://www.w3.org/1999/xlink" viewBox="0 0 1440 1080"><defs><style>.cls-1,.cls-13,.cls-14,.cls-17,.cls-20,.cls-22,.cls-23,.cls-24,.cls-25,.cls-26,.cls-27,.cls-28,.cls-29,.cls-30{fill:none;}.cls-2{fill:#8f813d;}.cls-3{fill:#28773f;}.cls-4{fill:#0b4100;}.cls-5{fill:#00421d;}.cls-6{fill:#ea8d6c;}.cls-7{fill:#002d6e;}.cls-8{fill:#f75f5f;}.cls-9{fill:#25d4cf;}.cls-10{fill:#f7c0ba;}.cls-11{fill:#ffe5e0;}.cls-12{clip-path:url(#clip-path);}.cls-13{stroke:#ececec;stroke-width:2.88px;}.cls-13,.cls-14,.cls-17,.cls-20,.cls-22,.cls-23,.cls-24,.cls-25,.cls-26,.cls-27,.cls-28,.cls-29,.cls-30{stroke-miterlimit:10;}.cls-14,.cls-17,.cls-23,.cls-26,.cls-27{stroke:#26ae8c;}.cls-14{stroke-width:4.86px;}.cls-15{fill:#69bf7c;}.cls-16{fill:#38934d;}.cls-17{stroke-width:3.24px;}.cls-18{fill:#92e0ff;}.cls-19{fill:#c7eaff;}.cls-20,.cls-22,.cls-24,.cls-25,.cls-28,.cls-29,.cls-30{stroke:#000;}.cls-20{stroke-width:3.22px;}.cls-21{fill:#91d7f3;}.cls-22{stroke-width:2.22px;}.cls-23{stroke-width:3.37px;}.cls-24{stroke-width:2.24px;}.cls-25{stroke-width:2.05px;}.cls-26{stroke-width:5.9px;}.cls-27{stroke-width:3.93px;}.cls-28{stroke-width:3.91px;}.cls-29{stroke-width:2.69px;}.cls-30{stroke-width:2.48px;}</style><clipPath id="clip-path"><path class="cls-1" d="M883.28,353A170.56,170.56,0,0,0,574,353Z"/></clipPath></defs><g id="Graphics"><rect class="cls-2" width="1440" height="1078.05"/><rect class="cls-3" x="264.35" y="731.21" width="76.99" height="7.2"/><rect class="cls-3" x="299.25" y="574.45" width="7.2" height="160.36"/><circle class="cls-3" cx="302.85" cy="589.18" r="56.59"/><polygon class="cls-3" points="302.85 73.77 246.74 581.79 358.95 581.79 302.85 73.77"/><rect class="cls-4" x="539.08" y="731.21" width="76.99" height="7.2"/><rect class="cls-4" x="573.97" y="574.45" width="7.2" height="160.36"/><circle class="cls-5" cx="577.57" cy="589.18" r="56.59"/><polygon class="cls-5" points="577.57 73.77 521.46 581.79 633.68 581.79 577.57 73.77"/><rect class="cls-5" x="401.71" y="731.21" width="76.99" height="7.2"/><rect class="cls-5" x="436.61" y="574.45" width="7.2" height="160.36"/><circle class="cls-5" cx="440.21" cy="589.18" r="56.59"/><polygon class="cls-5" points="440.21 73.77 384.1 581.79 496.31 581.79 440.21 73.77"/><rect class="cls-6" x="578.79" y="377.1" width="299.72" height="522.67"/><rect class="cls-7" y="950.43" width="1440" height="129.57"/><rect class="cls-8" y="923.89" width="1440" height="27.41"/><path class="cls-9" d="M883.28,353A170.56,170.56,0,0,0,574,353Z"/><polygon class="cls-9" points="754.5 263.6 728.61 237.71 702.71 263.6 754.5 263.6"/><rect class="cls-7" x="642.25" y="447.24" width="172.8" height="452.53"/><rect x="697.97" y="686.14" width="61.29" height="213.59" transform="translate(-1.02 0.94) rotate(-0.07)"/><rect class="cls-5" x="1090.52" y="982.8" width="76.99" height="7.2"/><rect class="cls-5" x="1125.42" y="826.04" width="7.2" height="160.36"/><circle class="cls-5" cx="1129.01" cy="840.78" r="56.59"/><polygon class="cls-5" points="1129.02 325.36 1072.91 833.39 1185.12 833.39 1129.02 325.36"/><rect class="cls-10" x="523.32" y="899.77" width="410.67" height="24.06"/><rect class="cls-10" x="617.18" y="627.75" width="546.72" height="24.06" transform="translate(250.77 1530.32) rotate(-90)"/><rect class="cls-10" x="293.4" y="627.75" width="546.72" height="24.06" transform="translate(-73.02 1206.54) rotate(-90)"/><rect class="cls-10" x="509.26" y="627.75" width="546.72" height="24.06" transform="translate(142.84 1422.4) rotate(-90)"/><rect class="cls-10" x="401.33" y="627.75" width="546.72" height="24.06" transform="translate(34.91 1314.47) rotate(-90)"/><rect class="cls-11" x="554.73" y="377.1" width="24.06" height="12.7"/><rect class="cls-11" x="662.66" y="377.1" width="24.06" height="12.7"/><rect class="cls-11" x="770.59" y="377.1" width="24.06" height="12.7"/><rect class="cls-11" x="878.51" y="377.1" width="24.06" height="12.7"/><rect class="cls-11" x="523.32" y="353.04" width="410.67" height="24.06"/><rect class="cls-3" x="953.16" y="982.8" width="76.99" height="7.2"/><rect class="cls-3" x="988.06" y="826.04" width="7.2" height="160.36"/><circle class="cls-3" cx="991.65" cy="840.78" r="56.59"/><polygon class="cls-3" points="991.65 325.36 935.55 833.39 1047.76 833.39 991.65 325.36"/><rect class="cls-3" x="1226.38" y="982.8" width="76.99" height="7.2"/><rect class="cls-3" x="1261.27" y="826.04" width="7.2" height="160.36"/><circle class="cls-3" cx="1264.87" cy="840.78" r="56.59"/><polygon class="cls-3" points="1264.87 325.36 1208.76 833.39 1320.98 833.39 1264.87 325.36"/><g class="cls-12"><circle class="cls-13" cx="915.59" cy="398.87" r="182.92"/><circle class="cls-13" cx="883" cy="398.87" r="182.92"/><circle class="cls-13" cx="948.19" cy="398.87" r="182.92"/><circle class="cls-13" cx="980.78" cy="398.87" r="182.92"/><circle class="cls-13" cx="1013.37" cy="398.87" r="182.92"/><circle class="cls-13" cx="850.41" cy="398.87" r="182.92"/><circle class="cls-13" cx="817.82" cy="398.87" r="182.92"/><circle class="cls-13" cx="785.22" cy="398.87" r="182.92"/><circle class="cls-13" cx="672.08" cy="398.87" r="182.92"/><circle class="cls-13" cx="639.49" cy="398.87" r="182.92"/><circle class="cls-13" cx="606.9" cy="398.87" r="182.92"/><circle class="cls-13" cx="574.3" cy="398.87" r="182.92"/><circle class="cls-13" cx="541.71" cy="398.87" r="182.92"/><circle class="cls-13" cx="509.12" cy="398.87" r="182.92"/><circle class="cls-13" cx="476.52" cy="398.87" r="182.92"/><circle class="cls-13" cx="443.93" cy="398.87" r="182.92"/></g><path class="cls-11" d="M189,597.68V923.89h68.62V692.58a41.25,41.25,0,0,1,82.49,0V923.89H409V692.58a41.25,41.25,0,0,1,82.49,0V923.89h63.28V597.68Z"/><path class="cls-14" d="M914.78,730.51a133.31,133.31,0,1,1,166,208.63"/><path class="cls-14" d="M1295.47,1000.06A133.31,133.31,0,1,0,1041.12,1080"/><path class="cls-15" d="M1104.65,697.07a41.2,41.2,0,0,1,55.06-19"/><path class="cls-16" d="M1104.65,697.07a41.2,41.2,0,0,0,55.06-19"/><path class="cls-15" d="M1224,863.12a41.18,41.18,0,0,1-55,19"/><path class="cls-16" d="M1224,863.12a41.17,41.17,0,0,0-55,19"/><path class="cls-15" d="M1147.83,924.79a41.18,41.18,0,0,1-22.46,53.75"/><path class="cls-16" d="M1147.83,924.79a41.2,41.2,0,0,0-22.46,53.75"/><path class="cls-15" d="M1021.86,921.12a41.2,41.2,0,0,1-22.46,53.74"/><path class="cls-16" d="M1021.86,921.12a41.17,41.17,0,0,0-22.46,53.74"/><path class="cls-15" d="M944.19,862.78A41.18,41.18,0,0,1,976.92,911"/><path class="cls-16" d="M944.19,862.78A41.18,41.18,0,0,0,976.92,911"/><path class="cls-15" d="M1067.56,855.57a41.19,41.19,0,0,1,54.79,19.77"/><path class="cls-16" d="M1067.56,855.57a41.18,41.18,0,0,0,54.79,19.77"/><path class="cls-15" d="M1000.22,751.63a41.17,41.17,0,0,1,42.61-39.71"/><path class="cls-16" d="M1000.22,751.63a41.19,41.19,0,0,0,42.61-39.71"/><path class="cls-17" d="M1091.14,634.56a68.23,68.23,0,0,1-10.91,95.89"/><path class="cls-17" d="M1032.68,793.8a68.25,68.25,0,0,1,95.11,16.4"/><ellipse class="cls-18" cx="918.03" cy="731.7" rx="36.73" ry="22.61" transform="translate(-254.45 672.9) rotate(-35.69)"/><ellipse class="cls-19" cx="926.7" cy="759.29" rx="22.61" ry="36.73" transform="translate(-132.62 1318.88) rotate(-67.17)"/><ellipse class="cls-19" cx="894.66" cy="714.67" rx="22.61" ry="36.73" transform="translate(-49.89 67.37) rotate(-4.2)"/><path d="M856.53,752a18.51,18.51,0,1,0,25.67,25.72l25.73-38.09L863,749.26A18.4,18.4,0,0,0,856.53,752Z"/><path class="cls-18" d="M835.32,719.6l0,.07A41.05,41.05,0,0,0,899.51,745,41,41,0,0,0,903,813.9l0,.07,0,0a58.07,58.07,0,0,0-67.71-94.37h0Z"/><polyline class="cls-20" points="825.53 762.41 864.79 768.85 858.35 808.11"/><circle cx="858.35" cy="808.11" r="7.5"/><circle cx="825.53" cy="762.41" r="7.5"/><ellipse class="cls-21" cx="1284.91" cy="981.44" rx="15.54" ry="25.24" transform="translate(-298.93 656.38) rotate(-25.78)"/><ellipse class="cls-19" cx="1304.61" cy="978.83" rx="25.24" ry="15.54" transform="translate(-224.24 1546.93) rotate(-57.26)"/><ellipse class="cls-19" cx="1270.61" cy="995.25" rx="15.54" ry="25.24" transform="translate(153.79 2160.45) rotate(-84.29)"/><path d="M1291.38,1025.48a12.72,12.72,0,1,0,20.45-14.34l-22.75-21.93,1.2,31.57A12.54,12.54,0,0,0,1291.38,1025.48Z"/><path class="cls-21" d="M1266.93,1036l.06,0a28.22,28.22,0,0,0,24.75-40.43,28.18,28.18,0,0,0,47,5.8l0,0v0a39.91,39.91,0,0,0-71.9,34.68h0Z"/><polyline class="cls-22" points="1294.76 1047.7 1303.76 1021.88 1329.58 1030.88"/><circle cx="1329.58" cy="1030.88" r="5.15"/><circle cx="1294.76" cy="1047.7" r="5.15"/><path class="cls-23" d="M893.61,997.71a92.49,92.49,0,0,1,171.07-41.57"/><ellipse class="cls-21" cx="889.07" cy="989.54" rx="25.48" ry="15.69" transform="translate(-413.37 1260.28) rotate(-59.8)"/><ellipse class="cls-19" cx="869.44" cy="985.38" rx="15.69" ry="25.48" transform="translate(-363.36 530.28) rotate(-28.31)"/><ellipse class="cls-19" cx="902.38" cy="1004.55" rx="25.48" ry="15.69" transform="translate(-22.45 20.63) rotate(-1.29)"/><path d="M879.13,1033.36a12.84,12.84,0,1,1-19.47-16l24.6-20.3-3.66,31.68A12.83,12.83,0,0,1,879.13,1033.36Z"/><path class="cls-21" d="M902.91,1045.86l0,0a28.48,28.48,0,0,1-21.76-42.61,28.45,28.45,0,0,1-47.8,2.17l0,0v0a40.29,40.29,0,0,1,69.66,40.49h0Z"/><polyline class="cls-24" points="874 1055.46 866.95 1028.78 840.26 1035.83"/><circle cx="840.26" cy="1035.83" r="5.2"/><circle cx="874" cy="1055.46" r="5.2"/><path d="M1094.59,609.45a11.75,11.75,0,1,0-19.87,11.72L1094.07,643l1.19-29.15A11.87,11.87,0,0,0,1094.59,609.45Z"/><path class="cls-18" d="M1117.86,601.54l0,0A26.06,26.06,0,0,0,1092.08,637a26,26,0,0,0-42.89-8.76l0,0v0a36.87,36.87,0,0,0,68.73-26.7h0Z"/><polyline class="cls-25" points="1093.1 588.75 1082.93 611.87 1059.81 601.7"/><circle cx="1059.81" cy="601.7" r="4.76"/><circle cx="1093.1" cy="588.75" r="4.76"/><path class="cls-17" d="M1211.21,815.42a68.25,68.25,0,0,1-10.91,95.89"/><path d="M1214.65,790.31a11.75,11.75,0,0,0-22.14,7.88,11.91,11.91,0,0,0,2.27,3.84l19.35,21.84,1.19-29.16A11.65,11.65,0,0,0,1214.65,790.31Z"/><path class="cls-21" d="M1237.93,782.4l0,0a26.06,26.06,0,0,0-25.73,35.42,26,26,0,0,0-42.9-8.76l0,0v0a36.87,36.87,0,0,0,68.73-26.7h0Z"/><polyline class="cls-25" points="1213.16 769.6 1202.99 792.72 1179.87 782.55"/><circle cx="1179.87" cy="782.55" r="4.76"/><circle cx="1213.16" cy="769.6" r="4.76"/><path class="cls-17" d="M1167.27,1000.87A68.24,68.24,0,0,0,1129.59,912"/><path d="M1177.71,1024a11.75,11.75,0,1,1-22.39-5.6l12.36-26.44,9.41,27.62A11.79,11.79,0,0,1,1177.71,1024Z"/><path class="cls-21" d="M1202.27,1024.94h-.06a26.07,26.07,0,0,1-34.73-26.66,26,26,0,0,1-38.64,20.58h0v0a36.87,36.87,0,0,1,73.48,6.09h0Z"/><polyline class="cls-25" points="1182.15 1044.24 1165.84 1024.96 1146.56 1041.28"/><circle cx="1146.56" cy="1041.28" r="4.76"/><circle cx="1182.15" cy="1044.24" r="4.76"/><path d="M1004.43,808.11a11.75,11.75,0,1,0,17.4,15.8,11.88,11.88,0,0,0,2.31-3.81l10.12-27.37L1008,805.45A11.65,11.65,0,0,0,1004.43,808.11Z"/><path class="cls-21" d="M986.46,791.33l0,0a26.07,26.07,0,0,0,43.38,6,26,26,0,0,0,12.53,41.94l0,0,0,0a36.86,36.86,0,0,0-56-48h0Z"/><polyline class="cls-25" points="986.88 819.21 1012.06 817.25 1014.02 842.44"/><circle cx="1014.02" cy="842.44" r="4.76"/><circle cx="986.88" cy="819.21" r="4.76"/><path class="cls-26" d="M708.17,201.55A161.75,161.75,0,0,1,387.76,157"/><path class="cls-26" d="M148.1,283A161.75,161.75,0,0,0,304.83,0"/><path class="cls-15" d="M569.24,389.75a50,50,0,0,1-32.49,62.75"/><path class="cls-16" d="M569.24,389.75a50,50,0,0,0-32.49,62.75"/><path class="cls-15" d="M325.41,343.63a50,50,0,0,1,32.5-62.75"/><path class="cls-16" d="M325.41,343.63a50,50,0,0,0,32.5-62.75"/><path class="cls-15" d="M340.83,225.68a50,50,0,0,1-25.21-66"/><path class="cls-16" d="M340.83,225.68a50,50,0,0,0-25.21-66"/><path class="cls-15" d="M469.28,219.4a50,50,0,0,1-64.69,28.44"/><path class="cls-16" d="M469.28,219.4a50,50,0,0,0-64.69,28.44"/><path class="cls-15" d="M615.4,254.44A50,50,0,0,1,611.16,325"/><path class="cls-16" d="M615.4,254.44A50,50,0,0,0,611.16,325"/><path class="cls-27" d="M633.39,433.39A82.79,82.79,0,0,1,562.78,340"/><path class="cls-27" d="M551.6,244.52a82.81,82.81,0,0,1-97.32,65.13"/><ellipse class="cls-18" cx="704.32" cy="203.22" rx="44.56" ry="27.44" transform="translate(373.4 857.33) rotate(-79.26)"/><ellipse class="cls-19" cx="673.62" cy="186.22" rx="44.56" ry="27.44" transform="translate(-22.28 250.72) rotate(-20.75)"/><ellipse class="cls-19" cx="739.11" cy="198.65" rx="27.44" ry="44.56" transform="translate(95.26 612.41) rotate(-47.77)"/><path d="M741.41,133.94a22.46,22.46,0,1,0-44.09-1.13l9.25,55L738,141.76A22.54,22.54,0,0,0,741.41,133.94Z"/><path class="cls-18" d="M787.14,144.69l-.1,0A49.8,49.8,0,0,0,709.46,176a49.77,49.77,0,0,0-60.66-57.64l-.1,0a.1.1,0,0,0,0,0,70.46,70.46,0,0,0,138.44,26.33h0Z"/><polyline class="cls-28" points="759.95 98.87 720.05 126.04 692.88 86.14"/><circle cx="692.88" cy="86.14" r="9.1"/><circle cx="759.95" cy="98.87" r="9.1"/><ellipse class="cls-18" cx="172.95" cy="290.53" rx="18.86" ry="30.63" transform="translate(-159.9 349.91) rotate(-69.35)"/><ellipse class="cls-19" cx="157.82" cy="309.3" rx="18.86" ry="30.63" transform="translate(-55.35 35.2) rotate(-10.84)"/><ellipse class="cls-19" cx="173.97" cy="266.43" rx="30.63" ry="18.86" transform="matrix(0.79, -0.61, 0.61, 0.79, -126.9, 162.85)"/><path d="M130.44,257.23a15.44,15.44,0,1,0-6,29.71l38.33.24-27.46-26.74A15.33,15.33,0,0,0,130.44,257.23Z"/><path class="cls-18" d="M143.12,227.53l0,.07a34.22,34.22,0,0,0,12.05,56.23A34.2,34.2,0,0,0,109,318.08l0,.07h0a48.43,48.43,0,0,0,34.2-90.62h0Z"/><polyline class="cls-29" points="108.88 240.52 122.56 270.75 92.34 284.43"/><circle cx="92.34" cy="284.43" r="6.25"/><circle cx="108.88" cy="240.52" r="6.25"/><path d="M651.36,458.35A14.26,14.26,0,1,0,659,431.43l-35.28-3L647.09,455A14.22,14.22,0,0,0,651.36,458.35Z"/><path class="cls-18" d="M637.52,484.77l0-.06a31.62,31.62,0,0,0-7-52.66,31.58,31.58,0,0,0,45-28.17l0-.06h0a44.73,44.73,0,0,0-38.09,80.94h0Z"/><polyline class="cls-30" points="669.99 475.3 659.59 446.47 688.42 436.07"/><circle cx="688.42" cy="436.07" r="5.78"/><circle cx="669.99" cy="475.3" r="5.78"/><path class="cls-27" d="M376.59,374.83A82.81,82.81,0,0,1,306,281.42"/><path d="M394.56,399.78a14.26,14.26,0,1,0,7.67-26.92l-35.28-3,23.34,26.63A14.16,14.16,0,0,0,394.56,399.78Z"/><path class="cls-18" d="M380.72,426.2l0-.06a31.61,31.61,0,0,0-7-52.65,31.61,31.61,0,0,0,45-28.18l0-.06h0a44.73,44.73,0,0,0-38.09,80.95h0Z"/><polyline class="cls-30" points="413.19 416.73 402.8 387.91 431.62 377.51"/><circle cx="431.62" cy="377.51" r="5.78"/><circle cx="413.19" cy="416.73" r="5.78"/><path class="cls-27" d="M260.11,175.07a82.8,82.8,0,0,0,107.43,46.58"/><path d="M231.62,163.49A14.26,14.26,0,0,1,253.32,145a14.46,14.46,0,0,1,2.66,4.71l11.25,33.57-31.38-16.4A14.15,14.15,0,0,1,231.62,163.49Z"/><path class="cls-18" d="M209.21,183.17l.06,0a31.62,31.62,0,0,1,52.82-5.61,31.59,31.59,0,0,1,16.76-50.41l0,0v0a44.73,44.73,0,0,1-69.68,56.1h0Z"/><polyline class="cls-30" points="210.76 149.38 241.22 152.69 244.53 122.22"/><circle cx="244.53" cy="122.22" r="5.78"/><circle cx="210.76" cy="149.38" r="5.78"/><path d="M564.47,208.31A14.26,14.26,0,0,0,536,209a14,14,0,0,0,1.16,5.28l14,32.53,12.45-33.15A14.3,14.3,0,0,0,564.47,208.31Z"/><path class="cls-18" d="M594.29,208h-.06a31.62,31.62,0,0,0-43.11,31A31.59,31.59,0,0,0,505,212.69H505v0a44.73,44.73,0,0,0,89.34-4.65h0Z"/><polyline class="cls-30" points="570.61 183.88 550.11 206.66 527.33 186.16"/><circle cx="527.33" cy="186.16" r="5.78"/><circle cx="570.61" cy="183.88" r="5.78"/><path class="cls-11" d="M0,597.68v53.66H.24a41.24,41.24,0,0,1,41.24,41.24V923.89h68.87V692.58a41.25,41.25,0,0,1,82.49,0V923.89h63.27V597.68Z"/></g></svg>