<svg xmlns="http://www.w3.org/2000/svg" xmlns:xlink="http://www.w3.org/1999/xlink" viewBox="0 0 1080 1080"><defs><style>.cls-1,.cls-4,.cls-6,.cls-8{fill:none;}.cls-2{fill:#fadfda;}.cls-3{fill:#d62c48;}.cls-4{stroke:#fff;stroke-width:18.02px;}.cls-4,.cls-6,.cls-7,.cls-8{stroke-miterlimit:10;}.cls-5{clip-path:url(#clip-path);}.cls-6{stroke:#000;}.cls-6,.cls-7,.cls-8{stroke-width:20.13px;}.cls-7{fill:#fff;}.cls-7,.cls-8{stroke:#d62c48;}</style><clipPath id="clip-path"><rect class="cls-1" width="1080" height="1081.11"/></clipPath></defs><g id="Layer_1" data-name="Layer 1"><rect class="cls-2" width="1081.11" height="1081.11"/><path class="cls-3" d="M1012.46,0V265.52c0,161-130.53,291.56-291.55,291.56h0c-161,0-291.56-130.54-291.56-291.56V0h583.11"/><line class="cls-4" x1="735.54" y1="687.94" x2="735.54" y2="777.48"/><line class="cls-4" x1="690.77" y1="732.71" x2="780.3" y2="732.71"/><line class="cls-4" x1="766.22" y1="702.03" x2="704.86" y2="763.39"/><line class="cls-4" x1="704.86" y1="702.03" x2="766.22" y2="763.39"/><line class="cls-4" x1="917.83" y1="442.99" x2="917.83" y2="532.53"/><line class="cls-4" x1="873.06" y1="487.76" x2="962.59" y2="487.76"/><line class="cls-4" x1="948.5" y1="457.08" x2="887.15" y2="518.44"/><line class="cls-4" x1="887.15" y1="457.08" x2="948.5" y2="518.44"/><line class="cls-4" x1="435.13" y1="256.52" x2="435.13" y2="346.05"/><line class="cls-4" x1="390.36" y1="301.28" x2="479.9" y2="301.28"/><line class="cls-4" x1="465.81" y1="270.6" x2="404.45" y2="331.96"/><line class="cls-4" x1="404.45" y1="270.6" x2="465.81" y2="331.96"/><line class="cls-4" x1="531.32" y1="152.26" x2="531.32" y2="241.79"/><line class="cls-4" x1="486.56" y1="197.03" x2="576.09" y2="197.03"/><line class="cls-4" x1="562" y1="166.35" x2="500.65" y2="227.7"/><line class="cls-4" x1="500.65" y1="166.35" x2="562" y2="227.7"/><g class="cls-5"><path class="cls-6" d="M970.24,881.57v150.5A165.25,165.25,0,0,1,805,1197.32h0a165.24,165.24,0,0,1-165.25-165.25V881.57H970.24"/><line class="cls-6" x1="184.46" y1="586.3" x2="184.46" y2="453.89"/><line class="cls-6" x1="184.46" y1="453.89" x2="281.24" y2="453.89"/><line class="cls-6" x1="184.46" y1="453.89" x2="252.89" y2="385.46"/><line class="cls-6" x1="184.46" y1="453.89" x2="184.46" y2="269.96"/><path class="cls-6" d="M325.53,787.51v648.22h996V1110h0c0-126.14-102.26-228.4-228.4-228.4H639.74V824.64c0-126.14-102.25-228.4-228.4-228.4H184.46V917.52h67.76l-.08-61.89L381.22,726.55"/><line class="cls-6" x1="184.46" y1="523.19" x2="127.91" y2="523.19"/><path class="cls-6" d="M190.34,489.39a33.8,33.8,0,0,1,0,67.6"/><path class="cls-6" d="M218.26,360.83a33.8,33.8,0,1,0-67.6,0"/><line class="cls-6" x1="606.98" y1="695.88" x2="325.53" y2="977.32"/><polyline class="cls-6" points="271.38 596.24 271.38 683.16 184.46 683.16"/></g><path class="cls-7" d="M231.85,167.2V113.27L216,97.45l-15.81,15.82L184.4,97.45l-15.82,15.82L152.77,97.45,137,113.27V167.2a68.74,68.74,0,1,0,94.9,0Z"/><line class="cls-8" x1="136.95" y1="167.21" x2="231.85" y2="167.21"/></g></svg>