<svg xmlns="http://www.w3.org/2000/svg" xmlns:xlink="http://www.w3.org/1999/xlink" viewBox="0 0 1080 1080"><defs><style>.cls-1,.cls-13,.cls-6{fill:none;}.cls-2{clip-path:url(#clip-path);}.cls-3{fill:#c19a67;}.cls-4{fill:#a58055;}.cls-5{clip-path:url(#clip-path-2);}.cls-6{stroke:#002d6e;stroke-width:2px;}.cls-13,.cls-6{stroke-miterlimit:10;}.cls-7{fill:#012b6d;}.cls-8{fill:#f5cebc;}.cls-9{fill:url(#radial-gradient);}.cls-10{fill:#fff129;}.cls-11{fill:#ff8672;}.cls-12{fill:#4672e2;}.cls-13{stroke:#fff;stroke-width:3px;}.cls-14{fill:#fff;}</style><clipPath id="clip-path"><rect class="cls-1" y="-1104.68" width="1080.68" height="1080.68"/></clipPath><clipPath id="clip-path-2"><rect class="cls-1" x="-0.33" width="1080" height="1080"/></clipPath><radialGradient id="radial-gradient" cx="540" cy="712.49" r="384.69" gradientUnits="userSpaceOnUse"><stop offset="0.1" stop-color="#ffec00"/><stop offset="1" stop-color="#f3d9bc" stop-opacity="0"/></radialGradient></defs><g id="Graphics"><g class="cls-2"><path class="cls-3" d="M984.42-440.58v-43.85A58,58,0,0,0,939.13-541v-4.67a60.64,60.64,0,0,0-60.65-60.65H855.09A41.07,41.07,0,0,1,814-647.38a41.06,41.06,0,0,1-41,41.06H749.61A60.64,60.64,0,0,0,689-545.67V-541a58,58,0,0,0-45.29,56.57v43.85a58.62,58.62,0,0,0-43.6,56.66V97.36A58.61,58.61,0,0,0,643.67,154v43.85A58,58,0,0,0,689,254.44v4.67a60.64,60.64,0,0,0,60.65,60.65H773a41.06,41.06,0,0,1,41,41.06,41.07,41.07,0,0,1,41.05-41.06h23.39v-47.4h0v47.4a60.64,60.64,0,0,0,60.65-60.65v-4.67a58,58,0,0,0,45.29-56.57V154A58.61,58.61,0,0,0,1028,97.36V-383.92A58.62,58.62,0,0,0,984.42-440.58Z"/></g><rect class="cls-4" x="-0.33" width="1080" height="1080"/><g class="cls-5"><line class="cls-6" x1="-756.12" y1="175.31" x2="904.36" y2="1835.79"/><line class="cls-6" x1="-671.48" y1="90.66" x2="989.01" y2="1751.14"/><line class="cls-6" x1="-586.83" y1="6.02" x2="1073.65" y2="1666.5"/><line class="cls-6" x1="-502.19" y1="-78.63" x2="1158.3" y2="1581.85"/><line class="cls-6" x1="-417.54" y1="-163.27" x2="1242.94" y2="1497.21"/><line class="cls-6" x1="-332.9" y1="-247.92" x2="1327.59" y2="1412.56"/><line class="cls-6" x1="-248.25" y1="-332.56" x2="1412.23" y2="1327.92"/><line class="cls-6" x1="-163.61" y1="-417.21" x2="1496.87" y2="1243.27"/><line class="cls-6" x1="-78.96" y1="-501.85" x2="1581.52" y2="1158.63"/><line class="cls-6" x1="5.68" y1="-586.5" x2="1666.16" y2="1073.98"/><line class="cls-6" x1="90.33" y1="-671.14" x2="1750.81" y2="989.34"/><line class="cls-6" x1="174.97" y1="-755.79" x2="1835.45" y2="904.69"/><line class="cls-6" x1="174.97" y1="1835.79" x2="1835.45" y2="175.31"/><line class="cls-6" x1="90.33" y1="1751.14" x2="1750.81" y2="90.66"/><line class="cls-6" x1="5.68" y1="1666.5" x2="1666.16" y2="6.02"/><line class="cls-6" x1="-78.96" y1="1581.85" x2="1581.52" y2="-78.63"/><line class="cls-6" x1="-163.61" y1="1497.21" x2="1496.87" y2="-163.27"/><line class="cls-6" x1="-248.25" y1="1412.56" x2="1412.23" y2="-247.92"/><line class="cls-6" x1="-332.9" y1="1327.92" x2="1327.59" y2="-332.56"/><line class="cls-6" x1="-417.54" y1="1243.27" x2="1242.94" y2="-417.21"/><line class="cls-6" x1="-502.19" y1="1158.63" x2="1158.3" y2="-501.85"/><line class="cls-6" x1="-586.83" y1="1073.98" x2="1073.65" y2="-586.5"/><line class="cls-6" x1="-671.48" y1="989.34" x2="989.01" y2="-671.14"/><line class="cls-6" x1="-756.12" y1="904.69" x2="904.36" y2="-755.79"/><rect class="cls-7" x="96.9" y="12.6" width="39.08" height="39.08"/><rect class="cls-7" x="266.21" y="12.6" width="39.08" height="39.08"/><rect class="cls-7" x="266.21" y="181.83" width="39.08" height="39.08"/><rect class="cls-7" x="266.21" y="351.06" width="39.08" height="39.08"/><rect class="cls-7" x="435.52" y="12.6" width="39.08" height="39.08"/><rect class="cls-7" x="435.52" y="181.83" width="39.08" height="39.08"/><rect class="cls-7" x="604.82" y="181.83" width="39.08" height="39.08"/><rect class="cls-7" x="604.82" y="12.6" width="39.08" height="39.08"/><rect class="cls-7" x="774.13" y="12.6" width="39.08" height="39.08"/><rect class="cls-7" x="774.13" y="181.83" width="39.08" height="39.08"/><rect class="cls-7" x="774.13" y="351.06" width="39.08" height="39.08"/><rect class="cls-7" x="943.44" y="12.6" width="39.08" height="39.08"/><rect class="cls-7" x="943.44" y="181.83" width="39.08" height="39.08"/><rect class="cls-7" x="943.44" y="351.06" width="39.08" height="39.08"/><rect class="cls-7" x="943.44" y="520.29" width="39.08" height="39.08"/><rect class="cls-7" x="943.44" y="689.52" width="39.08" height="39.08"/><rect class="cls-7" x="943.44" y="858.75" width="39.08" height="39.08"/><rect class="cls-7" x="943.44" y="1027.98" width="39.08" height="39.08"/><rect class="cls-7" x="181.59" y="97.24" width="39.08" height="39.08"/><rect class="cls-7" x="181.59" y="266.55" width="39.08" height="39.08"/><rect class="cls-7" x="181.59" y="435.86" width="39.08" height="39.08"/><rect class="cls-7" x="181.59" y="605.17" width="39.08" height="39.08"/><rect class="cls-7" x="181.59" y="774.48" width="39.08" height="39.08"/><rect class="cls-7" x="181.59" y="943.79" width="39.08" height="39.08"/><rect class="cls-7" x="12.32" y="97.24" width="39.08" height="39.08"/><rect class="cls-7" x="12.32" y="266.55" width="39.08" height="39.08"/><rect class="cls-7" x="12.32" y="435.86" width="39.08" height="39.08"/><rect class="cls-7" x="12.32" y="605.17" width="39.08" height="39.08"/><rect class="cls-7" x="12.32" y="774.48" width="39.08" height="39.08"/><rect class="cls-7" x="12.32" y="943.79" width="39.08" height="39.08"/><rect class="cls-7" x="350.87" y="97.24" width="39.08" height="39.08"/><rect class="cls-7" x="350.87" y="266.55" width="39.08" height="39.08"/><rect class="cls-7" x="689.41" y="266.55" width="39.08" height="39.08"/><rect class="cls-7" x="689.41" y="97.24" width="39.08" height="39.08"/><rect class="cls-7" x="858.68" y="97.24" width="39.08" height="39.08"/><rect class="cls-7" x="858.68" y="266.55" width="39.08" height="39.08"/><rect class="cls-7" x="858.68" y="435.86" width="39.08" height="39.08"/><rect class="cls-7" x="858.68" y="605.17" width="39.08" height="39.08"/><rect class="cls-7" x="858.68" y="774.48" width="39.08" height="39.08"/><rect class="cls-7" x="858.68" y="943.79" width="39.08" height="39.08"/><rect class="cls-7" x="1027.95" y="97.24" width="39.08" height="39.08"/><rect class="cls-7" x="1027.95" y="266.55" width="39.08" height="39.08"/><rect class="cls-7" x="1027.95" y="435.86" width="39.08" height="39.08"/><rect class="cls-7" x="1027.95" y="605.17" width="39.08" height="39.08"/><rect class="cls-7" x="1027.95" y="774.48" width="39.08" height="39.08"/><rect class="cls-7" x="1027.95" y="943.79" width="39.08" height="39.08"/><rect class="cls-7" x="96.9" y="181.83" width="39.08" height="39.08"/><rect class="cls-7" x="96.9" y="351.06" width="39.08" height="39.08"/><rect class="cls-7" x="96.9" y="520.29" width="39.08" height="39.08"/><rect class="cls-7" x="96.9" y="689.52" width="39.08" height="39.08"/><rect class="cls-7" x="96.9" y="858.75" width="39.08" height="39.08"/><rect class="cls-7" x="96.9" y="1027.98" width="39.08" height="39.08"/></g><path d="M321.88,1080V524.49a444.32,444.32,0,0,1,332-430.73L672.16,89l18.25,4.78a444.61,444.61,0,0,1,332,430.73V1080Z"/><path class="cls-4" d="M539.68,242.62A372.49,372.49,0,0,0,261.4,603.69V1080H817.93V603.69A372.47,372.47,0,0,0,539.68,242.62Z"/><path class="cls-3" d="M368,1080V603.69A266.34,266.34,0,0,1,423.37,440.5a265.11,265.11,0,0,1,116.31-86.2,266.1,266.1,0,0,1,171.7,249.39V1080Z"/><rect class="cls-8" x="458.45" y="791.82" width="162.43" height="288.18"/><circle class="cls-9" cx="540" cy="712.49" r="384.69"/><path class="cls-10" d="M580,705.61h0l-40.2-278.06L499.37,705.61h0a40.88,40.88,0,1,0,80.57,0Z"/><path class="cls-11" d="M566,704.64h0L539.73,523.09,513.35,704.64h0a26.7,26.7,0,1,0,52.61,0Z"/><path class="cls-11" d="M566,704.64h0L539.73,523.09,513.35,704.64h0a26.7,26.7,0,1,0,52.61,0Z"/><path class="cls-12" d="M558.13,708h0L539.71,580.56,521.2,708h0a19.22,19.22,0,0,0-.27,3.15,18.74,18.74,0,1,0,37.47,0A19.22,19.22,0,0,0,558.13,708Z"/><line class="cls-13" x1="540" y1="791.82" x2="540" y2="753.37"/><path class="cls-14" d="M458.45,791.82V952.88h0a22.78,22.78,0,0,0,22.79-22.78V906a7.26,7.26,0,0,1,7.26-7.27h0a7.26,7.26,0,0,1,7.27,7.27V1017.4a8.15,8.15,0,0,0,8.15,8.15h0a8.14,8.14,0,0,0,8.14-8.15v-151a8.14,8.14,0,0,1,8.15-8.14h0a8.14,8.14,0,0,1,8.15,8.14v165.8a9.25,9.25,0,0,0,9.25,9.25h0a9.25,9.25,0,0,0,9.24-9.25V945a14.53,14.53,0,0,1,14.54-14.53h0A14.53,14.53,0,0,1,575.92,945v54.16a4.4,4.4,0,0,0,4.4,4.41h0a4.4,4.4,0,0,0,4.4-4.41V860.63a3.74,3.74,0,0,1,3.75-3.74h0a3.74,3.74,0,0,1,3.74,3.74V897.4a8.37,8.37,0,0,0,8.37,8.37h0a8.36,8.36,0,0,0,8.36-8.37V856.89h0A11.89,11.89,0,0,0,620.83,845V791.82Z"/></g></svg>