<svg xmlns="http://www.w3.org/2000/svg" viewBox="0 0 1080 1080"><defs><style>.cls-1{fill:#f7c0ba;}.cls-2{fill:#be1e2d;}.cls-3{fill:#fdffff;}.cls-4{fill:#fafcfc;}.cls-5{fill:none;stroke:#fdffff;stroke-miterlimit:10;stroke-width:4.1px;}</style></defs><g id="Layer_1" data-name="Layer 1"><rect class="cls-1" width="1080" height="1080"/><rect class="cls-2" x="504.09" y="213.71" width="71.83" height="71.83" transform="translate(-18.35 454.95) rotate(-45)"/><rect class="cls-2" x="466.84" y="356.01" width="146.32" height="146.32" transform="translate(-145.3 507.54) rotate(-45)"/><circle class="cls-2" cx="540" cy="954.71" r="42.69"/><path class="cls-2" d="M637.7,838A72,72,0,0,1,540,943.58a72,72,0,0,1-97.87-105.47l97.93-93.77Z"/><polygon class="cls-2" points="443.94 206.53 443.94 186 467.27 162.63 506.55 201.92 506.83 193.89 475.8 162.86 475.8 146.83 540.01 82.61 604.18 146.83 604.18 162.83 573.12 193.89 573.49 201.92 612.72 162.66 636.06 186 636.06 206.53 577.09 265.48 545.28 265.48 534.74 265.46 502.89 265.48 443.94 206.53"/><path class="cls-2" d="M728.7,775H707.2V338.6a78.23,78.23,0,1,0-156.45,0h-21.5a99.73,99.73,0,1,1,199.45,0Z"/><path class="cls-2" d="M372.8,555.53H351.3V338.6a99.73,99.73,0,1,1,199.45,0h-21.5a78.23,78.23,0,1,0-156.45,0Z"/><circle class="cls-2" cx="540" cy="659.29" r="263.37"/><path class="cls-3" d="M339.82,658.05H346V620.18h-6.15v-.77h17.83v.77H351.5v18.11h18.44V620.18h-6.15v-.77h17.83v.77h-6.14v37.87h6.14v.78H363.79v-.78h6.15v-19H351.5v19h6.15v.78H339.82Z"/><path class="cls-3" d="M383.23,658.05h4.87l14.95-39.64h1.33l15.06,39.64h4.93v.78H407.31v-.78h6.15l-5.82-15.39H394.8L389,658.05h6.14v.78h-11.9Zm18-32.28-6.09,16.12h12.18Z"/><path class="cls-3" d="M426,658.05h6.15V620.18H426v-.77h10.41c.52,0,1,0,1.55,0l1.55-.08c.52,0,1,0,1.52,0s1,0,1.53,0a21.66,21.66,0,0,1,5.84.75,15.08,15.08,0,0,1,4.65,2.13,10.3,10.3,0,0,1,3.07,3.32,8.53,8.53,0,0,1,1.11,4.32,7.88,7.88,0,0,1-1.28,4.43,11,11,0,0,1-3.37,3.27,17.41,17.41,0,0,1-4.9,2,23.36,23.36,0,0,1-5.84.72,19,19,0,0,1-2-.14c-.81-.09-1.53-.2-2.16-.31v18.27h6.15v.78H426Zm11.68-19a20.74,20.74,0,0,0,2.33.33c.81.07,1.53.11,2.16.11a8.39,8.39,0,0,0,6.39-2.41c1.54-1.6,2.3-4,2.3-7.28a17,17,0,0,0-.55-4.71,6.59,6.59,0,0,0-1.75-3,6.4,6.4,0,0,0-3.1-1.58,20.13,20.13,0,0,0-4.56-.44c-.71,0-1.34,0-1.91.05l-1.31.11Z"/><path class="cls-3" d="M461.85,658.05H468V620.18h-6.14v-.77h10.41l1.55,0,1.55-.08c.52,0,1,0,1.52,0s1,0,1.52,0a21.61,21.61,0,0,1,5.84.75,15.24,15.24,0,0,1,4.66,2.13,10.3,10.3,0,0,1,3.07,3.32,8.53,8.53,0,0,1,1.11,4.32,7.88,7.88,0,0,1-1.28,4.43,11,11,0,0,1-3.38,3.27,17.16,17.16,0,0,1-4.9,2,23.3,23.3,0,0,1-5.84.72,19.06,19.06,0,0,1-2-.14c-.81-.09-1.53-.2-2.16-.31v18.27h6.15v.78H461.85Zm11.68-19a20.42,20.42,0,0,0,2.33.33c.81.07,1.53.11,2.16.11a8.39,8.39,0,0,0,6.39-2.41q2.29-2.4,2.3-7.28a17,17,0,0,0-.56-4.71,6.58,6.58,0,0,0-1.74-3,6.44,6.44,0,0,0-3.1-1.58,20.22,20.22,0,0,0-4.57-.44c-.7,0-1.34,0-1.91.05l-1.3.11Z"/><path class="cls-3" d="M507.3,658.05h6.15V642.16l-12.46-22h-5v-.77H512.9v.77h-5.54l11.07,19.49,10.47-19.49h-5.59v-.77h11.84v.77h-5.37L519,640.39v17.66h6.14v.78H507.3Z"/><path class="cls-3" d="M556.14,658.05h6.15V642.16l-12.46-22h-5v-.77h16.94v.77h-5.54l11.08,19.49,10.46-19.49h-5.59v-.77H584v.77h-5.37l-10.8,20.21v17.66H574v.78H556.14Z"/><path class="cls-3" d="M579.67,658.05h4.87l15-39.64h1.33l15.06,39.64h4.93v.78H603.75v-.78h6.15l-5.81-15.39H591.24l-5.81,15.39h6.14v.78h-11.9Zm18-32.28-6.1,16.12h12.18Z"/><path class="cls-3" d="M622.41,658.05h6.15V620.18h-6.15v-.77h17.83v.77H634.1v37.87H644a9.79,9.79,0,0,0,7.64-3,18.5,18.5,0,0,0,4-8.31h.61v12.13H622.41Z"/><path class="cls-3" d="M660.34,658.05h6.15V620.18h-6.15v-.77h10.3l1.55,0,1.55-.08,1.55,0c.52,0,1,0,1.55,0,1.11,0,2.09,0,3,.06s1.68.1,2.44.19a18,18,0,0,1,2.16.39c.68.16,1.41.38,2.18.63a19.92,19.92,0,0,1,5.84,3,16.45,16.45,0,0,1,4.05,4.29,18.05,18.05,0,0,1,2.32,5.31,23.86,23.86,0,0,1,.75,6,22.53,22.53,0,0,1-.89,6.56,18.55,18.55,0,0,1-2.43,5.15,17.62,17.62,0,0,1-3.63,3.87,18.82,18.82,0,0,1-4.46,2.63,16.36,16.36,0,0,1-2.51.94,16.76,16.76,0,0,1-2.44.5,27.18,27.18,0,0,1-2.74.22c-1,0-2.14.06-3.44.06l-1.77,0c-.62,0-1.25,0-1.88-.08s-1.24-.07-1.85-.08l-1.75,0h-9.41Zm11.68,0c.63.08,1.36.13,2.19.17s1.74,0,2.74,0a35.89,35.89,0,0,0,3.74-.19,14.05,14.05,0,0,0,3.54-.83,11.08,11.08,0,0,0,3.16-1.83A11.93,11.93,0,0,0,690,652.3a20.9,20.9,0,0,0,2.46-6.12,31.83,31.83,0,0,0,.69-6.84,34.79,34.79,0,0,0-.83-8,15.76,15.76,0,0,0-2.74-6.09,12.47,12.47,0,0,0-5.06-3.9,19.53,19.53,0,0,0-7.81-1.38c-.92,0-1.76,0-2.52.05l-2.19.11Z"/><path class="cls-3" d="M700.7,658.05h4.88l14.94-39.64h1.33l15.06,39.64h4.93v.78H724.79v-.78h6.14l-5.81-15.39H712.27l-5.81,15.39h6.15v.78H700.7Zm18-32.28-6.09,16.12h12.18Z"/><path class="cls-4" d="M469.86,724.69c4.58,0,7.86-.33,9.82-1s3-1.78,3-3.32q0-4.32-6.64-10.41l-.61.92a19.13,19.13,0,0,1-1.37-1.43c-.46-.55-.88-1.09-1.24-1.62s-.67-1-.92-1.37a2.05,2.05,0,0,1-.36-.76,8.39,8.39,0,0,1,.18-1.43c.12-.63.26-1.27.43-1.92s.33-1.23.51-1.76a6.12,6.12,0,0,1,.4-1q4.5-1.89,10.29-3.93t12.6-4.29c-.09.45-.21,1.08-.37,1.92a19.6,19.6,0,0,1-.73,2.64l-4.6,1.53c-1.8.6-3.65,1.24-5.53,1.91l-5.48,2q-2.65.95-4.48,1.67c2.2,2.16,4,4,5.3,5.48a27.52,27.52,0,0,1,3.1,4.08,13,13,0,0,1,1.5,3.41,13.92,13.92,0,0,1,.39,3.35,11.06,11.06,0,0,1-.79,4.32,7.37,7.37,0,0,1-2.56,3.16,12.92,12.92,0,0,1-4.68,1.95,32.61,32.61,0,0,1-7.19.67H461a26.23,26.23,0,0,1-5.27-.49,12.91,12.91,0,0,1-4.13-1.52,7.75,7.75,0,0,1-2.71-2.62,7,7,0,0,1-1-3.77,11.75,11.75,0,0,1,.28-2.34,13.38,13.38,0,0,1,.73-2.44,10.08,10.08,0,0,1,1-1.92c.37-.52.73-.79,1.1-.79a.45.45,0,0,1,.42.19.66.66,0,0,1,.13.36,1.56,1.56,0,0,1-.07.34,2,2,0,0,1-.12.33,12.73,12.73,0,0,0-.76,2,8.55,8.55,0,0,0-.27,2.22,3.83,3.83,0,0,0,.91,2.59,6.72,6.72,0,0,0,2.56,1.76,14.82,14.82,0,0,0,3.92,1,38.72,38.72,0,0,0,5,.3Z"/><path class="cls-4" d="M482.76,743.32c-.73-.12-1.1-.27-1.1-.43s.14-.31.43-.46a4.16,4.16,0,0,1,1-.33,17.45,17.45,0,0,0,4.84-1.89,26.39,26.39,0,0,0,4.66-3.28,20.12,20.12,0,0,0,3.53-4,7.72,7.72,0,0,0,1.4-4.17q0-2.57-4.32-6.7l1.88-3.83c.25-.37.39-.57.43-.61l.49.55a10,10,0,0,1,1.21,1.55,16.2,16.2,0,0,1,1.25,2.28,18.74,18.74,0,0,1,1,2.83,12,12,0,0,1,.43,3.26,16.42,16.42,0,0,1-.91,5.14,27.29,27.29,0,0,1-2.29,5.15,17.31,17.31,0,0,1-3,3.92,4.53,4.53,0,0,1-3,1.55q-2,0-4-.09A38.86,38.86,0,0,1,482.76,743.32Z"/><path class="cls-4" d="M514.41,729.14a9.29,9.29,0,0,1-3.35-.55,5.11,5.11,0,0,1-2.31-1.8,8.63,8.63,0,0,1-1.37-3.28,23.12,23.12,0,0,1-.46-5V709.9c0-1.82-.08-4-.24-6.66s-.41-5.71-.73-9.28l2.49-2.62c.25-.25.43-.37.55-.37s.37.54.52,1.62.26,2.43.36,4.07.17,3.43.21,5.36.07,3.74.07,5.45V719.4c0,3.32,1.64,5,4.93,5h1.21v4.75Z"/><path class="cls-4" d="M532.36,729.14a8,8,0,0,1-4.14-1,6.3,6.3,0,0,1-2.49-2.74,7.48,7.48,0,0,1-3.08,2.77,8,8,0,0,1-3.5.95h-2.86a5,5,0,0,1-1.21-.13c-.37-.08-.55-.2-.55-.36v-3.78c0-.16.18-.28.55-.36a5.64,5.64,0,0,1,1.21-.12h2.86a5.73,5.73,0,0,0,4-1.25,5.5,5.5,0,0,0,1.68-3.38c.12-1.22.42-1.82.91-1.82s.67.63.79,1.88A5.29,5.29,0,0,0,528,723.2c.83.79,2.28,1.19,4.35,1.19h2.86v4.75Zm-3.28,9-3.23,3.35-3.41-3.41,3.29-3.28Z"/><path class="cls-4" d="M533.46,724.87q0-.24.54-.36a5.8,5.8,0,0,1,1.22-.12h2.07a5.39,5.39,0,0,0,2.38-.7,7.67,7.67,0,0,0,2.43-2.1,13.46,13.46,0,0,0,1.1-1.89,18.94,18.94,0,0,1,1.64-2.68,13.16,13.16,0,0,1,2.22-2.37,4.3,4.3,0,0,1,2.83-1,4.51,4.51,0,0,1,2.53.8,7.6,7.6,0,0,1,2,2,10.3,10.3,0,0,1,1.33,2.77,10.1,10.1,0,0,1,.49,3.08,10.47,10.47,0,0,1-.3,2.46,10.83,10.83,0,0,1-.82,2.25,5.78,5.78,0,0,1-1.25,1.65,2.48,2.48,0,0,1-1.65.64q-3.22,0-9.19-4.14a27.32,27.32,0,0,1-2,2.19,9.56,9.56,0,0,1-1.49,1.22,3.33,3.33,0,0,1-1.37.51,13,13,0,0,1-1.67.1h-1.34A5.19,5.19,0,0,1,534,729q-.54-.12-.54-.36Zm20.39-.91a5.69,5.69,0,0,0-.43-2,8.84,8.84,0,0,0-1.09-2,7.46,7.46,0,0,0-1.5-1.52,2.73,2.73,0,0,0-1.61-.61q-1.89,0-4.32,3.66a6.61,6.61,0,0,0,1.46,1.15,21.2,21.2,0,0,0,2.13,1.16,18.42,18.42,0,0,0,2.31.91,6.77,6.77,0,0,0,2.07.37C553.44,725.06,553.76,724.69,553.85,724Z"/><path class="cls-4" d="M573.93,724a9.57,9.57,0,0,1-.21,1.89,15.69,15.69,0,0,1-.52,1.92,12.61,12.61,0,0,1-.61,1.49c-.2.4-.38.61-.55.61a18.34,18.34,0,0,1-.21-2.41q-.15-2.4-.45-7t-.83-11.29q-.51-6.69-1.24-15.34l3.34-3.16c.33-.33.53-.49.61-.49s.22.9.31,2.68.15,4.22.21,7.3.1,6.67.12,10.75S573.93,719.4,573.93,724Z"/><path class="cls-4" d="M604.55,729.14c-2.36,0-4.41-1.59-6.15-4.75a15.81,15.81,0,0,1-1.74,2.19,6.79,6.79,0,0,1-2,1.46,10.73,10.73,0,0,1-2.7.82,22.26,22.26,0,0,1-3.75.28q-4.68,0-6.6-1.47a5.42,5.42,0,0,1-1.92-4.62,10.23,10.23,0,0,1,.15-1.77,9.43,9.43,0,0,1,.43-1.55,4.47,4.47,0,0,1,.61-1.12.87.87,0,0,1,.64-.43c.24,0,.36.22.36.67a4.16,4.16,0,0,1-.06.67,6.24,6.24,0,0,0-.06,1,3.2,3.2,0,0,0,1.52,3,10.75,10.75,0,0,0,4.93.85q8.72,0,8.71-3.17,0-1.58-5-13.33l1.82-3.1c.2-.37.39-.55.55-.55s.25.1.39.31a11.22,11.22,0,0,1,.8,1.79q.57,1.5,1.67,4.57t3.1,8.55a9.7,9.7,0,0,0,2.19,3.71,3.79,3.79,0,0,0,2.56,1.22h1.16v4.75Z"/><path class="cls-4" d="M620.25,729.14q-5.12,0-7.3-3.9a3.65,3.65,0,0,1-.79,1.43,6.93,6.93,0,0,1-1.47,1.25,8.11,8.11,0,0,1-1.88.88,6.62,6.62,0,0,1-2,.34h-.73a5.13,5.13,0,0,1-1.22-.13c-.36-.08-.55-.2-.55-.36v-3.78c0-.16.19-.28.55-.36a5.73,5.73,0,0,1,1.22-.12h.79q5.05,0,5-4.26V706.07q0-8.1-.36-12.24l3.53-3v27.39q0,6.15,5.23,6.15h1.1v4.75Z"/><path class="cls-4" d="M623.05,738l-3.1,3.17L616.84,738,620,734.8Zm-3.41-13.15c0-.16.18-.28.55-.36a5.67,5.67,0,0,1,1.22-.12h2.92q6.07,0,6.08-2.13c0-1-.91-2.72-2.73-5.12l1.64-4c.12-.37.26-.55.43-.55s.38.22.66.67A13.6,13.6,0,0,1,633,721q0,8.16-8,8.16h-3.59a5.07,5.07,0,0,1-1.22-.13c-.37-.08-.55-.2-.55-.36ZM630.11,738,627,741.19,623.84,738,627,734.8Z"/><line class="cls-5" x1="540" y1="456.98" x2="540" y2="556.91"/><line class="cls-5" x1="540" y1="775.01" x2="540" y2="874.94"/></g></svg>