<svg xmlns="http://www.w3.org/2000/svg" xmlns:xlink="http://www.w3.org/1999/xlink" viewBox="0 0 1920 1080"><defs><style>.cls-1,.cls-10,.cls-11,.cls-12,.cls-13,.cls-14,.cls-15,.cls-16,.cls-17,.cls-18,.cls-19,.cls-20,.cls-21,.cls-5,.cls-6,.cls-7,.cls-8,.cls-9{fill:none;}.cls-2{fill:#1e1f20;}.cls-3{clip-path:url(#clip-path);}.cls-4{clip-path:url(#clip-path-2);}.cls-5{stroke:#969b9c;stroke-width:0.95px;stroke-dasharray:9.55 4.78;}.cls-10,.cls-11,.cls-12,.cls-13,.cls-14,.cls-15,.cls-16,.cls-17,.cls-18,.cls-19,.cls-20,.cls-21,.cls-5,.cls-6,.cls-7,.cls-8,.cls-9{stroke-miterlimit:10;}.cls-6{stroke:url(#linear-gradient);}.cls-7{stroke:url(#linear-gradient-2);}.cls-8{stroke:url(#linear-gradient-3);}.cls-9{stroke:url(#linear-gradient-4);}.cls-10{stroke:url(#linear-gradient-5);}.cls-11{stroke:url(#linear-gradient-6);}.cls-12{stroke:url(#linear-gradient-7);}.cls-13{stroke:url(#linear-gradient-8);}.cls-14{stroke:url(#linear-gradient-9);}.cls-15{stroke:url(#linear-gradient-10);}.cls-16{stroke:url(#linear-gradient-11);}.cls-17{stroke:url(#linear-gradient-12);}.cls-18{stroke:url(#linear-gradient-13);}.cls-19{stroke:url(#linear-gradient-14);}.cls-20{stroke:url(#linear-gradient-15);}.cls-21{stroke:url(#linear-gradient-16);}</style><clipPath id="clip-path"><path d="M889.17,355.08a165.59,165.59,0,0,1,118.35-158.7,165.54,165.54,0,1,0,0,317.39A165.59,165.59,0,0,1,889.17,355.08Z"/></clipPath><clipPath id="clip-path-2"><ellipse class="cls-1" cx="1007.52" cy="355.08" rx="118.35" ry="158.7"/></clipPath><linearGradient id="linear-gradient" x1="845.77" y1="753.06" x2="1500.35" y2="753.06" gradientUnits="userSpaceOnUse"><stop offset="0" stop-color="#fff" stop-opacity="0"/><stop offset="0.51" stop-color="#969b9c"/><stop offset="1" stop-color="#fff" stop-opacity="0"/></linearGradient><linearGradient id="linear-gradient-2" x1="419.65" y1="752.68" x2="1075" y2="752.68" xlink:href="#linear-gradient"/><linearGradient id="linear-gradient-3" x1="419.65" y1="644.87" x2="1290.62" y2="644.87" xlink:href="#linear-gradient"/><linearGradient id="linear-gradient-4" x1="629.43" y1="644.89" x2="1500.35" y2="644.89" xlink:href="#linear-gradient"/><linearGradient id="linear-gradient-5" x1="629.72" y1="587.06" x2="1089.04" y2="587.06" gradientTransform="translate(2064.79 563.16) rotate(135)" gradientUnits="userSpaceOnUse"><stop offset="0" stop-color="#fff" stop-opacity="0"/><stop offset="1" stop-color="#969b9c"/><stop offset="1" stop-color="#fff" stop-opacity="0"/></linearGradient><linearGradient id="linear-gradient-6" x1="572.96" y1="530.3" x2="1032.28" y2="530.3" xlink:href="#linear-gradient-5"/><linearGradient id="linear-gradient-7" x1="338.09" y1="151.71" x2="1102.96" y2="151.71" gradientTransform="translate(1089.42 137.45) rotate(135)" xlink:href="#linear-gradient"/><linearGradient id="linear-gradient-8" x1="399.85" y1="-382.46" x2="543.81" y2="-382.46" gradientTransform="translate(963.03 1196.58) rotate(-45)" xlink:href="#linear-gradient"/><linearGradient id="linear-gradient-9" x1="306.67" y1="-475.63" x2="450.63" y2="-475.63" gradientTransform="translate(963.03 1196.58) rotate(-45)" xlink:href="#linear-gradient"/><linearGradient id="linear-gradient-10" x1="60.2" y1="-743.88" x2="413.27" y2="-743.88" gradientTransform="translate(1089.42 137.45) rotate(135)" xlink:href="#linear-gradient-5"/><linearGradient id="linear-gradient-11" x1="224.76" y1="-579.31" x2="577.84" y2="-579.31" gradientTransform="translate(1089.42 137.45) rotate(135)" xlink:href="#linear-gradient-5"/><linearGradient id="linear-gradient-12" x1="585.8" y1="-218.28" x2="938.87" y2="-218.28" gradientTransform="translate(1089.42 137.45) rotate(135)" xlink:href="#linear-gradient-5"/><linearGradient id="linear-gradient-13" x1="-113.76" y1="-451.25" x2="1.95" y2="-451.25" gradientTransform="translate(1806.63 360.87) rotate(-45)" xlink:href="#linear-gradient-5"/><linearGradient id="linear-gradient-14" x1="-416.92" y1="-754.41" x2="-301.21" y2="-754.41" gradientTransform="translate(1806.63 360.87) rotate(-45)" xlink:href="#linear-gradient-5"/><linearGradient id="linear-gradient-15" x1="801.98" y1="759.31" x2="1261.29" y2="759.31" xlink:href="#linear-gradient-5"/><linearGradient id="linear-gradient-16" x1="745.22" y1="702.55" x2="1204.53" y2="702.55" xlink:href="#linear-gradient-5"/></defs><g id="Graphics"><g id="Isolation_Mode" data-name="Isolation Mode"><rect class="cls-2" y="-0.68" width="1920.68" height="1080.68"/></g><path d="M1020.07,0V61.81a58.62,58.62,0,0,0,43.6,56.67v43.85A58,58,0,0,0,1109,218.9v4.66a60.65,60.65,0,0,0,60.65,60.66H1193a41,41,0,0,1,41,41.06,41.05,41.05,0,0,1,41-41.06h23.39a60.65,60.65,0,0,0,60.65-60.66V218.9a58,58,0,0,0,45.29-56.57V118.48A58.62,58.62,0,0,0,1448,61.81V0"/><path d="M1448,1080V720.08a58.62,58.62,0,0,0-43.6-56.66V619.57A58,58,0,0,0,1359.13,563v-4.67a60.64,60.64,0,0,0-60.65-60.65h-23.39a41.07,41.07,0,0,1-41-41.06,41.06,41.06,0,0,1-41,41.06h-23.39A60.64,60.64,0,0,0,1109,558.33V563a58,58,0,0,0-45.29,56.57v43.85a58.62,58.62,0,0,0-43.6,56.66V1080"/><rect class="cls-1" x="420" y="-0.68" width="1080.68" height="1080.68"/><path d="M857,242.36V198.51a58,58,0,0,0-45.29-56.57v-4.67a60.64,60.64,0,0,0-60.65-60.65H727.68a41.07,41.07,0,0,1-41-41.06,41.06,41.06,0,0,1-41,41.06H622.2a60.64,60.64,0,0,0-60.65,60.65v4.67a58,58,0,0,0-45.29,56.57v43.85A58.62,58.62,0,0,0,472.66,299V780.3A58.61,58.61,0,0,0,516.26,837v43.85a58,58,0,0,0,45.29,56.57v4.67a60.64,60.64,0,0,0,60.65,60.65h23.39a41.06,41.06,0,0,1,41,41.06,41.07,41.07,0,0,1,41-41.06h23.39a60.64,60.64,0,0,0,60.65-60.65v-4.67A58,58,0,0,0,857,880.81V837a58.62,58.62,0,0,0,43.6-56.66V299A58.63,58.63,0,0,0,857,242.36Z"/><rect class="cls-2" x="878.68" y="649.31" width="163.33" height="430.69"/><polygon class="cls-2" points="960.34 848.04 860.97 848.04 860.97 649.31 962.24 750.58 960.34 848.04"/><polygon class="cls-2" points="1042 667.01 878.68 830.34 878.68 1080 1042 1080 1042 667.01"/><path class="cls-2" d="M960.34,701.11A117.17,117.17,0,0,0,1026.22,681V508H894.45V681A117.22,117.22,0,0,0,960.34,701.11Z"/><path class="cls-2" d="M960.34,701.11a122.23,122.23,0,0,0,106.5-62.18c-32.41-18.27-68.48-28.47-106.5-28.47s-74.09,10.2-106.5,28.47A122.23,122.23,0,0,0,960.34,701.11Z"/><rect x="941.95" y="67.07" width="36.78" height="229.63"/><ellipse cx="960.34" cy="67.07" rx="18.39" ry="4.85"/><path d="M913.52,196.28A39,39,0,0,0,942,158.73l18.39,30.81-38.56,17.23Z"/><path d="M1007.16,196.28a39,39,0,0,1-28.43-37.55l-18.39,30.81,38.57,17.23Z"/><path d="M889.17,355.08a165.59,165.59,0,0,1,118.35-158.7,165.54,165.54,0,1,0,0,317.39A165.59,165.59,0,0,1,889.17,355.08Z"/><g class="cls-3"><ellipse class="cls-2" cx="918.84" cy="311.62" rx="164.44" ry="122.63" transform="translate(6.24 641.07) rotate(-38.58)"/><ellipse cx="950.03" cy="318.28" rx="164.44" ry="122.63" transform="translate(111.11 866.07) rotate(-51.67)"/><ellipse class="cls-2" cx="981.92" cy="317.71" rx="164.44" ry="122.63" transform="translate(275.66 1070.24) rotate(-64.75)"/><ellipse cx="1012.86" cy="309.93" rx="164.44" ry="122.63" transform="translate(496.32 1234.66) rotate(-77.83)"/><ellipse class="cls-2" cx="1041.23" cy="295.36" rx="122.63" ry="164.44" transform="translate(-4.55 16.54) rotate(-0.91)"/><ellipse class="cls-2" cx="1065.57" cy="274.74" rx="122.63" ry="164.44" transform="translate(-34.81 265.73) rotate(-13.99)"/></g><ellipse cx="1007.52" cy="355.08" rx="118.35" ry="158.7"/><g class="cls-4"><ellipse class="cls-2" cx="1031.32" cy="374.6" rx="158.7" ry="118.35" transform="translate(433.02 1294.37) rotate(-76.92)"/><ellipse cx="1050.08" cy="399" rx="158.7" ry="118.35" transform="translate(228.96 1165.58) rotate(-63.84)"/><ellipse class="cls-2" cx="1062.83" cy="427.02" rx="158.7" ry="118.35" transform="translate(59.76 980.02) rotate(-50.76)"/><ellipse cx="1068.92" cy="457.2" rx="158.7" ry="118.35" transform="translate(-56.55 748.65) rotate(-37.68)"/><ellipse class="cls-2" cx="1068.01" cy="487.97" rx="158.7" ry="118.35" transform="translate(-106.19 488.78) rotate(-24.6)"/><ellipse cx="1060.16" cy="517.73" rx="158.7" ry="118.35" transform="translate(-82.01 222.04) rotate(-11.51)"/></g><path class="cls-2" d="M705.39,922.78V1080H878.68V626.82C777.92,668.53,705.39,785.28,705.39,922.78Z"/><ellipse class="cls-2" cx="960.34" cy="448.64" rx="114.06" ry="133.04"/><ellipse class="cls-5" cx="960.34" cy="448.64" rx="114.06" ry="133.04"/><path class="cls-2" d="M1215.29,922.78V1080H1042V626.82C1142.75,668.53,1215.29,785.28,1215.29,922.78Z"/><rect x="819.81" y="739.47" width="281.05" height="18.42" transform="translate(-248.11 898.39) rotate(-45)"/><rect x="902.4" y="628.34" width="18.42" height="143.21" transform="translate(-227.93 849.61) rotate(-45)"/><path d="M1173.93,752.19c-31-58.08-77.3-102.75-131.93-125.37V1080h79.79V804.33Z"/><path d="M746.75,752.19l52.14,52.14V1080h79.79V853.12h0V626.82C824.05,649.44,777.72,694.11,746.75,752.19Z"/><circle class="cls-5" cx="751.89" cy="137.27" r="60.65"/><circle class="cls-5" cx="1054.28" cy="355.08" r="165.11"/><circle class="cls-5" cx="960" cy="355.08" r="165.11"/><path class="cls-5" d="M1215.29,923.45C1215.29,750,1101,609.37,960,609.37S704.71,750,704.71,923.45"/><circle class="cls-5" cx="800" cy="198.51" r="57.95"/><circle class="cls-5" cx="530.61" cy="298.52" r="57.95"/><circle class="cls-5" cx="575.05" cy="198.51" r="57.95"/><circle class="cls-5" cx="623.15" cy="137.27" r="60.65"/><circle class="cls-5" cx="1390.07" cy="720.44" r="57.95"/><circle class="cls-5" cx="1346.58" cy="619.57" r="57.95"/><circle class="cls-5" cx="1122.27" cy="619.57" r="57.95"/><circle class="cls-5" cx="1298.48" cy="558.33" r="60.65"/><circle class="cls-5" cx="1019.28" cy="157.96" r="40.55"/><circle class="cls-5" cx="901.4" cy="157.96" r="40.55"/><circle class="cls-5" cx="1169.19" cy="558.33" r="60.65"/><circle class="cls-5" cx="530.61" cy="780.8" r="57.95"/><circle class="cls-5" cx="575.05" cy="880.81" r="57.95"/><circle class="cls-5" cx="623.15" cy="942.05" r="60.65"/><line class="cls-6" x1="846.12" y1="1080" x2="1500" y2="426.12"/><line class="cls-7" x1="420" y1="425.35" x2="1074.65" y2="1080"/><line class="cls-8" x1="420" y1="209.74" x2="1290.26" y2="1080"/><line class="cls-9" x1="1500" y1="209.78" x2="629.78" y2="1080"/><line class="cls-10" x1="1042" y1="1080" x2="1042" y2="431.44"/><line class="cls-11" x1="1122.27" y1="1080" x2="1122.27" y2="431.44"/><line class="cls-12" x1="472.66" y1="1080" x2="472.66" y2="-0.68"/><line class="cls-13" x1="1026.22" y1="491.21" x2="1026.22" y2="693.8"/><line class="cls-14" x1="894.45" y1="491.21" x2="894.45" y2="693.8"/><line class="cls-15" x1="1448.02" y1="1080" x2="1448.02" y2="581.68"/><line class="cls-16" x1="1215.29" y1="1080" x2="1215.29" y2="581.68"/><line class="cls-17" x1="704.71" y1="1080" x2="704.71" y2="581.68"/><line class="cls-18" x1="1448.02" x2="1448.02" y2="162.64"/><line class="cls-19" x1="1019.28" x2="1019.28" y2="162.64"/><line class="cls-20" x1="798.4" y1="1080" x2="798.4" y2="431.44"/><line class="cls-21" x1="878.68" y1="1080" x2="878.68" y2="431.44"/></g></svg>