<svg xmlns="http://www.w3.org/2000/svg" xmlns:xlink="http://www.w3.org/1999/xlink" viewBox="0 0 1079.33 1080"><defs><style>.cls-1{fill:#fff;}.cls-2{fill:#e0c4a3;}.cls-3{fill:#afb6b6;}.cls-10,.cls-11,.cls-12,.cls-13,.cls-14,.cls-4,.cls-6,.cls-8,.cls-9{fill:none;stroke-miterlimit:10;}.cls-11,.cls-4{stroke:#b43f18;stroke-width:12.72px;}.cls-5{fill:#b6b6b6;}.cls-10,.cls-13,.cls-6,.cls-9{stroke:#000;}.cls-10,.cls-6{stroke-width:7.95px;}.cls-7{clip-path:url(#clip-path);}.cls-8{stroke:#828282;stroke-width:3.79px;}.cls-9{stroke-width:9.26px;}.cls-10,.cls-11{stroke-linecap:round;}.cls-12{stroke:#b6b6b6;stroke-width:8.34px;}.cls-13{stroke-width:7.15px;}.cls-14{stroke:#fff;stroke-width:1.59px;}.cls-15{fill:#06676b;}.cls-16{fill:#404545;}.cls-17{fill:#e67070;}.cls-18{fill:#91d7f3;}</style><clipPath id="clip-path"><path class="cls-1" d="M610.66,164.43a68.43,68.43,0,1,0-136,10.8l19.55,247.9h95.19l20.34-247.46A68.29,68.29,0,0,0,610.66,164.43Z"/></clipPath></defs><g id="Graphics"><rect class="cls-2" width="1080" height="1080"/><polygon points="733.67 319.32 689.83 259.35 645.99 319.32 645.99 319.32 645.99 501.85 733.68 501.85 733.68 319.32 733.67 319.32"/><polygon points="438.47 319.32 394.63 259.35 350.78 319.32 350.78 319.32 350.78 501.85 438.47 501.85 438.47 319.32 438.47 319.32"/><path class="cls-3" d="M191.45,484.11l131.72,70.44h0a90.71,90.71,0,1,1-131.72,80.91v-.17h0Z"/><path d="M221.74,534.12l90.61,48.46h0a62.4,62.4,0,1,1-90.61,55.66v-.11h0Z"/><circle class="cls-4" cx="853.48" cy="731.39" r="41.55"/><path class="cls-3" d="M892.18,484.11,760.46,554.55h0a90.71,90.71,0,1,0,131.72,80.91v-.17h0Z"/><path d="M861.89,534.12l-90.61,48.46h0a62.4,62.4,0,1,0,90.61,55.66v-.11h0Z"/><rect class="cls-5" x="456.64" y="732.63" width="155.34" height="109.41" rx="54.71"/><path class="cls-5" d="M862.2,508.2a3.58,3.58,0,0,1-3.58-3.58V463.29a3.58,3.58,0,0,1,7.16,0v41.33A3.58,3.58,0,0,1,862.2,508.2Z"/><path class="cls-5" d="M875.4,501.14a3.57,3.57,0,0,1-3.57-3.57V456.24a3.58,3.58,0,1,1,7.15,0v41.33A3.57,3.57,0,0,1,875.4,501.14Z"/><path class="cls-5" d="M888.61,494.09a3.58,3.58,0,0,1-3.58-3.58V449.18a3.58,3.58,0,0,1,7.15,0v41.33A3.57,3.57,0,0,1,888.61,494.09Z"/><path class="cls-5" d="M221.43,508.2a3.58,3.58,0,0,1-3.58-3.58V463.29a3.58,3.58,0,0,1,7.16,0v41.33A3.58,3.58,0,0,1,221.43,508.2Z"/><path class="cls-5" d="M208.23,501.14a3.57,3.57,0,0,1-3.58-3.57V456.24a3.58,3.58,0,1,1,7.15,0v41.33A3.57,3.57,0,0,1,208.23,501.14Z"/><path class="cls-5" d="M195,494.09a3.57,3.57,0,0,1-3.57-3.58V449.18a3.58,3.58,0,0,1,7.15,0v41.33A3.58,3.58,0,0,1,195,494.09Z"/><path class="cls-1" d="M435.73,871.56V984c-26.47-.28-47.85-25.33-47.85-56.22S409.26,871.84,435.73,871.56Z"/><path class="cls-1" d="M648.73,871.56V984c26.46-.28,47.84-25.33,47.84-56.22S675.19,871.84,648.73,871.56Z"/><circle class="cls-3" cx="650.85" cy="600.67" r="146.78"/><circle class="cls-3" cx="433.6" cy="600.67" r="146.78"/><rect class="cls-3" x="286.8" y="599.42" width="510.86" height="211.11"/><circle cx="542.23" cy="504.62" r="32.91"/><line class="cls-6" x1="542.23" y1="504.62" x2="542.23" y2="418.12"/><circle class="cls-4" cx="542.23" cy="504.62" r="20.51"/><path class="cls-1" d="M610.66,164.43a68.43,68.43,0,1,0-136,10.8l19.55,247.9h95.19l20.34-247.46A68.29,68.29,0,0,0,610.66,164.43Z"/><g class="cls-7"><line class="cls-8" x1="542.23" y1="96" x2="542.23" y2="423.13"/><line class="cls-8" x1="630.18" y1="45" x2="542.23" y2="132.95"/><line class="cls-8" x1="630.18" y1="79.83" x2="542.23" y2="167.78"/><line class="cls-8" x1="630.18" y1="114.65" x2="542.23" y2="202.6"/><line class="cls-8" x1="630.18" y1="149.48" x2="542.23" y2="237.43"/><line class="cls-8" x1="630.18" y1="184.3" x2="542.23" y2="272.26"/><line class="cls-8" x1="630.18" y1="219.13" x2="542.23" y2="307.08"/><line class="cls-8" x1="630.18" y1="253.95" x2="542.23" y2="341.91"/><line class="cls-8" x1="630.18" y1="288.78" x2="542.23" y2="376.73"/><line class="cls-8" x1="630.18" y1="323.6" x2="542.23" y2="411.56"/><line class="cls-8" x1="454.62" y1="45" x2="542.57" y2="132.95"/><line class="cls-8" x1="454.62" y1="79.83" x2="542.57" y2="167.78"/><line class="cls-8" x1="454.62" y1="114.65" x2="542.57" y2="202.6"/><line class="cls-8" x1="454.62" y1="149.48" x2="542.57" y2="237.43"/><line class="cls-8" x1="454.62" y1="184.3" x2="542.57" y2="272.26"/><line class="cls-8" x1="454.62" y1="219.13" x2="542.57" y2="307.08"/><line class="cls-8" x1="454.62" y1="253.95" x2="542.57" y2="341.91"/><line class="cls-8" x1="454.62" y1="288.78" x2="542.57" y2="376.73"/><line class="cls-8" x1="454.62" y1="323.6" x2="542.57" y2="411.56"/></g><line class="cls-9" x1="602.61" y1="423.2" x2="481.85" y2="423.2"/><circle class="cls-3" cx="435.73" cy="835.35" r="106.52"/><circle class="cls-3" cx="648.73" cy="835.35" r="106.52"/><rect class="cls-5" x="343.3" y="792.56" width="387.42" height="62.54"/><line class="cls-10" x1="886.58" y1="839.48" x2="584.05" y2="839.48"/><line class="cls-10" x1="886.58" y1="862.63" x2="584.05" y2="862.63"/><line class="cls-10" x1="886.58" y1="885.78" x2="584.05" y2="885.78"/><line class="cls-10" x1="499.65" y1="839.48" x2="197.12" y2="839.48"/><line class="cls-10" x1="499.65" y1="862.63" x2="197.12" y2="862.63"/><line class="cls-10" x1="499.65" y1="885.78" x2="197.12" y2="885.78"/><path class="cls-11" d="M817.63,710.37a41.28,41.28,0,0,0-5.58,24.19"/><rect class="cls-3" x="329.2" y="803.96" width="7.5" height="31.38"/><rect class="cls-3" x="747.76" y="803.96" width="7.5" height="31.38"/><circle cx="554.86" cy="790.7" r="25.47"/><circle cx="528.77" cy="790.7" r="25.47"/><polyline points="503.49 669.13 503.49 783 541.95 807.15 580.15 783 580.15 669.13"/><polyline class="cls-12" points="486.87 771.96 541.95 807.15 589.81 776"/><path class="cls-13" d="M435.73,945.44A106.52,106.52,0,0,0,542.25,838.92l0-.62V812"/><path class="cls-13" d="M648.73,945.44A106.52,106.52,0,0,1,542.21,838.92l0-.62V812"/><line class="cls-14" x1="721.72" y1="558.48" x2="752.49" y2="527.72"/><line class="cls-14" x1="752.49" y1="558.48" x2="721.72" y2="527.72"/><line class="cls-14" x1="715.35" y1="543.1" x2="758.86" y2="543.1"/><line class="cls-14" x1="737.1" y1="564.85" x2="737.1" y2="521.34"/><line class="cls-14" x1="617.8" y1="524.3" x2="648.57" y2="493.53"/><line class="cls-14" x1="648.57" y1="524.3" x2="617.8" y2="493.53"/><line class="cls-14" x1="611.43" y1="508.91" x2="654.94" y2="508.91"/><line class="cls-14" x1="633.19" y1="530.67" x2="633.19" y2="487.16"/><line class="cls-14" x1="526.4" y1="628.17" x2="557.16" y2="597.41"/><line class="cls-14" x1="557.16" y1="628.17" x2="526.4" y2="597.41"/><line class="cls-14" x1="520.03" y1="612.79" x2="563.53" y2="612.79"/><line class="cls-14" x1="541.78" y1="634.55" x2="541.78" y2="591.04"/><line class="cls-14" x1="379.24" y1="520.21" x2="410.01" y2="489.44"/><line class="cls-14" x1="410.01" y1="520.21" x2="379.24" y2="489.44"/><line class="cls-14" x1="372.87" y1="504.83" x2="416.38" y2="504.83"/><line class="cls-14" x1="394.63" y1="526.58" x2="394.63" y2="483.07"/><line class="cls-14" x1="306.17" y1="734.59" x2="336.93" y2="703.83"/><line class="cls-14" x1="336.93" y1="734.59" x2="306.17" y2="703.83"/><line class="cls-14" x1="299.8" y1="719.21" x2="343.3" y2="719.21"/><line class="cls-14" x1="321.55" y1="740.96" x2="321.55" y2="697.46"/><line class="cls-14" x1="402.73" y1="802.72" x2="433.5" y2="771.96"/><line class="cls-14" x1="433.5" y1="802.72" x2="402.73" y2="771.96"/><line class="cls-14" x1="396.36" y1="787.34" x2="439.87" y2="787.34"/><line class="cls-14" x1="418.11" y1="809.09" x2="418.11" y2="765.59"/><line class="cls-14" x1="728.09" y1="772.82" x2="758.86" y2="742.05"/><line class="cls-14" x1="758.86" y1="772.82" x2="728.09" y2="742.05"/><line class="cls-14" x1="721.72" y1="757.43" x2="765.23" y2="757.43"/><line class="cls-14" x1="743.48" y1="779.19" x2="743.48" y2="735.68"/><polyline class="cls-15" points="695.87 620.91 646.43 560.06 597 620.91"/><polygon class="cls-15" points="646.43 560.06 671.34 560.06 647.4 584 646.43 560.06"/><polygon class="cls-15" points="657.64 573.83 682.55 573.83 658.62 597.77 657.64 573.83"/><polygon class="cls-15" points="668.84 587.68 693.75 587.68 669.81 611.62 668.84 587.68"/><polygon class="cls-15" points="680.05 601.42 704.96 601.42 681.02 625.36 680.05 601.42"/><polygon class="cls-15" points="691.24 615.2 716.15 615.2 692.21 639.14 691.24 615.2"/><circle class="cls-15" cx="646.43" cy="665.1" r="66.29"/><circle class="cls-16" cx="646.43" cy="665.1" r="52.31"/><circle class="cls-1" cx="646.43" cy="665.1" r="43.13"/><circle class="cls-17" cx="646.43" cy="665.1" r="35.78"/><circle cx="646.43" cy="665.1" r="16.44"/><polyline class="cls-15" points="387.76 620.91 437.2 560.06 486.64 620.91"/><polygon class="cls-15" points="437.2 560.06 412.29 560.06 436.23 584 437.2 560.06"/><polygon class="cls-15" points="425.99 573.83 401.08 573.83 425.02 597.77 425.99 573.83"/><polygon class="cls-15" points="414.79 587.68 389.88 587.68 413.82 611.62 414.79 587.68"/><polygon class="cls-15" points="403.58 601.42 378.67 601.42 402.61 625.36 403.58 601.42"/><polygon class="cls-15" points="392.39 615.2 367.48 615.2 391.42 639.14 392.39 615.2"/><circle class="cls-15" cx="437.2" cy="665.1" r="66.29"/><circle class="cls-16" cx="437.2" cy="665.1" r="52.31"/><circle class="cls-1" cx="437.2" cy="665.1" r="43.13"/><circle class="cls-18" cx="437.2" cy="665.1" r="35.78"/><circle cx="437.2" cy="665.1" r="16.44"/></g></svg>