<svg xmlns="http://www.w3.org/2000/svg" xmlns:xlink="http://www.w3.org/1999/xlink" viewBox="0 0 1080 1080"><defs><style>.cls-1,.cls-4{fill:none;}.cls-2{fill:#a58055;}.cls-3{clip-path:url(#clip-path);}.cls-4{stroke:#002d6e;stroke-miterlimit:10;stroke-width:2px;}.cls-5{fill:#012b6d;}.cls-6{fill:#c19a67;}.cls-7{fill:#f5cebc;}.cls-8{fill:#ecb40b;}.cls-9{fill:#fff129;}</style><clipPath id="clip-path"><rect class="cls-1" width="1080" height="1080"/></clipPath></defs><g id="Graphics"><rect class="cls-2" width="1080" height="1080"/><path d="M322.21,1080V524.49a444.35,444.35,0,0,1,332-430.73L672.49,89l18.25,4.78a444.65,444.65,0,0,1,332,430.73V1080Z"/><g class="cls-3"><line class="cls-4" x1="-755.79" y1="175.31" x2="904.69" y2="1835.79"/><line class="cls-4" x1="-671.14" y1="90.66" x2="989.34" y2="1751.14"/><line class="cls-4" x1="-586.5" y1="6.02" x2="1073.98" y2="1666.5"/><line class="cls-4" x1="-501.85" y1="-78.63" x2="1158.63" y2="1581.85"/><line class="cls-4" x1="-417.21" y1="-163.27" x2="1243.27" y2="1497.21"/><line class="cls-4" x1="-332.56" y1="-247.92" x2="1327.92" y2="1412.56"/><line class="cls-4" x1="-247.92" y1="-332.56" x2="1412.56" y2="1327.92"/><line class="cls-4" x1="-163.27" y1="-417.21" x2="1497.21" y2="1243.27"/><line class="cls-4" x1="-78.63" y1="-501.85" x2="1581.85" y2="1158.63"/><line class="cls-4" x1="6.02" y1="-586.5" x2="1666.5" y2="1073.98"/><line class="cls-4" x1="90.66" y1="-671.14" x2="1751.14" y2="989.34"/><line class="cls-4" x1="175.31" y1="-755.79" x2="1835.79" y2="904.69"/><line class="cls-4" x1="175.31" y1="1835.79" x2="1835.79" y2="175.31"/><line class="cls-4" x1="90.66" y1="1751.14" x2="1751.14" y2="90.66"/><line class="cls-4" x1="6.02" y1="1666.5" x2="1666.5" y2="6.02"/><line class="cls-4" x1="-78.63" y1="1581.85" x2="1581.85" y2="-78.63"/><line class="cls-4" x1="-163.27" y1="1497.21" x2="1497.21" y2="-163.27"/><line class="cls-4" x1="-247.92" y1="1412.56" x2="1412.56" y2="-247.92"/><line class="cls-4" x1="-332.56" y1="1327.92" x2="1327.92" y2="-332.56"/><line class="cls-4" x1="-417.21" y1="1243.27" x2="1243.27" y2="-417.21"/><line class="cls-4" x1="-501.85" y1="1158.63" x2="1158.63" y2="-501.85"/><line class="cls-4" x1="-586.5" y1="1073.98" x2="1073.98" y2="-586.5"/><line class="cls-4" x1="-671.14" y1="989.34" x2="989.34" y2="-671.14"/><line class="cls-4" x1="-755.79" y1="904.69" x2="904.69" y2="-755.79"/><rect class="cls-5" x="97.24" y="12.6" width="39.08" height="39.08"/><rect class="cls-5" x="266.54" y="12.6" width="39.08" height="39.08"/><rect class="cls-5" x="266.54" y="181.83" width="39.08" height="39.08"/><rect class="cls-5" x="266.54" y="351.06" width="39.08" height="39.08"/><rect class="cls-5" x="435.85" y="12.6" width="39.08" height="39.08"/><rect class="cls-5" x="435.85" y="181.83" width="39.08" height="39.08"/><rect class="cls-5" x="605.16" y="181.83" width="39.08" height="39.08"/><rect class="cls-5" x="605.16" y="12.6" width="39.08" height="39.08"/><rect class="cls-5" x="774.47" y="12.6" width="39.08" height="39.08"/><rect class="cls-5" x="774.47" y="181.83" width="39.08" height="39.08"/><rect class="cls-5" x="774.47" y="351.06" width="39.08" height="39.08"/><rect class="cls-5" x="943.77" y="12.6" width="39.08" height="39.08"/><rect class="cls-5" x="943.77" y="181.83" width="39.08" height="39.08"/><rect class="cls-5" x="943.77" y="351.06" width="39.08" height="39.08"/><rect class="cls-5" x="943.77" y="520.29" width="39.08" height="39.08"/><rect class="cls-5" x="943.77" y="689.52" width="39.08" height="39.08"/><rect class="cls-5" x="943.77" y="858.75" width="39.08" height="39.08"/><rect class="cls-5" x="943.77" y="1027.98" width="39.08" height="39.08"/><rect class="cls-5" x="181.93" y="97.24" width="39.08" height="39.08"/><rect class="cls-5" x="181.93" y="266.55" width="39.08" height="39.08"/><rect class="cls-5" x="181.93" y="435.86" width="39.08" height="39.08"/><rect class="cls-5" x="181.93" y="605.17" width="39.08" height="39.08"/><rect class="cls-5" x="181.93" y="774.48" width="39.08" height="39.08"/><rect class="cls-5" x="181.93" y="943.79" width="39.08" height="39.08"/><rect class="cls-5" x="12.66" y="97.24" width="39.08" height="39.08"/><rect class="cls-5" x="12.66" y="266.55" width="39.08" height="39.08"/><rect class="cls-5" x="12.66" y="435.86" width="39.08" height="39.08"/><rect class="cls-5" x="12.66" y="605.17" width="39.08" height="39.08"/><rect class="cls-5" x="12.66" y="774.48" width="39.08" height="39.08"/><rect class="cls-5" x="12.66" y="943.79" width="39.08" height="39.08"/><rect class="cls-5" x="351.2" y="97.24" width="39.08" height="39.08"/><rect class="cls-5" x="351.2" y="266.55" width="39.08" height="39.08"/><rect class="cls-5" x="689.74" y="266.55" width="39.08" height="39.08"/><rect class="cls-5" x="689.74" y="97.24" width="39.08" height="39.08"/><rect class="cls-5" x="859.01" y="97.24" width="39.08" height="39.08"/><rect class="cls-5" x="859.01" y="266.55" width="39.08" height="39.08"/><rect class="cls-5" x="859.01" y="435.86" width="39.08" height="39.08"/><rect class="cls-5" x="859.01" y="605.17" width="39.08" height="39.08"/><rect class="cls-5" x="859.01" y="774.48" width="39.08" height="39.08"/><rect class="cls-5" x="859.01" y="943.79" width="39.08" height="39.08"/><rect class="cls-5" x="1028.28" y="97.24" width="39.08" height="39.08"/><rect class="cls-5" x="1028.28" y="266.55" width="39.08" height="39.08"/><rect class="cls-5" x="1028.28" y="435.86" width="39.08" height="39.08"/><rect class="cls-5" x="1028.28" y="605.17" width="39.08" height="39.08"/><rect class="cls-5" x="1028.28" y="774.48" width="39.08" height="39.08"/><rect class="cls-5" x="1028.28" y="943.79" width="39.08" height="39.08"/><rect class="cls-5" x="97.24" y="181.83" width="39.08" height="39.08"/><rect class="cls-5" x="97.24" y="351.06" width="39.08" height="39.08"/><rect class="cls-5" x="97.24" y="520.29" width="39.08" height="39.08"/><rect class="cls-5" x="97.24" y="689.52" width="39.08" height="39.08"/><rect class="cls-5" x="97.24" y="858.75" width="39.08" height="39.08"/><rect class="cls-5" x="97.24" y="1027.98" width="39.08" height="39.08"/></g><path class="cls-2" d="M540,242.62A372.5,372.5,0,0,0,261.73,603.69V1080H818.27V603.69A372.48,372.48,0,0,0,540,242.62Z"/><path class="cls-6" d="M368.28,1080V603.69A265.7,265.7,0,0,1,540,354.3,265.77,265.77,0,0,1,697.14,516.22a267.85,267.85,0,0,1,14.58,87.47V1080Z"/><rect class="cls-7" x="458.79" y="791.82" width="162.43" height="288.18"/><polygon class="cls-8" points="580.3 705.61 499.7 705.61 540.09 427.55 580.3 705.61"/><circle class="cls-9" cx="540" cy="712.49" r="40.88"/></g></svg>