<svg xmlns="http://www.w3.org/2000/svg" xmlns:xlink="http://www.w3.org/1999/xlink" viewBox="0 0 1080.68 1080"><defs><style>.cls-1,.cls-13,.cls-14,.cls-17,.cls-20,.cls-22,.cls-23,.cls-24,.cls-25,.cls-26,.cls-27,.cls-28,.cls-29,.cls-30{fill:none;}.cls-2{fill:#8f813d;}.cls-3{fill:#28773f;}.cls-4{fill:#0b4100;}.cls-5{fill:#00421d;}.cls-6{fill:#ea8d6c;}.cls-7{fill:#002d6e;}.cls-8{fill:#f75f5f;}.cls-9{fill:#25d4cf;}.cls-10{fill:#f7c0ba;}.cls-11{fill:#ffe5e0;}.cls-12{clip-path:url(#clip-path);}.cls-13{stroke:#ececec;stroke-width:2.88px;}.cls-13,.cls-14,.cls-17,.cls-20,.cls-22,.cls-23,.cls-24,.cls-25,.cls-26,.cls-27,.cls-28,.cls-29,.cls-30{stroke-miterlimit:10;}.cls-14,.cls-17,.cls-23,.cls-26,.cls-27{stroke:#26ae8c;}.cls-14{stroke-width:4.07px;}.cls-15{fill:#69bf7c;}.cls-16{fill:#38934d;}.cls-17{stroke-width:2.72px;}.cls-18{fill:#92e0ff;}.cls-19{fill:#c7eaff;}.cls-20,.cls-22,.cls-24,.cls-25,.cls-28,.cls-29,.cls-30{stroke:#000;}.cls-20{stroke-width:2.7px;}.cls-21{fill:#91d7f3;}.cls-22{stroke-width:1.86px;}.cls-23{stroke-width:2.83px;}.cls-24{stroke-width:1.87px;}.cls-25{stroke-width:1.72px;}.cls-26{stroke-width:5.42px;}.cls-27{stroke-width:3.62px;}.cls-28{stroke-width:3.6px;}.cls-29{stroke-width:2.47px;}.cls-30{stroke-width:2.28px;}</style><clipPath id="clip-path"><path class="cls-1" d="M694.3,353A170.56,170.56,0,0,0,385,353Z"/></clipPath></defs><g id="Graphics"><rect class="cls-2" width="1079.33" height="1078.05"/><rect class="cls-3" x="95.37" y="731.21" width="76.99" height="7.2"/><rect class="cls-3" x="130.26" y="574.45" width="7.2" height="160.36"/><circle class="cls-3" cx="133.86" cy="589.18" r="56.59"/><polygon class="cls-3" points="133.86 73.77 77.75 581.79 189.97 581.79 133.86 73.77"/><rect class="cls-4" x="350.09" y="731.21" width="76.99" height="7.2"/><rect class="cls-4" x="384.99" y="574.45" width="7.2" height="160.36"/><circle class="cls-5" cx="388.58" cy="589.18" r="56.59"/><polygon class="cls-5" points="388.58 73.77 332.48 581.79 444.69 581.79 388.58 73.77"/><rect class="cls-5" x="222.73" y="731.21" width="76.99" height="7.2"/><rect class="cls-5" x="257.62" y="574.45" width="7.2" height="160.36"/><circle class="cls-5" cx="261.22" cy="589.18" r="56.59"/><polygon class="cls-5" points="261.22 73.77 205.12 581.79 317.33 581.79 261.22 73.77"/><rect class="cls-6" x="389.8" y="377.1" width="299.72" height="522.67"/><rect class="cls-7" y="950.43" width="1079.33" height="129.57"/><rect class="cls-8" y="923.89" width="1079.33" height="27.41"/><path class="cls-9" d="M694.3,353A170.56,170.56,0,0,0,385,353Z"/><polygon class="cls-9" points="565.51 263.6 539.62 237.71 513.73 263.6 565.51 263.6"/><rect class="cls-7" x="453.26" y="447.24" width="172.8" height="452.53"/><rect x="508.98" y="686.14" width="61.29" height="213.59" transform="translate(-1.02 0.7) rotate(-0.07)"/><rect class="cls-5" x="891.53" y="982.8" width="76.99" height="7.2"/><rect class="cls-5" x="926.43" y="826.04" width="7.2" height="160.36"/><circle class="cls-5" cx="930.03" cy="840.78" r="56.59"/><polygon class="cls-5" points="930.03 325.36 873.92 833.39 986.14 833.39 930.03 325.36"/><rect class="cls-10" x="334.33" y="899.77" width="410.67" height="24.06"/><rect class="cls-10" x="428.2" y="627.75" width="546.72" height="24.06" transform="translate(61.78 1341.34) rotate(-90)"/><rect class="cls-10" x="104.41" y="627.75" width="546.72" height="24.06" transform="translate(-262.01 1017.55) rotate(-90)"/><rect class="cls-10" x="320.27" y="627.75" width="546.72" height="24.06" transform="translate(-46.15 1233.41) rotate(-90)"/><rect class="cls-10" x="212.34" y="627.75" width="546.72" height="24.06" transform="translate(-154.08 1125.48) rotate(-90)"/><rect class="cls-11" x="365.74" y="377.1" width="24.06" height="12.7"/><rect class="cls-11" x="473.67" y="377.1" width="24.06" height="12.7"/><rect class="cls-11" x="581.6" y="377.1" width="24.06" height="12.7"/><rect class="cls-11" x="689.53" y="377.1" width="24.06" height="12.7"/><rect class="cls-11" x="334.33" y="353.04" width="410.67" height="24.06"/><rect class="cls-3" x="764.17" y="982.8" width="76.99" height="7.2"/><rect class="cls-3" x="799.07" y="826.04" width="7.2" height="160.36"/><circle class="cls-3" cx="802.67" cy="840.78" r="56.59"/><polygon class="cls-3" points="802.67 325.36 746.56 833.39 858.77 833.39 802.67 325.36"/><g class="cls-12"><circle class="cls-13" cx="726.61" cy="398.87" r="182.92"/><circle class="cls-13" cx="694.02" cy="398.87" r="182.92"/><circle class="cls-13" cx="759.2" cy="398.87" r="182.92"/><circle class="cls-13" cx="791.79" cy="398.87" r="182.92"/><circle class="cls-13" cx="824.39" cy="398.87" r="182.92"/><circle class="cls-13" cx="661.42" cy="398.87" r="182.92"/><circle class="cls-13" cx="628.83" cy="398.87" r="182.92"/><circle class="cls-13" cx="596.24" cy="398.87" r="182.92"/><circle class="cls-13" cx="483.1" cy="398.87" r="182.92"/><circle class="cls-13" cx="450.5" cy="398.87" r="182.92"/><circle class="cls-13" cx="417.91" cy="398.87" r="182.92"/><circle class="cls-13" cx="385.32" cy="398.87" r="182.92"/><circle class="cls-13" cx="352.72" cy="398.87" r="182.92"/><circle class="cls-13" cx="320.13" cy="398.87" r="182.92"/><circle class="cls-13" cx="287.54" cy="398.87" r="182.92"/><circle class="cls-13" cx="254.94" cy="398.87" r="182.92"/></g><path class="cls-11" d="M0,597.68V923.89H68.62V692.58a41.25,41.25,0,0,1,82.49,0V923.89H220V692.58a41.25,41.25,0,0,1,82.49,0V923.89h63.27V597.68Z"/><path class="cls-14" d="M666.22,787.06A111.74,111.74,0,0,1,805.36,961.94"/><path class="cls-14" d="M985.31,1013a111.74,111.74,0,1,0-213.2,67"/><path class="cls-15" d="M825.36,759a34.53,34.53,0,0,1,46.15-15.93"/><path class="cls-16" d="M825.36,759a34.52,34.52,0,0,0,46.15-15.93"/><path class="cls-15" d="M925.44,898.22a34.53,34.53,0,0,1-46.15,15.93"/><path class="cls-16" d="M925.44,898.22a34.52,34.52,0,0,0-46.15,15.93"/><path class="cls-15" d="M861.55,949.91A34.51,34.51,0,0,1,842.73,995"/><path class="cls-16" d="M861.55,949.91A34.53,34.53,0,0,0,842.73,995"/><path class="cls-15" d="M756,946.83a34.53,34.53,0,0,1-18.83,45"/><path class="cls-16" d="M756,946.83a34.53,34.53,0,0,0-18.83,45"/><path class="cls-15" d="M690.87,897.93a34.53,34.53,0,0,1,27.43,40.38"/><path class="cls-16" d="M690.87,897.93a34.52,34.52,0,0,0,27.43,40.38"/><path class="cls-15" d="M794.27,891.89a34.52,34.52,0,0,1,45.93,16.57"/><path class="cls-16" d="M794.27,891.89a34.54,34.54,0,0,0,45.93,16.57"/><path class="cls-15" d="M737.83,804.77a34.53,34.53,0,0,1,35.71-33.29"/><path class="cls-16" d="M737.83,804.77a34.51,34.51,0,0,0,35.71-33.29"/><path class="cls-17" d="M814,706.64A57.21,57.21,0,0,1,804.9,787"/><path class="cls-17" d="M765,840.12a57.19,57.19,0,0,1,79.71,13.74"/><ellipse class="cls-18" cx="668.94" cy="788.07" rx="30.78" ry="18.95" transform="translate(-334.1 538.19) rotate(-35.69)"/><ellipse class="cls-19" cx="676.21" cy="811.19" rx="18.95" ry="30.78" transform="translate(-333.77 1119.77) rotate(-67.17)"/><ellipse class="cls-19" cx="649.35" cy="773.79" rx="18.95" ry="30.78" transform="translate(-54.87 49.58) rotate(-4.2)"/><path d="M617.39,805.08a15.52,15.52,0,1,0,21.52,21.56l21.57-31.93-37.68,8.07A15.39,15.39,0,0,0,617.39,805.08Z"/><path class="cls-18" d="M599.62,777.92l0,.06a34.4,34.4,0,0,0,53.76,21.25A34.38,34.38,0,0,0,656.33,857l0,.06,0,0a48.67,48.67,0,0,0-56.75-79.09h0Z"/><polyline class="cls-20" points="591.41 813.8 624.32 819.2 618.92 852.11"/><circle cx="618.92" cy="852.11" r="6.29"/><circle cx="591.41" cy="813.8" r="6.29"/><ellipse class="cls-21" cx="976.45" cy="997.39" rx="13.03" ry="21.16" transform="translate(-336.56 523.84) rotate(-25.78)"/><ellipse class="cls-19" cx="992.97" cy="995.2" rx="21.16" ry="13.03" transform="translate(-381.13 1292.3) rotate(-57.26)"/><ellipse class="cls-19" cx="964.47" cy="1008.96" rx="13.03" ry="21.16" transform="translate(-135.51 1868.18) rotate(-84.29)"/><path d="M981.87,1034.3a10.66,10.66,0,0,0,19.47-8.71,10.81,10.81,0,0,0-2.33-3.31L980,1003.9l1,26.47A10.61,10.61,0,0,0,981.87,1034.3Z"/><path class="cls-21" d="M961.38,1043.12l0,0a23.64,23.64,0,0,0,20.74-33.88,23.65,23.65,0,0,0,31.54,11,23.3,23.3,0,0,0,7.89-6.15l0,0v0a33.45,33.45,0,0,0-60.26,29.06h0Z"/><polyline class="cls-22" points="984.71 1052.93 992.25 1031.29 1013.89 1038.83"/><circle cx="1013.89" cy="1038.83" r="4.32"/><circle cx="984.71" cy="1052.93" r="4.32"/><path class="cls-23" d="M648.47,1011a77.53,77.53,0,0,1,143.39-34.85"/><ellipse class="cls-21" cx="644.66" cy="1004.18" rx="21.36" ry="13.15" transform="translate(-547.5 1056.31) rotate(-59.8)"/><ellipse class="cls-19" cx="628.21" cy="1000.69" rx="13.15" ry="21.36" transform="translate(-399.48 417.7) rotate(-28.31)"/><ellipse class="cls-19" cx="655.82" cy="1016.76" rx="21.36" ry="13.15" transform="translate(-22.79 15.07) rotate(-1.29)"/><path d="M636.34,1040.91A10.77,10.77,0,1,1,620,1027.48l20.62-17L637.57,1037A10.9,10.9,0,0,1,636.34,1040.91Z"/><path class="cls-21" d="M656.27,1051.38l0,0A23.88,23.88,0,0,1,638,1015.64a23.85,23.85,0,0,1-40.06,1.82l0,0v0a33.77,33.77,0,0,1,58.39,33.94h0Z"/><polyline class="cls-24" points="632.04 1059.43 626.12 1037.07 603.75 1042.98"/><circle cx="603.76" cy="1042.98" r="4.36"/><circle cx="632.04" cy="1059.43" r="4.36"/><path d="M816.93,685.6a9.85,9.85,0,1,0-16.66,9.82l16.22,18.31,1-24.44A9.67,9.67,0,0,0,816.93,685.6Z"/><path class="cls-18" d="M836.44,679h0a21.84,21.84,0,0,0-21.57,29.69,21.83,21.83,0,0,0-36-7.34l0,0h0A30.9,30.9,0,0,0,836.44,679h0Z"/><polyline class="cls-25" points="815.68 668.24 807.15 687.62 787.77 679.1"/><circle cx="787.78" cy="679.1" r="3.99"/><circle cx="815.68" cy="668.24" r="3.99"/><path class="cls-17" d="M914.68,858.23a57.21,57.21,0,0,1-9.15,80.38"/><path d="M917.57,837.19a9.85,9.85,0,1,0-18.56,6.6,9.7,9.7,0,0,0,1.9,3.22l16.22,18.31,1-24.44A9.86,9.86,0,0,0,917.57,837.19Z"/><path class="cls-21" d="M937.07,830.56h0a21.85,21.85,0,0,0-21.57,29.69,21.81,21.81,0,0,0-36-7.34l0,0h0a30.9,30.9,0,0,0,57.61-22.38h0Z"/><polyline class="cls-25" points="916.31 819.83 907.79 839.21 888.41 830.69"/><circle cx="888.41" cy="830.69" r="3.99"/><circle cx="916.31" cy="819.83" r="3.99"/><path class="cls-17" d="M877.85,1013.67a57.19,57.19,0,0,0-31.59-74.46"/><path d="M886.6,1033a9.85,9.85,0,1,1-19.67-1.06,9.66,9.66,0,0,1,.91-3.62l10.35-22.16,7.89,23.15A9.63,9.63,0,0,1,886.6,1033Z"/><path class="cls-21" d="M907.18,1033.85h0A21.84,21.84,0,0,1,878,1011.51a21.82,21.82,0,0,1-32.39,17.24h0v0a30.9,30.9,0,0,1,61.58,5.1h0Z"/><polyline class="cls-25" points="890.32 1050.03 876.65 1033.87 860.49 1047.54"/><circle cx="860.49" cy="1047.54" r="3.99"/><circle cx="890.32" cy="1050.03" r="3.99"/><path d="M741.36,852.11a9.85,9.85,0,0,0,14.58,13.24,9.64,9.64,0,0,0,1.94-3.19l8.48-22.95-22,10.67A9.71,9.71,0,0,0,741.36,852.11Z"/><path class="cls-21" d="M726.3,838.05l0,0a22,22,0,0,0,5.59,7.36,21.87,21.87,0,0,0,30.77-2.37,21.83,21.83,0,0,0,10.51,35.16l0,0v0A30.9,30.9,0,0,0,726.31,838h0Z"/><polyline class="cls-25" points="726.65 861.41 747.76 859.77 749.39 880.88"/><circle cx="749.4" cy="880.88" r="3.99"/><circle cx="726.65" cy="861.41" r="3.99"/><path class="cls-26" d="M582.24,185.37a148.76,148.76,0,1,1-294.69-41"/><path class="cls-26" d="M67.13,260.28A148.76,148.76,0,1,0,211.27,0"/><path class="cls-15" d="M454.46,358.46a46,46,0,0,1-29.89,57.72"/><path class="cls-16" d="M454.46,358.46a46,46,0,0,0-29.89,57.72"/><path class="cls-15" d="M230.21,316.05a45.95,45.95,0,0,1,29.89-57.72"/><path class="cls-16" d="M230.21,316.05a46,46,0,0,0,29.89-57.72"/><path class="cls-15" d="M244.38,207.56a46,46,0,0,1-23.18-60.72"/><path class="cls-16" d="M244.38,207.56a45.95,45.95,0,0,0-23.18-60.72"/><path class="cls-15" d="M362.52,201.78A45.95,45.95,0,0,1,303,227.94"/><path class="cls-16" d="M362.52,201.78A46,46,0,0,0,303,227.94"/><path class="cls-15" d="M496.92,234A46,46,0,0,1,493,298.9"/><path class="cls-16" d="M496.92,234A46,46,0,0,0,493,298.9"/><path class="cls-27" d="M513.46,398.6a76.15,76.15,0,0,1-64.94-85.91"/><path class="cls-27" d="M438.23,224.89a76.15,76.15,0,0,1-89.5,59.9"/><ellipse class="cls-18" cx="578.69" cy="186.91" rx="40.99" ry="25.24" transform="translate(287.21 720.63) rotate(-79.26)"/><ellipse class="cls-19" cx="550.46" cy="171.27" rx="40.99" ry="25.24" transform="translate(-24.98 206.12) rotate(-20.75)"/><ellipse class="cls-19" cx="610.69" cy="182.7" rx="25.24" ry="40.99" transform="translate(64.96 512.09) rotate(-47.77)"/><path d="M612.8,123.19a20.66,20.66,0,1,0-40.54-1l8.5,50.58,28.93-42.35A20.65,20.65,0,0,0,612.8,123.19Z"/><path class="cls-18" d="M654.87,133.08l-.1,0a45.8,45.8,0,0,0-71.35,28.83,45.77,45.77,0,0,0-55.79-53l-.09,0s0,0,0,0a64.81,64.81,0,0,0,127.33,24.21h0A0,0,0,0,1,654.87,133.08Z"/><polyline class="cls-28" points="629.86 90.93 593.16 115.92 568.17 79.23"/><circle cx="568.17" cy="79.23" r="8.37"/><circle cx="629.86" cy="90.93" r="8.37"/><ellipse class="cls-18" cx="89.99" cy="267.2" rx="17.34" ry="28.17" transform="translate(-191.78 257.17) rotate(-69.35)"/><ellipse class="cls-19" cx="76.06" cy="284.47" rx="17.34" ry="28.17" transform="translate(-52.14 19.38) rotate(-10.84)"/><ellipse class="cls-19" cx="90.92" cy="245.04" rx="28.17" ry="17.34" transform="translate(-131.25 107.38) rotate(-37.86)"/><path d="M50.88,236.57a14.2,14.2,0,1,0-5.5,27.33l35.26.23-25.26-24.6A14.09,14.09,0,0,0,50.88,236.57Z"/><path class="cls-18" d="M62.55,209.26l0,.07a31.48,31.48,0,0,0,11.08,51.72,31.45,31.45,0,0,0-42.49,31.49l0,.07h0a44.54,44.54,0,0,0,31.46-83.33h0Z"/><polyline class="cls-29" points="31.06 221.21 43.64 249.01 15.84 261.59"/><circle cx="15.84" cy="261.59" r="5.75"/><circle cx="31.06" cy="221.21" r="5.75"/><path d="M530,421.55A13.11,13.11,0,1,0,537,396.79L504.59,394l21.47,24.49A13,13,0,0,0,530,421.55Z"/><path class="cls-18" d="M517.25,445.85l0-.06a29.08,29.08,0,0,0-6.44-48.43,29,29,0,0,0,41.41-25.91l0-.05h0a41.14,41.14,0,0,0-35,74.45h0Z"/><polyline class="cls-30" points="547.12 437.14 537.56 410.63 564.07 401.06"/><circle cx="564.07" cy="401.06" r="5.31"/><circle cx="547.12" cy="437.14" r="5.31"/><path class="cls-27" d="M277.27,344.74a76.16,76.16,0,0,1-64.93-85.92"/><path d="M293.8,367.69a13.12,13.12,0,1,0,7.06-24.76l-32.45-2.78,21.47,24.49A13,13,0,0,0,293.8,367.69Z"/><path class="cls-18" d="M281.07,392l0-.05a29.08,29.08,0,0,0-6.44-48.43,29,29,0,0,0,41.41-25.91l0-.06h0a41.14,41.14,0,0,0-35,74.45h0Z"/><polyline class="cls-30" points="310.94 383.28 301.38 356.76 327.89 347.2"/><circle cx="327.89" cy="347.2" r="5.31"/><circle cx="310.94" cy="383.28" r="5.31"/><path class="cls-27" d="M170.15,161A76.14,76.14,0,0,0,269,203.85"/><path d="M144,150.36a13.11,13.11,0,1,1,22.39-12.69l10.35,30.88-28.85-15.09A12.78,12.78,0,0,1,144,150.36Z"/><path class="cls-18" d="M123.34,168.47l0,0A29.09,29.09,0,0,1,172,163.27a29,29,0,0,1,15.41-46.36l.05,0v0a41.14,41.14,0,0,1-64.09,51.6h0Z"/><polyline class="cls-30" points="124.76 137.39 152.78 140.43 155.81 112.41"/><circle cx="155.81" cy="112.41" r="5.31"/><circle cx="124.76" cy="137.39" r="5.31"/><path d="M450.07,191.59a13.11,13.11,0,1,0-25.16,5.47L437.79,227l11.45-30.48A13.12,13.12,0,0,0,450.07,191.59Z"/><path class="cls-18" d="M477.5,191.34h-.06a29.08,29.08,0,0,0-39.65,28.55,29.07,29.07,0,0,0-42.4-24.28h-.06v0a41.14,41.14,0,0,0,82.17-4.28h0Z"/><polyline class="cls-30" points="455.72 169.12 436.86 190.07 415.92 171.22"/><circle cx="415.91" cy="171.21" r="5.31"/><circle cx="455.72" cy="169.12" r="5.31"/></g></svg>