<svg xmlns="http://www.w3.org/2000/svg" xmlns:xlink="http://www.w3.org/1999/xlink" viewBox="0 0 1080 1080"><defs><style>.cls-1{fill:none;}.cls-2{fill:#006d70;}.cls-3{fill:#002d6e;}.cls-4{fill:#183c58;}.cls-5{fill:#006877;}.cls-6{fill:#929b9b;}.cls-7{fill:#06676b;}.cls-8{fill:#139b8e;}.cls-9{clip-path:url(#clip-path);}.cls-10,.cls-11{fill:#feffc8;}.cls-10{opacity:0.87;}.cls-12{fill:#fffaff;opacity:0.2;}</style><clipPath id="clip-path"><rect class="cls-1" width="1080" height="1080"/></clipPath></defs><g id="Graphics"><rect class="cls-2" width="1080" height="1080"/><polygon class="cls-3" points="765.95 540 948.74 407.19 722.79 407.19 792.61 192.31 609.82 325.11 540 110.23 470.18 325.11 287.39 192.31 357.21 407.19 131.26 407.19 314.06 540 131.26 672.81 357.21 672.81 287.39 887.69 470.18 754.89 540 969.77 609.82 754.89 792.61 887.69 722.79 672.81 948.74 672.81 765.95 540"/><polyline class="cls-4" points="470.18 325.11 287.39 192.31 357.21 407.19 131.26 407.19 314.06 540 131.26 672.81 357.21 672.81 287.39 887.69 470.18 754.89 540 969.77 609.82 754.89"/><path class="cls-5" d="M461.94,432.56,540,540V407.19c-11.4-35.31-38.52-67.8-69.82-82.08-16.94,29.94-19.77,72.17-8.24,107.45"/><path class="cls-6" d="M547.2,562.16,455.45,435.87l-.36-1.08c-12.28-37.59-8.82-82,8.82-113.22l3.25-5.75,6,2.74c32.61,14.88,61.53,48.8,73.68,86.42l.35,1.08Zm-78.76-132.9,64.36,88.58V408.34c-10.36-31.13-33.22-59.24-59.5-73.61C460.5,361.79,458.52,398,468.44,429.26Z"/><path class="cls-5" d="M413.69,499,540,540,461.94,432.56c-30-21.87-71-32.22-104.73-25.37,3.89,34.18,26.43,70,56.48,91.77"/><path class="cls-6" d="M558.85,553.7,410.39,505.46l-.92-.67c-32-23.19-55.36-61.18-59.42-96.78l-.75-6.56,6.47-1.31c35.13-7.14,78.47,3.3,110.41,26.6l.92.67.66.91ZM417,492.47,521.15,526.3l-64.36-88.58c-26.68-19.1-61.71-28.4-91.41-24.58C370.93,442.55,390.6,473,417,492.47Z"/><path class="cls-5" d="M413.69,581,540,540,413.69,499c-37.11-.07-76.39,15.68-99.64,41,23.25,25.36,62.53,41.1,99.64,41"/><path class="cls-6" d="M413.48,588.24c-39.48,0-80.57-17-104.73-43.38L304.29,540l4.46-4.87c24.17-26.36,65.25-43.37,104.71-43.37h1.38L563.3,540,414.84,588.24h-1.36ZM324.16,540c21.78,20.54,55.58,33.6,88.4,33.84L516.7,540,412.56,506.16C379.75,506.4,346,519.45,324.16,540Z"/><path class="cls-5" d="M461.94,647.44,540,540,413.69,581c-30.06,21.76-52.58,57.59-56.48,91.77,33.71,6.85,74.74-3.51,104.73-25.37"/><path class="cls-6" d="M378.67,682.08a115.28,115.28,0,0,1-22.9-2.22l-6.47-1.31.75-6.56c4.07-35.61,27.39-73.6,59.42-96.78l.92-.67L558.85,526.3,467.1,652.59l-.92.67C440.9,671.69,408.49,682.08,378.67,682.08Zm-13.29-15.21c29.7,3.81,64.71-5.49,91.41-24.59l64.36-88.58L417,587.53C390.6,607,370.93,637.44,365.38,666.87Z"/><path class="cls-5" d="M540,672.81V540L461.94,647.44c-11.53,35.28-8.69,77.5,8.24,107.45,31.3-14.27,58.41-46.77,69.82-82.08"/><path class="cls-6" d="M467.16,764.18l-3.25-5.75c-17.64-31.2-21.1-75.64-8.82-113.22l.36-1.08L547.2,517.84v156.1l-.35,1.08c-12.16,37.64-41.08,71.56-73.68,86.42Zm1.28-113.44c-9.92,31.28-7.94,67.46,4.86,94.53,26.27-14.36,49.13-42.47,59.5-73.61V562.16Z"/><path class="cls-5" d="M618.06,647.44,540,540V672.81c11.4,35.31,38.52,67.8,69.82,82.08,16.94-29.94,19.77-72.17,8.24-107.45"/><path class="cls-6" d="M612.84,764.18l-6-2.74c-32.61-14.88-61.53-48.8-73.68-86.42l-.35-1.08V517.84l91.75,126.29.36,1.08c12.28,37.59,8.82,82-8.82,113.22ZM547.2,671.66c10.36,31.13,33.22,59.24,59.5,73.61,12.8-27.06,14.78-63.23,4.86-94.53L547.2,562.16Z"/><path class="cls-5" d="M666.31,581,540,540l78.06,107.44c30,21.87,71,32.22,104.73,25.37-3.89-34.18-26.43-70-56.48-91.77"/><path class="cls-6" d="M701.32,682.08c-29.82,0-62.23-10.39-87.5-28.82l-.92-.67-.66-.91L521.15,526.3l148.46,48.24.92.67c32,23.19,55.36,61.18,59.42,96.78l.74,6.56-6.46,1.31A115.38,115.38,0,0,1,701.32,682.08Zm-78.11-39.8c26.68,19.1,61.7,28.4,91.41,24.58C709.07,637.45,689.4,607,663,587.53L558.85,553.7Z"/><path class="cls-5" d="M666.31,499,540,540l126.31,41c37.11.07,76.39-15.68,99.64-41-23.25-25.36-62.53-41.1-99.64-41"/><path class="cls-6" d="M666.54,588.24h-1.38L516.7,540l148.46-48.24h1.36c39.48,0,80.57,17,104.73,43.38l4.46,4.86-4.46,4.87C747.08,571.23,706,588.24,666.54,588.24ZM563.3,540l104.14,33.84c32.81-.24,66.61-13.29,88.4-33.84-21.78-20.54-55.58-33.6-88.4-33.84Z"/><path class="cls-5" d="M618.06,432.56,540,540l126.31-41c30.06-21.76,52.58-57.59,56.48-91.77-33.71-6.85-74.74,3.51-104.73,25.37"/><path class="cls-6" d="M521.15,553.7,612.9,427.41l.92-.67c32-23.3,75.3-33.74,110.41-26.6l6.47,1.31L730,408c-4.07,35.61-27.39,73.6-59.42,96.78l-.92.67Zm102.06-116L558.85,526.3,663,492.47c26.41-19.48,46.08-49.91,51.62-79.34C684.92,409.32,649.91,418.62,623.21,437.72Z"/><path class="cls-5" d="M540,407.19V540l78.06-107.44c11.53-35.28,8.69-77.5-8.24-107.45-31.3,14.27-58.41,46.77-69.82,82.08"/><path class="cls-6" d="M532.8,562.16V406.06l.35-1.08c12.16-37.64,41.08-71.56,73.68-86.42l6-2.74,3.25,5.75c17.64,31.2,21.1,75.64,8.82,113.22l-.36,1.08Zm14.4-153.82v109.5l64.36-88.58c9.92-31.28,7.94-67.46-4.86-94.53C580.43,349.09,557.57,377.2,547.2,408.34Z"/><polygon class="cls-7" points="652.91 540 666.31 498.96 631.34 473.64 618.06 432.56 574.89 432.62 540 407.19 505.11 432.62 461.94 432.56 448.66 473.64 413.69 498.96 427.09 540 413.69 581.04 448.66 606.36 461.94 647.44 505.11 647.38 540 672.81 574.89 647.38 618.06 647.44 631.34 606.36 666.31 581.04 652.91 540"/><path class="cls-6" d="M540,680.83l-37-27-45.78.07-14.08-43.56-37.07-26.85L420.28,540l-14.21-43.52,37.07-26.85,14.08-43.56,45.78.07,37-27,37,27,45.78-.07,14.08,43.56,37.07,26.85L659.72,540l14.21,43.52-37.07,26.85-14.08,43.56L577,653.86ZM507.22,640.9,540,664.79l32.78-23.89,40.57.06,12.48-38.6,32.85-23.8L646.09,540l12.59-38.56-32.85-23.8L613.35,439l-40.57.06L540,415.21,507.22,439.1,466.65,439l-12.48,38.6-32.85,23.8L433.91,540l-12.59,38.56,32.85,23.8L466.65,641Z"/><polygon class="cls-8" points="547.79 1007.39 547.81 1007.31 547.77 1007.33 547.79 1007.39"/><polygon class="cls-8" points="986.86 676.98 986.86 677.03 986.92 677.02 986.86 676.98"/><polygon class="cls-8" points="982.11 388.16 982.03 388.16 982.06 388.2 982.11 388.16"/><polygon class="cls-7" points="631.03 569.45 652.54 539.85 630.96 510.31 630.96 473.73 596.13 462.52 574.63 432.92 539.87 444.32 505.08 433.01 483.66 462.67 448.87 473.97 448.97 510.56 427.46 540.15 449.05 569.69 449.04 606.27 483.87 617.48 505.37 647.08 540.13 635.68 574.92 646.99 596.34 617.33 631.13 606.03 631.03 569.45"/><path class="cls-6" d="M503.17,653.86l-22.86-31.47-37-11.92v-38.9l-22.95-31.41,22.87-31.47-.11-38.9,37-12,22.78-31.53,37,12,37-12.12,22.86,31.47,37,11.92v38.9l23,31.41L636.8,571.31l.11,38.9-37,12-22.78,31.53-37-12ZM454.8,602.07l32.62,10.5,20.14,27.73,32.56-10.68,32.59,10.59,20.06-27.78,32.59-10.58-.09-34.27,20.14-27.72-20.22-27.67V477.93l-32.62-10.5L572.44,439.7l-32.56,10.68-32.59-10.59-20.06,27.78-32.59,10.58.09,34.27-20.14,27.72,20.21,27.67Z"/><polygon class="cls-7" points="620.65 540 630.22 510.69 605.25 492.6 595.76 463.25 564.92 463.3 540 445.13 515.08 463.3 484.24 463.25 474.75 492.6 449.78 510.69 459.35 540 449.78 569.32 474.75 587.4 484.24 616.75 515.08 616.7 540 634.87 564.92 616.7 595.76 616.75 605.25 587.4 630.22 569.32 620.65 540"/><path class="cls-6" d="M540,641.1l-26.56-19.35-32.87,0-10.11-31.27-26.61-19.28L454.05,540l-10.2-31.24,26.61-19.28,10.11-31.27,32.87,0L540,438.9l26.56,19.35,32.87,0,10.11,31.27,26.61,19.28L626,540l10.2,31.24-26.61,19.28-10.11,31.27-32.87,0Zm-23.28-29.44,23.28,17,23.28-17,28.81,0L601,584.29l23.33-16.9L615.35,540l8.94-27.39L601,495.71l-8.87-27.41-28.81,0-23.28-17-23.28,17-28.81,0L479,495.71l-23.33,16.9L464.65,540l-8.94,27.39L479,584.29l8.87,27.41Z"/><polygon class="cls-7" points="604.96 561.01 620.3 539.89 604.9 518.82 604.9 492.71 580.05 484.72 564.71 463.6 539.91 471.73 515.08 463.66 499.8 484.82 474.97 492.89 475.05 518.99 459.7 540.11 475.1 561.18 475.1 587.29 499.95 595.28 515.29 616.4 540.09 608.27 564.92 616.34 580.2 595.18 605.03 587.11 604.96 561.01"/><path class="cls-6" d="M513.64,621.49,497.28,599l-26.5-8.53V562.59l-16.43-22.48,16.37-22.52-.08-27.84,26.48-8.6,16.31-22.57,26.47,8.61,26.46-8.68L582.72,481l26.5,8.53v27.84l16.43,22.48-16.37,22.52.08,27.84-26.48,8.6-16.31,22.57-26.47-8.61Zm-34.22-37.35,23.19,7.46,14.32,19.72,23.15-7.6,23.18,7.54,14.26-19.76L600.7,584l-.07-24.37L615,539.9l-14.38-19.67V495.86l-23.19-7.46-14.32-19.72-23.15,7.6-23.18-7.54L502.48,488.5,479.3,496l.07,24.37L465,540.1l14.38,19.67Z"/><g class="cls-9"><rect class="cls-6" x="564.35" y="182.12" width="458.59" height="14" transform="translate(368.53 885.48) rotate(-72)"/><rect class="cls-6" x="553.94" y="146.12" width="585.23" height="14" transform="translate(71.66 526.81) rotate(-36)"/><rect class="cls-6" x="531.97" y="-122.26" width="14" height="458.59" transform="translate(-6.7 171.79) rotate(-18)"/><rect class="cls-6" x="267.99" y="39.82" width="585.23" height="14" transform="translate(342.83 565.52) rotate(-72)"/><rect class="cls-6" x="198.98" y="-193.41" width="14" height="653.14" transform="translate(-22.82 221.53) rotate(-54)"/><rect class="cls-6" x="259.78" y="-163.71" width="14" height="585.23" transform="translate(-26.78 88.75) rotate(-18)"/><rect class="cls-6" x="-101.38" y="400.19" width="458.59" height="14"/><rect class="cls-6" x="70.33" y="75.39" width="14" height="585.23" transform="matrix(0.59, -0.81, 0.81, 0.59, -265.85, 214.26)"/><rect class="cls-6" x="-100.74" y="667.78" width="458.59" height="14" transform="translate(-372.06 204.42) rotate(-36)"/><rect class="cls-6" x="-228.02" y="665.81" width="585.22" height="14"/><rect class="cls-6" x="57.05" y="883.88" width="458.59" height="14" transform="translate(-649.41 887.92) rotate(-72)"/><rect class="cls-6" x="-59.16" y="919.88" width="585.23" height="14" transform="translate(-500.21 314.22) rotate(-36)"/><rect class="cls-6" x="534.04" y="743.66" width="14" height="458.59" transform="translate(-274.18 214.81) rotate(-18)"/><rect class="cls-6" x="226.79" y="1026.18" width="585.23" height="14" transform="translate(-623.72 1207.88) rotate(-72)"/><rect class="cls-6" x="864.93" y="621.33" width="14" height="647.97" transform="translate(-405.36 1095.08) rotate(-54)"/><rect class="cls-6" x="806.22" y="658.49" width="14" height="585.23" transform="translate(-254.1 297.85) rotate(-18)"/><rect class="cls-6" x="722.79" y="665.81" width="458.59" height="14"/><rect class="cls-6" x="995.67" y="419.38" width="14" height="585.23" transform="translate(-162.7 1104.67) rotate(-54)"/><rect class="cls-6" x="722.15" y="398.22" width="458.59" height="14" transform="translate(-56.48 636.61) rotate(-36)"/><rect class="cls-6" x="722.79" y="400.19" width="585.22" height="14"/></g><polyline class="cls-6" points="826.52 0 784.4 193.54 807.56 172.65 884.54 0"/><polyline class="cls-6" points="559.82 0 532.44 110.23 547.57 110.23 602.82 0"/><polyline class="cls-6" points="520.5 0 547.88 110.23 532.75 110.23 477.5 0"/><polyline class="cls-6" points="559.82 1080 532.44 969.77 547.57 969.77 602.82 1080"/><polyline class="cls-6" points="520.5 1080 547.88 969.77 532.75 969.77 477.5 1080"/><polyline class="cls-6" points="1001.23 0 793.43 185.4 801.16 193.54 1080 0"/><polyline class="cls-6" points="826.52 1080 784.4 886.46 807.56 907.35 884.54 1080"/><polyline class="cls-6" points="1001.23 1080 793.43 894.6 801.16 886.46 1080 1080"/><polyline class="cls-6" points="252.04 0 294.16 193.54 271 172.65 194.02 0"/><polyline class="cls-6" points="77.33 0 270.31 171.1 277.4 193.54 0 0"/><polyline class="cls-6" points="252.04 1080 294.16 886.46 271 907.35 194.02 1080"/><polyline class="cls-6" points="77.33 1080 270.07 909.19 277.4 886.46 0 1080"/><polyline class="cls-6" points="1080 292.26 942.8 403.32 973.94 401.51 1080 346.92"/><polyline class="cls-6" points="1080 402.15 947.71 402.4 948.07 413.63 1080 439.45"/><polyline class="cls-6" points="0 292.26 137.2 403.32 106.06 401.51 0 346.92"/><polyline class="cls-6" points="0 402.15 132.29 402.4 131.93 413.63 0 439.45"/><polyline class="cls-6" points="1080 789.25 942.8 678.2 973.94 680.01 1080 734.6"/><polyline class="cls-6" points="1080 680.08 947.71 679.83 951.06 665.62 1080 642.79"/><polyline class="cls-6" points="0 789.25 137.2 678.2 106.06 680.01 0 734.6"/><polyline class="cls-6" points="0 680.08 132.29 679.83 129.04 665.6 0 642.79"/><circle class="cls-10" cx="786.33" cy="482.35" r="6.71"/><circle class="cls-10" cx="387.14" cy="307.83" r="11.83"/><circle class="cls-10" cx="351.01" cy="461.48" r="6.71"/><circle class="cls-10" cx="250.79" cy="630.28" r="6.71"/><circle class="cls-10" cx="541.17" cy="333.14" r="6.71"/><circle class="cls-10" cx="676.58" cy="733.72" r="14.25"/><rect class="cls-10" x="759.56" y="581.04" width="1.86" height="24.67"/><rect class="cls-10" x="759.56" y="581.04" width="1.86" height="24.67" transform="translate(-196.84 711.52) rotate(-45)"/><rect class="cls-10" x="748.15" y="592.45" width="24.67" height="1.86"/><rect class="cls-10" x="748.15" y="592.45" width="24.67" height="1.86" transform="translate(-196.85 711.45) rotate(-44.99)"/><rect class="cls-10" x="558.88" y="269.78" width="1.86" height="24.67"/><rect class="cls-10" x="558.88" y="269.78" width="1.86" height="24.67" transform="translate(-35.52 478.48) rotate(-45)"/><rect class="cls-10" x="547.48" y="281.18" width="24.67" height="1.86"/><rect class="cls-10" x="547.48" y="281.18" width="24.67" height="1.86" transform="translate(-35.54 478.42) rotate(-44.99)"/><rect class="cls-10" x="284.21" y="589.76" width="1.86" height="24.67"/><rect class="cls-10" x="284.2" y="589.76" width="1.86" height="24.67" transform="translate(-342.23 377.96) rotate(-45)"/><rect class="cls-10" x="272.8" y="601.17" width="24.67" height="1.86"/><rect class="cls-10" x="272.8" y="601.17" width="24.67" height="1.86" transform="translate(-342.22 377.91) rotate(-44.99)"/><polygon class="cls-10" points="223.81 439.77 219.64 432.56 223.81 425.34 232.14 425.34 236.31 432.56 232.14 439.77 223.81 439.77"/><polygon class="cls-10" points="696.24 787.83 692.08 780.61 696.24 773.4 704.58 773.4 708.74 780.61 704.58 787.83 696.24 787.83"/><polygon class="cls-11" points="375.31 742.08 379.12 756.25 393.77 755.49 381.48 763.49 386.72 777.19 375.31 767.97 363.9 777.19 369.15 763.49 356.85 755.49 371.5 756.25 375.31 742.08"/><polygon class="cls-11" points="826.8 433.06 829.42 442.8 839.5 442.28 831.04 447.79 834.65 457.21 826.8 450.87 818.95 457.21 822.56 447.79 814.1 442.28 824.18 442.8 826.8 433.06"/><polygon class="cls-12" points="281.24 883.26 347.3 680.01 350.77 665.43 153.71 665.43 0 1080 77.33 1080 270.07 909.19 194.02 1080 450.74 1080 460.9 752.73 281.24 883.26"/><polygon class="cls-12" points="547.88 969.77 602.82 1080 559.82 1080 540 1001.5 532.72 970.62 532.44 969.77 601.03 758.62 609.24 779.33 547.88 969.77"/><polygon class="cls-12" points="728.49 1080 602.82 1080 547.88 969.77 609.24 779.33 728.49 1080"/></g></svg>