<svg xmlns="http://www.w3.org/2000/svg" xmlns:xlink="http://www.w3.org/1999/xlink" viewBox="0 0 1920 1080"><defs><style>.cls-1,.cls-11,.cls-12,.cls-3,.cls-5,.cls-6{fill:none;}.cls-2{clip-path:url(#clip-path);}.cls-3{stroke:#002d6e;stroke-width:2px;}.cls-11,.cls-12,.cls-13,.cls-14,.cls-15,.cls-16,.cls-17,.cls-3,.cls-5,.cls-6,.cls-7,.cls-8,.cls-9{stroke-miterlimit:10;}.cls-4{fill:#fce3d9;}.cls-11,.cls-12,.cls-13,.cls-14,.cls-15,.cls-16,.cls-17,.cls-5,.cls-6,.cls-7,.cls-8,.cls-9{stroke:#000;}.cls-5{stroke-width:5.66px;}.cls-13,.cls-14,.cls-15,.cls-16,.cls-17,.cls-6,.cls-7,.cls-8{stroke-width:5.18px;}.cls-7{fill:#ee8878;}.cls-8{fill:#d4d000;}.cls-10,.cls-15,.cls-9{fill:#fff;}.cls-9{stroke-width:5.55px;}.cls-11{stroke-width:1.68px;}.cls-12{stroke-width:2.82px;}.cls-13{fill:#f9c8c8;}.cls-14{fill:#f19865;}.cls-16,.cls-18{fill:#fff100;}.cls-17,.cls-19{fill:#998131;}</style><clipPath id="clip-path"><rect class="cls-1" x="419.67" y="-1104" width="1080" height="1080"/></clipPath></defs><g id="Graphics"><g class="cls-2"><line class="cls-3" x1="-336.12" y1="-928.69" x2="1324.36" y2="731.79"/><line class="cls-3" x1="-251.48" y1="-1013.34" x2="1409.01" y2="647.14"/><line class="cls-3" x1="-166.83" y1="-1097.98" x2="1493.65" y2="562.5"/><line class="cls-3" x1="-82.19" y1="-1182.63" x2="1578.3" y2="477.85"/><line class="cls-3" x1="2.46" y1="-1267.27" x2="1662.94" y2="393.21"/><line class="cls-3" x1="87.1" y1="-1351.92" x2="1747.59" y2="308.56"/><line class="cls-3" x1="171.75" y1="-1436.56" x2="1832.23" y2="223.92"/><line class="cls-3" x1="256.39" y1="-1521.21" x2="1916.87" y2="139.27"/><line class="cls-3" x1="341.04" y1="-1605.85" x2="2001.52" y2="54.63"/><line class="cls-3" x1="594.97" y1="731.79" x2="2255.45" y2="-928.69"/><line class="cls-3" x1="510.33" y1="647.14" x2="2170.81" y2="-1013.34"/><line class="cls-3" x1="425.68" y1="562.5" x2="2086.16" y2="-1097.98"/><line class="cls-3" x1="341.04" y1="477.85" x2="2001.52" y2="-1182.63"/><line class="cls-3" x1="256.39" y1="393.21" x2="1916.87" y2="-1267.27"/><line class="cls-3" x1="171.75" y1="308.56" x2="1832.23" y2="-1351.92"/><line class="cls-3" x1="87.1" y1="223.92" x2="1747.59" y2="-1436.56"/><line class="cls-3" x1="2.46" y1="139.27" x2="1662.94" y2="-1521.21"/><line class="cls-3" x1="-82.19" y1="54.63" x2="1578.3" y2="-1605.85"/></g></g><g id="Layer_1" data-name="Layer 1"><rect class="cls-4" width="1920" height="1080"/><rect class="cls-5" x="44.24" y="43.2" width="1831.52" height="993.6"/><path class="cls-6" d="M529.6,793.89V310a70.45,70.45,0,0,1,70.45-70.45h0A70.45,70.45,0,0,1,670.5,310v693.47"/><line class="cls-6" x1="545.39" y1="265.56" x2="545.39" y2="614.61"/><line class="cls-6" x1="556.32" y1="254.77" x2="556.32" y2="777.78"/><line class="cls-6" x1="567.25" y1="247.65" x2="567.25" y2="842.37"/><line class="cls-6" x1="578.19" y1="243.12" x2="578.19" y2="744.77"/><line class="cls-6" x1="589.12" y1="240.32" x2="589.12" y2="858.14"/><line class="cls-6" x1="600.05" y1="239.57" x2="600.05" y2="657.89"/><line class="cls-6" x1="610.98" y1="240.48" x2="610.98" y2="877.26"/><line class="cls-6" x1="621.91" y1="243.12" x2="621.91" y2="536.64"/><line class="cls-6" x1="632.84" y1="247.65" x2="632.84" y2="827.25"/><line class="cls-6" x1="643.77" y1="254.76" x2="643.77" y2="925.14"/><line class="cls-6" x1="654.7" y1="265.56" x2="654.7" y2="842.63"/><path class="cls-6" d="M670.5,641.68V310A70.45,70.45,0,0,1,741,239.57h0A70.45,70.45,0,0,1,811.39,310V793.89"/><line class="cls-6" x1="795.6" y1="265.56" x2="795.6" y2="744.77"/><line class="cls-6" x1="784.67" y1="254.77" x2="784.67" y2="889.72"/><line class="cls-6" x1="773.74" y1="247.65" x2="773.74" y2="827.25"/><line class="cls-6" x1="762.81" y1="243.12" x2="762.81" y2="858.14"/><line class="cls-6" x1="751.88" y1="240.32" x2="751.88" y2="889.72"/><line class="cls-6" x1="740.95" y1="239.57" x2="740.95" y2="489.07"/><line class="cls-6" x1="730.01" y1="240.48" x2="730.01" y2="777.78"/><line class="cls-6" x1="719.08" y1="243.12" x2="719.08" y2="858.14"/><line class="cls-6" x1="708.15" y1="247.65" x2="708.15" y2="674.05"/><line class="cls-6" x1="697.22" y1="254.76" x2="697.22" y2="763.56"/><line class="cls-6" x1="686.29" y1="265.56" x2="686.29" y2="842.63"/><line class="cls-6" x1="638.3" y1="1003.49" x2="702.69" y2="1003.49"/><path class="cls-7" d="M606.05,897.28a10.25,10.25,0,0,1-5-12,5.15,5.15,0,0,0-6.87-.35A5.13,5.13,0,0,0,584,885a9.46,9.46,0,0,0-7.22,17.43,5.13,5.13,0,0,0,7.22,7.22,5.13,5.13,0,0,0,10.21,0,166.31,166.31,0,0,0,11.83-12.33Z"/><path d="M977.86,282.73v-3.87l14.87-18.37a8.14,8.14,0,0,0,2-5.29c0-3.76-2.17-5.93-6-5.93-3.28,0-6.25,1.8-6.25,6.67H977.8c0-6.4,4.34-10.74,10.85-10.74a10.65,10.65,0,0,1,9,4.23,9.53,9.53,0,0,1,1.7,5.72,12,12,0,0,1-3.13,7.83l-12.49,15.51h16.2v4.24Z"/><path d="M1027.09,280a11,11,0,0,1-8.58,3.5,11.93,11.93,0,0,1-8.52-3.18,11.73,11.73,0,0,1-3.39-8.15h4.5a7.61,7.61,0,0,0,2.06,5.24,7.2,7.2,0,0,0,5.3,2,6.34,6.34,0,0,0,5.34-2.38,9.74,9.74,0,0,0,1.8-6.14,9.27,9.27,0,0,0-2.06-6.3,6.47,6.47,0,0,0-5.08-2.07,6.94,6.94,0,0,0-6.09,3.23h-5l1-19.74h20.32V250h-16.46l-.58,11.75c1.64-2.38,4.6-3.33,7.73-3.33a10.06,10.06,0,0,1,7.51,3,12.93,12.93,0,0,1,3.29,9.15C1030.16,274.47,1029.15,277.7,1027.09,280Z"/><path d="M1049.21,282.73V245.2H1054v37.53Z"/><path d="M1075.68,260.12a7.37,7.37,0,0,0-5.08,2.12c-2.17,2.06-2.43,5.77-2.43,8.58v11.91h-4.45V255.94h4l.37,4.71c1.38-3.28,4.6-4.87,8-4.87a15.13,15.13,0,0,1,2.12.16v4.39A13.88,13.88,0,0,0,1075.68,260.12Z"/><path d="M1103,283.1a3.81,3.81,0,0,1-3.87-4.08h-.1c-1.54,2.7-4.87,4.39-8.63,4.39-6.14,0-9.21-4.13-9.21-8.25,0-3.44,2.22-7.94,9.53-8.37l8.15-.47v-2a5.27,5.27,0,0,0-1.38-4.08,6.06,6.06,0,0,0-4.39-1.37c-2.44,0-4,.68-4.87,1.58a4.39,4.39,0,0,0-1.33,3.23h-4.39a7.92,7.92,0,0,1,2.33-5.61c1.8-1.9,5-2.86,8.26-2.86,5.19,0,8.15,2.23,9.42,5.14a10.24,10.24,0,0,1,.79,4.13v13c0,1.42.59,1.79,1.49,1.79a6.9,6.9,0,0,0,1.16-.15v3.33A6.17,6.17,0,0,1,1103,283.1Zm-4.13-13.29-7.2.42c-2.7.16-5.88,1.43-5.88,4.82,0,2.38,1.48,4.61,5.3,4.61a7.55,7.55,0,0,0,5.5-2.17,8.66,8.66,0,0,0,2.28-6.09Z"/><path d="M1129.73,282.73v-17c0-4-1.64-6.4-5.88-6.4-2.59,0-4.65,1.69-5.82,4.13-.9,2-1,4.76-1,6.83v12.44h-4.5V255.94h3.92l.37,4c1.37-3.07,5.08-4.71,8.09-4.71,6.09,0,9.27,3.66,9.27,9.85v17.63Z"/><path d="M1142.7,249.8v-5.29h5.24v5.29Zm.32,32.93V255.94h4.6v26.79Z"/><path d="M1176.42,283.1a3.82,3.82,0,0,1-3.87-4.08h-.1c-1.54,2.7-4.87,4.39-8.63,4.39-6.14,0-9.21-4.13-9.21-8.25,0-3.44,2.22-7.94,9.53-8.37l8.15-.47v-2a5.27,5.27,0,0,0-1.38-4.08,6.06,6.06,0,0,0-4.39-1.37c-2.44,0-4,.68-4.87,1.58a4.39,4.39,0,0,0-1.32,3.23h-4.4a8,8,0,0,1,2.33-5.61c1.8-1.9,5-2.86,8.26-2.86,5.19,0,8.15,2.23,9.42,5.14a10.24,10.24,0,0,1,.8,4.13v13c0,1.42.58,1.79,1.48,1.79a6.9,6.9,0,0,0,1.16-.15v3.33A6.17,6.17,0,0,1,1176.42,283.1Zm-4.13-13.29-7.2.42c-2.7.16-5.87,1.43-5.87,4.82,0,2.38,1.48,4.61,5.29,4.61a7.55,7.55,0,0,0,5.5-2.17,8.66,8.66,0,0,0,2.28-6.09Z"/><path d="M1203.15,282.73v-17c0-4-1.64-6.4-5.87-6.4-2.6,0-4.66,1.69-5.83,4.13-.9,2-1,4.76-1,6.83v12.44H1186V255.94h3.92l.37,4c1.38-3.07,5.08-4.71,8.1-4.71,6.09,0,9.26,3.66,9.26,9.85v17.63Z"/><path d="M1251.38,279a14.09,14.09,0,0,1-9.85,3.76h-13.07V245.2h13.07a14.13,14.13,0,0,1,9.85,3.81c4.13,3.91,4.81,9.53,4.81,14.92S1255.45,275.05,1251.38,279Zm-3.18-26.84a9.42,9.42,0,0,0-6.67-2.59h-8.36v28.85h8.36a9.43,9.43,0,0,0,6.67-2.6c3-3,3.23-7.83,3.23-11.86S1251.17,255.2,1248.2,252.13Z"/><path d="M1284.94,270.82h-19a9.87,9.87,0,0,0,2.59,6.72,7.64,7.64,0,0,0,9.9.16,5.71,5.71,0,0,0,1.59-2.91h4.39a9.86,9.86,0,0,1-4.13,6.61,12.33,12.33,0,0,1-6.83,2,11.41,11.41,0,0,1-8.89-4,15.18,15.18,0,0,1-3.33-9.95,16.39,16.39,0,0,1,2.06-8.58,11.49,11.49,0,0,1,10.11-5.61,10.81,10.81,0,0,1,8.15,3.44,13.86,13.86,0,0,1,3.39,9.43Zm-6.19-9.32a6.39,6.39,0,0,0-5.3-2.44c-4.87,0-7.25,4-7.36,7.89h14.3A9.42,9.42,0,0,0,1278.75,261.5Z"/><path d="M1309.77,280.4c-2.07,2.11-5.24,3-8.74,3-3.33,0-6.4-.79-8.68-3a8.67,8.67,0,0,1-2.59-6.14h4.5a5.21,5.21,0,0,0,2.17,4.18,8.46,8.46,0,0,0,4.81,1.22,7.26,7.26,0,0,0,4.93-1.49,3.79,3.79,0,0,0,1.32-2.91c0-2-1.43-3.44-4.18-3.81-1.17-.16-4.18-.53-6-.79-4-.64-6.56-3.13-6.56-7.2a7.73,7.73,0,0,1,2.22-5.24,10.94,10.94,0,0,1,7.89-3c3.55,0,6.72,1.12,8.52,3.39a7.64,7.64,0,0,1,1.91,5.14h-4.5a4.81,4.81,0,0,0-1.54-3.34,6.3,6.3,0,0,0-4.39-1.43,6.91,6.91,0,0,0-3.12.53,4,4,0,0,0-2.7,3.6c0,2.22,1.38,3.18,3.6,3.49,1.48.22,3.6.43,6.46.9,3.81.64,6.82,3.39,6.82,7.41A7.66,7.66,0,0,1,1309.77,280.4Z"/><path d="M1318.77,249.8v-5.29H1324v5.29Zm.31,32.93V255.94h4.61v26.79Z"/><path d="M1353.6,292.09c-2.6,2.55-7,3.13-10.8,3.13-3.55,0-7.57-.53-10.16-3.13a6.43,6.43,0,0,1-1.91-4.76,6.58,6.58,0,0,1,3.81-5.93,4.84,4.84,0,0,1-3.12-4.5,5.78,5.78,0,0,1,3.54-5.18,9.51,9.51,0,0,1-3.06-6.94,8.82,8.82,0,0,1,2.54-6.51,10.49,10.49,0,0,1,7.94-3,11.4,11.4,0,0,1,6.14,1.59,5.66,5.66,0,0,1,5.5-3.76,11.75,11.75,0,0,1,1.32.11v3.65a6,6,0,0,0-1,0,3.06,3.06,0,0,0-3.28,2.43,8.63,8.63,0,0,1,1.74,5.56,9.51,9.51,0,0,1-2.43,6.41,10.54,10.54,0,0,1-8,3.17,11.86,11.86,0,0,1-4.5-.74,3,3,0,0,0-2.28,2.38c-.16,2.33,2.33,2.6,4,2.65s5.3,0,5.3,0c3.17,0,6.72.63,8.84,2.81a7.19,7.19,0,0,1,2.11,5.24A7.5,7.5,0,0,1,1353.6,292.09Zm-10.54-9.63h-4.87a4.63,4.63,0,0,0-3.38,4.24,3.78,3.78,0,0,0,1.11,2.8c1.75,1.75,4.82,1.85,7.14,1.85s5.61-.21,7.31-1.9a3.74,3.74,0,0,0,1.11-2.75C1351.48,282.14,1346.45,282.46,1343.06,282.46Zm-.74-23.55a5.93,5.93,0,1,0,0,11.85,5.81,5.81,0,0,0,6.09-6C1348.41,261.39,1346.13,258.91,1342.32,258.91Z"/><path d="M1378.21,282.73v-17c0-4-1.64-6.4-5.87-6.4-2.6,0-4.66,1.69-5.82,4.13-.9,2-1,4.76-1,6.83v12.44h-4.5V255.94H1365l.37,4c1.38-3.07,5.08-4.71,8.1-4.71,6.09,0,9.26,3.66,9.26,9.85v17.63Z"/><path d="M1413.05,270.82h-19a9.87,9.87,0,0,0,2.59,6.72,7.64,7.64,0,0,0,9.9.16,5.78,5.78,0,0,0,1.59-2.91h4.39a9.86,9.86,0,0,1-4.13,6.61,12.33,12.33,0,0,1-6.83,2,11.38,11.38,0,0,1-8.89-4,15.18,15.18,0,0,1-3.34-9.95,16.39,16.39,0,0,1,2.07-8.58,11.48,11.48,0,0,1,10.11-5.61,10.81,10.81,0,0,1,8.15,3.44,13.86,13.86,0,0,1,3.39,9.43Zm-6.2-9.32a6.36,6.36,0,0,0-5.29-2.44c-4.87,0-7.25,4-7.36,7.89h14.29A9.35,9.35,0,0,0,1406.85,261.5Z"/><path d="M1432.1,260.12a7.39,7.39,0,0,0-5.08,2.12c-2.17,2.06-2.43,5.77-2.43,8.58v11.91h-4.45V255.94h4l.37,4.71a8.32,8.32,0,0,1,8-4.87,15.13,15.13,0,0,1,2.12.16v4.39A13.88,13.88,0,0,0,1432.1,260.12Z"/><path d="M1457.67,280.4c-2.06,2.11-5.24,3-8.73,3s-6.41-.79-8.68-3a8.68,8.68,0,0,1-2.6-6.14h4.5a5.21,5.21,0,0,0,2.17,4.18,8.52,8.52,0,0,0,4.82,1.22,7.23,7.23,0,0,0,4.92-1.49,3.79,3.79,0,0,0,1.32-2.91c0-2-1.42-3.44-4.18-3.81-1.16-.16-4.18-.53-6-.79-4-.64-6.56-3.13-6.56-7.2a7.68,7.68,0,0,1,2.22-5.24,10.9,10.9,0,0,1,7.89-3c3.54,0,6.72,1.12,8.52,3.39a7.69,7.69,0,0,1,1.9,5.14h-4.5a4.85,4.85,0,0,0-1.53-3.34,6.3,6.3,0,0,0-4.39-1.43,7,7,0,0,0-3.13.53,4,4,0,0,0-2.7,3.6c0,2.22,1.38,3.18,3.6,3.49,1.48.22,3.6.43,6.46.9,3.81.64,6.83,3.39,6.83,7.41A7.66,7.66,0,0,1,1457.67,280.4Z"/><path d="M1016.79,175.43H1005l-30.41-90.2h11.71l24.93,76.21,24.43-76.21h11.57Z"/><path d="M1059.15,175.43V85.23h11.58v90.2Z"/><path d="M1149,168.05c-6.23,6.11-15.9,9-25.57,9-10.94,0-19.71-3.05-25.82-8.65a29.89,29.89,0,0,1-9.67-21.62h11.83a20.57,20.57,0,0,0,6.36,14.24c4.07,3.95,10.94,5.6,17.3,5.6,6.87,0,12.73-1.4,16.8-5.21a13.31,13.31,0,0,0,4.58-10.56c0-7-4.46-12.85-15.14-14.51-5-.76-9.42-1.39-14.25-2.16-13.48-2-24-9.54-24-23.91a24.87,24.87,0,0,1,7.88-17.81c6.24-5.86,14.25-8.91,23.67-8.91,8.77,0,17.42,2.93,23.4,8.65a27.1,27.1,0,0,1,8.65,19.34h-11.83a18.81,18.81,0,0,0-4.45-11.32c-3.43-4-8.91-6.24-15.9-6.24-6.49,0-12.09,1.78-16,6.24A14.32,14.32,0,0,0,1103,110c0,8.14,6.74,11.83,13.49,12.72,5.08.64,10,1.53,15,2.29,15,2.17,25.06,11.32,25.06,25.57A23.47,23.47,0,0,1,1149,168.05Z"/><path d="M1174.41,175.43V85.23H1186v90.2Z"/><path d="M1237.38,95.79v79.64h-11.45V95.79h-26.84V85.23h65.13V95.79Z"/><path d="M1335.72,177.08c-20.23,0-33-12.21-33-34.73V85.23h11.32v57.38c0,14.37,6,23.91,21.63,23.91s21.63-9.54,21.63-23.91V85.23h11.32v57.12C1368.67,164.87,1356,177.08,1335.72,177.08Z"/><path d="M1444.36,168.05c-6.23,6.11-15.9,9-25.57,9-10.94,0-19.71-3.05-25.82-8.65a29.89,29.89,0,0,1-9.67-21.62h11.83a20.57,20.57,0,0,0,6.36,14.24c4.07,3.95,10.94,5.6,17.3,5.6,6.87,0,12.73-1.4,16.8-5.21a13.31,13.31,0,0,0,4.58-10.56c0-7-4.46-12.85-15.14-14.51-5-.76-9.42-1.39-14.25-2.16-13.48-2-24-9.54-24-23.91a24.87,24.87,0,0,1,7.88-17.81c6.24-5.86,14.25-8.91,23.67-8.91,8.77,0,17.42,2.93,23.4,8.65a27.1,27.1,0,0,1,8.65,19.34h-11.83a18.81,18.81,0,0,0-4.45-11.32c-3.43-4-8.9-6.24-15.9-6.24-6.49,0-12.09,1.78-16,6.24a14.32,14.32,0,0,0-3.69,9.79c0,8.14,6.74,11.83,13.49,12.72,5.08.64,10,1.53,15,2.29,15,2.17,25.06,11.32,25.06,25.57A23.47,23.47,0,0,1,1444.36,168.05Z"/><path d="M992.53,345.71c-1.3,1.3-3.3,2-6,2h-6v9.45h-3.06V332.82h9c2.85,0,4.88.79,6.18,2.2a7.42,7.42,0,0,1,1.86,5.15A7.54,7.54,0,0,1,992.53,345.71Zm-6.08-10.11h-5.91V345h5.94c3.27,0,4.92-1.51,4.92-4.78C991.4,337.08,989.47,335.6,986.45,335.6Z"/><path d="M1011.09,357.42a2.47,2.47,0,0,1-2.51-2.64h-.07a6.34,6.34,0,0,1-5.6,2.85c-4,0-6-2.68-6-5.36,0-2.24,1.44-5.16,6.18-5.43l5.3-.31v-1.27a3.44,3.44,0,0,0-.9-2.65,3.9,3.9,0,0,0-2.85-.89,4.32,4.32,0,0,0-3.16,1,2.86,2.86,0,0,0-.86,2.1h-2.85a5.17,5.17,0,0,1,1.51-3.65,7.51,7.51,0,0,1,5.36-1.85c3.37,0,5.29,1.44,6.12,3.33a6.71,6.71,0,0,1,.51,2.68v8.42c0,.93.38,1.17,1,1.17a4.41,4.41,0,0,0,.76-.1V357A4,4,0,0,1,1011.09,357.42Zm-2.68-8.62-4.68.27c-1.75.11-3.81.93-3.81,3.13,0,1.55,1,3,3.43,3a4.91,4.91,0,0,0,3.58-1.41,5.62,5.62,0,0,0,1.48-3.95Z"/><path d="M1025.07,342.51a4.81,4.81,0,0,0-3.3,1.37c-1.41,1.34-1.58,3.75-1.58,5.57v7.73h-2.89V339.79h2.58l.24,3.06a5.4,5.4,0,0,1,5.19-3.16,10.67,10.67,0,0,1,1.38.1v2.86A8.06,8.06,0,0,0,1025.07,342.51Z"/><path d="M1030,335.81v-3.44h3.4v3.44Zm.2,21.37V339.79h3v17.39Z"/><path d="M1050.7,355.67a9.12,9.12,0,0,1-11.3,0,5.61,5.61,0,0,1-1.69-4h2.92a3.42,3.42,0,0,0,1.41,2.72,5.56,5.56,0,0,0,3.13.79,4.77,4.77,0,0,0,3.2-1,2.47,2.47,0,0,0,.86-1.89c0-1.31-.93-2.24-2.72-2.48-.76-.1-2.71-.34-3.92-.51-2.61-.41-4.26-2-4.26-4.68a5,5,0,0,1,1.45-3.4,7.06,7.06,0,0,1,5.12-1.92,6.9,6.9,0,0,1,5.53,2.2,5,5,0,0,1,1.24,3.33h-2.92a3.17,3.17,0,0,0-1-2.16,4.05,4.05,0,0,0-2.85-.93,4.54,4.54,0,0,0-2,.34,2.61,2.61,0,0,0-1.75,2.34c0,1.44.89,2.06,2.33,2.27,1,.13,2.34.27,4.2.58a4.95,4.95,0,0,1,3,8.35Z"/><path d="M1064,357.63h-2.34l10.58-25.26h2.34Z"/><path d="M1084.51,357.18v-2.51l9.66-11.92a5.33,5.33,0,0,0,1.3-3.44c0-2.44-1.4-3.85-3.91-3.85-2.13,0-4.06,1.17-4.06,4.33h-3a6.64,6.64,0,0,1,7-7,6.93,6.93,0,0,1,5.85,2.75,6.17,6.17,0,0,1,1.09,3.71,7.84,7.84,0,0,1-2,5.08l-8.11,10.07h10.51v2.75Z"/><path d="M1103.34,348.18v-2.72h10.21v2.72Z"/><path d="M1131.14,355.33a7.45,7.45,0,0,1-5.63,2.3,7.1,7.1,0,0,1-5.85-3c-1.71-2.37-2-5.7-2-9.1s.17-6.94,1.78-9.52a7.08,7.08,0,0,1,6.22-3.23,6.86,6.86,0,0,1,4.95,2,6.39,6.39,0,0,1,1.93,4.29h-3a3.76,3.76,0,0,0-1.34-2.68,4,4,0,0,0-2.68-.93,4.11,4.11,0,0,0-3.26,1.45c-1.52,1.72-1.65,4.81-1.69,7.32.76-1.65,3-2.79,5.29-2.79a7.08,7.08,0,0,1,5,1.86,9.05,9.05,0,0,1,.24,12Zm-2.2-9.9a4.33,4.33,0,0,0-3.37-1.37,4.26,4.26,0,0,0-3.33,1.44,5.83,5.83,0,0,0-1.34,4,5.68,5.68,0,0,0,1.41,4,4.35,4.35,0,0,0,3.33,1.44,4.22,4.22,0,0,0,3.3-1.37,5.86,5.86,0,0,0,1.41-4.09A6,6,0,0,0,1128.94,345.43Z"/><path d="M1160.11,355.19a10,10,0,0,1-6.91,2.44,10.06,10.06,0,0,1-7-2.34,8.06,8.06,0,0,1-2.62-5.84h3.2a5.55,5.55,0,0,0,1.72,3.85,6.91,6.91,0,0,0,4.67,1.51,6.43,6.43,0,0,0,4.54-1.41,3.6,3.6,0,0,0,1.23-2.85c0-1.89-1.2-3.47-4.09-3.92l-3.84-.58c-3.65-.55-6.5-2.58-6.5-6.46a6.73,6.73,0,0,1,2.13-4.81,9.07,9.07,0,0,1,6.39-2.41,9.18,9.18,0,0,1,6.33,2.34,7.35,7.35,0,0,1,2.33,5.22h-3.19a5.09,5.09,0,0,0-1.21-3.06,6.37,6.37,0,0,0-8.62,0,3.89,3.89,0,0,0-1,2.65c0,2.2,1.82,3.2,3.65,3.44,1.37.17,2.71.41,4.05.61,4.06.59,6.77,3.06,6.77,6.91A6.36,6.36,0,0,1,1160.11,355.19Z"/><path d="M1180.72,349.45h-12.3a6.37,6.37,0,0,0,1.69,4.36,4.94,4.94,0,0,0,6.42.11,3.67,3.67,0,0,0,1-1.89h2.86a6.42,6.42,0,0,1-2.69,4.29,7.94,7.94,0,0,1-4.43,1.31,7.41,7.41,0,0,1-5.77-2.61,9.89,9.89,0,0,1-2.17-6.46,10.65,10.65,0,0,1,1.34-5.57,7.44,7.44,0,0,1,6.57-3.64,7,7,0,0,1,5.29,2.23,9,9,0,0,1,2.2,6.12Zm-4-6.05a4.12,4.12,0,0,0-3.43-1.58c-3.16,0-4.71,2.58-4.78,5.12h9.28A6.08,6.08,0,0,0,1176.7,343.4Z"/><path d="M1198.08,355.91a6.81,6.81,0,0,1-4.78,1.75,6.06,6.06,0,0,1-5-2.47v9.45h-2.92V339.83h2.58l.2,2.27a6.09,6.09,0,0,1,5.19-2.72,6.6,6.6,0,0,1,4.91,1.89,11.69,11.69,0,0,1-.13,14.64Zm-5.26-14.05A4,4,0,0,0,1190,343c-1.44,1.27-1.92,3.37-1.92,5.53s.48,4.26,1.92,5.54a4.06,4.06,0,0,0,2.82,1.13c3.88,0,4.91-3.47,4.91-6.67S1196.7,341.86,1192.82,341.86Z"/><path d="M1212.27,357.18v-2.51l9.65-11.92a5.29,5.29,0,0,0,1.31-3.44c0-2.44-1.41-3.85-3.92-3.85-2.13,0-4,1.17-4,4.33h-3a6.64,6.64,0,0,1,7-7,6.9,6.9,0,0,1,5.84,2.75,6.18,6.18,0,0,1,1.1,3.71,7.8,7.8,0,0,1-2,5.08l-8.11,10.07h10.52v2.75Z"/><path d="M1243.47,355.6a7.56,7.56,0,0,1-10.31,0c-2.41-2.44-2.82-5.77-2.82-10.38s.41-8,2.82-10.41a7.67,7.67,0,0,1,10.31,0c2.4,2.44,2.82,5.81,2.82,10.41S1245.87,353.16,1243.47,355.6Zm-2.2-19a4.23,4.23,0,0,0-3-1.1,4.18,4.18,0,0,0-3,1.1c-2,1.92-2,5.39-2,8.62s-.07,6.7,2,8.63a4.18,4.18,0,0,0,3,1.1,4.23,4.23,0,0,0,3-1.1c2-1.93,2-5.4,2-8.63S1243.3,338.52,1241.27,336.6Z"/><path d="M1257.25,357.18V336.63l-5.67,4.16v-3.26l5.84-4.23h2.82v23.88Z"/><path d="M1282,355.33a7.45,7.45,0,0,1-5.64,2.3,7.09,7.09,0,0,1-5.84-3c-1.71-2.37-2-5.7-2-9.1s.17-6.94,1.78-9.52a7.08,7.08,0,0,1,6.22-3.23,6.86,6.86,0,0,1,5,2,6.34,6.34,0,0,1,1.92,4.29h-3a3.76,3.76,0,0,0-1.34-2.68,4,4,0,0,0-2.68-.93,4.15,4.15,0,0,0-3.27,1.45c-1.51,1.72-1.65,4.81-1.68,7.32.76-1.65,3-2.79,5.29-2.79a7.08,7.08,0,0,1,5,1.86,9.05,9.05,0,0,1,.24,12Zm-2.2-9.9a4.33,4.33,0,0,0-3.37-1.37,4.26,4.26,0,0,0-3.33,1.44,5.83,5.83,0,0,0-1.34,4,5.68,5.68,0,0,0,1.41,4,4.35,4.35,0,0,0,3.33,1.44,4.23,4.23,0,0,0,3.3-1.37,5.86,5.86,0,0,0,1.41-4.09A6,6,0,0,0,1279.82,345.43Z"/><path d="M992.22,398.42V387.18H980.54v11.24h-3.06V374.05h3.06v10.17h11.68V374.05h3.06v24.37Z"/><path d="M1014.21,398.66a2.48,2.48,0,0,1-2.51-2.65h-.07a6.33,6.33,0,0,1-5.6,2.85c-4,0-6-2.68-6-5.36,0-2.23,1.45-5.15,6.19-5.43l5.29-.31v-1.27a3.41,3.41,0,0,0-.89-2.64,3.92,3.92,0,0,0-2.85-.9,4.36,4.36,0,0,0-3.17,1,2.89,2.89,0,0,0-.85,2.1h-2.86a5.13,5.13,0,0,1,1.52-3.64,7.45,7.45,0,0,1,5.36-1.86c3.36,0,5.29,1.44,6.11,3.33a6.57,6.57,0,0,1,.52,2.68V395c0,.93.38,1.17,1,1.17a4.41,4.41,0,0,0,.76-.1v2.16A4.07,4.07,0,0,1,1014.21,398.66Zm-2.68-8.63-4.67.28c-1.75.1-3.82.92-3.82,3.12,0,1.55,1,3,3.44,3a4.85,4.85,0,0,0,3.57-1.41,5.59,5.59,0,0,0,1.48-3.95Z"/><path d="M1024,398.62c-2.54,0-3.64-1.51-3.64-4.26V373.61h2.92v20.58c0,1.17.38,1.79,1.58,1.79a9.64,9.64,0,0,0,1.2,0v2.48A7.81,7.81,0,0,1,1024,398.62Z"/><path d="M1033.62,398.62c-2.54,0-3.64-1.51-3.64-4.26V373.61h2.92v20.58c0,1.17.38,1.79,1.58,1.79a9.76,9.76,0,0,0,1.21,0v2.48A8,8,0,0,1,1033.62,398.62Z"/><path d="M1053.76,398.42V377.87l-5.67,4.15v-3.26l5.84-4.23h2.82v23.89Z"/><path d="M1088.6,396.42a9.91,9.91,0,0,1-6.9,2.44,10.06,10.06,0,0,1-7-2.33,8.07,8.07,0,0,1-2.61-5.85h3.19a5.58,5.58,0,0,0,1.72,3.85,6.89,6.89,0,0,0,4.68,1.51,6.42,6.42,0,0,0,4.53-1.4,3.6,3.6,0,0,0,1.24-2.86c0-1.89-1.2-3.47-4.09-3.91l-3.85-.59c-3.64-.55-6.49-2.58-6.49-6.46a6.71,6.71,0,0,1,2.13-4.81,9,9,0,0,1,6.39-2.4,9.17,9.17,0,0,1,6.32,2.33,7.32,7.32,0,0,1,2.34,5.23H1087a5.06,5.06,0,0,0-1.2-3.06,6.35,6.35,0,0,0-8.63,0,3.89,3.89,0,0,0-1,2.64c0,2.2,1.82,3.2,3.64,3.44,1.37.17,2.71.41,4.06.62,4,.58,6.77,3.06,6.77,6.9A6.33,6.33,0,0,1,1088.6,396.42Z"/><path d="M1100.77,398.66c-3.75,0-4.78-2.37-4.78-4.71V383.54h-3.37V381H1096V376.6l2.92-.69V381h5.16v2.51h-5.16V393.6c0,1.69.72,2.38,2.34,2.38a21.56,21.56,0,0,0,3-.31v2.51A12.86,12.86,0,0,1,1100.77,398.66Z"/><path d="M1120.76,398.66a2.47,2.47,0,0,1-2.5-2.65h-.07a6.34,6.34,0,0,1-5.6,2.85c-4,0-6-2.68-6-5.36,0-2.23,1.44-5.15,6.18-5.43l5.29-.31v-1.27a3.41,3.41,0,0,0-.89-2.64,3.9,3.9,0,0,0-2.85-.9,4.32,4.32,0,0,0-3.16,1,2.86,2.86,0,0,0-.86,2.1h-2.85a5.09,5.09,0,0,1,1.51-3.64,7.47,7.47,0,0,1,5.36-1.86c3.37,0,5.29,1.44,6.12,3.33a6.74,6.74,0,0,1,.51,2.68V395c0,.93.38,1.17,1,1.17a4.41,4.41,0,0,0,.76-.1v2.16A4,4,0,0,1,1120.76,398.66Zm-2.68-8.63-4.67.28c-1.75.1-3.81.92-3.81,3.12,0,1.55,1,3,3.43,3a4.88,4.88,0,0,0,3.58-1.41,5.58,5.58,0,0,0,1.47-3.95Z"/><path d="M1138.12,398.42v-11c0-2.62-1.07-4.16-3.82-4.16a4.27,4.27,0,0,0-3.78,2.68,11.53,11.53,0,0,0-.62,4.43v8.08H1127V381h2.55l.24,2.61a5.89,5.89,0,0,1,5.25-3.06c4,0,6,2.37,6,6.39v11.45Z"/><path d="M1158.22,398.42l-.21-2.27a6.1,6.1,0,0,1-5.19,2.71,6.6,6.6,0,0,1-4.91-1.89,11.68,11.68,0,0,1,.14-14.64,6.81,6.81,0,0,1,4.77-1.75c1.89,0,4.13.89,5,2.48v-9.45h2.92v24.81Zm-2.1-14.23a4,4,0,0,0-2.82-1.13c-3.88,0-4.91,3.47-4.91,6.66s1,6.67,4.91,6.67a4,4,0,0,0,2.82-1.14c1.44-1.27,1.92-3.36,1.92-5.53S1157.56,385.46,1156.12,384.19Z"/><path d="M1189.21,396.29a9.56,9.56,0,0,1-13.13,0c-2.64-2.58-3-6.16-3-10s.41-7.46,3-10a9.43,9.43,0,0,1,6.6-2.61,9.33,9.33,0,0,1,6.5,2.5,8.35,8.35,0,0,1,2.4,5.57h-3.16a5.26,5.26,0,0,0-1.34-3.4,5.88,5.88,0,0,0-4.4-1.79,6.2,6.2,0,0,0-4.43,1.86c-2,2.06-2.06,5.36-2.06,7.9s.07,5.84,2.06,7.9a6.16,6.16,0,0,0,4.43,1.86,6,6,0,0,0,4.43-1.86,5.54,5.54,0,0,0,1.34-3.5h3.17A8.54,8.54,0,0,1,1189.21,396.29Z"/><path d="M1202.3,398.42V377.87l-5.67,4.15v-3.26l5.84-4.23h2.82v23.89Z"/><path d="M1214,398.42v-2.51l9.65-11.93a5.28,5.28,0,0,0,1.31-3.43c0-2.44-1.41-3.85-3.92-3.85-2.13,0-4,1.17-4,4.33h-3a6.64,6.64,0,0,1,7-7,6.92,6.92,0,0,1,5.84,2.75,6.18,6.18,0,0,1,1.1,3.71,7.84,7.84,0,0,1-2,5.09l-8.11,10.07h10.52v2.75Z"/><line class="cls-6" x1="288.2" y1="411.2" x2="241.41" y2="411.2"/><line class="cls-6" x1="288.2" y1="411.2" x2="244.97" y2="393.29"/><line class="cls-6" x1="288.2" y1="411.2" x2="270.29" y2="367.97"/><line class="cls-6" x1="288.2" y1="411.2" x2="306.1" y2="367.97"/><line class="cls-6" x1="288.2" y1="411.2" x2="331.43" y2="393.29"/><line class="cls-6" x1="288.2" y1="411.2" x2="288.2" y2="364.41"/><line class="cls-6" x1="288.2" y1="411.2" x2="334.99" y2="411.2"/><line class="cls-6" x1="288.2" y1="411.2" x2="321.28" y2="378.11"/><line class="cls-6" x1="288.2" y1="411.2" x2="255.11" y2="378.11"/><path class="cls-8" d="M812.53,440.09a5.15,5.15,0,0,0-4.6-5.11,5.14,5.14,0,0,0-7.23-7.22,5.13,5.13,0,0,0-10.21,0,5.13,5.13,0,0,0-7.22,7.22,5.13,5.13,0,0,0,0,10.21,5.14,5.14,0,0,0,7.22,7.23,5.13,5.13,0,0,0,10.21,0,5.14,5.14,0,0,0,7.23-7.23A5.14,5.14,0,0,0,812.53,440.09Z"/><rect class="cls-9" x="1019.28" y="818.17" width="852.1" height="218.63"/><polygon points="1525.45 818.17 1871.38 818.17 1871.38 1036.8 1394.13 1036.8 1525.45 818.17"/><path class="cls-10" d="M1567.79,927.7V889.52h5.51l12.52,33.67h.1l12.3-33.67h5.46V927.7h-3.6v-34H1600l-12.51,34h-3.39l-12.57-34h-.1v34Z"/><path class="cls-10" d="M1608.61,927.7l15-38.18h4.08l14.64,38.18h-3.72l-4.4-12h-17.39l-4.5,12Zm9.44-15.06h15l-7.47-20Z"/><path class="cls-10" d="M1648.75,927.7V889.52h3.6V927.7Z"/><path class="cls-10" d="M1663.7,916.3a11.27,11.27,0,0,0,1.14,4.32,8.5,8.5,0,0,0,2.39,2.89,9.54,9.54,0,0,0,3.36,1.62,16.31,16.31,0,0,0,4.09.5,13.48,13.48,0,0,0,4.4-.64,8.25,8.25,0,0,0,3-1.72,6.64,6.64,0,0,0,1.72-2.52,8.26,8.26,0,0,0,.56-3,6,6,0,0,0-1-3.61,7.87,7.87,0,0,0-2.62-2.25,16.18,16.18,0,0,0-3.71-1.4c-1.4-.36-2.83-.7-4.3-1s-2.9-.73-4.29-1.19a13.5,13.5,0,0,1-3.72-1.86,8.93,8.93,0,0,1-2.62-3,9.57,9.57,0,0,1-1-4.64,9.33,9.33,0,0,1,.83-3.82,9.52,9.52,0,0,1,2.43-3.29,12.12,12.12,0,0,1,4.06-2.28,17.26,17.26,0,0,1,5.62-.84,16.14,16.14,0,0,1,5.65.9,11.29,11.29,0,0,1,4,2.46,10.29,10.29,0,0,1,2.39,3.63,12.19,12.19,0,0,1,.79,4.41h-3.45a8.63,8.63,0,0,0-.76-3.77,7.19,7.19,0,0,0-2.1-2.6,9,9,0,0,0-3-1.48,12.8,12.8,0,0,0-3.5-.48,12.33,12.33,0,0,0-4.64.77,8.15,8.15,0,0,0-3,2,6.57,6.57,0,0,0-1.54,2.7,6.37,6.37,0,0,0-.16,3,5.19,5.19,0,0,0,1.48,3,9.42,9.42,0,0,0,2.87,1.83,21.2,21.2,0,0,0,3.73,1.17c1.36.3,2.75.61,4.17,1s2.78.73,4.1,1.19a12.62,12.62,0,0,1,3.53,1.86,8.52,8.52,0,0,1,2.47,3,10.22,10.22,0,0,1,.92,4.59,9.9,9.9,0,0,1-3.65,8.22q-3.66,2.91-10.29,2.91a19,19,0,0,1-5.51-.76,12.14,12.14,0,0,1-4.4-2.34,10.65,10.65,0,0,1-2.89-3.87,13.15,13.15,0,0,1-1-5.43Z"/><path class="cls-10" d="M1693.13,908.66a26.21,26.21,0,0,1,1.14-7.84,18.93,18.93,0,0,1,3.36-6.39,16,16,0,0,1,5.52-4.32,17.21,17.21,0,0,1,7.58-1.59,18.44,18.44,0,0,1,7.82,1.56,15.79,15.79,0,0,1,5.62,4.29,18.69,18.69,0,0,1,3.39,6.42,26.51,26.51,0,0,1,1.14,7.87,25.79,25.79,0,0,1-1.14,7.77,18.82,18.82,0,0,1-3.37,6.36,15.87,15.87,0,0,1-5.56,4.32,19.63,19.63,0,0,1-15.48,0,15.82,15.82,0,0,1-5.57-4.32,18.58,18.58,0,0,1-3.34-6.36A26.44,26.44,0,0,1,1693.13,908.66Zm17.81,17a13.57,13.57,0,0,0,6.39-1.41,12.76,12.76,0,0,0,4.4-3.73,15.79,15.79,0,0,0,2.54-5.41,24.67,24.67,0,0,0,.83-6.42,24.15,24.15,0,0,0-1-7.13,15.6,15.6,0,0,0-2.84-5.38,12.25,12.25,0,0,0-4.51-3.39,14.54,14.54,0,0,0-5.94-1.17,13.29,13.29,0,0,0-6.33,1.43,12.94,12.94,0,0,0-4.4,3.79,16.33,16.33,0,0,0-2.55,5.44,25.7,25.7,0,0,0,0,12.88,16,16,0,0,0,2.55,5.41,12.41,12.41,0,0,0,4.4,3.71A13.89,13.89,0,0,0,1710.94,925.63Z"/><path class="cls-10" d="M1739.46,894.4h-.1v33.3h-3.61V889.52h4.09l22.05,33.35h.11V889.52h3.6V927.7h-4.19Z"/><path class="cls-10" d="M1589.53,960.91a10.11,10.11,0,0,0,1.3-3.58,25.72,25.72,0,0,0,.29-3.84h3.18a30.11,30.11,0,0,1-.66,5.16,14.48,14.48,0,0,1-2,4.8l6.21,7.32h-4.29l-3.72-4.51a15.1,15.1,0,0,1-5.37,4.24,16.33,16.33,0,0,1-6.69,1.28,13.13,13.13,0,0,1-4.68-.83,11.47,11.47,0,0,1-3.79-2.3,10.63,10.63,0,0,1-2.55-3.58,11.31,11.31,0,0,1-.93-4.64,10.29,10.29,0,0,1,.74-3.92,12.41,12.41,0,0,1,2-3.29,14.48,14.48,0,0,1,2.89-2.62,21.83,21.83,0,0,1,3.5-2,29.34,29.34,0,0,1-2.81-3.9,8.75,8.75,0,0,1-1.27-4.64,7.35,7.35,0,0,1,.68-3.21,7.07,7.07,0,0,1,1.86-2.36,8.08,8.08,0,0,1,2.73-1.43,11.22,11.22,0,0,1,3.31-.47,8.76,8.76,0,0,1,3.24.58,7.72,7.72,0,0,1,2.54,1.59,7.12,7.12,0,0,1,2.23,5.2,8.22,8.22,0,0,1-.61,3.31,8.42,8.42,0,0,1-1.64,2.49,13.31,13.31,0,0,1-2.42,2c-.91.6-1.87,1.2-2.86,1.8Zm-12.67-10a15.59,15.59,0,0,0-2.95,1.77,12.44,12.44,0,0,0-2.33,2.31,11.6,11.6,0,0,0-1.56,2.73,8,8,0,0,0-.59,3,8.32,8.32,0,0,0,.67,3.42,7.74,7.74,0,0,0,1.8,2.57,8.18,8.18,0,0,0,2.7,1.64,9.75,9.75,0,0,0,3.42.58,10.42,10.42,0,0,0,5.44-1.4,17,17,0,0,0,4.27-3.69Zm6.78-8.75a4.67,4.67,0,0,0,.4-2.25,4.59,4.59,0,0,0-.69-2.18,5,5,0,0,0-1.67-1.62,4.88,4.88,0,0,0-2.54-.63,5.47,5.47,0,0,0-1.91.32,5.35,5.35,0,0,0-1.62.9,4.2,4.2,0,0,0-1.14,1.43,4.25,4.25,0,0,0-.42,1.91,4.85,4.85,0,0,0,.42,1.85,13.21,13.21,0,0,0,1,2c.41.63.84,1.24,1.3,1.82s.87,1.09,1.22,1.52q1.59-1,3.21-2.1A7,7,0,0,0,1583.64,942.14Z"/><path class="cls-10" d="M1602.31,951.74a26.23,26.23,0,0,1,1.14-7.85,18.93,18.93,0,0,1,3.36-6.39,16,16,0,0,1,5.52-4.32,17.21,17.21,0,0,1,7.58-1.59,18.44,18.44,0,0,1,7.82,1.56,15.93,15.93,0,0,1,5.62,4.3,18.64,18.64,0,0,1,3.39,6.41,26.52,26.52,0,0,1,1.14,7.88,25.77,25.77,0,0,1-1.14,7.76,18.82,18.82,0,0,1-3.37,6.36,15.78,15.78,0,0,1-5.56,4.33,19.63,19.63,0,0,1-15.48,0,15.73,15.73,0,0,1-5.57-4.33,18.41,18.41,0,0,1-3.34-6.36A26.42,26.42,0,0,1,1602.31,951.74Zm17.81,17a13.69,13.69,0,0,0,6.39-1.4,12.9,12.9,0,0,0,4.4-3.74,15.79,15.79,0,0,0,2.54-5.41,24.65,24.65,0,0,0,.83-6.41,24.17,24.17,0,0,0-1-7.14,15.6,15.6,0,0,0-2.84-5.38,12.25,12.25,0,0,0-4.51-3.39,14.54,14.54,0,0,0-5.94-1.17,13.26,13.26,0,0,0-6.33,1.43,12.86,12.86,0,0,0-4.4,3.8,16.19,16.19,0,0,0-2.55,5.43,25.7,25.7,0,0,0,0,12.88,15.91,15.91,0,0,0,2.55,5.41,12.41,12.41,0,0,0,4.4,3.71A13.89,13.89,0,0,0,1620.12,968.7Z"/><path class="cls-10" d="M1645.52,970.77V932.6h13.78a21.23,21.23,0,0,1,5.73.68,10.39,10.39,0,0,1,3.89,2,7.37,7.37,0,0,1,2.2,3,10.64,10.64,0,0,1,.69,3.89,10,10,0,0,1-.53,3.47,7.45,7.45,0,0,1-1.38,2.44,6.28,6.28,0,0,1-1.93,1.54,8.22,8.22,0,0,1-2.25.77v.11a8.64,8.64,0,0,1,5.91,3.12,10.23,10.23,0,0,1,1.93,6.37,12.38,12.38,0,0,1-.92,5,8.49,8.49,0,0,1-2.58,3.34,10.22,10.22,0,0,1-4,1.83,21.29,21.29,0,0,1-5,.56Zm3.6-21.31h9.12A19.71,19.71,0,0,0,1663,949a8,8,0,0,0,3.07-1.41,5.08,5.08,0,0,0,1.67-2.28,8.72,8.72,0,0,0,.51-3.1,7.15,7.15,0,0,0-.59-3.05,4.53,4.53,0,0,0-1.85-2,9.51,9.51,0,0,0-3.31-1.11,30.86,30.86,0,0,0-5-.35h-8.32Zm0,18.23h9.17a43.18,43.18,0,0,0,5.17-.26,9.54,9.54,0,0,0,3.63-1.09,5.11,5.11,0,0,0,2.15-2.33,9.39,9.39,0,0,0,.72-4,8.07,8.07,0,0,0-.8-3.85,5.49,5.49,0,0,0-2.28-2.25,10.74,10.74,0,0,0-3.55-1.09,34,34,0,0,0-4.61-.29h-9.6Z"/><path class="cls-10" d="M1681.83,958.68c0,1.2.05,2.39.14,3.55a8.8,8.8,0,0,0,.79,3.16,5.15,5.15,0,0,0,2.07,2.25,7.5,7.5,0,0,0,3.9.85q3.7,0,5.22-2.12a10.5,10.5,0,0,0,1.51-6.15V932.6h3.6v27.72c0,3.72-.86,6.55-2.59,8.51s-4.46,2.95-8.17,2.95a10.73,10.73,0,0,1-5.19-1.09,7.87,7.87,0,0,1-3-2.92,11.59,11.59,0,0,1-1.46-4.18,31.33,31.33,0,0,1-.37-4.91Z"/><path class="cls-10" d="M1708.34,970.77V932.6h25.4v3.07H1712v13.79h19.67v3.07H1712v15.16h22.32v3.08Z"/><path class="cls-10" d="M1737.77,932.6h27.78v3.07h-12.09v35.1h-3.6v-35.1h-12.09Z"/><line class="cls-6" x1="1566.34" y1="818.17" x2="1435.01" y2="1036.8"/><path class="cls-11" d="M1234.29,900.94v16.81a18.47,18.47,0,0,1-18.46,18.46h0a18.47,18.47,0,0,1-18.46-18.46V900.94h36.92"/><line class="cls-12" x1="1146.52" y1="867.96" x2="1146.52" y2="853.17"/><line class="cls-12" x1="1146.52" y1="853.17" x2="1157.33" y2="853.17"/><line class="cls-12" x1="1146.52" y1="853.17" x2="1154.17" y2="845.53"/><line class="cls-12" x1="1146.52" y1="853.17" x2="1146.52" y2="839"/><path class="cls-12" d="M1162.28,890.44v72.4h111.25V926.45h0A25.51,25.51,0,0,0,1248,900.94h-50.65v-6.36a25.51,25.51,0,0,0-25.51-25.51h-25.34V905h7.57V898l14.42-14.41"/><line class="cls-12" x1="1146.52" y1="860.91" x2="1140.21" y2="860.91"/><path class="cls-12" d="M1147.18,857.14a3.78,3.78,0,0,1,0,7.55"/><path class="cls-12" d="M1150.3,842.78a3.78,3.78,0,1,0-7.55,0"/><path class="cls-12" d="M1234.29,900.94v16.81a18.47,18.47,0,0,1-18.46,18.46h0a18.47,18.47,0,0,1-18.46-18.46V900.94h36.92Z"/><path class="cls-12" d="M1178.91,962.84a18.46,18.46,0,0,1,18.46-18.46h0a18.45,18.45,0,0,1,18.46,18.46"/><line class="cls-12" x1="1193.71" y1="880.2" x2="1162.28" y2="911.64"/><polyline class="cls-12" points="1156.23 869.07 1156.23 878.78 1146.52 878.78"/><polyline class="cls-12" points="1273.53 953.32 1248.02 953.32 1248.02 900.94"/><line class="cls-12" x1="1116.22" y1="927.8" x2="1127.7" y2="927.8"/><polyline class="cls-12" points="1127.69 918.71 1116.22 918.71 1116.22 936.88 1127.71 936.88"/><line class="cls-12" x1="1116.22" y1="953.73" x2="1127.7" y2="953.73"/><polyline class="cls-12" points="1127.69 944.64 1116.22 944.64 1116.22 962.82 1127.71 962.82"/><line class="cls-12" x1="1134.11" y1="927.8" x2="1145.58" y2="927.8"/><polyline class="cls-12" points="1145.59 918.71 1134.11 918.71 1134.11 936.88 1145.6 936.88"/><polyline class="cls-12" points="1109.79 936.89 1097.47 936.89 1107.91 918.69 1096.25 918.69"/><line class="cls-12" x1="1222.36" y1="977.32" x2="1222.36" y2="983.23"/><path class="cls-12" d="M1162.28,977.32V990.5a14.48,14.48,0,0,0,14.48,14.48h0a14.48,14.48,0,0,0,14.48-14.48V977.32"/><line class="cls-12" x1="1176.76" y1="977.32" x2="1176.76" y2="983.23"/><path d="M1239.32,994.54l-.82-2.36h-4.33l-.8,2.36h-1.27l3.52-10h1.46l3.53,10Zm-3-8.72-1.76,5.18h3.54Z"/><path d="M1245.07,988.53a2,2,0,0,0-1.35.57,3.17,3.17,0,0,0-.65,2.28v3.16h-1.18v-7.12H1243l.1,1.26a2.19,2.19,0,0,1,2.12-1.3,5.27,5.27,0,0,1,.56,0v1.17A3.68,3.68,0,0,0,1245.07,988.53Z"/><path d="M1249.42,994.64a1.75,1.75,0,0,1-2-1.93v-4.26h-1.38v-1h1.38v-1.81l1.2-.28v2.09h2.11v1h-2.11v4.12c0,.69.29,1,.95,1a9.32,9.32,0,0,0,1.23-.12v1A5,5,0,0,1,1249.42,994.64Z"/><path d="M1252.34,985.79v-1.41h1.39v1.41Zm.09,8.75v-7.12h1.22v7.12Z"/><path d="M1260.84,993.92a3.75,3.75,0,0,1-4.63,0,2.27,2.27,0,0,1-.69-1.63h1.2a1.36,1.36,0,0,0,.57,1.11,2.27,2.27,0,0,0,1.28.33,1.93,1.93,0,0,0,1.31-.4,1,1,0,0,0,.35-.77c0-.54-.38-.92-1.11-1l-1.6-.22a1.85,1.85,0,0,1-1.75-1.91,2,2,0,0,1,.59-1.39,2.91,2.91,0,0,1,2.1-.79,2.86,2.86,0,0,1,2.27.9,2.09,2.09,0,0,1,.5,1.37H1260a1.31,1.31,0,0,0-.41-.89,1.67,1.67,0,0,0-1.17-.38,1.86,1.86,0,0,0-.83.14,1.07,1.07,0,0,0-.72,1c0,.59.37.84,1,.93.39.05,1,.11,1.72.23a2,2,0,0,1,1.25,3.42Z"/><path d="M1265.58,994.64a1.75,1.75,0,0,1-2-1.93v-4.26h-1.38v-1h1.38v-1.81l1.2-.28v2.09h2.11v1h-2.11v4.12c0,.69.29,1,1,1a9.32,9.32,0,0,0,1.23-.12v1A5,5,0,0,1,1265.58,994.64Z"/><path d="M1268.5,985.79v-1.41h1.39v1.41Zm.08,8.75v-7.12h1.23v7.12Z"/><path d="M1277,994a2.82,2.82,0,0,1-2,.77,3,3,0,0,1-2.61-1.33,5.2,5.2,0,0,1,0-4.81,3,3,0,0,1,2.59-1.34,2.82,2.82,0,0,1,2,.76,2.69,2.69,0,0,1,.84,1.83h-1.21a1.77,1.77,0,0,0-.5-1.11,1.66,1.66,0,0,0-1.16-.44,1.75,1.75,0,0,0-1.23.47A2.87,2.87,0,0,0,1273,991a2.9,2.9,0,0,0,.72,2.24,1.74,1.74,0,0,0,1.23.46,1.67,1.67,0,0,0,1.21-.47,1.72,1.72,0,0,0,.48-1.06h1.21A2.63,2.63,0,0,1,1277,994Z"/><path d="M1284.8,994.64a1,1,0,0,1-1-1.08h0a2.62,2.62,0,0,1-2.3,1.16,2.22,2.22,0,0,1-2.44-2.19c0-.91.59-2.11,2.53-2.22l2.16-.13v-.52a1.4,1.4,0,0,0-.36-1.08,1.59,1.59,0,0,0-1.17-.37,1.75,1.75,0,0,0-1.29.42,1.17,1.17,0,0,0-.36.86h-1.16A2.07,2.07,0,0,1,1280,988a3,3,0,0,1,2.19-.76,2.5,2.5,0,0,1,2.51,1.36,2.77,2.77,0,0,1,.21,1.1v3.45c0,.38.15.48.39.48a1.77,1.77,0,0,0,.31,0v.88A1.61,1.61,0,0,1,1284.8,994.64Zm-1.1-3.53-1.91.11c-.72,0-1.56.38-1.56,1.28,0,.64.39,1.23,1.41,1.23a2,2,0,0,0,1.46-.58,2.31,2.31,0,0,0,.6-1.62Z"/><path d="M1288.79,994.63c-1,0-1.49-.62-1.49-1.75v-8.5h1.2v8.43c0,.48.15.73.65.73h.49v1A3,3,0,0,1,1288.79,994.63Z"/><path d="M1293.65,996a1.93,1.93,0,0,1-1.93,1.51,3.74,3.74,0,0,1-1.08-.14v-1a3.11,3.11,0,0,0,.84.12,1,1,0,0,0,1.07-.72l.45-1.2-2.84-7.12h1.35l2.09,5.62,2-5.62h1.25Z"/><path d="M1302.6,985.72V989h4.65v1.18h-4.65v4.39h-1.25v-10h6.46v1.15Z"/><path d="M1312.55,988.53a1.94,1.94,0,0,0-1.35.57,3.17,3.17,0,0,0-.65,2.28v3.16h-1.18v-7.12h1.05l.1,1.26a2.21,2.21,0,0,1,2.13-1.3,5.27,5.27,0,0,1,.56,0v1.17A3.68,3.68,0,0,0,1312.55,988.53Z"/><path d="M1319.4,993.89a3.21,3.21,0,0,1-4.31,0,4.7,4.7,0,0,1,0-5.82,3.21,3.21,0,0,1,4.31,0,4.7,4.7,0,0,1,0,5.82Zm-.88-5.12a1.75,1.75,0,0,0-1.28-.5,1.79,1.79,0,0,0-1.28.5,4,4,0,0,0,0,4.42,1.75,1.75,0,0,0,1.28.51,1.72,1.72,0,0,0,1.28-.51,4,4,0,0,0,0-4.42Z"/><path d="M1331,994.54V990c0-1-.33-1.69-1.45-1.69a1.49,1.49,0,0,0-1.09.48,2.76,2.76,0,0,0-.6,2v3.78h-1.2V990c0-1-.29-1.69-1.43-1.69a1.52,1.52,0,0,0-1.21.64,3.16,3.16,0,0,0-.48,1.8v3.78h-1.19v-7.12h1l.11,1a2.16,2.16,0,0,1,2-1.2,2.07,2.07,0,0,1,2.12,1.35,2.35,2.35,0,0,1,2.2-1.35c1.61,0,2.37,1,2.37,2.62v4.68Z"/><path d="M1337.73,994.54v-10H1339v10Z"/><path d="M1344.77,988.53a1.94,1.94,0,0,0-1.35.57,3.17,3.17,0,0,0-.65,2.28v3.16h-1.18v-7.12h1.05l.1,1.26a2.2,2.2,0,0,1,2.12-1.3,5.46,5.46,0,0,1,.57,0v1.17A3.68,3.68,0,0,0,1344.77,988.53Z"/><path d="M1352,994.64a1,1,0,0,1-1-1.08h0a2.61,2.61,0,0,1-2.29,1.16,2.22,2.22,0,0,1-2.45-2.19c0-.91.59-2.11,2.53-2.22l2.17-.13v-.52a1.41,1.41,0,0,0-.37-1.08,1.59,1.59,0,0,0-1.17-.37,1.76,1.76,0,0,0-1.29.42,1.16,1.16,0,0,0-.35.86h-1.17a2.07,2.07,0,0,1,.62-1.49,3,3,0,0,1,2.19-.76,2.5,2.5,0,0,1,2.51,1.36,2.77,2.77,0,0,1,.21,1.1v3.45c0,.38.15.48.39.48a1.77,1.77,0,0,0,.31,0v.88A1.61,1.61,0,0,1,1352,994.64Zm-1.09-3.53-1.92.11c-.71,0-1.56.38-1.56,1.28,0,.64.4,1.23,1.41,1.23a2,2,0,0,0,1.46-.58,2.32,2.32,0,0,0,.61-1.62Z"/><path d="M1359.13,994.54V990c0-1.07-.44-1.71-1.57-1.71a1.73,1.73,0,0,0-1.54,1.1,4.7,4.7,0,0,0-.26,1.82v3.3h-1.19v-7.12h1l.1,1.07a2.41,2.41,0,0,1,2.15-1.25,2.3,2.3,0,0,1,2.46,2.62v4.68Z"/><path d="M1235.3,1000.6v6.6h-1v-6.6h-2.22v-.88h5.4v.88Z"/><path d="M1242.83,1004.83h-3.77a2,2,0,0,0,.51,1.34,1.53,1.53,0,0,0,2,0,1.19,1.19,0,0,0,.31-.58h.88a2,2,0,0,1-.83,1.32,2.47,2.47,0,0,1-1.36.4,2.27,2.27,0,0,1-1.77-.81,3,3,0,0,1-.66-2,3.24,3.24,0,0,1,.41-1.71,2.29,2.29,0,0,1,2-1.11,2.16,2.16,0,0,1,1.63.68,2.77,2.77,0,0,1,.67,1.88Zm-1.23-1.86a1.28,1.28,0,0,0-1.06-.48,1.48,1.48,0,0,0-1.46,1.57h2.85A1.9,1.9,0,0,0,1241.6,1003Zm-1.84-1.6-.31-.5,1.79-1.29.47.74Z"/><path d="M1247.66,1007.2v-3.39c0-.8-.32-1.27-1.17-1.27a1.32,1.32,0,0,0-1.16.82,3.51,3.51,0,0,0-.19,1.36v2.48h-.89v-7.61h.89v3a1.81,1.81,0,0,1,1.56-.84,1.73,1.73,0,0,1,1.86,2v3.51Z"/><path d="M1254.62,1004.83h-3.77a2,2,0,0,0,.52,1.34,1.51,1.51,0,0,0,2,0,1.19,1.19,0,0,0,.31-.58h.88a2,2,0,0,1-.82,1.32,2.5,2.5,0,0,1-1.36.4,2.29,2.29,0,0,1-1.78-.81,3,3,0,0,1-.66-2,3.33,3.33,0,0,1,.41-1.71,2.29,2.29,0,0,1,2-1.11,2.15,2.15,0,0,1,1.62.68,2.72,2.72,0,0,1,.67,1.88Zm-1.23-1.86a1.27,1.27,0,0,0-1.05-.48,1.49,1.49,0,0,0-1.47,1.57h2.85A1.9,1.9,0,0,0,1253.39,1003Zm-1.83-1.6-.32-.5,1.79-1.29.48.74Z"/><path d="M1258.42,1002.7a1.47,1.47,0,0,0-1,.42,2.4,2.4,0,0,0-.49,1.71v2.37H1256v-5.34h.79l.07.94a1.67,1.67,0,0,1,1.6-1l.42,0v.88A2.81,2.81,0,0,0,1258.42,1002.7Z"/><path d="M1263.86,1007.27a.76.76,0,0,1-.77-.81h0a1.94,1.94,0,0,1-1.72.88,1.68,1.68,0,0,1-1.83-1.65c0-.68.44-1.58,1.9-1.66l1.62-.1v-.39a1.06,1.06,0,0,0-.27-.81,1.21,1.21,0,0,0-.88-.28,1.33,1.33,0,0,0-1,.32.87.87,0,0,0-.26.64h-.88a1.54,1.54,0,0,1,.47-1.11,2.29,2.29,0,0,1,1.64-.57,1.86,1.86,0,0,1,1.88,1,2.14,2.14,0,0,1,.16.82v2.59c0,.28.11.35.29.35a1.25,1.25,0,0,0,.23,0v.67A1.25,1.25,0,0,1,1263.86,1007.27Zm-.82-2.64-1.43.08c-.54,0-1.17.29-1.17,1,0,.47.29.92,1,.92a1.54,1.54,0,0,0,1.1-.43,1.76,1.76,0,0,0,.45-1.22Z"/><path d="M1269.19,1007.2v-3.39c0-.8-.33-1.27-1.17-1.27a1.31,1.31,0,0,0-1.16.82,3.51,3.51,0,0,0-.19,1.36v2.48h-.9v-5.34h.78l.08.81a1.78,1.78,0,0,1,1.61-.94,1.72,1.72,0,0,1,1.85,2v3.51Z"/><polyline class="cls-12" points="1191.1 989.72 1198.53 982.28 1198.53 977.32"/><polyline class="cls-12" points="1222.36 986.11 1222.36 992.15 1208.05 1006.46"/><polyline class="cls-12" points="1191.1 998.14 1204.49 984.75 1204.49 977.32"/><polygon points="1209.03 977.32 1209.03 986.63 1192.65 1003.01 1192.65 986 1189.83 986 1189.83 1006.46 1193.2 1006.46 1211.86 987.8 1211.86 977.32 1209.03 977.32"/><line class="cls-12" x1="1191.24" y1="1010.06" x2="1191.24" y2="1015.97"/><line class="cls-12" x1="1198.53" y1="1010.06" x2="1198.53" y2="1015.97"/><polygon points="1147.93 964.26 1147.93 943.23 1145.11 943.23 1145.11 959.36 1135.33 943.23 1132.7 943.23 1132.7 964.26 1135.53 964.26 1135.53 948.99 1144.78 964.26 1147.93 964.26"/><path class="cls-13" d="M916.76,673.07a5.14,5.14,0,0,0-4.61-5.1,9.46,9.46,0,0,0-17.43-7.22A5.13,5.13,0,0,0,887.5,668a5.13,5.13,0,0,0,0,10.21,9.46,9.46,0,0,0,17.43,7.22,5.13,5.13,0,0,0,7.22-7.22A5.15,5.15,0,0,0,916.76,673.07Z"/><path class="cls-14" d="M922.89,342.45a5.14,5.14,0,0,0-4.6-5.1,5.14,5.14,0,0,0-7.23-7.22,5.13,5.13,0,0,0-10.21,0,5.13,5.13,0,0,0-7.22,7.22,5.13,5.13,0,0,0,0,10.21,9.46,9.46,0,0,0,17.43,7.22,5.14,5.14,0,0,0,7.23-7.22A5.15,5.15,0,0,0,922.89,342.45Z"/><path class="cls-8" d="M514.48,550.65a5.15,5.15,0,0,0-4.61-5.11,5.13,5.13,0,0,0-7.22-7.22,5.13,5.13,0,0,0-10.21,0,5.13,5.13,0,0,0-7.22,7.22,5.13,5.13,0,0,0,0,10.21,5.14,5.14,0,0,0,7.22,7.23,5.13,5.13,0,0,0,10.21,0,5.14,5.14,0,0,0,7.22-7.23A5.14,5.14,0,0,0,514.48,550.65Z"/><path class="cls-8" d="M305.13,330.2a5.14,5.14,0,0,0-4.6-5.1,5.14,5.14,0,0,0-7.23-7.22,5.13,5.13,0,0,0-10.21,0,5.13,5.13,0,0,0-7.22,7.22,5.13,5.13,0,0,0,0,10.21,5.13,5.13,0,0,0,7.22,7.22,5.13,5.13,0,0,0,10.21,0,5.14,5.14,0,0,0,7.23-7.22A5.15,5.15,0,0,0,305.13,330.2Z"/><path class="cls-13" d="M258.34,307.8a5.14,5.14,0,0,0-4.61-5.1,5.13,5.13,0,0,0-7.22-7.22,5.13,5.13,0,0,0-10.21,0,5.13,5.13,0,0,0-7.22,7.22,5.13,5.13,0,0,0,0,10.21,5.13,5.13,0,0,0,7.22,7.22,5.13,5.13,0,0,0,10.21,0,5.13,5.13,0,0,0,7.22-7.22A5.15,5.15,0,0,0,258.34,307.8Z"/><path class="cls-13" d="M787.87,110.11a5.14,5.14,0,0,0-4.61-5.1A5.13,5.13,0,0,0,776,97.79a5.13,5.13,0,0,0-10.21,0,5.13,5.13,0,0,0-7.22,7.22,5.13,5.13,0,0,0,0,10.21,5.13,5.13,0,0,0,7.22,7.22,5.13,5.13,0,0,0,10.21,0,5.13,5.13,0,0,0,7.22-7.22A5.14,5.14,0,0,0,787.87,110.11Z"/><line class="cls-6" x1="184.44" y1="1003.49" x2="137.65" y2="1003.49"/><line class="cls-6" x1="184.44" y1="1003.49" x2="141.21" y2="985.58"/><line class="cls-6" x1="184.44" y1="1003.49" x2="166.54" y2="960.26"/><line class="cls-6" x1="184.44" y1="1003.49" x2="202.35" y2="960.26"/><line class="cls-6" x1="184.44" y1="1003.49" x2="227.67" y2="985.58"/><line class="cls-6" x1="184.44" y1="1003.49" x2="184.44" y2="956.7"/><line class="cls-6" x1="184.44" y1="1003.49" x2="231.23" y2="1003.49"/><line class="cls-6" x1="184.44" y1="1003.49" x2="217.53" y2="970.4"/><line class="cls-6" x1="184.44" y1="1003.49" x2="151.36" y2="970.4"/><path class="cls-13" d="M158.15,935.37a5.14,5.14,0,0,0-4.61-5.1,5.13,5.13,0,0,0-7.22-7.22,5.13,5.13,0,0,0-10.21,0,5.13,5.13,0,0,0-7.22,7.22,5.13,5.13,0,0,0,0,10.21,5.13,5.13,0,0,0,7.22,7.22,5.13,5.13,0,0,0,10.21,0,5.13,5.13,0,0,0,7.22-7.22A5.15,5.15,0,0,0,158.15,935.37Z"/><path class="cls-7" d="M193.23,897.48a5.14,5.14,0,0,0-4.61-5.1,5.14,5.14,0,0,0-7.22-7.23,5.13,5.13,0,0,0-10.21,0,5.14,5.14,0,0,0-7.22,7.23,5.13,5.13,0,0,0,0,10.21,5.13,5.13,0,0,0,7.22,7.22,5.13,5.13,0,0,0,10.21,0,5.13,5.13,0,0,0,7.22-7.22A5.15,5.15,0,0,0,193.23,897.48Z"/><line class="cls-6" x1="1603.2" y1="693.8" x2="1556.41" y2="693.8"/><line class="cls-6" x1="1603.2" y1="693.8" x2="1559.97" y2="675.9"/><line class="cls-6" x1="1603.2" y1="693.8" x2="1585.29" y2="650.57"/><line class="cls-6" x1="1603.2" y1="693.8" x2="1621.11" y2="650.57"/><line class="cls-6" x1="1603.2" y1="693.8" x2="1646.43" y2="675.9"/><line class="cls-6" x1="1603.2" y1="693.8" x2="1603.2" y2="647.01"/><line class="cls-6" x1="1603.2" y1="693.8" x2="1649.99" y2="693.8"/><line class="cls-6" x1="1603.2" y1="693.8" x2="1636.29" y2="660.72"/><line class="cls-6" x1="1603.2" y1="693.8" x2="1570.11" y2="660.72"/><path class="cls-8" d="M1565.18,633.64a5.15,5.15,0,0,0-4.6-5.11,9.46,9.46,0,0,0-17.44-7.22,5.13,5.13,0,0,0-7.22,7.22,5.14,5.14,0,0,0,0,10.22,9.46,9.46,0,0,0,17.44,7.22,5.13,5.13,0,0,0,7.22-7.22A5.15,5.15,0,0,0,1565.18,633.64Z"/><path class="cls-14" d="M1688.45,647a5.14,5.14,0,0,0-4.61-5.1,12.64,12.64,0,1,0-24.65,0,5.13,5.13,0,0,0,0,10.21,12.64,12.64,0,1,0,24.65,0A5.15,5.15,0,0,0,1688.45,647Z"/><path class="cls-13" d="M1537.77,677.26a5.15,5.15,0,0,0-4.61-5.11,9.46,9.46,0,0,0-17.43-7.22,5.13,5.13,0,0,0-7.22,7.22,5.14,5.14,0,0,0,0,10.22,9.46,9.46,0,0,0,17.43,7.22,5.13,5.13,0,0,0,7.22-7.22A5.15,5.15,0,0,0,1537.77,677.26Z"/><path class="cls-1" d="M1382.33,580.22v30.83a33.85,33.85,0,0,1-33.86,33.85h0a33.85,33.85,0,0,1-33.85-33.85V580.22h67.71"/><line class="cls-6" x1="1221.35" y1="492.6" x2="1241.18" y2="492.6"/><line class="cls-6" x1="1221.35" y1="492.6" x2="1235.37" y2="478.58"/><line class="cls-6" x1="1221.35" y1="492.6" x2="1221.35" y2="466.61"/><path class="cls-15" d="M1250.25,561V693.74h204V627h0a46.79,46.79,0,0,0-46.79-46.79h-92.89V568.56a46.79,46.79,0,0,0-46.79-46.79h-46.48v65.81h13.88V574.9l26.44-26.44"/><line class="cls-6" x1="1221.35" y1="506.8" x2="1209.77" y2="506.8"/><path class="cls-15" d="M1222.56,499.87a6.93,6.93,0,0,1,0,13.85"/><path class="cls-6" d="M1228.28,473.54a6.93,6.93,0,1,0-13.85,0"/><path class="cls-16" d="M1382.33,580.22v30.83a33.85,33.85,0,0,1-33.86,33.85h0a33.85,33.85,0,0,1-33.85-33.85V580.22h67.71Z"/><path class="cls-6" d="M1280.76,693.74a33.86,33.86,0,0,1,33.86-33.85h0a33.85,33.85,0,0,1,33.85,33.85"/><line class="cls-6" x1="1307.91" y1="542.18" x2="1250.25" y2="599.83"/><polyline class="cls-6" points="1239.16 521.76 1239.16 539.57 1221.35 539.57"/><polyline class="cls-6" points="1454.3 676.28 1407.51 676.28 1407.51 580.22"/><path class="cls-1" d="M1225.07,649.08v30.83a33.85,33.85,0,0,1-33.85,33.85h0a33.85,33.85,0,0,1-33.86-33.85V649.08h67.71"/><line class="cls-6" x1="1064.09" y1="561.46" x2="1083.92" y2="561.46"/><line class="cls-6" x1="1064.09" y1="561.46" x2="1078.11" y2="547.44"/><line class="cls-6" x1="1064.09" y1="561.46" x2="1064.09" y2="535.47"/><path class="cls-15" d="M1093,629.81V762.6h204V695.87h0a46.79,46.79,0,0,0-46.79-46.79h-92.89V637.42a46.79,46.79,0,0,0-46.79-46.8h-46.48v65.82H1078V643.76l26.44-26.44"/><line class="cls-6" x1="1064.09" y1="575.66" x2="1052.51" y2="575.66"/><path class="cls-15" d="M1065.3,568.73a6.93,6.93,0,0,1,0,13.85"/><path class="cls-6" d="M1071,542.4a6.93,6.93,0,1,0-13.85,0"/><path class="cls-6" d="M1225.07,649.08v30.83a33.85,33.85,0,0,1-33.85,33.85h0a33.85,33.85,0,0,1-33.86-33.85V649.08h67.71Z"/><path class="cls-13" d="M1191.22,762.6a33.86,33.86,0,0,0-33.86-33.85h0a33.85,33.85,0,0,0-33.85,33.85Z"/><line class="cls-6" x1="1150.65" y1="611.04" x2="1092.99" y2="668.69"/><polyline class="cls-6" points="1081.9 590.63 1081.9 608.43 1064.09 608.43"/><path class="cls-17" d="M1250.25,649.08v96.07H1297V695.87h0a46.79,46.79,0,0,0-46.79-46.79Z"/><line class="cls-6" x1="1064.09" y1="588.59" x2="1064.09" y2="561.46"/><line class="cls-6" x1="1221.35" y1="519.73" x2="1221.35" y2="492.6"/><path class="cls-10" d="M430.27,890h-64V831.51H319.81A46.79,46.79,0,0,0,273,878.3v125.19H477.06V936.75A46.79,46.79,0,0,0,430.27,890Zm-77.85,0h-15V873.32l15,9.95Z"/><path class="cls-18" d="M430.27,890a46.79,46.79,0,0,1,46.79,46.79h0V986H430.27V890Z"/><path class="cls-17" d="M303.53,1003.49a33.85,33.85,0,0,1,33.85-33.86h0a33.86,33.86,0,0,1,33.86,33.86"/><polyline class="cls-6" points="477.06 986.03 430.27 986.03 430.27 889.96"/><line class="cls-15" x1="366.29" y1="802.35" x2="346.46" y2="802.35"/><line class="cls-15" x1="366.29" y1="802.35" x2="352.27" y2="788.33"/><line class="cls-15" x1="366.29" y1="802.35" x2="366.29" y2="776.36"/><line class="cls-15" x1="337.39" y1="870.69" x2="337.39" y2="889.96"/><line class="cls-15" x1="366.29" y1="816.54" x2="377.87" y2="816.54"/><path class="cls-15" d="M365.08,809.62a6.93,6.93,0,0,0,0,13.85"/><path class="cls-6" d="M359.36,783.28a6.93,6.93,0,0,1,13.85,0"/><line class="cls-15" x1="279.73" y1="851.92" x2="337.39" y2="909.58"/><line class="cls-15" x1="366.29" y1="829.47" x2="366.29" y2="802.35"/><path class="cls-6" d="M405.09,890v30.83a33.86,33.86,0,0,1-33.85,33.86h0a33.86,33.86,0,0,1-33.86-33.86V890"/><line class="cls-6" x1="337.38" y1="889.96" x2="352.42" y2="889.96"/><polyline class="cls-6" points="325.98 858.21 352.42 884.65 352.41 897.33 366.29 897.33 366.29 849.32"/><polyline class="cls-6" points="348.48 831.51 348.48 849.32 366.29 849.32"/><path class="cls-6" d="M326,858.2l26.44,26.45v12.68h13.88V831.51H319.81A46.79,46.79,0,0,0,273,878.3V890h0v113.53H477.06V936.75h0A46.79,46.79,0,0,0,430.27,890h-64"/><path class="cls-10" d="M1641.66,366h-64V307.58h-46.48a46.79,46.79,0,0,0-46.79,46.8V479.56h204V412.83A46.79,46.79,0,0,0,1641.66,366Zm-77.86,0h-15V349.4l15,9.94Z"/><path class="cls-19" d="M1577.67,366v7.36H1563.8V366h-15v30.83a33.86,33.86,0,0,0,67.71,0V366Z"/><path class="cls-1" d="M1641.66,366a46.79,46.79,0,0,1,46.79,46.79h0v49.28h-46.79V366Z"/><path class="cls-6" d="M1514.91,479.56a33.86,33.86,0,0,1,33.86-33.85h0a33.86,33.86,0,0,1,33.85,33.85"/><polyline class="cls-6" points="1688.45 462.1 1641.66 462.1 1641.66 366.04"/><line class="cls-15" x1="1577.67" y1="278.42" x2="1557.85" y2="278.42"/><line class="cls-15" x1="1577.67" y1="278.42" x2="1563.66" y2="264.4"/><line class="cls-15" x1="1577.67" y1="278.42" x2="1577.67" y2="252.43"/><line class="cls-15" x1="1548.77" y1="346.77" x2="1548.77" y2="366.04"/><line class="cls-15" x1="1577.67" y1="292.62" x2="1589.26" y2="292.62"/><path class="cls-15" d="M1576.47,285.69a6.93,6.93,0,0,0,0,13.85"/><path class="cls-6" d="M1570.75,259.36a6.93,6.93,0,1,1,13.85,0"/><line class="cls-15" x1="1491.12" y1="328" x2="1548.77" y2="385.65"/><line class="cls-15" x1="1577.67" y1="305.55" x2="1577.67" y2="278.42"/><line class="cls-6" x1="1548.77" y1="366.04" x2="1563.8" y2="366.04"/><polyline class="cls-6" points="1537.37 334.28 1563.81 360.72 1563.79 373.4 1577.67 373.4 1577.67 325.39"/><polyline class="cls-6" points="1559.87 307.58 1559.87 325.39 1577.67 325.39"/><path class="cls-6" d="M1537.37,334.28l26.44,26.44,0,12.68h13.88V307.58h-46.48a46.79,46.79,0,0,0-46.79,46.8V366h0V479.56h204V412.83h0A46.79,46.79,0,0,0,1641.66,366h-64"/><path class="cls-6" d="M1616.48,366v30.83a33.85,33.85,0,0,1-33.86,33.85h0a33.84,33.84,0,0,1-33.85-33.85V366"/><line class="cls-6" x1="974.04" y1="212.01" x2="1453.33" y2="212.01"/></g></svg>