<svg xmlns="http://www.w3.org/2000/svg" viewBox="0 0 1920 1080"><defs><style>.cls-1{fill:#f3efee;}.cls-2{fill:#d2d8d8;}.cls-3{isolation:isolate;}.cls-4{fill:#fff;}.cls-5{fill:#8e8e8d;}</style></defs><g id="Background"><rect class="cls-1" width="1920" height="1080"/></g><g id="Graphic"><rect class="cls-2" x="193.61" y="209.1" width="661.79" height="661.79" transform="translate(-228.21 529.05) rotate(-45)"/><g id="جستجو" class="cls-3"><g class="cls-3"><path d="M607.48,364.37a19.45,19.45,0,0,1-4.19-.39v-3a18.23,18.23,0,0,0,3.91.47c4.58,0,6.85-1.14,6.83-3.41a20.61,20.61,0,0,0-1.75-5l-2.18-5.12,2.6-1.2,3.53,8.94a17.81,17.81,0,0,0,2.3,4.35,3.22,3.22,0,0,0,2.44,1.47h.32a1.17,1.17,0,0,1,.11.41,5.41,5.41,0,0,1,.05.77V363a3.77,3.77,0,0,1-.16,1.38H621a5,5,0,0,1-2.68-.72,6.25,6.25,0,0,1-2-2.18l-.21-.36-.25.32Q613.36,364.38,607.48,364.37Z"/><path d="M622.53,364.39h-1.45a.67.67,0,0,1-.6-.31,2,2,0,0,1-.21-1.07v-.36a1.56,1.56,0,0,1,.2-.92.73.73,0,0,1,.61-.26h1.45a9.6,9.6,0,0,0,4.25-.64c1.17-.69,1.76-2.09,1.76-4.22,0-.17,0-.36,0-.55a5.12,5.12,0,0,0,0-.56c0-.19,0-.39,0-.58s-.05-.4-.08-.6l-.09-.62c0-.21-.07-.42-.11-.62l-.12-.64c0-.21-.1-.43-.16-.64l2.56-.65a19,19,0,0,1,.83,5.41q0,4.51-2.56,6.43C627.5,363.92,625.44,364.39,622.53,364.39Zm-1.51,6.3,2.54-2.54,2.56,2.56-2.54,2.53Zm6.17,0,2.54-2.54,2.56,2.56-2.54,2.53Z"/><path d="M645.62,364.39h-2.77a7.84,7.84,0,0,1-5-1.33,4.92,4.92,0,0,1-1.63-4,9.76,9.76,0,0,1,.94-4.23q1.71-3.56,5.15-3.56,5.67,0,6.33,10l0,.27h2.16a3.48,3.48,0,0,1,.16,1.33V363a3.77,3.77,0,0,1-.16,1.38l-2.12,0h-.25l0,.23q-1.36,7.47-11,9.39l-1-2.46c5.38-1.07,8.53-3.32,9.45-6.78l.09-.36Zm.39-3.22c-.3-4.61-1.62-6.91-3.94-6.93a2.67,2.67,0,0,0-1.24.29,2.87,2.87,0,0,0-1,.83,5,5,0,0,0-.7,1.35,6.17,6.17,0,0,0-.36,2,2.46,2.46,0,0,0,.46,1.53,2.65,2.65,0,0,0,1.31.91,6.58,6.58,0,0,0,2.07.29H646Z"/><path d="M666.48,358.45a7,7,0,0,0,.12-1.38c0-.29,0-.59,0-.89s0-.55-.06-.89l-.07-.88,2.54-.3.28,4.08a4.19,4.19,0,0,0,.48,1.78,2.49,2.49,0,0,0,1.1,1.1,3.42,3.42,0,0,0,1.7.38,2.45,2.45,0,0,0,2.19-1.12,6,6,0,0,0,.72-3.22,18.25,18.25,0,0,0-.76-4.65l2.69-.72a17.66,17.66,0,0,1,.84,5.23v.1c0,2.79-.76,4.84-2.22,6.13a4.57,4.57,0,0,1-.71.51,5,5,0,0,1-.81.36,5,5,0,0,1-.89.23,6.41,6.41,0,0,1-1,.07A4.49,4.49,0,0,1,668,361.6a6.1,6.1,0,0,1-5.28,2.79q-3.75,0-5-2.84c-1.07,1.89-3.13,2.84-6.16,2.84h-1.06a.69.69,0,0,1-.61-.3,2.09,2.09,0,0,1-.21-1.08v-.36a1.52,1.52,0,0,1,.19-.91.75.75,0,0,1,.63-.27h1.1c2.74,0,4.33-1,4.76-3a7.63,7.63,0,0,0,.11-1.38c0-.28,0-.56,0-.85s0-.55-.07-.93l-.08-.88,2.56-.3.29,4.08a3.49,3.49,0,0,0,1,2.45,4.32,4.32,0,0,0,5,.06A3.76,3.76,0,0,0,666.48,358.45Zm-4.91-11.62,2.47-2.48,2.5,2.5-2.48,2.47Zm3-5.1,2.48-2.47,2.5,2.49-2.48,2.48Zm3.13,5.1,2.47-2.48,2.5,2.5-2.48,2.47Z"/><path d="M703.67,363.63q-1.06,8.3-11.48,10.36l-1-2.46q9.85-2,9.89-9.74a15.44,15.44,0,0,0-1.39-5.9l2.6-.93,1.08,3.4q1,3.11,3.83,3.11h.48a.77.77,0,0,1,.07.19c0,.09,0,.21.05.37a4.17,4.17,0,0,1,0,.52V363a3.78,3.78,0,0,1-.15,1.38h-.27a4.27,4.27,0,0,1-3.68-1.46Z"/><path d="M720.51,363a7.82,7.82,0,0,1,0,.9,1.52,1.52,0,0,1-.11.48h-.13q-3.59,0-4.91-2.52l-.23-.42-.27.38a6.15,6.15,0,0,1-5.39,2.56h-2a.68.68,0,0,1-.42-.12.88.88,0,0,1-.27-.44,2.62,2.62,0,0,1-.11-.82v-.36a1.66,1.66,0,0,1,.19-.92.72.72,0,0,1,.61-.26h1.88q3.66,0,4.17-2.73a8.69,8.69,0,0,0,.14-1.63c0-.65,0-1.25-.06-1.82l-.1-1.27,2.56-.31.29,4.08a4,4,0,0,0,1.13,2.74,3.9,3.9,0,0,0,2.8.94h.09a3.65,3.65,0,0,1,.15,1.35ZM710,370.69l2.53-2.54,2.56,2.56-2.54,2.53Z"/><path d="M720.13,364.39a.67.67,0,0,1-.6-.31,2,2,0,0,1-.21-1.07v-.36a1.49,1.49,0,0,1,.2-.92.73.73,0,0,1,.61-.26h1.14q6.35,0,15.62-4.8l1.4-.72.65-.32-.71-.19L737,355l-2.81-1.11c-1.26-.5-2.31-.88-3.15-1.13a7.21,7.21,0,0,0-2-.38,4.54,4.54,0,0,0-2.08.47,4.86,4.86,0,0,0-1.67,1.42l-.4.5-2.43-1.2.15-.26a10.56,10.56,0,0,1,1-1.37,7.66,7.66,0,0,1,1.14-1.07,6,6,0,0,1,1.29-.77,7.47,7.47,0,0,1,1.43-.46,8.07,8.07,0,0,1,1.58-.15,13.31,13.31,0,0,1,5.64,1.6q5.73,2.81,9,3l0,2.79a6.6,6.6,0,0,0-1.07.24q-.6.18-1.32.45c-.48.19-1,.41-1.57.66s-1.18.54-1.83.85-1.36.68-2.1,1.08q-8.09,4.26-14.69,4.25Zm7.84-22.2,2.54-2.54,2.55,2.56-2.53,2.54Z"/><path d="M766.56,363v.32a1.32,1.32,0,0,0,0,.27,1.79,1.79,0,0,1,0,.24.92.92,0,0,1,0,.19c0,.07,0,.12,0,.17a.25.25,0,0,1,0,.12l0,.07h-.35q-6.69,0-6.69-7.95V338.25h2.73v18.16q0,5.05,4,5.06h.29a2.64,2.64,0,0,1,.15,1.18Z"/><path d="M767.64,364.39H766.2a.68.68,0,0,1-.61-.31,2,2,0,0,1-.21-1.07v-.36a1.56,1.56,0,0,1,.2-.92.74.74,0,0,1,.62-.26h1.44a9.77,9.77,0,0,0,1.9-.16,5.11,5.11,0,0,0,1.4-.48,3.06,3.06,0,0,0,1-1,4.49,4.49,0,0,0,.58-1.41,8.42,8.42,0,0,0,.19-1.85,20.36,20.36,0,0,0-.65-4.81l2.56-.65a18.71,18.71,0,0,1,.84,5.41q0,4.51-2.57,6.43A8.52,8.52,0,0,1,767.64,364.39Zm.28,6.3,2.54-2.54,2.56,2.56-2.54,2.53Z"/><path d="M813.57,363.61a14,14,0,0,1-.12,1.88,13.62,13.62,0,0,1-.35,1.69,9.9,9.9,0,0,1-.57,1.48q-2.73,5.59-10.49,5.6-5.85,0-8.72-2.67t-2.86-8.07a20.83,20.83,0,0,1,1.6-7.78l2.48,1.05a19.16,19.16,0,0,0-1.31,6.69,8.79,8.79,0,0,0,1,4.42,6.32,6.32,0,0,0,3,2.68,12.14,12.14,0,0,0,4.93.89q4.32,0,6.53-2.2c1.48-1.47,2.22-3.64,2.23-6.53a16.1,16.1,0,0,0-1.61-6.85l2.71-.95,1.29,4.06q.79,2.47,3.93,2.47h.32a1.15,1.15,0,0,1,.1.38,6.47,6.47,0,0,1,0,.7V363a3.77,3.77,0,0,1-.16,1.38h-.22a5.24,5.24,0,0,1-3.76-1.44ZM799.26,353l2.54-2.54,2.56,2.56-2.54,2.53Z"/><path d="M831.31,363a7.58,7.58,0,0,1,0,.9,2,2,0,0,1-.1.48H831q-3.59,0-4.91-2.52l-.23-.42-.26.38q-1.82,2.57-6.34,2.56h-2a.71.71,0,0,1-.43-.12.88.88,0,0,1-.27-.44,2.65,2.65,0,0,1-.1-.82v-.36a1.57,1.57,0,0,1,.19-.92.72.72,0,0,1,.61-.26h1.87c3.08,0,4.78-.91,5.13-2.73a9.7,9.7,0,0,0,.13-1.63c0-.65,0-1.25-.06-1.82l-.09-1.27,2.56-.31.28,4.08a4.91,4.91,0,0,0,.57,2,3.07,3.07,0,0,0,1.32,1.23,4.52,4.52,0,0,0,2,.42h.1a3.65,3.65,0,0,1,.15,1.35Zm-14,7.68,2.54-2.54,2.56,2.56-2.54,2.53Zm6.17,0,2.54-2.54,2.56,2.56L826,373.24Z"/><path d="M844.91,363a7.58,7.58,0,0,1,0,.9,2,2,0,0,1-.1.48h-.14c-2.39,0-4-.84-4.91-2.52l-.23-.42-.26.38c-1.2,1.71-3.32,2.56-6.34,2.56h-2a.71.71,0,0,1-.43-.12,1,1,0,0,1-.26-.44,2.62,2.62,0,0,1-.11-.82v-.36a1.66,1.66,0,0,1,.19-.92.72.72,0,0,1,.61-.26h1.88q4.61,0,5.12-2.73a8.75,8.75,0,0,0,.13-1.63c0-.65,0-1.25-.06-1.82l-.09-1.27,2.56-.31.29,4.08a4.76,4.76,0,0,0,.56,2,3.07,3.07,0,0,0,1.32,1.23,4.58,4.58,0,0,0,2,.42h.1a3.65,3.65,0,0,1,.15,1.35Zm-14,7.68,2.53-2.54,2.56,2.56-2.54,2.53Zm6.17,0,2.53-2.54,2.56,2.56-2.54,2.53Z"/><path d="M846,364.39h-1.44a.68.68,0,0,1-.61-.31,2,2,0,0,1-.21-1.07v-.36a1.56,1.56,0,0,1,.2-.92.75.75,0,0,1,.62-.26H846a9.57,9.57,0,0,0,4.25-.64c1.18-.69,1.77-2.09,1.77-4.22,0-.17,0-.36,0-.55l0-.56c0-.19,0-.39-.05-.58s0-.4-.08-.6l-.09-.62c0-.21-.07-.42-.11-.62s-.07-.42-.12-.64-.1-.43-.16-.64l2.56-.65a18.71,18.71,0,0,1,.84,5.41c0,3-.86,5.15-2.56,6.43Q850.34,364.39,846,364.39Zm-1.5,6.3,2.53-2.54,2.56,2.56L847,373.24Zm6.17,0,2.54-2.54,2.55,2.56-2.53,2.53Z"/><path d="M870,354.94a18.49,18.49,0,0,1,1.44,6.76,11.21,11.21,0,0,1-2.86,8.08c-1.93,2-4.83,3.44-8.73,4.21l-1-2.46q9.85-2,9.89-9.74a15.44,15.44,0,0,0-1.39-5.9Zm-5.24-7.26,2.63-2.62L870,347.7l-2.62,2.62Z"/><path d="M889,363.08a10.21,10.21,0,0,0,.37,2.86,6.75,6.75,0,0,0,1.1,2.25,6.15,6.15,0,0,0,1.82,1.61,8.78,8.78,0,0,0,2.54,1,16,16,0,0,0,3.24.34,14.43,14.43,0,0,0,6.14-1.27,8.67,8.67,0,0,0,2.53-1.77,3.7,3.7,0,0,0,1.11-2.63,1.18,1.18,0,0,0-.47-1,2.15,2.15,0,0,0-1.29-.35l-2.16,0a5.39,5.39,0,0,1-3.36-.86,3.17,3.17,0,0,1-1.08-2.63,8.4,8.4,0,0,1,2.2-5.88c1.9-2.08,4.58-3.11,8.06-3.11h.12v3.09h-.14a8.82,8.82,0,0,0-5.18,1.44,5.71,5.71,0,0,0-1.62,1.68,4.19,4.19,0,0,0-.58,2,1.82,1.82,0,0,0,.1.59,1,1,0,0,0,.3.45,1.89,1.89,0,0,0,1.22.33h2.25a4.79,4.79,0,0,1,3.19.84,3.29,3.29,0,0,1,1,2.65q0,5.31-5.29,7.74a17.06,17.06,0,0,1-7.17,1.44,15.76,15.76,0,0,1-6.54-1.19,8.07,8.07,0,0,1-3.89-3.55,12.43,12.43,0,0,1-1.29-6,22.63,22.63,0,0,1,2-8.59l2.47,1A20.16,20.16,0,0,0,889,363.08Z"/><path d="M922.9,363v.32c0,.1,0,.19,0,.27a.93.93,0,0,1,0,.24.53.53,0,0,1,0,.19c0,.07,0,.12,0,.17a.5.5,0,0,1,0,.12l0,.07h-.34q-6.7,0-6.7-7.95V338.25h2.73v18.16q0,5.05,4,5.06h.29a2.64,2.64,0,0,1,.15,1.18Z"/><path d="M924.48,364.39h-1.94a.69.69,0,0,1-.61-.31,2,2,0,0,1-.21-1.07v-.36a1.56,1.56,0,0,1,.2-.92.75.75,0,0,1,.62-.26h6.68l-.74-.51a5.35,5.35,0,0,1-2.28-4.69,5.85,5.85,0,0,1,1.41-4,6.09,6.09,0,0,1,4.83-2.22,6.36,6.36,0,0,1,4.52,1.86,5.32,5.32,0,0,1,1.75,4.1,5.86,5.86,0,0,1-2.93,5.27l.7.1c.52.06,1,.11,1.5.14s1,.05,1.43.05a5.72,5.72,0,0,0,3.47-.91,3.24,3.24,0,0,0,1.21-2.72,5,5,0,0,0-.67-2.44,9.5,9.5,0,0,0-2-2.47,24.86,24.86,0,0,0-3.36-2.49,50.57,50.57,0,0,0-4.65-2.54l1.37-2.43q12.3,6.06,12.18,12.37a7.37,7.37,0,0,1-.43,2.46,6,6,0,0,1-1.22,2,4.33,4.33,0,0,1-.77.71,5.39,5.39,0,0,1-.94.55,6.9,6.9,0,0,1-1.11.4,8.08,8.08,0,0,1-1.28.24,13.36,13.36,0,0,1-1.44.07,23.31,23.31,0,0,1-3.84-.27,28.36,28.36,0,0,1-3.73-.86l-.08,0-.07,0A26.68,26.68,0,0,1,924.48,364.39Zm8.14-11.7a3.56,3.56,0,0,0-2.55.89,3.52,3.52,0,0,0-1.14,2.65q0,2.77,3.57,4.1l.12,0,.09-.06a6.93,6.93,0,0,0,1.84-1,4.25,4.25,0,0,0,1.14-1.34,3.88,3.88,0,0,0,.42-1.65,4.73,4.73,0,0,0-.25-1.56,2.7,2.7,0,0,0-.76-1.13,3.44,3.44,0,0,0-1.14-.72A3.93,3.93,0,0,0,932.62,352.69Z"/><path d="M974.45,363.61a12.52,12.52,0,0,1-.13,1.88,12,12,0,0,1-.35,1.69,8.12,8.12,0,0,1-.57,1.48q-2.73,5.59-10.49,5.6c-3.89,0-6.8-.89-8.71-2.67s-2.87-4.47-2.86-8.07a21,21,0,0,1,1.59-7.78l2.49,1.05a18.94,18.94,0,0,0-1.31,6.69,8.89,8.89,0,0,0,1,4.42,6.39,6.39,0,0,0,3,2.68,12.06,12.06,0,0,0,4.92.89q4.34,0,6.54-2.2c1.47-1.47,2.22-3.64,2.23-6.53a16.1,16.1,0,0,0-1.61-6.85l2.71-.95L974.2,359q.79,2.47,3.93,2.47h.32a1,1,0,0,1,.09.38,4.64,4.64,0,0,1,0,.7V363a3.85,3.85,0,0,1-.15,1.38h-.23a5.23,5.23,0,0,1-3.75-1.44ZM960.14,353l2.54-2.54,2.56,2.56-2.54,2.53Z"/><path d="M979.64,364.39H978.2a.66.66,0,0,1-.6-.31,2,2,0,0,1-.21-1.07v-.36a1.49,1.49,0,0,1,.2-.92.73.73,0,0,1,.61-.26h1.44a9.57,9.57,0,0,0,4.25-.64c1.18-.69,1.77-2.09,1.77-4.22,0-.17,0-.36,0-.55l0-.56c0-.19,0-.39,0-.58s0-.4-.07-.6-.07-.41-.1-.62-.06-.42-.1-.62l-.12-.64c0-.21-.1-.43-.17-.64l2.56-.65a18.71,18.71,0,0,1,.84,5.41q0,4.51-2.56,6.43Q984,364.39,979.64,364.39Zm-1.5,6.3,2.54-2.54,2.55,2.56-2.53,2.53Zm6.17,0,2.54-2.54,2.56,2.56-2.54,2.53Z"/><path d="M1005,363.63q-1.07,8.3-11.48,10.36l-1-2.46q9.84-2,9.88-9.74a15.59,15.59,0,0,0-1.38-5.9l2.59-.93,1.09,3.4c.67,2.07,1.94,3.11,3.83,3.11h.47a.5.5,0,0,1,.07.19c0,.09,0,.21.06.37a4.27,4.27,0,0,1,0,.52V363a3.78,3.78,0,0,1-.15,1.38h-.26a4.26,4.26,0,0,1-3.68-1.46Z"/><path d="M1010.23,364.39h-1.44a.68.68,0,0,1-.61-.31A2,2,0,0,1,1008,363v-.36a1.56,1.56,0,0,1,.2-.92.74.74,0,0,1,.62-.26h1.44a9.6,9.6,0,0,0,4.25-.64c1.17-.69,1.76-2.09,1.76-4.22,0-.17,0-.36,0-.55l0-.56c0-.19,0-.39,0-.58s0-.4-.08-.6-.06-.41-.1-.62-.06-.42-.1-.62l-.12-.64c0-.21-.1-.43-.16-.64l2.56-.65a19,19,0,0,1,.83,5.41q0,4.51-2.56,6.43C1015.2,363.92,1013.14,364.39,1010.23,364.39Zm-1.2-19.54,2.53-2.54,2.56,2.56-2.54,2.54Zm6.17,0,2.53-2.54,2.56,2.56-2.54,2.54Z"/><path d="M1028.57,364.37a19.45,19.45,0,0,1-4.19-.39v-3a18.3,18.3,0,0,0,3.91.47c4.58,0,6.85-1.14,6.83-3.41a20.61,20.61,0,0,0-1.75-5l-2.18-5.12,2.6-1.2,3.53,8.94a17.81,17.81,0,0,0,2.3,4.35,3.22,3.22,0,0,0,2.44,1.47h.32a1.17,1.17,0,0,1,.11.41,5.41,5.41,0,0,1,0,.77V363a3.77,3.77,0,0,1-.16,1.38h-.32a5,5,0,0,1-2.68-.72,6.25,6.25,0,0,1-2-2.18l-.21-.36-.25.32Q1034.45,364.38,1028.57,364.37Z"/><path d="M1043.62,364.39h-1.45a.67.67,0,0,1-.6-.31,2,2,0,0,1-.21-1.07v-.36a1.56,1.56,0,0,1,.2-.92.73.73,0,0,1,.61-.26h1.45a9.6,9.6,0,0,0,4.25-.64c1.17-.69,1.76-2.09,1.76-4.22,0-.17,0-.36,0-.55a5.12,5.12,0,0,0,0-.56c0-.19,0-.39,0-.58s0-.4-.07-.6l-.09-.62c0-.21-.07-.42-.11-.62l-.12-.64c-.05-.21-.1-.43-.16-.64l2.56-.65a19,19,0,0,1,.83,5.41q0,4.51-2.56,6.43C1048.59,363.92,1046.53,364.39,1043.62,364.39Zm-1.51,6.3,2.54-2.54,2.56,2.56-2.54,2.53Zm6.17,0,2.54-2.54,2.56,2.56-2.54,2.53Z"/><path d="M1061.64,364.37a19.45,19.45,0,0,1-4.19-.39v-3a18.15,18.15,0,0,0,3.91.47c4.57,0,6.85-1.14,6.82-3.41a20.86,20.86,0,0,0-1.74-5l-2.18-5.12,2.6-1.2,3.52,8.94a17.45,17.45,0,0,0,2.31,4.35,3.22,3.22,0,0,0,2.44,1.47h.32a1.24,1.24,0,0,1,.1.41,4.25,4.25,0,0,1,0,.77V363a3.85,3.85,0,0,1-.15,1.38h-.32a5,5,0,0,1-2.69-.72,6.44,6.44,0,0,1-2-2.18l-.2-.36-.25.32Q1067.52,364.38,1061.64,364.37Z"/><path d="M1075.24,364.39a.69.69,0,0,1-.61-.31,2.15,2.15,0,0,1-.2-1.07v-.36a1.57,1.57,0,0,1,.19-.92.75.75,0,0,1,.62-.26h1.14q6.34,0,15.61-4.8l1.41-.72.64-.32-.7-.19-1.27-.49-2.81-1.11c-1.26-.5-2.32-.88-3.16-1.13a7.09,7.09,0,0,0-2-.38,4.51,4.51,0,0,0-2.08.47,4.77,4.77,0,0,0-1.67,1.42l-.4.5-2.43-1.2.15-.26a10.56,10.56,0,0,1,1-1.37,8.11,8.11,0,0,1,1.13-1.07,6.57,6.57,0,0,1,1.29-.77,7.8,7.8,0,0,1,1.44-.46,8,8,0,0,1,1.58-.15,13.31,13.31,0,0,1,5.64,1.6q5.71,2.81,9,3l0,2.79a6.38,6.38,0,0,0-1.07.24q-.6.18-1.32.45c-.48.19-1,.41-1.58.66s-1.18.54-1.83.85-1.35.68-2.09,1.08q-8.08,4.26-14.69,4.25Zm11,6.3,2.54-2.54,2.56,2.56-2.54,2.53Z"/><path d="M1113.66,371.53a19.54,19.54,0,0,0,4.63-1.48,10.27,10.27,0,0,0,3.19-2.34,7.84,7.84,0,0,0,1.72-3.2l.12-.42-.44.06-.83.1-.71.08-.57.05-.43,0H1120a7.72,7.72,0,0,1-5-1.32,5,5,0,0,1-1.64-4.09,9.76,9.76,0,0,1,.95-4.23c1.14-2.37,2.86-3.56,5.14-3.56q3.72,0,5.32,4.15a16.8,16.8,0,0,1,1.08,6.11,11.87,11.87,0,0,1-2.8,8.27q-2.8,3.12-8.45,4.23Zm9.56-10.7a11.49,11.49,0,0,0-1.18-4.91,3.07,3.07,0,0,0-2.78-1.68c-1.36,0-2.31.82-2.87,2.47a6.45,6.45,0,0,0-.36,2,2.46,2.46,0,0,0,1,2.16,5.23,5.23,0,0,0,3,.72,10.24,10.24,0,0,0,3-.49l.21-.08Z"/><path d="M1148.61,363v.32a1.32,1.32,0,0,0,0,.27,1.79,1.79,0,0,1,0,.24.92.92,0,0,1,0,.19c0,.07,0,.12,0,.17a.5.5,0,0,1,0,.12l0,.07h-.34q-6.69,0-6.7-7.95V338.25h2.74v18.16q0,5.05,4,5.06h.28a2.59,2.59,0,0,1,.16,1.18Z"/><path d="M1150.18,364.39h-1.94a.67.67,0,0,1-.6-.31,2,2,0,0,1-.21-1.07v-.36a1.49,1.49,0,0,1,.2-.92.73.73,0,0,1,.61-.26h6.68l-.74-.51a5.32,5.32,0,0,1-2.27-4.69,5.85,5.85,0,0,1,1.4-4,6.43,6.43,0,0,1,2.17-1.67,6.52,6.52,0,0,1,7.18,1.31,5.29,5.29,0,0,1,1.75,4.1,5.87,5.87,0,0,1-2.92,5.27l.7.1c.52.06,1,.11,1.5.14s1,.05,1.42.05a5.68,5.68,0,0,0,3.47-.91,3.24,3.24,0,0,0,1.21-2.72,5,5,0,0,0-.67-2.44,9.5,9.5,0,0,0-2-2.47,24.86,24.86,0,0,0-3.36-2.49,49,49,0,0,0-4.64-2.54l1.36-2.43q12.3,6.06,12.18,12.37a7.37,7.37,0,0,1-.42,2.46,6,6,0,0,1-1.23,2,4.33,4.33,0,0,1-.77.71,5,5,0,0,1-.94.55,6.9,6.9,0,0,1-1.11.4,8,8,0,0,1-1.27.24,13.42,13.42,0,0,1-1.45.07,23.31,23.31,0,0,1-3.84-.27,28.36,28.36,0,0,1-3.73-.86l-.07,0-.08,0A26.68,26.68,0,0,1,1150.18,364.39Zm8.14-11.7a3.47,3.47,0,0,0-3.68,3.54q0,2.77,3.56,4.1l.12,0,.09-.06a6.77,6.77,0,0,0,1.84-1,4.12,4.12,0,0,0,1.14-1.34,3.61,3.61,0,0,0,.42-1.65,4.48,4.48,0,0,0-.25-1.56,2.7,2.7,0,0,0-.76-1.13,3.44,3.44,0,0,0-1.14-.72A3.89,3.89,0,0,0,1158.32,352.69Z"/><path d="M1203.22,362q-3.46,2.41-12,2.41h-.64q-6.87,0-10.23-2.24a7.49,7.49,0,0,1-3.35-6.69,11.51,11.51,0,0,1,.89-4.5l2.48.89a9.2,9.2,0,0,0-.55,3.09,5.3,5.3,0,0,0,2.79,4.9c1.85,1.09,4.57,1.63,8.18,1.63,4.67,0,7.71-.21,9.14-.64l.5-.16-.4-.34a7.29,7.29,0,0,1-2.92-5.78c0-2.13,1.2-4,3.62-5.71a4.95,4.95,0,0,1,5.27-.23,9.27,9.27,0,0,1,1.71,1.27,8.11,8.11,0,0,1,1.22,1.44,6.59,6.59,0,0,1,.94,3.43,7.06,7.06,0,0,1-2.94,5.58l-.39.33.47.17a11.17,11.17,0,0,0,2.22.49,26.31,26.31,0,0,0,3,.15h.57a3.48,3.48,0,0,1,.13,1.18V363a3.85,3.85,0,0,1-.15,1.38h-.52c-3.66,0-6.56-.79-8.68-2.39l-.18-.13Zm-2.16-9.67a3.49,3.49,0,0,0-1.21,2.43,3.12,3.12,0,0,0,.32,1.32,6.43,6.43,0,0,0,.95,1.43c1,1.13,1.77,1.7,2.35,1.7a1.74,1.74,0,0,0,1-.42,9,9,0,0,0,1.3-1.28,4.28,4.28,0,0,0,1.28-2.74,4,4,0,0,0-1.81-3,3.2,3.2,0,0,0-1.91-.86,2,2,0,0,0-1,.35A8,8,0,0,0,1201.06,352.31Zm-.32-10.82,2.54-2.54,2.55,2.56-2.54,2.54Z"/><path d="M1226.54,363a7.58,7.58,0,0,1,0,.9,1.61,1.61,0,0,1-.1.48h-.13q-3.59,0-4.92-2.52l-.23-.42-.26.38q-1.8,2.57-6.34,2.56h-2a.71.71,0,0,1-.43-.12.87.87,0,0,1-.26-.44,2.62,2.62,0,0,1-.11-.82v-.36a1.57,1.57,0,0,1,.19-.92.72.72,0,0,1,.61-.26h1.88q4.61,0,5.12-2.73a8.75,8.75,0,0,0,.13-1.63c0-.65,0-1.25-.05-1.82l-.1-1.27,2.56-.31.29,4.08a4.62,4.62,0,0,0,.57,2,3,3,0,0,0,1.31,1.23,4.58,4.58,0,0,0,2,.42h.1a3.65,3.65,0,0,1,.15,1.35Zm-14,7.68,2.54-2.54,2.56,2.56-2.54,2.53Zm6.18,0,2.53-2.54,2.56,2.56-2.54,2.53Z"/><path d="M1236.23,362c-2.15,1.6-5.25,2.39-9.29,2.39h-.78a.68.68,0,0,1-.61-.31,2,2,0,0,1-.21-1.07v-.36a1.57,1.57,0,0,1,.2-.91.73.73,0,0,1,.62-.27h.78a19.25,19.25,0,0,0,6-.64l.44-.19-.36-.31a7.29,7.29,0,0,1-2.92-5.78c0-2.13,1.2-4,3.62-5.71a4.95,4.95,0,0,1,5.27-.23q3.87,2.33,3.87,6.14a7.06,7.06,0,0,1-2.94,5.58l-.39.33.47.17a11.11,11.11,0,0,0,2.21.48,24.31,24.31,0,0,0,3,.16h.56a3.09,3.09,0,0,1,.14,1.18V363a3.85,3.85,0,0,1-.15,1.38h-.52c-3.66,0-6.56-.79-8.68-2.39l-.18-.13Zm-2.16-9.69a3.49,3.49,0,0,0-1.21,2.43,3.27,3.27,0,0,0,.05.53c0,.17.1.35.16.54a5.4,5.4,0,0,0,.26.55,5.6,5.6,0,0,0,.35.55c.13.18.28.37.45.58,1,1.13,1.77,1.7,2.35,1.7a1.74,1.74,0,0,0,1-.42,9,9,0,0,0,1.3-1.28,4.35,4.35,0,0,0,1.29-2.74,4,4,0,0,0-1.82-3,5.34,5.34,0,0,0-1-.64,2.28,2.28,0,0,0-.91-.22A3.92,3.92,0,0,0,1234.07,352.31Zm-.23-10.78,2.54-2.54,2.56,2.56-2.54,2.54Z"/><path d="M1263.65,355.44c-.29-.08-1.65-.61-4.08-1.6-1.27-.5-2.32-.88-3.16-1.13a7.15,7.15,0,0,0-2-.38,4.55,4.55,0,0,0-2.09.47,4.86,4.86,0,0,0-1.67,1.42l-.4.5-2.42-1.2.15-.26a10.52,10.52,0,0,1,1-1.37,8.78,8.78,0,0,1,1.14-1.07,6.57,6.57,0,0,1,1.29-.77,7.7,7.7,0,0,1,1.43-.46,8.1,8.1,0,0,1,1.59-.15,13.27,13.27,0,0,1,5.63,1.6q5.73,2.81,9,3l0,2.77a12.38,12.38,0,0,0-3.78,1.33l-.15.08v.17q.08,3,5.56,3.05h.78a2.52,2.52,0,0,1,.15,1.08V363a4.11,4.11,0,0,1-.15,1.38h-1.09a9.29,9.29,0,0,1-5.18-1.2,4.86,4.86,0,0,1-2.06-3.64l-.06-.39-.36.17-.5.25-.53.27-.53.29q-8.07,4.26-14.68,4.25h-.91a.68.68,0,0,1-.61-.31,2,2,0,0,1-.21-1.07v-.36a1.56,1.56,0,0,1,.2-.92.74.74,0,0,1,.62-.26h1.14q6.33,0,15.61-4.8l1.41-.72.66-.34Zm-10.27-13.25,2.54-2.54,2.56,2.56-2.54,2.54Z"/><path d="M1272.62,364.39h-1.44a.68.68,0,0,1-.61-.31,2,2,0,0,1-.21-1.07v-.36a1.56,1.56,0,0,1,.2-.92.75.75,0,0,1,.62-.26h1.44a9.57,9.57,0,0,0,4.25-.64c1.18-.69,1.76-2.09,1.76-4.22,0-.17,0-.36,0-.55s0-.38,0-.56,0-.39,0-.58,0-.4-.08-.6l-.09-.62c0-.21-.07-.42-.1-.62s-.08-.42-.13-.64-.1-.43-.16-.64l2.56-.65a18.71,18.71,0,0,1,.84,5.41q0,4.51-2.57,6.43Q1277,364.39,1272.62,364.39Zm-1.2-19.54,2.54-2.54,2.56,2.56-2.54,2.54Zm6.17,0,2.54-2.54,2.56,2.56-2.54,2.54Z"/><path d="M1306.43,354.94a18.49,18.49,0,0,1,1.44,6.76,11.25,11.25,0,0,1-2.86,8.08q-2.9,3.06-8.73,4.21l-1-2.46q9.86-2,9.89-9.74a15.44,15.44,0,0,0-1.39-5.9Zm-5.24-7.26,2.62-2.62,2.65,2.64-2.63,2.62Z"/><path d="M1313,338.25h2.71v26.12H1313Z"/></g></g><path d="M439.75,517.27H250.16V379.2H439.75Zm-187.59-2H437.75V381.2H252.16Z"/><polygon points="344.95 449.47 250.57 381 251.74 379.39 344.95 447 438.16 379.39 439.34 381 344.95 449.47"/><rect class="cls-4" x="756.35" y="491.43" width="876.29" height="97.13" rx="48.57"/><path class="cls-5" d="M1584.07,588.86H804.92a48.86,48.86,0,0,1,0-97.72h779.15a48.86,48.86,0,1,1,0,97.72ZM804.92,491.72a48.28,48.28,0,0,0,0,96.56h779.15a48.28,48.28,0,1,0,0-96.56Z"/><rect x="287.36" y="491.43" width="439" height="97.13" rx="48.57"/><path d="M677.8,588.77H335.93a48.77,48.77,0,0,1,0-97.54H677.8a48.77,48.77,0,1,1,0,97.54ZM335.93,491.64a48.36,48.36,0,0,0,0,96.72H677.8a48.36,48.36,0,0,0,0-96.72Z"/><g id="جستجو-2" data-name="جستجو" class="cls-3"><g class="cls-3"><path class="cls-5" d="M1275.05,549.41a18.78,18.78,0,0,1-4.19-.4v-3a17.57,17.57,0,0,0,3.9.48q6.87,0,6.83-3.42a21.16,21.16,0,0,0-1.74-5l-2.18-5.12,2.6-1.19,3.52,8.93a17.54,17.54,0,0,0,2.31,4.36,3.22,3.22,0,0,0,2.44,1.47h.32a1.23,1.23,0,0,1,.1.4,4.32,4.32,0,0,1,0,.77V548a3.92,3.92,0,0,1-.15,1.39h-.32a5,5,0,0,1-2.69-.72,6.44,6.44,0,0,1-2-2.18l-.2-.37-.25.33Q1280.93,549.42,1275.05,549.41Z"/><path class="cls-5" d="M1302.63,548a7.6,7.6,0,0,1,0,.9,2.13,2.13,0,0,1-.11.49h-.13q-3.58,0-4.91-2.53l-.23-.41-.27.38c-1.2,1.7-3.31,2.56-6.33,2.56h-2a.62.62,0,0,1-.42-.13.84.84,0,0,1-.27-.43,2.72,2.72,0,0,1-.1-.83v-.36a1.6,1.6,0,0,1,.19-.92.68.68,0,0,1,.6-.25h1.88q4.6,0,5.12-2.74a8.61,8.61,0,0,0,.14-1.63c0-.64,0-1.25-.06-1.82l-.1-1.27,2.57-.3.28,4.08a4.66,4.66,0,0,0,.57,2,3.08,3.08,0,0,0,1.32,1.23,4.52,4.52,0,0,0,2,.42h.09a3.62,3.62,0,0,1,.15,1.34Zm-14,7.68,2.54-2.53,2.55,2.55-2.53,2.54Zm6.17,0,2.54-2.53,2.55,2.55-2.53,2.54Z"/><path class="cls-5" d="M1315.29,548a7.33,7.33,0,0,1,0,.9,2.31,2.31,0,0,1-.1.49H1315q-3.59,0-4.91-2.53l-.23-.41-.26.38a6.19,6.19,0,0,1-5.39,2.56h-2a.65.65,0,0,1-.43-.13.84.84,0,0,1-.27-.43,2.72,2.72,0,0,1-.1-.83v-.36a1.6,1.6,0,0,1,.19-.92.7.7,0,0,1,.61-.25h1.87c2.44,0,3.84-.91,4.18-2.74a8.68,8.68,0,0,0,.13-1.63c0-.64,0-1.25-.06-1.82l-.09-1.27,2.56-.3.28,4.08a4.05,4.05,0,0,0,1.13,2.74,4,4,0,0,0,2.8.94h.1a3.62,3.62,0,0,1,.15,1.34Zm-9.37-16.54,2.53-2.54,2.56,2.56-2.54,2.53Z"/><path class="cls-5" d="M1326.23,537.4a7.89,7.89,0,0,1,2.34,5.65q-.12,6.38-11,6.38h-2.71a.69.69,0,0,1-.61-.32,2,2,0,0,1-.21-1.07v-.36a1.58,1.58,0,0,1,.2-.92.73.73,0,0,1,.62-.25h2.69q8.12,0,8.14-3.91a5.47,5.47,0,0,0-2.07-3.91c-1.93-1.81-3.67-3.31-5.2-4.52a7.17,7.17,0,0,1-1.15-1.1,3.87,3.87,0,0,1-.68-1.11,3.12,3.12,0,0,1-.21-1.11,3.3,3.3,0,0,1,2.46-3.2l12.77-4.84v2.81l-12.58,4.68-.45.18.38.32A81.66,81.66,0,0,1,1326.23,537.4Z"/><path class="cls-5" d="M1345.87,546.05a20.49,20.49,0,0,0,3.91.44q7.31,0,7.3-3.72t-7.76-8.63l1.6-2.41a26.19,26.19,0,0,1,6.77,5.49,8.71,8.71,0,0,1,2.24,5.49,6.13,6.13,0,0,1-1.07,3.69,6.52,6.52,0,0,1-3.28,2.22,17.68,17.68,0,0,1-5.56.77,20.09,20.09,0,0,1-4.15-.4Z"/><path class="cls-5" d="M1370,540a18.48,18.48,0,0,1,1.44,6.75,11.26,11.26,0,0,1-2.86,8.09c-1.93,2-4.83,3.44-8.73,4.21l-1-2.47q9.86-2,9.89-9.73a15.44,15.44,0,0,0-1.39-5.9Z"/><path class="cls-5" d="M1376.62,523.29h2.71v26.12h-2.71Z"/><path class="cls-5" d="M1384.84,556.56a19.24,19.24,0,0,0,4.63-1.48,10.09,10.09,0,0,0,3.18-2.33,7.78,7.78,0,0,0,1.73-3.21l.11-.42-.43.06-.83.11-.71.07-.57.06-.44,0h-.3a7.77,7.77,0,0,1-5-1.32,5,5,0,0,1-1.63-4.09,9.76,9.76,0,0,1,1-4.23q1.71-3.57,5.14-3.57,3.72,0,5.31,4.16a16.76,16.76,0,0,1,1.08,6.11,11.93,11.93,0,0,1-2.79,8.27q-2.8,3.11-8.46,4.23Zm9.56-10.7a11.42,11.42,0,0,0-1.19-4.9,3.06,3.06,0,0,0-2.78-1.68c-1.35,0-2.31.82-2.86,2.46a6.5,6.5,0,0,0-.36,2,2.47,2.47,0,0,0,1,2.17,5.23,5.23,0,0,0,3,.72,10.26,10.26,0,0,0,3-.5l.21-.07Z"/><path class="cls-5" d="M1412.61,523.29h2.71v26.12h-2.71Z"/><path class="cls-5" d="M1427.05,540a18.48,18.48,0,0,1,1.44,6.75,11.22,11.22,0,0,1-2.87,8.09q-2.88,3-8.72,4.21l-1-2.47q9.85-2,9.88-9.73a15.22,15.22,0,0,0-1.38-5.9Z"/><path class="cls-5" d="M1443.33,546.05a20.39,20.39,0,0,0,3.9.44q7.3,0,7.31-3.72t-7.76-8.63l1.59-2.41a26.19,26.19,0,0,1,6.77,5.49,8.66,8.66,0,0,1,2.24,5.49,6.06,6.06,0,0,1-1.07,3.69,6.45,6.45,0,0,1-3.27,2.22,17.73,17.73,0,0,1-5.56.77,20,20,0,0,1-4.15-.4Z"/><path class="cls-5" d="M1471.08,549.43h-2.77a7.87,7.87,0,0,1-5-1.34,4.93,4.93,0,0,1-1.63-4,9.76,9.76,0,0,1,.95-4.23q1.71-3.57,5.14-3.57,5.67,0,6.34,10l0,.27h2.16a3.49,3.49,0,0,1,.15,1.32V548a3.92,3.92,0,0,1-.15,1.39l-2.12,0h-.25l0,.23q-1.36,7.47-11,9.39l-1-2.47q8.05-1.59,9.45-6.77l.09-.36Zm.4-3.23q-.45-6.9-4-6.92a2.65,2.65,0,0,0-1.23.28,2.73,2.73,0,0,0-1,.84,5.1,5.1,0,0,0-.69,1.34,6.26,6.26,0,0,0-.36,2,2.46,2.46,0,0,0,.46,1.53,2.56,2.56,0,0,0,1.3.91,6.29,6.29,0,0,0,2.07.3h3.38Z"/><path class="cls-5" d="M1476.05,549.43a.7.7,0,0,1-.61-.32,2,2,0,0,1-.2-1.07v-.36a1.6,1.6,0,0,1,.19-.92.75.75,0,0,1,.62-.25h1.14q6.33,0,15.61-4.8l1.41-.72.64-.33-.7-.19-1.27-.48-2.81-1.11c-1.26-.51-2.32-.89-3.16-1.14a7.54,7.54,0,0,0-2-.38,4.59,4.59,0,0,0-2.09.48,4.76,4.76,0,0,0-1.67,1.42l-.39.49-2.43-1.19.15-.27a10.44,10.44,0,0,1,1-1.36,7.64,7.64,0,0,1,1.13-1.08,6.75,6.75,0,0,1,2.73-1.22,8,8,0,0,1,1.58-.15,13.35,13.35,0,0,1,5.63,1.59q5.73,2.8,9,3l0,2.79a5.44,5.44,0,0,0-1.07.23c-.4.12-.84.28-1.32.46s-1,.4-1.58.65-1.18.54-1.83.86-1.35.67-2.09,1.08q-8.09,4.25-14.69,4.25Zm7.84-22.2,2.53-2.54,2.56,2.56-2.54,2.53Z"/><path class="cls-5" d="M1532.62,548.38l0-25.08h2.7l0,18.92a4.14,4.14,0,0,0,1.17,3.19,4.88,4.88,0,0,0,3.44,1.1h.34a2.64,2.64,0,0,1,.13,1.08V548a3.92,3.92,0,0,1-.15,1.39h-.42a6.29,6.29,0,0,1-4.64-1.63v.49c0,3.71-.9,6.46-2.57,8.27s-4.2,2.73-7.57,2.73q-5.38,0-8-2.56c-1.77-1.69-2.65-4.27-2.64-7.72a20,20,0,0,1,1.46-7.4l2.49,1a17.81,17.81,0,0,0-1.2,6.35,8.76,8.76,0,0,0,.9,4.16,5.83,5.83,0,0,0,2.67,2.52,10.19,10.19,0,0,0,4.38.83,7.32,7.32,0,0,0,5.62-2C1532,553.09,1532.61,551.07,1532.62,548.38Z"/><path class="cls-5" d="M1554,548a7.6,7.6,0,0,1,0,.9,1.69,1.69,0,0,1-.11.49h-.13q-3.59,0-4.91-2.53l-.23-.41-.27.38c-1.2,1.7-3.31,2.56-6.33,2.56h-2a.62.62,0,0,1-.42-.13.84.84,0,0,1-.27-.43,2.72,2.72,0,0,1-.1-.83v-.36a1.6,1.6,0,0,1,.19-.92.69.69,0,0,1,.6-.25h1.88q4.61,0,5.12-2.74a8.61,8.61,0,0,0,.14-1.63c0-.64,0-1.25-.06-1.82l-.1-1.27,2.57-.3.28,4.08a4.66,4.66,0,0,0,.57,2,3.13,3.13,0,0,0,1.32,1.23,4.52,4.52,0,0,0,2,.42h.09a3.62,3.62,0,0,1,.15,1.34Zm-14,7.68,2.54-2.53,2.55,2.55-2.53,2.54Zm6.17,0,2.54-2.53,2.56,2.55-2.54,2.54Z"/><path class="cls-5" d="M1566,549.85a9.1,9.1,0,0,1-6.43-3l-.23-.23-.19.23a6.64,6.64,0,0,1-5.1,2.62h-.4a.66.66,0,0,1-.42-.12.89.89,0,0,1-.28-.43,2.59,2.59,0,0,1-.1-.84v-.36a1.56,1.56,0,0,1,.19-.91.69.69,0,0,1,.61-.26h.3a4.06,4.06,0,0,0,3.28-1.92,13.46,13.46,0,0,0,1.44-2.64q2.41-5.31,6.27-5.33a6.3,6.3,0,0,1,2.63.53,5.39,5.39,0,0,1,2,1.62,7.66,7.66,0,0,1,1,1.78,12.15,12.15,0,0,1,.7,2.16q.8,3.79,3.26,3.8h.25a3.06,3.06,0,0,1,.13,1.17V548a4,4,0,0,1-.15,1.39h-.25a3.92,3.92,0,0,1-3.52-1.8l-.23-.36-.25.36A5,5,0,0,1,1566,549.85Zm-.21-2.83a3.06,3.06,0,0,0,2.24-.74,2.81,2.81,0,0,0,.74-2.18,4.81,4.81,0,0,0-.06-.77,5.93,5.93,0,0,0-.16-.73,5.3,5.3,0,0,0-.26-.7,3.4,3.4,0,0,0-3.32-2.24,3.82,3.82,0,0,0-.9.11,3.27,3.27,0,0,0-.82.35,3.77,3.77,0,0,0-.75.58,5,5,0,0,0-.67.81,8.24,8.24,0,0,0-.58,1,13.2,13.2,0,0,0-.53,1.24l0,.16.11.13Q1563.28,547,1565.75,547Z"/><path class="cls-5" d="M1576,549.43h-1.44a.7.7,0,0,1-.61-.32,2,2,0,0,1-.2-1.07v-.36a1.6,1.6,0,0,1,.19-.92.75.75,0,0,1,.62-.25H1576a9.53,9.53,0,0,0,4.25-.65c1.18-.68,1.77-2.09,1.77-4.21,0-.18,0-.36,0-.55l0-.57c0-.19,0-.38,0-.58s0-.39-.07-.6-.07-.4-.1-.61-.07-.42-.1-.63-.08-.42-.13-.63-.1-.43-.16-.65l2.56-.64a18.65,18.65,0,0,1,.84,5.4c0,3-.86,5.16-2.56,6.43Q1580.36,549.43,1576,549.43Zm-1.5,6.29,2.54-2.53,2.55,2.55-2.53,2.54Zm6.17,0,2.54-2.53,2.55,2.55-2.53,2.54Z"/><path class="cls-5" d="M1590.75,523.29h2.72v26.12h-2.72Z"/></g></g><g id="جستجو-3" data-name="جستجو" class="cls-3"><g class="cls-3"><path class="cls-4" d="M352.57,541.63q0-5.76,9.79-8.86l-.1-.53-.08-.38.36-.08,3.1-.62.38-.08.05.4,1.58,11.21a4.09,4.09,0,0,0,.51,1.57,2.33,2.33,0,0,0,1,.91,4.06,4.06,0,0,0,1.61.29h.38a.63.63,0,0,1,.43.15.81.81,0,0,1,.23.46c0,.2.06.38.08.52s0,.35,0,.62v.55c0,.3,0,.54,0,.7s0,.36-.08.59a.84.84,0,0,1-.23.5.59.59,0,0,1-.43.16h-.46q-5.12,0-6.35-4a8.36,8.36,0,0,1-2.32,1.26,7.52,7.52,0,0,1-2.56.43q-4.44,0-6.22-2.94A5.43,5.43,0,0,1,352.57,541.63Zm10.37-5a18.73,18.73,0,0,0-4.69,2.4,3.23,3.23,0,0,0-1.55,2.32,2.4,2.4,0,0,0,.14.85,1.4,1.4,0,0,0,.47.59,2.05,2.05,0,0,0,.83.37,4.91,4.91,0,0,0,1.22.13,5.17,5.17,0,0,0,2.73-.84,2.91,2.91,0,0,0,1.27-3.22l-.4-2.53Z"/><path class="cls-4" d="M376.6,547.17a7.13,7.13,0,0,1-5.33,2.54h-.4a1.21,1.21,0,0,1-1.1-.56,2.72,2.72,0,0,1-.36-1.49v-.36a2.23,2.23,0,0,1,.37-1.33,1.27,1.27,0,0,1,1.09-.51h.31a3.72,3.72,0,0,0,2.73-1.65,10.68,10.68,0,0,0,1.38-2.48q2.61-5.73,6.87-5.75a7.1,7.1,0,0,1,3,.6A6,6,0,0,1,387.4,538a8.57,8.57,0,0,1,1.88,5.5,7.15,7.15,0,0,1-1.35,4.69,5.88,5.88,0,0,1-4.67,2A9.3,9.3,0,0,1,376.6,547.17ZM383,546a2.38,2.38,0,0,0,1.73-.54,2.26,2.26,0,0,0,.54-1.68,5,5,0,0,0-.36-2,2.74,2.74,0,0,0-2.67-1.84q-2.28,0-3.59,3.47Q381,546,383,546Z"/><path class="cls-4" d="M401.72,547.66c0,.23,0,.47,0,.71a4.26,4.26,0,0,1-.08.66.93.93,0,0,1-.22.49.59.59,0,0,1-.46.19h-.4q-7.35,0-7.36-8.61V523h4.06v18.06c0,2.94,1.12,4.4,3.36,4.4H401a.69.69,0,0,1,.32.08.52.52,0,0,1,.21.23l.14.3a2.5,2.5,0,0,1,.05.4l0,.4a2.14,2.14,0,0,1,0,.43Z"/><path class="cls-4" d="M402.14,549.71H400.7a1.21,1.21,0,0,1-1.11-.56,2.63,2.63,0,0,1-.37-1.49v-.36a2.1,2.1,0,0,1,.38-1.33,1.28,1.28,0,0,1,1.1-.51h1.44a6.27,6.27,0,0,0,3-.55c.95-.55,1.42-1.77,1.42-3.64a20.61,20.61,0,0,0-.68-4.93l-.1-.36.36-.1,3.11-.78.35-.09.11.34a19.87,19.87,0,0,1,.93,5.86q0,4.85-2.81,7A9.23,9.23,0,0,1,402.14,549.71Zm1-20.37,2.76-2.76.14-.14.14.14,2.78,2.78.15.15-.15.14-2.76,2.76-.14.14-.14-.14-2.78-2.78-.14-.15Z"/><path class="cls-4" d="M421.89,549.07q-1.49,8.25-12.13,10.28l-.32.06-.11-.31-1.18-3-.17-.42.46-.1a17.08,17.08,0,0,0,5.4-1.83,8.43,8.43,0,0,0,3.21-3,8.33,8.33,0,0,0,1.06-4.27,15.31,15.31,0,0,0-1.44-5.92l-.17-.38.38-.13L420,538.9l.38-.13.11.36,1.18,3.68a5,5,0,0,0,.76,1.5,2.83,2.83,0,0,0,1.06.87,3.18,3.18,0,0,0,1.38.28h.54a.6.6,0,0,1,.42.15,1,1,0,0,1,.23.46,4.46,4.46,0,0,1,.08.52,5.27,5.27,0,0,1,0,.62v.55a6.67,6.67,0,0,1,0,.7,5.42,5.42,0,0,1-.07.59.84.84,0,0,1-.23.5.59.59,0,0,1-.43.16h-.33A6.22,6.22,0,0,1,421.89,549.07Z"/><path class="cls-4" d="M438.83,547.66v.12c0,.3,0,.53,0,.7a5.28,5.28,0,0,1-.08.58.83.83,0,0,1-.22.49.61.61,0,0,1-.44.16h-.19c-2.42,0-4.15-.79-5.22-2.39a6.8,6.8,0,0,1-5.58,2.39h-2a1.21,1.21,0,0,1-1.1-.56,2.72,2.72,0,0,1-.36-1.49v-.36A2.16,2.16,0,0,1,424,546a1.27,1.27,0,0,1,1.09-.51H427a4.54,4.54,0,0,0,2.47-.55,2.36,2.36,0,0,0,1.06-1.65,9.12,9.12,0,0,0,.11-1.5c0-.62,0-1.2-.05-1.76l-.1-1.56,0-.36.36,0,3.13-.37.4,0,0,.4.31,4.38a4.3,4.3,0,0,0,.28,1.36,2.55,2.55,0,0,0,.63,1,2.34,2.34,0,0,0,1,.56,4.71,4.71,0,0,0,1.38.18h.15a.65.65,0,0,1,.44.15.83.83,0,0,1,.22.5,5.62,5.62,0,0,1,.08.58c0,.15,0,.39,0,.69v.28Zm-11.6,7.92,2.76-2.76.14-.14.15.14,2.78,2.78.14.14-.14.15-2.76,2.76-.15.14-.14-.14-2.78-2.79-.14-.14Z"/><path class="cls-4" d="M437.79,549.71a1.21,1.21,0,0,1-1.11-.56,2.63,2.63,0,0,1-.37-1.49v-.36a2.1,2.1,0,0,1,.38-1.33,1.27,1.27,0,0,1,1.1-.51h1.13q6.16,0,15.31-4.72l.63-.32c-.37-.13-.82-.3-1.36-.52l-1.94-.79a16.84,16.84,0,0,0-4.91-1.46,3.94,3.94,0,0,0-3.25,1.63l-.53.68-.19.25-.26-.14-2.93-1.44-.38-.19.23-.34.3-.53a8.64,8.64,0,0,1,3-3.08,8,8,0,0,1,4-1.06,14.09,14.09,0,0,1,5.94,1.67q5.85,2.85,9,3l.36,0v.38l0,3.28v.34l-.35,0q-2.1.2-7.91,3.25-8.21,4.32-15,4.32Zm7.46-23L448,524l.14-.15.14.15,2.78,2.78.14.14-.14.14-2.76,2.76-.14.14-.14-.14L445.25,527l-.14-.14Z"/><path class="cls-4" d="M479.54,547.74q0,3.71,2.07,5.52c1.38,1.21,3.49,1.83,6.34,1.84a13.94,13.94,0,0,0,5.88-1.19,8.43,8.43,0,0,0,2.31-1.64,3.06,3.06,0,0,0,.93-2.18.86.86,0,0,0-.08-.38.56.56,0,0,0-.34-.23,2.08,2.08,0,0,0-.7-.09l-2.14,0a6,6,0,0,1-3.79-1,3.73,3.73,0,0,1-1.31-3.1,9.69,9.69,0,0,1,.59-3.45,9.08,9.08,0,0,1,1.78-2.89q3-3.32,8.55-3.32h.78V540h-.8a8.12,8.12,0,0,0-4.8,1.33,4.68,4.68,0,0,0-1.43,1.45,3.42,3.42,0,0,0-.48,1.72.79.79,0,0,0,.05.34.43.43,0,0,0,.12.17,1.23,1.23,0,0,0,.78.19h2.25a5.4,5.4,0,0,1,3.63,1,3.87,3.87,0,0,1,1.25,3.11q0,5.76-5.69,8.35a17.72,17.72,0,0,1-7.44,1.5q-6.12,0-9.26-2.87c-2.08-1.91-3.13-4.74-3.13-8.51a23.64,23.64,0,0,1,2.11-9.11l.15-.34.34.13,3,1.25.34.14-.15.36A19.84,19.84,0,0,0,479.54,547.74Z"/><path class="cls-4" d="M505.29,523H509v26.69h-4V523Z"/><path class="cls-4" d="M521.91,549.07q-1.49,8.25-12.13,10.28l-.32.06-.11-.31-1.18-3-.17-.42.45-.1a17.06,17.06,0,0,0,5.41-1.83,8.43,8.43,0,0,0,3.21-3,8.33,8.33,0,0,0,1.06-4.27,15.31,15.31,0,0,0-1.44-5.92l-.17-.38.38-.13,3.15-1.12.37-.13.12.36,1.17,3.68a5.53,5.53,0,0,0,.76,1.5,2.94,2.94,0,0,0,1.07.87,3.18,3.18,0,0,0,1.38.28h.53a.61.61,0,0,1,.43.15,1,1,0,0,1,.23.46,4.46,4.46,0,0,1,.08.52,5.27,5.27,0,0,1,0,.62v.55a6.67,6.67,0,0,1,0,.7c0,.16,0,.36-.07.59a.9.9,0,0,1-.23.5.6.6,0,0,1-.44.16h-.32A6.2,6.2,0,0,1,521.91,549.07Z"/><path class="cls-4" d="M526.59,549.71h-1.44a1.23,1.23,0,0,1-1.11-.56,2.63,2.63,0,0,1-.37-1.49v-.36a2.16,2.16,0,0,1,.38-1.33,1.28,1.28,0,0,1,1.1-.51h1.44a6.27,6.27,0,0,0,3-.55c.95-.55,1.42-1.77,1.42-3.64a20.61,20.61,0,0,0-.68-4.93l-.1-.36.36-.1,3.12-.78L534,535l.11.34a19.87,19.87,0,0,1,.93,5.86q0,4.85-2.81,7A9.23,9.23,0,0,1,526.59,549.71Zm-.08,5.87,2.76-2.76.14-.14.14.14,2.78,2.78.15.14-.15.15-2.76,2.76-.14.14-.14-.14-2.78-2.79-.14-.14Z"/><path class="cls-4" d="M555.35,547.09a1.5,1.5,0,0,0-1,.49,3.87,3.87,0,0,0-.81,1.43,11.86,11.86,0,0,0-.53,2.55,33.35,33.35,0,0,0-.18,3.71q0,3.74.27,6.83l0,.42h-4.19l0-.36c-.14-2.22-.21-4.33-.21-6.36,0-4.41.52-7.63,1.54-9.65a6,6,0,0,1,4.15-3.48q2.89-7.06,7.8-7.09a6.32,6.32,0,0,1,5.18,2.33,8.48,8.48,0,0,1,1.92,5.56,9.48,9.48,0,0,1-.34,2.58,6.58,6.58,0,0,1-1,2.11,4.75,4.75,0,0,1-1.88,1.49,6.59,6.59,0,0,1-2.65.5,10.09,10.09,0,0,1-4.84-1.59l-.37-.23-.37-.22-.39-.21-.4-.22-.41-.21a4.25,4.25,0,0,0-.7-.28A2.15,2.15,0,0,0,555.35,547.09Zm8-1.15a1.85,1.85,0,0,0,1.45-.53,2.49,2.49,0,0,0,.44-1.71,5.15,5.15,0,0,0-.38-1.94,2.32,2.32,0,0,0-.18-.39l-.2-.34a3.25,3.25,0,0,0-.23-.29,2.16,2.16,0,0,0-.27-.25l-.29-.2-.32-.15L563,540l-.39-.08a3,3,0,0,0-.43,0,2.81,2.81,0,0,0-1.08.21,3.28,3.28,0,0,0-1,.65,5.1,5.1,0,0,0-.88,1.13,10.21,10.21,0,0,0-.78,1.62C560.61,545.13,562.24,545.94,563.38,545.94Z"/><path class="cls-4" d="M581.74,547.66c0,.23,0,.47,0,.71a6.08,6.08,0,0,1-.07.66,1,1,0,0,1-.23.49.59.59,0,0,1-.46.19h-.4q-7.35,0-7.36-8.61V523h4.06v18.06c0,2.94,1.12,4.4,3.36,4.4H581a.69.69,0,0,1,.32.08.52.52,0,0,1,.21.23l.14.3a2.5,2.5,0,0,1,.05.4l0,.4a2.14,2.14,0,0,1,0,.43Z"/><path class="cls-4" d="M582.16,549.71h-1.44a1.21,1.21,0,0,1-1.11-.56,2.63,2.63,0,0,1-.37-1.49v-.36a2.1,2.1,0,0,1,.38-1.33,1.28,1.28,0,0,1,1.1-.51h1.44a6.27,6.27,0,0,0,3-.55c.94-.55,1.42-1.77,1.42-3.64a20.61,20.61,0,0,0-.68-4.93l-.1-.36.36-.1,3.11-.78.34-.09.12.34a19.87,19.87,0,0,1,.93,5.86q0,4.85-2.81,7A9.23,9.23,0,0,1,582.16,549.71Zm1-20.37,2.76-2.76.14-.14.14.14,2.78,2.78.15.15-.15.14-2.76,2.76-.14.14-.14-.14-2.78-2.78-.14-.15Z"/><path class="cls-4" d="M619.08,549.71q-7.3,0-11.06-2.39a8,8,0,0,1-3.76-7.21,12.16,12.16,0,0,1,1.06-5l.17-.35,3.67,1.41-.14.34a8.47,8.47,0,0,0-.6,3.11,4.78,4.78,0,0,0,1.11,3.23,7,7,0,0,0,3.48,1.95,21.65,21.65,0,0,0,6,.68c1.62,0,3.1-.05,4.43-.16a30,30,0,0,0,3.48-.46,13.34,13.34,0,0,0,2.49-.74,4.26,4.26,0,0,0,1.52-1,3,3,0,0,0,.55-2.05c0-.42,0-.76,0-1l-.12-1.56,0-.36.37,0,3.11-.38.4,0,0,.39.31,4.08a4.41,4.41,0,0,0,.85,2.45,2.86,2.86,0,0,0,2.37.89H639a.66.66,0,0,1,.32.08.72.72,0,0,1,.23.23,1.6,1.6,0,0,1,.11.3,1.16,1.16,0,0,1,.08.4c0,.18,0,.31,0,.41v.9c0,.3,0,.53,0,.7a2.92,2.92,0,0,1-.08.59.86.86,0,0,1-.22.49.65.65,0,0,1-.44.15h-.25A6.21,6.21,0,0,1,633,546.6q-3.5,3.12-13.8,3.11Zm-4.79-18,2.76-2.77.14-.14.14.14,2.78,2.79.14.14-.14.14-2.76,2.76-.14.14-.14-.14L614.29,532l-.15-.14Zm6.17,0,2.76-2.77.14-.14.14.14,2.78,2.79.14.14-.14.14-2.76,2.76-.14.14-.14-.14L620.46,532l-.15-.14Z"/><path class="cls-4" d="M652.41,547.66v.12c0,.3,0,.53,0,.7a5.28,5.28,0,0,1-.08.58.83.83,0,0,1-.22.49.61.61,0,0,1-.44.16h-.19c-2.42,0-4.15-.79-5.22-2.39a6.79,6.79,0,0,1-5.57,2.39h-2a1.21,1.21,0,0,1-1.1-.56,2.72,2.72,0,0,1-.36-1.49v-.36a2.23,2.23,0,0,1,.37-1.33,1.27,1.27,0,0,1,1.09-.51h1.88a4.54,4.54,0,0,0,2.47-.55,2.36,2.36,0,0,0,1.06-1.65,8.14,8.14,0,0,0,.11-1.5c0-.62,0-1.2-.05-1.76l-.1-1.56,0-.36.36,0,3.13-.37.4,0,0,.4.31,4.38a4.3,4.3,0,0,0,.28,1.36,2.55,2.55,0,0,0,.63,1,2.34,2.34,0,0,0,1,.56,4.71,4.71,0,0,0,1.38.18h.15a.65.65,0,0,1,.44.15.83.83,0,0,1,.22.5,5.62,5.62,0,0,1,.08.58c0,.15,0,.39,0,.69v.28Zm-11.6,7.92,2.76-2.76.15-.14.14.14,2.78,2.78.14.14-.14.15-2.76,2.76-.14.14-.15-.14-2.78-2.79-.14-.14Z"/><path class="cls-4" d="M652.81,549.71h-1.44a1.21,1.21,0,0,1-1.11-.56,2.63,2.63,0,0,1-.37-1.49v-.36a2.1,2.1,0,0,1,.38-1.33,1.28,1.28,0,0,1,1.1-.51h1.44a17,17,0,0,0,2.46-.15,4.85,4.85,0,0,0,1.47-.4c.94-.55,1.42-1.77,1.42-3.64a20.61,20.61,0,0,0-.68-4.93l-.1-.36.36-.1,3.11-.78.34-.09.12.34a19.87,19.87,0,0,1,.93,5.86q0,4.85-2.81,7Q657.41,549.71,652.81,549.71ZM651,529.63l2.7-2.7.14-.14.15.14,2.72,2.72.14.15-.14.14-2.71,2.7-.14.14-.14-.14L651,529.92l-.14-.14Zm3-5.09,2.7-2.7.14-.14.14.14,2.72,2.72.14.14-.14.14-2.7,2.7-.14.15-.14-.15L654,524.82l-.15-.14Zm3.12,5.09,2.7-2.7.14-.14.15.14,2.72,2.72.14.15-.14.14-2.7,2.7-.15.14-.14-.14-2.72-2.72-.14-.14Z"/></g></g></g></svg>