<svg xmlns="http://www.w3.org/2000/svg" viewBox="0 0 1920 1080"><defs><style>.cls-1{fill:#f3efee;}.cls-2{fill:#ccccc8;}.cls-3,.cls-4{fill:none;stroke:#000;stroke-miterlimit:10;stroke-width:4px;}.cls-3{stroke-dasharray:12.85;}</style></defs><g id="Background"><rect class="cls-1" width="1920" height="1080"/></g><g id="Graphic"><rect class="cls-2" y="540" width="1922.29" height="243.92"/><path d="M145.87,448.23h-6.81L117.81,377h7.65L142.84,437,160.32,377h7.35l17.67,59.49L202.63,377h7.54l-21.25,71.21h-6.8L164,388.44Z"/><path d="M238,443.76q11.72,0,14-11.62l6.6,1.05A17.3,17.3,0,0,1,252,445.08a22.09,22.09,0,0,1-14,4.39q-11.67,0-17.8-6.82t-6.13-19.74q0-12.07,6.4-19.22t17.28-7.2q10.29,0,15.94,6.23t5.66,17.46v4.27H221.25Q221.83,443.76,238,443.76Zm-.35-41.61q-7.1,0-11.24,4.22t-5,12.37H252Q251.29,402.15,237.68,402.15Z"/><path d="M279.25,388.64h-6.9V377h6.9Zm0,59.59h-6.9V397.68h6.9Z"/><path d="M314.11,445.3q-10,0-15.84-6.6t-5.86-17.83q0-11,5.91-17.68t15.79-6.7q10.17,0,16,7.7v-6.51h6.9V446.2q0,10.13-5.74,16.09t-15.81,5.95q-9.74,0-15.42-4.44a17.34,17.34,0,0,1-6.53-12.44l6.9-.6c.8,4.08,2.4,7,4.82,8.82s5.79,2.71,10.13,2.71q7.31,0,11-4.23t3.73-12.46V437A18.5,18.5,0,0,1,314.11,445.3Zm-14.55-24.43q0,8.79,4.07,13.61t11.47,4.81a13.63,13.63,0,0,0,11-5.09q4.22-5.08,4.22-13.33a20.32,20.32,0,0,0-4.27-13.21,13.49,13.49,0,0,0-11-5.21q-7.55,0-11.54,4.79T299.56,420.87Z"/><path d="M395.25,415.51v32.72H388.3V416.8q0-6.81-3.43-10.53t-9.78-3.72c-4.93,0-8.68,1.54-11.22,4.62s-3.83,7.58-3.83,13.5v27.56h-6.9V377H360v27.36q5.16-7.89,16.19-7.89,8.89,0,13.95,5.09T395.25,415.51Z"/><path d="M404.09,403.49v-5.81h9.33V381h7v16.68h13.7v5.81h-13.7v30.59c0,3.05.52,5.16,1.56,6.36s2.86,1.78,5.44,1.78h8v6h-8.89q-6.3,0-9.7-3.42T413.42,435V403.49Z"/><path d="M153.21,691.45H126.49V620.24h26.72q15.93,0,25.42,9.48t9.49,25.33q0,16.53-9.59,26.42T153.21,691.45Zm27.26-36.4q0-12.91-7.4-20.46t-19.86-7.7H133.89v58h19.32q12.4,0,19.86-8.14T180.47,655.05Z"/><path d="M208.33,631.86h-6.91V620.24h6.91Zm0,59.59h-6.91V640.89h6.91Z"/><path d="M264.64,663.89v27.56h-6.95V660q0-6.79-3.16-10.52t-9-3.73q-6.81,0-10.43,4.64t-3.62,13.49v27.56h-6.91V640.89h6.91v6.41q5.16-7.59,15.14-7.6a19.09,19.09,0,0,1,9.93,2.44,14.91,14.91,0,0,1,6.16,7.1q5-9.54,16.69-9.54,8.58,0,13.48,5.09t4.89,13.93v32.73h-6.9V660q0-6.79-3.18-10.52t-9-3.73q-6.79,0-10.4,4.64T264.64,663.89Z"/><path d="M334,687q11.71,0,14-11.62l6.61,1a17.3,17.3,0,0,1-6.65,11.89,22.1,22.1,0,0,1-14,4.4q-11.67,0-17.8-6.83T310,666.12q0-12.06,6.4-19.22t17.28-7.2q10.29,0,15.94,6.23t5.66,17.46v4.27H317.18Q317.77,687,334,687Zm-.35-41.62q-7.1,0-11.24,4.22t-5,12.37H348Q347.23,645.36,333.61,645.36Z"/><path d="M410.39,658.72v32.73h-7V660q0-6.79-3.42-10.52t-9.79-3.73q-7.39,0-11.22,4.62t-3.82,13.51v27.56h-6.9V640.89h6.9v6.71q5.16-7.9,16.19-7.9,8.88,0,13.95,5.09T410.39,658.72Z"/><path d="M419.22,646.7v-5.81h9.34V624.21h6.95v16.68h13.71v5.81H435.51v30.59q0,4.58,1.57,6.36t5.43,1.79h8.05v6h-8.89q-6.3,0-9.71-3.43t-3.4-9.78V646.7Z"/><path d="M467.39,631.86h-6.9V620.24h6.9Zm0,59.59h-6.9V640.89h6.9Z"/><path d="M480.16,666.22q0-12,6.5-19.22t17.63-7.3q11,0,17.58,7.3t6.6,19.22q0,11.87-6.6,19.22t-17.58,7.25q-11,0-17.63-7.25T480.16,666.22Zm36.62,14.95q4.59-5.52,4.59-14.95t-4.59-15q-4.59-5.55-12.49-5.56a15.25,15.25,0,0,0-12.42,5.56q-4.56,5.56-4.56,15t4.54,14.95q4.54,5.51,12.44,5.51T516.78,681.17Z"/><path d="M583.4,658.72v32.73h-7V660q0-6.79-3.42-10.52t-9.79-3.73q-7.4,0-11.22,4.62t-3.82,13.51v27.56h-6.9V640.89h6.9v6.71q5.16-7.9,16.19-7.9,8.88,0,14,5.09T583.4,658.72Z"/><path d="M1550.91,412.63q0-17.13,6.8-27a21.75,21.75,0,0,1,18.92-9.83q12.21,0,19,9.83t6.8,27q0,17-6.9,27a21.79,21.79,0,0,1-18.92,9.88q-12.17,0-19-9.78Q1550.91,430,1550.91,412.63Zm44.14,0q0-14.5-4.79-22.55t-13.63-8q-8.6,0-13.46,8.14t-4.86,22.45q0,14.64,4.74,22.64t13.58,8q8.83,0,13.63-8T1595.05,412.63Z"/><path d="M1612.83,438.35h9.39v9.88h-9.39Z"/><path d="M1675.9,427.77q0-6.34-4-9.83t-11.37-3.48h-6.2v-5.9h6.2q6.26,0,9.69-3.75t3.42-10.46a11.3,11.3,0,0,0-3.8-9q-3.79-3.3-10.25-3.3-7.3,0-11.6,4.12t-4.64,11.52l-6.85-1.54a19.14,19.14,0,0,1,6.65-14.6q6.6-5.71,16.34-5.71,9.93,0,15.69,5t5.76,13.53a19.55,19.55,0,0,1-2.65,10.28,16.38,16.38,0,0,1-7.58,6.61,18.8,18.8,0,0,1,9.31,6.3,16.25,16.25,0,0,1,3.26,10.13q0,9.94-6.41,15.89t-17.18,5.91q-10.43,0-17.48-5.11a18.84,18.84,0,0,1-7.85-13.71l7.35-2q.84,7,5.42,10.82t12.16,3.83q7.76,0,12.17-4.1T1675.9,427.77Z"/><path d="M1740,397.68,1719.8,416.4l21.8,31.83h-8.15l-18.62-27.46-10.38,9.49v18h-6.9V377h6.9v45.09l26-24.43Z"/><path d="M1767.07,445.3q-10,0-15.84-6.6t-5.86-17.83q0-11,5.91-17.68t15.79-6.7q10.18,0,16,7.7v-6.51h6.9V446.2q0,10.13-5.73,16.09t-15.82,5.95q-9.74,0-15.42-4.44a17.34,17.34,0,0,1-6.53-12.44l6.9-.6c.8,4.08,2.4,7,4.82,8.82s5.79,2.71,10.13,2.71q7.31,0,11-4.23t3.72-12.46V437A18.49,18.49,0,0,1,1767.07,445.3Zm-14.55-24.43q0,8.79,4.07,13.61t11.47,4.81a13.63,13.63,0,0,0,11-5.09q4.22-5.08,4.22-13.33a20.32,20.32,0,0,0-4.27-13.21,13.49,13.49,0,0,0-11-5.21q-7.55,0-11.54,4.79T1752.52,420.87Z"/><path d="M1212.67,638.66a12.44,12.44,0,0,0-3.8-9.53,13.9,13.9,0,0,0-9.95-3.58q-17,0-16.89,20.21l-7-.89q-.6-11.93,6-18.82t17.68-7q9.93,0,15.69,5.47t5.76,14.35a25.59,25.59,0,0,1-3.6,12.71q-3.6,6.36-11.54,13.86l-21.16,19.71h37.84v6.31h-47.17v-6.81l26-24.23q6.6-6.1,9.36-11.1A21.78,21.78,0,0,0,1212.67,638.66Z"/><path d="M1233.38,655.84q0-17.13,6.8-27A21.75,21.75,0,0,1,1259.1,619q12.23,0,19,9.84t6.81,27q0,17-6.91,27a21.8,21.8,0,0,1-18.92,9.88q-12.16,0-19-9.78Q1233.38,673.18,1233.38,655.84Zm44.15,0q0-14.49-4.8-22.54t-13.63-8q-8.58,0-13.45,8.15t-4.87,22.44q0,14.65,4.74,22.65t13.58,8q8.85,0,13.63-8T1277.53,655.84Z"/><path d="M1319.19,686.68a14.15,14.15,0,0,0,10-3.53q3.79-3.52,4.44-9.93l6.9.75a20,20,0,0,1-6.6,13.6q-5.87,5.11-14.75,5.12-10.68,0-17-7.05T1296,666.42q0-12.17,6.21-19.42t17-7.3q9.18,0,14.85,4.77t6.8,13.41l-7.3.84q-2-13.05-14.55-13.06-7.54,0-11.69,5.49t-4.15,15.27q0,9.48,4.22,14.87T1319.19,686.68Z"/><path d="M1393,663.89v27.56h-7V660q0-6.79-3.15-10.52t-9-3.73q-6.79,0-10.42,4.64t-3.63,13.49v27.56H1353V640.89h6.9v6.41q5.16-7.59,15.15-7.6a19.14,19.14,0,0,1,9.93,2.44,14.91,14.91,0,0,1,6.16,7.1q5-9.54,16.68-9.54,8.6,0,13.48,5.09t4.89,13.93v32.73h-6.9V660q0-6.79-3.18-10.52t-9-3.73q-6.81,0-10.41,4.64T1393,663.89Z"/><path d="M1459.47,691.45,1479,665.82l-18.72-24.93h7.94l15,20.07,15.25-20.07h7.84l-18.92,24.83L1507,691.45h-8.15l-15.64-21-15.79,21Z"/><path d="M1579.4,671q0-6.36-4-9.83t-11.37-3.48h-6.21v-5.91h6.21q6.26,0,9.68-3.75t3.42-10.45a11.35,11.35,0,0,0-3.79-9q-3.81-3.3-10.26-3.3-7.3,0-11.59,4.12t-4.65,11.52l-6.85-1.54a19.12,19.12,0,0,1,6.65-14.59A24.11,24.11,0,0,1,1563,619q9.93,0,15.69,5t5.76,13.53a19.6,19.6,0,0,1-2.65,10.28,16.37,16.37,0,0,1-7.58,6.6,18.89,18.89,0,0,1,9.32,6.31,16.28,16.28,0,0,1,3.25,10.13q0,9.93-6.41,15.89t-17.18,5.91q-10.43,0-17.48-5.12a18.83,18.83,0,0,1-7.84-13.7l7.34-2q.86,7,5.42,10.83t12.16,3.82q7.76,0,12.17-4.1T1579.4,671Z"/><path d="M1599.21,655.84q0-17.13,6.81-27t18.92-9.84q12.21,0,19,9.84t6.8,27q0,17-6.9,27a21.81,21.81,0,0,1-18.92,9.88q-12.18,0-19-9.78T1599.21,655.84Zm44.15,0q0-14.49-4.79-22.54t-13.63-8q-8.6,0-13.46,8.15t-4.87,22.44q0,14.65,4.74,22.65t13.59,8q8.83,0,13.63-8T1643.36,655.84Z"/><path d="M1685,686.68a14.13,14.13,0,0,0,10-3.53q3.79-3.52,4.44-9.93l6.91.75a20,20,0,0,1-6.61,13.6q-5.87,5.11-14.75,5.12-10.68,0-17-7.05t-6.21-19.22q0-12.17,6.21-19.42t17-7.3q9.2,0,14.85,4.77t6.8,13.41l-7.3.84q-2-13.05-14.55-13.06-7.54,0-11.69,5.49T1669,666.42q0,9.48,4.22,14.87T1685,686.68Z"/><path d="M1758.86,663.89v27.56h-6.95V660q0-6.79-3.15-10.52t-9-3.73q-6.81,0-10.43,4.64t-3.63,13.49v27.56h-6.9V640.89h6.9v6.41q5.18-7.59,15.15-7.6a19.14,19.14,0,0,1,9.93,2.44,14.91,14.91,0,0,1,6.16,7.1q5-9.54,16.68-9.54,8.6,0,13.49,5.09t4.89,13.93v32.73h-6.91V660q0-6.79-3.17-10.52t-9-3.73q-6.81,0-10.41,4.64T1758.86,663.89Z"/><line class="cls-3" y1="540" x2="1922.29" y2="540"/><line class="cls-4" y1="296.08" x2="1922.29" y2="296.08"/><line class="cls-4" y1="783.92" x2="1922.29" y2="783.92"/></g></svg>