<svg xmlns="http://www.w3.org/2000/svg" viewBox="0 0 1080 1080"><defs><style>.cls-1{fill:#f0eceb;}.cls-2{fill:#082b96;}.cls-3{fill:none;}.cls-4{fill:#fff;}</style></defs><g id="Background"><rect class="cls-1" width="1080" height="1080"/></g><g id="Graphic"><rect class="cls-2" x="119.94" y="440" width="840.12" height="200" rx="99.38"/><rect class="cls-3" x="799.94" y="480" width="120" height="120"/><g id="Group_31" data-name="Group 31"><path class="cls-4" d="M859.94,590a40,40,0,0,1-40-40V510h80v40A40,40,0,0,1,859.94,590Zm-30-70v30a30,30,0,0,0,60,0V520Z"/><path class="cls-4" d="M879.94,530h-10V510a10,10,0,0,0-20,0v20h-10V510a20,20,0,0,1,40,0Z"/></g><rect class="cls-3" x="799.94" y="480" width="120" height="120"/><path class="cls-4" d="M238.73,552.32H215.06l-4.57,12.38h-9.42l21.1-56h10.15l21,56H243.22ZM218,544.55h18L227.05,520Z"/><path class="cls-4" d="M283.53,564.7H260.71v-56h22.82q12.72,0,20.23,7.38t7.5,19.84q0,12.93-7.58,20.86T283.53,564.7Zm18.24-28.79q0-8.74-5-13.94t-13.28-5.2H270.09v39.85h13.44q8.31,0,13.28-5.67T301.77,535.91Z"/><path class="cls-4" d="M344.14,564.7H321.33v-56h22.81q12.74,0,20.24,7.38t7.5,19.84q0,12.93-7.58,20.86T344.14,564.7Zm18.24-28.79q0-8.74-5-13.94t-13.28-5.2H330.7v39.85h13.44q8.33,0,13.28-5.67T362.38,535.91Z"/><path class="cls-4" d="M391.39,508.69h43.44v8.08h-17V564.7h-9.45V516.77h-17Z"/><path class="cls-4" d="M491.22,536.7q0,13.08-7.38,21t-19.61,7.93q-12.3,0-19.65-7.93t-7.3-21q0-13.05,7.38-21t19.57-7.93q12.27,0,19.61,7.93T491.22,536.7Zm-39.7-15.28q-4.63,5.6-4.63,15.28T451.52,552q4.62,5.61,12.71,5.6T477,552q4.65-5.61,4.65-15.29T477,521.42q-4.65-5.58-12.81-5.58T451.52,521.42Z"/><path class="cls-4" d="M542,557.52a15.41,15.41,0,0,0,10-3.17c2.6-2.11,4.5-5.32,5.73-9.65l9.18,1.14a25,25,0,0,1-8.73,14.59q-6.63,5.25-16.31,5.25-12.2,0-19.34-7.85t-7.15-21.13q0-13.22,7.23-21T542,507.75q10.31,0,16.91,5.33t8.44,15.22l-9.42,1.36q-3.2-13.74-15.93-13.75-8,0-12.5,5.55t-4.53,15.24q0,9.67,4.53,15.25T542,557.52Z"/><path class="cls-4" d="M607.09,552.32H583.42l-4.57,12.38h-9.41l21.09-56h10.16l21,56H611.58Zm-20.78-7.77h18L595.41,520Z"/><path class="cls-4" d="M670.91,550.45l.82,14.25h-9.37l-.82-14.25a6.76,6.76,0,0,0-2.56-5.34q-2.33-1.7-7.25-1.7H638.45V564.7h-9.37v-56h23.28q8.75,0,14,4.41a13.71,13.71,0,0,1,5.39,11.21,16.14,16.14,0,0,1-2.36,8.58,16.63,16.63,0,0,1-6.62,6.07Q670.45,541.49,670.91,550.45Zm-8.71-25.2a7.78,7.78,0,0,0-2.81-6.29c-1.88-1.56-4.45-2.34-7.74-2.34h-13.2v19.06h13.2a10.35,10.35,0,0,0,7.66-2.89A10.19,10.19,0,0,0,662.2,525.25Z"/><path class="cls-4" d="M676.57,508.69H720v8.08h-17V564.7H693.6V516.77h-17Z"/></g></svg>