<svg xmlns="http://www.w3.org/2000/svg" viewBox="0 0 1080 1080"><defs><style>.cls-1{fill:#f0eceb;}.cls-2{fill:#082b96;}.cls-3{fill:none;}.cls-4{fill:#fff;}</style></defs><g id="Background"><rect class="cls-1" width="1080" height="1080"/></g><g id="Graphic"><rect class="cls-2" x="400" y="400" width="280" height="280" rx="140"/><rect class="cls-3" x="455.83" y="456" width="168" height="168"/><g id="Group_31" data-name="Group 31"><path class="cls-4" d="M539.83,610a56.06,56.06,0,0,1-56-56V498h112v56A56.06,56.06,0,0,1,539.83,610Zm-42-98v42a42,42,0,1,0,84,0V512Z"/><path class="cls-4" d="M567.83,526h-14V498a14,14,0,1,0-28,0v28h-14V498a28,28,0,1,1,56,0Z"/></g><rect class="cls-3" x="455.83" y="456" width="168" height="168"/></g></svg>