<svg id="Background" xmlns="http://www.w3.org/2000/svg" viewBox="0 0 1920 1080"><defs><style>.cls-1{fill:#f3efee;}.cls-2{fill:#282828;}</style></defs><rect class="cls-1" width="1920" height="1080"/><path class="cls-2" d="M1400.34,352.75a17.18,17.18,0,0,1-1.52,7.45q-4.07,8.26-15.47,8.26-17.07,0-17-15.84a30.4,30.4,0,0,1,2.48-11.71l4.33,1.78a27.26,27.26,0,0,0-2,9.87q0,11.07,12.43,11.07,12.14,0,12.2-12.13a22.72,22.72,0,0,0-2.49-10.09l4.72-1.64,2,6.22q1.07,3.27,5.27,3.27h.52c.36,0,.54.66.54,2v.66q0,2.4-.54,2.4h-.41A7.06,7.06,0,0,1,1400.34,352.75Zm-21.29-15.25,4-4,4,4-4,4Z"/><path class="cls-2" d="M1425.82,351.88c0,1.6-.18,2.4-.55,2.4H1425q-5.4,0-7.45-3.85-2.7,3.85-9.43,3.85h-2.84c-1,0-1.55-.8-1.55-2.4v-.52c0-1.4.51-2.1,1.55-2.1h2.7q6.3,0,7-3.6a13.44,13.44,0,0,0,.17-2.26c0-.91,0-1.78-.08-2.59l-.14-2.21,4.47-.55.44,6.3q.35,4.9,5.24,4.91h.21c.37,0,.55.78.55,2.35Zm-20.92,11,4-4,4,4-4,4Zm8.87,0,4-4,4,4-4,4Z"/><path class="cls-2" d="M1445.37,351.88q0,2.4-.54,2.4h-.27c-3.6,0-6.09-1.28-7.45-3.85q-2.7,3.85-9.44,3.85h-2.83q-1.56,0-1.56-2.4v-.52q0-2.1,1.56-2.1h2.7c4.2,0,6.52-1.2,7-3.6a13.53,13.53,0,0,0,.16-2.26c0-.91,0-1.78-.08-2.59l-.14-2.21,4.48-.55.43,6.3q.36,4.9,5.24,4.91h.22c.36,0,.54.78.54,2.35Zm-20.92,11,4-4,4,4-4,4Zm8.87,0,4-4,4,4-4,4Z"/><path class="cls-2" d="M1446.49,354.28h-2.07c-1.05,0-1.58-.8-1.58-2.4v-.52c0-1.4.53-2.1,1.58-2.1h2.07c2.91,0,4.89-.29,5.92-.87q2.33-1.36,2.32-5.7a29.76,29.76,0,0,0-1-7.23l4.45-1.12a27.55,27.55,0,0,1,1.33,8.27q0,6.67-3.82,9.57Q1452.9,354.28,1446.49,354.28Zm-2.48,8.64,4-4,4,4-4,4Zm8.87,0,4-4,4,4-4,4Z"/><path class="cls-2" d="M1481.27,339.77a27,27,0,0,1,2.26,10.23q0,14.87-17.32,18.13l-1.69-4.31q14.3-2.67,14.35-13.69a22.18,22.18,0,0,0-2.13-8.72Zm-8.08-9.93,4.1-4.1,4.13,4.13-4.1,4.11Z"/><path class="cls-2" d="M1517.76,354.28h-4q-10,0-10-8.13a14.25,14.25,0,0,1,1.41-6.24q2.57-5.39,7.75-5.38,8.54,0,9.52,14.76h2.81c.36,0,.54.77.54,2.32v.27q0,2.4-.54,2.4l-3.14,0q-2,11.16-16.42,13.88l-1.69-4.31Q1515.8,361.65,1517.76,354.28Zm.16-5q-.62-9.54-5.29-9.57-2.57,0-3.73,3.27a8.54,8.54,0,0,0-.49,2.78q0,3.52,5.1,3.52Z"/><path class="cls-2" d="M1527,354.28h-2.07c-1.05,0-1.58-.8-1.58-2.4v-.52c0-1.4.53-2.1,1.58-2.1H1527q4.36,0,5.92-.87,2.33-1.36,2.32-5.7a29.76,29.76,0,0,0-1-7.23l4.45-1.12a27.55,27.55,0,0,1,1.33,8.27q0,6.67-3.82,9.57Q1533.36,354.28,1527,354.28Zm-2.48,8.64,4-4,4,4-4,4Zm8.87,0,4-4,4,4-4,4Z"/><path class="cls-2" d="M1552.89,354.25a26.43,26.43,0,0,1-6.44-.68v-5.13a25.7,25.7,0,0,0,6,.79q9.46,0,9.41-4.5,0-1.2-2.48-7l-3.3-7.75,4.5-2.07,5.24,13.25q3.18,8.13,6.43,8.13h.55q.54,0,.54,2.1v.52q0,2.4-.54,2.4h-.55c-3,0-5.42-1.46-7.14-4.39Q1561.54,354.26,1552.89,354.25Z"/><path class="cls-2" d="M1592.93,351.88c0,1.6-.18,2.4-.55,2.4h-.27q-5.4,0-7.44-3.85-2.72,3.85-9.44,3.85h-2.84c-1,0-1.55-.8-1.55-2.4v-.52c0-1.4.52-2.1,1.55-2.1h2.7q6.3,0,7-3.6a13.44,13.44,0,0,0,.17-2.26c0-.91,0-1.78-.08-2.59l-.14-2.21,4.47-.55.44,6.3q.35,4.9,5.24,4.91h.21c.37,0,.55.78.55,2.35ZM1572.36,328l4-4,4,4-4,4Zm8.87,0,4-4,4,4-4,4Z"/><path class="cls-2" d="M1614.48,345.25a9.53,9.53,0,0,0,.16-1.91c0-.82,0-1.66-.11-2.53l-.16-1.64,4.5-.55.43,6.3c.2,2.88,1.63,4.31,4.29,4.31s3.79-1.94,3.79-5.83a25.92,25.92,0,0,0-1.2-7l4.66-1.25a26.23,26.23,0,0,1,1.34,8v.16q0,6.19-3.33,9.08a7.51,7.51,0,0,1-5.16,1.8q-5,0-6.65-3.82a8.74,8.74,0,0,1-7.5,3.85q-5.57,0-7.2-3.85-2.19,3.85-8.81,3.85H1592c-1,0-1.58-.8-1.58-2.4v-.52c0-1.4.53-2.1,1.58-2.1h1.58q5.6,0,6.44-4a9.53,9.53,0,0,0,.16-1.91c0-.78,0-1.63-.1-2.53l-.17-1.64,4.5-.55.44,6.3q.3,4.33,4.74,4.34A4.5,4.5,0,0,0,1614.48,345.25Z"/><path class="cls-2" d="M1639.08,315.88h4.72v38.37h-4.72Z"/><path class="cls-2" d="M323.61,454c.48,0,.72.88.72,2.63v.65c0,2-.24,3-.72,3h-5.37a4.56,4.56,0,0,1,1.61,3.86q0,5.24-6.19,9.23A30.22,30.22,0,0,1,296.85,478q-21.37,0-21.33-19.89A33.11,33.11,0,0,1,278,445.48l5.43,2.22a30.23,30.23,0,0,0-1.88,10.46q0,13.77,15.28,13.84a26.09,26.09,0,0,0,10.8-2.22,12.8,12.8,0,0,0,5.61-4.31,4.19,4.19,0,0,0,.78-2.29q0-2.94-4.51-2.94h-5.23q-2-.19-2.7-3.21a10.06,10.06,0,0,1-.34-2.12c0-.52.13-.83.38-.92Z"/><path class="cls-2" d="M325.76,460.28h-2.6c-1.32,0-2-1-2-3v-.65c0-1.75.66-2.63,2-2.63h2.6q5.48,0,7.42-1.09,2.9-1.71,2.9-7.15a37.36,37.36,0,0,0-1.26-9.06l5.57-1.4a34.43,34.43,0,0,1,1.68,10.36q0,8.37-4.79,12Q333.8,460.28,325.76,460.28Zm-3.11,10.83,5-5,5,5-5,5Zm11.12,0,5-5,5,5-5,5Z"/><path class="cls-2" d="M369.37,452.66q7.88-2.51,7.87-14.26V412.15h5.91v29.36q0,12.48,7.21,12.48h.86c.45,0,.68.88.68,2.63v.65c0,2-.23,3-.68,3h-1.34q-8.29,0-10.52-7.73-5.55,7.63-19.11,7.63a43,43,0,0,1-7.62-.55v-6.19a57.79,57.79,0,0,0,11.17.41q-4-13.61-13.84-36.43l5.64-3.22Q365.49,438,369.37,452.66Z"/><path class="cls-2" d="M431.82,445.79q0,14.49-24.64,14.49H390.67c-1.32,0-2-1-2-3v-.65c0-1.75.66-2.63,2-2.63h5l2.53-3.9v-38h5.91v29.57q6.87-8.44,14.9-8.45a12.81,12.81,0,0,1,8.34,2.81A12,12,0,0,1,431.82,445.79Zm-12.71-6.19q-7.94,0-17,14.36H407q18.58,0,18.59-7.87a6.08,6.08,0,0,0-2.67-5.33A6.76,6.76,0,0,0,419.11,439.6Z"/><path class="cls-2" d="M483.91,460.28q-26,0-26-16.61a21.2,21.2,0,0,1,1.88-8.79l5.37,2a15.37,15.37,0,0,0-1.13,5.78Q464,454,483.26,454q17.13,0,21.6-3.28,2.19-1.6,2.19-5.64a39.91,39.91,0,0,0-1.23-8.41l5.57-1.4a29.9,29.9,0,0,1,1.71,9.3q0,8.1-4.72,11.41-6.18,4.3-24.37,4.31Zm-2.35,10.83,5-5,5,5-5,5Z"/><path class="cls-2" d="M535.35,457.27c0,2-.2,3-.68,3H534q-12.59,0-12.58-14.84V412.15h6v33.23q0,8.61,6.73,8.61h.62c.45,0,.68.88.68,2.63Z"/><path class="cls-2" d="M560.47,451.77q3.74,2.22,12.75,2.22H574c.45,0,.68.88.68,2.63v.65a16.94,16.94,0,0,1-.07,1.71,3.36,3.36,0,0,1-.24,1c-.11.21-.23.31-.37.31h-.79q-11.38,0-17.63-4.85l-.07,0-.07,0q-5.64,4.85-20.44,4.85h-.82c-1.32,0-2-1-2-3v-.65c0-1.75.66-2.63,2-2.63h.92q11.73,0,15.08-2.22l.13-.1-.13-.11q-10-5.64-10-11.14,0-3.56,5.4-6a25,25,0,0,1,10-1.71,26.1,26.1,0,0,1,10.11,1.64q5.1,2.16,5.1,5.88,0,4.86-10.33,11.35l-.17.07Zm3.69-10.63c0-1.41-2.91-2.12-8.75-2.12s-8.76.73-8.78,2.19a3,3,0,0,0,1.06,1.88q2.12,2.25,7.66,5.06l.06,0,0,0a31.75,31.75,0,0,0,7.62-5.34C563.8,442.08,564.16,441.53,564.16,441.14Z"/><path class="cls-2" d="M573.53,460.28c-1.32,0-2-1-2-3v-.65c0-1.75.66-2.63,2-2.63h1.64q9.12,0,9.13-8.58V412.15h5.94v33.47q0,14.65-15.24,14.66Z"/><path class="cls-2" d="M626.13,460.24a32.7,32.7,0,0,1-8.06-.85V453a31.85,31.85,0,0,0,7.55,1q11.86,0,11.79-5.64,0-1.51-3.11-8.82l-4.13-9.71,5.64-2.6,6.56,16.61q4,10.18,8.06,10.19h.69c.45,0,.68.88.68,2.63v.65c0,2-.23,3-.68,3h-.69q-5.7,0-8.95-5.5Q637,460.24,626.13,460.24Z"/><path class="cls-2" d="M676.31,457.27c0,2-.23,3-.69,3h-.34q-6.76,0-9.33-4.82c-2.25,3.21-6.2,4.82-11.82,4.82h-3.56c-1.3,0-2-1-2-3v-.65c0-1.75.65-2.63,2-2.63H654q7.9,0,8.75-4.51a16.73,16.73,0,0,0,.21-2.84c0-1.14,0-2.22-.1-3.25l-.17-2.76,5.6-.69.55,7.9q.44,6.15,6.56,6.15h.27q.69,0,.69,2.94Zm-26.22,13.84,5-5,5,5-5,5Zm11.12,0,5-5,5,5-5,5Z"/><path class="cls-2" d="M703.28,449a12.67,12.67,0,0,0,.2-2.4c0-1,0-2.08-.14-3.18l-.2-2.05,5.64-.68.55,7.9c.25,3.6,2,5.4,5.36,5.4q4.75,0,4.75-7.32a32.44,32.44,0,0,0-1.5-8.71l5.84-1.58a32.71,32.71,0,0,1,1.68,10v.21q0,7.75-4.17,11.38a9.43,9.43,0,0,1-6.46,2.25q-6.33,0-8.34-4.78a11,11,0,0,1-9.4,4.82q-7,0-9-4.82-2.75,4.82-11,4.82h-1.92c-1.32,0-2-1-2-3v-.65c0-1.75.66-2.63,2-2.63h2c4.68,0,7.36-1.68,8.07-5a11.82,11.82,0,0,0,.21-2.4c0-1,0-2-.14-3.18l-.21-2.05,5.64-.68.55,7.9q.38,5.43,5.95,5.43C700.58,454,702.61,452.31,703.28,449Zm-8.71-20.85,4.82-4.86,4.9,4.9L699.43,433Zm5.45-9.18,4.86-4.86,4.9,4.9-4.86,4.86Zm5.63,9.18,4.86-4.86,4.9,4.9L710.55,433Z"/><path class="cls-2" d="M743.47,442.1a33.91,33.91,0,0,1,2.84,12.81q0,18.63-21.71,22.73l-2.12-5.4q17.91-3.35,18-17.16a27.76,27.76,0,0,0-2.66-10.93Z"/><path class="cls-2" d="M770.06,460.28h-5q-12.51,0-12.51-10.19a17.88,17.88,0,0,1,1.78-7.82q3.21-6.74,9.71-6.74,10.69,0,11.93,18.49h3.52c.45,0,.68,1,.68,2.91v.34c0,2-.23,3-.68,3l-3.93,0q-2.57,14-20.58,17.4l-2.12-5.4Q767.6,469.51,770.06,460.28Zm.21-6.29q-.79-12-6.63-12c-2.14,0-3.71,1.35-4.69,4.1a10.83,10.83,0,0,0-.61,3.49q0,4.41,6.39,4.41Z"/><path class="cls-2" d="M779,460.28c-1.32,0-2-1-2-3v-.65c0-1.75.66-2.63,2-2.63h2q11.28,0,27.9-8.58l2.52-1.3c-.59-.16-3.05-1.11-7.38-2.87s-7.51-2.7-9.12-2.7a7.71,7.71,0,0,0-6.36,3.21l-1,1.23-5.26-2.59.54-1q4.32-7.08,12.07-7.11,4.34,0,10.39,2.94,10.67,5.19,16.51,5.43l-.07,5.95q-3.93.35-14.49,5.91-14.67,7.72-26.7,7.73Zm13.72-40.51,5-5,5,5-5,5Z"/><path class="cls-2" d="M880.4,457.89l.1-45.74h5.88l0,44.4q0,21.51-19,21.5-19.79,0-19.76-19.17A36.4,36.4,0,0,1,850.42,445l5.43,2.23A31.86,31.86,0,0,0,853.56,459q0,13,13.81,13Q880.36,472,880.4,457.89Z"/><path class="cls-2" d="M903.16,460.24a32.79,32.79,0,0,1-8.07-.85V453a31.92,31.92,0,0,0,7.56,1q11.85,0,11.79-5.64,0-1.51-3.11-8.82l-4.14-9.71,5.64-2.6,6.56,16.61q4,10.18,8.07,10.19h.68c.46,0,.69.88.69,2.63v.65c0,2-.23,3-.69,3h-.68q-5.72,0-9-5.5Q914,460.24,903.16,460.24Z"/><path class="cls-2" d="M937.92,455.39q-4.2,4.89-9.57,4.89h-.72c-1.3,0-2-1-2-3v-.65c0-1.75.65-2.63,2-2.63h.55c1.84,0,3.67-1.07,5.47-3.21a22.17,22.17,0,0,0,2.59-4.65q4.49-9.92,11.73-9.95a10.77,10.77,0,0,1,8.89,4.07,14.66,14.66,0,0,1,3.24,9.47q0,5.29-2.29,8A9.79,9.79,0,0,1,950,461Q943.32,461,937.92,455.39Zm11.55-.48q4.78,0,4.79-4.68a9.67,9.67,0,0,0-.69-3.83,5.6,5.6,0,0,0-5.46-3.72q-4.73,0-7.22,7.07Q945.38,454.91,949.47,454.91Z"/><path class="cls-2" d="M1028.7,458.36a21.65,21.65,0,0,1-1.91,9.34q-5.1,10.35-19.38,10.35-21.4,0-21.37-19.86a38.27,38.27,0,0,1,3.11-14.66l5.44,2.22a34.05,34.05,0,0,0-2.53,12.38q0,13.88,15.59,13.87,15.21,0,15.27-15.21a28.45,28.45,0,0,0-3.11-12.64l5.92-2,2,6.32a7.29,7.29,0,0,0,7.59,5.54q6.08,0,6.05-6.29c0-1.3,0-2.45-.11-3.46l-.17-2.87,5.64-.68.55,7.9q.35,5.32,5.23,5.31t4.85-7.23a32.44,32.44,0,0,0-1.5-8.71l5.84-1.58a33.12,33.12,0,0,1,1.68,10.26q0,7.75-4.14,11.38a9.55,9.55,0,0,1-6.49,2.25q-6.33,0-8.34-4.78a10.75,10.75,0,0,1-9.16,4.82A10.1,10.1,0,0,1,1028.7,458.36Zm3.8-30.34,4.83-4.87,4.9,4.9-4.87,4.87Zm5.45-9.18,4.86-4.87,4.9,4.91-4.86,4.86Zm5.63,9.18,4.87-4.87,4.9,4.9-4.87,4.87Z"/><path class="cls-2" d="M1087.66,460.28h-5q-12.51,0-12.51-10.19a17.74,17.74,0,0,1,1.78-7.82q3.21-6.74,9.71-6.74,10.69,0,11.92,18.49h3.52q.69,0,.69,2.91v.34c0,2-.23,3-.69,3l-3.93,0q-2.57,14-20.57,17.4l-2.12-5.4Q1085.2,469.51,1087.66,460.28Zm.21-6.29q-.8-12-6.64-12-3.21,0-4.68,4.1a10.83,10.83,0,0,0-.61,3.49q0,4.41,6.39,4.41Z"/><path class="cls-2" d="M1117.36,437.72a14.91,14.91,0,0,1,4.34,10.6q-.2,12-20.23,12h-4.89c-1.32,0-2-1-2-3v-.65c0-1.75.66-2.63,2-2.63h4.86q14.11,0,14.15-6.53,0-3.34-3.56-6.66-5.23-4.89-9.33-8.1-3.9-3-3.9-6.4,0-4.44,4.79-6.25l23.69-9v6.19l-23,8.54A155.47,155.47,0,0,1,1117.36,437.72Zm9.66-31.28-26.73,10.31v-4.39L1127,402.05Z"/><path class="cls-2" d="M1151.88,446.4q0-10,17.74-15.48l-.3-1.57,5.57-1.13,2.8,20.2q.78,5.56,6.36,5.57h.68c.46,0,.68.82.68,2.46v.82c0,2-.22,3-.68,3h-.82q-9.36,0-11-7.76a13.61,13.61,0,0,1-9.19,3.59q-7.64,0-10.63-5A9,9,0,0,1,1151.88,446.4Zm18.46-9.77Q1158,441.07,1158,446q0,4.17,5.5,4.17a10,10,0,0,0,5.26-1.6c2.19-1.35,3.06-3.51,2.6-6.5l-.72-4.54-.17-1Z"/><path class="cls-2" d="M1212.38,449a11.82,11.82,0,0,0,.21-2.4c0-1,0-2.08-.14-3.18l-.2-2.05,5.64-.68.54,7.9q.38,5.4,5.37,5.4,4.76,0,4.75-7.32a32.44,32.44,0,0,0-1.5-8.71l5.84-1.58a32.71,32.71,0,0,1,1.68,10v.21q0,7.75-4.17,11.38a9.45,9.45,0,0,1-6.46,2.25q-6.33,0-8.34-4.78a11,11,0,0,1-9.4,4.82q-7,0-9-4.82-2.73,4.82-11,4.82h-1.91c-1.32,0-2-1-2-3v-.65c0-1.75.66-2.63,2-2.63h2q7,0,8.07-5a12.67,12.67,0,0,0,.2-2.4c0-1,0-2-.13-3.18l-.21-2.05,5.64-.68.55,7.9q.38,5.43,5.94,5.43C1209.68,454,1211.72,452.31,1212.38,449Z"/><path class="cls-2" d="M1308.77,454c.48,0,.72.88.72,2.63v.65c0,2-.24,3-.72,3h-5.37a4.56,4.56,0,0,1,1.61,3.86q0,5.24-6.19,9.23A30.22,30.22,0,0,1,1282,478q-21.37,0-21.33-19.89a33.11,33.11,0,0,1,2.46-12.65l5.43,2.22a30.23,30.23,0,0,0-1.88,10.46q0,13.77,15.28,13.84a26.09,26.09,0,0,0,10.8-2.22,12.8,12.8,0,0,0,5.61-4.31,4.19,4.19,0,0,0,.78-2.29q0-2.94-4.51-2.94h-5.23q-2-.19-2.7-3.21a10.78,10.78,0,0,1-.34-2.12c0-.52.13-.83.38-.92Z"/><path class="cls-2" d="M1316.05,425.79a155.94,155.94,0,0,1,13.06,11.93,22.11,22.11,0,0,1,4.41,7.69q3,8.58,9.84,8.58h.55c.45,0,.68.88.68,2.63v.65c0,2-.23,3-.68,3h-.55a14.18,14.18,0,0,1-11.93-6q-3.9,6-18.22,6h-4.89c-1.32,0-2-1-2-3v-.65c0-1.75.66-2.63,2-2.63h4.86q14.11,0,14.15-6.53,0-3.34-3.56-6.66-5.22-4.89-9.33-8.1-3.89-3-3.89-6.4,0-4.44,4.78-6.25l23.69-9v6.19Z"/><path class="cls-2" d="M1369.13,457.27c0,2-.23,3-.68,3h-.34q-6.78,0-9.34-4.82-3.37,4.82-11.82,4.82h-3.56c-1.3,0-2-1-2-3v-.65c0-1.75.65-2.63,2-2.63h3.39q7.89,0,8.75-4.51a17.94,17.94,0,0,0,.2-2.84c0-1.14,0-2.22-.1-3.25l-.17-2.76,5.6-.69.55,7.9q.45,6.15,6.56,6.15h.28c.45,0,.68,1,.68,2.94Zm-26.22,13.84,5-5,5,5-5,5Zm11.12,0,5-5,5,5-5,5Z"/><path class="cls-2" d="M1378.22,455.39q-4.2,4.89-9.57,4.89h-.72c-1.29,0-1.94-1-1.94-3v-.65c0-1.75.65-2.63,1.94-2.63h.55q2.77,0,5.47-3.21a22.58,22.58,0,0,0,2.6-4.65q4.47-9.92,11.72-9.95a10.77,10.77,0,0,1,8.89,4.07,14.66,14.66,0,0,1,3.24,9.47q0,5.29-2.29,8a9.79,9.79,0,0,1-7.86,3.31Q1383.62,461,1378.22,455.39Zm11.56-.48c3.18,0,4.78-1.56,4.78-4.68a9.86,9.86,0,0,0-.68-3.83,5.62,5.62,0,0,0-5.47-3.72q-4.73,0-7.21,7.07Q1385.67,454.91,1389.78,454.91Z"/><path class="cls-2" d="M1408.88,412.15h5.91v48.09h-5.91Z"/><path class="cls-2" d="M1438.34,458.47q-2,15.48-21.49,19.17l-2.12-5.4q17.91-3.35,18-17.16a27.76,27.76,0,0,0-2.66-10.93l5.67-2,2.12,6.63q1.71,5.26,6.43,5.26h1q.69,0,.69,2.46v.82c0,2-.23,3-.69,3h-.58Q1439.68,460.28,1438.34,458.47Z"/><path class="cls-2" d="M1472.83,449a11.82,11.82,0,0,0,.21-2.4c0-1,0-2.08-.14-3.18l-.21-2.05,5.64-.68.55,7.9q.38,5.4,5.37,5.4,4.74,0,4.75-7.32a32.12,32.12,0,0,0-1.51-8.71l5.85-1.58a32.39,32.39,0,0,1,1.67,10v.21q0,7.75-4.17,11.38a9.42,9.42,0,0,1-6.46,2.25q-6.32,0-8.34-4.78a11,11,0,0,1-9.39,4.82q-7,0-9-4.82-2.73,4.82-11,4.82h-1.91c-1.32,0-2-1-2-3v-.65c0-1.75.66-2.63,2-2.63h2q7,0,8.07-5a12.67,12.67,0,0,0,.2-2.4c0-1,0-2-.14-3.18l-.2-2.05,5.64-.68.55,7.9q.38,5.43,5.94,5.43C1470.13,454,1472.17,452.31,1472.83,449Z"/><path class="cls-2" d="M1576.36,444.11q-.06,9.67-4.65,13.09-4.1,3.07-14.42,3.08H1546q-25,0-25-16.61a21.19,21.19,0,0,1,1.87-8.79l5.37,2a16.27,16.27,0,0,0-1.13,5.91q0,11.18,18.39,11.18H1558q12.91,0,13-6.73c0-.21,0-.41,0-.62a23.19,23.19,0,0,1-6.8,1q-11,0-11.21-9.26a13.23,13.23,0,0,1,.24-2.84,15.86,15.86,0,0,1,3.89-8.34,9.45,9.45,0,0,1,7.08-2.94,9,9,0,0,1,5,1.4q5.77,3.72,6.91,14.29Q1576.33,442.13,1576.36,444.11Zm-17.81-6.7q0,4.27,6,4.24a20.42,20.42,0,0,0,5.85-.89,23.19,23.19,0,0,0-1.78-6.7q-1.68-3.69-4.72-3.69-3.56,0-5,4.58A8.33,8.33,0,0,0,1558.55,437.41Zm0-23.59,5-5,5,5-5,5Z"/><path class="cls-2" d="M1597,458.47q-2,15.48-21.5,19.17l-2.12-5.4q17.91-3.35,18-17.16a28,28,0,0,0-2.67-10.93l5.67-2,2.12,6.63c1.14,3.51,3.29,5.26,6.43,5.26h1c.45,0,.68.82.68,2.46v.82c0,2-.23,3-.68,3h-.58C1600,460.28,1597.9,459.68,1597,458.47Z"/><path class="cls-2" d="M1644.45,445.79q0,14.49-24.65,14.49h-16.5c-1.33,0-2-1-2-3v-.65c0-1.75.66-2.63,2-2.63h5l2.53-3.9v-38h5.91v29.57q6.87-8.44,14.9-8.45a12.81,12.81,0,0,1,8.34,2.81A12,12,0,0,1,1644.45,445.79Zm-12.72-6.19q-7.92,0-17,14.36h4.92q18.6,0,18.6-7.87a6.08,6.08,0,0,0-2.67-5.33A6.77,6.77,0,0,0,1631.73,439.6Zm-5.83-19.76,5-5,5,5-5,5Z"/><path class="cls-2" d="M1276.67,565.87q-8.67,0-8.68-11.18T1281.15,526l0-.07-.07-.07-1.85-1.71,4.24-5.19,4.31,4.06q16.79,16.49,16.75,31.38,0,11.52-9.06,11.52-6.36,0-9-7.21Q1284.12,565.86,1276.67,565.87Zm-2.7-11.18c0,3.21,1.08,4.82,3.22,4.82q5.08,0,7.24-10.08l4.24,0q1.71,10.18,6.32,10.19c2.4,0,3.59-1.67,3.59-5q0-11.42-12.81-24.3Q1274,545.9,1274,554.69Z"/><path class="cls-2" d="M1318.82,563.85a13.56,13.56,0,0,1-.4,3.21,16.19,16.19,0,0,1-1.16,3.32,18.92,18.92,0,0,1-1.86,3.14,13.65,13.65,0,0,1-2.53,2.67l-3.59-2.46a19.66,19.66,0,0,0,2.48-4.63,14.89,14.89,0,0,0,.87-5.15v-5.16h6.19Z"/><path class="cls-2" d="M1329.69,540.4a10.82,10.82,0,0,1,1.65-1.41,9.53,9.53,0,0,1,1.83-1,10.55,10.55,0,0,1,4.14-.82,10.69,10.69,0,0,1,2.8.36,10.5,10.5,0,0,1,2.55,1.06,10.83,10.83,0,0,1,2.27,1.79,11,11,0,0,1,2.38,3.49,10.72,10.72,0,0,1,.8,4.14,10.39,10.39,0,0,1-3.18,7.62,14.19,14.19,0,0,1-1.69,1.38,10,10,0,0,1-1.81,1,9.43,9.43,0,0,1-2,.59,12.61,12.61,0,0,1-2.14.18,10.89,10.89,0,0,1-4.14-.78,7.09,7.09,0,0,1-1.24-.6,12.75,12.75,0,0,1-1.17-.8,13.84,13.84,0,0,1-1.07-1,11,11,0,0,1-2.4-3.5,10.76,10.76,0,0,1-.78-4.12,10.89,10.89,0,0,1,.78-4.14A10.6,10.6,0,0,1,1329.69,540.4Zm2.9,7.64a4.7,4.7,0,0,0,1.4,3.44,4.88,4.88,0,0,0,1.59,1.08,5.22,5.22,0,0,0,1.93.35,4.64,4.64,0,0,0,3.46-1.43,4.9,4.9,0,0,0,1-1.56,4.84,4.84,0,0,0,.36-1.88,4.74,4.74,0,0,0-.36-1.86,5.3,5.3,0,0,0-1-1.57,4.88,4.88,0,0,0-3.49-1.44,5.6,5.6,0,0,0-1.9.4,5.08,5.08,0,0,0-1.59,1A4.68,4.68,0,0,0,1332.59,548Z"/><path class="cls-2" d="M1360.21,540.4a10.89,10.89,0,0,1,1.66-1.41,9,9,0,0,1,1.83-1,10.46,10.46,0,0,1,4.13-.82,10.64,10.64,0,0,1,2.8.36,10.36,10.36,0,0,1,4.82,2.85,11,11,0,0,1,2.38,3.49,10.72,10.72,0,0,1,.8,4.14,10.39,10.39,0,0,1-3.18,7.62,13.44,13.44,0,0,1-1.69,1.38,9.69,9.69,0,0,1-1.81,1,9.43,9.43,0,0,1-2,.59,12.61,12.61,0,0,1-2.14.18,10.81,10.81,0,0,1-4.13-.78,7.18,7.18,0,0,1-1.25-.6,11.38,11.38,0,0,1-1.16-.8,12.34,12.34,0,0,1-1.08-1,10.76,10.76,0,0,1-2.39-3.5A10.58,10.58,0,0,1,1357,548a10.71,10.71,0,0,1,.79-4.14A10.42,10.42,0,0,1,1360.21,540.4Zm2.9,7.64a4.91,4.91,0,0,0,3,4.52,5.18,5.18,0,0,0,1.93.35,4.63,4.63,0,0,0,3.45-1.43,4.9,4.9,0,0,0,1-1.56,4.84,4.84,0,0,0,.36-1.88,4.74,4.74,0,0,0-.36-1.86,5.3,5.3,0,0,0-1-1.57,4.88,4.88,0,0,0-3.49-1.44,5.54,5.54,0,0,0-1.89.4,4.86,4.86,0,0,0-1.59,1A4.65,4.65,0,0,0,1363.11,548Z"/><path class="cls-2" d="M1390.73,540.4a11.39,11.39,0,0,1,1.66-1.41,9,9,0,0,1,1.83-1,10.46,10.46,0,0,1,4.13-.82,10.77,10.77,0,0,1,2.81.36,10.43,10.43,0,0,1,2.54,1.06,11.58,11.58,0,0,1,4.65,5.28,10.54,10.54,0,0,1,.8,4.14,10.39,10.39,0,0,1-3.17,7.62,13.52,13.52,0,0,1-1.7,1.38,9.69,9.69,0,0,1-1.81,1,9.09,9.09,0,0,1-2,.59,12.53,12.53,0,0,1-2.14.18,10.81,10.81,0,0,1-4.13-.78,7.55,7.55,0,0,1-1.25-.6,11.38,11.38,0,0,1-1.16-.8,12.34,12.34,0,0,1-1.08-1,10.36,10.36,0,0,1-3.18-7.62,10.9,10.9,0,0,1,.79-4.14A10.42,10.42,0,0,1,1390.73,540.4Zm2.91,7.64a4.66,4.66,0,0,0,1.4,3.44,4.88,4.88,0,0,0,1.59,1.08,5.18,5.18,0,0,0,1.93.35,4.6,4.6,0,0,0,3.45-1.43,4.74,4.74,0,0,0,1-1.56,4.84,4.84,0,0,0,.36-1.88,4.74,4.74,0,0,0-.36-1.86,5.11,5.11,0,0,0-1-1.57,4.86,4.86,0,0,0-3.48-1.44,5.55,5.55,0,0,0-1.9.4,5.08,5.08,0,0,0-1.59,1A4.64,4.64,0,0,0,1393.64,548Z"/><path class="cls-2" d="M1424.13,563.85a14.1,14.1,0,0,1-.4,3.21,16.81,16.81,0,0,1-1.16,3.32,18.92,18.92,0,0,1-1.86,3.14,13.65,13.65,0,0,1-2.53,2.67l-3.59-2.46a19.66,19.66,0,0,0,2.48-4.63,14.89,14.89,0,0,0,.87-5.15v-5.16h6.19Z"/><path class="cls-2" d="M1435,540.4a11.39,11.39,0,0,1,1.66-1.41,9,9,0,0,1,1.83-1,10.55,10.55,0,0,1,4.14-.82,10.69,10.69,0,0,1,2.8.36,10.5,10.5,0,0,1,2.55,1.06,11.09,11.09,0,0,1,2.27,1.79,10.81,10.81,0,0,1,2.37,3.49,10.54,10.54,0,0,1,.81,4.14,10.39,10.39,0,0,1-3.18,7.62,14.19,14.19,0,0,1-1.69,1.38,10,10,0,0,1-1.81,1,9.35,9.35,0,0,1-2,.59,12.41,12.41,0,0,1-2.13.18,10.89,10.89,0,0,1-4.14-.78,7.55,7.55,0,0,1-1.25-.6,12.61,12.61,0,0,1-1.16-.8q-.55-.45-1.08-1a10.92,10.92,0,0,1-2.39-3.5,10.76,10.76,0,0,1-.78-4.12,10.89,10.89,0,0,1,.78-4.14A10.57,10.57,0,0,1,1435,540.4Zm2.91,7.64a4.7,4.7,0,0,0,1.4,3.44,4.88,4.88,0,0,0,1.59,1.08,5.22,5.22,0,0,0,1.93.35,4.6,4.6,0,0,0,3.45-1.43,4.77,4.77,0,0,0,1-1.56,4.84,4.84,0,0,0,.36-1.88,4.74,4.74,0,0,0-.36-1.86,5.15,5.15,0,0,0-1-1.57,4.84,4.84,0,0,0-3.48-1.44,5.55,5.55,0,0,0-1.9.4,5.08,5.08,0,0,0-1.59,1A4.68,4.68,0,0,0,1437.9,548Z"/><path class="cls-2" d="M1465.52,540.4a10.82,10.82,0,0,1,1.65-1.41,9.53,9.53,0,0,1,1.83-1,10.55,10.55,0,0,1,4.14-.82,10.69,10.69,0,0,1,2.8.36,10.5,10.5,0,0,1,2.55,1.06,10.83,10.83,0,0,1,2.27,1.79,11,11,0,0,1,2.38,3.49,10.72,10.72,0,0,1,.8,4.14,10.39,10.39,0,0,1-3.18,7.62,14.19,14.19,0,0,1-1.69,1.38,10,10,0,0,1-1.81,1,9.43,9.43,0,0,1-2,.59,12.61,12.61,0,0,1-2.14.18A10.89,10.89,0,0,1,1469,558a7.09,7.09,0,0,1-1.24-.6,12.75,12.75,0,0,1-1.17-.8,13.84,13.84,0,0,1-1.07-1,11,11,0,0,1-2.4-3.5,10.76,10.76,0,0,1-.78-4.12,10.89,10.89,0,0,1,.78-4.14A10.6,10.6,0,0,1,1465.52,540.4Zm2.9,7.64a4.7,4.7,0,0,0,1.4,3.44,4.88,4.88,0,0,0,1.59,1.08,5.22,5.22,0,0,0,1.93.35,4.64,4.64,0,0,0,3.46-1.43,4.9,4.9,0,0,0,1-1.56,4.84,4.84,0,0,0,.36-1.88,4.74,4.74,0,0,0-.36-1.86,5.3,5.3,0,0,0-1-1.57,4.88,4.88,0,0,0-3.49-1.44,5.6,5.6,0,0,0-1.9.4,5.08,5.08,0,0,0-1.59,1A4.68,4.68,0,0,0,1468.42,548Z"/><path class="cls-2" d="M1496,540.4a10.89,10.89,0,0,1,1.66-1.41,9,9,0,0,1,1.83-1,10.46,10.46,0,0,1,4.13-.82,10.64,10.64,0,0,1,2.8.36,10.36,10.36,0,0,1,4.82,2.85,11,11,0,0,1,2.38,3.49,10.72,10.72,0,0,1,.8,4.14,10.39,10.39,0,0,1-3.18,7.62,13.44,13.44,0,0,1-1.69,1.38,9.69,9.69,0,0,1-1.81,1,9.43,9.43,0,0,1-2,.59,12.61,12.61,0,0,1-2.14.18,10.81,10.81,0,0,1-4.13-.78,7.18,7.18,0,0,1-1.25-.6,11.38,11.38,0,0,1-1.16-.8,12.34,12.34,0,0,1-1.08-1,10.76,10.76,0,0,1-2.39-3.5,10.58,10.58,0,0,1-.79-4.12,10.71,10.71,0,0,1,.79-4.14A10.42,10.42,0,0,1,1496,540.4Zm2.9,7.64a4.91,4.91,0,0,0,3,4.52,5.18,5.18,0,0,0,1.93.35,4.63,4.63,0,0,0,3.45-1.43,4.9,4.9,0,0,0,1-1.56,4.84,4.84,0,0,0,.36-1.88,4.74,4.74,0,0,0-.36-1.86,5.3,5.3,0,0,0-1-1.57,4.88,4.88,0,0,0-3.49-1.44,5.54,5.54,0,0,0-1.89.4,4.86,4.86,0,0,0-1.59,1A4.65,4.65,0,0,0,1498.94,548Z"/><path class="cls-2" d="M1574.38,563.89l.1-45.74h5.88l0,44.4q0,21.51-19,21.5-19.78,0-19.75-19.17A36.38,36.38,0,0,1,1544.4,551l5.44,2.23a31.65,31.65,0,0,0-2.29,11.72q0,13,13.81,13Q1574.35,578,1574.38,563.89Zm29.36-.62c0,2-.21,3-.68,3h-.72q-12.58,0-12.58-14.84V518.15h6v33.23q0,8.61,6.73,8.61h.62c.45,0,.68.88.68,2.63Zm-7.11,12.64,5-5,5,5-5,5Zm8.51-9.63h-2.6c-1.32,0-2-1-2-3v-.65c0-1.75.66-2.63,2-2.63h2.6q5.47,0,7.42-1.09,2.89-1.71,2.9-7.15a37.36,37.36,0,0,0-1.26-9.06l5.57-1.4a34.41,34.41,0,0,1,1.67,10.36q0,8.37-4.78,12Q1613.18,566.28,1605.14,566.28Zm2.6,9.63,5-5,5,5-5,5Zm33.39-25.8a34,34,0,0,1,2.84,12.82q0,18.63-21.7,22.73l-2.12-5.4q17.91-3.36,18-17.16a27.84,27.84,0,0,0-2.66-10.94Z"/><path class="cls-2" d="M325.05,667.26q.57,0,.57,2.1v.52q0,2.4-.57,2.4h-4.28a3.64,3.64,0,0,1,1.28,3.08q0,4.17-4.94,7.37a24.12,24.12,0,0,1-13.41,3.7q-17.06,0-17-15.87a26.36,26.36,0,0,1,2-10.09l4.34,1.77a24.09,24.09,0,0,0-1.5,8.35q0,11,12.19,11a20.87,20.87,0,0,0,8.62-1.77,10.15,10.15,0,0,0,4.47-3.44,3.3,3.3,0,0,0,.63-1.82c0-1.57-1.2-2.35-3.6-2.35h-4.18c-1.05-.11-1.77-1-2.15-2.56a8.35,8.35,0,0,1-.27-1.69c0-.42.1-.67.3-.74Z"/><path class="cls-2" d="M326.77,672.28H324.7q-1.59,0-1.59-2.4v-.52q0-2.1,1.59-2.1h2.07q4.37,0,5.92-.87c1.54-.91,2.32-2.81,2.32-5.7a29.76,29.76,0,0,0-1-7.23l4.44-1.12a27.57,27.57,0,0,1,1.34,8.27q0,6.67-3.82,9.57C334.11,671.58,331,672.28,326.77,672.28Zm-2.48,8.64,4-4,4,4-4,4Zm8.87,0,4-4,4,4-4,4Z"/><path class="cls-2" d="M361.57,666.2q6.27-2,6.27-11.38V633.88h4.72v23.43q0,9.95,5.76,10H379c.36,0,.55.7.55,2.1v.52c0,1.6-.19,2.4-.55,2.4h-1.06q-6.63,0-8.4-6.17-4.43,6.09-15.25,6.09a34.08,34.08,0,0,1-6.08-.44v-4.94a46.36,46.36,0,0,0,8.92.33q-3.17-10.86-11.05-29.07l4.5-2.57Q358.46,654.5,361.57,666.2Z"/><path class="cls-2" d="M411.4,660.71q0,11.56-19.66,11.57H378.56c-1.05,0-1.58-.8-1.58-2.4v-.52c0-1.4.53-2.1,1.58-2.1h4l2-3.11v-30.3h4.72v23.59q5.49-6.74,11.89-6.74a10.24,10.24,0,0,1,6.66,2.24A9.62,9.62,0,0,1,411.4,660.71Zm-10.14-4.93q-6.33,0-13.59,11.45h3.93q14.83,0,14.84-6.27a4.85,4.85,0,0,0-2.13-4.25A5.34,5.34,0,0,0,401.26,655.78Z"/><path class="cls-2" d="M453,672.28q-20.76,0-20.76-13.26a16.89,16.89,0,0,1,1.5-7l4.28,1.61a12.4,12.4,0,0,0-.9,4.61q0,9,15.36,9,13.67,0,17.24-2.62,1.74-1.27,1.74-4.5a31.49,31.49,0,0,0-1-6.71l4.45-1.12a23.87,23.87,0,0,1,1.36,7.42q0,6.46-3.76,9.11-4.94,3.43-19.45,3.44Zm-1.88,8.64,4-4,4,4-4,4Z"/><path class="cls-2" d="M494,669.88c0,1.6-.17,2.4-.55,2.4h-.57q-10,0-10-11.84V633.88h4.75v26.51q0,6.87,5.37,6.87h.49c.36,0,.55.7.55,2.1Z"/><path class="cls-2" d="M514.06,665.49c2,1.18,5.38,1.77,10.18,1.77h.62c.37,0,.55.7.55,2.1v.52a13.18,13.18,0,0,1-.06,1.36,2.73,2.73,0,0,1-.19.79c-.09.17-.19.25-.3.25h-.62q-9.09,0-14.08-3.87l-.05,0-.06,0q-4.5,3.87-16.31,3.87h-.65c-1.06,0-1.58-.8-1.58-2.4v-.52c0-1.4.52-2.1,1.58-2.1h.74q9.35,0,12-1.77l.11-.08-.11-.09q-8-4.5-8-8.89,0-2.83,4.31-4.77a20,20,0,0,1,8-1.36,20.89,20.89,0,0,1,8.08,1.3c2.7,1.15,4.06,2.71,4.06,4.7q0,3.87-8.24,9.05l-.13.06Zm3-8.48q0-1.69-7-1.7c-4.66,0-7,.59-7,1.75a2.4,2.4,0,0,0,.84,1.5,23.1,23.1,0,0,0,6.11,4l.06,0,0,0a25,25,0,0,0,6.09-4.26C516.72,657.76,517,657.31,517,657Z"/><path class="cls-2" d="M524.48,672.28c-1.05,0-1.58-.8-1.58-2.4v-.52c0-1.4.53-2.1,1.58-2.1h1.31q7.29,0,7.28-6.85V633.88h4.75v26.7q0,11.7-12.17,11.7Z"/><path class="cls-2" d="M566.46,672.25a26.37,26.37,0,0,1-6.44-.68v-5.13a25.64,25.64,0,0,0,6,.79q9.47,0,9.41-4.5,0-1.2-2.48-7l-3.3-7.75,4.5-2.07,5.23,13.25q3.2,8.13,6.44,8.13h.54c.37,0,.55.7.55,2.1v.52c0,1.6-.18,2.4-.55,2.4h-.54q-4.56,0-7.15-4.39Q575.1,672.25,566.46,672.25Z"/><path class="cls-2" d="M606.5,669.88c0,1.6-.19,2.4-.55,2.4h-.27q-5.4,0-7.45-3.85-2.7,3.86-9.44,3.85H586q-1.56,0-1.56-2.4v-.52q0-2.1,1.56-2.1h2.7q6.3,0,7-3.6a13.53,13.53,0,0,0,.16-2.26c0-.91,0-1.78-.08-2.59l-.13-2.21,4.47-.55.44,6.3c.23,3.27,2,4.91,5.23,4.91H606c.36,0,.55.78.55,2.35Zm-20.93,11,4-4,4,4-4,4Zm8.87,0,4-4,4,4-4,4Z"/><path class="cls-2" d="M628,663.25a10.33,10.33,0,0,0,.16-1.91c0-.82,0-1.66-.11-2.53l-.16-1.64,4.5-.55.43,6.3c.2,2.88,1.63,4.31,4.28,4.31s3.8-1.94,3.8-5.83a25.92,25.92,0,0,0-1.2-7l4.66-1.25a26.23,26.23,0,0,1,1.34,8v.16q0,6.2-3.33,9.08a7.53,7.53,0,0,1-5.16,1.8q-5,0-6.65-3.82a8.74,8.74,0,0,1-7.5,3.85q-5.57,0-7.2-3.85-2.19,3.86-8.81,3.85h-1.53c-1,0-1.58-.8-1.58-2.4v-.52c0-1.4.53-2.1,1.58-2.1h1.58q5.6,0,6.44-4a9.53,9.53,0,0,0,.16-1.91c0-.78,0-1.63-.11-2.53l-.16-1.64,4.5-.55.44,6.3q.3,4.33,4.74,4.34A4.5,4.5,0,0,0,628,663.25Zm-6.95-16.63,3.85-3.88,3.91,3.91L625,650.53Zm4.34-7.33,3.88-3.88,3.91,3.91-3.88,3.88Zm4.5,7.33,3.88-3.88,3.91,3.91-3.88,3.88Z"/><path class="cls-2" d="M660.09,657.77A27,27,0,0,1,662.35,668q0,14.87-17.32,18.13l-1.69-4.31q14.29-2.67,14.35-13.69a22.18,22.18,0,0,0-2.13-8.72Z"/><path class="cls-2" d="M681.31,672.28h-4q-10,0-10-8.13a14.26,14.26,0,0,1,1.42-6.24q2.57-5.38,7.75-5.38,8.54,0,9.52,14.76h2.81c.36,0,.54.77.54,2.32v.27q0,2.4-.54,2.4l-3.14,0q-2,11.16-16.42,13.88l-1.69-4.31Q679.35,679.65,681.31,672.28Zm.16-5q-.63-9.54-5.29-9.57-2.56,0-3.73,3.27a8.56,8.56,0,0,0-.5,2.78q0,3.53,5.1,3.52Z"/><path class="cls-2" d="M688.43,672.28c-1.06,0-1.58-.8-1.58-2.4v-.52c0-1.4.52-2.1,1.58-2.1h1.63q9,0,22.26-6.85l2-1c-.47-.13-2.44-.89-5.89-2.29s-6-2.16-7.29-2.16a6.16,6.16,0,0,0-5.07,2.57l-.76,1-4.2-2.07.43-.77c2.3-3.76,5.5-5.65,9.63-5.67a19.67,19.67,0,0,1,8.29,2.34q8.52,4.16,13.18,4.34l-.06,4.75q-3.14.27-11.56,4.71-11.7,6.17-21.3,6.17ZM699.37,640l4-4,4,4-4,4Z"/><path class="cls-2" d="M769.35,670.37l.08-36.49h4.69l0,35.43q0,17.15-15.17,17.15-15.79,0-15.76-15.3a29,29,0,0,1,2.26-11l4.34,1.78a25.29,25.29,0,0,0-1.83,9.35q0,10.39,11,10.39Q769.33,681.63,769.35,670.37Z"/><path class="cls-2" d="M787.52,672.25a26.37,26.37,0,0,1-6.44-.68v-5.13a25.64,25.64,0,0,0,6,.79q9.46,0,9.41-4.5,0-1.2-2.49-7l-3.3-7.75,4.5-2.07,5.24,13.25q3.19,8.13,6.44,8.13h.54c.37,0,.55.7.55,2.1v.52c0,1.6-.18,2.4-.55,2.4h-.54q-4.56,0-7.15-4.39Q796.16,672.25,787.52,672.25Z"/><path class="cls-2" d="M815.25,668.38c-2.23,2.6-4.78,3.9-7.63,3.9H807c-1,0-1.55-.8-1.55-2.4v-.52c0-1.4.52-2.1,1.55-2.1h.44c1.47,0,2.93-.85,4.36-2.56a18,18,0,0,0,2.08-3.71q3.57-7.92,9.35-7.94a8.56,8.56,0,0,1,7.09,3.25,11.65,11.65,0,0,1,2.59,7.55c0,2.82-.6,4.95-1.82,6.38a7.8,7.8,0,0,1-6.28,2.65Q819.57,672.88,815.25,668.38Zm9.22-.38q3.82,0,3.82-3.74a7.81,7.81,0,0,0-.54-3,4.49,4.49,0,0,0-4.37-3q-3.76,0-5.75,5.65C820,666.62,822.29,668,824.47,668Z"/><path class="cls-2" d="M887.69,670.75a17.18,17.18,0,0,1-1.52,7.45q-4.06,8.26-15.47,8.26-17.07,0-17-15.84a30.4,30.4,0,0,1,2.48-11.71l4.33,1.78a27.26,27.26,0,0,0-2,9.87q0,11.07,12.43,11.07,12.14,0,12.2-12.13a22.72,22.72,0,0,0-2.49-10.09l4.72-1.64,1.64,5a5.81,5.81,0,0,0,6,4.42q4.86,0,4.83-5c0-1,0-2-.08-2.75l-.14-2.29,4.5-.55.44,6.3c.18,2.84,1.57,4.25,4.17,4.25s3.89-1.94,3.87-5.77a25.92,25.92,0,0,0-1.2-7l4.67-1.25a26.53,26.53,0,0,1,1.34,8.18c0,4.13-1.11,7.15-3.3,9.08a7.64,7.64,0,0,1-5.19,1.8q-5,0-6.65-3.82a8.57,8.57,0,0,1-7.31,3.85A8.09,8.09,0,0,1,887.69,670.75Zm3-24.21,3.85-3.89,3.91,3.91-3.88,3.89Zm4.35-7.33,3.88-3.88,3.91,3.91L899,643.12Zm4.49,7.33,3.88-3.89,3.91,3.91-3.88,3.89Z"/><path class="cls-2" d="M934.74,672.28h-4q-10,0-10-8.13a14.12,14.12,0,0,1,1.42-6.24q2.56-5.38,7.74-5.38,8.53,0,9.52,14.76h2.81c.36,0,.55.77.55,2.32v.27c0,1.6-.19,2.4-.55,2.4l-3.14,0q-2,11.16-16.42,13.88L921,681.82Q932.78,679.65,934.74,672.28Zm.17-5q-.63-9.54-5.29-9.57-2.57,0-3.74,3.27a8.54,8.54,0,0,0-.49,2.78q0,3.53,5.1,3.52Z"/><path class="cls-2" d="M958.44,654.28a11.88,11.88,0,0,1,3.47,8.45q-.17,9.56-16.15,9.55h-3.9c-1.05,0-1.58-.8-1.58-2.4v-.52c0-1.4.53-2.1,1.58-2.1h3.87q11.26,0,11.3-5.21,0-2.67-2.84-5.32-4.17-3.9-7.45-6.46-3.11-2.43-3.11-5.1c0-2.37,1.28-4,3.82-5l18.9-7.18v4.94L948,644.76A123.08,123.08,0,0,1,958.44,654.28Zm7.71-25-21.33,8.23V634l21.33-8.23Z"/><path class="cls-2" d="M986,661.21q0-8,14.16-12.36l-.25-1.25,4.45-.9,2.23,16.11q.63,4.46,5.08,4.45h.54c.37,0,.55.66.55,2v.66c0,1.6-.18,2.4-.55,2.4h-.65q-7.47,0-8.81-6.19A10.86,10.86,0,0,1,995.4,669q-6.07,0-8.48-4A7.21,7.21,0,0,1,986,661.21Zm14.73-7.81q-9.87,3.55-9.87,7.48,0,3.33,4.39,3.33a8,8,0,0,0,4.2-1.29q2.61-1.6,2.07-5.18l-.57-3.63-.14-.76Z"/><path class="cls-2" d="M1034.27,663.25a9.53,9.53,0,0,0,.16-1.91c0-.82,0-1.66-.11-2.53l-.16-1.64,4.5-.55.43,6.3c.2,2.88,1.63,4.31,4.29,4.31s3.79-1.94,3.79-5.83a25.92,25.92,0,0,0-1.2-7l4.66-1.25a25.93,25.93,0,0,1,1.34,8v.16q0,6.2-3.33,9.08a7.5,7.5,0,0,1-5.15,1.8q-5.06,0-6.66-3.82a8.74,8.74,0,0,1-7.5,3.85q-5.57,0-7.2-3.85-2.18,3.86-8.81,3.85h-1.53c-1,0-1.58-.8-1.58-2.4v-.52c0-1.4.53-2.1,1.58-2.1h1.58q5.6,0,6.44-4a9.46,9.46,0,0,0,.17-1.91c0-.78,0-1.63-.11-2.53l-.17-1.64,4.5-.55.44,6.3q.3,4.33,4.75,4.34A4.5,4.5,0,0,0,1034.27,663.25Z"/><path class="cls-2" d="M1111.18,667.26q.57,0,.57,2.1v.52q0,2.4-.57,2.4h-4.28a3.64,3.64,0,0,1,1.28,3.08q0,4.17-4.94,7.37a24.12,24.12,0,0,1-13.41,3.7q-17.05,0-17-15.87a26.36,26.36,0,0,1,2-10.09l4.34,1.77a24.09,24.09,0,0,0-1.5,8.35q0,11,12.19,11a20.87,20.87,0,0,0,8.62-1.77,10.15,10.15,0,0,0,4.47-3.44,3.3,3.3,0,0,0,.63-1.82c0-1.57-1.2-2.35-3.6-2.35h-4.18c-1-.11-1.77-1-2.15-2.56a8.35,8.35,0,0,1-.27-1.69c0-.42.1-.67.3-.74Z"/><path class="cls-2" d="M1117,644.76a122,122,0,0,1,10.42,9.52,17.58,17.58,0,0,1,3.52,6.13q2.4,6.86,7.85,6.85h.44q.54,0,.54,2.1v.52q0,2.4-.54,2.4h-.44a11.31,11.31,0,0,1-9.52-4.83q-3.1,4.83-14.53,4.83h-3.9q-1.59,0-1.59-2.4v-.52q0-2.1,1.59-2.1h3.87q11.27,0,11.29-5.21c0-1.78-.94-3.55-2.84-5.32q-4.17-3.9-7.44-6.46-3.11-2.43-3.11-5.1,0-3.55,3.82-5l18.9-7.18v4.94Z"/><path class="cls-2" d="M1159.35,669.88c0,1.6-.18,2.4-.55,2.4h-.27q-5.4,0-7.45-3.85-2.7,3.86-9.43,3.85h-2.84c-1,0-1.55-.8-1.55-2.4v-.52c0-1.4.51-2.1,1.55-2.1h2.7q6.3,0,7-3.6a13.44,13.44,0,0,0,.17-2.26c0-.91,0-1.78-.09-2.59l-.13-2.21,4.47-.55.44,6.3c.23,3.27,2,4.91,5.23,4.91h.22c.37,0,.55.78.55,2.35Zm-20.92,11,4-4,4,4-4,4Zm8.87,0,4-4,4,4-4,4Z"/><path class="cls-2" d="M1166.6,668.38c-2.23,2.6-4.78,3.9-7.63,3.9h-.58c-1,0-1.55-.8-1.55-2.4v-.52c0-1.4.52-2.1,1.55-2.1h.44c1.47,0,2.93-.85,4.36-2.56a18,18,0,0,0,2.08-3.71q3.57-7.92,9.35-7.94a8.57,8.57,0,0,1,7.09,3.25,11.65,11.65,0,0,1,2.59,7.55q0,4.23-1.82,6.38a7.8,7.8,0,0,1-6.28,2.65Q1170.92,672.88,1166.6,668.38Zm9.22-.38q3.83,0,3.82-3.74a7.62,7.62,0,0,0-.55-3,4.47,4.47,0,0,0-4.36-3q-3.76,0-5.75,5.65C1171.36,666.62,1173.64,668,1175.82,668Z"/><path class="cls-2" d="M1191.07,633.88h4.72v38.37h-4.72Z"/><path class="cls-2" d="M1214.58,670.83q-1.59,12.36-17.16,15.3l-1.69-4.31q14.3-2.67,14.35-13.69a22.18,22.18,0,0,0-2.13-8.72l4.53-1.64,1.69,5.29q1.36,4.2,5.13,4.2h.76c.36,0,.55.66.55,2v.66c0,1.6-.19,2.4-.55,2.4h-.46Q1215.64,672.28,1214.58,670.83Z"/><path class="cls-2" d="M1242.1,663.25a9.53,9.53,0,0,0,.16-1.91c0-.82,0-1.66-.11-2.53l-.16-1.64,4.5-.55.44,6.3c.2,2.88,1.62,4.31,4.28,4.31s3.79-1.94,3.79-5.83a25.92,25.92,0,0,0-1.2-7l4.66-1.25a25.93,25.93,0,0,1,1.34,8v.16q0,6.2-3.33,9.08a7.5,7.5,0,0,1-5.15,1.8q-5.05,0-6.66-3.82a8.72,8.72,0,0,1-7.5,3.85q-5.57,0-7.2-3.85-2.18,3.86-8.81,3.85h-1.53c-1,0-1.58-.8-1.58-2.4v-.52c0-1.4.53-2.1,1.58-2.1h1.59c3.72,0,5.87-1.34,6.43-4a9.46,9.46,0,0,0,.17-1.91c0-.78,0-1.63-.11-2.53l-.17-1.64,4.5-.55.44,6.3q.3,4.33,4.75,4.34A4.5,4.5,0,0,0,1242.1,663.25Z"/><path class="cls-2" d="M1324.71,659.38c0,5.14-1.27,8.63-3.71,10.44q-3.27,2.46-11.51,2.46h-9q-19.93,0-19.93-13.26a16.73,16.73,0,0,1,1.5-7l4.28,1.61a13,13,0,0,0-.9,4.72q0,8.92,14.67,8.92h10q10.31,0,10.36-5.37a3.91,3.91,0,0,0,0-.49,18.49,18.49,0,0,1-5.42.76q-8.82,0-9-7.39a10,10,0,0,1,.19-2.27,12.65,12.65,0,0,1,3.11-6.65,7.54,7.54,0,0,1,5.65-2.35,7.2,7.2,0,0,1,4,1.12q4.62,3,5.51,11.4C1324.62,657.21,1324.69,658.32,1324.71,659.38ZM1310.5,654c0,2.28,1.61,3.4,4.83,3.38a16.26,16.26,0,0,0,4.66-.7,18.39,18.39,0,0,0-1.41-5.35c-.9-2-2.15-3-3.77-3q-2.83,0-4,3.66A6.44,6.44,0,0,0,1310.5,654Zm0-18.82,4-4,4,4-4,4Z"/><path class="cls-2" d="M1341.19,670.83q-1.59,12.36-17.16,15.3l-1.69-4.31q14.29-2.67,14.35-13.69a22.53,22.53,0,0,0-2.13-8.72l4.53-1.64,1.69,5.29q1.37,4.2,5.12,4.2h.77c.36,0,.54.66.54,2v.66q0,2.4-.54,2.4h-.47Q1342.26,672.28,1341.19,670.83Z"/><path class="cls-2" d="M1379,660.71q0,11.56-19.66,11.57H1346.2c-1,0-1.58-.8-1.58-2.4v-.52c0-1.4.53-2.1,1.58-2.1h4l2-3.11v-30.3h4.72v23.59q5.49-6.74,11.89-6.74a10.24,10.24,0,0,1,6.66,2.24A9.62,9.62,0,0,1,1379,660.71Zm-10.14-4.93q-6.33,0-13.59,11.45h3.93q14.84,0,14.84-6.27a4.85,4.85,0,0,0-2.13-4.25A5.34,5.34,0,0,0,1368.9,655.78ZM1364.24,640l4-4,4,4-4,4Z"/><path class="cls-2" d="M1406.34,672.25a26.34,26.34,0,0,1-6.43-.68v-5.13a25.64,25.64,0,0,0,6,.79q9.45,0,9.41-4.5,0-1.2-2.49-7l-3.3-7.75,4.5-2.07,5.24,13.25q3.2,8.13,6.44,8.13h.54c.37,0,.55.7.55,2.1v.52c0,1.6-.18,2.4-.55,2.4h-.54q-4.56,0-7.15-4.39Q1415,672.25,1406.34,672.25Z"/><path class="cls-2" d="M1428,672.28h-2.08c-1,0-1.58-.8-1.58-2.4v-.52c0-1.4.53-2.1,1.58-2.1H1428c2.9,0,4.88-.29,5.91-.87q2.33-1.36,2.32-5.7a29.28,29.28,0,0,0-1-7.23l4.45-1.12a27.57,27.57,0,0,1,1.34,8.27q0,6.67-3.82,9.57Q1434.35,672.28,1428,672.28Zm-2.49,8.64,4-4,4,4-4,4Zm8.87,0,4-4,4,4-4,4Z"/><path class="cls-2" d="M1464.82,670.83q-1.58,12.36-17.15,15.3l-1.7-4.31q14.29-2.67,14.35-13.69a22.18,22.18,0,0,0-2.13-8.72l4.53-1.64,1.69,5.29q1.36,4.2,5.13,4.2h.76c.37,0,.55.66.55,2v.66c0,1.6-.18,2.4-.55,2.4h-.46Q1465.88,672.28,1464.82,670.83Z"/><path class="cls-2" d="M1469.84,672.28c-1,0-1.58-.8-1.58-2.4v-.52c0-1.4.53-2.1,1.58-2.1h1.64q9,0,22.25-6.85l2-1c-.47-.13-2.44-.89-5.89-2.29s-6-2.16-7.28-2.16a6.17,6.17,0,0,0-5.08,2.57l-.76,1-4.2-2.07.44-.77a10.79,10.79,0,0,1,9.62-5.67,19.75,19.75,0,0,1,8.3,2.34q8.5,4.16,13.17,4.34l-.06,4.75q-3.13.27-11.56,4.71-11.7,6.17-21.3,6.17ZM1480.78,640l4-4,4,4-4,4Z"/><path class="cls-2" d="M1545.23,672.28q-20.76,0-20.76-13.26a16.89,16.89,0,0,1,1.5-7l4.28,1.61a12.71,12.71,0,0,0-.9,4.67q0,9,15.74,9,14.17,0,17.54-3.55a4.81,4.81,0,0,0,.92-3.32c0-.62,0-1.14,0-1.56l-.14-2.21,4.5-.54.44,5.86a6.86,6.86,0,0,0,1.36,3.85,4.62,4.62,0,0,0,3.82,1.47h.36q.54,0,.54,2.1v.52q0,2.4-.54,2.4h-.36q-5.74,0-8.18-4.83-4.56,4.83-20,4.83Zm-6.69-25.15,4-4,4,4-4,4Zm8.87,0,4-4,4,4-4,4Z"/><path class="cls-2" d="M1591.18,672.88q-5,0-9.54-4.5-3.36,3.9-7.64,3.9h-.57q-1.56,0-1.56-2.4v-.52q0-2.1,1.56-2.1h.43a5.41,5.41,0,0,0,4.4-2.56,22.35,22.35,0,0,0,2-3.74q3.54-7.87,9.36-7.91a8.41,8.41,0,0,1,7,3.25,14,14,0,0,1,2.56,5.83q1.1,5.13,4.31,5.13h.41c.36,0,.55.7.55,2.1v.52c0,1.6-.19,2.4-.55,2.4h-.44a5.88,5.88,0,0,1-5.12-3.06A8,8,0,0,1,1591.18,672.88Zm-.3-4.88c2.64,0,3.93-1.25,3.88-3.79a8,8,0,0,0-.63-3,4.57,4.57,0,0,0-4.42-3q-3.68,0-5.7,5.65Q1587.54,668,1590.88,668Z"/><path class="cls-2" d="M1624,669.88q0,2.4-.54,2.4h-.27c-3.6,0-6.09-1.28-7.45-3.85q-2.7,3.86-9.44,3.85h-2.83q-1.56,0-1.56-2.4v-.52q0-2.1,1.56-2.1h2.7c4.2,0,6.52-1.2,7-3.6a13.53,13.53,0,0,0,.16-2.26c0-.91,0-1.78-.08-2.59l-.14-2.21,4.48-.55.43,6.3q.36,4.9,5.24,4.91h.22c.36,0,.54.78.54,2.35Zm-20.92,11,4-4,4,4-4,4Zm8.87,0,4-4,4,4-4,4Z"/><path class="cls-2" d="M1635.39,662.13c-5.9,0-8.9-2.46-9-7.39a11.18,11.18,0,0,1,.22-2.26,12.75,12.75,0,0,1,3.1-6.66,7.55,7.55,0,0,1,5.65-2.34,7.13,7.13,0,0,1,4,1.12q4.56,2.94,5.51,11.4a30.65,30.65,0,0,1,.19,3.35q0,7.73-3.68,10.47-3.27,2.46-11.51,2.46H1623c-1,0-1.58-.8-1.58-2.4v-.52c0-1.4.53-2.1,1.58-2.1h7.17q10.39,0,10.64-5.4a4,4,0,0,0,0-.49A18.51,18.51,0,0,1,1635.39,662.13Zm-9.08-26.84,4-4,4,4-4,4Zm4.61,18.71q0,3.42,4.83,3.39a16.1,16.1,0,0,0,4.64-.71,18.19,18.19,0,0,0-1.39-5.35c-.9-2-2.16-2.94-3.8-2.94-1.89,0-3.21,1.21-4,3.65A6.49,6.49,0,0,0,1630.92,654Zm4.26-18.71,4-4,4,4-4,4Z"/></svg>