<svg xmlns="http://www.w3.org/2000/svg" viewBox="0 0 1920 1080"><defs><style>.cls-1{fill:#f3efee;}.cls-2{fill:#535251;}.cls-3{isolation:isolate;}.cls-4{fill:#fff;}</style></defs><g id="Background"><rect class="cls-1" width="1920" height="1080"/></g><g id="Graphic"><path d="M1286.5,342.35h-653a107.34,107.34,0,0,1,0-214.68h653a107.34,107.34,0,0,1,0,214.68Zm-653-212.68a105.34,105.34,0,0,0,0,210.68h653a105.34,105.34,0,0,0,0-210.68Z"/><rect x="527.16" y="433.66" width="865.68" height="212.68" rx="106.34"/><rect class="cls-2" x="527.16" y="738.65" width="865.68" height="212.68" rx="106.34"/><g id="جستجو"><g class="cls-3"><path d="M835.3,256.28h-9.51V196.71h11l26.55,42v-42h9.55v59.57h-8.68L835.3,210.75Z"/><path d="M882.45,234.93q0-10,5.77-16.24t15.49-6.23q9.85,0,15.58,6.23t5.78,16.24q0,9.93-5.86,16.16t-15.5,6.23q-9.72,0-15.49-6.15T882.45,234.93Zm33.06,0q0-6.94-3.11-10.86a11.5,11.5,0,0,0-17.33,0Q892,228,892,234.93t3.11,10.74a11.62,11.62,0,0,0,17.33,0Q915.51,241.79,915.51,234.93Z"/><path d="M943.34,256.28H934V213.49h9v7.15q4.11-7.14,11.75-7.15h3.58v8.69h-3.83a9.48,9.48,0,0,0-8.22,4.11q-2.91,4.11-2.91,11.71Z"/><path d="M1002.08,232.39v23.89h-9.35V230.15q0-4.69-2.16-7.23a7.68,7.68,0,0,0-6.19-2.53,8.48,8.48,0,0,0-7.08,3.07q-2.43,3.07-2.43,8.93v23.89h-9.39V213.49h9v4.95q4.23-6,12.25-6a16.28,16.28,0,0,1,8.08,1.91,12.55,12.55,0,0,1,5.21,5.48q4.15-7.4,13.5-7.39,7.32,0,11.53,4.36c2.81,2.9,4.22,6.84,4.22,11.79v27.67h-9.35V230.15q0-4.69-2.16-7.23a7.68,7.68,0,0,0-6.19-2.53,8.48,8.48,0,0,0-7.08,3.07Q1002.08,226.53,1002.08,232.39Z"/><path d="M1077.35,248.55h1.87v7.73h-4.74a10.77,10.77,0,0,1-5.79-1.46,6.06,6.06,0,0,1-2.89-4.15q-4.36,6.65-13.29,6.65-6.78,0-10.82-3.51a11.5,11.5,0,0,1-4-9.12A11.89,11.89,0,0,1,1041,236q3.35-3.39,9.57-4.43l12-2a2.69,2.69,0,0,0,2.53-3,6.08,6.08,0,0,0-2.2-4.84,8.94,8.94,0,0,0-6-1.89q-7.77,0-9.31,7.14l-8.84-1a14.73,14.73,0,0,1,6-9.74q5-3.72,12.58-3.71,8,0,12.51,4.13t4.48,11.28v17.44a3.45,3.45,0,0,0,.73,2.49A3.16,3.16,0,0,0,1077.35,248.55Zm-30.53-4.61a5.49,5.49,0,0,0,1.89,4.45,8.24,8.24,0,0,0,5.42,1.57,10.39,10.39,0,0,0,8-3.38,12.36,12.36,0,0,0,3.14-8.74v-2.16l-12.17,2.07a8.32,8.32,0,0,0-4.65,2.1A5.51,5.51,0,0,0,1046.82,243.94Z"/><path d="M1095.54,256.28h-9.39V196.71h9.39Z"/></g></g><g id="جستجو-2" data-name="جستجو"><g class="cls-3"><path class="cls-4" d="M862.92,561.27H853V501.7h10v24.76h27.54V501.7h10v59.57h-10V535.14H862.92Z"/><path class="cls-4" d="M910,539.91q0-10,5.77-16.24t15.5-6.23q9.84,0,15.57,6.23t5.78,16.24q0,9.93-5.86,16.16T931.3,562.3q-9.72,0-15.5-6.14T910,539.91Zm33.06,0q0-6.93-3.11-10.86a10.48,10.48,0,0,0-8.68-3.92,10.37,10.37,0,0,0-8.64,3.94q-3.12,3.95-3.12,10.84t3.12,10.74a11.58,11.58,0,0,0,17.32,0Q943.1,546.76,943.09,539.91Z"/><path class="cls-4" d="M981.43,561.27h-9.76l-16-42.79h9.85l11.25,31.65L988,518.48h9.34Z"/><path class="cls-4" d="M1021.56,554.79A10.6,10.6,0,0,0,1028,553a10,10,0,0,0,3.47-5.59l8.35,1.79a16,16,0,0,1-6.29,9.66,20.09,20.09,0,0,1-12,3.46q-10.17,0-15.64-5.83t-5.46-16.64q0-10.1,5.69-16.16,5.73-6.23,15.16-6.23,9,0,14.25,5.67t5.23,15.35v3.74h-31.07Q1010.59,554.79,1021.56,554.79Zm-.33-29.95q-9.76,0-11.34,10.92h21.35Q1030.37,524.84,1021.23,524.84Z"/><path class="cls-4" d="M1059.15,561.27h-9.38V518.48h9v7.14q4.11-7.14,11.76-7.14h3.57v8.68h-3.82a9.49,9.49,0,0,0-8.23,4.11q-2.91,4.13-2.91,11.72Z"/></g></g><g id="جستجو-3" data-name="جستجو"><g class="cls-3"><path class="cls-4" d="M859.43,866.25h-10V806.69h42v8.51H859.43v17.36h28.66v8.52H859.43Z"/><path class="cls-4" d="M895.82,844.9q0-10,5.77-16.24t15.5-6.23q9.84,0,15.58,6.23t5.77,16.24q0,9.93-5.86,16.16t-15.49,6.23q-9.72,0-15.5-6.15T895.82,844.9Zm33.07,0q0-6.93-3.12-10.86a11.49,11.49,0,0,0-17.32,0q-3.12,3.95-3.12,10.84t3.12,10.74a11.6,11.6,0,0,0,17.32,0Q928.89,851.75,928.89,844.9Z"/><path class="cls-4" d="M965.57,859.36a9.82,9.82,0,0,0,6.89-2.39,10.63,10.63,0,0,0,3.2-6.71l9,1.12a17.72,17.72,0,0,1-6.25,11.67q-5.17,4.25-13.06,4.24-9.48,0-15-6.06T944.8,845q0-10.22,5.6-16.32t15-6.23q8.22,0,13.31,4.17t6.17,11.9l-9.26,1q-1.71-9.25-10.22-9.26a9.59,9.59,0,0,0-8.18,3.86Q954.4,838,954.39,845t2.91,10.64A9.87,9.87,0,0,0,965.57,859.36Z"/><path class="cls-4" d="M1020.48,823.47h9.35v42.78h-9v-5q-4.15,6.06-12.5,6.06-7.18,0-11.34-4.38t-4.16-11.82V823.47h9.35V849.6q0,4.65,2.22,7.16a8,8,0,0,0,6.3,2.51c3.18,0,5.61-1,7.29-3s2.51-5,2.51-8.87Z"/><path class="cls-4" d="M1057.2,867.29q-8.52,0-13.54-3.76a13.54,13.54,0,0,1-5.53-10.28l9.39-1.12a8.86,8.86,0,0,0,2.89,6q2.38,2,6.79,2a9.73,9.73,0,0,0,6-1.6,5.52,5.52,0,0,0,2.06-4.63q0-4.2-6.56-5.2l-6.4-1.12q-6.22-1.08-9.49-4.24a10.69,10.69,0,0,1-3.26-8.05,11.3,11.3,0,0,1,4.61-9.23q4.56-3.65,12.17-3.65t12,3.38a14.81,14.81,0,0,1,5.47,9.83l-8.52,1.08a9.29,9.29,0,0,0-3-5.49,11.7,11.7,0,0,0-11.67-.35,4.33,4.33,0,0,0-2,3.72,4.25,4.25,0,0,0,1.37,3.34,9,9,0,0,0,4.45,1.77l7.06,1.29q13.08,2.4,13.08,12.33a12.42,12.42,0,0,1-4.63,10.2Q1065.29,867.3,1057.2,867.29Z"/></g></g></g></svg>