<svg xmlns="http://www.w3.org/2000/svg" viewBox="0 0 1920 1080"><defs><style>.cls-1{fill:#f0eceb;}.cls-2{fill:#fff;}.cls-3{isolation:isolate;}.cls-4{fill:#8e8e8d;}</style></defs><g id="Background"><rect class="cls-1" width="1920" height="1080"/></g><g id="Graphic"><rect class="cls-2" x="202.9" y="456" width="1515.6" height="168" rx="84"/><g id="جستجو" class="cls-3"><g class="cls-3"><path class="cls-4" d="M271.42,559.38q-8.51,0-13.49-4.1a14.27,14.27,0,0,1-5.12-11.22l6.34-.82q.23,5.28,3.39,8t8.88,2.77a10.89,10.89,0,0,0,7.3-2.28,7.64,7.64,0,0,0,2.67-6.12,6.25,6.25,0,0,0-1.87-4.84c-1.24-1.14-3.4-2.05-6.46-2.7l-6.27-1.35q-6.44-1.41-9.5-4.63a12.43,12.43,0,0,1,1.3-17.65q4.37-3.76,11.42-3.77,7.41,0,11.83,3.61a14.09,14.09,0,0,1,5,10l-6.36.79Q279.39,516,270,516a10.78,10.78,0,0,0-7,2,7.47,7.47,0,0,0-.68,10.42,11.57,11.57,0,0,0,5.84,2.66l7.32,1.57q6.33,1.35,9.32,4.4a11.26,11.26,0,0,1,3,8.24,12.91,12.91,0,0,1-4.49,10.07Q278.77,559.39,271.42,559.38Z"/><path class="cls-4" d="M310.14,554.52q7,0,8.53-6.79l5.51,1.08a12.17,12.17,0,0,1-4.74,7.73,15.1,15.1,0,0,1-9.3,2.84q-7.84,0-12.06-4.56t-4.22-13.06q0-8,4.37-12.76T310,524.14q6.89,0,10.82,4.33t3.94,11.81v2.89H299.9Q300.4,554.53,310.14,554.52Zm-.3-25.59a9.14,9.14,0,0,0-6.74,2.49,11.93,11.93,0,0,0-3.07,7.32H318.6Q318.12,528.93,309.84,528.93Z"/><path class="cls-4" d="M360.67,553.57h1.61v5H359a7.46,7.46,0,0,1-4.43-1.26,4.7,4.7,0,0,1-2-3.5Q349,559.38,342,559.38a12.57,12.57,0,0,1-8.46-2.74,8.88,8.88,0,0,1-3.22-7.07,9.43,9.43,0,0,1,2.63-6.88,13.3,13.3,0,0,1,7.51-3.49l9.81-1.67a2.28,2.28,0,0,0,2.1-2.43,5.64,5.64,0,0,0-2-4.45,7.91,7.91,0,0,0-5.39-1.72,8.69,8.69,0,0,0-5.41,1.53,8,8,0,0,0-2.76,4.7l-5.67-.65a11.5,11.5,0,0,1,4.57-7.52,15.38,15.38,0,0,1,9.5-2.85q6,0,9.5,3.21a11.14,11.14,0,0,1,3.46,8.57V551a2.74,2.74,0,0,0,.56,2A2.66,2.66,0,0,0,360.67,553.57Zm-24.48-4.43a4.94,4.94,0,0,0,1.71,4,7.08,7.08,0,0,0,4.75,1.45,9,9,0,0,0,7-3.07,11.38,11.38,0,0,0,2.74-7.89v-1.94l-10.76,1.87a7.07,7.07,0,0,0-4.06,1.87A5.13,5.13,0,0,0,336.19,549.14Z"/><path class="cls-4" d="M374.15,558.56h-6V525H374v6.1q3.28-6.1,9.62-6.1h2.59v5.64h-2.66a8,8,0,0,0-6.86,3.69q-2.55,3.69-2.56,10Z"/><path class="cls-4" d="M405.36,554.26a8.6,8.6,0,0,0,6.07-2.12,9.28,9.28,0,0,0,2.76-5.95l5.84.69a13.49,13.49,0,0,1-4.65,9.1,14.87,14.87,0,0,1-10,3.4q-7.38,0-11.62-4.73t-4.23-12.76q0-8.1,4.3-12.89a14.77,14.77,0,0,1,11.55-4.86q6.3,0,10.17,3.23a13.85,13.85,0,0,1,4.69,9.14l-6.1.69q-1.22-8-8.83-7.94a8.38,8.38,0,0,0-7.08,3.31q-2.54,3.31-2.53,9.32,0,5.83,2.54,9.11A8.56,8.56,0,0,0,405.36,554.26Z"/><path class="cls-4" d="M456.35,536.77v21.79h-6V537.85a9,9,0,0,0-2.05-6.31,7.62,7.62,0,0,0-5.89-2.22,8.27,8.27,0,0,0-6.7,2.73q-2.3,2.72-2.29,8v18.54h-6v-47h6v17.55q3.41-4.92,10.33-4.92,5.88,0,9.22,3.39T456.35,536.77Z"/></g></g><g id="Group_33" data-name="Group 33"><g id="Group_34" data-name="Group 34"><path class="cls-4" d="M1623.83,561.74a29,29,0,1,1,29-29A29,29,0,0,1,1623.83,561.74Zm0-50.73a21.74,21.74,0,1,0,21.74,21.74A21.77,21.77,0,0,0,1623.83,511Z"/><rect class="cls-4" x="1652.82" y="555.12" width="7.25" height="20.5" transform="translate(85.37 1336.84) rotate(-45)"/></g></g></g></svg>