<svg xmlns="http://www.w3.org/2000/svg" viewBox="0 0 1920 1080"><defs><style>.cls-1{fill:#f3efee;}.cls-2{fill:#e4f1fc;}.cls-3{fill:#4672e2;}.cls-4{isolation:isolate;}</style></defs><g id="Background"><rect class="cls-1" width="1920" height="1080"/></g><g id="Graphic"><rect class="cls-2" x="202.9" y="456" width="1515.6" height="168" rx="84"/><path class="cls-3" d="M1634.5,624.5H286.9a84.5,84.5,0,1,1,0-169H1634.5a84.5,84.5,0,0,1,0,169ZM286.9,456.5a83.5,83.5,0,1,0,0,167H1634.5a83.5,83.5,0,0,0,0-167Z"/><g id="جستجو" class="cls-4"><g class="cls-4"><path d="M1481.34,556.31h-4.79q-5.86,0-8.69-2.32t-2.82-7a16.74,16.74,0,0,1,1.64-7.32q3-6.16,8.89-6.17,9.81,0,11,17.3l0,.46h3.74a5.94,5.94,0,0,1,.26,2.29v.33a6.58,6.58,0,0,1-.26,2.4l-3.67,0h-.43l-.07.4q-2.36,12.93-19,16.24l-1.67-4.27q13.93-2.75,16.34-11.71l.16-.62Zm.69-5.58q-.78-11.94-6.82-12a4.64,4.64,0,0,0-2.13.49,4.75,4.75,0,0,0-1.66,1.45,8.92,8.92,0,0,0-1.2,2.33,10.83,10.83,0,0,0-.62,3.51,4.35,4.35,0,0,0,.78,2.64,4.52,4.52,0,0,0,2.27,1.57,11,11,0,0,0,3.58.51h5.84Z"/><path d="M1521.24,540.82q-.75-.2-7-2.76-3.29-1.3-5.46-2a13.1,13.1,0,0,0-3.47-.65,7.87,7.87,0,0,0-3.6.82,8.09,8.09,0,0,0-2.89,2.46l-.69.85-4.2-2.07.26-.45a18.62,18.62,0,0,1,1.74-2.37,13.15,13.15,0,0,1,2-1.85,10.78,10.78,0,0,1,2.23-1.33,12.16,12.16,0,0,1,2.48-.79,14.08,14.08,0,0,1,2.74-.26q4.07,0,9.74,2.76,9.92,4.85,15.59,5.25l-.07,4.79a21.53,21.53,0,0,0-6.53,2.29l-.26.13v.3q.13,5.28,9.62,5.28h1.34a4.05,4.05,0,0,1,.26,1.87v.79a6.58,6.58,0,0,1-.26,2.4h-1.87c-3.92,0-6.9-.7-9-2.09a8.31,8.31,0,0,1-3.57-6.28l-.1-.69-.63.3c-.28.15-.57.3-.87.44s-.59.29-.9.46l-.92.51q-14,7.35-25.39,7.35h-1.58a1.17,1.17,0,0,1-1-.55,3.48,3.48,0,0,1-.36-1.85v-.62a2.66,2.66,0,0,1,.35-1.59,1.23,1.23,0,0,1,1.06-.45h2q11,0,27-8.3l2.43-1.25,1.15-.59ZM1509,567.19l4.39-4.39,4.43,4.43-4.39,4.39Z"/><path d="M1558.45,553.91a11.69,11.69,0,0,1-.08,1.56,2.9,2.9,0,0,1-.18.84H1558q-6.2,0-8.5-4.37l-.39-.72-.46.66q-3.12,4.43-11,4.43h-3.41a1.14,1.14,0,0,1-.74-.22,1.49,1.49,0,0,1-.46-.75,4.66,4.66,0,0,1-.18-1.43v-.62a2.76,2.76,0,0,1,.33-1.59,1.21,1.21,0,0,1,1-.45h3.25q8,0,8.86-4.72a15.6,15.6,0,0,0,.23-2.82c0-1.12,0-2.17-.1-3.15l-.17-2.2,4.43-.53.49,7.06a8.15,8.15,0,0,0,1,3.51,5.33,5.33,0,0,0,2.28,2.13,7.91,7.91,0,0,0,3.53.72h.16a6.16,6.16,0,0,1,.26,2.33Zm-23.86-28.68,4.39-4.39,4.42,4.42-4.39,4.39Zm10.67,0,4.39-4.39,4.42,4.42-4.39,4.39Z"/><path d="M1590.12,545.58a6.36,6.36,0,0,0,1.65,4.2,5.55,5.55,0,0,0,4.06,1.44,4.36,4.36,0,0,0,3.8-1.8,8.89,8.89,0,0,0,1.25-5.22c0-1.73-.05-3.17-.16-4.33l-.14-1.51,4.43-.53.5,5.71a10,10,0,0,0,2,5.74,5.67,5.67,0,0,0,4.59,2h.52a5.6,5.6,0,0,1,.23,2v.62a6.77,6.77,0,0,1-.26,2.4h-.43q-6.3,0-8.1-5.12a8.53,8.53,0,0,1-8.14,5.12q-5.64,0-7.94-4.76a10.55,10.55,0,0,1-9.09,4.76q-6.49,0-8.59-4.93-2.79,4.93-10.67,4.93h-1.84a1.22,1.22,0,0,1-1-.53,3.59,3.59,0,0,1-.36-1.87v-.62a2.73,2.73,0,0,1,.33-1.58,1.31,1.31,0,0,1,1.08-.46h1.91q7.15,0,8.27-5.21a13.2,13.2,0,0,0,.16-2.4c0-.94,0-2-.16-3.08l-.13-1.51,4.42-.53.5,7.06a6.05,6.05,0,0,0,1.77,4.23,6.4,6.4,0,0,0,4.43,1.44,5.92,5.92,0,0,0,6.4-5.21,13.5,13.5,0,0,0,.16-2.4c0-.5,0-1,0-1.54s-.06-1-.1-1.54l-.13-1.51,4.4-.53Z"/><path d="M1612.2,556.31a1.17,1.17,0,0,1-1-.55,3.48,3.48,0,0,1-.36-1.85v-.62a2.67,2.67,0,0,1,.34-1.59,1.27,1.27,0,0,1,1.07-.45h2q11,0,27-8.3l2.43-1.25,1.12-.55-1.22-.33-2.19-.84-4.86-1.92q-3.29-1.3-5.46-2a13.1,13.1,0,0,0-3.47-.65,7.94,7.94,0,0,0-3.61.82,8.14,8.14,0,0,0-2.88,2.46l-.69.85-4.2-2.07.26-.45a18.62,18.62,0,0,1,1.74-2.37,13.15,13.15,0,0,1,2-1.85,10.78,10.78,0,0,1,2.23-1.33,12.16,12.16,0,0,1,2.48-.79,14.08,14.08,0,0,1,2.74-.26q4.07,0,9.74,2.76,9.92,4.85,15.59,5.25l-.07,4.82a11.45,11.45,0,0,0-1.85.41c-.69.21-1.45.47-2.28.79s-1.74.69-2.73,1.13-2,.93-3.16,1.48-2.34,1.17-3.63,1.87q-14,7.35-25.39,7.35Zm19,10.88,4.39-4.39,4.42,4.43-4.39,4.39Z"/></g></g><g id="Group_33" data-name="Group 33"><g id="Group_34" data-name="Group 34"><path d="M288.46,561.74a29,29,0,1,1,29-29A29,29,0,0,1,288.46,561.74Zm0-50.73a21.74,21.74,0,1,0,21.75,21.74A21.77,21.77,0,0,0,288.46,511Z"/><rect x="317.45" y="555.12" width="7.25" height="20.5" transform="translate(-305.73 392.62) rotate(-45)"/></g></g></g></svg>