<svg xmlns="http://www.w3.org/2000/svg" viewBox="0 0 1920 1080"><defs><style>.cls-1{fill:#f4f8fc;}.cls-2{isolation:isolate;}.cls-3{fill:#44b98c;}.cls-4{fill:#fff;}</style></defs><g id="Background"><rect class="cls-1" width="1920" height="1080"/></g><g id="Layer_1" data-name="Layer 1"><g id="Group_21" data-name="Group 21"><rect id="Rectangle_1" data-name="Rectangle 1" x="1513.29" y="209.44" width="6.36" height="76.32"/><rect id="Rectangle_2" data-name="Rectangle 2" x="1516.47" y="238.06" width="22.26" height="6.36"/><rect id="Rectangle_3" data-name="Rectangle 3" x="1512.93" y="229.52" width="24.15" height="6.36" transform="translate(282.12 1146.5) rotate(-45)"/><rect id="Rectangle_4" data-name="Rectangle 4" x="1503.75" y="260.32" width="10.93" height="6.36"/><path id="Path_29" data-name="Path 29" d="M1519.65,276.22v-6.36a6.36,6.36,0,0,0,0-12.72v-6.36a12.72,12.72,0,0,1,0,25.44Z"/><path id="Path_30" data-name="Path 30" d="M1529.19,219h-6.36a6.36,6.36,0,1,0-12.72,0h-6.36a12.72,12.72,0,0,1,25.44,0Z"/><path id="Path_31" data-name="Path 31" d="M1672.1,498.84h-6.36a38.06,38.06,0,1,0-76.12,0h-6.36a44.42,44.42,0,1,1,88.84,0Z"/><rect id="Rectangle_5" data-name="Rectangle 5" x="1540.14" y="343" width="98.95" height="6.36" transform="translate(220.8 1225.42) rotate(-45)"/><path id="Path_32" data-name="Path 32" d="M1805.87,505.2H1551.46V341.14l-12.73,12.73v17.76h-25.44V282.58h63.61A60.5,60.5,0,0,1,1637.32,343v15.9h108.13a60.5,60.5,0,0,1,60.42,60.42Zm-248-6.36h241.69V419.33a54.12,54.12,0,0,0-54.06-54.06H1631V343a54.13,54.13,0,0,0-54.06-54.07h-57.25v76.33h12.72v-14l35.92-35.92,4.5,4.5-15,15Z"/><path id="Path_33" data-name="Path 33" d="M1802.69,486.12h-63.6v-124h6.36V479.76h57.24Z"/><path id="Path_34" data-name="Path 34" d="M1675.48,448A44.56,44.56,0,0,1,1631,403.43V358.91h89v44.52A44.57,44.57,0,0,1,1675.48,448Zm-38.16-82.68v38.16a38.17,38.17,0,0,0,76.33,0V365.27Z"/><path id="Path_35" data-name="Path 35" d="M1541.92,311.21h-28.63V282.58h28.63Zm-22.27-6.36h15.9V288.94h-15.9Z"/></g><g id="خانه_و_دکور" data-name="خانه و دکور"><g class="cls-2"><path class="cls-3" d="M1178,409.44a29.12,29.12,0,0,1,2.43,11q0,16-18.6,19.48l-1.82-4.63q15.36-2.86,15.41-14.71a24,24,0,0,0-2.28-9.37Z"/><path class="cls-3" d="M1200.79,425h-4.28q-10.71,0-10.72-8.73a15.2,15.2,0,0,1,1.53-6.71q2.75-5.77,8.32-5.77,9.16,0,10.22,15.85h3c.39,0,.58.83.58,2.49v.29c0,1.72-.19,2.58-.58,2.58l-3.37,0q-2.21,12-17.64,14.91l-1.81-4.63Q1198.68,432.94,1200.79,425Zm.18-5.39q-.67-10.26-5.69-10.29c-1.83,0-3.17,1.16-4,3.52a9.3,9.3,0,0,0-.53,3q0,3.78,5.48,3.78Z"/><path class="cls-3" d="M1226.25,405.69a12.75,12.75,0,0,1,3.72,9.08q-.18,10.26-17.34,10.26h-4.19c-1.13,0-1.7-.86-1.7-2.58v-.56c0-1.5.57-2.25,1.7-2.25h4.16q12.11,0,12.13-5.6c0-1.91-1-3.82-3-5.71q-4.48-4.2-8-6.95c-2.22-1.73-3.34-3.56-3.34-5.47q0-3.81,4.1-5.37l20.31-7.7v5.3l-19.69,7.33A131,131,0,0,1,1226.25,405.69Z"/><path class="cls-3" d="M1239.43,418.84a32.56,32.56,0,0,0,6.48.77q10.85,0,10.84-5.31,0-5.54-12.16-13.18l2.93-4.45q14.51,8.64,14.5,17.55,0,10.71-15.73,10.75a31.28,31.28,0,0,1-6.86-.71Z"/><path class="cls-3" d="M1284.41,435.28q12.67-2.34,14.88-10.63c-2.33.29-3.81.43-4.46.43q-10.68.06-10.69-8.78a15.2,15.2,0,0,1,1.53-6.71q2.74-5.77,8.32-5.77,6,0,8.61,6.7a26.32,26.32,0,0,1,1.7,9.58q0,16.41-18.08,19.81Zm14.91-16.17q-.64-9.76-5.69-9.76-2.81,0-4,3.52a9.49,9.49,0,0,0-.53,3c0,2.69,1.93,4,5.77,4A15.46,15.46,0,0,0,1299.32,419.11Z"/><path class="cls-3" d="M1326,413.13q0-8.61,15.2-13.27l-.26-1.35,4.77-1,2.41,17.31c.45,3.18,2.26,4.78,5.45,4.78h.58c.39,0,.59.7.59,2.11v.7c0,1.72-.2,2.58-.59,2.58h-.7q-8,0-9.46-6.65a11.68,11.68,0,0,1-7.89,3.07q-6.52,0-9.11-4.28A7.78,7.78,0,0,1,1326,413.13Zm15.82-8.38q-10.6,3.81-10.61,8,0,3.57,4.72,3.57a8.56,8.56,0,0,0,4.51-1.37q2.82-1.73,2.23-5.57l-.62-3.9-.14-.82Z"/><path class="cls-3" d="M1355.89,425h-2.23c-1.13,0-1.7-.86-1.7-2.58v-.56c0-1.5.57-2.25,1.7-2.25h2.23a10.23,10.23,0,0,0,4.89-.94q2.49-1.47,2.49-6.12a32,32,0,0,0-1.08-7.77l4.77-1.2a29.51,29.51,0,0,1,1.44,8.88q0,7.17-4.1,10.28C1362.31,424.27,1359.5,425,1355.89,425Zm1.76-30.65,4.27-4.27,4.29,4.3-4.26,4.26Z"/><path class="cls-3" d="M1387.71,422.45c0,1.72-.18,2.58-.59,2.58h-.62q-10.77,0-10.78-12.72V383.78h5.1v28.47q0,7.38,5.77,7.39h.53c.39,0,.59.75.59,2.25Z"/><path class="cls-3" d="M1386.68,425c-1.13,0-1.7-.86-1.7-2.58v-.56c0-1.5.57-2.25,1.7-2.25h1.76q9.66,0,23.9-7.36l2.17-1.11c-.51-.14-2.61-1-6.33-2.46s-6.43-2.32-7.82-2.32a6.61,6.61,0,0,0-5.45,2.76l-.82,1.05-4.51-2.22.47-.82q3.69-6.07,10.34-6.1a21.16,21.16,0,0,1,8.91,2.52q9.14,4.46,14.15,4.66l-.06,5.1q-3.37.29-12.42,5.07Q1398.4,425,1388.09,425Zm11.75-34.73,4.27-4.26,4.29,4.29-4.26,4.27Z"/></g></g><g id="فرش"><g class="cls-2"><path class="cls-3" d="M1045.45,423.39a18.56,18.56,0,0,1-1.64,8q-4.36,8.88-16.62,8.88-18.33,0-18.31-17a32.75,32.75,0,0,1,2.67-12.57l4.66,1.91a29.1,29.1,0,0,0-2.17,10.6q0,11.9,13.36,11.9,13,0,13.1-13a24.44,24.44,0,0,0-2.67-10.84l5.07-1.76,1.76,5.42a6.25,6.25,0,0,0,6.5,4.75c3.48,0,5.2-1.8,5.19-5.39,0-1.12,0-2.1-.09-3l-.15-2.46,4.83-.59.47,6.77c.2,3,1.69,4.56,4.49,4.55s4.18-2.07,4.16-6.19a27.8,27.8,0,0,0-1.29-7.47l5-1.35a28.4,28.4,0,0,1,1.43,8.79q0,6.65-3.54,9.75a8.2,8.2,0,0,1-5.57,1.94c-3.61,0-6-1.37-7.15-4.1a9.21,9.21,0,0,1-7.85,4.13A8.67,8.67,0,0,1,1045.45,423.39Zm3.25-26,4.14-4.16,4.2,4.19-4.17,4.17Zm4.68-7.86,4.16-4.17,4.2,4.2-4.17,4.17Zm4.82,7.86,4.17-4.16,4.2,4.19-4.17,4.17Z"/><path class="cls-3" d="M1092.94,423.47q-1.71,13.27-18.43,16.44l-1.82-4.63q15.36-2.86,15.41-14.71a24,24,0,0,0-2.28-9.37l4.86-1.76,1.82,5.68q1.45,4.51,5.51,4.52h.82c.39,0,.58.7.58,2.11v.7c0,1.72-.19,2.58-.58,2.58h-.5Q1094.09,425,1092.94,423.47Z"/><path class="cls-3" d="M1111.6,414.13q-9.52,0-9.64-7.94a12.84,12.84,0,0,1,.23-2.43,13.69,13.69,0,0,1,3.33-7.15,8.13,8.13,0,0,1,6.08-2.52,7.73,7.73,0,0,1,4.31,1.2q4.89,3.16,5.91,12.25a32.93,32.93,0,0,1,.21,3.6q0,8.3-4,11.25-3.51,2.64-12.36,2.64h-7.38c-1.13,0-1.7-.86-1.7-2.58v-.56c0-1.5.57-2.25,1.7-2.25h7.7q11.16,0,11.43-5.81a4.53,4.53,0,0,0,0-.52A20.18,20.18,0,0,1,1111.6,414.13Zm-5.06-28.92,4.26-4.27,4.29,4.3-4.26,4.26Zm.25,20.19q0,3.66,5.19,3.63a17.07,17.07,0,0,0,5-.76,19.11,19.11,0,0,0-1.49-5.74q-1.44-3.16-4.08-3.17-3,0-4.24,3.93A6.83,6.83,0,0,0,1106.79,405.4Z"/></g></g><g id="_کالاهای_هنری" data-name=" کالاهای هنری"><g class="cls-2"><path class="cls-3" d="M632.23,422.57q0,11.88,13.56,11.95a21.86,21.86,0,0,0,9.32-1.91,12.62,12.62,0,0,0,3.75-2.63,5.34,5.34,0,0,0,1.61-3.78c0-1.12-.76-1.67-2.28-1.67l-3.34,0q-7.3,0-7.3-5.83a13.37,13.37,0,0,1,3.52-9.38q4.53-4.95,12.77-5h.62V410h-.65a13.25,13.25,0,0,0-7.76,2.14,6.6,6.6,0,0,0-3.2,5.39,1.56,1.56,0,0,0,.47,1.26,2.49,2.49,0,0,0,1.58.41h3.49q6.95,0,6.94,5.83,0,8.49-8.43,12.36a26.9,26.9,0,0,1-11.25,2.26q-18.55,0-18.55-17a35.8,35.8,0,0,1,3.2-13.82l4.65,1.9A31.21,31.21,0,0,0,632.23,422.57Z"/><path class="cls-3" d="M688,423.47q-1.69,13.27-18.43,16.44l-1.81-4.63q15.35-2.86,15.41-14.71a24.19,24.19,0,0,0-2.29-9.37l4.86-1.76,1.82,5.68c1,3,2.81,4.52,5.51,4.52h.82c.39,0,.58.7.58,2.11v.7c0,1.72-.19,2.58-.58,2.58h-.5Q689.19,425,688,423.47Z"/><path class="cls-3" d="M714,422.45c0,1.72-.2,2.58-.59,2.58h-.29q-5.8,0-8-4.13-2.89,4.13-8.67,4.13H693.4c-1.11,0-1.67-.86-1.67-2.58v-.56c0-1.5.56-2.25,1.67-2.25h2.9q5.31,0,6-3.87a15.58,15.58,0,0,0,.17-2.43q0-1.47-.09-2.79l-.14-2.37,4.8-.59.47,6.77q.38,5.28,5.63,5.28h.23c.39,0,.59.84.59,2.52ZM698.74,396.9l4.26-4.27,4.3,4.3L703,401.19Z"/><path class="cls-3" d="M716,425h-3c-1.13,0-1.7-.86-1.7-2.58v-.56c0-1.5.57-2.25,1.7-2.25h8.94a8.6,8.6,0,0,1-3.72-7.59,9.5,9.5,0,0,1,2.28-6.48,9.84,9.84,0,0,1,7.79-3.57,10.22,10.22,0,0,1,7.27,3,8.6,8.6,0,0,1,2.84,6.65,9.31,9.31,0,0,1-3.81,7.85,37,37,0,0,0,4.46.29q6.76,0,6.79-5.18.06-7.07-16.73-15.15l2.55-4.48q19.61,9.52,19.43,19.66a10.47,10.47,0,0,1-2.64,7.17q-2.87,3.19-8.92,3.21a38.54,38.54,0,0,1-11.79-1.8A41.37,41.37,0,0,1,716,425ZM728.56,407a5.12,5.12,0,0,0-3.64,1.26,5,5,0,0,0-1.61,3.78q0,4,5.22,5.89c3.28-1.27,4.94-3.19,5-5.74a5,5,0,0,0-1.41-3.84A5,5,0,0,0,728.56,407Z"/><path class="cls-3" d="M778.6,422.57q0,11.88,13.56,11.95a21.9,21.9,0,0,0,9.32-1.91,12.88,12.88,0,0,0,3.75-2.63,5.34,5.34,0,0,0,1.61-3.78c0-1.12-.76-1.67-2.29-1.67l-3.34,0q-7.29,0-7.29-5.83a13.4,13.4,0,0,1,3.51-9.38q4.55-4.95,12.78-5h.61V410h-.64a13.29,13.29,0,0,0-7.77,2.14,6.59,6.59,0,0,0-3.19,5.39,1.56,1.56,0,0,0,.47,1.26,2.49,2.49,0,0,0,1.58.41h3.49q6.94,0,6.94,5.83,0,8.49-8.44,12.36A26.9,26.9,0,0,1,792,439.65q-18.54,0-18.54-17a35.77,35.77,0,0,1,3.19-13.82l4.66,1.9A31,31,0,0,0,778.6,422.57Z"/><path class="cls-3" d="M830.89,422.45c0,1.72-.17,2.58-.58,2.58h-.62q-10.79,0-10.78-12.72V383.78H824v28.47q0,7.38,5.77,7.39h.53c.39,0,.58.75.58,2.25Z"/><path class="cls-3" d="M832.88,425h-3c-1.14,0-1.7-.86-1.7-2.58v-.56c0-1.5.56-2.25,1.7-2.25h8.93a8.6,8.6,0,0,1-3.72-7.59,9.46,9.46,0,0,1,2.29-6.48,9.83,9.83,0,0,1,7.79-3.57,10.22,10.22,0,0,1,7.26,3,8.61,8.61,0,0,1,2.85,6.65,9.31,9.31,0,0,1-3.81,7.85,36.87,36.87,0,0,0,4.45.29q6.76,0,6.8-5.18.06-7.07-16.73-15.15l2.55-4.48q19.59,9.52,19.42,19.66a10.47,10.47,0,0,1-2.64,7.17q-2.87,3.19-8.92,3.21a38.59,38.59,0,0,1-11.79-1.8A41.32,41.32,0,0,1,832.88,425ZM845.45,407a5.11,5.11,0,0,0-3.63,1.26,5,5,0,0,0-1.61,3.78q0,4,5.21,5.89c3.28-1.27,4.94-3.19,5-5.74a5,5,0,0,0-1.4-3.84A5.06,5.06,0,0,0,845.45,407Z"/><path class="cls-3" d="M878.56,385.53q8.46,20.4,11.8,33,6.75-2.13,6.74-12.21v-22.5h5.07v22.53q0,18.63-19.63,18.63a36.87,36.87,0,0,1-6.53-.47v-5.3a50.38,50.38,0,0,0,9.58.35q-3.37-11.72-11.87-31.23Z"/><path class="cls-3" d="M923,422.45c0,1.72-.18,2.58-.59,2.58h-.61q-10.79,0-10.78-12.72V383.78h5.1v28.47q0,7.38,5.77,7.39h.52c.39,0,.59.75.59,2.25Z"/><path class="cls-3" d="M939.82,405.69a12.75,12.75,0,0,1,3.72,9.08Q943.36,425,926.19,425H922c-1.13,0-1.69-.86-1.69-2.58v-.56c0-1.5.56-2.25,1.69-2.25h4.16q12.11,0,12.13-5.6c0-1.91-1-3.82-3-5.71q-4.49-4.2-8-6.95c-2.23-1.73-3.34-3.56-3.34-5.47q0-3.81,4.1-5.37l20.3-7.7v5.3l-19.68,7.33A134.18,134.18,0,0,1,939.82,405.69Z"/></g></g><g id="مبلمان"><g class="cls-2"><path class="cls-3" d="M442.37,429.33q-4.37,8.88-16.61,8.88-18.35,0-18.31-17a32.73,32.73,0,0,1,2.66-12.57l4.66,1.9a29.19,29.19,0,0,0-2.17,10.61Q412.6,433,426,433q13,0,13.1-13a24.44,24.44,0,0,0-2.67-10.84l5.07-1.76a36.72,36.72,0,0,1,2.75,13.48A19,19,0,0,1,442.37,429.33Zm-21.21-24.44,4.27-4.26,4.29,4.29-4.26,4.27Z"/><path class="cls-3" d="M463.46,422.45c0,1.72-.17,2.58-.58,2.58h-.62q-10.78,0-10.78-12.72V383.78h5.1v28.47q0,7.38,5.77,7.39h.53c.39,0,.58.75.58,2.25Z"/><path class="cls-3" d="M481.51,425.67c-3.6,0-7-1.61-10.26-4.83q-3.6,4.19-8.2,4.19h-.61c-1.12,0-1.67-.86-1.67-2.58v-.56c0-1.5.55-2.25,1.67-2.25h.46a5.8,5.8,0,0,0,4.72-2.76,23.14,23.14,0,0,0,2.2-4q3.81-8.47,10.05-8.5a9,9,0,0,1,7.5,3.49,15.13,15.13,0,0,1,2.75,6.27c.78,3.67,2.33,5.51,4.63,5.51h.44c.39,0,.59.75.59,2.25v.56c0,1.72-.2,2.58-.59,2.58h-.47a6.35,6.35,0,0,1-5.51-3.28A8.53,8.53,0,0,1,481.51,425.67Zm-.32-5.24c2.83,0,4.21-1.34,4.16-4.08a8.6,8.6,0,0,0-.68-3.22,4.9,4.9,0,0,0-4.74-3.19q-4-.06-6.13,6.06Q477.58,420.4,481.19,420.43Z"/><path class="cls-3" d="M496.21,425h-1.46c-1.13,0-1.7-.86-1.7-2.58v-.56c0-1.5.57-2.25,1.7-2.25h1.52q7.8,0,7.83-6.07l.14-29.79h5.07v29.79q0,6.06,6.33,6.07h.5c.47,0,.7.75.7,2.25v.56c0,1.72-.23,2.58-.7,2.58h-.44q-6.3,0-9.26-4.16C504.54,423.64,501.14,425,496.21,425Z"/><path class="cls-3" d="M536.32,422.45c0,1.72-.19,2.58-.58,2.58h-.3q-5.79,0-8-4.13-2.91,4.13-8.68,4.13h-3c-1.12,0-1.67-.86-1.67-2.58v-.56c0-1.5.55-2.25,1.67-2.25h2.9q5.29,0,6-3.87a14.36,14.36,0,0,0,.18-2.43q0-1.47-.09-2.79l-.15-2.37,4.81-.59.47,6.77c.25,3.52,2.13,5.28,5.62,5.28h.24c.39,0,.58.84.58,2.52Zm-17.1,11.86,4.26-4.27,4.3,4.3-4.27,4.26Z"/><path class="cls-3" d="M544.12,420.84q-3.61,4.19-8.21,4.19h-.61c-1.12,0-1.67-.86-1.67-2.58v-.56c0-1.5.55-2.25,1.67-2.25h.47q2.37,0,4.68-2.76a18.72,18.72,0,0,0,2.23-4q3.84-8.5,10.05-8.53a9.22,9.22,0,0,1,7.62,3.49,12.57,12.57,0,0,1,2.78,8.11c0,3-.66,5.32-2,6.86a8.42,8.42,0,0,1-6.74,2.84Q548.75,425.67,544.12,420.84Zm9.9-.41q4.1,0,4.1-4a8.36,8.36,0,0,0-.59-3.28,4.8,4.8,0,0,0-4.68-3.19q-4.05,0-6.19,6.06Q550.5,420.42,554,420.43Z"/></g></g><g id="مد_و_لباس" data-name="مد و لباس"><g class="cls-2"><path class="cls-3" d="M131,423.39a18.41,18.41,0,0,1-1.64,8q-4.37,8.88-16.61,8.88-18.35,0-18.31-17a32.75,32.75,0,0,1,2.67-12.57l4.66,1.91a29.1,29.1,0,0,0-2.17,10.6q0,11.9,13.36,11.9,13,0,13.09-13a24.56,24.56,0,0,0-2.66-10.84l5.06-1.76,1.76,5.42a6.27,6.27,0,0,0,6.51,4.75q5.2,0,5.18-5.39c0-1.12,0-2.1-.09-3l-.14-2.46,4.83-.59L147,415q.3,4.56,4.48,4.55c2.8,0,4.18-2.07,4.16-6.19a27.8,27.8,0,0,0-1.29-7.47l5-1.35a28.13,28.13,0,0,1,1.44,8.79q0,6.65-3.55,9.75A8.17,8.17,0,0,1,151.7,425q-5.43,0-7.15-4.1A9.21,9.21,0,0,1,136.7,425,8.72,8.72,0,0,1,131,423.39Z"/><path class="cls-3" d="M180.23,422.45c0,1.72-.17,2.58-.58,2.58H179q-10.78,0-10.78-12.72V383.78h5.1v28.47q0,7.38,5.77,7.39h.53c.39,0,.58.75.58,2.25Z"/><path class="cls-3" d="M199.77,422.45c0,1.72-.19,2.58-.58,2.58h-.29q-5.81,0-8-4.13Q188,425,182.23,425h-3c-1.12,0-1.67-.86-1.67-2.58v-.56c0-1.5.55-2.25,1.67-2.25h2.9c3.53,0,5.55-1.29,6-3.87a14.36,14.36,0,0,0,.18-2.43q0-1.47-.09-2.79l-.14-2.37,4.8-.59.47,6.77c.25,3.52,2.13,5.28,5.62,5.28h.24c.39,0,.58.84.58,2.52Zm-17.1,11.86,4.26-4.27,4.3,4.3L187,438.6Z"/><path class="cls-3" d="M198.78,425c-1.13,0-1.7-.86-1.7-2.58v-.56c0-1.5.57-2.25,1.7-2.25h1.4q7.83,0,7.83-7.36v-28.5h5.09v28.68Q213.1,425,200,425Z"/><path class="cls-3" d="M237,435.28q12.69-2.34,14.88-10.63c-2.32.29-3.8.43-4.45.43q-10.69.06-10.69-8.78a15.33,15.33,0,0,1,1.52-6.71q2.76-5.77,8.32-5.77,6,0,8.62,6.7a26.31,26.31,0,0,1,1.69,9.58q0,16.41-18.07,19.81Zm14.91-16.17q-.65-9.76-5.68-9.76-2.81,0-4,3.52a9.21,9.21,0,0,0-.53,3q0,4,5.77,4A15.34,15.34,0,0,0,251.86,419.11Z"/><path class="cls-3" d="M285.47,425a28,28,0,0,1-6.92-.74v-5.5a28.1,28.1,0,0,0,6.48.85c6.78,0,10.14-1.61,10.11-4.84q0-1.29-2.67-7.56l-3.55-8.32,4.84-2.22,5.62,14.24q3.44,8.73,6.92,8.73h.58c.39,0,.59.75.59,2.25v.56c0,1.72-.2,2.58-.59,2.58h-.58q-4.89,0-7.68-4.72Q294.75,425,285.47,425Z"/><path class="cls-3" d="M315.26,420.84q-3.6,4.19-8.2,4.19h-.62c-1.11,0-1.67-.86-1.67-2.58v-.56c0-1.5.56-2.25,1.67-2.25h.47c1.58,0,3.15-.92,4.69-2.76a19.17,19.17,0,0,0,2.23-4q3.84-8.5,10.05-8.53a9.19,9.19,0,0,1,7.61,3.49,12.52,12.52,0,0,1,2.79,8.11q0,4.54-2,6.86a8.4,8.4,0,0,1-6.74,2.84Q319.9,425.67,315.26,420.84Zm9.9-.41q4.11,0,4.11-4a8.36,8.36,0,0,0-.59-3.28,4.81,4.81,0,0,0-4.69-3.19q-4,0-6.18,6.06Q321.65,420.42,325.16,420.43Z"/></g></g><rect class="cls-4" y="617" width="1805.87" height="174.38"/><g id="خانه_و_دکور-2" data-name="خانه و دکور"><g class="cls-2"><path d="M687.22,717.32c0,1.46-.14,2.19-.49,2.19h-.52q-9.15,0-9.15-10.78v-24.2h4.33v24.15q0,6.26,4.89,6.26h.45c.33,0,.49.64.49,1.91Z"/><path d="M688.24,719.51h-1.89q-1.44,0-1.44-2.19v-.47c0-1.27.48-1.91,1.44-1.91h1.89a8.64,8.64,0,0,0,4.15-.8c1.41-.82,2.11-2.56,2.11-5.19a26.68,26.68,0,0,0-.92-6.58l4-1a24.77,24.77,0,0,1,1.22,7.53q0,6.09-3.48,8.72C693.68,718.87,691.31,719.51,688.24,719.51Zm.08,7.87,3.62-3.61,3.64,3.64L692,731Z"/><path d="M715.23,717.32c0,1.46-.15,2.19-.5,2.19h-.52q-9.15,0-9.15-10.78v-24.2h4.33v24.15q0,6.26,4.89,6.26h.45c.33,0,.5.64.5,1.91Z"/><path d="M716.24,719.51h-1.88c-1,0-1.45-.73-1.45-2.19v-.47c0-1.27.49-1.91,1.45-1.91h1.88a8.61,8.61,0,0,0,4.15-.8c1.41-.82,2.11-2.56,2.11-5.19a27.11,27.11,0,0,0-.91-6.58l4-1a25.06,25.06,0,0,1,1.21,7.53q0,6.09-3.48,8.72C721.68,718.87,719.31,719.51,716.24,719.51Zm.08,7.87,3.62-3.61,3.64,3.64L720,731Z"/><path d="M766.83,714.94c.35,0,.52.64.52,1.91v.47c0,1.46-.17,2.19-.52,2.19h-3.9a3.31,3.31,0,0,1,1.17,2.81q0,3.79-4.5,6.71a22,22,0,0,1-12.22,3.38q-15.54,0-15.51-14.46a24.12,24.12,0,0,1,1.79-9.2l4,1.62a21.94,21.94,0,0,0-1.37,7.6q0,10,11.11,10.06a19.07,19.07,0,0,0,7.85-1.61,9.39,9.39,0,0,0,4.08-3.13,3.07,3.07,0,0,0,.57-1.67c0-1.42-1.1-2.13-3.28-2.13h-3.8c-1-.1-1.62-.88-2-2.34a7.75,7.75,0,0,1-.24-1.54c0-.38.09-.6.27-.67Z"/><path d="M767.77,719.51h-1.24q-1.44,0-1.44-2.19v-.47c0-1.27.48-1.91,1.44-1.91h1.29q6.61,0,6.64-5.14l.12-25.27h4.3V709.8q0,5.15,5.37,5.14h.42c.39,0,.59.64.59,1.91v.47c0,1.46-.2,2.19-.59,2.19h-.38c-3.56,0-6.17-1.18-7.85-3.53Q774,719.51,767.77,719.51Z"/><path d="M806,705a9.8,9.8,0,0,0-6.11-2.56,8,8,0,0,0-2.85.44,5.86,5.86,0,0,0-2.19,1.35,6.08,6.08,0,0,0-1.32,1.94,6,6,0,0,0-.44,2.36c0,2.24,1.29,4,3.87,5.24a1.77,1.77,0,0,0,.65.25l10.83-2.76v4.57a73.47,73.47,0,0,1-21.76,3.68h-2.29q-1.44,0-1.44-2.19v-.47c0-1.27.48-1.91,1.44-1.91h7l-.1-.13a9.25,9.25,0,0,1-1.12-1.44,8.91,8.91,0,0,1-1.37-5.09,10.82,10.82,0,0,1,2.21-6.83,9.28,9.28,0,0,1,2.94-2.41,10.8,10.8,0,0,1,5.36-1.22,11.27,11.27,0,0,1,8.4,3.45Z"/><path d="M851.15,717.77l.08-33.24h4.27l0,32.27q0,15.63-13.82,15.63-14.38,0-14.36-13.94a26.51,26.51,0,0,1,2.06-10.06l3.95,1.61a23.1,23.1,0,0,0-1.66,8.53q0,9.46,10,9.46Q851.13,728,851.15,717.77Z"/><path d="M867.7,719.49a23.45,23.45,0,0,1-5.86-.63v-4.67a23.42,23.42,0,0,0,5.49.72q8.63,0,8.57-4.1,0-1.08-2.26-6.41l-3-7,4.1-1.89,4.77,12.08q2.91,7.4,5.87,7.4h.49c.33,0,.5.64.5,1.91v.47c0,1.46-.17,2.19-.5,2.19h-.49a7.24,7.24,0,0,1-6.51-4Q875.58,719.48,867.7,719.49Z"/><path d="M893,716a9,9,0,0,1-7,3.55h-.52c-1,0-1.42-.73-1.42-2.19v-.47c0-1.27.47-1.91,1.42-1.91h.4q2,0,4-2.34a16.16,16.16,0,0,0,1.89-3.38Q895,702,900.27,702a7.82,7.82,0,0,1,6.46,3,10.62,10.62,0,0,1,2.36,6.88q0,3.85-1.66,5.82a7.15,7.15,0,0,1-5.72,2.41A11.88,11.88,0,0,1,893,716Zm8.4-.35q3.46,0,3.47-3.4a7.14,7.14,0,0,0-.49-2.79,4.09,4.09,0,0,0-4-2.7q-3.42,0-5.24,5.14Q898.39,715.61,901.37,715.61Z"/><path d="M927.92,714.27a27.67,27.67,0,0,0,5.5.64q9.18,0,9.19-4.49,0-4.7-10.31-11.18l2.48-3.78q12.3,7.34,12.3,14.88,0,9.1-13.34,9.12a26.48,26.48,0,0,1-5.82-.6Z"/><path d="M962.06,718.19q-1.44,11.26-15.63,13.94l-1.54-3.92q13-2.44,13.07-12.48a20.26,20.26,0,0,0-1.94-8l4.13-1.49,1.54,4.82c.83,2.55,2.38,3.83,4.67,3.83h.7c.33,0,.49.6.49,1.79v.59c0,1.46-.16,2.19-.49,2.19h-.43C964.23,719.51,962.71,719.07,962.06,718.19Z"/><path d="M981.74,703.11a10.91,10.91,0,0,1,3.16,7.7q-.15,8.7-14.71,8.7h-3.56q-1.44,0-1.44-2.19v-.47c0-1.27.48-1.91,1.44-1.91h3.53q10.26,0,10.29-4.75,0-2.43-2.59-4.84-3.79-3.55-6.78-5.89-2.83-2.21-2.83-4.65,0-3.22,3.48-4.54l17.21-6.54v4.5l-16.69,6.21A113.82,113.82,0,0,1,981.74,703.11Zm7-22.74-19.43,7.5v-3.19l19.43-7.5Z"/><path d="M1041.82,714.94c.34,0,.52.64.52,1.91v.47c0,1.46-.18,2.19-.52,2.19h-3.9a3.33,3.33,0,0,1,1.16,2.81q0,3.79-4.49,6.71a22,22,0,0,1-12.23,3.38q-15.52,0-15.5-14.46a23.94,23.94,0,0,1,1.79-9.2l4,1.62a21.94,21.94,0,0,0-1.37,7.6q0,10,11.11,10.06a19.07,19.07,0,0,0,7.85-1.61,9.35,9.35,0,0,0,4.07-3.13,3.07,3.07,0,0,0,.57-1.67c0-1.42-1.09-2.13-3.28-2.13h-3.8c-1-.1-1.61-.88-2-2.34a7.23,7.23,0,0,1-.25-1.54c0-.38.09-.6.28-.67Z"/><path d="M1041.52,719.51q-1.44,0-1.44-2.19v-.47c0-1.27.48-1.91,1.44-1.91h1.19q6.63,0,6.63-6.24V684.53h4.33v24.32q0,10.67-11.08,10.66Z"/><path d="M1071.33,717.32c0,1.46-.15,2.19-.5,2.19h-.52q-9.13,0-9.14-10.78v-24.2h4.32v24.15q0,6.26,4.9,6.26h.44c.34,0,.5.64.5,1.91Z"/><path d="M1083.9,716.31q-4.32,3.2-12.39,3.2h-1q-1.44,0-1.44-2.19v-.47c0-1.27.48-1.91,1.44-1.91h1q5.76,0,7.72-.82a10,10,0,0,1-4-7.9q0-4.35,4.92-7.75a6.51,6.51,0,0,1,3.8-1.22,6.78,6.78,0,0,1,3.51.89q5.23,3.18,5.24,8.38c0,2.88-1.34,5.41-4,7.6a21,21,0,0,0,6.71.82h.79c.33,0,.5.64.5,1.91v.47c0,1.46-.17,2.19-.5,2.19h-.74Q1088.17,719.51,1083.9,716.31Zm-2.78-12.73a4.21,4.21,0,0,0-1.49,2.91,5.41,5.41,0,0,0,1.59,3.36c1.21,1.4,2.14,2.11,2.78,2.11s1.56-.71,2.79-2.11a5.44,5.44,0,0,0,1.59-3.33c0-1.21-.76-2.42-2.27-3.63a3.7,3.7,0,0,0-2.26-1C1083.19,701.85,1082.28,702.43,1081.12,703.58Zm-.86-14.39,3.61-3.61,3.64,3.64-3.61,3.62Z"/><path d="M1116.35,711.29a8.67,8.67,0,0,0,.15-1.74c0-.75,0-1.52-.1-2.31l-.15-1.49,4.1-.5.4,5.74c.18,2.62,1.48,3.92,3.9,3.92s3.45-1.77,3.45-5.31a23.53,23.53,0,0,0-1.09-6.34l4.25-1.14a23.87,23.87,0,0,1,1.22,7.3v.15q0,5.64-3,8.28a6.84,6.84,0,0,1-4.69,1.64q-4.61,0-6.06-3.48a8,8,0,0,1-6.84,3.5c-3.37,0-5.56-1.18-6.56-3.5-1.32,2.33-4,3.5-8,3.5h-1.39q-1.44,0-1.44-2.19v-.47c0-1.27.48-1.91,1.44-1.91h1.44c3.39,0,5.35-1.22,5.86-3.65a8.67,8.67,0,0,0,.15-1.74c0-.71,0-1.48-.1-2.31l-.15-1.49,4.1-.5.4,5.74q.27,3.94,4.32,4A4.09,4.09,0,0,0,1116.35,711.29Z"/><path d="M1158.46,696q11.61,8.5,11.61,14.93a8,8,0,0,1-4.1,7.23,9.73,9.73,0,0,1-5.22,1.27,11.25,11.25,0,0,1-5.14-1.07c-2.79-1.39-4.18-3.86-4.18-7.43,0-3.42,1.89-7,5.67-10.65l-1.12-1Zm1.94,7.53q-4.73,4.13-4.72,7.28,0,4.15,5,4.15c3.42,0,5.11-1.39,5.1-4.17Q1165.82,707.83,1160.4,703.51Z"/><path d="M1182.86,706.29a24.56,24.56,0,0,1,2.06,9.32q0,13.54-15.77,16.52l-1.54-3.92q13-2.44,13.07-12.48a20.43,20.43,0,0,0-1.94-8Zm-7.36-9,3.74-3.73,3.76,3.76-3.73,3.74Z"/><path d="M1202.19,719.51h-3.63q-9.09,0-9.09-7.4a13,13,0,0,1,1.29-5.69q2.34-4.9,7.06-4.9,7.77,0,8.67,13.44h2.56c.33,0,.5.71.5,2.12v.24c0,1.46-.17,2.19-.5,2.19l-2.86,0q-1.86,10.15-15,12.64l-1.54-3.92Q1200.4,726.21,1202.19,719.51Zm.15-4.57q-.57-8.7-4.82-8.72c-1.56,0-2.69,1-3.4,3a7.82,7.82,0,0,0-.45,2.53q0,3.21,4.64,3.21Z"/><path d="M1223.78,703.11a10.87,10.87,0,0,1,3.16,7.7q-.15,8.7-14.71,8.7h-3.55c-1,0-1.45-.73-1.45-2.19v-.47c0-1.27.49-1.91,1.45-1.91h3.52q10.26,0,10.29-4.75,0-2.43-2.58-4.84-3.81-3.55-6.79-5.89t-2.83-4.65q0-3.22,3.48-4.54l17.22-6.54v4.5l-16.7,6.21A113.82,113.82,0,0,1,1223.78,703.11Z"/><path class="cls-3" d="M1250.76,722.62h-4l15.11-39.28h3.93Z"/><path class="cls-3" d="M1290.79,696q11.6,8.5,11.6,14.93a8,8,0,0,1-4.1,7.23,9.7,9.7,0,0,1-5.21,1.27,11.32,11.32,0,0,1-5.15-1.07c-2.78-1.39-4.17-3.86-4.17-7.43,0-3.42,1.89-7,5.66-10.65l-1.11-1Zm1.94,7.53q-4.73,4.13-4.72,7.28,0,4.15,5,4.15t5.09-4.17Q1298.14,707.83,1292.73,703.51Z"/><path class="cls-3" d="M1318.54,717.32c0,1.46-.15,2.19-.5,2.19h-.52q-9.13,0-9.14-10.78v-24.2h4.32v24.15q0,6.26,4.9,6.26h.44c.34,0,.5.64.5,1.91Z"/><path class="cls-3" d="M1323.29,694.44a115.49,115.49,0,0,1,9.49,8.67,15.85,15.85,0,0,1,3.2,5.59q2.19,6.24,7.16,6.24h.4c.33,0,.49.64.49,1.91v.47c0,1.46-.16,2.19-.49,2.19h-.4a10.29,10.29,0,0,1-8.67-4.4q-2.84,4.39-13.24,4.4h-3.56q-1.44,0-1.44-2.19v-.47c0-1.27.48-1.91,1.44-1.91h3.53q10.26,0,10.29-4.75c0-1.62-.87-3.23-2.59-4.84q-3.8-3.55-6.78-5.89-2.83-2.21-2.83-4.65,0-3.22,3.48-4.54l17.21-6.54v4.5Zm16.51-14.07-19.43,7.5v-3.19l19.43-7.5Z"/><path class="cls-3" d="M1363.66,711.29a8.67,8.67,0,0,0,.15-1.74c0-.75,0-1.52-.1-2.31l-.15-1.49,4.1-.5.4,5.74c.18,2.62,1.48,3.92,3.9,3.92s3.45-1.77,3.45-5.31a23.53,23.53,0,0,0-1.09-6.34l4.25-1.14a23.87,23.87,0,0,1,1.22,7.3v.15q0,5.64-3,8.28a6.84,6.84,0,0,1-4.69,1.64q-4.61,0-6.06-3.48a8,8,0,0,1-6.84,3.5c-3.38,0-5.56-1.18-6.56-3.5-1.32,2.33-4,3.5-8,3.5h-1.39q-1.44,0-1.44-2.19v-.47c0-1.27.48-1.91,1.44-1.91h1.44c3.39,0,5.35-1.22,5.86-3.65a8.67,8.67,0,0,0,.15-1.74c0-.71,0-1.48-.1-2.31l-.15-1.49,4.1-.5.4,5.74q.27,3.94,4.32,4A4.09,4.09,0,0,0,1363.66,711.29Zm-6.33-15.16,3.51-3.53,3.56,3.56-3.53,3.54Zm4-6.67,3.54-3.53,3.56,3.56-3.54,3.53Zm4.09,6.67,3.54-3.53,3.56,3.56L1369,699.7Z"/><path class="cls-3" d="M1384.88,728.21q10.75-2,12.62-9c-2,.25-3.23.37-3.78.37q-9.06,0-9.07-7.45a13,13,0,0,1,1.3-5.69c1.55-3.27,3.91-4.9,7-4.9q5.12,0,7.31,5.69a22.26,22.26,0,0,1,1.44,8.13q0,13.9-15.33,16.79Zm12.64-13.72q-.54-8.26-4.82-8.27-2.39,0-3.4,3a8,8,0,0,0-.45,2.53c0,2.29,1.63,3.42,4.9,3.41A12.93,12.93,0,0,0,1397.52,714.49Z"/><path class="cls-3" d="M1420.58,718.19q-1.44,11.26-15.63,13.94l-1.54-3.92q13-2.44,13.07-12.48a20.26,20.26,0,0,0-1.94-8l4.13-1.49,1.54,4.82c.83,2.55,2.38,3.83,4.67,3.83h.7c.33,0,.49.6.49,1.79v.59c0,1.46-.16,2.19-.49,2.19h-.43C1422.75,719.51,1421.23,719.07,1420.58,718.19Z"/><path class="cls-3" d="M1436.41,710.27q-8.09,0-8.18-6.73a10.77,10.77,0,0,1,.2-2.07,11.67,11.67,0,0,1,2.82-6.06,6.93,6.93,0,0,1,5.16-2.14,6.53,6.53,0,0,1,3.65,1q4.15,2.69,5,10.39a30,30,0,0,1,.17,3.05q0,7-3.35,9.54-3,2.25-10.49,2.24h-6.26q-1.44,0-1.44-2.19v-.47c0-1.27.48-1.91,1.44-1.91h6.54q9.46,0,9.69-4.92a3.4,3.4,0,0,0,0-.45A16.66,16.66,0,0,1,1436.41,710.27Zm-4.3-24.53,3.62-3.61,3.64,3.64-3.61,3.61Zm.22,17.12c0,2.08,1.47,3.1,4.4,3.09a14.53,14.53,0,0,0,4.22-.65,16.29,16.29,0,0,0-1.26-4.87c-.81-1.79-2-2.68-3.46-2.68q-2.58,0-3.6,3.33A5.88,5.88,0,0,0,1432.33,702.86Z"/><path class="cls-3" d="M1466.1,722.62h-3.95l15.1-39.28h3.93Z"/><path class="cls-3" d="M1534.07,714.94c.35,0,.53.64.53,1.91v.47c0,1.46-.18,2.19-.53,2.19h-3.9a3.31,3.31,0,0,1,1.17,2.81q0,3.79-4.5,6.71a22,22,0,0,1-12.22,3.38q-15.52,0-15.5-14.46a23.94,23.94,0,0,1,1.79-9.2l3.95,1.62a21.71,21.71,0,0,0-1.37,7.6q0,10,11.11,10.06a19.11,19.11,0,0,0,7.85-1.61,9.35,9.35,0,0,0,4.07-3.13,3.07,3.07,0,0,0,.57-1.67c0-1.42-1.09-2.13-3.28-2.13H1520c-1-.1-1.61-.88-2-2.34a7.23,7.23,0,0,1-.25-1.54c0-.38.09-.6.27-.67Z"/><path class="cls-3" d="M1535,719.51h-1.24c-1,0-1.45-.73-1.45-2.19v-.47c0-1.27.49-1.91,1.45-1.91h1.29q6.6,0,6.63-5.14l.13-25.27h4.29V709.8q0,5.15,5.37,5.14h.42c.4,0,.6.64.6,1.91v.47q0,2.19-.6,2.19h-.37q-5.34,0-7.85-3.53Q1541.28,719.51,1535,719.51Z"/><path class="cls-3" d="M1591,709q0,10.53-17.94,10.53h-1.27q-9.18,0-11.35-3.6-2.64,3.6-8.4,3.6h-.42q-1.44,0-1.44-2.19v-.47c0-1.27.49-1.91,1.46-1.91h.4c3.68,0,5.72-1.09,6.14-3.28a19,19,0,0,0,.07-4.42l-.12-2,4.07-.49.45,5.76c.17,2.19.83,3.43,2,3.73q8.57-14.51,17-14.36a9.39,9.39,0,0,1,6.08,2A8.76,8.76,0,0,1,1591,709Zm-9.27-4.5q-5.65,0-12.35,10.46l3.58,0q13.5,0,13.52-5.71a4.44,4.44,0,0,0-1.94-3.88A5.06,5.06,0,0,0,1581.7,704.48Z"/><path class="cls-3" d="M1597.26,684.53h4.29v35h-4.29Z"/><path class="cls-3" d="M1621.78,709.42q0-7.3,12.89-11.25l-.22-1.14,4-.82,2,14.68q.57,4.05,4.62,4.05h.49c.34,0,.5.6.5,1.79v.59c0,1.46-.16,2.19-.5,2.19h-.59q-6.81,0-8-5.64a9.86,9.86,0,0,1-6.68,2.61q-5.53,0-7.73-3.63A6.58,6.58,0,0,1,1621.78,709.42Zm13.41-7.1q-9,3.23-9,6.81,0,3,4,3A7.29,7.29,0,0,0,1634,711q2.38-1.47,1.89-4.72l-.53-3.31-.12-.69Z"/><path class="cls-3" d="M1668.88,707.76q-.59-.15-5.36-2.09t-6.64-2a5.62,5.62,0,0,0-4.62,2.33l-.69.9-3.83-1.89.4-.7a9.82,9.82,0,0,1,8.77-5.16,18,18,0,0,1,7.55,2.13q7.76,3.78,12,3.95l0,4.33a14.51,14.51,0,0,0-5.14,1.71c.06,2.42,2.37,3.63,6.91,3.63h1.06c.35,0,.53.6.53,1.79v.59c0,1.46-.18,2.19-.53,2.19h-1.46q-9.08,0-9.86-6.66-1,.48-2,1-10.67,5.61-19.41,5.61h-1.19q-1.44,0-1.44-2.19v-.47c0-1.27.48-1.91,1.44-1.91h1.49q8.2,0,20.28-6.24Z"/><path class="cls-3" d="M1692.26,716.31q-4.32,3.2-12.39,3.2h-1q-1.44,0-1.44-2.19v-.47c0-1.27.48-1.91,1.44-1.91h1q5.76,0,7.72-.82a10,10,0,0,1-3.95-7.9q0-4.35,4.92-7.75a6.51,6.51,0,0,1,3.8-1.22,6.78,6.78,0,0,1,3.51.89q5.24,3.18,5.24,8.38c0,2.88-1.34,5.41-4,7.6a21,21,0,0,0,6.71.82h.79c.33,0,.5.64.5,1.91v.47c0,1.46-.17,2.19-.5,2.19h-.74Q1696.54,719.51,1692.26,716.31Zm-2.78-12.73a4.21,4.21,0,0,0-1.49,2.91,5.41,5.41,0,0,0,1.59,3.36c1.21,1.4,2.14,2.11,2.78,2.11s1.56-.71,2.79-2.11a5.39,5.39,0,0,0,1.59-3.33c0-1.21-.76-2.42-2.27-3.63a3.7,3.7,0,0,0-2.26-1C1691.55,701.85,1690.64,702.43,1689.48,703.58Zm-.86-14.39,3.61-3.61,3.64,3.64-3.61,3.62Z"/><path class="cls-3" d="M1743.59,709q0,10.53-17.93,10.53h-1.27q-9.2,0-11.36-3.6-2.62,3.6-8.39,3.6h-.43q-1.44,0-1.44-2.19v-.47c0-1.27.49-1.91,1.47-1.91h.4c3.67,0,5.72-1.09,6.13-3.28a18.87,18.87,0,0,0,.08-4.42l-.13-2,4.08-.49.45,5.76c.16,2.19.82,3.43,2,3.73q8.58-14.51,17-14.36a9.43,9.43,0,0,1,6.09,2A8.75,8.75,0,0,1,1743.59,709Zm-9.26-4.5q-5.67,0-12.35,10.46l3.58,0q13.49,0,13.51-5.71a4.42,4.42,0,0,0-1.94-3.88A5,5,0,0,0,1734.33,704.48Z"/></g></g></g></svg>