<svg xmlns="http://www.w3.org/2000/svg" viewBox="0 0 1920 1080"><defs><style>.cls-1{fill:#f3efee;}.cls-2{fill:#082b96;}.cls-3{isolation:isolate;}.cls-4{fill:#fff;}</style></defs><g id="Background"><rect class="cls-1" width="1920" height="1080"/></g><g id="Graphic"><rect class="cls-2" x="527.16" y="293.88" width="865.68" height="212.68" rx="106.34"/><rect class="cls-2" x="527.16" y="598.86" width="865.68" height="212.68" rx="106.34"/><g id="جستجو"><g class="cls-3"><path class="cls-4" d="M705.7,414.49a32.69,32.69,0,0,1-7.91-.82l-.49-.13V406l.82.2a29.82,29.82,0,0,0,7.09.95q10.72,0,10.67-4.76c0-.87-1-3.62-3-8.23L709,384.86l-.26-.59.59-.26,5.38-2.5.63-.29.26.66,6.3,15.94a28.42,28.42,0,0,0,3.71,7c1.22,1.54,2.37,2.31,3.44,2.31h.66a1.09,1.09,0,0,1,.54.14.85.85,0,0,1,.38.41c.08.18.16.35.21.5a3,3,0,0,1,.12.69c0,.31,0,.54,0,.71s0,.41,0,.74V411c0,.26,0,.53,0,.8s0,.55,0,.81a3.66,3.66,0,0,1-.1.75,2.59,2.59,0,0,1-.21.63,1,1,0,0,1-.38.41,1.15,1.15,0,0,1-.57.14H729a10,10,0,0,1-8.69-4.82Q715.71,414.49,705.7,414.49Z"/><path class="cls-4" d="M731.72,414.52h-2.49a2.16,2.16,0,0,1-1.92-1,4.61,4.61,0,0,1-.64-2.58v-.62a3.74,3.74,0,0,1,.66-2.32,2.22,2.22,0,0,1,1.9-.87h2.49a28.22,28.22,0,0,0,4.25-.26,8.38,8.38,0,0,0,2.55-.69q2.46-1.44,2.46-6.3a35.6,35.6,0,0,0-1.18-8.53l-.17-.62.62-.17,5.39-1.34.59-.17.19.59A34.11,34.11,0,0,1,748,399.82q0,8.37-4.86,12.05Q739.66,414.53,731.72,414.52Zm-3.23,10.15,4.77-4.77.25-.25.24.25,4.81,4.81.25.24-.25.25L733.79,430l-.25.25-.24-.25-4.81-4.81-.25-.24Zm10.67,0,4.78-4.77.24-.25.25.25,4.81,4.81.24.24-.24.25L744.46,430l-.24.25L744,430l-4.81-4.81-.24-.24Z"/><path class="cls-4" d="M776.51,413.41q-2.55,14.26-21,17.78l-.55.1-.2-.52-2-5.19-.3-.72.79-.16a29.94,29.94,0,0,0,9.35-3.17,14.65,14.65,0,0,0,5.55-5.27,14.43,14.43,0,0,0,1.83-7.38,26.37,26.37,0,0,0-2.49-10.24l-.3-.65.66-.23,5.45-1.94.65-.23.2.62,2,6.37a8.6,8.6,0,0,0,1.32,2.59,5,5,0,0,0,1.83,1.51,5.56,5.56,0,0,0,2.4.49h.92a1,1,0,0,1,.74.27,1.51,1.51,0,0,1,.39.78,6.56,6.56,0,0,1,.15.91c0,.25,0,.6,0,1.06v.95c0,.53,0,.93,0,1.22s-.07.62-.13,1a1.54,1.54,0,0,1-.4.87,1.06,1.06,0,0,1-.75.27h-.56A10.81,10.81,0,0,1,776.51,413.41Z"/><path class="cls-4" d="M782.12,414.52a2.16,2.16,0,0,1-1.92-1,4.69,4.69,0,0,1-.64-2.58v-.62a3.74,3.74,0,0,1,.66-2.32,2.24,2.24,0,0,1,1.9-.87h2q10.67,0,26.48-8.17l1.08-.55c-.63-.22-1.41-.52-2.34-.89s-2-.83-3.36-1.38c-4.2-1.68-7-2.52-8.5-2.52a6.8,6.8,0,0,0-5.61,2.82l-.92,1.18-.33.42-.46-.22-5-2.5-.66-.33.39-.59.53-.92a14.79,14.79,0,0,1,5.2-5.33,13.76,13.76,0,0,1,6.94-1.82q4.34,0,10.27,2.89,10.11,4.92,15.59,5.15l.62,0v.66l-.07,5.68v.59l-.59.06q-3.63.33-13.68,5.61-14.21,7.48-25.92,7.48ZM795,374.73l4.78-4.77.24-.25.25.25,4.81,4.81.24.24-.24.25L800.34,380l-.24.25-.25-.25L795,375.22l-.24-.24Z"/><path class="cls-4" d="M855.66,414.49a32.57,32.57,0,0,1-7.91-.82l-.49-.13V406l.82.2a29.81,29.81,0,0,0,7.08.95q10.74,0,10.67-4.76c0-.87-1-3.62-3-8.23l-3.94-9.29-.27-.59.6-.26,5.38-2.5.62-.29.26.66,6.3,15.94a28.76,28.76,0,0,0,3.71,7c1.23,1.54,2.37,2.31,3.45,2.31h.65a1.09,1.09,0,0,1,.54.14.8.8,0,0,1,.38.41,3.87,3.87,0,0,1,.21.5,2.54,2.54,0,0,1,.12.69c0,.31,0,.54.05.71s0,.41,0,.74V411c0,.26,0,.53,0,.8l0,.81a5.9,5.9,0,0,1-.1.75,3.09,3.09,0,0,1-.22.63,1,1,0,0,1-.37.41,1.21,1.21,0,0,1-.58.14H879a10,10,0,0,1-8.7-4.82Q865.67,414.49,855.66,414.49Z"/><path class="cls-4" d="M902.87,411v.2c0,.52,0,.93,0,1.21a8.89,8.89,0,0,1-.13,1,1.6,1.6,0,0,1-.39.86,1.09,1.09,0,0,1-.76.27h-.33q-6.27,0-9-4.13-3.42,4.14-9.65,4.13h-3.41a2.1,2.1,0,0,1-1.9-1,4.69,4.69,0,0,1-.63-2.58v-.62a3.87,3.87,0,0,1,.64-2.32,2.21,2.21,0,0,1,1.89-.87h3.25a7.82,7.82,0,0,0,4.26-.95,4.11,4.11,0,0,0,1.84-2.85,14.82,14.82,0,0,0,.2-2.59c0-1.08,0-2.09-.1-3.06l-.16-2.69-.07-.62.62-.07,5.42-.65.69-.07,0,.69.53,7.58a7.45,7.45,0,0,0,.49,2.36,4.43,4.43,0,0,0,1.08,1.64,4.22,4.22,0,0,0,1.69,1,8,8,0,0,0,2.38.31h.26a1.09,1.09,0,0,1,.76.27,1.47,1.47,0,0,1,.39.85,9.86,9.86,0,0,1,.13,1q0,.4,0,1.2V411Zm-20,13.69,4.77-4.77.25-.25.24.25,4.81,4.81.25.24-.25.25L888.12,430l-.25.25-.24-.25-4.81-4.81-.25-.24Z"/><path class="cls-4" d="M927.48,402.88a12.09,12.09,0,0,0,.17-2.17c0-1,0-2-.13-3l-.2-2,0-.62.62-.07,5.41-.65.69-.07,0,.69.53,7.58a5.27,5.27,0,0,0,1.26,3.46,4.37,4.37,0,0,0,3.24,1.1,3.5,3.5,0,0,0,2.14-.62,4,4,0,0,0,1.3-2,12.17,12.17,0,0,0,.46-3.69,30.93,30.93,0,0,0-1.41-8.21l-.2-.62.66-.2,5.61-1.47.59-.17.2.59a32.2,32.2,0,0,1,1.64,9.85v.19q0,7.75-4.2,11.42a9.75,9.75,0,0,1-6.66,2.33q-5.81,0-8.14-4a11.06,11.06,0,0,1-8.89,4.06q-6.3,0-8.73-4-3.06,4-10.53,4h-1.84a2.16,2.16,0,0,1-1.92-1,4.61,4.61,0,0,1-.64-2.58v-.62a3.74,3.74,0,0,1,.66-2.32,2.22,2.22,0,0,1,1.9-.87H903a11.53,11.53,0,0,0,3.64-.49,5.22,5.22,0,0,0,2.32-1.43,5,5,0,0,0,1.13-2.37,10.28,10.28,0,0,0,.2-2.17c0-.92,0-1.91-.14-3l-.19-2,0-.62.62-.07,5.41-.65.66-.07.06.69.53,7.58a5,5,0,0,0,1.38,3.48,5.28,5.28,0,0,0,3.67,1.11,6.3,6.3,0,0,0,2.56-.46,3.93,3.93,0,0,0,1.72-1.41A6.14,6.14,0,0,0,927.48,402.88Z"/><path class="cls-4" d="M973.78,400.55q0-10,16.93-15.33l-.16-.92-.13-.65.62-.13,5.35-1.09.65-.13.1.69,2.73,19.39a6.87,6.87,0,0,0,.88,2.71,4,4,0,0,0,1.79,1.58,6.93,6.93,0,0,0,2.77.5h.66a1,1,0,0,1,.75.27,1.32,1.32,0,0,1,.4.78c.06.35.11.66.13.91s0,.6,0,1.06v.95c0,.53,0,.93,0,1.22s-.07.62-.13,1a1.54,1.54,0,0,1-.4.87,1,1,0,0,1-.75.27h-.79q-8.85,0-11-6.92a14.65,14.65,0,0,1-4,2.18,13.33,13.33,0,0,1-4.43.74q-7.68,0-10.76-5.09A9.33,9.33,0,0,1,973.78,400.55Zm18-8.57a32.15,32.15,0,0,0-8.12,4.15c-1.78,1.39-2.68,2.73-2.68,4a3.94,3.94,0,0,0,.25,1.46,2.44,2.44,0,0,0,.8,1,4.13,4.13,0,0,0,1.45.64,9.19,9.19,0,0,0,2.1.21,9,9,0,0,0,4.72-1.44q2.79-1.71,2.2-5.58l-.69-4.37Z"/><path class="cls-4" d="M1008,414.52h-2.49a2.15,2.15,0,0,1-1.92-1,4.61,4.61,0,0,1-.64-2.58v-.62a3.74,3.74,0,0,1,.66-2.32,2.22,2.22,0,0,1,1.9-.87H1008a10.79,10.79,0,0,0,5.15-.95q2.46-1.44,2.46-6.3a35.1,35.1,0,0,0-1.18-8.53l-.16-.62.62-.17,5.38-1.34.59-.17.2.59a34.43,34.43,0,0,1,1.61,10.14q0,8.37-4.86,12.05Q1014.27,414.53,1008,414.52Zm-.14,10.15,4.78-4.77.24-.25.25.25,4.81,4.81.24.24-.24.25-4.78,4.77-.24.25-.25-.25-4.81-4.81-.25-.24Z"/><path class="cls-4" d="M1086.66,419q-5.09,10.29-19.2,10.3-10.47,0-15.83-5t-5.33-14.75a37.15,37.15,0,0,1,3-14.34l.23-.59.62.23,5.19,2.17.59.22-.23.6a32.33,32.33,0,0,0-2.37,11.64,17.89,17.89,0,0,0,.4,3.89,12.15,12.15,0,0,0,1.16,3.17,9.21,9.21,0,0,0,2,2.46,10.46,10.46,0,0,0,2.77,1.75,14.81,14.81,0,0,0,3.59,1.05,26.1,26.1,0,0,0,4.43.35,20.31,20.31,0,0,0,6.17-.85,10.38,10.38,0,0,0,7-6.94,20.72,20.72,0,0,0,.88-6.16,26.74,26.74,0,0,0-2.92-11.84l-.29-.66.68-.26,5.65-2,.62-.2.23.59c.5,1.32.95,2.62,1.35,3.93s.72,2.58,1,3.85.46,2.53.59,3.79a36.58,36.58,0,0,1,.2,3.76,23.73,23.73,0,0,1-.54,5.13A21.62,21.62,0,0,1,1086.66,419Zm-24.59-27.26,4.77-4.77.25-.25.25.25,4.81,4.8.24.25-.24.25-4.78,4.77-.24.25-.25-.25-4.81-4.81-.25-.24Z"/><path class="cls-4" d="M1094.79,406.29a35.27,35.27,0,0,0,7.12.85q11.49,0,11.49-5.28a7.56,7.56,0,0,0-1.41-4.05,23,23,0,0,0-4.42-4.76,63,63,0,0,0-7.49-5.4l-.56-.36.36-.56,3.31-5,.33-.52.53.33q16.56,9.87,16.57,20.21a11.56,11.56,0,0,1-2.1,7.07,12.33,12.33,0,0,1-6.15,4.22,32,32,0,0,1-10,1.41,36.06,36.06,0,0,1-7.81-.79l-.52-.13v-7.42Z"/><path class="cls-4" d="M1126.52,424.7a28.1,28.1,0,0,0,10.55-3.86,13,13,0,0,0,5.33-6.61l-1.82.18-1.33.13c-.37,0-.67,0-.91,0q-6.18,0-9.41-2.63t-3.23-7.87a17.76,17.76,0,0,1,1.77-7.81,12.62,12.62,0,0,1,4.11-5.1,9.92,9.92,0,0,1,5.8-1.72,11.29,11.29,0,0,1,2.3.22,9.87,9.87,0,0,1,2,.68,9.38,9.38,0,0,1,1.84,1.11,10.75,10.75,0,0,1,1.61,1.56,12.85,12.85,0,0,1,1.34,2,19.16,19.16,0,0,1,1.13,2.4,29.8,29.8,0,0,1,1.94,11q0,9.4-5.23,15.15t-15.54,7.68l-.56.1-.19-.52-2-5.19-.29-.72Zm16.15-17.92q-.8-9.81-5.68-9.81-2.68,0-3.87,3.51a12.68,12.68,0,0,0-.41,1.61,8,8,0,0,0-.15,1.51,3.26,3.26,0,0,0,1.36,2.9,8.11,8.11,0,0,0,4.45.94A16.72,16.72,0,0,0,1142.67,406.78Z"/><path class="cls-4" d="M1174.3,413.41q-2.57,14.26-21,17.78l-.56.1-.19-.52-2-5.19-.29-.72.78-.16a30,30,0,0,0,9.36-3.17,14.54,14.54,0,0,0,5.54-5.27,14.33,14.33,0,0,0,1.84-7.38,26.23,26.23,0,0,0-2.5-10.24L1165,398l.66-.23,5.44-1.94.66-.23.2.62,2,6.37a8.83,8.83,0,0,0,1.31,2.59,5.06,5.06,0,0,0,1.84,1.51,5.56,5.56,0,0,0,2.4.49h.91a1,1,0,0,1,.74.27,1.44,1.44,0,0,1,.4.78,8.2,8.2,0,0,1,.14.91,9.69,9.69,0,0,1,0,1.06v.95c0,.53,0,.93,0,1.22a10.16,10.16,0,0,1-.13,1,1.47,1.47,0,0,1-.39.87,1.09,1.09,0,0,1-.76.27h-.55A10.81,10.81,0,0,1,1174.3,413.41Zm-13-29.19,4.93-4.94.25-.25.26.25,5,5,.25.26-.25.25-4.94,4.94-.25.25-.25-.25-5-5-.26-.26Z"/><path class="cls-4" d="M1194.74,402.32c-3.7,0-6.52-.81-8.47-2.41s-2.94-4-3-7.14a17.5,17.5,0,0,1,4.17-11.19,9.77,9.77,0,0,1,7.28-3,9.31,9.31,0,0,1,5.18,1.44q5.74,3.72,6.93,14.21a39.91,39.91,0,0,1,.23,4.1,24.25,24.25,0,0,1-1.17,8.06,10.46,10.46,0,0,1-3.52,5.07q-4.11,3.09-14.24,3.08h-8.27a2.14,2.14,0,0,1-1.92-1,4.61,4.61,0,0,1-.64-2.58v-.62A3.8,3.8,0,0,1,1178,408a2.24,2.24,0,0,1,1.91-.87h8.63q11.58,0,12.1-5.57a18.42,18.42,0,0,1-1.9.41c-.63.09-1.28.17-1.94.23S1195.44,402.32,1194.74,402.32Zm-5.91-33.3,4.77-4.77.25-.25.24.25,4.81,4.81.25.24-.25.25-4.77,4.77-.25.25-.25-.25-4.8-4.81-.25-.24Zm1.19,22.86a3,3,0,0,0,1.21,2.6,7,7,0,0,0,3.94.82,18.68,18.68,0,0,0,4.85-.66,19.45,19.45,0,0,0-1.54-5.68q-1.44-3.18-4-3.18c-2,0-3.32,1.31-4.13,3.94A7.23,7.23,0,0,0,1190,391.88Z"/><path class="cls-4" d="M1214.69,368.32H1221v46.17h-7V368.32Z"/></g></g><g id="جستجو-2" data-name="جستجو"><g class="cls-3"><path class="cls-4" d="M864.45,705.53q0-10,16.93-15.32l-.16-.92-.13-.66.62-.13,5.35-1.08.65-.13.1.69,2.73,19.39a6.92,6.92,0,0,0,.88,2.71,4,4,0,0,0,1.79,1.57,6.72,6.72,0,0,0,2.77.51h.66a1.09,1.09,0,0,1,.75.26,1.38,1.38,0,0,1,.4.79c.06.35.11.65.13.9s0,.61,0,1.07v1c0,.53,0,.93,0,1.22s-.07.62-.13,1a1.48,1.48,0,0,1-.4.87,1,1,0,0,1-.75.28h-.79q-8.85,0-11-6.92a14.65,14.65,0,0,1-4,2.18,13.33,13.33,0,0,1-4.43.74q-7.68,0-10.77-5.09A9.34,9.34,0,0,1,864.45,705.53ZM882.4,697a32.15,32.15,0,0,0-8.12,4.15q-2.68,2.08-2.68,4a3.78,3.78,0,0,0,.25,1.46,2.41,2.41,0,0,0,.8,1,3.73,3.73,0,0,0,1.45.64,8.62,8.62,0,0,0,2.1.22,9,9,0,0,0,4.72-1.45c1.86-1.14,2.59-3,2.2-5.58l-.69-4.36Z"/><path class="cls-4" d="M929.65,707.57a7.83,7.83,0,0,0,.41,2,3.8,3.8,0,0,0,.87,1.42,3.32,3.32,0,0,0,1.38.83,6.37,6.37,0,0,0,1.9.26,3.37,3.37,0,0,0,2.95-1.4,7.68,7.68,0,0,0,1-4.48c0-1.7-.05-3.1-.16-4.2l-.16-2-.07-.65.66-.07,5.38-.62.69-.1.06.69.53,6.2a9,9,0,0,0,1.64,5,4.65,4.65,0,0,0,3.77,1.61H951a1.21,1.21,0,0,1,.58.13.87.87,0,0,1,.37.41c.09.19.16.36.22.51a2.9,2.9,0,0,1,.11.69c0,.31,0,.54,0,.7v1.6c0,.52,0,.92,0,1.19a7.76,7.76,0,0,1-.13,1,1.57,1.57,0,0,1-.4.85,1.09,1.09,0,0,1-.77.26h-.52q-6.1,0-8.27-3.9-2.62,3.9-8,3.9-5.55,0-8.07-4.1a11.07,11.07,0,0,1-8.92,4.1c-4.21,0-7.11-1.36-8.73-4q-3.06,4-10.54,4h-1.83a2.13,2.13,0,0,1-1.92-1,4.55,4.55,0,0,1-.64-2.57v-.63a3.79,3.79,0,0,1,.65-2.31,2.26,2.26,0,0,1,1.91-.87h1.9a9.43,9.43,0,0,0,5-1.07,4.63,4.63,0,0,0,2.17-3.23,10.52,10.52,0,0,0,.16-2.16c0-.46,0-.94,0-1.43s0-1-.1-1.56l-.19-2,0-.62.63-.07,5.41-.66.66-.06.06.69.53,7.58a6,6,0,0,0,.67,2.59,3.53,3.53,0,0,0,1.66,1.51,6.55,6.55,0,0,0,2.72.49,4.79,4.79,0,0,0,5.28-4.3,12.82,12.82,0,0,0,.13-2.16c0-.48,0-1,0-1.48s-.05-1-.1-1.51l-.19-2,0-.62L923,700l5.41-.66.69-.06,0,.69Z"/><path class="cls-4" d="M953,719.51h-2.49a2.15,2.15,0,0,1-1.92-1A4.55,4.55,0,0,1,948,716v-.63a3.73,3.73,0,0,1,.66-2.31,2.22,2.22,0,0,1,1.9-.87H953a29.6,29.6,0,0,0,4.25-.26,9,9,0,0,0,2.55-.69q2.46-1.44,2.46-6.3a35.6,35.6,0,0,0-1.18-8.53l-.17-.63.63-.16,5.38-1.34.59-.17.19.59a34.11,34.11,0,0,1,1.61,10.14q0,8.37-4.85,12C962.15,718.62,958.34,719.51,953,719.51Zm-3.23,10.15,4.77-4.77.25-.25.25.25,4.8,4.8.25.25-.25.25L955.11,735l-.25.25-.24-.25-4.81-4.81-.25-.24Zm10.67,0,4.78-4.77.24-.25.25.25,4.81,4.8.24.25-.24.25L965.78,735l-.24.25-.25-.25-4.81-4.81-.24-.24Z"/><path class="cls-4" d="M992.12,716c0,.39,0,.8,0,1.21a7.76,7.76,0,0,1-.13,1.15,1.72,1.72,0,0,1-.39.85,1,1,0,0,1-.79.33h-.69q-12.74,0-12.73-14.9v-31.3h7v31.24q0,7.61,5.81,7.61h.59a1.21,1.21,0,0,1,.56.13.94.94,0,0,1,.36.4c.09.19.16.37.23.52a3.69,3.69,0,0,1,.1.69l0,.69a3.88,3.88,0,0,1,0,.75Z"/><path class="cls-4" d="M1008.07,715.41q-5.91,4.1-16.37,4.1h-1.35a2.15,2.15,0,0,1-1.92-1,4.55,4.55,0,0,1-.64-2.57v-.63a3.73,3.73,0,0,1,.66-2.31,2.24,2.24,0,0,1,1.9-.87h1.35c1.35,0,2.59,0,3.72-.1s2.12-.15,3-.24a18.19,18.19,0,0,0,2.21-.38A13.47,13.47,0,0,1,996,701.3q0-6.07,6.76-10.76a9.71,9.71,0,0,1,10.37-.46q7.25,4.39,7.25,11.61a13,13,0,0,1-4.6,9.75,31.53,31.53,0,0,0,7.52.72h1.05a1.14,1.14,0,0,1,.57.13.89.89,0,0,1,.38.41,4.64,4.64,0,0,1,.21.51,2.8,2.8,0,0,1,.12.69c0,.31,0,.54,0,.7v1.6c0,.52,0,.92,0,1.19a6.34,6.34,0,0,1-.13,1,1.57,1.57,0,0,1-.39.85,1.1,1.1,0,0,1-.77.26h-1a35.8,35.8,0,0,1-5.94-.46,26.47,26.47,0,0,1-5.12-1.36A18.44,18.44,0,0,1,1008.07,715.41Zm-10.68-36.54,4.77-4.78.25-.24.24.24,4.81,4.81.25.25-.25.24-4.77,4.78-.25.24-.24-.24-4.81-4.81-.25-.25Zm7.46,19.41a6.46,6.46,0,0,0-1.34,1.74,3.62,3.62,0,0,0-.43,1.64,6.47,6.47,0,0,0,1.94,4,13.18,13.18,0,0,0,2,1.92,2.52,2.52,0,0,0,1.23.64,1.09,1.09,0,0,0,.44-.14,5.58,5.58,0,0,0,.68-.45,10.24,10.24,0,0,0,.93-.8c.36-.34.74-.73,1.13-1.17a6.45,6.45,0,0,0,1.94-4c0-1.37-.91-2.81-2.72-4.29a6.89,6.89,0,0,0-1.43-.92,2.81,2.81,0,0,0-1.17-.3Q1007,696.18,1004.85,698.28Zm3.21-19.41,4.77-4.78.25-.24.25.24,4.8,4.81.25.25-.25.24-4.77,4.78-.25.24-.24-.24-4.81-4.81-.25-.25Z"/><path class="cls-4" d="M1033.76,715.11q-4.1,4.41-9.22,4.4h-.69a2.1,2.1,0,0,1-1.9-1,4.72,4.72,0,0,1-.62-2.57v-.63A3.79,3.79,0,0,1,1022,713a2.17,2.17,0,0,1,1.88-.87h.53c1.57,0,3.15-.95,4.72-2.85a19.3,19.3,0,0,0,2.4-4.3q4.5-9.91,11.88-9.94a12.27,12.27,0,0,1,5.13,1,10.45,10.45,0,0,1,3.92,3.1,14.77,14.77,0,0,1,3.25,9.52q0,5.31-2.33,8.1a10.1,10.1,0,0,1-8.07,3.41Q1038.95,720.23,1033.76,715.11Zm11.06-2.06a4.16,4.16,0,0,0,3-.92,3.93,3.93,0,0,0,.94-2.92,8.56,8.56,0,0,0-.63-3.42,4.73,4.73,0,0,0-4.62-3.18q-3.94,0-6.2,6C1040,711.57,1042.48,713.05,1044.82,713.05Z"/></g></g></g></svg>