<svg xmlns="http://www.w3.org/2000/svg" viewBox="0 0 1920 1080"><defs><style>.cls-1{fill:#f3efee;}.cls-2{fill:#fff;}.cls-3{isolation:isolate;}.cls-4{fill:#9f9e9c;}</style></defs><g id="Background"><rect class="cls-1" width="1920" height="1080"/></g><g id="Graphic"><rect class="cls-2" x="202.9" y="456" width="1515.6" height="168" rx="84"/><g id="جستجو"><g class="cls-3"><path class="cls-4" d="M1216.1,551.25a4.61,4.61,0,0,1,.26,2v.62a6.51,6.51,0,0,1-.26,2.4h-5.84a5,5,0,0,1,1.8,4.2c0,3.12-1.9,5.94-5.71,8.43a23.94,23.94,0,0,1-3.51,1.94,27.68,27.68,0,0,1-3.84,1.37,32.32,32.32,0,0,1-4.1.82,35.26,35.26,0,0,1-4.43.27q-10.07,0-15.06-4.63t-4.92-14a31.14,31.14,0,0,1,2.17-11.52L1177,545a29,29,0,0,0-1.68,9.74q0,6.79,3.84,10.27t11.32,3.52a25.63,25.63,0,0,0,10.6-2.2,12.5,12.5,0,0,0,5.54-4.3,4.44,4.44,0,0,0,.86-2.46q0-2.9-3.87-3.28a7.85,7.85,0,0,0-1,0h-5c-1-.13-1.74-1-2.14-2.69a9.07,9.07,0,0,1-.32-1.93,2,2,0,0,1,0-.4Z"/><path class="cls-4" d="M1235.36,535.5a13.74,13.74,0,0,1,4,9.78q-.2,11-18.94,11h-4.69a1.17,1.17,0,0,1-1-.55,3.48,3.48,0,0,1-.36-1.85v-.62a2.66,2.66,0,0,1,.35-1.59,1.25,1.25,0,0,1,1.06-.45h4.66q14,0,14.08-6.76,0-3.4-3.58-6.76-5-4.68-9-7.81a12.26,12.26,0,0,1-2-1.9,7,7,0,0,1-1.17-1.92,5.24,5.24,0,0,1-.37-1.92q0-3.9,4.26-5.54l22.09-8.37v4.86l-21.76,8.1-.79.3.66.55A141.41,141.41,0,0,1,1235.36,535.5Zm9-30.11L1219.61,515v-3.66l24.79-9.58Z"/><path class="cls-4" d="M1251,550.47a35.35,35.35,0,0,0,6.76.75q12.63,0,12.63-6.43t-13.42-14.93l2.76-4.17q7.83,4.75,11.71,9.5t3.87,9.5a10.57,10.57,0,0,1-1.85,6.38,11.21,11.21,0,0,1-5.66,3.84,30.58,30.58,0,0,1-9.62,1.33,35.21,35.21,0,0,1-7.18-.69Z"/><path class="cls-4" d="M1284.55,511.09h4.69v45.18h-4.69Z"/><path class="cls-4" d="M1314.6,556.31h-4.79q-5.86,0-8.69-2.32t-2.82-7a16.74,16.74,0,0,1,1.64-7.32q3-6.16,8.89-6.17,9.81,0,11,17.3l0,.46h3.74a5.94,5.94,0,0,1,.26,2.29v.33a6.58,6.58,0,0,1-.26,2.4l-3.67,0h-.43l-.07.4q-2.36,12.93-19,16.24l-1.68-4.27q13.95-2.75,16.35-11.71l.16-.62Zm.69-5.58q-.78-11.94-6.82-12a4.71,4.71,0,0,0-2.14.49,4.81,4.81,0,0,0-1.65,1.45,8.92,8.92,0,0,0-1.2,2.33,10.57,10.57,0,0,0-.62,3.51,4.35,4.35,0,0,0,.78,2.64,4.52,4.52,0,0,0,2.27,1.57,11,11,0,0,0,3.57.51h5.85Z"/><path class="cls-4" d="M1325.69,556.31h-2.49a1.17,1.17,0,0,1-1-.55,3.48,3.48,0,0,1-.36-1.85v-.62a2.67,2.67,0,0,1,.34-1.59,1.27,1.27,0,0,1,1.07-.45h2.49A16.89,16.89,0,0,0,1329,551a8.19,8.19,0,0,0,2.42-.83,5.28,5.28,0,0,0,1.73-1.66,7.85,7.85,0,0,0,1-2.43,14,14,0,0,0,.32-3.2,35.49,35.49,0,0,0-1.11-8.33l4.43-1.12a32.68,32.68,0,0,1,1.44,9.35q0,7.82-4.43,11.13Q1331.6,556.31,1325.69,556.31Zm2.37-33.84,4.38-4.39,4.43,4.42-4.39,4.39Z"/><path class="cls-4" d="M1360.8,553.91v.56a4.07,4.07,0,0,0,0,.46,2.77,2.77,0,0,1,0,.42,1.42,1.42,0,0,1,0,.33c0,.11,0,.21-.07.3a.63.63,0,0,1,0,.19l-.07.14H1360q-11.58,0-11.58-13.75V511.09h4.72v31.4q0,8.76,7,8.76h.49a4.46,4.46,0,0,1,.26,2Z"/><path class="cls-4" d="M1360.18,556.31a1.17,1.17,0,0,1-1-.55,3.48,3.48,0,0,1-.36-1.85v-.62a2.67,2.67,0,0,1,.34-1.59,1.27,1.27,0,0,1,1.07-.45h2q10.95,0,27-8.3l2.43-1.25,1.12-.55-1.22-.33-2.2-.84-4.85-1.92q-3.29-1.3-5.46-2a13.1,13.1,0,0,0-3.47-.65,7.94,7.94,0,0,0-3.61.82,8.14,8.14,0,0,0-2.88,2.46l-.69.85-4.2-2.07.26-.45a18.62,18.62,0,0,1,1.74-2.37,13.15,13.15,0,0,1,2-1.85,10.78,10.78,0,0,1,2.23-1.33,12.16,12.16,0,0,1,2.48-.79,14.08,14.08,0,0,1,2.74-.26q4.07,0,9.74,2.76,9.92,4.85,15.59,5.25l-.07,4.82a11.22,11.22,0,0,0-1.85.41c-.69.21-1.45.47-2.28.79s-1.74.69-2.73,1.13-2,.93-3.16,1.48-2.34,1.17-3.63,1.87q-14,7.35-25.4,7.35Zm13.55-38.4,4.39-4.39,4.42,4.42-4.39,4.39Z"/><path class="cls-4" d="M1436.6,551.78q-5.41.06-5.41,15.29v1.75c0,.58,0,1.15,0,1.71s0,1.12,0,1.67,0,1.11.07,1.64,0,1.07.08,1.58.06,1,.1,1.54.07,1,.11,1.49h-4.92q-.33-5.48-.33-10.46,0-11.16,2.53-16.18,2.46-4.78,6.73-5.45l.26,0,.13-.26q4.7-11.88,12.53-11.91a10.52,10.52,0,0,1,4.56.88,10,10,0,0,1,3.52,2.76,13.43,13.43,0,0,1,3.05,8.86,12,12,0,0,1-2.17,7.41c-1.44,2-3.74,3-6.89,3q-3.28,0-7.78-2.62c-1.07-.64-2.21-1.26-3.41-1.87a7.46,7.46,0,0,0-1.47-.6A5.22,5.22,0,0,0,1436.6,551.78Zm14,.29a4.24,4.24,0,0,0,3.33-1.33,5.29,5.29,0,0,0,1.1-3.69c0-.3,0-.61,0-.93s-.08-.64-.13-1a6.69,6.69,0,0,0-.23-1c-.1-.31-.21-.62-.34-.93a5.73,5.73,0,0,0-5.65-3.9,6,6,0,0,0-4.44,1.87,15,15,0,0,0-3.27,5.57l-.1.36.27.2a34.48,34.48,0,0,0,3.7,2.59,19.59,19.59,0,0,0,3.17,1.56A7.67,7.67,0,0,0,1450.61,552.07Z"/><path class="cls-4" d="M1481.23,553.91v.56a2.68,2.68,0,0,0,0,.46,2.77,2.77,0,0,1,0,.42,1.42,1.42,0,0,1,0,.33c0,.11-.05.21-.07.3a.63.63,0,0,1,0,.19l-.07.14h-.59q-11.58,0-11.58-13.75V511.09h4.72v31.4q0,8.76,7,8.76h.49a4.41,4.41,0,0,1,.27,2Z"/><path class="cls-4" d="M1483.1,556.31h-2.5a1.17,1.17,0,0,1-1-.55,3.48,3.48,0,0,1-.36-1.85v-.62a2.66,2.66,0,0,1,.35-1.59,1.25,1.25,0,0,1,1.06-.45h2.5a16.79,16.79,0,0,0,3.28-.28,8.36,8.36,0,0,0,2.43-.83,5.34,5.34,0,0,0,1.72-1.66,7.62,7.62,0,0,0,1-2.43,13.93,13.93,0,0,0,.33-3.2,35.54,35.54,0,0,0-1.12-8.33l4.43-1.12a32.68,32.68,0,0,1,1.44,9.35q0,7.82-4.43,11.13Q1489,556.31,1483.1,556.31Zm2.36-33.84,4.39-4.39,4.42,4.42-4.39,4.39Z"/><path class="cls-4" d="M1522.73,568.64a32.65,32.65,0,0,0,8-2.56,17.52,17.52,0,0,0,5.51-4,13.63,13.63,0,0,0,3-5.55l.19-.72-.75.1-1.43.18-1.23.13-1,.1-.76.07h-.52c-3.9,0-6.78-.74-8.66-2.28s-2.83-3.9-2.83-7.07a16.89,16.89,0,0,1,1.64-7.32q3-6.16,8.9-6.17c4.28,0,7.35,2.4,9.18,7.19a29,29,0,0,1,1.87,10.57q0,8.93-4.84,14.3t-14.61,7.32Zm16.54-18.5q-.36-5.58-2-8.48a5.3,5.3,0,0,0-4.81-2.91q-3.51,0-5,4.27a11,11,0,0,0-.63,3.51,4.26,4.26,0,0,0,1.81,3.74,9,9,0,0,0,5.15,1.25,18.36,18.36,0,0,0,5.12-.86l.36-.13Z"/><path class="cls-4" d="M1579.3,551.78q-5.41.06-5.41,15.29v1.75c0,.58,0,1.15,0,1.71s0,1.12,0,1.67,0,1.11.07,1.64,0,1.07.08,1.58.07,1,.1,1.54.07,1,.11,1.49h-4.92q-.33-5.48-.33-10.46,0-11.16,2.53-16.18,2.46-4.78,6.73-5.45l.26,0,.13-.26q4.69-11.88,12.54-11.91a10.58,10.58,0,0,1,4.56.88,10,10,0,0,1,3.51,2.76,13.43,13.43,0,0,1,3,8.86,12,12,0,0,1-2.17,7.41c-1.44,2-3.74,3-6.89,3q-3.29,0-7.77-2.62c-1.08-.64-2.21-1.26-3.42-1.87a7.46,7.46,0,0,0-1.47-.6A5.16,5.16,0,0,0,1579.3,551.78Zm14,.29a4.24,4.24,0,0,0,3.33-1.33,5.29,5.29,0,0,0,1.1-3.69,7.44,7.44,0,0,0,0-.93c0-.32-.07-.64-.13-1a6.69,6.69,0,0,0-.23-1c-.1-.31-.21-.62-.34-.93a5.73,5.73,0,0,0-5.65-3.9,6,6,0,0,0-4.44,1.87,15,15,0,0,0-3.27,5.57l-.1.36.27.2a34.48,34.48,0,0,0,3.7,2.59,19.59,19.59,0,0,0,3.17,1.56A7.71,7.71,0,0,0,1593.31,552.07Z"/><path class="cls-4" d="M1623.93,553.91v.56a2.68,2.68,0,0,0,0,.46,2.77,2.77,0,0,1,0,.42,1.42,1.42,0,0,1,0,.33c0,.11,0,.21-.07.3a.63.63,0,0,1,0,.19l-.07.14h-.59q-11.58,0-11.58-13.75V511.09h4.73v31.4q0,8.76,7,8.76h.49a4.41,4.41,0,0,1,.27,2Z"/><path class="cls-4" d="M1625.8,556.31h-2.5a1.17,1.17,0,0,1-1-.55,3.48,3.48,0,0,1-.36-1.85v-.62a2.66,2.66,0,0,1,.35-1.59,1.25,1.25,0,0,1,1.06-.45h2.5a16.79,16.79,0,0,0,3.28-.28,8.36,8.36,0,0,0,2.43-.83,5.25,5.25,0,0,0,1.72-1.66,7.62,7.62,0,0,0,1-2.43,13.93,13.93,0,0,0,.33-3.2,35,35,0,0,0-1.12-8.33l4.43-1.12a32.71,32.71,0,0,1,1.45,9.35q0,7.82-4.43,11.13Q1631.7,556.31,1625.8,556.31Zm2.36-33.84,4.39-4.39,4.42,4.42-4.39,4.39Z"/></g></g></g></svg>