<svg xmlns="http://www.w3.org/2000/svg" viewBox="0 0 1920 1080"><defs><style>.cls-1{fill:#fff;}.cls-2{fill:none;}.cls-3{fill:#082b96;}.cls-4{fill:#4672e2;}</style></defs><g id="Graphic"><rect class="cls-1" x="449.61" y="420" width="1008.14" height="240" rx="119.26"/><rect class="cls-2" x="1265.61" y="468" width="144" height="144"/><g id="Group_31" data-name="Group 31"><path class="cls-3" d="M1337.61,600a48.06,48.06,0,0,1-48-48V504h96v48A48.05,48.05,0,0,1,1337.61,600Zm-36-84v36a36,36,0,0,0,72,0V516Z"/><path class="cls-3" d="M1361.61,528h-12V504a12,12,0,0,0-24,0v24h-12V504a24,24,0,0,1,48,0Z"/></g><rect class="cls-2" x="1265.61" y="468" width="144" height="144"/><path class="cls-3" d="M592.16,554.78H563.75l-5.48,14.86H547l25.31-67.21h12.19l25.17,67.21H597.55Zm-24.94-9.32h21.61L578.14,516Z"/><path class="cls-3" d="M645.91,569.64H618.54V502.43h27.37q15.29,0,24.28,8.85t9,23.82q0,15.51-9.09,25T645.91,569.64ZM667.8,535.1q0-10.5-5.95-16.74t-15.94-6.23H629.79v47.81h16.12q10,0,15.94-6.8T667.8,535.1Z"/><path class="cls-3" d="M718.65,569.64H691.28V502.43h27.37q15.29,0,24.28,8.85t9,23.82q0,15.51-9.09,25T718.65,569.64Zm21.89-34.54q0-10.5-5.95-16.74t-15.94-6.23H702.53v47.81h16.12q10,0,15.94-6.8T740.54,535.1Z"/><path class="cls-3" d="M775.35,502.43h52.12v9.7H807.13v57.51H795.79V512.13H775.35Z"/><path class="cls-3" d="M895.15,536q0,15.71-8.86,25.27t-23.53,9.52q-14.76,0-23.58-9.52T830.42,536q0-15.64,8.85-25.21t23.49-9.52q14.72,0,23.53,9.52T895.15,536ZM847.5,517.71Q842,524.42,842,536t5.55,18.36q5.55,6.72,15.26,6.72t15.37-6.72q5.58-6.74,5.58-18.36t-5.58-18.32Q872.57,511,862.76,511T847.5,517.71Z"/><path class="cls-3" d="M956,561q7.41,0,12.07-3.8T975,545.64L986,547q-2.54,11.21-10.48,17.51t-19.57,6.31q-14.62,0-23.2-9.43T924.14,536q0-15.84,8.67-25.21,8.69-9.52,23.21-9.52,12.38,0,20.29,6.4T986.44,526l-11.3,1.64Q971.3,511.1,956,511.1q-9.57,0-15,6.65T935.58,536q0,11.64,5.44,18.31T956,561Z"/><path class="cls-3" d="M1034.19,554.78h-28.4l-5.49,14.86H989l25.31-67.21h12.19l25.17,67.21h-12.1Zm-24.93-9.32h21.61L1020.18,516Z"/><path class="cls-3" d="M1110.78,552.53l1,17.11h-11.25l-1-17.11q-.29-4.35-3.07-6.39t-8.7-2h-15.94v25.54h-11.25V502.43h27.94q10.5,0,16.78,5.29a16.5,16.5,0,0,1,6.47,13.46,19.22,19.22,0,0,1-2.83,10.28,20,20,0,0,1-8,7.29Q1110.22,541.81,1110.78,552.53Zm-10.46-30.23a9.32,9.32,0,0,0-3.37-7.55q-3.37-2.81-9.28-2.81h-15.85v22.88h15.85a12.41,12.41,0,0,0,9.18-3.47A12.23,12.23,0,0,0,1100.32,522.3Z"/><path class="cls-3" d="M1117.56,502.43h52.13v9.7h-20.35v57.51H1138V512.13h-20.44Z"/><rect class="cls-4" x="-0.59" y="419" width="1920.56" height="2"/><rect class="cls-4" x="-0.59" y="467" width="1920.56" height="2"/><rect class="cls-4" x="-0.59" y="611" width="1920.56" height="2"/><rect class="cls-4" x="1409.61" y="562.9" width="510.36" height="2"/><rect class="cls-4" x="1409.61" y="514.9" width="510.36" height="2"/><rect class="cls-4" x="-0.59" y="563.1" width="546.34" height="2"/><rect class="cls-4" x="-0.59" y="515.1" width="546.35" height="2"/><rect class="cls-4" x="1216.65" y="516" width="2" height="95.93" transform="translate(650.25 1780.01) rotate(-89.84)"/><rect class="cls-4" x="1216.65" y="468" width="2" height="95.93" transform="translate(698.24 1732.14) rotate(-89.84)"/><rect class="cls-4" x="-0.59" y="659" width="1920.56" height="2"/><rect class="cls-4" x="688.75" y="0.01" width="2" height="467.99"/><rect class="cls-4" x="640.75" y="0.01" width="2" height="467.99"/><rect class="cls-4" x="496.75" width="2" height="1079.98"/><rect class="cls-4" x="544.75" y="0.01" width="2" height="1079.98"/><rect class="cls-4" x="592.75" y="0.01" width="2" height="467.99"/><rect class="cls-4" x="448.75" width="2" height="1079.98"/><rect class="cls-4" x="928.9" y="0.01" width="2" height="467.99"/><rect class="cls-4" x="880.9" y="0.01" width="2" height="467.99"/><rect class="cls-4" x="736.9" width="2" height="467.99"/><rect class="cls-4" x="784.9" y="0.01" width="2" height="467.99"/><rect class="cls-4" x="832.9" y="0.01" width="2" height="467.99"/><rect class="cls-4" x="1168.61" y="0.02" width="2" height="1079.98"/><rect class="cls-4" x="1120.61" y="0.01" width="2" height="467.99"/><rect class="cls-4" x="976.61" width="2" height="467.99"/><rect class="cls-4" x="1024.61" y="0.01" width="2" height="467.99"/><rect class="cls-4" x="1072.61" y="0.01" width="2" height="467.99"/><rect class="cls-4" x="688.75" y="611.7" width="2" height="467.99"/><rect class="cls-4" x="640.75" y="611.7" width="2" height="467.99"/><rect class="cls-4" x="592.75" y="611.7" width="2" height="467.99"/><rect class="cls-4" x="928.9" y="611.7" width="2" height="467.99"/><rect class="cls-4" x="880.9" y="611.7" width="2" height="467.99"/><rect class="cls-4" x="736.9" y="611.69" width="2" height="467.99"/><rect class="cls-4" x="784.9" y="611.69" width="2" height="467.99"/><rect class="cls-4" x="832.9" y="611.7" width="2" height="467.99"/><rect class="cls-4" x="1120.61" y="611.7" width="2" height="467.99"/><rect class="cls-4" x="976.61" y="611.69" width="2" height="467.99"/><rect class="cls-4" x="1024.61" y="611.69" width="2" height="467.99"/><rect class="cls-4" x="1072.61" y="611.7" width="2" height="467.99"/><rect class="cls-4" x="1408.76" y="0.02" width="2" height="1079.98"/><rect class="cls-4" x="1360.76" y="612" width="2" height="467.99"/><rect class="cls-4" x="1456.75" y="0.02" width="2" height="1079.98"/><rect class="cls-4" x="1216.76" width="2" height="1079.98"/><rect class="cls-4" x="1264.76" y="0.01" width="2" height="1079.98"/><rect class="cls-4" x="1312.76" y="612" width="2" height="467.99"/><rect class="cls-4" x="1360.76" y="0.01" width="2" height="467.99"/><rect class="cls-4" x="1312.76" y="0.01" width="2" height="467.99"/><rect class="cls-1" x="341.86" y="421" width="2" height="238"/><rect class="cls-1" x="336.36" y="420" width="13" height="2"/><rect class="cls-1" x="336.36" y="658" width="13" height="2"/><rect class="cls-1" x="1579.95" y="468.77" width="1.55" height="142.45"/><rect class="cls-1" x="1575.69" y="468" width="10.07" height="1.55"/><rect class="cls-1" x="1575.69" y="610.45" width="10.07" height="1.55"/><rect class="cls-1" x="450.61" y="773.97" width="94.08" height="2"/><rect class="cls-1" x="543.69" y="768.47" width="2" height="13"/><rect class="cls-1" x="449.61" y="768.47" width="2" height="13"/><path class="cls-1" d="M169.31,552.31H144.84V547.8L167.58,517h8.08v30h6.9v5.36h-6.9V563.9h-6.35Zm0-28.56L152.17,547h17.14Z"/><path class="cls-1" d="M188.81,540.44q0-11.22,4.61-17.77a15.09,15.09,0,0,1,12.93-6.47q8.37,0,13,6.47T224,540.44q0,11.28-4.68,17.76a15,15,0,0,1-13,6.51q-8.35,0-12.94-6.41T188.81,540.44Zm25.86,14q2.93-4.92,2.93-14t-2.91-14a9.19,9.19,0,0,0-8.34-4.91q-5.28,0-8.23,5t-3,13.86q0,9.09,2.89,14a9.48,9.48,0,0,0,16.62,0Z"/><path class="cls-1" d="M245.6,564.71A13.79,13.79,0,0,1,234.68,560q-4-4.71-4-12.59,0-8.05,4.09-12.93a13.49,13.49,0,0,1,10.86-4.9A12.76,12.76,0,0,1,256.46,535V517h6V563.9H256.6v-5A12.63,12.63,0,0,1,245.6,564.71Zm-8.86-17.56q0,5.65,2.63,9a8.52,8.52,0,0,0,7.08,3.37,9,9,0,0,0,7.38-3.38,16,16,0,0,0,0-18,9,9,0,0,0-7.35-3.44,8.51,8.51,0,0,0-7.08,3.39Q236.75,541.45,236.74,547.15Z"/><path class="cls-1" d="M289.15,529.58A13.8,13.8,0,0,1,300,534.35q4.09,4.68,4.09,12.53,0,8.05-4.09,12.93a13.52,13.52,0,0,1-10.89,4.9,12.76,12.76,0,0,1-10.86-5.43v17h-6V530.4h5.82v5A12.63,12.63,0,0,1,289.15,529.58ZM298,547.15q0-5.7-2.63-9.08a8.52,8.52,0,0,0-7.09-3.39,9,9,0,0,0-7.36,3.42,14,14,0,0,0-2.75,9,13.77,13.77,0,0,0,2.79,9,9,9,0,0,0,7.32,3.41,8.53,8.53,0,0,0,7.09-3.37Q298,552.81,298,547.15Z"/><path class="cls-1" d="M1650.72,529.45a7.41,7.41,0,0,0-2.24-5.65,8.34,8.34,0,0,0-5.94-2.11q-5,0-7.57,3.23t-2.41,9.43l-6.15-.81q-.48-8.06,4-12.66t12.1-4.68q6.81,0,10.67,3.66a12.67,12.67,0,0,1,4,9.59,16.9,16.9,0,0,1-2.38,8.44,40.63,40.63,0,0,1-7.72,9.12l-12.53,11.52h23.85v5.37h-32.16v-5.5l16.88-15.48a29.32,29.32,0,0,0,5.9-6.9A13.21,13.21,0,0,0,1650.72,529.45Z"/><path class="cls-1" d="M1687,552.31h-24.47V547.8L1685.27,517h8.08v30h6.9v5.36h-6.9V563.9H1687Zm0-28.56L1669.86,547H1687Z"/><path class="cls-1" d="M1720.5,564.71a13.81,13.81,0,0,1-10.93-4.71q-4-4.71-4-12.59,0-8.05,4.09-12.93a13.49,13.49,0,0,1,10.86-4.9,12.76,12.76,0,0,1,10.86,5.43V517h6V563.9h-5.83v-5A12.6,12.6,0,0,1,1720.5,564.71Zm-8.87-17.56q0,5.65,2.64,9a8.5,8.5,0,0,0,7.08,3.37,9,9,0,0,0,7.38-3.38q2.76-3.39,2.76-9a13.88,13.88,0,0,0-2.79-9,9,9,0,0,0-7.35-3.44,8.49,8.49,0,0,0-7.08,3.39Q1711.63,541.45,1711.63,547.15Z"/><path class="cls-1" d="M1764,529.58a13.83,13.83,0,0,1,10.9,4.77Q1779,539,1779,546.88q0,8.05-4.09,12.93a13.53,13.53,0,0,1-10.9,4.9,12.76,12.76,0,0,1-10.86-5.43v17h-6V530.4h5.82v5A12.61,12.61,0,0,1,1764,529.58Zm8.84,17.57q0-5.7-2.64-9.08a8.49,8.49,0,0,0-7.08-3.39,9,9,0,0,0-7.36,3.42,14,14,0,0,0-2.75,9,13.82,13.82,0,0,0,2.78,9,9,9,0,0,0,7.33,3.41,8.5,8.5,0,0,0,7.08-3.37Q1772.88,552.81,1772.88,547.15Z"/><path class="cls-1" d="M453.83,876.45H424.75v-5.37H436.2V841a10.15,10.15,0,0,1-5.36,1.25h-6.29v-5.27h5.89a5.49,5.49,0,0,0,4.49-1.78q1.47-1.78,1.47-5.61h6.18v41.54h11.25Z"/><path class="cls-1" d="M476.6,846.22q7,0,11.13,4.16t4.22,11a15.55,15.55,0,0,1-16,15.84q-8.58,0-13-5.86t-4.42-17.27q0-12.1,4.68-18.75a15.09,15.09,0,0,1,13.09-6.64,15.49,15.49,0,0,1,9.73,3,14.24,14.24,0,0,1,5.19,8.49l-6.35,1.08a11.41,11.41,0,0,0-3.27-5.65,8.48,8.48,0,0,0-5.53-1.72q-5.4,0-8.38,5.08t-3,13.34a12.81,12.81,0,0,1,5-4.56A14.87,14.87,0,0,1,476.6,846.22Zm-11.12,15.64a10.15,10.15,0,0,0,2.83,7.39,10.46,10.46,0,0,0,14.51,0,10.1,10.1,0,0,0,2.88-7.46c0-3.29-.88-5.86-2.65-7.69a9.72,9.72,0,0,0-7.33-2.75,9.82,9.82,0,0,0-7.39,2.95A10.45,10.45,0,0,0,465.48,861.86Z"/><path class="cls-1" d="M513.31,877.27a13.81,13.81,0,0,1-10.93-4.71q-4-4.71-4-12.6,0-8,4.09-12.92a13.5,13.5,0,0,1,10.86-4.91,12.76,12.76,0,0,1,10.86,5.43v-18h6v46.91H524.3v-5A12.61,12.61,0,0,1,513.31,877.27Zm-8.86-17.57c0,3.77.87,6.78,2.63,9a8.54,8.54,0,0,0,7.08,3.37,9,9,0,0,0,7.38-3.39q2.76-3.39,2.76-9a13.88,13.88,0,0,0-2.79-9,9,9,0,0,0-7.35-3.44,8.5,8.5,0,0,0-7.08,3.39C505.32,852.88,504.45,855.9,504.45,859.7Z"/><path class="cls-1" d="M556.85,842.13a13.79,13.79,0,0,1,10.9,4.78q4.08,4.68,4.09,12.53,0,8-4.09,12.92a13.54,13.54,0,0,1-10.9,4.91A12.76,12.76,0,0,1,546,871.84v17h-6V843h5.82v5A12.6,12.6,0,0,1,556.85,842.13Zm8.84,17.57c0-3.8-.88-6.82-2.64-9.08a8.49,8.49,0,0,0-7.08-3.39,9,9,0,0,0-7.36,3.42,14,14,0,0,0-2.75,9.05,13.81,13.81,0,0,0,2.78,9A9,9,0,0,0,556,872.1a8.52,8.52,0,0,0,7.08-3.37Q565.69,865.36,565.69,859.7Z"/><rect class="cls-1" x="1170.72" y="773.97" width="94.08" height="2"/><rect class="cls-1" x="1263.8" y="768.47" width="2" height="13"/><rect class="cls-1" x="1169.72" y="768.47" width="2" height="13"/><path class="cls-1" d="M1173.94,876.45h-29.08v-5.37h11.45V841a10.19,10.19,0,0,1-5.37,1.25h-6.28v-5.27h5.89a5.47,5.47,0,0,0,4.48-1.78q1.47-1.78,1.47-5.61h6.19v41.54h11.25Z"/><path class="cls-1" d="M1196.71,846.22q7,0,11.12,4.16t4.22,11a15.34,15.34,0,0,1-4.58,11.32,15.51,15.51,0,0,1-11.45,4.52q-8.57,0-13-5.86t-4.41-17.27q0-12.1,4.68-18.75a15.08,15.08,0,0,1,13.08-6.64,15.47,15.47,0,0,1,9.73,3,14.24,14.24,0,0,1,5.19,8.49l-6.35,1.08a11.27,11.27,0,0,0-3.27-5.65,8.46,8.46,0,0,0-5.53-1.72q-5.4,0-8.37,5.08t-3,13.34a12.71,12.71,0,0,1,5-4.56A14.94,14.94,0,0,1,1196.71,846.22Zm-11.12,15.64a10.15,10.15,0,0,0,2.83,7.39,10.45,10.45,0,0,0,14.5,0,10.1,10.1,0,0,0,2.88-7.46c0-3.29-.88-5.86-2.65-7.69a9.7,9.7,0,0,0-7.32-2.75,9.84,9.84,0,0,0-7.4,2.95A10.44,10.44,0,0,0,1185.59,861.86Z"/><path class="cls-1" d="M1233.42,877.27a13.81,13.81,0,0,1-10.93-4.71q-4-4.71-4-12.6,0-8,4.09-12.92a13.51,13.51,0,0,1,10.87-4.91,12.76,12.76,0,0,1,10.86,5.43v-18h6v46.91h-5.82v-5A12.62,12.62,0,0,1,1233.42,877.27Zm-8.87-17.57q0,5.65,2.63,9a8.55,8.55,0,0,0,7.09,3.37,9,9,0,0,0,7.37-3.39q2.77-3.39,2.77-9a13.83,13.83,0,0,0-2.8-9,9,9,0,0,0-7.34-3.44,8.52,8.52,0,0,0-7.09,3.39C1225.43,852.88,1224.55,855.9,1224.55,859.7Z"/><path class="cls-1" d="M1277,842.13a13.78,13.78,0,0,1,10.89,4.78q4.1,4.68,4.09,12.53,0,8-4.09,12.92a13.53,13.53,0,0,1-10.89,4.91,12.76,12.76,0,0,1-10.86-5.43v17h-6V843H1266v5A12.59,12.59,0,0,1,1277,842.13Zm8.83,17.57c0-3.8-.88-6.82-2.63-9.08a8.51,8.51,0,0,0-7.08-3.39,9,9,0,0,0-7.37,3.42,14,14,0,0,0-2.74,9.05,13.75,13.75,0,0,0,2.78,9,9,9,0,0,0,7.33,3.42,8.55,8.55,0,0,0,7.08-3.37Q1285.79,865.36,1285.79,859.7Z"/><rect class="cls-1" x="1410.76" y="773.97" width="46.04" height="2"/><rect class="cls-1" x="1455.8" y="768.47" width="2" height="13"/><rect class="cls-1" x="1409.76" y="768.47" width="2" height="13"/><path class="cls-1" d="M1403,851.72a11.42,11.42,0,0,1,5.89,4.4,13.41,13.41,0,0,1-2.62,17.25q-4.57,3.9-12.1,3.9c-5.11,0-9.19-1.28-12.27-3.83a12.62,12.62,0,0,1-4.55-10.11,12,12,0,0,1,2.11-7,12.83,12.83,0,0,1,6-4.6,10.63,10.63,0,0,1-5.1-4,11.39,11.39,0,0,1-1.77-6.39,11.21,11.21,0,0,1,4.29-9.13q4.24-3.47,11.32-3.47,7.23,0,11.38,3.39a12.26,12.26,0,0,1,2.42,15.5A10.92,10.92,0,0,1,1403,851.72Zm1.54,11.38a8,8,0,0,0-2.81-6.41,11.23,11.23,0,0,0-7.56-2.42,11.38,11.38,0,0,0-7.64,2.42,8,8,0,0,0-2.83,6.41,8.31,8.31,0,0,0,2.8,6.64c1.86,1.62,4.42,2.42,7.67,2.42a11.1,11.1,0,0,0,7.6-2.43A8.38,8.38,0,0,0,1404.58,863.1Zm-19.76-21.62a7.39,7.39,0,0,0,2.55,5.77,9.88,9.88,0,0,0,6.84,2.27,9.7,9.7,0,0,0,6.74-2.29,7.39,7.39,0,0,0,2.55-5.75,6.92,6.92,0,0,0-2.5-5.66,10.33,10.33,0,0,0-6.79-2.06,10.51,10.51,0,0,0-6.89,2.06A6.92,6.92,0,0,0,1384.82,841.48Z"/><path class="cls-1" d="M1432.58,877.27a13.79,13.79,0,0,1-10.92-4.71q-4-4.71-4-12.6,0-8,4.09-12.92a13.5,13.5,0,0,1,10.86-4.91,12.76,12.76,0,0,1,10.86,5.43v-18h6v46.91h-5.82v-5A12.64,12.64,0,0,1,1432.58,877.27Zm-8.86-17.57q0,5.65,2.63,9a8.55,8.55,0,0,0,7.08,3.37,9,9,0,0,0,7.38-3.39,16,16,0,0,0,0-18,9,9,0,0,0-7.35-3.44,8.51,8.51,0,0,0-7.08,3.39C1424.6,852.88,1423.72,855.9,1423.72,859.7Z"/><path class="cls-1" d="M1476.13,842.13a13.78,13.78,0,0,1,10.89,4.78q4.1,4.68,4.09,12.53,0,8-4.09,12.92a13.53,13.53,0,0,1-10.89,4.91,12.76,12.76,0,0,1-10.86-5.43v17h-6V843h5.82v5A12.61,12.61,0,0,1,1476.13,842.13ZM1485,859.7c0-3.8-.88-6.82-2.63-9.08a8.52,8.52,0,0,0-7.09-3.39,9,9,0,0,0-7.36,3.42,14,14,0,0,0-2.75,9.05,13.75,13.75,0,0,0,2.79,9,9,9,0,0,0,7.32,3.42,8.55,8.55,0,0,0,7.09-3.37Q1485,865.36,1485,859.7Z"/></g></svg>