<svg xmlns="http://www.w3.org/2000/svg" viewBox="0 0 1920 1080"><defs><style>.cls-1{fill:#4672e2;}.cls-2{fill:#fff;}</style></defs><g id="Graphic"><rect class="cls-1" y="167.5" width="1920" height="1"/><rect class="cls-1" y="23.5" width="1920" height="1"/><rect class="cls-1" y="47.5" width="1920" height="1"/><rect class="cls-1" y="71.5" width="1920" height="1"/><rect class="cls-1" y="95.5" width="1920" height="1"/><rect class="cls-1" y="119.5" width="1920" height="1"/><rect class="cls-1" y="143.5" width="1920" height="1"/><rect class="cls-1" y="191.5" width="1920" height="1"/><rect class="cls-1" y="215.5" width="1920" height="1"/><rect class="cls-1" y="239.5" width="1920" height="1"/><rect class="cls-1" y="263.5" width="1920" height="1"/><rect class="cls-1" y="287.5" width="1920" height="1"/><rect class="cls-1" y="311.5" width="1920" height="1"/><rect class="cls-1" y="335.5" width="1920" height="1"/><rect class="cls-1" y="359.5" width="1920" height="1"/><rect class="cls-1" y="383.5" width="1920" height="1"/><rect class="cls-1" y="407.5" width="1920" height="1"/><rect class="cls-1" y="431.5" width="1920" height="1"/><rect class="cls-1" y="455.5" width="1920" height="1"/><rect class="cls-1" y="479.5" width="1920" height="1"/><rect class="cls-1" y="503.5" width="1920" height="1"/><rect class="cls-1" y="527.5" width="1920" height="1"/><rect class="cls-1" y="551.5" width="1920" height="1"/><rect class="cls-1" y="575.5" width="1920" height="1"/><rect class="cls-1" y="599.5" width="1920" height="1"/><rect class="cls-1" y="623.5" width="1920" height="1"/><rect class="cls-1" y="647.5" width="1920" height="1"/><rect class="cls-1" y="671.5" width="1920" height="1"/><rect class="cls-1" y="695.5" width="1920" height="1"/><rect class="cls-1" y="719.5" width="1920" height="1"/><rect class="cls-1" y="743.5" width="1920" height="1"/><rect class="cls-1" y="767.5" width="1920" height="1"/><rect class="cls-1" y="791.5" width="1920" height="1"/><rect class="cls-1" y="815.5" width="1920" height="1"/><rect class="cls-1" y="839.5" width="1920" height="1"/><rect class="cls-1" y="863.5" width="1920" height="1"/><rect class="cls-1" y="887.5" width="1920" height="1"/><rect class="cls-1" y="911.5" width="1920" height="1"/><rect class="cls-1" y="935.5" width="1920" height="1"/><rect class="cls-1" y="959.5" width="1920" height="1"/><rect class="cls-1" y="983.5" width="1920" height="1"/><rect class="cls-1" y="1007.5" width="1920" height="1"/><rect class="cls-1" y="1031.5" width="1920" height="1"/><rect class="cls-1" y="1055.5" width="1920" height="1"/><rect class="cls-1" x="167.63" width="0.75" height="1080"/><rect class="cls-1" x="23.63" width="0.75" height="1080"/><rect class="cls-1" x="47.63" width="0.75" height="1080"/><rect class="cls-1" x="71.63" width="0.75" height="1080"/><rect class="cls-1" x="95.63" width="0.75" height="1080"/><rect class="cls-1" x="119.63" width="0.75" height="1080"/><rect class="cls-1" x="143.63" width="0.75" height="1080"/><rect class="cls-1" x="191.63" width="0.75" height="1080"/><rect class="cls-1" x="215.63" width="0.75" height="1080"/><rect class="cls-1" x="239.63" width="0.75" height="1080"/><rect class="cls-1" x="263.63" width="0.75" height="1080"/><rect class="cls-1" x="287.63" width="0.75" height="1080"/><rect class="cls-1" x="311.63" width="0.75" height="1080"/><rect class="cls-1" x="335.63" width="0.75" height="1080"/><rect class="cls-1" x="359.63" width="0.75" height="1080"/><rect class="cls-1" x="383.63" width="0.75" height="1080"/><rect class="cls-1" x="407.63" width="0.75" height="1080"/><rect class="cls-1" x="431.63" width="0.75" height="1080"/><rect class="cls-1" x="455.63" width="0.75" height="1080"/><rect class="cls-1" x="479.63" width="0.75" height="1080"/><rect class="cls-1" x="503.63" width="0.75" height="1080"/><rect class="cls-1" x="527.63" width="0.75" height="1080"/><rect class="cls-1" x="551.63" width="0.75" height="1080"/><rect class="cls-1" x="575.63" width="0.75" height="1080"/><rect class="cls-1" x="599.63" width="0.75" height="1080"/><rect class="cls-1" x="623.63" width="0.75" height="1080"/><rect class="cls-1" x="647.63" width="0.75" height="1080"/><rect class="cls-1" x="671.63" width="0.75" height="1080"/><rect class="cls-1" x="695.63" width="0.75" height="1080"/><rect class="cls-1" x="719.63" width="0.75" height="1080"/><rect class="cls-1" x="743.63" width="0.75" height="1080"/><rect class="cls-1" x="767.63" width="0.75" height="1080"/><rect class="cls-1" x="791.63" width="0.75" height="1080"/><rect class="cls-1" x="815.63" width="0.75" height="1080"/><rect class="cls-1" x="839.63" width="0.75" height="1080"/><rect class="cls-1" x="863.63" width="0.75" height="1080"/><rect class="cls-1" x="887.63" width="0.75" height="1080"/><rect class="cls-1" x="911.63" width="0.75" height="1080"/><rect class="cls-1" x="935.63" width="0.75" height="1080"/><rect class="cls-1" x="959.63" width="0.75" height="1080"/><rect class="cls-1" x="983.63" width="0.75" height="1080"/><rect class="cls-1" x="1007.63" width="0.75" height="1080"/><rect class="cls-1" x="1031.63" width="0.75" height="1080"/><rect class="cls-1" x="1055.63" width="0.75" height="1080"/><rect class="cls-1" x="1079.63" width="0.75" height="1080"/><rect class="cls-1" x="1247.63" width="0.75" height="1080"/><rect class="cls-1" x="1103.63" width="0.75" height="1080"/><rect class="cls-1" x="1127.63" width="0.75" height="1080"/><rect class="cls-1" x="1151.63" width="0.75" height="1080"/><rect class="cls-1" x="1175.63" width="0.75" height="1080"/><rect class="cls-1" x="1199.63" width="0.75" height="1080"/><rect class="cls-1" x="1223.63" width="0.75" height="1080"/><rect class="cls-1" x="1271.63" width="0.75" height="1080"/><rect class="cls-1" x="1295.63" width="0.75" height="1080"/><rect class="cls-1" x="1319.63" width="0.75" height="1080"/><rect class="cls-1" x="1343.63" width="0.75" height="1080"/><rect class="cls-1" x="1367.63" width="0.75" height="1080"/><rect class="cls-1" x="1391.63" width="0.75" height="1080"/><rect class="cls-1" x="1415.63" width="0.75" height="1080"/><rect class="cls-1" x="1439.63" width="0.75" height="1080"/><rect class="cls-1" x="1463.63" width="0.75" height="1080"/><rect class="cls-1" x="1487.63" width="0.75" height="1080"/><rect class="cls-1" x="1511.63" width="0.75" height="1080"/><rect class="cls-1" x="1535.63" width="0.75" height="1080"/><rect class="cls-1" x="1559.63" width="0.75" height="1080"/><rect class="cls-1" x="1583.63" width="0.75" height="1080"/><rect class="cls-1" x="1607.63" width="0.75" height="1080"/><rect class="cls-1" x="1631.63" width="0.75" height="1080"/><rect class="cls-1" x="1655.63" width="0.75" height="1080"/><rect class="cls-1" x="1679.63" width="0.75" height="1080"/><rect class="cls-1" x="1703.63" width="0.75" height="1080"/><rect class="cls-1" x="1727.63" width="0.75" height="1080"/><rect class="cls-1" x="1751.63" width="0.75" height="1080"/><rect class="cls-1" x="1775.63" width="0.75" height="1080"/><rect class="cls-1" x="1799.63" width="0.75" height="1080"/><rect class="cls-1" x="1823.63" width="0.75" height="1080"/><rect class="cls-1" x="1847.63" width="0.75" height="1080"/><rect class="cls-1" x="1871.63" width="0.75" height="1080"/><rect class="cls-1" x="1895.63" width="0.75" height="1080"/><rect class="cls-2" x="144" y="144" width="768" height="168" rx="84"/><path class="cls-2" d="M828,312.5H228a84.5,84.5,0,0,1,0-169H828a84.5,84.5,0,0,1,0,169Zm-600-168a83.5,83.5,0,0,0,0,167H828a83.5,83.5,0,0,0,0-167Z"/><rect class="cls-2" x="1032" y="144" width="744" height="792"/><path class="cls-2" d="M1776.5,936.5h-745v-793h745Zm-744-1h743v-791h-743Z"/><rect class="cls-2" x="144" y="480" width="456" height="456" rx="228"/><path class="cls-2" d="M372,936.5a228.51,228.51,0,1,1,161.57-66.93A227,227,0,0,1,372,936.5Zm0-456a227.49,227.49,0,1,0,160.87,66.63A226,226,0,0,0,372,480.5Z"/></g></svg>