<svg xmlns="http://www.w3.org/2000/svg" viewBox="0 0 1920 1080"><defs><style>.cls-1{fill:#f3efee;}</style></defs><g id="Background"><rect class="cls-1" width="1920" height="1080"/></g><g id="Graphic"><path d="M947.53,651.21l-64.84-64.84a91.7,91.7,0,1,1,129.69-129.69h0a91.82,91.82,0,0,1,0,129.69Zm0-216.39a86.7,86.7,0,0,0-61.3,148l61.3,61.31,61.31-61.31a86.71,86.71,0,0,0-61.31-148Z"/><path d="M947.53,549.51a28,28,0,1,1,19.79-8.19h0A27.8,27.8,0,0,1,947.53,549.51Zm0-51a23,23,0,1,0,16.26,39.23h0a23,23,0,0,0-16.26-39.23Z"/><circle id="Ellipse_6" data-name="Ellipse 6" cx="414.6" cy="469.91" r="50.97"/><path d="M414.6,533.63a63.72,63.72,0,1,1,63.72-63.72A63.78,63.78,0,0,1,414.6,533.63Zm0-101.95a38.23,38.23,0,1,0,38.23,38.23A38.27,38.27,0,0,0,414.6,431.68Z"/><path d="M516.55,661.06H491.06a76.46,76.46,0,1,0-152.92,0H312.66a101.95,101.95,0,1,1,203.89,0Z"/><g id="Group_32" data-name="Group 32"><path id="Path_65" data-name="Path 65" d="M1576.7,457.29a61.17,61.17,0,0,0-86.48,0l-10.29,10.28-10.3-10.28a61.17,61.17,0,0,0-86.48,86.47l96.78,96.85,96.77-96.85A61.16,61.16,0,0,0,1576.7,457.29Z"/><path d="M1479.93,658.64l-106-106.1a73.91,73.91,0,0,1,104.49-104.49l1.52,1.51,1.29-1.29a74,74,0,0,1,104.49,0h0a74,74,0,0,1,0,104.49Zm-87.64-123.76,87.64,87.7,87.75-87.82a48.4,48.4,0,0,0-68.45-68.46l-19.3,19.28-19.19-19.16a48.42,48.42,0,0,0-68.45,68.46Z"/></g></g></svg>