<svg id="Layer_1" data-name="Layer 1" xmlns="http://www.w3.org/2000/svg" viewBox="0 0 24 24"><defs><style>.cls-1{fill:#fff;}</style></defs><g id="Group_32" data-name="Group 32"><path class="cls-1" d="M12,21.21,3.7,12.9a5.8,5.8,0,0,1,4-9.81,5.68,5.68,0,0,1,4.14,1.59L12,4.8l.1-.1a5.81,5.81,0,0,1,8.2,0h0a5.81,5.81,0,0,1,0,8.2ZM7.89,5.09h-.1A3.73,3.73,0,0,0,5.13,6.27a3.8,3.8,0,0,0,0,5.23L12,18.38l6.89-6.9a3.8,3.8,0,0,0,0-5.37h0a3.81,3.81,0,0,0-5.38,0L12,7.63,10.49,6.11A3.76,3.76,0,0,0,7.89,5.09Z"/></g></svg>