<svg id="Layer_1" data-name="Layer 1" xmlns="http://www.w3.org/2000/svg" viewBox="0 0 24 24"><defs><style>.cls-1{fill:#fff;}</style></defs><path class="cls-1" d="M22.5,19h-3V17h1V13.5a3,3,0,0,0-3-3h-2V18h-2V8.5h4a5,5,0,0,1,5,5Z"/><path class="cls-1" d="M18,20.5A2.5,2.5,0,1,1,20.5,18,2.5,2.5,0,0,1,18,20.5Zm0-3a.5.5,0,1,0,.5.5A.5.5,0,0,0,18,17.5Z"/><path class="cls-1" d="M6,20.5A2.5,2.5,0,1,1,8.5,18,2.5,2.5,0,0,1,6,20.5Zm0-3a.5.5,0,1,0,.5.5A.5.5,0,0,0,6,17.5Z"/><polygon class="cls-1" points="15.5 19 7.5 19 7.5 17 13.5 17 13.5 7.5 3.5 7.5 3.5 17 4.5 17 4.5 19 1.5 19 1.5 5.5 15.5 5.5 15.5 19"/><rect class="cls-1" x="14" y="17" width="2.5" height="2"/></svg>