<svg id="Layer_1" data-name="Layer 1" xmlns="http://www.w3.org/2000/svg" viewBox="0 0 24 24"><defs><style>.cls-1{fill:#fff;}</style></defs><rect class="cls-1" x="11" y="3" width="2" height="11"/><path class="cls-1" d="M12,19a3,3,0,1,1,3-3A3,3,0,0,1,12,19Zm0-4a1,1,0,1,0,1,1A1,1,0,0,0,12,15Z"/><rect class="cls-1" x="11" y="18" width="2" height="3"/><rect class="cls-1" x="17" y="10" width="2" height="11"/><path class="cls-1" d="M18,11a3,3,0,1,1,3-3A3,3,0,0,1,18,11Zm0-4a1,1,0,1,0,1,1A1,1,0,0,0,18,7Z"/><rect class="cls-1" x="17" y="3" width="2" height="3"/><rect class="cls-1" x="5" y="10" width="2" height="11"/><path class="cls-1" d="M6,11A3,3,0,1,1,9,8,3,3,0,0,1,6,11ZM6,7A1,1,0,1,0,7,8,1,1,0,0,0,6,7Z"/><rect class="cls-1" x="5" y="3" width="2" height="3"/></svg>