<svg id="Layer_1" data-name="Layer 1" xmlns="http://www.w3.org/2000/svg" viewBox="0 0 24 24"><defs><style>.cls-1{fill:#fff;}</style></defs><path class="cls-1" d="M18,17.5H15.5v-7H18a3.5,3.5,0,0,1,0,7Zm-.5-2H18a1.5,1.5,0,0,0,0-3h-.5Z"/><path class="cls-1" d="M8.5,17.5H6a3.5,3.5,0,0,1,0-7H8.5ZM6,12.5a1.5,1.5,0,0,0,0,3h.5v-3Z"/><path class="cls-1" d="M19.5,11.5h-2V10a5.5,5.5,0,0,0-11,0v1.5h-2V10a7.5,7.5,0,0,1,15,0Z"/><path class="cls-1" d="M12,21.5H9.5a4,4,0,0,1-4-4v-1h2v1a2,2,0,0,0,2,2H12Z"/></svg>