<svg xmlns="http://www.w3.org/2000/svg" viewBox="0 0 1080 1080"><defs><style>.cls-1{fill:#e2e0de;}.cls-2{fill:#fff;}</style></defs><g id="Background"><rect class="cls-1" width="1080" height="1080"/></g><g id="Graphic"><path class="cls-2" d="M616.69,86.34h19.42A357.49,357.49,0,0,1,993.6,443.83V1080a0,0,0,0,1,0,0H259.2a0,0,0,0,1,0,0V443.83A357.49,357.49,0,0,1,616.69,86.34Z"/><path d="M100.29,372.41H86.23V352H100v2.92H89.65v5.73h9.19v2.82H89.65v6h10.64Z"/><path d="M107.34,372.41h-3.26V352h3.76l9.1,14.39V352h3.28v20.43h-3l-9.9-15.61Z"/><path d="M133.92,372.77a9.57,9.57,0,0,1-7.21-2.89,12,12,0,0,1,.06-15.32,9.71,9.71,0,0,1,7.41-2.92,10,10,0,0,1,5.93,1.69,8.15,8.15,0,0,1,3.17,4.78l-3.36.58a5.49,5.49,0,0,0-5.74-4.1,6.14,6.14,0,0,0-4.91,2.05,8.36,8.36,0,0,0-1.77,5.64,8,8,0,0,0,1.84,5.46,6.21,6.21,0,0,0,4.87,2.08,6.57,6.57,0,0,0,4.4-1.44,4.56,4.56,0,0,0,1.72-3.62v-.7h-5.89v-2.7h9v11.05h-3.09v-2.53a7,7,0,0,1-2.73,2.14A8.94,8.94,0,0,1,133.92,372.77Z"/><path d="M160.58,372.41H147.66V352h3.42v17.48h9.5Z"/><path d="M166.94,372.41h-3.41V352h3.41Z"/><path d="M178.81,372.77a9.35,9.35,0,0,1-6-1.78,6.1,6.1,0,0,1-2.28-4.9l3.42-.39a4.24,4.24,0,0,0,1.34,3.19,5.18,5.18,0,0,0,3.53,1.1,4.39,4.39,0,0,0,2.9-.88,2.88,2.88,0,0,0,1.06-2.35,2.38,2.38,0,0,0-.73-1.87,5.35,5.35,0,0,0-2.53-1l-2.69-.56q-5.69-1.17-5.69-5.87a5.19,5.19,0,0,1,2-4.1,7.66,7.66,0,0,1,5.2-1.7,8.18,8.18,0,0,1,5.29,1.6,6.06,6.06,0,0,1,2.26,4.36l-3.47.37c-.26-2.38-1.63-3.56-4.11-3.56a4.33,4.33,0,0,0-2.74.78,2.54,2.54,0,0,0-1,2.11,2.58,2.58,0,0,0,.7,1.93,4.14,4.14,0,0,0,2.24,1l3.13.61a8,8,0,0,1,4.26,1.94,5,5,0,0,1,1.4,3.69A5.82,5.82,0,0,1,184.2,371,7.94,7.94,0,0,1,178.81,372.77Z"/><path d="M193.38,372.41H190V352h3.41v8.49h9.45V352h3.42v20.43h-3.42v-9h-9.45Z"/><path d="M220.82,372.41H217.4V352h3.42v8.49h9.45V352h3.42v20.43h-3.42v-9h-9.45Z"/><path d="M248,357.6a2.88,2.88,0,0,0-.87-2.19,3.17,3.17,0,0,0-2.29-.82,3.51,3.51,0,0,0-3,1.33,5.81,5.81,0,0,0-.86,3.86l-3.31-.45a7,7,0,0,1,1.8-5.62,7.24,7.24,0,0,1,5.42-2.07,6.85,6.85,0,0,1,4.78,1.64,5.41,5.41,0,0,1,1.79,4.22,7.37,7.37,0,0,1-1.07,3.74,16.82,16.82,0,0,1-3.39,3.94l-4.88,4.34h10v2.89H237.57v-2.86l7.27-6.5a11.66,11.66,0,0,0,2.41-2.77A5.36,5.36,0,0,0,248,357.6Z"/><path d="M262.09,365.87h-7.65v-2.82h7.65Z"/><path d="M269.76,372.41h-3.42V352h3.42v8.49h9.44V352h3.42v20.43H279.2v-9h-9.44Z"/><path d="M301.51,372.41H287.45V352h13.77v2.92H290.87v5.73h9.19v2.82h-9.19v6h10.64Z"/><path d="M317,367.9h-8.63l-1.67,4.51h-3.43L311,352h3.71l7.65,20.43h-3.68Zm-7.58-2.84H316l-3.25-9Z"/><path d="M333.5,372.41h-8.32V352h8.32a10,10,0,0,1,7.38,2.7,9.57,9.57,0,0,1,2.74,7.23,10.52,10.52,0,0,1-2.77,7.61A9.68,9.68,0,0,1,333.5,372.41Zm6.66-10.5a7.08,7.08,0,0,0-1.81-5.08,6.37,6.37,0,0,0-4.85-1.9h-4.9v14.53h4.9a6.11,6.11,0,0,0,4.85-2.06A8.07,8.07,0,0,0,340.16,361.91Z"/><path d="M350.86,372.41h-3.42V352h3.42Z"/><path d="M359,372.41h-3.27V352h3.77l9.1,14.39V352h3.27v20.43h-3L359,356.8Z"/><path d="M385.53,372.77a9.55,9.55,0,0,1-7.21-2.89,12,12,0,0,1,.06-15.32,9.71,9.71,0,0,1,7.41-2.92,10,10,0,0,1,5.93,1.69,8.15,8.15,0,0,1,3.17,4.78l-3.36.58a5.5,5.5,0,0,0-5.74-4.1,6.14,6.14,0,0,0-4.91,2.05,8.36,8.36,0,0,0-1.78,5.64,8,8,0,0,0,1.84,5.46,6.24,6.24,0,0,0,4.87,2.08,6.58,6.58,0,0,0,4.41-1.44,4.59,4.59,0,0,0,1.72-3.62v-.7H386v-2.7h9v11.05H392v-2.53a7,7,0,0,1-2.74,2.14A8.9,8.9,0,0,1,385.53,372.77Z"/><path d="M95.1,407.78a9.53,9.53,0,0,1-7.2-2.89,12,12,0,0,1,0-15.32,9.69,9.69,0,0,1,7.41-2.92,9.94,9.94,0,0,1,5.93,1.69,8.07,8.07,0,0,1,3.17,4.78l-3.36.58a5.49,5.49,0,0,0-5.74-4.1,6.15,6.15,0,0,0-4.91,2,8.36,8.36,0,0,0-1.77,5.64,8,8,0,0,0,1.84,5.46,6.21,6.21,0,0,0,4.87,2.08,6.57,6.57,0,0,0,4.4-1.44,4.56,4.56,0,0,0,1.72-3.62v-.7H95.62v-2.7h9v11.05h-3.09v-2.53A7,7,0,0,1,98.81,407,8.94,8.94,0,0,1,95.1,407.78Z"/><path d="M127.46,397.21a10.84,10.84,0,0,1-2.7,7.68,10.3,10.3,0,0,1-14.31,0,12.31,12.31,0,0,1,0-15.35,10.26,10.26,0,0,1,14.28,0A10.73,10.73,0,0,1,127.46,397.21ZM113,391.64a10,10,0,0,0,0,11.15,6.32,6.32,0,0,0,9.3,0,10,10,0,0,0,0-11.15,6.32,6.32,0,0,0-9.3,0Z"/><path d="M145.32,407.42H131.26V387H145v2.92H134.68v5.73h9.19v2.82h-9.19v6h10.64Z"/><path d="M156.15,407.78a9.38,9.38,0,0,1-6-1.78,6.1,6.1,0,0,1-2.28-4.9l3.42-.39a4.28,4.28,0,0,0,1.34,3.19,5.23,5.23,0,0,0,3.54,1.1,4.36,4.36,0,0,0,2.89-.88,2.89,2.89,0,0,0,1.07-2.35,2.41,2.41,0,0,0-.73-1.87,5.4,5.4,0,0,0-2.54-1l-2.69-.56q-5.68-1.17-5.68-5.87a5.19,5.19,0,0,1,2-4.1,7.64,7.64,0,0,1,5.2-1.7,8.17,8.17,0,0,1,5.28,1.6,6.07,6.07,0,0,1,2.27,4.36l-3.48.37c-.25-2.38-1.62-3.56-4.1-3.56a4.32,4.32,0,0,0-2.74.78,2.54,2.54,0,0,0-1,2.11,2.62,2.62,0,0,0,.69,1.93,4.21,4.21,0,0,0,2.24,1l3.14.61a8,8,0,0,1,4.25,1.94,5,5,0,0,1,1.4,3.69,5.78,5.78,0,0,1-2.08,4.53A7.92,7.92,0,0,1,156.15,407.78Z"/><path d="M177,407.42h-3.41V387H177v8.49h9.45V387h3.42v20.43h-3.42v-9H177Z"/><path d="M208.8,407.42H194.74V387h13.77v2.92H198.16v5.73h9.19v2.82h-9.19v6H208.8Z"/><path d="M227.84,402.22l.3,5.2h-3.42l-.29-5.2a2.45,2.45,0,0,0-.94-1.94,4.5,4.5,0,0,0-2.64-.62H216v7.76h-3.42V387h8.49a7.68,7.68,0,0,1,5.1,1.61,5,5,0,0,1,2,4.09,5.83,5.83,0,0,1-.86,3.13,6.07,6.07,0,0,1-2.41,2.21A4.2,4.2,0,0,1,227.84,402.22ZM224.67,393a2.81,2.81,0,0,0-1-2.29,4.26,4.26,0,0,0-2.82-.85H216v6.95h4.81a3.74,3.74,0,0,0,2.79-1.06A3.69,3.69,0,0,0,224.67,393Z"/><path d="M246.42,407.42H232.36V387h13.78v2.92H235.78v5.73H245v2.82h-9.19v6h10.64Z"/><path d="M88.56,172.8h31V185h-5.84v-7.29H98.25v13.82h13v4.9h-13v14.64h15.42V203.8h5.84V216H88.56v-4.9h4.11V177.73H88.56Z"/><path d="M151.93,172.8h14v4.93h-3.68V216H155l-20.09-35.81v30.91h4.45V216h-14v-4.9h4V177.73H125.2v-5h11.63l19.71,35.47.23-1.36V177.73h-4.84Z"/><path d="M204.81,216.16V207.5a14.48,14.48,0,0,1-2.71,3.92,15,15,0,0,1-3.62,2.75,17.45,17.45,0,0,1-4.25,1.62,19.89,19.89,0,0,1-4.61.54,20.89,20.89,0,0,1-7.77-1.41,17.84,17.84,0,0,1-6.46-4.48,20.67,20.67,0,0,1-4.41-7.3,25.58,25.58,0,0,1-1.53-8.8,24.76,24.76,0,0,1,1.53-8.72,21.94,21.94,0,0,1,4.27-7.15,19.62,19.62,0,0,1,14.8-6.52,19.07,19.07,0,0,1,7,1.16,19.8,19.8,0,0,1,5.05,2.84,23,23,0,0,1,3.34,3.17h2.77v5.08h-6.13a14.22,14.22,0,0,0-5.06-5.13,14.07,14.07,0,0,0-13.06-.43,14.76,14.76,0,0,0-4.69,3.76,17.71,17.71,0,0,0-3,5.44,19.49,19.49,0,0,0-1.08,6.5,20.4,20.4,0,0,0,1.19,7,16,16,0,0,0,3,5.27A15.24,15.24,0,0,0,184,210a13.67,13.67,0,0,0,6,1.32,14.47,14.47,0,0,0,9-2.66q3.5-2.67,4.9-8.31H191.85v-4.9h18.26v20.71Z"/><path d="M219.43,172.8h14v4.93h-4.33v33.36H244a2.12,2.12,0,0,0,.91-.21,3.11,3.11,0,0,0,.83-.56,2.67,2.67,0,0,0,.6-.78,1.94,1.94,0,0,0,.23-.9V203.2H252V216H219.43v-4.9h4.1V177.73h-4.1Z"/><path d="M256.35,172.8h13.79v4.93H266v33.36h4.1V216H256.35v-4.9h4.1V177.73h-4.1Z"/><path d="M299.51,180.78a7,7,0,0,0-2-1.93,9.76,9.76,0,0,0-2.41-1,9.9,9.9,0,0,0-2.62-.36,13,13,0,0,0-3.79.5,7.89,7.89,0,0,0-2.69,1.35,5.57,5.57,0,0,0-1.61,2,5.4,5.4,0,0,0-.55,2.39,6.09,6.09,0,0,0,.67,3,5.61,5.61,0,0,0,1.7,1.85,9.11,9.11,0,0,0,2.26,1.1c.83.26,1.62.53,2.38.79l5.76,1.88a27.61,27.61,0,0,1,4.57,1.88,12.63,12.63,0,0,1,3.32,2.5,9.93,9.93,0,0,1,2,3.32,12.58,12.58,0,0,1,.7,4.36,11.29,11.29,0,0,1-1.1,4.95,12,12,0,0,1-3.06,4,14.77,14.77,0,0,1-4.69,2.64,17.88,17.88,0,0,1-6,1,19,19,0,0,1-5.7-.75,12.46,12.46,0,0,1-4-2,10.2,10.2,0,0,1-2.58-2.89,15.48,15.48,0,0,1-1.51-3.33h-2.17V203h7.18a10.72,10.72,0,0,0,.67,4.47,6.05,6.05,0,0,0,1.87,2.18,8.5,8.5,0,0,0,2.85,1.31,13.86,13.86,0,0,0,3.64.44,12.46,12.46,0,0,0,3.49-.45,7.76,7.76,0,0,0,2.65-1.33,5.75,5.75,0,0,0,1.69-2.11,6.61,6.61,0,0,0,.58-2.8,5.59,5.59,0,0,0-.73-3,7.07,7.07,0,0,0-1.86-2.07,10.68,10.68,0,0,0-2.5-1.39c-.9-.36-1.77-.68-2.6-.94l-6.24-1.77a18.71,18.71,0,0,1-3.75-1.59,11.28,11.28,0,0,1-2.91-2.37,10.15,10.15,0,0,1-1.86-3.26,12.9,12.9,0,0,1-.66-4.32,11.31,11.31,0,0,1,1-4.64,10.9,10.9,0,0,1,2.85-3.79,13.79,13.79,0,0,1,4.6-2.55,19.25,19.25,0,0,1,6.23-.93,15.92,15.92,0,0,1,4.26.54,13.56,13.56,0,0,1,3.53,1.53,12.39,12.39,0,0,1,2.79,2.36,14.44,14.44,0,0,1,2,3h2.14v4.9h-7A6.35,6.35,0,0,0,299.51,180.78Z"/><path d="M355.87,172.8h14v4.9h-4.11v33.39h4.11V216h-14v-4.9h4.33V195.56h-25v15.53h4.33V216h-14v-4.9h4.1V177.7h-4.1v-4.9h14v4.9h-4.33v13.08h25V177.7h-4.33Z"/><path d="M380.86,211.09H385V179.5l-8.74,4.75V178.3l12-6.73h2.28v39.52h4.25V216h-14Z"/><path d="M445.59,172.8h14v4.9H455.5v33.39h4.11V216h-14v-4.9h4.33V195.56h-25v15.53h4.33V216h-14v-4.9h4.1V177.7h-4.1v-4.9h14v4.9h-4.33v13.08h25V177.7h-4.33Z"/><path d="M467.75,172.8H498.7V185h-5.85v-7.29H477.44v13.82h13v4.9h-13v14.64h15.41V203.8h5.85V216H467.75v-4.9h4.11V177.73h-4.11Z"/><path d="M530,211.09h3.59l-3.42-9.8H513.51l-3.33,9.8h4.44V216h-14v-4.9h3.77l13.44-38.29h8.41l13.42,38.29H544V216H530Zm-14.81-14.53h13.33l-6.72-19.32Z"/><path d="M548.33,172.8H564.4A20.39,20.39,0,0,1,575,175.73a20.84,20.84,0,0,1,4.19,3.35,20.56,20.56,0,0,1,3.21,4.35,21.77,21.77,0,0,1,2,5.14,22.45,22.45,0,0,1,.72,5.71,22.91,22.91,0,0,1-.72,5.79,22.24,22.24,0,0,1-2,5.18,20.87,20.87,0,0,1-3.21,4.4A20.35,20.35,0,0,1,575,213a20.16,20.16,0,0,1-10.62,3H548.33v-4.9h4.1V177.73h-4.1Zm9.68,4.93v33.36h6.73a12.42,12.42,0,0,0,5.63-1.31,14.72,14.72,0,0,0,4.6-3.57,17.21,17.21,0,0,0,3.1-5.33,18.76,18.76,0,0,0,1.14-6.6,18.19,18.19,0,0,0-1.14-6.49,16.86,16.86,0,0,0-3.1-5.26,14.71,14.71,0,0,0-4.6-3.52,12.79,12.79,0,0,0-5.63-1.28Z"/><path d="M591.26,172.8h13.79v4.93H601v33.36h4.1V216H591.26v-4.9h4.11V177.73h-4.11Z"/><path d="M639.93,172.8h14v4.93h-3.67V216H643l-20.09-35.81v30.91h4.44V216h-14v-4.9h4V177.73h-4.1v-5h11.63l19.71,35.47.23-1.36V177.73h-4.84Z"/><path d="M692.81,216.16V207.5a14.78,14.78,0,0,1-6.33,6.67,17.36,17.36,0,0,1-4.26,1.62,19.75,19.75,0,0,1-4.6.54,21,21,0,0,1-7.78-1.41,17.89,17.89,0,0,1-6.45-4.48,20.84,20.84,0,0,1-4.42-7.3,25.81,25.81,0,0,1-1.52-8.8,25,25,0,0,1,1.52-8.72,22,22,0,0,1,4.28-7.15,19.62,19.62,0,0,1,14.8-6.52,19.14,19.14,0,0,1,7.05,1.16,19.56,19.56,0,0,1,5,2.84,23.16,23.16,0,0,1,3.35,3.17h2.76v5.08h-6.12a14.22,14.22,0,0,0-5.06-5.13,14.07,14.07,0,0,0-13.06-.43,14.65,14.65,0,0,0-4.69,3.76,17.71,17.71,0,0,0-3,5.44,19.24,19.24,0,0,0-1.09,6.5,20.17,20.17,0,0,0,1.2,7,15.81,15.81,0,0,0,3.05,5.27A15.12,15.12,0,0,0,672,210a13.64,13.64,0,0,0,6,1.32,14.44,14.44,0,0,0,9-2.66q3.51-2.67,4.9-8.31H679.84v-4.9h18.27v20.71Z"/><path d="M121.9,286.18v-8.66a14.48,14.48,0,0,1-2.71,3.92,15,15,0,0,1-3.62,2.75,17.14,17.14,0,0,1-4.25,1.62,19.83,19.83,0,0,1-4.61.54,20.89,20.89,0,0,1-7.77-1.41,17.84,17.84,0,0,1-6.46-4.48,20.76,20.76,0,0,1-4.41-7.3,25.58,25.58,0,0,1-1.53-8.8,24.76,24.76,0,0,1,1.53-8.72,21.94,21.94,0,0,1,4.27-7.15,19.89,19.89,0,0,1,6.55-4.79,19.62,19.62,0,0,1,8.25-1.74,19.27,19.27,0,0,1,7,1.17,19.8,19.8,0,0,1,5,2.84,23,23,0,0,1,3.34,3.17h2.77v5.08h-6.13a14.22,14.22,0,0,0-5.06-5.13,14.07,14.07,0,0,0-13.06-.43,14.87,14.87,0,0,0-4.69,3.76,17.71,17.71,0,0,0-3,5.44,19.49,19.49,0,0,0-1.08,6.5,20.4,20.4,0,0,0,1.19,7,16,16,0,0,0,3.05,5.27,15.16,15.16,0,0,0,4.58,3.35,13.59,13.59,0,0,0,6,1.32,14.47,14.47,0,0,0,9-2.66q3.5-2.67,4.9-8.31H108.94v-4.9H127.2v20.71Z"/><path d="M155.21,286.87A19.71,19.71,0,0,1,147,285.2a20.76,20.76,0,0,1-11-12,25.87,25.87,0,0,1-1.51-8.74,24.94,24.94,0,0,1,1.53-8.78,21.9,21.9,0,0,1,4.27-7.14,20.14,20.14,0,0,1,6.55-4.78,20.19,20.19,0,0,1,23.32,4.78,21.85,21.85,0,0,1,4.25,7.14,25.16,25.16,0,0,1,1.51,8.78,24.82,24.82,0,0,1-1.53,8.76,22,22,0,0,1-4.27,7.13,19.66,19.66,0,0,1-14.91,6.56Zm0-5.3a13.4,13.4,0,0,0,6.14-1.4,14.58,14.58,0,0,0,4.68-3.74,17.19,17.19,0,0,0,3-5.46,20.07,20.07,0,0,0,1.06-6.55,20.5,20.5,0,0,0-1.16-6.83,16.11,16.11,0,0,0-3.21-5.57,14.55,14.55,0,0,0-4.81-3.52,13.72,13.72,0,0,0-5.69-1.24,13.48,13.48,0,0,0-6.16,1.4,14.45,14.45,0,0,0-4.7,3.75,17,17,0,0,0-3,5.47,20.37,20.37,0,0,0-1.05,6.54,20.16,20.16,0,0,0,1.16,7.11,15.51,15.51,0,0,0,3.09,5.18,17.11,17.11,0,0,0,4.59,3.46A12.89,12.89,0,0,0,155.21,281.57Z"/><path d="M182,242.82H213V255h-5.84v-7.29H191.7v13.82h13v4.9h-13v14.64h15.42v-7.29H213V286H182v-4.9h4.1V247.75H182Z"/><path d="M239.88,250.8a7,7,0,0,0-2-1.92,9.21,9.21,0,0,0-2.4-1,9.92,9.92,0,0,0-2.63-.36,13,13,0,0,0-3.78.5,8.13,8.13,0,0,0-2.7,1.35,5.68,5.68,0,0,0-1.61,2,5.53,5.53,0,0,0-.54,2.39,6,6,0,0,0,.67,3,5.61,5.61,0,0,0,1.7,1.85,8.75,8.75,0,0,0,2.26,1.09l2.38.8,5.76,1.88a28.89,28.89,0,0,1,4.57,1.88,12.8,12.8,0,0,1,3.32,2.5,9.74,9.74,0,0,1,2,3.32,12.35,12.35,0,0,1,.7,4.36,11.28,11.28,0,0,1-1.09,4.95,12.16,12.16,0,0,1-3.07,4,14.61,14.61,0,0,1-4.68,2.64,18.14,18.14,0,0,1-6,.95,19,19,0,0,1-5.7-.75,12.42,12.42,0,0,1-4-2,10.32,10.32,0,0,1-2.57-2.89A15.48,15.48,0,0,1,219,278h-2.17v-4.9H224a10.56,10.56,0,0,0,.67,4.47,6.05,6.05,0,0,0,1.87,2.18,8.32,8.32,0,0,0,2.85,1.31,13.81,13.81,0,0,0,3.64.44,12.51,12.51,0,0,0,3.49-.45,7.59,7.59,0,0,0,2.65-1.33,5.83,5.83,0,0,0,1.68-2.11,6.46,6.46,0,0,0,.59-2.8,5.68,5.68,0,0,0-.73-2.95,7.11,7.11,0,0,0-1.87-2.07,10.82,10.82,0,0,0-2.49-1.39c-.9-.36-1.77-.68-2.61-.94l-6.24-1.77a18.87,18.87,0,0,1-3.74-1.59,11.28,11.28,0,0,1-2.91-2.37,9.8,9.8,0,0,1-1.86-3.26,12.9,12.9,0,0,1-.66-4.32,11.15,11.15,0,0,1,1-4.64,10.78,10.78,0,0,1,2.85-3.79,13.79,13.79,0,0,1,4.6-2.55,19.21,19.21,0,0,1,6.23-.93,15.9,15.9,0,0,1,4.25.54,13.63,13.63,0,0,1,3.54,1.53,12.39,12.39,0,0,1,2.79,2.36,14.19,14.19,0,0,1,2,3h2.13v4.9h-7A6.36,6.36,0,0,0,239.88,250.8Z"/><path d="M296.24,242.82h14v4.9h-4.1v33.39h4.1V286h-14v-4.9h4.33V265.58h-25v15.53h4.33V286h-14v-4.9H270V247.72h-4.11v-4.9h14v4.9h-4.33V260.8h25V247.72h-4.33Z"/><path d="M318.4,242.82h30.94V255H343.5v-7.29H328.09v13.82h13v4.9h-13v14.64H343.5v-7.29h5.84V286H318.4v-4.9h4.11V247.75H318.4Z"/><path d="M355,242.82h18a17.61,17.61,0,0,1,5.31.76,12.15,12.15,0,0,1,4.22,2.22,10.13,10.13,0,0,1,2.78,3.66,12.12,12.12,0,0,1,1,5,9.24,9.24,0,0,1-.59,3.21,11.21,11.21,0,0,1-1.62,2.93,12.28,12.28,0,0,1-2.47,2.41,11.32,11.32,0,0,1-3.1,1.62,6.78,6.78,0,0,1,1.44.9,8,8,0,0,1,1.36,1.42,11.43,11.43,0,0,1,1.17,1.91,12.08,12.08,0,0,1,.84,2.3l2.4,9.4h3.73l.06,5.41h-8.41l-3.22-13.13a10.26,10.26,0,0,0-2.69-5.2,7,7,0,0,0-4.94-1.67h-5.56v15.1h4.33V286H355v-4.9h4.11V247.75H355Zm9.69,4.93v13.59H373a9.71,9.71,0,0,0,3-.43,6.36,6.36,0,0,0,2.33-1.28,5.89,5.89,0,0,0,1.54-2.12,7.32,7.32,0,0,0,.56-2.95,6.52,6.52,0,0,0-1.94-5q-1.94-1.78-6.15-1.79Z"/><path d="M396.58,242.82h30.94V255h-5.84v-7.29H406.27v13.82h13v4.9h-13v14.64h15.41v-7.29h5.84V286H396.58v-4.9h4.11V247.75h-4.11Z"/><rect x="86.53" y="327.05" width="43.2" height="4.32"/><polygon points="89.26 920.69 89.26 926.09 103.72 926.09 86.49 953.09 110.86 953.09 110.86 947.69 96.34 947.69 113.57 920.69 89.26 920.69"/><polygon points="119.04 953.09 140.57 953.09 140.57 947.69 124.42 947.69 124.4 939.59 140.57 939.59 140.57 934.19 124.39 934.19 124.37 926.09 140.57 926.09 140.57 920.69 118.96 920.69 119.04 953.09"/><polygon points="170.27 947.69 154.07 947.69 154.07 939.59 170.27 939.59 170.27 934.19 154.07 934.19 154.07 926.09 170.27 926.09 170.27 920.69 148.67 920.69 148.67 953.09 170.27 953.09 170.27 947.69"/><polygon points="118.97 993.6 140.57 993.6 140.57 988.2 124.37 988.2 124.37 980.1 140.57 980.1 140.57 974.7 124.37 974.7 124.37 966.6 140.57 966.6 140.57 961.2 118.97 961.2 118.97 993.6"/><polygon points="167.57 961.2 167.57 983.08 153.84 961.2 148.67 961.2 148.67 993.6 154.07 993.6 154.07 971.72 167.8 993.6 172.97 993.6 172.97 961.2 167.57 961.2"/><path d="M98.71,480.42l-9.07,11.14H99v1.67H87.34v-1.58l9.16-11.26H87.83v-1.66H98.71Z"/><path d="M108,492a3.71,3.71,0,0,0,4-3.34l1.89.3a5,5,0,0,1-1.91,3.42,6.33,6.33,0,0,1-4,1.26,6.54,6.54,0,0,1-5.11-2,8.24,8.24,0,0,1-1.76-5.67,7.94,7.94,0,0,1,1.84-5.51,6.31,6.31,0,0,1,5-2.06,5.86,5.86,0,0,1,4.57,1.78,7.22,7.22,0,0,1,1.62,5v1.23H103.18C103.3,490.1,104.9,492,108,492ZM107.9,480a4.32,4.32,0,0,0-3.23,1.21,5.77,5.77,0,0,0-1.43,3.55H112Q111.8,480,107.9,480Z"/><path d="M123.74,492a3.71,3.71,0,0,0,4-3.34l1.89.3a5,5,0,0,1-1.91,3.42,6.31,6.31,0,0,1-4,1.26,6.55,6.55,0,0,1-5.11-2,8.24,8.24,0,0,1-1.76-5.67,8,8,0,0,1,1.84-5.51,6.33,6.33,0,0,1,5-2.06,5.86,5.86,0,0,1,4.57,1.78,7.23,7.23,0,0,1,1.63,5v1.23h-11C119,490.1,120.64,492,123.74,492Zm-.1-11.94a4.32,4.32,0,0,0-3.23,1.21,5.77,5.77,0,0,0-1.43,3.55h8.78Q127.54,480,123.64,480Z"/><path d="M139.48,492a3.71,3.71,0,0,0,4-3.34l1.89.3a5,5,0,0,1-1.91,3.42,6.31,6.31,0,0,1-4,1.26,6.55,6.55,0,0,1-5.11-2,8.24,8.24,0,0,1-1.75-5.67,8,8,0,0,1,1.83-5.51,6.33,6.33,0,0,1,5-2.06,5.85,5.85,0,0,1,4.57,1.78,7.18,7.18,0,0,1,1.63,5v1.23H134.67C134.78,490.1,136.39,492,139.48,492Zm-.1-11.94a4.28,4.28,0,0,0-3.22,1.21,5.71,5.71,0,0,0-1.44,3.55h8.78C143.36,481.6,142,480,139.38,480Z"/><path d="M161.41,483.84v9.39h-2v-9a4.32,4.32,0,0,0-1-3,3.64,3.64,0,0,0-2.81-1.07,4,4,0,0,0-3.22,1.33,5.93,5.93,0,0,0-1.09,3.87v7.91h-2v-14.5h2v1.92a5.13,5.13,0,0,1,4.64-2.26,5,5,0,0,1,5.46,5.45Z"/><path d="M165.59,490.39h2.7v2.84h-2.7Z"/><path d="M174.64,476.13h-2V472.8h2Zm0,17.1h-2v-14.5h2Z"/><path d="M181.28,493.23h-2v-14.5h2v2.83a4.59,4.59,0,0,1,4.31-2.83h1.09v1.92h-1.09a3.63,3.63,0,0,0-3.12,1.77,8.28,8.28,0,0,0-1.19,4.66Z"/></g></svg>