<svg xmlns="http://www.w3.org/2000/svg" xmlns:xlink="http://www.w3.org/1999/xlink" viewBox="0 0 1080 1920"><defs><style>.cls-1{fill:#4672e2;}.cls-2{fill:#fff;}.cls-3{fill:url(#linear-gradient);}.cls-4{fill:url(#linear-gradient-2);}.cls-5{fill:url(#linear-gradient-3);}.cls-6{fill:url(#linear-gradient-4);}.cls-7{fill:url(#linear-gradient-5);}.cls-8{fill:url(#linear-gradient-6);}.cls-9{fill:url(#linear-gradient-7);}.cls-10{fill:url(#linear-gradient-8);}.cls-11{fill:url(#linear-gradient-9);}.cls-12{fill:#061f6b;}</style><linearGradient id="linear-gradient" x1="5972.12" y1="-3425.55" x2="5972.12" y2="-4505.55" gradientTransform="translate(4505.55 7805.72) rotate(-90)" gradientUnits="userSpaceOnUse"><stop offset="0" stop-color="#fff" stop-opacity="0"/><stop offset="0.51" stop-color="#fff"/><stop offset="1" stop-color="#fff" stop-opacity="0"/></linearGradient><linearGradient id="linear-gradient-2" x1="14116.78" y1="-3425.55" x2="14116.78" y2="-4505.55" gradientTransform="translate(4505.55 14524.56) rotate(-90)" gradientUnits="userSpaceOnUse"><stop offset="0" stop-color="#fff" stop-opacity="0"/><stop offset="1" stop-color="#fff"/></linearGradient><linearGradient id="linear-gradient-3" x1="21411.35" y1="7074.44" x2="21411.35" y2="5154.44" gradientTransform="translate(-20417.72 -5154.44)" xlink:href="#linear-gradient"/><linearGradient id="linear-gradient-4" x1="20504.09" y1="7074.44" x2="20504.09" y2="5154.44" gradientTransform="translate(-20417.72 -5154.44)" xlink:href="#linear-gradient"/><linearGradient id="linear-gradient-5" x1="7719.35" y1="-3425.55" x2="7719.35" y2="-4505.55" xlink:href="#linear-gradient"/><linearGradient id="linear-gradient-6" x1="14238.55" y1="-3425.55" x2="14238.55" y2="-4505.55" gradientTransform="translate(-3425.55 -14038.94) rotate(90)" xlink:href="#linear-gradient-2"/><linearGradient id="linear-gradient-7" x1="14324.95" y1="-3425.55" x2="14324.95" y2="-4505.55" gradientTransform="translate(-3425.55 -14038.94) rotate(90)" xlink:href="#linear-gradient-2"/><linearGradient id="linear-gradient-8" x1="14359.57" y1="-3425.55" x2="14359.57" y2="-4505.55" gradientTransform="translate(-3425.55 -14038.94) rotate(90)" xlink:href="#linear-gradient-2"/><linearGradient id="linear-gradient-9" x1="14281.73" y1="-3425.55" x2="14281.73" y2="-4505.55" gradientTransform="translate(-3425.55 -14038.94) rotate(90)" xlink:href="#linear-gradient-2"/></defs><g id="Graphic"><path class="cls-1" d="M778.55,283.62a6,6,0,0,1-.65,2.76,11,11,0,0,1-1.72,2.45,18.81,18.81,0,0,1-2.45,2.2q-1.4,1.05-2.82,2L769,291.23c.89-.58,1.78-1.18,2.65-1.8a29,29,0,0,0,2.36-1.86,10.82,10.82,0,0,0,1.7-1.81,2.92,2.92,0,0,0,.64-1.64,3.75,3.75,0,0,0-.13-.85,8.06,8.06,0,0,0-.38-1.06q-.25-.57-.57-1.17a11.37,11.37,0,0,0-.7-1.13l2-1.92a12,12,0,0,1,.88,1.46A14.67,14.67,0,0,1,778,281a13.11,13.11,0,0,1,.41,1.43A5.81,5.81,0,0,1,778.55,283.62Z"/><path class="cls-1" d="M791.92,281.61a4.91,4.91,0,0,1-.51,2.4,3.59,3.59,0,0,1-1.39,1.42,5.91,5.91,0,0,1-2,.67,16.56,16.56,0,0,1-2.51.18,7.45,7.45,0,0,1-2.34-.34,4.34,4.34,0,0,1-1.78-1.18l1.17-2.19a5,5,0,0,0,3,.82,10.57,10.57,0,0,0,3.19-.37c.75-.24,1.12-.63,1.12-1.15,0-1.44-1.52-3.15-4.58-5.14l1.14-2.74a16.48,16.48,0,0,1,1.94,1.4,12.27,12.27,0,0,1,1.77,1.83,10.12,10.12,0,0,1,1.28,2.13A5.53,5.53,0,0,1,791.92,281.61Z"/><path class="cls-1" d="M807.7,294.56a8.43,8.43,0,0,1-2.87-.47,6.08,6.08,0,0,1-2.22-1.35,6.32,6.32,0,0,1-1.43-2.16,7.77,7.77,0,0,1-.51-2.9,8,8,0,0,1,.41-2.59,14.19,14.19,0,0,1,1.16-2.55l1.84.73a5,5,0,0,0-.46.93c-.14.35-.26.71-.37,1.07a9,9,0,0,0-.25,1,4.79,4.79,0,0,0-.08.85q0,4.61,5.16,4.61a12.32,12.32,0,0,0,2.41-.23,13.55,13.55,0,0,0,2-.56,8.42,8.42,0,0,0,1.39-.64,2,2,0,0,0,.61-.47.24.24,0,0,0-.16-.19l-.31-.1-2.54-.61a5.94,5.94,0,0,1-.81-.23,3,3,0,0,1-.69-.37,1.58,1.58,0,0,1-.48-.57,1.87,1.87,0,0,1-.18-.87q0-3.74,5.61-3.74h2.33V286H815.9l-1.36,0h-1.21q-.55,0-.93,0c-.66.06-1,.21-1,.44a.29.29,0,0,0,.11.19,1.07,1.07,0,0,0,.48.19l2.65.61a3.8,3.8,0,0,1,1.4.66,1.67,1.67,0,0,1,.53,1.38,3,3,0,0,1-.89,2.12,7.5,7.5,0,0,1-2.23,1.6,13,13,0,0,1-2.89,1A13.26,13.26,0,0,1,807.7,294.56Z"/><path class="cls-1" d="M829.06,284.14a3.56,3.56,0,0,1-1.42,1.38,3.91,3.91,0,0,1-1.88.49,3.69,3.69,0,0,1-3.59-1.87,3.18,3.18,0,0,1-1.41,1.4,4,4,0,0,1-1.86.47h-1.66a.59.59,0,0,1-.5-.35,2.19,2.19,0,0,1-.2-1.05,2.3,2.3,0,0,1,.2-1.05c.14-.25.31-.38.5-.38h1.52a4.51,4.51,0,0,0,1-.11,2.78,2.78,0,0,0,.86-.36,1.68,1.68,0,0,0,.85-1.51v-1.37l1.93-.5a14.71,14.71,0,0,0,.07,1.55,3.83,3.83,0,0,0,.31,1.21,1.72,1.72,0,0,0,.71.8,2.53,2.53,0,0,0,1.3.29,2.86,2.86,0,0,0,1.82-.55,2,2,0,0,0,.72-1.67v-1.13l1.92-.5q0,.85.06,1.56a3.36,3.36,0,0,0,.31,1.23,1.8,1.8,0,0,0,.73.79,2.78,2.78,0,0,0,1.35.27,2.09,2.09,0,0,0,1.3-.33,1,1,0,0,0,.42-.83,2.13,2.13,0,0,0-.16-.78,6,6,0,0,0-.4-.86c-.17-.29-.34-.57-.53-.84a6.6,6.6,0,0,0-.54-.73l2-2.1a7.68,7.68,0,0,1,1.43,2.61,8.11,8.11,0,0,1,.41,2.46,4.4,4.4,0,0,1-1,3,3.65,3.65,0,0,1-2.74,1.25,3.58,3.58,0,0,1-.56,0l-.49-.05a3.88,3.88,0,0,1-1.65-.61A3.4,3.4,0,0,1,829.06,284.14Z"/><path class="cls-1" d="M845.36,283.62a6,6,0,0,1-.65,2.76,11,11,0,0,1-1.72,2.45,18.81,18.81,0,0,1-2.45,2.2q-1.39,1.05-2.82,2l-2-1.81c.89-.58,1.78-1.18,2.65-1.8a29,29,0,0,0,2.36-1.86,10.82,10.82,0,0,0,1.7-1.81,2.92,2.92,0,0,0,.64-1.64,3.75,3.75,0,0,0-.13-.85,8.06,8.06,0,0,0-.38-1.06q-.25-.57-.57-1.17a11.37,11.37,0,0,0-.7-1.13l1.95-1.92a10.88,10.88,0,0,1,.88,1.46,14.67,14.67,0,0,1,.64,1.5,13.11,13.11,0,0,1,.41,1.43A5.81,5.81,0,0,1,845.36,283.62Z"/><path class="cls-1" d="M855.2,286H854a3.66,3.66,0,0,1-3.53-2,6.42,6.42,0,0,1-.64-2,17.44,17.44,0,0,1-.21-2.25c0-2.06-.08-4.19-.13-6.37s-.16-4.34-.33-6.44l2.42-1.13c0,1.77,0,3.79.1,6.08s.1,4.65.16,7.1c0,.47,0,1,.07,1.46a5.1,5.1,0,0,0,.32,1.37,2.56,2.56,0,0,0,.75,1,2.06,2.06,0,0,0,1.37.41h.82Z"/><path class="cls-1" d="M855.2,286a.58.58,0,0,1-.5-.35,2.08,2.08,0,0,1-.2-1.05,2.18,2.18,0,0,1,.2-1.05c.14-.25.3-.38.5-.38h2.86a13.05,13.05,0,0,0,1.41-.07,7.94,7.94,0,0,0,1.23-.23,2.94,2.94,0,0,0,.87-.41.91.91,0,0,0,.39-.57,2.62,2.62,0,0,0,0-.94,4.19,4.19,0,0,1-1.15.41,5.54,5.54,0,0,1-1.15.12,2.89,2.89,0,0,1-2.12-.8,2.93,2.93,0,0,1-.8-2.15,6,6,0,0,1,.26-1.73,5.14,5.14,0,0,1,.75-1.52,4,4,0,0,1,1.14-1.06,2.63,2.63,0,0,1,1.47-.41,2.34,2.34,0,0,1,1.81.76,5.68,5.68,0,0,1,1.11,1.86,10.47,10.47,0,0,1,.55,2.35A18.6,18.6,0,0,1,864,281a4.58,4.58,0,0,1-1.51,3.84,6.74,6.74,0,0,1-4.27,1.18Zm4.87-14.26L858,270l1.6-1.89,2,1.69ZM860,279.1a2.84,2.84,0,0,0,1.75-.53,5.5,5.5,0,0,0-.63-1.59,1.15,1.15,0,0,0-1-.65,1.25,1.25,0,0,0-1,.51,1.63,1.63,0,0,0-.41,1.06,1.12,1.12,0,0,0,.36.86A1.38,1.38,0,0,0,860,279.1Z"/><path class="cls-1" d="M883.17,281.72a3,3,0,0,1-.19,1,3.39,3.39,0,0,1-.54,1,3.24,3.24,0,0,1-.83.78,1.87,1.87,0,0,1-1.09.33h-3.68a1.87,1.87,0,0,0-1,.23,1.45,1.45,0,0,0-.57.65,2.83,2.83,0,0,0-.25,1c0,.39,0,.84,0,1.32V298h-2c0-2.27-.07-4.07-.08-5.38s0-2.32-.05-3,0-1.14,0-1.35v-.44a9.38,9.38,0,0,1,.61-3.76,3,3,0,0,1,2-1.78,10.29,10.29,0,0,1,.15-1.65,7.26,7.26,0,0,1,.5-1.74,3.87,3.87,0,0,1,.93-1.35,2.08,2.08,0,0,1,1.46-.54,3.9,3.9,0,0,1,1.73.42,5.81,5.81,0,0,1,1.54,1.09,6,6,0,0,1,1.09,1.51A3.66,3.66,0,0,1,883.17,281.72Zm-2.21.15a1.62,1.62,0,0,0-.27-.67,3.82,3.82,0,0,0-.58-.72,3.94,3.94,0,0,0-.77-.57,1.77,1.77,0,0,0-.83-.23.74.74,0,0,0-.57.22,1.49,1.49,0,0,0-.35.57,3.39,3.39,0,0,0-.19.79,6.36,6.36,0,0,0-.06.87l.76.05h2.1C880.68,282.19,880.94,282.08,881,281.87Z"/><path class="cls-1" d="M894.76,282.45a8.45,8.45,0,0,1-.69,3.46,10.75,10.75,0,0,1-1.82,2.84,15.38,15.38,0,0,1-2.64,2.35,29.78,29.78,0,0,1-3.14,1.94l-1.9-1.78q1-.56,2.22-1.32a26.67,26.67,0,0,0,2.44-1.7,16.1,16.1,0,0,0,2.08-1.91,4.4,4.4,0,0,0,1.14-2,2.52,2.52,0,0,1-.71.29,4.87,4.87,0,0,1-1.33.15,3.69,3.69,0,0,1-2.29-.7,2.59,2.59,0,0,1-.92-2.19,6.65,6.65,0,0,1,.25-1.75,6.28,6.28,0,0,1,.73-1.72,4.54,4.54,0,0,1,1.15-1.3,2.44,2.44,0,0,1,1.52-.51,2.79,2.79,0,0,1,1.73.55,4.49,4.49,0,0,1,1.23,1.4,6.67,6.67,0,0,1,.71,1.89A8.91,8.91,0,0,1,894.76,282.45Zm-2.34-.73a3.52,3.52,0,0,0-.58-1.67,1.44,1.44,0,0,0-1.23-.66,1.22,1.22,0,0,0-1,.57,1.9,1.9,0,0,0-.41,1.09c0,.74.52,1.11,1.55,1.11a3.92,3.92,0,0,0,.89-.1A2.3,2.3,0,0,0,892.42,281.72Z"/><path class="cls-1" d="M908.15,281.61a4.91,4.91,0,0,1-.51,2.4,3.59,3.59,0,0,1-1.39,1.42,5.91,5.91,0,0,1-2,.67,16.56,16.56,0,0,1-2.51.18,7.34,7.34,0,0,1-2.33-.34,4.22,4.22,0,0,1-1.78-1.18l1.16-2.19a5,5,0,0,0,3,.82A10.57,10.57,0,0,0,905,283c.75-.24,1.12-.63,1.12-1.15,0-1.44-1.52-3.15-4.58-5.14l1.14-2.74a16.48,16.48,0,0,1,1.94,1.4,12.27,12.27,0,0,1,1.77,1.83,10.12,10.12,0,0,1,1.28,2.13A5.53,5.53,0,0,1,908.15,281.61Z"/><path class="cls-1" d="M930,275.86c.08-1.58.29-2.48.64-2.71,1.54-1,3.26-2.11,5.17-3.15s4.07-2.12,6.5-3.21l-.35,2.94q-3.06,1.29-5.38,2.53c-1.55.82-2.9,1.62-4.07,2.37A40.15,40.15,0,0,1,936,278c1.13,1.21,2.32,2.42,3.59,3.65a5.75,5.75,0,0,0,1.59,1.19,3.43,3.43,0,0,0,1.53.35h1.37V286h-1.25a6.47,6.47,0,0,1-1.8-.22,4.69,4.69,0,0,1-1.53-.77,10.52,10.52,0,0,1-1.62-1.52c-.57-.64-1.26-1.45-2.06-2.42a3.9,3.9,0,0,1-.11,1,3.72,3.72,0,0,1-.47,1.52,3.9,3.9,0,0,1-1,1.12,5.8,5.8,0,0,1-1.4.8,9,9,0,0,1-1.69.5,25.68,25.68,0,0,1-2.85.45,26.28,26.28,0,0,1-2.93.16c-1,0-2.06,0-3.08-.13a9.35,9.35,0,0,1-2.74-.61,4.61,4.61,0,0,1-2-1.43,4.15,4.15,0,0,1-.74-2.61,5.7,5.7,0,0,1,.29-1.68,6,6,0,0,1,.85-1.68l1.75.65a4.94,4.94,0,0,0-.64,1.92,2.21,2.21,0,0,0,.29,1.29,2.05,2.05,0,0,0,1,.83,5.72,5.72,0,0,0,1.56.43,13.6,13.6,0,0,0,1.89.16l2,0a20.28,20.28,0,0,0,5.9-.7c1.51-.46,2.34-1.08,2.5-1.86a3.26,3.26,0,0,0-.41-1.27,7.58,7.58,0,0,0-.92-1.29,16.93,16.93,0,0,0-1.34-1.35Zm9.19-9.54c-1.28.62-2.66,1.34-4.11,2.16s-3,1.72-4.55,2.71l.23-1.66q2.53-1.66,4.65-2.88c1.41-.8,2.74-1.52,4-2.14Z"/><path class="cls-1" d="M944.12,286a.58.58,0,0,1-.5-.35,2.19,2.19,0,0,1-.2-1.05,2.3,2.3,0,0,1,.2-1.05c.14-.25.3-.38.5-.38h1.22a3.89,3.89,0,0,0,2-.47,1.74,1.74,0,0,0,.8-1.66v-1.22l2-.5a15.86,15.86,0,0,0,.07,1.62,3.19,3.19,0,0,0,.35,1.21,1.89,1.89,0,0,0,.82.76,3.49,3.49,0,0,0,1.47.26H954V286h-1.49c-1.77,0-3-.6-3.59-1.81a3.23,3.23,0,0,1-1.44,1.34,4.36,4.36,0,0,1-2,.47Zm5-9.42-2-1.72,1.6-1.9,2,1.69Z"/><path class="cls-1" d="M961.36,281.78q0,4.23-4.84,4.23H954a.59.59,0,0,1-.5-.35,2.19,2.19,0,0,1-.2-1.05,2.26,2.26,0,0,1,.2-1.06.59.59,0,0,1,.5-.37h2.66c1.69,0,2.53-.39,2.53-1.16a1.8,1.8,0,0,0-.19-.75,6.48,6.48,0,0,0-.45-.86,9.26,9.26,0,0,0-.58-.86c-.22-.28-.41-.53-.59-.74l2-2.1a9.34,9.34,0,0,1,1.52,2.59A7.21,7.21,0,0,1,961.36,281.78Zm-5.48,7.12,2,1.63-1.57,1.87-1.93-1.66Zm3.67,0,1.93,1.63-1.55,1.87L958,290.74Z"/><path class="cls-1" d="M978.58,286h-1.2a4.63,4.63,0,0,1-1.2-.13,2.86,2.86,0,0,1-.9-.42,3.61,3.61,0,0,1-.75-.76,10.4,10.4,0,0,1-.68-1.11,4.83,4.83,0,0,1-.93,1.37,4.15,4.15,0,0,1-1.19.82,5.34,5.34,0,0,1-1.48.39,14.76,14.76,0,0,1-1.83.11A8,8,0,0,1,966,286a4.1,4.1,0,0,1-1.74-1l1.25-2.33a3.65,3.65,0,0,0,1.11.52,6.84,6.84,0,0,0,1.37.24h1a5.9,5.9,0,0,0,.86-.06,5.73,5.73,0,0,0,1.69-.31,1.51,1.51,0,0,0,.91-.74,1.7,1.7,0,0,0,.23-.88,2.26,2.26,0,0,0-.1-.57c-.07-.24-.19-.61-.36-1.1s-.43-1.15-.76-1.94l-1.29-3.1,1.78-2,2.77,7.26a9.54,9.54,0,0,0,1.22,2.41,1.83,1.83,0,0,0,1.53.83h1.14Z"/><path class="cls-1" d="M981.81,283.18a2.48,2.48,0,0,1-1.48-2.3,4.27,4.27,0,0,1,.75-2.31,5.44,5.44,0,0,1,2.25-1.89l-.82-.56,1.14-2.48q1.64,1.14,3.09,2.28a21.88,21.88,0,0,1,2.57,2.33,10.88,10.88,0,0,1,1.75,2.47,5.71,5.71,0,0,1,.64,2.64,5.33,5.33,0,0,1-.13,1.18,3.38,3.38,0,0,1-.44,1.09,2.55,2.55,0,0,1-.78.82,2.12,2.12,0,0,1-1.18.32,3.79,3.79,0,0,1-1-.17c-.39-.12-.79-.27-1.21-.44l-1.21-.54-1-.48a6.19,6.19,0,0,1-1.84.67,11.32,11.32,0,0,1-2.13.2h-2.19a.56.56,0,0,1-.49-.35,2.07,2.07,0,0,1-.21-1.05,2.17,2.17,0,0,1,.21-1.05.58.58,0,0,1,.49-.38Zm3.83-2.8a2.91,2.91,0,0,0-.34-1.38,1,1,0,0,0-.92-.63,1.5,1.5,0,0,0-.71.2,3.36,3.36,0,0,0-.68.51,2.81,2.81,0,0,0-.49.67,1.55,1.55,0,0,0-.19.72,1,1,0,0,0,.25.63,3,3,0,0,0,.58.55,3.56,3.56,0,0,0,.7.41,1.54,1.54,0,0,0,.63.16A.72.72,0,0,0,985,282a1.83,1.83,0,0,0,.38-.48,2.47,2.47,0,0,0,.23-.6A2.37,2.37,0,0,0,985.64,280.38Zm1.69-.35a5.7,5.7,0,0,1-.24,1.81,3.3,3.3,0,0,1-.78,1.28,4.26,4.26,0,0,0,.58.34c.25.13.51.25.77.36s.51.22.73.3a2.08,2.08,0,0,0,.48.11.56.56,0,0,0,.54-.27,1.17,1.17,0,0,0,.16-.6,2.74,2.74,0,0,0-.7-1.68A13.32,13.32,0,0,0,987.33,280Z"/><path class="cls-1" d="M834.19,316.62a4.91,4.91,0,0,1-.51,2.4,3.52,3.52,0,0,1-1.39,1.42,5.91,5.91,0,0,1-2,.67,16.46,16.46,0,0,1-2.51.18,7.38,7.38,0,0,1-2.33-.34,4.28,4.28,0,0,1-1.78-1.18l1.17-2.19a5,5,0,0,0,3,.82A10.64,10.64,0,0,0,831,318c.74-.24,1.12-.63,1.12-1.15q0-2.16-4.58-5.14l1.14-2.74a17.36,17.36,0,0,1,1.94,1.4,11.72,11.72,0,0,1,1.76,1.83,9.72,9.72,0,0,1,1.28,2.13A5.37,5.37,0,0,1,834.19,316.62Z"/><path class="cls-1" d="M842.51,320.35a6.22,6.22,0,0,1-.72,2.66,10.81,10.81,0,0,1-1.72,2.37,19.48,19.48,0,0,1-2.41,2.15c-.89.68-1.81,1.33-2.74,2L833,327.67c.89-.58,1.77-1.18,2.65-1.8s1.66-1.25,2.36-1.86a10.82,10.82,0,0,0,1.7-1.81,2.92,2.92,0,0,0,.64-1.65,3.75,3.75,0,0,0-.13-.84,8.72,8.72,0,0,0-.38-1.07c-.17-.37-.36-.76-.57-1.16a11.37,11.37,0,0,0-.7-1.13l2-2q.62,1,1.08,1.71a8.22,8.22,0,0,0,.91,1.18,2.86,2.86,0,0,0,.89.68,2.19,2.19,0,0,0,1,.22h1.08V321h-.93A3,3,0,0,1,842.51,320.35Z"/><path class="cls-1" d="M845.45,321a.56.56,0,0,1-.49-.35,2.07,2.07,0,0,1-.21-1.05,2.17,2.17,0,0,1,.21-1.05.58.58,0,0,1,.49-.38h1.23a3.94,3.94,0,0,0,2-.47,1.76,1.76,0,0,0,.8-1.66v-1.22l2-.5a15.66,15.66,0,0,0,.08,1.62,2.87,2.87,0,0,0,.35,1.21,1.81,1.81,0,0,0,.81.76,3.51,3.51,0,0,0,1.48.26h1.13V321h-1.48c-1.77,0-3-.6-3.59-1.81a3.25,3.25,0,0,1-1.45,1.34,4.36,4.36,0,0,1-2,.47Zm2.72,2.89,2,1.63-1.58,1.87-1.92-1.66Zm3.67,0,1.93,1.63-1.55,1.87-2-1.66Z"/><path class="cls-1" d="M856.77,310.87c.12-1.58.33-2.48.64-2.71,1.54-1.05,3.26-2.11,5.17-3.16s4.08-2.12,6.53-3.21l-.38,2.95q-3.06,1.29-5.38,2.53c-1.55.82-2.89,1.61-4,2.37a13.24,13.24,0,0,1,3,3.29,5.87,5.87,0,0,1,.91,3,5,5,0,0,1-.45,2.15,4.45,4.45,0,0,1-1.26,1.59,5.69,5.69,0,0,1-1.86,1,7.73,7.73,0,0,1-2.29.33h-2.05a.56.56,0,0,1-.49-.35,2.07,2.07,0,0,1-.21-1.05,2.17,2.17,0,0,1,.21-1.05.58.58,0,0,1,.49-.38h2.28a5.27,5.27,0,0,0,2.49-.49,1.75,1.75,0,0,0,1-1.43,2.91,2.91,0,0,0-.38-1.27,7.14,7.14,0,0,0-.93-1.29,17.39,17.39,0,0,0-1.36-1.35C857.9,311.89,857.36,311.39,856.77,310.87Zm9.22-9.54q-1.92.93-4.13,2.16c-1.47.81-3,1.72-4.53,2.71l.2-1.66q2.54-1.67,4.67-2.88c1.42-.8,2.75-1.52,4-2.14Z"/><path class="cls-1" d="M874.71,329.57a8.47,8.47,0,0,1-2.87-.47,6.25,6.25,0,0,1-2.22-1.35,6.32,6.32,0,0,1-1.43-2.16,7.77,7.77,0,0,1-.51-2.9,8.31,8.31,0,0,1,.41-2.59,13.6,13.6,0,0,1,1.17-2.55l1.84.73a5,5,0,0,0-.47.93,10.34,10.34,0,0,0-.36,1.07,9,9,0,0,0-.25,1,4.92,4.92,0,0,0-.09.85q0,4.6,5.16,4.61a12.25,12.25,0,0,0,2.41-.23,13.2,13.2,0,0,0,2-.56,8,8,0,0,0,1.39-.64,2.22,2.22,0,0,0,.61-.47.24.24,0,0,0-.16-.19l-.3-.1-2.54-.61a6.09,6.09,0,0,1-.82-.23,3,3,0,0,1-.68-.37,1.51,1.51,0,0,1-.49-.57,2,2,0,0,1-.17-.87q0-3.74,5.6-3.74h2.33V321h-1.34l-1.35,0h-1.21c-.37,0-.69,0-.94,0-.66.06-1,.21-1,.44a.27.27,0,0,0,.1.19,1.13,1.13,0,0,0,.48.19l2.66.61a3.88,3.88,0,0,1,1.4.66,1.66,1.66,0,0,1,.52,1.38,3,3,0,0,1-.89,2.12,7.37,7.37,0,0,1-2.23,1.6,12.82,12.82,0,0,1-2.89,1A13.18,13.18,0,0,1,874.71,329.57Z"/><path class="cls-1" d="M884.25,321a.58.58,0,0,1-.51-.36,2.41,2.41,0,0,1-.19-1,2.46,2.46,0,0,1,.19-1.05.59.59,0,0,1,.51-.38h.44a10.26,10.26,0,0,0,2.1-.2,2.19,2.19,0,0,0,1.46-1.17c.33-.58.66-1.15,1-1.69a11.44,11.44,0,0,1,1-1.45,5.35,5.35,0,0,1,1-1,2,2,0,0,1,1.15-.36,2.32,2.32,0,0,1,1.52.52,4.34,4.34,0,0,1,1.08,1.36,7,7,0,0,1,.64,1.82,9.47,9.47,0,0,1,.21,2,3.44,3.44,0,0,1-.19,1.05,3.82,3.82,0,0,1-.53,1,2.85,2.85,0,0,1-.8.75,1.87,1.87,0,0,1-1,.29,4,4,0,0,1-1-.15,6.79,6.79,0,0,1-1.15-.39,8.66,8.66,0,0,1-1.14-.57,8,8,0,0,1-1-.64,4.81,4.81,0,0,1-1.74,1.31,5.71,5.71,0,0,1-2.23.38Zm9.49-3.3a3.23,3.23,0,0,0-.14-.9,4.29,4.29,0,0,0-.33-.85,2.07,2.07,0,0,0-.5-.62,1,1,0,0,0-.58-.28.51.51,0,0,0-.29,0c-.49.17-1,.87-1.58,2.1a3.24,3.24,0,0,0,.67.44l.83.38a6.4,6.4,0,0,0,.81.27,2.39,2.39,0,0,0,.61.11.5.5,0,0,0,.34-.15A.73.73,0,0,0,893.74,317.72Z"/><path class="cls-1" d="M909.64,318.63a6,6,0,0,1-.66,2.76,11,11,0,0,1-1.72,2.45,18.81,18.81,0,0,1-2.45,2.2q-1.39,1.05-2.82,2l-2-1.81c.89-.58,1.78-1.18,2.65-1.8s1.66-1.24,2.37-1.86a10.73,10.73,0,0,0,1.69-1.81,2.85,2.85,0,0,0,.64-1.65,3.25,3.25,0,0,0-.13-.84,8.72,8.72,0,0,0-.38-1.07c-.17-.37-.36-.76-.57-1.16a9.77,9.77,0,0,0-.7-1.13l1.95-1.92a9.93,9.93,0,0,1,.88,1.46,12.06,12.06,0,0,1,.64,1.5,11.2,11.2,0,0,1,.41,1.43A5.87,5.87,0,0,1,909.64,318.63Z"/><path class="cls-1" d="M915.85,320.53l-1.93.55-.46-19.23,2.39-1.1Z"/><path class="cls-1" d="M924.19,320.35a6.21,6.21,0,0,1-.71,2.66,10.81,10.81,0,0,1-1.72,2.37,19.48,19.48,0,0,1-2.41,2.15c-.89.68-1.81,1.33-2.74,2l-2-1.81c.9-.58,1.78-1.18,2.66-1.8s1.66-1.25,2.36-1.86a10.33,10.33,0,0,0,1.69-1.81,2.87,2.87,0,0,0,.65-1.65,3.32,3.32,0,0,0-.14-.84,7.2,7.2,0,0,0-.37-1.07c-.17-.37-.36-.76-.57-1.16a11.37,11.37,0,0,0-.7-1.13l1.95-2q.62,1,1.08,1.71a9,9,0,0,0,.9,1.18,3.11,3.11,0,0,0,.89.68,2.26,2.26,0,0,0,1,.22h1.08V321h-.93A3,3,0,0,1,924.19,320.35Z"/><path class="cls-1" d="M927.14,321a.59.59,0,0,1-.5-.35,2.19,2.19,0,0,1-.2-1.05,2.3,2.3,0,0,1,.2-1.05c.14-.25.31-.38.5-.38H930a12.8,12.8,0,0,0,1.41-.07,7.72,7.72,0,0,0,1.23-.23,2.94,2.94,0,0,0,.87-.41.93.93,0,0,0,.4-.57,2.62,2.62,0,0,0,0-.94,4.31,4.31,0,0,1-1.15.41,5.64,5.64,0,0,1-1.16.12,2.75,2.75,0,0,1-2.91-2.95,5.72,5.72,0,0,1,.26-1.73,4.89,4.89,0,0,1,.74-1.52,4,4,0,0,1,1.14-1.06,2.67,2.67,0,0,1,1.47-.41,2.33,2.33,0,0,1,1.81.76,5.35,5.35,0,0,1,1.11,1.86,10.48,10.48,0,0,1,.56,2.35A20.76,20.76,0,0,1,936,316a4.6,4.6,0,0,1-1.5,3.84,6.77,6.77,0,0,1-4.28,1.18Zm3.12-14.23-2-1.64,1.51-1.84,2,1.64Zm1.66,7.32a2.87,2.87,0,0,0,1.76-.53,6.13,6.13,0,0,0-.63-1.59,1.17,1.17,0,0,0-1-.65,1.25,1.25,0,0,0-1,.51,1.69,1.69,0,0,0-.41,1.06,1.09,1.09,0,0,0,.37.86A1.35,1.35,0,0,0,931.92,314.11Zm2-7.32-2-1.64,1.58-1.84,1.93,1.64Z"/><path class="cls-1" d="M950.77,321H949.6a3.87,3.87,0,0,1-2.21-.57,4,4,0,0,1-1.32-1.47,6.68,6.68,0,0,1-.64-2,19.37,19.37,0,0,1-.2-2.25c0-2.06-.08-4.19-.13-6.37s-.16-4.34-.34-6.44l2.42-1.13c0,1.77.06,3.79.11,6.08s.1,4.65.16,7.1c0,.47,0,1,.07,1.46a4.75,4.75,0,0,0,.32,1.37,2.45,2.45,0,0,0,.74,1,2.06,2.06,0,0,0,1.37.41h.82Z"/><path class="cls-1" d="M950.27,320.67a2.19,2.19,0,0,1-.2-1.05,2.3,2.3,0,0,1,.2-1.05c.14-.25.31-.38.5-.38h2a13.35,13.35,0,0,0,2.48-.2,9.08,9.08,0,0,0,1.89-.59c.57-.25,1.15-.53,1.75-.86s1.28-.67,2.08-1.06a13.92,13.92,0,0,1-1.33-.45l-1.32-.53-1.18-.44a3,3,0,0,0-.84-.19,1.56,1.56,0,0,0-.81.3,6.14,6.14,0,0,0-1.17,1.05l-1.6-.91a7.84,7.84,0,0,1,.71-1.06,10.79,10.79,0,0,1,.88-1,4.68,4.68,0,0,1,.94-.76,2,2,0,0,1,1-.29,4.79,4.79,0,0,1,1.82.41l2.14.89a25.58,25.58,0,0,0,2.57.89,11.22,11.22,0,0,0,3.12.41h.56l-.59,2.56a10,10,0,0,0-1.57.12,11.57,11.57,0,0,0-1.43.32A1.86,1.86,0,0,0,964,318a6.31,6.31,0,0,0,1.83.22h2.28V321h-2.48a8,8,0,0,1-1.59-.14,3,3,0,0,1-1.15-.53,3.24,3.24,0,0,1-.86-1,10,10,0,0,1-.72-1.66,21.73,21.73,0,0,0-2,1.21,18.36,18.36,0,0,1-1.78,1.08,8.92,8.92,0,0,1-2,.77,11.69,11.69,0,0,1-2.8.29h-1.93A.59.59,0,0,1,950.27,320.67Zm7,6.77-2-1.72,1.61-1.93,2,1.73Z"/><path class="cls-1" d="M968.13,321a.59.59,0,0,1-.5-.35,2.19,2.19,0,0,1-.2-1.05,2.3,2.3,0,0,1,.2-1.05c.14-.25.31-.38.5-.38h1.23a3.87,3.87,0,0,0,2-.47,1.75,1.75,0,0,0,.81-1.66v-1.22l1.95-.5a15.86,15.86,0,0,0,.07,1.62,3.19,3.19,0,0,0,.35,1.21,1.89,1.89,0,0,0,.82.76,3.49,3.49,0,0,0,1.47.26H978V321H976.5c-1.77,0-3-.6-3.59-1.81a3.23,3.23,0,0,1-1.44,1.34,4.36,4.36,0,0,1-2,.47Zm5-9.42-2-1.72,1.6-1.9,2,1.69Z"/><path class="cls-1" d="M985.37,316.79q0,4.23-4.84,4.23H978a.59.59,0,0,1-.5-.35,2.19,2.19,0,0,1-.2-1.05,2.26,2.26,0,0,1,.2-1.06.59.59,0,0,1,.5-.37h2.66c1.69,0,2.53-.39,2.53-1.16a1.8,1.8,0,0,0-.19-.75,6.48,6.48,0,0,0-.45-.86,9.26,9.26,0,0,0-.58-.86l-.58-.74,2-2.11a9.54,9.54,0,0,1,1.52,2.6A7.21,7.21,0,0,1,985.37,316.79Zm-5.48,7.12,2,1.63-1.57,1.87-1.93-1.66Zm3.67,0,1.93,1.63-1.55,1.87-2-1.66Z"/><path class="cls-1" d="M991.67,320.53l-1.92.55-.47-19.23,2.39-1.1Z"/><path class="cls-1" d="M466.88,129.59a8.17,8.17,0,0,1-4.37-1,6.87,6.87,0,0,1-2.51-2.68,11.21,11.21,0,0,1-1.17-3.8,41,41,0,0,1-.35-4.34c-.08-1.79-.14-3.8-.17-6s-.09-4.5-.15-6.83-.14-4.67-.23-7-.23-4.51-.38-6.54L463,88.75c0,2.18,0,4.42,0,6.74s.06,4.62.12,6.91.12,4.57.17,6.83.11,4.39.15,6.42c0,.93,0,1.83.06,2.71a8.14,8.14,0,0,0,.41,2.33A3.22,3.22,0,0,0,465,122.3a4,4,0,0,0,2.37.58h2.33v6.71Z"/><path class="cls-1" d="M498.16,129.59a18.74,18.74,0,0,1-3.09-.23,5.94,5.94,0,0,1-2.34-.91,6.71,6.71,0,0,1-1.81-1.89,14.39,14.39,0,0,1-1.51-3.27l-3.83,2.54a28.24,28.24,0,0,1-3.47,2,17.65,17.65,0,0,1-3.7,1.31,19.14,19.14,0,0,1-4.52.47h-4.15q-.64,0-1.05-.9a6,6,0,0,1-.41-2.42,6.27,6.27,0,0,1,.41-2.46q.4-.93,1.05-.93h4.32a26.71,26.71,0,0,0,4.06-.26,15.39,15.39,0,0,0,3.15-.88,27.55,27.55,0,0,0,3.29-1.57q1.76-1,4.44-2.37l-2.66-.81-2.42-.76c-.74-.23-1.38-.43-1.92-.58a4.91,4.91,0,0,0-1.23-.24,3,3,0,0,0-1.52.56,13,13,0,0,0-2.51,2.54L473,116.35a25.21,25.21,0,0,1,3.68-5.14,5.59,5.59,0,0,1,4-2.1,10.71,10.71,0,0,1,3.39.67l4.23,1.46c1.53.53,3.18,1,4.93,1.46a22.19,22.19,0,0,0,5.54.67h1.87l-1.28,5.95a18.85,18.85,0,0,0-3.3.41,14.85,14.85,0,0,0-2.89.93,9,9,0,0,0,1,1.29,2.87,2.87,0,0,0,.94.67,3.22,3.22,0,0,0,1.11.23c.4,0,.88,0,1.43,0h5.71v6.71Zm-15.7,11.55L478,137.35l3.56-4.2,4.43,3.74Z"/><path class="cls-1" d="M519.63,129.59a9.31,9.31,0,0,1-4-.76,6.43,6.43,0,0,1-2.74-2.51A7.47,7.47,0,0,1,510,128.8a9.87,9.87,0,0,1-4.2.79h-2.51q-.63,0-1.05-.9a6,6,0,0,1-.41-2.42,6.27,6.27,0,0,1,.41-2.46q.42-.93,1.05-.93h2.4a17.93,17.93,0,0,0,2.42-.14,3.66,3.66,0,0,0,1.57-.59,2.58,2.58,0,0,0,.91-1.22,7.07,7.07,0,0,0,.35-2v-2.45l4.84-1.22c0,1.44.05,2.64.15,3.62a6.48,6.48,0,0,0,.61,2.36,2.69,2.69,0,0,0,1.34,1.28,6,6,0,0,0,2.39.38H523v6.71ZM513,112.09l-4.44-3.74,3.56-4.2,4.44,3.74Z"/><path class="cls-1" d="M521.26,141.32,517,137.7l3.39-4,4.32,3.56Zm9.11-20a2.82,2.82,0,0,0-.27-1,11.48,11.48,0,0,0-.75-1.48c-.33-.57-.7-1.16-1.11-1.78a21.48,21.48,0,0,0-1.32-1.81l4.38-4.61a18.58,18.58,0,0,1,3.27,5.4,14.22,14.22,0,0,1,1,5c0,2.8-.78,4.94-2.34,6.39s-3.94,2.19-7.17,2.19H523c-.43,0-.78-.3-1.06-.9a6,6,0,0,1-.4-2.42,6.29,6.29,0,0,1,.4-2.46c.28-.62.63-.93,1.06-.93h3.09a10.06,10.06,0,0,0,3.09-.38C530,122.25,530.37,121.85,530.37,121.31Zm-1.64,20-4.26-3.62,3.39-4,4.26,3.56Z"/><path class="cls-1" d="M548.05,128.66l-5.49,1.22V91.37l5.49-2.62Z"/><path class="cls-1" d="M579.67,123.87A12,12,0,0,1,578.5,129a19.55,19.55,0,0,1-3.18,4.75,35.88,35.88,0,0,1-4.75,4.44,72.44,72.44,0,0,1-6,4.2l-4.5-4.26c2.14-1.28,4.11-2.57,5.9-3.85a44.8,44.8,0,0,0,4.55-3.68,21.52,21.52,0,0,0,2.92-3.26,5,5,0,0,0,1-2.69,5.26,5.26,0,0,0-.29-1.49,19.81,19.81,0,0,0-.79-2,20.39,20.39,0,0,0-1.2-2.22c-.47-.76-1-1.51-1.46-2.25l4.38-4.37a27.3,27.3,0,0,1,3.47,6.39A15.59,15.59,0,0,1,579.67,123.87Z"/><path class="cls-1" d="M606.69,120.66a10.22,10.22,0,0,1-1,4.85,7.54,7.54,0,0,1-2.65,2.91,10.28,10.28,0,0,1-3.91,1.41,30.91,30.91,0,0,1-4.7.35,14.58,14.58,0,0,1-4.84-.73,11.07,11.07,0,0,1-4.08-2.83l2.91-5.08a9.76,9.76,0,0,0,2.8,1.46,11.67,11.67,0,0,0,3.51.46,16.41,16.41,0,0,0,5.28-.67c1.26-.44,1.89-1,1.89-1.72q0-1.45-2.1-4a31.78,31.78,0,0,0-6.88-5.66l2.62-6.25a30.15,30.15,0,0,1,4.06,3,25.46,25.46,0,0,1,3.59,3.76,19.56,19.56,0,0,1,2.53,4.29A11.15,11.15,0,0,1,606.69,120.66Z"/><path class="cls-1" d="M653.77,129.59c-1.36,0-2.61-.09-3.76-.17s-2-.12-2.42-.12a4.33,4.33,0,0,0-1.66.23c-.33.16-.5.33-.5.53a.5.5,0,0,0,.23.44,4.59,4.59,0,0,0,1.05.32l4,.76a7,7,0,0,1,2.89,1.1,2.8,2.8,0,0,1,1,2.4,6.43,6.43,0,0,1-1.54,4.2,13.13,13.13,0,0,1-4,3.15,22.82,22.82,0,0,1-5.49,2,26.17,26.17,0,0,1-5.95.7,17.27,17.27,0,0,1-5.63-.87,12.05,12.05,0,0,1-4.32-2.54,11.42,11.42,0,0,1-2.77-4.14,15.46,15.46,0,0,1-1-5.75,16.38,16.38,0,0,1,.87-5.49,31.81,31.81,0,0,1,2.57-5.31l4.15,1.7a25.54,25.54,0,0,0-1.93,4.55,12.55,12.55,0,0,0-.58,3.5,7.13,7.13,0,0,0,2.36,5.75q2.35,2,6.86,2a26.54,26.54,0,0,0,3.76-.26,31.38,31.38,0,0,0,3.21-.64,21.19,21.19,0,0,0,2.48-.82c.7-.29,1.24-.54,1.63-.73a4.33,4.33,0,0,0-1.87-.58l-3-.65a6.57,6.57,0,0,1-3.06-1.34,4,4,0,0,1-1.2-3.27,6.36,6.36,0,0,1,2.6-5.42q2.6-1.94,8.08-1.93h3.79v6.71Z"/><path class="cls-1" d="M677.7,126a8.22,8.22,0,0,1-2.69,2.63,8,8,0,0,1-4.08.93,9.55,9.55,0,0,1-4.06-.73,6.1,6.1,0,0,1-2.65-2.77,7.17,7.17,0,0,1-2.77,2.69,7.36,7.36,0,0,1-3.36.81h-3.5q-.65,0-1.05-.9a6,6,0,0,1-.41-2.42,6.27,6.27,0,0,1,.41-2.46q.4-.93,1.05-.93h3.27a6.57,6.57,0,0,0,3.06-.67,2.42,2.42,0,0,0,1.32-2.36v-3.39l4.84-1.22c0,1.44,0,2.64.14,3.62a7.18,7.18,0,0,0,.59,2.36A2.63,2.63,0,0,0,669,122.5a4.73,4.73,0,0,0,2.07.38,8.65,8.65,0,0,0,2.31-.26,2.57,2.57,0,0,0,2-2.16,9.72,9.72,0,0,0,.18-2v-2l4.78-1.22a16.79,16.79,0,0,0,.73,5.8,3,3,0,0,0,3.12,1.84c2.3,0,3.45-.48,3.45-1.46a3.32,3.32,0,0,0-.27-1,11.54,11.54,0,0,0-.73-1.54c-.31-.57-.67-1.16-1.08-1.78a19.36,19.36,0,0,0-1.31-1.81l4.32-4.61a18.58,18.58,0,0,1,3.27,5.4,14.22,14.22,0,0,1,1,5,9.56,9.56,0,0,1-.64,3.53,7.63,7.63,0,0,1-1.81,2.72,8.37,8.37,0,0,1-2.75,1.72,9.52,9.52,0,0,1-3.5.61C681.08,129.59,678.9,128.41,677.7,126Z"/><path class="cls-1" d="M710.31,123.87a12,12,0,0,1-1.16,5.17,20.14,20.14,0,0,1-3.18,4.75,36,36,0,0,1-4.76,4.44,72.44,72.44,0,0,1-6,4.2l-4.49-4.26c2.14-1.28,4.1-2.57,5.89-3.85a43.72,43.72,0,0,0,4.55-3.68,21,21,0,0,0,2.92-3.26,5,5,0,0,0,1-2.69,5.26,5.26,0,0,0-.29-1.49,19.81,19.81,0,0,0-.79-2,20.39,20.39,0,0,0-1.2-2.22c-.46-.76-.95-1.51-1.45-2.25l4.37-4.37a26.94,26.94,0,0,1,3.47,6.39A15.59,15.59,0,0,1,710.31,123.87Z"/><path class="cls-1" d="M726.54,129.59a8.21,8.21,0,0,1-4.38-1,6.87,6.87,0,0,1-2.51-2.68,11.67,11.67,0,0,1-1.17-3.8,41,41,0,0,1-.35-4.34c-.08-1.79-.13-3.8-.17-6s-.09-4.5-.15-6.83-.13-4.67-.23-7-.23-4.51-.38-6.54l5.43-2.62c0,2.18,0,4.42,0,6.74s.05,4.62.11,6.91.12,4.57.18,6.83.1,4.39.14,6.42c0,.93,0,1.83.06,2.71a8.5,8.5,0,0,0,.41,2.33,3.18,3.18,0,0,0,1.14,1.61,3.93,3.93,0,0,0,2.36.58h2.34v6.71Z"/><path class="cls-1" d="M739.2,102.87a5.69,5.69,0,0,1,3.94,1.43,10.31,10.31,0,0,1,2.56,3.61,19.29,19.29,0,0,1,1.38,4.88,34.78,34.78,0,0,1,.4,5.19q0,6.12-2.88,8.87t-9.37,2.74H729.4c-.43,0-.78-.3-1.06-.9a6,6,0,0,1-.4-2.42,6.29,6.29,0,0,1,.4-2.46c.28-.62.63-.93,1.06-.93h6a19.51,19.51,0,0,0,4.29-.47,4.62,4.62,0,0,0,2.88-1.51,1.41,1.41,0,0,0,.21-.76c0-.35,0-.84,0-1.46a11.91,11.91,0,0,1-2.57.61,17.76,17.76,0,0,1-2.1.15q-6.54,0-6.54-6.89a11,11,0,0,1,.59-3.5,11.71,11.71,0,0,1,1.57-3.12,8.18,8.18,0,0,1,2.4-2.22A5.88,5.88,0,0,1,739.2,102.87Zm-.29-3.68-4.44-3.73,3.56-4.2L742.47,95Zm-.3,9.45a2.5,2.5,0,0,0-2,1,3.58,3.58,0,0,0-.81,2.22,1.9,1.9,0,0,0,.64,1.43,2.94,2.94,0,0,0,2.1.61,10.51,10.51,0,0,0,2.16-.2,7.73,7.73,0,0,0,1.63-.5A7.49,7.49,0,0,0,741,110,2.88,2.88,0,0,0,738.61,108.64Z"/><path class="cls-1" d="M777.59,138.46a14.78,14.78,0,0,1-5.16-.87,11.46,11.46,0,0,1-4.09-2.57,12,12,0,0,1-2.71-4.17,15.46,15.46,0,0,1-1-5.75,16.45,16.45,0,0,1,.87-5.46,29.51,29.51,0,0,1,2.57-5.28l4.14,1.64a25.44,25.44,0,0,0-1.92,4.58,12.76,12.76,0,0,0-.59,3.47A7.28,7.28,0,0,0,772,129.8a8.93,8.93,0,0,0,6.13,2q4.73,0,7.29-2.66t2.57-8.43c0-1,0-2.71-.09-5s-.14-4.89-.23-7.84-.19-6.12-.27-9.49-.13-6.68-.17-9.94l5.48-2.63.41,34.66q0,9-4.08,13.48T777.59,138.46Z"/><path class="cls-1" d="M808.57,109.4a6.53,6.53,0,0,1,3.56,1,8.54,8.54,0,0,1,2.66,2.72,13.51,13.51,0,0,1,1.63,4,19.43,19.43,0,0,1,.56,4.69,16.5,16.5,0,0,1-1.11,6.13,20.11,20.11,0,0,1-3.15,5.31,31.23,31.23,0,0,1-4.9,4.75,65.24,65.24,0,0,1-6.42,4.41l-4.5-4.2q2.8-1.63,5.28-3.27t4.44-3.21a39,39,0,0,0,3.35-3,10.85,10.85,0,0,0,2-2.6,7.24,7.24,0,0,1-2.63.79c-.93.1-1.61.14-2,.14a7,7,0,0,1-4.7-1.63,6.12,6.12,0,0,1-1.89-4.9,14.23,14.23,0,0,1,.58-4,13,13,0,0,1,1.63-3.56,8.9,8.9,0,0,1,2.51-2.53A5.59,5.59,0,0,1,808.57,109.4Zm-.52,6.13a2.4,2.4,0,0,0-1.2.32,2.91,2.91,0,0,0-.93.85,5.19,5.19,0,0,0-.61,1.1,2.93,2.93,0,0,0-.24,1.11,1.82,1.82,0,0,0,.79,1.52,3.63,3.63,0,0,0,2.19.58,10.06,10.06,0,0,0,2.19-.23,8.72,8.72,0,0,0,1.72-.52,7.72,7.72,0,0,0-1.37-3.39A3.09,3.09,0,0,0,808.05,115.53Z"/><path class="cls-1" d="M829.46,128.66,824,129.88V91.37l5.48-2.62Z"/><path class="cls-1" d="M895.11,129.59a10,10,0,0,1-2.92-.38,9.21,9.21,0,0,1-2.6-1.28,18.8,18.8,0,0,1-2.8-2.45c-1-1-2.15-2.33-3.47-3.88a10.69,10.69,0,0,1-.88,2.33,7.26,7.26,0,0,1-3,3.5,17.66,17.66,0,0,1-4.87,2.07,33.29,33.29,0,0,1-5.66,1c-2,.17-3.77.26-5.4.26q-3.21,0-6.21-.26a17.86,17.86,0,0,1-5.31-1.23,8.44,8.44,0,0,1-3.68-2.83,8.32,8.32,0,0,1-1.37-5,12.56,12.56,0,0,1,.58-3.41,18.86,18.86,0,0,1,1.75-4.06l4.15,1.46a19.43,19.43,0,0,0-1.06,2.8,8.29,8.29,0,0,0-.29,2.05,2.33,2.33,0,0,0,1,1.92,6.72,6.72,0,0,0,2.65,1.17,22.85,22.85,0,0,0,3.91.55c1.48.1,3.07.15,4.78.15q2.16,0,4.56-.18a35.44,35.44,0,0,0,4.55-.61,17.82,17.82,0,0,0,3.79-1.17,4.88,4.88,0,0,0,2.28-1.78,8.34,8.34,0,0,0-.88-2.33,14,14,0,0,0-1.81-2.48,38.42,38.42,0,0,0-2.86-2.86l-4-3.59a28.51,28.51,0,0,1,.58-4.2,3.24,3.24,0,0,1,1-1.87q4-2.67,10-5.89T895,90.5l-.88,7.06q-5.42,2.32-10.15,4.75t-7.7,4.23q3.5,3.15,7,6.83t6.83,7a9.26,9.26,0,0,0,2.62,2,6.19,6.19,0,0,0,2.57.55h2.63v6.71ZM888.8,91c-2.56,1.25-5.3,2.67-8.19,4.26s-6,3.43-9.19,5.49l.52-4.14q4.72-3.16,9.13-5.63t8.26-4.41Z"/><path class="cls-1" d="M914.24,129.59a9.26,9.26,0,0,1-4-.76,6.45,6.45,0,0,1-2.75-2.51,7.44,7.44,0,0,1-2.91,2.48,9.87,9.87,0,0,1-4.2.79h-2.51q-.64,0-1-.9a5.86,5.86,0,0,1-.41-2.42,6.09,6.09,0,0,1,.41-2.46q.4-.93,1-.93h2.39a17.82,17.82,0,0,0,2.42-.14,3.61,3.61,0,0,0,1.57-.59,2.58,2.58,0,0,0,.91-1.22,7.07,7.07,0,0,0,.35-2v-2.45l4.84-1.22c0,1.44.05,2.64.15,3.62a6.69,6.69,0,0,0,.61,2.36,2.69,2.69,0,0,0,1.34,1.28,6.05,6.05,0,0,0,2.4.38h2.74v6.71Zm-6.59-17.5-4.43-3.74,3.55-4.2,4.44,3.74Z"/><path class="cls-1" d="M915.88,141.32l-4.26-3.62,3.38-4,4.32,3.56Zm9.1-20a3,3,0,0,0-.26-1,13.19,13.19,0,0,0-.76-1.48c-.33-.57-.7-1.16-1.11-1.78s-.85-1.23-1.31-1.81l4.37-4.61a18.58,18.58,0,0,1,3.27,5.4,14.22,14.22,0,0,1,1.05,5c0,2.8-.78,4.94-2.33,6.39s-3.95,2.19-7.18,2.19h-3.09q-.64,0-1-.9a6,6,0,0,1-.41-2.42,6.27,6.27,0,0,1,.41-2.46q.4-.93,1-.93h3.09a10.06,10.06,0,0,0,3.09-.38C924.59,122.25,925,121.85,925,121.31Zm-1.63,20-4.26-3.62,3.38-4,4.26,3.56Z"/><path class="cls-1" d="M961.27,129.59a9.6,9.6,0,0,1-2.18-.23,6.09,6.09,0,0,1-1.73-.7,5.65,5.65,0,0,1-1.4-1.26,17.51,17.51,0,0,1-1.34-2,8.11,8.11,0,0,1-4,3.79,16.61,16.61,0,0,1-5.93.94,13.12,13.12,0,0,1-4.66-.76,11.3,11.3,0,0,1-4-2.8l2.92-5.08a8.86,8.86,0,0,0,2.74,1.46,11.6,11.6,0,0,0,3.5.46,13.92,13.92,0,0,0,4.84-.7c1.25-.46,1.87-1.12,1.87-2a8.3,8.3,0,0,0-.5-2.1c-.33-1-.74-2.14-1.22-3.38s-1-2.55-1.61-3.91l-1.63-3.8L951.3,103l5.42,14.42c.35,1,.67,1.85,1,2.54a8.48,8.48,0,0,0,.93,1.69,2.94,2.94,0,0,0,1.14,1,3.84,3.84,0,0,0,1.63.29h2.33v6.71Z"/><path class="cls-1" d="M970.49,109.75l2.57-5.25q4.38,3,7.61,5.37a40,40,0,0,1,5.34,4.61,17.27,17.27,0,0,1,3.15,4.46,11.36,11.36,0,0,1,1.05,4.87,10,10,0,0,1-.32,2.51,6.58,6.58,0,0,1-1,2.28,5.94,5.94,0,0,1-1.72,1.63,4.44,4.44,0,0,1-2.42.65,7.38,7.38,0,0,1-1.87-.3,24.29,24.29,0,0,1-2.36-.75c-.84-.32-1.68-.67-2.54-1.05s-1.63-.76-2.33-1.11a9.57,9.57,0,0,1-3.88,1.54,23.76,23.76,0,0,1-4.17.38h-3.86q-.63,0-1.05-.9a6,6,0,0,1-.4-2.42,6.29,6.29,0,0,1,.4-2.46q.42-.93,1.05-.93h3.91c.55,0,1.11,0,1.7-.06a5.33,5.33,0,0,1-1.9-2.07,5.11,5.11,0,0,1-.44-2,8.9,8.9,0,0,1,1.29-4.38,9.46,9.46,0,0,1,3.67-3.62Zm5.14,4.38a3.08,3.08,0,0,0-1.46.41,5.69,5.69,0,0,0-1.37,1,6.26,6.26,0,0,0-1,1.31,2.62,2.62,0,0,0-.41,1.34,1.78,1.78,0,0,0,.41,1.08,4.38,4.38,0,0,0,1.05,1,11,11,0,0,0,1.4.81,7.28,7.28,0,0,0,1.4.56,2.67,2.67,0,0,0,1.51-1.23,3.79,3.79,0,0,0,.65-2.1,6.1,6.1,0,0,0-.67-3C976.67,114.52,976.17,114.13,975.63,114.13Zm5.66,3.21a5.55,5.55,0,0,1,.06.82V119a8.78,8.78,0,0,1-.59,2.45,5.3,5.3,0,0,1-1.28,1.93,9.17,9.17,0,0,0,1.22.61l1.52.64c.51.22,1,.39,1.4.53a3.75,3.75,0,0,0,.94.2.9.9,0,0,0,.78-.55,2.19,2.19,0,0,0,.32-1.14,6.12,6.12,0,0,0-.9-2.86A11.25,11.25,0,0,0,981.29,117.34Z"/><path class="cls-1" d="M787.86,190.68a10.35,10.35,0,0,1-1,4.85,7.65,7.65,0,0,1-2.65,2.92,10.51,10.51,0,0,1-3.91,1.4,31,31,0,0,1-4.7.35,14.54,14.54,0,0,1-4.84-.73,11,11,0,0,1-4.09-2.83l2.92-5.08a9.63,9.63,0,0,0,2.8,1.46,11.6,11.6,0,0,0,3.5.46,16.32,16.32,0,0,0,5.28-.67c1.27-.44,1.9-1,1.9-1.72q0-1.46-2.1-4a32.79,32.79,0,0,0-6.89-5.66l2.63-6.24a30.08,30.08,0,0,1,4,2.95,25,25,0,0,1,3.59,3.76,19.61,19.61,0,0,1,2.54,4.29A11.31,11.31,0,0,1,787.86,190.68Z"/><path class="cls-1" d="M808.46,199.61a12.35,12.35,0,0,1-1.87-.14,3.36,3.36,0,0,1-1.63-.79,12.41,12.41,0,0,1-1.52,4.52,20.91,20.91,0,0,1-3.15,4.23,38,38,0,0,1-4.52,4q-2.6,2-5.57,3.91l-4.5-4.26q3.21-1.94,5.9-3.85a46.21,46.21,0,0,0,4.55-3.68,21.54,21.54,0,0,0,2.92-3.27,4.9,4.9,0,0,0,1-2.68,8.67,8.67,0,0,0-1-3.36,35.41,35.41,0,0,0-2.69-4.58l4.44-4.43c.81,1.4,1.52,2.59,2.13,3.56a19.79,19.79,0,0,0,1.66,2.36,5.25,5.25,0,0,0,1.52,1.31,3.41,3.41,0,0,0,1.69.41h2.33v6.71Z"/><path class="cls-1" d="M826.49,199.61a9.31,9.31,0,0,1-4-.76,6.43,6.43,0,0,1-2.74-2.51,7.47,7.47,0,0,1-2.92,2.48,9.87,9.87,0,0,1-4.2.79h-2.51q-.64,0-1-.9a6,6,0,0,1-.41-2.42,6.31,6.31,0,0,1,.41-2.46q.4-.93,1-.93h2.39a18,18,0,0,0,2.43-.14,3.66,3.66,0,0,0,1.57-.59,2.58,2.58,0,0,0,.91-1.22,7.07,7.07,0,0,0,.35-2v-2.45l4.84-1.22c0,1.44.05,2.64.15,3.62a6.48,6.48,0,0,0,.61,2.36,2.69,2.69,0,0,0,1.34,1.28,6,6,0,0,0,2.39.38h2.74v6.71Zm-10.56,11.73-4.26-3.62,3.38-4,4.32,3.56Zm7.47,0-4.26-3.62,3.38-4,4.26,3.56Z"/><path class="cls-1" d="M846.21,189.63a10.1,10.1,0,0,1-.84,4.2A9,9,0,0,1,843,197a10.5,10.5,0,0,1-3.64,1.95,15.52,15.52,0,0,1-4.7.67h-4.79q-.63,0-1-.9a6,6,0,0,1-.4-2.42,6.32,6.32,0,0,1,.4-2.46q.42-.93,1-.93H835a10.84,10.84,0,0,0,4.46-.7,4.41,4.41,0,0,0,2.08-1.75,10.44,10.44,0,0,0-3-5.07,59.6,59.6,0,0,0-7.56-6.31,32,32,0,0,1,.56-4.2,3.12,3.12,0,0,1,1-1.87c1.29-.85,2.72-1.74,4.29-2.65s3.19-1.82,4.84-2.71,3.29-1.75,4.91-2.57,3.1-1.56,4.46-2.22l-.88,7.06q-3.79,1.69-6.94,3.33t-6,3.32Q846.22,183.75,846.21,189.63Zm2.51-28.06q-3.74,1.86-7.88,4.14T832.09,171l.53-4.2q4.54-3,8.69-5.31c2.76-1.55,5.43-3,8-4.26Z"/><path class="cls-1" d="M882.74,199.61c-1.36,0-2.62-.09-3.76-.17s-2-.12-2.43-.12a4.33,4.33,0,0,0-1.66.23c-.33.16-.5.33-.5.53a.49.49,0,0,0,.24.44,4.26,4.26,0,0,0,1,.32l4,.76a6.88,6.88,0,0,1,2.88,1.11,2.78,2.78,0,0,1,1,2.39,6.44,6.44,0,0,1-1.55,4.2,12.89,12.89,0,0,1-4,3.15,22.74,22.74,0,0,1-5.48,2,26.3,26.3,0,0,1-5.95.7,17.34,17.34,0,0,1-5.64-.87,11.93,11.93,0,0,1-4.31-2.54,11.3,11.3,0,0,1-2.77-4.14,15.26,15.26,0,0,1-1-5.75,16.38,16.38,0,0,1,.88-5.49,31,31,0,0,1,2.57-5.31l4.14,1.7a25.54,25.54,0,0,0-1.93,4.55,12.55,12.55,0,0,0-.58,3.5,7.17,7.17,0,0,0,2.36,5.75c1.58,1.34,3.86,2,6.86,2a26.43,26.43,0,0,0,3.76-.26,28.32,28.32,0,0,0,3.21-.65,19.56,19.56,0,0,0,2.48-.81c.7-.29,1.25-.54,1.64-.73a4.38,4.38,0,0,0-1.87-.58l-3-.65a6.61,6.61,0,0,1-3.06-1.34,4,4,0,0,1-1.2-3.27,6.36,6.36,0,0,1,2.6-5.42c1.73-1.29,4.43-1.93,8.08-1.93h3.8v6.71Z"/><path class="cls-1" d="M898.32,181.7a5.08,5.08,0,0,1,3.12,1,8.73,8.73,0,0,1,2.33,2.68,14.4,14.4,0,0,1,1.49,3.71,16.55,16.55,0,0,1,.53,4.14,6.68,6.68,0,0,1-.47,2.39,8.55,8.55,0,0,1-1.23,2.22,6.36,6.36,0,0,1-1.75,1.61,3.81,3.81,0,0,1-2,.61,9.59,9.59,0,0,1-2.07-.26,20.41,20.41,0,0,1-2.33-.7,19.27,19.27,0,0,1-2.37-1.08,18.64,18.64,0,0,1-2.16-1.4,8.25,8.25,0,0,1-3,2.33,10.17,10.17,0,0,1-3.85.64h-.93q-.64,0-1-1a5.85,5.85,0,0,1-.41-2.25,6.47,6.47,0,0,1,.41-2.36q.4-1.08,1-1.08h.7a12.57,12.57,0,0,0,3-.35,3.51,3.51,0,0,0,2.28-1.81c.62-1.16,1.26-2.29,1.92-3.38a21.68,21.68,0,0,1,2.07-2.89,10.37,10.37,0,0,1,2.25-2A4.48,4.48,0,0,1,898.32,181.7Zm-.59,6.18a2.56,2.56,0,0,0-1.8,1,10.71,10.71,0,0,0-1.81,2.85,8,8,0,0,0,1.34.88,11.32,11.32,0,0,0,1.55.7,10.56,10.56,0,0,0,1.54.44,6.94,6.94,0,0,0,1.34.14,1.47,1.47,0,0,0,.76-.23,1.17,1.17,0,0,0,.53-.53,6.14,6.14,0,0,0-.27-1.77,6.47,6.47,0,0,0-.75-1.7,5.2,5.2,0,0,0-1.11-1.28A2.07,2.07,0,0,0,897.73,187.88Z"/><path class="cls-1" d="M937.18,193.89a12,12,0,0,1-1.17,5.17,20.14,20.14,0,0,1-3.18,4.75,36.52,36.52,0,0,1-4.75,4.44,72.65,72.65,0,0,1-6,4.2l-4.49-4.26c2.14-1.28,4.11-2.57,5.89-3.85a46.43,46.43,0,0,0,4.56-3.68,20.51,20.51,0,0,0,2.91-3.27,4,4,0,0,0,.76-4.17,17.66,17.66,0,0,0-.79-2,22.1,22.1,0,0,0-1.19-2.22c-.47-.76-1-1.51-1.46-2.24l4.38-4.38a27.3,27.3,0,0,1,3.47,6.39A15.59,15.59,0,0,1,937.18,193.89Z"/><path class="cls-1" d="M949.66,198.68l-5.48,1.22V161.39l5.48-2.62Z"/><path class="cls-1" d="M970.49,199.61a12.12,12.12,0,0,1-1.86-.14,3.39,3.39,0,0,1-1.64-.79,12.39,12.39,0,0,1-1.51,4.52,21.69,21.69,0,0,1-3.15,4.23,38.92,38.92,0,0,1-4.53,4q-2.59,2-5.57,3.91l-4.49-4.26q3.21-1.94,5.89-3.85a45.06,45.06,0,0,0,4.55-3.68,21,21,0,0,0,2.92-3.27,4.9,4.9,0,0,0,1-2.68,8.67,8.67,0,0,0-1-3.36,36.46,36.46,0,0,0-2.68-4.58l4.43-4.43c.82,1.4,1.53,2.59,2.13,3.56a21,21,0,0,0,1.66,2.36,5.38,5.38,0,0,0,1.52,1.31,3.44,3.44,0,0,0,1.69.41h2.34v6.71Z"/><path class="cls-1" d="M982,172.89a5.69,5.69,0,0,1,3.94,1.43,10.31,10.31,0,0,1,2.56,3.61,19.29,19.29,0,0,1,1.38,4.88,34.78,34.78,0,0,1,.4,5.19q0,6.12-2.88,8.87T978,199.61h-5.83q-.65,0-1.05-.9a5.82,5.82,0,0,1-.41-2.42,6.13,6.13,0,0,1,.41-2.46q.4-.93,1.05-.93h5.95a19.44,19.44,0,0,0,4.29-.47,4.62,4.62,0,0,0,2.88-1.51,1.41,1.41,0,0,0,.21-.76c0-.35,0-.84,0-1.46a11.91,11.91,0,0,1-2.57.61,17.76,17.76,0,0,1-2.1.15q-6.54,0-6.53-6.89a11,11,0,0,1,.58-3.5A11.71,11.71,0,0,1,976.5,176a8.31,8.31,0,0,1,2.4-2.22A5.88,5.88,0,0,1,982,172.89Zm-4-3.68-4.26-3.56,3.39-4,4.32,3.5Zm3.45,9.45a2.51,2.51,0,0,0-2,1.05,3.58,3.58,0,0,0-.81,2.22,1.9,1.9,0,0,0,.64,1.43,3,3,0,0,0,2.1.61,10.44,10.44,0,0,0,2.16-.2,7.73,7.73,0,0,0,1.63-.5,7.49,7.49,0,0,0-1.34-3.29A2.87,2.87,0,0,0,981.41,178.66Zm4-9.45-4.26-3.56,3.39-4,4.26,3.5Z"/><rect class="cls-1" x="950.4" y="240.65" width="43.2" height="4.32"/><rect class="cls-2" x="993.58" y="1833.63" width="86.37" height="21.59"/><rect class="cls-2" x="993.58" y="1898.41" width="86.37" height="21.59"/><rect class="cls-2" x="989.72" y="1866.04" width="94.13" height="21.59" transform="translate(-956.44 1086.59) rotate(-39.46)"/><rect class="cls-2" x="993.6" y="321.02" width="86.37" height="21.59"/><rect class="cls-2" x="993.6" y="385.8" width="86.37" height="21.59"/><rect class="cls-2" x="989.74" y="353.43" width="94.13" height="21.59" transform="translate(4.82 741.89) rotate(-39.46)"/><rect class="cls-2" y="1833.63" width="86.37" height="21.59"/><rect class="cls-2" y="1898.41" width="86.37" height="21.59"/><rect class="cls-2" x="-3.86" y="1866.04" width="94.13" height="21.59" transform="translate(-1182.87 455.17) rotate(-39.46)"/><rect class="cls-3" y="1833.1" width="1080" height="1"/><rect class="cls-4" y="407.28" width="1080" height="1"/><rect class="cls-5" x="993.13" width="1" height="1920"/><rect class="cls-6" x="85.87" width="1" height="1920"/><rect class="cls-2" x="993.58" width="86.37" height="21.59"/><rect class="cls-2" x="993.58" y="64.78" width="86.37" height="21.59"/><rect class="cls-2" x="989.72" y="32.41" width="94.13" height="21.59" transform="translate(208.82 668.72) rotate(-39.46)"/><rect class="cls-2" width="86.37" height="21.59"/><rect class="cls-2" y="64.78" width="86.37" height="21.59"/><rect class="cls-2" x="-3.86" y="32.41" width="94.13" height="21.59" transform="translate(-17.61 37.3) rotate(-39.46)"/><rect class="cls-2" x="993.6" y="199.63" width="86.37" height="21.59"/><rect class="cls-2" x="993.6" y="264.41" width="86.37" height="21.59"/><rect class="cls-2" x="989.74" y="232.04" width="94.13" height="21.59" transform="translate(81.96 714.22) rotate(-39.46)"/><rect class="cls-7" y="85.87" width="1080" height="1"/><rect class="cls-8" y="199.11" width="1080" height="1"/><rect class="cls-9" y="285.51" width="1080" height="1"/><rect class="cls-10" y="320.13" width="1080" height="1"/><rect class="cls-11" y="242.29" width="1080" height="1"/></g><g id="Layer_1" data-name="Layer 1"><polygon class="cls-1" points="475.25 1833.6 442.75 1833.6 465.72 1797.6 446.45 1797.6 446.45 1790.4 478.85 1790.4 455.89 1826.4 475.25 1826.4 475.25 1833.6"/><polygon class="cls-1" points="514.76 1833.6 486.06 1833.6 485.95 1790.4 514.76 1790.4 514.76 1797.6 493.17 1797.6 493.24 1826.4 514.76 1826.4 514.76 1833.6"/><rect class="cls-1" x="489.56" y="1808.4" width="25.2" height="7.2"/><polygon class="cls-1" points="554.45 1833.6 525.65 1833.6 525.65 1790.4 554.45 1790.4 554.45 1797.6 532.85 1797.6 532.85 1826.4 554.45 1826.4 554.45 1833.6"/><rect class="cls-1" x="529.25" y="1808.4" width="25.2" height="7.2"/><polygon class="cls-1" points="594.05 1833.6 565.25 1833.6 565.25 1790.4 594.05 1790.4 594.05 1797.6 572.45 1797.6 572.45 1826.4 594.05 1826.4 594.05 1833.6"/><rect class="cls-1" x="568.85" y="1808.4" width="25.2" height="7.2"/><polygon class="cls-1" points="637.25 1833.6 630.08 1833.6 612.05 1804.18 612.05 1833.6 604.85 1833.6 604.85 1790.4 612.04 1790.4 630.05 1819.78 630.05 1790.4 637.25 1790.4 637.25 1833.6"/><path class="cls-1" d="M97.77,1820.79l-9.08,11.14H98v1.67H86.4V1832l9.16-11.26H86.88v-1.66H97.77Z"/><path class="cls-1" d="M107.06,1832.32a3.7,3.7,0,0,0,4-3.34l1.9.3a5,5,0,0,1-1.91,3.42,6.33,6.33,0,0,1-4,1.26,6.52,6.52,0,0,1-5.11-2,8.24,8.24,0,0,1-1.76-5.67,7.94,7.94,0,0,1,1.84-5.51,6.35,6.35,0,0,1,5-2.06,5.86,5.86,0,0,1,4.57,1.78,7.22,7.22,0,0,1,1.62,5v1.23H102.24C102.36,1830.47,104,1832.32,107.06,1832.32Zm-.1-11.94a4.31,4.31,0,0,0-3.23,1.21,5.77,5.77,0,0,0-1.43,3.55h8.77Q110.86,1820.39,107,1820.38Z"/><path class="cls-1" d="M122.8,1832.32a3.7,3.7,0,0,0,4-3.34l1.9.3a5,5,0,0,1-1.91,3.42,6.33,6.33,0,0,1-4,1.26,6.54,6.54,0,0,1-5.11-2,8.24,8.24,0,0,1-1.76-5.67,7.94,7.94,0,0,1,1.84-5.51,6.35,6.35,0,0,1,5-2.06,5.86,5.86,0,0,1,4.57,1.78,7.22,7.22,0,0,1,1.62,5v1.23H118C118.1,1830.47,119.7,1832.32,122.8,1832.32Zm-.1-11.94a4.31,4.31,0,0,0-3.23,1.21,5.77,5.77,0,0,0-1.43,3.55h8.77Q126.6,1820.39,122.7,1820.38Z"/><path class="cls-1" d="M138.54,1832.32a3.71,3.71,0,0,0,4-3.34l1.89.3a4.94,4.94,0,0,1-1.91,3.42,6.31,6.31,0,0,1-4,1.26,6.55,6.55,0,0,1-5.11-2,8.24,8.24,0,0,1-1.76-5.67,8,8,0,0,1,1.84-5.51,6.36,6.36,0,0,1,5-2.06,5.86,5.86,0,0,1,4.57,1.78,7.23,7.23,0,0,1,1.63,5v1.23H133.72C133.84,1830.47,135.44,1832.32,138.54,1832.32Zm-.1-11.94a4.32,4.32,0,0,0-3.23,1.21,5.77,5.77,0,0,0-1.43,3.55h8.78Q142.33,1820.39,138.44,1820.38Z"/><path class="cls-1" d="M160.46,1824.21v9.39h-2v-9a4.34,4.34,0,0,0-1-3,3.64,3.64,0,0,0-2.81-1.07,3.94,3.94,0,0,0-3.22,1.33,5.93,5.93,0,0,0-1.1,3.87v7.91h-2v-14.5h2V1821a5.16,5.16,0,0,1,4.65-2.26,5,5,0,0,1,5.45,5.45Z"/><path class="cls-1" d="M164.65,1830.77h2.69v2.83h-2.69Z"/><path class="cls-1" d="M173.7,1816.51h-2v-3.34h2Zm0,17.09h-2v-14.5h2Z"/><path class="cls-1" d="M180.34,1833.6h-2v-14.5h2v2.83a4.58,4.58,0,0,1,4.31-2.83h1.08V1821h-1.08a3.63,3.63,0,0,0-3.12,1.77,8.2,8.2,0,0,0-1.19,4.66Z"/><path class="cls-12" d="M540,407.42h0A454.17,454.17,0,0,1,994.17,861.59V1704.2a0,0,0,0,1,0,0H85.83a0,0,0,0,1,0,0V861.59A454.17,454.17,0,0,1,540,407.42Z"/></g></svg>