<svg xmlns="http://www.w3.org/2000/svg" xmlns:xlink="http://www.w3.org/1999/xlink" viewBox="0 0 1080 1080"><defs><style>.cls-1{fill:#4672e2;}.cls-2{fill:#061f6b;}.cls-3{fill:url(#linear-gradient);}.cls-4{fill:url(#linear-gradient-2);}.cls-5{fill:url(#linear-gradient-3);}.cls-6{fill:url(#linear-gradient-4);}.cls-7{fill:url(#linear-gradient-5);}.cls-8{fill:#fff;}.cls-9{fill:url(#linear-gradient-6);}.cls-10{fill:url(#linear-gradient-7);}.cls-11{fill:url(#linear-gradient-8);}.cls-12{fill:url(#linear-gradient-9);}</style><linearGradient id="linear-gradient" x1="9543.72" y1="4218.45" x2="9543.72" y2="3138.45" gradientTransform="translate(4218.45 -9414.13) rotate(90)" gradientUnits="userSpaceOnUse"><stop offset="0" stop-color="#fff" stop-opacity="0"/><stop offset="1" stop-color="#fff"/></linearGradient><linearGradient id="linear-gradient-2" x1="9630.12" y1="4218.45" x2="9630.12" y2="3138.45" xlink:href="#linear-gradient"/><linearGradient id="linear-gradient-3" x1="10278.13" y1="4218.45" x2="10278.13" y2="3138.45" xlink:href="#linear-gradient"/><linearGradient id="linear-gradient-4" x1="10364.5" y1="4218.45" x2="10364.5" y2="3138.45" xlink:href="#linear-gradient"/><linearGradient id="linear-gradient-5" x1="9586.9" y1="4218.45" x2="9586.9" y2="3138.45" xlink:href="#linear-gradient"/><linearGradient id="linear-gradient-6" x1="3267.35" y1="4218.45" x2="3267.35" y2="3138.45" gradientTransform="translate(-3138.45 3353.72) rotate(-90)" gradientUnits="userSpaceOnUse"><stop offset="0" stop-color="#fff" stop-opacity="0"/><stop offset="0.51" stop-color="#fff"/><stop offset="1" stop-color="#fff" stop-opacity="0"/></linearGradient><linearGradient id="linear-gradient-7" x1="2360.09" y1="4218.45" x2="2360.09" y2="3138.45" xlink:href="#linear-gradient-6"/><linearGradient id="linear-gradient-8" x1="21411.35" y1="6234.44" x2="21411.35" y2="5154.44" gradientTransform="translate(-20417.72 -5154.44)" xlink:href="#linear-gradient-6"/><linearGradient id="linear-gradient-9" x1="20504.09" y1="6234.44" x2="20504.09" y2="5154.44" gradientTransform="translate(-20417.72 -5154.44)" xlink:href="#linear-gradient-6"/></defs><g id="Graphic"><polygon class="cls-1" points="475.25 993.6 442.75 993.6 465.72 957.6 446.45 957.6 446.45 950.4 478.85 950.4 455.89 986.4 475.25 986.4 475.25 993.6"/><polygon class="cls-1" points="514.76 993.6 486.06 993.6 485.95 950.4 514.76 950.4 514.76 957.6 493.17 957.6 493.24 986.4 514.76 986.4 514.76 993.6"/><rect class="cls-1" x="489.56" y="968.4" width="25.2" height="7.2"/><polygon class="cls-1" points="554.45 993.6 525.65 993.6 525.65 950.4 554.45 950.4 554.45 957.6 532.85 957.6 532.85 986.4 554.45 986.4 554.45 993.6"/><rect class="cls-1" x="529.25" y="968.4" width="25.2" height="7.2"/><polygon class="cls-1" points="594.05 993.6 565.25 993.6 565.25 950.4 594.05 950.4 594.05 957.6 572.45 957.6 572.45 986.4 594.05 986.4 594.05 993.6"/><rect class="cls-1" x="568.85" y="968.4" width="25.2" height="7.2"/><polygon class="cls-1" points="637.25 993.6 630.08 993.6 612.05 964.18 612.05 993.6 604.85 993.6 604.85 950.4 612.04 950.4 630.05 979.78 630.05 950.4 637.25 950.4 637.25 993.6"/><rect class="cls-1" x="950.4" y="170.63" width="43.2" height="4.32"/><path class="cls-1" d="M100.38,980.79,91.3,991.93h9.32v1.67H89V992l9.16-11.26H89.49V979.1h10.89Z"/><path class="cls-1" d="M109.66,992.32a3.71,3.71,0,0,0,4-3.34l1.89.3a5,5,0,0,1-1.9,3.42,6.36,6.36,0,0,1-4,1.26,6.51,6.51,0,0,1-5.1-2,8.2,8.2,0,0,1-1.76-5.67,8,8,0,0,1,1.83-5.51,6.36,6.36,0,0,1,5-2.06,5.85,5.85,0,0,1,4.57,1.78,7.18,7.18,0,0,1,1.63,5v1.23H104.85C105,990.47,106.57,992.32,109.66,992.32Zm-.1-11.94a4.3,4.3,0,0,0-3.22,1.21,5.77,5.77,0,0,0-1.44,3.55h8.78Q113.47,980.39,109.56,980.38Z"/><path class="cls-1" d="M125.4,992.32a3.71,3.71,0,0,0,4-3.34l1.9.3a5,5,0,0,1-1.91,3.42,6.36,6.36,0,0,1-4,1.26,6.51,6.51,0,0,1-5.1-2,8.2,8.2,0,0,1-1.76-5.67,7.94,7.94,0,0,1,1.84-5.51,6.33,6.33,0,0,1,5-2.06,5.89,5.89,0,0,1,4.58,1.78,7.22,7.22,0,0,1,1.62,5v1.23H120.59C120.7,990.47,122.31,992.32,125.4,992.32Zm-.1-11.94a4.3,4.3,0,0,0-3.22,1.21,5.77,5.77,0,0,0-1.43,3.55h8.77Q129.21,980.39,125.3,980.38Z"/><path class="cls-1" d="M141.15,992.32a3.7,3.7,0,0,0,4-3.34l1.9.3a5,5,0,0,1-1.91,3.42,6.33,6.33,0,0,1-4,1.26,6.52,6.52,0,0,1-5.11-2,8.24,8.24,0,0,1-1.76-5.67,7.94,7.94,0,0,1,1.84-5.51,6.33,6.33,0,0,1,4.95-2.06,5.89,5.89,0,0,1,4.58,1.78,7.22,7.22,0,0,1,1.62,5v1.23H136.33Q136.5,992.32,141.15,992.32Zm-.1-11.94a4.31,4.31,0,0,0-3.23,1.21,5.77,5.77,0,0,0-1.43,3.55h8.77Q145,980.39,141.05,980.38Z"/><path class="cls-1" d="M163.07,984.21v9.39h-2v-9a4.29,4.29,0,0,0-1-3,3.62,3.62,0,0,0-2.8-1.07,3.94,3.94,0,0,0-3.22,1.33,5.88,5.88,0,0,0-1.1,3.87v7.91h-2V979.1h2V981a5.14,5.14,0,0,1,4.64-2.26,5,5,0,0,1,5.46,5.45Z"/><path class="cls-1" d="M167.26,990.77H170v2.83h-2.69Z"/><path class="cls-1" d="M176.3,976.51h-2v-3.34h2Zm0,17.09h-2V979.1h2Z"/><path class="cls-1" d="M182.94,993.6h-2V979.1h2v2.83a4.59,4.59,0,0,1,4.32-2.83h1.08V981h-1.08a3.63,3.63,0,0,0-3.12,1.77,8.2,8.2,0,0,0-1.2,4.66Z"/><path class="cls-1" d="M778.55,213.6a6.15,6.15,0,0,1-.65,2.76,11.05,11.05,0,0,1-1.73,2.45,18.18,18.18,0,0,1-2.45,2.2c-.92.7-1.86,1.37-2.81,2l-2-1.81c.9-.58,1.78-1.18,2.66-1.8s1.66-1.24,2.36-1.86a10.66,10.66,0,0,0,1.69-1.8,2.92,2.92,0,0,0,.65-1.65,3.32,3.32,0,0,0-.14-.85,6.74,6.74,0,0,0-.37-1.06q-.25-.57-.57-1.17a11.2,11.2,0,0,0-.7-1.12l2-1.93a12,12,0,0,1,.88,1.46,14.67,14.67,0,0,1,.64,1.5,13.11,13.11,0,0,1,.41,1.43A6.53,6.53,0,0,1,778.55,213.6Z"/><path class="cls-1" d="M791.91,211.59a4.91,4.91,0,0,1-.51,2.4,3.56,3.56,0,0,1-1.38,1.42,6.05,6.05,0,0,1-2,.67,16.56,16.56,0,0,1-2.51.18,7.41,7.41,0,0,1-2.34-.34,4.34,4.34,0,0,1-1.78-1.18l1.17-2.19a4.9,4.9,0,0,0,3,.82,10.6,10.6,0,0,0,3.2-.37c.75-.24,1.12-.62,1.12-1.15,0-1.44-1.52-3.15-4.58-5.14l1.14-2.74a16.48,16.48,0,0,1,1.94,1.4,12.18,12.18,0,0,1,1.76,1.83,9.77,9.77,0,0,1,1.29,2.13A5.55,5.55,0,0,1,791.91,211.59Z"/><path class="cls-1" d="M807.7,224.54a8.29,8.29,0,0,1-2.88-.47,6,6,0,0,1-3.64-3.51,7.73,7.73,0,0,1-.51-2.9,8,8,0,0,1,.41-2.59,14.19,14.19,0,0,1,1.16-2.55l1.84.73a5,5,0,0,0-.47.93c-.13.35-.25.71-.36,1.07a9.17,9.17,0,0,0-.25,1,4.82,4.82,0,0,0-.09.84q0,4.6,5.17,4.61a12.22,12.22,0,0,0,2.4-.23,13.7,13.7,0,0,0,2-.56,7.54,7.54,0,0,0,1.38-.64,2.13,2.13,0,0,0,.62-.47.26.26,0,0,0-.16-.19l-.31-.1-2.54-.61a6.54,6.54,0,0,1-.82-.23,3,3,0,0,1-.68-.37,1.34,1.34,0,0,1-.48-.57,1.87,1.87,0,0,1-.18-.87q0-3.74,5.6-3.74h2.34V216H815.9l-1.36,0h-1.21c-.37,0-.68,0-.94,0-.66.06-1,.21-1,.44a.32.32,0,0,0,.1.19,1.12,1.12,0,0,0,.49.19l2.65.61a3.88,3.88,0,0,1,1.4.66,1.67,1.67,0,0,1,.53,1.38,3,3,0,0,1-.89,2.12,7.63,7.63,0,0,1-2.23,1.6,13,13,0,0,1-2.89,1A13.26,13.26,0,0,1,807.7,224.54Z"/><path class="cls-1" d="M829.05,214.13a3.51,3.51,0,0,1-1.41,1.37,3.91,3.91,0,0,1-1.88.49,3.7,3.7,0,0,1-3.59-1.86,3.26,3.26,0,0,1-1.42,1.4,4,4,0,0,1-1.85.46h-1.66a.58.58,0,0,1-.5-.35,2.19,2.19,0,0,1-.2-1,2.33,2.33,0,0,1,.2-1.05c.14-.25.3-.38.5-.38h1.51a4.53,4.53,0,0,0,1-.11,3.16,3.16,0,0,0,.86-.35,1.84,1.84,0,0,0,.62-.62,1.72,1.72,0,0,0,.23-.9v-1.37l1.93-.5a14.71,14.71,0,0,0,.07,1.55,4,4,0,0,0,.3,1.21,1.8,1.8,0,0,0,.72.8,2.43,2.43,0,0,0,1.3.29,2.88,2.88,0,0,0,1.82-.55,2,2,0,0,0,.71-1.66v-1.14l1.93-.5q0,.85.06,1.56a3.36,3.36,0,0,0,.31,1.23,1.78,1.78,0,0,0,.72.79,2.85,2.85,0,0,0,1.36.27,2.11,2.11,0,0,0,1.3-.33,1,1,0,0,0,.42-.83,2.17,2.17,0,0,0-.16-.78,6.07,6.07,0,0,0-.41-.86c-.16-.29-.34-.57-.52-.84s-.37-.52-.54-.73l2-2.1a7.85,7.85,0,0,1,1.43,2.61,8.43,8.43,0,0,1,.41,2.46,4.4,4.4,0,0,1-1,3,3.63,3.63,0,0,1-2.74,1.25,3.58,3.58,0,0,1-.56,0,3.69,3.69,0,0,1-.49,0,3.78,3.78,0,0,1-1.65-.61A3.58,3.58,0,0,1,829.05,214.13Z"/><path class="cls-1" d="M845.36,213.6a6.15,6.15,0,0,1-.65,2.76,11.05,11.05,0,0,1-1.73,2.45,18.18,18.18,0,0,1-2.45,2.2c-.92.7-1.86,1.37-2.81,2l-2-1.81c.9-.58,1.78-1.18,2.66-1.8s1.66-1.24,2.36-1.86a10.66,10.66,0,0,0,1.69-1.8,2.92,2.92,0,0,0,.65-1.65,3.32,3.32,0,0,0-.14-.85,6.74,6.74,0,0,0-.37-1.06q-.25-.57-.57-1.17a11.2,11.2,0,0,0-.7-1.12l1.95-1.93a12,12,0,0,1,.88,1.46,14.67,14.67,0,0,1,.64,1.5,13.11,13.11,0,0,1,.41,1.43A6.53,6.53,0,0,1,845.36,213.6Z"/><path class="cls-1" d="M855.19,216H854a3.89,3.89,0,0,1-2.22-.57A3.94,3.94,0,0,1,850.5,214a6.42,6.42,0,0,1-.64-2,17.44,17.44,0,0,1-.21-2.25q-.06-3.09-.13-6.37c0-2.19-.16-4.33-.34-6.44l2.43-1.13c0,1.77,0,3.79.1,6.08s.1,4.65.16,7.1c0,.47,0,1,.07,1.46a5,5,0,0,0,.32,1.37,2.47,2.47,0,0,0,.75,1,2,2,0,0,0,1.37.41h.81Z"/><path class="cls-1" d="M855.19,216a.56.56,0,0,1-.49-.35,2.07,2.07,0,0,1-.21-1,2.2,2.2,0,0,1,.21-1.05.58.58,0,0,1,.49-.38h2.86a13.11,13.11,0,0,0,1.42-.07,7.8,7.8,0,0,0,1.22-.23,3.14,3.14,0,0,0,.88-.41,1,1,0,0,0,.39-.57,2.56,2.56,0,0,0,0-.93,4.51,4.51,0,0,1-1.15.4,5.54,5.54,0,0,1-1.15.12,2.89,2.89,0,0,1-2.12-.8,2.93,2.93,0,0,1-.8-2.15,6,6,0,0,1,.26-1.73,5.14,5.14,0,0,1,.75-1.52,4.05,4.05,0,0,1,1.13-1.06,2.68,2.68,0,0,1,1.48-.41,2.34,2.34,0,0,1,1.81.76,5.59,5.59,0,0,1,1.1,1.86,10.08,10.08,0,0,1,.56,2.35A18.4,18.4,0,0,1,864,211a4.59,4.59,0,0,1-1.5,3.84,6.74,6.74,0,0,1-4.27,1.18Zm4.88-14.26L858,200l1.61-1.9,2,1.69Zm-.09,7.35a2.84,2.84,0,0,0,1.75-.53,6.13,6.13,0,0,0-.63-1.59,1.18,1.18,0,0,0-1-.65,1.28,1.28,0,0,0-1,.51,1.67,1.67,0,0,0-.4,1.06,1.12,1.12,0,0,0,.36.86A1.36,1.36,0,0,0,860,209.08Z"/><path class="cls-1" d="M883.17,211.71a3.08,3.08,0,0,1-.19,1,3.34,3.34,0,0,1-.54,1,3.24,3.24,0,0,1-.83.78,1.87,1.87,0,0,1-1.09.33h-3.68a1.91,1.91,0,0,0-1,.23,1.46,1.46,0,0,0-.56.66,2.73,2.73,0,0,0-.25,1c0,.39,0,.84,0,1.32V228h-2c0-2.27-.07-4.07-.09-5.38s0-2.31,0-3,0-1.14,0-1.35v-.44a9.38,9.38,0,0,1,.61-3.76,3,3,0,0,1,2-1.78,10.29,10.29,0,0,1,.15-1.65,7.73,7.73,0,0,1,.49-1.74,4,4,0,0,1,.94-1.35,2.06,2.06,0,0,1,1.46-.54,3.9,3.9,0,0,1,1.73.42,5.6,5.6,0,0,1,1.53,1.09,5.79,5.79,0,0,1,1.1,1.51A3.67,3.67,0,0,1,883.17,211.71Zm-2.21.14a1.62,1.62,0,0,0-.27-.67,3.82,3.82,0,0,0-.58-.72,3.53,3.53,0,0,0-.77-.56,1.71,1.71,0,0,0-.84-.24.77.77,0,0,0-.56.22,1.64,1.64,0,0,0-.36.57,4.16,4.16,0,0,0-.19.79,8.46,8.46,0,0,0,0,.87l.76,0h2.1C880.68,212.17,880.94,212.06,881,211.85Z"/><path class="cls-1" d="M894.75,212.43a8.45,8.45,0,0,1-.68,3.46,11.23,11.23,0,0,1-1.82,2.85,15.76,15.76,0,0,1-2.64,2.34,29.78,29.78,0,0,1-3.14,1.94l-1.9-1.78c.64-.36,1.38-.81,2.22-1.32a28.12,28.12,0,0,0,2.44-1.7,16.78,16.78,0,0,0,2.08-1.91,4.59,4.59,0,0,0,1.14-2,2.33,2.33,0,0,1-.72.29,4.79,4.79,0,0,1-1.32.15,3.63,3.63,0,0,1-2.29-.7,2.57,2.57,0,0,1-.92-2.19,6.65,6.65,0,0,1,.25-1.75,6,6,0,0,1,.73-1.72,4.54,4.54,0,0,1,1.15-1.3,2.44,2.44,0,0,1,1.51-.51,2.82,2.82,0,0,1,1.74.55,4.62,4.62,0,0,1,1.23,1.4,6.78,6.78,0,0,1,.71,1.89A8.88,8.88,0,0,1,894.75,212.43Zm-2.33-.72a3.52,3.52,0,0,0-.58-1.68,1.44,1.44,0,0,0-1.23-.66,1.21,1.21,0,0,0-1,.57,1.9,1.9,0,0,0-.41,1.09c0,.74.52,1.11,1.55,1.11a3.92,3.92,0,0,0,.89-.1A2.5,2.5,0,0,0,892.42,211.71Z"/><path class="cls-1" d="M908.15,211.59a4.91,4.91,0,0,1-.52,2.4,3.56,3.56,0,0,1-1.38,1.42,6,6,0,0,1-2,.67,16.56,16.56,0,0,1-2.51.18,7.45,7.45,0,0,1-2.34-.34,4.34,4.34,0,0,1-1.78-1.18l1.17-2.19a4.91,4.91,0,0,0,3,.82A10.57,10.57,0,0,0,905,213c.75-.24,1.12-.62,1.12-1.15,0-1.44-1.52-3.15-4.58-5.14l1.14-2.74a16.48,16.48,0,0,1,1.94,1.4,12.77,12.77,0,0,1,1.77,1.83,10.12,10.12,0,0,1,1.28,2.13A5.56,5.56,0,0,1,908.15,211.59Z"/><path class="cls-1" d="M930,205.84c.07-1.58.29-2.48.64-2.71q2.31-1.57,5.16-3.15t6.51-3.21l-.35,2.94c-2,.86-3.84,1.7-5.38,2.53s-2.91,1.62-4.07,2.38A38.62,38.62,0,0,1,936,208c1.12,1.21,2.32,2.42,3.58,3.65a6.06,6.06,0,0,0,1.59,1.19,3.5,3.5,0,0,0,1.54.35h1.37V216h-1.26a6.4,6.4,0,0,1-1.79-.22,4.59,4.59,0,0,1-1.53-.77,10.05,10.05,0,0,1-1.62-1.52c-.58-.64-1.26-1.44-2.06-2.42a3.46,3.46,0,0,1-.12,1,3.57,3.57,0,0,1-.46,1.52,4.06,4.06,0,0,1-1,1.12,6,6,0,0,1-1.41.81,8.54,8.54,0,0,1-1.69.49,25.13,25.13,0,0,1-2.84.45,26.28,26.28,0,0,1-2.93.16c-1,0-2.06,0-3.08-.13a9.35,9.35,0,0,1-2.74-.61,4.61,4.61,0,0,1-2-1.43,4.15,4.15,0,0,1-.74-2.61,5.44,5.44,0,0,1,.29-1.68,5.6,5.6,0,0,1,.85-1.67l1.75.64a5.14,5.14,0,0,0-.65,1.92,2.21,2.21,0,0,0,.3,1.29,2,2,0,0,0,1,.83,6.34,6.34,0,0,0,1.56.44,18,18,0,0,0,1.9.16l2,0a20.8,20.8,0,0,0,5.91-.69c1.51-.47,2.34-1.09,2.5-1.87a3.26,3.26,0,0,0-.41-1.27,7.69,7.69,0,0,0-.92-1.28,15.45,15.45,0,0,0-1.34-1.36Zm9.19-9.54c-1.28.62-2.66,1.34-4.12,2.16s-3,1.72-4.55,2.71l.24-1.66q2.53-1.66,4.65-2.87t4-2.15Z"/><path class="cls-1" d="M944.12,216a.58.58,0,0,1-.5-.35,2.19,2.19,0,0,1-.2-1,2.33,2.33,0,0,1,.2-1.05c.14-.25.3-.38.5-.38h1.22a4,4,0,0,0,2-.46,1.77,1.77,0,0,0,.8-1.67v-1.22l2-.5a15.6,15.6,0,0,0,.07,1.62,3.19,3.19,0,0,0,.35,1.21,1.83,1.83,0,0,0,.82.76,3.34,3.34,0,0,0,1.47.26H954V216h-1.49c-1.77,0-3-.6-3.59-1.81a3.3,3.3,0,0,1-1.44,1.35,4.48,4.48,0,0,1-2,.46Zm5-9.42-2.05-1.72,1.61-1.9,2,1.69Z"/><path class="cls-1" d="M961.36,211.76q0,4.23-4.84,4.23H954a.58.58,0,0,1-.5-.35,2.19,2.19,0,0,1-.2-1,2.29,2.29,0,0,1,.2-1.06c.14-.24.3-.37.5-.37h2.65c1.7,0,2.54-.39,2.54-1.16a1.8,1.8,0,0,0-.19-.75,6.48,6.48,0,0,0-.45-.86,9.26,9.26,0,0,0-.58-.86c-.22-.28-.41-.53-.59-.74l2-2.1a9.06,9.06,0,0,1,1.51,2.59A7.24,7.24,0,0,1,961.36,211.76Zm-5.48,7.12,2,1.64-1.58,1.86-1.92-1.66Zm3.67,0,1.93,1.64-1.55,1.86L958,220.72Z"/><path class="cls-1" d="M978.57,216h-1.19a4.63,4.63,0,0,1-1.2-.13,2.86,2.86,0,0,1-.9-.42,3.39,3.39,0,0,1-.75-.76,10.4,10.4,0,0,1-.68-1.11,5.06,5.06,0,0,1-.94,1.37,3.8,3.8,0,0,1-1.18.82,4.79,4.79,0,0,1-1.49.39,14.47,14.47,0,0,1-1.82.11,8.09,8.09,0,0,1-2.44-.33,4,4,0,0,1-1.73-1l1.25-2.33a3.8,3.8,0,0,0,1.11.53,7.67,7.67,0,0,0,1.37.23h1a5.9,5.9,0,0,0,.86-.06,5.8,5.8,0,0,0,1.69-.31,1.51,1.51,0,0,0,.91-.74,1.67,1.67,0,0,0,.23-.88,2.13,2.13,0,0,0-.1-.56c-.07-.25-.19-.62-.37-1.11s-.42-1.15-.75-1.94-.76-1.83-1.29-3.1l1.78-2,2.77,7.26a9.91,9.91,0,0,0,1.21,2.41,1.86,1.86,0,0,0,1.54.83h1.13Z"/><path class="cls-1" d="M981.81,213.16a2.48,2.48,0,0,1-1.49-2.3,4.28,4.28,0,0,1,.76-2.31,5.51,5.51,0,0,1,2.25-1.89l-.82-.56,1.14-2.48q1.64,1.14,3.09,2.28a22.71,22.71,0,0,1,2.57,2.33,10.88,10.88,0,0,1,1.75,2.47,5.71,5.71,0,0,1,.64,2.64,5.33,5.33,0,0,1-.13,1.18,3.38,3.38,0,0,1-.44,1.09,2.39,2.39,0,0,1-.79.82,2.1,2.1,0,0,1-1.18.32,3.79,3.79,0,0,1-1-.17c-.39-.12-.79-.27-1.21-.44l-1.21-.54-1-.48a6.29,6.29,0,0,1-1.84.67,10.55,10.55,0,0,1-2.13.2h-2.19a.56.56,0,0,1-.49-.35,2.07,2.07,0,0,1-.21-1,2.2,2.2,0,0,1,.21-1.05.58.58,0,0,1,.49-.38Zm3.82-2.8a2.9,2.9,0,0,0-.33-1.38,1,1,0,0,0-.92-.63,1.54,1.54,0,0,0-.72.2,3.6,3.6,0,0,0-.67.51,2.67,2.67,0,0,0-.49.68,1.48,1.48,0,0,0-.19.71,1,1,0,0,0,.24.63,3.43,3.43,0,0,0,.59.55,3.56,3.56,0,0,0,.7.41,1.54,1.54,0,0,0,.63.16A.72.72,0,0,0,985,212a2.06,2.06,0,0,0,.38-.48,2.75,2.75,0,0,0,.23-.6A2.34,2.34,0,0,0,985.63,210.36Zm1.7-.35a5.7,5.7,0,0,1-.24,1.81,3.37,3.37,0,0,1-.79,1.29,6.32,6.32,0,0,0,.59.33c.25.13.51.25.77.36s.51.22.73.3a1.88,1.88,0,0,0,.48.11.58.58,0,0,0,.54-.27,1.17,1.17,0,0,0,.16-.6,2.74,2.74,0,0,0-.7-1.68A14.13,14.13,0,0,0,987.33,210Z"/><path class="cls-1" d="M834.19,246.6a4.91,4.91,0,0,1-.51,2.4,3.52,3.52,0,0,1-1.39,1.42,5.91,5.91,0,0,1-2,.67,16.46,16.46,0,0,1-2.51.18,7.38,7.38,0,0,1-2.33-.34,4.28,4.28,0,0,1-1.78-1.18l1.17-2.19a4.9,4.9,0,0,0,3,.82A10.64,10.64,0,0,0,831,248c.74-.24,1.12-.63,1.12-1.15q0-2.16-4.58-5.14l1.14-2.74a17.36,17.36,0,0,1,1.94,1.4,12.18,12.18,0,0,1,1.76,1.83,10.17,10.17,0,0,1,1.29,2.13A5.55,5.55,0,0,1,834.19,246.6Z"/><path class="cls-1" d="M842.51,250.33a6.22,6.22,0,0,1-.72,2.66,10.86,10.86,0,0,1-1.72,2.38,20.27,20.27,0,0,1-2.41,2.14c-.89.68-1.81,1.33-2.74,1.95l-2-1.81c.9-.58,1.78-1.18,2.66-1.8A29,29,0,0,0,838,254a10.82,10.82,0,0,0,1.7-1.81,2.92,2.92,0,0,0,.64-1.64,3.75,3.75,0,0,0-.13-.85,8.72,8.72,0,0,0-.38-1.07c-.17-.37-.36-.76-.57-1.16a12.65,12.65,0,0,0-.7-1.13l2-2q.62,1,1.08,1.71a8.22,8.22,0,0,0,.91,1.18,2.86,2.86,0,0,0,.89.68,2.19,2.19,0,0,0,1,.22h1.08V251h-.93A3,3,0,0,1,842.51,250.33Z"/><path class="cls-1" d="M845.45,251a.56.56,0,0,1-.49-.35,2.07,2.07,0,0,1-.21-1.05,2.2,2.2,0,0,1,.21-1,.58.58,0,0,1,.49-.38h1.23a4,4,0,0,0,2-.46,1.79,1.79,0,0,0,.8-1.67v-1.22l2-.5a15.66,15.66,0,0,0,.08,1.62,3,3,0,0,0,.34,1.21,1.83,1.83,0,0,0,.82.76,3.36,3.36,0,0,0,1.48.26h1.13V251h-1.48c-1.78,0-3-.6-3.59-1.81a3.33,3.33,0,0,1-1.45,1.35,4.48,4.48,0,0,1-2,.46Zm2.72,2.89,2,1.64-1.58,1.86-1.92-1.66Zm3.67,0,1.93,1.64-1.55,1.86-2-1.66Z"/><path class="cls-1" d="M856.77,240.85c.12-1.58.33-2.48.64-2.71q2.31-1.57,5.17-3.15t6.53-3.21l-.38,2.94q-3.06,1.29-5.38,2.53c-1.55.82-2.89,1.62-4,2.37a13.42,13.42,0,0,1,3,3.29,5.88,5.88,0,0,1,.91,3.05,4.94,4.94,0,0,1-.45,2.14,4.56,4.56,0,0,1-1.26,1.59,5.69,5.69,0,0,1-1.86,1,7.73,7.73,0,0,1-2.29.33h-2.05a.56.56,0,0,1-.49-.35,2.07,2.07,0,0,1-.21-1.05,2.2,2.2,0,0,1,.21-1,.58.58,0,0,1,.49-.38h2.28a5.27,5.27,0,0,0,2.49-.49,1.75,1.75,0,0,0,1-1.43,2.91,2.91,0,0,0-.38-1.27,6.76,6.76,0,0,0-.93-1.28,15.84,15.84,0,0,0-1.36-1.36Zm9.22-9.54q-1.92.93-4.13,2.16t-4.53,2.71l.2-1.66q2.54-1.67,4.67-2.87t4-2.15Z"/><path class="cls-1" d="M874.71,259.55a8.23,8.23,0,0,1-2.87-.47,6.16,6.16,0,0,1-2.22-1.35,6.23,6.23,0,0,1-1.43-2.16,7.77,7.77,0,0,1-.51-2.9,8.31,8.31,0,0,1,.41-2.59,13.6,13.6,0,0,1,1.17-2.55l1.84.73a5,5,0,0,0-.47.93,10.34,10.34,0,0,0-.36,1.07,9,9,0,0,0-.25,1,4.92,4.92,0,0,0-.09.85q0,4.61,5.16,4.61a12.25,12.25,0,0,0,2.41-.23,13.2,13.2,0,0,0,2-.56,7.36,7.36,0,0,0,1.39-.64,2,2,0,0,0,.61-.47.24.24,0,0,0-.16-.19l-.3-.1-2.54-.61a6.09,6.09,0,0,1-.82-.23,3,3,0,0,1-.68-.37,1.44,1.44,0,0,1-.49-.57,2,2,0,0,1-.17-.87q0-3.74,5.6-3.74h2.33V251h-1.34l-1.35,0h-1.21c-.37,0-.69,0-.94,0-.66.06-1,.21-1,.44a.27.27,0,0,0,.1.19,1.13,1.13,0,0,0,.48.19l2.66.61a3.88,3.88,0,0,1,1.4.66,1.66,1.66,0,0,1,.52,1.38,3,3,0,0,1-.89,2.12,7.37,7.37,0,0,1-2.23,1.6,12.82,12.82,0,0,1-2.89,1A13.18,13.18,0,0,1,874.71,259.55Z"/><path class="cls-1" d="M884.25,251a.58.58,0,0,1-.51-.36,2.38,2.38,0,0,1-.19-1,2.49,2.49,0,0,1,.19-1,.59.59,0,0,1,.51-.38h.44a9.6,9.6,0,0,0,2.1-.2,2.19,2.19,0,0,0,1.46-1.17c.33-.58.66-1.15,1-1.69a11.29,11.29,0,0,1,1-1.44,5.13,5.13,0,0,1,1-1,2,2,0,0,1,1.15-.36,2.32,2.32,0,0,1,1.52.52,4.34,4.34,0,0,1,1.08,1.36,6.77,6.77,0,0,1,.64,1.82,9.55,9.55,0,0,1,.21,2,3.44,3.44,0,0,1-.19,1.05,4.05,4.05,0,0,1-.53,1,2.82,2.82,0,0,1-.8.74,1.87,1.87,0,0,1-1,.29,4.43,4.43,0,0,1-1-.14,7.87,7.87,0,0,1-1.15-.4,8.66,8.66,0,0,1-1.14-.57,7,7,0,0,1-1-.64,4.81,4.81,0,0,1-1.74,1.31,5.71,5.71,0,0,1-2.23.38Zm9.49-3.29a3.25,3.25,0,0,0-.14-.91,4,4,0,0,0-.33-.84,2,2,0,0,0-.5-.63,1,1,0,0,0-.58-.28.51.51,0,0,0-.29,0c-.49.18-1,.88-1.58,2.1a3.24,3.24,0,0,0,.67.44l.83.38a6.53,6.53,0,0,0,.81.28,2.82,2.82,0,0,0,.61.1.5.5,0,0,0,.34-.15A.72.72,0,0,0,893.74,247.71Z"/><path class="cls-1" d="M909.64,248.61a6,6,0,0,1-.66,2.76,11,11,0,0,1-1.72,2.45,18.81,18.81,0,0,1-2.45,2.2c-.93.7-1.86,1.37-2.82,2l-2-1.81c.89-.58,1.78-1.18,2.65-1.8a27.4,27.4,0,0,0,2.36-1.86,10.42,10.42,0,0,0,1.7-1.81,2.85,2.85,0,0,0,.64-1.64,3.26,3.26,0,0,0-.13-.85,8.06,8.06,0,0,0-.38-1.06q-.25-.57-.57-1.17a9.63,9.63,0,0,0-.7-1.12l1.95-1.93a10.88,10.88,0,0,1,.88,1.46,12.74,12.74,0,0,1,.64,1.5,11.2,11.2,0,0,1,.41,1.43A5.87,5.87,0,0,1,909.64,248.61Z"/><path class="cls-1" d="M915.85,250.51l-1.93.55-.46-19.23,2.39-1.1Z"/><path class="cls-1" d="M924.19,250.33a6.21,6.21,0,0,1-.71,2.66,10.86,10.86,0,0,1-1.72,2.38,20.27,20.27,0,0,1-2.41,2.14c-.89.68-1.81,1.33-2.74,1.95l-2-1.81c.9-.58,1.78-1.18,2.66-1.8s1.66-1.24,2.36-1.86a10.33,10.33,0,0,0,1.69-1.81,2.87,2.87,0,0,0,.65-1.64,3.75,3.75,0,0,0-.13-.85,8.72,8.72,0,0,0-.38-1.07c-.17-.37-.36-.76-.57-1.16a12.65,12.65,0,0,0-.7-1.13l1.95-2q.62,1,1.08,1.71a9,9,0,0,0,.9,1.18,3.11,3.11,0,0,0,.89.68,2.26,2.26,0,0,0,1,.22h1.08V251h-.93A3,3,0,0,1,924.19,250.33Z"/><path class="cls-1" d="M927.14,251a.59.59,0,0,1-.5-.35,2.19,2.19,0,0,1-.2-1.05,2.33,2.33,0,0,1,.2-1c.14-.25.31-.38.5-.38H930a12.8,12.8,0,0,0,1.41-.07,7.72,7.72,0,0,0,1.23-.23,2.94,2.94,0,0,0,.87-.41.93.93,0,0,0,.4-.57,2.57,2.57,0,0,0,0-.93,4.64,4.64,0,0,1-1.15.4,5.64,5.64,0,0,1-1.16.12,2.75,2.75,0,0,1-2.91-2.95,5.72,5.72,0,0,1,.26-1.73,4.89,4.89,0,0,1,.74-1.52,4,4,0,0,1,1.14-1.06,2.67,2.67,0,0,1,1.47-.41,2.33,2.33,0,0,1,1.81.76,5.45,5.45,0,0,1,1.11,1.86,10.07,10.07,0,0,1,.55,2.35A18.6,18.6,0,0,1,936,246a4.6,4.6,0,0,1-1.5,3.84,6.77,6.77,0,0,1-4.28,1.18Zm3.12-14.23-2-1.64,1.51-1.84,2,1.64Zm1.66,7.32a2.87,2.87,0,0,0,1.76-.53,6.13,6.13,0,0,0-.63-1.59,1.19,1.19,0,0,0-1-.65,1.25,1.25,0,0,0-1,.51,1.69,1.69,0,0,0-.41,1.06,1.09,1.09,0,0,0,.37.86A1.35,1.35,0,0,0,931.92,244.09Zm2-7.32-2-1.64,1.58-1.84,1.93,1.64Z"/><path class="cls-1" d="M950.77,251H949.6a3.68,3.68,0,0,1-3.53-2,6.68,6.68,0,0,1-.64-2,19.37,19.37,0,0,1-.2-2.25q-.06-3.09-.13-6.37t-.34-6.44l2.42-1.13c0,1.77.06,3.79.11,6.08s.1,4.65.16,7.1c0,.47,0,1,.07,1.46a4.75,4.75,0,0,0,.32,1.37,2.45,2.45,0,0,0,.74,1,2.07,2.07,0,0,0,1.38.41h.81Z"/><path class="cls-1" d="M950.28,250.65a2.07,2.07,0,0,1-.21-1.05,2.2,2.2,0,0,1,.21-1,.58.58,0,0,1,.49-.38h2a12.54,12.54,0,0,0,2.48-.2,9.08,9.08,0,0,0,1.89-.59c.57-.25,1.15-.53,1.75-.86s1.28-.67,2.08-1.06a13.92,13.92,0,0,1-1.33-.45l-1.32-.53-1.18-.44a2.88,2.88,0,0,0-.84-.18,1.54,1.54,0,0,0-.81.29,6.14,6.14,0,0,0-1.17,1l-1.6-.91a7.84,7.84,0,0,1,.71-1.06,10.79,10.79,0,0,1,.88-1,4.68,4.68,0,0,1,.94-.76,2,2,0,0,1,1-.29,4.79,4.79,0,0,1,1.82.41l2.14.89a25.58,25.58,0,0,0,2.57.89,11.22,11.22,0,0,0,3.12.41h.56l-.59,2.56a10,10,0,0,0-1.57.12,11.57,11.57,0,0,0-1.43.32A1.86,1.86,0,0,0,964,248a6.31,6.31,0,0,0,1.83.22h2.28V251h-2.48a7.33,7.33,0,0,1-1.59-.14,3,3,0,0,1-1.15-.53,3.24,3.24,0,0,1-.86-1,10,10,0,0,1-.72-1.66,21.73,21.73,0,0,0-2,1.21,18.36,18.36,0,0,1-1.78,1.08,8.92,8.92,0,0,1-2,.77,11.25,11.25,0,0,1-2.8.29h-1.93A.56.56,0,0,1,950.28,250.65Zm7,6.77-2-1.72,1.61-1.93,2,1.73Z"/><path class="cls-1" d="M968.13,251a.59.59,0,0,1-.5-.35,2.19,2.19,0,0,1-.2-1.05,2.33,2.33,0,0,1,.2-1c.14-.25.31-.38.5-.38h1.23a4,4,0,0,0,2-.46,1.77,1.77,0,0,0,.81-1.67v-1.22l1.95-.5a15.86,15.86,0,0,0,.07,1.62,3.19,3.19,0,0,0,.35,1.21,1.83,1.83,0,0,0,.82.76,3.34,3.34,0,0,0,1.47.26H978V251H976.5c-1.77,0-3-.6-3.59-1.81a3.3,3.3,0,0,1-1.44,1.35,4.48,4.48,0,0,1-2,.46Zm5-9.42-2-1.72,1.6-1.9,2,1.69Z"/><path class="cls-1" d="M985.37,246.77q0,4.23-4.84,4.23H978a.59.59,0,0,1-.5-.35,2.19,2.19,0,0,1-.2-1.05,2.29,2.29,0,0,1,.2-1.06.59.59,0,0,1,.5-.37h2.66c1.69,0,2.53-.39,2.53-1.16a1.8,1.8,0,0,0-.19-.75,6.48,6.48,0,0,0-.45-.86,9.26,9.26,0,0,0-.58-.86l-.58-.74,2-2.1a9.34,9.34,0,0,1,1.52,2.59A7.21,7.21,0,0,1,985.37,246.77Zm-5.48,7.12,2,1.64-1.58,1.86-1.92-1.66Zm3.67,0,1.93,1.64-1.55,1.86-2-1.66Z"/><path class="cls-1" d="M991.67,250.51l-1.92.55-.47-19.23,2.39-1.1Z"/><path class="cls-1" d="M544.9,129.6c-1.36,0-2.62-.1-3.77-.18s-2-.11-2.42-.11a4.33,4.33,0,0,0-1.66.23c-.33.16-.5.33-.5.53a.46.46,0,0,0,.24.43,3.75,3.75,0,0,0,1.05.33l4,.75a7.15,7.15,0,0,1,2.89,1.11,2.8,2.8,0,0,1,1,2.39,6.44,6.44,0,0,1-1.54,4.21,13,13,0,0,1-4,3.15,23.17,23.17,0,0,1-5.48,2,26.32,26.32,0,0,1-6,.7,17.27,17.27,0,0,1-5.63-.87,11.93,11.93,0,0,1-4.31-2.54,11.28,11.28,0,0,1-2.78-4.15,15.37,15.37,0,0,1-1-5.74,16.09,16.09,0,0,1,.88-5.49,31.7,31.7,0,0,1,2.56-5.31l4.15,1.69a25.61,25.61,0,0,0-1.93,4.56,12.49,12.49,0,0,0-.58,3.5,7.13,7.13,0,0,0,2.36,5.74c1.58,1.35,3.86,2,6.86,2a26.54,26.54,0,0,0,3.76-.26,28.32,28.32,0,0,0,3.21-.65,19.56,19.56,0,0,0,2.48-.81c.7-.3,1.24-.54,1.63-.73a4.31,4.31,0,0,0-1.86-.59l-3-.64a6.61,6.61,0,0,1-3.06-1.34,4,4,0,0,1-1.2-3.27,6.36,6.36,0,0,1,2.6-5.42q2.6-1.93,8.08-1.93h3.79v6.71Z"/><path class="cls-1" d="M568.82,126a8.29,8.29,0,0,1-2.68,2.63,8,8,0,0,1-4.09.93,9.5,9.5,0,0,1-4-.73,6.12,6.12,0,0,1-2.66-2.77,7.14,7.14,0,0,1-2.77,2.68,7.25,7.25,0,0,1-3.36.82h-3.5q-.63,0-1.05-.9a6,6,0,0,1-.41-2.43,6.25,6.25,0,0,1,.41-2.45q.42-.93,1.05-.93H549a6.57,6.57,0,0,0,3.06-.67,2.43,2.43,0,0,0,1.32-2.36v-3.39l4.84-1.22a36.12,36.12,0,0,0,.15,3.61,7,7,0,0,0,.58,2.37,2.63,2.63,0,0,0,1.22,1.28,4.89,4.89,0,0,0,2.08.38,8.62,8.62,0,0,0,2.3-.26,2.57,2.57,0,0,0,2-2.16,9.86,9.86,0,0,0,.18-2v-2l4.78-1.22a17,17,0,0,0,.73,5.8,3,3,0,0,0,3.13,1.84c2.29,0,3.44-.49,3.44-1.46a3.52,3.52,0,0,0-.26-1.05,13,13,0,0,0-.73-1.55c-.32-.56-.68-1.15-1.08-1.78s-.85-1.22-1.32-1.8l4.32-4.61A18.67,18.67,0,0,1,583,116a14.27,14.27,0,0,1,1,5,9.56,9.56,0,0,1-.64,3.53,7.59,7.59,0,0,1-1.81,2.72,8.32,8.32,0,0,1-2.74,1.72,9.56,9.56,0,0,1-3.5.61C572.2,129.6,570,128.41,568.82,126Z"/><path class="cls-1" d="M601.44,123.88a12,12,0,0,1-1.17,5.17,20.34,20.34,0,0,1-3.18,4.75,36,36,0,0,1-4.76,4.44c-1.82,1.43-3.81,2.84-6,4.2l-4.49-4.26q3.21-1.94,5.89-3.85a45.06,45.06,0,0,0,4.55-3.68,21,21,0,0,0,2.92-3.27,4,4,0,0,0,.76-4.17,17.66,17.66,0,0,0-.79-2A22.1,22.1,0,0,0,594,119c-.47-.76-1-1.51-1.46-2.25l4.37-4.37a27.38,27.38,0,0,1,3.48,6.39A15.54,15.54,0,0,1,601.44,123.88Z"/><path class="cls-1" d="M617.66,129.6a8.21,8.21,0,0,1-4.38-1,7,7,0,0,1-2.51-2.69,11.3,11.3,0,0,1-1.16-3.79,36.46,36.46,0,0,1-.35-4.35c-.08-1.78-.14-3.79-.18-6s-.09-4.5-.15-6.83-.13-4.67-.23-7-.22-4.52-.38-6.54l5.43-2.63q0,3.27,0,6.74c0,2.32.06,4.62.11,6.92s.12,4.57.18,6.83.11,4.39.14,6.41c0,.94,0,1.84.06,2.72a8.5,8.5,0,0,0,.41,2.33,3.28,3.28,0,0,0,1.14,1.61,3.93,3.93,0,0,0,2.36.58h2.34v6.71Z"/><path class="cls-1" d="M630.32,102.88a5.71,5.71,0,0,1,3.94,1.42,10.51,10.51,0,0,1,2.57,3.62,19.76,19.76,0,0,1,1.37,4.87,35,35,0,0,1,.41,5.2c0,4.08-1,7-2.89,8.87s-5.05,2.74-9.37,2.74h-5.83q-.64,0-1-.9a6,6,0,0,1-.41-2.43,6.25,6.25,0,0,1,.41-2.45q.4-.93,1-.93h6a20.06,20.06,0,0,0,4.29-.47,4.67,4.67,0,0,0,2.89-1.51,1.51,1.51,0,0,0,.2-.76c0-.35,0-.84,0-1.46a11.91,11.91,0,0,1-2.57.61,17.61,17.61,0,0,1-2.1.15q-6.54,0-6.53-6.89a11,11,0,0,1,.58-3.5,11.42,11.42,0,0,1,1.57-3.12,8.31,8.31,0,0,1,2.4-2.22A5.88,5.88,0,0,1,630.32,102.88ZM630,99.2l-4.44-3.74,3.56-4.2L633.59,95Zm-.29,9.45a2.51,2.51,0,0,0-2,1,3.58,3.58,0,0,0-.81,2.22,1.92,1.92,0,0,0,.64,1.43,3,3,0,0,0,2.1.61,11.17,11.17,0,0,0,2.16-.2,7.73,7.73,0,0,0,1.63-.5,7.58,7.58,0,0,0-1.34-3.3A2.89,2.89,0,0,0,629.74,108.65Z"/><path class="cls-1" d="M661,107.54A43.83,43.83,0,0,1,666.7,112a19,19,0,0,1,3.21,3.79,10.68,10.68,0,0,1,1.4,3.33,14.75,14.75,0,0,1,.32,2.94,8.91,8.91,0,0,1-.52,3,7,7,0,0,1-1.61,2.54,8.18,8.18,0,0,1-2.71,1.75,10.27,10.27,0,0,1-3.85.67,8.34,8.34,0,0,1-3.21-.56,6.22,6.22,0,0,1-2.22-1.48,6.36,6.36,0,0,1-1.31-2.13,7.18,7.18,0,0,1-.44-2.54,10.66,10.66,0,0,1,.17-1.9,12.82,12.82,0,0,1,.56-2,25.23,25.23,0,0,1,1-2.34c.41-.85.92-1.84,1.55-3l-1.29-.76Zm1.75,8.58a30.42,30.42,0,0,0-1.78,3,6,6,0,0,0-.79,2.62,2.05,2.05,0,0,0,.79,1.64,3.7,3.7,0,0,0,2.37.64,4.62,4.62,0,0,0,2.39-.56A2.59,2.59,0,0,0,666.9,122Q666.9,119.1,662.7,116.12Z"/><path class="cls-1" d="M687.79,129.6a8.15,8.15,0,0,1-4.37-1,6.9,6.9,0,0,1-2.51-2.69,11.08,11.08,0,0,1-1.17-3.79,38.67,38.67,0,0,1-.35-4.35c-.08-1.78-.14-3.79-.18-6s-.08-4.5-.14-6.83-.14-4.67-.23-7-.23-4.52-.38-6.54l5.42-2.63q0,3.27,0,6.74c0,2.32.06,4.62.12,6.92s.12,4.57.17,6.83.11,4.39.15,6.41c0,.94,0,1.84.06,2.72a8.14,8.14,0,0,0,.41,2.33,3.22,3.22,0,0,0,1.14,1.61,3.93,3.93,0,0,0,2.36.58h2.33v6.71Z"/><path class="cls-1" d="M698,121.31a2.77,2.77,0,0,0-.26-1,11.74,11.74,0,0,0-.76-1.49c-.33-.56-.7-1.15-1.11-1.78s-.84-1.22-1.31-1.8l4.38-4.61a18.9,18.9,0,0,1,3.27,5.39,14.47,14.47,0,0,1,1,5c0,2.8-.77,4.93-2.33,6.39s-3.95,2.19-7.18,2.19h-3.09q-.64,0-1-.9a6,6,0,0,1-.41-2.43,6.25,6.25,0,0,1,.41-2.45q.4-.93,1-.93h3.09a10.4,10.4,0,0,0,3.1-.38C697.61,122.26,698,121.86,698,121.31Zm-4-13.77L689.72,104l3.38-4,4.32,3.5Zm7.47,0L697.19,104l3.38-4,4.26,3.5Z"/><path class="cls-1" d="M726.13,129.6a17.47,17.47,0,0,1-2,4.41,24.88,24.88,0,0,1-3.27,4,40.76,40.76,0,0,1-4.35,3.74q-2.41,1.8-5.28,3.56l-4.49-4.2q2.68-1.59,5.1-3.18c1.62-1.08,3.08-2.13,4.41-3.16a37,37,0,0,0,3.38-2.94,13.5,13.5,0,0,0,2.1-2.57,9.58,9.58,0,0,1-2.59.58c-.92.08-1.59.12-2,.12a6.92,6.92,0,0,1-4.69-1.63,6.11,6.11,0,0,1-1.9-4.9,14.13,14.13,0,0,1,.58-4,13,13,0,0,1,1.64-3.56,8.81,8.81,0,0,1,2.51-2.54,5.61,5.61,0,0,1,3.15-1,6.41,6.41,0,0,1,3.26.84,8.25,8.25,0,0,1,2.51,2.28,12.74,12.74,0,0,1,1.73,3.35,17,17,0,0,1,.84,4.09h3.85v6.71Zm-8.29-11.14a2.26,2.26,0,0,0-1.19.32,2.91,2.91,0,0,0-.94.84,5,5,0,0,0-.61,1.11,2.9,2.9,0,0,0-.23,1.11,1.82,1.82,0,0,0,.78,1.52,3.63,3.63,0,0,0,2.19.58,16.38,16.38,0,0,0,2.13-.15,10,10,0,0,0,1.84-.37,8.07,8.07,0,0,0-1.46-3.62A3.1,3.1,0,0,0,717.84,118.46Z"/><path class="cls-1" d="M746.9,119.62a9.94,9.94,0,0,1-.85,4.2,8.72,8.72,0,0,1-2.36,3.15,10.4,10.4,0,0,1-3.65,2,15.45,15.45,0,0,1-4.69.67h-4.79c-.43,0-.77-.3-1-.9a6,6,0,0,1-.41-2.43,6.25,6.25,0,0,1,.41-2.45c.28-.62.62-.93,1-.93h5.08a10.87,10.87,0,0,0,4.46-.7,4.38,4.38,0,0,0,2.07-1.75,10.36,10.36,0,0,0-3-5.08,60.53,60.53,0,0,0-7.56-6.3,31.74,31.74,0,0,1,.56-4.2,3.09,3.09,0,0,1,1-1.87c1.28-.85,2.71-1.74,4.29-2.65s3.19-1.82,4.84-2.72,3.29-1.75,4.9-2.56,3.1-1.56,4.47-2.22l-.88,7.06q-3.79,1.69-6.94,3.33c-2.1,1.09-4.09,2.19-5.95,3.32Q746.89,113.74,746.9,119.62Z"/><path class="cls-1" d="M777.59,138.47a14.56,14.56,0,0,1-5.16-.88,11.44,11.44,0,0,1-4.09-2.56,12.09,12.09,0,0,1-2.71-4.18,15.37,15.37,0,0,1-1-5.74,16.37,16.37,0,0,1,.87-5.46,29.51,29.51,0,0,1,2.57-5.28l4.14,1.63a26,26,0,0,0-1.92,4.58,12.82,12.82,0,0,0-.59,3.48A7.24,7.24,0,0,0,772,129.8a8.89,8.89,0,0,0,6.13,2q4.73,0,7.29-2.66t2.57-8.43c0-1,0-2.71-.09-5s-.14-4.89-.23-7.85-.19-6.11-.27-9.48-.13-6.68-.17-10l5.48-2.62.41,34.66q0,9-4.08,13.48T777.59,138.47Z"/><path class="cls-1" d="M808.57,109.41a6.53,6.53,0,0,1,3.56,1,8.44,8.44,0,0,1,2.66,2.72,13.45,13.45,0,0,1,1.63,4,19.58,19.58,0,0,1,.56,4.7,16.5,16.5,0,0,1-1.11,6.13,20.27,20.27,0,0,1-3.15,5.31,30.8,30.8,0,0,1-4.9,4.75,65.24,65.24,0,0,1-6.42,4.41l-4.5-4.2q2.8-1.63,5.29-3.27t4.43-3.21a39,39,0,0,0,3.35-3,10.85,10.85,0,0,0,2-2.6,7.24,7.24,0,0,1-2.63.79c-.93.09-1.61.14-2,.14a7,7,0,0,1-4.7-1.63,6.12,6.12,0,0,1-1.89-4.9,14.18,14.18,0,0,1,.58-4,13,13,0,0,1,1.63-3.56,9.2,9.2,0,0,1,2.51-2.54A5.66,5.66,0,0,1,808.57,109.41Zm-.52,6.13a2.4,2.4,0,0,0-1.2.32,2.8,2.8,0,0,0-.93.85,4.74,4.74,0,0,0-.61,1.1,2.93,2.93,0,0,0-.24,1.11,1.83,1.83,0,0,0,.79,1.52,3.63,3.63,0,0,0,2.19.58,10.06,10.06,0,0,0,2.19-.23,8.65,8.65,0,0,0,1.72-.53,7.72,7.72,0,0,0-1.37-3.38A3.09,3.09,0,0,0,808.05,115.54Z"/><path class="cls-1" d="M829.46,128.67,824,129.89V91.38l5.48-2.63Z"/><path class="cls-1" d="M895.11,129.6a10.39,10.39,0,0,1-2.92-.38,9.21,9.21,0,0,1-2.6-1.28,19.4,19.4,0,0,1-2.8-2.45c-1-1-2.15-2.33-3.47-3.88a10.69,10.69,0,0,1-.88,2.33,7.26,7.26,0,0,1-3,3.5,17.66,17.66,0,0,1-4.87,2.07,32.33,32.33,0,0,1-5.66,1q-3,.27-5.4.27-3.21,0-6.21-.27a17.56,17.56,0,0,1-5.31-1.22,8.44,8.44,0,0,1-3.68-2.83,8.32,8.32,0,0,1-1.37-5,12.56,12.56,0,0,1,.58-3.41,18.65,18.65,0,0,1,1.75-4.06l4.14,1.46a20.45,20.45,0,0,0-1,2.8,8.27,8.27,0,0,0-.29,2,2.35,2.35,0,0,0,1,1.93,6.87,6.87,0,0,0,2.65,1.17,23.89,23.89,0,0,0,3.91.55c1.48.1,3.07.15,4.79.15,1.43,0,2.95-.06,4.55-.18a35.44,35.44,0,0,0,4.55-.61,17.82,17.82,0,0,0,3.79-1.17,4.88,4.88,0,0,0,2.28-1.78,8.23,8.23,0,0,0-.88-2.33,13.66,13.66,0,0,0-1.81-2.48,38.42,38.42,0,0,0-2.86-2.86l-4-3.59a28.11,28.11,0,0,1,.58-4.2,3.21,3.21,0,0,1,1-1.87q4-2.68,10-5.89T895,90.51l-.88,7.06Q888.7,99.9,884,102.32t-7.7,4.23q3.5,3.15,7,6.83t6.83,7a9.46,9.46,0,0,0,2.62,2,6.15,6.15,0,0,0,2.57.55h2.63v6.71ZM888.8,91c-2.56,1.25-5.3,2.67-8.19,4.26s-6,3.43-9.19,5.49l.52-4.15q4.72-3.15,9.13-5.63t8.26-4.4Z"/><path class="cls-1" d="M914.24,129.6a9.29,9.29,0,0,1-4-.76,6.45,6.45,0,0,1-2.75-2.51,7.44,7.44,0,0,1-2.91,2.48,9.87,9.87,0,0,1-4.2.79h-2.51q-.64,0-1-.9a5.88,5.88,0,0,1-.41-2.43,6.07,6.07,0,0,1,.41-2.45q.4-.93,1-.93h2.39a16.16,16.16,0,0,0,2.42-.15,3.48,3.48,0,0,0,1.57-.58,2.58,2.58,0,0,0,.91-1.22,7.07,7.07,0,0,0,.35-2v-2.45l4.84-1.22a36.12,36.12,0,0,0,.15,3.61,6.75,6.75,0,0,0,.61,2.37,2.69,2.69,0,0,0,1.34,1.28,6.24,6.24,0,0,0,2.4.38h2.74v6.71Zm-6.59-17.5-4.43-3.74,3.56-4.2,4.43,3.73Z"/><path class="cls-1" d="M915.88,141.33l-4.26-3.62,3.38-4,4.32,3.56Zm9.1-20a3,3,0,0,0-.26-1,13.23,13.23,0,0,0-.76-1.49c-.33-.56-.7-1.15-1.11-1.78s-.85-1.22-1.31-1.8l4.37-4.61a18.67,18.67,0,0,1,3.27,5.39,14.27,14.27,0,0,1,1.05,5q0,4.2-2.33,6.39t-7.18,2.19h-3.09q-.64,0-1-.9a6,6,0,0,1-.41-2.43,6.25,6.25,0,0,1,.41-2.45q.4-.93,1-.93h3.09a10.33,10.33,0,0,0,3.09-.38Q925,122.14,925,121.31Zm-1.63,20-4.26-3.62,3.38-4,4.26,3.56Z"/><path class="cls-1" d="M961.27,129.6a9.6,9.6,0,0,1-2.18-.23,6.09,6.09,0,0,1-1.73-.7,5.65,5.65,0,0,1-1.4-1.26,17.51,17.51,0,0,1-1.34-2,8.16,8.16,0,0,1-4,3.79,16.63,16.63,0,0,1-5.93.93,12.9,12.9,0,0,1-4.66-.76,11,11,0,0,1-4-2.8l2.92-5.07a8.86,8.86,0,0,0,2.74,1.46,11.6,11.6,0,0,0,3.5.46,13.92,13.92,0,0,0,4.84-.7c1.25-.46,1.87-1.12,1.87-2a8.3,8.3,0,0,0-.5-2.1c-.33-1-.74-2.14-1.22-3.39s-1-2.54-1.61-3.91-1.13-2.62-1.63-3.79L951.3,103l5.42,14.41c.35,1,.67,1.86,1,2.54a8.21,8.21,0,0,0,.93,1.69,3,3,0,0,0,1.14,1,4,4,0,0,0,1.63.29h2.33v6.71Z"/><path class="cls-1" d="M970.49,109.76l2.57-5.25q4.38,3,7.62,5.37a40.52,40.52,0,0,1,5.33,4.61,17.39,17.39,0,0,1,3.16,4.46,11.36,11.36,0,0,1,1,4.87,10,10,0,0,1-.32,2.51,6.58,6.58,0,0,1-1,2.28,5.94,5.94,0,0,1-1.72,1.63,4.44,4.44,0,0,1-2.42.64,7.3,7.3,0,0,1-1.87-.29,24.5,24.5,0,0,1-2.36-.76c-.84-.31-1.68-.66-2.54-1.05s-1.63-.76-2.33-1.11a9.58,9.58,0,0,1-3.88,1.55,24.76,24.76,0,0,1-4.17.38h-3.86q-.63,0-1.05-.9a6.06,6.06,0,0,1-.4-2.43,6.27,6.27,0,0,1,.4-2.45q.42-.93,1.05-.93h3.91c.55,0,1.11,0,1.7-.06a5.33,5.33,0,0,1-1.9-2.07,5.11,5.11,0,0,1-.44-2,8.9,8.9,0,0,1,1.29-4.38,9.4,9.4,0,0,1,3.67-3.62Zm5.14,4.38a3,3,0,0,0-1.46.41,5.69,5.69,0,0,0-1.37,1,6.26,6.26,0,0,0-1,1.31,2.59,2.59,0,0,0-.41,1.34,1.78,1.78,0,0,0,.41,1.08,4.16,4.16,0,0,0,1.05,1,11,11,0,0,0,1.4.82,7.2,7.2,0,0,0,1.4.55,2.61,2.61,0,0,0,1.51-1.22,3.79,3.79,0,0,0,.65-2.1,6.14,6.14,0,0,0-.67-3C976.67,114.53,976.17,114.14,975.63,114.14Zm5.66,3.21a5.52,5.52,0,0,1,.06.81V119a8.78,8.78,0,0,1-.59,2.45,5.3,5.3,0,0,1-1.28,1.93,8.78,8.78,0,0,0,1.23.61l1.51.64c.51.22,1,.39,1.4.53a3.75,3.75,0,0,0,.94.2.9.9,0,0,0,.78-.55,2.19,2.19,0,0,0,.32-1.14,6.12,6.12,0,0,0-.9-2.86A11.25,11.25,0,0,0,981.29,117.35Z"/><path class="cls-2" d="M540,216h0A324,324,0,0,1,864,540V864a0,0,0,0,1,0,0H216a0,0,0,0,1,0,0V540A324,324,0,0,1,540,216Z"/><rect class="cls-3" y="129.09" width="1080" height="1"/><rect class="cls-4" y="215.49" width="1080" height="1"/><rect class="cls-5" y="863.5" width="1080" height="1"/><rect class="cls-6" y="949.87" width="1080" height="1"/><rect class="cls-7" y="172.27" width="1080" height="1"/><rect class="cls-8" x="993.58" width="86.37" height="21.59"/><rect class="cls-8" x="993.58" y="64.78" width="86.37" height="21.59"/><rect class="cls-8" x="989.72" y="32.41" width="94.13" height="21.59" transform="translate(208.82 668.72) rotate(-39.46)"/><rect class="cls-8" width="86.37" height="21.59"/><rect class="cls-8" y="64.78" width="86.37" height="21.59"/><rect class="cls-8" x="-3.86" y="32.41" width="94.13" height="21.59" transform="translate(-17.61 37.3) rotate(-39.46)"/><rect class="cls-8" x="993.58" y="993.63" width="86.37" height="21.59"/><rect class="cls-8" x="993.58" y="1058.41" width="86.37" height="21.59"/><rect class="cls-8" x="989.72" y="1026.04" width="94.13" height="21.59" transform="translate(-422.62 895.16) rotate(-39.46)"/><rect class="cls-8" x="993.58" y="863.97" width="86.37" height="21.59"/><rect class="cls-8" x="993.58" y="928.75" width="86.37" height="21.59"/><rect class="cls-8" x="989.72" y="896.38" width="94.13" height="21.59" transform="translate(-340.23 865.61) rotate(-39.46)"/><rect class="cls-8" y="993.63" width="86.37" height="21.59"/><rect class="cls-8" y="1058.41" width="86.37" height="21.59"/><rect class="cls-8" x="-3.86" y="1026.04" width="94.13" height="21.59" transform="translate(-649.06 263.74) rotate(-39.46)"/><rect class="cls-9" y="85.87" width="1080" height="1"/><rect class="cls-10" y="993.13" width="1080" height="1"/><rect class="cls-11" x="993.13" width="1" height="1080"/><rect class="cls-12" x="85.87" width="1" height="1080"/></g></svg>