<svg xmlns="http://www.w3.org/2000/svg" xmlns:xlink="http://www.w3.org/1999/xlink" viewBox="0 0 1080 1080"><defs><style>.cls-1{fill:none;}.cls-2{fill:#fff;}.cls-3{fill:url(#linear-gradient);}.cls-4{fill:#4672e2;}.cls-5{fill:url(#linear-gradient-2);}.cls-6{fill:url(#linear-gradient-3);}.cls-7{fill:url(#linear-gradient-4);}.cls-8{fill:url(#linear-gradient-5);}.cls-9{fill:url(#linear-gradient-6);}.cls-10{fill:url(#linear-gradient-7);}.cls-11{fill:url(#linear-gradient-8);}.cls-12{clip-path:url(#clip-path);}.cls-13{fill:#061f6b;}</style><linearGradient id="linear-gradient" x1="16601.52" y1="14298.45" x2="16601.52" y2="13218.45" gradientTransform="translate(-13218.45 17465.72) rotate(-90)" gradientUnits="userSpaceOnUse"><stop offset="0" stop-color="#fff" stop-opacity="0"/><stop offset="0.51" stop-color="#fff"/><stop offset="1" stop-color="#fff" stop-opacity="0"/></linearGradient><linearGradient id="linear-gradient-2" x1="17379.35" y1="14298.45" x2="17379.35" y2="13218.45" xlink:href="#linear-gradient"/><linearGradient id="linear-gradient-3" x1="17336.12" y1="14298.45" x2="17336.12" y2="13218.45" xlink:href="#linear-gradient"/><linearGradient id="linear-gradient-4" x1="17249.72" y1="14298.45" x2="17249.72" y2="13218.45" xlink:href="#linear-gradient"/><linearGradient id="linear-gradient-5" x1="16472.09" y1="14298.45" x2="16472.09" y2="13218.45" xlink:href="#linear-gradient"/><linearGradient id="linear-gradient-6" x1="16515.32" y1="14298.45" x2="16515.32" y2="13218.45" xlink:href="#linear-gradient"/><linearGradient id="linear-gradient-7" x1="21411.35" y1="6234.44" x2="21411.35" y2="5154.44" gradientTransform="translate(-20417.72 -5154.44)" xlink:href="#linear-gradient"/><linearGradient id="linear-gradient-8" x1="20504.09" y1="6234.44" x2="20504.09" y2="5154.44" gradientTransform="translate(-20417.72 -5154.44)" xlink:href="#linear-gradient"/><clipPath id="clip-path"><path class="cls-1" d="M548.76,1682.37H531.24C354,1684.88,195.12,1763.6,86,1887.25v400.39H994V1887.25C884.88,1763.6,726,1684.88,548.76,1682.37Z"/></clipPath></defs><g id="Graphic"><rect class="cls-2" width="86.37" height="21.59"/><rect class="cls-2" y="64.78" width="86.37" height="21.59"/><rect class="cls-2" x="-3.86" y="32.41" width="94.13" height="21.59" transform="translate(-17.61 37.3) rotate(-39.46)"/><rect class="cls-2" x="993.58" y="993.63" width="86.37" height="21.59"/><rect class="cls-2" x="993.58" y="1058.41" width="86.37" height="21.59"/><rect class="cls-2" x="989.72" y="1026.04" width="94.13" height="21.59" transform="translate(-422.62 895.16) rotate(-39.46)"/><rect class="cls-2" x="993.58" y="864.2" width="86.37" height="21.59"/><rect class="cls-2" x="993.58" y="928.97" width="86.37" height="21.59"/><rect class="cls-2" x="989.72" y="896.6" width="94.13" height="21.59" transform="translate(-340.37 865.66) rotate(-39.46)"/><rect class="cls-2" y="993.63" width="86.37" height="21.59"/><rect class="cls-2" y="1058.41" width="86.37" height="21.59"/><rect class="cls-2" x="-3.86" y="1026.04" width="94.13" height="21.59" transform="translate(-649.06 263.74) rotate(-39.46)"/><rect class="cls-2" x="993.58" width="86.37" height="21.59"/><rect class="cls-2" x="993.58" y="64.78" width="86.37" height="21.59"/><rect class="cls-2" x="989.72" y="32.41" width="94.13" height="21.59" transform="translate(208.82 668.72) rotate(-39.46)"/><rect class="cls-2" x="993.58" y="129.61" width="86.37" height="21.59"/><rect class="cls-2" x="993.58" y="194.39" width="86.37" height="21.59"/><rect class="cls-2" x="989.72" y="162.02" width="94.13" height="21.59" transform="translate(126.46 698.25) rotate(-39.46)"/><rect class="cls-3" y="863.7" width="1080" height="1"/><polygon class="cls-4" points="475.25 993.6 442.75 993.6 465.72 957.6 446.45 957.6 446.45 950.4 478.85 950.4 455.89 986.4 475.25 986.4 475.25 993.6"/><polygon class="cls-4" points="514.76 993.6 486.06 993.6 485.95 950.4 514.76 950.4 514.76 957.6 493.17 957.6 493.24 986.4 514.76 986.4 514.76 993.6"/><rect class="cls-4" x="489.56" y="968.4" width="25.2" height="7.2"/><polygon class="cls-4" points="554.45 993.6 525.65 993.6 525.65 950.4 554.45 950.4 554.45 957.6 532.85 957.6 532.85 986.4 554.45 986.4 554.45 993.6"/><rect class="cls-4" x="529.25" y="968.4" width="25.2" height="7.2"/><polygon class="cls-4" points="594.05 993.6 565.25 993.6 565.25 950.4 594.05 950.4 594.05 957.6 572.45 957.6 572.45 986.4 594.05 986.4 594.05 993.6"/><rect class="cls-4" x="568.85" y="968.4" width="25.2" height="7.2"/><polygon class="cls-4" points="637.25 993.6 630.08 993.6 612.05 964.18 612.05 993.6 604.85 993.6 604.85 950.4 612.04 950.4 630.05 979.78 630.05 950.4 637.25 950.4 637.25 993.6"/><rect class="cls-4" x="950.4" y="170.63" width="43.2" height="4.32"/><path class="cls-4" d="M905.06,980.79,896,991.93h9.31v1.67H893.69V992l9.16-11.26h-8.67V979.1h10.88Z"/><path class="cls-4" d="M914.35,992.32a3.71,3.71,0,0,0,4-3.34l1.89.3a5,5,0,0,1-1.91,3.42,6.31,6.31,0,0,1-4,1.26,6.55,6.55,0,0,1-5.11-2,8.24,8.24,0,0,1-1.76-5.67,8,8,0,0,1,1.84-5.51,6.33,6.33,0,0,1,5-2.06,5.85,5.85,0,0,1,4.57,1.78,7.18,7.18,0,0,1,1.63,5v1.23H909.54Q909.71,992.32,914.35,992.32Zm-.1-11.94a4.32,4.32,0,0,0-3.23,1.21,5.77,5.77,0,0,0-1.43,3.55h8.78C918.23,982,916.85,980.38,914.25,980.38Z"/><path class="cls-4" d="M930.09,992.32a3.71,3.71,0,0,0,4-3.34l1.89.3a5,5,0,0,1-1.91,3.42,6.31,6.31,0,0,1-4,1.26,6.55,6.55,0,0,1-5.11-2,8.24,8.24,0,0,1-1.75-5.67,8,8,0,0,1,1.83-5.51,6.33,6.33,0,0,1,5-2.06,5.85,5.85,0,0,1,4.57,1.78,7.18,7.18,0,0,1,1.63,5v1.23H925.28C925.39,990.47,927,992.32,930.09,992.32Zm-.1-11.94a4.28,4.28,0,0,0-3.22,1.21,5.77,5.77,0,0,0-1.44,3.55h8.78C934,982,932.59,980.38,930,980.38Z"/><path class="cls-4" d="M945.83,992.32a3.71,3.71,0,0,0,4-3.34l1.9.3a5,5,0,0,1-1.91,3.42,6.36,6.36,0,0,1-4,1.26,6.51,6.51,0,0,1-5.1-2,8.2,8.2,0,0,1-1.76-5.67,8,8,0,0,1,1.83-5.51,6.33,6.33,0,0,1,5-2.06,5.85,5.85,0,0,1,4.57,1.78,7.18,7.18,0,0,1,1.63,5v1.23H941C941.13,990.47,942.74,992.32,945.83,992.32Zm-.1-11.94a4.3,4.3,0,0,0-3.22,1.21,5.71,5.71,0,0,0-1.43,3.55h8.77Q949.64,980.39,945.73,980.38Z"/><path class="cls-4" d="M967.76,984.21v9.39h-2v-9a4.27,4.27,0,0,0-1-3,3.64,3.64,0,0,0-2.81-1.07,4,4,0,0,0-3.22,1.33,5.93,5.93,0,0,0-1.09,3.87v7.91h-2V979.1h2V981a5.13,5.13,0,0,1,4.64-2.26,5,5,0,0,1,5.46,5.45Z"/><path class="cls-4" d="M972,990.77h2.69v2.83H972Z"/><path class="cls-4" d="M981,976.51h-2v-3.34h2Zm0,17.09h-2V979.1h2Z"/><path class="cls-4" d="M987.63,993.6h-2V979.1h2v2.83A4.59,4.59,0,0,1,992,979.1H993V981H992a3.61,3.61,0,0,0-3.12,1.77,8.2,8.2,0,0,0-1.2,4.66Z"/><path class="cls-4" d="M718.86,216H717.7a3.89,3.89,0,0,1-2.22-.57,3.94,3.94,0,0,1-1.31-1.47,6.42,6.42,0,0,1-.64-2,17.44,17.44,0,0,1-.21-2.25q-.06-3.09-.13-6.37c-.05-2.19-.16-4.33-.34-6.44l2.43-1.13c0,1.77.05,3.79.1,6.08s.1,4.65.16,7.1c0,.47,0,1,.07,1.46a5,5,0,0,0,.32,1.37,2.56,2.56,0,0,0,.75,1,2,2,0,0,0,1.37.41h.81Z"/><path class="cls-4" d="M718.37,215.64a2.07,2.07,0,0,1-.21-1,2.22,2.22,0,0,1,.21-1.05.58.58,0,0,1,.49-.38h2a12.61,12.61,0,0,0,2.48-.2,9.61,9.61,0,0,0,1.88-.58c.57-.26,1.16-.54,1.75-.87s1.29-.67,2.09-1.06a13,13,0,0,1-1.33-.45l-1.33-.53c-.43-.16-.82-.31-1.18-.43a2.66,2.66,0,0,0-.83-.19,1.54,1.54,0,0,0-.82.29,6.14,6.14,0,0,0-1.17,1.05l-1.6-.91a7.84,7.84,0,0,1,.71-1.06,12.49,12.49,0,0,1,.88-1,4.73,4.73,0,0,1,1-.76,2,2,0,0,1,1-.29,4.79,4.79,0,0,1,1.82.41l2.15.89a24.53,24.53,0,0,0,2.56.89,11.3,11.3,0,0,0,3.13.41h.55l-.58,2.57a10.14,10.14,0,0,0-1.58.11,11.57,11.57,0,0,0-1.43.32,1.86,1.86,0,0,0,1.14,1.18,6.39,6.39,0,0,0,1.84.22h2.27V216h-2.48a8,8,0,0,1-1.59-.14,2.83,2.83,0,0,1-1.15-.53,3.24,3.24,0,0,1-.86-1,10,10,0,0,1-.71-1.66,23.42,23.42,0,0,0-2,1.21,18.36,18.36,0,0,1-1.78,1.08,8.92,8.92,0,0,1-2,.77,11.2,11.2,0,0,1-2.8.29h-1.93A.56.56,0,0,1,718.37,215.64Zm7,6.77-2-1.72,1.6-1.93,2,1.73Z"/><path class="cls-4" d="M736.22,216a.56.56,0,0,1-.49-.35,2.07,2.07,0,0,1-.21-1,2.22,2.22,0,0,1,.21-1.05.58.58,0,0,1,.49-.38h1.23a4,4,0,0,0,2-.46,1.78,1.78,0,0,0,.8-1.67v-1.22l2-.5a15.38,15.38,0,0,0,.08,1.62,2.87,2.87,0,0,0,.35,1.21,1.76,1.76,0,0,0,.81.76,3.36,3.36,0,0,0,1.48.26h1.13V216H744.6c-1.77,0-3-.6-3.59-1.81a3.22,3.22,0,0,1-1.45,1.35,4.45,4.45,0,0,1-2,.46Zm5-9.42-2-1.72,1.6-1.9,2.05,1.69Z"/><path class="cls-4" d="M753.46,211.76q0,4.23-4.84,4.23h-2.54a.56.56,0,0,1-.49-.35,2.07,2.07,0,0,1-.21-1,2.16,2.16,0,0,1,.21-1.06.57.57,0,0,1,.49-.37h2.66c1.69,0,2.54-.39,2.54-1.16a2,2,0,0,0-.19-.75,8.06,8.06,0,0,0-.46-.86,7.63,7.63,0,0,0-.58-.86c-.21-.28-.41-.53-.58-.74l2-2.1a9.1,9.1,0,0,1,1.52,2.59A7.21,7.21,0,0,1,753.46,211.76ZM748,218.88l2,1.64-1.57,1.86-1.93-1.66Zm3.68,0,1.92,1.64L752,222.38l-2-1.66Z"/><path class="cls-4" d="M759.77,215.5l-1.93.55-.46-19.22,2.39-1.11Z"/><path class="cls-4" d="M778.55,213.6a6,6,0,0,1-.65,2.76,11,11,0,0,1-1.72,2.45,18.81,18.81,0,0,1-2.45,2.2q-1.4,1.05-2.82,2l-1.95-1.8c.89-.59,1.78-1.19,2.65-1.81a29,29,0,0,0,2.36-1.86,11.19,11.19,0,0,0,1.7-1.8,3,3,0,0,0,.64-1.65,3.75,3.75,0,0,0-.13-.85,8.06,8.06,0,0,0-.38-1.06q-.25-.57-.57-1.17a11.2,11.2,0,0,0-.7-1.12l2-1.93a10.88,10.88,0,0,1,.88,1.46,14.67,14.67,0,0,1,.64,1.5,13.11,13.11,0,0,1,.41,1.43A5.81,5.81,0,0,1,778.55,213.6Z"/><path class="cls-4" d="M791.92,211.59a4.91,4.91,0,0,1-.51,2.4,3.59,3.59,0,0,1-1.39,1.42,5.91,5.91,0,0,1-2,.67,16.56,16.56,0,0,1-2.51.18,7.45,7.45,0,0,1-2.34-.34,4.25,4.25,0,0,1-1.77-1.18l1.16-2.19a4.91,4.91,0,0,0,3,.82,10.57,10.57,0,0,0,3.19-.37c.75-.24,1.12-.62,1.12-1.15,0-1.44-1.52-3.15-4.58-5.13l1.14-2.75a16.48,16.48,0,0,1,1.94,1.4,12.77,12.77,0,0,1,1.77,1.83,10.12,10.12,0,0,1,1.28,2.13A5.56,5.56,0,0,1,791.92,211.59Z"/><path class="cls-4" d="M807.7,224.54a8.19,8.19,0,0,1-2.87-.47,6.08,6.08,0,0,1-2.22-1.35,6.23,6.23,0,0,1-1.43-2.16,7.73,7.73,0,0,1-.51-2.9,8,8,0,0,1,.41-2.59,14.19,14.19,0,0,1,1.16-2.55l1.84.73a5,5,0,0,0-.46.93c-.14.35-.26.71-.37,1.07a8.68,8.68,0,0,0-.25,1,4.69,4.69,0,0,0-.08.84q0,4.6,5.16,4.61a12.32,12.32,0,0,0,2.41-.23,13.55,13.55,0,0,0,2-.56,8.42,8.42,0,0,0,1.39-.64,2,2,0,0,0,.61-.47.24.24,0,0,0-.16-.19l-.31-.1-2.54-.61a5.94,5.94,0,0,1-.81-.23,3,3,0,0,1-.69-.37,1.5,1.5,0,0,1-.48-.57,1.87,1.87,0,0,1-.18-.87q0-3.74,5.61-3.74h2.33V216H815.9l-1.36,0h-1.21q-.55,0-.93,0c-.66.06-1,.21-1,.44a.29.29,0,0,0,.11.19,1.07,1.07,0,0,0,.48.19l2.65.61a3.8,3.8,0,0,1,1.4.66,1.67,1.67,0,0,1,.53,1.38,3,3,0,0,1-.89,2.12,7.5,7.5,0,0,1-2.23,1.6,13,13,0,0,1-2.89,1A13.26,13.26,0,0,1,807.7,224.54Z"/><path class="cls-4" d="M829.05,214.13a3.51,3.51,0,0,1-1.41,1.37,3.91,3.91,0,0,1-1.88.49,3.7,3.7,0,0,1-3.59-1.86,3.2,3.2,0,0,1-1.42,1.4,4,4,0,0,1-1.85.46h-1.66a.58.58,0,0,1-.5-.35,2.19,2.19,0,0,1-.2-1,2.36,2.36,0,0,1,.2-1.05c.14-.25.3-.38.5-.38h1.52a4.51,4.51,0,0,0,1-.11,3.16,3.16,0,0,0,.86-.35,1.84,1.84,0,0,0,.62-.62,1.72,1.72,0,0,0,.23-.9v-1.37l1.93-.5a14.71,14.71,0,0,0,.07,1.55,3.76,3.76,0,0,0,.31,1.21,1.72,1.72,0,0,0,.71.8,2.43,2.43,0,0,0,1.3.29,2.86,2.86,0,0,0,1.82-.55,2,2,0,0,0,.72-1.66v-1.14l1.92-.5q0,.85.06,1.56a3.36,3.36,0,0,0,.31,1.23,1.8,1.8,0,0,0,.73.79,2.78,2.78,0,0,0,1.35.27,2.09,2.09,0,0,0,1.3-.33,1,1,0,0,0,.42-.83,2.17,2.17,0,0,0-.16-.78,6,6,0,0,0-.4-.86c-.17-.29-.35-.57-.53-.84a6.6,6.6,0,0,0-.54-.73l2-2.1a7.85,7.85,0,0,1,1.43,2.61,8.11,8.11,0,0,1,.41,2.46,4.4,4.4,0,0,1-1,3,3.63,3.63,0,0,1-2.74,1.25,3.58,3.58,0,0,1-.56,0l-.49,0a3.88,3.88,0,0,1-1.65-.61A3.58,3.58,0,0,1,829.05,214.13Z"/><path class="cls-4" d="M845.36,213.6a6,6,0,0,1-.65,2.76,11,11,0,0,1-1.72,2.45,18.81,18.81,0,0,1-2.45,2.2q-1.39,1.05-2.82,2l-2-1.8c.89-.59,1.77-1.19,2.65-1.81a29,29,0,0,0,2.36-1.86,11.19,11.19,0,0,0,1.7-1.8,3,3,0,0,0,.64-1.65,3.75,3.75,0,0,0-.13-.85,8.06,8.06,0,0,0-.38-1.06q-.25-.57-.57-1.17a11.2,11.2,0,0,0-.7-1.12l1.95-1.93a10.88,10.88,0,0,1,.88,1.46,14.67,14.67,0,0,1,.64,1.5,13.11,13.11,0,0,1,.41,1.43A5.81,5.81,0,0,1,845.36,213.6Z"/><path class="cls-4" d="M855.2,216H854a3.66,3.66,0,0,1-3.53-2,6.42,6.42,0,0,1-.64-2,17.44,17.44,0,0,1-.21-2.25q-.06-3.09-.13-6.37c0-2.19-.16-4.33-.33-6.44l2.42-1.13c0,1.77,0,3.79.1,6.08s.1,4.65.16,7.1c0,.47,0,1,.07,1.46a5,5,0,0,0,.32,1.37,2.56,2.56,0,0,0,.75,1,2,2,0,0,0,1.37.41h.82Z"/><path class="cls-4" d="M855.2,216a.58.58,0,0,1-.5-.35,2.08,2.08,0,0,1-.2-1,2.23,2.23,0,0,1,.2-1.05c.14-.25.3-.38.5-.38h2.85a13.11,13.11,0,0,0,1.42-.07,7.94,7.94,0,0,0,1.23-.23,3.07,3.07,0,0,0,.87-.41.91.91,0,0,0,.39-.57,2.57,2.57,0,0,0,0-.93,4.51,4.51,0,0,1-1.15.4,5.54,5.54,0,0,1-1.15.12,2.89,2.89,0,0,1-2.12-.8,2.93,2.93,0,0,1-.8-2.15,6,6,0,0,1,.26-1.73,5.14,5.14,0,0,1,.75-1.52,4,4,0,0,1,1.14-1.06,2.63,2.63,0,0,1,1.47-.41,2.34,2.34,0,0,1,1.81.76,5.78,5.78,0,0,1,1.11,1.86,10.6,10.6,0,0,1,.55,2.35A18.62,18.62,0,0,1,864,211a4.55,4.55,0,0,1-1.51,3.83,6.74,6.74,0,0,1-4.27,1.18Zm4.87-14.26L858,200l1.6-1.9,2,1.69Zm-.09,7.35a2.84,2.84,0,0,0,1.75-.53,5.5,5.5,0,0,0-.63-1.59,1.17,1.17,0,0,0-1-.65,1.25,1.25,0,0,0-1,.51,1.63,1.63,0,0,0-.41,1.06,1.12,1.12,0,0,0,.36.86A1.38,1.38,0,0,0,860,209.08Z"/><path class="cls-4" d="M883.17,211.7a3.09,3.09,0,0,1-.19,1,3.34,3.34,0,0,1-.54,1,3.24,3.24,0,0,1-.83.78,1.87,1.87,0,0,1-1.09.33h-3.68a1.85,1.85,0,0,0-1,.23,1.42,1.42,0,0,0-.57.66,2.73,2.73,0,0,0-.25,1c0,.39,0,.84,0,1.32V228h-2c0-2.27-.06-4.07-.08-5.38s0-2.31-.05-3,0-1.15,0-1.36v-.44a9.38,9.38,0,0,1,.61-3.76,3,3,0,0,1,2-1.78,10.2,10.2,0,0,1,.14-1.65,7.26,7.26,0,0,1,.5-1.74,3.87,3.87,0,0,1,.93-1.35,2.08,2.08,0,0,1,1.46-.54,3.9,3.9,0,0,1,1.73.42,5.81,5.81,0,0,1,1.54,1.09,6,6,0,0,1,1.09,1.51A3.66,3.66,0,0,1,883.17,211.7Zm-2.21.15a1.62,1.62,0,0,0-.27-.67,3.82,3.82,0,0,0-.58-.72,3.53,3.53,0,0,0-.77-.56,1.7,1.7,0,0,0-.83-.24.78.78,0,0,0-.57.22,1.49,1.49,0,0,0-.35.57,3.52,3.52,0,0,0-.19.79,6.36,6.36,0,0,0-.06.87l.76,0h2.1C880.68,212.17,880.94,212.06,881,211.85Z"/><path class="cls-4" d="M894.76,212.43a8.45,8.45,0,0,1-.69,3.46,11,11,0,0,1-1.82,2.85,15.76,15.76,0,0,1-2.64,2.34,28.79,28.79,0,0,1-3.14,1.94l-1.9-1.78c.65-.36,1.39-.81,2.22-1.32a28.68,28.68,0,0,0,2.44-1.69,16.15,16.15,0,0,0,2.08-1.92,4.49,4.49,0,0,0,1.14-2,2.25,2.25,0,0,1-.71.29,4.87,4.87,0,0,1-1.33.15,3.63,3.63,0,0,1-2.29-.7,2.59,2.59,0,0,1-.92-2.19,6.65,6.65,0,0,1,.25-1.75,6.28,6.28,0,0,1,.73-1.72,4.54,4.54,0,0,1,1.15-1.3,2.44,2.44,0,0,1,1.52-.51,2.79,2.79,0,0,1,1.73.55,4.49,4.49,0,0,1,1.23,1.4,6.78,6.78,0,0,1,.71,1.89A8.91,8.91,0,0,1,894.76,212.43Zm-2.34-.73a3.52,3.52,0,0,0-.58-1.67,1.44,1.44,0,0,0-1.23-.66,1.22,1.22,0,0,0-1,.57,1.9,1.9,0,0,0-.41,1.09c0,.74.52,1.11,1.55,1.11a3.92,3.92,0,0,0,.89-.1A2.3,2.3,0,0,0,892.42,211.7Z"/><path class="cls-4" d="M908.15,211.59a4.91,4.91,0,0,1-.51,2.4,3.59,3.59,0,0,1-1.39,1.42,5.91,5.91,0,0,1-2,.67,16.56,16.56,0,0,1-2.51.18,7.34,7.34,0,0,1-2.33-.34,4.22,4.22,0,0,1-1.78-1.18l1.16-2.19a4.91,4.91,0,0,0,3,.82A10.57,10.57,0,0,0,905,213c.75-.24,1.13-.62,1.13-1.15q0-2.16-4.58-5.13l1.13-2.75a16.48,16.48,0,0,1,1.94,1.4,12.77,12.77,0,0,1,1.77,1.83,10.12,10.12,0,0,1,1.28,2.13A5.56,5.56,0,0,1,908.15,211.59Z"/><path class="cls-4" d="M930,205.84c.08-1.58.29-2.48.64-2.71q2.31-1.57,5.17-3.15t6.5-3.21l-.35,2.94q-3.06,1.29-5.38,2.53c-1.55.82-2.9,1.62-4.07,2.37A40.15,40.15,0,0,1,936,208c1.13,1.21,2.32,2.42,3.59,3.65a5.75,5.75,0,0,0,1.59,1.19,3.43,3.43,0,0,0,1.53.35h1.37V216h-1.25a6.47,6.47,0,0,1-1.8-.22,4.59,4.59,0,0,1-1.53-.77,10.05,10.05,0,0,1-1.62-1.52c-.57-.64-1.26-1.44-2.06-2.42a3.9,3.9,0,0,1-.11,1,3.72,3.72,0,0,1-.47,1.52,3.9,3.9,0,0,1-1,1.12,6.18,6.18,0,0,1-1.4.81,9,9,0,0,1-1.69.49,25.68,25.68,0,0,1-2.85.45,26.3,26.3,0,0,1-2.93.17c-1,0-2.06,0-3.08-.14a9.35,9.35,0,0,1-2.74-.61,4.61,4.61,0,0,1-2-1.43,4.15,4.15,0,0,1-.74-2.61,5.76,5.76,0,0,1,.29-1.68,5.6,5.6,0,0,1,.85-1.67l1.75.64a4.94,4.94,0,0,0-.64,1.92,2.21,2.21,0,0,0,.29,1.29,2,2,0,0,0,1,.83,6.1,6.1,0,0,0,1.56.44,17.57,17.57,0,0,0,1.89.16l2,0a20.27,20.27,0,0,0,5.91-.71c1.51-.46,2.34-1.08,2.5-1.86a3.26,3.26,0,0,0-.41-1.27,7.15,7.15,0,0,0-.92-1.28,15.45,15.45,0,0,0-1.34-1.36Zm9.19-9.54c-1.28.62-2.66,1.34-4.11,2.16s-3,1.72-4.55,2.71l.23-1.66q2.53-1.66,4.65-2.87t4-2.15Z"/><path class="cls-4" d="M944.12,216a.58.58,0,0,1-.5-.35,2.19,2.19,0,0,1-.2-1,2.36,2.36,0,0,1,.2-1.05c.14-.25.3-.38.5-.38h1.22a4,4,0,0,0,2-.46,1.76,1.76,0,0,0,.8-1.67v-1.22l2-.5a15.6,15.6,0,0,0,.07,1.62,3.19,3.19,0,0,0,.35,1.21,1.83,1.83,0,0,0,.82.76,3.34,3.34,0,0,0,1.47.26H954V216h-1.49c-1.77,0-3-.6-3.59-1.81a3.25,3.25,0,0,1-1.44,1.35,4.48,4.48,0,0,1-2,.46Zm5-9.42-2-1.72,1.6-1.9,2,1.69Z"/><path class="cls-4" d="M961.36,211.76q0,4.23-4.84,4.23H954a.59.59,0,0,1-.5-.35,2.19,2.19,0,0,1-.2-1,2.29,2.29,0,0,1,.2-1.06.59.59,0,0,1,.5-.37h2.65c1.7,0,2.54-.39,2.54-1.16a1.8,1.8,0,0,0-.19-.75,6.48,6.48,0,0,0-.45-.86,9.26,9.26,0,0,0-.58-.86l-.58-.74,2-2.1a9.1,9.1,0,0,1,1.52,2.59A7.21,7.21,0,0,1,961.36,211.76Zm-5.48,7.12,2,1.64-1.57,1.86-1.93-1.66Zm3.67,0,1.93,1.64-1.55,1.86L958,220.72Z"/><path class="cls-4" d="M978.58,216h-1.2a4.63,4.63,0,0,1-1.2-.13,2.86,2.86,0,0,1-.9-.42,3.61,3.61,0,0,1-.75-.76,10.4,10.4,0,0,1-.68-1.11,4.83,4.83,0,0,1-.93,1.37,4,4,0,0,1-1.19.82,5,5,0,0,1-1.48.39,14.76,14.76,0,0,1-1.83.11,8,8,0,0,1-2.43-.33,4,4,0,0,1-1.74-1l1.25-2.33a3.65,3.65,0,0,0,1.11.52,6.84,6.84,0,0,0,1.37.24h1a5.9,5.9,0,0,0,.86-.06,5.73,5.73,0,0,0,1.69-.31,1.51,1.51,0,0,0,.91-.74,1.67,1.67,0,0,0,.23-.88,2.13,2.13,0,0,0-.1-.56q-.1-.37-.36-1.11c-.18-.5-.43-1.15-.76-1.94l-1.29-3.1,1.78-2,2.78,7.26a9.08,9.08,0,0,0,1.21,2.41,1.83,1.83,0,0,0,1.53.83h1.14Z"/><path class="cls-4" d="M981.81,213.16a2.48,2.48,0,0,1-1.48-2.3,4.27,4.27,0,0,1,.75-2.31,5.51,5.51,0,0,1,2.25-1.89l-.82-.56,1.14-2.48q1.64,1.14,3.09,2.28a21.88,21.88,0,0,1,2.57,2.33,10.88,10.88,0,0,1,1.75,2.47,5.71,5.71,0,0,1,.64,2.64,5.33,5.33,0,0,1-.13,1.18,3.38,3.38,0,0,1-.44,1.09,2.55,2.55,0,0,1-.78.82,2.12,2.12,0,0,1-1.18.32,3.79,3.79,0,0,1-1-.17c-.39-.12-.79-.27-1.21-.44l-1.21-.54-1-.48a6.19,6.19,0,0,1-1.84.67,10.55,10.55,0,0,1-2.13.2h-2.19a.56.56,0,0,1-.49-.35,2.08,2.08,0,0,1-.2-1,2.23,2.23,0,0,1,.2-1.05.58.58,0,0,1,.49-.38Zm3.82-2.8a2.93,2.93,0,0,0-.33-1.38,1,1,0,0,0-.92-.63,1.5,1.5,0,0,0-.71.2,3.36,3.36,0,0,0-.68.51,2.67,2.67,0,0,0-.49.68,1.48,1.48,0,0,0-.19.71,1,1,0,0,0,.25.63,3,3,0,0,0,.58.55,3.56,3.56,0,0,0,.7.41,1.54,1.54,0,0,0,.63.16A.72.72,0,0,0,985,212a1.83,1.83,0,0,0,.38-.48,2.5,2.5,0,0,0,.3-1.17Zm1.7-.35a5.7,5.7,0,0,1-.24,1.81,3.23,3.23,0,0,1-.78,1.28,4.26,4.26,0,0,0,.58.34l.77.37.73.29a2.08,2.08,0,0,0,.48.11.56.56,0,0,0,.54-.27,1.17,1.17,0,0,0,.16-.6,2.74,2.74,0,0,0-.7-1.68A13.32,13.32,0,0,0,987.33,210Z"/><path class="cls-4" d="M889.94,246.6a4.91,4.91,0,0,1-.51,2.4,3.56,3.56,0,0,1-1.38,1.42,6,6,0,0,1-2,.67,16.33,16.33,0,0,1-2.5.18,7.41,7.41,0,0,1-2.34-.34,4.34,4.34,0,0,1-1.78-1.18l1.17-2.19a5,5,0,0,0,3,.82,10.64,10.64,0,0,0,3.2-.37c.75-.24,1.12-.62,1.12-1.15q0-2.16-4.58-5.13l1.14-2.75a16.48,16.48,0,0,1,1.94,1.4,12.18,12.18,0,0,1,1.76,1.83,9.77,9.77,0,0,1,1.29,2.13A5.55,5.55,0,0,1,889.94,246.6Z"/><path class="cls-4" d="M898.26,250.33a6.22,6.22,0,0,1-.72,2.66,10.27,10.27,0,0,1-1.72,2.37,19.48,19.48,0,0,1-2.41,2.15c-.89.68-1.8,1.33-2.74,1.95l-1.95-1.81c.89-.58,1.78-1.18,2.65-1.8a29.28,29.28,0,0,0,2.37-1.86,10.73,10.73,0,0,0,1.69-1.81,2.85,2.85,0,0,0,.64-1.64,3.26,3.26,0,0,0-.13-.85,8.72,8.72,0,0,0-.38-1.07c-.17-.37-.36-.76-.57-1.16a10.7,10.7,0,0,0-.7-1.13l2-2q.62,1,1.08,1.71a9,9,0,0,0,.91,1.18,3,3,0,0,0,.89.68,2.19,2.19,0,0,0,1,.22h1.08V251h-.93A3,3,0,0,1,898.26,250.33Z"/><path class="cls-4" d="M901.2,251a.56.56,0,0,1-.49-.35,2.07,2.07,0,0,1-.21-1.05,2.22,2.22,0,0,1,.21-1,.58.58,0,0,1,.49-.38h1.23a4,4,0,0,0,2-.46,1.78,1.78,0,0,0,.8-1.67v-1.22l2-.5a15.66,15.66,0,0,0,.08,1.62,3,3,0,0,0,.35,1.21,1.76,1.76,0,0,0,.81.76,3.36,3.36,0,0,0,1.48.26h1.14V251h-1.49c-1.77,0-3-.6-3.59-1.81a3.22,3.22,0,0,1-1.45,1.35,4.44,4.44,0,0,1-2,.46Zm2.72,2.89,2,1.63-1.57,1.87-1.93-1.66Zm3.67,0,1.93,1.63L908,257.39l-2-1.66Z"/><path class="cls-4" d="M912.52,240.85c.12-1.58.33-2.48.65-2.71q2.3-1.57,5.16-3.15c1.91-1.05,4.08-2.12,6.54-3.21l-.38,2.94c-2,.86-3.84,1.7-5.39,2.53s-2.89,1.62-4,2.37a13.69,13.69,0,0,1,3,3.29A6,6,0,0,1,919,246a4.94,4.94,0,0,1-.45,2.14,4.45,4.45,0,0,1-1.26,1.59,5.69,5.69,0,0,1-1.86,1,7.73,7.73,0,0,1-2.29.33h-2.05a.57.57,0,0,1-.49-.35,2.08,2.08,0,0,1-.2-1.05,2.23,2.23,0,0,1,.2-1c.14-.25.3-.38.49-.38h2.28a5.27,5.27,0,0,0,2.49-.49,1.75,1.75,0,0,0,1-1.43,2.78,2.78,0,0,0-.38-1.27,7.14,7.14,0,0,0-.93-1.29,17.39,17.39,0,0,0-1.36-1.35Zm9.22-9.54c-1.28.62-2.66,1.34-4.12,2.16s-3,1.72-4.54,2.71l.2-1.66q2.54-1.67,4.67-2.87t4-2.15Z"/><path class="cls-4" d="M930.47,259.55a8.29,8.29,0,0,1-2.88-.47,6,6,0,0,1-3.64-3.51,7.77,7.77,0,0,1-.51-2.9,8.3,8.3,0,0,1,.4-2.59,14.27,14.27,0,0,1,1.17-2.55l1.84.73a5,5,0,0,0-.47.93c-.13.35-.26.71-.36,1.07a9,9,0,0,0-.25,1,4.92,4.92,0,0,0-.09.85q0,4.61,5.17,4.61a12.22,12.22,0,0,0,2.4-.23,13.7,13.7,0,0,0,2-.56,8.27,8.27,0,0,0,1.38-.64,1.9,1.9,0,0,0,.61-.47.24.24,0,0,0-.16-.19l-.3-.1-2.54-.61a6.54,6.54,0,0,1-.82-.23,3,3,0,0,1-.68-.37,1.34,1.34,0,0,1-.48-.57,1.87,1.87,0,0,1-.18-.87q0-3.74,5.6-3.74H940V251h-1.35l-1.35,0H936.1c-.37,0-.68,0-.94,0-.66.06-1,.21-1,.44a.32.32,0,0,0,.1.19,1.13,1.13,0,0,0,.48.19l2.66.61a3.88,3.88,0,0,1,1.4.66,1.67,1.67,0,0,1,.53,1.38,3,3,0,0,1-.89,2.12,7.55,7.55,0,0,1-2.24,1.6,12.74,12.74,0,0,1-2.88,1A13.33,13.33,0,0,1,930.47,259.55Z"/><path class="cls-4" d="M940,251a.56.56,0,0,1-.51-.36,2.24,2.24,0,0,1-.19-1,2.38,2.38,0,0,1,.19-1,.56.56,0,0,1,.51-.38h.43a10.26,10.26,0,0,0,2.1-.2A2.17,2.17,0,0,0,944,246.8c.33-.58.66-1.15,1-1.69a11.29,11.29,0,0,1,1-1.44,5.13,5.13,0,0,1,1-1,2.05,2.05,0,0,1,1.15-.36,2.32,2.32,0,0,1,1.52.52,4.34,4.34,0,0,1,1.08,1.36,6.77,6.77,0,0,1,.64,1.82,9.55,9.55,0,0,1,.21,2,3.44,3.44,0,0,1-.19,1.05,3.75,3.75,0,0,1-.53,1,2.82,2.82,0,0,1-.8.74,1.87,1.87,0,0,1-1,.29,4.5,4.5,0,0,1-1-.14,7.87,7.87,0,0,1-1.15-.4,8.66,8.66,0,0,1-1.14-.57,8,8,0,0,1-1-.64,4.73,4.73,0,0,1-1.74,1.31,5.68,5.68,0,0,1-2.23.38Zm9.48-3.29a3.63,3.63,0,0,0-.13-.91A4,4,0,0,0,949,246a2.12,2.12,0,0,0-.49-.63,1.07,1.07,0,0,0-.59-.28.51.51,0,0,0-.29,0c-.49.18-1,.88-1.58,2.1a3.07,3.07,0,0,0,.68.44c.27.13.54.26.83.38a6.29,6.29,0,0,0,.8.27,2.47,2.47,0,0,0,.61.11.5.5,0,0,0,.34-.15A.72.72,0,0,0,949.49,247.71Z"/><path class="cls-4" d="M965.39,248.61a6,6,0,0,1-.66,2.76,11,11,0,0,1-1.72,2.45,18.81,18.81,0,0,1-2.45,2.2c-.93.7-1.86,1.37-2.82,2l-2-1.8c.89-.59,1.78-1.19,2.65-1.81a29.28,29.28,0,0,0,2.37-1.86,10.73,10.73,0,0,0,1.69-1.81,2.85,2.85,0,0,0,.64-1.64,3.26,3.26,0,0,0-.13-.85,6.84,6.84,0,0,0-.38-1.06c-.17-.38-.35-.77-.57-1.17a9.63,9.63,0,0,0-.7-1.12l2-1.93a10.81,10.81,0,0,1,.87,1.46,12.74,12.74,0,0,1,.64,1.5,11.2,11.2,0,0,1,.41,1.43A5.87,5.87,0,0,1,965.39,248.61Z"/><path class="cls-4" d="M971.6,250.51l-1.92.55-.47-19.23,2.39-1.1Z"/><path class="cls-4" d="M980,250.33a6.22,6.22,0,0,1-.72,2.66,10.58,10.58,0,0,1-1.72,2.37,19.48,19.48,0,0,1-2.41,2.15c-.89.68-1.81,1.33-2.74,1.95l-2-1.81c.89-.58,1.78-1.18,2.65-1.8a29,29,0,0,0,2.36-1.86,10.82,10.82,0,0,0,1.7-1.81,2.92,2.92,0,0,0,.64-1.64,3.75,3.75,0,0,0-.13-.85,8.72,8.72,0,0,0-.38-1.07c-.17-.37-.36-.76-.57-1.16a12.65,12.65,0,0,0-.7-1.13l1.95-2q.62,1,1.08,1.71a8.22,8.22,0,0,0,.91,1.18,2.86,2.86,0,0,0,.89.68,2.19,2.19,0,0,0,1,.22h1.08V251H982A3,3,0,0,1,980,250.33Z"/><path class="cls-4" d="M982.89,251a.56.56,0,0,1-.49-.35,2.07,2.07,0,0,1-.21-1.05,2.22,2.22,0,0,1,.21-1,.58.58,0,0,1,.49-.38h2.86a13.11,13.11,0,0,0,1.42-.07,7.8,7.8,0,0,0,1.22-.23,3.14,3.14,0,0,0,.88-.41,1,1,0,0,0,.39-.57,2.57,2.57,0,0,0,0-.93,4.51,4.51,0,0,1-1.15.4,5.64,5.64,0,0,1-1.16.12,2.75,2.75,0,0,1-2.91-2.95,5.72,5.72,0,0,1,.26-1.73,5.12,5.12,0,0,1,.74-1.52,4,4,0,0,1,1.14-1.06,2.68,2.68,0,0,1,1.48-.41,2.32,2.32,0,0,1,1.8.76,5.35,5.35,0,0,1,1.11,1.86,10.08,10.08,0,0,1,.56,2.35,20.76,20.76,0,0,1,.14,2.2,4.6,4.6,0,0,1-1.5,3.84,6.76,6.76,0,0,1-4.27,1.18ZM986,236.77l-2-1.64,1.52-1.84,2,1.64Zm1.67,7.32a2.84,2.84,0,0,0,1.75-.53,6.13,6.13,0,0,0-.63-1.59,1.19,1.19,0,0,0-1-.65,1.28,1.28,0,0,0-1,.51,1.69,1.69,0,0,0-.41,1.06,1.13,1.13,0,0,0,.37.86A1.36,1.36,0,0,0,987.68,244.09Zm2-7.32-2-1.64,1.57-1.84,1.93,1.64Z"/><path class="cls-4" d="M544.9,129.6c-1.36,0-2.62-.1-3.77-.18s-2-.11-2.42-.11a4.33,4.33,0,0,0-1.66.23c-.33.16-.5.33-.5.53a.46.46,0,0,0,.24.43,3.75,3.75,0,0,0,1.05.33l4,.75a7.15,7.15,0,0,1,2.89,1.11,2.8,2.8,0,0,1,1,2.39,6.44,6.44,0,0,1-1.54,4.21,13,13,0,0,1-4,3.15,23.17,23.17,0,0,1-5.48,2,26.32,26.32,0,0,1-6,.7,17.27,17.27,0,0,1-5.63-.87,11.93,11.93,0,0,1-4.31-2.54,11.28,11.28,0,0,1-2.78-4.15,15.37,15.37,0,0,1-1-5.74,16.09,16.09,0,0,1,.88-5.49,31.7,31.7,0,0,1,2.56-5.31l4.15,1.69a25.61,25.61,0,0,0-1.93,4.56,12.49,12.49,0,0,0-.58,3.5,7.13,7.13,0,0,0,2.36,5.74c1.58,1.35,3.86,2,6.86,2a26.54,26.54,0,0,0,3.76-.26,28.32,28.32,0,0,0,3.21-.65,19.56,19.56,0,0,0,2.48-.81c.7-.3,1.24-.54,1.63-.73a4.31,4.31,0,0,0-1.86-.59l-3-.64a6.61,6.61,0,0,1-3.06-1.34,4,4,0,0,1-1.2-3.27,6.36,6.36,0,0,1,2.6-5.42q2.6-1.93,8.08-1.93h3.79v6.71Z"/><path class="cls-4" d="M568.82,126a8.29,8.29,0,0,1-2.68,2.63,8,8,0,0,1-4.09.93,9.5,9.5,0,0,1-4-.73,6.12,6.12,0,0,1-2.66-2.77,7.14,7.14,0,0,1-2.77,2.68,7.25,7.25,0,0,1-3.36.82h-3.5q-.63,0-1.05-.9a6,6,0,0,1-.41-2.43,6.25,6.25,0,0,1,.41-2.45q.42-.93,1.05-.93H549a6.57,6.57,0,0,0,3.06-.67,2.43,2.43,0,0,0,1.32-2.36v-3.39l4.84-1.22a36.12,36.12,0,0,0,.15,3.61,7,7,0,0,0,.58,2.37,2.63,2.63,0,0,0,1.22,1.28,4.89,4.89,0,0,0,2.08.38,8.62,8.62,0,0,0,2.3-.26,2.57,2.57,0,0,0,2-2.16,9.86,9.86,0,0,0,.18-2v-2l4.78-1.22a17,17,0,0,0,.73,5.8,3,3,0,0,0,3.13,1.84c2.29,0,3.44-.49,3.44-1.46a3.52,3.52,0,0,0-.26-1.05,13,13,0,0,0-.73-1.55c-.32-.56-.68-1.15-1.08-1.78s-.85-1.22-1.32-1.8l4.32-4.61A18.67,18.67,0,0,1,583,116a14.27,14.27,0,0,1,1,5,9.56,9.56,0,0,1-.64,3.53,7.59,7.59,0,0,1-1.81,2.72,8.32,8.32,0,0,1-2.74,1.72,9.56,9.56,0,0,1-3.5.61C572.2,129.6,570,128.41,568.82,126Z"/><path class="cls-4" d="M601.44,123.88a12,12,0,0,1-1.17,5.17,20.34,20.34,0,0,1-3.18,4.75,36,36,0,0,1-4.76,4.44c-1.82,1.43-3.81,2.84-6,4.2l-4.49-4.26q3.21-1.94,5.89-3.85a45.06,45.06,0,0,0,4.55-3.68,20.56,20.56,0,0,0,2.92-3.27,4,4,0,0,0,.76-4.17,17.66,17.66,0,0,0-.79-2A22.1,22.1,0,0,0,594,119c-.47-.76-1-1.51-1.46-2.25l4.37-4.37a27.38,27.38,0,0,1,3.48,6.39A15.54,15.54,0,0,1,601.44,123.88Z"/><path class="cls-4" d="M617.66,129.6a8.21,8.21,0,0,1-4.38-1,7,7,0,0,1-2.51-2.68,11.43,11.43,0,0,1-1.16-3.8,36.46,36.46,0,0,1-.35-4.35c-.08-1.78-.14-3.79-.18-6s-.09-4.5-.15-6.83-.13-4.67-.23-7-.22-4.52-.38-6.54l5.43-2.63q0,3.27,0,6.74c0,2.32.06,4.62.11,6.92s.12,4.57.18,6.83.11,4.39.14,6.41c0,.94,0,1.84.06,2.72a8.5,8.5,0,0,0,.41,2.33,3.28,3.28,0,0,0,1.14,1.61,3.93,3.93,0,0,0,2.36.58h2.34v6.71Z"/><path class="cls-4" d="M630.32,102.88a5.67,5.67,0,0,1,3.94,1.43,10.37,10.37,0,0,1,2.57,3.61,19.71,19.71,0,0,1,1.37,4.88,34.72,34.72,0,0,1,.41,5.19c0,4.08-1,7-2.89,8.87s-5.05,2.74-9.37,2.74h-5.83q-.64,0-1-.9a6,6,0,0,1-.41-2.43,6.25,6.25,0,0,1,.41-2.45q.4-.93,1-.93h6a20.06,20.06,0,0,0,4.29-.47,4.67,4.67,0,0,0,2.89-1.51,1.51,1.51,0,0,0,.2-.76c0-.35,0-.84,0-1.46a12.53,12.53,0,0,1-2.57.61,17.61,17.61,0,0,1-2.1.15q-6.54,0-6.53-6.89a11,11,0,0,1,.58-3.5,11.42,11.42,0,0,1,1.57-3.12,8.31,8.31,0,0,1,2.4-2.22A5.88,5.88,0,0,1,630.32,102.88ZM630,99.2l-4.44-3.73,3.56-4.21L633.59,95Zm-.29,9.45a2.51,2.51,0,0,0-2,1,3.58,3.58,0,0,0-.81,2.22,1.9,1.9,0,0,0,.64,1.43,3,3,0,0,0,2.1.61,10.44,10.44,0,0,0,2.16-.2,7.73,7.73,0,0,0,1.63-.5,7.49,7.49,0,0,0-1.34-3.29A2.87,2.87,0,0,0,629.74,108.65Z"/><path class="cls-4" d="M661,107.54A43.83,43.83,0,0,1,666.7,112a19,19,0,0,1,3.21,3.79,10.68,10.68,0,0,1,1.4,3.33,14.75,14.75,0,0,1,.32,2.94,8.91,8.91,0,0,1-.52,3,7,7,0,0,1-1.61,2.54,8.18,8.18,0,0,1-2.71,1.75,10.27,10.27,0,0,1-3.85.67,8.34,8.34,0,0,1-3.21-.56,6.22,6.22,0,0,1-2.22-1.48,6.36,6.36,0,0,1-1.31-2.13,7.18,7.18,0,0,1-.44-2.54,10.66,10.66,0,0,1,.17-1.9,12.82,12.82,0,0,1,.56-2,25.23,25.23,0,0,1,1-2.34c.41-.85.92-1.84,1.55-3l-1.29-.76Zm1.75,8.58a30.42,30.42,0,0,0-1.78,3,6,6,0,0,0-.79,2.62,2.05,2.05,0,0,0,.79,1.64,3.7,3.7,0,0,0,2.37.64,4.62,4.62,0,0,0,2.39-.56A2.59,2.59,0,0,0,666.9,122C666.9,120.07,665.5,118.1,662.7,116.12Z"/><path class="cls-4" d="M687.79,129.6a8.15,8.15,0,0,1-4.37-1,6.94,6.94,0,0,1-2.51-2.68,11.21,11.21,0,0,1-1.17-3.8,38.67,38.67,0,0,1-.35-4.35c-.08-1.78-.14-3.79-.18-6s-.08-4.5-.14-6.83-.14-4.67-.23-7-.23-4.52-.38-6.54l5.42-2.63q0,3.27,0,6.74c0,2.32.06,4.62.12,6.92s.12,4.57.17,6.83.11,4.39.15,6.41c0,.94,0,1.84.06,2.72a8.14,8.14,0,0,0,.41,2.33,3.22,3.22,0,0,0,1.14,1.61,3.93,3.93,0,0,0,2.36.58h2.33v6.71Z"/><path class="cls-4" d="M698,121.31a2.77,2.77,0,0,0-.26-1,12.45,12.45,0,0,0-.76-1.49c-.33-.56-.7-1.15-1.11-1.78s-.84-1.22-1.31-1.8l4.38-4.61a18.9,18.9,0,0,1,3.27,5.39,14.47,14.47,0,0,1,1,5c0,2.8-.77,4.93-2.33,6.39s-3.95,2.19-7.18,2.19h-3.09q-.64,0-1-.9a6,6,0,0,1-.41-2.43,6.25,6.25,0,0,1,.41-2.45q.4-.93,1-.93h3.09a10.4,10.4,0,0,0,3.1-.38C697.61,122.26,698,121.86,698,121.31Zm-4-13.77L689.72,104l3.38-4,4.32,3.5Zm7.47,0L697.19,104l3.38-4,4.26,3.5Z"/><path class="cls-4" d="M726.13,129.6a17.47,17.47,0,0,1-2,4.41,24.88,24.88,0,0,1-3.27,4,40.76,40.76,0,0,1-4.35,3.74q-2.41,1.8-5.28,3.56l-4.49-4.2q2.68-1.59,5.1-3.18c1.62-1.08,3.08-2.13,4.41-3.16a37,37,0,0,0,3.38-2.94,13.5,13.5,0,0,0,2.1-2.57,9.58,9.58,0,0,1-2.59.58c-.92.08-1.59.12-2,.12a6.92,6.92,0,0,1-4.69-1.63,6.11,6.11,0,0,1-1.9-4.9,14.13,14.13,0,0,1,.58-4,13,13,0,0,1,1.64-3.56,8.81,8.81,0,0,1,2.51-2.54,5.61,5.61,0,0,1,3.15-1,6.41,6.41,0,0,1,3.26.84,8.25,8.25,0,0,1,2.51,2.28,12.65,12.65,0,0,1,1.73,3.36,16.79,16.79,0,0,1,.84,4.08h3.85v6.71Zm-8.29-11.14a2.26,2.26,0,0,0-1.19.32,2.91,2.91,0,0,0-.94.84,5,5,0,0,0-.61,1.11,2.9,2.9,0,0,0-.23,1.11,1.82,1.82,0,0,0,.78,1.52,3.63,3.63,0,0,0,2.19.58,16.38,16.38,0,0,0,2.13-.15,10,10,0,0,0,1.84-.37,8.07,8.07,0,0,0-1.46-3.62A3.1,3.1,0,0,0,717.84,118.46Z"/><path class="cls-4" d="M746.9,119.62a9.94,9.94,0,0,1-.85,4.2,8.72,8.72,0,0,1-2.36,3.15,10.4,10.4,0,0,1-3.65,2,15.45,15.45,0,0,1-4.69.67h-4.79c-.43,0-.77-.3-1-.9a6,6,0,0,1-.41-2.43,6.25,6.25,0,0,1,.41-2.45c.28-.62.62-.93,1-.93h5.08a10.87,10.87,0,0,0,4.46-.7,4.38,4.38,0,0,0,2.07-1.75,10.4,10.4,0,0,0-3-5.08,60.53,60.53,0,0,0-7.56-6.3,31.74,31.74,0,0,1,.56-4.2,3.09,3.09,0,0,1,1-1.87c1.28-.85,2.71-1.74,4.29-2.65s3.19-1.82,4.84-2.72,3.29-1.75,4.9-2.56,3.1-1.56,4.47-2.22l-.88,7.06q-3.79,1.69-6.94,3.33c-2.1,1.09-4.09,2.19-5.95,3.32Q746.89,113.74,746.9,119.62Z"/><path class="cls-4" d="M777.59,138.47a14.56,14.56,0,0,1-5.16-.88,11.44,11.44,0,0,1-4.09-2.56,12.09,12.09,0,0,1-2.71-4.18,15.37,15.37,0,0,1-1-5.74,16.41,16.41,0,0,1,.87-5.46,29.51,29.51,0,0,1,2.57-5.28l4.14,1.63a26,26,0,0,0-1.92,4.58,12.82,12.82,0,0,0-.59,3.48A7.24,7.24,0,0,0,772,129.8a8.89,8.89,0,0,0,6.13,2q4.73,0,7.29-2.66t2.57-8.43c0-1,0-2.71-.09-5s-.14-4.89-.23-7.85-.19-6.11-.27-9.48-.13-6.68-.17-10l5.48-2.62.41,34.66q0,9-4.08,13.48T777.59,138.47Z"/><path class="cls-4" d="M808.57,109.41a6.53,6.53,0,0,1,3.56,1,8.44,8.44,0,0,1,2.66,2.72,13.45,13.45,0,0,1,1.63,4,19.58,19.58,0,0,1,.56,4.7,16.5,16.5,0,0,1-1.11,6.13,20.27,20.27,0,0,1-3.15,5.31,30.8,30.8,0,0,1-4.9,4.75,65.24,65.24,0,0,1-6.42,4.41l-4.5-4.2q2.8-1.63,5.29-3.27t4.43-3.21a39,39,0,0,0,3.35-3,10.85,10.85,0,0,0,2-2.6,7.24,7.24,0,0,1-2.63.79c-.93.09-1.61.14-2,.14a7,7,0,0,1-4.7-1.63,6.12,6.12,0,0,1-1.89-4.9,14.18,14.18,0,0,1,.58-4,13,13,0,0,1,1.63-3.56,9.2,9.2,0,0,1,2.51-2.54A5.66,5.66,0,0,1,808.57,109.41Zm-.52,6.13a2.4,2.4,0,0,0-1.2.32,2.87,2.87,0,0,0-.93.84,5,5,0,0,0-.61,1.11,2.93,2.93,0,0,0-.24,1.11,1.83,1.83,0,0,0,.79,1.52,3.63,3.63,0,0,0,2.19.58,10.06,10.06,0,0,0,2.19-.23,8.65,8.65,0,0,0,1.72-.53,7.67,7.67,0,0,0-1.37-3.38A3.09,3.09,0,0,0,808.05,115.54Z"/><path class="cls-4" d="M829.46,128.67,824,129.89V91.38l5.48-2.63Z"/><path class="cls-4" d="M895.11,129.6a10.39,10.39,0,0,1-2.92-.38,9.21,9.21,0,0,1-2.6-1.28,19.4,19.4,0,0,1-2.8-2.45c-1-1-2.15-2.33-3.47-3.88a10.69,10.69,0,0,1-.88,2.33,7.26,7.26,0,0,1-3,3.5,17.66,17.66,0,0,1-4.87,2.07,32.33,32.33,0,0,1-5.66,1q-3,.27-5.4.27-3.21,0-6.21-.27a17.56,17.56,0,0,1-5.31-1.22,8.51,8.51,0,0,1-3.68-2.83,8.34,8.34,0,0,1-1.37-5,12.56,12.56,0,0,1,.58-3.41,18.65,18.65,0,0,1,1.75-4.06l4.14,1.46a20.45,20.45,0,0,0-1,2.8,8.27,8.27,0,0,0-.29,2,2.35,2.35,0,0,0,1,1.93,6.87,6.87,0,0,0,2.65,1.17,23.89,23.89,0,0,0,3.91.55c1.48.1,3.07.15,4.79.15,1.43,0,2.95-.06,4.55-.18a35.44,35.44,0,0,0,4.55-.61,17.82,17.82,0,0,0,3.79-1.17,4.88,4.88,0,0,0,2.28-1.78,8.23,8.23,0,0,0-.88-2.33,13.66,13.66,0,0,0-1.81-2.48,38.42,38.42,0,0,0-2.86-2.86l-4-3.59a28.11,28.11,0,0,1,.58-4.2,3.21,3.21,0,0,1,1-1.87q4-2.68,10-5.89T895,90.51l-.88,7.06Q888.7,99.9,884,102.32t-7.7,4.23q3.5,3.15,7,6.83t6.83,7a9.46,9.46,0,0,0,2.62,2,6.15,6.15,0,0,0,2.57.55h2.63v6.71ZM888.8,91c-2.56,1.25-5.3,2.67-8.19,4.26s-6,3.43-9.19,5.49l.52-4.15q4.72-3.15,9.13-5.63t8.26-4.4Z"/><path class="cls-4" d="M914.24,129.6a9.29,9.29,0,0,1-4-.76,6.45,6.45,0,0,1-2.75-2.51,7.44,7.44,0,0,1-2.91,2.48,9.87,9.87,0,0,1-4.2.79h-2.51q-.64,0-1-.9a5.88,5.88,0,0,1-.41-2.43,6.07,6.07,0,0,1,.41-2.45q.4-.93,1-.93h2.39a16.16,16.16,0,0,0,2.42-.15,3.48,3.48,0,0,0,1.57-.58,2.58,2.58,0,0,0,.91-1.22,7.07,7.07,0,0,0,.35-2v-2.45l4.84-1.22a36.12,36.12,0,0,0,.15,3.61,6.75,6.75,0,0,0,.61,2.37,2.69,2.69,0,0,0,1.34,1.28,6.24,6.24,0,0,0,2.4.38h2.74v6.71Zm-6.59-17.5-4.43-3.74,3.56-4.2,4.43,3.73Z"/><path class="cls-4" d="M915.88,141.33l-4.26-3.62,3.38-4,4.32,3.56Zm9.1-20a3,3,0,0,0-.26-1,14.14,14.14,0,0,0-.76-1.49c-.33-.56-.7-1.15-1.11-1.78s-.85-1.22-1.31-1.8l4.37-4.61a18.67,18.67,0,0,1,3.27,5.39,14.27,14.27,0,0,1,1.05,5q0,4.2-2.33,6.39t-7.18,2.19h-3.09q-.64,0-1-.9a6,6,0,0,1-.41-2.43,6.25,6.25,0,0,1,.41-2.45q.4-.93,1-.93h3.09a10.33,10.33,0,0,0,3.09-.38Q925,122.14,925,121.31Zm-1.63,20-4.26-3.62,3.38-4,4.26,3.56Z"/><path class="cls-4" d="M961.27,129.6a9.6,9.6,0,0,1-2.18-.23,6.09,6.09,0,0,1-1.73-.7,5.65,5.65,0,0,1-1.4-1.26,17.51,17.51,0,0,1-1.34-2,8.16,8.16,0,0,1-4,3.79,16.63,16.63,0,0,1-5.93.93,12.9,12.9,0,0,1-4.66-.76,11,11,0,0,1-4-2.8l2.92-5.07a8.86,8.86,0,0,0,2.74,1.46,11.6,11.6,0,0,0,3.5.46,13.92,13.92,0,0,0,4.84-.7c1.25-.46,1.87-1.12,1.87-2a8.3,8.3,0,0,0-.5-2.1c-.33-1-.74-2.14-1.22-3.39s-1-2.54-1.61-3.9-1.13-2.63-1.63-3.8L951.3,103l5.42,14.41c.35,1,.67,1.86,1,2.54a8.59,8.59,0,0,0,.93,1.7,3,3,0,0,0,1.14,1,4,4,0,0,0,1.63.29h2.33v6.71Z"/><path class="cls-4" d="M970.49,109.76l2.57-5.25q4.38,3,7.62,5.37a40.52,40.52,0,0,1,5.33,4.61,17.39,17.39,0,0,1,3.16,4.46,11.36,11.36,0,0,1,1,4.87,10,10,0,0,1-.32,2.51,6.58,6.58,0,0,1-1,2.28,5.94,5.94,0,0,1-1.72,1.63,4.44,4.44,0,0,1-2.42.64,7.3,7.3,0,0,1-1.87-.29,24.5,24.5,0,0,1-2.36-.76c-.84-.31-1.68-.66-2.54-1.05s-1.63-.76-2.33-1.11a9.58,9.58,0,0,1-3.88,1.55,24.76,24.76,0,0,1-4.17.38h-3.86q-.63,0-1.05-.9a6.06,6.06,0,0,1-.4-2.43,6.27,6.27,0,0,1,.4-2.45q.42-.93,1.05-.93h3.91c.55,0,1.11,0,1.7-.06a5.33,5.33,0,0,1-1.9-2.07,5.11,5.11,0,0,1-.44-2,8.9,8.9,0,0,1,1.29-4.38,9.4,9.4,0,0,1,3.67-3.62Zm5.14,4.38a3,3,0,0,0-1.46.41,5.69,5.69,0,0,0-1.37,1,6.26,6.26,0,0,0-1,1.31,2.59,2.59,0,0,0-.41,1.34,1.78,1.78,0,0,0,.41,1.08,4.16,4.16,0,0,0,1.05,1,11,11,0,0,0,1.4.82,7.2,7.2,0,0,0,1.4.55,2.61,2.61,0,0,0,1.51-1.22,3.79,3.79,0,0,0,.65-2.1,6.14,6.14,0,0,0-.67-3C976.67,114.53,976.17,114.14,975.63,114.14Zm5.66,3.21a5.52,5.52,0,0,1,.06.81V119a8.78,8.78,0,0,1-.59,2.45,5.3,5.3,0,0,1-1.28,1.93,8.78,8.78,0,0,0,1.23.61l1.51.64c.51.22,1,.39,1.4.53a3.75,3.75,0,0,0,.94.2.9.9,0,0,0,.78-.55,2.19,2.19,0,0,0,.32-1.14,6.12,6.12,0,0,0-.9-2.86A11.25,11.25,0,0,0,981.29,117.35Z"/><rect class="cls-5" y="85.87" width="1080" height="1"/><rect class="cls-6" y="129.1" width="1080" height="1"/><rect class="cls-7" y="215.49" width="1080" height="1"/><rect class="cls-8" y="993.13" width="1080" height="1"/><rect class="cls-9" y="949.9" width="1080" height="1"/><rect class="cls-10" x="993.13" width="1" height="1080"/><rect class="cls-11" x="85.87" width="1" height="1080"/><g class="cls-12"><image width="1080" height="1620" transform="translate(-50.01 664.93) scale(1.09)" xlink:href="../../../../../../Dropbox/Shizaru/ZEEEN/Guideline/Social/Instagram/Photos/_DSC6527.jpg"/></g><path class="cls-13" d="M88.69,863.63h904.9V463.39c-110.67-125-272.35-203.83-452.45-203.83S199.36,338.37,88.69,463.39Z"/></g></svg>