<svg xmlns="http://www.w3.org/2000/svg" xmlns:xlink="http://www.w3.org/1999/xlink" viewBox="0 0 1920 1080"><defs><style>.cls-1{fill:#061f6b;}.cls-2{fill:#4672e2;}.cls-3{fill:url(#linear-gradient);}.cls-4{fill:url(#linear-gradient-2);}.cls-5{fill:url(#linear-gradient-3);}.cls-6{fill:#f5cebc;}.cls-7{fill:url(#linear-gradient-4);}.cls-8{fill:url(#linear-gradient-5);}.cls-9{fill:url(#linear-gradient-6);}.cls-10{fill:url(#linear-gradient-7);}.cls-11{fill:#fff;}</style><linearGradient id="linear-gradient" x1="21694.83" y1="2622.45" x2="21694.83" y2="702.45" gradientTransform="translate(2622.45 -21369.11) rotate(90)" gradientUnits="userSpaceOnUse"><stop offset="0" stop-color="#fff" stop-opacity="0"/><stop offset="0.51" stop-color="#fff"/><stop offset="1" stop-color="#fff" stop-opacity="0"/></linearGradient><linearGradient id="linear-gradient-2" x1="21591.99" y1="2622.45" x2="21591.99" y2="702.45" xlink:href="#linear-gradient"/><linearGradient id="linear-gradient-3" x1="21643.41" y1="2622.45" x2="21643.41" y2="702.45" xlink:href="#linear-gradient"/><linearGradient id="linear-gradient-4" x1="21831.35" y1="2622.45" x2="21831.35" y2="702.45" gradientTransform="translate(-702.45 21917.72) rotate(-90)" xlink:href="#linear-gradient"/><linearGradient id="linear-gradient-5" x1="20924.09" y1="2622.45" x2="20924.09" y2="702.45" gradientTransform="translate(-702.45 21917.72) rotate(-90)" xlink:href="#linear-gradient"/><linearGradient id="linear-gradient-6" x1="22251.32" y1="6234.44" x2="22251.32" y2="5154.44" gradientTransform="translate(-20417.72 -5154.44)" xlink:href="#linear-gradient"/><linearGradient id="linear-gradient-7" x1="20504.09" y1="6234.44" x2="20504.09" y2="5154.44" gradientTransform="translate(-20417.72 -5154.44)" xlink:href="#linear-gradient"/></defs><g id="Graphic"><path class="cls-1" d="M971.88,258.93H948.12c-240.48,3.41-456,110.2-604,277.92V1080H1575.87V536.85C1427.84,369.13,1212.36,262.34,971.88,258.93Z"/><polygon class="cls-2" points="1735.01 907.47 1735.01 913.83 1752.03 913.83 1731.75 945.63 1760.45 945.63 1760.45 939.27 1743.35 939.27 1763.64 907.47 1735.01 907.47"/><polygon class="cls-2" points="1770.08 945.63 1795.44 945.63 1795.44 939.27 1776.42 939.27 1776.4 929.73 1795.44 929.73 1795.44 923.37 1776.38 923.37 1776.36 913.83 1795.44 913.83 1795.44 907.47 1769.98 907.47 1770.08 945.63"/><polygon class="cls-2" points="1830.42 939.27 1811.34 939.27 1811.34 929.73 1830.42 929.73 1830.42 923.37 1811.34 923.37 1811.34 913.83 1830.42 913.83 1830.42 907.47 1804.98 907.47 1804.98 945.63 1830.42 945.63 1830.42 939.27"/><polygon class="cls-2" points="1769.99 993.34 1795.44 993.34 1795.44 986.97 1776.35 986.97 1776.35 977.43 1795.44 977.43 1795.44 971.07 1776.35 971.07 1776.35 961.53 1795.44 961.53 1795.44 955.17 1769.99 955.17 1769.99 993.34"/><polygon class="cls-2" points="1827.24 955.17 1827.24 980.94 1811.07 955.17 1804.98 955.17 1804.98 993.34 1811.34 993.34 1811.34 967.56 1827.51 993.34 1833.6 993.34 1833.6 955.17 1827.24 955.17"/><path class="cls-2" d="M100.47,325.94H83.6V301.42h16.53v3.51H87.7v6.87h11v3.38h-11v7.25h12.77Z"/><path class="cls-2" d="M108.93,325.94H105V301.42h4.51l10.92,17.27V301.42h3.93v24.52h-3.57L108.93,307.2Z"/><path class="cls-2" d="M140.83,326.36a11.39,11.39,0,0,1-8.65-3.47,14.42,14.42,0,0,1,.07-18.37,11.61,11.61,0,0,1,8.89-3.51,12,12,0,0,1,7.12,2,9.79,9.79,0,0,1,3.8,5.73l-4,.7q-1.59-4.92-6.89-4.92a7.37,7.37,0,0,0-5.89,2.46,10,10,0,0,0-2.13,6.77,9.58,9.58,0,0,0,2.21,6.55,7.48,7.48,0,0,0,5.84,2.49,7.86,7.86,0,0,0,5.28-1.72,5.49,5.49,0,0,0,2.07-4.34v-.84h-7.07v-3.25h10.82v13.27h-3.71v-3.05a8.39,8.39,0,0,1-3.29,2.58A10.83,10.83,0,0,1,140.83,326.36Z"/><path class="cls-2" d="M172.81,325.94h-15.5V301.42h4.1v21h11.4Z"/><path class="cls-2" d="M180.46,325.94h-4.11V301.42h4.11Z"/><path class="cls-2" d="M194.7,326.36a11.21,11.21,0,0,1-7.22-2.13,7.29,7.29,0,0,1-2.73-5.88l4.1-.47a5.07,5.07,0,0,0,1.61,3.83A6.21,6.21,0,0,0,194.7,323a5.28,5.28,0,0,0,3.47-1,3.49,3.49,0,0,0,1.28-2.83,2.86,2.86,0,0,0-.87-2.24,6.78,6.78,0,0,0-3.05-1.23L192.3,315q-6.83-1.39-6.82-7a6.2,6.2,0,0,1,2.38-4.92,9.16,9.16,0,0,1,6.24-2,9.84,9.84,0,0,1,6.34,1.92,7.33,7.33,0,0,1,2.72,5.23l-4.17.44q-.47-4.28-4.93-4.27a5.15,5.15,0,0,0-3.29.94,3.07,3.07,0,0,0-1.19,2.53,3.13,3.13,0,0,0,.84,2.32,5,5,0,0,0,2.69,1.18l3.76.74a9.63,9.63,0,0,1,5.11,2.32,6,6,0,0,1,1.67,4.43,7,7,0,0,1-2.49,5.44A9.49,9.49,0,0,1,194.7,326.36Z"/><path class="cls-2" d="M212.18,325.94h-4.1V301.42h4.1v10.19h11.34V301.42h4.1v24.52h-4.1V315.18H212.18Z"/><path class="cls-2" d="M245.11,325.94H241V301.42h4.11v10.19h11.33V301.42h4.1v24.52h-4.1V315.18H245.11Z"/><path class="cls-2" d="M277.69,308.16a3.46,3.46,0,0,0-1-2.63,3.89,3.89,0,0,0-2.75-1,4.17,4.17,0,0,0-3.59,1.6,6.94,6.94,0,0,0-1,4.62l-4-.53a8.45,8.45,0,0,1,2.17-6.75A8.68,8.68,0,0,1,274,301a8.24,8.24,0,0,1,5.75,2,6.5,6.5,0,0,1,2.13,5.06,8.88,8.88,0,0,1-1.27,4.49,20.17,20.17,0,0,1-4.08,4.72l-5.84,5.22h11.93v3.47H265.21V322.5l8.72-7.8a13.92,13.92,0,0,0,2.89-3.32A6.41,6.41,0,0,0,277.69,308.16Z"/><path class="cls-2" d="M294.63,318.09h-9.18V314.7h9.18Z"/><path class="cls-2" d="M303.83,325.94h-4.1V301.42h4.1v10.19h11.33V301.42h4.1v24.52h-4.1V315.18H303.83Z"/><path class="cls-2" d="M341.93,325.94H325.06V301.42h16.53v3.51H329.16v6.87h11v3.38h-11v7.25h12.77Z"/><path class="cls-2" d="M360.55,320.52H350.19l-2,5.42h-4.12l9.23-24.52h4.44l9.18,24.52h-4.41Zm-9.1-3.41h7.88l-3.89-10.75Z"/><path class="cls-2" d="M380.33,325.94h-10V301.42h10a12.09,12.09,0,0,1,8.85,3.23,11.53,11.53,0,0,1,3.28,8.69,12.68,12.68,0,0,1-3.31,9.13A11.64,11.64,0,0,1,380.33,325.94Zm8-12.6a8.47,8.47,0,0,0-2.17-6.11,7.69,7.69,0,0,0-5.81-2.27h-5.88V322.4h5.88a7.36,7.36,0,0,0,5.81-2.48A9.62,9.62,0,0,0,388.31,313.34Z"/><path class="cls-2" d="M401.15,325.94h-4.1V301.42h4.1Z"/><path class="cls-2" d="M410.86,325.94h-3.92V301.42h4.52l10.92,17.27V301.42h3.93v24.52h-3.57L410.86,307.2Z"/><path class="cls-2" d="M442.76,326.36a11.39,11.39,0,0,1-8.65-3.47,14.42,14.42,0,0,1,.07-18.37,11.59,11.59,0,0,1,8.88-3.51,12,12,0,0,1,7.12,2,9.76,9.76,0,0,1,3.81,5.73l-4,.7c-1.06-3.28-3.35-4.92-6.89-4.92a7.35,7.35,0,0,0-5.88,2.46,10,10,0,0,0-2.13,6.77,9.58,9.58,0,0,0,2.2,6.55,7.5,7.5,0,0,0,5.85,2.49,7.89,7.89,0,0,0,5.28-1.72,5.49,5.49,0,0,0,2.07-4.34v-.84h-7.08v-3.25h10.82v13.27h-3.71v-3.05a8.36,8.36,0,0,1-3.28,2.58A10.83,10.83,0,0,1,442.76,326.36Z"/><path class="cls-2" d="M94.25,368.38a11.4,11.4,0,0,1-8.65-3.48,14.42,14.42,0,0,1,.07-18.37A11.59,11.59,0,0,1,94.55,343a12,12,0,0,1,7.12,2,9.76,9.76,0,0,1,3.81,5.73l-4,.71c-1.06-3.29-3.35-4.93-6.89-4.93A7.35,7.35,0,0,0,88.67,349a10,10,0,0,0-2.13,6.77,9.56,9.56,0,0,0,2.2,6.55,7.5,7.5,0,0,0,5.85,2.5,7.9,7.9,0,0,0,5.28-1.73,5.48,5.48,0,0,0,2.07-4.34v-.84H94.86v-3.25h10.82V368H102V364.9a8.36,8.36,0,0,1-3.28,2.58A10.68,10.68,0,0,1,94.25,368.38Z"/><path class="cls-2" d="M133.07,355.69a13,13,0,0,1-3.23,9.21,12.34,12.34,0,0,1-17.18,0,14.79,14.79,0,0,1,0-18.41,12.33,12.33,0,0,1,17.15,0A12.9,12.9,0,0,1,133.07,355.69ZM115.69,349a12.07,12.07,0,0,0,0,13.37,7.57,7.57,0,0,0,11.17,0,12,12,0,0,0,0-13.37,7.59,7.59,0,0,0-11.17,0Z"/><path class="cls-2" d="M154.51,368H137.63V343.43h16.53v3.51H141.74v6.87h11v3.38h-11v7.25h12.77Z"/><path class="cls-2" d="M167.5,368.38a11.21,11.21,0,0,1-7.22-2.14,7.29,7.29,0,0,1-2.73-5.88l4.1-.46a5.14,5.14,0,0,0,1.61,3.83A6.25,6.25,0,0,0,167.5,365,5.31,5.31,0,0,0,171,364a3.47,3.47,0,0,0,1.27-2.83,2.87,2.87,0,0,0-.87-2.24,6.73,6.73,0,0,0-3-1.23L165.1,357q-6.81-1.39-6.82-7a6.23,6.23,0,0,1,2.38-4.92,9.16,9.16,0,0,1,6.24-2,9.82,9.82,0,0,1,6.34,1.92,7.29,7.29,0,0,1,2.72,5.23l-4.17.44q-.47-4.28-4.93-4.27a5.17,5.17,0,0,0-3.29.94,3.06,3.06,0,0,0-1.18,2.53,3.15,3.15,0,0,0,.83,2.32,5,5,0,0,0,2.69,1.18l3.76.74a9.63,9.63,0,0,1,5.11,2.32,6,6,0,0,1,1.68,4.43,7,7,0,0,1-2.5,5.44A9.48,9.48,0,0,1,167.5,368.38Z"/><path class="cls-2" d="M192.58,368h-4.11V343.43h4.11v10.19h11.33V343.43H208V368h-4.1V357.19H192.58Z"/><path class="cls-2" d="M230.68,368H213.81V343.43h16.53v3.51H217.91v6.87h11v3.38h-11v7.25h12.77Z"/><path class="cls-2" d="M253.54,361.71l.35,6.24h-4.1l-.36-6.24a3,3,0,0,0-1.12-2.34,5.45,5.45,0,0,0-3.17-.74h-5.81V368h-4.1V343.43h10.19a9.18,9.18,0,0,1,6.12,1.94,6,6,0,0,1,2.35,4.9,7,7,0,0,1-1,3.75,7.25,7.25,0,0,1-2.9,2.66Q253.34,357.79,253.54,361.71Zm-3.82-11a3.39,3.39,0,0,0-1.23-2.75,5.15,5.15,0,0,0-3.38-1h-5.78v8.35h5.78a4.56,4.56,0,0,0,3.35-1.27A4.46,4.46,0,0,0,249.72,350.68Z"/><path class="cls-2" d="M275.83,368H259V343.43h16.53v3.51H263.06v6.87h11v3.38h-11v7.25h12.77Z"/><path class="cls-2" d="M1506.33,325.94h-16.74V301.42H1506v2.24h-13.83v8.69h12.43v2.17h-12.43v9.18h14.19Z"/><path class="cls-2" d="M1508.67,325.94l6.72-8.83-6.45-8.58h2.74l5.18,6.91,5.24-6.91h2.71l-6.52,8.55,6.72,8.86h-2.8l-5.39-7.22-5.43,7.22Z"/><path class="cls-2" d="M1526.16,310.53v-2h3.21v-5.74h2.39v5.74h4.72v2h-4.72v10.53a3.37,3.37,0,0,0,.54,2.19,2.39,2.39,0,0,0,1.87.62h2.77v2.07h-3.06a4.53,4.53,0,0,1-3.34-1.18,4.59,4.59,0,0,1-1.17-3.37V310.53Z"/><path class="cls-2" d="M1542.74,325.94h-2.38V308.53h2.38v3.41a5.51,5.51,0,0,1,5.18-3.41h1.3v2.31h-1.3a4.36,4.36,0,0,0-3.75,2.13,9.87,9.87,0,0,0-1.43,5.58Z"/><path class="cls-2" d="M1566.36,323.94h.91v2h-1.44a3.34,3.34,0,0,1-2.19-.72,2.35,2.35,0,0,1-.88-1.92v-.13a6.15,6.15,0,0,1-5.68,3.19,6.51,6.51,0,0,1-4.38-1.41,4.61,4.61,0,0,1-1.64-3.66,4.8,4.8,0,0,1,1.37-3.5,7,7,0,0,1,3.88-1.84l5.28-.9a1.23,1.23,0,0,0,1.13-1.34,3.28,3.28,0,0,0-1.14-2.6,4.6,4.6,0,0,0-3.13-1q-3.85,0-4.69,3.57l-2.24-.31a5.91,5.91,0,0,1,2.3-3.8,7.49,7.49,0,0,1,4.73-1.45,6.73,6.73,0,0,1,4.77,1.62,5.63,5.63,0,0,1,1.74,4.33v8.53a1.45,1.45,0,0,0,.3,1A1.39,1.39,0,0,0,1566.36,323.94Zm-12.92-2.77a2.93,2.93,0,0,0,1,2.34,4.08,4.08,0,0,0,2.75.85,5.11,5.11,0,0,0,4-1.76,6.77,6.77,0,0,0,1.58-4.61v-1.11l-6.23,1.07a3.78,3.78,0,0,0-2.28,1.09A3,3,0,0,0,1553.44,321.17Z"/><path class="cls-2" d="M1596.21,325.94h-16.74V301.42h16.38v2.24H1582v8.69h12.43v2.17H1582v9.18h14.19Z"/><path class="cls-2" d="M1615.08,314.67v11.27h-2.39V315.11a5.14,5.14,0,0,0-1.18-3.62,4.37,4.37,0,0,0-3.37-1.28,4.72,4.72,0,0,0-3.86,1.59,7.12,7.12,0,0,0-1.32,4.65v9.49h-2.37V308.53H1603v2.31a6.2,6.2,0,0,1,5.58-2.72,6.05,6.05,0,0,1,6.54,6.55Z"/><path class="cls-2" d="M1626.88,324.93a6.94,6.94,0,0,1-5.46-2.28,10.25,10.25,0,0,1,0-12.22,6.92,6.92,0,0,1,5.44-2.31,6.59,6.59,0,0,1,5.52,2.65v-2.24h2.38v16.7a7.62,7.62,0,0,1-2,5.54,7.18,7.18,0,0,1-5.44,2.05,8.38,8.38,0,0,1-5.31-1.53,5.93,5.93,0,0,1-2.25-4.28l2.38-.2a4.68,4.68,0,0,0,1.66,3,5.71,5.71,0,0,0,3.48.93,4.8,4.8,0,0,0,3.8-1.45,6.34,6.34,0,0,0,1.28-4.29v-3A6.35,6.35,0,0,1,1626.88,324.93Zm-5-8.41a7.08,7.08,0,0,0,1.4,4.68,4.88,4.88,0,0,0,4,1.66,4.73,4.73,0,0,0,3.8-1.75,7.88,7.88,0,0,0,0-9.14,4.63,4.63,0,0,0-3.78-1.8,4.87,4.87,0,0,0-4,1.65A7.14,7.14,0,0,0,1621.87,316.52Z"/><path class="cls-2" d="M1642.69,325.94h-2.38V301.42h2.38Z"/><path class="cls-2" d="M1650.66,305.42h-2.38v-4h2.38Zm0,20.52h-2.38V308.53h2.38Z"/><path class="cls-2" d="M1662.16,326.36a8.09,8.09,0,0,1-5.21-1.57,5.54,5.54,0,0,1-2.11-4.21l2.35-.42a4.89,4.89,0,0,0,1.48,3.19,5.3,5.3,0,0,0,3.49,1,4.74,4.74,0,0,0,3.09-.86,3.1,3.1,0,0,0,1-2.54q0-2.25-3.51-2.84l-2.37-.37q-5-.84-5-4.77a4.23,4.23,0,0,1,1.73-3.49,8.3,8.3,0,0,1,9.15,0,6.22,6.22,0,0,1,2.18,4l-2.18.38a5.11,5.11,0,0,0-1.59-2.87,4.74,4.74,0,0,0-3-.87,4.86,4.86,0,0,0-2.89.76,2.53,2.53,0,0,0-.33,3.84,4.24,4.24,0,0,0,2.32.9l2.73.44c3.48.57,5.21,2.21,5.21,4.91a4.87,4.87,0,0,1-1.76,3.92A7.11,7.11,0,0,1,1662.16,326.36Z"/><path class="cls-2" d="M1687.5,314.67v11.27h-2.4V315.11a5.14,5.14,0,0,0-1.18-3.62,4.35,4.35,0,0,0-3.36-1.28,4.74,4.74,0,0,0-3.87,1.59,7.12,7.12,0,0,0-1.31,4.65v9.49H1673V301.42h2.38v9.42a6.18,6.18,0,0,1,5.57-2.72,6.06,6.06,0,0,1,6.55,6.55Z"/><path class="cls-2" d="M1698.54,310.53v-2h3.21v-5.74h2.4v5.74h4.71v2h-4.71v10.53a3.44,3.44,0,0,0,.53,2.19,2.41,2.41,0,0,0,1.88.62h2.77v2.07h-3.06a4.1,4.1,0,0,1-4.52-4.55V310.53Z"/><path class="cls-2" d="M1719.55,324.4a4.46,4.46,0,0,0,4.82-4l2.27.36a6,6,0,0,1-2.29,4.09,7.58,7.58,0,0,1-4.8,1.51,7.81,7.81,0,0,1-6.13-2.35c-1.41-1.56-2.11-3.83-2.11-6.79a9.55,9.55,0,0,1,2.2-6.62,7.63,7.63,0,0,1,6-2.48,7,7,0,0,1,5.49,2.15,8.61,8.61,0,0,1,2,6v1.47h-13.13Q1714,324.4,1719.55,324.4Zm-.12-14.33a5.2,5.2,0,0,0-3.87,1.45,6.9,6.9,0,0,0-1.72,4.26h10.53C1724.2,312,1722.55,310.07,1719.43,310.07Z"/><path class="cls-2" d="M1728.49,325.94l6.72-8.83-6.45-8.58h2.74l5.18,6.91,5.25-6.91h2.7l-6.52,8.55,6.72,8.86H1742l-5.39-7.22-5.43,7.22Z"/><path class="cls-2" d="M1746,310.53v-2h3.21v-5.74h2.39v5.74h4.72v2h-4.72v10.53a3.37,3.37,0,0,0,.54,2.19,2.4,2.4,0,0,0,1.87.62h2.77v2.07h-3.06a4.53,4.53,0,0,1-3.34-1.18,4.59,4.59,0,0,1-1.17-3.37V310.53Z"/><path class="cls-2" d="M1783.07,314.67v11.27h-2.39V315.11a5.14,5.14,0,0,0-1.18-3.62,4.37,4.37,0,0,0-3.37-1.28,4.72,4.72,0,0,0-3.86,1.59,7.12,7.12,0,0,0-1.32,4.65v9.49h-2.37V301.42H1771v9.42a6.2,6.2,0,0,1,5.58-2.72,6.05,6.05,0,0,1,6.54,6.55Z"/><path class="cls-2" d="M1795.53,324.4a4.47,4.47,0,0,0,4.83-4l2.27.36a6,6,0,0,1-2.29,4.09,7.59,7.59,0,0,1-4.81,1.51,7.78,7.78,0,0,1-6.12-2.35c-1.41-1.56-2.12-3.83-2.12-6.79a9.56,9.56,0,0,1,2.21-6.62,7.6,7.6,0,0,1,6-2.48,7,7,0,0,1,5.49,2.15,8.61,8.61,0,0,1,2,6v1.47h-13.13Q1790,324.4,1795.53,324.4Zm-.12-14.33a5.22,5.22,0,0,0-3.87,1.45,7,7,0,0,0-1.72,4.26h10.54C1800.18,312,1798.54,310.07,1795.41,310.07Z"/><path class="cls-2" d="M1809.72,325.94h-2.37V308.53h2.37v3.41a5.52,5.52,0,0,1,5.18-3.41h1.3v2.31h-1.3a4.34,4.34,0,0,0-3.74,2.13,9.79,9.79,0,0,0-1.44,5.58Z"/><path class="cls-2" d="M1826.31,324.4a4.47,4.47,0,0,0,4.82-4l2.27.36a6,6,0,0,1-2.29,4.09,7.58,7.58,0,0,1-4.8,1.51,7.79,7.79,0,0,1-6.13-2.35c-1.41-1.56-2.11-3.83-2.11-6.79a9.55,9.55,0,0,1,2.2-6.62,7.61,7.61,0,0,1,6-2.48,7,7,0,0,1,5.49,2.15,8.61,8.61,0,0,1,2,6v1.47h-13.13Q1820.73,324.4,1826.31,324.4Zm-.12-14.33a5.24,5.24,0,0,0-3.88,1.45,6.89,6.89,0,0,0-1.71,4.26h10.53C1831,312,1829.31,310.07,1826.19,310.07Z"/><path class="cls-2" d="M86.4,86.4h16.82v5.91H98v40h17.89a2.45,2.45,0,0,0,1.09-.26,4.07,4.07,0,0,0,1-.66,3.42,3.42,0,0,0,.72-.94,2.37,2.37,0,0,0,.27-1.08v-6.53h6.5v15.35H86.4v-5.88h4.92v-40H86.4Z"/><path class="cls-2" d="M153.14,139.26a23.67,23.67,0,0,1-9.81-2,25,25,0,0,1-13.24-14.45,31.06,31.06,0,0,1-1.81-10.49,30,30,0,0,1,1.83-10.53,26.16,26.16,0,0,1,5.13-8.57,24,24,0,0,1,7.86-5.74,24.24,24.24,0,0,1,28,5.74,26.07,26.07,0,0,1,5.09,8.57A30.18,30.18,0,0,1,178,112.32a29.85,29.85,0,0,1-1.83,10.51,26.3,26.3,0,0,1-5.12,8.56,23.89,23.89,0,0,1-7.87,5.76A23.56,23.56,0,0,1,153.14,139.26Zm0-6.36a16,16,0,0,0,7.37-1.68,17.42,17.42,0,0,0,5.62-4.49,20.58,20.58,0,0,0,3.59-6.55,24.38,24.38,0,0,0,1.26-7.86,24.63,24.63,0,0,0-1.38-8.19,19.44,19.44,0,0,0-3.86-6.69A17.58,17.58,0,0,0,160,93.22a16.43,16.43,0,0,0-6.84-1.49,16.1,16.1,0,0,0-7.39,1.68,17.31,17.31,0,0,0-5.64,4.5,20.42,20.42,0,0,0-3.59,6.56,24.41,24.41,0,0,0-1.26,7.85,24.11,24.11,0,0,0,1.4,8.53,18.47,18.47,0,0,0,3.71,6.22,20.26,20.26,0,0,0,5.5,4.15A15.38,15.38,0,0,0,153.14,132.9Z"/><path class="cls-2" d="M217.38,86.4H234.2v5.91h-4.41v45.92H221l-24.11-43v37.09h5.34v5.88H185.45v-5.88h4.78v-40h-4.92v-6h13.95l23.66,42.57.27-1.64V92.31h-5.81Z"/><path class="cls-2" d="M280.84,138.44V128a17.64,17.64,0,0,1-3.25,4.7,17.87,17.87,0,0,1-4.34,3.3,20.53,20.53,0,0,1-5.12,2,23.8,23.8,0,0,1-5.52.65,25.09,25.09,0,0,1-9.33-1.69,21.43,21.43,0,0,1-7.75-5.39,24.85,24.85,0,0,1-5.29-8.75,30.78,30.78,0,0,1-1.83-10.56,29.73,29.73,0,0,1,1.83-10.46,26.16,26.16,0,0,1,5.12-8.59,23.83,23.83,0,0,1,7.87-5.74,23.52,23.52,0,0,1,9.9-2.09,22.84,22.84,0,0,1,8.46,1.41,23.34,23.34,0,0,1,6.05,3.4,27.78,27.78,0,0,1,4,3.81H285v6.09h-7.35a17.23,17.23,0,0,0-6.07-6.16,15.81,15.81,0,0,0-8.46-2.19,15.59,15.59,0,0,0-7.21,1.68,17.62,17.62,0,0,0-5.63,4.51,21.32,21.32,0,0,0-3.64,6.53,23.47,23.47,0,0,0-1.3,7.8,24.17,24.17,0,0,0,1.44,8.44,18.88,18.88,0,0,0,3.66,6.33,18,18,0,0,0,5.48,4,16.32,16.32,0,0,0,7.24,1.59,17.28,17.28,0,0,0,10.76-3.19q4.22-3.2,5.89-10h-14.5v-5.88h21.91v24.86Z"/><path class="cls-2" d="M350.1,86.4h16.82v5.88H362v40.07h4.92v5.88H350.1v-5.88h5.2V113.72h-30v18.63h5.19v5.88H313.69v-5.88h4.92V92.28h-4.92V86.4h16.82v5.88h-5.19V108h30V92.28h-5.2Z"/><path class="cls-2" d="M380.09,132.35h5V94.43l-10.49,5.71V93L389,84.93h2.74v47.42h5.09v5.88H380.09Z"/><path class="cls-2" d="M457.77,86.4h16.82v5.88h-4.93v40.07h4.93v5.88H457.77v-5.88H463V113.72H433v18.63h5.2v5.88H421.35v-5.88h4.93V92.28h-4.93V86.4h16.83v5.88H433V108h30V92.28h-5.19Z"/><path class="cls-2" d="M484.37,86.4h37.12v14.67h-7V92.31H496V108.9h15.56v5.88H496v17.57h18.5V123.6h7v14.63H484.37v-5.88h4.92v-40h-4.92Z"/><path class="cls-2" d="M559,132.35h4.31l-4.1-11.76H539.27l-4,11.76h5.34v5.88H523.79v-5.88h4.51L544.44,86.4h10.08l16.11,45.95h5.19v5.88H559Zm-17.78-17.44h16l-8.07-23.18Z"/><path class="cls-2" d="M581.05,86.4h19.29a24.65,24.65,0,0,1,6.77.92,25.19,25.19,0,0,1,6,2.6,24.9,24.9,0,0,1,5,4A24.65,24.65,0,0,1,622,99.15a26.39,26.39,0,0,1,2.45,6.17,27.73,27.73,0,0,1,.85,6.86,28.13,28.13,0,0,1-.85,6.94,26.77,26.77,0,0,1-2.45,6.22,24.83,24.83,0,0,1-3.85,5.28,24.17,24.17,0,0,1-17.77,7.61H581.05v-5.88H586v-40h-4.93Zm11.63,5.91v40h8.07a14.94,14.94,0,0,0,6.75-1.57,17.66,17.66,0,0,0,5.52-4.29,20.85,20.85,0,0,0,3.73-6.4,22.51,22.51,0,0,0,1.36-7.91,22,22,0,0,0-1.36-7.8,20.57,20.57,0,0,0-3.73-6.3,17.48,17.48,0,0,0-5.52-4.23,15.32,15.32,0,0,0-6.75-1.54Z"/><path class="cls-2" d="M632.58,86.4h16.54v5.91H644.2v40h4.92v5.88H632.58v-5.88h4.92v-40h-4.92Z"/><path class="cls-2" d="M691,86.4h16.82v5.91h-4.41v45.92h-8.75l-24.1-43v37.09h5.33v5.88H659v-5.88h4.79v-40H658.9v-6h14l23.66,42.57.27-1.64V92.31H691Z"/><path class="cls-2" d="M754.43,138.44V128a17.64,17.64,0,0,1-3.25,4.7,17.87,17.87,0,0,1-4.34,3.3,20.61,20.61,0,0,1-5.11,2,24,24,0,0,1-5.53.65,25.09,25.09,0,0,1-9.33-1.69,21.31,21.31,0,0,1-7.74-5.39,24.87,24.87,0,0,1-5.3-8.75A30.78,30.78,0,0,1,712,112.25a29.73,29.73,0,0,1,1.83-10.46A26.36,26.36,0,0,1,719,93.2a23.9,23.9,0,0,1,7.86-5.74,23.52,23.52,0,0,1,9.9-2.09,22.84,22.84,0,0,1,8.46,1.41,23.17,23.17,0,0,1,6.05,3.4,27.26,27.26,0,0,1,4,3.81h3.31v6.09h-7.35a17.2,17.2,0,0,0-6.06-6.16,15.83,15.83,0,0,0-8.47-2.19,15.59,15.59,0,0,0-7.21,1.68,17.58,17.58,0,0,0-5.62,4.51,21.14,21.14,0,0,0-3.65,6.53,23.47,23.47,0,0,0-1.3,7.8,24.17,24.17,0,0,0,1.44,8.44A19.05,19.05,0,0,0,724,127a18,18,0,0,0,5.49,4,16.25,16.25,0,0,0,7.23,1.59,17.33,17.33,0,0,0,10.77-3.19q4.2-3.2,5.88-10h-14.5v-5.88h21.92v24.86Z"/><path class="cls-2" d="M126.4,222.46V212.07a17.57,17.57,0,0,1-3.25,4.7,18.19,18.19,0,0,1-4.34,3.3,21.27,21.27,0,0,1-5.11,2,23.8,23.8,0,0,1-5.52.65,25.11,25.11,0,0,1-9.34-1.7,21.49,21.49,0,0,1-7.74-5.38,25.11,25.11,0,0,1-5.3-8.75A30.88,30.88,0,0,1,84,196.27a29.77,29.77,0,0,1,1.83-10.46,26.42,26.42,0,0,1,5.13-8.58,23.56,23.56,0,0,1,17.76-7.83,23.06,23.06,0,0,1,8.46,1.4,23.76,23.76,0,0,1,6,3.4,27.82,27.82,0,0,1,4,3.81h3.32v6.09h-7.35a17.12,17.12,0,0,0-6.07-6.15,17,17,0,0,0-15.68-.52A17.59,17.59,0,0,0,95.82,182a21,21,0,0,0-3.64,6.53,23.2,23.2,0,0,0-1.3,7.79,24.45,24.45,0,0,0,1.43,8.45A19.1,19.1,0,0,0,96,211a18,18,0,0,0,5.49,4,16.31,16.31,0,0,0,7.23,1.59,17.3,17.3,0,0,0,10.77-3.2q4.2-3.19,5.88-10H110.85V197.6h21.91v24.86Z"/><path class="cls-2" d="M166.37,223.28a23.67,23.67,0,0,1-9.81-2,24.84,24.84,0,0,1-13.23-14.44,30.93,30.93,0,0,1-1.82-10.5,30,30,0,0,1,1.83-10.53,26.11,26.11,0,0,1,5.13-8.56,24.07,24.07,0,0,1,7.86-5.75,24.22,24.22,0,0,1,28,5.75,26,26,0,0,1,5.09,8.56,31.4,31.4,0,0,1,0,21,26.47,26.47,0,0,1-5.13,8.57,23.68,23.68,0,0,1-17.9,7.86Zm0-6.36a16.14,16.14,0,0,0,7.37-1.67,17.47,17.47,0,0,0,5.62-4.5A20.47,20.47,0,0,0,183,204.2a24.34,24.34,0,0,0,1.27-7.86,24.63,24.63,0,0,0-1.39-8.19,19.3,19.3,0,0,0-3.86-6.68,17.44,17.44,0,0,0-5.76-4.22,16.82,16.82,0,0,0-14.23.18,17.44,17.44,0,0,0-5.64,4.5,20.72,20.72,0,0,0-3.59,6.56,24.45,24.45,0,0,0-1.26,7.85,24.11,24.11,0,0,0,1.4,8.53,18.37,18.37,0,0,0,3.71,6.22,20.3,20.3,0,0,0,5.5,4.16A15.52,15.52,0,0,0,166.37,216.92Z"/><path class="cls-2" d="M198.54,170.42h37.13v14.67h-7v-8.75H210.17v16.58h15.55v5.88H210.17v17.58h18.49v-8.76h7v14.64H198.54v-5.88h4.92v-40h-4.92Z"/><path class="cls-2" d="M268,180a8.45,8.45,0,0,0-2.41-2.31,10.81,10.81,0,0,0-2.89-1.23,11.76,11.76,0,0,0-3.14-.43,15.49,15.49,0,0,0-4.55.6,9.68,9.68,0,0,0-3.23,1.62,6.77,6.77,0,0,0-1.93,2.4,6.51,6.51,0,0,0-.65,2.87,7.17,7.17,0,0,0,.8,3.64,6.68,6.68,0,0,0,2,2.22,10.55,10.55,0,0,0,2.72,1.32c1,.32,1.94.64,2.86,1l6.9,2.25a32.92,32.92,0,0,1,5.49,2.26,15,15,0,0,1,4,3,11.9,11.9,0,0,1,2.45,4,15,15,0,0,1,.84,5.23,13.48,13.48,0,0,1-1.32,5.95,14.4,14.4,0,0,1-3.68,4.76,17.55,17.55,0,0,1-5.62,3.16,21.59,21.59,0,0,1-7.16,1.14,22.78,22.78,0,0,1-6.84-.9,15.27,15.27,0,0,1-4.77-2.43,12.49,12.49,0,0,1-3.09-3.47,19.08,19.08,0,0,1-1.82-4h-2.6V206.7H249a12.9,12.9,0,0,0,.8,5.37,7.33,7.33,0,0,0,2.24,2.61,10.16,10.16,0,0,0,3.42,1.57,16.63,16.63,0,0,0,4.38.54,15.08,15.08,0,0,0,4.19-.55,9.49,9.49,0,0,0,3.18-1.59,7,7,0,0,0,2-2.53,7.78,7.78,0,0,0,.7-3.37,6.78,6.78,0,0,0-.87-3.54,8.69,8.69,0,0,0-2.24-2.48,13,13,0,0,0-3-1.67c-1.08-.44-2.12-.81-3.13-1.13l-7.48-2.12a22.07,22.07,0,0,1-4.5-1.91,13.53,13.53,0,0,1-3.49-2.84,12,12,0,0,1-2.24-3.92,15.72,15.72,0,0,1-.78-5.18,13.4,13.4,0,0,1,1.16-5.57,12.86,12.86,0,0,1,3.42-4.55,16.33,16.33,0,0,1,5.52-3.06,23.19,23.19,0,0,1,7.47-1.11,19.16,19.16,0,0,1,5.11.65,15.9,15.9,0,0,1,4.24,1.83,14.76,14.76,0,0,1,3.35,2.84,17.33,17.33,0,0,1,2.45,3.64h2.56v5.88h-8.38A7.63,7.63,0,0,0,268,180Z"/><path class="cls-2" d="M335.61,170.42h16.82v5.88H347.5v40.08h4.93v5.88H335.61v-5.88h5.19V197.74h-30v18.64H316v5.88H299.2v-5.88h4.92V176.3H299.2v-5.88H316v5.88h-5.2V192h30V176.3h-5.19Z"/><path class="cls-2" d="M362.21,170.42h37.13v14.67h-7v-8.75h-18.5v16.58h15.56v5.88H373.83v17.58h18.5v-8.76h7v14.64H362.21v-5.88h4.92v-40h-4.92Z"/><path class="cls-2" d="M406.17,170.42h21.58a21.55,21.55,0,0,1,6.37.91,14.48,14.48,0,0,1,5.06,2.67,12.05,12.05,0,0,1,3.34,4.39,14.61,14.61,0,0,1,1.19,6.05,11,11,0,0,1-.7,3.85,12.94,12.94,0,0,1-1.95,3.52,14.71,14.71,0,0,1-2.95,2.89,13.83,13.83,0,0,1-3.73,2,8,8,0,0,1,1.73,1.07,10.32,10.32,0,0,1,1.64,1.71,14.53,14.53,0,0,1,1.4,2.29,14.37,14.37,0,0,1,1,2.76L443,215.76h4.48l.07,6.5H437.49l-3.86-15.77a12.51,12.51,0,0,0-3.23-6.24,8.44,8.44,0,0,0-5.93-2H417.8v18.13H423v5.88H406.17v-5.88h4.93v-40h-4.93Zm11.63,5.92v16.31h9.95a11.53,11.53,0,0,0,3.57-.52,7.75,7.75,0,0,0,2.8-1.53,7.11,7.11,0,0,0,1.85-2.55,8.8,8.8,0,0,0,.67-3.54,7.8,7.8,0,0,0-2.33-6q-2.32-2.15-7.38-2.15Z"/><path class="cls-2" d="M456,170.42h37.13v14.67h-7v-8.75H467.65v16.58H483.2v5.88H467.65v17.58h18.49v-8.76h7v14.64H456v-5.88H461v-40H456Z"/><rect class="cls-2" x="83.96" y="272.26" width="51.84" height="3.67"/><path class="cls-2" d="M99,978.23,88.06,991.6H99.24v2H85.31v-1.9l11-13.5H85.89v-2H99Z"/><path class="cls-2" d="M110.09,992.06a4.45,4.45,0,0,0,4.82-4l2.28.36a6,6,0,0,1-2.29,4.09,7.6,7.6,0,0,1-4.81,1.52,7.84,7.84,0,0,1-6.13-2.35c-1.4-1.57-2.11-3.84-2.11-6.8a9.53,9.53,0,0,1,2.21-6.61,7.56,7.56,0,0,1,6-2.48,7,7,0,0,1,5.48,2.14,8.62,8.62,0,0,1,2,6v1.47H104.31Q104.52,992.06,110.09,992.06ZM110,977.74a5.17,5.17,0,0,0-3.87,1.45,7,7,0,0,0-1.72,4.26h10.53C114.74,979.64,113.1,977.74,110,977.74Z"/><path class="cls-2" d="M129,992.06a4.45,4.45,0,0,0,4.82-4l2.28.36a6,6,0,0,1-2.29,4.09A7.62,7.62,0,0,1,129,994a7.84,7.84,0,0,1-6.13-2.35c-1.4-1.57-2.11-3.84-2.11-6.8a9.53,9.53,0,0,1,2.21-6.61,7.56,7.56,0,0,1,6-2.48,7,7,0,0,1,5.48,2.14,8.62,8.62,0,0,1,2,6v1.47H123.2Q123.41,992.06,129,992.06Zm-.12-14.32a5.17,5.17,0,0,0-3.87,1.45,7,7,0,0,0-1.72,4.26H133.8Q133.54,977.73,128.86,977.74Z"/><path class="cls-2" d="M147.87,992.06a4.45,4.45,0,0,0,4.82-4l2.28.36a6,6,0,0,1-2.29,4.09,7.62,7.62,0,0,1-4.81,1.52,7.84,7.84,0,0,1-6.13-2.35c-1.4-1.57-2.11-3.84-2.11-6.8a9.53,9.53,0,0,1,2.21-6.61,7.56,7.56,0,0,1,5.95-2.48,7,7,0,0,1,5.48,2.14,8.62,8.62,0,0,1,1.95,6v1.47H142.09Q142.3,992.06,147.87,992.06Zm-.12-14.32a5.17,5.17,0,0,0-3.87,1.45,7,7,0,0,0-1.72,4.26h10.53C152.52,979.64,150.88,977.74,147.75,977.74Z"/><path class="cls-2" d="M174.18,982.33V993.6h-2.39V982.78a5.22,5.22,0,0,0-1.18-3.63,4.37,4.37,0,0,0-3.37-1.28,4.71,4.71,0,0,0-3.86,1.59,7.12,7.12,0,0,0-1.32,4.65v9.49h-2.38V976.2h2.38v2.3a6.18,6.18,0,0,1,5.57-2.71,6,6,0,0,1,6.55,6.54Z"/><path class="cls-2" d="M179.21,990.2h3.23v3.4h-3.23Z"/><path class="cls-2" d="M190.06,973.09h-2.37v-4h2.37Zm0,20.51h-2.37V976.2h2.37Z"/><path class="cls-2" d="M198,993.6h-2.38V976.2H198v3.4a5.5,5.5,0,0,1,5.18-3.4h1.3v2.3h-1.3a4.36,4.36,0,0,0-3.75,2.13,9.87,9.87,0,0,0-1.43,5.58Z"/><rect class="cls-3" y="325.23" width="1920" height="1"/><rect class="cls-4" y="222.39" width="1920" height="1"/><rect class="cls-5" y="273.81" width="1920" height="1"/><rect class="cls-6" x="493.14" y="222.47" width="103.26" height="25.82"/><rect class="cls-6" x="493.14" y="299.91" width="103.26" height="25.82"/><rect class="cls-6" x="488.52" y="261.21" width="112.54" height="25.82" transform="translate(-50.05 408.68) rotate(-39.46)"/><rect class="cls-7" y="85.87" width="1920" height="1"/><rect class="cls-8" y="993.13" width="1920" height="1"/><rect class="cls-9" x="1833.1" width="1" height="1080"/><rect class="cls-10" x="85.87" width="1" height="1080"/><rect class="cls-11" x="1833.6" width="86.37" height="21.59"/><rect class="cls-11" x="1833.6" y="64.78" width="86.37" height="21.59"/><rect class="cls-11" x="1829.74" y="32.41" width="94.13" height="21.59" transform="translate(400.26 1202.54) rotate(-39.46)"/><rect class="cls-11" width="86.37" height="21.59"/><rect class="cls-11" y="64.78" width="86.37" height="21.59"/><rect class="cls-11" x="-3.86" y="32.41" width="94.13" height="21.59" transform="translate(-17.61 37.3) rotate(-39.46)"/><rect class="cls-11" x="1833.6" y="993.63" width="86.37" height="21.59"/><rect class="cls-11" x="1833.6" y="1058.41" width="86.37" height="21.59"/><rect class="cls-11" x="1829.74" y="1026.04" width="94.13" height="21.59" transform="translate(-231.19 1428.98) rotate(-39.46)"/><rect class="cls-11" y="993.63" width="86.37" height="21.59"/><rect class="cls-11" y="1058.41" width="86.37" height="21.59"/><rect class="cls-11" x="-3.86" y="1026.04" width="94.13" height="21.59" transform="translate(-649.06 263.74) rotate(-39.46)"/></g></svg>