<svg xmlns="http://www.w3.org/2000/svg" viewBox="0 0 1080 1080"><defs><style>.cls-1{fill:#fff;}.cls-2{fill:#a9afb0;}</style></defs><g id="Background"><rect width="1080" height="1080"/></g><g id="Graphic"><path class="cls-1" d="M173.86,993.6h-1v-12h1Zm0-24h-1v-12h1Zm0-24h-1v-12h1Zm0-24h-1v-12h1Zm0-24h-1v-12h1Zm0-24h-1v-12h1Zm0-24h-1v-12h1Zm0-24h-1v-12h1Zm0-24h-1v-12h1Zm0-24h-1v-12h1Zm0-24h-1v-12h1Zm0-24h-1v-12h1Zm.06-24-1,0c.06-4,.18-8,.34-12l1,0C174.1,697.59,174,701.62,173.92,705.61Zm1-23.94-1-.07c.27-4,.6-8,1-12l1,.09C175.51,673.68,175.19,677.7,174.92,681.67Zm2.25-23.86-1-.12c.47-4,1-8,1.59-11.91l1,.15C178.18,649.87,177.64,653.87,177.17,657.81Zm3.51-23.71-1-.17c.69-3.94,1.44-7.91,2.23-11.81l1,.2C182.11,626.21,181.36,630.17,180.68,634.1Zm4.76-23.49-1-.22c.9-3.9,1.86-7.82,2.86-11.67l1,.25C187.29,602.81,186.33,606.73,185.44,610.61Zm6-23.2-1-.28c1.1-3.82,2.27-7.69,3.47-11.49l1,.3C193.7,579.74,192.54,583.6,191.44,587.41Zm7.24-22.89-.94-.32c1.31-3.78,2.68-7.59,4.09-11.34l.94.35C201.36,557,200,560.76,198.68,564.52Zm8.47-22.5-.92-.38c1.49-3.67,3.07-7.41,4.69-11.09l.91.41C210.22,534.63,208.65,538.35,207.15,542Zm9.66-22-.91-.43c1.7-3.61,3.47-7.25,5.27-10.82l.9.45C220.27,512.79,218.5,516.42,216.81,520Zm10.8-21.45-.88-.47c1.89-3.51,3.85-7.05,5.84-10.52l.87.49C231.45,491.54,229.49,495.07,227.61,498.57Zm11.92-20.84-.85-.52c2.08-3.41,4.22-6.84,6.38-10.19l.84.54C243.75,470.91,241.61,474.33,239.53,477.73Zm13-20.16-.83-.57c2.24-3.28,4.57-6.58,6.92-9.83l.81.58C257.1,451,254.78,454.3,252.54,457.57Zm14-19.45-.8-.61c2.42-3.17,4.92-6.35,7.42-9.45l.78.63C271.49,431.78,269,435,266.59,438.12Zm15.05-18.67-.77-.65c2.59-3,5.24-6.08,7.91-9.05l.74.67C286.86,413.38,284.21,416.42,281.64,419.45Zm16-17.85-.73-.68c2.75-2.91,5.57-5.81,8.37-8.62l.71.7C303.19,395.81,300.38,398.7,297.64,401.6Zm16.91-17-.69-.72c2.88-2.75,5.85-5.49,8.81-8.17l.67.74C320.38,379.15,317.43,381.89,314.55,384.63Zm17.78-16.06-.65-.76c3-2.59,6.13-5.18,9.21-7.69l.64.78C338.44,363.4,335.35,366,332.33,368.57Zm18.59-15.1-.61-.79c3.15-2.43,6.39-4.85,9.6-7.19l.59.81C357.29,348.64,354.07,351.05,350.92,353.47Zm19.35-14.09-.57-.82c3.28-2.26,6.63-4.5,10-6.67l.54.84C376.88,334.89,373.54,337.13,370.27,339.38Zm20.06-13.05-.53-.85c3.4-2.08,6.86-4.15,10.3-6.13l.5.86C397.17,322.2,393.71,324.26,390.33,326.33Zm20.7-12-.48-.88c3.51-1.9,7.08-3.78,10.61-5.58l.45.89C418.09,310.6,414.53,312.47,411,314.37Zm21.3-10.85-.43-.9c3.58-1.71,7.24-3.39,10.88-5l.41.92C439.55,300.14,435.9,301.82,432.33,303.52Zm21.83-9.7-.38-.92c3.69-1.53,7.45-3,11.16-4.44l.36.94C461.59,290.81,457.85,292.3,454.16,293.82Zm22.39-8.55-.33-.94c3.77-1.33,7.6-2.62,11.38-3.84l.31.95C484.14,282.66,480.32,283.94,476.55,285.27Zm22.81-7.35-.28-1c3.83-1.12,7.73-2.2,11.57-3.22l.26,1C507.07,275.72,503.19,276.8,499.36,277.92Zm23.17-6.12-.23-1c3.87-.92,7.82-1.79,11.73-2.61l.2,1C530.33,270,526.39,270.89,522.53,271.8ZM546,266.92l-.18-1c3.94-.71,7.92-1.38,11.85-2l.15,1C553.9,265.55,549.92,266.21,546,266.92Zm23.69-3.63-.13-1c4-.5,8-.95,11.93-1.34l.1,1C577.64,262.34,573.63,262.79,569.69,263.29Zm23.84-2.37-.07-1c4-.29,8-.53,12-.71l0,1C601.55,260.39,597.52,260.63,593.53,260.92Zm23.94-1.12,0-1c3.13-.06,6.34-.09,9.51-.09h2.5v1H627C623.79,259.71,620.6,259.74,617.47,259.8Zm372-.09h-12v-1h12Zm-24,0h-12v-1h12Zm-24,0h-12v-1h12Zm-24,0h-12v-1h12Zm-24,0h-12v-1h12Zm-24,0h-12v-1h12Zm-24,0h-12v-1h12Zm-24,0h-12v-1h12Zm-24,0h-12v-1h12Zm-24,0h-12v-1h12Zm-24,0h-12v-1h12Zm-24,0h-12v-1h12Zm-24,0h-12v-1h12Zm-24,0h-12v-1h12Zm-24,0h-12v-1h12Z"/><path class="cls-2" d="M627,345.6h0a367.2,367.2,0,0,1,367.2,367.2V1080a0,0,0,0,1,0,0H259.77a0,0,0,0,1,0,0V712.8A367.2,367.2,0,0,1,627,345.6Z"/><path class="cls-1" d="M994.09,994.1h-12.5v-1h11.5v-4.29h1Zm-24.5,0h-12v-1h12Zm-24,0h-12v-1h12Zm-24,0h-12v-1h12Zm-24,0h-12v-1h12Zm-24,0h-12v-1h12Zm-24,0h-12v-1h12Zm-24,0h-12v-1h12Zm-24,0h-12v-1h12Zm-24,0h-12v-1h12Zm-24,0h-12v-1h12Zm-24,0h-12v-1h12Zm-24,0h-12v-1h12Zm-24,0h-12v-1h12Zm-24,0h-12v-1h12Zm-24,0h-12v-1h12Zm-24,0h-12v-1h12Zm-24,0h-12v-1h12Zm-24,0h-12v-1h12Zm-24,0h-12v-1h12Zm-24,0h-12v-1h12Zm-24,0h-12v-1h12Zm-24,0h-12v-1h12Zm-24,0h-12v-1h12Zm-24,0h-12v-1h12Zm-24,0h-12v-1h12Zm-24,0h-12v-1h12Zm-24,0h-12v-1h12Zm-24,0h-12v-1h12Zm-24,0h-12v-1h12Zm-24,0h-12v-1h12Zm-24,0h-12v-1h12Zm-24,0h-12v-1h12Zm-24,0h-12v-1h12Zm-24,0h-12v-1h12Zm-24,0h-12v-1h12Zm-24,0h-12v-1h12Zm-24,0h-12v-1h12Zm-18.7-5.31h-1v-12h1Zm907.19-12h-1v-12h1Zm-907.19-12h-1v-12h1Zm907.19-12h-1v-12h1Zm-907.19-12h-1v-12h1Zm907.19-12h-1v-12h1Zm-907.19-12h-1v-12h1Zm907.19-12h-1v-12h1Zm-907.19-12h-1v-12h1Zm907.19-12h-1v-12h1Zm-907.19-12h-1v-12h1Zm907.19-12h-1v-12h1Zm-907.19-12h-1v-12h1Zm907.19-12h-1v-12h1Zm-907.19-12h-1v-12h1Zm907.19-12h-1v-12h1Zm-907.19-12h-1v-12h1Zm907.19-12h-1v-12h1Zm-907.19-12h-1v-12h1Zm907.19-12h-1v-12h1Zm-907.19-12h-1v-12h1Zm907.19-12h-1v-12h1Zm-907.19-12h-1v-12h1Zm907.19-12h-1v-12h1Zm-907.19-12h-1v-12h1Zm907.19-12h-1v-12h1Zm-907.19-12h-1v-12h1Zm907.19-12h-1v-12h1Zm-907.19-12h-1v-12h1Zm907.19-12h-1v-12h1Zm-907.19-12h-1v-12h1Zm907.19-12h-1v-12h1Zm-907.19-12h-1v-12h1Zm907.19-12h-1v-12h1Zm-907.19-12h-1v-12h1Zm907.19-12h-1v-12h1Zm-907.19-12h-1v-12h1Zm907.19-12h-1v-12h1Zm-907.19-12h-1v-12h1Zm907.19-12h-1v-12h1Zm-907.19-12h-1v-12h1Zm907.19-12h-1v-12h1Zm-907.19-12h-1v-12h1Zm907.19-12h-1v-12h1Zm-907.19-12h-1v-12h1Zm907.19-12h-1v-12h1Zm-907.19-12h-1v-12h1Zm907.19-12h-1v-12h1Zm-907.19-12h-1v-12h1Zm907.19-12h-1v-12h1Zm-907.19-12h-1v-12h1Zm907.19-12h-1v-12h1Zm-907.19-12h-1v-12h1Zm907.19-12h-1v-12h1Zm-907.19-12h-1v-12h1Zm907.19-12h-1v-12h1Zm-907.19-12h-1v-12h1Zm907.19-12h-1v-12h1Zm-907.19-12h-1v-12h1Zm907.19-12h-1v-12h1Zm-907.19-12h-1v-12h1Zm907.19-12h-1v-12h1Zm-907.19-12h-1v-12h1Zm907.19-12h-1v-12h1Zm-907.19-12h-1v-12h1Zm907.19-12h-1v-12h1Zm-907.19-12h-1v-12h1Zm907.19-12h-1v-12h1Zm-907.19-12h-1v-12h1Zm907.19-12h-1v-12h1Zm-907.19-12h-1v-12h1Zm907.19-12h-1v-12h1Zm-907.19-12h-1v-12h1Zm907.19-12h-1v-12h1Zm-907.19-12h-1v-12h1Zm907.19-12h-1V86.9H984v-1h10.08ZM972,86.9H960v-1h12Zm-24,0H936v-1h12Zm-24,0H912v-1h12Zm-24,0H888v-1h12Zm-24,0H864v-1h12Zm-24,0H840v-1h12Zm-24,0H816v-1h12Zm-24,0H792v-1h12Zm-24,0H768v-1h12Zm-24,0H744v-1h12Zm-24,0H720v-1h12Zm-24,0H696v-1h12Zm-24,0H672v-1h12Zm-24,0H648v-1h12Zm-24,0H624v-1h12Zm-24,0H600v-1h12Zm-24,0H576v-1h12Zm-24,0H552v-1h12Zm-24,0H528v-1h12Zm-24,0H504v-1h12Zm-24,0H480v-1h12Zm-24,0H456v-1h12Zm-24,0H432v-1h12Zm-24,0H408v-1h12Zm-24,0H384v-1h12Zm-24,0H360v-1h12Zm-24,0H336v-1h12Zm-24,0H312v-1h12Zm-24,0H288v-1h12Zm-24,0H264v-1h12Zm-24,0H240v-1h12Zm-24,0H216v-1h12Zm-24,0H192v-1h12Zm-24,0H168v-1h12Zm-24,0H144v-1h12Zm-24,0H120v-1h12Zm-24,0H96v-1h12Z"/><path class="cls-1" d="M87.06,265.58H102.9v2.95H96.72V286H93.27V268.53H87.06Z"/><path class="cls-1" d="M119.9,286H105.83V265.58h13.78v2.92H109.25v5.73h9.19v2.82h-9.19v6H119.9Z"/><path class="cls-1" d="M121.62,286l6.65-10.21-6.56-10.22h3.93l4.61,7.43,4.79-7.43h3.82l-6.68,10.13L139,286H135l-4.78-7.41L125.52,286Z"/><path class="cls-1" d="M139.81,265.58h15.84v2.95h-6.18V286H146V268.53h-6.21Z"/><path class="cls-1" d="M167.49,286h-3.42V265.58h3.42v8.49h9.45v-8.49h3.41V286h-3.41v-9h-9.45Z"/><path class="cls-1" d="M194.64,271.2a2.88,2.88,0,0,0-.87-2.19,3.18,3.18,0,0,0-2.29-.82,3.48,3.48,0,0,0-3,1.33,5.81,5.81,0,0,0-.86,3.86l-3.32-.45a7,7,0,0,1,1.81-5.62,7.24,7.24,0,0,1,5.42-2.07,6.85,6.85,0,0,1,4.78,1.64,5.4,5.4,0,0,1,1.78,4.22,7.35,7.35,0,0,1-1.06,3.74,17.06,17.06,0,0,1-3.39,3.94l-4.88,4.34h9.95V286H184.24v-2.86l7.27-6.5a11.66,11.66,0,0,0,2.41-2.77A5.36,5.36,0,0,0,194.64,271.2Z"/><path class="cls-1" d="M208.76,279.47h-7.65v-2.82h7.65Z"/><path class="cls-1" d="M216.42,286H213V265.58h3.42v8.49h9.45v-8.49h3.42V286h-3.42v-9h-9.45Z"/><path class="cls-1" d="M248.18,286H234.12V265.58h13.77v2.92H237.54v5.73h9.18v2.82h-9.18v6h10.64Z"/><path class="cls-1" d="M263.69,281.5h-8.63L253.39,286H250l7.69-20.43h3.7L269,286h-3.67Zm-7.58-2.84h6.57l-3.25-9Z"/><path class="cls-1" d="M280.17,286h-8.32V265.58h8.32a10,10,0,0,1,7.38,2.7,9.57,9.57,0,0,1,2.74,7.23,10.52,10.52,0,0,1-2.77,7.61A9.68,9.68,0,0,1,280.17,286Zm6.66-10.5a7.08,7.08,0,0,0-1.81-5.08,6.37,6.37,0,0,0-4.85-1.9h-4.9v14.53h4.9A6.11,6.11,0,0,0,285,281,8.07,8.07,0,0,0,286.83,275.51Z"/><path class="cls-1" d="M297.52,286h-3.41V265.58h3.41Z"/><path class="cls-1" d="M305.62,286h-3.27V265.58h3.76L315.22,280V265.58h3.27V286h-3l-9.9-15.61Z"/><path class="cls-1" d="M332.2,286.37a9.54,9.54,0,0,1-7.21-2.89,12,12,0,0,1,.06-15.32,9.7,9.7,0,0,1,7.4-2.92,10,10,0,0,1,5.94,1.69,8.15,8.15,0,0,1,3.17,4.78l-3.36.58a5.5,5.5,0,0,0-5.75-4.1,6.16,6.16,0,0,0-4.9,2.05,8.31,8.31,0,0,0-1.78,5.64,8,8,0,0,0,1.84,5.46,6.22,6.22,0,0,0,4.87,2.08,6.55,6.55,0,0,0,4.4-1.44,4.57,4.57,0,0,0,1.73-3.62v-.7h-5.9V275h9V286h-3.09v-2.53a7.07,7.07,0,0,1-2.74,2.14A8.9,8.9,0,0,1,332.2,286.37Z"/><path class="cls-1" d="M97.83,321.38a9.55,9.55,0,0,1-7.21-2.89,12,12,0,0,1,.06-15.32,9.71,9.71,0,0,1,7.41-2.92,9.94,9.94,0,0,1,5.93,1.69,8.15,8.15,0,0,1,3.17,4.78l-3.36.58a5.5,5.5,0,0,0-5.74-4.1,6.14,6.14,0,0,0-4.91,2.05,8.36,8.36,0,0,0-1.78,5.64,8,8,0,0,0,1.84,5.46,6.24,6.24,0,0,0,4.87,2.08,6.58,6.58,0,0,0,4.41-1.44,4.56,4.56,0,0,0,1.72-3.62v-.7h-5.9V310h9v11h-3.09v-2.53a7,7,0,0,1-2.74,2.14A8.9,8.9,0,0,1,97.83,321.38Z"/><path class="cls-1" d="M130.18,310.81a10.88,10.88,0,0,1-2.69,7.68,10.31,10.31,0,0,1-14.32,0,12.35,12.35,0,0,1,0-15.35,10.28,10.28,0,0,1,14.29,0A10.77,10.77,0,0,1,130.18,310.81Zm-14.48-5.57a10,10,0,0,0,0,11.14,6.31,6.31,0,0,0,9.31,0,10,10,0,0,0,0-11.14,6.33,6.33,0,0,0-9.31,0Z"/><path class="cls-1" d="M148,321H134V300.59h13.78v2.92H137.4v5.73h9.19v2.82H137.4v6H148Z"/><path class="cls-1" d="M158.87,321.38a9.3,9.3,0,0,1-6-1.78,6.1,6.1,0,0,1-2.28-4.9l3.42-.39a4.24,4.24,0,0,0,1.34,3.19,5.18,5.18,0,0,0,3.53,1.1,4.39,4.39,0,0,0,2.9-.88,2.88,2.88,0,0,0,1.06-2.35,2.4,2.4,0,0,0-.72-1.87,5.55,5.55,0,0,0-2.54-1l-2.69-.55q-5.69-1.17-5.69-5.87a5.19,5.19,0,0,1,2-4.1,7.66,7.66,0,0,1,5.2-1.7,8.18,8.18,0,0,1,5.29,1.6,6.06,6.06,0,0,1,2.26,4.36l-3.47.37c-.26-2.38-1.63-3.56-4.11-3.56a4.33,4.33,0,0,0-2.74.78,2.54,2.54,0,0,0-1,2.11,2.58,2.58,0,0,0,.7,1.93,4.17,4.17,0,0,0,2.24,1l3.13.61a8,8,0,0,1,4.26,1.94,5,5,0,0,1,1.4,3.69,5.82,5.82,0,0,1-2.08,4.53A7.89,7.89,0,0,1,158.87,321.38Z"/><path class="cls-1" d="M179.77,321h-3.42V300.59h3.42v8.49h9.44v-8.49h3.42V321h-3.42v-9h-9.44Z"/><path class="cls-1" d="M211.52,321H197.46V300.59h13.78v2.92H200.88v5.73h9.19v2.82h-9.19v6h10.64Z"/><path class="cls-1" d="M230.57,315.82l.3,5.2h-3.42l-.3-5.2a2.47,2.47,0,0,0-.93-1.94,4.47,4.47,0,0,0-2.64-.62h-4.85V321h-3.42V300.59h8.49a7.66,7.66,0,0,1,5.1,1.61,5,5,0,0,1,2,4.09,5.92,5.92,0,0,1-.86,3.13,6.1,6.1,0,0,1-2.42,2.21A4.21,4.21,0,0,1,230.57,315.82Zm-3.18-9.19a2.83,2.83,0,0,0-1-2.29,4.29,4.29,0,0,0-2.82-.85h-4.82v6.95h4.82a3.62,3.62,0,0,0,3.84-3.81Z"/><path class="cls-1" d="M249.15,321H235.09V300.59h13.77v2.92H238.5v5.73h9.19v2.82H238.5v6h10.65Z"/><path class="cls-1" d="M90.47,86.4h31V98.62h-5.85V91.33H100.16v13.82h13v4.9h-13v14.64h15.41V117.4h5.85v12.19H90.47v-4.9h4.11V91.33H90.47Z"/><path class="cls-1" d="M153.84,86.4h14v4.93h-3.68v38.26h-7.29L136.8,93.78v30.91h4.45v4.9h-14v-4.9h4V91.33h-4.11v-5h11.63l19.71,35.47.23-1.36V91.33h-4.84Z"/><path class="cls-1" d="M206.72,129.76V121.1A14.71,14.71,0,0,1,204,125a15,15,0,0,1-3.62,2.75,17.36,17.36,0,0,1-4.26,1.62,19.75,19.75,0,0,1-4.6.54,21,21,0,0,1-7.78-1.41A17.89,17.89,0,0,1,177.3,124a20.93,20.93,0,0,1-4.42-7.3,25.81,25.81,0,0,1-1.52-8.8,25,25,0,0,1,1.52-8.72,22.14,22.14,0,0,1,4.28-7.15,19.89,19.89,0,0,1,6.55-4.79A19.62,19.62,0,0,1,192,85.54a19.27,19.27,0,0,1,7,1.17,19.56,19.56,0,0,1,5,2.84,22.65,22.65,0,0,1,3.35,3.17h2.77V97.8H204A14.22,14.22,0,0,0,199,92.67a14.07,14.07,0,0,0-13.06-.43A14.76,14.76,0,0,0,181.23,96a17.71,17.71,0,0,0-3,5.44,19.49,19.49,0,0,0-1.08,6.5,20.17,20.17,0,0,0,1.19,7,16,16,0,0,0,3.05,5.27,15.24,15.24,0,0,0,4.57,3.35,13.67,13.67,0,0,0,6,1.32,14.42,14.42,0,0,0,9-2.66q3.51-2.67,4.9-8.31H193.75v-4.9H212v20.71Z"/><path class="cls-1" d="M221.33,86.4h14v4.93H231v33.36h14.9a2.12,2.12,0,0,0,.91-.21,3.11,3.11,0,0,0,.83-.56,2.67,2.67,0,0,0,.6-.78,1.94,1.94,0,0,0,.23-.9V116.8h5.41v12.79H221.33v-4.9h4.11V91.33h-4.11Z"/><path class="cls-1" d="M258.26,86.4h13.79v4.93H268v33.36h4.1v4.9H258.26v-4.9h4.1V91.33h-4.1Z"/><path class="cls-1" d="M301.42,94.38a6.85,6.85,0,0,0-2-1.92,9.21,9.21,0,0,0-2.4-1,9.9,9.9,0,0,0-2.62-.36,13,13,0,0,0-3.79.5,8.23,8.23,0,0,0-2.7,1.35,5.68,5.68,0,0,0-1.61,2,5.53,5.53,0,0,0-.54,2.39,6.09,6.09,0,0,0,.67,3,5.61,5.61,0,0,0,1.7,1.85,8.75,8.75,0,0,0,2.26,1.09l2.38.8,5.76,1.88a28.5,28.5,0,0,1,4.57,1.88,12.63,12.63,0,0,1,3.32,2.5,9.93,9.93,0,0,1,2,3.32,12.59,12.59,0,0,1,.69,4.36,11.28,11.28,0,0,1-1.09,5,12,12,0,0,1-3.07,4,14.61,14.61,0,0,1-4.68,2.64,18.14,18.14,0,0,1-6,.95,19,19,0,0,1-5.7-.75,12.26,12.26,0,0,1-4-2,10.2,10.2,0,0,1-2.58-2.89,15.48,15.48,0,0,1-1.51-3.33H278.4v-4.9h7.18a10.56,10.56,0,0,0,.67,4.47,6.05,6.05,0,0,0,1.87,2.18,8.5,8.5,0,0,0,2.85,1.31,13.81,13.81,0,0,0,3.64.44,12.46,12.46,0,0,0,3.49-.45,7.59,7.59,0,0,0,2.65-1.33,5.83,5.83,0,0,0,1.68-2.11,6.46,6.46,0,0,0,.59-2.8,5.59,5.59,0,0,0-.73-3,7.07,7.07,0,0,0-1.86-2.07,10.89,10.89,0,0,0-2.5-1.39c-.9-.36-1.77-.68-2.6-.94l-6.24-1.77a18.71,18.71,0,0,1-3.75-1.59,11.28,11.28,0,0,1-2.91-2.37,10,10,0,0,1-1.86-3.26,12.9,12.9,0,0,1-.66-4.32,11.31,11.31,0,0,1,1-4.64,10.9,10.9,0,0,1,2.85-3.79,13.79,13.79,0,0,1,4.6-2.55,19.21,19.21,0,0,1,6.23-.93,16,16,0,0,1,4.26.54,13.71,13.71,0,0,1,3.53,1.53,12.39,12.39,0,0,1,2.79,2.36,14.19,14.19,0,0,1,2,3h2.14v4.9h-7A6.36,6.36,0,0,0,301.42,94.38Z"/><path class="cls-1" d="M345,86.4h14v4.9h-4.1v33.39H359v4.9H345v-4.9h4.33V109.16h-25v15.53h4.33v4.9h-14v-4.9h4.1V91.3h-4.1V86.4h14v4.9h-4.33v13.08h25V91.3H345Z"/><path class="cls-1" d="M410.29,86.4h14v4.9H420.2v33.39h4.11v4.9h-14v-4.9h4.33V109.16h-25v15.53H394v4.9h-14v-4.9h4.11V91.3h-4.11V86.4h14v4.9h-4.33v13.08h25V91.3h-4.33Z"/><path class="cls-1" d="M435.27,124.69h4.19V93.1l-8.74,4.75V91.9l12-6.73H445v39.52h4.24v4.9h-14Z"/><path class="cls-1" d="M500,86.4h14v4.9h-4.1v33.39H514v4.9H500v-4.9h4.33V109.16h-25v15.53h4.33v4.9h-14v-4.9h4.11V91.3h-4.11V86.4h14v4.9h-4.33v13.08h25V91.3H500Z"/><path class="cls-1" d="M522.17,86.4h30.94V98.62h-5.84V91.33H531.86v13.82h13v4.9h-13v14.64h15.41V117.4h5.84v12.19H522.17v-4.9h4.11V91.33h-4.11Z"/><path class="cls-1" d="M584.37,124.69H588l-3.42-9.8H567.93l-3.33,9.8H569v4.9H555v-4.9h3.76L572.23,86.4h8.41l13.42,38.29h4.33v4.9h-14Zm-14.82-14.53h13.34l-6.73-19.32Z"/><path class="cls-1" d="M602.75,86.4h16.06a20.39,20.39,0,0,1,10.63,2.93,20.72,20.72,0,0,1,7.4,7.7,21.77,21.77,0,0,1,2,5.14,22.45,22.45,0,0,1,.71,5.71,22.91,22.91,0,0,1-.71,5.79,22.24,22.24,0,0,1-2,5.18,21.23,21.23,0,0,1-3.21,4.4,20.29,20.29,0,0,1-9.17,5.57,20.13,20.13,0,0,1-5.65.77H602.75v-4.9h4.1V91.33h-4.1Zm9.68,4.93v33.36h6.73a12.35,12.35,0,0,0,5.62-1.31,14.61,14.61,0,0,0,4.6-3.57,17,17,0,0,0,3.11-5.33,18.76,18.76,0,0,0,1.14-6.6,18.23,18.23,0,0,0-1.14-6.49,16.69,16.69,0,0,0-3.11-5.26,14.6,14.6,0,0,0-4.6-3.52,12.72,12.72,0,0,0-5.62-1.28Z"/><path class="cls-1" d="M645.68,86.4h13.79v4.93h-4.1v33.36h4.1v4.9H645.68v-4.9h4.11V91.33h-4.11Z"/><path class="cls-1" d="M694.34,86.4h14v4.93h-3.67v38.26h-7.3L677.31,93.78v30.91h4.44v4.9h-14v-4.9h4V91.33h-4.1v-5h11.63L699,121.81l.23-1.36V91.33h-4.85Z"/><path class="cls-1" d="M747.23,129.76V121.1a14.78,14.78,0,0,1-6.33,6.67,17.36,17.36,0,0,1-4.26,1.62,19.75,19.75,0,0,1-4.6.54,21,21,0,0,1-7.78-1.41,17.89,17.89,0,0,1-6.45-4.48,20.93,20.93,0,0,1-4.42-7.3,25.81,25.81,0,0,1-1.52-8.8,25,25,0,0,1,1.52-8.72,22,22,0,0,1,4.28-7.15,19.78,19.78,0,0,1,6.55-4.79,19.56,19.56,0,0,1,8.25-1.74,19.34,19.34,0,0,1,7,1.17,19.73,19.73,0,0,1,5,2.84,23.16,23.16,0,0,1,3.35,3.17h2.76V97.8h-6.12a14.3,14.3,0,0,0-5.06-5.13,14.07,14.07,0,0,0-13.06-.43A14.65,14.65,0,0,0,721.74,96a17.71,17.71,0,0,0-3,5.44,19.24,19.24,0,0,0-1.09,6.5,20.17,20.17,0,0,0,1.2,7,15.81,15.81,0,0,0,3,5.27,15.12,15.12,0,0,0,4.57,3.35,13.61,13.61,0,0,0,6,1.32,14.44,14.44,0,0,0,9-2.66q3.51-2.67,4.9-8.31H734.26v-4.9h18.26v20.71Z"/><path class="cls-1" d="M123.81,199.78v-8.66A14.71,14.71,0,0,1,121.1,195a15,15,0,0,1-3.62,2.75,17.36,17.36,0,0,1-4.26,1.62,19.76,19.76,0,0,1-4.6.55,21,21,0,0,1-7.78-1.42,17.89,17.89,0,0,1-6.45-4.48,20.76,20.76,0,0,1-4.41-7.3,25.58,25.58,0,0,1-1.53-8.8A24.76,24.76,0,0,1,90,169.24a21.94,21.94,0,0,1,4.27-7.15,19.89,19.89,0,0,1,6.55-4.79,19.61,19.61,0,0,1,8.25-1.73,19.28,19.28,0,0,1,7,1.16,19.56,19.56,0,0,1,5,2.84,22.16,22.16,0,0,1,3.35,3.18h2.77v5.07h-6.13a14.22,14.22,0,0,0-5.06-5.13,14.15,14.15,0,0,0-13.06-.43A14.76,14.76,0,0,0,98.32,166a17.71,17.71,0,0,0-3,5.44,19.49,19.49,0,0,0-1.08,6.5,20.4,20.4,0,0,0,1.19,7,16,16,0,0,0,3,5.27,15.24,15.24,0,0,0,4.57,3.35,13.67,13.67,0,0,0,6,1.32,14.42,14.42,0,0,0,9-2.66q3.51-2.67,4.91-8.31H110.84v-4.9h18.27v20.71Z"/><path class="cls-1" d="M157.12,200.47a19.71,19.71,0,0,1-8.18-1.67,20.76,20.76,0,0,1-11-12A25.63,25.63,0,0,1,136.4,178a24.94,24.94,0,0,1,1.53-8.78,21.9,21.9,0,0,1,4.27-7.14,20.14,20.14,0,0,1,6.55-4.78,20.19,20.19,0,0,1,23.32,4.78,21.85,21.85,0,0,1,4.25,7.14,25.39,25.39,0,0,1,1.51,8.78,24.82,24.82,0,0,1-1.53,8.76,22,22,0,0,1-4.27,7.13,19.76,19.76,0,0,1-14.91,6.56Zm0-5.3a13.33,13.33,0,0,0,6.13-1.4,14.51,14.51,0,0,0,4.69-3.74,17.19,17.19,0,0,0,3-5.46A20.07,20.07,0,0,0,172,178a20.5,20.5,0,0,0-1.16-6.83,16.13,16.13,0,0,0-3.22-5.57,14.41,14.41,0,0,0-4.8-3.52,13.71,13.71,0,0,0-5.69-1.23,13.45,13.45,0,0,0-6.16,1.39,14.45,14.45,0,0,0-4.7,3.75,17,17,0,0,0-3,5.47,20.37,20.37,0,0,0-1.06,6.54,20.1,20.1,0,0,0,1.17,7.1,15.46,15.46,0,0,0,3.09,5.19,17,17,0,0,0,4.59,3.46A12.86,12.86,0,0,0,157.12,195.17Z"/><path class="cls-1" d="M183.92,156.42h31v12.22H209v-7.29H193.61v13.82h13v4.9h-13v14.64H209v-7.29h5.84v12.19h-31v-4.9H188V161.35h-4.11Z"/><path class="cls-1" d="M241.79,164.4a7.15,7.15,0,0,0-2-1.93,9.53,9.53,0,0,0-2.4-1,9.92,9.92,0,0,0-2.63-.36,13.09,13.09,0,0,0-3.79.5,8,8,0,0,0-2.69,1.36,5.52,5.52,0,0,0-2.15,4.38,6,6,0,0,0,.67,3,5.61,5.61,0,0,0,1.7,1.85,9,9,0,0,0,2.26,1.1c.83.26,1.62.53,2.38.79l5.75,1.88a27.74,27.74,0,0,1,4.58,1.88,12.8,12.8,0,0,1,3.32,2.5,9.74,9.74,0,0,1,2,3.32,12.33,12.33,0,0,1,.7,4.35,11.29,11.29,0,0,1-1.09,5,12.16,12.16,0,0,1-3.07,4,14.61,14.61,0,0,1-4.68,2.64,18.14,18.14,0,0,1-6,1,18.93,18.93,0,0,1-5.7-.75,12.82,12.82,0,0,1-4-2,10.49,10.49,0,0,1-2.57-2.9,15.48,15.48,0,0,1-1.51-3.33h-2.17v-4.9H226a10.56,10.56,0,0,0,.67,4.47,6.05,6.05,0,0,0,1.87,2.18,8.35,8.35,0,0,0,2.84,1.31,13.94,13.94,0,0,0,3.65.44,12.51,12.51,0,0,0,3.49-.45,7.76,7.76,0,0,0,2.65-1.33,5.88,5.88,0,0,0,1.68-2.1,6.54,6.54,0,0,0,.59-2.81,5.68,5.68,0,0,0-.73-3,7.11,7.11,0,0,0-1.87-2.07A10.82,10.82,0,0,0,238.3,182c-.9-.36-1.77-.68-2.61-.94l-6.24-1.77a18.87,18.87,0,0,1-3.74-1.59,11.28,11.28,0,0,1-2.91-2.37,9.8,9.8,0,0,1-1.86-3.26,12.9,12.9,0,0,1-.66-4.32,11.15,11.15,0,0,1,1-4.64,10.66,10.66,0,0,1,2.85-3.79,13.69,13.69,0,0,1,4.6-2.55,19.19,19.19,0,0,1,6.22-.93,15.92,15.92,0,0,1,4.26.54,13.78,13.78,0,0,1,3.54,1.53,12.39,12.39,0,0,1,2.79,2.36,14.19,14.19,0,0,1,2,3h2.13v4.9h-7A6.36,6.36,0,0,0,241.79,164.4Z"/><path class="cls-1" d="M298.15,156.42h14v4.9h-4.1v33.39h4.1v4.9h-14v-4.9h4.33V179.18h-25v15.53h4.33v4.9h-14v-4.9h4.11V161.32H267.8v-4.9h14v4.9h-4.33V174.4h25V161.32h-4.33Z"/><path class="cls-1" d="M320.31,156.42h30.94v12.22h-5.84v-7.29H330v13.82h13v4.9H330v14.64h15.41v-7.29h5.84v12.19H320.31v-4.9h4.11V161.35h-4.11Z"/><path class="cls-1" d="M357,156.42h18a17.61,17.61,0,0,1,5.31.76,12.15,12.15,0,0,1,4.22,2.22,10.13,10.13,0,0,1,2.78,3.66,12.12,12.12,0,0,1,1,5,9.24,9.24,0,0,1-.59,3.21,11.21,11.21,0,0,1-1.62,2.93,12.55,12.55,0,0,1-2.47,2.41,11.32,11.32,0,0,1-3.1,1.62,6.78,6.78,0,0,1,1.44.9,8.39,8.39,0,0,1,1.36,1.42,11.85,11.85,0,0,1,1.17,1.91,12.08,12.08,0,0,1,.84,2.3l2.4,9.4h3.73l.06,5.41h-8.41l-3.22-13.13a10.33,10.33,0,0,0-2.69-5.2,7,7,0,0,0-4.94-1.67h-5.56v15.1H371v4.9H357v-4.9h4.1V161.35H357Zm9.69,4.93v13.59h8.29a9.76,9.76,0,0,0,3-.43,6.36,6.36,0,0,0,2.33-1.28,5.89,5.89,0,0,0,1.54-2.12,7.32,7.32,0,0,0,.56-3,6.52,6.52,0,0,0-1.94-5q-1.93-1.78-6.15-1.79Z"/><path class="cls-1" d="M398.49,156.42h30.94v12.22h-5.84v-7.29H408.18v13.82h13v4.9h-13v14.64h15.41v-7.29h5.84v12.19H398.49v-4.9h4.1V161.35h-4.1Z"/><rect class="cls-1" x="86.53" y="240.65" width="43.2" height="4.32"/><polygon class="cls-1" points="89.26 920.69 89.26 926.09 103.72 926.09 86.49 953.09 110.86 953.09 110.86 947.69 96.34 947.69 113.57 920.69 89.26 920.69"/><polygon class="cls-1" points="119.04 953.09 140.57 953.09 140.57 947.69 124.42 947.69 124.4 939.59 140.57 939.59 140.57 934.19 124.39 934.19 124.37 926.09 140.57 926.09 140.57 920.69 118.96 920.69 119.04 953.09"/><polygon class="cls-1" points="170.27 947.69 154.07 947.69 154.07 939.59 170.27 939.59 170.27 934.19 154.07 934.19 154.07 926.09 170.27 926.09 170.27 920.69 148.67 920.69 148.67 953.09 170.27 953.09 170.27 947.69"/><polygon class="cls-1" points="118.97 993.6 140.57 993.6 140.57 988.2 124.37 988.2 124.37 980.1 140.57 980.1 140.57 974.7 124.37 974.7 124.37 966.6 140.57 966.6 140.57 961.2 118.97 961.2 118.97 993.6"/><polygon class="cls-1" points="167.57 961.2 167.57 983.08 153.84 961.2 148.67 961.2 148.67 993.6 154.07 993.6 154.07 971.72 167.8 993.6 172.97 993.6 172.97 961.2 167.57 961.2"/><path class="cls-1" d="M98.79,394.62l-9.08,11.14H99v1.66H87.42v-1.58l9.16-11.25H87.9v-1.67H98.79Z"/><path class="cls-1" d="M108.07,406.14a3.7,3.7,0,0,0,4-3.33l1.9.3a5,5,0,0,1-1.91,3.41,6.34,6.34,0,0,1-4,1.26,6.48,6.48,0,0,1-5.1-2,8.17,8.17,0,0,1-1.76-5.66,8,8,0,0,1,1.84-5.52,6.33,6.33,0,0,1,5-2.06,5.86,5.86,0,0,1,4.58,1.79,7.18,7.18,0,0,1,1.62,5v1.23H103.26C103.37,404.29,105,406.14,108.07,406.14ZM108,394.2a4.34,4.34,0,0,0-3.22,1.21,5.77,5.77,0,0,0-1.43,3.55h8.77Q111.88,394.21,108,394.2Z"/><path class="cls-1" d="M123.82,406.14a3.7,3.7,0,0,0,4-3.33l1.9.3a5,5,0,0,1-1.91,3.41,6.33,6.33,0,0,1-4,1.26,6.49,6.49,0,0,1-5.11-2,8.22,8.22,0,0,1-1.76-5.66,8,8,0,0,1,1.84-5.52,6.33,6.33,0,0,1,4.95-2.06,5.86,5.86,0,0,1,4.58,1.79,7.18,7.18,0,0,1,1.62,5v1.23H119C119.12,404.29,120.72,406.14,123.82,406.14Zm-.1-11.94a4.34,4.34,0,0,0-3.23,1.21,5.77,5.77,0,0,0-1.43,3.55h8.77Q127.62,394.21,123.72,394.2Z"/><path class="cls-1" d="M139.56,406.14a3.7,3.7,0,0,0,4-3.33l1.9.3a5,5,0,0,1-1.91,3.41,6.33,6.33,0,0,1-4,1.26,6.5,6.5,0,0,1-5.11-2,8.22,8.22,0,0,1-1.76-5.66,8,8,0,0,1,1.84-5.52,6.35,6.35,0,0,1,5-2.06,5.84,5.84,0,0,1,4.57,1.79,7.18,7.18,0,0,1,1.62,5v1.23H134.74C134.86,404.29,136.46,406.14,139.56,406.14Zm-.1-11.94a4.34,4.34,0,0,0-3.23,1.21A5.77,5.77,0,0,0,134.8,399h8.77Q143.36,394.21,139.46,394.2Z"/><path class="cls-1" d="M161.48,398v9.38h-2v-9a4.3,4.3,0,0,0-1-3,3.61,3.61,0,0,0-2.8-1.06,3.94,3.94,0,0,0-3.22,1.32,6,6,0,0,0-1.1,3.88v7.9h-2v-14.5h2v1.92a5.16,5.16,0,0,1,4.65-2.26,5,5,0,0,1,5.45,5.46Z"/><path class="cls-1" d="M165.67,404.59h2.69v2.83h-2.69Z"/><path class="cls-1" d="M174.72,390.33h-2V387h2Zm0,17.09h-2v-14.5h2Z"/><path class="cls-1" d="M181.35,407.42h-2v-14.5h2v2.84a4.6,4.6,0,0,1,4.32-2.84h1.08v1.92h-1.08a3.64,3.64,0,0,0-3.12,1.78,8.14,8.14,0,0,0-1.2,4.65Z"/></g></svg>