<svg xmlns="http://www.w3.org/2000/svg" xmlns:xlink="http://www.w3.org/1999/xlink" viewBox="0 0 1080 1080"><defs><style>.cls-1{fill:#061f6b;}.cls-2{fill:#4672e2;}.cls-3{fill:url(#linear-gradient);}.cls-4{fill:url(#linear-gradient-2);}.cls-5{fill:url(#linear-gradient-3);}.cls-6{fill:url(#linear-gradient-4);}.cls-7{fill:#fff;}.cls-8{fill:url(#linear-gradient-5);}.cls-9{fill:url(#linear-gradient-6);}.cls-10{fill:url(#linear-gradient-7);}.cls-11{fill:url(#linear-gradient-8);}</style><linearGradient id="linear-gradient" x1="13347.35" y1="18330.45" x2="13347.35" y2="17250.45" gradientTransform="translate(-17250.45 13433.72) rotate(-90)" gradientUnits="userSpaceOnUse"><stop offset="0" stop-color="#fff" stop-opacity="0"/><stop offset="0.51" stop-color="#fff"/><stop offset="1" stop-color="#fff" stop-opacity="0"/></linearGradient><linearGradient id="linear-gradient-2" x1="12440.09" y1="18330.45" x2="12440.09" y2="17250.45" xlink:href="#linear-gradient"/><linearGradient id="linear-gradient-3" x1="21411.35" y1="6234.44" x2="21411.35" y2="5154.44" gradientTransform="translate(-20417.72 -5154.44)" xlink:href="#linear-gradient"/><linearGradient id="linear-gradient-4" x1="20504.09" y1="6234.44" x2="20504.09" y2="5154.44" gradientTransform="translate(-20417.72 -5154.44)" xlink:href="#linear-gradient"/><linearGradient id="linear-gradient-5" x1="13147.4" y1="18330.45" x2="13147.4" y2="17250.45" gradientTransform="translate(-17250.45 13433.72) rotate(-90)" gradientUnits="userSpaceOnUse"><stop offset="0" stop-color="#fff" stop-opacity="0"/><stop offset="1" stop-color="#fff"/></linearGradient><linearGradient id="linear-gradient-6" x1="12958.63" y1="18330.45" x2="12958.63" y2="17250.45" xlink:href="#linear-gradient"/><linearGradient id="linear-gradient-7" x1="13233.79" y1="18330.45" x2="13233.79" y2="17250.45" xlink:href="#linear-gradient-5"/><linearGradient id="linear-gradient-8" x1="13190.57" y1="18330.45" x2="13190.57" y2="17250.45" xlink:href="#linear-gradient-5"/></defs><g id="Graphic"><path class="cls-1" d="M88.69,1080h904.9V679.76c-110.67-125-272.35-203.83-452.45-203.83S199.36,554.74,88.69,679.76Z"/><path class="cls-2" d="M100.29,286H86.23V265.58H100v2.92H89.65v5.73h9.19v2.82H89.65v6h10.64Z"/><path class="cls-2" d="M107.34,286h-3.26V265.58h3.76l9.1,14.39V265.58h3.28V286h-3l-9.9-15.61Z"/><path class="cls-2" d="M133.92,286.37a9.53,9.53,0,0,1-7.21-2.89,12,12,0,0,1,.06-15.32,9.71,9.71,0,0,1,7.41-2.92,10,10,0,0,1,5.93,1.69,8.15,8.15,0,0,1,3.17,4.78l-3.36.58a5.49,5.49,0,0,0-5.74-4.1,6.18,6.18,0,0,0-4.91,2.05,8.36,8.36,0,0,0-1.77,5.64,8,8,0,0,0,1.84,5.46,6.21,6.21,0,0,0,4.87,2.08,6.57,6.57,0,0,0,4.4-1.44,4.56,4.56,0,0,0,1.72-3.62v-.7h-5.89V275h9V286h-3.09v-2.53a7,7,0,0,1-2.73,2.14A8.94,8.94,0,0,1,133.92,286.37Z"/><path class="cls-2" d="M160.58,286H147.66V265.58h3.42v17.48h9.5Z"/><path class="cls-2" d="M167,286h-3.42V265.58H167Z"/><path class="cls-2" d="M178.81,286.37a9.3,9.3,0,0,1-6-1.78,6.1,6.1,0,0,1-2.28-4.9l3.42-.39a4.24,4.24,0,0,0,1.34,3.19,5.13,5.13,0,0,0,3.53,1.1,4.39,4.39,0,0,0,2.9-.88,2.87,2.87,0,0,0,1.06-2.35,2.38,2.38,0,0,0-.73-1.87,5.4,5.4,0,0,0-2.53-1l-2.69-.56q-5.69-1.17-5.69-5.87a5.19,5.19,0,0,1,2-4.1,7.66,7.66,0,0,1,5.2-1.7,8.18,8.18,0,0,1,5.29,1.6,6.06,6.06,0,0,1,2.26,4.36l-3.47.37c-.26-2.38-1.63-3.56-4.11-3.56a4.33,4.33,0,0,0-2.74.78,2.54,2.54,0,0,0-1,2.11,2.62,2.62,0,0,0,.7,1.94,4.21,4.21,0,0,0,2.24,1l3.13.61a8,8,0,0,1,4.26,1.94,5,5,0,0,1,1.4,3.69,5.82,5.82,0,0,1-2.08,4.53A7.89,7.89,0,0,1,178.81,286.37Z"/><path class="cls-2" d="M193.38,286H190V265.58h3.42v8.49h9.45v-8.49h3.42V286h-3.42v-9h-9.45Z"/><path class="cls-2" d="M220.82,286H217.4V265.58h3.42v8.49h9.45v-8.49h3.42V286h-3.42v-9h-9.45Z"/><path class="cls-2" d="M248,271.2a2.88,2.88,0,0,0-.87-2.19,3.17,3.17,0,0,0-2.29-.82,3.51,3.51,0,0,0-3,1.33,5.81,5.81,0,0,0-.86,3.86l-3.31-.44a7,7,0,0,1,1.81-5.63,7.2,7.2,0,0,1,5.41-2.07,6.85,6.85,0,0,1,4.78,1.64,5.41,5.41,0,0,1,1.79,4.22,7.37,7.37,0,0,1-1.07,3.74,16.82,16.82,0,0,1-3.39,3.94l-4.88,4.34h10V286H237.57v-2.86l7.27-6.5a11.66,11.66,0,0,0,2.41-2.77A5.36,5.36,0,0,0,248,271.2Z"/><path class="cls-2" d="M262.09,279.47h-7.65v-2.82h7.65Z"/><path class="cls-2" d="M269.76,286h-3.42V265.58h3.42v8.49h9.44v-8.49h3.42V286H279.2v-9h-9.44Z"/><path class="cls-2" d="M301.51,286H287.45V265.58h13.77v2.92H290.87v5.73h9.19v2.82h-9.19v6h10.64Z"/><path class="cls-2" d="M317,281.5h-8.63L306.72,286h-3.43L311,265.58h3.71L322.34,286h-3.68Zm-7.58-2.84H316l-3.25-9Z"/><path class="cls-2" d="M333.5,286h-8.32V265.58h8.32a10,10,0,0,1,7.38,2.7,9.57,9.57,0,0,1,2.74,7.23,10.52,10.52,0,0,1-2.77,7.61A9.68,9.68,0,0,1,333.5,286Zm6.66-10.5a7.08,7.08,0,0,0-1.81-5.08,6.41,6.41,0,0,0-4.85-1.9h-4.9v14.53h4.9a6.11,6.11,0,0,0,4.85-2.06A8.07,8.07,0,0,0,340.16,275.51Z"/><path class="cls-2" d="M350.86,286h-3.42V265.58h3.42Z"/><path class="cls-2" d="M359,286h-3.27V265.58h3.77l9.1,14.39V265.58h3.27V286h-3L359,270.4Z"/><path class="cls-2" d="M385.53,286.37a9.51,9.51,0,0,1-7.21-2.89,12,12,0,0,1,.06-15.32,9.71,9.71,0,0,1,7.41-2.92,10,10,0,0,1,5.93,1.69,8.15,8.15,0,0,1,3.17,4.78l-3.36.58a5.5,5.5,0,0,0-5.74-4.1,6.17,6.17,0,0,0-4.91,2.05,8.36,8.36,0,0,0-1.78,5.64,8,8,0,0,0,1.84,5.46,6.24,6.24,0,0,0,4.87,2.08,6.58,6.58,0,0,0,4.41-1.44,4.56,4.56,0,0,0,1.72-3.62v-.7H386V275h9V286H392v-2.53a7,7,0,0,1-2.74,2.14A8.9,8.9,0,0,1,385.53,286.37Z"/><path class="cls-2" d="M95.1,321.38a9.49,9.49,0,0,1-7.2-2.89,12,12,0,0,1,0-15.32,9.72,9.72,0,0,1,7.41-2.92,9.94,9.94,0,0,1,5.93,1.69,8.1,8.1,0,0,1,3.17,4.78l-3.36.58a5.49,5.49,0,0,0-5.74-4.1,6.14,6.14,0,0,0-4.91,2.05,8.36,8.36,0,0,0-1.77,5.64,8,8,0,0,0,1.84,5.46,6.21,6.21,0,0,0,4.87,2.08,6.57,6.57,0,0,0,4.4-1.44,4.56,4.56,0,0,0,1.72-3.62v-.7H95.62V310h9v11h-3.09v-2.53a7,7,0,0,1-2.73,2.14A8.94,8.94,0,0,1,95.1,321.38Z"/><path class="cls-2" d="M127.46,310.81a10.84,10.84,0,0,1-2.7,7.68,10.3,10.3,0,0,1-14.31,0,12.33,12.33,0,0,1,0-15.35,10.28,10.28,0,0,1,14.29,0A10.73,10.73,0,0,1,127.46,310.81ZM113,305.24a10.09,10.09,0,0,0,0,11.15,6.34,6.34,0,0,0,9.32,0,10,10,0,0,0,0-11.15,6.34,6.34,0,0,0-9.32,0Z"/><path class="cls-2" d="M145.32,321H131.26V300.59H145v2.92H134.68v5.73h9.19v2.82h-9.19v6h10.64Z"/><path class="cls-2" d="M156.15,321.38a9.33,9.33,0,0,1-6-1.78,6.06,6.06,0,0,1-2.27-4.9l3.41-.39a4.28,4.28,0,0,0,1.34,3.19,5.18,5.18,0,0,0,3.54,1.1,4.36,4.36,0,0,0,2.89-.88,2.89,2.89,0,0,0,1.07-2.35,2.41,2.41,0,0,0-.73-1.87,5.4,5.4,0,0,0-2.54-1l-2.69-.56q-5.68-1.17-5.68-5.87a5.19,5.19,0,0,1,2-4.1,7.64,7.64,0,0,1,5.2-1.7,8.17,8.17,0,0,1,5.28,1.6,6.07,6.07,0,0,1,2.27,4.36l-3.48.37c-.26-2.38-1.62-3.56-4.1-3.56a4.32,4.32,0,0,0-2.74.78,2.54,2.54,0,0,0-1,2.11,2.66,2.66,0,0,0,.69,1.94,4.25,4.25,0,0,0,2.24,1l3.14.61a8,8,0,0,1,4.25,1.94,5,5,0,0,1,1.4,3.69,5.78,5.78,0,0,1-2.08,4.53A7.87,7.87,0,0,1,156.15,321.38Z"/><path class="cls-2" d="M177,321h-3.41V300.59H177v8.49h9.45v-8.49h3.42V321h-3.42v-9H177Z"/><path class="cls-2" d="M208.8,321H194.74V300.59h13.77v2.92H198.16v5.73h9.19v2.82h-9.19v6H208.8Z"/><path class="cls-2" d="M227.84,315.82l.3,5.2h-3.42l-.29-5.2a2.45,2.45,0,0,0-.94-1.94,4.5,4.5,0,0,0-2.64-.62H216V321h-3.42V300.59h8.49a7.68,7.68,0,0,1,5.1,1.61,5,5,0,0,1,2,4.09,5.83,5.83,0,0,1-.86,3.13,6.07,6.07,0,0,1-2.41,2.21A4.2,4.2,0,0,1,227.84,315.82Zm-3.17-9.19a2.82,2.82,0,0,0-1-2.29,4.26,4.26,0,0,0-2.82-.85H216v6.95h4.81a3.74,3.74,0,0,0,2.79-1.06A3.69,3.69,0,0,0,224.67,306.63Z"/><path class="cls-2" d="M246.42,321H232.36V300.59h13.78v2.92H235.78v5.73H245v2.82h-9.19v6h10.64Z"/><path class="cls-2" d="M88.56,86.4h14v4.93H98.25v33.36h14.9a2.12,2.12,0,0,0,.91-.21,3.11,3.11,0,0,0,.83-.56,2.67,2.67,0,0,0,.6-.78,1.94,1.94,0,0,0,.23-.9V116.8h5.41v12.79H88.56v-4.9h4.11V91.33H88.56Z"/><path class="cls-2" d="M144.18,130.45a19.74,19.74,0,0,1-8.18-1.67,20.7,20.7,0,0,1-11-12,25.63,25.63,0,0,1-1.51-8.74A24.93,24.93,0,0,1,125,99.22a22.07,22.07,0,0,1,4.27-7.14,20.18,20.18,0,0,1,6.56-4.78,20.94,20.94,0,0,1,16.76,0,20,20,0,0,1,6.56,4.78,21.83,21.83,0,0,1,4.24,7.14,26.14,26.14,0,0,1,0,17.54,22.13,22.13,0,0,1-4.27,7.13,19.71,19.71,0,0,1-14.92,6.56Zm0-5.3a13.37,13.37,0,0,0,6.14-1.4A14.73,14.73,0,0,0,155,120a17.38,17.38,0,0,0,3-5.46,20.9,20.9,0,0,0-.1-13.38,16.13,16.13,0,0,0-3.22-5.57,14.61,14.61,0,0,0-4.8-3.52,13.77,13.77,0,0,0-5.7-1.24,13.44,13.44,0,0,0-6.15,1.4A14.49,14.49,0,0,0,133.32,96a17.22,17.22,0,0,0-3,5.47,20.37,20.37,0,0,0-1.05,6.54,20.1,20.1,0,0,0,1.17,7.1,15.46,15.46,0,0,0,3.09,5.19,16.9,16.9,0,0,0,4.58,3.46A12.89,12.89,0,0,0,144.18,125.15Z"/><path class="cls-2" d="M197.71,86.4h14v4.93h-3.67v38.26h-7.3L180.68,93.78v30.91h4.44v4.9h-14v-4.9h4V91.33H171v-5h11.63l19.71,35.47.23-1.36V91.33h-4.85Z"/><path class="cls-2" d="M250.59,129.76V121.1a14.68,14.68,0,0,1-2.7,3.92,15.2,15.2,0,0,1-3.62,2.75,17.36,17.36,0,0,1-4.26,1.62,19.75,19.75,0,0,1-4.6.54,20.94,20.94,0,0,1-7.78-1.41,17.89,17.89,0,0,1-6.45-4.48,20.93,20.93,0,0,1-4.42-7.3,25.57,25.57,0,0,1-1.52-8.8,24.76,24.76,0,0,1,1.52-8.72A22,22,0,0,1,221,92.07a19.78,19.78,0,0,1,6.55-4.79,19.55,19.55,0,0,1,8.25-1.73,19.35,19.35,0,0,1,7,1.16,19.73,19.73,0,0,1,5,2.84,22.64,22.64,0,0,1,3.35,3.18H254V97.8h-6.12a14.3,14.3,0,0,0-5.06-5.13,14.07,14.07,0,0,0-13.06-.43A14.65,14.65,0,0,0,225.11,96a17.94,17.94,0,0,0-3,5.44,19.49,19.49,0,0,0-1.08,6.5,20.17,20.17,0,0,0,1.2,7,15.81,15.81,0,0,0,3.05,5.27,15.12,15.12,0,0,0,4.57,3.35,13.61,13.61,0,0,0,6,1.32,14.46,14.46,0,0,0,9-2.66q3.51-2.67,4.9-8.31H237.63v-4.9h18.26v20.71Z"/><path class="cls-2" d="M308.32,86.4h14v4.9h-4.11v33.39h4.11v4.9h-14v-4.9h4.33V109.16h-25v15.53H292v4.9H278v-4.9h4.11V91.3H278V86.4h14v4.9h-4.33v13.08h25V91.3h-4.33Z"/><path class="cls-2" d="M333.3,124.69h4.19V93.1l-8.74,4.75V91.9l12-6.73h2.28v39.52h4.24v4.9h-14Z"/><path class="cls-2" d="M398,86.4h14v4.9H408v33.39h4.1v4.9H398v-4.9h4.33V109.16h-25v15.53h4.33v4.9h-14v-4.9h4.11V91.3h-4.11V86.4h14v4.9h-4.33v13.08h25V91.3H398Z"/><path class="cls-2" d="M420.2,86.4h30.94V98.62H445.3V91.33H429.89v13.82h13v4.9h-13v14.64H445.3V117.4h5.84v12.19H420.2v-4.9h4.1V91.33h-4.1Z"/><path class="cls-2" d="M482.4,124.69H486l-3.42-9.8H466l-3.33,9.8h4.44v4.9h-14v-4.9h3.76L470.26,86.4h8.41l13.42,38.29h4.33v4.9h-14Zm-14.82-14.53h13.34l-6.73-19.32Z"/><path class="cls-2" d="M500.78,86.4h16.06a20.39,20.39,0,0,1,10.63,2.93,20.72,20.72,0,0,1,7.4,7.7,21.77,21.77,0,0,1,2,5.14,22.45,22.45,0,0,1,.72,5.71,22.91,22.91,0,0,1-.72,5.79,22.24,22.24,0,0,1-2,5.18,21.23,21.23,0,0,1-3.21,4.4,20.29,20.29,0,0,1-9.17,5.57,20.13,20.13,0,0,1-5.65.77H500.78v-4.9h4.1V91.33h-4.1Zm9.68,4.93v33.36h6.73a12.35,12.35,0,0,0,5.62-1.31,14.76,14.76,0,0,0,4.61-3.57,17.21,17.21,0,0,0,3.1-5.33,18.76,18.76,0,0,0,1.14-6.6,18.23,18.23,0,0,0-1.14-6.49,16.86,16.86,0,0,0-3.1-5.26,14.75,14.75,0,0,0-4.61-3.52,12.72,12.72,0,0,0-5.62-1.28Z"/><path class="cls-2" d="M543.71,86.4H557.5v4.93h-4.1v33.36h4.1v4.9H543.71v-4.9h4.1V91.33h-4.1Z"/><path class="cls-2" d="M592.38,86.4h14v4.93h-3.67v38.26h-7.3L575.34,93.78v30.91h4.44v4.9h-14v-4.9h4V91.33h-4.1v-5h11.63L597,121.81l.23-1.36V91.33h-4.84Z"/><path class="cls-2" d="M645.25,129.76V121.1a14.68,14.68,0,0,1-2.7,3.92,15.2,15.2,0,0,1-3.62,2.75,17.36,17.36,0,0,1-4.26,1.62,19.75,19.75,0,0,1-4.6.54,21,21,0,0,1-7.78-1.41,17.89,17.89,0,0,1-6.45-4.48,20.93,20.93,0,0,1-4.42-7.3,25.57,25.57,0,0,1-1.52-8.8,24.76,24.76,0,0,1,1.52-8.72,22,22,0,0,1,4.28-7.15,19.78,19.78,0,0,1,6.55-4.79,19.55,19.55,0,0,1,8.25-1.73,19.35,19.35,0,0,1,7,1.16,19.73,19.73,0,0,1,5,2.84,22.64,22.64,0,0,1,3.35,3.18h2.76V97.8h-6.12a14.3,14.3,0,0,0-5.06-5.13,14.07,14.07,0,0,0-13.06-.43A14.65,14.65,0,0,0,619.77,96a17.94,17.94,0,0,0-3,5.44,19.49,19.49,0,0,0-1.08,6.5,20.17,20.17,0,0,0,1.2,7,15.81,15.81,0,0,0,3,5.27,15.12,15.12,0,0,0,4.57,3.35,13.61,13.61,0,0,0,6,1.32,14.46,14.46,0,0,0,9-2.66q3.51-2.67,4.9-8.31H632.29v-4.9h18.26v20.71Z"/><path class="cls-2" d="M121.9,199.78v-8.66a14.48,14.48,0,0,1-2.71,3.92,15,15,0,0,1-3.62,2.75,17.14,17.14,0,0,1-4.25,1.62,19.89,19.89,0,0,1-4.61.54,20.89,20.89,0,0,1-7.77-1.41,17.84,17.84,0,0,1-6.46-4.48,20.76,20.76,0,0,1-4.41-7.3,25.58,25.58,0,0,1-1.53-8.8,24.76,24.76,0,0,1,1.53-8.72,21.94,21.94,0,0,1,4.27-7.15,19.62,19.62,0,0,1,14.8-6.52,19.28,19.28,0,0,1,7,1.16,19.8,19.8,0,0,1,5,2.84,22.52,22.52,0,0,1,3.34,3.18h2.77v5.07h-6.13a14.22,14.22,0,0,0-5.06-5.13,14.07,14.07,0,0,0-13.06-.43A14.76,14.76,0,0,0,96.41,166a17.71,17.71,0,0,0-3,5.44A19.49,19.49,0,0,0,92.3,178a20.4,20.4,0,0,0,1.19,7,16,16,0,0,0,3.05,5.27,15.16,15.16,0,0,0,4.58,3.35,13.59,13.59,0,0,0,6,1.32,14.47,14.47,0,0,0,9-2.66q3.5-2.67,4.9-8.31H108.94v-4.9H127.2v20.71Z"/><path class="cls-2" d="M155.21,200.47A19.71,19.71,0,0,1,147,198.8a20.76,20.76,0,0,1-11-12,25.87,25.87,0,0,1-1.51-8.74,24.94,24.94,0,0,1,1.53-8.78,21.9,21.9,0,0,1,4.27-7.14,20.14,20.14,0,0,1,6.55-4.78,20.19,20.19,0,0,1,23.32,4.78,21.85,21.85,0,0,1,4.25,7.14,25.16,25.16,0,0,1,1.51,8.78,24.82,24.82,0,0,1-1.53,8.76,22,22,0,0,1-4.27,7.13,19.66,19.66,0,0,1-14.91,6.56Zm0-5.3a13.4,13.4,0,0,0,6.14-1.4A14.58,14.58,0,0,0,166,190a17.19,17.19,0,0,0,3-5.46,20.07,20.07,0,0,0,1.06-6.55,20.5,20.5,0,0,0-1.16-6.83,16.11,16.11,0,0,0-3.21-5.57,14.55,14.55,0,0,0-4.81-3.52,13.72,13.72,0,0,0-5.69-1.24,13.48,13.48,0,0,0-6.16,1.4,14.45,14.45,0,0,0-4.7,3.75,17,17,0,0,0-3,5.47A20.37,20.37,0,0,0,140.3,178a20.1,20.1,0,0,0,1.17,7.1,15.46,15.46,0,0,0,3.09,5.19,17.11,17.11,0,0,0,4.59,3.46A12.89,12.89,0,0,0,155.21,195.17Z"/><path class="cls-2" d="M182,156.42H213v12.22h-5.84v-7.29H191.7v13.82h13v4.9h-13v14.64h15.42v-7.29H213v12.19H182v-4.9h4.1V161.35H182Z"/><path class="cls-2" d="M239.88,164.4a7.15,7.15,0,0,0-2-1.93,9.53,9.53,0,0,0-2.4-1,9.92,9.92,0,0,0-2.63-.36,13.09,13.09,0,0,0-3.79.5,8.17,8.17,0,0,0-2.69,1.35,5.68,5.68,0,0,0-1.61,2,5.53,5.53,0,0,0-.54,2.39,6,6,0,0,0,.67,3,5.61,5.61,0,0,0,1.7,1.85,9.11,9.11,0,0,0,2.26,1.1c.83.26,1.62.53,2.38.79L237,176a28,28,0,0,1,4.57,1.88,12.8,12.8,0,0,1,3.32,2.5,9.74,9.74,0,0,1,2,3.32,12.35,12.35,0,0,1,.7,4.36,11.28,11.28,0,0,1-1.09,4.95,12.16,12.16,0,0,1-3.07,4,14.61,14.61,0,0,1-4.68,2.64,18.14,18.14,0,0,1-6,1,19,19,0,0,1-5.7-.75,12.46,12.46,0,0,1-4-2,10.2,10.2,0,0,1-2.58-2.89,15.48,15.48,0,0,1-1.51-3.33h-2.17v-4.9H224a10.56,10.56,0,0,0,.67,4.47,6.05,6.05,0,0,0,1.87,2.18,8.32,8.32,0,0,0,2.85,1.31,13.81,13.81,0,0,0,3.64.44,12.51,12.51,0,0,0,3.49-.45,7.76,7.76,0,0,0,2.65-1.33,5.88,5.88,0,0,0,1.68-2.1,6.54,6.54,0,0,0,.59-2.81,5.68,5.68,0,0,0-.73-3,7.11,7.11,0,0,0-1.87-2.07,10.82,10.82,0,0,0-2.49-1.39c-.9-.36-1.77-.68-2.6-.94l-6.25-1.77a18.87,18.87,0,0,1-3.74-1.59,11.28,11.28,0,0,1-2.91-2.37A9.8,9.8,0,0,1,219,172a12.9,12.9,0,0,1-.66-4.32,11.15,11.15,0,0,1,1-4.64,10.78,10.78,0,0,1,2.85-3.79,13.79,13.79,0,0,1,4.6-2.55,19.21,19.21,0,0,1,6.23-.93,16,16,0,0,1,4.26.54,13.71,13.71,0,0,1,3.53,1.53,12.39,12.39,0,0,1,2.79,2.36,14.44,14.44,0,0,1,2,3h2.13v4.9h-7A6.36,6.36,0,0,0,239.88,164.4Z"/><path class="cls-2" d="M296.24,156.42h14v4.9h-4.1v33.39h4.1v4.9h-14v-4.9h4.33V179.18h-25v15.53h4.33v4.9h-14v-4.9H270V161.32h-4.11v-4.9h14v4.9h-4.33V174.4h25V161.32h-4.33Z"/><path class="cls-2" d="M318.4,156.42h30.94v12.22H343.5v-7.29H328.09v13.82h13v4.9h-13v14.64H343.5v-7.29h5.84v12.19H318.4v-4.9h4.11V161.35H318.4Z"/><path class="cls-2" d="M355,156.42h18a17.61,17.61,0,0,1,5.31.76,12.15,12.15,0,0,1,4.22,2.22,10.13,10.13,0,0,1,2.78,3.66,12.12,12.12,0,0,1,1,5,9.24,9.24,0,0,1-.59,3.21,11.21,11.21,0,0,1-1.62,2.93,12.28,12.28,0,0,1-2.47,2.41,11.32,11.32,0,0,1-3.1,1.62,6.78,6.78,0,0,1,1.44.9,8.45,8.45,0,0,1,1.37,1.42,12.58,12.58,0,0,1,1.16,1.91,11.44,11.44,0,0,1,.84,2.3l2.4,9.4h3.73l.06,5.41h-8.41l-3.22-13.13a10.26,10.26,0,0,0-2.69-5.2,7,7,0,0,0-4.94-1.67h-5.56v15.1h4.33v4.9H355v-4.9h4.11V161.35H355Zm9.69,4.93v13.59H373a9.71,9.71,0,0,0,3-.43,6.36,6.36,0,0,0,2.33-1.28,5.89,5.89,0,0,0,1.54-2.12,7.32,7.32,0,0,0,.56-3,6.52,6.52,0,0,0-1.94-5q-1.94-1.78-6.15-1.79Z"/><path class="cls-2" d="M396.58,156.42h30.95v12.22h-5.85v-7.29H406.27v13.82h13v4.9h-13v14.64h15.41v-7.29h5.85v12.19H396.58v-4.9h4.11V161.35h-4.11Z"/><rect class="cls-2" x="86.53" y="240.65" width="43.2" height="4.32"/><path class="cls-2" d="M98.9,461.92l-9.08,11.14h9.32v1.67H87.53v-1.58l9.16-11.25H88v-1.67H98.9Z"/><path class="cls-2" d="M108.19,473.45a3.7,3.7,0,0,0,4-3.34l1.9.3a5,5,0,0,1-1.91,3.42,6.33,6.33,0,0,1-4,1.26,6.52,6.52,0,0,1-5.11-2,8.23,8.23,0,0,1-1.76-5.66,8,8,0,0,1,1.84-5.52,6.33,6.33,0,0,1,5-2.06,5.89,5.89,0,0,1,4.58,1.78,7.22,7.22,0,0,1,1.62,5v1.23H103.37Q103.54,473.45,108.19,473.45Zm-.1-11.94a4.31,4.31,0,0,0-3.23,1.21,5.77,5.77,0,0,0-1.43,3.55h8.77Q112,461.52,108.09,461.51Z"/><path class="cls-2" d="M123.93,473.45a3.7,3.7,0,0,0,4-3.34l1.9.3a5,5,0,0,1-1.91,3.42,6.33,6.33,0,0,1-4,1.26,6.54,6.54,0,0,1-5.11-2,8.23,8.23,0,0,1-1.76-5.66A8,8,0,0,1,118.9,462a6.35,6.35,0,0,1,5-2.06,5.86,5.86,0,0,1,4.57,1.78,7.22,7.22,0,0,1,1.62,5v1.23H119.11C119.23,471.6,120.83,473.45,123.93,473.45Zm-.1-11.94a4.31,4.31,0,0,0-3.23,1.21,5.77,5.77,0,0,0-1.43,3.55h8.77Q127.73,461.52,123.83,461.51Z"/><path class="cls-2" d="M139.67,473.45a3.71,3.71,0,0,0,4-3.34l1.89.3a5,5,0,0,1-1.91,3.42,6.33,6.33,0,0,1-4,1.26,6.54,6.54,0,0,1-5.11-2,8.23,8.23,0,0,1-1.76-5.66,8,8,0,0,1,1.84-5.52,6.36,6.36,0,0,1,5-2.06,5.86,5.86,0,0,1,4.57,1.78,7.22,7.22,0,0,1,1.62,5v1.23H134.85C135,471.6,136.57,473.45,139.67,473.45Zm-.1-11.94a4.31,4.31,0,0,0-3.23,1.21,5.77,5.77,0,0,0-1.43,3.55h8.78Q143.46,461.52,139.57,461.51Z"/><path class="cls-2" d="M161.59,465.34v9.39h-2v-9a4.34,4.34,0,0,0-1-3,3.65,3.65,0,0,0-2.81-1.07,3.94,3.94,0,0,0-3.22,1.33,5.93,5.93,0,0,0-1.1,3.87v7.91h-2v-14.5h2v1.92a5.16,5.16,0,0,1,4.65-2.26,5,5,0,0,1,5.45,5.45Z"/><path class="cls-2" d="M165.78,471.9h2.69v2.83h-2.69Z"/><path class="cls-2" d="M174.83,457.64h-2V454.3h2Zm0,17.09h-2v-14.5h2Z"/><path class="cls-2" d="M181.46,474.73h-2v-14.5h2v2.83a4.59,4.59,0,0,1,4.32-2.83h1.08v1.92h-1.08a3.62,3.62,0,0,0-3.12,1.78,8.14,8.14,0,0,0-1.2,4.65Z"/><polygon class="cls-2" points="894.4 388.33 894.4 394.73 911.53 394.73 891.12 426.73 920 426.73 920 420.33 902.79 420.33 923.2 388.33 894.4 388.33"/><polygon class="cls-2" points="929.68 426.73 955.2 426.73 955.2 420.33 936.07 420.33 936.05 410.73 955.2 410.73 955.2 404.33 936.03 404.33 936.01 394.73 955.2 394.73 955.2 388.33 929.59 388.33 929.68 426.73"/><polygon class="cls-2" points="990.4 420.33 971.2 420.33 971.2 410.73 990.4 410.73 990.4 404.33 971.2 404.33 971.2 394.73 990.4 394.73 990.4 388.33 964.8 388.33 964.8 426.73 990.4 426.73 990.4 420.33"/><polygon class="cls-2" points="929.6 474.73 955.2 474.73 955.2 468.33 936 468.33 936 458.73 955.2 458.73 955.2 452.33 936 452.33 936 442.73 955.2 442.73 955.2 436.33 929.6 436.33 929.6 474.73"/><polygon class="cls-2" points="987.2 436.33 987.2 462.26 970.93 436.33 964.8 436.33 964.8 474.73 971.2 474.73 971.2 448.8 987.47 474.73 993.6 474.73 993.6 436.33 987.2 436.33"/><rect class="cls-3" y="85.87" width="1080" height="1"/><rect class="cls-4" y="993.13" width="1080" height="1"/><rect class="cls-5" x="993.13" width="1" height="1080"/><rect class="cls-6" x="85.87" width="1" height="1080"/><rect class="cls-7" y="199.95" width="86.37" height="21.59"/><rect class="cls-7" y="264.72" width="86.37" height="21.59"/><rect class="cls-7" x="-3.86" y="232.35" width="94.13" height="21.59" transform="translate(-144.68 82.87) rotate(-39.46)"/><rect class="cls-7" width="86.37" height="21.59"/><rect class="cls-7" y="64.78" width="86.37" height="21.59"/><rect class="cls-7" x="-3.86" y="32.41" width="94.13" height="21.59" transform="translate(-17.61 37.3) rotate(-39.46)"/><rect class="cls-7" x="994" width="86.37" height="21.59"/><rect class="cls-7" x="994" y="64.78" width="86.37" height="21.59"/><rect class="cls-7" x="990.14" y="32.41" width="94.13" height="21.59" transform="translate(208.92 668.98) rotate(-39.46)"/><rect class="cls-7" y="993.6" width="86.37" height="21.59"/><rect class="cls-7" y="1058.38" width="86.37" height="21.59"/><rect class="cls-7" x="-3.86" y="1026.01" width="94.13" height="21.59" transform="translate(-649.04 263.74) rotate(-39.46)"/><rect class="cls-7" x="994" y="993.6" width="86.37" height="21.59"/><rect class="cls-7" x="994" y="1058.38" width="86.37" height="21.59"/><rect class="cls-7" x="990.14" y="1026.01" width="94.13" height="21.59" transform="translate(-422.51 895.42) rotate(-39.46)"/><rect class="cls-8" y="285.82" width="1080" height="1"/><rect class="cls-9" y="474.59" width="1080" height="1"/><rect class="cls-10" y="199.43" width="1080" height="1"/><rect class="cls-11" y="242.65" width="1080" height="1"/></g></svg>