<svg xmlns="http://www.w3.org/2000/svg" viewBox="0 0 1080 1080"><defs><style>.cls-1{fill:#e2e0de;}.cls-2{fill:none;stroke:#000;stroke-miterlimit:10;stroke-width:4.32px;}.cls-3{font-size:29.17px;font-family:Approach-Light, Approach;font-weight:300;}</style></defs><g id="Background"><rect class="cls-1" width="1080" height="1080"/></g><g id="Graphic"><line class="cls-2" x1="86.53" y1="242.81" x2="129.73" y2="242.81"/><text class="cls-3" transform="translate(86.53 408.84)">Lorem ipsum dolor sit amet, consectetuer adipiscing elit, sed diam <tspan x="0" y="35.01">nonummy nibh euismod tincidunt ut laoreet dolore magna aliquam </tspan><tspan x="0" y="70.02">erat volutpat. Ut wisi enim ad minim veniam, quis nostrud exerci tation </tspan><tspan x="0" y="105.03">ullamcorper suscipit lobortis nisl ut aliquip ex ea commodo consequat. </tspan><tspan x="0" y="140.04">Duis autem vel eum iriure dolor in hendrerit in vulputate velit esse </tspan><tspan x="0" y="175.05">molestie consequat, vel illum dolore eu feugiat nulla facilisis at vero </tspan><tspan x="0" y="210.06">eros et accumsan et iusto odio dignissim qui blandit praesent luptatum </tspan><tspan x="0" y="245.07">zzril delenit augue duis dolore te feugait nulla .</tspan><tspan x="0" y="280.08">Lorem ipsum dolor sit amet, consectetuer adipiscing elit, sed diam </tspan><tspan x="0" y="315.09">nonummy nibh euismod tincidunt ut laoreet dolore magna aliquam </tspan><tspan x="0" y="350.1">erat volutpat. Ut wisi enim ad minim veniam, quis nostrud exerci tation </tspan><tspan x="0" y="385.11">ullamcorper suscipit lobortis nisl ut aliquip ex ea commodo consequat. </tspan><tspan x="0" y="420.12">Duis autem vel eum iriure dolor in hendrerit in vulputate velit esse </tspan><tspan x="0" y="455.13">molestie consequat, vel illum dolore eu feugiat nulla facilisis at vero </tspan><tspan x="0" y="490.14">eros et accumsan et iusto odio dignissim qui blandit praesent luptatum </tspan><tspan x="0" y="525.15">zzril delenit augue duis dolore te feugait nulla </tspan></text><path d="M103,287.19H89V266.76h13.78v2.93H92.37v5.72h9.19v2.82H92.37v6H103Z"/><path d="M110.07,287.19H106.8V266.76h3.76l9.11,14.39V266.76h3.27v20.43h-3l-9.9-15.61Z"/><path d="M136.65,287.55a9.51,9.51,0,0,1-7.21-2.89,12,12,0,0,1,.06-15.32,9.7,9.7,0,0,1,7.4-2.92,10,10,0,0,1,5.94,1.69,8.15,8.15,0,0,1,3.17,4.78l-3.36.58a5.5,5.5,0,0,0-5.75-4.1,6.16,6.16,0,0,0-4.9,2.05,8.31,8.31,0,0,0-1.78,5.64,8,8,0,0,0,1.84,5.46,6.24,6.24,0,0,0,4.87,2.08,6.55,6.55,0,0,0,4.4-1.44,4.57,4.57,0,0,0,1.73-3.62v-.7h-5.9v-2.7h9v11.05h-3.09v-2.53a7,7,0,0,1-2.74,2.14A8.9,8.9,0,0,1,136.65,287.55Z"/><path d="M163.3,287.19H150.38V266.76h3.42v17.48h9.5Z"/><path d="M169.67,287.19h-3.42V266.76h3.42Z"/><path d="M181.54,287.55a9.33,9.33,0,0,1-6-1.78,6.06,6.06,0,0,1-2.27-4.9l3.41-.39a4.28,4.28,0,0,0,1.34,3.19,5.18,5.18,0,0,0,3.54,1.1,4.46,4.46,0,0,0,2.9-.87,2.93,2.93,0,0,0,1.06-2.36,2.41,2.41,0,0,0-.73-1.87,5.4,5.4,0,0,0-2.54-1l-2.69-.56q-5.68-1.17-5.68-5.87a5.19,5.19,0,0,1,2-4.1,7.64,7.64,0,0,1,5.2-1.7,8.17,8.17,0,0,1,5.28,1.6,6.09,6.09,0,0,1,2.27,4.36l-3.48.37c-.25-2.38-1.62-3.56-4.1-3.56a4.32,4.32,0,0,0-2.74.78,2.54,2.54,0,0,0-1,2.11A2.66,2.66,0,0,0,178,274a4.29,4.29,0,0,0,2.24,1l3.14.61a8,8,0,0,1,4.25,1.94,5,5,0,0,1,1.4,3.69,5.78,5.78,0,0,1-2.08,4.53A7.87,7.87,0,0,1,181.54,287.55Z"/><path d="M196.11,287.19h-3.42V266.76h3.42v8.49h9.44v-8.49H209v20.43h-3.42v-9h-9.44Z"/><path d="M223.55,287.19h-3.42V266.76h3.42v8.49H233v-8.49h3.42v20.43H233v-9h-9.44Z"/><path d="M250.7,272.38a2.88,2.88,0,0,0-.87-2.19,3.18,3.18,0,0,0-2.29-.82,3.54,3.54,0,0,0-3,1.33,5.81,5.81,0,0,0-.85,3.86l-3.32-.44a7.06,7.06,0,0,1,1.81-5.63,7.22,7.22,0,0,1,5.41-2.07,6.88,6.88,0,0,1,4.79,1.64,5.4,5.4,0,0,1,1.78,4.22A7.35,7.35,0,0,1,253.1,276a16.89,16.89,0,0,1-3.4,3.94l-4.87,4.34h9.94v2.89H240.3v-2.86l7.26-6.5a11.22,11.22,0,0,0,2.41-2.77A5.27,5.27,0,0,0,250.7,272.38Z"/><path d="M264.82,280.65h-7.65v-2.82h7.65Z"/><path d="M272.48,287.19h-3.42V266.76h3.42v8.49h9.45v-8.49h3.41v20.43h-3.41v-9h-9.45Z"/><path d="M304.23,287.19H290.17V266.76H304v2.93H293.59v5.72h9.19v2.82h-9.19v6h10.64Z"/><path d="M319.75,282.68h-8.64l-1.66,4.51H306l7.7-20.43h3.7l7.65,20.43h-3.67Zm-7.58-2.84h6.57l-3.25-9Z"/><path d="M336.23,287.19h-8.32V266.76h8.32a10.07,10.07,0,0,1,7.38,2.7,9.6,9.6,0,0,1,2.73,7.23,10.56,10.56,0,0,1-2.76,7.61A9.68,9.68,0,0,1,336.23,287.19Zm6.65-10.5a7,7,0,0,0-1.81-5.08,6.39,6.39,0,0,0-4.84-1.9h-4.9v14.53h4.9a6.09,6.09,0,0,0,4.84-2.06A8,8,0,0,0,342.88,276.69Z"/><path d="M353.58,287.19h-3.42V266.76h3.42Z"/><path d="M361.67,287.19h-3.26V266.76h3.76l9.1,14.39V266.76h3.28v20.43h-3l-9.9-15.61Z"/><path d="M388.25,287.55a9.49,9.49,0,0,1-7.2-2.89,12.06,12.06,0,0,1,.05-15.32,9.74,9.74,0,0,1,7.41-2.92,10,10,0,0,1,5.93,1.69,8.1,8.1,0,0,1,3.17,4.78l-3.36.58a5.49,5.49,0,0,0-5.74-4.1,6.18,6.18,0,0,0-4.91,2.05,8.36,8.36,0,0,0-1.77,5.64,8,8,0,0,0,1.84,5.46,6.22,6.22,0,0,0,4.87,2.08,6.57,6.57,0,0,0,4.4-1.44,4.57,4.57,0,0,0,1.73-3.62v-.7h-5.9v-2.7h9v11.05h-3.09v-2.53A7,7,0,0,1,392,286.8,8.94,8.94,0,0,1,388.25,287.55Z"/><path d="M97.83,322.56a9.51,9.51,0,0,1-7.21-2.89,12,12,0,0,1,.06-15.32,9.71,9.71,0,0,1,7.41-2.92,10,10,0,0,1,5.93,1.69,8.15,8.15,0,0,1,3.17,4.78l-3.36.58a5.5,5.5,0,0,0-5.74-4.1,6.14,6.14,0,0,0-4.91,2.05,8.36,8.36,0,0,0-1.78,5.64,8,8,0,0,0,1.84,5.46,6.24,6.24,0,0,0,4.87,2.08,6.58,6.58,0,0,0,4.41-1.44,4.59,4.59,0,0,0,1.72-3.62v-.7h-5.9v-2.7h9V322.2h-3.09v-2.53a7,7,0,0,1-2.74,2.14A8.9,8.9,0,0,1,97.83,322.56Z"/><path d="M130.18,312a10.88,10.88,0,0,1-2.69,7.68,10.31,10.31,0,0,1-14.32,0,12.35,12.35,0,0,1,0-15.35,10.28,10.28,0,0,1,14.29,0A10.77,10.77,0,0,1,130.18,312Zm-14.48-5.57a10,10,0,0,0,0,11.15,6.33,6.33,0,0,0,9.31,0,10,10,0,0,0,0-11.15,6.33,6.33,0,0,0-9.31,0Z"/><path d="M148,322.2H134V301.77h13.78v2.92H137.4v5.73h9.19v2.82H137.4v6H148Z"/><path d="M158.87,322.56a9.3,9.3,0,0,1-6-1.78,6.1,6.1,0,0,1-2.28-4.9l3.42-.39a4.24,4.24,0,0,0,1.34,3.19,5.13,5.13,0,0,0,3.53,1.1,4.39,4.39,0,0,0,2.9-.88,2.87,2.87,0,0,0,1.06-2.35,2.38,2.38,0,0,0-.73-1.87,5.35,5.35,0,0,0-2.53-1l-2.69-.56q-5.69-1.17-5.69-5.87a5.19,5.19,0,0,1,2-4.1,7.66,7.66,0,0,1,5.2-1.7,8.18,8.18,0,0,1,5.29,1.6,6.06,6.06,0,0,1,2.26,4.36l-3.47.37c-.26-2.38-1.63-3.56-4.11-3.56a4.33,4.33,0,0,0-2.74.78,2.54,2.54,0,0,0-1,2.11,2.62,2.62,0,0,0,.7,1.94,4.21,4.21,0,0,0,2.24,1l3.13.61a8,8,0,0,1,4.26,1.94,5,5,0,0,1,1.4,3.69,5.82,5.82,0,0,1-2.08,4.53A7.89,7.89,0,0,1,158.87,322.56Z"/><path d="M179.77,322.2h-3.42V301.77h3.42v8.49h9.44v-8.49h3.42V322.2h-3.42v-9h-9.44Z"/><path d="M211.52,322.2H197.46V301.77h13.78v2.92H200.88v5.73h9.19v2.82h-9.19v6h10.64Z"/><path d="M230.57,317l.3,5.2h-3.42l-.3-5.2a2.47,2.47,0,0,0-.93-1.94,4.56,4.56,0,0,0-2.65-.62h-4.84v7.76h-3.42V301.77h8.49a7.66,7.66,0,0,1,5.1,1.61,5,5,0,0,1,2,4.09,5.92,5.92,0,0,1-.86,3.13,6,6,0,0,1-2.42,2.21A4.21,4.21,0,0,1,230.57,317Zm-3.18-9.19a2.84,2.84,0,0,0-1-2.29,4.29,4.29,0,0,0-2.82-.85h-4.82v6.95h4.82a3.62,3.62,0,0,0,3.84-3.81Z"/><path d="M249.15,322.2H235.09V301.77h13.77v2.92H238.5v5.73h9.19v2.82H238.5v6h10.65Z"/><path d="M90.61,87.58h14v4.93h-4.33v33.36h14.9a2.2,2.2,0,0,0,.92-.21,3.06,3.06,0,0,0,.82-.56,2.67,2.67,0,0,0,.6-.78,1.94,1.94,0,0,0,.23-.9V118h5.41v12.79H90.61v-4.9h4.1V92.51h-4.1Z"/><path d="M146.22,131.63A19.74,19.74,0,0,1,138,130a20.87,20.87,0,0,1-6.61-4.74,20.61,20.61,0,0,1-4.41-7.3,25.63,25.63,0,0,1-1.51-8.74A25.16,25.16,0,0,1,127,100.4a21.92,21.92,0,0,1,4.28-7.14,20,20,0,0,1,6.55-4.78,21,21,0,0,1,16.77,0,19.93,19.93,0,0,1,6.55,4.78,21.83,21.83,0,0,1,4.24,7.14,25.16,25.16,0,0,1,1.51,8.78,24.82,24.82,0,0,1-1.52,8.76,22.13,22.13,0,0,1-4.27,7.13,19.71,19.71,0,0,1-14.92,6.56Zm0-5.3a13.37,13.37,0,0,0,6.14-1.4,14.62,14.62,0,0,0,4.69-3.74,17.19,17.19,0,0,0,3-5.46,20.9,20.9,0,0,0-.1-13.38,16.13,16.13,0,0,0-3.22-5.57,14.61,14.61,0,0,0-4.8-3.52,13.74,13.74,0,0,0-5.7-1.24,13.44,13.44,0,0,0-6.15,1.4,14.34,14.34,0,0,0-4.7,3.75,16.83,16.83,0,0,0-3,5.47,21.45,21.45,0,0,0,.11,13.65,15.51,15.51,0,0,0,3.09,5.18,16.8,16.8,0,0,0,4.59,3.46A12.82,12.82,0,0,0,146.22,126.33Z"/><path d="M199.76,87.58h14v4.93H210.1v38.26h-7.29L182.72,95v30.91h4.44v4.9h-14v-4.9h4V92.51H173v-5h11.63L204.37,123l.23-1.36V92.51h-4.84Z"/><path d="M252.64,130.94v-8.66a14.78,14.78,0,0,1-6.33,6.67,17.36,17.36,0,0,1-4.26,1.62,19.75,19.75,0,0,1-4.6.54,21,21,0,0,1-7.78-1.41,17.89,17.89,0,0,1-6.45-4.48,20.93,20.93,0,0,1-4.42-7.3,25.81,25.81,0,0,1-1.52-8.8,25,25,0,0,1,1.52-8.72,22,22,0,0,1,4.28-7.15,19.62,19.62,0,0,1,14.8-6.52,19.35,19.35,0,0,1,7.05,1.16,19.56,19.56,0,0,1,5,2.84,22.64,22.64,0,0,1,3.35,3.18h2.76V99H250a14.22,14.22,0,0,0-5.06-5.13,14.07,14.07,0,0,0-13.06-.43,14.65,14.65,0,0,0-4.69,3.76,17.71,17.71,0,0,0-3,5.44,19.24,19.24,0,0,0-1.09,6.5,20.17,20.17,0,0,0,1.2,7,15.81,15.81,0,0,0,3.05,5.27,15.12,15.12,0,0,0,4.57,3.35,13.64,13.64,0,0,0,6,1.32,14.44,14.44,0,0,0,9-2.66q3.51-2.67,4.9-8.31H239.67v-4.9h18.27v20.71Z"/><path d="M310.36,87.58h14v4.9h-4.11v33.39h4.11v4.9h-14v-4.9h4.33V110.34h-25v15.53H294v4.9H280v-4.9h4.1V92.48H280v-4.9h14v4.9H289.7v13.08h25V92.48h-4.33Z"/><path d="M335.35,125.87h4.18V94.28L330.79,99v-6l12-6.73h2.28v39.52h4.25v4.9h-14Z"/><path d="M400.08,87.58h14v4.9H410v33.39h4.11v4.9h-14v-4.9h4.33V110.34h-25v15.53h4.33v4.9h-14v-4.9h4.11V92.48h-4.11v-4.9h14v4.9h-4.33v13.08h25V92.48h-4.33Z"/><path d="M422.24,87.58h30.95V99.8h-5.85V92.51H431.93v13.82h13v4.9h-13v14.64h15.41v-7.29h5.85v12.19H422.24v-4.9h4.11V92.51h-4.11Z"/><path d="M484.44,125.87H488l-3.42-9.8H468l-3.33,9.8h4.44v4.9h-14v-4.9h3.77L472.3,87.58h8.41l13.42,38.29h4.33v4.9h-14Zm-14.82-14.53H483L476.23,92Z"/><path d="M502.82,87.58h16.07a20.39,20.39,0,0,1,10.62,2.93,20.84,20.84,0,0,1,4.19,3.35,20.56,20.56,0,0,1,3.21,4.35,21.77,21.77,0,0,1,2,5.14,22.45,22.45,0,0,1,.72,5.71,22.91,22.91,0,0,1-.72,5.79,22.24,22.24,0,0,1-2,5.18,20.87,20.87,0,0,1-3.21,4.4,20.35,20.35,0,0,1-4.19,3.39,20.16,20.16,0,0,1-10.62,3H502.82v-4.9h4.1V92.51h-4.1Zm9.68,4.93v33.36h6.73a12.42,12.42,0,0,0,5.63-1.31,14.72,14.72,0,0,0,4.6-3.57,17.21,17.21,0,0,0,3.1-5.33,18.76,18.76,0,0,0,1.14-6.6,18.23,18.23,0,0,0-1.14-6.49,16.86,16.86,0,0,0-3.1-5.26,14.71,14.71,0,0,0-4.6-3.52,12.79,12.79,0,0,0-5.63-1.28Z"/><path d="M545.75,87.58h13.79v4.93h-4.1v33.36h4.1v4.9H545.75v-4.9h4.11V92.51h-4.11Z"/><path d="M594.42,87.58h14v4.93h-3.67v38.26h-7.29L577.38,95v30.91h4.44v4.9h-14v-4.9h4V92.51h-4.1v-5h11.63L599,123l.23-1.36V92.51h-4.84Z"/><path d="M647.3,130.94v-8.66A14.78,14.78,0,0,1,641,129a17.36,17.36,0,0,1-4.26,1.62,19.75,19.75,0,0,1-4.6.54,21,21,0,0,1-7.78-1.41,17.89,17.89,0,0,1-6.45-4.48,20.93,20.93,0,0,1-4.42-7.3,25.81,25.81,0,0,1-1.52-8.8,25,25,0,0,1,1.52-8.72,22,22,0,0,1,4.28-7.15,19.62,19.62,0,0,1,14.8-6.52,19.35,19.35,0,0,1,7.05,1.16,19.56,19.56,0,0,1,5,2.84A22.64,22.64,0,0,1,648,93.91h2.76V99h-6.12a14.22,14.22,0,0,0-5.06-5.13,14.07,14.07,0,0,0-13.06-.43,14.65,14.65,0,0,0-4.69,3.76,17.71,17.71,0,0,0-3,5.44,19.24,19.24,0,0,0-1.09,6.5,20.17,20.17,0,0,0,1.2,7,15.81,15.81,0,0,0,3.05,5.27,15.12,15.12,0,0,0,4.57,3.35,13.64,13.64,0,0,0,6,1.32,14.44,14.44,0,0,0,9-2.66q3.51-2.67,4.9-8.31H634.33v-4.9H652.6v20.71Z"/><path d="M123.94,201V192.3a14.48,14.48,0,0,1-2.71,3.92,15,15,0,0,1-3.61,2.75,17.36,17.36,0,0,1-4.26,1.62,19.81,19.81,0,0,1-4.6.54,20.91,20.91,0,0,1-7.78-1.41,17.84,17.84,0,0,1-6.46-4.48,20.9,20.9,0,0,1-4.41-7.3,25.58,25.58,0,0,1-1.53-8.8,24.76,24.76,0,0,1,1.53-8.72,21.94,21.94,0,0,1,4.27-7.15,19.62,19.62,0,0,1,14.8-6.52,19.28,19.28,0,0,1,7,1.16,19.8,19.8,0,0,1,5,2.84,22.52,22.52,0,0,1,3.34,3.18h2.77V169h-6.13a14.28,14.28,0,0,0-5.05-5.13,14.09,14.09,0,0,0-13.07-.43,14.72,14.72,0,0,0-4.68,3.76,17.53,17.53,0,0,0-3,5.44,19.49,19.49,0,0,0-1.08,6.5,20.17,20.17,0,0,0,1.2,7,15.79,15.79,0,0,0,3,5.27,15.16,15.16,0,0,0,4.58,3.35,13.59,13.59,0,0,0,6,1.32,14.47,14.47,0,0,0,9-2.66q3.5-2.67,4.9-8.31H111v-4.9h18.26V201Z"/><path d="M157.25,201.65a19.74,19.74,0,0,1-8.18-1.67,20.76,20.76,0,0,1-11-12,25.87,25.87,0,0,1-1.51-8.74,24.94,24.94,0,0,1,1.53-8.78,21.9,21.9,0,0,1,4.27-7.14,20.18,20.18,0,0,1,6.56-4.78,20.94,20.94,0,0,1,16.76,0,20,20,0,0,1,6.56,4.78,22,22,0,0,1,4.24,7.14,26.14,26.14,0,0,1,0,17.54,22,22,0,0,1-4.28,7.13,19.66,19.66,0,0,1-14.91,6.56Zm0-5.3a13.4,13.4,0,0,0,6.14-1.4,14.58,14.58,0,0,0,4.68-3.74,17.21,17.21,0,0,0,3-5.46,20.9,20.9,0,0,0-.1-13.38,16.29,16.29,0,0,0-3.22-5.57,14.61,14.61,0,0,0-4.8-3.52,13.8,13.8,0,0,0-5.7-1.24,13.51,13.51,0,0,0-6.16,1.4,14.45,14.45,0,0,0-4.7,3.75,17,17,0,0,0-3,5.47,21.64,21.64,0,0,0,.11,13.65,15.36,15.36,0,0,0,3.1,5.18,16.9,16.9,0,0,0,4.58,3.46A12.89,12.89,0,0,0,157.25,196.35Z"/><path d="M184.06,157.6H215v12.22h-5.84v-7.29H193.74v13.82h13v4.9h-13v14.64h15.42V188.6H215v12.19H184.06v-4.9h4.1V162.53h-4.1Z"/><path d="M241.92,165.58a7,7,0,0,0-2-1.93,9.53,9.53,0,0,0-2.4-1,9.9,9.9,0,0,0-2.62-.36,13,13,0,0,0-3.79.5,8.23,8.23,0,0,0-2.7,1.35,5.68,5.68,0,0,0-1.61,2,5.53,5.53,0,0,0-.54,2.39,6.09,6.09,0,0,0,.67,3,5.61,5.61,0,0,0,1.7,1.85,9.11,9.11,0,0,0,2.26,1.1c.83.26,1.62.53,2.38.79l5.76,1.88a28.5,28.5,0,0,1,4.57,1.88,12.63,12.63,0,0,1,3.32,2.5,9.93,9.93,0,0,1,2,3.32,12.59,12.59,0,0,1,.69,4.36,11.28,11.28,0,0,1-1.09,5,11.9,11.9,0,0,1-3.07,4,14.61,14.61,0,0,1-4.68,2.64,17.88,17.88,0,0,1-6,.95,19,19,0,0,1-5.7-.75,12.45,12.45,0,0,1-4-2,10.37,10.37,0,0,1-2.58-2.9,15.48,15.48,0,0,1-1.51-3.33H218.9v-4.9h7.18a10.72,10.72,0,0,0,.67,4.47,6.05,6.05,0,0,0,1.87,2.18,8.5,8.5,0,0,0,2.85,1.31,13.81,13.81,0,0,0,3.64.44,12.46,12.46,0,0,0,3.49-.45,7.59,7.59,0,0,0,2.65-1.33,5.88,5.88,0,0,0,1.68-2.1,6.54,6.54,0,0,0,.59-2.81,5.59,5.59,0,0,0-.73-2.95,7.07,7.07,0,0,0-1.86-2.07,10.89,10.89,0,0,0-2.5-1.39c-.9-.36-1.77-.68-2.6-.94l-6.24-1.77a18.71,18.71,0,0,1-3.75-1.59,11.28,11.28,0,0,1-2.91-2.37,10,10,0,0,1-1.86-3.26,12.9,12.9,0,0,1-.66-4.32,11.31,11.31,0,0,1,1-4.64,10.9,10.9,0,0,1,2.85-3.79,13.79,13.79,0,0,1,4.6-2.55,19.25,19.25,0,0,1,6.23-.93,15.92,15.92,0,0,1,4.26.54,13.71,13.71,0,0,1,3.53,1.53,12.39,12.39,0,0,1,2.79,2.36,14.44,14.44,0,0,1,2,3h2.14v4.9h-7A6.36,6.36,0,0,0,241.92,165.58Z"/><path d="M298.28,157.6h14v4.9h-4.11v33.39h4.11v4.9h-14v-4.9h4.33V180.36h-25v15.53H282v4.9h-14v-4.9H272V162.5h-4.1v-4.9h14v4.9h-4.33v13.08h25V162.5h-4.33Z"/><path d="M320.44,157.6h30.95v12.22h-5.84v-7.29H330.13v13.82h13v4.9h-13v14.64h15.42V188.6h5.84v12.19H320.44v-4.9h4.11V162.53h-4.11Z"/><path d="M357.08,157.6h18a17.72,17.72,0,0,1,5.32.76,12.1,12.1,0,0,1,4.21,2.22,10,10,0,0,1,2.78,3.66,12,12,0,0,1,1,5,9.24,9.24,0,0,1-.59,3.21,11.21,11.21,0,0,1-1.62,2.93,12.23,12.23,0,0,1-2.46,2.41,11.38,11.38,0,0,1-3.11,1.62,6.78,6.78,0,0,1,1.44.9,8.45,8.45,0,0,1,1.37,1.42,12.58,12.58,0,0,1,1.16,1.91,11.46,11.46,0,0,1,.85,2.3l2.39,9.4h3.73l.06,5.41h-8.41L380,187.66a10.26,10.26,0,0,0-2.69-5.2,7,7,0,0,0-4.94-1.67h-5.56v15.1h4.33v4.9h-14v-4.9h4.11V162.53h-4.11Zm9.69,4.93v13.59h8.29a9.66,9.66,0,0,0,3-.43,6.48,6.48,0,0,0,2.34-1.28,6.14,6.14,0,0,0,1.54-2.12,7.32,7.32,0,0,0,.55-2.95,6.52,6.52,0,0,0-1.94-5q-1.93-1.78-6.15-1.79Z"/><path d="M398.62,157.6h30.95v12.22h-5.84v-7.29H408.31v13.82h13v4.9h-13v14.64h15.42V188.6h5.84v12.19H398.62v-4.9h4.11V162.53h-4.11Z"/></g></svg>