<svg xmlns="http://www.w3.org/2000/svg" xmlns:xlink="http://www.w3.org/1999/xlink" viewBox="0 0 1920 1080"><defs><style>.cls-1{fill:#061f6b;}.cls-2{fill:#fff;}.cls-3{fill:url(#linear-gradient);}.cls-4{fill:url(#linear-gradient-2);}.cls-5{fill:url(#linear-gradient-3);}.cls-6{fill:url(#linear-gradient-4);}</style><linearGradient id="linear-gradient" x1="-364.93" y1="7967.98" x2="-364.93" y2="6047.98" gradientTransform="matrix(0, 1, 1, 0, -6047.99, 1176.01)" gradientUnits="userSpaceOnUse"><stop offset="0" stop-color="#fff" stop-opacity="0"/><stop offset="0.51" stop-color="#fff"/><stop offset="1" stop-color="#fff" stop-opacity="0"/></linearGradient><linearGradient id="linear-gradient-2" x1="-907.08" y1="7967.98" x2="-907.08" y2="6047.98" xlink:href="#linear-gradient"/><linearGradient id="linear-gradient-3" x1="-636.01" y1="7967.98" x2="-636.01" y2="6047.98" xlink:href="#linear-gradient"/><linearGradient id="linear-gradient-4" x1="-501.01" y1="7967.98" x2="-501.01" y2="6047.98" xlink:href="#linear-gradient"/></defs><g id="Graphic"><rect class="cls-1" x="135" y="270" width="540" height="135"/><rect class="cls-1" x="135" y="675" width="540" height="135"/><rect class="cls-1" x="110.84" y="472.62" width="588.52" height="135" transform="translate(-250.92 380.53) rotate(-39.46)"/><path class="cls-2" d="M527.26,269.07h87.93V300h-20L521.9,401.68l76.49,107.58h16.8V540H527.26V509.26h33.06l-57.9-80.6-58.26,80.6h31.63V540H387.87V509.26h17.69l77.2-107.76L409.85,300h-22V269.07h87.92V300H449.7l52.72,74.17L555.68,300H527.26Z"/><path class="cls-2" d="M841.44,269.07h87.92v30.74H903.63V509.26h25.73V540H841.44V509.26H868.6v-97.4H711.87v97.4H739V540H651.11V509.26h25.73V299.81H651.11V269.07H739v30.74H711.87v82H868.6v-82H841.44Z"/><path class="cls-2" d="M998.17,509.26h26.27V311.07l-54.87,29.85V303.56L1045,261.39h14.3V509.26h26.62V540H998.17Z"/><path class="cls-2" d="M1296.29,540a70.16,70.16,0,0,1-11.72-.92,21,21,0,0,1-10.25-4.94,77.39,77.39,0,0,1-9.51,28.37A134.85,134.85,0,0,1,1245,589a235.54,235.54,0,0,1-28.36,25.26q-16.29,12.44-35,24.52l-28.19-26.72q20.14-12.08,37-24.15a285.64,285.64,0,0,0,28.55-23.06,132,132,0,0,0,18.3-20.5q6.59-9.51,6.59-16.83t-6.59-21a221.21,221.21,0,0,0-16.84-28.73L1248.34,450q7.68,13.19,13.36,22.33a129.91,129.91,0,0,0,10.43,14.82,33.65,33.65,0,0,0,9.51,8.24,22,22,0,0,0,10.62,2.56h14.64V540Z"/><path class="cls-2" d="M1409.38,540q-14.66,0-24.89-4.76t-17.2-15.74a47.23,47.23,0,0,1-18.3,15.56q-10.62,4.94-26.36,4.94h-15.74q-4,0-6.58-5.67t-2.56-15.19q0-9.51,2.56-15.37t6.58-5.86h15a102.86,102.86,0,0,0,15.19-.92,22.45,22.45,0,0,0,9.88-3.66,16,16,0,0,0,5.67-7.68,42.67,42.67,0,0,0,2.2-12.63V457.65l30.38-7.69q0,13.55.91,22.7t3.85,14.82a16.85,16.85,0,0,0,8.41,8q5.49,2.39,15,2.38h17.2V540Zm-64.79-109.8-26.71-22.33,21.22-25.25,27.09,22Zm46.85,0-26.72-22.33L1386,382.62l26.72,22Z"/><path class="cls-2" d="M1533.08,540q-14.64,0-24.89-4.76T1491,519.5a47.09,47.09,0,0,1-18.3,15.56q-10.62,4.94-26.35,4.94H1430.6q-4,0-6.59-5.67t-2.56-15.19q0-9.51,2.56-15.37t6.59-5.86h15a103,103,0,0,0,15.19-.92,22.5,22.5,0,0,0,9.88-3.66,16,16,0,0,0,5.67-7.68,43,43,0,0,0,2.2-12.63V457.65l30.38-7.69q0,13.55.91,22.7t3.84,14.82a16.83,16.83,0,0,0,8.42,8q5.49,2.39,15,2.38h17.2V540Zm-66.24,73.57-26.72-22.7,21.23-25.25L1488.43,588Zm46.84,0L1487,590.87l21.22-25.25L1534.91,588Z"/><path class="cls-2" d="M1600.42,488a17.89,17.89,0,0,0-1.64-6.22,76.12,76.12,0,0,0-4.76-9.34q-3.12-5.3-7-11.16T1578.83,450l27.45-28.91q13.9,16.47,20.5,33.85t6.59,31.3q0,26.35-14.65,40.07t-45,13.73h-19.4q-4,0-6.59-5.67t-2.56-15.19q0-9.51,2.56-15.37t6.59-5.86h19.4q12.07,0,19.4-2.38T1600.42,488Zm-25.25-86.38-26.72-22.32,21.23-25.26,27.09,22Zm46.85,0-26.72-22.32,21.23-25.26,26.72,22Z"/><rect class="cls-3" y="810.58" width="1920" height="1"/><rect class="cls-4" y="268.42" width="1920" height="1"/><rect class="cls-5" y="539.5" width="1920" height="1"/><rect class="cls-6" y="674.5" width="1920" height="1"/><path class="cls-2" d="M681.05,811.08l44.24-67.92-43.67-67.92h26.15l30.69,49.35,31.83-49.35h25.38l-44.42,67.35,45.37,68.49h-26.9l-31.83-49.26L707,811.08Z"/><path class="cls-2" d="M837.35,811.08H814.62V675.24h22.73V731.7h62.81V675.24h22.73V811.08H900.16V751.5H837.35Z"/><path class="cls-2" d="M1017.9,712.56q0-9.09-5.78-14.54t-15.25-5.44q-13.26,0-19.89,8.85t-5.68,25.63l-22.08-2.94q-1.41-23.68,12-37.42t36-13.73q19.8,0,31.83,10.89,11.84,10.71,11.84,28a49.21,49.21,0,0,1-7.06,24.91q-7,12.23-22.59,26.15l-32.4,28.89H1045v19.23H948.75V792l48.31-43.2q11.18-9.95,16-18.42A35.56,35.56,0,0,0,1017.9,712.56Z"/><path class="cls-2" d="M1149.51,811.08a30,30,0,0,1-6.4-.68,12.43,12.43,0,0,1-5.82-3.2,38.59,38.59,0,0,1-4.56,15.42,67.48,67.48,0,0,1-10.67,14.55,134.3,134.3,0,0,1-15.62,14Q1097.51,858,1087,865l-9.89-9.51a236.4,236.4,0,0,0,20.76-14.25,169.13,169.13,0,0,0,15.42-13.39,65,65,0,0,0,9.6-11.74q3.3-5.43,3.3-9.5,0-5.05-3.4-12.13a167,167,0,0,0-8.82-15.81l10.09-9.89,7.46,13.29a55.56,55.56,0,0,0,5.63,8.43,16.48,16.48,0,0,0,5.24,4.37,14.91,14.91,0,0,0,6.5,1.26h5.62v14.94Z"/><path class="cls-2" d="M1210,811.08q-8.73,0-14.45-2.91t-9-9.9a25.13,25.13,0,0,1-9.6,9.7q-5.73,3.1-14.46,3.11h-8a3.91,3.91,0,0,1-3.3-2.14,10,10,0,0,1-1.36-5.43,9.49,9.49,0,0,1,1.36-5.33,3.93,3.93,0,0,1,3.3-2h8q9.51,0,14.07-3.59t5.14-13.68l.19-7.37,10.87-2.71a92,92,0,0,0,.77,13,20.58,20.58,0,0,0,2.91,8.44,11.61,11.61,0,0,0,5.92,4.56,29.4,29.4,0,0,0,9.8,1.36h7.56v14.94Zm-34.53-57.23-11.44-9.51,8.34-9.89,11.25,9.5Zm23.09,0-11.25-9.51,8.53-9.89,11.06,9.5Z"/><path class="cls-2" d="M1275.22,811.08q-8.73,0-14.46-2.91t-9-9.9a25.06,25.06,0,0,1-9.6,9.7q-5.73,3.1-14.45,3.11h-8a3.88,3.88,0,0,1-3.29-2.14,9.89,9.89,0,0,1-1.36-5.43,9.41,9.41,0,0,1,1.36-5.33,3.91,3.91,0,0,1,3.29-2h8q9.49,0,14.06-3.59t5.14-13.68l.2-7.37,10.86-2.71a90.38,90.38,0,0,0,.78,13,20.29,20.29,0,0,0,2.91,8.44,11.54,11.54,0,0,0,5.91,4.56,29.44,29.44,0,0,0,9.8,1.36h7.57v14.94Zm-34.92,35.5-11.45-9.51,8.34-9.89,11.26,9.51Zm23.08,0-11.25-9.51,8.54-9.89,11.06,9.51Z"/><path class="cls-2" d="M1309.94,787.8q0-2.32-2.32-8.25a65,65,0,0,0-8-13.67l9.9-10.48a52.27,52.27,0,0,1,9.11,15.91,45.52,45.52,0,0,1,2.91,14.74q0,12.23-7.46,18.63t-23.19,6.4h-6a3.91,3.91,0,0,1-3.3-2.14,10,10,0,0,1-1.36-5.43,9.49,9.49,0,0,1,1.36-5.33,3.93,3.93,0,0,1,3.3-2h6.21a40.59,40.59,0,0,0,13.19-1.94Q1309.95,792.26,1309.94,787.8Zm-12.41-47.53-11.45-9.51,8.34-9.89,11.26,9.5Zm23.08,0-11.25-9.51,8.54-9.89,11.06,9.5Z"/></g></svg>