<svg xmlns="http://www.w3.org/2000/svg" xmlns:xlink="http://www.w3.org/1999/xlink" viewBox="0 0 1080 1080"><defs><style>.cls-1{fill:#061f6b;}.cls-2{fill:#fff;}.cls-3{fill:url(#linear-gradient);}.cls-4{fill:url(#linear-gradient-2);}.cls-5{fill:url(#linear-gradient-3);}.cls-6{fill:url(#linear-gradient-4);}.cls-7{fill:url(#linear-gradient-5);}.cls-8{fill:url(#linear-gradient-6);}.cls-9{fill:url(#linear-gradient-7);}.cls-10{fill:url(#linear-gradient-8);}.cls-11{fill:url(#linear-gradient-9);}.cls-12{fill:#4672e2;}</style><linearGradient id="linear-gradient" x1="11331.35" y1="-3845.55" x2="11331.35" y2="-4925.55" gradientTransform="translate(4925.55 11417.72) rotate(-90)" gradientUnits="userSpaceOnUse"><stop offset="0" stop-color="#fff" stop-opacity="0"/><stop offset="0.51" stop-color="#fff"/><stop offset="1" stop-color="#fff" stop-opacity="0"/></linearGradient><linearGradient id="linear-gradient-2" x1="10424.09" y1="-3845.55" x2="10424.09" y2="-4925.55" xlink:href="#linear-gradient"/><linearGradient id="linear-gradient-3" x1="17850.55" y1="-3845.55" x2="17850.55" y2="-4925.55" gradientTransform="translate(4925.55 18136.56) rotate(-90)" gradientUnits="userSpaceOnUse"><stop offset="0" stop-color="#fff" stop-opacity="0"/><stop offset="1" stop-color="#fff"/></linearGradient><linearGradient id="linear-gradient-4" x1="17815.54" y1="-3845.55" x2="17815.54" y2="-4925.55" xlink:href="#linear-gradient-3"/><linearGradient id="linear-gradient-5" x1="17728.78" y1="-3845.55" x2="17728.78" y2="-4925.55" xlink:href="#linear-gradient-3"/><linearGradient id="linear-gradient-6" x1="17936.95" y1="-3845.55" x2="17936.95" y2="-4925.55" xlink:href="#linear-gradient-3"/><linearGradient id="linear-gradient-7" x1="17893.73" y1="-3845.55" x2="17893.73" y2="-4925.55" xlink:href="#linear-gradient-3"/><linearGradient id="linear-gradient-8" x1="21411.35" y1="6234.44" x2="21411.35" y2="5154.44" gradientTransform="translate(-20417.72 -5154.44)" xlink:href="#linear-gradient"/><linearGradient id="linear-gradient-9" x1="20504.09" y1="6234.44" x2="20504.09" y2="5154.44" gradientTransform="translate(-20417.72 -5154.44)" xlink:href="#linear-gradient"/></defs><g id="Graphic"><path class="cls-1" d="M626.43,345.6h0a367.2,367.2,0,0,1,367.2,367.2V1080a0,0,0,0,1,0,0H259.23a0,0,0,0,1,0,0V712.8a367.2,367.2,0,0,1,367.2-367.2Z"/><rect class="cls-2" x="993.58" width="86.37" height="21.59"/><rect class="cls-2" x="993.58" y="64.78" width="86.37" height="21.59"/><rect class="cls-2" x="989.72" y="32.41" width="94.13" height="21.59" transform="translate(208.82 668.72) rotate(-39.46)"/><rect class="cls-2" width="86.37" height="21.59"/><rect class="cls-2" y="64.78" width="86.37" height="21.59"/><rect class="cls-2" x="-3.86" y="32.41" width="94.13" height="21.59" transform="translate(-17.61 37.3) rotate(-39.46)"/><rect class="cls-2" x="993.58" y="993.63" width="86.37" height="21.59"/><rect class="cls-2" x="993.58" y="1058.41" width="86.37" height="21.59"/><rect class="cls-2" x="989.72" y="1026.04" width="94.13" height="21.59" transform="translate(-422.62 895.16) rotate(-39.46)"/><rect class="cls-2" y="199.63" width="86.37" height="21.59"/><rect class="cls-2" y="264.41" width="86.37" height="21.59"/><rect class="cls-2" x="-3.86" y="232.04" width="94.13" height="21.59" transform="translate(-144.47 82.79) rotate(-39.46)"/><rect class="cls-2" y="321.02" width="86.37" height="21.59"/><rect class="cls-2" y="385.8" width="86.37" height="21.59"/><rect class="cls-2" x="-3.86" y="353.43" width="94.13" height="21.59" transform="translate(-221.62 110.46) rotate(-39.46)"/><rect class="cls-2" y="993.63" width="86.37" height="21.59"/><rect class="cls-2" y="1058.41" width="86.37" height="21.59"/><rect class="cls-2" x="-3.86" y="1026.04" width="94.13" height="21.59" transform="translate(-649.06 263.74) rotate(-39.46)"/><rect class="cls-3" y="85.87" width="1080" height="1"/><rect class="cls-4" y="993.13" width="1080" height="1"/><rect class="cls-5" y="285.51" width="1080" height="1"/><rect class="cls-6" y="320.52" width="1080" height="1"/><rect class="cls-7" y="407.28" width="1080" height="1"/><rect class="cls-8" y="199.11" width="1080" height="1"/><rect class="cls-9" y="242.33" width="1080" height="1"/><rect class="cls-10" x="993.13" width="1" height="1080"/><rect class="cls-11" x="85.87" width="1" height="1080"/><path class="cls-12" d="M87.06,265.58H102.9v2.95H96.72V286H93.27V268.53H87.06Z"/><path class="cls-12" d="M119.9,286H105.84V265.58h13.77v2.92H109.25v5.73h9.19v2.82h-9.19v6H119.9Z"/><path class="cls-12" d="M121.62,286l6.65-10.21-6.56-10.22h3.93l4.61,7.43,4.79-7.43h3.82l-6.68,10.13L139,286H135l-4.78-7.41L125.52,286Z"/><path class="cls-12" d="M139.81,265.58h15.84v2.95h-6.18V286H146V268.53h-6.21Z"/><path class="cls-12" d="M167.49,286h-3.42V265.58h3.42v8.49h9.45v-8.49h3.41V286h-3.41v-9h-9.45Z"/><path class="cls-12" d="M194.64,271.2a2.88,2.88,0,0,0-.87-2.19,3.18,3.18,0,0,0-2.29-.82,3.48,3.48,0,0,0-3,1.33,5.81,5.81,0,0,0-.86,3.86l-3.32-.45a7,7,0,0,1,1.81-5.62,7.24,7.24,0,0,1,5.42-2.07,6.85,6.85,0,0,1,4.78,1.64,5.4,5.4,0,0,1,1.78,4.22,7.35,7.35,0,0,1-1.06,3.74,16.82,16.82,0,0,1-3.39,3.94l-4.88,4.34h9.95V286H184.24v-2.86l7.27-6.5a11.66,11.66,0,0,0,2.41-2.77A5.36,5.36,0,0,0,194.64,271.2Z"/><path class="cls-12" d="M208.76,279.47h-7.65v-2.82h7.65Z"/><path class="cls-12" d="M216.42,286H213V265.58h3.41v8.49h9.45v-8.49h3.42V286h-3.42v-9h-9.45Z"/><path class="cls-12" d="M248.18,286H234.12V265.58h13.77v2.92H237.54v5.73h9.18v2.82h-9.18v6h10.64Z"/><path class="cls-12" d="M263.69,281.5h-8.63L253.39,286H250l7.69-20.43h3.7L269,286h-3.67Zm-7.58-2.84h6.57l-3.25-9Z"/><path class="cls-12" d="M280.17,286h-8.32V265.58h8.32a10,10,0,0,1,7.38,2.7,9.57,9.57,0,0,1,2.74,7.23,10.52,10.52,0,0,1-2.77,7.61A9.68,9.68,0,0,1,280.17,286Zm6.66-10.5a7.08,7.08,0,0,0-1.81-5.08,6.37,6.37,0,0,0-4.85-1.9h-4.9v14.53h4.9A6.11,6.11,0,0,0,285,281,8.07,8.07,0,0,0,286.83,275.51Z"/><path class="cls-12" d="M297.52,286h-3.41V265.58h3.41Z"/><path class="cls-12" d="M305.62,286h-3.27V265.58h3.76L315.22,280V265.58h3.27V286h-3l-9.9-15.61Z"/><path class="cls-12" d="M332.2,286.37a9.54,9.54,0,0,1-7.21-2.89,12,12,0,0,1,.06-15.32,9.7,9.7,0,0,1,7.4-2.92,10,10,0,0,1,5.94,1.69,8.15,8.15,0,0,1,3.17,4.78l-3.36.58a5.5,5.5,0,0,0-5.75-4.1,6.16,6.16,0,0,0-4.9,2.05,8.31,8.31,0,0,0-1.78,5.64,8,8,0,0,0,1.84,5.46,6.22,6.22,0,0,0,4.87,2.08,6.55,6.55,0,0,0,4.4-1.44,4.57,4.57,0,0,0,1.73-3.62v-.7h-5.9V275h9V286h-3.09v-2.53a7.07,7.07,0,0,1-2.74,2.14A8.9,8.9,0,0,1,332.2,286.37Z"/><path class="cls-12" d="M97.83,321.38a9.55,9.55,0,0,1-7.21-2.89,12,12,0,0,1,.06-15.32,9.71,9.71,0,0,1,7.41-2.92,9.94,9.94,0,0,1,5.93,1.69,8.15,8.15,0,0,1,3.17,4.78l-3.36.58a5.5,5.5,0,0,0-5.74-4.1,6.14,6.14,0,0,0-4.91,2.05,8.36,8.36,0,0,0-1.78,5.64,8,8,0,0,0,1.84,5.46,6.24,6.24,0,0,0,4.87,2.08,6.58,6.58,0,0,0,4.41-1.44,4.56,4.56,0,0,0,1.72-3.62v-.7h-5.9V310h9v11h-3.09v-2.53a7,7,0,0,1-2.74,2.14A8.9,8.9,0,0,1,97.83,321.38Z"/><path class="cls-12" d="M130.18,310.81a10.88,10.88,0,0,1-2.69,7.68,10.31,10.31,0,0,1-14.32,0,12.35,12.35,0,0,1,0-15.35,10.28,10.28,0,0,1,14.29,0A10.77,10.77,0,0,1,130.18,310.81Zm-14.48-5.57a10,10,0,0,0,0,11.14,6.31,6.31,0,0,0,9.31,0,10,10,0,0,0,0-11.14,6.33,6.33,0,0,0-9.31,0Z"/><path class="cls-12" d="M148,321H134V300.59h13.78v2.92H137.4v5.73h9.19v2.82H137.4v6H148Z"/><path class="cls-12" d="M158.87,321.38a9.3,9.3,0,0,1-6-1.78,6.1,6.1,0,0,1-2.28-4.9l3.42-.39a4.24,4.24,0,0,0,1.34,3.19,5.18,5.18,0,0,0,3.53,1.1,4.39,4.39,0,0,0,2.9-.88,2.88,2.88,0,0,0,1.06-2.35,2.4,2.4,0,0,0-.72-1.87,5.55,5.55,0,0,0-2.54-1l-2.69-.55q-5.69-1.17-5.69-5.87a5.19,5.19,0,0,1,2-4.1,7.66,7.66,0,0,1,5.2-1.7,8.18,8.18,0,0,1,5.29,1.6,6.06,6.06,0,0,1,2.26,4.36l-3.47.37c-.26-2.38-1.63-3.56-4.11-3.56a4.33,4.33,0,0,0-2.74.78,2.54,2.54,0,0,0-1,2.11,2.58,2.58,0,0,0,.7,1.93,4.17,4.17,0,0,0,2.24,1l3.13.61a8,8,0,0,1,4.26,1.94,5,5,0,0,1,1.4,3.69,5.82,5.82,0,0,1-2.08,4.53A7.89,7.89,0,0,1,158.87,321.38Z"/><path class="cls-12" d="M179.77,321h-3.42V300.59h3.42v8.49h9.45v-8.49h3.41V321h-3.41v-9h-9.45Z"/><path class="cls-12" d="M211.52,321H197.46V300.59h13.78v2.92H200.88v5.73h9.19v2.82h-9.19v6h10.64Z"/><path class="cls-12" d="M230.57,315.82l.3,5.2h-3.42l-.3-5.2a2.47,2.47,0,0,0-.93-1.94,4.47,4.47,0,0,0-2.64-.62h-4.85V321h-3.42V300.59h8.49a7.66,7.66,0,0,1,5.1,1.61,5,5,0,0,1,2,4.09,5.92,5.92,0,0,1-.86,3.13,6.1,6.1,0,0,1-2.42,2.21A4.21,4.21,0,0,1,230.57,315.82Zm-3.18-9.19a2.83,2.83,0,0,0-1-2.29,4.29,4.29,0,0,0-2.82-.85h-4.82v6.95h4.82a3.62,3.62,0,0,0,3.84-3.81Z"/><path class="cls-12" d="M249.15,321H235.09V300.59h13.77v2.92H238.5v5.73h9.19v2.82H238.5v6h10.65Z"/><path class="cls-12" d="M90.47,86.4h31V98.62h-5.85V91.33H100.16v13.82h13v4.9h-13v14.64h15.41V117.4h5.85v12.19H90.47v-4.9h4.11V91.33H90.47Z"/><path class="cls-12" d="M153.84,86.4h14v4.93h-3.68v38.26h-7.29L136.8,93.78v30.91h4.45v4.9h-14v-4.9h4V91.33h-4.11v-5h11.63l19.71,35.47.23-1.36V91.33h-4.84Z"/><path class="cls-12" d="M206.72,129.76V121.1A14.71,14.71,0,0,1,204,125a15,15,0,0,1-3.62,2.75,17.36,17.36,0,0,1-4.26,1.62,19.75,19.75,0,0,1-4.6.54,21,21,0,0,1-7.78-1.41A17.89,17.89,0,0,1,177.3,124a20.76,20.76,0,0,1-4.41-7.3,25.58,25.58,0,0,1-1.53-8.8,24.76,24.76,0,0,1,1.53-8.72,21.94,21.94,0,0,1,4.27-7.15,19.89,19.89,0,0,1,6.55-4.79A19.62,19.62,0,0,1,192,85.54a19.27,19.27,0,0,1,7,1.17,19.56,19.56,0,0,1,5,2.84,22.65,22.65,0,0,1,3.35,3.17h2.77V97.8H204A14.22,14.22,0,0,0,199,92.67a14.07,14.07,0,0,0-13.06-.43A14.76,14.76,0,0,0,181.23,96a17.71,17.71,0,0,0-3,5.44,19.49,19.49,0,0,0-1.08,6.5,20.4,20.4,0,0,0,1.19,7,16,16,0,0,0,3.05,5.27,15.24,15.24,0,0,0,4.57,3.35,13.67,13.67,0,0,0,6,1.32,14.42,14.42,0,0,0,9-2.66q3.51-2.67,4.91-8.31H193.75v-4.9H212v20.71Z"/><path class="cls-12" d="M221.33,86.4h14v4.93H231v33.36h14.9a2.12,2.12,0,0,0,.91-.21,3.11,3.11,0,0,0,.83-.56,2.67,2.67,0,0,0,.6-.78,1.94,1.94,0,0,0,.23-.9V116.8h5.41v12.79H221.33v-4.9h4.11V91.33h-4.11Z"/><path class="cls-12" d="M258.26,86.4h13.79v4.93H268v33.36h4.1v4.9H258.26v-4.9h4.1V91.33h-4.1Z"/><path class="cls-12" d="M301.42,94.38a6.85,6.85,0,0,0-2-1.92,9.21,9.21,0,0,0-2.4-1,9.9,9.9,0,0,0-2.62-.36,13,13,0,0,0-3.79.5,8.23,8.23,0,0,0-2.7,1.35,5.68,5.68,0,0,0-1.61,2,5.53,5.53,0,0,0-.54,2.39,6.09,6.09,0,0,0,.67,3,5.61,5.61,0,0,0,1.7,1.85,8.75,8.75,0,0,0,2.26,1.09l2.38.8,5.76,1.88a28.5,28.5,0,0,1,4.57,1.88,12.63,12.63,0,0,1,3.32,2.5,9.93,9.93,0,0,1,2,3.32,12.59,12.59,0,0,1,.69,4.36,11.28,11.28,0,0,1-1.09,5,11.9,11.9,0,0,1-3.07,4,14.61,14.61,0,0,1-4.68,2.64,18.14,18.14,0,0,1-6,.95,19,19,0,0,1-5.7-.75,12.26,12.26,0,0,1-4-2,10.2,10.2,0,0,1-2.58-2.89,15.48,15.48,0,0,1-1.51-3.33H278.4v-4.9h7.18a10.72,10.72,0,0,0,.67,4.47,6.05,6.05,0,0,0,1.87,2.18,8.5,8.5,0,0,0,2.85,1.31,13.81,13.81,0,0,0,3.64.44,12.46,12.46,0,0,0,3.49-.45,7.59,7.59,0,0,0,2.65-1.33,5.83,5.83,0,0,0,1.68-2.11,6.46,6.46,0,0,0,.59-2.8,5.59,5.59,0,0,0-.73-3,7.07,7.07,0,0,0-1.86-2.07,10.89,10.89,0,0,0-2.5-1.39c-.9-.36-1.77-.68-2.6-.94l-6.24-1.77a18.71,18.71,0,0,1-3.75-1.59,11.28,11.28,0,0,1-2.91-2.37,10,10,0,0,1-1.86-3.26,12.9,12.9,0,0,1-.66-4.32,11.31,11.31,0,0,1,1-4.64,10.9,10.9,0,0,1,2.85-3.79,13.79,13.79,0,0,1,4.6-2.55,19.25,19.25,0,0,1,6.23-.93,15.92,15.92,0,0,1,4.26.54,13.71,13.71,0,0,1,3.53,1.53,12.39,12.39,0,0,1,2.79,2.36,14.19,14.19,0,0,1,2,3h2.14v4.9h-7A6.36,6.36,0,0,0,301.42,94.38Z"/><path class="cls-12" d="M357.78,86.4h14v4.9h-4.11v33.39h4.11v4.9h-14v-4.9h4.33V109.16h-25v15.53h4.33v4.9h-14v-4.9h4.1V91.3h-4.1V86.4h14v4.9h-4.33v13.08h25V91.3h-4.33Z"/><path class="cls-12" d="M382.77,124.69H387V93.1l-8.74,4.75V91.9l12-6.73h2.28v39.52h4.24v4.9h-14Z"/><path class="cls-12" d="M447.5,86.4h14v4.9h-4.11v33.39h4.11v4.9h-14v-4.9h4.33V109.16h-25v15.53h4.33v4.9h-14v-4.9h4.11V91.3h-4.11V86.4h14v4.9h-4.33v13.08h25V91.3H447.5Z"/><path class="cls-12" d="M469.66,86.4H500.6V98.62h-5.84V91.33H479.35v13.82h13v4.9h-13v14.64h15.41V117.4h5.84v12.19H469.66v-4.9h4.11V91.33h-4.11Z"/><path class="cls-12" d="M531.86,124.69h3.59l-3.42-9.8H515.42l-3.33,9.8h4.44v4.9h-14v-4.9h3.76L519.72,86.4h8.41l13.42,38.29h4.33v4.9h-14ZM517,110.16h13.34l-6.73-19.32Z"/><path class="cls-12" d="M550.24,86.4h16.07a20.39,20.39,0,0,1,10.62,2.93,20.84,20.84,0,0,1,4.19,3.35A20.56,20.56,0,0,1,584.33,97a21.77,21.77,0,0,1,2,5.14,22.45,22.45,0,0,1,.72,5.71,22.91,22.91,0,0,1-.72,5.79,22.24,22.24,0,0,1-2,5.18,20.87,20.87,0,0,1-3.21,4.4,20.29,20.29,0,0,1-9.17,5.57,20.11,20.11,0,0,1-5.64.77H550.24v-4.9h4.1V91.33h-4.1Zm9.68,4.93v33.36h6.73a12.35,12.35,0,0,0,5.62-1.31,14.65,14.65,0,0,0,4.61-3.57,17.21,17.21,0,0,0,3.1-5.33,18.76,18.76,0,0,0,1.14-6.6,18.23,18.23,0,0,0-1.14-6.49,16.86,16.86,0,0,0-3.1-5.26,14.64,14.64,0,0,0-4.61-3.52,12.72,12.72,0,0,0-5.62-1.28Z"/><path class="cls-12" d="M593.17,86.4H607v4.93h-4.1v33.36H607v4.9H593.17v-4.9h4.11V91.33h-4.11Z"/><path class="cls-12" d="M641.84,86.4h14v4.93h-3.67v38.26h-7.3L624.8,93.78v30.91h4.44v4.9h-14v-4.9h4V91.33h-4.1v-5h11.63l19.71,35.47.23-1.36V91.33h-4.84Z"/><path class="cls-12" d="M694.72,129.76V121.1a14.78,14.78,0,0,1-6.33,6.67,17.36,17.36,0,0,1-4.26,1.62,19.75,19.75,0,0,1-4.6.54,21,21,0,0,1-7.78-1.41A17.89,17.89,0,0,1,665.3,124a20.93,20.93,0,0,1-4.42-7.3,25.81,25.81,0,0,1-1.52-8.8,25,25,0,0,1,1.52-8.72,22,22,0,0,1,4.28-7.15,19.78,19.78,0,0,1,6.55-4.79A19.56,19.56,0,0,1,680,85.54a19.34,19.34,0,0,1,7,1.17,19.73,19.73,0,0,1,5,2.84,23.16,23.16,0,0,1,3.35,3.17h2.76V97.8H692A14.3,14.3,0,0,0,687,92.67a14.07,14.07,0,0,0-13.06-.43A14.65,14.65,0,0,0,669.23,96a17.71,17.71,0,0,0-3,5.44,19.24,19.24,0,0,0-1.09,6.5,20.17,20.17,0,0,0,1.2,7,15.81,15.81,0,0,0,3.05,5.27,15.12,15.12,0,0,0,4.57,3.35,13.64,13.64,0,0,0,6,1.32,14.44,14.44,0,0,0,9-2.66q3.51-2.67,4.9-8.31H681.75v-4.9H700v20.71Z"/><path class="cls-12" d="M123.81,199.78v-8.66A14.48,14.48,0,0,1,121.1,195a15,15,0,0,1-3.62,2.75,17.36,17.36,0,0,1-4.26,1.62,19.76,19.76,0,0,1-4.6.55,21,21,0,0,1-7.78-1.42,17.89,17.89,0,0,1-6.45-4.48,20.76,20.76,0,0,1-4.41-7.3,25.58,25.58,0,0,1-1.53-8.8A24.76,24.76,0,0,1,90,169.24a21.94,21.94,0,0,1,4.27-7.15,19.89,19.89,0,0,1,6.55-4.79,19.61,19.61,0,0,1,8.25-1.73,19.28,19.28,0,0,1,7,1.16,19.8,19.8,0,0,1,5.05,2.84,22.52,22.52,0,0,1,3.34,3.18h2.77v5.07h-6.13a14.22,14.22,0,0,0-5.06-5.13,14.15,14.15,0,0,0-13.06-.43A14.76,14.76,0,0,0,98.32,166a17.71,17.71,0,0,0-3,5.44,19.49,19.49,0,0,0-1.08,6.5,20.4,20.4,0,0,0,1.19,7,16,16,0,0,0,3,5.27,15.24,15.24,0,0,0,4.57,3.35,13.67,13.67,0,0,0,6,1.32,14.42,14.42,0,0,0,9-2.66q3.51-2.67,4.91-8.31H110.85v-4.9h18.26v20.71Z"/><path class="cls-12" d="M157.12,200.47a19.71,19.71,0,0,1-8.18-1.67,20.76,20.76,0,0,1-11-12A25.63,25.63,0,0,1,136.4,178a24.94,24.94,0,0,1,1.53-8.78,21.9,21.9,0,0,1,4.27-7.14,20.14,20.14,0,0,1,6.55-4.78,20.19,20.19,0,0,1,23.32,4.78,21.85,21.85,0,0,1,4.25,7.14,25.39,25.39,0,0,1,1.51,8.78,24.82,24.82,0,0,1-1.53,8.76,22,22,0,0,1-4.27,7.13,19.76,19.76,0,0,1-14.91,6.56Zm0-5.3a13.33,13.33,0,0,0,6.13-1.4,14.51,14.51,0,0,0,4.69-3.74,17.19,17.19,0,0,0,3-5.46A20.07,20.07,0,0,0,172,178a20.5,20.5,0,0,0-1.16-6.83,16.13,16.13,0,0,0-3.22-5.57,14.41,14.41,0,0,0-4.8-3.52,13.71,13.71,0,0,0-5.69-1.23,13.45,13.45,0,0,0-6.16,1.39,14.45,14.45,0,0,0-4.7,3.75,17,17,0,0,0-3,5.47,20.37,20.37,0,0,0-1.06,6.54,20.1,20.1,0,0,0,1.17,7.1,15.46,15.46,0,0,0,3.09,5.19,17,17,0,0,0,4.59,3.46A12.86,12.86,0,0,0,157.12,195.17Z"/><path class="cls-12" d="M183.93,156.42h30.94v12.22H209v-7.29H193.61v13.82h13v4.9h-13v14.64H209v-7.29h5.84v12.19H183.93v-4.9H188V161.35h-4.1Z"/><path class="cls-12" d="M241.79,164.4a7.15,7.15,0,0,0-2-1.93,9.53,9.53,0,0,0-2.4-1,9.92,9.92,0,0,0-2.63-.36,13.09,13.09,0,0,0-3.79.5,8,8,0,0,0-2.69,1.36,5.52,5.52,0,0,0-2.15,4.38,6,6,0,0,0,.67,3,5.61,5.61,0,0,0,1.7,1.85,9,9,0,0,0,2.26,1.1c.83.26,1.62.53,2.38.79l5.75,1.88a27.74,27.74,0,0,1,4.58,1.88,12.8,12.8,0,0,1,3.32,2.5,9.74,9.74,0,0,1,2,3.32,12.33,12.33,0,0,1,.7,4.35,11.29,11.29,0,0,1-1.09,5,12.16,12.16,0,0,1-3.07,4,14.61,14.61,0,0,1-4.68,2.64,18.14,18.14,0,0,1-6,1,18.93,18.93,0,0,1-5.7-.75,12.82,12.82,0,0,1-4-2,10.49,10.49,0,0,1-2.57-2.9,15.48,15.48,0,0,1-1.51-3.33h-2.17v-4.9H226a10.56,10.56,0,0,0,.67,4.47,6.05,6.05,0,0,0,1.87,2.18,8.35,8.35,0,0,0,2.84,1.31,13.94,13.94,0,0,0,3.65.44,12.51,12.51,0,0,0,3.49-.45,7.76,7.76,0,0,0,2.65-1.33,5.88,5.88,0,0,0,1.68-2.1,6.54,6.54,0,0,0,.59-2.81,5.68,5.68,0,0,0-.73-3,7.11,7.11,0,0,0-1.87-2.07A10.82,10.82,0,0,0,238.3,182c-.9-.36-1.77-.68-2.61-.94l-6.24-1.77a18.87,18.87,0,0,1-3.74-1.59,11.28,11.28,0,0,1-2.91-2.37,9.8,9.8,0,0,1-1.86-3.26,12.9,12.9,0,0,1-.66-4.32,11.15,11.15,0,0,1,1-4.64,10.66,10.66,0,0,1,2.85-3.79,13.79,13.79,0,0,1,4.6-2.55,19.19,19.19,0,0,1,6.22-.93,15.92,15.92,0,0,1,4.26.54,13.78,13.78,0,0,1,3.54,1.53,12.39,12.39,0,0,1,2.79,2.36,14.19,14.19,0,0,1,2,3h2.13v4.9h-7A6.36,6.36,0,0,0,241.79,164.4Z"/><path class="cls-12" d="M298.15,156.42h14v4.9h-4.1v33.39h4.1v4.9h-14v-4.9h4.33V179.18h-25v15.53h4.33v4.9h-14v-4.9h4.11V161.32H267.8v-4.9h14v4.9h-4.33V174.4h25V161.32h-4.33Z"/><path class="cls-12" d="M320.31,156.42h30.94v12.22h-5.84v-7.29H330v13.82h13v4.9H330v14.64h15.41v-7.29h5.84v12.19H320.31v-4.9h4.11V161.35h-4.11Z"/><path class="cls-12" d="M357,156.42h18a17.61,17.61,0,0,1,5.31.76,12.15,12.15,0,0,1,4.22,2.22,10.13,10.13,0,0,1,2.78,3.66,12.12,12.12,0,0,1,1,5,9.24,9.24,0,0,1-.59,3.21,11.21,11.21,0,0,1-1.62,2.93,12.55,12.55,0,0,1-2.47,2.41,11.32,11.32,0,0,1-3.1,1.62,6.78,6.78,0,0,1,1.44.9,8.39,8.39,0,0,1,1.36,1.42,11.85,11.85,0,0,1,1.17,1.91,12.08,12.08,0,0,1,.84,2.3l2.4,9.4h3.73l.06,5.41h-8.41l-3.22-13.13a10.33,10.33,0,0,0-2.69-5.2,7,7,0,0,0-4.94-1.67h-5.56v15.1H371v4.9H357v-4.9h4.11V161.35H357Zm9.69,4.93v13.59h8.29a9.71,9.71,0,0,0,3-.43,6.36,6.36,0,0,0,2.33-1.28,5.89,5.89,0,0,0,1.54-2.12,7.32,7.32,0,0,0,.56-3,6.52,6.52,0,0,0-1.94-5q-1.93-1.78-6.15-1.79Z"/><path class="cls-12" d="M398.49,156.42h30.94v12.22h-5.84v-7.29H408.18v13.82h13v4.9h-13v14.64h15.41v-7.29h5.84v12.19H398.49v-4.9h4.11V161.35h-4.11Z"/><rect class="cls-12" x="86.53" y="240.65" width="43.2" height="4.32"/><path class="cls-12" d="M98.79,394.62l-9.08,11.14H99v1.66H87.42v-1.58l9.16-11.25H87.9v-1.67H98.79Z"/><path class="cls-12" d="M108.07,406.14a3.7,3.7,0,0,0,4-3.33l1.9.3a5,5,0,0,1-1.91,3.41,6.34,6.34,0,0,1-4,1.26,6.48,6.48,0,0,1-5.1-2,8.17,8.17,0,0,1-1.76-5.66,8,8,0,0,1,1.84-5.52,6.33,6.33,0,0,1,5-2.06,5.86,5.86,0,0,1,4.58,1.79,7.18,7.18,0,0,1,1.62,5v1.23H103.26C103.37,404.29,105,406.14,108.07,406.14ZM108,394.2a4.34,4.34,0,0,0-3.23,1.21,5.77,5.77,0,0,0-1.43,3.55h8.77Q111.88,394.21,108,394.2Z"/><path class="cls-12" d="M123.82,406.14a3.7,3.7,0,0,0,4-3.33l1.9.3a5,5,0,0,1-1.91,3.41,6.33,6.33,0,0,1-4,1.26,6.49,6.49,0,0,1-5.11-2,8.22,8.22,0,0,1-1.76-5.66,8,8,0,0,1,1.84-5.52,6.33,6.33,0,0,1,4.95-2.06,5.86,5.86,0,0,1,4.58,1.79,7.18,7.18,0,0,1,1.62,5v1.23H119Q119.17,406.14,123.82,406.14Zm-.1-11.94a4.34,4.34,0,0,0-3.23,1.21,5.77,5.77,0,0,0-1.43,3.55h8.77Q127.62,394.21,123.72,394.2Z"/><path class="cls-12" d="M139.56,406.14a3.7,3.7,0,0,0,4-3.33l1.9.3a5,5,0,0,1-1.91,3.41,6.33,6.33,0,0,1-4,1.26,6.5,6.5,0,0,1-5.11-2,8.22,8.22,0,0,1-1.76-5.66,8,8,0,0,1,1.84-5.52,6.35,6.35,0,0,1,5-2.06,5.84,5.84,0,0,1,4.57,1.79,7.18,7.18,0,0,1,1.62,5v1.23H134.74C134.86,404.29,136.46,406.14,139.56,406.14Zm-.1-11.94a4.34,4.34,0,0,0-3.23,1.21A5.77,5.77,0,0,0,134.8,399h8.77Q143.36,394.21,139.46,394.2Z"/><path class="cls-12" d="M161.48,398v9.38h-2v-9a4.3,4.3,0,0,0-1-3,3.61,3.61,0,0,0-2.8-1.06,3.94,3.94,0,0,0-3.22,1.32,6,6,0,0,0-1.1,3.88v7.9h-2v-14.5h2v1.92a5.16,5.16,0,0,1,4.65-2.26,5,5,0,0,1,5.45,5.46Z"/><path class="cls-12" d="M165.67,404.59h2.69v2.83h-2.69Z"/><path class="cls-12" d="M174.72,390.33h-2V387h2Zm0,17.09h-2v-14.5h2Z"/><path class="cls-12" d="M181.35,407.42h-2v-14.5h2v2.84a4.6,4.6,0,0,1,4.32-2.84h1.08v1.92h-1.08a3.64,3.64,0,0,0-3.12,1.78,8.14,8.14,0,0,0-1.2,4.65Z"/><polygon class="cls-12" points="89.26 920.69 89.26 926.09 103.72 926.09 86.49 953.09 110.86 953.09 110.86 947.69 96.34 947.69 113.57 920.69 89.26 920.69"/><polygon class="cls-12" points="119.04 953.09 140.57 953.09 140.57 947.69 124.42 947.69 124.4 939.59 140.57 939.59 140.57 934.19 124.39 934.19 124.37 926.09 140.57 926.09 140.57 920.69 118.96 920.69 119.04 953.09"/><polygon class="cls-12" points="170.27 947.69 154.07 947.69 154.07 939.59 170.27 939.59 170.27 934.19 154.07 934.19 154.07 926.09 170.27 926.09 170.27 920.69 148.67 920.69 148.67 953.09 170.27 953.09 170.27 947.69"/><polygon class="cls-12" points="118.97 993.6 140.57 993.6 140.57 988.2 124.37 988.2 124.37 980.1 140.57 980.1 140.57 974.7 124.37 974.7 124.37 966.6 140.57 966.6 140.57 961.2 118.97 961.2 118.97 993.6"/><polygon class="cls-12" points="167.57 961.2 167.57 983.08 153.84 961.2 148.67 961.2 148.67 993.6 154.07 993.6 154.07 971.72 167.8 993.6 172.97 993.6 172.97 961.2 167.57 961.2"/></g></svg>