<svg xmlns="http://www.w3.org/2000/svg" xmlns:xlink="http://www.w3.org/1999/xlink" viewBox="0 0 1080 1080"><defs><style>.cls-1{fill:#061f6b;}.cls-2{fill:#4672e2;}.cls-3{fill:#fff;}.cls-4{fill:url(#linear-gradient);}.cls-5{fill:url(#linear-gradient-2);}.cls-6{fill:url(#linear-gradient-3);}.cls-7{fill:url(#linear-gradient-4);}.cls-8{fill:url(#linear-gradient-5);}.cls-9{fill:url(#linear-gradient-6);}.cls-10{fill:url(#linear-gradient-7);}.cls-11{fill:url(#linear-gradient-8);}.cls-12{fill:url(#linear-gradient-9);}</style><linearGradient id="linear-gradient" x1="11331.35" y1="4218.45" x2="11331.35" y2="3138.45" gradientTransform="translate(-3138.45 11417.72) rotate(-90)" gradientUnits="userSpaceOnUse"><stop offset="0" stop-color="#fff" stop-opacity="0"/><stop offset="0.51" stop-color="#fff"/><stop offset="1" stop-color="#fff" stop-opacity="0"/></linearGradient><linearGradient id="linear-gradient-2" x1="10424.09" y1="4218.45" x2="10424.09" y2="3138.45" xlink:href="#linear-gradient"/><linearGradient id="linear-gradient-3" x1="10712.94" y1="4218.45" x2="10712.94" y2="3138.45" gradientTransform="translate(-3138.45 11417.72) rotate(-90)" gradientUnits="userSpaceOnUse"><stop offset="0" stop-color="#fff" stop-opacity="0"/><stop offset="1" stop-color="#fff"/></linearGradient><linearGradient id="linear-gradient-4" x1="10677.92" y1="4218.45" x2="10677.92" y2="3138.45" xlink:href="#linear-gradient-3"/><linearGradient id="linear-gradient-5" x1="10590.1" y1="4218.45" x2="10590.1" y2="3138.45" xlink:href="#linear-gradient-3"/><linearGradient id="linear-gradient-6" x1="10799.33" y1="4218.45" x2="10799.33" y2="3138.45" xlink:href="#linear-gradient-3"/><linearGradient id="linear-gradient-7" x1="10756.11" y1="4218.45" x2="10756.11" y2="3138.45" xlink:href="#linear-gradient-3"/><linearGradient id="linear-gradient-8" x1="21411.35" y1="6234.44" x2="21411.35" y2="5154.44" gradientTransform="translate(-20417.72 -5154.44)" xlink:href="#linear-gradient"/><linearGradient id="linear-gradient-9" x1="20504.09" y1="6234.44" x2="20504.09" y2="5154.44" gradientTransform="translate(-20417.72 -5154.44)" xlink:href="#linear-gradient"/></defs><g id="Graphic"><path class="cls-1" d="M666.9,0h0A413.1,413.1,0,0,1,1080,413.1V826.2a0,0,0,0,1,0,0H253.8a0,0,0,0,1,0,0V413.1A413.1,413.1,0,0,1,666.9,0Z" transform="translate(1333.8 826.2) rotate(180)"/><polygon class="cls-2" points="89.26 86.4 89.26 91.8 103.72 91.8 86.49 118.81 110.86 118.81 110.86 113.4 96.34 113.4 113.57 86.4 89.26 86.4"/><polygon class="cls-2" points="119.04 118.81 140.57 118.81 140.57 113.4 124.42 113.4 124.4 105.3 140.57 105.3 140.57 99.9 124.39 99.9 124.37 91.8 140.57 91.8 140.57 86.4 118.96 86.4 119.04 118.81"/><polygon class="cls-2" points="170.27 113.4 154.07 113.4 154.07 105.3 170.27 105.3 170.27 99.9 154.07 99.9 154.07 91.8 170.27 91.8 170.27 86.4 148.67 86.4 148.67 118.81 170.27 118.81 170.27 113.4"/><polygon class="cls-2" points="118.97 159.31 140.57 159.31 140.57 153.91 124.37 153.91 124.37 145.81 140.57 145.81 140.57 140.41 124.37 140.41 124.37 132.31 140.57 132.31 140.57 126.91 118.97 126.91 118.97 159.31"/><polygon class="cls-2" points="167.57 126.91 167.57 148.78 153.84 126.91 148.67 126.91 148.67 159.31 154.07 159.31 154.07 137.43 167.8 159.31 172.97 159.31 172.97 126.91 167.57 126.91"/><path class="cls-2" d="M84.33,684.36h15.85v2.95H94v17.48H90.55V687.31H84.33Z"/><path class="cls-2" d="M117.17,704.79H103.11V684.36h13.78v2.92H106.53V693h9.19v2.82h-9.19v6h10.64Z"/><path class="cls-2" d="M118.89,704.79l6.66-10.21L119,684.36h3.93l4.62,7.42,4.78-7.42h3.82l-6.68,10.13,6.82,10.3h-4l-4.79-7.41-4.64,7.41Z"/><path class="cls-2" d="M137.09,684.36h15.84v2.95h-6.19v17.48H143.3V687.31h-6.21Z"/><path class="cls-2" d="M164.77,704.79h-3.42V684.36h3.42v8.49h9.44v-8.49h3.42v20.43h-3.42v-9h-9.44Z"/><path class="cls-2" d="M191.92,690a2.84,2.84,0,0,0-.87-2.18,3.21,3.21,0,0,0-2.3-.82,3.49,3.49,0,0,0-3,1.33,5.78,5.78,0,0,0-.85,3.85l-3.32-.44a7,7,0,0,1,1.81-5.62,7.22,7.22,0,0,1,5.41-2.07,6.88,6.88,0,0,1,4.79,1.64,5.4,5.4,0,0,1,1.78,4.22,7.45,7.45,0,0,1-1.06,3.74,16.67,16.67,0,0,1-3.4,3.93l-4.87,4.35H196v2.89H181.52v-2.86l7.26-6.5a11.63,11.63,0,0,0,2.41-2.77A5.38,5.38,0,0,0,191.92,690Z"/><path class="cls-2" d="M206,698.25h-7.65v-2.82H206Z"/><path class="cls-2" d="M213.7,704.79h-3.42V684.36h3.42v8.49h9.44v-8.49h3.42v20.43h-3.42v-9H213.7Z"/><path class="cls-2" d="M245.45,704.79H231.39V684.36h13.78v2.92H234.81V693H244v2.82h-9.19v6h10.64Z"/><path class="cls-2" d="M261,700.27h-8.64l-1.66,4.52h-3.44l7.7-20.43h3.7l7.65,20.43H262.6Zm-7.58-2.83H260l-3.24-9Z"/><path class="cls-2" d="M277.45,704.79h-8.32V684.36h8.32a10.1,10.1,0,0,1,7.38,2.69,9.63,9.63,0,0,1,2.73,7.24,10.58,10.58,0,0,1-2.76,7.61A9.68,9.68,0,0,1,277.45,704.79Zm6.65-10.5a7,7,0,0,0-1.81-5.08,6.36,6.36,0,0,0-4.84-1.9h-4.9v14.53h4.9a6.14,6.14,0,0,0,4.84-2.06A8,8,0,0,0,284.1,694.29Z"/><path class="cls-2" d="M294.8,704.79h-3.42V684.36h3.42Z"/><path class="cls-2" d="M302.89,704.79h-3.26V684.36h3.76l9.1,14.39V684.36h3.28v20.43h-3l-9.9-15.61Z"/><path class="cls-2" d="M329.47,705.15a9.54,9.54,0,0,1-7.21-2.9,12,12,0,0,1,.06-15.31,9.67,9.67,0,0,1,7.41-2.92,9.94,9.94,0,0,1,5.93,1.69,8.12,8.12,0,0,1,3.17,4.78l-3.36.58a5.49,5.49,0,0,0-5.74-4.1,6.14,6.14,0,0,0-4.91,2,8.36,8.36,0,0,0-1.77,5.64,8,8,0,0,0,1.84,5.46,6.24,6.24,0,0,0,4.87,2.08,6.57,6.57,0,0,0,4.4-1.44,4.58,4.58,0,0,0,1.72-3.62v-.7H330v-2.7h9v11h-3.09v-2.54a6.9,6.9,0,0,1-2.73,2.15A8.94,8.94,0,0,1,329.47,705.15Z"/><path class="cls-2" d="M95.1,740.16a9.5,9.5,0,0,1-7.2-2.9,10.68,10.68,0,0,1-2.73-7.59A10.82,10.82,0,0,1,88,722,9.69,9.69,0,0,1,95.36,719a9.94,9.94,0,0,1,5.93,1.69,8.07,8.07,0,0,1,3.17,4.78l-3.36.58a5.49,5.49,0,0,0-5.74-4.1,6.15,6.15,0,0,0-4.91,2,8.36,8.36,0,0,0-1.77,5.64,8,8,0,0,0,1.84,5.46,6.24,6.24,0,0,0,4.87,2.08,6.57,6.57,0,0,0,4.4-1.44,4.58,4.58,0,0,0,1.72-3.62v-.7H95.62v-2.7h9v11h-3.09v-2.54a6.9,6.9,0,0,1-2.73,2.15A8.94,8.94,0,0,1,95.1,740.16Z"/><path class="cls-2" d="M127.46,729.59a10.8,10.8,0,0,1-2.7,7.67,10.28,10.28,0,0,1-14.31,0,12.3,12.3,0,0,1,0-15.34,10.26,10.26,0,0,1,14.28,0A10.72,10.72,0,0,1,127.46,729.59ZM113,724a10,10,0,0,0,0,11.14,6.3,6.3,0,0,0,9.3,0,10,10,0,0,0,0-11.14,6.32,6.32,0,0,0-9.3,0Z"/><path class="cls-2" d="M145.32,739.8H131.26V719.37H145v2.92H134.68V728h9.19v2.82h-9.19v6h10.64Z"/><path class="cls-2" d="M156.15,740.16a9.38,9.38,0,0,1-6-1.78,6.11,6.11,0,0,1-2.28-4.91l3.42-.38a4.28,4.28,0,0,0,1.34,3.19,5.23,5.23,0,0,0,3.54,1.1,4.36,4.36,0,0,0,2.89-.88,2.89,2.89,0,0,0,1.07-2.36,2.39,2.39,0,0,0-.73-1.86,5.5,5.5,0,0,0-2.54-1l-2.69-.55q-5.68-1.17-5.68-5.87a5.21,5.21,0,0,1,2-4.11,7.64,7.64,0,0,1,5.2-1.69,8.22,8.22,0,0,1,5.28,1.59A6.11,6.11,0,0,1,163.2,725l-3.48.38q-.37-3.57-4.1-3.57a4.26,4.26,0,0,0-2.74.79,2.54,2.54,0,0,0-1,2.11,2.62,2.62,0,0,0,.69,1.93,4.21,4.21,0,0,0,2.24,1l3.14.61a7.91,7.91,0,0,1,4.25,1.94,5,5,0,0,1,1.4,3.69,5.78,5.78,0,0,1-2.08,4.53A7.92,7.92,0,0,1,156.15,740.16Z"/><path class="cls-2" d="M177,739.8h-3.41V719.37H177v8.49h9.45v-8.49h3.42V739.8h-3.42v-9H177Z"/><path class="cls-2" d="M208.8,739.8H194.74V719.37h13.77v2.92H198.16V728h9.19v2.82h-9.19v6H208.8Z"/><path class="cls-2" d="M227.84,734.6l.3,5.2h-3.42l-.29-5.2a2.45,2.45,0,0,0-.94-1.94,4.43,4.43,0,0,0-2.64-.62H216v7.76h-3.42V719.37h8.49a7.68,7.68,0,0,1,5.1,1.61,5,5,0,0,1,2,4.09,5.83,5.83,0,0,1-.86,3.13,6.07,6.07,0,0,1-2.41,2.21A4.2,4.2,0,0,1,227.84,734.6Zm-3.17-9.19a2.81,2.81,0,0,0-1-2.29,4.26,4.26,0,0,0-2.82-.86H216v7h4.81a3.77,3.77,0,0,0,2.79-1.05A3.69,3.69,0,0,0,224.67,725.41Z"/><path class="cls-2" d="M246.42,739.8H232.36V719.37h13.78v2.92H235.78V728H245v2.82h-9.19v6h10.64Z"/><path class="cls-2" d="M88.56,505.18h31V517.4h-5.84v-7.29H98.25v13.82h13v4.9h-13v14.64h15.42v-7.29h5.84v12.19H88.56v-4.9h4.11V510.11H88.56Z"/><path class="cls-2" d="M151.93,505.18h14v4.93h-3.68v38.26H155l-20.09-35.81v30.91h4.45v4.9h-14v-4.9h4V510.11H125.2v-5h11.63l19.71,35.47.23-1.37V510.11h-4.84Z"/><path class="cls-2" d="M204.81,548.54v-8.66a14.48,14.48,0,0,1-2.71,3.92,15,15,0,0,1-3.62,2.75,17.45,17.45,0,0,1-4.25,1.62,19.89,19.89,0,0,1-4.61.54,20.89,20.89,0,0,1-7.77-1.41,17.74,17.74,0,0,1-6.46-4.49,20.71,20.71,0,0,1-4.41-7.29,25.58,25.58,0,0,1-1.53-8.8A24.72,24.72,0,0,1,171,518a21.84,21.84,0,0,1,4.27-7.15,19.89,19.89,0,0,1,6.55-4.79,19.62,19.62,0,0,1,8.25-1.74,19.06,19.06,0,0,1,7,1.17,19.51,19.51,0,0,1,5.05,2.84,23,23,0,0,1,3.34,3.17h2.77v5.07h-6.13a14.27,14.27,0,0,0-5.06-5.12A14.07,14.07,0,0,0,184,511a14.63,14.63,0,0,0-4.69,3.76,17.71,17.71,0,0,0-3,5.44,19.49,19.49,0,0,0-1.08,6.5,20.34,20.34,0,0,0,1.19,7,15.93,15.93,0,0,0,3,5.28,15,15,0,0,0,4.57,3.34,13.54,13.54,0,0,0,6,1.33,14.41,14.41,0,0,0,9-2.67q3.5-2.65,4.9-8.3H191.85v-4.9h18.26v20.71Z"/><path class="cls-2" d="M219.43,505.18h14v4.93h-4.33v33.36H244a2.12,2.12,0,0,0,.91-.21,3.36,3.36,0,0,0,.83-.56,2.81,2.81,0,0,0,.6-.78,2,2,0,0,0,.23-.9v-5.44H252v12.79H219.43v-4.9h4.1V510.11h-4.1Z"/><path class="cls-2" d="M256.35,505.18h13.79v4.93H266v33.36h4.1v4.9H256.35v-4.9h4.1V510.11h-4.1Z"/><path class="cls-2" d="M299.51,513.16a7,7,0,0,0-2-1.93,9.4,9.4,0,0,0-2.41-1,9.9,9.9,0,0,0-2.62-.36,13,13,0,0,0-3.79.5A7.89,7.89,0,0,0,286,511.7a5.57,5.57,0,0,0-1.61,2,5.37,5.37,0,0,0-.55,2.39,6,6,0,0,0,.67,3,5.65,5.65,0,0,0,1.7,1.86,8.75,8.75,0,0,0,2.26,1.09l2.38.8,5.76,1.88a27.61,27.61,0,0,1,4.57,1.88,12.61,12.61,0,0,1,3.32,2.49,10,10,0,0,1,2,3.32,12.66,12.66,0,0,1,.7,4.36,11.3,11.3,0,0,1-1.1,5,12,12,0,0,1-3.06,4,14.77,14.77,0,0,1-4.69,2.64,18.14,18.14,0,0,1-6,.95,19,19,0,0,1-5.7-.75,12.46,12.46,0,0,1-4-2,10.34,10.34,0,0,1-2.58-2.89,15.48,15.48,0,0,1-1.51-3.33h-2.17v-4.9h7.18a10.72,10.72,0,0,0,.67,4.47,6.14,6.14,0,0,0,1.87,2.18,8.5,8.5,0,0,0,2.85,1.31,13.86,13.86,0,0,0,3.64.44,12.46,12.46,0,0,0,3.49-.45,7.76,7.76,0,0,0,2.65-1.33,5.75,5.75,0,0,0,1.69-2.11,6.61,6.61,0,0,0,.58-2.8,5.56,5.56,0,0,0-.73-3,7.07,7.07,0,0,0-1.86-2.07,10.68,10.68,0,0,0-2.5-1.39c-.9-.36-1.77-.68-2.6-.94L287.18,528a18.17,18.17,0,0,1-3.75-1.6,11,11,0,0,1-2.91-2.36,10.15,10.15,0,0,1-1.86-3.26,13,13,0,0,1-.66-4.32,11.31,11.31,0,0,1,1-4.64,10.81,10.81,0,0,1,2.85-3.79,13.45,13.45,0,0,1,4.6-2.55,19.25,19.25,0,0,1,6.23-.93,15.92,15.92,0,0,1,4.26.54,13.23,13.23,0,0,1,3.53,1.53,12.39,12.39,0,0,1,2.79,2.36,14,14,0,0,1,2,3h2.14v4.9h-7A6.35,6.35,0,0,0,299.51,513.16Z"/><path class="cls-2" d="M355.87,505.18h14v4.9h-4.11v33.39h4.11v4.9h-14v-4.9h4.33V527.94h-25v15.53h4.33v4.9h-14v-4.9h4.1V510.08h-4.1v-4.9h14v4.9h-4.33v13.08h25V510.08h-4.33Z"/><path class="cls-2" d="M380.86,543.47H385v-31.6l-8.74,4.76v-5.95l12-6.73h2.28v39.52h4.25v4.9h-14Z"/><path class="cls-2" d="M118.91,575.2h14v4.9h-4.11v33.39h4.11v4.9h-14v-4.9h4.33V598h-25v15.53h4.33v4.9h-14v-4.9h4.11V580.1H88.56v-4.9h14v4.9H98.25v13.08h25V580.1h-4.33Z"/><path class="cls-2" d="M141.07,575.2h31v12.22h-5.85v-7.29H150.76V594h13v4.9h-13v14.64h15.41V606.2H172v12.19h-31v-4.9h4.11V580.13h-4.11Z"/><path class="cls-2" d="M203.27,613.49h3.59l-3.42-9.8H186.83l-3.33,9.8h4.44v4.9h-14v-4.9h3.77l13.44-38.29h8.41L213,613.49h4.33v4.9h-14ZM188.46,599h13.33l-6.73-19.32Z"/><path class="cls-2" d="M221.65,575.2h16.07a20.55,20.55,0,0,1,18,10.63,21.6,21.6,0,0,1,2,5.14,22.45,22.45,0,0,1,.72,5.71,22.83,22.83,0,0,1-.72,5.78,22.15,22.15,0,0,1-2,5.19,21.13,21.13,0,0,1-3.21,4.4,20.35,20.35,0,0,1-4.19,3.39,20,20,0,0,1-5,2.18,20.49,20.49,0,0,1-5.64.77H221.65v-4.9h4.1V580.13h-4.1Zm9.68,4.93v33.36h6.73a12.55,12.55,0,0,0,5.63-1.31,14.75,14.75,0,0,0,4.6-3.58,17.16,17.16,0,0,0,3.1-5.32,18.8,18.8,0,0,0,1.14-6.6,18.28,18.28,0,0,0-1.14-6.5,16.92,16.92,0,0,0-3.1-5.25,14.56,14.56,0,0,0-4.6-3.52,12.66,12.66,0,0,0-5.63-1.28Z"/><path class="cls-2" d="M264.58,575.2h13.79v4.93h-4.1v33.36h4.1v4.9H264.58v-4.9h4.11V580.13h-4.11Z"/><path class="cls-2" d="M313.25,575.2h14v4.93h-3.67v38.26H316.3l-20.09-35.81v30.91h4.44v4.9h-14v-4.9h4V580.13h-4.1v-5h11.63l19.71,35.47.23-1.36V580.13h-4.84Z"/><path class="cls-2" d="M366.13,618.56V609.9a14.78,14.78,0,0,1-6.33,6.67,17.36,17.36,0,0,1-4.26,1.62,19.75,19.75,0,0,1-4.6.54,21,21,0,0,1-7.78-1.41,17.79,17.79,0,0,1-6.45-4.49,20.88,20.88,0,0,1-4.42-7.29,25.81,25.81,0,0,1-1.52-8.8,25,25,0,0,1,1.52-8.72,21.86,21.86,0,0,1,4.28-7.15,19.68,19.68,0,0,1,14.8-6.53,18.64,18.64,0,0,1,12.09,4,23.16,23.16,0,0,1,3.35,3.17h2.76v5.07h-6.12a14.27,14.27,0,0,0-5.06-5.12,14.07,14.07,0,0,0-13.06-.43,14.52,14.52,0,0,0-4.69,3.76,17.71,17.71,0,0,0-3,5.44,19.24,19.24,0,0,0-1.09,6.5,20.11,20.11,0,0,0,1.2,7,15.61,15.61,0,0,0,3,5.27,15,15,0,0,0,4.57,3.35,13.51,13.51,0,0,0,6,1.33,14.38,14.38,0,0,0,9-2.67q3.51-2.65,4.9-8.3H353.16v-4.9h18.27v20.71Z"/><path class="cls-2" d="M426.84,618.56V609.9a14.48,14.48,0,0,1-2.71,3.92,15,15,0,0,1-3.61,2.75,17.36,17.36,0,0,1-4.26,1.62,19.81,19.81,0,0,1-4.6.54,20.91,20.91,0,0,1-7.78-1.41,17.74,17.74,0,0,1-6.46-4.49,20.86,20.86,0,0,1-4.41-7.29,25.58,25.58,0,0,1-1.53-8.8A24.72,24.72,0,0,1,393,588a21.84,21.84,0,0,1,4.27-7.15,19.89,19.89,0,0,1,6.55-4.79,19.62,19.62,0,0,1,8.25-1.74,19.06,19.06,0,0,1,7.05,1.17,19.51,19.51,0,0,1,5.05,2.84,23,23,0,0,1,3.34,3.17h2.77v5.07h-6.13a14.33,14.33,0,0,0-5.05-5.12A14.09,14.09,0,0,0,406,581a14.59,14.59,0,0,0-4.68,3.76,17.53,17.53,0,0,0-3,5.44,19.49,19.49,0,0,0-1.08,6.5,20.11,20.11,0,0,0,1.2,7,15.59,15.59,0,0,0,3,5.27,15,15,0,0,0,4.58,3.35,13.46,13.46,0,0,0,6,1.33,14.41,14.41,0,0,0,9-2.67q3.49-2.65,4.9-8.3H413.88v-4.9h18.26v20.71Z"/><path class="cls-2" d="M460.15,619.25a19.74,19.74,0,0,1-8.18-1.67,20.84,20.84,0,0,1-11-12,25.93,25.93,0,0,1-1.51-8.75A24.88,24.88,0,0,1,441,588a21.69,21.69,0,0,1,4.27-7.14,19.94,19.94,0,0,1,6.56-4.78,20.18,20.18,0,0,1,23.31,4.78,21.64,21.64,0,0,1,4.25,7.14,26.11,26.11,0,0,1,0,17.53,21.92,21.92,0,0,1-4.28,7.14,19.76,19.76,0,0,1-14.91,6.56Zm0-5.3a13.4,13.4,0,0,0,6.14-1.4A14.48,14.48,0,0,0,471,608.8a17,17,0,0,0,3-5.45,20.9,20.9,0,0,0-.1-13.38,16.29,16.29,0,0,0-3.22-5.57,14.61,14.61,0,0,0-4.8-3.52,13.8,13.8,0,0,0-5.7-1.24A13.51,13.51,0,0,0,454,581a14.45,14.45,0,0,0-4.7,3.75,17,17,0,0,0-3,5.47,21.61,21.61,0,0,0,.11,13.64,15.41,15.41,0,0,0,3.1,5.19,16.9,16.9,0,0,0,4.58,3.46A12.89,12.89,0,0,0,460.15,614Z"/><path class="cls-2" d="M487,575.2H517.9v12.22h-5.84v-7.29H496.64V594h13v4.9h-13v14.64h15.42V606.2h5.84v12.19H487v-4.9h4.1V580.13H487Z"/><path class="cls-2" d="M544.82,583.18a7,7,0,0,0-2-1.93,9.18,9.18,0,0,0-2.4-1,9.9,9.9,0,0,0-2.62-.36,13,13,0,0,0-3.79.5,8,8,0,0,0-2.7,1.35,5.68,5.68,0,0,0-1.61,2,5.5,5.5,0,0,0-.54,2.39,6,6,0,0,0,.67,3,5.65,5.65,0,0,0,1.7,1.86,8.75,8.75,0,0,0,2.26,1.09c.83.27,1.62.53,2.38.8l5.76,1.88a27.61,27.61,0,0,1,4.57,1.88,12.83,12.83,0,0,1,3.32,2.49,10,10,0,0,1,2,3.32,12.67,12.67,0,0,1,.69,4.36,11.29,11.29,0,0,1-1.09,5,11.9,11.9,0,0,1-3.07,4,14.61,14.61,0,0,1-4.68,2.64,18.14,18.14,0,0,1-6,1,19,19,0,0,1-5.7-.75,12.46,12.46,0,0,1-4-2,10.34,10.34,0,0,1-2.58-2.89,15.48,15.48,0,0,1-1.51-3.33H521.8v-4.9H529a10.72,10.72,0,0,0,.67,4.47,6.14,6.14,0,0,0,1.87,2.18,8.5,8.5,0,0,0,2.85,1.31,13.81,13.81,0,0,0,3.64.44,12.46,12.46,0,0,0,3.49-.45,7.76,7.76,0,0,0,2.65-1.33,5.83,5.83,0,0,0,1.68-2.11,6.46,6.46,0,0,0,.59-2.8,5.59,5.59,0,0,0-.73-2.95,7.07,7.07,0,0,0-1.86-2.07,10.89,10.89,0,0,0-2.5-1.39c-.9-.36-1.77-.68-2.6-.94L532.49,598a18.17,18.17,0,0,1-3.75-1.6,11,11,0,0,1-2.91-2.36A10,10,0,0,1,524,590.8a13,13,0,0,1-.66-4.32,11.31,11.31,0,0,1,1-4.64,10.81,10.81,0,0,1,2.85-3.79,13.62,13.62,0,0,1,4.6-2.55,19.21,19.21,0,0,1,6.23-.93,15.92,15.92,0,0,1,4.26.54,13.37,13.37,0,0,1,3.53,1.53,12.39,12.39,0,0,1,2.79,2.36,14,14,0,0,1,2,3h2.14v4.9h-7A6.36,6.36,0,0,0,544.82,583.18Z"/><path class="cls-2" d="M601.18,575.2h14v4.9h-4.11v33.39h4.11v4.9h-14v-4.9h4.33V598h-25v15.53h4.33v4.9h-14v-4.9h4.1V580.1h-4.1v-4.9h14v4.9h-4.33v13.08h25V580.1h-4.33Z"/><path class="cls-2" d="M623.34,575.2h30.95v12.22h-5.84v-7.29H633V594h13v4.9H633v14.64h15.42V606.2h5.84v12.19H623.34v-4.9h4.11V580.13h-4.11Z"/><path class="cls-2" d="M660,575.2h18a18,18,0,0,1,5.32.75,12.29,12.29,0,0,1,4.21,2.23,9.85,9.85,0,0,1,2.78,3.66,12,12,0,0,1,1,5,9.15,9.15,0,0,1-.59,3.2,11.11,11.11,0,0,1-1.62,2.94,12.5,12.5,0,0,1-2.46,2.41,11.38,11.38,0,0,1-3.11,1.62,6.78,6.78,0,0,1,1.44.9,8.45,8.45,0,0,1,1.37,1.42,12.1,12.1,0,0,1,1.16,1.91,11.24,11.24,0,0,1,.85,2.3l2.39,9.4h3.73l.06,5.41h-8.41l-3.22-13.13a10.26,10.26,0,0,0-2.69-5.2,7,7,0,0,0-4.94-1.67h-5.56v15.1H674v4.9H660v-4.9h4.11V580.13H660Zm9.69,4.93v13.59H678a10,10,0,0,0,3-.43,6.64,6.64,0,0,0,2.34-1.28,5.94,5.94,0,0,0,1.53-2.13,7.08,7.08,0,0,0,.56-2.94,6.52,6.52,0,0,0-1.94-5c-1.29-1.2-3.34-1.79-6.15-1.79Z"/><path class="cls-2" d="M701.52,575.2h31v12.22h-5.84v-7.29H711.21V594h13v4.9h-13v14.64h15.42V606.2h5.84v12.19h-31v-4.9h4.11V580.13h-4.11Z"/><rect class="cls-2" x="86.53" y="659.43" width="43.2" height="4.32"/><rect class="cls-3" width="86.37" height="21.59"/><rect class="cls-3" y="64.78" width="86.37" height="21.59"/><rect class="cls-3" x="-3.86" y="32.41" width="94.13" height="21.59" transform="translate(-17.61 37.3) rotate(-39.46)"/><rect class="cls-3" x="993.58" y="993.63" width="86.37" height="21.59"/><rect class="cls-3" x="993.58" y="1058.41" width="86.37" height="21.59"/><rect class="cls-3" x="989.72" y="1026.04" width="94.13" height="21.59" transform="translate(-422.62 895.16) rotate(-39.46)"/><rect class="cls-3" y="993.63" width="86.37" height="21.59"/><rect class="cls-3" y="1058.41" width="86.37" height="21.59"/><rect class="cls-3" x="-3.86" y="1026.04" width="94.13" height="21.59" transform="translate(-649.06 263.74) rotate(-39.46)"/><rect class="cls-3" y="618.41" width="86.37" height="21.59"/><rect class="cls-3" y="683.18" width="86.37" height="21.59"/><rect class="cls-3" x="-3.86" y="650.81" width="94.13" height="21.59" transform="translate(-410.6 178.23) rotate(-39.46)"/><rect class="cls-3" y="739.8" width="86.37" height="21.59"/><rect class="cls-3" y="804.58" width="86.37" height="21.59"/><rect class="cls-3" x="-3.86" y="772.21" width="94.13" height="21.59" transform="translate(-487.75 205.9) rotate(-39.46)"/><path class="cls-2" d="M101.57,922.1H89.21V901.67h2.12v18.54h10.24Z"/><path class="cls-2" d="M103.07,914.87a8,8,0,0,1,1.86-5.52,7.15,7.15,0,0,1,10.1,0,9,9,0,0,1,0,11,7.17,7.17,0,0,1-10.1,0A8,8,0,0,1,103.07,914.87Zm10.5,4.28a6.46,6.46,0,0,0,1.32-4.28,6.57,6.57,0,0,0-1.32-4.31,4.8,4.8,0,0,0-7.14,0,6.62,6.62,0,0,0-1.31,4.31,6.51,6.51,0,0,0,1.3,4.28,4.81,4.81,0,0,0,7.15,0Z"/><path class="cls-2" d="M122.58,922.1h-2V907.6h2v2.84a4.6,4.6,0,0,1,4.32-2.84H128v1.92H126.9a3.64,3.64,0,0,0-3.12,1.78,8.14,8.14,0,0,0-1.2,4.65Z"/><path class="cls-2" d="M136.4,920.82a3.71,3.71,0,0,0,4-3.33l1.89.3a5,5,0,0,1-1.9,3.41,6.36,6.36,0,0,1-4,1.26,6.48,6.48,0,0,1-5.1-2,8.15,8.15,0,0,1-1.76-5.66,8,8,0,0,1,1.83-5.52,6.36,6.36,0,0,1,5-2.06,5.85,5.85,0,0,1,4.57,1.79,7.14,7.14,0,0,1,1.63,5v1.23H131.59C131.7,919,133.31,920.82,136.4,920.82Zm-.1-11.94a4.34,4.34,0,0,0-3.22,1.21,5.77,5.77,0,0,0-1.44,3.55h8.78Q140.21,908.89,136.3,908.88Z"/><path class="cls-2" d="M157.74,914.2v7.9h-2v-9a4.5,4.5,0,0,0-.91-3,3.16,3.16,0,0,0-2.58-1.07,3.56,3.56,0,0,0-3,1.33,6.15,6.15,0,0,0-1,3.87v7.9h-2V907.6h2v1.84a4.91,4.91,0,0,1,4.34-2.18,5.48,5.48,0,0,1,2.85.7,4.25,4.25,0,0,1,1.77,2,5,5,0,0,1,4.78-2.73,5.11,5.11,0,0,1,3.87,1.46,5.5,5.5,0,0,1,1.4,4v9.39h-2v-9a4.5,4.5,0,0,0-.91-3,3.18,3.18,0,0,0-2.59-1.07,3.53,3.53,0,0,0-3,1.33A6.22,6.22,0,0,0,157.74,914.2Z"/><path class="cls-2" d="M180.71,905h-2v-3.34h2Zm0,17.09h-2V907.6h2Z"/><path class="cls-2" d="M192.22,907.26a5.86,5.86,0,0,1,4.7,2,8,8,0,0,1,1.78,5.45,8.45,8.45,0,0,1-1.78,5.6,5.82,5.82,0,0,1-4.7,2.11,5.58,5.58,0,0,1-4.88-2.55v7.59h-2V907.6h2v2.28A5.53,5.53,0,0,1,192.22,907.26Zm4.43,7.61a6.8,6.8,0,0,0-1.23-4.29,4,4,0,0,0-3.35-1.58,4.25,4.25,0,0,0-3.48,1.6,7.57,7.57,0,0,0,0,8.5,4.23,4.23,0,0,0,3.47,1.61,4,4,0,0,0,3.35-1.58A6.74,6.74,0,0,0,196.65,914.87Z"/><path class="cls-2" d="M207.33,922.46a6.76,6.76,0,0,1-4.34-1.31,4.57,4.57,0,0,1-1.76-3.51l2-.35a4,4,0,0,0,1.24,2.66,4.38,4.38,0,0,0,2.9.84,4,4,0,0,0,2.57-.72,2.55,2.55,0,0,0,.88-2.11c0-1.26-1-2-2.92-2.37l-2-.31c-2.8-.47-4.2-1.79-4.2-4a3.55,3.55,0,0,1,1.44-2.9,6.91,6.91,0,0,1,7.62,0,5.11,5.11,0,0,1,1.82,3.31l-1.81.31a4.31,4.31,0,0,0-1.32-2.39,4,4,0,0,0-2.54-.73,4.08,4.08,0,0,0-2.41.63,2,2,0,0,0-.88,1.68,2,2,0,0,0,.61,1.53,3.42,3.42,0,0,0,1.92.75l2.28.37c2.9.47,4.35,1.84,4.35,4.09a4.06,4.06,0,0,1-1.47,3.26A5.93,5.93,0,0,1,207.33,922.46Z"/><path class="cls-2" d="M226,907.6h2v14.5h-2v-1.86a5.07,5.07,0,0,1-4.5,2.22,5.13,5.13,0,0,1-3.88-1.47,5.49,5.49,0,0,1-1.42-4v-9.4h2v9a4.34,4.34,0,0,0,1,3,3.42,3.42,0,0,0,2.7,1.06,3.72,3.72,0,0,0,3.1-1.33,5.94,5.94,0,0,0,1.07-3.84Z"/><path class="cls-2" d="M244.13,914.2v7.9h-2v-9a4.55,4.55,0,0,0-.9-3,3.2,3.2,0,0,0-2.59-1.07,3.56,3.56,0,0,0-3,1.33,6.22,6.22,0,0,0-1,3.87v7.9h-2V907.6h2v1.84a4.94,4.94,0,0,1,4.35-2.18,5.48,5.48,0,0,1,2.85.7,4.28,4.28,0,0,1,1.76,2,5,5,0,0,1,4.79-2.73,5.14,5.14,0,0,1,3.87,1.46,5.54,5.54,0,0,1,1.4,4v9.39h-2v-9a4.56,4.56,0,0,0-.91-3,3.2,3.2,0,0,0-2.6-1.07,3.54,3.54,0,0,0-3,1.33A6.22,6.22,0,0,0,244.13,914.2Z"/><path class="cls-2" d="M270.62,922.46a6,6,0,0,1-4.72-2.05,8.12,8.12,0,0,1-1.76-5.46,8.39,8.39,0,0,1,1.76-5.57,5.86,5.86,0,0,1,4.72-2.12,5.58,5.58,0,0,1,4.88,2.53v-8.12h2V922.1h-2v-2.28A5.53,5.53,0,0,1,270.62,922.46Zm-4.43-7.62a6.79,6.79,0,0,0,1.23,4.28,4,4,0,0,0,3.35,1.59,4.26,4.26,0,0,0,3.48-1.61,7.52,7.52,0,0,0,0-8.47,4.22,4.22,0,0,0-3.47-1.63,4,4,0,0,0-3.35,1.57A6.75,6.75,0,0,0,266.19,914.84Z"/><path class="cls-2" d="M281.15,914.87a7.94,7.94,0,0,1,1.87-5.52,7.15,7.15,0,0,1,10.1,0,9,9,0,0,1,0,11,7.17,7.17,0,0,1-10.1,0A7.91,7.91,0,0,1,281.15,914.87Zm10.51,4.28a6.46,6.46,0,0,0,1.32-4.28,6.57,6.57,0,0,0-1.32-4.31,4.81,4.81,0,0,0-7.15,0,6.62,6.62,0,0,0-1.31,4.31,6.51,6.51,0,0,0,1.31,4.28,4.36,4.36,0,0,0,3.57,1.59A4.42,4.42,0,0,0,291.66,919.15Z"/><path class="cls-2" d="M300.67,922.1h-2V901.67h2Z"/><path class="cls-2" d="M304.33,914.87a7.94,7.94,0,0,1,1.87-5.52,7.15,7.15,0,0,1,10.1,0,9,9,0,0,1,0,11,7.17,7.17,0,0,1-10.1,0A7.91,7.91,0,0,1,304.33,914.87Zm10.51,4.28a6.51,6.51,0,0,0,1.31-4.28,6.62,6.62,0,0,0-1.31-4.31,4.42,4.42,0,0,0-3.59-1.59,4.36,4.36,0,0,0-3.56,1.59,7.72,7.72,0,0,0,0,8.59,4.37,4.37,0,0,0,3.57,1.59A4.42,4.42,0,0,0,314.84,919.15Z"/><path class="cls-2" d="M323.85,922.1h-2V907.6h2v2.84a4.58,4.58,0,0,1,4.31-2.84h1.09v1.92h-1.09A3.64,3.64,0,0,0,325,911.3a8.14,8.14,0,0,0-1.19,4.65Z"/><path class="cls-2" d="M343.35,922.46a6.79,6.79,0,0,1-4.35-1.31,4.6,4.6,0,0,1-1.75-3.51l1.95-.35a4.09,4.09,0,0,0,1.24,2.66,4.43,4.43,0,0,0,2.91.84,4,4,0,0,0,2.57-.72,2.58,2.58,0,0,0,.88-2.11c0-1.26-1-2-2.92-2.37l-2-.31c-2.81-.47-4.21-1.79-4.21-4a3.53,3.53,0,0,1,1.45-2.9,6.91,6.91,0,0,1,7.62,0,5.15,5.15,0,0,1,1.82,3.31l-1.81.31a4.26,4.26,0,0,0-1.33-2.39,3.93,3.93,0,0,0-2.53-.73,4.08,4.08,0,0,0-2.41.63,2.13,2.13,0,0,0-.28,3.21,3.46,3.46,0,0,0,1.93.75l2.28.37c2.9.47,4.35,1.84,4.35,4.09a4.06,4.06,0,0,1-1.47,3.26A5.93,5.93,0,0,1,343.35,922.46Z"/><path class="cls-2" d="M354.36,905h-2v-3.34h2Zm0,17.09h-2V907.6h2Z"/><path class="cls-2" d="M357.21,909.27V907.6h2.68v-4.79h2v4.79h3.93v1.67h-3.93V918a2.83,2.83,0,0,0,.45,1.83,2,2,0,0,0,1.56.51h2.31v1.72h-2.55a3.74,3.74,0,0,1-2.79-1,3.82,3.82,0,0,1-1-2.81v-9Z"/><path class="cls-2" d="M387.68,920.44h.76v1.66h-1.2a2.8,2.8,0,0,1-1.83-.6,1.94,1.94,0,0,1-.74-1.59v-.12a5.1,5.1,0,0,1-4.72,2.67,5.38,5.38,0,0,1-3.65-1.18,3.84,3.84,0,0,1-1.37-3,4,4,0,0,1,1.14-2.92,5.87,5.87,0,0,1,3.23-1.53l4.41-.75a1,1,0,0,0,.94-1.11,2.73,2.73,0,0,0-1-2.17,3.79,3.79,0,0,0-2.61-.84,3.59,3.59,0,0,0-3.9,3l-1.86-.26a4.92,4.92,0,0,1,1.9-3.17,6.32,6.32,0,0,1,3.95-1.2,5.63,5.63,0,0,1,4,1.35,4.7,4.7,0,0,1,1.45,3.61v7.11a1.2,1.2,0,0,0,.25.86A1.16,1.16,0,0,0,387.68,920.44Zm-10.77-2.31a2.43,2.43,0,0,0,.83,2,3.41,3.41,0,0,0,2.29.71,4.28,4.28,0,0,0,3.33-1.46,5.64,5.64,0,0,0,1.31-3.85v-.93l-5.18.9a3.13,3.13,0,0,0-1.9.91A2.48,2.48,0,0,0,376.91,918.13Z"/><path class="cls-2" d="M402.64,914.2v7.9h-2v-9a4.55,4.55,0,0,0-.9-3,3.18,3.18,0,0,0-2.59-1.07,3.57,3.57,0,0,0-3,1.33,6.22,6.22,0,0,0-1,3.87v7.9h-2V907.6h2v1.84a4.94,4.94,0,0,1,4.35-2.18,5.48,5.48,0,0,1,2.85.7,4.28,4.28,0,0,1,1.76,2,5,5,0,0,1,4.79-2.73,5.14,5.14,0,0,1,3.87,1.46,5.54,5.54,0,0,1,1.4,4v9.39h-2v-9a4.5,4.5,0,0,0-.91-3,3.2,3.2,0,0,0-2.59-1.07,3.54,3.54,0,0,0-3,1.33A6.22,6.22,0,0,0,402.64,914.2Z"/><path class="cls-2" d="M422.53,920.82a3.7,3.7,0,0,0,4-3.33l1.9.3a5,5,0,0,1-1.91,3.41,6.33,6.33,0,0,1-4,1.26,6.49,6.49,0,0,1-5.11-2,8.2,8.2,0,0,1-1.76-5.66,8,8,0,0,1,1.84-5.52,6.33,6.33,0,0,1,4.95-2.06,5.89,5.89,0,0,1,4.58,1.79,7.18,7.18,0,0,1,1.62,5v1.23H417.71Q417.88,920.82,422.53,920.82Zm-.11-11.94a4.34,4.34,0,0,0-3.22,1.21,5.77,5.77,0,0,0-1.43,3.55h8.77Q426.33,908.89,422.42,908.88Z"/><path class="cls-2" d="M430.42,909.27V907.6h2.68v-4.79h2v4.79H439v1.67h-3.93V918a2.83,2.83,0,0,0,.45,1.83,2,2,0,0,0,1.56.51h2.31v1.72h-2.55a3.74,3.74,0,0,1-2.79-1,3.82,3.82,0,0,1-1-2.81v-9Z"/><path class="cls-2" d="M442.54,925.75h-1.89l1.69-6.48h2Z"/><path class="cls-2" d="M460.56,920.74a4,4,0,0,0,2.87-1,4.31,4.31,0,0,0,1.28-2.84l2,.21a5.76,5.76,0,0,1-1.9,3.9,6.85,6.85,0,0,1-9.1-.55,8.09,8.09,0,0,1-1.78-5.52,8.28,8.28,0,0,1,1.78-5.57,6.1,6.1,0,0,1,4.87-2.09,6.34,6.34,0,0,1,4.26,1.37,5.81,5.81,0,0,1,1.95,3.84l-2.09.24Q464.1,909,460.5,909a4,4,0,0,0-3.35,1.57,7.15,7.15,0,0,0-1.19,4.38,6.74,6.74,0,0,0,1.21,4.27A4.07,4.07,0,0,0,460.56,920.74Z"/><path class="cls-2" d="M469.25,914.87a7.94,7.94,0,0,1,1.87-5.52,7.15,7.15,0,0,1,10.1,0,9,9,0,0,1,0,11,7.17,7.17,0,0,1-10.1,0A7.91,7.91,0,0,1,469.25,914.87Zm10.51,4.28a6.46,6.46,0,0,0,1.32-4.28,6.57,6.57,0,0,0-1.32-4.31,4.42,4.42,0,0,0-3.59-1.59,4.38,4.38,0,0,0-3.56,1.59,6.62,6.62,0,0,0-1.31,4.31,6.51,6.51,0,0,0,1.31,4.28,4.34,4.34,0,0,0,3.56,1.59A4.42,4.42,0,0,0,479.76,919.15Z"/><path class="cls-2" d="M498.87,912.71v9.39h-2v-9a4.27,4.27,0,0,0-1-3,3.59,3.59,0,0,0-2.81-1.07,4,4,0,0,0-3.22,1.32,6,6,0,0,0-1.09,3.88v7.9h-2V907.6h2v1.92a5.13,5.13,0,0,1,4.64-2.26,5,5,0,0,1,5.46,5.45Z"/><path class="cls-2" d="M508.28,922.46a6.76,6.76,0,0,1-4.34-1.31,4.56,4.56,0,0,1-1.75-3.51l1.95-.35a4,4,0,0,0,1.24,2.66,4.38,4.38,0,0,0,2.9.84,4,4,0,0,0,2.58-.72,2.58,2.58,0,0,0,.87-2.11c0-1.26-1-2-2.92-2.37l-2-.31c-2.8-.47-4.2-1.79-4.2-4a3.55,3.55,0,0,1,1.44-2.9,6.93,6.93,0,0,1,7.63,0,5.14,5.14,0,0,1,1.81,3.31l-1.81.31a4.19,4.19,0,0,0-1.32-2.39,4,4,0,0,0-2.54-.73,4.1,4.1,0,0,0-2.41.63,2,2,0,0,0-.88,1.68,2,2,0,0,0,.61,1.53,3.43,3.43,0,0,0,1.93.75l2.28.37c2.89.47,4.34,1.84,4.34,4.09a4.06,4.06,0,0,1-1.47,3.26A5.89,5.89,0,0,1,508.28,922.46Z"/><path class="cls-2" d="M523.21,920.82a3.71,3.71,0,0,0,4-3.33l1.89.3a4.93,4.93,0,0,1-1.9,3.41,6.36,6.36,0,0,1-4,1.26,6.48,6.48,0,0,1-5.1-2,8.15,8.15,0,0,1-1.76-5.66,8,8,0,0,1,1.83-5.52,6.36,6.36,0,0,1,5-2.06,5.85,5.85,0,0,1,4.57,1.79,7.14,7.14,0,0,1,1.63,5v1.23H518.4C518.51,919,520.12,920.82,523.21,920.82Zm-.1-11.94a4.34,4.34,0,0,0-3.22,1.21,5.71,5.71,0,0,0-1.43,3.55h8.77Q527,908.89,523.11,908.88Z"/><path class="cls-2" d="M538.74,920.74a4,4,0,0,0,2.87-1,4.31,4.31,0,0,0,1.28-2.84l2,.21A5.76,5.76,0,0,1,543,921a6.85,6.85,0,0,1-9.1-.55,8.09,8.09,0,0,1-1.78-5.52,8.28,8.28,0,0,1,1.78-5.57,6.1,6.1,0,0,1,4.87-2.09,6.34,6.34,0,0,1,4.26,1.37,5.81,5.81,0,0,1,2,3.84l-2.09.24q-.58-3.74-4.18-3.74a4,4,0,0,0-3.35,1.57,7.15,7.15,0,0,0-1.19,4.38,6.74,6.74,0,0,0,1.21,4.27A4.07,4.07,0,0,0,538.74,920.74Z"/><path class="cls-2" d="M546.62,909.27V907.6h2.68v-4.79h2v4.79h3.93v1.67h-3.93V918a2.83,2.83,0,0,0,.45,1.83,2,2,0,0,0,1.56.51h2.31v1.72h-2.55a3.74,3.74,0,0,1-2.79-1,3.82,3.82,0,0,1-1-2.81v-9Z"/><path class="cls-2" d="M564.13,920.82a3.7,3.7,0,0,0,4-3.33l1.9.3a5,5,0,0,1-1.91,3.41,6.33,6.33,0,0,1-4,1.26,6.49,6.49,0,0,1-5.11-2,8.2,8.2,0,0,1-1.76-5.66,8,8,0,0,1,1.84-5.52,6.33,6.33,0,0,1,5-2.06,5.87,5.87,0,0,1,4.57,1.79,7.18,7.18,0,0,1,1.62,5v1.23H559.31C559.43,919,561,920.82,564.13,920.82Zm-.1-11.94a4.34,4.34,0,0,0-3.23,1.21,5.77,5.77,0,0,0-1.43,3.55h8.77Q567.93,908.89,564,908.88Z"/><path class="cls-2" d="M572,909.27V907.6h2.68v-4.79h2v4.79h3.93v1.67h-3.93V918a2.83,2.83,0,0,0,.45,1.83,2,2,0,0,0,1.56.51H581v1.72h-2.55a3.74,3.74,0,0,1-2.79-1,3.82,3.82,0,0,1-1-2.81v-9Z"/><path class="cls-2" d="M593.49,907.6h2v14.5h-2v-1.86a5.09,5.09,0,0,1-4.5,2.22A5.16,5.16,0,0,1,585.1,921a5.52,5.52,0,0,1-1.41-4v-9.4h2v9a4.33,4.33,0,0,0,.94,3,3.43,3.43,0,0,0,2.7,1.06,3.74,3.74,0,0,0,3.11-1.33,6,6,0,0,0,1.07-3.84Z"/><path class="cls-2" d="M606,920.82a3.71,3.71,0,0,0,4-3.33l1.89.3a4.93,4.93,0,0,1-1.9,3.41,6.36,6.36,0,0,1-4,1.26,6.48,6.48,0,0,1-5.1-2,8.15,8.15,0,0,1-1.76-5.66,8,8,0,0,1,1.83-5.52,6.36,6.36,0,0,1,5-2.06,5.85,5.85,0,0,1,4.57,1.79,7.14,7.14,0,0,1,1.63,5v1.23H601.21C601.32,919,602.93,920.82,606,920.82Zm-.1-11.94a4.34,4.34,0,0,0-3.22,1.21,5.77,5.77,0,0,0-1.44,3.55H610Q609.83,908.89,605.92,908.88Z"/><path class="cls-2" d="M617.85,922.1h-2V907.6h2v2.84a4.6,4.6,0,0,1,4.31-2.84h1.09v1.92h-1.09A3.64,3.64,0,0,0,619,911.3a8.22,8.22,0,0,0-1.19,4.65Z"/><path class="cls-2" d="M644.06,920.44h.75v1.66h-1.19a2.8,2.8,0,0,1-1.83-.6,1.94,1.94,0,0,1-.74-1.59v-.12a5.11,5.11,0,0,1-4.73,2.67,5.35,5.35,0,0,1-3.64-1.18,3.8,3.8,0,0,1-1.37-3,4,4,0,0,1,1.14-2.92,5.87,5.87,0,0,1,3.23-1.53l4.4-.75a1,1,0,0,0,.94-1.11,2.72,2.72,0,0,0-.95-2.17,3.83,3.83,0,0,0-2.61-.84,3.59,3.59,0,0,0-3.9,3l-1.87-.26a5,5,0,0,1,1.91-3.17,6.32,6.32,0,0,1,3.95-1.2,5.6,5.6,0,0,1,4,1.35,4.67,4.67,0,0,1,1.46,3.61v7.11a1.2,1.2,0,0,0,.25.86A1.16,1.16,0,0,0,644.06,920.44Zm-10.77-2.31a2.4,2.4,0,0,0,.83,2,3.41,3.41,0,0,0,2.29.71,4.28,4.28,0,0,0,3.33-1.46,5.64,5.64,0,0,0,1.31-3.85v-.93l-5.18.9a3.13,3.13,0,0,0-1.9.91A2.44,2.44,0,0,0,633.29,918.13Z"/><path class="cls-2" d="M653,922.46a6,6,0,0,1-4.73-2.05,8.17,8.17,0,0,1-1.75-5.46,8.44,8.44,0,0,1,1.75-5.57,5.89,5.89,0,0,1,4.73-2.12,5.58,5.58,0,0,1,4.88,2.53v-8.12h2V922.1h-2v-2.28A5.53,5.53,0,0,1,653,922.46Zm-4.43-7.62a6.79,6.79,0,0,0,1.23,4.28,4,4,0,0,0,3.35,1.59,4.26,4.26,0,0,0,3.48-1.61,7.52,7.52,0,0,0,0-8.47,4.22,4.22,0,0,0-3.47-1.63,4,4,0,0,0-3.35,1.57A6.75,6.75,0,0,0,648.6,914.84Z"/><path class="cls-2" d="M666.54,905h-2v-3.34h2Zm0,17.09h-2V907.6h2Z"/><path class="cls-2" d="M678.05,907.26a5.86,5.86,0,0,1,4.7,2,8,8,0,0,1,1.78,5.45,8.4,8.4,0,0,1-1.78,5.6,5.82,5.82,0,0,1-4.7,2.11,5.55,5.55,0,0,1-4.87-2.55v7.59h-2V907.6h2v2.28A5.5,5.5,0,0,1,678.05,907.26Zm4.43,7.61a6.8,6.8,0,0,0-1.23-4.29,4,4,0,0,0-3.34-1.58,4.26,4.26,0,0,0-3.49,1.6,7.57,7.57,0,0,0,0,8.5,4.24,4.24,0,0,0,3.48,1.61,4,4,0,0,0,3.34-1.58A6.74,6.74,0,0,0,682.48,914.87Z"/><path class="cls-2" d="M690.21,905h-2v-3.34h2Zm0,17.09h-2V907.6h2Z"/><path class="cls-2" d="M699.8,922.46a6.76,6.76,0,0,1-4.34-1.31,4.57,4.57,0,0,1-1.76-3.51l2-.35A4,4,0,0,0,696.9,920a4.38,4.38,0,0,0,2.9.84,4,4,0,0,0,2.57-.72,2.55,2.55,0,0,0,.88-2.11c0-1.26-1-2-2.92-2.37l-2-.31c-2.8-.47-4.2-1.79-4.2-4a3.55,3.55,0,0,1,1.44-2.9,6.91,6.91,0,0,1,7.62,0,5.11,5.11,0,0,1,1.82,3.31l-1.81.31a4.31,4.31,0,0,0-1.32-2.39,4,4,0,0,0-2.54-.73,4.08,4.08,0,0,0-2.41.63,2.13,2.13,0,0,0-.28,3.21,3.49,3.49,0,0,0,1.93.75l2.28.37c2.9.47,4.35,1.84,4.35,4.09a4.06,4.06,0,0,1-1.47,3.26A5.93,5.93,0,0,1,699.8,922.46Z"/><path class="cls-2" d="M714.52,920.74a4,4,0,0,0,2.87-1,4.31,4.31,0,0,0,1.27-2.84l2,.21a5.71,5.71,0,0,1-1.89,3.9,6.85,6.85,0,0,1-9.1-.55,8.09,8.09,0,0,1-1.79-5.52,8.28,8.28,0,0,1,1.79-5.57,6.09,6.09,0,0,1,4.87-2.09,6.38,6.38,0,0,1,4.26,1.37,5.81,5.81,0,0,1,2,3.84l-2.1.24c-.38-2.49-1.78-3.74-4.17-3.74a4,4,0,0,0-3.35,1.57,7.08,7.08,0,0,0-1.19,4.38,6.74,6.74,0,0,0,1.21,4.27A4,4,0,0,0,714.52,920.74Z"/><path class="cls-2" d="M726.18,905h-2v-3.34h2Zm0,17.09h-2V907.6h2Z"/><path class="cls-2" d="M742.92,912.71v9.39h-2v-9a4.32,4.32,0,0,0-1-3,3.61,3.61,0,0,0-2.81-1.07,3.94,3.94,0,0,0-3.22,1.32,6,6,0,0,0-1.1,3.88v7.9h-2V907.6h2v1.92a5.16,5.16,0,0,1,4.65-2.26,5,5,0,0,1,5.45,5.45Z"/><path class="cls-2" d="M752.75,921.26a5.76,5.76,0,0,1-4.54-1.89,8.55,8.55,0,0,1,0-10.19,5.77,5.77,0,0,1,4.53-1.92,5.47,5.47,0,0,1,4.6,2.21V907.6h2v13.92a6.33,6.33,0,0,1-1.64,4.61,6,6,0,0,1-4.54,1.71,7,7,0,0,1-4.42-1.27,5,5,0,0,1-1.88-3.57l2-.17a3.94,3.94,0,0,0,1.39,2.53,4.74,4.74,0,0,0,2.9.77,4,4,0,0,0,3.17-1.21,5.25,5.25,0,0,0,1.06-3.57v-2.48A5.31,5.31,0,0,1,752.75,921.26Zm-4.17-7a5.89,5.89,0,0,0,1.17,3.91,4.07,4.07,0,0,0,3.29,1.38,3.92,3.92,0,0,0,3.16-1.46,5.78,5.78,0,0,0,1.21-3.83,5.86,5.86,0,0,0-1.22-3.79A3.89,3.89,0,0,0,753,909a4.07,4.07,0,0,0-3.31,1.37A5.92,5.92,0,0,0,748.58,914.25Z"/><path class="cls-2" d="M776.84,920.82a3.71,3.71,0,0,0,4-3.33l1.89.3a5,5,0,0,1-1.9,3.41,6.36,6.36,0,0,1-4,1.26,6.48,6.48,0,0,1-5.1-2,8.15,8.15,0,0,1-1.76-5.66,8,8,0,0,1,1.83-5.52,6.36,6.36,0,0,1,5-2.06,5.85,5.85,0,0,1,4.57,1.79,7.14,7.14,0,0,1,1.63,5v1.23H772C772.14,919,773.75,920.82,776.84,920.82Zm-.1-11.94a4.32,4.32,0,0,0-3.22,1.21,5.77,5.77,0,0,0-1.44,3.55h8.78C780.72,910.47,779.34,908.88,776.74,908.88Z"/><path class="cls-2" d="M788.67,922.1h-2V901.67h2Z"/><path class="cls-2" d="M795.3,905h-2v-3.34h2Zm0,17.09h-2V907.6h2Z"/><path class="cls-2" d="M798.15,909.27V907.6h2.68v-4.79h2v4.79h3.93v1.67h-3.93V918a2.9,2.9,0,0,0,.44,1.83,2,2,0,0,0,1.56.51h2.31v1.72h-2.55a3.73,3.73,0,0,1-2.78-1,3.83,3.83,0,0,1-1-2.81v-9Z"/><path class="cls-2" d="M810.28,925.75h-1.9l1.7-6.48h2Z"/><path class="cls-2" d="M827.54,922.46a6.76,6.76,0,0,1-4.34-1.31,4.56,4.56,0,0,1-1.75-3.51l1.95-.35a4,4,0,0,0,1.24,2.66,4.38,4.38,0,0,0,2.9.84,4,4,0,0,0,2.57-.72A2.55,2.55,0,0,0,831,918c0-1.26-1-2-2.92-2.37l-2-.31c-2.8-.47-4.2-1.79-4.2-4a3.55,3.55,0,0,1,1.44-2.9,6.91,6.91,0,0,1,7.62,0,5.11,5.11,0,0,1,1.82,3.31L831,912a4.25,4.25,0,0,0-1.32-2.39,4,4,0,0,0-2.54-.73,4.08,4.08,0,0,0-2.41.63,2,2,0,0,0-.88,1.68,2,2,0,0,0,.61,1.53,3.43,3.43,0,0,0,1.93.75l2.27.37c2.9.47,4.35,1.84,4.35,4.09a4.06,4.06,0,0,1-1.47,3.26A5.93,5.93,0,0,1,827.54,922.46Z"/><path class="cls-2" d="M842.47,920.82a3.71,3.71,0,0,0,4-3.33l1.89.3a4.94,4.94,0,0,1-1.91,3.41,6.31,6.31,0,0,1-4,1.26,6.52,6.52,0,0,1-5.11-2,8.2,8.2,0,0,1-1.76-5.66,8,8,0,0,1,1.84-5.52,6.36,6.36,0,0,1,5-2.06,5.85,5.85,0,0,1,4.57,1.79,7.14,7.14,0,0,1,1.63,5v1.23H837.66C837.77,919,839.38,920.82,842.47,920.82Zm-.1-11.94a4.36,4.36,0,0,0-3.23,1.21,5.82,5.82,0,0,0-1.43,3.55h8.78C846.35,910.47,845,908.88,842.37,908.88Z"/><path class="cls-2" d="M857.83,922.46a6,6,0,0,1-4.73-2.05,8.12,8.12,0,0,1-1.75-5.46,8.39,8.39,0,0,1,1.75-5.57,5.88,5.88,0,0,1,4.73-2.12,5.57,5.57,0,0,1,4.87,2.53v-8.12h2V922.1h-2v-2.28A5.51,5.51,0,0,1,857.83,922.46Zm-4.43-7.62a6.85,6.85,0,0,0,1.22,4.28,4,4,0,0,0,3.35,1.59,4.26,4.26,0,0,0,3.48-1.61,7.5,7.5,0,0,0,0-8.47A4.25,4.25,0,0,0,858,909a4,4,0,0,0-3.35,1.57A6.81,6.81,0,0,0,853.4,914.84Z"/><path class="cls-2" d="M881.86,922.46a6,6,0,0,1-4.73-2.05,8.12,8.12,0,0,1-1.75-5.46,8.39,8.39,0,0,1,1.75-5.57,5.89,5.89,0,0,1,4.73-2.12,5.57,5.57,0,0,1,4.87,2.53v-8.12h2V922.1h-2v-2.28A5.51,5.51,0,0,1,881.86,922.46Zm-4.43-7.62a6.79,6.79,0,0,0,1.23,4.28,4,4,0,0,0,3.34,1.59,4.27,4.27,0,0,0,3.49-1.61,7.52,7.52,0,0,0,0-8.47A4.22,4.22,0,0,0,882,909a4,4,0,0,0-3.34,1.57A6.75,6.75,0,0,0,877.43,914.84Z"/><path class="cls-2" d="M895.37,905h-2v-3.34h2Zm0,17.09h-2V907.6h2Z"/><path class="cls-2" d="M911.66,920.44h.76v1.66h-1.2a2.8,2.8,0,0,1-1.83-.6,1.93,1.93,0,0,1-.73-1.59v-.12a5.13,5.13,0,0,1-4.73,2.67,5.38,5.38,0,0,1-3.65-1.18,3.84,3.84,0,0,1-1.37-3,4,4,0,0,1,1.14-2.92,5.86,5.86,0,0,1,3.24-1.53l4.4-.75a1,1,0,0,0,.94-1.11,2.73,2.73,0,0,0-1-2.17,3.78,3.78,0,0,0-2.6-.84,3.59,3.59,0,0,0-3.91,3l-1.86-.26a4.93,4.93,0,0,1,1.91-3.17,6.29,6.29,0,0,1,3.94-1.2,5.63,5.63,0,0,1,4,1.35,4.66,4.66,0,0,1,1.45,3.61v7.11a1.2,1.2,0,0,0,.25.86A1.17,1.17,0,0,0,911.66,920.44Zm-10.77-2.31a2.43,2.43,0,0,0,.83,2,3.41,3.41,0,0,0,2.29.71,4.31,4.31,0,0,0,3.34-1.46,5.69,5.69,0,0,0,1.31-3.85v-.93l-5.19.9a3.13,3.13,0,0,0-1.9.91A2.48,2.48,0,0,0,900.89,918.13Z"/><path class="cls-2" d="M926.62,914.2v7.9h-2v-9a4.56,4.56,0,0,0-.91-3,3.16,3.16,0,0,0-2.58-1.07,3.58,3.58,0,0,0-3,1.33,6.22,6.22,0,0,0-1,3.87v7.9h-2V907.6h2v1.84a4.94,4.94,0,0,1,4.35-2.18,5.48,5.48,0,0,1,2.85.7,4.25,4.25,0,0,1,1.77,2,5,5,0,0,1,4.78-2.73,5.14,5.14,0,0,1,3.87,1.46,5.54,5.54,0,0,1,1.4,4v9.39h-2v-9a4.5,4.5,0,0,0-.91-3,3.2,3.2,0,0,0-2.59-1.07,3.56,3.56,0,0,0-3,1.33A6.22,6.22,0,0,0,926.62,914.2Z"/><path class="cls-2" d="M100.82,947.72v9.39h-2v-9a4.26,4.26,0,0,0-1-3A3.61,3.61,0,0,0,95,944a4,4,0,0,0-3.22,1.32,6,6,0,0,0-1.09,3.88v7.9h-2v-14.5h2v1.92a5.13,5.13,0,0,1,4.64-2.26,5,5,0,0,1,5.46,5.45Z"/><path class="cls-2" d="M104.31,949.88a8,8,0,0,1,1.86-5.52,7.15,7.15,0,0,1,10.1,0,9,9,0,0,1,0,11,7.17,7.17,0,0,1-10.1,0A8,8,0,0,1,104.31,949.88Zm10.5,4.28a6.46,6.46,0,0,0,1.32-4.28,6.57,6.57,0,0,0-1.32-4.31,4.8,4.8,0,0,0-7.14,0,7.72,7.72,0,0,0,0,8.59,4.81,4.81,0,0,0,7.15,0Z"/><path class="cls-2" d="M133.92,947.72v9.39h-2v-9a4.3,4.3,0,0,0-1-3,3.61,3.61,0,0,0-2.81-1.07,3.94,3.94,0,0,0-3.22,1.32,6,6,0,0,0-1.1,3.88v7.9h-2v-14.5h2v1.92a5.16,5.16,0,0,1,4.65-2.26,5,5,0,0,1,5.45,5.45Z"/><path class="cls-2" d="M148,942.61h2v14.5h-2v-1.86a5.08,5.08,0,0,1-4.5,2.22,5.13,5.13,0,0,1-3.88-1.47,5.49,5.49,0,0,1-1.42-4v-9.4h2v9a4.34,4.34,0,0,0,.95,3,3.42,3.42,0,0,0,2.7,1.06,3.72,3.72,0,0,0,3.1-1.33,6,6,0,0,0,1.07-3.85Z"/><path class="cls-2" d="M166.18,949.21v7.9h-2v-9a4.54,4.54,0,0,0-.9-3,3.2,3.2,0,0,0-2.59-1.07,3.56,3.56,0,0,0-3,1.33,6.22,6.22,0,0,0-1,3.87v7.9h-2v-14.5h2v1.84a4.93,4.93,0,0,1,4.34-2.18,5.43,5.43,0,0,1,2.85.7,4.25,4.25,0,0,1,1.77,2,5,5,0,0,1,4.79-2.73,5.1,5.1,0,0,1,3.86,1.46,5.51,5.51,0,0,1,1.41,4v9.39h-2v-9a4.54,4.54,0,0,0-.91-3,3.22,3.22,0,0,0-2.6-1.07,3.54,3.54,0,0,0-3,1.33A6.22,6.22,0,0,0,166.18,949.21Z"/><path class="cls-2" d="M191.66,949.21v7.9h-2v-9a4.48,4.48,0,0,0-.91-3,3.16,3.16,0,0,0-2.58-1.07,3.56,3.56,0,0,0-3,1.33,6.15,6.15,0,0,0-1,3.87v7.9h-2v-14.5h2v1.84a4.91,4.91,0,0,1,4.34-2.18,5.48,5.48,0,0,1,2.85.7,4.25,4.25,0,0,1,1.77,2,5,5,0,0,1,4.78-2.73,5.13,5.13,0,0,1,3.87,1.46,5.5,5.5,0,0,1,1.4,4v9.39h-2v-9a4.48,4.48,0,0,0-.91-3,3.2,3.2,0,0,0-2.59-1.07,3.56,3.56,0,0,0-3,1.33A6.28,6.28,0,0,0,191.66,949.21Z"/><path class="cls-2" d="M208.93,958.69l.58-1.49-5.87-14.59h2.14l4.77,12.25,4.79-12.25h2l-6.63,16.48a5.92,5.92,0,0,1-1.82,2.67,4.65,4.65,0,0,1-2.76.75h-1.43v-1.72h1.43a2.71,2.71,0,0,0,1.67-.46A3.64,3.64,0,0,0,208.93,958.69Z"/><path class="cls-2" d="M238.84,947.72v9.39h-2v-9a4.3,4.3,0,0,0-1-3,3.62,3.62,0,0,0-2.81-1.07,3.94,3.94,0,0,0-3.22,1.32,6,6,0,0,0-1.1,3.88v7.9h-2v-14.5h2v1.92a5.16,5.16,0,0,1,4.65-2.26,5,5,0,0,1,5.45,5.45Z"/><path class="cls-2" d="M245.31,940h-2v-3.34h2Zm0,17.09h-2v-14.5h2Z"/><path class="cls-2" d="M256.82,942.27a5.85,5.85,0,0,1,4.7,2,8,8,0,0,1,1.78,5.45,8.4,8.4,0,0,1-1.78,5.6,5.81,5.81,0,0,1-4.7,2.11,5.56,5.56,0,0,1-4.87-2.55v2.19h-2V936.68h2v8.21A5.52,5.52,0,0,1,256.82,942.27Zm4.43,7.61a6.86,6.86,0,0,0-1.22-4.29,4,4,0,0,0-3.35-1.58,4.26,4.26,0,0,0-3.49,1.6,7.57,7.57,0,0,0,0,8.5,4.25,4.25,0,0,0,3.48,1.61,4,4,0,0,0,3.35-1.58A6.8,6.8,0,0,0,261.25,949.88Z"/><path class="cls-2" d="M279.09,947.72v9.39h-2v-9a4.3,4.3,0,0,0-1-3A3.61,3.61,0,0,0,273.3,944a4,4,0,0,0-3.22,1.32,6,6,0,0,0-1.09,3.88v7.9h-2V936.68h2v7.85a5.13,5.13,0,0,1,4.64-2.26,5,5,0,0,1,5.46,5.45Z"/><path class="cls-2" d="M296.47,955.83a3.7,3.7,0,0,0,4-3.33l1.9.3a5,5,0,0,1-1.91,3.41,6.33,6.33,0,0,1-4,1.26,6.49,6.49,0,0,1-5.11-2,8.2,8.2,0,0,1-1.76-5.66,8,8,0,0,1,1.84-5.52,6.33,6.33,0,0,1,5-2.06,5.87,5.87,0,0,1,4.57,1.79,7.18,7.18,0,0,1,1.62,5v1.23H291.65C291.77,954,293.37,955.83,296.47,955.83Zm-.1-11.94a4.34,4.34,0,0,0-3.23,1.21,5.77,5.77,0,0,0-1.43,3.55h8.77Q300.27,943.9,296.37,943.89Z"/><path class="cls-2" d="M315.94,942.61h2v14.5h-2v-1.86a5.75,5.75,0,0,1-8.38.75,5.49,5.49,0,0,1-1.42-4v-9.4h2v9a4.29,4.29,0,0,0,.95,3,3.42,3.42,0,0,0,2.7,1.06,3.74,3.74,0,0,0,3.1-1.33,6,6,0,0,0,1.07-3.85Z"/><path class="cls-2" d="M324.56,940h-2v-3.34h2Zm0,17.09h-2v-14.5h2Z"/><path class="cls-2" d="M334.15,957.47a6.77,6.77,0,0,1-4.35-1.31,4.56,4.56,0,0,1-1.75-3.51l1.95-.35a4.09,4.09,0,0,0,1.24,2.66,4.39,4.39,0,0,0,2.91.84,4,4,0,0,0,2.57-.72,2.58,2.58,0,0,0,.87-2.11c0-1.26-1-2-2.92-2.37l-2-.31c-2.8-.47-4.2-1.79-4.2-4a3.53,3.53,0,0,1,1.45-2.9,6.91,6.91,0,0,1,7.62,0,5.1,5.1,0,0,1,1.81,3.31l-1.8.31a4.26,4.26,0,0,0-1.33-2.39,3.94,3.94,0,0,0-2.54-.73,4.07,4.07,0,0,0-2.4.63,2.11,2.11,0,0,0-.28,3.21,3.53,3.53,0,0,0,1.93.75l2.28.37c2.89.47,4.34,1.84,4.34,4.09a4.08,4.08,0,0,1-1.46,3.26A5.93,5.93,0,0,1,334.15,957.47Z"/><path class="cls-2" d="M354.67,949.21v7.9h-2v-9a4.48,4.48,0,0,0-.91-3,3.16,3.16,0,0,0-2.58-1.07,3.56,3.56,0,0,0-3,1.33,6.15,6.15,0,0,0-1,3.87v7.9h-2v-14.5h2v1.84a4.91,4.91,0,0,1,4.34-2.18,5.48,5.48,0,0,1,2.85.7,4.25,4.25,0,0,1,1.77,2,5,5,0,0,1,4.78-2.73,5.11,5.11,0,0,1,3.87,1.46,5.5,5.5,0,0,1,1.4,4v9.39h-2v-9a4.49,4.49,0,0,0-.92-3,3.18,3.18,0,0,0-2.59-1.07,3.53,3.53,0,0,0-3,1.33A6.22,6.22,0,0,0,354.67,949.21Z"/><path class="cls-2" d="M367.67,949.88a8,8,0,0,1,1.86-5.52,7.15,7.15,0,0,1,10.1,0,9,9,0,0,1,0,11,7.17,7.17,0,0,1-10.1,0A8,8,0,0,1,367.67,949.88Zm10.5,4.28a6.46,6.46,0,0,0,1.32-4.28,6.57,6.57,0,0,0-1.32-4.31,4.8,4.8,0,0,0-7.14,0,7.72,7.72,0,0,0,0,8.59,4.81,4.81,0,0,0,7.15,0Z"/><path class="cls-2" d="M390.72,957.47a6,6,0,0,1-4.73-2.05,8.12,8.12,0,0,1-1.76-5.46,8.39,8.39,0,0,1,1.76-5.57,5.86,5.86,0,0,1,4.73-2.12,5.58,5.58,0,0,1,4.87,2.53v-8.12h2v20.43h-2v-2.28A5.52,5.52,0,0,1,390.72,957.47Zm-4.43-7.62a6.78,6.78,0,0,0,1.22,4.28,4,4,0,0,0,3.35,1.59,4.26,4.26,0,0,0,3.48-1.61,7.52,7.52,0,0,0,0-8.47,4.22,4.22,0,0,0-3.47-1.63,4,4,0,0,0-3.35,1.57A6.75,6.75,0,0,0,386.29,949.85Z"/><path class="cls-2" d="M407,944.28v-1.67h2.67v-4.79h2v4.79h3.93v1.67h-3.93v8.77a2.83,2.83,0,0,0,.45,1.83,2,2,0,0,0,1.56.51h2.3v1.72h-2.55a3.73,3.73,0,0,1-2.78-1,3.83,3.83,0,0,1-1-2.81v-9Z"/><path class="cls-2" d="M420.77,940h-2v-3.34h2Zm0,17.09h-2v-14.5h2Z"/><path class="cls-2" d="M437.51,947.72v9.39h-2v-9a4.3,4.3,0,0,0-1-3,3.62,3.62,0,0,0-2.81-1.07,3.94,3.94,0,0,0-3.22,1.32,6,6,0,0,0-1.1,3.88v7.9h-2v-14.5h2v1.92a5.16,5.16,0,0,1,4.65-2.26,5,5,0,0,1,5.45,5.45Z"/><path class="cls-2" d="M447.68,955.75a4,4,0,0,0,2.87-1,4.27,4.27,0,0,0,1.28-2.85l2,.22a5.68,5.68,0,0,1-1.9,3.9,6.85,6.85,0,0,1-9.1-.55,8.09,8.09,0,0,1-1.78-5.52,8.28,8.28,0,0,1,1.78-5.57,6.1,6.1,0,0,1,4.87-2.09,6.34,6.34,0,0,1,4.26,1.37,5.72,5.72,0,0,1,1.95,3.84l-2.09.24q-.58-3.74-4.17-3.74a4,4,0,0,0-3.36,1.57,7.15,7.15,0,0,0-1.19,4.38,6.8,6.8,0,0,0,1.21,4.27A4.07,4.07,0,0,0,447.68,955.75Z"/><path class="cls-2" d="M459.35,940h-2v-3.34h2Zm0,17.09h-2v-14.5h2Z"/><path class="cls-2" d="M469.52,957.47a6,6,0,0,1-4.73-2.05A8.12,8.12,0,0,1,463,950a8.39,8.39,0,0,1,1.75-5.57,5.89,5.89,0,0,1,4.73-2.12,5.56,5.56,0,0,1,4.87,2.53v-8.12h2v20.43h-2v-2.28A5.5,5.5,0,0,1,469.52,957.47Zm-4.43-7.62a6.79,6.79,0,0,0,1.23,4.28,4,4,0,0,0,3.35,1.59,4.26,4.26,0,0,0,3.48-1.61,7.52,7.52,0,0,0,0-8.47,4.22,4.22,0,0,0-3.47-1.63,4,4,0,0,0-3.35,1.57A6.75,6.75,0,0,0,465.09,949.85Z"/><path class="cls-2" d="M490.68,942.61h2v14.5h-2v-1.86a5.76,5.76,0,0,1-8.39.75,5.52,5.52,0,0,1-1.41-4v-9.4h2v9a4.33,4.33,0,0,0,.94,3,3.42,3.42,0,0,0,2.7,1.06,3.74,3.74,0,0,0,3.11-1.33,6,6,0,0,0,1.07-3.85Z"/><path class="cls-2" d="M509.4,947.72v9.39h-2v-9a4.3,4.3,0,0,0-1-3,3.61,3.61,0,0,0-2.81-1.07,4,4,0,0,0-3.22,1.32,6,6,0,0,0-1.1,3.88v7.9h-2v-14.5h2v1.92a5.16,5.16,0,0,1,4.65-2.26,5,5,0,0,1,5.46,5.45Z"/><path class="cls-2" d="M511.93,944.28v-1.67h2.68v-4.79h2v4.79h3.94v1.67H516.6v8.77a2.83,2.83,0,0,0,.45,1.83,2,2,0,0,0,1.56.51h2.31v1.72h-2.55a3.75,3.75,0,0,1-2.79-1,3.82,3.82,0,0,1-1-2.81v-9Z"/><path class="cls-2" d="M540.39,942.61h2v14.5h-2v-1.86a5.07,5.07,0,0,1-4.5,2.22A5.15,5.15,0,0,1,532,956a5.53,5.53,0,0,1-1.42-4v-9.4h2v9a4.34,4.34,0,0,0,.95,3,3.42,3.42,0,0,0,2.7,1.06,3.76,3.76,0,0,0,3.11-1.33,6,6,0,0,0,1.06-3.85Z"/><path class="cls-2" d="M545.22,944.28v-1.67h2.68v-4.79h2v4.79h3.94v1.67h-3.94v8.77a2.83,2.83,0,0,0,.45,1.83,2,2,0,0,0,1.56.51h2.31v1.72h-2.55a3.73,3.73,0,0,1-2.78-1,3.83,3.83,0,0,1-1-2.81v-9Z"/><path class="cls-2" d="M566,957.11h-2V936.68h2Z"/><path class="cls-2" d="M582.33,955.45h.76v1.66h-1.2a2.8,2.8,0,0,1-1.83-.6,1.93,1.93,0,0,1-.73-1.59v-.12a5.13,5.13,0,0,1-4.73,2.67,5.38,5.38,0,0,1-3.65-1.18,3.84,3.84,0,0,1-1.37-3,4,4,0,0,1,1.14-2.92,5.86,5.86,0,0,1,3.24-1.53l4.4-.75a1,1,0,0,0,.94-1.11,2.77,2.77,0,0,0-1-2.18,3.83,3.83,0,0,0-2.6-.83,3.59,3.59,0,0,0-3.91,3l-1.86-.26a4.93,4.93,0,0,1,1.91-3.17,6.29,6.29,0,0,1,3.94-1.2,5.63,5.63,0,0,1,4,1.35,4.66,4.66,0,0,1,1.45,3.61v7.1a1.21,1.21,0,0,0,.25.87A1.17,1.17,0,0,0,582.33,955.45Zm-10.77-2.31a2.45,2.45,0,0,0,.83,2,3.41,3.41,0,0,0,2.29.71,4.29,4.29,0,0,0,3.34-1.47,5.64,5.64,0,0,0,1.31-3.84v-.93l-5.19.9a3.08,3.08,0,0,0-1.9.91A2.48,2.48,0,0,0,571.56,953.14Z"/><path class="cls-2" d="M584.8,949.88a8,8,0,0,1,1.86-5.52,7.15,7.15,0,0,1,10.1,0,9,9,0,0,1,0,11,7.17,7.17,0,0,1-10.1,0A8,8,0,0,1,584.8,949.88Zm10.5,4.28a6.46,6.46,0,0,0,1.32-4.28,6.57,6.57,0,0,0-1.32-4.31,4.8,4.8,0,0,0-7.14,0,6.62,6.62,0,0,0-1.31,4.31,6.51,6.51,0,0,0,1.3,4.28,4.81,4.81,0,0,0,7.15,0Z"/><path class="cls-2" d="M604.31,957.11h-2v-14.5h2v2.84a4.6,4.6,0,0,1,4.32-2.84h1.08v1.92h-1.08a3.62,3.62,0,0,0-3.12,1.78,8.14,8.14,0,0,0-1.2,4.65Z"/><path class="cls-2" d="M618.13,955.83a3.71,3.71,0,0,0,4-3.33l1.89.3a4.94,4.94,0,0,1-1.91,3.41,6.31,6.31,0,0,1-4,1.26,6.52,6.52,0,0,1-5.11-2,8.2,8.2,0,0,1-1.76-5.66,8,8,0,0,1,1.84-5.52,6.36,6.36,0,0,1,5-2.06,5.85,5.85,0,0,1,4.57,1.79,7.14,7.14,0,0,1,1.63,5v1.23H613.32C613.43,954,615,955.83,618.13,955.83Zm-.1-11.94a4.36,4.36,0,0,0-3.23,1.21,5.82,5.82,0,0,0-1.43,3.55h8.78C622,945.48,620.63,943.89,618,943.89Z"/><path class="cls-2" d="M633.87,955.83a3.71,3.71,0,0,0,4-3.33l1.9.3a5,5,0,0,1-1.91,3.41,6.36,6.36,0,0,1-4,1.26,6.48,6.48,0,0,1-5.1-2,8.15,8.15,0,0,1-1.76-5.66,8,8,0,0,1,1.83-5.52,6.36,6.36,0,0,1,5-2.06,5.89,5.89,0,0,1,4.58,1.79,7.18,7.18,0,0,1,1.62,5v1.23H629.06C629.17,954,630.78,955.83,633.87,955.83Zm-.1-11.94a4.34,4.34,0,0,0-3.22,1.21,5.71,5.71,0,0,0-1.43,3.55h8.77Q637.68,943.9,633.77,943.89Z"/><path class="cls-2" d="M641.77,944.28v-1.67h2.67v-4.79h2v4.79h3.93v1.67h-3.93v8.77a2.83,2.83,0,0,0,.45,1.83,2,2,0,0,0,1.56.51h2.3v1.72H648.2a3.73,3.73,0,0,1-2.78-1,3.83,3.83,0,0,1-1-2.81v-9Z"/><path class="cls-2" d="M666.11,957.47a6,6,0,0,1-4.73-2.05,8.12,8.12,0,0,1-1.75-5.46,8.39,8.39,0,0,1,1.75-5.57,5.89,5.89,0,0,1,4.73-2.12A5.57,5.57,0,0,1,671,944.8v-8.12h2v20.43h-2v-2.28A5.51,5.51,0,0,1,666.11,957.47Zm-4.43-7.62a6.79,6.79,0,0,0,1.23,4.28,4,4,0,0,0,3.34,1.59,4.27,4.27,0,0,0,3.49-1.61,7.52,7.52,0,0,0,0-8.47,4.22,4.22,0,0,0-3.48-1.63,4,4,0,0,0-3.34,1.57A6.75,6.75,0,0,0,661.68,949.85Z"/><path class="cls-2" d="M676.64,949.88a8,8,0,0,1,1.86-5.52,7.16,7.16,0,0,1,10.11,0,9,9,0,0,1,0,11,7.18,7.18,0,0,1-10.11,0A8,8,0,0,1,676.64,949.88Zm10.51,4.28a6.51,6.51,0,0,0,1.31-4.28,6.62,6.62,0,0,0-1.31-4.31,4.42,4.42,0,0,0-3.59-1.59,4.36,4.36,0,0,0-3.56,1.59,6.62,6.62,0,0,0-1.31,4.31,6.51,6.51,0,0,0,1.3,4.28,4.37,4.37,0,0,0,3.57,1.59A4.42,4.42,0,0,0,687.15,954.16Z"/><path class="cls-2" d="M696.16,957.11h-2V936.68h2Z"/><path class="cls-2" d="M699.82,949.88a8,8,0,0,1,1.86-5.52,7.15,7.15,0,0,1,10.1,0,9,9,0,0,1,0,11,7.17,7.17,0,0,1-10.1,0A8,8,0,0,1,699.82,949.88Zm10.5,4.28a6.46,6.46,0,0,0,1.32-4.28,6.57,6.57,0,0,0-1.32-4.31,4.8,4.8,0,0,0-7.14,0,7.72,7.72,0,0,0,0,8.59,4.81,4.81,0,0,0,7.15,0Z"/><path class="cls-2" d="M719.33,957.11h-2v-14.5h2v2.84a4.6,4.6,0,0,1,4.32-2.84h1.08v1.92h-1.08a3.62,3.62,0,0,0-3.12,1.78,8.14,8.14,0,0,0-1.2,4.65Z"/><path class="cls-2" d="M733.15,955.83a3.71,3.71,0,0,0,4-3.33l1.89.3a4.94,4.94,0,0,1-1.91,3.41,6.31,6.31,0,0,1-4,1.26,6.52,6.52,0,0,1-5.11-2,8.2,8.2,0,0,1-1.76-5.66,8,8,0,0,1,1.84-5.52,6.36,6.36,0,0,1,5-2.06,5.85,5.85,0,0,1,4.57,1.79,7.14,7.14,0,0,1,1.63,5v1.23H728.34Q728.51,955.83,733.15,955.83Zm-.1-11.94a4.36,4.36,0,0,0-3.23,1.21,5.77,5.77,0,0,0-1.43,3.55h8.78C737,945.48,735.65,943.89,733.05,943.89Z"/><path class="cls-2" d="M761.49,949.21v7.9h-2v-9a4.54,4.54,0,0,0-.9-3A3.2,3.2,0,0,0,756,944a3.56,3.56,0,0,0-3,1.33,6.22,6.22,0,0,0-1,3.87v7.9h-2v-14.5h2v1.84a4.93,4.93,0,0,1,4.34-2.18,5.43,5.43,0,0,1,2.85.7,4.25,4.25,0,0,1,1.77,2,5,5,0,0,1,4.79-2.73,5.1,5.1,0,0,1,3.86,1.46,5.51,5.51,0,0,1,1.41,4v9.39h-2v-9a4.54,4.54,0,0,0-.91-3,3.22,3.22,0,0,0-2.6-1.07,3.54,3.54,0,0,0-3,1.33A6.22,6.22,0,0,0,761.49,949.21Z"/><path class="cls-2" d="M787.11,955.45h.76v1.66h-1.2a2.8,2.8,0,0,1-1.83-.6,1.93,1.93,0,0,1-.73-1.59v-.12a5.12,5.12,0,0,1-4.73,2.67,5.38,5.38,0,0,1-3.65-1.18,3.84,3.84,0,0,1-1.37-3,4,4,0,0,1,1.14-2.92,5.86,5.86,0,0,1,3.24-1.53l4.4-.75a1,1,0,0,0,.94-1.11,2.77,2.77,0,0,0-1-2.18,3.83,3.83,0,0,0-2.6-.83,3.59,3.59,0,0,0-3.91,3l-1.86-.26a4.93,4.93,0,0,1,1.91-3.17,6.29,6.29,0,0,1,3.94-1.2,5.63,5.63,0,0,1,4,1.35,4.66,4.66,0,0,1,1.45,3.61v7.1a1.21,1.21,0,0,0,.25.87A1.17,1.17,0,0,0,787.11,955.45Zm-10.77-2.31a2.45,2.45,0,0,0,.83,2,3.43,3.43,0,0,0,2.29.71,4.29,4.29,0,0,0,3.34-1.47,5.64,5.64,0,0,0,1.31-3.84v-.93l-5.19.9a3.11,3.11,0,0,0-1.9.91A2.48,2.48,0,0,0,776.34,953.14Z"/><path class="cls-2" d="M795.92,956.27a5.78,5.78,0,0,1-4.55-1.89,8.52,8.52,0,0,1,0-10.19,5.77,5.77,0,0,1,4.53-1.92,5.46,5.46,0,0,1,4.6,2.21v-1.87h2v13.92a6.35,6.35,0,0,1-1.65,4.61,6,6,0,0,1-4.53,1.71,7,7,0,0,1-4.43-1.27A5,5,0,0,1,790,958l2-.17a4,4,0,0,0,1.38,2.53,4.82,4.82,0,0,0,2.91.77,4,4,0,0,0,3.16-1.21,5.25,5.25,0,0,0,1.07-3.57v-2.48A5.32,5.32,0,0,1,795.92,956.27Zm-4.18-7a5.89,5.89,0,0,0,1.17,3.91,4.08,4.08,0,0,0,3.29,1.38,3.91,3.91,0,0,0,3.16-1.46,6.54,6.54,0,0,0,0-7.62A3.89,3.89,0,0,0,796.2,944a4.08,4.08,0,0,0-3.31,1.37A5.92,5.92,0,0,0,791.74,949.26Z"/><path class="cls-2" d="M819.19,947.72v9.39h-2v-9a4.3,4.3,0,0,0-1-3,3.61,3.61,0,0,0-2.81-1.07,4,4,0,0,0-3.22,1.32,6,6,0,0,0-1.1,3.88v7.9h-2v-14.5h2v1.92a5.16,5.16,0,0,1,4.65-2.26,5,5,0,0,1,5.45,5.45Z"/><path class="cls-2" d="M835.32,955.45h.76v1.66h-1.2a2.8,2.8,0,0,1-1.83-.6,1.94,1.94,0,0,1-.74-1.59v-.12a5.11,5.11,0,0,1-4.73,2.67,5.37,5.37,0,0,1-3.64-1.18,3.84,3.84,0,0,1-1.37-3,4,4,0,0,1,1.14-2.92,5.87,5.87,0,0,1,3.23-1.53l4.41-.75a1,1,0,0,0,.94-1.11,2.77,2.77,0,0,0-1-2.18,3.84,3.84,0,0,0-2.61-.83,3.59,3.59,0,0,0-3.9,3l-1.86-.26a4.92,4.92,0,0,1,1.9-3.17,6.32,6.32,0,0,1,3.95-1.2,5.63,5.63,0,0,1,4,1.35,4.7,4.7,0,0,1,1.45,3.61v7.1a1.21,1.21,0,0,0,.25.87A1.16,1.16,0,0,0,835.32,955.45Zm-10.77-2.31a2.45,2.45,0,0,0,.83,2,3.41,3.41,0,0,0,2.29.71,4.25,4.25,0,0,0,3.33-1.47,5.59,5.59,0,0,0,1.31-3.84v-.93l-5.18.9a3.08,3.08,0,0,0-1.9.91A2.48,2.48,0,0,0,824.55,953.14Z"/><path class="cls-2" d="M857.42,955.45h.75v1.66H857a2.8,2.8,0,0,1-1.83-.6,1.93,1.93,0,0,1-.73-1.59v-.12a5.12,5.12,0,0,1-4.73,2.67,5.39,5.39,0,0,1-3.65-1.18,3.83,3.83,0,0,1-1.36-3,4,4,0,0,1,1.14-2.92,5.8,5.8,0,0,1,3.23-1.53l4.4-.75a1,1,0,0,0,.94-1.11,2.79,2.79,0,0,0-1-2.18,3.87,3.87,0,0,0-2.61-.83,3.57,3.57,0,0,0-3.9,3l-1.87-.26a4.93,4.93,0,0,1,1.91-3.17,6.3,6.3,0,0,1,3.95-1.2,5.6,5.6,0,0,1,4,1.35,4.66,4.66,0,0,1,1.45,3.61v7.1a1.25,1.25,0,0,0,.25.87A1.2,1.2,0,0,0,857.42,955.45Zm-10.77-2.31a2.44,2.44,0,0,0,.82,2,3.44,3.44,0,0,0,2.3.71,4.28,4.28,0,0,0,3.33-1.47,5.64,5.64,0,0,0,1.31-3.84v-.93l-5.19.9a3.11,3.11,0,0,0-1.9.91A2.47,2.47,0,0,0,846.65,953.14Z"/><path class="cls-2" d="M862.86,957.11h-2V936.68h2Z"/><path class="cls-2" d="M869.5,940h-2v-3.34h2Zm0,17.09h-2v-14.5h2Z"/><path class="cls-2" d="M879.67,957.47a6,6,0,0,1-4.73-2.05,8.12,8.12,0,0,1-1.76-5.46,8.39,8.39,0,0,1,1.76-5.57,5.86,5.86,0,0,1,4.73-2.12,5.57,5.57,0,0,1,4.87,2.53v-2.19h2v19.9h-2v-7.68A5.51,5.51,0,0,1,879.67,957.47Zm-4.43-7.62a6.78,6.78,0,0,0,1.22,4.28,4,4,0,0,0,3.35,1.59,4.26,4.26,0,0,0,3.48-1.61,7.5,7.5,0,0,0,0-8.47,4.25,4.25,0,0,0-3.48-1.63,4,4,0,0,0-3.35,1.57A6.75,6.75,0,0,0,875.24,949.85Z"/><path class="cls-2" d="M900.78,942.61h2v14.5h-2v-1.86a5.75,5.75,0,0,1-8.38.75,5.49,5.49,0,0,1-1.42-4v-9.4h2v9a4.29,4.29,0,0,0,.95,3,3.41,3.41,0,0,0,2.69,1.06,3.74,3.74,0,0,0,3.11-1.33,6,6,0,0,0,1.07-3.85Z"/><path class="cls-2" d="M919.06,955.45h.75v1.66h-1.2a2.8,2.8,0,0,1-1.83-.6,1.93,1.93,0,0,1-.73-1.59v-.12a5.12,5.12,0,0,1-4.73,2.67,5.39,5.39,0,0,1-3.65-1.18,3.83,3.83,0,0,1-1.36-3,4,4,0,0,1,1.14-2.92,5.83,5.83,0,0,1,3.23-1.53l4.4-.75a1,1,0,0,0,.94-1.11,2.79,2.79,0,0,0-.95-2.18,3.87,3.87,0,0,0-2.61-.83,3.57,3.57,0,0,0-3.9,3l-1.87-.26a4.93,4.93,0,0,1,1.91-3.17,6.3,6.3,0,0,1,3.95-1.2,5.6,5.6,0,0,1,4,1.35,4.66,4.66,0,0,1,1.45,3.61v7.1a1.25,1.25,0,0,0,.25.87A1.2,1.2,0,0,0,919.06,955.45Zm-10.77-2.31a2.44,2.44,0,0,0,.82,2,3.44,3.44,0,0,0,2.3.71,4.27,4.27,0,0,0,3.33-1.47,5.64,5.64,0,0,0,1.31-3.84v-.93l-5.18.9a3.11,3.11,0,0,0-1.91.91A2.47,2.47,0,0,0,908.29,953.14Z"/><path class="cls-2" d="M934,949.21v7.9h-2v-9a4.54,4.54,0,0,0-.9-3,3.2,3.2,0,0,0-2.59-1.07,3.56,3.56,0,0,0-3,1.33,6.15,6.15,0,0,0-1,3.87v7.9h-2v-14.5h2v1.84a4.92,4.92,0,0,1,4.34-2.18,5.48,5.48,0,0,1,2.85.7,4.25,4.25,0,0,1,1.77,2,5,5,0,0,1,4.79-2.73,5.1,5.1,0,0,1,3.86,1.46,5.51,5.51,0,0,1,1.41,4v9.39h-2v-9a4.49,4.49,0,0,0-.92-3A3.18,3.18,0,0,0,938,944a3.54,3.54,0,0,0-3,1.33A6.22,6.22,0,0,0,934,949.21Z"/><path class="cls-2" d="M94.63,990.84a3.71,3.71,0,0,0,4-3.33l1.9.3a5,5,0,0,1-1.91,3.41,6.36,6.36,0,0,1-4,1.26,6.48,6.48,0,0,1-5.1-2,8.17,8.17,0,0,1-1.76-5.66,8,8,0,0,1,1.84-5.52,6.33,6.33,0,0,1,5-2.06,5.89,5.89,0,0,1,4.58,1.79,7.18,7.18,0,0,1,1.62,5v1.23H89.82C89.93,989,91.54,990.84,94.63,990.84Zm-.1-11.94a4.34,4.34,0,0,0-3.22,1.21,5.71,5.71,0,0,0-1.43,3.55h8.77Q98.44,978.91,94.53,978.9Z"/><path class="cls-2" d="M106.46,992.12h-2v-14.5h2v2.84a4.6,4.6,0,0,1,4.31-2.84h1.09v1.92h-1.09a3.62,3.62,0,0,0-3.12,1.78,8.22,8.22,0,0,0-1.19,4.65Z"/><path class="cls-2" d="M126.15,990.46h.75v1.66h-1.2a2.85,2.85,0,0,1-1.83-.59,2,2,0,0,1-.73-1.6v-.11a5.13,5.13,0,0,1-4.73,2.66,5.39,5.39,0,0,1-3.65-1.18,3.83,3.83,0,0,1-1.36-3,4,4,0,0,1,1.14-2.92,5.8,5.8,0,0,1,3.23-1.53l4.4-.75a1,1,0,0,0,.94-1.11,2.74,2.74,0,0,0-1-2.17,3.83,3.83,0,0,0-2.61-.84,3.57,3.57,0,0,0-3.9,3l-1.87-.26a4.93,4.93,0,0,1,1.91-3.17,6.3,6.3,0,0,1,4-1.2,5.64,5.64,0,0,1,4,1.34,4.7,4.7,0,0,1,1.45,3.62v7.11a1.24,1.24,0,0,0,.25.86A1.2,1.2,0,0,0,126.15,990.46Zm-10.77-2.31a2.45,2.45,0,0,0,.82,2,3.39,3.39,0,0,0,2.3.71,4.29,4.29,0,0,0,3.33-1.46,5.69,5.69,0,0,0,1.31-3.85v-.93l-5.18.9a3.16,3.16,0,0,0-1.91.91A2.47,2.47,0,0,0,115.38,988.15Z"/><path class="cls-2" d="M127.8,979.29v-1.67h2.68v-4.79h2v4.79h3.93v1.67h-3.93v8.77a2.83,2.83,0,0,0,.45,1.83,2,2,0,0,0,1.56.51h2.31v1.72h-2.55a3.78,3.78,0,0,1-2.79-1,3.82,3.82,0,0,1-1-2.81v-9Z"/><path class="cls-2" d="M152.26,992.12h-2.12l-5.76-14.5h2.11L151.23,990,156,977.62h2.08Z"/><path class="cls-2" d="M159.68,984.89a7.94,7.94,0,0,1,1.87-5.52,7.15,7.15,0,0,1,10.1,0,9,9,0,0,1,0,11,7.17,7.17,0,0,1-10.1,0A7.91,7.91,0,0,1,159.68,984.89Zm10.51,4.28a6.51,6.51,0,0,0,1.31-4.28,6.62,6.62,0,0,0-1.31-4.31A4.42,4.42,0,0,0,166.6,979a4.38,4.38,0,0,0-3.56,1.59,6.62,6.62,0,0,0-1.31,4.31,6.51,6.51,0,0,0,1.31,4.28,4.34,4.34,0,0,0,3.56,1.59A4.42,4.42,0,0,0,170.19,989.17Z"/><path class="cls-2" d="M179.2,992.12h-2V971.7h2Z"/><path class="cls-2" d="M193.49,977.62h2v14.5h-2v-1.86a5.76,5.76,0,0,1-8.39.75,5.53,5.53,0,0,1-1.42-4v-9.4h2v9a4.34,4.34,0,0,0,1,3,3.42,3.42,0,0,0,2.7,1.06,3.76,3.76,0,0,0,3.11-1.33,6,6,0,0,0,1.07-3.84Z"/><path class="cls-2" d="M198.31,979.29v-1.67H201v-4.79h2v4.79h3.93v1.67H203v8.77a2.83,2.83,0,0,0,.45,1.83,2,2,0,0,0,1.56.51h2.3v1.72h-2.55a3.77,3.77,0,0,1-2.78-1,3.83,3.83,0,0,1-1-2.81v-9Z"/><path class="cls-2" d="M217,977.28a5.87,5.87,0,0,1,4.71,2,8,8,0,0,1,1.78,5.45,8.45,8.45,0,0,1-1.78,5.6,5.83,5.83,0,0,1-4.71,2.11,5.56,5.56,0,0,1-4.87-2.55v7.59h-2v-19.9h2v2.28A5.52,5.52,0,0,1,217,977.28Zm4.43,7.61a6.79,6.79,0,0,0-1.22-4.29,4,4,0,0,0-3.35-1.58,4.25,4.25,0,0,0-3.48,1.6,7.57,7.57,0,0,0,0,8.5,4.23,4.23,0,0,0,3.47,1.61,4,4,0,0,0,3.35-1.58A6.74,6.74,0,0,0,221.43,984.89Z"/><path class="cls-2" d="M238.83,990.46h.75v1.66h-1.19a2.83,2.83,0,0,1-1.83-.59,2,2,0,0,1-.74-1.6v-.11a5.11,5.11,0,0,1-4.73,2.66,5.35,5.35,0,0,1-3.64-1.18,3.8,3.8,0,0,1-1.37-3,4,4,0,0,1,1.14-2.92,5.87,5.87,0,0,1,3.23-1.53l4.4-.75a1,1,0,0,0,.94-1.11,2.71,2.71,0,0,0-.95-2.17,3.83,3.83,0,0,0-2.61-.84,3.58,3.58,0,0,0-3.9,3l-1.87-.26a5,5,0,0,1,1.91-3.17,6.32,6.32,0,0,1,3.95-1.2,5.64,5.64,0,0,1,4,1.34,4.71,4.71,0,0,1,1.46,3.62v7.11a1.2,1.2,0,0,0,.25.86A1.16,1.16,0,0,0,238.83,990.46Zm-10.77-2.31a2.45,2.45,0,0,0,.82,2,3.4,3.4,0,0,0,2.3.71,4.28,4.28,0,0,0,3.33-1.46,5.64,5.64,0,0,0,1.31-3.85v-.93l-5.18.9a3.13,3.13,0,0,0-1.9.91A2.44,2.44,0,0,0,228.06,988.15Z"/><path class="cls-2" d="M240.48,979.29v-1.67h2.68v-4.79h2v4.79h3.94v1.67h-3.94v8.77a2.83,2.83,0,0,0,.45,1.83,2,2,0,0,0,1.56.51h2.31v1.72h-2.55a3.41,3.41,0,0,1-3.76-3.79v-9Z"/><path class="cls-2" d="M252,989.29h2.69v2.83H252Z"/><path class="cls-2" d="M278.6,984.66v-13h2.12v13a7.74,7.74,0,0,1-2.09,5.68,7.21,7.21,0,0,1-5.46,2.14,7.44,7.44,0,0,1-5.51-2.14,7.79,7.79,0,0,1-2.11-5.68v-13h2.14v13a6,6,0,0,0,1.5,4.31,5.19,5.19,0,0,0,4,1.6,5.11,5.11,0,0,0,3.95-1.6A6.07,6.07,0,0,0,278.6,984.66Z"/><path class="cls-2" d="M283.87,979.29v-1.67h2.68v-4.79h2v4.79h3.94v1.67h-3.94v8.77a2.89,2.89,0,0,0,.45,1.83,2,2,0,0,0,1.56.51h2.31v1.72h-2.55a3.77,3.77,0,0,1-2.78-1,3.83,3.83,0,0,1-1-2.81v-9Z"/><path class="cls-2" d="M307.75,992.12h-1.92L301,977.62h2l3.74,11.8,3.59-11.8h1.9l3.54,11.75,3.72-11.75h2l-4.81,14.5h-1.9l-3.59-11.69Z"/><path class="cls-2" d="M326.52,975h-2V971.7h2Zm0,17.09h-2v-14.5h2Z"/><path class="cls-2" d="M336.11,992.48a6.76,6.76,0,0,1-4.34-1.31,4.59,4.59,0,0,1-1.76-3.51l2-.35a4,4,0,0,0,1.24,2.65,4.33,4.33,0,0,0,2.9.85,4,4,0,0,0,2.57-.72,2.55,2.55,0,0,0,.88-2.11c0-1.26-1-2-2.92-2.37l-2-.31c-2.8-.47-4.2-1.79-4.2-4a3.55,3.55,0,0,1,1.44-2.9,6.91,6.91,0,0,1,7.62,0,5.11,5.11,0,0,1,1.82,3.31l-1.81.31a4.31,4.31,0,0,0-1.32-2.39,4,4,0,0,0-2.54-.73,4,4,0,0,0-2.41.64,2.11,2.11,0,0,0-.27,3.2,3.43,3.43,0,0,0,1.93.75l2.27.37c2.9.47,4.35,1.84,4.35,4.09a4.06,4.06,0,0,1-1.47,3.26A5.93,5.93,0,0,1,336.11,992.48Z"/><path class="cls-2" d="M347.12,975h-2V971.7h2Zm0,17.09h-2v-14.5h2Z"/><path class="cls-2" d="M364.67,990.84a3.71,3.71,0,0,0,4-3.33l1.9.3a5,5,0,0,1-1.91,3.41,6.36,6.36,0,0,1-4,1.26,6.48,6.48,0,0,1-5.1-2,8.17,8.17,0,0,1-1.76-5.66,8,8,0,0,1,1.84-5.52,6.33,6.33,0,0,1,5-2.06,5.89,5.89,0,0,1,4.58,1.79,7.18,7.18,0,0,1,1.62,5v1.23H359.86C360,989,361.58,990.84,364.67,990.84Zm-.1-11.94a4.34,4.34,0,0,0-3.22,1.21,5.71,5.71,0,0,0-1.43,3.55h8.77Q368.48,978.91,364.57,978.9Z"/><path class="cls-2" d="M386.6,982.74v9.38h-2v-9a4.26,4.26,0,0,0-1-3,3.59,3.59,0,0,0-2.81-1.07,4,4,0,0,0-3.22,1.32,6,6,0,0,0-1.09,3.88v7.9h-2v-14.5h2v1.92a5.14,5.14,0,0,1,4.64-2.26,5,5,0,0,1,5.46,5.46Z"/><path class="cls-2" d="M393.07,975h-2V971.7h2Zm0,17.09h-2v-14.5h2Z"/><path class="cls-2" d="M409.22,984.22v7.9h-2v-9a4.54,4.54,0,0,0-.91-3,3.16,3.16,0,0,0-2.58-1.07,3.58,3.58,0,0,0-3,1.33,6.22,6.22,0,0,0-1,3.87v7.9h-2v-14.5h2v1.84a4.94,4.94,0,0,1,4.35-2.18,5.48,5.48,0,0,1,2.85.7,4.25,4.25,0,0,1,1.77,2,5,5,0,0,1,4.78-2.73,5.14,5.14,0,0,1,3.87,1.46,5.54,5.54,0,0,1,1.4,4v9.38h-2v-9a4.48,4.48,0,0,0-.91-3,3.2,3.2,0,0,0-2.59-1.07,3.56,3.56,0,0,0-3,1.33A6.22,6.22,0,0,0,409.22,984.22Z"/><path class="cls-2" d="M441.84,990.46h.76v1.66h-1.2a2.85,2.85,0,0,1-1.83-.59,2,2,0,0,1-.73-1.6v-.11a5.14,5.14,0,0,1-4.73,2.66,5.38,5.38,0,0,1-3.65-1.18,3.84,3.84,0,0,1-1.37-3,4,4,0,0,1,1.14-2.92,5.86,5.86,0,0,1,3.24-1.53l4.4-.75a1,1,0,0,0,.94-1.11,2.72,2.72,0,0,0-1-2.17,3.78,3.78,0,0,0-2.6-.84,3.59,3.59,0,0,0-3.91,3l-1.86-.26a4.93,4.93,0,0,1,1.91-3.17,6.29,6.29,0,0,1,3.94-1.2,5.67,5.67,0,0,1,4,1.34,4.7,4.7,0,0,1,1.45,3.62v7.11a1.2,1.2,0,0,0,.25.86A1.16,1.16,0,0,0,441.84,990.46Zm-10.77-2.31a2.46,2.46,0,0,0,.83,2,3.36,3.36,0,0,0,2.29.71,4.31,4.31,0,0,0,3.34-1.46,5.69,5.69,0,0,0,1.31-3.85v-.93l-5.19.9a3.13,3.13,0,0,0-1.9.91A2.48,2.48,0,0,0,431.07,988.15Z"/><path class="cls-2" d="M450.82,992.48a6,6,0,0,1-4.73-2.05,8.12,8.12,0,0,1-1.76-5.46,8.39,8.39,0,0,1,1.76-5.57,5.86,5.86,0,0,1,4.73-2.12,5.57,5.57,0,0,1,4.87,2.53V971.7h2v20.42h-2v-2.28A5.51,5.51,0,0,1,450.82,992.48Zm-4.43-7.62a6.83,6.83,0,0,0,1.22,4.29,4,4,0,0,0,3.35,1.58,4.26,4.26,0,0,0,3.48-1.61,7.48,7.48,0,0,0,0-8.46A4.23,4.23,0,0,0,451,979a4,4,0,0,0-3.35,1.57A6.75,6.75,0,0,0,446.39,984.86Z"/><path class="cls-2" d="M480.83,984.22v7.9h-2v-9a4.48,4.48,0,0,0-.91-3,3.16,3.16,0,0,0-2.58-1.07,3.56,3.56,0,0,0-3,1.33,6.15,6.15,0,0,0-1,3.87v7.9h-2v-14.5h2v1.84a4.91,4.91,0,0,1,4.34-2.18,5.48,5.48,0,0,1,2.85.7,4.25,4.25,0,0,1,1.77,2,5,5,0,0,1,4.78-2.73,5.11,5.11,0,0,1,3.87,1.46,5.5,5.5,0,0,1,1.4,4v9.38h-2v-9a4.48,4.48,0,0,0-.91-3,3.2,3.2,0,0,0-2.59-1.07,3.53,3.53,0,0,0-3,1.33A6.22,6.22,0,0,0,480.83,984.22Z"/><path class="cls-2" d="M496.8,975h-2V971.7h2Zm0,17.09h-2v-14.5h2Z"/><path class="cls-2" d="M513.54,982.74v9.38h-2v-9a4.26,4.26,0,0,0-1-3,3.58,3.58,0,0,0-2.8-1.07,3.94,3.94,0,0,0-3.22,1.32,6,6,0,0,0-1.1,3.88v7.9h-2v-14.5h2v1.92a5.15,5.15,0,0,1,4.64-2.26,5,5,0,0,1,5.46,5.46Z"/><path class="cls-2" d="M520,975h-2V971.7h2Zm0,17.09h-2v-14.5h2Z"/><path class="cls-2" d="M536.16,984.22v7.9h-2v-9a4.48,4.48,0,0,0-.91-3,3.16,3.16,0,0,0-2.58-1.07,3.56,3.56,0,0,0-3,1.33,6.15,6.15,0,0,0-1,3.87v7.9h-2v-14.5h2v1.84a4.91,4.91,0,0,1,4.34-2.18,5.48,5.48,0,0,1,2.85.7,4.25,4.25,0,0,1,1.77,2,5,5,0,0,1,4.78-2.73,5.11,5.11,0,0,1,3.87,1.46,5.5,5.5,0,0,1,1.4,4v9.38h-2v-9a4.48,4.48,0,0,0-.91-3,3.18,3.18,0,0,0-2.59-1.07,3.53,3.53,0,0,0-3,1.33A6.22,6.22,0,0,0,536.16,984.22Z"/><path class="cls-2" d="M562.77,992.12h-2.12l-5.75-14.5H557L561.75,990l4.76-12.37h2.08Z"/><path class="cls-2" d="M577.09,990.84a3.71,3.71,0,0,0,4-3.33l1.89.3a4.94,4.94,0,0,1-1.91,3.41,6.31,6.31,0,0,1-4,1.26,6.52,6.52,0,0,1-5.11-2,8.22,8.22,0,0,1-1.76-5.66,8,8,0,0,1,1.84-5.52,6.36,6.36,0,0,1,5-2.06,5.85,5.85,0,0,1,4.57,1.79,7.18,7.18,0,0,1,1.63,5v1.23H572.28Q572.44,990.84,577.09,990.84ZM577,978.9a4.36,4.36,0,0,0-3.23,1.21,5.77,5.77,0,0,0-1.43,3.55h8.78Q580.89,978.91,577,978.9Z"/><path class="cls-2" d="M599,982.74v9.38h-2v-9a4.3,4.3,0,0,0-1-3,3.61,3.61,0,0,0-2.81-1.07,4,4,0,0,0-3.22,1.32,6,6,0,0,0-1.1,3.88v7.9h-2v-14.5h2v1.92a5.16,5.16,0,0,1,4.65-2.26,5,5,0,0,1,5.45,5.46Z"/><path class="cls-2" d="M605.48,975h-2V971.7h2Zm0,17.09h-2v-14.5h2Z"/><path class="cls-2" d="M621.78,990.46h.75v1.66h-1.19a2.85,2.85,0,0,1-1.83-.59,2,2,0,0,1-.74-1.6v-.11a5.11,5.11,0,0,1-4.73,2.66,5.35,5.35,0,0,1-3.64-1.18,3.8,3.8,0,0,1-1.37-3,4,4,0,0,1,1.14-2.92,5.87,5.87,0,0,1,3.23-1.53l4.4-.75a1,1,0,0,0,.94-1.11,2.71,2.71,0,0,0-1-2.17,3.83,3.83,0,0,0-2.61-.84,3.59,3.59,0,0,0-3.9,3l-1.87-.26a5,5,0,0,1,1.91-3.17,6.32,6.32,0,0,1,3.95-1.2,5.64,5.64,0,0,1,4,1.34,4.71,4.71,0,0,1,1.46,3.62v7.11a1.2,1.2,0,0,0,.25.86A1.16,1.16,0,0,0,621.78,990.46ZM611,988.15a2.45,2.45,0,0,0,.82,2,3.4,3.4,0,0,0,2.3.71,4.28,4.28,0,0,0,3.33-1.46,5.64,5.64,0,0,0,1.31-3.85v-.93l-5.18.9a3.13,3.13,0,0,0-1.9.91A2.44,2.44,0,0,0,611,988.15Z"/><path class="cls-2" d="M636.74,984.22v7.9h-2v-9a4.54,4.54,0,0,0-.9-3,3.2,3.2,0,0,0-2.59-1.07,3.56,3.56,0,0,0-3,1.33,6.22,6.22,0,0,0-1,3.87v7.9h-2v-14.5h2v1.84a4.94,4.94,0,0,1,4.35-2.18,5.48,5.48,0,0,1,2.85.7,4.28,4.28,0,0,1,1.76,2,5,5,0,0,1,4.79-2.73,5.1,5.1,0,0,1,3.86,1.46,5.5,5.5,0,0,1,1.41,4v9.38h-2v-9a4.54,4.54,0,0,0-.91-3,3.2,3.2,0,0,0-2.6-1.07,3.54,3.54,0,0,0-3,1.33A6.22,6.22,0,0,0,636.74,984.22Z"/><path class="cls-2" d="M651,995.77h-1.89l1.69-6.48h2Z"/><path class="cls-2" d="M668.86,992.48a6,6,0,0,1-4.73-2.05,8.12,8.12,0,0,1-1.75-5.46,8.39,8.39,0,0,1,1.75-5.57,5.88,5.88,0,0,1,4.73-2.12,5.57,5.57,0,0,1,4.87,2.53v-2.19h1.95v19.9h-1.95v-7.68A5.51,5.51,0,0,1,668.86,992.48Zm-4.43-7.62a6.84,6.84,0,0,0,1.23,4.29,4,4,0,0,0,3.34,1.58,4.27,4.27,0,0,0,3.49-1.61,7.51,7.51,0,0,0,0-8.46A4.22,4.22,0,0,0,669,979a4,4,0,0,0-3.34,1.57A6.75,6.75,0,0,0,664.43,984.86Z"/><path class="cls-2" d="M690,977.62h2v14.5h-2v-1.86a5.08,5.08,0,0,1-4.5,2.22,5.13,5.13,0,0,1-3.88-1.47,5.49,5.49,0,0,1-1.42-4v-9.4h2v9a4.34,4.34,0,0,0,1,3,3.42,3.42,0,0,0,2.7,1.06,3.72,3.72,0,0,0,3.1-1.33,5.94,5.94,0,0,0,1.07-3.84Z"/><path class="cls-2" d="M698.59,975h-2V971.7h2Zm0,17.09h-2v-14.5h2Z"/><path class="cls-2" d="M708.18,992.48a6.79,6.79,0,0,1-4.35-1.31,4.61,4.61,0,0,1-1.75-3.51l1.95-.35a4,4,0,0,0,1.24,2.65,4.37,4.37,0,0,0,2.91.85,4,4,0,0,0,2.57-.72,2.58,2.58,0,0,0,.88-2.11c0-1.26-1-2-2.92-2.37l-2-.31c-2.81-.47-4.21-1.79-4.21-4a3.53,3.53,0,0,1,1.45-2.9,6.91,6.91,0,0,1,7.62,0,5.15,5.15,0,0,1,1.82,3.31l-1.81.31a4.26,4.26,0,0,0-1.33-2.39,3.91,3.91,0,0,0-2.53-.73,4,4,0,0,0-2.41.64,2,2,0,0,0-.88,1.67,2,2,0,0,0,.6,1.53,3.49,3.49,0,0,0,1.93.75l2.28.37c2.9.47,4.35,1.84,4.35,4.09a4.06,4.06,0,0,1-1.47,3.26A5.93,5.93,0,0,1,708.18,992.48Z"/><path class="cls-2" d="M736.29,982.74v9.38h-2v-9a4.3,4.3,0,0,0-1-3A3.61,3.61,0,0,0,730.5,979a4,4,0,0,0-3.22,1.32,6,6,0,0,0-1.1,3.88v7.9h-2v-14.5h2v1.92a5.16,5.16,0,0,1,4.65-2.26,5,5,0,0,1,5.46,5.46Z"/><path class="cls-2" d="M739.77,984.89a8,8,0,0,1,1.87-5.52,7.15,7.15,0,0,1,10.1,0,9,9,0,0,1,0,11,7.17,7.17,0,0,1-10.1,0A8,8,0,0,1,739.77,984.89Zm10.51,4.28a6.46,6.46,0,0,0,1.32-4.28,6.57,6.57,0,0,0-1.32-4.31,4.8,4.8,0,0,0-7.14,0,7.72,7.72,0,0,0,0,8.59,4.81,4.81,0,0,0,7.15,0Z"/><path class="cls-2" d="M762.24,992.48a6.81,6.81,0,0,1-4.35-1.31,4.61,4.61,0,0,1-1.75-3.51l2-.35a4.09,4.09,0,0,0,1.24,2.65,4.37,4.37,0,0,0,2.91.85,4,4,0,0,0,2.57-.72,2.55,2.55,0,0,0,.88-2.11c0-1.26-1-2-2.92-2.37l-2-.31c-2.8-.47-4.21-1.79-4.21-4a3.56,3.56,0,0,1,1.45-2.9,6.91,6.91,0,0,1,7.62,0,5.11,5.11,0,0,1,1.82,3.31l-1.81.31a4.26,4.26,0,0,0-1.33-2.39,3.91,3.91,0,0,0-2.53-.73,4,4,0,0,0-2.41.64,2,2,0,0,0-.88,1.67,2,2,0,0,0,.6,1.53,3.49,3.49,0,0,0,1.93.75l2.28.37c2.9.47,4.35,1.84,4.35,4.09a4.06,4.06,0,0,1-1.47,3.26A5.93,5.93,0,0,1,762.24,992.48Z"/><path class="cls-2" d="M769.26,979.29v-1.67h2.68v-4.79h2v4.79h3.93v1.67h-3.93v8.77a2.9,2.9,0,0,0,.44,1.83,2,2,0,0,0,1.56.51h2.31v1.72H775.7a3.77,3.77,0,0,1-2.78-1,3.83,3.83,0,0,1-1-2.81v-9Z"/><path class="cls-2" d="M783.08,992.12h-2v-14.5h2v2.84a4.6,4.6,0,0,1,4.32-2.84h1.08v1.92H787.4a3.62,3.62,0,0,0-3.12,1.78,8.14,8.14,0,0,0-1.2,4.65Z"/><path class="cls-2" d="M801,977.62h2v14.5h-2v-1.86a5.09,5.09,0,0,1-4.5,2.22,5.16,5.16,0,0,1-3.89-1.47,5.52,5.52,0,0,1-1.41-4v-9.4h2v9a4.33,4.33,0,0,0,.94,3,3.43,3.43,0,0,0,2.7,1.06A3.74,3.74,0,0,0,800,989.4a6,6,0,0,0,1.07-3.84Z"/><path class="cls-2" d="M813.17,992.48a6,6,0,0,1-4.73-2.05,8.12,8.12,0,0,1-1.75-5.46,8.39,8.39,0,0,1,1.75-5.57,5.88,5.88,0,0,1,4.73-2.12,5.57,5.57,0,0,1,4.87,2.53V971.7h2v20.42h-2v-2.28A5.51,5.51,0,0,1,813.17,992.48Zm-4.43-7.62a6.9,6.9,0,0,0,1.22,4.29,4,4,0,0,0,3.35,1.58,4.26,4.26,0,0,0,3.48-1.61,7.48,7.48,0,0,0,0-8.46,4.23,4.23,0,0,0-3.48-1.64,4,4,0,0,0-3.35,1.57A6.81,6.81,0,0,0,808.74,984.86Z"/><path class="cls-2" d="M837.59,990.84a3.7,3.7,0,0,0,4-3.33l1.9.3a5,5,0,0,1-1.91,3.41,6.33,6.33,0,0,1-4,1.26,6.49,6.49,0,0,1-5.11-2,8.22,8.22,0,0,1-1.76-5.66,8,8,0,0,1,1.84-5.52,6.33,6.33,0,0,1,5-2.06,5.89,5.89,0,0,1,4.58,1.79,7.18,7.18,0,0,1,1.62,5v1.23H832.77Q832.94,990.84,837.59,990.84Zm-.1-11.94a4.34,4.34,0,0,0-3.23,1.21,5.77,5.77,0,0,0-1.43,3.55h8.77Q841.39,978.91,837.49,978.9Z"/><path class="cls-2" d="M845,992.12l5.59-7.35-5.37-7.15h2.28l4.32,5.76,4.37-5.76h2.25l-5.42,7.12,5.6,7.38h-2.34l-4.49-6-4.53,6Z"/><path class="cls-2" d="M866.82,990.84a3.7,3.7,0,0,0,4-3.33l1.9.3a5,5,0,0,1-1.91,3.41,6.33,6.33,0,0,1-4,1.26,6.49,6.49,0,0,1-5.11-2,8.22,8.22,0,0,1-1.76-5.66,8,8,0,0,1,1.84-5.52,6.33,6.33,0,0,1,5-2.06,5.87,5.87,0,0,1,4.57,1.79,7.18,7.18,0,0,1,1.62,5v1.23H862C862.12,989,863.72,990.84,866.82,990.84Zm-.1-11.94a4.34,4.34,0,0,0-3.23,1.21,5.77,5.77,0,0,0-1.43,3.55h8.77Q870.62,978.91,866.72,978.9Z"/><path class="cls-2" d="M878.64,992.12h-2v-14.5h2v2.84a4.6,4.6,0,0,1,4.32-2.84H884v1.92H883a3.62,3.62,0,0,0-3.12,1.78,8.14,8.14,0,0,0-1.2,4.65Z"/><path class="cls-2" d="M892.25,990.76a4,4,0,0,0,2.87-1,4.31,4.31,0,0,0,1.27-2.85l2,.22a5.71,5.71,0,0,1-1.89,3.9,6.87,6.87,0,0,1-9.11-.55,8.14,8.14,0,0,1-1.78-5.52,8.33,8.33,0,0,1,1.78-5.57,6.11,6.11,0,0,1,4.88-2.09,6.33,6.33,0,0,1,4.25,1.37,5.77,5.77,0,0,1,2,3.84l-2.1.25q-.58-3.75-4.17-3.75a4,4,0,0,0-3.36,1.57,7.15,7.15,0,0,0-1.19,4.38,6.74,6.74,0,0,0,1.22,4.27A4,4,0,0,0,892.25,990.76Z"/><path class="cls-2" d="M903.91,975h-2V971.7h2Zm0,17.09h-2v-14.5h2Z"/><path class="cls-2" d="M913.29,979.29v-1.67H916v-4.79h2v4.79h3.93v1.67H918v8.77a2.83,2.83,0,0,0,.45,1.83,2,2,0,0,0,1.56.51h2.31v1.72h-2.55a3.78,3.78,0,0,1-2.79-1,3.83,3.83,0,0,1-1-2.81v-9Z"/><path class="cls-2" d="M936.76,990.46h.76v1.66h-1.2a2.85,2.85,0,0,1-1.83-.59,2,2,0,0,1-.73-1.6v-.11a5.13,5.13,0,0,1-4.73,2.66,5.38,5.38,0,0,1-3.65-1.18,3.84,3.84,0,0,1-1.37-3,4,4,0,0,1,1.14-2.92,5.86,5.86,0,0,1,3.24-1.53l4.4-.75a1,1,0,0,0,.94-1.11,2.72,2.72,0,0,0-1-2.17,3.78,3.78,0,0,0-2.6-.84,3.59,3.59,0,0,0-3.91,3l-1.86-.26a4.93,4.93,0,0,1,1.91-3.17,6.29,6.29,0,0,1,3.94-1.2,5.67,5.67,0,0,1,4,1.34,4.7,4.7,0,0,1,1.45,3.62v7.11a1.2,1.2,0,0,0,.25.86A1.17,1.17,0,0,0,936.76,990.46ZM926,988.15a2.46,2.46,0,0,0,.83,2,3.36,3.36,0,0,0,2.29.71,4.31,4.31,0,0,0,3.34-1.46,5.69,5.69,0,0,0,1.31-3.85v-.93l-5.19.9a3.13,3.13,0,0,0-1.9.91A2.48,2.48,0,0,0,926,988.15Z"/><path class="cls-2" d="M938.42,979.29v-1.67h2.67v-4.79h2v4.79H947v1.67h-3.93v8.77a2.83,2.83,0,0,0,.45,1.83,2,2,0,0,0,1.56.51h2.3v1.72h-2.55a3.77,3.77,0,0,1-2.78-1,3.83,3.83,0,0,1-1-2.81v-9Z"/><path class="cls-2" d="M952.23,975h-2V971.7h2Zm0,17.09h-2v-14.5h2Z"/><path class="cls-2" d="M955.89,984.89a8,8,0,0,1,1.87-5.52,7.15,7.15,0,0,1,10.1,0,9,9,0,0,1,0,11,7.17,7.17,0,0,1-10.1,0A8,8,0,0,1,955.89,984.89Zm10.51,4.28a6.46,6.46,0,0,0,1.32-4.28,6.57,6.57,0,0,0-1.32-4.31,4.8,4.8,0,0,0-7.14,0,7.72,7.72,0,0,0,0,8.59,4.81,4.81,0,0,0,7.15,0Z"/><path class="cls-2" d="M985.51,982.74v9.38h-2v-9a4.3,4.3,0,0,0-1-3,3.62,3.62,0,0,0-2.81-1.07,3.94,3.94,0,0,0-3.22,1.32,6,6,0,0,0-1.1,3.88v7.9h-2v-14.5h2v1.92a5.16,5.16,0,0,1,4.65-2.26,5,5,0,0,1,5.45,5.46Z"/><rect class="cls-4" y="85.87" width="1080" height="1"/><rect class="cls-5" y="993.13" width="1080" height="1"/><rect class="cls-6" y="704.28" width="1080" height="1"/><rect class="cls-7" y="739.3" width="1080" height="1"/><rect class="cls-8" y="827.12" width="1080" height="1"/><rect class="cls-9" y="617.89" width="1080" height="1"/><rect class="cls-10" y="661.11" width="1080" height="1"/><rect class="cls-11" x="993.13" width="1" height="1080"/><rect class="cls-3" x="993.58" width="86.37" height="21.59"/><rect class="cls-3" x="993.58" y="64.78" width="86.37" height="21.59"/><rect class="cls-3" x="989.72" y="32.41" width="94.13" height="21.59" transform="translate(208.82 668.72) rotate(-39.46)"/><rect class="cls-12" x="85.87" width="1" height="1080"/></g></svg>