<svg xmlns="http://www.w3.org/2000/svg" viewBox="0 0 1080 1080"><defs><style>.cls-1{fill:#a9afb0;}.cls-2{fill:#fff;}</style></defs><g id="Background"><rect width="1080" height="1080"/></g><g id="Graphic"><path class="cls-1" d="M627,86.4h0a367.2,367.2,0,0,1,367.2,367.2V1080a0,0,0,0,1,0,0H259.77a0,0,0,0,1,0,0V453.6A367.2,367.2,0,0,1,627,86.4Z"/><path class="cls-2" d="M994.09,994.1h-12.5v-1h11.5v-4.29h1Zm-24.5,0h-12v-1h12Zm-24,0h-12v-1h12Zm-24,0h-12v-1h12Zm-24,0h-12v-1h12Zm-24,0h-12v-1h12Zm-24,0h-12v-1h12Zm-24,0h-12v-1h12Zm-24,0h-12v-1h12Zm-24,0h-12v-1h12Zm-24,0h-12v-1h12Zm-24,0h-12v-1h12Zm-24,0h-12v-1h12Zm-24,0h-12v-1h12Zm-24,0h-12v-1h12Zm-24,0h-12v-1h12Zm-24,0h-12v-1h12Zm-24,0h-12v-1h12Zm-24,0h-12v-1h12Zm-24,0h-12v-1h12Zm-24,0h-12v-1h12Zm-24,0h-12v-1h12Zm-24,0h-12v-1h12Zm-24,0h-12v-1h12Zm-24,0h-12v-1h12Zm-24,0h-12v-1h12Zm-24,0h-12v-1h12Zm-24,0h-12v-1h12Zm-24,0h-12v-1h12Zm-24,0h-12v-1h12Zm-24,0h-12v-1h12Zm-24,0h-12v-1h12Zm-24,0h-12v-1h12Zm-24,0h-12v-1h12Zm-24,0h-12v-1h12Zm-24,0h-12v-1h12Zm-24,0h-12v-1h12Zm-24,0h-12v-1h12Zm-18.7-5.31h-1v-12h1Zm907.19-12h-1v-12h1Zm-907.19-12h-1v-12h1Zm907.19-12h-1v-12h1Zm-907.19-12h-1v-12h1Zm907.19-12h-1v-12h1Zm-907.19-12h-1v-12h1Zm907.19-12h-1v-12h1Zm-907.19-12h-1v-12h1Zm907.19-12h-1v-12h1Zm-907.19-12h-1v-12h1Zm907.19-12h-1v-12h1Zm-907.19-12h-1v-12h1Zm907.19-12h-1v-12h1Zm-907.19-12h-1v-12h1Zm907.19-12h-1v-12h1Zm-907.19-12h-1v-12h1Zm907.19-12h-1v-12h1Zm-907.19-12h-1v-12h1Zm907.19-12h-1v-12h1Zm-907.19-12h-1v-12h1Zm907.19-12h-1v-12h1Zm-907.19-12h-1v-12h1Zm907.19-12h-1v-12h1Zm-907.19-12h-1v-12h1Zm907.19-12h-1v-12h1Zm-907.19-12h-1v-12h1Zm907.19-12h-1v-12h1Zm-907.19-12h-1v-12h1Zm907.19-12h-1v-12h1Zm-907.19-12h-1v-12h1Zm907.19-12h-1v-12h1Zm-907.19-12h-1v-12h1Zm907.19-12h-1v-12h1Zm-907.19-12h-1v-12h1Zm907.19-12h-1v-12h1Zm-907.19-12h-1v-12h1Zm907.19-12h-1v-12h1Zm-907.19-12h-1v-12h1Zm907.19-12h-1v-12h1Zm-907.19-12h-1v-12h1Zm907.19-12h-1v-12h1Zm-907.19-12h-1v-12h1Zm907.19-12h-1v-12h1Zm-907.19-12h-1v-12h1Zm907.19-12h-1v-12h1Zm-907.19-12h-1v-12h1Zm907.19-12h-1v-12h1Zm-907.19-12h-1v-12h1Zm907.19-12h-1v-12h1Zm-907.19-12h-1v-12h1Zm907.19-12h-1v-12h1Zm-907.19-12h-1v-12h1Zm907.19-12h-1v-12h1Zm-907.19-12h-1v-12h1Zm907.19-12h-1v-12h1Zm-907.19-12h-1v-12h1Zm907.19-12h-1v-12h1Zm-907.19-12h-1v-12h1Zm907.19-12h-1v-12h1Zm-907.19-12h-1v-12h1Zm907.19-12h-1v-12h1Zm-907.19-12h-1v-12h1Zm907.19-12h-1v-12h1Zm-907.19-12h-1v-12h1Zm907.19-12h-1v-12h1Zm-907.19-12h-1v-12h1Zm907.19-12h-1v-12h1Zm-907.19-12h-1v-12h1Zm907.19-12h-1v-12h1Zm-907.19-12h-1v-12h1Zm907.19-12h-1v-12h1Zm-907.19-12h-1v-12h1Zm907.19-12h-1v-12h1Zm-907.19-12h-1v-12h1Zm907.19-12h-1V86.9H984v-1h10.08ZM972,86.9H960v-1h12Zm-24,0H936v-1h12Zm-24,0H912v-1h12Zm-24,0H888v-1h12Zm-24,0H864v-1h12Zm-24,0H840v-1h12Zm-24,0H816v-1h12Zm-24,0H792v-1h12Zm-24,0H768v-1h12Zm-24,0H744v-1h12Zm-24,0H720v-1h12Zm-24,0H696v-1h12Zm-24,0H672v-1h12Zm-24,0H648v-1h12Zm-24,0H624v-1h12Zm-24,0H600v-1h12Zm-24,0H576v-1h12Zm-24,0H552v-1h12Zm-24,0H528v-1h12Zm-24,0H504v-1h12Zm-24,0H480v-1h12Zm-24,0H456v-1h12Zm-24,0H432v-1h12Zm-24,0H408v-1h12Zm-24,0H384v-1h12Zm-24,0H360v-1h12Zm-24,0H336v-1h12Zm-24,0H312v-1h12Zm-24,0H288v-1h12Zm-24,0H264v-1h12Zm-24,0H240v-1h12Zm-24,0H216v-1h12Zm-24,0H192v-1h12Zm-24,0H168v-1h12Zm-24,0H144v-1h12Zm-24,0H120v-1h12Zm-24,0H96v-1h12Z"/><rect class="cls-2" x="907.16" y="86.4" width="86.4" height="21.6"/><rect class="cls-2" x="907.16" y="151.2" width="86.4" height="21.6"/><rect class="cls-2" x="903.3" y="118.82" width="94.16" height="21.6" transform="translate(134.21 633.5) rotate(-39.46)"/><path class="cls-2" d="M993.56,173.3h-12v-1h12Zm-24,0h-12v-1h12Zm-24,0h-12v-1h12Zm-24,0h-12v-1h12Zm-24,0h-12v-1h12Zm-24,0h-12v-1h12Zm-24,0h-12v-1h12Zm-24,0h-12v-1h12Zm-24,0h-12v-1h12Zm-24,0h-12v-1h12Zm-24,0h-12v-1h12Zm-24,0h-12v-1h12Zm-24,0h-12v-1h12Zm-24,0h-12v-1h12Zm-24,0h-12v-1h12Zm-24,0h-12v-1h12Zm-24,0h-12v-1h12Zm-24,0h-12v-1h12Zm-24,0h-12v-1h12Zm-24,0h-12v-1h12Zm-24,0h-12v-1h12Zm-24,0h-12v-1h12Zm-24,0h-12v-1h12Zm-24,0h-12v-1h12Zm-24,0h-12v-1h12Zm-24,0h-12v-1h12Zm-24,0h-12v-1h12Zm-24,0h-12v-1h12Zm-24,0h-12v-1h12Zm-24,0h-12v-1h12Zm-24,0h-12v-1h12Zm-24,0h-12v-1h12Zm-24,0h-12v-1h12Zm-24,0h-12v-1h12Zm-24,0h-12v-1h12Zm-24,0h-12v-1h12Zm-24,0h-12v-1h12Zm-24,0h-12v-1h12Z"/><path class="cls-2" d="M87,351.39h15.84v2.95H96.64v17.48H93.19V354.34H87Z"/><path class="cls-2" d="M119.82,371.82H105.76V351.39h13.77v2.92H109.18V360h9.19v2.82h-9.19v6h10.64Z"/><path class="cls-2" d="M121.54,371.82l6.66-10.21-6.57-10.22h3.93l4.62,7.42,4.78-7.42h3.82l-6.68,10.13,6.82,10.3h-4l-4.79-7.41-4.64,7.41Z"/><path class="cls-2" d="M139.73,351.39h15.85v2.95h-6.19v17.48H146V354.34h-6.22Z"/><path class="cls-2" d="M167.41,371.82H164V351.39h3.41v8.49h9.45v-8.49h3.42v20.43h-3.42v-9h-9.45Z"/><path class="cls-2" d="M194.57,357a2.84,2.84,0,0,0-.87-2.18,3.21,3.21,0,0,0-2.3-.82,3.49,3.49,0,0,0-3,1.33,5.78,5.78,0,0,0-.85,3.85l-3.32-.44a7,7,0,0,1,1.81-5.62,7.22,7.22,0,0,1,5.41-2.07,6.88,6.88,0,0,1,4.79,1.64A5.43,5.43,0,0,1,198,356.9a7.46,7.46,0,0,1-1.06,3.75,16.67,16.67,0,0,1-3.4,3.93l-4.87,4.35h9.94v2.89H184.17V369l7.26-6.5a11.63,11.63,0,0,0,2.41-2.77A5.41,5.41,0,0,0,194.57,357Z"/><path class="cls-2" d="M208.68,365.28H201v-2.82h7.65Z"/><path class="cls-2" d="M216.35,371.82h-3.42V351.39h3.42v8.49h9.44v-8.49h3.42v20.43h-3.42v-9h-9.44Z"/><path class="cls-2" d="M248.1,371.82H234V351.39h13.78v2.92H237.46V360h9.19v2.82h-9.19v6H248.1Z"/><path class="cls-2" d="M263.62,367.3H255l-1.67,4.52h-3.43l7.69-20.43h3.71l7.65,20.43h-3.68ZM256,364.47h6.56l-3.24-9Z"/><path class="cls-2" d="M280.1,371.82h-8.32V351.39h8.32a10.1,10.1,0,0,1,7.38,2.69,9.63,9.63,0,0,1,2.73,7.24,10.58,10.58,0,0,1-2.76,7.61A9.69,9.69,0,0,1,280.1,371.82Zm6.65-10.5a7.06,7.06,0,0,0-1.81-5.09,6.39,6.39,0,0,0-4.84-1.89h-4.9v14.53h4.9a6.11,6.11,0,0,0,4.84-2.07A8,8,0,0,0,286.75,361.32Z"/><path class="cls-2" d="M297.45,371.82H294V351.39h3.42Z"/><path class="cls-2" d="M305.54,371.82h-3.26V351.39H306l9.1,14.39V351.39h3.28v20.43h-3l-9.9-15.61Z"/><path class="cls-2" d="M332.12,372.18a9.54,9.54,0,0,1-7.21-2.9A12,12,0,0,1,325,354a9.67,9.67,0,0,1,7.41-2.92,9.94,9.94,0,0,1,5.93,1.69,8.12,8.12,0,0,1,3.17,4.78l-3.36.58a5.49,5.49,0,0,0-5.74-4.1,6.14,6.14,0,0,0-4.91,2.05,8.36,8.36,0,0,0-1.77,5.64,8,8,0,0,0,1.83,5.46,6.28,6.28,0,0,0,4.88,2.08,6.57,6.57,0,0,0,4.4-1.44,4.58,4.58,0,0,0,1.72-3.62v-.7h-5.9v-2.71h9v11.06h-3.09v-2.54a7,7,0,0,1-2.73,2.15A9,9,0,0,1,332.12,372.18Z"/><path class="cls-2" d="M97.75,407.19a9.54,9.54,0,0,1-7.21-2.9A12,12,0,0,1,90.6,389,9.67,9.67,0,0,1,98,386.06a9.94,9.94,0,0,1,5.93,1.69,8.12,8.12,0,0,1,3.17,4.78l-3.36.58A5.49,5.49,0,0,0,98,389a6.14,6.14,0,0,0-4.91,2.05,8.36,8.36,0,0,0-1.77,5.64,8,8,0,0,0,1.84,5.46A6.24,6.24,0,0,0,98,404.24a6.57,6.57,0,0,0,4.4-1.44,4.58,4.58,0,0,0,1.72-3.62v-.7H98.27v-2.71h9v11.06h-3.09v-2.54a7,7,0,0,1-2.73,2.15A8.94,8.94,0,0,1,97.75,407.19Z"/><path class="cls-2" d="M130.1,396.62a10.79,10.79,0,0,1-2.69,7.67,10.28,10.28,0,0,1-14.31,0,12.32,12.32,0,0,1,0-15.34,10.28,10.28,0,0,1,14.29,0A10.71,10.71,0,0,1,130.1,396.62ZM115.62,391a10.09,10.09,0,0,0,0,11.15,6.31,6.31,0,0,0,9.31,0,10,10,0,0,0,0-11.15,6.35,6.35,0,0,0-9.31,0Z"/><path class="cls-2" d="M148,406.83H133.91V386.4h13.77v2.92H137.33v5.73h9.19v2.82h-9.19v6H148Z"/><path class="cls-2" d="M158.79,407.19a9.32,9.32,0,0,1-6-1.79,6.09,6.09,0,0,1-2.28-4.9l3.42-.38a4.28,4.28,0,0,0,1.34,3.19,5.22,5.22,0,0,0,3.53,1.1,4.37,4.37,0,0,0,2.9-.88,2.89,2.89,0,0,0,1.07-2.36,2.39,2.39,0,0,0-.73-1.86,5.55,5.55,0,0,0-2.54-1l-2.69-.55q-5.69-1.17-5.68-5.87a5.21,5.21,0,0,1,2-4.11,7.64,7.64,0,0,1,5.2-1.69,8.22,8.22,0,0,1,5.28,1.59,6.11,6.11,0,0,1,2.27,4.36l-3.48.37c-.26-2.37-1.62-3.56-4.1-3.56a4.26,4.26,0,0,0-2.74.79,2.53,2.53,0,0,0-1,2.1,2.63,2.63,0,0,0,.69,1.94,4.1,4.1,0,0,0,2.24,1l3.13.62a7.91,7.91,0,0,1,4.26,1.94,5,5,0,0,1,1.4,3.69,5.75,5.75,0,0,1-2.08,4.52A7.88,7.88,0,0,1,158.79,407.19Z"/><path class="cls-2" d="M179.69,406.83h-3.41V386.4h3.41v8.49h9.45V386.4h3.42v20.43h-3.42v-9h-9.45Z"/><path class="cls-2" d="M211.45,406.83H197.39V386.4h13.77v2.92H200.81v5.73H210v2.82h-9.18v6h10.64Z"/><path class="cls-2" d="M230.49,401.63l.3,5.2h-3.42l-.3-5.2a2.41,2.41,0,0,0-.93-1.94,4.43,4.43,0,0,0-2.64-.62h-4.84v7.76h-3.42V386.4h8.49a7.7,7.7,0,0,1,5.1,1.61,5,5,0,0,1,2,4.09,5.92,5.92,0,0,1-.86,3.13,6.07,6.07,0,0,1-2.41,2.21A4.2,4.2,0,0,1,230.49,401.63Zm-3.17-9.19a2.84,2.84,0,0,0-1-2.29,4.26,4.26,0,0,0-2.82-.86h-4.81v6.95h4.81a3.77,3.77,0,0,0,2.79-1.05A3.73,3.73,0,0,0,227.32,392.44Z"/><path class="cls-2" d="M249.07,406.83H235V386.4h13.78v2.92H238.43v5.73h9.19v2.82h-9.19v6h10.64Z"/><path class="cls-2" d="M98.71,480.42l-9.07,11.14H99v1.67H87.34v-1.58l9.16-11.26H87.83v-1.66H98.71Z"/><path class="cls-2" d="M108,492a3.71,3.71,0,0,0,4-3.34l1.89.3a5,5,0,0,1-1.91,3.42,6.33,6.33,0,0,1-4,1.26,6.54,6.54,0,0,1-5.11-2,8.24,8.24,0,0,1-1.76-5.67,7.94,7.94,0,0,1,1.84-5.51,6.33,6.33,0,0,1,5-2.06,5.86,5.86,0,0,1,4.57,1.78,7.22,7.22,0,0,1,1.62,5v1.23H103.18C103.3,490.1,104.9,492,108,492ZM107.9,480a4.31,4.31,0,0,0-3.23,1.21,5.77,5.77,0,0,0-1.43,3.55H112Q111.8,480,107.9,480Z"/><path class="cls-2" d="M123.74,492a3.71,3.71,0,0,0,4-3.34l1.89.3a5,5,0,0,1-1.91,3.42,6.31,6.31,0,0,1-4,1.26,6.55,6.55,0,0,1-5.11-2,8.24,8.24,0,0,1-1.76-5.67,8,8,0,0,1,1.84-5.51,6.33,6.33,0,0,1,5-2.06,5.86,5.86,0,0,1,4.57,1.78,7.23,7.23,0,0,1,1.63,5v1.23h-11C119,490.1,120.64,492,123.74,492Zm-.1-11.94a4.32,4.32,0,0,0-3.23,1.21,5.77,5.77,0,0,0-1.43,3.55h8.78C127.62,481.6,126.24,480,123.64,480Z"/><path class="cls-2" d="M139.48,492a3.71,3.71,0,0,0,4-3.34l1.89.3a5,5,0,0,1-1.91,3.42,6.31,6.31,0,0,1-4,1.26,6.51,6.51,0,0,1-5.1-2,8.2,8.2,0,0,1-1.76-5.67,8,8,0,0,1,1.83-5.51,6.33,6.33,0,0,1,5-2.06,5.85,5.85,0,0,1,4.57,1.78,7.18,7.18,0,0,1,1.63,5v1.23H134.67Q134.84,491.95,139.48,492Zm-.1-11.94a4.28,4.28,0,0,0-3.22,1.21,5.71,5.71,0,0,0-1.44,3.55h8.78C143.36,481.6,142,480,139.38,480Z"/><path class="cls-2" d="M161.41,483.84v9.39h-2v-9a4.32,4.32,0,0,0-1-3,3.64,3.64,0,0,0-2.81-1.07,4,4,0,0,0-3.22,1.33,5.93,5.93,0,0,0-1.1,3.87v7.91h-2v-14.5h2v1.92a5.16,5.16,0,0,1,4.65-2.26,5,5,0,0,1,5.46,5.45Z"/><path class="cls-2" d="M165.59,490.39h2.7v2.84h-2.7Z"/><path class="cls-2" d="M174.64,476.13h-2V472.8h2Zm0,17.1h-2v-14.5h2Z"/><path class="cls-2" d="M181.28,493.23h-2v-14.5h2v2.83a4.59,4.59,0,0,1,4.31-2.83h1.09v1.92h-1.09a3.63,3.63,0,0,0-3.12,1.77,8.28,8.28,0,0,0-1.19,4.66Z"/><path class="cls-2" d="M90.47,172.21h31v12.22h-5.85v-7.29H100.16V191h13v4.9h-13V210.5h15.41v-7.29h5.85V215.4H90.47v-4.9h4.11V177.14H90.47Z"/><path class="cls-2" d="M153.84,172.21h14v4.93h-3.68V215.4h-7.29L136.8,179.59V210.5h4.45v4.9h-14v-4.9h4V177.14h-4.11v-5h11.63l19.71,35.47.23-1.37V177.14h-4.84Z"/><path class="cls-2" d="M206.72,215.57v-8.66a14.71,14.71,0,0,1-2.71,3.92,15,15,0,0,1-3.62,2.75,17.36,17.36,0,0,1-4.26,1.62,19.75,19.75,0,0,1-4.6.54,21,21,0,0,1-7.78-1.41,17.79,17.79,0,0,1-6.45-4.49,20.88,20.88,0,0,1-4.42-7.29,25.81,25.81,0,0,1-1.52-8.8,25,25,0,0,1,1.52-8.72,22,22,0,0,1,4.28-7.15,19.68,19.68,0,0,1,14.8-6.53,19.06,19.06,0,0,1,7,1.17,19.28,19.28,0,0,1,5,2.84,22.65,22.65,0,0,1,3.35,3.17h2.77v5.07H204a14.27,14.27,0,0,0-5.06-5.12,14.07,14.07,0,0,0-13.06-.43,14.63,14.63,0,0,0-4.69,3.76,17.71,17.71,0,0,0-3,5.44,19.49,19.49,0,0,0-1.08,6.5,20.34,20.34,0,0,0,1.19,7,15.77,15.77,0,0,0,3.05,5.27,15.07,15.07,0,0,0,4.57,3.35,13.54,13.54,0,0,0,6,1.33,14.36,14.36,0,0,0,9-2.67q3.51-2.66,4.91-8.3H193.75v-4.9H212v20.71Z"/><path class="cls-2" d="M221.33,172.21h14v4.93H231V210.5h14.9a2.12,2.12,0,0,0,.91-.21,3.36,3.36,0,0,0,.83-.56,2.81,2.81,0,0,0,.6-.78,2,2,0,0,0,.23-.9v-5.44h5.41V215.4H221.33v-4.9h4.11V177.14h-4.11Z"/><path class="cls-2" d="M258.26,172.21h13.79v4.93H268V210.5h4.1v4.9H258.26v-4.9h4.1V177.14h-4.1Z"/><path class="cls-2" d="M301.42,180.18a7.12,7.12,0,0,0-2-1.92,9.18,9.18,0,0,0-2.4-1,9.9,9.9,0,0,0-2.62-.36,13,13,0,0,0-3.79.5,8,8,0,0,0-2.7,1.35,5.68,5.68,0,0,0-1.61,2,5.5,5.5,0,0,0-.54,2.39,6.07,6.07,0,0,0,.67,3,5.65,5.65,0,0,0,1.7,1.86,8.75,8.75,0,0,0,2.26,1.09c.83.27,1.62.53,2.38.8l5.76,1.88a27.61,27.61,0,0,1,4.57,1.88,12.61,12.61,0,0,1,3.32,2.49,10,10,0,0,1,2,3.32,12.67,12.67,0,0,1,.69,4.36,11.29,11.29,0,0,1-1.09,5,12,12,0,0,1-3.07,4,14.61,14.61,0,0,1-4.68,2.64,18.14,18.14,0,0,1-6,1,18.69,18.69,0,0,1-5.7-.76,12.25,12.25,0,0,1-4-2,10.34,10.34,0,0,1-2.58-2.89,15.48,15.48,0,0,1-1.51-3.33H278.4v-4.9h7.18a10.59,10.59,0,0,0,.67,4.47,6.14,6.14,0,0,0,1.87,2.18A8.5,8.5,0,0,0,291,210.4a14.24,14.24,0,0,0,3.64.44,12.46,12.46,0,0,0,3.49-.45,7.76,7.76,0,0,0,2.65-1.33,5.83,5.83,0,0,0,1.68-2.11,6.46,6.46,0,0,0,.59-2.8,5.56,5.56,0,0,0-.73-3,7.07,7.07,0,0,0-1.86-2.07,10.89,10.89,0,0,0-2.5-1.39c-.9-.36-1.77-.68-2.6-1L289.09,195a18.17,18.17,0,0,1-3.75-1.6,11,11,0,0,1-2.91-2.36,10,10,0,0,1-1.86-3.26,13,13,0,0,1-.66-4.32,11.31,11.31,0,0,1,1-4.64,10.81,10.81,0,0,1,2.85-3.79,13.45,13.45,0,0,1,4.6-2.55,19.21,19.21,0,0,1,6.23-.93,15.92,15.92,0,0,1,4.26.54,13.37,13.37,0,0,1,3.53,1.53,12.39,12.39,0,0,1,2.79,2.36,14.12,14.12,0,0,1,2,3h2.14V184h-7A6.39,6.39,0,0,0,301.42,180.18Z"/><path class="cls-2" d="M357.78,172.21h14v4.9h-4.11V210.5h4.11v4.9h-14v-4.9h4.33V195h-25V210.5h4.33v4.9h-14v-4.9h4.1V177.11h-4.1v-4.9h14v4.9h-4.33v13.08h25V177.11h-4.33Z"/><path class="cls-2" d="M382.77,210.5H387V178.9l-8.74,4.76v-5.95l12-6.73h2.28V210.5h4.24v4.9h-14Z"/><path class="cls-2" d="M447.5,172.21h14v4.9h-4.11V210.5h4.11v4.9h-14v-4.9h4.33V195h-25V210.5h4.33v4.9h-14v-4.9h4.11V177.11h-4.11v-4.9h14v4.9h-4.33v13.08h25V177.11H447.5Z"/><path class="cls-2" d="M469.66,172.21h30.95v12.22h-5.85v-7.29H479.35V191h13v4.9h-13V210.5h15.41v-7.29h5.85V215.4H469.66v-4.9h4.11V177.14h-4.11Z"/><path class="cls-2" d="M531.86,210.5h3.59L532,200.7H515.42l-3.33,9.8h4.44v4.9h-14v-4.9h3.77l13.44-38.29h8.41l13.42,38.29h4.33v4.9h-14ZM517,196h13.34l-6.73-19.32Z"/><path class="cls-2" d="M550.24,172.21h16.07A20.11,20.11,0,0,1,572,173a20.41,20.41,0,0,1,9.17,5.51,20.76,20.76,0,0,1,3.21,4.34,21.84,21.84,0,0,1,2,5.15,22.39,22.39,0,0,1,.72,5.71,22.83,22.83,0,0,1-.72,5.78,22.32,22.32,0,0,1-2,5.19,21.13,21.13,0,0,1-3.21,4.4,20.2,20.2,0,0,1-14.81,6.34H550.24v-4.9h4.1V177.14h-4.1Zm9.68,4.93V210.5h6.73a12.55,12.55,0,0,0,5.63-1.31,14.75,14.75,0,0,0,4.6-3.58,17.16,17.16,0,0,0,3.1-5.32,18.84,18.84,0,0,0,1.14-6.6,18.28,18.28,0,0,0-1.14-6.5,16.92,16.92,0,0,0-3.1-5.25,14.56,14.56,0,0,0-4.6-3.52,12.66,12.66,0,0,0-5.63-1.28Z"/><path class="cls-2" d="M593.17,172.21H607v4.93h-4.1V210.5H607v4.9H593.17v-4.9h4.11V177.14h-4.11Z"/><path class="cls-2" d="M641.84,172.21h14v4.93h-3.67V215.4h-7.3L624.8,179.59V210.5h4.44v4.9h-14v-4.9h4V177.14h-4.1v-5h11.63l19.71,35.47.23-1.37V177.14h-4.84Z"/><path class="cls-2" d="M694.72,215.57v-8.66a14.78,14.78,0,0,1-6.33,6.67,17.36,17.36,0,0,1-4.26,1.62,19.75,19.75,0,0,1-4.6.54,21,21,0,0,1-7.78-1.41,17.79,17.79,0,0,1-6.45-4.49,20.88,20.88,0,0,1-4.42-7.29,25.81,25.81,0,0,1-1.52-8.8,25,25,0,0,1,1.52-8.72,21.86,21.86,0,0,1,4.28-7.15,19.68,19.68,0,0,1,14.8-6.53,19.13,19.13,0,0,1,7,1.17,19.44,19.44,0,0,1,5,2.84,23.16,23.16,0,0,1,3.35,3.17h2.76v5.07H692a14.35,14.35,0,0,0-5.06-5.12,14.07,14.07,0,0,0-13.06-.43,14.52,14.52,0,0,0-4.69,3.76,17.71,17.71,0,0,0-3,5.44,19.24,19.24,0,0,0-1.09,6.5,20.11,20.11,0,0,0,1.2,7,15.61,15.61,0,0,0,3.05,5.27,15,15,0,0,0,4.57,3.35,13.51,13.51,0,0,0,6,1.33,14.38,14.38,0,0,0,9-2.67q3.51-2.66,4.9-8.3H681.75v-4.9H700v20.71Z"/><path class="cls-2" d="M123.81,285.59v-8.66a14.48,14.48,0,0,1-2.71,3.92,15,15,0,0,1-3.62,2.75,17.36,17.36,0,0,1-4.26,1.62,19.75,19.75,0,0,1-4.6.54,21,21,0,0,1-7.78-1.41,17.79,17.79,0,0,1-6.45-4.49A20.71,20.71,0,0,1,90,272.57a25.58,25.58,0,0,1-1.53-8.8A24.72,24.72,0,0,1,90,255.05a21.84,21.84,0,0,1,4.27-7.15,19.89,19.89,0,0,1,6.55-4.79,19.62,19.62,0,0,1,8.25-1.74,19.06,19.06,0,0,1,7,1.17,19.28,19.28,0,0,1,5,2.84,22.65,22.65,0,0,1,3.35,3.17h2.77v5.07h-6.13a14.27,14.27,0,0,0-5.06-5.12,14.07,14.07,0,0,0-13.06-.43,14.63,14.63,0,0,0-4.69,3.76,17.71,17.71,0,0,0-3,5.44,19.49,19.49,0,0,0-1.08,6.5,20.34,20.34,0,0,0,1.19,7,15.93,15.93,0,0,0,3,5.28,15.21,15.21,0,0,0,4.57,3.34,13.54,13.54,0,0,0,6,1.33,14.41,14.41,0,0,0,9-2.67q3.5-2.65,4.9-8.3H110.85v-4.9h18.26v20.71Z"/><path class="cls-2" d="M157.12,286.27a19.7,19.7,0,0,1-8.18-1.66,20.84,20.84,0,0,1-11-12,25.68,25.68,0,0,1-1.51-8.75,24.88,24.88,0,0,1,1.53-8.77,21.69,21.69,0,0,1,4.27-7.14,20.17,20.17,0,0,1,6.55-4.79,20.17,20.17,0,0,1,23.32,4.79,21.64,21.64,0,0,1,4.25,7.14,25.33,25.33,0,0,1,1.51,8.77,24.75,24.75,0,0,1-1.53,8.76,21.9,21.9,0,0,1-4.27,7.14,20.06,20.06,0,0,1-6.55,4.8A19.75,19.75,0,0,1,157.12,286.27Zm0-5.29a13.33,13.33,0,0,0,6.13-1.4,14.41,14.41,0,0,0,4.69-3.75,17,17,0,0,0,3-5.45,20.09,20.09,0,0,0,1.06-6.56,20.45,20.45,0,0,0-1.16-6.82,16.13,16.13,0,0,0-3.22-5.57,14.41,14.41,0,0,0-4.8-3.52,14,14,0,0,0-11.85.16,14.55,14.55,0,0,0-4.7,3.74,17.18,17.18,0,0,0-3,5.48,21.42,21.42,0,0,0,.11,13.64,15.56,15.56,0,0,0,3.09,5.19,17.11,17.11,0,0,0,4.59,3.46A12.86,12.86,0,0,0,157.12,281Z"/><path class="cls-2" d="M183.93,242.23h30.94v12.22H209v-7.29H193.61V261h13v4.91h-13v14.64H209v-7.29h5.84v12.19H183.93v-4.9H188V247.16h-4.1Z"/><path class="cls-2" d="M241.79,250.21a7.15,7.15,0,0,0-2-1.93,9.18,9.18,0,0,0-2.4-1,9.92,9.92,0,0,0-2.63-.36,13.09,13.09,0,0,0-3.79.5,8,8,0,0,0-2.69,1.35,5.68,5.68,0,0,0-1.61,2,5.5,5.5,0,0,0-.54,2.39,6,6,0,0,0,.67,3,5.65,5.65,0,0,0,1.7,1.86,8.6,8.6,0,0,0,2.26,1.09c.83.27,1.62.53,2.38.8l5.75,1.88a27.74,27.74,0,0,1,4.58,1.88,12.77,12.77,0,0,1,3.32,2.49,9.84,9.84,0,0,1,2,3.32,12.42,12.42,0,0,1,.7,4.36,11.29,11.29,0,0,1-1.09,5,12.16,12.16,0,0,1-3.07,4,14.61,14.61,0,0,1-4.68,2.64,18.14,18.14,0,0,1-6,.95,18.93,18.93,0,0,1-5.7-.75,12.62,12.62,0,0,1-4-2,10.46,10.46,0,0,1-2.57-2.89,15.48,15.48,0,0,1-1.51-3.33h-2.17v-4.9H226a10.56,10.56,0,0,0,.67,4.47,6.14,6.14,0,0,0,1.87,2.18,8.35,8.35,0,0,0,2.84,1.31,14.38,14.38,0,0,0,3.65.44,12.51,12.51,0,0,0,3.49-.45,7.76,7.76,0,0,0,2.65-1.33A5.83,5.83,0,0,0,242.8,277a6.46,6.46,0,0,0,.59-2.8,5.66,5.66,0,0,0-.73-2.95,7.11,7.11,0,0,0-1.87-2.07,10.82,10.82,0,0,0-2.49-1.39c-.9-.36-1.77-.68-2.61-.94l-6.24-1.77a18.32,18.32,0,0,1-3.74-1.6,11,11,0,0,1-2.91-2.36,9.8,9.8,0,0,1-1.86-3.26,13,13,0,0,1-.66-4.32,11.15,11.15,0,0,1,1-4.64,10.57,10.57,0,0,1,2.85-3.79,13.36,13.36,0,0,1,4.6-2.55,19.19,19.19,0,0,1,6.22-.93,15.92,15.92,0,0,1,4.26.54,13.44,13.44,0,0,1,3.54,1.53,12.39,12.39,0,0,1,2.79,2.36,14,14,0,0,1,2,3h2.13V254h-7A6.34,6.34,0,0,0,241.79,250.21Z"/><path class="cls-2" d="M298.15,242.23h14v4.9h-4.1v33.39h4.1v4.9h-14v-4.9h4.33V265h-25v15.53h4.33v4.9h-14v-4.9h4.11V247.13H267.8v-4.9h14v4.9h-4.33v13.08h25V247.13h-4.33Z"/><path class="cls-2" d="M320.31,242.23h30.94v12.22h-5.84v-7.29H330V261h13v4.91H330v14.64h15.41v-7.29h5.84v12.19H320.31v-4.9h4.11V247.16h-4.11Z"/><path class="cls-2" d="M357,242.23h18a17.93,17.93,0,0,1,5.31.75,12.33,12.33,0,0,1,4.22,2.23,10,10,0,0,1,2.78,3.66,12.12,12.12,0,0,1,1,5,9.15,9.15,0,0,1-.59,3.2,11.11,11.11,0,0,1-1.62,2.94,12.84,12.84,0,0,1-2.47,2.41,11.32,11.32,0,0,1-3.1,1.62,6.78,6.78,0,0,1,1.44.9,8,8,0,0,1,1.36,1.42,11.43,11.43,0,0,1,1.17,1.91,12,12,0,0,1,.84,2.29l2.4,9.41h3.73l.06,5.41h-8.41l-3.22-13.13a10.33,10.33,0,0,0-2.69-5.2,7,7,0,0,0-4.94-1.67h-5.56v15.1H371v4.9H357v-4.9h4.1V247.16H357Zm9.69,4.93v13.59h8.29a10,10,0,0,0,3-.43,6.51,6.51,0,0,0,2.33-1.28,5.89,5.89,0,0,0,1.54-2.12,7.32,7.32,0,0,0,.56-3,6.52,6.52,0,0,0-1.94-5c-1.29-1.2-3.34-1.79-6.15-1.79Z"/><path class="cls-2" d="M398.49,242.23h30.94v12.22h-5.84v-7.29H408.18V261h13v4.91h-13v14.64h15.41v-7.29h5.84v12.19H398.49v-4.9h4.11V247.16h-4.11Z"/><rect class="cls-2" x="86.53" y="326.46" width="43.2" height="4.32"/></g></svg>