<?xml version="1.0" encoding="utf-8"?>
<!-- Generator: Adobe Illustrator 25.0.0, SVG Export Plug-In . SVG Version: 6.00 Build 0)  -->
<svg version="1.1" id="Layer_1" xmlns="http://www.w3.org/2000/svg" xmlns:xlink="http://www.w3.org/1999/xlink" x="0px" y="0px"
	 viewBox="0 0 1920 1080" style="enable-background:new 0 0 1920 1080;" xml:space="preserve">
<style type="text/css">
	.st0{fill:#082B8F;}
	.st1{fill:#082B96;}
	.st2{clip-path:url(#SVGID_2_);}
	.st3{fill:#061F6B;}
	.st4{fill:none;stroke:url(#SVGID_3_);stroke-miterlimit:10;}
	.st5{fill:none;stroke:url(#SVGID_4_);stroke-miterlimit:10;}
	.st6{fill:none;stroke:url(#SVGID_5_);stroke-miterlimit:10;}
	.st7{fill:none;stroke:url(#SVGID_6_);stroke-miterlimit:10;}
	.st8{fill:#F5CEBC;}
	.st9{fill:none;stroke:url(#SVGID_7_);stroke-miterlimit:10;}
	.st10{fill:none;stroke:url(#SVGID_8_);stroke-miterlimit:10;}
	.st11{fill:none;stroke:url(#SVGID_9_);stroke-miterlimit:10;}
	.st12{fill:none;stroke:url(#SVGID_10_);stroke-miterlimit:10;}
	.st13{fill:#FFFFFF;}
	.st14{fill:#4672E2;}
	.st15{fill:none;stroke:#FFFFFF;stroke-width:3.67;stroke-miterlimit:10;}
	.st16{enable-background:new    ;}
</style>
<g id="Background">
	<rect class="st0" width="1920" height="1080"/>
	<rect class="st1" width="1920" height="1080"/>
</g>
<g id="Graphic">
	<g>
		<defs>
			<path id="SVGID_1_" d="M968.8-1337.3h-17.5C774-1334.8,615.1-1256,506-1132.4V-732h908v-400.4
				C1304.9-1256,1146-1334.8,968.8-1337.3z"/>
		</defs>
		<clipPath id="SVGID_2_">
			<use xlink:href="#SVGID_1_"  style="overflow:visible;"/>
		</clipPath>
		<g class="st2">
			
				<image style="overflow:visible;enable-background:new    ;" width="1080" height="1620" xlink:href="../../../../../../Dropbox/Shizaru/ZEEEN/Guideline/Social/Instagram/Photos/_H7A1258.jpg"  transform="matrix(1.12 0 0 1.12 367.36 -1644.52)">
			</image>
		</g>
	</g>
	<path class="st3" d="M973.1,86.4h-26.2c-265.6,3.8-503.7,121.7-667.2,307v600h1360.6v-600C1476.8,208.1,1238.8,90.1,973.1,86.4z"/>
	
		<linearGradient id="SVGID_3_" gradientUnits="userSpaceOnUse" x1="17855.9102" y1="2489.55" x2="17855.9102" y2="4409.5498" gradientTransform="matrix(6.123234e-17 1 1 -6.123234e-17 -2489.55 -17337.1094)">
		<stop  offset="0" style="stop-color:#FFFFFF;stop-opacity:0"/>
		<stop  offset="0.51" style="stop-color:#FFFFFF"/>
		<stop  offset="1" style="stop-color:#FFFFFF;stop-opacity:0"/>
	</linearGradient>
	<line class="st4" x1="0" y1="518.8" x2="1920" y2="518.8"/>
	
		<linearGradient id="SVGID_4_" gradientUnits="userSpaceOnUse" x1="17753.0703" y1="2489.55" x2="17753.0703" y2="4409.5498" gradientTransform="matrix(6.123234e-17 1 1 -6.123234e-17 -2489.55 -17337.1094)">
		<stop  offset="0" style="stop-color:#FFFFFF;stop-opacity:0"/>
		<stop  offset="0.51" style="stop-color:#FFFFFF"/>
		<stop  offset="1" style="stop-color:#FFFFFF;stop-opacity:0"/>
	</linearGradient>
	<line class="st5" x1="0" y1="416" x2="1920" y2="416"/>
	
		<linearGradient id="SVGID_5_" gradientUnits="userSpaceOnUse" x1="17616.5293" y1="2489.55" x2="17616.5293" y2="4409.5498" gradientTransform="matrix(6.123234e-17 1 1 -6.123234e-17 -2489.55 -17337.1094)">
		<stop  offset="0" style="stop-color:#FFFFFF;stop-opacity:0"/>
		<stop  offset="0.51" style="stop-color:#FFFFFF"/>
		<stop  offset="1" style="stop-color:#FFFFFF;stop-opacity:0"/>
	</linearGradient>
	<line class="st6" x1="0" y1="279.4" x2="1920" y2="279.4"/>
	
		<linearGradient id="SVGID_6_" gradientUnits="userSpaceOnUse" x1="17804.4902" y1="2489.55" x2="17804.4902" y2="4409.5498" gradientTransform="matrix(6.123234e-17 1 1 -6.123234e-17 -2489.55 -17337.1094)">
		<stop  offset="0" style="stop-color:#FFFFFF;stop-opacity:0"/>
		<stop  offset="0.51" style="stop-color:#FFFFFF"/>
		<stop  offset="1" style="stop-color:#FFFFFF;stop-opacity:0"/>
	</linearGradient>
	<line class="st7" x1="0" y1="467.4" x2="1920" y2="467.4"/>
	<rect x="1310.9" y="415.5" class="st8" width="103.3" height="25.8"/>
	<rect x="1310.9" y="493" class="st8" width="103.3" height="25.8"/>
	
		<rect x="1306.2" y="454.2" transform="matrix(0.7721 -0.6355 0.6355 0.7721 13.6906 972.3886)" class="st8" width="112.5" height="25.8"/>
	
		<linearGradient id="SVGID_7_" gradientUnits="userSpaceOnUse" x1="17799.3516" y1="-5574.4502" x2="17799.3516" y2="-3654.4502" gradientTransform="matrix(6.123234e-17 -1 -1 -6.123234e-17 -3654.4502 17885.7207)">
		<stop  offset="0" style="stop-color:#FFFFFF;stop-opacity:0"/>
		<stop  offset="0.51" style="stop-color:#FFFFFF"/>
		<stop  offset="1" style="stop-color:#FFFFFF;stop-opacity:0"/>
	</linearGradient>
	<line class="st9" x1="1920" y1="86.4" x2="0" y2="86.4"/>
	
		<linearGradient id="SVGID_8_" gradientUnits="userSpaceOnUse" x1="16892.0898" y1="-5574.4502" x2="16892.0898" y2="-3654.4502" gradientTransform="matrix(6.123234e-17 -1 -1 -6.123234e-17 -3654.4502 17885.7207)">
		<stop  offset="0" style="stop-color:#FFFFFF;stop-opacity:0"/>
		<stop  offset="0.51" style="stop-color:#FFFFFF"/>
		<stop  offset="1" style="stop-color:#FFFFFF;stop-opacity:0"/>
	</linearGradient>
	<line class="st10" x1="1920" y1="993.6" x2="0" y2="993.6"/>
	
		<linearGradient id="SVGID_9_" gradientUnits="userSpaceOnUse" x1="22251.3203" y1="-5154.4399" x2="22251.3203" y2="-4074.4399" gradientTransform="matrix(1 0 0 -1 -20417.7207 -4074.4399)">
		<stop  offset="0" style="stop-color:#FFFFFF;stop-opacity:0"/>
		<stop  offset="0.51" style="stop-color:#FFFFFF"/>
		<stop  offset="1" style="stop-color:#FFFFFF;stop-opacity:0"/>
	</linearGradient>
	<line class="st11" x1="1833.6" y1="1080" x2="1833.6" y2="0"/>
	
		<linearGradient id="SVGID_10_" gradientUnits="userSpaceOnUse" x1="20504.0898" y1="-5154.4399" x2="20504.0898" y2="-4074.4399" gradientTransform="matrix(1 0 0 -1 -20417.7207 -4074.4399)">
		<stop  offset="0" style="stop-color:#FFFFFF;stop-opacity:0"/>
		<stop  offset="0.51" style="stop-color:#FFFFFF"/>
		<stop  offset="1" style="stop-color:#FFFFFF;stop-opacity:0"/>
	</linearGradient>
	<line class="st12" x1="86.4" y1="1080" x2="86.4" y2="0"/>
	<rect x="1833.6" class="st13" width="86.4" height="21.6"/>
	<rect x="1833.6" y="64.8" class="st13" width="86.4" height="21.6"/>
	
		<rect x="1829.7" y="32.3" transform="matrix(0.7721 -0.6355 0.6355 0.7721 400.3678 1202.5695)" class="st13" width="94.1" height="21.6"/>
	<rect class="st13" width="86.4" height="21.6"/>
	<rect y="64.8" class="st13" width="86.4" height="21.6"/>
	
		<rect x="-3.9" y="32.4" transform="matrix(0.7721 -0.6355 0.6355 0.7721 -17.6066 37.3053)" class="st13" width="94.1" height="21.6"/>
	<rect x="1833.6" y="993.6" class="st13" width="86.4" height="21.6"/>
	<rect x="1833.6" y="1058.4" class="st13" width="86.4" height="21.6"/>
	
		<rect x="1829.7" y="1025.9" transform="matrix(0.7721 -0.6355 0.6355 0.7721 -231.0887 1429.066)" class="st13" width="94.1" height="21.6"/>
	<rect y="993.6" class="st13" width="86.4" height="21.6"/>
	<rect y="1058.4" class="st13" width="86.4" height="21.6"/>
	
		<rect x="-3.8" y="1026" transform="matrix(0.7721 -0.6355 0.6355 0.7721 -649.063 263.8019)" class="st13" width="94.1" height="21.6"/>
</g>
<g id="Layer_1_1_">
	<path class="st14" d="M1503.9,519h-1.4c-1.8,0.1-3.5-0.8-4.2-2.5c-0.4-0.8-0.6-1.6-0.8-2.5c-0.1-0.9-0.2-1.8-0.2-2.7
		c0-2.5-0.1-5-0.2-7.6s-0.2-5.2-0.4-7.7l2.9-1.4c0,2.1,0,4.6,0.1,7.3s0.1,5.6,0.2,8.5c0,0.6,0,1.1,0.1,1.8c0,0.6,0.2,1.1,0.4,1.7
		c0.2,0.5,0.5,0.9,0.9,1.2c0.5,0.4,1.1,0.5,1.7,0.5h1L1503.9,519z"/>
	<path class="st14" d="M1503.3,518.6c-0.2-0.4-0.3-0.8-0.2-1.3c0-0.4,0.1-0.9,0.2-1.3c0.2-0.3,0.4-0.5,0.6-0.5h2.4c1,0,2-0.1,3-0.2
		c0.8-0.2,1.5-0.4,2.3-0.7c0.7-0.3,1.4-0.7,2.1-1s1.5-0.8,2.5-1.3c-0.5-0.1-1.1-0.3-1.6-0.5l-1.6-0.6c-0.5-0.2-1-0.4-1.4-0.5
		c-0.3-0.1-0.7-0.2-1-0.2c-0.4,0-0.7,0.1-1,0.4c-0.5,0.4-1,0.8-1.4,1.3l-1.9-1.1c0.3-0.4,0.5-0.9,0.9-1.3c0.3-0.4,0.7-0.8,1.1-1.2
		c0.3-0.4,0.7-0.7,1.1-0.9c0.4-0.2,0.8-0.3,1.2-0.4c0.8,0,1.5,0.2,2.2,0.5l2.6,1.1c1,0.4,2,0.8,3.1,1.1c1.2,0.3,2.5,0.5,3.8,0.5h0.7
		l-0.7,3.1c-0.6,0-1.3,0-1.9,0.1c-0.6,0.1-1.2,0.2-1.7,0.4c0.2,0.7,0.7,1.2,1.4,1.4c0.7,0.2,1.5,0.3,2.2,0.3h2.7v3.4h-3
		c-0.6,0-1.3,0-1.9-0.2c-0.5-0.1-1-0.3-1.4-0.6c-0.4-0.3-0.8-0.7-1-1.2c-0.3-0.6-0.6-1.3-0.9-2c-0.9,0.5-1.7,1-2.4,1.5
		c-0.7,0.5-1.4,0.9-2.1,1.3c-0.8,0.4-1.6,0.7-2.4,0.9c-1.1,0.3-2.2,0.4-3.4,0.3h-2.3C1503.7,519,1503.4,518.8,1503.3,518.6z
		 M1511.7,526.7l-2.4-2.1l1.9-2.3l2.4,2.1L1511.7,526.7z"/>
	<path class="st14" d="M1524.8,519c-0.3,0-0.5-0.2-0.6-0.4c-0.2-0.4-0.3-0.8-0.2-1.3c0-0.4,0.1-0.9,0.2-1.3c0.2-0.3,0.4-0.5,0.6-0.5
		h1.5c0.8,0,1.7-0.2,2.4-0.6c0.7-0.4,1.1-1.2,1-2v-1.5l2.3-0.6c0,0.6,0,1.3,0.1,1.9c0,0.5,0.2,1,0.4,1.5c0.2,0.4,0.6,0.7,1,0.9
		c0.6,0.2,1.2,0.3,1.8,0.3h1.4v3.4h-1.8c-2.1,0-3.6-0.7-4.3-2.2c-0.4,0.7-1,1.3-1.7,1.6c-0.7,0.4-1.6,0.6-2.4,0.6H1524.8z
		 M1530.8,507.7l-2.4-2.1l1.9-2.3l2.4,2L1530.8,507.7z"/>
	<path class="st14" d="M1545.4,513.9c0,3.4-1.9,5.1-5.8,5.1h-3c-0.3,0-0.5-0.2-0.6-0.4c-0.2-0.4-0.3-0.8-0.2-1.3
		c0-0.4,0.1-0.9,0.2-1.3c0.1-0.2,0.3-0.4,0.6-0.4h3.2c2,0,3-0.5,3-1.4c0-0.3-0.1-0.6-0.2-0.9c-0.2-0.3-0.3-0.7-0.5-1
		c-0.2-0.3-0.4-0.7-0.7-1l-0.7-0.9l2.4-2.5c0.8,0.9,1.4,2,1.8,3.1C1545.2,511.9,1545.4,512.9,1545.4,513.9z M1538.8,522.5l2.4,2
		l-1.9,2.2l-2.3-2L1538.8,522.5z M1543.3,522.5l2.3,2l-1.9,2.2l-2.3-2L1543.3,522.5z"/>
	<path class="st14" d="M1553,518.4l-2.3,0.7l-0.6-23.1l2.9-1.3L1553,518.4z"/>
	<path class="st14" d="M1575.5,516.1c0,1.1-0.3,2.3-0.8,3.3c-0.6,1.1-1.2,2.1-2.1,3c-0.9,1-1.9,1.8-2.9,2.6
		c-1.1,0.8-2.2,1.6-3.4,2.4l-2.3-2.2c1.1-0.7,2.1-1.4,3.2-2.2c1-0.7,1.9-1.4,2.8-2.2c0.7-0.6,1.4-1.4,2-2.2c0.5-0.6,0.7-1.3,0.8-2
		c0-0.3-0.1-0.7-0.2-1c-0.1-0.4-0.3-0.9-0.4-1.3c-0.2-0.5-0.4-0.9-0.7-1.4c-0.2-0.5-0.5-0.9-0.8-1.4l2.3-2.3c0.4,0.6,0.7,1.1,1,1.8
		c0.3,0.6,0.5,1.2,0.8,1.8c0.2,0.6,0.4,1.1,0.5,1.7C1575.4,515.1,1575.5,515.6,1575.5,516.1z"/>
	<path class="st14" d="M1591.6,513.7c0,1-0.2,2-0.6,2.9c-0.4,0.7-1,1.3-1.7,1.7c-0.8,0.4-1.6,0.7-2.4,0.8c-1,0.1-2,0.2-3,0.2
		c-0.9,0-1.9-0.1-2.8-0.4c-0.8-0.3-1.6-0.8-2.1-1.4l1.4-2.6c1.1,0.7,2.4,1.1,3.6,1c1.3,0,2.6-0.1,3.8-0.4c0.9-0.3,1.4-0.7,1.3-1.4
		c0-1.7-1.8-3.8-5.5-6.2l1.4-3.3c0.8,0.5,1.6,1.1,2.3,1.7c0.8,0.7,1.5,1.4,2.1,2.2c0.6,0.8,1.1,1.6,1.6,2.5
		C1591.4,511.9,1591.6,512.8,1591.6,513.7z"/>
	<path class="st14" d="M1610.5,529.3c-1.2,0-2.3-0.2-3.4-0.6c-1-0.3-1.9-0.9-2.7-1.6c-0.7-0.7-1.3-1.6-1.7-2.6
		c-0.4-1.1-0.6-2.3-0.6-3.5c0-1.1,0.2-2.1,0.5-3.1c0.4-1.1,0.8-2.1,1.4-3.1l2.2,0.9c-0.2,0.4-0.4,0.7-0.6,1.1
		c-0.2,0.4-0.3,0.8-0.4,1.3c-0.1,0.4-0.2,0.8-0.3,1.2c-0.1,0.3-0.1,0.7-0.1,1c0,3.7,2.1,5.5,6.2,5.5c1,0,1.9-0.1,2.9-0.3
		c0.8-0.2,1.6-0.4,2.4-0.7c0.6-0.2,1.1-0.5,1.7-0.8c0.3-0.1,0.5-0.3,0.7-0.6c0-0.1-0.1-0.2-0.2-0.2l-0.4-0.1l-3-0.7
		c-0.3-0.1-0.7-0.2-1-0.3c-0.3-0.1-0.6-0.3-0.8-0.4c-0.2-0.2-0.4-0.4-0.6-0.7c-0.1-0.3-0.2-0.7-0.2-1c0-3,2.2-4.5,6.7-4.5h2.8v3.3
		h-1.6h-1.6h-1.4c-0.4,0-0.8,0-1.1,0c-0.8,0.1-1.2,0.2-1.2,0.5c0,0.1,0.1,0.2,0.1,0.2c0.2,0.1,0.4,0.2,0.6,0.2l3.2,0.7
		c0.6,0.1,1.2,0.4,1.7,0.8c0.5,0.4,0.7,1,0.6,1.7c0,1-0.4,1.9-1.1,2.5c-0.8,0.8-1.7,1.5-2.7,1.9c-1.1,0.5-2.3,0.9-3.5,1.2
		C1612.8,529.1,1611.7,529.2,1610.5,529.3z"/>
	<path class="st14" d="M1636.2,516.8c-0.4,0.7-1,1.3-1.7,1.6c-0.7,0.4-1.5,0.6-2.3,0.6c-1.8,0.2-3.4-0.7-4.3-2.2
		c-0.4,0.7-1,1.3-1.7,1.7c-0.7,0.4-1.5,0.6-2.2,0.6h-2c-0.3,0-0.5-0.2-0.6-0.4c-0.2-0.4-0.3-0.8-0.2-1.3c0-0.4,0.1-0.9,0.2-1.3
		c0.2-0.3,0.4-0.5,0.6-0.5h1.8c0.4,0,0.8,0,1.2-0.1c0.4-0.1,0.7-0.2,1-0.4c0.3-0.2,0.6-0.4,0.7-0.7c0.2-0.3,0.3-0.7,0.3-1.1v-1.6
		l2.3-0.6c0,0.6,0,1.2,0.1,1.8c0,0.5,0.2,1,0.4,1.5c0.2,0.4,0.5,0.8,0.9,1c0.5,0.3,1,0.4,1.6,0.3c0.8,0,1.6-0.2,2.2-0.7
		c0.6-0.5,0.9-1.2,0.9-2v-1.4l2.3-0.6c0,0.7,0,1.3,0.1,1.9c0,0.5,0.2,1,0.4,1.5c0.2,0.4,0.5,0.7,0.9,1c0.5,0.2,1.1,0.4,1.6,0.3
		c0.5,0,1.1-0.1,1.6-0.4c0.3-0.2,0.5-0.6,0.5-1c0-0.3-0.1-0.6-0.2-0.9c-0.1-0.3-0.3-0.7-0.5-1c-0.2-0.4-0.4-0.7-0.6-1
		c-0.2-0.3-0.4-0.6-0.7-0.9l2.4-2.5c0.8,0.9,1.3,2,1.7,3.1c0.3,1,0.5,2,0.5,3c0,1.3-0.4,2.5-1.2,3.5c-0.8,0.9-2,1.5-3.3,1.5
		c-0.2,0-0.4,0-0.7,0h-0.6c-0.7-0.1-1.4-0.3-2-0.7C1636.9,517.9,1636.4,517.4,1636.2,516.8z"/>
	<path class="st14" d="M1655.7,516.1c0,1.1-0.3,2.3-0.8,3.3c-0.6,1.1-1.2,2.1-2.1,3c-0.9,1-1.9,1.8-2.9,2.6
		c-1.1,0.8-2.2,1.6-3.4,2.4l-2.3-2.2c1.1-0.7,2.1-1.4,3.2-2.2c1-0.7,1.9-1.4,2.8-2.2c0.7-0.6,1.4-1.4,2-2.2c0.5-0.6,0.7-1.3,0.8-2
		c0-0.3-0.1-0.7-0.2-1c-0.1-0.4-0.3-0.9-0.4-1.3c-0.2-0.5-0.4-0.9-0.7-1.4c-0.2-0.5-0.5-0.9-0.8-1.4l2.3-2.3c0.4,0.6,0.7,1.1,1,1.8
		c0.3,0.6,0.5,1.2,0.8,1.8c0.2,0.6,0.4,1.1,0.5,1.7C1655.6,515.1,1655.7,515.6,1655.7,516.1z"/>
	<path class="st14" d="M1667.5,519h-1.4c-1.8,0.1-3.4-0.9-4.2-2.5c-0.4-0.8-0.7-1.6-0.8-2.5c-0.1-0.9-0.2-1.8-0.2-2.7
		c-0.1-2.5-0.1-5-0.2-7.6c0-2.6-0.2-5.2-0.4-7.7l2.9-1.4c0,2.1,0,4.6,0.1,7.3c0.1,2.7,0.1,5.6,0.2,8.5c0,0.6,0,1.1,0.1,1.8
		c0,0.6,0.2,1.1,0.4,1.7c0.2,0.5,0.5,0.9,0.9,1.2c0.5,0.4,1.1,0.5,1.6,0.5h1L1667.5,519z"/>
	<path class="st14" d="M1667.5,519c-0.3,0-0.5-0.2-0.6-0.4c-0.2-0.4-0.3-0.8-0.2-1.3c0-0.4,0.1-0.9,0.2-1.3c0.2-0.3,0.4-0.5,0.6-0.5
		h3.4c0.6,0,1.1,0,1.7-0.1c0.5,0,1-0.1,1.5-0.3c0.4-0.1,0.7-0.3,1.1-0.5c0.2-0.2,0.4-0.4,0.5-0.7c0.1-0.4,0.1-0.7,0-1.1
		c-0.4,0.2-0.9,0.4-1.4,0.5c-0.5,0.1-0.9,0.1-1.4,0.1c-1.8,0.1-3.4-1.3-3.5-3.1c0-0.1,0-0.3,0-0.4c0-0.7,0.1-1.4,0.3-2.1
		c0.2-0.7,0.5-1.3,0.9-1.8c0.4-0.5,0.8-0.9,1.4-1.3c0.5-0.3,1.1-0.5,1.8-0.5c0.8,0,1.6,0.3,2.2,0.9c0.6,0.7,1,1.4,1.3,2.2
		c0.3,0.9,0.5,1.9,0.7,2.8c0.1,0.9,0.2,1.8,0.2,2.7c0,2.1-0.6,3.7-1.8,4.6c-1.5,1-3.3,1.5-5.1,1.4L1667.5,519z M1673.4,501.9
		l-2.4-2.1l1.9-2.3l2.5,2L1673.4,501.9z M1673.2,510.7c0.8,0,1.5-0.2,2.1-0.6c-0.2-0.7-0.4-1.3-0.8-1.9c-0.2-0.5-0.7-0.8-1.2-0.8
		c-0.5,0-0.9,0.2-1.2,0.6c-0.3,0.4-0.5,0.8-0.5,1.3c0,0.4,0.2,0.7,0.4,1C1672.4,510.6,1672.8,510.7,1673.2,510.7L1673.2,510.7z"/>
	<path class="st14" d="M1701.1,513.9c0,0.4-0.1,0.8-0.2,1.2c-0.2,0.4-0.4,0.9-0.7,1.2c-0.3,0.4-0.6,0.7-1,1
		c-0.4,0.3-0.8,0.4-1.3,0.4h-4.4c-0.4,0-0.9,0.1-1.2,0.3c-0.3,0.2-0.5,0.5-0.7,0.8c-0.2,0.4-0.3,0.8-0.3,1.2c0,0.5-0.1,1-0.1,1.6
		v11.9h-2.4c0-2.7-0.1-4.9-0.1-6.5s0-2.8,0-3.6s0-1.4,0-1.6v-0.5c-0.1-1.5,0.2-3.1,0.7-4.5c0.4-1,1.3-1.8,2.3-2.1
		c0-0.7,0.1-1.3,0.2-2c0.1-0.7,0.3-1.4,0.6-2.1c0.3-0.6,0.6-1.2,1.1-1.6c0.5-0.4,1.1-0.7,1.8-0.6c0.7,0,1.4,0.2,2.1,0.5
		c0.7,0.3,1.3,0.8,1.8,1.3c0.5,0.5,1,1.1,1.3,1.8C1701,512.5,1701.1,513.2,1701.1,513.9z M1698.4,514c0-0.3-0.2-0.6-0.3-0.8
		c-0.2-0.3-0.4-0.6-0.7-0.9c-0.3-0.3-0.6-0.5-0.9-0.7c-0.3-0.2-0.6-0.3-1-0.3c-0.3,0-0.5,0.1-0.7,0.3c-0.2,0.2-0.3,0.4-0.4,0.7
		c-0.1,0.3-0.2,0.6-0.2,1c0,0.3-0.1,0.7-0.1,1h0.9c0.3,0,0.6,0,1,0h1.6C1698.1,514.4,1698.4,514.3,1698.4,514L1698.4,514z"/>
	<path class="st14" d="M1715,514.7c0,1.4-0.3,2.8-0.8,4.1c-0.5,1.2-1.3,2.4-2.2,3.4c-1,1.1-2,2-3.2,2.8c-1.2,0.8-2.5,1.6-3.8,2.3
		l-2.3-2.1c0.8-0.4,1.7-1,2.7-1.6c1-0.6,2-1.3,2.9-2c0.9-0.7,1.7-1.5,2.5-2.3c0.7-0.7,1.1-1.5,1.4-2.4c-0.3,0.2-0.6,0.3-0.9,0.3
		c-0.5,0.1-1.1,0.2-1.6,0.2c-1,0-2-0.3-2.8-0.8c-0.8-0.6-1.2-1.6-1.1-2.6c0-0.7,0.1-1.4,0.3-2.1c0.2-0.7,0.5-1.4,0.9-2.1
		c0.4-0.6,0.8-1.1,1.4-1.6c0.5-0.4,1.2-0.6,1.8-0.6c0.8,0,1.5,0.2,2.1,0.7c0.6,0.5,1.1,1,1.5,1.7c0.4,0.7,0.7,1.5,0.9,2.3
		C1714.9,513.1,1715,513.9,1715,514.7z M1712.2,513.9c-0.1-0.7-0.3-1.4-0.7-2c-0.3-0.5-0.9-0.8-1.5-0.8c-0.5,0-1,0.3-1.2,0.7
		c-0.3,0.4-0.5,0.8-0.5,1.3c0,0.9,0.6,1.3,1.8,1.3c0.4,0,0.7,0,1.1-0.1C1711.6,514.2,1711.9,514.1,1712.2,513.9L1712.2,513.9z"/>
	<path class="st14" d="M1731.1,513.7c0,1-0.2,2-0.6,2.9c-0.4,0.7-1,1.3-1.7,1.7c-0.8,0.4-1.6,0.7-2.4,0.8c-1,0.1-2,0.2-3,0.2
		c-0.9,0-1.9-0.1-2.8-0.4c-0.8-0.3-1.6-0.8-2.1-1.4l1.4-2.6c1.1,0.7,2.4,1.1,3.6,1c1.3,0,2.6-0.1,3.8-0.4c0.9-0.3,1.3-0.8,1.3-1.4
		c0-1.7-1.8-3.8-5.5-6.2l1.4-3.3c0.8,0.5,1.6,1.1,2.3,1.7c0.8,0.7,1.5,1.4,2.1,2.2c0.6,0.8,1.1,1.6,1.5,2.6
		C1730.9,511.9,1731.1,512.8,1731.1,513.7z"/>
	<path class="st14" d="M1757.2,506.8c0.1-1.9,0.3-3,0.8-3.2c1.8-1.3,3.9-2.5,6.2-3.8s4.9-2.5,7.8-3.9l-0.4,3.5c-2.4,1-4.6,2-6.5,3
		s-3.5,1.9-4.9,2.9c1.5,1.2,2.9,2.6,4.3,4c1.4,1.5,2.8,2.9,4.3,4.4c0.6,0.6,1.2,1.1,1.9,1.4c0.6,0.3,1.2,0.4,1.8,0.4h1.6v3.5h-1.5
		c-0.7,0-1.5-0.1-2.2-0.3c-0.7-0.2-1.3-0.5-1.8-0.9c-0.7-0.5-1.4-1.1-2-1.8c-0.7-0.8-1.5-1.7-2.5-2.9c0,0.4,0,0.8-0.1,1.2
		c0,0.6-0.2,1.3-0.6,1.8c-0.3,0.5-0.7,1-1.2,1.3c-0.5,0.4-1.1,0.7-1.7,1c-0.6,0.3-1.3,0.5-2,0.6c-2.3,0.5-4.6,0.7-6.9,0.7
		c-1.2,0-2.5-0.1-3.7-0.2c-1.1-0.1-2.2-0.3-3.3-0.7c-0.9-0.3-1.7-0.9-2.3-1.7c-0.6-0.9-1-2-0.9-3.1c0-0.7,0.1-1.4,0.3-2
		c0.2-0.7,0.6-1.4,1-2l2.1,0.8c-0.4,0.7-0.7,1.5-0.8,2.3c0,0.5,0.1,1.1,0.3,1.5c0.3,0.5,0.7,0.8,1.2,1c0.6,0.3,1.2,0.4,1.9,0.5
		c0.8,0.1,1.5,0.2,2.3,0.2h2.4c2.4,0.1,4.8-0.2,7.1-0.8c1.8-0.6,2.8-1.3,3-2.2c-0.1-0.5-0.2-1.1-0.5-1.5c-0.3-0.6-0.7-1.1-1.1-1.5
		c-0.5-0.6-1-1.1-1.6-1.6L1757.2,506.8z M1768.2,495.4c-1.5,0.7-3.2,1.6-4.9,2.6s-3.6,2.1-5.5,3.2l0.3-2c2-1.3,3.9-2.5,5.6-3.5
		c1.7-1,3.3-1.8,4.8-2.6L1768.2,495.4z"/>
	<path class="st14" d="M1774.2,519c-0.3,0-0.5-0.2-0.6-0.4c-0.2-0.4-0.3-0.8-0.2-1.3c0-0.4,0.1-0.9,0.2-1.3c0.2-0.3,0.4-0.5,0.6-0.5
		h1.5c0.8,0,1.7-0.2,2.4-0.6c0.7-0.4,1.1-1.2,1-2v-1.5l2.3-0.6c0,0.6,0,1.3,0.1,1.9c0,0.5,0.2,1,0.4,1.5c0.2,0.4,0.6,0.7,1,0.9
		c0.6,0.2,1.2,0.3,1.8,0.3h1.4v3.4h-1.8c-2.1,0-3.6-0.7-4.3-2.2c-0.4,0.7-1,1.3-1.7,1.6c-0.7,0.4-1.6,0.6-2.4,0.6H1774.2z
		 M1780.2,507.7l-2.4-2.1l1.9-2.3l2.4,2L1780.2,507.7z"/>
	<path class="st14" d="M1794.9,513.9c0,3.4-1.9,5.1-5.8,5.1h-3c-0.3,0-0.5-0.2-0.6-0.4c-0.2-0.4-0.3-0.8-0.2-1.3
		c0-0.4,0.1-0.9,0.2-1.3c0.1-0.2,0.3-0.4,0.6-0.4h3.2c2,0,3-0.5,3-1.4c0-0.3-0.1-0.6-0.2-0.9c-0.2-0.3-0.3-0.7-0.5-1
		c-0.2-0.3-0.4-0.7-0.7-1l-0.7-0.9l2.4-2.5c0.8,0.9,1.4,2,1.8,3.1C1794.7,511.9,1794.9,512.9,1794.9,513.9z M1788.3,522.5l2.4,2
		l-1.9,2.2l-2.3-2L1788.3,522.5z M1792.7,522.5l2.3,2l-1.8,2.2l-2.3-2L1792.7,522.5z"/>
	<path class="st14" d="M1815.6,519h-1.4c-0.5,0-1,0-1.4-0.2c-0.4-0.1-0.8-0.3-1.1-0.5c-0.3-0.3-0.6-0.6-0.9-0.9
		c-0.3-0.4-0.6-0.9-0.8-1.3c-0.3,0.6-0.7,1.2-1.1,1.7c-0.4,0.4-0.9,0.8-1.4,1c-0.6,0.2-1.2,0.4-1.8,0.5c-0.7,0.1-1.5,0.1-2.2,0.1
		c-1,0-2-0.1-2.9-0.4c-0.8-0.2-1.5-0.7-2.1-1.2l1.5-2.8c0.4,0.3,0.9,0.5,1.3,0.6c0.5,0.1,1.1,0.2,1.7,0.3h1.1c0.3,0,0.7,0,1-0.1
		c0.7,0,1.4-0.2,2-0.4c0.5-0.1,0.9-0.5,1.1-0.9c0.2-0.3,0.3-0.6,0.3-1c0-0.2-0.1-0.5-0.1-0.7c-0.1-0.3-0.2-0.7-0.4-1.3
		s-0.5-1.4-0.9-2.3l-1.5-3.7l2.1-2.4l3.3,8.7c0.3,1,0.8,2,1.5,2.9c0.4,0.6,1.1,1,1.8,1h1.4L1815.6,519z"/>
	<path class="st14" d="M1819.4,515.6c-1.1-0.5-1.8-1.6-1.8-2.8c0-1,0.3-2,0.9-2.8c0.7-1,1.6-1.8,2.7-2.3l-1-0.7l1.4-3
		c1.3,0.9,2.5,1.8,3.7,2.7c1.1,0.9,2.1,1.8,3.1,2.8c0.8,0.9,1.5,1.9,2.1,3c0.7,1.4,1,3,0.6,4.6c-0.1,0.5-0.3,0.9-0.5,1.3
		c-0.3,0.4-0.6,0.7-1,1c-0.4,0.3-0.9,0.4-1.4,0.4c-0.4,0-0.8-0.1-1.2-0.2c-0.5-0.2-1-0.3-1.5-0.5c-0.5-0.2-1-0.4-1.4-0.7l-1.1-0.6
		c-0.7,0.4-1.4,0.7-2.2,0.8c-0.8,0.2-1.7,0.3-2.6,0.2h-2.6c-0.3,0-0.5-0.2-0.6-0.4c-0.2-0.4-0.3-0.8-0.2-1.3c0-0.4,0.1-0.9,0.2-1.3
		c0.2-0.3,0.4-0.5,0.6-0.5L1819.4,515.6z M1824,512.2c0-0.6-0.1-1.1-0.4-1.7c-0.2-0.4-0.6-0.7-1.1-0.8c-0.3,0-0.6,0.1-0.9,0.2
		c-0.3,0.2-0.6,0.4-0.8,0.6c-0.2,0.2-0.4,0.5-0.6,0.8c-0.1,0.3-0.2,0.6-0.2,0.9c0,0.3,0.1,0.5,0.3,0.8c0.2,0.2,0.4,0.5,0.7,0.7
		c0.3,0.2,0.5,0.4,0.8,0.5c0.2,0.1,0.5,0.2,0.8,0.2c0.2,0,0.4-0.1,0.6-0.2c0.2-0.2,0.3-0.4,0.4-0.6c0.1-0.2,0.2-0.5,0.3-0.7
		C1824,512.7,1824,512.5,1824,512.2L1824,512.2z M1826,511.8c0,0.7-0.1,1.5-0.3,2.2c-0.2,0.6-0.5,1.1-0.9,1.5
		c0.2,0.2,0.5,0.3,0.7,0.4c0.3,0.2,0.6,0.3,0.9,0.4s0.6,0.3,0.9,0.3c0.2,0.1,0.4,0.1,0.6,0.1c0.3,0,0.5-0.1,0.6-0.3
		c0.1-0.2,0.2-0.5,0.2-0.7c0-0.7-0.3-1.4-0.8-2C1827.3,513.1,1826.7,512.4,1826,511.8L1826,511.8z"/>
	<path class="st14" d="M1709.2,555.7c0,1-0.2,2-0.6,2.9c-0.4,0.7-1,1.3-1.7,1.7c-0.8,0.4-1.6,0.7-2.5,0.8c-1,0.1-2,0.2-3,0.2
		c-0.9,0-1.9-0.1-2.8-0.4c-0.8-0.3-1.6-0.8-2.1-1.4l1.4-2.6c1.1,0.7,2.4,1.1,3.6,1c1.3,0,2.6-0.1,3.8-0.4c0.9-0.3,1.3-0.7,1.3-1.4
		c0-1.7-1.8-3.8-5.5-6.2l1.4-3.3c0.8,0.5,1.6,1.1,2.3,1.7c0.8,0.7,1.5,1.4,2.1,2.2c0.6,0.8,1.1,1.6,1.5,2.6
		C1709,553.9,1709.2,554.8,1709.2,555.7z"/>
	<path class="st14" d="M1719.2,560.2c0,1.1-0.3,2.2-0.9,3.2c-0.6,1-1.2,2-2.1,2.8c-0.9,0.9-1.9,1.8-2.9,2.6
		c-1.1,0.8-2.2,1.6-3.3,2.3l-2.3-2.2c1.1-0.7,2.1-1.4,3.2-2.2s2-1.5,2.8-2.2c0.7-0.6,1.4-1.4,2-2.2c0.5-0.6,0.7-1.3,0.8-2
		c0-0.3-0.1-0.7-0.2-1c-0.1-0.4-0.3-0.9-0.5-1.3c-0.2-0.5-0.4-0.9-0.7-1.4c-0.3-0.5-0.5-0.9-0.8-1.3l2.3-2.3c0.5,0.8,0.9,1.5,1.3,2
		c0.3,0.5,0.7,1,1.1,1.4c0.3,0.3,0.7,0.6,1.1,0.8c0.4,0.2,0.8,0.3,1.2,0.3h1.3v3.4h-1.1C1720.7,561,1719.9,560.8,1719.2,560.2z"/>
	<path class="st14" d="M1722.7,561c-0.3,0-0.5-0.2-0.6-0.4c-0.2-0.4-0.3-0.8-0.2-1.3c0-0.4,0.1-0.9,0.2-1.3c0.2-0.3,0.4-0.5,0.6-0.5
		h1.5c0.8,0,1.7-0.2,2.4-0.6c0.7-0.4,1.1-1.2,1-2v-1.4l2.3-0.6c0,0.6,0,1.3,0.1,1.9c0,0.5,0.2,1,0.4,1.5c0.2,0.4,0.6,0.7,1,0.9
		c0.6,0.2,1.2,0.3,1.8,0.3h1.4v3.4h-1.8c-2.1,0-3.6-0.7-4.3-2.2c-0.4,0.7-1,1.3-1.7,1.6c-0.7,0.4-1.6,0.6-2.4,0.6H1722.7z
		 M1726,564.5l2.4,2l-1.9,2.2l-2.3-2L1726,564.5z M1730.4,564.5l2.3,2l-1.8,2.2l-2.3-2L1730.4,564.5z"/>
	<path class="st14" d="M1736.3,548.8c0.1-1.9,0.4-3,0.8-3.2c1.8-1.3,3.9-2.5,6.2-3.8s4.9-2.5,7.8-3.8l-0.5,3.5c-2.4,1-4.6,2-6.5,3
		c-1.9,1-3.5,1.9-4.8,2.9c1.4,1.1,2.6,2.4,3.6,3.9c0.7,1.1,1,2.4,1,3.7c0,0.9-0.2,1.8-0.5,2.6c-0.3,0.7-0.9,1.4-1.5,1.9
		c-0.7,0.5-1.4,0.9-2.2,1.2c-0.9,0.3-1.8,0.4-2.8,0.4h-2.4c-0.3,0-0.5-0.2-0.6-0.4c-0.2-0.4-0.3-0.8-0.2-1.3c0-0.4,0.1-0.9,0.2-1.3
		c0.2-0.3,0.4-0.5,0.6-0.5h2.7c1,0,2.1-0.2,3-0.6c0.7-0.3,1.1-1,1.2-1.7c0-0.5-0.2-1.1-0.5-1.5c-0.3-0.6-0.7-1.1-1.1-1.5
		c-0.5-0.6-1.1-1.1-1.6-1.6L1736.3,548.8z M1747.4,537.4c-1.5,0.7-3.2,1.6-4.9,2.6s-3.6,2.1-5.4,3.2l0.2-2c2-1.3,3.9-2.5,5.6-3.5
		c1.7-1,3.3-1.8,4.8-2.6L1747.4,537.4z"/>
	<path class="st14" d="M1757.8,571.3c-1.2,0-2.3-0.2-3.4-0.6c-2-0.7-3.6-2.2-4.4-4.2c-0.4-1.1-0.6-2.3-0.6-3.5c0-1,0.2-2.1,0.5-3.1
		c0.4-1.1,0.8-2.1,1.4-3.1l2.2,0.9c-0.2,0.4-0.4,0.7-0.6,1.1c-0.2,0.4-0.3,0.8-0.4,1.3c-0.1,0.4-0.2,0.8-0.3,1.2
		c-0.1,0.3-0.1,0.7-0.1,1c0,3.7,2.1,5.5,6.2,5.5c1,0,1.9-0.1,2.9-0.3c0.8-0.2,1.6-0.4,2.4-0.7c0.6-0.2,1.1-0.5,1.7-0.8
		c0.3-0.1,0.5-0.3,0.7-0.6c0-0.1-0.1-0.2-0.2-0.2l-0.4-0.1l-3.1-0.7c-0.3-0.1-0.7-0.2-1-0.3c-0.3-0.1-0.6-0.3-0.8-0.4
		c-0.2-0.2-0.4-0.4-0.6-0.7c-0.1-0.3-0.2-0.7-0.2-1c0-3,2.2-4.5,6.7-4.5h2.8v3.3h-1.6h-1.6h-1.4c-0.4,0-0.8,0-1.1,0
		c-0.8,0.1-1.2,0.2-1.2,0.5c0,0.1,0.1,0.2,0.1,0.2c0.2,0.1,0.4,0.2,0.6,0.2l3.2,0.7c0.6,0.1,1.2,0.4,1.7,0.8c0.5,0.4,0.7,1,0.6,1.7
		c0,1-0.4,1.9-1.1,2.5c-0.8,0.8-1.7,1.5-2.7,1.9c-1.1,0.5-2.3,0.9-3.5,1.2C1760.1,571.1,1759,571.3,1757.8,571.3z"/>
	<path class="st14" d="M1769.3,561c-0.3,0-0.5-0.2-0.6-0.4c-0.2-0.4-0.2-0.8-0.2-1.2c0-0.4,0.1-0.9,0.2-1.3c0.1-0.3,0.3-0.4,0.6-0.5
		h0.5c0.8,0,1.7-0.1,2.5-0.2c0.8-0.2,1.4-0.7,1.8-1.4c0.4-0.7,0.8-1.4,1.2-2c0.4-0.6,0.7-1.2,1.2-1.7c0.4-0.5,0.8-0.9,1.3-1.2
		c0.4-0.3,0.9-0.4,1.4-0.4c0.7,0,1.3,0.2,1.8,0.6c0.5,0.5,1,1,1.3,1.6c0.4,0.7,0.6,1.4,0.8,2.2c0.2,0.8,0.2,1.6,0.2,2.3
		c0,0.4-0.1,0.9-0.2,1.3c-0.1,0.4-0.4,0.8-0.6,1.2c-0.3,0.4-0.6,0.7-1,0.9c-0.4,0.2-0.8,0.3-1.2,0.3c-0.4,0-0.8-0.1-1.2-0.2
		c-0.5-0.1-0.9-0.3-1.4-0.5c-0.5-0.2-0.9-0.4-1.4-0.7c-0.4-0.2-0.8-0.5-1.2-0.8c-0.6,0.7-1.3,1.2-2.1,1.6c-0.9,0.3-1.8,0.5-2.7,0.5
		L1769.3,561z M1780.7,557c0-0.4-0.1-0.7-0.2-1.1c-0.1-0.3-0.2-0.7-0.4-1c-0.1-0.3-0.3-0.5-0.6-0.8c-0.2-0.2-0.4-0.3-0.7-0.3
		c-0.1,0-0.2,0-0.3,0c-0.6,0.2-1.2,1.1-1.9,2.5c0.2,0.2,0.5,0.4,0.8,0.5c0.3,0.2,0.7,0.3,1,0.5s0.7,0.2,1,0.3
		c0.2,0.1,0.5,0.1,0.7,0.1c0.2,0,0.3-0.1,0.4-0.2C1780.6,557.5,1780.7,557.3,1780.7,557L1780.7,557z"/>
	<path class="st14" d="M1799.8,558.2c0,1.2-0.3,2.3-0.8,3.3c-0.6,1.1-1.3,2.1-2.1,2.9c-0.9,0.9-1.9,1.8-2.9,2.6
		c-1.1,0.8-2.2,1.7-3.4,2.4l-2.3-2.2c1.1-0.7,2.1-1.4,3.2-2.2c1-0.7,1.9-1.4,2.8-2.2c0.7-0.6,1.4-1.4,2-2.2c0.5-0.6,0.7-1.3,0.8-2
		c0-0.3-0.1-0.7-0.2-1c-0.1-0.4-0.3-0.9-0.4-1.3c-0.2-0.5-0.4-0.9-0.7-1.4c-0.2-0.5-0.5-0.9-0.8-1.3l2.3-2.3c0.4,0.6,0.7,1.1,1,1.8
		c0.3,0.6,0.5,1.2,0.8,1.8c0.2,0.6,0.4,1.1,0.5,1.7C1799.7,557.1,1799.7,557.6,1799.8,558.2z"/>
	<path class="st14" d="M1807.2,560.4l-2.3,0.7l-0.6-23.1l2.9-1.3L1807.2,560.4z"/>
	<path class="st14" d="M1817.2,560.2c0,1.1-0.3,2.2-0.8,3.2c-0.6,1-1.3,2-2.1,2.8c-0.9,0.9-1.9,1.8-2.9,2.6
		c-1.1,0.8-2.2,1.6-3.3,2.3l-2.3-2.2c1.1-0.7,2.1-1.4,3.2-2.2s2-1.5,2.8-2.2c0.7-0.6,1.4-1.4,2-2.2c0.5-0.6,0.7-1.3,0.8-2
		c0-0.3-0.1-0.7-0.2-1c-0.1-0.4-0.3-0.9-0.4-1.3c-0.2-0.5-0.4-0.9-0.7-1.4c-0.2-0.5-0.5-0.9-0.8-1.3l2.3-2.3c0.5,0.8,0.9,1.5,1.3,2
		c0.3,0.5,0.7,1,1.1,1.4c0.3,0.3,0.7,0.6,1.1,0.8c0.4,0.2,0.8,0.3,1.2,0.3h1.3v3.4h-1.1C1818.7,561,1817.9,560.8,1817.2,560.2z"/>
	<path class="st14" d="M1820.8,561c-0.3,0-0.5-0.2-0.6-0.4c-0.2-0.4-0.3-0.8-0.2-1.3c0-0.4,0.1-0.9,0.2-1.3c0.2-0.3,0.4-0.5,0.6-0.5
		h3.4c0.6,0,1.2,0,1.7-0.1c0.5-0.1,1-0.1,1.5-0.3c0.4-0.1,0.7-0.3,1.1-0.5c0.2-0.2,0.4-0.4,0.5-0.7c0.1-0.4,0.1-0.7,0-1.1
		c-0.4,0.2-0.9,0.4-1.4,0.5c-0.5,0.1-0.9,0.1-1.4,0.1c-1.8,0.1-3.4-1.3-3.5-3.1c0-0.1,0-0.3,0-0.4c0-0.7,0.2-1.4,0.4-2
		c0.2-0.7,0.5-1.3,0.9-1.8c0.4-0.5,0.8-0.9,1.4-1.3c0.5-0.3,1.1-0.5,1.8-0.5c0.8,0,1.6,0.3,2.2,0.9c0.6,0.7,1,1.4,1.3,2.2
		c0.3,0.9,0.6,1.9,0.7,2.8c0.1,0.9,0.2,1.8,0.2,2.7c0,2.1-0.6,3.7-1.8,4.6c-1.5,1-3.3,1.5-5.1,1.4L1820.8,561z M1824.5,543.9l-2.3-2
		l1.8-2.2l2.4,2L1824.5,543.9z M1826.5,552.7c0.8,0,1.5-0.2,2.1-0.6c-0.2-0.7-0.4-1.3-0.8-1.9c-0.2-0.5-0.7-0.8-1.2-0.8
		c-0.5,0-0.9,0.2-1.2,0.6c-0.3,0.4-0.5,0.8-0.5,1.3c0,0.4,0.2,0.7,0.4,1C1825.6,552.6,1826.1,552.7,1826.5,552.7L1826.5,552.7z
		 M1828.8,543.9l-2.3-2l1.9-2.2l2.3,2L1828.8,543.9z"/>
	<path class="st14" d="M1201.5,331.3c-1.8,0.1-3.6-0.3-5.2-1.2c-1.3-0.8-2.3-1.9-3-3.2c-0.7-1.4-1.2-3-1.4-4.5
		c-0.2-1.7-0.4-3.5-0.4-5.2c-0.1-2.1-0.2-4.5-0.2-7.2s-0.1-5.4-0.2-8.2c-0.1-2.8-0.2-5.6-0.3-8.4c-0.1-2.8-0.3-5.4-0.4-7.8l6.5-3.1
		c0,2.6,0,5.3,0,8.1c0,2.8,0.1,5.5,0.1,8.3s0.1,5.5,0.2,8.2s0.1,5.3,0.2,7.7c0,1.1,0,2.2,0.1,3.2c0,1,0.2,1.9,0.5,2.8
		c0.2,0.8,0.7,1.4,1.4,1.9c0.8,0.5,1.8,0.8,2.8,0.7h2.8v8L1201.5,331.3z"/>
	<path class="st14" d="M1239.1,331.3c-1.2,0-2.5-0.1-3.7-0.3c-1-0.2-2-0.5-2.8-1.1c-0.9-0.6-1.6-1.4-2.2-2.3
		c-0.8-1.2-1.4-2.5-1.8-3.9l-4.6,3c-1.3,0.9-2.7,1.7-4.2,2.4c-1.4,0.7-2.9,1.2-4.4,1.6c-1.8,0.4-3.6,0.6-5.4,0.6h-5
		c-0.5,0-0.9-0.4-1.3-1.1c-0.4-0.9-0.5-1.9-0.5-2.9c0-1,0.1-2,0.5-2.9c0.3-0.8,0.8-1.1,1.3-1.1h5.2c1.6,0,3.3-0.1,4.9-0.3
		c1.3-0.2,2.6-0.6,3.8-1.1c1.4-0.5,2.7-1.2,4-1.9c1.4-0.8,3.2-1.7,5.3-2.8l-3.2-1l-2.9-0.9c-0.9-0.3-1.7-0.5-2.3-0.7
		c-0.5-0.2-1-0.3-1.5-0.3c-0.7,0-1.3,0.3-1.8,0.7c-1.1,0.9-2.1,1.9-3,3l-4.5-2.6c1.2-2.2,2.7-4.3,4.4-6.2c1.6-1.7,3.2-2.5,4.8-2.5
		c1.4,0,2.8,0.3,4.1,0.8l5.1,1.8c1.8,0.6,3.8,1.2,5.9,1.8c2.2,0.5,4.4,0.8,6.7,0.8h2.2l-1.5,7.1c-1.3,0-2.7,0.2-4,0.5
		c-1.2,0.2-2.4,0.6-3.5,1.1c0.3,0.5,0.7,1.1,1.2,1.5c0.3,0.3,0.7,0.6,1.1,0.8c0.4,0.2,0.9,0.3,1.3,0.3c0.5,0,1.1,0,1.7,0h6.9v8
		L1239.1,331.3z M1220.2,345.2l-5.3-4.5l4.3-5l5.3,4.5L1220.2,345.2z"/>
	<path class="st14" d="M1264.8,331.3c-1.6,0-3.3-0.3-4.8-0.9c-1.4-0.7-2.5-1.7-3.3-3c-0.9,1.3-2.1,2.3-3.5,3c-1.6,0.7-3.3,1-5,0.9
		h-3c-0.5,0-0.9-0.4-1.3-1.1c-0.4-0.9-0.5-1.9-0.5-2.9c0-1,0.1-2,0.5-2.9c0.3-0.8,0.8-1.1,1.3-1.1h2.9c1,0,1.9,0,2.9-0.2
		c0.7-0.1,1.3-0.3,1.9-0.7c0.5-0.4,0.9-0.9,1.1-1.5c0.3-0.8,0.4-1.6,0.4-2.4v-2.9l5.8-1.5c0,1.7,0,3.2,0.2,4.3
		c0.1,1,0.3,1.9,0.7,2.8c0.3,0.7,0.9,1.2,1.6,1.5c0.9,0.3,1.9,0.5,2.9,0.5h3.3v8L1264.8,331.3z M1256.9,310.3l-5.3-4.5l4.3-5
		l5.3,4.5L1256.9,310.3z"/>
	<path class="st14" d="M1266.8,345.4l-5.1-4.3l4.1-4.8l5.2,4.3L1266.8,345.4z M1277.7,321.4c0-0.4-0.1-0.8-0.3-1.2
		c-0.3-0.6-0.6-1.2-0.9-1.8c-0.4-0.7-0.8-1.4-1.3-2.1s-1-1.5-1.6-2.2l5.2-5.5c1.7,1.9,3,4.1,3.9,6.5c0.8,1.9,1.2,3.9,1.3,6
		c0,3.3-0.9,5.9-2.8,7.7c-1.9,1.8-4.7,2.7-8.6,2.6h-3.7c-0.5,0-0.9-0.4-1.3-1.1c-0.4-0.9-0.5-1.9-0.5-2.9c0-1,0.1-2,0.5-2.9
		c0.3-0.8,0.8-1.1,1.3-1.1h3.7c1.3,0,2.5-0.1,3.7-0.5C1277.2,322.5,1277.7,322,1277.7,321.4L1277.7,321.4z M1275.7,345.4l-5.1-4.3
		l4.1-4.8l5.1,4.3L1275.7,345.4z"/>
	<path class="st14" d="M1298.9,330.2l-6.6,1.5v-46.2l6.6-3.1V330.2z"/>
	<path class="st14" d="M1336.9,324.4c0,2.1-0.5,4.3-1.4,6.2c-1,2.1-2.3,4-3.8,5.7c-1.7,1.9-3.6,3.7-5.7,5.3c-2.2,1.7-4.6,3.4-7.1,5
		l-5.4-5.1c2.6-1.5,4.9-3.1,7.1-4.6c1.9-1.3,3.7-2.8,5.5-4.4c1.3-1.2,2.5-2.5,3.5-3.9c1.2-1.3,1.6-3.3,0.9-5
		c-0.3-0.8-0.6-1.6-0.9-2.4c-0.4-0.9-0.9-1.8-1.4-2.7c-0.6-0.9-1.1-1.8-1.8-2.7l5.2-5.2c1.7,2.4,3.1,4.9,4.2,7.7
		C1336.4,320.2,1336.8,322.3,1336.9,324.4z"/>
	<path class="st14" d="M1369.3,320.6c0.1,2-0.3,4-1.2,5.8c-0.7,1.4-1.8,2.6-3.2,3.5c-1.4,0.9-3,1.4-4.7,1.7
		c-1.9,0.3-3.8,0.4-5.6,0.4c-2,0-3.9-0.3-5.8-0.9c-1.9-0.7-3.5-1.9-4.9-3.4l3.5-6.1c1,0.8,2.2,1.4,3.4,1.8c1.4,0.4,2.8,0.6,4.2,0.6
		c2.1,0.1,4.3-0.2,6.3-0.8c1.5-0.5,2.3-1.2,2.3-2.1c0-1.2-0.8-2.8-2.5-4.8c-2.4-2.6-5.2-4.9-8.3-6.8l3.2-7.5c1.7,1,3.3,2.2,4.9,3.5
		c1.6,1.4,3,2.9,4.3,4.5c1.2,1.6,2.3,3.3,3.1,5.1C1368.9,316.9,1369.3,318.7,1369.3,320.6z"/>
	<path class="st14" d="M1425.8,331.3c-1.6,0-3.1-0.1-4.5-0.2s-2.3-0.1-2.9-0.1c-0.7,0-1.4,0.1-2,0.3c-0.4,0.2-0.6,0.4-0.6,0.6
		c0,0.2,0.1,0.4,0.3,0.5c0.4,0.2,0.8,0.3,1.3,0.4l4.8,0.9c1.2,0.2,2.4,0.6,3.5,1.3c0.9,0.7,1.3,1.8,1.2,2.9c0,1.9-0.7,3.6-1.9,5
		c-1.3,1.6-3,2.9-4.8,3.8c-2.1,1.1-4.3,1.9-6.6,2.4c-2.3,0.6-4.7,0.8-7.2,0.8c-2.3,0-4.6-0.3-6.8-1c-1.9-0.6-3.7-1.7-5.2-3
		c-1.5-1.4-2.6-3.1-3.3-5c-0.8-2.2-1.2-4.5-1.2-6.8c0-2.2,0.3-4.5,1-6.6c0.8-2.2,1.9-4.3,3.1-6.4l5,2c-0.9,1.7-1.7,3.6-2.3,5.5
		c-0.4,1.4-0.7,2.8-0.7,4.2c-0.2,2.6,0.9,5.2,2.8,6.9c1.9,1.6,4.6,2.4,8.2,2.4c1.5,0,3-0.1,4.5-0.3c1.3-0.2,2.6-0.4,3.8-0.8
		c1-0.3,2-0.6,3-1c0.8-0.4,1.5-0.6,2-0.9c-0.7-0.4-1.4-0.6-2.2-0.7l-3.6-0.8c-1.3-0.2-2.6-0.8-3.7-1.6c-1.1-1-1.6-2.5-1.4-3.9
		c-0.1-2.6,1.1-5,3.1-6.5c2.1-1.5,5.3-2.3,9.7-2.3h4.6v8L1425.8,331.3z"/>
	<path class="st14" d="M1454.5,327c-0.8,1.3-1.9,2.4-3.2,3.1c-1.5,0.8-3.2,1.2-4.9,1.1c-1.7,0.1-3.3-0.2-4.9-0.9
		c-1.4-0.7-2.5-1.9-3.2-3.3c-0.8,1.4-1.9,2.5-3.3,3.2c-1.2,0.6-2.6,1-4,1h-4.2c-0.5,0-0.9-0.4-1.3-1.1c-0.4-0.9-0.5-1.9-0.5-2.9
		c0-1,0.1-2,0.5-2.9c0.3-0.8,0.8-1.1,1.3-1.1h3.9c1.3,0,2.5-0.2,3.7-0.8c1-0.5,1.7-1.7,1.6-2.8v-4.1l5.8-1.5c0,1.7,0.1,3.2,0.2,4.3
		c0.1,1,0.3,1.9,0.7,2.8c0.3,0.7,0.8,1.2,1.5,1.5c0.8,0.3,1.6,0.5,2.5,0.5c0.9,0,1.9-0.1,2.8-0.3c0.6-0.2,1.2-0.5,1.6-0.9
		c0.4-0.5,0.7-1,0.8-1.6c0.2-0.8,0.2-1.6,0.2-2.4v-2.4l5.7-1.5c-0.1,2.4,0.2,4.7,0.9,7c0.6,1.5,1.8,2.2,3.8,2.2
		c2.8,0,4.1-0.6,4.1-1.8c0-0.4-0.1-0.9-0.3-1.3c-0.3-0.6-0.5-1.3-0.9-1.9c-0.4-0.7-0.8-1.4-1.3-2.1c-0.5-0.8-1-1.5-1.6-2.2l5.2-5.5
		c1.7,1.9,3,4.1,3.9,6.5c0.8,1.9,1.2,3.9,1.3,6c0,1.4-0.2,2.9-0.8,4.2c-0.5,1.2-1.2,2.3-2.2,3.2c-0.9,0.9-2.1,1.6-3.3,2.1
		c-1.3,0.5-2.8,0.8-4.2,0.7C1458.6,331.3,1456,329.9,1454.5,327z"/>
	<path class="st14" d="M1493.7,324.4c0,2.1-0.5,4.3-1.4,6.2c-1,2.1-2.3,4-3.8,5.7c-1.7,1.9-3.6,3.7-5.7,5.3c-2.2,1.7-4.6,3.4-7.2,5
		l-5.4-5.1c2.6-1.5,4.9-3.1,7.1-4.6c1.9-1.4,3.7-2.8,5.5-4.4c1.3-1.2,2.5-2.5,3.5-3.9c0.7-0.9,1.2-2,1.3-3.2c0-0.6-0.1-1.2-0.3-1.8
		c-0.3-0.8-0.6-1.6-1-2.4c-0.4-0.9-0.9-1.8-1.4-2.7c-0.6-0.9-1.2-1.8-1.8-2.7l5.2-5.2c1.7,2.4,3.1,4.9,4.2,7.7
		C1493.2,320.2,1493.6,322.3,1493.7,324.4z"/>
	<path class="st14" d="M1513.1,331.3c-1.8,0.1-3.6-0.3-5.2-1.2c-1.3-0.8-2.3-1.9-3-3.2c-0.7-1.4-1.2-3-1.4-4.5
		c-0.2-1.7-0.4-3.5-0.4-5.2c-0.1-2.1-0.2-4.5-0.2-7.2c0-2.7-0.1-5.4-0.2-8.2s-0.2-5.6-0.3-8.4s-0.3-5.4-0.5-7.8l6.5-3.1
		c0,2.6,0,5.3,0,8.1c0,2.8,0.1,5.5,0.1,8.3s0.1,5.5,0.2,8.2s0.1,5.3,0.2,7.7c0,1.1,0,2.2,0.1,3.2c0,1,0.2,1.9,0.5,2.8
		c0.2,0.8,0.7,1.4,1.4,1.9c0.8,0.5,1.8,0.8,2.8,0.7h2.8v8L1513.1,331.3z"/>
	<path class="st14" d="M1528.3,299.2c1.7,0,3.4,0.6,4.7,1.8c1.3,1.2,2.4,2.7,3.1,4.3c0.8,1.9,1.4,3.8,1.7,5.9
		c0.3,2.1,0.5,4.1,0.5,6.2c0,4.9-1.2,8.4-3.5,10.6c-2.3,2.2-6.1,3.3-11.2,3.3h-7c-0.5,0-0.9-0.4-1.3-1.1c-0.4-0.9-0.5-1.9-0.5-2.9
		c0-1,0.1-2,0.5-2.9c0.3-0.8,0.8-1.1,1.3-1.1h7.2c1.7,0,3.5-0.2,5.1-0.6c1.3-0.2,2.6-0.8,3.5-1.8c0.2-0.3,0.2-0.6,0.2-0.9
		c0-0.4,0-1,0-1.8c-1,0.4-2,0.6-3.1,0.7c-0.8,0.1-1.7,0.2-2.5,0.2c-5.2,0-7.9-2.8-7.8-8.3c0-1.4,0.2-2.8,0.7-4.2
		c0.4-1.3,1.1-2.6,1.9-3.8c0.8-1.1,1.7-2,2.9-2.7C1525.7,299.6,1527,299.2,1528.3,299.2z M1528,294.8l-5.3-4.5l4.3-5l5.3,4.5
		L1528,294.8z M1527.6,306.2c-1,0-1.9,0.5-2.4,1.3c-0.6,0.7-1,1.7-1,2.7c0,0.7,0.3,1.3,0.8,1.7c0.7,0.6,1.6,0.8,2.5,0.7
		c0.9,0,1.7-0.1,2.6-0.2c0.7-0.1,1.4-0.3,2-0.6c-0.2-1.4-0.8-2.8-1.6-4C1529.8,306.8,1528.8,306.2,1527.6,306.2z"/>
	<path class="st14" d="M1574.4,342c-2.1,0-4.2-0.3-6.2-1c-1.8-0.7-3.5-1.7-4.9-3.1c-1.4-1.4-2.5-3.1-3.2-5c-0.8-2.2-1.2-4.5-1.2-6.9
		c0-2.2,0.3-4.4,1.1-6.5c0.8-2.2,1.8-4.4,3.1-6.4l5,2c-1,1.7-1.7,3.6-2.3,5.5c-0.4,1.4-0.7,2.8-0.7,4.2c-0.2,2.6,0.8,5.1,2.7,6.9
		c2,1.7,4.6,2.6,7.3,2.4c3.8,0,6.7-1.1,8.8-3.2s3.1-5.5,3.1-10.1c0-1.3,0-3.3-0.1-6c-0.1-2.7-0.2-5.9-0.3-9.4s-0.2-7.3-0.3-11.4
		s-0.2-8-0.2-11.9l6.6-3.1l0.5,41.6c0,7.2-1.6,12.6-4.9,16.2C1584.8,340.2,1580.3,342,1574.4,342z"/>
	<path class="st14" d="M1611.6,307.1c1.5,0,3,0.4,4.3,1.2c1.3,0.8,2.4,1.9,3.2,3.2c0.9,1.5,1.6,3.1,2,4.8c0.4,1.8,0.7,3.7,0.7,5.6
		c0,2.5-0.4,5-1.3,7.4c-0.9,2.3-2.2,4.5-3.8,6.4c-1.7,2.1-3.7,4-5.9,5.7c-2.5,1.9-5,3.7-7.7,5.3l-5.4-5c2.3-1.3,4.4-2.6,6.3-3.9
		c1.8-1.2,3.6-2.5,5.3-3.9c1.4-1.1,2.7-2.3,4-3.6c0.9-0.9,1.7-2,2.4-3.1c-1,0.5-2,0.8-3.2,1c-1.1,0.1-1.9,0.2-2.4,0.2
		c-2.1,0.1-4.1-0.7-5.6-2c-1.5-1.3-2.3-3.3-2.3-5.9c0-1.6,0.2-3.3,0.7-4.8c0.4-1.5,1.1-3,2-4.3c0.8-1.2,1.8-2.2,3-3
		C1608.9,307.5,1610.2,307.1,1611.6,307.1z M1610.9,314.4c-0.5,0-1,0.1-1.4,0.4c-0.4,0.3-0.8,0.6-1.1,1c-0.3,0.4-0.5,0.9-0.7,1.3
		c-0.2,0.4-0.3,0.9-0.3,1.3c0,0.7,0.3,1.4,0.9,1.8c0.8,0.5,1.7,0.8,2.6,0.7c0.9,0,1.8-0.1,2.6-0.3c0.7-0.1,1.4-0.4,2.1-0.6
		c-0.2-1.5-0.8-2.9-1.6-4.1C1613.3,315,1612.2,314.4,1610.9,314.4z"/>
	<path class="st14" d="M1636.6,330.2l-6.6,1.5v-46.2l6.6-3.1V330.2z"/>
	<path class="st14" d="M1715.4,331.3c-1.2,0-2.4-0.1-3.5-0.5c-1.1-0.3-2.2-0.9-3.1-1.5c-1.2-0.9-2.3-1.9-3.4-2.9
		c-1.2-1.2-2.6-2.8-4.2-4.7c-0.2,1-0.6,1.9-1,2.8c-0.7,1.8-2,3.2-3.6,4.2c-1.8,1.1-3.8,2-5.8,2.5c-2.2,0.6-4.5,1-6.8,1.2
		c-2.4,0.2-4.5,0.3-6.5,0.3c-2.6,0-5.1-0.1-7.5-0.3c-2.2-0.2-4.3-0.7-6.4-1.5c-1.8-0.7-3.3-1.9-4.4-3.4c-1.2-1.8-1.8-3.9-1.7-6
		c0-1.4,0.3-2.8,0.7-4.1c0.5-1.7,1.2-3.3,2.1-4.9l5,1.8c-0.5,1.1-0.9,2.2-1.3,3.4c-0.2,0.8-0.3,1.6-0.3,2.5c0,0.9,0.4,1.8,1.2,2.3
		c0.9,0.7,2,1.2,3.2,1.4c1.5,0.4,3.1,0.6,4.7,0.7c1.8,0.1,3.7,0.2,5.8,0.2c1.7,0,3.5-0.1,5.5-0.2c1.8-0.1,3.7-0.4,5.5-0.7
		c1.6-0.3,3.1-0.8,4.6-1.4c1.1-0.4,2.1-1.2,2.7-2.1c-0.2-1-0.5-1.9-1-2.8c-0.6-1.1-1.3-2.1-2.2-3c-1.1-1.2-2.2-2.3-3.4-3.4
		c-1.3-1.2-2.9-2.7-4.8-4.3c0.1-1.7,0.3-3.4,0.7-5c0.1-0.9,0.6-1.6,1.2-2.2c3.2-2.1,7.2-4.5,12-7.1c4.8-2.6,10.1-5.2,16.1-7.9
		l-1,8.5c-4.3,1.9-8.4,3.8-12.2,5.7s-6.9,3.6-9.2,5.1c2.8,2.5,5.6,5.3,8.4,8.2s5.5,5.7,8.2,8.4c0.9,1,2,1.8,3.2,2.3
		c1,0.4,2,0.7,3.1,0.7h3.2v8L1715.4,331.3z M1707.8,285c-3.1,1.5-6.4,3.2-9.8,5.1c-3.5,1.9-7.1,4.1-11,6.6l0.6-5
		c3.8-2.5,7.4-4.8,11-6.8c3.6-2,6.9-3.7,9.9-5.3L1707.8,285z"/>
	<path class="st14" d="M1738.4,331.3c-1.6,0-3.3-0.3-4.8-0.9c-1.4-0.7-2.5-1.7-3.3-3c-0.9,1.3-2.1,2.3-3.5,3c-1.6,0.7-3.3,1-5,0.9
		h-3c-0.5,0-0.9-0.4-1.3-1.1c-0.4-0.9-0.5-1.9-0.5-2.9c0-1,0.1-2,0.5-2.9c0.3-0.8,0.7-1.1,1.3-1.1h2.9c1,0,1.9,0,2.9-0.2
		c0.7-0.1,1.3-0.3,1.9-0.7c0.5-0.4,0.9-0.9,1.1-1.5c0.3-0.8,0.4-1.6,0.4-2.4v-2.9l5.8-1.5c0,1.7,0.1,3.2,0.2,4.3
		c0.1,1,0.3,1.9,0.7,2.8c0.3,0.7,0.9,1.2,1.6,1.5c0.9,0.3,1.9,0.5,2.9,0.5h3.3v8L1738.4,331.3z M1730.5,310.3l-5.3-4.5l4.3-5
		l5.3,4.5L1730.5,310.3z"/>
	<path class="st14" d="M1740.3,345.4l-5.1-4.3l4.1-4.8l5.2,4.3L1740.3,345.4z M1751.3,321.4c0-0.4-0.1-0.8-0.3-1.2
		c-0.3-0.6-0.6-1.2-0.9-1.8c-0.4-0.7-0.8-1.4-1.3-2.1s-1-1.5-1.6-2.2l5.2-5.5c1.7,1.9,3,4.1,3.9,6.5c0.8,1.9,1.2,3.9,1.3,6
		c0,3.4-0.9,5.9-2.8,7.7s-4.7,2.6-8.6,2.6h-3.7c-0.5,0-0.9-0.4-1.3-1.1c-0.4-0.9-0.5-1.9-0.5-2.9c0-1,0.1-2,0.5-2.9
		c0.3-0.8,0.8-1.1,1.3-1.1h3.7c1.3,0,2.5-0.1,3.7-0.5C1750.8,322.5,1751.3,322,1751.3,321.4L1751.3,321.4z M1749.3,345.4l-5.1-4.3
		l4.1-4.8l5.1,4.3L1749.3,345.4z"/>
	<path class="st14" d="M1794.8,331.3c-0.9,0-1.8-0.1-2.6-0.3c-0.7-0.2-1.4-0.4-2.1-0.8c-0.6-0.4-1.2-0.9-1.7-1.5
		c-0.6-0.7-1.1-1.5-1.6-2.4c-1,2-2.8,3.7-4.9,4.5c-2.3,0.8-4.7,1.2-7.1,1.1c-1.9,0-3.8-0.3-5.6-0.9c-1.8-0.8-3.4-1.9-4.8-3.4
		l3.5-6.1c1,0.8,2.1,1.4,3.3,1.8c1.4,0.4,2.8,0.6,4.2,0.6c2,0.1,3.9-0.2,5.8-0.8c1.5-0.6,2.2-1.4,2.2-2.4c-0.1-0.9-0.3-1.7-0.6-2.5
		c-0.4-1.2-0.9-2.6-1.5-4.1s-1.2-3.1-1.9-4.7s-1.3-3.1-2-4.5l5.2-5.5l6.5,17.3c0.4,1.2,0.8,2.2,1.2,3c0.3,0.7,0.7,1.4,1.1,2
		c0.4,0.5,0.8,0.9,1.4,1.1c0.6,0.3,1.3,0.4,2,0.4h2.8v8L1794.8,331.3z"/>
	<path class="st14" d="M1805.9,307.5l3.1-6.3c3.5,2.4,6.5,4.5,9.1,6.5c2.3,1.7,4.4,3.5,6.4,5.5c1.5,1.6,2.8,3.4,3.8,5.4
		c0.8,1.8,1.3,3.8,1.3,5.9c0,1-0.1,2-0.4,3c-0.2,1-0.6,1.9-1.2,2.7c-0.5,0.8-1.2,1.5-2.1,2c-0.9,0.5-1.9,0.8-2.9,0.8
		c-0.8,0-1.5-0.1-2.2-0.4c-1-0.3-1.9-0.6-2.8-0.9c-1-0.4-2-0.8-3.1-1.3s-2-0.9-2.8-1.3c-1.4,1-3,1.6-4.7,1.9c-1.7,0.3-3.3,0.4-5,0.5
		h-4.6c-0.5,0-0.9-0.4-1.3-1.1c-0.4-0.9-0.5-1.9-0.5-2.9c0-1,0.1-2,0.5-2.9c0.3-0.8,0.8-1.1,1.3-1.1h4.7c0.7,0,1.3,0,2-0.1
		c-1-0.6-1.7-1.5-2.3-2.5c-0.3-0.8-0.5-1.6-0.5-2.4c0-1.9,0.6-3.7,1.5-5.2c1-1.8,2.6-3.3,4.4-4.3L1805.9,307.5z M1812,312.8
		c-0.6,0-1.2,0.2-1.8,0.5c-0.6,0.3-1.2,0.7-1.6,1.2c-0.5,0.5-0.9,1-1.2,1.6c-0.3,0.5-0.5,1-0.5,1.6c0,0.5,0.2,0.9,0.5,1.3
		c0.3,0.5,0.8,0.9,1.3,1.2c0.5,0.4,1.1,0.7,1.7,1c0.5,0.3,1.1,0.5,1.7,0.7c0.8-0.2,1.4-0.8,1.8-1.5c0.5-0.7,0.8-1.6,0.8-2.5
		c0.1-1.3-0.2-2.5-0.8-3.6C1813.3,313.2,1812.7,312.8,1812,312.8L1812,312.8z M1818.8,316.6c0,0.3,0.1,0.7,0.1,1v1
		c-0.1,1-0.3,2-0.7,2.9c-0.3,0.9-0.9,1.7-1.6,2.3c0.5,0.3,1,0.5,1.5,0.7l1.8,0.8c0.6,0.3,1.2,0.5,1.7,0.6c0.4,0.1,0.7,0.2,1.1,0.2
		c0.4,0,0.8-0.3,0.9-0.7c0.3-0.4,0.4-0.9,0.4-1.4c-0.1-1.2-0.4-2.4-1.1-3.4C1821.9,319.1,1820.5,317.7,1818.8,316.6L1818.8,316.6z"
		/>
	<path class="st14" d="M1586.7,404.6c0.1,2-0.3,4-1.2,5.8c-0.7,1.4-1.8,2.6-3.2,3.5c-1.4,0.9-3,1.4-4.7,1.7
		c-1.9,0.3-3.8,0.4-5.6,0.4c-2,0-3.9-0.3-5.8-0.9c-1.9-0.7-3.5-1.9-4.9-3.4l3.5-6.1c1,0.8,2.1,1.4,3.4,1.8c1.4,0.4,2.8,0.6,4.2,0.6
		c2.1,0.1,4.3-0.2,6.3-0.8c1.5-0.5,2.3-1.2,2.3-2.1c0-1.2-0.8-2.7-2.5-4.8c-2.4-2.6-5.2-4.9-8.3-6.8l3.2-7.5c1.7,1,3.3,2.2,4.9,3.5
		c1.6,1.4,3,2.9,4.3,4.5c1.2,1.6,2.2,3.3,3,5.1C1586.3,400.9,1586.7,402.8,1586.7,404.6z"/>
	<path class="st14" d="M1611.4,415.3c-0.8,0-1.5-0.1-2.2-0.2c-0.7-0.1-1.4-0.4-2-0.9c-0.2,1.9-0.9,3.7-1.8,5.4
		c-1,1.8-2.3,3.5-3.8,5.1c-1.7,1.8-3.5,3.4-5.4,4.8c-2.1,1.6-4.3,3.1-6.7,4.7l-5.4-5.1c2.6-1.5,4.9-3.1,7.1-4.6
		c1.9-1.4,3.7-2.8,5.5-4.4c1.3-1.2,2.5-2.5,3.5-3.9c0.7-0.9,1.2-2,1.3-3.2c-0.1-1.4-0.6-2.8-1.3-4c-0.9-1.9-2-3.8-3.2-5.5l5.3-5.3
		c1,1.7,1.8,3.1,2.6,4.3c0.6,1,1.3,1.9,2,2.8c0.5,0.6,1.1,1.2,1.8,1.6c0.6,0.3,1.3,0.5,2,0.5h2.8v8.1L1611.4,415.3z"/>
	<path class="st14" d="M1633.1,415.3c-1.6,0-3.3-0.3-4.8-0.9c-1.4-0.7-2.5-1.7-3.3-3c-0.9,1.3-2.1,2.3-3.5,3c-1.6,0.7-3.3,1-5,1h-3
		c-0.5,0-0.9-0.4-1.3-1.1c-0.4-0.9-0.5-1.9-0.5-2.9c0-1,0.1-2,0.5-3c0.3-0.7,0.8-1.1,1.3-1.1h2.9c1,0,1.9,0,2.9-0.2
		c0.7-0.1,1.3-0.3,1.9-0.7c0.5-0.4,0.9-0.9,1.1-1.5c0.3-0.8,0.4-1.6,0.4-2.4v-2.9l5.8-1.5c0,1.7,0,3.2,0.2,4.3
		c0.1,1,0.3,1.9,0.7,2.8c0.3,0.7,0.9,1.2,1.6,1.5c0.9,0.3,1.9,0.5,2.9,0.5h3.3v8.1L1633.1,415.3z M1620.4,429.4l-5.1-4.3l4.1-4.8
		l5.2,4.3L1620.4,429.4z M1629.4,429.4l-5.1-4.3l4.1-4.8l5.1,4.3L1629.4,429.4z"/>
	<path class="st14" d="M1656.7,403.4c0,1.7-0.3,3.4-1,5c-0.6,1.5-1.6,2.8-2.8,3.8c-1.3,1.1-2.8,1.9-4.4,2.3
		c-1.8,0.6-3.7,0.8-5.6,0.8h-5.7c-0.5,0-0.9-0.4-1.3-1.1c-0.4-0.9-0.5-1.9-0.5-2.9c0-1,0.1-2,0.5-3c0.3-0.7,0.8-1.1,1.3-1.1h6.1
		c1.8,0.1,3.7-0.2,5.4-0.8c1-0.4,1.9-1.2,2.5-2.1c-0.6-2.3-1.8-4.5-3.6-6.1c-2.8-2.8-5.8-5.3-9.1-7.6c0.1-1.7,0.3-3.3,0.7-5
		c0.1-0.9,0.5-1.6,1.2-2.2c1.5-1,3.3-2.1,5.2-3.2c1.9-1.1,3.8-2.2,5.8-3.2s3.9-2.1,5.9-3.1s3.7-1.9,5.4-2.7l-1.1,8.5
		c-3,1.3-5.8,2.7-8.3,4c-2.5,1.3-4.9,2.7-7.1,4C1653.1,393.4,1656.7,398.6,1656.7,403.4z M1659.7,369.7c-3,1.5-6.1,3.1-9.5,5
		s-6.8,3.9-10.5,6.3l0.6-5c3.6-2.4,7.1-4.5,10.4-6.4c3.3-1.9,6.5-3.6,9.6-5.1L1659.7,369.7z"/>
	<path class="st14" d="M1700.6,415.3c-1.6,0-3.1-0.1-4.5-0.2s-2.3-0.1-2.9-0.1c-0.7,0-1.4,0.1-2,0.3c-0.4,0.2-0.6,0.4-0.6,0.6
		c0,0.2,0.1,0.4,0.3,0.5c0.4,0.2,0.8,0.3,1.3,0.4l4.8,0.9c1.2,0.2,2.4,0.6,3.5,1.3c0.9,0.7,1.3,1.8,1.2,2.9c0,1.8-0.7,3.6-1.9,5
		c-1.3,1.6-3,2.8-4.8,3.8c-2.1,1.1-4.3,1.9-6.6,2.4c-2.3,0.6-4.7,0.8-7.1,0.8c-2.3,0-4.6-0.3-6.8-1c-1.9-0.6-3.7-1.6-5.2-3
		c-1.5-1.4-2.6-3.1-3.3-5c-0.8-2.2-1.2-4.5-1.2-6.9c0-2.2,0.3-4.5,1-6.6c0.8-2.2,1.9-4.4,3.1-6.4l5,2c-0.9,1.7-1.7,3.6-2.3,5.5
		c-0.4,1.4-0.7,2.8-0.7,4.2c-0.2,2.6,0.9,5.1,2.8,6.9c1.9,1.6,4.6,2.4,8.2,2.4c1.5,0,3-0.1,4.5-0.3c1.3-0.2,2.6-0.4,3.8-0.8
		c1-0.3,2-0.6,3-1c0.8-0.4,1.5-0.6,2-0.9c-0.7-0.4-1.5-0.6-2.2-0.7l-3.6-0.8c-1.3-0.2-2.6-0.8-3.7-1.6c-1.1-1-1.6-2.5-1.4-3.9
		c-0.1-2.6,1.1-5,3.1-6.5c2.1-1.5,5.3-2.3,9.7-2.3h4.6v8.1L1700.6,415.3z"/>
	<path class="st14" d="M1719.3,393.8c1.4,0,2.7,0.4,3.8,1.2c1.1,0.9,2.1,2,2.8,3.2c0.8,1.4,1.4,2.9,1.8,4.4c0.4,1.6,0.6,3.3,0.6,5
		c0,1-0.2,2-0.6,2.9c-0.4,1-0.9,1.8-1.5,2.7c-0.6,0.8-1.3,1.4-2.1,1.9c-0.7,0.5-1.6,0.7-2.4,0.7c-0.8,0-1.7-0.1-2.5-0.3
		c-1-0.2-1.9-0.5-2.8-0.8c-1-0.4-1.9-0.8-2.8-1.3c-0.9-0.5-1.8-1.1-2.6-1.7c-1,1.2-2.2,2.2-3.6,2.8c-1.5,0.5-3,0.8-4.6,0.8h-1.1
		c-0.5,0-0.9-0.4-1.3-1.2c-0.3-0.9-0.5-1.8-0.5-2.7c0-1,0.2-1.9,0.5-2.8c0.3-0.9,0.7-1.3,1.3-1.3h0.8c1.2,0,2.4-0.1,3.6-0.4
		c1.2-0.3,2.2-1.1,2.7-2.2c0.7-1.4,1.5-2.8,2.3-4.1c0.7-1.2,1.6-2.4,2.5-3.5c0.8-0.9,1.7-1.7,2.7-2.4
		C1717.1,394.2,1718.2,393.8,1719.3,393.8z M1718.6,401.2c-0.9,0.1-1.6,0.5-2.2,1.2c-0.9,1-1.6,2.2-2.2,3.4c0.5,0.4,1,0.8,1.6,1
		c0.6,0.3,1.2,0.6,1.9,0.8c0.6,0.2,1.2,0.4,1.8,0.5c0.5,0.1,1.1,0.2,1.6,0.2c0.3,0,0.6-0.1,0.9-0.3c0.3-0.1,0.5-0.4,0.6-0.6
		c0-0.7-0.1-1.4-0.3-2.1c-0.2-0.7-0.5-1.4-0.9-2c-0.4-0.6-0.8-1.1-1.3-1.5C1719.7,401.5,1719.1,401.3,1718.6,401.2z"/>
	<path class="st14" d="M1765.9,408.5c0,2.1-0.5,4.3-1.4,6.2c-1,2.1-2.3,4-3.8,5.7c-1.7,1.9-3.7,3.7-5.7,5.3c-2.3,1.8-4.7,3.5-7.1,5
		l-5.4-5.1c2.6-1.5,4.9-3.1,7.1-4.6c1.9-1.3,3.7-2.8,5.5-4.4c1.3-1.2,2.5-2.5,3.5-3.9c0.7-0.9,1.2-2,1.3-3.2c0-0.6-0.1-1.2-0.3-1.8
		c-0.3-0.8-0.6-1.6-0.9-2.4c-0.4-0.9-0.9-1.8-1.4-2.7c-0.6-0.9-1.1-1.8-1.8-2.7l5.2-5.2c1.7,2.4,3.1,4.9,4.2,7.7
		C1765.4,404.3,1765.8,406.4,1765.9,408.5z"/>
	<path class="st14" d="M1780.9,414.2l-6.6,1.5v-46.2l6.6-3.1V414.2z"/>
	<path class="st14" d="M1805.9,415.3c-0.8,0-1.5-0.1-2.2-0.2c-0.7-0.1-1.4-0.4-2-0.9c-0.2,1.9-0.9,3.7-1.8,5.4
		c-1,1.8-2.3,3.5-3.8,5.1c-1.7,1.8-3.5,3.4-5.4,4.8c-2.1,1.6-4.3,3.1-6.7,4.7l-5.4-5.1c2.6-1.5,4.9-3.1,7.1-4.6
		c1.9-1.4,3.7-2.8,5.5-4.4c1.3-1.2,2.5-2.5,3.5-3.9c0.7-0.9,1.2-2,1.3-3.2c-0.1-1.4-0.6-2.8-1.3-4c-0.9-1.9-2-3.8-3.2-5.5l5.3-5.3
		c1,1.7,1.8,3.1,2.6,4.3c0.6,1,1.3,1.9,2,2.8c0.5,0.6,1.1,1.2,1.8,1.6c0.6,0.3,1.3,0.5,2,0.5h2.8v8.1L1805.9,415.3z"/>
	<path class="st14" d="M1819.7,383.3c1.7,0,3.4,0.6,4.7,1.7c1.3,1.2,2.4,2.7,3.1,4.3c0.8,1.9,1.4,3.8,1.7,5.9
		c0.3,2.1,0.5,4.1,0.5,6.2c0,4.9-1.2,8.4-3.5,10.6c-2.3,2.2-6.1,3.3-11.2,3.3h-7c-0.5,0-0.9-0.4-1.3-1.1c-0.4-0.9-0.5-1.9-0.5-2.9
		c0-1,0.1-2,0.5-3c0.3-0.7,0.8-1.1,1.3-1.1h7.2c1.7,0,3.5-0.2,5.1-0.6c1.3-0.2,2.6-0.8,3.5-1.8c0.2-0.3,0.2-0.6,0.2-0.9
		c0-0.4,0-1,0-1.8c-1,0.4-2,0.6-3.1,0.7c-0.8,0.1-1.7,0.2-2.5,0.2c-5.2,0-7.8-2.8-7.8-8.3c0-1.4,0.2-2.8,0.7-4.2
		c0.4-1.3,1.1-2.6,1.9-3.8c0.8-1.1,1.8-2,2.9-2.7C1817.1,383.6,1818.4,383.2,1819.7,383.3z M1814.8,378.9l-5.1-4.3l4.1-4.8l5.2,4.2
		L1814.8,378.9z M1819,390.2c-1,0-1.9,0.5-2.4,1.3c-0.6,0.7-1,1.7-1,2.7c0,0.7,0.3,1.3,0.8,1.7c0.7,0.6,1.6,0.8,2.5,0.7
		c0.9,0,1.7-0.1,2.6-0.2c0.7-0.1,1.4-0.3,2-0.6c-0.2-1.4-0.8-2.8-1.6-4C1821.2,390.8,1820.1,390.2,1819,390.2L1819,390.2z
		 M1823.8,378.9l-5.1-4.3l4.1-4.8l5.1,4.2L1823.8,378.9z"/>
	<line class="st15" x1="1781.8" y1="467.2" x2="1833.6" y2="467.2"/>
	<g class="st16">
		<path class="st14" d="M1726.4,978.2l-10.9,13.4h11.2v2h-13.9v-1.9l11-13.5h-10.4v-2h13.1V978.2z"/>
		<path class="st14" d="M1737.8,992.1c2.7,0,4.3-1.3,4.8-4l2.3,0.4c-0.2,1.7-1,3.1-2.3,4.1c-1.3,1-2.9,1.5-4.8,1.5
			c-2.7,0-4.7-0.8-6.1-2.4c-1.4-1.6-2.1-3.8-2.1-6.8c0-2.8,0.7-5,2.2-6.6c1.5-1.7,3.5-2.5,5.9-2.5c2.4,0,4.2,0.7,5.5,2.1
			c1.3,1.4,1.9,3.4,1.9,6v1.5H1732C1732.2,989.8,1734.1,992.1,1737.8,992.1z M1737.7,977.7c-1.6,0-2.9,0.5-3.9,1.5
			c-1,1-1.5,2.4-1.7,4.3h10.5C1742.5,979.6,1740.8,977.7,1737.7,977.7z"/>
		<path class="st14" d="M1756.7,992.1c2.7,0,4.3-1.3,4.8-4l2.3,0.4c-0.2,1.7-1,3.1-2.3,4.1c-1.3,1-2.9,1.5-4.8,1.5
			c-2.7,0-4.7-0.8-6.1-2.4c-1.4-1.6-2.1-3.8-2.1-6.8c0-2.8,0.7-5,2.2-6.6c1.5-1.7,3.5-2.5,5.9-2.5c2.4,0,4.2,0.7,5.5,2.1
			c1.3,1.4,1.9,3.4,1.9,6v1.5h-13.1C1751.1,989.8,1753,992.1,1756.7,992.1z M1756.6,977.7c-1.6,0-2.9,0.5-3.9,1.5
			c-1,1-1.5,2.4-1.7,4.3h10.5C1761.3,979.6,1759.7,977.7,1756.6,977.7z"/>
		<path class="st14" d="M1775.6,992.1c2.7,0,4.3-1.3,4.8-4l2.3,0.4c-0.2,1.7-1,3.1-2.3,4.1c-1.3,1-2.9,1.5-4.8,1.5
			c-2.7,0-4.7-0.8-6.1-2.4c-1.4-1.6-2.1-3.8-2.1-6.8c0-2.8,0.7-5,2.2-6.6c1.5-1.7,3.5-2.5,5.9-2.5c2.4,0,4.2,0.7,5.5,2.1
			c1.3,1.4,1.9,3.4,1.9,6v1.5h-13.1C1769.9,989.8,1771.9,992.1,1775.6,992.1z M1775.5,977.7c-1.6,0-2.9,0.5-3.9,1.5
			c-1,1-1.5,2.4-1.7,4.3h10.5C1780.2,979.6,1778.6,977.7,1775.5,977.7z"/>
		<path class="st14" d="M1801.9,982.3v11.3h-2.4v-10.8c0-1.6-0.4-2.8-1.2-3.6c-0.8-0.9-1.9-1.3-3.4-1.3c-1.7,0-3,0.5-3.9,1.6
			c-0.9,1.1-1.3,2.6-1.3,4.7v9.5h-2.4v-17.4h2.4v2.3c1.2-1.8,3-2.7,5.6-2.7c2,0,3.6,0.6,4.8,1.8
			C1801.3,978.7,1801.9,980.3,1801.9,982.3z"/>
		<path class="st14" d="M1806.9,990.2h3.2v3.4h-3.2V990.2z"/>
		<path class="st14" d="M1817.8,973.1h-2.4v-4h2.4V973.1z M1817.8,993.6h-2.4v-17.4h2.4V993.6z"/>
		<path class="st14" d="M1825.7,993.6h-2.4v-17.4h2.4v3.4c1.1-2.3,2.9-3.4,5.2-3.4h1.3v2.3h-1.3c-1.5,0-2.8,0.7-3.7,2.1
			c-1,1.4-1.4,3.3-1.4,5.6V993.6z"/>
	</g>
	<polygon class="st14" points="90.6,907.5 90.6,913.8 107.6,913.8 87.3,945.6 116,945.6 116,939.3 98.9,939.3 119.2,907.5 	"/>
	<polygon class="st14" points="125.6,945.6 151,945.6 151,939.3 132,939.3 132,929.7 151,929.7 151,923.4 131.9,923.4 131.9,913.8 
		151,913.8 151,907.5 125.6,907.5 	"/>
	<polygon class="st14" points="186,939.3 166.9,939.3 166.9,929.7 186,929.7 186,923.4 166.9,923.4 166.9,913.8 186,913.8 
		186,907.5 160.5,907.5 160.5,945.6 186,945.6 	"/>
	<polygon class="st14" points="125.6,993.3 151,993.3 151,987 131.9,987 131.9,977.4 151,977.4 151,971.1 131.9,971.1 131.9,961.5 
		151,961.5 151,955.2 125.6,955.2 	"/>
	<polygon class="st14" points="182.8,955.2 182.8,980.9 166.6,955.2 160.5,955.2 160.5,993.3 166.9,993.3 166.9,967.6 183.1,993.3 
		189.2,993.3 189.2,955.2 	"/>
</g>
</svg>
