<svg xmlns="http://www.w3.org/2000/svg" xmlns:xlink="http://www.w3.org/1999/xlink" viewBox="0 0 1920 1080"><defs><style>.cls-1,.cls-11,.cls-12,.cls-13,.cls-14,.cls-17,.cls-6,.cls-7,.cls-8,.cls-9{fill:none;}.cls-2{fill:#082b8f;}.cls-3{fill:#082b96;}.cls-4{clip-path:url(#clip-path);}.cls-5{fill:#061f6b;}.cls-11,.cls-12,.cls-13,.cls-14,.cls-17,.cls-6,.cls-7,.cls-8,.cls-9{stroke-miterlimit:10;}.cls-6{stroke:url(#linear-gradient);}.cls-7{stroke:url(#linear-gradient-2);}.cls-8{stroke:url(#linear-gradient-3);}.cls-9{stroke:url(#linear-gradient-4);}.cls-10{fill:#f5cebc;}.cls-11{stroke:url(#linear-gradient-5);}.cls-12{stroke:url(#linear-gradient-6);}.cls-13{stroke:url(#linear-gradient-7);}.cls-14{stroke:url(#linear-gradient-8);}.cls-15{fill:#fff;}.cls-16,.cls-18{fill:#4672e2;}.cls-17{stroke:#fff;stroke-width:3.67px;}.cls-18{font-size:35.01px;font-family:Approach-Light, Approach;font-weight:300;}</style><clipPath id="clip-path"><path class="cls-1" d="M968.76-1337.27H951.24C774-1334.75,615.12-1256,506-1132.39V-732h908v-400.39C1304.88-1256,1146-1334.75,968.76-1337.27Z"/></clipPath><linearGradient id="linear-gradient" x1="17855.9" y1="-1409.55" x2="17855.9" y2="-3329.55" gradientTransform="translate(-1409.55 -17337.11) rotate(90)" gradientUnits="userSpaceOnUse"><stop offset="0" stop-color="#fff" stop-opacity="0"/><stop offset="0.51" stop-color="#fff"/><stop offset="1" stop-color="#fff" stop-opacity="0"/></linearGradient><linearGradient id="linear-gradient-2" x1="17753.06" y1="-1409.55" x2="17753.06" y2="-3329.55" xlink:href="#linear-gradient"/><linearGradient id="linear-gradient-3" x1="17616.52" y1="-1409.55" x2="17616.52" y2="-3329.55" xlink:href="#linear-gradient"/><linearGradient id="linear-gradient-4" x1="17804.48" y1="-1409.55" x2="17804.48" y2="-3329.55" xlink:href="#linear-gradient"/><linearGradient id="linear-gradient-5" x1="17799.35" y1="6654.45" x2="17799.35" y2="4734.45" gradientTransform="translate(-4734.45 17885.72) rotate(-90)" xlink:href="#linear-gradient"/><linearGradient id="linear-gradient-6" x1="16892.09" y1="6654.45" x2="16892.09" y2="4734.45" gradientTransform="translate(-4734.45 17885.72) rotate(-90)" xlink:href="#linear-gradient"/><linearGradient id="linear-gradient-7" x1="22251.32" y1="6234.44" x2="22251.32" y2="5154.44" gradientTransform="translate(-20417.72 -5154.44)" xlink:href="#linear-gradient"/><linearGradient id="linear-gradient-8" x1="20504.09" y1="6234.44" x2="20504.09" y2="5154.44" gradientTransform="translate(-20417.72 -5154.44)" xlink:href="#linear-gradient"/></defs><g id="Background"><rect class="cls-2" width="1920" height="1080"/><rect class="cls-3" width="1920" height="1080"/></g><g id="Graphic"><g class="cls-4"><image width="1080" height="1620" transform="translate(367.36 -1644.52) scale(1.12)" xlink:href="../../../../../../Dropbox/Shizaru/ZEEEN/Guideline/Social/Instagram/Photos/_H7A1258.jpg"/></g><path class="cls-5" d="M973.12,86.37H946.88c-265.64,3.77-503.66,121.73-667.18,307v600H1640.3v-600C1476.78,208.1,1238.76,90.14,973.12,86.37Z"/><line class="cls-6" y1="518.8" x2="1920" y2="518.8"/><line class="cls-7" y1="415.96" x2="1920" y2="415.96"/><line class="cls-8" y1="279.42" x2="1920" y2="279.42"/><line class="cls-9" y1="467.38" x2="1920" y2="467.38"/><rect class="cls-10" x="1310.87" y="415.54" width="103.26" height="25.82"/><rect class="cls-10" x="1310.87" y="492.98" width="103.26" height="25.82"/><rect class="cls-10" x="1306.25" y="454.28" width="112.54" height="25.82" transform="translate(13.62 972.34) rotate(-39.46)"/><line class="cls-11" x1="1920" y1="86.37" y2="86.37"/><line class="cls-12" x1="1920" y1="993.63" y2="993.63"/><line class="cls-13" x1="1833.6" y1="1080" x2="1833.6"/><line class="cls-14" x1="86.37" y1="1080" x2="86.37"/><rect class="cls-15" x="1833.6" width="86.37" height="21.59"/><rect class="cls-15" x="1833.6" y="64.78" width="86.37" height="21.59"/><rect class="cls-15" x="1829.74" y="32.41" width="94.13" height="21.59" transform="translate(400.26 1202.54) rotate(-39.46)"/><rect class="cls-15" width="86.37" height="21.59"/><rect class="cls-15" y="64.78" width="86.37" height="21.59"/><rect class="cls-15" x="-3.86" y="32.41" width="94.13" height="21.59" transform="translate(-17.61 37.3) rotate(-39.46)"/><rect class="cls-15" x="86.37" y="86.37" width="86.37" height="21.59"/><rect class="cls-15" x="86.37" y="151.15" width="86.37" height="21.59"/><rect class="cls-15" x="82.51" y="118.78" width="94.13" height="21.59" transform="translate(-52.81 111.87) rotate(-39.46)"/><rect class="cls-15" x="1833.6" y="993.63" width="86.37" height="21.59"/><rect class="cls-15" x="1833.6" y="1058.41" width="86.37" height="21.59"/><rect class="cls-15" x="1829.74" y="1026.04" width="94.13" height="21.59" transform="translate(-231.19 1428.98) rotate(-39.46)"/><rect class="cls-15" y="993.63" width="86.37" height="21.59"/><rect class="cls-15" y="1058.41" width="86.37" height="21.59"/><rect class="cls-15" x="-3.86" y="1026.04" width="94.13" height="21.59" transform="translate(-649.06 263.74) rotate(-39.46)"/></g><g id="Layer_1" data-name="Layer 1"><path class="cls-16" d="M1503.92,519h-1.4a4.4,4.4,0,0,1-4.24-2.45,8.09,8.09,0,0,1-.77-2.45,22.78,22.78,0,0,1-.25-2.7c0-2.47-.1-5-.15-7.65s-.2-5.2-.41-7.72l2.91-1.37q0,3.19.12,7.3t.19,8.53c0,.56,0,1.14.09,1.75a5.87,5.87,0,0,0,.39,1.65,3,3,0,0,0,.89,1.22,2.52,2.52,0,0,0,1.65.49h1Z"/><path class="cls-16" d="M1503.32,518.59a2.6,2.6,0,0,1-.24-1.26,2.71,2.71,0,0,1,.24-1.26c.16-.31.36-.46.6-.46h2.41a15.81,15.81,0,0,0,3-.24,11.71,11.71,0,0,0,2.26-.7c.68-.31,1.38-.65,2.1-1s1.54-.81,2.5-1.28a14.22,14.22,0,0,1-1.59-.54l-1.6-.63c-.51-.2-1-.37-1.41-.52a3.45,3.45,0,0,0-1-.23,2,2,0,0,0-1,.35,7.16,7.16,0,0,0-1.4,1.26l-1.93-1.09a9.18,9.18,0,0,1,.86-1.27,15.72,15.72,0,0,1,1.05-1.21,5.3,5.3,0,0,1,1.14-.91,2.33,2.33,0,0,1,1.19-.35,5.71,5.71,0,0,1,2.19.49l2.57,1.07a29.81,29.81,0,0,0,3.08,1.06,13.25,13.25,0,0,0,3.75.49h.66l-.7,3.09a12.94,12.94,0,0,0-1.89.13,14,14,0,0,0-1.72.39,2.29,2.29,0,0,0,1.37,1.42,8,8,0,0,0,2.21.26h2.73V519h-3a8.72,8.72,0,0,1-1.91-.18,3.49,3.49,0,0,1-1.38-.63,3.91,3.91,0,0,1-1-1.22,11.47,11.47,0,0,1-.86-2c-.91.49-1.72,1-2.42,1.45a23.81,23.81,0,0,1-2.13,1.3,11.78,11.78,0,0,1-2.45.93,13.92,13.92,0,0,1-3.36.35h-2.31A.7.7,0,0,1,1503.32,518.59Zm8.4,8.12-2.41-2.07,1.92-2.31,2.45,2.07Z"/><path class="cls-16" d="M1524.75,519a.7.7,0,0,1-.6-.42,2.6,2.6,0,0,1-.24-1.26,2.71,2.71,0,0,1,.24-1.26c.16-.31.36-.46.6-.46h1.47a4.8,4.8,0,0,0,2.43-.56,2.11,2.11,0,0,0,1-2v-1.48L1532,511a18.75,18.75,0,0,0,.09,1.94,3.53,3.53,0,0,0,.42,1.46,2.17,2.17,0,0,0,1,.91,4.08,4.08,0,0,0,1.76.31h1.37V519h-1.79c-2.12,0-3.56-.73-4.3-2.17a4,4,0,0,1-1.74,1.61,5.35,5.35,0,0,1-2.39.56Zm6-11.31-2.45-2.07,1.93-2.27,2.45,2Z"/><path class="cls-16" d="M1545.44,513.93c0,3.38-1.94,5.08-5.82,5.08h-3a.72.72,0,0,1-.6-.42,2.6,2.6,0,0,1-.24-1.26,2.72,2.72,0,0,1,.24-1.28.73.73,0,0,1,.6-.44h3.18c2,0,3-.47,3-1.4a2.25,2.25,0,0,0-.23-.89,8.49,8.49,0,0,0-.54-1,10,10,0,0,0-.7-1l-.7-.89,2.38-2.52a10.94,10.94,0,0,1,1.82,3.11A8.63,8.63,0,0,1,1545.44,513.93Zm-6.59,8.54,2.39,2-1.9,2.24-2.31-2Zm4.42,0,2.31,2-1.86,2.24-2.34-2Z"/><path class="cls-16" d="M1553,518.41l-2.31.67-.56-23.07,2.87-1.34Z"/><path class="cls-16" d="M1575.54,516.14a7.25,7.25,0,0,1-.78,3.3,13.37,13.37,0,0,1-2.07,2.95,22.34,22.34,0,0,1-2.94,2.64c-1.11.84-2.24,1.64-3.38,2.41l-2.34-2.17c1.07-.7,2.13-1.42,3.18-2.17a33.48,33.48,0,0,0,2.84-2.22,13.8,13.8,0,0,0,2-2.17,3.48,3.48,0,0,0,.77-2,3.8,3.8,0,0,0-.16-1,9,9,0,0,0-.45-1.28c-.2-.46-.43-.92-.69-1.4a10.21,10.21,0,0,0-.84-1.35l2.35-2.31a12.48,12.48,0,0,1,1,1.75,17.07,17.07,0,0,1,.77,1.8,14.63,14.63,0,0,1,.49,1.72A7,7,0,0,1,1575.54,516.14Z"/><path class="cls-16" d="M1591.58,513.72a6,6,0,0,1-.61,2.89,4.4,4.4,0,0,1-1.67,1.7,7.14,7.14,0,0,1-2.45.8,20.32,20.32,0,0,1-3,.21,8.71,8.71,0,0,1-2.8-.4,5.25,5.25,0,0,1-2.14-1.42l1.41-2.62a5.93,5.93,0,0,0,3.64,1,13.08,13.08,0,0,0,3.83-.44q1.35-.43,1.35-1.38c0-1.73-1.84-3.79-5.5-6.17l1.37-3.29a19.55,19.55,0,0,1,2.32,1.68,14.62,14.62,0,0,1,2.12,2.19A11.85,11.85,0,0,1,1591,511,6.61,6.61,0,0,1,1591.58,513.72Z"/><path class="cls-16" d="M1610.52,529.26a10,10,0,0,1-3.45-.56,7.24,7.24,0,0,1-2.66-1.62,7.48,7.48,0,0,1-1.72-2.59,9.49,9.49,0,0,1-.61-3.49,9.81,9.81,0,0,1,.49-3.1,16.46,16.46,0,0,1,1.4-3.06l2.21.88a5.85,5.85,0,0,0-.56,1.12c-.17.42-.31.84-.44,1.27a11.24,11.24,0,0,0-.3,1.25,5.81,5.81,0,0,0-.1,1q0,5.53,6.19,5.53a14,14,0,0,0,2.89-.28,16.43,16.43,0,0,0,2.38-.66,10.75,10.75,0,0,0,1.67-.77,2.75,2.75,0,0,0,.73-.56.28.28,0,0,0-.19-.23l-.37-.12-3-.74a5.87,5.87,0,0,1-1-.28,3.76,3.76,0,0,1-.82-.43,2,2,0,0,1-.58-.69,2.34,2.34,0,0,1-.21-1q0-4.49,6.73-4.48h2.8V519l-1.61,0-1.63,0h-1.45c-.45,0-.82,0-1.12,0-.8.07-1.2.24-1.2.52a.32.32,0,0,0,.13.23,1.31,1.31,0,0,0,.58.23l3.18.73a4.53,4.53,0,0,1,1.68.79,2,2,0,0,1,.63,1.66,3.59,3.59,0,0,1-1.07,2.54,9.17,9.17,0,0,1-2.67,1.93,16.15,16.15,0,0,1-3.47,1.2A15.63,15.63,0,0,1,1610.52,529.26Z"/><path class="cls-16" d="M1636.15,516.77a4.2,4.2,0,0,1-1.7,1.64,4.69,4.69,0,0,1-2.26.6,4.45,4.45,0,0,1-4.31-2.24,3.92,3.92,0,0,1-1.69,1.68,4.94,4.94,0,0,1-2.23.56h-2a.7.7,0,0,1-.6-.42,2.6,2.6,0,0,1-.24-1.26,2.71,2.71,0,0,1,.24-1.26c.16-.31.36-.46.6-.46h1.82a5.2,5.2,0,0,0,1.17-.14,3.38,3.38,0,0,0,1-.42,2.25,2.25,0,0,0,.74-.73,2.13,2.13,0,0,0,.28-1.09v-1.65l2.31-.59a17.23,17.23,0,0,0,.09,1.85,4.59,4.59,0,0,0,.36,1.46,2.17,2.17,0,0,0,.86,1,3.05,3.05,0,0,0,1.56.35,3.48,3.48,0,0,0,2.19-.66,2.39,2.39,0,0,0,.86-2v-1.37l2.31-.59c0,.68,0,1.3.07,1.87a4.18,4.18,0,0,0,.36,1.47,2.13,2.13,0,0,0,.88.95,3.31,3.31,0,0,0,1.63.33,2.44,2.44,0,0,0,1.55-.4,1.23,1.23,0,0,0,.51-1,2.61,2.61,0,0,0-.19-.93,7.37,7.37,0,0,0-.49-1q-.3-.53-.63-1c-.22-.32-.44-.61-.65-.87l2.38-2.52a9.64,9.64,0,0,1,1.72,3.13,10.33,10.33,0,0,1,.49,3,5.32,5.32,0,0,1-1.19,3.54,4.41,4.41,0,0,1-3.29,1.5,3.83,3.83,0,0,1-.67,0l-.59,0a4.7,4.7,0,0,1-2-.74A4.08,4.08,0,0,1,1636.15,516.77Z"/><path class="cls-16" d="M1655.72,516.14a7.26,7.26,0,0,1-.79,3.3,13.37,13.37,0,0,1-2.07,2.95,22.34,22.34,0,0,1-2.94,2.64c-1.11.84-2.23,1.64-3.38,2.41l-2.34-2.17c1.07-.7,2.13-1.42,3.18-2.17a33.48,33.48,0,0,0,2.84-2.22,13.34,13.34,0,0,0,2-2.17,3.48,3.48,0,0,0,.77-2,3.8,3.8,0,0,0-.16-1,7.89,7.89,0,0,0-.45-1.28c-.2-.46-.43-.92-.69-1.4a10.21,10.21,0,0,0-.84-1.35l2.35-2.31a12.48,12.48,0,0,1,1,1.75,17.07,17.07,0,0,1,.77,1.8,14.63,14.63,0,0,1,.49,1.72A7,7,0,0,1,1655.72,516.14Z"/><path class="cls-16" d="M1667.51,519h-1.4a4.4,4.4,0,0,1-4.23-2.45,7.82,7.82,0,0,1-.77-2.45,20.85,20.85,0,0,1-.25-2.7q-.08-3.71-.16-7.65c0-2.63-.19-5.2-.4-7.72l2.91-1.37q0,3.19.12,7.3t.19,8.53c0,.56,0,1.14.09,1.75a5.87,5.87,0,0,0,.39,1.65,2.93,2.93,0,0,0,.89,1.22,2.47,2.47,0,0,0,1.64.49h1Z"/><path class="cls-16" d="M1667.51,519a.69.69,0,0,1-.59-.42,2.48,2.48,0,0,1-.25-1.26,2.58,2.58,0,0,1,.25-1.26c.16-.31.36-.46.59-.46h3.43a15.58,15.58,0,0,0,1.7-.09,7.39,7.39,0,0,0,1.47-.28,3.2,3.2,0,0,0,1.05-.49,1.09,1.09,0,0,0,.48-.68,3.12,3.12,0,0,0,0-1.12,5.72,5.72,0,0,1-1.38.49,7.18,7.18,0,0,1-1.38.14,3.32,3.32,0,0,1-3.51-3.54,7.1,7.1,0,0,1,.32-2.08,6.17,6.17,0,0,1,.89-1.82,5,5,0,0,1,1.37-1.28,3.32,3.32,0,0,1,1.77-.49,2.85,2.85,0,0,1,2.17.91,6.8,6.8,0,0,1,1.33,2.24,12.89,12.89,0,0,1,.66,2.82,22.23,22.23,0,0,1,.18,2.65q0,3.18-1.81,4.6a8.16,8.16,0,0,1-5.13,1.42Zm5.85-17.12-2.45-2.07,1.92-2.27,2.46,2Zm-.11,8.82a3.41,3.41,0,0,0,2.11-.63,7,7,0,0,0-.76-1.91,1.42,1.42,0,0,0-1.24-.79,1.52,1.52,0,0,0-1.23.62,2,2,0,0,0-.49,1.27,1.37,1.37,0,0,0,.44,1A1.65,1.65,0,0,0,1673.25,510.71Z"/><path class="cls-16" d="M1701.09,513.86a3.94,3.94,0,0,1-.23,1.23,4.34,4.34,0,0,1-.65,1.22,4.11,4.11,0,0,1-1,1,2.34,2.34,0,0,1-1.31.38h-4.41a2.35,2.35,0,0,0-1.24.28,2,2,0,0,0-.69.79,3.37,3.37,0,0,0-.29,1.22c0,.48-.06,1-.06,1.6v11.9h-2.41c0-2.73-.08-4.88-.11-6.46s0-2.78,0-3.6,0-1.38,0-1.63v-.53a11.25,11.25,0,0,1,.74-4.51,3.67,3.67,0,0,1,2.34-2.14,12.51,12.51,0,0,1,.18-2,8.9,8.9,0,0,1,.59-2.08,4.71,4.71,0,0,1,1.13-1.63,2.48,2.48,0,0,1,1.75-.65,4.66,4.66,0,0,1,2.08.51,7.08,7.08,0,0,1,1.84,1.31,7.27,7.27,0,0,1,1.31,1.81A4.35,4.35,0,0,1,1701.09,513.86Zm-2.66.18a2,2,0,0,0-.32-.81,4.63,4.63,0,0,0-.7-.86,4.44,4.44,0,0,0-.93-.68,2,2,0,0,0-1-.28,1,1,0,0,0-.69.26,2.18,2.18,0,0,0-.42.68,4.28,4.28,0,0,0-.22.95,7.41,7.41,0,0,0-.07,1.05l.91,0c.32,0,.64,0,1,0h1.56C1698.1,514.42,1698.4,514.29,1698.43,514Z"/><path class="cls-16" d="M1715,514.74a10.14,10.14,0,0,1-.83,4.14,13.08,13.08,0,0,1-2.18,3.42,19.68,19.68,0,0,1-3.17,2.82,36.29,36.29,0,0,1-3.77,2.32l-2.27-2.13c.77-.44,1.65-1,2.66-1.59a33.87,33.87,0,0,0,2.92-2,19.27,19.27,0,0,0,2.5-2.3,5.41,5.41,0,0,0,1.37-2.41,3.28,3.28,0,0,1-.86.35,6.27,6.27,0,0,1-1.59.17,4.41,4.41,0,0,1-2.75-.84,3.09,3.09,0,0,1-1.1-2.62,8.19,8.19,0,0,1,.3-2.11,7.69,7.69,0,0,1,.87-2.06,5.81,5.81,0,0,1,1.38-1.56,2.94,2.94,0,0,1,1.82-.61,3.43,3.43,0,0,1,2.09.66,5.68,5.68,0,0,1,1.47,1.68,8.48,8.48,0,0,1,.86,2.26A11.49,11.49,0,0,1,1715,514.74Zm-2.8-.88a4.32,4.32,0,0,0-.7-2,1.74,1.74,0,0,0-1.48-.79,1.47,1.47,0,0,0-1.22.68,2.25,2.25,0,0,0-.49,1.32c0,.88.62,1.33,1.85,1.33a5,5,0,0,0,1.07-.13A2.8,2.8,0,0,0,1712.19,513.86Z"/><path class="cls-16" d="M1731.06,513.72a5.93,5.93,0,0,1-.62,2.89,4.38,4.38,0,0,1-1.66,1.7,7.21,7.21,0,0,1-2.45.8,20.32,20.32,0,0,1-3,.21,8.67,8.67,0,0,1-2.8-.4,5.13,5.13,0,0,1-2.14-1.42l1.4-2.62a6,6,0,0,0,3.64,1,13.1,13.1,0,0,0,3.84-.44c.9-.29,1.34-.75,1.34-1.38q0-2.6-5.49-6.17l1.36-3.29a19.63,19.63,0,0,1,2.33,1.68,15.13,15.13,0,0,1,2.12,2.19,12.26,12.26,0,0,1,1.54,2.56A6.61,6.61,0,0,1,1731.06,513.72Z"/><path class="cls-16" d="M1757.24,506.82c.09-1.89.35-3,.77-3.25,1.85-1.26,3.91-2.52,6.2-3.78s4.89-2.55,7.81-3.85l-.42,3.53c-2.45,1-4.61,2-6.46,3s-3.49,1.94-4.89,2.85a45,45,0,0,1,4.27,4c1.36,1.45,2.79,2.91,4.31,4.38a7.17,7.17,0,0,0,1.91,1.43,4.26,4.26,0,0,0,1.84.42h1.64V519h-1.5a7.77,7.77,0,0,1-2.16-.27,5.63,5.63,0,0,1-1.83-.92,13.18,13.18,0,0,1-2-1.82c-.69-.77-1.51-1.74-2.47-2.91a4.16,4.16,0,0,1-.14,1.23,4.33,4.33,0,0,1-.56,1.82,4.73,4.73,0,0,1-1.19,1.34,6.9,6.9,0,0,1-1.68,1,11.17,11.17,0,0,1-2,.59,34.8,34.8,0,0,1-6.93.74c-1.24,0-2.47-.06-3.69-.16a11.44,11.44,0,0,1-3.29-.74,5.46,5.46,0,0,1-2.35-1.71,5,5,0,0,1-.89-3.13,6.55,6.55,0,0,1,.35-2,7,7,0,0,1,1-2l2.1.77a6.22,6.22,0,0,0-.77,2.31,2.77,2.77,0,0,0,.35,1.54,2.47,2.47,0,0,0,1.18,1,7.08,7.08,0,0,0,1.87.52,19.37,19.37,0,0,0,2.27.2l2.42,0a24.58,24.58,0,0,0,7.09-.84c1.81-.56,2.81-1.31,3-2.24a3.71,3.71,0,0,0-.49-1.52,8.86,8.86,0,0,0-1.1-1.54,17.5,17.5,0,0,0-1.61-1.63Zm11-11.44c-1.54.74-3.19,1.61-4.94,2.59s-3.57,2.06-5.46,3.25l.28-2q3-2,5.59-3.45t4.78-2.58Z"/><path class="cls-16" d="M1774.22,519a.69.69,0,0,1-.59-.42,2.48,2.48,0,0,1-.25-1.26,2.58,2.58,0,0,1,.25-1.26c.16-.31.36-.46.59-.46h1.47a4.87,4.87,0,0,0,2.44-.56,2.11,2.11,0,0,0,1-2v-1.48l2.34-.59a18.75,18.75,0,0,0,.09,1.94,3.86,3.86,0,0,0,.42,1.46,2.22,2.22,0,0,0,1,.91,4.1,4.1,0,0,0,1.77.31h1.37V519h-1.79c-2.12,0-3.56-.73-4.31-2.17a3.92,3.92,0,0,1-1.73,1.61,5.42,5.42,0,0,1-2.4.56Zm6-11.31-2.45-2.07,1.92-2.27,2.45,2Z"/><path class="cls-16" d="M1794.91,513.93c0,3.38-1.93,5.08-5.81,5.08h-3a.7.7,0,0,1-.6-.42,2.59,2.59,0,0,1-.25-1.26,2.71,2.71,0,0,1,.25-1.28.7.7,0,0,1,.6-.44h3.18c2,0,3-.47,3-1.4a2.25,2.25,0,0,0-.23-.89,8.49,8.49,0,0,0-.54-1,11.82,11.82,0,0,0-.7-1l-.7-.89,2.38-2.52a11.18,11.18,0,0,1,1.82,3.11A8.83,8.83,0,0,1,1794.91,513.93Zm-6.58,8.54,2.38,2-1.89,2.24-2.31-2Zm4.41,0,2.31,2-1.85,2.24-2.35-2Z"/><path class="cls-16" d="M1815.57,519h-1.44a5.82,5.82,0,0,1-1.43-.16,3.3,3.3,0,0,1-1.09-.51,4.06,4.06,0,0,1-.89-.91,12.49,12.49,0,0,1-.82-1.33,6,6,0,0,1-1.12,1.65,4.88,4.88,0,0,1-1.42,1,6.34,6.34,0,0,1-1.79.47,18.24,18.24,0,0,1-2.18.12,10.16,10.16,0,0,1-2.93-.38,5,5,0,0,1-2.08-1.23l1.5-2.8a4.4,4.4,0,0,0,1.33.63,8.72,8.72,0,0,0,1.65.28H1804a7,7,0,0,0,1-.07,7.22,7.22,0,0,0,2-.37,1.79,1.79,0,0,0,1.08-.89,1.92,1.92,0,0,0,.28-1,2.77,2.77,0,0,0-.12-.68c-.08-.29-.23-.74-.44-1.33s-.51-1.37-.91-2.33l-1.54-3.71,2.14-2.38,3.32,8.71a11.14,11.14,0,0,0,1.46,2.89,2.22,2.22,0,0,0,1.83,1h1.37Z"/><path class="cls-16" d="M1819.45,515.61a3,3,0,0,1-1.78-2.77,5,5,0,0,1,.91-2.76,6.64,6.64,0,0,1,2.69-2.28l-1-.66,1.37-3c1.31.91,2.54,1.82,3.71,2.73a26.51,26.51,0,0,1,3.08,2.8,13,13,0,0,1,2.1,3,6.88,6.88,0,0,1,.62,4.59,4.1,4.1,0,0,1-.53,1.31,3.07,3.07,0,0,1-1,1,2.44,2.44,0,0,1-1.41.39,4.21,4.21,0,0,1-1.19-.21,15.42,15.42,0,0,1-1.46-.53c-.5-.21-1-.42-1.45-.65L1823,518a7.35,7.35,0,0,1-2.21.8,12.56,12.56,0,0,1-2.56.25h-2.62a.71.71,0,0,1-.6-.42,2.6,2.6,0,0,1-.24-1.26,2.71,2.71,0,0,1,.24-1.26c.17-.31.36-.46.6-.46Zm4.59-3.36a3.42,3.42,0,0,0-.4-1.66,1.22,1.22,0,0,0-1.1-.76,1.8,1.8,0,0,0-.86.25,3.91,3.91,0,0,0-.81.61,3.49,3.49,0,0,0-.59.81,1.76,1.76,0,0,0-.23.85,1.2,1.2,0,0,0,.3.76,3.69,3.69,0,0,0,.7.66,4.48,4.48,0,0,0,.84.49,1.91,1.91,0,0,0,.75.2.89.89,0,0,0,.58-.23,2.24,2.24,0,0,0,.45-.58,2.76,2.76,0,0,0,.28-.72A2.83,2.83,0,0,0,1824,512.25Zm2-.42a6.89,6.89,0,0,1-.28,2.17,4.22,4.22,0,0,1-.94,1.54,4.41,4.41,0,0,0,.7.4c.3.16.61.3.92.44s.61.26.88.35a2.18,2.18,0,0,0,.58.14.67.67,0,0,0,.64-.33,1.39,1.39,0,0,0,.2-.72,3.32,3.32,0,0,0-.84-2A15.81,15.81,0,0,0,1826.07,511.83Z"/><path class="cls-16" d="M1709.21,555.73a5.91,5.91,0,0,1-.61,2.89,4.31,4.31,0,0,1-1.66,1.7,7.05,7.05,0,0,1-2.46.8,20.22,20.22,0,0,1-3,.21,8.76,8.76,0,0,1-2.8-.4,5.16,5.16,0,0,1-2.13-1.42l1.4-2.62a5.93,5.93,0,0,0,3.64,1,13,13,0,0,0,3.83-.44q1.35-.43,1.35-1.38,0-2.59-5.5-6.16l1.37-3.3a19.45,19.45,0,0,1,2.33,1.69,15.08,15.08,0,0,1,2.12,2.18,12.26,12.26,0,0,1,1.54,2.56A6.76,6.76,0,0,1,1709.21,555.73Z"/><path class="cls-16" d="M1719.19,560.21a7.45,7.45,0,0,1-.86,3.19,12.44,12.44,0,0,1-2.07,2.85,24.18,24.18,0,0,1-2.88,2.58c-1.08.81-2.17,1.59-3.29,2.34l-2.35-2.17c1.07-.7,2.14-1.42,3.19-2.17s2-1.49,2.83-2.22a13.34,13.34,0,0,0,2-2.17,3.43,3.43,0,0,0,.77-2,4.32,4.32,0,0,0-.15-1,9.46,9.46,0,0,0-.46-1.27c-.2-.46-.43-.93-.68-1.4a12.84,12.84,0,0,0-.84-1.35l2.34-2.35c.49.8.92,1.48,1.3,2a10.67,10.67,0,0,0,1.08,1.42,3.69,3.69,0,0,0,1.07.82,2.68,2.68,0,0,0,1.21.26h1.29V561h-1.12A3.57,3.57,0,0,1,1719.19,560.21Z"/><path class="cls-16" d="M1722.72,561a.69.69,0,0,1-.59-.42,2.59,2.59,0,0,1-.25-1.26,2.7,2.7,0,0,1,.25-1.26c.16-.31.36-.46.59-.46h1.47a4.74,4.74,0,0,0,2.44-.56,2.11,2.11,0,0,0,1-2V553.6l2.35-.6a18.83,18.83,0,0,0,.08,1.94,3.8,3.8,0,0,0,.42,1.46,2.27,2.27,0,0,0,1,.91,4.13,4.13,0,0,0,1.77.31h1.37V561h-1.79c-2.12,0-3.56-.72-4.3-2.17a3.94,3.94,0,0,1-1.74,1.61,5.42,5.42,0,0,1-2.4.56Zm3.26,3.46,2.38,2-1.89,2.24-2.31-2Zm4.41,0,2.31,2-1.85,2.24-2.35-2Z"/><path class="cls-16" d="M1736.31,548.83c.14-1.89.39-3,.77-3.25,1.84-1.26,3.91-2.52,6.19-3.78s4.91-2.55,7.85-3.85l-.46,3.53q-3.67,1.54-6.46,3t-4.85,2.86a16.14,16.14,0,0,1,3.61,3.93A7.2,7.2,0,0,1,1744,555a6,6,0,0,1-.54,2.58,5.37,5.37,0,0,1-1.5,1.9,6.85,6.85,0,0,1-2.24,1.18,9.42,9.42,0,0,1-2.75.4h-2.45a.71.71,0,0,1-.6-.42,2.6,2.6,0,0,1-.24-1.26,2.71,2.71,0,0,1,.24-1.26c.17-.31.36-.46.6-.46h2.73a6.4,6.4,0,0,0,3-.59,2.11,2.11,0,0,0,1.21-1.72,3.38,3.38,0,0,0-.46-1.52,8.52,8.52,0,0,0-1.12-1.54,20.63,20.63,0,0,0-1.62-1.63Zm11.06-11.44c-1.54.74-3.19,1.61-4.95,2.59s-3.58,2.06-5.45,3.25l.25-2q3-2,5.6-3.45t4.8-2.57Z"/><path class="cls-16" d="M1757.84,571.28a10.23,10.23,0,0,1-3.45-.56,7.22,7.22,0,0,1-4.38-4.22,9.49,9.49,0,0,1-.61-3.49,9.7,9.7,0,0,1,.49-3.09,16.24,16.24,0,0,1,1.4-3.07l2.21.88a5.85,5.85,0,0,0-.56,1.12c-.17.42-.31.84-.44,1.28a10.59,10.59,0,0,0-.3,1.24,5.9,5.9,0,0,0-.1,1q0,5.54,6.19,5.54a14.68,14.68,0,0,0,2.89-.28,16.37,16.37,0,0,0,2.38-.67,9.89,9.89,0,0,0,1.67-.77,2.55,2.55,0,0,0,.73-.56.28.28,0,0,0-.19-.23l-.37-.12-3.05-.74a5.5,5.5,0,0,1-1-.28,3.62,3.62,0,0,1-.83-.43,2,2,0,0,1-.58-.69,2.34,2.34,0,0,1-.21-1c0-3,2.24-4.48,6.73-4.48h2.8V561l-1.61,0-1.63,0h-1.45c-.45,0-.82,0-1.12,0-.8.07-1.19.24-1.19.52a.35.35,0,0,0,.12.23,1.31,1.31,0,0,0,.58.23l3.18.73a4.53,4.53,0,0,1,1.68.79,2,2,0,0,1,.63,1.67,3.58,3.58,0,0,1-1.07,2.53,9.17,9.17,0,0,1-2.67,1.93,16.17,16.17,0,0,1-3.47,1.21A15.63,15.63,0,0,1,1757.84,571.28Z"/><path class="cls-16" d="M1769.29,561a.71.71,0,0,1-.62-.44,2.75,2.75,0,0,1-.22-1.24,2.88,2.88,0,0,1,.22-1.26.7.7,0,0,1,.62-.46h.52a12,12,0,0,0,2.52-.24,2.6,2.6,0,0,0,1.75-1.4c.4-.7.79-1.38,1.18-2a13.54,13.54,0,0,1,1.19-1.74,5.81,5.81,0,0,1,1.26-1.19,2.42,2.42,0,0,1,1.38-.43,2.78,2.78,0,0,1,1.82.63,5.43,5.43,0,0,1,1.3,1.62A8.61,8.61,0,0,1,1783,555a11.94,11.94,0,0,1,.24,2.35,4,4,0,0,1-.23,1.26,4.5,4.5,0,0,1-.63,1.21,3.53,3.53,0,0,1-1,.89,2.23,2.23,0,0,1-1.19.35,4.86,4.86,0,0,1-1.21-.18,9,9,0,0,1-1.38-.47,12.46,12.46,0,0,1-1.37-.68,9.55,9.55,0,0,1-1.15-.77,5.64,5.64,0,0,1-2.09,1.57,6.83,6.83,0,0,1-2.67.46Zm11.37-4a4.13,4.13,0,0,0-.15-1.08,4.94,4.94,0,0,0-.41-1,2.62,2.62,0,0,0-.59-.75,1.25,1.25,0,0,0-.7-.33.63.63,0,0,0-.35,0q-.87.32-1.89,2.52a4,4,0,0,0,.8.53c.33.16.66.31,1,.45s.66.25,1,.34a3.09,3.09,0,0,0,.74.12.58.58,0,0,0,.4-.18A.8.8,0,0,0,1780.66,557.06Z"/><path class="cls-16" d="M1799.75,558.15a7.3,7.3,0,0,1-.79,3.31,13.55,13.55,0,0,1-2.07,2.94A22.34,22.34,0,0,1,1794,567c-1.11.84-2.23,1.65-3.38,2.42l-2.34-2.17c1.07-.7,2.13-1.43,3.18-2.17a35.65,35.65,0,0,0,2.84-2.23,12.94,12.94,0,0,0,2-2.17,3.48,3.48,0,0,0,.77-2,3.8,3.8,0,0,0-.16-1,9.43,9.43,0,0,0-.45-1.28c-.2-.45-.43-.92-.69-1.4a10.21,10.21,0,0,0-.84-1.35l2.35-2.31a13.08,13.08,0,0,1,1,1.75,17.07,17.07,0,0,1,.77,1.8,14.63,14.63,0,0,1,.49,1.72A7.08,7.08,0,0,1,1799.75,558.15Z"/><path class="cls-16" d="M1807.2,560.42l-2.31.67-.56-23.07,2.87-1.33Z"/><path class="cls-16" d="M1817.21,560.21a7.44,7.44,0,0,1-.85,3.19,13.07,13.07,0,0,1-2.07,2.85,23.53,23.53,0,0,1-2.89,2.58c-1.07.81-2.17,1.59-3.29,2.34l-2.34-2.17c1.07-.7,2.13-1.42,3.18-2.17s2-1.49,2.84-2.22a13.8,13.8,0,0,0,2-2.17,3.5,3.5,0,0,0,.77-2,3.92,3.92,0,0,0-.16-1,9.33,9.33,0,0,0-.45-1.27c-.2-.46-.43-.93-.69-1.4a10.21,10.21,0,0,0-.84-1.35l2.35-2.35c.49.8.92,1.48,1.29,2a11.58,11.58,0,0,0,1.09,1.42,3.56,3.56,0,0,0,1.07.82,2.65,2.65,0,0,0,1.21.26h1.29V561h-1.12A3.59,3.59,0,0,1,1817.21,560.21Z"/><path class="cls-16" d="M1820.75,561a.69.69,0,0,1-.59-.42,2.48,2.48,0,0,1-.25-1.26,2.58,2.58,0,0,1,.25-1.26c.16-.31.36-.46.59-.46h3.43c.58,0,1.15,0,1.7-.08a8.14,8.14,0,0,0,1.47-.29,3.42,3.42,0,0,0,1.05-.48,1.07,1.07,0,0,0,.47-.69,3.3,3.3,0,0,0,0-1.12,5.26,5.26,0,0,1-1.39.49,6.34,6.34,0,0,1-1.38.14,3.3,3.3,0,0,1-3.5-3.53A7.17,7.17,0,0,1,1823,550a6.05,6.05,0,0,1,.89-1.82,4.82,4.82,0,0,1,1.36-1.27,3.29,3.29,0,0,1,1.77-.5,2.84,2.84,0,0,1,2.17.91,6.58,6.58,0,0,1,1.33,2.25,12.15,12.15,0,0,1,.67,2.81,24.64,24.64,0,0,1,.17,2.65c0,2.12-.6,3.66-1.8,4.6a8.1,8.1,0,0,1-5.13,1.42Zm3.75-17.09-2.35-2,1.82-2.2,2.38,2Zm2,8.79a3.4,3.4,0,0,0,2.1-.63,7,7,0,0,0-.75-1.91,1.42,1.42,0,0,0-1.24-.78,1.51,1.51,0,0,0-1.23.61,2,2,0,0,0-.49,1.28,1.34,1.34,0,0,0,.44,1A1.65,1.65,0,0,0,1826.49,552.72Zm2.35-8.79-2.35-2,1.89-2.2,2.31,2Z"/><path class="cls-16" d="M1201.54,331.3a9.85,9.85,0,0,1-5.25-1.22,8.31,8.31,0,0,1-3-3.22,13.63,13.63,0,0,1-1.4-4.55,44.81,44.81,0,0,1-.42-5.22q-.15-3.22-.21-7.21t-.18-8.2q-.1-4.2-.28-8.4t-.45-7.84l6.51-3.15q0,3.91,0,8.09c0,2.77.07,5.54.14,8.29s.14,5.49.21,8.2.13,5.27.18,7.7c0,1.12,0,2.2.07,3.25a9.72,9.72,0,0,0,.49,2.8,3.9,3.9,0,0,0,1.36,1.93,4.74,4.74,0,0,0,2.84.7h2.8v8.05Z"/><path class="cls-16" d="M1239.07,331.3a21.49,21.49,0,0,1-3.71-.28,7,7,0,0,1-2.8-1.08,8.07,8.07,0,0,1-2.17-2.28,16.8,16.8,0,0,1-1.82-3.92l-4.59,3.05a36.68,36.68,0,0,1-4.17,2.38,22.05,22.05,0,0,1-4.44,1.57,23.19,23.19,0,0,1-5.43.56h-5q-.77,0-1.26-1.08a7.13,7.13,0,0,1-.49-2.91,7.38,7.38,0,0,1,.49-2.94c.33-.75.75-1.12,1.26-1.12h5.18a31.21,31.21,0,0,0,4.87-.31,17.77,17.77,0,0,0,3.78-1.06,33.25,33.25,0,0,0,4-1.89q2.1-1.15,5.32-2.83l-3.19-1-2.9-.91c-.89-.28-1.66-.52-2.32-.7a5.73,5.73,0,0,0-1.47-.28,3.59,3.59,0,0,0-1.82.66,16,16,0,0,0-3,3.05l-4.48-2.59a31.13,31.13,0,0,1,4.41-6.16q2.39-2.52,4.76-2.52a12.72,12.72,0,0,1,4.06.8l5.08,1.75c1.85.63,3.82,1.22,5.92,1.75a26.63,26.63,0,0,0,6.65.81H1242l-1.54,7.14a22.57,22.57,0,0,0-4,.49,16.93,16.93,0,0,0-3.46,1.12,11,11,0,0,0,1.15,1.54,3.46,3.46,0,0,0,1.12.81,4.25,4.25,0,0,0,1.33.28c.49,0,1.07,0,1.72,0h6.86v8.05Zm-18.84,13.87-5.32-4.55,4.27-5.05,5.33,4.49Z"/><path class="cls-16" d="M1264.84,331.3a11.17,11.17,0,0,1-4.76-.91,7.68,7.68,0,0,1-3.29-3,9,9,0,0,1-3.51,3,11.9,11.9,0,0,1-5,.94h-3q-.76,0-1.26-1.08a7.3,7.3,0,0,1-.49-2.91,7.57,7.57,0,0,1,.49-2.94c.33-.75.75-1.12,1.26-1.12h2.87a21.08,21.08,0,0,0,2.91-.17,4.37,4.37,0,0,0,1.89-.7,3,3,0,0,0,1.08-1.48,7.74,7.74,0,0,0,.42-2.41v-2.94l5.82-1.47c0,1.73,0,3.17.17,4.34a7.81,7.81,0,0,0,.74,2.83,3.23,3.23,0,0,0,1.61,1.55,7.43,7.43,0,0,0,2.87.45h3.29v8.05Zm-7.91-21-5.33-4.48,4.28-5.05,5.32,4.49Z"/><path class="cls-16" d="M1266.8,345.38l-5.11-4.34,4.06-4.84,5.18,4.28Zm10.92-24a3.4,3.4,0,0,0-.31-1.19,16,16,0,0,0-.91-1.79c-.4-.67-.84-1.38-1.33-2.13s-1-1.47-1.58-2.17l5.25-5.53a22.51,22.51,0,0,1,3.92,6.47,17.16,17.16,0,0,1,1.26,6q0,5-2.8,7.67t-8.61,2.62h-3.71c-.51,0-.94-.36-1.26-1.08a7.13,7.13,0,0,1-.49-2.91,7.38,7.38,0,0,1,.49-2.94c.32-.75.75-1.12,1.26-1.12h3.71a12.45,12.45,0,0,0,3.71-.45C1277.25,322.49,1277.72,322,1277.72,321.36Zm-2,24-5.11-4.34,4.06-4.84,5.11,4.28Z"/><path class="cls-16" d="M1298.94,330.18l-6.59,1.47V285.44l6.59-3.15Z"/><path class="cls-16" d="M1336.89,324.44a14.47,14.47,0,0,1-1.4,6.2,24.41,24.41,0,0,1-3.82,5.7,42.79,42.79,0,0,1-5.71,5.33q-3.29,2.58-7.14,5l-5.39-5.11c2.57-1.54,4.92-3.09,7.07-4.63a53.53,53.53,0,0,0,5.46-4.41,24.62,24.62,0,0,0,3.5-3.92,4.73,4.73,0,0,0,.91-5,22.46,22.46,0,0,0-.94-2.39,26.09,26.09,0,0,0-1.44-2.66c-.56-.91-1.14-1.8-1.75-2.69l5.25-5.25a33,33,0,0,1,4.17,7.66A18.68,18.68,0,0,1,1336.89,324.44Z"/><path class="cls-16" d="M1369.3,320.59a12.27,12.27,0,0,1-1.19,5.81,9,9,0,0,1-3.18,3.5,12.24,12.24,0,0,1-4.69,1.68,36.67,36.67,0,0,1-5.64.42,17.38,17.38,0,0,1-5.81-.87,13.25,13.25,0,0,1-4.9-3.4l3.5-6.09a11.5,11.5,0,0,0,3.36,1.75,14,14,0,0,0,4.2.56,20,20,0,0,0,6.34-.8c1.51-.54,2.27-1.23,2.27-2.07,0-1.17-.84-2.75-2.52-4.76a38.66,38.66,0,0,0-8.26-6.79l3.15-7.5a36.07,36.07,0,0,1,4.87,3.54,30.06,30.06,0,0,1,4.3,4.52,23.76,23.76,0,0,1,3.05,5.14A13.55,13.55,0,0,1,1369.3,320.59Z"/><path class="cls-16" d="M1425.81,331.3c-1.64,0-3.14-.11-4.52-.21s-2.34-.14-2.9-.14a5.23,5.23,0,0,0-2,.28c-.39.19-.59.4-.59.63a.58.58,0,0,0,.28.53,4.9,4.9,0,0,0,1.26.38l4.76.91a8.45,8.45,0,0,1,3.46,1.33,3.35,3.35,0,0,1,1.23,2.87,7.72,7.72,0,0,1-1.86,5.05,15.39,15.39,0,0,1-4.79,3.78,27.79,27.79,0,0,1-6.58,2.38,31.75,31.75,0,0,1-7.15.84,20.6,20.6,0,0,1-6.75-1.05,14.28,14.28,0,0,1-5.18-3.05,13.51,13.51,0,0,1-3.33-5A18.53,18.53,0,0,1,1390,334a19.49,19.49,0,0,1,1-6.58,37.74,37.74,0,0,1,3.08-6.37l5,2a31.56,31.56,0,0,0-2.31,5.46,15,15,0,0,0-.7,4.2,8.57,8.57,0,0,0,2.84,6.9q2.83,2.41,8.22,2.42a30.92,30.92,0,0,0,4.52-.32,35.83,35.83,0,0,0,3.85-.77,23.16,23.16,0,0,0,3-1c.84-.35,1.49-.64,2-.87a5.13,5.13,0,0,0-2.24-.7l-3.64-.78a7.87,7.87,0,0,1-3.68-1.61,4.81,4.81,0,0,1-1.44-3.92,7.63,7.63,0,0,1,3.12-6.51q3.12-2.31,9.7-2.31h4.55v8.05Z"/><path class="cls-16" d="M1454.52,327a9.76,9.76,0,0,1-3.22,3.15,9.5,9.5,0,0,1-4.9,1.12,11.57,11.57,0,0,1-4.87-.87,7.37,7.37,0,0,1-3.19-3.33,8.49,8.49,0,0,1-3.32,3.22,8.72,8.72,0,0,1-4,1h-4.2q-.76,0-1.26-1.08a7.13,7.13,0,0,1-.49-2.91,7.38,7.38,0,0,1,.49-2.94c.33-.75.75-1.12,1.26-1.12h3.92a8.08,8.08,0,0,0,3.68-.8,2.92,2.92,0,0,0,1.57-2.84v-4.06l5.81-1.47c0,1.73.06,3.17.18,4.34a8.29,8.29,0,0,0,.7,2.83,3.18,3.18,0,0,0,1.47,1.55,5.84,5.84,0,0,0,2.49.45,10.09,10.09,0,0,0,2.76-.31A3.48,3.48,0,0,0,1451,322a3.52,3.52,0,0,0,.77-1.65,12,12,0,0,0,.21-2.41v-2.38l5.74-1.47a20.39,20.39,0,0,0,.87,7c.59,1.48,1.84,2.21,3.75,2.21,2.75,0,4.13-.58,4.13-1.75a4,4,0,0,0-.31-1.26,15.08,15.08,0,0,0-.88-1.86c-.37-.67-.8-1.38-1.3-2.13a25.42,25.42,0,0,0-1.57-2.17l5.18-5.53a22.51,22.51,0,0,1,3.92,6.47,17.16,17.16,0,0,1,1.26,6,11.22,11.22,0,0,1-.77,4.24,8.89,8.89,0,0,1-2.17,3.25,9.89,9.89,0,0,1-3.29,2.07,11.5,11.5,0,0,1-4.2.73Q1456.69,331.3,1454.52,327Z"/><path class="cls-16" d="M1493.66,324.44a14.47,14.47,0,0,1-1.4,6.2,24.41,24.41,0,0,1-3.82,5.7,43.3,43.3,0,0,1-5.7,5.33q-3.3,2.58-7.15,5l-5.39-5.11c2.57-1.54,4.93-3.09,7.07-4.63a54.88,54.88,0,0,0,5.47-4.41,25.13,25.13,0,0,0,3.5-3.92,5.87,5.87,0,0,0,1.26-3.22,6.19,6.19,0,0,0-.35-1.78,22.69,22.69,0,0,0-1-2.39,25.93,25.93,0,0,0-1.43-2.66c-.56-.91-1.15-1.8-1.75-2.69l5.25-5.25a32.52,32.52,0,0,1,4.16,7.66A18.68,18.68,0,0,1,1493.66,324.44Z"/><path class="cls-16" d="M1513.12,331.3a9.9,9.9,0,0,1-5.25-1.22,8.31,8.31,0,0,1-3-3.22,13.63,13.63,0,0,1-1.4-4.55,49.65,49.65,0,0,1-.42-5.22q-.13-3.22-.21-7.21c0-2.66-.1-5.39-.17-8.2s-.17-5.6-.28-8.4-.27-5.41-.46-7.84l6.51-3.15q0,3.91,0,8.09c0,2.77.07,5.54.14,8.29s.14,5.49.21,8.2.12,5.27.17,7.7c0,1.12,0,2.2.07,3.25a10.08,10.08,0,0,0,.49,2.8,3.92,3.92,0,0,0,1.37,1.93,4.7,4.7,0,0,0,2.83.7h2.8v8.05Z"/><path class="cls-16" d="M1528.32,299.23A6.86,6.86,0,0,1,1533,301a12.29,12.29,0,0,1,3.08,4.34,23.22,23.22,0,0,1,1.65,5.85,40.88,40.88,0,0,1,.49,6.23q0,7.35-3.47,10.64t-11.23,3.29h-7q-.77,0-1.26-1.08a7.3,7.3,0,0,1-.49-2.91,7.57,7.57,0,0,1,.49-2.94c.33-.75.75-1.12,1.26-1.12h7.15a24.15,24.15,0,0,0,5.14-.56,5.59,5.59,0,0,0,3.47-1.82,1.68,1.68,0,0,0,.24-.91c0-.42,0-1,0-1.75a14.55,14.55,0,0,1-3.08.73,21.19,21.19,0,0,1-2.52.18q-7.85,0-7.85-8.26a13.4,13.4,0,0,1,.7-4.2,13.78,13.78,0,0,1,1.9-3.75,9.69,9.69,0,0,1,2.87-2.66A7,7,0,0,1,1528.32,299.23Zm-.35-4.41-5.32-4.48,4.27-5,5.32,4.48Zm-.35,11.35a3,3,0,0,0-2.45,1.26,4.21,4.21,0,0,0-1,2.66,2.27,2.27,0,0,0,.77,1.71,3.56,3.56,0,0,0,2.52.74,12.44,12.44,0,0,0,2.59-.25,9.6,9.6,0,0,0,2-.59,9.11,9.11,0,0,0-1.61-4A3.46,3.46,0,0,0,1527.62,306.17Z"/><path class="cls-16" d="M1574.39,342a17.73,17.73,0,0,1-6.2-1.05,13.63,13.63,0,0,1-4.9-3.09,14.29,14.29,0,0,1-3.25-5,18.37,18.37,0,0,1-1.2-6.9,19.35,19.35,0,0,1,1.06-6.55A34.42,34.42,0,0,1,1563,313l5,2a29.38,29.38,0,0,0-2.31,5.49,15.26,15.26,0,0,0-.7,4.17,8.73,8.73,0,0,0,2.73,6.9A10.69,10.69,0,0,0,1575,334q5.67,0,8.75-3.18t3.08-10.12q0-1.89-.1-6c-.07-2.73-.17-5.87-.28-9.41s-.22-7.34-.32-11.38-.16-8-.21-11.94l6.58-3.15.49,41.59q0,10.78-4.9,16.17T1574.39,342Z"/><path class="cls-16" d="M1611.57,307.08a7.78,7.78,0,0,1,4.27,1.19,10.22,10.22,0,0,1,3.19,3.25,16.59,16.59,0,0,1,2,4.76,23.67,23.67,0,0,1,.66,5.64,19.73,19.73,0,0,1-1.33,7.35,24.23,24.23,0,0,1-3.78,6.37,36.76,36.76,0,0,1-5.88,5.71,78.79,78.79,0,0,1-7.7,5.29l-5.4-5q3.38-2,6.34-3.93a65.36,65.36,0,0,0,5.32-3.85,46.17,46.17,0,0,0,4-3.6,13.1,13.1,0,0,0,2.38-3.12,8.6,8.6,0,0,1-3.15.95c-1.12.11-1.94.17-2.45.17a8.33,8.33,0,0,1-5.64-2c-1.52-1.3-2.27-3.27-2.27-5.88a17,17,0,0,1,.7-4.83,15.32,15.32,0,0,1,2-4.27,10.67,10.67,0,0,1,3-3A6.7,6.7,0,0,1,1611.57,307.08Zm-.63,7.35a2.9,2.9,0,0,0-1.44.38,3.75,3.75,0,0,0-1.12,1,6,6,0,0,0-.73,1.33,3.53,3.53,0,0,0-.28,1.33,2.16,2.16,0,0,0,.94,1.82,4.33,4.33,0,0,0,2.63.7,12.08,12.08,0,0,0,2.62-.28,10.79,10.79,0,0,0,2.07-.63A9.11,9.11,0,0,0,1614,316,3.67,3.67,0,0,0,1610.94,314.43Z"/><path class="cls-16" d="M1636.64,330.18l-6.59,1.47V285.44l6.59-3.15Z"/><path class="cls-16" d="M1715.41,331.3a12.44,12.44,0,0,1-3.5-.45,11.29,11.29,0,0,1-3.12-1.54,23.32,23.32,0,0,1-3.36-2.94q-1.79-1.86-4.17-4.66a13,13,0,0,1-1,2.8,8.73,8.73,0,0,1-3.64,4.2,21.59,21.59,0,0,1-5.85,2.49,39.94,39.94,0,0,1-6.79,1.19c-2.36.21-4.51.31-6.47.31q-3.86,0-7.46-.31a21.22,21.22,0,0,1-6.37-1.47,10.11,10.11,0,0,1-4.41-3.4,9.93,9.93,0,0,1-1.65-6,15.06,15.06,0,0,1,.7-4.1,22.61,22.61,0,0,1,2.1-4.86l5,1.75a22.93,22.93,0,0,0-1.26,3.36,9.83,9.83,0,0,0-.35,2.45,2.83,2.83,0,0,0,1.16,2.31,8.24,8.24,0,0,0,3.18,1.4,28.09,28.09,0,0,0,4.69.67c1.78.11,3.69.17,5.75.17q2.58,0,5.46-.21a43.62,43.62,0,0,0,5.46-.73,22,22,0,0,0,4.55-1.4,5.88,5.88,0,0,0,2.73-2.14,10,10,0,0,0-1-2.8,16.81,16.81,0,0,0-2.17-3,48,48,0,0,0-3.43-3.43c-1.35-1.23-2.94-2.67-4.76-4.3a33.43,33.43,0,0,1,.7-5.05,3.85,3.85,0,0,1,1.19-2.24q4.83-3.21,12-7.07t16.07-7.91l-1,8.47q-6.51,2.81-12.19,5.71t-9.24,5.07q4.2,3.8,8.4,8.2t8.19,8.4a11.11,11.11,0,0,0,3.16,2.34,7.27,7.27,0,0,0,3.08.67h3.15v8.05ZM1707.84,285q-4.62,2.24-9.83,5.11t-11,6.58l.63-5q5.67-3.78,11-6.76t9.9-5.28Z"/><path class="cls-16" d="M1738.37,331.3a11.23,11.23,0,0,1-4.76-.91,7.74,7.74,0,0,1-3.29-3,9,9,0,0,1-3.5,3,12,12,0,0,1-5,.94h-3q-.78,0-1.26-1.08a7.13,7.13,0,0,1-.49-2.91,7.38,7.38,0,0,1,.49-2.94c.32-.75.74-1.12,1.26-1.12h2.87a21,21,0,0,0,2.9-.17,4.37,4.37,0,0,0,1.89-.7,3,3,0,0,0,1.09-1.48,8.37,8.37,0,0,0,.42-2.41v-2.94l5.81-1.47c0,1.73.06,3.17.18,4.34a7.82,7.82,0,0,0,.73,2.83,3.27,3.27,0,0,0,1.61,1.55,7.46,7.46,0,0,0,2.87.45h3.29v8.05Zm-7.91-21-5.32-4.48,4.27-5.05,5.32,4.49Z"/><path class="cls-16" d="M1740.33,345.38l-5.11-4.34,4.06-4.84,5.18,4.28Zm10.93-24a3.47,3.47,0,0,0-.32-1.19,14.46,14.46,0,0,0-.91-1.79c-.4-.67-.84-1.38-1.33-2.13s-1-1.47-1.57-2.17l5.25-5.53a22.51,22.51,0,0,1,3.92,6.47,17.16,17.16,0,0,1,1.26,6c0,3.36-.94,5.92-2.8,7.67s-4.74,2.62-8.61,2.62h-3.72q-.77,0-1.26-1.08a7.3,7.3,0,0,1-.49-2.91,7.57,7.57,0,0,1,.49-2.94c.33-.75.75-1.12,1.26-1.12h3.72a12.49,12.49,0,0,0,3.71-.45C1750.79,322.49,1751.26,322,1751.26,321.36Zm-2,24-5.12-4.34,4.07-4.84,5.11,4.28Z"/><path class="cls-16" d="M1794.81,331.3a11.05,11.05,0,0,1-2.63-.28,6.66,6.66,0,0,1-2.06-.84,6.53,6.53,0,0,1-1.68-1.5,19,19,0,0,1-1.61-2.35,9.73,9.73,0,0,1-4.87,4.55,19.79,19.79,0,0,1-7.11,1.12,15.62,15.62,0,0,1-5.6-.91,13.4,13.4,0,0,1-4.76-3.36l3.5-6.09a10.68,10.68,0,0,0,3.29,1.75,14,14,0,0,0,4.2.56,16.81,16.81,0,0,0,5.81-.84c1.5-.56,2.25-1.35,2.25-2.38a9.75,9.75,0,0,0-.6-2.52c-.4-1.21-.89-2.57-1.47-4.06s-1.23-3.06-1.93-4.69-1.35-3.15-2-4.55l5.25-5.54,6.52,17.3c.42,1.21.8,2.23,1.15,3a10.61,10.61,0,0,0,1.12,2,3.53,3.53,0,0,0,1.37,1.15,4.78,4.78,0,0,0,2,.35h2.8v8.05Z"/><path class="cls-16" d="M1805.87,307.5l3.08-6.31q5.25,3.57,9.14,6.45a48,48,0,0,1,6.41,5.53,20.58,20.58,0,0,1,3.78,5.35,13.66,13.66,0,0,1,1.26,5.85,12.19,12.19,0,0,1-.39,3,7.89,7.89,0,0,1-1.22,2.73,7,7,0,0,1-2.07,2,5.28,5.28,0,0,1-2.9.77,8.72,8.72,0,0,1-2.24-.35,27.11,27.11,0,0,1-2.84-.91c-1-.37-2-.79-3.05-1.26s-2-.91-2.8-1.33a11.53,11.53,0,0,1-4.65,1.86,29.68,29.68,0,0,1-5,.45h-4.62q-.76,0-1.26-1.08a7.13,7.13,0,0,1-.49-2.91,7.38,7.38,0,0,1,.49-2.94c.33-.75.75-1.12,1.26-1.12h4.69c.65,0,1.33,0,2-.07a6.4,6.4,0,0,1-2.27-2.49,6.07,6.07,0,0,1-.53-2.41,10.66,10.66,0,0,1,1.54-5.25,11.29,11.29,0,0,1,4.41-4.34Zm6.16,5.25a3.66,3.66,0,0,0-1.75.49,6.93,6.93,0,0,0-1.64,1.22,7.93,7.93,0,0,0-1.23,1.58,3.18,3.18,0,0,0-.49,1.61,2.15,2.15,0,0,0,.49,1.29,5.13,5.13,0,0,0,1.26,1.19,15.11,15.11,0,0,0,1.68,1,9,9,0,0,0,1.68.67,3.21,3.21,0,0,0,1.82-1.47,4.49,4.49,0,0,0,.77-2.52,7.32,7.32,0,0,0-.8-3.64C1813.28,313.21,1812.69,312.75,1812,312.75Zm6.8,3.85a8.07,8.07,0,0,1,.07,1v1a10.7,10.7,0,0,1-.7,2.94,6.35,6.35,0,0,1-1.55,2.31,12.42,12.42,0,0,0,1.47.74l1.83.77q.9.38,1.68.63a4.23,4.23,0,0,0,1.12.24,1.11,1.11,0,0,0,.94-.66,2.69,2.69,0,0,0,.39-1.37,7.39,7.39,0,0,0-1.09-3.43A13.59,13.59,0,0,0,1818.83,316.6Z"/><path class="cls-16" d="M1586.72,404.61a12.46,12.46,0,0,1-1.19,5.82,9.16,9.16,0,0,1-3.19,3.5,12.24,12.24,0,0,1-4.69,1.68,36.67,36.67,0,0,1-5.64.42,17.36,17.36,0,0,1-5.81-.88,13.17,13.17,0,0,1-4.9-3.39l3.5-6.1a11.26,11.26,0,0,0,3.36,1.75,13.69,13.69,0,0,0,4.2.56,19.67,19.67,0,0,0,6.34-.8c1.51-.54,2.27-1.23,2.27-2.07q0-1.74-2.52-4.76a39,39,0,0,0-8.26-6.79l3.15-7.49a36.21,36.21,0,0,1,4.87,3.53,30.54,30.54,0,0,1,4.3,4.52,23.43,23.43,0,0,1,3,5.15A13.48,13.48,0,0,1,1586.72,404.61Z"/><path class="cls-16" d="M1611.43,415.33a13.29,13.29,0,0,1-2.24-.18,4,4,0,0,1-2-.94,14.74,14.74,0,0,1-1.82,5.42,26,26,0,0,1-3.78,5.08,45.29,45.29,0,0,1-5.43,4.83q-3.1,2.38-6.68,4.69l-5.4-5.11q3.86-2.31,7.08-4.62a55.83,55.83,0,0,0,5.46-4.41,25.59,25.59,0,0,0,3.5-3.92,5.93,5.93,0,0,0,1.26-3.22,10.37,10.37,0,0,0-1.26-4,42.32,42.32,0,0,0-3.22-5.5l5.32-5.32c1,1.68,1.83,3.11,2.56,4.27a23.66,23.66,0,0,0,2,2.84,6.37,6.37,0,0,0,1.82,1.57,4.2,4.2,0,0,0,2,.49h2.8v8.06Z"/><path class="cls-16" d="M1633.07,415.33a11.32,11.32,0,0,1-4.76-.91,7.75,7.75,0,0,1-3.29-3,9,9,0,0,1-3.5,3,12,12,0,0,1-5,.95h-3c-.51,0-.93-.36-1.26-1.09a7.25,7.25,0,0,1-.49-2.9,7.59,7.59,0,0,1,.49-2.95c.33-.74.75-1.12,1.26-1.12h2.87a19.62,19.62,0,0,0,2.91-.17,4.37,4.37,0,0,0,1.89-.7,3.1,3.1,0,0,0,1.09-1.47,8.45,8.45,0,0,0,.42-2.42v-2.94l5.81-1.47c0,1.73,0,3.18.17,4.34a7.86,7.86,0,0,0,.74,2.84,3.21,3.21,0,0,0,1.61,1.54,7.43,7.43,0,0,0,2.87.45h3.29v8.06Zm-12.68,14.07-5.11-4.34,4.06-4.83,5.19,4.27Zm9,0-5.11-4.34,4.06-4.83,5.11,4.27Z"/><path class="cls-16" d="M1656.74,403.35a12,12,0,0,1-1,5,10.6,10.6,0,0,1-2.84,3.79,12.46,12.46,0,0,1-4.37,2.34,18.66,18.66,0,0,1-5.64.81h-5.74c-.51,0-.93-.36-1.26-1.09a7.08,7.08,0,0,1-.49-2.9,7.4,7.4,0,0,1,.49-2.95c.33-.74.75-1.12,1.26-1.12h6.09a13.15,13.15,0,0,0,5.36-.84,5.23,5.23,0,0,0,2.48-2.1,12.42,12.42,0,0,0-3.6-6.09,73.5,73.5,0,0,0-9.07-7.56,41,41,0,0,1,.66-5,3.75,3.75,0,0,1,1.16-2.24q2.31-1.54,5.15-3.19c1.89-1.09,3.82-2.18,5.81-3.25s3.94-2.11,5.88-3.08,3.72-1.87,5.36-2.67l-1.05,8.48q-4.56,2-8.34,4t-7.14,4Q1656.74,396.28,1656.74,403.35Zm3-33.68c-3,1.5-6.14,3.15-9.46,5s-6.81,3.92-10.5,6.3l.63-5q5.46-3.59,10.43-6.38t9.6-5.11Z"/><path class="cls-16" d="M1700.57,415.33c-1.64-.05-3.14-.12-4.52-.21s-2.34-.14-2.91-.14a5,5,0,0,0-2,.28q-.6.27-.6.63a.59.59,0,0,0,.28.52,4.67,4.67,0,0,0,1.26.39l4.77.91a8.37,8.37,0,0,1,3.46,1.33,3.32,3.32,0,0,1,1.23,2.87,7.69,7.69,0,0,1-1.86,5,15.51,15.51,0,0,1-4.79,3.78,27.44,27.44,0,0,1-6.59,2.38,31.67,31.67,0,0,1-7.14.84,20.71,20.71,0,0,1-6.76-1.05,14.35,14.35,0,0,1-5.18-3,13.57,13.57,0,0,1-3.32-5,18.32,18.32,0,0,1-1.19-6.89,19.45,19.45,0,0,1,1-6.58,37,37,0,0,1,3.08-6.38l5,2a30.85,30.85,0,0,0-2.31,5.47,14.93,14.93,0,0,0-.7,4.2,8.55,8.55,0,0,0,2.83,6.89q2.85,2.42,8.23,2.42a31,31,0,0,0,4.52-.32,34,34,0,0,0,3.85-.77,23,23,0,0,0,3-1c.85-.35,1.5-.64,2-.87a5.27,5.27,0,0,0-2.25-.7l-3.64-.77a7.93,7.93,0,0,1-3.67-1.61,4.82,4.82,0,0,1-1.44-3.92,7.66,7.66,0,0,1,3.12-6.52q3.12-2.31,9.7-2.31h4.55v8.06Z"/><path class="cls-16" d="M1719.26,393.83a6.11,6.11,0,0,1,3.75,1.23,10.52,10.52,0,0,1,2.8,3.22,17.55,17.55,0,0,1,1.78,4.44,19.92,19.92,0,0,1,.63,5,8,8,0,0,1-.56,2.88,10.42,10.42,0,0,1-1.47,2.66,7.64,7.64,0,0,1-2.1,1.92,4.6,4.6,0,0,1-2.45.74,11.17,11.17,0,0,1-2.48-.32,23.25,23.25,0,0,1-2.8-.84,20.54,20.54,0,0,1-2.84-1.29,22.19,22.19,0,0,1-2.59-1.68,10,10,0,0,1-3.64,2.8,12.33,12.33,0,0,1-4.62.77h-1.12q-.78,0-1.26-1.23a7.08,7.08,0,0,1-.49-2.69,7.88,7.88,0,0,1,.49-2.84c.32-.86.74-1.3,1.26-1.3h.84a15.57,15.57,0,0,0,3.64-.42,4.21,4.21,0,0,0,2.73-2.17c.74-1.4,1.52-2.75,2.31-4.06a25.24,25.24,0,0,1,2.49-3.46,12.72,12.72,0,0,1,2.69-2.42A5.4,5.4,0,0,1,1719.26,393.83Zm-.7,7.42a3.13,3.13,0,0,0-2.17,1.19,13.29,13.29,0,0,0-2.17,3.43,9.73,9.73,0,0,0,1.61,1.05,14,14,0,0,0,1.86.84,11.25,11.25,0,0,0,1.85.53,8.41,8.41,0,0,0,1.61.17,1.8,1.8,0,0,0,.91-.28,1.27,1.27,0,0,0,.63-.63,7.57,7.57,0,0,0-.31-2.13,8.24,8.24,0,0,0-.91-2,6.35,6.35,0,0,0-1.33-1.54A2.46,2.46,0,0,0,1718.56,401.25Z"/><path class="cls-16" d="M1765.89,408.46a14.29,14.29,0,0,1-1.4,6.2,23.91,23.91,0,0,1-3.81,5.71,44.05,44.05,0,0,1-5.71,5.32,84.65,84.65,0,0,1-7.14,5l-5.39-5.11q3.84-2.31,7.07-4.62a53.53,53.53,0,0,0,5.46-4.41,25.59,25.59,0,0,0,3.5-3.92,5.93,5.93,0,0,0,1.26-3.22,5.86,5.86,0,0,0-.35-1.79,22.36,22.36,0,0,0-.94-2.38,26.09,26.09,0,0,0-1.44-2.66c-.56-.91-1.14-1.81-1.75-2.7l5.25-5.25a33,33,0,0,1,4.17,7.67A18.85,18.85,0,0,1,1765.89,408.46Z"/><path class="cls-16" d="M1780.88,414.21l-6.58,1.47V369.46l6.58-3.15Z"/><path class="cls-16" d="M1805.87,415.33a13.29,13.29,0,0,1-2.24-.18,4,4,0,0,1-2-.94,14.74,14.74,0,0,1-1.82,5.42,26,26,0,0,1-3.78,5.08,45.29,45.29,0,0,1-5.43,4.83q-3.11,2.38-6.68,4.69l-5.39-5.11q3.84-2.31,7.07-4.62a55.83,55.83,0,0,0,5.46-4.41,25.59,25.59,0,0,0,3.5-3.92,5.93,5.93,0,0,0,1.26-3.22,10.37,10.37,0,0,0-1.26-4,42.32,42.32,0,0,0-3.22-5.5l5.32-5.32c1,1.68,1.83,3.11,2.56,4.27a24.87,24.87,0,0,0,2,2.84,6.51,6.51,0,0,0,1.82,1.57,4.2,4.2,0,0,0,2,.49h2.8v8.06Z"/><path class="cls-16" d="M1819.67,383.26a6.85,6.85,0,0,1,4.72,1.71,12.38,12.38,0,0,1,3.08,4.34,23.22,23.22,0,0,1,1.65,5.85,41.08,41.08,0,0,1,.49,6.23q0,7.35-3.47,10.65t-11.23,3.29h-7c-.51,0-.93-.36-1.26-1.09a7.25,7.25,0,0,1-.49-2.9,7.59,7.59,0,0,1,.49-2.95c.33-.74.75-1.12,1.26-1.12h7.15a23.53,23.53,0,0,0,5.14-.56,5.59,5.59,0,0,0,3.47-1.82,1.66,1.66,0,0,0,.24-.91c0-.42,0-1,0-1.75a14.6,14.6,0,0,1-3.08.74,23.24,23.24,0,0,1-2.52.17q-7.85,0-7.85-8.26a13.4,13.4,0,0,1,.7-4.2,14,14,0,0,1,1.89-3.75,10,10,0,0,1,2.88-2.66A7.08,7.08,0,0,1,1819.67,383.26Zm-4.83-4.41-5.12-4.27,4.07-4.84,5.18,4.2Zm4.13,11.34a3,3,0,0,0-2.45,1.26,4.23,4.23,0,0,0-1,2.66,2.29,2.29,0,0,0,.77,1.72,3.56,3.56,0,0,0,2.52.73,13.18,13.18,0,0,0,2.59-.24,9.55,9.55,0,0,0,2-.6,9.17,9.17,0,0,0-1.61-4A3.46,3.46,0,0,0,1819,390.19Zm4.83-11.34-5.11-4.27,4.06-4.84,5.11,4.2Z"/><line class="cls-17" x1="1781.76" y1="467.17" x2="1833.6" y2="467.17"/><text class="cls-18" transform="translate(1711.55 993.6)">zeeen.ir</text><polygon class="cls-16" points="90.58 907.47 90.58 913.83 107.6 913.83 87.31 945.63 116.02 945.63 116.02 939.27 98.92 939.27 119.2 907.47 90.58 907.47"/><polygon class="cls-16" points="125.64 945.63 151 945.63 151 939.27 131.99 939.27 131.97 929.73 151 929.73 151 923.37 131.95 923.37 131.93 913.83 151 913.83 151 907.47 125.55 907.47 125.64 945.63"/><polygon class="cls-16" points="185.99 939.27 166.9 939.27 166.9 929.73 185.99 929.73 185.99 923.37 166.9 923.37 166.9 913.83 185.99 913.83 185.99 907.47 160.54 907.47 160.54 945.63 185.99 945.63 185.99 939.27"/><polygon class="cls-16" points="125.56 993.34 151 993.34 151 986.97 131.92 986.97 131.92 977.43 151 977.43 151 971.07 131.92 971.07 131.92 961.53 151 961.53 151 955.17 125.56 955.17 125.56 993.34"/><polygon class="cls-16" points="182.81 955.17 182.81 980.94 166.64 955.17 160.54 955.17 160.54 993.34 166.9 993.34 166.9 967.56 183.07 993.34 189.17 993.34 189.17 955.17 182.81 955.17"/></g></svg>