<svg xmlns="http://www.w3.org/2000/svg" xmlns:xlink="http://www.w3.org/1999/xlink" viewBox="0 0 1080 1080"><defs><style>.cls-1{fill:none;}.cls-2{fill:#a9afb0;}.cls-3{fill:#fff;}.cls-4{clip-path:url(#clip-path);}</style><clipPath id="clip-path"><path class="cls-1" d="M540,1596h0a540,540,0,0,1,540,540v540a0,0,0,0,1,0,0H0a0,0,0,0,1,0,0V2136a540,540,0,0,1,540-540Z" transform="translate(1080 4272) rotate(180)"/></clipPath></defs><g id="Background"><rect width="1080" height="1080"/></g><g id="Graphic"><path class="cls-2" d="M712.8,0h0A367.2,367.2,0,0,1,1080,367.2V734.4a0,0,0,0,1,0,0H345.6a0,0,0,0,1,0,0V367.2A367.2,367.2,0,0,1,712.8,0Z" transform="translate(1425.6 734.4) rotate(180)"/><path class="cls-3" d="M994.09,994.1h-12.5v-1h11.5v-4.29h1Zm-24.5,0h-12v-1h12Zm-24,0h-12v-1h12Zm-24,0h-12v-1h12Zm-24,0h-12v-1h12Zm-24,0h-12v-1h12Zm-24,0h-12v-1h12Zm-24,0h-12v-1h12Zm-24,0h-12v-1h12Zm-24,0h-12v-1h12Zm-24,0h-12v-1h12Zm-24,0h-12v-1h12Zm-24,0h-12v-1h12Zm-24,0h-12v-1h12Zm-24,0h-12v-1h12Zm-24,0h-12v-1h12Zm-24,0h-12v-1h12Zm-24,0h-12v-1h12Zm-24,0h-12v-1h12Zm-24,0h-12v-1h12Zm-24,0h-12v-1h12Zm-24,0h-12v-1h12Zm-24,0h-12v-1h12Zm-24,0h-12v-1h12Zm-24,0h-12v-1h12Zm-24,0h-12v-1h12Zm-24,0h-12v-1h12Zm-24,0h-12v-1h12Zm-24,0h-12v-1h12Zm-24,0h-12v-1h12Zm-24,0h-12v-1h12Zm-24,0h-12v-1h12Zm-24,0h-12v-1h12Zm-24,0h-12v-1h12Zm-24,0h-12v-1h12Zm-24,0h-12v-1h12Zm-24,0h-12v-1h12Zm-24,0h-12v-1h12Zm-18.7-5.31h-1v-12h1Zm907.19-12h-1v-12h1Zm-907.19-12h-1v-12h1Zm907.19-12h-1v-12h1Zm-907.19-12h-1v-12h1Zm907.19-12h-1v-12h1Zm-907.19-12h-1v-12h1Zm907.19-12h-1v-12h1Zm-907.19-12h-1v-12h1Zm907.19-12h-1v-12h1Zm-907.19-12h-1v-12h1Zm907.19-12h-1v-12h1Zm-907.19-12h-1v-12h1Zm907.19-12h-1v-12h1Zm-907.19-12h-1v-12h1Zm907.19-12h-1v-12h1Zm-907.19-12h-1v-12h1Zm907.19-12h-1v-12h1Zm-907.19-12h-1v-12h1Zm907.19-12h-1v-12h1Zm-907.19-12h-1v-12h1Zm907.19-12h-1v-12h1Zm-907.19-12h-1v-12h1Zm907.19-12h-1v-12h1Zm-907.19-12h-1v-12h1Zm907.19-12h-1v-12h1Zm-907.19-12h-1v-12h1Zm907.19-12h-1v-12h1Zm-907.19-12h-1v-12h1Zm907.19-12h-1v-12h1Zm-907.19-12h-1v-12h1Zm907.19-12h-1v-12h1Zm-907.19-12h-1v-12h1Zm907.19-12h-1v-12h1Zm-907.19-12h-1v-12h1Zm907.19-12h-1v-12h1Zm-907.19-12h-1v-12h1Zm907.19-12h-1v-12h1Zm-907.19-12h-1v-12h1Zm907.19-12h-1v-12h1Zm-907.19-12h-1v-12h1Zm907.19-12h-1v-12h1Zm-907.19-12h-1v-12h1Zm907.19-12h-1v-12h1Zm-907.19-12h-1v-12h1Zm907.19-12h-1v-12h1Zm-907.19-12h-1v-12h1Zm907.19-12h-1v-12h1Zm-907.19-12h-1v-12h1Zm907.19-12h-1v-12h1Zm-907.19-12h-1v-12h1Zm907.19-12h-1v-12h1Zm-907.19-12h-1v-12h1Zm907.19-12h-1v-12h1Zm-907.19-12h-1v-12h1Zm907.19-12h-1v-12h1Zm-907.19-12h-1v-12h1Zm907.19-12h-1v-12h1Zm-907.19-12h-1v-12h1Zm907.19-12h-1v-12h1Zm-907.19-12h-1v-12h1Zm907.19-12h-1v-12h1Zm-907.19-12h-1v-12h1Zm907.19-12h-1v-12h1Zm-907.19-12h-1v-12h1Zm907.19-12h-1v-12h1Zm-907.19-12h-1v-12h1Zm907.19-12h-1v-12h1Zm-907.19-12h-1v-12h1Zm907.19-12h-1v-12h1Zm-907.19-12h-1v-12h1Zm907.19-12h-1v-12h1Zm-907.19-12h-1v-12h1Zm907.19-12h-1v-12h1Zm-907.19-12h-1v-12h1Zm907.19-12h-1V86.9H984v-1h10.08ZM972,86.9H960v-1h12Zm-24,0H936v-1h12Zm-24,0H912v-1h12Zm-24,0H888v-1h12Zm-24,0H864v-1h12Zm-24,0H840v-1h12Zm-24,0H816v-1h12Zm-24,0H792v-1h12Zm-24,0H768v-1h12Zm-24,0H744v-1h12Zm-24,0H720v-1h12Zm-24,0H696v-1h12Zm-24,0H672v-1h12Zm-24,0H648v-1h12Zm-24,0H624v-1h12Zm-24,0H600v-1h12Zm-24,0H576v-1h12Zm-24,0H552v-1h12Zm-24,0H528v-1h12Zm-24,0H504v-1h12Zm-24,0H480v-1h12Zm-24,0H456v-1h12Zm-24,0H432v-1h12Zm-24,0H408v-1h12Zm-24,0H384v-1h12Zm-24,0H360v-1h12Zm-24,0H336v-1h12Zm-24,0H312v-1h12Zm-24,0H288v-1h12Zm-24,0H264v-1h12Zm-24,0H240v-1h12Zm-24,0H216v-1h12Zm-24,0H192v-1h12Zm-24,0H168v-1h12Zm-24,0H144v-1h12Zm-24,0H120v-1h12Zm-24,0H96v-1h12Z"/><path class="cls-3" d="M84.33,938.16h15.85v3H94v17.48H90.54V941.11H84.33Z"/><path class="cls-3" d="M117.17,958.59H103.11V938.16h13.77v2.92H106.53v5.73h9.19v2.82h-9.19v6h10.64Z"/><path class="cls-3" d="M118.89,958.59l6.66-10.21L119,938.16h3.93l4.62,7.42,4.78-7.42h3.82l-6.68,10.13,6.82,10.3h-4l-4.79-7.41-4.64,7.41Z"/><path class="cls-3" d="M137.09,938.16h15.84v3h-6.19v17.48H143.3V941.11h-6.21Z"/><path class="cls-3" d="M164.77,958.59h-3.42V938.16h3.42v8.49h9.44v-8.49h3.42v20.43h-3.42v-9h-9.44Z"/><path class="cls-3" d="M191.92,943.77a2.84,2.84,0,0,0-.87-2.18,3.21,3.21,0,0,0-2.3-.82,3.49,3.49,0,0,0-3,1.33,5.78,5.78,0,0,0-.85,3.85l-3.32-.44a7,7,0,0,1,1.81-5.62,7.22,7.22,0,0,1,5.41-2.07,6.88,6.88,0,0,1,4.79,1.64,5.4,5.4,0,0,1,1.78,4.21,7.36,7.36,0,0,1-1.06,3.75,16.67,16.67,0,0,1-3.4,3.93l-4.87,4.35H196v2.89H181.52v-2.86l7.26-6.5a11.63,11.63,0,0,0,2.41-2.77A5.41,5.41,0,0,0,191.92,943.77Z"/><path class="cls-3" d="M206,952.05h-7.65v-2.82H206Z"/><path class="cls-3" d="M213.7,958.59h-3.42V938.16h3.42v8.49h9.44v-8.49h3.42v20.43h-3.42v-9H213.7Z"/><path class="cls-3" d="M245.45,958.59H231.39V938.16h13.78v2.92H234.81v5.73H244v2.82h-9.19v6h10.64Z"/><path class="cls-3" d="M261,954.07h-8.64l-1.66,4.52h-3.44l7.7-20.43h3.7l7.65,20.43H262.6Zm-7.58-2.83H260l-3.24-9Z"/><path class="cls-3" d="M277.45,958.59h-8.32V938.16h8.32a10.1,10.1,0,0,1,7.38,2.69,9.63,9.63,0,0,1,2.73,7.24,10.58,10.58,0,0,1-2.76,7.61A9.68,9.68,0,0,1,277.45,958.59Zm6.65-10.5a7,7,0,0,0-1.81-5.08,6.36,6.36,0,0,0-4.84-1.9h-4.9v14.53h4.9a6.14,6.14,0,0,0,4.84-2.06A8,8,0,0,0,284.1,948.09Z"/><path class="cls-3" d="M294.8,958.59h-3.42V938.16h3.42Z"/><path class="cls-3" d="M302.89,958.59h-3.26V938.16h3.76l9.1,14.39V938.16h3.28v20.43h-3L302.89,943Z"/><path class="cls-3" d="M329.47,959a9.54,9.54,0,0,1-7.21-2.9,12,12,0,0,1,.06-15.31,9.67,9.67,0,0,1,7.41-2.92,9.94,9.94,0,0,1,5.93,1.69,8.12,8.12,0,0,1,3.17,4.78l-3.36.58a5.49,5.49,0,0,0-5.74-4.1,6.14,6.14,0,0,0-4.91,2.05,8.36,8.36,0,0,0-1.77,5.64,8,8,0,0,0,1.83,5.46,6.28,6.28,0,0,0,4.88,2.08,6.57,6.57,0,0,0,4.4-1.44,4.58,4.58,0,0,0,1.72-3.62v-.7H330v-2.7h9v11.05h-3.09v-2.54a7,7,0,0,1-2.73,2.15A8.94,8.94,0,0,1,329.47,959Z"/><path class="cls-3" d="M95.1,994a9.5,9.5,0,0,1-7.2-2.9,10.68,10.68,0,0,1-2.73-7.59A10.82,10.82,0,0,1,88,975.75a9.69,9.69,0,0,1,7.41-2.92,9.94,9.94,0,0,1,5.93,1.69,8.07,8.07,0,0,1,3.17,4.78l-3.36.58a5.49,5.49,0,0,0-5.74-4.1,6.14,6.14,0,0,0-4.91,2.05,8.36,8.36,0,0,0-1.77,5.64,8,8,0,0,0,1.84,5.46A6.24,6.24,0,0,0,95.39,991a6.57,6.57,0,0,0,4.4-1.44,4.58,4.58,0,0,0,1.72-3.62v-.7H95.62v-2.71h9V993.6h-3.09v-2.54a7,7,0,0,1-2.73,2.15A8.94,8.94,0,0,1,95.1,994Z"/><path class="cls-3" d="M127.46,983.39a10.8,10.8,0,0,1-2.7,7.67,10.28,10.28,0,0,1-14.31,0,12.32,12.32,0,0,1,0-15.34,10.28,10.28,0,0,1,14.29,0A10.73,10.73,0,0,1,127.46,983.39ZM113,977.82A10.07,10.07,0,0,0,113,989a6.32,6.32,0,0,0,9.32,0,10,10,0,0,0,0-11.14,6.34,6.34,0,0,0-9.32,0Z"/><path class="cls-3" d="M145.32,993.6H131.26V973.17H145v2.92H134.68v5.73h9.19v2.82h-9.19v6h10.64Z"/><path class="cls-3" d="M156.15,994a9.33,9.33,0,0,1-6-1.79,6,6,0,0,1-2.27-4.9l3.41-.38a4.28,4.28,0,0,0,1.34,3.19,5.23,5.23,0,0,0,3.54,1.1,4.36,4.36,0,0,0,2.89-.88,2.89,2.89,0,0,0,1.07-2.36,2.39,2.39,0,0,0-.73-1.86,5.5,5.5,0,0,0-2.54-1l-2.69-.55q-5.68-1.17-5.68-5.87a5.21,5.21,0,0,1,2-4.11,7.64,7.64,0,0,1,5.2-1.69,8.22,8.22,0,0,1,5.28,1.59,6.11,6.11,0,0,1,2.27,4.36l-3.48.37c-.26-2.37-1.62-3.56-4.1-3.56a4.26,4.26,0,0,0-2.74.79,2.53,2.53,0,0,0-1,2.1,2.63,2.63,0,0,0,.69,1.94,4.17,4.17,0,0,0,2.24,1L158,982a7.91,7.91,0,0,1,4.25,1.94,5,5,0,0,1,1.4,3.69,5.75,5.75,0,0,1-2.08,4.52A7.87,7.87,0,0,1,156.15,994Z"/><path class="cls-3" d="M177,993.6h-3.41V973.17H177v8.49h9.45v-8.49h3.42V993.6h-3.42v-9H177Z"/><path class="cls-3" d="M208.8,993.6H194.74V973.17h13.77v2.92H198.16v5.73h9.19v2.82h-9.19v6H208.8Z"/><path class="cls-3" d="M227.84,988.4l.3,5.2h-3.42l-.29-5.2a2.45,2.45,0,0,0-.94-1.94,4.43,4.43,0,0,0-2.64-.62H216v7.76h-3.42V973.17h8.49a7.68,7.68,0,0,1,5.1,1.61,5,5,0,0,1,2,4.09,5.83,5.83,0,0,1-.86,3.13,6.07,6.07,0,0,1-2.41,2.21A4.2,4.2,0,0,1,227.84,988.4Zm-3.17-9.19a2.81,2.81,0,0,0-1-2.29,4.26,4.26,0,0,0-2.82-.86H216v7h4.81a3.78,3.78,0,0,0,2.79-1.06A3.69,3.69,0,0,0,224.67,979.21Z"/><path class="cls-3" d="M246.42,993.6H232.36V973.17h13.78v2.92H235.78v5.73H245v2.82h-9.19v6h10.64Z"/><path class="cls-3" d="M88.56,759h31V771.2h-5.84v-7.29H98.25v13.82h13v4.9h-13v14.64h15.42V790h5.84v12.19H88.56v-4.9h4.11V763.91H88.56Z"/><path class="cls-3" d="M151.93,759h14v4.93h-3.68v38.26H155l-20.09-35.81v30.91h4.45v4.9h-14v-4.9h4V763.91h-4.1v-5h11.62l19.71,35.47.23-1.37V763.91h-4.84Z"/><path class="cls-3" d="M204.81,802.34v-8.66a14.48,14.48,0,0,1-2.71,3.92,15,15,0,0,1-3.62,2.75,17.36,17.36,0,0,1-4.26,1.62,19.75,19.75,0,0,1-4.6.54,20.89,20.89,0,0,1-7.77-1.41,17.74,17.74,0,0,1-6.46-4.49,20.71,20.71,0,0,1-4.41-7.29,25.58,25.58,0,0,1-1.53-8.8A24.72,24.72,0,0,1,171,771.8a21.84,21.84,0,0,1,4.27-7.15,19.89,19.89,0,0,1,6.55-4.79,19.62,19.62,0,0,1,8.25-1.74,19.06,19.06,0,0,1,7,1.17,19.51,19.51,0,0,1,5.05,2.84,23,23,0,0,1,3.34,3.17h2.77v5.07h-6.13a14.27,14.27,0,0,0-5.06-5.12,14.07,14.07,0,0,0-13.06-.43,14.63,14.63,0,0,0-4.69,3.76,17.71,17.71,0,0,0-3,5.44,19.49,19.49,0,0,0-1.08,6.5,20.34,20.34,0,0,0,1.19,7,15.93,15.93,0,0,0,3,5.28,15.14,15.14,0,0,0,4.58,3.34,13.46,13.46,0,0,0,6,1.33,14.41,14.41,0,0,0,9-2.67q3.5-2.66,4.9-8.3H191.85v-4.9h18.26v20.71Z"/><path class="cls-3" d="M219.43,759h14v4.93h-4.33v33.36H244a2.12,2.12,0,0,0,.91-.21,3.36,3.36,0,0,0,.83-.56,2.81,2.81,0,0,0,.6-.78,2,2,0,0,0,.23-.9v-5.44H252v12.79H219.43v-4.9h4.1V763.91h-4.1Z"/><path class="cls-3" d="M256.35,759h13.79v4.93H266v33.36h4.1v4.9H256.35v-4.9h4.1V763.91h-4.1Z"/><path class="cls-3" d="M299.51,767a7,7,0,0,0-2-1.93,9.4,9.4,0,0,0-2.41-1,9.9,9.9,0,0,0-2.62-.36,13,13,0,0,0-3.79.5A7.89,7.89,0,0,0,286,765.5a5.71,5.71,0,0,0-1.62,2,5.5,5.5,0,0,0-.54,2.39,6.07,6.07,0,0,0,.67,3,5.75,5.75,0,0,0,1.7,1.86,8.75,8.75,0,0,0,2.26,1.09c.83.27,1.62.53,2.38.8l5.76,1.88a27.61,27.61,0,0,1,4.57,1.88,12.61,12.61,0,0,1,3.32,2.49,10,10,0,0,1,2,3.32,12.66,12.66,0,0,1,.7,4.36,11.3,11.3,0,0,1-1.1,5,12,12,0,0,1-3.06,4,14.77,14.77,0,0,1-4.69,2.64,18.14,18.14,0,0,1-6,1,19,19,0,0,1-5.7-.75,12.46,12.46,0,0,1-4-2,10.34,10.34,0,0,1-2.58-2.89,15.48,15.48,0,0,1-1.51-3.33h-2.17v-4.9h7.18a10.72,10.72,0,0,0,.67,4.47,6.14,6.14,0,0,0,1.87,2.18,8.5,8.5,0,0,0,2.85,1.31,14.32,14.32,0,0,0,3.65.44,12.56,12.56,0,0,0,3.49-.45,7.8,7.8,0,0,0,2.64-1.33,5.75,5.75,0,0,0,1.69-2.11,6.61,6.61,0,0,0,.58-2.8,5.56,5.56,0,0,0-.73-2.95,7.07,7.07,0,0,0-1.86-2.07,10.68,10.68,0,0,0-2.5-1.39c-.9-.36-1.77-.68-2.6-.94l-6.24-1.77a18.17,18.17,0,0,1-3.75-1.6,10.84,10.84,0,0,1-2.9-2.36,10,10,0,0,1-1.87-3.26,13,13,0,0,1-.66-4.32,11.31,11.31,0,0,1,1-4.64,10.81,10.81,0,0,1,2.85-3.79,13.45,13.45,0,0,1,4.6-2.55,19.25,19.25,0,0,1,6.23-.93,15.92,15.92,0,0,1,4.26.54,13.23,13.23,0,0,1,3.53,1.53,12.39,12.39,0,0,1,2.79,2.36,14,14,0,0,1,2,3h2.14v4.9h-7A6.33,6.33,0,0,0,299.51,767Z"/><path class="cls-3" d="M355.87,759h14v4.9h-4.1v33.39h4.1v4.9h-14v-4.9h4.33V781.74h-25v15.53h4.33v4.9h-14v-4.9h4.1V763.88h-4.1V759h14v4.9h-4.33V777h25V763.88h-4.33Z"/><path class="cls-3" d="M380.86,797.27H385v-31.6l-8.74,4.76v-5.95l12-6.73h2.28v39.52h4.25v4.9h-14Z"/><path class="cls-3" d="M118.91,829h14v4.9h-4.11v33.39h4.11v4.9h-14v-4.9h4.33V851.76h-25v15.53h4.33v4.9h-14v-4.9h4.11V833.9H88.56V829h14v4.9H98.25V847h25V833.9h-4.33Z"/><path class="cls-3" d="M141.07,829h31v12.22h-5.85v-7.29H150.76v13.82h13v4.9h-13v14.64h15.41V860H172v12.19h-31v-4.9h4.11V833.93h-4.11Z"/><path class="cls-3" d="M203.27,867.29h3.59l-3.42-9.8H186.83l-3.33,9.8h4.44v4.9h-14v-4.9h3.77L191.13,829h8.41L213,867.29h4.33v4.9h-14Zm-14.81-14.53h13.33l-6.73-19.32Z"/><path class="cls-3" d="M221.65,829h16.07a20.11,20.11,0,0,1,5.64.77,20.41,20.41,0,0,1,9.17,5.51,20.76,20.76,0,0,1,3.21,4.34,22,22,0,0,1,2,5.15,22.39,22.39,0,0,1,.72,5.71,22.83,22.83,0,0,1-.72,5.78,22.32,22.32,0,0,1-2,5.19,21.13,21.13,0,0,1-3.21,4.4,20.2,20.2,0,0,1-14.81,6.34H221.65v-4.9h4.1V833.93h-4.1Zm9.68,4.93v33.36h6.73a12.55,12.55,0,0,0,5.63-1.31,14.75,14.75,0,0,0,4.6-3.58,17.16,17.16,0,0,0,3.1-5.32,18.8,18.8,0,0,0,1.14-6.6,18.28,18.28,0,0,0-1.14-6.5,16.92,16.92,0,0,0-3.1-5.25,14.56,14.56,0,0,0-4.6-3.52,12.66,12.66,0,0,0-5.63-1.28Z"/><path class="cls-3" d="M264.58,829h13.79v4.93h-4.1v33.36h4.1v4.9H264.58v-4.9h4.11V833.93h-4.11Z"/><path class="cls-3" d="M313.25,829h14v4.93h-3.67v38.26h-7.3l-20.08-35.81v30.91h4.44v4.9h-14v-4.9h4V833.93h-4.1v-5h11.63l19.71,35.47.23-1.37V833.93h-4.84Z"/><path class="cls-3" d="M366.13,872.36V863.7a14.78,14.78,0,0,1-6.33,6.67,17.36,17.36,0,0,1-4.26,1.62,19.75,19.75,0,0,1-4.6.54,21,21,0,0,1-7.78-1.41,17.79,17.79,0,0,1-6.45-4.49,20.88,20.88,0,0,1-4.42-7.29,25.81,25.81,0,0,1-1.52-8.8,25,25,0,0,1,1.52-8.72,21.86,21.86,0,0,1,4.28-7.15,19.68,19.68,0,0,1,14.8-6.53,19.13,19.13,0,0,1,7.05,1.17,19.44,19.44,0,0,1,5,2.84,23.16,23.16,0,0,1,3.35,3.17h2.76v5.07h-6.12a14.27,14.27,0,0,0-5.06-5.12,14.07,14.07,0,0,0-13.06-.43,14.52,14.52,0,0,0-4.69,3.76,17.71,17.71,0,0,0-3,5.44,19.24,19.24,0,0,0-1.09,6.5,20.11,20.11,0,0,0,1.2,7,15.76,15.76,0,0,0,3,5.28,15.09,15.09,0,0,0,4.57,3.34,13.51,13.51,0,0,0,6,1.33,14.38,14.38,0,0,0,9-2.67q3.51-2.65,4.9-8.3H353.16v-4.9h18.27v20.71Z"/><path class="cls-3" d="M426.84,872.36V863.7a14.48,14.48,0,0,1-2.71,3.92,15,15,0,0,1-3.61,2.75,17.36,17.36,0,0,1-4.26,1.62,19.81,19.81,0,0,1-4.6.54,20.91,20.91,0,0,1-7.78-1.41,17.74,17.74,0,0,1-6.46-4.49,20.86,20.86,0,0,1-4.41-7.29,25.58,25.58,0,0,1-1.53-8.8,24.72,24.72,0,0,1,1.53-8.72,21.84,21.84,0,0,1,4.27-7.15,19.89,19.89,0,0,1,6.55-4.79,19.62,19.62,0,0,1,8.25-1.74,19.06,19.06,0,0,1,7.05,1.17,19.51,19.51,0,0,1,5.05,2.84,23.7,23.7,0,0,1,3.35,3.17h2.76v5.07h-6.13a14.33,14.33,0,0,0-5.05-5.12,14.09,14.09,0,0,0-13.07-.43,14.59,14.59,0,0,0-4.68,3.76,17.53,17.53,0,0,0-3,5.44,19.49,19.49,0,0,0-1.08,6.5,20.11,20.11,0,0,0,1.2,7,15.75,15.75,0,0,0,3,5.28,15.14,15.14,0,0,0,4.58,3.34,13.46,13.46,0,0,0,6,1.33,14.41,14.41,0,0,0,9-2.67q3.49-2.65,4.9-8.3H413.88v-4.9h18.26v20.71Z"/><path class="cls-3" d="M460.15,873a19.74,19.74,0,0,1-8.18-1.66,20.84,20.84,0,0,1-11-12,25.93,25.93,0,0,1-1.51-8.75,24.88,24.88,0,0,1,1.53-8.77,21.69,21.69,0,0,1,4.27-7.14,19.94,19.94,0,0,1,6.56-4.78,20.21,20.21,0,0,1,23.32,4.78,21.79,21.79,0,0,1,4.24,7.14,26.11,26.11,0,0,1,0,17.53,22.09,22.09,0,0,1-4.28,7.14,20.06,20.06,0,0,1-6.55,4.8A19.72,19.72,0,0,1,460.15,873Zm0-5.29a13.4,13.4,0,0,0,6.14-1.4A14.48,14.48,0,0,0,471,862.6a16.84,16.84,0,0,0,3-5.45,20.09,20.09,0,0,0,1.06-6.56,20.69,20.69,0,0,0-1.15-6.82,16.29,16.29,0,0,0-3.22-5.57,14.61,14.61,0,0,0-4.8-3.52,13.8,13.8,0,0,0-5.7-1.24,13.51,13.51,0,0,0-6.16,1.4,14.55,14.55,0,0,0-4.7,3.74,17.18,17.18,0,0,0-3,5.48,21.61,21.61,0,0,0,.11,13.64,15.41,15.41,0,0,0,3.1,5.19,16.9,16.9,0,0,0,4.58,3.46A12.89,12.89,0,0,0,460.15,867.75Z"/><path class="cls-3" d="M487,829H517.9v12.22h-5.84v-7.29H496.64v13.82h13v4.9h-13v14.64h15.42V860h5.84v12.19H487v-4.9h4.1V833.93H487Z"/><path class="cls-3" d="M544.82,837a7.15,7.15,0,0,0-2-1.93,9.18,9.18,0,0,0-2.4-1,9.9,9.9,0,0,0-2.62-.36,13,13,0,0,0-3.79.5,8,8,0,0,0-2.7,1.35,5.68,5.68,0,0,0-1.61,2,5.5,5.5,0,0,0-.54,2.39,6.07,6.07,0,0,0,.67,3,5.65,5.65,0,0,0,1.7,1.86,8.75,8.75,0,0,0,2.26,1.09c.83.27,1.62.53,2.38.8l5.76,1.88a28,28,0,0,1,4.57,1.88,12.61,12.61,0,0,1,3.32,2.49,10,10,0,0,1,2,3.32,12.67,12.67,0,0,1,.69,4.36,11.29,11.29,0,0,1-1.09,5,11.9,11.9,0,0,1-3.07,4,14.61,14.61,0,0,1-4.68,2.64,18.14,18.14,0,0,1-6,1,19,19,0,0,1-5.7-.75,12.46,12.46,0,0,1-4-2,10.34,10.34,0,0,1-2.58-2.89,15.48,15.48,0,0,1-1.51-3.33H521.8v-4.9H529a10.72,10.72,0,0,0,.67,4.47,6.14,6.14,0,0,0,1.87,2.18,8.5,8.5,0,0,0,2.85,1.31,14.24,14.24,0,0,0,3.64.44,12.51,12.51,0,0,0,3.49-.45,7.76,7.76,0,0,0,2.65-1.33,5.73,5.73,0,0,0,1.68-2.11,6.46,6.46,0,0,0,.59-2.8,5.56,5.56,0,0,0-.73-3,7.07,7.07,0,0,0-1.86-2.07,10.89,10.89,0,0,0-2.5-1.39c-.9-.36-1.77-.68-2.6-.94l-6.24-1.77a18.17,18.17,0,0,1-3.75-1.6,11,11,0,0,1-2.91-2.36A10,10,0,0,1,524,844.6a13,13,0,0,1-.66-4.32,11.15,11.15,0,0,1,1-4.64,10.81,10.81,0,0,1,2.85-3.79,13.45,13.45,0,0,1,4.6-2.55,19.21,19.21,0,0,1,6.23-.93,15.92,15.92,0,0,1,4.26.54,13.23,13.23,0,0,1,3.53,1.53,12.39,12.39,0,0,1,2.79,2.36,14,14,0,0,1,2,3h2.13v4.9h-7A6.34,6.34,0,0,0,544.82,837Z"/><path class="cls-3" d="M601.18,829h14v4.9h-4.11v33.39h4.11v4.9h-14v-4.9h4.33V851.76h-25v15.53h4.33v4.9h-14v-4.9h4.1V833.9h-4.1V829h14v4.9h-4.33V847h25V833.9h-4.33Z"/><path class="cls-3" d="M623.34,829h30.95v12.22h-5.84v-7.29H633v13.82h13v4.9H633v14.64h15.42V860h5.84v12.19H623.34v-4.9h4.11V833.93h-4.11Z"/><path class="cls-3" d="M660,829h18a18,18,0,0,1,5.32.75,12.29,12.29,0,0,1,4.21,2.23,9.85,9.85,0,0,1,2.78,3.66,12,12,0,0,1,1,5,9.15,9.15,0,0,1-.59,3.2,11.11,11.11,0,0,1-1.62,2.94,12.78,12.78,0,0,1-2.46,2.41,11.38,11.38,0,0,1-3.11,1.62,6.54,6.54,0,0,1,1.44.9,8.45,8.45,0,0,1,1.37,1.42,12.1,12.1,0,0,1,1.16,1.91,10.66,10.66,0,0,1,.84,2.3l2.4,9.4h3.73l.06,5.41h-8.41l-3.22-13.13a10.26,10.26,0,0,0-2.69-5.2,7,7,0,0,0-4.94-1.67h-5.56v15.1H674v4.9H660v-4.9h4.11V833.93H660Zm9.69,4.93v13.59H678a10,10,0,0,0,3-.43,6.64,6.64,0,0,0,2.34-1.28,5.87,5.87,0,0,0,1.53-2.12,7.16,7.16,0,0,0,.56-3,6.52,6.52,0,0,0-1.94-5c-1.29-1.2-3.34-1.79-6.15-1.79Z"/><path class="cls-3" d="M701.53,829h30.94v12.22h-5.85v-7.29H711.21v13.82h13v4.9h-13v14.64h15.41V860h5.85v12.19H701.53v-4.9h4.1V833.93h-4.1Z"/><rect class="cls-3" x="86.53" y="913.23" width="43.2" height="4.32"/><path class="cls-3" d="M905.74,981.15l-9.07,11.14H906V994H894.38v-1.59l9.16-11.25h-8.68v-1.67h10.88Z"/><path class="cls-3" d="M915,992.67a3.71,3.71,0,0,0,4-3.33l1.89.3a5,5,0,0,1-1.9,3.41,6.36,6.36,0,0,1-4,1.26,6.52,6.52,0,0,1-5.11-2,8.2,8.2,0,0,1-1.75-5.66,8,8,0,0,1,1.83-5.51,6.34,6.34,0,0,1,5-2.07,5.85,5.85,0,0,1,4.57,1.79,7.14,7.14,0,0,1,1.63,5v1.22H910.22C910.33,990.83,911.94,992.67,915,992.67Zm-.1-11.93a4.28,4.28,0,0,0-3.22,1.21,5.74,5.74,0,0,0-1.44,3.54h8.78C918.91,982.32,917.53,980.74,914.93,980.74Z"/><path class="cls-3" d="M930.77,992.67a3.71,3.71,0,0,0,4-3.33l1.9.3a5,5,0,0,1-1.91,3.41,6.36,6.36,0,0,1-4,1.26,6.48,6.48,0,0,1-5.1-2,8.15,8.15,0,0,1-1.76-5.66,8,8,0,0,1,1.83-5.51,6.34,6.34,0,0,1,5-2.07,5.85,5.85,0,0,1,4.57,1.79,7.14,7.14,0,0,1,1.63,5v1.22H926C926.07,990.83,927.68,992.67,930.77,992.67Zm-.1-11.93a4.28,4.28,0,0,0-3.22,1.21,5.68,5.68,0,0,0-1.43,3.54h8.77Q934.58,980.74,930.67,980.74Z"/><path class="cls-3" d="M946.51,992.67a3.7,3.7,0,0,0,4-3.33l1.9.3a5,5,0,0,1-1.91,3.41,6.34,6.34,0,0,1-4,1.26,6.48,6.48,0,0,1-5.1-2,8.15,8.15,0,0,1-1.76-5.66,7.91,7.91,0,0,1,1.84-5.51,6.3,6.3,0,0,1,5-2.07A5.89,5.89,0,0,1,951,980.9a7.19,7.19,0,0,1,1.62,5v1.22H941.7C941.81,990.83,943.42,992.67,946.51,992.67Zm-.09-11.93a4.31,4.31,0,0,0-3.23,1.21,5.74,5.74,0,0,0-1.43,3.54h8.77Q950.32,980.74,946.42,980.74Z"/><path class="cls-3" d="M968.44,984.57V994h-2v-9a4.27,4.27,0,0,0-1-3,3.63,3.63,0,0,0-2.81-1.07,3.93,3.93,0,0,0-3.21,1.32,5.92,5.92,0,0,0-1.1,3.88V994h-2V979.45h2v1.93a5.15,5.15,0,0,1,4.64-2.27,5,5,0,0,1,5.46,5.46Z"/><path class="cls-3" d="M972.63,991.12h2.69V994h-2.69Z"/><path class="cls-3" d="M981.67,976.86h-2v-3.33h2Zm0,17.1h-2V979.45h2Z"/><path class="cls-3" d="M988.31,994h-2V979.45h2v2.84a4.6,4.6,0,0,1,4.32-2.84h1.08v1.93h-1.08a3.63,3.63,0,0,0-3.12,1.77,8.14,8.14,0,0,0-1.2,4.65Z"/><path class="cls-3" d="M993.59,821.3h-12v-1h12Zm-24,0h-12v-1h12Zm-24,0h-12v-1h12Zm-24,0h-12v-1h12Zm-24,0h-12v-1h12Zm-24,0h-12v-1h12Zm-24,0h-12v-1h12Zm-24,0h-12v-1h12Zm-24,0h-12v-1h12Zm-24,0h-12v-1h12Zm-24,0h-12v-1h12Zm-24,0h-12v-1h12Zm-24-.06c-4-.06-8-.17-12-.34l0-1c4,.17,8,.28,12,.34Zm-24-1c-4-.27-8-.59-12-1l.1-1c3.94.37,8,.7,11.94,1ZM657.68,818c-4-.48-8-1-11.9-1.6l.14-1c3.94.58,7.93,1.12,11.88,1.6Zm-23.76-3.52c-3.94-.69-7.91-1.44-11.8-2.23l.2-1c3.88.79,7.84,1.54,11.77,2.23Zm-23.54-4.77c-3.89-.89-7.82-1.85-11.66-2.85l.25-1c3.84,1,7.75,2,11.64,2.85Zm-23.25-6c-3.84-1.11-7.71-2.28-11.5-3.48l.3-1c3.78,1.2,7.64,2.36,11.47,3.46Zm-22.94-7.27c-3.77-1.3-7.59-2.68-11.33-4.09l.35-.93c3.74,1.4,7.54,2.78,11.31,4.08Zm-22.55-8.48c-3.7-1.51-7.43-3.09-11.09-4.69l.4-.92c3.65,1.6,7.38,3.18,11.07,4.68Zm-22-9.68c-3.62-1.7-7.26-3.47-10.82-5.27l.45-.89c3.56,1.79,7.19,3.56,10.79,5.26Zm-21.5-10.83c-3.52-1.89-7.06-3.85-10.52-5.83l.5-.87c3.45,2,7,3.93,10.49,5.82Zm-20.88-11.95c-3.41-2.07-6.84-4.22-10.19-6.38l.54-.84c3.34,2.15,6.76,4.3,10.17,6.37Zm-20.21-13c-3.29-2.25-6.6-4.57-9.84-6.91l.59-.81c3.23,2.33,6.53,4.65,9.81,6.89Zm-19.49-14.08c-3.16-2.41-6.34-4.91-9.45-7.42l.62-.78c3.11,2.51,6.28,5,9.44,7.41ZM418.8,713.29c-3.05-2.59-6.09-5.25-9.05-7.9l.67-.75c2.95,2.65,6,5.3,9,7.89Zm-17.89-16c-2.91-2.75-5.81-5.56-8.62-8.36l.71-.71c2.8,2.79,5.7,5.6,8.6,8.34Zm-17-17c-2.75-2.89-5.5-5.85-8.16-8.8l.74-.67c2.66,2.94,5.4,5.9,8.14,8.78Zm-16.09-17.82c-2.6-3-5.19-6.13-7.69-9.21l.77-.63c2.5,3.08,5.08,6.17,7.68,9.19Zm-15.13-18.62c-2.43-3.16-4.85-6.39-7.19-9.61l.8-.59c2.34,3.22,4.76,6.44,7.18,9.59Zm-14.13-19.4c-2.25-3.27-4.5-6.63-6.67-10l.84-.55c2.17,3.33,4.4,6.67,6.66,9.95Zm-13.07-20.1c-2.09-3.4-4.15-6.86-6.14-10.3l.87-.5c2,3.43,4,6.88,6.12,10.28Zm-12-20.75c-1.9-3.49-3.78-7.06-5.58-10.6l.89-.46c1.8,3.54,3.67,7.1,5.57,10.58Zm-10.87-21.35c-1.71-3.58-3.39-7.24-5-10.87l.91-.41c1.62,3.63,3.3,7.28,5,10.85Zm-9.73-21.88c-1.52-3.69-3-7.45-4.43-11.16l.93-.36c1.41,3.7,2.9,7.45,4.43,11.14Zm-8.57-22.44c-1.33-3.77-2.62-7.6-3.83-11.38l.95-.3c1.21,3.77,2.5,7.59,3.82,11.35ZM277,495.08c-1.12-3.83-2.21-7.72-3.23-11.57l1-.25c1,3.84,2.1,7.72,3.22,11.54Zm-6.14-23.22c-.91-3.87-1.79-7.81-2.6-11.72l1-.21c.81,3.9,1.68,7.84,2.59,11.7Zm-4.89-23.51c-.71-3.94-1.37-7.93-2-11.85l1-.15c.6,3.91,1.27,7.89,2,11.82Zm-3.64-23.75c-.49-4-1-8-1.34-11.93l1-.1c.4,3.95.85,8,1.35,11.91Zm-2.37-23.89c-.29-4-.53-8-.72-12l1-.05c.18,3.95.42,8,.72,12Zm-1.12-24c-.07-3.15-.1-6.35-.1-9.51v-2.5h1v2.5c0,3.16,0,6.35.1,9.49Zm.9-24h-1v-12h1Zm0-24h-1v-12h1Zm0-24h-1v-12h1Zm0-24h-1v-12h1Zm0-24h-1v-12h1Zm0-24h-1v-12h1Zm0-24h-1v-12h1Zm0-24h-1v-12h1Zm0-24h-1v-12h1Zm0-24h-1v-12h1Zm0-24h-1v-12h1Zm0-24h-1V86.4h1Z"/><polygon class="cls-3" points="115.44 124.78 86.57 124.78 106.97 92.8 89.86 92.8 89.86 86.4 118.64 86.4 98.24 118.38 115.44 118.38 115.44 124.78"/><polygon class="cls-3" points="150.55 124.78 125.05 124.78 124.95 86.4 150.55 86.4 150.55 92.8 131.37 92.8 131.43 118.38 150.55 118.38 150.55 124.78"/><rect class="cls-3" x="128.16" y="102.39" width="22.39" height="6.4"/><polygon class="cls-3" points="185.81 124.78 160.22 124.78 160.22 86.4 185.81 86.4 185.81 92.8 166.62 92.8 166.62 118.38 185.81 118.38 185.81 124.78"/><rect class="cls-3" x="163.42" y="102.39" width="22.39" height="6.4"/><polygon class="cls-3" points="220.99 124.78 195.4 124.78 195.4 86.4 220.99 86.4 220.99 92.8 201.8 92.8 201.8 118.38 220.99 118.38 220.99 124.78"/><rect class="cls-3" x="198.6" y="102.39" width="22.39" height="6.4"/><polygon class="cls-3" points="259.37 124.78 253 124.78 236.98 98.65 236.98 124.78 230.59 124.78 230.59 86.4 236.98 86.4 252.98 112.5 252.98 86.4 259.37 86.4 259.37 124.78"/><g class="cls-4"><image width="1080" height="1620" transform="translate(-83.11 907.34) scale(1.15)" xlink:href="../../../../../../Dropbox/Shizaru/ZEEEN/Guideline/Social/Instagram/Photos/_DSC6538.jpg"/></g></g></svg>