<?xml version="1.0" encoding="utf-8"?>
<!-- Generator: Adobe Illustrator 23.1.0, SVG Export Plug-In . SVG Version: 6.00 Build 0)  -->
<svg version="1.1" xmlns="http://www.w3.org/2000/svg" xmlns:xlink="http://www.w3.org/1999/xlink" x="0px" y="0px"
	 viewBox="0 0 504 504" style="enable-background:new 0 0 504 504;" xml:space="preserve">
<style type="text/css">
	.st0{fill:#DBD8D7;}
	.st1{opacity:8.000000e-02;fill:#FF8873;}
	.st2{fill:#F5F1F0;}
	.st3{fill:#BDB9B9;}
	.st4{fill:#FFFFFF;}
	.st5{fill:none;}
	.st6{fill:#FF8672;}
	.st7{fill:#504B4A;}
	.st8{fill:#4C4B4B;}
	.st9{fill:#AC2700;}
	.st10{fill:#C7C4C3;}
	.st11{fill:#FF8873;}
	.st12{clip-path:url(#SVGID_2_);}
	.st13{clip-path:url(#SVGID_4_);}
	.st14{fill:#FF8873;fill-opacity:0.5;}
	.st15{fill:#858282;}
	.st16{fill:#FFFFFF;fill-opacity:0.16;}
	.st17{fill:#FF8672;fill-opacity:8.000000e-02;}
	.st18{fill:#FF8672;fill-opacity:0.16;}
	.st19{fill:#FF8672;fill-opacity:0.32;}
	.st20{fill:#BFBBBA;}
	.st21{fill:#A8A5A5;}
	.st22{fill:#C4C4C4;}
	.st23{fill:#242323;}
	.st24{fill:#BFBCBC;}
	.st25{fill:#706E6E;}
	.st26{fill:#5C5A5A;}
	.st27{opacity:0.16;fill:#FF8873;}
</style>
<g id="Layer_2">
</g>
<g id="Layer_1">
	<g>
		<g>
			<g>
				<rect x="45" y="81" class="st4" width="414" height="342"/>
				<path class="st2" d="M459.5,423.5h-415v-343h415V423.5z M45.5,422.5h413v-341h-413V422.5z"/>
			</g>
		</g>
		<rect x="45" y="81" class="st20" width="414" height="225"/>
		<path class="st4" d="M211.5,157.5v72h90v-72H211.5z M283.5,171c2.7,0,4.5,1.8,4.5,4.5s-1.8,4.5-4.5,4.5s-4.5-1.8-4.5-4.5
			S280.8,171,283.5,171z M220.5,220.5v-19.8l18-16.2L261,207l9-9l22.5,22.5H220.5z"/>
		<path class="st4" d="M425.3,187.9l5.6,5.6l-5.6,5.6V187.9z"/>
		<path class="st4" d="M78.8,199.1l-5.6-5.6l5.6-5.6V199.1z"/>
		<g>
			<path d="M256.8,336.9c0.4,0.4,0.6,0.8,0.8,1.2c0.2,0.4,0.3,0.8,0.3,1.2c0,0.4-0.1,0.7-0.2,1c-0.1,0.3-0.3,0.6-0.6,0.8
				c-0.3,0.2-0.6,0.4-1,0.6c-0.4,0.1-0.8,0.2-1.3,0.2h-5.4l-0.1-2.2h5.2c0.7,0,1-0.2,1-0.7c0-0.2-0.1-0.5-0.3-0.7l-3.4-3.9l1.6-1.5
				L256.8,336.9z"/>
			<path d="M262.9,342c-0.4,0-0.7-0.1-1.1-0.2c-0.3-0.1-0.6-0.3-0.9-0.5c-0.3-0.2-0.5-0.6-0.6-1c-0.1-0.4-0.2-0.9-0.2-1.5v-9.4h2.1
				v8.9c0,0.4,0.1,0.8,0.3,1c0.2,0.3,0.5,0.4,0.9,0.4h0.5c0.3,0,0.4,0.4,0.4,1.1c0,0.8-0.1,1.2-0.4,1.2H262.9z"/>
			<path d="M265.7,339.8c0.9,0,1.4-0.4,1.4-1.3v-2.4h2.1v2.5c0,1.1-0.3,2-0.9,2.5c-0.6,0.6-1.4,0.9-2.4,0.9h-2
				c-0.2,0-0.3-0.1-0.4-0.3s-0.1-0.4-0.1-0.8c0-0.4,0-0.7,0.1-0.9c0.1-0.2,0.2-0.3,0.4-0.3H265.7z M266.8,346.3h-2.3v-2.1h2.3V346.3
				z"/>
			<path d="M271.4,330.4c-0.3,0-0.5,0-0.6,0.1c-0.1,0.1-0.3,0.2-0.4,0.5l-0.4,0.9l-1.3-0.6l0.6-1.4c0.1-0.3,0.2-0.5,0.4-0.7
				c0.1-0.2,0.2-0.3,0.4-0.4c0.1-0.1,0.3-0.2,0.5-0.2c0.2,0,0.5-0.1,0.7-0.1h4.1l-0.1,1.9H271.4z M271.5,332.5h2.1v9.5h-2.1V332.5z"
				/>
			<path d="M281.8,342c-0.6,0-1-0.1-1.4-0.3c-0.4-0.2-0.7-0.4-1-0.7c-0.3-0.3-0.4-0.6-0.5-1c-0.1-0.4-0.2-0.8-0.2-1.2V336h2v2.3
				c0,0.4,0.1,0.8,0.3,1c0.2,0.3,0.6,0.4,1.2,0.4h6.4c0.5,0,0.8-0.1,1-0.3c0.2-0.2,0.3-0.5,0.3-1v-2.4h2.1v2.9c0,0.5-0.1,1-0.3,1.3
				c-0.2,0.4-0.4,0.7-0.7,1c-0.3,0.3-0.6,0.4-1,0.6c-0.4,0.1-0.8,0.2-1.1,0.2H281.8z M285,334.4h-2.1v-2h2.1V334.4z M287.9,334.4
				h-2.1v-2h2.1V334.4z"/>
			<path d="M301.4,336.9c0.4,0.4,0.6,0.8,0.8,1.2c0.2,0.4,0.3,0.8,0.3,1.2c0,0.4-0.1,0.7-0.2,1c-0.1,0.3-0.3,0.6-0.6,0.8
				c-0.3,0.2-0.6,0.4-1,0.6c-0.4,0.1-0.8,0.2-1.3,0.2h-5.4l-0.1-2.2h5.2c0.7,0,1-0.2,1-0.7c0-0.2-0.1-0.5-0.3-0.7l-3.4-3.9l1.6-1.5
				L301.4,336.9z"/>
			<path d="M307.5,342c-0.4,0-0.7-0.1-1.1-0.2c-0.3-0.1-0.6-0.3-0.9-0.5c-0.3-0.2-0.5-0.6-0.6-1c-0.1-0.4-0.2-0.9-0.2-1.5v-9.4h2.1
				v8.9c0,0.4,0.1,0.8,0.3,1c0.2,0.3,0.5,0.4,0.9,0.4h0.5c0.3,0,0.4,0.4,0.4,1.1c0,0.8-0.1,1.2-0.4,1.2H307.5z"/>
			<path d="M309.5,339.8c0.4,0,0.9,0,1.4,0c0.5,0,1-0.1,1.5-0.3l-2.6-3.3l1-2h5.3c0.6,0,1.2,0.1,1.6,0.4c0.4,0.3,0.7,0.7,0.8,1.1
				c0,0.1,0,0.2,0.1,0.3c0,0.1,0,0.2,0,0.3c0,0.2,0,0.4-0.1,0.6c-0.1,0.2-0.2,0.4-0.3,0.7c-0.1,0.3-0.4,0.5-0.6,0.9
				c-0.3,0.3-0.6,0.7-1.1,1.1c0.3,0.1,0.7,0.2,1,0.2c0.4,0,0.8,0,1.2,0h1.4c0.2,0,0.3,0.1,0.4,0.3c0.1,0.2,0.1,0.4,0.1,0.8
				c0,0.4,0,0.7-0.1,0.9c-0.1,0.2-0.2,0.3-0.4,0.3h-1.8c-0.4,0-0.8,0-1.1,0c-0.4,0-0.7-0.1-1-0.1c-0.3-0.1-0.6-0.2-0.9-0.3
				c-0.3-0.1-0.6-0.3-0.9-0.6c-0.4,0.2-0.7,0.4-1.1,0.6c-0.4,0.1-0.7,0.3-1.1,0.3c-0.4,0.1-0.8,0.1-1.2,0.2c-0.4,0-0.8,0-1.3,0h-1.3
				c-0.2,0-0.3-0.1-0.4-0.3s-0.1-0.4-0.1-0.8c0-0.4,0-0.7,0.1-0.9c0.1-0.2,0.2-0.3,0.4-0.3H309.5z M316.4,336.8
				c0-0.4-0.3-0.5-0.8-0.5h-3.2l2.2,2.8c0.7-0.6,1.2-1,1.5-1.4C316.3,337.3,316.4,337,316.4,336.8z"/>
			<path d="M321,339.8c0.9,0,1.4-0.4,1.4-1.3v-2.4h2v2.4c0,0.5,0.1,0.8,0.4,1s0.6,0.3,1,0.3c1,0,1.5-0.4,1.5-1.3v-2.4h2.1v2.4
				c0,0.5,0.1,0.8,0.4,1c0.2,0.2,0.5,0.3,0.9,0.3c0.4,0,0.7-0.1,0.9-0.3s0.3-0.5,0.3-1v-2.4h2.1v2.5c0,1.1-0.3,2-0.9,2.5
				c-0.6,0.6-1.4,0.9-2.4,0.9c-0.5,0-0.9-0.1-1.3-0.3c-0.4-0.2-0.8-0.5-1.1-1c-0.3,0.5-0.7,0.9-1.1,1c-0.4,0.2-0.9,0.3-1.4,0.3
				c-0.5,0-1-0.1-1.4-0.3c-0.4-0.2-0.8-0.5-1.1-1c-0.3,0.5-0.7,0.9-1.1,1c-0.4,0.2-0.8,0.3-1.3,0.3h-0.9c-0.2,0-0.3-0.1-0.4-0.3
				s-0.1-0.4-0.1-0.8c0-0.4,0-0.7,0.1-0.9c0.1-0.2,0.2-0.3,0.4-0.3H321z"/>
			<path d="M342.1,342c-0.6,0-1-0.1-1.4-0.3c-0.4-0.2-0.7-0.4-1-0.7c-0.3-0.3-0.4-0.6-0.5-1c-0.1-0.4-0.2-0.8-0.2-1.2V336h2v2.3
				c0,0.4,0.1,0.8,0.3,1c0.2,0.3,0.6,0.4,1.2,0.4h6.4c0.5,0,0.8-0.1,1-0.3c0.2-0.2,0.3-0.5,0.3-1v-2.4h2.1v2.9c0,0.5-0.1,1-0.3,1.3
				c-0.2,0.4-0.4,0.7-0.7,1c-0.3,0.3-0.6,0.4-1,0.6c-0.4,0.1-0.8,0.2-1.1,0.2H342.1z M346.9,346.3h-2.3v-2.1h2.3V346.3z"/>
			<path d="M354.7,329.4h2.1V342h-2.1V329.4z"/>
			<path d="M361,344.7c0.5,0,1-0.1,1.3-0.2s0.7-0.3,0.9-0.6c0.2-0.2,0.4-0.5,0.6-0.9c0.1-0.3,0.2-0.7,0.2-1h-1.4
				c-0.7,0-1.3-0.1-1.7-0.2c-0.4-0.1-0.8-0.4-1.1-0.7c-0.3-0.3-0.4-0.6-0.5-1.1c-0.1-0.4-0.2-0.9-0.2-1.4s0.1-1,0.2-1.5
				c0.1-0.5,0.4-0.9,0.7-1.2c0.3-0.4,0.7-0.6,1.1-0.8c0.4-0.2,0.9-0.3,1.5-0.3c0.5,0,0.9,0.1,1.3,0.2c0.4,0.1,0.8,0.4,1.1,0.7
				s0.6,0.7,0.7,1.3c0.2,0.5,0.3,1.1,0.3,1.9v0.9h1.6c0.3,0,0.4,0.4,0.4,1.1c0,0.8-0.1,1.2-0.4,1.2H366c0,0.7-0.2,1.3-0.4,1.9
				c-0.2,0.6-0.6,1.1-1,1.6c-0.4,0.4-0.9,0.8-1.5,1.1c-0.6,0.3-1.3,0.4-2,0.4h-2l-0.1-2.2H361z M361.2,338.5c0,0.5,0.1,0.8,0.3,1
				c0.2,0.2,0.6,0.3,1.2,0.3h1.3v-1c0-0.7-0.1-1.2-0.4-1.5c-0.3-0.3-0.6-0.4-1.1-0.4c-0.4,0-0.8,0.1-1,0.4
				C361.3,337.6,361.2,338,361.2,338.5z"/>
			<path d="M373.5,340.9c-0.4,0.2-0.7,0.4-1.1,0.5c-0.4,0.1-0.7,0.3-1.1,0.3c-0.4,0.1-0.8,0.2-1.3,0.2c-0.5,0-1,0.1-1.6,0.1h-0.7
				c-0.2,0-0.3-0.1-0.4-0.3s-0.1-0.4-0.1-0.8c0-0.4,0-0.7,0.1-0.9c0.1-0.2,0.2-0.3,0.4-0.3h0.8c0.5,0,1,0,1.4,0
				c0.4,0,0.8-0.1,1.1-0.1c0.3-0.1,0.6-0.1,0.9-0.2c0.3-0.1,0.6-0.2,0.9-0.4l2.6-1.5c-0.1-0.2-0.2-0.3-0.3-0.5
				c-0.1-0.1-0.2-0.2-0.3-0.3c-0.1-0.1-0.3-0.2-0.5-0.2c-0.2,0-0.4-0.1-0.7-0.1h-4.3l0.1-2.2h4.5c0.4,0,0.8,0.1,1.1,0.2
				c0.4,0.1,0.7,0.3,1.1,0.6c0.3,0.3,0.6,0.7,0.9,1.3c0.3,0.5,0.5,1.3,0.7,2.2L373.5,340.9z M373.9,332.1h-2.3V330h2.3V332.1z"/>
			<path d="M386.3,337.3c-0.6,0-1.1-0.2-1.4-0.5c0,0.3,0,0.5,0.1,0.8c0,0.3,0,0.6,0,0.9v4.8h-2.1v-4.9c0-0.8,0-1.5-0.1-2.1
				c0-0.6-0.1-1.1-0.2-1.6c-0.1-0.5-0.2-0.9-0.3-1.3c-0.1-0.4-0.2-0.9-0.4-1.4l2-0.7c0.1,0.5,0.2,0.9,0.3,1.3
				c0.1,0.4,0.2,0.8,0.3,1.2c0.1,0.2,0.1,0.4,0.2,0.5c0.1,0.2,0.2,0.3,0.3,0.5c0.1,0.1,0.2,0.2,0.4,0.3c0.2,0.1,0.3,0.1,0.6,0.1
				c0.4,0,0.7-0.1,0.9-0.3s0.3-0.5,0.3-0.8c0-0.4-0.1-1.2-0.3-2.3l2-0.4c0.1,0.5,0.2,1,0.3,1.5c0.1,0.5,0.1,0.9,0.1,1.4
				c0,0.5-0.1,0.9-0.2,1.3c-0.1,0.4-0.3,0.7-0.6,1c-0.2,0.3-0.6,0.5-0.9,0.7C387.2,337.2,386.8,337.3,386.3,337.3z"/>
			<path d="M398.3,341.7c0,0.7-0.1,1.4-0.4,2c-0.2,0.6-0.6,1.2-1,1.7c-0.4,0.5-0.9,0.8-1.5,1.1c-0.6,0.3-1.2,0.4-1.9,0.4h-1.3
				l-0.1-2.2h0.9c0.6,0,1.1-0.1,1.5-0.3c0.4-0.2,0.8-0.4,1-0.7c0.3-0.3,0.5-0.6,0.6-1c0.1-0.4,0.2-0.7,0.2-1.1v-5.6h2.1v2.4
				c0,0.4,0.1,0.8,0.4,1c0.3,0.2,0.6,0.3,1,0.3h0.2c0.3,0,0.4,0.4,0.4,1.1c0,0.8-0.1,1.2-0.4,1.2h-0.2c-0.3,0-0.5,0-0.8-0.1
				c-0.3-0.1-0.5-0.3-0.7-0.5V341.7z"/>
			<path d="M401.4,339.8c0.9,0,1.4-0.4,1.4-1.3v-2.4h2.1v2.4c0,0.5,0.1,0.8,0.4,1c0.3,0.2,0.6,0.3,1,0.3h0.5c0.3,0,0.5,0.4,0.5,1.1
				c0,0.8-0.2,1.2-0.5,1.2h-0.6c-0.5,0-1-0.1-1.4-0.3c-0.4-0.2-0.8-0.5-1.1-1c-0.3,0.5-0.7,0.9-1.1,1c-0.4,0.2-0.8,0.3-1.3,0.3H400
				c-0.2,0-0.3-0.1-0.4-0.3s-0.1-0.4-0.1-0.8c0-0.4,0-0.7,0.1-0.9c0.1-0.2,0.2-0.3,0.4-0.3H401.4z M403.2,333.7h-2.1v-2h2.1V333.7z
				 M406.1,333.7H404v-2h2.1V333.7z"/>
			<path d="M407,339.8c0.5,0,0.8-0.1,1.1-0.3c0.3-0.2,0.4-0.5,0.4-0.9v-0.4c0-0.5,0.1-1,0.2-1.5c0.2-0.5,0.4-0.9,0.7-1.2
				c0.3-0.3,0.7-0.6,1.1-0.8c0.4-0.2,0.9-0.3,1.4-0.3c0.6,0,1,0.1,1.5,0.3c0.4,0.2,0.8,0.4,1.1,0.8c0.3,0.3,0.5,0.7,0.6,1.2
				c0.1,0.5,0.2,1,0.2,1.5c0,1.2-0.3,2.2-0.9,2.8c-0.6,0.7-1.4,1-2.5,1c-0.5,0-1.1-0.1-1.5-0.3c-0.5-0.2-0.9-0.5-1.1-1
				c-0.3,0.5-0.6,0.9-1,1.1c-0.4,0.2-0.8,0.3-1.2,0.3h-0.2c-0.2,0-0.3-0.1-0.4-0.3s-0.1-0.4-0.1-0.8c0-0.4,0-0.7,0.1-0.9
				c0.1-0.2,0.2-0.3,0.4-0.3H407z M413.3,338.3c0-0.5-0.1-0.8-0.3-1.2c-0.2-0.3-0.6-0.5-1.1-0.5c-0.5,0-0.9,0.2-1.1,0.5
				s-0.3,0.7-0.3,1.2c0,0.5,0.1,0.8,0.4,1.1c0.3,0.2,0.6,0.4,1.1,0.4C412.9,339.8,413.3,339.3,413.3,338.3z"/>
			<path d="M424.9,339.5c0.1-0.7,0.3-1.4,0.4-2.1c0.1-0.7,0.3-1.3,0.6-2c0.2-0.7,0.5-1.4,0.9-2.1c0.3-0.7,0.8-1.5,1.3-2.3l1.7,1.1
				c-0.5,0.9-1,1.7-1.4,2.5c-0.4,0.8-0.8,1.6-1.1,2.5c-0.3,0.9-0.6,1.8-0.9,2.8c-0.3,1-0.5,2.1-0.8,3.4h-1.4
				c-0.2-1.3-0.5-2.4-0.8-3.4c-0.3-1-0.6-1.9-0.9-2.8c-0.3-0.9-0.7-1.7-1.1-2.5c-0.4-0.8-0.9-1.6-1.4-2.5l1.7-1.1
				c0.5,0.8,0.9,1.6,1.3,2.3c0.3,0.7,0.6,1.4,0.9,2.1c0.2,0.7,0.4,1.3,0.6,2C424.6,338,424.8,338.7,424.9,339.5z"/>
			<path d="M435.8,335c-0.1,0.7-0.3,1.4-0.4,2.1c-0.1,0.7-0.3,1.3-0.6,2s-0.5,1.4-0.9,2.1c-0.3,0.7-0.8,1.5-1.3,2.3l-1.7-1.1
				c0.5-0.9,1-1.7,1.4-2.5c0.4-0.8,0.8-1.6,1.1-2.5c0.3-0.9,0.6-1.8,0.9-2.8c0.3-1,0.5-2.1,0.8-3.4h1.4c0.2,1.3,0.5,2.4,0.8,3.4
				c0.3,1,0.6,1.9,0.9,2.8c0.3,0.9,0.7,1.7,1.1,2.5c0.4,0.8,0.9,1.6,1.4,2.5l-1.7,1.1c-0.5-0.8-0.9-1.6-1.3-2.3
				c-0.3-0.7-0.6-1.4-0.9-2.1s-0.4-1.3-0.6-2C436,336.4,435.9,335.7,435.8,335z"/>
		</g>
		<g>
			<path class="st8" d="M374.7,358c0,0.3,0.1,0.6,0.3,0.7c0.2,0.2,0.5,0.3,0.9,0.3c0.4,0,0.7-0.1,1-0.3c0.2-0.2,0.3-0.4,0.3-0.8
				v-1.9h0.9v1.9c0,0.4,0.1,0.7,0.3,0.8c0.2,0.2,0.5,0.2,0.8,0.2c0.4,0,0.6-0.1,0.8-0.3c0.2-0.2,0.3-0.4,0.3-0.8v-1.9h0.9v1.9
				c0,0.2,0,0.4,0.1,0.5c0.1,0.1,0.2,0.2,0.3,0.3c0.1,0.1,0.2,0.1,0.4,0.2c0.1,0,0.3,0.1,0.4,0.1h0.3c0.2,0,0.3,0.2,0.3,0.5
				c0,0.3-0.1,0.5-0.3,0.5h-0.3c-0.3,0-0.6-0.1-0.9-0.2s-0.5-0.4-0.7-0.7c-0.2,0.3-0.4,0.6-0.7,0.7s-0.5,0.2-0.8,0.2
				c-0.3,0-0.6-0.1-0.9-0.2s-0.5-0.4-0.7-0.7c-0.2,0.3-0.5,0.6-0.7,0.7c-0.3,0.1-0.6,0.2-0.9,0.2c-0.3,0-0.5,0-0.7-0.1
				s-0.4-0.2-0.5-0.4v0.3c0,0.5-0.1,0.9-0.2,1.3c-0.2,0.4-0.4,0.8-0.7,1.1c-0.3,0.3-0.6,0.6-1,0.8s-0.9,0.3-1.4,0.3h-0.8
				c-1,0-1.8-0.3-2.3-0.9c-0.6-0.6-0.8-1.5-0.8-2.6v-2.4h0.9v2.3c0,0.4,0,0.7,0.1,1.1c0.1,0.3,0.2,0.6,0.4,0.8s0.5,0.4,0.8,0.5
				c0.3,0.1,0.7,0.2,1.1,0.2h0.6c0.4,0,0.8-0.1,1.1-0.2c0.3-0.1,0.6-0.3,0.8-0.6c0.2-0.2,0.4-0.5,0.5-0.8c0.1-0.3,0.2-0.6,0.2-1
				v-3.6h0.9V358z M377.3,354.4h-1.1v-1h1.1V354.4z M378.2,352.8h-1.1v-0.9h1.1V352.8z M379,354.4H378v-1h1.1V354.4z"/>
			<path class="st8" d="M383.6,359.1c0.4,0,0.7-0.1,0.9-0.3c0.2-0.2,0.3-0.4,0.3-0.8v-1.9h0.9v1.9c0,0.2,0,0.4,0.1,0.5
				s0.2,0.2,0.3,0.3c0.1,0.1,0.2,0.1,0.4,0.2c0.1,0,0.3,0.1,0.4,0.1h0.4c0.2,0,0.3,0.2,0.3,0.5c0,0.3-0.1,0.5-0.3,0.5h-0.4
				c-0.3,0-0.6-0.1-0.9-0.2s-0.5-0.4-0.7-0.7c-0.2,0.3-0.4,0.6-0.7,0.7c-0.3,0.1-0.6,0.2-0.9,0.2h-1c-0.1,0-0.2,0-0.2-0.1
				c0-0.1-0.1-0.2-0.1-0.3c0-0.2,0-0.3,0.1-0.4c0-0.1,0.1-0.1,0.2-0.1H383.6z M384.4,362.5h-1v-1h1V362.5z M386.2,362.5h-1v-1h1
				V362.5z"/>
			<path class="st8" d="M388.4,359.1c0.4,0,0.6-0.1,0.8-0.3c0.2-0.2,0.3-0.4,0.3-0.8v-1.9h0.9v1.9c0,0.6-0.2,1.1-0.5,1.5
				c-0.4,0.3-0.8,0.5-1.5,0.5h-1.3c-0.1,0-0.2,0-0.2-0.1c0-0.1-0.1-0.2-0.1-0.3c0-0.2,0-0.3,0.1-0.4c0-0.1,0.1-0.1,0.2-0.1H388.4z
				 M388.4,362.5h-1.1v-1h1.1V362.5z M389.3,364.1h-1.1v-1h1.1V364.1z M390.1,362.5H389v-1h1.1V362.5z"/>
			<path class="st8" d="M398.6,357.8c0,0.4,0.1,0.7,0.2,0.9c0.2,0.2,0.4,0.4,0.8,0.4h0.2c0.1,0,0.2,0,0.2,0.1c0,0.1,0.1,0.2,0.1,0.3
				c0,0.2,0,0.3-0.1,0.4c0,0.1-0.1,0.1-0.2,0.1h-0.2c-0.4,0-0.8-0.1-1.1-0.3c-0.3-0.2-0.5-0.5-0.6-1c-0.1,0.1-0.2,0.2-0.4,0.3
				s-0.3,0.2-0.5,0.2c-0.2,0-0.4,0.1-0.5,0.1c-0.2,0-0.3,0-0.5,0c-0.7,0-1.2-0.2-1.5-0.5c-0.3-0.3-0.5-0.9-0.5-1.6
				c0-0.3,0-0.7,0.1-1c0.1-0.3,0.2-0.6,0.4-0.9c0.2-0.3,0.4-0.5,0.7-0.6c0.3-0.2,0.6-0.2,1-0.2h1.5v-0.9h0.9V357.8z M396.2,358.6
				c0.5,0,0.8-0.1,1.1-0.3s0.4-0.4,0.4-0.7v-2h-1.4c-0.5,0-0.8,0.2-1.1,0.5s-0.4,0.7-0.4,1.2c0,0.5,0.1,0.9,0.4,1
				C395.4,358.5,395.8,358.6,396.2,358.6z"/>
			<path class="st8" d="M402.5,359.1c-0.4-0.3-0.8-0.6-1-0.9c-0.3-0.4-0.4-0.8-0.4-1.2c0-0.3,0.1-0.6,0.2-0.9
				c0.1-0.3,0.3-0.5,0.5-0.7c0.2-0.2,0.5-0.4,0.8-0.5c0.3-0.1,0.6-0.2,1-0.2s0.7,0.1,1,0.2c0.3,0.1,0.5,0.3,0.7,0.5
				c0.2,0.2,0.3,0.5,0.4,0.7c0.1,0.3,0.1,0.5,0.1,0.8c0,0.9-0.4,1.6-1.3,2.2h2.5c0.2,0,0.3,0.2,0.3,0.5c0,0.3-0.1,0.5-0.3,0.5h-1.5
				c-0.4,0-0.8,0-1.1,0s-0.6-0.1-0.8-0.2c-0.1,0.1-0.3,0.1-0.5,0.1c-0.2,0-0.4,0-0.6,0.1c-0.2,0-0.4,0-0.6,0s-0.3,0-0.5,0h-1.6
				c-0.1,0-0.2,0-0.2-0.1c0-0.1-0.1-0.2-0.1-0.3c0-0.2,0-0.3,0.1-0.4c0-0.1,0.1-0.1,0.2-0.1H402.5z M403.4,355.6
				c-0.5,0-0.8,0.1-1.1,0.4c-0.3,0.3-0.4,0.6-0.4,1.1c0,0.2,0,0.4,0.1,0.6c0.1,0.2,0.2,0.4,0.4,0.5c0.1,0.2,0.3,0.3,0.5,0.4
				c0.2,0.1,0.4,0.2,0.5,0.3c0.1-0.1,0.3-0.2,0.5-0.3c0.2-0.1,0.3-0.2,0.4-0.4c0.1-0.1,0.2-0.3,0.3-0.5s0.1-0.4,0.1-0.6
				c0-0.5-0.1-0.8-0.4-1.1C404.2,355.7,403.8,355.6,403.4,355.6z M403.1,353.4H402v-1h1.1V353.4z M404.8,353.4h-1.1v-1h1.1V353.4z"
				/>
			<path class="st8" d="M407.9,359.1c0.4,0,0.7-0.1,0.9-0.3c0.2-0.2,0.3-0.4,0.3-0.8v-1.9h0.9v1.9c0,0.2,0,0.4,0.1,0.5
				s0.2,0.2,0.3,0.3c0.1,0.1,0.2,0.1,0.4,0.2c0.1,0,0.3,0.1,0.4,0.1h0.4c0.2,0,0.3,0.2,0.3,0.5c0,0.3-0.1,0.5-0.3,0.5h-0.4
				c-0.3,0-0.6-0.1-0.9-0.2s-0.5-0.4-0.7-0.7c-0.2,0.3-0.4,0.6-0.7,0.7c-0.3,0.1-0.6,0.2-0.9,0.2h-1c-0.1,0-0.2,0-0.2-0.1
				c0-0.1-0.1-0.2-0.1-0.3c0-0.2,0-0.3,0.1-0.4c0-0.1,0.1-0.1,0.2-0.1H407.9z M408.8,362.5h-1v-1h1V362.5z M410.6,362.5h-1v-1h1
				V362.5z"/>
			<path class="st8" d="M413.8,359.1c0.2,0,0.4,0,0.6,0c0.2,0,0.3,0,0.5,0c-0.5-0.2-0.9-0.3-1.2-0.5c-0.3-0.2-0.5-0.3-0.7-0.5
				c-0.2-0.2-0.3-0.4-0.3-0.6c0-0.2-0.1-0.4-0.1-0.7c0-0.3,0-0.5,0.1-0.8c0.1-0.3,0.2-0.5,0.4-0.7c0.2-0.2,0.4-0.4,0.7-0.5
				c0.3-0.1,0.6-0.2,1-0.2c0.3,0,0.7,0,0.9,0.1c0.3,0.1,0.5,0.2,0.7,0.5c0.2,0.2,0.4,0.5,0.5,0.8c0.1,0.3,0.2,0.7,0.2,1.2v0.6
				c0,0.7-0.2,1.2-0.6,1.6c-0.4,0.4-1.1,0.6-2,0.6h-3.2c-0.1,0-0.2,0-0.2-0.1c0-0.1-0.1-0.2-0.1-0.3c0-0.2,0-0.3,0.1-0.4
				c0-0.1,0.1-0.1,0.2-0.1H413.8z M414.9,355.5c-0.2,0-0.4,0-0.6,0.1c-0.2,0.1-0.3,0.2-0.4,0.3c-0.1,0.1-0.2,0.3-0.3,0.4
				c-0.1,0.2-0.1,0.3-0.1,0.5c0,0.2,0,0.3,0.1,0.5c0,0.1,0.1,0.3,0.3,0.4c0.2,0.1,0.4,0.3,0.7,0.5c0.3,0.2,0.8,0.4,1.4,0.6
				c0.3-0.2,0.4-0.6,0.4-1.1v-0.4c0-0.6-0.1-1-0.3-1.3C415.9,355.6,415.5,355.5,414.9,355.5z M414.6,353.2h-1.1v-1h1.1V353.2z
				 M416.4,353.2h-1.1v-1h1.1V353.2z"/>
			<path class="st8" d="M423.7,356.8c0.2,0.3,0.4,0.5,0.5,0.8s0.2,0.5,0.2,0.7c0,0.5-0.2,0.9-0.5,1.2c-0.3,0.3-0.8,0.5-1.5,0.5h-3.8
				l-0.1-0.9h3.7c0.4,0,0.6-0.1,0.8-0.2c0.2-0.2,0.3-0.4,0.3-0.6c0-0.1,0-0.3-0.1-0.4c-0.1-0.2-0.2-0.3-0.3-0.4l-2.5-2.8l0.7-0.6
				L423.7,356.8z"/>
			<path class="st8" d="M430.2,356.7c-0.2,0-0.4,0-0.6-0.1c-0.2-0.1-0.4-0.2-0.5-0.4c0,0.2,0,0.4,0,0.7c0,0.2,0,0.5,0,0.7v3.3h-0.9
				v-3.3c0-0.5,0-1,0-1.4c0-0.4-0.1-0.8-0.1-1.1s-0.1-0.7-0.2-1c-0.1-0.3-0.2-0.6-0.3-0.9l0.8-0.3c0.1,0.2,0.1,0.4,0.2,0.6
				c0,0.2,0.1,0.3,0.1,0.5c0,0.2,0.1,0.3,0.1,0.4c0,0.1,0.1,0.3,0.1,0.5c0.1,0.3,0.2,0.6,0.4,0.8c0.2,0.2,0.4,0.3,0.7,0.3
				c0.3,0,0.5-0.1,0.8-0.3c0.2-0.2,0.3-0.4,0.3-0.7c0-0.2,0-0.5-0.1-0.8c0-0.3-0.1-0.7-0.2-1l0.9-0.2c0.1,0.3,0.1,0.7,0.2,1
				c0,0.3,0.1,0.7,0.1,1c0,0.3,0,0.6-0.1,0.8c-0.1,0.2-0.2,0.4-0.4,0.6c-0.2,0.2-0.4,0.3-0.6,0.4
				C430.7,356.7,430.5,356.7,430.2,356.7z"/>
			<path class="st8" d="M433.4,358.9c0-0.3,0-0.6,0.1-0.9c0.1-0.3,0.2-0.7,0.4-1.1c0.2-0.4,0.5-0.8,0.9-1.3c0.4-0.5,0.8-1.1,1.4-1.7
				l-0.6-0.6l0.5-0.6c0.9,0.7,1.6,1.4,2.1,2c0.5,0.6,1,1.1,1.3,1.6c0.3,0.5,0.5,0.9,0.6,1.3c0.1,0.4,0.2,0.8,0.2,1.2
				c0,0.4-0.1,0.7-0.2,1c-0.1,0.3-0.3,0.5-0.5,0.7c-0.2,0.2-0.4,0.3-0.6,0.4c-0.2,0.1-0.5,0.1-0.7,0.1c-0.3,0-0.6-0.1-0.9-0.2
				c-0.2-0.1-0.5-0.3-0.6-0.5c-0.2,0.2-0.4,0.4-0.7,0.5c-0.3,0.1-0.5,0.2-0.8,0.2c-0.6,0-1.1-0.2-1.4-0.5S433.4,359.5,433.4,358.9z
				 M439.5,358.7c0-0.3,0-0.5-0.1-0.8c-0.1-0.3-0.2-0.6-0.4-1c-0.2-0.4-0.5-0.7-0.8-1.1c-0.3-0.4-0.8-0.9-1.3-1.3
				c-0.9,0.9-1.5,1.7-2,2.4c-0.4,0.7-0.6,1.3-0.6,1.9c0,0.4,0.1,0.8,0.3,1c0.2,0.2,0.5,0.3,0.8,0.3c0.1,0,0.3,0,0.4-0.1
				c0.1,0,0.3-0.1,0.4-0.2c0.1-0.1,0.2-0.2,0.3-0.4c0.1-0.1,0.1-0.3,0.1-0.5v-0.9h0.8v0.9c0,0.2,0,0.3,0,0.5c0,0.1-0.1,0.2-0.1,0.3
				c0.1,0.1,0.3,0.3,0.5,0.3c0.2,0.1,0.4,0.1,0.6,0.1c0.3,0,0.6-0.1,0.8-0.3C439.4,359.4,439.5,359.1,439.5,358.7z"/>
		</g>
		<g>
			<path class="st8" d="M128.3,346.5v-18h-13.5l0,18h2.3l4.5-4.5l4.5,4.5H128.3z M117,343.3l0-12.6h9v12.6l-4.5-4.5L117,343.3z"/>
			<rect x="108" y="324" class="st5" width="27" height="27"/>
		</g>
		<g>
			<path class="st8" d="M81.7,341.3l-5.2-5.2l-5.2,5.2l-1.6-1.6l6.8-6.8l6.8,6.8L81.7,341.3z"/>
			<rect x="63" y="324" class="st5" width="27" height="27"/>
		</g>
		<g>
			<path d="M374.5,392.6c0,0.4,0.1,0.7,0.3,0.9c0.2,0.2,0.4,0.3,0.8,0.3h0.4c0.2,0,0.3,0.1,0.3,0.3c0.1,0.2,0.1,0.4,0.1,0.7
				c0,0.4,0,0.6-0.1,0.8c-0.1,0.2-0.2,0.3-0.3,0.3h-0.4c-0.6,0-1.2-0.1-1.5-0.3s-0.7-0.6-0.9-1.1c-0.3,0.4-0.7,0.6-1.1,0.7
				c-0.4,0.1-0.8,0.1-1.2,0.1c-0.9,0-1.6-0.3-2-0.8c-0.5-0.5-0.7-1.3-0.7-2.3c0-0.5,0.1-0.9,0.2-1.4c0.1-0.4,0.3-0.8,0.6-1.2
				c0.3-0.3,0.6-0.6,1-0.8c0.4-0.2,0.9-0.3,1.4-0.3h1.5v-1.3h1.9V392.6z M371.2,393.4c0.5,0,0.9-0.1,1.1-0.3
				c0.3-0.2,0.4-0.5,0.4-0.8v-1.8h-1.3c-0.5,0-0.9,0.2-1.1,0.5c-0.2,0.3-0.3,0.7-0.3,1.2c0,0.4,0.1,0.8,0.3,1
				C370.4,393.3,370.7,393.4,371.2,393.4z"/>
			<path d="M377.1,393.9c0.4,0,0.8,0,1.3,0c0.5,0,0.9-0.1,1.4-0.2l-2.4-3.1l1-1.8h4.9c0.6,0,1.1,0.1,1.5,0.4c0.4,0.3,0.6,0.6,0.7,1
				c0,0.1,0,0.2,0.1,0.3s0,0.2,0,0.3c0,0.2,0,0.3-0.1,0.5s-0.1,0.4-0.3,0.6c-0.1,0.2-0.3,0.5-0.6,0.8s-0.6,0.6-1,1
				c0.3,0.1,0.6,0.2,1,0.2c0.3,0,0.7,0,1.1,0h1.3c0.2,0,0.3,0.1,0.3,0.3c0.1,0.2,0.1,0.4,0.1,0.7c0,0.4,0,0.6-0.1,0.8
				c-0.1,0.2-0.2,0.3-0.3,0.3h-1.7c-0.4,0-0.7,0-1.1,0c-0.3,0-0.6-0.1-0.9-0.1c-0.3-0.1-0.6-0.2-0.9-0.3c-0.3-0.1-0.5-0.3-0.8-0.5
				c-0.3,0.2-0.7,0.4-1,0.5c-0.3,0.1-0.7,0.2-1,0.3c-0.3,0.1-0.7,0.1-1.1,0.1c-0.4,0-0.8,0-1.2,0H376c-0.2,0-0.3-0.1-0.3-0.3
				c-0.1-0.2-0.1-0.4-0.1-0.7c0-0.4,0-0.6,0.1-0.8c0.1-0.2,0.2-0.3,0.3-0.3H377.1z M383.5,391.2c0-0.3-0.3-0.5-0.8-0.5h-3l2,2.6
				c0.7-0.5,1.1-1,1.4-1.3C383.3,391.6,383.5,391.4,383.5,391.2z"/>
			<path d="M388.7,393.9c0.8,0,1.3-0.4,1.3-1.2v-2.2h1.9v2.3c0,1-0.3,1.8-0.8,2.4c-0.5,0.5-1.3,0.8-2.2,0.8h-1.9
				c-0.2,0-0.3-0.1-0.3-0.3c-0.1-0.2-0.1-0.4-0.1-0.7c0-0.4,0-0.6,0.1-0.8c0.1-0.2,0.2-0.3,0.3-0.3H388.7z M388.9,399.9h-1.9v-1.8
				h1.9V399.9z M391.6,399.9h-1.9v-1.8h1.9V399.9z"/>
			<path d="M400.4,391.3c0.3,0.4,0.6,0.8,0.7,1.2c0.2,0.4,0.2,0.8,0.2,1.1c0,0.3-0.1,0.7-0.2,0.9c-0.1,0.3-0.3,0.6-0.5,0.8
				c-0.2,0.2-0.5,0.4-0.9,0.5c-0.4,0.1-0.8,0.2-1.2,0.2h-5l-0.1-2.1h4.8c0.6,0,0.9-0.2,0.9-0.7c0-0.2-0.1-0.5-0.3-0.7l-3.2-3.6
				l1.5-1.4L400.4,391.3z"/>
			<path d="M405,398.5c0.5,0,0.9-0.1,1.2-0.2s0.6-0.3,0.9-0.5c0.2-0.2,0.4-0.5,0.5-0.8c0.1-0.3,0.2-0.6,0.2-1h-1.3
				c-0.6,0-1.2-0.1-1.6-0.2c-0.4-0.1-0.7-0.3-1-0.6c-0.2-0.3-0.4-0.6-0.5-1c-0.1-0.4-0.1-0.8-0.1-1.3c0-0.5,0.1-0.9,0.2-1.4
				s0.3-0.8,0.6-1.1c0.3-0.3,0.6-0.6,1-0.8c0.4-0.2,0.9-0.3,1.4-0.3c0.4,0,0.8,0.1,1.2,0.2c0.4,0.1,0.7,0.4,1,0.7
				c0.3,0.3,0.5,0.7,0.7,1.2c0.2,0.5,0.3,1.1,0.3,1.7v2.6c0,0.6-0.1,1.2-0.3,1.8c-0.2,0.6-0.5,1.1-0.9,1.5c-0.4,0.4-0.9,0.8-1.5,1.1
				c-0.6,0.3-1.2,0.4-1.9,0.4h-1.9l-0.1-2H405z M405.2,392.8c0,0.4,0.1,0.7,0.3,0.9c0.2,0.2,0.6,0.3,1.2,0.3h1.2v-0.9
				c0-0.6-0.1-1.1-0.4-1.4s-0.6-0.4-1-0.4c-0.4,0-0.7,0.1-1,0.4C405.3,391.9,405.2,392.3,405.2,392.8z"/>
			<path d="M414.8,397.1v-4.6c0-0.8,0-1.4-0.1-1.9c0-0.5-0.1-1-0.2-1.5c-0.1-0.4-0.2-0.9-0.3-1.2c-0.1-0.4-0.2-0.8-0.3-1.3l1.8-0.7
				c0.2,0.5,0.3,1,0.4,1.4c0.1,0.5,0.2,0.9,0.3,1.4c0.1,0.5,0.1,1,0.2,1.6c0,0.6,0.1,1.3,0.1,2v4.7H414.8z"/>
			<path d="M424.8,387.4c0.1,0.5,0.1,0.9,0.1,1.3c0,0.1,0,0.2,0,0.2c0,0.1,0,0.2,0,0.3c0.1,0.2,0.3,0.3,0.5,0.3
				c0.2,0.1,0.3,0.1,0.5,0.1c0.4,0,0.6-0.1,0.8-0.3c0.2-0.2,0.3-0.4,0.3-0.7c0-0.5-0.1-1.2-0.3-2.2l1.8-0.4c0.1,0.5,0.2,0.9,0.2,1.4
				c0,0.5,0.1,0.9,0.1,1.3c0,0.4-0.1,0.8-0.2,1.2s-0.3,0.7-0.5,0.9c-0.2,0.3-0.5,0.5-0.8,0.6s-0.7,0.2-1.1,0.2c-0.3,0-0.7-0.1-1-0.2
				c-0.3-0.1-0.6-0.3-0.9-0.7c-0.2,0.3-0.5,0.5-0.8,0.6c-0.3,0.1-0.7,0.2-1.1,0.2c-0.6,0-1-0.2-1.3-0.4c0,0.2,0,0.5,0.1,0.7
				c0,0.3,0,0.5,0,0.8v4.4H419v-4.6c0-0.8,0-1.4-0.1-1.9c0-0.5-0.1-1-0.2-1.5c-0.1-0.4-0.2-0.9-0.3-1.2c-0.1-0.4-0.2-0.8-0.3-1.3
				l1.8-0.7c0.1,0.4,0.2,0.8,0.3,1.2c0.1,0.4,0.2,0.7,0.3,1.1c0,0.2,0.1,0.3,0.2,0.5c0.1,0.2,0.1,0.3,0.2,0.4
				c0.1,0.1,0.2,0.2,0.4,0.3c0.1,0.1,0.3,0.1,0.5,0.1c0.3,0,0.6-0.1,0.8-0.3c0.2-0.2,0.3-0.4,0.3-0.7c0-0.4-0.1-1.1-0.3-2.2l1.8-0.4
				C424.6,386.5,424.7,386.9,424.8,387.4z"/>
			<path d="M430.4,394.4c0-0.4,0-0.8,0.1-1.2c0.1-0.4,0.3-0.9,0.5-1.4c0.3-0.5,0.6-1.1,1.1-1.7c0.5-0.6,1.1-1.4,1.8-2.2l-0.8-0.7
				l1.2-1.4c1.2,1,2.2,1.9,3,2.7c0.8,0.8,1.4,1.5,1.8,2.2c0.4,0.7,0.7,1.3,0.9,1.8c0.2,0.6,0.2,1.1,0.2,1.6c0,0.5-0.1,1-0.3,1.4
				c-0.2,0.4-0.4,0.7-0.7,1c-0.3,0.3-0.6,0.5-0.9,0.6s-0.7,0.2-1,0.2c-0.5,0-0.9-0.1-1.2-0.2c-0.3-0.2-0.6-0.4-0.9-0.7
				c-0.3,0.3-0.6,0.5-1,0.7c-0.4,0.2-0.7,0.2-1.1,0.2c-0.9,0-1.5-0.3-2-0.8S430.4,395.3,430.4,394.4z M438.3,394
				c0-0.3,0-0.6-0.1-0.9c-0.1-0.3-0.2-0.7-0.4-1.1c-0.2-0.4-0.5-0.9-0.9-1.4c-0.4-0.5-1-1-1.6-1.6c-1.1,1.1-1.8,2.1-2.3,2.9
				c-0.5,0.8-0.7,1.5-0.7,2.1c0,0.4,0.1,0.7,0.3,0.9c0.2,0.2,0.5,0.3,0.9,0.3c0.3,0,0.6-0.1,0.8-0.3c0.2-0.2,0.4-0.5,0.4-1v-1.1h1.7
				v0.9c0,0.2,0,0.4,0,0.6c0,0.2-0.1,0.3-0.1,0.5c0.3,0.3,0.7,0.4,1.1,0.4c0.3,0,0.6-0.1,0.8-0.3C438.2,394.7,438.3,394.4,438.3,394
				z"/>
		</g>
		<g>
			<path d="M281.9,393.1c0-0.4,0-0.7,0.1-1c0.1-0.3,0.2-0.6,0.4-1c0.2-0.3,0.4-0.7,0.7-1c0.3-0.3,0.6-0.7,1-1.1l-0.9-0.9l1.3-1.4
				c0.8,0.8,1.4,1.4,1.9,2c0.5,0.6,0.9,1.1,1.2,1.5c0.3,0.5,0.5,0.9,0.7,1.3c0.1,0.4,0.2,0.8,0.2,1.2c0,0.5-0.1,0.9-0.3,1.3
				c-0.2,0.4-0.4,0.7-0.7,1s-0.7,0.5-1.1,0.7c-0.4,0.2-0.9,0.2-1.4,0.2s-0.9-0.1-1.3-0.2c-0.4-0.1-0.7-0.3-1-0.6
				c-0.3-0.3-0.5-0.6-0.7-0.9C282,393.9,281.9,393.6,281.9,393.1z M286.7,392.7c0-0.2,0-0.3-0.1-0.4c0-0.1-0.1-0.3-0.2-0.5
				c-0.1-0.2-0.2-0.4-0.4-0.6c-0.2-0.2-0.4-0.5-0.7-0.8c-0.3,0.3-0.6,0.6-0.8,0.8c-0.2,0.2-0.3,0.4-0.4,0.6
				c-0.1,0.2-0.2,0.3-0.2,0.5c0,0.1,0,0.3,0,0.4c0,0.3,0.1,0.6,0.4,0.9s0.6,0.4,1.1,0.4c0.5,0,0.8-0.1,1.1-0.4
				C286.5,393.3,286.7,393,286.7,392.7z"/>
			<path d="M292.7,397.6c-0.2,0.6-0.6,1.1-1,1.5c-0.4,0.4-0.9,0.8-1.4,1c-0.6,0.2-1.2,0.4-1.8,0.4h-1.2l-0.1-2h0.8
				c0.6,0,1-0.1,1.4-0.2c0.4-0.2,0.7-0.4,1-0.6c0.3-0.3,0.4-0.6,0.5-0.9c0.1-0.3,0.2-0.7,0.2-1v-5.2h1.9v5.2
				C293,396.4,292.9,397,292.7,397.6z"/>
			<path d="M297.8,396c-0.4,0-0.7,0-1-0.1c-0.3-0.1-0.6-0.3-0.8-0.5s-0.4-0.5-0.6-0.9c-0.1-0.4-0.2-0.8-0.2-1.4v-8.7h1.9v8.3
				c0,0.4,0.1,0.7,0.3,0.9c0.2,0.2,0.5,0.3,0.8,0.3h0.4c0.3,0,0.4,0.3,0.4,1c0,0.7-0.1,1.1-0.4,1.1H297.8z"/>
			<path d="M304,394.9c-0.3,0.2-0.7,0.4-1,0.5s-0.7,0.2-1,0.3c-0.4,0.1-0.8,0.1-1.2,0.2c-0.4,0-0.9,0.1-1.5,0.1h-0.7
				c-0.2,0-0.3-0.1-0.3-0.3c-0.1-0.2-0.1-0.4-0.1-0.7c0-0.4,0-0.6,0.1-0.8c0.1-0.2,0.2-0.3,0.3-0.3h0.8c0.5,0,0.9,0,1.3,0
				c0.4,0,0.7-0.1,1-0.1c0.3,0,0.6-0.1,0.9-0.2c0.3-0.1,0.5-0.2,0.8-0.4l2.4-1.4c-0.1-0.2-0.2-0.3-0.3-0.4c-0.1-0.1-0.2-0.2-0.3-0.3
				c-0.1-0.1-0.3-0.1-0.4-0.2c-0.2,0-0.4-0.1-0.7-0.1h-4l0.1-2.1h4.2c0.3,0,0.7,0.1,1,0.2c0.3,0.1,0.7,0.3,1,0.6s0.6,0.7,0.8,1.2
				c0.3,0.5,0.5,1.2,0.6,2L304,394.9z M304.3,400h-2.1v-1.9h2.1V400z"/>
			<path d="M309.9,384.4h1.9V396h-1.9V384.4z"/>
			<path d="M320.4,391.6c-0.6,0-1-0.2-1.3-0.4c0,0.2,0,0.5,0.1,0.7c0,0.3,0,0.5,0,0.8v4.4h-1.9v-4.6c0-0.8,0-1.4-0.1-1.9
				c0-0.5-0.1-1-0.2-1.5c-0.1-0.4-0.2-0.9-0.3-1.2c-0.1-0.4-0.2-0.8-0.3-1.3l1.8-0.7c0.1,0.4,0.2,0.8,0.3,1.2
				c0.1,0.4,0.2,0.7,0.3,1.1c0,0.2,0.1,0.3,0.2,0.5c0.1,0.2,0.1,0.3,0.2,0.4c0.1,0.1,0.2,0.2,0.4,0.3c0.1,0.1,0.3,0.1,0.5,0.1
				c0.3,0,0.6-0.1,0.8-0.3c0.2-0.2,0.3-0.4,0.3-0.7c0-0.4-0.1-1.1-0.3-2.2l1.8-0.4c0.1,0.5,0.2,0.9,0.2,1.4c0.1,0.5,0.1,0.9,0.1,1.3
				c0,0.4-0.1,0.8-0.2,1.2c-0.1,0.4-0.3,0.7-0.5,0.9c-0.2,0.3-0.5,0.5-0.9,0.6C321.2,391.6,320.8,391.6,320.4,391.6z"/>
		</g>
		<g>
			<path class="st3" d="M358.2,380.7l-22.5,22.5l-1.6-1.6l6.7-6.7h-4.5v-2.3h6.8l2.3-2.3h-1.1v0h-7.9l5.6-5.6v3.4h5.6l9-9
				L358.2,380.7z M349.9,390.4h6.7v-2.3h-4.5L349.9,390.4z M352.1,392.6h-4.5l-2.3,2.3h5.6v3.4l5.6-5.6L352.1,392.6L352.1,392.6z"/>
			<rect x="333" y="378" class="st5" width="27" height="27"/>
		</g>
	</g>
</g>
<g id="Isolation_Mode">
</g>
</svg>
