<?xml version="1.0" encoding="utf-8"?>
<!-- Generator: Adobe Illustrator 23.1.0, SVG Export Plug-In . SVG Version: 6.00 Build 0)  -->
<svg version="1.1" xmlns="http://www.w3.org/2000/svg" xmlns:xlink="http://www.w3.org/1999/xlink" x="0px" y="0px"
	 viewBox="0 0 864 504" style="enable-background:new 0 0 864 504;" xml:space="preserve">
<style type="text/css">
	.st0{fill:#DBD8D7;}
	.st1{opacity:8.000000e-02;fill:#FF8873;}
	.st2{fill:#F5F1F0;}
	.st3{fill:#BDB9B9;}
	.st4{fill:#FFFFFF;}
	.st5{fill:none;}
	.st6{fill:#FF8672;}
	.st7{fill:#504B4A;}
	.st8{fill:#4C4B4B;}
	.st9{fill:#AC2700;}
	.st10{fill:#C7C4C3;}
	.st11{fill:#FF8873;}
	.st12{clip-path:url(#SVGID_2_);}
	.st13{clip-path:url(#SVGID_4_);}
	.st14{fill:#FF8873;fill-opacity:0.5;}
	.st15{fill:#858282;}
	.st16{fill:#FFFFFF;fill-opacity:0.16;}
	.st17{fill:#FF8672;fill-opacity:8.000000e-02;}
	.st18{fill:#FF8672;fill-opacity:0.16;}
	.st19{fill:#FF8672;fill-opacity:0.32;}
	.st20{fill:#BFBBBA;}
	.st21{fill:#A8A5A5;}
	.st22{fill:#C4C4C4;}
	.st23{fill:#242323;}
	.st24{fill:#BFBCBC;}
	.st25{fill:#706E6E;}
	.st26{fill:#5C5A5A;}
	.st27{opacity:0.16;fill:#FF8873;}
</style>
<g id="Layer_2">
	<rect x="0.1" y="0" class="st0" width="863.9" height="504"/>
</g>
<g id="Layer_1">
	<g>
		<g>
			<rect x="180.1" y="289.1" width="35.9" height="0.5"/>
			<rect x="197.8" y="289.3" width="0.5" height="18"/>
			<polygon points="180.1,307.5 180.1,307 216,307 216,307.5 			"/>
			<g>
				<path d="M172.3,301.8h-1.1v-7.2l-2.2,0.8v-1l3.1-1.2h0.2V301.8z"/>
				<path d="M179.7,293.3v0.9h-0.2c-0.8,0-1.5,0.3-2,0.8s-0.8,1.2-0.9,2c0.4-0.5,1.1-0.8,1.8-0.8c0.7,0,1.3,0.3,1.8,0.8
					s0.7,1.2,0.7,2c0,0.9-0.2,1.6-0.7,2.1s-1.1,0.8-1.9,0.8c-0.8,0-1.5-0.3-2-0.9s-0.8-1.4-0.8-2.4v-0.4c0-1.6,0.3-2.8,1-3.6
					s1.7-1.3,3-1.3H179.7z M178.3,297.1c-0.4,0-0.7,0.1-1,0.3s-0.5,0.5-0.7,0.8v0.4c0,0.7,0.2,1.3,0.5,1.7s0.7,0.6,1.2,0.6
					c0.5,0,0.9-0.2,1.2-0.5s0.4-0.8,0.4-1.4c0-0.6-0.1-1.1-0.4-1.4S178.7,297.1,178.3,297.1z"/>
			</g>
		</g>
		<g>
			<rect x="224.7" y="316.2" width="0.5" height="35.9"/>
			<rect x="225" y="334" width="18" height="0.5"/>
			<rect x="242.7" y="316.3" transform="matrix(1 -1.548843e-03 1.548843e-03 1 -0.5174 0.3767)" width="0.5" height="35.9"/>
			<g>
				<path d="M231.5,366h-1.1v-7.2l-2.2,0.8v-1l3.1-1.2h0.2V366z"/>
				<path d="M238.9,357.5v0.9h-0.2c-0.8,0-1.5,0.3-2,0.8s-0.8,1.2-0.9,2c0.4-0.5,1.1-0.8,1.8-0.8c0.7,0,1.3,0.3,1.8,0.8
					s0.7,1.2,0.7,2c0,0.9-0.2,1.6-0.7,2.1s-1.1,0.8-1.9,0.8c-0.8,0-1.5-0.3-2-0.9s-0.8-1.4-0.8-2.4v-0.4c0-1.6,0.3-2.8,1-3.6
					s1.7-1.3,3-1.3H238.9z M237.5,361.3c-0.4,0-0.7,0.1-1,0.3s-0.5,0.5-0.7,0.8v0.4c0,0.7,0.2,1.3,0.5,1.7s0.7,0.6,1.2,0.6
					c0.5,0,0.9-0.2,1.2-0.5s0.4-0.8,0.4-1.4c0-0.6-0.1-1.1-0.4-1.4S238,361.3,237.5,361.3z"/>
			</g>
		</g>
		<rect x="103.7" y="244.1" class="st3" width="399.7" height="0.5"/>
		<rect x="296.9" y="280.1" class="st3" width="206.6" height="0.5"/>
		<rect x="184.6" y="226.2" class="st3" width="318.9" height="0.5"/>
		<rect x="103.7" y="190.3" class="st3" width="399.7" height="0.5"/>
		<g>
			<rect x="184.6" y="190.3" width="35.9" height="0.5"/>
			<rect x="202.3" y="190.5" width="0.5" height="35.9"/>
			<rect x="184.6" y="226.1" transform="matrix(1 -3.906220e-03 3.906220e-03 1 -0.8827 0.7929)" width="35.9" height="0.5"/>
			<g>
				<path d="M173.4,207.2h0.8c0.5,0,0.9-0.1,1.2-0.4s0.4-0.6,0.4-1.1c0-1-0.5-1.5-1.5-1.5c-0.5,0-0.8,0.1-1.1,0.4s-0.4,0.6-0.4,1.1
					h-1.1c0-0.7,0.2-1.2,0.7-1.7s1.1-0.7,1.9-0.7c0.8,0,1.4,0.2,1.9,0.6s0.7,1,0.7,1.8c0,0.4-0.1,0.7-0.4,1.1s-0.6,0.6-1,0.8
					c0.5,0.1,0.8,0.4,1.1,0.7s0.4,0.8,0.4,1.3c0,0.8-0.3,1.4-0.8,1.8s-1.2,0.7-2,0.7s-1.5-0.2-2-0.7s-0.8-1-0.8-1.7h1.1
					c0,0.4,0.1,0.8,0.4,1.1s0.7,0.4,1.2,0.4c0.5,0,0.9-0.1,1.2-0.4s0.4-0.7,0.4-1.2c0-0.5-0.2-0.9-0.5-1.1s-0.7-0.4-1.3-0.4h-0.8
					V207.2z"/>
				<path d="M184.1,212h-5.6v-0.8l3-3.3c0.4-0.5,0.7-0.9,0.9-1.2s0.2-0.6,0.2-1c0-0.4-0.1-0.8-0.4-1.1s-0.6-0.4-1.1-0.4
					c-0.5,0-1,0.2-1.3,0.5s-0.4,0.7-0.4,1.3h-1.1c0-0.8,0.3-1.4,0.8-1.9s1.2-0.7,2-0.7c0.8,0,1.4,0.2,1.9,0.6s0.7,1,0.7,1.7
					c0,0.8-0.5,1.8-1.6,3l-2.3,2.5h4.3V212z"/>
			</g>
		</g>
		<g>
			<rect x="103.7" y="190.3" width="35.9" height="0.5"/>
			<rect x="121.5" y="190.5" width="0.5" height="53.9"/>
			<rect x="103.7" y="244.1" transform="matrix(1 -3.906220e-03 3.906220e-03 1 -0.9535 0.4772)" width="35.9" height="0.5"/>
			<g>
				<path d="M95.6,218.1h1.2v0.9h-1.2v2h-1.1v-2h-3.9v-0.6l3.8-5.9h1.2V218.1z M91.8,218.1h2.7v-4.2l-0.1,0.2L91.8,218.1z"/>
				<path d="M102.9,214.7c0,0.4-0.1,0.8-0.3,1.1s-0.5,0.6-0.9,0.8c0.4,0.2,0.8,0.5,1.1,0.8s0.4,0.8,0.4,1.2c0,0.7-0.2,1.3-0.7,1.8
					s-1.2,0.7-2,0.7c-0.8,0-1.5-0.2-2-0.7s-0.7-1-0.7-1.8c0-0.5,0.1-0.9,0.4-1.2s0.6-0.7,1-0.8c-0.4-0.2-0.7-0.4-0.9-0.8
					s-0.3-0.7-0.3-1.1c0-0.7,0.2-1.3,0.7-1.7s1.1-0.6,1.8-0.6c0.8,0,1.4,0.2,1.8,0.6S102.9,213.9,102.9,214.7z M102,218.6
					c0-0.5-0.2-0.9-0.5-1.2s-0.7-0.5-1.2-0.5s-0.9,0.1-1.2,0.4s-0.4,0.7-0.4,1.2s0.1,0.9,0.4,1.1s0.7,0.4,1.2,0.4
					c0.5,0,0.9-0.1,1.2-0.4S102,219.1,102,218.6z M100.4,213.2c-0.4,0-0.8,0.1-1,0.4s-0.4,0.6-0.4,1.1c0,0.4,0.1,0.8,0.4,1.1
					s0.6,0.4,1,0.4s0.8-0.1,1-0.4s0.4-0.6,0.4-1.1s-0.1-0.8-0.4-1.1S100.8,213.2,100.4,213.2z"/>
			</g>
		</g>
		<g>
			<rect x="647.2" y="190.3" width="35.9" height="0.5"/>
			<rect x="664.9" y="190.5" width="0.5" height="116.7"/>
			<rect x="647.2" y="306.9" transform="matrix(1 -7.812262e-03 7.812262e-03 1 -2.379 5.2055)" width="35.9" height="0.5"/>
			<g>
				<path d="M694.1,254.1H693v-7.2l-2.2,0.8v-1l3.1-1.2h0.2V254.1z"/>
				<path d="M702.6,250.5c0,1.3-0.2,2.2-0.7,2.8s-1.1,0.9-2,0.9c-0.9,0-1.6-0.3-2-0.9s-0.7-1.5-0.7-2.7v-1.4c0-1.3,0.2-2.2,0.7-2.8
					s1.1-0.9,2-0.9c0.9,0,1.6,0.3,2,0.9s0.7,1.5,0.7,2.7V250.5z M701.5,249c0-0.9-0.1-1.6-0.4-2s-0.7-0.6-1.2-0.6
					c-0.6,0-1,0.2-1.2,0.6s-0.4,1.1-0.4,1.9v1.7c0,0.9,0.1,1.6,0.4,2s0.7,0.7,1.2,0.7c0.5,0,0.9-0.2,1.2-0.6s0.4-1.1,0.4-2V249z"/>
				<path d="M708.6,251.3h1.2v0.9h-1.2v2h-1.1v-2h-3.9v-0.6l3.8-5.9h1.2V251.3z M704.8,251.3h2.7v-4.2l-0.1,0.2L704.8,251.3z"/>
			</g>
		</g>
		<g>
			<path class="st4" d="M638.7,307.8H224.5V190h414.2V307.8z M225.5,306.8h412.2V191H225.5V306.8z"/>
		</g>
		<g>
			<path class="st4" d="M638.7,307.8H520.9V190h117.8V307.8z M521.9,306.8h115.8V191H521.9V306.8z"/>
		</g>
		<g>
			<path class="st4" d="M319.6,221.4c0.4,0.4,0.6,0.8,0.8,1.2c0.2,0.4,0.3,0.8,0.3,1.2c0,0.4-0.1,0.7-0.2,1
				c-0.1,0.3-0.3,0.6-0.6,0.8c-0.3,0.2-0.6,0.4-1,0.6c-0.4,0.1-0.8,0.2-1.3,0.2h-5.4l-0.1-2.2h5.2c0.7,0,1-0.2,1-0.7
				c0-0.2-0.1-0.5-0.3-0.7l-3.4-3.9l1.6-1.5L319.6,221.4z"/>
			<path class="st4" d="M325.7,226.4c-0.4,0-0.7-0.1-1.1-0.2c-0.3-0.1-0.6-0.3-0.9-0.5c-0.3-0.2-0.5-0.6-0.6-1
				c-0.1-0.4-0.2-0.9-0.2-1.5v-9.4h2.1v8.9c0,0.4,0.1,0.8,0.3,1c0.2,0.2,0.5,0.4,0.9,0.4h0.5c0.3,0,0.4,0.4,0.4,1.1
				c0,0.8-0.1,1.2-0.4,1.2H325.7z"/>
			<path class="st4" d="M328.5,224.2c0.9,0,1.4-0.4,1.4-1.3v-2.4h2.1v2.5c0,1.1-0.3,2-0.8,2.5c-0.6,0.6-1.4,0.9-2.4,0.9h-2
				c-0.2,0-0.3-0.1-0.4-0.3s-0.1-0.4-0.1-0.8c0-0.4,0-0.7,0.1-0.9c0.1-0.2,0.2-0.3,0.4-0.3H328.5z M329.5,230.8h-2.3v-2.1h2.3V230.8
				z"/>
			<path class="st4" d="M334.2,214.8c-0.3,0-0.5,0-0.6,0.1c-0.1,0.1-0.3,0.2-0.4,0.5l-0.4,0.9l-1.3-0.6l0.6-1.4
				c0.1-0.3,0.2-0.5,0.4-0.7c0.1-0.2,0.2-0.3,0.4-0.4c0.1-0.1,0.3-0.2,0.5-0.2c0.2,0,0.5-0.1,0.7-0.1h4.1l-0.1,1.9H334.2z
				 M334.3,216.9h2.1v9.5h-2.1V216.9z"/>
			<path class="st4" d="M344.6,226.4c-0.6,0-1-0.1-1.4-0.3c-0.4-0.2-0.7-0.4-1-0.7c-0.2-0.3-0.4-0.6-0.5-1c-0.1-0.4-0.2-0.8-0.2-1.2
				v-2.9h2v2.3c0,0.4,0.1,0.8,0.3,1c0.2,0.2,0.6,0.4,1.2,0.4h6.3c0.5,0,0.8-0.1,1-0.3s0.3-0.5,0.3-1v-2.4h2.1v2.9
				c0,0.5-0.1,1-0.3,1.3c-0.2,0.4-0.4,0.7-0.7,0.9c-0.3,0.2-0.6,0.4-1,0.6c-0.4,0.1-0.8,0.2-1.1,0.2H344.6z M347.8,218.9h-2.1v-2
				h2.1V218.9z M350.6,218.9h-2.1v-2h2.1V218.9z"/>
			<path class="st4" d="M364.1,221.4c0.4,0.4,0.6,0.8,0.8,1.2c0.2,0.4,0.3,0.8,0.3,1.2c0,0.4-0.1,0.7-0.2,1
				c-0.1,0.3-0.3,0.6-0.6,0.8c-0.3,0.2-0.6,0.4-1,0.6c-0.4,0.1-0.8,0.2-1.3,0.2h-5.4l-0.1-2.2h5.2c0.7,0,1-0.2,1-0.7
				c0-0.2-0.1-0.5-0.3-0.7l-3.4-3.9l1.6-1.5L364.1,221.4z"/>
			<path class="st4" d="M370.2,226.4c-0.4,0-0.7-0.1-1.1-0.2c-0.3-0.1-0.6-0.3-0.9-0.5c-0.3-0.2-0.5-0.6-0.6-1
				c-0.1-0.4-0.2-0.9-0.2-1.5v-9.4h2.1v8.9c0,0.4,0.1,0.8,0.3,1c0.2,0.2,0.5,0.4,0.9,0.4h0.5c0.3,0,0.4,0.4,0.4,1.1
				c0,0.8-0.1,1.2-0.4,1.2H370.2z"/>
			<path class="st4" d="M372.2,224.2c0.4,0,0.9,0,1.4,0c0.5,0,1-0.1,1.5-0.3l-2.5-3.3l1-2h5.3c0.6,0,1.2,0.1,1.6,0.4
				c0.4,0.3,0.7,0.7,0.8,1.1c0,0.1,0,0.2,0.1,0.3c0,0.1,0,0.2,0,0.3c0,0.2,0,0.4-0.1,0.6c-0.1,0.2-0.2,0.4-0.3,0.7
				c-0.1,0.3-0.4,0.5-0.6,0.9s-0.6,0.7-1.1,1.1c0.3,0.1,0.7,0.2,1,0.2c0.4,0,0.8,0,1.2,0h1.4c0.2,0,0.3,0.1,0.4,0.3s0.1,0.4,0.1,0.8
				c0,0.4,0,0.7-0.1,0.9c-0.1,0.2-0.2,0.3-0.4,0.3H381c-0.4,0-0.8,0-1.1,0c-0.4,0-0.7-0.1-1-0.1c-0.3-0.1-0.6-0.2-0.9-0.3
				c-0.3-0.1-0.6-0.3-0.9-0.6c-0.4,0.2-0.7,0.4-1.1,0.6c-0.4,0.1-0.7,0.2-1.1,0.3c-0.4,0.1-0.8,0.1-1.2,0.2c-0.4,0-0.8,0-1.3,0h-1.3
				c-0.2,0-0.3-0.1-0.4-0.3s-0.1-0.4-0.1-0.8c0-0.4,0-0.7,0.1-0.9c0.1-0.2,0.2-0.3,0.4-0.3H372.2z M379.1,221.2
				c0-0.4-0.3-0.5-0.8-0.5H375l2.2,2.8c0.7-0.6,1.2-1,1.5-1.4C378.9,221.7,379.1,221.5,379.1,221.2z"/>
			<path class="st4" d="M383.7,224.2c0.9,0,1.4-0.4,1.4-1.3v-2.4h2v2.4c0,0.5,0.1,0.8,0.4,1c0.3,0.2,0.6,0.3,1,0.3
				c1,0,1.5-0.4,1.5-1.3v-2.4h2.1v2.4c0,0.5,0.1,0.8,0.4,1c0.2,0.2,0.5,0.3,0.9,0.3c0.4,0,0.7-0.1,0.9-0.3c0.2-0.2,0.3-0.5,0.3-1
				v-2.4h2.1v2.5c0,1.1-0.3,2-0.9,2.5c-0.6,0.6-1.4,0.9-2.4,0.9c-0.5,0-0.9-0.1-1.3-0.3c-0.4-0.2-0.8-0.5-1.1-1
				c-0.3,0.5-0.7,0.9-1.1,1c-0.4,0.2-0.9,0.3-1.4,0.3c-0.5,0-1-0.1-1.4-0.3c-0.4-0.2-0.8-0.5-1.1-1c-0.3,0.5-0.7,0.9-1.1,1
				c-0.4,0.2-0.8,0.3-1.3,0.3h-0.9c-0.2,0-0.3-0.1-0.4-0.3s-0.1-0.4-0.1-0.8c0-0.4,0-0.7,0.1-0.9c0.1-0.2,0.2-0.3,0.4-0.3H383.7z"/>
			<path class="st4" d="M404.8,226.4c-0.6,0-1-0.1-1.4-0.3c-0.4-0.2-0.7-0.4-1-0.7c-0.2-0.3-0.4-0.6-0.5-1c-0.1-0.4-0.2-0.8-0.2-1.2
				v-2.9h2v2.3c0,0.4,0.1,0.8,0.3,1c0.2,0.2,0.6,0.4,1.2,0.4h6.3c0.5,0,0.8-0.1,1-0.3s0.3-0.5,0.3-1v-2.4h2.1v2.9
				c0,0.5-0.1,1-0.3,1.3c-0.2,0.4-0.4,0.7-0.7,0.9c-0.3,0.2-0.6,0.4-1,0.6c-0.4,0.1-0.8,0.2-1.1,0.2H404.8z M409.5,230.8h-2.3v-2.1
				h2.3V230.8z"/>
			<path class="st4" d="M417.3,213.9h2.1v12.5h-2.1V213.9z"/>
			<path class="st4" d="M423.6,229.1c0.5,0,1-0.1,1.3-0.2c0.4-0.1,0.7-0.3,0.9-0.6c0.2-0.2,0.4-0.5,0.6-0.9c0.1-0.3,0.2-0.7,0.2-1
				h-1.4c-0.7,0-1.3-0.1-1.7-0.2c-0.4-0.1-0.8-0.4-1.1-0.7c-0.3-0.3-0.4-0.6-0.5-1.1c-0.1-0.4-0.2-0.9-0.2-1.4c0-0.5,0.1-1,0.2-1.5
				c0.1-0.5,0.4-0.9,0.7-1.2c0.3-0.4,0.7-0.6,1.1-0.8c0.4-0.2,0.9-0.3,1.5-0.3c0.5,0,0.9,0.1,1.3,0.2c0.4,0.1,0.8,0.4,1.1,0.7
				c0.3,0.3,0.6,0.7,0.7,1.3c0.2,0.5,0.3,1.1,0.3,1.9v0.9h1.6c0.3,0,0.4,0.4,0.4,1.1c0,0.8-0.1,1.2-0.4,1.2h-1.7
				c0,0.7-0.2,1.3-0.4,1.9c-0.2,0.6-0.6,1.1-1,1.6c-0.4,0.4-0.9,0.8-1.5,1.1c-0.6,0.3-1.3,0.4-2,0.4h-2l-0.1-2.2H423.6z
				 M423.8,222.9c0,0.5,0.1,0.8,0.3,1c0.2,0.2,0.6,0.3,1.2,0.3h1.3v-0.9c0-0.7-0.1-1.2-0.4-1.5c-0.3-0.3-0.6-0.4-1.1-0.4
				c-0.4,0-0.8,0.1-1,0.4C423.9,222,423.8,222.4,423.8,222.9z"/>
			<path class="st4" d="M436.1,225.3c-0.4,0.2-0.7,0.4-1.1,0.5c-0.4,0.1-0.7,0.3-1.1,0.3c-0.4,0.1-0.8,0.2-1.3,0.2s-1,0.1-1.6,0.1
				h-0.7c-0.2,0-0.3-0.1-0.4-0.3s-0.1-0.4-0.1-0.8c0-0.4,0-0.7,0.1-0.9c0.1-0.2,0.2-0.3,0.4-0.3h0.8c0.5,0,0.9,0,1.4,0
				c0.4,0,0.8-0.1,1.1-0.1c0.3-0.1,0.6-0.1,0.9-0.2c0.3-0.1,0.6-0.2,0.9-0.4l2.6-1.5c-0.1-0.2-0.2-0.3-0.3-0.5
				c-0.1-0.1-0.2-0.2-0.3-0.3c-0.1-0.1-0.3-0.2-0.5-0.2c-0.2,0-0.4-0.1-0.7-0.1h-4.3l0.1-2.2h4.5c0.4,0,0.8,0.1,1.1,0.2
				c0.4,0.1,0.7,0.3,1.1,0.6c0.3,0.3,0.6,0.7,0.9,1.3c0.3,0.5,0.5,1.3,0.7,2.2L436.1,225.3z M436.5,216.5h-2.3v-2.1h2.3V216.5z"/>
			<path class="st4" d="M448.9,221.7c-0.6,0-1.1-0.2-1.4-0.5c0,0.3,0,0.5,0.1,0.8c0,0.3,0,0.6,0,0.9v4.7h-2.1v-4.9
				c0-0.8,0-1.5-0.1-2.1c0-0.6-0.1-1.1-0.2-1.6c-0.1-0.5-0.2-0.9-0.3-1.3c-0.1-0.4-0.2-0.9-0.4-1.4l2-0.7c0.1,0.5,0.2,0.9,0.3,1.3
				c0.1,0.4,0.2,0.8,0.3,1.2c0.1,0.2,0.1,0.4,0.2,0.5c0.1,0.2,0.2,0.3,0.3,0.5c0.1,0.1,0.2,0.2,0.4,0.3c0.2,0.1,0.3,0.1,0.6,0.1
				c0.4,0,0.7-0.1,0.9-0.3c0.2-0.2,0.3-0.5,0.3-0.8c0-0.4-0.1-1.2-0.3-2.3l2-0.4c0.1,0.5,0.2,1,0.3,1.5c0.1,0.5,0.1,0.9,0.1,1.4
				c0,0.5-0.1,0.9-0.2,1.3c-0.1,0.4-0.3,0.7-0.6,1c-0.2,0.3-0.6,0.5-0.9,0.7C449.7,221.6,449.3,221.7,448.9,221.7z"/>
			<path class="st4" d="M460.8,226.1c0,0.7-0.1,1.4-0.4,2c-0.2,0.6-0.6,1.2-1,1.7c-0.4,0.5-0.9,0.8-1.5,1.1
				c-0.6,0.3-1.2,0.4-1.9,0.4h-1.3l-0.1-2.2h0.8c0.6,0,1.1-0.1,1.5-0.3c0.4-0.2,0.8-0.4,1-0.7c0.3-0.3,0.5-0.6,0.6-1
				s0.2-0.7,0.2-1.1v-5.6h2.1v2.4c0,0.4,0.1,0.8,0.4,1c0.3,0.2,0.6,0.3,1,0.3h0.2c0.3,0,0.4,0.4,0.4,1.1c0,0.8-0.1,1.2-0.4,1.2h-0.2
				c-0.3,0-0.5,0-0.8-0.1c-0.3-0.1-0.5-0.3-0.7-0.5V226.1z"/>
			<path class="st4" d="M464,224.2c0.9,0,1.4-0.4,1.4-1.3v-2.4h2.1v2.4c0,0.5,0.1,0.8,0.4,1c0.3,0.2,0.6,0.3,1,0.3h0.5
				c0.3,0,0.5,0.4,0.5,1.1c0,0.8-0.2,1.2-0.5,1.2h-0.6c-0.5,0-1-0.1-1.4-0.3c-0.4-0.2-0.8-0.5-1.1-1c-0.3,0.5-0.7,0.9-1.1,1
				c-0.4,0.2-0.8,0.3-1.3,0.3h-1.4c-0.2,0-0.3-0.1-0.4-0.3s-0.1-0.4-0.1-0.8c0-0.4,0-0.7,0.1-0.9c0.1-0.2,0.2-0.3,0.4-0.3H464z
				 M465.7,218.1h-2.1v-2h2.1V218.1z M468.6,218.1h-2.1v-2h2.1V218.1z"/>
			<path class="st4" d="M469.6,224.2c0.5,0,0.8-0.1,1.1-0.3s0.4-0.5,0.4-0.9v-0.4c0-0.5,0.1-1,0.2-1.5c0.2-0.5,0.4-0.8,0.7-1.2
				c0.3-0.3,0.7-0.6,1.1-0.8c0.4-0.2,0.9-0.3,1.4-0.3c0.6,0,1,0.1,1.5,0.3s0.8,0.4,1.1,0.8c0.3,0.3,0.5,0.7,0.6,1.2
				c0.1,0.5,0.2,1,0.2,1.5c0,1.2-0.3,2.2-0.9,2.8c-0.6,0.7-1.4,1-2.5,1c-0.5,0-1.1-0.1-1.5-0.3c-0.5-0.2-0.9-0.5-1.1-1
				c-0.3,0.5-0.6,0.9-1,1.1c-0.4,0.2-0.8,0.3-1.2,0.3h-0.2c-0.2,0-0.3-0.1-0.4-0.3s-0.1-0.4-0.1-0.8c0-0.4,0-0.7,0.1-0.9
				c0.1-0.2,0.2-0.3,0.4-0.3H469.6z M475.8,222.8c0-0.5-0.1-0.8-0.3-1.2c-0.2-0.3-0.6-0.5-1.1-0.5c-0.5,0-0.9,0.2-1.1,0.5
				s-0.3,0.7-0.3,1.2c0,0.5,0.1,0.8,0.4,1.1c0.3,0.2,0.6,0.4,1.1,0.4C475.4,224.2,475.8,223.7,475.8,222.8z"/>
			<path class="st4" d="M487.4,223.9c0.1-0.7,0.3-1.4,0.4-2.1c0.1-0.7,0.3-1.3,0.6-2c0.2-0.7,0.5-1.4,0.8-2.1
				c0.3-0.7,0.8-1.5,1.3-2.3l1.7,1.1c-0.5,0.9-1,1.7-1.4,2.5c-0.4,0.8-0.8,1.6-1.1,2.5c-0.3,0.9-0.6,1.8-0.9,2.8
				c-0.3,1-0.5,2.1-0.8,3.4h-1.4c-0.2-1.3-0.5-2.4-0.8-3.4c-0.3-1-0.6-1.9-0.9-2.8c-0.3-0.9-0.7-1.7-1.1-2.5
				c-0.4-0.8-0.9-1.6-1.4-2.5l1.7-1.1c0.5,0.8,0.9,1.6,1.3,2.3c0.3,0.7,0.6,1.4,0.9,2.1c0.2,0.7,0.4,1.3,0.6,2
				C487.1,222.5,487.2,223.2,487.4,223.9z"/>
			<path class="st4" d="M498.2,219.4c-0.1,0.7-0.3,1.4-0.4,2.1c-0.1,0.7-0.3,1.3-0.6,2c-0.2,0.7-0.5,1.4-0.9,2.1
				c-0.3,0.7-0.8,1.5-1.3,2.3l-1.7-1.1c0.5-0.9,1-1.7,1.4-2.5c0.4-0.8,0.8-1.6,1.1-2.5c0.3-0.9,0.6-1.8,0.9-2.8
				c0.3-1,0.5-2.1,0.8-3.4h1.4c0.2,1.3,0.5,2.4,0.8,3.4s0.6,1.9,0.9,2.8c0.3,0.9,0.7,1.7,1.1,2.5c0.4,0.8,0.9,1.6,1.4,2.5l-1.7,1.1
				c-0.5-0.8-0.9-1.6-1.3-2.3c-0.3-0.7-0.6-1.4-0.8-2.1c-0.2-0.7-0.4-1.3-0.6-2C498.5,220.9,498.3,220.2,498.2,219.4z"/>
		</g>
		<g>
			<path class="st4" d="M437.3,242.4c0,0.3,0.1,0.6,0.3,0.7c0.2,0.2,0.5,0.3,0.9,0.3c0.4,0,0.7-0.1,1-0.3c0.2-0.2,0.3-0.4,0.3-0.8
				v-1.9h0.9v1.9c0,0.4,0.1,0.7,0.3,0.8c0.2,0.2,0.5,0.2,0.8,0.2c0.4,0,0.6-0.1,0.8-0.3c0.2-0.2,0.3-0.4,0.3-0.8v-1.9h0.9v1.9
				c0,0.2,0,0.4,0.1,0.5c0.1,0.1,0.2,0.2,0.3,0.3c0.1,0.1,0.2,0.1,0.4,0.2c0.1,0,0.3,0.1,0.4,0.1h0.3c0.2,0,0.3,0.2,0.3,0.5
				c0,0.3-0.1,0.5-0.3,0.5h-0.3c-0.3,0-0.6-0.1-0.9-0.2s-0.5-0.4-0.7-0.7c-0.2,0.3-0.4,0.6-0.7,0.7c-0.3,0.1-0.5,0.2-0.8,0.2
				c-0.3,0-0.6-0.1-0.9-0.2c-0.3-0.1-0.5-0.4-0.7-0.7c-0.2,0.3-0.5,0.6-0.7,0.7s-0.6,0.2-0.9,0.2c-0.3,0-0.5,0-0.7-0.1
				c-0.2-0.1-0.4-0.2-0.5-0.4v0.3c0,0.5-0.1,0.9-0.2,1.3c-0.2,0.4-0.4,0.8-0.7,1.1c-0.3,0.3-0.6,0.6-1,0.8s-0.9,0.3-1.4,0.3h-0.8
				c-1,0-1.8-0.3-2.3-0.9s-0.8-1.5-0.8-2.5v-2.4h0.9v2.3c0,0.4,0,0.7,0.1,1.1c0.1,0.3,0.2,0.6,0.4,0.8c0.2,0.2,0.5,0.4,0.8,0.5
				c0.3,0.1,0.7,0.2,1.1,0.2h0.6c0.4,0,0.8-0.1,1.1-0.2c0.3-0.1,0.6-0.3,0.8-0.6c0.2-0.2,0.4-0.5,0.5-0.8c0.1-0.3,0.2-0.6,0.2-1
				v-3.6h0.9V242.4z M439.9,238.8h-1.1v-1h1.1V238.8z M440.8,237.2h-1.1v-0.9h1.1V237.2z M441.6,238.8h-1.1v-1h1.1V238.8z"/>
			<path class="st4" d="M446.1,243.5c0.4,0,0.7-0.1,0.9-0.3c0.2-0.2,0.3-0.4,0.3-0.8v-1.9h0.9v1.9c0,0.2,0,0.4,0.1,0.5
				c0.1,0.1,0.2,0.2,0.3,0.3c0.1,0.1,0.2,0.1,0.4,0.2c0.1,0,0.3,0.1,0.4,0.1h0.4c0.2,0,0.3,0.2,0.3,0.5c0,0.3-0.1,0.5-0.3,0.5h-0.4
				c-0.3,0-0.6-0.1-0.9-0.2c-0.3-0.1-0.5-0.4-0.7-0.7c-0.2,0.3-0.4,0.6-0.7,0.7c-0.3,0.1-0.6,0.2-0.9,0.2h-1c-0.1,0-0.2,0-0.2-0.1
				c0-0.1-0.1-0.2-0.1-0.3c0-0.2,0-0.3,0.1-0.4c0-0.1,0.1-0.1,0.2-0.1H446.1z M447,246.9h-1v-1h1V246.9z M448.7,246.9h-1v-1h1V246.9
				z"/>
			<path class="st4" d="M450.9,243.5c0.3,0,0.6-0.1,0.8-0.3c0.2-0.2,0.3-0.4,0.3-0.8v-1.9h0.9v1.9c0,0.6-0.2,1.1-0.5,1.5
				c-0.4,0.3-0.8,0.5-1.4,0.5h-1.3c-0.1,0-0.2,0-0.2-0.1c0-0.1-0.1-0.2-0.1-0.3c0-0.2,0-0.3,0.1-0.4c0-0.1,0.1-0.1,0.2-0.1H450.9z
				 M450.9,246.9h-1.1v-1h1.1V246.9z M451.8,248.5h-1.1v-1h1.1V248.5z M452.7,246.9h-1.1v-1h1.1V246.9z"/>
			<path class="st4" d="M461.1,242.2c0,0.4,0.1,0.7,0.2,0.9c0.2,0.2,0.4,0.4,0.8,0.4h0.2c0.1,0,0.2,0,0.2,0.1c0,0.1,0.1,0.2,0.1,0.3
				c0,0.2,0,0.3-0.1,0.4c0,0.1-0.1,0.1-0.2,0.1h-0.2c-0.4,0-0.8-0.1-1.1-0.3c-0.3-0.2-0.5-0.5-0.6-0.9c-0.1,0.1-0.2,0.2-0.4,0.3
				c-0.2,0.1-0.3,0.2-0.5,0.2c-0.2,0-0.4,0.1-0.5,0.1c-0.2,0-0.3,0-0.5,0c-0.7,0-1.2-0.2-1.5-0.5c-0.3-0.3-0.5-0.9-0.5-1.6
				c0-0.3,0-0.7,0.1-1c0.1-0.3,0.2-0.6,0.4-0.9c0.2-0.3,0.4-0.5,0.7-0.6c0.3-0.2,0.6-0.2,1-0.2h1.5v-0.9h0.8V242.2z M458.7,243
				c0.5,0,0.8-0.1,1.1-0.3c0.3-0.2,0.4-0.4,0.4-0.7v-2h-1.4c-0.5,0-0.8,0.2-1.1,0.5c-0.3,0.3-0.4,0.7-0.4,1.2c0,0.5,0.1,0.8,0.4,1
				C458,242.9,458.3,243,458.7,243z"/>
			<path class="st4" d="M465,243.5c-0.4-0.3-0.8-0.6-1-0.9c-0.3-0.4-0.4-0.8-0.4-1.2c0-0.3,0.1-0.6,0.2-0.9c0.1-0.3,0.3-0.5,0.5-0.7
				c0.2-0.2,0.5-0.4,0.8-0.5c0.3-0.1,0.6-0.2,1-0.2c0.4,0,0.7,0.1,1,0.2c0.3,0.1,0.5,0.3,0.7,0.5c0.2,0.2,0.3,0.4,0.4,0.7
				c0.1,0.3,0.1,0.5,0.1,0.8c0,0.9-0.4,1.6-1.3,2.2h2.5c0.2,0,0.3,0.2,0.3,0.5c0,0.3-0.1,0.5-0.3,0.5h-1.5c-0.4,0-0.8,0-1.1,0
				c-0.3,0-0.6-0.1-0.8-0.2c-0.1,0.1-0.3,0.1-0.5,0.1c-0.2,0-0.4,0-0.6,0.1c-0.2,0-0.4,0-0.6,0c-0.2,0-0.3,0-0.5,0h-1.6
				c-0.1,0-0.2,0-0.2-0.1c0-0.1-0.1-0.2-0.1-0.3c0-0.2,0-0.3,0.1-0.4c0-0.1,0.1-0.1,0.2-0.1H465z M465.9,240c-0.4,0-0.8,0.1-1.1,0.4
				c-0.3,0.3-0.4,0.6-0.4,1.1c0,0.2,0,0.4,0.1,0.6s0.2,0.4,0.4,0.5c0.1,0.2,0.3,0.3,0.5,0.4c0.2,0.1,0.4,0.2,0.5,0.3
				c0.1-0.1,0.3-0.2,0.5-0.3c0.2-0.1,0.3-0.2,0.4-0.4s0.2-0.3,0.3-0.5s0.1-0.4,0.1-0.6c0-0.5-0.1-0.8-0.4-1.1
				C466.7,240.1,466.4,240,465.9,240z M465.6,237.8h-1.1v-1h1.1V237.8z M467.3,237.8h-1.1v-1h1.1V237.8z"/>
			<path class="st4" d="M470.5,243.5c0.4,0,0.7-0.1,0.9-0.3c0.2-0.2,0.3-0.4,0.3-0.8v-1.9h0.9v1.9c0,0.2,0,0.4,0.1,0.5
				c0.1,0.1,0.2,0.2,0.3,0.3c0.1,0.1,0.2,0.1,0.4,0.2c0.1,0,0.3,0.1,0.4,0.1h0.4c0.2,0,0.3,0.2,0.3,0.5c0,0.3-0.1,0.5-0.3,0.5h-0.4
				c-0.3,0-0.6-0.1-0.9-0.2c-0.3-0.1-0.5-0.4-0.7-0.7c-0.2,0.3-0.4,0.6-0.7,0.7c-0.3,0.1-0.6,0.2-0.9,0.2h-1c-0.1,0-0.2,0-0.2-0.1
				c0-0.1-0.1-0.2-0.1-0.3c0-0.2,0-0.3,0.1-0.4c0-0.1,0.1-0.1,0.2-0.1H470.5z M471.3,246.9h-1v-1h1V246.9z M473.1,246.9h-1v-1h1
				V246.9z"/>
			<path class="st4" d="M476.3,243.5c0.2,0,0.4,0,0.6,0c0.2,0,0.3,0,0.5,0c-0.5-0.2-0.9-0.3-1.2-0.5c-0.3-0.2-0.5-0.3-0.7-0.5
				c-0.2-0.2-0.2-0.4-0.3-0.6c0-0.2-0.1-0.4-0.1-0.7c0-0.3,0-0.5,0.1-0.8c0.1-0.3,0.2-0.5,0.4-0.7c0.2-0.2,0.4-0.4,0.7-0.5
				c0.3-0.1,0.6-0.2,1-0.2c0.3,0,0.7,0,0.9,0.1c0.3,0.1,0.5,0.2,0.7,0.5c0.2,0.2,0.4,0.5,0.5,0.8c0.1,0.3,0.2,0.7,0.2,1.2v0.6
				c0,0.7-0.2,1.2-0.6,1.6c-0.4,0.4-1.1,0.6-2,0.6H474c-0.1,0-0.2,0-0.2-0.1c0-0.1-0.1-0.2-0.1-0.3c0-0.2,0-0.3,0.1-0.4
				c0-0.1,0.1-0.1,0.2-0.1H476.3z M477.4,239.9c-0.2,0-0.4,0-0.6,0.1c-0.2,0.1-0.3,0.2-0.4,0.3c-0.1,0.1-0.2,0.3-0.3,0.4
				c-0.1,0.2-0.1,0.3-0.1,0.5c0,0.2,0,0.3,0.1,0.5s0.1,0.3,0.3,0.4c0.2,0.1,0.4,0.3,0.7,0.5c0.3,0.2,0.8,0.4,1.4,0.6
				c0.3-0.2,0.4-0.6,0.4-1.1v-0.4c0-0.6-0.1-1-0.3-1.3C478.4,240,478,239.9,477.4,239.9z M477.1,237.6h-1.1v-1h1.1V237.6z
				 M478.9,237.6h-1.1v-1h1.1V237.6z"/>
			<path class="st4" d="M486.2,241.2c0.2,0.3,0.4,0.5,0.5,0.8s0.2,0.5,0.2,0.7c0,0.5-0.2,0.9-0.5,1.2c-0.3,0.3-0.8,0.5-1.5,0.5h-3.8
				l-0.1-0.9h3.7c0.3,0,0.6-0.1,0.8-0.2c0.2-0.2,0.3-0.4,0.3-0.6c0-0.1,0-0.3-0.1-0.4c-0.1-0.2-0.2-0.3-0.3-0.4l-2.5-2.8l0.7-0.6
				L486.2,241.2z"/>
			<path class="st4" d="M492.7,241.1c-0.2,0-0.4,0-0.6-0.1s-0.4-0.2-0.5-0.4c0,0.2,0,0.4,0,0.7c0,0.2,0,0.5,0,0.7v3.3h-0.9v-3.3
				c0-0.5,0-1,0-1.4c0-0.4-0.1-0.8-0.1-1.1c-0.1-0.3-0.1-0.7-0.2-1c-0.1-0.3-0.2-0.6-0.3-0.9l0.8-0.3c0.1,0.2,0.1,0.4,0.2,0.6
				c0,0.2,0.1,0.3,0.1,0.5c0,0.2,0.1,0.3,0.1,0.4c0,0.1,0.1,0.3,0.1,0.5c0.1,0.3,0.2,0.6,0.4,0.8c0.2,0.2,0.4,0.3,0.7,0.3
				c0.3,0,0.5-0.1,0.8-0.3c0.2-0.2,0.3-0.4,0.3-0.7c0-0.2,0-0.5-0.1-0.8c0-0.3-0.1-0.7-0.2-1l0.8-0.2c0.1,0.3,0.1,0.7,0.2,1
				c0,0.3,0.1,0.7,0.1,1c0,0.3,0,0.6-0.1,0.8c-0.1,0.2-0.2,0.4-0.4,0.6c-0.2,0.2-0.4,0.3-0.6,0.4C493.2,241.1,493,241.1,492.7,241.1
				z"/>
			<path class="st4" d="M495.9,243.3c0-0.3,0-0.6,0.1-0.9c0.1-0.3,0.2-0.7,0.4-1.1c0.2-0.4,0.5-0.8,0.9-1.3c0.4-0.5,0.8-1.1,1.4-1.7
				l-0.6-0.6l0.5-0.6c0.9,0.7,1.6,1.4,2.1,1.9s1,1.1,1.3,1.6c0.3,0.5,0.5,0.9,0.6,1.3c0.1,0.4,0.2,0.8,0.2,1.2c0,0.4-0.1,0.7-0.2,1
				c-0.1,0.3-0.3,0.5-0.5,0.7c-0.2,0.2-0.4,0.3-0.6,0.4c-0.2,0.1-0.5,0.1-0.7,0.1c-0.3,0-0.6-0.1-0.9-0.2c-0.2-0.1-0.5-0.3-0.6-0.5
				c-0.2,0.2-0.4,0.4-0.7,0.5c-0.3,0.1-0.5,0.2-0.8,0.2c-0.6,0-1.1-0.2-1.4-0.5S495.9,243.9,495.9,243.3z M501.9,243
				c0-0.3,0-0.5-0.1-0.8s-0.2-0.6-0.4-1c-0.2-0.4-0.5-0.7-0.8-1.1c-0.3-0.4-0.8-0.9-1.3-1.3c-0.9,0.9-1.5,1.7-2,2.4
				c-0.4,0.7-0.6,1.3-0.6,1.9c0,0.4,0.1,0.8,0.3,1s0.5,0.3,0.8,0.3c0.1,0,0.3,0,0.4-0.1c0.1,0,0.3-0.1,0.4-0.2
				c0.1-0.1,0.2-0.2,0.3-0.4c0.1-0.1,0.1-0.3,0.1-0.5v-0.9h0.8v0.8c0,0.2,0,0.3,0,0.5c0,0.1-0.1,0.2-0.1,0.3
				c0.1,0.1,0.3,0.3,0.5,0.3s0.4,0.1,0.6,0.1c0.3,0,0.6-0.1,0.8-0.3C501.8,243.8,501.9,243.5,501.9,243z"/>
		</g>
		<g>
			<path class="st4" d="M263.2,284.8v-18h-13.5l0,18h2.2l4.5-4.5l4.5,4.5H263.2z M251.9,281.6l0-12.5h9v12.5l-4.5-4.5L251.9,281.6z"
				/>
			<rect x="243" y="262.4" class="st5" width="26.9" height="26.9"/>
		</g>
		<g>
			<path class="st4" d="M590.3,241c0-1.4,1.2-2.6,2.6-2.6c1.4,0,2.6,1.2,2.6,2.6c0,1.4-1.2,2.6-2.6,2.6
				C591.4,243.6,590.3,242.5,590.3,241z M603.4,230.6v29.3v7.4h-47.1h0v-12.7l0,0v-24H603.4z M598.1,235.8h-36.6v13.5l10.5-10.4
				L585,252l5.2-5.2l7.9,7.9V235.8z"/>
			<rect x="548.4" y="217.4" class="st5" width="62.9" height="62.9"/>
		</g>
		<g>
			<rect x="422.4" y="262.4" class="st3" width="0.5" height="2"/>
			<path class="st3" d="M422.9,302h-0.5v-4.3h0.5V302z M422.9,294.5h-0.5v-4.3h0.5V294.5z M422.9,287h-0.5v-4.3h0.5V287z
				 M422.9,279.4h-0.5v-4.3h0.5V279.4z M422.9,271.9h-0.5v-4.3h0.5V271.9z"/>
			<rect x="422.4" y="305.3" class="st3" width="0.5" height="2"/>
		</g>
		<g>
			<rect x="431.3" y="262.4" class="st3" width="0.5" height="2"/>
			<path class="st3" d="M431.8,302h-0.5v-4.3h0.5V302z M431.8,294.5h-0.5v-4.3h0.5V294.5z M431.8,287h-0.5v-4.3h0.5V287z
				 M431.8,279.4h-0.5v-4.3h0.5V279.4z M431.8,271.9h-0.5v-4.3h0.5V271.9z"/>
			<rect x="431.3" y="305.3" class="st3" width="0.5" height="2"/>
		</g>
		<g>
			<rect x="386.4" y="262.4" class="st3" width="0.5" height="2"/>
			<path class="st3" d="M386.9,302h-0.5v-4.3h0.5V302z M386.9,294.5h-0.5v-4.3h0.5V294.5z M386.9,287h-0.5v-4.3h0.5V287z
				 M386.9,279.4h-0.5v-4.3h0.5V279.4z M386.9,271.9h-0.5v-4.3h0.5V271.9z"/>
			<rect x="386.4" y="305.3" class="st3" width="0.5" height="2"/>
		</g>
		<g>
			<rect x="242.7" y="262.4" class="st3" width="0.5" height="2"/>
			<path class="st3" d="M243.2,302h-0.5v-4.3h0.5V302z M243.2,294.5h-0.5v-4.3h0.5V294.5z M243.2,287h-0.5v-4.3h0.5V287z
				 M243.2,279.4h-0.5v-4.3h0.5V279.4z M243.2,271.9h-0.5v-4.3h0.5V271.9z"/>
			<rect x="242.7" y="305.3" class="st3" width="0.5" height="2"/>
		</g>
		<g>
			<rect x="269.7" y="262.4" class="st3" width="0.5" height="2"/>
			<path class="st3" d="M270.2,302h-0.5v-4.3h0.5V302z M270.2,294.5h-0.5v-4.3h0.5V294.5z M270.2,287h-0.5v-4.3h0.5V287z
				 M270.2,279.4h-0.5v-4.3h0.5V279.4z M270.2,271.9h-0.5v-4.3h0.5V271.9z"/>
			<rect x="269.7" y="305.3" class="st3" width="0.5" height="2"/>
		</g>
		<g>
			<rect x="395.4" y="262.4" class="st3" width="0.5" height="2"/>
			<path class="st3" d="M395.9,302h-0.5v-4.3h0.5V302z M395.9,294.5h-0.5v-4.3h0.5V294.5z M395.9,287h-0.5v-4.3h0.5V287z
				 M395.9,279.4h-0.5v-4.3h0.5V279.4z M395.9,271.9h-0.5v-4.3h0.5V271.9z"/>
			<rect x="395.4" y="305.3" class="st3" width="0.5" height="2"/>
		</g>
		<g>
			<path class="st4" d="M437.4,277.2c0,0.5,0.1,1,0.3,1.3c0.2,0.3,0.6,0.5,1.2,0.5h0.3c0.1,0,0.3,0.1,0.3,0.2
				c0.1,0.1,0.1,0.3,0.1,0.5c0,0.2,0,0.4-0.1,0.5c-0.1,0.1-0.2,0.2-0.3,0.2h-0.3c-0.6,0-1.1-0.1-1.5-0.4c-0.4-0.2-0.7-0.7-0.9-1.3
				c-0.1,0.2-0.3,0.3-0.6,0.5c-0.2,0.1-0.4,0.2-0.7,0.3c-0.2,0.1-0.5,0.1-0.7,0.1c-0.2,0-0.5,0-0.7,0c-0.9,0-1.6-0.2-2.1-0.7
				c-0.5-0.5-0.7-1.2-0.7-2.2c0-0.5,0.1-0.9,0.2-1.4c0.1-0.4,0.3-0.8,0.6-1.2c0.3-0.3,0.6-0.6,1-0.8c0.4-0.2,0.9-0.3,1.4-0.3h2v-1.3
				h1.2V277.2z M434.1,278.3c0.6,0,1.2-0.1,1.5-0.4c0.4-0.3,0.6-0.6,0.6-1v-2.8h-2c-0.6,0-1.1,0.2-1.5,0.6c-0.3,0.4-0.5,1-0.5,1.7
				c0,0.7,0.2,1.2,0.5,1.4C433,278.2,433.5,278.3,434.1,278.3z"/>
			<path class="st4" d="M440,279c0.5,0,1.1,0,1.7-0.1c0.6-0.1,1.2-0.2,1.8-0.5l-2.8-3.6l0.7-1.3h4.8c0.6,0,1,0.1,1.4,0.4
				c0.4,0.2,0.6,0.6,0.7,1.1c0,0.1,0,0.1,0,0.2s0,0.1,0,0.2c0,0.2-0.1,0.3-0.1,0.5c-0.1,0.2-0.2,0.4-0.4,0.6s-0.4,0.5-0.7,0.9
				c-0.3,0.3-0.7,0.7-1.2,1.1c0.2,0.1,0.4,0.2,0.6,0.3c0.2,0.1,0.4,0.1,0.6,0.1c0.2,0,0.4,0.1,0.7,0.1c0.3,0,0.5,0,0.8,0h1.4
				c0.3,0,0.4,0.2,0.4,0.6c0,0.4-0.1,0.7-0.4,0.7h-1.6c-0.4,0-0.8,0-1.1,0c-0.3,0-0.7-0.1-1-0.1c-0.3-0.1-0.6-0.2-0.9-0.3
				c-0.3-0.1-0.5-0.3-0.8-0.6c-0.7,0.4-1.4,0.7-2.1,0.9c-0.7,0.1-1.5,0.2-2.4,0.2h-0.9c-0.2,0-0.3,0-0.3-0.1
				c-0.1-0.1-0.1-0.3-0.1-0.5c0-0.2,0-0.4,0.1-0.5c0.1-0.1,0.2-0.2,0.3-0.2H440z M447.1,275.5c0-0.2-0.1-0.4-0.3-0.6
				c-0.2-0.1-0.5-0.2-0.9-0.2h-3.8l2.6,3.4c0.4-0.4,0.8-0.7,1.1-1c0.3-0.3,0.5-0.5,0.7-0.7c0.2-0.2,0.3-0.4,0.4-0.5
				C447,275.8,447.1,275.6,447.1,275.5z"/>
			<path class="st4" d="M451.6,279c0.5,0,0.9-0.1,1.2-0.4c0.3-0.3,0.4-0.6,0.4-1.1V275h1.2v2.6c0,0.9-0.2,1.6-0.7,2
				c-0.5,0.5-1.2,0.7-2,0.7h-1.8c-0.2,0-0.3,0-0.3-0.1c-0.1-0.1-0.1-0.3-0.1-0.5c0-0.2,0-0.4,0.1-0.5c0.1-0.1,0.2-0.2,0.3-0.2H451.6
				z M451.4,283.8H450v-1.3h1.4V283.8z M453.9,283.8h-1.4v-1.3h1.4V283.8z"/>
			<path class="st4" d="M463.3,275.9c0.3,0.4,0.6,0.7,0.7,1.1c0.1,0.4,0.2,0.7,0.2,1c0,0.7-0.2,1.2-0.7,1.7c-0.5,0.4-1.2,0.7-2,0.7
				h-5.2l-0.1-1.3h5.2c0.5,0,0.9-0.1,1.1-0.3c0.3-0.2,0.4-0.5,0.4-0.9c0-0.2,0-0.4-0.1-0.6c-0.1-0.2-0.2-0.4-0.4-0.6l-3.5-3.9l1-0.9
				L463.3,275.9z"/>
			<path class="st4" d="M467.9,283.6c0.5,0,1-0.1,1.5-0.3c0.4-0.2,0.8-0.4,1.1-0.7s0.5-0.6,0.7-1s0.2-0.8,0.3-1.2h-1.9
				c-0.6,0-1.2-0.1-1.6-0.2c-0.4-0.1-0.7-0.3-1-0.6s-0.4-0.6-0.5-0.9c-0.1-0.4-0.1-0.8-0.1-1.2c0-0.5,0.1-0.9,0.2-1.3
				c0.1-0.4,0.3-0.8,0.6-1.1c0.3-0.3,0.6-0.6,1-0.8c0.4-0.2,0.8-0.3,1.4-0.3c0.4,0,0.8,0.1,1.2,0.2c0.4,0.1,0.7,0.4,1,0.6
				c0.3,0.3,0.5,0.7,0.7,1.1c0.2,0.5,0.3,1,0.3,1.7v2.5c0,0.6-0.1,1.2-0.3,1.8c-0.2,0.6-0.5,1.1-0.9,1.5c-0.4,0.4-0.9,0.8-1.4,1.1
				s-1.2,0.4-1.9,0.4h-2l-0.1-1.3H467.9z M467.5,277.3c0,0.3,0,0.6,0.1,0.8c0.1,0.2,0.2,0.4,0.4,0.6c0.2,0.1,0.4,0.2,0.7,0.3
				c0.3,0.1,0.6,0.1,1.1,0.1h1.7v-1.4c0-0.9-0.2-1.6-0.5-2c-0.4-0.4-0.9-0.6-1.5-0.6c-0.6,0-1.1,0.2-1.4,0.6
				C467.6,276,467.5,276.6,467.5,277.3z"/>
			<path class="st4" d="M478.1,281.5v-4.5c0-0.7,0-1.4-0.1-2c0-0.6-0.1-1.1-0.2-1.5c-0.1-0.5-0.2-0.9-0.3-1.3
				c-0.1-0.4-0.2-0.9-0.3-1.3l1.2-0.4c0.2,0.5,0.3,1,0.4,1.4c0.1,0.5,0.2,0.9,0.3,1.4c0.1,0.5,0.1,1,0.2,1.6c0,0.6,0.1,1.2,0.1,2
				v4.6H478.1z"/>
			<path class="st4" d="M487.1,271.8c0,0.5,0.1,0.9,0.1,1.3c0,0.1,0,0.2,0,0.3c0,0.1,0,0.2-0.1,0.4c0.2,0.2,0.4,0.4,0.6,0.5
				s0.5,0.2,0.7,0.2c0.4,0,0.8-0.1,1-0.4c0.3-0.3,0.4-0.6,0.4-0.9c0-0.3,0-0.7-0.1-1.2c0-0.4-0.1-0.9-0.2-1.5l1.2-0.2
				c0.2,0.9,0.3,1.9,0.3,2.8c0,0.4-0.1,0.7-0.2,1s-0.3,0.6-0.5,0.8c-0.2,0.2-0.5,0.4-0.8,0.6s-0.6,0.2-1,0.2c-0.3,0-0.7-0.1-1-0.2
				c-0.3-0.1-0.6-0.4-1-0.7c-0.2,0.3-0.5,0.5-0.8,0.7c-0.3,0.2-0.7,0.3-1.2,0.3c-0.3,0-0.6-0.1-0.9-0.2c-0.3-0.1-0.5-0.3-0.7-0.6
				c0,0.3,0,0.6,0.1,0.9c0,0.3,0,0.6,0,1v4.5h-1.2v-4.5c0-0.7,0-1.4-0.1-2c0-0.6-0.1-1.1-0.2-1.5c-0.1-0.5-0.2-0.9-0.3-1.3
				c-0.1-0.4-0.2-0.9-0.3-1.3l1.2-0.4c0.1,0.3,0.2,0.6,0.2,0.8c0.1,0.2,0.1,0.5,0.2,0.7c0.1,0.2,0.1,0.4,0.2,0.6
				c0,0.2,0.1,0.4,0.2,0.6c0.1,0.4,0.3,0.8,0.6,1s0.6,0.4,1,0.4c0.4,0,0.8-0.1,1.1-0.4c0.3-0.2,0.5-0.6,0.5-1c0-0.3,0-0.7-0.1-1.1
				c-0.1-0.4-0.1-0.9-0.2-1.5l1.2-0.2C487,270.8,487.1,271.3,487.1,271.8z"/>
			<path class="st4" d="M492.9,278.7c0-0.4,0.1-0.8,0.2-1.3c0.1-0.4,0.3-0.9,0.6-1.5c0.3-0.6,0.7-1.2,1.2-1.9c0.5-0.7,1.2-1.5,2-2.4
				L496,271l0.7-0.9c1.2,1,2.2,1.9,2.9,2.7c0.7,0.8,1.3,1.5,1.8,2.2c0.4,0.7,0.7,1.3,0.8,1.8c0.1,0.6,0.2,1.1,0.2,1.6
				c0,0.5-0.1,1-0.2,1.4c-0.2,0.4-0.4,0.7-0.6,1c-0.3,0.3-0.6,0.4-0.9,0.6c-0.3,0.1-0.7,0.2-1,0.2c-0.5,0-0.9-0.1-1.2-0.3
				c-0.3-0.2-0.6-0.4-0.9-0.7c-0.3,0.3-0.6,0.5-0.9,0.7s-0.7,0.2-1.1,0.2c-0.8,0-1.5-0.2-2-0.7C493.2,280.3,492.9,279.6,492.9,278.7
				z M501.3,278.4c0-0.3,0-0.7-0.1-1.1c-0.1-0.4-0.3-0.9-0.5-1.3c-0.3-0.5-0.6-1-1.1-1.6c-0.5-0.6-1.1-1.2-1.9-1.9
				c-1.2,1.2-2.1,2.4-2.7,3.3c-0.6,1-0.9,1.9-0.9,2.6c0,0.6,0.2,1,0.4,1.3c0.3,0.3,0.7,0.4,1.2,0.4c0.2,0,0.4,0,0.6-0.1
				c0.2-0.1,0.4-0.2,0.5-0.3s0.3-0.3,0.4-0.5c0.1-0.2,0.1-0.5,0.1-0.7v-1.3h1.1v1.2c0,0.2,0,0.5-0.1,0.6c0,0.2-0.1,0.3-0.1,0.5
				c0.2,0.2,0.4,0.4,0.6,0.5c0.2,0.1,0.5,0.2,0.8,0.2c0.4,0,0.8-0.2,1.2-0.5C501.2,279.5,501.3,279,501.3,278.4z"/>
		</g>
		<g>
			<path class="st4" d="M345.6,277.4c0-0.4,0-0.7,0.2-1.1c0.1-0.3,0.3-0.7,0.5-1c0.2-0.3,0.5-0.7,0.8-1.1c0.3-0.4,0.7-0.8,1.2-1.3
				l-0.9-0.9l0.8-0.9c0.8,0.8,1.4,1.4,1.9,2c0.5,0.6,0.9,1.1,1.3,1.5c0.3,0.4,0.5,0.9,0.7,1.2c0.1,0.4,0.2,0.8,0.2,1.2
				c0,0.4-0.1,0.9-0.3,1.2c-0.2,0.4-0.4,0.7-0.7,1c-0.3,0.3-0.7,0.5-1.1,0.7c-0.4,0.2-0.9,0.2-1.3,0.2s-0.9-0.1-1.3-0.2
				c-0.4-0.1-0.7-0.3-1-0.6c-0.3-0.3-0.5-0.6-0.7-0.9C345.6,278.3,345.6,277.9,345.6,277.4z M351,277.2c0-0.2,0-0.5-0.1-0.7
				c-0.1-0.2-0.2-0.5-0.3-0.7c-0.2-0.2-0.4-0.5-0.6-0.8c-0.3-0.3-0.6-0.7-1-1.1c-0.4,0.4-0.8,0.8-1.1,1.2c-0.3,0.3-0.5,0.6-0.6,0.9
				c-0.1,0.3-0.3,0.5-0.3,0.7c0,0.2-0.1,0.4-0.1,0.6c0,0.5,0.2,0.9,0.5,1.3c0.4,0.3,0.9,0.5,1.5,0.5c0.3,0,0.6,0,0.9-0.1
				c0.3-0.1,0.5-0.2,0.7-0.4c0.2-0.2,0.3-0.4,0.4-0.6C350.9,277.7,351,277.4,351,277.2z"/>
			<path class="st4" d="M355.9,282c-0.2,0.6-0.5,1.1-0.9,1.5c-0.4,0.4-0.9,0.8-1.4,1c-0.5,0.2-1.1,0.3-1.8,0.3h-1.1l-0.1-1.3h0.9
				c0.6,0,1.2-0.1,1.6-0.3c0.4-0.2,0.8-0.5,1.1-0.8c0.3-0.3,0.5-0.7,0.6-1.1c0.1-0.4,0.2-0.9,0.2-1.3V275h1.2v5.1
				C356.3,280.7,356.2,281.4,355.9,282z"/>
			<path class="st4" d="M361.1,280.3c-0.3,0-0.6,0-0.9-0.1c-0.3-0.1-0.6-0.3-0.8-0.5c-0.2-0.2-0.4-0.5-0.6-0.9
				c-0.1-0.4-0.2-0.8-0.2-1.4v-8.7h1.2v8.5c0,0.5,0.1,1,0.3,1.3c0.2,0.3,0.6,0.5,1.1,0.5h0.3c0.3,0,0.4,0.2,0.4,0.6
				c0,0.4-0.1,0.7-0.4,0.7H361.1z"/>
			<path class="st4" d="M367.1,279.2c-0.3,0.2-0.6,0.4-0.9,0.5c-0.3,0.1-0.6,0.3-1,0.3c-0.3,0.1-0.7,0.2-1.2,0.2
				c-0.4,0-0.9,0.1-1.4,0.1h-0.9c-0.2,0-0.3,0-0.3-0.1c-0.1-0.1-0.1-0.3-0.1-0.5c0-0.2,0-0.4,0.1-0.5c0.1-0.1,0.2-0.2,0.3-0.2h0.9
				c0.5,0,0.9,0,1.3,0c0.4,0,0.7-0.1,1-0.1c0.3-0.1,0.6-0.2,0.9-0.3c0.3-0.1,0.6-0.3,0.8-0.4l3.2-1.8c-0.1-0.3-0.2-0.5-0.3-0.7
				c-0.1-0.2-0.3-0.4-0.4-0.6c-0.2-0.1-0.4-0.3-0.6-0.3c-0.3-0.1-0.6-0.1-0.9-0.1h-4.2l0.1-1.3h4.2c0.3,0,0.7,0,1,0.1s0.7,0.2,1,0.5
				c0.3,0.2,0.6,0.6,0.9,1.1c0.3,0.5,0.5,1.1,0.7,1.9L367.1,279.2z M367,283.9h-1.6v-1.4h1.6V283.9z"/>
			<path class="st4" d="M373.4,268.7h1.2v11.6h-1.2V268.7z"/>
			<path class="st4" d="M383.1,275.8c-0.3,0-0.6-0.1-0.9-0.2c-0.3-0.1-0.5-0.3-0.7-0.6c0,0.3,0,0.6,0.1,0.9c0,0.3,0,0.6,0,1v4.5
				h-1.2v-4.5c0-0.7,0-1.4-0.1-2c0-0.6-0.1-1.1-0.2-1.5c-0.1-0.5-0.2-0.9-0.3-1.3c-0.1-0.4-0.2-0.9-0.3-1.3l1.2-0.4
				c0.1,0.3,0.2,0.6,0.2,0.8c0.1,0.2,0.1,0.5,0.2,0.7c0.1,0.2,0.1,0.4,0.2,0.6c0,0.2,0.1,0.4,0.2,0.6c0.1,0.4,0.3,0.8,0.6,1
				s0.6,0.4,1,0.4c0.4,0,0.8-0.1,1.1-0.4c0.3-0.2,0.5-0.6,0.5-1c0-0.3,0-0.7-0.1-1.1c-0.1-0.4-0.1-0.9-0.2-1.5l1.2-0.2
				c0.1,0.5,0.2,0.9,0.2,1.4c0,0.5,0.1,0.9,0.1,1.3c0,0.4-0.1,0.8-0.2,1.1c-0.1,0.3-0.3,0.6-0.5,0.9c-0.2,0.2-0.5,0.4-0.8,0.5
				C383.9,275.7,383.5,275.8,383.1,275.8z"/>
		</g>
		<g>
			<path class="st4" d="M420.8,265.1l-22.5,22.5l-1.6-1.6l6.7-6.7H399V277h6.7l2.2-2.2h-1.1v0H399l5.6-5.6v3.4h5.6l9-9L420.8,265.1z
				 M412.5,274.7h6.7v-2.2h-4.5L412.5,274.7z M414.7,277h-4.5l-2.2,2.2h5.6v3.4l5.6-5.6L414.7,277L414.7,277z"/>
			<rect x="395.7" y="262.4" class="st5" width="26.9" height="26.9"/>
		</g>
		<path class="st3" d="M422.9,289.6h-27.4v-27.4h27.4V289.6z M395.9,289.1h26.4v-26.4h-26.4V289.1z"/>
		<path class="st3" d="M270.2,289.6h-27.4v-27.4h27.4V289.6z M243.2,289.1h26.4v-26.4h-26.4V289.1z"/>
		<g>
			<rect x="180.1" y="262.1" width="35.9" height="0.5"/>
			<rect x="197.8" y="262.4" width="0.5" height="26.9"/>
			<polygon points="180.1,289.6 180.1,289.1 216,289 216,289.5 			"/>
			<g>
				<path d="M174.3,279.3h-5.6v-0.8l3-3.3c0.4-0.5,0.7-0.9,0.9-1.2s0.2-0.6,0.2-1c0-0.4-0.1-0.8-0.4-1.1s-0.6-0.4-1.1-0.4
					c-0.5,0-1,0.2-1.3,0.5s-0.4,0.7-0.4,1.3h-1.1c0-0.8,0.3-1.4,0.8-1.9s1.2-0.7,2-0.7c0.8,0,1.4,0.2,1.9,0.6s0.7,1,0.7,1.7
					c0,0.8-0.5,1.8-1.6,3l-2.3,2.5h4.3V279.3z"/>
				<path d="M180,276.5h1.2v0.9H180v2h-1.1v-2H175v-0.6l3.8-5.9h1.2V276.5z M176.3,276.5h2.7v-4.2l-0.1,0.2L176.3,276.5z"/>
			</g>
		</g>
		<g>
			<rect x="429.6" y="289.1" class="st3" width="2" height="0.5"/>
			<path class="st3" d="M426.6,289.6h-3.9v-0.5h3.9V289.6z M419.8,289.6h-3.9v-0.5h3.9V289.6z M412.9,289.6h-3.9v-0.5h3.9V289.6z
				 M406,289.6h-3.9v-0.5h3.9V289.6z M399.1,289.6h-3.9v-0.5h3.9V289.6z M392.2,289.6h-3.9v-0.5h3.9V289.6z M385.3,289.6h-3.9v-0.5
				h3.9V289.6z M378.4,289.6h-3.9v-0.5h3.9V289.6z M371.6,289.6h-3.9v-0.5h3.9V289.6z M364.7,289.6h-3.9v-0.5h3.9V289.6z
				 M357.8,289.6h-3.9v-0.5h3.9V289.6z M350.9,289.6H347v-0.5h3.9V289.6z M344,289.6h-3.9v-0.5h3.9V289.6z M337.1,289.6h-3.9v-0.5
				h3.9V289.6z M330.3,289.6h-3.9v-0.5h3.9V289.6z M323.4,289.6h-3.9v-0.5h3.9V289.6z M316.5,289.6h-3.9v-0.5h3.9V289.6z
				 M309.6,289.6h-3.9v-0.5h3.9V289.6z M302.7,289.6h-3.9v-0.5h3.9V289.6z M295.8,289.6h-3.9v-0.5h3.9V289.6z M289,289.6H285v-0.5
				h3.9V289.6z M282.1,289.6h-3.9v-0.5h3.9V289.6z M275.2,289.6h-3.9v-0.5h3.9V289.6z M268.3,289.6h-3.9v-0.5h3.9V289.6z
				 M261.4,289.6h-3.9v-0.5h3.9V289.6z M254.5,289.6h-3.9v-0.5h3.9V289.6z M247.7,289.6h-3.9v-0.5h3.9V289.6z M240.8,289.6h-3.9
				v-0.5h3.9V289.6z M233.9,289.6H230v-0.5h3.9V289.6z"/>
			<rect x="225" y="289.1" class="st3" width="2" height="0.5"/>
		</g>
		<g>
			<rect x="267.9" y="262.1" class="st3" width="2" height="0.5"/>
			<path class="st3" d="M264.7,262.6h-4.3v-0.5h4.3V262.6z M257.1,262.6h-4.3v-0.5h4.3V262.6z M249.6,262.6h-4.3v-0.5h4.3V262.6z
				 M242.1,262.6h-4.3v-0.5h4.3V262.6z M234.5,262.6h-4.3v-0.5h4.3V262.6z"/>
			<rect x="225" y="262.1" class="st3" width="2" height="0.5"/>
		</g>
		<g>
			<rect x="296.8" y="280.1" width="35.9" height="0.5"/>
			<rect x="314.6" y="280.3" width="0.5" height="26.9"/>
			<polygon points="296.8,307.5 296.8,307 332.8,307 332.8,307.5 			"/>
			<g>
				<path d="M288.3,299h-5.6v-0.8l3-3.3c0.4-0.5,0.7-0.9,0.9-1.2s0.2-0.6,0.2-1c0-0.4-0.1-0.8-0.4-1.1s-0.6-0.4-1.1-0.4
					c-0.5,0-1,0.2-1.3,0.5s-0.4,0.7-0.4,1.3h-1.1c0-0.8,0.3-1.4,0.8-1.9s1.2-0.7,2-0.7c0.8,0,1.4,0.2,1.9,0.6s0.7,1,0.7,1.7
					c0,0.8-0.5,1.8-1.6,3l-2.3,2.5h4.3V299z"/>
				<path d="M294,296.2h1.2v0.9H294v2h-1.1v-2H289v-0.6l3.8-5.9h1.2V296.2z M290.3,296.2h2.7V292l-0.1,0.2L290.3,296.2z"/>
			</g>
		</g>
	</g>
</g>
<g id="Isolation_Mode">
</g>
</svg>
