<?xml version="1.0" encoding="utf-8"?>
<!-- Generator: Adobe Illustrator 23.1.0, SVG Export Plug-In . SVG Version: 6.00 Build 0)  -->
<svg version="1.1" xmlns="http://www.w3.org/2000/svg" xmlns:xlink="http://www.w3.org/1999/xlink" x="0px" y="0px"
	 viewBox="0 0 864 504" style="enable-background:new 0 0 864 504;" xml:space="preserve">
<style type="text/css">
	.st0{fill:#DBD8D7;}
	.st1{opacity:8.000000e-02;fill:#FF8873;}
	.st2{fill:#F5F1F0;}
	.st3{fill:#BDB9B9;}
	.st4{fill:#FFFFFF;}
	.st5{fill:none;}
	.st6{fill:#FF8672;}
	.st7{fill:#504B4A;}
	.st8{fill:#4C4B4B;}
	.st9{fill:#AC2700;}
	.st10{fill:#C7C4C3;}
	.st11{fill:#FF8873;}
	.st12{clip-path:url(#SVGID_2_);}
	.st13{clip-path:url(#SVGID_4_);}
	.st14{fill:#FF8873;fill-opacity:0.5;}
	.st15{fill:#858282;}
	.st16{fill:#FFFFFF;fill-opacity:0.16;}
	.st17{fill:#FF8672;fill-opacity:8.000000e-02;}
	.st18{fill:#FF8672;fill-opacity:0.16;}
	.st19{fill:#FF8672;fill-opacity:0.32;}
	.st20{fill:#BFBBBA;}
	.st21{fill:#A8A5A5;}
	.st22{fill:#C4C4C4;}
	.st23{fill:#242323;}
	.st24{fill:#BFBCBC;}
	.st25{fill:#706E6E;}
	.st26{fill:#5C5A5A;}
	.st27{opacity:0.16;fill:#FF8873;}
</style>
<g id="Layer_2">
	<rect x="0.1" y="0" class="st0" width="863.9" height="504"/>
</g>
<g id="Layer_1">
	<rect x="618" y="287.8" class="st3" width="210" height="0.5"/>
	<g>
		<rect x="450" y="287.8" width="24" height="0.5"/>
		<rect x="461.7" y="288" width="0.5" height="12"/>
		<polygon points="450,300.3 450,299.8 474,299.7 474,300.2 		"/>
		<g>
			<path d="M436.3,297.5h-1.1v-7.2l-2.2,0.8v-1l3.1-1.2h0.2V297.5z"/>
			<path d="M443.7,289v0.9h-0.2c-0.8,0-1.5,0.3-2,0.8s-0.8,1.2-0.9,2c0.4-0.5,1.1-0.8,1.8-0.8c0.7,0,1.3,0.3,1.8,0.8s0.7,1.2,0.7,2
				c0,0.9-0.2,1.6-0.7,2.1s-1.1,0.8-1.9,0.8c-0.8,0-1.5-0.3-2-0.9s-0.8-1.4-0.8-2.4v-0.4c0-1.6,0.3-2.8,1-3.6s1.7-1.3,3-1.3H443.7z
				 M442.3,292.8c-0.4,0-0.7,0.1-1,0.3s-0.5,0.5-0.7,0.8v0.4c0,0.7,0.2,1.3,0.5,1.7s0.7,0.6,1.2,0.6c0.5,0,0.9-0.2,1.2-0.5
				s0.4-0.8,0.4-1.4c0-0.6-0.1-1.1-0.4-1.4S442.7,292.8,442.3,292.8z"/>
		</g>
	</g>
	<g>
		<rect x="78" y="287.8" width="24" height="0.5"/>
		<rect x="89.7" y="288" width="0.5" height="12"/>
		<polygon points="78,300.3 78,299.8 102,299.7 102,300.2 		"/>
		<g>
			<path d="M64.3,297.5h-1.1v-7.2l-2.2,0.8v-1l3.1-1.2h0.2V297.5z"/>
			<path d="M71.7,289v0.9h-0.2c-0.8,0-1.5,0.3-2,0.8s-0.8,1.2-0.9,2c0.4-0.5,1.1-0.8,1.8-0.8c0.7,0,1.3,0.3,1.8,0.8s0.7,1.2,0.7,2
				c0,0.9-0.2,1.6-0.7,2.1s-1.1,0.8-1.9,0.8c-0.8,0-1.5-0.3-2-0.9s-0.8-1.4-0.8-2.4v-0.4c0-1.6,0.3-2.8,1-3.6s1.7-1.3,3-1.3H71.7z
				 M70.3,292.8c-0.4,0-0.7,0.1-1,0.3s-0.5,0.5-0.7,0.8v0.4c0,0.7,0.2,1.3,0.5,1.7s0.7,0.6,1.2,0.6c0.5,0,0.9-0.2,1.2-0.5
				s0.4-0.8,0.4-1.4c0-0.6-0.1-1.1-0.4-1.4S70.7,292.8,70.3,292.8z"/>
		</g>
	</g>
	<g>
		<rect x="78" y="353.7" width="24" height="0.5"/>
		<rect x="89.7" y="354" width="0.5" height="12"/>
		<polygon points="78,366.3 78,365.8 102,365.7 102,366.2 		"/>
		<g>
			<path d="M64.3,363.5h-1.1v-7.2l-2.2,0.8v-1l3.1-1.2h0.2V363.5z"/>
			<path d="M71.7,355v0.9h-0.2c-0.8,0-1.5,0.3-2,0.8s-0.8,1.2-0.9,2c0.4-0.5,1.1-0.8,1.8-0.8c0.7,0,1.3,0.3,1.8,0.8s0.7,1.2,0.7,2
				c0,0.9-0.2,1.6-0.7,2.1s-1.1,0.8-1.9,0.8c-0.8,0-1.5-0.3-2-0.9s-0.8-1.4-0.8-2.4v-0.4c0-1.6,0.3-2.8,1-3.6s1.7-1.3,3-1.3H71.7z
				 M70.3,358.8c-0.4,0-0.7,0.1-1,0.3s-0.5,0.5-0.7,0.8v0.4c0,0.7,0.2,1.3,0.5,1.7s0.7,0.6,1.2,0.6c0.5,0,0.9-0.2,1.2-0.5
				s0.4-0.8,0.4-1.4c0-0.6-0.1-1.1-0.4-1.4S70.7,358.8,70.3,358.8z"/>
		</g>
	</g>
	<g>
		<rect x="509.8" y="372" width="0.5" height="24"/>
		<rect x="510" y="383.8" width="12" height="0.5"/>
		<rect x="521.8" y="372" transform="matrix(1 -1.545766e-03 1.545766e-03 1 -0.593 0.8074)" width="0.5" height="24"/>
		<g>
			<path d="M513.5,408h-1.1v-7.2l-2.2,0.8v-1l3.1-1.2h0.2V408z"/>
			<path d="M521,399.5v0.9h-0.2c-0.8,0-1.5,0.3-2,0.8s-0.8,1.2-0.9,2c0.4-0.5,1.1-0.8,1.8-0.8c0.7,0,1.3,0.3,1.8,0.8s0.7,1.2,0.7,2
				c0,0.9-0.2,1.6-0.7,2.1s-1.1,0.8-1.9,0.8c-0.8,0-1.5-0.3-2-0.9s-0.8-1.4-0.8-2.4v-0.4c0-1.6,0.3-2.8,1-3.6s1.7-1.3,3-1.3H521z
				 M519.6,403.3c-0.4,0-0.7,0.1-1,0.3s-0.5,0.5-0.7,0.8v0.4c0,0.7,0.2,1.3,0.5,1.7s0.7,0.6,1.2,0.6c0.5,0,0.9-0.2,1.2-0.5
				s0.4-0.8,0.4-1.4c0-0.6-0.1-1.1-0.4-1.4S520,403.3,519.6,403.3z"/>
		</g>
	</g>
	<g>
		<rect x="743.7" y="372" width="0.5" height="24"/>
		<rect x="744" y="383.8" width="12" height="0.5"/>
		<rect x="755.7" y="372" transform="matrix(1 -1.545766e-03 1.545766e-03 1 -0.5927 1.169)" width="0.5" height="24"/>
		<g>
			<path d="M747.5,408h-1.1v-7.2l-2.2,0.8v-1l3.1-1.2h0.2V408z"/>
			<path d="M755,399.5v0.9h-0.2c-0.8,0-1.5,0.3-2,0.8s-0.8,1.2-0.9,2c0.4-0.5,1.1-0.8,1.8-0.8c0.7,0,1.3,0.3,1.8,0.8s0.7,1.2,0.7,2
				c0,0.9-0.2,1.6-0.7,2.1s-1.1,0.8-1.9,0.8c-0.8,0-1.5-0.3-2-0.9s-0.8-1.4-0.8-2.4v-0.4c0-1.6,0.3-2.8,1-3.6s1.7-1.3,3-1.3H755z
				 M753.5,403.3c-0.4,0-0.7,0.1-1,0.3s-0.5,0.5-0.7,0.8v0.4c0,0.7,0.2,1.3,0.5,1.7s0.7,0.6,1.2,0.6c0.5,0,0.9-0.2,1.2-0.5
				s0.4-0.8,0.4-1.4c0-0.6-0.1-1.1-0.4-1.4S754,403.3,753.5,403.3z"/>
		</g>
	</g>
	<g>
		<rect x="689.8" y="372" width="0.5" height="24"/>
		<rect x="690" y="383.8" width="6" height="0.5"/>
		<rect x="695.7" y="372" width="0.5" height="24"/>
		<g>
			<path d="M695.5,401.7c0,0.4-0.1,0.8-0.3,1.1s-0.5,0.6-0.9,0.8c0.4,0.2,0.8,0.5,1.1,0.8s0.4,0.8,0.4,1.2c0,0.7-0.2,1.3-0.7,1.8
				s-1.2,0.7-2,0.7c-0.8,0-1.5-0.2-2-0.7s-0.7-1-0.7-1.8c0-0.5,0.1-0.9,0.4-1.2s0.6-0.7,1-0.8c-0.4-0.2-0.7-0.4-0.9-0.8
				s-0.3-0.7-0.3-1.1c0-0.7,0.2-1.3,0.7-1.7s1.1-0.6,1.8-0.6c0.8,0,1.4,0.2,1.8,0.6S695.5,401,695.5,401.7z M694.6,405.7
				c0-0.5-0.2-0.9-0.5-1.2s-0.7-0.5-1.2-0.5s-0.9,0.1-1.2,0.4s-0.4,0.7-0.4,1.2s0.1,0.9,0.4,1.1s0.7,0.4,1.2,0.4
				c0.5,0,0.9-0.1,1.2-0.4S694.6,406.2,694.6,405.7z M693,400.2c-0.4,0-0.8,0.1-1,0.4s-0.4,0.6-0.4,1.1c0,0.4,0.1,0.8,0.4,1.1
				s0.6,0.4,1,0.4s0.8-0.1,1-0.4s0.4-0.6,0.4-1.1s-0.1-0.8-0.4-1.1S693.4,400.2,693,400.2z"/>
		</g>
	</g>
	<g>
		<rect x="665.8" y="372" width="0.5" height="24"/>
		<rect x="666" y="383.8" width="6" height="0.5"/>
		<rect x="671.7" y="372" width="0.5" height="24"/>
		<g>
			<path d="M671.5,401.7c0,0.4-0.1,0.8-0.3,1.1s-0.5,0.6-0.9,0.8c0.4,0.2,0.8,0.5,1.1,0.8s0.4,0.8,0.4,1.2c0,0.7-0.2,1.3-0.7,1.8
				s-1.2,0.7-2,0.7c-0.8,0-1.5-0.2-2-0.7s-0.7-1-0.7-1.8c0-0.5,0.1-0.9,0.4-1.2s0.6-0.7,1-0.8c-0.4-0.2-0.7-0.4-0.9-0.8
				s-0.3-0.7-0.3-1.1c0-0.7,0.2-1.3,0.7-1.7s1.1-0.6,1.8-0.6c0.8,0,1.4,0.2,1.8,0.6S671.5,401,671.5,401.7z M670.6,405.7
				c0-0.5-0.2-0.9-0.5-1.2s-0.7-0.5-1.2-0.5s-0.9,0.1-1.2,0.4s-0.4,0.7-0.4,1.2s0.1,0.9,0.4,1.1s0.7,0.4,1.2,0.4
				c0.5,0,0.9-0.1,1.2-0.4S670.6,406.2,670.6,405.7z M669,400.2c-0.4,0-0.8,0.1-1,0.4s-0.4,0.6-0.4,1.1c0,0.4,0.1,0.8,0.4,1.1
				s0.6,0.4,1,0.4s0.8-0.1,1-0.4s0.4-0.6,0.4-1.1s-0.1-0.8-0.4-1.1S669.4,400.2,669,400.2z"/>
		</g>
	</g>
	<g>
		<rect x="78" y="323.2" width="24" height="0.5"/>
		<rect x="89.7" y="323.5" width="0.5" height="6"/>
		<rect x="78" y="329.2" width="24" height="0.5"/>
		<g>
			<path d="M65.9,323.7c0,0.4-0.1,0.8-0.3,1.1s-0.5,0.6-0.9,0.8c0.4,0.2,0.8,0.5,1.1,0.8s0.4,0.8,0.4,1.2c0,0.7-0.3,1.3-0.7,1.8
				s-1.2,0.7-2,0.7c-0.8,0-1.5-0.2-2-0.7s-0.7-1-0.7-1.8c0-0.5,0.1-0.9,0.4-1.2s0.6-0.7,1-0.8c-0.4-0.2-0.7-0.4-0.9-0.8
				s-0.3-0.7-0.3-1.1c0-0.7,0.2-1.3,0.7-1.7s1.1-0.6,1.8-0.6c0.8,0,1.4,0.2,1.8,0.6S65.9,323,65.9,323.7z M65,327.7
				c0-0.5-0.2-0.9-0.5-1.2s-0.7-0.5-1.2-0.5s-0.9,0.1-1.2,0.4s-0.4,0.7-0.4,1.2s0.1,0.9,0.4,1.1s0.7,0.4,1.2,0.4
				c0.5,0,0.9-0.1,1.2-0.4S65,328.2,65,327.7z M63.4,322.2c-0.4,0-0.8,0.1-1,0.4s-0.4,0.6-0.4,1.1c0,0.4,0.1,0.8,0.4,1.1
				s0.6,0.4,1,0.4s0.8-0.1,1-0.4s0.4-0.6,0.4-1.1s-0.1-0.8-0.4-1.1S63.8,322.2,63.4,322.2z"/>
		</g>
	</g>
	<g>
		<rect x="479.7" y="372" width="0.5" height="24"/>
		<rect x="480" y="383.8" width="12" height="0.5"/>
		<rect x="491.7" y="372" transform="matrix(1 -1.545766e-03 1.545766e-03 1 -0.593 0.761)" width="0.5" height="24"/>
		<g>
			<path d="M483.5,408h-1.1v-7.2l-2.2,0.8v-1l3.1-1.2h0.2V408z"/>
			<path d="M491,399.5v0.9h-0.2c-0.8,0-1.5,0.3-2,0.8s-0.8,1.2-0.9,2c0.4-0.5,1.1-0.8,1.8-0.8c0.7,0,1.3,0.3,1.8,0.8s0.7,1.2,0.7,2
				c0,0.9-0.2,1.6-0.7,2.1s-1.1,0.8-1.9,0.8c-0.8,0-1.5-0.3-2-0.9s-0.8-1.4-0.8-2.4v-0.4c0-1.6,0.3-2.8,1-3.6s1.7-1.3,3-1.3H491z
				 M489.5,403.3c-0.4,0-0.7,0.1-1,0.3s-0.5,0.5-0.7,0.8v0.4c0,0.7,0.2,1.3,0.5,1.7s0.7,0.6,1.2,0.6c0.5,0,0.9-0.2,1.2-0.5
				s0.4-0.8,0.4-1.4c0-0.6-0.1-1.1-0.4-1.4S490,403.3,489.5,403.3z"/>
		</g>
	</g>
	<g>
		<path class="st4" d="M756.3,366.3H479.8V137.8h276.5V366.3z M480.3,365.8h275.5V138.3H480.3V365.8z"/>
	</g>
	<path class="st4" d="M756.3,288.3H479.8V137.8h276.5V288.3z M480.3,287.8h275.5V138.3H480.3V287.8z"/>
	<path class="st4" d="M591,189v48h60v-48H591z M639,198c1.8,0,3,1.2,3,3s-1.2,3-3,3s-3-1.2-3-3S637.2,198,639,198z M597,231v-13.2
		l12-10.8l15,15l6-6l15,15H597z"/>
	<path class="st4" d="M733.5,209.3l3.8,3.8l-3.8,3.8V209.3z"/>
	<path class="st4" d="M502.5,216.8l-3.8-3.8l3.8-3.8V216.8z"/>
	<g>
		<path class="st4" d="M535.5,315v-12h-9l0,12h1.5l3-3l3,3H535.5z M528,312.9l0-8.4h6v8.4l-3-3L528,312.9z"/>
		<rect x="522" y="300" class="st5" width="18" height="18"/>
	</g>
	<g>
		<path class="st4" d="M504.4,311.6l-3.4-3.4l-3.4,3.4l-1.1-1.1l4.5-4.5l4.5,4.5L504.4,311.6z"/>
		<rect x="492" y="300" class="st5" width="18" height="18"/>
	</g>
	<g>
		<rect x="491.8" y="138" class="st3" width="0.5" height="2"/>
		<path class="st3" d="M492.3,361h-0.5v-3.9h0.5V361z M492.3,354.1h-0.5v-3.9h0.5V354.1z M492.3,347.2h-0.5v-3.9h0.5V347.2z
			 M492.3,340.3h-0.5v-3.9h0.5V340.3z M492.3,333.4h-0.5v-3.9h0.5V333.4z M492.3,326.5h-0.5v-3.9h0.5V326.5z M492.3,319.6h-0.5v-3.9
			h0.5V319.6z M492.3,312.7h-0.5v-3.9h0.5V312.7z M492.3,305.8h-0.5v-3.9h0.5V305.8z M492.3,298.9h-0.5v-3.9h0.5V298.9z M492.3,292
			h-0.5V288h0.5V292z M492.3,285.1h-0.5v-3.9h0.5V285.1z M492.3,278.1h-0.5v-3.9h0.5V278.1z M492.3,271.2h-0.5v-3.9h0.5V271.2z
			 M492.3,264.3h-0.5v-3.9h0.5V264.3z M492.3,257.4h-0.5v-3.9h0.5V257.4z M492.3,250.5h-0.5v-3.9h0.5V250.5z M492.3,243.6h-0.5v-3.9
			h0.5V243.6z M492.3,236.7h-0.5v-3.9h0.5V236.7z M492.3,229.8h-0.5v-3.9h0.5V229.8z M492.3,222.9h-0.5v-3.9h0.5V222.9z M492.3,216
			h-0.5V212h0.5V216z M492.3,209.1h-0.5v-3.9h0.5V209.1z M492.3,202.2h-0.5v-3.9h0.5V202.2z M492.3,195.3h-0.5v-3.9h0.5V195.3z
			 M492.3,188.4h-0.5v-3.9h0.5V188.4z M492.3,181.4h-0.5v-3.9h0.5V181.4z M492.3,174.5h-0.5v-3.9h0.5V174.5z M492.3,167.6h-0.5v-3.9
			h0.5V167.6z M492.3,160.7h-0.5v-3.9h0.5V160.7z M492.3,153.8h-0.5v-3.9h0.5V153.8z M492.3,146.9h-0.5V143h0.5V146.9z"/>
		<rect x="491.8" y="364" class="st3" width="0.5" height="2"/>
	</g>
	<g>
		<rect x="509.8" y="138" class="st3" width="0.5" height="2"/>
		<path class="st3" d="M510.3,361h-0.5v-3.9h0.5V361z M510.3,354.1h-0.5v-3.9h0.5V354.1z M510.3,347.2h-0.5v-3.9h0.5V347.2z
			 M510.3,340.3h-0.5v-3.9h0.5V340.3z M510.3,333.4h-0.5v-3.9h0.5V333.4z M510.3,326.5h-0.5v-3.9h0.5V326.5z M510.3,319.6h-0.5v-3.9
			h0.5V319.6z M510.3,312.7h-0.5v-3.9h0.5V312.7z M510.3,305.8h-0.5v-3.9h0.5V305.8z M510.3,298.9h-0.5v-3.9h0.5V298.9z M510.3,292
			h-0.5V288h0.5V292z M510.3,285.1h-0.5v-3.9h0.5V285.1z M510.3,278.1h-0.5v-3.9h0.5V278.1z M510.3,271.2h-0.5v-3.9h0.5V271.2z
			 M510.3,264.3h-0.5v-3.9h0.5V264.3z M510.3,257.4h-0.5v-3.9h0.5V257.4z M510.3,250.5h-0.5v-3.9h0.5V250.5z M510.3,243.6h-0.5v-3.9
			h0.5V243.6z M510.3,236.7h-0.5v-3.9h0.5V236.7z M510.3,229.8h-0.5v-3.9h0.5V229.8z M510.3,222.9h-0.5v-3.9h0.5V222.9z M510.3,216
			h-0.5V212h0.5V216z M510.3,209.1h-0.5v-3.9h0.5V209.1z M510.3,202.2h-0.5v-3.9h0.5V202.2z M510.3,195.3h-0.5v-3.9h0.5V195.3z
			 M510.3,188.4h-0.5v-3.9h0.5V188.4z M510.3,181.4h-0.5v-3.9h0.5V181.4z M510.3,174.5h-0.5v-3.9h0.5V174.5z M510.3,167.6h-0.5v-3.9
			h0.5V167.6z M510.3,160.7h-0.5v-3.9h0.5V160.7z M510.3,153.8h-0.5v-3.9h0.5V153.8z M510.3,146.9h-0.5V143h0.5V146.9z"/>
		<rect x="509.8" y="364" class="st3" width="0.5" height="2"/>
	</g>
	<g>
		<rect x="743.8" y="138" class="st3" width="0.5" height="2"/>
		<path class="st3" d="M744.3,361h-0.5v-3.9h0.5V361z M744.3,354.1h-0.5v-3.9h0.5V354.1z M744.3,347.2h-0.5v-3.9h0.5V347.2z
			 M744.3,340.3h-0.5v-3.9h0.5V340.3z M744.3,333.4h-0.5v-3.9h0.5V333.4z M744.3,326.5h-0.5v-3.9h0.5V326.5z M744.3,319.6h-0.5v-3.9
			h0.5V319.6z M744.3,312.7h-0.5v-3.9h0.5V312.7z M744.3,305.8h-0.5v-3.9h0.5V305.8z M744.3,298.9h-0.5v-3.9h0.5V298.9z M744.3,292
			h-0.5V288h0.5V292z M744.3,285.1h-0.5v-3.9h0.5V285.1z M744.3,278.1h-0.5v-3.9h0.5V278.1z M744.3,271.2h-0.5v-3.9h0.5V271.2z
			 M744.3,264.3h-0.5v-3.9h0.5V264.3z M744.3,257.4h-0.5v-3.9h0.5V257.4z M744.3,250.5h-0.5v-3.9h0.5V250.5z M744.3,243.6h-0.5v-3.9
			h0.5V243.6z M744.3,236.7h-0.5v-3.9h0.5V236.7z M744.3,229.8h-0.5v-3.9h0.5V229.8z M744.3,222.9h-0.5v-3.9h0.5V222.9z M744.3,216
			h-0.5V212h0.5V216z M744.3,209.1h-0.5v-3.9h0.5V209.1z M744.3,202.2h-0.5v-3.9h0.5V202.2z M744.3,195.3h-0.5v-3.9h0.5V195.3z
			 M744.3,188.4h-0.5v-3.9h0.5V188.4z M744.3,181.4h-0.5v-3.9h0.5V181.4z M744.3,174.5h-0.5v-3.9h0.5V174.5z M744.3,167.6h-0.5v-3.9
			h0.5V167.6z M744.3,160.7h-0.5v-3.9h0.5V160.7z M744.3,153.8h-0.5v-3.9h0.5V153.8z M744.3,146.9h-0.5V143h0.5V146.9z"/>
		<rect x="743.8" y="364" class="st3" width="0.5" height="2"/>
	</g>
	<g>
		<rect x="689.8" y="336" class="st3" width="0.5" height="2"/>
		<path class="st3" d="M690.3,360.8h-0.5v-4.3h0.5V360.8z M690.3,353.2h-0.5v-4.3h0.5V353.2z M690.3,345.6h-0.5v-4.3h0.5V345.6z"/>
		<rect x="689.8" y="364" class="st3" width="0.5" height="2"/>
	</g>
	<g>
		<rect x="695.8" y="336" class="st3" width="0.5" height="2"/>
		<path class="st3" d="M696.3,360.8h-0.5v-4.3h0.5V360.8z M696.3,353.2h-0.5v-4.3h0.5V353.2z M696.3,345.6h-0.5v-4.3h0.5V345.6z"/>
		<rect x="695.8" y="364" class="st3" width="0.5" height="2"/>
	</g>
	<g>
		<rect x="665.8" y="336" class="st3" width="0.5" height="2"/>
		<path class="st3" d="M666.3,360.8h-0.5v-4.3h0.5V360.8z M666.3,353.2h-0.5v-4.3h0.5V353.2z M666.3,345.6h-0.5v-4.3h0.5V345.6z"/>
		<rect x="665.8" y="364" class="st3" width="0.5" height="2"/>
	</g>
	<g>
		<rect x="671.8" y="336" class="st3" width="0.5" height="2"/>
		<path class="st3" d="M672.3,360.8h-0.5v-4.3h0.5V360.8z M672.3,353.2h-0.5v-4.3h0.5V353.2z M672.3,345.6h-0.5v-4.3h0.5V345.6z"/>
		<rect x="671.8" y="364" class="st3" width="0.5" height="2"/>
	</g>
	<g>
		<rect x="521.8" y="288" class="st3" width="0.5" height="2"/>
		<path class="st3" d="M522.3,361h-0.5v-4.1h0.5V361z M522.3,353.9h-0.5v-4.1h0.5V353.9z M522.3,346.8h-0.5v-4.1h0.5V346.8z
			 M522.3,339.7h-0.5v-4.1h0.5V339.7z M522.3,332.6h-0.5v-4.1h0.5V332.6z M522.3,325.5h-0.5v-4.1h0.5V325.5z M522.3,318.4h-0.5v-4.1
			h0.5V318.4z M522.3,311.3h-0.5v-4.1h0.5V311.3z M522.3,304.2h-0.5v-4.1h0.5V304.2z M522.3,297.1h-0.5V293h0.5V297.1z"/>
		<rect x="521.8" y="364" class="st3" width="0.5" height="2"/>
	</g>
	<g>
		<rect x="539.8" y="288" class="st3" width="0.5" height="2"/>
		<path class="st3" d="M540.3,361h-0.5v-4.1h0.5V361z M540.3,353.9h-0.5v-4.1h0.5V353.9z M540.3,346.8h-0.5v-4.1h0.5V346.8z
			 M540.3,339.7h-0.5v-4.1h0.5V339.7z M540.3,332.6h-0.5v-4.1h0.5V332.6z M540.3,325.5h-0.5v-4.1h0.5V325.5z M540.3,318.4h-0.5v-4.1
			h0.5V318.4z M540.3,311.3h-0.5v-4.1h0.5V311.3z M540.3,304.2h-0.5v-4.1h0.5V304.2z M540.3,297.1h-0.5V293h0.5V297.1z"/>
		<rect x="539.8" y="364" class="st3" width="0.5" height="2"/>
	</g>
	<g>
		<rect x="538" y="299.8" class="st3" width="2" height="0.5"/>
		<path class="st3" d="M535.2,300.3h-3.8v-0.5h3.8V300.3z M528.5,300.3h-3.8v-0.5h3.8V300.3z M521.9,300.3h-3.8v-0.5h3.8V300.3z
			 M515.2,300.3h-3.8v-0.5h3.8V300.3z M508.6,300.3h-3.8v-0.5h3.8V300.3z M501.9,300.3h-3.8v-0.5h3.8V300.3z M495.3,300.3h-3.8v-0.5
			h3.8V300.3z M488.6,300.3h-3.8v-0.5h3.8V300.3z"/>
		<rect x="480" y="299.8" class="st3" width="2" height="0.5"/>
	</g>
	<g>
		<rect x="538" y="317.8" class="st3" width="2" height="0.5"/>
		<path class="st3" d="M535.2,318.3h-3.8v-0.5h3.8V318.3z M528.5,318.3h-3.8v-0.5h3.8V318.3z M521.9,318.3h-3.8v-0.5h3.8V318.3z
			 M515.2,318.3h-3.8v-0.5h3.8V318.3z M508.6,318.3h-3.8v-0.5h3.8V318.3z M501.9,318.3h-3.8v-0.5h3.8V318.3z M495.3,318.3h-3.8v-0.5
			h3.8V318.3z M488.6,318.3h-3.8v-0.5h3.8V318.3z"/>
		<rect x="480" y="317.8" class="st3" width="2" height="0.5"/>
	</g>
	<rect x="588" y="347.8" class="st3" width="156" height="0.5"/>
	<rect x="696" y="323.8" class="st3" width="126" height="0.5"/>
	<rect x="618" y="311.8" class="st3" width="168" height="0.5"/>
	<g>
		<path class="st4" d="M699.9,345.9c0,0.4,0.1,0.6,0.2,0.9c0.1,0.2,0.4,0.3,0.8,0.3h0.2c0.1,0,0.2,0,0.2,0.1c0,0.1,0.1,0.2,0.1,0.3
			c0,0.2,0,0.3-0.1,0.3c0,0.1-0.1,0.1-0.2,0.1h-0.2c-0.4,0-0.7-0.1-1-0.2s-0.5-0.5-0.6-0.9c-0.1,0.1-0.2,0.2-0.4,0.3
			c-0.1,0.1-0.3,0.1-0.5,0.2c-0.2,0-0.3,0.1-0.5,0.1c-0.2,0-0.3,0-0.5,0c-0.6,0-1.1-0.2-1.4-0.5c-0.3-0.3-0.5-0.8-0.5-1.5
			c0-0.3,0-0.6,0.1-0.9c0.1-0.3,0.2-0.6,0.4-0.8c0.2-0.2,0.4-0.4,0.7-0.6c0.3-0.1,0.6-0.2,0.9-0.2h1.3v-0.9h0.8V345.9z M697.7,346.7
			c0.4,0,0.8-0.1,1-0.3c0.3-0.2,0.4-0.4,0.4-0.7v-1.9h-1.3c-0.4,0-0.8,0.1-1,0.4s-0.4,0.7-0.4,1.1c0,0.5,0.1,0.8,0.3,1
			C696.9,346.6,697.3,346.7,697.7,346.7z"/>
		<path class="st4" d="M701.6,347.1c0.4,0,0.7,0,1.2-0.1c0.4,0,0.8-0.2,1.2-0.4l-1.9-2.4l0.5-0.9h3.2c0.4,0,0.7,0.1,0.9,0.2
			c0.3,0.2,0.4,0.4,0.4,0.7c0,0,0,0.1,0,0.2c0,0,0,0.1,0,0.1c0,0.1,0,0.2-0.1,0.4s-0.1,0.3-0.3,0.4c-0.1,0.2-0.3,0.4-0.5,0.6
			c-0.2,0.2-0.5,0.5-0.8,0.8c0.1,0.1,0.2,0.1,0.4,0.2c0.1,0,0.3,0.1,0.4,0.1c0.1,0,0.3,0,0.5,0c0.2,0,0.4,0,0.6,0h0.9
			c0.2,0,0.3,0.1,0.3,0.4c0,0.3-0.1,0.4-0.3,0.4h-1c-0.3,0-0.5,0-0.8,0s-0.4,0-0.6-0.1c-0.2,0-0.4-0.1-0.6-0.2
			c-0.2-0.1-0.4-0.2-0.5-0.4c-0.4,0.3-0.9,0.5-1.4,0.6c-0.5,0.1-1,0.1-1.6,0.1h-0.6c-0.1,0-0.2,0-0.2-0.1c0-0.1-0.1-0.2-0.1-0.3
			c0-0.2,0-0.3,0.1-0.3s0.1-0.1,0.2-0.1H701.6z M706.3,344.8c0-0.2-0.1-0.3-0.2-0.4c-0.1-0.1-0.3-0.1-0.6-0.1H703l1.7,2.3
			c0.3-0.3,0.5-0.5,0.8-0.6c0.2-0.2,0.4-0.3,0.5-0.5c0.1-0.1,0.2-0.3,0.3-0.3S706.3,344.9,706.3,344.8z"/>
		<path class="st4" d="M709.3,347.1c0.3,0,0.6-0.1,0.8-0.3c0.2-0.2,0.3-0.4,0.3-0.7v-1.7h0.8v1.7c0,0.6-0.2,1-0.5,1.4
			s-0.8,0.5-1.3,0.5h-1.2c-0.1,0-0.2,0-0.2-0.1c0-0.1-0.1-0.2-0.1-0.3c0-0.2,0-0.3,0.1-0.3s0.1-0.1,0.2-0.1H709.3z M709.3,350.3h-1
			v-0.9h1V350.3z M710.9,350.3h-1v-0.9h1V350.3z"/>
		<path class="st4" d="M717.2,345c0.2,0.2,0.4,0.5,0.5,0.7c0.1,0.2,0.1,0.5,0.1,0.7c0,0.4-0.2,0.8-0.5,1.1c-0.3,0.3-0.8,0.4-1.4,0.4
			h-3.5l-0.1-0.9h3.5c0.3,0,0.6-0.1,0.8-0.2c0.2-0.2,0.3-0.3,0.3-0.6c0-0.1,0-0.2-0.1-0.4c-0.1-0.1-0.1-0.3-0.3-0.4l-2.3-2.6
			l0.6-0.6L717.2,345z"/>
		<path class="st4" d="M720.3,350.2c0.4,0,0.7-0.1,1-0.2c0.3-0.1,0.5-0.3,0.7-0.5c0.2-0.2,0.3-0.4,0.4-0.7c0.1-0.3,0.2-0.5,0.2-0.8
			h-1.3c-0.4,0-0.8,0-1-0.1c-0.3-0.1-0.5-0.2-0.7-0.4c-0.2-0.2-0.3-0.4-0.3-0.6c-0.1-0.2-0.1-0.5-0.1-0.8c0-0.3,0-0.6,0.1-0.9
			c0.1-0.3,0.2-0.5,0.4-0.8c0.2-0.2,0.4-0.4,0.7-0.5c0.3-0.1,0.6-0.2,0.9-0.2c0.3,0,0.5,0,0.8,0.1c0.3,0.1,0.5,0.2,0.7,0.4
			c0.2,0.2,0.3,0.4,0.5,0.8c0.1,0.3,0.2,0.7,0.2,1.1v1.7c0,0.4-0.1,0.8-0.2,1.2c-0.1,0.4-0.3,0.7-0.6,1c-0.3,0.3-0.6,0.5-1,0.7
			c-0.4,0.2-0.8,0.3-1.3,0.3H719l-0.1-0.8H720.3z M720,345.9c0,0.2,0,0.4,0.1,0.5c0,0.1,0.1,0.3,0.2,0.4c0.1,0.1,0.3,0.2,0.5,0.2
			c0.2,0,0.4,0.1,0.7,0.1h1.1v-0.9c0-0.6-0.1-1.1-0.4-1.3c-0.2-0.3-0.6-0.4-1-0.4c-0.4,0-0.7,0.1-0.9,0.4
			C720.1,345.1,720,345.5,720,345.9z"/>
		<path class="st4" d="M727,348.8v-3c0-0.5,0-0.9,0-1.3s-0.1-0.7-0.1-1c-0.1-0.3-0.1-0.6-0.2-0.9c-0.1-0.3-0.1-0.6-0.2-0.9l0.8-0.3
			c0.1,0.3,0.2,0.7,0.3,1c0.1,0.3,0.1,0.6,0.2,1c0.1,0.3,0.1,0.7,0.1,1.1c0,0.4,0,0.8,0,1.3v3.1H727z"/>
		<path class="st4" d="M733.1,342.3c0,0.3,0.1,0.6,0.1,0.9c0,0.1,0,0.1,0,0.2c0,0.1,0,0.2,0,0.3c0.1,0.1,0.2,0.3,0.4,0.3
			c0.2,0.1,0.3,0.1,0.5,0.1c0.3,0,0.5-0.1,0.7-0.3c0.2-0.2,0.3-0.4,0.3-0.6c0-0.2,0-0.5,0-0.8c0-0.3-0.1-0.6-0.2-1l0.8-0.2
			c0.1,0.6,0.2,1.3,0.2,1.9c0,0.2,0,0.5-0.1,0.7c-0.1,0.2-0.2,0.4-0.4,0.6c-0.2,0.2-0.3,0.3-0.5,0.4c-0.2,0.1-0.4,0.1-0.7,0.1
			c-0.2,0-0.5,0-0.7-0.1c-0.2-0.1-0.4-0.3-0.6-0.5c-0.1,0.2-0.3,0.3-0.5,0.5c-0.2,0.1-0.5,0.2-0.8,0.2c-0.2,0-0.4,0-0.6-0.1
			c-0.2-0.1-0.3-0.2-0.4-0.4c0,0.2,0,0.4,0,0.6c0,0.2,0,0.4,0,0.7v3h-0.8v-3c0-0.5,0-0.9,0-1.3s-0.1-0.7-0.1-1
			c-0.1-0.3-0.1-0.6-0.2-0.9c-0.1-0.3-0.1-0.6-0.2-0.9l0.8-0.3c0.1,0.2,0.1,0.4,0.1,0.5c0,0.2,0.1,0.3,0.1,0.4
			c0,0.1,0.1,0.3,0.1,0.4c0,0.1,0.1,0.3,0.1,0.4c0.1,0.3,0.2,0.5,0.4,0.7c0.2,0.2,0.4,0.3,0.7,0.3c0.3,0,0.5-0.1,0.7-0.2
			c0.2-0.2,0.3-0.4,0.3-0.7c0-0.2,0-0.4,0-0.7c0-0.3-0.1-0.6-0.2-1l0.8-0.2C733,341.6,733.1,342,733.1,342.3z"/>
		<path class="st4" d="M737,346.9c0-0.3,0-0.6,0.1-0.9c0.1-0.3,0.2-0.6,0.4-1c0.2-0.4,0.5-0.8,0.8-1.2c0.3-0.5,0.8-1,1.3-1.6
			l-0.6-0.5l0.5-0.6c0.8,0.7,1.5,1.3,2,1.8c0.5,0.5,0.9,1,1.2,1.5c0.3,0.4,0.5,0.8,0.6,1.2c0.1,0.4,0.1,0.7,0.1,1.1
			c0,0.4-0.1,0.7-0.2,0.9c-0.1,0.3-0.3,0.5-0.4,0.7c-0.2,0.2-0.4,0.3-0.6,0.4c-0.2,0.1-0.4,0.1-0.7,0.1c-0.3,0-0.6-0.1-0.8-0.2
			c-0.2-0.1-0.4-0.3-0.6-0.4c-0.2,0.2-0.4,0.4-0.6,0.5c-0.3,0.1-0.5,0.1-0.7,0.1c-0.5,0-1-0.2-1.3-0.5
			C737.1,348,737,347.5,737,346.9z M742.6,346.8c0-0.2,0-0.5-0.1-0.8c-0.1-0.3-0.2-0.6-0.4-0.9c-0.2-0.3-0.4-0.7-0.7-1.1
			c-0.3-0.4-0.7-0.8-1.2-1.2c-0.8,0.8-1.4,1.6-1.8,2.2c-0.4,0.7-0.6,1.2-0.6,1.8c0,0.4,0.1,0.7,0.3,0.9c0.2,0.2,0.5,0.3,0.8,0.3
			c0.1,0,0.3,0,0.4-0.1c0.1,0,0.2-0.1,0.3-0.2s0.2-0.2,0.3-0.3c0.1-0.1,0.1-0.3,0.1-0.5V346h0.8v0.8c0,0.2,0,0.3,0,0.4
			s-0.1,0.2-0.1,0.3c0.1,0.1,0.3,0.2,0.4,0.3c0.2,0.1,0.3,0.1,0.5,0.1c0.3,0,0.6-0.1,0.8-0.3C742.5,347.5,742.6,347.2,742.6,346.8z"
			/>
	</g>
	<g>
		<path class="st4" d="M638.5,346.1c0-0.3,0-0.5,0.1-0.7c0.1-0.2,0.2-0.5,0.3-0.7c0.1-0.2,0.3-0.5,0.5-0.7c0.2-0.3,0.5-0.5,0.8-0.8
			l-0.6-0.6l0.6-0.6c0.5,0.5,0.9,1,1.3,1.3c0.3,0.4,0.6,0.7,0.8,1c0.2,0.3,0.4,0.6,0.5,0.8c0.1,0.3,0.1,0.5,0.1,0.8
			c0,0.3-0.1,0.6-0.2,0.8c-0.1,0.3-0.3,0.5-0.5,0.7s-0.4,0.3-0.7,0.4c-0.3,0.1-0.6,0.2-0.9,0.2s-0.6,0-0.9-0.1
			c-0.3-0.1-0.5-0.2-0.7-0.4c-0.2-0.2-0.3-0.4-0.4-0.6C638.6,346.6,638.5,346.4,638.5,346.1z M642.2,345.9c0-0.2,0-0.3-0.1-0.5
			c0-0.2-0.1-0.3-0.2-0.5c-0.1-0.2-0.3-0.4-0.4-0.6c-0.2-0.2-0.4-0.4-0.7-0.7c-0.3,0.3-0.5,0.5-0.7,0.8c-0.2,0.2-0.3,0.4-0.4,0.6
			c-0.1,0.2-0.2,0.3-0.2,0.5c0,0.1,0,0.3,0,0.4c0,0.3,0.1,0.6,0.4,0.8c0.2,0.2,0.6,0.3,1,0.3c0.2,0,0.4,0,0.6-0.1
			c0.2-0.1,0.3-0.2,0.5-0.3c0.1-0.1,0.2-0.2,0.3-0.4C642.1,346.2,642.2,346.1,642.2,345.9z"/>
		<path class="st4" d="M645.5,349.1c-0.2,0.4-0.4,0.7-0.6,1c-0.3,0.3-0.6,0.5-0.9,0.7c-0.4,0.2-0.8,0.2-1.2,0.2H642l-0.1-0.8h0.6
			c0.4,0,0.8-0.1,1.1-0.2c0.3-0.1,0.5-0.3,0.7-0.5c0.2-0.2,0.3-0.5,0.4-0.8c0.1-0.3,0.1-0.6,0.1-0.9v-3.4h0.8v3.4
			C645.7,348.3,645.6,348.7,645.5,349.1z"/>
		<path class="st4" d="M648.9,348c-0.2,0-0.4,0-0.6-0.1c-0.2-0.1-0.4-0.2-0.5-0.3c-0.2-0.2-0.3-0.3-0.4-0.6
			c-0.1-0.2-0.1-0.6-0.1-0.9v-5.8h0.8v5.7c0,0.3,0.1,0.6,0.2,0.9c0.2,0.2,0.4,0.3,0.8,0.3h0.2c0.2,0,0.3,0.1,0.3,0.4
			c0,0.3-0.1,0.4-0.3,0.4H648.9z"/>
		<path class="st4" d="M652.9,347.3c-0.2,0.1-0.4,0.2-0.6,0.3c-0.2,0.1-0.4,0.2-0.6,0.2c-0.2,0.1-0.5,0.1-0.8,0.1c-0.3,0-0.6,0-1,0
			h-0.6c-0.1,0-0.2,0-0.2-0.1c0-0.1-0.1-0.2-0.1-0.3c0-0.2,0-0.3,0.1-0.3s0.1-0.1,0.2-0.1h0.6c0.3,0,0.6,0,0.9,0
			c0.3,0,0.5-0.1,0.7-0.1c0.2,0,0.4-0.1,0.6-0.2c0.2-0.1,0.4-0.2,0.6-0.3l2.1-1.2c-0.1-0.2-0.1-0.3-0.2-0.5
			c-0.1-0.1-0.2-0.3-0.3-0.4c-0.1-0.1-0.3-0.2-0.4-0.2c-0.2-0.1-0.4-0.1-0.6-0.1h-2.8l0.1-0.9h2.8c0.2,0,0.4,0,0.7,0.1
			c0.2,0,0.4,0.2,0.6,0.3s0.4,0.4,0.6,0.7c0.2,0.3,0.3,0.7,0.4,1.3L652.9,347.3z M652.9,350.4h-1v-0.9h1V350.4z"/>
		<path class="st4" d="M657.1,340.3h0.8v7.8h-0.8V340.3z"/>
		<path class="st4" d="M663.6,345c-0.2,0-0.4,0-0.6-0.1c-0.2-0.1-0.3-0.2-0.4-0.4c0,0.2,0,0.4,0,0.6c0,0.2,0,0.4,0,0.7v3h-0.8v-3
			c0-0.5,0-0.9,0-1.3s-0.1-0.7-0.1-1c-0.1-0.3-0.1-0.6-0.2-0.9c-0.1-0.3-0.1-0.6-0.2-0.9l0.8-0.3c0.1,0.2,0.1,0.4,0.1,0.5
			c0,0.2,0.1,0.3,0.1,0.4c0,0.1,0.1,0.3,0.1,0.4c0,0.1,0.1,0.3,0.1,0.4c0.1,0.3,0.2,0.5,0.4,0.7c0.2,0.2,0.4,0.3,0.7,0.3
			c0.3,0,0.5-0.1,0.7-0.2c0.2-0.2,0.3-0.4,0.3-0.7c0-0.2,0-0.4,0-0.7c0-0.3-0.1-0.6-0.2-1l0.8-0.2c0.1,0.3,0.1,0.6,0.1,0.9
			c0,0.3,0,0.6,0,0.9c0,0.3,0,0.5-0.1,0.7c-0.1,0.2-0.2,0.4-0.4,0.6c-0.2,0.2-0.3,0.3-0.5,0.4C664.1,344.9,663.9,345,663.6,345z"/>
	</g>
	<g>
		<path class="st4" d="M688.8,337.8l-15,15l-1.1-1.1l4.5-4.5h-3v-1.5h4.5l1.5-1.5h-0.8v0h-5.2l3.7-3.7v2.2h3.8l6-6L688.8,337.8z
			 M683.3,344.2h4.5v-1.5h-3L683.3,344.2z M684.8,345.7h-3l-1.5,1.5h3.7v2.3l3.7-3.8L684.8,345.7L684.8,345.7z"/>
		<rect x="672" y="336" class="st5" width="18" height="18"/>
	</g>
	<g>
		<rect x="564" y="347.8" width="24" height="0.5"/>
		<rect x="575.7" y="348" width="0.5" height="18"/>
		<polygon points="564,366.3 564,365.8 588,365.7 588,366.2 		"/>
		<g>
			<path d="M558.3,360.5h-5.6v-0.8l3-3.3c0.4-0.5,0.7-0.9,0.9-1.2s0.2-0.6,0.2-1c0-0.4-0.1-0.8-0.4-1.1s-0.6-0.4-1.1-0.4
				c-0.5,0-1,0.2-1.3,0.5s-0.4,0.7-0.4,1.3h-1.1c0-0.8,0.3-1.4,0.8-1.9s1.2-0.7,2-0.7c0.8,0,1.4,0.2,1.9,0.6s0.7,1,0.7,1.7
				c0,0.8-0.5,1.8-1.6,3l-2.3,2.5h4.3V360.5z"/>
			<path d="M564,357.6h1.2v0.9H564v2h-1.1v-2H559v-0.6l3.8-5.9h1.2V357.6z M560.3,357.6h2.7v-4.2l-0.1,0.2L560.3,357.6z"/>
		</g>
	</g>
	<g>
		<rect x="450" y="299.8" width="24" height="0.5"/>
		<rect x="461.7" y="300" width="0.5" height="18"/>
		<polygon points="450,318.3 450,317.8 474,317.7 474,318.2 		"/>
		<g>
			<path d="M438.3,312.5h-5.6v-0.8l3-3.3c0.4-0.5,0.7-0.9,0.9-1.2s0.2-0.6,0.2-1c0-0.4-0.1-0.8-0.4-1.1s-0.6-0.4-1.1-0.4
				c-0.5,0-1,0.2-1.3,0.5s-0.4,0.7-0.4,1.3h-1.1c0-0.8,0.3-1.4,0.8-1.9s1.2-0.7,2-0.7c0.8,0,1.4,0.2,1.9,0.6s0.7,1,0.7,1.7
				c0,0.8-0.5,1.8-1.6,3l-2.3,2.5h4.3V312.5z"/>
			<path d="M444,309.6h1.2v0.9H444v2h-1.1v-2H439v-0.6l3.8-5.9h1.2V309.6z M440.3,309.6h2.7v-4.2l-0.1,0.2L440.3,309.6z"/>
		</g>
	</g>
	<path class="st3" d="M540.3,318.3h-18.5v-18.5h18.5V318.3z M522.3,317.8h17.5v-17.5h-17.5V317.8z"/>
	<path class="st3" d="M690.3,354.3h-18.5v-18.5h18.5V354.3z M672.3,353.8h17.5v-17.5h-17.5V353.8z"/>
	<path class="st3" d="M510.3,222.3h-18.5v-18.5h18.5V222.3z M492.3,221.8h17.5v-17.5h-17.5V221.8z"/>
	<path class="st3" d="M744.3,222.3h-18.5v-18.5h18.5V222.3z M726.3,221.8h17.5v-17.5h-17.5V221.8z"/>
	<path class="st3" d="M510.3,318.3h-18.5v-18.5h18.5V318.3z M492.3,317.8h17.5v-17.5h-17.5V317.8z"/>
	<g>
		<path class="st4" d="M699.8,322.7c0,0.2,0.1,0.4,0.2,0.5c0.1,0.1,0.3,0.2,0.6,0.2c0.3,0,0.5-0.1,0.6-0.2c0.1-0.1,0.2-0.3,0.2-0.5
			v-1.2h0.6v1.2c0,0.3,0.1,0.4,0.2,0.6c0.1,0.1,0.3,0.2,0.5,0.2c0.2,0,0.4-0.1,0.6-0.2c0.1-0.1,0.2-0.3,0.2-0.5v-1.2h0.6v1.2
			c0,0.1,0,0.2,0.1,0.3c0,0.1,0.1,0.2,0.2,0.2c0.1,0.1,0.1,0.1,0.2,0.1c0.1,0,0.2,0,0.3,0h0.2c0.1,0,0.2,0.1,0.2,0.3
			c0,0.2-0.1,0.3-0.2,0.3h-0.2c-0.2,0-0.4,0-0.6-0.1c-0.2-0.1-0.3-0.2-0.5-0.5c-0.1,0.2-0.3,0.4-0.5,0.5c-0.2,0.1-0.4,0.1-0.5,0.1
			c-0.2,0-0.4,0-0.6-0.1c-0.2-0.1-0.3-0.2-0.5-0.5c-0.1,0.2-0.3,0.4-0.5,0.5c-0.2,0.1-0.4,0.1-0.6,0.1c-0.2,0-0.4,0-0.5-0.1
			c-0.1-0.1-0.2-0.1-0.3-0.3v0.2c0,0.3-0.1,0.6-0.2,0.9c-0.1,0.3-0.2,0.5-0.4,0.7c-0.2,0.2-0.4,0.4-0.7,0.5
			c-0.3,0.1-0.6,0.2-0.9,0.2h-0.5c-0.7,0-1.2-0.2-1.6-0.6s-0.6-1-0.6-1.7v-1.6h0.6v1.6c0,0.3,0,0.5,0.1,0.7c0.1,0.2,0.2,0.4,0.3,0.5
			c0.1,0.2,0.3,0.3,0.5,0.4s0.5,0.1,0.7,0.1h0.4c0.3,0,0.5,0,0.7-0.1c0.2-0.1,0.4-0.2,0.5-0.4c0.1-0.2,0.2-0.3,0.3-0.5
			c0.1-0.2,0.1-0.4,0.1-0.7v-2.4h0.6V322.7z M701.5,320.3h-0.7v-0.6h0.7V320.3z M702.1,319.2h-0.7v-0.6h0.7V319.2z M702.7,320.3H702
			v-0.6h0.7V320.3z"/>
		<path class="st4" d="M705.7,323.4c0.3,0,0.4-0.1,0.6-0.2c0.1-0.1,0.2-0.3,0.2-0.5v-1.2h0.6v1.2c0,0.1,0,0.2,0.1,0.3
			c0,0.1,0.1,0.2,0.2,0.2c0.1,0.1,0.2,0.1,0.2,0.1c0.1,0,0.2,0,0.3,0h0.3c0.1,0,0.2,0.1,0.2,0.3c0,0.2-0.1,0.3-0.2,0.3h-0.3
			c-0.2,0-0.4,0-0.6-0.1c-0.2-0.1-0.3-0.2-0.5-0.5c-0.1,0.2-0.3,0.4-0.5,0.5c-0.2,0.1-0.4,0.1-0.6,0.1H705c-0.1,0-0.1,0-0.2-0.1
			c0,0,0-0.1,0-0.2c0-0.1,0-0.2,0-0.2c0-0.1,0.1-0.1,0.2-0.1H705.7z M706.3,325.7h-0.7V325h0.7V325.7z M707.5,325.7h-0.7V325h0.7
			V325.7z"/>
		<path class="st4" d="M708.9,323.4c0.2,0,0.4-0.1,0.6-0.2c0.1-0.1,0.2-0.3,0.2-0.5v-1.2h0.6v1.2c0,0.4-0.1,0.8-0.4,1
			s-0.6,0.3-1,0.3h-0.8c-0.1,0-0.1,0-0.2-0.1c0,0,0-0.1,0-0.2c0-0.1,0-0.2,0-0.2c0-0.1,0.1-0.1,0.2-0.1H708.9z M708.9,325.7h-0.7
			V325h0.7V325.7z M709.5,326.8h-0.7v-0.6h0.7V326.8z M710.1,325.7h-0.7V325h0.7V325.7z"/>
		<path class="st4" d="M715.7,322.5c0,0.3,0.1,0.5,0.2,0.6c0.1,0.2,0.3,0.2,0.6,0.2h0.2c0.1,0,0.1,0,0.1,0.1c0,0.1,0,0.1,0,0.2
			c0,0.1,0,0.2,0,0.2c0,0.1-0.1,0.1-0.1,0.1h-0.2c-0.3,0-0.5-0.1-0.7-0.2c-0.2-0.1-0.3-0.3-0.4-0.6c-0.1,0.1-0.2,0.2-0.3,0.2
			c-0.1,0.1-0.2,0.1-0.3,0.1c-0.1,0-0.2,0.1-0.4,0.1s-0.2,0-0.3,0c-0.4,0-0.8-0.1-1-0.3c-0.2-0.2-0.3-0.6-0.3-1.1
			c0-0.2,0-0.4,0.1-0.7c0.1-0.2,0.2-0.4,0.3-0.6c0.1-0.2,0.3-0.3,0.5-0.4c0.2-0.1,0.4-0.2,0.7-0.2h1v-0.6h0.6V322.5z M714.1,323
			c0.3,0,0.6-0.1,0.7-0.2c0.2-0.1,0.3-0.3,0.3-0.5V321h-1c-0.3,0-0.6,0.1-0.7,0.3c-0.2,0.2-0.3,0.5-0.3,0.8c0,0.3,0.1,0.6,0.2,0.7
			C713.6,323,713.8,323,714.1,323z"/>
		<path class="st4" d="M718.3,323.4c-0.3-0.2-0.5-0.4-0.7-0.6c-0.2-0.2-0.3-0.5-0.3-0.8c0-0.2,0-0.4,0.1-0.6
			c0.1-0.2,0.2-0.3,0.3-0.5c0.1-0.1,0.3-0.3,0.5-0.3c0.2-0.1,0.4-0.1,0.7-0.1s0.5,0,0.6,0.1c0.2,0.1,0.3,0.2,0.5,0.3
			c0.1,0.1,0.2,0.3,0.3,0.5c0.1,0.2,0.1,0.4,0.1,0.5c0,0.6-0.3,1.1-0.8,1.5h1.6c0.1,0,0.2,0.1,0.2,0.3c0,0.2-0.1,0.3-0.2,0.3h-1
			c-0.3,0-0.5,0-0.7,0c-0.2,0-0.4-0.1-0.5-0.1c-0.1,0-0.2,0.1-0.3,0.1c-0.1,0-0.2,0-0.4,0c-0.1,0-0.3,0-0.4,0s-0.2,0-0.3,0h-1.1
			c-0.1,0-0.1,0-0.2-0.1c0,0,0-0.1,0-0.2c0-0.1,0-0.2,0-0.2c0-0.1,0.1-0.1,0.2-0.1H718.3z M718.9,321.1c-0.3,0-0.5,0.1-0.7,0.3
			c-0.2,0.2-0.3,0.4-0.3,0.7c0,0.2,0,0.3,0.1,0.4c0.1,0.1,0.1,0.2,0.2,0.3c0.1,0.1,0.2,0.2,0.3,0.3c0.1,0.1,0.2,0.1,0.4,0.2
			c0.1-0.1,0.2-0.1,0.3-0.2c0.1-0.1,0.2-0.2,0.3-0.3s0.2-0.2,0.2-0.3c0.1-0.1,0.1-0.3,0.1-0.4c0-0.3-0.1-0.6-0.3-0.7
			C719.5,321.2,719.2,321.1,718.9,321.1z M718.7,319.6H718v-0.6h0.7V319.6z M719.9,319.6h-0.7v-0.6h0.7V319.6z"/>
		<path class="st4" d="M722,323.4c0.3,0,0.4-0.1,0.6-0.2c0.1-0.1,0.2-0.3,0.2-0.5v-1.2h0.6v1.2c0,0.1,0,0.2,0.1,0.3
			c0,0.1,0.1,0.2,0.2,0.2c0.1,0.1,0.2,0.1,0.2,0.1c0.1,0,0.2,0,0.3,0h0.3c0.1,0,0.2,0.1,0.2,0.3c0,0.2-0.1,0.3-0.2,0.3h-0.3
			c-0.2,0-0.4,0-0.6-0.1c-0.2-0.1-0.3-0.2-0.5-0.5c-0.1,0.2-0.3,0.4-0.5,0.5c-0.2,0.1-0.4,0.1-0.6,0.1h-0.7c-0.1,0-0.1,0-0.2-0.1
			c0,0,0-0.1,0-0.2c0-0.1,0-0.2,0-0.2c0-0.1,0.1-0.1,0.2-0.1H722z M722.5,325.7h-0.7V325h0.7V325.7z M723.7,325.7H723V325h0.7V325.7
			z"/>
		<path class="st4" d="M725.9,323.4c0.2,0,0.3,0,0.4,0c0.1,0,0.2,0,0.4,0c-0.3-0.1-0.6-0.2-0.8-0.3c-0.2-0.1-0.3-0.2-0.4-0.4
			c-0.1-0.1-0.2-0.3-0.2-0.4c0-0.1,0-0.3,0-0.5c0-0.2,0-0.3,0.1-0.5c0.1-0.2,0.2-0.3,0.3-0.5c0.1-0.1,0.3-0.3,0.5-0.3
			c0.2-0.1,0.4-0.1,0.7-0.1c0.2,0,0.4,0,0.6,0.1c0.2,0.1,0.3,0.2,0.5,0.3c0.1,0.1,0.2,0.3,0.3,0.5c0.1,0.2,0.1,0.5,0.1,0.8v0.4
			c0,0.5-0.1,0.8-0.4,1.1c-0.3,0.3-0.7,0.4-1.3,0.4h-2.1c-0.1,0-0.1,0-0.2-0.1c0,0,0-0.1,0-0.2c0-0.1,0-0.2,0-0.2
			c0-0.1,0.1-0.1,0.2-0.1H725.9z M726.6,321c-0.1,0-0.3,0-0.4,0.1c-0.1,0.1-0.2,0.1-0.3,0.2c-0.1,0.1-0.1,0.2-0.2,0.3
			s-0.1,0.2-0.1,0.3c0,0.1,0,0.2,0,0.3s0.1,0.2,0.2,0.3c0.1,0.1,0.3,0.2,0.5,0.3c0.2,0.1,0.5,0.2,0.9,0.4c0.2-0.2,0.3-0.4,0.3-0.7
			v-0.3c0-0.4-0.1-0.7-0.2-0.9S727,321,726.6,321z M726.4,319.4h-0.7v-0.6h0.7V319.4z M727.6,319.4h-0.7v-0.6h0.7V319.4z"/>
		<path class="st4" d="M732.5,321.9c0.2,0.2,0.3,0.3,0.3,0.5s0.1,0.3,0.1,0.5c0,0.3-0.1,0.6-0.3,0.8c-0.2,0.2-0.6,0.3-1,0.3h-2.5
			l0-0.6h2.5c0.2,0,0.4-0.1,0.5-0.2c0.1-0.1,0.2-0.2,0.2-0.4c0-0.1,0-0.2-0.1-0.3c0-0.1-0.1-0.2-0.2-0.3l-1.7-1.9l0.5-0.4
			L732.5,321.9z"/>
		<path class="st4" d="M736.8,321.8c-0.2,0-0.3,0-0.4-0.1c-0.1-0.1-0.2-0.1-0.3-0.3c0,0.1,0,0.3,0,0.4s0,0.3,0,0.5v2.2h-0.6v-2.2
			c0-0.4,0-0.7,0-0.9c0-0.3-0.1-0.5-0.1-0.7c0-0.2-0.1-0.4-0.1-0.6c-0.1-0.2-0.1-0.4-0.2-0.6l0.6-0.2c0,0.1,0.1,0.3,0.1,0.4
			c0,0.1,0.1,0.2,0.1,0.3c0,0.1,0.1,0.2,0.1,0.3c0,0.1,0.1,0.2,0.1,0.3c0.1,0.2,0.2,0.4,0.3,0.5c0.1,0.1,0.3,0.2,0.5,0.2
			c0.2,0,0.4-0.1,0.5-0.2c0.1-0.1,0.2-0.3,0.2-0.5c0-0.1,0-0.3,0-0.5c0-0.2-0.1-0.4-0.1-0.7l0.6-0.1c0,0.2,0.1,0.4,0.1,0.7
			c0,0.2,0,0.4,0,0.6c0,0.2,0,0.4-0.1,0.5c-0.1,0.2-0.2,0.3-0.3,0.4c-0.1,0.1-0.2,0.2-0.4,0.3C737.2,321.8,737,321.8,736.8,321.8z"
			/>
		<path class="st4" d="M739,323.2c0-0.2,0-0.4,0.1-0.6c0.1-0.2,0.1-0.5,0.3-0.7c0.1-0.3,0.3-0.6,0.6-0.9c0.2-0.3,0.6-0.7,1-1.1
			l-0.4-0.4l0.4-0.4c0.6,0.5,1,0.9,1.4,1.3c0.4,0.4,0.6,0.7,0.8,1.1c0.2,0.3,0.3,0.6,0.4,0.9c0.1,0.3,0.1,0.5,0.1,0.8
			c0,0.3,0,0.5-0.1,0.7s-0.2,0.3-0.3,0.5c-0.1,0.1-0.3,0.2-0.4,0.3c-0.2,0.1-0.3,0.1-0.5,0.1c-0.2,0-0.4,0-0.6-0.1
			c-0.2-0.1-0.3-0.2-0.4-0.3c-0.1,0.1-0.3,0.3-0.4,0.3c-0.2,0.1-0.4,0.1-0.5,0.1c-0.4,0-0.7-0.1-0.9-0.4
			C739.1,324,739,323.7,739,323.2z M743,323.1c0-0.2,0-0.4-0.1-0.5s-0.1-0.4-0.3-0.6c-0.1-0.2-0.3-0.5-0.5-0.8
			c-0.2-0.3-0.5-0.6-0.9-0.9c-0.6,0.6-1,1.1-1.3,1.6c-0.3,0.5-0.4,0.9-0.4,1.3c0,0.3,0.1,0.5,0.2,0.6c0.1,0.1,0.3,0.2,0.6,0.2
			c0.1,0,0.2,0,0.3,0s0.2-0.1,0.3-0.1s0.1-0.1,0.2-0.2c0-0.1,0.1-0.2,0.1-0.4v-0.6h0.5v0.6c0,0.1,0,0.2,0,0.3c0,0.1,0,0.2-0.1,0.2
			c0.1,0.1,0.2,0.2,0.3,0.2c0.1,0.1,0.2,0.1,0.4,0.1c0.2,0,0.4-0.1,0.6-0.2C742.9,323.6,743,323.4,743,323.1z"/>
	</g>
	<g>
		<path class="st4" d="M621.8,308.6c0.2,0.3,0.4,0.6,0.5,0.8c0.1,0.3,0.2,0.5,0.2,0.8c0,0.2,0,0.5-0.1,0.7c-0.1,0.2-0.2,0.4-0.4,0.6
			c-0.2,0.2-0.4,0.3-0.6,0.4c-0.3,0.1-0.6,0.1-0.9,0.1h-3.6l-0.1-1.5h3.4c0.4,0,0.7-0.2,0.7-0.5c0-0.2-0.1-0.3-0.2-0.5l-2.3-2.6
			l1.1-1L621.8,308.6z"/>
		<path class="st4" d="M625.8,312c-0.3,0-0.5,0-0.7-0.1c-0.2-0.1-0.4-0.2-0.6-0.3c-0.2-0.2-0.3-0.4-0.4-0.6c-0.1-0.3-0.1-0.6-0.1-1
			v-6.3h1.4v6c0,0.3,0.1,0.5,0.2,0.7c0.1,0.2,0.3,0.2,0.6,0.2h0.3c0.2,0,0.3,0.2,0.3,0.7c0,0.5-0.1,0.8-0.3,0.8H625.8z"/>
		<path class="st4" d="M627.7,310.5c0.6,0,0.9-0.3,0.9-0.9V308h1.4v1.7c0,0.7-0.2,1.3-0.6,1.7c-0.4,0.4-0.9,0.6-1.6,0.6h-1.4
			c-0.1,0-0.2-0.1-0.2-0.2c0-0.1-0.1-0.3-0.1-0.5c0-0.3,0-0.5,0.1-0.6c0-0.1,0.1-0.2,0.2-0.2H627.7z M628.4,314.9h-1.5v-1.4h1.5
			V314.9z"/>
		<path class="st4" d="M631.5,304.3c-0.2,0-0.3,0-0.4,0.1c-0.1,0-0.2,0.1-0.3,0.3l-0.3,0.6l-0.9-0.4l0.4-0.9
			c0.1-0.2,0.2-0.3,0.2-0.4c0.1-0.1,0.2-0.2,0.3-0.3c0.1-0.1,0.2-0.1,0.4-0.2c0.1,0,0.3,0,0.5,0h2.7l-0.1,1.3H631.5z M631.5,305.7
			h1.4v6.3h-1.4V305.7z"/>
		<path class="st4" d="M638.4,312c-0.4,0-0.7-0.1-1-0.2s-0.5-0.3-0.6-0.5c-0.2-0.2-0.3-0.4-0.4-0.7c-0.1-0.3-0.1-0.5-0.1-0.8V308
			h1.4v1.6c0,0.3,0.1,0.5,0.2,0.7c0.1,0.2,0.4,0.2,0.8,0.2h4.2c0.3,0,0.6-0.1,0.7-0.2c0.1-0.1,0.2-0.4,0.2-0.7V308h1.4v1.9
			c0,0.3-0.1,0.6-0.2,0.9s-0.3,0.5-0.5,0.6c-0.2,0.2-0.4,0.3-0.7,0.4c-0.2,0.1-0.5,0.1-0.8,0.1H638.4z M640.6,307h-1.4v-1.3h1.4V307
			z M642.5,307h-1.4v-1.3h1.4V307z"/>
		<path class="st4" d="M651.5,308.6c0.2,0.3,0.4,0.6,0.5,0.8c0.1,0.3,0.2,0.5,0.2,0.8c0,0.2,0,0.5-0.1,0.7c-0.1,0.2-0.2,0.4-0.4,0.6
			c-0.2,0.2-0.4,0.3-0.6,0.4c-0.3,0.1-0.6,0.1-0.9,0.1h-3.6l-0.1-1.5h3.4c0.4,0,0.7-0.2,0.7-0.5c0-0.2-0.1-0.3-0.2-0.5l-2.3-2.6
			l1.1-1L651.5,308.6z"/>
		<path class="st4" d="M655.5,312c-0.3,0-0.5,0-0.7-0.1c-0.2-0.1-0.4-0.2-0.6-0.3c-0.2-0.2-0.3-0.4-0.4-0.6c-0.1-0.3-0.1-0.6-0.1-1
			v-6.3h1.4v6c0,0.3,0.1,0.5,0.2,0.7c0.1,0.2,0.3,0.2,0.6,0.2h0.3c0.2,0,0.3,0.2,0.3,0.7c0,0.5-0.1,0.8-0.3,0.8H655.5z"/>
		<path class="st4" d="M656.9,310.5c0.3,0,0.6,0,0.9,0c0.3,0,0.7-0.1,1-0.2l-1.7-2.2l0.7-1.3h3.5c0.4,0,0.8,0.1,1.1,0.3
			c0.3,0.2,0.4,0.4,0.5,0.7c0,0.1,0,0.1,0,0.2s0,0.1,0,0.2c0,0.1,0,0.2-0.1,0.4s-0.1,0.3-0.2,0.5c-0.1,0.2-0.2,0.4-0.4,0.6
			c-0.2,0.2-0.4,0.5-0.7,0.7c0.2,0.1,0.5,0.1,0.7,0.1c0.2,0,0.5,0,0.8,0h0.9c0.1,0,0.2,0.1,0.2,0.2c0,0.1,0.1,0.3,0.1,0.5
			c0,0.3,0,0.5-0.1,0.6c0,0.1-0.1,0.2-0.2,0.2h-1.2c-0.3,0-0.5,0-0.8,0c-0.2,0-0.5,0-0.7-0.1c-0.2,0-0.4-0.1-0.6-0.2
			c-0.2-0.1-0.4-0.2-0.6-0.4c-0.3,0.2-0.5,0.3-0.7,0.4c-0.2,0.1-0.5,0.2-0.7,0.2c-0.3,0-0.5,0.1-0.8,0.1c-0.3,0-0.5,0-0.8,0h-0.9
			c-0.1,0-0.2-0.1-0.2-0.2c0-0.1-0.1-0.3-0.1-0.5c0-0.3,0-0.5,0.1-0.6c0-0.1,0.1-0.2,0.2-0.2H656.9z M661.5,308.5
			c0-0.2-0.2-0.4-0.6-0.4h-2.2l1.5,1.8c0.5-0.4,0.8-0.7,1-0.9C661.4,308.9,661.5,308.7,661.5,308.5z"/>
		<path class="st4" d="M664.6,310.5c0.6,0,0.9-0.3,0.9-0.9V308h1.4v1.6c0,0.3,0.1,0.5,0.3,0.7c0.2,0.1,0.4,0.2,0.7,0.2
			c0.7,0,1-0.3,1-0.9V308h1.4v1.6c0,0.3,0.1,0.5,0.2,0.7c0.2,0.1,0.4,0.2,0.6,0.2c0.3,0,0.5-0.1,0.6-0.2s0.2-0.4,0.2-0.7V308h1.4
			v1.7c0,0.7-0.2,1.3-0.6,1.7c-0.4,0.4-0.9,0.6-1.6,0.6c-0.3,0-0.6-0.1-0.9-0.2c-0.3-0.1-0.5-0.3-0.7-0.7c-0.2,0.3-0.5,0.6-0.8,0.7
			c-0.3,0.1-0.6,0.2-0.9,0.2c-0.3,0-0.7-0.1-0.9-0.2s-0.5-0.3-0.7-0.7c-0.2,0.3-0.5,0.6-0.7,0.7c-0.3,0.1-0.6,0.2-0.9,0.2H664
			c-0.1,0-0.2-0.1-0.2-0.2c0-0.1-0.1-0.3-0.1-0.5c0-0.3,0-0.5,0.1-0.6c0-0.1,0.1-0.2,0.2-0.2H664.6z"/>
		<path class="st4" d="M678.6,312c-0.4,0-0.7-0.1-1-0.2s-0.5-0.3-0.6-0.5c-0.2-0.2-0.3-0.4-0.4-0.7c-0.1-0.3-0.1-0.5-0.1-0.8V308
			h1.4v1.6c0,0.3,0.1,0.5,0.2,0.7c0.1,0.2,0.4,0.2,0.8,0.2h4.2c0.3,0,0.6-0.1,0.7-0.2c0.1-0.1,0.2-0.4,0.2-0.7V308h1.4v1.9
			c0,0.3-0.1,0.6-0.2,0.9s-0.3,0.5-0.5,0.6c-0.2,0.2-0.4,0.3-0.7,0.4c-0.2,0.1-0.5,0.1-0.8,0.1H678.6z M681.8,314.9h-1.5v-1.4h1.5
			V314.9z"/>
		<path class="st4" d="M687,303.6h1.4v8.4H687V303.6z"/>
		<path class="st4" d="M691.2,313.8c0.3,0,0.6,0,0.9-0.1s0.5-0.2,0.6-0.4c0.2-0.2,0.3-0.4,0.4-0.6c0.1-0.2,0.1-0.5,0.2-0.7h-0.9
			c-0.5,0-0.9,0-1.1-0.1c-0.3-0.1-0.5-0.2-0.7-0.4c-0.2-0.2-0.3-0.4-0.4-0.7c-0.1-0.3-0.1-0.6-0.1-0.9c0-0.4,0-0.7,0.1-1
			c0.1-0.3,0.2-0.6,0.4-0.8c0.2-0.2,0.4-0.4,0.7-0.6c0.3-0.1,0.6-0.2,1-0.2c0.3,0,0.6,0,0.9,0.1c0.3,0.1,0.5,0.3,0.7,0.5
			c0.2,0.2,0.4,0.5,0.5,0.8c0.1,0.3,0.2,0.8,0.2,1.3v0.6h1.1c0.2,0,0.3,0.2,0.3,0.7c0,0.5-0.1,0.8-0.3,0.8h-1.1
			c0,0.4-0.1,0.9-0.3,1.3c-0.2,0.4-0.4,0.7-0.7,1s-0.6,0.5-1,0.7c-0.4,0.2-0.8,0.3-1.3,0.3h-1.4l-0.1-1.5H691.2z M691.3,309.7
			c0,0.3,0.1,0.5,0.2,0.7c0.1,0.1,0.4,0.2,0.8,0.2h0.9v-0.6c0-0.5-0.1-0.8-0.3-1s-0.4-0.3-0.7-0.3c-0.3,0-0.5,0.1-0.7,0.3
			C691.4,309.1,691.3,309.3,691.3,309.7z"/>
		<path class="st4" d="M699.6,311.2c-0.2,0.1-0.5,0.3-0.7,0.4c-0.2,0.1-0.5,0.2-0.7,0.2c-0.3,0.1-0.5,0.1-0.9,0.1
			c-0.3,0-0.7,0-1.1,0h-0.5c-0.1,0-0.2-0.1-0.2-0.2c0-0.1-0.1-0.3-0.1-0.5c0-0.3,0-0.5,0.1-0.6c0-0.1,0.1-0.2,0.2-0.2h0.5
			c0.3,0,0.6,0,0.9,0c0.3,0,0.5,0,0.7-0.1c0.2,0,0.4-0.1,0.6-0.2c0.2-0.1,0.4-0.2,0.6-0.3l1.7-1c-0.1-0.1-0.1-0.2-0.2-0.3
			c-0.1-0.1-0.1-0.2-0.2-0.2c-0.1-0.1-0.2-0.1-0.3-0.1c-0.1,0-0.3,0-0.5,0h-2.9l0.1-1.5h3c0.3,0,0.5,0,0.7,0.1
			c0.2,0.1,0.5,0.2,0.7,0.4s0.4,0.5,0.6,0.9s0.3,0.8,0.5,1.4L699.6,311.2z M699.8,305.4h-1.5V304h1.5V305.4z"/>
		<path class="st4" d="M708.1,308.9c-0.4,0-0.7-0.1-0.9-0.3c0,0.2,0,0.3,0,0.5c0,0.2,0,0.4,0,0.6v3.2h-1.4v-3.3c0-0.5,0-1,0-1.4
			s-0.1-0.7-0.1-1.1c-0.1-0.3-0.1-0.6-0.2-0.9s-0.2-0.6-0.3-0.9l1.3-0.5c0.1,0.3,0.2,0.6,0.2,0.9c0.1,0.3,0.1,0.5,0.2,0.8
			c0,0.1,0.1,0.2,0.1,0.4c0,0.1,0.1,0.2,0.2,0.3c0.1,0.1,0.2,0.2,0.3,0.2c0.1,0,0.2,0.1,0.4,0.1c0.3,0,0.4-0.1,0.6-0.2
			c0.1-0.1,0.2-0.3,0.2-0.5c0-0.3-0.1-0.8-0.2-1.6l1.3-0.3c0.1,0.3,0.1,0.7,0.2,1c0,0.3,0.1,0.6,0.1,0.9c0,0.3,0,0.6-0.1,0.9
			c-0.1,0.3-0.2,0.5-0.4,0.7c-0.2,0.2-0.4,0.3-0.6,0.4C708.7,308.8,708.4,308.9,708.1,308.9z"/>
		<path class="st4" d="M716.1,311.8c0,0.5-0.1,0.9-0.2,1.4c-0.2,0.4-0.4,0.8-0.7,1.1c-0.3,0.3-0.6,0.6-1,0.7
			c-0.4,0.2-0.8,0.3-1.3,0.3H712l-0.1-1.5h0.6c0.4,0,0.7-0.1,1-0.2c0.3-0.1,0.5-0.3,0.7-0.5c0.2-0.2,0.3-0.4,0.4-0.6
			s0.1-0.5,0.1-0.7V308h1.4v1.6c0,0.3,0.1,0.5,0.3,0.6c0.2,0.1,0.4,0.2,0.7,0.2h0.1c0.2,0,0.3,0.2,0.3,0.7c0,0.5-0.1,0.8-0.3,0.8
			h-0.1c-0.2,0-0.4,0-0.5-0.1c-0.2-0.1-0.3-0.2-0.5-0.4V311.8z"/>
		<path class="st4" d="M718.2,310.5c0.6,0,0.9-0.3,0.9-0.9V308h1.4v1.6c0,0.3,0.1,0.5,0.3,0.7s0.4,0.2,0.7,0.2h0.4
			c0.2,0,0.3,0.2,0.3,0.7c0,0.5-0.1,0.8-0.3,0.8h-0.4c-0.3,0-0.7-0.1-0.9-0.2c-0.3-0.1-0.5-0.3-0.7-0.7c-0.2,0.3-0.5,0.6-0.7,0.7
			c-0.3,0.1-0.5,0.2-0.8,0.2h-0.9c-0.1,0-0.2-0.1-0.2-0.2c0-0.1-0.1-0.3-0.1-0.5c0-0.3,0-0.5,0.1-0.6c0-0.1,0.1-0.2,0.2-0.2H718.2z
			 M719.3,306.5h-1.4v-1.3h1.4V306.5z M721.3,306.5h-1.4v-1.3h1.4V306.5z"/>
		<path class="st4" d="M721.9,310.5c0.3,0,0.5-0.1,0.7-0.2c0.2-0.1,0.3-0.3,0.3-0.6v-0.3c0-0.4,0.1-0.7,0.2-1
			c0.1-0.3,0.3-0.6,0.5-0.8c0.2-0.2,0.4-0.4,0.7-0.5c0.3-0.1,0.6-0.2,1-0.2c0.4,0,0.7,0.1,1,0.2c0.3,0.1,0.5,0.3,0.7,0.5
			c0.2,0.2,0.3,0.5,0.4,0.8c0.1,0.3,0.1,0.6,0.1,1c0,0.8-0.2,1.4-0.6,1.9c-0.4,0.4-1,0.7-1.7,0.7c-0.4,0-0.7-0.1-1-0.2
			c-0.3-0.1-0.6-0.4-0.8-0.7c-0.2,0.4-0.4,0.6-0.7,0.7c-0.3,0.1-0.5,0.2-0.8,0.2h-0.1c-0.1,0-0.2-0.1-0.2-0.2c0-0.1-0.1-0.3-0.1-0.5
			c0-0.3,0-0.5,0.1-0.6c0-0.1,0.1-0.2,0.2-0.2H721.9z M726.1,309.5c0-0.3-0.1-0.6-0.2-0.8c-0.1-0.2-0.4-0.3-0.7-0.3
			c-0.3,0-0.6,0.1-0.7,0.3s-0.2,0.5-0.2,0.8c0,0.3,0.1,0.6,0.3,0.7s0.4,0.2,0.7,0.2C725.8,310.5,726.1,310.2,726.1,309.5z"/>
		<path class="st4" d="M733.5,310.3c0.1-0.5,0.2-1,0.3-1.4c0.1-0.4,0.2-0.9,0.4-1.3c0.2-0.4,0.3-0.9,0.6-1.4c0.2-0.5,0.5-1,0.8-1.5
			l1.1,0.7c-0.3,0.6-0.6,1.1-0.9,1.7c-0.3,0.5-0.5,1.1-0.7,1.6s-0.4,1.2-0.6,1.9c-0.2,0.7-0.3,1.4-0.5,2.3h-1
			c-0.2-0.9-0.3-1.6-0.5-2.3c-0.2-0.7-0.4-1.3-0.6-1.9s-0.5-1.1-0.7-1.6c-0.3-0.5-0.6-1.1-0.9-1.7l1.1-0.7c0.3,0.5,0.6,1.1,0.9,1.5
			c0.2,0.5,0.4,0.9,0.6,1.4c0.2,0.4,0.3,0.9,0.4,1.3C733.4,309.3,733.4,309.8,733.5,310.3z"/>
		<path class="st4" d="M740.5,307.3c-0.1,0.5-0.2,1-0.3,1.4c-0.1,0.4-0.2,0.9-0.4,1.3c-0.2,0.4-0.3,0.9-0.6,1.4
			c-0.2,0.5-0.5,1-0.9,1.5l-1.1-0.7c0.3-0.6,0.6-1.1,0.9-1.7c0.3-0.5,0.5-1.1,0.7-1.7c0.2-0.6,0.4-1.2,0.6-1.8
			c0.2-0.7,0.4-1.4,0.5-2.3h1c0.2,0.9,0.3,1.6,0.5,2.3c0.2,0.7,0.4,1.3,0.6,1.8c0.2,0.6,0.5,1.1,0.7,1.7c0.3,0.5,0.6,1.1,0.9,1.7
			l-1.1,0.7c-0.3-0.5-0.6-1.1-0.8-1.5c-0.2-0.5-0.4-0.9-0.6-1.4c-0.2-0.4-0.3-0.9-0.4-1.3C740.7,308.3,740.6,307.8,740.5,307.3z"/>
	</g>
	<g>
		<rect x="762" y="287.8" width="24" height="0.5"/>
		<rect x="773.8" y="288" width="0.5" height="24"/>
		<rect x="762" y="311.7" transform="matrix(1 -3.906220e-03 3.906220e-03 1 -1.2127 3.0258)" width="24" height="0.5"/>
		<g>
			<path d="M786.8,298.7h0.8c0.5,0,0.9-0.1,1.2-0.4c0.3-0.3,0.4-0.6,0.4-1.1c0-1-0.5-1.5-1.5-1.5c-0.5,0-0.8,0.1-1.1,0.4
				c-0.3,0.3-0.4,0.6-0.4,1.1h-1.1c0-0.7,0.2-1.2,0.7-1.7c0.5-0.4,1.1-0.7,1.9-0.7c0.8,0,1.4,0.2,1.9,0.6c0.5,0.4,0.7,1,0.7,1.8
				c0,0.4-0.1,0.7-0.4,1.1c-0.2,0.3-0.6,0.6-1,0.8c0.5,0.1,0.8,0.4,1.1,0.7c0.3,0.3,0.4,0.8,0.4,1.3c0,0.8-0.3,1.4-0.8,1.8
				c-0.5,0.4-1.2,0.7-2,0.7s-1.5-0.2-2-0.7s-0.8-1-0.8-1.7h1.1c0,0.4,0.1,0.8,0.4,1.1s0.7,0.4,1.2,0.4c0.5,0,0.9-0.1,1.2-0.4
				c0.3-0.3,0.4-0.7,0.4-1.2c0-0.5-0.2-0.9-0.5-1.1c-0.3-0.3-0.7-0.4-1.3-0.4h-0.8V298.7z"/>
			<path d="M797.6,303.5H792v-0.8l3-3.3c0.4-0.5,0.7-0.9,0.9-1.2s0.2-0.6,0.2-1c0-0.4-0.1-0.8-0.4-1.1c-0.3-0.3-0.6-0.4-1.1-0.4
				c-0.5,0-1,0.2-1.3,0.5c-0.3,0.3-0.4,0.7-0.4,1.3h-1.1c0-0.8,0.3-1.4,0.8-1.9c0.5-0.5,1.2-0.7,2-0.7c0.8,0,1.4,0.2,1.9,0.6
				s0.7,1,0.7,1.7c0,0.8-0.5,1.8-1.6,3l-2.3,2.5h4.3V303.5z"/>
		</g>
	</g>
	<g>
		<rect x="804" y="287.8" width="24" height="0.5"/>
		<rect x="815.8" y="288" width="0.5" height="36"/>
		<rect x="804" y="323.7" transform="matrix(1 -3.906220e-03 3.906220e-03 1 -1.2592 3.19)" width="24" height="0.5"/>
		<g>
			<path d="M831.8,306.6h1.2v0.9h-1.2v2h-1.1v-2h-3.9v-0.6l3.8-5.9h1.2V306.6z M828.1,306.6h2.7v-4.2l-0.1,0.2L828.1,306.6z"/>
			<path d="M839.2,303.2c0,0.4-0.1,0.8-0.3,1.1c-0.2,0.3-0.5,0.6-0.9,0.8c0.4,0.2,0.8,0.5,1.1,0.8c0.3,0.4,0.4,0.8,0.4,1.2
				c0,0.7-0.2,1.3-0.7,1.8c-0.5,0.4-1.2,0.7-2,0.7c-0.8,0-1.5-0.2-2-0.7s-0.7-1-0.7-1.8c0-0.5,0.1-0.9,0.4-1.2
				c0.3-0.4,0.6-0.7,1-0.8c-0.4-0.2-0.7-0.4-0.9-0.8c-0.2-0.3-0.3-0.7-0.3-1.1c0-0.7,0.2-1.3,0.7-1.7s1.1-0.6,1.8-0.6
				c0.8,0,1.4,0.2,1.8,0.6S839.2,302.5,839.2,303.2z M838.3,307.2c0-0.5-0.2-0.9-0.5-1.2c-0.3-0.3-0.7-0.5-1.2-0.5s-0.9,0.1-1.2,0.4
				c-0.3,0.3-0.4,0.7-0.4,1.2c0,0.5,0.1,0.9,0.4,1.1c0.3,0.3,0.7,0.4,1.2,0.4c0.5,0,0.9-0.1,1.2-0.4
				C838.2,308,838.3,307.7,838.3,307.2z M836.7,301.8c-0.4,0-0.8,0.1-1,0.4s-0.4,0.6-0.4,1.1c0,0.4,0.1,0.8,0.4,1.1
				c0.3,0.3,0.6,0.4,1,0.4s0.8-0.1,1-0.4c0.3-0.3,0.4-0.6,0.4-1.1s-0.1-0.8-0.4-1.1C837.4,301.9,837.1,301.8,836.7,301.8z"/>
		</g>
	</g>
	<path class="st4" d="M384.5,288.5h-277v-151h277V288.5z M108.5,287.5h275v-149h-275V287.5z"/>
	<path class="st4" d="M219,189v48h60v-48H219z M267,198c1.8,0,3,1.2,3,3s-1.2,3-3,3s-3-1.2-3-3S265.2,198,267,198z M225,231v-13.2
		l12-10.8l15,15l6-6l15,15H225z"/>
	<g>
		<rect x="108" y="210" class="st0" width="276" height="156"/>
		<path class="st4" d="M384.5,366.5h-277v-157h277V366.5z M108.5,365.5h275v-155h-275V365.5z"/>
	</g>
	<g>
		<path class="st4" d="M249.2,230.6c0.2,0.3,0.4,0.6,0.5,0.8c0.1,0.3,0.2,0.5,0.2,0.8c0,0.2,0,0.5-0.1,0.7c-0.1,0.2-0.2,0.4-0.4,0.6
			c-0.2,0.2-0.4,0.3-0.6,0.4c-0.3,0.1-0.6,0.1-0.9,0.1h-3.6l-0.1-1.5h3.4c0.4,0,0.7-0.2,0.7-0.5c0-0.2-0.1-0.3-0.2-0.5l-2.3-2.6
			l1.1-1L249.2,230.6z"/>
		<path class="st4" d="M253.3,234c-0.3,0-0.5,0-0.7-0.1c-0.2-0.1-0.4-0.2-0.6-0.3c-0.2-0.2-0.3-0.4-0.4-0.6c-0.1-0.3-0.1-0.6-0.1-1
			v-6.3h1.4v6c0,0.3,0.1,0.5,0.2,0.7c0.1,0.2,0.3,0.2,0.6,0.2h0.3c0.2,0,0.3,0.2,0.3,0.7c0,0.5-0.1,0.8-0.3,0.8H253.3z"/>
		<path class="st4" d="M255.1,232.5c0.6,0,0.9-0.3,0.9-0.9V230h1.4v1.7c0,0.7-0.2,1.3-0.6,1.7c-0.4,0.4-0.9,0.6-1.6,0.6h-1.4
			c-0.1,0-0.2-0.1-0.2-0.2c0-0.1-0.1-0.3-0.1-0.5c0-0.3,0-0.5,0.1-0.6c0-0.1,0.1-0.2,0.2-0.2H255.1z M255.8,236.9h-1.5v-1.4h1.5
			V236.9z"/>
		<path class="st4" d="M258.9,226.3c-0.2,0-0.3,0-0.4,0.1c-0.1,0-0.2,0.1-0.3,0.3l-0.3,0.6l-0.9-0.4l0.4-0.9
			c0.1-0.2,0.2-0.3,0.2-0.4c0.1-0.1,0.2-0.2,0.3-0.3c0.1-0.1,0.2-0.1,0.4-0.2c0.1,0,0.3,0,0.5,0h2.7l-0.1,1.3H258.9z M259,227.7h1.4
			v6.3H259V227.7z"/>
		<path class="st4" d="M265.9,234c-0.4,0-0.7-0.1-1-0.2s-0.5-0.3-0.6-0.5c-0.2-0.2-0.3-0.4-0.4-0.7c-0.1-0.3-0.1-0.5-0.1-0.8V230
			h1.4v1.6c0,0.3,0.1,0.5,0.2,0.7c0.1,0.2,0.4,0.2,0.8,0.2h4.2c0.3,0,0.6-0.1,0.7-0.2c0.1-0.1,0.2-0.4,0.2-0.7V230h1.4v1.9
			c0,0.3-0.1,0.6-0.2,0.9s-0.3,0.5-0.5,0.6c-0.2,0.2-0.4,0.3-0.7,0.4c-0.2,0.1-0.5,0.1-0.8,0.1H265.9z M268,229h-1.4v-1.3h1.4V229z
			 M269.9,229h-1.4v-1.3h1.4V229z"/>
		<path class="st4" d="M278.9,230.6c0.2,0.3,0.4,0.6,0.5,0.8c0.1,0.3,0.2,0.5,0.2,0.8c0,0.2,0,0.5-0.1,0.7c-0.1,0.2-0.2,0.4-0.4,0.6
			c-0.2,0.2-0.4,0.3-0.6,0.4c-0.3,0.1-0.6,0.1-0.9,0.1H274l-0.1-1.5h3.4c0.4,0,0.7-0.2,0.7-0.5c0-0.2-0.1-0.3-0.2-0.5l-2.3-2.6
			l1.1-1L278.9,230.6z"/>
		<path class="st4" d="M283,234c-0.3,0-0.5,0-0.7-0.1c-0.2-0.1-0.4-0.2-0.6-0.3c-0.2-0.2-0.3-0.4-0.4-0.6c-0.1-0.3-0.1-0.6-0.1-1
			v-6.3h1.4v6c0,0.3,0.1,0.5,0.2,0.7c0.1,0.2,0.3,0.2,0.6,0.2h0.3c0.2,0,0.3,0.2,0.3,0.7c0,0.5-0.1,0.8-0.3,0.8H283z"/>
		<path class="st4" d="M284.4,232.5c0.3,0,0.6,0,0.9,0c0.3,0,0.7-0.1,1-0.2l-1.7-2.2l0.7-1.3h3.5c0.4,0,0.8,0.1,1.1,0.3
			c0.3,0.2,0.4,0.4,0.5,0.7c0,0.1,0,0.1,0,0.2s0,0.1,0,0.2c0,0.1,0,0.2-0.1,0.4s-0.1,0.3-0.2,0.5c-0.1,0.2-0.2,0.4-0.4,0.6
			c-0.2,0.2-0.4,0.5-0.7,0.7c0.2,0.1,0.5,0.1,0.7,0.1c0.2,0,0.5,0,0.8,0h0.9c0.1,0,0.2,0.1,0.2,0.2c0,0.1,0.1,0.3,0.1,0.5
			c0,0.3,0,0.5-0.1,0.6c0,0.1-0.1,0.2-0.2,0.2h-1.2c-0.3,0-0.5,0-0.8,0c-0.2,0-0.5,0-0.7-0.1c-0.2,0-0.4-0.1-0.6-0.2
			c-0.2-0.1-0.4-0.2-0.6-0.4c-0.3,0.2-0.5,0.3-0.7,0.4c-0.2,0.1-0.5,0.2-0.7,0.2c-0.3,0-0.5,0.1-0.8,0.1c-0.3,0-0.5,0-0.8,0h-0.9
			c-0.1,0-0.2-0.1-0.2-0.2c0-0.1-0.1-0.3-0.1-0.5c0-0.3,0-0.5,0.1-0.6c0-0.1,0.1-0.2,0.2-0.2H284.4z M288.9,230.5
			c0-0.2-0.2-0.4-0.6-0.4h-2.2l1.5,1.8c0.5-0.4,0.8-0.7,1-0.9C288.8,230.9,288.9,230.7,288.9,230.5z"/>
		<path class="st4" d="M292,232.5c0.6,0,0.9-0.3,0.9-0.9V230h1.4v1.6c0,0.3,0.1,0.5,0.3,0.7c0.2,0.1,0.4,0.2,0.7,0.2
			c0.7,0,1-0.3,1-0.9V230h1.4v1.6c0,0.3,0.1,0.5,0.2,0.7c0.2,0.1,0.4,0.2,0.6,0.2c0.3,0,0.5-0.1,0.6-0.2s0.2-0.4,0.2-0.7V230h1.4
			v1.7c0,0.7-0.2,1.3-0.6,1.7c-0.4,0.4-0.9,0.6-1.6,0.6c-0.3,0-0.6-0.1-0.9-0.2c-0.3-0.1-0.5-0.3-0.7-0.7c-0.2,0.3-0.5,0.6-0.8,0.7
			c-0.3,0.1-0.6,0.2-0.9,0.2c-0.3,0-0.7-0.1-0.9-0.2s-0.5-0.3-0.7-0.7c-0.2,0.3-0.5,0.6-0.7,0.7c-0.3,0.1-0.6,0.2-0.9,0.2h-0.6
			c-0.1,0-0.2-0.1-0.2-0.2c0-0.1-0.1-0.3-0.1-0.5c0-0.3,0-0.5,0.1-0.6c0-0.1,0.1-0.2,0.2-0.2H292z"/>
		<path class="st4" d="M306.1,234c-0.4,0-0.7-0.1-1-0.2s-0.5-0.3-0.6-0.5c-0.2-0.2-0.3-0.4-0.4-0.7c-0.1-0.3-0.1-0.5-0.1-0.8V230
			h1.4v1.6c0,0.3,0.1,0.5,0.2,0.7c0.1,0.2,0.4,0.2,0.8,0.2h4.2c0.3,0,0.6-0.1,0.7-0.2c0.1-0.1,0.2-0.4,0.2-0.7V230h1.4v1.9
			c0,0.3-0.1,0.6-0.2,0.9s-0.3,0.5-0.5,0.6c-0.2,0.2-0.4,0.3-0.7,0.4c-0.2,0.1-0.5,0.1-0.8,0.1H306.1z M309.2,236.9h-1.5v-1.4h1.5
			V236.9z"/>
		<path class="st4" d="M314.5,225.6h1.4v8.4h-1.4V225.6z"/>
		<path class="st4" d="M318.6,235.8c0.3,0,0.6,0,0.9-0.1s0.5-0.2,0.6-0.4c0.2-0.2,0.3-0.4,0.4-0.6c0.1-0.2,0.1-0.5,0.2-0.7h-0.9
			c-0.5,0-0.9,0-1.1-0.1c-0.3-0.1-0.5-0.2-0.7-0.4c-0.2-0.2-0.3-0.4-0.4-0.7c-0.1-0.3-0.1-0.6-0.1-0.9c0-0.4,0-0.7,0.1-1
			c0.1-0.3,0.2-0.6,0.4-0.8c0.2-0.2,0.4-0.4,0.7-0.6c0.3-0.1,0.6-0.2,1-0.2c0.3,0,0.6,0,0.9,0.1c0.3,0.1,0.5,0.3,0.7,0.5
			c0.2,0.2,0.4,0.5,0.5,0.8c0.1,0.3,0.2,0.8,0.2,1.3v0.6h1.1c0.2,0,0.3,0.2,0.3,0.7c0,0.5-0.1,0.8-0.3,0.8H322
			c0,0.4-0.1,0.9-0.3,1.3c-0.2,0.4-0.4,0.7-0.7,1s-0.6,0.5-1,0.7c-0.4,0.2-0.8,0.3-1.3,0.3h-1.4l-0.1-1.5H318.6z M318.8,231.7
			c0,0.3,0.1,0.5,0.2,0.7c0.1,0.1,0.4,0.2,0.8,0.2h0.9v-0.6c0-0.5-0.1-0.8-0.3-1s-0.4-0.3-0.7-0.3c-0.3,0-0.5,0.1-0.7,0.3
			C318.9,231.1,318.8,231.3,318.8,231.7z"/>
		<path class="st4" d="M327,233.2c-0.2,0.1-0.5,0.3-0.7,0.4c-0.2,0.1-0.5,0.2-0.7,0.2c-0.3,0.1-0.5,0.1-0.9,0.1c-0.3,0-0.7,0-1.1,0
			h-0.5c-0.1,0-0.2-0.1-0.2-0.2c0-0.1-0.1-0.3-0.1-0.5c0-0.3,0-0.5,0.1-0.6c0-0.1,0.1-0.2,0.2-0.2h0.5c0.3,0,0.6,0,0.9,0
			c0.3,0,0.5,0,0.7-0.1c0.2,0,0.4-0.1,0.6-0.2c0.2-0.1,0.4-0.2,0.6-0.3l1.7-1c-0.1-0.1-0.1-0.2-0.2-0.3c-0.1-0.1-0.1-0.2-0.2-0.2
			c-0.1-0.1-0.2-0.1-0.3-0.1c-0.1,0-0.3,0-0.5,0h-2.9l0.1-1.5h3c0.3,0,0.5,0,0.7,0.1c0.2,0.1,0.5,0.2,0.7,0.4s0.4,0.5,0.6,0.9
			s0.3,0.8,0.5,1.4L327,233.2z M327.2,227.4h-1.5V226h1.5V227.4z"/>
		<path class="st4" d="M335.5,230.9c-0.4,0-0.7-0.1-0.9-0.3c0,0.2,0,0.3,0,0.5c0,0.2,0,0.4,0,0.6v3.2h-1.4v-3.3c0-0.5,0-1,0-1.4
			s-0.1-0.7-0.1-1.1c-0.1-0.3-0.1-0.6-0.2-0.9s-0.2-0.6-0.3-0.9l1.3-0.5c0.1,0.3,0.2,0.6,0.2,0.9c0.1,0.3,0.1,0.5,0.2,0.8
			c0,0.1,0.1,0.2,0.1,0.4c0,0.1,0.1,0.2,0.2,0.3c0.1,0.1,0.2,0.2,0.3,0.2c0.1,0,0.2,0.1,0.4,0.1c0.3,0,0.4-0.1,0.6-0.2
			c0.1-0.1,0.2-0.3,0.2-0.5c0-0.3-0.1-0.8-0.2-1.6l1.3-0.3c0.1,0.3,0.1,0.7,0.2,1c0,0.3,0.1,0.6,0.1,0.9c0,0.3,0,0.6-0.1,0.9
			c-0.1,0.3-0.2,0.5-0.4,0.7c-0.2,0.2-0.4,0.3-0.6,0.4C336.1,230.8,335.8,230.9,335.5,230.9z"/>
		<path class="st4" d="M343.5,233.8c0,0.5-0.1,0.9-0.2,1.4c-0.2,0.4-0.4,0.8-0.7,1.1c-0.3,0.3-0.6,0.6-1,0.7
			c-0.4,0.2-0.8,0.3-1.3,0.3h-0.9l-0.1-1.5h0.6c0.4,0,0.7-0.1,1-0.2c0.3-0.1,0.5-0.3,0.7-0.5c0.2-0.2,0.3-0.4,0.4-0.6
			s0.1-0.5,0.1-0.7V230h1.4v1.6c0,0.3,0.1,0.5,0.3,0.6c0.2,0.1,0.4,0.2,0.7,0.2h0.1c0.2,0,0.3,0.2,0.3,0.7c0,0.5-0.1,0.8-0.3,0.8
			h-0.1c-0.2,0-0.4,0-0.5-0.1c-0.2-0.1-0.3-0.2-0.5-0.4V233.8z"/>
		<path class="st4" d="M345.6,232.5c0.6,0,0.9-0.3,0.9-0.9V230h1.4v1.6c0,0.3,0.1,0.5,0.3,0.7s0.4,0.2,0.7,0.2h0.4
			c0.2,0,0.3,0.2,0.3,0.7c0,0.5-0.1,0.8-0.3,0.8h-0.4c-0.3,0-0.7-0.1-0.9-0.2c-0.3-0.1-0.5-0.3-0.7-0.7c-0.2,0.3-0.5,0.6-0.7,0.7
			c-0.3,0.1-0.5,0.2-0.8,0.2h-0.9c-0.1,0-0.2-0.1-0.2-0.2c0-0.1-0.1-0.3-0.1-0.5c0-0.3,0-0.5,0.1-0.6c0-0.1,0.1-0.2,0.2-0.2H345.6z
			 M346.8,228.5h-1.4v-1.3h1.4V228.5z M348.7,228.5h-1.4v-1.3h1.4V228.5z"/>
		<path class="st4" d="M349.4,232.5c0.3,0,0.5-0.1,0.7-0.2c0.2-0.1,0.3-0.3,0.3-0.6v-0.3c0-0.4,0.1-0.7,0.2-1
			c0.1-0.3,0.3-0.6,0.5-0.8c0.2-0.2,0.4-0.4,0.7-0.5c0.3-0.1,0.6-0.2,1-0.2c0.4,0,0.7,0.1,1,0.2c0.3,0.1,0.5,0.3,0.7,0.5
			c0.2,0.2,0.3,0.5,0.4,0.8c0.1,0.3,0.1,0.6,0.1,1c0,0.8-0.2,1.4-0.6,1.9c-0.4,0.4-1,0.7-1.7,0.7c-0.4,0-0.7-0.1-1-0.2
			c-0.3-0.1-0.6-0.4-0.8-0.7c-0.2,0.4-0.4,0.6-0.7,0.7c-0.3,0.1-0.5,0.2-0.8,0.2h-0.1c-0.1,0-0.2-0.1-0.2-0.2c0-0.1-0.1-0.3-0.1-0.5
			c0-0.3,0-0.5,0.1-0.6c0-0.1,0.1-0.2,0.2-0.2H349.4z M353.6,231.5c0-0.3-0.1-0.6-0.2-0.8c-0.1-0.2-0.4-0.3-0.7-0.3
			c-0.3,0-0.6,0.1-0.7,0.3s-0.2,0.5-0.2,0.8c0,0.3,0.1,0.6,0.3,0.7s0.4,0.2,0.7,0.2C353.2,232.5,353.6,232.2,353.6,231.5z"/>
		<path class="st4" d="M361.3,232.3c0.1-0.5,0.2-1,0.3-1.4c0.1-0.4,0.2-0.9,0.4-1.3c0.2-0.4,0.3-0.9,0.6-1.4c0.2-0.5,0.5-1,0.9-1.5
			l1.1,0.7c-0.3,0.6-0.6,1.1-0.9,1.7c-0.3,0.5-0.5,1.1-0.7,1.6s-0.4,1.2-0.6,1.9c-0.2,0.7-0.3,1.4-0.5,2.3h-1
			c-0.2-0.9-0.3-1.6-0.5-2.3c-0.2-0.7-0.4-1.3-0.6-1.9c-0.2-0.6-0.5-1.1-0.7-1.6c-0.3-0.5-0.6-1.1-0.9-1.7l1.1-0.7
			c0.3,0.5,0.6,1.1,0.9,1.5c0.2,0.5,0.4,0.9,0.6,1.4c0.2,0.4,0.3,0.9,0.4,1.3C361.1,231.3,361.2,231.8,361.3,232.3z"/>
		<path class="st4" d="M368.5,229.3c-0.1,0.5-0.2,1-0.3,1.4c-0.1,0.4-0.2,0.9-0.4,1.3c-0.2,0.4-0.3,0.9-0.6,1.4
			c-0.2,0.5-0.5,1-0.9,1.5l-1.1-0.7c0.3-0.6,0.6-1.1,0.9-1.7c0.3-0.5,0.5-1.1,0.7-1.7c0.2-0.6,0.4-1.2,0.6-1.8
			c0.2-0.7,0.4-1.4,0.5-2.3h1c0.2,0.9,0.3,1.6,0.5,2.3c0.2,0.7,0.4,1.3,0.6,1.8c0.2,0.6,0.5,1.1,0.7,1.7c0.3,0.5,0.6,1.1,0.9,1.7
			l-1.1,0.7c-0.3-0.5-0.6-1.1-0.8-1.5c-0.2-0.5-0.4-0.9-0.6-1.4c-0.2-0.4-0.3-0.9-0.4-1.3C368.7,230.3,368.6,229.8,368.5,229.3z"/>
	</g>
	<g>
		<path class="st4" d="M327.8,244.7c0,0.2,0.1,0.4,0.2,0.5c0.1,0.1,0.3,0.2,0.6,0.2c0.3,0,0.5-0.1,0.6-0.2c0.1-0.1,0.2-0.3,0.2-0.5
			v-1.2h0.6v1.2c0,0.3,0.1,0.4,0.2,0.6c0.1,0.1,0.3,0.2,0.5,0.2c0.2,0,0.4-0.1,0.6-0.2c0.1-0.1,0.2-0.3,0.2-0.5v-1.2h0.6v1.2
			c0,0.1,0,0.2,0.1,0.3c0,0.1,0.1,0.2,0.2,0.2c0.1,0.1,0.1,0.1,0.2,0.1c0.1,0,0.2,0,0.3,0h0.2c0.1,0,0.2,0.1,0.2,0.3
			c0,0.2-0.1,0.3-0.2,0.3h-0.2c-0.2,0-0.4,0-0.6-0.1c-0.2-0.1-0.3-0.2-0.5-0.5c-0.1,0.2-0.3,0.4-0.5,0.5c-0.2,0.1-0.4,0.1-0.5,0.1
			c-0.2,0-0.4,0-0.6-0.1c-0.2-0.1-0.3-0.2-0.5-0.5c-0.1,0.2-0.3,0.4-0.5,0.5c-0.2,0.1-0.4,0.1-0.6,0.1c-0.2,0-0.4,0-0.5-0.1
			c-0.1-0.1-0.2-0.1-0.3-0.3v0.2c0,0.3-0.1,0.6-0.2,0.9c-0.1,0.3-0.2,0.5-0.4,0.7c-0.2,0.2-0.4,0.4-0.7,0.5
			c-0.3,0.1-0.6,0.2-0.9,0.2h-0.5c-0.7,0-1.2-0.2-1.6-0.6s-0.6-1-0.6-1.7v-1.6h0.6v1.6c0,0.3,0,0.5,0.1,0.7c0.1,0.2,0.2,0.4,0.3,0.5
			c0.1,0.2,0.3,0.3,0.5,0.4s0.5,0.1,0.7,0.1h0.4c0.3,0,0.5,0,0.7-0.1c0.2-0.1,0.4-0.2,0.5-0.4c0.1-0.2,0.2-0.3,0.3-0.5
			c0.1-0.2,0.1-0.4,0.1-0.7v-2.4h0.6V244.7z M329.5,242.3h-0.7v-0.6h0.7V242.3z M330.1,241.2h-0.7v-0.6h0.7V241.2z M330.7,242.3H330
			v-0.6h0.7V242.3z"/>
		<path class="st4" d="M333.7,245.4c0.3,0,0.4-0.1,0.6-0.2c0.1-0.1,0.2-0.3,0.2-0.5v-1.2h0.6v1.2c0,0.1,0,0.2,0.1,0.3
			c0,0.1,0.1,0.2,0.2,0.2c0.1,0.1,0.2,0.1,0.2,0.1c0.1,0,0.2,0,0.3,0h0.3c0.1,0,0.2,0.1,0.2,0.3c0,0.2-0.1,0.3-0.2,0.3h-0.3
			c-0.2,0-0.4,0-0.6-0.1c-0.2-0.1-0.3-0.2-0.5-0.5c-0.1,0.2-0.3,0.4-0.5,0.5c-0.2,0.1-0.4,0.1-0.6,0.1H333c-0.1,0-0.1,0-0.2-0.1
			c0,0,0-0.1,0-0.2c0-0.1,0-0.2,0-0.2c0-0.1,0.1-0.1,0.2-0.1H333.7z M334.3,247.7h-0.7V247h0.7V247.7z M335.5,247.7h-0.7V247h0.7
			V247.7z"/>
		<path class="st4" d="M336.9,245.4c0.2,0,0.4-0.1,0.6-0.2c0.1-0.1,0.2-0.3,0.2-0.5v-1.2h0.6v1.2c0,0.4-0.1,0.8-0.4,1
			s-0.6,0.3-1,0.3h-0.8c-0.1,0-0.1,0-0.2-0.1c0,0,0-0.1,0-0.2c0-0.1,0-0.2,0-0.2c0-0.1,0.1-0.1,0.2-0.1H336.9z M336.9,247.7h-0.7
			V247h0.7V247.7z M337.5,248.8h-0.7v-0.6h0.7V248.8z M338.1,247.7h-0.7V247h0.7V247.7z"/>
		<path class="st4" d="M343.7,244.5c0,0.3,0.1,0.5,0.2,0.6c0.1,0.2,0.3,0.2,0.6,0.2h0.2c0.1,0,0.1,0,0.1,0.1c0,0.1,0,0.1,0,0.2
			c0,0.1,0,0.2,0,0.2c0,0.1-0.1,0.1-0.1,0.1h-0.2c-0.3,0-0.5-0.1-0.7-0.2c-0.2-0.1-0.3-0.3-0.4-0.6c-0.1,0.1-0.2,0.2-0.3,0.2
			c-0.1,0.1-0.2,0.1-0.3,0.1c-0.1,0-0.2,0.1-0.4,0.1s-0.2,0-0.3,0c-0.4,0-0.8-0.1-1-0.3c-0.2-0.2-0.3-0.6-0.3-1.1
			c0-0.2,0-0.4,0.1-0.7c0.1-0.2,0.2-0.4,0.3-0.6c0.1-0.2,0.3-0.3,0.5-0.4c0.2-0.1,0.4-0.2,0.7-0.2h1v-0.6h0.6V244.5z M342.1,245
			c0.3,0,0.6-0.1,0.7-0.2c0.2-0.1,0.3-0.3,0.3-0.5V243h-1c-0.3,0-0.6,0.1-0.7,0.3c-0.2,0.2-0.3,0.5-0.3,0.8c0,0.3,0.1,0.6,0.2,0.7
			C341.6,245,341.8,245,342.1,245z"/>
		<path class="st4" d="M346.3,245.4c-0.3-0.2-0.5-0.4-0.7-0.6c-0.2-0.2-0.3-0.5-0.3-0.8c0-0.2,0-0.4,0.1-0.6
			c0.1-0.2,0.2-0.3,0.3-0.5c0.1-0.1,0.3-0.3,0.5-0.3c0.2-0.1,0.4-0.1,0.7-0.1s0.5,0,0.6,0.1c0.2,0.1,0.3,0.2,0.5,0.3
			c0.1,0.1,0.2,0.3,0.3,0.5c0.1,0.2,0.1,0.4,0.1,0.5c0,0.6-0.3,1.1-0.8,1.5h1.6c0.1,0,0.2,0.1,0.2,0.3c0,0.2-0.1,0.3-0.2,0.3h-1
			c-0.3,0-0.5,0-0.7,0c-0.2,0-0.4-0.1-0.5-0.1c-0.1,0-0.2,0.1-0.3,0.1c-0.1,0-0.2,0-0.4,0c-0.1,0-0.3,0-0.4,0s-0.2,0-0.3,0h-1.1
			c-0.1,0-0.1,0-0.2-0.1c0,0,0-0.1,0-0.2c0-0.1,0-0.2,0-0.2c0-0.1,0.1-0.1,0.2-0.1H346.3z M346.9,243.1c-0.3,0-0.5,0.1-0.7,0.3
			c-0.2,0.2-0.3,0.4-0.3,0.7c0,0.2,0,0.3,0.1,0.4c0.1,0.1,0.1,0.2,0.2,0.3c0.1,0.1,0.2,0.2,0.3,0.3c0.1,0.1,0.2,0.1,0.4,0.2
			c0.1-0.1,0.2-0.1,0.3-0.2c0.1-0.1,0.2-0.2,0.3-0.3s0.2-0.2,0.2-0.3c0.1-0.1,0.1-0.3,0.1-0.4c0-0.3-0.1-0.6-0.3-0.7
			C347.5,243.2,347.2,243.1,346.9,243.1z M346.7,241.6H346v-0.6h0.7V241.6z M347.9,241.6h-0.7v-0.6h0.7V241.6z"/>
		<path class="st4" d="M350,245.4c0.3,0,0.4-0.1,0.6-0.2c0.1-0.1,0.2-0.3,0.2-0.5v-1.2h0.6v1.2c0,0.1,0,0.2,0.1,0.3
			c0,0.1,0.1,0.2,0.2,0.2c0.1,0.1,0.2,0.1,0.2,0.1c0.1,0,0.2,0,0.3,0h0.3c0.1,0,0.2,0.1,0.2,0.3c0,0.2-0.1,0.3-0.2,0.3h-0.3
			c-0.2,0-0.4,0-0.6-0.1c-0.2-0.1-0.3-0.2-0.5-0.5c-0.1,0.2-0.3,0.4-0.5,0.5c-0.2,0.1-0.4,0.1-0.6,0.1h-0.7c-0.1,0-0.1,0-0.2-0.1
			c0,0,0-0.1,0-0.2c0-0.1,0-0.2,0-0.2c0-0.1,0.1-0.1,0.2-0.1H350z M350.5,247.7h-0.7V247h0.7V247.7z M351.7,247.7H351V247h0.7V247.7
			z"/>
		<path class="st4" d="M353.9,245.4c0.2,0,0.3,0,0.4,0c0.1,0,0.2,0,0.4,0c-0.3-0.1-0.6-0.2-0.8-0.3c-0.2-0.1-0.3-0.2-0.4-0.4
			c-0.1-0.1-0.2-0.3-0.2-0.4c0-0.1,0-0.3,0-0.5c0-0.2,0-0.3,0.1-0.5c0.1-0.2,0.2-0.3,0.3-0.5c0.1-0.1,0.3-0.3,0.5-0.3
			c0.2-0.1,0.4-0.1,0.7-0.1c0.2,0,0.4,0,0.6,0.1c0.2,0.1,0.3,0.2,0.5,0.3c0.1,0.1,0.2,0.3,0.3,0.5c0.1,0.2,0.1,0.5,0.1,0.8v0.4
			c0,0.5-0.1,0.8-0.4,1.1c-0.3,0.3-0.7,0.4-1.3,0.4h-2.1c-0.1,0-0.1,0-0.2-0.1c0,0,0-0.1,0-0.2c0-0.1,0-0.2,0-0.2
			c0-0.1,0.1-0.1,0.2-0.1H353.9z M354.6,243c-0.1,0-0.3,0-0.4,0.1c-0.1,0.1-0.2,0.1-0.3,0.2c-0.1,0.1-0.1,0.2-0.2,0.3
			s-0.1,0.2-0.1,0.3c0,0.1,0,0.2,0,0.3s0.1,0.2,0.2,0.3c0.1,0.1,0.3,0.2,0.5,0.3c0.2,0.1,0.5,0.2,0.9,0.4c0.2-0.2,0.3-0.4,0.3-0.7
			v-0.3c0-0.4-0.1-0.7-0.2-0.9S355,243,354.6,243z M354.4,241.4h-0.7v-0.6h0.7V241.4z M355.6,241.4h-0.7v-0.6h0.7V241.4z"/>
		<path class="st4" d="M360.5,243.9c0.2,0.2,0.3,0.3,0.3,0.5s0.1,0.3,0.1,0.5c0,0.3-0.1,0.6-0.3,0.8c-0.2,0.2-0.6,0.3-1,0.3h-2.5
			l0-0.6h2.5c0.2,0,0.4-0.1,0.5-0.2c0.1-0.1,0.2-0.2,0.2-0.4c0-0.1,0-0.2-0.1-0.3c0-0.1-0.1-0.2-0.2-0.3l-1.7-1.9l0.5-0.4
			L360.5,243.9z"/>
		<path class="st4" d="M364.8,243.8c-0.2,0-0.3,0-0.4-0.1c-0.1-0.1-0.2-0.1-0.3-0.3c0,0.1,0,0.3,0,0.4s0,0.3,0,0.5v2.2h-0.6v-2.2
			c0-0.4,0-0.7,0-0.9c0-0.3-0.1-0.5-0.1-0.7c0-0.2-0.1-0.4-0.1-0.6c-0.1-0.2-0.1-0.4-0.2-0.6l0.6-0.2c0,0.1,0.1,0.3,0.1,0.4
			c0,0.1,0.1,0.2,0.1,0.3c0,0.1,0.1,0.2,0.1,0.3c0,0.1,0.1,0.2,0.1,0.3c0.1,0.2,0.2,0.4,0.3,0.5c0.1,0.1,0.3,0.2,0.5,0.2
			c0.2,0,0.4-0.1,0.5-0.2c0.1-0.1,0.2-0.3,0.2-0.5c0-0.1,0-0.3,0-0.5c0-0.2-0.1-0.4-0.1-0.7l0.6-0.1c0,0.2,0.1,0.4,0.1,0.7
			c0,0.2,0,0.4,0,0.6c0,0.2,0,0.4-0.1,0.5c-0.1,0.2-0.2,0.3-0.3,0.4c-0.1,0.1-0.2,0.2-0.4,0.3C365.2,243.8,365,243.8,364.8,243.8z"
			/>
		<path class="st4" d="M367,245.2c0-0.2,0-0.4,0.1-0.6c0.1-0.2,0.1-0.5,0.3-0.7c0.1-0.3,0.3-0.6,0.6-0.9c0.2-0.3,0.6-0.7,1-1.1
			l-0.4-0.4l0.4-0.4c0.6,0.5,1,0.9,1.4,1.3c0.4,0.4,0.6,0.7,0.8,1.1c0.2,0.3,0.3,0.6,0.4,0.9c0.1,0.3,0.1,0.5,0.1,0.8
			c0,0.3,0,0.5-0.1,0.7s-0.2,0.3-0.3,0.5c-0.1,0.1-0.3,0.2-0.4,0.3c-0.2,0.1-0.3,0.1-0.5,0.1c-0.2,0-0.4,0-0.6-0.1
			c-0.2-0.1-0.3-0.2-0.4-0.3c-0.1,0.1-0.3,0.3-0.4,0.3c-0.2,0.1-0.4,0.1-0.5,0.1c-0.4,0-0.7-0.1-0.9-0.4
			C367.1,246,367,245.7,367,245.2z M371,245.1c0-0.2,0-0.4-0.1-0.5s-0.1-0.4-0.3-0.6c-0.1-0.2-0.3-0.5-0.5-0.8
			c-0.2-0.3-0.5-0.6-0.9-0.9c-0.6,0.6-1,1.1-1.3,1.6c-0.3,0.5-0.4,0.9-0.4,1.3c0,0.3,0.1,0.5,0.2,0.6c0.1,0.1,0.3,0.2,0.6,0.2
			c0.1,0,0.2,0,0.3,0s0.2-0.1,0.3-0.1s0.1-0.1,0.2-0.2c0-0.1,0.1-0.2,0.1-0.4v-0.6h0.5v0.6c0,0.1,0,0.2,0,0.3c0,0.1,0,0.2-0.1,0.2
			c0.1,0.1,0.2,0.2,0.3,0.2c0.1,0.1,0.2,0.1,0.4,0.1c0.2,0,0.4-0.1,0.6-0.2C370.9,245.6,371,245.4,371,245.1z"/>
	</g>
	<g>
		<path class="st4" d="M163.5,237v-12h-9l0,12h1.5l3-3l3,3H163.5z M156,234.9l0-8.4h6v8.4l-3-3L156,234.9z"/>
		<rect x="150" y="222" class="st5" width="18" height="18"/>
	</g>
	<g>
		<path class="st4" d="M125.6,228.4l3.4,3.4l3.4-3.4l1.1,1.1L129,234l-4.5-4.5L125.6,228.4z"/>
		<rect x="120" y="222" transform="matrix(-1 -1.224647e-16 1.224647e-16 -1 258 462)" class="st5" width="18" height="18"/>
	</g>
	<rect x="108" y="287.8" class="st3" width="276" height="0.5"/>
	<g>
		<rect x="382" y="299.8" class="st3" width="2" height="0.5"/>
		<path class="st3" d="M379,300.3h-4v-0.5h4V300.3z M371.9,300.3h-4v-0.5h4V300.3z M364.8,300.3h-4v-0.5h4V300.3z M357.7,300.3h-4
			v-0.5h4V300.3z M350.7,300.3h-4v-0.5h4V300.3z M343.6,300.3h-4v-0.5h4V300.3z M336.5,300.3h-4v-0.5h4V300.3z M329.4,300.3h-4v-0.5
			h4V300.3z M322.3,300.3h-4v-0.5h4V300.3z M315.3,300.3h-4v-0.5h4V300.3z M308.2,300.3h-4v-0.5h4V300.3z M301.1,300.3h-4v-0.5h4
			V300.3z M294,300.3h-4v-0.5h4V300.3z M287,300.3h-4v-0.5h4V300.3z M279.9,300.3h-4v-0.5h4V300.3z M272.8,300.3h-4v-0.5h4V300.3z
			 M265.7,300.3h-4v-0.5h4V300.3z M258.6,300.3h-4v-0.5h4V300.3z M251.6,300.3h-4v-0.5h4V300.3z M244.5,300.3h-4v-0.5h4V300.3z
			 M237.4,300.3h-4v-0.5h4V300.3z M230.3,300.3h-4v-0.5h4V300.3z M223.2,300.3h-4v-0.5h4V300.3z M216.2,300.3h-4v-0.5h4V300.3z
			 M209.1,300.3h-4v-0.5h4V300.3z M202,300.3h-4v-0.5h4V300.3z M194.9,300.3h-4v-0.5h4V300.3z M187.9,300.3h-4v-0.5h4V300.3z
			 M180.8,300.3h-4v-0.5h4V300.3z M173.7,300.3h-4v-0.5h4V300.3z M166.6,300.3h-4v-0.5h4V300.3z M159.5,300.3h-4v-0.5h4V300.3z
			 M152.5,300.3h-4v-0.5h4V300.3z M145.4,300.3h-4v-0.5h4V300.3z M138.3,300.3h-4v-0.5h4V300.3z M131.2,300.3h-4v-0.5h4V300.3z
			 M124.2,300.3h-4v-0.5h4V300.3z M117.1,300.3h-4v-0.5h4V300.3z"/>
		<rect x="108" y="299.8" class="st3" width="2" height="0.5"/>
	</g>
	<g>
		<rect x="382" y="323.8" class="st3" width="2" height="0.5"/>
		<path class="st3" d="M379,324.3h-4v-0.5h4V324.3z M371.9,324.3h-4v-0.5h4V324.3z M364.8,324.3h-4v-0.5h4V324.3z M357.7,324.3h-4
			v-0.5h4V324.3z M350.7,324.3h-4v-0.5h4V324.3z M343.6,324.3h-4v-0.5h4V324.3z M336.5,324.3h-4v-0.5h4V324.3z M329.4,324.3h-4v-0.5
			h4V324.3z M322.3,324.3h-4v-0.5h4V324.3z M315.3,324.3h-4v-0.5h4V324.3z M308.2,324.3h-4v-0.5h4V324.3z M301.1,324.3h-4v-0.5h4
			V324.3z M294,324.3h-4v-0.5h4V324.3z M287,324.3h-4v-0.5h4V324.3z M279.9,324.3h-4v-0.5h4V324.3z M272.8,324.3h-4v-0.5h4V324.3z
			 M265.7,324.3h-4v-0.5h4V324.3z M258.6,324.3h-4v-0.5h4V324.3z M251.6,324.3h-4v-0.5h4V324.3z M244.5,324.3h-4v-0.5h4V324.3z
			 M237.4,324.3h-4v-0.5h4V324.3z M230.3,324.3h-4v-0.5h4V324.3z M223.2,324.3h-4v-0.5h4V324.3z M216.2,324.3h-4v-0.5h4V324.3z
			 M209.1,324.3h-4v-0.5h4V324.3z M202,324.3h-4v-0.5h4V324.3z M194.9,324.3h-4v-0.5h4V324.3z M187.9,324.3h-4v-0.5h4V324.3z
			 M180.8,324.3h-4v-0.5h4V324.3z M173.7,324.3h-4v-0.5h4V324.3z M166.6,324.3h-4v-0.5h4V324.3z M159.5,324.3h-4v-0.5h4V324.3z
			 M152.5,324.3h-4v-0.5h4V324.3z M145.4,324.3h-4v-0.5h4V324.3z M138.3,324.3h-4v-0.5h4V324.3z M131.2,324.3h-4v-0.5h4V324.3z
			 M124.2,324.3h-4v-0.5h4V324.3z M117.1,324.3h-4v-0.5h4V324.3z"/>
		<rect x="108" y="323.8" class="st3" width="2" height="0.5"/>
	</g>
	<g>
		<rect x="382" y="329.8" class="st3" width="2" height="0.5"/>
		<path class="st3" d="M379,330.3h-4v-0.5h4V330.3z M371.9,330.3h-4v-0.5h4V330.3z M364.8,330.3h-4v-0.5h4V330.3z M357.7,330.3h-4
			v-0.5h4V330.3z M350.7,330.3h-4v-0.5h4V330.3z M343.6,330.3h-4v-0.5h4V330.3z M336.5,330.3h-4v-0.5h4V330.3z M329.4,330.3h-4v-0.5
			h4V330.3z M322.3,330.3h-4v-0.5h4V330.3z M315.3,330.3h-4v-0.5h4V330.3z M308.2,330.3h-4v-0.5h4V330.3z M301.1,330.3h-4v-0.5h4
			V330.3z M294,330.3h-4v-0.5h4V330.3z M287,330.3h-4v-0.5h4V330.3z M279.9,330.3h-4v-0.5h4V330.3z M272.8,330.3h-4v-0.5h4V330.3z
			 M265.7,330.3h-4v-0.5h4V330.3z M258.6,330.3h-4v-0.5h4V330.3z M251.6,330.3h-4v-0.5h4V330.3z M244.5,330.3h-4v-0.5h4V330.3z
			 M237.4,330.3h-4v-0.5h4V330.3z M230.3,330.3h-4v-0.5h4V330.3z M223.2,330.3h-4v-0.5h4V330.3z M216.2,330.3h-4v-0.5h4V330.3z
			 M209.1,330.3h-4v-0.5h4V330.3z M202,330.3h-4v-0.5h4V330.3z M194.9,330.3h-4v-0.5h4V330.3z M187.9,330.3h-4v-0.5h4V330.3z
			 M180.8,330.3h-4v-0.5h4V330.3z M173.7,330.3h-4v-0.5h4V330.3z M166.6,330.3h-4v-0.5h4V330.3z M159.5,330.3h-4v-0.5h4V330.3z
			 M152.5,330.3h-4v-0.5h4V330.3z M145.4,330.3h-4v-0.5h4V330.3z M138.3,330.3h-4v-0.5h4V330.3z M131.2,330.3h-4v-0.5h4V330.3z
			 M124.2,330.3h-4v-0.5h4V330.3z M117.1,330.3h-4v-0.5h4V330.3z"/>
		<rect x="108" y="329.8" class="st3" width="2" height="0.5"/>
	</g>
	<g>
		<rect x="382" y="353.8" class="st3" width="2" height="0.5"/>
		<path class="st3" d="M379,354.3h-4v-0.5h4V354.3z M371.9,354.3h-4v-0.5h4V354.3z M364.8,354.3h-4v-0.5h4V354.3z M357.7,354.3h-4
			v-0.5h4V354.3z M350.7,354.3h-4v-0.5h4V354.3z M343.6,354.3h-4v-0.5h4V354.3z M336.5,354.3h-4v-0.5h4V354.3z M329.4,354.3h-4v-0.5
			h4V354.3z M322.3,354.3h-4v-0.5h4V354.3z M315.3,354.3h-4v-0.5h4V354.3z M308.2,354.3h-4v-0.5h4V354.3z M301.1,354.3h-4v-0.5h4
			V354.3z M294,354.3h-4v-0.5h4V354.3z M287,354.3h-4v-0.5h4V354.3z M279.9,354.3h-4v-0.5h4V354.3z M272.8,354.3h-4v-0.5h4V354.3z
			 M265.7,354.3h-4v-0.5h4V354.3z M258.6,354.3h-4v-0.5h4V354.3z M251.6,354.3h-4v-0.5h4V354.3z M244.5,354.3h-4v-0.5h4V354.3z
			 M237.4,354.3h-4v-0.5h4V354.3z M230.3,354.3h-4v-0.5h4V354.3z M223.2,354.3h-4v-0.5h4V354.3z M216.2,354.3h-4v-0.5h4V354.3z
			 M209.1,354.3h-4v-0.5h4V354.3z M202,354.3h-4v-0.5h4V354.3z M194.9,354.3h-4v-0.5h4V354.3z M187.9,354.3h-4v-0.5h4V354.3z
			 M180.8,354.3h-4v-0.5h4V354.3z M173.7,354.3h-4v-0.5h4V354.3z M166.6,354.3h-4v-0.5h4V354.3z M159.5,354.3h-4v-0.5h4V354.3z
			 M152.5,354.3h-4v-0.5h4V354.3z M145.4,354.3h-4v-0.5h4V354.3z M138.3,354.3h-4v-0.5h4V354.3z M131.2,354.3h-4v-0.5h4V354.3z
			 M124.2,354.3h-4v-0.5h4V354.3z M117.1,354.3h-4v-0.5h4V354.3z"/>
		<rect x="108" y="353.8" class="st3" width="2" height="0.5"/>
	</g>
	<path class="st2" d="M360,324.5h-36c-6.9,0-12.5-5.6-12.5-12.5s5.6-12.5,12.5-12.5h36c6.9,0,12.5,5.6,12.5,12.5
		S366.9,324.5,360,324.5z M324,300.5c-6.3,0-11.5,5.2-11.5,11.5s5.2,11.5,11.5,11.5h36c6.3,0,11.5-5.2,11.5-11.5
		s-5.2-11.5-11.5-11.5H324z"/>
	<g>
		<path class="st4" d="M324.6,316.9c0.3,0,0.6,0,0.9-0.1c0.3-0.1,0.5-0.2,0.7-0.3c0.2-0.1,0.3-0.3,0.5-0.5c0.1-0.2,0.2-0.4,0.2-0.6
			c0-0.2-0.1-0.4-0.2-0.5c-0.1-0.1-0.3-0.2-0.6-0.2H324v-1.9c0-0.6,0.2-1,0.5-1.4c0.3-0.3,0.8-0.5,1.3-0.5h1.3l0.1,0.8h-1.4
			c-0.1,0-0.3,0-0.4,0.1c-0.1,0-0.2,0.1-0.3,0.2c-0.1,0.1-0.2,0.2-0.2,0.3c-0.1,0.1-0.1,0.3-0.1,0.5v1.2h1.3c0.3,0,0.5,0,0.7,0.1
			s0.3,0.2,0.4,0.3c0.1,0.1,0.2,0.3,0.2,0.4c0,0.2,0.1,0.3,0.1,0.5c0,0.3-0.1,0.7-0.2,1c-0.1,0.3-0.3,0.6-0.6,0.8
			c-0.2,0.2-0.5,0.4-0.9,0.5c-0.3,0.1-0.7,0.2-1.1,0.2h-0.9c-0.8,0-1.5-0.3-1.9-0.8c-0.5-0.5-0.7-1.2-0.7-2.1v-1.9h0.7v1.9
			c0,0.3,0,0.6,0.1,0.9c0.1,0.3,0.2,0.5,0.4,0.7c0.2,0.2,0.4,0.3,0.6,0.4c0.2,0.1,0.5,0.2,0.9,0.2H324.6z"/>
		<path class="st4" d="M327.1,316.9h0.2c0.4,0,0.7-0.1,0.9-0.2c0.3-0.1,0.5-0.3,0.6-0.5c0.2-0.2,0.3-0.4,0.4-0.7
			c0.1-0.2,0.1-0.5,0.1-0.8v-3h0.7v3c0,0.4-0.1,0.8-0.2,1.2c-0.1,0.3-0.3,0.6-0.6,0.9c-0.2,0.2-0.5,0.4-0.8,0.6
			c-0.3,0.1-0.7,0.2-1,0.2h-0.3L327.1,316.9z"/>
		<path class="st4" d="M332.7,315c-0.2,0-0.4,0-0.5-0.1c-0.2-0.1-0.3-0.1-0.5-0.3c-0.1-0.1-0.2-0.3-0.3-0.5
			c-0.1-0.2-0.1-0.5-0.1-0.8v-5.1h0.7v5c0,0.3,0.1,0.6,0.2,0.8c0.1,0.2,0.4,0.3,0.7,0.3h0.2c0.2,0,0.2,0.1,0.2,0.4
			c0,0.3-0.1,0.4-0.2,0.4H332.7z"/>
		<path class="st4" d="M333.8,314.2c0.3,0,0.5-0.1,0.7-0.2c0.2-0.2,0.2-0.4,0.2-0.6v-1.5h0.7v1.5c0,0.2,0,0.3,0.1,0.4
			c0.1,0.1,0.1,0.2,0.2,0.3c0.1,0.1,0.2,0.1,0.3,0.1c0.1,0,0.2,0,0.3,0h0.3c0.2,0,0.3,0.1,0.3,0.4c0,0.3-0.1,0.4-0.3,0.4h-0.4
			c-0.3,0-0.5,0-0.7-0.1s-0.4-0.3-0.6-0.6c-0.2,0.3-0.4,0.5-0.6,0.6c-0.2,0.1-0.4,0.1-0.7,0.1H333c-0.1,0-0.2,0-0.2-0.1
			c0-0.1,0-0.2,0-0.3c0-0.1,0-0.2,0-0.3c0-0.1,0.1-0.1,0.2-0.1H333.8z M335.3,317.1h-0.9v-0.8h0.9V317.1z"/>
		<path class="st4" d="M337.8,314.2c0.3,0,0.5-0.1,0.7-0.2c0.2-0.2,0.3-0.4,0.3-0.6v-1.5h0.7v1.5c0,0.5-0.1,0.9-0.4,1.2
			c-0.3,0.3-0.7,0.4-1.2,0.4h-1c-0.1,0-0.2,0-0.2-0.1c0-0.1,0-0.2,0-0.3c0-0.1,0-0.2,0-0.3c0-0.1,0.1-0.1,0.2-0.1H337.8z
			 M339.1,310.4h-0.9v-0.8h0.9V310.4z"/>
		<path class="st4" d="M340.5,308.2h0.7v6.8h-0.7V308.2z"/>
	</g>
	<g>
		<path class="st4" d="M363.7,309v6l-6.8,3.8l-6.8-3.8v-6l6.8-3.8L363.7,309z M355.5,307.8l4.5,2.5l1.5-0.8L357,307L355.5,307.8z
			 M356.2,313.2l-4.5-2.5v3.4l4.5,2.5V313.2z M357,311.9l1.5-0.8l-4.5-2.5l-1.5,0.8L357,311.9z M362.2,310.7l-1.5,0.8v1.5l-1.5,0.8
			v-1.5l-1.5,0.8v3.4l4.5-2.5V310.7z"/>
		<rect x="348" y="303" class="st5" width="18" height="18"/>
	</g>
	<path class="st2" d="M360,354.5h-45c-6.9,0-12.5-5.6-12.5-12.5s5.6-12.5,12.5-12.5h45c6.9,0,12.5,5.6,12.5,12.5
		S366.9,354.5,360,354.5z M315,330.5c-6.3,0-11.5,5.2-11.5,11.5s5.2,11.5,11.5,11.5h45c6.3,0,11.5-5.2,11.5-11.5
		s-5.2-11.5-11.5-11.5H315z"/>
	<g>
		<path class="st4" d="M315.6,340.2v-0.8l3.7-1.4l0.2,0.7l-3.1,1.2l2,2c0.4,0.4,0.7,0.7,1,0.9c0.3,0.3,0.5,0.5,0.7,0.6
			c0.2,0.2,0.4,0.3,0.5,0.4c0.1,0.1,0.3,0.2,0.4,0.2c0.1,0,0.2,0.1,0.3,0.1c0.1,0,0.2,0,0.3,0c0.1,0,0.2,0,0.2,0.1
			c0,0.1,0,0.2,0,0.3c0,0.1,0,0.2,0,0.3c0,0.1-0.1,0.1-0.2,0.1c-0.2,0-0.4,0-0.6-0.1c-0.2,0-0.3-0.1-0.5-0.2
			c-0.2-0.1-0.4-0.2-0.6-0.4c-0.2-0.2-0.5-0.4-0.7-0.7c0,0.2,0,0.4-0.1,0.6c-0.1,0.2-0.2,0.3-0.3,0.4c-0.1,0.1-0.3,0.2-0.5,0.2
			c-0.2,0.1-0.4,0.1-0.6,0.1h-4.2c-0.3,0-0.6,0-0.8-0.1c-0.2-0.1-0.4-0.2-0.5-0.4c-0.1-0.2-0.2-0.3-0.3-0.5
			c-0.1-0.2-0.1-0.4-0.1-0.6v-1.5h0.7v1.3c0,0.3,0.1,0.6,0.3,0.8c0.2,0.2,0.5,0.3,0.9,0.3h4c0.3,0,0.6-0.1,0.7-0.2
			c0.1-0.1,0.2-0.3,0.2-0.5c0-0.1,0-0.3-0.1-0.4s-0.2-0.3-0.4-0.5L315.6,340.2z M315.6,337.9l3.3-1.3l0.1,0.5l-3.4,1.4L315.6,337.9z
			"/>
		<path class="st4" d="M322.3,344.2c0.3,0,0.5-0.1,0.7-0.2c0.2-0.2,0.2-0.4,0.2-0.6v-1.5h0.7v1.5c0,0.2,0,0.3,0.1,0.4
			c0.1,0.1,0.1,0.2,0.2,0.3c0.1,0.1,0.2,0.1,0.3,0.1c0.1,0,0.2,0,0.3,0h0.3c0.2,0,0.3,0.1,0.3,0.4c0,0.3-0.1,0.4-0.3,0.4h-0.4
			c-0.3,0-0.5,0-0.7-0.1s-0.4-0.3-0.6-0.6c-0.2,0.3-0.4,0.5-0.6,0.6c-0.2,0.1-0.4,0.1-0.7,0.1h-0.8c-0.1,0-0.2,0-0.2-0.1
			c0-0.1,0-0.2,0-0.3c0-0.1,0-0.2,0-0.3c0-0.1,0.1-0.1,0.2-0.1H322.3z M324,340.4h-0.9v-0.8h0.9V340.4z"/>
		<path class="st4" d="M326.1,344.2c0.3,0,0.5-0.1,0.7-0.2c0.2-0.2,0.2-0.4,0.2-0.6v-1.5h0.7v1.5c0,0.2,0,0.3,0.1,0.4
			c0.1,0.1,0.1,0.2,0.2,0.3c0.1,0.1,0.2,0.1,0.3,0.1c0.1,0,0.2,0,0.3,0h0.3c0.2,0,0.3,0.1,0.3,0.4c0,0.3-0.1,0.4-0.3,0.4h-0.4
			c-0.3,0-0.5,0-0.7-0.1s-0.4-0.3-0.6-0.6c-0.2,0.3-0.4,0.5-0.6,0.6c-0.2,0.1-0.4,0.1-0.7,0.1h-0.8c-0.1,0-0.2,0-0.2-0.1
			c0-0.1,0-0.2,0-0.3c0-0.1,0-0.2,0-0.3c0-0.1,0.1-0.1,0.2-0.1H326.1z M326.8,347.1h-0.8v-0.8h0.8V347.1z M328.2,347.1h-0.8v-0.8
			h0.8V347.1z"/>
		<path class="st4" d="M331.9,344.2c0.3,0,0.6-0.1,0.7-0.2c0.1-0.1,0.2-0.3,0.2-0.5c0-0.1,0-0.3-0.1-0.4s-0.2-0.3-0.4-0.5l-2.4-2.4
			v-0.8l3.6-1.4l0.2,0.7l-3.1,1.2l2,2c0.2,0.2,0.3,0.3,0.4,0.5c0.1,0.1,0.2,0.3,0.3,0.4c0.1,0.1,0.1,0.3,0.1,0.4c0,0.1,0,0.3,0,0.4
			c0,0.2,0,0.4-0.1,0.6c-0.1,0.2-0.2,0.3-0.3,0.4s-0.3,0.2-0.5,0.2c-0.2,0.1-0.4,0.1-0.6,0.1h-3c-0.1,0-0.2,0-0.2-0.1
			c0-0.1,0-0.2,0-0.3c0-0.1,0-0.2,0-0.3c0-0.1,0.1-0.1,0.2-0.1H331.9z"/>
		<path class="st4" d="M335.6,346c-0.1,0.3-0.3,0.6-0.6,0.9c-0.2,0.2-0.5,0.4-0.8,0.6c-0.3,0.1-0.7,0.2-1,0.2h-0.6l-0.1-0.7h0.5
			c0.4,0,0.7-0.1,0.9-0.2c0.3-0.1,0.5-0.3,0.6-0.5c0.2-0.2,0.3-0.4,0.4-0.7c0.1-0.2,0.1-0.5,0.1-0.8v-3h0.7v3
			C335.8,345.2,335.7,345.6,335.6,346z"/>
		<path class="st4" d="M338.4,345c-0.2,0-0.4,0-0.5-0.1c-0.2-0.1-0.3-0.1-0.5-0.3c-0.1-0.1-0.2-0.3-0.3-0.5
			c-0.1-0.2-0.1-0.5-0.1-0.8v-5.1h0.7v5c0,0.3,0.1,0.6,0.2,0.8c0.1,0.2,0.4,0.3,0.7,0.3h0.2c0.2,0,0.2,0.1,0.2,0.4
			c0,0.3-0.1,0.4-0.2,0.4H338.4z"/>
		<path class="st4" d="M339.7,344.2c0.3,0,0.5-0.1,0.7-0.2c0.2-0.2,0.3-0.4,0.3-0.6v-1.5h0.7v1.5c0,0.5-0.1,0.9-0.4,1.2
			c-0.3,0.3-0.7,0.4-1.2,0.4h-1c-0.1,0-0.2,0-0.2-0.1c0-0.1,0-0.2,0-0.3c0-0.1,0-0.2,0-0.3c0-0.1,0.1-0.1,0.2-0.1H339.7z
			 M339.7,347.1h-0.9v-0.8h0.9V347.1z M340.4,348.4h-0.9v-0.8h0.9V348.4z M341.1,347.1h-0.9v-0.8h0.9V347.1z"/>
	</g>
	<g>
		<path class="st4" d="M364.6,335.3v13.5h-1.5v-12h-13.5v-1.5H364.6z M360.9,340.5h1.4v1.5h-0.7v4.5v0.8v1.5h-1.5v-1.5h-8.3v1.5
			h-1.5v-1.5v-0.8V342h-0.8v-1.5h1.4l1.1-2.3h7.7L360.9,340.5z M351.9,342h8.1l-1.1-2.3h-5.8L351.9,342z M351.8,345.7h8.3v-2.3h-0.8
			v1.5h-1.5v-1.5h-3.8v1.5h-1.5v-1.5h-0.8V345.7z"/>
		<rect x="348.1" y="333" class="st5" width="18" height="18"/>
	</g>
	<path class="st2" d="M228,324.5h-66c-6.9,0-12.5-5.6-12.5-12.5s5.6-12.5,12.5-12.5h66c6.9,0,12.5,5.6,12.5,12.5
		S234.9,324.5,228,324.5z M162,300.5c-6.3,0-11.5,5.2-11.5,11.5s5.2,11.5,11.5,11.5h66c6.3,0,11.5-5.2,11.5-11.5
		s-5.2-11.5-11.5-11.5H162z"/>
	<g>
		<path class="st4" d="M162.2,316.9c0.4,0,0.7,0,0.9-0.1c0.3-0.1,0.5-0.2,0.6-0.3s0.3-0.3,0.3-0.4c0.1-0.2,0.1-0.3,0.1-0.5
			c0-0.2,0-0.3-0.1-0.5c-0.1-0.1-0.2-0.2-0.5-0.2h-1.8l0.1-0.8h3.9c0.2,0,0.2,0.1,0.2,0.4c0,0.3-0.1,0.4-0.2,0.4h-1.1
			c0.1,0.1,0.2,0.2,0.2,0.3c0,0.1,0,0.2,0,0.4c0,0.2,0,0.4-0.1,0.6c-0.1,0.2-0.2,0.4-0.4,0.6c-0.2,0.2-0.5,0.4-0.8,0.5
			c-0.3,0.1-0.7,0.2-1.2,0.2h-1.1c-0.8,0-1.5-0.3-1.9-0.8c-0.5-0.5-0.7-1.2-0.7-2.1v-1.9h0.7v1.9c0,0.3,0,0.6,0.1,0.9
			c0.1,0.3,0.2,0.5,0.4,0.7s0.4,0.3,0.6,0.4c0.2,0.1,0.5,0.2,0.9,0.2H162.2z"/>
		<path class="st4" d="M168.7,314.2c0.3,0,0.6-0.1,0.7-0.2c0.1-0.1,0.2-0.3,0.2-0.5c0-0.1,0-0.3-0.1-0.4s-0.2-0.3-0.4-0.5l-2.4-2.4
			v-0.8l3.6-1.4l0.2,0.7l-3.1,1.2l2,2c0.4,0.4,0.7,0.7,1,0.9c0.3,0.3,0.5,0.5,0.7,0.6s0.4,0.3,0.5,0.4c0.1,0.1,0.3,0.2,0.4,0.2
			c0.1,0,0.2,0.1,0.3,0.1c0.1,0,0.2,0,0.3,0c0.2,0,0.2,0.1,0.2,0.4c0,0.3-0.1,0.4-0.2,0.4c-0.2,0-0.4,0-0.6-0.1
			c-0.2,0-0.3-0.1-0.5-0.2c-0.2-0.1-0.4-0.2-0.6-0.4s-0.5-0.4-0.7-0.7c0,0.2,0,0.4-0.1,0.6c-0.1,0.2-0.2,0.3-0.3,0.4
			c-0.1,0.1-0.3,0.2-0.5,0.2c-0.2,0.1-0.4,0.1-0.6,0.1h-3c-0.1,0-0.2,0-0.2-0.1c0-0.1,0-0.2,0-0.3c0-0.1,0-0.2,0-0.3
			c0-0.1,0.1-0.1,0.2-0.1H168.7z M166.7,307.9l3.3-1.3l0.1,0.5l-3.4,1.4L166.7,307.9z"/>
		<path class="st4" d="M173.5,314.2c0.3,0,0.5-0.1,0.7-0.2c0.2-0.2,0.3-0.4,0.3-0.6v-1.5h0.7v1.5c0,0.5-0.1,0.9-0.4,1.2
			c-0.3,0.3-0.7,0.4-1.2,0.4h-1c-0.1,0-0.2,0-0.2-0.1c0-0.1,0-0.2,0-0.3c0-0.1,0-0.2,0-0.3c0-0.1,0.1-0.1,0.2-0.1H173.5z
			 M174.9,310.4H174v-0.8h0.9V310.4z"/>
		<path class="st4" d="M178,315c-0.2,0-0.4,0-0.5-0.1s-0.3-0.1-0.5-0.3s-0.2-0.3-0.3-0.5s-0.1-0.5-0.1-0.8v-5.1h0.7v5
			c0,0.3,0.1,0.6,0.2,0.8s0.4,0.3,0.7,0.3h0.2c0.2,0,0.2,0.1,0.2,0.4c0,0.3-0.1,0.4-0.2,0.4H178z"/>
		<path class="st4" d="M181.4,314.4c-0.2,0.1-0.4,0.2-0.5,0.3c-0.2,0.1-0.4,0.2-0.6,0.2c-0.2,0.1-0.4,0.1-0.7,0.1
			c-0.2,0-0.5,0-0.8,0h-0.5c-0.1,0-0.2,0-0.2-0.1c0-0.1,0-0.2,0-0.3c0-0.1,0-0.2,0-0.3c0-0.1,0.1-0.1,0.2-0.1h0.5c0.3,0,0.5,0,0.8,0
			c0.2,0,0.4,0,0.6-0.1s0.4-0.1,0.5-0.2c0.2-0.1,0.3-0.2,0.5-0.3l1.9-1.1c-0.1-0.2-0.1-0.3-0.2-0.4c-0.1-0.1-0.1-0.2-0.2-0.3
			c-0.1-0.1-0.2-0.2-0.4-0.2c-0.1,0-0.3-0.1-0.6-0.1h-2.5l0.1-0.8h2.5c0.2,0,0.4,0,0.6,0.1c0.2,0,0.4,0.1,0.6,0.3s0.3,0.4,0.5,0.6
			c0.2,0.3,0.3,0.6,0.4,1.1L181.4,314.4z M181.5,309.6h-0.9v-0.8h0.9V309.6z"/>
		<path class="st4" d="M192,314.8c0,0.4-0.1,0.8-0.2,1.1c-0.1,0.3-0.3,0.7-0.5,0.9c-0.2,0.3-0.5,0.5-0.9,0.6s-0.7,0.2-1.1,0.2h-0.6
			c-0.8,0-1.5-0.3-1.9-0.8c-0.5-0.5-0.7-1.2-0.7-2.1v-1.9h0.7v1.9c0,0.3,0,0.6,0.1,0.9c0.1,0.3,0.2,0.5,0.4,0.7s0.4,0.3,0.6,0.4
			c0.2,0.1,0.5,0.2,0.9,0.2h0.5c0.3,0,0.6-0.1,0.9-0.2c0.3-0.1,0.5-0.3,0.6-0.5c0.2-0.2,0.3-0.4,0.4-0.7c0.1-0.3,0.1-0.5,0.1-0.8v-3
			h0.7V314.8z M189.4,311.6h-0.9v-0.8h0.9V311.6z"/>
		<path class="st4" d="M193.3,308.2h0.7v6.8h-0.7V308.2z"/>
		<path class="st4" d="M196.3,316.9c0.3,0,0.6-0.1,0.9-0.2c0.2-0.1,0.5-0.2,0.6-0.4c0.2-0.2,0.3-0.4,0.4-0.6s0.1-0.5,0.2-0.7h-1.1
			c-0.4,0-0.7,0-0.9-0.1c-0.2-0.1-0.4-0.2-0.6-0.4c-0.1-0.2-0.2-0.3-0.3-0.6s-0.1-0.5-0.1-0.7c0-0.3,0-0.5,0.1-0.8
			c0.1-0.2,0.2-0.5,0.4-0.7c0.2-0.2,0.3-0.3,0.6-0.5c0.2-0.1,0.5-0.2,0.8-0.2c0.2,0,0.5,0,0.7,0.1c0.2,0.1,0.4,0.2,0.6,0.4
			c0.2,0.2,0.3,0.4,0.4,0.7c0.1,0.3,0.1,0.6,0.1,1v0.9h1.1c0.1,0,0.1,0,0.2,0.1s0,0.2,0,0.3c0,0.1,0,0.2,0,0.3s-0.1,0.1-0.2,0.1H199
			c0,0.4-0.1,0.7-0.2,1c-0.1,0.3-0.3,0.6-0.5,0.8s-0.5,0.4-0.8,0.6c-0.3,0.1-0.7,0.2-1.1,0.2h-1.2l-0.1-0.7H196.3z M196.1,313.2
			c0,0.2,0,0.3,0.1,0.5s0.1,0.2,0.2,0.3c0.1,0.1,0.2,0.1,0.4,0.2c0.2,0,0.4,0.1,0.6,0.1h1v-0.8c0-0.5-0.1-0.9-0.3-1.2
			c-0.2-0.2-0.5-0.4-0.9-0.4c-0.4,0-0.6,0.1-0.8,0.4C196.2,312.5,196.1,312.8,196.1,313.2z"/>
		<path class="st4" d="M201,314.2c0.3,0,0.5-0.1,0.7-0.2c0.2-0.2,0.2-0.4,0.2-0.6v-1.5h0.7v1.5c0,0.2,0,0.3,0.1,0.4
			c0.1,0.1,0.1,0.2,0.2,0.3c0.1,0.1,0.2,0.1,0.3,0.1c0.1,0,0.2,0,0.3,0h0.3c0.2,0,0.3,0.1,0.3,0.4c0,0.3-0.1,0.4-0.3,0.4h-0.4
			c-0.3,0-0.5,0-0.7-0.1c-0.2-0.1-0.4-0.3-0.6-0.6c-0.2,0.3-0.4,0.5-0.6,0.6c-0.2,0.1-0.4,0.1-0.7,0.1h-0.8c-0.1,0-0.2,0-0.2-0.1
			c0-0.1,0-0.2,0-0.3c0-0.1,0-0.2,0-0.3c0-0.1,0.1-0.1,0.2-0.1H201z M201.7,317.1h-0.8v-0.8h0.8V317.1z M203.1,317.1h-0.8v-0.8h0.8
			V317.1z"/>
		<path class="st4" d="M207.1,314.4c-0.2,0.1-0.4,0.2-0.5,0.3c-0.2,0.1-0.4,0.2-0.6,0.2c-0.2,0.1-0.4,0.1-0.7,0.1
			c-0.2,0-0.5,0-0.8,0h-0.5c-0.1,0-0.2,0-0.2-0.1c0-0.1,0-0.2,0-0.3c0-0.1,0-0.2,0-0.3c0-0.1,0.1-0.1,0.2-0.1h0.5c0.3,0,0.5,0,0.8,0
			c0.2,0,0.4,0,0.6-0.1s0.4-0.1,0.5-0.2c0.2-0.1,0.3-0.2,0.5-0.3l1.9-1.1c-0.1-0.2-0.1-0.3-0.2-0.4c-0.1-0.1-0.1-0.2-0.2-0.3
			c-0.1-0.1-0.2-0.2-0.4-0.2c-0.1,0-0.3-0.1-0.6-0.1h-2.5l0.1-0.8h2.5c0.2,0,0.4,0,0.6,0.1c0.2,0,0.4,0.1,0.6,0.3s0.3,0.4,0.5,0.6
			c0.2,0.3,0.3,0.6,0.4,1.1L207.1,314.4z"/>
	</g>
	<path class="st4" d="M230.3,306l-1.1-1.1l-1.2,1.2l-0.5,0.5l-3.1,3.1h-5.1l-1.3-1.3l-1.1,1.1l1.3,1.3v3.4l-0.8,0.8v3h1.5v-2.4
		l0.6-0.6h6.1v3h1.5v-3v-0.8v-0.9l0.8-0.8l0.9,0.9h2l2.3-2.3l-4.1-4.1L230.3,306z M230.3,312h-0.8l-1.5-1.5l-2.3,2.3v0.8h-6v-2.3
		h5.3l3-3l3,3L230.3,312z"/>
	<rect x="216" y="303" class="st5" width="18" height="18"/>
	<path class="st2" d="M294,324.5h-36c-6.9,0-12.5-5.6-12.5-12.5s5.6-12.5,12.5-12.5h36c6.9,0,12.5,5.6,12.5,12.5
		S300.9,324.5,294,324.5z M258,300.5c-6.3,0-11.5,5.2-11.5,11.5s5.2,11.5,11.5,11.5h36c6.3,0,11.5-5.2,11.5-11.5
		s-5.2-11.5-11.5-11.5H258z"/>
	<g>
		<path class="st4" d="M261.7,315c-0.2,0-0.4,0-0.5-0.1c-0.2-0.1-0.3-0.2-0.4-0.3v0.2c0,0.4-0.1,0.8-0.2,1.1
			c-0.1,0.3-0.3,0.6-0.5,0.9c-0.2,0.3-0.5,0.5-0.8,0.6c-0.3,0.2-0.7,0.2-1.1,0.2h-0.6c-0.8,0-1.5-0.3-1.9-0.8
			c-0.5-0.5-0.7-1.2-0.7-2.1v-1.9h0.7v1.9c0,0.3,0,0.6,0.1,0.9c0.1,0.3,0.2,0.5,0.4,0.7c0.2,0.2,0.4,0.3,0.6,0.4
			c0.2,0.1,0.5,0.2,0.9,0.2h0.5c0.3,0,0.6-0.1,0.9-0.2c0.3-0.1,0.5-0.3,0.6-0.5c0.2-0.2,0.3-0.4,0.4-0.7c0.1-0.3,0.1-0.5,0.1-0.8v-3
			h0.7v1.6c0,0.3,0.1,0.5,0.3,0.6c0.2,0.2,0.4,0.2,0.7,0.2h0.1c0.2,0,0.2,0.1,0.2,0.4c0,0.3-0.1,0.4-0.2,0.4H261.7z M258.1,311.6
			h-0.9v-0.8h0.9V311.6z"/>
		<path class="st4" d="M264.7,314.2c0.3,0,0.6-0.1,0.7-0.2c0.1-0.1,0.2-0.3,0.2-0.5c0-0.1,0-0.3-0.1-0.4s-0.2-0.3-0.4-0.5l-2.4-2.4
			v-0.8l3.6-1.4l0.2,0.7l-3.1,1.2l2,2c0.4,0.4,0.7,0.7,1,0.9s0.5,0.5,0.7,0.6c0.2,0.2,0.4,0.3,0.5,0.4c0.1,0.1,0.3,0.2,0.4,0.2
			c0.1,0,0.2,0.1,0.3,0.1c0.1,0,0.2,0,0.3,0c0.2,0,0.2,0.1,0.2,0.4c0,0.3-0.1,0.4-0.2,0.4c-0.2,0-0.4,0-0.6-0.1
			c-0.2,0-0.3-0.1-0.5-0.2c-0.2-0.1-0.4-0.2-0.6-0.4s-0.5-0.4-0.7-0.7c0,0.2,0,0.4-0.1,0.6c-0.1,0.2-0.2,0.3-0.3,0.4
			c-0.1,0.1-0.3,0.2-0.5,0.2c-0.2,0.1-0.4,0.1-0.6,0.1h-3c-0.1,0-0.2,0-0.2-0.1c0-0.1,0-0.2,0-0.3c0-0.1,0-0.2,0-0.3
			c0-0.1,0.1-0.1,0.2-0.1H264.7z"/>
		<path class="st4" d="M268.9,314.2c0.3,0,0.5-0.1,0.7-0.2c0.2-0.2,0.3-0.4,0.3-0.6v-5.2h0.7v5.2c0,0.5-0.1,0.9-0.4,1.2
			c-0.3,0.3-0.7,0.4-1.2,0.4h-0.3c-0.1,0-0.2,0-0.2-0.1c0-0.1,0-0.2,0-0.3c0-0.1,0-0.2,0-0.3c0-0.1,0.1-0.1,0.2-0.1H268.9z"/>
		<path class="st4" d="M272.4,315c-0.2,0-0.4,0-0.5-0.1c-0.2-0.1-0.3-0.1-0.5-0.3c-0.1-0.1-0.2-0.3-0.3-0.5
			c-0.1-0.2-0.1-0.5-0.1-0.8v-5.1h0.7v5c0,0.3,0.1,0.6,0.2,0.8c0.1,0.2,0.4,0.3,0.7,0.3h0.2c0.2,0,0.2,0.1,0.2,0.4
			c0,0.3-0.1,0.4-0.2,0.4H272.4z"/>
		<path class="st4" d="M273.7,314.2c0.3,0,0.5-0.1,0.7-0.2c0.2-0.2,0.3-0.4,0.3-0.6v-1.5h0.7v1.5c0,0.5-0.1,0.9-0.4,1.2
			c-0.3,0.3-0.7,0.4-1.2,0.4h-1c-0.1,0-0.2,0-0.2-0.1c0-0.1,0-0.2,0-0.3c0-0.1,0-0.2,0-0.3c0-0.1,0.1-0.1,0.2-0.1H273.7z
			 M274.2,317.1h-0.9v-0.8h0.9V317.1z"/>
	</g>
	<path class="st4" d="M295.5,304.5h-9v9H285v1.5h0.8v3H285v1.5h12V318h-0.8v-3h0.8v-1.5h-1.5V304.5z M294,313.5h-2.3V312h0.8v-1.5
		h-0.8V306h2.3V313.5z M291.7,315v3h-1.5v-3H291.7z M288,306h2.3v7.5H288V306z M287.2,315h1.5v3h-1.5V315z M293.2,318v-3h1.5v3
		H293.2z"/>
	<rect x="282" y="303" class="st5" width="18" height="18"/>
	<path class="st2" d="M285,354.5h-66c-6.9,0-12.5-5.6-12.5-12.5s5.6-12.5,12.5-12.5h66c6.9,0,12.5,5.6,12.5,12.5
		S291.9,354.5,285,354.5z M219,330.5c-6.3,0-11.5,5.2-11.5,11.5s5.2,11.5,11.5,11.5h66c6.3,0,11.5-5.2,11.5-11.5
		s-5.2-11.5-11.5-11.5H219z"/>
	<g>
		<path class="st4" d="M220.7,342.4c0.2,0.2,0.3,0.4,0.4,0.6s0.1,0.4,0.1,0.6c0,0.4-0.1,0.7-0.4,1c-0.3,0.3-0.7,0.4-1.2,0.4h-3.1
			l-0.1-0.8h3c0.3,0,0.5-0.1,0.7-0.2c0.2-0.1,0.2-0.3,0.2-0.5c0-0.1,0-0.2-0.1-0.3c-0.1-0.1-0.1-0.2-0.2-0.4l-2-2.3l0.6-0.5
			L220.7,342.4z"/>
		<path class="st4" d="M223.7,344.8c0,0.4-0.1,0.8-0.2,1.2c-0.1,0.3-0.3,0.6-0.5,0.9c-0.2,0.2-0.5,0.4-0.8,0.6
			c-0.3,0.1-0.7,0.2-1,0.2h-0.6l-0.1-0.7h0.5c0.4,0,0.7-0.1,0.9-0.2c0.3-0.1,0.5-0.3,0.6-0.5c0.2-0.2,0.3-0.4,0.4-0.7
			c0.1-0.2,0.1-0.5,0.1-0.8v-3h0.7v1.6c0,0.3,0.1,0.5,0.3,0.6c0.2,0.2,0.4,0.2,0.7,0.2h0.1c0.2,0,0.2,0.1,0.2,0.4
			c0,0.3-0.1,0.4-0.2,0.4h-0.1c-0.2,0-0.4,0-0.5-0.1c-0.2-0.1-0.3-0.2-0.4-0.3V344.8z"/>
		<path class="st4" d="M229.5,343.4c0.1,0.3,0.3,0.5,0.4,0.6c0.2,0.1,0.4,0.2,0.6,0.2h0.7c0.1,0,0.2,0,0.2,0.1c0,0.1,0,0.2,0,0.3
			c0,0.1,0,0.2,0,0.3c0,0.1-0.1,0.1-0.2,0.1h-0.8c-0.2,0-0.4,0-0.6-0.1s-0.3-0.2-0.4-0.3c-0.1-0.1-0.2-0.2-0.3-0.4
			c-0.1-0.2-0.1-0.3-0.2-0.5l-1.1,0.6c-0.2,0.1-0.4,0.2-0.5,0.3c-0.2,0.1-0.4,0.2-0.6,0.2c-0.2,0.1-0.4,0.1-0.7,0.1
			c-0.2,0-0.5,0-0.8,0h-0.5c-0.1,0-0.2,0-0.2-0.1c0-0.1,0-0.2,0-0.3c0-0.1,0-0.2,0-0.3c0-0.1,0.1-0.1,0.2-0.1h0.5c0.3,0,0.5,0,0.8,0
			c0.2,0,0.4,0,0.6-0.1c0.2,0,0.4-0.1,0.5-0.2c0.2-0.1,0.3-0.2,0.5-0.3l1.9-1.1c-0.1-0.2-0.1-0.3-0.2-0.4c-0.1-0.1-0.1-0.2-0.2-0.3
			s-0.2-0.2-0.4-0.2c-0.1,0-0.3-0.1-0.6-0.1h-2.5l0.1-0.8h2.5c0.2,0,0.4,0,0.6,0.1c0.2,0,0.4,0.1,0.6,0.3c0.2,0.1,0.3,0.4,0.5,0.6
			c0.2,0.3,0.3,0.6,0.4,1.1L229.5,343.4z M227.9,347.1H227v-0.8h0.9V347.1z"/>
		<path class="st4" d="M231.5,344.2c0.3,0,0.5-0.1,0.6-0.2c0.1-0.1,0.2-0.3,0.2-0.6v-0.4c0-0.6,0.2-1.1,0.5-1.5
			c0.3-0.4,0.8-0.5,1.4-0.5c0.3,0,0.6,0,0.8,0.1c0.2,0.1,0.4,0.2,0.6,0.4c0.1,0.2,0.3,0.4,0.3,0.6c0.1,0.2,0.1,0.5,0.1,0.8
			c0,0.6-0.2,1.1-0.5,1.5c-0.3,0.4-0.8,0.5-1.4,0.5c-0.3,0-0.6-0.1-0.8-0.2c-0.3-0.1-0.5-0.3-0.6-0.6c-0.1,0.2-0.1,0.3-0.2,0.4
			c-0.1,0.1-0.2,0.2-0.3,0.2c-0.1,0.1-0.2,0.1-0.3,0.1c-0.1,0-0.2,0-0.3,0h-0.2c-0.1,0-0.2,0-0.2-0.1c0-0.1,0-0.2,0-0.3
			c0-0.1,0-0.2,0-0.3c0-0.1,0.1-0.1,0.2-0.1H231.5z M235.3,343.1c0-0.4-0.1-0.7-0.3-0.9c-0.2-0.2-0.5-0.4-0.9-0.4
			c-0.8,0-1.1,0.4-1.1,1.3c0,0.4,0.1,0.7,0.3,0.8c0.2,0.2,0.5,0.3,0.8,0.3c0.4,0,0.7-0.1,0.9-0.3
			C235.2,343.7,235.3,343.4,235.3,343.1z"/>
		<path class="st4" d="M242.6,343.2c0,0.3,0.1,0.6,0.2,0.8s0.4,0.3,0.7,0.3h0.2c0.1,0,0.1,0,0.2,0.1c0,0.1,0,0.2,0,0.3
			c0,0.1,0,0.2,0,0.3c0,0.1-0.1,0.1-0.2,0.1h-0.2c-0.3,0-0.6-0.1-0.9-0.2c-0.2-0.1-0.4-0.4-0.5-0.8c-0.1,0.1-0.2,0.2-0.3,0.3
			c-0.1,0.1-0.3,0.1-0.4,0.2c-0.1,0-0.3,0.1-0.4,0.1c-0.1,0-0.3,0-0.4,0c-0.5,0-0.9-0.1-1.2-0.4c-0.3-0.3-0.4-0.7-0.4-1.3
			c0-0.3,0-0.5,0.1-0.8c0.1-0.3,0.2-0.5,0.3-0.7c0.2-0.2,0.3-0.4,0.6-0.5c0.2-0.1,0.5-0.2,0.8-0.2h1.2v-0.8h0.7V343.2z M240.7,343.8
			c0.4,0,0.7-0.1,0.9-0.2c0.2-0.2,0.3-0.3,0.3-0.6v-1.7h-1.2c-0.4,0-0.7,0.1-0.9,0.4c-0.2,0.3-0.3,0.6-0.3,1c0,0.4,0.1,0.7,0.3,0.8
			C240.1,343.8,240.3,343.8,240.7,343.8z"/>
		<path class="st4" d="M244.7,344.2c0.3,0,0.5-0.1,0.7-0.2c0.2-0.2,0.3-0.4,0.3-0.6v-1.5h0.7v1.5c0,0.5-0.1,0.9-0.4,1.2
			c-0.3,0.3-0.7,0.4-1.2,0.4h-1c-0.1,0-0.2,0-0.2-0.1c0-0.1,0-0.2,0-0.3c0-0.1,0-0.2,0-0.3c0-0.1,0.1-0.1,0.2-0.1H244.7z
			 M245.1,347.1h-0.9v-0.8h0.9V347.1z"/>
		<path class="st4" d="M249.2,343.3c0-0.2,0-0.4,0.1-0.6c0.1-0.2,0.1-0.4,0.3-0.6c0.1-0.2,0.3-0.4,0.5-0.6c0.2-0.2,0.4-0.5,0.7-0.7
			l-0.5-0.5l0.5-0.5c0.5,0.5,0.8,0.8,1.1,1.2s0.5,0.6,0.7,0.9c0.2,0.3,0.3,0.5,0.4,0.7c0.1,0.2,0.1,0.5,0.1,0.7c0,0.3,0,0.5-0.1,0.7
			c-0.1,0.2-0.2,0.4-0.4,0.6c-0.2,0.2-0.4,0.3-0.6,0.4s-0.5,0.1-0.8,0.1s-0.5,0-0.8-0.1c-0.2-0.1-0.4-0.2-0.6-0.4
			c-0.2-0.2-0.3-0.3-0.4-0.5C249.2,343.8,249.2,343.6,249.2,343.3z M252.4,343.2c0-0.1,0-0.3-0.1-0.4c0-0.1-0.1-0.3-0.2-0.4
			c-0.1-0.1-0.2-0.3-0.4-0.5s-0.4-0.4-0.6-0.6c-0.3,0.3-0.5,0.5-0.6,0.7c-0.2,0.2-0.3,0.4-0.4,0.5c-0.1,0.2-0.1,0.3-0.2,0.4
			c0,0.1,0,0.2,0,0.4c0,0.3,0.1,0.5,0.3,0.7c0.2,0.2,0.5,0.3,0.9,0.3c0.2,0,0.4,0,0.5-0.1c0.2-0.1,0.3-0.1,0.4-0.2
			c0.1-0.1,0.2-0.2,0.3-0.3C252.3,343.4,252.4,343.3,252.4,343.2z"/>
		<path class="st4" d="M255.3,346c-0.1,0.3-0.3,0.6-0.6,0.9c-0.2,0.2-0.5,0.4-0.8,0.6c-0.3,0.1-0.7,0.2-1,0.2h-0.6l-0.1-0.7h0.5
			c0.4,0,0.7-0.1,0.9-0.2c0.3-0.1,0.5-0.3,0.6-0.5c0.2-0.2,0.3-0.4,0.4-0.7c0.1-0.2,0.1-0.5,0.1-0.8v-3h0.7v3
			C255.5,345.2,255.4,345.6,255.3,346z"/>
		<path class="st4" d="M258.3,345c-0.2,0-0.4,0-0.5-0.1c-0.2-0.1-0.3-0.1-0.5-0.3c-0.1-0.1-0.2-0.3-0.3-0.5
			c-0.1-0.2-0.1-0.5-0.1-0.8v-5.1h0.7v5c0,0.3,0.1,0.6,0.2,0.8c0.1,0.2,0.4,0.3,0.7,0.3h0.2c0.2,0,0.2,0.1,0.2,0.4
			c0,0.3-0.1,0.4-0.2,0.4H258.3z"/>
		<path class="st4" d="M261.8,344.4c-0.2,0.1-0.4,0.2-0.5,0.3c-0.2,0.1-0.4,0.2-0.6,0.2c-0.2,0.1-0.4,0.1-0.7,0.1
			c-0.2,0-0.5,0-0.8,0h-0.5c-0.1,0-0.2,0-0.2-0.1c0-0.1,0-0.2,0-0.3c0-0.1,0-0.2,0-0.3c0-0.1,0.1-0.1,0.2-0.1h0.5c0.3,0,0.5,0,0.8,0
			c0.2,0,0.4,0,0.6-0.1c0.2,0,0.4-0.1,0.5-0.2c0.2-0.1,0.3-0.2,0.5-0.3l1.9-1.1c-0.1-0.2-0.1-0.3-0.2-0.4c-0.1-0.1-0.1-0.2-0.2-0.3
			s-0.2-0.2-0.4-0.2c-0.1,0-0.3-0.1-0.6-0.1h-2.5l0.1-0.8h2.5c0.2,0,0.4,0,0.6,0.1c0.2,0,0.4,0.1,0.6,0.3c0.2,0.1,0.3,0.4,0.5,0.6
			c0.2,0.3,0.3,0.6,0.4,1.1L261.8,344.4z M261.8,347.1h-0.9v-0.8h0.9V347.1z"/>
		<path class="st4" d="M265.5,338.2h0.7v6.8h-0.7V338.2z"/>
	</g>
	<g>
		<path class="st4" d="M285.6,342h-7.2l-1.6,1.6v5.1l5.3-1.3l5.3,1.3v-5.1L285.6,342z M285.8,346.8l-0.6-0.1l-0.3-1.4l-2.8,0.7
			l-2.8-0.7l-0.3,1.4l-0.6,0.1v-2.5l0.8-0.8h6l0.8,0.8V346.8z M282,341.2c1.7,0,3-1.3,3-3s-1.3-3-3-3c-1.7,0-3,1.3-3,3
			S280.3,341.2,282,341.2z M282,336.7c0.8,0,1.5,0.7,1.5,1.5s-0.7,1.5-1.5,1.5s-1.5-0.7-1.5-1.5S281.2,336.7,282,336.7z"/>
		<rect x="273" y="333" class="st5" width="18" height="18"/>
	</g>
	<g>
		<path class="st4" d="M327.9,267.9c0,0.4,0.1,0.6,0.2,0.9c0.1,0.2,0.4,0.3,0.8,0.3h0.2c0.1,0,0.2,0,0.2,0.1c0,0.1,0.1,0.2,0.1,0.3
			c0,0.2,0,0.3-0.1,0.3c0,0.1-0.1,0.1-0.2,0.1h-0.2c-0.4,0-0.7-0.1-1-0.2s-0.5-0.5-0.6-0.9c-0.1,0.1-0.2,0.2-0.4,0.3
			c-0.1,0.1-0.3,0.1-0.5,0.2c-0.2,0-0.3,0.1-0.5,0.1c-0.2,0-0.3,0-0.5,0c-0.6,0-1.1-0.2-1.4-0.5c-0.3-0.3-0.5-0.8-0.5-1.5
			c0-0.3,0-0.6,0.1-0.9c0.1-0.3,0.2-0.6,0.4-0.8c0.2-0.2,0.4-0.4,0.7-0.6c0.3-0.1,0.6-0.2,0.9-0.2h1.3v-0.9h0.8V267.9z M325.7,268.7
			c0.4,0,0.8-0.1,1-0.3c0.3-0.2,0.4-0.4,0.4-0.7v-1.9h-1.3c-0.4,0-0.8,0.1-1,0.4s-0.4,0.7-0.4,1.1c0,0.5,0.1,0.8,0.3,1
			C324.9,268.6,325.3,268.7,325.7,268.7z"/>
		<path class="st4" d="M329.6,269.1c0.4,0,0.7,0,1.2-0.1c0.4,0,0.8-0.2,1.2-0.4l-1.9-2.4l0.5-0.9h3.2c0.4,0,0.7,0.1,0.9,0.2
			c0.3,0.2,0.4,0.4,0.4,0.7c0,0,0,0.1,0,0.2c0,0,0,0.1,0,0.1c0,0.1,0,0.2-0.1,0.4s-0.1,0.3-0.3,0.4c-0.1,0.2-0.3,0.4-0.5,0.6
			c-0.2,0.2-0.5,0.5-0.8,0.8c0.1,0.1,0.2,0.1,0.4,0.2c0.1,0,0.3,0.1,0.4,0.1c0.1,0,0.3,0,0.5,0c0.2,0,0.4,0,0.6,0h0.9
			c0.2,0,0.3,0.1,0.3,0.4c0,0.3-0.1,0.4-0.3,0.4h-1c-0.3,0-0.5,0-0.8,0s-0.4,0-0.6-0.1c-0.2,0-0.4-0.1-0.6-0.2
			c-0.2-0.1-0.4-0.2-0.5-0.4c-0.4,0.3-0.9,0.5-1.4,0.6c-0.5,0.1-1,0.1-1.6,0.1h-0.6c-0.1,0-0.2,0-0.2-0.1c0-0.1-0.1-0.2-0.1-0.3
			c0-0.2,0-0.3,0.1-0.3s0.1-0.1,0.2-0.1H329.6z M334.3,266.8c0-0.2-0.1-0.3-0.2-0.4c-0.1-0.1-0.3-0.1-0.6-0.1H331l1.7,2.3
			c0.3-0.3,0.5-0.5,0.8-0.6c0.2-0.2,0.4-0.3,0.5-0.5c0.1-0.1,0.2-0.3,0.3-0.3S334.3,266.9,334.3,266.8z"/>
		<path class="st4" d="M337.3,269.1c0.3,0,0.6-0.1,0.8-0.3c0.2-0.2,0.3-0.4,0.3-0.7v-1.7h0.8v1.7c0,0.6-0.2,1-0.5,1.4
			s-0.8,0.5-1.3,0.5h-1.2c-0.1,0-0.2,0-0.2-0.1c0-0.1-0.1-0.2-0.1-0.3c0-0.2,0-0.3,0.1-0.3s0.1-0.1,0.2-0.1H337.3z M337.3,272.3h-1
			v-0.9h1V272.3z M338.9,272.3h-1v-0.9h1V272.3z"/>
		<path class="st4" d="M345.2,267c0.2,0.2,0.4,0.5,0.5,0.7c0.1,0.2,0.1,0.5,0.1,0.7c0,0.4-0.2,0.8-0.5,1.1c-0.3,0.3-0.8,0.4-1.4,0.4
			h-3.5l-0.1-0.9h3.5c0.3,0,0.6-0.1,0.8-0.2c0.2-0.2,0.3-0.3,0.3-0.6c0-0.1,0-0.2-0.1-0.4c-0.1-0.1-0.1-0.3-0.3-0.4l-2.3-2.6
			l0.6-0.6L345.2,267z"/>
		<path class="st4" d="M348.3,272.2c0.4,0,0.7-0.1,1-0.2c0.3-0.1,0.5-0.3,0.7-0.5c0.2-0.2,0.3-0.4,0.4-0.7c0.1-0.3,0.2-0.5,0.2-0.8
			h-1.3c-0.4,0-0.8,0-1-0.1c-0.3-0.1-0.5-0.2-0.7-0.4c-0.2-0.2-0.3-0.4-0.3-0.6c-0.1-0.2-0.1-0.5-0.1-0.8c0-0.3,0-0.6,0.1-0.9
			c0.1-0.3,0.2-0.5,0.4-0.8c0.2-0.2,0.4-0.4,0.7-0.5c0.3-0.1,0.6-0.2,0.9-0.2c0.3,0,0.5,0,0.8,0.1c0.3,0.1,0.5,0.2,0.7,0.4
			c0.2,0.2,0.3,0.4,0.5,0.8c0.1,0.3,0.2,0.7,0.2,1.1v1.7c0,0.4-0.1,0.8-0.2,1.2c-0.1,0.4-0.3,0.7-0.6,1c-0.3,0.3-0.6,0.5-1,0.7
			c-0.4,0.2-0.8,0.3-1.3,0.3H347l-0.1-0.8H348.3z M348,267.9c0,0.2,0,0.4,0.1,0.5c0,0.1,0.1,0.3,0.2,0.4c0.1,0.1,0.3,0.2,0.5,0.2
			c0.2,0,0.4,0.1,0.7,0.1h1.1v-0.9c0-0.6-0.1-1.1-0.4-1.3c-0.2-0.3-0.6-0.4-1-0.4c-0.4,0-0.7,0.1-0.9,0.4
			C348.1,267.1,348,267.5,348,267.9z"/>
		<path class="st4" d="M355,270.8v-3c0-0.5,0-0.9,0-1.3s-0.1-0.7-0.1-1c-0.1-0.3-0.1-0.6-0.2-0.9c-0.1-0.3-0.1-0.6-0.2-0.9l0.8-0.3
			c0.1,0.3,0.2,0.7,0.3,1c0.1,0.3,0.1,0.6,0.2,1c0.1,0.3,0.1,0.7,0.1,1.1c0,0.4,0,0.8,0,1.3v3.1H355z"/>
		<path class="st4" d="M361.1,264.3c0,0.3,0.1,0.6,0.1,0.9c0,0.1,0,0.1,0,0.2c0,0.1,0,0.2,0,0.3c0.1,0.1,0.2,0.3,0.4,0.3
			c0.2,0.1,0.3,0.1,0.5,0.1c0.3,0,0.5-0.1,0.7-0.3c0.2-0.2,0.3-0.4,0.3-0.6c0-0.2,0-0.5,0-0.8c0-0.3-0.1-0.6-0.2-1l0.8-0.2
			c0.1,0.6,0.2,1.3,0.2,1.9c0,0.2,0,0.5-0.1,0.7c-0.1,0.2-0.2,0.4-0.4,0.6c-0.2,0.2-0.3,0.3-0.5,0.4c-0.2,0.1-0.4,0.1-0.7,0.1
			c-0.2,0-0.5,0-0.7-0.1c-0.2-0.1-0.4-0.3-0.6-0.5c-0.1,0.2-0.3,0.3-0.5,0.5c-0.2,0.1-0.5,0.2-0.8,0.2c-0.2,0-0.4,0-0.6-0.1
			c-0.2-0.1-0.3-0.2-0.4-0.4c0,0.2,0,0.4,0,0.6c0,0.2,0,0.4,0,0.7v3h-0.8v-3c0-0.5,0-0.9,0-1.3s-0.1-0.7-0.1-1
			c-0.1-0.3-0.1-0.6-0.2-0.9c-0.1-0.3-0.1-0.6-0.2-0.9l0.8-0.3c0.1,0.2,0.1,0.4,0.1,0.5c0,0.2,0.1,0.3,0.1,0.4
			c0,0.1,0.1,0.3,0.1,0.4c0,0.1,0.1,0.3,0.1,0.4c0.1,0.3,0.2,0.5,0.4,0.7c0.2,0.2,0.4,0.3,0.7,0.3c0.3,0,0.5-0.1,0.7-0.2
			c0.2-0.2,0.3-0.4,0.3-0.7c0-0.2,0-0.4,0-0.7c0-0.3-0.1-0.6-0.2-1l0.8-0.2C361,263.6,361.1,264,361.1,264.3z"/>
		<path class="st4" d="M365,268.9c0-0.3,0-0.6,0.1-0.9c0.1-0.3,0.2-0.6,0.4-1c0.2-0.4,0.5-0.8,0.8-1.2c0.3-0.5,0.8-1,1.3-1.6
			l-0.6-0.5l0.5-0.6c0.8,0.7,1.5,1.3,2,1.8c0.5,0.5,0.9,1,1.2,1.5c0.3,0.4,0.5,0.8,0.6,1.2c0.1,0.4,0.1,0.7,0.1,1.1
			c0,0.4-0.1,0.7-0.2,0.9c-0.1,0.3-0.3,0.5-0.4,0.7c-0.2,0.2-0.4,0.3-0.6,0.4c-0.2,0.1-0.4,0.1-0.7,0.1c-0.3,0-0.6-0.1-0.8-0.2
			c-0.2-0.1-0.4-0.3-0.6-0.4c-0.2,0.2-0.4,0.4-0.6,0.5c-0.3,0.1-0.5,0.1-0.7,0.1c-0.5,0-1-0.2-1.3-0.5
			C365.1,270,365,269.5,365,268.9z M370.6,268.8c0-0.2,0-0.5-0.1-0.8c-0.1-0.3-0.2-0.6-0.4-0.9c-0.2-0.3-0.4-0.7-0.7-1.1
			c-0.3-0.4-0.7-0.8-1.2-1.2c-0.8,0.8-1.4,1.6-1.8,2.2c-0.4,0.7-0.6,1.2-0.6,1.8c0,0.4,0.1,0.7,0.3,0.9c0.2,0.2,0.5,0.3,0.8,0.3
			c0.1,0,0.3,0,0.4-0.1c0.1,0,0.2-0.1,0.3-0.2s0.2-0.2,0.3-0.3c0.1-0.1,0.1-0.3,0.1-0.5V268h0.8v0.8c0,0.2,0,0.3,0,0.4
			s-0.1,0.2-0.1,0.3c0.1,0.1,0.3,0.2,0.4,0.3c0.2,0.1,0.3,0.1,0.5,0.1c0.3,0,0.6-0.1,0.8-0.3C370.5,269.5,370.6,269.2,370.6,268.8z"
			/>
	</g>
	<g>
		<path class="st4" d="M266.5,268.1c0-0.3,0-0.5,0.1-0.7c0.1-0.2,0.2-0.5,0.3-0.7c0.1-0.2,0.3-0.5,0.5-0.7c0.2-0.3,0.5-0.5,0.8-0.8
			l-0.6-0.6l0.6-0.6c0.5,0.5,0.9,1,1.3,1.3c0.3,0.4,0.6,0.7,0.8,1c0.2,0.3,0.4,0.6,0.5,0.8c0.1,0.3,0.1,0.5,0.1,0.8
			c0,0.3-0.1,0.6-0.2,0.8c-0.1,0.3-0.3,0.5-0.5,0.7s-0.4,0.3-0.7,0.4c-0.3,0.1-0.6,0.2-0.9,0.2s-0.6,0-0.9-0.1
			c-0.3-0.1-0.5-0.2-0.7-0.4c-0.2-0.2-0.3-0.4-0.4-0.6C266.6,268.6,266.5,268.4,266.5,268.1z M270.2,267.9c0-0.2,0-0.3-0.1-0.5
			c0-0.2-0.1-0.3-0.2-0.5c-0.1-0.2-0.3-0.4-0.4-0.6c-0.2-0.2-0.4-0.4-0.7-0.7c-0.3,0.3-0.5,0.5-0.7,0.8c-0.2,0.2-0.3,0.4-0.4,0.6
			c-0.1,0.2-0.2,0.3-0.2,0.5c0,0.1,0,0.3,0,0.4c0,0.3,0.1,0.6,0.4,0.8c0.2,0.2,0.6,0.3,1,0.3c0.2,0,0.4,0,0.6-0.1
			c0.2-0.1,0.3-0.2,0.5-0.3c0.1-0.1,0.2-0.2,0.3-0.4C270.1,268.2,270.2,268.1,270.2,267.9z"/>
		<path class="st4" d="M273.5,271.1c-0.2,0.4-0.4,0.7-0.6,1c-0.3,0.3-0.6,0.5-0.9,0.7c-0.4,0.2-0.8,0.2-1.2,0.2H270l-0.1-0.8h0.6
			c0.4,0,0.8-0.1,1.1-0.2c0.3-0.1,0.5-0.3,0.7-0.5c0.2-0.2,0.3-0.5,0.4-0.8c0.1-0.3,0.1-0.6,0.1-0.9v-3.4h0.8v3.4
			C273.7,270.3,273.6,270.7,273.5,271.1z"/>
		<path class="st4" d="M276.9,270c-0.2,0-0.4,0-0.6-0.1c-0.2-0.1-0.4-0.2-0.5-0.3c-0.2-0.2-0.3-0.3-0.4-0.6
			c-0.1-0.2-0.1-0.6-0.1-0.9v-5.8h0.8v5.7c0,0.3,0.1,0.6,0.2,0.9c0.2,0.2,0.4,0.3,0.8,0.3h0.2c0.2,0,0.3,0.1,0.3,0.4
			c0,0.3-0.1,0.4-0.3,0.4H276.9z"/>
		<path class="st4" d="M280.9,269.3c-0.2,0.1-0.4,0.2-0.6,0.3c-0.2,0.1-0.4,0.2-0.6,0.2c-0.2,0.1-0.5,0.1-0.8,0.1c-0.3,0-0.6,0-1,0
			h-0.6c-0.1,0-0.2,0-0.2-0.1c0-0.1-0.1-0.2-0.1-0.3c0-0.2,0-0.3,0.1-0.3s0.1-0.1,0.2-0.1h0.6c0.3,0,0.6,0,0.9,0
			c0.3,0,0.5-0.1,0.7-0.1c0.2,0,0.4-0.1,0.6-0.2c0.2-0.1,0.4-0.2,0.6-0.3l2.1-1.2c-0.1-0.2-0.1-0.3-0.2-0.5
			c-0.1-0.1-0.2-0.3-0.3-0.4c-0.1-0.1-0.3-0.2-0.4-0.2c-0.2-0.1-0.4-0.1-0.6-0.1h-2.8l0.1-0.9h2.8c0.2,0,0.4,0,0.7,0.1
			c0.2,0,0.4,0.2,0.6,0.3s0.4,0.4,0.6,0.7c0.2,0.3,0.3,0.7,0.4,1.3L280.9,269.3z M280.9,272.4h-1v-0.9h1V272.4z"/>
		<path class="st4" d="M285.1,262.3h0.8v7.8h-0.8V262.3z"/>
		<path class="st4" d="M291.6,267c-0.2,0-0.4,0-0.6-0.1c-0.2-0.1-0.3-0.2-0.4-0.4c0,0.2,0,0.4,0,0.6c0,0.2,0,0.4,0,0.7v3h-0.8v-3
			c0-0.5,0-0.9,0-1.3s-0.1-0.7-0.1-1c-0.1-0.3-0.1-0.6-0.2-0.9c-0.1-0.3-0.1-0.6-0.2-0.9l0.8-0.3c0.1,0.2,0.1,0.4,0.1,0.5
			c0,0.2,0.1,0.3,0.1,0.4c0,0.1,0.1,0.3,0.1,0.4c0,0.1,0.1,0.3,0.1,0.4c0.1,0.3,0.2,0.5,0.4,0.7c0.2,0.2,0.4,0.3,0.7,0.3
			c0.3,0,0.5-0.1,0.7-0.2c0.2-0.2,0.3-0.4,0.3-0.7c0-0.2,0-0.4,0-0.7c0-0.3-0.1-0.6-0.2-1l0.8-0.2c0.1,0.3,0.1,0.6,0.1,0.9
			c0,0.3,0,0.6,0,0.9c0,0.3,0,0.5-0.1,0.7c-0.1,0.2-0.2,0.4-0.4,0.6c-0.2,0.2-0.3,0.3-0.5,0.4C292.1,266.9,291.9,267,291.6,267z"/>
	</g>
	<g>
		<path class="st4" d="M316.8,259.8l-15,15l-1.1-1.1l4.5-4.5h-3v-1.5h4.5l1.5-1.5h-0.8v0h-5.2l3.7-3.7v2.2h3.8l6-6L316.8,259.8z
			 M311.3,266.2h4.5v-1.5h-3L311.3,266.2z M312.8,267.7h-3l-1.5,1.5h3.7v2.3l3.7-3.8L312.8,267.7L312.8,267.7z"/>
		<rect x="300" y="258" class="st5" width="18" height="18"/>
	</g>
</g>
<g id="Isolation_Mode">
</g>
</svg>
