<?xml version="1.0" encoding="utf-8"?>
<!-- Generator: Adobe Illustrator 23.1.0, SVG Export Plug-In . SVG Version: 6.00 Build 0)  -->
<svg version="1.1" xmlns="http://www.w3.org/2000/svg" xmlns:xlink="http://www.w3.org/1999/xlink" x="0px" y="0px"
	 viewBox="0 0 504 504" style="enable-background:new 0 0 504 504;" xml:space="preserve">
<style type="text/css">
	.st0{fill:#DBD8D7;}
	.st1{opacity:8.000000e-02;fill:#FF8873;}
	.st2{fill:#F5F1F0;}
	.st3{fill:#BDB9B9;}
	.st4{fill:#FFFFFF;}
	.st5{fill:none;}
	.st6{fill:#FF8672;}
	.st7{fill:#504B4A;}
	.st8{fill:#4C4B4B;}
	.st9{fill:#AC2700;}
	.st10{fill:#C7C4C3;}
	.st11{fill:#FF8873;}
	.st12{clip-path:url(#SVGID_2_);}
	.st13{clip-path:url(#SVGID_4_);}
	.st14{fill:#FF8873;fill-opacity:0.5;}
	.st15{fill:#858282;}
	.st16{fill:#FFFFFF;fill-opacity:0.16;}
	.st17{fill:#FF8672;fill-opacity:8.000000e-02;}
	.st18{fill:#FF8672;fill-opacity:0.16;}
	.st19{fill:#FF8672;fill-opacity:0.32;}
	.st20{fill:#BFBBBA;}
	.st21{fill:#A8A5A5;}
	.st22{fill:#C4C4C4;}
	.st23{fill:#242323;}
	.st24{fill:#BFBCBC;}
	.st25{fill:#706E6E;}
	.st26{fill:#5C5A5A;}
	.st27{opacity:0.16;fill:#FF8873;}
</style>
<g id="Layer_2">
</g>
<g id="Layer_1">
	<g>
		<g>
			<g>
				<rect x="45" y="193.5" class="st4" width="414" height="117"/>
				<path class="st2" d="M459.5,311h-415V193h415V311z M45.5,310h413V194h-413V310z"/>
			</g>
		</g>
		<rect x="342" y="193.5" class="st20" width="117" height="117"/>
		<g>
			<path class="st8" d="M83.3,288v-18H69.8l0,18H72l4.5-4.5L81,288H83.3z M72,284.8l0-12.6h9v12.6l-4.5-4.5L72,284.8z"/>
			<rect x="63" y="265.5" class="st5" width="27" height="27"/>
		</g>
		<g>
			<path class="st4" d="M411,244.1c0-1.4,1.2-2.6,2.6-2.6c1.4,0,2.6,1.2,2.6,2.6c0,1.4-1.2,2.6-2.6,2.6
				C412.2,246.7,411,245.6,411,244.1z M424.1,233.6V263v7.4h-47.2h0v-12.7l0,0v-24H424.1z M418.9,238.9h-36.7v13.5l10.5-10.4
				l13.1,13.1l5.3-5.3l7.9,7.9V238.9z"/>
			<rect x="369" y="220.5" class="st5" width="63" height="63"/>
		</g>
		<g>
			<path d="M139.8,224.9c0.4,0.4,0.6,0.8,0.8,1.2c0.2,0.4,0.3,0.8,0.3,1.2c0,0.4-0.1,0.7-0.2,1c-0.1,0.3-0.3,0.6-0.6,0.8
				c-0.3,0.2-0.6,0.4-1,0.6c-0.4,0.1-0.8,0.2-1.3,0.2h-5.4l-0.1-2.2h5.2c0.7,0,1-0.2,1-0.7c0-0.2-0.1-0.5-0.3-0.7l-3.4-3.9l1.6-1.5
				L139.8,224.9z"/>
			<path d="M145.9,230c-0.4,0-0.7-0.1-1.1-0.2c-0.3-0.1-0.6-0.3-0.9-0.5c-0.3-0.2-0.5-0.6-0.6-1c-0.1-0.4-0.2-0.9-0.2-1.5v-9.4h2.1
				v8.9c0,0.4,0.1,0.8,0.3,1c0.2,0.3,0.5,0.4,0.9,0.4h0.5c0.3,0,0.4,0.4,0.4,1.1c0,0.8-0.1,1.2-0.4,1.2H145.9z"/>
			<path d="M148.7,227.8c0.9,0,1.4-0.4,1.4-1.3v-2.4h2.1v2.5c0,1.1-0.3,2-0.9,2.5c-0.6,0.6-1.4,0.9-2.4,0.9h-2
				c-0.2,0-0.3-0.1-0.4-0.3s-0.1-0.4-0.1-0.8c0-0.4,0-0.7,0.1-0.9c0.1-0.2,0.2-0.3,0.4-0.3H148.7z M149.8,234.3h-2.3v-2.1h2.3V234.3
				z"/>
			<path d="M154.4,218.4c-0.3,0-0.5,0-0.6,0.1c-0.1,0.1-0.3,0.2-0.4,0.5l-0.4,0.9l-1.3-0.6l0.6-1.4c0.1-0.3,0.2-0.5,0.4-0.7
				c0.1-0.2,0.2-0.3,0.4-0.4c0.1-0.1,0.3-0.2,0.5-0.2c0.2,0,0.5-0.1,0.7-0.1h4.1l-0.1,1.9H154.4z M154.5,220.5h2.1v9.5h-2.1V220.5z"
				/>
			<path d="M164.8,230c-0.6,0-1-0.1-1.4-0.3c-0.4-0.2-0.7-0.4-1-0.7c-0.3-0.3-0.4-0.6-0.5-1c-0.1-0.4-0.2-0.8-0.2-1.2V224h2v2.3
				c0,0.4,0.1,0.8,0.3,1c0.2,0.3,0.6,0.4,1.2,0.4h6.4c0.5,0,0.8-0.1,1-0.3c0.2-0.2,0.3-0.5,0.3-1v-2.4h2.1v2.9c0,0.5-0.1,1-0.3,1.3
				c-0.2,0.4-0.4,0.7-0.7,1c-0.3,0.3-0.6,0.4-1,0.6c-0.4,0.1-0.8,0.2-1.1,0.2H164.8z M168,222.4h-2.1v-2h2.1V222.4z M170.9,222.4
				h-2.1v-2h2.1V222.4z"/>
			<path d="M184.4,224.9c0.4,0.4,0.6,0.8,0.8,1.2c0.2,0.4,0.3,0.8,0.3,1.2c0,0.4-0.1,0.7-0.2,1c-0.1,0.3-0.3,0.6-0.6,0.8
				c-0.3,0.2-0.6,0.4-1,0.6c-0.4,0.1-0.8,0.2-1.3,0.2h-5.4l-0.1-2.2h5.2c0.7,0,1-0.2,1-0.7c0-0.2-0.1-0.5-0.3-0.7l-3.4-3.9l1.6-1.5
				L184.4,224.9z"/>
			<path d="M190.5,230c-0.4,0-0.7-0.1-1.1-0.2c-0.3-0.1-0.6-0.3-0.9-0.5c-0.3-0.2-0.5-0.6-0.6-1c-0.1-0.4-0.2-0.9-0.2-1.5v-9.4h2.1
				v8.9c0,0.4,0.1,0.8,0.3,1c0.2,0.3,0.5,0.4,0.9,0.4h0.5c0.3,0,0.4,0.4,0.4,1.1c0,0.8-0.1,1.2-0.4,1.2H190.5z"/>
			<path d="M192.5,227.8c0.4,0,0.9,0,1.4,0c0.5,0,1-0.1,1.5-0.3l-2.6-3.3l1-2h5.3c0.6,0,1.2,0.1,1.6,0.4c0.4,0.3,0.7,0.7,0.8,1.1
				c0,0.1,0,0.2,0.1,0.3c0,0.1,0,0.2,0,0.3c0,0.2,0,0.4-0.1,0.6c-0.1,0.2-0.2,0.4-0.3,0.7c-0.1,0.3-0.4,0.5-0.6,0.9
				c-0.3,0.3-0.6,0.7-1.1,1.1c0.3,0.1,0.7,0.2,1,0.2c0.4,0,0.8,0,1.2,0h1.4c0.2,0,0.3,0.1,0.4,0.3c0.1,0.2,0.1,0.4,0.1,0.8
				c0,0.4,0,0.7-0.1,0.9c-0.1,0.2-0.2,0.3-0.4,0.3h-1.8c-0.4,0-0.8,0-1.1,0c-0.4,0-0.7-0.1-1-0.1c-0.3-0.1-0.6-0.2-0.9-0.3
				c-0.3-0.1-0.6-0.3-0.9-0.6c-0.4,0.2-0.7,0.4-1.1,0.6c-0.4,0.1-0.7,0.3-1.1,0.3c-0.4,0.1-0.8,0.1-1.2,0.2c-0.4,0-0.8,0-1.3,0h-1.3
				c-0.2,0-0.3-0.1-0.4-0.3s-0.1-0.4-0.1-0.8c0-0.4,0-0.7,0.1-0.9c0.1-0.2,0.2-0.3,0.4-0.3H192.5z M199.4,224.8
				c0-0.4-0.3-0.5-0.8-0.5h-3.2l2.2,2.8c0.7-0.6,1.2-1,1.5-1.4C199.3,225.3,199.4,225,199.4,224.8z"/>
			<path d="M204,227.8c0.9,0,1.4-0.4,1.4-1.3v-2.4h2v2.4c0,0.5,0.1,0.8,0.4,1s0.6,0.3,1,0.3c1,0,1.5-0.4,1.5-1.3v-2.4h2.1v2.4
				c0,0.5,0.1,0.8,0.4,1c0.2,0.2,0.5,0.3,0.9,0.3c0.4,0,0.7-0.1,0.9-0.3s0.3-0.5,0.3-1v-2.4h2.1v2.5c0,1.1-0.3,2-0.9,2.5
				c-0.6,0.6-1.4,0.9-2.4,0.9c-0.5,0-0.9-0.1-1.3-0.3c-0.4-0.2-0.8-0.5-1.1-1c-0.3,0.5-0.7,0.9-1.1,1c-0.4,0.2-0.9,0.3-1.4,0.3
				c-0.5,0-1-0.1-1.4-0.3c-0.4-0.2-0.8-0.5-1.1-1c-0.3,0.5-0.7,0.9-1.1,1c-0.4,0.2-0.8,0.3-1.3,0.3h-0.9c-0.2,0-0.3-0.1-0.4-0.3
				s-0.1-0.4-0.1-0.8c0-0.4,0-0.7,0.1-0.9c0.1-0.2,0.2-0.3,0.4-0.3H204z"/>
			<path d="M225.1,230c-0.6,0-1-0.1-1.4-0.3c-0.4-0.2-0.7-0.4-1-0.7c-0.3-0.3-0.4-0.6-0.5-1c-0.1-0.4-0.2-0.8-0.2-1.2V224h2v2.3
				c0,0.4,0.1,0.8,0.3,1c0.2,0.3,0.6,0.4,1.2,0.4h6.4c0.5,0,0.8-0.1,1-0.3c0.2-0.2,0.3-0.5,0.3-1v-2.4h2.1v2.9c0,0.5-0.1,1-0.3,1.3
				c-0.2,0.4-0.4,0.7-0.7,1c-0.3,0.3-0.6,0.4-1,0.6c-0.4,0.1-0.8,0.2-1.1,0.2H225.1z M229.9,234.3h-2.3v-2.1h2.3V234.3z"/>
			<path d="M237.7,217.4h2.1V230h-2.1V217.4z"/>
			<path d="M244,232.7c0.5,0,1-0.1,1.3-0.2s0.7-0.3,0.9-0.6c0.2-0.2,0.4-0.5,0.6-0.9c0.1-0.3,0.2-0.7,0.2-1h-1.4
				c-0.7,0-1.3-0.1-1.7-0.2c-0.4-0.1-0.8-0.4-1.1-0.7c-0.3-0.3-0.4-0.6-0.5-1.1c-0.1-0.4-0.2-0.9-0.2-1.4s0.1-1,0.2-1.5
				c0.1-0.5,0.4-0.9,0.7-1.2c0.3-0.4,0.7-0.6,1.1-0.8c0.4-0.2,0.9-0.3,1.5-0.3c0.5,0,0.9,0.1,1.3,0.2c0.4,0.1,0.8,0.4,1.1,0.7
				s0.6,0.7,0.7,1.3c0.2,0.5,0.3,1.1,0.3,1.9v0.9h1.6c0.3,0,0.4,0.4,0.4,1.1c0,0.8-0.1,1.2-0.4,1.2H249c0,0.7-0.2,1.3-0.4,1.9
				c-0.2,0.6-0.6,1.1-1,1.6c-0.4,0.4-0.9,0.8-1.5,1.1c-0.6,0.3-1.3,0.4-2,0.4h-2l-0.1-2.2H244z M244.2,226.5c0,0.5,0.1,0.8,0.3,1
				c0.2,0.2,0.6,0.3,1.2,0.3h1.3v-1c0-0.7-0.1-1.2-0.4-1.5c-0.3-0.3-0.6-0.4-1.1-0.4c-0.4,0-0.8,0.1-1,0.4
				C244.3,225.6,244.2,226,244.2,226.5z"/>
			<path d="M256.5,228.9c-0.4,0.2-0.7,0.4-1.1,0.5c-0.4,0.1-0.7,0.3-1.1,0.3c-0.4,0.1-0.8,0.2-1.3,0.2c-0.5,0-1,0.1-1.6,0.1h-0.7
				c-0.2,0-0.3-0.1-0.4-0.3s-0.1-0.4-0.1-0.8c0-0.4,0-0.7,0.1-0.9c0.1-0.2,0.2-0.3,0.4-0.3h0.8c0.5,0,1,0,1.4,0
				c0.4,0,0.8-0.1,1.1-0.1c0.3-0.1,0.6-0.1,0.9-0.2c0.3-0.1,0.6-0.2,0.9-0.4l2.6-1.5c-0.1-0.2-0.2-0.3-0.3-0.5
				c-0.1-0.1-0.2-0.2-0.3-0.3c-0.1-0.1-0.3-0.2-0.5-0.2c-0.2,0-0.4-0.1-0.7-0.1h-4.3l0.1-2.2h4.5c0.4,0,0.8,0.1,1.1,0.2
				c0.4,0.1,0.7,0.3,1.1,0.6c0.3,0.3,0.6,0.7,0.9,1.3c0.3,0.5,0.5,1.3,0.7,2.2L256.5,228.9z M256.9,220.1h-2.3V218h2.3V220.1z"/>
			<path d="M269.3,225.3c-0.6,0-1.1-0.2-1.4-0.5c0,0.3,0,0.5,0.1,0.8c0,0.3,0,0.6,0,0.9v4.8h-2.1v-4.9c0-0.8,0-1.5-0.1-2.1
				c0-0.6-0.1-1.1-0.2-1.6c-0.1-0.5-0.2-0.9-0.3-1.3c-0.1-0.4-0.2-0.9-0.4-1.4l2-0.7c0.1,0.5,0.2,0.9,0.3,1.3
				c0.1,0.4,0.2,0.8,0.3,1.2c0.1,0.2,0.1,0.4,0.2,0.5c0.1,0.2,0.2,0.3,0.3,0.5c0.1,0.1,0.2,0.2,0.4,0.3c0.2,0.1,0.3,0.1,0.6,0.1
				c0.4,0,0.7-0.1,0.9-0.3s0.3-0.5,0.3-0.8c0-0.4-0.1-1.2-0.3-2.3l2-0.4c0.1,0.5,0.2,1,0.3,1.5c0.1,0.5,0.1,0.9,0.1,1.4
				c0,0.5-0.1,0.9-0.2,1.3c-0.1,0.4-0.3,0.7-0.6,1c-0.2,0.3-0.6,0.5-0.9,0.7C270.2,225.2,269.8,225.3,269.3,225.3z"/>
			<path d="M281.3,229.7c0,0.7-0.1,1.4-0.4,2c-0.2,0.6-0.6,1.2-1,1.7c-0.4,0.5-0.9,0.8-1.5,1.1c-0.6,0.3-1.2,0.4-1.9,0.4h-1.3
				l-0.1-2.2h0.9c0.6,0,1.1-0.1,1.5-0.3c0.4-0.2,0.8-0.4,1-0.7c0.3-0.3,0.5-0.6,0.6-1c0.1-0.4,0.2-0.7,0.2-1.1v-5.6h2.1v2.4
				c0,0.4,0.1,0.8,0.4,1c0.3,0.2,0.6,0.3,1,0.3h0.2c0.3,0,0.4,0.4,0.4,1.1c0,0.8-0.1,1.2-0.4,1.2h-0.2c-0.3,0-0.5,0-0.8-0.1
				c-0.3-0.1-0.5-0.3-0.7-0.5V229.7z"/>
			<path d="M284.4,227.8c0.9,0,1.4-0.4,1.4-1.3v-2.4h2.1v2.4c0,0.5,0.1,0.8,0.4,1c0.3,0.2,0.6,0.3,1,0.3h0.5c0.3,0,0.5,0.4,0.5,1.1
				c0,0.8-0.2,1.2-0.5,1.2h-0.6c-0.5,0-1-0.1-1.4-0.3c-0.4-0.2-0.8-0.5-1.1-1c-0.3,0.5-0.7,0.9-1.1,1c-0.4,0.2-0.8,0.3-1.3,0.3H283
				c-0.2,0-0.3-0.1-0.4-0.3s-0.1-0.4-0.1-0.8c0-0.4,0-0.7,0.1-0.9c0.1-0.2,0.2-0.3,0.4-0.3H284.4z M286.2,221.7h-2.1v-2h2.1V221.7z
				 M289.1,221.7H287v-2h2.1V221.7z"/>
			<path d="M290,227.8c0.5,0,0.8-0.1,1.1-0.3c0.3-0.2,0.4-0.5,0.4-0.9v-0.4c0-0.5,0.1-1,0.2-1.5c0.2-0.5,0.4-0.9,0.7-1.2
				c0.3-0.3,0.7-0.6,1.1-0.8c0.4-0.2,0.9-0.3,1.4-0.3c0.6,0,1,0.1,1.5,0.3c0.4,0.2,0.8,0.4,1.1,0.8c0.3,0.3,0.5,0.7,0.6,1.2
				c0.1,0.5,0.2,1,0.2,1.5c0,1.2-0.3,2.2-0.9,2.8c-0.6,0.7-1.4,1-2.5,1c-0.5,0-1.1-0.1-1.5-0.3c-0.5-0.2-0.9-0.5-1.1-1
				c-0.3,0.5-0.6,0.9-1,1.1c-0.4,0.2-0.8,0.3-1.2,0.3h-0.2c-0.2,0-0.3-0.1-0.4-0.3s-0.1-0.4-0.1-0.8c0-0.4,0-0.7,0.1-0.9
				c0.1-0.2,0.2-0.3,0.4-0.3H290z M296.3,226.3c0-0.5-0.1-0.8-0.3-1.2c-0.2-0.3-0.6-0.5-1.1-0.5c-0.5,0-0.9,0.2-1.1,0.5
				s-0.3,0.7-0.3,1.2c0,0.5,0.1,0.8,0.4,1.1c0.3,0.2,0.6,0.4,1.1,0.4C295.9,227.8,296.3,227.3,296.3,226.3z"/>
			<path d="M307.9,227.5c0.1-0.7,0.3-1.4,0.4-2.1c0.1-0.7,0.3-1.3,0.6-2c0.2-0.7,0.5-1.4,0.9-2.1c0.3-0.7,0.8-1.5,1.3-2.3l1.7,1.1
				c-0.5,0.9-1,1.7-1.4,2.5c-0.4,0.8-0.8,1.6-1.1,2.5c-0.3,0.9-0.6,1.8-0.9,2.8c-0.3,1-0.5,2.1-0.8,3.4h-1.4
				c-0.2-1.3-0.5-2.4-0.8-3.4c-0.3-1-0.6-1.9-0.9-2.8c-0.3-0.9-0.7-1.7-1.1-2.5c-0.4-0.8-0.9-1.6-1.4-2.5l1.7-1.1
				c0.5,0.8,0.9,1.6,1.3,2.3c0.3,0.7,0.6,1.4,0.9,2.1c0.2,0.7,0.4,1.3,0.6,2C307.6,226,307.8,226.7,307.9,227.5z"/>
			<path d="M318.8,223c-0.1,0.7-0.3,1.4-0.4,2.1c-0.1,0.7-0.3,1.3-0.6,2s-0.5,1.4-0.9,2.1c-0.3,0.7-0.8,1.5-1.3,2.3l-1.7-1.1
				c0.5-0.9,1-1.7,1.4-2.5c0.4-0.8,0.8-1.6,1.1-2.5c0.3-0.9,0.6-1.8,0.9-2.8c0.3-1,0.5-2.1,0.8-3.4h1.4c0.2,1.3,0.5,2.4,0.8,3.4
				c0.3,1,0.6,1.9,0.9,2.8c0.3,0.9,0.7,1.7,1.1,2.5c0.4,0.8,0.9,1.6,1.4,2.5l-1.7,1.1c-0.5-0.8-0.9-1.6-1.3-2.3
				c-0.3-0.7-0.6-1.4-0.9-2.1s-0.4-1.3-0.6-2C319,224.4,318.9,223.7,318.8,223z"/>
		</g>
		<g>
			<path class="st8" d="M257.7,246c0,0.3,0.1,0.6,0.3,0.7c0.2,0.2,0.5,0.3,0.9,0.3c0.4,0,0.7-0.1,1-0.3c0.2-0.2,0.3-0.4,0.3-0.8
				v-1.9h0.9v1.9c0,0.4,0.1,0.7,0.3,0.8c0.2,0.2,0.5,0.2,0.8,0.2c0.4,0,0.6-0.1,0.8-0.3c0.2-0.2,0.3-0.4,0.3-0.8v-1.9h0.9v1.9
				c0,0.2,0,0.4,0.1,0.5c0.1,0.1,0.2,0.2,0.3,0.3c0.1,0.1,0.2,0.1,0.4,0.2c0.1,0,0.3,0.1,0.4,0.1h0.3c0.2,0,0.3,0.2,0.3,0.5
				c0,0.3-0.1,0.5-0.3,0.5h-0.3c-0.3,0-0.6-0.1-0.9-0.2s-0.5-0.4-0.7-0.7c-0.2,0.3-0.4,0.6-0.7,0.7s-0.5,0.2-0.8,0.2
				c-0.3,0-0.6-0.1-0.9-0.2s-0.5-0.4-0.7-0.7c-0.2,0.3-0.5,0.6-0.7,0.7c-0.3,0.1-0.6,0.2-0.9,0.2c-0.3,0-0.5,0-0.7-0.1
				s-0.4-0.2-0.5-0.4v0.3c0,0.5-0.1,0.9-0.2,1.3c-0.2,0.4-0.4,0.8-0.7,1.1c-0.3,0.3-0.6,0.6-1,0.8s-0.9,0.3-1.4,0.3h-0.8
				c-1,0-1.8-0.3-2.3-0.9c-0.6-0.6-0.8-1.5-0.8-2.6v-2.4h0.9v2.3c0,0.4,0,0.7,0.1,1.1c0.1,0.3,0.2,0.6,0.4,0.8s0.5,0.4,0.8,0.5
				c0.3,0.1,0.7,0.2,1.1,0.2h0.6c0.4,0,0.8-0.1,1.1-0.2c0.3-0.1,0.6-0.3,0.8-0.6c0.2-0.2,0.4-0.5,0.5-0.8c0.1-0.3,0.2-0.6,0.2-1
				v-3.6h0.9V246z M260.3,242.4h-1.1v-1h1.1V242.4z M261.2,240.8h-1.1v-0.9h1.1V240.8z M262,242.4H261v-1h1.1V242.4z"/>
			<path class="st8" d="M266.6,247.1c0.4,0,0.7-0.1,0.9-0.3c0.2-0.2,0.3-0.4,0.3-0.8v-1.9h0.9v1.9c0,0.2,0,0.4,0.1,0.5
				s0.2,0.2,0.3,0.3c0.1,0.1,0.2,0.1,0.4,0.2c0.1,0,0.3,0.1,0.4,0.1h0.4c0.2,0,0.3,0.2,0.3,0.5c0,0.3-0.1,0.5-0.3,0.5h-0.4
				c-0.3,0-0.6-0.1-0.9-0.2s-0.5-0.4-0.7-0.7c-0.2,0.3-0.4,0.6-0.7,0.7c-0.3,0.1-0.6,0.2-0.9,0.2h-1c-0.1,0-0.2,0-0.2-0.1
				c0-0.1-0.1-0.2-0.1-0.3c0-0.2,0-0.3,0.1-0.4c0-0.1,0.1-0.1,0.2-0.1H266.6z M267.4,250.5h-1v-1h1V250.5z M269.2,250.5h-1v-1h1
				V250.5z"/>
			<path class="st8" d="M271.4,247.1c0.4,0,0.6-0.1,0.8-0.3c0.2-0.2,0.3-0.4,0.3-0.8v-1.9h0.9v1.9c0,0.6-0.2,1.1-0.5,1.5
				c-0.4,0.3-0.8,0.5-1.5,0.5h-1.3c-0.1,0-0.2,0-0.2-0.1c0-0.1-0.1-0.2-0.1-0.3c0-0.2,0-0.3,0.1-0.4c0-0.1,0.1-0.1,0.2-0.1H271.4z
				 M271.4,250.5h-1.1v-1h1.1V250.5z M272.3,252.1h-1.1v-1h1.1V252.1z M273.1,250.5H272v-1h1.1V250.5z"/>
			<path class="st8" d="M281.6,245.8c0,0.4,0.1,0.7,0.2,0.9c0.2,0.2,0.4,0.4,0.8,0.4h0.2c0.1,0,0.2,0,0.2,0.1c0,0.1,0.1,0.2,0.1,0.3
				c0,0.2,0,0.3-0.1,0.4c0,0.1-0.1,0.1-0.2,0.1h-0.2c-0.4,0-0.8-0.1-1.1-0.3c-0.3-0.2-0.5-0.5-0.6-1c-0.1,0.1-0.2,0.2-0.4,0.3
				s-0.3,0.2-0.5,0.2c-0.2,0-0.4,0.1-0.5,0.1c-0.2,0-0.3,0-0.5,0c-0.7,0-1.2-0.2-1.5-0.5c-0.3-0.3-0.5-0.9-0.5-1.6
				c0-0.3,0-0.7,0.1-1c0.1-0.3,0.2-0.6,0.4-0.9c0.2-0.3,0.4-0.5,0.7-0.6c0.3-0.2,0.6-0.2,1-0.2h1.5v-0.9h0.9V245.8z M279.2,246.6
				c0.5,0,0.8-0.1,1.1-0.3s0.4-0.4,0.4-0.7v-2h-1.4c-0.5,0-0.8,0.2-1.1,0.5s-0.4,0.7-0.4,1.2c0,0.5,0.1,0.9,0.4,1
				C278.4,246.5,278.8,246.6,279.2,246.6z"/>
			<path class="st8" d="M285.5,247.1c-0.4-0.3-0.8-0.6-1-0.9c-0.3-0.4-0.4-0.8-0.4-1.2c0-0.3,0.1-0.6,0.2-0.9
				c0.1-0.3,0.3-0.5,0.5-0.7c0.2-0.2,0.5-0.4,0.8-0.5c0.3-0.1,0.6-0.2,1-0.2s0.7,0.1,1,0.2c0.3,0.1,0.5,0.3,0.7,0.5
				c0.2,0.2,0.3,0.5,0.4,0.7c0.1,0.3,0.1,0.5,0.1,0.8c0,0.9-0.4,1.6-1.3,2.2h2.5c0.2,0,0.3,0.2,0.3,0.5c0,0.3-0.1,0.5-0.3,0.5h-1.5
				c-0.4,0-0.8,0-1.1,0s-0.6-0.1-0.8-0.2c-0.1,0.1-0.3,0.1-0.5,0.1c-0.2,0-0.4,0-0.6,0.1c-0.2,0-0.4,0-0.6,0s-0.3,0-0.5,0h-1.6
				c-0.1,0-0.2,0-0.2-0.1c0-0.1-0.1-0.2-0.1-0.3c0-0.2,0-0.3,0.1-0.4c0-0.1,0.1-0.1,0.2-0.1H285.5z M286.4,243.6
				c-0.5,0-0.8,0.1-1.1,0.4c-0.3,0.3-0.4,0.6-0.4,1.1c0,0.2,0,0.4,0.1,0.6c0.1,0.2,0.2,0.4,0.4,0.5c0.1,0.2,0.3,0.3,0.5,0.4
				c0.2,0.1,0.4,0.2,0.5,0.3c0.1-0.1,0.3-0.2,0.5-0.3c0.2-0.1,0.3-0.2,0.4-0.4c0.1-0.1,0.2-0.3,0.3-0.5s0.1-0.4,0.1-0.6
				c0-0.5-0.1-0.8-0.4-1.1C287.2,243.7,286.8,243.6,286.4,243.6z M286.1,241.4H285v-1h1.1V241.4z M287.8,241.4h-1.1v-1h1.1V241.4z"
				/>
			<path class="st8" d="M290.9,247.1c0.4,0,0.7-0.1,0.9-0.3c0.2-0.2,0.3-0.4,0.3-0.8v-1.9h0.9v1.9c0,0.2,0,0.4,0.1,0.5
				s0.2,0.2,0.3,0.3c0.1,0.1,0.2,0.1,0.4,0.2c0.1,0,0.3,0.1,0.4,0.1h0.4c0.2,0,0.3,0.2,0.3,0.5c0,0.3-0.1,0.5-0.3,0.5h-0.4
				c-0.3,0-0.6-0.1-0.9-0.2s-0.5-0.4-0.7-0.7c-0.2,0.3-0.4,0.6-0.7,0.7c-0.3,0.1-0.6,0.2-0.9,0.2h-1c-0.1,0-0.2,0-0.2-0.1
				c0-0.1-0.1-0.2-0.1-0.3c0-0.2,0-0.3,0.1-0.4c0-0.1,0.1-0.1,0.2-0.1H290.9z M291.8,250.5h-1v-1h1V250.5z M293.6,250.5h-1v-1h1
				V250.5z"/>
			<path class="st8" d="M296.8,247.1c0.2,0,0.4,0,0.6,0c0.2,0,0.3,0,0.5,0c-0.5-0.2-0.9-0.3-1.2-0.5c-0.3-0.2-0.5-0.3-0.7-0.5
				c-0.2-0.2-0.3-0.4-0.3-0.6c0-0.2-0.1-0.4-0.1-0.7c0-0.3,0-0.5,0.1-0.8c0.1-0.3,0.2-0.5,0.4-0.7c0.2-0.2,0.4-0.4,0.7-0.5
				c0.3-0.1,0.6-0.2,1-0.2c0.3,0,0.7,0,0.9,0.1c0.3,0.1,0.5,0.2,0.7,0.5c0.2,0.2,0.4,0.5,0.5,0.8c0.1,0.3,0.2,0.7,0.2,1.2v0.6
				c0,0.7-0.2,1.2-0.6,1.6c-0.4,0.4-1.1,0.6-2,0.6h-3.2c-0.1,0-0.2,0-0.2-0.1c0-0.1-0.1-0.2-0.1-0.3c0-0.2,0-0.3,0.1-0.4
				c0-0.1,0.1-0.1,0.2-0.1H296.8z M297.9,243.5c-0.2,0-0.4,0-0.6,0.1c-0.2,0.1-0.3,0.2-0.4,0.3c-0.1,0.1-0.2,0.3-0.3,0.4
				c-0.1,0.2-0.1,0.3-0.1,0.5c0,0.2,0,0.3,0.1,0.5c0,0.1,0.1,0.3,0.3,0.4c0.2,0.1,0.4,0.3,0.7,0.5c0.3,0.2,0.8,0.4,1.4,0.6
				c0.3-0.2,0.4-0.6,0.4-1.1v-0.4c0-0.6-0.1-1-0.3-1.3C298.9,243.6,298.5,243.5,297.9,243.5z M297.6,241.2h-1.1v-1h1.1V241.2z
				 M299.4,241.2h-1.1v-1h1.1V241.2z"/>
			<path class="st8" d="M306.7,244.8c0.2,0.3,0.4,0.5,0.5,0.8s0.2,0.5,0.2,0.7c0,0.5-0.2,0.9-0.5,1.2c-0.3,0.3-0.8,0.5-1.5,0.5h-3.8
				l-0.1-0.9h3.7c0.4,0,0.6-0.1,0.8-0.2c0.2-0.2,0.3-0.4,0.3-0.6c0-0.1,0-0.3-0.1-0.4c-0.1-0.2-0.2-0.3-0.3-0.4l-2.5-2.8l0.7-0.6
				L306.7,244.8z"/>
			<path class="st8" d="M313.2,244.7c-0.2,0-0.4,0-0.6-0.1c-0.2-0.1-0.4-0.2-0.5-0.4c0,0.2,0,0.4,0,0.7c0,0.2,0,0.5,0,0.7v3.3h-0.9
				v-3.3c0-0.5,0-1,0-1.4c0-0.4-0.1-0.8-0.1-1.1s-0.1-0.7-0.2-1c-0.1-0.3-0.2-0.6-0.3-0.9l0.8-0.3c0.1,0.2,0.1,0.4,0.2,0.6
				c0,0.2,0.1,0.3,0.1,0.5c0,0.2,0.1,0.3,0.1,0.4c0,0.1,0.1,0.3,0.1,0.5c0.1,0.3,0.2,0.6,0.4,0.8c0.2,0.2,0.4,0.3,0.7,0.3
				c0.3,0,0.5-0.1,0.8-0.3c0.2-0.2,0.3-0.4,0.3-0.7c0-0.2,0-0.5-0.1-0.8c0-0.3-0.1-0.7-0.2-1l0.9-0.2c0.1,0.3,0.1,0.7,0.2,1
				c0,0.3,0.1,0.7,0.1,1c0,0.3,0,0.6-0.1,0.8c-0.1,0.2-0.2,0.4-0.4,0.6c-0.2,0.2-0.4,0.3-0.6,0.4
				C313.7,244.7,313.5,244.7,313.2,244.7z"/>
			<path class="st8" d="M316.4,246.9c0-0.3,0-0.6,0.1-0.9c0.1-0.3,0.2-0.7,0.4-1.1c0.2-0.4,0.5-0.8,0.9-1.3c0.4-0.5,0.8-1.1,1.4-1.7
				l-0.6-0.6l0.5-0.6c0.9,0.7,1.6,1.4,2.1,2c0.5,0.6,1,1.1,1.3,1.6c0.3,0.5,0.5,0.9,0.6,1.3c0.1,0.4,0.2,0.8,0.2,1.2
				c0,0.4-0.1,0.7-0.2,1c-0.1,0.3-0.3,0.5-0.5,0.7c-0.2,0.2-0.4,0.3-0.6,0.4c-0.2,0.1-0.5,0.1-0.7,0.1c-0.3,0-0.6-0.1-0.9-0.2
				c-0.2-0.1-0.5-0.3-0.6-0.5c-0.2,0.2-0.4,0.4-0.7,0.5c-0.3,0.1-0.5,0.2-0.8,0.2c-0.6,0-1.1-0.2-1.4-0.5S316.4,247.5,316.4,246.9z
				 M322.5,246.7c0-0.3,0-0.5-0.1-0.8c-0.1-0.3-0.2-0.6-0.4-1c-0.2-0.4-0.5-0.7-0.8-1.1c-0.3-0.4-0.8-0.9-1.3-1.3
				c-0.9,0.9-1.5,1.7-2,2.4c-0.4,0.7-0.6,1.3-0.6,1.9c0,0.4,0.1,0.8,0.3,1c0.2,0.2,0.5,0.3,0.8,0.3c0.1,0,0.3,0,0.4-0.1
				c0.1,0,0.3-0.1,0.4-0.2c0.1-0.1,0.2-0.2,0.3-0.4c0.1-0.1,0.1-0.3,0.1-0.5v-0.9h0.8v0.9c0,0.2,0,0.3,0,0.5c0,0.1-0.1,0.2-0.1,0.3
				c0.1,0.1,0.3,0.3,0.5,0.3c0.2,0.1,0.4,0.1,0.6,0.1c0.3,0,0.6-0.1,0.8-0.3C322.4,247.4,322.5,247.1,322.5,246.7z"/>
		</g>
		<g>
			<path d="M257.5,280.6c0,0.4,0.1,0.7,0.3,0.9c0.2,0.2,0.4,0.3,0.8,0.3h0.4c0.2,0,0.3,0.1,0.3,0.3c0.1,0.2,0.1,0.4,0.1,0.7
				c0,0.4,0,0.6-0.1,0.8c-0.1,0.2-0.2,0.3-0.3,0.3h-0.4c-0.6,0-1.2-0.1-1.5-0.3s-0.7-0.6-0.9-1.1c-0.3,0.4-0.7,0.6-1.1,0.7
				c-0.4,0.1-0.8,0.1-1.2,0.1c-0.9,0-1.6-0.3-2-0.8c-0.5-0.5-0.7-1.3-0.7-2.3c0-0.5,0.1-0.9,0.2-1.4c0.1-0.4,0.3-0.8,0.6-1.2
				c0.3-0.3,0.6-0.6,1-0.8c0.4-0.2,0.9-0.3,1.4-0.3h1.5v-1.3h1.9V280.6z M254.2,281.4c0.5,0,0.9-0.1,1.1-0.3
				c0.3-0.2,0.4-0.5,0.4-0.8v-1.8h-1.3c-0.5,0-0.9,0.2-1.1,0.5c-0.2,0.3-0.3,0.7-0.3,1.2c0,0.4,0.1,0.8,0.3,1
				C253.4,281.3,253.7,281.4,254.2,281.4z"/>
			<path d="M260.1,281.9c0.4,0,0.8,0,1.3,0c0.5,0,0.9-0.1,1.4-0.2l-2.4-3.1l1-1.8h4.9c0.6,0,1.1,0.1,1.5,0.4c0.4,0.3,0.6,0.6,0.7,1
				c0,0.1,0,0.2,0.1,0.3s0,0.2,0,0.3c0,0.2,0,0.3-0.1,0.5s-0.1,0.4-0.3,0.6c-0.1,0.2-0.3,0.5-0.6,0.8s-0.6,0.6-1,1
				c0.3,0.1,0.6,0.2,1,0.2c0.3,0,0.7,0,1.1,0h1.3c0.2,0,0.3,0.1,0.3,0.3c0.1,0.2,0.1,0.4,0.1,0.7c0,0.4,0,0.6-0.1,0.8
				c-0.1,0.2-0.2,0.3-0.3,0.3h-1.7c-0.4,0-0.7,0-1.1,0c-0.3,0-0.6-0.1-0.9-0.1c-0.3-0.1-0.6-0.2-0.9-0.3c-0.3-0.1-0.5-0.3-0.8-0.5
				c-0.3,0.2-0.7,0.4-1,0.5c-0.3,0.1-0.7,0.2-1,0.3c-0.3,0.1-0.7,0.1-1.1,0.1c-0.4,0-0.8,0-1.2,0H259c-0.2,0-0.3-0.1-0.3-0.3
				c-0.1-0.2-0.1-0.4-0.1-0.7c0-0.4,0-0.6,0.1-0.8c0.1-0.2,0.2-0.3,0.3-0.3H260.1z M266.5,279.2c0-0.3-0.3-0.5-0.8-0.5h-3l2,2.6
				c0.7-0.5,1.1-1,1.4-1.3C266.3,279.6,266.5,279.4,266.5,279.2z"/>
			<path d="M271.7,281.9c0.8,0,1.3-0.4,1.3-1.2v-2.2h1.9v2.3c0,1-0.3,1.8-0.8,2.4c-0.5,0.5-1.3,0.8-2.2,0.8h-1.9
				c-0.2,0-0.3-0.1-0.3-0.3c-0.1-0.2-0.1-0.4-0.1-0.7c0-0.4,0-0.6,0.1-0.8c0.1-0.2,0.2-0.3,0.3-0.3H271.7z M271.9,287.9h-1.9v-1.8
				h1.9V287.9z M274.6,287.9h-1.9v-1.8h1.9V287.9z"/>
			<path d="M283.4,279.3c0.3,0.4,0.6,0.8,0.7,1.2c0.2,0.4,0.2,0.8,0.2,1.1c0,0.3-0.1,0.7-0.2,0.9c-0.1,0.3-0.3,0.6-0.5,0.8
				c-0.2,0.2-0.5,0.4-0.9,0.5c-0.4,0.1-0.8,0.2-1.2,0.2h-5l-0.1-2.1h4.8c0.6,0,0.9-0.2,0.9-0.7c0-0.2-0.1-0.5-0.3-0.7l-3.2-3.6
				l1.5-1.4L283.4,279.3z"/>
			<path d="M288,286.5c0.5,0,0.9-0.1,1.2-0.2s0.6-0.3,0.9-0.5c0.2-0.2,0.4-0.5,0.5-0.8c0.1-0.3,0.2-0.6,0.2-1h-1.3
				c-0.6,0-1.2-0.1-1.6-0.2c-0.4-0.1-0.7-0.3-1-0.6c-0.2-0.3-0.4-0.6-0.5-1c-0.1-0.4-0.1-0.8-0.1-1.3c0-0.5,0.1-0.9,0.2-1.4
				s0.3-0.8,0.6-1.1c0.3-0.3,0.6-0.6,1-0.8c0.4-0.2,0.9-0.3,1.4-0.3c0.4,0,0.8,0.1,1.2,0.2c0.4,0.1,0.7,0.4,1,0.7
				c0.3,0.3,0.5,0.7,0.7,1.2c0.2,0.5,0.3,1.1,0.3,1.7v2.6c0,0.6-0.1,1.2-0.3,1.8c-0.2,0.6-0.5,1.1-0.9,1.5c-0.4,0.4-0.9,0.8-1.5,1.1
				c-0.6,0.3-1.2,0.4-1.9,0.4h-1.9l-0.1-2H288z M288.2,280.8c0,0.4,0.1,0.7,0.3,0.9c0.2,0.2,0.6,0.3,1.2,0.3h1.2v-0.9
				c0-0.6-0.1-1.1-0.4-1.4s-0.6-0.4-1-0.4c-0.4,0-0.7,0.1-1,0.4C288.3,279.9,288.2,280.3,288.2,280.8z"/>
			<path d="M297.8,285.1v-4.6c0-0.8,0-1.4-0.1-1.9c0-0.5-0.1-1-0.2-1.5c-0.1-0.4-0.2-0.9-0.3-1.2c-0.1-0.4-0.2-0.8-0.3-1.3l1.8-0.7
				c0.2,0.5,0.3,1,0.4,1.4c0.1,0.5,0.2,0.9,0.3,1.4c0.1,0.5,0.1,1,0.2,1.6c0,0.6,0.1,1.3,0.1,2v4.7H297.8z"/>
			<path d="M307.8,275.4c0.1,0.5,0.1,0.9,0.1,1.3c0,0.1,0,0.2,0,0.2c0,0.1,0,0.2,0,0.3c0.1,0.2,0.3,0.3,0.5,0.3
				c0.2,0.1,0.3,0.1,0.5,0.1c0.4,0,0.6-0.1,0.8-0.3c0.2-0.2,0.3-0.4,0.3-0.7c0-0.5-0.1-1.2-0.3-2.2l1.8-0.4c0.1,0.5,0.2,0.9,0.2,1.4
				c0,0.5,0.1,0.9,0.1,1.3c0,0.4-0.1,0.8-0.2,1.2s-0.3,0.7-0.5,0.9c-0.2,0.3-0.5,0.5-0.8,0.6s-0.7,0.2-1.1,0.2c-0.3,0-0.7-0.1-1-0.2
				c-0.3-0.1-0.6-0.3-0.9-0.7c-0.2,0.3-0.5,0.5-0.8,0.6c-0.3,0.1-0.7,0.2-1.1,0.2c-0.6,0-1-0.2-1.3-0.4c0,0.2,0,0.5,0.1,0.7
				c0,0.3,0,0.5,0,0.8v4.4H302v-4.6c0-0.8,0-1.4-0.1-1.9c0-0.5-0.1-1-0.2-1.5c-0.1-0.4-0.2-0.9-0.3-1.2c-0.1-0.4-0.2-0.8-0.3-1.3
				l1.8-0.7c0.1,0.4,0.2,0.8,0.3,1.2c0.1,0.4,0.2,0.7,0.3,1.1c0,0.2,0.1,0.3,0.2,0.5c0.1,0.2,0.1,0.3,0.2,0.4
				c0.1,0.1,0.2,0.2,0.4,0.3c0.1,0.1,0.3,0.1,0.5,0.1c0.3,0,0.6-0.1,0.8-0.3c0.2-0.2,0.3-0.4,0.3-0.7c0-0.4-0.1-1.1-0.3-2.2l1.8-0.4
				C307.6,274.5,307.7,274.9,307.8,275.4z"/>
			<path d="M313.4,282.4c0-0.4,0-0.8,0.1-1.2c0.1-0.4,0.3-0.9,0.5-1.4c0.3-0.5,0.6-1.1,1.1-1.7c0.5-0.6,1.1-1.4,1.8-2.2l-0.8-0.7
				l1.2-1.4c1.2,1,2.2,1.9,3,2.7c0.8,0.8,1.4,1.5,1.8,2.2c0.4,0.7,0.7,1.3,0.9,1.8c0.2,0.6,0.2,1.1,0.2,1.6c0,0.5-0.1,1-0.3,1.4
				c-0.2,0.4-0.4,0.7-0.7,1c-0.3,0.3-0.6,0.5-0.9,0.6s-0.7,0.2-1,0.2c-0.5,0-0.9-0.1-1.2-0.2c-0.3-0.2-0.6-0.4-0.9-0.7
				c-0.3,0.3-0.6,0.5-1,0.7c-0.4,0.2-0.7,0.2-1.1,0.2c-0.9,0-1.5-0.3-2-0.8S313.4,283.3,313.4,282.4z M321.3,282
				c0-0.3,0-0.6-0.1-0.9c-0.1-0.3-0.2-0.7-0.4-1.1c-0.2-0.4-0.5-0.9-0.9-1.4c-0.4-0.5-1-1-1.6-1.6c-1.1,1.1-1.8,2.1-2.3,2.9
				c-0.5,0.8-0.7,1.5-0.7,2.1c0,0.4,0.1,0.7,0.3,0.9c0.2,0.2,0.5,0.3,0.9,0.3c0.3,0,0.6-0.1,0.8-0.3c0.2-0.2,0.4-0.5,0.4-1v-1.1h1.7
				v0.9c0,0.2,0,0.4,0,0.6c0,0.2-0.1,0.3-0.1,0.5c0.3,0.3,0.7,0.4,1.1,0.4c0.3,0,0.6-0.1,0.8-0.3C321.2,282.7,321.3,282.4,321.3,282
				z"/>
		</g>
		<g>
			<path d="M164.9,281.1c0-0.4,0-0.7,0.1-1c0.1-0.3,0.2-0.6,0.4-1c0.2-0.3,0.4-0.7,0.7-1c0.3-0.3,0.6-0.7,1-1.1l-0.9-0.9l1.3-1.4
				c0.8,0.8,1.4,1.4,1.9,2c0.5,0.6,0.9,1.1,1.2,1.5c0.3,0.5,0.5,0.9,0.7,1.3c0.1,0.4,0.2,0.8,0.2,1.2c0,0.5-0.1,0.9-0.3,1.3
				c-0.2,0.4-0.4,0.7-0.7,1s-0.7,0.5-1.1,0.7c-0.4,0.2-0.9,0.2-1.4,0.2s-0.9-0.1-1.3-0.2c-0.4-0.1-0.7-0.3-1-0.6
				c-0.3-0.3-0.5-0.6-0.7-0.9C165,281.9,164.9,281.6,164.9,281.1z M169.7,280.7c0-0.2,0-0.3-0.1-0.4c0-0.1-0.1-0.3-0.2-0.5
				c-0.1-0.2-0.2-0.4-0.4-0.6c-0.2-0.2-0.4-0.5-0.7-0.8c-0.3,0.3-0.6,0.6-0.8,0.8c-0.2,0.2-0.3,0.4-0.4,0.6
				c-0.1,0.2-0.2,0.3-0.2,0.5c0,0.1,0,0.3,0,0.4c0,0.3,0.1,0.6,0.4,0.9s0.6,0.4,1.1,0.4c0.5,0,0.8-0.1,1.1-0.4
				C169.5,281.3,169.7,281,169.7,280.7z"/>
			<path d="M175.7,285.6c-0.2,0.6-0.6,1.1-1,1.5c-0.4,0.4-0.9,0.8-1.4,1c-0.6,0.2-1.2,0.4-1.8,0.4h-1.2l-0.1-2h0.8
				c0.6,0,1-0.1,1.4-0.2c0.4-0.2,0.7-0.4,1-0.6c0.3-0.3,0.4-0.6,0.5-0.9c0.1-0.3,0.2-0.7,0.2-1v-5.2h1.9v5.2
				C176,284.4,175.9,285,175.7,285.6z"/>
			<path d="M180.8,284c-0.4,0-0.7,0-1-0.1c-0.3-0.1-0.6-0.3-0.8-0.5s-0.4-0.5-0.6-0.9c-0.1-0.4-0.2-0.8-0.2-1.4v-8.7h1.9v8.3
				c0,0.4,0.1,0.7,0.3,0.9c0.2,0.2,0.5,0.3,0.8,0.3h0.4c0.3,0,0.4,0.3,0.4,1c0,0.7-0.1,1.1-0.4,1.1H180.8z"/>
			<path d="M187,282.9c-0.3,0.2-0.7,0.4-1,0.5s-0.7,0.2-1,0.3c-0.4,0.1-0.8,0.1-1.2,0.2c-0.4,0-0.9,0.1-1.5,0.1h-0.7
				c-0.2,0-0.3-0.1-0.3-0.3c-0.1-0.2-0.1-0.4-0.1-0.7c0-0.4,0-0.6,0.1-0.8c0.1-0.2,0.2-0.3,0.3-0.3h0.8c0.5,0,0.9,0,1.3,0
				c0.4,0,0.7-0.1,1-0.1c0.3,0,0.6-0.1,0.9-0.2c0.3-0.1,0.5-0.2,0.8-0.4l2.4-1.4c-0.1-0.2-0.2-0.3-0.3-0.4c-0.1-0.1-0.2-0.2-0.3-0.3
				c-0.1-0.1-0.3-0.1-0.4-0.2c-0.2,0-0.4-0.1-0.7-0.1h-4l0.1-2.1h4.2c0.3,0,0.7,0.1,1,0.2c0.3,0.1,0.7,0.3,1,0.6s0.6,0.7,0.8,1.2
				c0.3,0.5,0.5,1.2,0.6,2L187,282.9z M187.3,288h-2.1v-1.9h2.1V288z"/>
			<path d="M192.9,272.4h1.9V284h-1.9V272.4z"/>
			<path d="M203.4,279.6c-0.6,0-1-0.2-1.3-0.4c0,0.2,0,0.5,0.1,0.7c0,0.3,0,0.5,0,0.8v4.4h-1.9v-4.6c0-0.8,0-1.4-0.1-1.9
				c0-0.5-0.1-1-0.2-1.5c-0.1-0.4-0.2-0.9-0.3-1.2c-0.1-0.4-0.2-0.8-0.3-1.3l1.8-0.7c0.1,0.4,0.2,0.8,0.3,1.2
				c0.1,0.4,0.2,0.7,0.3,1.1c0,0.2,0.1,0.3,0.2,0.5c0.1,0.2,0.1,0.3,0.2,0.4c0.1,0.1,0.2,0.2,0.4,0.3c0.1,0.1,0.3,0.1,0.5,0.1
				c0.3,0,0.6-0.1,0.8-0.3c0.2-0.2,0.3-0.4,0.3-0.7c0-0.4-0.1-1.1-0.3-2.2l1.8-0.4c0.1,0.5,0.2,0.9,0.2,1.4c0.1,0.5,0.1,0.9,0.1,1.3
				c0,0.4-0.1,0.8-0.2,1.2c-0.1,0.4-0.3,0.7-0.5,0.9c-0.2,0.3-0.5,0.5-0.9,0.6C204.2,279.6,203.8,279.6,203.4,279.6z"/>
		</g>
		<g>
			<path class="st3" d="M241.2,268.7l-22.5,22.5l-1.6-1.6l6.7-6.7h-4.5v-2.3h6.8l2.3-2.3h-1.1v0h-7.9l5.6-5.6v3.4h5.6l9-9
				L241.2,268.7z M232.9,278.4h6.7v-2.3h-4.5L232.9,278.4z M235.1,280.6h-4.5l-2.3,2.3h5.6v3.4l5.6-5.6L235.1,280.6L235.1,280.6z"/>
			<rect x="216" y="266" class="st5" width="27" height="27"/>
		</g>
	</g>
</g>
<g id="Isolation_Mode">
</g>
</svg>
