<svg xmlns="http://www.w3.org/2000/svg" viewBox="0 0 1080 1080"><defs><style>.cls-1{fill:#fff;}.cls-2{fill:#a9afb0;}</style></defs><g id="Background"><rect width="1080" height="1080"/></g><g id="Graphic"><path class="cls-1" d="M173.86,993.6h-1v-12h1Zm0-24h-1v-12h1Zm0-24h-1v-12h1Zm0-24h-1v-12h1Zm0-24h-1v-12h1Zm0-24h-1v-12h1Zm0-24h-1v-12h1Zm0-24h-1v-12h1Zm0-24h-1v-12h1Zm0-24h-1v-12h1Zm0-24h-1v-12h1Zm0-24h-1v-12h1Zm.06-24-1,0c.06-4,.18-8,.34-12l1,0C174.1,697.58,174,701.62,173.92,705.61Zm1-23.94-1-.07c.27-4,.6-8,1-12l1,.09C175.51,673.67,175.19,677.69,174.92,681.67Zm2.25-23.86-1-.12c.47-4,1-8,1.6-11.91l1,.15C178.18,649.86,177.65,653.86,177.17,657.81Zm3.51-23.71-1-.17c.69-3.94,1.44-7.92,2.23-11.81l1,.2C182.11,626.21,181.36,630.17,180.68,634.1Zm4.76-23.49-1-.22c.9-3.9,1.86-7.82,2.86-11.67l1,.25C187.29,602.81,186.33,606.73,185.44,610.61Zm6-23.2-1-.28c1.1-3.84,2.27-7.71,3.47-11.5l1,.31C193.71,579.71,192.54,583.57,191.44,587.41Zm7.25-22.89-.95-.33c1.31-3.77,2.68-7.58,4.09-11.33l.94.35C201.36,557,200,560.76,198.69,564.52Zm8.46-22.5-.92-.38c1.5-3.69,3.08-7.43,4.69-11.09l.91.41C210.23,534.61,208.66,538.33,207.15,542Zm9.66-22-.91-.43c1.7-3.61,3.48-7.25,5.27-10.82l.9.45C220.27,512.78,218.5,516.41,216.81,520Zm10.8-21.45-.88-.47c1.89-3.52,3.86-7.06,5.84-10.52l.87.49C231.46,491.53,229.5,495.06,227.61,498.57Zm11.93-20.84-.86-.52c2.08-3.41,4.23-6.84,6.38-10.19l.85.54C243.75,470.91,241.61,474.33,239.54,477.73Zm13-20.16-.82-.57c2.24-3.29,4.57-6.6,6.91-9.83l.81.58C257.1,451,254.78,454.28,252.54,457.57Zm14-19.45-.8-.61c2.42-3.16,4.91-6.34,7.42-9.45l.78.63C271.49,431.79,269,435,266.59,438.12Zm15.05-18.67-.77-.65c2.59-3,5.25-6.09,7.91-9.05l.74.67C286.87,413.38,284.22,416.41,281.64,419.45Zm16-17.85-.73-.68c2.75-2.91,5.57-5.81,8.37-8.62l.71.7C303.19,395.81,300.38,398.7,297.64,401.6Zm16.91-17-.69-.73c2.89-2.75,5.85-5.49,8.81-8.16l.67.74C320.39,379.14,317.44,381.88,314.55,384.63Zm17.78-16.06-.65-.76c3-2.6,6.13-5.18,9.22-7.69l.63.78C338.45,363.4,335.36,366,332.33,368.57Zm18.59-15.1-.61-.79c3.15-2.42,6.38-4.84,9.6-7.19l.59.81C357.29,348.64,354.06,351.05,350.92,353.47Zm19.35-14.09-.57-.82c3.28-2.26,6.63-4.5,10-6.67l.54.84C376.88,334.89,373.54,337.13,370.27,339.38Zm20.05-13.05-.52-.85c3.4-2.09,6.87-4.15,10.3-6.13l.5.86C397.18,322.19,393.72,324.25,390.32,326.33Zm20.71-12-.48-.88c3.5-1.9,7.07-3.77,10.61-5.58l.45.89C418.08,310.6,414.52,312.48,411,314.37Zm21.3-10.85-.43-.9c3.58-1.71,7.24-3.39,10.88-5l.41.92C439.55,300.14,435.9,301.82,432.33,303.52Zm21.83-9.7-.38-.92c3.7-1.53,7.45-3,11.16-4.44l.36.94C461.6,290.81,457.85,292.3,454.16,293.82Zm22.39-8.55-.33-.94c3.77-1.33,7.6-2.62,11.38-3.84l.31.95C484.14,282.66,480.32,284,476.55,285.27Zm22.81-7.35-.28-1c3.83-1.12,7.72-2.2,11.57-3.22l.26,1C507.07,275.72,503.18,276.8,499.36,277.92Zm23.17-6.12-.23-1c3.87-.92,7.82-1.79,11.73-2.61l.2,1C530.33,270,526.4,270.89,522.53,271.8ZM546,266.92l-.18-1c3.93-.71,7.92-1.38,11.85-2l.15,1C553.9,265.55,549.92,266.21,546,266.92Zm23.69-3.63-.13-1c4-.5,8-.95,11.93-1.34l.1,1C577.64,262.34,573.63,262.79,569.69,263.29Zm23.84-2.37-.07-1c4-.29,8-.53,12-.71l0,1C601.55,260.39,597.52,260.63,593.53,260.92Zm23.94-1.12,0-1c3.13-.06,6.33-.09,9.51-.09h2.5v1H627C623.79,259.71,620.6,259.74,617.47,259.8Zm372-.09h-12v-1h12Zm-24,0h-12v-1h12Zm-24,0h-12v-1h12Zm-24,0h-12v-1h12Zm-24,0h-12v-1h12Zm-24,0h-12v-1h12Zm-24,0h-12v-1h12Zm-24,0h-12v-1h12Zm-24,0h-12v-1h12Zm-24,0h-12v-1h12Zm-24,0h-12v-1h12Zm-24,0h-12v-1h12Zm-24,0h-12v-1h12Zm-24,0h-12v-1h12Zm-24,0h-12v-1h12Z"/><path class="cls-2" d="M627,345.6h0a367.2,367.2,0,0,1,367.2,367.2V1080a0,0,0,0,1,0,0H259.77a0,0,0,0,1,0,0V712.8A367.2,367.2,0,0,1,627,345.6Z"/><path class="cls-1" d="M994.09,994.1h-12.5v-1h11.5v-4.29h1Zm-24.5,0h-12v-1h12Zm-24,0h-12v-1h12Zm-24,0h-12v-1h12Zm-24,0h-12v-1h12Zm-24,0h-12v-1h12Zm-24,0h-12v-1h12Zm-24,0h-12v-1h12Zm-24,0h-12v-1h12Zm-24,0h-12v-1h12Zm-24,0h-12v-1h12Zm-24,0h-12v-1h12Zm-24,0h-12v-1h12Zm-24,0h-12v-1h12Zm-24,0h-12v-1h12Zm-24,0h-12v-1h12Zm-24,0h-12v-1h12Zm-24,0h-12v-1h12Zm-24,0h-12v-1h12Zm-24,0h-12v-1h12Zm-24,0h-12v-1h12Zm-24,0h-12v-1h12Zm-24,0h-12v-1h12Zm-24,0h-12v-1h12Zm-24,0h-12v-1h12Zm-24,0h-12v-1h12Zm-24,0h-12v-1h12Zm-24,0h-12v-1h12Zm-24,0h-12v-1h12Zm-24,0h-12v-1h12Zm-24,0h-12v-1h12Zm-24,0h-12v-1h12Zm-24,0h-12v-1h12Zm-24,0h-12v-1h12Zm-24,0h-12v-1h12Zm-24,0h-12v-1h12Zm-24,0h-12v-1h12Zm-24,0h-12v-1h12Zm-18.7-5.31h-1v-12h1Zm907.19-12h-1v-12h1Zm-907.19-12h-1v-12h1Zm907.19-12h-1v-12h1Zm-907.19-12h-1v-12h1Zm907.19-12h-1v-12h1Zm-907.19-12h-1v-12h1Zm907.19-12h-1v-12h1Zm-907.19-12h-1v-12h1Zm907.19-12h-1v-12h1Zm-907.19-12h-1v-12h1Zm907.19-12h-1v-12h1Zm-907.19-12h-1v-12h1Zm907.19-12h-1v-12h1Zm-907.19-12h-1v-12h1Zm907.19-12h-1v-12h1Zm-907.19-12h-1v-12h1Zm907.19-12h-1v-12h1Zm-907.19-12h-1v-12h1Zm907.19-12h-1v-12h1Zm-907.19-12h-1v-12h1Zm907.19-12h-1v-12h1Zm-907.19-12h-1v-12h1Zm907.19-12h-1v-12h1Zm-907.19-12h-1v-12h1Zm907.19-12h-1v-12h1Zm-907.19-12h-1v-12h1Zm907.19-12h-1v-12h1Zm-907.19-12h-1v-12h1Zm907.19-12h-1v-12h1Zm-907.19-12h-1v-12h1Zm907.19-12h-1v-12h1Zm-907.19-12h-1v-12h1Zm907.19-12h-1v-12h1Zm-907.19-12h-1v-12h1Zm907.19-12h-1v-12h1Zm-907.19-12h-1v-12h1Zm907.19-12h-1v-12h1Zm-907.19-12h-1v-12h1Zm907.19-12h-1v-12h1Zm-907.19-12h-1v-12h1Zm907.19-12h-1v-12h1Zm-907.19-12h-1v-12h1Zm907.19-12h-1v-12h1Zm-907.19-12h-1v-12h1Zm907.19-12h-1v-12h1Zm-907.19-12h-1v-12h1Zm907.19-12h-1v-12h1Zm-907.19-12h-1v-12h1Zm907.19-12h-1v-12h1Zm-907.19-12h-1v-12h1Zm907.19-12h-1v-12h1Zm-907.19-12h-1v-12h1Zm907.19-12h-1v-12h1Zm-907.19-12h-1v-12h1Zm907.19-12h-1v-12h1Zm-907.19-12h-1v-12h1Zm907.19-12h-1v-12h1Zm-907.19-12h-1v-12h1Zm907.19-12h-1v-12h1Zm-907.19-12h-1v-12h1Zm907.19-12h-1v-12h1Zm-907.19-12h-1v-12h1Zm907.19-12h-1v-12h1Zm-907.19-12h-1v-12h1Zm907.19-12h-1v-12h1Zm-907.19-12h-1v-12h1Zm907.19-12h-1v-12h1Zm-907.19-12h-1v-12h1Zm907.19-12h-1v-12h1Zm-907.19-12h-1v-12h1Zm907.19-12h-1v-12h1Zm-907.19-12h-1v-12h1Zm907.19-12h-1v-12h1Zm-907.19-12h-1v-12h1Zm907.19-12h-1V86.9H984v-1h10.08ZM972,86.9H960v-1h12Zm-24,0H936v-1h12Zm-24,0H912v-1h12Zm-24,0H888v-1h12Zm-24,0H864v-1h12Zm-24,0H840v-1h12Zm-24,0H816v-1h12Zm-24,0H792v-1h12Zm-24,0H768v-1h12Zm-24,0H744v-1h12Zm-24,0H720v-1h12Zm-24,0H696v-1h12Zm-24,0H672v-1h12Zm-24,0H648v-1h12Zm-24,0H624v-1h12Zm-24,0H600v-1h12Zm-24,0H576v-1h12Zm-24,0H552v-1h12Zm-24,0H528v-1h12Zm-24,0H504v-1h12Zm-24,0H480v-1h12Zm-24,0H456v-1h12Zm-24,0H432v-1h12Zm-24,0H408v-1h12Zm-24,0H384v-1h12Zm-24,0H360v-1h12Zm-24,0H336v-1h12Zm-24,0H312v-1h12Zm-24,0H288v-1h12Zm-24,0H264v-1h12Zm-24,0H240v-1h12Zm-24,0H216v-1h12Zm-24,0H192v-1h12Zm-24,0H168v-1h12Zm-24,0H144v-1h12Zm-24,0H120v-1h12Zm-24,0H96v-1h12Z"/></g></svg>