<svg xmlns="http://www.w3.org/2000/svg" viewBox="0 0 1920 1080"><defs><style>.cls-1{fill:#fff;}.cls-2{fill:#a9afb0;}</style></defs><g id="Background"><rect width="1920" height="1080"/></g><g id="Graphic"><path class="cls-1" d="M258.9,970.34h-6.53L251,974h-2.1l5.81-15h2.07l5.74,15h-2.24ZM253,968.63h5.23l-2.58-7Z"/><path class="cls-1" d="M265.84,974h-1.9V963.31h1.86v2a3.31,3.31,0,0,1,3.06-2h.83v1.8h-.85a2.51,2.51,0,0,0-2.18,1.18,5.42,5.42,0,0,0-.82,3.17Z"/><path class="cls-1" d="M271.21,964.88v-1.57h1.89v-3.45H275v3.45h2.7v1.57H275v6a1.78,1.78,0,0,0,.3,1.18,1.34,1.34,0,0,0,1,.33H278V974H276a3,3,0,0,1-2.19-.74,2.88,2.88,0,0,1-.75-2.15v-6.26Z"/><path class="cls-1" d="M281.34,961.58h-1.91V959h1.91Zm0,12.45h-1.91V963.31h1.91Z"/><path class="cls-1" d="M287.78,974.29a5.29,5.29,0,0,1-3.31-.95,3.43,3.43,0,0,1-1.33-2.59l1.9-.28a2.65,2.65,0,0,0,.81,1.75,2.94,2.94,0,0,0,1.93.56,2.66,2.66,0,0,0,1.69-.46,1.63,1.63,0,0,0,.58-1.36c0-.85-.63-1.36-1.88-1.54l-1.54-.24a4.3,4.3,0,0,1-2.35-1,2.67,2.67,0,0,1-.81-2,2.74,2.74,0,0,1,1.1-2.24,4.58,4.58,0,0,1,2.93-.87,4.68,4.68,0,0,1,2.93.85,3.77,3.77,0,0,1,1.36,2.46l-1.76.25a2.81,2.81,0,0,0-.86-1.58,3.26,3.26,0,0,0-3.27-.06,1.36,1.36,0,0,0-.19,2.07,2.47,2.47,0,0,0,1.28.49l1.71.28q3.26.53,3.25,3.07a3,3,0,0,1-1.12,2.48A4.61,4.61,0,0,1,287.78,974.29Z"/><path class="cls-1" d="M292.5,964.88v-1.57h1.88v-3.45h1.9v3.45H299v1.57h-2.7v6a1.78,1.78,0,0,0,.3,1.18,1.34,1.34,0,0,0,1,.33h1.63V974h-1.92a3,3,0,0,1-2.19-.74,2.88,2.88,0,0,1-.75-2.15v-6.26Z"/><path class="cls-1" d="M302.62,961.58h-1.9V959h1.9Zm0,12.45h-1.9V963.31h1.9Z"/><path class="cls-1" d="M309.62,972.66a2.74,2.74,0,0,0,1.93-.68,3,3,0,0,0,.88-1.9l1.86.22a4.31,4.31,0,0,1-1.48,2.91,5.28,5.28,0,0,1-6.9-.43,6.81,6.81,0,0,1,0-8.18,4.7,4.7,0,0,1,3.68-1.55,4.92,4.92,0,0,1,3.24,1,4.48,4.48,0,0,1,1.5,2.92l-1.95.21a2.62,2.62,0,0,0-2.81-2.53,2.68,2.68,0,0,0-2.26,1.06,4.81,4.81,0,0,0-.81,3,4.66,4.66,0,0,0,.81,2.91A2.73,2.73,0,0,0,309.62,972.66Z"/><path class="cls-1" d="M325.28,972.44h.51V974h-1a2.33,2.33,0,0,1-1.41-.41,1.49,1.49,0,0,1-.64-1.11,3.76,3.76,0,0,1-3.39,1.78,4,4,0,0,1-2.7-.88,2.83,2.83,0,0,1-1-2.25,3,3,0,0,1,.84-2.19,4.28,4.28,0,0,1,2.4-1.12l3.12-.53a.72.72,0,0,0,.67-.77,1.78,1.78,0,0,0-.62-1.42,2.5,2.5,0,0,0-1.72-.55,2.78,2.78,0,0,0-1.73.49,2.53,2.53,0,0,0-.87,1.5l-1.81-.21a3.64,3.64,0,0,1,1.46-2.4,4.9,4.9,0,0,1,3-.91,4.23,4.23,0,0,1,3,1,3.53,3.53,0,0,1,1.11,2.73v4.82a.93.93,0,0,0,.17.63A.87.87,0,0,0,325.28,972.44Zm-7.8-1.42a1.59,1.59,0,0,0,.54,1.28,2.26,2.26,0,0,0,1.52.46,2.87,2.87,0,0,0,2.23-1,3.64,3.64,0,0,0,.88-2.51v-.62l-3.44.6a2.29,2.29,0,0,0-1.29.59A1.66,1.66,0,0,0,317.48,971Z"/><path class="cls-1" d="M329.05,974h-1.91V959h1.91Z"/><path class="cls-1" d="M333.58,974h-1.9V959h1.9Z"/><path class="cls-1" d="M338.88,975l.35-.94L335,963.31h2l3.17,8.42,3.2-8.42h1.93l-4.68,11.92a4.6,4.6,0,0,1-1.45,2.16,3.62,3.62,0,0,1-2.21.6h-1.11v-1.61H337a2,2,0,0,0,1.18-.3A2.15,2.15,0,0,0,338.88,975Z"/><path class="cls-1" d="M353.1,974H351V959h10.52v1.76H353.1v4.89h7.6v1.75h-7.6Z"/><path class="cls-1" d="M364.73,974h-1.9V963.31h1.86v2a3.3,3.3,0,0,1,3.06-2h.83v1.8h-.85a2.51,2.51,0,0,0-2.18,1.18,5.42,5.42,0,0,0-.82,3.17Z"/><path class="cls-1" d="M369.09,968.67a5.77,5.77,0,0,1,1.41-4.07,4.93,4.93,0,0,1,3.8-1.55,5,5,0,0,1,3.81,1.55,5.72,5.72,0,0,1,1.43,4.07,5.81,5.81,0,0,1-1.43,4.07,5,5,0,0,1-3.81,1.55,4.93,4.93,0,0,1-3.8-1.55A5.79,5.79,0,0,1,369.09,968.67Zm7.63,2.93a5.37,5.37,0,0,0,0-5.86,3,3,0,0,0-2.42-1.08,2.91,2.91,0,0,0-2.4,1.08,5.44,5.44,0,0,0,0,5.87,2.91,2.91,0,0,0,2.4,1.07A3,3,0,0,0,376.72,971.6Z"/><path class="cls-1" d="M390.29,968.12V974h-1.9v-6.61a3,3,0,0,0-.61-2,2.13,2.13,0,0,0-1.72-.71,2.39,2.39,0,0,0-2,.87,4.09,4.09,0,0,0-.68,2.54V974h-1.91V963.31h1.87v1.31a3.57,3.57,0,0,1,3.14-1.57,4.07,4.07,0,0,1,2,.5,3.16,3.16,0,0,1,1.31,1.44,3.65,3.65,0,0,1,3.46-1.94,3.83,3.83,0,0,1,2.88,1.08,4.12,4.12,0,0,1,1,3V974h-1.91v-6.61a3,3,0,0,0-.61-2,2.15,2.15,0,0,0-1.73-.71,2.39,2.39,0,0,0-2,.87A4,4,0,0,0,390.29,968.12Z"/><path class="cls-1" d="M406.46,974H404.4V959h2.06Z"/><path class="cls-1" d="M411.22,974h-1.9V963.31h1.86v2a3.31,3.31,0,0,1,3.06-2h.83v1.8h-.85a2.51,2.51,0,0,0-2.18,1.18,5.42,5.42,0,0,0-.82,3.17Z"/><path class="cls-1" d="M425.28,972.44h.51V974h-1a2.37,2.37,0,0,1-1.41-.41,1.52,1.52,0,0,1-.64-1.11,3.74,3.74,0,0,1-3.39,1.78,4,4,0,0,1-2.69-.88,2.8,2.8,0,0,1-1-2.25,3,3,0,0,1,.84-2.19,4.25,4.25,0,0,1,2.39-1.12l3.13-.53a.72.72,0,0,0,.67-.77,1.79,1.79,0,0,0-.63-1.42,2.49,2.49,0,0,0-1.71-.55,2.76,2.76,0,0,0-1.73.49,2.54,2.54,0,0,0-.88,1.5l-1.81-.21a3.71,3.71,0,0,1,1.46-2.4,5,5,0,0,1,3-.91,4.27,4.27,0,0,1,3,1,3.56,3.56,0,0,1,1.1,2.73v4.82a.88.88,0,0,0,.18.63A.85.85,0,0,0,425.28,972.44ZM417.47,971a1.57,1.57,0,0,0,.55,1.28,2.25,2.25,0,0,0,1.51.46,2.87,2.87,0,0,0,2.24-1,3.63,3.63,0,0,0,.87-2.51v-.62l-3.43.6a2.25,2.25,0,0,0-1.29.59A1.62,1.62,0,0,0,417.47,971Z"/><path class="cls-1" d="M436.34,967.08V974h-1.9v-6.61a2.87,2.87,0,0,0-.65-2,2.45,2.45,0,0,0-1.88-.7,2.63,2.63,0,0,0-2.14.86,3.92,3.92,0,0,0-.73,2.55V974h-1.9V963.31H429v1.35a3.77,3.77,0,0,1,3.34-1.61,4,4,0,0,1,2.94,1.08A4,4,0,0,1,436.34,967.08Z"/><path class="cls-1" d="M257.38,994H249V981.77h8.24v1.44h-6.56v3.89h5.86v1.4h-5.86v4.09h6.74Z"/><path class="cls-1" d="M263.42,994.24a5.39,5.39,0,0,1-3.51-1.07,3.71,3.71,0,0,1-1.33-2.92l1.65-.21a2.8,2.8,0,0,0,.88,2.09,3.35,3.35,0,0,0,2.31.73,2.79,2.79,0,0,0,1.9-.6,2,2,0,0,0,.7-1.59,1.61,1.61,0,0,0-.49-1.26,3.58,3.58,0,0,0-1.68-.71l-1.63-.35a4.66,4.66,0,0,1-2.47-1.2,3.25,3.25,0,0,1,.33-4.6,4.37,4.37,0,0,1,3-1,4.72,4.72,0,0,1,3.08.94,3.7,3.7,0,0,1,1.31,2.61l-1.66.21a2.44,2.44,0,0,0-2.73-2.38,2.82,2.82,0,0,0-1.82.53,1.73,1.73,0,0,0-.64,1.43,1.7,1.7,0,0,0,.47,1.28,3,3,0,0,0,1.52.69l1.9.41a4.76,4.76,0,0,1,2.43,1.15,2.92,2.92,0,0,1,.78,2.14,3.38,3.38,0,0,1-1.17,2.63A4.63,4.63,0,0,1,263.42,994.24Z"/><path class="cls-1" d="M268.2,981.77h9.3v1.44h-3.81V994H272V983.21H268.2Z"/><path class="cls-1" d="M287.77,985a1.94,1.94,0,0,0-.58-1.48,2.21,2.21,0,0,0-1.56-.55,2.36,2.36,0,0,0-2,.84,3.79,3.79,0,0,0-.63,2.47l-1.61-.21a4,4,0,0,1,4.21-4.53,3.91,3.91,0,0,1,2.79.95,3.31,3.31,0,0,1,1,2.51,4.35,4.35,0,0,1-.62,2.2,10.63,10.63,0,0,1-2,2.39l-3.27,3h6.23V994h-8.4v-1.44l4.41-4a7.86,7.86,0,0,0,1.54-1.8A3.48,3.48,0,0,0,287.77,985Z"/><path class="cls-1" d="M291.16,987.9a7.88,7.88,0,0,1,1.21-4.64,4.22,4.22,0,0,1,6.76,0,9.43,9.43,0,0,1,0,9.28,4.24,4.24,0,0,1-6.77,0A7.87,7.87,0,0,1,291.16,987.9Zm6.76,3.65a9.14,9.14,0,0,0,0-7.3,2.46,2.46,0,0,0-4.33,0,9,9,0,0,0,0,7.28,2.38,2.38,0,0,0,2.16,1.28A2.41,2.41,0,0,0,297.92,991.55Z"/><path class="cls-1" d="M309.51,994h-7.59v-1.41h3v-7.87a2.61,2.61,0,0,1-1.4.33h-1.64V983.7h1.53a1.45,1.45,0,0,0,1.18-.46,2.33,2.33,0,0,0,.38-1.47h1.61v10.85h2.94Z"/><path class="cls-1" d="M317.28,990.44a1.93,1.93,0,0,0-.63-1.54,2.68,2.68,0,0,0-1.79-.55h-1.1v-1.27h1.05a2,2,0,0,0,1.53-.58,2.26,2.26,0,0,0,.55-1.62,1.79,1.79,0,0,0-.6-1.42,2.37,2.37,0,0,0-1.61-.51,2.52,2.52,0,0,0-1.84.68,2.7,2.7,0,0,0-.75,1.88l-1.52-.34a3.35,3.35,0,0,1,1.19-2.6,4.4,4.4,0,0,1,3-1,4.2,4.2,0,0,1,2.79.87,3,3,0,0,1,1,2.35,3.26,3.26,0,0,1-.45,1.71,2.83,2.83,0,0,1-1.27,1.12,3.16,3.16,0,0,1,1.58,1.08,2.89,2.89,0,0,1,.54,1.75,3.55,3.55,0,0,1-1.14,2.76,4.42,4.42,0,0,1-3.06,1,5.18,5.18,0,0,1-3.15-.91,3.35,3.35,0,0,1-1.37-2.51l1.67-.37a2.54,2.54,0,0,0,.82,1.78,2.89,2.89,0,0,0,2,.63,2.7,2.7,0,0,0,1.91-.65A2.28,2.28,0,0,0,317.28,990.44Z"/><rect class="cls-1" x="86.4" y="664.03" width="5" height="60"/><rect class="cls-1" x="88.9" y="686.53" width="17.5" height="5"/><rect class="cls-1" x="86.12" y="679.81" width="18.99" height="5" transform="translate(-454.46 267.45) rotate(-45)"/><rect class="cls-1" x="78.9" y="704.03" width="8.59" height="5"/><path class="cls-1" d="M91.4,716.53v-5a5,5,0,0,0,0-10v-5a10,10,0,0,1,0,20Z"/><path class="cls-1" d="M98.9,671.53h-5a5,5,0,0,0-10,0h-5a10,10,0,0,1,20,0Z"/><path class="cls-1" d="M211.24,891.53h-5a29.92,29.92,0,0,0-59.84,0h-5a34.92,34.92,0,0,1,69.84,0Z"/><rect class="cls-1" x="107.51" y="769.03" width="77.78" height="5" transform="translate(-502.67 329.5) rotate(-45)"/><path class="cls-1" d="M316.4,896.53h-200v-129l-10,10v14h-20v-70h50A47.55,47.55,0,0,1,183.9,769v12.5h85A47.55,47.55,0,0,1,316.4,829Zm-195-5h190V829a42.55,42.55,0,0,0-42.5-42.5h-90V769a42.55,42.55,0,0,0-42.5-42.5h-45v60h10v-11l28.23-28.23,3.54,3.53L121.4,762.56Z"/><polygon class="cls-1" points="313.9 881.53 263.9 881.53 263.9 784.03 268.9 784.03 268.9 876.53 313.9 876.53 313.9 881.53"/><path class="cls-1" d="M213.9,851.53a35,35,0,0,1-35-35v-35h70v35A35,35,0,0,1,213.9,851.53Zm-30-65v30a30,30,0,0,0,60,0v-30Z"/><path class="cls-1" d="M108.9,744H86.4v-22.5h22.5Zm-17.5-5h12.5v-12.5H91.4Z"/><polygon class="cls-1" points="260.15 941.53 248.87 941.53 256.85 929.03 250.15 929.03 250.15 926.53 261.4 926.53 253.43 939.03 260.15 939.03 260.15 941.53"/><polygon class="cls-1" points="273.9 941.53 263.94 941.53 263.9 926.53 273.9 926.53 273.9 929.03 266.41 929.03 266.43 939.03 273.9 939.03 273.9 941.53"/><rect class="cls-1" x="265.15" y="932.78" width="8.75" height="2.5"/><polygon class="cls-1" points="287.65 941.53 277.65 941.53 277.65 926.53 287.65 926.53 287.65 929.03 280.15 929.03 280.15 939.03 287.65 939.03 287.65 941.53"/><rect class="cls-1" x="278.9" y="932.78" width="8.75" height="2.5"/><polygon class="cls-1" points="301.4 941.53 291.4 941.53 291.4 926.53 301.4 926.53 301.4 929.03 293.9 929.03 293.9 939.03 301.4 939.03 301.4 941.53"/><rect class="cls-1" x="292.65" y="932.78" width="8.75" height="2.5"/><polygon class="cls-1" points="316.4 941.53 314.01 941.53 307.65 931.4 307.65 941.53 305.15 941.53 305.15 926.53 307.55 926.53 313.9 936.65 313.9 926.53 316.4 926.53 316.4 941.53"/><path class="cls-1" d="M143.9,979a27.54,27.54,0,0,1-27.5-27.5v-25h5v25a22.5,22.5,0,0,0,45,0v-25h5v25A27.54,27.54,0,0,1,143.9,979Z"/><polygon class="cls-1" points="200.45 978.29 196.92 974.76 216.4 955.27 216.4 941.53 221.4 941.53 221.4 957.35 200.45 978.29"/><rect class="cls-1" x="141.4" y="926.53" width="5" height="10"/><rect class="cls-1" x="216.4" y="926.53" width="5" height="10"/><rect class="cls-1" x="166.4" y="984.03" width="5" height="10"/><rect class="cls-1" x="176.4" y="984.03" width="5" height="10"/><polygon class="cls-1" points="170.67 951.83 167.13 948.29 178.9 936.52 178.9 926.53 183.9 926.53 183.9 938.6 170.67 951.83"/><polygon class="cls-1" points="170.67 966.83 167.13 963.29 188.9 941.52 188.9 926.53 193.9 926.53 193.9 943.6 170.67 966.83"/><polygon class="cls-1" points="173.47 979.03 166.4 979.03 166.4 926.53 171.4 926.53 171.4 974.02 198.9 946.52 198.9 926.53 203.9 926.53 203.9 948.6 173.47 979.03"/><path class="cls-1" d="M1834.12,994.1h-9.25v-1h8.25v-7.41h1Zm-25.91,0h-16.65v-1h16.65Zm-33.3,0h-16.66v-1h16.66Zm-33.31,0H1725v-1h16.65Zm-33.31,0h-16.65v-1h16.65Zm-33.3,0h-16.66v-1H1675Zm-33.31,0H1625v-1h16.65Zm-33.31,0h-16.65v-1h16.65Zm-33.31,0h-16.65v-1h16.65Zm-33.3,0H1525.1v-1h16.66Zm-33.31,0H1491.8v-1h16.65Zm-33.31,0h-16.65v-1h16.65Zm-33.3,0h-16.66v-1h16.66Zm-33.31,0h-16.65v-1h16.65Zm-33.31,0h-16.65v-1h16.65Zm-33.3,0h-16.66v-1h16.66Zm-33.31,0H1292v-1h16.65Zm-33.31,0h-16.65v-1h16.65Zm-33.3,0h-16.66v-1H1242Zm-33.31,0H1192v-1h16.65Zm-33.31,0h-16.65v-1h16.65Zm-33.3,0h-16.66v-1h16.66Zm-33.31,0h-16.66v-1h16.66Zm-33.31,0h-16.65v-1h16.65Zm-33.31,0H1025.5v-1h16.65Zm-33.3,0H992.19v-1h16.66Zm-33.31,0H958.89v-1h16.65Zm-33.31,0H925.58v-1h16.65Zm-33.3,0H892.27v-1h16.66Zm-33.31,0H859v-1h16.65Zm-33.31,0H825.66v-1h16.65Zm-33.3,0H792.35v-1H809Zm-33.31,0H759v-1H775.7Zm-33.31,0H725.74v-1h16.65Zm-33.31,0H692.43v-1h16.65Zm-33.3,0H659.12v-1h16.66Zm-33.31,0H625.82v-1h16.65Zm-33.31,0H592.51v-1h16.65Zm-33.3,0H559.2v-1h16.66Zm-33.31,0H525.9v-1h16.65Zm-33.31,0H492.59v-1h16.65Zm-33.3,0H459.28v-1h16.66Zm-33.31,0H426v-1h16.66Zm-33.31,0H392.67v-1h16.65Zm-33.31,0H359.36v-1H376Zm-33.3,0H326.05v-1h16.66Zm-33.31,0H292.75v-1H309.4Zm-33.31,0H259.44v-1h16.65Zm-33.3,0H226.13v-1h16.66Zm-33.31,0H192.83v-1h16.65Zm-33.31,0H159.52v-1h16.65Zm-33.31,0H126.21v-1h16.65Zm-33.3,0H92.9v-1h16.66ZM86.88,983.46h-1V966.81h1ZM1834.12,969h-1V952.38h1ZM86.88,950.16h-1V933.5h1Zm1747.24-14.43h-1V919.08h1ZM86.88,916.85h-1V900.2h1Zm1747.24-14.43h-1V885.77h1ZM86.88,883.54h-1V866.89h1Zm1747.24-14.42h-1V852.46h1ZM86.88,850.23h-1V833.58h1Zm1747.24-14.42h-1V819.16h1ZM86.88,816.93h-1V800.27h1ZM1834.12,802.5h-1V785.85h1ZM86.88,783.62h-1V767h1ZM1834.12,769.2h-1V752.54h1ZM86.88,750.31h-1V733.66h1Zm1747.24-14.42h-1V719.24h1ZM86.88,717h-1V700.35h1Zm1747.24-14.43h-1V685.93h1ZM86.88,683.7h-1V667.05h1Zm1747.24-14.42h-1V652.62h1ZM86.88,650.39h-1V633.74h1ZM1834.12,636h-1V619.31h1ZM86.88,617.09h-1V600.43h1Zm1747.24-14.43h-1V586h1ZM86.88,583.78h-1V567.13h1Zm1747.24-14.43h-1V552.7h1ZM86.88,550.47h-1V533.82h1Zm1747.24-14.42h-1V519.39h1ZM86.88,517.17h-1V500.51h1Zm1747.24-14.43h-1V486.09h1ZM86.88,483.86h-1V467.21h1Zm1747.24-14.43h-1V452.78h1ZM86.88,450.55h-1V433.9h1Zm1747.24-14.42h-1V419.47h1ZM86.88,417.24h-1V400.59h1Zm1747.24-14.42h-1V386.17h1ZM86.88,383.94h-1V367.28h1Zm1747.24-14.43h-1V352.86h1ZM86.88,350.63h-1V334h1Zm1747.24-14.42h-1V319.55h1ZM86.88,317.32h-1V300.67h1ZM1834.12,302.9h-1V286.25h1ZM86.88,284h-1V267.36h1Zm1747.24-14.43h-1V252.94h1ZM86.88,250.71h-1V234.06h1Zm1747.24-14.43h-1V219.63h1ZM86.88,217.4h-1V200.75h1ZM1834.12,203h-1V186.32h1ZM86.88,184.1h-1V167.44h1Zm1747.24-14.43h-1V153h1ZM86.88,150.79h-1V134.13h1Zm1747.24-14.43h-1V119.71h1ZM86.88,117.48h-1V100.83h1Zm1747.24-14.42h-1V86.9h-12.54v-1h13.54Zm-30.2-16.16h-16.65v-1h16.65Zm-33.3,0H1754v-1h16.66Zm-33.31,0h-16.65v-1h16.65Zm-33.31,0h-16.65v-1H1704Zm-33.31,0H1654v-1h16.65Zm-33.3,0h-16.66v-1h16.66Zm-33.31,0h-16.65v-1h16.65Zm-33.31,0h-16.65v-1h16.65Zm-33.3,0h-16.66v-1h16.66Zm-33.31,0h-16.65v-1h16.65Zm-33.31,0H1454.2v-1h16.65Zm-33.3,0h-16.66v-1h16.66Zm-33.31,0h-16.66v-1h16.66Zm-33.31,0h-16.65v-1h16.65Zm-33.31,0H1321v-1h16.65Zm-33.3,0h-16.66v-1h16.66Zm-33.31,0h-16.65v-1H1271Zm-33.31,0h-16.65v-1h16.65Zm-33.3,0h-16.66v-1h16.66Zm-33.31,0h-16.65v-1h16.65Zm-33.31,0h-16.65v-1h16.65Zm-33.3,0h-16.66v-1h16.66Zm-33.31,0h-16.66v-1h16.66Zm-33.31,0h-16.65v-1h16.65Zm-33.31,0H987.9v-1h16.65Zm-33.3,0H954.59v-1h16.66Zm-33.31,0H921.29v-1h16.65Zm-33.31,0H888v-1h16.65Zm-33.3,0H854.67v-1h16.66ZM838,86.9H821.37v-1H838Zm-33.31,0H788.06v-1h16.65Zm-33.3,0H754.75v-1h16.66Zm-33.31,0H721.45v-1H738.1Zm-33.31,0H688.14v-1h16.65Zm-33.31,0H654.83v-1h16.65Zm-33.3,0H621.52v-1h16.66Zm-33.31,0H588.22v-1h16.65Zm-33.31,0H554.91v-1h16.65Zm-33.3,0H521.6v-1h16.66ZM505,86.9H488.3v-1H505Zm-33.31,0H455v-1h16.65Zm-33.3,0H421.68v-1h16.66ZM405,86.9H388.38v-1H405Zm-33.31,0H355.07v-1h16.65Zm-33.3,0H321.76v-1h16.66Zm-33.31,0H288.46v-1h16.65Zm-33.31,0H255.15v-1H271.8Zm-33.31,0H221.84v-1h16.65Zm-33.3,0H188.53v-1h16.66Zm-33.31,0H155.23v-1h16.65Zm-33.31,0H121.92v-1h16.65Zm-33.3,0H88.61v-1h16.66Z"/></g><g id="Layer_1" data-name="Layer 1"><path class="cls-1" d="M103.74,325.94H86.87V301.42H103.4v3.51H91v6.87h11v3.38H91v7.25h12.77Z"/><path class="cls-1" d="M112.2,325.94h-3.91V301.42h4.51l10.92,17.27V301.42h3.94v24.52h-3.58L112.2,307.2Z"/><path class="cls-1" d="M144.1,326.36a11.39,11.39,0,0,1-8.65-3.47,14.45,14.45,0,0,1,.07-18.37,11.61,11.61,0,0,1,8.89-3.51,12,12,0,0,1,7.12,2,9.75,9.75,0,0,1,3.8,5.73l-4,.7q-1.59-4.92-6.89-4.92a7.37,7.37,0,0,0-5.89,2.46,10,10,0,0,0-2.13,6.77,9.58,9.58,0,0,0,2.21,6.55,7.48,7.48,0,0,0,5.84,2.49,7.86,7.86,0,0,0,5.28-1.72,5.5,5.5,0,0,0,2.07-4.35v-.83h-7.07v-3.25h10.82v13.27h-3.71v-3.05a8.28,8.28,0,0,1-3.29,2.57A10.68,10.68,0,0,1,144.1,326.36Z"/><path class="cls-1" d="M176.08,325.94h-15.5V301.42h4.1v21h11.4Z"/><path class="cls-1" d="M183.73,325.94h-4.11V301.42h4.11Z"/><path class="cls-1" d="M198,326.36a11.21,11.21,0,0,1-7.22-2.13,7.3,7.3,0,0,1-2.73-5.89l4.1-.46a5.09,5.09,0,0,0,1.61,3.83A6.21,6.21,0,0,0,198,323a5.27,5.27,0,0,0,3.47-1,3.49,3.49,0,0,0,1.28-2.83,2.86,2.86,0,0,0-.87-2.24,6.51,6.51,0,0,0-3-1.23l-3.23-.67q-6.81-1.39-6.82-7a6.23,6.23,0,0,1,2.38-4.93,9.21,9.21,0,0,1,6.24-2,9.84,9.84,0,0,1,6.34,1.92,7.33,7.33,0,0,1,2.72,5.23l-4.17.44q-.47-4.28-4.93-4.27a5.15,5.15,0,0,0-3.29.94,3.06,3.06,0,0,0-1.19,2.53,3.13,3.13,0,0,0,.84,2.32,5.07,5.07,0,0,0,2.69,1.18l3.76.74a9.63,9.63,0,0,1,5.11,2.32,6,6,0,0,1,1.67,4.43,7,7,0,0,1-2.49,5.44A9.49,9.49,0,0,1,198,326.36Z"/><path class="cls-1" d="M215.45,325.94h-4.1V301.42h4.1v10.19h11.34V301.42h4.1v24.52h-4.1V315.18H215.45Z"/><path class="cls-1" d="M248.38,325.94h-4.1V301.42h4.1v10.19h11.33V301.42h4.1v24.52h-4.1V315.18H248.38Z"/><path class="cls-1" d="M281,308.16a3.46,3.46,0,0,0-1-2.63,3.87,3.87,0,0,0-2.75-1,4.17,4.17,0,0,0-3.59,1.6,6.93,6.93,0,0,0-1,4.62l-4-.53a8.45,8.45,0,0,1,2.17-6.75,8.68,8.68,0,0,1,6.49-2.48,8.24,8.24,0,0,1,5.75,2,6.49,6.49,0,0,1,2.13,5.06,8.88,8.88,0,0,1-1.27,4.49,20.17,20.17,0,0,1-4.08,4.72l-5.84,5.21h11.93v3.48H268.48V322.5l8.72-7.8a13.92,13.92,0,0,0,2.89-3.32A6.41,6.41,0,0,0,281,308.16Z"/><path class="cls-1" d="M297.9,318.09h-9.18V314.7h9.18Z"/><path class="cls-1" d="M307.1,325.94H303V301.42h4.1v10.19h11.33V301.42h4.11v24.52h-4.11V315.18H307.1Z"/><path class="cls-1" d="M345.2,325.94H328.33V301.42h16.53v3.51H332.43v6.87h11v3.38h-11v7.25H345.2Z"/><path class="cls-1" d="M363.82,320.52H353.46l-2,5.42h-4.12l9.23-24.52H361l9.17,24.52h-4.41Zm-9.1-3.41h7.88l-3.89-10.75Z"/><path class="cls-1" d="M383.6,325.94h-10V301.42h10a12.09,12.09,0,0,1,8.85,3.23,11.53,11.53,0,0,1,3.28,8.69,12.64,12.64,0,0,1-3.31,9.12A11.61,11.61,0,0,1,383.6,325.94Zm8-12.6a8.47,8.47,0,0,0-2.17-6.11A7.69,7.69,0,0,0,383.6,305h-5.88V322.4h5.88a7.36,7.36,0,0,0,5.81-2.48A9.62,9.62,0,0,0,391.58,313.34Z"/><path class="cls-1" d="M404.42,325.94h-4.1V301.42h4.1Z"/><path class="cls-1" d="M414.13,325.94h-3.92V301.42h4.52l10.92,17.27V301.42h3.93v24.52H426L414.13,307.2Z"/><path class="cls-1" d="M446,326.36a11.39,11.39,0,0,1-8.65-3.47,14.42,14.42,0,0,1,.07-18.37,11.61,11.61,0,0,1,8.88-3.51,12,12,0,0,1,7.13,2,9.79,9.79,0,0,1,3.8,5.73l-4,.7c-1.06-3.28-3.35-4.92-6.89-4.92a7.35,7.35,0,0,0-5.88,2.46,10,10,0,0,0-2.13,6.77,9.58,9.58,0,0,0,2.2,6.55,7.5,7.5,0,0,0,5.85,2.49,7.89,7.89,0,0,0,5.28-1.72,5.5,5.5,0,0,0,2.07-4.35v-.83h-7.08v-3.25h10.82v13.27h-3.71v-3.05a8.18,8.18,0,0,1-3.28,2.57A10.68,10.68,0,0,1,446,326.36Z"/><path class="cls-1" d="M97.52,368.37a11.39,11.39,0,0,1-8.65-3.47,14.42,14.42,0,0,1,.07-18.37A11.59,11.59,0,0,1,97.82,343a12,12,0,0,1,7.12,2,9.76,9.76,0,0,1,3.81,5.73l-4,.7c-1.06-3.28-3.35-4.92-6.89-4.92A7.35,7.35,0,0,0,91.94,349a10,10,0,0,0-2.13,6.77,9.58,9.58,0,0,0,2.2,6.55,7.51,7.51,0,0,0,5.85,2.5,7.9,7.9,0,0,0,5.28-1.73,5.48,5.48,0,0,0,2.07-4.34v-.84H98.13v-3.25H109V368h-3.71V364.9a8.36,8.36,0,0,1-3.28,2.58A10.67,10.67,0,0,1,97.52,368.37Z"/><path class="cls-1" d="M136.34,355.69a13,13,0,0,1-3.23,9.21,12.37,12.37,0,0,1-17.18,0,14.79,14.79,0,0,1,0-18.41,12.33,12.33,0,0,1,17.15,0A12.9,12.9,0,0,1,136.34,355.69ZM119,349a12.07,12.07,0,0,0,0,13.37,7.57,7.57,0,0,0,11.17,0,12,12,0,0,0,0-13.37A7.59,7.59,0,0,0,119,349Z"/><path class="cls-1" d="M157.78,368H140.9V343.43h16.53v3.51H145v6.87h11v3.38H145v7.25h12.77Z"/><path class="cls-1" d="M170.77,368.37a11.23,11.23,0,0,1-7.22-2.13,7.29,7.29,0,0,1-2.73-5.88l4.1-.46a5.1,5.1,0,0,0,1.61,3.82,6.21,6.21,0,0,0,4.24,1.32,5.31,5.31,0,0,0,3.48-1.05,3.47,3.47,0,0,0,1.27-2.83,2.87,2.87,0,0,0-.87-2.24,6.73,6.73,0,0,0-3-1.23l-3.24-.67q-6.81-1.39-6.82-7a6.23,6.23,0,0,1,2.38-4.92,9.16,9.16,0,0,1,6.24-2,9.82,9.82,0,0,1,6.34,1.92,7.29,7.29,0,0,1,2.72,5.23l-4.17.44q-.47-4.28-4.92-4.27a5.18,5.18,0,0,0-3.3.94,3.06,3.06,0,0,0-1.18,2.53,3.15,3.15,0,0,0,.83,2.32,5,5,0,0,0,2.69,1.18l3.76.74a9.63,9.63,0,0,1,5.11,2.32,6,6,0,0,1,1.68,4.43,7,7,0,0,1-2.5,5.44A9.48,9.48,0,0,1,170.77,368.37Z"/><path class="cls-1" d="M195.85,368h-4.11V343.43h4.11v10.19h11.33V343.43h4.1V368h-4.1V357.19H195.85Z"/><path class="cls-1" d="M234,368H217.08V343.43h16.53v3.51H221.18v6.87h11v3.38h-11v7.25H234Z"/><path class="cls-1" d="M256.81,361.71l.35,6.24h-4.1l-.36-6.24a3,3,0,0,0-1.12-2.34,5.43,5.43,0,0,0-3.17-.74H242.6V368h-4.1V343.43h10.19a9.18,9.18,0,0,1,6.12,1.94,6,6,0,0,1,2.35,4.9,7,7,0,0,1-1,3.75,7.18,7.18,0,0,1-2.9,2.66Q256.61,357.79,256.81,361.71Zm-3.82-11a3.39,3.39,0,0,0-1.23-2.75,5.15,5.15,0,0,0-3.38-1H242.6v8.35h5.78a4.54,4.54,0,0,0,3.35-1.27A4.46,4.46,0,0,0,253,350.68Z"/><path class="cls-1" d="M279.1,368H262.22V343.43h16.54v3.51H266.33v6.87h11v3.38h-11v7.25H279.1Z"/><path class="cls-1" d="M88.85,86.4h16.82v5.91h-5.2v40h17.89a2.6,2.6,0,0,0,1.09-.26,4.07,4.07,0,0,0,1-.66,3.42,3.42,0,0,0,.72-.94,2.37,2.37,0,0,0,.27-1.08v-6.53h6.5v15.35H88.85v-5.88h4.92v-40H88.85Z"/><path class="cls-1" d="M155.59,139.26a23.67,23.67,0,0,1-9.81-2,25,25,0,0,1-13.24-14.45,31.06,31.06,0,0,1-1.81-10.49,30,30,0,0,1,1.83-10.53,26.16,26.16,0,0,1,5.13-8.57,24,24,0,0,1,7.86-5.74,24.24,24.24,0,0,1,28,5.74,26.07,26.07,0,0,1,5.09,8.57,30.18,30.18,0,0,1,1.81,10.53,29.85,29.85,0,0,1-1.83,10.51,26.23,26.23,0,0,1-5.12,8.56,23.89,23.89,0,0,1-7.87,5.76A23.56,23.56,0,0,1,155.59,139.26Zm0-6.36a16,16,0,0,0,7.37-1.68,17.42,17.42,0,0,0,5.62-4.49,20.58,20.58,0,0,0,3.59-6.55,24.38,24.38,0,0,0,1.26-7.86,24.63,24.63,0,0,0-1.38-8.19,19.35,19.35,0,0,0-3.86-6.69,17.58,17.58,0,0,0-5.76-4.22,16.43,16.43,0,0,0-6.84-1.49,16.13,16.13,0,0,0-7.39,1.68,17.41,17.41,0,0,0-5.64,4.49,20.57,20.57,0,0,0-3.59,6.57,24.41,24.41,0,0,0-1.26,7.85,24.11,24.11,0,0,0,1.4,8.53,18.47,18.47,0,0,0,3.71,6.22,20.26,20.26,0,0,0,5.5,4.15A15.4,15.4,0,0,0,155.59,132.9Z"/><path class="cls-1" d="M219.83,86.4h16.82v5.91h-4.41v45.92h-8.75l-24.11-43v37.1h5.34v5.88H187.9v-5.88h4.78v-40h-4.92v-6h14l23.66,42.57.27-1.64V92.31h-5.81Z"/><path class="cls-1" d="M283.29,138.44V128a17.64,17.64,0,0,1-3.25,4.7,17.87,17.87,0,0,1-4.34,3.3,20.53,20.53,0,0,1-5.12,2,23.8,23.8,0,0,1-5.52.65,25.09,25.09,0,0,1-9.33-1.69,21.43,21.43,0,0,1-7.75-5.39,24.85,24.85,0,0,1-5.29-8.75,30.78,30.78,0,0,1-1.83-10.56,29.73,29.73,0,0,1,1.83-10.46,26.16,26.16,0,0,1,5.12-8.59,23.7,23.7,0,0,1,17.77-7.83A22.84,22.84,0,0,1,274,86.78a23.34,23.34,0,0,1,6,3.4,27.78,27.78,0,0,1,4,3.81h3.31v6.09h-7.35A17.23,17.23,0,0,0,274,93.92a15.81,15.81,0,0,0-8.46-2.19,15.59,15.59,0,0,0-7.21,1.68,17.62,17.62,0,0,0-5.63,4.51,21.32,21.32,0,0,0-3.64,6.53,23.47,23.47,0,0,0-1.3,7.8,24.17,24.17,0,0,0,1.44,8.44,19.05,19.05,0,0,0,3.66,6.33,18,18,0,0,0,5.48,4,16.32,16.32,0,0,0,7.24,1.59,17.28,17.28,0,0,0,10.76-3.19q4.21-3.2,5.89-10h-14.5v-5.88h21.91v24.86Z"/><path class="cls-1" d="M352.55,86.4h16.82v5.88h-4.92v40.07h4.92v5.88H352.55v-5.88h5.2V113.72h-30v18.63H333v5.88H316.14v-5.88h4.92V92.28h-4.92V86.4H333v5.88h-5.19V108h30V92.28h-5.2Z"/><path class="cls-1" d="M382.54,132.35h5V94.43l-10.49,5.71V93l14.43-8.07h2.73v47.42h5.09v5.88H382.54Z"/><path class="cls-1" d="M460.22,86.4H477v5.88h-4.93v40.07H477v5.88H460.22v-5.88h5.19V113.72h-30v18.63h5.2v5.88H423.8v-5.88h4.93V92.28H423.8V86.4h16.83v5.88h-5.2V108h30V92.28h-5.19Z"/><path class="cls-1" d="M486.82,86.4H524v14.67h-7V92.31h-18.5V108.9H514v5.88H498.44v17.57h18.5V123.6h7v14.63H486.82v-5.88h4.92v-40h-4.92Z"/><path class="cls-1" d="M561.45,132.35h4.31l-4.1-11.76H541.72l-4,11.76h5.34v5.88H526.24v-5.88h4.51L546.89,86.4H557l16.11,45.95h5.19v5.88H561.45Zm-17.78-17.44h16L551.6,91.73Z"/><path class="cls-1" d="M583.5,86.4h19.29a24.35,24.35,0,0,1,12.75,3.52,24.9,24.9,0,0,1,5,4,24.65,24.65,0,0,1,3.85,5.21,26.39,26.39,0,0,1,2.45,6.17,27.73,27.73,0,0,1,.85,6.86,28.19,28.19,0,0,1-.85,6.94,27,27,0,0,1-2.45,6.22,24.83,24.83,0,0,1-3.85,5.28,24.17,24.17,0,0,1-17.77,7.61H583.5v-5.88h4.93v-40H583.5Zm11.63,5.91v40h8.07a14.94,14.94,0,0,0,6.75-1.57,17.66,17.66,0,0,0,5.52-4.29,21,21,0,0,0,3.73-6.4,22.55,22.55,0,0,0,1.36-7.91,22,22,0,0,0-1.36-7.8,20.57,20.57,0,0,0-3.73-6.3A17.48,17.48,0,0,0,610,93.85a15.32,15.32,0,0,0-6.75-1.54Z"/><path class="cls-1" d="M635,86.4h16.54v5.91h-4.92v40h4.92v5.88H635v-5.88H640v-40H635Z"/><path class="cls-1" d="M693.42,86.4h16.82v5.91h-4.41v45.92h-8.75l-24.1-43v37.1h5.33v5.88H661.49v-5.88h4.79v-40h-4.93v-6H675.3L699,128.9l.27-1.64V92.31h-5.81Z"/><path class="cls-1" d="M756.88,138.44V128a17.64,17.64,0,0,1-3.25,4.7,17.87,17.87,0,0,1-4.34,3.3,20.61,20.61,0,0,1-5.11,2,24,24,0,0,1-5.53.65,25.09,25.09,0,0,1-9.33-1.69,21.31,21.31,0,0,1-7.74-5.39,24.87,24.87,0,0,1-5.3-8.75,30.78,30.78,0,0,1-1.83-10.56,29.73,29.73,0,0,1,1.83-10.46,26.36,26.36,0,0,1,5.13-8.59,23.66,23.66,0,0,1,17.76-7.83,22.84,22.84,0,0,1,8.46,1.41,23.17,23.17,0,0,1,6,3.4,26.77,26.77,0,0,1,4,3.81H761v6.09h-7.35a17.2,17.2,0,0,0-6.06-6.16,15.83,15.83,0,0,0-8.47-2.19,15.59,15.59,0,0,0-7.21,1.68,17.58,17.58,0,0,0-5.62,4.51,21.14,21.14,0,0,0-3.65,6.53,23.47,23.47,0,0,0-1.3,7.8,24.17,24.17,0,0,0,1.44,8.44,19.05,19.05,0,0,0,3.66,6.33,18,18,0,0,0,5.49,4,16.25,16.25,0,0,0,7.23,1.59,17.33,17.33,0,0,0,10.77-3.19q4.2-3.2,5.88-10h-14.5v-5.88h21.92v24.86Z"/><path class="cls-1" d="M128.85,222.46V212.07a17.57,17.57,0,0,1-3.25,4.7,18.19,18.19,0,0,1-4.34,3.3,21.27,21.27,0,0,1-5.11,2,23.8,23.8,0,0,1-5.52.65,25.15,25.15,0,0,1-9.34-1.7,21.49,21.49,0,0,1-7.74-5.38,25.11,25.11,0,0,1-5.3-8.75,30.88,30.88,0,0,1-1.83-10.57,29.77,29.77,0,0,1,1.83-10.46,26.42,26.42,0,0,1,5.13-8.58,23.56,23.56,0,0,1,17.76-7.83,23.06,23.06,0,0,1,8.46,1.4,23.46,23.46,0,0,1,6.05,3.4,27.82,27.82,0,0,1,4,3.81H133v6.09h-7.35a17.12,17.12,0,0,0-6.07-6.15,17,17,0,0,0-15.68-.52A17.59,17.59,0,0,0,98.27,182a21,21,0,0,0-3.64,6.53,23.2,23.2,0,0,0-1.3,7.79,24.45,24.45,0,0,0,1.43,8.45A19.1,19.1,0,0,0,98.42,211a18,18,0,0,0,5.49,4,16.31,16.31,0,0,0,7.23,1.59,17.3,17.3,0,0,0,10.77-3.2q4.2-3.19,5.88-10H113.3V197.6h21.91v24.86Z"/><path class="cls-1" d="M168.82,223.28a23.67,23.67,0,0,1-9.81-2,24.84,24.84,0,0,1-13.23-14.44,30.93,30.93,0,0,1-1.82-10.5,30,30,0,0,1,1.83-10.53,26.26,26.26,0,0,1,5.13-8.57,24.18,24.18,0,0,1,7.86-5.74,24.22,24.22,0,0,1,28,5.74,26.17,26.17,0,0,1,5.09,8.57,31.4,31.4,0,0,1,0,21,26.47,26.47,0,0,1-5.13,8.57,23.68,23.68,0,0,1-17.9,7.86Zm0-6.36a16.14,16.14,0,0,0,7.37-1.67,17.47,17.47,0,0,0,5.62-4.5,20.47,20.47,0,0,0,3.59-6.55,24.34,24.34,0,0,0,1.27-7.86,24.63,24.63,0,0,0-1.39-8.19,19.3,19.3,0,0,0-3.86-6.68,17.4,17.4,0,0,0-5.76-4.23,16.87,16.87,0,0,0-14.23.19,17.44,17.44,0,0,0-5.64,4.5,20.72,20.72,0,0,0-3.59,6.56,24.45,24.45,0,0,0-1.26,7.85,24.11,24.11,0,0,0,1.4,8.53,18.37,18.37,0,0,0,3.71,6.22,20.3,20.3,0,0,0,5.5,4.16A15.55,15.55,0,0,0,168.82,216.92Z"/><path class="cls-1" d="M201,170.42h37.13v14.67h-7v-8.75H212.62v16.58h15.55v5.88H212.62v17.57h18.49v-8.75h7v14.63H201v-5.88h4.92v-40H201Z"/><path class="cls-1" d="M270.43,180a8.31,8.31,0,0,0-2.41-2.31,10.81,10.81,0,0,0-2.89-1.23A11.76,11.76,0,0,0,262,176a15.49,15.49,0,0,0-4.55.6,9.68,9.68,0,0,0-3.23,1.62,6.68,6.68,0,0,0-1.93,2.4,6.51,6.51,0,0,0-.65,2.87,7.17,7.17,0,0,0,.8,3.64,6.68,6.68,0,0,0,2,2.22,10.55,10.55,0,0,0,2.72,1.32c1,.32,1.94.64,2.86,1l6.9,2.25a32.92,32.92,0,0,1,5.49,2.26,15,15,0,0,1,4,3,11.9,11.9,0,0,1,2.45,4,15,15,0,0,1,.84,5.23,13.48,13.48,0,0,1-1.32,5.95,14.4,14.4,0,0,1-3.68,4.76,17.55,17.55,0,0,1-5.62,3.16,21.59,21.59,0,0,1-7.16,1.14,22.78,22.78,0,0,1-6.84-.9,15.27,15.27,0,0,1-4.77-2.43,12.49,12.49,0,0,1-3.09-3.47,19.08,19.08,0,0,1-1.82-4h-2.59V206.7h8.61a12.9,12.9,0,0,0,.8,5.37,7.33,7.33,0,0,0,2.24,2.61,10.16,10.16,0,0,0,3.42,1.57,16.63,16.63,0,0,0,4.38.54,15.08,15.08,0,0,0,4.19-.55,9.49,9.49,0,0,0,3.18-1.59,7,7,0,0,0,2-2.53,7.78,7.78,0,0,0,.7-3.37,6.78,6.78,0,0,0-.87-3.54,8.54,8.54,0,0,0-2.24-2.48,13,13,0,0,0-3-1.67c-1.08-.44-2.12-.81-3.13-1.13l-7.48-2.12a21.54,21.54,0,0,1-4.5-1.92,13.3,13.3,0,0,1-3.49-2.83,12,12,0,0,1-2.24-3.92,15.72,15.72,0,0,1-.78-5.18,13.4,13.4,0,0,1,1.16-5.57,12.86,12.86,0,0,1,3.42-4.55,16.33,16.33,0,0,1,5.52-3.06,23.19,23.19,0,0,1,7.47-1.11,19.16,19.16,0,0,1,5.11.65,15.9,15.9,0,0,1,4.24,1.83,14.76,14.76,0,0,1,3.35,2.84,17,17,0,0,1,2.45,3.64h2.56v5.88h-8.38A7.63,7.63,0,0,0,270.43,180Z"/><path class="cls-1" d="M338.06,170.42h16.82v5.88H350v40.07h4.92v5.88H338.06v-5.88h5.19V197.74h-30v18.63h5.2v5.88H301.65v-5.88h4.92V176.3h-4.92v-5.88h16.82v5.88h-5.2V192h30V176.3h-5.19Z"/><path class="cls-1" d="M364.66,170.42h37.13v14.67h-7v-8.75h-18.5v16.58h15.56v5.88H376.28v17.57h18.5v-8.75h7v14.63H364.66v-5.88h4.92v-40h-4.92Z"/><path class="cls-1" d="M408.62,170.42H430.2a21.55,21.55,0,0,1,6.37.91,14.48,14.48,0,0,1,5.06,2.67,12,12,0,0,1,3.34,4.39,14.45,14.45,0,0,1,1.19,6.05,11,11,0,0,1-.7,3.85,12.94,12.94,0,0,1-1.95,3.52,14.71,14.71,0,0,1-2.95,2.89,13.83,13.83,0,0,1-3.73,2,8,8,0,0,1,1.73,1.07,9.93,9.93,0,0,1,1.64,1.71,14.53,14.53,0,0,1,1.4,2.29,14.37,14.37,0,0,1,1,2.76l2.87,11.28H450l.07,6.49H439.94l-3.86-15.76a12.51,12.51,0,0,0-3.23-6.24,8.44,8.44,0,0,0-5.93-2h-6.67v18.12h5.2v5.88H408.62v-5.88h4.93v-40h-4.93Zm11.63,5.92v16.31h9.95a11.53,11.53,0,0,0,3.57-.52,7.75,7.75,0,0,0,2.8-1.53,7.11,7.11,0,0,0,1.85-2.55,8.83,8.83,0,0,0,.67-3.54,7.8,7.8,0,0,0-2.33-6q-2.33-2.15-7.38-2.15Z"/><path class="cls-1" d="M458.47,170.42H495.6v14.67h-7v-8.75H470.1v16.58h15.55v5.88H470.1v17.57h18.49v-8.75h7v14.63H458.47v-5.88h4.93v-40h-4.93Z"/><rect class="cls-1" x="83.96" y="272.26" width="51.84" height="3.67"/><path class="cls-1" d="M648.08,978.23,637.19,991.6h11.18v2H634.44v-1.9l11-13.5H635v-2h13.06Z"/><path class="cls-1" d="M659.22,992.06a4.45,4.45,0,0,0,4.82-4l2.28.36a6,6,0,0,1-2.29,4.09,7.6,7.6,0,0,1-4.81,1.52,7.84,7.84,0,0,1-6.13-2.35c-1.4-1.57-2.11-3.84-2.11-6.8a9.53,9.53,0,0,1,2.21-6.61,7.56,7.56,0,0,1,5.95-2.48,7,7,0,0,1,5.48,2.14,8.62,8.62,0,0,1,2,6v1.47H653.44Q653.65,992.06,659.22,992.06Zm-.12-14.32a5.17,5.17,0,0,0-3.87,1.45,7,7,0,0,0-1.72,4.26H664C663.87,979.64,662.23,977.74,659.1,977.74Z"/><path class="cls-1" d="M678.11,992.06a4.45,4.45,0,0,0,4.82-4l2.28.36a6,6,0,0,1-2.29,4.09,7.6,7.6,0,0,1-4.81,1.52,7.84,7.84,0,0,1-6.13-2.35c-1.4-1.57-2.11-3.84-2.11-6.8a9.53,9.53,0,0,1,2.21-6.61,7.56,7.56,0,0,1,5.95-2.48,7,7,0,0,1,5.48,2.14,8.62,8.62,0,0,1,2,6v1.47H672.33Q672.54,992.06,678.11,992.06ZM678,977.74a5.17,5.17,0,0,0-3.87,1.45,7,7,0,0,0-1.72,4.26h10.53C682.76,979.64,681.12,977.74,678,977.74Z"/><path class="cls-1" d="M697,992.06a4.45,4.45,0,0,0,4.82-4l2.28.36a6,6,0,0,1-2.29,4.09A7.6,7.6,0,0,1,697,994a7.84,7.84,0,0,1-6.13-2.35c-1.4-1.57-2.11-3.84-2.11-6.8a9.53,9.53,0,0,1,2.21-6.61,7.56,7.56,0,0,1,5.95-2.48,7,7,0,0,1,5.48,2.14,8.62,8.62,0,0,1,2,6v1.47H691.22Q691.43,992.06,697,992.06Zm-.12-14.32a5.17,5.17,0,0,0-3.87,1.45,7,7,0,0,0-1.72,4.26h10.53C701.65,979.64,700,977.74,696.88,977.74Z"/><path class="cls-1" d="M723.31,982.33V993.6h-2.39V982.78a5.22,5.22,0,0,0-1.18-3.63,4.37,4.37,0,0,0-3.37-1.28,4.72,4.72,0,0,0-3.86,1.59,7.12,7.12,0,0,0-1.32,4.65v9.49h-2.37V976.2h2.37v2.3a6.18,6.18,0,0,1,5.57-2.71,6,6,0,0,1,6.55,6.54Z"/><path class="cls-1" d="M728.34,990.2h3.23v3.4h-3.23Z"/><path class="cls-1" d="M739.19,973.09h-2.37v-4h2.37Zm0,20.51h-2.37V976.2h2.37Z"/><path class="cls-1" d="M747.16,993.6h-2.38V976.2h2.38v3.4a5.5,5.5,0,0,1,5.18-3.4h1.3v2.3h-1.3a4.36,4.36,0,0,0-3.75,2.13,9.87,9.87,0,0,0-1.43,5.58Z"/><path class="cls-2" d="M1336.8,86.4h0a496.8,496.8,0,0,1,496.8,496.8V1080a0,0,0,0,1,0,0H840a0,0,0,0,1,0,0V583.2A496.8,496.8,0,0,1,1336.8,86.4Z"/><path class="cls-1" d="M104.06,471.57H87.33V447.05h16.38v2.24H89.88V458H102.3v2.17H89.88v9.18h14.18Z"/><path class="cls-1" d="M106.41,471.57l6.71-8.82-6.44-8.59h2.74l5.17,6.91,5.25-6.91h2.7L116,462.71l6.72,8.86H120l-5.39-7.22-5.44,7.22Z"/><path class="cls-1" d="M123.89,456.16v-2h3.22v-5.74h2.39v5.74h4.72v2H129.5v10.53a3.37,3.37,0,0,0,.54,2.19,2.39,2.39,0,0,0,1.87.62h2.77v2.07h-3.06a4.52,4.52,0,0,1-3.34-1.18,4.59,4.59,0,0,1-1.17-3.37V456.16Z"/><path class="cls-1" d="M140.48,471.57H138.1V454.16h2.38v3.41a5.51,5.51,0,0,1,5.18-3.41H147v2.31h-1.3a4.36,4.36,0,0,0-3.75,2.13,9.79,9.79,0,0,0-1.43,5.58Z"/><path class="cls-1" d="M164.1,469.57H165v2h-1.44a3.37,3.37,0,0,1-2.2-.72,2.37,2.37,0,0,1-.88-1.92v-.13a6.12,6.12,0,0,1-5.67,3.19,6.51,6.51,0,0,1-4.38-1.41,4.61,4.61,0,0,1-1.64-3.66,4.8,4.8,0,0,1,1.37-3.5,7,7,0,0,1,3.88-1.84l5.28-.9a1.23,1.23,0,0,0,1.13-1.34,3.26,3.26,0,0,0-1.15-2.6,4.55,4.55,0,0,0-3.12-1q-3.85,0-4.69,3.57l-2.24-.31a5.94,5.94,0,0,1,2.29-3.8,7.54,7.54,0,0,1,4.74-1.45,6.73,6.73,0,0,1,4.77,1.62,5.63,5.63,0,0,1,1.74,4.33v8.53a1.45,1.45,0,0,0,.3,1A1.37,1.37,0,0,0,164.1,469.57Zm-12.92-2.77a2.93,2.93,0,0,0,1,2.34,4.08,4.08,0,0,0,2.75.85,5.11,5.11,0,0,0,4-1.76,6.77,6.77,0,0,0,1.57-4.61v-1.11l-6.22,1.07a3.78,3.78,0,0,0-2.28,1.09A3,3,0,0,0,151.18,466.8Z"/><path class="cls-1" d="M194,471.57H177.21V447.05h16.38v2.24H179.76V458h12.43v2.17H179.76v9.18H194Z"/><path class="cls-1" d="M212.82,460.3v11.27h-2.39V460.75a5.2,5.2,0,0,0-1.18-3.63,4.37,4.37,0,0,0-3.37-1.28,4.71,4.71,0,0,0-3.86,1.59,7.12,7.12,0,0,0-1.32,4.65v9.49h-2.38V454.16h2.38v2.31a6.19,6.19,0,0,1,5.57-2.72,6.05,6.05,0,0,1,6.55,6.55Z"/><path class="cls-1" d="M224.62,470.56a6.94,6.94,0,0,1-5.46-2.28,8.91,8.91,0,0,1-2-6.13,8.82,8.82,0,0,1,2-6.09,6.92,6.92,0,0,1,5.44-2.31,6.59,6.59,0,0,1,5.52,2.65v-2.24h2.37v16.71a7.61,7.61,0,0,1-2,5.53,7.2,7.2,0,0,1-5.44,2.06,8.33,8.33,0,0,1-5.31-1.54,5.91,5.91,0,0,1-2.25-4.28l2.38-.2a4.71,4.71,0,0,0,1.65,3,5.77,5.77,0,0,0,3.49.93,4.8,4.8,0,0,0,3.8-1.45,6.34,6.34,0,0,0,1.28-4.29v-3A6.39,6.39,0,0,1,224.62,470.56Zm-5-8.41a7,7,0,0,0,1.4,4.68,4.87,4.87,0,0,0,4,1.66,4.68,4.68,0,0,0,3.79-1.75,7.86,7.86,0,0,0,0-9.14,4.63,4.63,0,0,0-3.78-1.8,4.9,4.9,0,0,0-4,1.65A7.19,7.19,0,0,0,219.61,462.15Z"/><path class="cls-1" d="M240.43,471.57h-2.38V447.05h2.38Z"/><path class="cls-1" d="M248.4,451.05H246v-4h2.38Zm0,20.52H246V454.16h2.38Z"/><path class="cls-1" d="M259.9,472a8.07,8.07,0,0,1-5.21-1.57,5.51,5.51,0,0,1-2.11-4.21l2.35-.42a4.82,4.82,0,0,0,1.48,3.19,5.3,5.3,0,0,0,3.49,1,4.76,4.76,0,0,0,3.09-.86,3.1,3.1,0,0,0,1.05-2.54q0-2.25-3.51-2.84l-2.37-.37q-5.06-.84-5.05-4.77a4.26,4.26,0,0,1,1.74-3.49,8.28,8.28,0,0,1,9.14,0,6.14,6.14,0,0,1,2.18,4l-2.17.38a5.11,5.11,0,0,0-1.59-2.87,4.76,4.76,0,0,0-3-.87,4.86,4.86,0,0,0-2.89.76,2.34,2.34,0,0,0-1.06,2,2.36,2.36,0,0,0,.73,1.83,4.2,4.2,0,0,0,2.31.9l2.74.45c3.47.56,5.21,2.2,5.21,4.9a4.87,4.87,0,0,1-1.76,3.92A7.13,7.13,0,0,1,259.9,472Z"/><path class="cls-1" d="M285.23,460.3v11.27h-2.39V460.75a5.15,5.15,0,0,0-1.18-3.63,4.36,4.36,0,0,0-3.37-1.28,4.73,4.73,0,0,0-3.86,1.59,7.12,7.12,0,0,0-1.32,4.65v9.49h-2.37V447.05h2.37v9.42a6.2,6.2,0,0,1,5.58-2.72,6.05,6.05,0,0,1,6.54,6.55Z"/><path class="cls-1" d="M296.28,456.16v-2h3.21v-5.74h2.39v5.74h4.72v2h-4.72v10.53a3.37,3.37,0,0,0,.54,2.19,2.4,2.4,0,0,0,1.87.62h2.77v2.07H304a4.53,4.53,0,0,1-3.34-1.18,4.59,4.59,0,0,1-1.17-3.37V456.16Z"/><path class="cls-1" d="M317.29,470a4.46,4.46,0,0,0,4.82-4l2.27.36a6,6,0,0,1-2.29,4.09,7.58,7.58,0,0,1-4.8,1.51,7.81,7.81,0,0,1-6.13-2.35c-1.41-1.56-2.11-3.83-2.11-6.79a9.55,9.55,0,0,1,2.2-6.62,7.61,7.61,0,0,1,5.95-2.48,7,7,0,0,1,5.49,2.15,8.61,8.61,0,0,1,1.95,6v1.47H311.51Q311.72,470,317.29,470Zm-.12-14.33a5.17,5.17,0,0,0-3.87,1.46,6.79,6.79,0,0,0-1.72,4.25h10.53C321.94,457.61,320.29,455.7,317.17,455.7Z"/><path class="cls-1" d="M326.23,471.57l6.72-8.82-6.45-8.59h2.74l5.18,6.91,5.24-6.91h2.7l-6.51,8.55,6.72,8.86h-2.8l-5.39-7.22L329,471.57Z"/><path class="cls-1" d="M343.72,456.16v-2h3.21v-5.74h2.39v5.74H354v2h-4.72v10.53a3.37,3.37,0,0,0,.54,2.19,2.39,2.39,0,0,0,1.87.62h2.77v2.07h-3.06a4.52,4.52,0,0,1-3.34-1.18,4.59,4.59,0,0,1-1.17-3.37V456.16Z"/><path class="cls-1" d="M380.81,460.3v11.27h-2.39V460.75a5.2,5.2,0,0,0-1.18-3.63,4.37,4.37,0,0,0-3.37-1.28,4.71,4.71,0,0,0-3.86,1.59,7.12,7.12,0,0,0-1.32,4.65v9.49h-2.38V447.05h2.38v9.42a6.19,6.19,0,0,1,5.57-2.72,6.05,6.05,0,0,1,6.55,6.55Z"/><path class="cls-1" d="M393.27,470a4.45,4.45,0,0,0,4.82-4l2.28.36a6,6,0,0,1-2.29,4.09,7.59,7.59,0,0,1-4.81,1.51,7.81,7.81,0,0,1-6.13-2.35c-1.4-1.56-2.11-3.83-2.11-6.79a9.56,9.56,0,0,1,2.21-6.62,7.6,7.6,0,0,1,5.95-2.48,7,7,0,0,1,5.48,2.15,8.61,8.61,0,0,1,1.95,6v1.47H387.5Q387.7,470,393.27,470Zm-.12-14.33a5.17,5.17,0,0,0-3.87,1.46,6.9,6.9,0,0,0-1.72,4.25h10.53C397.92,457.61,396.28,455.7,393.15,455.7Z"/><path class="cls-1" d="M407.46,471.57h-2.37V454.16h2.37v3.41a5.52,5.52,0,0,1,5.18-3.41h1.3v2.31h-1.3a4.33,4.33,0,0,0-3.74,2.13,9.79,9.79,0,0,0-1.44,5.58Z"/><path class="cls-1" d="M424,470a4.45,4.45,0,0,0,4.82-4l2.28.36a6,6,0,0,1-2.29,4.09A7.59,7.59,0,0,1,424,472a7.78,7.78,0,0,1-6.12-2.35c-1.41-1.56-2.12-3.83-2.12-6.79a9.56,9.56,0,0,1,2.21-6.62,7.6,7.6,0,0,1,5.95-2.48,7,7,0,0,1,5.49,2.15,8.65,8.65,0,0,1,1.94,6v1.47H418.27Q418.47,470,424,470Zm-.12-14.33a5.17,5.17,0,0,0-3.87,1.46,6.9,6.9,0,0,0-1.72,4.25h10.53C428.69,457.61,427.05,455.7,423.92,455.7Z"/></g></svg>