<svg xmlns="http://www.w3.org/2000/svg" viewBox="0 0 1079 1080"><defs><style>.cls-1{fill:#a9afb0;}.cls-2{fill:#fff;}</style></defs><g id="Background"><rect width="1080" height="1080"/></g><g id="Graphic"><path class="cls-1" d="M88.69,863.63h904.9V463.39c-110.67-125-272.35-203.83-452.45-203.83S199.36,338.37,88.69,463.39Z"/><path class="cls-2" d="M994.09,994.1h-12.5v-1h11.5v-4.29h1Zm-24.5,0h-12v-1h12Zm-24,0h-12v-1h12Zm-24,0h-12v-1h12Zm-24,0h-12v-1h12Zm-24,0h-12v-1h12Zm-24,0h-12v-1h12Zm-24,0h-12v-1h12Zm-24,0h-12v-1h12Zm-24,0h-12v-1h12Zm-24,0h-12v-1h12Zm-24,0h-12v-1h12Zm-24,0h-12v-1h12Zm-24,0h-12v-1h12Zm-24,0h-12v-1h12Zm-24,0h-12v-1h12Zm-24,0h-12v-1h12Zm-24,0h-12v-1h12Zm-24,0h-12v-1h12Zm-24,0h-12v-1h12Zm-24,0h-12v-1h12Zm-24,0h-12v-1h12Zm-24,0h-12v-1h12Zm-24,0h-12v-1h12Zm-24,0h-12v-1h12Zm-24,0h-12v-1h12Zm-24,0h-12v-1h12Zm-24,0h-12v-1h12Zm-24,0h-12v-1h12Zm-24,0h-12v-1h12Zm-24,0h-12v-1h12Zm-24,0h-12v-1h12Zm-24,0h-12v-1h12Zm-24,0h-12v-1h12Zm-24,0h-12v-1h12Zm-24,0h-12v-1h12Zm-24,0h-12v-1h12Zm-24,0h-12v-1h12Zm-18.7-5.31h-1v-12h1Zm907.19-12h-1v-12h1Zm-907.19-12h-1v-12h1Zm907.19-12h-1v-12h1Zm-907.19-12h-1v-12h1Zm907.19-12h-1v-12h1Zm-907.19-12h-1v-12h1Zm907.19-12h-1v-12h1Zm-907.19-12h-1v-12h1Zm907.19-12h-1v-12h1Zm-907.19-12h-1v-12h1Zm907.19-12h-1v-12h1Zm-907.19-12h-1v-12h1Zm907.19-12h-1v-12h1Zm-907.19-12h-1v-12h1Zm907.19-12h-1v-12h1Zm-907.19-12h-1v-12h1Zm907.19-12h-1v-12h1Zm-907.19-12h-1v-12h1Zm907.19-12h-1v-12h1Zm-907.19-12h-1v-12h1Zm907.19-12h-1v-12h1Zm-907.19-12h-1v-12h1Zm907.19-12h-1v-12h1Zm-907.19-12h-1v-12h1Zm907.19-12h-1v-12h1Zm-907.19-12h-1v-12h1Zm907.19-12h-1v-12h1Zm-907.19-12h-1v-12h1Zm907.19-12h-1v-12h1Zm-907.19-12h-1v-12h1Zm907.19-12h-1v-12h1Zm-907.19-12h-1v-12h1Zm907.19-12h-1v-12h1Zm-907.19-12h-1v-12h1Zm907.19-12h-1v-12h1Zm-907.19-12h-1v-12h1Zm907.19-12h-1v-12h1Zm-907.19-12h-1v-12h1Zm907.19-12h-1v-12h1Zm-907.19-12h-1v-12h1Zm907.19-12h-1v-12h1Zm-907.19-12h-1v-12h1Zm907.19-12h-1v-12h1Zm-907.19-12h-1v-12h1Zm907.19-12h-1v-12h1Zm-907.19-12h-1v-12h1Zm907.19-12h-1v-12h1Zm-907.19-12h-1v-12h1Zm907.19-12h-1v-12h1Zm-907.19-12h-1v-12h1Zm907.19-12h-1v-12h1Zm-907.19-12h-1v-12h1Zm907.19-12h-1v-12h1Zm-907.19-12h-1v-12h1Zm907.19-12h-1v-12h1Zm-907.19-12h-1v-12h1Zm907.19-12h-1v-12h1Zm-907.19-12h-1v-12h1Zm907.19-12h-1v-12h1Zm-907.19-12h-1v-12h1Zm907.19-12h-1v-12h1Zm-907.19-12h-1v-12h1Zm907.19-12h-1v-12h1Zm-907.19-12h-1v-12h1Zm907.19-12h-1v-12h1Zm-907.19-12h-1v-12h1Zm907.19-12h-1v-12h1Zm-907.19-12h-1v-12h1Zm907.19-12h-1v-12h1Zm-907.19-12h-1v-12h1Zm907.19-12h-1v-12h1Zm-907.19-12h-1v-12h1Zm907.19-12h-1v-12h1Zm-907.19-12h-1v-12h1Zm907.19-12h-1V86.9H984v-1h10.08ZM972,86.9H960v-1h12Zm-24,0H936v-1h12Zm-24,0H912v-1h12Zm-24,0H888v-1h12Zm-24,0H864v-1h12Zm-24,0H840v-1h12Zm-24,0H816v-1h12Zm-24,0H792v-1h12Zm-24,0H768v-1h12Zm-24,0H744v-1h12Zm-24,0H720v-1h12Zm-24,0H696v-1h12Zm-24,0H672v-1h12Zm-24,0H648v-1h12Zm-24,0H624v-1h12Zm-24,0H600v-1h12Zm-24,0H576v-1h12Zm-24,0H552v-1h12Zm-24,0H528v-1h12Zm-24,0H504v-1h12Zm-24,0H480v-1h12Zm-24,0H456v-1h12Zm-24,0H432v-1h12Zm-24,0H408v-1h12Zm-24,0H384v-1h12Zm-24,0H360v-1h12Zm-24,0H336v-1h12Zm-24,0H312v-1h12Zm-24,0H288v-1h12Zm-24,0H264v-1h12Zm-24,0H240v-1h12Zm-24,0H216v-1h12Zm-24,0H192v-1h12Zm-24,0H168v-1h12Zm-24,0H144v-1h12Zm-24,0H120v-1h12Zm-24,0H96v-1h12Z"/><path class="cls-2" d="M990.31,864.7h-12v-1h12Zm-24,0h-12v-1h12Zm-24,0h-12v-1h12Zm-24,0h-12v-1h12Zm-24,0h-12v-1h12Zm-24,0h-12v-1h12Zm-24,0h-12v-1h12Zm-24,0h-12v-1h12Zm-24,0h-12v-1h12Zm-24,0h-12v-1h12Zm-24,0h-12v-1h12Zm-24,0h-12v-1h12Zm-24,0h-12v-1h12Zm-24,0h-12v-1h12Zm-24,0h-12v-1h12Zm-24,0h-12v-1h12Zm-24,0h-12v-1h12Zm-24,0h-12v-1h12Zm-24,0h-12v-1h12Zm-24,0h-12v-1h12Zm-24,0h-12v-1h12Zm-24,0h-12v-1h12Zm-24,0h-12v-1h12Zm-24,0h-12v-1h12Zm-24,0h-12v-1h12Zm-24,0h-12v-1h12Zm-24,0h-12v-1h12Zm-24,0h-12v-1h12Zm-24,0h-12v-1h12Zm-24,0h-12v-1h12Zm-24,0h-12v-1h12Zm-24,0h-12v-1h12Zm-24,0h-12v-1h12Zm-24,0h-12v-1h12Zm-24,0h-12v-1h12Zm-24,0h-12v-1h12Zm-24,0h-12v-1h12Zm-24,0h-12v-1h12Z"/><path class="cls-2" d="M990.31,950.9h-12v-1h12Zm-24,0h-12v-1h12Zm-24,0h-12v-1h12Zm-24,0h-12v-1h12Zm-24,0h-12v-1h12Zm-24,0h-12v-1h12Zm-24,0h-12v-1h12Zm-24,0h-12v-1h12Zm-24,0h-12v-1h12Zm-24,0h-12v-1h12Zm-24,0h-12v-1h12Zm-24,0h-12v-1h12Zm-24,0h-12v-1h12Zm-24,0h-12v-1h12Zm-24,0h-12v-1h12Zm-24,0h-12v-1h12Zm-24,0h-12v-1h12Zm-24,0h-12v-1h12Zm-24,0h-12v-1h12Zm-24,0h-12v-1h12Zm-24,0h-12v-1h12Zm-24,0h-12v-1h12Zm-24,0h-12v-1h12Zm-24,0h-12v-1h12Zm-24,0h-12v-1h12Zm-24,0h-12v-1h12Zm-24,0h-12v-1h12Zm-24,0h-12v-1h12Zm-24,0h-12v-1h12Zm-24,0h-12v-1h12Zm-24,0h-12v-1h12Zm-24,0h-12v-1h12Zm-24,0h-12v-1h12Zm-24,0h-12v-1h12Zm-24,0h-12v-1h12Zm-24,0h-12v-1h12Zm-24,0h-12v-1h12Zm-24,0h-12v-1h12Z"/><polygon class="cls-2" points="475.25 993.6 442.75 993.6 465.72 957.6 446.45 957.6 446.45 950.4 478.85 950.4 455.89 986.4 475.25 986.4 475.25 993.6"/><polygon class="cls-2" points="514.76 993.6 486.06 993.6 485.95 950.4 514.76 950.4 514.76 957.6 493.17 957.6 493.24 986.4 514.76 986.4 514.76 993.6"/><rect class="cls-2" x="489.56" y="968.4" width="25.2" height="7.2"/><polygon class="cls-2" points="554.45 993.6 525.65 993.6 525.65 950.4 554.45 950.4 554.45 957.6 532.85 957.6 532.85 986.4 554.45 986.4 554.45 993.6"/><rect class="cls-2" x="529.25" y="968.4" width="25.2" height="7.2"/><polygon class="cls-2" points="594.05 993.6 565.25 993.6 565.25 950.4 594.05 950.4 594.05 957.6 572.45 957.6 572.45 986.4 594.05 986.4 594.05 993.6"/><rect class="cls-2" x="568.85" y="968.4" width="25.2" height="7.2"/><polygon class="cls-2" points="637.25 993.6 630.08 993.6 612.05 964.18 612.05 993.6 604.85 993.6 604.85 950.4 612.04 950.4 630.05 979.78 630.05 950.4 637.25 950.4 637.25 993.6"/><path class="cls-2" d="M100.29,216H86.23V195.56H100v2.92H89.65v5.73h9.19V207H89.65v6h10.64Z"/><path class="cls-2" d="M107.34,216h-3.26V195.56h3.76l9.1,14.39V195.56h3.28V216h-3l-9.9-15.61Z"/><path class="cls-2" d="M133.92,216.35a9.49,9.49,0,0,1-7.2-2.89,12,12,0,0,1,0-15.32,9.71,9.71,0,0,1,7.41-2.92,10,10,0,0,1,5.93,1.69,8.15,8.15,0,0,1,3.17,4.78l-3.36.58a5.49,5.49,0,0,0-5.74-4.1,6.15,6.15,0,0,0-4.91,2.05,8.36,8.36,0,0,0-1.77,5.64,8,8,0,0,0,1.84,5.46,6.21,6.21,0,0,0,4.87,2.08,6.57,6.57,0,0,0,4.4-1.44,4.56,4.56,0,0,0,1.72-3.62v-.7h-5.89v-2.7h9V216h-3.09v-2.53a7,7,0,0,1-2.73,2.14A8.94,8.94,0,0,1,133.92,216.35Z"/><path class="cls-2" d="M160.58,216H147.66V195.56h3.42V213h9.5Z"/><path class="cls-2" d="M167,216h-3.42V195.56H167Z"/><path class="cls-2" d="M178.81,216.35a9.3,9.3,0,0,1-6-1.78,6.1,6.1,0,0,1-2.28-4.9l3.42-.39a4.24,4.24,0,0,0,1.34,3.19,5.13,5.13,0,0,0,3.53,1.1,4.39,4.39,0,0,0,2.9-.88,2.87,2.87,0,0,0,1.06-2.35,2.4,2.4,0,0,0-.72-1.87,5.45,5.45,0,0,0-2.54-1l-2.69-.56q-5.69-1.17-5.69-5.87a5.19,5.19,0,0,1,2-4.1,7.66,7.66,0,0,1,5.2-1.7,8.18,8.18,0,0,1,5.29,1.6,6.06,6.06,0,0,1,2.26,4.36l-3.47.37c-.26-2.38-1.63-3.56-4.11-3.56a4.33,4.33,0,0,0-2.74.78,2.54,2.54,0,0,0-1,2.11,2.62,2.62,0,0,0,.7,1.94,4.25,4.25,0,0,0,2.24,1l3.13.61a8,8,0,0,1,4.26,1.94,5,5,0,0,1,1.4,3.69,5.82,5.82,0,0,1-2.08,4.53A7.89,7.89,0,0,1,178.81,216.35Z"/><path class="cls-2" d="M193.38,216H190V195.56h3.41v8.49h9.45v-8.49h3.42V216h-3.42v-9h-9.45Z"/><path class="cls-2" d="M220.82,216H217.4V195.56h3.42v8.49h9.45v-8.49h3.42V216h-3.42v-9h-9.45Z"/><path class="cls-2" d="M248,201.18a2.88,2.88,0,0,0-.87-2.19,3.17,3.17,0,0,0-2.29-.82,3.51,3.51,0,0,0-3,1.33,5.81,5.81,0,0,0-.85,3.86l-3.32-.44a7,7,0,0,1,1.81-5.63,7.2,7.2,0,0,1,5.41-2.07,6.89,6.89,0,0,1,4.79,1.64,5.44,5.44,0,0,1,1.78,4.22,7.37,7.37,0,0,1-1.07,3.74,16.82,16.82,0,0,1-3.39,3.94l-4.88,4.34h10V216H237.57v-2.86l7.27-6.5a11.66,11.66,0,0,0,2.41-2.77A5.36,5.36,0,0,0,248,201.18Z"/><path class="cls-2" d="M262.09,209.45h-7.65v-2.82h7.65Z"/><path class="cls-2" d="M269.76,216h-3.42V195.56h3.42v8.49h9.44v-8.49h3.42V216H279.2v-9h-9.44Z"/><path class="cls-2" d="M301.51,216H287.45V195.56h13.77v2.92H290.87v5.73h9.19V207h-9.19v6h10.64Z"/><path class="cls-2" d="M317,211.48h-8.63L306.72,216h-3.43L311,195.56h3.71L322.34,216h-3.68Zm-7.58-2.84H316l-3.25-9Z"/><path class="cls-2" d="M333.5,216h-8.31V195.56h8.31a10,10,0,0,1,7.38,2.7,9.57,9.57,0,0,1,2.74,7.23,10.52,10.52,0,0,1-2.77,7.61A9.68,9.68,0,0,1,333.5,216Zm6.66-10.5a7.08,7.08,0,0,0-1.81-5.08,6.41,6.41,0,0,0-4.85-1.9h-4.9V213h4.9a6.11,6.11,0,0,0,4.85-2.06A8.07,8.07,0,0,0,340.16,205.49Z"/><path class="cls-2" d="M350.86,216h-3.42V195.56h3.42Z"/><path class="cls-2" d="M359,216h-3.26V195.56h3.76l9.1,14.39V195.56h3.28V216h-3L359,200.38Z"/><path class="cls-2" d="M385.53,216.35a9.51,9.51,0,0,1-7.21-2.89,12,12,0,0,1,.06-15.32,9.71,9.71,0,0,1,7.41-2.92,10,10,0,0,1,5.93,1.69,8.15,8.15,0,0,1,3.17,4.78l-3.36.58a5.5,5.5,0,0,0-5.74-4.1,6.14,6.14,0,0,0-4.91,2.05,8.36,8.36,0,0,0-1.78,5.64,8,8,0,0,0,1.84,5.46,6.24,6.24,0,0,0,4.87,2.08,6.58,6.58,0,0,0,4.41-1.44,4.56,4.56,0,0,0,1.72-3.62v-.7H386v-2.7h9V216H392v-2.53a7,7,0,0,1-2.74,2.14A8.9,8.9,0,0,1,385.53,216.35Z"/><path class="cls-2" d="M95.1,251.36a9.49,9.49,0,0,1-7.2-2.89,12.06,12.06,0,0,1,0-15.32,9.74,9.74,0,0,1,7.41-2.92,9.94,9.94,0,0,1,5.93,1.69,8.1,8.1,0,0,1,3.17,4.78l-3.36.58a5.49,5.49,0,0,0-5.74-4.1,6.15,6.15,0,0,0-4.91,2,8.36,8.36,0,0,0-1.77,5.64,8,8,0,0,0,1.84,5.46,6.22,6.22,0,0,0,4.87,2.08,6.57,6.57,0,0,0,4.4-1.44,4.57,4.57,0,0,0,1.73-3.62v-.7h-5.9V240h9V251h-3.09v-2.53a7,7,0,0,1-2.73,2.14A8.94,8.94,0,0,1,95.1,251.36Z"/><path class="cls-2" d="M127.46,240.79a10.84,10.84,0,0,1-2.7,7.68,10.3,10.3,0,0,1-14.31,0,12.31,12.31,0,0,1,0-15.35,10.26,10.26,0,0,1,14.28,0A10.73,10.73,0,0,1,127.46,240.79ZM113,235.22a10,10,0,0,0,0,11.15,5.68,5.68,0,0,0,4.63,2,5.77,5.77,0,0,0,4.68-2,10,10,0,0,0,0-11.15,5.77,5.77,0,0,0-4.68-2A5.68,5.68,0,0,0,113,235.22Z"/><path class="cls-2" d="M145.32,251H131.26V230.57H145v2.92H134.68v5.73h9.19V242h-9.19v6h10.64Z"/><path class="cls-2" d="M156.15,251.36a9.33,9.33,0,0,1-6-1.78,6.06,6.06,0,0,1-2.27-4.9l3.41-.39a4.28,4.28,0,0,0,1.34,3.19,5.18,5.18,0,0,0,3.54,1.1,4.4,4.4,0,0,0,2.9-.88,2.91,2.91,0,0,0,1.06-2.35,2.41,2.41,0,0,0-.73-1.87,5.4,5.4,0,0,0-2.54-1l-2.69-.56q-5.68-1.17-5.68-5.87a5.19,5.19,0,0,1,2-4.1,7.64,7.64,0,0,1,5.2-1.7,8.17,8.17,0,0,1,5.28,1.6,6.07,6.07,0,0,1,2.27,4.36l-3.48.37c-.25-2.38-1.62-3.56-4.1-3.56a4.32,4.32,0,0,0-2.74.78,2.54,2.54,0,0,0-1,2.11,2.66,2.66,0,0,0,.69,1.94,4.29,4.29,0,0,0,2.24,1l3.14.61a8.06,8.06,0,0,1,4.26,1.94,5,5,0,0,1,1.39,3.69,5.78,5.78,0,0,1-2.08,4.53A7.87,7.87,0,0,1,156.15,251.36Z"/><path class="cls-2" d="M177.05,251h-3.42V230.57h3.42v8.49h9.44v-8.49h3.42V251h-3.42v-9h-9.44Z"/><path class="cls-2" d="M208.8,251H194.74V230.57h13.77v2.92H198.16v5.73h9.19V242h-9.19v6H208.8Z"/><path class="cls-2" d="M227.84,245.8l.3,5.2h-3.41l-.3-5.2a2.45,2.45,0,0,0-.94-1.94,4.5,4.5,0,0,0-2.64-.62H216V251h-3.42V230.57h8.49a7.66,7.66,0,0,1,5.1,1.61,5,5,0,0,1,2,4.09,5.83,5.83,0,0,1-.86,3.13,6.07,6.07,0,0,1-2.41,2.21A4.2,4.2,0,0,1,227.84,245.8Zm-3.17-9.19a2.82,2.82,0,0,0-1-2.29,4.26,4.26,0,0,0-2.82-.85H216v6.95h4.81a3.74,3.74,0,0,0,2.79-1.06A3.69,3.69,0,0,0,224.67,236.61Z"/><path class="cls-2" d="M246.42,251H232.36V230.57h13.78v2.92H235.78v5.73H245V242h-9.19v6h10.64Z"/><path class="cls-2" d="M109.79,94.38a7.15,7.15,0,0,0-2-1.93,9.53,9.53,0,0,0-2.4-1,9.92,9.92,0,0,0-2.63-.36,13.09,13.09,0,0,0-3.79.5,8,8,0,0,0-2.69,1.35,5.68,5.68,0,0,0-1.61,2,5.53,5.53,0,0,0-.54,2.39,6,6,0,0,0,.67,3,5.61,5.61,0,0,0,1.7,1.85,9,9,0,0,0,2.26,1.1c.83.26,1.62.53,2.38.79l5.76,1.88a28,28,0,0,1,4.57,1.88,12.8,12.8,0,0,1,3.32,2.5,9.74,9.74,0,0,1,2,3.32,12.35,12.35,0,0,1,.7,4.36,11.28,11.28,0,0,1-1.09,5,12.16,12.16,0,0,1-3.07,4,14.61,14.61,0,0,1-4.68,2.64,18.14,18.14,0,0,1-6,.95,19,19,0,0,1-5.7-.75,12.62,12.62,0,0,1-4-2,10.32,10.32,0,0,1-2.57-2.89,15.48,15.48,0,0,1-1.51-3.33H86.77v-4.9H94a10.56,10.56,0,0,0,.67,4.47,6.05,6.05,0,0,0,1.87,2.18,8.35,8.35,0,0,0,2.84,1.31A13.94,13.94,0,0,0,103,125a12.51,12.51,0,0,0,3.49-.45,7.76,7.76,0,0,0,2.65-1.33,5.88,5.88,0,0,0,1.68-2.1,6.54,6.54,0,0,0,.59-2.81,5.68,5.68,0,0,0-.73-3,7.11,7.11,0,0,0-1.87-2.07,10.82,10.82,0,0,0-2.49-1.39c-.9-.36-1.77-.68-2.61-.94l-6.24-1.77a18.87,18.87,0,0,1-3.74-1.59,11.28,11.28,0,0,1-2.91-2.37A9.8,9.8,0,0,1,88.94,102a12.9,12.9,0,0,1-.66-4.32,11.15,11.15,0,0,1,1-4.64,10.66,10.66,0,0,1,2.85-3.79,13.79,13.79,0,0,1,4.6-2.55,19.19,19.19,0,0,1,6.22-.93,15.92,15.92,0,0,1,4.26.54,13.63,13.63,0,0,1,3.54,1.53,12.39,12.39,0,0,1,2.79,2.36,14.19,14.19,0,0,1,2,3h2.13v4.9h-7A6.36,6.36,0,0,0,109.79,94.38Z"/><path class="cls-2" d="M153.38,86.4h14v4.9h-4.1v33.39h4.1v4.9h-14v-4.9h4.33V109.16h-25v15.53h4.33v4.9H123v-4.9h4.1V91.3H123V86.4h14v4.9h-4.33v13.08h25V91.3h-4.33Z"/><path class="cls-2" d="M194.24,130.45a19.74,19.74,0,0,1-8.18-1.67,20.7,20.7,0,0,1-11-12,25.63,25.63,0,0,1-1.51-8.74,24.93,24.93,0,0,1,1.52-8.78,22.07,22.07,0,0,1,4.27-7.14,20.18,20.18,0,0,1,6.56-4.78,20.94,20.94,0,0,1,16.76,0,20,20,0,0,1,6.56,4.78,21.83,21.83,0,0,1,4.24,7.14,26.14,26.14,0,0,1,0,17.54,22,22,0,0,1-4.28,7.13,19.66,19.66,0,0,1-14.91,6.56Zm0-5.3a13.37,13.37,0,0,0,6.14-1.4,14.73,14.73,0,0,0,4.69-3.74,17.38,17.38,0,0,0,3-5.46,20.9,20.9,0,0,0-.1-13.38,16.13,16.13,0,0,0-3.22-5.57,14.61,14.61,0,0,0-4.8-3.52,13.8,13.8,0,0,0-5.7-1.24,13.44,13.44,0,0,0-6.15,1.4A14.49,14.49,0,0,0,183.38,96a17.22,17.22,0,0,0-3,5.47,20.37,20.37,0,0,0-1,6.54,20.1,20.1,0,0,0,1.17,7.1,15.46,15.46,0,0,0,3.09,5.19,16.8,16.8,0,0,0,4.59,3.46A12.82,12.82,0,0,0,194.24,125.15Z"/><path class="cls-2" d="M221.05,86.4h18a17.61,17.61,0,0,1,5.31.76,12.24,12.24,0,0,1,4.22,2.22A10.24,10.24,0,0,1,251.34,93a12.12,12.12,0,0,1,1,5,9.23,9.23,0,0,1-.58,3.21,11,11,0,0,1-1.63,2.93,12.23,12.23,0,0,1-2.46,2.41,11.24,11.24,0,0,1-3.11,1.62,6.31,6.31,0,0,1,1.44.9,8.07,8.07,0,0,1,1.37,1.42,11.85,11.85,0,0,1,1.17,1.91,12.08,12.08,0,0,1,.84,2.3l2.39,9.4h3.74l.05,5.41h-8.4l-3.22-13.13a10.33,10.33,0,0,0-2.69-5.2,7,7,0,0,0-5-1.67h-5.55v15.1h4.33v4.9h-14v-4.9h4.1V91.33h-4.1Zm9.69,4.93v13.59H239a9.64,9.64,0,0,0,3-.43,6.32,6.32,0,0,0,2.34-1.28,5.89,5.89,0,0,0,1.54-2.12,7.32,7.32,0,0,0,.56-3,6.52,6.52,0,0,0-1.94-5c-1.29-1.19-3.35-1.79-6.16-1.79Z"/><path class="cls-2" d="M271.42,124.69h4V91.07h-9.86V97.8h-5.84V86.4H298.2V97.8h-5.84V91.07H281v33.62h4.44v4.9h-14Z"/><path class="cls-2" d="M346.55,86.4h14v4.9h-4.1v33.39h4.1v4.9h-14v-4.9h4.33V109.16h-25v15.53h4.33v4.9h-14v-4.9h4.1V91.3h-4.1V86.4h14v4.9H325.9v13.08h25V91.3h-4.33Z"/><path class="cls-2" d="M371.54,124.69h4.19V93.1L367,97.85V91.9l12-6.73h2.28v39.52h4.25v4.9h-14Z"/><path class="cls-2" d="M436.27,86.4h14v4.9h-4.1v33.39h4.1v4.9h-14v-4.9h4.33V109.16h-25v15.53H420v4.9h-14v-4.9H410V91.3h-4.1V86.4h14v4.9h-4.33v13.08h25V91.3h-4.33Z"/><path class="cls-2" d="M458.44,86.4h30.94V98.62h-5.84V91.33H468.13v13.82h13v4.9h-13v14.64h15.41V117.4h5.84v12.19H458.44v-4.9h4.1V91.33h-4.1Z"/><path class="cls-2" d="M520.63,124.69h3.59l-3.41-9.8H504.2l-3.34,9.8h4.45v4.9h-14v-4.9h3.76L508.5,86.4h8.4l13.42,38.29h4.33v4.9h-14Zm-14.81-14.53h13.33l-6.72-19.32Z"/><path class="cls-2" d="M539,86.4h16.07a20.46,20.46,0,0,1,10.63,2.93,21.12,21.12,0,0,1,4.19,3.35A20.52,20.52,0,0,1,573.1,97a22.23,22.23,0,0,1,2,5.14,22.9,22.9,0,0,1,.71,5.71,23.37,23.37,0,0,1-.71,5.79,22.72,22.72,0,0,1-2,5.18,20.83,20.83,0,0,1-3.2,4.4,20.62,20.62,0,0,1-4.19,3.39,20.23,20.23,0,0,1-10.63,3H539v-4.9h4.1V91.33H539Zm9.69,4.93v33.36h6.72a12.39,12.39,0,0,0,5.63-1.31,14.61,14.61,0,0,0,4.6-3.57,17.23,17.23,0,0,0,3.11-5.33,18.76,18.76,0,0,0,1.14-6.6,18.23,18.23,0,0,0-1.14-6.49,16.88,16.88,0,0,0-3.11-5.26,14.6,14.6,0,0,0-4.6-3.52,12.76,12.76,0,0,0-5.63-1.28Z"/><path class="cls-2" d="M582,86.4h13.79v4.93h-4.11v33.36h4.11v4.9H582v-4.9h4.1V91.33H582Z"/><path class="cls-2" d="M630.61,86.4h14v4.93H641v38.26h-7.29L613.57,93.78v30.91H618v4.9H604v-4.9h4V91.33h-4.1v-5h11.62l19.72,35.47.22-1.36V91.33h-4.84Z"/><path class="cls-2" d="M683.49,129.76V121.1a14.48,14.48,0,0,1-2.71,3.92,15.15,15.15,0,0,1-3.61,2.75,17.36,17.36,0,0,1-4.26,1.62,19.83,19.83,0,0,1-4.61.54,20.89,20.89,0,0,1-7.77-1.41,17.84,17.84,0,0,1-6.46-4.48,20.9,20.9,0,0,1-4.41-7.3,25.58,25.58,0,0,1-1.53-8.8,24.76,24.76,0,0,1,1.53-8.72,21.94,21.94,0,0,1,4.27-7.15,19.89,19.89,0,0,1,6.55-4.79,19.61,19.61,0,0,1,8.25-1.73,19.28,19.28,0,0,1,7,1.16,19.8,19.8,0,0,1,5.05,2.84,22.52,22.52,0,0,1,3.34,3.18h2.77V97.8h-6.13a14.28,14.28,0,0,0-5-5.13,14.09,14.09,0,0,0-13.07-.43A14.87,14.87,0,0,0,658,96a17.71,17.71,0,0,0-3,5.44,19.49,19.49,0,0,0-1.08,6.5,20.4,20.4,0,0,0,1.19,7,16,16,0,0,0,3,5.27,15.16,15.16,0,0,0,4.58,3.35,13.59,13.59,0,0,0,6,1.32,14.47,14.47,0,0,0,9-2.66q3.49-2.67,4.9-8.31H670.53v-4.9h18.26v20.71Z"/><rect class="cls-2" x="86.53" y="170.63" width="43.2" height="4.32"/><path class="cls-2" d="M97.77,980.79l-9.08,11.14H98v1.67H86.4V992l9.16-11.26H86.88V979.1H97.77Z"/><path class="cls-2" d="M107.06,992.32a3.7,3.7,0,0,0,4-3.34l1.9.3a5,5,0,0,1-1.91,3.41,6.28,6.28,0,0,1-4,1.27,6.52,6.52,0,0,1-5.11-2,8.24,8.24,0,0,1-1.76-5.67,7.94,7.94,0,0,1,1.84-5.51,6.31,6.31,0,0,1,5-2.06,5.86,5.86,0,0,1,4.57,1.78,7.21,7.21,0,0,1,1.62,5v1.23H102.24C102.36,990.47,104,992.32,107.06,992.32Zm-.1-11.94a4.31,4.31,0,0,0-3.23,1.21,5.77,5.77,0,0,0-1.43,3.55h8.77Q110.86,980.39,107,980.38Z"/><path class="cls-2" d="M122.8,992.32a3.7,3.7,0,0,0,4-3.34l1.9.3a5,5,0,0,1-1.91,3.41,6.28,6.28,0,0,1-4,1.27,6.54,6.54,0,0,1-5.11-2,8.24,8.24,0,0,1-1.76-5.67,7.94,7.94,0,0,1,1.84-5.51,6.31,6.31,0,0,1,5-2.06,5.86,5.86,0,0,1,4.57,1.78,7.21,7.21,0,0,1,1.62,5v1.23H118C118.1,990.47,119.7,992.32,122.8,992.32Zm-.1-11.94a4.31,4.31,0,0,0-3.23,1.21,5.77,5.77,0,0,0-1.43,3.55h8.77Q126.6,980.39,122.7,980.38Z"/><path class="cls-2" d="M138.54,992.32a3.71,3.71,0,0,0,4-3.34l1.89.3a4.92,4.92,0,0,1-1.91,3.41,6.26,6.26,0,0,1-4,1.27,6.55,6.55,0,0,1-5.11-2,8.24,8.24,0,0,1-1.76-5.67,8,8,0,0,1,1.84-5.51,6.33,6.33,0,0,1,5-2.06,5.86,5.86,0,0,1,4.57,1.78,7.21,7.21,0,0,1,1.63,5v1.23H133.72C133.84,990.47,135.44,992.32,138.54,992.32Zm-.1-11.94a4.32,4.32,0,0,0-3.23,1.21,5.77,5.77,0,0,0-1.43,3.55h8.78Q142.33,980.39,138.44,980.38Z"/><path class="cls-2" d="M160.46,984.21v9.39h-2v-9a4.32,4.32,0,0,0-1-3,3.64,3.64,0,0,0-2.81-1.07,3.94,3.94,0,0,0-3.22,1.33,5.93,5.93,0,0,0-1.1,3.87v7.91h-2V979.1h2V981a5.16,5.16,0,0,1,4.65-2.26,5,5,0,0,1,5.45,5.45Z"/><path class="cls-2" d="M164.65,990.76h2.69v2.84h-2.69Z"/><path class="cls-2" d="M173.7,976.5h-2v-3.33h2Zm0,17.1h-2V979.1h2Z"/><path class="cls-2" d="M180.34,993.6h-2V979.1h2v2.83a4.58,4.58,0,0,1,4.31-2.83h1.08V981h-1.08a3.63,3.63,0,0,0-3.12,1.77,8.2,8.2,0,0,0-1.19,4.66Z"/><rect class="cls-2" x="907.16" y="864.2" width="86.4" height="21.6"/><rect class="cls-2" x="907.16" y="929" width="86.4" height="21.6"/><rect class="cls-2" x="903.3" y="896.62" width="94.16" height="21.6" transform="translate(-360.07 810.76) rotate(-39.46)"/></g></svg>