<svg xmlns="http://www.w3.org/2000/svg" xmlns:xlink="http://www.w3.org/1999/xlink" viewBox="0 0 1074 1080"><defs><style>.cls-1{fill:#4672df;}.cls-2{fill:url(#linear-gradient);}.cls-3{fill:url(#linear-gradient-2);}.cls-4{fill:url(#linear-gradient-3);}.cls-5{fill:url(#linear-gradient-4);}.cls-6{fill:#fff;}</style><linearGradient id="linear-gradient" x1="546.62" x2="546.62" y2="1080.04" gradientTransform="translate(819.92 1080) rotate(180)" gradientUnits="userSpaceOnUse"><stop offset="0" stop-color="#fff" stop-opacity="0"/><stop offset="1" stop-color="#fff"/></linearGradient><linearGradient id="linear-gradient-2" x1="819.42" y1="0" x2="819.42" y2="1080.04" xlink:href="#linear-gradient"/><linearGradient id="linear-gradient-3" x1="0.01" y1="546.65" x2="1074" y2="546.65" gradientTransform="translate(1074.01 819.9) rotate(180)" xlink:href="#linear-gradient"/><linearGradient id="linear-gradient-4" x1="0.01" y1="819.4" x2="1074" y2="819.4" gradientTransform="translate(1074.01 819.9) rotate(180)" xlink:href="#linear-gradient"/></defs><g id="Graphic"><rect class="cls-1" y="-0.05" width="273.21" height="68.3"/><rect class="cls-1" y="204.86" width="273.21" height="68.3"/><rect class="cls-1" x="-12.23" y="102.47" width="297.76" height="68.3" transform="translate(-55.68 117.98) rotate(-39.46)"/><rect class="cls-2" x="272.81" y="-0.05" width="1" height="1080.05"/><rect class="cls-3" y="-0.05" width="1" height="1080.05"/><rect class="cls-4" y="272.76" width="1074" height="1"/><rect class="cls-5" width="1074" height="1"/></g><g id="Isolation_Mode" data-name="Isolation Mode"><path class="cls-6" d="M462.59,120.1a11,11,0,0,1,2.65-7.65,9.17,9.17,0,0,1,7.2-3,9,9,0,0,1,7.14,3,10.78,10.78,0,0,1,2.7,7.65,11.1,11.1,0,0,1-2.7,7.72,9.14,9.14,0,0,1-7.14,2.94,9.3,9.3,0,0,1-7.2-2.94A11.33,11.33,0,0,1,462.59,120.1Zm40.8-10.33-33,41.28h-4.23l33-41.28Zm-26.52,15.88a10.52,10.52,0,0,0,0-11.09,5.88,5.88,0,0,0-8.85,0,10.34,10.34,0,0,0,0,11,5.88,5.88,0,0,0,8.85,0Zm10.37,15.1a11.14,11.14,0,0,1,2.64-7.69,9.23,9.23,0,0,1,7.2-3,9,9,0,0,1,7.14,3,10.81,10.81,0,0,1,2.71,7.69,11,11,0,0,1-2.71,7.71,9.12,9.12,0,0,1-7.14,2.94,9.33,9.33,0,0,1-7.2-2.94A11.35,11.35,0,0,1,487.24,140.75Zm14.28,5.55a10.57,10.57,0,0,0,0-11.12,5.89,5.89,0,0,0-8.86,0,10.39,10.39,0,0,0,0,11.08,5.91,5.91,0,0,0,8.86,0Z"/><path class="cls-6" d="M534.08,129.35a10.43,10.43,0,0,1,5.21,3.88,11,11,0,0,1,1.81,6.34,11.11,11.11,0,0,1-3.94,8.78q-3.85,3.42-10.22,3.42t-10.31-3.36a11.16,11.16,0,0,1-3.89-8.84,10.44,10.44,0,0,1,1.92-6.18,11.1,11.1,0,0,1,5.28-4,9.6,9.6,0,0,1-4.59-3.55,10.82,10.82,0,0,1,2-13.72q3.57-3.06,9.59-3t9.64,3a11,11,0,0,1,2,13.69A9.46,9.46,0,0,1,534.08,129.35Zm2.73,10.16a7.63,7.63,0,0,0-2.72-6.09,12.08,12.08,0,0,0-14.32,0,7.65,7.65,0,0,0-2.74,6.09,8,8,0,0,0,2.65,6.28,12.49,12.49,0,0,0,14.5,0A7.9,7.9,0,0,0,536.81,139.51Zm-18.88-19.46a7,7,0,0,0,2.47,5.54,10.91,10.91,0,0,0,13.06,0,7.07,7.07,0,0,0,2.46-5.54,6.62,6.62,0,0,0-2.37-5.43,12.25,12.25,0,0,0-13.23,0A6.57,6.57,0,0,0,517.93,120.05Z"/><path class="cls-6" d="M573.55,151.77a13.67,13.67,0,0,1-8.78-2.64,9.26,9.26,0,0,1-3.54-7.09l3.94-.72a8.15,8.15,0,0,0,2.51,5.37,8.84,8.84,0,0,0,5.87,1.72,8,8,0,0,0,5.2-1.46,5.2,5.2,0,0,0,1.77-4.27q0-3.81-5.9-4.78l-4-.64q-8.5-1.41-8.5-8a7.17,7.17,0,0,1,2.92-5.87,14,14,0,0,1,15.41,0,10.46,10.46,0,0,1,3.67,6.7l-3.66.63a8.63,8.63,0,0,0-2.68-4.84,8,8,0,0,0-5.12-1.47,8.18,8.18,0,0,0-4.87,1.29,4,4,0,0,0-1.78,3.38,4,4,0,0,0,1.22,3.09,7.06,7.06,0,0,0,3.9,1.51l4.61.75q8.78,1.44,8.78,8.27a8.23,8.23,0,0,1-3,6.59A12,12,0,0,1,573.55,151.77Z"/><path class="cls-6" d="M615,135.08v16h-4V132.83a9.16,9.16,0,0,0-1.83-6.1,6.47,6.47,0,0,0-5.23-2.16,7.18,7.18,0,0,0-6,2.69q-2.1,2.69-2.1,7.82v16h-4v-29.3h4v3.71a9.93,9.93,0,0,1,8.78-4.41,11.18,11.18,0,0,1,5.76,1.41,8.75,8.75,0,0,1,3.57,4.12q2.9-5.52,9.67-5.53a10.33,10.33,0,0,1,7.82,3q2.83,2.94,2.83,8.07v19h-4V132.83a9.11,9.11,0,0,0-1.84-6.1,6.52,6.52,0,0,0-5.24-2.16,7.15,7.15,0,0,0-6,2.69C615.73,129.05,615,131.66,615,135.08Z"/><path class="cls-6" d="M666.83,147.69h1.53v3.36h-2.42a5.69,5.69,0,0,1-3.7-1.2,4,4,0,0,1-1.48-3.23v-.23a10.33,10.33,0,0,1-9.56,5.38,10.93,10.93,0,0,1-7.37-2.37,7.76,7.76,0,0,1-2.76-6.18,8,8,0,0,1,2.3-5.88,11.69,11.69,0,0,1,6.53-3.1l8.9-1.53a2.06,2.06,0,0,0,1.9-2.24,5.53,5.53,0,0,0-1.93-4.39,7.74,7.74,0,0,0-5.27-1.69q-6.48,0-7.88,6l-3.78-.52a9.94,9.94,0,0,1,3.86-6.4,12.73,12.73,0,0,1,8-2.44,11.39,11.39,0,0,1,8,2.72,9.48,9.48,0,0,1,2.94,7.3v14.37a2.38,2.38,0,0,0,.5,1.74A2.31,2.31,0,0,0,666.83,147.69ZM645.07,143a4.93,4.93,0,0,0,1.67,3.95,6.86,6.86,0,0,0,4.63,1.44,8.64,8.64,0,0,0,6.74-3,11.41,11.41,0,0,0,2.65-7.77V135.8l-10.48,1.81a6.39,6.39,0,0,0-3.84,1.83A5,5,0,0,0,645.07,143Z"/><path class="cls-6" d="M677.83,151.05h-4V109.77h4Z"/><path class="cls-6" d="M691.25,151.05h-4V109.77h4Z"/><path class="cls-6" d="M712.58,148.46q6.79,0,8.12-6.73l3.83.6a10,10,0,0,1-3.86,6.9,12.84,12.84,0,0,1-8.09,2.54q-6.76,0-10.32-4t-3.55-11.45q0-7,3.71-11.14a12.79,12.79,0,0,1,10-4.18q6,0,9.24,3.62T725,134.79v2.47H702.85Q703.2,148.46,712.58,148.46Zm-.2-24.12a8.73,8.73,0,0,0-6.52,2.44A11.61,11.61,0,0,0,703,134H720.7Q720.26,124.34,712.38,124.34Z"/><path class="cls-6" d="M742.44,151.77a13.67,13.67,0,0,1-8.78-2.64,9.26,9.26,0,0,1-3.54-7.09l3.94-.72a8.15,8.15,0,0,0,2.51,5.37,8.84,8.84,0,0,0,5.87,1.72,8,8,0,0,0,5.2-1.46,5.2,5.2,0,0,0,1.77-4.27q0-3.81-5.91-4.78l-4-.64q-8.49-1.41-8.49-8a7.14,7.14,0,0,1,2.92-5.87,14,14,0,0,1,15.4,0,10.43,10.43,0,0,1,3.68,6.7l-3.66.63a8.63,8.63,0,0,0-2.68-4.84,8,8,0,0,0-5.12-1.47,8.16,8.16,0,0,0-4.87,1.29,4.28,4.28,0,0,0-.56,6.47,7.06,7.06,0,0,0,3.9,1.51l4.61.75q8.77,1.44,8.78,8.27a8.2,8.2,0,0,1-3,6.59A12,12,0,0,1,742.44,151.77Z"/><path class="cls-6" d="M756.63,125.11v-3.36h5.42v-9.68h4v9.68H774v3.36h-7.94v17.74a5.68,5.68,0,0,0,.9,3.68,4,4,0,0,0,3.16,1h4.66v3.48h-5.15a7.59,7.59,0,0,1-5.63-2,7.7,7.7,0,0,1-2-5.67V125.11Z"/><path class="cls-6" d="M804.66,151.77a13.65,13.65,0,0,1-8.78-2.64,9.3,9.3,0,0,1-3.55-7.09l3.95-.72a8.19,8.19,0,0,0,2.5,5.37,8.87,8.87,0,0,0,5.88,1.72,8,8,0,0,0,5.19-1.46,5.2,5.2,0,0,0,1.77-4.27c0-2.54-2-4.13-5.9-4.78l-4-.64q-8.49-1.41-8.49-8a7.14,7.14,0,0,1,2.92-5.87,14,14,0,0,1,15.4,0,10.42,10.42,0,0,1,3.67,6.7l-3.65.63a8.63,8.63,0,0,0-2.68-4.84,8,8,0,0,0-5.13-1.47,8.15,8.15,0,0,0-4.86,1.29,4.26,4.26,0,0,0-.56,6.47,7,7,0,0,0,3.9,1.51l4.6.75q8.79,1.44,8.79,8.27a8.2,8.2,0,0,1-3,6.59A12,12,0,0,1,804.66,151.77Z"/><path class="cls-6" d="M826.91,116.51h-4v-6.74h4Zm0,34.54h-4v-29.3h4Z"/><path class="cls-6" d="M847.47,151.77a12.09,12.09,0,0,1-9.56-4.14q-3.54-4.15-3.54-11t3.54-11.26a11.86,11.86,0,0,1,9.56-4.29,11.28,11.28,0,0,1,9.85,5.13V109.77h4v41.28h-4v-4.6A11.16,11.16,0,0,1,847.47,151.77Zm-9-15.4q0,5.48,2.47,8.67a8.1,8.1,0,0,0,6.77,3.19,8.62,8.62,0,0,0,7-3.24,15.18,15.18,0,0,0,0-17.11,8.53,8.53,0,0,0-7-3.31,8.12,8.12,0,0,0-6.77,3.18Q838.52,130.93,838.52,136.37Z"/><path class="cls-6" d="M882.68,148.46q6.8,0,8.12-6.73l3.83.6a10.06,10.06,0,0,1-3.86,6.9,12.84,12.84,0,0,1-8.09,2.54q-6.76,0-10.32-4t-3.56-11.45q0-7,3.72-11.14a12.79,12.79,0,0,1,10-4.18q6,0,9.24,3.62t3.28,10.12v2.47H873Q873.29,148.46,882.68,148.46Zm-.2-24.12a8.71,8.71,0,0,0-6.52,2.44c-1.61,1.64-2.57,4-2.9,7.17H890.8Q890.37,124.34,882.48,124.34Z"/><path class="cls-6" d="M129.52,502a11.14,11.14,0,0,1,7.69,2.64,9.23,9.23,0,0,1,3,7.2,9,9,0,0,1-3,7.14,10.81,10.81,0,0,1-7.69,2.71,11,11,0,0,1-7.71-2.71,9.12,9.12,0,0,1-2.94-7.14,9.33,9.33,0,0,1,2.94-7.2A11.35,11.35,0,0,1,129.52,502Zm31,16.15-41.29-33v-4.23l41.29,33ZM124,516.3a10.59,10.59,0,0,0,11.13,0,5.88,5.88,0,0,0,0-8.86,10.37,10.37,0,0,0-11.07,0,5.92,5.92,0,0,0,0,8.86Zm26.21-38.93a11,11,0,0,1,7.65,2.65,9.17,9.17,0,0,1,3,7.2,9,9,0,0,1-3,7.14,10.8,10.8,0,0,1-7.65,2.7,11.08,11.08,0,0,1-7.72-2.7,9.14,9.14,0,0,1-2.94-7.14,9.3,9.3,0,0,1,2.94-7.2A11.33,11.33,0,0,1,150.17,477.37Zm-5.55,14.28a10.52,10.52,0,0,0,11.09,0,5.88,5.88,0,0,0,0-8.85,10.34,10.34,0,0,0-11.05,0,5.88,5.88,0,0,0,0,8.85Z"/><path class="cls-6" d="M140.92,548.86a10.43,10.43,0,0,1-3.88,5.21,11,11,0,0,1-6.34,1.81,11.11,11.11,0,0,1-8.78-3.94q-3.42-3.86-3.43-10.22t3.37-10.31a11.14,11.14,0,0,1,8.84-3.89,10.48,10.48,0,0,1,6.18,1.92,11.1,11.1,0,0,1,4,5.28,9.56,9.56,0,0,1,3.55-4.59,9.91,9.91,0,0,1,5.69-1.6,10.06,10.06,0,0,1,8,3.6q3,3.57,3.05,9.59t-3,9.64a11,11,0,0,1-13.69,2A9.46,9.46,0,0,1,140.92,548.86Zm-10.16,2.73a7.66,7.66,0,0,0,6.09-2.72,12.08,12.08,0,0,0,0-14.32,7.68,7.68,0,0,0-6.09-2.74,8,8,0,0,0-6.28,2.65,12.51,12.51,0,0,0,0,14.5A7.94,7.94,0,0,0,130.76,551.59Zm19.46-18.88a7,7,0,0,0-5.54,2.47,10.91,10.91,0,0,0,0,13.06,7.07,7.07,0,0,0,5.54,2.46,6.64,6.64,0,0,0,5.43-2.37,12.25,12.25,0,0,0,0-13.23A6.6,6.6,0,0,0,150.22,532.71Z"/><path class="cls-6" d="M118.49,588.33a13.67,13.67,0,0,1,2.65-8.78,9.26,9.26,0,0,1,7.09-3.54L129,580a8.15,8.15,0,0,0-5.37,2.51,8.79,8.79,0,0,0-1.72,5.87,8,8,0,0,0,1.46,5.2,5.2,5.2,0,0,0,4.27,1.77q3.81,0,4.78-5.9l.63-4c.95-5.67,3.62-8.5,8-8.5a7.17,7.17,0,0,1,5.87,2.92,14,14,0,0,1,0,15.41,10.46,10.46,0,0,1-6.7,3.67l-.63-3.66a8.63,8.63,0,0,0,4.84-2.68,8,8,0,0,0,1.47-5.12,8.18,8.18,0,0,0-1.29-4.87,4,4,0,0,0-3.38-1.78,4,4,0,0,0-3.09,1.22,7.13,7.13,0,0,0-1.52,3.9l-.74,4.61q-1.44,8.78-8.27,8.78a8.23,8.23,0,0,1-6.59-3A12,12,0,0,1,118.49,588.33Z"/><path class="cls-6" d="M135.19,629.82h-16v-4h18.23a9.16,9.16,0,0,0,6.1-1.83,6.47,6.47,0,0,0,2.16-5.23,7.21,7.21,0,0,0-2.69-6c-1.8-1.4-4.4-2.1-7.82-2.1h-16v-4h29.31v4h-3.71a9.92,9.92,0,0,1,4.4,8.78,11.18,11.18,0,0,1-1.41,5.76,8.68,8.68,0,0,1-4.11,3.57q5.52,2.89,5.52,9.67a10.33,10.33,0,0,1-3,7.82c-2,1.89-4.66,2.83-8.07,2.83h-19v-4h18.23a9.11,9.11,0,0,0,6.1-1.84,6.52,6.52,0,0,0,2.16-5.24,7.18,7.18,0,0,0-2.69-6C141.21,630.51,138.61,629.82,135.19,629.82Z"/><path class="cls-6" d="M122.58,681.61v1.53h-3.37v-2.42a5.7,5.7,0,0,1,1.21-3.7,4,4,0,0,1,3.23-1.48h.23a10.34,10.34,0,0,1-5.39-9.56,10.94,10.94,0,0,1,2.38-7.37,7.76,7.76,0,0,1,6.18-2.76,8,8,0,0,1,5.88,2.3,11.69,11.69,0,0,1,3.1,6.53l1.52,8.9a2.07,2.07,0,0,0,2.25,1.9,5.54,5.54,0,0,0,4.39-1.93,7.74,7.74,0,0,0,1.69-5.27q0-6.48-6-7.88l.52-3.78a10,10,0,0,1,6.4,3.86,12.72,12.72,0,0,1,2.43,8c0,3.39-.9,6.07-2.72,8a9.44,9.44,0,0,1-7.29,2.94H124.83a2.38,2.38,0,0,0-1.74.5A2.31,2.31,0,0,0,122.58,681.61Zm4.67-21.76a4.93,4.93,0,0,0-4,1.67,6.86,6.86,0,0,0-1.44,4.63,8.64,8.64,0,0,0,3,6.74,11.39,11.39,0,0,0,7.77,2.65h1.87l-1.81-10.48a6.39,6.39,0,0,0-1.83-3.84A5,5,0,0,0,127.25,659.85Z"/><path class="cls-6" d="M119.21,692.61v-4H160.5v4Z"/><path class="cls-6" d="M119.21,706v-4H160.5v4Z"/><path class="cls-6" d="M121.81,727.36q0,6.79,6.73,8.12l-.6,3.83a10,10,0,0,1-6.9-3.86,12.78,12.78,0,0,1-2.55-8.09q0-6.76,4-10.32t11.45-3.56q7,0,11.14,3.72a12.78,12.78,0,0,1,4.17,10q0,6-3.61,9.24t-10.12,3.28H133V717.63Q121.81,718,121.81,727.36Zm24.12-.2a8.73,8.73,0,0,0-2.44-6.52,11.64,11.64,0,0,0-7.17-2.89v17.73Q145.94,735,145.93,727.16Z"/><path class="cls-6" d="M118.49,757.22a13.67,13.67,0,0,1,2.65-8.78,9.26,9.26,0,0,1,7.09-3.54l.72,3.94a8.15,8.15,0,0,0-5.37,2.51,8.79,8.79,0,0,0-1.72,5.87,8,8,0,0,0,1.46,5.2,5.2,5.2,0,0,0,4.27,1.77q3.81,0,4.78-5.91l.63-4c.95-5.66,3.62-8.49,8-8.49a7.14,7.14,0,0,1,5.87,2.92,14,14,0,0,1,0,15.4,10.43,10.43,0,0,1-6.7,3.68l-.63-3.66a8.63,8.63,0,0,0,4.84-2.68,8,8,0,0,0,1.47-5.12,8.16,8.16,0,0,0-1.29-4.87,4.28,4.28,0,0,0-6.47-.56,7.13,7.13,0,0,0-1.52,3.9l-.74,4.61q-1.44,8.77-8.27,8.78a8.2,8.2,0,0,1-6.59-3A12,12,0,0,1,118.49,757.22Z"/><path class="cls-6" d="M145.16,771.41h3.36v5.42h9.68v4h-9.68v7.94h-3.36v-7.94H127.42a5.74,5.74,0,0,0-3.69.9,4.05,4.05,0,0,0-1,3.16v4.66h-3.49v-5.15a7.59,7.59,0,0,1,2-5.63,7.7,7.7,0,0,1,5.67-2h18.29Z"/><path class="cls-6" d="M118.49,819.44a13.66,13.66,0,0,1,2.65-8.78,9.3,9.3,0,0,1,7.09-3.55l.72,3.95a8.19,8.19,0,0,0-5.37,2.5,8.82,8.82,0,0,0-1.72,5.88,8,8,0,0,0,1.46,5.19,5.2,5.2,0,0,0,4.27,1.77c2.54,0,4.13-2,4.78-5.9l.63-4c.95-5.66,3.62-8.49,8-8.49a7.14,7.14,0,0,1,5.87,2.92,14,14,0,0,1,0,15.4,10.42,10.42,0,0,1-6.7,3.67l-.63-3.65a8.63,8.63,0,0,0,4.84-2.68,8,8,0,0,0,1.47-5.13,8.15,8.15,0,0,0-1.29-4.86,4.26,4.26,0,0,0-6.47-.56,7.07,7.07,0,0,0-1.52,3.9l-.74,4.6q-1.44,8.79-8.27,8.79a8.2,8.2,0,0,1-6.59-3A12,12,0,0,1,118.49,819.44Z"/><path class="cls-6" d="M119.21,841.69v-4h29.31v4Zm34.55,0v-4h6.74v4Z"/><path class="cls-6" d="M118.49,862.25a12.1,12.1,0,0,1,4.15-9.56q4.14-3.54,11-3.54t11.25,3.54a11.86,11.86,0,0,1,4.29,9.56,11.27,11.27,0,0,1-5.12,9.85H160.5v4H119.21v-4h4.61A11.17,11.17,0,0,1,118.49,862.25Zm15.41-9q-5.47,0-8.67,2.47a8.1,8.1,0,0,0-3.19,6.77,8.65,8.65,0,0,0,3.23,7,13.31,13.31,0,0,0,8.63,2.63,13.15,13.15,0,0,0,8.49-2.65,8.53,8.53,0,0,0,3.31-7,8.12,8.12,0,0,0-3.18-6.77Q139.34,853.3,133.9,853.3Z"/><path class="cls-6" d="M121.81,897.46q0,6.79,6.73,8.12l-.6,3.83a10.06,10.06,0,0,1-6.9-3.86,12.78,12.78,0,0,1-2.55-8.09q0-6.76,4-10.32t11.45-3.56q7,0,11.14,3.72a12.78,12.78,0,0,1,4.17,10q0,6-3.61,9.24t-10.12,3.28H133V887.73Q121.81,888.08,121.81,897.46Zm24.12-.2a8.71,8.71,0,0,0-2.44-6.52c-1.64-1.61-4-2.57-7.17-2.9v17.74Q145.94,905.15,145.93,897.26Z"/></g></svg>