<svg xmlns="http://www.w3.org/2000/svg" viewBox="0 0 1920 1080"><defs><style>.cls-1,.cls-4{fill:none;stroke:#fff;stroke-miterlimit:10;}.cls-1{stroke-dasharray:16.65;}.cls-2,.cls-5{fill:#fff;}.cls-3{fill:#a9afb0;}.cls-4{stroke-width:3.67px;}.cls-5{font-size:21.42px;font-family:Approach-Regular, Approach;letter-spacing:-0.03em;}.cls-6{letter-spacing:0.04em;}.cls-7{letter-spacing:-0.03em;}.cls-8{letter-spacing:-0.02em;}.cls-9{letter-spacing:-0.02em;}.cls-10{letter-spacing:-0.04em;}.cls-11{letter-spacing:-0.05em;}.cls-12{letter-spacing:-0.04em;}.cls-13{letter-spacing:-0.03em;}.cls-14{letter-spacing:-0.03em;}.cls-15{font-size:17.5px;letter-spacing:-0.03em;}.cls-16{letter-spacing:-0.04em;}.cls-17{letter-spacing:-0.06em;}</style></defs><g id="Background"><rect width="1920" height="1080"/></g><g id="Graphic"><rect class="cls-1" x="506.4" y="-333.62" width="907.19" height="1747.23" transform="translate(420 1500) rotate(-90)"/><path class="cls-2" d="M84.44,927.07h19v3.54H96v21H91.89v-21H84.44Z"/><path class="cls-2" d="M123.84,951.59H107V927.07H123.5v3.51H111.07v6.87h11v3.39h-11v7.24h12.77Z"/><path class="cls-2" d="M125.91,951.59l8-12.26L126,927.07h4.72l5.54,8.91,5.74-8.91h4.59l-8,12.16,8.19,12.36h-4.86l-5.74-8.89-5.57,8.89Z"/><path class="cls-2" d="M147.74,927.07h19v3.54h-7.42v21H155.2v-21h-7.46Z"/><path class="cls-2" d="M181,951.59h-4.11V927.07H181v10.19h11.33V927.07h4.1v24.52h-4.1V940.84H181Z"/><path class="cls-2" d="M213.54,933.81a3.43,3.43,0,0,0-1-2.62,3.86,3.86,0,0,0-2.76-1,4.22,4.22,0,0,0-3.59,1.6,7,7,0,0,0-1,4.62l-4-.53a8.43,8.43,0,0,1,2.17-6.75,8.67,8.67,0,0,1,6.49-2.48,8.26,8.26,0,0,1,5.75,2,6.5,6.5,0,0,1,2.13,5.06,8.91,8.91,0,0,1-1.27,4.5,20.15,20.15,0,0,1-4.08,4.71l-5.84,5.22h11.93v3.47H201.06v-3.44l8.72-7.79a14.13,14.13,0,0,0,2.89-3.33A6.41,6.41,0,0,0,213.54,933.81Z"/><path class="cls-2" d="M230.48,943.74H221.3v-3.38h9.18Z"/><path class="cls-2" d="M239.68,951.59h-4.11V927.07h4.11v10.19H251V927.07h4.1v24.52H251V940.84H239.68Z"/><path class="cls-2" d="M277.78,951.59H260.91V927.07h16.53v3.51H265v6.87h11v3.39H265v7.24h12.77Z"/><path class="cls-2" d="M296.4,946.17H286l-2,5.42h-4.12l9.23-24.52h4.44l9.18,24.52h-4.41Zm-9.1-3.4h7.88L291.29,932Z"/><path class="cls-2" d="M316.18,951.59h-10V927.07h10A12.09,12.09,0,0,1,325,930.3a11.53,11.53,0,0,1,3.28,8.69,12.68,12.68,0,0,1-3.31,9.13A11.64,11.64,0,0,1,316.18,951.59Zm8-12.6a8.45,8.45,0,0,0-2.17-6.1,7.66,7.66,0,0,0-5.81-2.28h-5.89v17.44h5.89a7.36,7.36,0,0,0,5.81-2.48A9.62,9.62,0,0,0,324.16,939Z"/><path class="cls-2" d="M337,951.59h-4.11V927.07H337Z"/><path class="cls-2" d="M346.71,951.59h-3.92V927.07h4.51l10.93,17.27V927.07h3.93v24.52h-3.57l-11.88-18.74Z"/><path class="cls-2" d="M378.61,952a11.4,11.4,0,0,1-8.65-3.48,12.84,12.84,0,0,1-3.27-9.11,13,13,0,0,1,3.33-9.26,11.63,11.63,0,0,1,8.89-3.51,12,12,0,0,1,7.12,2,9.76,9.76,0,0,1,3.81,5.73l-4,.7c-1.06-3.28-3.35-4.92-6.89-4.92a7.39,7.39,0,0,0-5.89,2.46,10.06,10.06,0,0,0-2.12,6.77,9.56,9.56,0,0,0,2.2,6.55,7.5,7.5,0,0,0,5.85,2.5,7.9,7.9,0,0,0,5.28-1.73,5.48,5.48,0,0,0,2.07-4.34v-.84h-7.08v-3.25H390v13.27h-3.71v-3.05a8.36,8.36,0,0,1-3.28,2.58A10.68,10.68,0,0,1,378.61,952Z"/><path class="cls-2" d="M97.36,994a11.44,11.44,0,0,1-8.65-3.47,14.46,14.46,0,0,1,.07-18.38,11.61,11.61,0,0,1,8.89-3.5,12,12,0,0,1,7.12,2,9.7,9.7,0,0,1,3.8,5.74l-4,.7c-1.06-3.28-3.36-4.93-6.89-4.93a7.38,7.38,0,0,0-5.89,2.47,10,10,0,0,0-2.13,6.77A9.55,9.55,0,0,0,91.86,988a7.46,7.46,0,0,0,5.85,2.5,7.9,7.9,0,0,0,5.28-1.73,5.48,5.48,0,0,0,2.07-4.34v-.84H98v-3.25H108.8V993.6h-3.71v-3a8.43,8.43,0,0,1-3.28,2.57A10.76,10.76,0,0,1,97.36,994Z"/><path class="cls-2" d="M136.19,981.34a13.06,13.06,0,0,1-3.23,9.22,12.38,12.38,0,0,1-17.19,0q-3.19-3.45-3.19-9.22a13,13,0,0,1,3.23-9.19,12.33,12.33,0,0,1,17.15,0A12.88,12.88,0,0,1,136.19,981.34Zm-17.38-6.68a12,12,0,0,0,0,13.38,6.83,6.83,0,0,0,5.56,2.45A6.92,6.92,0,0,0,130,988a12,12,0,0,0,0-13.38,6.92,6.92,0,0,0-5.61-2.45A6.83,6.83,0,0,0,118.81,974.66Z"/><path class="cls-2" d="M157.62,993.6H140.75V969.09h16.53v3.5H144.85v6.87h11v3.39h-11v7.25h12.77Z"/><path class="cls-2" d="M170.61,994a11.14,11.14,0,0,1-7.21-2.14,7.29,7.29,0,0,1-2.73-5.88l4.1-.46a5.11,5.11,0,0,0,1.61,3.83,6.19,6.19,0,0,0,4.23,1.31,5.31,5.31,0,0,0,3.48-1.05,3.47,3.47,0,0,0,1.28-2.83,2.84,2.84,0,0,0-.88-2.24,6.68,6.68,0,0,0-3-1.23l-3.23-.66q-6.83-1.41-6.82-7a6.21,6.21,0,0,1,2.38-4.92,9.15,9.15,0,0,1,6.24-2,9.84,9.84,0,0,1,6.34,1.91,7.35,7.35,0,0,1,2.72,5.23l-4.18.45Q174.45,972,170,972a5.21,5.21,0,0,0-3.29.94,3.07,3.07,0,0,0-1.19,2.53,3.15,3.15,0,0,0,.84,2.33A5,5,0,0,0,169,979l3.77.73A9.56,9.56,0,0,1,177.9,982a6,6,0,0,1,1.67,4.43,6.94,6.94,0,0,1-2.49,5.43A9.46,9.46,0,0,1,170.61,994Z"/><path class="cls-2" d="M195.69,993.6h-4.1V969.09h4.1v10.19H207V969.09h4.1V993.6H207V982.85H195.69Z"/><path class="cls-2" d="M233.8,993.6H216.92V969.09h16.53v3.5H221v6.87h11v3.39H221v7.25H233.8Z"/><path class="cls-2" d="M256.65,987.36l.36,6.24h-4.1l-.36-6.24a2.93,2.93,0,0,0-1.12-2.33,5.39,5.39,0,0,0-3.17-.75h-5.81v9.32h-4.11V969.09h10.19a9.18,9.18,0,0,1,6.12,1.93,6,6,0,0,1,2.36,4.9,7.06,7.06,0,0,1-1,3.76,7.23,7.23,0,0,1-2.9,2.65A5.05,5.05,0,0,1,256.65,987.36Zm-3.81-11a3.41,3.41,0,0,0-1.23-2.75,5.16,5.16,0,0,0-3.39-1h-5.77v8.34h5.77a4.48,4.48,0,0,0,3.35-1.27A4.43,4.43,0,0,0,252.84,976.33Z"/><path class="cls-2" d="M278.94,993.6H262.07V969.09H278.6v3.5H266.17v6.87h11v3.39h-11v7.25h12.77Z"/><path class="cls-2" d="M89.52,712.05h16.82V718h-5.2v40H119a2.59,2.59,0,0,0,1.1-.25,4.11,4.11,0,0,0,1-.67,3.67,3.67,0,0,0,.72-.94,2.33,2.33,0,0,0,.27-1.08v-6.53h6.5v15.35H89.52V758h4.92V718H89.52Z"/><path class="cls-2" d="M156.25,764.91a23.7,23.7,0,0,1-9.81-2,24.9,24.9,0,0,1-13.23-14.45A30.82,30.82,0,0,1,131.4,738a30,30,0,0,1,1.83-10.53,26.11,26.11,0,0,1,5.13-8.56,24.07,24.07,0,0,1,7.86-5.75,24.19,24.19,0,0,1,28,5.75,26,26,0,0,1,5.1,8.56A30.18,30.18,0,0,1,181.11,738a29.81,29.81,0,0,1-1.83,10.51,26.47,26.47,0,0,1-5.13,8.57,23.64,23.64,0,0,1-17.9,7.86Zm0-6.36a16.11,16.11,0,0,0,7.37-1.67,17.51,17.51,0,0,0,5.63-4.5,20.67,20.67,0,0,0,3.59-6.55A24.33,24.33,0,0,0,174.1,738a24.63,24.63,0,0,0-1.38-8.19,19.32,19.32,0,0,0-3.87-6.68,17.24,17.24,0,0,0-5.76-4.22,16.8,16.8,0,0,0-14.22.18,17.44,17.44,0,0,0-5.64,4.5,20.52,20.52,0,0,0-3.59,6.56,25.71,25.71,0,0,0,.14,16.38,18.52,18.52,0,0,0,3.7,6.22,20.34,20.34,0,0,0,5.51,4.16A15.48,15.48,0,0,0,156.25,758.55Z"/><path class="cls-2" d="M220.5,712.05h16.82V718h-4.41v45.91h-8.76l-24.1-43V758h5.33v5.88H188.56V758h4.79V718h-4.92v-6h13.95L226,754.55l.27-1.64V718H220.5Z"/><path class="cls-2" d="M284,764.09V753.7a17.57,17.57,0,0,1-3.25,4.7,18.19,18.19,0,0,1-4.34,3.3,21.27,21.27,0,0,1-5.11,1.95,23.8,23.8,0,0,1-5.52.64,25.14,25.14,0,0,1-9.34-1.69,21.4,21.4,0,0,1-7.74-5.38,25.06,25.06,0,0,1-5.3-8.76,30.78,30.78,0,0,1-1.83-10.56,29.77,29.77,0,0,1,1.83-10.46,26.42,26.42,0,0,1,5.13-8.58A23.56,23.56,0,0,1,266.24,711a23.06,23.06,0,0,1,8.46,1.4,23.76,23.76,0,0,1,6.05,3.4,27.82,27.82,0,0,1,4,3.81h3.32v6.09h-7.35a17.12,17.12,0,0,0-6.07-6.15,17,17,0,0,0-15.68-.52,17.48,17.48,0,0,0-5.62,4.52,21,21,0,0,0-3.64,6.53,23.2,23.2,0,0,0-1.3,7.79,24.22,24.22,0,0,0,1.44,8.45,18.92,18.92,0,0,0,3.65,6.32,18,18,0,0,0,5.49,4,16.31,16.31,0,0,0,7.23,1.59,17.3,17.3,0,0,0,10.77-3.2c2.8-2.13,4.77-5.45,5.88-10H268.4v-5.89h21.91v24.86Z"/><path class="cls-2" d="M353.22,712.05H370v5.88h-4.92V758H370v5.88H353.22V758h5.2V739.37h-30V758h5.2v5.88H316.81V758h4.92V717.93h-4.92v-5.88h16.82v5.88h-5.2v15.7h30v-15.7h-5.2Z"/><path class="cls-2" d="M383.2,758h5V720.09l-10.5,5.71v-7.15l14.43-8.07h2.74V758H400v5.88H383.2Z"/><path class="cls-2" d="M125.93,796.08h16.82V802h-4.92V842h4.92v5.88H125.93V842h5.19V823.39h-30V842h5.2v5.88H89.52V842h4.92V802H89.52v-5.88h16.82V802h-5.2v15.69h30V802h-5.19Z"/><path class="cls-2" d="M152.53,796.08h37.13v14.66h-7V802h-18.5v16.58h15.56v5.89H164.15V842h18.5v-8.75h7v14.63H152.53V842h4.92V802h-4.92Z"/><path class="cls-2" d="M227.16,842h4.31l-4.1-11.76H207.44l-4,11.76h5.33v5.88H192V842h4.51l16.14-45.95h10.08L238.79,842H244v5.88H227.16Zm-17.78-17.44h16l-8.07-23.18Z"/><path class="cls-2" d="M249.21,796.08H268.5a24.28,24.28,0,0,1,6.77.92,24.71,24.71,0,0,1,14.85,11.83,26.22,26.22,0,0,1,2.45,6.17,27.26,27.26,0,0,1,.85,6.86,27.72,27.72,0,0,1-.85,6.94,27,27,0,0,1-2.45,6.22,25.14,25.14,0,0,1-3.84,5.28,24.21,24.21,0,0,1-17.78,7.61H249.21V842h4.93V802h-4.93ZM260.84,802v40h8.07a15.07,15.07,0,0,0,6.75-1.57,17.55,17.55,0,0,0,5.52-4.3,20.6,20.6,0,0,0,3.73-6.39,22.55,22.55,0,0,0,1.37-7.91,22,22,0,0,0-1.37-7.8,20.43,20.43,0,0,0-3.73-6.31,17.45,17.45,0,0,0-5.52-4.22,15.18,15.18,0,0,0-6.75-1.54Z"/><path class="cls-2" d="M300.74,796.08h16.55V802h-4.93v40h4.93v5.88H300.74V842h4.92V802h-4.92Z"/><path class="cls-2" d="M359.13,796.08H376V802h-4.42v45.92h-8.75l-24.1-43V842H344v5.88H327.2V842H332V802h-4.93v-6H341l23.66,42.57.28-1.65V802h-5.82Z"/><path class="cls-2" d="M422.59,848.11V837.72a17.64,17.64,0,0,1-3.25,4.7,18.19,18.19,0,0,1-4.34,3.3,20.61,20.61,0,0,1-5.11,1.95,23.8,23.8,0,0,1-5.52.65,25.31,25.31,0,0,1-9.34-1.69,21.43,21.43,0,0,1-7.74-5.39,25.11,25.11,0,0,1-5.3-8.75,30.84,30.84,0,0,1-1.83-10.57A29.81,29.81,0,0,1,382,811.46a26.42,26.42,0,0,1,5.13-8.58,23.66,23.66,0,0,1,17.76-7.83,23.06,23.06,0,0,1,8.46,1.4,23.48,23.48,0,0,1,6.05,3.41,26.77,26.77,0,0,1,4,3.81h3.32v6.08h-7.35a17.12,17.12,0,0,0-6.07-6.15,16.92,16.92,0,0,0-15.68-.51A17.45,17.45,0,0,0,392,807.6a21.12,21.12,0,0,0-3.64,6.53,23.2,23.2,0,0,0-1.3,7.79,24.41,24.41,0,0,0,1.43,8.45,18.9,18.9,0,0,0,3.66,6.32,18,18,0,0,0,5.49,4,16.31,16.31,0,0,0,7.23,1.59,17.29,17.29,0,0,0,10.77-3.19q4.2-3.21,5.88-10H407v-5.88H429v24.85Z"/><path class="cls-2" d="M491.86,796.08h16.82V802h-4.92V842h4.92v5.88H491.86V842h5.19V823.39h-30V842h5.2v5.88H455.45V842h4.92V802h-4.92v-5.88h16.82V802h-5.2v15.69h30V802h-5.19Z"/><path class="cls-2" d="M518.46,796.08h37.13v14.66h-7V802h-18.5v16.58h15.56v5.89H530.08V842h18.5v-8.75h7v14.63H518.46V842h4.92V802h-4.92Z"/><path class="cls-2" d="M562.43,796.08H584a21.62,21.62,0,0,1,6.38.9,15,15,0,0,1,5.06,2.67,12.14,12.14,0,0,1,3.33,4.39A14.5,14.5,0,0,1,600,810.1a10.94,10.94,0,0,1-.7,3.84,13,13,0,0,1-1.94,3.52,14.76,14.76,0,0,1-3,2.89,13.16,13.16,0,0,1-3.73,1.95,7.66,7.66,0,0,1,1.73,1.08,9.93,9.93,0,0,1,1.64,1.71,13.67,13.67,0,0,1,1.4,2.29,14,14,0,0,1,1,2.75l2.87,11.28h4.48l.07,6.5H593.74l-3.86-15.76a12.34,12.34,0,0,0-3.23-6.24,8.4,8.4,0,0,0-5.93-2h-6.67V842h5.2v5.88H562.43V842h4.92V802h-4.92ZM574.05,802V818.3h10a11.84,11.84,0,0,0,3.57-.51,7.9,7.9,0,0,0,2.81-1.54,7,7,0,0,0,1.84-2.55,8.63,8.63,0,0,0,.67-3.54,7.78,7.78,0,0,0-2.33-6q-2.32-2.16-7.38-2.16Z"/><path class="cls-2" d="M612.27,796.08H649.4v14.66h-7V802H623.9v16.58h15.55v5.89H623.9V842h18.49v-8.75h7v14.63H612.27V842h4.93V802h-4.93Z"/><path class="cls-3" d="M1336.8,0h0a496.8,496.8,0,0,1,496.8,496.8V993.6a0,0,0,0,1,0,0H840a0,0,0,0,1,0,0V496.8A496.8,496.8,0,0,1,1336.8,0Z" transform="translate(2673.6 993.6) rotate(180)"/><line class="cls-4" x1="86.4" y1="899.75" x2="138.24" y2="899.75"/><text class="cls-5" transform="translate(248.53 398.9)">A<tspan class="cls-6" x="13.82" y="0">r</tspan><tspan x="22.32" y="0">ti</tspan><tspan class="cls-7" x="33.85" y="0">s</tspan><tspan x="43.6" y="0">ti</tspan><tspan class="cls-8" x="55.14" y="0">c</tspan><tspan class="cls-9" x="66.23" y="0">all</tspan><tspan class="cls-10" x="86.1" y="0">y</tspan><tspan x="96.24" y="0"> </tspan><tspan class="cls-11" x="100.6" y="0">F</tspan><tspan class="cls-12" x="112.71" y="0">r</tspan><tspan x="119.66" y="0">om </tspan><tspan class="cls-13" x="153.97" y="0">I</tspan><tspan class="cls-14" x="159.2" y="0">r</tspan><tspan class="cls-9" x="166.23" y="0">an</tspan><tspan class="cls-15"><tspan x="-1.13" y="20">E</tspan><tspan class="cls-16" x="9.28" y="20">S</tspan><tspan class="cls-17" x="19.34" y="20">T</tspan><tspan x="28.33" y="20" xml:space="preserve"> 2013</tspan></tspan></text><rect class="cls-2" x="86.4" y="88.9" width="5" height="60"/><rect class="cls-2" x="88.9" y="111.4" width="17.5" height="5"/><rect class="cls-2" x="86.12" y="104.69" width="18.99" height="5" transform="translate(-47.79 99) rotate(-45)"/><rect class="cls-2" x="78.9" y="128.9" width="8.59" height="5"/><path class="cls-2" d="M91.4,141.4v-5a5,5,0,0,0,0-10v-5a10,10,0,0,1,0,20Z"/><path class="cls-2" d="M98.9,96.4h-5a5,5,0,0,0-10,0h-5a10,10,0,0,1,20,0Z"/><path class="cls-2" d="M211.24,316.4h-5a29.92,29.92,0,0,0-59.84,0h-5a34.92,34.92,0,0,1,69.84,0Z"/><rect class="cls-2" x="107.51" y="193.9" width="77.78" height="5" transform="translate(-96 161.04) rotate(-45)"/><path class="cls-2" d="M316.4,321.4h-200v-129l-10,10v14h-20v-70h50a47.56,47.56,0,0,1,47.5,47.5v12.5h85a47.56,47.56,0,0,1,47.5,47.5Zm-195-5h190V253.9a42.55,42.55,0,0,0-42.5-42.5h-90V193.9a42.55,42.55,0,0,0-42.5-42.5h-45v60h10v-11l28.23-28.23,3.54,3.54L121.4,187.44Z"/><polygon class="cls-2" points="313.9 306.4 263.9 306.4 263.9 208.9 268.9 208.9 268.9 301.4 313.9 301.4 313.9 306.4"/><path class="cls-2" d="M213.9,276.4a35,35,0,0,1-35-35v-35h70v35A35,35,0,0,1,213.9,276.4Zm-30-65v30a30,30,0,0,0,60,0v-30Z"/><path class="cls-2" d="M108.9,168.9H86.4V146.4h22.5Zm-17.5-5h12.5V151.4H91.4Z"/><polygon class="cls-2" points="260.15 366.4 248.87 366.4 256.85 353.9 250.15 353.9 250.15 351.4 261.4 351.4 253.43 363.9 260.15 363.9 260.15 366.4"/><polygon class="cls-2" points="273.9 366.4 263.94 366.4 263.9 351.4 273.9 351.4 273.9 353.9 266.41 353.9 266.43 363.9 273.9 363.9 273.9 366.4"/><rect class="cls-2" x="265.15" y="357.65" width="8.75" height="2.5"/><polygon class="cls-2" points="287.65 366.4 277.65 366.4 277.65 351.4 287.65 351.4 287.65 353.9 280.15 353.9 280.15 363.9 287.65 363.9 287.65 366.4"/><rect class="cls-2" x="278.9" y="357.65" width="8.75" height="2.5"/><polygon class="cls-2" points="301.4 366.4 291.4 366.4 291.4 351.4 301.4 351.4 301.4 353.9 293.9 353.9 293.9 363.9 301.4 363.9 301.4 366.4"/><rect class="cls-2" x="292.65" y="357.65" width="8.75" height="2.5"/><polygon class="cls-2" points="316.4 366.4 314.01 366.4 307.65 356.27 307.65 366.4 305.15 366.4 305.15 351.4 307.55 351.4 313.9 361.53 313.9 351.4 316.4 351.4 316.4 366.4"/><path class="cls-2" d="M143.9,403.9a27.54,27.54,0,0,1-27.5-27.5v-25h5v25a22.5,22.5,0,0,0,45,0v-25h5v25A27.54,27.54,0,0,1,143.9,403.9Z"/><polygon class="cls-2" points="200.45 403.17 196.92 399.63 216.4 380.15 216.4 366.4 221.4 366.4 221.4 382.22 200.45 403.17"/><rect class="cls-2" x="141.4" y="351.4" width="5" height="10"/><rect class="cls-2" x="216.4" y="351.4" width="5" height="10"/><rect class="cls-2" x="166.4" y="408.9" width="5" height="10"/><rect class="cls-2" x="176.4" y="408.9" width="5" height="10"/><polygon class="cls-2" points="170.67 376.7 167.13 373.17 178.9 361.4 178.9 351.4 183.9 351.4 183.9 363.47 170.67 376.7"/><polygon class="cls-2" points="170.67 391.7 167.13 388.17 188.9 366.4 188.9 351.4 193.9 351.4 193.9 368.47 170.67 391.7"/><polygon class="cls-2" points="173.47 403.9 166.4 403.9 166.4 351.4 171.4 351.4 171.4 398.9 198.9 371.4 198.9 351.4 203.9 351.4 203.9 373.47 173.47 403.9"/></g></svg>