<svg xmlns="http://www.w3.org/2000/svg" viewBox="0 0 1080 1080"><defs><style>.cls-1{fill:#061f6b;}.cls-2{fill:#4672df;}</style></defs><g id="Background"><rect class="cls-1" width="1080" height="1080"/></g><g id="Graphic"><rect class="cls-2" x="86.4" y="86.4" width="907.19" height="907.2"/><rect class="cls-2" width="86.4" height="21.6"/><rect class="cls-2" y="64.8" width="86.4" height="21.6"/><rect class="cls-2" x="-3.87" y="32.42" width="94.16" height="21.6" transform="translate(-17.62 37.31) rotate(-39.46)"/><rect class="cls-2" x="993.59" width="86.4" height="21.6"/><rect class="cls-2" x="993.59" y="64.8" width="86.4" height="21.6"/><rect class="cls-2" x="989.73" y="32.42" width="94.16" height="21.6" transform="translate(208.82 668.74) rotate(-39.46)"/><rect class="cls-2" x="993.59" y="993.6" width="86.4" height="21.6"/><rect class="cls-2" x="993.59" y="1058.4" width="86.4" height="21.6"/><rect class="cls-2" x="989.73" y="1026.02" width="94.16" height="21.6" transform="translate(-422.61 895.17) rotate(-39.46)"/><rect class="cls-2" y="993.6" width="86.4" height="21.6"/><rect class="cls-2" y="1058.4" width="86.4" height="21.6"/><rect class="cls-2" x="-3.87" y="1026.02" width="94.16" height="21.6" transform="translate(-649.04 263.75) rotate(-39.46)"/></g></svg>