<svg xmlns="http://www.w3.org/2000/svg" viewBox="0 0 1080 1080"><defs><style>.cls-1{fill:#a9afb0;}.cls-2{fill:#fff;}</style></defs><g id="Background"><rect width="1080" height="1080"/></g><g id="Graphic"><path class="cls-1" d="M88.69,1080h904.9V679.76c-110.67-125-272.35-203.83-452.45-203.83S199.36,554.74,88.69,679.76Z"/><path class="cls-2" d="M990.81,321.53h-12v-1h12Zm-24,0h-12v-1h12Zm-24,0h-12v-1h12Zm-24,0h-12v-1h12Zm-24,0h-12v-1h12Zm-24,0h-12v-1h12Zm-24,0h-12v-1h12Zm-24,0h-12v-1h12Zm-24,0h-12v-1h12Zm-24,0h-12v-1h12Zm-24,0h-12v-1h12Zm-24,0h-12v-1h12Zm-24,0h-12v-1h12Zm-24,0h-12v-1h12Zm-24,0h-12v-1h12Zm-24,0h-12v-1h12Zm-24,0h-12v-1h12Zm-24,0h-12v-1h12Zm-24,0h-12v-1h12Zm-24,0h-12v-1h12Zm-24,0h-12v-1h12Zm-24,0h-12v-1h12Zm-24,0h-12v-1h12Zm-24,0h-12v-1h12Zm-24,0h-12v-1h12Zm-24,0h-12v-1h12Zm-24,0h-12v-1h12Zm-24,0h-12v-1h12Zm-24,0h-12v-1h12Zm-24,0h-12v-1h12Zm-24,0h-12v-1h12Zm-24,0h-12v-1h12Zm-24,0h-12v-1h12Zm-24,0h-12v-1h12Zm-24,0h-12v-1h12Zm-24,0h-12v-1h12Zm-24,0h-12v-1h12Zm-24,0h-12v-1h12Z"/><path class="cls-2" d="M990.81,475.59h-12v-1h12Zm-24,0h-12v-1h12Zm-24,0h-12v-1h12Zm-24,0h-12v-1h12Zm-24,0h-12v-1h12Zm-24,0h-12v-1h12Zm-24,0h-12v-1h12Zm-24,0h-12v-1h12Zm-24,0h-12v-1h12Zm-24,0h-12v-1h12Zm-24,0h-12v-1h12Zm-24,0h-12v-1h12Zm-24,0h-12v-1h12Zm-24,0h-12v-1h12Zm-24,0h-12v-1h12Zm-24,0h-12v-1h12Zm-24,0h-12v-1h12Zm-24,0h-12v-1h12Zm-24,0h-12v-1h12Zm-24,0h-12v-1h12Zm-24,0h-12v-1h12Zm-24,0h-12v-1h12Zm-24,0h-12v-1h12Zm-24,0h-12v-1h12Zm-24,0h-12v-1h12Zm-24,0h-12v-1h12Zm-24,0h-12v-1h12Zm-24,0h-12v-1h12Zm-24,0h-12v-1h12Zm-24,0h-12v-1h12Zm-24,0h-12v-1h12Zm-24,0h-12v-1h12Zm-24,0h-12v-1h12Zm-24,0h-12v-1h12Zm-24,0h-12v-1h12Zm-24,0h-12v-1h12Zm-24,0h-12v-1h12Zm-24,0h-12v-1h12Z"/><path class="cls-2" d="M994.09,994.1h-12.5v-1h11.5v-4.29h1Zm-24.5,0h-12v-1h12Zm-24,0h-12v-1h12Zm-24,0h-12v-1h12Zm-24,0h-12v-1h12Zm-24,0h-12v-1h12Zm-24,0h-12v-1h12Zm-24,0h-12v-1h12Zm-24,0h-12v-1h12Zm-24,0h-12v-1h12Zm-24,0h-12v-1h12Zm-24,0h-12v-1h12Zm-24,0h-12v-1h12Zm-24,0h-12v-1h12Zm-24,0h-12v-1h12Zm-24,0h-12v-1h12Zm-24,0h-12v-1h12Zm-24,0h-12v-1h12Zm-24,0h-12v-1h12Zm-24,0h-12v-1h12Zm-24,0h-12v-1h12Zm-24,0h-12v-1h12Zm-24,0h-12v-1h12Zm-24,0h-12v-1h12Zm-24,0h-12v-1h12Zm-24,0h-12v-1h12Zm-24,0h-12v-1h12Zm-24,0h-12v-1h12Zm-24,0h-12v-1h12Zm-24,0h-12v-1h12Zm-24,0h-12v-1h12Zm-24,0h-12v-1h12Zm-24,0h-12v-1h12Zm-24,0h-12v-1h12Zm-24,0h-12v-1h12Zm-24,0h-12v-1h12Zm-24,0h-12v-1h12Zm-24,0h-12v-1h12Zm-18.7-5.31h-1v-12h1Zm907.19-12h-1v-12h1Zm-907.19-12h-1v-12h1Zm907.19-12h-1v-12h1Zm-907.19-12h-1v-12h1Zm907.19-12h-1v-12h1Zm-907.19-12h-1v-12h1Zm907.19-12h-1v-12h1Zm-907.19-12h-1v-12h1Zm907.19-12h-1v-12h1Zm-907.19-12h-1v-12h1Zm907.19-12h-1v-12h1Zm-907.19-12h-1v-12h1Zm907.19-12h-1v-12h1Zm-907.19-12h-1v-12h1Zm907.19-12h-1v-12h1Zm-907.19-12h-1v-12h1Zm907.19-12h-1v-12h1Zm-907.19-12h-1v-12h1Zm907.19-12h-1v-12h1Zm-907.19-12h-1v-12h1Zm907.19-12h-1v-12h1Zm-907.19-12h-1v-12h1Zm907.19-12h-1v-12h1Zm-907.19-12h-1v-12h1Zm907.19-12h-1v-12h1Zm-907.19-12h-1v-12h1Zm907.19-12h-1v-12h1Zm-907.19-12h-1v-12h1Zm907.19-12h-1v-12h1Zm-907.19-12h-1v-12h1Zm907.19-12h-1v-12h1Zm-907.19-12h-1v-12h1Zm907.19-12h-1v-12h1Zm-907.19-12h-1v-12h1Zm907.19-12h-1v-12h1Zm-907.19-12h-1v-12h1Zm907.19-12h-1v-12h1Zm-907.19-12h-1v-12h1Zm907.19-12h-1v-12h1Zm-907.19-12h-1v-12h1Zm907.19-12h-1v-12h1Zm-907.19-12h-1v-12h1Zm907.19-12h-1v-12h1Zm-907.19-12h-1v-12h1Zm907.19-12h-1v-12h1Zm-907.19-12h-1v-12h1Zm907.19-12h-1v-12h1Zm-907.19-12h-1v-12h1Zm907.19-12h-1v-12h1Zm-907.19-12h-1v-12h1Zm907.19-12h-1v-12h1Zm-907.19-12h-1v-12h1Zm907.19-12h-1v-12h1Zm-907.19-12h-1v-12h1Zm907.19-12h-1v-12h1Zm-907.19-12h-1v-12h1Zm907.19-12h-1v-12h1Zm-907.19-12h-1v-12h1Zm907.19-12h-1v-12h1Zm-907.19-12h-1v-12h1Zm907.19-12h-1v-12h1Zm-907.19-12h-1v-12h1Zm907.19-12h-1v-12h1Zm-907.19-12h-1v-12h1Zm907.19-12h-1v-12h1Zm-907.19-12h-1v-12h1Zm907.19-12h-1v-12h1Zm-907.19-12h-1v-12h1Zm907.19-12h-1v-12h1Zm-907.19-12h-1v-12h1Zm907.19-12h-1v-12h1Zm-907.19-12h-1v-12h1Zm907.19-12h-1v-12h1Zm-907.19-12h-1v-12h1Zm907.19-12h-1V86.9H984v-1h10.08ZM972,86.9H960v-1h12Zm-24,0H936v-1h12Zm-24,0H912v-1h12Zm-24,0H888v-1h12Zm-24,0H864v-1h12Zm-24,0H840v-1h12Zm-24,0H816v-1h12Zm-24,0H792v-1h12Zm-24,0H768v-1h12Zm-24,0H744v-1h12Zm-24,0H720v-1h12Zm-24,0H696v-1h12Zm-24,0H672v-1h12Zm-24,0H648v-1h12Zm-24,0H624v-1h12Zm-24,0H600v-1h12Zm-24,0H576v-1h12Zm-24,0H552v-1h12Zm-24,0H528v-1h12Zm-24,0H504v-1h12Zm-24,0H480v-1h12Zm-24,0H456v-1h12Zm-24,0H432v-1h12Zm-24,0H408v-1h12Zm-24,0H384v-1h12Zm-24,0H360v-1h12Zm-24,0H336v-1h12Zm-24,0H312v-1h12Zm-24,0H288v-1h12Zm-24,0H264v-1h12Zm-24,0H240v-1h12Zm-24,0H216v-1h12Zm-24,0H192v-1h12Zm-24,0H168v-1h12Zm-24,0H144v-1h12Zm-24,0H120v-1h12Zm-24,0H96v-1h12Z"/><path class="cls-2" d="M905.63,461.92l-9.07,11.14h9.32v1.67H894.27v-1.58l9.16-11.25h-8.68v-1.67h10.88Z"/><path class="cls-2" d="M914.92,473.45a3.71,3.71,0,0,0,4-3.33l1.89.29a4.94,4.94,0,0,1-1.91,3.42,6.31,6.31,0,0,1-4,1.26,6.55,6.55,0,0,1-5.11-2,8.21,8.21,0,0,1-1.75-5.66,8,8,0,0,1,1.83-5.52,6.36,6.36,0,0,1,5-2.06,5.85,5.85,0,0,1,4.57,1.78,7.18,7.18,0,0,1,1.63,5v1.23H910.11C910.22,471.6,911.83,473.45,914.92,473.45Zm-.1-11.94a4.32,4.32,0,0,0-3.22,1.21,5.77,5.77,0,0,0-1.44,3.55h8.78C918.8,463.1,917.42,461.51,914.82,461.51Z"/><path class="cls-2" d="M930.66,473.45a3.71,3.71,0,0,0,4-3.33l1.9.29a5,5,0,0,1-1.91,3.42,6.36,6.36,0,0,1-4,1.26,6.51,6.51,0,0,1-5.1-2,8.17,8.17,0,0,1-1.76-5.66,8,8,0,0,1,1.83-5.52,6.36,6.36,0,0,1,5-2.06,5.85,5.85,0,0,1,4.57,1.78,7.18,7.18,0,0,1,1.63,5v1.23H925.85C926,471.6,927.57,473.45,930.66,473.45Zm-.1-11.94a4.34,4.34,0,0,0-3.22,1.21,5.71,5.71,0,0,0-1.43,3.55h8.77Q934.47,461.52,930.56,461.51Z"/><path class="cls-2" d="M946.4,473.45a3.7,3.7,0,0,0,4-3.33l1.9.29a5,5,0,0,1-1.91,3.42,6.34,6.34,0,0,1-4,1.26,6.51,6.51,0,0,1-5.1-2,8.17,8.17,0,0,1-1.76-5.66,8,8,0,0,1,1.84-5.52,6.33,6.33,0,0,1,5-2.06,5.89,5.89,0,0,1,4.58,1.78,7.22,7.22,0,0,1,1.62,5v1.23H941.59C941.7,471.6,943.31,473.45,946.4,473.45Zm-.09-11.94a4.34,4.34,0,0,0-3.23,1.21,5.77,5.77,0,0,0-1.43,3.55h8.77Q950.21,461.52,946.31,461.51Z"/><path class="cls-2" d="M968.33,465.34v9.39h-2v-9a4.29,4.29,0,0,0-1-3,3.63,3.63,0,0,0-2.81-1.07,3.94,3.94,0,0,0-3.21,1.33,5.88,5.88,0,0,0-1.1,3.87v7.91h-2v-14.5h2v1.92a5.14,5.14,0,0,1,4.64-2.26,5,5,0,0,1,5.46,5.45Z"/><path class="cls-2" d="M972.52,471.9h2.69v2.83h-2.69Z"/><path class="cls-2" d="M981.56,457.64h-2V454.3h2Zm0,17.09h-2v-14.5h2Z"/><path class="cls-2" d="M988.2,474.73h-2v-14.5h2v2.83a4.59,4.59,0,0,1,4.32-2.83h1.08v1.92h-1.08a3.62,3.62,0,0,0-3.12,1.78,8.14,8.14,0,0,0-1.2,4.65Z"/><path class="cls-2" d="M778.55,283.63a6,6,0,0,1-.65,2.76,11,11,0,0,1-1.72,2.45,19.56,19.56,0,0,1-2.45,2.2q-1.4,1.05-2.82,2L769,291.24c.89-.58,1.78-1.18,2.65-1.81a29,29,0,0,0,2.36-1.85,10.82,10.82,0,0,0,1.7-1.81,2.92,2.92,0,0,0,.64-1.65,3.75,3.75,0,0,0-.13-.84,8.72,8.72,0,0,0-.38-1.07c-.17-.38-.36-.77-.57-1.16a11.37,11.37,0,0,0-.7-1.13l2-1.92a11.31,11.31,0,0,1,.88,1.46A13.78,13.78,0,0,1,778,281a12.5,12.5,0,0,1,.41,1.43A5.81,5.81,0,0,1,778.55,283.63Z"/><path class="cls-2" d="M791.92,281.62a4.91,4.91,0,0,1-.51,2.4,3.65,3.65,0,0,1-1.39,1.42,5.91,5.91,0,0,1-2,.67,18,18,0,0,1-2.51.17,7.47,7.47,0,0,1-2.34-.33,4.44,4.44,0,0,1-1.78-1.18l1.17-2.19a5,5,0,0,0,3,.81,11,11,0,0,0,3.19-.36c.75-.24,1.12-.63,1.12-1.15,0-1.44-1.52-3.15-4.58-5.14l1.14-2.74a16.48,16.48,0,0,1,1.94,1.4,12.69,12.69,0,0,1,1.77,1.82,10.66,10.66,0,0,1,1.28,2.13A5.61,5.61,0,0,1,791.92,281.62Z"/><path class="cls-2" d="M807.7,294.57a8.43,8.43,0,0,1-2.87-.47,6.08,6.08,0,0,1-2.22-1.35,6.32,6.32,0,0,1-1.43-2.16,7.79,7.79,0,0,1-.51-2.91,8,8,0,0,1,.41-2.58,13.59,13.59,0,0,1,1.16-2.55l1.84.73a5,5,0,0,0-.46.93c-.14.35-.26.71-.37,1.07a9,9,0,0,0-.25,1,4.71,4.71,0,0,0-.08.85q0,4.6,5.16,4.61a11.59,11.59,0,0,0,2.41-.24,13.61,13.61,0,0,0,2-.55,8.42,8.42,0,0,0,1.39-.64,2.22,2.22,0,0,0,.61-.47.23.23,0,0,0-.16-.19l-.31-.1-2.54-.61a4.79,4.79,0,0,1-.81-.24,2.66,2.66,0,0,1-.69-.36,1.66,1.66,0,0,1-.48-.57,1.91,1.91,0,0,1-.18-.88c0-2.48,1.87-3.73,5.61-3.73h2.33V286H815.9l-1.36,0h-1.21q-.55,0-.93,0c-.66.06-1,.2-1,.44a.29.29,0,0,0,.11.19,1.07,1.07,0,0,0,.48.19l2.65.61a3.65,3.65,0,0,1,1.4.66,1.67,1.67,0,0,1,.53,1.38,3,3,0,0,1-.89,2.12,7.68,7.68,0,0,1-2.23,1.6,13,13,0,0,1-2.89,1A13.26,13.26,0,0,1,807.7,294.57Z"/><path class="cls-2" d="M829.06,284.15a3.53,3.53,0,0,1-1.42,1.37,3.81,3.81,0,0,1-1.88.5,3.69,3.69,0,0,1-3.59-1.87,3.18,3.18,0,0,1-1.41,1.4,4,4,0,0,1-1.86.47h-1.66a.61.61,0,0,1-.5-.35,2.19,2.19,0,0,1-.2-1.05,2.3,2.3,0,0,1,.2-1.05c.14-.25.31-.38.5-.38h1.52a4,4,0,0,0,1-.12,2.55,2.55,0,0,0,.86-.35,1.81,1.81,0,0,0,.62-.61,1.72,1.72,0,0,0,.23-.9v-1.37l1.93-.5a14.84,14.84,0,0,0,.07,1.55,3.83,3.83,0,0,0,.31,1.21,1.77,1.77,0,0,0,.71.8,2.53,2.53,0,0,0,1.3.29,2.86,2.86,0,0,0,1.82-.55,2,2,0,0,0,.72-1.67v-1.13l1.92-.5q0,.84.06,1.56a3.36,3.36,0,0,0,.31,1.23,1.72,1.72,0,0,0,.73.78,2.66,2.66,0,0,0,1.35.28,2,2,0,0,0,1.3-.34,1,1,0,0,0,.42-.83,2.12,2.12,0,0,0-.16-.77,6,6,0,0,0-.4-.86c-.17-.29-.34-.57-.53-.85s-.36-.51-.54-.73l2-2.1a7.87,7.87,0,0,1,1.43,2.61,8.22,8.22,0,0,1,.41,2.47,4.4,4.4,0,0,1-1,2.95,3.65,3.65,0,0,1-2.74,1.25,3.58,3.58,0,0,1-.56,0l-.49-.05a3.88,3.88,0,0,1-1.65-.61A3.4,3.4,0,0,1,829.06,284.15Z"/><path class="cls-2" d="M845.36,283.63a6,6,0,0,1-.65,2.76,11,11,0,0,1-1.72,2.45,19.56,19.56,0,0,1-2.45,2.2q-1.39,1.05-2.82,2l-2-1.81c.89-.58,1.78-1.18,2.65-1.81a29,29,0,0,0,2.36-1.85,10.82,10.82,0,0,0,1.7-1.81,2.92,2.92,0,0,0,.64-1.65,3.75,3.75,0,0,0-.13-.84,8.72,8.72,0,0,0-.38-1.07c-.17-.38-.36-.77-.57-1.16a11.37,11.37,0,0,0-.7-1.13l1.95-1.92a10.29,10.29,0,0,1,.88,1.46,13.78,13.78,0,0,1,.64,1.5,12.5,12.5,0,0,1,.41,1.43A5.81,5.81,0,0,1,845.36,283.63Z"/><path class="cls-2" d="M855.2,286H854a3.66,3.66,0,0,1-3.53-2,6.5,6.5,0,0,1-.64-2,17.44,17.44,0,0,1-.21-2.25q-.06-3.09-.13-6.38c0-2.18-.16-4.33-.33-6.43l2.42-1.14q0,2.65.1,6.09t.16,7.1c0,.47,0,.95.07,1.46a5.1,5.1,0,0,0,.32,1.37,2.56,2.56,0,0,0,.75,1,2.11,2.11,0,0,0,1.37.41h.82Z"/><path class="cls-2" d="M855.2,286a.59.59,0,0,1-.5-.35,2.08,2.08,0,0,1-.2-1.05,2.18,2.18,0,0,1,.2-1.05c.14-.25.3-.38.5-.38h2.86a13.05,13.05,0,0,0,1.41-.07,6.88,6.88,0,0,0,1.23-.24,2.71,2.71,0,0,0,.87-.4.91.91,0,0,0,.39-.57,2.62,2.62,0,0,0,0-.94,4.55,4.55,0,0,1-1.15.41,5.54,5.54,0,0,1-1.15.12,2.89,2.89,0,0,1-2.12-.8,2.93,2.93,0,0,1-.8-2.15,6,6,0,0,1,.26-1.73,5.14,5.14,0,0,1,.75-1.52,4.14,4.14,0,0,1,1.14-1.07,2.7,2.7,0,0,1,1.47-.4,2.37,2.37,0,0,1,1.81.75,5.83,5.83,0,0,1,1.11,1.87,10.47,10.47,0,0,1,.55,2.35A18.6,18.6,0,0,1,864,281a4.58,4.58,0,0,1-1.51,3.84,6.74,6.74,0,0,1-4.27,1.18Zm4.87-14.27L858,270l1.6-1.89,2,1.69Zm-.09,7.36a2.84,2.84,0,0,0,1.75-.53,5.5,5.5,0,0,0-.63-1.59,1.16,1.16,0,0,0-1-.66,1.25,1.25,0,0,0-1,.51,1.68,1.68,0,0,0-.41,1.07,1.12,1.12,0,0,0,.36.86A1.42,1.42,0,0,0,860,279.11Z"/><path class="cls-2" d="M883.17,281.73a3.08,3.08,0,0,1-.19,1,3.34,3.34,0,0,1-.54,1,3.11,3.11,0,0,1-.83.79,1.86,1.86,0,0,1-1.09.32h-3.68a1.87,1.87,0,0,0-1,.24,1.45,1.45,0,0,0-.57.65,2.73,2.73,0,0,0-.25,1c0,.4,0,.84,0,1.33V298h-2c0-2.27-.07-4.07-.08-5.38s0-2.32-.05-3,0-1.14,0-1.35v-.44a9.44,9.44,0,0,1,.61-3.77,3.05,3.05,0,0,1,2-1.77,10.29,10.29,0,0,1,.15-1.65,7.13,7.13,0,0,1,.5-1.74,3.91,3.91,0,0,1,.93-1.36,2.08,2.08,0,0,1,1.46-.54,3.91,3.91,0,0,1,1.73.43,5.59,5.59,0,0,1,1.54,1.09,6.12,6.12,0,0,1,1.09,1.5A3.73,3.73,0,0,1,883.17,281.73Zm-2.21.15a1.57,1.57,0,0,0-.27-.67,3.53,3.53,0,0,0-.58-.72,3.94,3.94,0,0,0-.77-.57,1.77,1.77,0,0,0-.83-.23.74.74,0,0,0-.57.22,1.35,1.35,0,0,0-.35.57,3.39,3.39,0,0,0-.19.79,6.36,6.36,0,0,0-.06.87l.76,0,.8,0h1.3C880.68,282.2,880.94,282.09,881,281.88Z"/><path class="cls-2" d="M894.76,282.46a8.45,8.45,0,0,1-.69,3.46,10.75,10.75,0,0,1-1.82,2.84,15.38,15.38,0,0,1-2.64,2.35,29.78,29.78,0,0,1-3.14,1.94l-1.9-1.78c.65-.37,1.39-.81,2.22-1.33a24.72,24.72,0,0,0,2.44-1.69,16.1,16.1,0,0,0,2.08-1.91,4.4,4.4,0,0,0,1.14-2,2.52,2.52,0,0,1-.71.29,4.87,4.87,0,0,1-1.33.15,3.69,3.69,0,0,1-2.29-.7,2.59,2.59,0,0,1-.92-2.19,6.6,6.6,0,0,1,.25-1.75,6.15,6.15,0,0,1,.73-1.72,4.54,4.54,0,0,1,1.15-1.3,2.44,2.44,0,0,1,1.52-.51,2.79,2.79,0,0,1,1.73.55,4.49,4.49,0,0,1,1.23,1.4,6.72,6.72,0,0,1,.71,1.88A9,9,0,0,1,894.76,282.46Zm-2.34-.73a3.6,3.6,0,0,0-.58-1.68,1.45,1.45,0,0,0-1.23-.65,1.22,1.22,0,0,0-1,.57,1.9,1.9,0,0,0-.41,1.09c0,.74.52,1.11,1.55,1.11a3.92,3.92,0,0,0,.89-.1A2.3,2.3,0,0,0,892.42,281.73Z"/><path class="cls-2" d="M908.15,281.62a4.91,4.91,0,0,1-.51,2.4,3.65,3.65,0,0,1-1.39,1.42,5.91,5.91,0,0,1-2,.67,18,18,0,0,1-2.51.17,7.36,7.36,0,0,1-2.33-.33,4.31,4.31,0,0,1-1.78-1.18l1.16-2.19a5,5,0,0,0,3,.81A11,11,0,0,0,905,283c.75-.24,1.12-.63,1.12-1.15,0-1.44-1.52-3.15-4.58-5.14l1.14-2.74a16.48,16.48,0,0,1,1.94,1.4,12.69,12.69,0,0,1,1.77,1.82,10.66,10.66,0,0,1,1.28,2.13A5.61,5.61,0,0,1,908.15,281.62Z"/><path class="cls-2" d="M930,275.87c.08-1.58.29-2.48.64-2.72q2.31-1.57,5.17-3.15t6.5-3.21l-.35,2.95q-3.06,1.29-5.38,2.52c-1.55.83-2.9,1.62-4.07,2.38A38.74,38.74,0,0,1,936,278c1.13,1.2,2.32,2.42,3.59,3.64a5.62,5.62,0,0,0,1.59,1.2,3.57,3.57,0,0,0,1.53.35h1.37V286h-1.25a6.47,6.47,0,0,1-1.8-.22,4.69,4.69,0,0,1-1.53-.77,10.52,10.52,0,0,1-1.62-1.52c-.57-.64-1.26-1.45-2.06-2.42a3.9,3.9,0,0,1-.11,1,3.77,3.77,0,0,1-.47,1.52,3.9,3.9,0,0,1-1,1.12,5.8,5.8,0,0,1-1.4.8,9,9,0,0,1-1.69.5q-1.38.29-2.85.45a26.28,26.28,0,0,1-2.93.16c-1,0-2.06,0-3.08-.13a9.68,9.68,0,0,1-2.74-.61,4.61,4.61,0,0,1-2-1.43,4.15,4.15,0,0,1-.74-2.61,5.7,5.7,0,0,1,.29-1.68,6,6,0,0,1,.85-1.68l1.75.64a5,5,0,0,0-.64,1.93,2.17,2.17,0,0,0,.29,1.28,2,2,0,0,0,1,.84,5.72,5.72,0,0,0,1.56.43,15.33,15.33,0,0,0,1.89.16l2,0a20.28,20.28,0,0,0,5.9-.7c1.51-.46,2.34-1.09,2.5-1.86a3.21,3.21,0,0,0-.41-1.27,7.58,7.58,0,0,0-.92-1.29,15.42,15.42,0,0,0-1.34-1.35Zm9.19-9.54c-1.28.62-2.66,1.34-4.11,2.16s-3,1.72-4.55,2.71l.23-1.66q2.53-1.67,4.65-2.88c1.41-.8,2.74-1.52,4-2.14Z"/><path class="cls-2" d="M944.12,286a.59.59,0,0,1-.5-.35,2.19,2.19,0,0,1-.2-1.05,2.3,2.3,0,0,1,.2-1.05c.14-.25.3-.38.5-.38h1.22a3.89,3.89,0,0,0,2-.47,1.74,1.74,0,0,0,.8-1.66v-1.22l2-.5a15.86,15.86,0,0,0,.07,1.62,3.19,3.19,0,0,0,.35,1.21,1.89,1.89,0,0,0,.82.76,3.49,3.49,0,0,0,1.47.26H954V286h-1.49c-1.77,0-3-.6-3.59-1.81a3.28,3.28,0,0,1-1.44,1.34,4.36,4.36,0,0,1-2,.47Zm5-9.42-2-1.72,1.6-1.9,2,1.69Z"/><path class="cls-2" d="M961.36,281.79q0,4.23-4.84,4.23H954a.61.61,0,0,1-.5-.35,2.19,2.19,0,0,1-.2-1.05,2.26,2.26,0,0,1,.2-1.06.59.59,0,0,1,.5-.37h2.66c1.69,0,2.53-.39,2.53-1.17a1.8,1.8,0,0,0-.19-.74,6.48,6.48,0,0,0-.45-.86,9.26,9.26,0,0,0-.58-.86l-.59-.75,2-2.1a9.54,9.54,0,0,1,1.52,2.6A7.21,7.21,0,0,1,961.36,281.79Zm-5.48,7.12,2,1.63-1.57,1.87-1.93-1.66Zm3.67,0,1.93,1.63-1.55,1.87L958,290.75Z"/><path class="cls-2" d="M978.58,286h-1.2a4.63,4.63,0,0,1-1.2-.13,2.86,2.86,0,0,1-.9-.42,3.61,3.61,0,0,1-.75-.76,10.4,10.4,0,0,1-.68-1.11,5,5,0,0,1-.93,1.37,4.15,4.15,0,0,1-1.19.82,5.34,5.34,0,0,1-1.48.39,14.85,14.85,0,0,1-1.83.1A8,8,0,0,1,966,286a4.1,4.1,0,0,1-1.74-1l1.25-2.33a3.65,3.65,0,0,0,1.11.52,6.84,6.84,0,0,0,1.37.24h1a5.9,5.9,0,0,0,.86-.06,5.73,5.73,0,0,0,1.69-.31,1.51,1.51,0,0,0,.91-.74,1.72,1.72,0,0,0,.23-.88,2.26,2.26,0,0,0-.1-.57q-.1-.36-.36-1.11c-.18-.49-.43-1.14-.76-1.94l-1.29-3.09,1.78-2,2.77,7.26a9.72,9.72,0,0,0,1.22,2.41,1.85,1.85,0,0,0,1.53.83h1.14Z"/><path class="cls-2" d="M981.81,283.19a2.48,2.48,0,0,1-1.48-2.3,4.27,4.27,0,0,1,.75-2.31,5.53,5.53,0,0,1,2.25-1.9l-.82-.55,1.14-2.48q1.64,1.14,3.09,2.28a20.25,20.25,0,0,1,2.57,2.33,10.88,10.88,0,0,1,1.75,2.47,5.71,5.71,0,0,1,.64,2.64,5.4,5.4,0,0,1-.13,1.18,3.38,3.38,0,0,1-.44,1.09,2.65,2.65,0,0,1-.78.82,2.12,2.12,0,0,1-1.18.32,3.48,3.48,0,0,1-1-.18,11.82,11.82,0,0,1-1.21-.43l-1.21-.54-1-.48a6.19,6.19,0,0,1-1.84.67,11.32,11.32,0,0,1-2.13.2h-2.19a.58.58,0,0,1-.49-.35,2.07,2.07,0,0,1-.21-1.05,2.17,2.17,0,0,1,.21-1.05.58.58,0,0,1,.49-.38Zm3.83-2.8a3,3,0,0,0-.34-1.39,1,1,0,0,0-.92-.62,1.4,1.4,0,0,0-.71.2,3.36,3.36,0,0,0-.68.51,2.81,2.81,0,0,0-.49.67,1.52,1.52,0,0,0-.19.72,1,1,0,0,0,.25.62,3.09,3.09,0,0,0,.58.56,4.13,4.13,0,0,0,.7.41,1.71,1.71,0,0,0,.63.16A.72.72,0,0,0,985,282a1.83,1.83,0,0,0,.38-.48,2.47,2.47,0,0,0,.23-.6A2.51,2.51,0,0,0,985.64,280.39Zm1.69-.35a5.7,5.7,0,0,1-.24,1.81,3.3,3.3,0,0,1-.78,1.28,4.26,4.26,0,0,0,.58.34c.25.12.51.25.77.36a7.32,7.32,0,0,0,.73.29,1.77,1.77,0,0,0,.48.12.55.55,0,0,0,.54-.28,1.11,1.11,0,0,0,.16-.59,2.74,2.74,0,0,0-.7-1.68A12.65,12.65,0,0,0,987.33,280Z"/><path class="cls-2" d="M834.19,316.62a4.93,4.93,0,0,1-.51,2.41,3.58,3.58,0,0,1-1.39,1.42,5.91,5.91,0,0,1-2,.67,17.9,17.9,0,0,1-2.51.17,7.4,7.4,0,0,1-2.33-.33,4.38,4.38,0,0,1-1.78-1.18l1.17-2.19a5,5,0,0,0,3,.81A11,11,0,0,0,831,318c.74-.24,1.12-.63,1.12-1.15q0-2.16-4.58-5.14l1.14-2.74a17.36,17.36,0,0,1,1.94,1.4,12.11,12.11,0,0,1,1.76,1.82,10.21,10.21,0,0,1,1.28,2.13A5.44,5.44,0,0,1,834.19,316.62Z"/><path class="cls-2" d="M842.51,320.36a6.17,6.17,0,0,1-.72,2.65,10.63,10.63,0,0,1-1.72,2.38,19.48,19.48,0,0,1-2.41,2.15c-.89.68-1.81,1.33-2.74,1.95L833,327.68c.89-.58,1.77-1.18,2.65-1.81A29,29,0,0,0,838,324a10.82,10.82,0,0,0,1.7-1.81,2.92,2.92,0,0,0,.64-1.65,3.75,3.75,0,0,0-.13-.84,8.72,8.72,0,0,0-.38-1.07c-.17-.38-.36-.77-.57-1.16a11.37,11.37,0,0,0-.7-1.13l2-1.95c.41.66.77,1.23,1.08,1.7a8.36,8.36,0,0,0,.91,1.19,2.86,2.86,0,0,0,.89.68,2.19,2.19,0,0,0,1,.22h1.08V321h-.93A3,3,0,0,1,842.51,320.36Z"/><path class="cls-2" d="M845.45,321a.58.58,0,0,1-.49-.35,2.07,2.07,0,0,1-.21-1.05,2.17,2.17,0,0,1,.21-1.05.58.58,0,0,1,.49-.38h1.23a4,4,0,0,0,2-.47,1.76,1.76,0,0,0,.8-1.66v-1.22l2-.5a15.66,15.66,0,0,0,.08,1.62,2.87,2.87,0,0,0,.35,1.21,1.81,1.81,0,0,0,.81.76,3.51,3.51,0,0,0,1.48.26h1.13V321h-1.48c-1.77,0-3-.6-3.59-1.81a3.31,3.31,0,0,1-1.45,1.34,4.36,4.36,0,0,1-2,.47Zm2.72,2.89,2,1.63-1.58,1.87-1.92-1.66Zm3.67,0,1.93,1.63-1.55,1.87-2-1.66Z"/><path class="cls-2" d="M856.77,310.88c.12-1.58.33-2.48.64-2.72q2.31-1.57,5.17-3.15t6.53-3.21l-.38,2.95q-3.06,1.29-5.38,2.52c-1.55.83-2.89,1.62-4,2.38a13.4,13.4,0,0,1,3,3.28,5.93,5.93,0,0,1,.91,3.05,5,5,0,0,1-.45,2.15,4.45,4.45,0,0,1-1.26,1.59,5.49,5.49,0,0,1-1.86,1,7.42,7.42,0,0,1-2.29.34h-2.05a.58.58,0,0,1-.49-.35,2.07,2.07,0,0,1-.21-1.05,2.17,2.17,0,0,1,.21-1.05.58.58,0,0,1,.49-.38h2.28a5.14,5.14,0,0,0,2.49-.5,1.74,1.74,0,0,0,1-1.43,2.87,2.87,0,0,0-.38-1.26,7.14,7.14,0,0,0-.93-1.29,15.8,15.8,0,0,0-1.36-1.35C857.9,311.9,857.36,311.4,856.77,310.88Zm9.22-9.54q-1.92.93-4.13,2.16c-1.47.81-3,1.72-4.53,2.71l.2-1.66q2.54-1.67,4.67-2.88c1.42-.8,2.75-1.52,4-2.14Z"/><path class="cls-2" d="M874.71,329.58a8.47,8.47,0,0,1-2.87-.47,6,6,0,0,1-3.65-3.51,7.79,7.79,0,0,1-.51-2.91,8.29,8.29,0,0,1,.41-2.58,13,13,0,0,1,1.17-2.55l1.84.73a5,5,0,0,0-.47.93,10.34,10.34,0,0,0-.36,1.07,9,9,0,0,0-.25,1,4.83,4.83,0,0,0-.09.85q0,4.6,5.16,4.61a11.52,11.52,0,0,0,2.41-.24,13.26,13.26,0,0,0,2-.55,8,8,0,0,0,1.39-.64,2.22,2.22,0,0,0,.61-.47.23.23,0,0,0-.16-.19l-.3-.1-2.54-.61a4.91,4.91,0,0,1-.82-.24,2.93,2.93,0,0,1-.68-.36,1.59,1.59,0,0,1-.49-.57,2.06,2.06,0,0,1-.17-.88c0-2.48,1.87-3.73,5.6-3.73h2.33V321h-1.34l-1.35,0h-1.21c-.37,0-.69,0-.94,0-.66.06-1,.2-1,.44a.27.27,0,0,0,.1.19,1.13,1.13,0,0,0,.48.19l2.66.61a3.72,3.72,0,0,1,1.4.66,1.66,1.66,0,0,1,.52,1.38,3,3,0,0,1-.89,2.12,7.55,7.55,0,0,1-2.23,1.6,12.82,12.82,0,0,1-2.89,1A13.18,13.18,0,0,1,874.71,329.58Z"/><path class="cls-2" d="M884.25,321a.58.58,0,0,1-.51-.36,2.41,2.41,0,0,1-.19-1,2.46,2.46,0,0,1,.19-1.05.59.59,0,0,1,.51-.38h.44a10.26,10.26,0,0,0,2.1-.2,2.19,2.19,0,0,0,1.46-1.17c.33-.58.66-1.15,1-1.69a11.44,11.44,0,0,1,1-1.45,4.81,4.81,0,0,1,1-1,2,2,0,0,1,1.15-.36,2.32,2.32,0,0,1,1.52.52,4.23,4.23,0,0,1,1.08,1.36,7,7,0,0,1,.64,1.82,9.4,9.4,0,0,1,.21,2,3.44,3.44,0,0,1-.19,1.05,3.82,3.82,0,0,1-.53,1,3,3,0,0,1-.8.75,1.87,1.87,0,0,1-1,.29,4,4,0,0,1-1-.15,7.8,7.8,0,0,1-1.15-.39,12.12,12.12,0,0,1-1.14-.57,8,8,0,0,1-1-.64,4.81,4.81,0,0,1-1.74,1.31,5.9,5.9,0,0,1-2.23.38Zm9.49-3.3a3.23,3.23,0,0,0-.14-.9,4.29,4.29,0,0,0-.33-.85,2.07,2.07,0,0,0-.5-.62,1,1,0,0,0-.58-.28.51.51,0,0,0-.29,0c-.49.17-1,.87-1.58,2.1a3.7,3.7,0,0,0,.67.44l.83.38a8.53,8.53,0,0,0,.81.27,2.31,2.31,0,0,0,.61.1.48.48,0,0,0,.34-.14A.73.73,0,0,0,893.74,317.73Z"/><path class="cls-2" d="M909.64,318.64a6,6,0,0,1-.66,2.76,11,11,0,0,1-1.72,2.45,19.56,19.56,0,0,1-2.45,2.2q-1.39,1.05-2.82,2l-2-1.81c.89-.58,1.78-1.18,2.65-1.81s1.66-1.24,2.37-1.85a10.73,10.73,0,0,0,1.69-1.81,2.85,2.85,0,0,0,.64-1.65,3.25,3.25,0,0,0-.13-.84,8.72,8.72,0,0,0-.38-1.07c-.17-.38-.36-.77-.57-1.16a9.77,9.77,0,0,0-.7-1.13l1.95-1.92a9.43,9.43,0,0,1,.88,1.46,12.06,12.06,0,0,1,.64,1.5,10.75,10.75,0,0,1,.41,1.43A5.8,5.8,0,0,1,909.64,318.64Z"/><path class="cls-2" d="M915.85,320.53l-1.93.56-.46-19.23,2.39-1.11Z"/><path class="cls-2" d="M924.19,320.36a6.16,6.16,0,0,1-.71,2.65,10.63,10.63,0,0,1-1.72,2.38,19.48,19.48,0,0,1-2.41,2.15c-.89.68-1.81,1.33-2.74,1.95l-2-1.81c.9-.58,1.78-1.18,2.66-1.81s1.66-1.24,2.36-1.85a10.33,10.33,0,0,0,1.69-1.81,2.87,2.87,0,0,0,.65-1.65,3.32,3.32,0,0,0-.14-.84,7.2,7.2,0,0,0-.37-1.07c-.17-.38-.36-.77-.57-1.16a11.37,11.37,0,0,0-.7-1.13l1.95-1.95c.41.66.77,1.23,1.08,1.7a9.18,9.18,0,0,0,.9,1.19,3.11,3.11,0,0,0,.89.68,2.26,2.26,0,0,0,1,.22h1.08V321h-.93A3,3,0,0,1,924.19,320.36Z"/><path class="cls-2" d="M927.14,321a.61.61,0,0,1-.5-.35,2.19,2.19,0,0,1-.2-1.05,2.3,2.3,0,0,1,.2-1.05c.14-.25.31-.38.5-.38H930a12.8,12.8,0,0,0,1.41-.07,6.7,6.7,0,0,0,1.23-.24,2.71,2.71,0,0,0,.87-.4.93.93,0,0,0,.4-.57,2.62,2.62,0,0,0,0-.94,4.69,4.69,0,0,1-1.15.41,5.64,5.64,0,0,1-1.16.12,2.75,2.75,0,0,1-2.91-2.95,5.72,5.72,0,0,1,.26-1.73,4.89,4.89,0,0,1,.74-1.52,4.14,4.14,0,0,1,1.14-1.07,2.76,2.76,0,0,1,1.47-.41,2.36,2.36,0,0,1,1.81.76,5.5,5.5,0,0,1,1.11,1.87,10.48,10.48,0,0,1,.56,2.35A20.76,20.76,0,0,1,936,316a4.6,4.6,0,0,1-1.5,3.84,6.77,6.77,0,0,1-4.28,1.18Zm3.12-14.24-2-1.63,1.51-1.84,2,1.64Zm1.66,7.33a2.87,2.87,0,0,0,1.76-.53,6.13,6.13,0,0,0-.63-1.59,1.18,1.18,0,0,0-1-.66,1.25,1.25,0,0,0-1,.51,1.73,1.73,0,0,0-.41,1.07,1.09,1.09,0,0,0,.37.86A1.4,1.4,0,0,0,931.92,314.12Zm2-7.33-2-1.63,1.58-1.84,1.93,1.64Z"/><path class="cls-2" d="M950.77,321H949.6a3.87,3.87,0,0,1-2.21-.57,4,4,0,0,1-1.32-1.47,6.77,6.77,0,0,1-.64-2,19.37,19.37,0,0,1-.2-2.25q-.06-3.09-.13-6.38c-.05-2.18-.16-4.33-.34-6.43l2.42-1.14q0,2.65.11,6.09c0,2.28.1,4.65.16,7.1,0,.47,0,.95.07,1.46a4.75,4.75,0,0,0,.32,1.37,2.45,2.45,0,0,0,.74,1,2.11,2.11,0,0,0,1.37.41h.82Z"/><path class="cls-2" d="M950.27,320.68a2.19,2.19,0,0,1-.2-1.05,2.3,2.3,0,0,1,.2-1.05c.14-.25.31-.38.5-.38h2a13.35,13.35,0,0,0,2.48-.2,9.08,9.08,0,0,0,1.89-.59c.57-.25,1.15-.54,1.75-.86s1.28-.67,2.08-1.06a11.72,11.72,0,0,1-1.33-.46l-1.32-.52-1.18-.44a3,3,0,0,0-.84-.19,1.63,1.63,0,0,0-.81.29,6.94,6.94,0,0,0-1.17,1.05l-1.6-.9a7.84,7.84,0,0,1,.71-1.06,10.79,10.79,0,0,1,.88-1,4.36,4.36,0,0,1,.94-.76,2,2,0,0,1,1-.29,4.61,4.61,0,0,1,1.82.41l2.14.89c.78.32,1.64.61,2.57.89a11.23,11.23,0,0,0,3.12.4h.56l-.59,2.57a10.57,10.57,0,0,0-3,.44A1.86,1.86,0,0,0,964,318a6.31,6.31,0,0,0,1.83.22h2.28V321h-2.48a7.28,7.28,0,0,1-1.59-.15,2.81,2.81,0,0,1-1.15-.52,3.24,3.24,0,0,1-.86-1,10,10,0,0,1-.72-1.66,19.73,19.73,0,0,0-2,1.21c-.58.39-1.18.75-1.78,1.08a9.41,9.41,0,0,1-2,.77,11.69,11.69,0,0,1-2.8.29h-1.93A.61.61,0,0,1,950.27,320.68Zm7,6.77-2-1.72,1.61-1.93,2,1.72Z"/><path class="cls-2" d="M968.13,321a.61.61,0,0,1-.5-.35,2.19,2.19,0,0,1-.2-1.05,2.3,2.3,0,0,1,.2-1.05c.14-.25.31-.38.5-.38h1.23a4,4,0,0,0,2-.47,1.75,1.75,0,0,0,.81-1.66v-1.22l1.95-.5a15.86,15.86,0,0,0,.07,1.62,3.19,3.19,0,0,0,.35,1.21,1.89,1.89,0,0,0,.82.76,3.49,3.49,0,0,0,1.47.26H978V321H976.5c-1.77,0-3-.6-3.59-1.81a3.28,3.28,0,0,1-1.44,1.34,4.36,4.36,0,0,1-2,.47Zm5-9.42-2-1.72,1.6-1.9,2,1.69Z"/><path class="cls-2" d="M985.37,316.8q0,4.23-4.84,4.23H978a.61.61,0,0,1-.5-.35,2.19,2.19,0,0,1-.2-1.05,2.34,2.34,0,0,1,.2-1.07.6.6,0,0,1,.5-.36h2.66c1.69,0,2.53-.39,2.53-1.17a1.8,1.8,0,0,0-.19-.74,6.48,6.48,0,0,0-.45-.86,9.26,9.26,0,0,0-.58-.86l-.58-.75,2-2.1a9.54,9.54,0,0,1,1.52,2.6A7.17,7.17,0,0,1,985.37,316.8Zm-5.48,7.12,2,1.63-1.57,1.87-1.93-1.66Zm3.67,0,1.93,1.63-1.55,1.87-2-1.66Z"/><path class="cls-2" d="M991.67,320.53l-1.92.56-.47-19.23,2.39-1.11Z"/><path class="cls-2" d="M466.88,129.6a8.17,8.17,0,0,1-4.37-1A6.94,6.94,0,0,1,460,125.9a11.21,11.21,0,0,1-1.17-3.8,41.16,41.16,0,0,1-.35-4.35c-.08-1.78-.14-3.79-.17-6s-.09-4.5-.15-6.83-.14-4.67-.23-7-.23-4.52-.38-6.54L463,88.75q0,3.27,0,6.74c0,2.32.06,4.62.12,6.92s.12,4.57.17,6.83.11,4.39.15,6.41c0,.94,0,1.84.06,2.72a8.14,8.14,0,0,0,.41,2.33,3.27,3.27,0,0,0,1.13,1.61,4,4,0,0,0,2.37.58h2.33v6.71Z"/><path class="cls-2" d="M498.16,129.6a18.74,18.74,0,0,1-3.09-.23,5.94,5.94,0,0,1-2.34-.91,6.85,6.85,0,0,1-1.81-1.89,14.39,14.39,0,0,1-1.51-3.27l-3.83,2.54a28.24,28.24,0,0,1-3.47,2,18.24,18.24,0,0,1-3.7,1.31,19.14,19.14,0,0,1-4.52.47h-4.15q-.64,0-1.05-.9a6,6,0,0,1-.41-2.43,6.25,6.25,0,0,1,.41-2.45q.4-.93,1.05-.93h4.32a26.71,26.71,0,0,0,4.06-.26,15.39,15.39,0,0,0,3.15-.88,29.19,29.19,0,0,0,3.29-1.57c1.17-.65,2.65-1.43,4.44-2.37l-2.66-.81-2.42-.76c-.74-.24-1.38-.43-1.92-.59a5.28,5.28,0,0,0-1.23-.23,3,3,0,0,0-1.52.56,13.2,13.2,0,0,0-2.51,2.53L473,116.35a25.41,25.41,0,0,1,3.68-5.13,5.59,5.59,0,0,1,4-2.1,10.43,10.43,0,0,1,3.39.67l4.23,1.46c1.53.52,3.18,1,4.93,1.46a22.19,22.19,0,0,0,5.54.67h1.87l-1.28,6a18.85,18.85,0,0,0-3.3.41,14.2,14.2,0,0,0-2.89.93,9,9,0,0,0,1,1.29,2.87,2.87,0,0,0,.94.67,3.47,3.47,0,0,0,1.11.23c.4,0,.88,0,1.43,0h5.71v6.71Zm-15.7,11.55L478,137.36l3.56-4.2,4.43,3.73Z"/><path class="cls-2" d="M519.63,129.6a9.31,9.31,0,0,1-4-.76,6.43,6.43,0,0,1-2.74-2.51,7.47,7.47,0,0,1-2.92,2.48,9.87,9.87,0,0,1-4.2.79h-2.51q-.63,0-1.05-.9a6,6,0,0,1-.41-2.43,6.25,6.25,0,0,1,.41-2.45q.42-.93,1.05-.93h2.4a16.25,16.25,0,0,0,2.42-.15,3.53,3.53,0,0,0,1.57-.58,2.58,2.58,0,0,0,.91-1.22,7.07,7.07,0,0,0,.35-2v-2.45l4.84-1.22a36.12,36.12,0,0,0,.15,3.61,6.54,6.54,0,0,0,.61,2.37,2.69,2.69,0,0,0,1.34,1.28,6.18,6.18,0,0,0,2.39.38H523v6.71ZM513,112.1l-4.44-3.74,3.56-4.2,4.44,3.73Z"/><path class="cls-2" d="M521.26,141.33,517,137.71l3.39-4,4.32,3.56Zm9.11-20a2.83,2.83,0,0,0-.27-1,12.2,12.2,0,0,0-.75-1.49c-.33-.56-.7-1.15-1.11-1.78s-.85-1.22-1.32-1.8l4.38-4.61a18.67,18.67,0,0,1,3.27,5.39,14.27,14.27,0,0,1,1,5q0,4.2-2.34,6.39t-7.17,2.19H523c-.43,0-.78-.3-1.06-.9a6.06,6.06,0,0,1-.4-2.43,6.27,6.27,0,0,1,.4-2.45c.28-.62.63-.93,1.06-.93h3.09a10.38,10.38,0,0,0,3.09-.38Q530.37,122.14,530.37,121.31Zm-1.64,20-4.26-3.62,3.39-4,4.26,3.56Z"/><path class="cls-2" d="M548.05,128.67l-5.49,1.22V91.38l5.49-2.63Z"/><path class="cls-2" d="M579.67,123.88a12,12,0,0,1-1.17,5.17,19.74,19.74,0,0,1-3.18,4.75,35.88,35.88,0,0,1-4.75,4.44c-1.83,1.43-3.81,2.84-6,4.2l-4.5-4.26q3.21-1.94,5.9-3.85a46.21,46.21,0,0,0,4.55-3.68,21.07,21.07,0,0,0,2.92-3.27,4.9,4.9,0,0,0,1-2.68,5.2,5.2,0,0,0-.29-1.49,19.81,19.81,0,0,0-.79-2,20.39,20.39,0,0,0-1.2-2.22c-.47-.76-1-1.51-1.46-2.25l4.38-4.37a27.3,27.3,0,0,1,3.47,6.39A15.54,15.54,0,0,1,579.67,123.88Z"/><path class="cls-2" d="M606.69,120.67a10.22,10.22,0,0,1-1,4.85,7.54,7.54,0,0,1-2.65,2.91,10.11,10.11,0,0,1-3.91,1.4,29.68,29.68,0,0,1-4.7.35,14.33,14.33,0,0,1-4.84-.73,11,11,0,0,1-4.08-2.83l2.91-5.07a9.76,9.76,0,0,0,2.8,1.46,11.67,11.67,0,0,0,3.51.46,16.41,16.41,0,0,0,5.28-.67c1.26-.44,1.89-1,1.89-1.72q0-1.45-2.1-4a32.38,32.38,0,0,0-6.88-5.66l2.62-6.24a30.15,30.15,0,0,1,4.06,3,25,25,0,0,1,3.59,3.76,19.56,19.56,0,0,1,2.53,4.29A11.12,11.12,0,0,1,606.69,120.67Z"/><path class="cls-2" d="M653.77,129.6c-1.36,0-2.61-.1-3.76-.18s-2-.11-2.42-.11a4.33,4.33,0,0,0-1.66.23c-.33.16-.5.33-.5.53a.48.48,0,0,0,.23.43,4,4,0,0,0,1.05.33l4,.75a7.15,7.15,0,0,1,2.89,1.11,2.8,2.8,0,0,1,1,2.39,6.44,6.44,0,0,1-1.54,4.21,13.13,13.13,0,0,1-4,3.15,23.25,23.25,0,0,1-5.49,2,26.17,26.17,0,0,1-5.95.7,17.27,17.27,0,0,1-5.63-.87,12.05,12.05,0,0,1-4.32-2.54,11.38,11.38,0,0,1-2.77-4.15,15.37,15.37,0,0,1-1-5.74,16.34,16.34,0,0,1,.87-5.49,31.81,31.81,0,0,1,2.57-5.31l4.15,1.69a25.61,25.61,0,0,0-1.93,4.56,12.49,12.49,0,0,0-.58,3.5,7.1,7.1,0,0,0,2.36,5.74q2.35,2,6.86,2a26.54,26.54,0,0,0,3.76-.26,28.78,28.78,0,0,0,3.21-.65,19.56,19.56,0,0,0,2.48-.81c.7-.3,1.24-.54,1.63-.73a4.32,4.32,0,0,0-1.87-.59l-3-.64a6.57,6.57,0,0,1-3.06-1.34,4,4,0,0,1-1.2-3.27,6.36,6.36,0,0,1,2.6-5.42q2.6-1.93,8.08-1.93h3.79v6.71Z"/><path class="cls-2" d="M677.7,126a8.32,8.32,0,0,1-2.69,2.63,8,8,0,0,1-4.08.93,9.55,9.55,0,0,1-4.06-.73,6.15,6.15,0,0,1-2.65-2.77,7.14,7.14,0,0,1-2.77,2.68,7.25,7.25,0,0,1-3.36.82h-3.5q-.65,0-1.05-.9a6,6,0,0,1-.41-2.43,6.25,6.25,0,0,1,.41-2.45q.4-.93,1.05-.93h3.27a6.57,6.57,0,0,0,3.06-.67,2.43,2.43,0,0,0,1.32-2.36v-3.39l4.84-1.22c0,1.44,0,2.64.14,3.61a7.25,7.25,0,0,0,.59,2.37,2.63,2.63,0,0,0,1.22,1.28,4.88,4.88,0,0,0,2.07.38,8.65,8.65,0,0,0,2.31-.26,2.57,2.57,0,0,0,2-2.16,9.86,9.86,0,0,0,.18-2v-2l4.78-1.22a16.79,16.79,0,0,0,.73,5.8,3,3,0,0,0,3.12,1.84c2.3,0,3.45-.49,3.45-1.46a3.32,3.32,0,0,0-.27-1.05,11.61,11.61,0,0,0-.73-1.55c-.31-.56-.67-1.15-1.08-1.78a20.63,20.63,0,0,0-1.31-1.8l4.32-4.61a18.67,18.67,0,0,1,3.27,5.39,14.27,14.27,0,0,1,1,5,9.56,9.56,0,0,1-.64,3.53,7.72,7.72,0,0,1-1.81,2.72,8.37,8.37,0,0,1-2.75,1.72,9.52,9.52,0,0,1-3.5.61Q679.51,129.6,677.7,126Z"/><path class="cls-2" d="M710.31,123.88a12,12,0,0,1-1.16,5.17A20.34,20.34,0,0,1,706,133.8a36,36,0,0,1-4.76,4.44c-1.83,1.43-3.81,2.84-6,4.2l-4.49-4.26q3.21-1.94,5.89-3.85a45.06,45.06,0,0,0,4.55-3.68,20.56,20.56,0,0,0,2.92-3.27,4.9,4.9,0,0,0,1-2.68,5.2,5.2,0,0,0-.29-1.49,19.81,19.81,0,0,0-.79-2,20.39,20.39,0,0,0-1.2-2.22c-.46-.76-.95-1.51-1.45-2.25l4.37-4.37a26.94,26.94,0,0,1,3.47,6.39A15.54,15.54,0,0,1,710.31,123.88Z"/><path class="cls-2" d="M726.54,129.6a8.21,8.21,0,0,1-4.38-1,6.94,6.94,0,0,1-2.51-2.68,11.67,11.67,0,0,1-1.17-3.8,41.16,41.16,0,0,1-.35-4.35c-.08-1.78-.13-3.79-.17-6s-.09-4.5-.15-6.83-.13-4.67-.23-7-.23-4.52-.38-6.54l5.43-2.63q0,3.27,0,6.74c0,2.32.05,4.62.11,6.92s.12,4.57.18,6.83.1,4.39.14,6.41c0,.94,0,1.84.06,2.72a8.5,8.5,0,0,0,.41,2.33,3.22,3.22,0,0,0,1.14,1.61,3.93,3.93,0,0,0,2.36.58h2.34v6.71Z"/><path class="cls-2" d="M739.2,102.88a5.69,5.69,0,0,1,3.94,1.43,10.22,10.22,0,0,1,2.56,3.61,19.29,19.29,0,0,1,1.38,4.88,34.68,34.68,0,0,1,.4,5.19q0,6.12-2.88,8.87t-9.37,2.74H729.4c-.43,0-.78-.3-1.06-.9a6.06,6.06,0,0,1-.4-2.43,6.27,6.27,0,0,1,.4-2.45c.28-.62.63-.93,1.06-.93h6a20.13,20.13,0,0,0,4.29-.47,4.62,4.62,0,0,0,2.88-1.51,1.41,1.41,0,0,0,.21-.76c0-.35,0-.84,0-1.46a12.53,12.53,0,0,1-2.57.61,17.76,17.76,0,0,1-2.1.15q-6.54,0-6.54-6.89a11,11,0,0,1,.59-3.5,11.42,11.42,0,0,1,1.57-3.12,8.18,8.18,0,0,1,2.4-2.22A5.88,5.88,0,0,1,739.2,102.88Zm-.29-3.68-4.44-3.73L738,91.26,742.47,95Zm-.3,9.45a2.5,2.5,0,0,0-2,1,3.58,3.58,0,0,0-.81,2.22,1.9,1.9,0,0,0,.64,1.43,2.94,2.94,0,0,0,2.1.61,10.51,10.51,0,0,0,2.16-.2,7.73,7.73,0,0,0,1.63-.5A7.49,7.49,0,0,0,741,110,2.88,2.88,0,0,0,738.61,108.65Z"/><path class="cls-2" d="M777.59,138.47a14.56,14.56,0,0,1-5.16-.88,11.44,11.44,0,0,1-4.09-2.56,12,12,0,0,1-2.71-4.18,15.37,15.37,0,0,1-1-5.74,16.41,16.41,0,0,1,.87-5.46,29.51,29.51,0,0,1,2.57-5.28l4.14,1.63a26,26,0,0,0-1.92,4.58,12.82,12.82,0,0,0-.59,3.48A7.24,7.24,0,0,0,772,129.8a8.89,8.89,0,0,0,6.13,2q4.73,0,7.29-2.66t2.57-8.43c0-1,0-2.71-.09-5s-.14-4.89-.23-7.85-.19-6.11-.27-9.48-.13-6.68-.17-10l5.48-2.62.41,34.66q0,9-4.08,13.48T777.59,138.47Z"/><path class="cls-2" d="M808.57,109.41a6.53,6.53,0,0,1,3.56,1,8.44,8.44,0,0,1,2.66,2.72,13.45,13.45,0,0,1,1.63,4,19.58,19.58,0,0,1,.56,4.7,16.5,16.5,0,0,1-1.11,6.13,20.27,20.27,0,0,1-3.15,5.31,31.23,31.23,0,0,1-4.9,4.75,65.24,65.24,0,0,1-6.42,4.41l-4.5-4.2q2.8-1.63,5.28-3.27t4.44-3.21a39,39,0,0,0,3.35-3,10.85,10.85,0,0,0,2-2.6,7.24,7.24,0,0,1-2.63.79c-.93.09-1.61.14-2,.14a7,7,0,0,1-4.7-1.63,6.12,6.12,0,0,1-1.89-4.9,14.18,14.18,0,0,1,.58-4,13,13,0,0,1,1.63-3.56,9.07,9.07,0,0,1,2.51-2.54A5.66,5.66,0,0,1,808.57,109.41Zm-.52,6.13a2.4,2.4,0,0,0-1.2.32,2.87,2.87,0,0,0-.93.84,5,5,0,0,0-.61,1.11,2.93,2.93,0,0,0-.24,1.11,1.83,1.83,0,0,0,.79,1.52,3.63,3.63,0,0,0,2.19.58,10.06,10.06,0,0,0,2.19-.23,8.65,8.65,0,0,0,1.72-.53,7.67,7.67,0,0,0-1.37-3.38A3.09,3.09,0,0,0,808.05,115.54Z"/><path class="cls-2" d="M829.46,128.67,824,129.89V91.38l5.48-2.63Z"/><path class="cls-2" d="M895.11,129.6a10.39,10.39,0,0,1-2.92-.38,9.21,9.21,0,0,1-2.6-1.28,19.4,19.4,0,0,1-2.8-2.45c-1-1-2.15-2.33-3.47-3.88a10.69,10.69,0,0,1-.88,2.33,7.26,7.26,0,0,1-3,3.5,17.66,17.66,0,0,1-4.87,2.07,32.33,32.33,0,0,1-5.66,1q-3,.27-5.4.27-3.21,0-6.21-.27a17.56,17.56,0,0,1-5.31-1.22,8.51,8.51,0,0,1-3.68-2.83,8.34,8.34,0,0,1-1.37-5,12.56,12.56,0,0,1,.58-3.41,18.65,18.65,0,0,1,1.75-4.06l4.15,1.46a19.43,19.43,0,0,0-1.06,2.8,8.27,8.27,0,0,0-.29,2,2.35,2.35,0,0,0,1,1.93,6.87,6.87,0,0,0,2.65,1.17,23.89,23.89,0,0,0,3.91.55c1.48.1,3.07.15,4.78.15q2.16,0,4.56-.18a35.44,35.44,0,0,0,4.55-.61,17.82,17.82,0,0,0,3.79-1.17,4.88,4.88,0,0,0,2.28-1.78,8.23,8.23,0,0,0-.88-2.33,13.66,13.66,0,0,0-1.81-2.48,38.42,38.42,0,0,0-2.86-2.86l-4-3.59a28.11,28.11,0,0,1,.58-4.2,3.21,3.21,0,0,1,1-1.87q4-2.68,10-5.89T895,90.51l-.88,7.06Q888.7,99.9,884,102.32t-7.7,4.23q3.5,3.15,7,6.83t6.83,7a9.46,9.46,0,0,0,2.62,2,6.19,6.19,0,0,0,2.57.55h2.63v6.71ZM888.8,91c-2.56,1.25-5.3,2.67-8.19,4.26s-6,3.43-9.19,5.49l.52-4.15q4.72-3.15,9.13-5.63t8.26-4.4Z"/><path class="cls-2" d="M914.24,129.6a9.26,9.26,0,0,1-4-.76,6.45,6.45,0,0,1-2.75-2.51,7.44,7.44,0,0,1-2.91,2.48,9.87,9.87,0,0,1-4.2.79h-2.51q-.64,0-1-.9a5.88,5.88,0,0,1-.41-2.43,6.07,6.07,0,0,1,.41-2.45q.4-.93,1-.93h2.39a16.16,16.16,0,0,0,2.42-.15,3.48,3.48,0,0,0,1.57-.58,2.58,2.58,0,0,0,.91-1.22,7.07,7.07,0,0,0,.35-2v-2.45l4.84-1.22a36.12,36.12,0,0,0,.15,3.61,6.75,6.75,0,0,0,.61,2.37,2.69,2.69,0,0,0,1.34,1.28,6.24,6.24,0,0,0,2.4.38h2.74v6.71Zm-6.59-17.5-4.43-3.74,3.55-4.2,4.44,3.73Z"/><path class="cls-2" d="M915.88,141.33l-4.26-3.62,3.38-4,4.32,3.56Zm9.1-20a3,3,0,0,0-.26-1,14.14,14.14,0,0,0-.76-1.49c-.33-.56-.7-1.15-1.11-1.78s-.85-1.22-1.31-1.8l4.37-4.61a18.67,18.67,0,0,1,3.27,5.39,14.27,14.27,0,0,1,1.05,5q0,4.2-2.33,6.39t-7.18,2.19h-3.09q-.64,0-1-.9a6,6,0,0,1-.41-2.43,6.25,6.25,0,0,1,.41-2.45q.4-.93,1-.93h3.09a10.38,10.38,0,0,0,3.09-.38Q925,122.14,925,121.31Zm-1.63,20-4.26-3.62,3.38-4,4.26,3.56Z"/><path class="cls-2" d="M961.27,129.6a9.6,9.6,0,0,1-2.18-.23,6.09,6.09,0,0,1-1.73-.7,5.65,5.65,0,0,1-1.4-1.26,17.51,17.51,0,0,1-1.34-2,8.16,8.16,0,0,1-4,3.79,16.63,16.63,0,0,1-5.93.93,12.9,12.9,0,0,1-4.66-.76,11,11,0,0,1-4-2.8l2.92-5.07a8.86,8.86,0,0,0,2.74,1.46,11.6,11.6,0,0,0,3.5.46,13.92,13.92,0,0,0,4.84-.7c1.25-.46,1.87-1.12,1.87-2a8.3,8.3,0,0,0-.5-2.1c-.33-1-.74-2.14-1.22-3.39s-1-2.54-1.61-3.9-1.13-2.63-1.63-3.8L951.3,103l5.42,14.41c.35,1,.67,1.86,1,2.54a8.59,8.59,0,0,0,.93,1.7,3,3,0,0,0,1.14,1,4,4,0,0,0,1.63.29h2.33v6.71Z"/><path class="cls-2" d="M970.49,109.76l2.57-5.25q4.38,3,7.61,5.37a40,40,0,0,1,5.34,4.61,17.1,17.1,0,0,1,3.15,4.46,11.36,11.36,0,0,1,1.05,4.87,10,10,0,0,1-.32,2.51,6.58,6.58,0,0,1-1,2.28,5.94,5.94,0,0,1-1.72,1.63,4.44,4.44,0,0,1-2.42.64,7.3,7.3,0,0,1-1.87-.29,24.5,24.5,0,0,1-2.36-.76c-.84-.31-1.68-.66-2.54-1.05s-1.63-.76-2.33-1.11a9.58,9.58,0,0,1-3.88,1.55,24.76,24.76,0,0,1-4.17.38h-3.86q-.63,0-1.05-.9a6.06,6.06,0,0,1-.4-2.43,6.27,6.27,0,0,1,.4-2.45q.42-.93,1.05-.93h3.91c.55,0,1.11,0,1.7-.06a5.33,5.33,0,0,1-1.9-2.07,5.11,5.11,0,0,1-.44-2,8.9,8.9,0,0,1,1.29-4.38,9.4,9.4,0,0,1,3.67-3.62Zm5.14,4.38a3,3,0,0,0-1.46.41,5.69,5.69,0,0,0-1.37,1,6.26,6.26,0,0,0-1,1.31,2.59,2.59,0,0,0-.41,1.34,1.78,1.78,0,0,0,.41,1.08,4.16,4.16,0,0,0,1.05,1,11,11,0,0,0,1.4.82,7.2,7.2,0,0,0,1.4.55,2.61,2.61,0,0,0,1.51-1.22,3.79,3.79,0,0,0,.65-2.1,6.14,6.14,0,0,0-.67-3C976.67,114.53,976.17,114.14,975.63,114.14Zm5.66,3.21a5.52,5.52,0,0,1,.06.81V119a8.78,8.78,0,0,1-.59,2.45,5.3,5.3,0,0,1-1.28,1.93,9.17,9.17,0,0,0,1.22.61l1.52.64c.51.22,1,.39,1.4.53a3.75,3.75,0,0,0,.94.2.9.9,0,0,0,.78-.55,2.19,2.19,0,0,0,.32-1.14,6.12,6.12,0,0,0-.9-2.86A11.25,11.25,0,0,0,981.29,117.35Z"/><path class="cls-2" d="M787.86,190.69a10.35,10.35,0,0,1-1,4.85,7.54,7.54,0,0,1-2.65,2.91,10.17,10.17,0,0,1-3.91,1.4,29.77,29.77,0,0,1-4.7.35,14.29,14.29,0,0,1-4.84-.73,10.9,10.9,0,0,1-4.09-2.83l2.92-5.07a9.63,9.63,0,0,0,2.8,1.46,11.6,11.6,0,0,0,3.5.46,16.32,16.32,0,0,0,5.28-.67c1.27-.44,1.9-1,1.9-1.72q0-1.46-2.1-4a32.48,32.48,0,0,0-6.89-5.66l2.63-6.24a30.08,30.08,0,0,1,4,3,24.49,24.49,0,0,1,3.59,3.76,19.61,19.61,0,0,1,2.54,4.29A11.27,11.27,0,0,1,787.86,190.69Z"/><path class="cls-2" d="M808.46,199.62a11.16,11.16,0,0,1-1.87-.15,3.25,3.25,0,0,1-1.63-.78,12.41,12.41,0,0,1-1.52,4.52,20.91,20.91,0,0,1-3.15,4.23,38,38,0,0,1-4.52,4q-2.6,2-5.57,3.9l-4.5-4.25c2.14-1.29,4.11-2.57,5.9-3.86a46.23,46.23,0,0,0,4.55-3.67,21.54,21.54,0,0,0,2.92-3.27,4.9,4.9,0,0,0,1-2.68,8.67,8.67,0,0,0-1-3.36,35.41,35.41,0,0,0-2.69-4.58l4.44-4.43c.81,1.4,1.52,2.58,2.13,3.56a19.79,19.79,0,0,0,1.66,2.36,5.25,5.25,0,0,0,1.52,1.31,3.52,3.52,0,0,0,1.69.41h2.33v6.71Z"/><path class="cls-2" d="M826.49,199.62a9.31,9.31,0,0,1-4-.76,6.43,6.43,0,0,1-2.74-2.51,7.47,7.47,0,0,1-2.92,2.48,9.87,9.87,0,0,1-4.2.79h-2.51q-.64,0-1-.9a6,6,0,0,1-.41-2.43,6.25,6.25,0,0,1,.41-2.45q.4-.93,1-.93h2.39a16.31,16.31,0,0,0,2.43-.15,3.53,3.53,0,0,0,1.57-.58,2.58,2.58,0,0,0,.91-1.22,7.07,7.07,0,0,0,.35-2v-2.45l4.84-1.22a36.12,36.12,0,0,0,.15,3.61,6.54,6.54,0,0,0,.61,2.37,2.69,2.69,0,0,0,1.34,1.28,6.18,6.18,0,0,0,2.39.38h2.74v6.71Zm-10.56,11.73-4.26-3.62,3.38-4,4.32,3.56Zm7.47,0-4.26-3.62,3.38-4,4.26,3.56Z"/><path class="cls-2" d="M846.21,189.64a10.1,10.1,0,0,1-.84,4.2A8.86,8.86,0,0,1,843,197a10.35,10.35,0,0,1-3.64,2,15.52,15.52,0,0,1-4.7.67h-4.79q-.63,0-1-.9a6.06,6.06,0,0,1-.4-2.43,6.27,6.27,0,0,1,.4-2.45q.42-.93,1-.93H835a10.84,10.84,0,0,0,4.46-.7,4.41,4.41,0,0,0,2.08-1.75,10.51,10.51,0,0,0-3-5.08,60.53,60.53,0,0,0-7.56-6.3,31.74,31.74,0,0,1,.56-4.2,3.09,3.09,0,0,1,1-1.87c1.29-.85,2.72-1.74,4.29-2.65s3.19-1.82,4.84-2.72,3.29-1.75,4.91-2.56,3.1-1.56,4.46-2.22l-.88,7.06q-3.79,1.7-6.94,3.33c-2.1,1.09-4.08,2.19-6,3.32Q846.22,183.76,846.21,189.64Zm2.51-28.06q-3.74,1.86-7.88,4.14T832.09,171l.53-4.2q4.54-3,8.69-5.31t8-4.26Z"/><path class="cls-2" d="M882.74,199.62c-1.36,0-2.62-.1-3.76-.18s-2-.11-2.43-.11a4.33,4.33,0,0,0-1.66.23c-.33.16-.5.33-.5.53a.46.46,0,0,0,.24.43,3.75,3.75,0,0,0,1,.33l4,.75a7.16,7.16,0,0,1,2.88,1.11,2.8,2.8,0,0,1,1,2.39,6.45,6.45,0,0,1-1.55,4.21,12.89,12.89,0,0,1-4,3.15,23.17,23.17,0,0,1-5.48,2,26.3,26.3,0,0,1-5.95.7,17.34,17.34,0,0,1-5.64-.87,11.93,11.93,0,0,1-4.31-2.54,11.25,11.25,0,0,1-2.77-4.15,15.17,15.17,0,0,1-1-5.74,16.34,16.34,0,0,1,.88-5.49,31,31,0,0,1,2.57-5.31l4.14,1.69a25.61,25.61,0,0,0-1.93,4.56,12.49,12.49,0,0,0-.58,3.5,7.13,7.13,0,0,0,2.36,5.74c1.58,1.35,3.86,2,6.86,2a26.43,26.43,0,0,0,3.76-.26,28.32,28.32,0,0,0,3.21-.65,19.56,19.56,0,0,0,2.48-.81c.7-.3,1.25-.54,1.64-.73a4.36,4.36,0,0,0-1.87-.59l-3-.64a6.61,6.61,0,0,1-3.06-1.34,4,4,0,0,1-1.2-3.27,6.36,6.36,0,0,1,2.6-5.42c1.73-1.29,4.43-1.93,8.08-1.93h3.8v6.71Z"/><path class="cls-2" d="M898.32,181.71a5.08,5.08,0,0,1,3.12,1,8.73,8.73,0,0,1,2.33,2.68,14.4,14.4,0,0,1,1.49,3.71,16.55,16.55,0,0,1,.53,4.14,6.68,6.68,0,0,1-.47,2.39,8.55,8.55,0,0,1-1.23,2.22,6.17,6.17,0,0,1-1.75,1.6,3.82,3.82,0,0,1-2,.62,9.06,9.06,0,0,1-2.07-.27,17,17,0,0,1-2.33-.7,16.69,16.69,0,0,1-2.37-1.08,16.34,16.34,0,0,1-2.16-1.4,8.18,8.18,0,0,1-3,2.34,10.17,10.17,0,0,1-3.85.64h-.93q-.64,0-1-1a5.85,5.85,0,0,1-.41-2.25,6.47,6.47,0,0,1,.41-2.36q.4-1.08,1-1.08h.7a13.09,13.09,0,0,0,3-.35,3.51,3.51,0,0,0,2.28-1.81c.62-1.17,1.26-2.29,1.92-3.38a21.68,21.68,0,0,1,2.07-2.89,10.37,10.37,0,0,1,2.25-2A4.48,4.48,0,0,1,898.32,181.71Zm-.59,6.18a2.58,2.58,0,0,0-1.8,1,11,11,0,0,0-1.81,2.86,8.63,8.63,0,0,0,1.34.88,12.68,12.68,0,0,0,1.55.7,10.56,10.56,0,0,0,1.54.44,7.83,7.83,0,0,0,1.34.14,1.58,1.58,0,0,0,.76-.23,1.17,1.17,0,0,0,.53-.53,6.26,6.26,0,0,0-.27-1.78,6.56,6.56,0,0,0-.75-1.69,5.2,5.2,0,0,0-1.11-1.28A2.07,2.07,0,0,0,897.73,187.89Z"/><path class="cls-2" d="M937.18,193.9a12,12,0,0,1-1.17,5.17,20.34,20.34,0,0,1-3.18,4.75,36.52,36.52,0,0,1-4.75,4.44c-1.83,1.43-3.82,2.84-6,4.2l-4.49-4.26c2.14-1.29,4.11-2.57,5.89-3.85a46.43,46.43,0,0,0,4.56-3.68A21,21,0,0,0,931,197.4a4,4,0,0,0,.76-4.17,17.66,17.66,0,0,0-.79-2,22.1,22.1,0,0,0-1.19-2.22c-.47-.76-1-1.51-1.46-2.25l4.38-4.37a27.3,27.3,0,0,1,3.47,6.39A15.54,15.54,0,0,1,937.18,193.9Z"/><path class="cls-2" d="M949.66,198.69l-5.48,1.22V161.4l5.48-2.63Z"/><path class="cls-2" d="M970.49,199.62a11,11,0,0,1-1.86-.15,3.28,3.28,0,0,1-1.64-.78,12.39,12.39,0,0,1-1.51,4.52,21.69,21.69,0,0,1-3.15,4.23,38.92,38.92,0,0,1-4.53,4q-2.59,2-5.57,3.9l-4.49-4.25c2.14-1.29,4.1-2.57,5.89-3.86a45.08,45.08,0,0,0,4.55-3.67,21,21,0,0,0,2.92-3.27,4.9,4.9,0,0,0,1-2.68,8.67,8.67,0,0,0-1-3.36,36.46,36.46,0,0,0-2.68-4.58l4.43-4.43c.82,1.4,1.53,2.58,2.13,3.56a21,21,0,0,0,1.66,2.36,5.38,5.38,0,0,0,1.52,1.31,3.55,3.55,0,0,0,1.69.41h2.34v6.71Z"/><path class="cls-2" d="M982,172.9a5.69,5.69,0,0,1,3.94,1.43,10.22,10.22,0,0,1,2.56,3.61,19.29,19.29,0,0,1,1.38,4.88,34.68,34.68,0,0,1,.4,5.19q0,6.12-2.88,8.87T978,199.62h-5.83q-.65,0-1.05-.9a5.88,5.88,0,0,1-.41-2.43,6.07,6.07,0,0,1,.41-2.45q.4-.93,1.05-.93h5.95a20.06,20.06,0,0,0,4.29-.47,4.62,4.62,0,0,0,2.88-1.51,1.41,1.41,0,0,0,.21-.76c0-.35,0-.84,0-1.46a12.53,12.53,0,0,1-2.57.61,17.76,17.76,0,0,1-2.1.15q-6.54,0-6.53-6.89a11,11,0,0,1,.58-3.5A11.42,11.42,0,0,1,976.5,176a8.31,8.31,0,0,1,2.4-2.22A5.88,5.88,0,0,1,982,172.9Zm-4-3.68-4.26-3.56,3.39-4,4.32,3.51Zm3.45,9.45a2.51,2.51,0,0,0-2,1.05,3.58,3.58,0,0,0-.81,2.22,1.9,1.9,0,0,0,.64,1.43,3,3,0,0,0,2.1.61,10.44,10.44,0,0,0,2.16-.2,7.73,7.73,0,0,0,1.63-.5,7.49,7.49,0,0,0-1.34-3.29A2.87,2.87,0,0,0,981.41,178.67Zm4-9.45-4.26-3.56,3.39-4,4.26,3.51Z"/><rect class="cls-2" x="950.4" y="240.66" width="43.2" height="4.32"/><polygon class="cls-2" points="214.4 425.13 189.46 450.07 193.99 454.59 220.8 427.78 220.8 407.53 214.4 407.53 214.4 425.13"/><rect class="cls-2" x="118.4" y="388.33" width="6.4" height="12.8"/><rect class="cls-2" x="214.4" y="388.33" width="6.4" height="12.8"/><rect class="cls-2" x="150.4" y="461.93" width="6.4" height="12.8"/><rect class="cls-2" x="163.2" y="461.93" width="6.4" height="12.8"/><path class="cls-2" d="M198.4,388.33H192v25.6l-35.2,35.2V439l28.8-28.8V388.33h-6.4v19.2l-22.4,22.4V419.78l16-16V388.33h-6.4v12.8l-9.6,9.6v-22.4h-6.4v32a28.8,28.8,0,0,1-57.6,0v-32H86.4v32a35.17,35.17,0,0,0,64,20.18v15h9l39-38.95Z"/></g></svg>