<svg xmlns="http://www.w3.org/2000/svg" viewBox="0 0 1080 1080"><defs><style>.cls-1{fill:#fff;}.cls-2{fill:#a9afb0;}</style></defs><g id="Background"><rect width="1080" height="1080"/></g><g id="Graphic"><path class="cls-1" d="M994.09,994.1h-12.5v-1h11.5v-4.29h1Zm-24.5,0h-12v-1h12Zm-24,0h-12v-1h12Zm-24,0h-12v-1h12Zm-24,0h-12v-1h12Zm-24,0h-12v-1h12Zm-24,0h-12v-1h12Zm-24,0h-12v-1h12Zm-24,0h-12v-1h12Zm-24,0h-12v-1h12Zm-24,0h-12v-1h12Zm-24,0h-12v-1h12Zm-24,0h-12v-1h12Zm-24,0h-12v-1h12Zm-24,0h-12v-1h12Zm-24,0h-12v-1h12Zm-24,0h-12v-1h12Zm-24,0h-12v-1h12Zm-24,0h-12v-1h12Zm-24,0h-12v-1h12Zm-24,0h-12v-1h12Zm-24,0h-12v-1h12Zm-24,0h-12v-1h12Zm-24,0h-12v-1h12Zm-24,0h-12v-1h12Zm-24,0h-12v-1h12Zm-24,0h-12v-1h12Zm-24,0h-12v-1h12Zm-24,0h-12v-1h12Zm-24,0h-12v-1h12Zm-24,0h-12v-1h12Zm-24,0h-12v-1h12Zm-24,0h-12v-1h12Zm-24,0h-12v-1h12Zm-24,0h-12v-1h12Zm-24,0h-12v-1h12Zm-24,0h-12v-1h12Zm-24,0h-12v-1h12Zm-18.7-5.31h-1v-12h1Zm907.19-12h-1v-12h1Zm-907.19-12h-1v-12h1Zm907.19-12h-1v-12h1Zm-907.19-12h-1v-12h1Zm907.19-12h-1v-12h1Zm-907.19-12h-1v-12h1Zm907.19-12h-1v-12h1Zm-907.19-12h-1v-12h1Zm907.19-12h-1v-12h1Zm-907.19-12h-1v-12h1Zm907.19-12h-1v-12h1Zm-907.19-12h-1v-12h1Zm907.19-12h-1v-12h1Zm-907.19-12h-1v-12h1Zm907.19-12h-1v-12h1Zm-907.19-12h-1v-12h1Zm907.19-12h-1v-12h1Zm-907.19-12h-1v-12h1Zm907.19-12h-1v-12h1Zm-907.19-12h-1v-12h1Zm907.19-12h-1v-12h1Zm-907.19-12h-1v-12h1Zm907.19-12h-1v-12h1Zm-907.19-12h-1v-12h1Zm907.19-12h-1v-12h1Zm-907.19-12h-1v-12h1Zm907.19-12h-1v-12h1Zm-907.19-12h-1v-12h1Zm907.19-12h-1v-12h1Zm-907.19-12h-1v-12h1Zm907.19-12h-1v-12h1Zm-907.19-12h-1v-12h1Zm907.19-12h-1v-12h1Zm-907.19-12h-1v-12h1Zm907.19-12h-1v-12h1Zm-907.19-12h-1v-12h1Zm907.19-12h-1v-12h1Zm-907.19-12h-1v-12h1Zm907.19-12h-1v-12h1Zm-907.19-12h-1v-12h1Zm907.19-12h-1v-12h1Zm-907.19-12h-1v-12h1Zm907.19-12h-1v-12h1Zm-907.19-12h-1v-12h1Zm907.19-12h-1v-12h1Zm-907.19-12h-1v-12h1Zm907.19-12h-1v-12h1Zm-907.19-12h-1v-12h1Zm907.19-12h-1v-12h1Zm-907.19-12h-1v-12h1Zm907.19-12h-1v-12h1Zm-907.19-12h-1v-12h1Zm907.19-12h-1v-12h1Zm-907.19-12h-1v-12h1Zm907.19-12h-1v-12h1Zm-907.19-12h-1v-12h1Zm907.19-12h-1v-12h1Zm-907.19-12h-1v-12h1Zm907.19-12h-1v-12h1Zm-907.19-12h-1v-12h1Zm907.19-12h-1v-12h1Zm-907.19-12h-1v-12h1Zm907.19-12h-1v-12h1Zm-907.19-12h-1v-12h1Zm907.19-12h-1v-12h1Zm-907.19-12h-1v-12h1Zm907.19-12h-1v-12h1Zm-907.19-12h-1v-12h1Zm907.19-12h-1v-12h1Zm-907.19-12h-1v-12h1Zm907.19-12h-1v-12h1Zm-907.19-12h-1v-12h1Zm907.19-12h-1v-12h1Zm-907.19-12h-1v-12h1Zm907.19-12h-1V86.9H984v-1h10.08ZM972,86.9H960v-1h12Zm-24,0H936v-1h12Zm-24,0H912v-1h12Zm-24,0H888v-1h12Zm-24,0H864v-1h12Zm-24,0H840v-1h12Zm-24,0H816v-1h12Zm-24,0H792v-1h12Zm-24,0H768v-1h12Zm-24,0H744v-1h12Zm-24,0H720v-1h12Zm-24,0H696v-1h12Zm-24,0H672v-1h12Zm-24,0H648v-1h12Zm-24,0H624v-1h12Zm-24,0H600v-1h12Zm-24,0H576v-1h12Zm-24,0H552v-1h12Zm-24,0H528v-1h12Zm-24,0H504v-1h12Zm-24,0H480v-1h12Zm-24,0H456v-1h12Zm-24,0H432v-1h12Zm-24,0H408v-1h12Zm-24,0H384v-1h12Zm-24,0H360v-1h12Zm-24,0H336v-1h12Zm-24,0H312v-1h12Zm-24,0H288v-1h12Zm-24,0H264v-1h12Zm-24,0H240v-1h12Zm-24,0H216v-1h12Zm-24,0H192v-1h12Zm-24,0H168v-1h12Zm-24,0H144v-1h12Zm-24,0H120v-1h12Zm-24,0H96v-1h12Z"/><path class="cls-2" d="M540,216h0A324,324,0,0,1,864,540V864a0,0,0,0,1,0,0H216a0,0,0,0,1,0,0V540A324,324,0,0,1,540,216Z"/></g></svg>