<svg xmlns="http://www.w3.org/2000/svg" xmlns:xlink="http://www.w3.org/1999/xlink" viewBox="0 0 1080 1080"><defs><style>.cls-1{fill:none;}.cls-2{clip-path:url(#clip-path);}.cls-3{fill:#fff;}</style><clipPath id="clip-path"><rect class="cls-1" width="1080" height="1080"/></clipPath></defs><g id="Background"><rect width="1080" height="1080"/></g><g id="Graphic"><g class="cls-2"><path class="cls-3" d="M231.5,794.32H188.22V731.43h42.41v9H198.74v17.63H227v8.68H198.74v18.6H231.5Z"/><path class="cls-3" d="M253.21,794.32h-10V731.43h11.58l28,44.29V731.43h10.08v62.89H283.7l-30.49-48.07Z"/><path class="cls-3" d="M335.06,795.42q-13.69,0-22.2-8.91t-8.37-23.37q0-14.7,8.55-23.77t22.8-9q11,0,18.27,5.2a25.06,25.06,0,0,1,9.76,14.72l-10.35,1.79q-4.08-12.63-17.68-12.63-9.64,0-15.1,6.32t-5.47,17.37q0,10.35,5.66,16.8a19.23,19.23,0,0,0,15,6.4q8.34,0,13.55-4.43a14.08,14.08,0,0,0,5.31-11.14v-2.15H336.63v-8.33H364.4v34h-9.52v-7.81a21.38,21.38,0,0,1-8.42,6.6A27.45,27.45,0,0,1,335.06,795.42Z"/><path class="cls-3" d="M417.12,794.32H377.34V731.43h10.52v53.81h29.26Z"/><path class="cls-3" d="M436.72,794.32H426.19V731.43h10.53Z"/><path class="cls-3" d="M473.25,795.42q-11.7,0-18.5-5.48t-7-15.09l10.52-1.19q.27,6.45,4.13,9.83t10.87,3.37c3.78,0,6.75-.89,8.93-2.69a8.93,8.93,0,0,0,3.27-7.26,7.36,7.36,0,0,0-2.24-5.75q-2.23-2-7.81-3.15l-8.29-1.71q-17.49-3.6-17.49-18.07a16,16,0,0,1,6.09-12.64q6-5.22,16-5.22T488,735.29a18.73,18.73,0,0,1,7,13.42l-10.7,1.14q-1.18-11-12.63-11c-3.59,0-6.41.81-8.44,2.42a7.84,7.84,0,0,0-3.05,6.49,8.06,8.06,0,0,0,2.15,6q2.15,2.14,6.89,3l9.65,1.88q8.81,1.68,13.11,6t4.3,11.36a17.83,17.83,0,0,1-6.41,14Q483.56,795.42,473.25,795.42Z"/><path class="cls-3" d="M518.12,794.32H507.6V731.43h10.52v26.14H547.2V731.43h10.53v62.89H547.2V766.73H518.12Z"/><path class="cls-3" d="M602.6,794.32H592.07V731.43H602.6v26.14h29.07V731.43H642.2v62.89H631.67V766.73H602.6Z"/><path class="cls-3" d="M686.19,748.71a8.78,8.78,0,0,0-2.68-6.73,9.82,9.82,0,0,0-7.06-2.53q-6.13,0-9.21,4.1t-2.63,11.87l-10.22-1.36q-.66-11,5.57-17.33t16.67-6.36q9.17,0,14.74,5a16.68,16.68,0,0,1,5.48,13,22.84,22.84,0,0,1-3.27,11.54A51.94,51.94,0,0,1,683.12,772l-15,13.38h30.61v8.9H654.17v-8.81l22.37-20A35.93,35.93,0,0,0,684,757,16.5,16.5,0,0,0,686.19,748.71Z"/><path class="cls-3" d="M729.65,774.19H706.1v-8.68h23.55Z"/><path class="cls-3" d="M753.25,794.32H742.72V731.43h10.53v26.14h29.08V731.43h10.53v62.89H782.33V766.73H753.25Z"/><path class="cls-3" d="M851,794.32H807.72V731.43h42.42v9H818.25v17.63h28.29v8.68H818.25v18.6H851Z"/><path class="cls-3" d="M898.77,780.42H872.2l-5.14,13.9H856.5l23.68-62.89h11.4l23.55,62.89H903.82Zm-23.33-8.73h20.22l-10-27.59Z"/><path class="cls-3" d="M949.52,794.32H923.91V731.43h25.61q14.29,0,22.72,8.29T980.66,762q0,14.52-8.51,23.42T949.52,794.32ZM970,762q0-9.82-5.57-15.66t-14.91-5.83H934.43v44.73h15.09q9.35,0,14.91-6.36T970,762Z"/><path class="cls-3" d="M1002.94,794.32H992.41V731.43h10.53Z"/><path class="cls-3" d="M1027.85,794.32h-10V731.43h11.58l28,44.29V731.43h10.09v62.89h-9.17l-30.48-48.07Z"/><path class="cls-3" d="M1109.69,795.42q-13.68,0-22.19-8.91t-8.38-23.37q0-14.7,8.56-23.77t22.8-9q11,0,18.27,5.2a25.06,25.06,0,0,1,9.76,14.72l-10.35,1.79q-4.08-12.63-17.68-12.63-9.64,0-15.11,6.32t-5.46,17.37q0,10.35,5.66,16.8a19.23,19.23,0,0,0,15,6.4q8.33,0,13.55-4.43a14.08,14.08,0,0,0,5.31-11.14v-2.15h-18.16v-8.33H1139v34h-9.51v-7.81a21.45,21.45,0,0,1-8.42,6.6A27.53,27.53,0,0,1,1109.69,795.42Z"/><path class="cls-3" d="M215.54,903.21q-13.68,0-22.19-8.91T185,870.93q0-14.7,8.55-23.78t22.81-9q11,0,18.27,5.2a25,25,0,0,1,9.75,14.71L234,859.87q-4.08-12.63-17.67-12.63-9.65,0-15.11,6.32t-5.46,17.37q0,10.35,5.66,16.79a19.2,19.2,0,0,0,15,6.41q8.33,0,13.55-4.43a14.08,14.08,0,0,0,5.31-11.14v-2.15H217.12v-8.34h27.76v34h-9.52V894.3a21.38,21.38,0,0,1-8.42,6.6A27.45,27.45,0,0,1,215.54,903.21Z"/><path class="cls-3" d="M315.14,870.66q0,14.7-8.29,23.64t-22,8.91q-13.81,0-22.06-8.91t-8.21-23.64q0-14.64,8.29-23.59t22-8.91q13.77,0,22,8.91T315.14,870.66Zm-44.58-17.15q-5.19,6.27-5.2,17.15t5.2,17.17q5.2,6.3,14.28,6.3t14.38-6.3q5.22-6.29,5.22-17.17t-5.22-17.15q-5.22-6.27-14.38-6.27T270.56,853.51Z"/><path class="cls-3" d="M370.14,902.11H326.85V839.22h42.42v9H337.38v17.63h28.29v8.68H337.38v18.6h32.76Z"/><path class="cls-3" d="M403.48,903.21q-11.72,0-18.51-5.49t-7-15.08l10.53-1.19q.25,6.45,4.12,9.83t10.88,3.37q5.65,0,8.92-2.69a8.93,8.93,0,0,0,3.27-7.26,7.36,7.36,0,0,0-2.24-5.75c-1.49-1.34-4.09-2.4-7.81-3.16l-8.29-1.71Q379.84,870.5,379.84,856a16,16,0,0,1,6.09-12.63q6-5.22,16-5.22t16.27,4.91a18.76,18.76,0,0,1,7,13.43l-10.71,1.14q-1.19-11-12.63-11c-3.59,0-6.41.81-8.44,2.41a7.87,7.87,0,0,0-3.05,6.49,8.07,8.07,0,0,0,2.15,6q2.14,2.15,6.89,3l9.65,1.88q8.81,1.66,13.11,6t4.3,11.36a17.8,17.8,0,0,1-6.41,13.94Q413.78,903.21,403.48,903.21Z"/><path class="cls-3" d="M467.82,902.11H457.29V839.22h10.53v26.14H496.9V839.22h10.52v62.89H496.9V874.52H467.82Z"/><path class="cls-3" d="M565.58,902.11H522.29V839.22H564.7v9H532.82v17.63H561.1v8.68H532.82v18.6h32.76Z"/><path class="cls-3" d="M624.22,886.1l.92,16H614.61l-.92-16a7.57,7.57,0,0,0-2.87-6q-2.61-1.9-8.14-1.9H587.77v23.9H577.24V839.22h26.14q9.82,0,15.71,4.95a15.43,15.43,0,0,1,6,12.59,18.11,18.11,0,0,1-2.65,9.63,18.68,18.68,0,0,1-7.44,6.82Q623.69,876.06,624.22,886.1Zm-9.78-28.29a8.73,8.73,0,0,0-3.16-7.06q-3.16-2.62-8.68-2.63H587.77v21.4H602.6a11.62,11.62,0,0,0,8.59-3.24A11.49,11.49,0,0,0,614.44,857.81Z"/><path class="cls-3" d="M681.41,902.11H638.12V839.22h42.41v9H648.65v17.63h28.29v8.68H648.65v18.6h32.76Z"/><path class="cls-3" d="M288.83,179.76H332v15.09H319.35v102.8H332v15.09H288.83V297.65h13.33v-47.8H225.23v47.8h13.33v15.09H195.41V297.65H208V194.85H195.41V179.76h43.15v15.09H225.23v40.26h76.93V194.85H288.83Z"/><path class="cls-3" d="M365.75,297.65h12.9V200.37L351.72,215V196.69l37-20.7h7V297.65h13.07v15.09H365.75Z"/><path class="cls-3" d="M565.05,179.76h43.16v15.09H595.57v102.8h12.64v15.09H565.05V297.65h13.33v-47.8H501.45v47.8h13.34v15.09H471.63V297.65h12.63V194.85H471.63V179.76h43.16v15.09H501.45v40.26h76.93V194.85H565.05Z"/><path class="cls-3" d="M633.29,179.76h95.27v37.63h-18V194.93H663.12v42.55H703v15.08H663.12v45.09h47.45V275.2h18v37.54H633.29V297.65h12.63V194.93H633.29Z"/><path class="cls-3" d="M824.78,297.65h11.05l-10.52-30.17H774.17l-10.26,30.17h13.68v15.09H734.43V297.65H746l41.4-117.89h25.88l41.32,117.89h13.33v15.09H824.78Zm-45.61-44.73h41.05l-20.7-59.48Z"/><path class="cls-3" d="M881.36,179.76h49.47a62.61,62.61,0,0,1,17.37,2.37,63.34,63.34,0,0,1,38.11,30.35,67.82,67.82,0,0,1,6.28,15.83,70,70,0,0,1,2.19,17.59,71.09,71.09,0,0,1-2.19,17.8,69.24,69.24,0,0,1-6.28,16,64.16,64.16,0,0,1-9.86,13.55,62.24,62.24,0,0,1-45.62,19.52H881.36V297.65H894V194.93H881.36Zm29.82,15.17V297.65h20.71a38.36,38.36,0,0,0,17.32-4,45.39,45.39,0,0,0,14.17-11,53,53,0,0,0,9.56-16.41,57.69,57.69,0,0,0,3.51-20.3,56.15,56.15,0,0,0-3.51-20,52.34,52.34,0,0,0-9.56-16.19,44.82,44.82,0,0,0-14.17-10.83,39.09,39.09,0,0,0-17.32-3.95Z"/><path class="cls-3" d="M1013.55,179.76H1056v15.17h-12.63V297.65H1056v15.09h-42.46V297.65h12.63V194.93h-12.63Z"/><path class="cls-3" d="M298,528.84V502.17a45.1,45.1,0,0,1-8.34,12.07,46.35,46.35,0,0,1-11.14,8.46,53.29,53.29,0,0,1-13.11,5,60.8,60.8,0,0,1-14.17,1.67A64.6,64.6,0,0,1,227.33,525a54.91,54.91,0,0,1-19.86-13.82,64.22,64.22,0,0,1-13.6-22.46,79,79,0,0,1-4.69-27.1,76.41,76.41,0,0,1,4.69-26.84,67.65,67.65,0,0,1,13.16-22A60.59,60.59,0,0,1,252.6,392.7q12.63,0,21.71,3.6A60.55,60.55,0,0,1,289.83,405a70,70,0,0,1,10.31,9.78h8.51v15.61H289.79a44.13,44.13,0,0,0-15.57-15.79A43.48,43.48,0,0,0,234,413.32a45,45,0,0,0-14.43,11.58,54.41,54.41,0,0,0-9.34,16.75,59.88,59.88,0,0,0-3.33,20,62.13,62.13,0,0,0,3.68,21.67A48.55,48.55,0,0,0,220,499.54a46.13,46.13,0,0,0,14.08,10.31,41.76,41.76,0,0,0,18.55,4.08q16.85,0,27.63-8.2t15.09-25.57h-37.2V465.07h56.23v63.77Z"/><path class="cls-3" d="M400.58,531a60.53,60.53,0,0,1-25.18-5.14,63.87,63.87,0,0,1-33.94-37.06,79.24,79.24,0,0,1-4.65-26.93,76.88,76.88,0,0,1,4.69-27,67.15,67.15,0,0,1,13.16-22,61.83,61.83,0,0,1,20.17-14.73,62.16,62.16,0,0,1,71.8,14.73,67.12,67.12,0,0,1,13.07,22,80.36,80.36,0,0,1,0,54,67.91,67.91,0,0,1-13.16,22,61.44,61.44,0,0,1-20.18,14.78A60.71,60.71,0,0,1,400.58,531Zm0-16.32a41.07,41.07,0,0,0,18.9-4.3,44.77,44.77,0,0,0,14.43-11.53,52.79,52.79,0,0,0,9.21-16.8,64,64,0,0,0-.31-41.18,49.46,49.46,0,0,0-9.91-17.15,44.67,44.67,0,0,0-14.78-10.84A42.08,42.08,0,0,0,400.58,409a41.36,41.36,0,0,0-18.95,4.3,44.5,44.5,0,0,0-14.47,11.53A52.67,52.67,0,0,0,358,441.69a66.18,66.18,0,0,0,.35,42,47.33,47.33,0,0,0,9.52,16,51.73,51.73,0,0,0,14.12,10.66A39.5,39.5,0,0,0,400.58,514.63Z"/><path class="cls-3" d="M483.12,395.33h95.26V433h-18V410.51H512.94v42.54h39.92v15.09H512.94v45.09H560.4V490.77h18v37.54H483.12V513.23h12.63V410.51H483.12Z"/><path class="cls-3" d="M661.28,419.9a22,22,0,0,0-6.19-5.93,28.53,28.53,0,0,0-7.41-3.15,30.7,30.7,0,0,0-8.07-1.1,39.67,39.67,0,0,0-11.67,1.54,24.88,24.88,0,0,0-8.29,4.16,17.43,17.43,0,0,0-4.95,6.14,17,17,0,0,0-1.67,7.37,18.55,18.55,0,0,0,2.06,9.34,17.29,17.29,0,0,0,5.22,5.7,26.88,26.88,0,0,0,7,3.38q3.81,1.23,7.32,2.46l17.72,5.79a84,84,0,0,1,14.08,5.79,38.6,38.6,0,0,1,10.22,7.67,30.55,30.55,0,0,1,6.27,10.22,38.51,38.51,0,0,1,2.15,13.42A34.71,34.71,0,0,1,681.67,508a37,37,0,0,1-9.43,12.2,44.72,44.72,0,0,1-14.43,8.11,55.14,55.14,0,0,1-18.38,2.94,58.38,58.38,0,0,1-17.54-2.32,38.69,38.69,0,0,1-12.24-6.23,32.35,32.35,0,0,1-7.93-8.91,48.45,48.45,0,0,1-4.65-10.26H590.4V488.4h22.1c0,6.49.69,11.09,2.07,13.77a18.7,18.7,0,0,0,5.74,6.72,26.53,26.53,0,0,0,8.77,4,43.31,43.31,0,0,0,11.23,1.36,38.36,38.36,0,0,0,10.75-1.4,23.9,23.9,0,0,0,8.15-4.08,18.08,18.08,0,0,0,5.18-6.49,20.05,20.05,0,0,0,1.8-8.64,17.34,17.34,0,0,0-2.24-9.08,22.07,22.07,0,0,0-5.74-6.36,33.16,33.16,0,0,0-7.68-4.3c-2.78-1.11-5.45-2.08-8-2.89l-19.21-5.44a56.45,56.45,0,0,1-11.53-4.92,34,34,0,0,1-9-7.28,30.57,30.57,0,0,1-5.74-10,39.93,39.93,0,0,1-2-13.29,34.6,34.6,0,0,1,3-14.3,33.23,33.23,0,0,1,8.77-11.66A42,42,0,0,1,621,396.26a59.36,59.36,0,0,1,19.17-2.86,49,49,0,0,1,13.11,1.67,41.84,41.84,0,0,1,10.88,4.69,38.31,38.31,0,0,1,8.59,7.28,43.7,43.7,0,0,1,6.27,9.35h6.58v15.08H664.08Q664.08,423.76,661.28,419.9Z"/><path class="cls-3" d="M834.78,395.33h43.16v15.09H865.31V513.23h12.63v15.08H834.78V513.23h13.34V465.42H771.19v47.81h13.33v15.08H741.36V513.23H754V410.42H741.36V395.33h43.16v15.09H771.19v40.26h76.93V410.42H834.78Z"/><path class="cls-3" d="M903,395.33h95.26V433h-18V410.51H932.85v42.54h39.91v15.09H932.85v45.09h47.46V490.77h18v37.54H903V513.23h12.63V410.51H903Z"/><path class="cls-3" d="M1015.83,395.33h55.35a55,55,0,0,1,16.36,2.33,37.69,37.69,0,0,1,13,6.84,31,31,0,0,1,8.56,11.27,37.3,37.3,0,0,1,3.07,15.53,28.3,28.3,0,0,1-1.8,9.87,34.3,34.3,0,0,1-5,9,38.12,38.12,0,0,1-7.59,7.41,34.49,34.49,0,0,1-9.56,5,20.24,20.24,0,0,1,4.43,2.77,25.54,25.54,0,0,1,4.21,4.38A36.27,36.27,0,0,1,1103,482.7l7.37,28.95h11.49l.18,16.66h-25.88l-9.91-40.43q-2.71-10.87-8.29-16t-15.22-5.13h-17.1v46.49H1059v15.08h-43.16V513.23h12.63V410.51h-12.63Zm29.83,15.18v41.84h25.52a30.55,30.55,0,0,0,9.17-1.31,20.08,20.08,0,0,0,7.19-4,18.17,18.17,0,0,0,4.74-6.54,22.42,22.42,0,0,0,1.71-9.08q0-9.9-6-15.43t-18.94-5.53Z"/><rect class="cls-3" x="189.15" y="654.67" width="133" height="13.3"/></g></g></svg>