<svg xmlns="http://www.w3.org/2000/svg" xmlns:xlink="http://www.w3.org/1999/xlink" viewBox="0 0 1080 1080"><defs><style>.cls-1{fill:#061f6b;}.cls-2{fill:#4672df;}.cls-3{fill:#4672e2;}.cls-4{fill:#fff;}.cls-5{fill:url(#linear-gradient);}.cls-6{fill:url(#linear-gradient-2);}.cls-7{fill:url(#linear-gradient-3);}.cls-8{fill:url(#linear-gradient-4);}.cls-9{fill:url(#linear-gradient-5);}.cls-10{fill:url(#linear-gradient-6);}.cls-11{fill:url(#linear-gradient-7);}</style><linearGradient id="linear-gradient" x1="15363.35" y1="186.45" x2="15363.35" y2="-893.55" gradientTransform="translate(893.55 15449.72) rotate(-90)" gradientUnits="userSpaceOnUse"><stop offset="0" stop-color="#fff" stop-opacity="0"/><stop offset="0.51" stop-color="#fff"/><stop offset="1" stop-color="#fff" stop-opacity="0"/></linearGradient><linearGradient id="linear-gradient-2" x1="14456.09" y1="186.45" x2="14456.09" y2="-893.55" xlink:href="#linear-gradient"/><linearGradient id="linear-gradient-3" x1="14491.12" y1="186.45" x2="14491.12" y2="-893.55" gradientTransform="translate(186.45 -13618.94) rotate(90)" gradientUnits="userSpaceOnUse"><stop offset="0" stop-color="#fff" stop-opacity="0"/><stop offset="1" stop-color="#fff"/></linearGradient><linearGradient id="linear-gradient-4" x1="14577.53" y1="186.45" x2="14577.53" y2="-893.55" xlink:href="#linear-gradient-3"/><linearGradient id="linear-gradient-5" x1="14534.31" y1="186.45" x2="14534.31" y2="-893.55" xlink:href="#linear-gradient-3"/><linearGradient id="linear-gradient-6" x1="21411.35" y1="6234.44" x2="21411.35" y2="5154.44" gradientTransform="translate(-20417.72 -5154.44)" xlink:href="#linear-gradient"/><linearGradient id="linear-gradient-7" x1="20504.09" y1="6234.44" x2="20504.09" y2="5154.44" gradientTransform="translate(-20417.72 -5154.44)" xlink:href="#linear-gradient"/></defs><g id="Graphic"><path class="cls-1" d="M367.2,0h0A367.2,367.2,0,0,1,734.4,367.2V734.4a0,0,0,0,1,0,0H0a0,0,0,0,1,0,0V367.2A367.2,367.2,0,0,1,367.2,0Z" transform="translate(734.4 734.4) rotate(180)"/><path class="cls-2" d="M777.49,956.2a6,6,0,0,1-.66,2.76,11,11,0,0,1-1.72,2.45,19.56,19.56,0,0,1-2.45,2.2q-1.39,1-2.82,2l-2-1.81c.89-.58,1.78-1.18,2.65-1.81a29.27,29.27,0,0,0,2.37-1.85,10.73,10.73,0,0,0,1.69-1.81,2.85,2.85,0,0,0,.64-1.64,3.26,3.26,0,0,0-.13-.85,8.72,8.72,0,0,0-.38-1.07c-.17-.38-.36-.76-.57-1.16a9.77,9.77,0,0,0-.7-1.13l1.95-1.92a9.93,9.93,0,0,1,.88,1.46,12.06,12.06,0,0,1,.64,1.5,11.2,11.2,0,0,1,.41,1.43A5.87,5.87,0,0,1,777.49,956.2Z"/><path class="cls-2" d="M790.85,954.19a4.91,4.91,0,0,1-.51,2.4A3.52,3.52,0,0,1,789,958a5.91,5.91,0,0,1-2,.67,18,18,0,0,1-2.51.17,7.4,7.4,0,0,1-2.33-.33,4.31,4.31,0,0,1-1.78-1.18l1.16-2.19a5,5,0,0,0,3,.81,11,11,0,0,0,3.19-.36c.75-.24,1.13-.63,1.13-1.15q0-2.16-4.58-5.14l1.13-2.74a16.48,16.48,0,0,1,1.94,1.4,12.69,12.69,0,0,1,1.77,1.82,10.66,10.66,0,0,1,1.28,2.13A5.61,5.61,0,0,1,790.85,954.19Z"/><path class="cls-2" d="M806.63,967.14a8.43,8.43,0,0,1-2.87-.47,6.08,6.08,0,0,1-2.22-1.35,6.32,6.32,0,0,1-1.43-2.16,7.79,7.79,0,0,1-.51-2.91,8.29,8.29,0,0,1,.41-2.58,13.32,13.32,0,0,1,1.17-2.55l1.83.73a5,5,0,0,0-.46.93c-.14.35-.26.71-.37,1.07s-.19.7-.25,1a6,6,0,0,0-.08.85q0,4.6,5.16,4.61a12.25,12.25,0,0,0,2.41-.23,14.5,14.5,0,0,0,2-.56,8,8,0,0,0,1.39-.64,2,2,0,0,0,.61-.47.23.23,0,0,0-.16-.19l-.31-.1-2.53-.61a4.65,4.65,0,0,1-.82-.24,2.83,2.83,0,0,1-.69-.36,1.66,1.66,0,0,1-.48-.57,1.88,1.88,0,0,1-.17-.87c0-2.49,1.86-3.74,5.6-3.74h2.33v2.83h-1.34l-1.36,0h-1.21q-.56,0-.93,0c-.66.06-1,.2-1,.44a.27.27,0,0,0,.1.19,1.13,1.13,0,0,0,.48.19l2.65.61a3.77,3.77,0,0,1,1.41.66,1.66,1.66,0,0,1,.52,1.38,3,3,0,0,1-.89,2.12,7.5,7.5,0,0,1-2.23,1.6,13,13,0,0,1-2.89,1A13.18,13.18,0,0,1,806.63,967.14Z"/><path class="cls-2" d="M828,956.72a3.5,3.5,0,0,1-1.42,1.38,3.91,3.91,0,0,1-1.88.49,3.69,3.69,0,0,1-3.59-1.87,3.18,3.18,0,0,1-1.41,1.4,4,4,0,0,1-1.86.47h-1.66a.58.58,0,0,1-.49-.35,2.07,2.07,0,0,1-.21-1,2.17,2.17,0,0,1,.21-1.05.58.58,0,0,1,.49-.38h1.52a4.11,4.11,0,0,0,1-.12,2.73,2.73,0,0,0,.86-.35,1.78,1.78,0,0,0,.61-.61,1.72,1.72,0,0,0,.23-.9v-1.37l1.93-.5a14.84,14.84,0,0,0,.07,1.55,3.83,3.83,0,0,0,.31,1.21,1.72,1.72,0,0,0,.71.8,2.55,2.55,0,0,0,1.3.29,2.86,2.86,0,0,0,1.82-.55,2,2,0,0,0,.72-1.67v-1.13l1.92-.5q0,.84.06,1.56a3.36,3.36,0,0,0,.31,1.23,1.72,1.72,0,0,0,.73.78,2.66,2.66,0,0,0,1.35.28,2.09,2.09,0,0,0,1.3-.33,1,1,0,0,0,.43-.84,2.36,2.36,0,0,0-.16-.77,7.41,7.41,0,0,0-.41-.86c-.17-.29-.34-.57-.53-.85s-.36-.51-.54-.73l2-2.09a8,8,0,0,1,1.43,2.61,8.4,8.4,0,0,1,.4,2.46,4.4,4.4,0,0,1-1,2.95,3.65,3.65,0,0,1-2.74,1.25,3.45,3.45,0,0,1-.55,0l-.5-.05a3.88,3.88,0,0,1-1.65-.61A3.4,3.4,0,0,1,828,956.72Z"/><path class="cls-2" d="M844.3,956.2a6,6,0,0,1-.66,2.76,11,11,0,0,1-1.72,2.45,19.56,19.56,0,0,1-2.45,2.2q-1.4,1-2.82,2l-1.95-1.81c.89-.58,1.78-1.18,2.65-1.81a29.27,29.27,0,0,0,2.37-1.85,10.73,10.73,0,0,0,1.69-1.81,2.85,2.85,0,0,0,.64-1.64,3.26,3.26,0,0,0-.13-.85,8.72,8.72,0,0,0-.38-1.07c-.17-.38-.36-.76-.57-1.16a9.77,9.77,0,0,0-.7-1.13l2-1.92a9.93,9.93,0,0,1,.88,1.46,12.06,12.06,0,0,1,.64,1.5,11.2,11.2,0,0,1,.41,1.43A5.87,5.87,0,0,1,844.3,956.2Z"/><path class="cls-2" d="M854.13,958.59H853a3.66,3.66,0,0,1-3.53-2,6.68,6.68,0,0,1-.64-2,17.44,17.44,0,0,1-.21-2.25c0-2.06-.08-4.19-.13-6.37s-.16-4.34-.33-6.44l2.42-1.14q0,2.66.1,6.09t.16,7.1c0,.47,0,1,.07,1.46a4.75,4.75,0,0,0,.33,1.37,2.45,2.45,0,0,0,.74,1,2.11,2.11,0,0,0,1.37.41h.82Z"/><path class="cls-2" d="M854.13,958.59a.59.59,0,0,1-.5-.35,2.19,2.19,0,0,1-.2-1,2.3,2.3,0,0,1,.2-1.05c.14-.25.3-.38.5-.38H857a13.05,13.05,0,0,0,1.41-.07,7.72,7.72,0,0,0,1.23-.23,2.94,2.94,0,0,0,.87-.41.93.93,0,0,0,.4-.57,3.2,3.2,0,0,0,0-.94,4.25,4.25,0,0,1-1.16.41,5.54,5.54,0,0,1-1.15.12,2.87,2.87,0,0,1-2.11-.8,2.9,2.9,0,0,1-.81-2.15,5.73,5.73,0,0,1,.27-1.73,4.89,4.89,0,0,1,.74-1.52,4.14,4.14,0,0,1,1.14-1.07,2.73,2.73,0,0,1,1.47-.4,2.37,2.37,0,0,1,1.81.75,5.5,5.5,0,0,1,1.11,1.87,10.47,10.47,0,0,1,.55,2.35,18.6,18.6,0,0,1,.15,2.2,4.6,4.6,0,0,1-1.5,3.84,6.79,6.79,0,0,1-4.28,1.18ZM859,944.32l-2-1.72,1.6-1.89,2,1.69Zm-.09,7.36a2.82,2.82,0,0,0,1.75-.53,5.8,5.8,0,0,0-.62-1.59,1.18,1.18,0,0,0-1-.65,1.25,1.25,0,0,0-1,.51,1.69,1.69,0,0,0-.41,1.06,1.12,1.12,0,0,0,.36.86A1.42,1.42,0,0,0,858.91,951.68Z"/><path class="cls-2" d="M882.11,954.3a3.31,3.31,0,0,1-.19,1,3.83,3.83,0,0,1-.54,1,3.15,3.15,0,0,1-.84.79,1.86,1.86,0,0,1-1.09.32h-3.68a1.87,1.87,0,0,0-1,.24,1.58,1.58,0,0,0-.57.65,2.73,2.73,0,0,0-.25,1c0,.4,0,.85,0,1.33v9.92h-2c0-2.27-.07-4.07-.09-5.38s0-2.32,0-3,0-1.14,0-1.35v-.44a9.35,9.35,0,0,1,.61-3.76,3,3,0,0,1,2-1.78,10.2,10.2,0,0,1,.14-1.65,7.13,7.13,0,0,1,.5-1.74,4,4,0,0,1,.93-1.36,2.11,2.11,0,0,1,1.46-.53,4,4,0,0,1,1.74.42,5.8,5.8,0,0,1,2.62,2.59A3.74,3.74,0,0,1,882.11,954.3Zm-2.22.15a1.67,1.67,0,0,0-.26-.67,3.88,3.88,0,0,0-.59-.72,3.94,3.94,0,0,0-.77-.57,1.77,1.77,0,0,0-.83-.23.74.74,0,0,0-.57.22,1.46,1.46,0,0,0-.35.57,3.39,3.39,0,0,0-.19.79,6.36,6.36,0,0,0-.06.87c.23,0,.49,0,.76,0l.8,0h1.3C879.62,954.77,879.87,954.66,879.89,954.45Z"/><path class="cls-2" d="M893.69,955a8.45,8.45,0,0,1-.69,3.46,10.75,10.75,0,0,1-1.82,2.84,15.38,15.38,0,0,1-2.64,2.35,28.79,28.79,0,0,1-3.14,1.94l-1.89-1.78c.64-.37,1.38-.81,2.21-1.32a26.67,26.67,0,0,0,2.44-1.7,16.89,16.89,0,0,0,2.09-1.91,4.46,4.46,0,0,0,1.13-2,2.4,2.4,0,0,1-.71.29,4.82,4.82,0,0,1-1.33.15,3.71,3.71,0,0,1-2.29-.7,2.59,2.59,0,0,1-.92-2.19,6.6,6.6,0,0,1,.25-1.75,6.28,6.28,0,0,1,.73-1.72,4.54,4.54,0,0,1,1.15-1.3,2.44,2.44,0,0,1,1.52-.51,2.79,2.79,0,0,1,1.73.55,4.49,4.49,0,0,1,1.23,1.4,6.72,6.72,0,0,1,.71,1.88A9.06,9.06,0,0,1,893.69,955Zm-2.34-.73a3.49,3.49,0,0,0-.58-1.68,1.45,1.45,0,0,0-1.23-.65,1.24,1.24,0,0,0-1,.57,1.88,1.88,0,0,0-.4,1.09c0,.74.51,1.11,1.54,1.11a3.92,3.92,0,0,0,.89-.1A2.3,2.3,0,0,0,891.35,954.3Z"/><path class="cls-2" d="M907.08,954.19a4.91,4.91,0,0,1-.51,2.4,3.52,3.52,0,0,1-1.39,1.42,5.91,5.91,0,0,1-2,.67,17.9,17.9,0,0,1-2.51.17,7.4,7.4,0,0,1-2.33-.33,4.38,4.38,0,0,1-1.78-1.18l1.16-2.19a5,5,0,0,0,3,.81,11,11,0,0,0,3.19-.36c.75-.24,1.13-.63,1.13-1.15q0-2.16-4.58-5.14l1.13-2.74a15.7,15.7,0,0,1,1.94,1.4,12.18,12.18,0,0,1,1.77,1.82,10.66,10.66,0,0,1,1.28,2.13A5.61,5.61,0,0,1,907.08,954.19Z"/><path class="cls-2" d="M928.9,948.44c.08-1.58.29-2.48.64-2.72q2.31-1.58,5.17-3.15c1.9-1.05,4.07-2.11,6.5-3.2l-.35,2.94q-3.06,1.29-5.38,2.53c-1.55.82-2.9,1.62-4.07,2.37a38.74,38.74,0,0,1,3.56,3.36c1.13,1.2,2.32,2.42,3.59,3.64a5.62,5.62,0,0,0,1.59,1.2,3.57,3.57,0,0,0,1.53.35h1.37v2.83H941.8a6.52,6.52,0,0,1-1.8-.22,4.79,4.79,0,0,1-1.53-.77,11,11,0,0,1-1.62-1.52c-.57-.64-1.26-1.45-2.06-2.42a3.51,3.51,0,0,1-.11,1,3.72,3.72,0,0,1-.47,1.52,3.9,3.9,0,0,1-1,1.12,5.8,5.8,0,0,1-1.4.8,9,9,0,0,1-1.69.5q-1.38.28-2.85.45a26.28,26.28,0,0,1-2.93.16c-1,0-2.06,0-3.08-.13a9.76,9.76,0,0,1-2.74-.61,4.52,4.52,0,0,1-1.95-1.43,4.09,4.09,0,0,1-.75-2.61,5.7,5.7,0,0,1,.29-1.68,6,6,0,0,1,.85-1.68l1.75.65a5.11,5.11,0,0,0-.64,1.92,2.25,2.25,0,0,0,.29,1.28,2,2,0,0,0,1,.84,5.72,5.72,0,0,0,1.56.43,13.6,13.6,0,0,0,1.89.16l2,0a20.4,20.4,0,0,0,5.91-.7c1.5-.46,2.33-1.09,2.49-1.86a3.26,3.26,0,0,0-.41-1.27,7.58,7.58,0,0,0-.92-1.29,16.93,16.93,0,0,0-1.34-1.35Zm9.19-9.54q-1.92.93-4.11,2.16c-1.46.81-3,1.72-4.55,2.71l.23-1.66q2.54-1.67,4.65-2.88c1.41-.8,2.74-1.52,4-2.14Z"/><path class="cls-2" d="M943.05,958.59a.61.61,0,0,1-.5-.35,2.19,2.19,0,0,1-.2-1,2.3,2.3,0,0,1,.2-1.05c.14-.25.31-.38.5-.38h1.23a3.87,3.87,0,0,0,2-.47,1.75,1.75,0,0,0,.81-1.66v-1.22l1.95-.5a15.86,15.86,0,0,0,.07,1.62,3.19,3.19,0,0,0,.35,1.21,1.89,1.89,0,0,0,.82.76,3.49,3.49,0,0,0,1.47.26h1.14v2.83h-1.49c-1.77,0-3-.6-3.58-1.81a3.3,3.3,0,0,1-1.45,1.34,4.36,4.36,0,0,1-2,.47Zm5-9.42-2-1.72,1.6-1.9,2,1.69Z"/><path class="cls-2" d="M960.29,954.36q0,4.23-4.84,4.23h-2.54a.58.58,0,0,1-.49-.35,2.07,2.07,0,0,1-.21-1,2.13,2.13,0,0,1,.21-1.06.57.57,0,0,1,.49-.37h2.66c1.69,0,2.54-.39,2.54-1.17a2,2,0,0,0-.19-.74,8.06,8.06,0,0,0-.46-.86,9.26,9.26,0,0,0-.58-.86l-.58-.75,2-2.09a9.1,9.1,0,0,1,1.52,2.59A7.21,7.21,0,0,1,960.29,954.36Zm-5.48,7.12,2,1.63L955.22,965l-1.93-1.66Zm3.67,0,1.93,1.63L958.86,965l-2-1.66Z"/><path class="cls-2" d="M977.51,958.59h-1.2a4.63,4.63,0,0,1-1.2-.13,2.86,2.86,0,0,1-.9-.42,3.35,3.35,0,0,1-.74-.76,9,9,0,0,1-.69-1.11,5,5,0,0,1-.93,1.37,4.11,4.11,0,0,1-1.18.82,5.51,5.51,0,0,1-1.49.39,14.85,14.85,0,0,1-1.83.1,8,8,0,0,1-2.43-.32,4.1,4.1,0,0,1-1.74-1l1.26-2.33a3.59,3.59,0,0,0,1.1.52,6.82,6.82,0,0,0,1.38.24h1a11.71,11.71,0,0,0,2.56-.37,1.52,1.52,0,0,0,.9-.74,1.61,1.61,0,0,0,.23-.88,2.26,2.26,0,0,0-.1-.57c-.07-.24-.19-.61-.36-1.1s-.43-1.15-.76-1.95-.76-1.82-1.28-3.09l1.77-2,2.78,7.26a9.56,9.56,0,0,0,1.21,2.41,1.88,1.88,0,0,0,1.53.83h1.14Z"/><path class="cls-2" d="M980.74,955.76a2.48,2.48,0,0,1-1.48-2.3,4.2,4.2,0,0,1,.76-2.31,5.34,5.34,0,0,1,2.24-1.89l-.82-.56,1.14-2.48c1.09.76,2.12,1.52,3.1,2.28a21.67,21.67,0,0,1,2.56,2.33A10.57,10.57,0,0,1,990,953.3a5.72,5.72,0,0,1,.65,2.64,5.35,5.35,0,0,1-.14,1.18,3.36,3.36,0,0,1-.43,1.09,2.81,2.81,0,0,1-.79.82,2.12,2.12,0,0,1-1.18.32,3.48,3.48,0,0,1-1-.18,12.73,12.73,0,0,1-1.21-.43l-1.21-.54-1-.48a6.19,6.19,0,0,1-1.84.67,11.32,11.32,0,0,1-2.13.2h-2.18a.59.59,0,0,1-.5-.35,2.08,2.08,0,0,1-.2-1,2.18,2.18,0,0,1,.2-1.05c.14-.25.3-.38.5-.38Zm3.83-2.8a3,3,0,0,0-.34-1.39,1,1,0,0,0-.92-.62,1.5,1.5,0,0,0-.71.2,3,3,0,0,0-.67.51,2.85,2.85,0,0,0-.5.67,1.52,1.52,0,0,0-.19.72,1,1,0,0,0,.25.63,3.39,3.39,0,0,0,.58.55,4.56,4.56,0,0,0,.7.41,1.57,1.57,0,0,0,.63.16.7.7,0,0,0,.48-.19,1.83,1.83,0,0,0,.38-.48,2.47,2.47,0,0,0,.23-.6A2.37,2.37,0,0,0,984.57,953Zm1.69-.35a6,6,0,0,1-.23,1.81,3.46,3.46,0,0,1-.79,1.28,4.26,4.26,0,0,0,.58.34c.25.13.51.25.77.36s.51.22.73.3a2,2,0,0,0,.49.11.56.56,0,0,0,.53-.27,1.19,1.19,0,0,0,.17-.6,2.8,2.8,0,0,0-.7-1.68A14.21,14.21,0,0,0,986.26,952.61Z"/><path class="cls-2" d="M833.12,989.2a4.91,4.91,0,0,1-.51,2.4,3.63,3.63,0,0,1-1.38,1.42,6,6,0,0,1-2.05.67,17.8,17.8,0,0,1-2.51.17,7.4,7.4,0,0,1-2.33-.33,4.44,4.44,0,0,1-1.78-1.18l1.17-2.19a5,5,0,0,0,3,.81,11,11,0,0,0,3.2-.36c.75-.24,1.12-.63,1.12-1.15q0-2.16-4.58-5.14l1.14-2.74a16.48,16.48,0,0,1,1.94,1.4,12.11,12.11,0,0,1,1.76,1.82,10.26,10.26,0,0,1,1.29,2.13A5.6,5.6,0,0,1,833.12,989.2Z"/><path class="cls-2" d="M841.44,992.93a6.17,6.17,0,0,1-.72,2.65A10.63,10.63,0,0,1,839,998a19.48,19.48,0,0,1-2.41,2.15c-.89.68-1.8,1.33-2.74,1.95l-2-1.81c.89-.58,1.78-1.18,2.65-1.81s1.66-1.24,2.37-1.85a10.73,10.73,0,0,0,1.69-1.81,2.92,2.92,0,0,0,.64-1.65,3.25,3.25,0,0,0-.13-.84,8.72,8.72,0,0,0-.38-1.07c-.17-.38-.36-.76-.57-1.16a9.77,9.77,0,0,0-.7-1.13l1.95-1.95q.62,1,1.08,1.71a9,9,0,0,0,.91,1.18,3,3,0,0,0,.89.68,2.19,2.19,0,0,0,1,.22h1.08v2.83h-.93A3,3,0,0,1,841.44,992.93Z"/><path class="cls-2" d="M844.38,993.6a.58.58,0,0,1-.49-.35,2.07,2.07,0,0,1-.21-1,2.17,2.17,0,0,1,.21-1.05.58.58,0,0,1,.49-.38h1.23a3.91,3.91,0,0,0,2-.47,1.76,1.76,0,0,0,.8-1.66v-1.22l1.95-.5a15.66,15.66,0,0,0,.08,1.62,3,3,0,0,0,.35,1.21,1.81,1.81,0,0,0,.81.76,3.51,3.51,0,0,0,1.48.26h1.14v2.83h-1.49c-1.77,0-3-.6-3.59-1.81a3.2,3.2,0,0,1-1.45,1.34,4.32,4.32,0,0,1-2,.47Zm2.72,2.89,2,1.63-1.57,1.87-1.93-1.66Zm3.67,0,1.93,1.63-1.55,1.87-1.95-1.66Z"/><path class="cls-2" d="M855.7,983.45c.12-1.58.33-2.48.65-2.72q2.29-1.58,5.16-3.15c1.91-1.05,4.08-2.12,6.53-3.2l-.37,2.94c-2,.86-3.84,1.7-5.39,2.53s-2.89,1.61-4,2.37a13.67,13.67,0,0,1,3,3.28,6,6,0,0,1,.9,3,5,5,0,0,1-.45,2.15,4.45,4.45,0,0,1-1.26,1.59,5.69,5.69,0,0,1-1.86,1,7.73,7.73,0,0,1-2.29.33h-2a.58.58,0,0,1-.49-.35,2.07,2.07,0,0,1-.21-1,2.17,2.17,0,0,1,.21-1.05.58.58,0,0,1,.49-.38h2.28a5.27,5.27,0,0,0,2.49-.49,1.75,1.75,0,0,0,1-1.43,2.78,2.78,0,0,0-.38-1.27,7.14,7.14,0,0,0-.93-1.29,17.39,17.39,0,0,0-1.36-1.35C856.84,984.47,856.29,984,855.7,983.45Zm9.22-9.54q-1.92.93-4.13,2.16c-1.46.81-3,1.72-4.53,2.71l.2-1.66q2.53-1.67,4.67-2.88c1.42-.8,2.75-1.52,4-2.14Z"/><path class="cls-2" d="M873.65,1002.15a8.53,8.53,0,0,1-2.88-.47,5.9,5.9,0,0,1-3.64-3.51,7.59,7.59,0,0,1-.52-2.91,8.29,8.29,0,0,1,.41-2.58,14,14,0,0,1,1.17-2.55l1.84.73a5,5,0,0,0-.47.93c-.13.35-.26.71-.36,1.07a9,9,0,0,0-.25,1,4.92,4.92,0,0,0-.09.85q0,4.6,5.17,4.61a12.22,12.22,0,0,0,2.4-.23,15.1,15.1,0,0,0,2-.56,8.27,8.27,0,0,0,1.38-.64,1.9,1.9,0,0,0,.61-.47.21.21,0,0,0-.16-.19l-.3-.1-2.54-.61a5.21,5.21,0,0,1-.82-.24,2.6,2.6,0,0,1-.68-.36,1.47,1.47,0,0,1-.48-.57,1.87,1.87,0,0,1-.18-.87q0-3.74,5.6-3.74h2.34v2.83h-1.35l-1.35,0h-1.21c-.37,0-.68,0-.94,0-.66.06-1,.2-1,.44a.27.27,0,0,0,.1.19,1.13,1.13,0,0,0,.48.19l2.66.61a3.72,3.72,0,0,1,1.4.66,1.67,1.67,0,0,1,.53,1.38,3,3,0,0,1-.89,2.12,7.55,7.55,0,0,1-2.24,1.6,12.65,12.65,0,0,1-2.89,1A13.17,13.17,0,0,1,873.65,1002.15Z"/><path class="cls-2" d="M883.19,993.6a.58.58,0,0,1-.52-.36,2.43,2.43,0,0,1-.18-1,2.48,2.48,0,0,1,.18-1.05.59.59,0,0,1,.52-.38h.43a10.26,10.26,0,0,0,2.1-.2,2.17,2.17,0,0,0,1.46-1.17c.33-.58.66-1.15,1-1.69a11.44,11.44,0,0,1,1-1.45,5.35,5.35,0,0,1,1.05-1,2.05,2.05,0,0,1,1.15-.36,2.32,2.32,0,0,1,1.52.52,4.23,4.23,0,0,1,1.08,1.36,6.65,6.65,0,0,1,.64,1.82,9.4,9.4,0,0,1,.21,2,3.44,3.44,0,0,1-.19,1,3.55,3.55,0,0,1-.53,1,2.85,2.85,0,0,1-.8.75,1.87,1.87,0,0,1-1,.29,4,4,0,0,1-1-.15,6.79,6.79,0,0,1-1.15-.39,8.66,8.66,0,0,1-1.14-.57,8,8,0,0,1-1-.64,4.73,4.73,0,0,1-1.74,1.31,5.87,5.87,0,0,1-2.23.38Zm9.48-3.3a3.62,3.62,0,0,0-.13-.9,4.31,4.31,0,0,0-.34-.85,2.07,2.07,0,0,0-.5-.62,1,1,0,0,0-.58-.28.51.51,0,0,0-.29,0c-.49.17-1,.87-1.58,2.1a3.24,3.24,0,0,0,.67.44c.28.13.55.26.84.38a8.39,8.39,0,0,0,.8.27,2.38,2.38,0,0,0,.61.1.48.48,0,0,0,.34-.14A.73.73,0,0,0,892.67,990.3Z"/><path class="cls-2" d="M908.57,991.21a6,6,0,0,1-.66,2.76,11,11,0,0,1-1.72,2.45,19.56,19.56,0,0,1-2.45,2.2c-.93.7-1.86,1.37-2.82,2L899,998.82c.89-.58,1.78-1.18,2.65-1.81a29.27,29.27,0,0,0,2.37-1.85,10.73,10.73,0,0,0,1.69-1.81,2.85,2.85,0,0,0,.64-1.64,3.26,3.26,0,0,0-.13-.85,7.32,7.32,0,0,0-.38-1.07,12.37,12.37,0,0,0-.57-1.16,9.77,9.77,0,0,0-.7-1.13l2-1.92a10.23,10.23,0,0,1,.87,1.46,12.06,12.06,0,0,1,.64,1.5,11.2,11.2,0,0,1,.41,1.43A5.87,5.87,0,0,1,908.57,991.21Z"/><path class="cls-2" d="M914.78,993.11l-1.92.55-.47-19.23,2.39-1.11Z"/><path class="cls-2" d="M923.13,992.93a6.17,6.17,0,0,1-.72,2.65,10.63,10.63,0,0,1-1.72,2.38,19.48,19.48,0,0,1-2.41,2.15c-.89.68-1.81,1.33-2.74,1.95l-1.95-1.81c.89-.58,1.77-1.18,2.65-1.81a29,29,0,0,0,2.36-1.85,10.82,10.82,0,0,0,1.7-1.81,2.92,2.92,0,0,0,.64-1.65,3.75,3.75,0,0,0-.13-.84,8.72,8.72,0,0,0-.38-1.07c-.17-.38-.36-.76-.57-1.16a11.37,11.37,0,0,0-.7-1.13l2-1.95q.61,1,1.08,1.71a8.22,8.22,0,0,0,.91,1.18,2.86,2.86,0,0,0,.89.68,2.19,2.19,0,0,0,1,.22h1.08v2.83h-.93A3,3,0,0,1,923.13,992.93Z"/><path class="cls-2" d="M926.07,993.6a.58.58,0,0,1-.49-.35,2.07,2.07,0,0,1-.21-1,2.17,2.17,0,0,1,.21-1.05.58.58,0,0,1,.49-.38h2.86a13.11,13.11,0,0,0,1.42-.07,6.76,6.76,0,0,0,1.22-.24,2.88,2.88,0,0,0,.88-.4,1,1,0,0,0,.39-.57,2.62,2.62,0,0,0,0-.94,4.55,4.55,0,0,1-1.15.41,5.64,5.64,0,0,1-1.16.12,2.75,2.75,0,0,1-2.91-3,5.72,5.72,0,0,1,.26-1.73,4.89,4.89,0,0,1,.74-1.52,4.14,4.14,0,0,1,1.14-1.07,2.76,2.76,0,0,1,1.48-.4,2.35,2.35,0,0,1,1.8.75,5.5,5.5,0,0,1,1.11,1.87,10.48,10.48,0,0,1,.56,2.35,20.76,20.76,0,0,1,.14,2.2,4.6,4.6,0,0,1-1.5,3.84,6.76,6.76,0,0,1-4.27,1.18Zm3.12-14.24-2-1.63,1.52-1.84,2,1.64Zm1.67,7.33a2.84,2.84,0,0,0,1.75-.53,6.13,6.13,0,0,0-.63-1.59,1.17,1.17,0,0,0-1-.65,1.26,1.26,0,0,0-1,.51,1.69,1.69,0,0,0-.41,1.06,1.13,1.13,0,0,0,.37.86A1.41,1.41,0,0,0,930.86,986.69Zm1.95-7.33-1.95-1.63,1.57-1.84,1.93,1.64Z"/><path class="cls-2" d="M949.7,993.6h-1.16a3.66,3.66,0,0,1-3.53-2,6.43,6.43,0,0,1-.65-2,19.37,19.37,0,0,1-.2-2.25c0-2.06-.08-4.19-.13-6.37s-.16-4.34-.34-6.44l2.42-1.14q0,2.65.11,6.09t.16,7.1c0,.47,0,1,.07,1.46a5.1,5.1,0,0,0,.32,1.37,2.47,2.47,0,0,0,.75,1,2.09,2.09,0,0,0,1.37.41h.81Z"/><path class="cls-2" d="M949.21,993.25a2.07,2.07,0,0,1-.21-1,2.17,2.17,0,0,1,.21-1.05.58.58,0,0,1,.49-.38h2a13.51,13.51,0,0,0,2.48-.2,9,9,0,0,0,1.88-.59c.57-.25,1.15-.54,1.75-.86s1.29-.67,2.08-1.06a13.76,13.76,0,0,1-1.32-.45l-1.33-.53-1.18-.44a3,3,0,0,0-.83-.19,1.56,1.56,0,0,0-.82.3,6.38,6.38,0,0,0-1.17,1l-1.6-.9a7.84,7.84,0,0,1,.71-1.06,12.49,12.49,0,0,1,.88-1,4.47,4.47,0,0,1,1-.76,2,2,0,0,1,1-.29,4.79,4.79,0,0,1,1.82.41l2.15.89a24.53,24.53,0,0,0,2.56.89,11.27,11.27,0,0,0,3.12.41h.56l-.58,2.56a10.12,10.12,0,0,0-1.58.12,10,10,0,0,0-1.43.32,1.86,1.86,0,0,0,1.14,1.18,6.34,6.34,0,0,0,1.84.22h2.27v2.83h-2.48a8,8,0,0,1-1.59-.14,3,3,0,0,1-1.15-.53,3.24,3.24,0,0,1-.86-1,10.89,10.89,0,0,1-.72-1.66,20.9,20.9,0,0,0-2,1.21,20.59,20.59,0,0,1-1.78,1.08,8.92,8.92,0,0,1-2,.77,11.69,11.69,0,0,1-2.8.29H949.7A.58.58,0,0,1,949.21,993.25Zm7,6.77-2-1.72,1.6-1.93,2,1.72Z"/><path class="cls-2" d="M967.06,993.6a.58.58,0,0,1-.49-.35,2.07,2.07,0,0,1-.21-1,2.17,2.17,0,0,1,.21-1.05.58.58,0,0,1,.49-.38h1.23a3.87,3.87,0,0,0,2-.47,1.75,1.75,0,0,0,.81-1.66v-1.22l2-.5c0,.6,0,1.14.07,1.62a3.19,3.19,0,0,0,.35,1.21,1.89,1.89,0,0,0,.82.76,3.49,3.49,0,0,0,1.47.26h1.14v2.83h-1.49c-1.77,0-3-.6-3.58-1.81a3.25,3.25,0,0,1-1.45,1.34,4.36,4.36,0,0,1-2,.47Zm5-9.42-2-1.72,1.6-1.9,2,1.69Z"/><path class="cls-2" d="M984.3,989.37q0,4.23-4.84,4.23h-2.54a.58.58,0,0,1-.49-.35,2.07,2.07,0,0,1-.21-1,2.13,2.13,0,0,1,.21-1.06.57.57,0,0,1,.49-.37h2.66c1.69,0,2.54-.39,2.54-1.17a2,2,0,0,0-.19-.74,8.06,8.06,0,0,0-.46-.86,9.26,9.26,0,0,0-.58-.86l-.58-.75,2-2.1a9.29,9.29,0,0,1,1.52,2.6A7.21,7.21,0,0,1,984.3,989.37Zm-5.48,7.12,2,1.63-1.57,1.87-1.93-1.66Zm3.67,0,1.93,1.63-1.55,1.87-2-1.66Z"/><path class="cls-2" d="M990.61,993.11l-1.93.55-.47-19.23,2.4-1.11Z"/><path class="cls-2" d="M776.52,811a14.78,14.78,0,0,1-5.16-.87,11.6,11.6,0,0,1-4.09-2.57,12.14,12.14,0,0,1-2.71-4.17,15.46,15.46,0,0,1-1-5.75,16.41,16.41,0,0,1,.87-5.46,29.51,29.51,0,0,1,2.57-5.28l4.14,1.64a25.44,25.44,0,0,0-1.92,4.58,12.76,12.76,0,0,0-.59,3.47,7.28,7.28,0,0,0,2.28,5.75,8.93,8.93,0,0,0,6.13,2q4.73,0,7.29-2.66t2.57-8.43c0-1,0-2.71-.09-5s-.14-4.89-.23-7.85-.19-6.11-.27-9.48-.13-6.68-.17-10l5.48-2.62.41,34.66q0,9-4.08,13.48T776.52,811Z"/><path class="cls-2" d="M807.5,782a6.53,6.53,0,0,1,3.56,1,8.54,8.54,0,0,1,2.66,2.72,13.45,13.45,0,0,1,1.63,4,19.58,19.58,0,0,1,.56,4.7,16.5,16.5,0,0,1-1.11,6.13,20.11,20.11,0,0,1-3.15,5.31,30.8,30.8,0,0,1-4.9,4.75,65.24,65.24,0,0,1-6.42,4.41l-4.5-4.2q2.8-1.63,5.29-3.27t4.43-3.21a40.85,40.85,0,0,0,3.36-3,11,11,0,0,0,2-2.6,7.24,7.24,0,0,1-2.63.79c-.93.09-1.61.14-2,.14a7,7,0,0,1-4.7-1.63,6.12,6.12,0,0,1-1.89-4.9,14.23,14.23,0,0,1,.58-4,13,13,0,0,1,1.64-3.56,9,9,0,0,1,2.5-2.54A5.66,5.66,0,0,1,807.5,782Zm-.52,6.13a2.4,2.4,0,0,0-1.2.32,2.91,2.91,0,0,0-.93.85,5,5,0,0,0-.61,1.1,2.93,2.93,0,0,0-.24,1.11,1.82,1.82,0,0,0,.79,1.52,3.63,3.63,0,0,0,2.19.58,10.06,10.06,0,0,0,2.19-.23,8,8,0,0,0,1.72-.53,7.61,7.61,0,0,0-1.37-3.38A3.09,3.09,0,0,0,807,788.11Z"/><path class="cls-2" d="M828.39,801.24l-5.48,1.22V764l5.48-2.62Z"/><path class="cls-2" d="M894,802.17a10.39,10.39,0,0,1-2.92-.38,9.21,9.21,0,0,1-2.6-1.28,18.8,18.8,0,0,1-2.8-2.45c-1-1-2.15-2.33-3.47-3.88a10.69,10.69,0,0,1-.88,2.33,7.26,7.26,0,0,1-3,3.5,17.66,17.66,0,0,1-4.87,2.07,33.29,33.29,0,0,1-5.66,1c-2,.17-3.77.26-5.4.26q-3.21,0-6.21-.26a17.86,17.86,0,0,1-5.31-1.23,8.44,8.44,0,0,1-3.68-2.83,8.32,8.32,0,0,1-1.37-5,12.56,12.56,0,0,1,.58-3.41,18.65,18.65,0,0,1,1.75-4.06l4.15,1.46a18.09,18.09,0,0,0-1.05,2.8,7.87,7.87,0,0,0-.3,2,2.33,2.33,0,0,0,1,1.93,6.72,6.72,0,0,0,2.65,1.17,23.89,23.89,0,0,0,3.91.55c1.48.1,3.07.15,4.79.15,1.43,0,3-.06,4.55-.18a35.44,35.44,0,0,0,4.55-.61,17.82,17.82,0,0,0,3.79-1.17,4.88,4.88,0,0,0,2.28-1.78,8.34,8.34,0,0,0-.88-2.33,14,14,0,0,0-1.81-2.48,38.42,38.42,0,0,0-2.86-2.86l-4-3.59a28.11,28.11,0,0,1,.58-4.2,3.24,3.24,0,0,1,1-1.87q4-2.68,10-5.89t13.39-6.59l-.88,7.06q-5.41,2.33-10.15,4.75t-7.7,4.23q3.49,3.15,7,6.83t6.83,7a9.46,9.46,0,0,0,2.62,2,6.19,6.19,0,0,0,2.57.55h2.63v6.71Zm-6.31-38.63c-2.56,1.25-5.3,2.67-8.19,4.26s-6,3.43-9.19,5.49l.52-4.15q4.73-3.15,9.13-5.63t8.26-4.4Z"/><path class="cls-2" d="M913.17,802.17a9.29,9.29,0,0,1-4-.76,6.45,6.45,0,0,1-2.75-2.51,7.44,7.44,0,0,1-2.91,2.48,9.87,9.87,0,0,1-4.2.79h-2.51q-.65,0-1.05-.9a6,6,0,0,1-.41-2.43,6.25,6.25,0,0,1,.41-2.45q.4-.93,1.05-.93h2.39a16.16,16.16,0,0,0,2.42-.15,3.57,3.57,0,0,0,1.58-.58,2.56,2.56,0,0,0,.9-1.22,7.07,7.07,0,0,0,.35-2V789l4.84-1.22a36.12,36.12,0,0,0,.15,3.61,6.69,6.69,0,0,0,.61,2.37,2.69,2.69,0,0,0,1.34,1.28,6.24,6.24,0,0,0,2.4.38h2.74v6.71Zm-6.59-17.5-4.43-3.74,3.56-4.2,4.43,3.73Z"/><path class="cls-2" d="M914.81,813.9l-4.26-3.62,3.38-4,4.32,3.55Zm9.1-20a3,3,0,0,0-.26-1,13.19,13.19,0,0,0-.76-1.48c-.33-.57-.7-1.16-1.11-1.79s-.84-1.22-1.31-1.8l4.37-4.61a18.67,18.67,0,0,1,3.27,5.39,14.32,14.32,0,0,1,1,5q0,4.2-2.33,6.39t-7.18,2.19h-3.09q-.64,0-1-.9a6,6,0,0,1-.41-2.43,6.25,6.25,0,0,1,.41-2.45q.4-.93,1-.93h3.09a10.29,10.29,0,0,0,3.09-.38Q923.91,794.71,923.91,793.88Zm-1.63,20L918,810.28l3.38-4,4.26,3.55Z"/><path class="cls-2" d="M960.21,802.17a9.62,9.62,0,0,1-2.19-.23,6,6,0,0,1-1.72-.7,5.32,5.32,0,0,1-1.4-1.26,16.22,16.22,0,0,1-1.35-2,8.16,8.16,0,0,1-4,3.79,16.61,16.61,0,0,1-5.92.93,13.18,13.18,0,0,1-4.67-.75,11.3,11.3,0,0,1-4-2.8l2.92-5.08a8.86,8.86,0,0,0,2.74,1.46,11.6,11.6,0,0,0,3.5.46,13.92,13.92,0,0,0,4.84-.7c1.25-.46,1.87-1.12,1.87-2a8.3,8.3,0,0,0-.5-2.1c-.33-1-.73-2.14-1.22-3.38s-1-2.55-1.61-3.91-1.12-2.63-1.63-3.8l4.38-4.61L955.65,790c.35,1,.67,1.85,1,2.53a8.31,8.31,0,0,0,.93,1.7,3,3,0,0,0,1.14,1,4,4,0,0,0,1.63.29h2.34v6.71Z"/><path class="cls-2" d="M969.42,782.33l2.57-5.25q4.38,3,7.62,5.37a39.88,39.88,0,0,1,5.33,4.61,17.08,17.08,0,0,1,3.16,4.46,11.36,11.36,0,0,1,1,4.87,10.47,10.47,0,0,1-.32,2.51,6.78,6.78,0,0,1-1,2.28,5.94,5.94,0,0,1-1.72,1.63,4.44,4.44,0,0,1-2.42.65,7.44,7.44,0,0,1-1.87-.3,24.5,24.5,0,0,1-2.36-.76c-.84-.31-1.68-.66-2.54-1s-1.63-.75-2.33-1.1a9.71,9.71,0,0,1-3.88,1.54,24.76,24.76,0,0,1-4.17.38h-3.85c-.43,0-.78-.3-1.06-.9a6.06,6.06,0,0,1-.4-2.43,6.27,6.27,0,0,1,.4-2.45c.28-.62.63-.93,1.06-.93h3.9c.55,0,1.11,0,1.7-.06a5.33,5.33,0,0,1-1.9-2.07,5.11,5.11,0,0,1-.44-2,8.9,8.9,0,0,1,1.29-4.38,9.4,9.4,0,0,1,3.67-3.62Zm5.14,4.38a3,3,0,0,0-1.46.41,5.69,5.69,0,0,0-1.37,1,6.26,6.26,0,0,0-1,1.31,2.72,2.72,0,0,0-.41,1.34,1.85,1.85,0,0,0,.41,1.08,4.16,4.16,0,0,0,1,1,10.51,10.51,0,0,0,1.4.82,8,8,0,0,0,1.4.56,2.71,2.71,0,0,0,1.52-1.23,3.86,3.86,0,0,0,.64-2.1,6.1,6.1,0,0,0-.67-3C975.6,787.1,975.1,786.71,974.56,786.71Zm5.66,3.21a5.52,5.52,0,0,1,.06.81v.82a8.78,8.78,0,0,1-.59,2.45,5.3,5.3,0,0,1-1.28,1.93,8.78,8.78,0,0,0,1.23.61l1.51.64c.51.22,1,.39,1.4.53a3.75,3.75,0,0,0,.94.2.9.9,0,0,0,.78-.55,2.19,2.19,0,0,0,.32-1.14,6.12,6.12,0,0,0-.9-2.86A11.25,11.25,0,0,0,980.22,789.92Z"/><path class="cls-2" d="M479.53,863.26a10.35,10.35,0,0,1-1,4.85,7.65,7.65,0,0,1-2.66,2.91,10.11,10.11,0,0,1-3.91,1.4,29.68,29.68,0,0,1-4.7.35,14.33,14.33,0,0,1-4.84-.73,10.83,10.83,0,0,1-4.08-2.83l2.91-5.07a9.68,9.68,0,0,0,2.81,1.46,11.56,11.56,0,0,0,3.5.46,16.41,16.41,0,0,0,5.28-.67c1.26-.44,1.89-1,1.89-1.72q0-1.45-2.1-4a32.38,32.38,0,0,0-6.88-5.66l2.62-6.24a30.15,30.15,0,0,1,4.06,3,25,25,0,0,1,3.59,3.76,20,20,0,0,1,2.54,4.29A11.31,11.31,0,0,1,479.53,863.26Z"/><path class="cls-2" d="M500.13,872.19a11,11,0,0,1-1.87-.15,3.32,3.32,0,0,1-1.64-.78,12.39,12.39,0,0,1-1.51,4.52A21.69,21.69,0,0,1,492,880a38.12,38.12,0,0,1-4.53,4c-1.73,1.32-3.58,2.62-5.57,3.91l-4.49-4.26c2.14-1.29,4.1-2.57,5.89-3.86a43.73,43.73,0,0,0,4.55-3.67,21,21,0,0,0,2.92-3.27,4.9,4.9,0,0,0,1-2.68,8.67,8.67,0,0,0-1-3.36,35.28,35.28,0,0,0-2.68-4.58l4.43-4.43c.82,1.4,1.53,2.58,2.13,3.56a21,21,0,0,0,1.66,2.36,5.52,5.52,0,0,0,1.52,1.31,3.55,3.55,0,0,0,1.69.41h2.34v6.71Z"/><path class="cls-2" d="M518.16,872.19a9.31,9.31,0,0,1-4-.76,6.37,6.37,0,0,1-2.74-2.51,7.47,7.47,0,0,1-2.92,2.48,9.87,9.87,0,0,1-4.2.79h-2.51q-.65,0-1.05-.9a6,6,0,0,1-.41-2.42,6.27,6.27,0,0,1,.41-2.46q.41-.93,1.05-.93h2.39a16.16,16.16,0,0,0,2.42-.15,3.57,3.57,0,0,0,1.58-.58,2.5,2.5,0,0,0,.9-1.22,6.74,6.74,0,0,0,.35-2v-2.45l4.84-1.22c0,1.44.05,2.64.15,3.62a6.75,6.75,0,0,0,.61,2.36,2.69,2.69,0,0,0,1.34,1.28,6.08,6.08,0,0,0,2.4.38h2.74v6.71Zm-10.57,11.73-4.26-3.62,3.39-4,4.32,3.55Zm7.47,0-4.26-3.62,3.39-4,4.26,3.55Z"/><path class="cls-2" d="M537.88,862.21a10.1,10.1,0,0,1-.85,4.2,8.72,8.72,0,0,1-2.36,3.15,10.4,10.4,0,0,1-3.65,2,15.47,15.47,0,0,1-4.7.67h-4.78q-.64,0-1-.9a6,6,0,0,1-.41-2.42,6.27,6.27,0,0,1,.41-2.46q.4-.93,1-.93h5.08a10.87,10.87,0,0,0,4.46-.7,4.43,4.43,0,0,0,2.07-1.75,10.4,10.4,0,0,0-3-5.08,61.29,61.29,0,0,0-7.56-6.3,32.35,32.35,0,0,1,.55-4.2,3.15,3.15,0,0,1,1-1.87c1.28-.85,2.71-1.74,4.29-2.65s3.18-1.82,4.84-2.72,3.29-1.75,4.9-2.56,3.1-1.56,4.46-2.22l-.87,7.06q-3.79,1.69-6.94,3.33c-2.11,1.09-4.09,2.19-6,3.32Q537.88,856.33,537.88,862.21Zm2.51-28.06q-3.74,1.86-7.88,4.14t-8.75,5.25l.52-4.2c3-2,5.93-3.75,8.7-5.31s5.42-3,8-4.26Z"/><path class="cls-2" d="M574.4,872.19c-1.36,0-2.61-.1-3.76-.17s-1.95-.12-2.42-.12a4.33,4.33,0,0,0-1.66.23c-.33.16-.5.33-.5.53a.5.5,0,0,0,.23.44,4.59,4.59,0,0,0,1.05.32l4,.75a7.15,7.15,0,0,1,2.89,1.11,2.8,2.8,0,0,1,1,2.4,6.39,6.39,0,0,1-1.55,4.2,13,13,0,0,1-4,3.15,23.25,23.25,0,0,1-5.49,2,26.17,26.17,0,0,1-6,.7,17.27,17.27,0,0,1-5.63-.87,12.05,12.05,0,0,1-4.32-2.54,11.42,11.42,0,0,1-2.77-4.14,15.46,15.46,0,0,1-1-5.75,16.34,16.34,0,0,1,.87-5.49,31.81,31.81,0,0,1,2.57-5.31l4.14,1.7a26.18,26.18,0,0,0-1.92,4.55,12.55,12.55,0,0,0-.58,3.5,7.13,7.13,0,0,0,2.36,5.75c1.57,1.34,3.86,2,6.85,2a26.58,26.58,0,0,0,3.77-.26,29.25,29.25,0,0,0,3.21-.65,19.56,19.56,0,0,0,2.48-.81c.7-.29,1.24-.54,1.63-.73a4.32,4.32,0,0,0-1.87-.59l-3-.64A6.52,6.52,0,0,1,562,876.1a4,4,0,0,1-1.2-3.27,6.36,6.36,0,0,1,2.6-5.42q2.6-1.93,8.08-1.93h3.79v6.71Z"/><path class="cls-2" d="M590,854.28a5.08,5.08,0,0,1,3.12,1,8.63,8.63,0,0,1,2.34,2.68,14.77,14.77,0,0,1,1.49,3.71,16.54,16.54,0,0,1,.52,4.14,6.66,6.66,0,0,1-.46,2.39,8.85,8.85,0,0,1-1.23,2.22A6.45,6.45,0,0,1,594,872a3.82,3.82,0,0,1-2,.62,8.92,8.92,0,0,1-2.07-.27,17.69,17.69,0,0,1-4.7-1.77,16.75,16.75,0,0,1-2.16-1.41,8.18,8.18,0,0,1-3,2.34,10.22,10.22,0,0,1-3.86.64h-.93q-.65,0-1.05-1a6,6,0,0,1-.41-2.25,6.68,6.68,0,0,1,.41-2.36q.41-1.08,1.05-1.08h.7a13.24,13.24,0,0,0,3-.35,3.47,3.47,0,0,0,2.27-1.81c.62-1.17,1.26-2.29,1.93-3.38a21.68,21.68,0,0,1,2.07-2.89,10.57,10.57,0,0,1,2.24-2A4.51,4.51,0,0,1,590,854.28Zm-.58,6.18a2.58,2.58,0,0,0-1.81,1,11.24,11.24,0,0,0-1.81,2.85,9.14,9.14,0,0,0,1.34.88,12.53,12.53,0,0,0,1.55.7,10.68,10.68,0,0,0,1.55.44,7.73,7.73,0,0,0,1.34.14,1.64,1.64,0,0,0,.76-.23,1.14,1.14,0,0,0,.52-.53,6.61,6.61,0,0,0-.26-1.78,7,7,0,0,0-.76-1.69,5.2,5.2,0,0,0-1.11-1.28A2,2,0,0,0,589.4,860.46Z"/><path class="cls-2" d="M628.84,866.47a12.15,12.15,0,0,1-1.16,5.17,20.14,20.14,0,0,1-3.18,4.75,36.63,36.63,0,0,1-4.76,4.44,72.44,72.44,0,0,1-6,4.2l-4.49-4.26q3.21-1.93,5.89-3.85a45.06,45.06,0,0,0,4.55-3.68,20.56,20.56,0,0,0,2.92-3.27,4.9,4.9,0,0,0,1.05-2.68,5.26,5.26,0,0,0-.29-1.49,19.81,19.81,0,0,0-.79-2,20.39,20.39,0,0,0-1.2-2.22c-.46-.76-.95-1.51-1.46-2.25l4.38-4.37a27.3,27.3,0,0,1,3.47,6.39A15.54,15.54,0,0,1,628.84,866.47Z"/><path class="cls-2" d="M641.33,871.26l-5.49,1.22V834l5.49-2.62Z"/><path class="cls-2" d="M662.16,872.19a11.16,11.16,0,0,1-1.87-.15,3.25,3.25,0,0,1-1.63-.78,12.41,12.41,0,0,1-1.52,4.52A21.3,21.3,0,0,1,654,880a38,38,0,0,1-4.52,4q-2.6,2-5.57,3.91l-4.5-4.26c2.14-1.29,4.11-2.57,5.9-3.86a44.82,44.82,0,0,0,4.55-3.67,21.54,21.54,0,0,0,2.92-3.27,4.9,4.9,0,0,0,1.05-2.68,8.67,8.67,0,0,0-1.05-3.36,35.41,35.41,0,0,0-2.69-4.58l4.44-4.43c.81,1.4,1.52,2.58,2.13,3.56a19.79,19.79,0,0,0,1.66,2.36,5.25,5.25,0,0,0,1.52,1.31,3.52,3.52,0,0,0,1.69.41h2.33v6.71Z"/><path class="cls-2" d="M673.65,845.47a5.67,5.67,0,0,1,3.94,1.43,10.24,10.24,0,0,1,2.57,3.61,19.29,19.29,0,0,1,1.37,4.88,34.82,34.82,0,0,1,.41,5.19q0,6.12-2.89,8.87c-1.92,1.83-5,2.74-9.36,2.74h-5.84q-.65,0-1.05-.9a6,6,0,0,1-.41-2.42,6.27,6.27,0,0,1,.41-2.46q.41-.93,1.05-.93h5.95a19.44,19.44,0,0,0,4.29-.47A4.67,4.67,0,0,0,677,863.5a1.42,1.42,0,0,0,.2-.76c0-.35,0-.84,0-1.46a12.45,12.45,0,0,1-2.56.61,17.76,17.76,0,0,1-2.1.15q-6.54,0-6.54-6.89a11,11,0,0,1,.58-3.5,11.44,11.44,0,0,1,1.58-3.12,8.27,8.27,0,0,1,2.39-2.22A5.93,5.93,0,0,1,673.65,845.47Zm-4-3.68-4.26-3.56,3.38-4,4.32,3.5Zm3.44,9.45a2.48,2.48,0,0,0-2,1,3.53,3.53,0,0,0-.82,2.22,1.94,1.94,0,0,0,.64,1.43,3,3,0,0,0,2.1.61,10.44,10.44,0,0,0,2.16-.2,7.83,7.83,0,0,0,1.64-.5,7.5,7.5,0,0,0-1.35-3.29A2.86,2.86,0,0,0,673.07,851.24Zm4-9.45-4.26-3.56,3.38-4,4.26,3.5Z"/><path class="cls-2" d="M708.6,872.19a8.19,8.19,0,0,1-4.37-1,6.94,6.94,0,0,1-2.51-2.68,11.67,11.67,0,0,1-1.17-3.8,41.19,41.19,0,0,1-.35-4.34c-.08-1.79-.13-3.8-.17-6s-.09-4.5-.15-6.83-.14-4.67-.23-7-.23-4.52-.38-6.54l5.43-2.62c0,2.18,0,4.42,0,6.74s.06,4.62.12,6.91.12,4.57.18,6.83.1,4.39.14,6.42c0,.93,0,1.83.06,2.71a8.5,8.5,0,0,0,.41,2.33,3.22,3.22,0,0,0,1.14,1.61,3.93,3.93,0,0,0,2.36.58h2.33v6.71Z"/><path class="cls-2" d="M739.88,872.19a18.74,18.74,0,0,1-3.09-.23,5.94,5.94,0,0,1-2.34-.91,6.68,6.68,0,0,1-1.8-1.89,14,14,0,0,1-1.52-3.27l-3.82,2.54a29.11,29.11,0,0,1-3.48,2,17.65,17.65,0,0,1-3.7,1.31,19.08,19.08,0,0,1-4.52.47h-4.15q-.63,0-1.05-.9a6,6,0,0,1-.41-2.42,6.27,6.27,0,0,1,.41-2.46q.42-.93,1.05-.93h4.32a26.53,26.53,0,0,0,4.06-.26,15.39,15.39,0,0,0,3.15-.88,29.19,29.19,0,0,0,3.29-1.57c1.17-.65,2.65-1.43,4.44-2.37l-2.66-.81-2.42-.76c-.74-.23-1.38-.43-1.92-.58a4.91,4.91,0,0,0-1.23-.24,2.94,2.94,0,0,0-1.51.56,12.64,12.64,0,0,0-2.51,2.53L714.73,859a25.21,25.21,0,0,1,3.68-5.14,5.59,5.59,0,0,1,4-2.1,10.38,10.38,0,0,1,3.38.67l4.23,1.46c1.54.53,3.18,1,4.93,1.46a22.19,22.19,0,0,0,5.54.67h1.87l-1.28,5.95a18.85,18.85,0,0,0-3.3.41,14.85,14.85,0,0,0-2.89.93,8.26,8.26,0,0,0,1,1.29,2.74,2.74,0,0,0,.93.67,3.22,3.22,0,0,0,1.11.23c.41,0,.88,0,1.43,0H745v6.71Zm-15.7,11.55L719.75,880l3.56-4.2,4.43,3.73Z"/><path class="cls-2" d="M761.35,872.19a9.34,9.34,0,0,1-4-.76,6.49,6.49,0,0,1-2.74-2.51,7.44,7.44,0,0,1-2.91,2.48,9.89,9.89,0,0,1-4.21.79H745q-.63,0-1-.9a6,6,0,0,1-.4-2.42,6.29,6.29,0,0,1,.4-2.46q.42-.93,1-.93h2.4a16.16,16.16,0,0,0,2.42-.15,3.48,3.48,0,0,0,1.57-.58,2.58,2.58,0,0,0,.91-1.22,7.07,7.07,0,0,0,.35-2v-2.45l4.84-1.22c0,1.44,0,2.64.15,3.62a6.54,6.54,0,0,0,.61,2.36,2.69,2.69,0,0,0,1.34,1.28,6,6,0,0,0,2.39.38h2.75v6.71Zm-6.59-17.5L750.32,851l3.56-4.2,4.44,3.73Z"/><path class="cls-2" d="M763,883.92l-4.26-3.62,3.38-4,4.32,3.55Zm9.1-20a3,3,0,0,0-.26-1,13.19,13.19,0,0,0-.76-1.48c-.33-.57-.7-1.16-1.11-1.78s-.85-1.23-1.31-1.81l4.37-4.61a18.67,18.67,0,0,1,3.27,5.39,14.32,14.32,0,0,1,1.05,5q0,4.2-2.33,6.39t-7.18,2.19h-3.09q-.65,0-1-.9a6,6,0,0,1-.41-2.42,6.27,6.27,0,0,1,.41-2.46q.4-.93,1-.93h3.09a10.06,10.06,0,0,0,3.09-.38C771.7,864.85,772.09,864.45,772.09,863.91Zm-1.63,20-4.26-3.62,3.38-4,4.26,3.55Z"/><path class="cls-2" d="M789.77,871.26l-5.49,1.22V834l5.49-2.62Z"/><path class="cls-2" d="M821.39,866.47a12.15,12.15,0,0,1-1.16,5.17,20.14,20.14,0,0,1-3.18,4.75,36.63,36.63,0,0,1-4.76,4.44,72.44,72.44,0,0,1-5.95,4.2l-4.49-4.26q3.21-1.93,5.89-3.85a46.21,46.21,0,0,0,4.55-3.68,20.56,20.56,0,0,0,2.92-3.27,4.9,4.9,0,0,0,1-2.68,5.26,5.26,0,0,0-.29-1.49,19.81,19.81,0,0,0-.79-2,20.39,20.39,0,0,0-1.2-2.22c-.46-.76-1-1.51-1.46-2.25L816.9,855a27.3,27.3,0,0,1,3.47,6.39A15.54,15.54,0,0,1,821.39,866.47Z"/><path class="cls-2" d="M848.41,863.26a10.35,10.35,0,0,1-1,4.85,7.65,7.65,0,0,1-2.66,2.91,10.11,10.11,0,0,1-3.91,1.4,29.65,29.65,0,0,1-4.69.35,14.35,14.35,0,0,1-4.85-.73,10.83,10.83,0,0,1-4.08-2.83l2.92-5.07a9.51,9.51,0,0,0,2.8,1.46,11.56,11.56,0,0,0,3.5.46,16.41,16.41,0,0,0,5.28-.67c1.26-.44,1.89-1,1.89-1.72q0-1.45-2.1-4a32.38,32.38,0,0,0-6.88-5.66l2.62-6.24a30.15,30.15,0,0,1,4.06,3,25,25,0,0,1,3.59,3.76,20,20,0,0,1,2.54,4.29A11.31,11.31,0,0,1,848.41,863.26Z"/><path class="cls-2" d="M895.5,872.19c-1.37,0-2.62-.1-3.77-.17s-2-.12-2.42-.12a4.33,4.33,0,0,0-1.66.23c-.33.16-.5.33-.5.53a.49.49,0,0,0,.24.44,4.26,4.26,0,0,0,1.05.32l4,.75a7.15,7.15,0,0,1,2.89,1.11,2.8,2.8,0,0,1,1,2.4,6.43,6.43,0,0,1-1.54,4.2,13,13,0,0,1-4,3.15,23.17,23.17,0,0,1-5.48,2,26.32,26.32,0,0,1-6,.7,17.32,17.32,0,0,1-5.63-.87,12.05,12.05,0,0,1-4.32-2.54,11.42,11.42,0,0,1-2.77-4.14,15.46,15.46,0,0,1-1-5.75,16.09,16.09,0,0,1,.88-5.49,31.7,31.7,0,0,1,2.56-5.31l4.15,1.7a25.54,25.54,0,0,0-1.93,4.55,12.55,12.55,0,0,0-.58,3.5,7.17,7.17,0,0,0,2.36,5.75c1.58,1.34,3.86,2,6.86,2a26.54,26.54,0,0,0,3.76-.26,28.32,28.32,0,0,0,3.21-.65,19.56,19.56,0,0,0,2.48-.81c.7-.29,1.24-.54,1.63-.73a4.31,4.31,0,0,0-1.86-.59l-3-.64A6.61,6.61,0,0,1,883,876.1a4,4,0,0,1-1.2-3.27,6.36,6.36,0,0,1,2.6-5.42q2.59-1.93,8.08-1.93h3.79v6.71Z"/><path class="cls-2" d="M919.42,868.63a8.19,8.19,0,0,1-2.68,2.63,8,8,0,0,1-4.09.93,9.5,9.5,0,0,1-4-.73,6.07,6.07,0,0,1-2.66-2.77,7.07,7.07,0,0,1-2.77,2.68,7.25,7.25,0,0,1-3.36.82h-3.5q-.63,0-1-.9a6,6,0,0,1-.41-2.42,6.27,6.27,0,0,1,.41-2.46q.42-.93,1-.93h3.27a6.57,6.57,0,0,0,3.06-.67,2.42,2.42,0,0,0,1.32-2.36v-3.39l4.84-1.22c0,1.44.05,2.64.15,3.62a7,7,0,0,0,.58,2.36,2.63,2.63,0,0,0,1.22,1.28,4.74,4.74,0,0,0,2.08.38,8.62,8.62,0,0,0,2.3-.26,2.57,2.57,0,0,0,2-2.16,9.79,9.79,0,0,0,.18-2v-2l4.78-1.22a17,17,0,0,0,.73,5.8,3,3,0,0,0,3.12,1.84c2.3,0,3.45-.49,3.45-1.46a3.32,3.32,0,0,0-.27-1,10.83,10.83,0,0,0-.72-1.54c-.32-.57-.68-1.16-1.08-1.78a21.48,21.48,0,0,0-1.32-1.81l4.32-4.61a18.67,18.67,0,0,1,3.27,5.39,14.32,14.32,0,0,1,1,5,9.56,9.56,0,0,1-.64,3.53,7.59,7.59,0,0,1-1.81,2.72,8.32,8.32,0,0,1-2.74,1.72,9.58,9.58,0,0,1-3.51.61Q921.22,872.19,919.42,868.63Z"/><path class="cls-2" d="M952,866.47a12,12,0,0,1-1.17,5.17,20.14,20.14,0,0,1-3.18,4.75,36,36,0,0,1-4.76,4.44A72.44,72.44,0,0,1,937,885l-4.49-4.26q3.21-1.93,5.89-3.85a45.06,45.06,0,0,0,4.55-3.68,20.56,20.56,0,0,0,2.92-3.27,4.9,4.9,0,0,0,1-2.68,5.26,5.26,0,0,0-.29-1.49,17.66,17.66,0,0,0-.79-2,22.1,22.1,0,0,0-1.19-2.22c-.47-.76-1-1.51-1.46-2.25l4.37-4.37a27.38,27.38,0,0,1,3.48,6.39A15.54,15.54,0,0,1,952,866.47Z"/><path class="cls-2" d="M968.26,872.19a8.21,8.21,0,0,1-4.38-1,7,7,0,0,1-2.51-2.68,11.43,11.43,0,0,1-1.16-3.8,38.67,38.67,0,0,1-.36-4.34c-.07-1.79-.13-3.8-.17-6s-.09-4.5-.15-6.83-.13-4.67-.23-7-.22-4.52-.38-6.54l5.43-2.62c0,2.18,0,4.42,0,6.74s.06,4.62.11,6.91.12,4.57.18,6.83.11,4.39.14,6.42c0,.93,0,1.83.06,2.71a8.5,8.5,0,0,0,.41,2.33,3.28,3.28,0,0,0,1.14,1.61,3.93,3.93,0,0,0,2.36.58h2.34v6.71Z"/><path class="cls-2" d="M980.92,845.47a5.67,5.67,0,0,1,3.94,1.43,10.37,10.37,0,0,1,2.57,3.61,19.71,19.71,0,0,1,1.37,4.88,34.82,34.82,0,0,1,.41,5.19c0,4.08-1,7-2.89,8.87s-5.05,2.74-9.37,2.74h-5.83q-.64,0-1-.9a5.86,5.86,0,0,1-.41-2.42,6.09,6.09,0,0,1,.41-2.46q.4-.93,1-.93h6a19.44,19.44,0,0,0,4.29-.47,4.67,4.67,0,0,0,2.89-1.51,1.51,1.51,0,0,0,.2-.76c0-.35,0-.84,0-1.46a12.53,12.53,0,0,1-2.57.61,17.76,17.76,0,0,1-2.1.15q-6.54,0-6.53-6.89a11,11,0,0,1,.58-3.5,11.42,11.42,0,0,1,1.57-3.12,8.31,8.31,0,0,1,2.4-2.22A5.88,5.88,0,0,1,980.92,845.47Zm-.29-3.68-4.44-3.73,3.56-4.2,4.44,3.73Zm-.29,9.45a2.51,2.51,0,0,0-2.05,1,3.58,3.58,0,0,0-.81,2.22,1.9,1.9,0,0,0,.64,1.43,3,3,0,0,0,2.1.61,10.44,10.44,0,0,0,2.16-.2,7.73,7.73,0,0,0,1.63-.5,7.49,7.49,0,0,0-1.34-3.29A2.87,2.87,0,0,0,980.34,851.24Z"/><rect class="cls-3" x="949.33" y="913.23" width="43.2" height="4.32"/><path class="cls-2" d="M98.9,981.15l-9.08,11.14h9.32V994H87.53v-1.58l9.16-11.26H88v-1.67H98.9Z"/><path class="cls-2" d="M108.19,992.67a3.7,3.7,0,0,0,4-3.33l1.9.3a5,5,0,0,1-1.91,3.41,6.33,6.33,0,0,1-4,1.26,6.49,6.49,0,0,1-5.11-2,8.2,8.2,0,0,1-1.76-5.66,7.91,7.91,0,0,1,1.84-5.51,6.3,6.3,0,0,1,5-2.07,5.89,5.89,0,0,1,4.58,1.79,7.19,7.19,0,0,1,1.62,5v1.22H103.37C103.48,990.83,105.09,992.67,108.19,992.67Zm-.1-11.93a4.31,4.31,0,0,0-3.23,1.21,5.74,5.74,0,0,0-1.43,3.54h8.77Q112,980.74,108.09,980.74Z"/><path class="cls-2" d="M123.93,992.67a3.7,3.7,0,0,0,4-3.33l1.9.3a5,5,0,0,1-1.91,3.41,6.33,6.33,0,0,1-4,1.26,6.49,6.49,0,0,1-5.11-2,8.2,8.2,0,0,1-1.76-5.66,7.91,7.91,0,0,1,1.84-5.51,6.32,6.32,0,0,1,5-2.07,5.87,5.87,0,0,1,4.57,1.79,7.19,7.19,0,0,1,1.62,5v1.22H119.11C119.23,990.83,120.83,992.67,123.93,992.67Zm-.1-11.93A4.31,4.31,0,0,0,120.6,982a5.74,5.74,0,0,0-1.43,3.54h8.77Q127.73,980.74,123.83,980.74Z"/><path class="cls-2" d="M139.67,992.67a3.71,3.71,0,0,0,4-3.33l1.89.3a5,5,0,0,1-1.91,3.41,6.33,6.33,0,0,1-4,1.26,6.5,6.5,0,0,1-5.11-2,8.2,8.2,0,0,1-1.76-5.66,7.91,7.91,0,0,1,1.84-5.51,6.32,6.32,0,0,1,5-2.07,5.87,5.87,0,0,1,4.57,1.79,7.19,7.19,0,0,1,1.62,5v1.22H134.85C135,990.83,136.57,992.67,139.67,992.67Zm-.1-11.93a4.32,4.32,0,0,0-3.23,1.21,5.74,5.74,0,0,0-1.43,3.54h8.78Q143.46,980.74,139.57,980.74Z"/><path class="cls-2" d="M161.59,984.57V994h-2v-9a4.32,4.32,0,0,0-1-3,3.65,3.65,0,0,0-2.81-1.07,3.94,3.94,0,0,0-3.22,1.32,6,6,0,0,0-1.1,3.88V994h-2V979.45h2v1.93a5.17,5.17,0,0,1,4.65-2.27,5,5,0,0,1,5.45,5.46Z"/><path class="cls-2" d="M165.78,991.12h2.69V994h-2.69Z"/><path class="cls-2" d="M174.83,976.86h-2v-3.33h2Zm0,17.1h-2V979.45h2Z"/><path class="cls-2" d="M181.46,994h-2V979.45h2v2.84a4.6,4.6,0,0,1,4.32-2.84h1.08v1.93h-1.08a3.63,3.63,0,0,0-3.12,1.77,8.14,8.14,0,0,0-1.2,4.65Z"/><polygon class="cls-3" points="849.67 124.78 820.8 124.78 841.2 92.8 824.08 92.8 824.08 86.4 852.87 86.4 832.47 118.38 849.67 118.38 849.67 124.78"/><polygon class="cls-3" points="884.77 124.78 859.27 124.78 859.18 86.4 884.77 86.4 884.77 92.8 865.59 92.8 865.66 118.38 884.77 118.38 884.77 124.78"/><rect class="cls-3" x="862.39" y="102.39" width="22.39" height="6.4"/><polygon class="cls-3" points="920.04 124.78 894.45 124.78 894.45 86.4 920.04 86.4 920.04 92.8 900.85 92.8 900.85 118.38 920.04 118.38 920.04 124.78"/><rect class="cls-3" x="897.65" y="102.39" width="22.39" height="6.4"/><polygon class="cls-3" points="955.22 124.78 929.63 124.78 929.63 86.4 955.22 86.4 955.22 92.8 936.03 92.8 936.03 118.38 955.22 118.38 955.22 124.78"/><rect class="cls-3" x="932.83" y="102.39" width="22.39" height="6.4"/><polygon class="cls-3" points="993.6 124.78 987.23 124.78 971.21 98.65 971.21 124.78 964.81 124.78 964.81 86.4 971.21 86.4 987.2 112.5 987.2 86.4 993.6 86.4 993.6 124.78"/><rect class="cls-4" x="993.58" width="86.37" height="21.59"/><rect class="cls-4" x="993.58" y="64.78" width="86.37" height="21.59"/><rect class="cls-4" x="989.72" y="32.41" width="94.13" height="21.59" transform="translate(208.82 668.72) rotate(-39.46)"/><rect class="cls-4" width="86.37" height="21.59"/><rect class="cls-4" y="64.78" width="86.37" height="21.59"/><rect class="cls-4" x="-3.86" y="32.41" width="94.13" height="21.59" transform="translate(-17.61 37.3) rotate(-39.46)"/><rect class="cls-4" x="993.58" y="993.63" width="86.37" height="21.59"/><rect class="cls-4" x="993.58" y="1058.41" width="86.37" height="21.59"/><rect class="cls-4" x="989.72" y="1026.04" width="94.13" height="21.59" transform="translate(-422.62 895.16) rotate(-39.46)"/><rect class="cls-4" x="993.58" y="872.21" width="86.37" height="21.59"/><rect class="cls-4" x="993.58" y="936.98" width="86.37" height="21.59"/><rect class="cls-4" x="989.72" y="904.61" width="94.13" height="21.59" transform="translate(-345.46 867.49) rotate(-39.46)"/><rect class="cls-4" y="993.63" width="86.37" height="21.59"/><rect class="cls-4" y="1058.41" width="86.37" height="21.59"/><rect class="cls-4" x="-3.86" y="1026.04" width="94.13" height="21.59" transform="translate(-649.06 263.74) rotate(-39.46)"/><rect class="cls-5" y="85.87" width="1080" height="1"/><rect class="cls-6" y="993.13" width="1080" height="1"/><rect class="cls-7" y="871.69" width="1080" height="1"/><rect class="cls-8" y="958.09" width="1080" height="1"/><rect class="cls-9" y="914.87" width="1080" height="1"/><rect class="cls-10" x="993.13" width="1" height="1080"/><rect class="cls-11" x="85.87" width="1" height="1080"/></g></svg>