<svg xmlns="http://www.w3.org/2000/svg" viewBox="0 0 864 504"><defs><style>.cls-1{fill:#242323;}.cls-2{fill:#ff8672;}.cls-3{fill:#fff;}.cls-4{fill:#ff8873;}</style></defs><title>material-70</title><g id="Layer_1" data-name="Layer 1"><rect class="cls-1" x="145.08" y="144" width="574.92" height="72"/><rect class="cls-2" x="480" y="144" width="240" height="2.61"/><rect class="cls-1" x="144" y="288" width="576" height="72"/><path class="cls-3" d="M388.88,330c-.67,0-1-.37-1-1.11s.34-1.12,1-1.12,1,.37,1,1.12S389.55,330,388.88,330Z"/><path class="cls-3" d="M396,328.55a2.48,2.48,0,0,0,.78-.11,1.56,1.56,0,0,0,.51-.3,1.36,1.36,0,0,0,.3-.39,1,1,0,0,0,.09-.4,3,3,0,0,0-.08-.56c-.06-.24-.16-.59-.31-1.05s-.36-1.08-.63-1.85-.62-1.76-1.06-3l1.28-.53,2.25,6.41a3.13,3.13,0,0,0,.78,1.34,1.74,1.74,0,0,0,1.23.4h.3c.31,0,.46.24.46.71s-.15.74-.46.74h-.3a3.49,3.49,0,0,1-1.32-.26,2.63,2.63,0,0,1-1.15-1.15,2.28,2.28,0,0,1-1.11,1.14,3.75,3.75,0,0,1-1.43.27h-4.52l-.1-1.45Z"/><path class="cls-3" d="M402.2,328.55a2,2,0,0,0,1.37-.44,1.54,1.54,0,0,0,.49-1.22V324h1.37v2.9a1.67,1.67,0,0,0,.16.78,1.31,1.31,0,0,0,.42.51,1.58,1.58,0,0,0,.58.29,3,3,0,0,0,.67.08,2.27,2.27,0,0,0,1.5-.44,1.52,1.52,0,0,0,.51-1.22V324h1.37v2.9a1.47,1.47,0,0,0,.51,1.29,1.94,1.94,0,0,0,1.17.37,1.82,1.82,0,0,0,1.27-.44,1.6,1.6,0,0,0,.47-1.22V324h1.37v2.9a2.84,2.84,0,0,1-3.07,3.11,3.51,3.51,0,0,1-1.41-.28,2.26,2.26,0,0,1-1.07-1.09,2.42,2.42,0,0,1-1.16,1.09,3.87,3.87,0,0,1-1.46.28,3.73,3.73,0,0,1-1.49-.28,2.23,2.23,0,0,1-1.1-1.09,2.37,2.37,0,0,1-1.13,1.09,3.61,3.61,0,0,1-1.43.28h-.67a.39.39,0,0,1-.37-.17,1.15,1.15,0,0,1-.09-.52,1.38,1.38,0,0,1,.09-.57.37.37,0,0,1,.37-.19Zm7.26-7.24h-1.68v-1.5h1.68Zm1.35-2.52h-1.69v-1.47h1.69Zm1.32,2.52h-1.68v-1.5h1.68Z"/><path class="cls-3" d="M425.56,333.65a6.54,6.54,0,0,0,1.8-.21,3.76,3.76,0,0,0,1.19-.55,2.19,2.19,0,0,0,.66-.78,2.14,2.14,0,0,0,.2-.89,1.36,1.36,0,0,0-.27-.86,1,1,0,0,0-.89-.36h-3.5l.1-1.45h7.45c.31,0,.47.24.47.71s-.16.74-.47.74h-2.05a1.08,1.08,0,0,1,.36.57,2.48,2.48,0,0,1,.1.75,3.52,3.52,0,0,1-.24,1.22,3.46,3.46,0,0,1-.82,1.22,4.58,4.58,0,0,1-1.53.94,6.33,6.33,0,0,1-2.37.38h-2.1a4.64,4.64,0,0,1-3.65-1.45,5.7,5.7,0,0,1-1.3-4V326H420v3.63a5.61,5.61,0,0,0,.22,1.64,3.47,3.47,0,0,0,.69,1.27,3.27,3.27,0,0,0,1.19.83,4.46,4.46,0,0,0,1.72.29Z"/><path class="cls-3" d="M434.19,328.55a1.93,1.93,0,0,0,1.32-.44,1.54,1.54,0,0,0,.49-1.22V324h1.37v2.9a3.07,3.07,0,0,1-.83,2.3,3.11,3.11,0,0,1-2.26.81h-2a.37.37,0,0,1-.36-.17,1,1,0,0,1-.1-.52,1.21,1.21,0,0,1,.1-.57.35.35,0,0,1,.36-.19Zm2.61-7.24H435v-1.54h1.76Z"/><path class="cls-3" d="M442.26,330a3.3,3.3,0,0,1-1.05-.16,2.14,2.14,0,0,1-.89-.53,2.7,2.7,0,0,1-.62-1,4.31,4.31,0,0,1-.23-1.54V317h1.36v9.53a2.54,2.54,0,0,0,.39,1.46,1.41,1.41,0,0,0,1.27.58h.36c.3,0,.46.24.46.71s-.16.74-.46.74Z"/><path class="cls-3" d="M443.6,328.55a2,2,0,0,0,1.38-.44,1.54,1.54,0,0,0,.49-1.22V324h1.37v2.9a1.81,1.81,0,0,0,.15.78,1.51,1.51,0,0,0,.42.51,1.71,1.71,0,0,0,.59.29,3,3,0,0,0,.66.08,2.3,2.3,0,0,0,1.51-.44,1.52,1.52,0,0,0,.51-1.22V324H452v2.9a1.48,1.48,0,0,0,.52,1.29,1.91,1.91,0,0,0,1.16.37,1.82,1.82,0,0,0,1.28-.44,1.6,1.6,0,0,0,.47-1.22V324h1.36v2.9a2.84,2.84,0,0,1-3.06,3.11,3.45,3.45,0,0,1-1.41-.28,2.26,2.26,0,0,1-1.07-1.09,2.4,2.4,0,0,1-1.17,1.09,4,4,0,0,1-2.95,0,2.22,2.22,0,0,1-1.09-1.09,2.45,2.45,0,0,1-1.13,1.09,3.65,3.65,0,0,1-1.43.28h-.67a.39.39,0,0,1-.37-.17,1.14,1.14,0,0,1-.1-.52,1.35,1.35,0,0,1,.1-.57.37.37,0,0,1,.37-.19Z"/><path class="cls-3" d="M460.62,331.88a5.31,5.31,0,0,1-1.06,1.71,4.59,4.59,0,0,1-1.58,1.1,5,5,0,0,1-2,.39h-1.24l-.1-1.43h1a4.45,4.45,0,0,0,1.8-.33,3.5,3.5,0,0,0,1.24-.89,3.85,3.85,0,0,0,.72-1.28,4.89,4.89,0,0,0,.23-1.49V324H461v5.67A6.05,6.05,0,0,1,460.62,331.88Z"/><path class="cls-3" d="M460.57,333.65H461a4.25,4.25,0,0,0,1.76-.33,3.47,3.47,0,0,0,1.21-.89,3.83,3.83,0,0,0,.71-1.28,4.89,4.89,0,0,0,.23-1.49V324h1.36v5.67a6.05,6.05,0,0,1-.39,2.22,5.31,5.31,0,0,1-1.06,1.71,4.59,4.59,0,0,1-1.58,1.1,5,5,0,0,1-2,.39h-.52Zm5.59-12.34h-1.77v-1.54h1.77Z"/><path class="cls-3" d="M470,333.65a4.16,4.16,0,0,0,1.63-.29,3.52,3.52,0,0,0,1.18-.8,3.43,3.43,0,0,0,.74-1.16,4.65,4.65,0,0,0,.29-1.4h-2.1a5.78,5.78,0,0,1-1.76-.23,2.56,2.56,0,0,1-1.09-.67,2.41,2.41,0,0,1-.56-1.06,5.5,5.5,0,0,1-.16-1.4,5,5,0,0,1,.23-1.51,4,4,0,0,1,.67-1.26,3.16,3.16,0,0,1,1.11-.87,3.34,3.34,0,0,1,1.52-.33,3.9,3.9,0,0,1,1.32.23,3.15,3.15,0,0,1,1.12.73,3.48,3.48,0,0,1,.76,1.28,5.58,5.58,0,0,1,.29,1.9v2.85a6.19,6.19,0,0,1-.35,2.06,5.2,5.2,0,0,1-1,1.73,4.62,4.62,0,0,1-1.59,1.19,5.07,5.07,0,0,1-2.13.44h-2.22l-.13-1.43Zm-.53-7.09a3,3,0,0,0,.12.9,1.31,1.31,0,0,0,.4.62,1.86,1.86,0,0,0,.76.36,5.91,5.91,0,0,0,1.22.11h1.89V327a3.27,3.27,0,0,0-.61-2.23,2.13,2.13,0,0,0-1.68-.67,1.87,1.87,0,0,0-1.55.67A2.75,2.75,0,0,0,469.45,326.56Z"/><path class="cls-3" d="M474.7,333.65h.42a4.3,4.3,0,0,0,1.77-.33,3.43,3.43,0,0,0,1.2-.89,3.83,3.83,0,0,0,.71-1.28,4.89,4.89,0,0,0,.23-1.49V324h1.36v5.67a6.05,6.05,0,0,1-.39,2.22,5.14,5.14,0,0,1-1.06,1.71,4.5,4.5,0,0,1-1.58,1.1,5,5,0,0,1-2,.39h-.52Z"/><path class="cls-3" d="M490.91,326.51a2.67,2.67,0,0,0,.36,1.47,1.41,1.41,0,0,0,1.3.57h.36a.35.35,0,0,1,.34.18,1.09,1.09,0,0,1,.1.53,1.14,1.14,0,0,1-.1.56.35.35,0,0,1-.34.18h-.36a3.27,3.27,0,0,1-1.68-.41,2.36,2.36,0,0,1-1-1.48,2.1,2.1,0,0,1-.62.52,3.51,3.51,0,0,1-.77.33,4.94,4.94,0,0,1-.82.16,7.1,7.1,0,0,1-.77,0,3.21,3.21,0,0,1-2.34-.8,3.37,3.37,0,0,1-.81-2.5,5.22,5.22,0,0,1,.22-1.52,4.25,4.25,0,0,1,.66-1.33,3.35,3.35,0,0,1,1.1-.95,3.28,3.28,0,0,1,1.57-.36h2.27v-1.44h1.32Zm-3.7,1.26a3,3,0,0,0,1.74-.44,1.31,1.31,0,0,0,.64-1.11v-3.15h-2.25a2,2,0,0,0-1.68.72,3,3,0,0,0-.59,1.93,2,2,0,0,0,.55,1.61A2.43,2.43,0,0,0,487.21,327.77Z"/><path class="cls-3" d="M494.75,328.55a1.93,1.93,0,0,0,1.32-.44,1.54,1.54,0,0,0,.49-1.22V324h1.36v2.9a3.07,3.07,0,0,1-.82,2.3,3.11,3.11,0,0,1-2.26.81h-2a.37.37,0,0,1-.36-.17,1,1,0,0,1-.1-.52,1.21,1.21,0,0,1,.1-.57.35.35,0,0,1,.36-.19Zm.84,5.42h-1.76v-1.53h1.76Z"/><path class="cls-3" d="M504.37,330a3.3,3.3,0,0,1-1.05-.16,2.08,2.08,0,0,1-.89-.53,2.7,2.7,0,0,1-.62-1,4.31,4.31,0,0,1-.23-1.54V317h1.36v9.53a2.54,2.54,0,0,0,.39,1.46,1.41,1.41,0,0,0,1.27.58H505c.3,0,.46.24.46.71s-.16.74-.46.74Z"/><path class="cls-3" d="M505.29,328.55a1.71,1.71,0,0,0,1.24-.4,1.39,1.39,0,0,0,.42-1.07v-.8a4,4,0,0,1,.94-2.85,3.3,3.3,0,0,1,2.59-1,3.13,3.13,0,0,1,2.58,1.05,4.06,4.06,0,0,1,.86,2.69v.65a1.73,1.73,0,0,0,.46,1.38,1.8,1.8,0,0,0,1.16.38h.36a.36.36,0,0,1,.36.18,1.09,1.09,0,0,1,.1.53,1.14,1.14,0,0,1-.1.56.36.36,0,0,1-.36.18h-.36a3.68,3.68,0,0,1-.66-.06,2.38,2.38,0,0,1-.63-.23,2.08,2.08,0,0,1-.56-.48,2.85,2.85,0,0,1-.44-.78,2.87,2.87,0,0,1-1.33,1.25,4.29,4.29,0,0,1-1.57.3,3.9,3.9,0,0,1-1.59-.33,2.37,2.37,0,0,1-1.2-1.16,2.64,2.64,0,0,1-.46.78,2.35,2.35,0,0,1-.57.45,2.27,2.27,0,0,1-.62.21,4.56,4.56,0,0,1-.62.05H505a.38.38,0,0,1-.37-.17,1.14,1.14,0,0,1-.1-.52,1.35,1.35,0,0,1,.1-.57.36.36,0,0,1,.37-.19Zm7.29-2.25a3,3,0,0,0-.48-1.77,1.89,1.89,0,0,0-1.66-.68c-1.46,0-2.19.84-2.19,2.54a2.06,2.06,0,0,0,.6,1.61,2.18,2.18,0,0,0,1.55.55A2.13,2.13,0,0,0,512,328,2.31,2.31,0,0,0,512.58,326.3Z"/><path class="cls-3" d="M516.65,328.55a2,2,0,0,0,1.38-.44,1.54,1.54,0,0,0,.49-1.22V324h1.37v2.9a1.81,1.81,0,0,0,.15.78,1.51,1.51,0,0,0,.42.51,1.71,1.71,0,0,0,.59.29,3,3,0,0,0,.66.08,2.3,2.3,0,0,0,1.51-.44,1.52,1.52,0,0,0,.51-1.22V324h1.37v2.9a1.47,1.47,0,0,0,.51,1.29,1.92,1.92,0,0,0,1.17.37,1.82,1.82,0,0,0,1.27-.44,1.6,1.6,0,0,0,.47-1.22V324h1.36v2.9a2.84,2.84,0,0,1-3.06,3.11,3.45,3.45,0,0,1-1.41-.28,2.26,2.26,0,0,1-1.07-1.09,2.4,2.4,0,0,1-1.17,1.09,4,4,0,0,1-2.95,0,2.26,2.26,0,0,1-1.09-1.09,2.41,2.41,0,0,1-1.13,1.09,3.65,3.65,0,0,1-1.43.28h-.67a.39.39,0,0,1-.37-.17,1.15,1.15,0,0,1-.09-.52,1.38,1.38,0,0,1,.09-.57.37.37,0,0,1,.37-.19Zm7.27-7.24h-1.68v-1.5h1.68Zm1.34-2.52h-1.68v-1.47h1.68Zm1.33,2.52h-1.68v-1.5h1.68Z"/><path class="cls-3" d="M539.71,333.65a5.35,5.35,0,0,0,1.63-.23,4.06,4.06,0,0,0,1.32-.64,3.21,3.21,0,0,0,.88-1,2.3,2.3,0,0,0,.33-1.19,1.48,1.48,0,0,0-.32-1,1.58,1.58,0,0,0-1.24-.38h-3.65v-3.64a3.63,3.63,0,0,1,.92-2.59,3.31,3.31,0,0,1,2.56-1h2.42l.1,1.45h-2.6a2.23,2.23,0,0,0-.77.14,1.91,1.91,0,0,0-.65.4,2,2,0,0,0-.46.65,2.14,2.14,0,0,0-.18.91v2.23h2.56a3.43,3.43,0,0,1,1.29.2,2,2,0,0,1,.82.54,1.75,1.75,0,0,1,.42.81,4,4,0,0,1,.12,1,4.18,4.18,0,0,1-.42,1.85,4.86,4.86,0,0,1-1.13,1.49,5.28,5.28,0,0,1-1.7,1,5.7,5.7,0,0,1-2.06.37h-1.79a4.64,4.64,0,0,1-3.65-1.45,5.7,5.7,0,0,1-1.3-4V326h1.34v3.63a5.61,5.61,0,0,0,.22,1.64,3.47,3.47,0,0,0,.69,1.27,3.19,3.19,0,0,0,1.19.83,4.46,4.46,0,0,0,1.72.29Z"/><path class="cls-3" d="M550.33,327a1.48,1.48,0,0,0,.49,1.17,1.82,1.82,0,0,0,1.28.43h.23c.31,0,.46.24.46.71s-.15.74-.46.74h-.23a2.69,2.69,0,0,1-1-.19,1.71,1.71,0,0,1-.81-.65v.5a6.05,6.05,0,0,1-.38,2.22,5.12,5.12,0,0,1-1,1.71,4.65,4.65,0,0,1-1.57,1.1,4.93,4.93,0,0,1-2,.39h-.52l-.15-1.43h.42a4.3,4.3,0,0,0,1.77-.33,3.43,3.43,0,0,0,1.2-.89,3.83,3.83,0,0,0,.71-1.28,4.89,4.89,0,0,0,.23-1.49V324h1.36Z"/><path class="cls-3" d="M552.33,330a.39.39,0,0,1-.37-.17,1.15,1.15,0,0,1-.09-.52,1.38,1.38,0,0,1,.09-.57.37.37,0,0,1,.37-.19h4.79a1.88,1.88,0,0,0,1.3-.44,1.57,1.57,0,0,0,.48-1.22V324h1.39v2.9a3,3,0,0,1-.84,2.3,3.1,3.1,0,0,1-2.25.81Zm3.48,4h-1.76v-1.53h1.76Z"/><path class="cls-3" d="M558.71,333.65h.42a4.3,4.3,0,0,0,1.77-.33,3.52,3.52,0,0,0,1.2-.89,3.83,3.83,0,0,0,.71-1.28,4.89,4.89,0,0,0,.23-1.49V324h1.36v5.67a6.05,6.05,0,0,1-.39,2.22,5.31,5.31,0,0,1-1.06,1.71,4.59,4.59,0,0,1-1.58,1.1,5,5,0,0,1-2,.39h-.52Z"/><path class="cls-3" d="M569.3,330a3.3,3.3,0,0,1-1-.16,2.17,2.17,0,0,1-.9-.53,2.84,2.84,0,0,1-.62-1,4.54,4.54,0,0,1-.23-1.54V317h1.37v9.53a2.54,2.54,0,0,0,.39,1.46,1.4,1.4,0,0,0,1.27.58h.35c.31,0,.47.24.47.71s-.16.74-.47.74Z"/><path class="cls-3" d="M575.43,328.55a1.73,1.73,0,0,0,1.3-.39,1.32,1.32,0,0,0,.36-.93,3.09,3.09,0,0,0-.13-.8,2.51,2.51,0,0,0-.69-1l-4.54-4.51v-1.49l6.95-2.76L579,318l-6,2.33,3.8,3.8c.33.35.61.67.83.95a5.78,5.78,0,0,1,.51.79,2.59,2.59,0,0,1,.25.74,4.56,4.56,0,0,1,.07.76,3,3,0,0,1-.22,1.16,2.19,2.19,0,0,1-.62.81,2.73,2.73,0,0,1-1,.47,4.1,4.1,0,0,1-1.2.16h-5.67a.37.37,0,0,1-.36-.17,1,1,0,0,1-.1-.52,1.21,1.21,0,0,1,.1-.57.35.35,0,0,1,.36-.19Z"/><path class="cls-3" d="M595,330a2.69,2.69,0,0,1-1-.19,1.81,1.81,0,0,1-.83-.65v.46a6.1,6.1,0,0,1-.36,2.1,4.92,4.92,0,0,1-1,1.73,4.79,4.79,0,0,1-1.61,1.19,5.1,5.1,0,0,1-2.13.44h-1.24a4.66,4.66,0,0,1-3.66-1.45,5.75,5.75,0,0,1-1.3-4V326h1.35v3.63a5.61,5.61,0,0,0,.22,1.64,3.2,3.2,0,0,0,.69,1.27,3.15,3.15,0,0,0,1.18.83,4.51,4.51,0,0,0,1.73.29H588a4.16,4.16,0,0,0,1.72-.32,3.7,3.7,0,0,0,1.23-.87,3.55,3.55,0,0,0,.74-1.28,5,5,0,0,0,.24-1.54V317h1.34v10a1.48,1.48,0,0,0,.5,1.17,1.85,1.85,0,0,0,1.29.43h.23c.31,0,.46.24.46.71s-.15.74-.46.74Z"/><path class="cls-3" d="M597.16,328.55a1.92,1.92,0,0,0,1.31-.44,1.54,1.54,0,0,0,.49-1.22V324h1.37v2.9a2.84,2.84,0,0,1-3.09,3.11h-2a.39.39,0,0,1-.37-.17,1.15,1.15,0,0,1-.09-.52,1.38,1.38,0,0,1,.09-.57.37.37,0,0,1,.37-.19Zm-.13,5.38h-1.61v-1.49H597Zm2.73,0h-1.59v-1.49h1.59Z"/><path class="cls-3" d="M605.22,330a3.39,3.39,0,0,1-1.05-.16,2.2,2.2,0,0,1-.89-.53,2.7,2.7,0,0,1-.62-1,4.54,4.54,0,0,1-.23-1.54V317h1.36v9.53a2.54,2.54,0,0,0,.39,1.46,1.42,1.42,0,0,0,1.27.58h.36c.31,0,.46.24.46.71s-.15.74-.46.74Z"/><path class="cls-3" d="M609.36,328.55h.93c.26,0,.54,0,.83,0a10,10,0,0,1-1.88-.8,4,4,0,0,1-1-.82,2.1,2.1,0,0,1-.45-.91,6.2,6.2,0,0,1-.09-1.1,3.49,3.49,0,0,1,.23-1.2,3.32,3.32,0,0,1,.68-1.1,3.49,3.49,0,0,1,2.64-1.13,4.45,4.45,0,0,1,1.45.23,2.8,2.8,0,0,1,1.12.7,3.23,3.23,0,0,1,.73,1.26,5.86,5.86,0,0,1,.27,1.91v.94a3.36,3.36,0,0,1-1,2.55,4.4,4.4,0,0,1-3.08.92h-4.91a.4.4,0,0,1-.37-.17,1.15,1.15,0,0,1-.09-.52,1.38,1.38,0,0,1,.09-.57.38.38,0,0,1,.37-.19Zm1.76-5.61a2.24,2.24,0,0,0-.91.19,2.33,2.33,0,0,0-.69.49,1.83,1.83,0,0,0-.43.67,2.07,2.07,0,0,0-.15.77,3.52,3.52,0,0,0,.08.75,1.42,1.42,0,0,0,.47.69,5.22,5.22,0,0,0,1.14.74,18.15,18.15,0,0,0,2.13.87,2.07,2.07,0,0,0,.67-1.68v-.69a3.52,3.52,0,0,0-.52-2.05A2,2,0,0,0,611.12,322.94Zm1-3.52h-1.76v-1.54h1.76Z"/><path class="cls-3" d="M618.49,333.65a4.13,4.13,0,0,0,1.63-.29,3.46,3.46,0,0,0,1.19-.8,3.41,3.41,0,0,0,.73-1.16,4.66,4.66,0,0,0,.3-1.4h-2.1a5.8,5.8,0,0,1-1.77-.23,2.63,2.63,0,0,1-1.09-.67,2.52,2.52,0,0,1-.56-1.06,6,6,0,0,1-.15-1.4,4.68,4.68,0,0,1,.23-1.51,3.8,3.8,0,0,1,.67-1.26,3,3,0,0,1,1.1-.87,3.37,3.37,0,0,1,1.52-.33,3.91,3.91,0,0,1,1.33.23,3,3,0,0,1,1.11.73,3.5,3.5,0,0,1,.77,1.28,5.6,5.6,0,0,1,.28,1.9v2.85a6,6,0,0,1-.35,2.06,5.18,5.18,0,0,1-1,1.73,4.75,4.75,0,0,1-1.6,1.19,5,5,0,0,1-2.12.44h-2.23l-.12-1.43Zm-.52-7.09a3.35,3.35,0,0,0,.11.9,1.31,1.31,0,0,0,.4.62,1.9,1.9,0,0,0,.77.36,5.84,5.84,0,0,0,1.22.11h1.89V327a3.32,3.32,0,0,0-.61-2.23,2.16,2.16,0,0,0-1.68-.67,1.9,1.9,0,0,0-1.56.67A2.81,2.81,0,0,0,618,326.56Z"/><path class="cls-3" d="M628.91,327a1.5,1.5,0,0,0,.48,1.17,1.84,1.84,0,0,0,1.28.43h.24c.3,0,.46.24.46.71s-.16.74-.46.74h-.24a2.64,2.64,0,0,1-1-.19,1.71,1.71,0,0,1-.81-.65v.5a6.27,6.27,0,0,1-.38,2.22,5.12,5.12,0,0,1-1,1.71,4.65,4.65,0,0,1-1.57,1.1,5,5,0,0,1-2,.39h-.52l-.15-1.43h.42a4.25,4.25,0,0,0,1.76-.33,3.56,3.56,0,0,0,1.21-.89,3.64,3.64,0,0,0,.7-1.28,4.6,4.6,0,0,0,.23-1.49V324h1.37Z"/><path class="cls-3" d="M632.79,328.55a1.93,1.93,0,0,0,1.32-.44,1.54,1.54,0,0,0,.49-1.22V324H636v2.9a3.07,3.07,0,0,1-.82,2.3,3.11,3.11,0,0,1-2.26.81h-2a.37.37,0,0,1-.36-.17,1,1,0,0,1-.1-.52,1.21,1.21,0,0,1,.1-.57.35.35,0,0,1,.36-.19Zm0,5.38h-1.68v-1.49h1.68Zm1.34,2.52h-1.68V335h1.68Zm1.32-2.52H633.8v-1.49h1.68Z"/><path class="cls-3" d="M642.51,330a3.91,3.91,0,0,1-1.48-.26,2.64,2.64,0,0,1-1.57-1.74,4.16,4.16,0,0,1-.18-1.23V324h1.34v2.5a2.24,2.24,0,0,0,.49,1.52,2.1,2.1,0,0,0,1.7.58H650a1.89,1.89,0,0,0,1.33-.44,1.56,1.56,0,0,0,.47-1.22V324h1.37v3.09a3,3,0,0,1-.24,1.24,2.79,2.79,0,0,1-.65.92,2.71,2.71,0,0,1-1,.57,3.33,3.33,0,0,1-1.14.19Zm3.2-7.85H644v-1.5h1.68Zm2.66,0h-1.68v-1.5h1.68Z"/><path class="cls-3" d="M658.1,330a3.3,3.3,0,0,1-1.05-.16,2.17,2.17,0,0,1-.9-.53,2.84,2.84,0,0,1-.62-1,4.54,4.54,0,0,1-.23-1.54V317h1.37v9.53a2.54,2.54,0,0,0,.39,1.46,1.4,1.4,0,0,0,1.27.58h.35c.31,0,.47.24.47.71s-.16.74-.47.74Z"/><path class="cls-3" d="M661.58,328.55a3,3,0,0,1-.84-1.34,4.64,4.64,0,0,1-.21-1.22,4.06,4.06,0,0,1,.26-1.45,3.71,3.71,0,0,1,.75-1.18,3.55,3.55,0,0,1,1.15-.78,3.82,3.82,0,0,1,1.5-.29,4.27,4.27,0,0,1,1.39.23,7.09,7.09,0,0,1,1.46.76l-.59,1.15a5.27,5.27,0,0,0-1.18-.52,4,4,0,0,0-1.08-.15,2.27,2.27,0,0,0-1.65.69,1.85,1.85,0,0,0-.46.71,2.25,2.25,0,0,0-.16.85,2.47,2.47,0,0,0,.17.93,2.77,2.77,0,0,0,.45.81,2.32,2.32,0,0,0,.67.58,1.59,1.59,0,0,0,.81.22h3.59L667.5,330h-8.82a.37.37,0,0,1-.36-.17,1,1,0,0,1-.1-.52,1.21,1.21,0,0,1,.1-.57.35.35,0,0,1,.36-.19Z"/><path class="cls-3" d="M669.6,330V317H671v11.57h2.77a1.91,1.91,0,0,0,1.35-.44,1.57,1.57,0,0,0,.48-1.22V317h1.36v9.91a1.42,1.42,0,0,0,.56,1.29,2.19,2.19,0,0,0,1.25.37H679c.31,0,.46.24.46.71s-.15.74-.46.74h-.31a3.54,3.54,0,0,1-1.45-.28,2.22,2.22,0,0,1-1.07-1.09,2.47,2.47,0,0,1-1.11,1.09,3.21,3.21,0,0,1-1.33.28Z"/><path class="cls-3" d="M681.07,317h1.34v8c0,.54,0,1.06,0,1.53a15.91,15.91,0,0,1,2.32-3,4.84,4.84,0,0,1,2.15-1.27,3.52,3.52,0,0,1,1.2,0,2.92,2.92,0,0,1,1.27.4,3.17,3.17,0,0,1,1,.87,4.17,4.17,0,0,1,.64,1.22,4.61,4.61,0,0,1,.23,1.46,4.5,4.5,0,0,1-.22,1.4,3.57,3.57,0,0,1-.68,1.24,3.31,3.31,0,0,1-1.16.88,3.67,3.67,0,0,1-1.66.34H679a.4.4,0,0,1-.37-.17,1.15,1.15,0,0,1-.09-.52,1.38,1.38,0,0,1,.09-.57.38.38,0,0,1,.37-.19h2.06Zm8.76,9.16a2.8,2.8,0,0,0-.18-1,2.51,2.51,0,0,0-.5-.82,2.38,2.38,0,0,0-.74-.55,2.26,2.26,0,0,0-.94-.2,3.38,3.38,0,0,0-2.3,1.18,20.82,20.82,0,0,0-2.78,3.82h5.11a2.54,2.54,0,0,0,.86-.14,1.87,1.87,0,0,0,.74-.44,2.31,2.31,0,0,0,.53-.75A2.7,2.7,0,0,0,689.83,326.14Z"/><path class="cls-3" d="M693.17,317h1.36v13h-1.36Z"/><path class="cls-3" d="M564.94,186c-.67,0-1-.37-1-1.11s.34-1.12,1-1.12,1,.37,1,1.12S565.61,186,564.94,186Z"/><path class="cls-3" d="M572.06,184.55a2.48,2.48,0,0,0,.78-.11,1.56,1.56,0,0,0,.51-.3,1.17,1.17,0,0,0,.29-.39.88.88,0,0,0,.1-.4,2.43,2.43,0,0,0-.09-.56,10.84,10.84,0,0,0-.3-1c-.15-.47-.36-1.08-.63-1.85s-.63-1.76-1.06-3l1.28-.53,2.25,6.41a3.23,3.23,0,0,0,.77,1.34,1.78,1.78,0,0,0,1.24.4h.3c.31,0,.46.24.46.71s-.15.74-.46.74h-.3a3.49,3.49,0,0,1-1.32-.26,2.63,2.63,0,0,1-1.15-1.15,2.32,2.32,0,0,1-1.11,1.14,3.77,3.77,0,0,1-1.44.27h-4.51l-.11-1.45Z"/><path class="cls-3" d="M578.25,184.55a2,2,0,0,0,1.38-.44,1.54,1.54,0,0,0,.49-1.22V180h1.37v2.9a1.67,1.67,0,0,0,.16.78,1.31,1.31,0,0,0,.42.51,1.58,1.58,0,0,0,.58.29,3,3,0,0,0,.67.08,2.29,2.29,0,0,0,1.5-.44,1.52,1.52,0,0,0,.51-1.22V180h1.37v2.9a1.47,1.47,0,0,0,.51,1.29,1.92,1.92,0,0,0,1.17.37,1.82,1.82,0,0,0,1.27-.44,1.6,1.6,0,0,0,.47-1.22V180h1.36v2.9a2.84,2.84,0,0,1-3.06,3.11,3.48,3.48,0,0,1-1.41-.28,2.26,2.26,0,0,1-1.07-1.09,2.4,2.4,0,0,1-1.17,1.09,4,4,0,0,1-2.95,0,2.26,2.26,0,0,1-1.09-1.09,2.41,2.41,0,0,1-1.13,1.09,3.65,3.65,0,0,1-1.43.28h-.67a.39.39,0,0,1-.37-.17,1.15,1.15,0,0,1-.09-.52,1.38,1.38,0,0,1,.09-.57.37.37,0,0,1,.37-.19Zm7.27-7.24h-1.68v-1.5h1.68Zm1.34-2.52h-1.68v-1.47h1.68Zm1.33,2.52h-1.68v-1.5h1.68Z"/><path class="cls-3" d="M596.66,189.65a4.13,4.13,0,0,0,1.63-.29,3.56,3.56,0,0,0,1.19-.8,3.41,3.41,0,0,0,.73-1.16,4.66,4.66,0,0,0,.3-1.4h-2.1a5.8,5.8,0,0,1-1.77-.23,2.63,2.63,0,0,1-1.09-.67A2.52,2.52,0,0,1,595,184a6,6,0,0,1-.15-1.4,4.68,4.68,0,0,1,.23-1.51,3.63,3.63,0,0,1,.67-1.26,3,3,0,0,1,1.1-.87,3.37,3.37,0,0,1,1.52-.33,3.91,3.91,0,0,1,1.33.23,3,3,0,0,1,1.11.73,3.5,3.5,0,0,1,.77,1.28,5.86,5.86,0,0,1,.28,1.9v1.74h2a.35.35,0,0,1,.34.18,1.09,1.09,0,0,1,.1.53,1.14,1.14,0,0,1-.1.56.35.35,0,0,1-.34.18h-2.06a6,6,0,0,1-.41,1.95,5.19,5.19,0,0,1-1,1.62,4.79,4.79,0,0,1-3.59,1.51h-2.23l-.12-1.43Zm-.52-7.09a3.35,3.35,0,0,0,.11.9,1.31,1.31,0,0,0,.4.62,1.9,1.9,0,0,0,.77.36,5.84,5.84,0,0,0,1.22.11h1.89V183a3.32,3.32,0,0,0-.61-2.23,2.16,2.16,0,0,0-1.68-.67,1.9,1.9,0,0,0-1.56.67A2.81,2.81,0,0,0,596.14,182.56Z"/><path class="cls-3" d="M604.81,184.55a19.06,19.06,0,0,0,1.93-.11,6.07,6.07,0,0,0,2-.6l-3.13-4.06.78-1.42h5.39a3,3,0,0,1,1.59.39,1.58,1.58,0,0,1,.74,1.2,1.1,1.1,0,0,1,0,.25v.26a2.93,2.93,0,0,1-.15.58,3.17,3.17,0,0,1-.42.73,10.07,10.07,0,0,1-.84.95,16.11,16.11,0,0,1-1.4,1.26,3.41,3.41,0,0,0,.62.33,3.18,3.18,0,0,0,.66.17q.36,0,.78.06h2.48c.31,0,.46.24.46.71s-.15.74-.46.74h-1.75l-1.27,0a6.12,6.12,0,0,1-1.08-.14,3.62,3.62,0,0,1-1-.35,4.16,4.16,0,0,1-.9-.69,6.64,6.64,0,0,1-2.32,1,14.51,14.51,0,0,1-2.69.23h-1a.38.38,0,0,1-.37-.17,1.14,1.14,0,0,1-.1-.52,1.35,1.35,0,0,1,.1-.57.36.36,0,0,1,.37-.19Zm7.9-4a.74.74,0,0,0-.33-.63,1.71,1.71,0,0,0-1-.23h-4.23l2.92,3.78c.51-.42.93-.78,1.26-1.07a7.76,7.76,0,0,0,.81-.78,2.52,2.52,0,0,0,.42-.59A1.07,1.07,0,0,0,612.71,180.58ZM611,175.42h-1.77v-1.54H611Z"/><path class="cls-3" d="M616.4,184.55a1.9,1.9,0,0,0,1.31-.44,1.57,1.57,0,0,0,.48-1.22V173h1.36v9.91a2.84,2.84,0,0,1-3.06,3.11h-.63a.39.39,0,0,1-.37-.17,1.15,1.15,0,0,1-.09-.52,1.38,1.38,0,0,1,.09-.57.37.37,0,0,1,.37-.19Z"/><path class="cls-3" d="M626.18,186a3.39,3.39,0,0,1-1-.16,2.2,2.2,0,0,1-.89-.53,2.7,2.7,0,0,1-.62-1,4.31,4.31,0,0,1-.23-1.54V173h1.36v9.53a2.54,2.54,0,0,0,.39,1.46,1.41,1.41,0,0,0,1.27.58h.36c.31,0,.46.24.46.71s-.15.74-.46.74Z"/><path class="cls-3" d="M627.11,184.55a1.73,1.73,0,0,0,1.24-.4,1.43,1.43,0,0,0,.42-1.07v-.8a4.08,4.08,0,0,1,.93-2.85,3.31,3.31,0,0,1,2.59-1,3.17,3.17,0,0,1,2.59,1,4.11,4.11,0,0,1,.86,2.69v.65a1.7,1.7,0,0,0,.46,1.38,1.77,1.77,0,0,0,1.15.38h.36a.38.38,0,0,1,.37.18,1.23,1.23,0,0,1,.09.53,1.29,1.29,0,0,1-.09.56.38.38,0,0,1-.37.18h-.36a3.68,3.68,0,0,1-.66-.06,2.67,2.67,0,0,1-.63-.23,1.9,1.9,0,0,1-.55-.48,2.62,2.62,0,0,1-.44-.78,2.89,2.89,0,0,1-1.34,1.25,4.24,4.24,0,0,1-1.56.3,4,4,0,0,1-1.6-.33.88.88,0,1,0-1.66-.38,2.51,2.51,0,0,1-.56.45,2.39,2.39,0,0,1-.62.21,4.69,4.69,0,0,1-.62.05h-.34a.4.4,0,0,1-.37-.17,1.15,1.15,0,0,1-.09-.52,1.38,1.38,0,0,1,.09-.57.38.38,0,0,1,.37-.19Zm7.28-2.25a3,3,0,0,0-.48-1.77,1.87,1.87,0,0,0-1.66-.68c-1.46,0-2.18.84-2.18,2.54a2.06,2.06,0,0,0,.6,1.61,2.49,2.49,0,0,0,3.17,0A2.31,2.31,0,0,0,634.39,182.3Z"/><path class="cls-3" d="M638.47,184.55a2,2,0,0,0,1.37-.44,1.55,1.55,0,0,0,.5-1.22V180h1.36v2.9a1.67,1.67,0,0,0,.16.78,1.31,1.31,0,0,0,.42.51,1.55,1.55,0,0,0,.59.29,2.84,2.84,0,0,0,.66.08,2.26,2.26,0,0,0,1.5-.44,1.52,1.52,0,0,0,.51-1.22V180h1.37v2.9a1.47,1.47,0,0,0,.51,1.29,2,2,0,0,0,1.17.37,1.82,1.82,0,0,0,1.27-.44,1.6,1.6,0,0,0,.47-1.22V180h1.37v2.9a2.84,2.84,0,0,1-3.07,3.11,3.51,3.51,0,0,1-1.41-.28,2.26,2.26,0,0,1-1.07-1.09,2.38,2.38,0,0,1-1.16,1.09,3.87,3.87,0,0,1-1.46.28,3.73,3.73,0,0,1-1.49-.28,2.18,2.18,0,0,1-1.09-1.09,2.43,2.43,0,0,1-1.14,1.09,3.61,3.61,0,0,1-1.43.28h-.67a.4.4,0,0,1-.37-.17,1.15,1.15,0,0,1-.09-.52,1.38,1.38,0,0,1,.09-.57.38.38,0,0,1,.37-.19Zm7.26-7.24h-1.68v-1.5h1.68Zm1.35-2.52H645.4v-1.47h1.68Zm1.32,2.52h-1.68v-1.5h1.68Z"/><path class="cls-3" d="M659.14,184.55a2.48,2.48,0,0,0,.78-.11,1.73,1.73,0,0,0,.52-.3,1.17,1.17,0,0,0,.29-.39,1,1,0,0,0,.09-.4,2.32,2.32,0,0,0-.08-.56q-.09-.36-.3-1c-.15-.47-.36-1.08-.63-1.85s-.63-1.76-1.06-3l1.28-.53,2.24,6.41a3.35,3.35,0,0,0,.78,1.34,1.76,1.76,0,0,0,1.24.4h.29c.31,0,.47.24.47.71s-.16.74-.47.74h-.29a3.49,3.49,0,0,1-1.32-.26,2.65,2.65,0,0,1-1.16-1.15,2.27,2.27,0,0,1-1.1,1.14,3.77,3.77,0,0,1-1.44.27h-4.51l-.11-1.45Z"/><path class="cls-3" d="M666.47,184.55a1.93,1.93,0,0,0,1.32-.44,1.54,1.54,0,0,0,.49-1.22V180h1.36v2.9a3.07,3.07,0,0,1-.82,2.3,3.11,3.11,0,0,1-2.26.81h-2a.37.37,0,0,1-.36-.17,1,1,0,0,1-.1-.52,1.21,1.21,0,0,1,.1-.57.35.35,0,0,1,.36-.19Zm-.12,5.38h-1.62v-1.49h1.62Zm2.73,0h-1.6v-1.49h1.6Z"/><path class="cls-3" d="M679.18,181a4.54,4.54,0,0,1,.79,1.21,3.13,3.13,0,0,1,.24,1.16,2.43,2.43,0,0,1-.81,1.88,3.27,3.27,0,0,1-2.3.75h-5.86l-.11-1.45h5.8a1.92,1.92,0,0,0,1.27-.38,1.22,1.22,0,0,0,.45-1,1.91,1.91,0,0,0-.14-.66,2.32,2.32,0,0,0-.45-.67l-3.9-4.41,1.07-1Z"/><path class="cls-3" d="M683.87,187.88a5.31,5.31,0,0,1-1.06,1.71,4.63,4.63,0,0,1-1.59,1.1,5,5,0,0,1-2,.39H678l-.1-1.43h1a4.45,4.45,0,0,0,1.8-.33,3.5,3.5,0,0,0,1.24-.89,3.66,3.66,0,0,0,.71-1.28,4.61,4.61,0,0,0,.24-1.49V180h1.34v5.67A6.05,6.05,0,0,1,683.87,187.88Zm.47-10.57h-1.76v-1.54h1.76Z"/><path class="cls-3" d="M689.17,186a3.39,3.39,0,0,1-1-.16,2.2,2.2,0,0,1-.89-.53,2.84,2.84,0,0,1-.62-1,4.54,4.54,0,0,1-.23-1.54V173h1.37v9.53a2.54,2.54,0,0,0,.38,1.46,1.42,1.42,0,0,0,1.27.58h.36c.31,0,.46.24.46.71s-.15.74-.46.74Z"/><path class="cls-3" d="M691.65,184.55a1.9,1.9,0,0,0,1.31-.44,1.55,1.55,0,0,0,.5-1.22V180h1.36v2.9a3,3,0,0,1-.83,2.3,3.07,3.07,0,0,1-2.25.81h-2a.4.4,0,0,1-.37-.17,1.15,1.15,0,0,1-.09-.52,1.38,1.38,0,0,1,.09-.57.38.38,0,0,1,.37-.19Zm.84,5.42h-1.76v-1.53h1.76Z"/><path class="cls-4" d="M175.87,188.79a8.33,8.33,0,0,0,1.55-.12,3.32,3.32,0,0,0,1-.36,1.32,1.32,0,0,0,.52-.56,1.5,1.5,0,0,0,.16-.7,1.25,1.25,0,0,0-.23-.74.92.92,0,0,0-.78-.31h-3l.12-2.31h7.29c.31,0,.46.37.46,1.11s-.15,1.2-.46,1.2h-1.81a1,1,0,0,1,.37.55,3.12,3.12,0,0,1,.09.81,3.32,3.32,0,0,1-.25,1.22,3.17,3.17,0,0,1-.83,1.21,4.36,4.36,0,0,1-1.53.92,6.46,6.46,0,0,1-2.34.37h-2.23a4.64,4.64,0,0,1-3.65-1.45,5.7,5.7,0,0,1-1.3-4V181.9h2.12v3.68a4.49,4.49,0,0,0,.17,1.32,2.64,2.64,0,0,0,.53,1,2.41,2.41,0,0,0,1,.65,3.93,3.93,0,0,0,1.46.23Z"/><path class="cls-4" d="M184.4,183.69a1.23,1.23,0,0,0,1.41-1.37v-2.47H188v2.62a3.61,3.61,0,0,1-.88,2.64,3.36,3.36,0,0,1-2.48.89h-2.12a.36.36,0,0,1-.37-.28,2.93,2.93,0,0,1-.09-.83,3.39,3.39,0,0,1,.09-.91.37.37,0,0,1,.37-.29Zm2.9-6.3h-2.37v-2.14h2.37Z"/><path class="cls-4" d="M190.41,173h2.14v13h-2.14Z"/><path class="cls-4" d="M202.44,180.75a4.68,4.68,0,0,1,.83,1.29,3.37,3.37,0,0,1,.26,1.25,2.86,2.86,0,0,1-.2,1.06,2.24,2.24,0,0,1-.6.86,2.76,2.76,0,0,1-1,.58,4.17,4.17,0,0,1-1.38.21h-5.61l-.1-2.31H200c.69,0,1-.26,1-.78a1.19,1.19,0,0,0-.35-.77l-3.57-4.08,1.65-1.55Z"/><path class="cls-4" d="M208.4,185.66a5.87,5.87,0,0,1-.37,2.12,5.66,5.66,0,0,1-1,1.73,4.87,4.87,0,0,1-1.58,1.15,4.69,4.69,0,0,1-2,.42H202.1l-.1-2.29h.88a4.28,4.28,0,0,0,1.61-.26,3.11,3.11,0,0,0,1.08-.7,2.77,2.77,0,0,0,.61-1,3.81,3.81,0,0,0,.19-1.16v-5.81h2.14v2.5a1.23,1.23,0,0,0,.41,1,1.55,1.55,0,0,0,1,.34h.23c.31,0,.46.37.46,1.11s-.15,1.2-.46,1.2H210a2.74,2.74,0,0,1-.84-.14,1.41,1.41,0,0,1-.72-.55Z"/><path class="cls-4" d="M215.4,183.69a1.07,1.07,0,0,0,.78-.23.78.78,0,0,0,.22-.57,1.69,1.69,0,0,0-.11-.62,1.91,1.91,0,0,0-.5-.66l-4-4v-2.39l6.95-2.63.48,2.14-5.36,2,3.09,3.13a11,11,0,0,1,.86.95,4.69,4.69,0,0,1,.53.82,3.4,3.4,0,0,1,.26.78,4.28,4.28,0,0,1,.07.81,3,3,0,0,1-.24,1.26,2.36,2.36,0,0,1-.65.86,2.57,2.57,0,0,1-1,.49,4.32,4.32,0,0,1-1.21.16h-5.46a.36.36,0,0,1-.37-.28,2.93,2.93,0,0,1-.09-.83,3.39,3.39,0,0,1,.09-.91.37.37,0,0,1,.37-.29ZM211.72,172l6.32-2.39.34,1.51-6.55,2.52Z"/><path class="cls-4" d="M223.43,187.78a5.54,5.54,0,0,1-1.07,1.73,5,5,0,0,1-1.62,1.15,4.81,4.81,0,0,1-2,.42h-1.33l-.1-2.29h.88a4.31,4.31,0,0,0,1.61-.26,3.11,3.11,0,0,0,1.08-.7,2.77,2.77,0,0,0,.61-1,3.8,3.8,0,0,0,.18-1.16v-5.81h2.15v5.81A5.67,5.67,0,0,1,223.43,187.78Zm.41-10.39h-2.38v-2.14h2.38Z"/><path class="cls-4" d="M229.17,186a3.79,3.79,0,0,1-1.12-.16,2.25,2.25,0,0,1-.94-.53,2.85,2.85,0,0,1-.63-1,4.54,4.54,0,0,1-.23-1.54V173h2.15v9.26a1.69,1.69,0,0,0,.3,1.06,1.08,1.08,0,0,0,.91.39h.49c.3,0,.46.37.46,1.11s-.16,1.2-.46,1.2Z"/><path class="cls-4" d="M232,183.69a1.22,1.22,0,0,0,1.4-1.37v-2.47h2.15v2.62a3.62,3.62,0,0,1-.89,2.64,3.32,3.32,0,0,1-2.47.89H230.1a.36.36,0,0,1-.37-.28,2.87,2.87,0,0,1-.1-.83,3.31,3.31,0,0,1,.1-.91.36.36,0,0,1,.37-.29Zm1.09,6.8h-2.37v-2.14h2.37Z"/></g></svg>