<svg xmlns="http://www.w3.org/2000/svg" viewBox="0 0 864 252"><defs><style>.cls-1{fill:#242323;}.cls-2{fill:#4c4b4b;}.cls-3{fill:#ff8672;}.cls-4{fill:#fff;}.cls-5{fill:#ff8873;}</style></defs><title>material-111</title><g id="Layer_1" data-name="Layer 1"><rect class="cls-1" x="144" y="90" width="576" height="72"/><rect class="cls-2" x="156" y="102" width="90" height="48"/><rect class="cls-3" x="480" y="90" width="240" height="2.61"/><path class="cls-4" d="M564.94,132c-.67,0-1-.37-1-1.11s.34-1.12,1-1.12,1,.38,1,1.12S565.61,132,564.94,132Z"/><path class="cls-4" d="M572.06,130.55a2.48,2.48,0,0,0,.78-.11,1.56,1.56,0,0,0,.51-.3,1.2,1.2,0,0,0,.3-.39,1,1,0,0,0,.09-.4,2.86,2.86,0,0,0-.08-.56c-.06-.24-.16-.59-.31-1s-.35-1.08-.63-1.85-.62-1.76-1.06-3l1.28-.53,2.25,6.41a3.13,3.13,0,0,0,.78,1.34,1.75,1.75,0,0,0,1.24.4h.29c.31,0,.46.24.46.71s-.15.74-.46.74h-.29a3.5,3.5,0,0,1-1.33-.26,2.63,2.63,0,0,1-1.15-1.15,2.31,2.31,0,0,1-1.1,1.14,3.84,3.84,0,0,1-1.44.27h-4.52l-.1-1.45Z"/><path class="cls-4" d="M578.26,130.55a2,2,0,0,0,1.37-.44,1.55,1.55,0,0,0,.5-1.22V126h1.36v2.9a1.67,1.67,0,0,0,.16.78,1.31,1.31,0,0,0,.42.51,1.55,1.55,0,0,0,.59.29,2.84,2.84,0,0,0,.66.08,2.27,2.27,0,0,0,1.5-.44,1.52,1.52,0,0,0,.51-1.22V126h1.37v2.9a1.47,1.47,0,0,0,.51,1.29,1.94,1.94,0,0,0,1.17.37,1.82,1.82,0,0,0,1.27-.44,1.6,1.6,0,0,0,.47-1.22V126h1.37v2.9a2.84,2.84,0,0,1-3.07,3.11,3.51,3.51,0,0,1-1.41-.28,2.26,2.26,0,0,1-1.07-1.09,2.38,2.38,0,0,1-1.16,1.09,3.87,3.87,0,0,1-1.46.28,3.73,3.73,0,0,1-1.49-.28,2.23,2.23,0,0,1-1.1-1.09,2.37,2.37,0,0,1-1.13,1.09,3.61,3.61,0,0,1-1.43.28h-.67a.4.4,0,0,1-.37-.17,1.15,1.15,0,0,1-.09-.52,1.38,1.38,0,0,1,.09-.57.38.38,0,0,1,.37-.19Zm7.26-7.24h-1.68v-1.5h1.68Zm1.35-2.52h-1.68v-1.47h1.68Zm1.32,2.52h-1.68v-1.5h1.68Z"/><path class="cls-4" d="M596.67,135.65a4.11,4.11,0,0,0,1.62-.29,3.46,3.46,0,0,0,1.19-.8,3.26,3.26,0,0,0,.73-1.16,4.66,4.66,0,0,0,.3-1.4h-2.1a5.85,5.85,0,0,1-1.77-.23,2.63,2.63,0,0,1-1.09-.67A2.5,2.5,0,0,1,595,130a5.5,5.5,0,0,1-.16-1.4,4.68,4.68,0,0,1,.23-1.51,3.8,3.8,0,0,1,.67-1.26,3,3,0,0,1,1.1-.87,3.38,3.38,0,0,1,1.53-.33,3.9,3.9,0,0,1,1.32.23,3,3,0,0,1,1.11.73,3.5,3.5,0,0,1,.77,1.28,5.6,5.6,0,0,1,.28,1.9v1.74h2a.34.34,0,0,1,.34.18,1.09,1.09,0,0,1,.1.53,1.14,1.14,0,0,1-.1.56.34.34,0,0,1-.34.18h-2.06a6,6,0,0,1-.41,1.95,4.9,4.9,0,0,1-2.57,2.72,4.77,4.77,0,0,1-2,.41h-2.23l-.12-1.43Zm-.53-7.09a3.35,3.35,0,0,0,.11.9,1.31,1.31,0,0,0,.4.62,1.9,1.9,0,0,0,.77.36,5.84,5.84,0,0,0,1.22.11h1.89V129a3.27,3.27,0,0,0-.61-2.23,2.16,2.16,0,0,0-1.68-.67,1.87,1.87,0,0,0-1.55.67A2.75,2.75,0,0,0,596.14,128.56Z"/><path class="cls-4" d="M604.81,130.55a19.25,19.25,0,0,0,1.94-.11,6,6,0,0,0,2-.6l-3.13-4.06.78-1.42h5.4a3,3,0,0,1,1.58.39,1.59,1.59,0,0,1,.75,1.2,2.29,2.29,0,0,1,0,.25v.26a3,3,0,0,1-.16.58,3.17,3.17,0,0,1-.42.73,8.82,8.82,0,0,1-.84,1,16.11,16.11,0,0,1-1.4,1.26,3.41,3.41,0,0,0,.62.33,3.55,3.55,0,0,0,.66.17q.36,0,.78.06h2.48c.31,0,.46.24.46.71s-.15.74-.46.74h-1.74l-1.27,0a6.12,6.12,0,0,1-1.09-.14,3.62,3.62,0,0,1-1-.35,3.89,3.89,0,0,1-.89-.69,6.72,6.72,0,0,1-2.32,1,14.62,14.62,0,0,1-2.7.23h-1a.39.39,0,0,1-.37-.17,1.15,1.15,0,0,1-.09-.52,1.38,1.38,0,0,1,.09-.57.37.37,0,0,1,.37-.19Zm7.9-4a.74.74,0,0,0-.33-.63,1.69,1.69,0,0,0-1-.23h-4.22l2.92,3.78,1.26-1.07a8.64,8.64,0,0,0,.8-.78,2,2,0,0,0,.42-.59A1.07,1.07,0,0,0,612.71,126.58ZM611,121.42h-1.76v-1.54H611Z"/><path class="cls-4" d="M616.41,130.55a1.89,1.89,0,0,0,1.3-.44,1.57,1.57,0,0,0,.48-1.22V119h1.37v9.91a2.84,2.84,0,0,1-3.07,3.11h-.63a.39.39,0,0,1-.37-.17,1.15,1.15,0,0,1-.09-.52,1.38,1.38,0,0,1,.09-.57.37.37,0,0,1,.37-.19Z"/><path class="cls-4" d="M626.18,132a3.39,3.39,0,0,1-1-.16,2.2,2.2,0,0,1-.89-.53,2.84,2.84,0,0,1-.62-1,4.54,4.54,0,0,1-.23-1.54V119h1.37v9.53a2.54,2.54,0,0,0,.38,1.46,1.42,1.42,0,0,0,1.27.58h.36c.31,0,.46.24.46.71s-.15.74-.46.74Z"/><path class="cls-4" d="M627.11,130.55a1.73,1.73,0,0,0,1.24-.4,1.39,1.39,0,0,0,.42-1.07v-.8a4.08,4.08,0,0,1,.93-2.85,3.33,3.33,0,0,1,2.6-1,3.16,3.16,0,0,1,2.58,1,4.11,4.11,0,0,1,.86,2.69v.65a1.7,1.7,0,0,0,.46,1.38,1.78,1.78,0,0,0,1.16.38h.35a.37.37,0,0,1,.37.18,1.22,1.22,0,0,1,.1.53,1.27,1.27,0,0,1-.1.56.37.37,0,0,1-.37.18h-.35a3.52,3.52,0,0,1-.66-.06,2.38,2.38,0,0,1-.63-.23,1.94,1.94,0,0,1-.56-.48,2.62,2.62,0,0,1-.44-.78,2.84,2.84,0,0,1-1.34,1.25,4.24,4.24,0,0,1-1.56.3,4,4,0,0,1-1.6-.33,2.39,2.39,0,0,1-1.19-1.16,2.45,2.45,0,0,1-.47.78,2.51,2.51,0,0,1-.56.45,2.27,2.27,0,0,1-.62.21,4.69,4.69,0,0,1-.62.05h-.34a.37.37,0,0,1-.36-.17,1,1,0,0,1-.1-.52,1.21,1.21,0,0,1,.1-.57.35.35,0,0,1,.36-.19Zm7.29-2.25a3,3,0,0,0-.49-1.77,1.87,1.87,0,0,0-1.66-.68c-1.45,0-2.18.84-2.18,2.54a2.06,2.06,0,0,0,.6,1.61,2.17,2.17,0,0,0,1.54.55,2.14,2.14,0,0,0,1.63-.59A2.31,2.31,0,0,0,634.4,128.3Z"/><path class="cls-4" d="M638.47,130.55a2,2,0,0,0,1.37-.44,1.55,1.55,0,0,0,.5-1.22V126h1.36v2.9a1.8,1.8,0,0,0,.16.78,1.51,1.51,0,0,0,.42.51,1.63,1.63,0,0,0,.59.29,2.91,2.91,0,0,0,.66.08,2.26,2.26,0,0,0,1.5-.44,1.53,1.53,0,0,0,.52-1.22V126h1.36v2.9a1.45,1.45,0,0,0,.52,1.29,1.91,1.91,0,0,0,1.16.37,1.8,1.8,0,0,0,1.27-.44,1.56,1.56,0,0,0,.47-1.22V126h1.37v2.9a2.84,2.84,0,0,1-3.07,3.11,3.43,3.43,0,0,1-1.4-.28,2.18,2.18,0,0,1-1.07-1.09,2.4,2.4,0,0,1-1.17,1.09,3.87,3.87,0,0,1-1.46.28,3.77,3.77,0,0,1-1.49-.28,2.22,2.22,0,0,1-1.09-1.09,2.43,2.43,0,0,1-1.14,1.09,3.61,3.61,0,0,1-1.43.28h-.67a.37.37,0,0,1-.36-.17,1,1,0,0,1-.1-.52,1.21,1.21,0,0,1,.1-.57.35.35,0,0,1,.36-.19Zm7.27-7.24h-1.69v-1.5h1.69Zm1.34-2.52H645.4v-1.47h1.68Zm1.32,2.52h-1.68v-1.5h1.68Z"/><path class="cls-4" d="M659.15,130.55a2.46,2.46,0,0,0,.77-.11,1.73,1.73,0,0,0,.52-.3,1.17,1.17,0,0,0,.29-.39,1,1,0,0,0,.1-.4,2.35,2.35,0,0,0-.09-.56c0-.24-.16-.59-.3-1s-.36-1.08-.63-1.85-.63-1.76-1.06-3l1.28-.53,2.25,6.41a3.23,3.23,0,0,0,.77,1.34,1.78,1.78,0,0,0,1.24.4h.3c.3,0,.46.24.46.71s-.16.74-.46.74h-.3a3.49,3.49,0,0,1-1.32-.26,2.65,2.65,0,0,1-1.16-1.15,2.27,2.27,0,0,1-1.1,1.14,3.77,3.77,0,0,1-1.44.27h-4.51l-.11-1.45Z"/><path class="cls-4" d="M666.48,130.55a1.92,1.92,0,0,0,1.31-.44,1.54,1.54,0,0,0,.49-1.22V126h1.37v2.9a3.07,3.07,0,0,1-.83,2.3,3.11,3.11,0,0,1-2.26.81h-2a.38.38,0,0,1-.37-.17,1.14,1.14,0,0,1-.1-.52,1.35,1.35,0,0,1,.1-.57.36.36,0,0,1,.37-.19Zm-.13,5.38h-1.62v-1.49h1.62Zm2.73,0h-1.6v-1.49h1.6Z"/><path class="cls-4" d="M679.18,127a4.31,4.31,0,0,1,.79,1.21,3.13,3.13,0,0,1,.24,1.16,2.43,2.43,0,0,1-.81,1.88,3.27,3.27,0,0,1-2.3.75h-5.86l-.1-1.45h5.79a1.92,1.92,0,0,0,1.27-.38,1.23,1.23,0,0,0,.46-1,1.73,1.73,0,0,0-.15-.66,2.5,2.5,0,0,0-.44-.67l-3.91-4.41,1.07-1Z"/><path class="cls-4" d="M683.87,133.88a5.31,5.31,0,0,1-1.06,1.71,4.59,4.59,0,0,1-1.58,1.1,5,5,0,0,1-2,.39H678l-.1-1.43h1a4.45,4.45,0,0,0,1.8-.33,3.5,3.5,0,0,0,1.24-.89,3.85,3.85,0,0,0,.72-1.28,4.89,4.89,0,0,0,.23-1.49V126h1.34v5.67A6.05,6.05,0,0,1,683.87,133.88Zm.48-10.57h-1.77v-1.54h1.77Z"/><path class="cls-4" d="M689.18,132a3.3,3.3,0,0,1-1-.16,2.17,2.17,0,0,1-.9-.53,2.84,2.84,0,0,1-.62-1,4.54,4.54,0,0,1-.23-1.54V119h1.37v9.53a2.54,2.54,0,0,0,.39,1.46,1.4,1.4,0,0,0,1.27.58h.35c.31,0,.47.24.47.71s-.16.74-.47.74Z"/><path class="cls-4" d="M691.65,130.55a1.93,1.93,0,0,0,1.32-.44,1.57,1.57,0,0,0,.49-1.22V126h1.36v2.9a3.07,3.07,0,0,1-.82,2.3,3.11,3.11,0,0,1-2.26.81h-2a.37.37,0,0,1-.36-.17,1,1,0,0,1-.1-.52,1.21,1.21,0,0,1,.1-.57.35.35,0,0,1,.36-.19Zm.84,5.42h-1.76v-1.53h1.76Z"/><path class="cls-5" d="M174.79,134.79a8.41,8.41,0,0,0,1.55-.12,3.15,3.15,0,0,0,1-.36,1.35,1.35,0,0,0,.53-.56,1.63,1.63,0,0,0,.16-.7,1.25,1.25,0,0,0-.23-.74A.92.92,0,0,0,177,132h-3l.13-2.31h7.29c.3,0,.46.37.46,1.11s-.16,1.2-.46,1.2h-1.81a1,1,0,0,1,.37.55,3.12,3.12,0,0,1,.09.81,3.32,3.32,0,0,1-.25,1.22,3.28,3.28,0,0,1-.83,1.21,4.36,4.36,0,0,1-1.53.92,6.46,6.46,0,0,1-2.34.37h-2.23a4.64,4.64,0,0,1-3.65-1.45,5.7,5.7,0,0,1-1.3-4V127.9H170v3.68a4.87,4.87,0,0,0,.16,1.32,2.66,2.66,0,0,0,.54,1,2.34,2.34,0,0,0,1,.65,3.89,3.89,0,0,0,1.46.23Z"/><path class="cls-5" d="M183.32,129.69a1.23,1.23,0,0,0,1.41-1.37v-2.47h2.14v2.62a3.66,3.66,0,0,1-.88,2.64,3.36,3.36,0,0,1-2.48.89h-2.12a.36.36,0,0,1-.37-.28,2.87,2.87,0,0,1-.1-.83,3.31,3.31,0,0,1,.1-.91.37.37,0,0,1,.37-.29Zm2.9-6.3h-2.38v-2.14h2.38Z"/><path class="cls-5" d="M189.32,119h2.15v13h-2.15Z"/><path class="cls-5" d="M201.36,126.75a4.68,4.68,0,0,1,.83,1.29,3.37,3.37,0,0,1,.26,1.25,2.86,2.86,0,0,1-.2,1.06,2.24,2.24,0,0,1-.6.86,2.72,2.72,0,0,1-1,.58,4.11,4.11,0,0,1-1.37.21h-5.61l-.1-2.31h5.35c.69,0,1-.26,1-.78a1.16,1.16,0,0,0-.36-.77L196,124.06l1.66-1.55Z"/><path class="cls-5" d="M207.32,131.66a5.67,5.67,0,0,1-.38,2.12,5.47,5.47,0,0,1-1,1.73,4.73,4.73,0,0,1-3.56,1.57H201l-.1-2.29h.88a4.31,4.31,0,0,0,1.61-.26,3.11,3.11,0,0,0,1.08-.7,2.77,2.77,0,0,0,.61-1,3.8,3.8,0,0,0,.18-1.16v-5.81h2.15v2.5a1.2,1.2,0,0,0,.41,1,1.55,1.55,0,0,0,1,.34h.23c.3,0,.46.37.46,1.11s-.16,1.2-.46,1.2h-.23a2.74,2.74,0,0,1-.84-.14,1.37,1.37,0,0,1-.72-.55Z"/><path class="cls-5" d="M214.31,129.69a1.1,1.1,0,0,0,.79-.23.78.78,0,0,0,.22-.57,1.93,1.93,0,0,0-.11-.62,2,2,0,0,0-.5-.66l-4-4v-2.39l6.95-2.63.49,2.14-5.36,2,3.09,3.13a11,11,0,0,1,.86.95,5.35,5.35,0,0,1,.53.82,3.4,3.4,0,0,1,.26.78,4.28,4.28,0,0,1,.07.81,3,3,0,0,1-.24,1.26,2.36,2.36,0,0,1-.65.86,2.61,2.61,0,0,1-1,.49,4.2,4.2,0,0,1-1.2.16h-5.46a.36.36,0,0,1-.37-.28,2.56,2.56,0,0,1-.1-.83,3,3,0,0,1,.1-.91.36.36,0,0,1,.37-.29ZM210.64,118l6.32-2.39.34,1.51-6.56,2.52Z"/><path class="cls-5" d="M222.35,133.78a5.54,5.54,0,0,1-1.07,1.73,5,5,0,0,1-1.62,1.15,4.83,4.83,0,0,1-2,.42h-1.32l-.1-2.29h.88a4.22,4.22,0,0,0,1.6-.26,3.11,3.11,0,0,0,1.08-.7,2.52,2.52,0,0,0,.61-1,3.53,3.53,0,0,0,.19-1.16v-5.81h2.15v5.81A5.67,5.67,0,0,1,222.35,133.78Zm.41-10.39h-2.38v-2.14h2.38Z"/><path class="cls-5" d="M228.09,132a3.75,3.75,0,0,1-1.12-.16,2.25,2.25,0,0,1-.94-.53,2.85,2.85,0,0,1-.63-1,4.54,4.54,0,0,1-.23-1.54V119h2.14v9.26a1.63,1.63,0,0,0,.31,1.06,1.08,1.08,0,0,0,.91.39H229c.31,0,.47.37.47,1.11s-.16,1.2-.47,1.2Z"/><path class="cls-5" d="M231,129.69a1.23,1.23,0,0,0,1.4-1.37v-2.47h2.15v2.62a3.62,3.62,0,0,1-.89,2.64,3.34,3.34,0,0,1-2.48.89H229a.35.35,0,0,1-.36-.28,2.56,2.56,0,0,1-.1-.83,3,3,0,0,1,.1-.91.36.36,0,0,1,.36-.29Zm1.09,6.8h-2.37v-2.14H232Z"/></g></svg>