<svg xmlns="http://www.w3.org/2000/svg" xmlns:xlink="http://www.w3.org/1999/xlink" viewBox="0 0 1920 1080"><defs><style>.cls-1{fill:#061f6b;}.cls-2{fill:#fff;}.cls-3{fill:url(#linear-gradient);}.cls-4{fill:url(#linear-gradient-2);}.cls-5{fill:url(#linear-gradient-3);}.cls-6{fill:url(#linear-gradient-4);}.cls-7{fill:url(#linear-gradient-5);}.cls-8{fill:url(#linear-gradient-6);}.cls-9{fill:url(#linear-gradient-7);}.cls-10{fill:url(#linear-gradient-8);}.cls-11{fill:url(#linear-gradient-9);}.cls-12{fill:url(#linear-gradient-10);}</style><linearGradient id="linear-gradient" x1="4224" y1="1080" x2="4224" gradientTransform="matrix(-1, 0, 0, 1, 5952, 0)" gradientUnits="userSpaceOnUse"><stop offset="0" stop-color="#fff" stop-opacity="0"/><stop offset="0.51" stop-color="#fff"/><stop offset="1" stop-color="#fff" stop-opacity="0"/></linearGradient><linearGradient id="linear-gradient-2" x1="192" y1="1080" x2="192" y2="0" gradientTransform="matrix(1, 0, 0, 1, 0, 0)" xlink:href="#linear-gradient"/><linearGradient id="linear-gradient-3" x1="522.43" y1="13691.57" x2="2442.42" y2="13691.57" gradientTransform="translate(2442.43 14663.57) rotate(180)" xlink:href="#linear-gradient"/><linearGradient id="linear-gradient-4" x1="522.43" y1="14555.57" x2="2442.42" y2="14555.57" gradientTransform="translate(2442.43 14663.57) rotate(180)" xlink:href="#linear-gradient"/><linearGradient id="linear-gradient-5" x1="4992" y1="216" x2="4992" gradientTransform="matrix(-1, 0, 0, 1, 5952, 0)" gradientUnits="userSpaceOnUse"><stop offset="0" stop-color="#fff" stop-opacity="0"/><stop offset="1" stop-color="#fff"/></linearGradient><linearGradient id="linear-gradient-6" x1="960" y1="767.22" x2="960" y2="551.23" gradientTransform="matrix(1, 0, 0, -1, 0, 1631.22)" xlink:href="#linear-gradient-5"/><linearGradient id="linear-gradient-7" x1="2976" y1="1980" x2="2976" y2="1596" gradientTransform="matrix(0, -1, -1, 0, 3516, 3516)" xlink:href="#linear-gradient-5"/><linearGradient id="linear-gradient-8" x1="2976" y1="-1243.02" x2="2976" y2="-1627.03" gradientTransform="matrix(0, 1, 1, 0, 1627.03, -2436)" xlink:href="#linear-gradient-5"/><linearGradient id="linear-gradient-9" x1="-2617.27" y1="14123.66" x2="-2481.88" y2="14123.66" gradientTransform="translate(3509.58 -13583.74)" xlink:href="#linear-gradient"/><linearGradient id="linear-gradient-10" x1="-601.27" y1="16139.66" x2="-465.88" y2="16139.66" gradientTransform="translate(17099.66 1073.49) rotate(90)" xlink:href="#linear-gradient"/></defs><g id="Background"><rect class="cls-1" width="1920" height="1080"/></g><g id="Layer_2" data-name="Layer 2"><path class="cls-2" d="M745.14,580.82a10.59,10.59,0,0,1-1,5,7.7,7.7,0,0,1-2.73,3,10.47,10.47,0,0,1-4,1.44,31.57,31.57,0,0,1-4.84.36,14.73,14.73,0,0,1-5-.75,11.18,11.18,0,0,1-4.2-2.91l3-5.22a9.8,9.8,0,0,0,2.88,1.5,11.77,11.77,0,0,0,3.59.48,17,17,0,0,0,5.44-.69c1.29-.46,1.94-1,1.94-1.77q0-1.5-2.15-4.08a33.83,33.83,0,0,0-7.08-5.82l2.69-6.42a30.91,30.91,0,0,1,4.17,3,25.41,25.41,0,0,1,3.69,3.87,20.35,20.35,0,0,1,2.62,4.41A11.56,11.56,0,0,1,745.14,580.82Z"/><path class="cls-2" d="M766.33,590a11.51,11.51,0,0,1-1.92-.15,3.42,3.42,0,0,1-1.68-.81,13.05,13.05,0,0,1-1.56,4.65,21.79,21.79,0,0,1-3.25,4.35,38.36,38.36,0,0,1-4.64,4.14c-1.78,1.36-3.7,2.7-5.74,4l-4.62-4.38q3.32-2,6.07-4a48.91,48.91,0,0,0,4.68-3.78,21.65,21.65,0,0,0,3-3.36,5.14,5.14,0,0,0,1.08-2.76,9.08,9.08,0,0,0-1.08-3.45,37.37,37.37,0,0,0-2.76-4.71l4.55-4.56c.85,1.44,1.57,2.66,2.2,3.66a20.14,20.14,0,0,0,1.71,2.43,5.51,5.51,0,0,0,1.55,1.35,3.65,3.65,0,0,0,1.75.42h2.4V590Z"/><path class="cls-2" d="M784.86,590a9.56,9.56,0,0,1-4.07-.78,6.64,6.64,0,0,1-2.83-2.58,7.72,7.72,0,0,1-3,2.55,10.22,10.22,0,0,1-4.32.81h-2.58q-.66,0-1.08-.93a6.31,6.31,0,0,1-.42-2.49,6.55,6.55,0,0,1,.42-2.52q.42-1,1.08-1h2.46A17.1,17.1,0,0,0,773,583a3.71,3.71,0,0,0,1.62-.6,2.62,2.62,0,0,0,.93-1.26,7,7,0,0,0,.36-2.07V576.5l5-1.26q0,2.22.15,3.72a6.81,6.81,0,0,0,.63,2.43,2.76,2.76,0,0,0,1.38,1.32,6.36,6.36,0,0,0,2.46.39h2.82V590ZM774,602.06l-4.38-3.72,3.48-4.14,4.44,3.66Zm7.68,0-4.38-3.72,3.49-4.14,4.38,3.66Z"/><path class="cls-2" d="M805.14,579.74a10.35,10.35,0,0,1-.87,4.32,9.11,9.11,0,0,1-2.43,3.24,10.71,10.71,0,0,1-3.75,2,16,16,0,0,1-4.83.69h-4.92c-.43,0-.8-.31-1.08-.93a6.31,6.31,0,0,1-.42-2.49,6.55,6.55,0,0,1,.42-2.52c.28-.64.65-1,1.08-1h5.22a11.25,11.25,0,0,0,4.59-.72,4.52,4.52,0,0,0,2.13-1.8,10.68,10.68,0,0,0-3.09-5.22,62.69,62.69,0,0,0-7.77-6.48,33.33,33.33,0,0,1,.57-4.32,3.19,3.19,0,0,1,1-1.92q2-1.32,4.41-2.73t5-2.79q2.55-1.38,5-2.64T810,552.2l-.9,7.26q-3.9,1.74-7.14,3.42t-6.12,3.42Q805.14,573.68,805.14,579.74Zm2.58-28.86q-3.84,1.92-8.1,4.26t-9,5.4l.54-4.32q4.68-3.06,8.94-5.46t8.22-4.38Z"/><path class="cls-2" d="M842.7,590q-2.1-.06-3.87-.18t-2.49-.12a4.36,4.36,0,0,0-1.71.24q-.51.24-.51.54a.5.5,0,0,0,.24.45,4.08,4.08,0,0,0,1.08.33l4.08.78a7.2,7.2,0,0,1,3,1.14,2.86,2.86,0,0,1,1,2.46A6.6,6.6,0,0,1,842,600a13.2,13.2,0,0,1-4.11,3.24,23.48,23.48,0,0,1-5.64,2,27.16,27.16,0,0,1-6.12.72,17.67,17.67,0,0,1-5.79-.9,12.26,12.26,0,0,1-4.44-2.61,11.65,11.65,0,0,1-2.85-4.26,15.84,15.84,0,0,1-1-5.91,16.68,16.68,0,0,1,.9-5.64,32,32,0,0,1,2.64-5.46l4.26,1.74a26.52,26.52,0,0,0-2,4.68,13,13,0,0,0-.6,3.6,7.34,7.34,0,0,0,2.43,5.91q2.43,2.07,7,2.07a26.52,26.52,0,0,0,3.87-.27,30,30,0,0,0,3.3-.66,20.07,20.07,0,0,0,2.55-.84q1.08-.45,1.68-.75a4.51,4.51,0,0,0-1.92-.6L833,595.4a6.8,6.8,0,0,1-3.15-1.38,4.13,4.13,0,0,1-1.23-3.36,6.54,6.54,0,0,1,2.67-5.58q2.67-2,8.31-2h3.9V590Z"/><path class="cls-2" d="M858.72,571.58a5.24,5.24,0,0,1,3.21,1,9,9,0,0,1,2.4,2.76,15,15,0,0,1,1.53,3.81,17,17,0,0,1,.54,4.26,6.89,6.89,0,0,1-.48,2.46,9,9,0,0,1-1.26,2.28,6.68,6.68,0,0,1-1.8,1.65,4,4,0,0,1-2.1.63,9.55,9.55,0,0,1-2.13-.27,20.24,20.24,0,0,1-2.4-.72,18.11,18.11,0,0,1-4.65-2.55,8.41,8.41,0,0,1-3.12,2.4,10.51,10.51,0,0,1-4,.66h-1q-.66,0-1.08-1a6.17,6.17,0,0,1-.42-2.31,6.81,6.81,0,0,1,.42-2.43q.42-1.11,1.08-1.11h.72a13.32,13.32,0,0,0,3.12-.36,3.59,3.59,0,0,0,2.34-1.86q1-1.8,2-3.48a22.24,22.24,0,0,1,2.13-3,11,11,0,0,1,2.31-2.07A4.65,4.65,0,0,1,858.72,571.58Zm-.6,6.36a2.67,2.67,0,0,0-1.86,1,11.32,11.32,0,0,0-1.86,2.94,9.14,9.14,0,0,0,1.38.9,12.53,12.53,0,0,0,1.59.72A10,10,0,0,0,859,584a7.41,7.41,0,0,0,1.38.15,1.59,1.59,0,0,0,.78-.24,1.16,1.16,0,0,0,.54-.54,6.54,6.54,0,0,0-.27-1.83,6.81,6.81,0,0,0-.78-1.74,5.33,5.33,0,0,0-1.14-1.32A2.11,2.11,0,0,0,858.12,577.94Z"/><path class="cls-2" d="M898.68,584.12a12.33,12.33,0,0,1-1.2,5.31,20.69,20.69,0,0,1-3.27,4.89,37.33,37.33,0,0,1-4.89,4.56,74.87,74.87,0,0,1-6.12,4.32l-4.62-4.38q3.3-2,6.06-4a46.52,46.52,0,0,0,4.68-3.78,21.65,21.65,0,0,0,3-3.36A5.06,5.06,0,0,0,893.4,585a5.21,5.21,0,0,0-.3-1.53,18.67,18.67,0,0,0-.81-2,21.47,21.47,0,0,0-1.23-2.28q-.72-1.17-1.5-2.31l4.5-4.5a28.14,28.14,0,0,1,3.57,6.57A16,16,0,0,1,898.68,584.12Z"/><path class="cls-2" d="M911.52,589l-5.64,1.26V550.7l5.64-2.7Z"/><path class="cls-2" d="M932.94,590a11.68,11.68,0,0,1-1.92-.15,3.46,3.46,0,0,1-1.68-.81,12.67,12.67,0,0,1-1.56,4.65,22.12,22.12,0,0,1-3.24,4.35,38.49,38.49,0,0,1-4.65,4.14q-2.67,2-5.73,4l-4.62-4.38q3.3-2,6.06-4a46.52,46.52,0,0,0,4.68-3.78,21.65,21.65,0,0,0,3-3.36,5.06,5.06,0,0,0,1.08-2.76,8.9,8.9,0,0,0-1.08-3.45,36.19,36.19,0,0,0-2.76-4.71l4.56-4.56q1.26,2.16,2.19,3.66a21.34,21.34,0,0,0,1.71,2.43,5.53,5.53,0,0,0,1.56,1.35,3.61,3.61,0,0,0,1.74.42h2.4V590Z"/><path class="cls-2" d="M944.76,562.52a5.87,5.87,0,0,1,4,1.47,10.63,10.63,0,0,1,2.64,3.72,19.78,19.78,0,0,1,1.41,5,35.49,35.49,0,0,1,.42,5.34q0,6.3-3,9.12T940.68,590h-6q-.66,0-1.08-.93a6.14,6.14,0,0,1-.42-2.49,6.36,6.36,0,0,1,.42-2.52q.42-1,1.08-1h6.12a20.54,20.54,0,0,0,4.41-.48,4.8,4.8,0,0,0,3-1.56,1.46,1.46,0,0,0,.21-.78q0-.54,0-1.5a12.59,12.59,0,0,1-2.64.63,18.68,18.68,0,0,1-2.16.15q-6.72,0-6.72-7.08a11.33,11.33,0,0,1,.6-3.6,11.8,11.8,0,0,1,1.62-3.21,8.34,8.34,0,0,1,2.46-2.28A6,6,0,0,1,944.76,562.52Zm-4.14-3.78-4.38-3.66,3.48-4.14,4.44,3.6Zm3.54,9.72a2.56,2.56,0,0,0-2.1,1.08,3.66,3.66,0,0,0-.84,2.28,2,2,0,0,0,.66,1.47,3.06,3.06,0,0,0,2.16.63,11,11,0,0,0,2.22-.21,8,8,0,0,0,1.68-.51,7.77,7.77,0,0,0-1.38-3.39A3,3,0,0,0,944.16,568.46Zm4.14-9.72-4.38-3.66,3.48-4.14,4.38,3.6Z"/><path class="cls-2" d="M980.7,590a8.42,8.42,0,0,1-4.5-1,7.12,7.12,0,0,1-2.58-2.76,11.73,11.73,0,0,1-1.2-3.9,40.83,40.83,0,0,1-.36-4.47q-.12-2.76-.18-6.18t-.15-7q-.09-3.6-.24-7.2t-.39-6.72l5.58-2.7q0,3.36,0,6.93t.12,7.11q.09,3.54.18,7t.15,6.6q0,1.44.06,2.79a8.57,8.57,0,0,0,.42,2.4,3.34,3.34,0,0,0,1.17,1.65,4.07,4.07,0,0,0,2.43.6h2.4V590Z"/><path class="cls-2" d="M1012.86,590a18.73,18.73,0,0,1-3.18-.24,6.09,6.09,0,0,1-2.4-.93,7,7,0,0,1-1.86-2,14.76,14.76,0,0,1-1.56-3.36l-3.93,2.61a30.73,30.73,0,0,1-3.57,2,18.72,18.72,0,0,1-3.81,1.35,20.15,20.15,0,0,1-4.65.48h-4.26q-.66,0-1.08-.93a6.14,6.14,0,0,1-.42-2.49,6.36,6.36,0,0,1,.42-2.52q.42-1,1.08-1h4.44a26.57,26.57,0,0,0,4.17-.27,15.62,15.62,0,0,0,3.24-.9,30.09,30.09,0,0,0,3.39-1.62q1.8-1,4.56-2.43l-2.73-.84-2.49-.78-2-.6a5.09,5.09,0,0,0-1.26-.24,3.05,3.05,0,0,0-1.56.57,13.47,13.47,0,0,0-2.58,2.61L987,576.38a26.31,26.31,0,0,1,3.78-5.28,5.76,5.76,0,0,1,4.08-2.16,10.78,10.78,0,0,1,3.48.69l4.35,1.5q2.37.81,5.07,1.5a22.94,22.94,0,0,0,5.7.69h1.92l-1.32,6.12a18.93,18.93,0,0,0-3.39.42,14.79,14.79,0,0,0-3,1,9.37,9.37,0,0,0,1,1.32,2.77,2.77,0,0,0,1,.69,3.4,3.4,0,0,0,1.14.24q.63,0,1.47,0h5.88V590Zm-16.14,11.88-4.56-3.9,3.66-4.32,4.56,3.84Z"/><path class="cls-2" d="M1034.94,590a9.64,9.64,0,0,1-4.08-.78,6.67,6.67,0,0,1-2.82-2.58,7.72,7.72,0,0,1-3,2.55,10.22,10.22,0,0,1-4.32.81h-2.58q-.66,0-1.08-.93a6.14,6.14,0,0,1-.42-2.49,6.36,6.36,0,0,1,.42-2.52q.42-1,1.08-1h2.46a17.1,17.1,0,0,0,2.49-.15,3.71,3.71,0,0,0,1.62-.6,2.62,2.62,0,0,0,.93-1.26A7,7,0,0,0,1026,579V576.5l5-1.26q0,2.22.15,3.72a6.81,6.81,0,0,0,.63,2.43,2.76,2.76,0,0,0,1.38,1.32,6.32,6.32,0,0,0,2.46.39h2.82V590Zm-6.78-18-4.56-3.84,3.66-4.32,4.56,3.84Z"/><path class="cls-2" d="M1036.62,602.06l-4.38-3.72,3.48-4.14,4.44,3.66Zm9.36-20.58a3,3,0,0,0-.27-1,12.37,12.37,0,0,0-.78-1.53q-.51-.87-1.14-1.83t-1.35-1.86l4.5-4.74a19.17,19.17,0,0,1,3.36,5.55,14.67,14.67,0,0,1,1.08,5.13q0,4.32-2.4,6.57T1041.6,590h-3.18q-.66,0-1.08-.93a6.14,6.14,0,0,1-.42-2.49,6.36,6.36,0,0,1,.42-2.52q.42-1,1.08-1h3.18a10.57,10.57,0,0,0,3.18-.39Q1046,582.32,1046,581.48Zm-1.68,20.58-4.38-3.72,3.48-4.14,4.38,3.66Z"/><path class="cls-2" d="M1064.16,589l-5.64,1.26V550.7l5.64-2.7Z"/><path class="cls-2" d="M1096.68,584.12a12.33,12.33,0,0,1-1.2,5.31,20.69,20.69,0,0,1-3.27,4.89,37.33,37.33,0,0,1-4.89,4.56,74.87,74.87,0,0,1-6.12,4.32l-4.62-4.38q3.3-2,6.06-4a46.52,46.52,0,0,0,4.68-3.78,21.65,21.65,0,0,0,3-3.36,5.06,5.06,0,0,0,1.08-2.76,5.21,5.21,0,0,0-.3-1.53,18.67,18.67,0,0,0-.81-2,21.47,21.47,0,0,0-1.23-2.28q-.72-1.17-1.5-2.31l4.5-4.5a28.14,28.14,0,0,1,3.57,6.57A16,16,0,0,1,1096.68,584.12Z"/><path class="cls-2" d="M1124.46,580.82a10.59,10.59,0,0,1-1,5,7.78,7.78,0,0,1-2.73,3,10.45,10.45,0,0,1-4,1.44,31.35,31.35,0,0,1-4.83.36,14.83,14.83,0,0,1-5-.75,11.34,11.34,0,0,1-4.2-2.91l3-5.22a9.93,9.93,0,0,0,2.88,1.5,11.89,11.89,0,0,0,3.6.48,16.9,16.9,0,0,0,5.43-.69q2-.69,2-1.77,0-1.5-2.16-4.08a33.3,33.3,0,0,0-7.08-5.82l2.7-6.42a30.91,30.91,0,0,1,4.17,3,25.9,25.9,0,0,1,3.69,3.87,20.3,20.3,0,0,1,2.61,4.41A11.58,11.58,0,0,1,1124.46,580.82Z"/><path class="cls-2" d="M1163.22,581.18a6.12,6.12,0,0,1-.45,2.19,8.56,8.56,0,0,1-1.23,2.16,6.71,6.71,0,0,1-1.83,1.62,4.35,4.35,0,0,1-2.25.63h-7.2c-1.36,0-2.22.39-2.55,1.17a9.22,9.22,0,0,0-.51,3.51v21.06h-4.74q-.12-5.34-.18-9.15t-.09-6.33q0-2.52,0-3.9v-1.86a18.26,18.26,0,0,1,1-6.93,6.2,6.2,0,0,1,3.48-3.39,19.4,19.4,0,0,1,.39-3.81,14.15,14.15,0,0,1,1.2-3.57,7.85,7.85,0,0,1,2.07-2.64,4.8,4.8,0,0,1,3.12-1,7.61,7.61,0,0,1,3.57.93,11.72,11.72,0,0,1,3.15,2.43,12.93,12.93,0,0,1,2.22,3.3A8.45,8.45,0,0,1,1163.22,581.18Zm-4.74.06a3.67,3.67,0,0,0-.66-1.47,8.19,8.19,0,0,0-1.26-1.38,6.52,6.52,0,0,0-1.59-1,4.08,4.08,0,0,0-1.65-.39q-2.16,0-2.28,4.92c.39,0,.88.07,1.44.09s1.11,0,1.68,0H1157a2,2,0,0,0,.9-.21A1.07,1.07,0,0,0,1158.48,581.24Z"/><path class="cls-2" d="M1179.84,590a8.42,8.42,0,0,1-4.5-1,7,7,0,0,1-2.58-2.76,11.5,11.5,0,0,1-1.2-3.9,38.5,38.5,0,0,1-.36-4.47c-.08-1.84-.15-3.9-.18-6.18s-.09-4.62-.15-7-.15-4.8-.24-7.2-.24-4.64-.39-6.72l5.58-2.7q0,3.36,0,6.93T1176,562q.09,3.54.18,7c.06,2.32.1,4.52.15,6.6q0,1.44.06,2.79a8.22,8.22,0,0,0,.42,2.4,3.34,3.34,0,0,0,1.17,1.65,4.07,4.07,0,0,0,2.43.6h2.4V590Z"/><path class="cls-2" d="M1190.34,581.48a3,3,0,0,0-.27-1,14,14,0,0,0-.78-1.53q-.51-.87-1.14-1.83t-1.35-1.86l4.5-4.74a19.17,19.17,0,0,1,3.36,5.55,14.67,14.67,0,0,1,1.08,5.13c0,2.88-.81,5.07-2.4,6.57S1189.28,590,1186,590h-3.18q-.66,0-1.08-.93a6.14,6.14,0,0,1-.42-2.49,6.36,6.36,0,0,1,.42-2.52q.42-1,1.08-1H1186a10.62,10.62,0,0,0,3.18-.39Q1190.34,582.32,1190.34,581.48Zm-.3-14.16-4.56-3.84,3.66-4.32,4.56,3.84Z"/><path class="cls-2" d="M919.22,489.36a6.41,6.41,0,0,0-1-.4,3.47,3.47,0,0,0-1-.14,4,4,0,0,0-1.85.46,7.53,7.53,0,0,0-1.68,1.14,6.17,6.17,0,0,0-1.24,1.44,2.66,2.66,0,0,0-.48,1.37.73.73,0,0,0,.43.64,6.54,6.54,0,0,0,1.43.39l1.71.28c.55.09,1,.17,1.46.26a3.29,3.29,0,0,1,1.85.82,2.35,2.35,0,0,1,.52,1.64,3.55,3.55,0,0,1-1,2.28,9.46,9.46,0,0,1-2.48,2,15.23,15.23,0,0,1-7.42,2,9.45,9.45,0,0,1-3.09-.48,6.51,6.51,0,0,1-2.37-1.4,6.23,6.23,0,0,1-1.52-2.22,7.76,7.76,0,0,1-.54-3,9.69,9.69,0,0,1,.41-2.91,12.1,12.1,0,0,1,1.32-2.69l1.47.71a11.23,11.23,0,0,0-1,2.21,6.77,6.77,0,0,0-.36,2.14,4.88,4.88,0,0,0,1.54,3.79,6.23,6.23,0,0,0,4.35,1.39,12.71,12.71,0,0,0,3.28-.4,13.59,13.59,0,0,0,2.67-1,8.67,8.67,0,0,0,1.86-1.15,3.16,3.16,0,0,0,.86-.94.61.61,0,0,0-.3-.4,3.93,3.93,0,0,0-1.07-.31l-2.95-.48a7.38,7.38,0,0,1-1.16-.25,2.67,2.67,0,0,1-.92-.47,2,2,0,0,1-.59-.78,3.16,3.16,0,0,1-.21-1.25,5.56,5.56,0,0,1,.66-2.54,9.52,9.52,0,0,1,4.06-4.11,5.51,5.51,0,0,1,2.55-.68,4,4,0,0,1,1.31.21,4.76,4.76,0,0,1,1.25.69Z"/><path class="cls-2" d="M928.85,495.25a6.1,6.1,0,0,1-.64,2.72,11,11,0,0,1-1.76,2.54,20.48,20.48,0,0,1-2.66,2.42c-1,.79-2.12,1.58-3.29,2.37l-1.63-1.57a40.34,40.34,0,0,0,3.42-2.35,27.78,27.78,0,0,0,2.54-2.21,10.89,10.89,0,0,0,1.59-1.94,3.16,3.16,0,0,0,.54-1.57,3.42,3.42,0,0,0-.16-1,10.45,10.45,0,0,0-.43-1.15c-.18-.4-.4-.82-.64-1.25s-.51-.84-.78-1.24l1.63-1.64a12.9,12.9,0,0,1,1.72,3.12A7.87,7.87,0,0,1,928.85,495.25Z"/><path class="cls-2" d="M937.46,498a4.45,4.45,0,0,1-2.39-.54,3.45,3.45,0,0,1-1.25-1.41,6,6,0,0,1-.48-2c-.05-.74-.09-1.5-.11-2.27,0-1.09-.07-2.26-.08-3.53s0-2.57-.06-3.89-.07-2.65-.11-4-.11-2.6-.19-3.82l2-1c.07,1.73.11,3.28.13,4.64s0,2.65,0,3.84,0,2.34,0,3.42,0,2.22.06,3.4c0,.64,0,1.24.08,1.8a4.86,4.86,0,0,0,.29,1.48,2.19,2.19,0,0,0,.75,1,2.47,2.47,0,0,0,1.44.37h1V498Z"/><path class="cls-2" d="M947.38,492.88a4.76,4.76,0,0,1-.47,2.13,4.66,4.66,0,0,1-1.28,1.61,5.64,5.64,0,0,1-2,1,9,9,0,0,1-2.55.35h-2.43a.65.65,0,0,1-.54-.35,1.65,1.65,0,0,1-.23-.9,1.57,1.57,0,0,1,.23-.88.65.65,0,0,1,.54-.33h2.59a5.33,5.33,0,0,0,3.14-.76,2.72,2.72,0,0,0,1.22-1.61,4.38,4.38,0,0,0-.44-1.47,7.46,7.46,0,0,0-1.1-1.64,23.78,23.78,0,0,0-1.82-1.87c-.73-.67-1.59-1.41-2.6-2.22a13,13,0,0,1,.28-1.86,1.3,1.3,0,0,1,.46-.77c.56-.36,1.21-.76,2-1.21s1.54-.9,2.37-1.36,1.69-.92,2.58-1.39l2.57-1.35-.32,2.59q-2.34,1.13-4.33,2.23c-1.34.73-2.47,1.41-3.41,2A26.22,26.22,0,0,1,946,489.2,6.38,6.38,0,0,1,947.38,492.88Z"/><path class="cls-2" d="M970.51,488a11.39,11.39,0,0,1,1.62,3.23,11.19,11.19,0,0,1,.53,3.3,10.3,10.3,0,0,1-.61,3.6,7.68,7.68,0,0,1-4.58,4.59,10.5,10.5,0,0,1-3.81.64,9,9,0,0,1-3-.48,6.49,6.49,0,0,1-2.33-1.39,6.18,6.18,0,0,1-1.52-2.24,7.7,7.7,0,0,1-.55-3,9.18,9.18,0,0,1,.42-2.88,12,12,0,0,1,1.31-2.72l1.47.73a10.43,10.43,0,0,0-1,2.2,6.87,6.87,0,0,0-.35,2.16,4.81,4.81,0,0,0,1.53,3.77,6.17,6.17,0,0,0,4.26,1.38,8.67,8.67,0,0,0,2.78-.43,5.85,5.85,0,0,0,2.12-1.24,5.62,5.62,0,0,0,1.34-1.93,6.42,6.42,0,0,0,.48-2.51,8.45,8.45,0,0,0-.46-2.53,10.67,10.67,0,0,0-1.4-2.75Zm-6.43.61-2-1.66,1.44-1.7,1.95,1.63Z"/><path class="cls-2" d="M978.64,497.68l-2,.48v-21.6l2-1Z"/><path class="cls-2" d="M991.21,498a8.58,8.58,0,0,1-1.08,2.46,12.85,12.85,0,0,1-1.83,2.24,23.5,23.5,0,0,1-2.44,2.12c-.91.68-1.89,1.36-2.93,2l-1.6-1.53a42.15,42.15,0,0,0,5.53-4.13,9.44,9.44,0,0,0,2.66-3.42,9.51,9.51,0,0,1-1.71.33,12.56,12.56,0,0,1-1.36.08,3.51,3.51,0,0,1-2.4-.83,3.13,3.13,0,0,1-1-2.5,7.23,7.23,0,0,1,1.13-3.82,5.09,5.09,0,0,1,1.27-1.34,2.63,2.63,0,0,1,1.6-.53,3.12,3.12,0,0,1,1.79.54,4.71,4.71,0,0,1,1.34,1.43,7,7,0,0,1,.85,2,11.71,11.71,0,0,1,.37,2.37h2.4V498Zm-1.63-2.43a8.39,8.39,0,0,0-.32-1.57,5.72,5.72,0,0,0-.56-1.3,2.84,2.84,0,0,0-.8-.88,1.8,1.8,0,0,0-1-.32,1.37,1.37,0,0,0-.81.26,2.59,2.59,0,0,0-.66.66,3.32,3.32,0,0,0-.45.88,3.13,3.13,0,0,0-.16.92,1.52,1.52,0,0,0,.53,1.24,2.34,2.34,0,0,0,1.49.43c.45,0,.93,0,1.44-.08A9.88,9.88,0,0,0,989.58,495.57Z"/><path class="cls-2" d="M1003,498a5.22,5.22,0,0,1-2.38-.48,3.32,3.32,0,0,1-1.49-1.63,4.26,4.26,0,0,1-1.58,1.6,5,5,0,0,1-2.39.51h-1.31a.66.66,0,0,1-.55-.35,1.74,1.74,0,0,1-.22-.9,1.66,1.66,0,0,1,.22-.88.66.66,0,0,1,.55-.33h1.31a3.68,3.68,0,0,0,2.32-.6,3,3,0,0,0,.85-2.25l0-1.22,1.79-.45a15.86,15.86,0,0,0,.13,2.15,3.55,3.55,0,0,0,.48,1.39,1.94,1.94,0,0,0,1,.75,4.78,4.78,0,0,0,1.61.23h1.25V498Zm-3.78-9.44-2-1.66,1.44-1.7,1.95,1.63Z"/><path class="cls-2" d="M1007.44,492a5,5,0,0,1,.42-2.06,4.92,4.92,0,0,1,1.13-1.63,5.16,5.16,0,0,1,1.65-1.07,5,5,0,0,1,2-.39,5.93,5.93,0,0,1,2.3.45,9.28,9.28,0,0,1,2.12,1.25l-.8,1.6a8.79,8.79,0,0,0-1.78-.71,7.61,7.61,0,0,0-1.84-.22,3.9,3.9,0,0,0-1.3.22,3.43,3.43,0,0,0-1,.6,2.77,2.77,0,0,0-.69.84,2.09,2.09,0,0,0-.25,1,2.42,2.42,0,0,0,.3,1.16,3.91,3.91,0,0,0,.75,1,4.27,4.27,0,0,0,1,.68,1.81,1.81,0,0,0,.84.26,13.44,13.44,0,0,0,2.6-.35c1.09-.24,2.5-.6,4.25-1.09l-.22,2.3a44.13,44.13,0,0,1-6.55,1.67,36.63,36.63,0,0,1-6.06.51h-1.6a.65.65,0,0,1-.54-.35,1.65,1.65,0,0,1-.23-.9,1.57,1.57,0,0,1,.23-.88.65.65,0,0,1,.54-.33h1.63l1.14,0,1.61-.08a5,5,0,0,1-1.18-1.66A4.85,4.85,0,0,1,1007.44,492Z"/></g><g id="Guids_and_Grids" data-name="Guids and Grids"><path d="M960,456h0a15.6,15.6,0,0,1-15.6-15.6V424.79h31.2V440.4A15.6,15.6,0,0,1,960,456Z"/><path class="cls-2" d="M960,446V434l-3.3,2.42v-1.9l3.4-2.46h1.64V446Z"/><path d="M960,638.66h0a15.6,15.6,0,0,1-15.6-15.61v-15.6h31.2v15.6A15.6,15.6,0,0,1,960,638.66Z"/><path class="cls-2" d="M955.85,628.66V627.2l5.62-6.94a3.1,3.1,0,0,0,.76-2A2.05,2.05,0,0,0,960,616a2.23,2.23,0,0,0-2.36,2.52h-1.76a3.86,3.86,0,0,1,4.1-4.06,4,4,0,0,1,3.4,1.6,3.59,3.59,0,0,1,.64,2.16,4.56,4.56,0,0,1-1.18,3l-4.72,5.86h6.12v1.6Z"/><rect class="cls-3" x="1727.5" width="1" height="1080"/><rect class="cls-4" x="191.5" width="1" height="1080"/><rect class="cls-5" y="971.5" width="1920" height="1"/><rect class="cls-6" y="107.5" width="1920" height="1"/><rect class="cls-7" x="959.5" width="1" height="216"/><rect class="cls-8" x="959.5" y="864" width="1" height="216"/><rect class="cls-9" x="1536" y="539.34" width="384" height="1.33"/><rect class="cls-10" y="539.34" width="384" height="1.33"/><rect class="cls-11" x="892.31" y="539.42" width="135.39" height="1"/><rect class="cls-12" x="959.5" y="472.23" width="1" height="135.39"/></g></svg>