<svg xmlns="http://www.w3.org/2000/svg" xmlns:xlink="http://www.w3.org/1999/xlink" viewBox="0 0 1920 1080"><defs><style>.cls-1{fill:#061f6b;}.cls-2{fill:#fff;}.cls-3{fill:url(#linear-gradient);}.cls-4{fill:url(#linear-gradient-2);}.cls-5{fill:url(#linear-gradient-3);}.cls-6{fill:url(#linear-gradient-4);}.cls-7{fill:url(#linear-gradient-5);}.cls-8{fill:url(#linear-gradient-6);}.cls-9{fill:url(#linear-gradient-7);}.cls-10{fill:url(#linear-gradient-8);}.cls-11{fill:url(#linear-gradient-9);}.cls-12{fill:url(#linear-gradient-10);}</style><linearGradient id="linear-gradient" x1="192" y1="1080" x2="192" gradientTransform="matrix(-1, 0, 0, 1, 1920, 0)" gradientUnits="userSpaceOnUse"><stop offset="0" stop-color="#fff" stop-opacity="0"/><stop offset="0.51" stop-color="#fff"/><stop offset="1" stop-color="#fff" stop-opacity="0"/></linearGradient><linearGradient id="linear-gradient-2" x1="960" y1="216" x2="960" gradientTransform="matrix(-1, 0, 0, 1, 1920, 0)" gradientUnits="userSpaceOnUse"><stop offset="0" stop-color="#fff" stop-opacity="0"/><stop offset="1" stop-color="#fff"/></linearGradient><linearGradient id="linear-gradient-3" x1="960" y1="767.22" x2="960" y2="551.23" gradientTransform="matrix(1, 0, 0, -1, 0, 1631.22)" xlink:href="#linear-gradient-2"/><linearGradient id="linear-gradient-4" x1="960" y1="-36" x2="960" y2="-420" gradientTransform="matrix(0, -1, -1, 0, 1500, 1500)" xlink:href="#linear-gradient-2"/><linearGradient id="linear-gradient-5" x1="960" y1="772.98" x2="960" y2="388.97" gradientTransform="matrix(0, 1, 1, 0, -388.97, -420)" xlink:href="#linear-gradient-2"/><linearGradient id="linear-gradient-6" x1="192" y1="1080" x2="192" y2="0" gradientTransform="matrix(1, 0, 0, 1, 0, 0)" xlink:href="#linear-gradient"/><linearGradient id="linear-gradient-7" x1="-3509.57" y1="13691.57" x2="-1589.58" y2="13691.57" gradientTransform="translate(-1589.57 14663.57) rotate(180)" xlink:href="#linear-gradient"/><linearGradient id="linear-gradient-8" x1="-2617.27" y1="14123.66" x2="-2481.88" y2="14123.66" gradientTransform="translate(3509.58 -13583.74)" xlink:href="#linear-gradient"/><linearGradient id="linear-gradient-9" x1="-2617.27" y1="14123.66" x2="-2481.88" y2="14123.66" gradientTransform="translate(15083.66 3089.49) rotate(90)" xlink:href="#linear-gradient"/><linearGradient id="linear-gradient-10" x1="-3509.57" y1="14555.57" x2="-1589.58" y2="14555.57" gradientTransform="translate(-1589.57 14663.57) rotate(180)" xlink:href="#linear-gradient"/></defs><g id="Background"><rect class="cls-1" width="1920" height="1080"/></g><g id="Layer_2" data-name="Layer 2"><path class="cls-2" d="M906.38,709.31a7.56,7.56,0,0,1-5.56,1.89h-5.6V720h-2.85V697.32h8.42c2.65,0,4.54.73,5.75,2a7.75,7.75,0,0,1-.16,9.95Zm-5.66-9.4h-5.5v8.7h5.53c3,0,4.58-1.41,4.58-4.45C905.33,701.28,903.54,699.91,900.72,699.91Z"/><path class="cls-2" d="M919.44,706.34a4.42,4.42,0,0,0-3.07,1.28c-1.31,1.25-1.47,3.49-1.47,5.18V720h-2.69V703.81h2.4l.22,2.85a5,5,0,0,1,4.84-2.95,9.32,9.32,0,0,1,1.28.1v2.66A7.7,7.7,0,0,0,919.44,706.34Z"/><path class="cls-2" d="M937.2,712.8H925.75a6,6,0,0,0,1.56,4.07,4.61,4.61,0,0,0,6,.09,3.51,3.51,0,0,0,1-1.76h2.65a5.93,5.93,0,0,1-2.49,4,7.48,7.48,0,0,1-4.13,1.22,6.92,6.92,0,0,1-5.38-2.43,9.21,9.21,0,0,1-2-6,9.92,9.92,0,0,1,1.24-5.18,6.93,6.93,0,0,1,6.12-3.39,6.49,6.49,0,0,1,4.92,2.07,8.32,8.32,0,0,1,2.05,5.7Zm-3.74-5.63a3.84,3.84,0,0,0-3.2-1.47c-3,0-4.39,2.4-4.45,4.77h8.64A5.65,5.65,0,0,0,933.46,707.17Z"/><path class="cls-2" d="M952.53,718.59a8.49,8.49,0,0,1-10.53,0,5.23,5.23,0,0,1-1.57-3.71h2.72a3.19,3.19,0,0,0,1.32,2.53,5.14,5.14,0,0,0,2.91.74,4.4,4.4,0,0,0,3-.9,2.28,2.28,0,0,0,.8-1.76c0-1.22-.86-2.08-2.53-2.3-.7-.1-2.52-.32-3.64-.48-2.43-.39-4-1.89-4-4.36a4.66,4.66,0,0,1,1.34-3.16,6.61,6.61,0,0,1,4.77-1.79,6.42,6.42,0,0,1,5.15,2,4.61,4.61,0,0,1,1.15,3.11h-2.71a3,3,0,0,0-.93-2,3.79,3.79,0,0,0-2.66-.86,4.2,4.2,0,0,0-1.89.32,2.42,2.42,0,0,0-1.63,2.17c0,1.35.83,1.92,2.18,2.11.89.13,2.17.26,3.9.55a4.61,4.61,0,0,1,2.85,7.77Z"/><path class="cls-2" d="M971.5,712.8H960.05a6,6,0,0,0,1.57,4.07,4.6,4.6,0,0,0,6,.09,3.37,3.37,0,0,0,1-1.76h2.66a6,6,0,0,1-2.5,4,7.44,7.44,0,0,1-4.13,1.22,6.9,6.9,0,0,1-5.37-2.43,9.16,9.16,0,0,1-2-6,9.83,9.83,0,0,1,1.25-5.18,6.92,6.92,0,0,1,6.11-3.39,6.52,6.52,0,0,1,4.93,2.07,8.37,8.37,0,0,1,2,5.7Zm-3.74-5.63a3.83,3.83,0,0,0-3.2-1.47c-2.94,0-4.38,2.4-4.45,4.77h8.64A5.65,5.65,0,0,0,967.76,707.17Z"/><path class="cls-2" d="M986.48,720V709.73c0-2.43-1-3.87-3.55-3.87a4,4,0,0,0-3.52,2.49,10.59,10.59,0,0,0-.58,4.13V720h-2.72V703.81h2.37l.22,2.43a5.5,5.5,0,0,1,4.9-2.84c3.68,0,5.6,2.2,5.6,6V720Z"/><path class="cls-2" d="M1000,720.23c-3.48,0-4.44-2.21-4.44-4.39v-9.69H992.4v-2.34h3.14v-4.13l2.72-.64v4.77h4.8v2.34h-4.8v9.37c0,1.57.67,2.21,2.17,2.21a20,20,0,0,0,2.79-.29v2.34A11.84,11.84,0,0,1,1000,720.23Z"/><path class="cls-2" d="M1017.87,718.59a8.49,8.49,0,0,1-10.53,0,5.22,5.22,0,0,1-1.56-3.71h2.72a3.15,3.15,0,0,0,1.31,2.53,5.16,5.16,0,0,0,2.91.74,4.44,4.44,0,0,0,3-.9,2.31,2.31,0,0,0,.8-1.76c0-1.22-.87-2.08-2.53-2.3-.71-.1-2.53-.32-3.65-.48-2.43-.39-4-1.89-4-4.36a4.63,4.63,0,0,1,1.35-3.16,6.57,6.57,0,0,1,4.76-1.79,6.46,6.46,0,0,1,5.16,2,4.66,4.66,0,0,1,1.15,3.11h-2.72a2.92,2.92,0,0,0-.93-2,3.79,3.79,0,0,0-2.66-.86,4.14,4.14,0,0,0-1.88.32,2.42,2.42,0,0,0-1.64,2.17c0,1.35.84,1.92,2.18,2.11.9.13,2.18.26,3.9.55a4.61,4.61,0,0,1,2.85,7.77Z"/></g><g id="Guids_and_Grids" data-name="Guids and Grids"><rect class="cls-3" x="1727.5" width="1" height="1080"/><rect class="cls-4" x="959.5" width="1" height="216"/><rect class="cls-5" x="959.5" y="864" width="1" height="216"/><rect class="cls-6" x="1536" y="539.34" width="384" height="1.33"/><rect class="cls-7" y="539.34" width="384" height="1.33"/><rect class="cls-8" x="191.5" width="1" height="1080"/><rect class="cls-9" y="971.5" width="1920" height="1"/><rect class="cls-10" x="892.31" y="539.42" width="135.39" height="1"/><rect class="cls-11" x="959.5" y="472.23" width="1" height="135.39"/><rect class="cls-12" y="107.5" width="1920" height="1"/><path d="M1035,684.6h0a15.59,15.59,0,0,1-15.6-15.6V653.4h31.2V669A15.59,15.59,0,0,1,1035,684.6Z"/><path class="cls-2" d="M1035,674.61v-12l-3.3,2.42v-1.9l3.4-2.46h1.64v13.9Z"/></g><g id="Graphics"><polygon class="cls-2" points="775 600 684.75 600 748.53 500 695 500 695 480 785.01 480 721.23 580 775 580 775 600"/><polygon class="cls-2" points="884.76 600 805.02 600 804.74 480 884.76 480 884.76 500 824.78 500 824.98 580 884.76 580 884.76 600"/><rect class="cls-2" x="814.76" y="530" width="70" height="20"/><polygon class="cls-2" points="995 600 915 600 915 480 995 480 995 500 935 500 935 580 995 580 995 600"/><rect class="cls-2" x="925" y="530" width="70" height="20"/><polygon class="cls-2" points="1105 600 1025 600 1025 480 1105 480 1105 500 1045 500 1045 580 1105 580 1105 600"/><rect class="cls-2" x="1035" y="530" width="70" height="20"/><polygon class="cls-2" points="1225 600 1205.08 600 1155 518.27 1155 600 1135 600 1135 480 1155 480 1205 561.59 1205 480 1225 480 1225 600"/></g></svg>