<svg xmlns="http://www.w3.org/2000/svg" xmlns:xlink="http://www.w3.org/1999/xlink" viewBox="0 0 1920 1080"><defs><style>.cls-1{fill:#061f6b;}.cls-2{fill:url(#linear-gradient);}.cls-3{fill:url(#linear-gradient-2);}.cls-4{fill:#fff;}.cls-5{fill:url(#linear-gradient-3);}.cls-6{fill:url(#linear-gradient-4);}.cls-7{fill:url(#linear-gradient-5);}.cls-8{fill:url(#linear-gradient-6);}.cls-9{fill:url(#linear-gradient-7);}.cls-10{fill:url(#linear-gradient-8);}.cls-11{fill:url(#linear-gradient-9);}.cls-12{fill:url(#linear-gradient-10);}.cls-13{fill:url(#linear-gradient-11);}</style><linearGradient id="linear-gradient" x1="12288" y1="1080" x2="12288" gradientTransform="matrix(-1, 0, 0, 1, 14016, 0)" gradientUnits="userSpaceOnUse"><stop offset="0" stop-color="#fff" stop-opacity="0"/><stop offset="0.51" stop-color="#fff"/><stop offset="1" stop-color="#fff" stop-opacity="0"/></linearGradient><linearGradient id="linear-gradient-2" x1="192" y1="1080" x2="192" y2="0" gradientTransform="matrix(1, 0, 0, 1, 0, 0)" xlink:href="#linear-gradient"/><linearGradient id="linear-gradient-3" x1="8586.42" y1="13691.57" x2="10506.42" y2="13691.57" gradientTransform="translate(10506.43 14663.57) rotate(180)" xlink:href="#linear-gradient"/><linearGradient id="linear-gradient-4" x1="8586.42" y1="14555.57" x2="10506.42" y2="14555.57" gradientTransform="translate(10506.43 14663.57) rotate(180)" xlink:href="#linear-gradient"/><linearGradient id="linear-gradient-5" x1="13056" y1="216" x2="13056" gradientTransform="matrix(-1, 0, 0, 1, 14016, 0)" gradientUnits="userSpaceOnUse"><stop offset="0" stop-color="#fff" stop-opacity="0"/><stop offset="1" stop-color="#fff"/></linearGradient><linearGradient id="linear-gradient-6" x1="960" y1="767.22" x2="960" y2="551.23" gradientTransform="matrix(1, 0, 0, -1, 0, 1631.22)" xlink:href="#linear-gradient-5"/><linearGradient id="linear-gradient-7" x1="7008" y1="6012" x2="7008" y2="5628" gradientTransform="matrix(0, -1, -1, 0, 7548, 7548)" xlink:href="#linear-gradient-5"/><linearGradient id="linear-gradient-8" x1="7008" y1="-5275.02" x2="7008" y2="-5659.03" gradientTransform="matrix(0, 1, 1, 0, 5659.03, -6468)" xlink:href="#linear-gradient-5"/><linearGradient id="linear-gradient-9" x1="-2617.27" y1="14123.66" x2="-2481.88" y2="14123.66" gradientTransform="translate(3509.58 -13583.74)" xlink:href="#linear-gradient"/><linearGradient id="linear-gradient-10" x1="3430.73" y1="20171.66" x2="3566.12" y2="20171.66" gradientTransform="translate(21131.66 -2958.51) rotate(90)" xlink:href="#linear-gradient"/><linearGradient id="linear-gradient-11" x1="8586.42" y1="13776.12" x2="10506.42" y2="13776.12" gradientTransform="translate(10506.43 14663.57) rotate(180)" xlink:href="#linear-gradient"/></defs><g id="Background"><rect class="cls-1" width="1920" height="1080"/></g><g id="Guids_and_Grids" data-name="Guids and Grids"><rect class="cls-2" x="1727.5" width="1" height="1080"/><rect class="cls-3" x="191.5" width="1" height="1080"/><path class="cls-4" d="M1017.55,698.11H1028l2.16,5.89h3.6l-9.19-24h-3.31L1012,704h3.34Zm5.3-13.93,4.12,11.18h-8.37Z"/><path class="cls-4" d="M1036.06,686.86V704h3v-7.3a8.79,8.79,0,0,1,1.31-5.08,4.07,4.07,0,0,1,3.5-1.88h1.35v-2.88h-1.32A5.3,5.3,0,0,0,1039,690v-3.11Z"/><path class="cls-4" d="M1054.24,700.85a2.83,2.83,0,0,1-.48-1.89v-9.59h4.32v-2.51h-4.32v-5.52h-3v5.52h-3v2.51h3v10a4.62,4.62,0,0,0,1.21,3.44,4.78,4.78,0,0,0,3.5,1.18h3.08v-2.61h-2.61A2.12,2.12,0,0,1,1054.24,700.85Z"/><rect class="cls-4" x="1060.85" y="686.86" width="3.05" height="17.14"/><rect class="cls-4" x="1060.85" y="680" width="3.05" height="4.08"/><path class="cls-4" d="M1075.68,694.06l-2.74-.45a4,4,0,0,1-2-.79,2,2,0,0,1-.63-1.57,2,2,0,0,1,.93-1.74,4.24,4.24,0,0,1,2.52-.66,4.34,4.34,0,0,1,2.71.76,4.42,4.42,0,0,1,1.38,2.52l2.81-.4a6,6,0,0,0-2.17-3.92,7.41,7.41,0,0,0-4.69-1.37,7.32,7.32,0,0,0-4.69,1.39,4.37,4.37,0,0,0-1.76,3.58,4.24,4.24,0,0,0,1.3,3.22,6.89,6.89,0,0,0,3.76,1.62l2.46.39c2,.27,3,1.09,3,2.46a2.59,2.59,0,0,1-.93,2.17,4.28,4.28,0,0,1-2.7.74,4.61,4.61,0,0,1-3.09-.91,4.18,4.18,0,0,1-1.3-2.79l-3,.45a5.48,5.48,0,0,0,2.14,4.14,8.42,8.42,0,0,0,5.29,1.52,7.51,7.51,0,0,0,4.89-1.48,4.92,4.92,0,0,0,1.79-4Q1080.89,694.9,1075.68,694.06Z"/><path class="cls-4" d="M1086,702.82a4.8,4.8,0,0,0,3.5,1.18h3.08v-2.61h-2.61a2.12,2.12,0,0,1-1.65-.54,2.83,2.83,0,0,1-.48-1.89v-9.59h4.32v-2.51h-4.32v-5.52h-3v5.52h-3v2.51h3v10A4.61,4.61,0,0,0,1086,702.82Z"/><rect class="cls-4" x="1094.91" y="680" width="3.05" height="4.08"/><rect class="cls-4" x="1094.91" y="686.86" width="3.05" height="17.14"/><path class="cls-4" d="M1116.63,698l-3-.35a4.75,4.75,0,0,1-1.41,3,4.87,4.87,0,0,1-6.73-.59,7.36,7.36,0,0,1-1.3-4.64,7.72,7.72,0,0,1,1.29-4.76,4.29,4.29,0,0,1,3.61-1.69q3.89,0,4.51,4.05l3.11-.35a7.1,7.1,0,0,0-2.39-4.66,7.84,7.84,0,0,0-5.19-1.65,7.53,7.53,0,0,0-5.89,2.48,10.92,10.92,0,0,0,0,13.09,8.46,8.46,0,0,0,11,.68A6.88,6.88,0,0,0,1116.63,698Z"/><path class="cls-4" d="M1133.22,701.17a1.39,1.39,0,0,1-.28-1v-7.72a5.68,5.68,0,0,0-1.77-4.37,6.85,6.85,0,0,0-4.84-1.64,7.83,7.83,0,0,0-4.85,1.46,5.82,5.82,0,0,0-2.33,3.83l2.89.34a4.1,4.1,0,0,1,1.41-2.41,4.5,4.5,0,0,1,2.76-.77,4,4,0,0,1,2.74.87,2.9,2.9,0,0,1,1,2.27,1.16,1.16,0,0,1-1.07,1.24l-5,.85a6.77,6.77,0,0,0-3.83,1.79,4.81,4.81,0,0,0-1.34,3.5,4.52,4.52,0,0,0,1.64,3.61,6.43,6.43,0,0,0,4.32,1.4,6,6,0,0,0,5.42-2.85,2.41,2.41,0,0,0,1,1.79,3.82,3.82,0,0,0,2.26.64H1135v-2.54h-.82A1.38,1.38,0,0,1,1133.22,701.17Zm-3.23-4.79a5.79,5.79,0,0,1-1.4,4A4.57,4.57,0,0,1,1125,702a3.65,3.65,0,0,1-2.43-.73,2.53,2.53,0,0,1-.87-2,2.66,2.66,0,0,1,.71-1.9,3.64,3.64,0,0,1,2.07-.95l5.49-1Z"/><rect class="cls-4" x="1137.19" y="680" width="3.05" height="24"/><rect class="cls-4" x="1144.45" y="680" width="3.05" height="24"/><path class="cls-4" d="M1158.07,700.33,1153,686.86h-3.22l6.75,17.24-.57,1.51a2.83,2.83,0,0,1-3,2.16h-1.77v2.57h1.77a5.8,5.8,0,0,0,3.53-1,7.46,7.46,0,0,0,2.33-3.47l7.48-19.06h-3.08Z"/><polygon class="cls-4" points="1175.42 704 1178.72 704 1178.72 693.44 1190.88 693.44 1190.88 690.63 1178.72 690.63 1178.72 682.81 1192.26 682.81 1192.26 680 1175.42 680 1175.42 704"/><path class="cls-4" d="M1197.26,690v-3.11h-3V704h3v-7.3a8.79,8.79,0,0,1,1.3-5.08,4.07,4.07,0,0,1,3.5-1.88h1.36v-2.88h-1.33A5.3,5.3,0,0,0,1197.26,690Z"/><path class="cls-4" d="M1212.64,686.44a7.86,7.86,0,0,0-6.08,2.48,10.51,10.51,0,0,0,0,13,7.86,7.86,0,0,0,6.08,2.48,8,8,0,0,0,6.09-2.48,9.22,9.22,0,0,0,2.29-6.51,9.12,9.12,0,0,0-2.29-6.51A8,8,0,0,0,1212.64,686.44Zm3.86,13.68a5.18,5.18,0,0,1-7.7,0,8.67,8.67,0,0,1,0-9.4,4.65,4.65,0,0,1,3.83-1.71,4.71,4.71,0,0,1,3.86,1.71,8.52,8.52,0,0,1,0,9.39Z"/><path class="cls-4" d="M1243,686.44a5.81,5.81,0,0,0-5.52,3.1,5.11,5.11,0,0,0-2.1-2.3,6.44,6.44,0,0,0-3.27-.8,5.76,5.76,0,0,0-5,2.51v-2.09h-3V704h3v-9.46a6.5,6.5,0,0,1,1.1-4.06,3.8,3.8,0,0,1,3.19-1.39,3.45,3.45,0,0,1,2.75,1.13,4.8,4.8,0,0,1,1,3.22V704h3v-9.46a6.5,6.5,0,0,1,1.09-4.06,3.82,3.82,0,0,1,3.19-1.39,3.46,3.46,0,0,1,2.76,1.13,4.75,4.75,0,0,1,1,3.22V704h3V692.89a6.54,6.54,0,0,0-1.67-4.72A6.1,6.1,0,0,0,1243,686.44Z"/><rect class="cls-4" x="1260.8" y="680" width="3.3" height="24"/><path class="cls-4" d="M1271.64,690v-3.11h-3V704h3v-7.3a8.79,8.79,0,0,1,1.31-5.08,4.06,4.06,0,0,1,3.5-1.88h1.35v-2.88h-1.32A5.32,5.32,0,0,0,1271.64,690Z"/><path class="cls-4" d="M1293.22,701.17a1.39,1.39,0,0,1-.29-1v-7.72a5.71,5.71,0,0,0-1.76-4.37,6.88,6.88,0,0,0-4.85-1.64,7.85,7.85,0,0,0-4.85,1.46,5.9,5.9,0,0,0-2.33,3.83l2.9.34a4,4,0,0,1,1.4-2.41,4.5,4.5,0,0,1,2.76-.77,4.07,4.07,0,0,1,2.75.87,2.89,2.89,0,0,1,1,2.27,1.15,1.15,0,0,1-1.07,1.24l-5,.85a6.81,6.81,0,0,0-3.84,1.79,4.81,4.81,0,0,0-1.34,3.5,4.52,4.52,0,0,0,1.64,3.61,6.47,6.47,0,0,0,4.32,1.4,6,6,0,0,0,5.43-2.85,2.36,2.36,0,0,0,1,1.79,3.77,3.77,0,0,0,2.26.64H1295v-2.54h-.82A1.37,1.37,0,0,1,1293.22,701.17Zm-3.23-4.79a5.83,5.83,0,0,1-1.4,4A4.58,4.58,0,0,1,1285,702a3.64,3.64,0,0,1-2.42-.73,2.53,2.53,0,0,1-.87-2,2.62,2.62,0,0,1,.71-1.9,3.58,3.58,0,0,1,2.07-.95l5.49-1Z"/><path class="cls-4" d="M1310.2,688.17a6.31,6.31,0,0,0-4.7-1.73,6,6,0,0,0-5.34,2.58v-2.16h-3V704h3v-9.46a6.14,6.14,0,0,1,1.17-4.06,4.2,4.2,0,0,1,3.41-1.39,3.88,3.88,0,0,1,3,1.13,4.58,4.58,0,0,1,1,3.22V704h3.05V692.89A6.44,6.44,0,0,0,1310.2,688.17Z"/><polygon class="cls-4" points="1014.79 727.15 1024.17 727.15 1024.17 724.91 1014.79 724.91 1014.79 718.69 1025.29 718.69 1025.29 716.39 1012.09 716.39 1012.09 736 1025.56 736 1025.56 733.7 1014.79 733.7 1014.79 727.15"/><path class="cls-4" d="M1037,725.23l-3-.66a4.87,4.87,0,0,1-2.44-1.11,2.76,2.76,0,0,1-.75-2.05,2.83,2.83,0,0,1,1-2.29,4.5,4.5,0,0,1,2.91-.84c2.61,0,4.06,1.27,4.37,3.8l2.66-.33a5.93,5.93,0,0,0-2.1-4.18,7.57,7.57,0,0,0-4.93-1.5,7,7,0,0,0-4.76,1.57,5.18,5.18,0,0,0-.54,7.35,7.52,7.52,0,0,0,4,1.93l2.61.56a5.87,5.87,0,0,1,2.69,1.13,2.61,2.61,0,0,1,.78,2,3.2,3.2,0,0,1-1.11,2.55,4.55,4.55,0,0,1-3,1,5.43,5.43,0,0,1-3.7-1.16,4.52,4.52,0,0,1-1.42-3.35l-2.64.34a5.91,5.91,0,0,0,2.14,4.67,8.57,8.57,0,0,0,5.62,1.71,7.3,7.3,0,0,0,5-1.65,5.37,5.37,0,0,0,1.87-4.2,4.69,4.69,0,0,0-1.24-3.43A7.49,7.49,0,0,0,1037,725.23Z"/><polygon class="cls-4" points="1042.88 718.69 1049 718.69 1049 736 1051.67 736 1051.67 718.69 1057.77 718.69 1057.77 716.39 1042.88 716.39 1042.88 718.69"/><path class="cls-4" d="M1072.66,729a16.92,16.92,0,0,0,3.23-3.82,7.12,7.12,0,0,0,1-3.53,5.26,5.26,0,0,0-1.66-4,6.2,6.2,0,0,0-4.45-1.53,6.68,6.68,0,0,0-5.06,1.95,6.61,6.61,0,0,0-1.68,5.29l2.57.34a6,6,0,0,1,1-3.94,3.78,3.78,0,0,1,3.17-1.35,3.47,3.47,0,0,1,2.48.89,3.07,3.07,0,0,1,.93,2.35,5.61,5.61,0,0,1-.71,2.75,12.56,12.56,0,0,1-2.47,2.89L1064,733.7V736h13.44v-2.24h-10Z"/><path class="cls-4" d="M1087,716.07a6.29,6.29,0,0,0-5.4,2.7,12.67,12.67,0,0,0-1.93,7.43q0,4.78,1.92,7.46a6.77,6.77,0,0,0,10.82,0,15,15,0,0,0,0-14.85A6.25,6.25,0,0,0,1087,716.07Zm3.48,16a3.86,3.86,0,0,1-3.48,2.06,3.81,3.81,0,0,1-3.47-2.05,11.6,11.6,0,0,1-1.21-5.85,11.37,11.37,0,0,1,1.24-5.79,3.92,3.92,0,0,1,6.92,0,14.59,14.59,0,0,1,0,11.68Z"/><path class="cls-4" d="M1104.28,716.39h-2.58a3.67,3.67,0,0,1-.62,2.35,2.27,2.27,0,0,1-1.87.74h-2.46v2.21h2.62a4.29,4.29,0,0,0,2.24-.52v12.59h-4.78V736H1109v-2.24h-4.7Z"/><path class="cls-4" d="M1120.67,725.75a4.54,4.54,0,0,0,2-1.79,5.21,5.21,0,0,0,.72-2.74,4.66,4.66,0,0,0-1.65-3.75,6.64,6.64,0,0,0-4.46-1.4,7,7,0,0,0-4.73,1.6,5.35,5.35,0,0,0-1.9,4.17l2.43.53a4.25,4.25,0,0,1,1.19-3,4,4,0,0,1,3-1.08,3.79,3.79,0,0,1,2.58.82,2.84,2.84,0,0,1,1,2.26,3.66,3.66,0,0,1-.87,2.6,3.19,3.19,0,0,1-2.45.92h-1.68v2h1.76a4.22,4.22,0,0,1,2.86.88,3.08,3.08,0,0,1,1,2.46,3.67,3.67,0,0,1-1.11,2.84,4.28,4.28,0,0,1-3,1,4.68,4.68,0,0,1-3.15-1,4.06,4.06,0,0,1-1.32-2.84l-2.66.58a5.31,5.31,0,0,0,2.18,4,8.34,8.34,0,0,0,5,1.46,7,7,0,0,0,4.89-1.65,5.68,5.68,0,0,0,1.82-4.4,4.6,4.6,0,0,0-.87-2.81A5,5,0,0,0,1120.67,725.75Z"/><path class="cls-4" d="M1120,632V524a76.08,76.08,0,0,0-76-76H908V428a76.08,76.08,0,0,0-76-76H760v-8a16,16,0,0,0,0-32v-8h24v-8H765.66l14.65-14.65-5.66-5.66L760,290.34V265.08a8,8,0,0,1,4,6.92h8a16,16,0,0,0-32,0h8a8,8,0,0,1,4-6.92V324H740v8h12V464h32V441.66l16-16V632ZM768,328a8,8,0,0,1-8,8V320A8,8,0,0,1,768,328Zm80,296a47.87,47.87,0,0,1,95.74,0Zm264-100v76h-68V456A68.07,68.07,0,0,1,1112,524Zm-108-68v48a48,48,0,0,1-96,0V456Zm-104-8v56a56,56,0,0,0,112,0V456h24V608h76v16H951.74A55.87,55.87,0,0,0,840,624H808V477.66l83.15-83.15A67.59,67.59,0,0,1,900,428ZM780,360v20H760V360Zm-4,78.34V456H760V388h28V360h44a67.92,67.92,0,0,1,54.69,27.65L808,466.34V417.66l18.83-18.83-5.66-5.66Z"/><polygon class="cls-4" points="628 524 628 532 649.42 532 623.9 572 660 572 660 564 638.5 564 664.01 524 628 524"/><polygon class="cls-4" points="672.11 572 704 572 704 564 680.09 564 680.06 552 704 552 704 544 680.04 544 680.01 532 704 532 704 524 672 524 672.11 572"/><polygon class="cls-4" points="748 564 724 564 724 552 748 552 748 544 724 544 724 532 748 532 748 524 716 524 716 572 748 572 748 564"/><polygon class="cls-4" points="672 632 704 632 704 624 680 624 680 612 704 612 704 604 680 604 680 592 704 592 704 584 672 584 672 632"/><polygon class="cls-4" points="744 616.41 723.67 584 716 584 716 632 724 632 724 599.59 744.34 632 752 632 752 584 744 584 744 616.41"/><polygon class="cls-4" points="960 728 929.7 758.3 935.36 763.96 968 731.31 968 708 960 708 960 728"/><rect class="cls-4" x="840" y="680" width="8" height="16"/><rect class="cls-4" x="960.01" y="680" width="8" height="16"/><rect class="cls-4" x="880.01" y="772" width="8" height="16"/><rect class="cls-4" x="896.01" y="772" width="8" height="16"/><path class="cls-4" d="M940,680h-8v32l-44,44V743.31l36-36V680h-8v24l-28,28V719.31l20-20V680h-8v16l-12,12V680h-8v40a36,36,0,0,1-72,0V680h-8v40a44,44,0,0,0,80,25.25V764h11.31L940,715.31Z"/><rect class="cls-5" y="971.5" width="1920" height="1"/><rect class="cls-6" y="107.5" width="1920" height="1"/><rect class="cls-7" x="959.5" width="1" height="216"/><rect class="cls-8" x="959.5" y="864" width="1" height="216"/><rect class="cls-9" x="1536" y="539.34" width="384" height="1.33"/><rect class="cls-10" y="539.34" width="384" height="1.33"/><rect class="cls-11" x="892.31" y="539.42" width="135.39" height="1"/><rect class="cls-12" x="959.5" y="472.23" width="1" height="135.39"/><rect class="cls-13" y="886.95" width="1920" height="1"/></g></svg>