<svg xmlns="http://www.w3.org/2000/svg" xmlns:xlink="http://www.w3.org/1999/xlink" viewBox="0 0 1920 1080"><defs><style>.cls-1{fill:#061f6b;}.cls-2{fill:url(#linear-gradient);}.cls-3{fill:#fff;}.cls-4{fill:url(#linear-gradient-2);}.cls-5{fill:url(#linear-gradient-3);}.cls-6{fill:url(#linear-gradient-4);}.cls-7{fill:url(#linear-gradient-5);}.cls-8{fill:url(#linear-gradient-6);}.cls-9{fill:url(#linear-gradient-7);}.cls-10{fill:url(#linear-gradient-8);}.cls-11{fill:url(#linear-gradient-9);}.cls-12{fill:url(#linear-gradient-10);}.cls-13{fill:url(#linear-gradient-11);}</style><linearGradient id="linear-gradient" x1="192" y1="1080" x2="192" gradientUnits="userSpaceOnUse"><stop offset="0" stop-color="#fff" stop-opacity="0"/><stop offset="0.51" stop-color="#fff"/><stop offset="1" stop-color="#fff" stop-opacity="0"/></linearGradient><linearGradient id="linear-gradient-2" x1="9270.43" y1="12275.57" x2="10350.43" y2="12275.57" gradientTransform="translate(14003.57 -9270.43) rotate(90)" xlink:href="#linear-gradient"/><linearGradient id="linear-gradient-3" x1="12618.42" y1="16043.57" x2="14538.42" y2="16043.57" gradientTransform="translate(14538.43 17015.57) rotate(180)" xlink:href="#linear-gradient"/><linearGradient id="linear-gradient-4" x1="12618.42" y1="16907.57" x2="14538.42" y2="16907.57" gradientTransform="translate(14538.43 17015.57) rotate(180)" xlink:href="#linear-gradient"/><linearGradient id="linear-gradient-5" x1="12618.42" y1="16128.12" x2="14538.42" y2="16128.12" gradientTransform="translate(14538.43 17015.57) rotate(180)" xlink:href="#linear-gradient"/><linearGradient id="linear-gradient-6" x1="17088" y1="216" x2="17088" gradientTransform="matrix(-1, 0, 0, 1, 18048, 0)" gradientUnits="userSpaceOnUse"><stop offset="0" stop-color="#fff" stop-opacity="0"/><stop offset="1" stop-color="#fff"/></linearGradient><linearGradient id="linear-gradient-7" x1="960" y1="3119.22" x2="960" y2="2903.23" gradientTransform="matrix(1, 0, 0, -1, 0, 3983.22)" xlink:href="#linear-gradient-6"/><linearGradient id="linear-gradient-8" x1="10200" y1="9204" x2="10200" y2="8820" gradientTransform="matrix(0, -1, -1, 0, 10740, 10740)" xlink:href="#linear-gradient-6"/><linearGradient id="linear-gradient-9" x1="7848" y1="-6115.02" x2="7848" y2="-6499.03" gradientTransform="matrix(0, 1, 1, 0, 6499.03, -7308)" xlink:href="#linear-gradient-6"/><linearGradient id="linear-gradient-10" x1="-2617.27" y1="14123.66" x2="-2481.88" y2="14123.66" gradientTransform="translate(3509.58 -13583.74)" xlink:href="#linear-gradient"/><linearGradient id="linear-gradient-11" x1="4270.73" y1="23363.66" x2="4406.12" y2="23363.66" gradientTransform="translate(24323.66 -3798.51) rotate(90)" xlink:href="#linear-gradient"/></defs><g id="Background"><rect class="cls-1" y="0.07" width="1920" height="1080"/></g><g id="Guids_and_Grids" data-name="Guids and Grids"><rect class="cls-2" x="191.5" width="1" height="1080"/><path class="cls-3" d="M213.23,568.27h6.52V513H203.53V524h-9.61V505.27H257.3V524h-9.61V513H228.94v55.31h7.31v8.06h-23Z"/><path class="cls-3" d="M265.92,505.27h22.69v8.11h-6.75v54.89h6.75v8.06H265.92v-8.06h6.75V513.38h-6.75Z"/><path class="cls-3" d="M316.55,568.27h6.51V513H306.84V524h-9.61V505.27h63.38V524H351V513H332.25v55.31h7.31v8.06h-23Z"/><path class="cls-3" d="M369.23,505.27H392.3v8.11h-7.13v54.89h24.52a3.57,3.57,0,0,0,1.5-.35,5.43,5.43,0,0,0,1.36-.92,4.59,4.59,0,0,0,1-1.29,3.16,3.16,0,0,0,.38-1.47v-9h8.9v21.05H369.23v-8.06H376V513.38h-6.75Z"/><path class="cls-3" d="M430,505.27h50.91v20.11h-9.61v-12H445.92v22.73h21.33v8.06H445.92v24.1h25.36v-12h9.61v20.06H430v-8.06h6.75V513.38H430Z"/><path class="cls-3" d="M566.11,576.61V562.36a24.26,24.26,0,0,1-4.45,6.45,24.76,24.76,0,0,1-6,4.52,28.15,28.15,0,0,1-7,2.67,32.17,32.17,0,0,1-7.57.89,34.36,34.36,0,0,1-12.8-2.32,29.18,29.18,0,0,1-10.62-7.38,34.23,34.23,0,0,1-7.26-12,42,42,0,0,1-2.51-14.48,40.67,40.67,0,0,1,2.51-14.35,36,36,0,0,1,7-11.76,32.38,32.38,0,0,1,24.35-10.74,31.48,31.48,0,0,1,11.6,1.92,32.74,32.74,0,0,1,8.3,4.67,38,38,0,0,1,5.5,5.22h4.55V524H561.7a23.46,23.46,0,0,0-8.32-8.44,23.21,23.21,0,0,0-21.49-.7,24,24,0,0,0-7.71,6.19,29,29,0,0,0-5,8.95,31.89,31.89,0,0,0-1.78,10.69,33,33,0,0,0,2,11.57,25.94,25.94,0,0,0,5,8.68,24.84,24.84,0,0,0,7.52,5.5,22.28,22.28,0,0,0,9.92,2.18q9,0,14.76-4.38t8.07-13.66H544.78v-8.07h30.05v34.08Z"/><path class="cls-3" d="M620.91,577.74A32.58,32.58,0,0,1,607.45,575a34.24,34.24,0,0,1-18.14-19.81,42.48,42.48,0,0,1-2.48-14.39,40.93,40.93,0,0,1,2.51-14.44,35.8,35.8,0,0,1,7-11.74,32.92,32.92,0,0,1,10.78-7.87,33.23,33.23,0,0,1,38.37,7.87,35.86,35.86,0,0,1,7,11.74A41.37,41.37,0,0,1,655,540.8a41,41,0,0,1-2.5,14.41,36.33,36.33,0,0,1-7,11.75,32.87,32.87,0,0,1-10.79,7.89A32.32,32.32,0,0,1,620.91,577.74Zm0-8.72a22,22,0,0,0,10.1-2.3,24,24,0,0,0,7.71-6.16,28.39,28.39,0,0,0,4.92-9,33.23,33.23,0,0,0,1.74-10.78,33.83,33.83,0,0,0-1.9-11.23,26.5,26.5,0,0,0-5.3-9.16,23.92,23.92,0,0,0-7.9-5.79,22.44,22.44,0,0,0-9.37-2,22.16,22.16,0,0,0-10.13,2.3,23.72,23.72,0,0,0-7.73,6.16,28,28,0,0,0-4.92,9,35.38,35.38,0,0,0,.18,22.46A25.46,25.46,0,0,0,603.4,561a27.87,27.87,0,0,0,7.55,5.69A21.14,21.14,0,0,0,620.91,569Z"/><path class="cls-3" d="M665,505.27h50.9v20.11h-9.61v-12H681v22.73h21.33v8.06H681v24.1h25.36v-12h9.61v20.06H665v-8.06h6.75V513.38H665Z"/><path class="cls-3" d="M760.22,518.39a11.57,11.57,0,0,0-3.31-3.16,15.26,15.26,0,0,0-4-1.69,16.33,16.33,0,0,0-4.31-.58,21.19,21.19,0,0,0-6.23.82A13.24,13.24,0,0,0,738,516a9.29,9.29,0,0,0-2.65,3.28,9,9,0,0,0-.89,3.94,9.92,9.92,0,0,0,1.1,5,9,9,0,0,0,2.79,3,14.34,14.34,0,0,0,3.73,1.81c1.35.43,2.66.87,3.91,1.31l9.47,3.09a45.32,45.32,0,0,1,7.52,3.1,20.46,20.46,0,0,1,5.46,4.1,16.14,16.14,0,0,1,3.35,5.46,20.43,20.43,0,0,1,1.15,7.17,18.61,18.61,0,0,1-1.8,8.16,19.91,19.91,0,0,1-5,6.51,23.92,23.92,0,0,1-7.71,4.34,29.7,29.7,0,0,1-9.82,1.57,31.36,31.36,0,0,1-9.38-1.24,20.73,20.73,0,0,1-6.54-3.33,17.46,17.46,0,0,1-4.24-4.76,26,26,0,0,1-2.48-5.48h-3.57V555h11.82c0,3.47.36,5.92,1.1,7.36a9.94,9.94,0,0,0,3.07,3.59A14,14,0,0,0,743,568.1a22.94,22.94,0,0,0,6,.73,20.36,20.36,0,0,0,5.74-.75,12.84,12.84,0,0,0,4.36-2.18,9.58,9.58,0,0,0,2.76-3.47,10.71,10.71,0,0,0,1-4.61,9.26,9.26,0,0,0-1.19-4.86,11.82,11.82,0,0,0-3.07-3.39,17.71,17.71,0,0,0-4.1-2.3c-1.49-.6-2.92-1.11-4.29-1.55l-10.27-2.9a30.38,30.38,0,0,1-6.16-2.63A18.24,18.24,0,0,1,729,536.3a16.33,16.33,0,0,1-3.07-5.37,21.32,21.32,0,0,1-1.08-7.1,18.54,18.54,0,0,1,1.59-7.64,17.78,17.78,0,0,1,4.69-6.23,22.49,22.49,0,0,1,7.57-4.2,31.87,31.87,0,0,1,10.24-1.52,25.92,25.92,0,0,1,7,.89,21.91,21.91,0,0,1,5.81,2.51,20,20,0,0,1,4.6,3.89,23.82,23.82,0,0,1,3.35,5h3.51v8.06H761.72Q761.72,520.46,760.22,518.39Z"/><path class="cls-3" d="M852.94,505.27H876v8.06h-6.75v54.94H876v8.06H852.94v-8.06h7.12V542.72H819v25.55h7.13v8.06H803v-8.06h6.75V513.33H803v-8.06h23.06v8.06H819v21.52h41.11V513.33h-7.12Z"/><path class="cls-3" d="M889.41,505.27h50.9v20.11H930.7v-12H905.34v22.73h21.33v8.06H905.34v24.1H930.7v-12h9.61v20.06h-50.9v-8.06h6.75V513.38h-6.75Z"/><path class="cls-3" d="M949.69,505.27h29.58a29.35,29.35,0,0,1,8.74,1.24,20.27,20.27,0,0,1,6.94,3.66,16.62,16.62,0,0,1,4.57,6,19.93,19.93,0,0,1,1.64,8.3,15.1,15.1,0,0,1-1,5.27,18.31,18.31,0,0,1-2.68,4.83,20.57,20.57,0,0,1-4,4,18.33,18.33,0,0,1-5.11,2.67,11.08,11.08,0,0,1,2.37,1.48A14,14,0,0,1,993,545a19.42,19.42,0,0,1,1.92,3.14,18.84,18.84,0,0,1,1.38,3.78l3.94,15.46h6.14l.09,8.91H992.63l-5.3-21.61q-1.46-5.81-4.43-8.55a11.55,11.55,0,0,0-8.13-2.75h-9.14v24.85h7.12v8.06H949.69v-8.06h6.75V513.38h-6.75Zm15.94,8.11v22.36h13.64a16.09,16.09,0,0,0,4.89-.71,10.51,10.51,0,0,0,3.85-2.11,9.64,9.64,0,0,0,2.53-3.49,12,12,0,0,0,.91-4.85q0-5.3-3.18-8.25t-10.13-3Z"/><path class="cls-3" d="M1018,505.27h50.91v20.11h-9.61v-12H1034v22.73h21.33v8.06H1034v24.1h25.36v-12h9.61v20.06H1018v-8.06h6.75V513.38H1018Z"/><path class="cls-3" d="M211.15,423.81a7.25,7.25,0,0,1-.84,3.69,6.2,6.2,0,0,1-2.23,2.26,9.59,9.59,0,0,1-3.22,1.13,23.26,23.26,0,0,1-3.79.31,13.63,13.63,0,0,1-3.89-.48,6.67,6.67,0,0,1-3-2l1.63-2.73a6.07,6.07,0,0,0,2.47,1.24,13.26,13.26,0,0,0,3,.29,12.07,12.07,0,0,0,5.28-.91c1.22-.61,1.83-1.36,1.83-2.26a4.89,4.89,0,0,0-.36-1.6,9.48,9.48,0,0,0-1.23-2.21,18.06,18.06,0,0,0-2.33-2.64,26.86,26.86,0,0,0-3.67-2.91l1.44-3.5a22.53,22.53,0,0,1,3.29,2.42,22.16,22.16,0,0,1,2.86,3.05,15.9,15.9,0,0,1,2,3.39A8.89,8.89,0,0,1,211.15,423.81Z"/><path class="cls-3" d="M227.33,430.72a7.59,7.59,0,0,1-1.59-.17,3.13,3.13,0,0,1-1.44-.79,9.49,9.49,0,0,1-1.12,3.81,16.82,16.82,0,0,1-2.64,3.6,34.25,34.25,0,0,1-3.87,3.46q-2.21,1.71-4.8,3.43l-2.45-2.35a56.41,56.41,0,0,0,5.14-3.53,41.82,41.82,0,0,0,3.82-3.31,15.94,15.94,0,0,0,2.37-2.9,4.67,4.67,0,0,0,.82-2.36,7.22,7.22,0,0,0-.84-3,41.72,41.72,0,0,0-2.19-3.91l2.5-2.45,1.85,3.29a13.44,13.44,0,0,0,1.39,2.09,4,4,0,0,0,1.3,1.08,3.62,3.62,0,0,0,1.6.31h1.4v3.7Z"/><path class="cls-3" d="M242.3,430.72a7.82,7.82,0,0,1-3.57-.72,5,5,0,0,1-2.24-2.45,6.21,6.21,0,0,1-2.37,2.4,7.5,7.5,0,0,1-3.58.77h-2a1,1,0,0,1-.81-.53,2.49,2.49,0,0,1-.34-1.34,2.35,2.35,0,0,1,.34-1.32,1,1,0,0,1,.81-.51h2a5.54,5.54,0,0,0,3.48-.89c.75-.59,1.18-1.72,1.27-3.38l.05-1.82,2.69-.68a22.27,22.27,0,0,0,.19,3.22,5.19,5.19,0,0,0,.72,2.09,2.88,2.88,0,0,0,1.47,1.13,7.39,7.39,0,0,0,2.42.33h1.87v3.7Zm-8.64,8.78-2.83-2.35,2.06-2.45,2.79,2.35Zm5.71,0-2.78-2.35,2.11-2.45,2.74,2.35Z"/><path class="cls-3" d="M257.76,423a7.05,7.05,0,0,1-.7,3.19,7.16,7.16,0,0,1-1.92,2.42,8.29,8.29,0,0,1-3,1.54,13.26,13.26,0,0,1-3.82.53H244.7a1,1,0,0,1-.81-.53,2.4,2.4,0,0,1-.34-1.34,2.27,2.27,0,0,1,.34-1.32,1,1,0,0,1,.81-.51h3.89a8,8,0,0,0,4.7-1.13,4,4,0,0,0,1.83-2.42,6.63,6.63,0,0,0-.65-2.21,11.65,11.65,0,0,0-1.66-2.45,31.74,31.74,0,0,0-2.73-2.8q-1.64-1.51-3.89-3.34a19.13,19.13,0,0,1,.41-2.78,2,2,0,0,1,.69-1.16c.84-.54,1.81-1.15,2.93-1.82s2.31-1.35,3.55-2,2.54-1.38,3.87-2.09,2.61-1.37,3.86-2l-.48,3.88c-2.33,1.12-4.5,2.24-6.5,3.34s-3.71,2.12-5.11,3.05a39.47,39.47,0,0,1,6.31,6.48A9.49,9.49,0,0,1,257.76,423Zm2.11-24q-2.92,1.53-6.17,3.33c-2.16,1.2-4.37,2.52-6.65,4l.29-2.49c2.15-1.41,4.31-2.73,6.51-4s4.29-2.36,6.31-3.39Z"/><path class="cls-3" d="M288.67,430.72c-1.06,0-2-.06-2.88-.07l-1.82,0a8.47,8.47,0,0,0-2.69.31c-.55.21-.82.44-.82.7a.46.46,0,0,0,.29.43,7.1,7.1,0,0,0,1.34.39l4.23,1a4.73,4.73,0,0,1,2.09,1,2.19,2.19,0,0,1,.69,1.72,4.52,4.52,0,0,1-1.32,3.15,11.67,11.67,0,0,1-3.41,2.45,20.33,20.33,0,0,1-4.65,1.58,23.73,23.73,0,0,1-5,.55,14.14,14.14,0,0,1-4.63-.72,9.66,9.66,0,0,1-3.55-2.09,9.33,9.33,0,0,1-2.28-3.33,11.46,11.46,0,0,1-.82-4.47,13.94,13.94,0,0,1,.63-4.36,17.93,17.93,0,0,1,2-4l2.21,1.06a18.1,18.1,0,0,0-1.49,3.31,10.47,10.47,0,0,0-.52,3.22,7.29,7.29,0,0,0,2.3,5.69,9.4,9.4,0,0,0,6.53,2.08,21.82,21.82,0,0,0,4.37-.4,20.5,20.5,0,0,0,3.4-1,13,13,0,0,0,2.31-1.15,6.25,6.25,0,0,0,1.15-.91,1.87,1.87,0,0,0-.55-.36,5,5,0,0,0-1-.31l-4-1a6.08,6.08,0,0,1-2.3-1,2.47,2.47,0,0,1-.82-2.08,4.17,4.17,0,0,1,1.92-3.6q1.92-1.35,6.15-1.35h3.45v3.7Z"/><path class="cls-3" d="M301.77,417.23a3.43,3.43,0,0,1,2.26.84,7.42,7.42,0,0,1,1.73,2.14,11.12,11.12,0,0,1,1.1,2.9,13.51,13.51,0,0,1,.39,3.19,4.61,4.61,0,0,1-.36,1.75,5.49,5.49,0,0,1-.94,1.56,5.25,5.25,0,0,1-1.3,1.11,2.81,2.81,0,0,1-1.48.43,6.77,6.77,0,0,1-1.66-.24,15,15,0,0,1-1.92-.65,12.82,12.82,0,0,1-1.94-1,17,17,0,0,1-1.83-1.32,6.56,6.56,0,0,1-2.64,2.21,8.52,8.52,0,0,1-3.31.58h-.77a.94.94,0,0,1-.81-.58,2.37,2.37,0,0,1-.34-1.25,2.44,2.44,0,0,1,.34-1.29.94.94,0,0,1,.81-.58h.77a8.76,8.76,0,0,0,2.76-.45,4.22,4.22,0,0,0,2.28-2.14c.58-1,1.13-1.93,1.66-2.81a17.7,17.7,0,0,1,1.6-2.3,7.31,7.31,0,0,1,1.71-1.54A3.49,3.49,0,0,1,301.77,417.23Zm-.38,3.5A2.72,2.72,0,0,0,299.3,422a18.56,18.56,0,0,0-1.94,3.24,10.83,10.83,0,0,0,3.09,1.82,8.06,8.06,0,0,0,2.67.58,1.5,1.5,0,0,0,1-.44,1.25,1.25,0,0,0,.48-1,7.13,7.13,0,0,0-.27-1.89,8.52,8.52,0,0,0-.69-1.8,4.26,4.26,0,0,0-1-1.32A1.87,1.87,0,0,0,301.39,420.73Z"/><path class="cls-3" d="M330.57,426.59a9.19,9.19,0,0,1-1,4.08,16.6,16.6,0,0,1-2.64,3.82,30.2,30.2,0,0,1-4,3.62c-1.54,1.18-3.18,2.37-4.94,3.55l-2.45-2.35a56.18,56.18,0,0,0,5.13-3.53,40.51,40.51,0,0,0,3.82-3.31,16.48,16.48,0,0,0,2.38-2.9,4.75,4.75,0,0,0,.81-2.36,5.26,5.26,0,0,0-.24-1.44,12.38,12.38,0,0,0-.65-1.72,19.7,19.7,0,0,0-1-1.88c-.36-.64-.76-1.26-1.17-1.87l2.45-2.45a20.14,20.14,0,0,1,2.59,4.68A12,12,0,0,1,330.57,426.59Z"/><path class="cls-3" d="M339.6,430.24l-3.08.72v-32.4l3.08-1.44Z"/><path class="cls-3" d="M356.06,430.72a7.5,7.5,0,0,1-1.58-.17,3,3,0,0,1-1.44-.79,9.67,9.67,0,0,1-1.13,3.81,16.82,16.82,0,0,1-2.64,3.6,33.4,33.4,0,0,1-3.87,3.46q-2.2,1.71-4.8,3.43l-2.44-2.35a56.18,56.18,0,0,0,5.13-3.53,40.51,40.51,0,0,0,3.82-3.31,15.94,15.94,0,0,0,2.37-2.9,4.67,4.67,0,0,0,.82-2.36,7.22,7.22,0,0,0-.84-3,43.81,43.81,0,0,0-2.18-3.91l2.49-2.45,1.85,3.29a14.2,14.2,0,0,0,1.39,2.09,4.14,4.14,0,0,0,1.3,1.08,3.67,3.67,0,0,0,1.61.31h1.39v3.7Z"/><path class="cls-3" d="M371.8,422.32q0,4.28-2.32,6.33c-1.56,1.38-4.06,2.07-7.52,2.07h-4.65a1,1,0,0,1-.82-.53,2.49,2.49,0,0,1-.34-1.34,2.35,2.35,0,0,1,.34-1.32,1,1,0,0,1,.82-.51h4.75a11.7,11.7,0,0,0,4.9-.84,3.48,3.48,0,0,0,2.11-2.37c0-.16.05-.35.07-.56s0-.52,0-.93a10.2,10.2,0,0,1-2.4.79,11.83,11.83,0,0,1-2.11.22,4.65,4.65,0,0,1-3.65-1.4,5.53,5.53,0,0,1-1.24-3.84,9.13,9.13,0,0,1,.43-2.76,8.54,8.54,0,0,1,1.2-2.44,6.61,6.61,0,0,1,1.82-1.76,4.26,4.26,0,0,1,2.31-.67,4.06,4.06,0,0,1,3,1.18,8.93,8.93,0,0,1,1.95,2.95,16.45,16.45,0,0,1,1.05,3.86A26.08,26.08,0,0,1,371.8,422.32Zm-9.26-15.94L359.71,404l2.06-2.45,2.79,2.35Zm6.34,12.87a9.41,9.41,0,0,0-1.28-3.87,2.87,2.87,0,0,0-2.47-1.56,2.57,2.57,0,0,0-2,1.13,4.33,4.33,0,0,0-.89,2.76,2.47,2.47,0,0,0,.63,1.68,2.66,2.66,0,0,0,2.11.72,9.54,9.54,0,0,0,2.21-.24A7.56,7.56,0,0,0,368.88,419.25Zm-.63-12.87L365.47,404l2.11-2.45,2.73,2.35Z"/><path class="cls-3" d="M391.91,430.72a6.55,6.55,0,0,1-3.57-.82,4.93,4.93,0,0,1-1.87-2.11,8.47,8.47,0,0,1-.72-3c-.08-1.12-.14-2.25-.17-3.4-.07-1.64-.11-3.4-.12-5.31s0-3.85-.1-5.83-.1-4-.17-6-.16-3.91-.28-5.73l3.07-1.44c.09,2.59.16,4.91.19,7s.06,4,.07,5.76,0,3.5,0,5.13,0,3.33.09,5.09c0,1,.07,1.87.12,2.71a7.35,7.35,0,0,0,.43,2.21,3.2,3.2,0,0,0,1.13,1.49,3.63,3.63,0,0,0,2.16.55h1.54v3.7Z"/><path class="cls-3" d="M417.93,430.72a12.82,12.82,0,0,1-2.57-.22,4.85,4.85,0,0,1-1.92-.81A5.6,5.6,0,0,1,412,428a14.56,14.56,0,0,1-1.22-2.76c-1.25.76-2.39,1.48-3.43,2.16a27.36,27.36,0,0,1-3.15,1.75,16.58,16.58,0,0,1-3.4,1.15,19.41,19.41,0,0,1-4.18.41h-2.83a1,1,0,0,1-.82-.53,2.49,2.49,0,0,1-.33-1.34,2.35,2.35,0,0,1,.33-1.32,1,1,0,0,1,.82-.51h3a20.37,20.37,0,0,0,4.32-.38,15.72,15.72,0,0,0,3.2-1.11c1-.48,2.1-1.07,3.29-1.77s2.7-1.51,4.55-2.4q-1.72-.53-3.21-1.11c-1-.38-1.89-.74-2.69-1.08l-2.06-.84a4.15,4.15,0,0,0-1.35-.33,3,3,0,0,0-1.58.62,13.89,13.89,0,0,0-2.4,2.4l-2-1.2c.39-.61.82-1.23,1.3-1.87a16.25,16.25,0,0,1,1.51-1.75,7.75,7.75,0,0,1,1.63-1.27,3.32,3.32,0,0,1,1.66-.48,7.14,7.14,0,0,1,2.74.72c1.08.48,2.3,1,3.64,1.56s2.8,1.08,4.37,1.56a16.46,16.46,0,0,0,4.85.72h1l-.77,3.6a14.46,14.46,0,0,0-3.09.5,14.64,14.64,0,0,0-2.57.94,6.68,6.68,0,0,0,1,1.7,3.66,3.66,0,0,0,1.13.89,3.51,3.51,0,0,0,1.3.33c.46,0,1,0,1.51,0h3.74v3.7Zm-13.73,9-2.93-2.49,2.17-2.55,2.92,2.45Z"/><path class="cls-3" d="M435.4,430.72a7.82,7.82,0,0,1-3.57-.72,5,5,0,0,1-2.24-2.45,6.21,6.21,0,0,1-2.37,2.4,7.5,7.5,0,0,1-3.58.77h-2a1,1,0,0,1-.81-.53,2.4,2.4,0,0,1-.34-1.34,2.27,2.27,0,0,1,.34-1.32,1,1,0,0,1,.81-.51h2a5.54,5.54,0,0,0,3.48-.89c.75-.59,1.18-1.72,1.27-3.38l.05-1.82,2.69-.68a22.27,22.27,0,0,0,.19,3.22,5.19,5.19,0,0,0,.72,2.09,2.88,2.88,0,0,0,1.47,1.13,7.39,7.39,0,0,0,2.42.33h1.87v3.7Zm-5.66-14.16-2.93-2.5,2.16-2.54L431.9,414Z"/><path class="cls-3" d="M436.7,439.5l-2.83-2.35,2.06-2.45,2.78,2.35ZM444,425a6.78,6.78,0,0,0-.57-2,16.1,16.1,0,0,0-2-3.39l2.45-2.59a13,13,0,0,1,2.25,3.94,11.23,11.23,0,0,1,.72,3.65,5.69,5.69,0,0,1-1.85,4.6q-1.84,1.59-5.73,1.59H437.8a1,1,0,0,1-.82-.53,2.49,2.49,0,0,1-.33-1.34,2.35,2.35,0,0,1,.33-1.32,1,1,0,0,1,.82-.51h1.54a10,10,0,0,0,3.26-.48C443.53,426.22,444,425.69,444,425Zm-1.58,14.54-2.78-2.35,2.11-2.45,2.73,2.35Z"/><path class="cls-3" d="M455.9,430.24l-3.08.72v-32.4l3.08-1.44Z"/><path class="cls-3" d="M479.51,426.59a9.19,9.19,0,0,1-1,4.08,16.6,16.6,0,0,1-2.64,3.82,30.85,30.85,0,0,1-4,3.62c-1.54,1.18-3.19,2.37-4.95,3.55l-2.44-2.35a56.18,56.18,0,0,0,5.13-3.53,40.51,40.51,0,0,0,3.82-3.31,15.94,15.94,0,0,0,2.37-2.9,4.67,4.67,0,0,0,.82-2.36,5.26,5.26,0,0,0-.24-1.44,13.79,13.79,0,0,0-.65-1.72,19.7,19.7,0,0,0-1-1.88c-.37-.64-.76-1.26-1.18-1.87l2.45-2.45a19.43,19.43,0,0,1,2.59,4.68A11.81,11.81,0,0,1,479.51,426.59Z"/><path class="cls-3" d="M501.5,423.81a7.25,7.25,0,0,1-.85,3.69,6.12,6.12,0,0,1-2.23,2.26,9.61,9.61,0,0,1-3.21,1.13,23.36,23.36,0,0,1-3.79.31,13.53,13.53,0,0,1-3.89-.48,6.64,6.64,0,0,1-3-2l1.63-2.73a6.13,6.13,0,0,0,2.47,1.24,13.26,13.26,0,0,0,3,.29,12.15,12.15,0,0,0,5.29-.91c1.21-.61,1.82-1.36,1.82-2.26a4.89,4.89,0,0,0-.36-1.6,9.78,9.78,0,0,0-1.22-2.21,19.34,19.34,0,0,0-2.33-2.64,27.5,27.5,0,0,0-3.67-2.91l1.44-3.5a23,23,0,0,1,3.28,2.42,21,21,0,0,1,2.86,3.05,15.9,15.9,0,0,1,2,3.39A8.73,8.73,0,0,1,501.5,423.81Z"/><path class="cls-3" d="M535.72,415.65a17.15,17.15,0,0,1,2.42,4.84,16.58,16.58,0,0,1,.79,4.95,15.22,15.22,0,0,1-.91,5.4,11.78,11.78,0,0,1-2.64,4.17,11.91,11.91,0,0,1-4.22,2.72,15.86,15.86,0,0,1-5.71,1A13.38,13.38,0,0,1,521,438a10,10,0,0,1-3.51-2.09,9.53,9.53,0,0,1-2.28-3.36,11.85,11.85,0,0,1-.81-4.49,14.13,14.13,0,0,1,.62-4.32,18.87,18.87,0,0,1,2-4.08l2.21,1.1a16.25,16.25,0,0,0-1.49,3.29,10.76,10.76,0,0,0-.53,3.24,7.23,7.23,0,0,0,2.31,5.67,9.24,9.24,0,0,0,6.38,2.06,12.78,12.78,0,0,0,4.18-.65,8.83,8.83,0,0,0,3.16-1.85,8.19,8.19,0,0,0,2-2.9,9.6,9.6,0,0,0,.72-3.77,12.11,12.11,0,0,0-.7-3.79,16.35,16.35,0,0,0-2.08-4.13Zm-9.65.91-2.93-2.5,2.16-2.54,2.93,2.45Z"/><path class="cls-3" d="M547.91,430.24l-3.07.72v-32.4l3.07-1.44Z"/><path class="cls-3" d="M566.77,430.72a13,13,0,0,1-1.63,3.69,19.44,19.44,0,0,1-2.73,3.36,34.32,34.32,0,0,1-3.68,3.17q-2,1.55-4.39,3.07l-2.4-2.3a64.67,64.67,0,0,0,8.31-6.19,14.11,14.11,0,0,0,4-5.14,14.23,14.23,0,0,1-2.57.51c-.81.07-1.49.12-2,.12a5.31,5.31,0,0,1-3.6-1.25,4.69,4.69,0,0,1-1.44-3.75,10.17,10.17,0,0,1,.46-3,10.48,10.48,0,0,1,1.25-2.73,7.18,7.18,0,0,1,1.89-2,4,4,0,0,1,2.4-.79,4.64,4.64,0,0,1,2.69.82,7,7,0,0,1,2,2.13,11.55,11.55,0,0,1,1.27,3.05,17.51,17.51,0,0,1,.55,3.55h3.6v3.7Zm-2.44-3.65a14,14,0,0,0-.48-2.35,9.23,9.23,0,0,0-.84-2,4.28,4.28,0,0,0-1.2-1.32,2.71,2.71,0,0,0-1.56-.48,2.09,2.09,0,0,0-1.23.39,4,4,0,0,0-1,1,4.83,4.83,0,0,0-.67,1.32,4.42,4.42,0,0,0-.24,1.39,2.25,2.25,0,0,0,.79,1.85,3.44,3.44,0,0,0,2.23.65,21,21,0,0,0,2.16-.12A12.49,12.49,0,0,0,564.33,427.07Z"/><path class="cls-3" d="M584.44,430.72a7.9,7.9,0,0,1-3.58-.72,5,5,0,0,1-2.23-2.45,6.17,6.17,0,0,1-2.38,2.4,7.43,7.43,0,0,1-3.57.77h-2a1,1,0,0,1-.82-.53,2.49,2.49,0,0,1-.33-1.34,2.35,2.35,0,0,1,.33-1.32,1,1,0,0,1,.82-.51h2a5.57,5.57,0,0,0,3.48-.89c.75-.59,1.17-1.72,1.27-3.38l.05-1.82,2.69-.68a22.27,22.27,0,0,0,.19,3.22,5,5,0,0,0,.72,2.09,2.9,2.9,0,0,0,1.46,1.13A7.46,7.46,0,0,0,585,427h1.87v3.7Zm-5.67-14.16-2.92-2.5,2.16-2.54,2.92,2.45Z"/><path class="cls-3" d="M591.11,421.69a7.52,7.52,0,0,1,2.33-5.54,8,8,0,0,1,2.47-1.61,7.65,7.65,0,0,1,2.93-.57,9,9,0,0,1,3.45.67,13.45,13.45,0,0,1,3.17,1.87l-1.2,2.4a13.75,13.75,0,0,0-2.66-1.06,11,11,0,0,0-2.76-.33,5.54,5.54,0,0,0-2,.33,5.22,5.22,0,0,0-1.53.89,4.34,4.34,0,0,0-1,1.27,3.2,3.2,0,0,0-.38,1.49,3.55,3.55,0,0,0,.46,1.75,6.13,6.13,0,0,0,1.12,1.49,5.89,5.89,0,0,0,1.42,1,2.87,2.87,0,0,0,1.27.39,19.72,19.72,0,0,0,3.89-.53c1.63-.35,3.76-.9,6.38-1.63l-.33,3.45a65.32,65.32,0,0,1-9.82,2.5,55.14,55.14,0,0,1-9.09.77h-2.4a1,1,0,0,1-.82-.53,2.49,2.49,0,0,1-.34-1.34,2.35,2.35,0,0,1,.34-1.32,1,1,0,0,1,.82-.51h2.44l1.71,0,2.42-.12a7.3,7.3,0,0,1-1.77-2.5A6.9,6.9,0,0,1,591.11,421.69Z"/><path class="cls-3" d="M210.37,887.64H195.08V865.23h15v2H197.41v7.93h11.36v2H197.41v8.39h13Z"/><path class="cls-3" d="M221.89,871.35a6.43,6.43,0,0,1,5.16,2.24,8.77,8.77,0,0,1,1.95,6,9.24,9.24,0,0,1-1.95,6.14,6.38,6.38,0,0,1-5.16,2.32,6.11,6.11,0,0,1-5.34-2.8v8.33h-2.18V871.73h2.18v2.5A6.05,6.05,0,0,1,221.89,871.35Zm4.86,8.35a7.55,7.55,0,0,0-1.34-4.71,4.42,4.42,0,0,0-3.68-1.73,4.69,4.69,0,0,0-3.82,1.76,8.28,8.28,0,0,0,0,9.32,4.63,4.63,0,0,0,3.81,1.76,4.41,4.41,0,0,0,3.68-1.72A7.46,7.46,0,0,0,226.75,879.7Z"/><path class="cls-3" d="M235.23,868.89h-2.17v-3.66h2.17Zm0,18.75h-2.17V871.73h2.17Z"/><path class="cls-3" d="M245.75,888a7.41,7.41,0,0,1-4.77-1.44,5.08,5.08,0,0,1-1.92-3.85l2.14-.39a4.44,4.44,0,0,0,1.36,2.92,4.8,4.8,0,0,0,3.19.93,4.33,4.33,0,0,0,2.82-.79,2.84,2.84,0,0,0,1-2.32c0-1.38-1.07-2.24-3.2-2.6l-2.17-.34c-3.08-.51-4.61-2-4.61-4.36a3.89,3.89,0,0,1,1.58-3.19,7.59,7.59,0,0,1,8.36,0,5.63,5.63,0,0,1,2,3.63l-2,.35a4.71,4.71,0,0,0-1.45-2.63,4.38,4.38,0,0,0-2.78-.79,4.5,4.5,0,0,0-2.65.69,2.34,2.34,0,0,0-.3,3.52,3.91,3.91,0,0,0,2.12.82l2.5.4c3.17.53,4.76,2,4.76,4.49a4.44,4.44,0,0,1-1.61,3.58A6.54,6.54,0,0,1,245.75,888Z"/><path class="cls-3" d="M254.56,879.7a8.7,8.7,0,0,1,2.05-6.05,7.82,7.82,0,0,1,11.08,0,9.82,9.82,0,0,1,0,12.09,7.85,7.85,0,0,1-11.08,0A8.67,8.67,0,0,1,254.56,879.7Zm11.53,4.7a7.13,7.13,0,0,0,1.44-4.7,7.21,7.21,0,0,0-1.44-4.72,4.83,4.83,0,0,0-3.93-1.75,4.78,4.78,0,0,0-3.91,1.75,8.45,8.45,0,0,0,0,9.42,4.8,4.8,0,0,0,3.92,1.74A4.86,4.86,0,0,0,266.09,884.4Z"/><path class="cls-3" d="M279.84,888a6.55,6.55,0,0,1-5.18-2.25,8.87,8.87,0,0,1-1.93-6,9.17,9.17,0,0,1,1.93-6.11,6.43,6.43,0,0,1,5.18-2.33,6.12,6.12,0,0,1,5.35,2.79v-8.91h2.17v22.41h-2.17v-2.5A6.08,6.08,0,0,1,279.84,888ZM275,879.67a7.46,7.46,0,0,0,1.35,4.7A4.37,4.37,0,0,0,280,886.1a4.67,4.67,0,0,0,3.82-1.75,7.24,7.24,0,0,0,1.43-4.68,7.14,7.14,0,0,0-1.44-4.61,4.64,4.64,0,0,0-3.81-1.8,4.4,4.4,0,0,0-3.67,1.73A7.4,7.4,0,0,0,275,879.67Z"/><path class="cls-3" d="M299,886.23a4.07,4.07,0,0,0,4.41-3.66l2.08.33a5.45,5.45,0,0,1-2.1,3.74A6.94,6.94,0,0,1,299,888a7.15,7.15,0,0,1-5.6-2.15q-1.94-2.14-1.93-6.21a8.71,8.71,0,0,1,2-6,6.93,6.93,0,0,1,5.44-2.27,6.46,6.46,0,0,1,5,2,7.88,7.88,0,0,1,1.78,5.5v1.34h-12Q293.87,886.23,299,886.23Zm-.11-13.09a4.75,4.75,0,0,0-3.54,1.32,6.35,6.35,0,0,0-1.57,3.89h9.63C303.2,874.88,301.7,873.14,298.84,873.14Z"/><path class="cls-3" d="M330.38,887.64H316.81v-2h5.63V870.1a4.82,4.82,0,0,1-2.55.61h-3.17v-2h3a2.67,2.67,0,0,0,2.15-.84,4.13,4.13,0,0,0,.71-2.66h2.23v20.42h5.6Z"/><path class="cls-3" d="M332.52,876.43q0-5.38,2.14-8.48a7.29,7.29,0,0,1,11.93,0q2.15,3.09,2.14,8.48t-2.17,8.49a7.31,7.31,0,0,1-11.94,0Q332.52,881.89,332.52,876.43Zm13.89,0a14,14,0,0,0-1.51-7.09,4.84,4.84,0,0,0-8.52,0,13.67,13.67,0,0,0-1.54,7.06,14,14,0,0,0,1.5,7.13,4.7,4.7,0,0,0,4.27,2.51,4.75,4.75,0,0,0,4.29-2.52A14,14,0,0,0,346.41,876.43Z"/><path d="M333.13,851.48h0a15.6,15.6,0,0,1-15.6-15.61v-15.6h31.2v15.6A15.6,15.6,0,0,1,333.13,851.48Z"/><path class="cls-3" d="M336.36,840.48a4.87,4.87,0,0,1-6.54,0,4.14,4.14,0,0,1-1.18-3h1.74a2.9,2.9,0,0,0,.72,1.92,2.44,2.44,0,0,0,1.9.78,2.59,2.59,0,0,0,2-.8,2.56,2.56,0,0,0,.66-1.76c0-1.7-1.16-2.58-2.86-2.58H332v-1.58h.84a2.26,2.26,0,0,0,2.56-2.34,2.17,2.17,0,0,0-.66-1.62,2.34,2.34,0,0,0-1.7-.68,2.55,2.55,0,0,0-1.7.56,2.5,2.5,0,0,0-.84,2h-1.74a3.84,3.84,0,0,1,1.34-3.06,4.58,4.58,0,0,1,3-1,4.3,4.3,0,0,1,3,1.12,3.5,3.5,0,0,1,1.12,2.72,3.59,3.59,0,0,1-2,3.14,3.55,3.55,0,0,1,2.32,3.4A4.05,4.05,0,0,1,336.36,840.48Z"/><path d="M594.63,381.16h0a15.59,15.59,0,0,1-15.6-15.6V350h31.2v15.6A15.59,15.59,0,0,1,594.63,381.16Z"/><path class="cls-3" d="M594.66,371.17v-12l-3.3,2.42v-1.9l3.4-2.46h1.64v13.9Z"/><path d="M1053.32,486.72h0a15.61,15.61,0,0,1-15.6-15.61v-15.6h31.21v15.6A15.61,15.61,0,0,1,1053.32,486.72Z"/><path class="cls-3" d="M1049.17,476.72v-1.46l5.63-6.94a3.1,3.1,0,0,0,.76-2,2.06,2.06,0,0,0-2.29-2.24,2.23,2.23,0,0,0-2.36,2.52h-1.76a3.86,3.86,0,0,1,4.1-4.06,4,4,0,0,1,3.41,1.6,3.59,3.59,0,0,1,.64,2.16,4.56,4.56,0,0,1-1.18,3l-4.73,5.86h6.13v1.6Z"/><rect class="cls-4" x="1727.5" width="1" height="1080"/><rect class="cls-5" y="971.5" width="1920" height="1"/><rect class="cls-6" y="107.5" width="1920" height="1"/><rect class="cls-7" y="886.95" width="1920" height="1"/><rect class="cls-8" x="959.5" width="1" height="216"/><rect class="cls-9" x="959.5" y="864" width="1" height="216"/><rect class="cls-10" x="1536" y="539.34" width="384" height="1.33"/><rect class="cls-11" y="539.34" width="384" height="1.33"/><rect class="cls-12" x="892.31" y="539.42" width="135.39" height="1"/><rect class="cls-13" x="959.5" y="472.23" width="1" height="135.39"/></g></svg>