<svg xmlns="http://www.w3.org/2000/svg" xmlns:xlink="http://www.w3.org/1999/xlink" viewBox="0 0 1920 1080"><defs><style>.cls-1{fill:#061f6b;}.cls-2{fill:#4672e2;}.cls-3{fill:#fff;}.cls-4{fill:url(#linear-gradient);}.cls-5{fill:url(#linear-gradient-2);}.cls-6{fill:url(#linear-gradient-3);}.cls-7{fill:url(#linear-gradient-4);}.cls-8{fill:url(#linear-gradient-5);}.cls-9{fill:url(#linear-gradient-6);}.cls-10{fill:url(#linear-gradient-7);}.cls-11{fill:url(#linear-gradient-8);}.cls-12{fill:url(#linear-gradient-9);}.cls-13{fill:url(#linear-gradient-10);}.cls-14{fill:url(#linear-gradient-11);}</style><linearGradient id="linear-gradient" x1="-7872" y1="1080" x2="-7872" gradientTransform="matrix(-1, 0, 0, 1, -6144, 0)" gradientUnits="userSpaceOnUse"><stop offset="0" stop-color="#fff" stop-opacity="0"/><stop offset="0.51" stop-color="#fff"/><stop offset="1" stop-color="#fff" stop-opacity="0"/></linearGradient><linearGradient id="linear-gradient-2" x1="192" y1="1080" x2="192" y2="0" gradientTransform="matrix(1, 0, 0, 1, 0, 0)" xlink:href="#linear-gradient"/><linearGradient id="linear-gradient-3" x1="-11573.57" y1="16043.57" x2="-9653.58" y2="16043.57" gradientTransform="translate(-9653.57 17015.57) rotate(180)" xlink:href="#linear-gradient"/><linearGradient id="linear-gradient-4" x1="-11573.57" y1="16907.57" x2="-9653.58" y2="16907.57" gradientTransform="translate(-9653.57 17015.57) rotate(180)" xlink:href="#linear-gradient"/><linearGradient id="linear-gradient-5" x1="-11573.57" y1="16128.12" x2="-9653.58" y2="16128.12" gradientTransform="translate(-9653.57 17015.57) rotate(180)" xlink:href="#linear-gradient"/><linearGradient id="linear-gradient-6" x1="-7104" y1="216" x2="-7104" gradientTransform="matrix(-1, 0, 0, 1, -6144, 0)" gradientUnits="userSpaceOnUse"><stop offset="0" stop-color="#fff" stop-opacity="0"/><stop offset="1" stop-color="#fff"/></linearGradient><linearGradient id="linear-gradient-7" x1="960" y1="3119.22" x2="960" y2="2903.23" gradientTransform="matrix(1, 0, 0, -1, 0, 3983.22)" xlink:href="#linear-gradient-6"/><linearGradient id="linear-gradient-8" x1="-1896" y1="-2892" x2="-1896" y2="-3276" gradientTransform="matrix(0, -1, -1, 0, -1356, -1356)" xlink:href="#linear-gradient-6"/><linearGradient id="linear-gradient-9" x1="-4248" y1="5980.98" x2="-4248" y2="5596.97" gradientTransform="matrix(0, 1, 1, 0, -5596.97, 4788)" xlink:href="#linear-gradient-6"/><linearGradient id="linear-gradient-10" x1="-2617.27" y1="14123.66" x2="-2481.88" y2="14123.66" gradientTransform="translate(3509.58 -13583.74)" xlink:href="#linear-gradient"/><linearGradient id="linear-gradient-11" x1="-7825.27" y1="11267.66" x2="-7689.88" y2="11267.66" gradientTransform="translate(12227.66 8297.49) rotate(90)" xlink:href="#linear-gradient"/></defs><g id="Background"><rect class="cls-1" width="1920" height="1080"/></g><g id="Layer_2" data-name="Layer 2"><path class="cls-2" d="M192,0h970a0,0,0,0,1,0,0V487A485,485,0,0,1,677,972h0A485,485,0,0,1,192,487V0a0,0,0,0,1,0,0Z"/></g><g id="Guids_and_Grids" data-name="Guids and Grids"><path class="cls-3" d="M1304.26,718.18a10,10,0,0,1-1,4.65,7.36,7.36,0,0,1-2.55,2.8A9.79,9.79,0,0,1,1297,727a28.55,28.55,0,0,1-4.51.34,13.79,13.79,0,0,1-4.65-.7,10.57,10.57,0,0,1-3.92-2.72l2.8-4.87a9.11,9.11,0,0,0,2.69,1.4,11,11,0,0,0,3.36.45,15.79,15.79,0,0,0,5.07-.65c1.21-.42,1.82-1,1.82-1.65,0-.93-.68-2.2-2-3.81a31.32,31.32,0,0,0-6.61-5.43l2.52-6a27.94,27.94,0,0,1,3.89,2.83,24,24,0,0,1,3.45,3.61,18.65,18.65,0,0,1,2.43,4.12A10.7,10.7,0,0,1,1304.26,718.18Z"/><path class="cls-3" d="M1324,726.75a11.33,11.33,0,0,1-1.8-.14,3.17,3.17,0,0,1-1.56-.76,11.93,11.93,0,0,1-1.46,4.34,20.35,20.35,0,0,1-3,4.06,36.44,36.44,0,0,1-4.34,3.87q-2.5,1.9-5.35,3.75l-4.31-4.09q3.07-1.85,5.65-3.7a43.51,43.51,0,0,0,4.37-3.52,20.38,20.38,0,0,0,2.8-3.14,4.74,4.74,0,0,0,1-2.58,8.44,8.44,0,0,0-1-3.22,33,33,0,0,0-2.58-4.39l4.26-4.26q1.17,2,2,3.42a19.93,19.93,0,0,0,1.6,2.27,5,5,0,0,0,1.46,1.26,3.35,3.35,0,0,0,1.62.39h2.24v6.44Z"/><path class="cls-3" d="M1341.33,726.75a9,9,0,0,1-3.81-.73,6.23,6.23,0,0,1-2.63-2.41,7.11,7.11,0,0,1-2.8,2.38,9.44,9.44,0,0,1-4,.76h-2.41c-.41,0-.75-.29-1-.87a5.74,5.74,0,0,1-.39-2.32,5.93,5.93,0,0,1,.39-2.35c.26-.6.6-.9,1-.9h2.3a16.46,16.46,0,0,0,2.32-.14,3.43,3.43,0,0,0,1.51-.56,2.46,2.46,0,0,0,.87-1.18,6.44,6.44,0,0,0,.34-1.93v-2.35l4.64-1.18c0,1.38,0,2.54.14,3.48a6.45,6.45,0,0,0,.59,2.26,2.63,2.63,0,0,0,1.29,1.24,6,6,0,0,0,2.3.36h2.63v6.44ZM1331.19,738l-4.08-3.47,3.24-3.86,4.15,3.41Zm7.17,0-4.09-3.47,3.25-3.86,4.09,3.41Z"/><path class="cls-3" d="M1360.26,717.17a9.72,9.72,0,0,1-.81,4,8.63,8.63,0,0,1-2.27,3,10.05,10.05,0,0,1-3.5,1.88,15.31,15.31,0,0,1-4.51.64h-4.59c-.41,0-.75-.29-1-.87a5.74,5.74,0,0,1-.39-2.32,5.93,5.93,0,0,1,.39-2.35c.26-.6.6-.9,1-.9h4.87a10.63,10.63,0,0,0,4.28-.67,4.19,4.19,0,0,0,2-1.68,10,10,0,0,0-2.88-4.88,60,60,0,0,0-7.26-6,30.45,30.45,0,0,1,.54-4,3,3,0,0,1,.92-1.79q1.85-1.23,4.12-2.54t4.64-2.61q2.39-1.29,4.71-2.46t4.28-2.13l-.84,6.78c-2.42,1.08-4.65,2.14-6.66,3.19s-3.92,2.11-5.71,3.19Q1360.25,711.52,1360.26,717.17Zm2.41-26.93c-2.39,1.19-4.91,2.52-7.56,4s-5.46,3.14-8.4,5l.5-4q4.36-2.85,8.34-5.1t7.67-4.08Z"/><path class="cls-3" d="M1395.31,726.75c-1.3,0-2.51-.09-3.61-.17s-1.88-.11-2.32-.11a4.09,4.09,0,0,0-1.6.22q-.48.22-.48.51a.48.48,0,0,0,.23.42,3.89,3.89,0,0,0,1,.3l3.8.73a6.79,6.79,0,0,1,2.78,1.07,2.67,2.67,0,0,1,1,2.29,6.13,6.13,0,0,1-1.49,4,12.31,12.31,0,0,1-3.83,3,21.73,21.73,0,0,1-5.27,1.9,25.21,25.21,0,0,1-5.71.68,16.19,16.19,0,0,1-5.4-.85,11.33,11.33,0,0,1-4.15-2.43,11,11,0,0,1-2.66-4,14.82,14.82,0,0,1-.95-5.51,15.62,15.62,0,0,1,.84-5.27,29.32,29.32,0,0,1,2.47-5.09l4,1.62a25.09,25.09,0,0,0-1.85,4.37,12.24,12.24,0,0,0-.56,3.36,6.83,6.83,0,0,0,2.27,5.51c1.51,1.29,3.71,1.94,6.58,1.94a25.91,25.91,0,0,0,3.61-.25,28.81,28.81,0,0,0,3.08-.62,18,18,0,0,0,2.38-.78c.67-.29,1.2-.52,1.57-.71a4.19,4.19,0,0,0-1.79-.55l-2.91-.62a6.21,6.21,0,0,1-2.94-1.29,3.83,3.83,0,0,1-1.15-3.13,6.1,6.1,0,0,1,2.49-5.21c1.66-1.24,4.25-1.85,7.76-1.85h3.64v6.44Z"/><path class="cls-3" d="M1410.26,709.56a4.86,4.86,0,0,1,3,1,8.4,8.4,0,0,1,2.24,2.57,14.1,14.1,0,0,1,1.43,3.56,16.2,16.2,0,0,1,.5,4,6.38,6.38,0,0,1-.45,2.29,8.46,8.46,0,0,1-1.17,2.13,6.43,6.43,0,0,1-1.68,1.54,3.72,3.72,0,0,1-2,.59,9.4,9.4,0,0,1-2-.25,19.52,19.52,0,0,1-2.24-.68,16.38,16.38,0,0,1-2.27-1,15.38,15.38,0,0,1-2.07-1.35,7.72,7.72,0,0,1-2.91,2.24,9.84,9.84,0,0,1-3.7.62h-.89c-.41,0-.75-.33-1-1a5.77,5.77,0,0,1-.39-2.16,6.44,6.44,0,0,1,.39-2.27c.26-.69.6-1,1-1h.67a12.08,12.08,0,0,0,2.91-.34,3.33,3.33,0,0,0,2.18-1.73c.6-1.12,1.22-2.21,1.85-3.25a20.8,20.8,0,0,1,2-2.77,10.07,10.07,0,0,1,2.16-1.93A4.26,4.26,0,0,1,1410.26,709.56Zm-.56,5.93a2.46,2.46,0,0,0-1.73,1,10.46,10.46,0,0,0-1.74,2.74,9,9,0,0,0,1.29.84,12.23,12.23,0,0,0,1.48.67,8.81,8.81,0,0,0,1.49.42,7.12,7.12,0,0,0,1.29.14,1.45,1.45,0,0,0,.72-.22,1.08,1.08,0,0,0,.51-.51,6.3,6.3,0,0,0-.25-1.7,6.83,6.83,0,0,0-.73-1.63A5,5,0,0,0,1411,716,2,2,0,0,0,1409.7,715.49Z"/><path class="cls-3" d="M1447.56,721.26a11.48,11.48,0,0,1-1.12,5,19.34,19.34,0,0,1-3,4.56,34.36,34.36,0,0,1-4.57,4.26c-1.75,1.38-3.66,2.72-5.71,4L1428.8,735q3.08-1.85,5.66-3.69a44.7,44.7,0,0,0,4.36-3.53,19.87,19.87,0,0,0,2.8-3.14,3.78,3.78,0,0,0,.73-4,19.59,19.59,0,0,0-.75-1.91,20.47,20.47,0,0,0-1.15-2.13c-.45-.72-.92-1.44-1.4-2.15l4.2-4.2a26,26,0,0,1,3.33,6.13A15.05,15.05,0,0,1,1447.56,721.26Z"/><path class="cls-3" d="M1459.54,725.85l-5.26,1.18v-37l5.26-2.52Z"/><path class="cls-3" d="M1479.53,726.75a11.3,11.3,0,0,1-1.79-.14,3.24,3.24,0,0,1-1.57-.76,11.73,11.73,0,0,1-1.45,4.34,20.41,20.41,0,0,1-3,4.06,34.94,34.94,0,0,1-4.34,3.87q-2.49,1.9-5.34,3.75l-4.32-4.09c2.06-1.23,3.94-2.46,5.66-3.7a43.51,43.51,0,0,0,4.37-3.52,20.38,20.38,0,0,0,2.8-3.14,4.74,4.74,0,0,0,1-2.58,8.44,8.44,0,0,0-1-3.22,33,33,0,0,0-2.58-4.39l4.26-4.26q1.17,2,2,3.42a19.93,19.93,0,0,0,1.6,2.27,5.1,5.1,0,0,0,1.45,1.26,3.41,3.41,0,0,0,1.63.39h2.24v6.44Z"/><path class="cls-3" d="M1490.57,701.1a5.51,5.51,0,0,1,3.78,1.37,10,10,0,0,1,2.46,3.48,18.06,18.06,0,0,1,1.31,4.67,32.12,32.12,0,0,1,.4,5c0,3.92-.93,6.75-2.77,8.51s-4.85,2.63-9,2.63h-5.6c-.41,0-.75-.29-1-.87a5.74,5.74,0,0,1-.39-2.32,5.93,5.93,0,0,1,.39-2.35c.26-.6.6-.9,1-.9h5.71a19.19,19.19,0,0,0,4.12-.45,4.51,4.51,0,0,0,2.77-1.45,1.43,1.43,0,0,0,.19-.73c0-.34,0-.8,0-1.4a12.15,12.15,0,0,1-2.46.59,18.08,18.08,0,0,1-2,.13q-6.27,0-6.27-6.6a10.66,10.66,0,0,1,.56-3.36,11.11,11.11,0,0,1,1.51-3,7.9,7.9,0,0,1,2.3-2.13A5.61,5.61,0,0,1,1490.57,701.1Zm-3.87-3.53-4.09-3.41,3.25-3.87,4.15,3.36Zm3.31,9.08a2.38,2.38,0,0,0-2,1,3.39,3.39,0,0,0-.79,2.13,1.84,1.84,0,0,0,.62,1.37,2.86,2.86,0,0,0,2,.59,9.73,9.73,0,0,0,2.08-.2,6.75,6.75,0,0,0,1.56-.47,7.24,7.24,0,0,0-1.28-3.16A2.78,2.78,0,0,0,1490,706.65Zm3.86-9.08-4.09-3.41,3.25-3.87,4.09,3.36Z"/><path class="cls-3" d="M1524.11,726.75a7.86,7.86,0,0,1-4.2-1,6.56,6.56,0,0,1-2.41-2.58,10.94,10.94,0,0,1-1.12-3.64,37.82,37.82,0,0,1-.34-4.17c-.07-1.72-.13-3.64-.16-5.77s-.09-4.31-.14-6.55-.13-4.48-.23-6.72-.21-4.33-.36-6.27l5.21-2.52q0,3.13,0,6.47t.12,6.63c0,2.21.11,4.39.16,6.56s.11,4.21.14,6.16c0,.89,0,1.76.06,2.6a8.23,8.23,0,0,0,.39,2.24,3.17,3.17,0,0,0,1.09,1.54,3.84,3.84,0,0,0,2.27.56h2.24v6.44Z"/><path class="cls-3" d="M1554.12,726.75a18.44,18.44,0,0,1-3-.22,5.65,5.65,0,0,1-2.24-.87,6.48,6.48,0,0,1-1.74-1.82,14.06,14.06,0,0,1-1.46-3.14l-3.66,2.44a28.15,28.15,0,0,1-3.34,1.9,17.59,17.59,0,0,1-3.55,1.26,18.73,18.73,0,0,1-4.34.45h-4c-.41,0-.74-.29-1-.87a5.74,5.74,0,0,1-.39-2.32,5.93,5.93,0,0,1,.39-2.35c.27-.6.6-.9,1-.9H1531a25.93,25.93,0,0,0,3.89-.25,14.75,14.75,0,0,0,3-.84,28.76,28.76,0,0,0,3.17-1.51q1.68-.93,4.25-2.27c-.86-.26-1.71-.52-2.54-.79l-2.33-.73c-.71-.22-1.33-.41-1.85-.55a4.75,4.75,0,0,0-1.17-.23,2.9,2.9,0,0,0-1.46.53,12.91,12.91,0,0,0-2.41,2.44L1530,714a24.37,24.37,0,0,1,3.53-4.93,5.34,5.34,0,0,1,3.8-2,10,10,0,0,1,3.25.65l4.06,1.4c1.48.5,3,1,4.74,1.4a21.28,21.28,0,0,0,5.31.64h1.8l-1.24,5.71a17.4,17.4,0,0,0-3.16.4,13.65,13.65,0,0,0-2.77.89,8.5,8.5,0,0,0,.92,1.23,2.57,2.57,0,0,0,.9.65,3.22,3.22,0,0,0,1.06.22c.39,0,.85,0,1.37,0h5.49v6.44Zm-15.06,11.09-4.26-3.64,3.42-4,4.26,3.58Z"/><path class="cls-3" d="M1574.73,726.75a9,9,0,0,1-3.81-.73,6.23,6.23,0,0,1-2.63-2.41,7.11,7.11,0,0,1-2.8,2.38,9.44,9.44,0,0,1-4,.76h-2.41c-.41,0-.74-.29-1-.87a5.74,5.74,0,0,1-.39-2.32,5.93,5.93,0,0,1,.39-2.35c.27-.6.6-.9,1-.9h2.3a16.35,16.35,0,0,0,2.32-.14,3.38,3.38,0,0,0,1.51-.56,2.34,2.34,0,0,0,.87-1.18,6.44,6.44,0,0,0,.34-1.93v-2.35L1571,713a34.1,34.1,0,0,0,.14,3.48,6.25,6.25,0,0,0,.58,2.26,2.63,2.63,0,0,0,1.29,1.24,6,6,0,0,0,2.3.36H1578v6.44ZM1568.4,710l-4.25-3.58,3.41-4,4.26,3.59Z"/><path class="cls-3" d="M1576.3,738l-4.09-3.47,3.25-3.86,4.14,3.41Zm8.74-19.2a2.82,2.82,0,0,0-.26-1,11.2,11.2,0,0,0-.72-1.42c-.32-.54-.68-1.11-1.07-1.71a21.36,21.36,0,0,0-1.26-1.74l4.2-4.42a17.88,17.88,0,0,1,3.14,5.18,13.73,13.73,0,0,1,1,4.79,8,8,0,0,1-2.24,6.13c-1.5,1.4-3.79,2.1-6.89,2.1h-3c-.41,0-.75-.29-1-.87a5.74,5.74,0,0,1-.39-2.32,5.93,5.93,0,0,1,.39-2.35c.26-.6.6-.9,1-.9h3a10,10,0,0,0,3-.36C1584.66,719.7,1585,719.32,1585,718.8Zm-1.57,19.2-4.09-3.47,3.25-3.86,4.09,3.41Z"/><path class="cls-3" d="M1602,725.85l-5.26,1.18v-37l5.26-2.52Z"/><path class="cls-3" d="M1632.35,721.26a11.48,11.48,0,0,1-1.12,5,19,19,0,0,1-3,4.56,34.88,34.88,0,0,1-4.56,4.26q-2.64,2.07-5.71,4l-4.32-4.09c2.06-1.23,3.94-2.46,5.66-3.69a44.93,44.93,0,0,0,4.37-3.53,20.38,20.38,0,0,0,2.8-3.14,4.74,4.74,0,0,0,1-2.58,5.08,5.08,0,0,0-.28-1.42,17.54,17.54,0,0,0-.76-1.91,20.47,20.47,0,0,0-1.15-2.13c-.45-.72-.91-1.44-1.4-2.15l4.2-4.2a26.45,26.45,0,0,1,3.34,6.13A15,15,0,0,1,1632.35,721.26Z"/><path class="cls-3" d="M1658.28,718.18a10,10,0,0,1-1,4.65,7.2,7.2,0,0,1-2.55,2.8A9.67,9.67,0,0,1,1651,727a28.55,28.55,0,0,1-4.51.34,13.79,13.79,0,0,1-4.65-.7,10.65,10.65,0,0,1-3.92-2.72l2.8-4.87a9.24,9.24,0,0,0,2.69,1.4,11.06,11.06,0,0,0,3.36.45,15.71,15.71,0,0,0,5.07-.65c1.21-.42,1.82-1,1.82-1.65,0-.93-.67-2.2-2-3.81a31.21,31.21,0,0,0-6.6-5.43l2.52-6a29.17,29.17,0,0,1,3.89,2.83,23.91,23.91,0,0,1,3.44,3.61,19.09,19.09,0,0,1,2.44,4.12A10.86,10.86,0,0,1,1658.28,718.18Z"/><path class="cls-3" d="M1694.46,718.52a5.72,5.72,0,0,1-.42,2,7.93,7.93,0,0,1-1.15,2,6.46,6.46,0,0,1-1.71,1.51,4,4,0,0,1-2.1.59h-6.72c-1.27,0-2.06.36-2.38,1.09a8.56,8.56,0,0,0-.47,3.27V748.7h-4.43q-.11-5-.17-8.54c0-2.37-.06-4.34-.08-5.91s0-2.78,0-3.64v-1.73a17.13,17.13,0,0,1,1-6.47,5.8,5.8,0,0,1,3.25-3.16,17.58,17.58,0,0,1,.37-3.56,12.92,12.92,0,0,1,1.12-3.33,7.26,7.26,0,0,1,1.93-2.47,4.49,4.49,0,0,1,2.91-.95,7.07,7.07,0,0,1,3.33.87,10.74,10.74,0,0,1,2.94,2.27,11.9,11.9,0,0,1,2.07,3.08A7.79,7.79,0,0,1,1694.46,718.52Zm-4.43.05a3.3,3.3,0,0,0-.61-1.37,7.56,7.56,0,0,0-1.18-1.29,5.93,5.93,0,0,0-1.48-.95,3.82,3.82,0,0,0-1.54-.36q-2,0-2.13,4.59c.37,0,.82.06,1.34.08l1.57,0h2.69a1.85,1.85,0,0,0,.84-.19A.93.93,0,0,0,1690,718.57Z"/><path class="cls-3" d="M1710,726.75a7.86,7.86,0,0,1-4.2-1,6.56,6.56,0,0,1-2.41-2.58,10.94,10.94,0,0,1-1.12-3.64,35.54,35.54,0,0,1-.33-4.17c-.08-1.72-.14-3.64-.17-5.77s-.09-4.31-.14-6.55-.13-4.48-.23-6.72-.21-4.33-.36-6.27l5.21-2.52q0,3.13,0,6.47t.11,6.63c.05,2.21.11,4.39.17,6.56s.1,4.21.14,6.16c0,.89,0,1.76,0,2.6a8.23,8.23,0,0,0,.39,2.24,3.13,3.13,0,0,0,1.1,1.54,3.78,3.78,0,0,0,2.26.56h2.24v6.44Z"/><path class="cls-3" d="M1719.77,718.8a2.75,2.75,0,0,0-.25-1,11.42,11.42,0,0,0-.73-1.42c-.32-.54-.67-1.11-1.07-1.71a21.36,21.36,0,0,0-1.26-1.74l4.21-4.42a18.06,18.06,0,0,1,3.13,5.18,13.73,13.73,0,0,1,1,4.79,8,8,0,0,1-2.24,6.13q-2.23,2.1-6.89,2.1h-3c-.41,0-.74-.29-1-.87a5.56,5.56,0,0,1-.4-2.32,5.74,5.74,0,0,1,.4-2.35c.26-.6.59-.9,1-.9h3a10,10,0,0,0,3-.36C1719.4,719.7,1719.77,719.32,1719.77,718.8Zm-.28-13.22-4.26-3.58,3.42-4,4.25,3.59Z"/><path class="cls-3" d="M1498.09,817.87h17.68V820h-7.59v21.64h-2.47V820h-7.62Z"/><path class="cls-3" d="M1521.26,821.75H1519v-3.88h2.3Zm0,19.93H1519v-16.9h2.3Z"/><path class="cls-3" d="M1524.58,826.72v-1.94h3.13V819.2H1530v5.58h4.58v1.94H1530V837a3.27,3.27,0,0,0,.52,2.12,2.33,2.33,0,0,0,1.82.6h2.69v2h-3a4,4,0,0,1-4.38-4.42V826.72Z"/><path class="cls-3" d="M1540.69,841.68h-2.31V817.87h2.31Z"/><path class="cls-3" d="M1553,840.18a4.32,4.32,0,0,0,4.68-3.88l2.21.35a5.75,5.75,0,0,1-2.23,4,7.35,7.35,0,0,1-4.66,1.47,7.58,7.58,0,0,1-6-2.28q-2.05-2.28-2-6.6a9.24,9.24,0,0,1,2.14-6.42,7.36,7.36,0,0,1,5.78-2.41,6.84,6.84,0,0,1,5.33,2.08,8.39,8.39,0,0,1,1.89,5.84v1.42h-12.75Q1547.57,840.19,1553,840.18Zm-.12-13.91a5,5,0,0,0-3.76,1.41,6.68,6.68,0,0,0-1.66,4.14h10.22Q1557.43,826.27,1552.87,826.27Z"/><path class="cls-3" d="M1573.08,842.14h-2.45l11.09-26.45h2.44Z"/><path class="cls-3" d="M1615.31,832a6.56,6.56,0,0,0-1.14-.45,4,4,0,0,0-1.13-.17,4.63,4.63,0,0,0-2.09.53,8.23,8.23,0,0,0-1.89,1.27,8,8,0,0,0-1.39,1.62,3,3,0,0,0-.54,1.55.82.82,0,0,0,.49.72,6.69,6.69,0,0,0,1.6.43l1.93.33c.61.09,1.16.19,1.64.29a3.74,3.74,0,0,1,2.08.92,2.62,2.62,0,0,1,.58,1.85,3.94,3.94,0,0,1-1.06,2.55,10.58,10.58,0,0,1-2.79,2.27,16.87,16.87,0,0,1-3.91,1.62,16.24,16.24,0,0,1-4.44.61,10.91,10.91,0,0,1-3.48-.53,7.57,7.57,0,0,1-2.66-1.57,7.13,7.13,0,0,1-1.71-2.5,8.66,8.66,0,0,1-.61-3.35,10.65,10.65,0,0,1,.46-3.28,14,14,0,0,1,1.48-3l1.66.79a13.14,13.14,0,0,0-1.12,2.48,8,8,0,0,0-.4,2.42,5.46,5.46,0,0,0,1.73,4.26,7,7,0,0,0,4.9,1.57,14.46,14.46,0,0,0,3.69-.45,16.31,16.31,0,0,0,3-1.08,9.82,9.82,0,0,0,2.09-1.3,3.67,3.67,0,0,0,1-1.06.69.69,0,0,0-.34-.45,4.42,4.42,0,0,0-1.2-.34l-3.32-.54a9.08,9.08,0,0,1-1.31-.29,3,3,0,0,1-1-.52,2.25,2.25,0,0,1-.66-.88,3.51,3.51,0,0,1-.24-1.41,6.34,6.34,0,0,1,.74-2.86,10.57,10.57,0,0,1,1.93-2.66,10.18,10.18,0,0,1,2.64-2,6.17,6.17,0,0,1,2.87-.76,4.67,4.67,0,0,1,1.47.23,5.25,5.25,0,0,1,1.41.78Z"/><path class="cls-3" d="M1626.14,838.58a6.87,6.87,0,0,1-.72,3.06,12.27,12.27,0,0,1-2,2.86,22.25,22.25,0,0,1-3,2.72q-1.73,1.34-3.7,2.66l-1.84-1.76a43.42,43.42,0,0,0,3.85-2.65,29.52,29.52,0,0,0,2.86-2.48,11.88,11.88,0,0,0,1.79-2.18,3.6,3.6,0,0,0,.61-1.76,3.91,3.91,0,0,0-.18-1.08,9.66,9.66,0,0,0-.49-1.3,14.38,14.38,0,0,0-.72-1.4c-.27-.48-.57-.95-.88-1.4l1.84-1.84a14.79,14.79,0,0,1,1.94,3.51A8.87,8.87,0,0,1,1626.14,838.58Z"/><path class="cls-3" d="M1635.83,841.68a5,5,0,0,1-2.69-.62,3.68,3.68,0,0,1-1.4-1.58,6.35,6.35,0,0,1-.54-2.23c-.06-.84-.1-1.69-.13-2.56,0-1.22-.07-2.55-.09-4s0-2.88-.07-4.37-.08-3-.12-4.48-.12-2.94-.22-4.3l2.3-1.08c.08,1.94.12,3.68.15,5.22s0,3,0,4.32,0,2.62,0,3.85,0,2.5.07,3.81q0,1.08.09,2a5.68,5.68,0,0,0,.33,1.66,2.46,2.46,0,0,0,.84,1.11,2.72,2.72,0,0,0,1.62.41h1.15v2.78Z"/><path class="cls-3" d="M1647,835.92a5.34,5.34,0,0,1-.52,2.39,5.41,5.41,0,0,1-1.44,1.82,6.28,6.28,0,0,1-2.23,1.15,10,10,0,0,1-2.86.4h-2.74a.74.74,0,0,1-.61-.4,1.82,1.82,0,0,1-.25-1,1.77,1.77,0,0,1,.25-1,.73.73,0,0,1,.61-.38h2.92a6.13,6.13,0,0,0,3.53-.84,3,3,0,0,0,1.36-1.82,4.83,4.83,0,0,0-.48-1.66,9.1,9.1,0,0,0-1.24-1.83,26.45,26.45,0,0,0-2.06-2.11c-.81-.75-1.78-1.59-2.91-2.5a13.84,13.84,0,0,1,.31-2.09,1.41,1.41,0,0,1,.52-.86c.62-.41,1.35-.86,2.19-1.37s1.73-1,2.67-1.53l2.89-1.57,2.9-1.51-.36,2.92q-2.62,1.26-4.88,2.5c-1.5.83-2.77,1.59-3.83,2.29a29.5,29.5,0,0,1,4.74,4.86A7.13,7.13,0,0,1,1647,835.92Z"/><path class="cls-3" d="M1673,830.37a12.94,12.94,0,0,1,1.82,3.64,12.31,12.31,0,0,1,.59,3.71,11.36,11.36,0,0,1-.68,4,9,9,0,0,1-2,3.13,8.86,8.86,0,0,1-3.17,2,11.85,11.85,0,0,1-4.28.72,10.05,10.05,0,0,1-3.37-.54,7.53,7.53,0,0,1-2.63-1.56,7.21,7.21,0,0,1-1.71-2.52,9,9,0,0,1-.61-3.37,10.51,10.51,0,0,1,.47-3.24,13.72,13.72,0,0,1,1.48-3.06l1.65.83a11.9,11.9,0,0,0-1.11,2.46,7.82,7.82,0,0,0-.4,2.43,5.42,5.42,0,0,0,1.73,4.25,6.93,6.93,0,0,0,4.79,1.55,9.39,9.39,0,0,0,3.13-.49,6.53,6.53,0,0,0,2.37-1.38,6.25,6.25,0,0,0,1.52-2.18,7.17,7.17,0,0,0,.54-2.83,9.22,9.22,0,0,0-.53-2.84,12,12,0,0,0-1.56-3.1Zm-7.23.69-2.2-1.88,1.62-1.9,2.2,1.83Z"/><path class="cls-3" d="M1682.16,841.32l-2.31.54v-24.3l2.31-1.08Z"/><path class="cls-3" d="M1696.3,841.68a9.92,9.92,0,0,1-1.22,2.77,15.53,15.53,0,0,1-2,2.52,26.24,26.24,0,0,1-2.76,2.37c-1,.77-2.11,1.54-3.29,2.31l-1.8-1.73a48.88,48.88,0,0,0,6.23-4.64,10.72,10.72,0,0,0,3-3.86,10.42,10.42,0,0,1-1.93.38q-.92.09-1.53.09a4,4,0,0,1-2.7-.93,3.53,3.53,0,0,1-1.08-2.81,7.68,7.68,0,0,1,.34-2.25,7.85,7.85,0,0,1,.94-2,5.45,5.45,0,0,1,1.42-1.52,3.05,3.05,0,0,1,1.8-.59,3.58,3.58,0,0,1,2,.61,5.19,5.19,0,0,1,1.51,1.61,8.4,8.4,0,0,1,1,2.28,13.06,13.06,0,0,1,.42,2.66h2.7v2.78Zm-1.83-2.74a9.62,9.62,0,0,0-.36-1.76,6.55,6.55,0,0,0-.63-1.46,3.09,3.09,0,0,0-.9-1,2,2,0,0,0-1.17-.36,1.52,1.52,0,0,0-.92.29,3,3,0,0,0-.74.73,4,4,0,0,0-.5,1,3.36,3.36,0,0,0-.18,1,1.69,1.69,0,0,0,.59,1.38,2.57,2.57,0,0,0,1.68.49,15.81,15.81,0,0,0,1.62-.09A9.35,9.35,0,0,0,1694.47,838.94Z"/><path class="cls-3" d="M1709.55,841.68a5.89,5.89,0,0,1-2.68-.54,3.69,3.69,0,0,1-1.67-1.84,4.68,4.68,0,0,1-1.79,1.8,5.48,5.48,0,0,1-2.68.58h-1.47a.75.75,0,0,1-.62-.4,1.91,1.91,0,0,1-.25-1,1.86,1.86,0,0,1,.25-1,.75.75,0,0,1,.62-.38h1.47a4.21,4.21,0,0,0,2.61-.66,3.38,3.38,0,0,0,1-2.54l0-1.37,2-.5a16.36,16.36,0,0,0,.14,2.41,4,4,0,0,0,.54,1.57,2.12,2.12,0,0,0,1.1.84,5.43,5.43,0,0,0,1.82.25h1.4v2.78Zm-4.25-10.62-2.19-1.88,1.62-1.9,2.19,1.83Z"/><path class="cls-3" d="M1714.55,834.91a5.69,5.69,0,0,1,1.75-4.16,6.09,6.09,0,0,1,1.86-1.21,5.78,5.78,0,0,1,2.19-.43,6.65,6.65,0,0,1,2.59.51,9.89,9.89,0,0,1,2.38,1.4l-.9,1.8a10,10,0,0,0-2-.79,8,8,0,0,0-2.07-.25,4.07,4.07,0,0,0-1.46.25,4,4,0,0,0-1.15.66,3.36,3.36,0,0,0-.77,1,2.36,2.36,0,0,0-.29,1.11,2.7,2.7,0,0,0,.34,1.32,4.43,4.43,0,0,0,.85,1.11,4.25,4.25,0,0,0,1.06.78,2.19,2.19,0,0,0,1,.29,15,15,0,0,0,2.92-.4q1.83-.39,4.79-1.22l-.26,2.59a49.73,49.73,0,0,1-7.36,1.87,40.52,40.52,0,0,1-6.82.58h-1.8a.74.74,0,0,1-.61-.4,1.82,1.82,0,0,1-.25-1,1.77,1.77,0,0,1,.25-1,.73.73,0,0,1,.61-.38h3.11c.45,0,1,0,1.82-.09a5.52,5.52,0,0,1-1.33-1.88A5.3,5.3,0,0,1,1714.55,834.91Z"/><path class="cls-3" d="M1476.64,886a6.63,6.63,0,0,0,4.4-1.4,8.43,8.43,0,0,0,2.48-4.36l2.15.31a9.76,9.76,0,0,1-3.17,5.46,9.81,9.81,0,0,1-12.84-1q-2.55-2.91-2.55-8a11.49,11.49,0,0,1,2.58-7.88,8.73,8.73,0,0,1,7-3,9.29,9.29,0,0,1,6.16,2,9.39,9.39,0,0,1,3,5.74l-2.23.37a8.07,8.07,0,0,0-2.36-4.62,6.72,6.72,0,0,0-4.6-1.5,6.54,6.54,0,0,0-5.36,2.36,12,12,0,0,0,0,13.07A6.52,6.52,0,0,0,1476.64,886Z"/><path class="cls-3" d="M1501.47,885.92h.78v1.71H1501a2.87,2.87,0,0,1-1.88-.61,2,2,0,0,1-.76-1.64v-.12a5.24,5.24,0,0,1-4.86,2.74,5.54,5.54,0,0,1-3.75-1.21,3.93,3.93,0,0,1-1.41-3.14,4.09,4.09,0,0,1,1.18-3,6,6,0,0,1,3.32-1.57l4.53-.78a1,1,0,0,0,1-1.14,2.79,2.79,0,0,0-1-2.23,3.94,3.94,0,0,0-2.68-.86,3.68,3.68,0,0,0-4,3.06l-1.92-.26a5,5,0,0,1,2-3.26,6.46,6.46,0,0,1,4.06-1.24,5.76,5.76,0,0,1,4.09,1.39,4.83,4.83,0,0,1,1.49,3.71v7.31a1.22,1.22,0,0,0,.26.88A1.12,1.12,0,0,0,1501.47,885.92Zm-11.07-2.37a2.47,2.47,0,0,0,.85,2,3.49,3.49,0,0,0,2.36.74,4.43,4.43,0,0,0,3.43-1.51,5.88,5.88,0,0,0,1.34-4v-1l-5.33.92a3.26,3.26,0,0,0-2,.93A2.57,2.57,0,0,0,1490.4,883.55Z"/><path class="cls-3" d="M1503.17,874.44v-1.72h2.76V867.8h2v4.92h4v1.72h-4v9a2.85,2.85,0,0,0,.46,1.87,2,2,0,0,0,1.6.53h2.38v1.77h-2.63a3.83,3.83,0,0,1-2.86-1,3.9,3.9,0,0,1-1-2.88v-9.3Z"/><path class="cls-3" d="M1521.18,886.32a3.82,3.82,0,0,0,4.13-3.43l2,.31a5.13,5.13,0,0,1-2,3.51,6.51,6.51,0,0,1-4.11,1.29,6.72,6.72,0,0,1-5.26-2,8.5,8.5,0,0,1-1.8-5.83,8.15,8.15,0,0,1,1.89-5.66,6.48,6.48,0,0,1,5.09-2.13,6,6,0,0,1,4.7,1.84,7.36,7.36,0,0,1,1.67,5.15v1.26h-11.25Q1516.4,886.32,1521.18,886.32Zm-.11-12.28a4.43,4.43,0,0,0-3.31,1.25,5.89,5.89,0,0,0-1.48,3.64h9Q1525.09,874,1521.07,874Z"/><path class="cls-3" d="M1536.79,886.77a5.92,5.92,0,0,1-4.67-1.95,8.77,8.77,0,0,1,0-10.47,5.93,5.93,0,0,1,4.66-2,5.63,5.63,0,0,1,4.73,2.27v-1.92h2V887a6.54,6.54,0,0,1-1.69,4.75,6.2,6.2,0,0,1-4.67,1.76,7.24,7.24,0,0,1-4.55-1.31,5.14,5.14,0,0,1-1.92-3.67l2-.18a4.09,4.09,0,0,0,1.42,2.6,4.94,4.94,0,0,0,3,.8,4.09,4.09,0,0,0,3.25-1.24,5.38,5.38,0,0,0,1.1-3.68v-2.55A5.45,5.45,0,0,1,1536.79,886.77Zm-4.29-7.21a6.07,6.07,0,0,0,1.2,4,4.21,4.21,0,0,0,3.38,1.42,4,4,0,0,0,3.26-1.5,6.76,6.76,0,0,0,0-7.83,4,4,0,0,0-3.24-1.54,4.17,4.17,0,0,0-3.4,1.41A6.12,6.12,0,0,0,1532.5,879.56Z"/><path class="cls-3" d="M1547.28,880.19a8.18,8.18,0,0,1,1.92-5.67,7.34,7.34,0,0,1,10.38,0,9.22,9.22,0,0,1,0,11.34,7.36,7.36,0,0,1-10.38,0A8.15,8.15,0,0,1,1547.28,880.19Zm10.8,4.41a7.85,7.85,0,0,0,0-8.83,4.93,4.93,0,0,0-7.34,0,7.92,7.92,0,0,0,0,8.83,5,5,0,0,0,7.35,0Z"/><path class="cls-3" d="M1567.35,887.63h-2V872.72h2v2.92a4.71,4.71,0,0,1,4.44-2.92h1.11v2h-1.11a3.73,3.73,0,0,0-3.21,1.82,8.42,8.42,0,0,0-1.23,4.79Z"/><path class="cls-3" d="M1579.55,889.26l.6-1.54-6-15h2.19l4.91,12.6,4.92-12.6h2.11l-6.81,16.95a6,6,0,0,1-1.88,2.74,4.75,4.75,0,0,1-2.84.78h-1.46v-1.78h1.46a2.83,2.83,0,0,0,1.72-.46A3.7,3.7,0,0,0,1579.55,889.26Z"/><path class="cls-3" d="M1603.43,867.47h2l-8,21.45h-1.92Z"/><path class="cls-3" d="M1627.49,879a5.64,5.64,0,0,0-1-.41,3.79,3.79,0,0,0-1-.14,4.13,4.13,0,0,0-1.85.47,7.17,7.17,0,0,0-1.68,1.13,6.83,6.83,0,0,0-1.23,1.44,2.67,2.67,0,0,0-.48,1.38.71.71,0,0,0,.43.64,7,7,0,0,0,1.42.38l1.71.29c.55.08,1,.17,1.46.25a3.47,3.47,0,0,1,1.86.82,2.36,2.36,0,0,1,.51,1.65,3.52,3.52,0,0,1-.95,2.27,9.29,9.29,0,0,1-2.48,2,15.38,15.38,0,0,1-3.47,1.44,14.65,14.65,0,0,1-4,.54,9.45,9.45,0,0,1-3.09-.48,6.23,6.23,0,0,1-3.89-3.61,7.8,7.8,0,0,1-.54-3,9.29,9.29,0,0,1,.42-2.91,11.42,11.42,0,0,1,1.31-2.69l1.47.7a11.5,11.5,0,0,0-1,2.21,6.8,6.8,0,0,0-.35,2.14,4.89,4.89,0,0,0,1.53,3.8,6.31,6.31,0,0,0,4.35,1.39,12.65,12.65,0,0,0,3.28-.4,15.13,15.13,0,0,0,2.68-1,9.75,9.75,0,0,0,1.85-1.15,3.39,3.39,0,0,0,.87-1,.68.68,0,0,0-.31-.4,4.49,4.49,0,0,0-1.07-.3l-2.94-.48a7.24,7.24,0,0,1-1.17-.26,2.6,2.6,0,0,1-.91-.46,1.91,1.91,0,0,1-.6-.79,3.31,3.31,0,0,1-.2-1.24,5.58,5.58,0,0,1,.65-2.55,9.78,9.78,0,0,1,1.71-2.37,9.48,9.48,0,0,1,2.36-1.74,5.45,5.45,0,0,1,2.54-.67,4,4,0,0,1,1.31.21,4.35,4.35,0,0,1,1.25.69Z"/><path class="cls-3" d="M1645.73,887.63a4.87,4.87,0,0,1-1.28-.14,3,3,0,0,1-1-.45,3.91,3.91,0,0,1-.8-.78,11.15,11.15,0,0,1-.75-1.18,4.32,4.32,0,0,1-2.29,2.3,9.79,9.79,0,0,1-3.56.58,7.43,7.43,0,0,1-2.52-.36,5.05,5.05,0,0,1-1.9-1.31l1.09-1.82a4.58,4.58,0,0,0,1.52.78,7.28,7.28,0,0,0,2,.24,7.45,7.45,0,0,0,3.28-.59c.78-.4,1.17-.87,1.17-1.43a9.64,9.64,0,0,0-.71-2.7q-.71-1.93-2-5.1l1.66-1.73,2.88,7.65a15.66,15.66,0,0,0,.74,1.74,4.76,4.76,0,0,0,.73,1.1,2.18,2.18,0,0,0,.82.58,2.7,2.7,0,0,0,1,.16h1v2.46Z"/><path class="cls-3" d="M1656,887.63a5.2,5.2,0,0,1-2.38-.48,3.32,3.32,0,0,1-1.49-1.63,4.14,4.14,0,0,1-1.59,1.6,5,5,0,0,1-2.38.51h-1.31a.64.64,0,0,1-.55-.35,1.61,1.61,0,0,1-.22-.89,1.53,1.53,0,0,1,.22-.88.65.65,0,0,1,.55-.34h1.31a3.77,3.77,0,0,0,2.32-.59,3,3,0,0,0,.85-2.26l0-1.21,1.79-.45a14.23,14.23,0,0,0,.13,2.14,3.21,3.21,0,0,0,.48,1.39,1.87,1.87,0,0,0,1,.76,4.81,4.81,0,0,0,1.61.22h1.25v2.46Zm-3.78-9.44-2-1.66,1.44-1.7,2,1.64Z"/><path class="cls-3" d="M1661.7,883.79a4.61,4.61,0,0,0-.39-1.36,10.24,10.24,0,0,0-1.31-2.25l1.63-1.73a8.45,8.45,0,0,1,1.51,2.63,7.44,7.44,0,0,1,.48,2.43,3.82,3.82,0,0,1-1.23,3.07,5.84,5.84,0,0,1-3.83,1h-1a.63.63,0,0,1-.54-.35,1.61,1.61,0,0,1-.23-.89,1.53,1.53,0,0,1,.23-.88.64.64,0,0,1,.54-.34h1a6.77,6.77,0,0,0,2.18-.32C1661.39,884.64,1661.7,884.29,1661.7,883.79Zm-3,9.86-2-1.66,1.44-1.7,2,1.63Z"/><path class="cls-3" d="M1679.23,887.63a4.24,4.24,0,0,1-3.08-1,6.71,6.71,0,0,1-1.59-3,6.14,6.14,0,0,1-1.87.89,7.55,7.55,0,0,1-2.29.36,3.12,3.12,0,0,1-2.22-.74,2.61,2.61,0,0,1-.79-2,5,5,0,0,1,1.3-3.29,16.18,16.18,0,0,1,4.24-3.24l-.39-1.79,1.76-1.25,1.54,7.84c.17.86.34,1.58.5,2.18a5,5,0,0,0,.62,1.47,2.29,2.29,0,0,0,1,.84,4.13,4.13,0,0,0,1.57.25h.58v2.46Zm-6-10a15.64,15.64,0,0,0-1.55.86,13.88,13.88,0,0,0-1.35,1,5.06,5.06,0,0,0-1,1,2.06,2.06,0,0,0-.4,1c0,.71.52,1.06,1.69,1.06a6.65,6.65,0,0,0,1-.08,7.91,7.91,0,0,0,1-.22c.32-.1.61-.21.87-.32a1.93,1.93,0,0,0,.57-.37Z"/><path class="cls-3" d="M1689.25,887.63a5.2,5.2,0,0,1-2.38-.48,3.32,3.32,0,0,1-1.49-1.63,4.14,4.14,0,0,1-1.59,1.6,5,5,0,0,1-2.38.51h-1.31a.63.63,0,0,1-.55-.35,1.61,1.61,0,0,1-.22-.89,1.53,1.53,0,0,1,.22-.88.64.64,0,0,1,.55-.34h1.31a3.77,3.77,0,0,0,2.32-.59,3,3,0,0,0,.85-2.26l0-1.21,1.79-.45a14.23,14.23,0,0,0,.13,2.14,3.21,3.21,0,0,0,.48,1.39,1.87,1.87,0,0,0,1,.76,4.81,4.81,0,0,0,1.61.22h1.25v2.46Zm-5.7-9.44-1.88-1.56L1683,875l1.86,1.56Zm3.81,0-1.85-1.56,1.4-1.63,1.83,1.56Z"/><path class="cls-3" d="M1703.65,885.46a4.35,4.35,0,0,1-1.51,1.63,4.44,4.44,0,0,1-2.33.54,4.8,4.8,0,0,1-2.29-.46,3.42,3.42,0,0,1-1.39-1.68,3.9,3.9,0,0,1-3.62,2.14h-1.66a.66.66,0,0,1-.55-.35,1.7,1.7,0,0,1-.22-.89,1.61,1.61,0,0,1,.22-.88.67.67,0,0,1,.55-.34h1.53a3.5,3.5,0,0,0,2.08-.58,2.38,2.38,0,0,0,.9-2v-1.47l1.79-.45a15.7,15.7,0,0,0,.13,2.14,3.85,3.85,0,0,0,.45,1.39,1.78,1.78,0,0,0,.83.76,3.2,3.2,0,0,0,1.28.22,3.15,3.15,0,0,0,2.26-.67,3.34,3.34,0,0,0,.75-2.31v-1.08l1.79-.45a7.56,7.56,0,0,0,.58,3.49,2.17,2.17,0,0,0,2.08,1,4.3,4.3,0,0,0,.78-.08,2.92,2.92,0,0,0,.74-.24,1.51,1.51,0,0,0,.54-.42.91.91,0,0,0,.21-.6,4.35,4.35,0,0,0-.4-1.4,11.34,11.34,0,0,0-1.33-2.25l1.66-1.73a8.45,8.45,0,0,1,1.51,2.63,7.44,7.44,0,0,1,.48,2.43,3.85,3.85,0,0,1-1.23,3,4.39,4.39,0,0,1-3.06,1.1,4.17,4.17,0,0,1-2.24-.54A3.36,3.36,0,0,1,1703.65,885.46Z"/><path class="cls-3" d="M1726.11,883a4.77,4.77,0,0,1-.56,2.46,4.15,4.15,0,0,1-1.49,1.51,6.3,6.3,0,0,1-2.14.75,14.81,14.81,0,0,1-2.53.21,8.77,8.77,0,0,1-2.59-.33,4.45,4.45,0,0,1-2-1.34l1.08-1.82a4.28,4.28,0,0,0,1.65.83,9.12,9.12,0,0,0,2,.19,8,8,0,0,0,3.52-.61c.81-.4,1.22-.9,1.22-1.5a3.22,3.22,0,0,0-.24-1.07,6.43,6.43,0,0,0-.82-1.48,12.18,12.18,0,0,0-1.55-1.75,17.91,17.91,0,0,0-2.45-1.94l1-2.34a15.42,15.42,0,0,1,4.1,3.65,10.7,10.7,0,0,1,1.33,2.26A5.9,5.9,0,0,1,1726.11,883Z"/><path class="cls-3" d="M1503.22,651.65H1501v-22.4h2.72l11.49,18.25V629.25h2.23v22.4h-2.08l-12.12-19.3Z"/><path class="cls-3" d="M1535.66,649.82h.82v1.83h-1.31a3.13,3.13,0,0,1-2-.65,2.17,2.17,0,0,1-.8-1.75v-.13a5.62,5.62,0,0,1-5.19,2.92,5.92,5.92,0,0,1-4-1.29,4.2,4.2,0,0,1-1.5-3.35,4.38,4.38,0,0,1,1.25-3.19,6.36,6.36,0,0,1,3.55-1.68l4.83-.83a1.13,1.13,0,0,0,1-1.22,3,3,0,0,0-1-2.38,4.2,4.2,0,0,0-2.86-.92,3.93,3.93,0,0,0-4.28,3.27l-2.05-.28a5.39,5.39,0,0,1,2.1-3.48,6.89,6.89,0,0,1,4.33-1.32,6.16,6.16,0,0,1,4.36,1.48,5.13,5.13,0,0,1,1.59,4v7.79a1.33,1.33,0,0,0,.27.95A1.28,1.28,0,0,0,1535.66,649.82Zm-11.82-2.53a2.69,2.69,0,0,0,.91,2.14,3.73,3.73,0,0,0,2.52.78,4.67,4.67,0,0,0,3.65-1.61,6.18,6.18,0,0,0,1.44-4.21v-1l-5.69,1a3.47,3.47,0,0,0-2.08,1A2.69,2.69,0,0,0,1523.84,647.29Z"/><path class="cls-3" d="M1552.06,643v8.67h-2.18v-9.89a5,5,0,0,0-1-3.31,3.5,3.5,0,0,0-2.83-1.17,3.89,3.89,0,0,0-3.28,1.46,6.71,6.71,0,0,0-1.15,4.24v8.67h-2.17v-15.9h2.17v2a5.42,5.42,0,0,1,4.77-2.39,6.08,6.08,0,0,1,3.13.77,4.65,4.65,0,0,1,1.93,2.23,5.47,5.47,0,0,1,5.25-3A5.62,5.62,0,0,1,1561,637a6.09,6.09,0,0,1,1.53,4.38v10.3h-2.17v-9.89a4.92,4.92,0,0,0-1-3.31,3.52,3.52,0,0,0-2.84-1.17,3.86,3.86,0,0,0-3.27,1.46A6.78,6.78,0,0,0,1552.06,643Z"/><path class="cls-3" d="M1573.88,650.25a4.07,4.07,0,0,0,4.4-3.66l2.08.33a5.47,5.47,0,0,1-2.09,3.74,7,7,0,0,1-4.39,1.38,7.14,7.14,0,0,1-5.61-2.15,9,9,0,0,1-1.93-6.21,8.73,8.73,0,0,1,2-6,7,7,0,0,1,5.44-2.27,6.42,6.42,0,0,1,5,2,7.87,7.87,0,0,1,1.78,5.49v1.35h-12Q1568.79,650.25,1573.88,650.25Zm-.11-13.1a4.72,4.72,0,0,0-3.54,1.33,6.27,6.27,0,0,0-1.57,3.89h9.62Q1578,637.15,1573.77,637.15Z"/><path class="cls-3" d="M1598.2,650.73a6.31,6.31,0,0,1-5-2.08,9.38,9.38,0,0,1,0-11.17,6.32,6.32,0,0,1,5-2.11,6,6,0,0,1,5,2.42v-2h2.17V651a7,7,0,0,1-1.8,5.06,6.61,6.61,0,0,1-5,1.88,7.68,7.68,0,0,1-4.85-1.4,5.48,5.48,0,0,1-2.06-3.91l2.18-.19a4.33,4.33,0,0,0,1.51,2.77,5.22,5.22,0,0,0,3.19.85,4.4,4.4,0,0,0,3.47-1.32,5.8,5.8,0,0,0,1.17-3.93V648.1A5.82,5.82,0,0,1,1598.2,650.73Zm-4.58-7.69a6.4,6.4,0,0,0,1.29,4.28,4.46,4.46,0,0,0,3.61,1.52,4.27,4.27,0,0,0,3.46-1.6,7.2,7.2,0,0,0,0-8.35,4.23,4.23,0,0,0-3.45-1.64,4.48,4.48,0,0,0-3.64,1.5A6.53,6.53,0,0,0,1593.62,643Z"/><path class="cls-3" d="M1609.39,643.71a8.67,8.67,0,0,1,2-6,7.82,7.82,0,0,1,11.08,0,9.86,9.86,0,0,1,0,12.09,7.87,7.87,0,0,1-11.08,0A8.7,8.7,0,0,1,1609.39,643.71Zm11.52,4.71a8.37,8.37,0,0,0,0-9.42,5.25,5.25,0,0,0-7.83,0,8.45,8.45,0,0,0,0,9.42,5.31,5.31,0,0,0,7.84,0Z"/><path class="cls-3" d="M1635.09,650.25a4.07,4.07,0,0,0,4.41-3.66l2.08.33a5.45,5.45,0,0,1-2.1,3.74,6.94,6.94,0,0,1-4.39,1.38,7.13,7.13,0,0,1-5.6-2.15,9,9,0,0,1-1.93-6.21,8.68,8.68,0,0,1,2-6,6.93,6.93,0,0,1,5.44-2.27,6.42,6.42,0,0,1,5,2,7.87,7.87,0,0,1,1.78,5.49v1.35h-12Q1630,650.25,1635.09,650.25Zm-.11-13.1a4.68,4.68,0,0,0-3.53,1.33,6.27,6.27,0,0,0-1.57,3.89h9.62C1639.34,638.89,1637.84,637.15,1635,637.15Z"/><path class="cls-3" d="M1651.3,652a7.41,7.41,0,0,1-4.77-1.44,5,5,0,0,1-1.92-3.84l2.14-.39a4.42,4.42,0,0,0,1.36,2.91,4.8,4.8,0,0,0,3.19.93,4.33,4.33,0,0,0,2.82-.79,2.81,2.81,0,0,0,1-2.32c0-1.37-1.07-2.23-3.2-2.59l-2.18-.34c-3.07-.51-4.61-2-4.61-4.36a3.89,3.89,0,0,1,1.59-3.19,7.59,7.59,0,0,1,8.36,0,5.63,5.63,0,0,1,2,3.63l-2,.34a4.72,4.72,0,0,0-1.46-2.62,4.34,4.34,0,0,0-2.78-.8,4.49,4.49,0,0,0-2.64.7,2.31,2.31,0,0,0-.3,3.51,3.75,3.75,0,0,0,2.11.82l2.5.41c3.18.52,4.77,2,4.77,4.48a4.46,4.46,0,0,1-1.61,3.58A6.48,6.48,0,0,1,1651.3,652Z"/><path class="cls-3" d="M1682.12,641.35v10.3h-2.18v-9.89a4.7,4.7,0,0,0-1.08-3.31,4,4,0,0,0-3.08-1.17,4.31,4.31,0,0,0-3.53,1.45,6.54,6.54,0,0,0-1.2,4.25v8.67h-2.17v-22.4h2.17v8.6a5.65,5.65,0,0,1,5.09-2.48,5.52,5.52,0,0,1,6,6Z"/><path class="cls-3" d="M1693.52,650.25a4.07,4.07,0,0,0,4.4-3.66l2.08.33a5.47,5.47,0,0,1-2.09,3.74,7,7,0,0,1-4.39,1.38,7.14,7.14,0,0,1-5.61-2.15,9,9,0,0,1-1.93-6.21,8.73,8.73,0,0,1,2-6,7,7,0,0,1,5.44-2.27,6.41,6.41,0,0,1,5,2,7.87,7.87,0,0,1,1.78,5.49v1.35h-12Q1688.42,650.25,1693.52,650.25Zm-.11-13.1a4.72,4.72,0,0,0-3.54,1.33,6.27,6.27,0,0,0-1.57,3.89h9.62C1697.77,638.89,1696.26,637.15,1693.41,637.15Z"/><path class="cls-3" d="M1706.48,651.65h-2.17v-15.9h2.17v3.1a5,5,0,0,1,4.74-3.1h1.19v2.1h-1.19a4,4,0,0,0-3.42,1.95,8.94,8.94,0,0,0-1.32,5.1Z"/><path class="cls-3" d="M1721.64,650.25a4.07,4.07,0,0,0,4.41-3.66l2.07.33a5.4,5.4,0,0,1-2.09,3.74,7,7,0,0,1-4.39,1.38,7.11,7.11,0,0,1-5.6-2.15q-1.93-2.14-1.93-6.21a8.73,8.73,0,0,1,2-6,7,7,0,0,1,5.44-2.27,6.43,6.43,0,0,1,5,2,7.87,7.87,0,0,1,1.78,5.49v1.35h-12Q1716.54,650.25,1721.64,650.25Zm-.11-13.1a4.72,4.72,0,0,0-3.54,1.33,6.33,6.33,0,0,0-1.57,3.89h9.63Q1725.81,637.15,1721.53,637.15Z"/><rect class="cls-4" x="1727.5" width="1" height="1080"/><rect class="cls-5" x="191.5" width="1" height="1080"/><path d="M1482.71,939.21h0a15.59,15.59,0,0,1-15.6-15.6V908h31.21v15.6A15.6,15.6,0,0,1,1482.71,939.21Z"/><path class="cls-3" d="M1485.82,926.26v3h-1.72v-3h-6.38v-1.78l5.28-9.16h1.8l-5.44,9.4h4.74v-4.14h1.72v4.14h1.88v1.54Z"/><path d="M1393.5,807.19h0a15.6,15.6,0,0,1-15.61-15.6V776h31.21v15.61A15.6,15.6,0,0,1,1393.5,807.19Z"/><path class="cls-3" d="M1396.73,796.2a4.87,4.87,0,0,1-6.54,0,4.14,4.14,0,0,1-1.18-3h1.74a2.9,2.9,0,0,0,.72,1.92,2.44,2.44,0,0,0,1.9.78,2.59,2.59,0,0,0,2-.8,2.56,2.56,0,0,0,.66-1.76c0-1.7-1.16-2.58-2.86-2.58h-.84V789.2h.84a2.26,2.26,0,0,0,2.56-2.34,2.17,2.17,0,0,0-.66-1.62,2.3,2.3,0,0,0-1.7-.68,2.39,2.39,0,0,0-2.54,2.52h-1.74a3.84,3.84,0,0,1,1.34-3.06,4.58,4.58,0,0,1,3-1,4.3,4.3,0,0,1,3,1.12,3.52,3.52,0,0,1,1.12,2.73,3.59,3.59,0,0,1-2,3.14,3.55,3.55,0,0,1,2.32,3.4A4.05,4.05,0,0,1,1396.73,796.2Z"/><path d="M1516.59,617.78h0a15.61,15.61,0,0,1-15.61-15.6V586.57h31.21v15.61A15.6,15.6,0,0,1,1516.59,617.78Z"/><path class="cls-3" d="M1516.62,607.79v-12l-3.3,2.42v-1.9l3.4-2.46h1.64v13.91Z"/><path d="M1290.47,677.48h0a15.61,15.61,0,0,1-15.61-15.61v-15.6h31.21v15.6A15.61,15.61,0,0,1,1290.47,677.48Z"/><path class="cls-3" d="M1286.32,667.48V666l5.62-6.94a3.1,3.1,0,0,0,.76-2,2.05,2.05,0,0,0-2.28-2.24,2.23,2.23,0,0,0-2.36,2.52h-1.76a3.86,3.86,0,0,1,4.1-4.06,4,4,0,0,1,3.4,1.6,3.59,3.59,0,0,1,.64,2.16,4.56,4.56,0,0,1-1.18,3l-4.72,5.86h6.12v1.6Z"/><rect class="cls-6" y="971.5" width="1920" height="1"/><rect class="cls-7" y="107.5" width="1920" height="1"/><rect class="cls-8" y="886.95" width="1920" height="1"/><rect class="cls-9" x="959.5" width="1" height="216"/><rect class="cls-10" x="959.5" y="864" width="1" height="216"/><rect class="cls-11" x="1536" y="539.34" width="384" height="1.33"/><rect class="cls-12" y="539.34" width="384" height="1.33"/><rect class="cls-13" x="892.31" y="539.42" width="135.39" height="1"/><rect class="cls-14" x="959.5" y="472.23" width="1" height="135.39"/></g></svg>