<svg xmlns="http://www.w3.org/2000/svg" xmlns:xlink="http://www.w3.org/1999/xlink" viewBox="0 0 1920 1080"><defs><style>.cls-1{fill:#061f6b;}.cls-2{fill:url(#linear-gradient);}.cls-3{fill:#fff;}.cls-4{fill:url(#linear-gradient-2);}.cls-5{fill:url(#linear-gradient-3);}.cls-6{fill:url(#linear-gradient-4);}.cls-7{fill:url(#linear-gradient-5);}.cls-8{fill:url(#linear-gradient-6);}.cls-9{fill:url(#linear-gradient-7);}.cls-10{fill:url(#linear-gradient-8);}.cls-11{fill:url(#linear-gradient-9);}.cls-12{fill:url(#linear-gradient-10);}.cls-13{fill:url(#linear-gradient-11);}</style><linearGradient id="linear-gradient" x1="192" y1="1080" x2="192" gradientUnits="userSpaceOnUse"><stop offset="0" stop-color="#fff" stop-opacity="0"/><stop offset="0.51" stop-color="#fff"/><stop offset="1" stop-color="#fff" stop-opacity="0"/></linearGradient><linearGradient id="linear-gradient-2" x1="7254.43" y1="10259.57" x2="8334.43" y2="10259.57" gradientTransform="translate(11987.57 -7254.43) rotate(90)" xlink:href="#linear-gradient"/><linearGradient id="linear-gradient-3" x1="8586.42" y1="16043.57" x2="10506.42" y2="16043.57" gradientTransform="translate(10506.43 17015.57) rotate(180)" xlink:href="#linear-gradient"/><linearGradient id="linear-gradient-4" x1="8586.42" y1="16907.57" x2="10506.42" y2="16907.57" gradientTransform="translate(10506.43 17015.57) rotate(180)" xlink:href="#linear-gradient"/><linearGradient id="linear-gradient-5" x1="8586.42" y1="16128.12" x2="10506.42" y2="16128.12" gradientTransform="translate(10506.43 17015.57) rotate(180)" xlink:href="#linear-gradient"/><linearGradient id="linear-gradient-6" x1="13056" y1="216" x2="13056" gradientTransform="matrix(-1, 0, 0, 1, 14016, 0)" gradientUnits="userSpaceOnUse"><stop offset="0" stop-color="#fff" stop-opacity="0"/><stop offset="1" stop-color="#fff"/></linearGradient><linearGradient id="linear-gradient-7" x1="960" y1="3119.22" x2="960" y2="2903.23" gradientTransform="matrix(1, 0, 0, -1, 0, 3983.22)" xlink:href="#linear-gradient-6"/><linearGradient id="linear-gradient-8" x1="8184" y1="7188" x2="8184" y2="6804" gradientTransform="matrix(0, -1, -1, 0, 8724, 8724)" xlink:href="#linear-gradient-6"/><linearGradient id="linear-gradient-9" x1="5832" y1="-4099.02" x2="5832" y2="-4483.03" gradientTransform="matrix(0, 1, 1, 0, 4483.03, -5292)" xlink:href="#linear-gradient-6"/><linearGradient id="linear-gradient-10" x1="-2617.27" y1="14123.66" x2="-2481.88" y2="14123.66" gradientTransform="translate(3509.58 -13583.74)" xlink:href="#linear-gradient"/><linearGradient id="linear-gradient-11" x1="2254.73" y1="21347.66" x2="2390.12" y2="21347.66" gradientTransform="translate(22307.66 -1782.51) rotate(90)" xlink:href="#linear-gradient"/></defs><g id="Background"><rect class="cls-1" y="0.07" width="1920" height="1080"/></g><g id="Guids_and_Grids" data-name="Guids and Grids"><rect class="cls-2" x="191.5" width="1" height="1080"/><path class="cls-3" d="M1324,397.11h25.53v3.94h-10.46v29.67h-4.57V401.05H1324Z"/><path class="cls-3" d="M1359.3,430.72h-4.61V397.11h4.61Z"/><path class="cls-3" d="M1364.48,397.11H1390v3.94h-10.46v29.67H1375V401.05h-10.5Z"/><path class="cls-3" d="M1416,430.72h-20.83V397.11h4.61v29.62H1416Z"/><path class="cls-3" d="M1444.29,430.72H1421.2V397.11h22.62v3.94h-18v10.66h16.08v3.84h-16.08v11.23h18.47Z"/><path class="cls-3" d="M1476.52,431.3a15.59,15.59,0,0,1-11.91-4.8q-4.48-4.83-4.48-12.49,0-7.9,4.48-12.66t12-4.8a16.27,16.27,0,0,1,9.73,2.74,13.53,13.53,0,0,1,5.15,8l-4.61.79a10.51,10.51,0,0,0-3.7-5.7,10.77,10.77,0,0,0-6.57-1.87,10.89,10.89,0,0,0-8.7,3.64q-3.11,3.6-3.11,9.89a14,14,0,0,0,3.3,9.65,11.15,11.15,0,0,0,8.65,3.71,12,12,0,0,0,7.87-2.56,8,8,0,0,0,3.08-6.37v-1.93h-10.5v-3.79H1492v18h-4.22V426.1a12.81,12.81,0,0,1-4.83,3.84A14.82,14.82,0,0,1,1476.52,431.3Z"/><path class="cls-3" d="M1529.34,413.91q0,7.92-4.36,12.64t-11.57,4.75q-7.23,0-11.56-4.75t-4.33-12.64q0-7.85,4.33-12.61t11.56-4.75q7.29,0,11.62,4.75T1529.34,413.91Zm-24.15-9.78q-3,3.6-3,9.78t3,9.8a11.16,11.16,0,0,0,16.44,0q3-3.66,3-9.8t-3-9.78a11.2,11.2,0,0,0-16.45,0Z"/><path class="cls-3" d="M1559.13,430.72h-23.08V397.11h22.61v3.94h-18v10.66h16.08v3.84h-16.08v11.23h18.47Z"/><path class="cls-3" d="M1576.92,431.3c-4,0-7.26-1-9.63-2.93a10.16,10.16,0,0,1-3.66-8l4.53-.59a7.71,7.71,0,0,0,2.42,5.76,9.31,9.31,0,0,0,6.34,2,7.84,7.84,0,0,0,5.22-1.63,5.48,5.48,0,0,0,1.91-4.37,4.47,4.47,0,0,0-1.34-3.46,9.94,9.94,0,0,0-4.62-1.93l-4.47-1a13.08,13.08,0,0,1-6.79-3.31,8.89,8.89,0,0,1,.93-12.61,12,12,0,0,1,8.15-2.69,13,13,0,0,1,8.45,2.57,10.11,10.11,0,0,1,3.6,7.18l-4.55.56q-.79-6.53-7.5-6.52a7.69,7.69,0,0,0-5,1.44,5.34,5.34,0,0,0-.48,7.45,8.27,8.27,0,0,0,4.17,1.89l5.23,1.13a12.88,12.88,0,0,1,6.66,3.14,8,8,0,0,1,2.13,5.88,9.24,9.24,0,0,1-3.21,7.2A12.49,12.49,0,0,1,1576.92,431.3Z"/><path class="cls-3" d="M1610.79,430.72h-4.62V397.11h4.62v14.51h16.85V397.11h4.55v33.61h-4.55V415.6h-16.85Z"/><path class="cls-3" d="M1663.8,430.72h-23.08V397.11h22.62v3.94h-18v10.66h16.07v3.84h-16.07v11.23h18.46Z"/><path class="cls-3" d="M1694.46,422l.49,8.7h-4.57l-.47-8.74a4.28,4.28,0,0,0-1.66-3.46,8.41,8.41,0,0,0-4.83-1.09h-8.34v13.29h-4.62V397.11h13.27a12.34,12.34,0,0,1,8.2,2.6,8.31,8.31,0,0,1,3.07,6.68,9.65,9.65,0,0,1-5.39,8.81C1692.66,416.2,1694.27,418.48,1694.46,422Zm-4.12-15.26a5.21,5.21,0,0,0-1.87-4.19,7.63,7.63,0,0,0-5.09-1.57h-8.3v12.58h8.25a6.89,6.89,0,0,0,5.06-1.91A6.57,6.57,0,0,0,1690.34,406.76Z"/><path class="cls-3" d="M1725.61,430.72h-23.09V397.11h22.62v3.94h-18v10.66h16.08v3.84h-16.08v11.23h18.47Z"/><path class="cls-3" d="M863,561a17.69,17.69,0,0,1-1.7,8.3,13,13,0,0,1-4.55,5,17.46,17.46,0,0,1-6.7,2.4,52.28,52.28,0,0,1-8.05.6,24.78,24.78,0,0,1-8.3-1.25,18.78,18.78,0,0,1-7-4.85l5-8.7a16.23,16.23,0,0,0,4.8,2.5,19.55,19.55,0,0,0,6,.8,28.11,28.11,0,0,0,9.05-1.15c2.16-.76,3.25-1.75,3.25-2.95q0-2.49-3.6-6.8t-11.8-9.7l4.5-10.7a52.32,52.32,0,0,1,7,5.05A43.49,43.49,0,0,1,857,546a34.16,34.16,0,0,1,4.35,7.35A19.32,19.32,0,0,1,863,561Z"/><path class="cls-3" d="M898.32,576.33a19.05,19.05,0,0,1-3.2-.25,5.63,5.63,0,0,1-2.8-1.35,21.23,21.23,0,0,1-2.6,7.75,36.77,36.77,0,0,1-5.4,7.25,65.24,65.24,0,0,1-7.75,6.9q-4.46,3.4-9.55,6.7l-7.7-7.3q5.49-3.3,10.1-6.6a79.08,79.08,0,0,0,7.8-6.3,36.41,36.41,0,0,0,5-5.6,8.4,8.4,0,0,0,1.8-4.6,14.86,14.86,0,0,0-1.8-5.75,61.54,61.54,0,0,0-4.6-7.85l7.6-7.6c1.4,2.4,2.61,4.44,3.65,6.1a34.17,34.17,0,0,0,2.85,4,8.88,8.88,0,0,0,2.6,2.25,6,6,0,0,0,2.9.7h4v11.5Z"/><path class="cls-3" d="M929.22,576.33a16,16,0,0,1-6.8-1.3,11,11,0,0,1-4.7-4.3,12.84,12.84,0,0,1-5,4.25,17.07,17.07,0,0,1-7.2,1.35h-4.3c-.74,0-1.34-.51-1.8-1.55a10.14,10.14,0,0,1-.7-4.15,10.56,10.56,0,0,1,.7-4.2c.46-1.06,1.06-1.6,1.8-1.6h4.1a28.09,28.09,0,0,0,4.15-.25,6.1,6.1,0,0,0,2.7-1,4.4,4.4,0,0,0,1.55-2.1,11.91,11.91,0,0,0,.6-3.45v-4.2l8.3-2.1q0,3.71.25,6.2a11,11,0,0,0,1,4.05,4.55,4.55,0,0,0,2.3,2.2,10.39,10.39,0,0,0,4.1.65H935v11.5Zm-18.1,20.1-7.3-6.2,5.8-6.9,7.4,6.1Zm12.8,0-7.3-6.2,5.8-6.9,7.3,6.1Z"/><path class="cls-3" d="M963,559.23a17.34,17.34,0,0,1-1.45,7.2,15.14,15.14,0,0,1-4.05,5.4,17.78,17.78,0,0,1-6.25,3.35,26.63,26.63,0,0,1-8,1.15H935c-.74,0-1.34-.51-1.8-1.55a10.14,10.14,0,0,1-.7-4.15,10.56,10.56,0,0,1,.7-4.2c.46-1.06,1.06-1.6,1.8-1.6h8.7a18.74,18.74,0,0,0,7.65-1.2,7.55,7.55,0,0,0,3.55-3q-.81-4.2-5.15-8.7a104.73,104.73,0,0,0-12.95-10.8,53.83,53.83,0,0,1,.95-7.2,5.27,5.27,0,0,1,1.65-3.2q3.3-2.19,7.35-4.55t8.3-4.65q4.24-2.29,8.4-4.4c2.76-1.4,5.31-2.66,7.65-3.8l-1.5,12.1q-6.51,2.91-11.9,5.7t-10.2,5.7Q963,549.13,963,559.23Zm4.3-48.1q-6.41,3.21-13.5,7.1t-15,9l.9-7.2q7.8-5.1,14.9-9.1t13.7-7.3Z"/><path class="cls-3" d="M1025.62,576.33q-3.51-.09-6.45-.3c-2-.13-3.35-.2-4.15-.2a7.34,7.34,0,0,0-2.85.4c-.57.27-.85.57-.85.9a.83.83,0,0,0,.4.75,6.5,6.5,0,0,0,1.8.55l6.8,1.3a12,12,0,0,1,4.95,1.9,4.79,4.79,0,0,1,1.75,4.1,11,11,0,0,1-2.65,7.2,22.13,22.13,0,0,1-6.85,5.4,39.1,39.1,0,0,1-9.4,3.4,45.32,45.32,0,0,1-10.2,1.2,29.43,29.43,0,0,1-9.65-1.5,20.4,20.4,0,0,1-7.4-4.35,19.33,19.33,0,0,1-4.75-7.1,26.26,26.26,0,0,1-1.7-9.85,27.79,27.79,0,0,1,1.5-9.4,53,53,0,0,1,4.4-9.1l7.1,2.9a43.61,43.61,0,0,0-3.3,7.8,21.53,21.53,0,0,0-1,6q0,6.4,4,9.85t11.75,3.45a44.33,44.33,0,0,0,6.45-.45,51.34,51.34,0,0,0,5.5-1.1,33.1,33.1,0,0,0,4.25-1.4c1.2-.5,2.13-.92,2.8-1.25a7.52,7.52,0,0,0-3.2-1l-5.2-1.1a11.31,11.31,0,0,1-5.25-2.3q-2.06-1.69-2-5.6a10.89,10.89,0,0,1,4.45-9.3q4.44-3.3,13.85-3.3h6.5v11.5Z"/><path class="cls-3" d="M1052.31,545.63a8.75,8.75,0,0,1,5.35,1.75,15,15,0,0,1,4,4.6,25.11,25.11,0,0,1,2.55,6.35,28.44,28.44,0,0,1,.9,7.1,11.31,11.31,0,0,1-.8,4.1,14.75,14.75,0,0,1-2.1,3.8,10.84,10.84,0,0,1-3,2.75,6.57,6.57,0,0,1-3.5,1,16,16,0,0,1-3.55-.45,33.92,33.92,0,0,1-4-1.2,30.19,30.19,0,0,1-7.75-4.25,13.86,13.86,0,0,1-5.2,4,17.39,17.39,0,0,1-6.6,1.1H1027c-.73,0-1.33-.58-1.8-1.75a10.38,10.38,0,0,1-.7-3.85,11.56,11.56,0,0,1,.7-4.05c.47-1.23,1.07-1.85,1.8-1.85h1.2a22.17,22.17,0,0,0,5.2-.6,6,6,0,0,0,3.9-3.1q1.61-3,3.3-5.8a38.92,38.92,0,0,1,3.55-5,18.72,18.72,0,0,1,3.85-3.45A7.82,7.82,0,0,1,1052.31,545.63Zm-1,10.6a4.47,4.47,0,0,0-3.1,1.7,19.22,19.22,0,0,0-3.1,4.9,14.73,14.73,0,0,0,2.3,1.5,20.19,20.19,0,0,0,2.65,1.2,15.6,15.6,0,0,0,2.65.75,12.16,12.16,0,0,0,2.3.25,2.6,2.6,0,0,0,1.3-.4,1.85,1.85,0,0,0,.9-.9,10.94,10.94,0,0,0-.45-3.05,11.3,11.3,0,0,0-1.3-2.9,8.8,8.8,0,0,0-1.9-2.2A3.55,3.55,0,0,0,1051.31,556.23Z"/><path class="cls-3" d="M1118.91,566.53a20.43,20.43,0,0,1-2,8.85,34.45,34.45,0,0,1-5.45,8.15,62,62,0,0,1-8.15,7.6,122.06,122.06,0,0,1-10.2,7.2l-7.7-7.3q5.5-3.3,10.1-6.6a76.79,76.79,0,0,0,7.8-6.3,35.44,35.44,0,0,0,5-5.6,8.4,8.4,0,0,0,1.8-4.6,8.55,8.55,0,0,0-.5-2.55,30.57,30.57,0,0,0-1.35-3.4,34.91,34.91,0,0,0-2-3.8q-1.2-1.95-2.5-3.85l7.5-7.5a46.65,46.65,0,0,1,6,10.95A26.65,26.65,0,0,1,1118.91,566.53Z"/><path class="cls-3" d="M1140.31,574.73l-9.4,2.1v-66l9.4-4.5Z"/><path class="cls-3" d="M1176,576.33a19.14,19.14,0,0,1-3.2-.25,5.67,5.67,0,0,1-2.8-1.35,21,21,0,0,1-2.6,7.75,36.77,36.77,0,0,1-5.4,7.25,64.46,64.46,0,0,1-7.75,6.9q-4.46,3.4-9.55,6.7L1137,596q5.51-3.3,10.1-6.6a76.79,76.79,0,0,0,7.8-6.3,36.41,36.41,0,0,0,5-5.6,8.4,8.4,0,0,0,1.8-4.6,14.86,14.86,0,0,0-1.8-5.75,60.38,60.38,0,0,0-4.6-7.85l7.6-7.6c1.4,2.4,2.62,4.44,3.65,6.1a34.17,34.17,0,0,0,2.85,4,9,9,0,0,0,2.6,2.25,6,6,0,0,0,2.9.7h4v11.5Z"/><path class="cls-3" d="M1195.71,530.53a9.79,9.79,0,0,1,6.75,2.45,17.82,17.82,0,0,1,4.4,6.2,33.19,33.19,0,0,1,2.35,8.35,58.82,58.82,0,0,1,.7,8.9q0,10.5-5,15.2t-16,4.7h-10c-.73,0-1.33-.51-1.8-1.55a10.14,10.14,0,0,1-.7-4.15,10.56,10.56,0,0,1,.7-4.2c.47-1.06,1.07-1.6,1.8-1.6h10.2a33.77,33.77,0,0,0,7.35-.8q3.64-.79,5-2.6a2.38,2.38,0,0,0,.35-1.3c0-.6,0-1.43,0-2.5a20.13,20.13,0,0,1-4.4,1,30.4,30.4,0,0,1-3.6.25q-11.2,0-11.2-11.8a18.78,18.78,0,0,1,1-6,19.91,19.91,0,0,1,2.7-5.35,14,14,0,0,1,4.1-3.8A10.12,10.12,0,0,1,1195.71,530.53Zm-6.9-6.3-7.3-6.1,5.8-6.9,7.4,6Zm5.9,16.2a4.27,4.27,0,0,0-3.5,1.8,6.12,6.12,0,0,0-1.4,3.8,3.29,3.29,0,0,0,1.1,2.45,5.09,5.09,0,0,0,3.6,1,17.89,17.89,0,0,0,3.7-.35,12.83,12.83,0,0,0,2.8-.85,13,13,0,0,0-2.3-5.65A4.94,4.94,0,0,0,1194.71,540.43Zm6.9-16.2-7.3-6.1,5.8-6.9,7.3,6Z"/><path class="cls-3" d="M1255.61,576.33a14,14,0,0,1-7.5-1.75,11.8,11.8,0,0,1-4.3-4.6,19.42,19.42,0,0,1-2-6.5,64.72,64.72,0,0,1-.6-7.45c-.14-3.06-.24-6.5-.3-10.3s-.15-7.7-.25-11.7-.24-8-.4-12-.39-7.73-.65-11.2l9.3-4.5c0,3.74,0,7.59,0,11.55s.1,7.92.2,11.85.2,7.84.3,11.7.18,7.54.25,11c0,1.6,0,3.15.1,4.65a14,14,0,0,0,.7,4,5.52,5.52,0,0,0,2,2.75,6.75,6.75,0,0,0,4,1h4v11.5Z"/><path class="cls-3" d="M1309.21,576.33a30.85,30.85,0,0,1-5.3-.4,9.94,9.94,0,0,1-4-1.55,11.41,11.41,0,0,1-3.1-3.25,24.18,24.18,0,0,1-2.6-5.6l-6.55,4.35a50.53,50.53,0,0,1-6,3.4,30.87,30.87,0,0,1-6.35,2.25,33.27,33.27,0,0,1-7.75.8h-7.1c-.74,0-1.34-.51-1.8-1.55a10.14,10.14,0,0,1-.7-4.15,10.56,10.56,0,0,1,.7-4.2c.46-1.06,1.06-1.6,1.8-1.6h7.4a44.35,44.35,0,0,0,6.95-.45,26.15,26.15,0,0,0,5.4-1.5,50.71,50.71,0,0,0,5.65-2.7q3-1.65,7.6-4c-1.54-.46-3-.93-4.55-1.4l-4.15-1.3c-1.27-.4-2.37-.73-3.3-1a8.93,8.93,0,0,0-2.1-.4,5.1,5.1,0,0,0-2.6,1,22.66,22.66,0,0,0-4.3,4.35l-6.4-3.7a43.77,43.77,0,0,1,6.3-8.8q3.39-3.6,6.8-3.6a18.18,18.18,0,0,1,5.8,1.15c2.2.77,4.61,1.6,7.25,2.5s5.45,1.74,8.45,2.5a38,38,0,0,0,9.5,1.15h3.2l-2.2,10.2a31.74,31.74,0,0,0-5.65.7,24.79,24.79,0,0,0-5,1.6,15,15,0,0,0,1.65,2.2,4.47,4.47,0,0,0,1.6,1.15,5.4,5.4,0,0,0,1.9.4c.7,0,1.51.05,2.45.05h9.8v11.5Zm-26.9,19.8-7.6-6.5,6.1-7.2,7.6,6.4Z"/><path class="cls-3" d="M1346,576.33a16,16,0,0,1-6.8-1.3,11,11,0,0,1-4.7-4.3,12.84,12.84,0,0,1-5,4.25,17.07,17.07,0,0,1-7.2,1.35H1318c-.74,0-1.34-.51-1.8-1.55a10.14,10.14,0,0,1-.7-4.15,10.56,10.56,0,0,1,.7-4.2c.46-1.06,1.06-1.6,1.8-1.6h4.1a28.09,28.09,0,0,0,4.15-.25,6.1,6.1,0,0,0,2.7-1,4.4,4.4,0,0,0,1.55-2.1,11.91,11.91,0,0,0,.6-3.45v-4.2l8.3-2.1q0,3.71.25,6.2a11,11,0,0,0,1,4.05,4.55,4.55,0,0,0,2.3,2.2,10.39,10.39,0,0,0,4.1.65h4.7v11.5Zm-11.3-30-7.6-6.4,6.1-7.2,7.6,6.4Z"/><path class="cls-3" d="M1348.81,596.43l-7.3-6.2,5.8-6.9,7.4,6.1Zm15.6-34.3a5,5,0,0,0-.45-1.7,22.12,22.12,0,0,0-1.3-2.55c-.57-1-1.2-2-1.9-3s-1.45-2.1-2.25-3.1l7.5-7.9a32.11,32.11,0,0,1,5.6,9.25,24.47,24.47,0,0,1,1.8,8.55q0,7.2-4,11t-12.3,3.75h-5.3c-.74,0-1.34-.51-1.8-1.55a10.14,10.14,0,0,1-.7-4.15,10.56,10.56,0,0,1,.7-4.2c.46-1.06,1.06-1.6,1.8-1.6h5.3a17.44,17.44,0,0,0,5.3-.65C1363.74,563.75,1364.41,563.07,1364.41,562.13Zm-2.8,34.3-7.3-6.2,5.8-6.9,7.3,6.1Z"/><path class="cls-3" d="M1394.71,574.73l-9.4,2.1v-66l9.4-4.5Z"/><path class="cls-3" d="M1448.9,566.53a20.43,20.43,0,0,1-2,8.85,34.45,34.45,0,0,1-5.45,8.15,62,62,0,0,1-8.15,7.6,122.06,122.06,0,0,1-10.2,7.2l-7.7-7.3q5.5-3.3,10.1-6.6a76.79,76.79,0,0,0,7.8-6.3,35.44,35.44,0,0,0,5-5.6,8.4,8.4,0,0,0,1.8-4.6,8.55,8.55,0,0,0-.5-2.55,30.57,30.57,0,0,0-1.35-3.4,34.91,34.91,0,0,0-2-3.8q-1.2-1.95-2.5-3.85l7.5-7.5a46.65,46.65,0,0,1,6,10.95A26.65,26.65,0,0,1,1448.9,566.53Z"/><path class="cls-3" d="M1495.2,561a17.56,17.56,0,0,1-1.7,8.3,12.89,12.89,0,0,1-4.55,5,17.4,17.4,0,0,1-6.7,2.4,52.18,52.18,0,0,1-8,.6,24.83,24.83,0,0,1-8.3-1.25,18.94,18.94,0,0,1-7-4.85l5-8.7a16.47,16.47,0,0,0,4.8,2.5,19.64,19.64,0,0,0,6,.8,28,28,0,0,0,9-1.15c2.17-.76,3.25-1.75,3.25-2.95q0-2.49-3.6-6.8t-11.8-9.7l4.5-10.7a51.68,51.68,0,0,1,7,5.05,43.49,43.49,0,0,1,6.15,6.45,34.16,34.16,0,0,1,4.35,7.35A19.32,19.32,0,0,1,1495.2,561Z"/><path class="cls-3" d="M1567.9,542.53a38.61,38.61,0,0,1,5.6,10.65,33.41,33.41,0,0,1,1.9,10.65,32.38,32.38,0,0,1-1.9,11.4,24.73,24.73,0,0,1-5.4,8.7,24,24,0,0,1-8.6,5.6,31.06,31.06,0,0,1-11.4,2,29,29,0,0,1-9.6-1.5,20.12,20.12,0,0,1-7.35-4.4,19.91,19.91,0,0,1-4.75-7.15,26.42,26.42,0,0,1-1.7-9.85,28,28,0,0,1,1.5-9.35,50,50,0,0,1,4.4-9l7.1,2.9a41.51,41.51,0,0,0-3.3,7.75,21.8,21.8,0,0,0-1,6q0,6.4,4,9.85t11.65,3.45q7.7,0,12.4-4t4.7-11.25a20.76,20.76,0,0,0-1.6-7.35,38.61,38.61,0,0,0-4.5-8.25Zm-19.3,3.1-7.6-6.4,6.1-7.2,7.6,6.4Z"/><path class="cls-3" d="M1596.7,574.73l-9.4,2.1v-66l9.4-4.5Z"/><path class="cls-3" d="M1636.4,576.33a29.42,29.42,0,0,1-3.5,7.55,41.75,41.75,0,0,1-5.6,6.85,68.45,68.45,0,0,1-7.45,6.4q-4.15,3.11-9,6.1l-7.7-7.2q4.61-2.7,8.75-5.45t7.55-5.4a63.07,63.07,0,0,0,5.8-5,23.91,23.91,0,0,0,3.6-4.4,15.94,15.94,0,0,1-4.45,1c-1.57.13-2.72.2-3.45.2a11.89,11.89,0,0,1-8.05-2.8q-3.25-2.79-3.25-8.4a24.25,24.25,0,0,1,1-6.9,22.41,22.41,0,0,1,2.8-6.1,15.24,15.24,0,0,1,4.3-4.35,9.63,9.63,0,0,1,5.4-1.65,11,11,0,0,1,5.6,1.45,14.11,14.11,0,0,1,4.3,3.9,21.91,21.91,0,0,1,3,5.75,28.45,28.45,0,0,1,1.45,7h6.6v11.5Zm-14.2-19.1a4.06,4.06,0,0,0-2,.55,5.16,5.16,0,0,0-1.6,1.45,9.32,9.32,0,0,0-1,1.9,5.07,5.07,0,0,0-.4,1.9,3.08,3.08,0,0,0,1.35,2.6,6.17,6.17,0,0,0,3.75,1,28.23,28.23,0,0,0,3.65-.25,16.36,16.36,0,0,0,3.15-.65,14,14,0,0,0-2.5-6.2A5.33,5.33,0,0,0,1622.2,557.23Z"/><path class="cls-3" d="M1672,576.33a16,16,0,0,1-6.8-1.3,11,11,0,0,1-4.7-4.3,12.84,12.84,0,0,1-5,4.25,17.07,17.07,0,0,1-7.2,1.35H1644c-.73,0-1.33-.51-1.8-1.55a10.14,10.14,0,0,1-.7-4.15,10.56,10.56,0,0,1,.7-4.2c.47-1.06,1.07-1.6,1.8-1.6h4.1a28.09,28.09,0,0,0,4.15-.25,6.1,6.1,0,0,0,2.7-1,4.4,4.4,0,0,0,1.55-2.1,11.91,11.91,0,0,0,.6-3.45v-4.2l8.3-2.1q0,3.71.25,6.2a11,11,0,0,0,1,4.05,4.55,4.55,0,0,0,2.3,2.2,10.39,10.39,0,0,0,4.1.65h4.7v11.5Zm-11.3-30-7.6-6.4,6.1-7.2,7.6,6.4Z"/><path class="cls-3" d="M1685.7,556.23a15.9,15.9,0,0,1,1.35-6.6,17.52,17.52,0,0,1,3.6-5.25,16.44,16.44,0,0,1,5.15-3.5,15.27,15.27,0,0,1,6.1-1.25q7.29,0,14.5,6l-3.7,7.4a24.75,24.75,0,0,0-5.35-2,22.19,22.19,0,0,0-5.25-.65,8.34,8.34,0,0,0-5.55,1.8,5.09,5.09,0,0,0-2.15,3.9,5,5,0,0,0,.85,2.8,8,8,0,0,0,2.1,2.2,10.37,10.37,0,0,0,2.65,1.4,7.33,7.33,0,0,0,2.5.5q5.4,0,19.7-4.2l-1.2,10.9a149.62,149.62,0,0,1-20,5.1,104.88,104.88,0,0,1-18.15,1.6h-5c-.73,0-1.33-.51-1.8-1.55a10.14,10.14,0,0,1-.7-4.15,10.56,10.56,0,0,1,.7-4.2c.47-1.06,1.07-1.6,1.8-1.6h7.3c.86,0,1.9,0,3.1-.1a13.27,13.27,0,0,1-1.9-4.15A16.86,16.86,0,0,1,1685.7,556.23Z"/><path class="cls-3" d="M1625.28,867.8a25.74,25.74,0,0,1,3.6,9.64,42.42,42.42,0,0,1,.5,5.14c.06,1.77.09,3.67.09,5.69H1628c0-2-.1-3.77-.24-5.42a42.41,42.41,0,0,0-.65-4.67,25.74,25.74,0,0,0-1.22-4.16,27.27,27.27,0,0,0-1.89-3.89Z"/><path class="cls-3" d="M1633.15,881.56a3.55,3.55,0,0,1,.29-1.43,3.84,3.84,0,0,1,.79-1.17,3.55,3.55,0,0,1,1.15-.8,3.49,3.49,0,0,1,1.42-.28,3.66,3.66,0,0,1,1.44.28,3.53,3.53,0,0,1,1.17.8,4,4,0,0,1,.78,1.17,3.65,3.65,0,0,1,0,2.85,3.87,3.87,0,0,1-.78,1.17,3.53,3.53,0,0,1-1.17.8,3.66,3.66,0,0,1-1.44.28,3.49,3.49,0,0,1-1.42-.28,3.55,3.55,0,0,1-1.15-.8,3.72,3.72,0,0,1-.79-1.17A3.53,3.53,0,0,1,1633.15,881.56Zm2,0a1.73,1.73,0,0,0,.47,1.23,1.64,1.64,0,0,0,1.22.49,1.73,1.73,0,1,0,0-3.45,1.64,1.64,0,0,0-1.22.49A1.74,1.74,0,0,0,1635.11,881.56Z"/><path class="cls-3" d="M1674.59,887.64A3.27,3.27,0,0,1,1671,885a5.27,5.27,0,0,1-2,1.54,16.19,16.19,0,0,1-3,1,26.61,26.61,0,0,1-3.71.55q-2,.15-4.08.15c-1.2,0-2.35,0-3.46-.14a10.67,10.67,0,0,1-3-.64,4.69,4.69,0,0,1-2.06-1.47,4.06,4.06,0,0,1-.77-2.61,7.19,7.19,0,0,1,.22-1.6,7.69,7.69,0,0,1,.8-2l1.47.57a10.7,10.7,0,0,0-.51,1.51,5.27,5.27,0,0,0-.12,1.09c0,1,.66,1.77,2,2.19a21.15,21.15,0,0,0,5.87.62,41.47,41.47,0,0,0,5.07-.27,23.46,23.46,0,0,0,3.6-.7,8.21,8.21,0,0,0,2.19-1,1.8,1.8,0,0,0,.85-1l.32-1.76,1.63-.45c0,.87,0,1.6.08,2.18a3.13,3.13,0,0,0,.39,1.37,1.73,1.73,0,0,0,.86.74,4.18,4.18,0,0,0,1.52.22h.64v2.47ZM1659,879.31l-1.89-1.56,1.38-1.63,1.85,1.56Zm3.81,0-1.86-1.56,1.41-1.63,1.82,1.56Z"/><path class="cls-3" d="M1690.66,887.64a2.69,2.69,0,0,1-1.84-.63,6.61,6.61,0,0,1-1.33-1.61,2.94,2.94,0,0,1-.87,1.88,2.11,2.11,0,0,1-1.44.64,4.35,4.35,0,0,1-1.1-.16,8.76,8.76,0,0,1-1.28-.43,8.44,8.44,0,0,1-1.3-.67,11.68,11.68,0,0,1-1.21-.88,4.41,4.41,0,0,1-1.78,1.47,5.71,5.71,0,0,1-2.19.39h-.51a.65.65,0,0,1-.55-.39,1.69,1.69,0,0,1-.22-.83,1.74,1.74,0,0,1,.22-.86.65.65,0,0,1,.55-.39h.51a5.86,5.86,0,0,0,1.84-.3,2.82,2.82,0,0,0,1.52-1.43c.38-.66.75-1.28,1.1-1.87a11.63,11.63,0,0,1,1.08-1.53,4.87,4.87,0,0,1,1.13-1,2.43,2.43,0,0,1,1.27-.37,2.33,2.33,0,0,1,1.32.4,3.49,3.49,0,0,1,1,1.14c.47.77.86,1.46,1.17,2.08a16.1,16.1,0,0,0,.88,1.57,3.82,3.82,0,0,0,.91,1,2.32,2.32,0,0,0,1.33.35h.87v2.47ZM1684,881a1.79,1.79,0,0,0-1.39.85,12.16,12.16,0,0,0-1.3,2.16,7.29,7.29,0,0,0,2.07,1.21,5.18,5.18,0,0,0,1.77.39,1,1,0,0,0,.67-.29.83.83,0,0,0,.32-.64,5.09,5.09,0,0,0-.17-1.26,5.64,5.64,0,0,0-.47-1.21,3.08,3.08,0,0,0-.68-.88A1.29,1.29,0,0,0,1684,881Z"/><path class="cls-3" d="M1715,887.64a5.13,5.13,0,0,1-2.37-.49,3.11,3.11,0,0,1-1.47-1.66,3.69,3.69,0,0,1-3.43,2.15,3.4,3.4,0,0,1-1.87-.53,3.55,3.55,0,0,1-1.29-1.65,4.27,4.27,0,0,1-1.51,1.63,4.46,4.46,0,0,1-2.33.55,4.76,4.76,0,0,1-2.29-.47,3.36,3.36,0,0,1-1.39-1.68,4.17,4.17,0,0,1-1.56,1.63,4.12,4.12,0,0,1-2.06.52h-1.66a.64.64,0,0,1-.55-.36,1.61,1.61,0,0,1-.22-.89,1.53,1.53,0,0,1,.22-.88.64.64,0,0,1,.55-.34h1.53a3.59,3.59,0,0,0,2.08-.57,2.42,2.42,0,0,0,.9-2v-1.47l1.79-.45a14.23,14.23,0,0,0,.13,2.14,3.5,3.5,0,0,0,.45,1.39,1.78,1.78,0,0,0,.83.76,3.2,3.2,0,0,0,1.28.22,3.12,3.12,0,0,0,2.25-.67,3.39,3.39,0,0,0,.76-2.31v-1.08l1.79-.45a7.73,7.73,0,0,0,.57,3.49,1.93,1.93,0,0,0,1.8,1,2.55,2.55,0,0,0,1.66-.57,2.65,2.65,0,0,0,.77-2v-1.47l1.79-.45a13.13,13.13,0,0,0,.13,2,3.45,3.45,0,0,0,.48,1.41,2.08,2.08,0,0,0,1,.82,4.1,4.1,0,0,0,1.57.25h1.15v2.47Z"/><path class="cls-3" d="M1726.11,882a5.38,5.38,0,0,1-1.55,4.22q-1.55,1.38-5,1.38h-3.1a.66.66,0,0,1-.55-.36,1.61,1.61,0,0,1-.22-.89,1.53,1.53,0,0,1,.22-.88.65.65,0,0,1,.55-.34h3.17a7.83,7.83,0,0,0,3.26-.56,2.3,2.3,0,0,0,1.41-1.58,3.33,3.33,0,0,0,0-.37c0-.14,0-.35,0-.62a6.76,6.76,0,0,1-1.6.52,7.37,7.37,0,0,1-1.41.15,3.11,3.11,0,0,1-2.43-.93,3.72,3.72,0,0,1-.83-2.56,6.15,6.15,0,0,1,.29-1.84,5.76,5.76,0,0,1,.8-1.63,4.34,4.34,0,0,1,1.21-1.17,2.82,2.82,0,0,1,1.54-.45,2.68,2.68,0,0,1,2,.79,5.74,5.74,0,0,1,1.3,2,10.86,10.86,0,0,1,.7,2.58A17.42,17.42,0,0,1,1726.11,882Zm-6.17-10.63-1.89-1.57,1.37-1.63,1.86,1.57Zm4.22,8.58a6.19,6.19,0,0,0-.85-2.58,1.92,1.92,0,0,0-1.65-1,1.72,1.72,0,0,0-1.36.75,2.92,2.92,0,0,0-.59,1.84,1.64,1.64,0,0,0,.42,1.12,1.78,1.78,0,0,0,1.41.48,6.19,6.19,0,0,0,1.47-.16A4.54,4.54,0,0,0,1724.16,880Zm-.42-8.58-1.85-1.57,1.41-1.63,1.82,1.57Z"/><path d="M1639.61,851.48h0A15.61,15.61,0,0,1,1624,835.87v-15.6h31.21v15.6A15.61,15.61,0,0,1,1639.61,851.48Z"/><path class="cls-3" d="M1642.84,840.48a4.87,4.87,0,0,1-6.54,0,4.14,4.14,0,0,1-1.18-3h1.74a2.9,2.9,0,0,0,.72,1.92,2.44,2.44,0,0,0,1.9.78,2.59,2.59,0,0,0,2-.8,2.56,2.56,0,0,0,.66-1.76c0-1.7-1.16-2.58-2.86-2.58h-.84v-1.58h.84a2.26,2.26,0,0,0,2.56-2.34,2.17,2.17,0,0,0-.66-1.62,2.34,2.34,0,0,0-1.7-.68,2.55,2.55,0,0,0-1.7.56,2.5,2.5,0,0,0-.84,2h-1.74a3.84,3.84,0,0,1,1.34-3.06,4.58,4.58,0,0,1,3-1,4.3,4.3,0,0,1,3,1.12,3.5,3.5,0,0,1,1.12,2.72,3.59,3.59,0,0,1-2,3.14,3.55,3.55,0,0,1,2.32,3.4A4.05,4.05,0,0,1,1642.84,840.48Z"/><path d="M1339.59,381.16h0a15.6,15.6,0,0,1-15.61-15.6V350h31.21v15.6A15.59,15.59,0,0,1,1339.59,381.16Z"/><path class="cls-3" d="M1339.62,371.17v-12l-3.3,2.42v-1.9l3.4-2.46h1.64v13.9Z"/><path d="M842.32,486.72h0a15.6,15.6,0,0,1-15.6-15.61v-15.6h31.2v15.6A15.6,15.6,0,0,1,842.32,486.72Z"/><path class="cls-3" d="M838.17,476.72v-1.46l5.62-6.94a3.1,3.1,0,0,0,.76-2,2.05,2.05,0,0,0-2.28-2.24,2.23,2.23,0,0,0-2.36,2.52h-1.76a3.86,3.86,0,0,1,4.1-4.06,4,4,0,0,1,3.4,1.6,3.59,3.59,0,0,1,.64,2.16,4.56,4.56,0,0,1-1.18,3l-4.72,5.86h6.12v1.6Z"/><rect class="cls-4" x="1727.5" width="1" height="1080"/><rect class="cls-5" y="971.5" width="1920" height="1"/><rect class="cls-6" y="107.5" width="1920" height="1"/><rect class="cls-7" y="886.95" width="1920" height="1"/><rect class="cls-8" x="959.5" width="1" height="216"/><rect class="cls-9" x="959.5" y="864" width="1" height="216"/><rect class="cls-10" x="1536" y="539.34" width="384" height="1.33"/><rect class="cls-11" y="539.34" width="384" height="1.33"/><rect class="cls-12" x="892.31" y="539.42" width="135.39" height="1"/><rect class="cls-13" x="959.5" y="472.23" width="1" height="135.39"/></g></svg>